<?xml version="1.0" encoding="UTF-8" standalone="no"?>
<svg
   xmlns:dc="http://purl.org/dc/elements/1.1/"
   xmlns:cc="http://creativecommons.org/ns#"
   xmlns:rdf="http://www.w3.org/1999/02/22-rdf-syntax-ns#"
   xmlns:svg="http://www.w3.org/2000/svg"
   xmlns="http://www.w3.org/2000/svg"
   id="svg19"
   height="112.9mm"
   width="112.9mm"
   version="1.0">
  <metadata
     id="metadata23">
    <rdf:RDF>
      <cc:Work
         rdf:about="">
        <dc:format>image/svg+xml</dc:format>
        <dc:type
           rdf:resource="http://purl.org/dc/dcmitype/StillImage" />
      </cc:Work>
    </rdf:RDF>
  </metadata>
  <defs
     id="defs3">
    <pattern
       y="0"
       x="0"
       height="6"
       width="6"
       patternUnits="userSpaceOnUse"
       id="EMFhbasepattern" />
  </defs>
  <path
     id="path5"
     d="  M 1859.0404,1883.1375   L 2241.9308,1883.1375   L 2241.9308,2139.1854   L 1859.0404,2139.1854   z "
     style="fill:#80e0ff;fill-rule:nonzero;fill-opacity:1;stroke:#000000;stroke-width:10.62747px;stroke-linecap:butt;stroke-linejoin:miter;stroke-miterlimit:282;stroke-dasharray:none;stroke-opacity:1;" />
  <path
     id="path7"
     d="  M 2050.4856,1979.1602   L 2050.4856,2043.1627  "
     style="fill:none;stroke:#000000;stroke-width:10.62747px;stroke-linecap:butt;stroke-linejoin:miter;stroke-miterlimit:282;stroke-dasharray:none;stroke-opacity:1;" />
  <path
     id="path9"
     d="  M 1960.1144,2011.1803   L 2103.6983,2011.1803  "
     style="fill:none;stroke:#000000;stroke-width:10.62747px;stroke-linecap:butt;stroke-linejoin:miter;stroke-miterlimit:282;stroke-dasharray:none;stroke-opacity:1;" />
  <ellipse
     id="ellipse11"
     ry="25.928013"
     rx="25.928013"
     cy="2010.4998"
     cx="2124.2749"
     style="fill:none;stroke:#000000;stroke-width:10.62747px;stroke-linecap:butt;stroke-linejoin:miter;stroke-miterlimit:282;stroke-dasharray:none;stroke-opacity:1;" />
  <path
     id="path13"
     d="  M 2029.1176,1952.4704   L 2019.9222,1952.4704   L 2016.2666,1942.9437   L 1999.534,1942.9437   L 1996.0669,1952.4704   L 1987.0976,1952.4704   L 2003.4157,1910.4699   L 2012.3473,1910.4699   z  M 2013.5532,1935.8743   L 2007.7873,1920.2612   L 2002.1344,1935.8743   z "
     style="fill:#000000;fill-rule:nonzero;fill-opacity:1;stroke:none;" />
  <path
     id="path15"
     d="  M 2060.397,1937.0463   L 2068.6126,1939.6548   C 2067.3689,1944.2291 2065.2585,1947.6315 2062.3567,1949.8619   C 2059.4172,1952.0923 2055.7239,1953.1887 2051.2016,1953.1887   C 2045.6618,1953.1887 2041.1018,1951.2985 2037.5216,1947.4802   C 2033.9414,1943.662 2032.1325,1938.445 2032.1325,1931.8671   C 2032.1325,1924.8733 2033.9414,1919.4295 2037.5216,1915.5735   C 2041.1394,1911.6797 2045.8502,1909.7516 2051.7292,1909.7516   C 2056.8545,1909.7516 2061,1911.2638 2064.2033,1914.326   C 2066.1253,1916.1027 2067.5574,1918.6734 2068.4995,1922.038   L 2060.1332,1924.0416   C 2059.6433,1921.8868 2058.5881,1920.1478 2057.043,1918.9003   C 2055.4601,1917.6527 2053.5382,1917.01 2051.3147,1917.01   C 2048.1867,1917.01 2045.6618,1918.1442 2043.7398,1920.3746   C 2041.8178,1922.6051 2040.838,1926.2343 2040.838,1931.2244   C 2040.838,1936.517 2041.8178,1940.2974 2043.7021,1942.5657   C 2045.6241,1944.8339 2048.0737,1945.9681 2051.1262,1945.9681   C 2053.3874,1945.9681 2055.3094,1945.2498 2056.9299,1943.8132   C 2058.5504,1942.3767 2059.7187,1940.1084 2060.397,1937.0463   z "
     style="fill:#000000;fill-rule:nonzero;fill-opacity:1;stroke:none;" />
  <path
     id="path17"
     d="  M 2102.6808,1937.0463   L 2110.8963,1939.6548   C 2109.615,1944.2291 2107.5423,1947.6315 2104.6028,1949.8619   C 2101.7009,1952.0923 2097.97,1953.1887 2093.4854,1953.1887   C 2087.9455,1953.1887 2083.3478,1951.2985 2079.7677,1947.4802   C 2076.1875,1943.662 2074.4162,1938.445 2074.4162,1931.8671   C 2074.4162,1924.8733 2076.2252,1919.4295 2079.8053,1915.5735   C 2083.4232,1911.6797 2088.134,1909.7516 2094.013,1909.7516   C 2099.1383,1909.7516 2103.2838,1911.2638 2106.4871,1914.326   C 2108.3714,1916.1027 2109.8035,1918.6734 2110.7833,1922.038   L 2102.417,1924.0416   C 2101.8894,1921.8868 2100.8719,1920.1478 2099.289,1918.9003   C 2097.7439,1917.6527 2095.8219,1917.01 2093.5608,1917.01   C 2090.4705,1917.01 2087.9455,1918.1442 2086.0235,1920.3746   C 2084.1016,1922.6051 2083.1217,1926.2343 2083.1217,1931.2244   C 2083.1217,1936.517 2084.0639,1940.2974 2085.9859,1942.5657   C 2087.8702,1944.8339 2090.3574,1945.9681 2093.41,1945.9681   C 2095.6335,1945.9681 2097.5932,1945.2498 2099.2137,1943.8132   C 2100.8342,1942.3767 2101.9648,1940.1084 2102.6808,1937.0463   z "
     style="fill:#000000;fill-rule:nonzero;fill-opacity:1;stroke:none;" />
</svg>
