<?xml version="1.0" encoding="UTF-8" standalone="no"?>
<svg
   xmlns:dc="http://purl.org/dc/elements/1.1/"
   xmlns:cc="http://creativecommons.org/ns#"
   xmlns:rdf="http://www.w3.org/1999/02/22-rdf-syntax-ns#"
   xmlns:svg="http://www.w3.org/2000/svg"
   xmlns="http://www.w3.org/2000/svg"
   id="svg19"
   height="112.9mm"
   width="112.9mm"
   version="1.0">
  <metadata
     id="metadata23">
    <rdf:RDF>
      <cc:Work
         rdf:about="">
        <dc:format>image/svg+xml</dc:format>
        <dc:type
           rdf:resource="http://purl.org/dc/dcmitype/StillImage" />
      </cc:Work>
    </rdf:RDF>
  </metadata>
  <defs
     id="defs3">
    <pattern
       y="0"
       x="0"
       height="6"
       width="6"
       patternUnits="userSpaceOnUse"
       id="EMFhbasepattern" />
  </defs>
  <path
     id="path5"
     d="  M 2960.0427,3191.9855   L 3144.0637,3007.4254   L 2960.0427,2822.8275   L 2776.0593,3007.4254   L 2960.0427,3191.9855   z "
     style="fill:#ff8080;fill-rule:nonzero;fill-opacity:1;stroke:#000000;stroke-width:10.62747px;stroke-linecap:square;stroke-linejoin:miter;stroke-miterlimit:282;stroke-dasharray:none;stroke-opacity:1;" />
  <path
     id="path7"
     d="  M 2960.0427,2975.4052   L 2960.0427,3039.4078  "
     style="fill:none;stroke:#000000;stroke-width:10.62747px;stroke-linecap:butt;stroke-linejoin:miter;stroke-miterlimit:282;stroke-dasharray:none;stroke-opacity:1;" />
  <path
     id="path9"
     d="  M 2869.6715,3007.4254   L 3013.2554,3007.4254  "
     style="fill:none;stroke:#000000;stroke-width:10.62747px;stroke-linecap:butt;stroke-linejoin:miter;stroke-miterlimit:282;stroke-dasharray:none;stroke-opacity:1;" />
  <ellipse
     id="ellipse11"
     ry="25.928013"
     rx="25.928013"
     cy="3006.7449"
     cx="3033.832"
     style="fill:none;stroke:#000000;stroke-width:10.62747px;stroke-linecap:butt;stroke-linejoin:miter;stroke-miterlimit:282;stroke-dasharray:none;stroke-opacity:1;" />
  <path
     id="path13"
     d="  M 2938.6747,2948.7155   L 2929.4793,2948.7155   L 2925.8237,2939.1888   L 2909.0911,2939.1888   L 2905.624,2948.7155   L 2896.6547,2948.7155   L 2912.9728,2906.715   L 2921.9044,2906.715   z  M 2923.1103,2932.1194   L 2917.3444,2916.5063   L 2911.6915,2932.1194   z "
     style="fill:#000000;fill-rule:nonzero;fill-opacity:1;stroke:none;" />
  <path
     id="path15"
     d="  M 2969.9541,2933.2914   L 2978.1697,2935.8998   C 2976.926,2940.4742 2974.8156,2943.8765 2971.9138,2946.107   C 2968.9743,2948.3374 2965.281,2949.4337 2960.7587,2949.4337   C 2955.2189,2949.4337 2950.6588,2947.5435 2947.0787,2943.7253   C 2943.4985,2939.9071 2941.6896,2934.6901 2941.6896,2928.1122   C 2941.6896,2921.1184 2943.4985,2915.6746 2947.0787,2911.8186   C 2950.6965,2907.9247 2955.4073,2905.9967 2961.2863,2905.9967   C 2966.4116,2905.9967 2970.5571,2907.5089 2973.7604,2910.571   C 2975.6824,2912.3478 2977.1145,2914.9185 2978.0566,2918.2831   L 2969.6903,2920.2867   C 2969.2004,2918.1319 2968.1452,2916.3929 2966.6,2915.1453   C 2965.0172,2913.8978 2963.0952,2913.2551 2960.8718,2913.2551   C 2957.7438,2913.2551 2955.2189,2914.3893 2953.2969,2916.6197   C 2951.3749,2918.8501 2950.395,2922.4794 2950.395,2927.4695   C 2950.395,2932.7621 2951.3749,2936.5425 2953.2592,2938.8108   C 2955.1812,2941.079 2957.6308,2942.2131 2960.6833,2942.2131   C 2962.9445,2942.2131 2964.8665,2941.4949 2966.487,2940.0583   C 2968.1075,2938.6217 2969.2758,2936.3535 2969.9541,2933.2914   z "
     style="fill:#000000;fill-rule:nonzero;fill-opacity:1;stroke:none;" />
  <path
     id="path17"
     d="  M 3012.2379,2933.2914   L 3020.4534,2935.8998   C 3019.1721,2940.4742 3017.0994,2943.8765 3014.1599,2946.107   C 3011.258,2948.3374 3007.5271,2949.4337 3003.0425,2949.4337   C 2997.5026,2949.4337 2992.9049,2947.5435 2989.3247,2943.7253   C 2985.7446,2939.9071 2983.9733,2934.6901 2983.9733,2928.1122   C 2983.9733,2921.1184 2985.7823,2915.6746 2989.3624,2911.8186   C 2992.9803,2907.9247 2997.6911,2905.9967 3003.5701,2905.9967   C 3008.6954,2905.9967 3012.8409,2907.5089 3016.0442,2910.571   C 3017.9285,2912.3478 3019.3605,2914.9185 3020.3404,2918.2831   L 3011.9741,2920.2867   C 3011.4465,2918.1319 3010.4289,2916.3929 3008.8461,2915.1453   C 3007.301,2913.8978 3005.379,2913.2551 3003.1178,2913.2551   C 3000.0276,2913.2551 2997.5026,2914.3893 2995.5806,2916.6197   C 2993.6586,2918.8501 2992.6788,2922.4794 2992.6788,2927.4695   C 2992.6788,2932.7621 2993.621,2936.5425 2995.5429,2938.8108   C 2997.4272,2941.079 2999.9145,2942.2131 3002.9671,2942.2131   C 3005.1906,2942.2131 3007.1503,2941.4949 3008.7708,2940.0583   C 3010.3913,2938.6217 3011.5218,2936.3535 3012.2379,2933.2914   z "
     style="fill:#000000;fill-rule:nonzero;fill-opacity:1;stroke:none;" />
</svg>
