<?xml version="1.0" encoding="UTF-8" standalone="no"?>
<svg
   xmlns:dc="http://purl.org/dc/elements/1.1/"
   xmlns:cc="http://creativecommons.org/ns#"
   xmlns:rdf="http://www.w3.org/1999/02/22-rdf-syntax-ns#"
   xmlns:svg="http://www.w3.org/2000/svg"
   xmlns="http://www.w3.org/2000/svg"
   id="svg19"
   height="112.9mm"
   width="112.9mm"
   version="1.0">
  <metadata
     id="metadata23">
    <rdf:RDF>
      <cc:Work
         rdf:about="">
        <dc:format>image/svg+xml</dc:format>
        <dc:type
           rdf:resource="http://purl.org/dc/dcmitype/StillImage" />
      </cc:Work>
    </rdf:RDF>
  </metadata>
  <defs
     id="defs3">
    <pattern
       y="0"
       x="0"
       height="6"
       width="6"
       patternUnits="userSpaceOnUse"
       id="EMFhbasepattern" />
  </defs>
  <path
     id="path5"
     d="  M 1981.453,2187.1891   C 1981.453,2309.9016 2162.233,2309.9016 2162.233,2187.1891   C 2284.562,2187.1891 2284.562,2005.8424 2162.233,2005.8424   C 2162.233,1883.1299 1981.453,1883.1299 1981.453,2005.8424   C 1859.124,2005.8424 1859.124,2187.1891 1981.453,2187.1891   z "
     style="fill:#ffff80;fill-rule:nonzero;fill-opacity:1;stroke:#000000;stroke-width:10.62747px;stroke-linecap:butt;stroke-linejoin:miter;stroke-miterlimit:282;stroke-dasharray:none;stroke-opacity:1;" />
  <path
     id="path7"
     d="  M 2071.8242,2064.5145   L 2071.8242,2128.517  "
     style="fill:none;stroke:#000000;stroke-width:10.62747px;stroke-linecap:butt;stroke-linejoin:miter;stroke-miterlimit:282;stroke-dasharray:none;stroke-opacity:1;" />
  <path
     id="path9"
     d="  M 1981.453,2096.5347   L 2125.0369,2096.5347  "
     style="fill:none;stroke:#000000;stroke-width:10.62747px;stroke-linecap:butt;stroke-linejoin:miter;stroke-miterlimit:282;stroke-dasharray:none;stroke-opacity:1;" />
  <ellipse
     id="ellipse11"
     ry="25.928013"
     rx="25.928013"
     cy="2095.8542"
     cx="2145.6135"
     style="fill:none;stroke:#000000;stroke-width:10.62747px;stroke-linecap:butt;stroke-linejoin:miter;stroke-miterlimit:282;stroke-dasharray:none;stroke-opacity:1;" />
  <path
     id="path13"
     d="  M 2050.4562,2037.8247   L 2041.2608,2037.8247   L 2037.6052,2028.2981   L 2020.8726,2028.2981   L 2017.4055,2037.8247   L 2008.4362,2037.8247   L 2024.7543,1995.8243   L 2033.6859,1995.8243   z  M 2034.8918,2021.2287   L 2029.1259,2005.6155   L 2023.4729,2021.2287   z "
     style="fill:#000000;fill-rule:nonzero;fill-opacity:1;stroke:none;" />
  <path
     id="path15"
     d="  M 2081.7356,2022.4006   L 2089.9512,2025.0091   C 2088.7075,2029.5834 2086.5971,2032.9858 2083.6953,2035.2162   C 2080.7558,2037.4467 2077.0625,2038.543 2072.5402,2038.543   C 2067.0004,2038.543 2062.4403,2036.6528 2058.8602,2032.8346   C 2055.28,2029.0163 2053.4711,2023.7994 2053.4711,2017.2214   C 2053.4711,2010.2277 2055.28,2004.7838 2058.8602,2000.9278   C 2062.478,1997.034 2067.1888,1995.106 2073.0678,1995.106   C 2078.1931,1995.106 2082.3386,1996.6181 2085.5419,1999.6803   C 2087.4639,2001.4571 2088.896,2004.0278 2089.8381,2007.3923   L 2081.4718,2009.396   C 2080.9819,2007.2411 2079.9267,2005.5021 2078.3815,2004.2546   C 2076.7987,2003.0071 2074.8767,2002.3644 2072.6533,2002.3644   C 2069.5253,2002.3644 2067.0004,2003.4985 2065.0784,2005.729   C 2063.1564,2007.9594 2062.1765,2011.5886 2062.1765,2016.5788   C 2062.1765,2021.8713 2063.1564,2025.6518 2065.0407,2027.92   C 2066.9627,2030.1883 2069.4123,2031.3224 2072.4648,2031.3224   C 2074.726,2031.3224 2076.648,2030.6041 2078.2685,2029.1676   C 2079.889,2027.731 2081.0573,2025.4627 2081.7356,2022.4006   z "
     style="fill:#000000;fill-rule:nonzero;fill-opacity:1;stroke:none;" />
  <path
     id="path17"
     d="  M 2124.0194,2022.4006   L 2132.2349,2025.0091   C 2130.9536,2029.5834 2128.8809,2032.9858 2125.9414,2035.2162   C 2123.0395,2037.4467 2119.3086,2038.543 2114.824,2038.543   C 2109.2841,2038.543 2104.6864,2036.6528 2101.1062,2032.8346   C 2097.5261,2029.0163 2095.7548,2023.7994 2095.7548,2017.2214   C 2095.7548,2010.2277 2097.5638,2004.7838 2101.1439,2000.9278   C 2104.7618,1997.034 2109.4725,1995.106 2115.3516,1995.106   C 2120.4769,1995.106 2124.6223,1996.6181 2127.8257,1999.6803   C 2129.71,2001.4571 2131.142,2004.0278 2132.1219,2007.3923   L 2123.7556,2009.396   C 2123.228,2007.2411 2122.2104,2005.5021 2120.6276,2004.2546   C 2119.0825,2003.0071 2117.1605,2002.3644 2114.8993,2002.3644   C 2111.8091,2002.3644 2109.2841,2003.4985 2107.3621,2005.729   C 2105.4401,2007.9594 2104.4603,2011.5886 2104.4603,2016.5788   C 2104.4603,2021.8713 2105.4025,2025.6518 2107.3244,2027.92   C 2109.2087,2030.1883 2111.696,2031.3224 2114.7486,2031.3224   C 2116.9721,2031.3224 2118.9318,2030.6041 2120.5523,2029.1676   C 2122.1728,2027.731 2123.3033,2025.4627 2124.0194,2022.4006   z "
     style="fill:#000000;fill-rule:nonzero;fill-opacity:1;stroke:none;" />
</svg>
