<?xml version="1.0" encoding="UTF-8" standalone="no"?>
<svg
   xmlns:dc="http://purl.org/dc/elements/1.1/"
   xmlns:cc="http://creativecommons.org/ns#"
   xmlns:rdf="http://www.w3.org/1999/02/22-rdf-syntax-ns#"
   xmlns:svg="http://www.w3.org/2000/svg"
   xmlns="http://www.w3.org/2000/svg"
   id="svg19"
   height="112.9mm"
   width="112.9mm"
   version="1.0">
  <metadata
     id="metadata23">
    <rdf:RDF>
      <cc:Work
         rdf:about="">
        <dc:format>image/svg+xml</dc:format>
        <dc:type
           rdf:resource="http://purl.org/dc/dcmitype/StillImage" />
      </cc:Work>
    </rdf:RDF>
  </metadata>
  <defs
     id="defs3">
    <pattern
       y="0"
       x="0"
       height="6"
       width="6"
       patternUnits="userSpaceOnUse"
       id="EMFhbasepattern" />
  </defs>
  <path
     id="path5"
     d="  M 1859.4259,1883.6585   L 2140.2247,1883.6585   L 2140.2247,2165.3376   L 1859.4259,2165.3376   z "
     style="fill:#aaffaa;fill-rule:nonzero;fill-opacity:1;stroke:#000000;stroke-width:10.62747px;stroke-linecap:butt;stroke-linejoin:miter;stroke-miterlimit:282;stroke-dasharray:none;stroke-opacity:1;" />
  <path
     id="path7"
     d="  M 1999.8065,1992.4968   L 1999.8065,2056.4993  "
     style="fill:none;stroke:#000000;stroke-width:10.62747px;stroke-linecap:butt;stroke-linejoin:miter;stroke-miterlimit:282;stroke-dasharray:none;stroke-opacity:1;" />
  <path
     id="path9"
     d="  M 1909.4353,2024.5169   L 2053.0192,2024.5169  "
     style="fill:none;stroke:#000000;stroke-width:10.62747px;stroke-linecap:butt;stroke-linejoin:miter;stroke-miterlimit:282;stroke-dasharray:none;stroke-opacity:1;" />
  <ellipse
     id="ellipse11"
     ry="25.928013"
     rx="25.928013"
     cy="2023.8365"
     cx="2073.5958"
     style="fill:none;stroke:#000000;stroke-width:10.62747px;stroke-linecap:butt;stroke-linejoin:miter;stroke-miterlimit:282;stroke-dasharray:none;stroke-opacity:1;" />
  <path
     id="path13"
     d="  M 1978.4385,1965.807   L 1969.2431,1965.807   L 1965.5875,1956.2803   L 1948.8549,1956.2803   L 1945.3878,1965.807   L 1936.4185,1965.807   L 1952.7366,1923.8065   L 1961.6682,1923.8065   z  M 1962.8741,1949.211   L 1957.1081,1933.5978   L 1951.4552,1949.211   z "
     style="fill:#000000;fill-rule:nonzero;fill-opacity:1;stroke:none;" />
  <path
     id="path15"
     d="  M 2009.7179,1950.3829   L 2017.9334,1952.9914   C 2016.6898,1957.5657 2014.5794,1960.9681 2011.6776,1963.1985   C 2008.738,1965.429 2005.0448,1966.5253 2000.5225,1966.5253   C 1994.9826,1966.5253 1990.4226,1964.6351 1986.8424,1960.8169   C 1983.2623,1956.9986 1981.4533,1951.7816 1981.4533,1945.2037   C 1981.4533,1938.2099 1983.2623,1932.7661 1986.8424,1928.9101   C 1990.4603,1925.0163 1995.1711,1923.0883 2001.0501,1923.0883   C 2006.1754,1923.0883 2010.3209,1924.6004 2013.5242,1927.6626   C 2015.4462,1929.4394 2016.8782,1932.01 2017.8204,1935.3746   L 2009.4541,1937.3782   C 2008.9642,1935.2234 2007.909,1933.4844 2006.3638,1932.2369   C 2004.781,1930.9893 2002.859,1930.3467 2000.6355,1930.3467   C 1997.5076,1930.3467 1994.9826,1931.4808 1993.0606,1933.7112   C 1991.1387,1935.9417 1990.1588,1939.5709 1990.1588,1944.561   C 1990.1588,1949.8536 1991.1387,1953.6341 1993.023,1955.9023   C 1994.9449,1958.1706 1997.3945,1959.3047 2000.4471,1959.3047   C 2002.7083,1959.3047 2004.6303,1958.5864 2006.2508,1957.1498   C 2007.8713,1955.7133 2009.0395,1953.445 2009.7179,1950.3829   z "
     style="fill:#000000;fill-rule:nonzero;fill-opacity:1;stroke:none;" />
  <path
     id="path17"
     d="  M 2052.0017,1950.3829   L 2060.2172,1952.9914   C 2058.9359,1957.5657 2056.8632,1960.9681 2053.9236,1963.1985   C 2051.0218,1965.429 2047.2909,1966.5253 2042.8063,1966.5253   C 2037.2664,1966.5253 2032.6687,1964.6351 2029.0885,1960.8169   C 2025.5083,1956.9986 2023.7371,1951.7816 2023.7371,1945.2037   C 2023.7371,1938.2099 2025.546,1932.7661 2029.1262,1928.9101   C 2032.7441,1925.0163 2037.4548,1923.0883 2043.3339,1923.0883   C 2048.4592,1923.0883 2052.6046,1924.6004 2055.8079,1927.6626   C 2057.6922,1929.4394 2059.1243,1932.01 2060.1042,1935.3746   L 2051.7379,1937.3782   C 2051.2102,1935.2234 2050.1927,1933.4844 2048.6099,1932.2369   C 2047.0648,1930.9893 2045.1428,1930.3467 2042.8816,1930.3467   C 2039.7914,1930.3467 2037.2664,1931.4808 2035.3444,1933.7112   C 2033.4224,1935.9417 2032.4426,1939.5709 2032.4426,1944.561   C 2032.4426,1949.8536 2033.3847,1953.6341 2035.3067,1955.9023   C 2037.191,1958.1706 2039.6783,1959.3047 2042.7309,1959.3047   C 2044.9544,1959.3047 2046.914,1958.5864 2048.5345,1957.1498   C 2050.155,1955.7133 2051.2856,1953.445 2052.0017,1950.3829   z "
     style="fill:#000000;fill-rule:nonzero;fill-opacity:1;stroke:none;" />
</svg>
