<?xml version="1.0" encoding="UTF-8" standalone="no"?>
<svg
   xmlns:dc="http://purl.org/dc/elements/1.1/"
   xmlns:cc="http://creativecommons.org/ns#"
   xmlns:rdf="http://www.w3.org/1999/02/22-rdf-syntax-ns#"
   xmlns:svg="http://www.w3.org/2000/svg"
   xmlns="http://www.w3.org/2000/svg"
   id="svg11"
   height="130.27mm"
   width="130.27mm"
   version="1.0">
  <metadata
     id="metadata15">
    <rdf:RDF>
      <cc:Work
         rdf:about="">
        <dc:format>image/svg+xml</dc:format>
        <dc:type
           rdf:resource="http://purl.org/dc/dcmitype/StillImage" />
      </cc:Work>
    </rdf:RDF>
  </metadata>
  <defs
     id="defs3">
    <pattern
       y="0"
       x="0"
       height="6"
       width="6"
       patternUnits="userSpaceOnUse"
       id="EMFhbasepattern" />
  </defs>
  <path
     id="path5"
     d="  M 164.63454,327.67068   C 164.63454,437.95983 327.67068,437.95983 327.67068,327.67068   C 437.95983,327.67068 437.95983,164.63454 327.67068,164.63454   C 327.67068,54.345381 164.63454,54.345381 164.63454,164.63454   C 54.345381,164.63454 54.345381,327.67068 164.63454,327.67068   z "
     style="fill:#ffff80;fill-rule:evenodd;fill-opacity:1;stroke:none;" />
  <path
     id="path7"
     d="  M 164.63454,327.67068   C 164.63454,437.95983 327.67068,437.95983 327.67068,327.67068   C 437.95983,327.67068 437.95983,164.63454 327.67068,164.63454   C 327.67068,54.345381 164.63454,54.345381 164.63454,164.63454   C 54.345381,164.63454 54.345381,327.67068 164.63454,327.67068  "
     style="fill:none;stroke:#000000;stroke-width:9.5903616px;stroke-linecap:butt;stroke-linejoin:miter;stroke-miterlimit:10;stroke-dasharray:none;stroke-opacity:1;" />
  <path
     id="path9"
     d="  M 153.00622,268.68996   L 176.74237,206.91205   L 185.57349,206.91205   L 210.82811,268.68996   L 201.51747,268.68996   L 194.3247,249.98875   L 168.47068,249.98875   L 161.71747,268.68996   z  M 170.82831,243.31546   L 191.80723,243.31546   L 185.33373,226.21265   C 183.3757,221.01787 181.89719,216.74217 180.97811,213.38554   C 180.17891,217.34156 179.06004,221.29759 177.62148,225.17369   z  M 217.38152,268.68996   L 217.38152,206.91205   L 238.64016,206.91205   C 243.4753,206.91205 247.11164,207.19176 249.66907,207.79116   C 253.18554,208.59036 256.22249,210.06887 258.7,212.2267   C 261.9767,214.98393 264.41425,218.5004 266.01265,222.7761   C 267.651,227.0518 268.4502,231.96686 268.4502,237.44136   C 268.4502,242.15662 267.89076,246.31245 266.81184,249.94879   C 265.73293,253.54518 264.29437,256.54216 262.5761,258.93976   C 260.89779,261.29739 259.01967,263.1755 256.98172,264.53413   C 254.94377,265.89277 252.46626,266.93172 249.58915,267.651   C 246.71204,268.33032 243.39538,268.68996 239.67911,268.68996   z  M 225.53333,261.37731   L 238.76004,261.37731   C 242.83594,261.37731 245.99277,261.01767 248.31044,260.25843   C 250.62811,259.49919 252.50622,258.42028 253.86486,257.06164   C 255.82289,255.10361 257.34136,252.50622 258.42028,249.22951   C 259.49919,245.95281 260.01867,241.99678 260.01867,237.32148   C 260.01867,230.88795 258.97972,225.89297 256.86184,222.41646   C 254.70401,218.97992 252.14658,216.62229 249.10963,215.46345   C 246.91184,214.62429 243.39538,214.18474 238.52028,214.18474   L 225.53333,214.18474   z  M 279.43915,268.68996   L 279.43915,206.91205   L 291.74678,206.91205   L 306.37208,250.62811   C 307.73072,254.70401 308.72971,257.78092 309.32911,259.77891   C 310.04839,257.54116 311.1273,254.22449 312.60582,249.86887   L 327.43092,206.91205   L 338.41987,206.91205   L 338.41987,268.68996   L 330.54779,268.68996   L 330.54779,216.98192   L 312.56586,268.68996   L 305.21325,268.68996   L 287.3512,216.10281   L 287.3512,268.68996   z "
     style="fill:#000000;fill-rule:evenodd;fill-opacity:1;stroke:none;" />
</svg>
