<?xml version="1.0" encoding="UTF-8" standalone="no"?>
<svg
   xmlns:dc="http://purl.org/dc/elements/1.1/"
   xmlns:cc="http://creativecommons.org/ns#"
   xmlns:rdf="http://www.w3.org/1999/02/22-rdf-syntax-ns#"
   xmlns:svg="http://www.w3.org/2000/svg"
   xmlns="http://www.w3.org/2000/svg"
   id="svg11"
   height="89.669998mm"
   width="120.11mm"
   version="1.0">
  <metadata
     id="metadata15">
    <rdf:RDF>
      <cc:Work
         rdf:about="">
        <dc:format>image/svg+xml</dc:format>
        <dc:type
           rdf:resource="http://purl.org/dc/dcmitype/StillImage" />
      </cc:Work>
    </rdf:RDF>
  </metadata>
  <defs
     id="defs3">
    <pattern
       y="0"
       x="0"
       height="6"
       width="6"
       patternUnits="userSpaceOnUse"
       id="EMFhbasepattern" />
  </defs>
  <path
     id="path5"
     d="  M 54.345381,54.345381   L 54.345381,284.51405   L 399.59839,284.51405   L 399.59839,54.345381   L 54.345381,54.345381   z "
     style="fill:#80e0ff;fill-rule:evenodd;fill-opacity:1;stroke:none;" />
  <path
     id="path7"
     d="  M 54.345381,54.345381   L 399.59839,54.345381   L 399.59839,284.51405   L 54.345381,284.51405   z "
     style="fill:none;stroke:#000000;stroke-width:9.5903616px;stroke-linecap:butt;stroke-linejoin:miter;stroke-miterlimit:10;stroke-dasharray:none;stroke-opacity:1;" />
  <path
     id="path9"
     d="  M 133.8255,191.96707   L 157.56164,130.18915   L 166.39277,130.18915   L 191.64739,191.96707   L 182.33674,191.96707   L 175.14397,173.26586   L 149.28996,173.26586   L 142.53674,191.96707   z  M 151.64759,166.59257   L 172.6265,166.59257   L 166.15301,149.48976   C 164.19498,144.29498 162.71646,140.01928 161.79739,136.66265   C 160.99819,140.61867 159.87931,144.5747 158.44076,148.4508   z  M 198.2008,191.96707   L 198.2008,130.18915   L 219.45943,130.18915   C 224.29458,130.18915 227.93092,130.46887 230.48835,131.06827   C 234.00482,131.86747 237.04176,133.34598 239.51927,135.50381   C 242.79598,138.26104 245.23353,141.77751 246.83192,146.05321   C 248.47028,150.32891 249.26947,155.24397 249.26947,160.71847   C 249.26947,165.43373 248.71004,169.58956 247.63112,173.2259   C 246.55221,176.82229 245.11365,179.81927 243.39538,182.21686   C 241.71706,184.5745 239.83895,186.45261 237.801,187.81124   C 235.76305,189.16988 233.28554,190.20883 230.40843,190.92811   C 227.53132,191.60743 224.21466,191.96707 220.49839,191.96707   z  M 206.35261,184.65442   L 219.57931,184.65442   C 223.65522,184.65442 226.81204,184.29478 229.12972,183.53554   C 231.44739,182.7763 233.3255,181.69739 234.68413,180.33875   C 236.64217,178.38072 238.16064,175.78333 239.23955,172.50662   C 240.31847,169.22992 240.83795,165.27389 240.83795,160.59859   C 240.83795,154.16506 239.79899,149.17008 237.68112,145.69357   C 235.52329,142.25703 232.96586,139.8994 229.92891,138.74056   C 227.73112,137.9014 224.21466,137.46185 219.33956,137.46185   L 206.35261,137.46185   z  M 260.25843,191.96707   L 260.25843,130.18915   L 272.56606,130.18915   L 287.19136,173.90522   C 288.55,177.98112 289.54899,181.05803 290.14839,183.05602   C 290.86767,180.81827 291.94658,177.5016 293.4251,173.14598   L 308.2502,130.18915   L 319.23915,130.18915   L 319.23915,191.96707   L 311.36706,191.96707   L 311.36706,140.25903   L 293.38514,191.96707   L 286.03253,191.96707   L 268.17048,139.37992   L 268.17048,191.96707   z "
     style="fill:#000000;fill-rule:evenodd;fill-opacity:1;stroke:none;" />
</svg>
