<?xml version="1.0" encoding="UTF-8" standalone="no"?>
<svg
   xmlns:dc="http://purl.org/dc/elements/1.1/"
   xmlns:cc="http://creativecommons.org/ns#"
   xmlns:rdf="http://www.w3.org/1999/02/22-rdf-syntax-ns#"
   xmlns:svg="http://www.w3.org/2000/svg"
   xmlns="http://www.w3.org/2000/svg"
   id="svg13"
   height="95.75mm"
   width="95.75mm"
   version="1.0">
  <metadata
     id="metadata17">
    <rdf:RDF>
      <cc:Work
         rdf:about="">
        <dc:format>image/svg+xml</dc:format>
        <dc:type
           rdf:resource="http://purl.org/dc/dcmitype/StillImage" />
      </cc:Work>
    </rdf:RDF>
  </metadata>
  <defs
     id="defs3">
    <pattern
       y="0"
       x="0"
       height="6"
       width="6"
       patternUnits="userSpaceOnUse"
       id="EMFhbasepattern" />
  </defs>
  <path
     id="path5"
     d="  M 54.345381,54.345381   L 54.345381,307.53092   L 307.53092,307.53092   L 307.53092,54.345381   L 54.345381,54.345381   z "
     style="fill:#aaffaa;fill-rule:evenodd;fill-opacity:1;stroke:none;" />
  <path
     id="path7"
     d="  M 54.345381,54.345381   L 307.53092,54.345381   L 307.53092,307.53092   L 54.345381,307.53092   z "
     style="fill:none;stroke:#000000;stroke-width:9.5903616px;stroke-linecap:butt;stroke-linejoin:miter;stroke-miterlimit:10;stroke-dasharray:none;stroke-opacity:1;" />
  <path
     id="path9"
     d="  M 111.24819,198.96004   L 130.22911,149.52972   L 137.26205,149.52972   L 157.48172,198.96004   L 150.04919,198.96004   L 144.25502,184.01506   L 123.59578,184.01506   L 118.16124,198.96004   z  M 125.47389,178.66044   L 142.25703,178.66044   L 137.10221,164.99417   C 135.50381,160.83835 134.34498,157.4018 133.58574,154.7245   C 132.94638,157.92128 132.06727,161.03815 130.90843,164.15502   z  M 162.71646,198.96004   L 162.71646,149.52972   L 179.73935,149.52972   C 183.5755,149.52972 186.53253,149.76948 188.53052,150.24899   C 191.36767,150.88835 193.80522,152.08715 195.80321,153.80542   C 198.4006,156.00321 200.35863,158.8004 201.63735,162.23695   C 202.91606,165.67349 203.59538,169.58956 203.59538,173.98514   C 203.59538,177.74136 203.15582,181.05803 202.2767,183.9751   C 201.39759,186.85221 200.27871,189.2498 198.88012,191.16787   C 197.52148,193.04598 196.00301,194.56446 194.40462,195.64337   C 192.76626,196.72229 190.80823,197.56144 188.49056,198.12088   C 186.17289,198.68032 183.53554,198.96004 180.53855,198.96004   z  M 169.26988,193.1259   L 179.81927,193.1259   C 183.05602,193.1259 185.61345,192.84618 187.49156,192.20682   C 189.32972,191.60743 190.80823,190.76827 191.92711,189.64939   C 193.44558,188.13092 194.68433,186.01305 195.52349,183.41566   C 196.40261,180.77831 196.84217,177.62148 196.84217,173.86526   C 196.84217,168.71044 196.00301,164.75442 194.28474,161.95723   C 192.60642,159.2 190.52851,157.32189 188.09096,156.40281   C 186.33273,155.72349 183.53554,155.36385 179.65944,155.36385   L 169.26988,155.36385   z  M 212.38654,198.96004   L 212.38654,149.52972   L 222.21666,149.52972   L 233.9249,184.53454   C 235.00381,187.81124 235.80301,190.24879 236.28253,191.84719   C 236.84196,190.04899 237.72108,187.41164 238.91988,183.93514   L 250.74799,149.52972   L 259.53915,149.52972   L 259.53915,198.96004   L 253.2255,198.96004   L 253.2255,157.6016   L 238.87992,198.96004   L 232.96586,198.96004   L 218.7002,156.88233   L 218.7002,198.96004   z "
     style="fill:#000000;fill-rule:evenodd;fill-opacity:1;stroke:none;" />
  <path
     id="path11"
     d="  M 307.53092,54.345381   L 307.53092,54.345381   L 272.04658,180.93815   L 307.53092,307.53092  "
     style="fill:none;stroke:#000000;stroke-width:9.5903616px;stroke-linecap:butt;stroke-linejoin:miter;stroke-miterlimit:10;stroke-dasharray:none;stroke-opacity:1;" />
</svg>
