<?xml version="1.0" encoding="UTF-8" standalone="no"?>
<svg
   xmlns:dc="http://purl.org/dc/elements/1.1/"
   xmlns:cc="http://creativecommons.org/ns#"
   xmlns:rdf="http://www.w3.org/1999/02/22-rdf-syntax-ns#"
   xmlns:svg="http://www.w3.org/2000/svg"
   xmlns="http://www.w3.org/2000/svg"
   id="svg13"
   height="130.27mm"
   width="130.27mm"
   version="1.0">
  <metadata
     id="metadata17">
    <rdf:RDF>
      <cc:Work
         rdf:about="">
        <dc:format>image/svg+xml</dc:format>
        <dc:type
           rdf:resource="http://purl.org/dc/dcmitype/StillImage" />
      </cc:Work>
    </rdf:RDF>
  </metadata>
  <defs
     id="defs3">
    <pattern
       y="0"
       x="0"
       height="6"
       width="6"
       patternUnits="userSpaceOnUse"
       id="EMFhbasepattern" />
  </defs>
  <path
     id="path5"
     d="  M 164.63454,327.67068   C 164.63454,437.95983 327.67068,437.95983 327.67068,327.67068   C 437.95983,327.67068 437.95983,164.63454 327.67068,164.63454   C 327.67068,54.345381 164.63454,54.345381 164.63454,164.63454   C 54.345381,164.63454 54.345381,327.67068 164.63454,327.67068   z "
     style="fill:#ffff80;fill-rule:evenodd;fill-opacity:1;stroke:none;" />
  <path
     id="path7"
     d="  M 164.63454,327.67068   C 164.63454,437.95983 327.67068,437.95983 327.67068,327.67068   C 437.95983,327.67068 437.95983,164.63454 327.67068,164.63454   C 327.67068,54.345381 164.63454,54.345381 164.63454,164.63454   C 54.345381,164.63454 54.345381,327.67068 164.63454,327.67068  "
     style="fill:none;stroke:#000000;stroke-width:9.5903616px;stroke-linecap:butt;stroke-linejoin:miter;stroke-miterlimit:10;stroke-dasharray:none;stroke-opacity:1;" />
  <path
     id="path9"
     d="  M 176.46265,264.17449   L 195.44357,214.74417   L 202.4765,214.74417   L 222.69618,264.17449   L 215.26365,264.17449   L 209.46947,249.22951   L 188.81024,249.22951   L 183.3757,264.17449   z  M 190.68835,243.8749   L 207.47148,243.8749   L 202.31666,230.20863   C 200.71827,226.05281 199.55943,222.61626 198.8002,219.93895   C 198.16084,223.13574 197.28172,226.25261 196.12289,229.36947   z  M 227.93092,264.17449   L 227.93092,214.74417   L 244.95381,214.74417   C 248.78996,214.74417 251.74698,214.98393 253.74498,215.46345   C 256.58212,216.10281 259.01967,217.3016 261.01767,219.01988   C 263.61506,221.21767 265.57309,224.01486 266.8518,227.4514   C 268.13052,230.88795 268.80984,234.80401 268.80984,239.19959   C 268.80984,242.95582 268.37028,246.27249 267.49116,249.18955   C 266.61204,252.06666 265.49317,254.46425 264.09457,256.38233   C 262.73594,258.26044 261.21747,259.77891 259.61907,260.85783   C 257.98072,261.93674 256.02269,262.7759 253.70502,263.33534   C 251.38735,263.89478 248.75,264.17449 245.75301,264.17449   z  M 234.48433,258.34036   L 245.03373,258.34036   C 248.27048,258.34036 250.82791,258.06064 252.70602,257.42128   C 254.54417,256.82188 256.02269,255.98273 257.14156,254.86385   C 258.66004,253.34538 259.89879,251.22751 260.73795,248.63012   C 261.61706,245.99277 262.05662,242.83594 262.05662,239.07972   C 262.05662,233.9249 261.21747,229.96887 259.49919,227.17168   C 257.82088,224.41445 255.74297,222.53634 253.30542,221.61727   C 251.54719,220.93795 248.75,220.57831 244.87389,220.57831   L 234.48433,220.57831   z  M 277.601,264.17449   L 277.601,214.74417   L 287.43112,214.74417   L 299.13935,249.74899   C 300.21827,253.0257 301.01747,255.46325 301.49698,257.06164   C 302.05642,255.26345 302.93554,252.6261 304.13433,249.14959   L 315.96245,214.74417   L 324.75361,214.74417   L 324.75361,264.17449   L 318.43996,264.17449   L 318.43996,222.81606   L 304.09437,264.17449   L 298.18032,264.17449   L 283.91465,222.09678   L 283.91465,264.17449   z "
     style="fill:#000000;fill-rule:evenodd;fill-opacity:1;stroke:none;" />
  <path
     id="path11"
     d="  M 390.00803,188.61044   L 390.00803,188.61044   L 351.64658,246.15261   L 390.00803,303.69477  "
     style="fill:none;stroke:#000000;stroke-width:9.5903616px;stroke-linecap:butt;stroke-linejoin:miter;stroke-miterlimit:10;stroke-dasharray:none;stroke-opacity:1;" />
</svg>
