<?xml version="1.0" encoding="UTF-8" standalone="no"?>
<svg
   xmlns:dc="http://purl.org/dc/elements/1.1/"
   xmlns:cc="http://creativecommons.org/ns#"
   xmlns:rdf="http://www.w3.org/1999/02/22-rdf-syntax-ns#"
   xmlns:svg="http://www.w3.org/2000/svg"
   xmlns="http://www.w3.org/2000/svg"
   id="svg11"
   height="95.75mm"
   width="95.75mm"
   version="1.0">
  <metadata
     id="metadata15">
    <rdf:RDF>
      <cc:Work
         rdf:about="">
        <dc:format>image/svg+xml</dc:format>
        <dc:type
           rdf:resource="http://purl.org/dc/dcmitype/StillImage" />
      </cc:Work>
    </rdf:RDF>
  </metadata>
  <defs
     id="defs3">
    <pattern
       y="0"
       x="0"
       height="6"
       width="6"
       patternUnits="userSpaceOnUse"
       id="EMFhbasepattern" />
  </defs>
  <path
     id="path5"
     d="  M 54.345381,54.345381   L 54.345381,307.53092   L 307.53092,307.53092   L 307.53092,54.345381   L 54.345381,54.345381   z "
     style="fill:#aaffaa;fill-rule:evenodd;fill-opacity:1;stroke:none;" />
  <path
     id="path7"
     d="  M 54.345381,54.345381   L 307.53092,54.345381   L 307.53092,307.53092   L 54.345381,307.53092   z "
     style="fill:none;stroke:#000000;stroke-width:9.5903616px;stroke-linecap:butt;stroke-linejoin:miter;stroke-miterlimit:10;stroke-dasharray:none;stroke-opacity:1;" />
  <path
     id="path9"
     d="  M 87.791766,203.4755   L 111.52791,141.69759   L 120.35903,141.69759   L 145.61365,203.4755   L 136.30301,203.4755   L 129.11024,184.77429   L 103.25622,184.77429   L 96.503011,203.4755   z  M 105.61385,178.101   L 126.59277,178.101   L 120.11928,160.99819   C 118.16124,155.80341 116.68273,151.52771 115.76365,148.17108   C 114.96446,152.12711 113.84558,156.08313 112.40703,159.95923   z  M 152.16707,203.4755   L 152.16707,141.69759   L 173.4257,141.69759   C 178.26084,141.69759 181.89719,141.97731 184.45462,142.5767   C 187.97108,143.3759 191.00803,144.85442 193.48554,147.01225   C 196.76225,149.76948 199.1998,153.28594 200.79819,157.56164   C 202.43654,161.83735 203.23574,166.75241 203.23574,172.22691   C 203.23574,176.94217 202.6763,181.09799 201.59739,184.73433   C 200.51847,188.33072 199.07992,191.32771 197.36164,193.7253   C 195.68333,196.08293 193.80522,197.96104 191.76727,199.31968   C 189.72931,200.67831 187.2518,201.71727 184.3747,202.43654   C 181.49759,203.11586 178.18092,203.4755 174.46466,203.4755   z  M 160.31887,196.16285   L 173.54558,196.16285   C 177.62148,196.16285 180.77831,195.80321 183.09598,195.04397   C 185.41365,194.28474 187.29176,193.20582 188.6504,191.84719   C 190.60843,189.88915 192.1269,187.29176 193.20582,184.01506   C 194.28474,180.73835 194.80421,176.78233 194.80421,172.10703   C 194.80421,165.67349 193.76526,160.67851 191.64739,157.20201   C 189.48956,153.76546 186.93213,151.40783 183.89518,150.24899   C 181.69739,149.40984 178.18092,148.97028 173.30582,148.97028   L 160.31887,148.97028   z  M 214.2247,203.4755   L 214.2247,141.69759   L 226.53233,141.69759   L 241.15763,185.41365   C 242.51626,189.48956 243.51526,192.56646 244.11466,194.56446   C 244.83393,192.3267 245.91285,189.01004 247.39136,184.65442   L 262.21646,141.69759   L 273.20542,141.69759   L 273.20542,203.4755   L 265.33333,203.4755   L 265.33333,151.76747   L 247.3514,203.4755   L 239.99879,203.4755   L 222.13674,150.88835   L 222.13674,203.4755   z "
     style="fill:#000000;fill-rule:evenodd;fill-opacity:1;stroke:none;" />
</svg>
