<?xml version="1.0" encoding="UTF-8" standalone="no"?>
<svg
   xmlns:dc="http://purl.org/dc/elements/1.1/"
   xmlns:cc="http://creativecommons.org/ns#"
   xmlns:rdf="http://www.w3.org/1999/02/22-rdf-syntax-ns#"
   xmlns:svg="http://www.w3.org/2000/svg"
   xmlns="http://www.w3.org/2000/svg"
   id="svg11"
   height="116.73mm"
   width="116.73mm"
   version="1.0">
  <metadata
     id="metadata15">
    <rdf:RDF>
      <cc:Work
         rdf:about="">
        <dc:format>image/svg+xml</dc:format>
        <dc:type
           rdf:resource="http://purl.org/dc/dcmitype/StillImage" />
      </cc:Work>
    </rdf:RDF>
  </metadata>
  <defs
     id="defs3">
    <pattern
       y="0"
       x="0"
       height="6"
       width="6"
       patternUnits="userSpaceOnUse"
       id="EMFhbasepattern" />
  </defs>
  <path
     id="path5"
     d="  M 220.57831,386.49156   L 220.57831,386.49156   L 386.49156,220.57831   L 220.57831,54.665059   L 54.665059,220.57831   L 220.57831,386.49156   z "
     style="fill:#ff8080;fill-rule:evenodd;fill-opacity:1;stroke:none;" />
  <path
     id="path7"
     d="  M 220.57831,386.49156   L 220.57831,386.49156   L 386.49156,220.57831   L 220.57831,54.665059   L 54.665059,220.57831   L 220.57831,386.49156  "
     style="fill:none;stroke:#000000;stroke-width:9.5903616px;stroke-linecap:butt;stroke-linejoin:miter;stroke-miterlimit:10;stroke-dasharray:none;stroke-opacity:1;" />
  <path
     id="path9"
     d="  M 127.43193,243.11566   L 151.16807,181.33775   L 159.99919,181.33775   L 185.25381,243.11566   L 175.94317,243.11566   L 168.7504,224.41445   L 142.89638,224.41445   L 136.14317,243.11566   z  M 145.25401,217.74116   L 166.23293,217.74116   L 159.75944,200.63835   C 157.8014,195.44357 156.32289,191.16787 155.40381,187.81124   C 154.60462,191.76727 153.48574,195.72329 152.04719,199.59939   z  M 191.80723,243.11566   L 191.80723,181.33775   L 213.06586,181.33775   C 217.901,181.33775 221.53735,181.61747 224.09478,182.21686   C 227.61124,183.01606 230.64819,184.49458 233.1257,186.65241   C 236.40241,189.40964 238.83996,192.9261 240.43835,197.2018   C 242.0767,201.47751 242.8759,206.39257 242.8759,211.86707   C 242.8759,216.58233 242.31646,220.73815 241.23755,224.37449   C 240.15863,227.97088 238.72008,230.96787 237.0018,233.36546   C 235.32349,235.72309 233.44538,237.6012 231.40743,238.95984   C 229.36947,240.31847 226.89196,241.35743 224.01486,242.0767   C 221.13775,242.75602 217.82108,243.11566 214.10482,243.11566   z  M 199.95903,235.80301   L 213.18574,235.80301   C 217.26164,235.80301 220.41847,235.44337 222.73614,234.68413   C 225.05381,233.9249 226.93192,232.84598 228.29056,231.48735   C 230.24859,229.52931 231.76706,226.93192 232.84598,223.65522   C 233.9249,220.37851 234.44437,216.42249 234.44437,211.74719   C 234.44437,205.31365 233.40542,200.31867 231.28755,196.84217   C 229.12972,193.40562 226.57229,191.04799 223.53534,189.88915   C 221.33755,189.05 217.82108,188.61044 212.94598,188.61044   L 199.95903,188.61044   z  M 253.86486,243.11566   L 253.86486,181.33775   L 266.17249,181.33775   L 280.79779,225.05381   C 282.15642,229.12972 283.15542,232.20662 283.75482,234.20462   C 284.47409,231.96686 285.55301,228.6502 287.03152,224.29458   L 301.85662,181.33775   L 312.84558,181.33775   L 312.84558,243.11566   L 304.97349,243.11566   L 304.97349,191.40763   L 286.99156,243.11566   L 279.63895,243.11566   L 261.7769,190.52851   L 261.7769,243.11566   z "
     style="fill:#000000;fill-rule:evenodd;fill-opacity:1;stroke:none;" />
</svg>
