<?xml version="1.0" encoding="UTF-8" standalone="no"?>
<svg
   xmlns:dc="http://purl.org/dc/elements/1.1/"
   xmlns:cc="http://creativecommons.org/ns#"
   xmlns:rdf="http://www.w3.org/1999/02/22-rdf-syntax-ns#"
   xmlns:svg="http://www.w3.org/2000/svg"
   xmlns="http://www.w3.org/2000/svg"
   id="svg19"
   height="95.75mm"
   width="95.75mm"
   version="1.0">
  <metadata
     id="metadata23">
    <rdf:RDF>
      <cc:Work
         rdf:about="">
        <dc:format>image/svg+xml</dc:format>
        <dc:type
           rdf:resource="http://purl.org/dc/dcmitype/StillImage" />
      </cc:Work>
    </rdf:RDF>
  </metadata>
  <defs
     id="defs3">
    <pattern
       y="0"
       x="0"
       height="6"
       width="6"
       patternUnits="userSpaceOnUse"
       id="EMFhbasepattern" />
  </defs>
  <path
     id="path5"
     d="  M 132.98634,15.983936   L 132.98634,54.345381   L 228.88996,54.345381   L 228.88996,15.983936   L 132.98634,15.983936   z "
     style="fill:#000000;fill-rule:evenodd;fill-opacity:1;stroke:none;" />
  <path
     id="path7"
     d="  M 54.345381,54.345381   L 54.345381,307.53092   L 307.53092,307.53092   L 307.53092,54.345381   L 54.345381,54.345381   z "
     style="fill:#aaffaa;fill-rule:evenodd;fill-opacity:1;stroke:none;" />
  <path
     id="path9"
     d="  M 54.345381,54.345381   L 307.53092,54.345381   L 307.53092,307.53092   L 54.345381,307.53092   z "
     style="fill:none;stroke:#000000;stroke-width:9.5903616px;stroke-linecap:butt;stroke-linejoin:miter;stroke-miterlimit:10;stroke-dasharray:none;stroke-opacity:1;" />
  <path
     id="path11"
     d="  M 147.81144,90.708834   L 147.81144,94.864657   C 147.81144,96.303211 150.12911,99.819677 151.12811,100.77871   C 152.5267,102.13735 155.40381,103.65582 157.96124,103.65582   L 160.27891,103.65582   C 165.19397,103.65582 170.46867,98.501003 170.46867,93.945581   L 170.46867,90.708834   C 170.46867,86.79277 164.4747,81.438151 159.83936,81.438151   L 157.96124,81.438151   C 153.60562,81.438151 147.81144,86.63293 147.81144,90.708834   z "
     style="fill:#000000;fill-rule:evenodd;fill-opacity:1;stroke:none;" />
  <path
     id="path13"
     d="  M 215.86305,128.19116   L 215.86305,131.90743   C 215.86305,135.54377 221.45743,141.17811 226.01285,141.17811   L 227.89096,141.17811   C 233.00582,141.17811 238.08072,135.66365 238.08072,130.50883   L 238.08072,128.67068   C 238.08072,123.35602 232.76606,118.48092 227.41144,118.48092   L 226.97188,118.48092   C 221.29759,118.48092 215.86305,123.31606 215.86305,128.19116   z "
     style="fill:#000000;fill-rule:evenodd;fill-opacity:1;stroke:none;" />
  <path
     id="path15"
     d="  M 143.1761,151.36787   C 143.1761,146.01325 151.04819,139.73956 153.80542,135.62369   C 157.20201,137.86144 157.32189,139.93936 161.99719,142.25703   C 165.27389,143.89538 168.19096,145.57369 171.70743,146.85241   C 177.62148,149.0502 177.06205,146.53273 181.93715,151.44779   C 184.13494,153.68554 186.37269,157.36185 190.36867,157.36185   C 191.32771,157.36185 192.24678,155.44377 192.24678,154.1251   L 192.24678,151.80743   C 192.24678,145.05421 184.41466,143.09618 179.41968,141.01827   C 174.18494,138.9004 166.87229,137.06225 164.99417,131.86747   C 162.95622,126.23313 159.71948,120.75863 157.92128,115.28413   C 156.24297,110.28916 153.40582,103.21626 146.85241,103.21626   L 145.93333,103.21626   C 138.62068,103.21626 128.27108,121.31807 126.51285,128.23112   C 125.11426,133.74558 122.71666,139.4998 121.55783,145.49377   C 120.31907,152.08715 120.11928,157.88132 118.92048,164.59458   C 118.12128,168.99016 119.16024,170.14899 117.52189,174.30482   C 116.44297,177.10201 115.52389,179.65944 114.44498,182.3767   C 112.40703,187.69136 110.44899,193.3257 108.49096,198.64036   C 106.65281,203.63534 96.862649,226.93192 96.862649,230.96787   C 96.862649,237.08172 111.76767,234.04478 115.40401,233.76506   C 115.28413,229.12972 109.96948,229.96887 107.97148,227.2516   C 112.88654,219.93895 117.00241,212.14678 121.79759,204.4745   C 124.23514,200.51847 132.78654,182.45662 134.8245,180.97811   C 136.30301,181.93715 142.05723,188.4506 143.9753,190.36867   C 148.61064,194.96405 148.77048,194.76425 150.56867,201.79719   C 153.20602,211.98694 155.20401,220.21867 155.20401,233.28554   L 159.35984,233.84498   L 169.5496,233.76506   C 172.6265,233.76506 173.86526,233.3255 175.10401,231.44739   C 173.4257,228.92992 167.5516,227.17168 163.99518,226.33253   L 163.99518,223.5753   C 163.99518,222.53634 163.63554,222.53634 163.0761,221.69719   L 163.0761,192.56646   C 159.47972,187.17188 156.04317,180.81827 152.24699,175.62349   C 149.4498,171.78735 143.1761,163.0761 143.1761,157.36185   L 143.1761,151.36787   z "
     style="fill:#000000;fill-rule:evenodd;fill-opacity:1;stroke:none;" />
  <path
     id="path17"
     d="  M 201.03795,202.2767   L 201.03795,201.79719   C 201.03795,164.51466 254.74397,166.63253 254.74397,200.43855   L 254.74397,203.6753   C 254.74397,216.66225 241.91686,228.6502 228.81004,228.6502   L 227.41144,228.6502   C 213.14578,228.6502 201.03795,216.50241 201.03795,202.2767   z  M 197.32168,149.0502   L 208.43052,149.0502   L 208.43052,173.10602   C 208.43052,173.14598 200.71827,181.01807 199.31968,183.45562   C 198.16084,185.45361 194.08494,194.80421 194.08494,197.16184   L 194.08494,202.71626   C 194.08494,219.0998 209.82911,235.60321 226.01285,235.60321   L 228.33052,235.60321   C 242.0767,235.60321 254.18453,223.5753 254.74397,223.5753   L 271.84678,223.5753   L 271.84678,218.93996   L 263.97469,218.93996   C 264.57409,217.82108 265.85281,215.78313 265.85281,214.30462   L 265.85281,187.93112   C 265.85281,183.29578 263.49518,180.05903 260.73795,178.18092   L 252.86586,178.18092   L 250.90783,176.46265   C 253.46526,175.78333 255.66305,174.18494 255.66305,171.26787   L 255.66305,170.30883   C 255.66305,169.18996 253.30542,166.15301 251.94678,166.15301   L 239.91887,166.15301   L 239.91887,153.20602   C 239.91887,146.77249 236.24257,143.01626 229.72911,143.01626   L 224.65421,143.01626   C 210.50843,143.01626 213.54538,156.96225 213.54538,170.78835   L 212.18674,171.78735   L 212.14678,145.77349   C 211.30763,145.21405 211.34759,144.85442 210.30863,144.85442   L 197.32168,144.85442   z "
     style="fill:#000000;fill-rule:evenodd;fill-opacity:1;stroke:none;" />
</svg>
