<?xml version="1.0" encoding="UTF-8" standalone="no"?>
<svg
   xmlns:dc="http://purl.org/dc/elements/1.1/"
   xmlns:cc="http://creativecommons.org/ns#"
   xmlns:rdf="http://www.w3.org/1999/02/22-rdf-syntax-ns#"
   xmlns:svg="http://www.w3.org/2000/svg"
   xmlns="http://www.w3.org/2000/svg"
   id="svg23"
   height="95.75mm"
   width="95.75mm"
   version="1.0">
  <metadata
     id="metadata27">
    <rdf:RDF>
      <cc:Work
         rdf:about="">
        <dc:format>image/svg+xml</dc:format>
        <dc:type
           rdf:resource="http://purl.org/dc/dcmitype/StillImage" />
      </cc:Work>
    </rdf:RDF>
  </metadata>
  <defs
     id="defs3">
    <pattern
       y="0"
       x="0"
       height="6"
       width="6"
       patternUnits="userSpaceOnUse"
       id="EMFhbasepattern" />
  </defs>
  <path
     id="path5"
     d="  M 132.98634,15.983936   L 132.98634,54.345381   L 228.88996,54.345381   L 228.88996,15.983936   L 132.98634,15.983936   z "
     style="fill:#000000;fill-rule:evenodd;fill-opacity:1;stroke:none;" />
  <path
     id="path7"
     d="  M 54.345381,54.345381   L 54.345381,307.53092   L 307.53092,307.53092   L 307.53092,54.345381   L 54.345381,54.345381   z "
     style="fill:#aaffaa;fill-rule:evenodd;fill-opacity:1;stroke:none;" />
  <path
     id="path9"
     d="  M 54.345381,54.345381   L 307.53092,54.345381   L 307.53092,307.53092   L 54.345381,307.53092   z "
     style="fill:none;stroke:#000000;stroke-width:9.5903616px;stroke-linecap:butt;stroke-linejoin:miter;stroke-miterlimit:10;stroke-dasharray:none;stroke-opacity:1;" />
  <path
     id="path11"
     d="  M 189.60944,116.88253   L 189.60944,118.44096   L 212.4265,118.44096   C 212.4265,118.44096 223.33554,108.69076 223.81506,108.0514   C 220.85803,103.61586 215.26365,99.26024 207.7512,99.26024   L 206.19277,99.26024   C 198.76024,99.26024 189.60944,110.20924 189.60944,116.88253   z "
     style="fill:#ffffff;fill-rule:evenodd;fill-opacity:1;stroke:none;" />
  <path
     id="path13"
     d="  M 189.60944,134.50482   C 192.20682,135.10421 198.36064,138.62068 201.19779,140.01928   C 206.59237,142.69658 205.35361,147.21205 208.79016,149.52972   C 208.79016,144.85442 208.79016,140.17911 208.79016,135.54377   C 208.7502,129.58976 210.54839,127.51185 210.86807,123.59578   L 189.60944,123.59578   z "
     style="fill:#ffffff;fill-rule:evenodd;fill-opacity:1;stroke:none;" />
  <path
     id="path15"
     d="  M 218.1008,134.50482   L 254.38433,134.50482   C 254.38433,123.59578 247.07168,114.80462 236.24257,114.80462   L 235.20361,114.80462   C 225.09377,114.80462 218.1008,124.11526 218.1008,134.50482   z "
     style="fill:#ffffff;fill-rule:evenodd;fill-opacity:1;stroke:none;" />
  <path
     id="path17"
     d="  M 217.58132,165.59357   C 217.58132,165.91325 230.32851,187.57148 231.60723,189.4496   L 225.37349,189.4496   L 225.37349,234.56425   L 254.38433,234.56425   L 254.38433,139.18012   L 217.58132,139.18012   z "
     style="fill:#ffffff;fill-rule:evenodd;fill-opacity:1;stroke:none;" />
  <path
     id="path19"
     d="  M 127.91144,233.5253   L 109.2502,233.5253   L 109.2502,182.1769   C 109.2502,179.77931 125.47389,150.32891 126.83253,149.52972   C 129.27008,148.0512 160.23895,132.42691 160.55863,132.42691   C 161.83735,132.42691 192.28674,147.61164 194.96405,149.32992   C 196.04297,150.04919 213.46546,180.81827 213.46546,182.1769   L 213.46546,233.5253   L 195.28373,233.5253   L 195.28373,191.52751   L 127.91144,191.52751   z  M 217.58132,139.18012   L 254.38433,139.18012   L 254.38433,234.56425   L 225.37349,234.56425   L 225.37349,189.4496   L 231.60723,189.4496   C 230.32851,187.57148 217.58132,165.91325 217.58132,165.59357   z  M 218.1008,134.50482   C 218.1008,124.11526 225.09377,114.80462 235.20361,114.80462   L 236.24257,114.80462   C 247.07168,114.80462 254.38433,123.59578 254.38433,134.50482   z  M 189.60944,123.59578   L 210.86807,123.59578   C 210.54839,127.51185 208.7502,129.58976 208.79016,135.54377   C 208.79016,140.17911 208.79016,144.85442 208.79016,149.52972   C 205.35361,147.21205 206.59237,142.69658 201.19779,140.01928   C 198.36064,138.62068 192.16686,135.10421 189.60944,134.50482   z  M 189.60944,116.88253   C 189.60944,110.20924 198.76024,99.26024 206.19277,99.26024   L 207.7512,99.26024   C 215.26365,99.26024 220.85803,103.61586 223.81506,108.0514   C 223.33554,108.69076 212.4265,118.44096 212.4265,118.44096   L 189.60944,118.44096   z  M 161.07811,120.51887   C 153.40582,124.55482 145.37389,128.11124 137.42189,132.06727   C 133.30602,134.14518 129.58976,135.74357 125.47389,137.78152   C 118.76064,141.13815 120.03936,139.45984 115.88353,145.29397   C 113.7257,148.33092 111.56787,153.04618 109.52992,156.56265   C 107.29217,160.35883 105.01446,163.75542 102.93654,167.59156   C 99.18032,174.46466 94.30522,183.13594 90.069477,189.4496   L 96.78273,189.4496   L 96.78273,243.35542   L 138.78052,243.35542   L 138.78052,201.87711   L 184.41466,201.87711   L 184.41466,243.35542   L 264.25441,243.35542   L 264.25441,136.58273   C 264.25441,118.68072 254.06465,105.45401 236.24257,105.45401   L 232.1267,105.45401   C 230.20863,98.421083 217.98092,89.909637 208.27068,89.909637   L 207.23172,89.909637   C 192.00703,89.909637 180.77831,103.9755 180.77831,118.96044   L 180.77831,129.82952   L 161.07811,120.51887   z "
     style="fill:#000000;fill-rule:evenodd;fill-opacity:1;stroke:none;" />
  <path
     id="path21"
     d="  M 127.91144,191.52751   L 195.28373,191.52751   L 195.28373,233.5253   L 213.46546,233.5253   L 213.46546,182.1769   C 213.46546,180.81827 196.04297,150.04919 194.96405,149.32992   C 192.28674,147.61164 161.83735,132.42691 160.55863,132.42691   C 160.23895,132.42691 129.27008,148.0512 126.83253,149.52972   C 125.47389,150.32891 109.2502,179.77931 109.2502,182.1769   L 109.2502,233.5253   L 127.91144,233.5253   z "
     style="fill:#ffffff;fill-rule:evenodd;fill-opacity:1;stroke:none;" />
</svg>
