<?xml version="1.0" encoding="UTF-8" standalone="no"?>
<svg
   xmlns:dc="http://purl.org/dc/elements/1.1/"
   xmlns:cc="http://creativecommons.org/ns#"
   xmlns:rdf="http://www.w3.org/1999/02/22-rdf-syntax-ns#"
   xmlns:svg="http://www.w3.org/2000/svg"
   xmlns="http://www.w3.org/2000/svg"
   id="svg107"
   height="116.73mm"
   width="116.73mm"
   version="1.0">
  <metadata
     id="metadata111">
    <rdf:RDF>
      <cc:Work
         rdf:about="">
        <dc:format>image/svg+xml</dc:format>
        <dc:type
           rdf:resource="http://purl.org/dc/dcmitype/StillImage" />
      </cc:Work>
    </rdf:RDF>
  </metadata>
  <defs
     id="defs3">
    <pattern
       y="0"
       x="0"
       height="6"
       width="6"
       patternUnits="userSpaceOnUse"
       id="EMFhbasepattern" />
  </defs>
  <path
     id="path5"
     d="  M 172.6265,43.156626   L 172.6265,100.69879   L 268.53012,100.69879   L 268.53012,43.156626   L 172.6265,43.156626   z "
     style="fill:#000000;fill-rule:evenodd;fill-opacity:1;stroke:none;" />
  <path
     id="path7"
     d="  M 220.57831,386.49156   L 220.57831,386.49156   L 386.49156,220.57831   L 220.57831,54.665059   L 54.665059,220.57831   L 220.57831,386.49156   z "
     style="fill:#ff8080;fill-rule:evenodd;fill-opacity:1;stroke:none;" />
  <path
     id="path9"
     d="  M 220.57831,386.49156   L 220.57831,386.49156   L 386.49156,220.57831   L 220.57831,54.665059   L 54.665059,220.57831   L 220.57831,386.49156  "
     style="fill:none;stroke:#000000;stroke-width:9.5903616px;stroke-linecap:butt;stroke-linejoin:miter;stroke-miterlimit:10;stroke-dasharray:none;stroke-opacity:1;" />
  <path
     id="path11"
     d="  M 211.46747,126.95241   L 211.46747,126.95241   L 213.98494,127.35201   L 214.2247,126.71265   L 211.70723,126.31305   z "
     style="fill:#000000;fill-rule:evenodd;fill-opacity:1;stroke:none;" />
  <path
     id="path13"
     d="  M 215.06385,126.95241   L 219.45943,127.79156   L 220.93795,118.96044   C 220.05883,118.88052 220.45843,118.72068 219.69919,118.72068   C 215.78313,118.72068 216.34257,124.2751 215.06385,126.95241   z "
     style="fill:#ffffff;fill-rule:evenodd;fill-opacity:1;stroke:none;" />
  <path
     id="path15"
     d="  M 220.41847,127.99136   L 224.77409,128.83052   L 225.17369,122.47691   L 225.77309,122.95642   C 225.69317,121.99739 225.65321,122.15723 224.93393,122.31707   L 225.13373,122.11727   L 222.1767,119.36004   L 222.05682,119.5998   z "
     style="fill:#ffffff;fill-rule:evenodd;fill-opacity:1;stroke:none;" />
  <path
     id="path17"
     d="  M 225.53333,129.03032   L 225.53333,129.03032   L 229.0498,129.62972   L 225.81305,123.35602   z "
     style="fill:#ffffff;fill-rule:evenodd;fill-opacity:1;stroke:none;" />
  <path
     id="path19"
     d="  M 212.50642,133.90542   L 212.50642,133.90542   L 213.98494,127.35201   L 211.46747,126.95241   L 209.1498,133.2261   z "
     style="fill:#ffffff;fill-rule:evenodd;fill-opacity:1;stroke:none;" />
  <path
     id="path21"
     d="  M 212.50642,133.90542   L 212.50642,133.90542   L 213.38554,133.90542   L 214.82409,127.59177   L 213.98494,127.35201   z "
     style="fill:#000000;fill-rule:evenodd;fill-opacity:1;stroke:none;" />
  <path
     id="path23"
     d="  M 212.30662,134.50482   L 212.30662,134.50482   L 212.74618,134.50482   L 213.14578,134.74458   L 213.38554,134.30502   L 213.38554,133.90542   L 212.50642,133.90542   z "
     style="fill:#ffffff;fill-rule:evenodd;fill-opacity:1;stroke:none;" />
  <path
     id="path25"
     d="  M 213.98494,127.35201   L 213.98494,127.35201   L 214.82409,127.59177   L 213.38554,133.90542   L 218.38052,134.74458   L 219.25964,128.43092   L 215.06385,127.59177   L 215.06385,126.95241   L 214.2247,126.71265   z "
     style="fill:#ffffff;fill-rule:evenodd;fill-opacity:1;stroke:none;" />
  <path
     id="path27"
     d="  M 219.25964,134.94438   L 219.25964,134.94438   L 224.29458,135.78353   L 224.73413,129.50984   L 220.25863,128.63072   z "
     style="fill:#ffffff;fill-rule:evenodd;fill-opacity:1;stroke:none;" />
  <path
     id="path29"
     d="  M 230.20863,137.9014   L 231.20763,137.82148   L 230.40843,136.82249   C 230.40843,133.70562 230.32851,133.8255 229.60923,131.54779   C 229.16968,130.22911 229.48935,130.46887 228.01084,130.18915   C 227.09176,130.02932 226.21265,129.7496 225.41345,129.66968   L 224.93393,135.94337   L 230.20863,136.82249   z "
     style="fill:#ffffff;fill-rule:evenodd;fill-opacity:1;stroke:none;" />
  <path
     id="path31"
     d="  M 212.30662,134.50482   L 212.30662,134.50482   L 212.50642,133.90542   L 209.1498,133.2261   L 211.46747,126.95241   L 210.50843,126.27309   L 206.35261,139.8994   L 206.63233,139.93936   L 207.3516,139.73956   L 208.95,133.86546   z "
     style="fill:#000000;fill-rule:evenodd;fill-opacity:1;stroke:none;" />
  <path
     id="path33"
     d="  M 213.14578,134.74458   L 213.14578,134.74458   L 212.10682,140.97831   L 217.3016,142.09719   L 218.18072,135.62369   z "
     style="fill:#ffffff;fill-rule:evenodd;fill-opacity:1;stroke:none;" />
  <path
     id="path35"
     d="  M 218.18072,142.29699   L 223.69518,143.5757   C 223.69518,135.30401 226.77209,137.58172 219.13976,135.78353   z "
     style="fill:#ffffff;fill-rule:evenodd;fill-opacity:1;stroke:none;" />
  <path
     id="path37"
     d="  M 229.76907,144.81446   L 230.20863,137.9014   L 224.93393,136.82249   C 224.93393,144.89438 221.89698,142.9763 229.76907,144.81446   z "
     style="fill:#ffffff;fill-rule:evenodd;fill-opacity:1;stroke:none;" />
  <path
     id="path39"
     d="  M 230.40843,145.05421   L 232.9259,145.45381   C 232.60622,143.9753 232.3265,138.26104 230.88795,138.1012   z "
     style="fill:#ffffff;fill-rule:evenodd;fill-opacity:1;stroke:none;" />
  <path
     id="path41"
     d="  M 229.76907,145.45381   L 229.76907,145.45381   L 230.40843,145.65361   L 230.40843,145.05421   L 229.76907,144.81446   z "
     style="fill:#ffffff;fill-rule:evenodd;fill-opacity:1;stroke:none;" />
  <path
     id="path43"
     d="  M 209.98895,147.13213   C 211.86707,147.09217 211.22771,143.01626 211.90703,141.65763   L 210.86807,141.45783   z "
     style="fill:#000000;fill-rule:evenodd;fill-opacity:1;stroke:none;" />
  <path
     id="path45"
     d="  M 217.3016,148.81044   L 217.3016,148.81044   L 223.05582,150.28895   L 223.69518,144.1751   L 218.06084,142.93634   z "
     style="fill:#ffffff;fill-rule:evenodd;fill-opacity:1;stroke:none;" />
  <path
     id="path47"
     d="  M 229.36947,151.76747   L 229.36947,151.76747   L 229.76907,145.45381   L 224.33453,144.41486   L 223.69518,150.40883   z "
     style="fill:#ffffff;fill-rule:evenodd;fill-opacity:1;stroke:none;" />
  <path
     id="path49"
     d="  M 229.36947,151.76747   L 229.36947,151.76747   L 230.00883,151.96727   L 230.40843,145.65361   L 229.76907,145.45381   z "
     style="fill:#000000;fill-rule:evenodd;fill-opacity:1;stroke:none;" />
  <path
     id="path51"
     d="  M 229.36947,152.84638   L 229.36947,152.84638   L 230.00883,152.84638   L 230.00883,151.96727   L 229.36947,151.76747   z "
     style="fill:#ffffff;fill-rule:evenodd;fill-opacity:1;stroke:none;" />
  <path
     id="path53"
     d="  M 230.00883,151.96727   L 234.00482,152.84638   C 233.80502,152.40683 233.44538,148.97028 233.36546,148.21104   C 233.08574,145.89337 232.80602,145.85341 230.40843,145.65361   z "
     style="fill:#ffffff;fill-rule:evenodd;fill-opacity:1;stroke:none;" />
  <path
     id="path55"
     d="  M 209.98895,147.13213   L 209.78915,147.77148   C 206.95201,147.73152 206.19277,145.61365 205.71325,148.53072   C 205.55341,149.40984 204.95401,153.64558 205.03393,154.36486   C 205.11385,154.84438 206.75221,154.96425 207.31164,155.08413   C 208.91004,155.52369 208.91004,155.72349 208.95,153.88534   C 208.98996,152.08715 209.62931,149.76948 209.78915,147.97128   L 210.70823,148.01124   L 209.78915,155.72349   L 215.46345,157.04217   L 216.30261,149.48976   L 210.82811,148.21104   L 210.86807,147.29197   L 216.46245,148.61064   L 217.14176,142.73654   L 211.90703,141.65763   C 211.22771,143.01626 211.86707,147.09217 209.98895,147.13213   z "
     style="fill:#ffffff;fill-rule:evenodd;fill-opacity:1;stroke:none;" />
  <path
     id="path57"
     d="  M 216.10281,157.88132   L 216.30261,157.24197   L 215.90301,157.04217   L 215.46345,157.04217   C 215.54337,157.84136 215.34357,157.68152 216.10281,157.88132   z "
     style="fill:#ffffff;fill-rule:evenodd;fill-opacity:1;stroke:none;" />
  <path
     id="path59"
     d="  M 216.30261,157.24197   L 216.30261,157.24197   L 222.21666,158.52068   L 223.01586,151.20803   L 217.18172,149.68956   z "
     style="fill:#ffffff;fill-rule:evenodd;fill-opacity:1;stroke:none;" />
  <path
     id="path61"
     d="  M 216.10281,157.88132   L 216.10281,157.88132   L 222.21666,159.35984   L 222.21666,158.52068   L 216.30261,157.24197   z "
     style="fill:#000000;fill-rule:evenodd;fill-opacity:1;stroke:none;" />
  <path
     id="path63"
     d="  M 223.05582,158.72048   L 223.05582,158.72048   L 228.77008,159.99919   L 229.36947,152.84638   L 223.69518,151.36787   z "
     style="fill:#ffffff;fill-rule:evenodd;fill-opacity:1;stroke:none;" />
  <path
     id="path65"
     d="  M 229.52931,160.19899   L 229.52931,160.19899   L 234.64417,161.23795   L 233.96486,153.9253   L 230.04879,153.04618   z "
     style="fill:#ffffff;fill-rule:evenodd;fill-opacity:1;stroke:none;" />
  <path
     id="path67"
     d="  M 204.39458,162.31687   L 204.39458,162.31687   L 208.07088,163.15602   L 208.7502,156.20301   L 204.99397,155.36385   z "
     style="fill:#ffffff;fill-rule:evenodd;fill-opacity:1;stroke:none;" />
  <path
     id="path69"
     d="  M 214.62429,165.47369   L 214.62429,165.47369   L 215.46345,165.47369   L 215.46345,164.59458   L 214.78413,164.59458   L 215.26365,157.68152   L 209.62931,156.40281   L 208.95,163.2759   L 214.62429,164.39478   z "
     style="fill:#ffffff;fill-rule:evenodd;fill-opacity:1;stroke:none;" />
  <path
     id="path71"
     d="  M 222.21666,159.35984   L 222.21666,159.35984   L 216.10281,157.88132   L 215.70321,164.75442   L 221.57731,165.87329   z "
     style="fill:#ffffff;fill-rule:evenodd;fill-opacity:1;stroke:none;" />
  <path
     id="path73"
     d="  M 222.21666,159.35984   L 222.89598,159.35984   L 222.41646,166.07309   L 221.57731,166.07309   L 221.57731,166.91225   L 222.21666,167.15201   C 222.25662,166.71245 222.1767,166.31285 222.61626,166.31285   C 224.25462,166.31285 226.33253,167.31184 228.09076,167.3518   C 228.13072,166.59257 228.77008,161.27791 228.73012,161.07811   C 228.57028,160.55863 223.9749,159.5996 223.05582,159.55964   L 223.05582,158.72048   L 222.21666,158.52068   z "
     style="fill:#ffffff;fill-rule:evenodd;fill-opacity:1;stroke:none;" />
  <path
     id="path75"
     d="  M 234.84397,168.83032   L 234.88393,166.07309   L 234.60421,162.11707   L 229.36947,161.03815   C 229.36947,161.91727 229.00984,167.47168 229.00984,167.47168   C 229.20964,167.87128 234.08474,168.79036 234.84397,168.83032   z "
     style="fill:#ffffff;fill-rule:evenodd;fill-opacity:1;stroke:none;" />
  <path
     id="path77"
     d="  M 204.31466,168.83032   C 204.31466,170.06907 203.83514,169.3498 205.55341,169.90923   C 206.23273,170.10903 207.03192,170.42871 207.91104,170.50863   L 207.91104,165.47369   C 207.91104,163.83534 208.87008,164.0751 206.91205,163.6755   C 205.95301,163.4757 205.31365,163.15602 204.31466,163.15602   z "
     style="fill:#ffffff;fill-rule:evenodd;fill-opacity:1;stroke:none;" />
  <path
     id="path79"
     d="  M 214.2247,172.6265   L 214.2247,172.6265   L 214.62429,165.47369   L 208.7502,164.19498   L 208.79016,166.51265   L 208.5504,170.82831   z "
     style="fill:#ffffff;fill-rule:evenodd;fill-opacity:1;stroke:none;" />
  <path
     id="path81"
     d="  M 228.4504,173.46566   C 230.40843,172.4267 232.08674,171.54759 235.04377,171.54759   C 234.88393,171.30783 234.84397,171.34779 234.84397,170.90823   L 234.80401,169.90923   L 228.88996,168.59056   z "
     style="fill:#ffffff;fill-rule:evenodd;fill-opacity:1;stroke:none;" />
  <path
     id="path83"
     d="  M 215.06385,172.8263   L 215.06385,172.8263   L 220.53835,174.50462   L 221.57731,166.91225   L 215.50341,165.67349   z "
     style="fill:#ffffff;fill-rule:evenodd;fill-opacity:1;stroke:none;" />
  <path
     id="path85"
     d="  M 220.53835,174.50462   L 220.53835,174.50462   L 221.37751,174.70442   L 222.21666,167.15201   L 221.57731,166.91225   z "
     style="fill:#000000;fill-rule:evenodd;fill-opacity:1;stroke:none;" />
  <path
     id="path87"
     d="  M 220.53835,175.34377   L 220.53835,175.34377   L 220.93795,175.54357   L 221.37751,175.54357   L 221.37751,174.70442   L 220.53835,174.50462   z "
     style="fill:#ffffff;fill-rule:evenodd;fill-opacity:1;stroke:none;" />
  <path
     id="path89"
     d="  M 221.37751,175.54357   L 225.33353,176.74237   L 225.77309,176.62249   C 225.45341,175.42369 222.41646,175.22389 221.37751,174.70442   z "
     style="fill:#000000;fill-rule:evenodd;fill-opacity:1;stroke:none;" />
  <path
     id="path91"
     d="  M 215.06385,172.8263   L 214.2247,172.6265   L 214.18474,173.50562   L 208.51044,171.98715   L 208.51044,172.8263   C 208.51044,173.34578 208.47048,173.34578 208.31064,173.66546   C 209.22972,175.42369 212.10682,179.97911 212.10682,182.09699   L 212.54638,182.05703   L 212.30662,181.25783   L 214.2247,182.09699   L 214.2247,173.66546   L 215.06385,173.66546   z "
     style="fill:#ffffff;fill-rule:evenodd;fill-opacity:1;stroke:none;" />
  <path
     id="path93"
     d="  M 220.53835,175.34377   L 220.53835,175.34377   L 215.06385,173.86526   L 215.02389,174.50462   L 215.06385,182.69638   L 219.05984,184.61446   z "
     style="fill:#ffffff;fill-rule:evenodd;fill-opacity:1;stroke:none;" />
  <path
     id="path95"
     d="  M 214.34458,185.89317   L 214.42449,184.61446   C 214.42449,183.33574 213.94498,182.7763 212.86606,182.53654   z "
     style="fill:#ffffff;fill-rule:evenodd;fill-opacity:1;stroke:none;" />
  <path
     id="path97"
     d="  M 221.37751,174.70442   C 222.41646,175.22389 225.45341,175.42369 225.77309,176.62249   L 225.33353,176.74237   L 221.37751,175.54357   L 219.89899,185.17389   L 221.9769,186.29277   C 222.85602,184.65442 223.81506,181.57751 224.61425,179.65944   C 225.45341,177.58152 226.97188,175.58353 228.09076,173.86526   L 227.61124,173.86526   L 228.09076,168.39076   L 222.21666,167.15201   z "
     style="fill:#ffffff;fill-rule:evenodd;fill-opacity:1;stroke:none;" />
  <path
     id="path99"
     d="  M 215.66325,188.81024   L 214.82409,187.33172   C 214.82409,188.77028 215.66325,191.68735 216.78213,191.96707   L 216.54237,191.32771   C 217.86104,190.96807 218.7002,187.13193 218.82008,185.45361   L 214.98393,183.5755   z "
     style="fill:#ffffff;fill-rule:evenodd;fill-opacity:1;stroke:none;" />
  <path
     id="path101"
     d="  M 216.94196,192.16686   L 218.5004,197.04197   L 221.73715,186.97209   L 219.69919,186.09297   C 218.82008,187.8512 219.05984,191.60743 216.94196,192.16686   z "
     style="fill:#ffffff;fill-rule:evenodd;fill-opacity:1;stroke:none;" />
  <path
     id="path103"
     d="  M 216.94196,192.16686   C 219.05984,191.60743 218.82008,187.8512 219.69919,186.09297   L 221.73715,186.97209   L 218.5004,197.04197   z  M 216.54237,191.32771   L 216.78213,191.96707   C 215.66325,191.68735 214.82409,188.77028 214.82409,187.33172   L 215.66325,188.81024   L 214.98393,183.5755   L 218.82008,185.45361   C 218.7002,187.13193 217.86104,190.96807 216.54237,191.32771   z  M 214.34458,185.89317   L 212.86606,182.53654   C 213.94498,182.7763 214.42449,183.33574 214.42449,184.61446   z  M 220.53835,175.34377   L 219.05984,184.61446   L 215.06385,182.69638   L 215.02389,174.50462   L 215.06385,173.86526   z  M 214.2247,172.6265   L 215.06385,172.8263   L 215.06385,173.66546   L 214.2247,173.66546   L 214.2247,182.09699   L 212.30662,181.25783   L 212.54638,182.05703   L 212.10682,182.09699   C 212.10682,179.97911 209.22972,175.42369 208.31064,173.66546   C 208.47048,173.34578 208.51044,173.34578 208.51044,172.8263   L 208.51044,171.98715   L 214.18474,173.50562   z  M 228.88996,168.59056   L 234.80401,169.90923   L 234.84397,170.94819   C 234.84397,171.34779 234.88393,171.30783 235.04377,171.54759   C 232.08674,171.54759 230.40843,172.4267 228.4504,173.46566   z  M 214.2247,172.6265   L 208.5504,170.82831   L 208.79016,166.51265   L 208.7502,164.19498   L 214.62429,165.47369   z  M 234.84397,168.83032   C 234.08474,168.79036 229.20964,167.87128 229.00984,167.47168   C 229.00984,167.47168 229.36947,161.91727 229.36947,161.03815   L 234.60421,162.11707   L 234.88393,166.07309   z  M 204.31466,163.15602   C 205.31365,163.15602 205.95301,163.51566 206.91205,163.6755   C 208.87008,164.0751 207.91104,163.83534 207.91104,165.47369   L 207.91104,170.50863   C 207.03192,170.42871 206.23273,170.10903 205.55341,169.90923   C 203.83514,169.3498 204.31466,170.06907 204.31466,168.83032   z  M 230.04879,153.04618   L 233.96486,153.9253   L 234.64417,161.23795   L 229.52931,160.19899   z  M 214.62429,165.47369   L 214.62429,164.39478   L 208.95,163.2759   L 209.62931,156.40281   L 215.26365,157.68152   L 214.78413,164.59458   L 215.46345,164.59458   L 215.46345,165.47369   z  M 204.99397,155.36385   L 208.7502,156.20301   L 208.07088,163.15602   L 204.39458,162.31687   z  M 223.05582,158.72048   L 223.69518,151.36787   L 229.36947,152.84638   L 228.77008,159.99919   z  M 222.21666,158.52068   L 223.05582,158.72048   L 223.05582,159.55964   C 223.9749,159.5996 228.57028,160.55863 228.73012,161.07811   C 228.77008,161.27791 228.13072,166.59257 228.09076,167.3518   C 226.33253,167.31184 224.25462,166.31285 222.61626,166.31285   C 222.1767,166.31285 222.25662,166.71245 222.21666,167.15201   L 228.09076,168.39076   L 227.61124,173.86526   L 228.09076,173.86526   C 226.97188,175.58353 225.45341,177.58152 224.61425,179.65944   C 223.81506,181.57751 222.85602,184.65442 221.9769,186.29277   L 219.89899,185.17389   L 221.37751,175.54357   L 220.93795,175.54357   L 220.53835,175.34377   L 220.53835,174.50462   L 215.06385,172.8263   L 215.50341,165.67349   L 221.57731,166.91225   L 221.57731,166.07309   L 222.41646,166.07309   L 222.89598,159.35984   L 222.21666,159.35984   L 221.57731,165.87329   L 215.70321,164.75442   L 216.10281,157.88132   C 215.34357,157.68152 215.54337,157.84136 215.46345,157.04217   L 215.90301,157.04217   L 216.30261,157.24197   L 217.18172,149.68956   L 223.01586,151.20803   z  M 229.76907,145.45381   L 229.76907,144.81446   L 230.40843,145.05421   L 230.40843,145.65361   C 232.80602,145.85341 233.08574,145.89337 233.36546,148.21104   C 233.44538,148.97028 233.80502,152.40683 234.00482,152.84638   L 230.00883,151.96727   L 230.00883,152.84638   L 229.36947,152.84638   L 229.36947,151.76747   L 223.69518,150.40883   L 224.33453,144.41486   z  M 230.40843,145.05421   L 230.88795,138.1012   C 232.3265,138.26104 232.60622,143.9753 232.9259,145.45381   z  M 218.06084,142.93634   L 223.69518,144.1751   L 223.05582,150.28895   L 217.3016,148.81044   z  M 229.76907,144.81446   C 221.89698,142.9763 224.93393,144.89438 224.93393,136.82249   L 230.20863,137.9014   z  M 219.13976,135.78353   C 226.77209,137.58172 223.69518,135.30401 223.69518,143.5757   L 218.18072,142.29699   z  M 213.14578,134.74458   L 218.18072,135.62369   L 217.3016,142.09719   L 212.10682,140.97831   z  M 230.20863,137.9014   L 230.20863,136.82249   L 224.93393,135.94337   L 225.41345,129.66968   C 226.21265,129.7496 227.09176,130.02932 228.01084,130.18915   C 229.48935,130.46887 229.16968,130.22911 229.60923,131.54779   C 230.32851,133.8255 230.40843,133.70562 230.40843,136.82249   L 231.20763,137.82148   z  M 220.25863,128.63072   L 224.73413,129.50984   L 224.29458,135.78353   L 219.25964,134.94438   z  M 225.81305,123.35602   L 229.0498,129.62972   L 225.53333,129.03032   z  M 222.05682,119.5998   L 222.1767,119.36004   L 225.13373,122.11727   L 224.93393,122.31707   C 225.65321,122.15723 225.69317,121.99739 225.77309,122.95642   L 225.17369,122.47691   L 224.77409,128.83052   L 220.41847,127.99136   z  M 215.06385,126.95241   C 216.34257,124.2751 215.78313,118.72068 219.69919,118.72068   C 220.45843,118.72068 220.05883,118.88052 220.93795,118.96044   L 219.45943,127.79156   z  M 214.2247,126.71265   L 215.06385,126.95241   L 215.06385,127.59177   L 219.25964,128.43092   L 218.38052,134.74458   L 213.38554,133.90542   L 213.38554,134.30502   L 213.14578,134.74458   L 212.74618,134.50482   L 212.30662,134.50482   L 211.02791,140.69859   L 207.27168,139.97932   L 207.27168,140.61867   C 208.43052,140.69859 209.54939,141.25803 210.62831,141.25803   C 211.02791,141.25803 210.58835,140.85843 211.90703,140.81847   L 211.90703,141.65763   L 217.14176,142.73654   L 216.46245,148.61064   L 210.86807,147.29197   L 210.82811,148.21104   L 216.30261,149.48976   L 215.46345,157.04217   L 209.78915,155.72349   L 210.70823,148.01124   L 209.78915,147.97128   C 209.62931,149.76948 208.98996,152.08715 208.95,153.88534   C 208.91004,155.72349 208.91004,155.52369 207.31164,155.08413   C 206.75221,154.96425 205.11385,154.84438 205.03393,154.36486   C 204.95401,153.64558 205.55341,149.40984 205.71325,148.53072   C 206.19277,145.61365 206.95201,147.73152 209.78915,147.77148   L 209.98895,147.13213   C 209.3496,146.85241 206.19277,146.37289 206.19277,145.89337   C 206.19277,144.01526 207.07188,142.33695 207.07188,140.41887   C 205.63333,140.57871 205.35361,145.97329 205.15381,147.53172   C 204.87409,149.56968 204.15482,153.76546 204.2747,155.40381   C 204.39458,157.4018 203.6753,161.15803 203.6753,163.75542   C 203.6753,166.91225 203.4755,169.5496 203.4755,172.8263   L 204.11486,172.8263   L 204.11486,170.62851   L 207.67128,171.54759   L 207.67128,173.8253   L 199.47952,172.6265   L 199.27972,172.6265   C 187.21184,172.6265 178.22088,195.92309 178.22088,209.42952   C 178.22088,214.86405 180.01907,222.33654 183.05602,224.37449   C 184.85421,220.97791 186.17289,217.02188 187.97108,213.50542   C 189.76927,209.98895 191.32771,206.11285 192.96606,202.4765   C 193.76526,200.71827 194.64437,198.96004 195.48353,197.24176   C 196.48253,195.24377 197.32168,193.68534 199.91907,194.48454   C 202.15682,195.16385 204.55441,202.15682 204.95401,205.43353   C 206.19277,214.58433 204.95401,227.0518 206.39257,235.76305   C 207.99096,245.35341 211.98694,251.02771 219.25964,254.90381   C 221.57731,253.78494 225.17369,253.4253 227.29156,251.98674   C 229.52931,250.50823 231.56727,249.06968 233.04578,246.83192   C 236.00281,242.43634 237.76104,236.84196 237.76104,229.64919   L 237.88092,228.17068   L 237.16164,214.70421   L 237.16164,214.06486   C 237.16164,207.5514 238.32048,194.08494 243.8749,194.08494   L 244.0747,194.08494   C 247.5512,194.08494 248.9498,195.44357 250.38835,197.44156   C 251.70702,199.23976 253.38534,200.95803 254.78393,202.75622   C 257.58112,206.35261 260.93775,209.66927 260.93775,215.98293   L 260.93775,217.42148   L 261.7769,217.66124   C 262.65602,213.78514 266.17249,210.82811 266.17249,205.23373   L 266.17249,201.63735   C 266.17249,193.24578 262.73594,186.69237 259.05963,181.85723   C 257.1016,179.21988 254.86385,177.14197 252.26646,175.18393   C 250.54819,173.86526 245.87289,170.50863 243.23554,170.50863   L 241.35743,170.38875   L 235.88293,171.34779   C 235.40341,169.30984 236.08273,166.59257 235.60321,163.8753   C 235.24357,161.99719 235.16365,157.92128 235.04377,156.00321   C 234.68413,151.00823 233.80502,145.81345 232.9259,141.25803   C 231.36747,133.4259 228.13072,121.67771 221.9769,118.72068   L 221.9769,119.4   L 221.09779,119.16024   L 221.37751,118.32108   L 219.45943,118.12128   C 217.26164,117.76164 214.90401,120.07932 213.94498,121.19819   C 213.38554,121.87751 209.86907,125.91345 211.90703,126.11325   C 212.2267,124.63474 214.98393,120.95843 216.14277,120.1992   z "
     style="fill:#000000;fill-rule:evenodd;fill-opacity:1;stroke:none;" />
  <path
     id="path105"
     d="  M 180.13895,297.38112   L 180.13895,261.69698   L 184.85421,261.69698   L 184.85421,293.18534   L 202.43654,293.18534   L 202.43654,297.38112   z  M 204.15482,297.38112   L 217.86104,261.69698   L 222.93594,261.69698   L 237.56124,297.38112   L 232.16666,297.38112   L 228.01084,286.59196   L 213.06586,286.59196   L 209.1498,297.38112   z  M 214.42449,282.71586   L 226.53233,282.71586   L 222.81606,272.84578   C 221.69719,269.84879 220.85803,267.37128 220.29859,265.45321   C 219.81907,267.73092 219.17972,270.00863 218.38052,272.24638   z  M 241.11767,297.38112   L 241.11767,261.69698   L 254.54417,261.69698   C 257.26144,261.69698 259.45923,262.05662 261.09759,262.7759   C 262.73594,263.49518 264.01465,264.61405 264.97369,266.13253   C 265.89277,267.61104 266.37229,269.16947 266.37229,270.80783   C 266.37229,272.36626 265.93273,273.80482 265.13353,275.12349   C 264.29437,276.48212 263.05562,277.56104 261.37731,278.4002   C 263.53514,279.03955 265.17349,280.11847 266.33233,281.63694   C 267.49116,283.15542 268.09056,284.95361 268.09056,287.03152   C 268.09056,288.70984 267.73092,290.26827 267.01164,291.70682   C 266.33233,293.14538 265.45321,294.26425 264.41425,295.02349   C 263.3753,295.82269 262.05662,296.38212 260.49819,296.78172   C 258.93976,297.18132 257.02168,297.38112 254.74397,297.38112   z  M 245.87289,276.68192   L 253.58514,276.68192   C 255.66305,276.68192 257.18152,276.56204 258.06064,276.28233   C 259.29939,275.92269 260.17851,275.32329 260.77791,274.48413   C 261.41727,273.68494 261.69698,272.64598 261.69698,271.36727   C 261.69698,270.20843 261.41727,269.16947 260.85783,268.2504   C 260.29839,267.37128 259.45923,266.73192 258.42028,266.41225   C 257.38132,266.09257 255.54317,265.89277 252.98574,265.89277   L 245.87289,265.89277   z  M 245.87289,293.18534   L 254.74397,293.18534   C 256.26245,293.18534 257.34136,293.10542 257.94076,293.0255   C 259.05963,292.8257 259.93875,292.50602 260.69799,292.0265   C 261.41727,291.58694 262.01666,290.90763 262.49618,290.06847   C 262.9757,289.18935 263.1755,288.19036 263.1755,287.03152   C 263.1755,285.71285 262.85582,284.55401 262.1765,283.55502   C 261.49718,282.59598 260.53815,281.91666 259.33935,281.51706   C 258.14056,281.11747 256.38233,280.91767 254.10461,280.91767   L 245.87289,280.91767   z "
     style="fill:#000000;fill-rule:evenodd;fill-opacity:1;stroke:none;" />
</svg>
