<?xml version="1.0" encoding="UTF-8" standalone="no"?>
<svg
   xmlns:dc="http://purl.org/dc/elements/1.1/"
   xmlns:cc="http://creativecommons.org/ns#"
   xmlns:rdf="http://www.w3.org/1999/02/22-rdf-syntax-ns#"
   xmlns:svg="http://www.w3.org/2000/svg"
   xmlns="http://www.w3.org/2000/svg"
   id="svg107"
   height="95.75mm"
   width="95.75mm"
   version="1.0">
  <metadata
     id="metadata111">
    <rdf:RDF>
      <cc:Work
         rdf:about="">
        <dc:format>image/svg+xml</dc:format>
        <dc:type
           rdf:resource="http://purl.org/dc/dcmitype/StillImage" />
      </cc:Work>
    </rdf:RDF>
  </metadata>
  <defs
     id="defs3">
    <pattern
       y="0"
       x="0"
       height="6"
       width="6"
       patternUnits="userSpaceOnUse"
       id="EMFhbasepattern" />
  </defs>
  <path
     id="path5"
     d="  M 132.98634,15.983936   L 132.98634,54.345381   L 228.88996,54.345381   L 228.88996,15.983936   L 132.98634,15.983936   z "
     style="fill:#000000;fill-rule:evenodd;fill-opacity:1;stroke:none;" />
  <path
     id="path7"
     d="  M 54.345381,54.345381   L 54.345381,307.53092   L 307.53092,307.53092   L 307.53092,54.345381   L 54.345381,54.345381   z "
     style="fill:#aaffaa;fill-rule:evenodd;fill-opacity:1;stroke:none;" />
  <path
     id="path9"
     d="  M 54.345381,54.345381   L 307.53092,54.345381   L 307.53092,307.53092   L 54.345381,307.53092   z "
     style="fill:none;stroke:#000000;stroke-width:9.5903616px;stroke-linecap:butt;stroke-linejoin:miter;stroke-miterlimit:10;stroke-dasharray:none;stroke-opacity:1;" />
  <path
     id="path11"
     d="  M 171.82731,87.312248   L 171.82731,87.312248   L 174.34478,87.711846   L 174.58454,87.072489   L 172.06707,86.67289   z "
     style="fill:#000000;fill-rule:evenodd;fill-opacity:1;stroke:none;" />
  <path
     id="path13"
     d="  M 175.42369,87.312248   L 179.81927,88.151404   L 181.29779,79.32028   C 180.41867,79.24036 180.81827,79.080521 180.05903,79.080521   C 176.14297,79.080521 176.70241,84.634939 175.42369,87.312248   z "
     style="fill:#ffffff;fill-rule:evenodd;fill-opacity:1;stroke:none;" />
  <path
     id="path15"
     d="  M 180.77831,88.351204   L 185.13393,89.19036   L 185.53353,82.836746   L 186.13293,83.316264   C 186.05301,82.357228 186.01305,82.517067 185.29377,82.676906   L 185.49357,82.477107   L 182.53654,79.719878   L 182.41666,79.959637   z "
     style="fill:#ffffff;fill-rule:evenodd;fill-opacity:1;stroke:none;" />
  <path
     id="path17"
     d="  M 185.89317,89.390159   L 185.89317,89.390159   L 189.40964,89.989557   L 186.17289,83.715862   z "
     style="fill:#ffffff;fill-rule:evenodd;fill-opacity:1;stroke:none;" />
  <path
     id="path19"
     d="  M 172.86626,94.26526   L 172.86626,94.26526   L 174.34478,87.711846   L 171.82731,87.312248   L 169.50964,93.585942   z "
     style="fill:#ffffff;fill-rule:evenodd;fill-opacity:1;stroke:none;" />
  <path
     id="path21"
     d="  M 172.86626,94.26526   L 172.86626,94.26526   L 173.74538,94.26526   L 175.18393,87.951605   L 174.34478,87.711846   z "
     style="fill:#000000;fill-rule:evenodd;fill-opacity:1;stroke:none;" />
  <path
     id="path23"
     d="  M 172.66646,94.864657   L 172.66646,94.864657   L 173.10602,94.864657   L 173.50562,95.104416   L 173.74538,94.664858   L 173.74538,94.26526   L 172.86626,94.26526   z "
     style="fill:#ffffff;fill-rule:evenodd;fill-opacity:1;stroke:none;" />
  <path
     id="path25"
     d="  M 174.34478,87.711846   L 174.34478,87.711846   L 175.18393,87.951605   L 173.74538,94.26526   L 178.74036,95.104416   L 179.61948,88.790762   L 175.42369,87.951605   L 175.42369,87.312248   L 174.58454,87.072489   z "
     style="fill:#ffffff;fill-rule:evenodd;fill-opacity:1;stroke:none;" />
  <path
     id="path27"
     d="  M 179.61948,95.304215   L 179.61948,95.304215   L 184.65442,96.143372   L 185.09397,89.869677   L 180.61847,88.990561   z "
     style="fill:#ffffff;fill-rule:evenodd;fill-opacity:1;stroke:none;" />
  <path
     id="path29"
     d="  M 190.56847,98.261244   L 191.56747,98.181324   L 190.76827,97.182328   C 190.76827,94.06546 190.68835,94.18534 189.96907,91.907629   C 189.52952,90.588955 189.84919,90.828714 188.37068,90.548995   C 187.4516,90.389155 186.57249,90.109436 185.77329,90.029517   L 185.29377,96.303211   L 190.56847,97.182328   z "
     style="fill:#ffffff;fill-rule:evenodd;fill-opacity:1;stroke:none;" />
  <path
     id="path31"
     d="  M 172.66646,94.864657   L 172.66646,94.864657   L 172.86626,94.26526   L 169.50964,93.585942   L 171.82731,87.312248   L 170.86827,86.63293   L 166.71245,100.25924   L 166.99217,100.2992   L 167.71144,100.0994   L 169.30984,94.2253   z "
     style="fill:#000000;fill-rule:evenodd;fill-opacity:1;stroke:none;" />
  <path
     id="path33"
     d="  M 173.50562,95.104416   L 173.50562,95.104416   L 172.46666,101.33815   L 177.66144,102.45703   L 178.54056,95.983533   z "
     style="fill:#ffffff;fill-rule:evenodd;fill-opacity:1;stroke:none;" />
  <path
     id="path35"
     d="  M 178.54056,102.65683   L 184.05502,103.93554   C 184.05502,95.663854 187.13193,97.941565 179.4996,96.143372   z "
     style="fill:#ffffff;fill-rule:evenodd;fill-opacity:1;stroke:none;" />
  <path
     id="path37"
     d="  M 190.12891,105.1743   L 190.56847,98.261244   L 185.29377,97.182328   C 185.29377,105.25422 182.25682,103.33614 190.12891,105.1743   z "
     style="fill:#ffffff;fill-rule:evenodd;fill-opacity:1;stroke:none;" />
  <path
     id="path39"
     d="  M 190.76827,105.41405   L 193.28574,105.81365   C 192.96606,104.33514 192.68634,98.620882 191.24779,98.461043   z "
     style="fill:#ffffff;fill-rule:evenodd;fill-opacity:1;stroke:none;" />
  <path
     id="path41"
     d="  M 190.12891,105.81365   L 190.12891,105.81365   L 190.76827,106.01345   L 190.76827,105.41405   L 190.12891,105.1743   z "
     style="fill:#ffffff;fill-rule:evenodd;fill-opacity:1;stroke:none;" />
  <path
     id="path43"
     d="  M 170.34879,107.49197   C 172.22691,107.45201 171.58755,103.3761 172.26686,102.01747   L 171.22791,101.81767   z "
     style="fill:#000000;fill-rule:evenodd;fill-opacity:1;stroke:none;" />
  <path
     id="path45"
     d="  M 177.66144,109.17028   L 177.66144,109.17028   L 183.41566,110.64879   L 184.05502,104.53494   L 178.42068,103.29618   z "
     style="fill:#ffffff;fill-rule:evenodd;fill-opacity:1;stroke:none;" />
  <path
     id="path47"
     d="  M 189.72931,112.12731   L 189.72931,112.12731   L 190.12891,105.81365   L 184.69437,104.7747   L 184.05502,110.76867   z "
     style="fill:#ffffff;fill-rule:evenodd;fill-opacity:1;stroke:none;" />
  <path
     id="path49"
     d="  M 189.72931,112.12731   L 189.72931,112.12731   L 190.36867,112.32711   L 190.76827,106.01345   L 190.12891,105.81365   z "
     style="fill:#000000;fill-rule:evenodd;fill-opacity:1;stroke:none;" />
  <path
     id="path51"
     d="  M 189.72931,113.20622   L 189.72931,113.20622   L 190.36867,113.20622   L 190.36867,112.32711   L 189.72931,112.12731   z "
     style="fill:#ffffff;fill-rule:evenodd;fill-opacity:1;stroke:none;" />
  <path
     id="path53"
     d="  M 190.36867,112.32711   L 194.36466,113.20622   C 194.16486,112.76667 193.80522,109.33012 193.7253,108.57088   C 193.44558,106.25321 193.16586,106.21325 190.76827,106.01345   z "
     style="fill:#ffffff;fill-rule:evenodd;fill-opacity:1;stroke:none;" />
  <path
     id="path55"
     d="  M 170.34879,107.49197   L 170.14899,108.13132   C 167.31184,108.09136 166.55261,105.97349 166.07309,108.89056   C 165.91325,109.76968 165.31385,114.00542 165.39377,114.7247   C 165.47369,115.20422 167.11205,115.32409 167.67148,115.44397   C 169.26988,115.88353 169.26988,116.08333 169.30984,114.24518   C 169.3498,112.44699 169.98915,110.12932 170.14899,108.33112   L 171.06807,108.37108   L 170.14899,116.08333   L 175.82329,117.40201   L 176.66245,109.8496   L 171.18795,108.57088   L 171.22791,107.65181   L 176.82229,108.97048   L 177.5016,103.09638   L 172.26686,102.01747   C 171.58755,103.3761 172.22691,107.45201 170.34879,107.49197   z "
     style="fill:#ffffff;fill-rule:evenodd;fill-opacity:1;stroke:none;" />
  <path
     id="path57"
     d="  M 176.46265,118.24116   L 176.66245,117.60181   L 176.26285,117.40201   L 175.82329,117.40201   C 175.90321,118.2012 175.70341,118.04136 176.46265,118.24116   z "
     style="fill:#ffffff;fill-rule:evenodd;fill-opacity:1;stroke:none;" />
  <path
     id="path59"
     d="  M 176.66245,117.60181   L 176.66245,117.60181   L 182.5765,118.88052   L 183.3757,111.56787   L 177.54156,110.0494   z "
     style="fill:#ffffff;fill-rule:evenodd;fill-opacity:1;stroke:none;" />
  <path
     id="path61"
     d="  M 176.46265,118.24116   L 176.46265,118.24116   L 182.5765,119.71968   L 182.5765,118.88052   L 176.66245,117.60181   z "
     style="fill:#000000;fill-rule:evenodd;fill-opacity:1;stroke:none;" />
  <path
     id="path63"
     d="  M 183.41566,119.08032   L 183.41566,119.08032   L 189.12992,120.35903   L 189.72931,113.20622   L 184.05502,111.72771   z "
     style="fill:#ffffff;fill-rule:evenodd;fill-opacity:1;stroke:none;" />
  <path
     id="path65"
     d="  M 189.88915,120.55883   L 189.88915,120.55883   L 195.00401,121.59779   L 194.3247,114.28514   L 190.40863,113.40602   z "
     style="fill:#ffffff;fill-rule:evenodd;fill-opacity:1;stroke:none;" />
  <path
     id="path67"
     d="  M 164.75442,122.67671   L 164.75442,122.67671   L 168.43072,123.51586   L 169.11004,116.56285   L 165.35381,115.72369   z "
     style="fill:#ffffff;fill-rule:evenodd;fill-opacity:1;stroke:none;" />
  <path
     id="path69"
     d="  M 174.98413,125.83353   L 174.98413,125.83353   L 175.82329,125.83353   L 175.82329,124.95442   L 175.14397,124.95442   L 175.62349,118.04136   L 169.98915,116.76265   L 169.30984,123.63574   L 174.98413,124.75462   z "
     style="fill:#ffffff;fill-rule:evenodd;fill-opacity:1;stroke:none;" />
  <path
     id="path71"
     d="  M 182.5765,119.71968   L 182.5765,119.71968   L 176.46265,118.24116   L 176.06305,125.11426   L 181.93715,126.23313   z "
     style="fill:#ffffff;fill-rule:evenodd;fill-opacity:1;stroke:none;" />
  <path
     id="path73"
     d="  M 182.5765,119.71968   L 183.25582,119.71968   L 182.7763,126.43293   L 181.93715,126.43293   L 181.93715,127.27209   L 182.5765,127.51185   C 182.61646,127.07229 182.53654,126.67269 182.9761,126.67269   C 184.61446,126.67269 186.69237,127.67168 188.4506,127.71164   C 188.49056,126.95241 189.12992,121.63775 189.08996,121.43795   C 188.93012,120.91847 184.33474,119.95944 183.41566,119.91948   L 183.41566,119.08032   L 182.5765,118.88052   z "
     style="fill:#ffffff;fill-rule:evenodd;fill-opacity:1;stroke:none;" />
  <path
     id="path75"
     d="  M 195.20381,129.19016   L 195.24377,126.43293   L 194.96405,122.47691   L 189.72931,121.39799   C 189.72931,122.27711 189.36968,127.83152 189.36968,127.83152   C 189.56948,128.23112 194.44458,129.1502 195.20381,129.19016   z "
     style="fill:#ffffff;fill-rule:evenodd;fill-opacity:1;stroke:none;" />
  <path
     id="path77"
     d="  M 164.6745,129.19016   C 164.6745,130.42891 164.19498,129.70964 165.91325,130.26907   C 166.59257,130.46887 167.39176,130.78855 168.27088,130.86847   L 168.27088,125.83353   C 168.27088,124.19518 169.22992,124.43494 167.27189,124.03534   C 166.31285,123.83554 165.67349,123.51586 164.6745,123.51586   z "
     style="fill:#ffffff;fill-rule:evenodd;fill-opacity:1;stroke:none;" />
  <path
     id="path79"
     d="  M 174.58454,132.98634   L 174.58454,132.98634   L 174.98413,125.83353   L 169.11004,124.55482   L 169.15,126.87249   L 168.91024,131.18815   z "
     style="fill:#ffffff;fill-rule:evenodd;fill-opacity:1;stroke:none;" />
  <path
     id="path81"
     d="  M 188.81024,133.8255   C 190.76827,132.78654 192.44658,131.90743 195.40361,131.90743   C 195.24377,131.66767 195.20381,131.70763 195.20381,131.26807   L 195.16385,130.26907   L 189.2498,128.9504   z "
     style="fill:#ffffff;fill-rule:evenodd;fill-opacity:1;stroke:none;" />
  <path
     id="path83"
     d="  M 175.42369,133.18614   L 175.42369,133.18614   L 180.89819,134.86446   L 181.93715,127.27209   L 175.86325,126.03333   z "
     style="fill:#ffffff;fill-rule:evenodd;fill-opacity:1;stroke:none;" />
  <path
     id="path85"
     d="  M 180.89819,134.86446   L 180.89819,134.86446   L 181.73735,135.06426   L 182.5765,127.51185   L 181.93715,127.27209   z "
     style="fill:#000000;fill-rule:evenodd;fill-opacity:1;stroke:none;" />
  <path
     id="path87"
     d="  M 180.89819,135.70361   L 180.89819,135.70361   L 181.29779,135.90341   L 181.73735,135.90341   L 181.73735,135.06426   L 180.89819,134.86446   z "
     style="fill:#ffffff;fill-rule:evenodd;fill-opacity:1;stroke:none;" />
  <path
     id="path89"
     d="  M 181.73735,135.90341   L 185.69337,137.10221   L 186.13293,136.98233   C 185.81325,135.78353 182.7763,135.58373 181.73735,135.06426   z "
     style="fill:#000000;fill-rule:evenodd;fill-opacity:1;stroke:none;" />
  <path
     id="path91"
     d="  M 175.42369,133.18614   L 174.58454,132.98634   L 174.54458,133.86546   L 168.87028,132.34699   L 168.87028,133.18614   C 168.87028,133.70562 168.83032,133.70562 168.67048,134.0253   C 169.58956,135.78353 172.46666,140.33895 172.46666,142.45683   L 172.90622,142.41687   L 172.66646,141.61767   L 174.58454,142.45683   L 174.58454,134.0253   L 175.42369,134.0253   z "
     style="fill:#ffffff;fill-rule:evenodd;fill-opacity:1;stroke:none;" />
  <path
     id="path93"
     d="  M 180.89819,135.70361   L 180.89819,135.70361   L 175.42369,134.2251   L 175.38373,134.86446   L 175.42369,143.05622   L 179.41968,144.9743   z "
     style="fill:#ffffff;fill-rule:evenodd;fill-opacity:1;stroke:none;" />
  <path
     id="path95"
     d="  M 174.70442,146.25301   L 174.78433,144.9743   C 174.78433,143.69558 174.30482,143.13614 173.2259,142.89638   z "
     style="fill:#ffffff;fill-rule:evenodd;fill-opacity:1;stroke:none;" />
  <path
     id="path97"
     d="  M 181.73735,135.06426   C 182.7763,135.58373 185.81325,135.78353 186.13293,136.98233   L 185.69337,137.10221   L 181.73735,135.90341   L 180.25883,145.53373   L 182.33674,146.65261   C 183.21586,145.01425 184.1749,141.93735 184.97409,140.01928   C 185.81325,137.94136 187.33172,135.94337 188.4506,134.2251   L 187.97108,134.2251   L 188.4506,128.7506   L 182.5765,127.51185   z "
     style="fill:#ffffff;fill-rule:evenodd;fill-opacity:1;stroke:none;" />
  <path
     id="path99"
     d="  M 176.02309,149.17008   L 175.18393,147.69156   C 175.18393,149.13012 176.02309,152.04719 177.14197,152.32691   L 176.90221,151.68755   C 178.22088,151.32791 179.06004,147.49176 179.17992,145.81345   L 175.34377,143.93534   z "
     style="fill:#ffffff;fill-rule:evenodd;fill-opacity:1;stroke:none;" />
  <path
     id="path101"
     d="  M 177.3018,152.5267   L 178.86024,157.4018   L 182.09699,147.33193   L 180.05903,146.45281   C 179.17992,148.21104 179.41968,151.96727 177.3018,152.5267   z "
     style="fill:#ffffff;fill-rule:evenodd;fill-opacity:1;stroke:none;" />
  <path
     id="path103"
     d="  M 177.3018,152.5267   C 179.41968,151.96727 179.17992,148.21104 180.05903,146.45281   L 182.09699,147.33193   L 178.86024,157.4018   z  M 176.90221,151.68755   L 177.14197,152.32691   C 176.02309,152.04719 175.18393,149.13012 175.18393,147.69156   L 176.02309,149.17008   L 175.34377,143.93534   L 179.17992,145.81345   C 179.06004,147.49176 178.22088,151.32791 176.90221,151.68755   z  M 174.70442,146.25301   L 173.2259,142.89638   C 174.30482,143.13614 174.78433,143.69558 174.78433,144.9743   z  M 180.89819,135.70361   L 179.41968,144.9743   L 175.42369,143.05622   L 175.38373,134.86446   L 175.42369,134.2251   z  M 174.58454,132.98634   L 175.42369,133.18614   L 175.42369,134.0253   L 174.58454,134.0253   L 174.58454,142.45683   L 172.66646,141.61767   L 172.90622,142.41687   L 172.46666,142.45683   C 172.46666,140.33895 169.58956,135.78353 168.67048,134.0253   C 168.83032,133.70562 168.87028,133.70562 168.87028,133.18614   L 168.87028,132.34699   L 174.54458,133.86546   z  M 189.2498,128.9504   L 195.16385,130.26907   L 195.20381,131.30803   C 195.20381,131.70763 195.24377,131.66767 195.40361,131.90743   C 192.44658,131.90743 190.76827,132.78654 188.81024,133.8255   z  M 174.58454,132.98634   L 168.91024,131.18815   L 169.15,126.87249   L 169.11004,124.55482   L 174.98413,125.83353   z  M 195.20381,129.19016   C 194.44458,129.1502 189.56948,128.23112 189.36968,127.83152   C 189.36968,127.83152 189.72931,122.27711 189.72931,121.39799   L 194.96405,122.47691   L 195.24377,126.43293   z  M 164.6745,123.51586   C 165.67349,123.51586 166.31285,123.8755 167.27189,124.03534   C 169.22992,124.43494 168.27088,124.19518 168.27088,125.83353   L 168.27088,130.86847   C 167.39176,130.78855 166.59257,130.46887 165.91325,130.26907   C 164.19498,129.70964 164.6745,130.42891 164.6745,129.19016   z  M 190.40863,113.40602   L 194.3247,114.28514   L 195.00401,121.59779   L 189.88915,120.55883   z  M 174.98413,125.83353   L 174.98413,124.75462   L 169.30984,123.63574   L 169.98915,116.76265   L 175.62349,118.04136   L 175.14397,124.95442   L 175.82329,124.95442   L 175.82329,125.83353   z  M 165.35381,115.72369   L 169.11004,116.56285   L 168.43072,123.51586   L 164.75442,122.67671   z  M 183.41566,119.08032   L 184.05502,111.72771   L 189.72931,113.20622   L 189.12992,120.35903   z  M 182.5765,118.88052   L 183.41566,119.08032   L 183.41566,119.91948   C 184.33474,119.95944 188.93012,120.91847 189.08996,121.43795   C 189.12992,121.63775 188.49056,126.95241 188.4506,127.71164   C 186.69237,127.67168 184.61446,126.67269 182.9761,126.67269   C 182.53654,126.67269 182.61646,127.07229 182.5765,127.51185   L 188.4506,128.7506   L 187.97108,134.2251   L 188.4506,134.2251   C 187.33172,135.94337 185.81325,137.94136 184.97409,140.01928   C 184.1749,141.93735 183.21586,145.01425 182.33674,146.65261   L 180.25883,145.53373   L 181.73735,135.90341   L 181.29779,135.90341   L 180.89819,135.70361   L 180.89819,134.86446   L 175.42369,133.18614   L 175.86325,126.03333   L 181.93715,127.27209   L 181.93715,126.43293   L 182.7763,126.43293   L 183.25582,119.71968   L 182.5765,119.71968   L 181.93715,126.23313   L 176.06305,125.11426   L 176.46265,118.24116   C 175.70341,118.04136 175.90321,118.2012 175.82329,117.40201   L 176.26285,117.40201   L 176.66245,117.60181   L 177.54156,110.0494   L 183.3757,111.56787   z  M 190.12891,105.81365   L 190.12891,105.1743   L 190.76827,105.41405   L 190.76827,106.01345   C 193.16586,106.21325 193.44558,106.25321 193.7253,108.57088   C 193.80522,109.33012 194.16486,112.76667 194.36466,113.20622   L 190.36867,112.32711   L 190.36867,113.20622   L 189.72931,113.20622   L 189.72931,112.12731   L 184.05502,110.76867   L 184.69437,104.7747   z  M 190.76827,105.41405   L 191.24779,98.461043   C 192.68634,98.620882 192.96606,104.33514 193.28574,105.81365   z  M 178.42068,103.29618   L 184.05502,104.53494   L 183.41566,110.64879   L 177.66144,109.17028   z  M 190.12891,105.1743   C 182.25682,103.33614 185.29377,105.25422 185.29377,97.182328   L 190.56847,98.261244   z  M 179.4996,96.143372   C 187.13193,97.941565 184.05502,95.663854 184.05502,103.93554   L 178.54056,102.65683   z  M 173.50562,95.104416   L 178.54056,95.983533   L 177.66144,102.45703   L 172.46666,101.33815   z  M 190.56847,98.261244   L 190.56847,97.182328   L 185.29377,96.303211   L 185.77329,90.029517   C 186.57249,90.109436 187.4516,90.389155 188.37068,90.548995   C 189.84919,90.828714 189.52952,90.588955 189.96907,91.907629   C 190.68835,94.18534 190.76827,94.06546 190.76827,97.182328   L 191.56747,98.181324   z  M 180.61847,88.990561   L 185.09397,89.869677   L 184.65442,96.143372   L 179.61948,95.304215   z  M 186.17289,83.715862   L 189.40964,89.989557   L 185.89317,89.390159   z  M 182.41666,79.959637   L 182.53654,79.719878   L 185.49357,82.477107   L 185.29377,82.676906   C 186.01305,82.517067 186.05301,82.357228 186.13293,83.316264   L 185.53353,82.836746   L 185.13393,89.19036   L 180.77831,88.351204   z  M 175.42369,87.312248   C 176.70241,84.634939 176.14297,79.080521 180.05903,79.080521   C 180.81827,79.080521 180.41867,79.24036 181.29779,79.32028   L 179.81927,88.151404   z  M 174.58454,87.072489   L 175.42369,87.312248   L 175.42369,87.951605   L 179.61948,88.790762   L 178.74036,95.104416   L 173.74538,94.26526   L 173.74538,94.664858   L 173.50562,95.104416   L 173.10602,94.864657   L 172.66646,94.864657   L 171.38775,101.05843   L 167.63152,100.33916   L 167.63152,100.97851   C 168.79036,101.05843 169.90923,101.61787 170.98815,101.61787   C 171.38775,101.61787 170.94819,101.21827 172.26686,101.17831   L 172.26686,102.01747   L 177.5016,103.09638   L 176.82229,108.97048   L 171.22791,107.65181   L 171.18795,108.57088   L 176.66245,109.8496   L 175.82329,117.40201   L 170.14899,116.08333   L 171.06807,108.37108   L 170.14899,108.33112   C 169.98915,110.12932 169.3498,112.44699 169.30984,114.24518   C 169.26988,116.08333 169.26988,115.88353 167.67148,115.44397   C 167.11205,115.32409 165.47369,115.20422 165.39377,114.7247   C 165.31385,114.00542 165.91325,109.76968 166.07309,108.89056   C 166.55261,105.97349 167.31184,108.09136 170.14899,108.13132   L 170.34879,107.49197   C 169.70944,107.21225 166.55261,106.73273 166.55261,106.25321   C 166.55261,104.3751 167.43172,102.69679 167.43172,100.77871   C 165.99317,100.93855 165.71345,106.33313 165.51365,107.89156   C 165.23393,109.92952 164.51466,114.1253 164.63454,115.76365   C 164.75442,117.76164 164.03514,121.51787 164.03514,124.11526   C 164.03514,127.27209 163.83534,129.90944 163.83534,133.18614   L 164.4747,133.18614   L 164.4747,130.98835   L 168.03112,131.90743   L 168.03112,134.18514   L 159.83936,132.98634   L 159.63956,132.98634   C 147.57168,132.98634 138.58072,156.28293 138.58072,169.78935   C 138.58072,175.22389 140.37891,182.69638 143.41586,184.73433   C 145.21405,181.33775 146.53273,177.38172 148.33092,173.86526   C 150.12911,170.34879 151.68755,166.47269 153.3259,162.83634   C 154.1251,161.07811 155.00421,159.31988 155.84337,157.6016   C 156.84237,155.60361 157.68152,154.04518 160.27891,154.84438   C 162.51666,155.52369 164.91425,162.51666 165.31385,165.79337   C 166.55261,174.94417 165.31385,187.41164 166.75241,196.12289   C 168.3508,205.71325 172.34678,211.38755 179.61948,215.26365   C 181.93715,214.14478 185.53353,213.78514 187.6514,212.34658   C 189.88915,210.86807 191.92711,209.42952 193.40562,207.19176   C 196.36265,202.79618 198.12088,197.2018 198.12088,190.00903   L 198.24076,188.53052   L 197.52148,175.06405   L 197.52148,174.4247   C 197.52148,167.91124 198.68032,154.44478 204.23474,154.44478   L 204.43454,154.44478   C 207.91104,154.44478 209.30964,155.80341 210.74819,157.8014   C 212.06686,159.5996 213.74518,161.31787 215.14377,163.11606   C 217.94096,166.71245 221.29759,170.02911 221.29759,176.34277   L 221.29759,177.78132   L 222.13674,178.02108   C 223.01586,174.14498 226.53233,171.18795 226.53233,165.59357   L 226.53233,161.99719   C 226.53233,153.60562 223.09578,147.05221 219.41947,142.21707   C 217.46144,139.57972 215.22369,137.50181 212.6263,135.54377   C 210.90803,134.2251 206.23273,130.86847 203.59538,130.86847   L 201.71727,130.74859   L 196.24277,131.70763   C 195.76325,129.66968 196.44257,126.95241 195.96305,124.23514   C 195.60341,122.35703 195.52349,118.28112 195.40361,116.36305   C 195.04397,111.36807 194.16486,106.17329 193.28574,101.61787   C 191.72731,93.785742 188.49056,82.037549 182.33674,79.080521   L 182.33674,79.759838   L 181.45763,79.520079   L 181.73735,78.680923   L 179.81927,78.481123   C 177.62148,78.121485 175.26385,80.439155 174.30482,81.558031   C 173.74538,82.237348 170.22891,86.273292 172.26686,86.473091   C 172.58654,84.994577 175.34377,81.318272 176.50261,80.559035   z "
     style="fill:#000000;fill-rule:evenodd;fill-opacity:1;stroke:none;" />
  <path
     id="path105"
     d="  M 140.49879,257.74096   L 140.49879,222.05682   L 145.21405,222.05682   L 145.21405,253.54518   L 162.79638,253.54518   L 162.79638,257.74096   z  M 164.51466,257.74096   L 178.22088,222.05682   L 183.29578,222.05682   L 197.92108,257.74096   L 192.5265,257.74096   L 188.37068,246.9518   L 173.4257,246.9518   L 169.50964,257.74096   z  M 174.78433,243.0757   L 186.89217,243.0757   L 183.1759,233.20562   C 182.05703,230.20863 181.21787,227.73112 180.65843,225.81305   C 180.17891,228.09076 179.53956,230.36847 178.74036,232.60622   z  M 201.47751,257.74096   L 201.47751,222.05682   L 214.90401,222.05682   C 217.62128,222.05682 219.81907,222.41646 221.45743,223.13574   C 223.09578,223.85502 224.37449,224.97389 225.33353,226.49237   C 226.25261,227.97088 226.73213,229.52931 226.73213,231.16767   C 226.73213,232.7261 226.29257,234.16466 225.49337,235.48333   C 224.65421,236.84196 223.41546,237.92088 221.73715,238.76004   C 223.89498,239.39939 225.53333,240.47831 226.69217,241.99678   C 227.851,243.51526 228.4504,245.31345 228.4504,247.39136   C 228.4504,249.06968 228.09076,250.62811 227.37148,252.06666   C 226.69217,253.50522 225.81305,254.62409 224.77409,255.38333   C 223.73514,256.18253 222.41646,256.74196 220.85803,257.14156   C 219.2996,257.54116 217.38152,257.74096 215.10381,257.74096   z  M 206.23273,237.04176   L 213.94498,237.04176   C 216.02289,237.04176 217.54136,236.92188 218.42048,236.64217   C 219.65923,236.28253 220.53835,235.68313 221.13775,234.84397   C 221.77711,234.04478 222.05682,233.00582 222.05682,231.72711   C 222.05682,230.56827 221.77711,229.52931 221.21767,228.61024   C 220.65823,227.73112 219.81907,227.09176 218.78012,226.77209   C 217.74116,226.45241 215.90301,226.25261 213.34558,226.25261   L 206.23273,226.25261   z  M 206.23273,253.54518   L 215.10381,253.54518   C 216.62229,253.54518 217.7012,253.46526 218.3006,253.38534   C 219.41947,253.18554 220.29859,252.86586 221.05783,252.38634   C 221.77711,251.94678 222.3765,251.26747 222.85602,250.42831   C 223.33554,249.54919 223.53534,248.5502 223.53534,247.39136   C 223.53534,246.07269 223.21566,244.91385 222.53634,243.91486   C 221.85702,242.95582 220.89799,242.2765 219.69919,241.8769   C 218.5004,241.47731 216.74217,241.27751 214.46445,241.27751   L 206.23273,241.27751   z "
     style="fill:#000000;fill-rule:evenodd;fill-opacity:1;stroke:none;" />
</svg>
