<?xml version="1.0" encoding="UTF-8" standalone="no"?>
<svg
   xmlns:dc="http://purl.org/dc/elements/1.1/"
   xmlns:cc="http://creativecommons.org/ns#"
   xmlns:rdf="http://www.w3.org/1999/02/22-rdf-syntax-ns#"
   xmlns:svg="http://www.w3.org/2000/svg"
   xmlns="http://www.w3.org/2000/svg"
   id="svg107"
   height="89.669998mm"
   width="120.11mm"
   version="1.0">
  <metadata
     id="metadata111">
    <rdf:RDF>
      <cc:Work
         rdf:about="">
        <dc:format>image/svg+xml</dc:format>
        <dc:type
           rdf:resource="http://purl.org/dc/dcmitype/StillImage" />
      </cc:Work>
    </rdf:RDF>
  </metadata>
  <defs
     id="defs3">
    <pattern
       y="0"
       x="0"
       height="6"
       width="6"
       patternUnits="userSpaceOnUse"
       id="EMFhbasepattern" />
  </defs>
  <path
     id="path5"
     d="  M 179.02008,15.983936   L 179.02008,54.345381   L 274.92369,54.345381   L 274.92369,15.983936   L 179.02008,15.983936   z "
     style="fill:#000000;fill-rule:evenodd;fill-opacity:1;stroke:none;" />
  <path
     id="path7"
     d="  M 54.345381,54.345381   L 54.345381,284.51405   L 399.59839,284.51405   L 399.59839,54.345381   L 54.345381,54.345381   z "
     style="fill:#80e0ff;fill-rule:evenodd;fill-opacity:1;stroke:none;" />
  <path
     id="path9"
     d="  M 54.345381,54.345381   L 399.59839,54.345381   L 399.59839,284.51405   L 54.345381,284.51405   z "
     style="fill:none;stroke:#000000;stroke-width:9.5903616px;stroke-linecap:butt;stroke-linejoin:miter;stroke-miterlimit:10;stroke-dasharray:none;stroke-opacity:1;" />
  <path
     id="path11"
     d="  M 217.86104,75.803814   L 217.86104,75.803814   L 220.37851,76.203413   L 220.61827,75.564055   L 218.1008,75.164457   z "
     style="fill:#000000;fill-rule:evenodd;fill-opacity:1;stroke:none;" />
  <path
     id="path13"
     d="  M 221.45743,75.803814   L 225.85301,76.642971   L 227.33152,67.811846   C 226.45241,67.731927 226.852,67.572087 226.09277,67.572087   C 222.1767,67.572087 222.73614,73.126505 221.45743,75.803814   z "
     style="fill:#ffffff;fill-rule:evenodd;fill-opacity:1;stroke:none;" />
  <path
     id="path15"
     d="  M 226.81204,76.84277   L 231.16767,77.681927   L 231.56727,71.328312   L 232.16666,71.80783   C 232.08674,70.848794 232.04678,71.008634 231.32751,71.168473   L 231.52731,70.968674   L 228.57028,68.211445   L 228.4504,68.451204   z "
     style="fill:#ffffff;fill-rule:evenodd;fill-opacity:1;stroke:none;" />
  <path
     id="path17"
     d="  M 231.9269,77.881726   L 231.9269,77.881726   L 235.44337,78.481123   L 232.20662,72.207429   z "
     style="fill:#ffffff;fill-rule:evenodd;fill-opacity:1;stroke:none;" />
  <path
     id="path19"
     d="  M 218.9,82.756826   L 218.9,82.756826   L 220.37851,76.203413   L 217.86104,75.803814   L 215.54337,82.077509   z "
     style="fill:#ffffff;fill-rule:evenodd;fill-opacity:1;stroke:none;" />
  <path
     id="path21"
     d="  M 218.9,82.756826   L 218.9,82.756826   L 219.77911,82.756826   L 221.21767,76.443172   L 220.37851,76.203413   z "
     style="fill:#000000;fill-rule:evenodd;fill-opacity:1;stroke:none;" />
  <path
     id="path23"
     d="  M 218.7002,83.356224   L 218.7002,83.356224   L 219.13976,83.356224   L 219.53935,83.595983   L 219.77911,83.156425   L 219.77911,82.756826   L 218.9,82.756826   z "
     style="fill:#ffffff;fill-rule:evenodd;fill-opacity:1;stroke:none;" />
  <path
     id="path25"
     d="  M 220.37851,76.203413   L 220.37851,76.203413   L 221.21767,76.443172   L 219.77911,82.756826   L 224.77409,83.595983   L 225.65321,77.282328   L 221.45743,76.443172   L 221.45743,75.803814   L 220.61827,75.564055   z "
     style="fill:#ffffff;fill-rule:evenodd;fill-opacity:1;stroke:none;" />
  <path
     id="path27"
     d="  M 225.65321,83.795782   L 225.65321,83.795782   L 230.68815,84.634939   L 231.12771,78.361244   L 226.65221,77.482127   z "
     style="fill:#ffffff;fill-rule:evenodd;fill-opacity:1;stroke:none;" />
  <path
     id="path29"
     d="  M 236.60221,86.75281   L 237.6012,86.67289   L 236.802,85.673894   C 236.802,82.557027 236.72208,82.676906 236.00281,80.399196   C 235.56325,79.080521 235.88293,79.32028 234.40441,79.040561   C 233.48534,78.880722 232.60622,78.601003 231.80702,78.521083   L 231.32751,84.794778   L 236.60221,85.673894   z "
     style="fill:#ffffff;fill-rule:evenodd;fill-opacity:1;stroke:none;" />
  <path
     id="path31"
     d="  M 218.7002,83.356224   L 218.7002,83.356224   L 218.9,82.756826   L 215.54337,82.077509   L 217.86104,75.803814   L 216.902,75.124497   L 212.74618,88.750802   L 213.0259,88.790762   L 213.74518,88.590963   L 215.34357,82.716866   z "
     style="fill:#000000;fill-rule:evenodd;fill-opacity:1;stroke:none;" />
  <path
     id="path33"
     d="  M 219.53935,83.595983   L 219.53935,83.595983   L 218.5004,89.829718   L 223.69518,90.948593   L 224.57429,84.475099   z "
     style="fill:#ffffff;fill-rule:evenodd;fill-opacity:1;stroke:none;" />
  <path
     id="path35"
     d="  M 224.57429,91.148392   L 230.08875,92.427107   C 230.08875,84.15542 233.16566,86.433131 225.53333,84.634939   z "
     style="fill:#ffffff;fill-rule:evenodd;fill-opacity:1;stroke:none;" />
  <path
     id="path37"
     d="  M 236.16265,93.665862   L 236.60221,86.75281   L 231.32751,85.673894   C 231.32751,93.745782 228.29056,91.82771 236.16265,93.665862   z "
     style="fill:#ffffff;fill-rule:evenodd;fill-opacity:1;stroke:none;" />
  <path
     id="path39"
     d="  M 236.802,93.905621   L 239.31947,94.30522   C 238.9998,92.826705 238.72008,87.112449 237.28152,86.952609   z "
     style="fill:#ffffff;fill-rule:evenodd;fill-opacity:1;stroke:none;" />
  <path
     id="path41"
     d="  M 236.16265,94.30522   L 236.16265,94.30522   L 236.802,94.505019   L 236.802,93.905621   L 236.16265,93.665862   z "
     style="fill:#ffffff;fill-rule:evenodd;fill-opacity:1;stroke:none;" />
  <path
     id="path43"
     d="  M 216.38253,95.983533   C 218.26064,95.943573 217.62128,91.867669 218.3006,90.509035   L 217.26164,90.309236   z "
     style="fill:#000000;fill-rule:evenodd;fill-opacity:1;stroke:none;" />
  <path
     id="path45"
     d="  M 223.69518,97.661846   L 223.69518,97.661846   L 229.44939,99.14036   L 230.08875,93.026505   L 224.45441,91.78775   z "
     style="fill:#ffffff;fill-rule:evenodd;fill-opacity:1;stroke:none;" />
  <path
     id="path47"
     d="  M 235.76305,100.61887   L 235.76305,100.61887   L 236.16265,94.30522   L 230.72811,93.266264   L 230.08875,99.26024   z "
     style="fill:#ffffff;fill-rule:evenodd;fill-opacity:1;stroke:none;" />
  <path
     id="path49"
     d="  M 235.76305,100.61887   L 235.76305,100.61887   L 236.40241,100.81867   L 236.802,94.505019   L 236.16265,94.30522   z "
     style="fill:#000000;fill-rule:evenodd;fill-opacity:1;stroke:none;" />
  <path
     id="path51"
     d="  M 235.76305,101.69779   L 235.76305,101.69779   L 236.40241,101.69779   L 236.40241,100.81867   L 235.76305,100.61887   z "
     style="fill:#ffffff;fill-rule:evenodd;fill-opacity:1;stroke:none;" />
  <path
     id="path53"
     d="  M 236.40241,100.81867   L 240.39839,101.69779   C 240.19859,101.25823 239.83895,97.821685 239.75903,97.062448   C 239.47931,94.744778 239.19959,94.704818 236.802,94.505019   z "
     style="fill:#ffffff;fill-rule:evenodd;fill-opacity:1;stroke:none;" />
  <path
     id="path55"
     d="  M 216.38253,95.983533   L 216.18273,96.62289   C 213.34558,96.58293 212.58634,94.465059 212.10682,97.382127   C 211.94698,98.261244 211.34759,102.49699 211.42751,103.21626   C 211.50743,103.69578 213.14578,103.81566 213.70522,103.93554   C 215.30361,104.3751 215.30361,104.5749 215.34357,102.73675   C 215.38353,100.93855 216.02289,98.620882 216.18273,96.822689   L 217.1018,96.862649   L 216.18273,104.5749   L 221.85702,105.89357   L 222.69618,98.341163   L 217.22168,97.062448   L 217.26164,96.143372   L 222.85602,97.462047   L 223.53534,91.58795   L 218.3006,90.509035   C 217.62128,91.867669 218.26064,95.943573 216.38253,95.983533   z "
     style="fill:#ffffff;fill-rule:evenodd;fill-opacity:1;stroke:none;" />
  <path
     id="path57"
     d="  M 222.49638,106.73273   L 222.69618,106.09337   L 222.29658,105.89357   L 221.85702,105.89357   C 221.93694,106.69277 221.73715,106.53293 222.49638,106.73273   z "
     style="fill:#ffffff;fill-rule:evenodd;fill-opacity:1;stroke:none;" />
  <path
     id="path59"
     d="  M 222.69618,106.09337   L 222.69618,106.09337   L 228.61024,107.37209   L 229.40943,100.05944   L 223.5753,98.540962   z "
     style="fill:#ffffff;fill-rule:evenodd;fill-opacity:1;stroke:none;" />
  <path
     id="path61"
     d="  M 222.49638,106.73273   L 222.49638,106.73273   L 228.61024,108.21124   L 228.61024,107.37209   L 222.69618,106.09337   z "
     style="fill:#000000;fill-rule:evenodd;fill-opacity:1;stroke:none;" />
  <path
     id="path63"
     d="  M 229.44939,107.57189   L 229.44939,107.57189   L 235.16365,108.8506   L 235.76305,101.69779   L 230.08875,100.21928   z "
     style="fill:#ffffff;fill-rule:evenodd;fill-opacity:1;stroke:none;" />
  <path
     id="path65"
     d="  M 235.92289,109.0504   L 235.92289,109.0504   L 241.03775,110.08936   L 240.35843,102.77671   L 236.44237,101.89759   z "
     style="fill:#ffffff;fill-rule:evenodd;fill-opacity:1;stroke:none;" />
  <path
     id="path67"
     d="  M 210.78815,111.16827   L 210.78815,111.16827   L 214.46445,112.00743   L 215.14377,105.05442   L 211.38755,104.21526   z "
     style="fill:#ffffff;fill-rule:evenodd;fill-opacity:1;stroke:none;" />
  <path
     id="path69"
     d="  M 221.01787,114.3251   L 221.01787,114.3251   L 221.85702,114.3251   L 221.85702,113.44598   L 221.17771,113.44598   L 221.65723,106.53293   L 216.02289,105.25422   L 215.34357,112.12731   L 221.01787,113.24618   z "
     style="fill:#ffffff;fill-rule:evenodd;fill-opacity:1;stroke:none;" />
  <path
     id="path71"
     d="  M 228.61024,108.21124   L 228.61024,108.21124   L 222.49638,106.73273   L 222.09678,113.60582   L 227.97088,114.7247   z "
     style="fill:#ffffff;fill-rule:evenodd;fill-opacity:1;stroke:none;" />
  <path
     id="path73"
     d="  M 228.61024,108.21124   L 229.28955,108.21124   L 228.81004,114.9245   L 227.97088,114.9245   L 227.97088,115.76365   L 228.61024,116.00341   C 228.6502,115.56385 228.57028,115.16426 229.00984,115.16426   C 230.64819,115.16426 232.7261,116.16325 234.48433,116.20321   C 234.52429,115.44397 235.16365,110.12932 235.12369,109.92952   C 234.96385,109.41004 230.36847,108.451 229.44939,108.41104   L 229.44939,107.57189   L 228.61024,107.37209   z "
     style="fill:#ffffff;fill-rule:evenodd;fill-opacity:1;stroke:none;" />
  <path
     id="path75"
     d="  M 241.23755,117.68173   L 241.27751,114.9245   L 240.99779,110.96847   L 235.76305,109.88956   C 235.76305,110.76867 235.40341,116.32309 235.40341,116.32309   C 235.60321,116.72269 240.47831,117.64177 241.23755,117.68173   z "
     style="fill:#ffffff;fill-rule:evenodd;fill-opacity:1;stroke:none;" />
  <path
     id="path77"
     d="  M 210.70823,117.68173   C 210.70823,118.92048 210.22871,118.2012 211.94698,118.76064   C 212.6263,118.96044 213.4255,119.28012 214.30462,119.36004   L 214.30462,114.3251   C 214.30462,112.68675 215.26365,112.9265 213.30562,112.52691   C 212.34658,112.32711 211.70723,112.00743 210.70823,112.00743   z "
     style="fill:#ffffff;fill-rule:evenodd;fill-opacity:1;stroke:none;" />
  <path
     id="path79"
     d="  M 220.61827,121.47791   L 220.61827,121.47791   L 221.01787,114.3251   L 215.14377,113.04638   L 215.18373,115.36405   L 214.94397,119.67972   z "
     style="fill:#ffffff;fill-rule:evenodd;fill-opacity:1;stroke:none;" />
  <path
     id="path81"
     d="  M 234.84397,122.31707   C 236.802,121.27811 238.48032,120.39899 241.43735,120.39899   C 241.27751,120.15924 241.23755,120.1992 241.23755,119.75964   L 241.19759,118.76064   L 235.28353,117.44197   z "
     style="fill:#ffffff;fill-rule:evenodd;fill-opacity:1;stroke:none;" />
  <path
     id="path83"
     d="  M 221.45743,121.67771   L 221.45743,121.67771   L 226.93192,123.35602   L 227.97088,115.76365   L 221.89698,114.5249   z "
     style="fill:#ffffff;fill-rule:evenodd;fill-opacity:1;stroke:none;" />
  <path
     id="path85"
     d="  M 226.93192,123.35602   L 226.93192,123.35602   L 227.77108,123.55582   L 228.61024,116.00341   L 227.97088,115.76365   z "
     style="fill:#000000;fill-rule:evenodd;fill-opacity:1;stroke:none;" />
  <path
     id="path87"
     d="  M 226.93192,124.19518   L 226.93192,124.19518   L 227.33152,124.39498   L 227.77108,124.39498   L 227.77108,123.55582   L 226.93192,123.35602   z "
     style="fill:#ffffff;fill-rule:evenodd;fill-opacity:1;stroke:none;" />
  <path
     id="path89"
     d="  M 227.77108,124.39498   L 231.72711,125.59377   L 232.16666,125.47389   C 231.84698,124.2751 228.81004,124.0753 227.77108,123.55582   z "
     style="fill:#000000;fill-rule:evenodd;fill-opacity:1;stroke:none;" />
  <path
     id="path91"
     d="  M 221.45743,121.67771   L 220.61827,121.47791   L 220.57831,122.35703   L 214.90401,120.83855   L 214.90401,121.67771   C 214.90401,122.19719 214.86405,122.19719 214.70421,122.51687   C 215.62329,124.2751 218.5004,128.83052 218.5004,130.94839   L 218.93996,130.90843   L 218.7002,130.10924   L 220.61827,130.94839   L 220.61827,122.51687   L 221.45743,122.51687   z "
     style="fill:#ffffff;fill-rule:evenodd;fill-opacity:1;stroke:none;" />
  <path
     id="path93"
     d="  M 226.93192,124.19518   L 226.93192,124.19518   L 221.45743,122.71666   L 221.41747,123.35602   L 221.45743,131.54779   L 225.45341,133.46586   z "
     style="fill:#ffffff;fill-rule:evenodd;fill-opacity:1;stroke:none;" />
  <path
     id="path95"
     d="  M 220.73815,134.74458   L 220.81807,133.46586   C 220.81807,132.18715 220.33855,131.62771 219.25964,131.38795   z "
     style="fill:#ffffff;fill-rule:evenodd;fill-opacity:1;stroke:none;" />
  <path
     id="path97"
     d="  M 227.77108,123.55582   C 228.81004,124.0753 231.84698,124.2751 232.16666,125.47389   L 231.72711,125.59377   L 227.77108,124.39498   L 226.29257,134.0253   L 228.37048,135.14417   C 229.2496,133.50582 230.20863,130.42891 231.00783,128.51084   C 231.84698,126.43293 233.36546,124.43494 234.48433,122.71666   L 234.00482,122.71666   L 234.48433,117.24217   L 228.61024,116.00341   z "
     style="fill:#ffffff;fill-rule:evenodd;fill-opacity:1;stroke:none;" />
  <path
     id="path99"
     d="  M 222.05682,137.66164   L 221.21767,136.18313   C 221.21767,137.62168 222.05682,140.53875 223.1757,140.81847   L 222.93594,140.17911   C 224.25462,139.81948 225.09377,135.98333 225.21365,134.30502   L 221.37751,132.42691   z "
     style="fill:#ffffff;fill-rule:evenodd;fill-opacity:1;stroke:none;" />
  <path
     id="path101"
     d="  M 223.33554,141.01827   L 224.89397,145.89337   L 228.13072,135.82349   L 226.09277,134.94438   C 225.21365,136.70261 225.45341,140.45883 223.33554,141.01827   z "
     style="fill:#ffffff;fill-rule:evenodd;fill-opacity:1;stroke:none;" />
  <path
     id="path103"
     d="  M 223.33554,141.01827   C 225.45341,140.45883 225.21365,136.70261 226.09277,134.94438   L 228.13072,135.82349   L 224.89397,145.89337   z  M 222.93594,140.17911   L 223.1757,140.81847   C 222.05682,140.53875 221.21767,137.62168 221.21767,136.18313   L 222.05682,137.66164   L 221.37751,132.42691   L 225.21365,134.30502   C 225.09377,135.98333 224.25462,139.81948 222.93594,140.17911   z  M 220.73815,134.74458   L 219.25964,131.38795   C 220.33855,131.62771 220.81807,132.18715 220.81807,133.46586   z  M 226.93192,124.19518   L 225.45341,133.46586   L 221.45743,131.54779   L 221.41747,123.35602   L 221.45743,122.71666   z  M 220.61827,121.47791   L 221.45743,121.67771   L 221.45743,122.51687   L 220.61827,122.51687   L 220.61827,130.94839   L 218.7002,130.10924   L 218.93996,130.90843   L 218.5004,130.94839   C 218.5004,128.83052 215.62329,124.2751 214.70421,122.51687   C 214.86405,122.19719 214.90401,122.19719 214.90401,121.67771   L 214.90401,120.83855   L 220.57831,122.35703   z  M 235.28353,117.44197   L 241.19759,118.76064   L 241.23755,119.7996   C 241.23755,120.1992 241.27751,120.15924 241.43735,120.39899   C 238.48032,120.39899 236.802,121.27811 234.84397,122.31707   z  M 220.61827,121.47791   L 214.94397,119.67972   L 215.18373,115.36405   L 215.14377,113.04638   L 221.01787,114.3251   z  M 241.23755,117.68173   C 240.47831,117.64177 235.60321,116.72269 235.40341,116.32309   C 235.40341,116.32309 235.76305,110.76867 235.76305,109.88956   L 240.99779,110.96847   L 241.27751,114.9245   z  M 210.70823,112.00743   C 211.70723,112.00743 212.34658,112.36707 213.30562,112.52691   C 215.26365,112.9265 214.30462,112.68675 214.30462,114.3251   L 214.30462,119.36004   C 213.4255,119.28012 212.6263,118.96044 211.94698,118.76064   C 210.22871,118.2012 210.70823,118.92048 210.70823,117.68173   z  M 236.44237,101.89759   L 240.35843,102.77671   L 241.03775,110.08936   L 235.92289,109.0504   z  M 221.01787,114.3251   L 221.01787,113.24618   L 215.34357,112.12731   L 216.02289,105.25422   L 221.65723,106.53293   L 221.17771,113.44598   L 221.85702,113.44598   L 221.85702,114.3251   z  M 211.38755,104.21526   L 215.14377,105.05442   L 214.46445,112.00743   L 210.78815,111.16827   z  M 229.44939,107.57189   L 230.08875,100.21928   L 235.76305,101.69779   L 235.16365,108.8506   z  M 228.61024,107.37209   L 229.44939,107.57189   L 229.44939,108.41104   C 230.36847,108.451 234.96385,109.41004 235.12369,109.92952   C 235.16365,110.12932 234.52429,115.44397 234.48433,116.20321   C 232.7261,116.16325 230.64819,115.16426 229.00984,115.16426   C 228.57028,115.16426 228.6502,115.56385 228.61024,116.00341   L 234.48433,117.24217   L 234.00482,122.71666   L 234.48433,122.71666   C 233.36546,124.43494 231.84698,126.43293 231.00783,128.51084   C 230.20863,130.42891 229.2496,133.50582 228.37048,135.14417   L 226.29257,134.0253   L 227.77108,124.39498   L 227.33152,124.39498   L 226.93192,124.19518   L 226.93192,123.35602   L 221.45743,121.67771   L 221.89698,114.5249   L 227.97088,115.76365   L 227.97088,114.9245   L 228.81004,114.9245   L 229.28955,108.21124   L 228.61024,108.21124   L 227.97088,114.7247   L 222.09678,113.60582   L 222.49638,106.73273   C 221.73715,106.53293 221.93694,106.69277 221.85702,105.89357   L 222.29658,105.89357   L 222.69618,106.09337   L 223.5753,98.540962   L 229.40943,100.05944   z  M 236.16265,94.30522   L 236.16265,93.665862   L 236.802,93.905621   L 236.802,94.505019   C 239.19959,94.704818 239.47931,94.744778 239.75903,97.062448   C 239.83895,97.821685 240.19859,101.25823 240.39839,101.69779   L 236.40241,100.81867   L 236.40241,101.69779   L 235.76305,101.69779   L 235.76305,100.61887   L 230.08875,99.26024   L 230.72811,93.266264   z  M 236.802,93.905621   L 237.28152,86.952609   C 238.72008,87.112449 238.9998,92.826705 239.31947,94.30522   z  M 224.45441,91.78775   L 230.08875,93.026505   L 229.44939,99.14036   L 223.69518,97.661846   z  M 236.16265,93.665862   C 228.29056,91.82771 231.32751,93.745782 231.32751,85.673894   L 236.60221,86.75281   z  M 225.53333,84.634939   C 233.16566,86.433131 230.08875,84.15542 230.08875,92.427107   L 224.57429,91.148392   z  M 219.53935,83.595983   L 224.57429,84.475099   L 223.69518,90.948593   L 218.5004,89.829718   z  M 236.60221,86.75281   L 236.60221,85.673894   L 231.32751,84.794778   L 231.80702,78.521083   C 232.60622,78.601003 233.48534,78.880722 234.40441,79.040561   C 235.88293,79.32028 235.56325,79.080521 236.00281,80.399196   C 236.72208,82.676906 236.802,82.557027 236.802,85.673894   L 237.6012,86.67289   z  M 226.65221,77.482127   L 231.12771,78.361244   L 230.68815,84.634939   L 225.65321,83.795782   z  M 232.20662,72.207429   L 235.44337,78.481123   L 231.9269,77.881726   z  M 228.4504,68.451204   L 228.57028,68.211445   L 231.52731,70.968674   L 231.32751,71.168473   C 232.04678,71.008634 232.08674,70.848794 232.16666,71.80783   L 231.56727,71.328312   L 231.16767,77.681927   L 226.81204,76.84277   z  M 221.45743,75.803814   C 222.73614,73.126505 222.1767,67.572087 226.09277,67.572087   C 226.852,67.572087 226.45241,67.731927 227.33152,67.811846   L 225.85301,76.642971   z  M 220.61827,75.564055   L 221.45743,75.803814   L 221.45743,76.443172   L 225.65321,77.282328   L 224.77409,83.595983   L 219.77911,82.756826   L 219.77911,83.156425   L 219.53935,83.595983   L 219.13976,83.356224   L 218.7002,83.356224   L 217.42148,89.549999   L 213.66526,88.830722   L 213.66526,89.470079   C 214.82409,89.549999 215.94297,90.109436 217.02188,90.109436   C 217.42148,90.109436 216.98192,89.709838 218.3006,89.669878   L 218.3006,90.509035   L 223.53534,91.58795   L 222.85602,97.462047   L 217.26164,96.143372   L 217.22168,97.062448   L 222.69618,98.341163   L 221.85702,105.89357   L 216.18273,104.5749   L 217.1018,96.862649   L 216.18273,96.822689   C 216.02289,98.620882 215.38353,100.93855 215.34357,102.73675   C 215.30361,104.5749 215.30361,104.3751 213.70522,103.93554   C 213.14578,103.81566 211.50743,103.69578 211.42751,103.21626   C 211.34759,102.49699 211.94698,98.261244 212.10682,97.382127   C 212.58634,94.465059 213.34558,96.58293 216.18273,96.62289   L 216.38253,95.983533   C 215.74317,95.703814 212.58634,95.224296 212.58634,94.744778   C 212.58634,92.866665 213.46546,91.188352 213.46546,89.27028   C 212.0269,89.430119 211.74719,94.824697 211.54739,96.383131   C 211.26767,98.421083 210.54839,102.61687 210.66827,104.25522   C 210.78815,106.25321 210.06887,110.00944 210.06887,112.60683   C 210.06887,115.76365 209.86907,118.401 209.86907,121.67771   L 210.50843,121.67771   L 210.50843,119.47992   L 214.06486,120.39899   L 214.06486,122.67671   L 205.87309,121.47791   L 205.67329,121.47791   C 193.60542,121.47791 184.61446,144.7745 184.61446,158.28092   C 184.61446,163.71546 186.41265,171.18795 189.4496,173.2259   C 191.24779,169.82931 192.56646,165.87329 194.36466,162.35682   C 196.16285,158.84036 197.72128,154.96425 199.35964,151.32791   C 200.15883,149.56968 201.03795,147.81144 201.87711,146.09317   C 202.8761,144.09518 203.71526,142.53674 206.31265,143.33594   C 208.5504,144.01526 210.94799,151.00823 211.34759,154.28494   C 212.58634,163.43574 211.34759,175.90321 212.78614,184.61446   C 214.38454,194.20482 218.38052,199.87911 225.65321,203.75522   C 227.97088,202.63634 231.56727,202.2767 233.68514,200.83815   C 235.92289,199.35964 237.96084,197.92108 239.43935,195.68333   C 242.39638,191.28775 244.15461,185.69337 244.15461,178.5006   L 244.27449,177.02209   L 243.55522,163.55562   L 243.55522,162.91626   C 243.55522,156.40281 244.71405,142.93634 250.26847,142.93634   L 250.46827,142.93634   C 253.94478,142.93634 255.34337,144.29498 256.78192,146.29297   C 258.1006,148.09116 259.77891,149.80944 261.17751,151.60763   C 263.97469,155.20401 267.33132,158.52068 267.33132,164.83433   L 267.33132,166.27289   L 268.17048,166.51265   C 269.04959,162.63654 272.56606,159.67952 272.56606,154.08514   L 272.56606,150.48875   C 272.56606,142.09719 269.12951,135.54377 265.45321,130.70863   C 263.49518,128.07128 261.25743,125.99337 258.66004,124.03534   C 256.94176,122.71666 252.26646,119.36004 249.62911,119.36004   L 247.751,119.24016   L 242.2765,120.1992   C 241.79698,118.16124 242.4763,115.44397 241.99678,112.72671   C 241.63715,110.84859 241.55723,106.77269 241.43735,104.85462   C 241.07771,99.859637 240.19859,94.664858 239.31947,90.109436   C 237.76104,82.277308 234.52429,70.529115 228.37048,67.572087   L 228.37048,68.251405   L 227.49136,68.011646   L 227.77108,67.172489   L 225.85301,66.97269   C 223.65522,66.613051 221.29759,68.930722 220.33855,70.049597   C 219.77911,70.728915 216.26265,74.764858 218.3006,74.964658   C 218.62028,73.486144 221.37751,69.809838 222.53634,69.050601   z "
     style="fill:#000000;fill-rule:evenodd;fill-opacity:1;stroke:none;" />
  <path
     id="path105"
     d="  M 186.53253,246.23253   L 186.53253,210.54839   L 191.24779,210.54839   L 191.24779,242.03674   L 208.83012,242.03674   L 208.83012,246.23253   z  M 210.54839,246.23253   L 224.25462,210.54839   L 229.32951,210.54839   L 243.95482,246.23253   L 238.56024,246.23253   L 234.40441,235.44337   L 219.45943,235.44337   L 215.54337,246.23253   z  M 220.81807,231.56727   L 232.9259,231.56727   L 229.20964,221.69719   C 228.09076,218.7002 227.2516,216.22269 226.69217,214.30462   C 226.21265,216.58233 225.57329,218.86004 224.77409,221.09779   z  M 247.51124,246.23253   L 247.51124,210.54839   L 260.93775,210.54839   C 263.65502,210.54839 265.85281,210.90803 267.49116,211.62731   C 269.12951,212.34658 270.40823,213.46546 271.36727,214.98393   C 272.28634,216.46245 272.76586,218.02088 272.76586,219.65923   C 272.76586,221.21767 272.3263,222.65622 271.5271,223.9749   C 270.68795,225.33353 269.44919,226.41245 267.77088,227.2516   C 269.92871,227.89096 271.56706,228.96988 272.7259,230.48835   C 273.88473,232.00682 274.48413,233.80502 274.48413,235.88293   C 274.48413,237.56124 274.12449,239.11968 273.40522,240.55823   C 272.7259,241.99678 271.84678,243.11566 270.80783,243.8749   C 269.76887,244.67409 268.4502,245.23353 266.89176,245.63313   C 265.33333,246.03273 263.41526,246.23253 261.13755,246.23253   z  M 252.26646,225.53333   L 259.97871,225.53333   C 262.05662,225.53333 263.5751,225.41345 264.45421,225.13373   C 265.69297,224.77409 266.57208,224.1747 267.17148,223.33554   C 267.81084,222.53634 268.09056,221.49739 268.09056,220.21867   C 268.09056,219.05984 267.81084,218.02088 267.2514,217.1018   C 266.69196,216.22269 265.85281,215.58333 264.81385,215.26365   C 263.7749,214.94397 261.93674,214.74417 259.37931,214.74417   L 252.26646,214.74417   z  M 252.26646,242.03674   L 261.13755,242.03674   C 262.65602,242.03674 263.73494,241.95682 264.33433,241.8769   C 265.45321,241.6771 266.33233,241.35743 267.09156,240.87791   C 267.81084,240.43835 268.41024,239.75903 268.88976,238.91988   C 269.36927,238.04076 269.56907,237.04176 269.56907,235.88293   C 269.56907,234.56425 269.24939,233.40542 268.57008,232.40642   C 267.89076,231.44739 266.93172,230.76807 265.73293,230.36847   C 264.53413,229.96887 262.7759,229.76907 260.49819,229.76907   L 252.26646,229.76907   z "
     style="fill:#000000;fill-rule:evenodd;fill-opacity:1;stroke:none;" />
</svg>
