<?xml version="1.0" encoding="UTF-8" standalone="no"?>
<svg
   xmlns:dc="http://purl.org/dc/elements/1.1/"
   xmlns:cc="http://creativecommons.org/ns#"
   xmlns:rdf="http://www.w3.org/1999/02/22-rdf-syntax-ns#"
   xmlns:svg="http://www.w3.org/2000/svg"
   xmlns="http://www.w3.org/2000/svg"
   id="svg7"
   height="112.9mm"
   width="112.9mm"
   version="1.0">
  <metadata
     id="metadata11">
    <rdf:RDF>
      <cc:Work
         rdf:about="">
        <dc:format>image/svg+xml</dc:format>
        <dc:type
           rdf:resource="http://purl.org/dc/dcmitype/StillImage" />
      </cc:Work>
    </rdf:RDF>
  </metadata>
  <defs
     id="defs3">
    <pattern
       y="0"
       x="0"
       height="6"
       width="6"
       patternUnits="userSpaceOnUse"
       id="EMFhbasepattern" />
  </defs>
  <path
     id="path5"
     d="  M 188.57925,378.87296   C 135.77444,378.87296 91.166089,360.51593 54.754192,323.91517   C 18.342294,287.23887 0.17411644,242.44166 0.17411644,189.52354   C 0.17411644,136.26547 18.304522,91.392719 54.527561,54.905278   C 90.788373,18.417837 135.47227,0.17411644 188.57925,0.17411644   C 241.38405,0.17411644 285.99241,18.49338 322.36653,55.131908   C 358.77843,91.770436 376.98438,136.56765 376.98438,189.52354   C 376.98438,242.74383 358.85397,287.61659 322.63093,324.10403   C 286.37012,360.62924 241.68623,378.87296 188.57925,378.87296   z  M 188.57925,9.503721   C 138.30514,9.503721 95.736462,26.916465 60.835432,61.779724   C 26.009944,96.642983 8.559429,139.24944 8.559429,189.52354   C 8.559429,239.79764 26.009944,282.36632 60.835432,317.22958   C 95.736462,352.09284 138.30514,369.54336 188.57925,369.54336   C 238.85335,369.54336 281.42203,352.09284 316.28529,317.22958   C 351.14855,282.36632 368.59907,239.79764 368.59907,189.52354   C 368.59907,139.24944 351.14855,96.642983 316.28529,61.779724   C 281.42203,26.916465 238.85335,9.503721 188.57925,9.503721   z  M 190.65669,334.07575   C 149.71219,334.07575 115.18888,320.06246 87.086748,291.9981   C 58.984619,263.93375 44.933555,229.48598 44.933555,188.57925   C 44.933555,147.67252 58.984619,113.22475 87.086748,85.160393   C 115.15111,57.096036 149.71219,43.082743 190.65669,43.082743   C 231.29902,43.082743 265.70901,57.171579 293.81114,85.387023   C 304.76493,96.416353 313.6035,108.3522 320.28909,121.27012   C 330.71407,141.40242 335.96434,163.8388 335.96434,188.57925   C 335.96434,229.48598 321.98882,263.93375 294,291.9981   C 266.04896,320.06246 231.60119,334.07575 190.65669,334.07575   z  M 326.63473,189.25914   C 326.63473,151.41192 313.49019,119.30599 287.2011,92.903587   C 260.91201,66.538955 228.84386,53.318868 190.92109,53.318868   C 152.69615,53.318868 120.51468,66.463412 94.376682,92.676956   C 68.276452,118.92827 55.207452,151.10974 55.207452,189.25914   C 55.207452,227.10636 68.351996,259.17451 94.603312,285.38806   C 120.8924,311.63938 152.96055,324.74615 190.92109,324.74615   C 228.84386,324.74615 260.91201,311.63938 287.2011,285.42583   C 313.49019,259.17451 326.63473,227.14413 326.63473,189.25914   z  M 190.20343,239.87319   C 175.54802,239.87319 163.08336,234.81178 152.73392,224.72674   C 142.42226,214.56616 137.28531,202.21482 137.28531,187.63496   C 137.28531,172.75291 142.34671,160.32603 152.50729,150.35431   C 162.70565,140.38259 175.24585,135.39672 190.20343,135.39672   C 204.85884,135.39672 217.24795,140.4959 227.40853,150.58094   C 237.56911,160.70375 242.66829,173.05509 242.66829,187.63496   C 242.66829,202.21482 237.56911,214.56616 227.40853,224.72674   C 217.24795,234.81178 204.85884,239.87319 190.20343,239.87319   z "
     style="fill:#ff0000;fill-rule:nonzero;fill-opacity:1;stroke:none;" />
</svg>
