<?xml version="1.0" encoding="UTF-8" standalone="no"?>
<svg
   xmlns:dc="http://purl.org/dc/elements/1.1/"
   xmlns:cc="http://creativecommons.org/ns#"
   xmlns:rdf="http://www.w3.org/1999/02/22-rdf-syntax-ns#"
   xmlns:svg="http://www.w3.org/2000/svg"
   xmlns="http://www.w3.org/2000/svg"
   id="svg7"
   height="90.339996mm"
   width="89.839996mm"
   version="1.0">
  <metadata
     id="metadata11">
    <rdf:RDF>
      <cc:Work
         rdf:about="">
        <dc:format>image/svg+xml</dc:format>
        <dc:type
           rdf:resource="http://purl.org/dc/dcmitype/StillImage" />
      </cc:Work>
    </rdf:RDF>
  </metadata>
  <defs
     id="defs3">
    <pattern
       y="0"
       x="0"
       height="6"
       width="6"
       patternUnits="userSpaceOnUse"
       id="EMFhbasepattern" />
  </defs>
  <path
     id="path5"
     d="  M 169.82931,341.01726   C 122.35703,341.01726 82.237348,324.55381 49.47028,291.58694   C 16.703213,258.62008 0.31967871,218.3006 0.31967871,170.66847   C 0.31967871,122.79658 16.663253,82.437147 49.270481,49.59016   C 81.87771,16.743172 122.07731,0.31967871 169.82931,0.31967871   C 217.34156,0.31967871 257.46124,16.823092 290.22831,49.789959   C 322.99538,82.756826 339.33895,123.0763 339.33895,170.66847   C 339.33895,218.58032 323.03534,258.93976 290.42811,291.78674   C 257.82088,324.63373 217.62128,341.01726 169.82931,341.01726   z  M 169.82931,8.7112449   C 124.59478,8.7112449 86.313252,24.415461 54.944778,55.783935   C 23.576305,87.152408 7.8720882,125.43393 7.8720882,170.66847   C 7.8720882,215.90301 23.576305,254.22449 54.944778,285.59297   C 86.313252,316.96144 124.59478,332.6257 169.82931,332.6257   C 215.06385,332.6257 253.38534,316.96144 284.75381,285.59297   C 316.12228,254.22449 331.78654,215.90301 331.78654,170.66847   C 331.78654,125.43393 316.12228,87.152408 284.75381,55.783935   C 253.38534,24.415461 215.06385,8.7112449 169.82931,8.7112449   z  M 171.70743,300.73775   C 134.86446,300.73775 103.81566,288.11044 78.521083,262.89578   C 53.266465,237.64116 40.599196,206.63233 40.599196,169.82931   C 40.599196,133.06626 53.266465,102.05743 78.521083,76.80281   C 103.81566,51.588152 134.86446,38.920883 171.70743,38.920883   C 208.31064,38.920883 239.23955,51.628112 264.49417,77.002609   C 289.78875,102.37711 302.41606,133.34598 302.41606,169.82931   C 302.41606,206.63233 289.86867,237.64116 264.69397,262.89578   C 239.55923,288.11044 208.5504,300.73775 171.70743,300.73775   z  M 294.02449,170.46867   C 294.02449,136.42289 282.19638,107.53193 258.58012,83.795782   C 234.92389,60.059638 206.07289,48.151606 171.94719,48.151606   C 137.58172,48.151606 108.61084,59.979718 85.114457,83.556023   C 61.618071,107.17229 49.829919,136.14317 49.829919,170.46867   C 49.829919,204.51445 61.658031,233.36546 85.314256,256.94176   C 108.97048,280.55803 137.82148,292.34618 171.94719,292.34618   C 206.07289,292.34618 234.92389,280.55803 258.58012,256.98172   C 282.19638,233.36546 294.02449,204.51445 294.02449,170.46867   z  M 171.30783,215.98293   C 158.12108,215.98293 146.89237,211.42751 137.62168,202.35662   C 128.351,193.24578 123.6757,182.13695 123.6757,168.99016   C 123.6757,155.60361 128.27108,144.45482 137.42189,135.46385   C 146.57269,126.51285 157.88132,121.99739 171.30783,121.99739   C 184.49458,121.99739 195.64337,126.59277 204.79417,135.66365   C 213.94498,144.7745 218.5004,155.88333 218.5004,168.99016   C 218.5004,182.13695 213.94498,193.24578 204.79417,202.35662   C 195.64337,211.42751 184.49458,215.98293 171.30783,215.98293   z "
     style="fill:#000000;fill-rule:evenodd;fill-opacity:1;stroke:none;" />
</svg>
