<?xml version="1.0" encoding="UTF-8" standalone="no"?>
<svg
   xmlns:dc="http://purl.org/dc/elements/1.1/"
   xmlns:cc="http://creativecommons.org/ns#"
   xmlns:rdf="http://www.w3.org/1999/02/22-rdf-syntax-ns#"
   xmlns:svg="http://www.w3.org/2000/svg"
   xmlns="http://www.w3.org/2000/svg"
   id="svg25"
   height="116.06mm"
   width="135.35001mm"
   version="1.0">
  <metadata
     id="metadata29">
    <rdf:RDF>
      <cc:Work
         rdf:about="">
        <dc:format>image/svg+xml</dc:format>
        <dc:type
           rdf:resource="http://purl.org/dc/dcmitype/StillImage" />
      </cc:Work>
    </rdf:RDF>
  </metadata>
  <defs
     id="defs3">
    <pattern
       y="0"
       x="0"
       height="6"
       width="6"
       patternUnits="userSpaceOnUse"
       id="EMFhbasepattern" />
  </defs>
  <path
     id="path5"
     d="  M 337.26104,384.25381   C 457.14056,384.25381 457.14056,187.6514 337.26104,187.6514   C 337.26104,54.345381 174.2249,54.345381 174.2249,187.6514   C 54.345381,187.6514 54.345381,384.25381 174.2249,384.25381   z "
     style="fill:#ffff80;fill-rule:evenodd;fill-opacity:1;stroke:none;" />
  <path
     id="path7"
     d="  M 337.26104,384.25381   C 457.14056,384.25381 457.14056,187.6514 337.26104,187.6514   C 337.26104,54.345381 174.2249,54.345381 174.2249,187.6514   C 54.345381,187.6514 54.345381,384.25381 174.2249,384.25381  "
     style="fill:none;stroke:#000000;stroke-width:9.5903616px;stroke-linecap:butt;stroke-linejoin:miter;stroke-miterlimit:10;stroke-dasharray:none;stroke-opacity:1;" />
  <path
     id="path9"
     d="  M 229.84899,369.86827   L 280.67791,369.86827  "
     style="fill:none;stroke:#000000;stroke-width:9.5903616px;stroke-linecap:butt;stroke-linejoin:miter;stroke-miterlimit:10;stroke-dasharray:none;stroke-opacity:1;" />
  <path
     id="path11"
     d="  M 255.74297,369.86827   L 255.74297,249.98875  "
     style="fill:none;stroke:#000000;stroke-width:9.5903616px;stroke-linecap:butt;stroke-linejoin:miter;stroke-miterlimit:10;stroke-dasharray:none;stroke-opacity:1;" />
  <path
     id="path13"
     d="  M 246.15261,231.76706   L 209.70923,219.2996   L 220.25863,202.99598   L 186.69237,192.44658  "
     style="fill:none;stroke:#000000;stroke-width:9.5903616px;stroke-linecap:butt;stroke-linejoin:miter;stroke-miterlimit:10;stroke-dasharray:none;stroke-opacity:1;" />
  <path
     id="path15"
     d="  M 265.33333,231.76706   L 301.7767,219.2996   L 291.22731,202.99598   L 324.79357,192.44658  "
     style="fill:none;stroke:#000000;stroke-width:9.5903616px;stroke-linecap:butt;stroke-linejoin:miter;stroke-miterlimit:10;stroke-dasharray:none;stroke-opacity:1;" />
  <path
     id="path17"
     d="  M 246.15261,245.19357   L 209.70923,258.62008   L 220.25863,273.96465   L 186.69237,285.47309  "
     style="fill:none;stroke:#000000;stroke-width:9.5903616px;stroke-linecap:butt;stroke-linejoin:miter;stroke-miterlimit:10;stroke-dasharray:none;stroke-opacity:1;" />
  <path
     id="path19"
     d="  M 265.33333,245.19357   L 301.7767,258.62008   L 291.22731,273.96465   L 324.79357,285.47309  "
     style="fill:none;stroke:#000000;stroke-width:9.5903616px;stroke-linecap:butt;stroke-linejoin:miter;stroke-miterlimit:10;stroke-dasharray:none;stroke-opacity:1;" />
  <path
     id="path21"
     d="  M 200.79819,327.23112   L 205.95301,326.79156   C 206.19277,328.82951 206.75221,330.54779 207.63132,331.86646   C 208.5504,333.18514 209.90903,334.22409 211.78715,335.06325   C 213.66526,335.86244 215.78313,336.26204 218.1008,336.26204   C 220.17871,336.26204 222.01686,335.98232 223.61526,335.34297   C 225.21365,334.74357 226.41245,333.86445 227.17168,332.8255   C 227.97088,331.74658 228.33052,330.54779 228.33052,329.26907   C 228.33052,327.99036 227.97088,326.87148 227.21164,325.91245   C 226.45241,324.91345 225.21365,324.11425 223.49538,323.47489   C 222.41646,323.03534 219.93895,322.35602 216.18273,321.43694   C 212.38654,320.55783 209.74919,319.67871 208.23072,318.87951   C 206.27269,317.84056 204.79417,316.56184 203.83514,315.04337   C 202.8761,313.5249 202.39658,311.80662 202.39658,309.92851   C 202.39658,307.8506 202.95602,305.89257 204.15482,304.09437   C 205.31365,302.29618 207.07188,300.89759 209.30964,299.97851   C 211.58735,299.01947 214.10482,298.57992 216.86205,298.57992   C 219.93895,298.57992 222.61626,299.05943 224.93393,300.05843   C 227.29156,301.01747 229.08976,302.45602 230.32851,304.37409   C 231.60723,306.29216 232.24658,308.45 232.36646,310.88755   L 227.13172,311.28714   C 226.852,308.64979 225.89297,306.69176 224.29458,305.37309   C 222.65622,304.05441 220.25863,303.3751 217.1018,303.3751   C 213.78514,303.3751 211.38755,303.97449 209.90903,305.17329   C 208.39056,306.41204 207.63132,307.8506 207.63132,309.56887   C 207.63132,311.04739 208.1508,312.24618 209.22972,313.20522   C 210.26867,314.16425 213.0259,315.16325 217.46144,316.16224   C 221.89698,317.16124 224.93393,318.04036 226.57229,318.75963   C 228.96988,319.87851 230.72811,321.2771 231.88694,322.95542   C 233.00582,324.67369 233.60522,326.63172 233.60522,328.82951   C 233.60522,331.0273 232.96586,333.10522 231.72711,335.02329   C 230.44839,336.98132 228.6502,338.45983 226.29257,339.53875   C 223.93494,340.61767 221.29759,341.1771 218.38052,341.1771   C 214.62429,341.1771 211.50743,340.61767 208.98996,339.53875   C 206.47249,338.45983 204.51445,336.82148 203.0759,334.62369   C 201.63735,332.46586 200.87811,329.98835 200.79819,327.23112   z "
     style="fill:#000000;fill-rule:evenodd;fill-opacity:1;stroke:none;" />
  <path
     id="path23"
     d="  M 306.41204,299.25923   L 311.84658,299.25923   L 311.84658,323.0753   C 311.84658,327.19116 311.40702,330.50783 310.44799,332.94538   C 309.52891,335.38293 307.81064,337.34096 305.37309,338.85943   C 302.93554,340.41787 299.73875,341.1771 295.74277,341.1771   C 291.90662,341.1771 288.7498,340.49779 286.31224,339.17911   C 283.83473,337.82048 282.0765,335.9024 281.03755,333.38493   C 279.99859,330.86747 279.47911,327.43092 279.47911,323.0753   L 279.47911,299.25923   L 284.91365,299.25923   L 284.91365,323.03534   C 284.91365,326.63172 285.23333,329.26907 285.91265,330.94738   C 286.59196,332.66566 287.71084,333.94437 289.34919,334.86345   C 290.94759,335.78253 292.94558,336.26204 295.30321,336.26204   C 299.29919,336.26204 302.13634,335.34297 303.85461,333.50481   C 305.57289,331.70662 306.41204,328.23012 306.41204,323.03534   z "
     style="fill:#000000;fill-rule:evenodd;fill-opacity:1;stroke:none;" />
</svg>
