<?xml version="1.0" encoding="UTF-8" standalone="no"?>
<svg
   xmlns:dc="http://purl.org/dc/elements/1.1/"
   xmlns:cc="http://creativecommons.org/ns#"
   xmlns:rdf="http://www.w3.org/1999/02/22-rdf-syntax-ns#"
   xmlns:svg="http://www.w3.org/2000/svg"
   xmlns="http://www.w3.org/2000/svg"
   id="svg25"
   height="125.53mm"
   width="95.75mm"
   version="1.0">
  <metadata
     id="metadata29">
    <rdf:RDF>
      <cc:Work
         rdf:about="">
        <dc:format>image/svg+xml</dc:format>
        <dc:type
           rdf:resource="http://purl.org/dc/dcmitype/StillImage" />
      </cc:Work>
    </rdf:RDF>
  </metadata>
  <defs
     id="defs3">
    <pattern
       y="0"
       x="0"
       height="6"
       width="6"
       patternUnits="userSpaceOnUse"
       id="EMFhbasepattern" />
  </defs>
  <path
     id="path5"
     d="  M 307.53092,420.05783   C 307.53092,54.665059 54.345381,54.665059 54.345381,420.05783   z "
     style="fill:#80e0ff;fill-rule:evenodd;fill-opacity:1;stroke:none;" />
  <path
     id="path7"
     d="  M 307.53092,420.05783   C 307.53092,54.665059 54.345381,54.665059 54.345381,420.05783  "
     style="fill:none;stroke:#000000;stroke-width:9.5903616px;stroke-linecap:butt;stroke-linejoin:miter;stroke-miterlimit:10;stroke-dasharray:none;stroke-opacity:1;" />
  <path
     id="path9"
     d="  M 155.04417,405.67228   L 205.87309,405.67228  "
     style="fill:none;stroke:#000000;stroke-width:9.5903616px;stroke-linecap:butt;stroke-linejoin:miter;stroke-miterlimit:10;stroke-dasharray:none;stroke-opacity:1;" />
  <path
     id="path11"
     d="  M 180.93815,405.67228   L 180.93815,285.79277  "
     style="fill:none;stroke:#000000;stroke-width:9.5903616px;stroke-linecap:butt;stroke-linejoin:miter;stroke-miterlimit:10;stroke-dasharray:none;stroke-opacity:1;" />
  <path
     id="path13"
     d="  M 171.34779,267.57108   L 134.90442,255.10361   L 145.45381,238.8   L 111.88755,228.2506  "
     style="fill:none;stroke:#000000;stroke-width:9.5903616px;stroke-linecap:butt;stroke-linejoin:miter;stroke-miterlimit:10;stroke-dasharray:none;stroke-opacity:1;" />
  <path
     id="path15"
     d="  M 190.52851,267.57108   L 226.97188,255.10361   L 216.42249,238.8   L 249.98875,228.2506  "
     style="fill:none;stroke:#000000;stroke-width:9.5903616px;stroke-linecap:butt;stroke-linejoin:miter;stroke-miterlimit:10;stroke-dasharray:none;stroke-opacity:1;" />
  <path
     id="path17"
     d="  M 171.34779,280.99759   L 134.90442,294.42409   L 145.45381,309.76867   L 111.88755,321.2771  "
     style="fill:none;stroke:#000000;stroke-width:9.5903616px;stroke-linecap:butt;stroke-linejoin:miter;stroke-miterlimit:10;stroke-dasharray:none;stroke-opacity:1;" />
  <path
     id="path19"
     d="  M 190.52851,280.99759   L 226.97188,294.42409   L 216.42249,309.76867   L 249.98875,321.2771  "
     style="fill:none;stroke:#000000;stroke-width:9.5903616px;stroke-linecap:butt;stroke-linejoin:miter;stroke-miterlimit:10;stroke-dasharray:none;stroke-opacity:1;" />
  <path
     id="path21"
     d="  M 125.99337,363.03514   L 131.14819,362.59558   C 131.38795,364.63353 131.94739,366.3518 132.8265,367.67048   C 133.74558,368.98915 135.10421,370.02811 136.98233,370.86726   C 138.86044,371.66646 140.97831,372.06606 143.29598,372.06606   C 145.37389,372.06606 147.21205,371.78634 148.81044,371.14698   C 150.40883,370.54759 151.60763,369.66847 152.36687,368.62951   C 153.16606,367.5506 153.5257,366.3518 153.5257,365.07309   C 153.5257,363.79437 153.16606,362.6755 152.40683,361.71646   C 151.64759,360.71746 150.40883,359.91827 148.69056,359.27891   C 147.61164,358.83935 145.13413,358.16003 141.37791,357.24096   C 137.58172,356.36184 134.94438,355.48273 133.4259,354.68353   C 131.46787,353.64457 129.98936,352.36586 129.03032,350.84738   C 128.07128,349.32891 127.59177,347.61064 127.59177,345.73253   C 127.59177,343.65461 128.1512,341.69658 129.35,339.89839   C 130.50883,338.1002 132.26707,336.7016 134.50482,335.78253   C 136.78253,334.82349 139.3,334.38393 142.05723,334.38393   C 145.13413,334.38393 147.81144,334.86345 150.12911,335.86244   C 152.48674,336.82148 154.28494,338.26004 155.52369,340.17811   C 156.80241,342.09618 157.44176,344.25401 157.56164,346.69156   L 152.32691,347.09116   C 152.04719,344.45381 151.08815,342.49578 149.48976,341.1771   C 147.8514,339.85843 145.45381,339.17911 142.29699,339.17911   C 138.98032,339.17911 136.58273,339.77851 135.10421,340.9773   C 133.58574,342.21606 132.8265,343.65461 132.8265,345.37289   C 132.8265,346.8514 133.34598,348.0502 134.4249,349.00923   C 135.46385,349.96827 138.22108,350.96726 142.65662,351.96626   C 147.09217,352.96526 150.12911,353.84437 151.76747,354.56365   C 154.16506,355.68252 155.92329,357.08112 157.08213,358.75943   C 158.201,360.47771 158.8004,362.43574 158.8004,364.63353   C 158.8004,366.83132 158.16104,368.90923 156.92229,370.8273   C 155.64357,372.78534 153.84538,374.26385 151.48775,375.34277   C 149.13012,376.42168 146.49277,376.98112 143.5757,376.98112   C 139.81948,376.98112 136.70261,376.42168 134.18514,375.34277   C 131.66767,374.26385 129.70964,372.6255 128.27108,370.42771   C 126.83253,368.26987 126.07329,365.79236 125.99337,363.03514   z "
     style="fill:#000000;fill-rule:evenodd;fill-opacity:1;stroke:none;" />
  <path
     id="path23"
     d="  M 231.60723,335.06325   L 237.04176,335.06325   L 237.04176,358.87931   C 237.04176,362.99518 236.60221,366.31184 235.64317,368.74939   C 234.72409,371.18694 233.00582,373.14497 230.56827,374.66345   C 228.13072,376.22188 224.93393,376.98112 220.93795,376.98112   C 217.1018,376.98112 213.94498,376.3018 211.50743,374.98313   C 209.02992,373.62449 207.27168,371.70642 206.23273,369.18895   C 205.19377,366.67148 204.67429,363.23493 204.67429,358.87931   L 204.67429,335.06325   L 210.10883,335.06325   L 210.10883,358.83935   C 210.10883,362.43574 210.42851,365.07309 211.10783,366.7514   C 211.78715,368.46967 212.90602,369.74839 214.54437,370.66746   C 216.14277,371.58654 218.14076,372.06606 220.49839,372.06606   C 224.49437,372.06606 227.33152,371.14698 229.0498,369.30883   C 230.76807,367.51064 231.60723,364.03413 231.60723,358.83935   z "
     style="fill:#000000;fill-rule:evenodd;fill-opacity:1;stroke:none;" />
</svg>
