<?xml version="1.0" encoding="UTF-8" standalone="no"?>
<svg
   xmlns:dc="http://purl.org/dc/elements/1.1/"
   xmlns:cc="http://creativecommons.org/ns#"
   xmlns:rdf="http://www.w3.org/1999/02/22-rdf-syntax-ns#"
   xmlns:svg="http://www.w3.org/2000/svg"
   xmlns="http://www.w3.org/2000/svg"
   id="svg25"
   height="101.85mm"
   width="95.75mm"
   version="1.0">
  <metadata
     id="metadata29">
    <rdf:RDF>
      <cc:Work
         rdf:about="">
        <dc:format>image/svg+xml</dc:format>
        <dc:type
           rdf:resource="http://purl.org/dc/dcmitype/StillImage" />
      </cc:Work>
    </rdf:RDF>
  </metadata>
  <defs
     id="defs3">
    <pattern
       y="0"
       x="0"
       height="6"
       width="6"
       patternUnits="userSpaceOnUse"
       id="EMFhbasepattern" />
  </defs>
  <path
     id="path5"
     d="  M 54.345381,54.345381   L 54.345381,330.54779   L 307.53092,330.54779   L 307.53092,54.345381   L 54.345381,54.345381   z "
     style="fill:#aaffaa;fill-rule:evenodd;fill-opacity:1;stroke:none;" />
  <path
     id="path7"
     d="  M 54.345381,330.54779   L 54.345381,54.345381   L 307.53092,54.345381   L 307.53092,330.54779  "
     style="fill:none;stroke:#000000;stroke-width:9.5903616px;stroke-linecap:butt;stroke-linejoin:miter;stroke-miterlimit:10;stroke-dasharray:none;stroke-opacity:1;" />
  <path
     id="path9"
     d="  M 155.04417,316.16224   L 205.87309,316.16224  "
     style="fill:none;stroke:#000000;stroke-width:9.5903616px;stroke-linecap:butt;stroke-linejoin:miter;stroke-miterlimit:10;stroke-dasharray:none;stroke-opacity:1;" />
  <path
     id="path11"
     d="  M 180.93815,316.16224   L 180.93815,196.28273  "
     style="fill:none;stroke:#000000;stroke-width:9.5903616px;stroke-linecap:butt;stroke-linejoin:miter;stroke-miterlimit:10;stroke-dasharray:none;stroke-opacity:1;" />
  <path
     id="path13"
     d="  M 171.34779,178.06104   L 134.90442,165.59357   L 145.45381,149.28996   L 111.88755,138.74056  "
     style="fill:none;stroke:#000000;stroke-width:9.5903616px;stroke-linecap:butt;stroke-linejoin:miter;stroke-miterlimit:10;stroke-dasharray:none;stroke-opacity:1;" />
  <path
     id="path15"
     d="  M 190.52851,178.06104   L 226.97188,165.59357   L 216.42249,149.28996   L 249.98875,138.74056  "
     style="fill:none;stroke:#000000;stroke-width:9.5903616px;stroke-linecap:butt;stroke-linejoin:miter;stroke-miterlimit:10;stroke-dasharray:none;stroke-opacity:1;" />
  <path
     id="path17"
     d="  M 171.34779,191.48755   L 134.90442,204.91405   L 145.45381,220.25863   L 111.88755,231.76706  "
     style="fill:none;stroke:#000000;stroke-width:9.5903616px;stroke-linecap:butt;stroke-linejoin:miter;stroke-miterlimit:10;stroke-dasharray:none;stroke-opacity:1;" />
  <path
     id="path19"
     d="  M 190.52851,191.48755   L 226.97188,204.91405   L 216.42249,220.25863   L 249.98875,231.76706  "
     style="fill:none;stroke:#000000;stroke-width:9.5903616px;stroke-linecap:butt;stroke-linejoin:miter;stroke-miterlimit:10;stroke-dasharray:none;stroke-opacity:1;" />
  <path
     id="path21"
     d="  M 125.99337,273.5251   L 131.14819,273.08554   C 131.38795,275.12349 131.94739,276.84176 132.8265,278.16044   C 133.74558,279.47911 135.10421,280.51807 136.98233,281.35722   C 138.86044,282.15642 140.97831,282.55602 143.29598,282.55602   C 145.37389,282.55602 147.21205,282.2763 148.81044,281.63694   C 150.40883,281.03755 151.60763,280.15843 152.36687,279.11947   C 153.16606,278.04056 153.5257,276.84176 153.5257,275.56305   C 153.5257,274.28433 153.16606,273.16546 152.40683,272.20642   C 151.64759,271.20743 150.40883,270.40823 148.69056,269.76887   C 147.61164,269.32931 145.13413,268.65 141.37791,267.73092   C 137.58172,266.8518 134.94438,265.97269 133.4259,265.17349   C 131.46787,264.13453 129.98936,262.85582 129.03032,261.33735   C 128.07128,259.81887 127.59177,258.1006 127.59177,256.22249   C 127.59177,254.14457 128.1512,252.18654 129.35,250.38835   C 130.50883,248.59016 132.26707,247.19156 134.50482,246.27249   C 136.78253,245.31345 139.3,244.87389 142.05723,244.87389   C 145.13413,244.87389 147.81144,245.35341 150.12911,246.35241   C 152.48674,247.31144 154.28494,248.75 155.52369,250.66807   C 156.80241,252.58614 157.44176,254.74397 157.56164,257.18152   L 152.32691,257.58112   C 152.04719,254.94377 151.08815,252.98574 149.48976,251.66706   C 147.8514,250.34839 145.45381,249.66907 142.29699,249.66907   C 138.98032,249.66907 136.58273,250.26847 135.10421,251.46727   C 133.58574,252.70602 132.8265,254.14457 132.8265,255.86285   C 132.8265,257.34136 133.34598,258.54016 134.4249,259.49919   C 135.46385,260.45823 138.22108,261.45723 142.65662,262.45622   C 147.09217,263.45522 150.12911,264.33433 151.76747,265.05361   C 154.16506,266.17249 155.92329,267.57108 157.08213,269.24939   C 158.201,270.96767 158.8004,272.9257 158.8004,275.12349   C 158.8004,277.32128 158.16104,279.39919 156.92229,281.31727   C 155.64357,283.2753 153.84538,284.75381 151.48775,285.83273   C 149.13012,286.91164 146.49277,287.47108 143.5757,287.47108   C 139.81948,287.47108 136.70261,286.91164 134.18514,285.83273   C 131.66767,284.75381 129.70964,283.11546 128.27108,280.91767   C 126.83253,278.75984 126.07329,276.28233 125.99337,273.5251   z "
     style="fill:#000000;fill-rule:evenodd;fill-opacity:1;stroke:none;" />
  <path
     id="path23"
     d="  M 231.60723,245.55321   L 237.04176,245.55321   L 237.04176,269.36927   C 237.04176,273.48514 236.60221,276.8018 235.64317,279.23935   C 234.72409,281.6769 233.00582,283.63494 230.56827,285.15341   C 228.13072,286.71184 224.93393,287.47108 220.93795,287.47108   C 217.1018,287.47108 213.94498,286.79176 211.50743,285.47309   C 209.02992,284.11445 207.27168,282.19638 206.23273,279.67891   C 205.19377,277.16144 204.67429,273.7249 204.67429,269.36927   L 204.67429,245.55321   L 210.10883,245.55321   L 210.10883,269.32931   C 210.10883,272.9257 210.42851,275.56305 211.10783,277.24136   C 211.78715,278.95963 212.90602,280.23835 214.54437,281.15743   C 216.14277,282.0765 218.14076,282.55602 220.49839,282.55602   C 224.49437,282.55602 227.33152,281.63694 229.0498,279.79879   C 230.76807,278.0006 231.60723,274.52409 231.60723,269.32931   z "
     style="fill:#000000;fill-rule:evenodd;fill-opacity:1;stroke:none;" />
</svg>
