<?xml version="1.0" encoding="UTF-8" standalone="no"?>
<svg
   xmlns:dc="http://purl.org/dc/elements/1.1/"
   xmlns:cc="http://creativecommons.org/ns#"
   xmlns:rdf="http://www.w3.org/1999/02/22-rdf-syntax-ns#"
   xmlns:svg="http://www.w3.org/2000/svg"
   xmlns="http://www.w3.org/2000/svg"
   id="svg13"
   height="95.75mm"
   width="95.75mm"
   version="1.0">
  <metadata
     id="metadata17">
    <rdf:RDF>
      <cc:Work
         rdf:about="">
        <dc:format>image/svg+xml</dc:format>
        <dc:type
           rdf:resource="http://purl.org/dc/dcmitype/StillImage" />
      </cc:Work>
    </rdf:RDF>
  </metadata>
  <defs
     id="defs3">
    <pattern
       y="0"
       x="0"
       height="6"
       width="6"
       patternUnits="userSpaceOnUse"
       id="EMFhbasepattern" />
  </defs>
  <path
     id="path5"
     d="  M 132.98634,15.983936   L 132.98634,54.345381   L 228.88996,54.345381   L 228.88996,15.983936   L 132.98634,15.983936   z "
     style="fill:#000000;fill-rule:evenodd;fill-opacity:1;stroke:none;" />
  <path
     id="path7"
     d="  M 54.345381,54.345381   L 54.345381,307.53092   L 307.53092,307.53092   L 307.53092,54.345381   L 54.345381,54.345381   z "
     style="fill:#aaffaa;fill-rule:evenodd;fill-opacity:1;stroke:none;" />
  <path
     id="path9"
     d="  M 54.345381,54.345381   L 307.53092,54.345381   L 307.53092,307.53092   L 54.345381,307.53092   z "
     style="fill:none;stroke:#000000;stroke-width:9.5903616px;stroke-linecap:butt;stroke-linejoin:miter;stroke-miterlimit:10;stroke-dasharray:none;stroke-opacity:1;" />
  <path
     id="path11"
     d="  M 91.62791,205.87309   L 116.68273,140.65863   L 125.99337,140.65863   L 152.68654,205.87309   L 142.85642,205.87309   L 135.22409,186.13293   L 107.97148,186.13293   L 100.77871,205.87309   z  M 110.44899,179.1   L 132.54679,179.1   L 125.75361,161.03815   C 123.6757,155.56365 122.11727,151.04819 121.11827,147.53172   C 120.27911,151.72751 119.12028,155.84337 117.60181,159.99919   z  M 176.14297,205.87309   L 176.14297,148.37088   L 154.68454,148.37088   L 154.68454,140.65863   L 206.35261,140.65863   L 206.35261,148.37088   L 184.77429,148.37088   L 184.77429,205.87309   z  M 261.73694,183.01606   L 270.36827,185.21385   C 268.57008,192.28674 265.33333,197.72128 260.61807,201.43755   C 255.90281,205.15381 250.18855,206.99196 243.39538,206.99196   C 236.36245,206.99196 230.64819,205.59337 226.21265,202.71626   C 221.81707,199.83915 218.46044,195.72329 216.18273,190.28875   C 213.86506,184.85421 212.70622,179.02008 212.70622,172.78634   C 212.70622,165.99317 214.0249,160.07911 216.62229,155.04417   C 219.21968,149.96927 222.89598,146.13313 227.69116,143.49578   C 232.48634,140.89839 237.76104,139.57972 243.51526,139.57972   C 250.02871,139.57972 255.50321,141.21807 259.97871,144.53474   C 264.41425,147.8514 267.53112,152.5267 269.24939,158.56064   L 260.77791,160.55863   C 259.25943,155.80341 257.06164,152.36687 254.18453,150.20903   C 251.30743,148.0512 247.71104,146.93233 243.31546,146.93233   C 238.32048,146.93233 234.1247,148.17108 230.76807,150.56867   C 227.41144,152.96626 225.05381,156.16305 223.65522,160.23895   C 222.29658,164.2749 221.61727,168.47068 221.61727,172.74638   C 221.61727,178.3008 222.41646,183.13594 224.05482,187.29176   C 225.65321,191.40763 228.17068,194.5245 231.60723,196.56245   C 235.00381,198.6004 238.68012,199.63935 242.6761,199.63935   C 247.51124,199.63935 251.58714,198.24076 254.94377,195.44357   C 258.3004,192.64638 260.57811,188.53052 261.73694,183.01606   z "
     style="fill:#000000;fill-rule:evenodd;fill-opacity:1;stroke:none;" />
</svg>
