<?xml version="1.0" encoding="UTF-8" standalone="no"?>
<svg
   xmlns:dc="http://purl.org/dc/elements/1.1/"
   xmlns:cc="http://creativecommons.org/ns#"
   xmlns:rdf="http://www.w3.org/1999/02/22-rdf-syntax-ns#"
   xmlns:svg="http://www.w3.org/2000/svg"
   xmlns="http://www.w3.org/2000/svg"
   id="svg17"
   height="107.94mm"
   width="95.75mm"
   version="1.0">
  <metadata
     id="metadata21">
    <rdf:RDF>
      <cc:Work
         rdf:about="">
        <dc:format>image/svg+xml</dc:format>
        <dc:type
           rdf:resource="http://purl.org/dc/dcmitype/StillImage" />
      </cc:Work>
    </rdf:RDF>
  </metadata>
  <defs
     id="defs3">
    <pattern
       y="0"
       x="0"
       height="6"
       width="6"
       patternUnits="userSpaceOnUse"
       id="EMFhbasepattern" />
  </defs>
  <path
     id="path5"
     d="  M 54.345381,353.56465   L 54.345381,171.34779   L 180.93815,54.345381   L 307.53092,171.34779   L 307.53092,353.56465   z "
     style="fill:#ff8080;fill-rule:evenodd;fill-opacity:1;stroke:none;" />
  <path
     id="path7"
     d="  M 54.345381,353.56465   L 54.345381,171.34779   L 180.93815,54.345381   L 307.53092,171.34779   L 307.53092,353.56465  "
     style="fill:none;stroke:#000000;stroke-width:9.5903616px;stroke-linecap:butt;stroke-linejoin:miter;stroke-miterlimit:10;stroke-dasharray:none;stroke-opacity:1;" />
  <path
     id="path9"
     d="  M 128.19116,201.07791   C 128.19116,259.29939 159.91927,280.47811 212.86606,275.16345  "
     style="fill:none;stroke:#000000;stroke-width:10.589357px;stroke-linecap:butt;stroke-linejoin:miter;stroke-miterlimit:10;stroke-dasharray:none;stroke-opacity:1;" />
  <path
     id="path11"
     d="  M 133.46586,238.12068   L 133.46586,238.12068   L 191.68735,195.76325   L 191.68735,238.12068   L 249.94879,195.76325  "
     style="fill:none;stroke:#000000;stroke-width:10.589357px;stroke-linecap:butt;stroke-linejoin:miter;stroke-miterlimit:10;stroke-dasharray:none;stroke-opacity:1;" />
  <path
     id="path13"
     d="  M 79.719878,253.18554   L 79.719878,211.98694   L 87.951605,211.98694   L 97.701806,241.15763   C 98.580922,243.8749 99.26024,245.91285 99.659838,247.27148   C 100.13936,245.75301 100.85863,243.55522 101.85763,240.63815   L 111.68775,211.98694   L 119.04036,211.98694   L 119.04036,253.18554   L 113.80562,253.18554   L 113.80562,218.7002   L 101.81767,253.18554   L 96.902609,253.18554   L 84.994577,218.14076   L 84.994577,253.18554   z "
     style="fill:#000000;fill-rule:evenodd;fill-opacity:1;stroke:none;" />
  <path
     id="path15"
     d="  M 267.01164,237.04176   L 267.01164,232.20662   L 284.47409,232.16666   L 284.47409,247.47128   C 281.79678,249.58915 278.99959,251.18755 276.16245,252.26646   C 273.3253,253.34538 270.40823,253.90482 267.41124,253.90482   C 263.33534,253.90482 259.69899,253.0257 256.38233,251.30743   C 253.06566,249.54919 250.58815,247.07168 248.86988,243.79498   C 247.19156,240.51827 246.35241,236.84196 246.35241,232.80602   C 246.35241,228.77008 247.19156,225.05381 248.86988,221.57731   C 250.54819,218.1008 252.94578,215.50341 256.10261,213.8251   C 259.25943,212.14678 262.89578,211.30763 266.97168,211.30763   C 269.96867,211.30763 272.64598,211.78715 275.04357,212.74618   C 277.48112,213.70522 279.35923,215.06385 280.71787,216.78213   C 282.0765,218.5004 283.11546,220.73815 283.83473,223.53534   L 278.91967,224.85401   C 278.32028,222.7761 277.52108,221.13775 276.602,219.93895   C 275.68293,218.74016 274.40421,217.78112 272.68594,217.06184   C 270.96767,216.34257 269.08955,215.94297 267.01164,215.94297   C 264.53413,215.94297 262.3763,216.34257 260.53815,217.1018   C 258.73996,217.86104 257.26144,218.86004 256.14257,220.09879   C 255.02369,221.33755 254.18453,222.69618 253.54518,224.1747   C 252.50622,226.73213 251.98674,229.48935 251.98674,232.44638   C 251.98674,236.12269 252.6261,239.19959 253.86486,241.6771   C 255.14357,244.15461 256.98172,245.99277 259.37931,247.19156   C 261.81686,248.39036 264.37429,248.98976 267.09156,248.98976   C 269.44919,248.98976 271.76686,248.51024 274.00461,247.63112   C 276.24237,246.71204 277.96064,245.75301 279.11947,244.71405   L 279.11947,237.04176   z "
     style="fill:#000000;fill-rule:evenodd;fill-opacity:1;stroke:none;" />
</svg>
