<?xml version="1.0" encoding="UTF-8" standalone="no"?>
<svg
   xmlns:dc="http://purl.org/dc/elements/1.1/"
   xmlns:cc="http://creativecommons.org/ns#"
   xmlns:rdf="http://www.w3.org/1999/02/22-rdf-syntax-ns#"
   xmlns:svg="http://www.w3.org/2000/svg"
   xmlns="http://www.w3.org/2000/svg"
   id="svg11"
   height="116.73mm"
   width="116.73mm"
   version="1.0">
  <metadata
     id="metadata15">
    <rdf:RDF>
      <cc:Work
         rdf:about="">
        <dc:format>image/svg+xml</dc:format>
        <dc:type
           rdf:resource="http://purl.org/dc/dcmitype/StillImage" />
      </cc:Work>
    </rdf:RDF>
  </metadata>
  <defs
     id="defs3">
    <pattern
       y="0"
       x="0"
       height="6"
       width="6"
       patternUnits="userSpaceOnUse"
       id="EMFhbasepattern" />
  </defs>
  <path
     id="path5"
     d="  M 220.57831,386.49156   L 220.57831,386.49156   L 386.49156,220.57831   L 220.57831,54.665059   L 54.665059,220.57831   L 220.57831,386.49156   z "
     style="fill:#ff8080;fill-rule:evenodd;fill-opacity:1;stroke:none;" />
  <path
     id="path7"
     d="  M 220.57831,386.49156   L 220.57831,386.49156   L 386.49156,220.57831   L 220.57831,54.665059   L 54.665059,220.57831   L 220.57831,386.49156  "
     style="fill:none;stroke:#000000;stroke-width:9.5903616px;stroke-linecap:butt;stroke-linejoin:miter;stroke-miterlimit:10;stroke-dasharray:none;stroke-opacity:1;" />
  <path
     id="path9"
     d="  M 272.28634,305.53293   L 272.28634,312.76566   L 169.7494,312.76566   L 169.7494,305.53293   C 169.7494,294.42409 175.86325,285.43313 188.01104,278.6   C 197.88112,273.00562 208.87008,270.24839 221.05783,270.24839   C 233.44538,270.24839 244.71405,273.28534 254.82389,279.35923   C 261.41727,283.39518 265.73293,286.83172 267.77088,289.58895   C 270.52811,293.38514 272.04658,298.69979 272.28634,305.53293   z  M 265.09357,305.53293   C 265.09357,296.42208 259.77891,289.22931 249.14959,283.91465   C 240.79799,279.59899 231.40743,277.44116 221.05783,277.44116   C 210.90803,277.44116 201.67731,279.59899 193.3257,283.91465   C 182.93614,289.22931 177.74136,296.42208 177.74136,305.53293   z  M 184.5745,145.29397   L 193.68534,145.29397   L 193.68534,245.91285   L 184.5745,245.91285   z  M 215.34357,177.58152   L 215.34357,166.91225   L 193.68534,166.91225   L 193.68534,177.58152   z  M 215.34357,200.35863   L 215.34357,189.72931   L 193.68534,189.72931   L 193.68534,200.35863   z  M 215.34357,223.13574   L 215.34357,212.50642   L 193.68534,212.50642   L 193.68534,223.13574   z  M 225.61325,114.1253   L 225.61325,269.84879   L 215.34357,269.84879   L 215.34357,114.1253   C 218.38052,113.88554 221.77711,113.88554 225.61325,114.1253   z  M 244.59417,177.94116   L 244.59417,166.55261   L 225.61325,166.95221   L 225.61325,177.94116   z  M 244.59417,200.71827   L 244.59417,189.32972   L 225.61325,189.72931   L 225.61325,200.71827   z  M 244.59417,223.49538   L 244.59417,212.14678   L 225.61325,212.50642   L 225.61325,223.49538   z  M 244.59417,144.89438   L 254.46425,144.89438   L 254.46425,245.55321   L 244.59417,245.55321   z "
     style="fill:#000000;fill-rule:evenodd;fill-opacity:1;stroke:none;" />
</svg>
