<?xml version="1.0" encoding="UTF-8" standalone="no"?>
<svg
   xmlns:dc="http://purl.org/dc/elements/1.1/"
   xmlns:cc="http://creativecommons.org/ns#"
   xmlns:rdf="http://www.w3.org/1999/02/22-rdf-syntax-ns#"
   xmlns:svg="http://www.w3.org/2000/svg"
   xmlns="http://www.w3.org/2000/svg"
   id="svg25"
   height="107.94mm"
   width="95.75mm"
   version="1.0">
  <metadata
     id="metadata29">
    <rdf:RDF>
      <cc:Work
         rdf:about="">
        <dc:format>image/svg+xml</dc:format>
        <dc:type
           rdf:resource="http://purl.org/dc/dcmitype/StillImage" />
      </cc:Work>
    </rdf:RDF>
  </metadata>
  <defs
     id="defs3">
    <pattern
       y="0"
       x="0"
       height="6"
       width="6"
       patternUnits="userSpaceOnUse"
       id="EMFhbasepattern" />
  </defs>
  <path
     id="path5"
     d="  M 54.345381,353.56465   L 54.345381,171.34779   L 180.93815,54.345381   L 307.53092,171.34779   L 307.53092,353.56465   z "
     style="fill:#ff8080;fill-rule:evenodd;fill-opacity:1;stroke:none;" />
  <path
     id="path7"
     d="  M 54.345381,353.56465   L 54.345381,171.34779   L 180.93815,54.345381   L 307.53092,171.34779   L 307.53092,353.56465  "
     style="fill:none;stroke:#000000;stroke-width:9.5903616px;stroke-linecap:butt;stroke-linejoin:miter;stroke-miterlimit:10;stroke-dasharray:none;stroke-opacity:1;" />
  <path
     id="path9"
     d="  M 155.04417,339.17911   L 205.87309,339.17911  "
     style="fill:none;stroke:#000000;stroke-width:9.5903616px;stroke-linecap:butt;stroke-linejoin:miter;stroke-miterlimit:10;stroke-dasharray:none;stroke-opacity:1;" />
  <path
     id="path11"
     d="  M 180.93815,339.17911   L 180.93815,219.2996  "
     style="fill:none;stroke:#000000;stroke-width:9.5903616px;stroke-linecap:butt;stroke-linejoin:miter;stroke-miterlimit:10;stroke-dasharray:none;stroke-opacity:1;" />
  <path
     id="path13"
     d="  M 171.34779,201.07791   L 134.90442,188.61044   L 145.45381,172.30682   L 111.88755,161.75743  "
     style="fill:none;stroke:#000000;stroke-width:9.5903616px;stroke-linecap:butt;stroke-linejoin:miter;stroke-miterlimit:10;stroke-dasharray:none;stroke-opacity:1;" />
  <path
     id="path15"
     d="  M 190.52851,201.07791   L 226.97188,188.61044   L 216.42249,172.30682   L 249.98875,161.75743  "
     style="fill:none;stroke:#000000;stroke-width:9.5903616px;stroke-linecap:butt;stroke-linejoin:miter;stroke-miterlimit:10;stroke-dasharray:none;stroke-opacity:1;" />
  <path
     id="path17"
     d="  M 171.34779,214.50441   L 134.90442,227.93092   L 145.45381,243.2755   L 111.88755,254.78393  "
     style="fill:none;stroke:#000000;stroke-width:9.5903616px;stroke-linecap:butt;stroke-linejoin:miter;stroke-miterlimit:10;stroke-dasharray:none;stroke-opacity:1;" />
  <path
     id="path19"
     d="  M 190.52851,214.50441   L 226.97188,227.93092   L 216.42249,243.2755   L 249.98875,254.78393  "
     style="fill:none;stroke:#000000;stroke-width:9.5903616px;stroke-linecap:butt;stroke-linejoin:miter;stroke-miterlimit:10;stroke-dasharray:none;stroke-opacity:1;" />
  <path
     id="path21"
     d="  M 125.99337,296.54196   L 131.14819,296.10241   C 131.38795,298.14036 131.94739,299.85863 132.8265,301.1773   C 133.74558,302.49598 135.10421,303.53494 136.98233,304.37409   C 138.86044,305.17329 140.97831,305.57289 143.29598,305.57289   C 145.37389,305.57289 147.21205,305.29317 148.81044,304.65381   C 150.40883,304.05441 151.60763,303.1753 152.36687,302.13634   C 153.16606,301.05743 153.5257,299.85863 153.5257,298.57992   C 153.5257,297.3012 153.16606,296.18233 152.40683,295.22329   C 151.64759,294.22429 150.40883,293.4251 148.69056,292.78574   C 147.61164,292.34618 145.13413,291.66686 141.37791,290.74779   C 137.58172,289.86867 134.94438,288.98955 133.4259,288.19036   C 131.46787,287.1514 129.98936,285.87269 129.03032,284.35421   C 128.07128,282.83574 127.59177,281.11747 127.59177,279.23935   C 127.59177,277.16144 128.1512,275.20341 129.35,273.40522   C 130.50883,271.60702 132.26707,270.20843 134.50482,269.28935   C 136.78253,268.33032 139.3,267.89076 142.05723,267.89076   C 145.13413,267.89076 147.81144,268.37028 150.12911,269.36927   C 152.48674,270.32831 154.28494,271.76686 155.52369,273.68494   C 156.80241,275.60301 157.44176,277.76084 157.56164,280.19839   L 152.32691,280.59799   C 152.04719,277.96064 151.08815,276.00261 149.48976,274.68393   C 147.8514,273.36526 145.45381,272.68594 142.29699,272.68594   C 138.98032,272.68594 136.58273,273.28534 135.10421,274.48413   C 133.58574,275.72289 132.8265,277.16144 132.8265,278.87971   C 132.8265,280.35823 133.34598,281.55702 134.4249,282.51606   C 135.46385,283.4751 138.22108,284.47409 142.65662,285.47309   C 147.09217,286.47208 150.12911,287.3512 151.76747,288.07048   C 154.16506,289.18935 155.92329,290.58795 157.08213,292.26626   C 158.201,293.98453 158.8004,295.94257 158.8004,298.14036   C 158.8004,300.33815 158.16104,302.41606 156.92229,304.33413   C 155.64357,306.29216 153.84538,307.77068 151.48775,308.84959   C 149.13012,309.92851 146.49277,310.48795 143.5757,310.48795   C 139.81948,310.48795 136.70261,309.92851 134.18514,308.84959   C 131.66767,307.77068 129.70964,306.13232 128.27108,303.93453   C 126.83253,301.7767 126.07329,299.29919 125.99337,296.54196   z "
     style="fill:#000000;fill-rule:evenodd;fill-opacity:1;stroke:none;" />
  <path
     id="path23"
     d="  M 231.60723,268.57008   L 237.04176,268.57008   L 237.04176,292.38614   C 237.04176,296.502 236.60221,299.81867 235.64317,302.25622   C 234.72409,304.69377 233.00582,306.6518 230.56827,308.17028   C 228.13072,309.72871 224.93393,310.48795 220.93795,310.48795   C 217.1018,310.48795 213.94498,309.80863 211.50743,308.48996   C 209.02992,307.13132 207.27168,305.21325 206.23273,302.69578   C 205.19377,300.17831 204.67429,296.74176 204.67429,292.38614   L 204.67429,268.57008   L 210.10883,268.57008   L 210.10883,292.34618   C 210.10883,295.94257 210.42851,298.57992 211.10783,300.25823   C 211.78715,301.9765 212.90602,303.25522 214.54437,304.17429   C 216.14277,305.09337 218.14076,305.57289 220.49839,305.57289   C 224.49437,305.57289 227.33152,304.65381 229.0498,302.81566   C 230.76807,301.01747 231.60723,297.54096 231.60723,292.34618   z "
     style="fill:#000000;fill-rule:evenodd;fill-opacity:1;stroke:none;" />
</svg>
