<?xml version="1.0" encoding="UTF-8" standalone="no"?>
<svg
   xmlns:dc="http://purl.org/dc/elements/1.1/"
   xmlns:cc="http://creativecommons.org/ns#"
   xmlns:rdf="http://www.w3.org/1999/02/22-rdf-syntax-ns#"
   xmlns:svg="http://www.w3.org/2000/svg"
   xmlns="http://www.w3.org/2000/svg"
   id="svg17"
   height="116.06mm"
   width="135.35001mm"
   version="1.0">
  <metadata
     id="metadata21">
    <rdf:RDF>
      <cc:Work
         rdf:about="">
        <dc:format>image/svg+xml</dc:format>
        <dc:type
           rdf:resource="http://purl.org/dc/dcmitype/StillImage" />
      </cc:Work>
    </rdf:RDF>
  </metadata>
  <defs
     id="defs3">
    <pattern
       y="0"
       x="0"
       height="6"
       width="6"
       patternUnits="userSpaceOnUse"
       id="EMFhbasepattern" />
  </defs>
  <path
     id="path5"
     d="  M 337.26104,384.25381   C 457.14056,384.25381 457.14056,187.6514 337.26104,187.6514   C 337.26104,54.345381 174.2249,54.345381 174.2249,187.6514   C 54.345381,187.6514 54.345381,384.25381 174.2249,384.25381   z "
     style="fill:#ffff80;fill-rule:evenodd;fill-opacity:1;stroke:none;" />
  <path
     id="path7"
     d="  M 337.26104,384.25381   C 457.14056,384.25381 457.14056,187.6514 337.26104,187.6514   C 337.26104,54.345381 174.2249,54.345381 174.2249,187.6514   C 54.345381,187.6514 54.345381,384.25381 174.2249,384.25381  "
     style="fill:none;stroke:#000000;stroke-width:9.5903616px;stroke-linecap:butt;stroke-linejoin:miter;stroke-miterlimit:10;stroke-dasharray:none;stroke-opacity:1;" />
  <path
     id="path9"
     d="  M 202.99598,231.76706   C 202.99598,289.98855 234.72409,311.16726 287.67088,305.85261  "
     style="fill:none;stroke:#000000;stroke-width:10.589357px;stroke-linecap:butt;stroke-linejoin:miter;stroke-miterlimit:10;stroke-dasharray:none;stroke-opacity:1;" />
  <path
     id="path11"
     d="  M 208.27068,268.80984   L 208.27068,268.80984   L 266.49216,226.45241   L 266.49216,268.80984   L 324.75361,226.45241  "
     style="fill:none;stroke:#000000;stroke-width:10.589357px;stroke-linecap:butt;stroke-linejoin:miter;stroke-miterlimit:10;stroke-dasharray:none;stroke-opacity:1;" />
  <path
     id="path13"
     d="  M 154.5247,283.87469   L 154.5247,242.6761   L 162.75642,242.6761   L 172.50662,271.84678   C 173.38574,274.56405 174.06506,276.602 174.46466,277.96064   C 174.94417,276.44216 175.66345,274.24437 176.66245,271.32731   L 186.49257,242.6761   L 193.84518,242.6761   L 193.84518,283.87469   L 188.61044,283.87469   L 188.61044,249.38935   L 176.62249,283.87469   L 171.70743,283.87469   L 159.7994,248.82992   L 159.7994,283.87469   z "
     style="fill:#000000;fill-rule:evenodd;fill-opacity:1;stroke:none;" />
  <path
     id="path15"
     d="  M 341.81646,267.73092   L 341.81646,262.89578   L 359.27891,262.85582   L 359.27891,278.16044   C 356.6016,280.27831 353.80441,281.8767 350.96726,282.95562   C 348.13012,284.03453 345.21305,284.59397 342.21606,284.59397   C 338.14016,284.59397 334.50381,283.71486 331.18714,281.99658   C 327.87048,280.23835 325.39297,277.76084 323.67469,274.48413   C 321.99638,271.20743 321.15722,267.53112 321.15722,263.49518   C 321.15722,259.45923 321.99638,255.74297 323.67469,252.26646   C 325.35301,248.78996 327.7506,246.19257 330.90742,244.51425   C 334.06425,242.83594 337.7006,241.99678 341.7765,241.99678   C 344.77349,241.99678 347.4508,242.4763 349.84839,243.43534   C 352.28594,244.39437 354.16405,245.75301 355.52269,247.47128   C 356.88132,249.18955 357.92028,251.42731 358.63955,254.22449   L 353.72449,255.54317   C 353.1251,253.46526 352.3259,251.8269 351.40682,250.62811   C 350.48775,249.42931 349.20903,248.47028 347.49076,247.751   C 345.77248,247.03172 343.89437,246.63212 341.81646,246.63212   C 339.33895,246.63212 337.18112,247.03172 335.34297,247.79096   C 333.54477,248.5502 332.06626,249.54919 330.94738,250.78795   C 329.82851,252.0267 328.98935,253.38534 328.35,254.86385   C 327.31104,257.42128 326.79156,260.17851 326.79156,263.13554   C 326.79156,266.81184 327.43092,269.88875 328.66967,272.36626   C 329.94839,274.84377 331.78654,276.68192 334.18413,277.88072   C 336.62168,279.07951 339.17911,279.67891 341.89638,279.67891   C 344.25401,279.67891 346.57168,279.19939 348.80943,278.32028   C 351.04718,277.4012 352.76546,276.44216 353.92429,275.40321   L 353.92429,267.73092   z "
     style="fill:#000000;fill-rule:evenodd;fill-opacity:1;stroke:none;" />
</svg>
