<?xml version="1.0" encoding="UTF-8" standalone="no"?>
<svg
   xmlns:dc="http://purl.org/dc/elements/1.1/"
   xmlns:cc="http://creativecommons.org/ns#"
   xmlns:rdf="http://www.w3.org/1999/02/22-rdf-syntax-ns#"
   xmlns:svg="http://www.w3.org/2000/svg"
   xmlns="http://www.w3.org/2000/svg"
   id="svg23"
   height="130.27mm"
   width="130.27mm"
   version="1.0">
  <metadata
     id="metadata27">
    <rdf:RDF>
      <cc:Work
         rdf:about="">
        <dc:format>image/svg+xml</dc:format>
        <dc:type
           rdf:resource="http://purl.org/dc/dcmitype/StillImage" />
      </cc:Work>
    </rdf:RDF>
  </metadata>
  <defs
     id="defs3">
    <pattern
       y="0"
       x="0"
       height="6"
       width="6"
       patternUnits="userSpaceOnUse"
       id="EMFhbasepattern" />
  </defs>
  <path
     id="path5"
     d="  M 164.63454,327.67068   C 164.63454,437.95983 327.67068,437.95983 327.67068,327.67068   C 437.95983,327.67068 437.95983,164.63454 327.67068,164.63454   C 327.67068,54.345381 164.63454,54.345381 164.63454,164.63454   C 54.345381,164.63454 54.345381,327.67068 164.63454,327.67068   z "
     style="fill:#ffff80;fill-rule:evenodd;fill-opacity:1;stroke:none;" />
  <path
     id="path7"
     d="  M 164.63454,327.67068   C 164.63454,437.95983 327.67068,437.95983 327.67068,327.67068   C 437.95983,327.67068 437.95983,164.63454 327.67068,164.63454   C 327.67068,54.345381 164.63454,54.345381 164.63454,164.63454   C 54.345381,164.63454 54.345381,327.67068 164.63454,327.67068  "
     style="fill:none;stroke:#000000;stroke-width:9.5903616px;stroke-linecap:butt;stroke-linejoin:miter;stroke-miterlimit:10;stroke-dasharray:none;stroke-opacity:1;" />
  <path
     id="path9"
     d="  M 188.6504,250.82791   L 188.6504,250.82791   L 204.67429,250.82791   L 204.67429,210.78815   L 188.6504,210.78815   z "
     style="fill:#ffffff;fill-rule:evenodd;fill-opacity:1;stroke:none;" />
  <path
     id="path11"
     d="  M 292.78574,250.82791   L 292.78574,250.82791   L 300.81767,250.82791   L 300.81767,238.83996   L 292.78574,238.83996   z "
     style="fill:#ffffff;fill-rule:evenodd;fill-opacity:1;stroke:none;" />
  <path
     id="path13"
     d="  M 164.59458,266.8518   L 164.59458,266.8518   L 316.84156,266.8518   L 316.84156,258.85984   L 164.59458,258.85984   z "
     style="fill:#ffffff;fill-rule:evenodd;fill-opacity:1;stroke:none;" />
  <path
     id="path15"
     d="  M 292.78574,286.91164   L 292.78574,286.91164   L 300.81767,286.91164   L 300.81767,274.88373   L 292.78574,274.88373   z "
     style="fill:#ffffff;fill-rule:evenodd;fill-opacity:1;stroke:none;" />
  <path
     id="path17"
     d="  M 188.6504,314.92349   L 188.6504,314.92349   L 204.67429,314.92349   L 204.67429,274.88373   L 188.6504,274.88373   z "
     style="fill:#ffffff;fill-rule:evenodd;fill-opacity:1;stroke:none;" />
  <path
     id="path19"
     d="  M 188.6504,274.88373   L 204.67429,274.88373   L 204.67429,314.92349   L 188.6504,314.92349   L 188.6504,274.88373  z    M 300.81767,286.91164   L 292.78574,286.91164   L 292.78574,274.88373   L 300.81767,274.88373   L 300.81767,286.91164  z    M 164.59458,266.8518   L 164.59458,258.85984   L 316.84156,258.85984   L 316.84156,266.8518   L 164.59458,266.8518  z    M 300.81767,250.82791   L 292.78574,250.82791   L 292.78574,238.83996   L 300.81767,238.83996   L 300.81767,250.82791  z    M 188.6504,210.78815   L 204.67429,210.78815   L 204.67429,250.82791   L 188.6504,250.82791   L 188.6504,210.78815  z    M 180.61847,250.82791   L 156.60261,250.82791   L 156.60261,274.88373   L 180.61847,274.88373   L 180.61847,322.95542   L 212.66626,322.95542   L 212.66626,274.88373   L 284.79377,274.88373   L 284.79377,294.90361   L 308.80963,294.90361   L 308.80963,274.88373   L 324.83353,274.88373   L 324.83353,250.82791   L 308.80963,250.82791   L 308.80963,230.80803   L 284.79377,230.80803   L 284.79377,250.82791   L 212.66626,250.82791   L 212.66626,202.75622   L 180.61847,202.75622   L 180.61847,250.82791  z   "
     style="fill:#000000;fill-rule:evenodd;fill-opacity:1;stroke:none;" />
  <path
     id="path21"
     d="  M 250.06867,166.87229   L 250.06867,211.50743   L 255.98273,211.50743   L 255.98273,166.87229   L 250.06867,166.87229   z "
     style="fill:#000000;fill-rule:evenodd;fill-opacity:1;stroke:none;" />
</svg>
