<?xml version="1.0" encoding="UTF-8" standalone="no"?>
<svg
   xmlns:dc="http://purl.org/dc/elements/1.1/"
   xmlns:cc="http://creativecommons.org/ns#"
   xmlns:rdf="http://www.w3.org/1999/02/22-rdf-syntax-ns#"
   xmlns:svg="http://www.w3.org/2000/svg"
   xmlns="http://www.w3.org/2000/svg"
   id="svg11"
   height="116.73mm"
   width="116.73mm"
   version="1.0">
  <metadata
     id="metadata15">
    <rdf:RDF>
      <cc:Work
         rdf:about="">
        <dc:format>image/svg+xml</dc:format>
        <dc:type
           rdf:resource="http://purl.org/dc/dcmitype/StillImage" />
      </cc:Work>
    </rdf:RDF>
  </metadata>
  <defs
     id="defs3">
    <pattern
       y="0"
       x="0"
       height="6"
       width="6"
       patternUnits="userSpaceOnUse"
       id="EMFhbasepattern" />
  </defs>
  <path
     id="path5"
     d="  M 220.57831,386.49156   L 220.57831,386.49156   L 386.49156,220.57831   L 220.57831,54.665059   L 54.665059,220.57831   L 220.57831,386.49156   z "
     style="fill:#ff8080;fill-rule:evenodd;fill-opacity:1;stroke:none;" />
  <path
     id="path7"
     d="  M 220.57831,386.49156   L 220.57831,386.49156   L 386.49156,220.57831   L 220.57831,54.665059   L 54.665059,220.57831   L 220.57831,386.49156  "
     style="fill:none;stroke:#000000;stroke-width:9.5903616px;stroke-linecap:butt;stroke-linejoin:miter;stroke-miterlimit:10;stroke-dasharray:none;stroke-opacity:1;" />
  <path
     id="path9"
     d="  M 272.28634,305.53293   L 272.28634,312.76566   L 169.7494,312.76566   L 169.7494,305.53293   C 169.7494,294.42409 175.86325,285.43313 188.01104,278.6   C 197.88112,273.00562 208.87008,270.24839 221.05783,270.24839   C 233.44538,270.24839 244.71405,273.28534 254.82389,279.35923   C 261.41727,283.39518 265.73293,286.83172 267.77088,289.58895   C 270.52811,293.38514 272.04658,298.69979 272.28634,305.53293   z  M 265.09357,305.53293   C 265.09357,296.42208 259.77891,289.22931 249.14959,283.91465   C 240.79799,279.59899 231.40743,277.44116 221.05783,277.44116   C 210.90803,277.44116 201.67731,279.59899 193.3257,283.91465   C 182.93614,289.22931 177.74136,296.42208 177.74136,305.53293   z  M 185.33373,161.99719   L 194.44458,161.99719   L 194.44458,232.24658   L 185.33373,232.24658   z  M 215.34357,190.48855   L 215.34357,179.85923   L 194.08494,179.85923   L 194.08494,190.48855   z  M 215.34357,213.26566   L 215.34357,202.63634   L 194.08494,202.63634   L 194.08494,213.26566   z  M 225.61325,114.1253   L 225.61325,269.84879   L 215.34357,269.84879   L 215.34357,114.1253   C 218.38052,113.88554 221.77711,113.88554 225.61325,114.1253   z  M 245.71305,190.84819   L 245.71305,179.45964   L 225.61325,179.85923   L 225.61325,190.84819   z  M 245.71305,213.6253   L 245.71305,202.23674   L 225.61325,202.63634   L 225.61325,213.6253   z  M 245.71305,161.59759   L 255.58313,161.59759   L 255.58313,231.84698   L 245.71305,231.84698   z "
     style="fill:#000000;fill-rule:evenodd;fill-opacity:1;stroke:none;" />
</svg>
