<?xml version="1.0" encoding="UTF-8" standalone="no"?>
<svg
   xmlns:dc="http://purl.org/dc/elements/1.1/"
   xmlns:cc="http://creativecommons.org/ns#"
   xmlns:rdf="http://www.w3.org/1999/02/22-rdf-syntax-ns#"
   xmlns:svg="http://www.w3.org/2000/svg"
   xmlns="http://www.w3.org/2000/svg"
   id="svg17"
   height="107.94mm"
   width="95.75mm"
   version="1.0">
  <metadata
     id="metadata21">
    <rdf:RDF>
      <cc:Work
         rdf:about="">
        <dc:format>image/svg+xml</dc:format>
        <dc:type
           rdf:resource="http://purl.org/dc/dcmitype/StillImage" />
      </cc:Work>
    </rdf:RDF>
  </metadata>
  <defs
     id="defs3">
    <pattern
       y="0"
       x="0"
       height="6"
       width="6"
       patternUnits="userSpaceOnUse"
       id="EMFhbasepattern" />
  </defs>
  <path
     id="path5"
     d="  M 54.345381,353.56465   L 54.345381,171.34779   L 180.93815,54.345381   L 307.53092,171.34779   L 307.53092,353.56465   z "
     style="fill:#ff8080;fill-rule:evenodd;fill-opacity:1;stroke:none;" />
  <path
     id="path7"
     d="  M 54.345381,353.56465   L 54.345381,171.34779   L 180.93815,54.345381   L 307.53092,171.34779   L 307.53092,353.56465  "
     style="fill:none;stroke:#000000;stroke-width:9.5903616px;stroke-linecap:butt;stroke-linejoin:miter;stroke-miterlimit:10;stroke-dasharray:none;stroke-opacity:1;" />
  <path
     id="path9"
     d="  M 130.46887,201.07791   C 130.46887,259.29939 162.23695,280.47811 215.18373,275.16345  "
     style="fill:none;stroke:#000000;stroke-width:10.589357px;stroke-linecap:butt;stroke-linejoin:miter;stroke-miterlimit:10;stroke-dasharray:none;stroke-opacity:1;" />
  <path
     id="path11"
     d="  M 135.78353,238.12068   L 135.78353,238.12068   L 194.00502,195.76325   L 194.00502,238.12068   L 252.2265,195.76325  "
     style="fill:none;stroke:#000000;stroke-width:10.589357px;stroke-linecap:butt;stroke-linejoin:miter;stroke-miterlimit:10;stroke-dasharray:none;stroke-opacity:1;" />
  <path
     id="path13"
     d="  M 79.719878,253.18554   L 79.719878,211.98694   L 87.951605,211.98694   L 97.701806,241.15763   C 98.580922,243.8749 99.26024,245.91285 99.659838,247.27148   C 100.13936,245.75301 100.85863,243.55522 101.85763,240.63815   L 111.68775,211.98694   L 119.04036,211.98694   L 119.04036,253.18554   L 113.80562,253.18554   L 113.80562,218.7002   L 101.81767,253.18554   L 96.902609,253.18554   L 84.994577,218.14076   L 84.994577,253.18554   z "
     style="fill:#000000;fill-rule:evenodd;fill-opacity:1;stroke:none;" />
  <path
     id="path15"
     d="  M 243.19558,253.18554   L 259.01967,211.98694   L 264.89377,211.98694   L 281.75682,253.18554   L 275.56305,253.18554   L 270.72791,240.71807   L 253.50522,240.71807   L 248.98976,253.18554   z  M 255.10361,236.28253   L 269.04959,236.28253   L 264.77389,224.85401   C 263.45522,221.41747 262.45622,218.54036 261.85682,216.34257   C 261.29739,218.97992 260.57811,221.57731 259.61907,224.1747   z "
     style="fill:#000000;fill-rule:evenodd;fill-opacity:1;stroke:none;" />
</svg>
