<?xml version="1.0" encoding="UTF-8" standalone="no"?>
<svg
   xmlns:dc="http://purl.org/dc/elements/1.1/"
   xmlns:cc="http://creativecommons.org/ns#"
   xmlns:rdf="http://www.w3.org/1999/02/22-rdf-syntax-ns#"
   xmlns:svg="http://www.w3.org/2000/svg"
   xmlns="http://www.w3.org/2000/svg"
   id="svg17"
   height="101.85mm"
   width="95.75mm"
   version="1.0">
  <metadata
     id="metadata21">
    <rdf:RDF>
      <cc:Work
         rdf:about="">
        <dc:format>image/svg+xml</dc:format>
        <dc:type
           rdf:resource="http://purl.org/dc/dcmitype/StillImage" />
      </cc:Work>
    </rdf:RDF>
  </metadata>
  <defs
     id="defs3">
    <pattern
       y="0"
       x="0"
       height="6"
       width="6"
       patternUnits="userSpaceOnUse"
       id="EMFhbasepattern" />
  </defs>
  <path
     id="path5"
     d="  M 54.345381,54.345381   L 54.345381,330.54779   L 307.53092,330.54779   L 307.53092,54.345381   L 54.345381,54.345381   z "
     style="fill:#aaffaa;fill-rule:evenodd;fill-opacity:1;stroke:none;" />
  <path
     id="path7"
     d="  M 54.345381,330.54779   L 54.345381,54.345381   L 307.53092,54.345381   L 307.53092,330.54779  "
     style="fill:none;stroke:#000000;stroke-width:9.5903616px;stroke-linecap:butt;stroke-linejoin:miter;stroke-miterlimit:10;stroke-dasharray:none;stroke-opacity:1;" />
  <path
     id="path9"
     d="  M 180.93815,105.1743   L 180.93815,105.1743   L 195.32369,129.1502   L 195.32369,268.21044   L 209.70923,282.59598   L 209.70923,311.36706   L 180.93815,282.59598   L 152.16707,311.36706   L 152.16707,282.59598   L 166.55261,268.21044   L 166.55261,129.1502   L 180.93815,105.1743   z "
     style="fill:#ffff80;fill-rule:evenodd;fill-opacity:1;stroke:none;" />
  <path
     id="path11"
     d="  M 180.93815,105.1743   L 180.93815,105.1743   L 195.32369,129.1502   L 195.32369,268.21044   L 209.70923,282.59598   L 209.70923,311.36706   L 180.93815,282.59598   L 152.16707,311.36706   L 152.16707,282.59598   L 166.55261,268.21044   L 166.55261,129.1502   L 180.93815,105.1743  "
     style="fill:none;stroke:#000000;stroke-width:9.5903616px;stroke-linecap:butt;stroke-linejoin:miter;stroke-miterlimit:10;stroke-dasharray:none;stroke-opacity:1;" />
  <path
     id="path13"
     d="  M 84.914657,238.0008   L 108.6508,176.22289   L 117.48193,176.22289   L 142.73654,238.0008   L 133.4259,238.0008   L 126.23313,219.2996   L 100.37912,219.2996   L 93.625902,238.0008   z  M 102.73675,212.6263   L 123.71566,212.6263   L 117.24217,195.52349   C 115.28413,190.32871 113.80562,186.05301 112.88654,182.69638   C 112.08735,186.65241 110.96847,190.60843 109.52992,194.48454   z "
     style="fill:#000000;fill-rule:evenodd;fill-opacity:1;stroke:none;" />
  <path
     id="path15"
     d="  M 235.24357,238.0008   L 235.24357,176.22289   L 243.39538,176.22289   L 243.39538,230.68815   L 273.84478,230.68815   L 273.84478,238.0008   z "
     style="fill:#000000;fill-rule:evenodd;fill-opacity:1;stroke:none;" />
</svg>
