<?xml version="1.0" encoding="UTF-8" standalone="no"?>
<svg
   xmlns:dc="http://purl.org/dc/elements/1.1/"
   xmlns:cc="http://creativecommons.org/ns#"
   xmlns:rdf="http://www.w3.org/1999/02/22-rdf-syntax-ns#"
   xmlns:svg="http://www.w3.org/2000/svg"
   xmlns="http://www.w3.org/2000/svg"
   id="svg17"
   height="116.06mm"
   width="135.35001mm"
   version="1.0">
  <metadata
     id="metadata21">
    <rdf:RDF>
      <cc:Work
         rdf:about="">
        <dc:format>image/svg+xml</dc:format>
        <dc:type
           rdf:resource="http://purl.org/dc/dcmitype/StillImage" />
      </cc:Work>
    </rdf:RDF>
  </metadata>
  <defs
     id="defs3">
    <pattern
       y="0"
       x="0"
       height="6"
       width="6"
       patternUnits="userSpaceOnUse"
       id="EMFhbasepattern" />
  </defs>
  <path
     id="path5"
     d="  M 337.26104,384.25381   C 457.14056,384.25381 457.14056,187.6514 337.26104,187.6514   C 337.26104,54.345381 174.2249,54.345381 174.2249,187.6514   C 54.345381,187.6514 54.345381,384.25381 174.2249,384.25381   z "
     style="fill:#ffff80;fill-rule:evenodd;fill-opacity:1;stroke:none;" />
  <path
     id="path7"
     d="  M 337.26104,384.25381   C 457.14056,384.25381 457.14056,187.6514 337.26104,187.6514   C 337.26104,54.345381 174.2249,54.345381 174.2249,187.6514   C 54.345381,187.6514 54.345381,384.25381 174.2249,384.25381  "
     style="fill:none;stroke:#000000;stroke-width:9.5903616px;stroke-linecap:butt;stroke-linejoin:miter;stroke-miterlimit:10;stroke-dasharray:none;stroke-opacity:1;" />
  <path
     id="path9"
     d="  M 205.27369,231.76706   C 205.27369,289.98855 237.04176,311.16726 289.98855,305.85261  "
     style="fill:none;stroke:#000000;stroke-width:10.589357px;stroke-linecap:butt;stroke-linejoin:miter;stroke-miterlimit:10;stroke-dasharray:none;stroke-opacity:1;" />
  <path
     id="path11"
     d="  M 210.58835,268.80984   L 210.58835,268.80984   L 268.80984,226.45241   L 268.80984,268.80984   L 327.03132,226.45241  "
     style="fill:none;stroke:#000000;stroke-width:10.589357px;stroke-linecap:butt;stroke-linejoin:miter;stroke-miterlimit:10;stroke-dasharray:none;stroke-opacity:1;" />
  <path
     id="path13"
     d="  M 154.5247,283.87469   L 154.5247,242.6761   L 162.75642,242.6761   L 172.50662,271.84678   C 173.38574,274.56405 174.06506,276.602 174.46466,277.96064   C 174.94417,276.44216 175.66345,274.24437 176.66245,271.32731   L 186.49257,242.6761   L 193.84518,242.6761   L 193.84518,283.87469   L 188.61044,283.87469   L 188.61044,249.38935   L 176.62249,283.87469   L 171.70743,283.87469   L 159.7994,248.82992   L 159.7994,283.87469   z "
     style="fill:#000000;fill-rule:evenodd;fill-opacity:1;stroke:none;" />
  <path
     id="path15"
     d="  M 327.351,283.87469   L 327.351,242.6761   L 341.53674,242.6761   C 344.73353,242.6761 347.17108,242.8759 348.84939,243.2755   C 351.20702,243.83494 353.24497,244.79397 354.88333,246.23253   C 357.08112,248.07068 358.67951,250.42831 359.75843,253.26546   C 360.83734,256.14257 361.39678,259.37931 361.39678,263.05562   C 361.39678,266.17249 361.03714,268.96967 360.27791,271.36727   C 359.55863,273.80482 358.63955,275.80281 357.48072,277.36124   C 356.32188,278.95963 355.08313,280.19839 353.72449,281.11747   C 352.36586,282.03654 350.7275,282.71586 348.80943,283.19538   C 346.89136,283.63494 344.69357,283.87469 342.21606,283.87469   z  M 332.78554,278.99959   L 341.5767,278.99959   C 344.29397,278.99959 346.41184,278.75984 347.97028,278.24036   C 349.52871,277.76084 350.76746,277.04156 351.64658,276.12249   C 352.96526,274.84377 353.96425,273.08554 354.68353,270.92771   C 355.40281,268.72992 355.76244,266.09257 355.76244,262.9757   C 355.76244,258.66004 355.04317,255.34337 353.64457,253.0257   C 352.24598,250.74799 350.52771,249.18955 348.48975,248.39036   C 347.01124,247.83092 344.69357,247.5512 341.45682,247.5512   L 332.78554,247.5512   z "
     style="fill:#000000;fill-rule:evenodd;fill-opacity:1;stroke:none;" />
</svg>
