<?xml version="1.0" encoding="UTF-8" standalone="no"?>
<svg
   xmlns:dc="http://purl.org/dc/elements/1.1/"
   xmlns:cc="http://creativecommons.org/ns#"
   xmlns:rdf="http://www.w3.org/1999/02/22-rdf-syntax-ns#"
   xmlns:svg="http://www.w3.org/2000/svg"
   xmlns="http://www.w3.org/2000/svg"
   id="svg17"
   height="116.06mm"
   width="135.35001mm"
   version="1.0">
  <metadata
     id="metadata21">
    <rdf:RDF>
      <cc:Work
         rdf:about="">
        <dc:format>image/svg+xml</dc:format>
        <dc:type
           rdf:resource="http://purl.org/dc/dcmitype/StillImage" />
      </cc:Work>
    </rdf:RDF>
  </metadata>
  <defs
     id="defs3">
    <pattern
       y="0"
       x="0"
       height="6"
       width="6"
       patternUnits="userSpaceOnUse"
       id="EMFhbasepattern" />
  </defs>
  <path
     id="path5"
     d="  M 337.26104,384.25381   C 457.14056,384.25381 457.14056,187.6514 337.26104,187.6514   C 337.26104,54.345381 174.2249,54.345381 174.2249,187.6514   C 54.345381,187.6514 54.345381,384.25381 174.2249,384.25381   z "
     style="fill:#ffff80;fill-rule:evenodd;fill-opacity:1;stroke:none;" />
  <path
     id="path7"
     d="  M 337.26104,384.25381   C 457.14056,384.25381 457.14056,187.6514 337.26104,187.6514   C 337.26104,54.345381 174.2249,54.345381 174.2249,187.6514   C 54.345381,187.6514 54.345381,384.25381 174.2249,384.25381  "
     style="fill:none;stroke:#000000;stroke-width:9.5903616px;stroke-linecap:butt;stroke-linejoin:miter;stroke-miterlimit:10;stroke-dasharray:none;stroke-opacity:1;" />
  <path
     id="path9"
     d="  M 199.15984,231.76706   C 199.15984,289.98855 230.88795,311.16726 283.83473,305.85261  "
     style="fill:none;stroke:#000000;stroke-width:10.589357px;stroke-linecap:butt;stroke-linejoin:miter;stroke-miterlimit:10;stroke-dasharray:none;stroke-opacity:1;" />
  <path
     id="path11"
     d="  M 204.43454,268.80984   L 204.43454,268.80984   L 262.65602,226.45241   L 262.65602,268.80984   L 320.91747,226.45241  "
     style="fill:none;stroke:#000000;stroke-width:10.589357px;stroke-linecap:butt;stroke-linejoin:miter;stroke-miterlimit:10;stroke-dasharray:none;stroke-opacity:1;" />
  <path
     id="path13"
     d="  M 159.7994,283.87469   L 159.7994,242.6761   L 187.57148,242.6761   L 187.57148,247.5512   L 165.23393,247.5512   L 165.23393,260.29839   L 184.5745,260.29839   L 184.5745,265.17349   L 165.23393,265.17349   L 165.23393,283.87469   z "
     style="fill:#000000;fill-rule:evenodd;fill-opacity:1;stroke:none;" />
  <path
     id="path15"
     d="  M 347.13112,269.44919   L 352.56566,270.80783   C 351.44678,275.28333 349.36887,278.71988 346.41184,281.03755   C 343.45481,283.39518 339.81847,284.59397 335.54277,284.59397   C 331.10722,284.59397 327.47088,283.6749 324.71365,281.8767   C 321.91646,280.07851 319.79859,277.44116 318.36004,274.00461   C 316.88152,270.60803 316.16224,266.89176 316.16224,262.9757   C 316.16224,258.7 317.0014,254.94377 318.63975,251.74698   C 320.27811,248.5502 322.59578,246.11265 325.63273,244.47429   C 328.66967,242.79598 331.98634,241.99678 335.62269,241.99678   C 339.73855,241.99678 343.21506,243.03574 346.01224,245.11365   C 348.80943,247.23152 350.76746,250.18855 351.88634,253.98474   L 346.53172,255.26345   C 345.57269,252.26646 344.17409,250.06867 342.33594,248.71004   C 340.53775,247.3514 338.26004,246.63212 335.50281,246.63212   C 332.34598,246.63212 329.70863,247.39136 327.5508,248.90984   C 325.43293,250.42831 323.95441,252.46626 323.0753,255.02369   C 322.23614,257.58112 321.79658,260.21847 321.79658,262.93574   C 321.79658,266.4522 322.31606,269.48915 323.31506,272.1265   C 324.35401,274.72389 325.91245,276.68192 328.07028,277.96064   C 330.22811,279.27931 332.58574,279.91867 335.06325,279.91867   C 338.14016,279.91867 340.69759,279.03955 342.81546,277.28132   C 344.93333,275.52309 346.37188,272.88574 347.13112,269.44919   z "
     style="fill:#000000;fill-rule:evenodd;fill-opacity:1;stroke:none;" />
</svg>
