<?xml version="1.0" encoding="UTF-8" standalone="no"?>
<svg
   xmlns:dc="http://purl.org/dc/elements/1.1/"
   xmlns:cc="http://creativecommons.org/ns#"
   xmlns:rdf="http://www.w3.org/1999/02/22-rdf-syntax-ns#"
   xmlns:svg="http://www.w3.org/2000/svg"
   xmlns="http://www.w3.org/2000/svg"
   id="svg17"
   height="107.94mm"
   width="95.75mm"
   version="1.0">
  <metadata
     id="metadata21">
    <rdf:RDF>
      <cc:Work
         rdf:about="">
        <dc:format>image/svg+xml</dc:format>
        <dc:type
           rdf:resource="http://purl.org/dc/dcmitype/StillImage" />
      </cc:Work>
    </rdf:RDF>
  </metadata>
  <defs
     id="defs3">
    <pattern
       y="0"
       x="0"
       height="6"
       width="6"
       patternUnits="userSpaceOnUse"
       id="EMFhbasepattern" />
  </defs>
  <path
     id="path5"
     d="  M 54.345381,353.56465   L 54.345381,171.34779   L 180.93815,54.345381   L 307.53092,171.34779   L 307.53092,353.56465   z "
     style="fill:#ff8080;fill-rule:evenodd;fill-opacity:1;stroke:none;" />
  <path
     id="path7"
     d="  M 54.345381,353.56465   L 54.345381,171.34779   L 180.93815,54.345381   L 307.53092,171.34779   L 307.53092,353.56465  "
     style="fill:none;stroke:#000000;stroke-width:9.5903616px;stroke-linecap:butt;stroke-linejoin:miter;stroke-miterlimit:10;stroke-dasharray:none;stroke-opacity:1;" />
  <path
     id="path9"
     d="  M 180.93815,128.19116   L 180.93815,128.19116   L 195.32369,152.16707   L 195.32369,291.22731   L 209.70923,305.61285   L 209.70923,334.38393   L 180.93815,305.61285   L 152.16707,334.38393   L 152.16707,305.61285   L 166.55261,291.22731   L 166.55261,152.16707   L 180.93815,128.19116   z "
     style="fill:#ffff80;fill-rule:evenodd;fill-opacity:1;stroke:none;" />
  <path
     id="path11"
     d="  M 180.93815,128.19116   L 180.93815,128.19116   L 195.32369,152.16707   L 195.32369,291.22731   L 209.70923,305.61285   L 209.70923,334.38393   L 180.93815,305.61285   L 152.16707,334.38393   L 152.16707,305.61285   L 166.55261,291.22731   L 166.55261,152.16707   L 180.93815,128.19116  "
     style="fill:none;stroke:#000000;stroke-width:9.5903616px;stroke-linecap:butt;stroke-linejoin:miter;stroke-miterlimit:10;stroke-dasharray:none;stroke-opacity:1;" />
  <path
     id="path13"
     d="  M 84.914657,261.01767   L 108.6508,199.23976   L 117.48193,199.23976   L 142.73654,261.01767   L 133.4259,261.01767   L 126.23313,242.31646   L 100.37912,242.31646   L 93.625902,261.01767   z  M 102.73675,235.64317   L 123.71566,235.64317   L 117.24217,218.54036   C 115.28413,213.34558 113.80562,209.06988 112.88654,205.71325   C 112.08735,209.66927 110.96847,213.6253 109.52992,217.5014   z "
     style="fill:#000000;fill-rule:evenodd;fill-opacity:1;stroke:none;" />
  <path
     id="path15"
     d="  M 235.24357,261.01767   L 235.24357,199.23976   L 243.39538,199.23976   L 243.39538,253.70502   L 273.84478,253.70502   L 273.84478,261.01767   z "
     style="fill:#000000;fill-rule:evenodd;fill-opacity:1;stroke:none;" />
</svg>
