<?xml version="1.0" encoding="UTF-8" standalone="no"?>
<svg
   xmlns:dc="http://purl.org/dc/elements/1.1/"
   xmlns:cc="http://creativecommons.org/ns#"
   xmlns:rdf="http://www.w3.org/1999/02/22-rdf-syntax-ns#"
   xmlns:svg="http://www.w3.org/2000/svg"
   xmlns="http://www.w3.org/2000/svg"
   id="svg17"
   height="125.53mm"
   width="95.75mm"
   version="1.0">
  <metadata
     id="metadata21">
    <rdf:RDF>
      <cc:Work
         rdf:about="">
        <dc:format>image/svg+xml</dc:format>
        <dc:type
           rdf:resource="http://purl.org/dc/dcmitype/StillImage" />
      </cc:Work>
    </rdf:RDF>
  </metadata>
  <defs
     id="defs3">
    <pattern
       y="0"
       x="0"
       height="6"
       width="6"
       patternUnits="userSpaceOnUse"
       id="EMFhbasepattern" />
  </defs>
  <path
     id="path5"
     d="  M 307.53092,420.05783   C 307.53092,54.665059 54.345381,54.665059 54.345381,420.05783   z "
     style="fill:#80e0ff;fill-rule:evenodd;fill-opacity:1;stroke:none;" />
  <path
     id="path7"
     d="  M 307.53092,420.05783   C 307.53092,54.665059 54.345381,54.665059 54.345381,420.05783  "
     style="fill:none;stroke:#000000;stroke-width:9.5903616px;stroke-linecap:butt;stroke-linejoin:miter;stroke-miterlimit:10;stroke-dasharray:none;stroke-opacity:1;" />
  <path
     id="path9"
     d="  M 124.35502,267.57108   C 124.35502,325.79257 156.08313,346.97128 209.02992,341.65662  "
     style="fill:none;stroke:#000000;stroke-width:10.589357px;stroke-linecap:butt;stroke-linejoin:miter;stroke-miterlimit:10;stroke-dasharray:none;stroke-opacity:1;" />
  <path
     id="path11"
     d="  M 129.62972,304.61385   L 129.62972,304.61385   L 187.8512,262.25642   L 187.8512,304.61385   L 246.11265,262.25642  "
     style="fill:none;stroke:#000000;stroke-width:10.589357px;stroke-linecap:butt;stroke-linejoin:miter;stroke-miterlimit:10;stroke-dasharray:none;stroke-opacity:1;" />
  <path
     id="path13"
     d="  M 84.994577,319.67871   L 84.994577,278.48012   L 112.76667,278.48012   L 112.76667,283.35522   L 90.429115,283.35522   L 90.429115,296.10241   L 109.76968,296.10241   L 109.76968,300.97751   L 90.429115,300.97751   L 90.429115,319.67871   z "
     style="fill:#000000;fill-rule:evenodd;fill-opacity:1;stroke:none;" />
  <path
     id="path15"
     d="  M 272.3263,305.25321   L 277.76084,306.61184   C 276.64196,311.08734 274.56405,314.52389 271.60702,316.84156   C 268.65,319.19919 265.01365,320.39799 260.73795,320.39799   C 256.30241,320.39799 252.66606,319.47891 249.90883,317.68072   C 247.11164,315.88253 244.99377,313.24518 243.55522,309.80863   C 242.0767,306.41204 241.35743,302.69578 241.35743,298.77971   C 241.35743,294.50401 242.19658,290.74779 243.83494,287.551   C 245.47329,284.35421 247.79096,281.91666 250.82791,280.27831   C 253.86486,278.6 257.18152,277.8008 260.81787,277.8008   C 264.93373,277.8008 268.41024,278.83976 271.20743,280.91767   C 274.00461,283.03554 275.96265,285.99257 277.08152,289.78875   L 271.7269,291.06747   C 270.76787,288.07048 269.36927,285.87269 267.53112,284.51405   C 265.73293,283.15542 263.45522,282.43614 260.69799,282.43614   C 257.54116,282.43614 254.90381,283.19538 252.74598,284.71385   C 250.62811,286.23233 249.14959,288.27028 248.27048,290.82771   C 247.43132,293.38514 246.99176,296.02249 246.99176,298.73975   C 246.99176,302.25622 247.51124,305.29317 248.51024,307.93052   C 249.54919,310.52791 251.10763,312.48594 253.26546,313.76465   C 255.42329,315.08333 257.78092,315.72269 260.25843,315.72269   C 263.33534,315.72269 265.89277,314.84357 268.01064,313.08534   C 270.12851,311.3271 271.56706,308.68975 272.3263,305.25321   z "
     style="fill:#000000;fill-rule:evenodd;fill-opacity:1;stroke:none;" />
</svg>
