<?xml version="1.0" encoding="UTF-8" standalone="no"?>
<svg
   xmlns:dc="http://purl.org/dc/elements/1.1/"
   xmlns:cc="http://creativecommons.org/ns#"
   xmlns:rdf="http://www.w3.org/1999/02/22-rdf-syntax-ns#"
   xmlns:svg="http://www.w3.org/2000/svg"
   xmlns="http://www.w3.org/2000/svg"
   id="svg25"
   height="107.94mm"
   width="95.75mm"
   version="1.0">
  <metadata
     id="metadata29">
    <rdf:RDF>
      <cc:Work
         rdf:about="">
        <dc:format>image/svg+xml</dc:format>
        <dc:type
           rdf:resource="http://purl.org/dc/dcmitype/StillImage" />
      </cc:Work>
    </rdf:RDF>
  </metadata>
  <defs
     id="defs3">
    <pattern
       y="0"
       x="0"
       height="6"
       width="6"
       patternUnits="userSpaceOnUse"
       id="EMFhbasepattern" />
  </defs>
  <path
     id="path5"
     d="  M 54.345381,353.56465   L 54.345381,171.34779   L 180.93815,54.345381   L 307.53092,171.34779   L 307.53092,353.56465   z "
     style="fill:#ff8080;fill-rule:evenodd;fill-opacity:1;stroke:none;" />
  <path
     id="path7"
     d="  M 54.345381,353.56465   L 54.345381,171.34779   L 180.93815,54.345381   L 307.53092,171.34779   L 307.53092,353.56465  "
     style="fill:none;stroke:#000000;stroke-width:9.5903616px;stroke-linecap:butt;stroke-linejoin:miter;stroke-miterlimit:10;stroke-dasharray:none;stroke-opacity:1;" />
  <path
     id="path9"
     d="  M 155.04417,339.17911   L 205.87309,339.17911  "
     style="fill:none;stroke:#000000;stroke-width:9.5903616px;stroke-linecap:butt;stroke-linejoin:miter;stroke-miterlimit:10;stroke-dasharray:none;stroke-opacity:1;" />
  <path
     id="path11"
     d="  M 180.93815,339.17911   L 180.93815,219.2996  "
     style="fill:none;stroke:#000000;stroke-width:9.5903616px;stroke-linecap:butt;stroke-linejoin:miter;stroke-miterlimit:10;stroke-dasharray:none;stroke-opacity:1;" />
  <path
     id="path13"
     d="  M 171.34779,201.07791   L 134.90442,188.61044   L 145.45381,172.30682   L 111.88755,161.75743  "
     style="fill:none;stroke:#000000;stroke-width:9.5903616px;stroke-linecap:butt;stroke-linejoin:miter;stroke-miterlimit:10;stroke-dasharray:none;stroke-opacity:1;" />
  <path
     id="path15"
     d="  M 190.52851,201.07791   L 226.97188,188.61044   L 216.42249,172.30682   L 249.98875,161.75743  "
     style="fill:none;stroke:#000000;stroke-width:9.5903616px;stroke-linecap:butt;stroke-linejoin:miter;stroke-miterlimit:10;stroke-dasharray:none;stroke-opacity:1;" />
  <path
     id="path17"
     d="  M 171.34779,214.50441   L 134.90442,227.93092   L 145.45381,243.2755   L 111.88755,254.78393  "
     style="fill:none;stroke:#000000;stroke-width:9.5903616px;stroke-linecap:butt;stroke-linejoin:miter;stroke-miterlimit:10;stroke-dasharray:none;stroke-opacity:1;" />
  <path
     id="path19"
     d="  M 190.52851,214.50441   L 226.97188,227.93092   L 216.42249,243.2755   L 249.98875,254.78393  "
     style="fill:none;stroke:#000000;stroke-width:9.5903616px;stroke-linecap:butt;stroke-linejoin:miter;stroke-miterlimit:10;stroke-dasharray:none;stroke-opacity:1;" />
  <path
     id="path21"
     d="  M 127.87148,309.76867   L 127.87148,268.57008   L 143.3759,268.57008   C 146.13313,268.57008 148.21104,268.72992 149.6496,268.96967   C 151.68755,269.32931 153.36586,269.96867 154.7245,270.88775   C 156.12309,271.84678 157.20201,273.16546 158.04116,274.88373   C 158.88032,276.56204 159.27992,278.44016 159.27992,280.47811   C 159.27992,283.99457 158.16104,286.9516 155.96325,289.38915   C 153.7255,291.8267 149.68956,293.0255 143.85542,293.0255   L 133.30602,293.0255   L 133.30602,309.76867   z  M 133.30602,288.1504   L 143.93534,288.1504   C 147.49176,288.1504 149.96927,287.51104 151.44779,286.19237   C 152.9263,284.87369 153.68554,283.03554 153.68554,280.67791   C 153.68554,278.95963 153.24598,277.48112 152.36687,276.24237   C 151.48775,275.00361 150.36887,274.20441 148.93032,273.80482   C 148.01124,273.56506 146.33293,273.44518 143.85542,273.44518   L 133.30602,273.44518   z "
     style="fill:#000000;fill-rule:evenodd;fill-opacity:1;stroke:none;" />
  <path
     id="path23"
     d="  M 204.59437,309.76867   L 204.59437,268.57008   L 220.09879,268.57008   C 222.85602,268.57008 224.93393,268.72992 226.37249,268.96967   C 228.41044,269.32931 230.08875,269.96867 231.44739,270.88775   C 232.84598,271.84678 233.9249,273.16546 234.76405,274.88373   C 235.60321,276.56204 236.00281,278.44016 236.00281,280.47811   C 236.00281,283.99457 234.88393,286.9516 232.68614,289.38915   C 230.44839,291.8267 226.41245,293.0255 220.57831,293.0255   L 210.02891,293.0255   L 210.02891,309.76867   z  M 210.02891,288.1504   L 220.65823,288.1504   C 224.21466,288.1504 226.69217,287.51104 228.17068,286.19237   C 229.64919,284.87369 230.40843,283.03554 230.40843,280.67791   C 230.40843,278.95963 229.96887,277.48112 229.08976,276.24237   C 228.21064,275.00361 227.09176,274.20441 225.65321,273.80482   C 224.73413,273.56506 223.05582,273.44518 220.57831,273.44518   L 210.02891,273.44518   z "
     style="fill:#000000;fill-rule:evenodd;fill-opacity:1;stroke:none;" />
</svg>
