<?xml version="1.0" encoding="UTF-8" standalone="no"?>
<svg
   xmlns:dc="http://purl.org/dc/elements/1.1/"
   xmlns:cc="http://creativecommons.org/ns#"
   xmlns:rdf="http://www.w3.org/1999/02/22-rdf-syntax-ns#"
   xmlns:svg="http://www.w3.org/2000/svg"
   xmlns="http://www.w3.org/2000/svg"
   id="svg17"
   height="125.53mm"
   width="95.75mm"
   version="1.0">
  <metadata
     id="metadata21">
    <rdf:RDF>
      <cc:Work
         rdf:about="">
        <dc:format>image/svg+xml</dc:format>
        <dc:type
           rdf:resource="http://purl.org/dc/dcmitype/StillImage" />
      </cc:Work>
    </rdf:RDF>
  </metadata>
  <defs
     id="defs3">
    <pattern
       y="0"
       x="0"
       height="6"
       width="6"
       patternUnits="userSpaceOnUse"
       id="EMFhbasepattern" />
  </defs>
  <path
     id="path5"
     d="  M 307.53092,420.05783   C 307.53092,54.665059 54.345381,54.665059 54.345381,420.05783   z "
     style="fill:#80e0ff;fill-rule:evenodd;fill-opacity:1;stroke:none;" />
  <path
     id="path7"
     d="  M 307.53092,420.05783   C 307.53092,54.665059 54.345381,54.665059 54.345381,420.05783  "
     style="fill:none;stroke:#000000;stroke-width:9.5903616px;stroke-linecap:butt;stroke-linejoin:miter;stroke-miterlimit:10;stroke-dasharray:none;stroke-opacity:1;" />
  <path
     id="path9"
     d="  M 128.19116,267.57108   C 128.19116,325.79257 159.91927,346.97128 212.86606,341.65662  "
     style="fill:none;stroke:#000000;stroke-width:10.589357px;stroke-linecap:butt;stroke-linejoin:miter;stroke-miterlimit:10;stroke-dasharray:none;stroke-opacity:1;" />
  <path
     id="path11"
     d="  M 133.46586,304.61385   L 133.46586,304.61385   L 191.68735,262.25642   L 191.68735,304.61385   L 249.94879,262.25642  "
     style="fill:none;stroke:#000000;stroke-width:10.589357px;stroke-linecap:butt;stroke-linejoin:miter;stroke-miterlimit:10;stroke-dasharray:none;stroke-opacity:1;" />
  <path
     id="path13"
     d="  M 79.719878,319.67871   L 79.719878,278.48012   L 87.951605,278.48012   L 97.701806,307.6508   C 98.580922,310.36807 99.26024,312.40602 99.659838,313.76465   C 100.13936,312.24618 100.85863,310.04839 101.85763,307.13132   L 111.68775,278.48012   L 119.04036,278.48012   L 119.04036,319.67871   L 113.80562,319.67871   L 113.80562,285.19337   L 101.81767,319.67871   L 96.902609,319.67871   L 84.994577,284.63393   L 84.994577,319.67871   z "
     style="fill:#000000;fill-rule:evenodd;fill-opacity:1;stroke:none;" />
  <path
     id="path15"
     d="  M 267.01164,303.53494   L 267.01164,298.69979   L 284.47409,298.65984   L 284.47409,313.96445   C 281.79678,316.08232 278.99959,317.68072 276.16245,318.75963   C 273.3253,319.83855 270.40823,320.39799 267.41124,320.39799   C 263.33534,320.39799 259.69899,319.51887 256.38233,317.8006   C 253.06566,316.04236 250.58815,313.56485 248.86988,310.28815   C 247.19156,307.01144 246.35241,303.33514 246.35241,299.29919   C 246.35241,295.26325 247.19156,291.54698 248.86988,288.07048   C 250.54819,284.59397 252.94578,281.99658 256.10261,280.31827   C 259.25943,278.63996 262.89578,277.8008 266.97168,277.8008   C 269.96867,277.8008 272.64598,278.28032 275.04357,279.23935   C 277.48112,280.19839 279.35923,281.55702 280.71787,283.2753   C 282.0765,284.99357 283.11546,287.23132 283.83473,290.02851   L 278.91967,291.34718   C 278.32028,289.26927 277.52108,287.63092 276.602,286.43212   C 275.68293,285.23333 274.40421,284.27429 272.68594,283.55502   C 270.96767,282.83574 269.08955,282.43614 267.01164,282.43614   C 264.53413,282.43614 262.3763,282.83574 260.53815,283.59498   C 258.73996,284.35421 257.26144,285.35321 256.14257,286.59196   C 255.02369,287.83072 254.18453,289.18935 253.54518,290.66787   C 252.50622,293.2253 251.98674,295.98253 251.98674,298.93955   C 251.98674,302.61586 252.6261,305.69277 253.86486,308.17028   C 255.14357,310.64779 256.98172,312.48594 259.37931,313.68473   C 261.81686,314.88353 264.37429,315.48293 267.09156,315.48293   C 269.44919,315.48293 271.76686,315.00341 274.00461,314.12429   C 276.24237,313.20522 277.96064,312.24618 279.11947,311.20722   L 279.11947,303.53494   z "
     style="fill:#000000;fill-rule:evenodd;fill-opacity:1;stroke:none;" />
</svg>
