<?xml version="1.0" encoding="UTF-8" standalone="no"?>
<svg
   xmlns:dc="http://purl.org/dc/elements/1.1/"
   xmlns:cc="http://creativecommons.org/ns#"
   xmlns:rdf="http://www.w3.org/1999/02/22-rdf-syntax-ns#"
   xmlns:svg="http://www.w3.org/2000/svg"
   xmlns="http://www.w3.org/2000/svg"
   id="svg25"
   height="125.53mm"
   width="95.75mm"
   version="1.0">
  <metadata
     id="metadata29">
    <rdf:RDF>
      <cc:Work
         rdf:about="">
        <dc:format>image/svg+xml</dc:format>
        <dc:type
           rdf:resource="http://purl.org/dc/dcmitype/StillImage" />
      </cc:Work>
    </rdf:RDF>
  </metadata>
  <defs
     id="defs3">
    <pattern
       y="0"
       x="0"
       height="6"
       width="6"
       patternUnits="userSpaceOnUse"
       id="EMFhbasepattern" />
  </defs>
  <path
     id="path5"
     d="  M 307.53092,420.05783   C 307.53092,54.665059 54.345381,54.665059 54.345381,420.05783   z "
     style="fill:#80e0ff;fill-rule:evenodd;fill-opacity:1;stroke:none;" />
  <path
     id="path7"
     d="  M 307.53092,420.05783   C 307.53092,54.665059 54.345381,54.665059 54.345381,420.05783  "
     style="fill:none;stroke:#000000;stroke-width:9.5903616px;stroke-linecap:butt;stroke-linejoin:miter;stroke-miterlimit:10;stroke-dasharray:none;stroke-opacity:1;" />
  <path
     id="path9"
     d="  M 155.04417,405.67228   L 205.87309,405.67228  "
     style="fill:none;stroke:#000000;stroke-width:9.5903616px;stroke-linecap:butt;stroke-linejoin:miter;stroke-miterlimit:10;stroke-dasharray:none;stroke-opacity:1;" />
  <path
     id="path11"
     d="  M 180.93815,405.67228   L 180.93815,285.79277  "
     style="fill:none;stroke:#000000;stroke-width:9.5903616px;stroke-linecap:butt;stroke-linejoin:miter;stroke-miterlimit:10;stroke-dasharray:none;stroke-opacity:1;" />
  <path
     id="path13"
     d="  M 171.34779,267.57108   L 134.90442,255.10361   L 145.45381,238.8   L 111.88755,228.2506  "
     style="fill:none;stroke:#000000;stroke-width:9.5903616px;stroke-linecap:butt;stroke-linejoin:miter;stroke-miterlimit:10;stroke-dasharray:none;stroke-opacity:1;" />
  <path
     id="path15"
     d="  M 190.52851,267.57108   L 226.97188,255.10361   L 216.42249,238.8   L 249.98875,228.2506  "
     style="fill:none;stroke:#000000;stroke-width:9.5903616px;stroke-linecap:butt;stroke-linejoin:miter;stroke-miterlimit:10;stroke-dasharray:none;stroke-opacity:1;" />
  <path
     id="path17"
     d="  M 171.34779,280.99759   L 134.90442,294.42409   L 145.45381,309.76867   L 111.88755,321.2771  "
     style="fill:none;stroke:#000000;stroke-width:9.5903616px;stroke-linecap:butt;stroke-linejoin:miter;stroke-miterlimit:10;stroke-dasharray:none;stroke-opacity:1;" />
  <path
     id="path19"
     d="  M 190.52851,280.99759   L 226.97188,294.42409   L 216.42249,309.76867   L 249.98875,321.2771  "
     style="fill:none;stroke:#000000;stroke-width:9.5903616px;stroke-linecap:butt;stroke-linejoin:miter;stroke-miterlimit:10;stroke-dasharray:none;stroke-opacity:1;" />
  <path
     id="path21"
     d="  M 126.19317,356.202   C 126.19317,349.36887 128.03132,344.01425 131.70763,340.13815   C 135.38393,336.26204 140.09919,334.34397 145.93333,334.34397   C 149.72952,334.34397 153.16606,335.26305 156.20301,337.06124   C 159.23996,338.89939 161.59759,341.41686 163.19598,344.65361   C 164.79438,347.93032 165.59357,351.60662 165.59357,355.72248   C 165.59357,359.91827 164.75442,363.63453 163.0761,366.9512   C 161.35783,370.22791 159.0002,372.74538 155.88333,374.42369   C 152.80642,376.14196 149.48976,376.98112 145.89337,376.98112   C 142.01727,376.98112 138.54076,376.02208 135.50381,374.14397   C 132.42691,372.30582 130.14919,369.74839 128.5508,366.47168   C 126.99237,363.23493 126.19317,359.83835 126.19317,356.202   z  M 131.82751,356.28192   C 131.82751,361.23694 133.14618,365.15301 135.82349,368.03012   C 138.5008,370.86726 141.81747,372.30582 145.85341,372.30582   C 149.96927,372.30582 153.3259,370.86726 156.00321,367.99016   C 158.64056,365.11305 159.95923,360.99718 159.95923,355.68252   C 159.95923,352.36586 159.3998,349.40883 158.28092,346.93132   C 157.12209,344.41385 155.48373,342.49578 153.28594,341.09718   C 151.12811,339.73855 148.6506,339.01927 145.93333,339.01927   C 142.09719,339.01927 138.78052,340.37791 135.98333,343.01526   C 133.2261,345.65261 131.82751,350.08815 131.82751,356.28192   z "
     style="fill:#000000;fill-rule:evenodd;fill-opacity:1;stroke:none;" />
  <path
     id="path23"
     d="  M 204.35462,376.26184   L 204.35462,335.06325   L 209.78915,335.06325   L 209.78915,371.38674   L 230.08875,371.38674   L 230.08875,376.26184   z "
     style="fill:#000000;fill-rule:evenodd;fill-opacity:1;stroke:none;" />
</svg>
