<?xml version="1.0" encoding="UTF-8" standalone="no"?>
<svg
   xmlns:dc="http://purl.org/dc/elements/1.1/"
   xmlns:cc="http://creativecommons.org/ns#"
   xmlns:rdf="http://www.w3.org/1999/02/22-rdf-syntax-ns#"
   xmlns:svg="http://www.w3.org/2000/svg"
   xmlns="http://www.w3.org/2000/svg"
   id="svg7"
   height="52.619999mm"
   width="27.24mm"
   version="1.0">
  <metadata
     id="metadata11">
    <rdf:RDF>
      <cc:Work
         rdf:about="">
        <dc:format>image/svg+xml</dc:format>
        <dc:type
           rdf:resource="http://purl.org/dc/dcmitype/StillImage" />
      </cc:Work>
    </rdf:RDF>
  </metadata>
  <defs
     id="defs3">
    <pattern
       y="0"
       x="0"
       height="6"
       width="6"
       patternUnits="userSpaceOnUse"
       id="EMFhbasepattern" />
  </defs>
  <path
     id="path5"
     d="  M 102.53695,191.52751   L 102.53695,198.8002   L 0.31967871,198.8002   L 0.31967871,191.52751   C 0.31967871,180.29879 6.3935742,171.26787 18.501405,164.35482   C 28.331526,158.76044 39.320481,155.92329 51.428313,155.92329   C 63.815863,155.92329 75.044577,159.0002 85.114457,165.11405   C 91.66787,169.18996 95.983533,172.66646 97.981525,175.46365   C 100.77871,179.2998 102.25723,184.65442 102.53695,191.52751   z  M 95.663854,191.52751   C 95.663854,182.3767 90.349195,175.06405 79.719878,169.70944   C 71.328312,165.35381 61.97771,163.19598 51.588152,163.19598   C 41.478313,163.19598 32.24759,165.35381 23.895984,169.70944   C 13.506426,175.06405 8.3116465,182.33674 8.3116465,191.52751   z  M 15.504417,40.559236   L 24.73514,40.559236   L 24.73514,111.08835   L 15.504417,111.08835   z  M 45.833935,78.800802   L 45.833935,68.531124   L 24.73514,68.531124   L 24.73514,78.800802   z  M 55.704015,0.31967871   L 55.704015,155.88333   L 45.833935,155.88333   L 45.833935,0.7192771   C 48.751003,0.19979919 52.06767,0.079919678 55.704015,0.31967871   z  M 74.844778,78.800802   L 74.844778,68.531124   L 55.704015,68.531124   L 55.704015,78.800802   z  M 74.844778,40.559236   L 84.714858,40.559236   L 84.714858,111.08835   L 74.844778,111.08835   z "
     style="fill:#ff8080;fill-rule:evenodd;fill-opacity:1;stroke:none;" />
</svg>
