<?xml version="1.0" encoding="UTF-8" standalone="no"?>
<svg
   xmlns:dc="http://purl.org/dc/elements/1.1/"
   xmlns:cc="http://creativecommons.org/ns#"
   xmlns:rdf="http://www.w3.org/1999/02/22-rdf-syntax-ns#"
   xmlns:svg="http://www.w3.org/2000/svg"
   xmlns="http://www.w3.org/2000/svg"
   id="svg23"
   height="116.73mm"
   width="116.73mm"
   version="1.0">
  <metadata
     id="metadata27">
    <rdf:RDF>
      <cc:Work
         rdf:about="">
        <dc:format>image/svg+xml</dc:format>
        <dc:type
           rdf:resource="http://purl.org/dc/dcmitype/StillImage" />
      </cc:Work>
    </rdf:RDF>
  </metadata>
  <defs
     id="defs3">
    <pattern
       y="0"
       x="0"
       height="6"
       width="6"
       patternUnits="userSpaceOnUse"
       id="EMFhbasepattern" />
  </defs>
  <path
     id="path5"
     d="  M 220.57831,386.49156   L 220.57831,386.49156   L 386.49156,220.57831   L 220.57831,54.665059   L 54.665059,220.57831   L 220.57831,386.49156   z "
     style="fill:#ff8080;fill-rule:evenodd;fill-opacity:1;stroke:none;" />
  <path
     id="path7"
     d="  M 220.57831,386.49156   L 220.57831,386.49156   L 386.49156,220.57831   L 220.57831,54.665059   L 54.665059,220.57831   L 220.57831,386.49156  "
     style="fill:none;stroke:#000000;stroke-width:9.5903616px;stroke-linecap:butt;stroke-linejoin:miter;stroke-miterlimit:10;stroke-dasharray:none;stroke-opacity:1;" />
  <path
     id="path9"
     d="  M 163.0761,225.25361   L 163.0761,225.25361   L 179.1,225.25361   L 179.1,185.21385   L 163.0761,185.21385   z "
     style="fill:#ffffff;fill-rule:evenodd;fill-opacity:1;stroke:none;" />
  <path
     id="path11"
     d="  M 267.21144,225.25361   L 267.21144,225.25361   L 275.24337,225.25361   L 275.24337,213.26566   L 267.21144,213.26566   z "
     style="fill:#ffffff;fill-rule:evenodd;fill-opacity:1;stroke:none;" />
  <path
     id="path13"
     d="  M 139.02028,241.27751   L 139.02028,241.27751   L 291.26726,241.27751   L 291.26726,233.28554   L 139.02028,233.28554   z "
     style="fill:#ffffff;fill-rule:evenodd;fill-opacity:1;stroke:none;" />
  <path
     id="path15"
     d="  M 267.21144,261.33735   L 267.21144,261.33735   L 275.24337,261.33735   L 275.24337,249.30943   L 267.21144,249.30943   z "
     style="fill:#ffffff;fill-rule:evenodd;fill-opacity:1;stroke:none;" />
  <path
     id="path17"
     d="  M 163.0761,289.34919   L 163.0761,289.34919   L 179.1,289.34919   L 179.1,249.30943   L 163.0761,249.30943   z "
     style="fill:#ffffff;fill-rule:evenodd;fill-opacity:1;stroke:none;" />
  <path
     id="path19"
     d="  M 163.0761,249.30943   L 179.1,249.30943   L 179.1,289.34919   L 163.0761,289.34919   L 163.0761,249.30943  z    M 275.24337,261.33735   L 267.21144,261.33735   L 267.21144,249.30943   L 275.24337,249.30943   L 275.24337,261.33735  z    M 139.02028,241.27751   L 139.02028,233.28554   L 291.26726,233.28554   L 291.26726,241.27751   L 139.02028,241.27751  z    M 275.24337,225.25361   L 267.21144,225.25361   L 267.21144,213.26566   L 275.24337,213.26566   L 275.24337,225.25361  z    M 163.0761,185.21385   L 179.1,185.21385   L 179.1,225.25361   L 163.0761,225.25361   L 163.0761,185.21385  z    M 155.04417,225.25361   L 131.02831,225.25361   L 131.02831,249.30943   L 155.04417,249.30943   L 155.04417,297.38112   L 187.09197,297.38112   L 187.09197,249.30943   L 259.21947,249.30943   L 259.21947,269.32931   L 283.23534,269.32931   L 283.23534,249.30943   L 299.25923,249.30943   L 299.25923,225.25361   L 283.23534,225.25361   L 283.23534,205.23373   L 259.21947,205.23373   L 259.21947,225.25361   L 187.09197,225.25361   L 187.09197,177.18193   L 155.04417,177.18193   L 155.04417,225.25361  z   "
     style="fill:#000000;fill-rule:evenodd;fill-opacity:1;stroke:none;" />
  <path
     id="path21"
     d="  M 203.23574,185.93313   L 220.37851,141.29799   L 226.73213,141.29799   L 244.99377,185.93313   L 238.28052,185.93313   L 233.08574,172.38674   L 214.42449,172.38674   L 209.50943,185.93313   z  M 216.10281,167.59156   L 231.24759,167.59156   L 226.57229,155.24397   C 225.17369,151.48775 224.09478,148.41084 223.41546,145.97329   C 222.85602,148.8504 222.05682,151.68755 221.01787,154.5247   z "
     style="fill:#000000;fill-rule:evenodd;fill-opacity:1;stroke:none;" />
</svg>
