<?xml version="1.0" encoding="UTF-8" standalone="no"?>
<svg
   xmlns:dc="http://purl.org/dc/elements/1.1/"
   xmlns:cc="http://creativecommons.org/ns#"
   xmlns:rdf="http://www.w3.org/1999/02/22-rdf-syntax-ns#"
   xmlns:svg="http://www.w3.org/2000/svg"
   xmlns="http://www.w3.org/2000/svg"
   id="svg23"
   height="95.75mm"
   width="95.75mm"
   version="1.0">
  <metadata
     id="metadata27">
    <rdf:RDF>
      <cc:Work
         rdf:about="">
        <dc:format>image/svg+xml</dc:format>
        <dc:type
           rdf:resource="http://purl.org/dc/dcmitype/StillImage" />
      </cc:Work>
    </rdf:RDF>
  </metadata>
  <defs
     id="defs3">
    <pattern
       y="0"
       x="0"
       height="6"
       width="6"
       patternUnits="userSpaceOnUse"
       id="EMFhbasepattern" />
  </defs>
  <path
     id="path5"
     d="  M 54.345381,54.345381   L 54.345381,307.53092   L 307.53092,307.53092   L 307.53092,54.345381   L 54.345381,54.345381   z "
     style="fill:#aaffaa;fill-rule:evenodd;fill-opacity:1;stroke:none;" />
  <path
     id="path7"
     d="  M 54.345381,54.345381   L 307.53092,54.345381   L 307.53092,307.53092   L 54.345381,307.53092   z "
     style="fill:none;stroke:#000000;stroke-width:9.5903616px;stroke-linecap:butt;stroke-linejoin:miter;stroke-miterlimit:10;stroke-dasharray:none;stroke-opacity:1;" />
  <path
     id="path9"
     d="  M 123.43594,185.61345   L 123.43594,185.61345   L 139.45984,185.61345   L 139.45984,145.57369   L 123.43594,145.57369   z "
     style="fill:#ffffff;fill-rule:evenodd;fill-opacity:1;stroke:none;" />
  <path
     id="path11"
     d="  M 227.57128,185.61345   L 227.57128,185.61345   L 235.60321,185.61345   L 235.60321,173.6255   L 227.57128,173.6255   z "
     style="fill:#ffffff;fill-rule:evenodd;fill-opacity:1;stroke:none;" />
  <path
     id="path13"
     d="  M 99.380119,201.63735   L 99.380119,201.63735   L 251.6271,201.63735   L 251.6271,193.64538   L 99.380119,193.64538   z "
     style="fill:#ffffff;fill-rule:evenodd;fill-opacity:1;stroke:none;" />
  <path
     id="path15"
     d="  M 227.57128,221.69719   L 227.57128,221.69719   L 235.60321,221.69719   L 235.60321,209.66927   L 227.57128,209.66927   z "
     style="fill:#ffffff;fill-rule:evenodd;fill-opacity:1;stroke:none;" />
  <path
     id="path17"
     d="  M 123.43594,249.70903   L 123.43594,249.70903   L 139.45984,249.70903   L 139.45984,209.66927   L 123.43594,209.66927   z "
     style="fill:#ffffff;fill-rule:evenodd;fill-opacity:1;stroke:none;" />
  <path
     id="path19"
     d="  M 123.43594,209.66927   L 139.45984,209.66927   L 139.45984,249.70903   L 123.43594,249.70903   L 123.43594,209.66927  z    M 235.60321,221.69719   L 227.57128,221.69719   L 227.57128,209.66927   L 235.60321,209.66927   L 235.60321,221.69719  z    M 99.380119,201.63735   L 99.380119,193.64538   L 251.6271,193.64538   L 251.6271,201.63735   L 99.380119,201.63735  z    M 235.60321,185.61345   L 227.57128,185.61345   L 227.57128,173.6255   L 235.60321,173.6255   L 235.60321,185.61345  z    M 123.43594,145.57369   L 139.45984,145.57369   L 139.45984,185.61345   L 123.43594,185.61345   L 123.43594,145.57369  z    M 115.40401,185.61345   L 91.388151,185.61345   L 91.388151,209.66927   L 115.40401,209.66927   L 115.40401,257.74096   L 147.45181,257.74096   L 147.45181,209.66927   L 219.57931,209.66927   L 219.57931,229.68915   L 243.59518,229.68915   L 243.59518,209.66927   L 259.61907,209.66927   L 259.61907,185.61345   L 243.59518,185.61345   L 243.59518,165.59357   L 219.57931,165.59357   L 219.57931,185.61345   L 147.45181,185.61345   L 147.45181,137.54177   L 115.40401,137.54177   L 115.40401,185.61345  z   "
     style="fill:#000000;fill-rule:evenodd;fill-opacity:1;stroke:none;" />
  <path
     id="path21"
     d="  M 184.85421,101.65783   L 184.85421,146.29297   L 190.76827,146.29297   L 190.76827,101.65783   L 184.85421,101.65783   z "
     style="fill:#000000;fill-rule:evenodd;fill-opacity:1;stroke:none;" />
</svg>
