<?xml version="1.0" encoding="UTF-8" standalone="no"?>
<svg
   xmlns:dc="http://purl.org/dc/elements/1.1/"
   xmlns:cc="http://creativecommons.org/ns#"
   xmlns:rdf="http://www.w3.org/1999/02/22-rdf-syntax-ns#"
   xmlns:svg="http://www.w3.org/2000/svg"
   xmlns="http://www.w3.org/2000/svg"
   id="svg17"
   height="125.53mm"
   width="95.75mm"
   version="1.0">
  <metadata
     id="metadata21">
    <rdf:RDF>
      <cc:Work
         rdf:about="">
        <dc:format>image/svg+xml</dc:format>
        <dc:type
           rdf:resource="http://purl.org/dc/dcmitype/StillImage" />
      </cc:Work>
    </rdf:RDF>
  </metadata>
  <defs
     id="defs3">
    <pattern
       y="0"
       x="0"
       height="6"
       width="6"
       patternUnits="userSpaceOnUse"
       id="EMFhbasepattern" />
  </defs>
  <path
     id="path5"
     d="  M 307.53092,420.05783   C 307.53092,54.665059 54.345381,54.665059 54.345381,420.05783   z "
     style="fill:#80e0ff;fill-rule:evenodd;fill-opacity:1;stroke:none;" />
  <path
     id="path7"
     d="  M 307.53092,420.05783   C 307.53092,54.665059 54.345381,54.665059 54.345381,420.05783  "
     style="fill:none;stroke:#000000;stroke-width:9.5903616px;stroke-linecap:butt;stroke-linejoin:miter;stroke-miterlimit:10;stroke-dasharray:none;stroke-opacity:1;" />
  <path
     id="path9"
     d="  M 124.35502,267.57108   C 124.35502,325.79257 156.08313,346.97128 209.02992,341.65662  "
     style="fill:none;stroke:#000000;stroke-width:10.589357px;stroke-linecap:butt;stroke-linejoin:miter;stroke-miterlimit:10;stroke-dasharray:none;stroke-opacity:1;" />
  <path
     id="path11"
     d="  M 129.62972,304.61385   L 129.62972,304.61385   L 187.8512,262.25642   L 187.8512,304.61385   L 246.11265,262.25642  "
     style="fill:none;stroke:#000000;stroke-width:10.589357px;stroke-linecap:butt;stroke-linejoin:miter;stroke-miterlimit:10;stroke-dasharray:none;stroke-opacity:1;" />
  <path
     id="path13"
     d="  M 80.159437,319.67871   L 95.983533,278.48012   L 101.85763,278.48012   L 118.72068,319.67871   L 112.52691,319.67871   L 107.69177,307.21124   L 90.469075,307.21124   L 85.953613,319.67871   z  M 92.067469,302.7757   L 106.01345,302.7757   L 101.73775,291.34718   C 100.41907,287.91064 99.420079,285.03353 98.820681,282.83574   C 98.261244,285.47309 97.541966,288.07048 96.58293,290.66787   z "
     style="fill:#000000;fill-rule:evenodd;fill-opacity:1;stroke:none;" />
  <path
     id="path15"
     d="  M 247.51124,319.67871   L 247.51124,278.48012   L 262.9757,278.48012   C 266.09257,278.48012 268.65,278.91967 270.52811,279.75883   C 272.44618,280.55803 273.92469,281.8767 275.00361,283.59498   C 276.08253,285.31325 276.602,287.1514 276.602,289.02951   C 276.602,290.78775 276.12249,292.46606 275.20341,293.98453   C 274.24437,295.54297 272.80582,296.82168 270.84779,297.78072   C 273.36526,298.5 275.28333,299.73875 276.602,301.49698   C 277.96064,303.25522 278.6,305.33313 278.6,307.73072   C 278.6,309.68875 278.2004,311.44698 277.4012,313.1253   C 276.56204,314.76365 275.56305,316.04236 274.36425,316.96144   C 273.16546,317.84056 271.68694,318.51987 269.84879,318.99939   C 268.0506,319.43895 265.85281,319.67871 263.21546,319.67871   z  M 252.94578,295.78273   L 261.85682,295.78273   C 264.29437,295.78273 266.01265,295.62289 267.0516,295.30321   C 268.4502,294.90361 269.48915,294.22429 270.20843,293.26526   C 270.88775,292.30622 271.24739,291.10743 271.24739,289.66887   C 271.24739,288.31024 270.92771,287.11144 270.24839,286.07249   C 269.60903,285.03353 268.68996,284.31425 267.4512,283.91465   C 266.25241,283.55502 264.13453,283.35522 261.17751,283.35522   L 252.94578,283.35522   z  M 252.94578,314.80361   L 263.21546,314.80361   C 264.97369,314.80361 266.21245,314.76365 266.93172,314.60381   C 268.17048,314.40401 269.20943,314.04437 270.08855,313.48494   C 270.92771,312.96546 271.60702,312.20622 272.16646,311.20722   C 272.68594,310.20823 272.96566,309.04939 272.96566,307.73072   C 272.96566,306.21224 272.56606,304.85361 271.76686,303.73473   C 271.00763,302.61586 269.88875,301.81666 268.53012,301.33714   C 267.13152,300.89759 265.09357,300.65783 262.49618,300.65783   L 252.94578,300.65783   z "
     style="fill:#000000;fill-rule:evenodd;fill-opacity:1;stroke:none;" />
</svg>
