<?xml version="1.0" encoding="UTF-8" standalone="no"?>
<svg
   xmlns:dc="http://purl.org/dc/elements/1.1/"
   xmlns:cc="http://creativecommons.org/ns#"
   xmlns:rdf="http://www.w3.org/1999/02/22-rdf-syntax-ns#"
   xmlns:svg="http://www.w3.org/2000/svg"
   xmlns="http://www.w3.org/2000/svg"
   id="svg15"
   height="89.669998mm"
   width="120.11mm"
   version="1.0">
  <metadata
     id="metadata19">
    <rdf:RDF>
      <cc:Work
         rdf:about="">
        <dc:format>image/svg+xml</dc:format>
        <dc:type
           rdf:resource="http://purl.org/dc/dcmitype/StillImage" />
      </cc:Work>
    </rdf:RDF>
  </metadata>
  <defs
     id="defs3">
    <pattern
       y="0"
       x="0"
       height="6"
       width="6"
       patternUnits="userSpaceOnUse"
       id="EMFhbasepattern" />
  </defs>
  <path
     id="path5"
     d="  M 54.345381,54.345381   L 54.345381,284.51405   L 399.59839,284.51405   L 399.59839,54.345381   L 54.345381,54.345381   z "
     style="fill:#80e0ff;fill-rule:evenodd;fill-opacity:1;stroke:none;" />
  <path
     id="path7"
     d="  M 54.345381,54.345381   L 399.59839,54.345381   L 399.59839,284.51405   L 54.345381,284.51405   z "
     style="fill:none;stroke:#000000;stroke-width:9.5903616px;stroke-linecap:butt;stroke-linejoin:miter;stroke-miterlimit:10;stroke-dasharray:none;stroke-opacity:1;" />
  <path
     id="path9"
     d="  M 143.5757,143.33594   L 151.32791,142.65662   C 151.68755,145.77349 152.5267,148.29096 153.84538,150.28895   C 155.20401,152.24699 157.28193,153.84538 160.07911,155.08413   C 162.8763,156.28293 166.03313,156.92229 169.5496,156.92229   C 172.66646,156.92229 175.42369,156.44277 177.82128,155.52369   C 180.21887,154.60462 181.97711,153.3259 183.13594,151.72751   C 184.33474,150.08915 184.89417,148.33092 184.89417,146.41285   C 184.89417,144.49478 184.33474,142.7765 183.21586,141.33795   C 182.09699,139.8994 180.21887,138.66064 177.66144,137.7016   C 175.98313,137.06225 172.30682,136.06325 166.63253,134.66466   C 160.95823,133.30602 157.00221,132.02731 154.7245,130.82851   C 151.76747,129.27008 149.56968,127.35201 148.13112,125.0743   C 146.69257,122.79658 145.97329,120.1992 145.97329,117.36205   C 145.97329,114.24518 146.85241,111.36807 148.61064,108.6508   C 150.36887,105.93353 152.96626,103.85562 156.36285,102.45703   C 159.75944,101.05843 163.55562,100.33916 167.71144,100.33916   C 172.26686,100.33916 176.30281,101.09839 179.81927,102.57691   C 183.33574,104.05542 186.01305,106.21325 187.89116,109.09036   C 189.76927,111.92751 190.76827,115.20422 190.92811,118.8006   L 183.09598,119.4   C 182.65642,115.48393 181.25783,112.56687 178.82028,110.56887   C 176.38273,108.57088 172.78634,107.57189 168.03112,107.57189   C 163.0761,107.57189 159.47972,108.451 157.24197,110.28916   C 154.96425,112.08735 153.84538,114.28514 153.84538,116.84257   C 153.84538,119.04036 154.64458,120.87851 156.24297,122.31707   C 157.8014,123.75562 161.91727,125.23413 168.5506,126.71265   C 175.22389,128.23112 179.77931,129.5498 182.25682,130.66867   C 185.85321,132.30703 188.49056,134.4249 190.20883,136.94237   C 191.92711,139.4998 192.76626,142.41687 192.76626,145.73353   C 192.76626,149.0502 191.84719,152.12711 189.96907,155.04417   C 188.09096,157.96124 185.37369,160.19899 181.85723,161.83735   C 178.3008,163.43574 174.34478,164.23494 169.94919,164.23494   C 164.35482,164.23494 159.67952,163.43574 155.88333,161.79739   C 152.08715,160.15903 149.13012,157.72148 146.97229,154.44478   C 144.85442,151.16807 143.69558,147.49176 143.5757,143.33594   z  M 204.0749,163.19598   L 204.0749,101.41807   L 231.48735,101.41807   C 236.96184,101.41807 241.15763,101.97751 244.03474,103.05642   C 246.91184,104.1753 249.18955,106.13333 250.90783,108.97048   C 252.6261,111.76767 253.46526,114.88454 253.46526,118.28112   C 253.46526,122.63675 252.06666,126.35301 249.22951,129.35   C 246.39237,132.34699 241.99678,134.26506 236.04277,135.06426   C 238.24056,136.10321 239.87891,137.14217 240.99779,138.14116   C 243.39538,140.33895 245.63313,143.09618 247.79096,146.37289   L 258.54016,163.19598   L 248.23052,163.19598   L 240.07871,150.32891   C 237.68112,146.61265 235.72309,143.7755 234.16466,141.81747   C 232.60622,139.85944 231.24759,138.5008 230.00883,137.7016   C 228.81004,136.90241 227.53132,136.34297 226.29257,136.06325   C 225.37349,135.86345 223.85502,135.74357 221.73715,135.74357   L 212.26666,135.74357   L 212.26666,163.19598   z  M 212.26666,128.67068   L 229.80903,128.67068   C 233.56526,128.67068 236.48233,128.31104 238.6002,127.51185   C 240.67811,126.75261 242.31646,125.51385 243.39538,123.79558   C 244.47429,122.11727 245.03373,120.27911 245.03373,118.28112   C 245.03373,115.36405 243.99478,112.9265 241.8769,111.04839   C 239.71907,109.17028 236.40241,108.2512 231.80702,108.2512   L 212.26666,108.2512   z  M 266.29237,163.19598   L 266.29237,101.41807   L 287.551,101.41807   C 292.38614,101.41807 296.02249,101.69779 298.57992,102.29719   C 302.09638,103.09638 305.13333,104.5749 307.61084,106.73273   C 310.88755,109.48996 313.3251,113.00642 314.92349,117.28213   C 316.56184,121.55783 317.36104,126.47289 317.36104,131.94739   C 317.36104,136.66265 316.8016,140.81847 315.72269,144.45482   C 314.60381,148.0512 313.20522,151.04819 311.48694,153.44578   C 309.80863,155.80341 307.93052,157.68152 305.89257,159.04016   C 303.85461,160.39879 301.3771,161.43775 298.5,162.15703   C 295.62289,162.83634 292.30622,163.19598 288.58996,163.19598   z  M 274.44417,155.88333   L 287.63092,155.88333   C 291.70682,155.88333 294.90361,155.52369 297.22128,154.76446   C 299.53895,154.00522 301.41706,152.9263 302.7757,151.56767   C 304.73373,149.60964 306.21224,147.01225 307.29116,143.73554   C 308.41004,140.45883 308.92951,136.50281 308.92951,131.82751   C 308.92951,125.39397 307.89056,120.39899 305.73273,116.92249   C 303.61486,113.48594 301.05743,111.12831 298.02048,109.96948   C 295.82269,109.13032 292.30622,108.69076 287.43112,108.69076   L 274.44417,108.69076   z "
     style="fill:#000000;fill-rule:evenodd;fill-opacity:1;stroke:none;" />
  <path
     id="path11"
     d="  M 58.181525,284.51405   C 131.06827,150.24899 322.8755,150.24899 395.76224,284.51405   z "
     style="fill:#80e0ff;fill-rule:evenodd;fill-opacity:1;stroke:none;" />
  <path
     id="path13"
     d="  M 58.181525,284.51405   C 131.06827,150.24899 322.8755,150.24899 395.76224,284.51405   z "
     style="fill:none;stroke:#000000;stroke-width:9.5903616px;stroke-linecap:butt;stroke-linejoin:miter;stroke-miterlimit:10;stroke-dasharray:none;stroke-opacity:1;" />
</svg>
