<?xml version="1.0" encoding="UTF-8" standalone="no"?>
<svg
   xmlns:dc="http://purl.org/dc/elements/1.1/"
   xmlns:cc="http://creativecommons.org/ns#"
   xmlns:rdf="http://www.w3.org/1999/02/22-rdf-syntax-ns#"
   xmlns:svg="http://www.w3.org/2000/svg"
   xmlns="http://www.w3.org/2000/svg"
   id="svg11"
   height="130.27mm"
   width="130.27mm"
   version="1.0">
  <metadata
     id="metadata15">
    <rdf:RDF>
      <cc:Work
         rdf:about="">
        <dc:format>image/svg+xml</dc:format>
        <dc:type
           rdf:resource="http://purl.org/dc/dcmitype/StillImage" />
      </cc:Work>
    </rdf:RDF>
  </metadata>
  <defs
     id="defs3">
    <pattern
       y="0"
       x="0"
       height="6"
       width="6"
       patternUnits="userSpaceOnUse"
       id="EMFhbasepattern" />
  </defs>
  <path
     id="path5"
     d="  M 164.63454,327.67068   C 164.63454,437.95983 327.67068,437.95983 327.67068,327.67068   C 437.95983,327.67068 437.95983,164.63454 327.67068,164.63454   C 327.67068,54.345381 164.63454,54.345381 164.63454,164.63454   C 54.345381,164.63454 54.345381,327.67068 164.63454,327.67068   z "
     style="fill:#ffff80;fill-rule:evenodd;fill-opacity:1;stroke:none;" />
  <path
     id="path7"
     d="  M 164.63454,327.67068   C 164.63454,437.95983 327.67068,437.95983 327.67068,327.67068   C 437.95983,327.67068 437.95983,164.63454 327.67068,164.63454   C 327.67068,54.345381 164.63454,54.345381 164.63454,164.63454   C 54.345381,164.63454 54.345381,327.67068 164.63454,327.67068  "
     style="fill:none;stroke:#000000;stroke-width:9.5903616px;stroke-linecap:butt;stroke-linejoin:miter;stroke-miterlimit:10;stroke-dasharray:none;stroke-opacity:1;" />
  <path
     id="path9"
     d="  M 297.54096,330.90742   L 297.54096,338.18012   L 195.32369,338.18012   L 195.32369,330.90742   C 195.32369,319.67871 201.39759,310.64779 213.50542,303.73473   C 223.33554,298.14036 234.32449,295.30321 246.43233,295.30321   C 258.81988,295.30321 270.04859,298.38012 280.11847,304.49397   C 286.67188,308.56988 290.98755,312.04638 292.98554,314.84357   C 295.78273,318.67971 297.26124,324.03433 297.54096,330.90742   z  M 290.66787,330.90742   C 290.66787,321.75662 285.35321,314.44397 274.72389,309.08935   C 266.33233,304.73373 256.98172,302.5759 246.59217,302.5759   C 236.48233,302.5759 227.2516,304.73373 218.9,309.08935   C 208.51044,314.44397 203.31566,321.71666 203.31566,330.90742   z  M 210.50843,179.93915   L 219.73915,179.93915   L 219.73915,250.46827   L 210.50843,250.46827   z  M 250.70803,139.6996   L 250.70803,295.26325   L 240.83795,295.26325   L 240.83795,139.6996   C 243.75502,139.45984 247.07168,139.45984 250.70803,139.6996   z  M 269.84879,179.93915   L 279.71887,179.93915   L 279.71887,250.46827   L 269.84879,250.46827   z "
     style="fill:#000000;fill-rule:evenodd;fill-opacity:1;stroke:none;" />
</svg>
