<?xml version="1.0" encoding="UTF-8" standalone="no"?>
<svg
   xmlns:dc="http://purl.org/dc/elements/1.1/"
   xmlns:cc="http://creativecommons.org/ns#"
   xmlns:rdf="http://www.w3.org/1999/02/22-rdf-syntax-ns#"
   xmlns:svg="http://www.w3.org/2000/svg"
   xmlns="http://www.w3.org/2000/svg"
   id="svg17"
   height="125.53mm"
   width="95.75mm"
   version="1.0">
  <metadata
     id="metadata21">
    <rdf:RDF>
      <cc:Work
         rdf:about="">
        <dc:format>image/svg+xml</dc:format>
        <dc:type
           rdf:resource="http://purl.org/dc/dcmitype/StillImage" />
      </cc:Work>
    </rdf:RDF>
  </metadata>
  <defs
     id="defs3">
    <pattern
       y="0"
       x="0"
       height="6"
       width="6"
       patternUnits="userSpaceOnUse"
       id="EMFhbasepattern" />
  </defs>
  <path
     id="path5"
     d="  M 307.53092,420.05783   C 307.53092,54.665059 54.345381,54.665059 54.345381,420.05783   z "
     style="fill:#80e0ff;fill-rule:evenodd;fill-opacity:1;stroke:none;" />
  <path
     id="path7"
     d="  M 307.53092,420.05783   C 307.53092,54.665059 54.345381,54.665059 54.345381,420.05783  "
     style="fill:none;stroke:#000000;stroke-width:9.5903616px;stroke-linecap:butt;stroke-linejoin:miter;stroke-miterlimit:10;stroke-dasharray:none;stroke-opacity:1;" />
  <path
     id="path9"
     d="  M 180.93815,194.68433   L 180.93815,194.68433   L 195.32369,218.66024   L 195.32369,357.72048   L 209.70923,372.10602   L 209.70923,400.8771   L 180.93815,372.10602   L 152.16707,400.8771   L 152.16707,372.10602   L 166.55261,357.72048   L 166.55261,218.66024   L 180.93815,194.68433   z "
     style="fill:#ffff80;fill-rule:evenodd;fill-opacity:1;stroke:none;" />
  <path
     id="path11"
     d="  M 180.93815,194.68433   L 180.93815,194.68433   L 195.32369,218.66024   L 195.32369,357.72048   L 209.70923,372.10602   L 209.70923,400.8771   L 180.93815,372.10602   L 152.16707,400.8771   L 152.16707,372.10602   L 166.55261,357.72048   L 166.55261,218.66024   L 180.93815,194.68433  "
     style="fill:none;stroke:#000000;stroke-width:9.5903616px;stroke-linecap:butt;stroke-linejoin:miter;stroke-miterlimit:10;stroke-dasharray:none;stroke-opacity:1;" />
  <path
     id="path13"
     d="  M 84.914657,327.51084   L 108.6508,265.73293   L 117.48193,265.73293   L 142.73654,327.51084   L 133.4259,327.51084   L 126.23313,308.80963   L 100.37912,308.80963   L 93.625902,327.51084   z  M 102.73675,302.13634   L 123.71566,302.13634   L 117.24217,285.03353   C 115.28413,279.83875 113.80562,275.56305 112.88654,272.20642   C 112.08735,276.16245 110.96847,280.11847 109.52992,283.99457   z "
     style="fill:#000000;fill-rule:evenodd;fill-opacity:1;stroke:none;" />
  <path
     id="path15"
     d="  M 235.24357,327.51084   L 235.24357,265.73293   L 243.39538,265.73293   L 243.39538,320.19819   L 273.84478,320.19819   L 273.84478,327.51084   z "
     style="fill:#000000;fill-rule:evenodd;fill-opacity:1;stroke:none;" />
</svg>
