<?xml version="1.0" encoding="UTF-8" standalone="no"?>
<svg
   xmlns:dc="http://purl.org/dc/elements/1.1/"
   xmlns:cc="http://creativecommons.org/ns#"
   xmlns:rdf="http://www.w3.org/1999/02/22-rdf-syntax-ns#"
   xmlns:svg="http://www.w3.org/2000/svg"
   xmlns="http://www.w3.org/2000/svg"
   id="svg17"
   height="116.06mm"
   width="135.35001mm"
   version="1.0">
  <metadata
     id="metadata21">
    <rdf:RDF>
      <cc:Work
         rdf:about="">
        <dc:format>image/svg+xml</dc:format>
        <dc:type
           rdf:resource="http://purl.org/dc/dcmitype/StillImage" />
      </cc:Work>
    </rdf:RDF>
  </metadata>
  <defs
     id="defs3">
    <pattern
       y="0"
       x="0"
       height="6"
       width="6"
       patternUnits="userSpaceOnUse"
       id="EMFhbasepattern" />
  </defs>
  <path
     id="path5"
     d="  M 337.26104,384.25381   C 457.14056,384.25381 457.14056,187.6514 337.26104,187.6514   C 337.26104,54.345381 174.2249,54.345381 174.2249,187.6514   C 54.345381,187.6514 54.345381,384.25381 174.2249,384.25381   z "
     style="fill:#ffff80;fill-rule:evenodd;fill-opacity:1;stroke:none;" />
  <path
     id="path7"
     d="  M 337.26104,384.25381   C 457.14056,384.25381 457.14056,187.6514 337.26104,187.6514   C 337.26104,54.345381 174.2249,54.345381 174.2249,187.6514   C 54.345381,187.6514 54.345381,384.25381 174.2249,384.25381  "
     style="fill:none;stroke:#000000;stroke-width:9.5903616px;stroke-linecap:butt;stroke-linejoin:miter;stroke-miterlimit:10;stroke-dasharray:none;stroke-opacity:1;" />
  <path
     id="path9"
     d="  M 199.15984,231.76706   C 199.15984,289.98855 230.88795,311.16726 283.83473,305.85261  "
     style="fill:none;stroke:#000000;stroke-width:10.589357px;stroke-linecap:butt;stroke-linejoin:miter;stroke-miterlimit:10;stroke-dasharray:none;stroke-opacity:1;" />
  <path
     id="path11"
     d="  M 204.43454,268.80984   L 204.43454,268.80984   L 262.65602,226.45241   L 262.65602,268.80984   L 320.91747,226.45241  "
     style="fill:none;stroke:#000000;stroke-width:10.589357px;stroke-linecap:butt;stroke-linejoin:miter;stroke-miterlimit:10;stroke-dasharray:none;stroke-opacity:1;" />
  <path
     id="path13"
     d="  M 184.09498,269.44919   L 189.52952,270.80783   C 188.41064,275.28333 186.33273,278.71988 183.3757,281.03755   C 180.41867,283.39518 176.78233,284.59397 172.50662,284.59397   C 168.07108,284.59397 164.43474,283.6749 161.67751,281.8767   C 158.88032,280.07851 156.76245,277.44116 155.32389,274.00461   C 153.84538,270.60803 153.1261,266.89176 153.1261,262.9757   C 153.1261,258.7 153.96526,254.94377 155.60361,251.74698   C 157.24197,248.5502 159.55964,246.11265 162.59658,244.47429   C 165.63353,242.79598 168.9502,241.99678 172.58654,241.99678   C 176.70241,241.99678 180.17891,243.03574 182.9761,245.11365   C 185.77329,247.23152 187.73132,250.18855 188.8502,253.98474   L 183.49558,255.26345   C 182.53654,252.26646 181.13795,250.06867 179.2998,248.71004   C 177.5016,247.3514 175.22389,246.63212 172.46666,246.63212   C 169.30984,246.63212 166.67249,247.39136 164.51466,248.90984   C 162.39678,250.42831 160.91827,252.46626 160.03915,255.02369   C 159.2,257.58112 158.76044,260.21847 158.76044,262.93574   C 158.76044,266.4522 159.27992,269.48915 160.27891,272.1265   C 161.31787,274.72389 162.8763,276.68192 165.03413,277.96064   C 167.19197,279.27931 169.5496,279.91867 172.02711,279.91867   C 175.10401,279.91867 177.66144,279.03955 179.77931,277.28132   C 181.89719,275.52309 183.33574,272.88574 184.09498,269.44919   z "
     style="fill:#000000;fill-rule:evenodd;fill-opacity:1;stroke:none;" />
  <path
     id="path15"
     d="  M 328.27008,242.6761   L 328.27008,283.87469   L 333.70461,283.87469   L 333.70461,242.6761   L 328.27008,242.6761   z "
     style="fill:#000000;fill-rule:evenodd;fill-opacity:1;stroke:none;" />
</svg>
