<?xml version="1.0" encoding="UTF-8" standalone="no"?>
<svg
   xmlns:dc="http://purl.org/dc/elements/1.1/"
   xmlns:cc="http://creativecommons.org/ns#"
   xmlns:rdf="http://www.w3.org/1999/02/22-rdf-syntax-ns#"
   xmlns:svg="http://www.w3.org/2000/svg"
   xmlns="http://www.w3.org/2000/svg"
   id="svg7"
   height="52.790001mm"
   width="27.24mm"
   version="1.0">
  <metadata
     id="metadata11">
    <rdf:RDF>
      <cc:Work
         rdf:about="">
        <dc:format>image/svg+xml</dc:format>
        <dc:type
           rdf:resource="http://purl.org/dc/dcmitype/StillImage" />
      </cc:Work>
    </rdf:RDF>
  </metadata>
  <defs
     id="defs3">
    <pattern
       y="0"
       x="0"
       height="6"
       width="6"
       patternUnits="userSpaceOnUse"
       id="EMFhbasepattern" />
  </defs>
  <path
     id="path5"
     d="  M 102.85663,191.72731   L 102.85663,198.96004   L 0.31967871,198.96004   L 0.31967871,191.72731   C 0.31967871,180.61847 6.433534,171.62751 18.581325,164.79438   C 28.451405,159.2 39.440361,156.44277 51.628112,156.44277   C 64.015662,156.44277 75.284336,159.47972 85.394175,165.55361   C 91.987549,169.58956 96.303211,173.0261 98.341163,175.78333   C 101.09839,179.57952 102.61687,184.89417 102.85663,191.72731   z  M 95.663854,191.72731   C 95.663854,182.61646 90.349195,175.42369 79.719878,170.10903   C 71.368272,165.79337 61.97771,163.63554 51.628112,163.63554   C 41.478313,163.63554 32.24759,165.79337 23.895984,170.10903   C 13.506426,175.42369 8.3116465,182.61646 8.3116465,191.72731   z  M 15.904016,48.191566   L 25.014859,48.191566   L 25.014859,118.44096   L 15.904016,118.44096   z  M 45.913855,76.682931   L 45.913855,66.053614   L 24.655221,66.053614   L 24.655221,76.682931   z  M 45.913855,99.460039   L 45.913855,88.830722   L 24.655221,88.830722   L 24.655221,99.460039   z  M 56.183533,0.31967871   L 56.183533,156.04317   L 45.913855,156.04317   L 45.913855,0.31967871   C 48.950803,0.079919678 52.347389,0.079919678 56.183533,0.31967871   z  M 76.283332,77.042569   L 76.283332,65.654015   L 56.183533,66.053614   L 56.183533,77.042569   z  M 76.283332,99.819677   L 76.283332,88.431123   L 56.183533,88.830722   L 56.183533,99.819677   z  M 76.283332,47.791967   L 86.153412,47.791967   L 86.153412,118.04136   L 76.283332,118.04136   z "
     style="fill:#aaffaa;fill-rule:evenodd;fill-opacity:1;stroke:none;" />
</svg>
