<?xml version="1.0" encoding="UTF-8" standalone="no"?>
<svg
   xmlns:dc="http://purl.org/dc/elements/1.1/"
   xmlns:cc="http://creativecommons.org/ns#"
   xmlns:rdf="http://www.w3.org/1999/02/22-rdf-syntax-ns#"
   xmlns:svg="http://www.w3.org/2000/svg"
   xmlns="http://www.w3.org/2000/svg"
   id="svg17"
   height="101.85mm"
   width="95.75mm"
   version="1.0">
  <metadata
     id="metadata21">
    <rdf:RDF>
      <cc:Work
         rdf:about="">
        <dc:format>image/svg+xml</dc:format>
        <dc:type
           rdf:resource="http://purl.org/dc/dcmitype/StillImage" />
      </cc:Work>
    </rdf:RDF>
  </metadata>
  <defs
     id="defs3">
    <pattern
       y="0"
       x="0"
       height="6"
       width="6"
       patternUnits="userSpaceOnUse"
       id="EMFhbasepattern" />
  </defs>
  <path
     id="path5"
     d="  M 54.345381,54.345381   L 54.345381,330.54779   L 307.53092,330.54779   L 307.53092,54.345381   L 54.345381,54.345381   z "
     style="fill:#aaffaa;fill-rule:evenodd;fill-opacity:1;stroke:none;" />
  <path
     id="path7"
     d="  M 54.345381,330.54779   L 54.345381,54.345381   L 307.53092,54.345381   L 307.53092,330.54779  "
     style="fill:none;stroke:#000000;stroke-width:9.5903616px;stroke-linecap:butt;stroke-linejoin:miter;stroke-miterlimit:10;stroke-dasharray:none;stroke-opacity:1;" />
  <path
     id="path9"
     d="  M 128.19116,178.06104   C 128.19116,236.28253 159.91927,257.46124 212.86606,252.14658  "
     style="fill:none;stroke:#000000;stroke-width:10.589357px;stroke-linecap:butt;stroke-linejoin:miter;stroke-miterlimit:10;stroke-dasharray:none;stroke-opacity:1;" />
  <path
     id="path11"
     d="  M 133.46586,215.10381   L 133.46586,215.10381   L 191.68735,172.74638   L 191.68735,215.10381   L 249.94879,172.74638  "
     style="fill:none;stroke:#000000;stroke-width:10.589357px;stroke-linecap:butt;stroke-linejoin:miter;stroke-miterlimit:10;stroke-dasharray:none;stroke-opacity:1;" />
  <path
     id="path13"
     d="  M 79.719878,230.16867   L 79.719878,188.97008   L 87.951605,188.97008   L 97.701806,218.14076   C 98.580922,220.85803 99.26024,222.89598 99.659838,224.25462   C 100.13936,222.73614 100.85863,220.53835 101.85763,217.62128   L 111.68775,188.97008   L 119.04036,188.97008   L 119.04036,230.16867   L 113.80562,230.16867   L 113.80562,195.68333   L 101.81767,230.16867   L 96.902609,230.16867   L 84.994577,195.12389   L 84.994577,230.16867   z "
     style="fill:#000000;fill-rule:evenodd;fill-opacity:1;stroke:none;" />
  <path
     id="path15"
     d="  M 267.01164,214.0249   L 267.01164,209.18976   L 284.47409,209.1498   L 284.47409,224.45441   C 281.79678,226.57229 278.99959,228.17068 276.16245,229.2496   C 273.3253,230.32851 270.40823,230.88795 267.41124,230.88795   C 263.33534,230.88795 259.69899,230.00883 256.38233,228.29056   C 253.06566,226.53233 250.58815,224.05482 248.86988,220.77811   C 247.19156,217.5014 246.35241,213.8251 246.35241,209.78915   C 246.35241,205.75321 247.19156,202.03694 248.86988,198.56044   C 250.54819,195.08393 252.94578,192.48654 256.10261,190.80823   C 259.25943,189.12992 262.89578,188.29076 266.97168,188.29076   C 269.96867,188.29076 272.64598,188.77028 275.04357,189.72931   C 277.48112,190.68835 279.35923,192.04699 280.71787,193.76526   C 282.0765,195.48353 283.11546,197.72128 283.83473,200.51847   L 278.91967,201.83715   C 278.32028,199.75923 277.52108,198.12088 276.602,196.92209   C 275.68293,195.72329 274.40421,194.76425 272.68594,194.04498   C 270.96767,193.3257 269.08955,192.9261 267.01164,192.9261   C 264.53413,192.9261 262.3763,193.3257 260.53815,194.08494   C 258.73996,194.84417 257.26144,195.84317 256.14257,197.08192   C 255.02369,198.32068 254.18453,199.67931 253.54518,201.15783   C 252.50622,203.71526 251.98674,206.47249 251.98674,209.42952   C 251.98674,213.10582 252.6261,216.18273 253.86486,218.66024   C 255.14357,221.13775 256.98172,222.9759 259.37931,224.1747   C 261.81686,225.37349 264.37429,225.97289 267.09156,225.97289   C 269.44919,225.97289 271.76686,225.49337 274.00461,224.61425   C 276.24237,223.69518 277.96064,222.73614 279.11947,221.69719   L 279.11947,214.0249   z "
     style="fill:#000000;fill-rule:evenodd;fill-opacity:1;stroke:none;" />
</svg>
