<?xml version="1.0" encoding="UTF-8" standalone="no"?>
<svg
   xmlns:dc="http://purl.org/dc/elements/1.1/"
   xmlns:cc="http://creativecommons.org/ns#"
   xmlns:rdf="http://www.w3.org/1999/02/22-rdf-syntax-ns#"
   xmlns:svg="http://www.w3.org/2000/svg"
   xmlns="http://www.w3.org/2000/svg"
   id="svg17"
   height="107.94mm"
   width="95.75mm"
   version="1.0">
  <metadata
     id="metadata21">
    <rdf:RDF>
      <cc:Work
         rdf:about="">
        <dc:format>image/svg+xml</dc:format>
        <dc:type
           rdf:resource="http://purl.org/dc/dcmitype/StillImage" />
      </cc:Work>
    </rdf:RDF>
  </metadata>
  <defs
     id="defs3">
    <pattern
       y="0"
       x="0"
       height="6"
       width="6"
       patternUnits="userSpaceOnUse"
       id="EMFhbasepattern" />
  </defs>
  <path
     id="path5"
     d="  M 54.345381,353.56465   L 54.345381,171.34779   L 180.93815,54.345381   L 307.53092,171.34779   L 307.53092,353.56465   z "
     style="fill:#ff8080;fill-rule:evenodd;fill-opacity:1;stroke:none;" />
  <path
     id="path7"
     d="  M 54.345381,353.56465   L 54.345381,171.34779   L 180.93815,54.345381   L 307.53092,171.34779   L 307.53092,353.56465  "
     style="fill:none;stroke:#000000;stroke-width:9.5903616px;stroke-linecap:butt;stroke-linejoin:miter;stroke-miterlimit:10;stroke-dasharray:none;stroke-opacity:1;" />
  <path
     id="path9"
     d="  M 180.93815,128.19116   L 180.93815,128.19116   L 195.32369,152.16707   L 195.32369,291.22731   L 209.70923,305.61285   L 209.70923,334.38393   L 180.93815,305.61285   L 152.16707,334.38393   L 152.16707,305.61285   L 166.55261,291.22731   L 166.55261,152.16707   L 180.93815,128.19116   z "
     style="fill:#ffff80;fill-rule:evenodd;fill-opacity:1;stroke:none;" />
  <path
     id="path11"
     d="  M 180.93815,128.19116   L 180.93815,128.19116   L 195.32369,152.16707   L 195.32369,291.22731   L 209.70923,305.61285   L 209.70923,334.38393   L 180.93815,305.61285   L 152.16707,334.38393   L 152.16707,305.61285   L 166.55261,291.22731   L 166.55261,152.16707   L 180.93815,128.19116  "
     style="fill:none;stroke:#000000;stroke-width:9.5903616px;stroke-linecap:butt;stroke-linejoin:miter;stroke-miterlimit:10;stroke-dasharray:none;stroke-opacity:1;" />
  <path
     id="path13"
     d="  M 84.914657,261.01767   L 108.6508,199.23976   L 117.48193,199.23976   L 142.73654,261.01767   L 133.4259,261.01767   L 126.23313,242.31646   L 100.37912,242.31646   L 93.625902,261.01767   z  M 102.73675,235.64317   L 123.71566,235.64317   L 117.24217,218.54036   C 115.28413,213.34558 113.80562,209.06988 112.88654,205.71325   C 112.08735,209.66927 110.96847,213.6253 109.52992,217.5014   z "
     style="fill:#000000;fill-rule:evenodd;fill-opacity:1;stroke:none;" />
  <path
     id="path15"
     d="  M 227.01184,241.15763   L 234.76405,240.47831   C 235.12369,243.59518 235.96285,246.11265 237.28152,248.11064   C 238.64016,250.06867 240.71807,251.66706 243.51526,252.90582   C 246.31245,254.10461 249.46927,254.74397 252.98574,254.74397   C 256.10261,254.74397 258.85984,254.26445 261.25743,253.34538   C 263.65502,252.4263 265.41325,251.14759 266.57208,249.54919   C 267.77088,247.91084 268.33032,246.15261 268.33032,244.23453   C 268.33032,242.31646 267.77088,240.59819 266.652,239.15964   C 265.53313,237.72108 263.65502,236.48233 261.09759,235.52329   C 259.41927,234.88393 255.74297,233.88494 250.06867,232.48634   C 244.39437,231.12771 240.43835,229.84899 238.16064,228.6502   C 235.20361,227.09176 233.00582,225.17369 231.56727,222.89598   C 230.12871,220.61827 229.40943,218.02088 229.40943,215.18373   C 229.40943,212.06686 230.28855,209.18976 232.04678,206.47249   C 233.80502,203.75522 236.40241,201.67731 239.79899,200.27871   C 243.19558,198.88012 246.99176,198.16084 251.14759,198.16084   C 255.70301,198.16084 259.73895,198.92008 263.25542,200.39859   C 266.77188,201.87711 269.44919,204.03494 271.32731,206.91205   C 273.20542,209.74919 274.20441,213.0259 274.36425,216.62229   L 266.53212,217.22168   C 266.09257,213.30562 264.69397,210.38855 262.25642,208.39056   C 259.81887,206.39257 256.22249,205.39357 251.46727,205.39357   C 246.51225,205.39357 242.91586,206.27269 240.67811,208.11084   C 238.4004,209.90903 237.28152,212.10682 237.28152,214.66425   C 237.28152,216.86205 238.08072,218.7002 239.67911,220.13875   C 241.23755,221.57731 245.35341,223.05582 251.98674,224.53433   C 258.66004,226.05281 263.21546,227.37148 265.69297,228.49036   C 269.28935,230.12871 271.9267,232.24658 273.64498,234.76405   C 275.36325,237.32148 276.20241,240.23855 276.20241,243.55522   C 276.20241,246.87188 275.28333,249.94879 273.40522,252.86586   C 271.5271,255.78293 268.80984,258.02068 265.29337,259.65903   C 261.73694,261.25743 257.78092,262.05662 253.38534,262.05662   C 247.79096,262.05662 243.11566,261.25743 239.31947,259.61907   C 235.52329,257.98072 232.56626,255.54317 230.40843,252.26646   C 228.29056,248.98976 227.13172,245.31345 227.01184,241.15763   z "
     style="fill:#000000;fill-rule:evenodd;fill-opacity:1;stroke:none;" />
</svg>
