<?xml version="1.0" encoding="UTF-8" standalone="no"?>
<svg
   xmlns:dc="http://purl.org/dc/elements/1.1/"
   xmlns:cc="http://creativecommons.org/ns#"
   xmlns:rdf="http://www.w3.org/1999/02/22-rdf-syntax-ns#"
   xmlns:svg="http://www.w3.org/2000/svg"
   xmlns="http://www.w3.org/2000/svg"
   id="svg11"
   height="112.9mm"
   width="112.9mm"
   version="1.0">
  <metadata
     id="metadata15">
    <rdf:RDF>
      <cc:Work
         rdf:about="">
        <dc:format>image/svg+xml</dc:format>
        <dc:type
           rdf:resource="http://purl.org/dc/dcmitype/StillImage" />
      </cc:Work>
    </rdf:RDF>
  </metadata>
  <defs
     id="defs3">
    <pattern
       y="0"
       x="0"
       height="6"
       width="6"
       patternUnits="userSpaceOnUse"
       id="EMFhbasepattern" />
  </defs>
  <path
     id="path5"
     d="  M 1817.3195,1817.1379   L 1817.3195,2190.121  "
     style="fill:none;stroke:#00ff00;stroke-width:10.649107px;stroke-linecap:butt;stroke-linejoin:miter;stroke-miterlimit:282;stroke-dasharray:none;stroke-opacity:1;" />
  <path
     id="path7"
     d="  M 2030.4905,1817.1379   L 2030.4905,2190.121  "
     style="fill:none;stroke:#00ff00;stroke-width:10.649107px;stroke-linecap:butt;stroke-linejoin:miter;stroke-miterlimit:282;stroke-dasharray:none;stroke-opacity:1;" />
  <path
     id="path9"
     d="  M 1890.0884,2051.6071   L 1865.7692,1960.0323   L 1878.1932,1960.0323   L 1892.1276,2020.0374   C 1893.6381,2026.3437 1894.9221,2032.5746 1896.0172,2038.8055   C 1898.3207,2028.9871 1899.718,2023.3605 1900.1333,2021.85   L 1917.542,1960.0323   L 1932.1562,1960.0323   L 1945.2599,2006.3672   C 1948.583,2017.8849 1950.9243,2028.685 1952.397,2038.8055   C 1953.5677,2032.99 1955.0782,2026.3437 1956.9663,2018.8667   L 1971.3162,1960.0323   L 1983.4758,1960.0323   L 1958.4013,2051.6071   L 1946.6949,2051.6071   L 1927.3981,1981.8214   C 1925.7743,1976.0059 1924.8302,1972.4185 1924.5281,1971.0968   C 1923.584,1975.2885 1922.6777,1978.8759 1921.8469,1981.8214   L 1902.4369,2051.6071   z "
     style="fill:#00ff00;fill-rule:nonzero;fill-opacity:1;stroke:#00ff00;stroke-width:1.0573581px;stroke-linecap:butt;stroke-linejoin:miter;stroke-miterlimit:282;stroke-dasharray:none;stroke-opacity:1;" />
</svg>
