<?xml version="1.0" encoding="UTF-8" standalone="no"?>
<svg
   xmlns:dc="http://purl.org/dc/elements/1.1/"
   xmlns:cc="http://creativecommons.org/ns#"
   xmlns:rdf="http://www.w3.org/1999/02/22-rdf-syntax-ns#"
   xmlns:svg="http://www.w3.org/2000/svg"
   xmlns="http://www.w3.org/2000/svg"
   id="svg13"
   height="116.73mm"
   width="116.73mm"
   version="1.0">
  <metadata
     id="metadata17">
    <rdf:RDF>
      <cc:Work
         rdf:about="">
        <dc:format>image/svg+xml</dc:format>
        <dc:type
           rdf:resource="http://purl.org/dc/dcmitype/StillImage" />
      </cc:Work>
    </rdf:RDF>
  </metadata>
  <defs
     id="defs3">
    <pattern
       y="0"
       x="0"
       height="6"
       width="6"
       patternUnits="userSpaceOnUse"
       id="EMFhbasepattern" />
  </defs>
  <path
     id="path5"
     d="  M 172.6265,43.156626   L 172.6265,100.69879   L 268.53012,100.69879   L 268.53012,43.156626   L 172.6265,43.156626   z "
     style="fill:#000000;fill-rule:evenodd;fill-opacity:1;stroke:none;" />
  <path
     id="path7"
     d="  M 220.57831,386.49156   L 220.57831,386.49156   L 386.49156,220.57831   L 220.57831,54.665059   L 54.665059,220.57831   L 220.57831,386.49156   z "
     style="fill:#ff8080;fill-rule:evenodd;fill-opacity:1;stroke:none;" />
  <path
     id="path9"
     d="  M 220.57831,386.49156   L 220.57831,386.49156   L 386.49156,220.57831   L 220.57831,54.665059   L 54.665059,220.57831   L 220.57831,386.49156  "
     style="fill:none;stroke:#000000;stroke-width:9.5903616px;stroke-linecap:butt;stroke-linejoin:miter;stroke-miterlimit:10;stroke-dasharray:none;stroke-opacity:1;" />
  <path
     id="path11"
     d="  M 311.00743,224.61425   C 309.16927,226.45241 307.33112,227.37148 305.49297,227.37148   L 276.48212,221.49739   C 274.16445,222.65622 270.72791,224.1747 266.13253,226.01285   C 258.97972,227.41144 248.31044,229.92891 234.00482,233.64518   L 294.78373,258.22048   C 292.94558,260.05863 288.78975,261.89678 282.35622,263.73494   L 203.31566,240.47831   C 194.3247,242.55622 185.33373,244.75401 176.38273,247.03172   C 159.08012,251.18755 148.17108,253.26546 143.5757,253.26546   C 134.8245,253.26546 130.42891,251.78694 130.42891,248.78996   C 130.42891,246.71204 132.06727,243.91486 135.26405,240.31847   C 138.5008,236.76204 141.25803,234.76405 143.5757,234.28453   C 154.36486,231.52731 170.50863,227.73112 191.92711,222.89598   C 193.96506,216.46245 197.32168,206.43253 201.91707,192.84618   C 205.35361,191.48755 208.23072,190.56847 210.54839,190.08895   C 210.54839,199.31968 211.22771,208.7502 212.6263,218.42048   C 224.57429,215.86305 240.35843,212.14678 259.89879,207.31164   C 261.05763,206.83213 261.9767,205.35361 262.69598,202.79618   C 263.61506,198.84016 264.05461,196.76225 264.05461,196.52249   C 265.45321,196.32269 267.29136,195.72329 269.56907,194.80421   C 271.20743,191.32771 273.60502,186.81225 276.84176,181.25783   C 277.04156,181.25783 280.87771,179.97911 288.23032,177.46164   L 281.31727,212.8261   z "
     style="fill:#000000;fill-rule:evenodd;fill-opacity:1;stroke:none;" />
</svg>
