<?xml version="1.0" encoding="UTF-8" standalone="no"?>
<svg
   xmlns:dc="http://purl.org/dc/elements/1.1/"
   xmlns:cc="http://creativecommons.org/ns#"
   xmlns:rdf="http://www.w3.org/1999/02/22-rdf-syntax-ns#"
   xmlns:svg="http://www.w3.org/2000/svg"
   xmlns="http://www.w3.org/2000/svg"
   id="svg27"
   height="130.27mm"
   width="130.27mm"
   version="1.0">
  <metadata
     id="metadata31">
    <rdf:RDF>
      <cc:Work
         rdf:about="">
        <dc:format>image/svg+xml</dc:format>
        <dc:type
           rdf:resource="http://purl.org/dc/dcmitype/StillImage" />
      </cc:Work>
    </rdf:RDF>
  </metadata>
  <defs
     id="defs3">
    <pattern
       y="0"
       x="0"
       height="6"
       width="6"
       patternUnits="userSpaceOnUse"
       id="EMFhbasepattern" />
  </defs>
  <path
     id="path5"
     d="  M 164.63454,327.67068   C 164.63454,437.95983 327.67068,437.95983 327.67068,327.67068   C 437.95983,327.67068 437.95983,164.63454 327.67068,164.63454   C 327.67068,54.345381 164.63454,54.345381 164.63454,164.63454   C 54.345381,164.63454 54.345381,327.67068 164.63454,327.67068   z "
     style="fill:#ffff80;fill-rule:evenodd;fill-opacity:1;stroke:none;" />
  <path
     id="path7"
     d="  M 164.63454,327.67068   C 164.63454,437.95983 327.67068,437.95983 327.67068,327.67068   C 437.95983,327.67068 437.95983,164.63454 327.67068,164.63454   C 327.67068,54.345381 164.63454,54.345381 164.63454,164.63454   C 54.345381,164.63454 54.345381,327.67068 164.63454,327.67068  "
     style="fill:none;stroke:#000000;stroke-width:9.5903616px;stroke-linecap:butt;stroke-linejoin:miter;stroke-miterlimit:10;stroke-dasharray:none;stroke-opacity:1;" />
  <path
     id="path9"
     d="  M 246.15261,143.53574   L 246.15261,210.66827  "
     style="fill:none;stroke:#000000;stroke-width:26.853012px;stroke-linecap:butt;stroke-linejoin:miter;stroke-miterlimit:10;stroke-dasharray:none;stroke-opacity:1;" />
  <path
     id="path11"
     d="  M 212.58634,177.10201   L 279.71887,177.10201  "
     style="fill:none;stroke:#000000;stroke-width:26.853012px;stroke-linecap:butt;stroke-linejoin:miter;stroke-miterlimit:10;stroke-dasharray:none;stroke-opacity:1;" />
  <path
     id="path13"
     d="  M 180.45863,308.48996   L 180.45863,308.48996   L 180.45863,265.33333   L 223.61526,265.33333   L 223.61526,222.1767   L 309.92851,222.1767   L 309.92851,308.48996   z "
     style="fill:#ffffff;fill-rule:evenodd;fill-opacity:1;stroke:none;" />
  <path
     id="path15"
     d="  M 180.45863,308.48996   L 180.45863,308.48996   L 180.45863,265.33333   L 223.61526,265.33333   L 223.61526,222.1767   L 309.92851,222.1767   L 309.92851,308.48996   z "
     style="fill:none;stroke:#000000;stroke-width:8.6313248px;stroke-linecap:butt;stroke-linejoin:miter;stroke-miterlimit:10;stroke-dasharray:none;stroke-opacity:1;" />
  <path
     id="path17"
     d="  M 305.61285,312.80562   C 305.61285,322.35602 297.9006,330.06827 288.3502,330.06827   C 278.83976,330.06827 271.08755,322.35602 271.08755,312.80562   C 271.08755,303.29518 278.83976,295.54297 288.3502,295.54297   C 297.9006,295.54297 305.61285,303.29518 305.61285,312.80562   z "
     style="fill:#ffffff;fill-rule:evenodd;fill-opacity:1;stroke:none;" />
  <path
     id="path19"
     d="  M 305.61285,312.80562   C 305.61285,322.35602 297.9006,330.06827 288.3502,330.06827   C 278.83976,330.06827 271.08755,322.35602 271.08755,312.80562   C 271.08755,303.29518 278.83976,295.54297 288.3502,295.54297   C 297.9006,295.54297 305.61285,303.29518 305.61285,312.80562  "
     style="fill:none;stroke:#000000;stroke-width:8.6313248px;stroke-linecap:butt;stroke-linejoin:miter;stroke-miterlimit:10;stroke-dasharray:none;stroke-opacity:1;" />
  <path
     id="path21"
     d="  M 219.2996,312.80562   C 219.2996,322.35602 211.58735,330.06827 202.03694,330.06827   C 192.5265,330.06827 184.77429,322.35602 184.77429,312.80562   C 184.77429,303.29518 192.5265,295.54297 202.03694,295.54297   C 211.58735,295.54297 219.2996,303.29518 219.2996,312.80562   z "
     style="fill:#ffffff;fill-rule:evenodd;fill-opacity:1;stroke:none;" />
  <path
     id="path23"
     d="  M 219.2996,312.80562   C 219.2996,322.35602 211.58735,330.06827 202.03694,330.06827   C 192.5265,330.06827 184.77429,322.35602 184.77429,312.80562   C 184.77429,303.29518 192.5265,295.54297 202.03694,295.54297   C 211.58735,295.54297 219.2996,303.29518 219.2996,312.80562  "
     style="fill:none;stroke:#000000;stroke-width:8.6313248px;stroke-linecap:butt;stroke-linejoin:miter;stroke-miterlimit:10;stroke-dasharray:none;stroke-opacity:1;" />
  <path
     id="path25"
     d="  M 232.24658,230.80803   L 259.01967,230.80803   L 259.01967,267.93072   L 232.24658,267.93072   z "
     style="fill:none;stroke:#000000;stroke-width:4.3156624px;stroke-linecap:butt;stroke-linejoin:miter;stroke-miterlimit:10;stroke-dasharray:none;stroke-opacity:1;" />
</svg>
