<?xml version="1.0" encoding="UTF-8" standalone="no"?>
<svg
   xmlns:dc="http://purl.org/dc/elements/1.1/"
   xmlns:cc="http://creativecommons.org/ns#"
   xmlns:rdf="http://www.w3.org/1999/02/22-rdf-syntax-ns#"
   xmlns:svg="http://www.w3.org/2000/svg"
   xmlns="http://www.w3.org/2000/svg"
   id="svg15"
   height="112.9mm"
   width="112.9mm"
   version="1.0">
  <metadata
     id="metadata19">
    <rdf:RDF>
      <cc:Work
         rdf:about="">
        <dc:format>image/svg+xml</dc:format>
        <dc:type
           rdf:resource="http://purl.org/dc/dcmitype/StillImage" />
      </cc:Work>
    </rdf:RDF>
  </metadata>
  <defs
     id="defs3">
    <pattern
       y="0"
       x="0"
       height="6"
       width="6"
       patternUnits="userSpaceOnUse"
       id="EMFhbasepattern" />
  </defs>
  <path
     id="path5"
     d="  M 391.92062,391.38808   L 541.15652,391.38808   L 541.15652,583.2682   L 391.92062,583.2682   L 391.92062,391.38808   z "
     style="fill:none;stroke:#ff0000;stroke-width:5.3258066px;stroke-linecap:butt;stroke-linejoin:miter;stroke-miterlimit:112;stroke-dasharray:none;stroke-opacity:1;" />
  <path
     id="path7"
     d="  M 391.92062,584.36358   L 466.51969,684.53407   L 541.15652,584.36358  "
     style="fill:none;stroke:#ff0000;stroke-width:5.3258066px;stroke-linecap:butt;stroke-linejoin:miter;stroke-miterlimit:112;stroke-dasharray:none;stroke-opacity:1;" />
  <path
     id="path9"
     d="  M 404.6119,455.3733   L 422.21351,409.59403   L 428.71024,409.59403   L 447.44499,455.3733   L 440.57054,455.3733   L 435.20696,441.51109   L 416.09449,441.51109   L 411.03309,455.3733   L 404.6119,455.3733   z  M 417.83199,436.563   L 433.35615,436.563   L 428.55915,423.87172   C 427.12382,420.01901 426.02845,416.84619 425.31078,414.39103   C 424.74421,417.33722 423.91323,420.24564 422.85562,423.11629   L 417.83199,436.563   z "
     style="fill:#ff0000;fill-rule:nonzero;fill-opacity:1;stroke:#ff0000;stroke-width:1.0576069px;stroke-linecap:butt;stroke-linejoin:miter;stroke-miterlimit:112;stroke-dasharray:none;stroke-opacity:1;" />
  <path
     id="path11"
     d="  M 464.02675,455.3733   L 464.02675,414.99538   L 448.91808,414.99538   L 448.91808,409.59403   L 485.21667,409.59403   L 485.21667,414.99538   L 470.07022,414.99538   L 470.07022,455.3733   L 464.02675,455.3733   z "
     style="fill:#ff0000;fill-rule:nonzero;fill-opacity:1;stroke:#ff0000;stroke-width:1.0576069px;stroke-linecap:butt;stroke-linejoin:miter;stroke-miterlimit:112;stroke-dasharray:none;stroke-opacity:1;" />
  <path
     id="path13"
     d="  M 491.44899,455.3733   L 491.44899,409.59403   L 508.74842,409.59403   C 511.77016,409.59403 514.112,409.70734 515.69841,410.00951   C 517.96471,410.38723 519.81552,411.10489 521.36416,412.1625   C 522.87503,413.22011 524.08372,414.6932 525.02801,416.58179   C 525.93453,418.47037 526.42557,420.54781 526.42557,422.81411   C 526.42557,426.7046 525.1791,429.99073 522.68617,432.71029   C 520.23101,435.39208 515.73618,436.75186 509.27722,436.75186   L 497.53023,436.75186   L 497.53023,455.3733   L 491.44899,455.3733   z  M 497.53023,431.35051   L 509.35277,431.35051   C 513.28102,431.35051 516.03836,430.63285 517.70031,429.15975   C 519.36226,427.68666 520.15547,425.64699 520.15547,423.00297   C 520.15547,421.07662 519.70221,419.45243 518.72014,418.09265   C 517.73808,416.73287 516.45384,415.82635 514.9052,415.37309   C 513.88537,415.10869 511.99679,414.99538 509.23945,414.99538   L 497.53023,414.99538   L 497.53023,431.35051   z "
     style="fill:#ff0000;fill-rule:nonzero;fill-opacity:1;stroke:#ff0000;stroke-width:1.0576069px;stroke-linecap:butt;stroke-linejoin:miter;stroke-miterlimit:112;stroke-dasharray:none;stroke-opacity:1;" />
</svg>
