<?xml version="1.0" encoding="UTF-8" standalone="no"?>
<svg
   xmlns:dc="http://purl.org/dc/elements/1.1/"
   xmlns:cc="http://creativecommons.org/ns#"
   xmlns:rdf="http://www.w3.org/1999/02/22-rdf-syntax-ns#"
   xmlns:svg="http://www.w3.org/2000/svg"
   xmlns="http://www.w3.org/2000/svg"
   id="svg15"
   height="112.9mm"
   width="112.9mm"
   version="1.0">
  <metadata
     id="metadata19">
    <rdf:RDF>
      <cc:Work
         rdf:about="">
        <dc:format>image/svg+xml</dc:format>
        <dc:type
           rdf:resource="http://purl.org/dc/dcmitype/StillImage" />
      </cc:Work>
    </rdf:RDF>
  </metadata>
  <defs
     id="defs3">
    <pattern
       y="0"
       x="0"
       height="6"
       width="6"
       patternUnits="userSpaceOnUse"
       id="EMFhbasepattern" />
  </defs>
  <path
     id="path5"
     d="  M 391.92062,391.38808   L 541.15652,391.38808   L 541.15652,583.2682   L 391.92062,583.2682   L 391.92062,391.38808   z "
     style="fill:none;stroke:#ff0000;stroke-width:5.3258066px;stroke-linecap:butt;stroke-linejoin:miter;stroke-miterlimit:112;stroke-dasharray:none;stroke-opacity:1;" />
  <path
     id="path7"
     d="  M 391.92062,584.36358   L 466.51969,684.53407   L 541.15652,584.36358  "
     style="fill:none;stroke:#ff0000;stroke-width:5.3258066px;stroke-linecap:butt;stroke-linejoin:miter;stroke-miterlimit:112;stroke-dasharray:none;stroke-opacity:1;" />
  <path
     id="path9"
     d="  M 404.6119,455.3733   L 422.21351,409.59403   L 428.71024,409.59403   L 447.44499,455.3733   L 440.57054,455.3733   L 435.20696,441.51109   L 416.09449,441.51109   L 411.03309,455.3733   L 404.6119,455.3733   z  M 417.83199,436.563   L 433.35615,436.563   L 428.55915,423.87172   C 427.12382,420.01901 426.02845,416.84619 425.31078,414.39103   C 424.74421,417.33722 423.91323,420.24564 422.85562,423.11629   L 417.83199,436.563   z "
     style="fill:#ff0000;fill-rule:nonzero;fill-opacity:1;stroke:#ff0000;stroke-width:1.0576069px;stroke-linecap:butt;stroke-linejoin:miter;stroke-miterlimit:112;stroke-dasharray:none;stroke-opacity:1;" />
  <path
     id="path11"
     d="  M 450.31564,440.64234   L 456.01916,440.15131   C 456.28356,442.45539 456.92568,444.3062 457.90774,445.77929   C 458.88981,447.25239 460.43844,448.46108 462.51589,449.3676   C 464.59333,450.23635 466.93517,450.68961 469.54142,450.68961   C 471.84549,450.68961 473.88516,450.34967 475.66043,449.66978   C 477.4357,448.98989 478.75771,448.04559 479.62646,446.8369   C 480.49521,445.66598 480.91069,444.34397 480.91069,442.94642   C 480.91069,441.51109 480.49521,440.22686 479.66423,439.16925   C 478.83325,438.11164 477.47347,437.20512 475.54712,436.44969   C 474.30065,435.99643 471.58109,435.24099 467.38843,434.22116   C 463.19578,433.2391 460.24959,432.25703 458.54986,431.38828   C 456.3591,430.21736 454.73492,428.81981 453.67731,427.12008   C 452.58194,425.42036 452.05313,423.53177 452.05313,421.41656   C 452.05313,419.11249 452.69525,416.9595 454.01726,414.91983   C 455.33927,412.91793 457.26562,411.40707 459.75855,410.34946   C 462.28926,409.32962 465.08436,408.80082 468.18164,408.80082   C 471.58109,408.80082 474.56505,409.32962 477.13353,410.425   C 479.73977,411.52038 481.74167,413.14456 483.13922,415.25978   C 484.53678,417.37499 485.25444,419.79238 485.36775,422.47417   L 479.55091,422.92743   C 479.24874,420.01901 478.19113,417.82825 476.41586,416.35516   C 474.60282,414.88206 471.92104,414.12663 468.40827,414.12663   C 464.74442,414.12663 462.1004,414.80652 460.40067,416.1663   C 458.73872,417.48831 457.90774,419.11249 457.90774,421.00107   C 457.90774,422.66303 458.47432,424.02281 459.68301,425.08041   C 460.85393,426.13802 463.87567,427.2334 468.82376,428.32878   C 473.73408,429.46193 477.09575,430.40622 478.94657,431.2372   C 481.59058,432.48366 483.59248,434.0323 484.83895,435.92089   C 486.12319,437.80947 486.7653,439.96245 486.7653,442.41761   C 486.7653,444.87277 486.04764,447.17685 484.65009,449.32983   C 483.25254,451.48282 481.25064,453.14477 478.64439,454.35346   C 476.03815,455.52439 473.09196,456.12873 469.80582,456.12873   C 465.68871,456.12873 462.21371,455.52439 459.41861,454.31569   C 456.62351,453.107 454.39498,451.29396 452.80857,448.87657   C 451.22216,446.45918 450.39118,443.70185 450.31564,440.64234   L 450.31564,440.64234   z "
     style="fill:#ff0000;fill-rule:nonzero;fill-opacity:1;stroke:#ff0000;stroke-width:1.0576069px;stroke-linecap:butt;stroke-linejoin:miter;stroke-miterlimit:112;stroke-dasharray:none;stroke-opacity:1;" />
  <path
     id="path13"
     d="  M 495.07507,455.3733   L 495.07507,409.59403   L 512.3745,409.59403   C 515.39624,409.59403 517.73808,409.70734 519.32449,410.00951   C 521.59079,410.38723 523.4416,411.10489 524.99024,412.1625   C 526.50111,413.22011 527.7098,414.6932 528.6541,416.58179   C 529.56062,418.47037 530.05165,420.54781 530.05165,422.81411   C 530.05165,426.7046 528.80518,429.99073 526.31225,432.71029   C 523.85709,435.39208 519.36226,436.75186 512.90331,436.75186   L 501.15631,436.75186   L 501.15631,455.3733   L 495.07507,455.3733   z  M 501.15631,431.35051   L 512.97885,431.35051   C 516.9071,431.35051 519.66444,430.63285 521.32639,429.15975   C 522.95057,427.68666 523.78155,425.64699 523.78155,423.00297   C 523.78155,421.07662 523.29052,419.45243 522.34623,418.09265   C 521.36416,416.73287 520.07992,415.82635 518.49351,415.37309   C 517.47368,415.10869 515.62287,414.99538 512.86553,414.99538   L 501.15631,414.99538   L 501.15631,431.35051   z "
     style="fill:#ff0000;fill-rule:nonzero;fill-opacity:1;stroke:#ff0000;stroke-width:1.0576069px;stroke-linecap:butt;stroke-linejoin:miter;stroke-miterlimit:112;stroke-dasharray:none;stroke-opacity:1;" />
</svg>
