<?xml version="1.0" encoding="UTF-8" standalone="no"?>
<svg
   xmlns:dc="http://purl.org/dc/elements/1.1/"
   xmlns:cc="http://creativecommons.org/ns#"
   xmlns:rdf="http://www.w3.org/1999/02/22-rdf-syntax-ns#"
   xmlns:svg="http://www.w3.org/2000/svg"
   xmlns="http://www.w3.org/2000/svg"
   id="svg15"
   height="112.9mm"
   width="112.9mm"
   version="1.0">
  <metadata
     id="metadata19">
    <rdf:RDF>
      <cc:Work
         rdf:about="">
        <dc:format>image/svg+xml</dc:format>
        <dc:type
           rdf:resource="http://purl.org/dc/dcmitype/StillImage" />
      </cc:Work>
    </rdf:RDF>
  </metadata>
  <defs
     id="defs3">
    <pattern
       y="0"
       x="0"
       height="6"
       width="6"
       patternUnits="userSpaceOnUse"
       id="EMFhbasepattern" />
  </defs>
  <path
     id="path5"
     d="  M 451.74134,451.72623   L 600.99177,451.72623   L 600.99177,643.62504   L 451.74134,643.62504   L 451.74134,451.72623   z "
     style="fill:none;stroke:#000000;stroke-width:5.3263254px;stroke-linecap:butt;stroke-linejoin:miter;stroke-miterlimit:112;stroke-dasharray:none;stroke-opacity:1;" />
  <path
     id="path7"
     d="  M 451.74134,644.72053   L 526.34767,744.90078   L 600.99177,644.72053  "
     style="fill:none;stroke:#000000;stroke-width:5.3263254px;stroke-linecap:butt;stroke-linejoin:miter;stroke-miterlimit:112;stroke-dasharray:none;stroke-opacity:1;" />
  <path
     id="path9"
     d="  M 464.43386,515.71768   L 482.03717,469.93395   L 488.53454,469.93395   L 507.27111,515.71768   L 500.396,515.71768   L 495.0319,501.85413   L 475.91757,501.85413   L 470.85567,515.71768   L 464.43386,515.71768   z  M 477.65523,496.90555   L 493.1809,496.90555   L 488.38343,484.21303   C 486.94797,480.35995 485.85248,477.18682 485.13475,474.73142   C 484.56812,477.6779 483.73706,480.5866 482.67935,483.45753   L 477.65523,496.90555   z "
     style="fill:#000000;fill-rule:nonzero;fill-opacity:1;stroke:#000000;stroke-width:1.0577101px;stroke-linecap:butt;stroke-linejoin:miter;stroke-miterlimit:112;stroke-dasharray:none;stroke-opacity:1;" />
  <path
     id="path11"
     d="  M 510.14204,500.98529   L 515.84612,500.49421   C 516.11055,502.79851 516.75273,504.6495 517.73489,506.12274   C 518.71705,507.59598 520.26584,508.80479 522.34348,509.7114   C 524.42112,510.58023 526.7632,511.03354 529.3697,511.03354   C 531.67399,511.03354 533.71386,510.69356 535.4893,510.0136   C 537.26475,509.33365 538.58688,508.38926 539.45572,507.18045   C 540.32455,506.00942 540.74008,504.68728 540.74008,503.28959   C 540.74008,501.85413 540.32455,500.56976 539.49349,499.51205   C 538.66243,498.45434 537.30252,497.54774 535.37598,496.79223   C 534.12939,496.33892 531.40957,495.58342 527.2165,494.56348   C 523.02344,493.58132 520.07696,492.59916 518.37707,491.73033   C 516.1861,490.55929 514.56176,489.16161 513.50405,487.46171   C 512.40856,485.76182 511.87971,483.87306 511.87971,481.75764   C 511.87971,479.45334 512.52189,477.30014 513.84402,475.26027   C 515.16616,473.25818 517.09271,471.74717 519.58588,470.68946   C 522.11683,469.66952 524.9122,469.14067 528.00978,469.14067   C 531.40957,469.14067 534.39382,469.66952 536.96254,470.76501   C 539.56904,471.86049 541.57114,473.48483 542.96883,475.60025   C 544.36651,477.71567 545.08425,480.1333 545.19757,482.81535   L 539.38017,483.26865   C 539.07796,480.35995 538.02025,478.16898 536.24481,476.69574   C 534.43159,475.2225 531.74954,474.46699 528.23644,474.46699   C 524.57223,474.46699 521.92795,475.14695 520.22806,476.50686   C 518.56594,477.829 517.73489,479.45334 517.73489,481.34211   C 517.73489,483.00422 518.30152,484.36414 519.51033,485.42185   C 520.68136,486.47956 523.70339,487.57504 528.65196,488.67053   C 533.56276,489.80379 536.92477,490.74817 538.77576,491.57923   C 541.42004,492.82582 543.42213,494.37461 544.66872,496.26337   C 545.95308,498.15214 546.59526,500.30534 546.59526,502.76073   C 546.59526,505.21613 545.87753,507.52043 544.47984,509.67363   C 543.08215,511.82682 541.08006,513.48894 538.47356,514.69775   C 535.86706,515.86878 532.92058,516.47319 529.63412,516.47319   C 525.51661,516.47319 522.04128,515.86878 519.2459,514.65997   C 516.45052,513.45116 514.22178,511.63794 512.63521,509.22032   C 511.04865,506.8027 510.21759,504.0451 510.14204,500.98529   L 510.14204,500.98529   z "
     style="fill:#000000;fill-rule:nonzero;fill-opacity:1;stroke:#000000;stroke-width:1.0577101px;stroke-linecap:butt;stroke-linejoin:miter;stroke-miterlimit:112;stroke-dasharray:none;stroke-opacity:1;" />
  <path
     id="path13"
     d="  M 554.90584,515.71768   L 554.90584,469.93395   L 572.20695,469.93395   C 575.22898,469.93395 577.57105,470.04728 579.15762,470.34948   C 581.42414,470.72723 583.27513,471.44496 584.82392,472.50267   C 586.33494,473.56038 587.54375,475.03362 588.48813,476.92239   C 589.39474,478.81116 589.88582,480.8888 589.88582,483.15532   C 589.88582,487.04619 588.63923,490.33264 586.14606,493.05247   C 583.69066,495.73452 579.19539,497.09443 572.73581,497.09443   L 560.98767,497.09443   L 560.98767,515.71768   L 554.90584,515.71768   z  M 560.98767,491.69255   L 572.81136,491.69255   C 576.74,491.69255 579.4976,490.97482 581.15971,489.50158   C 582.78405,488.02835 583.61511,485.98848 583.61511,483.3442   C 583.61511,481.41766 583.12403,479.79332 582.17965,478.4334   C 581.19749,477.07349 579.91313,476.16688 578.32656,475.71358   C 577.30663,475.44915 575.45563,475.33583 572.69803,475.33583   L 560.98767,475.33583   L 560.98767,491.69255   z "
     style="fill:#000000;fill-rule:nonzero;fill-opacity:1;stroke:#000000;stroke-width:1.0577101px;stroke-linecap:butt;stroke-linejoin:miter;stroke-miterlimit:112;stroke-dasharray:none;stroke-opacity:1;" />
</svg>
