<?xml version="1.0" encoding="UTF-8" standalone="no"?>
<svg
   xmlns:dc="http://purl.org/dc/elements/1.1/"
   xmlns:cc="http://creativecommons.org/ns#"
   xmlns:rdf="http://www.w3.org/1999/02/22-rdf-syntax-ns#"
   xmlns:svg="http://www.w3.org/2000/svg"
   xmlns="http://www.w3.org/2000/svg"
   id="svg15"
   height="112.9mm"
   width="112.9mm"
   version="1.0">
  <metadata
     id="metadata19">
    <rdf:RDF>
      <cc:Work
         rdf:about="">
        <dc:format>image/svg+xml</dc:format>
        <dc:type
           rdf:resource="http://purl.org/dc/dcmitype/StillImage" />
      </cc:Work>
    </rdf:RDF>
  </metadata>
  <defs
     id="defs3">
    <pattern
       y="0"
       x="0"
       height="6"
       width="6"
       patternUnits="userSpaceOnUse"
       id="EMFhbasepattern" />
  </defs>
  <path
     id="path5"
     d="  M 1055.3824,1055.5085   L 1203.488,1055.5085   L 1203.488,1246.2484   L 1055.3824,1246.2484   z "
     style="fill:none;stroke:#00ff00;stroke-width:5.3245535px;stroke-linecap:butt;stroke-linejoin:miter;stroke-miterlimit:282;stroke-dasharray:none;stroke-opacity:1;" />
  <path
     id="path7"
     d="  M 1055.3824,1248.4386   L 1129.9639,1348.5855   L 1204.5832,1248.4386  "
     style="fill:none;stroke:#00ff00;stroke-width:5.3245535px;stroke-linecap:butt;stroke-linejoin:miter;stroke-miterlimit:282;stroke-dasharray:none;stroke-opacity:1;" />
  <path
     id="path9"
     d="  M 1067.2777,1119.4787   L 1084.8751,1073.7102   L 1091.3703,1073.7102   L 1110.1384,1119.4787   L 1103.2278,1119.4787   L 1097.8655,1105.6197   L 1078.7576,1105.6197   L 1073.7351,1119.4787   z  M 1080.4946,1100.6728   L 1096.0151,1100.6728   L 1091.2193,1087.9845   C 1089.7843,1084.1327 1088.6892,1080.9606 1087.9717,1078.5061   C 1087.4052,1081.4516 1086.5744,1084.3593 1085.5171,1087.2293   z "
     style="fill:#00ff00;fill-rule:nonzero;fill-opacity:1;stroke:#00ff00;stroke-width:1.0573581px;stroke-linecap:butt;stroke-linejoin:miter;stroke-miterlimit:282;stroke-dasharray:none;stroke-opacity:1;" />
  <path
     id="path11"
     d="  M 1112.9706,1104.7512   L 1118.6728,1104.2603   C 1118.9372,1106.5638 1119.5791,1108.4142 1120.561,1109.8869   C 1121.5428,1111.3597 1123.0911,1112.5681 1125.168,1113.4744   C 1127.245,1114.3429 1129.5863,1114.7961 1132.1919,1114.7961   C 1134.4954,1114.7961 1136.5346,1114.4562 1138.3095,1113.7765   C 1140.0843,1113.0968 1141.406,1112.1527 1142.2746,1110.9443   C 1143.1431,1109.7737 1143.5585,1108.452 1143.5585,1107.0547   C 1143.5585,1105.6197 1143.1431,1104.3358 1142.3123,1103.2785   C 1141.4815,1102.2211 1140.1221,1101.3148 1138.1962,1100.5595   C 1136.95,1100.1064 1134.2311,1099.3511 1130.0394,1098.3315   C 1125.8478,1097.3497 1122.9023,1096.3679 1121.2029,1095.4993   C 1119.0127,1094.3287 1117.3889,1092.9314 1116.3315,1091.2321   C 1115.2364,1089.5328 1114.7077,1087.6447 1114.7077,1085.5299   C 1114.7077,1083.2264 1115.3497,1081.0739 1116.6714,1079.0347   C 1117.9931,1077.0333 1119.919,1075.5228 1122.4113,1074.4654   C 1124.9414,1073.4458 1127.7359,1072.9172 1130.8324,1072.9172   C 1134.2311,1072.9172 1137.2143,1073.4458 1139.7822,1074.541   C 1142.3879,1075.6361 1144.3893,1077.2599 1145.7865,1079.3746   C 1147.1837,1081.4893 1147.939,1083.9061 1148.0145,1086.5873   L 1142.2368,1087.0405   C 1141.8969,1084.1327 1140.8396,1081.9425 1139.0647,1080.4697   C 1137.2521,1078.997 1134.6087,1078.2417 1131.059,1078.2417   C 1127.396,1078.2417 1124.7526,1078.9215 1123.0533,1080.2809   C 1121.3917,1081.6026 1120.561,1083.2264 1120.561,1085.1145   C 1120.561,1086.7761 1121.1274,1088.1356 1122.3358,1089.1929   C 1123.5065,1090.2503 1126.5275,1091.3454 1131.4744,1092.4405   C 1136.3836,1093.5734 1139.7822,1094.5175 1141.5948,1095.3483   C 1144.276,1096.5944 1146.2397,1098.1427 1147.4858,1100.0309   C 1148.7698,1101.919 1149.4117,1104.0715 1149.4117,1106.5261   C 1149.4117,1108.9806 1148.6942,1111.2842 1147.297,1113.4366   C 1145.8998,1115.5891 1143.8984,1117.2507 1141.2927,1118.4591   C 1138.6871,1119.6297 1135.7416,1120.2339 1132.494,1120.2339   C 1128.3401,1120.2339 1124.8659,1119.6297 1122.0715,1118.4213   C 1119.277,1117.2129 1117.0868,1115.4003 1115.463,1112.9835   C 1113.8769,1110.5667 1113.0462,1107.81 1112.9706,1104.7512   z "
     style="fill:#00ff00;fill-rule:nonzero;fill-opacity:1;stroke:#00ff00;stroke-width:1.0573581px;stroke-linecap:butt;stroke-linejoin:miter;stroke-miterlimit:282;stroke-dasharray:none;stroke-opacity:1;" />
  <path
     id="path13"
     d="  M 1157.7195,1119.4787   L 1157.7195,1073.7102   L 1175.0149,1073.7102   C 1178.0359,1073.7102 1180.3772,1073.8235 1181.9633,1074.1256   C 1184.229,1074.5032 1186.1172,1075.2207 1187.6277,1076.2781   C 1189.1382,1077.3354 1190.3466,1078.8082 1191.2907,1080.6963   C 1192.197,1082.5844 1192.6879,1084.6614 1192.6879,1086.9272   C 1192.6879,1090.8167 1191.4417,1094.1021 1188.9494,1096.821   C 1186.4948,1099.5022 1182.001,1100.8616 1175.5436,1100.8616   L 1163.7994,1100.8616   L 1163.7994,1119.4787   z  M 1163.7994,1095.4616   L 1175.6191,1095.4616   C 1179.5464,1095.4616 1182.3031,1094.7441 1183.9647,1093.2713   C 1185.6262,1091.7986 1186.4193,1089.7594 1186.4193,1087.116   C 1186.4193,1085.1901 1185.9661,1083.5663 1184.9843,1082.2068   C 1184.0024,1080.8474 1182.7185,1079.941 1181.1702,1079.4879   C 1180.1506,1079.2236 1178.2625,1079.1103 1175.5058,1079.1103   L 1163.7994,1079.1103   z "
     style="fill:#00ff00;fill-rule:nonzero;fill-opacity:1;stroke:#00ff00;stroke-width:1.0573581px;stroke-linecap:butt;stroke-linejoin:miter;stroke-miterlimit:282;stroke-dasharray:none;stroke-opacity:1;" />
</svg>
