<?xml version="1.0" encoding="UTF-8" standalone="no"?>
<svg
   xmlns:dc="http://purl.org/dc/elements/1.1/"
   xmlns:cc="http://creativecommons.org/ns#"
   xmlns:rdf="http://www.w3.org/1999/02/22-rdf-syntax-ns#"
   xmlns:svg="http://www.w3.org/2000/svg"
   xmlns="http://www.w3.org/2000/svg"
   id="svg21"
   height="116.73mm"
   width="116.73mm"
   version="1.0">
  <metadata
     id="metadata25">
    <rdf:RDF>
      <cc:Work
         rdf:about="">
        <dc:format>image/svg+xml</dc:format>
        <dc:type
           rdf:resource="http://purl.org/dc/dcmitype/StillImage" />
      </cc:Work>
    </rdf:RDF>
  </metadata>
  <defs
     id="defs3">
    <pattern
       y="0"
       x="0"
       height="6"
       width="6"
       patternUnits="userSpaceOnUse"
       id="EMFhbasepattern" />
  </defs>
  <path
     id="path5"
     d="  M 172.6265,43.156626   L 172.6265,100.69879   L 268.53012,100.69879   L 268.53012,43.156626   L 172.6265,43.156626   z "
     style="fill:#000000;fill-rule:evenodd;fill-opacity:1;stroke:none;" />
  <path
     id="path7"
     d="  M 220.57831,386.49156   L 220.57831,386.49156   L 386.49156,220.57831   L 220.57831,54.665059   L 54.665059,220.57831   L 220.57831,386.49156   z "
     style="fill:#ff8080;fill-rule:evenodd;fill-opacity:1;stroke:none;" />
  <path
     id="path9"
     d="  M 220.57831,386.49156   L 220.57831,386.49156   L 386.49156,220.57831   L 220.57831,54.665059   L 54.665059,220.57831   L 220.57831,386.49156  "
     style="fill:none;stroke:#000000;stroke-width:9.5903616px;stroke-linecap:butt;stroke-linejoin:miter;stroke-miterlimit:10;stroke-dasharray:none;stroke-opacity:1;" />
  <path
     id="path11"
     d="  M 272.20642,236.24257   C 272.20642,234.36445 272.20642,231.64719 271.20743,230.80803   z "
     style="fill:#489cbf;fill-rule:evenodd;fill-opacity:1;stroke:none;" />
  <path
     id="path13"
     d="  M 310.76767,246.63212   C 311.76666,245.83293 311.76666,243.0757 311.76666,241.19759   z "
     style="fill:#489cbf;fill-rule:evenodd;fill-opacity:1;stroke:none;" />
  <path
     id="path15"
     d="  M 271.20743,230.80803   C 272.20642,231.64719 272.20642,234.36445 272.20642,236.24257   L 274.68393,256.02269   L 274.68393,257.5012   L 305.77269,257.5012   L 309.76867,225.85301   L 270.68795,225.85301   z "
     style="fill:#ffffff;fill-rule:evenodd;fill-opacity:1;stroke:none;" />
  <path
     id="path17"
     d="  M 275.60301,177.34176   C 267.77088,175.58353 264.73393,178.26084 259.33935,181.85723   L 255.90281,181.85723   C 255.14357,182.93614 254.46425,184.81425 252.90582,184.81425   L 250.42831,184.81425   C 245.19357,184.81425 241.03775,180.37871 236.60221,180.37871   L 235.12369,180.37871   C 233.04578,180.37871 230.12871,182.33674 225.73313,182.33674   C 213.38554,182.33674 216.34257,182.89618 206.51245,185.89317   C 201.83715,187.29176 191.52751,187.81124 185.17389,187.81124   L 172.8263,187.81124   C 166.15301,187.81124 160.91827,186.29277 155.52369,186.29277   C 149.25,186.33273 144.29498,186.81225 137.7016,186.81225   C 136.54277,186.81225 136.42289,186.65241 135.74357,186.29277   C 130.06928,189.28976 128.27108,196.48253 128.31104,205.11385   C 128.351,213.6253 126.83253,220.25863 126.83253,229.32951   L 126.83253,229.80903   C 126.83253,231.16767 127.07229,231.16767 127.31205,232.28654   L 129.70964,231.52731   L 129.78956,230.32851   L 130.78855,230.32851   L 131.42791,201.15783   L 131.78755,201.15783   C 131.78755,205.95301 132.06727,212.0269 133.26606,215.50341   C 134.26506,218.42048 137.22209,224.49437 137.22209,227.33152   L 137.22209,227.851   L 133.30602,259.49919   L 142.17711,259.49919   C 142.17711,256.10261 141.17811,256.86184 141.17811,254.54417   L 141.17811,249.58915   C 141.17811,246.27249 143.65562,239.43935 146.61265,239.19959   C 147.45181,242.91586 154.5247,248.11064 154.5247,255.54317   L 154.5247,257.02168   C 154.5247,258.34036 154.28494,258.38032 154.04518,259.49919   C 155.12409,259.21947 155.16405,258.97972 156.48273,258.97972   C 159.31988,258.97972 164.91425,260.65803 164.91425,258.02068   C 164.91425,257.34136 160.27891,250.46827 159.55964,249.50923   C 158.68052,248.39036 156.48273,240.87791 156.48273,239.19959   L 156.48273,238.72008   C 156.48273,238.24056 159.47972,233.1257 159.47972,227.33152   C 169.18996,232.48634 167.91124,233.76506 183.21586,233.76506   C 188.41064,233.76506 193.3257,234.92389 197.56144,234.80401   C 200.07891,234.72409 205.43353,231.48735 207.91104,230.32851   C 207.91104,233.16566 208.7502,235.96285 208.43052,238.24056   L 205.55341,257.54116   C 207.83112,258.06064 209.3496,258.97972 212.38654,258.97972   L 213.86506,258.97972   L 213.30562,258.93976   L 214.98393,231.80702   C 216.42249,232.84598 221.65723,248.78996 221.25763,252.06666   L 220.65823,257.5012   C 222.45642,258.38032 224.09478,258.97972 226.69217,258.97972   L 229.16968,258.97972   L 226.45241,241.15763   L 226.21265,239.19959   C 226.21265,237.0018 230.12871,237.52128 232.16666,236.24257   C 233.44538,235.48333 235.40341,233.44538 236.40241,232.08674   C 239.03976,228.57028 241.07771,225.73313 243.71506,222.09678   C 253.14558,209.10984 252.18654,216.26265 268.2504,212.50642   L 268.2504,211.02791   L 272.20642,211.02791   C 274.64397,211.02791 276.64196,209.02992 276.64196,206.59237   L 276.64196,205.59337   C 276.64196,199.79919 270.72791,199.55943 270.72791,192.24678   L 262.7759,184.25482   z "
     style="fill:#000000;fill-rule:evenodd;fill-opacity:1;stroke:none;" />
  <path
     id="path19"
     d="  M 272.20642,236.24257   L 271.20743,230.80803   L 270.68795,225.85301   L 309.76867,225.85301   L 305.77269,257.5012   L 274.68393,257.5012   L 274.68393,256.02269   L 272.20642,236.24257  z    M 310.76767,246.63212   L 311.76666,241.19759   L 313.88453,226.37249   L 313.72469,222.41646   L 266.77188,222.41646   L 270.04859,248.07068   L 270.80783,249.54919   L 271.88674,259.97871   L 271.68694,261.45723   L 309.28915,261.45723   L 309.28915,257.5012   L 310.76767,246.63212  z   "
     style="fill:#000000;fill-rule:evenodd;fill-opacity:1;stroke:none;" />
</svg>
