<?xml version="1.0" encoding="UTF-8" standalone="no"?>
<svg
   xmlns:dc="http://purl.org/dc/elements/1.1/"
   xmlns:cc="http://creativecommons.org/ns#"
   xmlns:rdf="http://www.w3.org/1999/02/22-rdf-syntax-ns#"
   xmlns:svg="http://www.w3.org/2000/svg"
   xmlns="http://www.w3.org/2000/svg"
   id="svg21"
   height="89.669998mm"
   width="120.11mm"
   version="1.0">
  <metadata
     id="metadata25">
    <rdf:RDF>
      <cc:Work
         rdf:about="">
        <dc:format>image/svg+xml</dc:format>
        <dc:type
           rdf:resource="http://purl.org/dc/dcmitype/StillImage" />
      </cc:Work>
    </rdf:RDF>
  </metadata>
  <defs
     id="defs3">
    <pattern
       y="0"
       x="0"
       height="6"
       width="6"
       patternUnits="userSpaceOnUse"
       id="EMFhbasepattern" />
  </defs>
  <path
     id="path5"
     d="  M 179.02008,15.983936   L 179.02008,54.345381   L 274.92369,54.345381   L 274.92369,15.983936   L 179.02008,15.983936   z "
     style="fill:#000000;fill-rule:evenodd;fill-opacity:1;stroke:none;" />
  <path
     id="path7"
     d="  M 54.345381,54.345381   L 54.345381,284.51405   L 399.59839,284.51405   L 399.59839,54.345381   L 54.345381,54.345381   z "
     style="fill:#80e0ff;fill-rule:evenodd;fill-opacity:1;stroke:none;" />
  <path
     id="path9"
     d="  M 54.345381,54.345381   L 399.59839,54.345381   L 399.59839,284.51405   L 54.345381,284.51405   z "
     style="fill:none;stroke:#000000;stroke-width:9.5903616px;stroke-linecap:butt;stroke-linejoin:miter;stroke-miterlimit:10;stroke-dasharray:none;stroke-opacity:1;" />
  <path
     id="path11"
     d="  M 278.6,185.09397   C 278.6,183.21586 278.6,180.49859 277.601,179.65944   z "
     style="fill:#489cbf;fill-rule:evenodd;fill-opacity:1;stroke:none;" />
  <path
     id="path13"
     d="  M 317.16124,195.48353   C 318.16024,194.68433 318.16024,191.92711 318.16024,190.04899   z "
     style="fill:#489cbf;fill-rule:evenodd;fill-opacity:1;stroke:none;" />
  <path
     id="path15"
     d="  M 277.601,179.65944   C 278.6,180.49859 278.6,183.21586 278.6,185.09397   L 281.07751,204.87409   L 281.07751,206.35261   L 312.16626,206.35261   L 316.16224,174.70442   L 277.08152,174.70442   z "
     style="fill:#ffffff;fill-rule:evenodd;fill-opacity:1;stroke:none;" />
  <path
     id="path17"
     d="  M 281.99658,126.19317   C 274.16445,124.43494 271.12751,127.11225 265.73293,130.70863   L 262.29638,130.70863   C 261.53714,131.78755 260.85783,133.66566 259.29939,133.66566   L 256.82188,133.66566   C 251.58714,133.66566 247.43132,129.23012 242.99578,129.23012   L 241.51727,129.23012   C 239.43935,129.23012 236.52229,131.18815 232.1267,131.18815   C 219.77911,131.18815 222.73614,131.74759 212.90602,134.74458   C 208.23072,136.14317 197.92108,136.66265 191.56747,136.66265   L 179.21988,136.66265   C 172.54658,136.66265 167.31184,135.14417 161.91727,135.14417   C 155.64357,135.18413 150.68855,135.66365 144.09518,135.66365   C 142.93634,135.66365 142.81646,135.50381 142.13715,135.14417   C 136.46285,138.14116 134.66466,145.33393 134.70462,153.96526   C 134.74458,162.4767 133.2261,169.11004 133.2261,178.18092   L 133.2261,178.66044   C 133.2261,180.01907 133.46586,180.01907 133.70562,181.13795   L 136.10321,180.37871   L 136.18313,179.17992   L 137.18213,179.17992   L 137.82148,150.00923   L 138.18112,150.00923   C 138.18112,154.80442 138.46084,160.87831 139.65964,164.35482   C 140.65863,167.27189 143.61566,173.34578 143.61566,176.18293   L 143.61566,176.70241   L 139.6996,208.3506   L 148.57068,208.3506   C 148.57068,204.95401 147.57168,205.71325 147.57168,203.39558   L 147.57168,198.44056   C 147.57168,195.12389 150.04919,188.29076 153.00622,188.051   C 153.84538,191.76727 160.91827,196.96205 160.91827,204.39458   L 160.91827,205.87309   C 160.91827,207.19176 160.67851,207.23172 160.43875,208.3506   C 161.51767,208.07088 161.55763,207.83112 162.8763,207.83112   C 165.71345,207.83112 171.30783,209.50943 171.30783,206.87209   C 171.30783,206.19277 166.67249,199.31968 165.95321,198.36064   C 165.07409,197.24176 162.8763,189.72931 162.8763,188.051   L 162.8763,187.57148   C 162.8763,187.09197 165.87329,181.97711 165.87329,176.18293   C 175.58353,181.33775 174.30482,182.61646 189.60944,182.61646   C 194.80421,182.61646 199.71927,183.7753 203.95502,183.65542   C 206.47249,183.5755 211.82711,180.33875 214.30462,179.17992   C 214.30462,182.01707 215.14377,184.81425 214.82409,187.09197   L 211.94698,206.39257   C 214.2247,206.91205 215.74317,207.83112 218.78012,207.83112   L 220.25863,207.83112   L 219.69919,207.79116   L 221.37751,180.65843   C 222.81606,181.69739 228.0508,197.64136 227.6512,200.91807   L 227.0518,206.35261   C 228.85,207.23172 230.48835,207.83112 233.08574,207.83112   L 235.56325,207.83112   L 232.84598,190.00903   L 232.60622,188.051   C 232.60622,185.85321 236.52229,186.37269 238.56024,185.09397   C 239.83895,184.33474 241.79698,182.29678 242.79598,180.93815   C 245.43333,177.42168 247.47128,174.58454 250.10863,170.94819   C 259.53915,157.96124 258.58012,165.11405 274.64397,161.35783   L 274.64397,159.87931   L 278.6,159.87931   C 281.03755,159.87931 283.03554,157.88132 283.03554,155.44377   L 283.03554,154.44478   C 283.03554,148.6506 277.12148,148.41084 277.12148,141.09819   L 269.16947,133.10622   z "
     style="fill:#000000;fill-rule:evenodd;fill-opacity:1;stroke:none;" />
  <path
     id="path19"
     d="  M 278.6,185.09397   L 277.601,179.65944   L 277.08152,174.70442   L 316.16224,174.70442   L 312.16626,206.35261   L 281.07751,206.35261   L 281.07751,204.87409   L 278.6,185.09397  z    M 317.16124,195.48353   L 318.16024,190.04899   L 320.27811,175.22389   L 320.11827,171.26787   L 273.16546,171.26787   L 276.44216,196.92209   L 277.2014,198.4006   L 278.28032,208.83012   L 278.08052,210.30863   L 315.68273,210.30863   L 315.68273,206.35261   L 317.16124,195.48353  z   "
     style="fill:#000000;fill-rule:evenodd;fill-opacity:1;stroke:none;" />
</svg>
