<?xml version="1.0" encoding="UTF-8" standalone="no"?>
<svg
   xmlns:dc="http://purl.org/dc/elements/1.1/"
   xmlns:cc="http://creativecommons.org/ns#"
   xmlns:rdf="http://www.w3.org/1999/02/22-rdf-syntax-ns#"
   xmlns:svg="http://www.w3.org/2000/svg"
   xmlns="http://www.w3.org/2000/svg"
   id="svg21"
   height="95.75mm"
   width="95.75mm"
   version="1.0">
  <metadata
     id="metadata25">
    <rdf:RDF>
      <cc:Work
         rdf:about="">
        <dc:format>image/svg+xml</dc:format>
        <dc:type
           rdf:resource="http://purl.org/dc/dcmitype/StillImage" />
      </cc:Work>
    </rdf:RDF>
  </metadata>
  <defs
     id="defs3">
    <pattern
       y="0"
       x="0"
       height="6"
       width="6"
       patternUnits="userSpaceOnUse"
       id="EMFhbasepattern" />
  </defs>
  <path
     id="path5"
     d="  M 132.98634,15.983936   L 132.98634,54.345381   L 228.88996,54.345381   L 228.88996,15.983936   L 132.98634,15.983936   z "
     style="fill:#000000;fill-rule:evenodd;fill-opacity:1;stroke:none;" />
  <path
     id="path7"
     d="  M 54.345381,54.345381   L 54.345381,307.53092   L 307.53092,307.53092   L 307.53092,54.345381   L 54.345381,54.345381   z "
     style="fill:#aaffaa;fill-rule:evenodd;fill-opacity:1;stroke:none;" />
  <path
     id="path9"
     d="  M 54.345381,54.345381   L 307.53092,54.345381   L 307.53092,307.53092   L 54.345381,307.53092   z "
     style="fill:none;stroke:#000000;stroke-width:9.5903616px;stroke-linecap:butt;stroke-linejoin:miter;stroke-miterlimit:10;stroke-dasharray:none;stroke-opacity:1;" />
  <path
     id="path11"
     d="  M 232.56626,196.60241   C 232.56626,194.72429 232.56626,192.00703 231.56727,191.16787   z "
     style="fill:#489cbf;fill-rule:evenodd;fill-opacity:1;stroke:none;" />
  <path
     id="path13"
     d="  M 271.12751,206.99196   C 272.1265,206.19277 272.1265,203.43554 272.1265,201.55743   z "
     style="fill:#489cbf;fill-rule:evenodd;fill-opacity:1;stroke:none;" />
  <path
     id="path15"
     d="  M 231.56727,191.16787   C 232.56626,192.00703 232.56626,194.72429 232.56626,196.60241   L 235.04377,216.38253   L 235.04377,217.86104   L 266.13253,217.86104   L 270.12851,186.21285   L 231.04779,186.21285   z "
     style="fill:#ffffff;fill-rule:evenodd;fill-opacity:1;stroke:none;" />
  <path
     id="path17"
     d="  M 235.96285,137.7016   C 228.13072,135.94337 225.09377,138.62068 219.69919,142.21707   L 216.26265,142.21707   C 215.50341,143.29598 214.82409,145.17409 213.26566,145.17409   L 210.78815,145.17409   C 205.55341,145.17409 201.39759,140.73855 196.96205,140.73855   L 195.48353,140.73855   C 193.40562,140.73855 190.48855,142.69658 186.09297,142.69658   C 173.74538,142.69658 176.70241,143.25602 166.87229,146.25301   C 162.19699,147.6516 151.88735,148.17108 145.53373,148.17108   L 133.18614,148.17108   C 126.51285,148.17108 121.27811,146.65261 115.88353,146.65261   C 109.60984,146.69257 104.65482,147.17209 98.061444,147.17209   C 96.902609,147.17209 96.78273,147.01225 96.103412,146.65261   C 90.429115,149.6496 88.630922,156.84237 88.670882,165.47369   C 88.710842,173.98514 87.192368,180.61847 87.192368,189.68935   L 87.192368,190.16887   C 87.192368,191.52751 87.432127,191.52751 87.671886,192.64638   L 90.069477,191.88715   L 90.149396,190.68835   L 91.148392,190.68835   L 91.78775,161.51767   L 92.147388,161.51767   C 92.147388,166.31285 92.427107,172.38674 93.625902,175.86325   C 94.624898,178.78032 97.581926,184.85421 97.581926,187.69136   L 97.581926,188.21084   L 93.665862,219.85903   L 102.53695,219.85903   C 102.53695,216.46245 101.53795,217.22168 101.53795,214.90401   L 101.53795,209.94899   C 101.53795,206.63233 104.01546,199.79919 106.97249,199.55943   C 107.81165,203.2757 114.88454,208.47048 114.88454,215.90301   L 114.88454,217.38152   C 114.88454,218.7002 114.64478,218.74016 114.40502,219.85903   C 115.48393,219.57931 115.52389,219.33956 116.84257,219.33956   C 119.67972,219.33956 125.27409,221.01787 125.27409,218.38052   C 125.27409,217.7012 120.63875,210.82811 119.91948,209.86907   C 119.04036,208.7502 116.84257,201.23775 116.84257,199.55943   L 116.84257,199.07992   C 116.84257,198.6004 119.83956,193.48554 119.83956,187.69136   C 129.5498,192.84618 128.27108,194.1249 143.5757,194.1249   C 148.77048,194.1249 153.68554,195.28373 157.92128,195.16385   C 160.43875,195.08393 165.79337,191.84719 168.27088,190.68835   C 168.27088,193.5255 169.11004,196.32269 168.79036,198.6004   L 165.91325,217.901   C 168.19096,218.42048 169.70944,219.33956 172.74638,219.33956   L 174.2249,219.33956   L 173.66546,219.2996   L 175.34377,192.16686   C 176.78233,193.20582 182.01707,209.1498 181.61747,212.4265   L 181.01807,217.86104   C 182.81626,218.74016 184.45462,219.33956 187.05201,219.33956   L 189.52952,219.33956   L 186.81225,201.51747   L 186.57249,199.55943   C 186.57249,197.36164 190.48855,197.88112 192.5265,196.60241   C 193.80522,195.84317 195.76325,193.80522 196.76225,192.44658   C 199.3996,188.93012 201.43755,186.09297 204.0749,182.45662   C 213.50542,169.46968 212.54638,176.62249 228.61024,172.86626   L 228.61024,171.38775   L 232.56626,171.38775   C 235.00381,171.38775 237.0018,169.38976 237.0018,166.95221   L 237.0018,165.95321   C 237.0018,160.15903 231.08775,159.91927 231.08775,152.60662   L 223.13574,144.61466   z "
     style="fill:#000000;fill-rule:evenodd;fill-opacity:1;stroke:none;" />
  <path
     id="path19"
     d="  M 232.56626,196.60241   L 231.56727,191.16787   L 231.04779,186.21285   L 270.12851,186.21285   L 266.13253,217.86104   L 235.04377,217.86104   L 235.04377,216.38253   L 232.56626,196.60241  z    M 271.12751,206.99196   L 272.1265,201.55743   L 274.24437,186.73233   L 274.08453,182.7763   L 227.13172,182.7763   L 230.40843,208.43052   L 231.16767,209.90903   L 232.24658,220.33855   L 232.04678,221.81707   L 269.64899,221.81707   L 269.64899,217.86104   L 271.12751,206.99196  z   "
     style="fill:#000000;fill-rule:evenodd;fill-opacity:1;stroke:none;" />
</svg>
