<?xml version="1.0" encoding="UTF-8" standalone="no"?>
<svg
   xmlns:dc="http://purl.org/dc/elements/1.1/"
   xmlns:cc="http://creativecommons.org/ns#"
   xmlns:rdf="http://www.w3.org/1999/02/22-rdf-syntax-ns#"
   xmlns:svg="http://www.w3.org/2000/svg"
   xmlns="http://www.w3.org/2000/svg"
   id="svg9"
   height="112.9mm"
   width="112.9mm"
   version="1.0">
  <metadata
     id="metadata13">
    <rdf:RDF>
      <cc:Work
         rdf:about="">
        <dc:format>image/svg+xml</dc:format>
        <dc:type
           rdf:resource="http://purl.org/dc/dcmitype/StillImage" />
      </cc:Work>
    </rdf:RDF>
  </metadata>
  <defs
     id="defs3">
    <pattern
       y="0"
       x="0"
       height="6"
       width="6"
       patternUnits="userSpaceOnUse"
       id="EMFhbasepattern" />
  </defs>
  <path
     id="path5"
     d="  M 582.49721,493.41018   C 582.49721,519.76861 573.58519,541.93537 555.68563,559.87269   C 537.78607,577.77225 515.69484,586.72203 489.37417,586.72203   C 463.35561,586.72203 441.30214,577.69673 423.28929,559.64611   C 405.27644,541.5955 396.25113,519.50427 396.25113,493.41018   C 396.25113,467.05175 405.20091,444.80947 423.10048,426.75886   C 440.96228,408.70824 463.09127,399.68294 489.37417,399.68294   C 515.4305,399.68294 537.48397,408.78377 555.49682,426.98543   C 573.50967,445.14934 582.49721,467.27833 582.49721,493.41018   z  M 575.32228,493.41018   C 575.32228,469.05318 567.05223,448.54799 550.58765,431.8946   C 534.08532,415.20344 513.69341,406.89563 489.37417,406.89563   C 465.0927,406.89563 444.70079,415.20344 428.19845,431.8946   C 411.73388,448.54799 403.46383,469.05318 403.46383,493.41018   C 403.46383,517.50284 411.77164,537.89475 428.38727,554.54814   C 445.04066,571.20153 465.35704,579.5471 489.37417,579.5471   C 513.42907,579.5471 533.74545,571.20153 550.36108,554.54814   C 566.97671,537.89475 575.32228,517.50284 575.32228,493.41018   z  M 510.5591,224.65241   L 510.5591,338.28064   L 484.8804,306.06898   L 485.29579,399.30531   L 492.9994,399.68294   L 492.9994,329.82178   L 519.01796,359.39004   L 519.01796,224.65241   z "
     style="fill:#ffff00;fill-rule:nonzero;fill-opacity:1;stroke:none;" />
  <path
     id="path7"
     d="  M 449.38338,533.70308   L 481.59504,449.79416   L 493.56584,449.79416   L 527.92998,533.70308   L 515.27945,533.70308   L 505.49888,508.28872   L 470.37949,508.28872   L 461.16537,533.70308   z  M 473.58933,499.26341   L 502.06247,499.26341   L 493.3015,476.00153   C 490.62034,468.93989 488.61892,463.16219 487.33498,458.59289   C 486.27762,463.99297 484.76711,469.31752 482.80345,474.64207   z "
     style="fill:#ffff00;fill-rule:nonzero;fill-opacity:1;stroke:#ffff00;stroke-width:1.0573581px;stroke-linecap:butt;stroke-linejoin:miter;stroke-miterlimit:282;stroke-dasharray:none;stroke-opacity:1;" />
</svg>
