<?xml version="1.0" encoding="UTF-8" standalone="no"?>
<svg
   xmlns:dc="http://purl.org/dc/elements/1.1/"
   xmlns:cc="http://creativecommons.org/ns#"
   xmlns:rdf="http://www.w3.org/1999/02/22-rdf-syntax-ns#"
   xmlns:svg="http://www.w3.org/2000/svg"
   xmlns="http://www.w3.org/2000/svg"
   id="svg11"
   height="101.85mm"
   width="101.85mm"
   version="1.0">
  <metadata
     id="metadata15">
    <rdf:RDF>
      <cc:Work
         rdf:about="">
        <dc:format>image/svg+xml</dc:format>
        <dc:type
           rdf:resource="http://purl.org/dc/dcmitype/StillImage" />
      </cc:Work>
    </rdf:RDF>
  </metadata>
  <defs
     id="defs3">
    <pattern
       y="0"
       x="0"
       height="6"
       width="6"
       patternUnits="userSpaceOnUse"
       id="EMFhbasepattern" />
  </defs>
  <path
     id="path5"
     d="  M 330.54779,192.44658   C 330.54779,268.72992 268.72992,330.54779 192.44658,330.54779   C 116.20321,330.54779 54.345381,268.72992 54.345381,192.44658   C 54.345381,116.20321 116.20321,54.345381 192.44658,54.345381   C 268.72992,54.345381 330.54779,116.20321 330.54779,192.44658   z "
     style="fill:#80e0ff;fill-rule:evenodd;fill-opacity:1;stroke:none;" />
  <path
     id="path7"
     d="  M 330.54779,192.44658   C 330.54779,268.72992 268.72992,330.54779 192.44658,330.54779   C 116.20321,330.54779 54.345381,268.72992 54.345381,192.44658   C 54.345381,116.20321 116.20321,54.345381 192.44658,54.345381   C 268.72992,54.345381 330.54779,116.20321 330.54779,192.44658  "
     style="fill:none;stroke:#000000;stroke-width:9.5903616px;stroke-linecap:butt;stroke-linejoin:miter;stroke-miterlimit:10;stroke-dasharray:none;stroke-opacity:1;" />
  <path
     id="path9"
     d="  M 223.5753,231.04779   L 223.5753,135.14417   C 223.5753,124.99438 220.61827,116.20321 214.74417,108.73072   C 208.87008,101.25823 201.23775,97.502007 191.84719,97.502007   C 182.45662,97.502007 174.66446,101.25823 168.51064,108.73072   C 166.11305,111.72771 164.39478,115.76365 163.19598,120.83855   C 161.11807,129.78956 159.95923,134.58474 159.67952,135.14417   L 159.67952,231.48735   L 146.41285,231.48735   L 146.41285,135.22409   C 146.41285,121.47791 150.64859,109.68976 159.04016,99.819677   C 167.47168,89.989557 178.34076,85.034537 191.60743,85.034537   C 204.31466,85.034537 215.02389,90.109436 223.73514,100.2992   C 232.44638,110.44899 236.802,122.07731 236.802,135.22409   L 236.802,231.96686   L 222.85602,231.96686   z  M 226.01285,287.03152   L 217.02188,295.42309   L 197.08192,276.72188   L 185.17389,276.72188   L 165.83333,295.42309   L 157.00221,287.7508   L 191.68735,251.98674   z  M 186.17289,152.84638   L 186.17289,140.37891   L 159.67952,140.37891   L 159.67952,152.84638   z  M 186.17289,176.30281   L 186.17289,163.75542   L 159.67952,163.75542   L 159.67952,176.30281   z  M 186.17289,90.509035   L 197.08192,90.509035   L 197.08192,261.13755   L 186.17289,261.13755   z  M 223.5753,152.84638   L 223.5753,140.37891   L 197.08192,140.37891   L 197.08192,152.84638   z  M 223.5753,176.30281   L 223.5753,163.75542   L 197.08192,163.75542   L 197.08192,176.30281   z "
     style="fill:#000000;fill-rule:evenodd;fill-opacity:1;stroke:none;" />
</svg>
