<?xml version="1.0" encoding="UTF-8" standalone="no"?>
<svg
   xmlns:dc="http://purl.org/dc/elements/1.1/"
   xmlns:cc="http://creativecommons.org/ns#"
   xmlns:rdf="http://www.w3.org/1999/02/22-rdf-syntax-ns#"
   xmlns:svg="http://www.w3.org/2000/svg"
   xmlns="http://www.w3.org/2000/svg"
   id="svg11"
   height="130.27mm"
   width="130.27mm"
   version="1.0">
  <metadata
     id="metadata15">
    <rdf:RDF>
      <cc:Work
         rdf:about="">
        <dc:format>image/svg+xml</dc:format>
        <dc:type
           rdf:resource="http://purl.org/dc/dcmitype/StillImage" />
      </cc:Work>
    </rdf:RDF>
  </metadata>
  <defs
     id="defs3">
    <pattern
       y="0"
       x="0"
       height="6"
       width="6"
       patternUnits="userSpaceOnUse"
       id="EMFhbasepattern" />
  </defs>
  <path
     id="path5"
     d="  M 164.63454,327.67068   C 164.63454,437.95983 327.67068,437.95983 327.67068,327.67068   C 437.95983,327.67068 437.95983,164.63454 327.67068,164.63454   C 327.67068,54.345381 164.63454,54.345381 164.63454,164.63454   C 54.345381,164.63454 54.345381,327.67068 164.63454,327.67068   z "
     style="fill:#ffff80;fill-rule:evenodd;fill-opacity:1;stroke:none;" />
  <path
     id="path7"
     d="  M 164.63454,327.67068   C 164.63454,437.95983 327.67068,437.95983 327.67068,327.67068   C 437.95983,327.67068 437.95983,164.63454 327.67068,164.63454   C 327.67068,54.345381 164.63454,54.345381 164.63454,164.63454   C 54.345381,164.63454 54.345381,327.67068 164.63454,327.67068  "
     style="fill:none;stroke:#000000;stroke-width:9.5903616px;stroke-linecap:butt;stroke-linejoin:miter;stroke-miterlimit:10;stroke-dasharray:none;stroke-opacity:1;" />
  <path
     id="path9"
     d="  M 278.67992,285.07349   L 278.67992,189.01004   C 278.67992,179.13996 275.64297,170.38875 269.48915,162.75642   C 263.33534,155.12409 255.50321,151.32791 245.91285,151.32791   C 236.36245,151.32791 228.41044,155.08413 222.13674,162.55662   C 219.73915,165.55361 217.94096,169.58956 216.74217,174.66446   C 214.66425,183.65542 213.46546,188.4506 213.18574,189.01004   L 213.58534,285.51305   L 200.59839,285.51305   L 200.11887,189.01004   C 200.11887,175.26385 204.39458,163.43574 212.94598,153.56566   C 221.45743,143.69558 232.44638,138.74056 245.91285,138.74056   C 258.77992,138.74056 269.64899,143.85542 278.48012,154.04518   C 287.31124,164.19498 291.70682,175.86325 291.70682,189.01004   L 291.26726,285.95261   L 278.67992,285.95261   z  M 280.47811,341.1771   L 271.5271,349.72851   L 251.74698,330.86747   L 239.63915,330.86747   L 220.33855,349.72851   L 210.90803,341.1771   L 245.91285,305.73273   z  M 240.51827,208.79016   L 240.51827,196.20281   L 213.18574,196.20281   L 213.18574,208.79016   L 240.51827,208.79016   z  M 240.51827,230.32851   L 240.51827,217.74116   L 213.18574,217.74116   L 213.18574,230.32851   z  M 240.51827,250.94779   L 240.51827,238.4004   L 213.18574,238.4004   L 213.18574,250.94779   z  M 240.99779,144.5747   L 251.74698,144.5747   L 251.74698,315.12329   L 240.99779,315.12329   z  M 278.24036,208.79016   L 278.24036,196.20281   L 251.74698,196.20281   L 251.74698,208.79016   L 278.24036,208.79016   z  M 278.24036,230.32851   L 278.24036,217.74116   L 251.74698,217.74116   L 251.74698,230.32851   z  M 278.24036,250.94779   L 278.24036,238.4004   L 252.2265,238.4004   L 252.2265,250.94779   z "
     style="fill:#000000;fill-rule:evenodd;fill-opacity:1;stroke:none;" />
</svg>
