<?xml version="1.0" encoding="UTF-8" standalone="no"?>
<svg
   xmlns:dc="http://purl.org/dc/elements/1.1/"
   xmlns:cc="http://creativecommons.org/ns#"
   xmlns:rdf="http://www.w3.org/1999/02/22-rdf-syntax-ns#"
   xmlns:svg="http://www.w3.org/2000/svg"
   xmlns="http://www.w3.org/2000/svg"
   id="svg13"
   height="101.85mm"
   width="101.85mm"
   version="1.0">
  <metadata
     id="metadata17">
    <rdf:RDF>
      <cc:Work
         rdf:about="">
        <dc:format>image/svg+xml</dc:format>
        <dc:type
           rdf:resource="http://purl.org/dc/dcmitype/StillImage" />
      </cc:Work>
    </rdf:RDF>
  </metadata>
  <defs
     id="defs3">
    <pattern
       y="0"
       x="0"
       height="6"
       width="6"
       patternUnits="userSpaceOnUse"
       id="EMFhbasepattern" />
  </defs>
  <path
     id="path5"
     d="  M 330.54779,192.44658   C 330.54779,268.72992 268.72992,330.54779 192.44658,330.54779   C 116.20321,330.54779 54.345381,268.72992 54.345381,192.44658   C 54.345381,116.20321 116.20321,54.345381 192.44658,54.345381   C 268.72992,54.345381 330.54779,116.20321 330.54779,192.44658   z "
     style="fill:#80e0ff;fill-rule:evenodd;fill-opacity:1;stroke:none;" />
  <path
     id="path7"
     d="  M 330.54779,192.44658   C 330.54779,268.72992 268.72992,330.54779 192.44658,330.54779   C 116.20321,330.54779 54.345381,268.72992 54.345381,192.44658   C 54.345381,116.20321 116.20321,54.345381 192.44658,54.345381   C 268.72992,54.345381 330.54779,116.20321 330.54779,192.44658  "
     style="fill:none;stroke:#000000;stroke-width:9.5903616px;stroke-linecap:butt;stroke-linejoin:miter;stroke-miterlimit:10;stroke-dasharray:none;stroke-opacity:1;" />
  <path
     id="path9"
     d="  M 135.18413,198.92008   L 135.18413,102.81667   L 147.89136,102.81667   L 147.89136,187.57148   L 195.20381,187.57148   L 195.20381,198.92008   L 135.18413,198.92008  z    M 209.82911,198.92008   L 209.82911,102.81667   L 222.5763,102.81667   L 222.5763,187.57148   L 269.88875,187.57148   L 269.88875,198.92008   L 209.82911,198.92008  z   "
     style="fill:#000000;fill-rule:evenodd;fill-opacity:1;stroke:none;" />
  <path
     id="path11"
     d="  M 121.39799,260.41827   L 138.54076,215.78313   L 144.89438,215.78313   L 163.15602,260.41827   L 156.44277,260.41827   L 151.24799,246.87188   L 132.58675,246.87188   L 127.67168,260.41827   z  M 134.26506,242.0767   L 149.40984,242.0767   L 144.73454,229.72911   C 143.33594,225.97289 142.25703,222.89598 141.57771,220.45843   C 141.01827,223.33554 140.21907,226.17269 139.18012,229.00984   z  M 165.87329,246.07269   L 171.42771,245.59317   C 171.70743,247.83092 172.30682,249.62911 173.30582,251.06767   C 174.26486,252.50622 175.74337,253.66506 177.78132,254.54417   C 179.81927,255.42329 182.09699,255.86285 184.61446,255.86285   C 186.89217,255.86285 188.8502,255.54317 190.60843,254.86385   C 192.3267,254.18453 193.60542,253.26546 194.44458,252.10662   C 195.28373,250.94779 195.72329,249.66907 195.72329,248.31044   C 195.72329,246.91184 195.28373,245.67309 194.48454,244.63413   C 193.68534,243.59518 192.3267,242.71606 190.48855,241.99678   C 189.28976,241.51727 186.61245,240.79799 182.53654,239.79899   C 178.42068,238.83996 175.54357,237.92088 173.90522,237.04176   C 171.78735,235.92289 170.18895,234.52429 169.15,232.88594   C 168.11104,231.20763 167.59156,229.36947 167.59156,227.33152   C 167.59156,225.05381 168.23092,222.9759 169.50964,221.01787   C 170.78835,219.05984 172.6265,217.58132 175.10401,216.54237   C 177.54156,215.54337 180.29879,215.02389 183.29578,215.02389   C 186.61245,215.02389 189.52952,215.54337 192.04699,216.62229   C 194.56446,217.7012 196.52249,219.25964 197.88112,221.33755   C 199.23976,223.3755 199.95903,225.73313 200.03895,228.37048   L 194.40462,228.77008   C 194.08494,225.97289 193.04598,223.81506 191.28775,222.3765   C 189.56948,220.93795 186.97209,220.21867 183.53554,220.21867   C 179.93915,220.21867 177.34176,220.89799 175.70341,222.1767   C 174.10502,223.49538 173.26586,225.09377 173.26586,226.93192   C 173.26586,228.53032 173.86526,229.84899 175.02409,230.88795   C 176.14297,231.9269 179.1,232.96586 183.89518,234.04478   C 188.69036,235.16365 192.00703,236.08273 193.80522,236.92188   C 196.40261,238.12068 198.32068,239.63915 199.55943,241.47731   C 200.79819,243.31546 201.39759,245.39337 201.39759,247.79096   C 201.39759,250.18855 200.71827,252.4263 199.35964,254.50421   C 198.001,256.62208 196.04297,258.26044 193.48554,259.41927   C 190.96807,260.57811 188.09096,261.17751 184.89417,261.17751   C 180.85823,261.17751 177.46164,260.57811 174.74437,259.41927   C 172.02711,258.22048 169.86927,256.46225 168.31084,254.10461   C 166.79237,251.74698 165.95321,249.06968 165.87329,246.07269   z  M 217.26164,260.41827   L 205.43353,215.78313   L 211.46747,215.78313   L 218.26064,245.03373   C 218.97992,248.11064 219.61927,251.14759 220.13875,254.18453   C 221.29759,249.38935 221.93694,246.63212 222.13674,245.91285   L 230.64819,215.78313   L 237.76104,215.78313   L 244.15461,238.36044   C 245.75301,243.95482 246.91184,249.22951 247.63112,254.18453   C 248.19056,251.34739 248.9498,248.11064 249.86887,244.47429   L 256.86184,215.78313   L 262.7759,215.78313   L 250.54819,260.41827   L 244.87389,260.41827   L 235.44337,226.41245   C 234.68413,223.5753 234.20462,221.81707 234.04478,221.17771   C 233.60522,223.21566 233.16566,224.97389 232.76606,226.41245   L 223.29558,260.41827   z "
     style="fill:#000000;fill-rule:evenodd;fill-opacity:1;stroke:none;" />
</svg>
