<?xml version="1.0" encoding="UTF-8" standalone="no"?>
<svg
   xmlns:dc="http://purl.org/dc/elements/1.1/"
   xmlns:cc="http://creativecommons.org/ns#"
   xmlns:rdf="http://www.w3.org/1999/02/22-rdf-syntax-ns#"
   xmlns:svg="http://www.w3.org/2000/svg"
   xmlns="http://www.w3.org/2000/svg"
   id="svg11"
   height="130.27mm"
   width="130.27mm"
   version="1.0">
  <metadata
     id="metadata15">
    <rdf:RDF>
      <cc:Work
         rdf:about="">
        <dc:format>image/svg+xml</dc:format>
        <dc:type
           rdf:resource="http://purl.org/dc/dcmitype/StillImage" />
      </cc:Work>
    </rdf:RDF>
  </metadata>
  <defs
     id="defs3">
    <pattern
       y="0"
       x="0"
       height="6"
       width="6"
       patternUnits="userSpaceOnUse"
       id="EMFhbasepattern" />
  </defs>
  <path
     id="path5"
     d="  M 164.63454,327.67068   C 164.63454,437.95983 327.67068,437.95983 327.67068,327.67068   C 437.95983,327.67068 437.95983,164.63454 327.67068,164.63454   C 327.67068,54.345381 164.63454,54.345381 164.63454,164.63454   C 54.345381,164.63454 54.345381,327.67068 164.63454,327.67068   z "
     style="fill:#ffff80;fill-rule:evenodd;fill-opacity:1;stroke:none;" />
  <path
     id="path7"
     d="  M 164.63454,327.67068   C 164.63454,437.95983 327.67068,437.95983 327.67068,327.67068   C 437.95983,327.67068 437.95983,164.63454 327.67068,164.63454   C 327.67068,54.345381 164.63454,54.345381 164.63454,164.63454   C 54.345381,164.63454 54.345381,327.67068 164.63454,327.67068  "
     style="fill:none;stroke:#000000;stroke-width:9.5903616px;stroke-linecap:butt;stroke-linejoin:miter;stroke-miterlimit:10;stroke-dasharray:none;stroke-opacity:1;" />
  <path
     id="path9"
     d="  M 215.78313,186.81225   L 205.87309,178.94016   L 246.27249,141.61767   L 285.79277,178.101   L 276.8018,186.81225   L 246.27249,158.64056   L 215.78313,186.81225  z    M 280.83775,205.03393   L 271.88674,213.74518   L 252.10662,195.48353   L 251.66706,324.75361   L 239.55923,323.11526   L 239.99879,195.92309   L 220.69819,214.14478   L 211.74719,205.87309   L 246.27249,173.54558   L 280.83775,205.03393  z    M 281.75682,348.36987   L 272.3263,356.24196   L 246.752,333.0253   L 221.61727,356.24196   L 212.18674,347.57068   L 247.19156,315.64277   L 281.75682,348.36987  z    M 239.55923,292.46606   L 239.55923,280.83775   L 213.54538,280.83775   L 213.54538,292.46606   L 239.55923,292.46606  z    M 239.55923,238.6002   L 239.55923,226.97188   L 214.42449,226.97188   L 214.42449,238.6002   L 239.55923,238.6002  z    M 239.55923,264.69397   L 239.55923,253.10562   L 214.42449,253.10562   L 214.42449,264.69397   L 239.55923,264.69397  z    M 275.44317,238.9998   L 275.44317,227.41144   L 251.66706,227.41144   L 251.66706,238.9998   L 275.44317,238.9998  z    M 275.44317,264.69397   L 275.44317,253.10562   L 251.66706,253.50522   L 251.66706,265.09357   L 275.44317,264.69397  z    M 274.56405,292.86566   L 274.56405,280.83775   L 251.66706,280.83775   L 251.66706,292.86566   L 274.56405,292.86566  z   "
     style="fill:#000000;fill-rule:evenodd;fill-opacity:1;stroke:none;" />
</svg>
