<?xml version="1.0" encoding="UTF-8" standalone="no"?>
<svg
   xmlns:dc="http://purl.org/dc/elements/1.1/"
   xmlns:cc="http://creativecommons.org/ns#"
   xmlns:rdf="http://www.w3.org/1999/02/22-rdf-syntax-ns#"
   xmlns:svg="http://www.w3.org/2000/svg"
   xmlns="http://www.w3.org/2000/svg"
   id="svg7"
   height="55.830002mm"
   width="24.030001mm"
   version="1.0">
  <metadata
     id="metadata11">
    <rdf:RDF>
      <cc:Work
         rdf:about="">
        <dc:format>image/svg+xml</dc:format>
        <dc:type
           rdf:resource="http://purl.org/dc/dcmitype/StillImage" />
      </cc:Work>
    </rdf:RDF>
  </metadata>
  <defs
     id="defs3">
    <pattern
       y="0"
       x="0"
       height="6"
       width="6"
       patternUnits="userSpaceOnUse"
       id="EMFhbasepattern" />
  </defs>
  <path
     id="path5"
     d="  M 77.162449,146.01325   L 77.162449,50.109638   C 77.162449,39.959839 74.205421,31.168674 68.331324,23.696184   C 62.457228,16.223695 54.824899,12.46747 45.434337,12.46747   C 36.043775,12.46747 28.251606,16.223695 22.097791,23.696184   C 19.700201,26.693172 17.981927,30.729116 16.783132,35.804016   C 14.705221,44.755019 13.546385,49.5502 13.266666,50.109638   L 13.266666,146.45281   L 0,146.45281   L 0,50.189558   C 0,36.443373 4.2357429,24.655221 12.627309,14.78514   C 21.058835,4.95502 31.927911,0 45.194578,0   C 57.901806,0 68.611043,5.0748995 77.322288,15.264658   C 86.033533,25.414457 90.389155,37.042771 90.389155,50.189558   L 90.389155,146.93233   L 76.443172,146.93233   z  M 79.599999,201.99699   L 70.609035,210.38855   L 50.669076,191.68735   L 38.761044,191.68735   L 19.420482,210.38855   L 10.589357,202.71626   L 45.274497,166.95221   z  M 39.76004,67.811846   L 39.76004,55.344377   L 13.266666,55.344377   L 13.266666,67.811846   z  M 39.76004,91.268272   L 39.76004,78.720882   L 13.266666,78.720882   L 13.266666,91.268272   z  M 39.76004,5.4744979   L 50.669076,5.4744979   L 50.669076,176.10301   L 39.76004,176.10301   z  M 77.162449,67.811846   L 77.162449,55.344377   L 50.669076,55.344377   L 50.669076,67.811846   z  M 77.162449,91.268272   L 77.162449,78.720882   L 50.669076,78.720882   L 50.669076,91.268272   z "
     style="fill:#ff8080;fill-rule:evenodd;fill-opacity:1;stroke:none;" />
</svg>
