<?xml version="1.0" encoding="UTF-8" standalone="no"?>
<svg
   xmlns:dc="http://purl.org/dc/elements/1.1/"
   xmlns:cc="http://creativecommons.org/ns#"
   xmlns:rdf="http://www.w3.org/1999/02/22-rdf-syntax-ns#"
   xmlns:svg="http://www.w3.org/2000/svg"
   xmlns="http://www.w3.org/2000/svg"
   id="svg11"
   height="95.75mm"
   width="95.75mm"
   version="1.0">
  <metadata
     id="metadata15">
    <rdf:RDF>
      <cc:Work
         rdf:about="">
        <dc:format>image/svg+xml</dc:format>
        <dc:type
           rdf:resource="http://purl.org/dc/dcmitype/StillImage" />
      </cc:Work>
    </rdf:RDF>
  </metadata>
  <defs
     id="defs3">
    <pattern
       y="0"
       x="0"
       height="6"
       width="6"
       patternUnits="userSpaceOnUse"
       id="EMFhbasepattern" />
  </defs>
  <path
     id="path5"
     d="  M 54.345381,54.345381   L 54.345381,307.53092   L 307.53092,307.53092   L 307.53092,54.345381   L 54.345381,54.345381   z "
     style="fill:#aaffaa;fill-rule:evenodd;fill-opacity:1;stroke:none;" />
  <path
     id="path7"
     d="  M 54.345381,54.345381   L 307.53092,54.345381   L 307.53092,307.53092   L 54.345381,307.53092   z "
     style="fill:none;stroke:#000000;stroke-width:9.5903616px;stroke-linecap:butt;stroke-linejoin:miter;stroke-miterlimit:10;stroke-dasharray:none;stroke-opacity:1;" />
  <path
     id="path9"
     d="  M 150.52871,122.15723   L 140.65863,114.3251   L 181.05803,76.403212   L 219.85903,112.80662   L 211.30763,121.87751   L 180.89819,94.025501   L 150.52871,122.15723  z    M 215.98293,267.29136   L 206.67229,274.92369   L 181.05803,251.86686   L 155.96325,274.92369   L 145.61365,266.652   L 180.69839,234.40441   L 215.98293,267.29136  z    M 215.46345,140.21907   L 207.27168,148.93032   L 186.65241,130.18915   L 186.65241,244.39437   L 174.94417,244.39437   L 174.94417,130.34899   L 155.68353,149.4498   L 146.61265,141.17811   L 181.09799,108.93052   L 215.46345,140.21907  z    M 174.94417,185.73333   L 174.94417,173.94518   L 149.21004,173.94518   L 149.21004,185.73333   L 174.94417,185.73333  z    M 174.94417,211.66727   L 174.94417,200.11887   L 149.21004,200.11887   L 149.21004,211.66727   L 174.94417,211.66727  z    M 210.22871,185.73333   L 210.22871,174.38474   L 186.65241,174.38474   L 186.65241,185.73333   L 210.22871,185.73333  z    M 210.22871,211.66727   L 210.22871,200.11887   L 186.65241,200.11887   L 186.65241,212.06686   L 210.22871,211.66727  z   "
     style="fill:#000000;fill-rule:evenodd;fill-opacity:1;stroke:none;" />
</svg>
