<?xml version="1.0" encoding="UTF-8" standalone="no"?>
<svg
   xmlns:dc="http://purl.org/dc/elements/1.1/"
   xmlns:cc="http://creativecommons.org/ns#"
   xmlns:rdf="http://www.w3.org/1999/02/22-rdf-syntax-ns#"
   xmlns:svg="http://www.w3.org/2000/svg"
   xmlns="http://www.w3.org/2000/svg"
   id="svg7"
   height="52.610001mm"
   width="20.99mm"
   version="1.0">
  <metadata
     id="metadata11">
    <rdf:RDF>
      <cc:Work
         rdf:about="">
        <dc:format>image/svg+xml</dc:format>
        <dc:type
           rdf:resource="http://purl.org/dc/dcmitype/StillImage" />
      </cc:Work>
    </rdf:RDF>
  </metadata>
  <defs
     id="defs3">
    <pattern
       y="0"
       x="0"
       height="6"
       width="6"
       patternUnits="userSpaceOnUse"
       id="EMFhbasepattern" />
  </defs>
  <path
     id="path5"
     d="  M 9.8700802,46.073694   L 0,38.241566   L 40.399397,0.31967871   L 79.2004,36.723092   L 70.648995,45.793975   L 40.239558,17.941968   L 9.8700802,46.073694  z    M 75.324296,191.20783   L 66.013654,198.84016   L 40.399397,175.78333   L 15.304618,198.84016   L 4.95502,190.56847   L 40.039758,158.32088   L 75.324296,191.20783  z    M 74.804818,64.135541   L 66.613051,72.846786   L 45.993774,54.105622   L 45.993774,168.31084   L 34.285542,168.31084   L 34.285542,54.265461   L 15.024899,73.366264   L 5.954016,65.094577   L 40.439357,32.846987   L 74.804818,64.135541  z    M 34.285542,109.6498   L 34.285542,97.861645   L 8.5514055,97.861645   L 8.5514055,109.6498   L 34.285542,109.6498  z    M 34.285542,135.58373   L 34.285542,124.03534   L 8.5514055,124.03534   L 8.5514055,135.58373   L 34.285542,135.58373  z    M 69.570079,109.6498   L 69.570079,98.301203   L 45.993774,98.301203   L 45.993774,109.6498   L 69.570079,109.6498  z    M 69.570079,135.58373   L 69.570079,124.03534   L 45.993774,124.03534   L 45.993774,135.98333   L 69.570079,135.58373  z   "
     style="fill:#ff8080;fill-rule:evenodd;fill-opacity:1;stroke:none;" />
</svg>
