<?xml version="1.0" encoding="UTF-8" standalone="no"?>
<svg
   xmlns:dc="http://purl.org/dc/elements/1.1/"
   xmlns:cc="http://creativecommons.org/ns#"
   xmlns:rdf="http://www.w3.org/1999/02/22-rdf-syntax-ns#"
   xmlns:svg="http://www.w3.org/2000/svg"
   xmlns="http://www.w3.org/2000/svg"
   id="svg11"
   height="101.85mm"
   width="95.75mm"
   version="1.0">
  <metadata
     id="metadata15">
    <rdf:RDF>
      <cc:Work
         rdf:about="">
        <dc:format>image/svg+xml</dc:format>
        <dc:type
           rdf:resource="http://purl.org/dc/dcmitype/StillImage" />
      </cc:Work>
    </rdf:RDF>
  </metadata>
  <defs
     id="defs3">
    <pattern
       y="0"
       x="0"
       height="6"
       width="6"
       patternUnits="userSpaceOnUse"
       id="EMFhbasepattern" />
  </defs>
  <path
     id="path5"
     d="  M 54.345381,54.345381   L 54.345381,330.54779   L 307.53092,330.54779   L 307.53092,54.345381   L 54.345381,54.345381   z "
     style="fill:#aaffaa;fill-rule:evenodd;fill-opacity:1;stroke:none;" />
  <path
     id="path7"
     d="  M 54.345381,330.54779   L 54.345381,54.345381   L 307.53092,54.345381   L 307.53092,330.54779  "
     style="fill:none;stroke:#000000;stroke-width:9.5903616px;stroke-linecap:butt;stroke-linejoin:miter;stroke-miterlimit:10;stroke-dasharray:none;stroke-opacity:1;" />
  <path
     id="path9"
     d="  M 146.17309,197.56144   L 159.04016,196.40261   C 159.63956,201.55743 161.07811,205.79317 163.2759,209.10984   C 165.51365,212.38654 168.9502,215.06385 173.6255,217.1018   C 178.34076,219.13976 183.61546,220.17871 189.4496,220.17871   C 194.64437,220.17871 199.23976,219.37951 203.23574,217.86104   C 207.19176,216.30261 210.14879,214.18474 212.10682,211.50743   C 214.06486,208.79016 215.02389,205.87309 215.02389,202.6763   C 215.02389,199.43956 214.06486,196.64237 212.2267,194.20482   C 210.34859,191.80723 207.23172,189.76927 202.91606,188.13092   C 200.15883,187.05201 194.04498,185.37369 184.61446,183.09598   C 175.14397,180.85823 168.51064,178.7004 164.71446,176.66245   C 159.7994,174.10502 156.16305,170.90823 153.7255,167.11205   C 151.32791,163.2759 150.12911,159.0002 150.12911,154.28494   C 150.12911,149.09016 151.60763,144.21506 154.5247,139.6996   C 157.48172,135.18413 161.79739,131.74759 167.47168,129.42992   C 173.14598,127.07229 179.41968,125.91345 186.37269,125.91345   C 194.00502,125.91345 200.71827,127.11225 206.55241,129.58976   C 212.38654,132.02731 216.86205,135.66365 220.01887,140.45883   C 223.13574,145.21405 224.81405,150.60863 225.05381,156.64257   L 211.98694,157.64156   C 211.30763,151.12811 208.91004,146.21305 204.87409,142.89638   C 200.83815,139.57972 194.84417,137.9014 186.93213,137.9014   C 178.7004,137.9014 172.66646,139.41988 168.91024,142.45683   C 165.15401,145.45381 163.23594,149.09016 163.23594,153.36586   C 163.23594,157.08213 164.59458,160.11907 167.27189,162.4767   C 169.86927,164.87429 176.74237,167.3518 187.81124,169.82931   C 198.88012,172.34678 206.47249,174.54458 210.58835,176.38273   C 216.58233,179.17992 221.01787,182.65642 223.85502,186.89217   C 226.73213,191.12791 228.17068,196.04297 228.17068,201.55743   C 228.17068,207.03192 226.57229,212.18674 223.45542,217.02188   C 220.29859,221.89698 215.82309,225.65321 209.90903,228.33052   C 204.03494,231.04779 197.44156,232.36646 190.08895,232.36646   C 180.77831,232.36646 172.94618,231.00783 166.67249,228.33052   C 160.35883,225.61325 155.40381,221.49739 151.84739,216.06285   C 148.251,210.58835 146.37289,204.43454 146.17309,197.56144   z "
     style="fill:#000000;fill-rule:evenodd;fill-opacity:1;stroke:none;" />
</svg>
