<?xml version="1.0" encoding="UTF-8" standalone="no"?>
<svg
   xmlns:dc="http://purl.org/dc/elements/1.1/"
   xmlns:cc="http://creativecommons.org/ns#"
   xmlns:rdf="http://www.w3.org/1999/02/22-rdf-syntax-ns#"
   xmlns:svg="http://www.w3.org/2000/svg"
   xmlns="http://www.w3.org/2000/svg"
   id="svg17"
   height="112.9mm"
   width="112.9mm"
   version="1.0">
  <metadata
     id="metadata21">
    <rdf:RDF>
      <cc:Work
         rdf:about="">
        <dc:format>image/svg+xml</dc:format>
        <dc:type
           rdf:resource="http://purl.org/dc/dcmitype/StillImage" />
      </cc:Work>
    </rdf:RDF>
  </metadata>
  <defs
     id="defs3">
    <pattern
       y="0"
       x="0"
       height="6"
       width="6"
       patternUnits="userSpaceOnUse"
       id="EMFhbasepattern" />
  </defs>
  <path
     id="path5"
     d="  M 695.2261,695.60719   L 695.2261,1068.6781  "
     style="fill:none;stroke:#000000;stroke-width:10.651613px;stroke-linecap:butt;stroke-linejoin:miter;stroke-miterlimit:112;stroke-dasharray:none;stroke-opacity:1;" />
  <path
     id="path7"
     d="  M 908.44722,695.60719   L 908.44722,1068.6781  "
     style="fill:none;stroke:#000000;stroke-width:10.651613px;stroke-linecap:butt;stroke-linejoin:miter;stroke-miterlimit:112;stroke-dasharray:none;stroke-opacity:1;" />
  <path
     id="path9"
     d="  M 773.14907,828.8279   L 763.06403,828.8279   L 759.098,818.44068   L 740.77874,818.44068   L 737.00157,828.8279   L 727.18094,828.8279   L 745.00917,783.04862   L 754.79203,783.04862   L 773.14907,828.8279   z  M 756.11404,810.73526   L 749.80617,793.73801   L 743.61162,810.73526   L 756.11404,810.73526   z "
     style="fill:#000000;fill-rule:nonzero;fill-opacity:1;stroke:#000000;stroke-width:1.0576069px;stroke-linecap:butt;stroke-linejoin:miter;stroke-miterlimit:112;stroke-dasharray:none;stroke-opacity:1;" />
  <path
     id="path11"
     d="  M 775.71754,813.94586   L 784.7072,813.07711   C 785.27378,816.09884 786.36916,818.32737 788.03111,819.72492   C 789.65529,821.12247 791.92159,821.84014 794.7167,821.84014   C 797.70066,821.84014 799.92919,821.23579 801.44006,819.95155   C 802.95092,818.70509 803.70636,817.23199 803.70636,815.53227   C 803.70636,814.47466 803.40418,813.53037 802.76206,812.77493   C 802.11995,812.0195 801.02457,811.33961 799.43816,810.81081   C 798.34278,810.43309 795.88762,809.7532 792.03491,808.80891   C 787.08682,807.56244 783.61182,806.05157 781.60992,804.27631   C 778.77705,801.7456 777.3795,798.6861 777.3795,795.06002   C 777.3795,792.71817 778.05939,790.52741 779.3814,788.52552   C 780.7034,786.48585 782.59199,784.93721 785.08492,783.8796   C 787.57785,782.82199 790.56181,782.29319 794.07458,782.29319   C 799.85365,782.29319 804.15962,783.53965 807.06804,786.07036   C 809.97646,788.56329 811.48732,791.92497 811.63841,796.15539   L 802.38435,796.57088   C 802.00663,794.19127 801.13788,792.49154 799.85365,791.47171   C 798.53164,790.45187 796.60528,789.92307 793.99904,789.92307   C 791.31725,789.92307 789.20203,790.48964 787.69117,791.58502   C 786.7091,792.30268 786.21807,793.24698 786.21807,794.4179   C 786.21807,795.51328 786.67133,796.4198 787.57785,797.213   C 788.74877,798.19507 791.58165,799.2149 796.07648,800.27251   C 800.57131,801.33011 803.89522,802.42549 806.0482,803.55864   C 808.23896,804.69179 809.90091,806.24043 811.10961,808.20456   C 812.35607,810.16869 812.96042,812.62385 812.96042,815.49449   C 812.96042,818.13851 812.20498,820.59367 810.76966,822.89774   C 809.29657,825.16404 807.25689,826.86377 804.57511,827.99692   C 801.93109,829.0923 798.60718,829.65887 794.60338,829.65887   C 788.82432,829.65887 784.40503,828.33686 781.26998,825.65508   C 778.1727,822.97329 776.32189,819.0828 775.71754,813.94586   L 775.71754,813.94586   z "
     style="fill:#000000;fill-rule:nonzero;fill-opacity:1;stroke:#000000;stroke-width:1.0576069px;stroke-linecap:butt;stroke-linejoin:miter;stroke-miterlimit:112;stroke-dasharray:none;stroke-opacity:1;" />
  <path
     id="path13"
     d="  M 827.27588,828.8279   L 816.35987,783.04862   L 825.80279,783.04862   L 832.71501,814.51243   L 841.10032,783.04862   L 852.09188,783.04862   L 860.09947,815.04123   L 867.125,783.04862   L 876.45461,783.04862   L 865.31196,828.8279   L 855.5291,828.8279   L 846.38835,794.60676   L 837.32315,828.8279   L 827.27588,828.8279   z "
     style="fill:#000000;fill-rule:nonzero;fill-opacity:1;stroke:#000000;stroke-width:1.0576069px;stroke-linecap:butt;stroke-linejoin:miter;stroke-miterlimit:112;stroke-dasharray:none;stroke-opacity:1;" />
  <path
     id="path15"
     d="  M 806.99249,847.94037   C 807.82347,849.64009 808.46559,851.03764 808.91885,852.09525   L 808.91885,886.95851   L 883.97117,964.69262   L 883.97117,976.21299   L 808.91885,927.33643   L 808.91885,989.96188   L 826.48268,1007.8279   L 826.48268,1016.4776   L 806.01043,1007.8279   L 801.89332,1016.4776   L 797.39849,1007.8279   L 777.26618,1016.4776   L 777.26618,1007.8279   L 794.52784,989.96188   L 794.52784,927.33643   L 719.77769,976.21299   L 719.77769,964.69262   L 794.52784,886.95851   L 794.52784,852.09525   L 795.5099,849.2246   C 797.39849,845.37189 799.5137,843.44554 801.89332,843.44554   C 803.59304,843.44554 805.29277,844.9564 806.99249,847.94037   z "
     style="fill:#000000;fill-rule:nonzero;fill-opacity:1;stroke:none;" />
</svg>
