<?xml version="1.0" encoding="UTF-8" standalone="no"?>
<svg
   xmlns:dc="http://purl.org/dc/elements/1.1/"
   xmlns:cc="http://creativecommons.org/ns#"
   xmlns:rdf="http://www.w3.org/1999/02/22-rdf-syntax-ns#"
   xmlns:svg="http://www.w3.org/2000/svg"
   xmlns="http://www.w3.org/2000/svg"
   id="svg11"
   height="101.85mm"
   width="101.85mm"
   version="1.0">
  <metadata
     id="metadata15">
    <rdf:RDF>
      <cc:Work
         rdf:about="">
        <dc:format>image/svg+xml</dc:format>
        <dc:type
           rdf:resource="http://purl.org/dc/dcmitype/StillImage" />
      </cc:Work>
    </rdf:RDF>
  </metadata>
  <defs
     id="defs3">
    <pattern
       y="0"
       x="0"
       height="6"
       width="6"
       patternUnits="userSpaceOnUse"
       id="EMFhbasepattern" />
  </defs>
  <path
     id="path5"
     d="  M 330.54779,192.44658   C 330.54779,268.72992 268.72992,330.54779 192.44658,330.54779   C 116.20321,330.54779 54.345381,268.72992 54.345381,192.44658   C 54.345381,116.20321 116.20321,54.345381 192.44658,54.345381   C 268.72992,54.345381 330.54779,116.20321 330.54779,192.44658   z "
     style="fill:#80e0ff;fill-rule:evenodd;fill-opacity:1;stroke:none;" />
  <path
     id="path7"
     d="  M 330.54779,192.44658   C 330.54779,268.72992 268.72992,330.54779 192.44658,330.54779   C 116.20321,330.54779 54.345381,268.72992 54.345381,192.44658   C 54.345381,116.20321 116.20321,54.345381 192.44658,54.345381   C 268.72992,54.345381 330.54779,116.20321 330.54779,192.44658  "
     style="fill:none;stroke:#000000;stroke-width:9.5903616px;stroke-linecap:butt;stroke-linejoin:miter;stroke-miterlimit:10;stroke-dasharray:none;stroke-opacity:1;" />
  <path
     id="path9"
     d="  M 162.03715,134.10522   L 152.16707,125.83353   L 192.56646,87.911645   L 231.68715,125.03434   L 222.7761,133.38594   L 192.40662,105.53393   L 162.03715,134.10522  z    M 227.49136,278.7998   L 218.18072,286.43212   L 192.56646,263.3753   L 167.47168,286.43212   L 157.56164,278.63996   L 192.40662,246.11265   L 227.49136,278.7998  z    M 226.73213,151.52771   L 217.98092,160.75843   L 198.16084,142.45683   L 198.16084,255.10361   L 186.45261,255.10361   L 186.45261,141.85743   L 167.3518,159.7994   L 158.08112,152.28695   L 192.56646,119.9994   L 226.73213,151.52771  z    M 186.45261,205.35361   L 186.45261,193.76526   L 160.71847,193.76526   L 160.71847,205.35361   L 186.45261,205.35361  z    M 221.73715,205.35361   L 221.73715,193.36566   L 198.16084,193.76526   L 198.16084,205.79317   L 221.73715,205.35361  z   "
     style="fill:#000000;fill-rule:evenodd;fill-opacity:1;stroke:none;" />
</svg>
