<?xml version="1.0" encoding="UTF-8" standalone="no"?>
<svg
   xmlns:dc="http://purl.org/dc/elements/1.1/"
   xmlns:cc="http://creativecommons.org/ns#"
   xmlns:rdf="http://www.w3.org/1999/02/22-rdf-syntax-ns#"
   xmlns:svg="http://www.w3.org/2000/svg"
   xmlns="http://www.w3.org/2000/svg"
   id="svg11"
   height="95.75mm"
   width="95.75mm"
   version="1.0">
  <metadata
     id="metadata15">
    <rdf:RDF>
      <cc:Work
         rdf:about="">
        <dc:format>image/svg+xml</dc:format>
        <dc:type
           rdf:resource="http://purl.org/dc/dcmitype/StillImage" />
      </cc:Work>
    </rdf:RDF>
  </metadata>
  <defs
     id="defs3">
    <pattern
       y="0"
       x="0"
       height="6"
       width="6"
       patternUnits="userSpaceOnUse"
       id="EMFhbasepattern" />
  </defs>
  <path
     id="path5"
     d="  M 54.345381,54.345381   L 54.345381,307.53092   L 307.53092,307.53092   L 307.53092,54.345381   L 54.345381,54.345381   z "
     style="fill:#aaffaa;fill-rule:evenodd;fill-opacity:1;stroke:none;" />
  <path
     id="path7"
     d="  M 54.345381,54.345381   L 307.53092,54.345381   L 307.53092,307.53092   L 54.345381,307.53092   z "
     style="fill:none;stroke:#000000;stroke-width:9.5903616px;stroke-linecap:butt;stroke-linejoin:miter;stroke-miterlimit:10;stroke-dasharray:none;stroke-opacity:1;" />
  <path
     id="path9"
     d="  M 111.72771,216.18273   L 111.72771,120.07932   L 147.97128,120.07932   C 154.36486,120.07932 159.23996,120.39899 162.59658,120.99839   C 167.31184,121.79759 171.26787,123.2761 174.46466,125.47389   C 177.66144,127.71164 180.21887,130.78855 182.1769,134.78454   C 184.09498,138.74056 185.09397,143.13614 185.09397,147.89136   C 185.09397,156.04317 182.49658,162.95622 177.26184,168.63052   C 172.06707,174.30482 162.6765,177.10201 149.09016,177.10201   L 124.43494,177.10201   L 124.43494,216.18273   z  M 124.43494,165.79337   L 149.28996,165.79337   C 157.48172,165.79337 163.31586,164.23494 166.79237,161.19799   C 170.22891,158.12108 171.94719,153.84538 171.94719,148.251   C 171.94719,144.25502 170.94819,140.81847 168.91024,137.94136   C 166.87229,135.10421 164.19498,133.18614 160.87831,132.26707   C 158.76044,131.70763 154.80442,131.42791 149.01024,131.42791   L 124.43494,131.42791   z  M 225.73313,216.18273   L 225.73313,131.42791   L 194.04498,131.42791   L 194.04498,120.07932   L 270.24839,120.07932   L 270.24839,131.42791   L 238.44036,131.42791   L 238.44036,216.18273   z "
     style="fill:#000000;fill-rule:evenodd;fill-opacity:1;stroke:none;" />
</svg>
