<?xml version="1.0" encoding="UTF-8" standalone="no"?>
<svg
   xmlns:dc="http://purl.org/dc/elements/1.1/"
   xmlns:cc="http://creativecommons.org/ns#"
   xmlns:rdf="http://www.w3.org/1999/02/22-rdf-syntax-ns#"
   xmlns:svg="http://www.w3.org/2000/svg"
   xmlns="http://www.w3.org/2000/svg"
   id="svg11"
   height="101.85mm"
   width="101.85mm"
   version="1.0">
  <metadata
     id="metadata15">
    <rdf:RDF>
      <cc:Work
         rdf:about="">
        <dc:format>image/svg+xml</dc:format>
        <dc:type
           rdf:resource="http://purl.org/dc/dcmitype/StillImage" />
      </cc:Work>
    </rdf:RDF>
  </metadata>
  <defs
     id="defs3">
    <pattern
       y="0"
       x="0"
       height="6"
       width="6"
       patternUnits="userSpaceOnUse"
       id="EMFhbasepattern" />
  </defs>
  <path
     id="path5"
     d="  M 330.54779,192.44658   C 330.54779,268.72992 268.72992,330.54779 192.44658,330.54779   C 116.20321,330.54779 54.345381,268.72992 54.345381,192.44658   C 54.345381,116.20321 116.20321,54.345381 192.44658,54.345381   C 268.72992,54.345381 330.54779,116.20321 330.54779,192.44658   z "
     style="fill:#80e0ff;fill-rule:evenodd;fill-opacity:1;stroke:none;" />
  <path
     id="path7"
     d="  M 330.54779,192.44658   C 330.54779,268.72992 268.72992,330.54779 192.44658,330.54779   C 116.20321,330.54779 54.345381,268.72992 54.345381,192.44658   C 54.345381,116.20321 116.20321,54.345381 192.44658,54.345381   C 268.72992,54.345381 330.54779,116.20321 330.54779,192.44658  "
     style="fill:none;stroke:#000000;stroke-width:9.5903616px;stroke-linecap:butt;stroke-linejoin:miter;stroke-miterlimit:10;stroke-dasharray:none;stroke-opacity:1;" />
  <path
     id="path9"
     d="  M 224.97389,231.36747   L 224.97389,135.30401   C 224.97389,125.43393 221.93694,116.68273 215.78313,109.0504   C 209.62931,101.41807 201.79719,97.621886 192.20682,97.621886   C 182.65642,97.621886 174.70442,101.37811 168.43072,108.8506   C 166.03313,111.84759 164.23494,115.88353 163.03614,120.95843   C 160.95823,129.9494 159.75944,134.74458 159.47972,135.30401   L 159.87931,231.80702   L 146.89237,231.80702   L 146.41285,135.30401   C 146.41285,121.55783 150.68855,109.72972 159.23996,99.859637   C 167.7514,89.989557 178.74036,85.034537 192.20682,85.034537   C 205.07389,85.034537 215.94297,90.149396 224.77409,100.33916   C 233.60522,110.48895 238.0008,122.15723 238.0008,135.30401   L 237.56124,232.24658   L 224.97389,232.24658   z  M 226.77209,287.47108   L 217.82108,296.02249   L 198.04096,277.16144   L 185.93313,277.16144   L 166.63253,296.02249   L 157.20201,287.47108   L 192.20682,252.0267   z  M 186.81225,155.08413   L 186.81225,142.49679   L 159.47972,142.49679   L 159.47972,155.08413   L 186.81225,155.08413   z  M 186.81225,176.62249   L 186.81225,164.03514   L 159.47972,164.03514   L 159.47972,176.62249   z  M 186.81225,197.24176   L 186.81225,184.69437   L 159.47972,184.69437   L 159.47972,197.24176   z  M 187.29176,90.868673   L 198.04096,90.868673   L 198.04096,261.41727   L 187.29176,261.41727   z  M 224.53433,155.08413   L 224.53433,142.49679   L 198.04096,142.49679   L 198.04096,155.08413   L 224.53433,155.08413   z  M 224.53433,176.62249   L 224.53433,164.03514   L 198.04096,164.03514   L 198.04096,176.62249   z  M 224.53433,197.24176   L 224.53433,184.69437   L 198.52048,184.69437   L 198.52048,197.24176   z "
     style="fill:#000000;fill-rule:evenodd;fill-opacity:1;stroke:none;" />
</svg>
