<?xml version="1.0" encoding="UTF-8" standalone="no"?>
<svg
   xmlns:dc="http://purl.org/dc/elements/1.1/"
   xmlns:cc="http://creativecommons.org/ns#"
   xmlns:rdf="http://www.w3.org/1999/02/22-rdf-syntax-ns#"
   xmlns:svg="http://www.w3.org/2000/svg"
   xmlns="http://www.w3.org/2000/svg"
   id="svg11"
   height="130.27mm"
   width="130.27mm"
   version="1.0">
  <metadata
     id="metadata15">
    <rdf:RDF>
      <cc:Work
         rdf:about="">
        <dc:format>image/svg+xml</dc:format>
        <dc:type
           rdf:resource="http://purl.org/dc/dcmitype/StillImage" />
      </cc:Work>
    </rdf:RDF>
  </metadata>
  <defs
     id="defs3">
    <pattern
       y="0"
       x="0"
       height="6"
       width="6"
       patternUnits="userSpaceOnUse"
       id="EMFhbasepattern" />
  </defs>
  <path
     id="path5"
     d="  M 164.63454,327.67068   C 164.63454,437.95983 327.67068,437.95983 327.67068,327.67068   C 437.95983,327.67068 437.95983,164.63454 327.67068,164.63454   C 327.67068,54.345381 164.63454,54.345381 164.63454,164.63454   C 54.345381,164.63454 54.345381,327.67068 164.63454,327.67068   z "
     style="fill:#ffff80;fill-rule:evenodd;fill-opacity:1;stroke:none;" />
  <path
     id="path7"
     d="  M 164.63454,327.67068   C 164.63454,437.95983 327.67068,437.95983 327.67068,327.67068   C 437.95983,327.67068 437.95983,164.63454 327.67068,164.63454   C 327.67068,54.345381 164.63454,54.345381 164.63454,164.63454   C 54.345381,164.63454 54.345381,327.67068 164.63454,327.67068  "
     style="fill:none;stroke:#000000;stroke-width:9.5903616px;stroke-linecap:butt;stroke-linejoin:miter;stroke-miterlimit:10;stroke-dasharray:none;stroke-opacity:1;" />
  <path
     id="path9"
     d="  M 176.94217,281.39718   L 176.94217,185.29377   L 213.18574,185.29377   C 219.57931,185.29377 224.45441,185.61345 227.81104,186.21285   C 232.5263,187.01205 236.48233,188.49056 239.67911,190.68835   C 242.8759,192.9261 245.43333,196.00301 247.39136,199.99899   C 249.30943,203.95502 250.30843,208.3506 250.30843,213.10582   C 250.30843,221.25763 247.71104,228.17068 242.4763,233.84498   C 237.28152,239.51927 227.89096,242.31646 214.30462,242.31646   L 189.64939,242.31646   L 189.64939,281.39718   z  M 189.64939,231.00783   L 214.50441,231.00783   C 222.69618,231.00783 228.53032,229.44939 232.00682,226.41245   C 235.44337,223.33554 237.16164,219.05984 237.16164,213.46546   C 237.16164,209.46947 236.16265,206.03293 234.1247,203.15582   C 232.08674,200.31867 229.40943,198.4006 226.09277,197.48152   C 223.9749,196.92209 220.01887,196.64237 214.2247,196.64237   L 189.64939,196.64237   z  M 290.94759,281.39718   L 290.94759,196.64237   L 259.25943,196.64237   L 259.25943,185.29377   L 335.46285,185.29377   L 335.46285,196.64237   L 303.65481,196.64237   L 303.65481,281.39718   z "
     style="fill:#000000;fill-rule:evenodd;fill-opacity:1;stroke:none;" />
</svg>
