<?xml version="1.0" encoding="UTF-8" standalone="no"?>
<svg
   xmlns:dc="http://purl.org/dc/elements/1.1/"
   xmlns:cc="http://creativecommons.org/ns#"
   xmlns:rdf="http://www.w3.org/1999/02/22-rdf-syntax-ns#"
   xmlns:svg="http://www.w3.org/2000/svg"
   xmlns="http://www.w3.org/2000/svg"
   id="svg17"
   height="112.9mm"
   width="112.9mm"
   version="1.0">
  <metadata
     id="metadata21">
    <rdf:RDF>
      <cc:Work
         rdf:about="">
        <dc:format>image/svg+xml</dc:format>
        <dc:type
           rdf:resource="http://purl.org/dc/dcmitype/StillImage" />
      </cc:Work>
    </rdf:RDF>
  </metadata>
  <defs
     id="defs3">
    <pattern
       y="0"
       x="0"
       height="6"
       width="6"
       patternUnits="userSpaceOnUse"
       id="EMFhbasepattern" />
  </defs>
  <path
     id="path5"
     d="  M 1817.3195,1817.1379   L 1817.3195,2190.121  "
     style="fill:none;stroke:#ff0000;stroke-width:10.649107px;stroke-linecap:butt;stroke-linejoin:miter;stroke-miterlimit:282;stroke-dasharray:none;stroke-opacity:1;" />
  <path
     id="path7"
     d="  M 2030.4905,1817.1379   L 2030.4905,2190.121  "
     style="fill:none;stroke:#ff0000;stroke-width:10.649107px;stroke-linecap:butt;stroke-linejoin:miter;stroke-miterlimit:282;stroke-dasharray:none;stroke-opacity:1;" />
  <path
     id="path9"
     d="  M 1924.9813,2012.1449   L 1838.6555,1964.1862   L 1838.6555,2060.1037   L 1924.9813,2012.1449   L 2011.307,1964.1862   L 2011.307,2060.1037   L 1924.9813,2012.1449   z "
     style="fill:#ff0000;fill-rule:nonzero;fill-opacity:1;stroke:none;" />
  <path
     id="path11"
     d="  M 1895.2242,1950.3273   L 1885.1415,1950.3273   L 1881.1764,1939.9425   L 1862.8615,1939.9425   L 1859.0852,1950.3273   L 1849.2669,1950.3273   L 1867.0909,1904.5588   L 1876.8715,1904.5588   z  M 1878.1932,1932.2389   L 1871.8868,1915.2456   L 1865.6937,1932.2389   z "
     style="fill:#ff0000;fill-rule:nonzero;fill-opacity:1;stroke:#ff0000;stroke-width:1.0573581px;stroke-linecap:butt;stroke-linejoin:miter;stroke-miterlimit:282;stroke-dasharray:none;stroke-opacity:1;" />
  <path
     id="path13"
     d="  M 1897.7921,1935.4487   L 1906.7796,1934.5802   C 1907.346,1937.6012 1908.4412,1939.8292 1910.1027,1941.2264   C 1911.7265,1942.6236 1913.9923,1943.3411 1916.7867,1943.3411   C 1919.77,1943.3411 1921.998,1942.7369 1923.5085,1941.453   C 1925.019,1940.2068 1925.7743,1938.7341 1925.7743,1937.0347   C 1925.7743,1935.9774 1925.4722,1935.0333 1924.8302,1934.2781   C 1924.1882,1933.5228 1923.0931,1932.8431 1921.5071,1932.3144   C 1920.412,1931.9368 1917.9574,1931.257 1914.1056,1930.313   C 1909.1587,1929.0668 1905.6845,1927.5563 1903.683,1925.7814   C 1900.8508,1923.2513 1899.4536,1920.1925 1899.4536,1916.5673   C 1899.4536,1914.226 1900.1333,1912.0358 1901.455,1910.0344   C 1902.7767,1907.9952 1904.6649,1906.4469 1907.1572,1905.3895   C 1909.6496,1904.3322 1912.6328,1903.8035 1916.1448,1903.8035   C 1921.9225,1903.8035 1926.2274,1905.0497 1929.1352,1907.5798   C 1932.0429,1910.0721 1933.5534,1913.433 1933.7045,1917.6624   L 1924.4526,1918.0778   C 1924.075,1915.6988 1923.2064,1913.9994 1921.9225,1912.9799   C 1920.6008,1911.9603 1918.6749,1911.4316 1916.0692,1911.4316   C 1913.3881,1911.4316 1911.2734,1911.998 1909.7629,1913.0931   C 1908.781,1913.8106 1908.2901,1914.7547 1908.2901,1915.9253   C 1908.2901,1917.0205 1908.7433,1917.9268 1909.6496,1918.7198   C 1910.8202,1919.7016 1913.6524,1920.7212 1918.1462,1921.7786   C 1922.64,1922.8359 1925.9631,1923.9311 1928.1156,1925.0639   C 1930.3058,1926.1968 1931.9674,1927.7451 1933.1758,1929.7088   C 1934.422,1931.6724 1935.0262,1934.127 1935.0262,1936.997   C 1935.0262,1939.6404 1934.2709,1942.095 1932.8359,1944.3985   C 1931.3632,1946.6643 1929.324,1948.3636 1926.6428,1949.4965   C 1923.9994,1950.5916 1920.6763,1951.158 1916.6734,1951.158   C 1910.8957,1951.158 1906.4775,1949.8363 1903.3432,1947.1552   C 1900.2466,1944.474 1898.3963,1940.5845 1897.7921,1935.4487   z "
     style="fill:#ff0000;fill-rule:nonzero;fill-opacity:1;stroke:#ff0000;stroke-width:1.0573581px;stroke-linecap:butt;stroke-linejoin:miter;stroke-miterlimit:282;stroke-dasharray:none;stroke-opacity:1;" />
  <path
     id="path15"
     d="  M 1949.3383,1950.3273   L 1938.4248,1904.5588   L 1947.8655,1904.5588   L 1954.7761,1936.0152   L 1963.1594,1904.5588   L 1974.1484,1904.5588   L 1982.1541,1936.5438   L 1989.178,1904.5588   L 1998.5054,1904.5588   L 1987.3654,1950.3273   L 1977.5848,1950.3273   L 1968.4462,1916.1142   L 1959.3832,1950.3273   z "
     style="fill:#ff0000;fill-rule:nonzero;fill-opacity:1;stroke:#ff0000;stroke-width:1.0573581px;stroke-linecap:butt;stroke-linejoin:miter;stroke-miterlimit:282;stroke-dasharray:none;stroke-opacity:1;" />
</svg>
