<?xml version="1.0" encoding="UTF-8" standalone="no"?>
<svg
   xmlns:dc="http://purl.org/dc/elements/1.1/"
   xmlns:cc="http://creativecommons.org/ns#"
   xmlns:rdf="http://www.w3.org/1999/02/22-rdf-syntax-ns#"
   xmlns:svg="http://www.w3.org/2000/svg"
   xmlns="http://www.w3.org/2000/svg"
   id="svg11"
   height="116.73mm"
   width="116.73mm"
   version="1.0">
  <metadata
     id="metadata15">
    <rdf:RDF>
      <cc:Work
         rdf:about="">
        <dc:format>image/svg+xml</dc:format>
        <dc:type
           rdf:resource="http://purl.org/dc/dcmitype/StillImage" />
      </cc:Work>
    </rdf:RDF>
  </metadata>
  <defs
     id="defs3">
    <pattern
       y="0"
       x="0"
       height="6"
       width="6"
       patternUnits="userSpaceOnUse"
       id="EMFhbasepattern" />
  </defs>
  <path
     id="path5"
     d="  M 220.57831,386.49156   L 220.57831,386.49156   L 386.49156,220.57831   L 220.57831,54.665059   L 54.665059,220.57831   z "
     style="fill:#ff8080;fill-rule:evenodd;fill-opacity:1;stroke:none;" />
  <path
     id="path7"
     d="  M 220.57831,386.49156   L 220.57831,386.49156   L 386.49156,220.57831   L 220.57831,54.665059   L 54.665059,220.57831   z "
     style="fill:none;stroke:#000000;stroke-width:9.5903616px;stroke-linecap:butt;stroke-linejoin:miter;stroke-miterlimit:10;stroke-dasharray:none;stroke-opacity:1;" />
  <path
     id="path9"
     d="  M 140.81847,255.82289   L 140.81847,159.71948   L 177.06205,159.71948   C 183.45562,159.71948 188.33072,160.03915 191.68735,160.63855   C 196.40261,161.43775 200.35863,162.91626 203.55542,165.11405   C 206.75221,167.3518 209.30964,170.42871 211.26767,174.4247   C 213.18574,178.38072 214.18474,182.7763 214.18474,187.53152   C 214.18474,195.68333 211.58735,202.59638 206.35261,208.27068   C 201.15783,213.94498 191.76727,216.74217 178.18092,216.74217   L 153.5257,216.74217   L 153.5257,255.82289   z  M 153.5257,205.43353   L 178.38072,205.43353   C 186.57249,205.43353 192.40662,203.8751 195.88313,200.83815   C 199.31968,197.76124 201.03795,193.48554 201.03795,187.89116   C 201.03795,183.89518 200.03895,180.45863 198.001,177.58152   C 195.96305,174.74437 193.28574,172.8263 189.96907,171.90723   C 187.8512,171.34779 183.89518,171.06807 178.101,171.06807   L 153.5257,171.06807   z  M 229.96887,255.82289   L 229.96887,159.71948   L 249.10963,159.71948   L 271.84678,227.77108   C 273.96465,234.1247 275.48313,238.83996 276.44216,241.99678   C 277.56104,238.52028 279.23935,233.36546 281.55702,226.57229   L 304.57389,159.71948   L 321.6767,159.71948   L 321.6767,255.82289   L 309.40903,255.82289   L 309.40903,175.38373   L 281.4771,255.82289   L 270.00863,255.82289   L 242.23654,174.0251   L 242.23654,255.82289   z "
     style="fill:#000000;fill-rule:evenodd;fill-opacity:1;stroke:none;" />
</svg>
