<?xml version="1.0" encoding="UTF-8" standalone="no"?>
<svg
   xmlns:dc="http://purl.org/dc/elements/1.1/"
   xmlns:cc="http://creativecommons.org/ns#"
   xmlns:rdf="http://www.w3.org/1999/02/22-rdf-syntax-ns#"
   xmlns:svg="http://www.w3.org/2000/svg"
   xmlns="http://www.w3.org/2000/svg"
   id="svg11"
   height="116.73mm"
   width="116.73mm"
   version="1.0">
  <metadata
     id="metadata15">
    <rdf:RDF>
      <cc:Work
         rdf:about="">
        <dc:format>image/svg+xml</dc:format>
        <dc:type
           rdf:resource="http://purl.org/dc/dcmitype/StillImage" />
      </cc:Work>
    </rdf:RDF>
  </metadata>
  <defs
     id="defs3">
    <pattern
       y="0"
       x="0"
       height="6"
       width="6"
       patternUnits="userSpaceOnUse"
       id="EMFhbasepattern" />
  </defs>
  <path
     id="path5"
     d="  M 220.57831,386.49156   L 220.57831,386.49156   L 386.49156,220.57831   L 220.57831,54.665059   L 54.665059,220.57831   L 220.57831,386.49156   z "
     style="fill:#ff8080;fill-rule:evenodd;fill-opacity:1;stroke:none;" />
  <path
     id="path7"
     d="  M 220.57831,386.49156   L 220.57831,386.49156   L 386.49156,220.57831   L 220.57831,54.665059   L 54.665059,220.57831   L 220.57831,386.49156  "
     style="fill:none;stroke:#000000;stroke-width:9.5903616px;stroke-linecap:butt;stroke-linejoin:miter;stroke-miterlimit:10;stroke-dasharray:none;stroke-opacity:1;" />
  <path
     id="path9"
     d="  M 251.70702,259.17951   L 251.70702,163.2759   C 251.70702,153.1261 248.75,144.33494 242.8759,136.86245   C 237.0018,129.38996 229.36947,125.63373 219.97891,125.63373   C 210.58835,125.63373 202.79618,129.38996 196.64237,136.86245   C 194.24478,139.85944 192.5265,143.89538 191.32771,148.97028   C 189.2498,157.92128 188.09096,162.71646 187.81124,163.2759   L 187.81124,259.61907   L 174.54458,259.61907   L 174.54458,163.35582   C 174.54458,149.60964 178.78032,137.82148 187.17188,127.9514   C 195.60341,118.12128 206.47249,113.16626 219.73915,113.16626   C 232.44638,113.16626 243.15562,118.24116 251.86686,128.43092   C 260.57811,138.58072 264.93373,150.20903 264.93373,163.35582   L 264.93373,260.09859   L 250.98775,260.09859   z  M 254.14457,315.16325   L 245.15361,323.55481   L 225.21365,304.85361   L 213.30562,304.85361   L 193.96506,323.55481   L 185.13393,315.88253   L 219.81907,280.11847   z  M 214.30462,180.97811   L 214.30462,168.51064   L 187.81124,168.51064   L 187.81124,180.97811   z  M 214.30462,204.43454   L 214.30462,191.88715   L 187.81124,191.88715   L 187.81124,204.43454   z  M 214.30462,118.64076   L 225.21365,118.64076   L 225.21365,289.26927   L 214.30462,289.26927   z  M 251.70702,180.97811   L 251.70702,168.51064   L 225.21365,168.51064   L 225.21365,180.97811   z  M 251.70702,204.43454   L 251.70702,191.88715   L 225.21365,191.88715   L 225.21365,204.43454   z "
     style="fill:#000000;fill-rule:evenodd;fill-opacity:1;stroke:none;" />
</svg>
