<?xml version="1.0" encoding="UTF-8" standalone="no"?>
<svg
   xmlns:dc="http://purl.org/dc/elements/1.1/"
   xmlns:cc="http://creativecommons.org/ns#"
   xmlns:rdf="http://www.w3.org/1999/02/22-rdf-syntax-ns#"
   xmlns:svg="http://www.w3.org/2000/svg"
   xmlns="http://www.w3.org/2000/svg"
   id="svg11"
   height="101.85mm"
   width="101.85mm"
   version="1.0">
  <metadata
     id="metadata15">
    <rdf:RDF>
      <cc:Work
         rdf:about="">
        <dc:format>image/svg+xml</dc:format>
        <dc:type
           rdf:resource="http://purl.org/dc/dcmitype/StillImage" />
      </cc:Work>
    </rdf:RDF>
  </metadata>
  <defs
     id="defs3">
    <pattern
       y="0"
       x="0"
       height="6"
       width="6"
       patternUnits="userSpaceOnUse"
       id="EMFhbasepattern" />
  </defs>
  <path
     id="path5"
     d="  M 330.54779,192.44658   C 330.54779,268.72992 268.72992,330.54779 192.44658,330.54779   C 116.20321,330.54779 54.345381,268.72992 54.345381,192.44658   C 54.345381,116.20321 116.20321,54.345381 192.44658,54.345381   C 268.72992,54.345381 330.54779,116.20321 330.54779,192.44658   z "
     style="fill:#80e0ff;fill-rule:evenodd;fill-opacity:1;stroke:none;" />
  <path
     id="path7"
     d="  M 330.54779,192.44658   C 330.54779,268.72992 268.72992,330.54779 192.44658,330.54779   C 116.20321,330.54779 54.345381,268.72992 54.345381,192.44658   C 54.345381,116.20321 116.20321,54.345381 192.44658,54.345381   C 268.72992,54.345381 330.54779,116.20321 330.54779,192.44658  "
     style="fill:none;stroke:#000000;stroke-width:9.5903616px;stroke-linecap:butt;stroke-linejoin:miter;stroke-miterlimit:10;stroke-dasharray:none;stroke-opacity:1;" />
  <path
     id="path9"
     d="  M 162.07711,133.10622   L 152.16707,125.23413   L 192.56646,87.911645   L 232.08674,124.39498   L 223.09578,133.10622   L 192.56646,104.93454   L 162.07711,133.10622  z    M 227.13172,151.32791   L 218.18072,160.03915   L 198.4006,141.77751   L 197.96104,271.04759   L 185.85321,269.40923   L 186.29277,142.21707   L 166.99217,160.43875   L 158.04116,152.16707   L 192.56646,119.83956   L 227.13172,151.32791  z    M 228.0508,294.66385   L 218.62028,302.53594   L 193.04598,279.31927   L 167.91124,302.53594   L 158.48072,293.86465   L 193.48554,261.93674   L 228.0508,294.66385  z    M 185.85321,238.76004   L 185.85321,227.13172   L 159.83936,227.13172   L 159.83936,238.76004   L 185.85321,238.76004  z    M 185.85321,184.89417   L 185.85321,173.26586   L 160.71847,173.26586   L 160.71847,184.89417   L 185.85321,184.89417  z    M 185.85321,210.98795   L 185.85321,199.3996   L 160.71847,199.3996   L 160.71847,210.98795   L 185.85321,210.98795  z    M 221.73715,185.29377   L 221.73715,173.70542   L 197.96104,173.70542   L 197.96104,185.29377   L 221.73715,185.29377  z    M 221.73715,210.98795   L 221.73715,199.3996   L 197.96104,199.79919   L 197.96104,211.38755   L 221.73715,210.98795  z    M 220.85803,239.15964   L 220.85803,227.13172   L 197.96104,227.13172   L 197.96104,239.15964   L 220.85803,239.15964  z   "
     style="fill:#000000;fill-rule:evenodd;fill-opacity:1;stroke:none;" />
</svg>
