<?xml version="1.0" encoding="UTF-8" standalone="no"?>
<svg
   xmlns:dc="http://purl.org/dc/elements/1.1/"
   xmlns:cc="http://creativecommons.org/ns#"
   xmlns:rdf="http://www.w3.org/1999/02/22-rdf-syntax-ns#"
   xmlns:svg="http://www.w3.org/2000/svg"
   xmlns="http://www.w3.org/2000/svg"
   id="svg11"
   height="101.85mm"
   width="101.85mm"
   version="1.0">
  <metadata
     id="metadata15">
    <rdf:RDF>
      <cc:Work
         rdf:about="">
        <dc:format>image/svg+xml</dc:format>
        <dc:type
           rdf:resource="http://purl.org/dc/dcmitype/StillImage" />
      </cc:Work>
    </rdf:RDF>
  </metadata>
  <defs
     id="defs3">
    <pattern
       y="0"
       x="0"
       height="6"
       width="6"
       patternUnits="userSpaceOnUse"
       id="EMFhbasepattern" />
  </defs>
  <path
     id="path5"
     d="  M 330.54779,192.44658   C 330.54779,268.72992 268.72992,330.54779 192.44658,330.54779   C 116.20321,330.54779 54.345381,268.72992 54.345381,192.44658   C 54.345381,116.20321 116.20321,54.345381 192.44658,54.345381   C 268.72992,54.345381 330.54779,116.20321 330.54779,192.44658   z "
     style="fill:#80e0ff;fill-rule:evenodd;fill-opacity:1;stroke:none;" />
  <path
     id="path7"
     d="  M 330.54779,192.44658   C 330.54779,268.72992 268.72992,330.54779 192.44658,330.54779   C 116.20321,330.54779 54.345381,268.72992 54.345381,192.44658   C 54.345381,116.20321 116.20321,54.345381 192.44658,54.345381   C 268.72992,54.345381 330.54779,116.20321 330.54779,192.44658  "
     style="fill:none;stroke:#000000;stroke-width:9.5903616px;stroke-linecap:butt;stroke-linejoin:miter;stroke-miterlimit:10;stroke-dasharray:none;stroke-opacity:1;" />
  <path
     id="path9"
     d="  M 123.23614,227.69116   L 123.23614,131.58775   L 159.47972,131.58775   C 165.87329,131.58775 170.74839,131.90743 174.10502,132.50683   C 178.82028,133.30602 182.7763,134.78454 185.97309,136.98233   C 189.16988,139.22008 191.72731,142.29699 193.68534,146.29297   C 195.60341,150.24899 196.60241,154.64458 196.60241,159.3998   C 196.60241,167.5516 194.00502,174.46466 188.77028,180.13895   C 183.5755,185.81325 174.18494,188.61044 160.59859,188.61044   L 135.94337,188.61044   L 135.94337,227.69116   z  M 135.94337,177.3018   L 160.79839,177.3018   C 168.99016,177.3018 174.82429,175.74337 178.3008,172.70642   C 181.73735,169.62952 183.45562,165.35381 183.45562,159.75944   C 183.45562,155.76345 182.45662,152.32691 180.41867,149.4498   C 178.38072,146.61265 175.70341,144.69458 172.38674,143.7755   C 170.26887,143.21606 166.31285,142.93634 160.51867,142.93634   L 135.94337,142.93634   z  M 237.24156,227.69116   L 237.24156,142.93634   L 205.55341,142.93634   L 205.55341,131.58775   L 281.75682,131.58775   L 281.75682,142.93634   L 249.94879,142.93634   L 249.94879,227.69116   z "
     style="fill:#000000;fill-rule:evenodd;fill-opacity:1;stroke:none;" />
</svg>
