<?xml version="1.0" encoding="UTF-8" standalone="no"?>
<svg
   xmlns:dc="http://purl.org/dc/elements/1.1/"
   xmlns:cc="http://creativecommons.org/ns#"
   xmlns:rdf="http://www.w3.org/1999/02/22-rdf-syntax-ns#"
   xmlns:svg="http://www.w3.org/2000/svg"
   xmlns="http://www.w3.org/2000/svg"
   id="svg13"
   height="95.75mm"
   width="95.75mm"
   version="1.0">
  <metadata
     id="metadata17">
    <rdf:RDF>
      <cc:Work
         rdf:about="">
        <dc:format>image/svg+xml</dc:format>
        <dc:type
           rdf:resource="http://purl.org/dc/dcmitype/StillImage" />
      </cc:Work>
    </rdf:RDF>
  </metadata>
  <defs
     id="defs3">
    <pattern
       y="0"
       x="0"
       height="6"
       width="6"
       patternUnits="userSpaceOnUse"
       id="EMFhbasepattern" />
  </defs>
  <path
     id="path5"
     d="  M 54.345381,54.345381   L 54.345381,307.53092   L 307.53092,307.53092   L 307.53092,54.345381   L 54.345381,54.345381   z "
     style="fill:#aaffaa;fill-rule:evenodd;fill-opacity:1;stroke:none;" />
  <path
     id="path7"
     d="  M 54.345381,54.345381   L 307.53092,54.345381   L 307.53092,307.53092   L 54.345381,307.53092   z "
     style="fill:none;stroke:#000000;stroke-width:9.5903616px;stroke-linecap:butt;stroke-linejoin:miter;stroke-miterlimit:10;stroke-dasharray:none;stroke-opacity:1;" />
  <path
     id="path9"
     d="  M 123.6757,187.41164   L 123.6757,91.308232   L 136.38293,91.308232   L 136.38293,176.06305   L 183.69538,176.06305   L 183.69538,187.41164   L 123.6757,187.41164  z    M 198.32068,187.41164   L 198.32068,91.308232   L 211.06787,91.308232   L 211.06787,176.06305   L 258.38032,176.06305   L 258.38032,187.41164   L 198.32068,187.41164  z   "
     style="fill:#000000;fill-rule:evenodd;fill-opacity:1;stroke:none;" />
  <path
     id="path11"
     d="  M 109.88956,248.90984   L 127.03233,204.2747   L 133.38594,204.2747   L 151.64759,248.90984   L 144.93434,248.90984   L 139.73956,235.36345   L 121.07831,235.36345   L 116.16325,248.90984   z  M 122.75662,230.56827   L 137.9014,230.56827   L 133.2261,218.22068   C 131.82751,214.46445 130.74859,211.38755 130.06928,208.95   C 129.50984,211.82711 128.71064,214.66425 127.67168,217.5014   z  M 154.36486,234.56425   L 159.91927,234.08474   C 160.19899,236.32249 160.79839,238.12068 161.79739,239.55923   C 162.75642,240.99779 164.23494,242.15662 166.27289,243.03574   C 168.31084,243.91486 170.58855,244.35441 173.10602,244.35441   C 175.38373,244.35441 177.34176,244.03474 179.1,243.35542   C 180.81827,242.6761 182.09699,241.75702 182.93614,240.59819   C 183.7753,239.43935 184.21486,238.16064 184.21486,236.802   C 184.21486,235.40341 183.7753,234.16466 182.9761,233.1257   C 182.1769,232.08674 180.81827,231.20763 178.98012,230.48835   C 177.78132,230.00883 175.10401,229.28955 171.02811,228.29056   C 166.91225,227.33152 164.03514,226.41245 162.39678,225.53333   C 160.27891,224.41445 158.68052,223.01586 157.64156,221.37751   C 156.60261,219.69919 156.08313,217.86104 156.08313,215.82309   C 156.08313,213.54538 156.72249,211.46747 158.0012,209.50943   C 159.27992,207.5514 161.11807,206.07289 163.59558,205.03393   C 166.03313,204.03494 168.79036,203.51546 171.78735,203.51546   C 175.10401,203.51546 178.02108,204.03494 180.53855,205.11385   C 183.05602,206.19277 185.01405,207.7512 186.37269,209.82911   C 187.73132,211.86707 188.4506,214.2247 188.53052,216.86205   L 182.89618,217.26164   C 182.5765,214.46445 181.53755,212.30662 179.77931,210.86807   C 178.06104,209.42952 175.46365,208.71024 172.02711,208.71024   C 168.43072,208.71024 165.83333,209.38956 164.19498,210.66827   C 162.59658,211.98694 161.75743,213.58534 161.75743,215.42349   C 161.75743,217.02188 162.35682,218.34056 163.51566,219.37951   C 164.63454,220.41847 167.59156,221.45743 172.38674,222.53634   C 177.18193,223.65522 180.49859,224.57429 182.29678,225.41345   C 184.89417,226.61225 186.81225,228.13072 188.051,229.96887   C 189.28976,231.80702 189.88915,233.88494 189.88915,236.28253   C 189.88915,238.68012 189.20984,240.91787 187.8512,242.99578   C 186.49257,245.11365 184.53454,246.752 181.97711,247.91084   C 179.45964,249.06968 176.58253,249.66907 173.38574,249.66907   C 169.3498,249.66907 165.95321,249.06968 163.23594,247.91084   C 160.51867,246.71204 158.36084,244.95381 156.80241,242.59618   C 155.28393,240.23855 154.44478,237.56124 154.36486,234.56425   z  M 205.75321,248.90984   L 193.9251,204.2747   L 199.95903,204.2747   L 206.75221,233.5253   C 207.47148,236.60221 208.11084,239.63915 208.63032,242.6761   C 209.78915,237.88092 210.42851,235.12369 210.62831,234.40441   L 219.13976,204.2747   L 226.25261,204.2747   L 232.64618,226.852   C 234.24457,232.44638 235.40341,237.72108 236.12269,242.6761   C 236.68213,239.83895 237.44136,236.60221 238.36044,232.96586   L 245.35341,204.2747   L 251.26747,204.2747   L 239.03976,248.90984   L 233.36546,248.90984   L 223.93494,214.90401   C 223.1757,212.06686 222.69618,210.30863 222.53634,209.66927   C 222.09678,211.70723 221.65723,213.46546 221.25763,214.90401   L 211.78715,248.90984   z "
     style="fill:#000000;fill-rule:evenodd;fill-opacity:1;stroke:none;" />
</svg>
