<?xml version="1.0" encoding="UTF-8" standalone="no"?>
<svg
   xmlns:dc="http://purl.org/dc/elements/1.1/"
   xmlns:cc="http://creativecommons.org/ns#"
   xmlns:rdf="http://www.w3.org/1999/02/22-rdf-syntax-ns#"
   xmlns:svg="http://www.w3.org/2000/svg"
   xmlns="http://www.w3.org/2000/svg"
   id="svg11"
   height="101.85mm"
   width="101.85mm"
   version="1.0">
  <metadata
     id="metadata15">
    <rdf:RDF>
      <cc:Work
         rdf:about="">
        <dc:format>image/svg+xml</dc:format>
        <dc:type
           rdf:resource="http://purl.org/dc/dcmitype/StillImage" />
      </cc:Work>
    </rdf:RDF>
  </metadata>
  <defs
     id="defs3">
    <pattern
       y="0"
       x="0"
       height="6"
       width="6"
       patternUnits="userSpaceOnUse"
       id="EMFhbasepattern" />
  </defs>
  <path
     id="path5"
     d="  M 330.54779,192.44658   C 330.54779,268.72992 268.72992,330.54779 192.44658,330.54779   C 116.20321,330.54779 54.345381,268.72992 54.345381,192.44658   C 54.345381,116.20321 116.20321,54.345381 192.44658,54.345381   C 268.72992,54.345381 330.54779,116.20321 330.54779,192.44658   z "
     style="fill:#80e0ff;fill-rule:evenodd;fill-opacity:1;stroke:none;" />
  <path
     id="path7"
     d="  M 330.54779,192.44658   C 330.54779,268.72992 268.72992,330.54779 192.44658,330.54779   C 116.20321,330.54779 54.345381,268.72992 54.345381,192.44658   C 54.345381,116.20321 116.20321,54.345381 192.44658,54.345381   C 268.72992,54.345381 330.54779,116.20321 330.54779,192.44658  "
     style="fill:none;stroke:#000000;stroke-width:9.5903616px;stroke-linecap:butt;stroke-linejoin:miter;stroke-miterlimit:10;stroke-dasharray:none;stroke-opacity:1;" />
  <path
     id="path9"
     d="  M 112.68675,227.69116   L 112.68675,131.58775   L 148.93032,131.58775   C 155.32389,131.58775 160.19899,131.90743 163.55562,132.50683   C 168.27088,133.30602 172.22691,134.78454 175.42369,136.98233   C 178.62048,139.22008 181.17791,142.29699 183.13594,146.29297   C 185.05401,150.24899 186.05301,154.64458 186.05301,159.3998   C 186.05301,167.5516 183.45562,174.46466 178.22088,180.13895   C 173.0261,185.81325 163.63554,188.61044 150.04919,188.61044   L 125.39397,188.61044   L 125.39397,227.69116   z  M 125.39397,177.3018   L 150.24899,177.3018   C 158.44076,177.3018 164.2749,175.74337 167.7514,172.70642   C 171.18795,169.62952 172.90622,165.35381 172.90622,159.75944   C 172.90622,155.76345 171.90723,152.32691 169.86927,149.4498   C 167.83132,146.61265 165.15401,144.69458 161.83735,143.7755   C 159.71948,143.21606 155.76345,142.93634 149.96927,142.93634   L 125.39397,142.93634   z  M 201.83715,227.69116   L 201.83715,131.58775   L 220.97791,131.58775   L 243.71506,199.63935   C 245.83293,205.99297 247.3514,210.70823 248.31044,213.86506   C 249.42931,210.38855 251.10763,205.23373 253.4253,198.44056   L 276.44216,131.58775   L 293.54498,131.58775   L 293.54498,227.69116   L 281.27731,227.69116   L 281.27731,147.25201   L 253.34538,227.69116   L 241.8769,227.69116   L 214.10482,145.89337   L 214.10482,227.69116   z "
     style="fill:#000000;fill-rule:evenodd;fill-opacity:1;stroke:none;" />
</svg>
