<?xml version="1.0" encoding="UTF-8" standalone="no"?>
<svg
   xmlns:dc="http://purl.org/dc/elements/1.1/"
   xmlns:cc="http://creativecommons.org/ns#"
   xmlns:rdf="http://www.w3.org/1999/02/22-rdf-syntax-ns#"
   xmlns:svg="http://www.w3.org/2000/svg"
   xmlns="http://www.w3.org/2000/svg"
   id="svg11"
   height="101.85mm"
   width="101.85mm"
   version="1.0">
  <metadata
     id="metadata15">
    <rdf:RDF>
      <cc:Work
         rdf:about="">
        <dc:format>image/svg+xml</dc:format>
        <dc:type
           rdf:resource="http://purl.org/dc/dcmitype/StillImage" />
      </cc:Work>
    </rdf:RDF>
  </metadata>
  <defs
     id="defs3">
    <pattern
       y="0"
       x="0"
       height="6"
       width="6"
       patternUnits="userSpaceOnUse"
       id="EMFhbasepattern" />
  </defs>
  <path
     id="path5"
     d="  M 330.54779,192.44658   C 330.54779,268.72992 268.72992,330.54779 192.44658,330.54779   C 116.20321,330.54779 54.345381,268.72992 54.345381,192.44658   C 54.345381,116.20321 116.20321,54.345381 192.44658,54.345381   C 268.72992,54.345381 330.54779,116.20321 330.54779,192.44658   z "
     style="fill:#80e0ff;fill-rule:evenodd;fill-opacity:1;stroke:none;" />
  <path
     id="path7"
     d="  M 330.54779,192.44658   C 330.54779,268.72992 268.72992,330.54779 192.44658,330.54779   C 116.20321,330.54779 54.345381,268.72992 54.345381,192.44658   C 54.345381,116.20321 116.20321,54.345381 192.44658,54.345381   C 268.72992,54.345381 330.54779,116.20321 330.54779,192.44658  "
     style="fill:none;stroke:#000000;stroke-width:9.5903616px;stroke-linecap:butt;stroke-linejoin:miter;stroke-miterlimit:10;stroke-dasharray:none;stroke-opacity:1;" />
  <path
     id="path9"
     d="  M 152.16707,132.50683   L 163.0761,132.50683   L 163.0761,208.7502   L 152.16707,208.7502   z  M 228.09076,279.51907   L 219.49939,287.87068   L 194.40462,264.13453   L 168.3508,287.87068   L 159.87931,280.43815   L 193.96506,248.3504   z  M 189.56948,164.87429   L 189.56948,153.20602   L 163.0761,153.20602   L 163.0761,164.87429   z  M 189.56948,189.64939   L 189.56948,177.82128   L 163.0761,177.82128   L 163.0761,189.64939   z  M 199.71927,87.911645   L 199.71927,253.34538   L 188.01104,253.34538   L 188.01104,87.911645   C 191.48755,87.671886 195.40361,87.671886 199.71927,87.911645   z  M 223.85502,164.87429   L 223.85502,152.76646   L 199.71927,153.20602   L 199.71927,164.87429   L 223.85502,164.87429   z  M 223.85502,189.68935   L 223.85502,177.82128   L 199.71927,177.82128   L 199.71927,190.08895   z  M 223.85502,132.50683   L 235.56325,132.50683   L 235.56325,208.7502   L 223.85502,208.7502   z "
     style="fill:#000000;fill-rule:evenodd;fill-opacity:1;stroke:none;" />
</svg>
