<?xml version="1.0" encoding="UTF-8" standalone="no"?>
<svg
   xmlns:dc="http://purl.org/dc/elements/1.1/"
   xmlns:cc="http://creativecommons.org/ns#"
   xmlns:rdf="http://www.w3.org/1999/02/22-rdf-syntax-ns#"
   xmlns:svg="http://www.w3.org/2000/svg"
   xmlns="http://www.w3.org/2000/svg"
   id="svg11"
   height="116.73mm"
   width="116.73mm"
   version="1.0">
  <metadata
     id="metadata15">
    <rdf:RDF>
      <cc:Work
         rdf:about="">
        <dc:format>image/svg+xml</dc:format>
        <dc:type
           rdf:resource="http://purl.org/dc/dcmitype/StillImage" />
      </cc:Work>
    </rdf:RDF>
  </metadata>
  <defs
     id="defs3">
    <pattern
       y="0"
       x="0"
       height="6"
       width="6"
       patternUnits="userSpaceOnUse"
       id="EMFhbasepattern" />
  </defs>
  <path
     id="path5"
     d="  M 220.57831,386.49156   L 220.57831,386.49156   L 386.49156,220.57831   L 220.57831,54.665059   L 54.665059,220.57831   L 220.57831,386.49156   z "
     style="fill:#ff8080;fill-rule:evenodd;fill-opacity:1;stroke:none;" />
  <path
     id="path7"
     d="  M 220.57831,386.49156   L 220.57831,386.49156   L 386.49156,220.57831   L 220.57831,54.665059   L 54.665059,220.57831   L 220.57831,386.49156  "
     style="fill:none;stroke:#000000;stroke-width:9.5903616px;stroke-linecap:butt;stroke-linejoin:miter;stroke-miterlimit:10;stroke-dasharray:none;stroke-opacity:1;" />
  <path
     id="path9"
     d="  M 180.29879,141.73755   L 191.08795,141.73755   L 191.08795,255.70301   L 180.29879,255.70301   z  M 256.18253,307.49096   L 247.63112,315.76265   L 222.49638,291.74678   L 196.48253,315.76265   L 187.49156,307.89056   L 222.05682,275.56305   z  M 217.58132,180.29879   L 217.58132,168.67048   L 192.00703,168.67048   L 192.00703,180.29879   L 217.58132,180.29879   z  M 217.58132,205.15381   L 217.58132,193.5255   L 192.00703,193.5255   L 192.00703,205.15381   z  M 217.58132,230.00883   L 217.58132,218.42048   L 192.00703,218.42048   L 192.00703,230.00883   z  M 228.33052,116.04337   L 227.89096,281.79678   L 216.22269,281.79678   L 216.22269,116.04337   C 219.81907,115.80361 223.85502,115.80361 228.33052,116.04337   z  M 253.0257,180.29879   L 253.0257,168.27088   L 229.2496,168.67048   L 229.2496,180.69839   z  M 253.0257,205.15381   L 253.0257,193.1259   L 229.2496,193.5255   L 229.2496,205.55341   z  M 253.0257,230.00883   L 253.0257,217.98092   L 229.2496,218.42048   L 229.2496,230.40843   z  M 252.14658,141.33795   L 263.81486,141.33795   L 263.81486,255.26345   L 252.14658,255.26345   z "
     style="fill:#000000;fill-rule:evenodd;fill-opacity:1;stroke:none;" />
</svg>
