<?xml version="1.0" encoding="UTF-8" standalone="no"?>
<svg
   xmlns:dc="http://purl.org/dc/elements/1.1/"
   xmlns:cc="http://creativecommons.org/ns#"
   xmlns:rdf="http://www.w3.org/1999/02/22-rdf-syntax-ns#"
   xmlns:svg="http://www.w3.org/2000/svg"
   xmlns="http://www.w3.org/2000/svg"
   id="svg11"
   height="95.75mm"
   width="95.75mm"
   version="1.0">
  <metadata
     id="metadata15">
    <rdf:RDF>
      <cc:Work
         rdf:about="">
        <dc:format>image/svg+xml</dc:format>
        <dc:type
           rdf:resource="http://purl.org/dc/dcmitype/StillImage" />
      </cc:Work>
    </rdf:RDF>
  </metadata>
  <defs
     id="defs3">
    <pattern
       y="0"
       x="0"
       height="6"
       width="6"
       patternUnits="userSpaceOnUse"
       id="EMFhbasepattern" />
  </defs>
  <path
     id="path5"
     d="  M 54.345381,54.345381   L 54.345381,307.53092   L 307.53092,307.53092   L 307.53092,54.345381   L 54.345381,54.345381   z "
     style="fill:#aaffaa;fill-rule:evenodd;fill-opacity:1;stroke:none;" />
  <path
     id="path7"
     d="  M 54.345381,54.345381   L 307.53092,54.345381   L 307.53092,307.53092   L 54.345381,307.53092   z "
     style="fill:none;stroke:#000000;stroke-width:9.5903616px;stroke-linecap:butt;stroke-linejoin:miter;stroke-miterlimit:10;stroke-dasharray:none;stroke-opacity:1;" />
  <path
     id="path9"
     d="  M 213.46546,219.85903   L 213.46546,123.79558   C 213.46546,113.9255 210.42851,105.1743 204.2747,97.541966   C 198.12088,89.909637 190.28875,86.113453 180.69839,86.113453   C 171.14799,86.113453 163.19598,89.869677 156.92229,97.342167   C 154.5247,100.33916 152.7265,104.3751 151.52771,109.45   C 149.4498,118.44096 148.251,123.23614 147.97128,123.79558   L 148.37088,220.29859   L 135.38393,220.29859   L 134.90442,123.79558   C 134.90442,110.0494 139.18012,98.221284 147.73152,88.351204   C 156.24297,78.481123 167.23193,73.526103 180.69839,73.526103   C 193.56546,73.526103 204.43454,78.640963 213.26566,88.830722   C 222.09678,98.980521 226.49237,110.64879 226.49237,123.79558   L 226.05281,220.73815   L 213.46546,220.73815   z  M 215.26365,275.96265   L 206.31265,284.51405   L 186.53253,265.65301   L 174.4247,265.65301   L 155.12409,284.51405   L 145.69357,275.96265   L 180.69839,240.51827   z  M 175.30381,143.5757   L 175.30381,130.98835   L 147.97128,130.98835   L 147.97128,143.5757   L 175.30381,143.5757   z  M 175.30381,165.11405   L 175.30381,152.5267   L 147.97128,152.5267   L 147.97128,165.11405   z  M 175.30381,185.73333   L 175.30381,173.18594   L 147.97128,173.18594   L 147.97128,185.73333   z  M 175.78333,79.36024   L 186.53253,79.36024   L 186.53253,249.90883   L 175.78333,249.90883   z  M 213.0259,143.5757   L 213.0259,130.98835   L 186.53253,130.98835   L 186.53253,143.5757   L 213.0259,143.5757   z  M 213.0259,165.11405   L 213.0259,152.5267   L 186.53253,152.5267   L 186.53253,165.11405   z  M 213.0259,185.73333   L 213.0259,173.18594   L 187.01205,173.18594   L 187.01205,185.73333   z "
     style="fill:#000000;fill-rule:evenodd;fill-opacity:1;stroke:none;" />
</svg>
