<?xml version="1.0" encoding="UTF-8" standalone="no"?>
<svg
   xmlns:dc="http://purl.org/dc/elements/1.1/"
   xmlns:cc="http://creativecommons.org/ns#"
   xmlns:rdf="http://www.w3.org/1999/02/22-rdf-syntax-ns#"
   xmlns:svg="http://www.w3.org/2000/svg"
   xmlns="http://www.w3.org/2000/svg"
   id="svg11"
   height="116.73mm"
   width="116.73mm"
   version="1.0">
  <metadata
     id="metadata15">
    <rdf:RDF>
      <cc:Work
         rdf:about="">
        <dc:format>image/svg+xml</dc:format>
        <dc:type
           rdf:resource="http://purl.org/dc/dcmitype/StillImage" />
      </cc:Work>
    </rdf:RDF>
  </metadata>
  <defs
     id="defs3">
    <pattern
       y="0"
       x="0"
       height="6"
       width="6"
       patternUnits="userSpaceOnUse"
       id="EMFhbasepattern" />
  </defs>
  <path
     id="path5"
     d="  M 220.57831,386.49156   L 220.57831,386.49156   L 386.49156,220.57831   L 220.57831,54.665059   L 54.665059,220.57831   L 220.57831,386.49156   z "
     style="fill:#ff8080;fill-rule:evenodd;fill-opacity:1;stroke:none;" />
  <path
     id="path7"
     d="  M 220.57831,386.49156   L 220.57831,386.49156   L 386.49156,220.57831   L 220.57831,54.665059   L 54.665059,220.57831   L 220.57831,386.49156  "
     style="fill:none;stroke:#000000;stroke-width:9.5903616px;stroke-linecap:butt;stroke-linejoin:miter;stroke-miterlimit:10;stroke-dasharray:none;stroke-opacity:1;" />
  <path
     id="path9"
     d="  M 190.16887,161.79739   L 180.29879,153.96526   L 220.69819,116.04337   L 259.49919,152.44678   L 250.94779,161.51767   L 220.53835,133.66566   L 190.16887,161.79739  z    M 255.62309,306.93152   L 246.31245,314.56385   L 220.69819,291.50702   L 195.60341,314.56385   L 185.25381,306.29216   L 220.33855,274.04457   L 255.62309,306.93152  z    M 255.10361,179.85923   L 246.91184,188.57048   L 226.29257,169.82931   L 226.29257,284.03453   L 214.58433,284.03453   L 214.58433,169.98915   L 195.32369,189.08996   L 186.25281,180.81827   L 220.73815,148.57068   L 255.10361,179.85923  z    M 214.58433,225.37349   L 214.58433,213.58534   L 188.8502,213.58534   L 188.8502,225.37349   L 214.58433,225.37349  z    M 214.58433,251.30743   L 214.58433,239.75903   L 188.8502,239.75903   L 188.8502,251.30743   L 214.58433,251.30743  z    M 249.86887,225.37349   L 249.86887,214.0249   L 226.29257,214.0249   L 226.29257,225.37349   L 249.86887,225.37349  z    M 249.86887,251.30743   L 249.86887,239.75903   L 226.29257,239.75903   L 226.29257,251.70702   L 249.86887,251.30743  z   "
     style="fill:#000000;fill-rule:evenodd;fill-opacity:1;stroke:none;" />
</svg>
