<?xml version="1.0" encoding="UTF-8" standalone="no"?>
<svg
   xmlns:dc="http://purl.org/dc/elements/1.1/"
   xmlns:cc="http://creativecommons.org/ns#"
   xmlns:rdf="http://www.w3.org/1999/02/22-rdf-syntax-ns#"
   xmlns:svg="http://www.w3.org/2000/svg"
   xmlns="http://www.w3.org/2000/svg"
   id="svg11"
   height="107.94mm"
   width="95.75mm"
   version="1.0">
  <metadata
     id="metadata15">
    <rdf:RDF>
      <cc:Work
         rdf:about="">
        <dc:format>image/svg+xml</dc:format>
        <dc:type
           rdf:resource="http://purl.org/dc/dcmitype/StillImage" />
      </cc:Work>
    </rdf:RDF>
  </metadata>
  <defs
     id="defs3">
    <pattern
       y="0"
       x="0"
       height="6"
       width="6"
       patternUnits="userSpaceOnUse"
       id="EMFhbasepattern" />
  </defs>
  <path
     id="path5"
     d="  M 54.345381,353.56465   L 54.345381,171.34779   L 180.93815,54.345381   L 307.53092,171.34779   L 307.53092,353.56465   z "
     style="fill:#ff8080;fill-rule:evenodd;fill-opacity:1;stroke:none;" />
  <path
     id="path7"
     d="  M 54.345381,353.56465   L 54.345381,171.34779   L 180.93815,54.345381   L 307.53092,171.34779   L 307.53092,353.56465  "
     style="fill:none;stroke:#000000;stroke-width:9.5903616px;stroke-linecap:butt;stroke-linejoin:miter;stroke-miterlimit:10;stroke-dasharray:none;stroke-opacity:1;" />
  <path
     id="path9"
     d="  M 146.17309,220.57831   L 159.04016,219.41947   C 159.63956,224.57429 161.07811,228.81004 163.2759,232.1267   C 165.51365,235.40341 168.9502,238.08072 173.6255,240.11867   C 178.34076,242.15662 183.61546,243.19558 189.4496,243.19558   C 194.64437,243.19558 199.23976,242.39638 203.23574,240.87791   C 207.19176,239.31947 210.14879,237.2016 212.10682,234.52429   C 214.06486,231.80702 215.02389,228.88996 215.02389,225.69317   C 215.02389,222.45642 214.06486,219.65923 212.2267,217.22168   C 210.34859,214.82409 207.23172,212.78614 202.91606,211.14779   C 200.15883,210.06887 194.04498,208.39056 184.61446,206.11285   C 175.14397,203.8751 168.51064,201.71727 164.71446,199.67931   C 159.7994,197.12188 156.16305,193.9251 153.7255,190.12891   C 151.32791,186.29277 150.12911,182.01707 150.12911,177.3018   C 150.12911,172.10703 151.60763,167.23193 154.5247,162.71646   C 157.48172,158.201 161.79739,154.76446 167.47168,152.44678   C 173.14598,150.08915 179.41968,148.93032 186.37269,148.93032   C 194.00502,148.93032 200.71827,150.12911 206.55241,152.60662   C 212.38654,155.04417 216.86205,158.68052 220.01887,163.4757   C 223.13574,168.23092 224.81405,173.6255 225.05381,179.65944   L 211.98694,180.65843   C 211.30763,174.14498 208.91004,169.22992 204.87409,165.91325   C 200.83815,162.59658 194.84417,160.91827 186.93213,160.91827   C 178.7004,160.91827 172.66646,162.43674 168.91024,165.47369   C 165.15401,168.47068 163.23594,172.10703 163.23594,176.38273   C 163.23594,180.09899 164.59458,183.13594 167.27189,185.49357   C 169.86927,187.89116 176.74237,190.36867 187.81124,192.84618   C 198.88012,195.36365 206.47249,197.56144 210.58835,199.3996   C 216.58233,202.19678 221.01787,205.67329 223.85502,209.90903   C 226.73213,214.14478 228.17068,219.05984 228.17068,224.57429   C 228.17068,230.04879 226.57229,235.20361 223.45542,240.03875   C 220.29859,244.91385 215.82309,248.67008 209.90903,251.34739   C 204.03494,254.06465 197.44156,255.38333 190.08895,255.38333   C 180.77831,255.38333 172.94618,254.0247 166.67249,251.34739   C 160.35883,248.63012 155.40381,244.51425 151.84739,239.07972   C 148.251,233.60522 146.37289,227.4514 146.17309,220.57831   z "
     style="fill:#000000;fill-rule:evenodd;fill-opacity:1;stroke:none;" />
</svg>
