<?xml version="1.0" encoding="UTF-8" standalone="no"?>
<svg
   xmlns:dc="http://purl.org/dc/elements/1.1/"
   xmlns:cc="http://creativecommons.org/ns#"
   xmlns:rdf="http://www.w3.org/1999/02/22-rdf-syntax-ns#"
   xmlns:svg="http://www.w3.org/2000/svg"
   xmlns="http://www.w3.org/2000/svg"
   id="svg13"
   height="116.73mm"
   width="116.73mm"
   version="1.0">
  <metadata
     id="metadata17">
    <rdf:RDF>
      <cc:Work
         rdf:about="">
        <dc:format>image/svg+xml</dc:format>
        <dc:type
           rdf:resource="http://purl.org/dc/dcmitype/StillImage" />
      </cc:Work>
    </rdf:RDF>
  </metadata>
  <defs
     id="defs3">
    <pattern
       y="0"
       x="0"
       height="6"
       width="6"
       patternUnits="userSpaceOnUse"
       id="EMFhbasepattern" />
  </defs>
  <path
     id="path5"
     d="  M 220.57831,386.49156   L 220.57831,386.49156   L 386.49156,220.57831   L 220.57831,54.665059   L 54.665059,220.57831   z "
     style="fill:#ff8080;fill-rule:evenodd;fill-opacity:1;stroke:none;" />
  <path
     id="path7"
     d="  M 220.57831,386.49156   L 220.57831,386.49156   L 386.49156,220.57831   L 220.57831,54.665059   L 54.665059,220.57831   z "
     style="fill:none;stroke:#000000;stroke-width:9.5903616px;stroke-linecap:butt;stroke-linejoin:miter;stroke-miterlimit:10;stroke-dasharray:none;stroke-opacity:1;" />
  <path
     id="path9"
     d="  M 163.31586,227.0518   L 163.31586,130.94839   L 176.02309,130.94839   L 176.02309,215.70321   L 223.33554,215.70321   L 223.33554,227.0518   L 163.31586,227.0518  z    M 237.96084,227.0518   L 237.96084,130.94839   L 250.70803,130.94839   L 250.70803,215.70321   L 298.02048,215.70321   L 298.02048,227.0518   L 237.96084,227.0518  z   "
     style="fill:#000000;fill-rule:evenodd;fill-opacity:1;stroke:none;" />
  <path
     id="path11"
     d="  M 149.52972,288.55   L 166.67249,243.91486   L 173.0261,243.91486   L 191.28775,288.55   L 184.5745,288.55   L 179.37972,275.00361   L 160.71847,275.00361   L 155.80341,288.55   z  M 162.39678,270.20843   L 177.54156,270.20843   L 172.86626,257.86084   C 171.46767,254.10461 170.38875,251.02771 169.70944,248.59016   C 169.15,251.46727 168.3508,254.30441 167.31184,257.14156   z  M 194.00502,274.20441   L 199.55943,273.7249   C 199.83915,275.96265 200.43855,277.76084 201.43755,279.19939   C 202.39658,280.63795 203.8751,281.79678 205.91305,282.6759   C 207.951,283.55502 210.22871,283.99457 212.74618,283.99457   C 215.02389,283.99457 216.98192,283.6749 218.74016,282.99558   C 220.45843,282.31626 221.73715,281.39718 222.5763,280.23835   C 223.41546,279.07951 223.85502,277.8008 223.85502,276.44216   C 223.85502,275.04357 223.41546,273.80482 222.61626,272.76586   C 221.81707,271.7269 220.45843,270.84779 218.62028,270.12851   C 217.42148,269.64899 214.74417,268.92971 210.66827,267.93072   C 206.55241,266.97168 203.6753,266.05261 202.03694,265.17349   C 199.91907,264.05461 198.32068,262.65602 197.28172,261.01767   C 196.24277,259.33935 195.72329,257.5012 195.72329,255.46325   C 195.72329,253.18554 196.36265,251.10763 197.64136,249.14959   C 198.92008,247.19156 200.75823,245.71305 203.23574,244.67409   C 205.67329,243.6751 208.43052,243.15562 211.42751,243.15562   C 214.74417,243.15562 217.66124,243.6751 220.17871,244.75401   C 222.69618,245.83293 224.65421,247.39136 226.01285,249.46927   C 227.37148,251.50723 228.09076,253.86486 228.17068,256.50221   L 222.53634,256.9018   C 222.21666,254.10461 221.17771,251.94678 219.41947,250.50823   C 217.7012,249.06968 215.10381,248.3504 211.66727,248.3504   C 208.07088,248.3504 205.47349,249.02972 203.83514,250.30843   C 202.23674,251.6271 201.39759,253.2255 201.39759,255.06365   C 201.39759,256.66204 201.99699,257.98072 203.15582,259.01967   C 204.2747,260.05863 207.23172,261.09759 212.0269,262.1765   C 216.82209,263.29538 220.13875,264.21445 221.93694,265.05361   C 224.53433,266.25241 226.45241,267.77088 227.69116,269.60903   C 228.92992,271.44718 229.52931,273.5251 229.52931,275.92269   C 229.52931,278.32028 228.85,280.55803 227.49136,282.63594   C 226.13273,284.75381 224.1747,286.39216 221.61727,287.551   C 219.0998,288.70984 216.22269,289.30923 213.0259,289.30923   C 208.98996,289.30923 205.59337,288.70984 202.8761,287.551   C 200.15883,286.3522 198.001,284.59397 196.44257,282.23634   C 194.92409,279.87871 194.08494,277.2014 194.00502,274.20441   z  M 245.39337,288.55   L 233.56526,243.91486   L 239.59919,243.91486   L 246.39237,273.16546   C 247.11164,276.24237 247.751,279.27931 248.27048,282.31626   C 249.42931,277.52108 250.06867,274.76385 250.26847,274.04457   L 258.77992,243.91486   L 265.89277,243.91486   L 272.28634,266.49216   C 273.88473,272.08654 275.04357,277.36124 275.76285,282.31626   C 276.32229,279.47911 277.08152,276.24237 278.0006,272.60602   L 284.99357,243.91486   L 290.90763,243.91486   L 278.67992,288.55   L 273.00562,288.55   L 263.5751,254.54417   C 262.81586,251.70702 262.33634,249.94879 262.1765,249.30943   C 261.73694,251.34739 261.29739,253.10562 260.89779,254.54417   L 251.42731,288.55   z "
     style="fill:#000000;fill-rule:evenodd;fill-opacity:1;stroke:none;" />
</svg>
