<?xml version="1.0" encoding="UTF-8" standalone="no"?>
<svg
   xmlns:dc="http://purl.org/dc/elements/1.1/"
   xmlns:cc="http://creativecommons.org/ns#"
   xmlns:rdf="http://www.w3.org/1999/02/22-rdf-syntax-ns#"
   xmlns:svg="http://www.w3.org/2000/svg"
   xmlns="http://www.w3.org/2000/svg"
   id="svg11"
   height="116.06mm"
   width="135.35001mm"
   version="1.0">
  <metadata
     id="metadata15">
    <rdf:RDF>
      <cc:Work
         rdf:about="">
        <dc:format>image/svg+xml</dc:format>
        <dc:type
           rdf:resource="http://purl.org/dc/dcmitype/StillImage" />
      </cc:Work>
    </rdf:RDF>
  </metadata>
  <defs
     id="defs3">
    <pattern
       y="0"
       x="0"
       height="6"
       width="6"
       patternUnits="userSpaceOnUse"
       id="EMFhbasepattern" />
  </defs>
  <path
     id="path5"
     d="  M 337.26104,384.25381   C 457.14056,384.25381 457.14056,187.6514 337.26104,187.6514   C 337.26104,54.345381 174.2249,54.345381 174.2249,187.6514   C 54.345381,187.6514 54.345381,384.25381 174.2249,384.25381   z "
     style="fill:#ffff80;fill-rule:evenodd;fill-opacity:1;stroke:none;" />
  <path
     id="path7"
     d="  M 337.26104,384.25381   C 457.14056,384.25381 457.14056,187.6514 337.26104,187.6514   C 337.26104,54.345381 174.2249,54.345381 174.2249,187.6514   C 54.345381,187.6514 54.345381,384.25381 174.2249,384.25381  "
     style="fill:none;stroke:#000000;stroke-width:9.5903616px;stroke-linecap:butt;stroke-linejoin:miter;stroke-miterlimit:10;stroke-dasharray:none;stroke-opacity:1;" />
  <path
     id="path9"
     d="  M 220.97791,251.26747   L 233.84498,250.10863   C 234.44437,255.26345 235.88293,259.49919 238.08072,262.81586   C 240.31847,266.09257 243.75502,268.76988 248.43032,270.80783   C 253.14558,272.84578 258.42028,273.88473 264.25441,273.88473   C 269.44919,273.88473 274.04457,273.08554 278.04056,271.56706   C 281.99658,270.00863 284.95361,267.89076 286.91164,265.21345   C 288.86967,262.49618 289.82871,259.57911 289.82871,256.38233   C 289.82871,253.14558 288.86967,250.34839 287.03152,247.91084   C 285.15341,245.51325 282.03654,243.4753 277.72088,241.83694   C 274.96365,240.75803 268.8498,239.07972 259.41927,236.802   C 249.94879,234.56425 243.31546,232.40642 239.51927,230.36847   C 234.60421,227.81104 230.96787,224.61425 228.53032,220.81807   C 226.13273,216.98192 224.93393,212.70622 224.93393,207.99096   C 224.93393,202.79618 226.41245,197.92108 229.32951,193.40562   C 232.28654,188.89016 236.60221,185.45361 242.2765,183.13594   C 247.9508,180.77831 254.22449,179.61948 261.17751,179.61948   C 268.80984,179.61948 275.52309,180.81827 281.35722,183.29578   C 287.19136,185.73333 291.66686,189.36968 294.82369,194.16486   C 297.94056,198.92008 299.61887,204.31466 299.85863,210.34859   L 286.79176,211.34759   C 286.11245,204.83413 283.71486,199.91907 279.67891,196.60241   C 275.64297,193.28574 269.64899,191.60743 261.73694,191.60743   C 253.50522,191.60743 247.47128,193.1259 243.71506,196.16285   C 239.95883,199.15984 238.04076,202.79618 238.04076,207.07188   C 238.04076,210.78815 239.39939,213.8251 242.0767,216.18273   C 244.67409,218.58032 251.54719,221.05783 262.61606,223.53534   C 273.68494,226.05281 281.27731,228.2506 285.39317,230.08875   C 291.38714,232.88594 295.82269,236.36245 298.65984,240.59819   C 301.53694,244.83393 302.9755,249.74899 302.9755,255.26345   C 302.9755,260.73795 301.3771,265.89277 298.26024,270.72791   C 295.10341,275.60301 290.62791,279.35923 284.71385,282.03654   C 278.83976,284.75381 272.24638,286.07249 264.89377,286.07249   C 255.58313,286.07249 247.751,284.71385 241.47731,282.03654   C 235.16365,279.31927 230.20863,275.20341 226.65221,269.76887   C 223.05582,264.29437 221.17771,258.14056 220.97791,251.26747   z "
     style="fill:#000000;fill-rule:evenodd;fill-opacity:1;stroke:none;" />
</svg>
