<?xml version="1.0" encoding="UTF-8" standalone="no"?>
<svg
   xmlns:dc="http://purl.org/dc/elements/1.1/"
   xmlns:cc="http://creativecommons.org/ns#"
   xmlns:rdf="http://www.w3.org/1999/02/22-rdf-syntax-ns#"
   xmlns:svg="http://www.w3.org/2000/svg"
   xmlns="http://www.w3.org/2000/svg"
   id="svg11"
   height="130.27mm"
   width="130.27mm"
   version="1.0">
  <metadata
     id="metadata15">
    <rdf:RDF>
      <cc:Work
         rdf:about="">
        <dc:format>image/svg+xml</dc:format>
        <dc:type
           rdf:resource="http://purl.org/dc/dcmitype/StillImage" />
      </cc:Work>
    </rdf:RDF>
  </metadata>
  <defs
     id="defs3">
    <pattern
       y="0"
       x="0"
       height="6"
       width="6"
       patternUnits="userSpaceOnUse"
       id="EMFhbasepattern" />
  </defs>
  <path
     id="path5"
     d="  M 164.63454,327.67068   C 164.63454,437.95983 327.67068,437.95983 327.67068,327.67068   C 437.95983,327.67068 437.95983,164.63454 327.67068,164.63454   C 327.67068,54.345381 164.63454,54.345381 164.63454,164.63454   C 54.345381,164.63454 54.345381,327.67068 164.63454,327.67068   z "
     style="fill:#ffff80;fill-rule:evenodd;fill-opacity:1;stroke:none;" />
  <path
     id="path7"
     d="  M 164.63454,327.67068   C 164.63454,437.95983 327.67068,437.95983 327.67068,327.67068   C 437.95983,327.67068 437.95983,164.63454 327.67068,164.63454   C 327.67068,54.345381 164.63454,54.345381 164.63454,164.63454   C 54.345381,164.63454 54.345381,327.67068 164.63454,327.67068  "
     style="fill:none;stroke:#000000;stroke-width:9.5903616px;stroke-linecap:butt;stroke-linejoin:miter;stroke-miterlimit:10;stroke-dasharray:none;stroke-opacity:1;" />
  <path
     id="path9"
     d="  M 215.74317,187.37168   L 205.87309,179.53956   L 246.27249,141.61767   L 285.07349,178.02108   L 276.52208,187.09197   L 246.11265,159.23996   L 215.74317,187.37168  z    M 281.19739,332.50582   L 271.88674,340.13815   L 246.27249,317.08132   L 221.17771,340.13815   L 210.82811,331.86646   L 245.91285,299.61887   L 281.19739,332.50582  z    M 280.67791,205.43353   L 272.48614,214.14478   L 251.86686,195.40361   L 251.86686,309.60883   L 240.15863,309.60883   L 240.15863,195.56345   L 220.89799,214.66425   L 211.82711,206.39257   L 246.31245,174.14498   L 280.67791,205.43353  z    M 240.15863,250.94779   L 240.15863,239.15964   L 214.42449,239.15964   L 214.42449,250.94779   L 240.15863,250.94779  z    M 240.15863,276.88172   L 240.15863,265.33333   L 214.42449,265.33333   L 214.42449,276.88172   L 240.15863,276.88172  z    M 275.44317,250.94779   L 275.44317,239.59919   L 251.86686,239.59919   L 251.86686,250.94779   L 275.44317,250.94779  z    M 275.44317,276.88172   L 275.44317,265.33333   L 251.86686,265.33333   L 251.86686,277.28132   L 275.44317,276.88172  z   "
     style="fill:#000000;fill-rule:evenodd;fill-opacity:1;stroke:none;" />
</svg>
