<?xml version="1.0" encoding="UTF-8" standalone="no"?>
<svg
   xmlns:dc="http://purl.org/dc/elements/1.1/"
   xmlns:cc="http://creativecommons.org/ns#"
   xmlns:rdf="http://www.w3.org/1999/02/22-rdf-syntax-ns#"
   xmlns:svg="http://www.w3.org/2000/svg"
   xmlns="http://www.w3.org/2000/svg"
   id="svg19"
   height="125.53mm"
   width="95.75mm"
   version="1.0">
  <metadata
     id="metadata23">
    <rdf:RDF>
      <cc:Work
         rdf:about="">
        <dc:format>image/svg+xml</dc:format>
        <dc:type
           rdf:resource="http://purl.org/dc/dcmitype/StillImage" />
      </cc:Work>
    </rdf:RDF>
  </metadata>
  <defs
     id="defs3">
    <pattern
       y="0"
       x="0"
       height="6"
       width="6"
       patternUnits="userSpaceOnUse"
       id="EMFhbasepattern" />
  </defs>
  <path
     id="path5"
     d="  M 307.53092,420.05783   C 307.53092,54.665059 54.345381,54.665059 54.345381,420.05783   z "
     style="fill:#80e0ff;fill-rule:evenodd;fill-opacity:1;stroke:none;" />
  <path
     id="path7"
     d="  M 307.53092,420.05783   C 307.53092,54.665059 54.345381,54.665059 54.345381,420.05783  "
     style="fill:none;stroke:#000000;stroke-width:9.5903616px;stroke-linecap:butt;stroke-linejoin:miter;stroke-miterlimit:10;stroke-dasharray:none;stroke-opacity:1;" />
  <path
     id="path9"
     d="  M 166.55261,271.40722   L 166.55261,271.40722   L 166.55261,218.66024   L 180.93815,194.68433   L 195.32369,218.66024   L 195.32369,271.40722   z "
     style="fill:#ffff80;fill-rule:evenodd;fill-opacity:1;stroke:none;" />
  <path
     id="path11"
     d="  M 166.55261,271.40722   L 166.55261,271.40722   L 166.55261,218.66024   L 180.93815,194.68433   L 195.32369,218.66024   L 195.32369,271.40722  "
     style="fill:none;stroke:#000000;stroke-width:9.5903616px;stroke-linecap:butt;stroke-linejoin:miter;stroke-miterlimit:10;stroke-dasharray:none;stroke-opacity:1;" />
  <path
     id="path13"
     d="  M 195.32369,343.33493   L 195.32369,343.33493   L 195.32369,357.72048   L 209.70923,372.10602   L 209.70923,400.8771   L 180.93815,372.10602   L 152.16707,400.8771   L 152.16707,372.10602   L 166.55261,357.72048   L 166.55261,343.33493   z "
     style="fill:#ffff80;fill-rule:evenodd;fill-opacity:1;stroke:none;" />
  <path
     id="path15"
     d="  M 195.32369,343.33493   L 195.32369,343.33493   L 195.32369,357.72048   L 209.70923,372.10602   L 209.70923,400.8771   L 180.93815,372.10602   L 152.16707,400.8771   L 152.16707,372.10602   L 166.55261,357.72048   L 166.55261,343.33493  "
     style="fill:none;stroke:#000000;stroke-width:9.5903616px;stroke-linecap:butt;stroke-linejoin:miter;stroke-miterlimit:10;stroke-dasharray:none;stroke-opacity:1;" />
  <path
     id="path17"
     d="  M 90.668874,327.51084   L 114.40502,265.73293   L 123.23614,265.73293   L 148.49076,327.51084   L 139.18012,327.51084   L 131.98735,308.80963   L 106.13333,308.80963   L 99.380119,327.51084   z  M 108.49096,302.13634   L 129.46988,302.13634   L 122.99638,285.03353   C 121.03835,279.83875 119.55984,275.56305 118.64076,272.20642   C 117.84156,276.16245 116.72269,280.11847 115.28413,283.99457   z  M 154.68454,327.51084   L 154.68454,265.73293   L 177.86124,265.73293   C 182.61646,265.73293 186.37269,266.33233 189.2498,267.61104   C 192.08695,268.8498 194.3247,270.76787 195.92309,273.36526   C 197.56144,275.96265 198.36064,278.67992 198.36064,281.51706   C 198.36064,284.15441 197.64136,286.67188 196.20281,288.98955   C 194.76425,291.30722 192.60642,293.18534 189.72931,294.62389   C 193.44558,295.74277 196.32269,297.58092 198.36064,300.25823   C 200.35863,302.89558 201.35763,306.01245 201.35763,309.60883   C 201.35763,312.48594 200.75823,315.16325 199.51948,317.68072   C 198.28072,320.15823 196.80221,322.0763 195.00401,323.43494   C 193.20582,324.75361 190.92811,325.79257 188.21084,326.47188   C 185.53353,327.1512 182.1769,327.51084 178.26084,327.51084   z  M 162.8763,291.66686   L 176.22289,291.66686   C 179.85923,291.66686 182.45662,291.4271 184.01506,290.94759   C 186.13293,290.34819 187.69136,289.30923 188.73032,287.91064   C 189.76927,286.47208 190.32871,284.67389 190.32871,282.4761   C 190.32871,280.43815 189.80923,278.63996 188.8502,277.08152   C 187.8512,275.52309 186.45261,274.44417 184.61446,273.88473   C 182.81626,273.28534 179.65944,273.00562 175.22389,273.00562   L 162.8763,273.00562   z  M 162.8763,320.19819   L 178.26084,320.19819   C 180.89819,320.19819 182.73634,320.11827 183.81526,319.91847   C 185.69337,319.59879 187.29176,319.03935 188.53052,318.24016   C 189.80923,317.44096 190.84819,316.32208 191.64739,314.80361   C 192.48654,313.28514 192.88614,311.56686 192.88614,309.60883   C 192.88614,307.29116 192.28674,305.29317 191.12791,303.5749   C 189.92911,301.89658 188.29076,300.69779 186.21285,300.01847   C 184.09498,299.33915 181.09799,298.97951 177.18193,298.97951   L 162.8763,298.97951   z  M 212.34658,327.51084   L 212.34658,265.73293   L 224.65421,265.73293   L 239.27951,309.44899   C 240.63815,313.5249 241.63715,316.6018 242.23654,318.59979   C 242.95582,316.36204 244.03474,313.04538 245.51325,308.68975   L 260.29839,265.73293   L 271.32731,265.73293   L 271.32731,327.51084   L 263.41526,327.51084   L 263.41526,275.80281   L 245.47329,327.51084   L 238.12068,327.51084   L 220.21867,274.92369   L 220.21867,327.51084   z "
     style="fill:#000000;fill-rule:evenodd;fill-opacity:1;stroke:none;" />
</svg>
