<?xml version="1.0" encoding="UTF-8" standalone="no"?>
<svg
   xmlns:dc="http://purl.org/dc/elements/1.1/"
   xmlns:cc="http://creativecommons.org/ns#"
   xmlns:rdf="http://www.w3.org/1999/02/22-rdf-syntax-ns#"
   xmlns:svg="http://www.w3.org/2000/svg"
   xmlns="http://www.w3.org/2000/svg"
   id="svg11"
   height="125.53mm"
   width="95.75mm"
   version="1.0">
  <metadata
     id="metadata15">
    <rdf:RDF>
      <cc:Work
         rdf:about="">
        <dc:format>image/svg+xml</dc:format>
        <dc:type
           rdf:resource="http://purl.org/dc/dcmitype/StillImage" />
      </cc:Work>
    </rdf:RDF>
  </metadata>
  <defs
     id="defs3">
    <pattern
       y="0"
       x="0"
       height="6"
       width="6"
       patternUnits="userSpaceOnUse"
       id="EMFhbasepattern" />
  </defs>
  <path
     id="path5"
     d="  M 307.53092,420.05783   C 307.53092,54.665059 54.345381,54.665059 54.345381,420.05783   z "
     style="fill:#80e0ff;fill-rule:evenodd;fill-opacity:1;stroke:none;" />
  <path
     id="path7"
     d="  M 307.53092,420.05783   C 307.53092,54.665059 54.345381,54.665059 54.345381,420.05783  "
     style="fill:none;stroke:#000000;stroke-width:9.5903616px;stroke-linecap:butt;stroke-linejoin:miter;stroke-miterlimit:10;stroke-dasharray:none;stroke-opacity:1;" />
  <path
     id="path9"
     d="  M 146.17309,287.07148   L 159.04016,285.91265   C 159.63956,291.06747 161.07811,295.30321 163.2759,298.61988   C 165.51365,301.89658 168.9502,304.57389 173.6255,306.61184   C 178.34076,308.64979 183.61546,309.68875 189.4496,309.68875   C 194.64437,309.68875 199.23976,308.88955 203.23574,307.37108   C 207.19176,305.81265 210.14879,303.69477 212.10682,301.01747   C 214.06486,298.3002 215.02389,295.38313 215.02389,292.18634   C 215.02389,288.94959 214.06486,286.15241 212.2267,283.71486   C 210.34859,281.31727 207.23172,279.27931 202.91606,277.64096   C 200.15883,276.56204 194.04498,274.88373 184.61446,272.60602   C 175.14397,270.36827 168.51064,268.21044 164.71446,266.17249   C 159.7994,263.61506 156.16305,260.41827 153.7255,256.62208   C 151.32791,252.78594 150.12911,248.51024 150.12911,243.79498   C 150.12911,238.6002 151.60763,233.7251 154.5247,229.20964   C 157.48172,224.69417 161.79739,221.25763 167.47168,218.93996   C 173.14598,216.58233 179.41968,215.42349 186.37269,215.42349   C 194.00502,215.42349 200.71827,216.62229 206.55241,219.0998   C 212.38654,221.53735 216.86205,225.17369 220.01887,229.96887   C 223.13574,234.72409 224.81405,240.11867 225.05381,246.15261   L 211.98694,247.1516   C 211.30763,240.63815 208.91004,235.72309 204.87409,232.40642   C 200.83815,229.08976 194.84417,227.41144 186.93213,227.41144   C 178.7004,227.41144 172.66646,228.92992 168.91024,231.96686   C 165.15401,234.96385 163.23594,238.6002 163.23594,242.8759   C 163.23594,246.59217 164.59458,249.62911 167.27189,251.98674   C 169.86927,254.38433 176.74237,256.86184 187.81124,259.33935   C 198.88012,261.85682 206.47249,264.05461 210.58835,265.89277   C 216.58233,268.68996 221.01787,272.16646 223.85502,276.4022   C 226.73213,280.63795 228.17068,285.55301 228.17068,291.06747   C 228.17068,296.54196 226.57229,301.69678 223.45542,306.53192   C 220.29859,311.40702 215.82309,315.16325 209.90903,317.84056   C 204.03494,320.55783 197.44156,321.8765 190.08895,321.8765   C 180.77831,321.8765 172.94618,320.51787 166.67249,317.84056   C 160.35883,315.12329 155.40381,311.00743 151.84739,305.57289   C 148.251,300.09839 146.37289,293.94457 146.17309,287.07148   z "
     style="fill:#000000;fill-rule:evenodd;fill-opacity:1;stroke:none;" />
</svg>
