<?xml version="1.0" encoding="UTF-8" standalone="no"?>
<svg
   xmlns:dc="http://purl.org/dc/elements/1.1/"
   xmlns:cc="http://creativecommons.org/ns#"
   xmlns:rdf="http://www.w3.org/1999/02/22-rdf-syntax-ns#"
   xmlns:svg="http://www.w3.org/2000/svg"
   xmlns="http://www.w3.org/2000/svg"
   id="svg11"
   height="116.73mm"
   width="116.73mm"
   version="1.0">
  <metadata
     id="metadata15">
    <rdf:RDF>
      <cc:Work
         rdf:about="">
        <dc:format>image/svg+xml</dc:format>
        <dc:type
           rdf:resource="http://purl.org/dc/dcmitype/StillImage" />
      </cc:Work>
    </rdf:RDF>
  </metadata>
  <defs
     id="defs3">
    <pattern
       y="0"
       x="0"
       height="6"
       width="6"
       patternUnits="userSpaceOnUse"
       id="EMFhbasepattern" />
  </defs>
  <path
     id="path5"
     d="  M 220.57831,386.49156   L 220.57831,386.49156   L 386.49156,220.57831   L 220.57831,54.665059   L 54.665059,220.57831   L 220.57831,386.49156   z "
     style="fill:#ff8080;fill-rule:evenodd;fill-opacity:1;stroke:none;" />
  <path
     id="path7"
     d="  M 220.57831,386.49156   L 220.57831,386.49156   L 386.49156,220.57831   L 220.57831,54.665059   L 54.665059,220.57831   L 220.57831,386.49156  "
     style="fill:none;stroke:#000000;stroke-width:9.5903616px;stroke-linecap:butt;stroke-linejoin:miter;stroke-miterlimit:10;stroke-dasharray:none;stroke-opacity:1;" />
  <path
     id="path9"
     d="  M 180.29879,160.63855   L 191.20783,160.63855   L 191.20783,237.6012   L 180.29879,237.6012   z  M 256.22249,307.6508   L 247.63112,316.00241   L 222.53634,292.26626   L 196.48253,316.00241   L 188.01104,308.56988   L 222.09678,276.48212   z  M 216.14277,205.35361   L 216.14277,193.76526   L 191.20783,193.76526   L 191.20783,205.35361   z  M 227.851,116.04337   L 227.851,282.19638   L 216.14277,282.19638   L 216.14277,116.04337   C 219.61927,115.80361 223.53534,115.80361 227.851,116.04337   z  M 250.42831,205.35361   L 250.42831,193.36566   L 227.851,193.76526   L 227.851,205.79317   z  M 250.42831,160.63855   L 262.13654,160.63855   L 262.13654,237.6012   L 250.42831,237.6012   z "
     style="fill:#000000;fill-rule:evenodd;fill-opacity:1;stroke:none;" />
</svg>
