<?xml version="1.0" encoding="UTF-8" standalone="no"?>
<svg
   xmlns:dc="http://purl.org/dc/elements/1.1/"
   xmlns:cc="http://creativecommons.org/ns#"
   xmlns:rdf="http://www.w3.org/1999/02/22-rdf-syntax-ns#"
   xmlns:svg="http://www.w3.org/2000/svg"
   xmlns="http://www.w3.org/2000/svg"
   id="svg11"
   height="95.75mm"
   width="95.75mm"
   version="1.0">
  <metadata
     id="metadata15">
    <rdf:RDF>
      <cc:Work
         rdf:about="">
        <dc:format>image/svg+xml</dc:format>
        <dc:type
           rdf:resource="http://purl.org/dc/dcmitype/StillImage" />
      </cc:Work>
    </rdf:RDF>
  </metadata>
  <defs
     id="defs3">
    <pattern
       y="0"
       x="0"
       height="6"
       width="6"
       patternUnits="userSpaceOnUse"
       id="EMFhbasepattern" />
  </defs>
  <path
     id="path5"
     d="  M 54.345381,54.345381   L 54.345381,307.53092   L 307.53092,307.53092   L 307.53092,54.345381   L 54.345381,54.345381   z "
     style="fill:#aaffaa;fill-rule:evenodd;fill-opacity:1;stroke:none;" />
  <path
     id="path7"
     d="  M 54.345381,54.345381   L 307.53092,54.345381   L 307.53092,307.53092   L 54.345381,307.53092   z "
     style="fill:none;stroke:#000000;stroke-width:9.5903616px;stroke-linecap:butt;stroke-linejoin:miter;stroke-miterlimit:10;stroke-dasharray:none;stroke-opacity:1;" />
  <path
     id="path9"
     d="  M 212.8261,219.53935   L 212.8261,123.63574   C 212.8261,113.48594 209.90903,104.69478 204.03494,97.222288   C 198.16084,89.749798 190.52851,85.993573 181.09799,85.993573   C 171.70743,85.993573 163.91526,89.749798 157.76144,97.222288   C 155.40381,100.21928 153.64558,104.25522 152.48674,109.33012   C 150.40883,118.28112 149.25,123.0763 148.93032,123.63574   L 148.93032,219.97891   L 134.90442,219.97891   L 134.90442,123.71566   C 135.22409,109.96948 139.53976,98.181324 147.89136,88.311244   C 156.20301,78.481123 167.07209,73.526103 180.49859,73.526103   C 193.04598,73.526103 203.75522,78.601003 212.70622,88.790762   C 221.61727,98.940561 226.09277,110.56887 226.09277,123.71566   L 226.09277,220.45843   L 212.54638,220.45843   z  M 215.70321,275.64297   L 206.75221,283.91465   L 186.33273,265.21345   L 174.86425,265.21345   L 155.56365,283.91465   L 145.41385,274.80381   L 180.89819,239.91887   z  M 176.22289,79.000601   L 186.33273,79.000601   L 186.33273,249.62911   L 176.22289,249.62911   z "
     style="fill:#000000;fill-rule:evenodd;fill-opacity:1;stroke:none;" />
</svg>
