<?xml version="1.0" encoding="UTF-8" standalone="no"?>
<svg
   xmlns:dc="http://purl.org/dc/elements/1.1/"
   xmlns:cc="http://creativecommons.org/ns#"
   xmlns:rdf="http://www.w3.org/1999/02/22-rdf-syntax-ns#"
   xmlns:svg="http://www.w3.org/2000/svg"
   xmlns="http://www.w3.org/2000/svg"
   id="svg13"
   height="130.27mm"
   width="130.27mm"
   version="1.0">
  <metadata
     id="metadata17">
    <rdf:RDF>
      <cc:Work
         rdf:about="">
        <dc:format>image/svg+xml</dc:format>
        <dc:type
           rdf:resource="http://purl.org/dc/dcmitype/StillImage" />
      </cc:Work>
    </rdf:RDF>
  </metadata>
  <defs
     id="defs3">
    <pattern
       y="0"
       x="0"
       height="6"
       width="6"
       patternUnits="userSpaceOnUse"
       id="EMFhbasepattern" />
  </defs>
  <path
     id="path5"
     d="  M 164.63454,327.67068   C 164.63454,437.95983 327.67068,437.95983 327.67068,327.67068   C 437.95983,327.67068 437.95983,164.63454 327.67068,164.63454   C 327.67068,54.345381 164.63454,54.345381 164.63454,164.63454   C 54.345381,164.63454 54.345381,327.67068 164.63454,327.67068   z "
     style="fill:#ffff80;fill-rule:evenodd;fill-opacity:1;stroke:none;" />
  <path
     id="path7"
     d="  M 164.63454,327.67068   C 164.63454,437.95983 327.67068,437.95983 327.67068,327.67068   C 437.95983,327.67068 437.95983,164.63454 327.67068,164.63454   C 327.67068,54.345381 164.63454,54.345381 164.63454,164.63454   C 54.345381,164.63454 54.345381,327.67068 164.63454,327.67068  "
     style="fill:none;stroke:#000000;stroke-width:9.5903616px;stroke-linecap:butt;stroke-linejoin:miter;stroke-miterlimit:10;stroke-dasharray:none;stroke-opacity:1;" />
  <path
     id="path9"
     d="  M 188.89016,252.6261   L 188.89016,156.52269   L 201.59739,156.52269   L 201.59739,241.27751   L 248.90984,241.27751   L 248.90984,252.6261   L 188.89016,252.6261  z    M 263.53514,252.6261   L 263.53514,156.52269   L 276.28233,156.52269   L 276.28233,241.27751   L 323.59477,241.27751   L 323.59477,252.6261   L 263.53514,252.6261  z   "
     style="fill:#000000;fill-rule:evenodd;fill-opacity:1;stroke:none;" />
  <path
     id="path11"
     d="  M 175.10401,314.12429   L 192.24678,269.48915   L 198.6004,269.48915   L 216.86205,314.12429   L 210.14879,314.12429   L 204.95401,300.57791   L 186.29277,300.57791   L 181.37771,314.12429   z  M 187.97108,295.78273   L 203.11586,295.78273   L 198.44056,283.43514   C 197.04197,279.67891 195.96305,276.602 195.28373,274.16445   C 194.72429,277.04156 193.9251,279.87871 192.88614,282.71586   z  M 219.57931,299.77871   L 225.13373,299.29919   C 225.41345,301.53694 226.01285,303.33514 227.01184,304.77369   C 227.97088,306.21224 229.44939,307.37108 231.48735,308.2502   C 233.5253,309.12931 235.80301,309.56887 238.32048,309.56887   C 240.59819,309.56887 242.55622,309.24919 244.31445,308.56988   C 246.03273,307.89056 247.31144,306.97148 248.1506,305.81265   C 248.98976,304.65381 249.42931,303.3751 249.42931,302.01646   C 249.42931,300.61787 248.98976,299.37911 248.19056,298.34016   C 247.39136,297.3012 246.03273,296.42208 244.19457,295.70281   C 242.99578,295.22329 240.31847,294.50401 236.24257,293.50502   C 232.1267,292.54598 229.2496,291.6269 227.61124,290.74779   C 225.49337,289.62891 223.89498,288.23032 222.85602,286.59196   C 221.81707,284.91365 221.29759,283.0755 221.29759,281.03755   C 221.29759,278.75984 221.93694,276.68192 223.21566,274.72389   C 224.49437,272.76586 226.33253,271.28735 228.81004,270.24839   C 231.24759,269.24939 234.00482,268.72992 237.0018,268.72992   C 240.31847,268.72992 243.23554,269.24939 245.75301,270.32831   C 248.27048,271.40722 250.22851,272.96566 251.58714,275.04357   C 252.94578,277.08152 253.66506,279.43915 253.74498,282.0765   L 248.11064,282.4761   C 247.79096,279.67891 246.752,277.52108 244.99377,276.08253   C 243.2755,274.64397 240.67811,273.92469 237.24156,273.92469   C 233.64518,273.92469 231.04779,274.60401 229.40943,275.88273   C 227.81104,277.2014 226.97188,278.7998 226.97188,280.63795   C 226.97188,282.23634 227.57128,283.55502 228.73012,284.59397   C 229.84899,285.63293 232.80602,286.67188 237.6012,287.7508   C 242.39638,288.86967 245.71305,289.78875 247.51124,290.62791   C 250.10863,291.8267 252.0267,293.34518 253.26546,295.18333   C 254.50421,297.02148 255.10361,299.09939 255.10361,301.49698   C 255.10361,303.89457 254.42429,306.13232 253.06566,308.21024   C 251.70702,310.32811 249.74899,311.96646 247.19156,313.1253   C 244.67409,314.28413 241.79698,314.88353 238.6002,314.88353   C 234.56425,314.88353 231.16767,314.28413 228.4504,313.1253   C 225.73313,311.9265 223.5753,310.16827 222.01686,307.81064   C 220.49839,305.45301 219.65923,302.7757 219.57931,299.77871   z  M 270.96767,314.12429   L 259.13955,269.48915   L 265.17349,269.48915   L 271.96666,298.73975   C 272.68594,301.81666 273.3253,304.85361 273.84478,307.89056   C 275.00361,303.09538 275.64297,300.33815 275.84277,299.61887   L 284.35421,269.48915   L 291.46706,269.48915   L 297.86064,292.06646   C 299.45903,297.66084 300.61787,302.93554 301.33714,307.89056   C 301.89658,305.05341 302.65582,301.81666 303.5749,298.18032   L 310.56787,269.48915   L 316.48192,269.48915   L 304.25421,314.12429   L 298.57992,314.12429   L 289.14939,280.11847   C 288.39016,277.28132 287.91064,275.52309 287.7508,274.88373   C 287.31124,276.92168 286.87168,278.67992 286.47208,280.11847   L 277.0016,314.12429   z "
     style="fill:#000000;fill-rule:evenodd;fill-opacity:1;stroke:none;" />
</svg>
