<?xml version="1.0" encoding="UTF-8" standalone="no"?>
<svg
   xmlns:dc="http://purl.org/dc/elements/1.1/"
   xmlns:cc="http://creativecommons.org/ns#"
   xmlns:rdf="http://www.w3.org/1999/02/22-rdf-syntax-ns#"
   xmlns:svg="http://www.w3.org/2000/svg"
   xmlns="http://www.w3.org/2000/svg"
   id="svg13"
   height="116.73mm"
   width="116.73mm"
   version="1.0">
  <metadata
     id="metadata17">
    <rdf:RDF>
      <cc:Work
         rdf:about="">
        <dc:format>image/svg+xml</dc:format>
        <dc:type
           rdf:resource="http://purl.org/dc/dcmitype/StillImage" />
      </cc:Work>
    </rdf:RDF>
  </metadata>
  <defs
     id="defs3">
    <pattern
       y="0"
       x="0"
       height="6"
       width="6"
       patternUnits="userSpaceOnUse"
       id="EMFhbasepattern" />
  </defs>
  <path
     id="path5"
     d="  M 220.57831,386.49156   L 220.57831,386.49156   L 386.49156,220.57831   L 220.57831,54.665059   L 54.665059,220.57831   L 220.57831,386.49156   z "
     style="fill:#ff8080;fill-rule:evenodd;fill-opacity:1;stroke:none;" />
  <path
     id="path7"
     d="  M 220.57831,386.49156   L 220.57831,386.49156   L 386.49156,220.57831   L 220.57831,54.665059   L 54.665059,220.57831   L 220.57831,386.49156  "
     style="fill:none;stroke:#000000;stroke-width:9.5903616px;stroke-linecap:butt;stroke-linejoin:miter;stroke-miterlimit:10;stroke-dasharray:none;stroke-opacity:1;" />
  <path
     id="path9"
     d="  M 120.83855,153.44578   L 120.83855,153.44578   L 220.57831,239.75903   L 220.57831,201.39759   L 320.31807,287.71084  "
     style="fill:none;stroke:#000000;stroke-width:9.5903616px;stroke-linecap:butt;stroke-linejoin:miter;stroke-miterlimit:10;stroke-dasharray:none;stroke-opacity:1;" />
  <path
     id="path11"
     d="  M 184.77429,177.22188   L 196.76225,146.01325   L 201.19779,146.01325   L 213.98494,177.22188   L 209.26968,177.22188   L 205.63333,167.79136   L 192.56646,167.79136   L 189.16988,177.22188   z  M 193.76526,164.39478   L 204.35462,164.39478   L 201.11787,155.76345   C 200.11887,153.1261 199.35964,150.96827 198.88012,149.28996   C 198.48052,151.28795 197.92108,153.28594 197.2018,155.24397   z  M 217.34156,177.22188   L 217.34156,146.01325   L 231.20763,146.01325   C 234.00482,146.01325 236.12269,146.29297 237.56124,146.85241   C 238.9998,147.41185 240.15863,148.41084 241.03775,149.80944   C 241.91686,151.24799 242.31646,152.80642 242.31646,154.5247   C 242.31646,156.76245 241.59719,158.6006 240.19859,160.11907   C 238.76004,161.63755 236.52229,162.63654 233.5253,163.03614   C 234.64417,163.55562 235.44337,164.0751 236.04277,164.59458   C 237.24156,165.67349 238.36044,167.07209 239.43935,168.7504   L 244.87389,177.22188   L 239.67911,177.22188   L 235.56325,170.74839   C 234.36445,168.87028 233.36546,167.43172 232.56626,166.43273   C 231.80702,165.43373 231.08775,164.75442 230.48835,164.35482   C 229.84899,163.95522 229.20964,163.6755 228.57028,163.51566   C 228.13072,163.43574 227.37148,163.35582 226.29257,163.35582   L 221.49739,163.35582   L 221.49739,177.22188   z  M 221.49739,159.7994   L 230.36847,159.7994   C 232.28654,159.7994 233.76506,159.5996 234.80401,159.2   C 235.88293,158.8004 236.68213,158.201 237.24156,157.32189   C 237.801,156.48273 238.08072,155.52369 238.08072,154.5247   C 238.08072,153.04618 237.52128,151.84739 236.44237,150.88835   C 235.40341,149.92932 233.68514,149.4498 231.36747,149.4498   L 221.49739,149.4498   z  M 248.90984,177.22188   L 248.90984,146.01325   L 271.48714,146.01325   L 271.48714,149.68956   L 253.0257,149.68956   L 253.0257,159.23996   L 270.28835,159.23996   L 270.28835,162.91626   L 253.0257,162.91626   L 253.0257,173.54558   L 272.20642,173.54558   L 272.20642,177.22188   z  M 274.48413,177.22188   L 286.47208,146.01325   L 290.94759,146.01325   L 303.73473,177.22188   L 299.01947,177.22188   L 295.38313,167.79136   L 282.31626,167.79136   L 278.87971,177.22188   z  M 283.51506,164.39478   L 294.10441,164.39478   L 290.82771,155.76345   C 289.82871,153.1261 289.10943,150.96827 288.62992,149.28996   C 288.23032,151.28795 287.67088,153.28594 286.91164,155.24397   z "
     style="fill:#000000;fill-rule:evenodd;fill-opacity:1;stroke:none;" />
</svg>
