<?xml version="1.0" encoding="UTF-8" standalone="no"?>
<svg
   xmlns:dc="http://purl.org/dc/elements/1.1/"
   xmlns:cc="http://creativecommons.org/ns#"
   xmlns:rdf="http://www.w3.org/1999/02/22-rdf-syntax-ns#"
   xmlns:svg="http://www.w3.org/2000/svg"
   xmlns="http://www.w3.org/2000/svg"
   id="svg13"
   height="95.75mm"
   width="95.75mm"
   version="1.0">
  <metadata
     id="metadata17">
    <rdf:RDF>
      <cc:Work
         rdf:about="">
        <dc:format>image/svg+xml</dc:format>
        <dc:type
           rdf:resource="http://purl.org/dc/dcmitype/StillImage" />
      </cc:Work>
    </rdf:RDF>
  </metadata>
  <defs
     id="defs3">
    <pattern
       y="0"
       x="0"
       height="6"
       width="6"
       patternUnits="userSpaceOnUse"
       id="EMFhbasepattern" />
  </defs>
  <path
     id="path5"
     d="  M 54.345381,54.345381   L 54.345381,307.53092   L 307.53092,307.53092   L 307.53092,54.345381   L 54.345381,54.345381   z "
     style="fill:#aaffaa;fill-rule:evenodd;fill-opacity:1;stroke:none;" />
  <path
     id="path7"
     d="  M 54.345381,54.345381   L 307.53092,54.345381   L 307.53092,307.53092   L 54.345381,307.53092   z "
     style="fill:none;stroke:#000000;stroke-width:9.5903616px;stroke-linecap:butt;stroke-linejoin:miter;stroke-miterlimit:10;stroke-dasharray:none;stroke-opacity:1;" />
  <path
     id="path9"
     d="  M 54.345381,54.345381   L 54.345381,54.345381   L 180.93815,200.11887   L 180.93815,161.75743   L 307.53092,307.53092  "
     style="fill:none;stroke:#000000;stroke-width:9.5903616px;stroke-linecap:butt;stroke-linejoin:miter;stroke-miterlimit:10;stroke-dasharray:none;stroke-opacity:1;" />
  <path
     id="path11"
     d="  M 145.13413,137.58172   L 157.12209,106.37309   L 161.55763,106.37309   L 174.34478,137.58172   L 169.62952,137.58172   L 165.99317,128.1512   L 152.9263,128.1512   L 149.52972,137.58172   z  M 154.1251,124.75462   L 164.71446,124.75462   L 161.47771,116.12329   C 160.47871,113.48594 159.71948,111.32811 159.23996,109.6498   C 158.84036,111.64779 158.28092,113.64578 157.56164,115.60381   z  M 177.7014,137.58172   L 177.7014,106.37309   L 191.56747,106.37309   C 194.36466,106.37309 196.48253,106.65281 197.92108,107.21225   C 199.35964,107.77169 200.51847,108.77068 201.39759,110.16928   C 202.2767,111.60783 202.6763,113.16626 202.6763,114.88454   C 202.6763,117.12229 201.95703,118.96044 200.55843,120.47891   C 199.11988,121.99739 196.88213,122.99638 193.88514,123.39598   C 195.00401,123.91546 195.80321,124.43494 196.40261,124.95442   C 197.6014,126.03333 198.72028,127.43193 199.79919,129.11024   L 205.23373,137.58172   L 200.03895,137.58172   L 195.92309,131.10823   C 194.72429,129.23012 193.7253,127.79156 192.9261,126.79257   C 192.16686,125.79357 191.44759,125.11426 190.84819,124.71466   C 190.20883,124.31506 189.56948,124.03534 188.93012,123.8755   C 188.49056,123.79558 187.73132,123.71566 186.65241,123.71566   L 181.85723,123.71566   L 181.85723,137.58172   z  M 181.85723,120.15924   L 190.72831,120.15924   C 192.64638,120.15924 194.1249,119.95944 195.16385,119.55984   C 196.24277,119.16024 197.04197,118.56084 197.6014,117.68173   C 198.16084,116.84257 198.44056,115.88353 198.44056,114.88454   C 198.44056,113.40602 197.88112,112.20723 196.80221,111.24819   C 195.76325,110.28916 194.04498,109.80964 191.72731,109.80964   L 181.85723,109.80964   z  M 209.26968,137.58172   L 209.26968,106.37309   L 231.84698,106.37309   L 231.84698,110.0494   L 213.38554,110.0494   L 213.38554,119.5998   L 230.64819,119.5998   L 230.64819,123.2761   L 213.38554,123.2761   L 213.38554,133.90542   L 232.56626,133.90542   L 232.56626,137.58172   z  M 234.84397,137.58172   L 246.83192,106.37309   L 251.30743,106.37309   L 264.09457,137.58172   L 259.37931,137.58172   L 255.74297,128.1512   L 242.6761,128.1512   L 239.23955,137.58172   z  M 243.8749,124.75462   L 254.46425,124.75462   L 251.18755,116.12329   C 250.18855,113.48594 249.46927,111.32811 248.98976,109.6498   C 248.59016,111.64779 248.03072,113.64578 247.27148,115.60381   z "
     style="fill:#000000;fill-rule:evenodd;fill-opacity:1;stroke:none;" />
</svg>
