<?xml version="1.0" encoding="UTF-8" standalone="no"?>
<svg
   xmlns:dc="http://purl.org/dc/elements/1.1/"
   xmlns:cc="http://creativecommons.org/ns#"
   xmlns:rdf="http://www.w3.org/1999/02/22-rdf-syntax-ns#"
   xmlns:svg="http://www.w3.org/2000/svg"
   xmlns="http://www.w3.org/2000/svg"
   id="svg13"
   height="89.669998mm"
   width="120.11mm"
   version="1.0">
  <metadata
     id="metadata17">
    <rdf:RDF>
      <cc:Work
         rdf:about="">
        <dc:format>image/svg+xml</dc:format>
        <dc:type
           rdf:resource="http://purl.org/dc/dcmitype/StillImage" />
      </cc:Work>
    </rdf:RDF>
  </metadata>
  <defs
     id="defs3">
    <pattern
       y="0"
       x="0"
       height="6"
       width="6"
       patternUnits="userSpaceOnUse"
       id="EMFhbasepattern" />
  </defs>
  <path
     id="path5"
     d="  M 54.345381,54.345381   L 54.345381,284.51405   L 399.59839,284.51405   L 399.59839,54.345381   L 54.345381,54.345381   z "
     style="fill:#80e0ff;fill-rule:evenodd;fill-opacity:1;stroke:none;" />
  <path
     id="path7"
     d="  M 54.345381,54.345381   L 399.59839,54.345381   L 399.59839,284.51405   L 54.345381,284.51405   z "
     style="fill:none;stroke:#000000;stroke-width:9.5903616px;stroke-linecap:butt;stroke-linejoin:miter;stroke-miterlimit:10;stroke-dasharray:none;stroke-opacity:1;" />
  <path
     id="path9"
     d="  M 54.345381,54.345381   L 54.345381,54.345381   L 226.97188,188.61044   L 226.97188,150.24899   L 399.59839,284.51405  "
     style="fill:none;stroke:#000000;stroke-width:9.5903616px;stroke-linecap:butt;stroke-linejoin:miter;stroke-miterlimit:10;stroke-dasharray:none;stroke-opacity:1;" />
  <path
     id="path11"
     d="  M 191.16787,126.07329   L 203.15582,94.864657   L 207.59136,94.864657   L 220.37851,126.07329   L 215.66325,126.07329   L 212.0269,116.64277   L 198.96004,116.64277   L 195.56345,126.07329   z  M 200.15883,113.24618   L 210.74819,113.24618   L 207.51144,104.61486   C 206.51245,101.97751 205.75321,99.819677 205.27369,98.141364   C 204.87409,100.13936 204.31466,102.13735 203.59538,104.09538   z  M 223.73514,126.07329   L 223.73514,94.864657   L 237.6012,94.864657   C 240.39839,94.864657 242.51626,95.144376 243.95482,95.703814   C 245.39337,96.263252 246.55221,97.262248 247.43132,98.660842   C 248.31044,100.0994 248.71004,101.65783 248.71004,103.3761   C 248.71004,105.61385 247.99076,107.45201 246.59217,108.97048   C 245.15361,110.48895 242.91586,111.48795 239.91887,111.88755   C 241.03775,112.40703 241.83694,112.9265 242.43634,113.44598   C 243.63514,114.5249 244.75401,115.92349 245.83293,117.60181   L 251.26747,126.07329   L 246.07269,126.07329   L 241.95682,119.5998   C 240.75803,117.72169 239.75903,116.28313 238.95984,115.28413   C 238.2006,114.28514 237.48132,113.60582 236.88192,113.20622   C 236.24257,112.80662 235.60321,112.52691 234.96385,112.36707   C 234.52429,112.28715 233.76506,112.20723 232.68614,112.20723   L 227.89096,112.20723   L 227.89096,126.07329   z  M 227.89096,108.6508   L 236.76204,108.6508   C 238.68012,108.6508 240.15863,108.451 241.19759,108.0514   C 242.2765,107.65181 243.0757,107.05241 243.63514,106.17329   C 244.19457,105.33414 244.47429,104.3751 244.47429,103.3761   C 244.47429,101.89759 243.91486,100.69879 242.83594,99.739758   C 241.79698,98.780721 240.07871,98.301203 237.76104,98.301203   L 227.89096,98.301203   z  M 255.30341,126.07329   L 255.30341,94.864657   L 277.88072,94.864657   L 277.88072,98.540962   L 259.41927,98.540962   L 259.41927,108.09136   L 276.68192,108.09136   L 276.68192,111.76767   L 259.41927,111.76767   L 259.41927,122.39699   L 278.6,122.39699   L 278.6,126.07329   z  M 280.87771,126.07329   L 292.86566,94.864657   L 297.34116,94.864657   L 310.12831,126.07329   L 305.41305,126.07329   L 301.7767,116.64277   L 288.70984,116.64277   L 285.27329,126.07329   z  M 289.90863,113.24618   L 300.49799,113.24618   L 297.22128,104.61486   C 296.22228,101.97751 295.50301,99.819677 295.02349,98.141364   C 294.62389,100.13936 294.06445,102.13735 293.30522,104.09538   z "
     style="fill:#000000;fill-rule:evenodd;fill-opacity:1;stroke:none;" />
</svg>
