<?xml version="1.0" encoding="UTF-8" standalone="no"?>
<svg
   xmlns:dc="http://purl.org/dc/elements/1.1/"
   xmlns:cc="http://creativecommons.org/ns#"
   xmlns:rdf="http://www.w3.org/1999/02/22-rdf-syntax-ns#"
   xmlns:svg="http://www.w3.org/2000/svg"
   xmlns="http://www.w3.org/2000/svg"
   id="svg13"
   height="89.669998mm"
   width="120.11mm"
   version="1.0">
  <metadata
     id="metadata17">
    <rdf:RDF>
      <cc:Work
         rdf:about="">
        <dc:format>image/svg+xml</dc:format>
        <dc:type
           rdf:resource="http://purl.org/dc/dcmitype/StillImage" />
      </cc:Work>
    </rdf:RDF>
  </metadata>
  <defs
     id="defs3">
    <pattern
       y="0"
       x="0"
       height="6"
       width="6"
       patternUnits="userSpaceOnUse"
       id="EMFhbasepattern" />
  </defs>
  <path
     id="path5"
     d="  M 54.345381,54.345381   L 54.345381,284.51405   L 399.59839,284.51405   L 399.59839,54.345381   L 54.345381,54.345381   z "
     style="fill:#80e0ff;fill-rule:evenodd;fill-opacity:1;stroke:none;" />
  <path
     id="path7"
     d="  M 54.345381,54.345381   L 399.59839,54.345381   L 399.59839,284.51405   L 54.345381,284.51405   z "
     style="fill:none;stroke:#000000;stroke-width:9.5903616px;stroke-linecap:butt;stroke-linejoin:miter;stroke-miterlimit:10;stroke-dasharray:none;stroke-opacity:1;" />
  <path
     id="path9"
     d="  M 178.02108,114.84458   L 191.72731,79.160441   L 196.80221,79.160441   L 211.42751,114.84458   L 206.03293,114.84458   L 201.87711,104.05542   L 186.93213,104.05542   L 183.01606,114.84458   z  M 188.29076,100.17932   L 200.39859,100.17932   L 196.68233,90.309236   C 195.56345,87.312248 194.68433,84.834738 194.16486,82.916665   C 193.68534,85.194376 193.04598,87.472087 192.24678,89.709838   z  M 213.58534,103.3761   L 218.02088,102.9765   C 218.26064,104.7747 218.74016,106.25321 219.49939,107.41205   C 220.29859,108.53092 221.49739,109.45 223.09578,110.16928   C 224.73413,110.88855 226.57229,111.20823 228.57028,111.20823   C 230.36847,111.20823 231.96686,110.96847 233.36546,110.40903   C 234.72409,109.88956 235.76305,109.17028 236.44237,108.21124   C 237.12168,107.29217 237.44136,106.25321 237.44136,105.1743   C 237.44136,104.05542 237.12168,103.05642 236.48233,102.21727   C 235.84297,101.37811 234.76405,100.69879 233.24558,100.13936   C 232.28654,99.739758 230.16867,99.18032 226.89196,98.381123   C 223.61526,97.581926 221.33755,96.862649 220.01887,96.143372   C 218.3006,95.264256 217.02188,94.14538 216.18273,92.826705   C 215.38353,91.508031 214.94397,90.029517 214.94397,88.391163   C 214.94397,86.592971 215.46345,84.914657 216.46245,83.316264   C 217.5014,81.75783 218.97992,80.598995 220.97791,79.759838   C 222.93594,78.960641 225.09377,78.561043 227.49136,78.561043   C 230.16867,78.561043 232.48634,78.960641 234.52429,79.839758   C 236.52229,80.678914 238.08072,81.917669 239.15964,83.595983   C 240.27851,85.234336 240.83795,87.112449 240.91787,89.23032   L 236.40241,89.549999   C 236.16265,87.312248 235.32349,85.593975 233.9249,84.435139   C 232.5263,83.276304 230.44839,82.716866 227.69116,82.716866   C 224.85401,82.716866 222.7761,83.236344 221.45743,84.2753   C 220.13875,85.314256 219.49939,86.592971 219.49939,88.071485   C 219.49939,89.3502 219.97891,90.389155 220.89799,91.228312   C 221.81707,92.067469 224.1747,92.906625 228.01084,93.785742   C 231.84698,94.664858 234.48433,95.424095 235.92289,96.063452   C 238.0008,97.022489 239.51927,98.221284 240.51827,99.699798   C 241.51727,101.17831 241.99678,102.85663 241.99678,104.7747   C 241.99678,106.69277 241.43735,108.451 240.35843,110.12932   C 239.27951,111.80763 237.72108,113.1263 235.68313,114.04538   C 233.64518,115.00442 231.36747,115.44397 228.81004,115.44397   C 225.57329,115.44397 222.85602,115.00442 220.69819,114.04538   C 218.5004,113.1263 216.78213,111.68775 215.54337,109.80964   C 214.30462,107.93152 213.66526,105.77369 213.58534,103.3761   z  M 248.39036,114.84458   L 248.39036,79.160441   L 253.26546,79.160441   L 272.00662,107.17229   L 272.00662,79.160441   L 276.52208,79.160441   L 276.52208,114.84458   L 271.68694,114.84458   L 252.94578,86.79277   L 252.94578,114.84458   z "
     style="fill:#000000;fill-rule:evenodd;fill-opacity:1;stroke:none;" />
  <path
     id="path11"
     d="  M 216.70221,163.43574   C 216.70221,154.48474 223.89498,146.29297 223.89498,140.33895   L 223.89498,139.57972   C 223.89498,137.34197 223.81506,132.90642 221.9769,132.38695   C 220.13875,140.33895 215.82309,146.53273 211.50743,152.20703   C 209.26968,155.08413 207.31164,158.0012 205.11385,160.95823   C 203.31566,163.31586 199.63935,167.07209 199.63935,170.66847   C 199.63935,173.18594 210.46847,202.0769 204.95401,202.0769   C 204.75421,202.0769 198.32068,197.6014 197.52148,197.00201   C 195.08393,195.16385 193.3257,192.96606 191.60743,190.40863   C 186.21285,182.29678 187.29176,182.5765 184.89417,172.14699   C 182.21686,172.86626 180.33875,180.97811 179.73935,184.41466   C 178.94016,188.6504 179.25984,196.24277 180.17891,200.35863   C 181.29779,205.39357 182.5765,209.22972 184.61446,213.30562   C 185.69337,215.46345 190.04899,223.05582 190.16887,224.81405   C 186.33273,223.89498 177.66144,216.70221 174.94417,213.90502   C 172.26686,211.22771 165.19397,199.23976 164.43474,198.68032   C 164.43474,216.18273 173.26586,239.03976 181.73735,247.63112   C 187.17188,253.10562 192.9261,258.93976 199.71927,262.9757   C 204.0749,265.57309 218.3006,270.60803 225.01385,270.60803   L 229.16968,270.60803   C 234.24457,270.60803 248.31044,265.21345 252.0267,263.1755   C 258.06064,259.85883 264.17449,254.78393 267.97068,249.18955   C 275.72289,237.68112 282.19638,222.65622 282.19638,203.59538   L 282.19638,201.31767   L 281.39718,191.04799   C 280.19839,191.72731 277.48112,198.8002 276.96164,200.23875   C 276.04257,202.59638 273.3253,206.27269 271.88674,208.43052   C 269.40923,212.2267 262.61606,219.53935 257.98072,220.61827   L 257.98072,218.74016   C 257.98072,210.94799 262.89578,203.15582 262.89578,196.76225   L 262.89578,193.36566   L 260.61807,171.78735   L 259.45923,171.78735   C 258.8998,178.66044 256.54216,185.81325 253.50522,190.40863   C 251.14759,193.96506 244.15461,200.31867 239.79899,201.31767   C 239.39939,200.59839 239.03976,200.19879 239.03976,199.03996   L 239.03976,194.88413   C 239.03976,185.89317 244.31445,179.13996 244.31445,172.14699   L 244.31445,170.66847   C 244.31445,167.9512 240.63815,163.79538 239.19959,161.39779   C 237.96084,159.3998 234.92389,153.76546 232.96586,153.24598   L 232.96586,155.48373   C 232.96586,166.39277 230.56827,174.26486 223.13574,177.86124   C 221.17771,174.90421 216.70221,172.34678 216.70221,166.87229   L 216.70221,163.43574   z "
     style="fill:#000000;fill-rule:evenodd;fill-opacity:1;stroke:none;" />
</svg>
