<?xml version="1.0" encoding="UTF-8" standalone="no"?>
<svg
   xmlns:dc="http://purl.org/dc/elements/1.1/"
   xmlns:cc="http://creativecommons.org/ns#"
   xmlns:rdf="http://www.w3.org/1999/02/22-rdf-syntax-ns#"
   xmlns:svg="http://www.w3.org/2000/svg"
   xmlns="http://www.w3.org/2000/svg"
   id="svg13"
   height="130.27mm"
   width="130.27mm"
   version="1.0">
  <metadata
     id="metadata17">
    <rdf:RDF>
      <cc:Work
         rdf:about="">
        <dc:format>image/svg+xml</dc:format>
        <dc:type
           rdf:resource="http://purl.org/dc/dcmitype/StillImage" />
      </cc:Work>
    </rdf:RDF>
  </metadata>
  <defs
     id="defs3">
    <pattern
       y="0"
       x="0"
       height="6"
       width="6"
       patternUnits="userSpaceOnUse"
       id="EMFhbasepattern" />
  </defs>
  <path
     id="path5"
     d="  M 164.63454,327.67068   C 164.63454,437.95983 327.67068,437.95983 327.67068,327.67068   C 437.95983,327.67068 437.95983,164.63454 327.67068,164.63454   C 327.67068,54.345381 164.63454,54.345381 164.63454,164.63454   C 54.345381,164.63454 54.345381,327.67068 164.63454,327.67068   z "
     style="fill:#ffff80;fill-rule:evenodd;fill-opacity:1;stroke:none;" />
  <path
     id="path7"
     d="  M 164.63454,327.67068   C 164.63454,437.95983 327.67068,437.95983 327.67068,327.67068   C 437.95983,327.67068 437.95983,164.63454 327.67068,164.63454   C 327.67068,54.345381 164.63454,54.345381 164.63454,164.63454   C 54.345381,164.63454 54.345381,327.67068 164.63454,327.67068  "
     style="fill:none;stroke:#000000;stroke-width:9.5903616px;stroke-linecap:butt;stroke-linejoin:miter;stroke-miterlimit:10;stroke-dasharray:none;stroke-opacity:1;" />
  <path
     id="path9"
     d="  M 197.2018,191.56747   L 210.90803,155.88333   L 215.98293,155.88333   L 230.60823,191.56747   L 225.21365,191.56747   L 221.05783,180.77831   L 206.11285,180.77831   L 202.19678,191.56747   z  M 207.47148,176.90221   L 219.57931,176.90221   L 215.86305,167.03213   C 214.74417,164.03514 213.86506,161.55763 213.34558,159.63956   C 212.86606,161.91727 212.2267,164.19498 211.42751,166.43273   z  M 232.76606,180.09899   L 237.2016,179.69939   C 237.44136,181.49759 237.92088,182.9761 238.68012,184.13494   C 239.47931,185.25381 240.67811,186.17289 242.2765,186.89217   C 243.91486,187.61144 245.75301,187.93112 247.751,187.93112   C 249.54919,187.93112 251.14759,187.69136 252.54618,187.13193   C 253.90482,186.61245 254.94377,185.89317 255.62309,184.93413   C 256.30241,184.01506 256.62208,182.9761 256.62208,181.89719   C 256.62208,180.77831 256.30241,179.77931 255.66305,178.94016   C 255.02369,178.101 253.94478,177.42168 252.4263,176.86225   C 251.46727,176.46265 249.34939,175.90321 246.07269,175.10401   C 242.79598,174.30482 240.51827,173.58554 239.19959,172.86626   C 237.48132,171.98715 236.20261,170.86827 235.36345,169.5496   C 234.56425,168.23092 234.1247,166.75241 234.1247,165.11405   C 234.1247,163.31586 234.64417,161.63755 235.64317,160.03915   C 236.68213,158.48072 238.16064,157.32189 240.15863,156.48273   C 242.11666,155.68353 244.27449,155.28393 246.67208,155.28393   C 249.34939,155.28393 251.66706,155.68353 253.70502,156.56265   C 255.70301,157.4018 257.26144,158.64056 258.34036,160.31887   C 259.45923,161.95723 260.01867,163.83534 260.09859,165.95321   L 255.58313,166.27289   C 255.34337,164.03514 254.50421,162.31687 253.10562,161.15803   C 251.70702,159.99919 249.62911,159.43976 246.87188,159.43976   C 244.03474,159.43976 241.95682,159.95923 240.63815,160.99819   C 239.31947,162.03715 238.68012,163.31586 238.68012,164.79438   C 238.68012,166.07309 239.15964,167.11205 240.07871,167.9512   C 240.99779,168.79036 243.35542,169.62952 247.19156,170.50863   C 251.02771,171.38775 253.66506,172.14699 255.10361,172.78634   C 257.18152,173.74538 258.7,174.94417 259.69899,176.42269   C 260.69799,177.9012 261.17751,179.57952 261.17751,181.49759   C 261.17751,183.41566 260.61807,185.17389 259.53915,186.85221   C 258.46024,188.53052 256.9018,189.84919 254.86385,190.76827   C 252.8259,191.72731 250.54819,192.16686 247.99076,192.16686   C 244.75401,192.16686 242.03674,191.72731 239.87891,190.76827   C 237.68112,189.84919 235.96285,188.41064 234.72409,186.53253   C 233.48534,184.65442 232.84598,182.49658 232.76606,180.09899   z  M 267.57108,191.56747   L 267.57108,155.88333   L 272.44618,155.88333   L 291.18735,183.89518   L 291.18735,155.88333   L 295.70281,155.88333   L 295.70281,191.56747   L 290.86767,191.56747   L 272.1265,163.51566   L 272.1265,191.56747   z "
     style="fill:#000000;fill-rule:evenodd;fill-opacity:1;stroke:none;" />
  <path
     id="path11"
     d="  M 235.88293,240.15863   C 235.88293,231.20763 243.0757,223.01586 243.0757,217.06184   L 243.0757,216.30261   C 243.0757,214.06486 242.99578,209.62931 241.15763,209.10984   C 239.31947,217.06184 235.00381,223.25562 230.68815,228.92992   C 228.4504,231.80702 226.49237,234.72409 224.29458,237.68112   C 222.49638,240.03875 218.82008,243.79498 218.82008,247.39136   C 218.82008,249.90883 229.64919,278.7998 224.13474,278.7998   C 223.93494,278.7998 217.5014,274.32429 216.70221,273.7249   C 214.26466,271.88674 212.50642,269.68895 210.78815,267.13152   C 205.39357,259.01967 206.47249,259.29939 204.0749,248.86988   C 201.39759,249.58915 199.51948,257.701 198.92008,261.13755   C 198.12088,265.37329 198.44056,272.96566 199.35964,277.08152   C 200.47851,282.11646 201.75723,285.95261 203.79518,290.02851   C 204.87409,292.18634 209.22972,299.77871 209.3496,301.53694   C 205.51345,300.61787 196.84217,293.4251 194.1249,290.62791   C 191.44759,287.9506 184.3747,275.96265 183.61546,275.40321   C 183.61546,292.90562 192.44658,315.76265 200.91807,324.35401   C 206.35261,329.82851 212.10682,335.66265 218.9,339.69859   C 223.25562,342.29598 237.48132,347.33092 244.19457,347.33092   L 248.3504,347.33092   C 253.4253,347.33092 267.49116,341.93634 271.20743,339.89839   C 277.24136,336.58172 283.35522,331.50682 287.1514,325.91245   C 294.90361,314.40401 301.3771,299.37911 301.3771,280.31827   L 301.3771,278.04056   L 300.57791,267.77088   C 299.37911,268.4502 296.66184,275.52309 296.14237,276.96164   C 295.22329,279.31927 292.50602,282.99558 291.06747,285.15341   C 288.58996,288.94959 281.79678,296.26224 277.16144,297.34116   L 277.16144,295.46305   C 277.16144,287.67088 282.0765,279.87871 282.0765,273.48514   L 282.0765,270.08855   L 279.79879,248.51024   L 278.63996,248.51024   C 278.08052,255.38333 275.72289,262.53614 272.68594,267.13152   C 270.32831,270.68795 263.33534,277.04156 258.97972,278.04056   C 258.58012,277.32128 258.22048,276.92168 258.22048,275.76285   L 258.22048,271.60702   C 258.22048,262.61606 263.49518,255.86285 263.49518,248.86988   L 263.49518,247.39136   C 263.49518,244.67409 259.81887,240.51827 258.38032,238.12068   C 257.14156,236.12269 254.10461,230.48835 252.14658,229.96887   L 252.14658,232.20662   C 252.14658,243.11566 249.74899,250.98775 242.31646,254.58413   C 240.35843,251.6271 235.88293,249.06968 235.88293,243.59518   L 235.88293,240.15863   z "
     style="fill:#000000;fill-rule:evenodd;fill-opacity:1;stroke:none;" />
</svg>
