<?xml version="1.0" encoding="UTF-8" standalone="no"?>
<svg
   xmlns:dc="http://purl.org/dc/elements/1.1/"
   xmlns:cc="http://creativecommons.org/ns#"
   xmlns:rdf="http://www.w3.org/1999/02/22-rdf-syntax-ns#"
   xmlns:svg="http://www.w3.org/2000/svg"
   xmlns="http://www.w3.org/2000/svg"
   id="svg19"
   height="116.73mm"
   width="116.73mm"
   version="1.0">
  <metadata
     id="metadata23">
    <rdf:RDF>
      <cc:Work
         rdf:about="">
        <dc:format>image/svg+xml</dc:format>
        <dc:type
           rdf:resource="http://purl.org/dc/dcmitype/StillImage" />
      </cc:Work>
    </rdf:RDF>
  </metadata>
  <defs
     id="defs3">
    <pattern
       y="0"
       x="0"
       height="6"
       width="6"
       patternUnits="userSpaceOnUse"
       id="EMFhbasepattern" />
  </defs>
  <path
     id="path5"
     d="  M 220.57831,386.49156   L 220.57831,386.49156   L 386.49156,220.57831   L 220.57831,54.665059   L 54.665059,220.57831   L 220.57831,386.49156   z "
     style="fill:#ff8080;fill-rule:evenodd;fill-opacity:1;stroke:none;" />
  <path
     id="path7"
     d="  M 220.57831,386.49156   L 220.57831,386.49156   L 386.49156,220.57831   L 220.57831,54.665059   L 54.665059,220.57831   L 220.57831,386.49156  "
     style="fill:none;stroke:#000000;stroke-width:9.5903616px;stroke-linecap:butt;stroke-linejoin:miter;stroke-miterlimit:10;stroke-dasharray:none;stroke-opacity:1;" />
  <path
     id="path9"
     d="  M 120.83855,153.44578   L 320.31807,287.71084  "
     style="fill:none;stroke:#000000;stroke-width:9.5903616px;stroke-linecap:butt;stroke-linejoin:miter;stroke-miterlimit:10;stroke-dasharray:none;stroke-opacity:1;" />
  <path
     id="path11"
     d="  M 239.75903,201.39759   C 239.75903,212.0269 231.20763,220.57831 220.57831,220.57831   C 209.98895,220.57831 201.39759,212.0269 201.39759,201.39759   C 201.39759,190.80823 209.98895,182.21686 220.57831,182.21686   C 231.20763,182.21686 239.75903,190.80823 239.75903,201.39759  "
     style="fill:none;stroke:#000000;stroke-width:9.5903616px;stroke-linecap:butt;stroke-linejoin:miter;stroke-miterlimit:10;stroke-dasharray:none;stroke-opacity:1;" />
  <path
     id="path13"
     d="  M 220.57831,220.57831   L 220.57831,326.07228  "
     style="fill:none;stroke:#000000;stroke-width:9.5903616px;stroke-linecap:butt;stroke-linejoin:miter;stroke-miterlimit:10;stroke-dasharray:none;stroke-opacity:1;" />
  <path
     id="path15"
     d="  M 191.80723,249.34939   L 249.34939,249.34939  "
     style="fill:none;stroke:#000000;stroke-width:9.5903616px;stroke-linecap:butt;stroke-linejoin:miter;stroke-miterlimit:10;stroke-dasharray:none;stroke-opacity:1;" />
  <path
     id="path17"
     d="  M 180.21887,166.75241   L 197.36164,122.11727   L 203.71526,122.11727   L 221.9769,166.75241   L 215.26365,166.75241   L 210.06887,153.20602   L 191.40763,153.20602   L 186.49257,166.75241   z  M 193.08594,148.41084   L 208.23072,148.41084   L 203.55542,136.06325   C 202.15682,132.30703 201.07791,129.23012 200.39859,126.79257   C 199.83915,129.66968 199.03996,132.50683 198.001,135.34397   z  M 224.69417,152.40683   L 230.24859,151.92731   C 230.52831,154.16506 231.12771,155.96325 232.1267,157.4018   C 233.08574,158.84036 234.56425,159.99919 236.60221,160.87831   C 238.64016,161.75743 240.91787,162.19699 243.43534,162.19699   C 245.71305,162.19699 247.67108,161.87731 249.42931,161.19799   C 251.14759,160.51867 252.4263,159.5996 253.26546,158.44076   C 254.10461,157.28193 254.54417,156.00321 254.54417,154.64458   C 254.54417,153.24598 254.10461,152.00723 253.30542,150.96827   C 252.50622,149.92932 251.14759,149.0502 249.30943,148.33092   C 248.11064,147.8514 245.43333,147.13213 241.35743,146.13313   C 237.24156,145.17409 234.36445,144.25502 232.7261,143.3759   C 230.60823,142.25703 229.00984,140.85843 227.97088,139.22008   C 226.93192,137.54177 226.41245,135.70361 226.41245,133.66566   C 226.41245,131.38795 227.0518,129.31004 228.33052,127.35201   C 229.60923,125.39397 231.44739,123.91546 233.9249,122.8765   C 236.36245,121.87751 239.11968,121.35803 242.11666,121.35803   C 245.43333,121.35803 248.3504,121.87751 250.86787,122.95642   C 253.38534,124.03534 255.34337,125.59377 256.702,127.67168   C 258.06064,129.70964 258.77992,132.06727 258.85984,134.70462   L 253.2255,135.10421   C 252.90582,132.30703 251.86686,130.14919 250.10863,128.71064   C 248.39036,127.27209 245.79297,126.55281 242.35642,126.55281   C 238.76004,126.55281 236.16265,127.23213 234.52429,128.51084   C 232.9259,129.82952 232.08674,131.42791 232.08674,133.26606   C 232.08674,134.86446 232.68614,136.18313 233.84498,137.22209   C 234.96385,138.26104 237.92088,139.3 242.71606,140.37891   C 247.51124,141.49779 250.82791,142.41687 252.6261,143.25602   C 255.22349,144.45482 257.14156,145.97329 258.38032,147.81144   C 259.61907,149.6496 260.21847,151.72751 260.21847,154.1251   C 260.21847,156.52269 259.53915,158.76044 258.18052,160.83835   C 256.82188,162.95622 254.86385,164.59458 252.30642,165.75341   C 249.78895,166.91225 246.91184,167.51164 243.71506,167.51164   C 239.67911,167.51164 236.28253,166.91225 233.56526,165.75341   C 230.84799,164.55462 228.69016,162.79638 227.13172,160.43875   C 225.61325,158.08112 224.77409,155.40381 224.69417,152.40683   z "
     style="fill:#000000;fill-rule:evenodd;fill-opacity:1;stroke:none;" />
</svg>
