<?xml version="1.0" encoding="UTF-8" standalone="no"?>
<svg
   xmlns:dc="http://purl.org/dc/elements/1.1/"
   xmlns:cc="http://creativecommons.org/ns#"
   xmlns:rdf="http://www.w3.org/1999/02/22-rdf-syntax-ns#"
   xmlns:svg="http://www.w3.org/2000/svg"
   xmlns="http://www.w3.org/2000/svg"
   id="svg19"
   height="95.75mm"
   width="95.75mm"
   version="1.0">
  <metadata
     id="metadata23">
    <rdf:RDF>
      <cc:Work
         rdf:about="">
        <dc:format>image/svg+xml</dc:format>
        <dc:type
           rdf:resource="http://purl.org/dc/dcmitype/StillImage" />
      </cc:Work>
    </rdf:RDF>
  </metadata>
  <defs
     id="defs3">
    <pattern
       y="0"
       x="0"
       height="6"
       width="6"
       patternUnits="userSpaceOnUse"
       id="EMFhbasepattern" />
  </defs>
  <path
     id="path5"
     d="  M 54.345381,54.345381   L 54.345381,307.53092   L 307.53092,307.53092   L 307.53092,54.345381   L 54.345381,54.345381   z "
     style="fill:#aaffaa;fill-rule:evenodd;fill-opacity:1;stroke:none;" />
  <path
     id="path7"
     d="  M 54.345381,54.345381   L 307.53092,54.345381   L 307.53092,307.53092   L 54.345381,307.53092   z "
     style="fill:none;stroke:#000000;stroke-width:9.5903616px;stroke-linecap:butt;stroke-linejoin:miter;stroke-miterlimit:10;stroke-dasharray:none;stroke-opacity:1;" />
  <path
     id="path9"
     d="  M 54.345381,54.345381   L 307.53092,307.53092  "
     style="fill:none;stroke:#000000;stroke-width:9.5903616px;stroke-linecap:butt;stroke-linejoin:miter;stroke-miterlimit:10;stroke-dasharray:none;stroke-opacity:1;" />
  <path
     id="path11"
     d="  M 200.11887,161.75743   C 200.11887,172.38674 191.56747,180.93815 180.93815,180.93815   C 170.34879,180.93815 161.75743,172.38674 161.75743,161.75743   C 161.75743,151.16807 170.34879,142.5767 180.93815,142.5767   C 191.56747,142.5767 200.11887,151.16807 200.11887,161.75743  "
     style="fill:none;stroke:#000000;stroke-width:9.5903616px;stroke-linecap:butt;stroke-linejoin:miter;stroke-miterlimit:10;stroke-dasharray:none;stroke-opacity:1;" />
  <path
     id="path13"
     d="  M 180.93815,180.93815   L 180.93815,286.43212  "
     style="fill:none;stroke:#000000;stroke-width:9.5903616px;stroke-linecap:butt;stroke-linejoin:miter;stroke-miterlimit:10;stroke-dasharray:none;stroke-opacity:1;" />
  <path
     id="path15"
     d="  M 152.16707,209.70923   L 209.70923,209.70923  "
     style="fill:none;stroke:#000000;stroke-width:9.5903616px;stroke-linecap:butt;stroke-linejoin:miter;stroke-miterlimit:10;stroke-dasharray:none;stroke-opacity:1;" />
  <path
     id="path17"
     d="  M 140.57871,127.11225   L 157.72148,82.477107   L 164.0751,82.477107   L 182.33674,127.11225   L 175.62349,127.11225   L 170.42871,113.56586   L 151.76747,113.56586   L 146.85241,127.11225   z  M 153.44578,108.77068   L 168.59056,108.77068   L 163.91526,96.423091   C 162.51666,92.666866 161.43775,89.589959 160.75843,87.152408   C 160.19899,90.029517 159.3998,92.866665 158.36084,95.703814   z  M 185.05401,112.76667   L 190.60843,112.28715   C 190.88815,114.5249 191.48755,116.32309 192.48654,117.76164   C 193.44558,119.2002 194.92409,120.35903 196.96205,121.23815   C 199,122.11727 201.27771,122.55683 203.79518,122.55683   C 206.07289,122.55683 208.03092,122.23715 209.78915,121.55783   C 211.50743,120.87851 212.78614,119.95944 213.6253,118.8006   C 214.46445,117.64177 214.90401,116.36305 214.90401,115.00442   C 214.90401,113.60582 214.46445,112.36707 213.66526,111.32811   C 212.86606,110.28916 211.50743,109.41004 209.66927,108.69076   C 208.47048,108.21124 205.79317,107.49197 201.71727,106.49297   C 197.6014,105.53393 194.72429,104.61486 193.08594,103.73574   C 190.96807,102.61687 189.36968,101.21827 188.33072,99.579918   C 187.29176,97.901605 186.77229,96.063452 186.77229,94.025501   C 186.77229,91.74779 187.41164,89.669878 188.69036,87.711846   C 189.96907,85.753814 191.80723,84.2753 194.28474,83.236344   C 196.72229,82.237348 199.47952,81.71787 202.4765,81.71787   C 205.79317,81.71787 208.71024,82.237348 211.22771,83.316264   C 213.74518,84.39518 215.70321,85.953613 217.06184,88.031525   C 218.42048,90.069477 219.13976,92.427107 219.21968,95.064456   L 213.58534,95.464055   C 213.26566,92.666866 212.2267,90.509035 210.46847,89.070481   C 208.7502,87.631926 206.15281,86.912649 202.71626,86.912649   C 199.11988,86.912649 196.52249,87.591967 194.88413,88.870681   C 193.28574,90.189356 192.44658,91.78775 192.44658,93.625902   C 192.44658,95.224296 193.04598,96.54297 194.20482,97.581926   C 195.32369,98.620882 198.28072,99.659838 203.0759,100.73875   C 207.87108,101.85763 211.18775,102.77671 212.98594,103.61586   C 215.58333,104.81466 217.5014,106.33313 218.74016,108.17128   C 219.97891,110.00944 220.57831,112.08735 220.57831,114.48494   C 220.57831,116.88253 219.89899,119.12028 218.54036,121.19819   C 217.18172,123.31606 215.22369,124.95442 212.66626,126.11325   C 210.14879,127.27209 207.27168,127.87148 204.0749,127.87148   C 200.03895,127.87148 196.64237,127.27209 193.9251,126.11325   C 191.20783,124.91446 189.05,123.15622 187.49156,120.79859   C 185.97309,118.44096 185.13393,115.76365 185.05401,112.76667   z "
     style="fill:#000000;fill-rule:evenodd;fill-opacity:1;stroke:none;" />
</svg>
