<?xml version="1.0" encoding="UTF-8" standalone="no"?>
<svg
   xmlns:dc="http://purl.org/dc/elements/1.1/"
   xmlns:cc="http://creativecommons.org/ns#"
   xmlns:rdf="http://www.w3.org/1999/02/22-rdf-syntax-ns#"
   xmlns:svg="http://www.w3.org/2000/svg"
   xmlns="http://www.w3.org/2000/svg"
   id="svg15"
   height="112.9mm"
   width="112.9mm"
   version="1.0">
  <metadata
     id="metadata19">
    <rdf:RDF>
      <cc:Work
         rdf:about="">
        <dc:format>image/svg+xml</dc:format>
        <dc:type
           rdf:resource="http://purl.org/dc/dcmitype/StillImage" />
      </cc:Work>
    </rdf:RDF>
  </metadata>
  <defs
     id="defs3">
    <pattern
       y="0"
       x="0"
       height="6"
       width="6"
       patternUnits="userSpaceOnUse"
       id="EMFhbasepattern" />
  </defs>
  <path
     id="path5"
     d="  M 1816.8403,1817.3195   L 2232.4953,1817.3195  "
     style="fill:none;stroke:#ffff00;stroke-width:10.649107px;stroke-linecap:butt;stroke-linejoin:miter;stroke-miterlimit:282;stroke-dasharray:none;stroke-opacity:1;" />
  <path
     id="path7"
     d="  M 1816.8403,2030.4905   L 2232.4953,2030.4905  "
     style="fill:none;stroke:#ffff00;stroke-width:10.649107px;stroke-linecap:butt;stroke-linejoin:miter;stroke-miterlimit:282;stroke-dasharray:none;stroke-opacity:1;" />
  <path
     id="path9"
     d="  M 1962.4914,1977.2072   L 1940.7023,1977.2072   L 1932.0546,1954.6628   L 1892.4036,1954.6628   L 1884.2091,1977.2072   L 1862.9864,1977.2072   L 1901.6178,1878.0043   L 1922.8027,1878.0043   z  M 1925.6349,1937.9717   L 1911.9648,1901.1529   L 1898.559,1937.9717   z "
     style="fill:#ffff00;fill-rule:nonzero;fill-opacity:1;stroke:none;" />
  <path
     id="path11"
     d="  M 1968.118,1944.92   L 1987.6036,1943.0319   C 1988.7743,1949.5648 1991.1533,1954.3607 1994.7408,1957.4573   C 1998.3283,1960.516 2003.1619,1962.0266 2009.2417,1962.0266   C 2015.6992,1962.0266 2020.5328,1960.6671 2023.8182,1957.9482   C 2027.1035,1955.2293 2028.7273,1952.0194 2028.7273,1948.3942   C 2028.7273,1946.0151 2028.0476,1944.0515 2026.6504,1942.3899   C 2025.2909,1940.7283 2022.8741,1939.2934 2019.4754,1938.0849   C 2017.0964,1937.2919 2011.7718,1935.8192 2003.4262,1933.78   C 1992.7016,1931.0988 1985.1491,1927.8512 1980.8441,1923.9617   C 1974.7265,1918.4861 1971.7055,1911.8398 1971.7055,1903.9851   C 1971.7055,1898.9627 1973.1405,1894.2046 1975.9727,1889.8241   C 1978.8427,1885.4436 1982.9966,1882.0827 1988.3589,1879.7792   C 1993.759,1877.4757 2000.2542,1876.3428 2007.8823,1876.3428   C 2020.344,1876.3428 2029.7091,1879.0617 2036.0155,1884.4995   C 2042.2842,1889.9752 2045.6073,1897.2634 2045.9094,1906.3642   L 2025.8951,1907.2327   C 2025.0266,1902.1348 2023.1762,1898.4718 2020.3817,1896.2438   C 2017.5495,1894.0158 2013.3201,1892.9207 2007.6934,1892.9207   C 2001.878,1892.9207 1997.3087,1894.0913 1994.0233,1896.4704   C 1991.9086,1898.0186 1990.8512,1900.0578 1990.8512,1902.6257   C 1990.8512,1905.0047 1991.8331,1907.0062 1993.8345,1908.6677   C 1996.3268,1910.7825 2002.4822,1913.0105 2012.225,1915.2762   C 2021.9678,1917.5798 2029.1805,1919.9588 2033.8253,1922.4134   C 2038.5079,1924.9057 2042.1709,1928.2666 2044.7765,1932.4961   C 2047.4199,1936.7632 2048.7416,1942.05 2048.7416,1948.3187   C 2048.7416,1953.9831 2047.1556,1959.3076 2044.0212,1964.2546   C 2040.8492,1969.2392 2036.3932,1972.94 2030.6155,1975.3191   C 2024.8377,1977.7359 2017.6628,1978.9443 2009.0529,1978.9443   C 1996.5157,1978.9443 1986.8861,1976.0743 1980.1644,1970.2588   C 1973.4426,1964.4811 1969.402,1956.0223 1968.118,1944.92   z "
     style="fill:#ffff00;fill-rule:nonzero;fill-opacity:1;stroke:none;" />
  <path
     id="path13"
     d="  M 2079.7826,1977.2072   L 2056.1053,1878.0043   L 2076.6105,1878.0043   L 2091.5646,1946.1284   L 2109.6907,1878.0043   L 2133.5191,1878.0043   L 2150.8899,1947.2991   L 2166.1083,1878.0043   L 2186.2737,1878.0043   L 2162.181,1977.2072   L 2140.9583,1977.2072   L 2121.2084,1903.0411   L 2101.534,1977.2072   z "
     style="fill:#ffff00;fill-rule:nonzero;fill-opacity:1;stroke:none;" />
</svg>
