<?xml version="1.0" encoding="UTF-8" standalone="no"?>
<svg
   xmlns:dc="http://purl.org/dc/elements/1.1/"
   xmlns:cc="http://creativecommons.org/ns#"
   xmlns:rdf="http://www.w3.org/1999/02/22-rdf-syntax-ns#"
   xmlns:svg="http://www.w3.org/2000/svg"
   xmlns="http://www.w3.org/2000/svg"
   id="svg9"
   height="112.9mm"
   width="112.9mm"
   version="1.0">
  <metadata
     id="metadata13">
    <rdf:RDF>
      <cc:Work
         rdf:about="">
        <dc:format>image/svg+xml</dc:format>
        <dc:type
           rdf:resource="http://purl.org/dc/dcmitype/StillImage" />
      </cc:Work>
    </rdf:RDF>
  </metadata>
  <defs
     id="defs3">
    <pattern
       y="0"
       x="0"
       height="6"
       width="6"
       patternUnits="userSpaceOnUse"
       id="EMFhbasepattern" />
  </defs>
  <path
     id="path5"
     d="  M 579.17536,493.41018   C 579.17536,519.76861 570.26334,541.93537 552.36378,559.87269   C 534.46422,577.77225 512.37299,586.72203 486.05232,586.72203   C 460.03376,586.72203 437.98029,577.69673 419.96744,559.64611   C 401.95459,541.5955 392.92928,519.50427 392.92928,493.41018   C 392.92928,467.05175 401.87906,444.80947 419.77863,426.75886   C 437.64043,408.70824 459.76942,399.68294 486.05232,399.68294   C 512.10865,399.68294 534.16212,408.78377 552.17497,426.98543   C 570.18782,445.14934 579.17536,467.27833 579.17536,493.41018   z  M 572.00043,493.41018   C 572.00043,469.05318 563.73038,448.54799 547.2658,431.8946   C 530.76346,415.20344 510.37156,406.89563 486.05232,406.89563   C 461.77085,406.89563 441.37894,415.20344 424.8766,431.8946   C 408.41203,448.54799 400.14198,469.05318 400.14198,493.41018   C 400.14198,517.50284 408.44979,537.89475 425.06542,554.54814   C 441.71881,571.20153 462.03519,579.5471 486.05232,579.5471   C 510.10722,579.5471 530.4236,571.20153 547.03923,554.54814   C 563.65485,537.89475 572.00043,517.50284 572.00043,493.41018   z  M 507.23725,224.65241   L 507.23725,338.28064   L 481.55855,306.06898   L 481.97394,399.30531   L 489.67755,399.68294   L 489.67755,329.82178   L 515.69611,359.39004   L 515.69611,224.65241   z "
     style="fill:#ff0000;fill-rule:nonzero;fill-opacity:1;stroke:none;" />
  <path
     id="path7"
     d="  M 476.61162,533.70308   L 476.61162,459.68801   L 448.96926,459.68801   L 448.96926,449.79416   L 515.5073,449.79416   L 515.5073,459.68801   L 487.75165,459.68801   L 487.75165,533.70308   z "
     style="fill:#ff0000;fill-rule:nonzero;fill-opacity:1;stroke:#ff0000;stroke-width:1.0573581px;stroke-linecap:butt;stroke-linejoin:miter;stroke-miterlimit:282;stroke-dasharray:none;stroke-opacity:1;" />
</svg>
