<?xml version="1.0" encoding="UTF-8" standalone="no"?>
<svg
   xmlns:dc="http://purl.org/dc/elements/1.1/"
   xmlns:cc="http://creativecommons.org/ns#"
   xmlns:rdf="http://www.w3.org/1999/02/22-rdf-syntax-ns#"
   xmlns:svg="http://www.w3.org/2000/svg"
   xmlns="http://www.w3.org/2000/svg"
   id="svg9"
   height="112.9mm"
   width="112.9mm"
   version="1.0">
  <metadata
     id="metadata13">
    <rdf:RDF>
      <cc:Work
         rdf:about="">
        <dc:format>image/svg+xml</dc:format>
        <dc:type
           rdf:resource="http://purl.org/dc/dcmitype/StillImage" />
      </cc:Work>
    </rdf:RDF>
  </metadata>
  <defs
     id="defs3">
    <pattern
       y="0"
       x="0"
       height="6"
       width="6"
       patternUnits="userSpaceOnUse"
       id="EMFhbasepattern" />
  </defs>
  <path
     id="path5"
     d="  M 338.20844,268.86233   C 338.20844,295.22953 329.29346,317.40367 311.38794,335.34696   C 293.48242,353.25248 271.38384,362.20524 245.05441,362.20524   C 219.02719,362.20524 196.96638,353.17693 178.94754,335.12031   C 160.92869,317.06369 151.90038,294.9651 151.90038,268.86233   C 151.90038,242.49513 160.85314,220.24545 178.75866,202.18882   C 196.6264,184.1322 218.76276,175.10389 245.05441,175.10389   C 271.11941,175.10389 293.18022,184.20775 311.19906,202.41548   C 329.21791,220.58542 338.20844,242.72178 338.20844,268.86233   z  M 331.03113,268.86233   C 331.03113,244.49723 322.75832,223.98521 306.28827,207.32627   C 289.78044,190.62956 269.38174,182.31899 245.05441,182.31899   C 220.76486,182.31899 200.36616,190.62956 183.85833,207.32627   C 167.38828,223.98521 159.11547,244.49723 159.11547,268.86233   C 159.11547,292.96301 167.42605,313.3617 184.04721,330.02063   C 200.70614,346.67957 221.02928,355.02792 245.05441,355.02792   C 269.11731,355.02792 289.44046,346.67957 306.06161,330.02063   C 322.68277,313.3617 331.03113,292.96301 331.03113,268.86233   z  M 266.24639,0.015110143   L 266.24639,113.68116   L 240.55914,81.458781   L 240.97467,174.72614   L 248.68085,175.10389   L 248.68085,105.21948   L 274.70807,134.79759   L 274.70807,0.015110143   L 266.24639,0.015110143   z "
     style="fill:#000000;fill-rule:nonzero;fill-opacity:1;stroke:none;" />
  <path
     id="path7"
     d="  M 235.61057,309.16864   L 235.61057,235.12894   L 207.95901,235.12894   L 207.95901,225.23179   L 274.51919,225.23179   L 274.51919,235.12894   L 246.7543,235.12894   L 246.7543,309.16864   L 235.61057,309.16864   z "
     style="fill:#000000;fill-rule:nonzero;fill-opacity:1;stroke:#000000;stroke-width:1.0577101px;stroke-linecap:butt;stroke-linejoin:miter;stroke-miterlimit:112;stroke-dasharray:none;stroke-opacity:1;" />
</svg>
