<?xml version="1.0" encoding="UTF-8" standalone="no"?>
<svg
   xmlns:dc="http://purl.org/dc/elements/1.1/"
   xmlns:cc="http://creativecommons.org/ns#"
   xmlns:rdf="http://www.w3.org/1999/02/22-rdf-syntax-ns#"
   xmlns:svg="http://www.w3.org/2000/svg"
   xmlns="http://www.w3.org/2000/svg"
   id="svg11"
   height="116.73mm"
   width="116.73mm"
   version="1.0">
  <metadata
     id="metadata15">
    <rdf:RDF>
      <cc:Work
         rdf:about="">
        <dc:format>image/svg+xml</dc:format>
        <dc:type
           rdf:resource="http://purl.org/dc/dcmitype/StillImage" />
      </cc:Work>
    </rdf:RDF>
  </metadata>
  <defs
     id="defs3">
    <pattern
       y="0"
       x="0"
       height="6"
       width="6"
       patternUnits="userSpaceOnUse"
       id="EMFhbasepattern" />
  </defs>
  <path
     id="path5"
     d="  M 220.57831,386.49156   L 220.57831,386.49156   L 386.49156,220.57831   L 220.57831,54.665059   L 54.665059,220.57831   L 220.57831,386.49156   z "
     style="fill:#ff8080;fill-rule:evenodd;fill-opacity:1;stroke:none;" />
  <path
     id="path7"
     d="  M 220.57831,386.49156   L 220.57831,386.49156   L 386.49156,220.57831   L 220.57831,54.665059   L 54.665059,220.57831   L 220.57831,386.49156  "
     style="fill:none;stroke:#000000;stroke-width:9.5903616px;stroke-linecap:butt;stroke-linejoin:miter;stroke-miterlimit:10;stroke-dasharray:none;stroke-opacity:1;" />
  <path
     id="path9"
     d="  M 136.06325,245.51325   L 161.11807,180.29879   L 170.42871,180.29879   L 197.12188,245.51325   L 187.29176,245.51325   L 179.65944,225.77309   L 152.40683,225.77309   L 145.21405,245.51325   z  M 154.88434,218.74016   L 176.98213,218.74016   L 170.18895,200.67831   C 168.11104,195.20381 166.55261,190.68835 165.55361,187.17188   C 164.71446,191.36767 163.55562,195.48353 162.03715,199.63935   z  M 220.57831,245.51325   L 220.57831,188.01104   L 199.11988,188.01104   L 199.11988,180.29879   L 250.78795,180.29879   L 250.78795,188.01104   L 229.20964,188.01104   L 229.20964,245.51325   z  M 260.09859,245.51325   L 260.09859,180.29879   L 304.09437,180.29879   L 304.09437,188.01104   L 268.72992,188.01104   L 268.72992,208.19076   L 299.33915,208.19076   L 299.33915,215.90301   L 268.72992,215.90301   L 268.72992,245.51325   z "
     style="fill:#000000;fill-rule:evenodd;fill-opacity:1;stroke:none;" />
</svg>
