<?xml version="1.0" encoding="UTF-8" standalone="no"?>
<svg
   xmlns:dc="http://purl.org/dc/elements/1.1/"
   xmlns:cc="http://creativecommons.org/ns#"
   xmlns:rdf="http://www.w3.org/1999/02/22-rdf-syntax-ns#"
   xmlns:svg="http://www.w3.org/2000/svg"
   xmlns="http://www.w3.org/2000/svg"
   id="svg11"
   height="95.75mm"
   width="95.75mm"
   version="1.0">
  <metadata
     id="metadata15">
    <rdf:RDF>
      <cc:Work
         rdf:about="">
        <dc:format>image/svg+xml</dc:format>
        <dc:type
           rdf:resource="http://purl.org/dc/dcmitype/StillImage" />
      </cc:Work>
    </rdf:RDF>
  </metadata>
  <defs
     id="defs3">
    <pattern
       y="0"
       x="0"
       height="6"
       width="6"
       patternUnits="userSpaceOnUse"
       id="EMFhbasepattern" />
  </defs>
  <path
     id="path5"
     d="  M 54.345381,54.345381   L 54.345381,307.53092   L 307.53092,307.53092   L 307.53092,54.345381   L 54.345381,54.345381   z "
     style="fill:#aaffaa;fill-rule:evenodd;fill-opacity:1;stroke:none;" />
  <path
     id="path7"
     d="  M 54.345381,54.345381   L 307.53092,54.345381   L 307.53092,307.53092   L 54.345381,307.53092   z "
     style="fill:none;stroke:#000000;stroke-width:9.5903616px;stroke-linecap:butt;stroke-linejoin:miter;stroke-miterlimit:10;stroke-dasharray:none;stroke-opacity:1;" />
  <path
     id="path9"
     d="  M 96.423091,205.87309   L 121.47791,140.65863   L 130.78855,140.65863   L 157.48172,205.87309   L 147.6516,205.87309   L 140.01928,186.13293   L 112.76667,186.13293   L 105.57389,205.87309   z  M 115.24418,179.1   L 137.34197,179.1   L 130.54879,161.03815   C 128.47088,155.56365 126.91245,151.04819 125.91345,147.53172   C 125.0743,151.72751 123.91546,155.84337 122.39699,159.99919   z  M 180.93815,205.87309   L 180.93815,148.37088   L 159.47972,148.37088   L 159.47972,140.65863   L 211.14779,140.65863   L 211.14779,148.37088   L 189.56948,148.37088   L 189.56948,205.87309   z  M 220.45843,205.87309   L 220.45843,140.65863   L 264.45421,140.65863   L 264.45421,148.37088   L 229.08976,148.37088   L 229.08976,168.5506   L 259.69899,168.5506   L 259.69899,176.26285   L 229.08976,176.26285   L 229.08976,205.87309   z "
     style="fill:#000000;fill-rule:evenodd;fill-opacity:1;stroke:none;" />
</svg>
