<?xml version="1.0" encoding="UTF-8" standalone="no"?>
<svg
   xmlns:dc="http://purl.org/dc/elements/1.1/"
   xmlns:cc="http://creativecommons.org/ns#"
   xmlns:rdf="http://www.w3.org/1999/02/22-rdf-syntax-ns#"
   xmlns:svg="http://www.w3.org/2000/svg"
   xmlns="http://www.w3.org/2000/svg"
   id="svg17"
   height="112.9mm"
   width="112.9mm"
   version="1.0">
  <metadata
     id="metadata21">
    <rdf:RDF>
      <cc:Work
         rdf:about="">
        <dc:format>image/svg+xml</dc:format>
        <dc:type
           rdf:resource="http://purl.org/dc/dcmitype/StillImage" />
      </cc:Work>
    </rdf:RDF>
  </metadata>
  <defs
     id="defs3">
    <pattern
       y="0"
       x="0"
       height="6"
       width="6"
       patternUnits="userSpaceOnUse"
       id="EMFhbasepattern" />
  </defs>
  <path
     id="path5"
     d="  M 2906.8676,2810.0118   L 3013.2554,2810.0118   L 3013.2554,2874.0522   L 2906.8676,2874.0522   z "
     style="fill:#000000;fill-rule:nonzero;fill-opacity:1;stroke:none;" />
  <path
     id="path7"
     d="  M 2960.0427,3191.9855   L 3144.0637,3007.4254   L 2960.0427,2822.8275   L 2776.0593,3007.4254   L 2960.0427,3191.9855   z "
     style="fill:#ff8080;fill-rule:nonzero;fill-opacity:1;stroke:#000000;stroke-width:10.62747px;stroke-linecap:square;stroke-linejoin:miter;stroke-miterlimit:282;stroke-dasharray:none;stroke-opacity:1;" />
  <path
     id="path9"
     d="  M 2960.0427,3007.4254   L 2912.1814,2922.0635   C 2912.1814,2890.0433 3007.904,2890.0433 3007.904,2922.0635   z "
     style="fill:none;stroke:#000000;stroke-width:10.62747px;stroke-linecap:butt;stroke-linejoin:miter;stroke-miterlimit:282;stroke-dasharray:none;stroke-opacity:1;" />
  <path
     id="path11"
     d="  M 2960.0427,3007.4254   L 3057.6873,3008.5217   C 3085.3112,3024.5129 3037.4499,3107.6821 3009.826,3091.6532   z "
     style="fill:none;stroke:#000000;stroke-width:10.62747px;stroke-linecap:butt;stroke-linejoin:miter;stroke-miterlimit:282;stroke-dasharray:none;stroke-opacity:1;" />
  <path
     id="path13"
     d="  M 2960.0427,3007.4254   L 2910.2971,3091.6532   C 2882.6732,3107.6821 2834.8119,3024.5129 2862.4358,3008.5217   z "
     style="fill:none;stroke:#000000;stroke-width:10.62747px;stroke-linecap:butt;stroke-linejoin:miter;stroke-miterlimit:282;stroke-dasharray:none;stroke-opacity:1;" />
  <path
     id="path15"
     d="  M 2984.727,3121.5563   L 2973.8735,3121.5563   L 2969.5396,3110.2906   L 2949.7544,3110.2906   L 2945.6843,3121.5563   L 2935.0945,3121.5563   L 2954.3521,3071.9194   L 2964.9042,3071.9194   z  M 2966.3362,3101.9359   L 2959.5151,3083.5253   L 2952.8446,3101.9359   z "
     style="fill:#000000;fill-rule:nonzero;fill-opacity:1;stroke:none;" />
</svg>
