<?xml version="1.0" encoding="UTF-8" standalone="no"?>
<svg
   xmlns:dc="http://purl.org/dc/elements/1.1/"
   xmlns:cc="http://creativecommons.org/ns#"
   xmlns:rdf="http://www.w3.org/1999/02/22-rdf-syntax-ns#"
   xmlns:svg="http://www.w3.org/2000/svg"
   xmlns="http://www.w3.org/2000/svg"
   id="svg19"
   height="130.27mm"
   width="130.27mm"
   version="1.0">
  <metadata
     id="metadata23">
    <rdf:RDF>
      <cc:Work
         rdf:about="">
        <dc:format>image/svg+xml</dc:format>
        <dc:type
           rdf:resource="http://purl.org/dc/dcmitype/StillImage" />
      </cc:Work>
    </rdf:RDF>
  </metadata>
  <defs
     id="defs3">
    <pattern
       y="0"
       x="0"
       height="6"
       width="6"
       patternUnits="userSpaceOnUse"
       id="EMFhbasepattern" />
  </defs>
  <path
     id="path5"
     d="  M 164.63454,327.67068   C 164.63454,437.95983 327.67068,437.95983 327.67068,327.67068   C 437.95983,327.67068 437.95983,164.63454 327.67068,164.63454   C 327.67068,54.345381 164.63454,54.345381 164.63454,164.63454   C 54.345381,164.63454 54.345381,327.67068 164.63454,327.67068   z "
     style="fill:#ffff80;fill-rule:evenodd;fill-opacity:1;stroke:none;" />
  <path
     id="path7"
     d="  M 164.63454,327.67068   C 164.63454,437.95983 327.67068,437.95983 327.67068,327.67068   C 437.95983,327.67068 437.95983,164.63454 327.67068,164.63454   C 327.67068,54.345381 164.63454,54.345381 164.63454,164.63454   C 54.345381,164.63454 54.345381,327.67068 164.63454,327.67068  "
     style="fill:none;stroke:#000000;stroke-width:9.5903616px;stroke-linecap:butt;stroke-linejoin:miter;stroke-miterlimit:10;stroke-dasharray:none;stroke-opacity:1;" />
  <path
     id="path9"
     d="  M 232.5263,192.3267   L 232.5263,147.69156   L 238.4004,147.69156   L 238.4004,169.82931   L 260.57811,147.69156   L 268.57008,147.69156   L 249.86887,165.75341   L 269.40923,192.3267   L 261.61706,192.3267   L 245.71305,169.70944   L 238.4004,176.86225   L 238.4004,192.3267   z "
     style="fill:#000000;fill-rule:evenodd;fill-opacity:1;stroke:none;" />
  <path
     id="path11"
     d="  M 265.33333,226.97188   C 265.33333,237.6012 256.78192,246.15261 246.15261,246.15261   C 235.56325,246.15261 226.97188,237.6012 226.97188,226.97188   C 226.97188,216.38253 235.56325,207.79116 246.15261,207.79116   C 256.78192,207.79116 265.33333,216.38253 265.33333,226.97188  "
     style="fill:none;stroke:#000000;stroke-width:9.5903616px;stroke-linecap:butt;stroke-linejoin:miter;stroke-miterlimit:10;stroke-dasharray:none;stroke-opacity:1;" />
  <path
     id="path13"
     d="  M 246.15261,246.15261   L 246.15261,351.64658  "
     style="fill:none;stroke:#000000;stroke-width:9.5903616px;stroke-linecap:butt;stroke-linejoin:miter;stroke-miterlimit:10;stroke-dasharray:none;stroke-opacity:1;" />
  <path
     id="path15"
     d="  M 217.38152,274.92369   L 274.92369,274.92369  "
     style="fill:none;stroke:#000000;stroke-width:9.5903616px;stroke-linecap:butt;stroke-linejoin:miter;stroke-miterlimit:10;stroke-dasharray:none;stroke-opacity:1;" />
  <path
     id="path17"
     d="  M 182.1769,213.74518   L 193.08594,223.13574   L 186.85221,230.40843   L 175.90321,221.05783   L 182.1769,213.74518  z    M 200.35863,229.36947   L 211.26767,238.72008   L 205.03393,245.99277   L 194.1249,236.64217   L 200.35863,229.36947  z    M 218.58032,244.95381   L 229.48935,254.34437   L 223.25562,261.61706   L 212.30662,252.26646   L 218.58032,244.95381  z    M 236.76204,260.57811   L 247.71104,269.92871   L 241.43735,277.2014   L 230.52831,267.8508   L 236.76204,260.57811  z    M 254.98373,276.16245   L 265.89277,285.55301   L 259.65903,292.8257   L 248.75,283.43514   L 254.98373,276.16245  z    M 273.16546,291.78674   L 284.11445,301.13735   L 277.84076,308.41004   L 266.93172,299.05943   L 273.16546,291.78674  z    M 291.38714,307.37108   L 302.29618,316.72168   L 296.06245,324.03433   L 285.15341,314.64377   L 291.38714,307.37108  z    M 309.56887,322.99538   L 316.44196,328.82951   L 310.16827,336.14216   L 303.33514,330.26807   L 309.56887,322.99538  z   "
     style="fill:#000000;fill-rule:nonzero;fill-opacity:1;stroke:#000000;stroke-width:0.95903611px;stroke-linecap:butt;stroke-linejoin:bevel;stroke-miterlimit:10;stroke-dasharray:none;stroke-opacity:1;" />
</svg>
