<?xml version="1.0" encoding="UTF-8" standalone="no"?>
<svg
   xmlns:dc="http://purl.org/dc/elements/1.1/"
   xmlns:cc="http://creativecommons.org/ns#"
   xmlns:rdf="http://www.w3.org/1999/02/22-rdf-syntax-ns#"
   xmlns:svg="http://www.w3.org/2000/svg"
   xmlns="http://www.w3.org/2000/svg"
   id="svg19"
   height="95.75mm"
   width="95.75mm"
   version="1.0">
  <metadata
     id="metadata23">
    <rdf:RDF>
      <cc:Work
         rdf:about="">
        <dc:format>image/svg+xml</dc:format>
        <dc:type
           rdf:resource="http://purl.org/dc/dcmitype/StillImage" />
      </cc:Work>
    </rdf:RDF>
  </metadata>
  <defs
     id="defs3">
    <pattern
       y="0"
       x="0"
       height="6"
       width="6"
       patternUnits="userSpaceOnUse"
       id="EMFhbasepattern" />
  </defs>
  <path
     id="path5"
     d="  M 54.345381,54.345381   L 54.345381,307.53092   L 307.53092,307.53092   L 307.53092,54.345381   L 54.345381,54.345381   z "
     style="fill:#aaffaa;fill-rule:evenodd;fill-opacity:1;stroke:none;" />
  <path
     id="path7"
     d="  M 54.345381,54.345381   L 307.53092,54.345381   L 307.53092,307.53092   L 54.345381,307.53092   z "
     style="fill:none;stroke:#000000;stroke-width:9.5903616px;stroke-linecap:butt;stroke-linejoin:miter;stroke-miterlimit:10;stroke-dasharray:none;stroke-opacity:1;" />
  <path
     id="path9"
     d="  M 167.31184,127.11225   L 167.31184,82.477107   L 173.18594,82.477107   L 173.18594,104.61486   L 195.36365,82.477107   L 203.35562,82.477107   L 184.65442,100.53895   L 204.19478,127.11225   L 196.40261,127.11225   L 180.49859,104.49498   L 173.18594,111.64779   L 173.18594,127.11225   z "
     style="fill:#000000;fill-rule:evenodd;fill-opacity:1;stroke:none;" />
  <path
     id="path11"
     d="  M 200.11887,161.75743   C 200.11887,172.38674 191.56747,180.93815 180.93815,180.93815   C 170.34879,180.93815 161.75743,172.38674 161.75743,161.75743   C 161.75743,151.16807 170.34879,142.5767 180.93815,142.5767   C 191.56747,142.5767 200.11887,151.16807 200.11887,161.75743  "
     style="fill:none;stroke:#000000;stroke-width:9.5903616px;stroke-linecap:butt;stroke-linejoin:miter;stroke-miterlimit:10;stroke-dasharray:none;stroke-opacity:1;" />
  <path
     id="path13"
     d="  M 180.93815,180.93815   L 180.93815,286.43212  "
     style="fill:none;stroke:#000000;stroke-width:9.5903616px;stroke-linecap:butt;stroke-linejoin:miter;stroke-miterlimit:10;stroke-dasharray:none;stroke-opacity:1;" />
  <path
     id="path15"
     d="  M 152.16707,209.70923   L 209.70923,209.70923  "
     style="fill:none;stroke:#000000;stroke-width:9.5903616px;stroke-linecap:butt;stroke-linejoin:miter;stroke-miterlimit:10;stroke-dasharray:none;stroke-opacity:1;" />
  <path
     id="path17"
     d="  M 116.96245,148.53072   L 127.87148,157.92128   L 121.63775,165.19397   L 110.68875,155.84337   L 116.96245,148.53072  z    M 135.14417,164.15502   L 146.05321,173.50562   L 139.81948,180.77831   L 128.91044,171.42771   L 135.14417,164.15502  z    M 153.36586,179.73935   L 164.2749,189.12992   L 158.04116,196.40261   L 147.09217,187.05201   L 153.36586,179.73935  z    M 171.54759,195.36365   L 182.49658,204.71425   L 176.22289,211.98694   L 165.31385,202.63634   L 171.54759,195.36365  z    M 189.76927,210.94799   L 200.67831,220.33855   L 194.44458,227.61124   L 183.53554,218.22068   L 189.76927,210.94799  z    M 207.951,226.57229   L 218.9,235.92289   L 212.6263,243.19558   L 201.71727,233.84498   L 207.951,226.57229  z    M 226.17269,242.15662   L 237.08172,251.50723   L 230.84799,258.81988   L 219.93895,249.42931   L 226.17269,242.15662  z    M 244.35441,257.78092   L 251.22751,263.61506   L 244.95381,270.92771   L 238.12068,265.05361   L 244.35441,257.78092  z   "
     style="fill:#000000;fill-rule:nonzero;fill-opacity:1;stroke:#000000;stroke-width:0.95903611px;stroke-linecap:butt;stroke-linejoin:bevel;stroke-miterlimit:10;stroke-dasharray:none;stroke-opacity:1;" />
</svg>
