<?xml version="1.0" encoding="UTF-8" standalone="no"?>
<svg
   xmlns:dc="http://purl.org/dc/elements/1.1/"
   xmlns:cc="http://creativecommons.org/ns#"
   xmlns:rdf="http://www.w3.org/1999/02/22-rdf-syntax-ns#"
   xmlns:svg="http://www.w3.org/2000/svg"
   xmlns="http://www.w3.org/2000/svg"
   id="svg19"
   height="130.27mm"
   width="130.27mm"
   version="1.0">
  <metadata
     id="metadata23">
    <rdf:RDF>
      <cc:Work
         rdf:about="">
        <dc:format>image/svg+xml</dc:format>
        <dc:type
           rdf:resource="http://purl.org/dc/dcmitype/StillImage" />
      </cc:Work>
    </rdf:RDF>
  </metadata>
  <defs
     id="defs3">
    <pattern
       y="0"
       x="0"
       height="6"
       width="6"
       patternUnits="userSpaceOnUse"
       id="EMFhbasepattern" />
  </defs>
  <path
     id="path5"
     d="  M 164.63454,327.67068   C 164.63454,437.95983 327.67068,437.95983 327.67068,327.67068   C 437.95983,327.67068 437.95983,164.63454 327.67068,164.63454   C 327.67068,54.345381 164.63454,54.345381 164.63454,164.63454   C 54.345381,164.63454 54.345381,327.67068 164.63454,327.67068   z "
     style="fill:#ffff80;fill-rule:evenodd;fill-opacity:1;stroke:none;" />
  <path
     id="path7"
     d="  M 164.63454,327.67068   C 164.63454,437.95983 327.67068,437.95983 327.67068,327.67068   C 437.95983,327.67068 437.95983,164.63454 327.67068,164.63454   C 327.67068,54.345381 164.63454,54.345381 164.63454,164.63454   C 54.345381,164.63454 54.345381,327.67068 164.63454,327.67068  "
     style="fill:none;stroke:#000000;stroke-width:9.5903616px;stroke-linecap:butt;stroke-linejoin:miter;stroke-miterlimit:10;stroke-dasharray:none;stroke-opacity:1;" />
  <path
     id="path9"
     d="  M 187.37168,176.66245   L 192.5265,176.22289   C 192.76626,178.26084 193.3257,179.97911 194.20482,181.29779   C 195.12389,182.61646 196.48253,183.65542 198.36064,184.49458   C 200.23875,185.29377 202.35662,185.69337 204.67429,185.69337   C 206.75221,185.69337 208.59036,185.41365 210.18875,184.77429   C 211.78715,184.1749 212.98594,183.29578 213.74518,182.25682   C 214.54437,181.17791 214.90401,179.97911 214.90401,178.7004   C 214.90401,177.42168 214.54437,176.30281 213.78514,175.34377   C 213.0259,174.34478 211.78715,173.54558 210.06887,172.90622   C 208.98996,172.46666 206.51245,171.78735 202.75622,170.86827   C 198.96004,169.98915 196.32269,169.11004 194.80421,168.31084   C 192.84618,167.27189 191.36767,165.99317 190.40863,164.4747   C 189.4496,162.95622 188.97008,161.23795 188.97008,159.35984   C 188.97008,157.28193 189.52952,155.32389 190.72831,153.5257   C 191.88715,151.72751 193.64538,150.32891 195.88313,149.40984   C 198.16084,148.4508 200.67831,148.01124 203.43554,148.01124   C 206.51245,148.01124 209.18976,148.49076 211.50743,149.48976   C 213.86506,150.44879 215.66325,151.88735 216.902,153.80542   C 218.18072,155.72349 218.82008,157.88132 218.93996,160.31887   L 213.70522,160.71847   C 213.4255,158.08112 212.46646,156.12309 210.86807,154.80442   C 209.22972,153.48574 206.83213,152.80642 203.6753,152.80642   C 200.35863,152.80642 197.96104,153.40582 196.48253,154.60462   C 194.96405,155.84337 194.20482,157.28193 194.20482,159.0002   C 194.20482,160.47871 194.72429,161.67751 195.80321,162.63654   C 196.84217,163.59558 199.59939,164.59458 204.03494,165.59357   C 208.47048,166.59257 211.50743,167.47168 213.14578,168.19096   C 215.54337,169.30984 217.3016,170.70843 218.46044,172.38674   C 219.57931,174.10502 220.17871,176.06305 220.17871,178.26084   C 220.17871,180.45863 219.53935,182.53654 218.3006,184.45462   C 217.02188,186.41265 215.22369,187.89116 212.86606,188.97008   C 210.50843,190.04899 207.87108,190.60843 204.95401,190.60843   C 201.19779,190.60843 198.08092,190.04899 195.56345,188.97008   C 193.04598,187.89116 191.08795,186.25281 189.64939,184.05502   C 188.21084,181.89719 187.4516,179.41968 187.37168,176.66245   z  M 225.97289,169.82931   C 225.97289,162.99618 227.81104,157.64156 231.44739,153.76546   C 235.12369,149.88936 239.87891,147.97128 245.67309,147.97128   C 249.46927,147.97128 252.90582,148.89036 255.94277,150.68855   C 259.01967,152.5267 261.33735,155.04417 262.93574,158.28092   C 264.53413,161.55763 265.33333,165.23393 265.33333,169.3498   C 265.33333,173.54558 264.49417,177.26184 262.81586,180.57851   C 261.13755,183.85522 258.73996,186.37269 255.66305,188.051   C 252.54618,189.76927 249.22951,190.60843 245.63313,190.60843   C 241.75702,190.60843 238.32048,189.64939 235.24357,187.77128   C 232.20662,185.93313 229.88895,183.3757 228.33052,180.09899   C 226.73213,176.86225 225.97289,173.46566 225.97289,169.82931   z  M 231.56727,169.90923   C 231.56727,174.86425 232.9259,178.78032 235.56325,181.65743   C 238.24056,184.49458 241.59719,185.93313 245.63313,185.93313   C 249.70903,185.93313 253.10562,184.49458 255.74297,181.61747   C 258.42028,178.74036 259.73895,174.6245 259.73895,169.30984   C 259.73895,165.99317 259.17951,163.03614 258.02068,160.55863   C 256.9018,158.04116 255.22349,156.12309 253.06566,154.7245   C 250.86787,153.36586 248.43032,152.64658 245.71305,152.64658   C 241.83694,152.64658 238.52028,154.00522 235.76305,156.64257   C 232.96586,159.27992 231.56727,163.71546 231.56727,169.90923   z  M 272.64598,189.88915   L 272.64598,148.69056   L 300.45803,148.69056   L 300.45803,153.56566   L 278.12048,153.56566   L 278.12048,166.31285   L 297.42108,166.31285   L 297.42108,171.18795   L 278.12048,171.18795   L 278.12048,189.88915   z "
     style="fill:#000000;fill-rule:evenodd;fill-opacity:1;stroke:none;" />
  <path
     id="path11"
     d="  M 187.37168,176.66245   L 192.5265,176.22289   C 192.76626,178.26084 193.3257,179.97911 194.20482,181.29779   C 195.12389,182.61646 196.48253,183.65542 198.36064,184.49458   C 200.23875,185.29377 202.35662,185.69337 204.67429,185.69337   C 206.75221,185.69337 208.59036,185.41365 210.18875,184.77429   C 211.78715,184.1749 212.98594,183.29578 213.74518,182.25682   C 214.54437,181.17791 214.90401,179.97911 214.90401,178.7004   C 214.90401,177.42168 214.54437,176.30281 213.78514,175.34377   C 213.0259,174.34478 211.78715,173.54558 210.06887,172.90622   C 208.98996,172.46666 206.51245,171.78735 202.75622,170.86827   C 198.96004,169.98915 196.32269,169.11004 194.80421,168.31084   C 192.84618,167.27189 191.36767,165.99317 190.40863,164.4747   C 189.4496,162.95622 188.97008,161.23795 188.97008,159.35984   C 188.97008,157.28193 189.52952,155.32389 190.72831,153.5257   C 191.88715,151.72751 193.64538,150.32891 195.88313,149.40984   C 198.16084,148.4508 200.67831,148.01124 203.43554,148.01124   C 206.51245,148.01124 209.18976,148.49076 211.50743,149.48976   C 213.86506,150.44879 215.66325,151.88735 216.902,153.80542   C 218.18072,155.72349 218.82008,157.88132 218.93996,160.31887   L 213.70522,160.71847   C 213.4255,158.08112 212.46646,156.12309 210.86807,154.80442   C 209.22972,153.48574 206.83213,152.80642 203.6753,152.80642   C 200.35863,152.80642 197.96104,153.40582 196.48253,154.60462   C 194.96405,155.84337 194.20482,157.28193 194.20482,159.0002   C 194.20482,160.47871 194.72429,161.67751 195.80321,162.63654   C 196.84217,163.59558 199.59939,164.59458 204.03494,165.59357   C 208.47048,166.59257 211.50743,167.47168 213.14578,168.19096   C 215.54337,169.30984 217.3016,170.70843 218.46044,172.38674   C 219.57931,174.10502 220.17871,176.06305 220.17871,178.26084   C 220.17871,180.45863 219.53935,182.53654 218.3006,184.45462   C 217.02188,186.41265 215.22369,187.89116 212.86606,188.97008   C 210.50843,190.04899 207.87108,190.60843 204.95401,190.60843   C 201.19779,190.60843 198.08092,190.04899 195.56345,188.97008   C 193.04598,187.89116 191.08795,186.25281 189.64939,184.05502   C 188.21084,181.89719 187.4516,179.41968 187.37168,176.66245   z  M 225.97289,169.82931   C 225.97289,162.99618 227.81104,157.64156 231.44739,153.76546   C 235.12369,149.88936 239.87891,147.97128 245.67309,147.97128   C 249.46927,147.97128 252.90582,148.89036 255.94277,150.68855   C 259.01967,152.5267 261.33735,155.04417 262.93574,158.28092   C 264.53413,161.55763 265.33333,165.23393 265.33333,169.3498   C 265.33333,173.54558 264.49417,177.26184 262.81586,180.57851   C 261.13755,183.85522 258.73996,186.37269 255.66305,188.051   C 252.54618,189.76927 249.22951,190.60843 245.63313,190.60843   C 241.75702,190.60843 238.32048,189.64939 235.24357,187.77128   C 232.20662,185.93313 229.88895,183.3757 228.33052,180.09899   C 226.73213,176.86225 225.97289,173.46566 225.97289,169.82931   z  M 231.56727,169.90923   C 231.56727,174.86425 232.9259,178.78032 235.56325,181.65743   C 238.24056,184.49458 241.59719,185.93313 245.63313,185.93313   C 249.70903,185.93313 253.10562,184.49458 255.74297,181.61747   C 258.42028,178.74036 259.73895,174.6245 259.73895,169.30984   C 259.73895,165.99317 259.17951,163.03614 258.02068,160.55863   C 256.9018,158.04116 255.22349,156.12309 253.06566,154.7245   C 250.86787,153.36586 248.43032,152.64658 245.71305,152.64658   C 241.83694,152.64658 238.52028,154.00522 235.76305,156.64257   C 232.96586,159.27992 231.56727,163.71546 231.56727,169.90923   z  M 272.64598,189.88915   L 272.64598,148.69056   L 300.45803,148.69056   L 300.45803,153.56566   L 278.12048,153.56566   L 278.12048,166.31285   L 297.42108,166.31285   L 297.42108,171.18795   L 278.12048,171.18795   L 278.12048,189.88915   z "
     style="fill:none;stroke:#000000;stroke-width:0.95903611px;stroke-linecap:butt;stroke-linejoin:miter;stroke-miterlimit:10;stroke-dasharray:none;stroke-opacity:1;" />
  <path
     id="path13"
     d="  M 246.15261,246.15261   L 193.40562,222.1767   C 140.65863,198.2008 140.65863,294.10441 193.40562,270.12851   L 246.15261,246.15261   L 298.89959,222.1767   C 351.64658,198.2008 351.64658,294.10441 298.89959,270.12851   L 246.15261,246.15261   z "
     style="fill:#000000;fill-rule:evenodd;fill-opacity:1;stroke:none;" />
  <path
     id="path15"
     d="  M 186.41265,328.38996   L 174.4247,297.501   L 178.86024,297.501   L 186.89217,319.95843   C 187.53152,321.75662 188.09096,323.43494 188.49056,324.99337   C 188.97008,323.31506 189.52952,321.63674 190.16887,319.95843   L 198.52048,297.501   L 202.6763,297.501   L 190.60843,328.38996   z  M 204.95401,318.47992   L 208.83012,318.12028   C 208.98996,319.67871 209.42952,320.95743 210.10883,321.95642   C 210.74819,322.91546 211.78715,323.71465 213.2257,324.35401   C 214.62429,324.95341 216.18273,325.27309 217.94096,325.27309   C 219.49939,325.27309 220.89799,325.03333 222.09678,324.55381   C 223.25562,324.11425 224.1747,323.47489 224.73413,322.63574   C 225.33353,321.83654 225.61325,320.95743 225.61325,319.99839   C 225.61325,319.03935 225.33353,318.2002 224.77409,317.48092   C 224.21466,316.76164 223.29558,316.12228 221.9769,315.64277   C 221.17771,315.32309 219.33956,314.84357 216.50241,314.12429   C 213.66526,313.44498 211.66727,312.80562 210.54839,312.20622   C 209.06988,311.44698 207.951,310.48795 207.23172,309.32911   C 206.51245,308.21024 206.15281,306.89156 206.15281,305.49297   C 206.15281,303.93453 206.59237,302.45602 207.47148,301.13735   C 208.3506,299.77871 209.66927,298.73975 211.34759,298.02048   C 213.06586,297.34116 214.94397,296.98152 217.02188,296.98152   C 219.2996,296.98152 221.33755,297.34116 223.09578,298.1004   C 224.81405,298.81967 226.17269,299.89859 227.13172,301.33714   C 228.0508,302.7757 228.57028,304.41405 228.6502,306.21224   L 224.69417,306.49196   C 224.49437,304.53393 223.7751,303.09538 222.5763,302.09638   C 221.37751,301.09739 219.57931,300.57791 217.18172,300.57791   C 214.70421,300.57791 212.90602,301.01747 211.78715,301.93654   C 210.66827,302.85562 210.06887,303.93453 210.06887,305.21325   C 210.06887,306.33212 210.46847,307.2512 211.30763,307.97048   C 212.06686,308.68975 214.14478,309.40903 217.46144,310.16827   C 220.77811,310.92751 223.05582,311.56686 224.29458,312.1263   C 226.09277,312.96546 227.41144,314.00441 228.29056,315.28313   C 229.12972,316.56184 229.56927,318.0004 229.56927,319.67871   C 229.56927,321.31706 229.08976,322.8755 228.13072,324.31405   C 227.21164,325.79257 225.85301,326.91144 224.09478,327.71064   C 222.33654,328.50983 220.33855,328.90943 218.14076,328.90943   C 215.34357,328.90943 212.98594,328.50983 211.10783,327.71064   C 209.22972,326.87148 207.7512,325.67269 206.67229,324.03433   C 205.59337,322.39598 205.03393,320.51787 204.95401,318.47992   z  M 242.99578,328.38996   L 242.99578,301.13735   L 232.80602,301.13735   L 232.80602,297.501   L 257.3014,297.501   L 257.3014,301.13735   L 247.07168,301.13735   L 247.07168,328.38996   z  M 260.25843,313.36506   C 260.25843,308.21024 261.65702,304.21425 264.37429,301.29718   C 267.13152,298.42008 270.68795,296.94156 275.04357,296.94156   C 277.92068,296.94156 280.47811,297.62088 282.75582,299.01947   C 285.07349,300.37811 286.79176,302.25622 287.99056,304.69377   C 289.18935,307.13132 289.78875,309.88855 289.78875,313.00542   C 289.78875,316.12228 289.18935,318.91947 287.91064,321.39698   C 286.63192,323.87449 284.83373,325.75261 282.51606,327.03132   C 280.19839,328.27008 277.72088,328.90943 275.04357,328.90943   C 272.1265,328.90943 269.52911,328.23012 267.2514,326.83152   C 264.93373,325.43293 263.21546,323.51485 262.01666,321.0773   C 260.85783,318.63975 260.25843,316.08232 260.25843,313.36506   z  M 264.49417,313.40502   C 264.49417,317.12128 265.49317,320.07831 267.49116,322.19618   C 269.48915,324.35401 272.00662,325.43293 275.00361,325.43293   C 278.08052,325.43293 280.63795,324.35401 282.59598,322.19618   C 284.59397,320.03835 285.59297,316.96144 285.59297,312.96546   C 285.59297,310.44799 285.15341,308.2502 284.31425,306.37208   C 283.4751,304.49397 282.23634,303.05542 280.59799,302.01646   C 278.95963,300.97751 277.12148,300.45803 275.08353,300.45803   C 272.16646,300.45803 269.68895,301.45702 267.61104,303.45502   C 265.53313,305.45301 264.49417,308.76967 264.49417,313.40502   z  M 294.90361,328.38996   L 294.90361,297.501   L 298.97951,297.501   L 298.97951,324.75361   L 314.20421,324.75361   L 314.20421,328.38996   z "
     style="fill:#000000;fill-rule:evenodd;fill-opacity:1;stroke:none;" />
  <path
     id="path17"
     d="  M 186.41265,328.38996   L 174.4247,297.501   L 178.86024,297.501   L 186.89217,319.95843   C 187.53152,321.75662 188.09096,323.43494 188.49056,324.99337   C 188.97008,323.31506 189.52952,321.63674 190.16887,319.95843   L 198.52048,297.501   L 202.6763,297.501   L 190.60843,328.38996   z  M 204.95401,318.47992   L 208.83012,318.12028   C 208.98996,319.67871 209.42952,320.95743 210.10883,321.95642   C 210.74819,322.91546 211.78715,323.71465 213.2257,324.35401   C 214.62429,324.95341 216.18273,325.27309 217.94096,325.27309   C 219.49939,325.27309 220.89799,325.03333 222.09678,324.55381   C 223.25562,324.11425 224.1747,323.47489 224.73413,322.63574   C 225.33353,321.83654 225.61325,320.95743 225.61325,319.99839   C 225.61325,319.03935 225.33353,318.2002 224.77409,317.48092   C 224.21466,316.76164 223.29558,316.12228 221.9769,315.64277   C 221.17771,315.32309 219.33956,314.84357 216.50241,314.12429   C 213.66526,313.44498 211.66727,312.80562 210.54839,312.20622   C 209.06988,311.44698 207.951,310.48795 207.23172,309.32911   C 206.51245,308.21024 206.15281,306.89156 206.15281,305.49297   C 206.15281,303.93453 206.59237,302.45602 207.47148,301.13735   C 208.3506,299.77871 209.66927,298.73975 211.34759,298.02048   C 213.06586,297.34116 214.94397,296.98152 217.02188,296.98152   C 219.2996,296.98152 221.33755,297.34116 223.09578,298.1004   C 224.81405,298.81967 226.17269,299.89859 227.13172,301.33714   C 228.0508,302.7757 228.57028,304.41405 228.6502,306.21224   L 224.69417,306.49196   C 224.49437,304.53393 223.7751,303.09538 222.5763,302.09638   C 221.37751,301.09739 219.57931,300.57791 217.18172,300.57791   C 214.70421,300.57791 212.90602,301.01747 211.78715,301.93654   C 210.66827,302.85562 210.06887,303.93453 210.06887,305.21325   C 210.06887,306.33212 210.46847,307.2512 211.30763,307.97048   C 212.06686,308.68975 214.14478,309.40903 217.46144,310.16827   C 220.77811,310.92751 223.05582,311.56686 224.29458,312.1263   C 226.09277,312.96546 227.41144,314.00441 228.29056,315.28313   C 229.12972,316.56184 229.56927,318.0004 229.56927,319.67871   C 229.56927,321.31706 229.08976,322.8755 228.13072,324.31405   C 227.21164,325.79257 225.85301,326.91144 224.09478,327.71064   C 222.33654,328.50983 220.33855,328.90943 218.14076,328.90943   C 215.34357,328.90943 212.98594,328.50983 211.10783,327.71064   C 209.22972,326.87148 207.7512,325.67269 206.67229,324.03433   C 205.59337,322.39598 205.03393,320.51787 204.95401,318.47992   z  M 242.99578,328.38996   L 242.99578,301.13735   L 232.80602,301.13735   L 232.80602,297.501   L 257.3014,297.501   L 257.3014,301.13735   L 247.07168,301.13735   L 247.07168,328.38996   z  M 260.25843,313.36506   C 260.25843,308.21024 261.65702,304.21425 264.37429,301.29718   C 267.13152,298.42008 270.68795,296.94156 275.04357,296.94156   C 277.92068,296.94156 280.47811,297.62088 282.75582,299.01947   C 285.07349,300.37811 286.79176,302.25622 287.99056,304.69377   C 289.18935,307.13132 289.78875,309.88855 289.78875,313.00542   C 289.78875,316.12228 289.18935,318.91947 287.91064,321.39698   C 286.63192,323.87449 284.83373,325.75261 282.51606,327.03132   C 280.19839,328.27008 277.72088,328.90943 275.04357,328.90943   C 272.1265,328.90943 269.52911,328.23012 267.2514,326.83152   C 264.93373,325.43293 263.21546,323.51485 262.01666,321.0773   C 260.85783,318.63975 260.25843,316.08232 260.25843,313.36506   z  M 264.49417,313.40502   C 264.49417,317.12128 265.49317,320.07831 267.49116,322.19618   C 269.48915,324.35401 272.00662,325.43293 275.00361,325.43293   C 278.08052,325.43293 280.63795,324.35401 282.59598,322.19618   C 284.59397,320.03835 285.59297,316.96144 285.59297,312.96546   C 285.59297,310.44799 285.15341,308.2502 284.31425,306.37208   C 283.4751,304.49397 282.23634,303.05542 280.59799,302.01646   C 278.95963,300.97751 277.12148,300.45803 275.08353,300.45803   C 272.16646,300.45803 269.68895,301.45702 267.61104,303.45502   C 265.53313,305.45301 264.49417,308.76967 264.49417,313.40502   z  M 294.90361,328.38996   L 294.90361,297.501   L 298.97951,297.501   L 298.97951,324.75361   L 314.20421,324.75361   L 314.20421,328.38996   z "
     style="fill:none;stroke:#000000;stroke-width:0.95903611px;stroke-linecap:butt;stroke-linejoin:miter;stroke-miterlimit:10;stroke-dasharray:none;stroke-opacity:1;" />
</svg>
