<?xml version="1.0" encoding="UTF-8" standalone="no"?>
<svg
   xmlns:dc="http://purl.org/dc/elements/1.1/"
   xmlns:cc="http://creativecommons.org/ns#"
   xmlns:rdf="http://www.w3.org/1999/02/22-rdf-syntax-ns#"
   xmlns:svg="http://www.w3.org/2000/svg"
   xmlns="http://www.w3.org/2000/svg"
   id="svg13"
   height="116.73mm"
   width="116.73mm"
   version="1.0">
  <metadata
     id="metadata17">
    <rdf:RDF>
      <cc:Work
         rdf:about="">
        <dc:format>image/svg+xml</dc:format>
        <dc:type
           rdf:resource="http://purl.org/dc/dcmitype/StillImage" />
      </cc:Work>
    </rdf:RDF>
  </metadata>
  <defs
     id="defs3">
    <pattern
       y="0"
       x="0"
       height="6"
       width="6"
       patternUnits="userSpaceOnUse"
       id="EMFhbasepattern" />
  </defs>
  <path
     id="path5"
     d="  M 220.57831,386.49156   L 220.57831,386.49156   L 386.49156,220.57831   L 220.57831,54.665059   L 54.665059,220.57831   L 220.57831,386.49156   z "
     style="fill:#ff8080;fill-rule:evenodd;fill-opacity:1;stroke:none;" />
  <path
     id="path7"
     d="  M 220.57831,386.49156   L 220.57831,386.49156   L 386.49156,220.57831   L 220.57831,54.665059   L 54.665059,220.57831   L 220.57831,386.49156  "
     style="fill:none;stroke:#000000;stroke-width:9.5903616px;stroke-linecap:butt;stroke-linejoin:miter;stroke-miterlimit:10;stroke-dasharray:none;stroke-opacity:1;" />
  <path
     id="path9"
     d="  M 220.57831,220.57831   L 220.57831,220.57831   L 134.26506,172.6265   L 134.26506,268.53012   L 220.57831,220.57831   L 306.89156,172.6265   L 306.89156,268.53012   L 220.57831,220.57831   z "
     style="fill:#000000;fill-rule:evenodd;fill-opacity:1;stroke:none;" />
  <path
     id="path11"
     d="  M 239.79899,109.52992   L 246.59217,109.52992   L 246.59217,139.3   C 246.59217,144.45482 246.03273,148.57068 244.83393,151.60763   C 243.6751,154.68454 241.55723,157.16205 238.52028,159.04016   C 235.44337,160.95823 231.44739,161.91727 226.49237,161.91727   C 221.65723,161.91727 217.7012,161.07811 214.66425,159.43976   C 211.58735,157.76144 209.38956,155.36385 208.07088,152.20703   C 206.75221,149.0502 206.11285,144.73454 206.11285,139.3   L 206.11285,109.52992   L 212.90602,109.52992   L 212.90602,139.26004   C 212.90602,143.73554 213.34558,147.01225 214.18474,149.17008   C 215.02389,151.28795 216.42249,152.88634 218.46044,154.04518   C 220.49839,155.20401 222.9759,155.76345 225.89297,155.76345   C 230.88795,155.76345 234.48433,154.64458 236.60221,152.36687   C 238.72008,150.08915 239.79899,145.73353 239.79899,139.26004   z "
     style="fill:#000000;fill-rule:evenodd;fill-opacity:1;stroke:none;" />
</svg>
