<?xml version="1.0" encoding="UTF-8" standalone="no"?>
<svg
   xmlns:dc="http://purl.org/dc/elements/1.1/"
   xmlns:cc="http://creativecommons.org/ns#"
   xmlns:rdf="http://www.w3.org/1999/02/22-rdf-syntax-ns#"
   xmlns:svg="http://www.w3.org/2000/svg"
   xmlns="http://www.w3.org/2000/svg"
   id="svg13"
   height="130.27mm"
   width="130.27mm"
   version="1.0">
  <metadata
     id="metadata17">
    <rdf:RDF>
      <cc:Work
         rdf:about="">
        <dc:format>image/svg+xml</dc:format>
        <dc:type
           rdf:resource="http://purl.org/dc/dcmitype/StillImage" />
      </cc:Work>
    </rdf:RDF>
  </metadata>
  <defs
     id="defs3">
    <pattern
       y="0"
       x="0"
       height="6"
       width="6"
       patternUnits="userSpaceOnUse"
       id="EMFhbasepattern" />
  </defs>
  <path
     id="path5"
     d="  M 164.63454,327.67068   C 164.63454,437.95983 327.67068,437.95983 327.67068,327.67068   C 437.95983,327.67068 437.95983,164.63454 327.67068,164.63454   C 327.67068,54.345381 164.63454,54.345381 164.63454,164.63454   C 54.345381,164.63454 54.345381,327.67068 164.63454,327.67068   z "
     style="fill:#ffff80;fill-rule:evenodd;fill-opacity:1;stroke:none;" />
  <path
     id="path7"
     d="  M 164.63454,327.67068   C 164.63454,437.95983 327.67068,437.95983 327.67068,327.67068   C 437.95983,327.67068 437.95983,164.63454 327.67068,164.63454   C 327.67068,54.345381 164.63454,54.345381 164.63454,164.63454   C 54.345381,164.63454 54.345381,327.67068 164.63454,327.67068  "
     style="fill:none;stroke:#000000;stroke-width:9.5903616px;stroke-linecap:butt;stroke-linejoin:miter;stroke-miterlimit:10;stroke-dasharray:none;stroke-opacity:1;" />
  <path
     id="path9"
     d="  M 246.15261,246.15261   L 193.40562,222.1767   C 140.65863,198.2008 140.65863,294.10441 193.40562,270.12851   L 246.15261,246.15261   L 298.89959,222.1767   C 351.64658,198.2008 351.64658,294.10441 298.89959,270.12851   L 246.15261,246.15261   z "
     style="fill:#000000;fill-rule:evenodd;fill-opacity:1;stroke:none;" />
  <path
     id="path11"
     d="  M 265.37329,144.69458   L 272.16646,144.69458   L 272.16646,174.46466   C 272.16646,179.61948 271.60702,183.73534 270.40823,186.77229   C 269.24939,189.84919 267.13152,192.3267 264.09457,194.20482   C 261.01767,196.12289 257.02168,197.08192 252.06666,197.08192   C 247.23152,197.08192 243.2755,196.24277 240.23855,194.60441   C 237.16164,192.9261 234.96385,190.52851 233.64518,187.37168   C 232.3265,184.21486 231.68715,179.89919 231.68715,174.46466   L 231.68715,144.69458   L 238.48032,144.69458   L 238.48032,174.4247   C 238.48032,178.9002 238.91988,182.1769 239.75903,184.33474   C 240.59819,186.45261 241.99678,188.051 244.03474,189.20984   C 246.07269,190.36867 248.5502,190.92811 251.46727,190.92811   C 256.46225,190.92811 260.05863,189.80923 262.1765,187.53152   C 264.29437,185.25381 265.37329,180.89819 265.37329,174.4247   z "
     style="fill:#000000;fill-rule:evenodd;fill-opacity:1;stroke:none;" />
</svg>
