<?xml version="1.0" encoding="UTF-8" standalone="no"?>
<svg
   xmlns:dc="http://purl.org/dc/elements/1.1/"
   xmlns:cc="http://creativecommons.org/ns#"
   xmlns:rdf="http://www.w3.org/1999/02/22-rdf-syntax-ns#"
   xmlns:svg="http://www.w3.org/2000/svg"
   xmlns="http://www.w3.org/2000/svg"
   id="svg19"
   height="95.75mm"
   width="95.75mm"
   version="1.0">
  <metadata
     id="metadata23">
    <rdf:RDF>
      <cc:Work
         rdf:about="">
        <dc:format>image/svg+xml</dc:format>
        <dc:type
           rdf:resource="http://purl.org/dc/dcmitype/StillImage" />
      </cc:Work>
    </rdf:RDF>
  </metadata>
  <defs
     id="defs3">
    <pattern
       y="0"
       x="0"
       height="6"
       width="6"
       patternUnits="userSpaceOnUse"
       id="EMFhbasepattern" />
  </defs>
  <path
     id="path5"
     d="  M 54.345381,54.345381   L 54.345381,307.53092   L 307.53092,307.53092   L 307.53092,54.345381   L 54.345381,54.345381   z "
     style="fill:#aaffaa;fill-rule:evenodd;fill-opacity:1;stroke:none;" />
  <path
     id="path7"
     d="  M 54.345381,54.345381   L 307.53092,54.345381   L 307.53092,307.53092   L 54.345381,307.53092   z "
     style="fill:none;stroke:#000000;stroke-width:9.5903616px;stroke-linecap:butt;stroke-linejoin:miter;stroke-miterlimit:10;stroke-dasharray:none;stroke-opacity:1;" />
  <path
     id="path9"
     d="  M 122.15723,111.44799   L 127.31205,111.00843   C 127.55181,113.04638 128.11124,114.76466 128.99036,116.08333   C 129.90944,117.40201 131.26807,118.44096 133.14618,119.28012   C 135.0243,120.07932 137.14217,120.47891 139.45984,120.47891   C 141.53775,120.47891 143.3759,120.1992 144.9743,119.55984   C 146.57269,118.96044 147.77148,118.08132 148.53072,117.04237   C 149.32992,115.96345 149.68956,114.76466 149.68956,113.48594   C 149.68956,112.20723 149.32992,111.08835 148.57068,110.12932   C 147.81144,109.13032 146.57269,108.33112 144.85442,107.69177   C 143.7755,107.25221 141.29799,106.57289 137.54177,105.65381   C 133.74558,104.7747 131.10823,103.89558 129.58976,103.09638   C 127.63173,102.05743 126.15321,100.77871 125.19417,99.26024   C 124.23514,97.741766 123.75562,96.023493 123.75562,94.14538   C 123.75562,92.067469 124.31506,90.109436 125.51385,88.311244   C 126.67269,86.513051 128.43092,85.114457 130.66867,84.19538   C 132.94638,83.236344 135.46385,82.796786 138.22108,82.796786   C 141.29799,82.796786 143.9753,83.276304 146.29297,84.2753   C 148.6506,85.234336 150.44879,86.67289 151.68755,88.590963   C 152.96626,90.509035 153.60562,92.666866 153.7255,95.104416   L 148.49076,95.504015   C 148.21104,92.866665 147.25201,90.908633 145.65361,89.589959   C 144.01526,88.271284 141.61767,87.591967 138.46084,87.591967   C 135.14417,87.591967 132.74658,88.191364 131.26807,89.390159   C 129.7496,90.628914 128.99036,92.067469 128.99036,93.785742   C 128.99036,95.264256 129.50984,96.463051 130.58875,97.422087   C 131.62771,98.381123 134.38494,99.380119 138.82048,100.37912   C 143.25602,101.37811 146.29297,102.25723 147.93132,102.9765   C 150.32891,104.09538 152.08715,105.49397 153.24598,107.17229   C 154.36486,108.89056 154.96425,110.84859 154.96425,113.04638   C 154.96425,115.24418 154.3249,117.32209 153.08614,119.24016   C 151.80743,121.19819 150.00923,122.67671 147.6516,123.75562   C 145.29397,124.83454 142.65662,125.39397 139.73956,125.39397   C 135.98333,125.39397 132.86646,124.83454 130.34899,123.75562   C 127.83152,122.67671 125.87349,121.03835 124.43494,118.84056   C 122.99638,116.68273 122.23715,114.20522 122.15723,111.44799   z  M 160.75843,104.61486   C 160.75843,97.781725 162.59658,92.427107 166.23293,88.551003   C 169.90923,84.674898 174.66446,82.756826 180.45863,82.756826   C 184.25482,82.756826 187.69136,83.675902 190.72831,85.474095   C 193.80522,87.312248 196.12289,89.829718 197.72128,93.066465   C 199.31968,96.343171 200.11887,100.01948 200.11887,104.13534   C 200.11887,108.33112 199.27972,112.04739 197.6014,115.36405   C 195.92309,118.64076 193.5255,121.15823 190.44859,122.83654   C 187.33172,124.55482 184.01506,125.39397 180.41867,125.39397   C 176.54257,125.39397 173.10602,124.43494 170.02911,122.55683   C 166.99217,120.71867 164.6745,118.16124 163.11606,114.88454   C 161.51767,111.64779 160.75843,108.2512 160.75843,104.61486   z  M 166.35281,104.69478   C 166.35281,109.6498 167.71144,113.56586 170.34879,116.44297   C 173.0261,119.28012 176.38273,120.71867 180.41867,120.71867   C 184.49458,120.71867 187.89116,119.28012 190.52851,116.40301   C 193.20582,113.5259 194.5245,109.41004 194.5245,104.09538   C 194.5245,100.77871 193.96506,97.821685 192.80622,95.344175   C 191.68735,92.826705 190.00903,90.908633 187.8512,89.510039   C 185.65341,88.151404 183.21586,87.432127 180.49859,87.432127   C 176.62249,87.432127 173.30582,88.790762 170.54859,91.428111   C 167.7514,94.06546 166.35281,98.501003 166.35281,104.69478   z  M 207.43152,124.6747   L 207.43152,83.476103   L 235.24357,83.476103   L 235.24357,88.351204   L 212.90602,88.351204   L 212.90602,101.09839   L 232.20662,101.09839   L 232.20662,105.97349   L 212.90602,105.97349   L 212.90602,124.6747   z "
     style="fill:#000000;fill-rule:evenodd;fill-opacity:1;stroke:none;" />
  <path
     id="path11"
     d="  M 122.15723,111.44799   L 127.31205,111.00843   C 127.55181,113.04638 128.11124,114.76466 128.99036,116.08333   C 129.90944,117.40201 131.26807,118.44096 133.14618,119.28012   C 135.0243,120.07932 137.14217,120.47891 139.45984,120.47891   C 141.53775,120.47891 143.3759,120.1992 144.9743,119.55984   C 146.57269,118.96044 147.77148,118.08132 148.53072,117.04237   C 149.32992,115.96345 149.68956,114.76466 149.68956,113.48594   C 149.68956,112.20723 149.32992,111.08835 148.57068,110.12932   C 147.81144,109.13032 146.57269,108.33112 144.85442,107.69177   C 143.7755,107.25221 141.29799,106.57289 137.54177,105.65381   C 133.74558,104.7747 131.10823,103.89558 129.58976,103.09638   C 127.63173,102.05743 126.15321,100.77871 125.19417,99.26024   C 124.23514,97.741766 123.75562,96.023493 123.75562,94.14538   C 123.75562,92.067469 124.31506,90.109436 125.51385,88.311244   C 126.67269,86.513051 128.43092,85.114457 130.66867,84.19538   C 132.94638,83.236344 135.46385,82.796786 138.22108,82.796786   C 141.29799,82.796786 143.9753,83.276304 146.29297,84.2753   C 148.6506,85.234336 150.44879,86.67289 151.68755,88.590963   C 152.96626,90.509035 153.60562,92.666866 153.7255,95.104416   L 148.49076,95.504015   C 148.21104,92.866665 147.25201,90.908633 145.65361,89.589959   C 144.01526,88.271284 141.61767,87.591967 138.46084,87.591967   C 135.14417,87.591967 132.74658,88.191364 131.26807,89.390159   C 129.7496,90.628914 128.99036,92.067469 128.99036,93.785742   C 128.99036,95.264256 129.50984,96.463051 130.58875,97.422087   C 131.62771,98.381123 134.38494,99.380119 138.82048,100.37912   C 143.25602,101.37811 146.29297,102.25723 147.93132,102.9765   C 150.32891,104.09538 152.08715,105.49397 153.24598,107.17229   C 154.36486,108.89056 154.96425,110.84859 154.96425,113.04638   C 154.96425,115.24418 154.3249,117.32209 153.08614,119.24016   C 151.80743,121.19819 150.00923,122.67671 147.6516,123.75562   C 145.29397,124.83454 142.65662,125.39397 139.73956,125.39397   C 135.98333,125.39397 132.86646,124.83454 130.34899,123.75562   C 127.83152,122.67671 125.87349,121.03835 124.43494,118.84056   C 122.99638,116.68273 122.23715,114.20522 122.15723,111.44799   z  M 160.75843,104.61486   C 160.75843,97.781725 162.59658,92.427107 166.23293,88.551003   C 169.90923,84.674898 174.66446,82.756826 180.45863,82.756826   C 184.25482,82.756826 187.69136,83.675902 190.72831,85.474095   C 193.80522,87.312248 196.12289,89.829718 197.72128,93.066465   C 199.31968,96.343171 200.11887,100.01948 200.11887,104.13534   C 200.11887,108.33112 199.27972,112.04739 197.6014,115.36405   C 195.92309,118.64076 193.5255,121.15823 190.44859,122.83654   C 187.33172,124.55482 184.01506,125.39397 180.41867,125.39397   C 176.54257,125.39397 173.10602,124.43494 170.02911,122.55683   C 166.99217,120.71867 164.6745,118.16124 163.11606,114.88454   C 161.51767,111.64779 160.75843,108.2512 160.75843,104.61486   z  M 166.35281,104.69478   C 166.35281,109.6498 167.71144,113.56586 170.34879,116.44297   C 173.0261,119.28012 176.38273,120.71867 180.41867,120.71867   C 184.49458,120.71867 187.89116,119.28012 190.52851,116.40301   C 193.20582,113.5259 194.5245,109.41004 194.5245,104.09538   C 194.5245,100.77871 193.96506,97.821685 192.80622,95.344175   C 191.68735,92.826705 190.00903,90.908633 187.8512,89.510039   C 185.65341,88.151404 183.21586,87.432127 180.49859,87.432127   C 176.62249,87.432127 173.30582,88.790762 170.54859,91.428111   C 167.7514,94.06546 166.35281,98.501003 166.35281,104.69478   z  M 207.43152,124.6747   L 207.43152,83.476103   L 235.24357,83.476103   L 235.24357,88.351204   L 212.90602,88.351204   L 212.90602,101.09839   L 232.20662,101.09839   L 232.20662,105.97349   L 212.90602,105.97349   L 212.90602,124.6747   z "
     style="fill:none;stroke:#000000;stroke-width:0.95903611px;stroke-linecap:butt;stroke-linejoin:miter;stroke-miterlimit:10;stroke-dasharray:none;stroke-opacity:1;" />
  <path
     id="path13"
     d="  M 180.93815,180.93815   L 128.19116,156.96225   C 75.444176,132.98634 75.444176,228.88996 128.19116,204.91405   L 180.93815,180.93815   L 233.68514,156.96225   C 286.43212,132.98634 286.43212,228.88996 233.68514,204.91405   L 180.93815,180.93815   z "
     style="fill:#000000;fill-rule:evenodd;fill-opacity:1;stroke:none;" />
  <path
     id="path15"
     d="  M 121.19819,263.1755   L 109.21024,232.28654   L 113.64578,232.28654   L 121.67771,254.74397   C 122.31707,256.54216 122.8765,258.22048 123.2761,259.77891   C 123.75562,258.1006 124.31506,256.42229 124.95442,254.74397   L 133.30602,232.28654   L 137.46185,232.28654   L 125.39397,263.1755   z  M 139.73956,253.26546   L 143.61566,252.90582   C 143.7755,254.46425 144.21506,255.74297 144.89438,256.74196   C 145.53373,257.701 146.57269,258.5002 148.01124,259.13955   C 149.40984,259.73895 150.96827,260.05863 152.7265,260.05863   C 154.28494,260.05863 155.68353,259.81887 156.88233,259.33935   C 158.04116,258.8998 158.96024,258.26044 159.51968,257.42128   C 160.11907,256.62208 160.39879,255.74297 160.39879,254.78393   C 160.39879,253.8249 160.11907,252.98574 159.55964,252.26646   C 159.0002,251.54719 158.08112,250.90783 156.76245,250.42831   C 155.96325,250.10863 154.1251,249.62911 151.28795,248.90984   C 148.4508,248.23052 146.45281,247.59116 145.33393,246.99176   C 143.85542,246.23253 142.73654,245.27349 142.01727,244.11466   C 141.29799,242.99578 140.93835,241.6771 140.93835,240.27851   C 140.93835,238.72008 141.37791,237.24156 142.25703,235.92289   C 143.13614,234.56425 144.45482,233.5253 146.13313,232.80602   C 147.8514,232.1267 149.72952,231.76706 151.80743,231.76706   C 154.08514,231.76706 156.12309,232.1267 157.88132,232.88594   C 159.5996,233.60522 160.95823,234.68413 161.91727,236.12269   C 162.83634,237.56124 163.35582,239.19959 163.43574,240.99779   L 159.47972,241.27751   C 159.27992,239.31947 158.56064,237.88092 157.36185,236.88192   C 156.16305,235.88293 154.36486,235.36345 151.96727,235.36345   C 149.48976,235.36345 147.69156,235.80301 146.57269,236.72208   C 145.45381,237.64116 144.85442,238.72008 144.85442,239.99879   C 144.85442,241.11767 145.25401,242.03674 146.09317,242.75602   C 146.85241,243.4753 148.93032,244.19457 152.24699,244.95381   C 155.56365,245.71305 157.84136,246.35241 159.08012,246.91184   C 160.87831,247.751 162.19699,248.78996 163.0761,250.06867   C 163.91526,251.34739 164.35482,252.78594 164.35482,254.46425   C 164.35482,256.10261 163.8753,257.66104 162.91626,259.09959   C 161.99719,260.57811 160.63855,261.69698 158.88032,262.49618   C 157.12209,263.29538 155.12409,263.69498 152.9263,263.69498   C 150.12911,263.69498 147.77148,263.29538 145.89337,262.49618   C 144.01526,261.65702 142.53674,260.45823 141.45783,258.81988   C 140.37891,257.18152 139.81948,255.30341 139.73956,253.26546   z  M 177.78132,263.1755   L 177.78132,235.92289   L 167.59156,235.92289   L 167.59156,232.28654   L 192.08695,232.28654   L 192.08695,235.92289   L 181.85723,235.92289   L 181.85723,263.1755   z  M 195.04397,248.1506   C 195.04397,242.99578 196.44257,238.9998 199.15984,236.08273   C 201.91707,233.20562 205.47349,231.72711 209.82911,231.72711   C 212.70622,231.72711 215.26365,232.40642 217.54136,233.80502   C 219.85903,235.16365 221.57731,237.04176 222.7761,239.47931   C 223.9749,241.91686 224.57429,244.67409 224.57429,247.79096   C 224.57429,250.90783 223.9749,253.70502 222.69618,256.18253   C 221.41747,258.66004 219.61927,260.53815 217.3016,261.81686   C 214.98393,263.05562 212.50642,263.69498 209.82911,263.69498   C 206.91205,263.69498 204.31466,263.01566 202.03694,261.61706   C 199.71927,260.21847 198.001,258.3004 196.80221,255.86285   C 195.64337,253.4253 195.04397,250.86787 195.04397,248.1506   z  M 199.27972,248.19056   C 199.27972,251.90682 200.27871,254.86385 202.2767,256.98172   C 204.2747,259.13955 206.79217,260.21847 209.78915,260.21847   C 212.86606,260.21847 215.42349,259.13955 217.38152,256.98172   C 219.37951,254.82389 220.37851,251.74698 220.37851,247.751   C 220.37851,245.23353 219.93895,243.03574 219.0998,241.15763   C 218.26064,239.27951 217.02188,237.84096 215.38353,236.802   C 213.74518,235.76305 211.90703,235.24357 209.86907,235.24357   C 206.95201,235.24357 204.4745,236.24257 202.39658,238.24056   C 200.31867,240.23855 199.27972,243.55522 199.27972,248.19056   z  M 229.68915,263.1755   L 229.68915,232.28654   L 233.76506,232.28654   L 233.76506,259.53915   L 248.98976,259.53915   L 248.98976,263.1755   z "
     style="fill:#000000;fill-rule:evenodd;fill-opacity:1;stroke:none;" />
  <path
     id="path17"
     d="  M 121.19819,263.1755   L 109.21024,232.28654   L 113.64578,232.28654   L 121.67771,254.74397   C 122.31707,256.54216 122.8765,258.22048 123.2761,259.77891   C 123.75562,258.1006 124.31506,256.42229 124.95442,254.74397   L 133.30602,232.28654   L 137.46185,232.28654   L 125.39397,263.1755   z  M 139.73956,253.26546   L 143.61566,252.90582   C 143.7755,254.46425 144.21506,255.74297 144.89438,256.74196   C 145.53373,257.701 146.57269,258.5002 148.01124,259.13955   C 149.40984,259.73895 150.96827,260.05863 152.7265,260.05863   C 154.28494,260.05863 155.68353,259.81887 156.88233,259.33935   C 158.04116,258.8998 158.96024,258.26044 159.51968,257.42128   C 160.11907,256.62208 160.39879,255.74297 160.39879,254.78393   C 160.39879,253.8249 160.11907,252.98574 159.55964,252.26646   C 159.0002,251.54719 158.08112,250.90783 156.76245,250.42831   C 155.96325,250.10863 154.1251,249.62911 151.28795,248.90984   C 148.4508,248.23052 146.45281,247.59116 145.33393,246.99176   C 143.85542,246.23253 142.73654,245.27349 142.01727,244.11466   C 141.29799,242.99578 140.93835,241.6771 140.93835,240.27851   C 140.93835,238.72008 141.37791,237.24156 142.25703,235.92289   C 143.13614,234.56425 144.45482,233.5253 146.13313,232.80602   C 147.8514,232.1267 149.72952,231.76706 151.80743,231.76706   C 154.08514,231.76706 156.12309,232.1267 157.88132,232.88594   C 159.5996,233.60522 160.95823,234.68413 161.91727,236.12269   C 162.83634,237.56124 163.35582,239.19959 163.43574,240.99779   L 159.47972,241.27751   C 159.27992,239.31947 158.56064,237.88092 157.36185,236.88192   C 156.16305,235.88293 154.36486,235.36345 151.96727,235.36345   C 149.48976,235.36345 147.69156,235.80301 146.57269,236.72208   C 145.45381,237.64116 144.85442,238.72008 144.85442,239.99879   C 144.85442,241.11767 145.25401,242.03674 146.09317,242.75602   C 146.85241,243.4753 148.93032,244.19457 152.24699,244.95381   C 155.56365,245.71305 157.84136,246.35241 159.08012,246.91184   C 160.87831,247.751 162.19699,248.78996 163.0761,250.06867   C 163.91526,251.34739 164.35482,252.78594 164.35482,254.46425   C 164.35482,256.10261 163.8753,257.66104 162.91626,259.09959   C 161.99719,260.57811 160.63855,261.69698 158.88032,262.49618   C 157.12209,263.29538 155.12409,263.69498 152.9263,263.69498   C 150.12911,263.69498 147.77148,263.29538 145.89337,262.49618   C 144.01526,261.65702 142.53674,260.45823 141.45783,258.81988   C 140.37891,257.18152 139.81948,255.30341 139.73956,253.26546   z  M 177.78132,263.1755   L 177.78132,235.92289   L 167.59156,235.92289   L 167.59156,232.28654   L 192.08695,232.28654   L 192.08695,235.92289   L 181.85723,235.92289   L 181.85723,263.1755   z  M 195.04397,248.1506   C 195.04397,242.99578 196.44257,238.9998 199.15984,236.08273   C 201.91707,233.20562 205.47349,231.72711 209.82911,231.72711   C 212.70622,231.72711 215.26365,232.40642 217.54136,233.80502   C 219.85903,235.16365 221.57731,237.04176 222.7761,239.47931   C 223.9749,241.91686 224.57429,244.67409 224.57429,247.79096   C 224.57429,250.90783 223.9749,253.70502 222.69618,256.18253   C 221.41747,258.66004 219.61927,260.53815 217.3016,261.81686   C 214.98393,263.05562 212.50642,263.69498 209.82911,263.69498   C 206.91205,263.69498 204.31466,263.01566 202.03694,261.61706   C 199.71927,260.21847 198.001,258.3004 196.80221,255.86285   C 195.64337,253.4253 195.04397,250.86787 195.04397,248.1506   z  M 199.27972,248.19056   C 199.27972,251.90682 200.27871,254.86385 202.2767,256.98172   C 204.2747,259.13955 206.79217,260.21847 209.78915,260.21847   C 212.86606,260.21847 215.42349,259.13955 217.38152,256.98172   C 219.37951,254.82389 220.37851,251.74698 220.37851,247.751   C 220.37851,245.23353 219.93895,243.03574 219.0998,241.15763   C 218.26064,239.27951 217.02188,237.84096 215.38353,236.802   C 213.74518,235.76305 211.90703,235.24357 209.86907,235.24357   C 206.95201,235.24357 204.4745,236.24257 202.39658,238.24056   C 200.31867,240.23855 199.27972,243.55522 199.27972,248.19056   z  M 229.68915,263.1755   L 229.68915,232.28654   L 233.76506,232.28654   L 233.76506,259.53915   L 248.98976,259.53915   L 248.98976,263.1755   z "
     style="fill:none;stroke:#000000;stroke-width:0.95903611px;stroke-linecap:butt;stroke-linejoin:miter;stroke-miterlimit:10;stroke-dasharray:none;stroke-opacity:1;" />
</svg>
