<?xml version="1.0" encoding="UTF-8" standalone="no"?>
<svg
   xmlns:dc="http://purl.org/dc/elements/1.1/"
   xmlns:cc="http://creativecommons.org/ns#"
   xmlns:rdf="http://www.w3.org/1999/02/22-rdf-syntax-ns#"
   xmlns:svg="http://www.w3.org/2000/svg"
   xmlns="http://www.w3.org/2000/svg"
   id="svg19"
   height="112.9mm"
   width="112.9mm"
   version="1.0">
  <metadata
     id="metadata23">
    <rdf:RDF>
      <cc:Work
         rdf:about="">
        <dc:format>image/svg+xml</dc:format>
        <dc:type
           rdf:resource="http://purl.org/dc/dcmitype/StillImage" />
      </cc:Work>
    </rdf:RDF>
  </metadata>
  <defs
     id="defs3">
    <pattern
       y="0"
       x="0"
       height="6"
       width="6"
       patternUnits="userSpaceOnUse"
       id="EMFhbasepattern" />
  </defs>
  <path
     id="path5"
     d="  M 555.01114,736.47368   C 555.01114,754.30033 540.54587,768.72784 522.79476,768.72784   C 504.9681,768.72784 490.5406,754.30033 490.5406,736.47368   C 490.5406,718.6848 504.9681,704.21953 522.79476,704.21953   C 540.54587,704.21953 555.01114,718.6848 555.01114,736.47368   z "
     style="fill:#00e200;fill-rule:nonzero;fill-opacity:1;stroke:#00e200;stroke-width:1.58627px;stroke-linecap:butt;stroke-linejoin:miter;stroke-miterlimit:28;stroke-dasharray:none;stroke-opacity:1;" />
  <path
     id="path7"
     d="  M 524.04111,364.98436   C 514.82564,457.29017 518.52694,725.86078 364.09222,764.87547  "
     style="fill:none;stroke:#00e200;stroke-width:24.171732px;stroke-linecap:butt;stroke-linejoin:miter;stroke-miterlimit:28;stroke-dasharray:none;stroke-opacity:1;" />
  <path
     id="path9"
     d="  M 523.24798,364.30453   C 532.42568,456.61034 528.72439,725.21872 683.1591,764.23341  "
     style="fill:none;stroke:#00e200;stroke-width:24.171732px;stroke-linecap:butt;stroke-linejoin:miter;stroke-miterlimit:28;stroke-dasharray:none;stroke-opacity:1;" />
  <path
     id="path11"
     d="  M 410.24513,748.10633   C 489.33201,703.69077 520.33982,644.31895 522.1527,567.27155  "
     style="fill:none;stroke:#00e200;stroke-width:16.05154px;stroke-linecap:butt;stroke-linejoin:miter;stroke-miterlimit:28;stroke-dasharray:none;stroke-opacity:1;" />
  <path
     id="path13"
     d="  M 637.15727,748.10633   C 558.07038,703.69077 527.06258,644.31895 525.2497,567.27155  "
     style="fill:none;stroke:#00e200;stroke-width:16.05154px;stroke-linecap:butt;stroke-linejoin:miter;stroke-miterlimit:28;stroke-dasharray:none;stroke-opacity:1;" />
  <path
     id="path15"
     d="  M 502.62647,519.83453   L 522.30377,512.43193   L 587.83183,686.20403   L 568.15452,693.60662   L 502.62647,519.83453   z "
     style="fill:#00e200;fill-rule:nonzero;fill-opacity:1;stroke:#00e200;stroke-width:5.4008718px;stroke-linecap:butt;stroke-linejoin:miter;stroke-miterlimit:28;stroke-dasharray:none;stroke-opacity:1;" />
  <path
     id="path17"
     d="  M 545.90898,519.83453   L 526.23168,512.43193   L 460.70362,686.20403   L 480.34315,693.60662   L 545.90898,519.83453   z "
     style="fill:#00e200;fill-rule:nonzero;fill-opacity:1;stroke:#00e200;stroke-width:5.4008718px;stroke-linecap:butt;stroke-linejoin:miter;stroke-miterlimit:28;stroke-dasharray:none;stroke-opacity:1;" />
</svg>
