<?xml version="1.0" encoding="UTF-8" standalone="no"?>
<svg
   xmlns:dc="http://purl.org/dc/elements/1.1/"
   xmlns:cc="http://creativecommons.org/ns#"
   xmlns:rdf="http://www.w3.org/1999/02/22-rdf-syntax-ns#"
   xmlns:svg="http://www.w3.org/2000/svg"
   xmlns="http://www.w3.org/2000/svg"
   id="svg19"
   height="89.669998mm"
   width="120.11mm"
   version="1.0">
  <metadata
     id="metadata23">
    <rdf:RDF>
      <cc:Work
         rdf:about="">
        <dc:format>image/svg+xml</dc:format>
        <dc:type
           rdf:resource="http://purl.org/dc/dcmitype/StillImage" />
      </cc:Work>
    </rdf:RDF>
  </metadata>
  <defs
     id="defs3">
    <pattern
       y="0"
       x="0"
       height="6"
       width="6"
       patternUnits="userSpaceOnUse"
       id="EMFhbasepattern" />
  </defs>
  <path
     id="path5"
     d="  M 54.345381,54.345381   L 54.345381,284.51405   L 399.59839,284.51405   L 399.59839,54.345381   L 54.345381,54.345381   z "
     style="fill:#80e0ff;fill-rule:evenodd;fill-opacity:1;stroke:none;" />
  <path
     id="path7"
     d="  M 54.345381,54.345381   L 399.59839,54.345381   L 399.59839,284.51405   L 54.345381,284.51405   z "
     style="fill:none;stroke:#000000;stroke-width:9.5903616px;stroke-linecap:butt;stroke-linejoin:miter;stroke-miterlimit:10;stroke-dasharray:none;stroke-opacity:1;" />
  <path
     id="path9"
     d="  M 168.19096,99.939557   L 173.34578,99.499999   C 173.58554,101.53795 174.14498,103.25622 175.02409,104.5749   C 175.94317,105.89357 177.3018,106.93253 179.17992,107.77169   C 181.05803,108.57088 183.1759,108.97048 185.49357,108.97048   C 187.57148,108.97048 189.40964,108.69076 191.00803,108.0514   C 192.60642,107.45201 193.80522,106.57289 194.56446,105.53393   C 195.36365,104.45502 195.72329,103.25622 195.72329,101.97751   C 195.72329,100.69879 195.36365,99.579918 194.60441,98.620882   C 193.84518,97.621886 192.60642,96.822689 190.88815,96.183332   C 189.80923,95.743774 187.33172,95.064456 183.5755,94.14538   C 179.77931,93.266264 177.14197,92.387147 175.62349,91.58795   C 173.66546,90.548995 172.18695,89.27028 171.22791,87.751806   C 170.26887,86.233332 169.78935,84.515059 169.78935,82.636947   C 169.78935,80.559035 170.34879,78.601003 171.54759,76.80281   C 172.70642,75.004617 174.46466,73.606023 176.70241,72.686947   C 178.98012,71.727911 181.49759,71.288352 184.25482,71.288352   C 187.33172,71.288352 190.00903,71.76787 192.3267,72.766866   C 194.68433,73.725903 196.48253,75.164457 197.72128,77.082529   C 199,79.000601 199.63935,81.158433 199.75923,83.595983   L 194.5245,83.995581   C 194.24478,81.358232 193.28574,79.4002 191.68735,78.081525   C 190.04899,76.76285 187.6514,76.083533 184.49458,76.083533   C 181.17791,76.083533 178.78032,76.682931 177.3018,77.881726   C 175.78333,79.120481 175.02409,80.559035 175.02409,82.277308   C 175.02409,83.755822 175.54357,84.954617 176.62249,85.913653   C 177.66144,86.87269 180.41867,87.871685 184.85421,88.870681   C 189.28976,89.869677 192.3267,90.748794 193.96506,91.468071   C 196.36265,92.586946 198.12088,93.985541 199.27972,95.663854   C 200.39859,97.382127 200.99799,99.340159 200.99799,101.53795   C 200.99799,103.73574 200.35863,105.81365 199.11988,107.73173   C 197.84116,109.68976 196.04297,111.16827 193.68534,112.24719   C 191.32771,113.3261 188.69036,113.88554 185.77329,113.88554   C 182.01707,113.88554 178.9002,113.3261 176.38273,112.24719   C 173.86526,111.16827 171.90723,109.52992 170.46867,107.33213   C 169.03012,105.1743 168.27088,102.69679 168.19096,99.939557   z  M 206.79217,93.106424   C 206.79217,86.273292 208.63032,80.918674 212.26666,77.042569   C 215.94297,73.166465 220.69819,71.248393 226.49237,71.248393   C 230.28855,71.248393 233.7251,72.167469 236.76204,73.965662   C 239.83895,75.803814 242.15662,78.321284 243.75502,81.558031   C 245.35341,84.834738 246.15261,88.511043 246.15261,92.626906   C 246.15261,96.822689 245.31345,100.53895 243.63514,103.85562   C 241.95682,107.13233 239.55923,109.6498 236.48233,111.32811   C 233.36546,113.04638 230.04879,113.88554 226.45241,113.88554   C 222.5763,113.88554 219.13976,112.9265 216.06285,111.04839   C 213.0259,109.21024 210.70823,106.65281 209.1498,103.3761   C 207.5514,100.13936 206.79217,96.74277 206.79217,93.106424   z  M 212.38654,93.186344   C 212.38654,98.141364 213.74518,102.05743 216.38253,104.93454   C 219.05984,107.77169 222.41646,109.21024 226.45241,109.21024   C 230.52831,109.21024 233.9249,107.77169 236.56225,104.89458   C 239.23955,102.01747 240.55823,97.901605 240.55823,92.586946   C 240.55823,89.27028 239.99879,86.313252 238.83996,83.835742   C 237.72108,81.318272 236.04277,79.4002 233.88494,78.001605   C 231.68715,76.642971 229.2496,75.923694 226.53233,75.923694   C 222.65622,75.923694 219.33956,77.282328 216.58233,79.919678   C 213.78514,82.557027 212.38654,86.992569 212.38654,93.186344   z  M 253.46526,113.16626   L 253.46526,71.96767   L 281.27731,71.96767   L 281.27731,76.84277   L 258.93976,76.84277   L 258.93976,89.589959   L 278.24036,89.589959   L 278.24036,94.465059   L 258.93976,94.465059   L 258.93976,113.16626   z "
     style="fill:#000000;fill-rule:evenodd;fill-opacity:1;stroke:none;" />
  <path
     id="path11"
     d="  M 168.19096,99.939557   L 173.34578,99.499999   C 173.58554,101.53795 174.14498,103.25622 175.02409,104.5749   C 175.94317,105.89357 177.3018,106.93253 179.17992,107.77169   C 181.05803,108.57088 183.1759,108.97048 185.49357,108.97048   C 187.57148,108.97048 189.40964,108.69076 191.00803,108.0514   C 192.60642,107.45201 193.80522,106.57289 194.56446,105.53393   C 195.36365,104.45502 195.72329,103.25622 195.72329,101.97751   C 195.72329,100.69879 195.36365,99.579918 194.60441,98.620882   C 193.84518,97.621886 192.60642,96.822689 190.88815,96.183332   C 189.80923,95.743774 187.33172,95.064456 183.5755,94.14538   C 179.77931,93.266264 177.14197,92.387147 175.62349,91.58795   C 173.66546,90.548995 172.18695,89.27028 171.22791,87.751806   C 170.26887,86.233332 169.78935,84.515059 169.78935,82.636947   C 169.78935,80.559035 170.34879,78.601003 171.54759,76.80281   C 172.70642,75.004617 174.46466,73.606023 176.70241,72.686947   C 178.98012,71.727911 181.49759,71.288352 184.25482,71.288352   C 187.33172,71.288352 190.00903,71.76787 192.3267,72.766866   C 194.68433,73.725903 196.48253,75.164457 197.72128,77.082529   C 199,79.000601 199.63935,81.158433 199.75923,83.595983   L 194.5245,83.995581   C 194.24478,81.358232 193.28574,79.4002 191.68735,78.081525   C 190.04899,76.76285 187.6514,76.083533 184.49458,76.083533   C 181.17791,76.083533 178.78032,76.682931 177.3018,77.881726   C 175.78333,79.120481 175.02409,80.559035 175.02409,82.277308   C 175.02409,83.755822 175.54357,84.954617 176.62249,85.913653   C 177.66144,86.87269 180.41867,87.871685 184.85421,88.870681   C 189.28976,89.869677 192.3267,90.748794 193.96506,91.468071   C 196.36265,92.586946 198.12088,93.985541 199.27972,95.663854   C 200.39859,97.382127 200.99799,99.340159 200.99799,101.53795   C 200.99799,103.73574 200.35863,105.81365 199.11988,107.73173   C 197.84116,109.68976 196.04297,111.16827 193.68534,112.24719   C 191.32771,113.3261 188.69036,113.88554 185.77329,113.88554   C 182.01707,113.88554 178.9002,113.3261 176.38273,112.24719   C 173.86526,111.16827 171.90723,109.52992 170.46867,107.33213   C 169.03012,105.1743 168.27088,102.69679 168.19096,99.939557   z  M 206.79217,93.106424   C 206.79217,86.273292 208.63032,80.918674 212.26666,77.042569   C 215.94297,73.166465 220.69819,71.248393 226.49237,71.248393   C 230.28855,71.248393 233.7251,72.167469 236.76204,73.965662   C 239.83895,75.803814 242.15662,78.321284 243.75502,81.558031   C 245.35341,84.834738 246.15261,88.511043 246.15261,92.626906   C 246.15261,96.822689 245.31345,100.53895 243.63514,103.85562   C 241.95682,107.13233 239.55923,109.6498 236.48233,111.32811   C 233.36546,113.04638 230.04879,113.88554 226.45241,113.88554   C 222.5763,113.88554 219.13976,112.9265 216.06285,111.04839   C 213.0259,109.21024 210.70823,106.65281 209.1498,103.3761   C 207.5514,100.13936 206.79217,96.74277 206.79217,93.106424   z  M 212.38654,93.186344   C 212.38654,98.141364 213.74518,102.05743 216.38253,104.93454   C 219.05984,107.77169 222.41646,109.21024 226.45241,109.21024   C 230.52831,109.21024 233.9249,107.77169 236.56225,104.89458   C 239.23955,102.01747 240.55823,97.901605 240.55823,92.586946   C 240.55823,89.27028 239.99879,86.313252 238.83996,83.835742   C 237.72108,81.318272 236.04277,79.4002 233.88494,78.001605   C 231.68715,76.642971 229.2496,75.923694 226.53233,75.923694   C 222.65622,75.923694 219.33956,77.282328 216.58233,79.919678   C 213.78514,82.557027 212.38654,86.992569 212.38654,93.186344   z  M 253.46526,113.16626   L 253.46526,71.96767   L 281.27731,71.96767   L 281.27731,76.84277   L 258.93976,76.84277   L 258.93976,89.589959   L 278.24036,89.589959   L 278.24036,94.465059   L 258.93976,94.465059   L 258.93976,113.16626   z "
     style="fill:none;stroke:#000000;stroke-width:0.95903611px;stroke-linecap:butt;stroke-linejoin:miter;stroke-miterlimit:10;stroke-dasharray:none;stroke-opacity:1;" />
  <path
     id="path13"
     d="  M 226.97188,169.42972   L 174.2249,145.45381   C 121.47791,121.47791 121.47791,217.38152 174.2249,193.40562   L 226.97188,169.42972   L 279.71887,145.45381   C 332.46586,121.47791 332.46586,217.38152 279.71887,193.40562   L 226.97188,169.42972   z "
     style="fill:#000000;fill-rule:evenodd;fill-opacity:1;stroke:none;" />
  <path
     id="path15"
     d="  M 167.23193,251.66706   L 155.24397,220.77811   L 159.67952,220.77811   L 167.71144,243.23554   C 168.3508,245.03373 168.91024,246.71204 169.30984,248.27048   C 169.78935,246.59217 170.34879,244.91385 170.98815,243.23554   L 179.33976,220.77811   L 183.49558,220.77811   L 171.42771,251.66706   z  M 185.77329,241.75702   L 189.64939,241.39739   C 189.80923,242.95582 190.24879,244.23453 190.92811,245.23353   C 191.56747,246.19257 192.60642,246.99176 194.04498,247.63112   C 195.44357,248.23052 197.00201,248.5502 198.76024,248.5502   C 200.31867,248.5502 201.71727,248.31044 202.91606,247.83092   C 204.0749,247.39136 204.99397,246.752 205.55341,245.91285   C 206.15281,245.11365 206.43253,244.23453 206.43253,243.2755   C 206.43253,242.31646 206.15281,241.47731 205.59337,240.75803   C 205.03393,240.03875 204.11486,239.39939 202.79618,238.91988   C 201.99699,238.6002 200.15883,238.12068 197.32168,237.4014   C 194.48454,236.72208 192.48654,236.08273 191.36767,235.48333   C 189.88915,234.72409 188.77028,233.76506 188.051,232.60622   C 187.33172,231.48735 186.97209,230.16867 186.97209,228.77008   C 186.97209,227.21164 187.41164,225.73313 188.29076,224.41445   C 189.16988,223.05582 190.48855,222.01686 192.16686,221.29759   C 193.88514,220.61827 195.76325,220.25863 197.84116,220.25863   C 200.11887,220.25863 202.15682,220.61827 203.91506,221.37751   C 205.63333,222.09678 206.99196,223.1757 207.951,224.61425   C 208.87008,226.05281 209.38956,227.69116 209.46947,229.48935   L 205.51345,229.76907   C 205.31365,227.81104 204.59437,226.37249 203.39558,225.37349   C 202.19678,224.37449 200.39859,223.85502 198.001,223.85502   C 195.52349,223.85502 193.7253,224.29458 192.60642,225.21365   C 191.48755,226.13273 190.88815,227.21164 190.88815,228.49036   C 190.88815,229.60923 191.28775,230.52831 192.1269,231.24759   C 192.88614,231.96686 194.96405,232.68614 198.28072,233.44538   C 201.59739,234.20462 203.8751,234.84397 205.11385,235.40341   C 206.91205,236.24257 208.23072,237.28152 209.10984,238.56024   C 209.94899,239.83895 210.38855,241.27751 210.38855,242.95582   C 210.38855,244.59417 209.90903,246.15261 208.95,247.59116   C 208.03092,249.06968 206.67229,250.18855 204.91405,250.98775   C 203.15582,251.78694 201.15783,252.18654 198.96004,252.18654   C 196.16285,252.18654 193.80522,251.78694 191.92711,250.98775   C 190.04899,250.14859 188.57048,248.9498 187.49156,247.31144   C 186.41265,245.67309 185.85321,243.79498 185.77329,241.75702   z  M 223.81506,251.66706   L 223.81506,224.41445   L 213.6253,224.41445   L 213.6253,220.77811   L 238.12068,220.77811   L 238.12068,224.41445   L 227.89096,224.41445   L 227.89096,251.66706   z  M 241.07771,236.64217   C 241.07771,231.48735 242.4763,227.49136 245.19357,224.57429   C 247.9508,221.69719 251.50723,220.21867 255.86285,220.21867   C 258.73996,220.21867 261.29739,220.89799 263.5751,222.29658   C 265.89277,223.65522 267.61104,225.53333 268.80984,227.97088   C 270.00863,230.40843 270.60803,233.16566 270.60803,236.28253   C 270.60803,239.39939 270.00863,242.19658 268.72992,244.67409   C 267.4512,247.1516 265.65301,249.02972 263.33534,250.30843   C 261.01767,251.54719 258.54016,252.18654 255.86285,252.18654   C 252.94578,252.18654 250.34839,251.50723 248.07068,250.10863   C 245.75301,248.71004 244.03474,246.79196 242.83594,244.35441   C 241.6771,241.91686 241.07771,239.35943 241.07771,236.64217   z  M 245.31345,236.68213   C 245.31345,240.39839 246.31245,243.35542 248.31044,245.47329   C 250.30843,247.63112 252.8259,248.71004 255.82289,248.71004   C 258.8998,248.71004 261.45723,247.63112 263.41526,245.47329   C 265.41325,243.31546 266.41225,240.23855 266.41225,236.24257   C 266.41225,233.7251 265.97269,231.52731 265.13353,229.64919   C 264.29437,227.77108 263.05562,226.33253 261.41727,225.29357   C 259.77891,224.25462 257.94076,223.73514 255.90281,223.73514   C 252.98574,223.73514 250.50823,224.73413 248.43032,226.73213   C 246.35241,228.73012 245.31345,232.04678 245.31345,236.68213   z  M 275.72289,251.66706   L 275.72289,220.77811   L 279.79879,220.77811   L 279.79879,248.03072   L 295.02349,248.03072   L 295.02349,251.66706   z "
     style="fill:#000000;fill-rule:evenodd;fill-opacity:1;stroke:none;" />
  <path
     id="path17"
     d="  M 167.23193,251.66706   L 155.24397,220.77811   L 159.67952,220.77811   L 167.71144,243.23554   C 168.3508,245.03373 168.91024,246.71204 169.30984,248.27048   C 169.78935,246.59217 170.34879,244.91385 170.98815,243.23554   L 179.33976,220.77811   L 183.49558,220.77811   L 171.42771,251.66706   z  M 185.77329,241.75702   L 189.64939,241.39739   C 189.80923,242.95582 190.24879,244.23453 190.92811,245.23353   C 191.56747,246.19257 192.60642,246.99176 194.04498,247.63112   C 195.44357,248.23052 197.00201,248.5502 198.76024,248.5502   C 200.31867,248.5502 201.71727,248.31044 202.91606,247.83092   C 204.0749,247.39136 204.99397,246.752 205.55341,245.91285   C 206.15281,245.11365 206.43253,244.23453 206.43253,243.2755   C 206.43253,242.31646 206.15281,241.47731 205.59337,240.75803   C 205.03393,240.03875 204.11486,239.39939 202.79618,238.91988   C 201.99699,238.6002 200.15883,238.12068 197.32168,237.4014   C 194.48454,236.72208 192.48654,236.08273 191.36767,235.48333   C 189.88915,234.72409 188.77028,233.76506 188.051,232.60622   C 187.33172,231.48735 186.97209,230.16867 186.97209,228.77008   C 186.97209,227.21164 187.41164,225.73313 188.29076,224.41445   C 189.16988,223.05582 190.48855,222.01686 192.16686,221.29759   C 193.88514,220.61827 195.76325,220.25863 197.84116,220.25863   C 200.11887,220.25863 202.15682,220.61827 203.91506,221.37751   C 205.63333,222.09678 206.99196,223.1757 207.951,224.61425   C 208.87008,226.05281 209.38956,227.69116 209.46947,229.48935   L 205.51345,229.76907   C 205.31365,227.81104 204.59437,226.37249 203.39558,225.37349   C 202.19678,224.37449 200.39859,223.85502 198.001,223.85502   C 195.52349,223.85502 193.7253,224.29458 192.60642,225.21365   C 191.48755,226.13273 190.88815,227.21164 190.88815,228.49036   C 190.88815,229.60923 191.28775,230.52831 192.1269,231.24759   C 192.88614,231.96686 194.96405,232.68614 198.28072,233.44538   C 201.59739,234.20462 203.8751,234.84397 205.11385,235.40341   C 206.91205,236.24257 208.23072,237.28152 209.10984,238.56024   C 209.94899,239.83895 210.38855,241.27751 210.38855,242.95582   C 210.38855,244.59417 209.90903,246.15261 208.95,247.59116   C 208.03092,249.06968 206.67229,250.18855 204.91405,250.98775   C 203.15582,251.78694 201.15783,252.18654 198.96004,252.18654   C 196.16285,252.18654 193.80522,251.78694 191.92711,250.98775   C 190.04899,250.14859 188.57048,248.9498 187.49156,247.31144   C 186.41265,245.67309 185.85321,243.79498 185.77329,241.75702   z  M 223.81506,251.66706   L 223.81506,224.41445   L 213.6253,224.41445   L 213.6253,220.77811   L 238.12068,220.77811   L 238.12068,224.41445   L 227.89096,224.41445   L 227.89096,251.66706   z  M 241.07771,236.64217   C 241.07771,231.48735 242.4763,227.49136 245.19357,224.57429   C 247.9508,221.69719 251.50723,220.21867 255.86285,220.21867   C 258.73996,220.21867 261.29739,220.89799 263.5751,222.29658   C 265.89277,223.65522 267.61104,225.53333 268.80984,227.97088   C 270.00863,230.40843 270.60803,233.16566 270.60803,236.28253   C 270.60803,239.39939 270.00863,242.19658 268.72992,244.67409   C 267.4512,247.1516 265.65301,249.02972 263.33534,250.30843   C 261.01767,251.54719 258.54016,252.18654 255.86285,252.18654   C 252.94578,252.18654 250.34839,251.50723 248.07068,250.10863   C 245.75301,248.71004 244.03474,246.79196 242.83594,244.35441   C 241.6771,241.91686 241.07771,239.35943 241.07771,236.64217   z  M 245.31345,236.68213   C 245.31345,240.39839 246.31245,243.35542 248.31044,245.47329   C 250.30843,247.63112 252.8259,248.71004 255.82289,248.71004   C 258.8998,248.71004 261.45723,247.63112 263.41526,245.47329   C 265.41325,243.31546 266.41225,240.23855 266.41225,236.24257   C 266.41225,233.7251 265.97269,231.52731 265.13353,229.64919   C 264.29437,227.77108 263.05562,226.33253 261.41727,225.29357   C 259.77891,224.25462 257.94076,223.73514 255.90281,223.73514   C 252.98574,223.73514 250.50823,224.73413 248.43032,226.73213   C 246.35241,228.73012 245.31345,232.04678 245.31345,236.68213   z  M 275.72289,251.66706   L 275.72289,220.77811   L 279.79879,220.77811   L 279.79879,248.03072   L 295.02349,248.03072   L 295.02349,251.66706   z "
     style="fill:none;stroke:#000000;stroke-width:0.95903611px;stroke-linecap:butt;stroke-linejoin:miter;stroke-miterlimit:10;stroke-dasharray:none;stroke-opacity:1;" />
</svg>
