<?xml version="1.0" encoding="UTF-8" standalone="no"?>
<svg
   xmlns:dc="http://purl.org/dc/elements/1.1/"
   xmlns:cc="http://creativecommons.org/ns#"
   xmlns:rdf="http://www.w3.org/1999/02/22-rdf-syntax-ns#"
   xmlns:svg="http://www.w3.org/2000/svg"
   xmlns="http://www.w3.org/2000/svg"
   id="svg19"
   height="116.73mm"
   width="116.73mm"
   version="1.0">
  <metadata
     id="metadata23">
    <rdf:RDF>
      <cc:Work
         rdf:about="">
        <dc:format>image/svg+xml</dc:format>
        <dc:type
           rdf:resource="http://purl.org/dc/dcmitype/StillImage" />
      </cc:Work>
    </rdf:RDF>
  </metadata>
  <defs
     id="defs3">
    <pattern
       y="0"
       x="0"
       height="6"
       width="6"
       patternUnits="userSpaceOnUse"
       id="EMFhbasepattern" />
  </defs>
  <path
     id="path5"
     d="  M 220.57831,386.49156   L 220.57831,386.49156   L 386.49156,220.57831   L 220.57831,54.665059   L 54.665059,220.57831   L 220.57831,386.49156   z "
     style="fill:#ff8080;fill-rule:evenodd;fill-opacity:1;stroke:none;" />
  <path
     id="path7"
     d="  M 220.57831,386.49156   L 220.57831,386.49156   L 386.49156,220.57831   L 220.57831,54.665059   L 54.665059,220.57831   L 220.57831,386.49156  "
     style="fill:none;stroke:#000000;stroke-width:9.5903616px;stroke-linecap:butt;stroke-linejoin:miter;stroke-miterlimit:10;stroke-dasharray:none;stroke-opacity:1;" />
  <path
     id="path9"
     d="  M 161.79739,151.08815   L 166.95221,150.64859   C 167.19197,152.68654 167.7514,154.40482 168.63052,155.72349   C 169.5496,157.04217 170.90823,158.08112 172.78634,158.92028   C 174.66446,159.71948 176.78233,160.11907 179.1,160.11907   C 181.17791,160.11907 183.01606,159.83936 184.61446,159.2   C 186.21285,158.6006 187.41164,157.72148 188.17088,156.68253   C 188.97008,155.60361 189.32972,154.40482 189.32972,153.1261   C 189.32972,151.84739 188.97008,150.72851 188.21084,149.76948   C 187.4516,148.77048 186.21285,147.97128 184.49458,147.33193   C 183.41566,146.89237 180.93815,146.21305 177.18193,145.29397   C 173.38574,144.41486 170.74839,143.53574 169.22992,142.73654   C 167.27189,141.69759 165.79337,140.41887 164.83433,138.9004   C 163.8753,137.38193 163.39578,135.66365 163.39578,133.78554   C 163.39578,131.70763 163.95522,129.7496 165.15401,127.9514   C 166.31285,126.15321 168.07108,124.75462 170.30883,123.83554   C 172.58654,122.8765 175.10401,122.43695 177.86124,122.43695   C 180.93815,122.43695 183.61546,122.91646 185.93313,123.91546   C 188.29076,124.8745 190.08895,126.31305 191.32771,128.23112   C 192.60642,130.14919 193.24578,132.30703 193.36566,134.74458   L 188.13092,135.14417   C 187.8512,132.50683 186.89217,130.54879 185.29377,129.23012   C 183.65542,127.91144 181.25783,127.23213 178.101,127.23213   C 174.78433,127.23213 172.38674,127.83152 170.90823,129.03032   C 169.38976,130.26907 168.63052,131.70763 168.63052,133.4259   C 168.63052,134.90442 169.15,136.10321 170.22891,137.06225   C 171.26787,138.02128 174.0251,139.02028 178.46064,140.01928   C 182.89618,141.01827 185.93313,141.89739 187.57148,142.61666   C 189.96907,143.73554 191.72731,145.13413 192.88614,146.81245   C 194.00502,148.53072 194.60441,150.48875 194.60441,152.68654   C 194.60441,154.88434 193.96506,156.96225 192.7263,158.88032   C 191.44759,160.83835 189.64939,162.31687 187.29176,163.39578   C 184.93413,164.4747 182.29678,165.03413 179.37972,165.03413   C 175.62349,165.03413 172.50662,164.4747 169.98915,163.39578   C 167.47168,162.31687 165.51365,160.67851 164.0751,158.48072   C 162.63654,156.32289 161.87731,153.84538 161.79739,151.08815   z  M 200.39859,144.25502   C 200.39859,137.42189 202.23674,132.06727 205.87309,128.19116   C 209.54939,124.31506 214.30462,122.39699 220.09879,122.39699   C 223.89498,122.39699 227.33152,123.31606 230.36847,125.11426   C 233.44538,126.95241 235.76305,129.46988 237.36144,132.70662   C 238.95984,135.98333 239.75903,139.65964 239.75903,143.7755   C 239.75903,147.97128 238.91988,151.68755 237.24156,155.00421   C 235.56325,158.28092 233.16566,160.79839 230.08875,162.4767   C 226.97188,164.19498 223.65522,165.03413 220.05883,165.03413   C 216.18273,165.03413 212.74618,164.0751 209.66927,162.19699   C 206.63233,160.35883 204.31466,157.8014 202.75622,154.5247   C 201.15783,151.28795 200.39859,147.89136 200.39859,144.25502   z  M 205.99297,144.33494   C 205.99297,149.28996 207.3516,153.20602 209.98895,156.08313   C 212.66626,158.92028 216.02289,160.35883 220.05883,160.35883   C 224.13474,160.35883 227.53132,158.92028 230.16867,156.04317   C 232.84598,153.16606 234.16466,149.0502 234.16466,143.73554   C 234.16466,140.41887 233.60522,137.46185 232.44638,134.98434   C 231.32751,132.46687 229.64919,130.54879 227.49136,129.1502   C 225.29357,127.79156 222.85602,127.07229 220.13875,127.07229   C 216.26265,127.07229 212.94598,128.43092 210.18875,131.06827   C 207.39156,133.70562 205.99297,138.14116 205.99297,144.33494   z  M 247.07168,164.31486   L 247.07168,123.11626   L 274.88373,123.11626   L 274.88373,127.99136   L 252.54618,127.99136   L 252.54618,140.73855   L 271.84678,140.73855   L 271.84678,145.61365   L 252.54618,145.61365   L 252.54618,164.31486   z "
     style="fill:#000000;fill-rule:evenodd;fill-opacity:1;stroke:none;" />
  <path
     id="path11"
     d="  M 161.79739,151.08815   L 166.95221,150.64859   C 167.19197,152.68654 167.7514,154.40482 168.63052,155.72349   C 169.5496,157.04217 170.90823,158.08112 172.78634,158.92028   C 174.66446,159.71948 176.78233,160.11907 179.1,160.11907   C 181.17791,160.11907 183.01606,159.83936 184.61446,159.2   C 186.21285,158.6006 187.41164,157.72148 188.17088,156.68253   C 188.97008,155.60361 189.32972,154.40482 189.32972,153.1261   C 189.32972,151.84739 188.97008,150.72851 188.21084,149.76948   C 187.4516,148.77048 186.21285,147.97128 184.49458,147.33193   C 183.41566,146.89237 180.93815,146.21305 177.18193,145.29397   C 173.38574,144.41486 170.74839,143.53574 169.22992,142.73654   C 167.27189,141.69759 165.79337,140.41887 164.83433,138.9004   C 163.8753,137.38193 163.39578,135.66365 163.39578,133.78554   C 163.39578,131.70763 163.95522,129.7496 165.15401,127.9514   C 166.31285,126.15321 168.07108,124.75462 170.30883,123.83554   C 172.58654,122.8765 175.10401,122.43695 177.86124,122.43695   C 180.93815,122.43695 183.61546,122.91646 185.93313,123.91546   C 188.29076,124.8745 190.08895,126.31305 191.32771,128.23112   C 192.60642,130.14919 193.24578,132.30703 193.36566,134.74458   L 188.13092,135.14417   C 187.8512,132.50683 186.89217,130.54879 185.29377,129.23012   C 183.65542,127.91144 181.25783,127.23213 178.101,127.23213   C 174.78433,127.23213 172.38674,127.83152 170.90823,129.03032   C 169.38976,130.26907 168.63052,131.70763 168.63052,133.4259   C 168.63052,134.90442 169.15,136.10321 170.22891,137.06225   C 171.26787,138.02128 174.0251,139.02028 178.46064,140.01928   C 182.89618,141.01827 185.93313,141.89739 187.57148,142.61666   C 189.96907,143.73554 191.72731,145.13413 192.88614,146.81245   C 194.00502,148.53072 194.60441,150.48875 194.60441,152.68654   C 194.60441,154.88434 193.96506,156.96225 192.7263,158.88032   C 191.44759,160.83835 189.64939,162.31687 187.29176,163.39578   C 184.93413,164.4747 182.29678,165.03413 179.37972,165.03413   C 175.62349,165.03413 172.50662,164.4747 169.98915,163.39578   C 167.47168,162.31687 165.51365,160.67851 164.0751,158.48072   C 162.63654,156.32289 161.87731,153.84538 161.79739,151.08815   z  M 200.39859,144.25502   C 200.39859,137.42189 202.23674,132.06727 205.87309,128.19116   C 209.54939,124.31506 214.30462,122.39699 220.09879,122.39699   C 223.89498,122.39699 227.33152,123.31606 230.36847,125.11426   C 233.44538,126.95241 235.76305,129.46988 237.36144,132.70662   C 238.95984,135.98333 239.75903,139.65964 239.75903,143.7755   C 239.75903,147.97128 238.91988,151.68755 237.24156,155.00421   C 235.56325,158.28092 233.16566,160.79839 230.08875,162.4767   C 226.97188,164.19498 223.65522,165.03413 220.05883,165.03413   C 216.18273,165.03413 212.74618,164.0751 209.66927,162.19699   C 206.63233,160.35883 204.31466,157.8014 202.75622,154.5247   C 201.15783,151.28795 200.39859,147.89136 200.39859,144.25502   z  M 205.99297,144.33494   C 205.99297,149.28996 207.3516,153.20602 209.98895,156.08313   C 212.66626,158.92028 216.02289,160.35883 220.05883,160.35883   C 224.13474,160.35883 227.53132,158.92028 230.16867,156.04317   C 232.84598,153.16606 234.16466,149.0502 234.16466,143.73554   C 234.16466,140.41887 233.60522,137.46185 232.44638,134.98434   C 231.32751,132.46687 229.64919,130.54879 227.49136,129.1502   C 225.29357,127.79156 222.85602,127.07229 220.13875,127.07229   C 216.26265,127.07229 212.94598,128.43092 210.18875,131.06827   C 207.39156,133.70562 205.99297,138.14116 205.99297,144.33494   z  M 247.07168,164.31486   L 247.07168,123.11626   L 274.88373,123.11626   L 274.88373,127.99136   L 252.54618,127.99136   L 252.54618,140.73855   L 271.84678,140.73855   L 271.84678,145.61365   L 252.54618,145.61365   L 252.54618,164.31486   z "
     style="fill:none;stroke:#000000;stroke-width:0.95903611px;stroke-linecap:butt;stroke-linejoin:miter;stroke-miterlimit:10;stroke-dasharray:none;stroke-opacity:1;" />
  <path
     id="path13"
     d="  M 220.57831,220.57831   L 167.83132,196.60241   C 115.08434,172.6265 115.08434,268.53012 167.83132,244.55421   L 220.57831,220.57831   L 273.3253,196.60241   C 326.07228,172.6265 326.07228,268.53012 273.3253,244.55421   L 220.57831,220.57831   z "
     style="fill:#000000;fill-rule:evenodd;fill-opacity:1;stroke:none;" />
  <path
     id="path15"
     d="  M 160.83835,302.81566   L 148.8504,271.9267   L 153.28594,271.9267   L 161.31787,294.38413   C 161.95723,296.18233 162.51666,297.86064 162.91626,299.41907   C 163.39578,297.74076 163.95522,296.06245 164.59458,294.38413   L 172.94618,271.9267   L 177.10201,271.9267   L 165.03413,302.81566   z  M 179.37972,292.90562   L 183.25582,292.54598   C 183.41566,294.10441 183.85522,295.38313 184.53454,296.38212   C 185.17389,297.34116 186.21285,298.14036 187.6514,298.77971   C 189.05,299.37911 190.60843,299.69879 192.36666,299.69879   C 193.9251,299.69879 195.32369,299.45903 196.52249,298.97951   C 197.68132,298.53996 198.6004,297.9006 199.15984,297.06144   C 199.75923,296.26224 200.03895,295.38313 200.03895,294.42409   C 200.03895,293.46506 199.75923,292.6259 199.1998,291.90662   C 198.64036,291.18735 197.72128,290.54799 196.40261,290.06847   C 195.60341,289.74879 193.76526,289.26927 190.92811,288.55   C 188.09096,287.87068 186.09297,287.23132 184.97409,286.63192   C 183.49558,285.87269 182.3767,284.91365 181.65743,283.75482   C 180.93815,282.63594 180.57851,281.31727 180.57851,279.91867   C 180.57851,278.36024 181.01807,276.88172 181.89719,275.56305   C 182.7763,274.20441 184.09498,273.16546 185.77329,272.44618   C 187.49156,271.76686 189.36968,271.40722 191.44759,271.40722   C 193.7253,271.40722 195.76325,271.76686 197.52148,272.5261   C 199.23976,273.24538 200.59839,274.32429 201.55743,275.76285   C 202.4765,277.2014 202.99598,278.83976 203.0759,280.63795   L 199.11988,280.91767   C 198.92008,278.95963 198.2008,277.52108 197.00201,276.52208   C 195.80321,275.52309 194.00502,275.00361 191.60743,275.00361   C 189.12992,275.00361 187.33172,275.44317 186.21285,276.36225   C 185.09397,277.28132 184.49458,278.36024 184.49458,279.63895   C 184.49458,280.75783 184.89417,281.6769 185.73333,282.39618   C 186.49257,283.11546 188.57048,283.83473 191.88715,284.59397   C 195.20381,285.35321 197.48152,285.99257 198.72028,286.552   C 200.51847,287.39116 201.83715,288.43012 202.71626,289.70883   C 203.55542,290.98755 203.99498,292.4261 203.99498,294.10441   C 203.99498,295.74277 203.51546,297.3012 202.55642,298.73975   C 201.63735,300.21827 200.27871,301.33714 198.52048,302.13634   C 196.76225,302.93554 194.76425,303.33514 192.56646,303.33514   C 189.76927,303.33514 187.41164,302.93554 185.53353,302.13634   C 183.65542,301.29718 182.1769,300.09839 181.09799,298.46004   C 180.01907,296.82168 179.45964,294.94357 179.37972,292.90562   z  M 217.42148,302.81566   L 217.42148,275.56305   L 207.23172,275.56305   L 207.23172,271.9267   L 231.72711,271.9267   L 231.72711,275.56305   L 221.49739,275.56305   L 221.49739,302.81566   z  M 234.68413,287.79076   C 234.68413,282.63594 236.08273,278.63996 238.8,275.72289   C 241.55723,272.84578 245.11365,271.36727 249.46927,271.36727   C 252.34638,271.36727 254.90381,272.04658 257.18152,273.44518   C 259.49919,274.80381 261.21747,276.68192 262.41626,279.11947   C 263.61506,281.55702 264.21445,284.31425 264.21445,287.43112   C 264.21445,290.54799 263.61506,293.34518 262.33634,295.82269   C 261.05763,298.3002 259.25943,300.17831 256.94176,301.45702   C 254.62409,302.69578 252.14658,303.33514 249.46927,303.33514   C 246.55221,303.33514 243.95482,302.65582 241.6771,301.25722   C 239.35943,299.85863 237.64116,297.94056 236.44237,295.50301   C 235.28353,293.06546 234.68413,290.50803 234.68413,287.79076   z  M 238.91988,287.83072   C 238.91988,291.54698 239.91887,294.50401 241.91686,296.62188   C 243.91486,298.77971 246.43233,299.85863 249.42931,299.85863   C 252.50622,299.85863 255.06365,298.77971 257.02168,296.62188   C 259.01967,294.46405 260.01867,291.38714 260.01867,287.39116   C 260.01867,284.87369 259.57911,282.6759 258.73996,280.79779   C 257.9008,278.91967 256.66204,277.48112 255.02369,276.44216   C 253.38534,275.40321 251.54719,274.88373 249.50923,274.88373   C 246.59217,274.88373 244.11466,275.88273 242.03674,277.88072   C 239.95883,279.87871 238.91988,283.19538 238.91988,287.83072   z  M 269.32931,302.81566   L 269.32931,271.9267   L 273.40522,271.9267   L 273.40522,299.17931   L 288.62992,299.17931   L 288.62992,302.81566   z "
     style="fill:#000000;fill-rule:evenodd;fill-opacity:1;stroke:none;" />
  <path
     id="path17"
     d="  M 160.83835,302.81566   L 148.8504,271.9267   L 153.28594,271.9267   L 161.31787,294.38413   C 161.95723,296.18233 162.51666,297.86064 162.91626,299.41907   C 163.39578,297.74076 163.95522,296.06245 164.59458,294.38413   L 172.94618,271.9267   L 177.10201,271.9267   L 165.03413,302.81566   z  M 179.37972,292.90562   L 183.25582,292.54598   C 183.41566,294.10441 183.85522,295.38313 184.53454,296.38212   C 185.17389,297.34116 186.21285,298.14036 187.6514,298.77971   C 189.05,299.37911 190.60843,299.69879 192.36666,299.69879   C 193.9251,299.69879 195.32369,299.45903 196.52249,298.97951   C 197.68132,298.53996 198.6004,297.9006 199.15984,297.06144   C 199.75923,296.26224 200.03895,295.38313 200.03895,294.42409   C 200.03895,293.46506 199.75923,292.6259 199.1998,291.90662   C 198.64036,291.18735 197.72128,290.54799 196.40261,290.06847   C 195.60341,289.74879 193.76526,289.26927 190.92811,288.55   C 188.09096,287.87068 186.09297,287.23132 184.97409,286.63192   C 183.49558,285.87269 182.3767,284.91365 181.65743,283.75482   C 180.93815,282.63594 180.57851,281.31727 180.57851,279.91867   C 180.57851,278.36024 181.01807,276.88172 181.89719,275.56305   C 182.7763,274.20441 184.09498,273.16546 185.77329,272.44618   C 187.49156,271.76686 189.36968,271.40722 191.44759,271.40722   C 193.7253,271.40722 195.76325,271.76686 197.52148,272.5261   C 199.23976,273.24538 200.59839,274.32429 201.55743,275.76285   C 202.4765,277.2014 202.99598,278.83976 203.0759,280.63795   L 199.11988,280.91767   C 198.92008,278.95963 198.2008,277.52108 197.00201,276.52208   C 195.80321,275.52309 194.00502,275.00361 191.60743,275.00361   C 189.12992,275.00361 187.33172,275.44317 186.21285,276.36225   C 185.09397,277.28132 184.49458,278.36024 184.49458,279.63895   C 184.49458,280.75783 184.89417,281.6769 185.73333,282.39618   C 186.49257,283.11546 188.57048,283.83473 191.88715,284.59397   C 195.20381,285.35321 197.48152,285.99257 198.72028,286.552   C 200.51847,287.39116 201.83715,288.43012 202.71626,289.70883   C 203.55542,290.98755 203.99498,292.4261 203.99498,294.10441   C 203.99498,295.74277 203.51546,297.3012 202.55642,298.73975   C 201.63735,300.21827 200.27871,301.33714 198.52048,302.13634   C 196.76225,302.93554 194.76425,303.33514 192.56646,303.33514   C 189.76927,303.33514 187.41164,302.93554 185.53353,302.13634   C 183.65542,301.29718 182.1769,300.09839 181.09799,298.46004   C 180.01907,296.82168 179.45964,294.94357 179.37972,292.90562   z  M 217.42148,302.81566   L 217.42148,275.56305   L 207.23172,275.56305   L 207.23172,271.9267   L 231.72711,271.9267   L 231.72711,275.56305   L 221.49739,275.56305   L 221.49739,302.81566   z  M 234.68413,287.79076   C 234.68413,282.63594 236.08273,278.63996 238.8,275.72289   C 241.55723,272.84578 245.11365,271.36727 249.46927,271.36727   C 252.34638,271.36727 254.90381,272.04658 257.18152,273.44518   C 259.49919,274.80381 261.21747,276.68192 262.41626,279.11947   C 263.61506,281.55702 264.21445,284.31425 264.21445,287.43112   C 264.21445,290.54799 263.61506,293.34518 262.33634,295.82269   C 261.05763,298.3002 259.25943,300.17831 256.94176,301.45702   C 254.62409,302.69578 252.14658,303.33514 249.46927,303.33514   C 246.55221,303.33514 243.95482,302.65582 241.6771,301.25722   C 239.35943,299.85863 237.64116,297.94056 236.44237,295.50301   C 235.28353,293.06546 234.68413,290.50803 234.68413,287.79076   z  M 238.91988,287.83072   C 238.91988,291.54698 239.91887,294.50401 241.91686,296.62188   C 243.91486,298.77971 246.43233,299.85863 249.42931,299.85863   C 252.50622,299.85863 255.06365,298.77971 257.02168,296.62188   C 259.01967,294.46405 260.01867,291.38714 260.01867,287.39116   C 260.01867,284.87369 259.57911,282.6759 258.73996,280.79779   C 257.9008,278.91967 256.66204,277.48112 255.02369,276.44216   C 253.38534,275.40321 251.54719,274.88373 249.50923,274.88373   C 246.59217,274.88373 244.11466,275.88273 242.03674,277.88072   C 239.95883,279.87871 238.91988,283.19538 238.91988,287.83072   z  M 269.32931,302.81566   L 269.32931,271.9267   L 273.40522,271.9267   L 273.40522,299.17931   L 288.62992,299.17931   L 288.62992,302.81566   z "
     style="fill:none;stroke:#000000;stroke-width:0.95903611px;stroke-linecap:butt;stroke-linejoin:miter;stroke-miterlimit:10;stroke-dasharray:none;stroke-opacity:1;" />
</svg>
