<?xml version="1.0" encoding="UTF-8" standalone="no"?>
<svg
   xmlns:dc="http://purl.org/dc/elements/1.1/"
   xmlns:cc="http://creativecommons.org/ns#"
   xmlns:rdf="http://www.w3.org/1999/02/22-rdf-syntax-ns#"
   xmlns:svg="http://www.w3.org/2000/svg"
   xmlns="http://www.w3.org/2000/svg"
   id="svg17"
   height="107.94mm"
   width="95.75mm"
   version="1.0">
  <metadata
     id="metadata21">
    <rdf:RDF>
      <cc:Work
         rdf:about="">
        <dc:format>image/svg+xml</dc:format>
        <dc:type
           rdf:resource="http://purl.org/dc/dcmitype/StillImage" />
      </cc:Work>
    </rdf:RDF>
  </metadata>
  <defs
     id="defs3">
    <pattern
       y="0"
       x="0"
       height="6"
       width="6"
       patternUnits="userSpaceOnUse"
       id="EMFhbasepattern" />
  </defs>
  <path
     id="path5"
     d="  M 54.345381,353.56465   L 54.345381,171.34779   L 180.93815,54.345381   L 307.53092,171.34779   L 307.53092,353.56465   z "
     style="fill:#ff8080;fill-rule:evenodd;fill-opacity:1;stroke:none;" />
  <path
     id="path7"
     d="  M 54.345381,353.56465   L 54.345381,171.34779   L 180.93815,54.345381   L 307.53092,171.34779   L 307.53092,353.56465  "
     style="fill:none;stroke:#000000;stroke-width:9.5903616px;stroke-linecap:butt;stroke-linejoin:miter;stroke-miterlimit:10;stroke-dasharray:none;stroke-opacity:1;" />
  <path
     id="path9"
     d="  M 180.93815,128.19116   L 180.93815,128.19116   L 195.32369,152.16707   L 195.32369,291.22731   L 209.70923,305.61285   L 209.70923,334.38393   L 180.93815,305.61285   L 152.16707,334.38393   L 152.16707,305.61285   L 166.55261,291.22731   L 166.55261,152.16707   L 180.93815,128.19116   z "
     style="fill:#ffff80;fill-rule:evenodd;fill-opacity:1;stroke:none;" />
  <path
     id="path11"
     d="  M 180.93815,128.19116   L 180.93815,128.19116   L 195.32369,152.16707   L 195.32369,291.22731   L 209.70923,305.61285   L 209.70923,334.38393   L 180.93815,305.61285   L 152.16707,334.38393   L 152.16707,305.61285   L 166.55261,291.22731   L 166.55261,152.16707   L 180.93815,128.19116  "
     style="fill:none;stroke:#000000;stroke-width:9.5903616px;stroke-linecap:butt;stroke-linejoin:miter;stroke-miterlimit:10;stroke-dasharray:none;stroke-opacity:1;" />
  <path
     id="path13"
     d="  M 97.142368,261.01767   L 97.142368,199.23976   L 120.31907,199.23976   C 125.03434,199.23976 128.83052,199.83915 131.66767,201.11787   C 134.50482,202.35662 136.74257,204.2747 138.38092,206.87209   C 139.97932,209.46947 140.77851,212.18674 140.77851,215.02389   C 140.77851,217.66124 140.05923,220.17871 138.66064,222.49638   C 137.22209,224.81405 135.06426,226.69217 132.14719,228.13072   C 135.90341,229.2496 138.78052,231.08775 140.77851,233.76506   C 142.7765,236.40241 143.7755,239.51927 143.7755,243.11566   C 143.7755,245.99277 143.1761,248.67008 141.93735,251.18755   C 140.73855,253.66506 139.22008,255.58313 137.42189,256.94176   C 135.62369,258.26044 133.38594,259.29939 130.66867,259.97871   C 127.9514,260.65803 124.63474,261.01767 120.67871,261.01767   z  M 105.29418,225.17369   L 118.68072,225.17369   C 122.27711,225.17369 124.8745,224.93393 126.47289,224.45441   C 128.5508,223.85502 130.10924,222.81606 131.14819,221.41747   C 132.22711,219.97891 132.74658,218.18072 132.74658,215.98293   C 132.74658,213.94498 132.26707,212.14678 131.26807,210.58835   C 130.26907,209.02992 128.87048,207.951 127.03233,207.39156   C 125.23413,206.79217 122.07731,206.51245 117.64177,206.51245   L 105.29418,206.51245   z  M 105.29418,253.70502   L 120.67871,253.70502   C 123.31606,253.70502 125.19417,253.6251 126.23313,253.4253   C 128.1512,253.10562 129.70964,252.54618 130.98835,251.74698   C 132.22711,250.94779 133.26606,249.82891 134.10522,248.31044   C 134.90442,246.79196 135.30401,245.07369 135.30401,243.11566   C 135.30401,240.79799 134.70462,238.8 133.54578,237.08172   C 132.34699,235.40341 130.70863,234.20462 128.63072,233.5253   C 126.55281,232.84598 123.51586,232.48634 119.5998,232.48634   L 105.29418,232.48634   z "
     style="fill:#000000;fill-rule:evenodd;fill-opacity:1;stroke:none;" />
  <path
     id="path15"
     d="  M 224.77409,261.01767   L 224.77409,199.23976   L 237.08172,199.23976   L 251.70702,242.95582   C 253.0257,247.03172 254.0247,250.10863 254.66405,252.10662   C 255.34337,249.86887 256.46225,246.55221 257.94076,242.19658   L 272.7259,199.23976   L 283.71486,199.23976   L 283.71486,261.01767   L 275.84277,261.01767   L 275.84277,209.30964   L 257.9008,261.01767   L 250.50823,261.01767   L 232.64618,208.43052   L 232.64618,261.01767   z "
     style="fill:#000000;fill-rule:evenodd;fill-opacity:1;stroke:none;" />
</svg>
