<?xml version="1.0" encoding="UTF-8" standalone="no"?>
<svg
   xmlns:dc="http://purl.org/dc/elements/1.1/"
   xmlns:cc="http://creativecommons.org/ns#"
   xmlns:rdf="http://www.w3.org/1999/02/22-rdf-syntax-ns#"
   xmlns:svg="http://www.w3.org/2000/svg"
   xmlns="http://www.w3.org/2000/svg"
   id="svg17"
   height="101.85mm"
   width="95.75mm"
   version="1.0">
  <metadata
     id="metadata21">
    <rdf:RDF>
      <cc:Work
         rdf:about="">
        <dc:format>image/svg+xml</dc:format>
        <dc:type
           rdf:resource="http://purl.org/dc/dcmitype/StillImage" />
      </cc:Work>
    </rdf:RDF>
  </metadata>
  <defs
     id="defs3">
    <pattern
       y="0"
       x="0"
       height="6"
       width="6"
       patternUnits="userSpaceOnUse"
       id="EMFhbasepattern" />
  </defs>
  <path
     id="path5"
     d="  M 54.345381,54.345381   L 54.345381,330.54779   L 307.53092,330.54779   L 307.53092,54.345381   L 54.345381,54.345381   z "
     style="fill:#aaffaa;fill-rule:evenodd;fill-opacity:1;stroke:none;" />
  <path
     id="path7"
     d="  M 54.345381,330.54779   L 54.345381,54.345381   L 307.53092,54.345381   L 307.53092,330.54779  "
     style="fill:none;stroke:#000000;stroke-width:9.5903616px;stroke-linecap:butt;stroke-linejoin:miter;stroke-miterlimit:10;stroke-dasharray:none;stroke-opacity:1;" />
  <path
     id="path9"
     d="  M 180.93815,105.1743   L 180.93815,105.1743   L 195.32369,129.1502   L 195.32369,268.21044   L 209.70923,282.59598   L 209.70923,311.36706   L 180.93815,282.59598   L 152.16707,311.36706   L 152.16707,282.59598   L 166.55261,268.21044   L 166.55261,129.1502   L 180.93815,105.1743   z "
     style="fill:#ffff80;fill-rule:evenodd;fill-opacity:1;stroke:none;" />
  <path
     id="path11"
     d="  M 180.93815,105.1743   L 180.93815,105.1743   L 195.32369,129.1502   L 195.32369,268.21044   L 209.70923,282.59598   L 209.70923,311.36706   L 180.93815,282.59598   L 152.16707,311.36706   L 152.16707,282.59598   L 166.55261,268.21044   L 166.55261,129.1502   L 180.93815,105.1743  "
     style="fill:none;stroke:#000000;stroke-width:9.5903616px;stroke-linecap:butt;stroke-linejoin:miter;stroke-miterlimit:10;stroke-dasharray:none;stroke-opacity:1;" />
  <path
     id="path13"
     d="  M 97.142368,238.0008   L 97.142368,176.22289   L 120.31907,176.22289   C 125.03434,176.22289 128.83052,176.82229 131.66767,178.101   C 134.50482,179.33976 136.74257,181.25783 138.38092,183.85522   C 139.97932,186.45261 140.77851,189.16988 140.77851,192.00703   C 140.77851,194.64437 140.05923,197.16184 138.66064,199.47952   C 137.22209,201.79719 135.06426,203.6753 132.14719,205.11385   C 135.90341,206.23273 138.78052,208.07088 140.77851,210.74819   C 142.7765,213.38554 143.7755,216.50241 143.7755,220.09879   C 143.7755,222.9759 143.1761,225.65321 141.93735,228.17068   C 140.73855,230.64819 139.22008,232.56626 137.42189,233.9249   C 135.62369,235.24357 133.38594,236.28253 130.66867,236.96184   C 127.9514,237.64116 124.63474,238.0008 120.67871,238.0008   z  M 105.29418,202.15682   L 118.68072,202.15682   C 122.27711,202.15682 124.8745,201.91707 126.47289,201.43755   C 128.5508,200.83815 130.10924,199.79919 131.14819,198.4006   C 132.22711,196.96205 132.74658,195.16385 132.74658,192.96606   C 132.74658,190.92811 132.26707,189.12992 131.26807,187.57148   C 130.26907,186.01305 128.87048,184.93413 127.03233,184.3747   C 125.23413,183.7753 122.07731,183.49558 117.64177,183.49558   L 105.29418,183.49558   z  M 105.29418,230.68815   L 120.67871,230.68815   C 123.31606,230.68815 125.19417,230.60823 126.23313,230.40843   C 128.1512,230.08875 129.70964,229.52931 130.98835,228.73012   C 132.22711,227.93092 133.26606,226.81204 134.10522,225.29357   C 134.90442,223.7751 135.30401,222.05682 135.30401,220.09879   C 135.30401,217.78112 134.70462,215.78313 133.54578,214.06486   C 132.34699,212.38654 130.70863,211.18775 128.63072,210.50843   C 126.55281,209.82911 123.51586,209.46947 119.5998,209.46947   L 105.29418,209.46947   z "
     style="fill:#000000;fill-rule:evenodd;fill-opacity:1;stroke:none;" />
  <path
     id="path15"
     d="  M 224.77409,238.0008   L 224.77409,176.22289   L 237.08172,176.22289   L 251.70702,219.93895   C 253.0257,224.01486 254.0247,227.09176 254.66405,229.08976   C 255.34337,226.852 256.46225,223.53534 257.94076,219.17972   L 272.7259,176.22289   L 283.71486,176.22289   L 283.71486,238.0008   L 275.84277,238.0008   L 275.84277,186.29277   L 257.9008,238.0008   L 250.50823,238.0008   L 232.64618,185.41365   L 232.64618,238.0008   z "
     style="fill:#000000;fill-rule:evenodd;fill-opacity:1;stroke:none;" />
</svg>
