<?xml version="1.0" encoding="UTF-8" standalone="no"?>
<svg
   xmlns:dc="http://purl.org/dc/elements/1.1/"
   xmlns:cc="http://creativecommons.org/ns#"
   xmlns:rdf="http://www.w3.org/1999/02/22-rdf-syntax-ns#"
   xmlns:svg="http://www.w3.org/2000/svg"
   xmlns="http://www.w3.org/2000/svg"
   id="svg17"
   height="130.27mm"
   width="130.27mm"
   version="1.0">
  <metadata
     id="metadata21">
    <rdf:RDF>
      <cc:Work
         rdf:about="">
        <dc:format>image/svg+xml</dc:format>
        <dc:type
           rdf:resource="http://purl.org/dc/dcmitype/StillImage" />
      </cc:Work>
    </rdf:RDF>
  </metadata>
  <defs
     id="defs3">
    <pattern
       y="0"
       x="0"
       height="6"
       width="6"
       patternUnits="userSpaceOnUse"
       id="EMFhbasepattern" />
  </defs>
  <path
     id="path5"
     d="  M 198.2008,63.935742   L 198.2008,111.88755   L 294.10441,111.88755   L 294.10441,63.935742   L 198.2008,63.935742   z "
     style="fill:#000000;fill-rule:evenodd;fill-opacity:1;stroke:none;" />
  <path
     id="path7"
     d="  M 164.63454,327.67068   C 164.63454,437.95983 327.67068,437.95983 327.67068,327.67068   C 437.95983,327.67068 437.95983,164.63454 327.67068,164.63454   C 327.67068,54.345381 164.63454,54.345381 164.63454,164.63454   C 54.345381,164.63454 54.345381,327.67068 164.63454,327.67068   z "
     style="fill:#ffff80;fill-rule:evenodd;fill-opacity:1;stroke:none;" />
  <path
     id="path9"
     d="  M 164.63454,327.67068   C 164.63454,437.95983 327.67068,437.95983 327.67068,327.67068   C 437.95983,327.67068 437.95983,164.63454 327.67068,164.63454   C 327.67068,54.345381 164.63454,54.345381 164.63454,164.63454   C 54.345381,164.63454 54.345381,327.67068 164.63454,327.67068  "
     style="fill:none;stroke:#000000;stroke-width:9.5903616px;stroke-linecap:butt;stroke-linejoin:miter;stroke-miterlimit:10;stroke-dasharray:none;stroke-opacity:1;" />
  <path
     id="path11"
     d="  M 153.1261,238.64016   L 147.69156,238.68012   L 146.33293,243.55522   L 152.48674,243.55522   L 152.48674,248.78996   L 147.69156,248.82992   L 146.33293,253.74498   L 152.48674,253.74498   C 153.56566,258.3004 153.80542,263.05562 154.96425,267.651   C 156.08313,272.04658 158.08112,275.56305 159.99919,279.23935   C 163.0761,285.19337 171.58755,291.70682 180.57851,291.70682   L 183.9751,291.70682   C 190.12891,291.70682 196.80221,288.78975 199.95903,285.75281   C 202.55642,283.2753 208.7502,276.8018 209.54939,273.24538   L 208.03092,272.24638   C 206.71225,273.16546 202.35662,279.23935 200.11887,281.27731   C 197.88112,283.31526 192.08695,286.15241 187.97108,286.15241   L 183.65542,286.15241   C 171.34779,286.15241 164.83433,267.0516 164.83433,253.74498   L 197.24176,253.74498   C 198.4006,253.74498 199.15984,249.90883 199.3996,248.78996   L 164.83433,248.78996   L 164.83433,243.55522   L 200.31867,243.55522   C 201.67731,243.55522 201.99699,239.63915 202.4765,238.64016   L 165.15401,238.64016   C 165.39377,238.08072 166.83233,229.56927 167.19197,228.01084   C 167.91124,224.81405 169.42972,221.13775 170.70843,218.58032   C 173.10602,213.74518 178.38072,207.47148 185.53353,207.47148   L 189.20984,207.47148   C 199.03996,207.47148 205.55341,217.22168 205.55341,227.21164   L 208.03092,227.21164   L 208.03092,209.30964   C 208.03092,207.19176 193.44558,203.43554 189.52952,203.43554   L 184.5745,203.43554   C 175.26385,203.43554 166.87229,209.54939 162.75642,214.94397   C 159.12008,219.73915 153.28594,230.72811 153.1261,238.64016   z "
     style="fill:#000000;fill-rule:evenodd;fill-opacity:1;stroke:none;" />
  <path
     id="path13"
     d="  M 283.95461,282.11646   C 283.95461,279.67891 286.27229,277.8008 288.86967,277.8008   L 290.42811,277.8008   C 292.6259,277.8008 293.30522,278.95963 295.06345,279.35923   C 294.14437,283.31526 292.58594,287.99056 287.63092,287.99056   L 287.3512,287.99056   C 285.59297,287.99056 283.95461,285.95261 283.95461,284.27429   z  M 304.29417,221.01787   C 304.29417,214.54437 307.97048,207.1518 314.20421,207.1518   L 316.36204,207.1518   C 326.91144,207.1518 320.79759,221.01787 327.47088,221.01787   L 328.66967,221.01787   C 330.78755,221.01787 333.0253,218.46044 333.0253,216.10281   L 333.0253,215.18373   C 333.0253,209.46947 325.55281,203.43554 319.43895,203.43554   L 316.64176,203.43554   C 302.5759,203.43554 294.14437,215.94297 294.14437,230.28855   L 294.14437,236.16265   L 282.39618,236.16265   L 282.39618,242.31646   L 294.42409,242.31646   L 295.06345,248.19056   L 282.39618,248.19056   L 282.39618,254.34437   L 295.34317,254.34437   L 296.10241,266.37229   L 295.98253,274.40421   L 292.58594,274.04457   L 289.50903,274.12449   C 284.75381,274.12449 280.23835,278.32028 280.23835,283.0755   C 280.23835,287.83072 282.63594,291.70682 287.3512,291.70682   L 288.58996,291.70682   C 292.90562,291.70682 298.26024,285.31325 299.05943,281.83674   C 300.01847,282.0765 306.05241,286.79176 307.57088,287.79076   C 310.12831,289.50903 314.12429,291.70682 318.2002,291.70682   L 321.59678,291.70682   C 329.86847,291.70682 337.62068,279.79879 337.62068,271.00763   C 336.38192,270.92771 336.94136,270.72791 335.78253,270.72791   C 335.06325,270.72791 333.46485,280.59799 323.75461,280.59799   L 320.67771,280.59799   C 316.92148,280.59799 304.45401,276.92168 301.85662,275.64297   C 303.1753,269.96867 305.53293,264.49417 305.53293,257.46124   L 305.53293,254.34437   L 321.91646,254.34437   L 321.91646,248.19056   L 305.53293,248.19056   L 305.53293,245.71305   L 305.21325,242.31646   L 321.91646,242.31646   L 321.91646,236.16265   L 304.93353,236.16265   L 304.17429,223.21566   L 304.29417,221.01787   z "
     style="fill:#000000;fill-rule:evenodd;fill-opacity:1;stroke:none;" />
  <path
     id="path15"
     d="  M 245.39337,254.06465   C 246.59217,254.38433 253.38534,259.77891 254.54417,260.89779   C 257.66104,263.89478 259.21947,265.93273 259.97871,271.28735   C 261.01767,279.15943 253.18554,287.51104 245.39337,287.67088   z  M 241.35743,237.08172   C 236.802,234.68413 229.48935,228.29056 229.00984,221.93694   C 228.41044,213.66526 233.1257,207.7512 241.35743,207.7512   z  M 245.39337,207.47148   C 247.11164,208.27068 250.70803,208.23072 253.14558,209.54939   C 255.22349,210.70823 257.34136,211.82711 258.66004,213.6253   C 262.7759,219.2996 261.85682,220.41847 263.5751,227.81104   L 266.05261,227.81104   L 266.05261,209.62931   C 266.05261,207.39156 249.58915,203.75522 245.39337,203.75522   L 245.39337,197.28172   L 241.35743,197.28172   L 241.35743,203.75522   C 230.24859,203.75522 219.13976,212.46646 219.13976,223.81506   L 219.13976,225.65321   C 219.13976,232.24658 223.69518,238.24056 227.41144,241.15763   C 229.92891,243.11566 238.68012,250.26847 241.35743,250.94779   L 241.35743,287.67088   C 235.84297,287.67088 229.88895,285.03353 227.09176,282.23634   C 225.57329,280.71787 224.13474,278.32028 223.29558,276.16245   C 222.81606,274.96365 222.25662,268.8498 221.01787,268.8498   L 218.82008,268.8498   L 218.82008,287.07148   C 220.41847,287.19136 226.37249,289.54899 228.96988,290.22831   C 231.9269,290.94759 236.64217,291.70682 240.43835,291.70682   L 241.35743,291.70682   L 241.35743,299.41907   L 245.39337,299.41907   L 245.39337,291.70682   C 258.26044,291.70682 270.04859,281.6769 270.04859,268.57008   C 270.04859,260.33835 265.25341,254.90381 260.53815,251.22751   C 255.46325,247.23152 250.78795,243.4753 245.39337,239.83895   L 245.39337,207.47148   z "
     style="fill:#000000;fill-rule:evenodd;fill-opacity:1;stroke:none;" />
</svg>
