<?xml version="1.0" encoding="UTF-8" standalone="no"?>
<svg
   xmlns:dc="http://purl.org/dc/elements/1.1/"
   xmlns:cc="http://creativecommons.org/ns#"
   xmlns:rdf="http://www.w3.org/1999/02/22-rdf-syntax-ns#"
   xmlns:svg="http://www.w3.org/2000/svg"
   xmlns="http://www.w3.org/2000/svg"
   id="svg17"
   height="95.75mm"
   width="95.75mm"
   version="1.0">
  <metadata
     id="metadata21">
    <rdf:RDF>
      <cc:Work
         rdf:about="">
        <dc:format>image/svg+xml</dc:format>
        <dc:type
           rdf:resource="http://purl.org/dc/dcmitype/StillImage" />
      </cc:Work>
    </rdf:RDF>
  </metadata>
  <defs
     id="defs3">
    <pattern
       y="0"
       x="0"
       height="6"
       width="6"
       patternUnits="userSpaceOnUse"
       id="EMFhbasepattern" />
  </defs>
  <path
     id="path5"
     d="  M 132.98634,15.983936   L 132.98634,54.345381   L 228.88996,54.345381   L 228.88996,15.983936   L 132.98634,15.983936   z "
     style="fill:#000000;fill-rule:evenodd;fill-opacity:1;stroke:none;" />
  <path
     id="path7"
     d="  M 54.345381,54.345381   L 54.345381,307.53092   L 307.53092,307.53092   L 307.53092,54.345381   L 54.345381,54.345381   z "
     style="fill:#aaffaa;fill-rule:evenodd;fill-opacity:1;stroke:none;" />
  <path
     id="path9"
     d="  M 54.345381,54.345381   L 307.53092,54.345381   L 307.53092,307.53092   L 54.345381,307.53092   z "
     style="fill:none;stroke:#000000;stroke-width:9.5903616px;stroke-linecap:butt;stroke-linejoin:miter;stroke-miterlimit:10;stroke-dasharray:none;stroke-opacity:1;" />
  <path
     id="path11"
     d="  M 87.911645,173.4257   L 82.477107,173.46566   L 81.118473,178.34076   L 87.272288,178.34076   L 87.272288,183.5755   L 82.477107,183.61546   L 81.118473,188.53052   L 87.272288,188.53052   C 88.351204,193.08594 88.590963,197.84116 89.749798,202.43654   C 90.868673,206.83213 92.866665,210.34859 94.784738,214.0249   C 97.861645,219.97891 106.37309,226.49237 115.36405,226.49237   L 118.76064,226.49237   C 124.91446,226.49237 131.58775,223.5753 134.74458,220.53835   C 137.34197,218.06084 143.53574,211.58735 144.33494,208.03092   L 142.81646,207.03192   C 141.49779,207.951 137.14217,214.0249 134.90442,216.06285   C 132.66666,218.1008 126.87249,220.93795 122.75662,220.93795   L 118.44096,220.93795   C 106.13333,220.93795 99.619878,201.83715 99.619878,188.53052   L 132.02731,188.53052   C 133.18614,188.53052 133.94538,184.69437 134.18514,183.5755   L 99.619878,183.5755   L 99.619878,178.34076   L 135.10421,178.34076   C 136.46285,178.34076 136.78253,174.4247 137.26205,173.4257   L 99.939557,173.4257   C 100.17932,172.86626 101.61787,164.35482 101.97751,162.79638   C 102.69679,159.5996 104.21526,155.92329 105.49397,153.36586   C 107.89156,148.53072 113.16626,142.25703 120.31907,142.25703   L 123.99538,142.25703   C 133.8255,142.25703 140.33895,152.00723 140.33895,161.99719   L 142.81646,161.99719   L 142.81646,144.09518   C 142.81646,141.97731 128.23112,138.22108 124.31506,138.22108   L 119.36004,138.22108   C 110.0494,138.22108 101.65783,144.33494 97.541966,149.72952   C 93.905621,154.5247 88.071485,165.51365 87.911645,173.4257   z "
     style="fill:#000000;fill-rule:evenodd;fill-opacity:1;stroke:none;" />
  <path
     id="path13"
     d="  M 218.74016,216.902   C 218.74016,214.46445 221.05783,212.58634 223.65522,212.58634   L 225.21365,212.58634   C 227.41144,212.58634 228.09076,213.74518 229.84899,214.14478   C 228.92992,218.1008 227.37148,222.7761 222.41646,222.7761   L 222.13674,222.7761   C 220.37851,222.7761 218.74016,220.73815 218.74016,219.05984   z  M 239.07972,155.80341   C 239.07972,149.32992 242.75602,141.93735 248.98976,141.93735   L 251.14759,141.93735   C 261.69698,141.93735 255.58313,155.80341 262.25642,155.80341   L 263.45522,155.80341   C 265.57309,155.80341 267.81084,153.24598 267.81084,150.88835   L 267.81084,149.96927   C 267.81084,144.25502 260.33835,138.22108 254.22449,138.22108   L 251.42731,138.22108   C 237.36144,138.22108 228.92992,150.72851 228.92992,165.07409   L 228.92992,170.94819   L 217.18172,170.94819   L 217.18172,177.10201   L 229.20964,177.10201   L 229.84899,182.9761   L 217.18172,182.9761   L 217.18172,189.12992   L 230.12871,189.12992   L 230.88795,201.15783   L 230.76807,209.18976   L 227.37148,208.83012   L 224.29458,208.91004   C 219.53935,208.91004 215.02389,213.10582 215.02389,217.86104   C 215.02389,222.61626 217.42148,226.49237 222.13674,226.49237   L 223.3755,226.49237   C 227.69116,226.49237 233.04578,220.09879 233.84498,216.62229   C 234.80401,216.86205 240.83795,221.57731 242.35642,222.5763   C 244.91385,224.29458 248.90984,226.49237 252.98574,226.49237   L 256.38233,226.49237   C 264.65401,226.49237 272.40622,214.58433 272.40622,205.79317   C 271.16747,205.71325 271.7269,205.51345 270.56807,205.51345   C 269.84879,205.51345 268.2504,215.38353 258.54016,215.38353   L 255.46325,215.38353   C 251.70702,215.38353 239.23955,211.70723 236.64217,210.42851   C 237.96084,204.75421 240.31847,199.27972 240.31847,192.24678   L 240.31847,189.12992   L 256.702,189.12992   L 256.702,182.9761   L 240.31847,182.9761   L 240.31847,180.49859   L 239.99879,177.10201   L 256.702,177.10201   L 256.702,170.94819   L 239.71907,170.94819   L 238.95984,158.0012   L 239.07972,155.80341   z "
     style="fill:#000000;fill-rule:evenodd;fill-opacity:1;stroke:none;" />
  <path
     id="path15"
     d="  M 180.17891,188.8502   C 181.37771,189.16988 188.17088,194.56446 189.32972,195.68333   C 192.44658,198.68032 194.00502,200.71827 194.76425,206.07289   C 195.80321,213.94498 187.97108,222.29658 180.17891,222.45642   z  M 176.14297,171.86727   C 171.58755,169.46968 164.2749,163.0761 163.79538,156.72249   C 163.19598,148.4508 167.91124,142.53674 176.14297,142.53674   z  M 180.17891,142.25703   C 181.89719,143.05622 185.49357,143.01626 187.93112,144.33494   C 190.00903,145.49377 192.1269,146.61265 193.44558,148.41084   C 197.56144,154.08514 196.64237,155.20401 198.36064,162.59658   L 200.83815,162.59658   L 200.83815,144.41486   C 200.83815,142.17711 184.3747,138.54076 180.17891,138.54076   L 180.17891,132.06727   L 176.14297,132.06727   L 176.14297,138.54076   C 165.03413,138.54076 153.9253,147.25201 153.9253,158.6006   L 153.9253,160.43875   C 153.9253,167.03213 158.48072,173.0261 162.19699,175.94317   C 164.71446,177.9012 173.46566,185.05401 176.14297,185.73333   L 176.14297,222.45642   C 170.62851,222.45642 164.6745,219.81907 161.87731,217.02188   C 160.35883,215.50341 158.92028,213.10582 158.08112,210.94799   C 157.6016,209.74919 157.04217,203.63534 155.80341,203.63534   L 153.60562,203.63534   L 153.60562,221.85702   C 155.20401,221.9769 161.15803,224.33453 163.75542,225.01385   C 166.71245,225.73313 171.42771,226.49237 175.22389,226.49237   L 176.14297,226.49237   L 176.14297,234.20462   L 180.17891,234.20462   L 180.17891,226.49237   C 193.04598,226.49237 204.83413,216.46245 204.83413,203.35562   C 204.83413,195.12389 200.03895,189.68935 195.32369,186.01305   C 190.24879,182.01707 185.57349,178.26084 180.17891,174.6245   L 180.17891,142.25703   z "
     style="fill:#000000;fill-rule:evenodd;fill-opacity:1;stroke:none;" />
</svg>
