<?xml version="1.0" encoding="UTF-8" standalone="no"?>
<svg
   xmlns:dc="http://purl.org/dc/elements/1.1/"
   xmlns:cc="http://creativecommons.org/ns#"
   xmlns:rdf="http://www.w3.org/1999/02/22-rdf-syntax-ns#"
   xmlns:svg="http://www.w3.org/2000/svg"
   xmlns="http://www.w3.org/2000/svg"
   id="svg23"
   height="130.27mm"
   width="130.27mm"
   version="1.0">
  <metadata
     id="metadata27">
    <rdf:RDF>
      <cc:Work
         rdf:about="">
        <dc:format>image/svg+xml</dc:format>
        <dc:type
           rdf:resource="http://purl.org/dc/dcmitype/StillImage" />
      </cc:Work>
    </rdf:RDF>
  </metadata>
  <defs
     id="defs3">
    <pattern
       y="0"
       x="0"
       height="6"
       width="6"
       patternUnits="userSpaceOnUse"
       id="EMFhbasepattern" />
  </defs>
  <path
     id="path5"
     d="  M 198.2008,63.935742   L 198.2008,111.88755   L 294.10441,111.88755   L 294.10441,63.935742   L 198.2008,63.935742   z "
     style="fill:#000000;fill-rule:evenodd;fill-opacity:1;stroke:none;" />
  <path
     id="path7"
     d="  M 164.63454,327.67068   C 164.63454,437.95983 327.67068,437.95983 327.67068,327.67068   C 437.95983,327.67068 437.95983,164.63454 327.67068,164.63454   C 327.67068,54.345381 164.63454,54.345381 164.63454,164.63454   C 54.345381,164.63454 54.345381,327.67068 164.63454,327.67068   z "
     style="fill:#ffff80;fill-rule:evenodd;fill-opacity:1;stroke:none;" />
  <path
     id="path9"
     d="  M 164.63454,327.67068   C 164.63454,437.95983 327.67068,437.95983 327.67068,327.67068   C 437.95983,327.67068 437.95983,164.63454 327.67068,164.63454   C 327.67068,54.345381 164.63454,54.345381 164.63454,164.63454   C 54.345381,164.63454 54.345381,327.67068 164.63454,327.67068  "
     style="fill:none;stroke:#000000;stroke-width:9.5903616px;stroke-linecap:butt;stroke-linejoin:miter;stroke-miterlimit:10;stroke-dasharray:none;stroke-opacity:1;" />
  <path
     id="path11"
     d="  M 185.05401,268.61004   L 185.05401,262.81586   C 185.05401,257.5012 191.16787,245.07369 192.56646,240.27851   C 194.36466,233.88494 200.07891,226.01285 203.91506,221.09779   C 212.4265,210.18875 224.37449,199.59939 243.55522,199.59939   L 254.06465,199.59939   C 262.33634,199.59939 275.24337,209.94899 279.03955,215.18373   C 282.15642,219.37951 284.35421,222.5763 287.1514,227.09176   C 288.23032,228.81004 293.58494,239.47931 293.58494,241.19759   L 293.58494,242.79598   L 294.62389,242.79598   L 294.62389,244.35441   C 294.62389,245.43333 296.74176,247.9508 296.66184,251.78694   L 297.78072,253.30542   C 297.78072,258.26044 300.37811,269.52911 300.97751,274.92369   C 301.81666,282.63594 304.09437,288.39016 299.37911,295.46305   C 299.37911,301.21726 286.99156,316.402 284.55401,316.402   L 262.49618,312.84558   C 258.14056,312.1263 246.23253,317.6008 240.35843,317.6008   C 235.52329,317.6008 226.97188,313.36506 222.45642,313.36506   C 218.58032,313.36506 214.74417,316.52188 209.30964,316.52188   L 207.71124,316.52188   C 203.11586,316.52188 193.44558,301.7767 190.84819,298.1004   C 186.53253,291.98654 185.05401,278.87971 185.05401,268.61004   z  M 258.7,194.24478   L 244.0747,191.68735   C 242.31646,191.40763 231.60723,194.24478 230.28855,194.88413   L 215.14377,167.31184   L 219.2996,168.51064   L 219.37951,161.47771   L 240.75803,169.5496   L 241.51727,161.03815   L 249.30943,166.87229   L 263.01566,160.59859   L 263.09558,166.75241   L 280.99759,163.2759   L 258.7,194.24478   z  M 286.91164,159.67952   L 265.09357,163.51566   L 265.13353,156.92229   C 262.9757,158.04116 251.46727,163.75542 249.34939,163.75542   C 249.18955,163.75542 241.23755,157.64156 239.83895,156.92229   L 238.2006,166.39277   L 217.26164,157.76144   L 217.18172,164.83433   L 209.86907,162.51666   L 229.36947,198.76024   L 228.77008,199.03996   C 217.62128,201.63735 204.15482,215.26365 198.32068,223.93494   C 196.44257,226.69217 195.28373,230.20863 193.40562,232.68614   C 190.12891,237.04176 191.24779,238.56024 189.2498,242.23654   C 187.8512,244.91385 182.41666,259.37931 182.41666,262.81586   L 182.41666,271.76686   C 182.41666,274.24437 184.09498,285.51305 184.73433,287.87068   C 185.65341,291.06747 185.49357,292.46606 186.57249,295.54297   C 187.29176,297.7008 188.69036,299.33915 189.88915,301.13735   C 193.1259,305.97249 201.47751,319.15923 208.23072,319.15923   C 214.2247,319.15923 218.46044,316.00241 221.93694,316.00241   C 227.4514,316.00241 234.40441,320.23815 239.31947,320.23815   L 240.91787,320.23815   C 245.83293,320.23815 254.54417,316.8016 260.17851,315.76265   C 264.41425,314.96345 274.24437,318.12028 280.39819,318.12028   L 284.63393,318.12028   C 288.62992,318.12028 296.18233,308.09036 298.46004,305.09337   C 300.97751,301.81666 301.45702,299.85863 302.53594,295.46305   C 302.81566,294.38413 305.17329,285.11345 305.17329,284.91365   C 305.17329,277.68092 303.05542,275.08353 302.5759,270.68795   C 301.89658,264.93373 301.69678,260.97771 300.93755,255.98273   C 300.29819,251.8269 294.18433,235.32349 292.30622,231.44739   C 286.51204,219.61927 273.88473,199.79919 258.81988,198.56044   z "
     style="fill:#000000;fill-rule:evenodd;fill-opacity:1;stroke:none;" />
  <path
     id="path13"
     d="  M 280.99759,163.2759   L 263.09558,166.75241   L 263.01566,160.59859   L 249.30943,166.87229   L 241.51727,161.03815   L 240.75803,169.5496   L 219.37951,161.47771   L 219.2996,168.51064   L 215.14377,167.31184   L 230.28855,194.88413   C 231.60723,194.24478 242.31646,191.40763 244.0747,191.68735   L 258.7,194.24478   L 280.99759,163.2759   z "
     style="fill:#ffffff;fill-rule:evenodd;fill-opacity:1;stroke:none;" />
  <path
     id="path15"
     d="  M 245.63313,254.90381   C 254.26445,256.9018 267.2514,261.09759 267.2514,271.24739   L 267.2514,275.44317   C 267.2514,286.7518 257.3014,294.94357 245.63313,294.94357   L 245.63313,304.41405   L 240.91787,304.41405   L 240.91787,294.94357   C 236.00281,294.94357 230.88795,293.14538 227.81104,291.14739   C 223.05582,288.03052 223.65522,285.39317 220.93795,281.23735   L 220.33855,272.80582   L 228.2506,272.80582   C 228.2506,281.19739 232.60622,287.39116 240.91787,287.551   L 240.91787,262.25642   C 237.76104,262.01666 230.96787,259.09959 228.6502,257.66104   C 226.29257,256.14257 221.41747,250.46827 221.41747,247.51124   L 221.41747,241.19759   C 221.41747,232.76606 231.56727,224.53433 240.91787,224.33453   L 240.91787,218.54036   L 245.63313,218.54036   L 245.63313,224.33453   C 256.22249,226.81204 265.13353,230.00883 265.13353,242.79598   L 256.702,242.79598   L 256.702,240.67811   C 256.702,236.16265 250.82791,232.24658 245.63313,232.24658   z  M 185.05401,268.61004   C 185.05401,278.87971 186.53253,291.98654 190.84819,298.1004   C 193.44558,301.7767 203.11586,316.52188 207.71124,316.52188   L 209.30964,316.52188   C 214.74417,316.52188 218.58032,313.36506 222.45642,313.36506   C 226.97188,313.36506 235.52329,317.6008 240.35843,317.6008   C 246.23253,317.6008 258.14056,312.1263 262.49618,312.84558   L 284.55401,316.402   C 286.99156,316.402 299.37911,301.21726 299.37911,295.46305   C 304.09437,288.39016 301.81666,282.63594 300.97751,274.92369   C 300.37811,269.52911 297.78072,258.26044 297.78072,253.30542   L 296.66184,251.78694   C 296.74176,247.9508 294.62389,245.43333 294.62389,244.35441   L 294.62389,242.79598   L 293.58494,242.79598   L 293.58494,241.19759   C 293.58494,239.47931 288.23032,228.81004 287.1514,227.09176   C 284.35421,222.5763 282.15642,219.37951 279.03955,215.18373   C 275.24337,209.94899 262.33634,199.59939 254.06465,199.59939   L 243.55522,199.59939   C 224.37449,199.59939 212.4265,210.18875 203.91506,221.09779   C 200.07891,226.01285 194.36466,233.88494 192.56646,240.27851   C 191.16787,245.07369 185.05401,257.5012 185.05401,262.81586   z "
     style="fill:#ffffff;fill-rule:evenodd;fill-opacity:1;stroke:none;" />
  <path
     id="path17"
     d="  M 229.84899,242.79598   L 229.84899,244.87389   C 229.84899,250.06867 236.44237,252.8259 240.91787,253.86486   L 240.91787,232.24658   L 239.31947,232.24658   C 233.84498,232.24658 229.84899,237.2016 229.84899,242.79598   z "
     style="fill:#ffffff;fill-rule:evenodd;fill-opacity:1;stroke:none;" />
  <path
     id="path19"
     d="  M 245.63313,287.551   C 253.2255,287.551 258.3004,283.39518 258.3004,275.96265   L 258.3004,274.40421   C 258.3004,268.41024 251.46727,263.97469 245.63313,263.85482   z "
     style="fill:#ffffff;fill-rule:evenodd;fill-opacity:1;stroke:none;" />
  <path
     id="path21"
     d="  M 245.63313,263.85482   C 251.46727,263.97469 258.3004,268.4502 258.3004,274.40421   L 258.3004,275.96265   C 258.3004,283.39518 253.2255,287.551 245.63313,287.551   z  M 229.84899,242.79598   C 229.84899,237.2016 233.84498,232.24658 239.31947,232.24658   L 240.91787,232.24658   L 240.91787,253.86486   C 236.44237,252.8259 229.84899,250.06867 229.84899,244.87389   z  M 245.63313,232.24658   C 250.82791,232.24658 256.702,236.16265 256.702,240.67811   L 256.702,242.79598   L 265.13353,242.79598   C 265.13353,230.00883 256.22249,226.81204 245.63313,224.33453   L 245.63313,218.54036   L 240.91787,218.54036   L 240.91787,224.33453   C 231.56727,224.53433 221.41747,232.76606 221.41747,241.19759   L 221.41747,247.51124   C 221.41747,250.46827 226.29257,256.14257 228.6502,257.66104   C 230.96787,259.09959 237.76104,262.01666 240.91787,262.25642   L 240.91787,287.551   C 232.60622,287.39116 228.2506,281.19739 228.2506,272.80582   L 220.33855,272.80582   L 220.93795,281.23735   C 223.65522,285.39317 223.05582,288.03052 227.81104,291.14739   C 230.88795,293.14538 236.00281,294.94357 240.91787,294.94357   L 240.91787,304.41405   L 245.63313,304.41405   L 245.63313,294.94357   C 257.3014,294.94357 267.2514,286.7518 267.2514,275.44317   L 267.2514,271.24739   C 267.2514,261.09759 254.26445,256.9018 245.63313,254.90381   z "
     style="fill:#000000;fill-rule:evenodd;fill-opacity:1;stroke:none;" />
</svg>
