<?xml version="1.0" encoding="UTF-8" standalone="no"?>
<svg
   xmlns:dc="http://purl.org/dc/elements/1.1/"
   xmlns:cc="http://creativecommons.org/ns#"
   xmlns:rdf="http://www.w3.org/1999/02/22-rdf-syntax-ns#"
   xmlns:svg="http://www.w3.org/2000/svg"
   xmlns="http://www.w3.org/2000/svg"
   id="svg23"
   height="89.669998mm"
   width="120.11mm"
   version="1.0">
  <metadata
     id="metadata27">
    <rdf:RDF>
      <cc:Work
         rdf:about="">
        <dc:format>image/svg+xml</dc:format>
        <dc:type
           rdf:resource="http://purl.org/dc/dcmitype/StillImage" />
      </cc:Work>
    </rdf:RDF>
  </metadata>
  <defs
     id="defs3">
    <pattern
       y="0"
       x="0"
       height="6"
       width="6"
       patternUnits="userSpaceOnUse"
       id="EMFhbasepattern" />
  </defs>
  <path
     id="path5"
     d="  M 179.02008,15.983936   L 179.02008,54.345381   L 274.92369,54.345381   L 274.92369,15.983936   L 179.02008,15.983936   z "
     style="fill:#000000;fill-rule:evenodd;fill-opacity:1;stroke:none;" />
  <path
     id="path7"
     d="  M 54.345381,54.345381   L 54.345381,284.51405   L 399.59839,284.51405   L 399.59839,54.345381   L 54.345381,54.345381   z "
     style="fill:#80e0ff;fill-rule:evenodd;fill-opacity:1;stroke:none;" />
  <path
     id="path9"
     d="  M 54.345381,54.345381   L 399.59839,54.345381   L 399.59839,284.51405   L 54.345381,284.51405   z "
     style="fill:none;stroke:#000000;stroke-width:9.5903616px;stroke-linecap:butt;stroke-linejoin:miter;stroke-miterlimit:10;stroke-dasharray:none;stroke-opacity:1;" />
  <path
     id="path11"
     d="  M 165.87329,191.88715   L 165.87329,186.09297   C 165.87329,180.77831 171.98715,168.3508 173.38574,163.55562   C 175.18393,157.16205 180.89819,149.28996 184.73433,144.3749   C 193.24578,133.46586 205.19377,122.8765 224.37449,122.8765   L 234.88393,122.8765   C 243.15562,122.8765 256.06265,133.2261 259.85883,138.46084   C 262.9757,142.65662 265.17349,145.85341 267.97068,150.36887   C 269.04959,152.08715 274.40421,162.75642 274.40421,164.4747   L 274.40421,166.07309   L 275.44317,166.07309   L 275.44317,167.63152   C 275.44317,168.71044 277.56104,171.22791 277.48112,175.06405   L 278.6,176.58253   C 278.6,181.53755 281.19739,192.80622 281.79678,198.2008   C 282.63594,205.91305 284.91365,211.66727 280.19839,218.74016   C 280.19839,224.49437 267.81084,239.67911 265.37329,239.67911   L 243.31546,236.12269   C 238.95984,235.40341 227.0518,240.87791 221.17771,240.87791   C 216.34257,240.87791 207.79116,236.64217 203.2757,236.64217   C 199.3996,236.64217 195.56345,239.79899 190.12891,239.79899   L 188.53052,239.79899   C 183.93514,239.79899 174.26486,225.05381 171.66747,221.37751   C 167.3518,215.26365 165.87329,202.15682 165.87329,191.88715   z  M 239.51927,117.52189   L 224.89397,114.96446   C 223.13574,114.68474 212.4265,117.52189 211.10783,118.16124   L 195.96305,90.588955   L 200.11887,91.78775   L 200.19879,84.754818   L 221.57731,92.826705   L 222.33654,84.31526   L 230.12871,90.149396   L 243.83494,83.875702   L 243.91486,90.029517   L 261.81686,86.553011   L 239.51927,117.52189   z  M 267.73092,82.956625   L 245.91285,86.79277   L 245.95281,80.199396   C 243.79498,81.318272 232.28654,87.032529 230.16867,87.032529   C 230.00883,87.032529 222.05682,80.918674 220.65823,80.199396   L 219.01988,89.669878   L 198.08092,81.038553   L 198.001,88.111445   L 190.68835,85.793774   L 210.18875,122.03735   L 209.58935,122.31707   C 198.44056,124.91446 184.97409,138.54076 179.13996,147.21205   C 177.26184,149.96927 176.10301,153.48574 174.2249,155.96325   C 170.94819,160.31887 172.06707,161.83735 170.06907,165.51365   C 168.67048,168.19096 163.23594,182.65642 163.23594,186.09297   L 163.23594,195.04397   C 163.23594,197.52148 164.91425,208.79016 165.55361,211.14779   C 166.47269,214.34458 166.31285,215.74317 167.39176,218.82008   C 168.11104,220.97791 169.50964,222.61626 170.70843,224.41445   C 173.94518,229.2496 182.29678,242.43634 189.05,242.43634   C 195.04397,242.43634 199.27972,239.27951 202.75622,239.27951   C 208.27068,239.27951 215.22369,243.51526 220.13875,243.51526   L 221.73715,243.51526   C 226.65221,243.51526 235.36345,240.07871 240.99779,239.03976   C 245.23353,238.24056 255.06365,241.39739 261.21747,241.39739   L 265.45321,241.39739   C 269.44919,241.39739 277.0016,231.36747 279.27931,228.37048   C 281.79678,225.09377 282.2763,223.13574 283.35522,218.74016   C 283.63494,217.66124 285.99257,208.39056 285.99257,208.19076   C 285.99257,200.95803 283.87469,198.36064 283.39518,193.96506   C 282.71586,188.21084 282.51606,184.25482 281.75682,179.25984   C 281.11747,175.10401 275.00361,158.6006 273.1255,154.7245   C 267.33132,142.89638 254.70401,123.0763 239.63915,121.83755   z "
     style="fill:#000000;fill-rule:evenodd;fill-opacity:1;stroke:none;" />
  <path
     id="path13"
     d="  M 261.81686,86.553011   L 243.91486,90.029517   L 243.83494,83.875702   L 230.12871,90.149396   L 222.33654,84.31526   L 221.57731,92.826705   L 200.19879,84.754818   L 200.11887,91.78775   L 195.96305,90.588955   L 211.10783,118.16124   C 212.4265,117.52189 223.13574,114.68474 224.89397,114.96446   L 239.51927,117.52189   L 261.81686,86.553011   z "
     style="fill:#ffffff;fill-rule:evenodd;fill-opacity:1;stroke:none;" />
  <path
     id="path15"
     d="  M 226.45241,178.18092   C 235.08373,180.17891 248.07068,184.3747 248.07068,194.5245   L 248.07068,198.72028   C 248.07068,210.02891 238.12068,218.22068 226.45241,218.22068   L 226.45241,227.69116   L 221.73715,227.69116   L 221.73715,218.22068   C 216.82209,218.22068 211.70723,216.42249 208.63032,214.42449   C 203.8751,211.30763 204.4745,208.67028 201.75723,204.51445   L 201.15783,196.08293   L 209.06988,196.08293   C 209.06988,204.4745 213.4255,210.66827 221.73715,210.82811   L 221.73715,185.53353   C 218.58032,185.29377 211.78715,182.3767 209.46947,180.93815   C 207.11184,179.41968 202.23674,173.74538 202.23674,170.78835   L 202.23674,164.4747   C 202.23674,156.04317 212.38654,147.81144 221.73715,147.61164   L 221.73715,141.81747   L 226.45241,141.81747   L 226.45241,147.61164   C 237.04176,150.08915 245.95281,153.28594 245.95281,166.07309   L 237.52128,166.07309   L 237.52128,163.95522   C 237.52128,159.43976 231.64719,155.52369 226.45241,155.52369   z  M 165.87329,191.88715   C 165.87329,202.15682 167.3518,215.26365 171.66747,221.37751   C 174.26486,225.05381 183.93514,239.79899 188.53052,239.79899   L 190.12891,239.79899   C 195.56345,239.79899 199.3996,236.64217 203.2757,236.64217   C 207.79116,236.64217 216.34257,240.87791 221.17771,240.87791   C 227.0518,240.87791 238.95984,235.40341 243.31546,236.12269   L 265.37329,239.67911   C 267.81084,239.67911 280.19839,224.49437 280.19839,218.74016   C 284.91365,211.66727 282.63594,205.91305 281.79678,198.2008   C 281.19739,192.80622 278.6,181.53755 278.6,176.58253   L 277.48112,175.06405   C 277.56104,171.22791 275.44317,168.71044 275.44317,167.63152   L 275.44317,166.07309   L 274.40421,166.07309   L 274.40421,164.4747   C 274.40421,162.75642 269.04959,152.08715 267.97068,150.36887   C 265.17349,145.85341 262.9757,142.65662 259.85883,138.46084   C 256.06265,133.2261 243.15562,122.8765 234.88393,122.8765   L 224.37449,122.8765   C 205.19377,122.8765 193.24578,133.46586 184.73433,144.3749   C 180.89819,149.28996 175.18393,157.16205 173.38574,163.55562   C 171.98715,168.3508 165.87329,180.77831 165.87329,186.09297   z "
     style="fill:#ffffff;fill-rule:evenodd;fill-opacity:1;stroke:none;" />
  <path
     id="path17"
     d="  M 210.66827,166.07309   L 210.66827,168.151   C 210.66827,173.34578 217.26164,176.10301 221.73715,177.14197   L 221.73715,155.52369   L 220.13875,155.52369   C 214.66425,155.52369 210.66827,160.47871 210.66827,166.07309   z "
     style="fill:#ffffff;fill-rule:evenodd;fill-opacity:1;stroke:none;" />
  <path
     id="path19"
     d="  M 226.45241,210.82811   C 234.04478,210.82811 239.11968,206.67229 239.11968,199.23976   L 239.11968,197.68132   C 239.11968,191.68735 232.28654,187.2518 226.45241,187.13193   z "
     style="fill:#ffffff;fill-rule:evenodd;fill-opacity:1;stroke:none;" />
  <path
     id="path21"
     d="  M 226.45241,187.13193   C 232.28654,187.2518 239.11968,191.72731 239.11968,197.68132   L 239.11968,199.23976   C 239.11968,206.67229 234.04478,210.82811 226.45241,210.82811   z  M 210.66827,166.07309   C 210.66827,160.47871 214.66425,155.52369 220.13875,155.52369   L 221.73715,155.52369   L 221.73715,177.14197   C 217.26164,176.10301 210.66827,173.34578 210.66827,168.151   z  M 226.45241,155.52369   C 231.64719,155.52369 237.52128,159.43976 237.52128,163.95522   L 237.52128,166.07309   L 245.95281,166.07309   C 245.95281,153.28594 237.04176,150.08915 226.45241,147.61164   L 226.45241,141.81747   L 221.73715,141.81747   L 221.73715,147.61164   C 212.38654,147.81144 202.23674,156.04317 202.23674,164.4747   L 202.23674,170.78835   C 202.23674,173.74538 207.11184,179.41968 209.46947,180.93815   C 211.78715,182.3767 218.58032,185.29377 221.73715,185.53353   L 221.73715,210.82811   C 213.4255,210.66827 209.06988,204.4745 209.06988,196.08293   L 201.15783,196.08293   L 201.75723,204.51445   C 204.4745,208.67028 203.8751,211.30763 208.63032,214.42449   C 211.70723,216.42249 216.82209,218.22068 221.73715,218.22068   L 221.73715,227.69116   L 226.45241,227.69116   L 226.45241,218.22068   C 238.12068,218.22068 248.07068,210.02891 248.07068,198.72028   L 248.07068,194.5245   C 248.07068,184.3747 235.08373,180.17891 226.45241,178.18092   z "
     style="fill:#000000;fill-rule:evenodd;fill-opacity:1;stroke:none;" />
</svg>
