<?xml version="1.0" encoding="UTF-8" standalone="no"?>
<svg
   xmlns:dc="http://purl.org/dc/elements/1.1/"
   xmlns:cc="http://creativecommons.org/ns#"
   xmlns:rdf="http://www.w3.org/1999/02/22-rdf-syntax-ns#"
   xmlns:svg="http://www.w3.org/2000/svg"
   xmlns="http://www.w3.org/2000/svg"
   id="svg9"
   height="112.9mm"
   width="112.9mm"
   version="1.0">
  <metadata
     id="metadata13">
    <rdf:RDF>
      <cc:Work
         rdf:about="">
        <dc:format>image/svg+xml</dc:format>
        <dc:type
           rdf:resource="http://purl.org/dc/dcmitype/StillImage" />
      </cc:Work>
    </rdf:RDF>
  </metadata>
  <defs
     id="defs3">
    <pattern
       y="0"
       x="0"
       height="6"
       width="6"
       patternUnits="userSpaceOnUse"
       id="EMFhbasepattern" />
  </defs>
  <path
     id="path5"
     d="  M 332.87834,268.86233   C 332.87834,295.22953 323.96336,317.40367 306.05784,335.34696   C 288.15232,353.25248 266.05373,362.20524 239.72431,362.20524   C 213.69709,362.20524 191.63628,353.17693 173.61743,335.12031   C 155.59859,317.06369 146.57028,294.9651 146.57028,268.86233   C 146.57028,242.49513 155.52304,220.24545 173.42856,202.18882   C 191.2963,184.1322 213.43266,175.10389 239.72431,175.10389   C 265.78931,175.10389 287.85011,184.20775 305.86896,202.41548   C 323.88781,220.58542 332.87834,242.72178 332.87834,268.86233   z  M 325.70102,268.86233   C 325.70102,244.49723 317.42822,223.98521 300.95816,207.32627   C 284.45033,190.62956 264.05164,182.31899 239.72431,182.31899   C 215.43475,182.31899 195.03606,190.62956 178.52823,207.32627   C 162.05817,223.98521 153.78537,244.49723 153.78537,268.86233   C 153.78537,292.96301 162.09595,313.3617 178.71711,330.02063   C 195.37604,346.67957 215.69918,355.02792 239.72431,355.02792   C 263.78721,355.02792 284.11035,346.67957 300.73151,330.02063   C 317.35267,313.3617 325.70102,292.96301 325.70102,268.86233   z  M 260.91628,0.015110143   L 260.91628,113.68116   L 235.22904,81.458781   L 235.64457,174.72614   L 243.35074,175.10389   L 243.35074,105.21948   L 269.37796,134.79759   L 269.37796,0.015110143   L 260.91628,0.015110143   z "
     style="fill:#000000;fill-rule:nonzero;fill-opacity:1;stroke:none;" />
  <path
     id="path7"
     d="  M 208.48409,309.16864   L 208.48409,225.23179   L 239.98874,225.23179   C 246.37277,225.23179 251.548,226.06285 255.40108,227.76274   C 259.29194,229.46263 262.31397,232.10691 264.50494,235.62002   C 266.69591,239.1709 267.7914,242.83511 267.7914,246.6882   C 267.7914,250.27685 266.84702,253.67664 264.8827,256.84977   C 262.91838,260.0229 260.00968,262.55385 256.08104,264.51816   C 261.14294,265.9914 265.0338,268.52235 267.7914,272.11101   C 270.51123,275.69967 271.87114,279.96829 271.87114,284.84131   C 271.87114,288.76994 271.04008,292.43415 269.37796,295.79616   C 267.71585,299.19594 265.67598,301.80244 263.22058,303.61566   C 260.76518,305.46665 257.70538,306.82657 254.04117,307.77095   C 250.33918,308.71533 245.84392,309.16864 240.47982,309.16864   L 208.48409,309.16864   z  M 219.59004,260.51398   L 237.75999,260.51398   C 242.67079,260.51398 246.18389,260.174 248.33709,259.53182   C 251.17024,258.70076 253.28566,257.30307 254.72113,255.33875   C 256.15659,253.41221 256.87432,250.95681 256.87432,248.01033   C 256.87432,245.25273 256.19436,242.79733 254.87223,240.68191   C 253.51231,238.52872 251.62355,237.09325 249.13037,236.29997   C 246.6372,235.54447 242.40636,235.12894 236.3623,235.12894   L 219.59004,235.12894   L 219.59004,260.51398   z  M 219.59004,299.27149   L 240.47982,299.27149   C 244.06847,299.27149 246.59942,299.12039 248.03489,298.85596   C 250.60361,298.40266 252.75681,297.64715 254.4567,296.58944   C 256.19436,295.49396 257.59205,293.94517 258.68754,291.9053   C 259.8208,289.86543 260.34965,287.52336 260.34965,284.84131   C 260.34965,281.70595 259.55637,278.98613 257.96981,276.68183   C 256.34547,274.37753 254.11672,272.75319 251.28357,271.80881   C 248.45042,270.86442 244.3329,270.41112 239.00658,270.41112   L 219.59004,270.41112   L 219.59004,299.27149   z "
     style="fill:#000000;fill-rule:nonzero;fill-opacity:1;stroke:#000000;stroke-width:1.0577101px;stroke-linecap:butt;stroke-linejoin:miter;stroke-miterlimit:112;stroke-dasharray:none;stroke-opacity:1;" />
</svg>
