<?xml version="1.0" encoding="UTF-8" standalone="no"?>
<svg
   xmlns:dc="http://purl.org/dc/elements/1.1/"
   xmlns:cc="http://creativecommons.org/ns#"
   xmlns:rdf="http://www.w3.org/1999/02/22-rdf-syntax-ns#"
   xmlns:svg="http://www.w3.org/2000/svg"
   xmlns="http://www.w3.org/2000/svg"
   id="svg9"
   height="112.9mm"
   width="112.9mm"
   version="1.0">
  <metadata
     id="metadata13">
    <rdf:RDF>
      <cc:Work
         rdf:about="">
        <dc:format>image/svg+xml</dc:format>
        <dc:type
           rdf:resource="http://purl.org/dc/dcmitype/StillImage" />
      </cc:Work>
    </rdf:RDF>
  </metadata>
  <defs
     id="defs3">
    <pattern
       y="0"
       x="0"
       height="6"
       width="6"
       patternUnits="userSpaceOnUse"
       id="EMFhbasepattern" />
  </defs>
  <path
     id="path5"
     d="  M 573.63894,493.41018   C 573.63894,519.76861 564.72693,541.93537 546.82736,559.87269   C 528.9278,577.77225 506.83657,586.72203 480.5159,586.72203   C 454.49734,586.72203 432.44387,577.69673 414.43102,559.64611   C 396.41817,541.5955 387.39286,519.50427 387.39286,493.41018   C 387.39286,467.05175 396.34265,444.80947 414.24221,426.75886   C 432.10401,408.70824 454.233,399.68294 480.5159,399.68294   C 506.57223,399.68294 528.6257,408.78377 546.63855,426.98543   C 564.6514,445.14934 573.63894,467.27833 573.63894,493.41018   z  M 566.46401,493.41018   C 566.46401,469.05318 558.19396,448.54799 541.72939,431.8946   C 525.22705,415.20344 504.83514,406.89563 480.5159,406.89563   C 456.23443,406.89563 435.84252,415.20344 419.34018,431.8946   C 402.87561,448.54799 394.60556,469.05318 394.60556,493.41018   C 394.60556,517.50284 402.91337,537.89475 419.529,554.54814   C 436.18239,571.20153 456.49877,579.5471 480.5159,579.5471   C 504.5708,579.5471 524.88718,571.20153 541.50281,554.54814   C 558.11844,537.89475 566.46401,517.50284 566.46401,493.41018   z  M 501.70083,224.65241   L 501.70083,338.28064   L 476.02213,306.06898   L 476.43752,399.30531   L 484.14113,399.68294   L 484.14113,329.82178   L 510.15969,359.39004   L 510.15969,224.65241   z "
     style="fill:#ff0000;fill-rule:nonzero;fill-opacity:1;stroke:none;" />
  <path
     id="path7"
     d="  M 449.28608,533.70308   L 449.28608,449.79416   L 480.78024,449.79416   C 487.16216,449.79416 492.33566,450.62494 496.18746,452.32427   C 500.07703,454.02359 503.09805,456.66699 505.28829,460.17893   C 507.47854,463.72863 508.57366,467.39162 508.57366,471.24342   C 508.57366,474.83089 507.62959,478.22954 505.66592,481.40161   C 503.70226,484.57369 500.79452,487.10379 496.86719,489.06746   C 501.92741,490.54021 505.81697,493.07032 508.57366,496.65778   C 511.29258,500.24525 512.65204,504.51244 512.65204,509.38384   C 512.65204,513.31117 511.82126,516.97416 510.15969,520.33505   C 508.49813,523.7337 506.45894,526.33933 504.00436,528.15195   C 501.54978,530.00232 498.49099,531.36178 494.828,532.30585   C 491.12725,533.24992 486.63348,533.70308 481.27116,533.70308   z  M 460.38834,485.0646   L 478.55224,485.0646   C 483.4614,485.0646 486.97334,484.72474 489.12582,484.08277   C 491.95803,483.25199 494.07275,481.85477 495.50773,479.8911   C 496.94272,477.9652 497.66021,475.51062 497.66021,472.56512   C 497.66021,469.80844 496.98048,467.35386 495.65878,465.23914   C 494.29932,463.08666 492.41118,461.65167 489.91884,460.85866   C 487.42649,460.1034 483.19706,459.68801 477.15502,459.68801   L 460.38834,459.68801   z  M 460.38834,523.80923   L 481.27116,523.80923   C 484.85863,523.80923 487.38873,523.65818 488.82372,523.39384   C 491.39159,522.94068 493.54407,522.18543 495.24339,521.12807   C 496.98048,520.03295 498.3777,518.48467 499.47282,516.44548   C 500.60571,514.40629 501.13439,512.065 501.13439,509.38384   C 501.13439,506.24953 500.34137,503.53061 498.75533,501.22708   C 497.13153,498.92355 494.90353,497.29975 492.07132,496.35568   C 489.23911,495.41161 485.12296,494.95846 479.79841,494.95846   L 460.38834,494.95846   z "
     style="fill:#ff0000;fill-rule:nonzero;fill-opacity:1;stroke:#ff0000;stroke-width:1.0573581px;stroke-linecap:butt;stroke-linejoin:miter;stroke-miterlimit:282;stroke-dasharray:none;stroke-opacity:1;" />
</svg>
