<?xml version="1.0" encoding="UTF-8" standalone="no"?>
<svg
   xmlns:dc="http://purl.org/dc/elements/1.1/"
   xmlns:cc="http://creativecommons.org/ns#"
   xmlns:rdf="http://www.w3.org/1999/02/22-rdf-syntax-ns#"
   xmlns:svg="http://www.w3.org/2000/svg"
   xmlns="http://www.w3.org/2000/svg"
   id="svg11"
   height="130.27mm"
   width="130.27mm"
   version="1.0">
  <metadata
     id="metadata15">
    <rdf:RDF>
      <cc:Work
         rdf:about="">
        <dc:format>image/svg+xml</dc:format>
        <dc:type
           rdf:resource="http://purl.org/dc/dcmitype/StillImage" />
      </cc:Work>
    </rdf:RDF>
  </metadata>
  <defs
     id="defs3">
    <pattern
       y="0"
       x="0"
       height="6"
       width="6"
       patternUnits="userSpaceOnUse"
       id="EMFhbasepattern" />
  </defs>
  <path
     id="path5"
     d="  M 164.63454,327.67068   C 164.63454,437.95983 327.67068,437.95983 327.67068,327.67068   C 437.95983,327.67068 437.95983,164.63454 327.67068,164.63454   C 327.67068,54.345381 164.63454,54.345381 164.63454,164.63454   C 54.345381,164.63454 54.345381,327.67068 164.63454,327.67068   z "
     style="fill:#ffff80;fill-rule:evenodd;fill-opacity:1;stroke:none;" />
  <path
     id="path7"
     d="  M 164.63454,327.67068   C 164.63454,437.95983 327.67068,437.95983 327.67068,327.67068   C 437.95983,327.67068 437.95983,164.63454 327.67068,164.63454   C 327.67068,54.345381 164.63454,54.345381 164.63454,164.63454   C 54.345381,164.63454 54.345381,327.67068 164.63454,327.67068  "
     style="fill:none;stroke:#000000;stroke-width:9.5903616px;stroke-linecap:butt;stroke-linejoin:miter;stroke-miterlimit:10;stroke-dasharray:none;stroke-opacity:1;" />
  <path
     id="path9"
     d="  M 174.50462,281.39718   L 174.50462,185.29377   L 210.54839,185.29377   C 217.901,185.29377 223.7751,186.29277 228.21064,188.21084   C 232.64618,190.16887 236.12269,193.16586 238.64016,197.2018   C 241.15763,201.23775 242.39638,205.47349 242.39638,209.86907   C 242.39638,213.98494 241.27751,217.86104 239.07972,221.49739   C 236.84196,225.13373 233.48534,228.0508 228.96988,230.24859   C 234.76405,231.96686 239.23955,234.88393 242.35642,238.9998   C 245.51325,243.11566 247.07168,247.9508 247.07168,253.54518   C 247.07168,258.06064 246.11265,262.21646 244.19457,266.09257   C 242.31646,269.96867 239.95883,272.96566 237.16164,275.04357   C 234.36445,277.16144 230.84799,278.71988 226.65221,279.79879   C 222.41646,280.87771 217.26164,281.39718 211.14779,281.39718   z  M 187.21184,225.69317   L 207.99096,225.69317   C 213.6253,225.69317 217.66124,225.29357 220.09879,224.57429   C 223.33554,223.61526 225.77309,222.01686 227.41144,219.77911   C 229.0498,217.54136 229.88895,214.74417 229.88895,211.38755   C 229.88895,208.19076 229.12972,205.39357 227.57128,202.95602   C 226.05281,200.55843 223.89498,198.88012 221.01787,198.001   C 218.18072,197.08192 213.30562,196.64237 206.43253,196.64237   L 187.21184,196.64237   z  M 187.21184,270.04859   L 211.14779,270.04859   C 215.26365,270.04859 218.14076,269.92871 219.77911,269.60903   C 222.73614,269.08955 225.17369,268.21044 227.13172,266.97168   C 229.08976,265.77289 230.72811,263.97469 231.96686,261.65702   C 233.24558,259.29939 233.88494,256.62208 233.88494,253.54518   C 233.88494,249.94879 232.96586,246.83192 231.12771,244.19457   C 229.28955,241.55723 226.73213,239.71907 223.49538,238.64016   C 220.25863,237.56124 215.54337,237.04176 209.42952,237.0018   L 187.21184,237.0018   z  M 264.05461,281.39718   L 264.05461,185.29377   L 300.09839,185.29377   C 307.451,185.29377 313.3251,186.29277 317.76064,188.21084   C 322.19618,190.16887 325.67269,193.16586 328.19016,197.2018   C 330.70763,201.23775 331.94638,205.47349 331.94638,209.86907   C 331.94638,213.98494 330.82751,217.86104 328.62971,221.49739   C 326.39196,225.13373 323.03534,228.0508 318.51987,230.24859   C 324.35401,231.96686 328.78955,234.88393 331.94638,238.9998   C 335.06325,243.11566 336.62168,247.9508 336.62168,253.54518   C 336.62168,258.06064 335.66265,262.21646 333.74457,266.09257   C 331.86646,269.96867 329.50883,272.96566 326.71164,275.04357   C 323.91445,277.16144 320.39799,278.71988 316.2022,279.79879   C 311.96646,280.87771 306.81164,281.39718 300.69779,281.39718   z  M 276.76184,225.69317   L 297.54096,225.69317   C 303.1753,225.69317 307.21124,225.29357 309.68875,224.57429   C 312.9255,223.61526 315.32309,222.01686 316.96144,219.77911   C 318.59979,217.54136 319.43895,214.74417 319.43895,211.38755   C 319.43895,208.19076 318.67971,205.39357 317.16124,202.95602   C 315.60281,200.55843 313.44498,198.88012 310.56787,198.001   C 307.73072,197.08192 302.89558,196.64237 295.98253,196.64237   L 276.76184,196.64237   z  M 276.76184,270.04859   L 300.69779,270.04859   C 304.81365,270.04859 307.69076,269.92871 309.32911,269.60903   C 312.28614,269.08955 314.72369,268.21044 316.68172,266.97168   C 318.63975,265.77289 320.27811,263.97469 321.51686,261.65702   C 322.79558,259.29939 323.43494,256.62208 323.43494,253.54518   C 323.43494,249.94879 322.51586,246.83192 320.67771,244.19457   C 318.83955,241.55723 316.32208,239.71907 313.04538,238.64016   C 309.80863,237.56124 305.09337,237.04176 298.97951,237.0018   L 276.76184,237.0018   z "
     style="fill:#000000;fill-rule:evenodd;fill-opacity:1;stroke:none;" />
</svg>
