<?xml version="1.0" encoding="UTF-8" standalone="no"?>
<svg
   xmlns:dc="http://purl.org/dc/elements/1.1/"
   xmlns:cc="http://creativecommons.org/ns#"
   xmlns:rdf="http://www.w3.org/1999/02/22-rdf-syntax-ns#"
   xmlns:svg="http://www.w3.org/2000/svg"
   xmlns="http://www.w3.org/2000/svg"
   id="svg11"
   height="112.9mm"
   width="112.9mm"
   version="1.0">
  <metadata
     id="metadata15">
    <rdf:RDF>
      <cc:Work
         rdf:about="">
        <dc:format>image/svg+xml</dc:format>
        <dc:type
           rdf:resource="http://purl.org/dc/dcmitype/StillImage" />
      </cc:Work>
    </rdf:RDF>
  </metadata>
  <defs
     id="defs3">
    <pattern
       y="0"
       x="0"
       height="6"
       width="6"
       patternUnits="userSpaceOnUse"
       id="EMFhbasepattern" />
  </defs>
  <path
     id="path5"
     d="  M 1859.4259,1883.6585   L 2140.2247,1883.6585   L 2140.2247,2165.3376   L 1859.4259,2165.3376   z "
     style="fill:#aaffaa;fill-rule:nonzero;fill-opacity:1;stroke:#000000;stroke-width:10.62747px;stroke-linecap:butt;stroke-linejoin:miter;stroke-miterlimit:282;stroke-dasharray:none;stroke-opacity:1;" />
  <path
     id="path7"
     d="  M 2095.1522,2057.4066   C 2093.8709,2057.142 2088.6325,2059.1834 2079.4748,2063.5309   C 2073.5958,2066.1016 2066.8123,2070.0332 2059.162,2075.4014   C 2031.0859,2094.0767 2011.3007,2119.2543 1999.8441,2150.9342   C 1999.3165,2150.9342 1998.5628,2150.2915 1997.5453,2149.0062   C 1993.1737,2135.2076 1985.4104,2121.4091 1974.1799,2107.6106   C 1962.4219,2092.7913 1948.8926,2080.505 1933.592,2070.8271   C 1926.4317,2066.215 1916.5956,2061.6029 1904.0838,2057.0285   C 1903.8954,2056.4993 1903.8954,2056.1212 1904.0838,2055.8566   C 1907.4002,2054.3445 1911.8849,2052.4164 1917.5001,2050.1104   C 1932.0469,2045.2336 1947.5359,2034.1192 1964.0047,2016.7671   C 1980.4735,1999.3771 1991.2517,1983.0457 1996.377,1967.6972   C 1997.1307,1965.6558 1998.299,1963.5766 1999.8065,1961.5351   C 2004.668,1976.6568 2013.8634,1992.3456 2027.3927,2008.7148   C 2041.6757,2026.3315 2056.3732,2038.8447 2071.41,2046.2544   C 2074.7264,2047.8043 2080.1155,2050.2238 2087.5019,2053.5506   C 2089.8008,2053.8152 2092.3257,2055.1005 2095.1522,2057.4066   z "
     style="fill:#000000;fill-rule:nonzero;fill-opacity:1;stroke:none;" />
  <path
     id="path9"
     d="  M 1983.9029,1915.4518   L 1999.7311,1915.4518   C 2002.859,1915.4518 2005.1956,1915.5652 2006.7407,1915.8298   C 2008.2481,1916.0945 2009.6425,1916.6237 2010.8485,1917.4554   C 2012.0544,1918.2871 2013.0719,1919.4212 2013.901,1920.7822   C 2014.6924,1922.181 2015.107,1923.7309 2015.107,1925.4321   C 2015.107,1927.2845 2014.6171,1928.9857 2013.5996,1930.5357   C 2012.6197,1932.1235 2011.263,1933.2576 2009.5295,1934.0515   C 2011.9414,1934.7698 2013.8257,1935.9417 2015.107,1937.6429   C 2016.3883,1939.3441 2017.0667,1941.3477 2017.0667,1943.6537   C 2017.0667,1945.4305 2016.6521,1947.2073 2015.7853,1948.9085   C 2014.9563,1950.6097 2013.8257,1951.9707 2012.3559,1952.9914   C 2010.9238,1954.0121 2009.1149,1954.6548 2007.0045,1954.8816   C 2005.6855,1955.0328 2002.4445,1955.1084 1997.3569,1955.1462   L 1983.9029,1955.1462   z  M 1991.8924,1922.0297   L 1991.8924,1931.2162   L 1997.1307,1931.2162   C 2000.221,1931.2162 2002.1807,1931.1784 2002.9344,1931.1027   C 2004.2911,1930.9137 2005.384,1930.4601 2006.1377,1929.6662   C 2006.9291,1928.8723 2007.3437,1927.8516 2007.3437,1926.5662   C 2007.3437,1925.3565 2007.0045,1924.3358 2006.3261,1923.5797   C 2005.6478,1922.8236 2004.6303,1922.3322 2003.3113,1922.181   C 2002.5198,1922.1053 2000.221,1922.0297 1996.4901,1922.0297   z  M 1991.8924,1937.8319   L 1991.8924,1948.4549   L 1999.2788,1948.4549   C 2002.1807,1948.4549 2003.9896,1948.3793 2004.781,1948.2281   C 2005.9493,1948.0012 2006.9291,1947.472 2007.6828,1946.6403   C 2008.3989,1945.8086 2008.7757,1944.6745 2008.7757,1943.2757   C 2008.7757,1942.066 2008.5119,1941.0453 2007.909,1940.2136   C 2007.3437,1939.3819 2006.5146,1938.777 2005.4217,1938.399   C 2004.3288,1938.0209 2001.9922,1937.8319 1998.3367,1937.8319   z "
     style="fill:#000000;fill-rule:nonzero;fill-opacity:1;stroke:none;" />
</svg>
