<?xml version="1.0" encoding="UTF-8" standalone="no"?>
<svg
   xmlns:dc="http://purl.org/dc/elements/1.1/"
   xmlns:cc="http://creativecommons.org/ns#"
   xmlns:rdf="http://www.w3.org/1999/02/22-rdf-syntax-ns#"
   xmlns:svg="http://www.w3.org/2000/svg"
   xmlns="http://www.w3.org/2000/svg"
   id="svg17"
   height="112.9mm"
   width="112.9mm"
   version="1.0">
  <metadata
     id="metadata21">
    <rdf:RDF>
      <cc:Work
         rdf:about="">
        <dc:format>image/svg+xml</dc:format>
        <dc:type
           rdf:resource="http://purl.org/dc/dcmitype/StillImage" />
      </cc:Work>
    </rdf:RDF>
  </metadata>
  <defs
     id="defs3">
    <pattern
       y="0"
       x="0"
       height="6"
       width="6"
       patternUnits="userSpaceOnUse"
       id="EMFhbasepattern" />
  </defs>
  <path
     id="path5"
     d="  M 489.05206,451.74511   L 521.04779,451.74511   L 521.04779,531.71555   L 558.36984,611.6482   L 451.73,611.6482   L 489.05206,531.71555   L 489.05206,451.74511   z "
     style="fill:#ffff80;fill-rule:nonzero;fill-opacity:1;stroke:#000000;stroke-width:5.3263254px;stroke-linecap:butt;stroke-linejoin:miter;stroke-miterlimit:112;stroke-dasharray:none;stroke-opacity:1;" />
  <path
     id="path7"
     d="  M 495.81385,585.01658   L 495.81385,560.57592   L 504.99326,560.57592   C 506.84425,560.57592 508.35527,560.84035 509.48853,561.33143   C 510.58401,561.82251 511.49062,562.57801 512.1328,563.59795   C 512.77498,564.61788 513.07718,565.71337 513.07718,566.84663   C 513.07718,567.86656 512.77498,568.84872 512.24613,569.79311   C 511.6795,570.69972 510.81066,571.45522 509.6774,572.02185   C 511.15064,572.43738 512.2839,573.19289 513.07718,574.21282   C 513.87047,575.27053 514.24822,576.51712 514.24822,577.91481   C 514.24822,579.08584 514.02157,580.14355 513.53049,581.12571   C 513.03941,582.10787 512.47278,582.86338 511.75505,583.39224   C 511.03732,583.92109 510.13071,584.33662 509.073,584.60105   C 508.01529,584.86547 506.69315,585.01658 505.14436,585.01658   L 495.81385,585.01658   z  M 499.06253,570.85082   L 504.3133,570.85082   C 505.74877,570.85082 506.80648,570.73749 507.41088,570.54861   C 508.24194,570.32196 508.84634,569.90643 509.26187,569.3398   C 509.6774,568.77317 509.90405,568.05544 509.90405,567.22438   C 509.90405,566.39332 509.71518,565.67559 509.29965,565.07119   C 508.9219,564.46678 508.35527,564.05125 507.63753,563.8246   C 506.9198,563.59795 505.67321,563.44685 503.93555,563.44685   L 499.06253,563.44685   L 499.06253,570.85082   z  M 499.06253,582.10787   L 505.14436,582.10787   C 506.16429,582.10787 506.9198,582.0701 507.33533,581.99455   C 508.09084,581.88122 508.69524,581.65457 509.18632,581.35237   C 509.6774,581.01239 510.09293,580.55908 510.43291,579.99245   C 510.73511,579.38805 510.92399,578.70809 510.92399,577.91481   C 510.92399,577.0082 510.65956,576.21492 510.20626,575.53496   C 509.75295,574.89278 509.11077,574.4017 508.27971,574.13727   C 507.44866,573.87285 506.23985,573.72174 504.69106,573.72174   L 499.06253,573.72174   L 499.06253,582.10787   z "
     style="fill:#000000;fill-rule:nonzero;fill-opacity:1;stroke:#000000;stroke-width:1.0577101px;stroke-linecap:butt;stroke-linejoin:miter;stroke-miterlimit:112;stroke-dasharray:none;stroke-opacity:1;" />
  <path
     id="path9"
     d="  M 357.93379,514.64108   L 428.27151,514.64108   L 428.27151,548.75223   L 357.93379,548.75223   L 357.93379,514.64108   z "
     style="fill:#ffffff;fill-rule:nonzero;fill-opacity:1;stroke:#ffffff;stroke-width:1.0577101px;stroke-linecap:butt;stroke-linejoin:miter;stroke-miterlimit:112;stroke-dasharray:none;stroke-opacity:1;" />
  <path
     id="path11"
     d="  M 362.88236,545.54133   L 362.88236,518.07864   L 373.15726,518.07864   C 375.27268,518.07864 376.97257,518.38085 378.21916,518.9097   C 379.50352,519.47633 380.48568,520.34516 381.20341,521.47842   C 381.92114,522.64946 382.2989,523.85827 382.2989,525.10486   C 382.2989,526.27589 381.95892,527.40916 381.31674,528.42909   C 380.67456,529.44902 379.73017,530.31786 378.44581,530.92226   C 380.10793,531.41334 381.39229,532.2444 382.26112,533.41544   C 383.16773,534.62425 383.62103,535.98416 383.62103,537.6085   C 383.62103,538.89286 383.35661,540.0639 382.78998,541.19716   C 382.26112,542.29265 381.58116,543.1237 380.78788,543.72811   C 379.9946,544.33252 378.97467,544.78582 377.76585,545.08802   C 376.55704,545.39023 375.0838,545.54133 373.34614,545.54133   L 362.88236,545.54133   z  M 366.5088,529.6379   L 372.43953,529.6379   C 374.06387,529.6379 375.19713,529.52458 375.91486,529.29792   C 376.82147,529.0335 377.5392,528.58019 377.99251,527.93801   C 378.48359,527.29583 378.71024,526.50255 378.71024,525.55816   C 378.71024,524.61378 378.48359,523.8205 378.03028,523.14054   C 377.61475,522.46058 376.97257,521.9695 376.17929,521.70508   C 375.34823,521.44065 373.95054,521.32732 371.98622,521.32732   L 366.5088,521.32732   L 366.5088,529.6379   z  M 366.5088,542.33042   L 373.34614,542.33042   C 374.51717,542.33042 375.34823,542.25487 375.80154,542.17932   C 376.67037,542.02822 377.35032,541.80157 377.91696,541.42381   C 378.48359,541.08384 378.93689,540.59276 379.31464,539.9128   C 379.65462,539.23284 379.8435,538.47734 379.8435,537.6085   C 379.8435,536.55079 379.57907,535.68196 379.05022,534.92645   C 378.52136,534.17094 377.80363,533.64209 376.85925,533.33989   C 375.95264,533.03768 374.59272,532.88658 372.85506,532.88658   L 366.5088,532.88658   L 366.5088,542.33042   z "
     style="fill:#000000;fill-rule:nonzero;fill-opacity:1;stroke:#000000;stroke-width:1.0577101px;stroke-linecap:butt;stroke-linejoin:miter;stroke-miterlimit:112;stroke-dasharray:none;stroke-opacity:1;" />
  <path
     id="path13"
     d="  M 389.28734,545.54133   L 389.28734,518.07864   L 392.91377,518.07864   L 392.91377,545.54133   L 389.28734,545.54133   z "
     style="fill:#000000;fill-rule:nonzero;fill-opacity:1;stroke:#000000;stroke-width:1.0577101px;stroke-linecap:butt;stroke-linejoin:miter;stroke-miterlimit:112;stroke-dasharray:none;stroke-opacity:1;" />
  <path
     id="path15"
     d="  M 398.20232,532.16885   C 398.20232,527.63581 399.41113,524.04715 401.86653,521.47842   C 404.32193,518.87192 407.49506,517.58756 411.34815,517.58756   C 413.8791,517.58756 416.18339,518.19197 418.22326,519.40078   C 420.26313,520.60959 421.81192,522.30948 422.86963,524.50045   C 423.92734,526.65365 424.4562,529.10905 424.4562,531.86665   C 424.4562,534.66202 423.88957,537.1552 422.79408,539.34617   C 421.66082,541.53714 420.07425,543.19926 417.99661,544.33252   C 415.95674,545.46578 413.72799,546.03241 411.34815,546.03241   C 408.74165,546.03241 406.43735,545.39023 404.39748,544.14364   C 402.35761,542.89705 400.80882,541.19716 399.75111,539.04397   C 398.73118,536.89077 398.20232,534.58647 398.20232,532.16885   L 398.20232,532.16885   z  M 401.94208,532.2444   C 401.94208,535.53086 402.84869,538.13736 404.62413,540.0639   C 406.39957,541.95267 408.62832,542.89705 411.31037,542.89705   C 414.0302,542.89705 416.29672,541.95267 418.07216,540.02613   C 419.8476,538.09958 420.71644,535.37976 420.71644,531.82887   C 420.71644,529.60013 420.33868,527.63581 419.58317,525.97369   C 418.82767,524.31158 417.73218,523.02721 416.25894,522.12061   C 414.82348,521.17622 413.16136,520.72292 411.38592,520.72292   C 408.77942,520.72292 406.58845,521.62953 404.73746,523.36719   C 402.88647,525.14263 401.94208,528.08911 401.94208,532.2444   L 401.94208,532.2444   z "
     style="fill:#000000;fill-rule:nonzero;fill-opacity:1;stroke:#000000;stroke-width:1.0577101px;stroke-linecap:butt;stroke-linejoin:miter;stroke-miterlimit:112;stroke-dasharray:none;stroke-opacity:1;" />
</svg>
