<?xml version="1.0" encoding="UTF-8" standalone="no"?>
<svg
   xmlns:dc="http://purl.org/dc/elements/1.1/"
   xmlns:cc="http://creativecommons.org/ns#"
   xmlns:rdf="http://www.w3.org/1999/02/22-rdf-syntax-ns#"
   xmlns:svg="http://www.w3.org/2000/svg"
   xmlns="http://www.w3.org/2000/svg"
   id="svg11"
   height="112.9mm"
   width="112.9mm"
   version="1.0">
  <metadata
     id="metadata15">
    <rdf:RDF>
      <cc:Work
         rdf:about="">
        <dc:format>image/svg+xml</dc:format>
        <dc:type
           rdf:resource="http://purl.org/dc/dcmitype/StillImage" />
      </cc:Work>
    </rdf:RDF>
  </metadata>
  <defs
     id="defs3">
    <pattern
       y="0"
       x="0"
       height="6"
       width="6"
       patternUnits="userSpaceOnUse"
       id="EMFhbasepattern" />
  </defs>
  <path
     id="path5"
     d="  M 2960.0427,3191.9855   L 3144.0637,3007.4254   L 2960.0427,2822.8275   L 2776.0593,3007.4254   L 2960.0427,3191.9855   z "
     style="fill:#ff8080;fill-rule:nonzero;fill-opacity:1;stroke:#000000;stroke-width:10.62747px;stroke-linecap:square;stroke-linejoin:miter;stroke-miterlimit:282;stroke-dasharray:none;stroke-opacity:1;" />
  <path
     id="path7"
     d="  M 3055.3884,3040.3151   C 3054.1071,3040.0504 3048.8687,3042.0919 3039.711,3046.4393   C 3033.832,3049.01 3027.0485,3052.9417 3019.3982,3058.3099   C 2991.3221,3076.9851 2971.5369,3102.1627 2960.0804,3133.8427   C 2959.5528,3133.8427 2958.799,3133.2 2957.7815,3131.9146   C 2953.4099,3118.1161 2945.6466,3104.3176 2934.4161,3090.519   C 2922.6581,3075.6998 2909.1288,3063.4134 2893.8283,3053.7355   C 2886.6679,3049.1234 2876.8318,3044.5113 2864.3201,3039.937   C 2864.1316,3039.4078 2864.1316,3039.0297 2864.3201,3038.7651   C 2867.6364,3037.2529 2872.1211,3035.3249 2877.7363,3033.0188   C 2892.2831,3028.1421 2907.7721,3017.0277 2924.2409,2999.6755   C 2940.7097,2982.2856 2951.4879,2965.9542 2956.6132,2950.6057   C 2957.367,2948.5643 2958.5352,2946.485 2960.0427,2944.4436   C 2964.9042,2959.5653 2974.0996,2975.254 2987.6289,2991.6232   C 3001.9119,3009.24 3016.6095,3021.7532 3031.6462,3029.1628   C 3034.9626,3030.7128 3040.3517,3033.1323 3047.7381,3036.459   C 3050.037,3036.7237 3052.562,3038.009 3055.3884,3040.3151   z "
     style="fill:#000000;fill-rule:nonzero;fill-opacity:1;stroke:none;" />
  <path
     id="path9"
     d="  M 2944.1392,2898.3603   L 2959.9673,2898.3603   C 2963.0952,2898.3603 2965.4318,2898.4737 2966.9769,2898.7383   C 2968.4844,2899.0029 2969.8787,2899.5322 2971.0847,2900.3639   C 2972.2906,2901.1956 2973.3082,2902.3297 2974.1373,2903.6907   C 2974.9287,2905.0894 2975.3432,2906.6394 2975.3432,2908.3406   C 2975.3432,2910.193 2974.8533,2911.8942 2973.8358,2913.4441   C 2972.8559,2915.0319 2971.4992,2916.1661 2969.7657,2916.9599   C 2972.1776,2917.6782 2974.0619,2918.8501 2975.3432,2920.5513   C 2976.6245,2922.2525 2977.3029,2924.2562 2977.3029,2926.5622   C 2977.3029,2928.339 2976.8883,2930.1158 2976.0216,2931.817   C 2975.1925,2933.5182 2974.0619,2934.8791 2972.5921,2935.8998   C 2971.1601,2936.9206 2969.3511,2937.5632 2967.2407,2937.7901   C 2965.9217,2937.9413 2962.6807,2938.0169 2957.5931,2938.0547   L 2944.1392,2938.0547   z  M 2952.1286,2904.9382   L 2952.1286,2914.1246   L 2957.367,2914.1246   C 2960.4572,2914.1246 2962.4169,2914.0868 2963.1706,2914.0112   C 2964.5273,2913.8222 2965.6202,2913.3685 2966.3739,2912.5747   C 2967.1653,2911.7808 2967.5799,2910.76 2967.5799,2909.4747   C 2967.5799,2908.265 2967.2407,2907.2443 2966.5624,2906.4882   C 2965.884,2905.7321 2964.8665,2905.2406 2963.5475,2905.0894   C 2962.7561,2905.0138 2960.4572,2904.9382 2956.7263,2904.9382   z  M 2952.1286,2920.7404   L 2952.1286,2931.3633   L 2959.5151,2931.3633   C 2962.4169,2931.3633 2964.2258,2931.2877 2965.0172,2931.1365   C 2966.1855,2930.9097 2967.1653,2930.3804 2967.9191,2929.5487   C 2968.6351,2928.717 2969.012,2927.5829 2969.012,2926.1842   C 2969.012,2924.9744 2968.7482,2923.9537 2968.1452,2923.122   C 2967.5799,2922.2903 2966.7508,2921.6855 2965.6579,2921.3074   C 2964.565,2920.9294 2962.2285,2920.7404 2958.5729,2920.7404   z "
     style="fill:#000000;fill-rule:nonzero;fill-opacity:1;stroke:none;" />
</svg>
