<?xml version="1.0" encoding="UTF-8" standalone="no"?>
<svg
   xmlns:dc="http://purl.org/dc/elements/1.1/"
   xmlns:cc="http://creativecommons.org/ns#"
   xmlns:rdf="http://www.w3.org/1999/02/22-rdf-syntax-ns#"
   xmlns:svg="http://www.w3.org/2000/svg"
   xmlns="http://www.w3.org/2000/svg"
   id="svg11"
   height="112.9mm"
   width="112.9mm"
   version="1.0">
  <metadata
     id="metadata15">
    <rdf:RDF>
      <cc:Work
         rdf:about="">
        <dc:format>image/svg+xml</dc:format>
        <dc:type
           rdf:resource="http://purl.org/dc/dcmitype/StillImage" />
      </cc:Work>
    </rdf:RDF>
  </metadata>
  <defs
     id="defs3">
    <pattern
       y="0"
       x="0"
       height="6"
       width="6"
       patternUnits="userSpaceOnUse"
       id="EMFhbasepattern" />
  </defs>
  <ellipse
     id="ellipse5"
     ry="152.47782"
     rx="152.49666"
     cy="2035.8394"
     cx="2011.1122"
     style="fill:#80e0ff;fill-rule:nonzero;fill-opacity:1;stroke:#000000;stroke-width:10.62747px;stroke-linecap:butt;stroke-linejoin:miter;stroke-miterlimit:282;stroke-dasharray:none;stroke-opacity:1;" />
  <path
     id="path7"
     d="  M 2107.1552,2069.4095   C 2105.8738,2069.1449 2100.6355,2071.1863 2091.4777,2075.5338   C 2085.5987,2078.1045 2078.8152,2082.0361 2071.165,2087.4043   C 2043.0888,2106.0796 2023.3037,2131.2572 2011.8471,2162.9371   C 2011.3195,2162.9371 2010.5658,2162.2945 2009.5482,2161.0091   C 2005.1767,2147.2106 1997.4133,2133.4121 1986.1829,2119.6135   C 1974.4248,2104.7943 1960.8955,2092.5079 1945.595,2082.83   C 1938.4346,2078.2179 1928.5986,2073.6058 1916.0868,2069.0315   C 1915.8984,2068.5022 1915.8984,2068.1242 1916.0868,2067.8596   C 1919.4032,2066.3474 1923.8878,2064.4194 1929.503,2062.1133   C 1944.0499,2057.2366 1959.5388,2046.1222 1976.0076,2028.77   C 1992.4765,2011.3801 2003.2547,1995.0487 2008.38,1979.7002   C 2009.1337,1977.6587 2010.302,1975.5795 2011.8094,1973.5381   C 2016.6709,1988.6598 2025.8663,2004.3485 2039.3956,2020.7177   C 2053.6786,2038.3345 2068.3762,2050.8477 2083.4129,2058.2573   C 2086.7293,2059.8073 2092.1184,2062.2267 2099.5049,2065.5535   C 2101.8037,2065.8181 2104.3287,2067.1035 2107.1552,2069.4095   z "
     style="fill:#000000;fill-rule:nonzero;fill-opacity:1;stroke:none;" />
  <path
     id="path9"
     d="  M 1995.9059,1927.4548   L 2011.734,1927.4548   C 2014.862,1927.4548 2017.1985,1927.5682 2018.7436,1927.8328   C 2020.2511,1928.0974 2021.6455,1928.6267 2022.8514,1929.4584   C 2024.0574,1930.2901 2025.0749,1931.4242 2025.904,1932.7852   C 2026.6954,1934.1839 2027.1099,1935.7339 2027.1099,1937.4351   C 2027.1099,1939.2875 2026.62,1940.9887 2025.6025,1942.5386   C 2024.6227,1944.1264 2023.266,1945.2605 2021.5324,1946.0544   C 2023.9443,1946.7727 2025.8286,1947.9446 2027.1099,1949.6458   C 2028.3913,1951.347 2029.0696,1953.3506 2029.0696,1955.6567   C 2029.0696,1957.4335 2028.6551,1959.2103 2027.7883,1960.9115   C 2026.9592,1962.6127 2025.8286,1963.9736 2024.3589,1964.9943   C 2022.9268,1966.015 2021.1179,1966.6577 2019.0074,1966.8845   C 2017.6884,1967.0358 2014.4474,1967.1114 2009.3598,1967.1492   L 1995.9059,1967.1492   z  M 2003.8953,1934.0327   L 2003.8953,1943.2191   L 2009.1337,1943.2191   C 2012.224,1943.2191 2014.1836,1943.1813 2014.9373,1943.1057   C 2016.294,1942.9167 2017.3869,1942.463 2018.1407,1941.6691   C 2018.9321,1940.8753 2019.3466,1939.8545 2019.3466,1938.5692   C 2019.3466,1937.3595 2019.0074,1936.3387 2018.3291,1935.5827   C 2017.6507,1934.8266 2016.6332,1934.3351 2015.3142,1934.1839   C 2014.5228,1934.1083 2012.224,1934.0327 2008.493,1934.0327   z  M 2003.8953,1949.8348   L 2003.8953,1960.4578   L 2011.2818,1960.4578   C 2014.1836,1960.4578 2015.9926,1960.3822 2016.784,1960.231   C 2017.9522,1960.0042 2018.9321,1959.4749 2019.6858,1958.6432   C 2020.4018,1957.8115 2020.7787,1956.6774 2020.7787,1955.2787   C 2020.7787,1954.0689 2020.5149,1953.0482 2019.9119,1952.2165   C 2019.3466,1951.3848 2018.5175,1950.78 2017.4246,1950.4019   C 2016.3317,1950.0239 2013.9952,1949.8348 2010.3396,1949.8348   z "
     style="fill:#000000;fill-rule:nonzero;fill-opacity:1;stroke:none;" />
</svg>
