<?xml version="1.0" encoding="UTF-8" standalone="no"?>
<svg
   xmlns:dc="http://purl.org/dc/elements/1.1/"
   xmlns:cc="http://creativecommons.org/ns#"
   xmlns:rdf="http://www.w3.org/1999/02/22-rdf-syntax-ns#"
   xmlns:svg="http://www.w3.org/2000/svg"
   xmlns="http://www.w3.org/2000/svg"
   id="svg17"
   height="112.9mm"
   width="112.9mm"
   version="1.0">
  <metadata
     id="metadata21">
    <rdf:RDF>
      <cc:Work
         rdf:about="">
        <dc:format>image/svg+xml</dc:format>
        <dc:type
           rdf:resource="http://purl.org/dc/dcmitype/StillImage" />
      </cc:Work>
    </rdf:RDF>
  </metadata>
  <defs
     id="defs3">
    <pattern
       y="0"
       x="0"
       height="6"
       width="6"
       patternUnits="userSpaceOnUse"
       id="EMFhbasepattern" />
  </defs>
  <path
     id="path5"
     d="  M 1092.1901,1055.5942   L 1124.1752,1055.5942   L 1124.1752,1135.5381   L 1161.4848,1215.4441   L 1054.8805,1215.4441   L 1092.1901,1135.5381   z "
     style="fill:#ffff00;fill-rule:nonzero;fill-opacity:1;stroke:#00ff00;stroke-width:5.3245535px;stroke-linecap:butt;stroke-linejoin:miter;stroke-miterlimit:282;stroke-dasharray:none;stroke-opacity:1;" />
  <path
     id="path7"
     d="  M 1098.9497,1188.8214   L 1098.9497,1164.3888   L 1108.126,1164.3888   C 1109.9764,1164.3888 1111.4869,1164.6532 1112.6198,1165.1441   C 1113.7149,1165.635 1114.6212,1166.3903 1115.2632,1167.4099   C 1115.9052,1168.4295 1116.2073,1169.5246 1116.2073,1170.6575   C 1116.2073,1171.6771 1115.9052,1172.6589 1115.3765,1173.603   C 1114.81,1174.5093 1113.9415,1175.2645 1112.8086,1175.831   C 1114.2814,1176.2464 1115.4142,1177.0016 1116.2073,1178.0212   C 1117.0003,1179.0786 1117.3779,1180.3247 1117.3779,1181.722   C 1117.3779,1182.8926 1117.1513,1183.95 1116.6604,1184.9318   C 1116.1695,1185.9136 1115.603,1186.6689 1114.8856,1187.1976   C 1114.1681,1187.7262 1113.2618,1188.1416 1112.2044,1188.406   C 1111.147,1188.6703 1109.8253,1188.8214 1108.2771,1188.8214   z  M 1102.1973,1174.6603   L 1107.4463,1174.6603   C 1108.8813,1174.6603 1109.9386,1174.547 1110.5428,1174.3582   C 1111.3736,1174.1316 1111.9778,1173.7163 1112.3932,1173.1498   C 1112.8086,1172.5834 1113.0352,1171.8659 1113.0352,1171.0351   C 1113.0352,1170.2043 1112.8464,1169.4868 1112.431,1168.8826   C 1112.0533,1168.2784 1111.4869,1167.863 1110.7694,1167.6364   C 1110.0519,1167.4099 1108.8057,1167.2588 1107.0687,1167.2588   L 1102.1973,1167.2588   z  M 1102.1973,1185.9136   L 1108.2771,1185.9136   C 1109.2967,1185.9136 1110.0519,1185.8759 1110.4673,1185.8003   C 1111.2226,1185.6871 1111.8268,1185.4605 1112.3177,1185.1584   C 1112.8086,1184.8185 1113.224,1184.3654 1113.5639,1183.7989   C 1113.866,1183.1947 1114.0548,1182.515 1114.0548,1181.722   C 1114.0548,1180.8157 1113.7904,1180.0226 1113.3373,1179.3429   C 1112.8841,1178.7009 1112.2422,1178.21 1111.4114,1177.9457   C 1110.5806,1177.6813 1109.3722,1177.5303 1107.8239,1177.5303   L 1102.1973,1177.5303   z "
     style="fill:#00ff00;fill-rule:nonzero;fill-opacity:1;stroke:#00ff00;stroke-width:1.0573581px;stroke-linecap:butt;stroke-linejoin:miter;stroke-miterlimit:282;stroke-dasharray:none;stroke-opacity:1;" />
  <path
     id="path9"
     d="  M 961.11548,1118.5071   L 1030.3347,1118.5071   L 1030.3347,1151.4362   L 961.11548,1151.4362   z "
     style="fill:#ffffff;fill-rule:nonzero;fill-opacity:1;stroke:#ffffff;stroke-width:1.0573581px;stroke-linecap:butt;stroke-linejoin:miter;stroke-miterlimit:282;stroke-dasharray:none;stroke-opacity:1;" />
  <path
     id="path11"
     d="  M 966.0624,1149.3593   L 966.0624,1121.9057   L 976.33388,1121.9057   C 978.4486,1121.9057 980.14792,1122.2078 981.39409,1122.7365   C 982.67803,1123.3029 983.65986,1124.1715 984.37735,1125.3044   C 985.09485,1126.475 985.47247,1127.6834 985.47247,1128.9296   C 985.47247,1130.1002 985.13261,1131.2331 984.49064,1132.2527   C 983.84867,1133.2723 982.90461,1134.1409 981.62067,1134.7451   C 983.28223,1135.236 984.56617,1136.0668 985.43471,1137.2374   C 986.34102,1138.4458 986.79417,1139.8053 986.79417,1141.4291   C 986.79417,1142.713 986.52983,1143.8837 985.96339,1145.0165   C 985.43471,1146.1117 984.75498,1146.9424 983.96196,1147.5466   C 983.16894,1148.1508 982.14935,1148.604 980.94094,1148.9061   C 979.73253,1149.2082 978.25978,1149.3593 976.52269,1149.3593   z  M 969.68763,1133.4611   L 975.61639,1133.4611   C 977.24019,1133.4611 978.37307,1133.3478 979.09056,1133.1213   C 979.99687,1132.8569 980.71436,1132.4038 981.16752,1131.7618   C 981.65843,1131.1198 981.88501,1130.3268 981.88501,1129.3827   C 981.88501,1128.4387 981.65843,1127.6457 981.20528,1126.9659   C 980.78989,1126.2862 980.14792,1125.7953 979.3549,1125.5309   C 978.52412,1125.2666 977.1269,1125.1533 975.16323,1125.1533   L 969.68763,1125.1533   z  M 969.68763,1146.1494   L 976.52269,1146.1494   C 977.69334,1146.1494 978.52412,1146.0739 978.97728,1145.9984   C 979.84582,1145.8473 980.52555,1145.6207 981.09199,1145.2431   C 981.65843,1144.9032 982.11159,1144.4123 982.48921,1143.7326   C 982.82908,1143.0529 983.01789,1142.2976 983.01789,1141.4291   C 983.01789,1140.3717 982.75355,1139.5032 982.22488,1138.7479   C 981.6962,1137.9927 980.9787,1137.464 980.03463,1137.1619   C 979.12833,1136.8598 977.76887,1136.7087 976.03178,1136.7087   L 969.68763,1136.7087   z "
     style="fill:#00ff00;fill-rule:nonzero;fill-opacity:1;stroke:#00ff00;stroke-width:1.0573581px;stroke-linecap:butt;stroke-linejoin:miter;stroke-miterlimit:282;stroke-dasharray:none;stroke-opacity:1;" />
  <path
     id="path13"
     d="  M 992.45859,1149.3593   L 992.45859,1121.9057   L 996.08382,1121.9057   L 996.08382,1149.3593   z "
     style="fill:#00ff00;fill-rule:nonzero;fill-opacity:1;stroke:#00ff00;stroke-width:1.0573581px;stroke-linecap:butt;stroke-linejoin:miter;stroke-miterlimit:282;stroke-dasharray:none;stroke-opacity:1;" />
  <path
     id="path15"
     d="  M 1001.3706,1135.9912   C 1001.3706,1131.4597 1002.579,1127.8722 1005.0336,1125.3044   C 1007.4882,1122.6987 1010.6603,1121.4148 1014.5121,1121.4148   C 1017.0422,1121.4148 1019.3457,1122.019 1021.3849,1123.2274   C 1023.4241,1124.4358 1024.9724,1126.1351 1026.0297,1128.3254   C 1027.0871,1130.4779 1027.6157,1132.9324 1027.6157,1135.6891   C 1027.6157,1138.4836 1027.0493,1140.9759 1025.9542,1143.1662   C 1024.8213,1145.3564 1023.2353,1147.018 1021.1583,1148.1508   C 1019.1191,1149.2837 1016.8911,1149.8502 1014.5121,1149.8502   C 1011.9064,1149.8502 1009.6029,1149.2082 1007.5637,1147.962   C 1005.5245,1146.7159 1003.9762,1145.0165 1002.9189,1142.8641   C 1001.8993,1140.7116 1001.3706,1138.408 1001.3706,1135.9912   z  M 1005.1091,1136.0668   C 1005.1091,1139.3521 1006.0154,1141.9577 1007.7903,1143.8837   C 1009.5651,1145.7718 1011.7931,1146.7159 1014.4743,1146.7159   C 1017.1932,1146.7159 1019.459,1145.7718 1021.2338,1143.8459   C 1023.0087,1141.92 1023.8772,1139.2011 1023.8772,1135.6514   C 1023.8772,1133.4234 1023.4996,1131.4597 1022.7443,1129.7981   C 1021.9891,1128.1366 1020.894,1126.8526 1019.4212,1125.9463   C 1017.9862,1125.0023 1016.3247,1124.5491 1014.5498,1124.5491   C 1011.9442,1124.5491 1009.7539,1125.4554 1007.9036,1127.1925   C 1006.0532,1128.9673 1005.1091,1131.9128 1005.1091,1136.0668   z "
     style="fill:#00ff00;fill-rule:nonzero;fill-opacity:1;stroke:#00ff00;stroke-width:1.0573581px;stroke-linecap:butt;stroke-linejoin:miter;stroke-miterlimit:282;stroke-dasharray:none;stroke-opacity:1;" />
</svg>
