<?xml version="1.0" encoding="UTF-8" standalone="no"?>
<svg
   xmlns:dc="http://purl.org/dc/elements/1.1/"
   xmlns:cc="http://creativecommons.org/ns#"
   xmlns:rdf="http://www.w3.org/1999/02/22-rdf-syntax-ns#"
   xmlns:svg="http://www.w3.org/2000/svg"
   xmlns="http://www.w3.org/2000/svg"
   id="svg11"
   height="112.9mm"
   width="112.9mm"
   version="1.0">
  <metadata
     id="metadata15">
    <rdf:RDF>
      <cc:Work
         rdf:about="">
        <dc:format>image/svg+xml</dc:format>
        <dc:type
           rdf:resource="http://purl.org/dc/dcmitype/StillImage" />
      </cc:Work>
    </rdf:RDF>
  </metadata>
  <defs
     id="defs3">
    <pattern
       y="0"
       x="0"
       height="6"
       width="6"
       patternUnits="userSpaceOnUse"
       id="EMFhbasepattern" />
  </defs>
  <path
     id="path5"
     d="  M 1981.453,2187.1891   C 1981.453,2309.9016 2162.233,2309.9016 2162.233,2187.1891   C 2284.562,2187.1891 2284.562,2005.8424 2162.233,2005.8424   C 2162.233,1883.1299 1981.453,1883.1299 1981.453,2005.8424   C 1859.124,2005.8424 1859.124,2187.1891 1981.453,2187.1891   z "
     style="fill:#ffff80;fill-rule:nonzero;fill-opacity:1;stroke:#000000;stroke-width:10.62747px;stroke-linecap:butt;stroke-linejoin:miter;stroke-miterlimit:282;stroke-dasharray:none;stroke-opacity:1;" />
  <path
     id="path7"
     d="  M 2167.1699,2129.4243   C 2165.8886,2129.1597 2160.6502,2131.2011 2151.4925,2135.5486   C 2145.6135,2138.1193 2138.83,2142.0509 2131.1797,2147.4191   C 2103.1036,2166.0944 2083.3184,2191.272 2071.8619,2222.9519   C 2071.3342,2222.9519 2070.5805,2222.3092 2069.563,2221.0239   C 2065.1914,2207.2254 2057.4281,2193.4268 2046.1976,2179.6283   C 2034.4396,2164.809 2020.9103,2152.5227 2005.6098,2142.8448   C 1998.4494,2138.2327 1988.6133,2133.6206 1976.1016,2129.0463   C 1975.9131,2128.517 1975.9131,2128.139 1976.1016,2127.8743   C 1979.4179,2126.3622 1983.9026,2124.4342 1989.5178,2122.1281   C 2004.0646,2117.2514 2019.5536,2106.1369 2036.0224,2088.7848   C 2052.4912,2071.3949 2063.2694,2055.0634 2068.3947,2039.7149   C 2069.1485,2037.6735 2070.3167,2035.5943 2071.8242,2033.5528   C 2076.6857,2048.6745 2085.8811,2064.3633 2099.4104,2080.7325   C 2113.6934,2098.3493 2128.391,2110.8624 2143.4277,2118.2721   C 2146.7441,2119.822 2152.1332,2122.2415 2159.5196,2125.5683   C 2161.8185,2125.8329 2164.3435,2127.1183 2167.1699,2129.4243   z "
     style="fill:#000000;fill-rule:nonzero;fill-opacity:1;stroke:none;" />
  <path
     id="path9"
     d="  M 2055.9206,1987.4695   L 2071.7488,1987.4695   C 2074.8767,1987.4695 2077.2133,1987.5829 2078.7584,1987.8476   C 2080.2658,1988.1122 2081.6602,1988.6415 2082.8662,1989.4731   C 2084.0721,1990.3048 2085.0897,1991.439 2085.9188,1992.7999   C 2086.7102,1994.1987 2087.1247,1995.7486 2087.1247,1997.4498   C 2087.1247,1999.3022 2086.6348,2001.0034 2085.6173,2002.5534   C 2084.6374,2004.1412 2083.2807,2005.2753 2081.5472,2006.0692   C 2083.9591,2006.7875 2085.8434,2007.9594 2087.1247,2009.6606   C 2088.406,2011.3618 2089.0844,2013.3654 2089.0844,2015.6715   C 2089.0844,2017.4483 2088.6698,2019.2251 2087.8031,2020.9262   C 2086.974,2022.6274 2085.8434,2023.9884 2084.3736,2025.0091   C 2082.9416,2026.0298 2081.1326,2026.6725 2079.0222,2026.8993   C 2077.7032,2027.0505 2074.4622,2027.1261 2069.3746,2027.1639   L 2055.9206,2027.1639   z  M 2063.9101,1994.0475   L 2063.9101,2003.2339   L 2069.1485,2003.2339   C 2072.2387,2003.2339 2074.1984,2003.1961 2074.9521,2003.1205   C 2076.3088,2002.9314 2077.4017,2002.4778 2078.1554,2001.6839   C 2078.9468,2000.89 2079.3614,1999.8693 2079.3614,1998.584   C 2079.3614,1997.3742 2079.0222,1996.3535 2078.3439,1995.5974   C 2077.6655,1994.8413 2076.648,1994.3499 2075.329,1994.1987   C 2074.5376,1994.1231 2072.2387,1994.0475 2068.5078,1994.0475   z  M 2063.9101,2009.8496   L 2063.9101,2020.4726   L 2071.2966,2020.4726   C 2074.1984,2020.4726 2076.0073,2020.397 2076.7987,2020.2458   C 2077.967,2020.0189 2078.9468,2019.4897 2079.7006,2018.658   C 2080.4166,2017.8263 2080.7935,2016.6922 2080.7935,2015.2934   C 2080.7935,2014.0837 2080.5296,2013.063 2079.9267,2012.2313   C 2079.3614,2011.3996 2078.5323,2010.7947 2077.4394,2010.4167   C 2076.3465,2010.0386 2074.01,2009.8496 2070.3544,2009.8496   z "
     style="fill:#000000;fill-rule:nonzero;fill-opacity:1;stroke:none;" />
</svg>
