<?xml version="1.0" encoding="UTF-8" standalone="no"?>
<svg
   xmlns:dc="http://purl.org/dc/elements/1.1/"
   xmlns:cc="http://creativecommons.org/ns#"
   xmlns:rdf="http://www.w3.org/1999/02/22-rdf-syntax-ns#"
   xmlns:svg="http://www.w3.org/2000/svg"
   xmlns="http://www.w3.org/2000/svg"
   id="svg7"
   height="59.73mm"
   width="78.5mm"
   version="1.0">
  <metadata
     id="metadata11">
    <rdf:RDF>
      <cc:Work
         rdf:about="">
        <dc:format>image/svg+xml</dc:format>
        <dc:type
           rdf:resource="http://purl.org/dc/dcmitype/StillImage" />
      </cc:Work>
    </rdf:RDF>
  </metadata>
  <defs
     id="defs3">
    <pattern
       y="0"
       x="0"
       height="6"
       width="6"
       patternUnits="userSpaceOnUse"
       id="EMFhbasepattern" />
  </defs>
  <path
     id="path5"
     d="  M 77.122489,84.674898   L 5.7142569,96.023493   L 5.8341365,97.502007   L 31.168674,99.22028   C 28.251606,101.21827 18.261646,103.3761 13.826104,104.89458   C 3.7562248,108.2512 6.0738955,106.21325 0.5194779,114.56486   L 13.746185,114.84458   L 9.7102408,118.401   C 16.663253,118.401 22.33755,118.64076 28.171686,119.12028   C 33.726104,119.5998 35.444377,114.16526 41.877911,113.76566   C 53.386345,113.08634 64.015662,114.56486 78.041565,114.80462   L 74.804818,116.84257   C 77.202409,117.04237 77.562047,117.60181 80.199396,117.60181   L 86.313252,117.60181   L 86.513051,120.91847   L 97.781725,125.71365   L 103.93554,125.27409   C 110.32911,129.5498 111.24819,134.18514 123.8755,134.46486   C 124.71466,144.89438 126.15321,149.21004 135.34397,151.32791   L 135.34397,154.40482   C 135.34397,162.75642 136.18313,172.90622 143.53574,173.6255   L 148.37088,194.24478   L 146.85241,194.24478   L 146.85241,195.76325   C 145.45381,194.84417 141.45783,191.16787 139.93936,191.16787   L 139.18012,191.16787   C 137.10221,191.16787 137.06225,191.52751 135.34397,191.92711   C 137.74156,195.20381 145.57369,198.64036 147.01225,202.51646   C 149.17008,208.43052 147.73152,217.1018 147.8514,223.01586   L 151.40783,225.49337   L 154.5247,224.89397   L 154.76446,221.81707   L 154.5247,211.10783   C 157.24197,212.90602 164.99417,222.5763 167.51164,222.5763   L 171.34779,222.5763   C 169.58956,214.90401 164.19498,213.38554 160.75843,207.63132   L 175.18393,211.86707   C 171.38775,206.19277 171.98715,205.15381 164.15502,202.95602   C 152.32691,199.67931 157.16205,195.56345 152.40683,194.20482   L 148.37088,173.54558   C 152.12711,172.66646 153.7255,169.66948 153.7255,165.11405   L 153.9253,158.96024   L 152.96626,149.0502   L 156.80241,149.0502   C 159.5996,149.0502 159.47972,148.13112 162.15703,147.49176   C 162.31687,153.60562 166.71245,160.39879 172.6265,160.63855   L 184.3747,185.05401   C 183.45562,186.41265 182.85622,186.37269 182.85622,188.09096   L 182.9761,190.60843   L 166.15301,187.33172   L 165.99317,188.09096   C 169.26988,190.96807 180.17891,194.72429 185.77329,198.96004   C 190.08895,202.23674 190.52851,201.43755 193.7253,206.35261   C 195.08393,208.3506 198.88012,214.90401 201.23775,214.90401   L 204.31466,214.90401   L 205.03393,214.54437   L 198.4006,202.19678   L 215.02389,209.54939   C 214.86405,201.43755 206.83213,203.6753 201.23775,198.84016   L 212.74618,198.84016   C 207.79116,194.5245 206.79217,195.20381 199,194.20482   C 192.64638,193.36566 192.3267,189.64939 188.81024,186.01305   C 184.49458,181.49759 180.93815,167.03213 177.5016,160.51867   C 182.21686,153.44578 181.33775,155.08413 181.33775,143.65562   C 199.95903,134.74458 202.95602,135.42389 217.54136,120.87851   C 228.09076,110.28916 232.7261,97.422087 239.79899,83.396184   C 243.35542,76.363252 245.51325,70.569075 248.51024,63.016666   C 251.30743,56.023694 251.06767,44.71506 254.10461,38.681124   C 263.1755,20.819076 288.86967,26.333534 293.94457,18.581325   L 277.08152,19.540361   L 277.12148,18.861044   L 296.26224,16.503413   C 287.67088,9.0309236 277.64096,11.268675 264.01465,9.6303211   C 255.78293,8.671285 252.94578,12.627309 246.87188,8.3915661   C 241.35743,4.5154618 240.87791,3.9160642 232.84598,2.47751   C 220.97791,0.39959839 211.02791,6.9130521 203.95502,12.30763   C 197.48152,17.30261 191.60743,32.20763 187.57148,35.764056   C 186.61245,36.603212 163.8753,46.273493 160.11907,48.151606   C 148.8504,53.785943 146.53273,57.781927 132.18715,60.059638   C 107.49197,64.015662 94.06546,73.326304 77.122489,84.674898   z "
     style="fill:#1f1a17;fill-rule:evenodd;fill-opacity:1;stroke:none;" />
</svg>
