<?xml version="1.0" encoding="UTF-8" standalone="no"?>
<svg
   xmlns:dc="http://purl.org/dc/elements/1.1/"
   xmlns:cc="http://creativecommons.org/ns#"
   xmlns:rdf="http://www.w3.org/1999/02/22-rdf-syntax-ns#"
   xmlns:svg="http://www.w3.org/2000/svg"
   xmlns="http://www.w3.org/2000/svg"
   id="svg11"
   height="95.75mm"
   width="95.75mm"
   version="1.0">
  <metadata
     id="metadata15">
    <rdf:RDF>
      <cc:Work
         rdf:about="">
        <dc:format>image/svg+xml</dc:format>
        <dc:type
           rdf:resource="http://purl.org/dc/dcmitype/StillImage" />
      </cc:Work>
    </rdf:RDF>
  </metadata>
  <defs
     id="defs3">
    <pattern
       y="0"
       x="0"
       height="6"
       width="6"
       patternUnits="userSpaceOnUse"
       id="EMFhbasepattern" />
  </defs>
  <path
     id="path5"
     d="  M 54.345381,54.345381   L 54.345381,307.53092   L 307.53092,307.53092   L 307.53092,54.345381   L 54.345381,54.345381   z "
     style="fill:#aaffaa;fill-rule:evenodd;fill-opacity:1;stroke:none;" />
  <path
     id="path7"
     d="  M 54.345381,54.345381   L 307.53092,54.345381   L 307.53092,307.53092   L 54.345381,307.53092   z "
     style="fill:none;stroke:#000000;stroke-width:9.5903616px;stroke-linecap:butt;stroke-linejoin:miter;stroke-miterlimit:10;stroke-dasharray:none;stroke-opacity:1;" />
  <path
     id="path9"
     d="  M 108.6508,203.4755   L 108.6508,141.69759   L 131.82751,141.69759   C 136.54277,141.69759 140.33895,142.29699 143.1761,143.5757   C 146.01325,144.81446 148.251,146.73253 149.88936,149.32992   C 151.48775,151.92731 152.28695,154.64458 152.28695,157.48172   C 152.28695,160.11907 151.56767,162.63654 150.16907,164.95421   C 148.73052,167.27189 146.57269,169.15 143.65562,170.58855   C 147.41185,171.70743 150.28895,173.54558 152.28695,176.22289   C 154.28494,178.86024 155.28393,181.97711 155.28393,185.57349   C 155.28393,188.4506 154.68454,191.12791 153.44578,193.64538   C 152.24699,196.12289 150.72851,198.04096 148.93032,199.3996   C 147.13213,200.71827 144.89438,201.75723 142.17711,202.43654   C 139.45984,203.11586 136.14317,203.4755 132.18715,203.4755   z  M 116.80261,167.63152   L 130.18915,167.63152   C 133.78554,167.63152 136.38293,167.39176 137.98132,166.91225   C 140.05923,166.31285 141.61767,165.27389 142.65662,163.8753   C 143.73554,162.43674 144.25502,160.63855 144.25502,158.44076   C 144.25502,156.40281 143.7755,154.60462 142.7765,153.04618   C 141.77751,151.48775 140.37891,150.40883 138.54076,149.8494   C 136.74257,149.25 133.58574,148.97028 129.1502,148.97028   L 116.80261,148.97028   z  M 116.80261,196.16285   L 132.18715,196.16285   C 134.8245,196.16285 136.70261,196.08293 137.74156,195.88313   C 139.65964,195.56345 141.21807,195.00401 142.49679,194.20482   C 143.73554,193.40562 144.7745,192.28674 145.61365,190.76827   C 146.41285,189.2498 146.81245,187.53152 146.81245,185.57349   C 146.81245,183.25582 146.21305,181.25783 145.05421,179.53956   C 143.85542,177.86124 142.21707,176.66245 140.13915,175.98313   C 138.06124,175.30381 135.0243,174.94417 131.10823,174.94417   L 116.80261,174.94417   z  M 166.19297,203.4755   L 166.19297,141.69759   L 174.38474,141.69759   L 174.38474,196.16285   L 204.79417,196.16285   L 204.79417,203.4755   z  M 214.2247,203.4755   L 214.2247,141.69759   L 222.3765,141.69759   L 222.3765,172.30682   L 253.06566,141.69759   L 264.13453,141.69759   L 238.24056,166.71245   L 265.29337,203.4755   L 254.50421,203.4755   L 232.48634,172.18695   L 222.3765,182.05703   L 222.3765,203.4755   z "
     style="fill:#000000;fill-rule:evenodd;fill-opacity:1;stroke:none;" />
</svg>
