<?xml version="1.0" encoding="UTF-8" standalone="no"?>
<svg
   xmlns:dc="http://purl.org/dc/elements/1.1/"
   xmlns:cc="http://creativecommons.org/ns#"
   xmlns:rdf="http://www.w3.org/1999/02/22-rdf-syntax-ns#"
   xmlns:svg="http://www.w3.org/2000/svg"
   xmlns="http://www.w3.org/2000/svg"
   id="svg11"
   height="130.27mm"
   width="130.27mm"
   version="1.0">
  <metadata
     id="metadata15">
    <rdf:RDF>
      <cc:Work
         rdf:about="">
        <dc:format>image/svg+xml</dc:format>
        <dc:type
           rdf:resource="http://purl.org/dc/dcmitype/StillImage" />
      </cc:Work>
    </rdf:RDF>
  </metadata>
  <defs
     id="defs3">
    <pattern
       y="0"
       x="0"
       height="6"
       width="6"
       patternUnits="userSpaceOnUse"
       id="EMFhbasepattern" />
  </defs>
  <path
     id="path5"
     d="  M 164.63454,327.67068   C 164.63454,437.95983 327.67068,437.95983 327.67068,327.67068   C 437.95983,327.67068 437.95983,164.63454 327.67068,164.63454   C 327.67068,54.345381 164.63454,54.345381 164.63454,164.63454   C 54.345381,164.63454 54.345381,327.67068 164.63454,327.67068   z "
     style="fill:#ffff80;fill-rule:evenodd;fill-opacity:1;stroke:none;" />
  <path
     id="path7"
     d="  M 164.63454,327.67068   C 164.63454,437.95983 327.67068,437.95983 327.67068,327.67068   C 437.95983,327.67068 437.95983,164.63454 327.67068,164.63454   C 327.67068,54.345381 164.63454,54.345381 164.63454,164.63454   C 54.345381,164.63454 54.345381,327.67068 164.63454,327.67068  "
     style="fill:none;stroke:#000000;stroke-width:9.5903616px;stroke-linecap:butt;stroke-linejoin:miter;stroke-miterlimit:10;stroke-dasharray:none;stroke-opacity:1;" />
  <path
     id="path9"
     d="  M 173.86526,268.68996   L 173.86526,206.91205   L 197.04197,206.91205   C 201.75723,206.91205 205.55341,207.51144 208.39056,208.79016   C 211.22771,210.02891 213.46546,211.94698 215.10381,214.54437   C 216.70221,217.14176 217.5014,219.85903 217.5014,222.69618   C 217.5014,225.33353 216.78213,227.851 215.38353,230.16867   C 213.94498,232.48634 211.78715,234.36445 208.87008,235.80301   C 212.6263,236.92188 215.50341,238.76004 217.5014,241.43735   C 219.49939,244.0747 220.49839,247.19156 220.49839,250.78795   C 220.49839,253.66506 219.89899,256.34237 218.66024,258.85984   C 217.46144,261.33735 215.94297,263.25542 214.14478,264.61405   C 212.34658,265.93273 210.10883,266.97168 207.39156,267.651   C 204.67429,268.33032 201.35763,268.68996 197.4016,268.68996   z  M 182.01707,232.84598   L 195.40361,232.84598   C 199,232.84598 201.59739,232.60622 203.19578,232.1267   C 205.27369,231.52731 206.83213,230.48835 207.87108,229.08976   C 208.95,227.6512 209.46947,225.85301 209.46947,223.65522   C 209.46947,221.61727 208.98996,219.81907 207.99096,218.26064   C 206.99196,216.70221 205.59337,215.62329 203.75522,215.06385   C 201.95703,214.46445 198.8002,214.18474 194.36466,214.18474   L 182.01707,214.18474   z  M 182.01707,261.37731   L 197.4016,261.37731   C 200.03895,261.37731 201.91707,261.29739 202.95602,261.09759   C 204.87409,260.77791 206.43253,260.21847 207.71124,259.41927   C 208.95,258.62008 209.98895,257.5012 210.82811,255.98273   C 211.62731,254.46425 212.0269,252.74598 212.0269,250.78795   C 212.0269,248.47028 211.42751,246.47229 210.26867,244.75401   C 209.06988,243.0757 207.43152,241.8769 205.35361,241.19759   C 203.2757,240.51827 200.23875,240.15863 196.32269,240.15863   L 182.01707,240.15863   z  M 231.40743,268.68996   L 231.40743,206.91205   L 239.59919,206.91205   L 239.59919,261.37731   L 270.00863,261.37731   L 270.00863,268.68996   z  M 279.43915,268.68996   L 279.43915,206.91205   L 287.59096,206.91205   L 287.59096,237.52128   L 318.28012,206.91205   L 329.34899,206.91205   L 303.45502,231.9269   L 330.50783,268.68996   L 319.71867,268.68996   L 297.7008,237.4014   L 287.59096,247.27148   L 287.59096,268.68996   z "
     style="fill:#000000;fill-rule:evenodd;fill-opacity:1;stroke:none;" />
</svg>
