<?xml version="1.0" encoding="UTF-8" standalone="no"?>
<svg
   xmlns:dc="http://purl.org/dc/elements/1.1/"
   xmlns:cc="http://creativecommons.org/ns#"
   xmlns:rdf="http://www.w3.org/1999/02/22-rdf-syntax-ns#"
   xmlns:svg="http://www.w3.org/2000/svg"
   xmlns="http://www.w3.org/2000/svg"
   id="svg13"
   height="95.75mm"
   width="95.75mm"
   version="1.0">
  <metadata
     id="metadata17">
    <rdf:RDF>
      <cc:Work
         rdf:about="">
        <dc:format>image/svg+xml</dc:format>
        <dc:type
           rdf:resource="http://purl.org/dc/dcmitype/StillImage" />
      </cc:Work>
    </rdf:RDF>
  </metadata>
  <defs
     id="defs3">
    <pattern
       y="0"
       x="0"
       height="6"
       width="6"
       patternUnits="userSpaceOnUse"
       id="EMFhbasepattern" />
  </defs>
  <path
     id="path5"
     d="  M 54.345381,54.345381   L 54.345381,307.53092   L 307.53092,307.53092   L 307.53092,54.345381   L 54.345381,54.345381   z "
     style="fill:#aaffaa;fill-rule:evenodd;fill-opacity:1;stroke:none;" />
  <path
     id="path7"
     d="  M 54.345381,54.345381   L 307.53092,54.345381   L 307.53092,307.53092   L 54.345381,307.53092   z "
     style="fill:none;stroke:#000000;stroke-width:9.5903616px;stroke-linecap:butt;stroke-linejoin:miter;stroke-miterlimit:10;stroke-dasharray:none;stroke-opacity:1;" />
  <path
     id="path9"
     d="  M 90.948593,198.56044   L 90.948593,150.52871   L 108.97048,150.52871   C 112.64679,150.52871 115.56385,151.00823 117.8016,151.96727   C 119.9994,152.96626 121.75763,154.44478 122.99638,156.48273   C 124.2751,158.48072 124.8745,160.59859 124.8745,162.79638   C 124.8745,164.87429 124.31506,166.79237 123.23614,168.63052   C 122.11727,170.42871 120.43895,171.90723 118.16124,172.98614   C 121.07831,173.86526 123.31606,175.30381 124.8745,177.38172   C 126.43293,179.41968 127.23213,181.85723 127.23213,184.65442   C 127.23213,186.89217 126.75261,188.97008 125.79357,190.92811   C 124.83454,192.84618 123.6757,194.36466 122.27711,195.40361   C 120.87851,196.44257 119.12028,197.24176 117.00241,197.76124   C 114.88454,198.32068 112.32711,198.56044 109.2502,198.56044   z  M 97.302207,170.70843   L 107.69177,170.70843   C 110.48895,170.70843 112.52691,170.50863 113.7257,170.14899   C 115.36405,169.66948 116.56285,168.87028 117.40201,167.7514   C 118.2012,166.63253 118.64076,165.23393 118.64076,163.55562   C 118.64076,161.95723 118.24116,160.55863 117.48193,159.35984   C 116.72269,158.16104 115.64377,157.32189 114.20522,156.88233   C 112.76667,156.40281 110.32911,156.20301 106.89257,156.20301   L 97.302207,156.20301   z  M 97.302207,192.88614   L 109.2502,192.88614   C 111.28815,192.88614 112.76667,192.84618 113.56586,192.68634   C 115.04438,192.40662 116.28313,191.96707 117.24217,191.36767   C 118.24116,190.76827 119.04036,189.84919 119.67972,188.69036   C 120.31907,187.53152 120.63875,186.17289 120.63875,184.65442   C 120.63875,182.85622 120.15924,181.29779 119.24016,179.97911   C 118.32108,178.66044 117.04237,177.74136 115.44397,177.18193   C 113.80562,176.66245 111.44799,176.38273 108.41104,176.38273   L 97.302207,176.38273   z  M 134.0253,175.18393   C 134.0253,167.19197 136.18313,160.95823 140.45883,156.44277   C 144.73454,151.92731 150.28895,149.6496 157.04217,149.6496   C 161.47771,149.6496 165.47369,150.72851 169.03012,152.84638   C 172.58654,154.96425 175.30381,157.92128 177.18193,161.71747   C 179.06004,165.51365 179.97911,169.78935 179.97911,174.6245   C 179.97911,179.4996 179.02008,183.85522 177.02209,187.69136   C 175.06405,191.52751 172.30682,194.44458 168.67048,196.44257   C 165.07409,198.4006 161.19799,199.3996 157.00221,199.3996   C 152.48674,199.3996 148.4508,198.32068 144.89438,196.12289   C 141.33795,193.9251 138.62068,190.96807 136.78253,187.17188   C 134.94438,183.3757 134.0253,179.37972 134.0253,175.18393   z  M 140.57871,175.26385   C 140.57871,181.05803 142.13715,185.61345 145.25401,188.97008   C 148.37088,192.28674 152.28695,193.96506 156.96225,193.96506   C 161.75743,193.96506 165.71345,192.28674 168.79036,188.89016   C 171.90723,185.53353 173.4257,180.77831 173.4257,174.58454   C 173.4257,170.66847 172.78634,167.27189 171.46767,164.35482   C 170.14899,161.43775 168.19096,159.16004 165.63353,157.56164   C 163.11606,155.96325 160.23895,155.12409 157.08213,155.12409   C 152.56666,155.12409 148.69056,156.68253 145.45381,159.7994   C 142.21707,162.8763 140.57871,168.03112 140.57871,175.26385   z  M 187.97108,198.56044   L 187.97108,150.52871   L 197.56144,150.52871   L 208.95,184.53454   C 209.98895,187.73132 210.74819,190.08895 211.22771,191.64739   C 211.78715,189.92911 212.6263,187.33172 213.78514,183.93514   L 225.29357,150.52871   L 233.84498,150.52871   L 233.84498,198.56044   L 227.73112,198.56044   L 227.73112,158.36084   L 213.74518,198.56044   L 208.03092,198.56044   L 194.1249,157.68152   L 194.1249,198.56044   z  M 243.83494,198.56044   L 243.83494,150.52871   L 261.85682,150.52871   C 265.53313,150.52871 268.49016,151.00823 270.72791,151.96727   C 272.9257,152.96626 274.68393,154.44478 275.92269,156.48273   C 277.16144,158.48072 277.8008,160.59859 277.8008,162.79638   C 277.8008,164.87429 277.24136,166.79237 276.12249,168.63052   C 275.00361,170.42871 273.3253,171.90723 271.08755,172.98614   C 274.00461,173.86526 276.24237,175.30381 277.8008,177.38172   C 279.35923,179.41968 280.11847,181.85723 280.11847,184.65442   C 280.11847,186.89217 279.63895,188.97008 278.71988,190.92811   C 277.76084,192.84618 276.602,194.36466 275.16345,195.40361   C 273.80482,196.44257 272.04658,197.24176 269.92871,197.76124   C 267.81084,198.32068 265.21345,198.56044 262.1765,198.56044   z  M 250.18855,170.70843   L 260.57811,170.70843   C 263.41526,170.70843 265.45321,170.50863 266.652,170.14899   C 268.29036,169.66948 269.48915,168.87028 270.32831,167.7514   C 271.12751,166.63253 271.5271,165.23393 271.5271,163.55562   C 271.5271,161.95723 271.16747,160.55863 270.40823,159.35984   C 269.64899,158.16104 268.53012,157.32189 267.13152,156.88233   C 265.69297,156.40281 263.25542,156.20301 259.81887,156.20301   L 250.18855,156.20301   z  M 250.18855,192.88614   L 262.1765,192.88614   C 264.21445,192.88614 265.65301,192.84618 266.49216,192.68634   C 267.97068,192.40662 269.16947,191.96707 270.16847,191.36767   C 271.16747,190.76827 271.96666,189.84919 272.60602,188.69036   C 273.24538,187.53152 273.5251,186.17289 273.5251,184.65442   C 273.5251,182.85622 273.08554,181.29779 272.16646,179.97911   C 271.24739,178.66044 269.96867,177.74136 268.33032,177.18193   C 266.73192,176.66245 264.37429,176.38273 261.29739,176.38273   L 250.18855,176.38273   z "
     style="fill:#000000;fill-rule:evenodd;fill-opacity:1;stroke:none;" />
  <path
     id="path11"
     d="  M 181.09799,124.39498   C 181.05803,123.63574 181.05803,123.03634 181.05803,122.63675   C 181.05803,120.31907 181.37771,118.32108 182.01707,116.64277   C 182.49658,115.36405 183.29578,114.08534 184.3747,112.80662   C 185.13393,111.84759 186.57249,110.48895 188.61044,108.69076   C 190.64839,106.89257 191.96707,105.45401 192.60642,104.3751   C 193.20582,103.29618 193.5255,102.13735 193.5255,100.85863   C 193.5255,98.580922 192.60642,96.54297 190.80823,94.824697   C 189.01004,93.066465 186.85221,92.227308 184.21486,92.227308   C 181.73735,92.227308 179.61948,92.986545 177.94116,94.584938   C 176.26285,96.143372 175.14397,98.620882 174.6245,101.93755   L 168.5506,101.21827   C 169.11004,96.74277 170.74839,93.306224 173.4257,90.948593   C 176.14297,88.551003 179.69939,87.352208 184.13494,87.352208   C 188.8502,87.352208 192.56646,88.630922 195.36365,91.188352   C 198.16084,93.745782 199.55943,96.862649 199.55943,100.45903   C 199.55943,102.57691 199.07992,104.49498 198.08092,106.29317   C 197.12188,108.0514 195.20381,110.20924 192.3267,112.72671   C 190.40863,114.44498 189.12992,115.68373 188.57048,116.52289   C 187.97108,117.32209 187.53152,118.24116 187.2518,119.28012   C 186.97209,120.35903 186.81225,122.03735 186.77229,124.39498   z  M 180.73835,136.22309   L 180.73835,129.50984   L 187.4516,129.50984   L 187.4516,136.22309   z "
     style="fill:#000000;fill-rule:evenodd;fill-opacity:1;stroke:none;" />
</svg>
