<?xml version="1.0" encoding="UTF-8" standalone="no"?>
<svg
   xmlns:dc="http://purl.org/dc/elements/1.1/"
   xmlns:cc="http://creativecommons.org/ns#"
   xmlns:rdf="http://www.w3.org/1999/02/22-rdf-syntax-ns#"
   xmlns:svg="http://www.w3.org/2000/svg"
   xmlns="http://www.w3.org/2000/svg"
   id="svg11"
   height="125.53mm"
   width="95.75mm"
   version="1.0">
  <metadata
     id="metadata15">
    <rdf:RDF>
      <cc:Work
         rdf:about="">
        <dc:format>image/svg+xml</dc:format>
        <dc:type
           rdf:resource="http://purl.org/dc/dcmitype/StillImage" />
      </cc:Work>
    </rdf:RDF>
  </metadata>
  <defs
     id="defs3">
    <pattern
       y="0"
       x="0"
       height="6"
       width="6"
       patternUnits="userSpaceOnUse"
       id="EMFhbasepattern" />
  </defs>
  <path
     id="path5"
     d="  M 307.53092,420.05783   C 307.53092,54.665059 54.345381,54.665059 54.345381,420.05783   z "
     style="fill:#80e0ff;fill-rule:evenodd;fill-opacity:1;stroke:none;" />
  <path
     id="path7"
     d="  M 307.53092,420.05783   C 307.53092,54.665059 54.345381,54.665059 54.345381,420.05783  "
     style="fill:none;stroke:#000000;stroke-width:9.5903616px;stroke-linecap:butt;stroke-linejoin:miter;stroke-miterlimit:10;stroke-dasharray:none;stroke-opacity:1;" />
  <path
     id="path9"
     d="  M 90.948593,322.59578   L 90.948593,274.56405   L 108.97048,274.56405   C 112.64679,274.56405 115.56385,275.04357 117.8016,276.00261   C 119.9994,277.0016 121.75763,278.48012 122.99638,280.51807   C 124.2751,282.51606 124.8745,284.63393 124.8745,286.83172   C 124.8745,288.90963 124.31506,290.82771 123.23614,292.66586   C 122.11727,294.46405 120.43895,295.94257 118.16124,297.02148   C 121.07831,297.9006 123.31606,299.33915 124.8745,301.41706   C 126.43293,303.45502 127.23213,305.89257 127.23213,308.68975   C 127.23213,310.92751 126.75261,313.00542 125.79357,314.96345   C 124.83454,316.88152 123.6757,318.4 122.27711,319.43895   C 120.87851,320.47791 119.12028,321.2771 117.00241,321.79658   C 114.88454,322.35602 112.32711,322.59578 109.2502,322.59578   z  M 97.302207,294.74377   L 107.69177,294.74377   C 110.48895,294.74377 112.52691,294.54397 113.7257,294.18433   C 115.36405,293.70482 116.56285,292.90562 117.40201,291.78674   C 118.2012,290.66787 118.64076,289.26927 118.64076,287.59096   C 118.64076,285.99257 118.24116,284.59397 117.48193,283.39518   C 116.72269,282.19638 115.64377,281.35722 114.20522,280.91767   C 112.76667,280.43815 110.32911,280.23835 106.89257,280.23835   L 97.302207,280.23835   z  M 97.302207,316.92148   L 109.2502,316.92148   C 111.28815,316.92148 112.76667,316.88152 113.56586,316.72168   C 115.04438,316.44196 116.28313,316.00241 117.24217,315.40301   C 118.24116,314.80361 119.04036,313.88453 119.67972,312.7257   C 120.31907,311.56686 120.63875,310.20823 120.63875,308.68975   C 120.63875,306.89156 120.15924,305.33313 119.24016,304.01445   C 118.32108,302.69578 117.04237,301.7767 115.44397,301.21726   C 113.80562,300.69779 111.44799,300.41807 108.41104,300.41807   L 97.302207,300.41807   z  M 134.0253,299.21927   C 134.0253,291.22731 136.18313,284.99357 140.45883,280.47811   C 144.73454,275.96265 150.28895,273.68494 157.04217,273.68494   C 161.47771,273.68494 165.47369,274.76385 169.03012,276.88172   C 172.58654,278.99959 175.30381,281.95662 177.18193,285.75281   C 179.06004,289.54899 179.97911,293.82469 179.97911,298.65984   C 179.97911,303.53494 179.02008,307.89056 177.02209,311.7267   C 175.06405,315.56285 172.30682,318.47992 168.67048,320.47791   C 165.07409,322.43594 161.19799,323.43494 157.00221,323.43494   C 152.48674,323.43494 148.4508,322.35602 144.89438,320.15823   C 141.33795,317.96044 138.62068,315.00341 136.78253,311.20722   C 134.94438,307.41104 134.0253,303.41506 134.0253,299.21927   z  M 140.57871,299.29919   C 140.57871,305.09337 142.13715,309.64879 145.25401,313.00542   C 148.37088,316.32208 152.28695,318.0004 156.96225,318.0004   C 161.75743,318.0004 165.71345,316.32208 168.79036,312.9255   C 171.90723,309.56887 173.4257,304.81365 173.4257,298.61988   C 173.4257,294.70381 172.78634,291.30722 171.46767,288.39016   C 170.14899,285.47309 168.19096,283.19538 165.63353,281.59698   C 163.11606,279.99859 160.23895,279.15943 157.08213,279.15943   C 152.56666,279.15943 148.69056,280.71787 145.45381,283.83473   C 142.21707,286.91164 140.57871,292.06646 140.57871,299.29919   z  M 187.97108,322.59578   L 187.97108,274.56405   L 197.56144,274.56405   L 208.95,308.56988   C 209.98895,311.76666 210.74819,314.12429 211.22771,315.68273   C 211.78715,313.96445 212.6263,311.36706 213.78514,307.97048   L 225.29357,274.56405   L 233.84498,274.56405   L 233.84498,322.59578   L 227.73112,322.59578   L 227.73112,282.39618   L 213.74518,322.59578   L 208.03092,322.59578   L 194.1249,281.71686   L 194.1249,322.59578   z  M 243.83494,322.59578   L 243.83494,274.56405   L 261.85682,274.56405   C 265.53313,274.56405 268.49016,275.04357 270.72791,276.00261   C 272.9257,277.0016 274.68393,278.48012 275.92269,280.51807   C 277.16144,282.51606 277.8008,284.63393 277.8008,286.83172   C 277.8008,288.90963 277.24136,290.82771 276.12249,292.66586   C 275.00361,294.46405 273.3253,295.94257 271.08755,297.02148   C 274.00461,297.9006 276.24237,299.33915 277.8008,301.41706   C 279.35923,303.45502 280.11847,305.89257 280.11847,308.68975   C 280.11847,310.92751 279.63895,313.00542 278.71988,314.96345   C 277.76084,316.88152 276.602,318.4 275.16345,319.43895   C 273.80482,320.47791 272.04658,321.2771 269.92871,321.79658   C 267.81084,322.35602 265.21345,322.59578 262.1765,322.59578   z  M 250.18855,294.74377   L 260.57811,294.74377   C 263.41526,294.74377 265.45321,294.54397 266.652,294.18433   C 268.29036,293.70482 269.48915,292.90562 270.32831,291.78674   C 271.12751,290.66787 271.5271,289.26927 271.5271,287.59096   C 271.5271,285.99257 271.16747,284.59397 270.40823,283.39518   C 269.64899,282.19638 268.53012,281.35722 267.13152,280.91767   C 265.69297,280.43815 263.25542,280.23835 259.81887,280.23835   L 250.18855,280.23835   z  M 250.18855,316.92148   L 262.1765,316.92148   C 264.21445,316.92148 265.65301,316.88152 266.49216,316.72168   C 267.97068,316.44196 269.16947,316.00241 270.16847,315.40301   C 271.16747,314.80361 271.96666,313.88453 272.60602,312.7257   C 273.24538,311.56686 273.5251,310.20823 273.5251,308.68975   C 273.5251,306.89156 273.08554,305.33313 272.16646,304.01445   C 271.24739,302.69578 269.96867,301.7767 268.33032,301.21726   C 266.73192,300.69779 264.37429,300.41807 261.29739,300.41807   L 250.18855,300.41807   z "
     style="fill:#000000;fill-rule:evenodd;fill-opacity:1;stroke:none;" />
</svg>
