<?xml version="1.0" encoding="UTF-8" standalone="no"?>
<svg
   xmlns:dc="http://purl.org/dc/elements/1.1/"
   xmlns:cc="http://creativecommons.org/ns#"
   xmlns:rdf="http://www.w3.org/1999/02/22-rdf-syntax-ns#"
   xmlns:svg="http://www.w3.org/2000/svg"
   xmlns="http://www.w3.org/2000/svg"
   id="svg11"
   height="116.06mm"
   width="135.35001mm"
   version="1.0">
  <metadata
     id="metadata15">
    <rdf:RDF>
      <cc:Work
         rdf:about="">
        <dc:format>image/svg+xml</dc:format>
        <dc:type
           rdf:resource="http://purl.org/dc/dcmitype/StillImage" />
      </cc:Work>
    </rdf:RDF>
  </metadata>
  <defs
     id="defs3">
    <pattern
       y="0"
       x="0"
       height="6"
       width="6"
       patternUnits="userSpaceOnUse"
       id="EMFhbasepattern" />
  </defs>
  <path
     id="path5"
     d="  M 337.26104,384.25381   C 457.14056,384.25381 457.14056,187.6514 337.26104,187.6514   C 337.26104,54.345381 174.2249,54.345381 174.2249,187.6514   C 54.345381,187.6514 54.345381,384.25381 174.2249,384.25381   z "
     style="fill:#ffff80;fill-rule:evenodd;fill-opacity:1;stroke:none;" />
  <path
     id="path7"
     d="  M 337.26104,384.25381   C 457.14056,384.25381 457.14056,187.6514 337.26104,187.6514   C 337.26104,54.345381 174.2249,54.345381 174.2249,187.6514   C 54.345381,187.6514 54.345381,384.25381 174.2249,384.25381  "
     style="fill:none;stroke:#000000;stroke-width:9.5903616px;stroke-linecap:butt;stroke-linejoin:miter;stroke-miterlimit:10;stroke-dasharray:none;stroke-opacity:1;" />
  <path
     id="path9"
     d="  M 165.75341,286.79176   L 165.75341,238.76004   L 183.7753,238.76004   C 187.4516,238.76004 190.36867,239.23955 192.60642,240.19859   C 194.80421,241.19759 196.56245,242.6761 197.8012,244.71405   C 199.07992,246.71204 199.67931,248.82992 199.67931,251.02771   C 199.67931,253.10562 199.11988,255.02369 198.04096,256.86184   C 196.92209,258.66004 195.24377,260.13855 192.96606,261.21747   C 195.88313,262.09658 198.12088,263.53514 199.67931,265.61305   C 201.23775,267.651 202.03694,270.08855 202.03694,272.88574   C 202.03694,275.12349 201.55743,277.2014 200.59839,279.15943   C 199.63935,281.07751 198.48052,282.59598 197.08192,283.63494   C 195.68333,284.67389 193.9251,285.47309 191.80723,285.99257   C 189.68935,286.552 187.13193,286.79176 184.05502,286.79176   z  M 172.10703,258.93976   L 182.49658,258.93976   C 185.29377,258.93976 187.33172,258.73996 188.53052,258.38032   C 190.16887,257.9008 191.36767,257.1016 192.20682,255.98273   C 193.00602,254.86385 193.44558,253.46526 193.44558,251.78694   C 193.44558,250.18855 193.04598,248.78996 192.28674,247.59116   C 191.52751,246.39237 190.44859,245.55321 189.01004,245.11365   C 187.57148,244.63413 185.13393,244.43433 181.69739,244.43433   L 172.10703,244.43433   z  M 172.10703,281.11747   L 184.05502,281.11747   C 186.09297,281.11747 187.57148,281.07751 188.37068,280.91767   C 189.84919,280.63795 191.08795,280.19839 192.04699,279.59899   C 193.04598,278.99959 193.84518,278.08052 194.48454,276.92168   C 195.12389,275.76285 195.44357,274.40421 195.44357,272.88574   C 195.44357,271.08755 194.96405,269.52911 194.04498,268.21044   C 193.1259,266.89176 191.84719,265.97269 190.24879,265.41325   C 188.61044,264.89377 186.25281,264.61405 183.21586,264.61405   L 172.10703,264.61405   z  M 208.83012,263.41526   C 208.83012,255.42329 210.98795,249.18955 215.26365,244.67409   C 219.53935,240.15863 225.09377,237.88092 231.84698,237.88092   C 236.28253,237.88092 240.27851,238.95984 243.83494,241.07771   C 247.39136,243.19558 250.10863,246.15261 251.98674,249.94879   C 253.86486,253.74498 254.78393,258.02068 254.78393,262.85582   C 254.78393,267.73092 253.8249,272.08654 251.8269,275.92269   C 249.86887,279.75883 247.11164,282.6759 243.4753,284.67389   C 239.87891,286.63192 236.00281,287.63092 231.80702,287.63092   C 227.29156,287.63092 223.25562,286.552 219.69919,284.35421   C 216.14277,282.15642 213.4255,279.19939 211.58735,275.40321   C 209.74919,271.60702 208.83012,267.61104 208.83012,263.41526   z  M 215.38353,263.49518   C 215.38353,269.28935 216.94196,273.84478 220.05883,277.2014   C 223.1757,280.51807 227.09176,282.19638 231.76706,282.19638   C 236.56225,282.19638 240.51827,280.51807 243.59518,277.12148   C 246.71204,273.76486 248.23052,269.00963 248.23052,262.81586   C 248.23052,258.8998 247.59116,255.50321 246.27249,252.58614   C 244.95381,249.66907 242.99578,247.39136 240.43835,245.79297   C 237.92088,244.19457 235.04377,243.35542 231.88694,243.35542   C 227.37148,243.35542 223.49538,244.91385 220.25863,248.03072   C 217.02188,251.10763 215.38353,256.26245 215.38353,263.49518   z  M 262.7759,286.79176   L 262.7759,238.76004   L 272.36626,238.76004   L 283.75482,272.76586   C 284.79377,275.96265 285.55301,278.32028 286.03253,279.87871   C 286.59196,278.16044 287.43112,275.56305 288.58996,272.16646   L 300.09839,238.76004   L 308.64979,238.76004   L 308.64979,286.79176   L 302.53594,286.79176   L 302.53594,246.59217   L 288.55,286.79176   L 282.83574,286.79176   L 268.92971,245.91285   L 268.92971,286.79176   z  M 318.63975,286.79176   L 318.63975,238.76004   L 336.66164,238.76004   C 340.33795,238.76004 343.29497,239.23955 345.53273,240.19859   C 347.73052,241.19759 349.48875,242.6761 350.7275,244.71405   C 351.96626,246.71204 352.60562,248.82992 352.60562,251.02771   C 352.60562,253.10562 352.04618,255.02369 350.9273,256.86184   C 349.80843,258.66004 348.13012,260.13855 345.89236,261.21747   C 348.80943,262.09658 351.04718,263.53514 352.60562,265.61305   C 354.16405,267.651 354.92329,270.08855 354.92329,272.88574   C 354.92329,275.12349 354.44377,277.2014 353.52469,279.15943   C 352.56566,281.07751 351.40682,282.59598 349.96827,283.63494   C 348.60963,284.67389 346.8514,285.47309 344.73353,285.99257   C 342.61566,286.552 340.01827,286.79176 336.98132,286.79176   z  M 324.99337,258.93976   L 335.38293,258.93976   C 338.22008,258.93976 340.25803,258.73996 341.45682,258.38032   C 343.09518,257.9008 344.29397,257.1016 345.13313,255.98273   C 345.93232,254.86385 346.33192,253.46526 346.33192,251.78694   C 346.33192,250.18855 345.97228,248.78996 345.21305,247.59116   C 344.45381,246.39237 343.33493,245.55321 341.93634,245.11365   C 340.49779,244.63413 338.06024,244.43433 334.62369,244.43433   L 324.99337,244.43433   z  M 324.99337,281.11747   L 336.98132,281.11747   C 339.01927,281.11747 340.45783,281.07751 341.29698,280.91767   C 342.7755,280.63795 343.97429,280.19839 344.97329,279.59899   C 345.97228,278.99959 346.77148,278.08052 347.41084,276.92168   C 348.0502,275.76285 348.32991,274.40421 348.32991,272.88574   C 348.32991,271.08755 347.89036,269.52911 346.97128,268.21044   C 346.0522,266.89176 344.77349,265.97269 343.13514,265.41325   C 341.53674,264.89377 339.17911,264.61405 336.1022,264.61405   L 324.99337,264.61405   z "
     style="fill:#000000;fill-rule:evenodd;fill-opacity:1;stroke:none;" />
</svg>
