<?xml version="1.0" encoding="UTF-8" standalone="no"?>
<svg
   xmlns:dc="http://purl.org/dc/elements/1.1/"
   xmlns:cc="http://creativecommons.org/ns#"
   xmlns:rdf="http://www.w3.org/1999/02/22-rdf-syntax-ns#"
   xmlns:svg="http://www.w3.org/2000/svg"
   xmlns="http://www.w3.org/2000/svg"
   id="svg13"
   height="116.73mm"
   width="116.73mm"
   version="1.0">
  <metadata
     id="metadata17">
    <rdf:RDF>
      <cc:Work
         rdf:about="">
        <dc:format>image/svg+xml</dc:format>
        <dc:type
           rdf:resource="http://purl.org/dc/dcmitype/StillImage" />
      </cc:Work>
    </rdf:RDF>
  </metadata>
  <defs
     id="defs3">
    <pattern
       y="0"
       x="0"
       height="6"
       width="6"
       patternUnits="userSpaceOnUse"
       id="EMFhbasepattern" />
  </defs>
  <path
     id="path5"
     d="  M 220.57831,386.49156   L 220.57831,386.49156   L 386.49156,220.57831   L 220.57831,54.665059   L 54.665059,220.57831   L 220.57831,386.49156   z "
     style="fill:#ff8080;fill-rule:evenodd;fill-opacity:1;stroke:none;" />
  <path
     id="path7"
     d="  M 220.57831,386.49156   L 220.57831,386.49156   L 386.49156,220.57831   L 220.57831,54.665059   L 54.665059,220.57831   L 220.57831,386.49156  "
     style="fill:none;stroke:#000000;stroke-width:9.5903616px;stroke-linecap:butt;stroke-linejoin:miter;stroke-miterlimit:10;stroke-dasharray:none;stroke-opacity:1;" />
  <path
     id="path9"
     d="  M 130.58875,238.2006   L 130.58875,190.16887   L 148.61064,190.16887   C 152.28695,190.16887 155.20401,190.64839 157.44176,191.60743   C 159.63956,192.60642 161.39779,194.08494 162.63654,196.12289   C 163.91526,198.12088 164.51466,200.23875 164.51466,202.43654   C 164.51466,204.51445 163.95522,206.43253 162.8763,208.27068   C 161.75743,210.06887 160.07911,211.54739 157.8014,212.6263   C 160.71847,213.50542 162.95622,214.94397 164.51466,217.02188   C 166.07309,219.05984 166.87229,221.49739 166.87229,224.29458   C 166.87229,226.53233 166.39277,228.61024 165.43373,230.56827   C 164.4747,232.48634 163.31586,234.00482 161.91727,235.04377   C 160.51867,236.08273 158.76044,236.88192 156.64257,237.4014   C 154.5247,237.96084 151.96727,238.2006 148.89036,238.2006   z  M 136.94237,210.34859   L 147.33193,210.34859   C 150.12911,210.34859 152.16707,210.14879 153.36586,209.78915   C 155.00421,209.30964 156.20301,208.51044 157.04217,207.39156   C 157.84136,206.27269 158.28092,204.87409 158.28092,203.19578   C 158.28092,201.59739 157.88132,200.19879 157.12209,199   C 156.36285,197.8012 155.28393,196.96205 153.84538,196.52249   C 152.40683,196.04297 149.96927,195.84317 146.53273,195.84317   L 136.94237,195.84317   z  M 136.94237,232.5263   L 148.89036,232.5263   C 150.92831,232.5263 152.40683,232.48634 153.20602,232.3265   C 154.68454,232.04678 155.92329,231.60723 156.88233,231.00783   C 157.88132,230.40843 158.68052,229.48935 159.31988,228.33052   C 159.95923,227.17168 160.27891,225.81305 160.27891,224.29458   C 160.27891,222.49638 159.7994,220.93795 158.88032,219.61927   C 157.96124,218.3006 156.68253,217.38152 155.08413,216.82209   C 153.44578,216.30261 151.08815,216.02289 148.0512,216.02289   L 136.94237,216.02289   z  M 173.66546,214.82409   C 173.66546,206.83213 175.82329,200.59839 180.09899,196.08293   C 184.3747,191.56747 189.92911,189.28976 196.68233,189.28976   C 201.11787,189.28976 205.11385,190.36867 208.67028,192.48654   C 212.2267,194.60441 214.94397,197.56144 216.82209,201.35763   C 218.7002,205.15381 219.61927,209.42952 219.61927,214.26466   C 219.61927,219.13976 218.66024,223.49538 216.66225,227.33152   C 214.70421,231.16767 211.94698,234.08474 208.31064,236.08273   C 204.71425,238.04076 200.83815,239.03976 196.64237,239.03976   C 192.1269,239.03976 188.09096,237.96084 184.53454,235.76305   C 180.97811,233.56526 178.26084,230.60823 176.42269,226.81204   C 174.58454,223.01586 173.66546,219.01988 173.66546,214.82409   z  M 180.21887,214.90401   C 180.21887,220.69819 181.77731,225.25361 184.89417,228.61024   C 188.01104,231.9269 191.92711,233.60522 196.60241,233.60522   C 201.39759,233.60522 205.35361,231.9269 208.43052,228.53032   C 211.54739,225.17369 213.06586,220.41847 213.06586,214.2247   C 213.06586,210.30863 212.4265,206.91205 211.10783,203.99498   C 209.78915,201.07791 207.83112,198.8002 205.27369,197.2018   C 202.75622,195.60341 199.87911,194.76425 196.72229,194.76425   C 192.20682,194.76425 188.33072,196.32269 185.09397,199.43956   C 181.85723,202.51646 180.21887,207.67128 180.21887,214.90401   z  M 227.61124,238.2006   L 227.61124,190.16887   L 237.2016,190.16887   L 248.59016,224.1747   C 249.62911,227.37148 250.38835,229.72911 250.86787,231.28755   C 251.42731,229.56927 252.26646,226.97188 253.4253,223.5753   L 264.93373,190.16887   L 273.48514,190.16887   L 273.48514,238.2006   L 267.37128,238.2006   L 267.37128,198.001   L 253.38534,238.2006   L 247.67108,238.2006   L 233.76506,197.32168   L 233.76506,238.2006   z  M 283.4751,238.2006   L 283.4751,190.16887   L 301.49698,190.16887   C 305.17329,190.16887 308.13032,190.64839 310.36807,191.60743   C 312.56586,192.60642 314.32409,194.08494 315.56285,196.12289   C 316.8016,198.12088 317.44096,200.23875 317.44096,202.43654   C 317.44096,204.51445 316.88152,206.43253 315.76265,208.27068   C 314.64377,210.06887 312.96546,211.54739 310.72771,212.6263   C 313.64477,213.50542 315.88253,214.94397 317.44096,217.02188   C 318.99939,219.05984 319.75863,221.49739 319.75863,224.29458   C 319.75863,226.53233 319.27911,228.61024 318.36004,230.56827   C 317.401,232.48634 316.24216,234.00482 314.80361,235.04377   C 313.44498,236.08273 311.68674,236.88192 309.56887,237.4014   C 307.451,237.96084 304.85361,238.2006 301.81666,238.2006   z  M 289.82871,210.34859   L 300.21827,210.34859   C 303.05542,210.34859 305.09337,210.14879 306.29216,209.78915   C 307.93052,209.30964 309.12931,208.51044 309.96847,207.39156   C 310.76767,206.27269 311.16726,204.87409 311.16726,203.19578   C 311.16726,201.59739 310.80763,200.19879 310.04839,199   C 309.28915,197.8012 308.17028,196.96205 306.77168,196.52249   C 305.33313,196.04297 302.89558,195.84317 299.45903,195.84317   L 289.82871,195.84317   z  M 289.82871,232.5263   L 301.81666,232.5263   C 303.85461,232.5263 305.29317,232.48634 306.13232,232.3265   C 307.61084,232.04678 308.80963,231.60723 309.80863,231.00783   C 310.80763,230.40843 311.60682,229.48935 312.24618,228.33052   C 312.88554,227.17168 313.16526,225.81305 313.16526,224.29458   C 313.16526,222.49638 312.7257,220.93795 311.80662,219.61927   C 310.88755,218.3006 309.60883,217.38152 307.97048,216.82209   C 306.37208,216.30261 304.01445,216.02289 300.93755,216.02289   L 289.82871,216.02289   z "
     style="fill:#000000;fill-rule:evenodd;fill-opacity:1;stroke:none;" />
  <path
     id="path11"
     d="  M 220.73815,164.03514   C 220.69819,163.2759 220.69819,162.6765 220.69819,162.27691   C 220.69819,159.95923 221.01787,157.96124 221.65723,156.28293   C 222.13674,155.00421 222.93594,153.7255 224.01486,152.44678   C 224.77409,151.48775 226.21265,150.12911 228.2506,148.33092   C 230.28855,146.53273 231.60723,145.09417 232.24658,144.01526   C 232.84598,142.93634 233.16566,141.77751 233.16566,140.49879   C 233.16566,138.22108 232.24658,136.18313 230.44839,134.46486   C 228.6502,132.70662 226.49237,131.86747 223.85502,131.86747   C 221.37751,131.86747 219.25964,132.6267 217.58132,134.2251   C 215.90301,135.78353 214.78413,138.26104 214.26466,141.57771   L 208.19076,140.85843   C 208.7502,136.38293 210.38855,132.94638 213.06586,130.58875   C 215.78313,128.19116 219.33956,126.99237 223.7751,126.99237   C 228.49036,126.99237 232.20662,128.27108 235.00381,130.82851   C 237.801,133.38594 239.19959,136.50281 239.19959,140.09919   C 239.19959,142.21707 238.72008,144.13514 237.72108,145.93333   C 236.76204,147.69156 234.84397,149.8494 231.96686,152.36687   C 230.04879,154.08514 228.77008,155.32389 228.21064,156.16305   C 227.61124,156.96225 227.17168,157.88132 226.89196,158.92028   C 226.61225,159.99919 226.45241,161.67751 226.41245,164.03514   z  M 220.37851,175.86325   L 220.37851,169.15   L 227.09176,169.15   L 227.09176,175.86325   z "
     style="fill:#000000;fill-rule:evenodd;fill-opacity:1;stroke:none;" />
</svg>
