<?xml version="1.0" encoding="UTF-8" standalone="no"?>
<svg
   xmlns:dc="http://purl.org/dc/elements/1.1/"
   xmlns:cc="http://creativecommons.org/ns#"
   xmlns:rdf="http://www.w3.org/1999/02/22-rdf-syntax-ns#"
   xmlns:svg="http://www.w3.org/2000/svg"
   xmlns="http://www.w3.org/2000/svg"
   id="svg13"
   height="101.85mm"
   width="95.75mm"
   version="1.0">
  <metadata
     id="metadata17">
    <rdf:RDF>
      <cc:Work
         rdf:about="">
        <dc:format>image/svg+xml</dc:format>
        <dc:type
           rdf:resource="http://purl.org/dc/dcmitype/StillImage" />
      </cc:Work>
    </rdf:RDF>
  </metadata>
  <defs
     id="defs3">
    <pattern
       y="0"
       x="0"
       height="6"
       width="6"
       patternUnits="userSpaceOnUse"
       id="EMFhbasepattern" />
  </defs>
  <path
     id="path5"
     d="  M 54.345381,54.345381   L 54.345381,330.54779   L 307.53092,330.54779   L 307.53092,54.345381   L 54.345381,54.345381   z "
     style="fill:#aaffaa;fill-rule:evenodd;fill-opacity:1;stroke:none;" />
  <path
     id="path7"
     d="  M 54.345381,330.54779   L 54.345381,54.345381   L 307.53092,54.345381   L 307.53092,330.54779  "
     style="fill:none;stroke:#000000;stroke-width:9.5903616px;stroke-linecap:butt;stroke-linejoin:miter;stroke-miterlimit:10;stroke-dasharray:none;stroke-opacity:1;" />
  <path
     id="path9"
     d="  M 149.28996,264.17449   L 149.28996,161.19799   L 162.91626,161.19799   L 162.91626,212.26666   L 214.06486,161.19799   L 232.5263,161.19799   L 189.32972,202.95602   L 234.44437,264.17449   L 216.46245,264.17449   L 179.77931,212.06686   L 162.91626,228.49036   L 162.91626,264.17449   z "
     style="fill:#000000;fill-rule:evenodd;fill-opacity:1;stroke:none;" />
  <path
     id="path11"
     d="  M 168.27088,161.63755   L 168.27088,117.00241   L 185.01405,117.00241   C 188.41064,117.00241 191.12791,117.44197 193.20582,118.36104   C 195.28373,119.28012 196.88213,120.63875 198.04096,122.51687   C 199.1998,124.39498 199.79919,126.35301 199.79919,128.43092   C 199.79919,130.30903 199.27972,132.10723 198.24076,133.8255   C 197.2018,135.50381 195.64337,136.86245 193.56546,137.9014   C 196.24277,138.66064 198.32068,140.01928 199.75923,141.93735   C 201.23775,143.85542 201.95703,146.09317 201.95703,148.69056   C 201.95703,150.76847 201.51747,152.7265 200.63835,154.5247   C 199.75923,156.32289 198.64036,157.68152 197.36164,158.68052   C 196.04297,159.63956 194.44458,160.39879 192.48654,160.87831   C 190.52851,161.39779 188.13092,161.63755 185.29377,161.63755   z  M 174.14498,135.74357   L 183.81526,135.74357   C 186.41265,135.74357 188.29076,135.58373 189.4496,135.22409   C 190.92811,134.78454 192.08695,134.06526 192.84618,133.0263   C 193.60542,131.98735 193.96506,130.66867 193.96506,129.11024   C 193.96506,127.63173 193.64538,126.35301 192.9261,125.19417   C 192.20682,124.0753 191.20783,123.31606 189.88915,122.8765   C 188.57048,122.47691 186.29277,122.27711 183.09598,122.27711   L 174.14498,122.27711   z  M 174.14498,156.36285   L 185.29377,156.36285   C 187.17188,156.36285 188.53052,156.28293 189.28976,156.16305   C 190.64839,155.92329 191.80723,155.48373 192.68634,154.92429   C 193.60542,154.36486 194.36466,153.5257 194.96405,152.44678   C 195.56345,151.36787 195.84317,150.12911 195.84317,148.69056   C 195.84317,147.01225 195.40361,145.57369 194.56446,144.33494   C 193.7253,143.13614 192.5265,142.25703 191.00803,141.77751   C 189.48956,141.25803 187.33172,141.01827 184.49458,141.01827   L 174.14498,141.01827   z "
     style="fill:#000000;fill-rule:evenodd;fill-opacity:1;stroke:none;" />
</svg>
