<?xml version="1.0" encoding="UTF-8" standalone="no"?>
<svg
   xmlns:dc="http://purl.org/dc/elements/1.1/"
   xmlns:cc="http://creativecommons.org/ns#"
   xmlns:rdf="http://www.w3.org/1999/02/22-rdf-syntax-ns#"
   xmlns:svg="http://www.w3.org/2000/svg"
   xmlns="http://www.w3.org/2000/svg"
   id="svg13"
   height="116.06mm"
   width="135.35001mm"
   version="1.0">
  <metadata
     id="metadata17">
    <rdf:RDF>
      <cc:Work
         rdf:about="">
        <dc:format>image/svg+xml</dc:format>
        <dc:type
           rdf:resource="http://purl.org/dc/dcmitype/StillImage" />
      </cc:Work>
    </rdf:RDF>
  </metadata>
  <defs
     id="defs3">
    <pattern
       y="0"
       x="0"
       height="6"
       width="6"
       patternUnits="userSpaceOnUse"
       id="EMFhbasepattern" />
  </defs>
  <path
     id="path5"
     d="  M 337.26104,384.25381   C 457.14056,384.25381 457.14056,187.6514 337.26104,187.6514   C 337.26104,54.345381 174.2249,54.345381 174.2249,187.6514   C 54.345381,187.6514 54.345381,384.25381 174.2249,384.25381   z "
     style="fill:#ffff80;fill-rule:evenodd;fill-opacity:1;stroke:none;" />
  <path
     id="path7"
     d="  M 337.26104,384.25381   C 457.14056,384.25381 457.14056,187.6514 337.26104,187.6514   C 337.26104,54.345381 174.2249,54.345381 174.2249,187.6514   C 54.345381,187.6514 54.345381,384.25381 174.2249,384.25381  "
     style="fill:none;stroke:#000000;stroke-width:9.5903616px;stroke-linecap:butt;stroke-linejoin:miter;stroke-miterlimit:10;stroke-dasharray:none;stroke-opacity:1;" />
  <path
     id="path9"
     d="  M 224.09478,317.88052   L 224.09478,214.90401   L 237.72108,214.90401   L 237.72108,265.97269   L 288.86967,214.90401   L 307.33112,214.90401   L 264.13453,256.66204   L 309.24919,317.88052   L 291.26726,317.88052   L 254.58413,265.77289   L 237.72108,282.19638   L 237.72108,317.88052   z "
     style="fill:#000000;fill-rule:evenodd;fill-opacity:1;stroke:none;" />
  <path
     id="path11"
     d="  M 243.0757,215.34357   L 243.0757,170.70843   L 259.81887,170.70843   C 263.21546,170.70843 265.93273,171.14799 268.01064,172.06707   C 270.08855,172.98614 271.68694,174.34478 272.84578,176.22289   C 274.00461,178.101 274.60401,180.05903 274.60401,182.13695   C 274.60401,184.01506 274.08453,185.81325 273.04558,187.53152   C 272.00662,189.20984 270.44819,190.56847 268.37028,191.60743   C 271.04759,192.36666 273.1255,193.7253 274.56405,195.64337   C 276.04257,197.56144 276.76184,199.79919 276.76184,202.39658   C 276.76184,204.4745 276.32229,206.43253 275.44317,208.23072   C 274.56405,210.02891 273.44518,211.38755 272.16646,212.38654   C 270.84779,213.34558 269.24939,214.10482 267.29136,214.58433   C 265.33333,215.10381 262.93574,215.34357 260.09859,215.34357   z  M 248.9498,189.4496   L 258.62008,189.4496   C 261.21747,189.4496 263.09558,189.28976 264.25441,188.93012   C 265.73293,188.49056 266.89176,187.77128 267.651,186.73233   C 268.41024,185.69337 268.76988,184.3747 268.76988,182.81626   C 268.76988,181.33775 268.4502,180.05903 267.73092,178.9002   C 267.01164,177.78132 266.01265,177.02209 264.69397,176.58253   C 263.3753,176.18293 261.09759,175.98313 257.9008,175.98313   L 248.9498,175.98313   z  M 248.9498,210.06887   L 260.09859,210.06887   C 261.9767,210.06887 263.33534,209.98895 264.09457,209.86907   C 265.45321,209.62931 266.61204,209.18976 267.49116,208.63032   C 268.41024,208.07088 269.16947,207.23172 269.76887,206.15281   C 270.36827,205.07389 270.64799,203.83514 270.64799,202.39658   C 270.64799,200.71827 270.20843,199.27972 269.36927,198.04096   C 268.53012,196.84217 267.33132,195.96305 265.81285,195.48353   C 264.29437,194.96405 262.13654,194.72429 259.29939,194.72429   L 248.9498,194.72429   z "
     style="fill:#000000;fill-rule:evenodd;fill-opacity:1;stroke:none;" />
</svg>
