<?xml version="1.0" encoding="UTF-8" standalone="no"?>
<svg
   xmlns:dc="http://purl.org/dc/elements/1.1/"
   xmlns:cc="http://creativecommons.org/ns#"
   xmlns:rdf="http://www.w3.org/1999/02/22-rdf-syntax-ns#"
   xmlns:svg="http://www.w3.org/2000/svg"
   xmlns="http://www.w3.org/2000/svg"
   id="svg29"
   height="89.669998mm"
   width="120.11mm"
   version="1.0">
  <metadata
     id="metadata33">
    <rdf:RDF>
      <cc:Work
         rdf:about="">
        <dc:format>image/svg+xml</dc:format>
        <dc:type
           rdf:resource="http://purl.org/dc/dcmitype/StillImage" />
      </cc:Work>
    </rdf:RDF>
  </metadata>
  <defs
     id="defs3">
    <pattern
       y="0"
       x="0"
       height="6"
       width="6"
       patternUnits="userSpaceOnUse"
       id="EMFhbasepattern" />
  </defs>
  <path
     id="path5"
     d="  M 54.345381,54.345381   L 54.345381,284.51405   L 399.59839,284.51405   L 399.59839,54.345381   L 54.345381,54.345381   z "
     style="fill:#80e0ff;fill-rule:evenodd;fill-opacity:1;stroke:none;" />
  <path
     id="path7"
     d="  M 54.345381,54.345381   L 399.59839,54.345381   L 399.59839,284.51405   L 54.345381,284.51405   z "
     style="fill:none;stroke:#000000;stroke-width:9.5903616px;stroke-linecap:butt;stroke-linejoin:miter;stroke-miterlimit:10;stroke-dasharray:none;stroke-opacity:1;" />
  <path
     id="path9"
     d="  M 256.82188,91.308232   L 256.82188,94.904617   L 284.79377,94.904617   L 284.79377,93.346183   C 284.79377,84.23534 279.39919,79.36024 270.28835,79.36024   C 263.05562,79.36024 256.82188,83.995581 256.82188,91.308232   z "
     style="fill:#000000;fill-rule:evenodd;fill-opacity:1;stroke:none;" />
  <path
     id="path11"
     d="  M 235.08373,102.17731   L 257.34136,102.17731   L 257.18152,105.81365   L 258.38032,114.08534   C 261.09759,115.88353 260.57811,118.24116 265.33333,120.59879   C 268.49016,122.15723 273.08554,121.95743 276.16245,120.47891   C 281.75682,117.8016 285.63293,110.12932 283.75482,102.17731   L 306.57188,102.17731   L 306.57188,99.06044   L 235.08373,99.06044   z "
     style="fill:#000000;fill-rule:evenodd;fill-opacity:1;stroke:none;" />
  <path
     id="path13"
     d="  M 194.16486,124.43494   L 194.16486,124.95442   C 194.16486,128.39096 204.0749,140.13915 206.39257,143.29598   C 209.42952,147.37189 215.86305,158.6006 221.61727,158.6006   C 224.97389,158.6006 241.35743,145.97329 244.91385,143.61566   L 245.03373,176.82229   L 279.11947,125.99337   C 270.52811,125.99337 250.62811,125.03434 244.0747,126.71265   C 239.11968,127.9514 226.21265,140.69859 222.65622,141.01827   C 222.21666,139.33996 215.30361,130.46887 213.74518,128.1512   C 211.82711,125.27409 206.95201,117.20221 202.99598,117.20221   L 200.91807,117.20221   C 197.28172,117.20221 194.16486,120.63875 194.16486,124.43494   z "
     style="fill:#000000;fill-rule:evenodd;fill-opacity:1;stroke:none;" />
  <path
     id="path15"
     d="  M 134.6247,161.19799   L 134.6247,161.19799   L 146.53273,168.99016   L 146.45281,150.96827   L 134.6247,143.09618   z "
     style="fill:#ffffff;fill-rule:evenodd;fill-opacity:1;stroke:none;" />
  <path
     id="path17"
     d="  M 182.7763,176.74237   L 195.20381,185.01405   L 195.16385,203.23574   L 182.7763,194.88413   z  M 158.96024,159.63956   L 170.86827,167.9512   L 170.82831,186.13293   L 158.96024,177.78132   z  M 134.6247,143.09618   L 146.45281,150.96827   L 146.53273,168.99016   L 134.6247,161.19799   z  M 121.15823,153.96526   C 121.15823,155.96325 156.48273,179.25984 160.83835,182.13695   C 167.83132,186.77229 174.06506,191.40763 181.01807,196.12289   C 184.61446,198.56044 187.6514,200.71827 191.16787,203.03594   C 194.40462,205.19377 199.35964,207.27168 199.35964,211.94698   L 199.35964,243.55522   L 227.33152,243.55522   L 227.33152,215.06385   C 227.33152,212.26666 231.44739,208.3506 231.44739,207.83112   C 231.44739,205.03393 228.77008,207.43152 227.69116,203.2757   C 226.77209,199.67931 227.0518,200.11887 224.93393,197.24176   C 222.5763,194.04498 218.62028,191.24779 213.34558,191.24779   C 205.83313,191.24779 207.951,190.56847 202.23674,186.77229   C 198.72028,184.45462 195.48353,182.25682 192.20682,179.77931   C 186.05301,175.10401 178.78032,170.26887 172.30682,165.95321   C 166.59257,162.15703 135.30401,139.18012 132.02731,138.42088   C 131.02831,140.25903 121.15823,153.96526 121.15823,153.96526   z "
     style="fill:#000000;fill-rule:evenodd;fill-opacity:1;stroke:none;" />
  <path
     id="path19"
     d="  M 158.96024,177.78132   L 158.96024,177.78132   L 170.82831,186.13293   L 170.86827,167.9512   L 158.96024,159.63956   z "
     style="fill:#ffffff;fill-rule:evenodd;fill-opacity:1;stroke:none;" />
  <path
     id="path21"
     d="  M 182.7763,194.88413   L 182.7763,194.88413   L 195.16385,203.23574   L 195.20381,185.01405   L 182.7763,176.74237   z "
     style="fill:#ffffff;fill-rule:evenodd;fill-opacity:1;stroke:none;" />
  <path
     id="path23"
     d="  M 254.26445,176.74237   L 283.23534,176.74237   L 283.23534,187.61144   L 244.91385,187.61144   L 244.91385,243.55522   L 264.93373,243.51526   L 268.2504,204.71425   L 273.96465,204.71425   L 277.04156,243.55522   L 296.7018,243.55522   L 296.7018,131.66767   C 296.7018,129.7496 290.90763,125.99337 288.94959,125.99337   C 286.87168,125.99337 256.98172,171.58755 254.26445,176.74237   z "
     style="fill:#000000;fill-rule:evenodd;fill-opacity:1;stroke:none;" />
  <path
     id="path25"
     d="  M 245.03373,176.82229   L 244.91385,187.61144   L 283.23534,187.61144   L 283.23534,176.74237   L 254.26445,176.74237   C 256.98172,171.58755 286.87168,125.99337 288.94959,125.99337   L 279.11947,125.99337   z "
     style="fill:#ffffff;fill-rule:evenodd;fill-opacity:1;stroke:none;" />
  <path
     id="path27"
     d="  M 284.79377,99.06044   L 284.79377,99.06044   L 284.79377,94.904617   L 256.82188,94.904617   L 256.82188,99.06044   z "
     style="fill:#ffffff;fill-rule:evenodd;fill-opacity:1;stroke:none;" />
</svg>
