<?xml version="1.0" encoding="UTF-8" standalone="no"?>
<svg
   xmlns:dc="http://purl.org/dc/elements/1.1/"
   xmlns:cc="http://creativecommons.org/ns#"
   xmlns:rdf="http://www.w3.org/1999/02/22-rdf-syntax-ns#"
   xmlns:svg="http://www.w3.org/2000/svg"
   xmlns="http://www.w3.org/2000/svg"
   id="svg29"
   height="95.75mm"
   width="95.75mm"
   version="1.0">
  <metadata
     id="metadata33">
    <rdf:RDF>
      <cc:Work
         rdf:about="">
        <dc:format>image/svg+xml</dc:format>
        <dc:type
           rdf:resource="http://purl.org/dc/dcmitype/StillImage" />
      </cc:Work>
    </rdf:RDF>
  </metadata>
  <defs
     id="defs3">
    <pattern
       y="0"
       x="0"
       height="6"
       width="6"
       patternUnits="userSpaceOnUse"
       id="EMFhbasepattern" />
  </defs>
  <path
     id="path5"
     d="  M 54.345381,54.345381   L 54.345381,307.53092   L 307.53092,307.53092   L 307.53092,54.345381   L 54.345381,54.345381   z "
     style="fill:#aaffaa;fill-rule:evenodd;fill-opacity:1;stroke:none;" />
  <path
     id="path7"
     d="  M 54.345381,54.345381   L 307.53092,54.345381   L 307.53092,307.53092   L 54.345381,307.53092   z "
     style="fill:none;stroke:#000000;stroke-width:9.5903616px;stroke-linecap:butt;stroke-linejoin:miter;stroke-miterlimit:10;stroke-dasharray:none;stroke-opacity:1;" />
  <path
     id="path9"
     d="  M 210.78815,102.81667   L 210.78815,106.41305   L 238.76004,106.41305   L 238.76004,104.85462   C 238.76004,95.743774 233.36546,90.868673 224.25462,90.868673   C 217.02188,90.868673 210.78815,95.504015 210.78815,102.81667   z "
     style="fill:#000000;fill-rule:evenodd;fill-opacity:1;stroke:none;" />
  <path
     id="path11"
     d="  M 189.05,113.68574   L 211.30763,113.68574   L 211.14779,117.32209   L 212.34658,125.59377   C 215.06385,127.39197 214.54437,129.7496 219.2996,132.10723   C 222.45642,133.66566 227.0518,133.46586 230.12871,131.98735   C 235.72309,129.31004 239.59919,121.63775 237.72108,113.68574   L 260.53815,113.68574   L 260.53815,110.56887   L 189.05,110.56887   z "
     style="fill:#000000;fill-rule:evenodd;fill-opacity:1;stroke:none;" />
  <path
     id="path13"
     d="  M 148.13112,135.94337   L 148.13112,136.46285   C 148.13112,139.8994 158.04116,151.64759 160.35883,154.80442   C 163.39578,158.88032 169.82931,170.10903 175.58353,170.10903   C 178.94016,170.10903 195.32369,157.48172 198.88012,155.12409   L 199,188.33072   L 233.08574,137.50181   C 224.49437,137.50181 204.59437,136.54277 198.04096,138.22108   C 193.08594,139.45984 180.17891,152.20703 176.62249,152.5267   C 176.18293,150.84839 169.26988,141.97731 167.71144,139.65964   C 165.79337,136.78253 160.91827,128.71064 156.96225,128.71064   L 154.88434,128.71064   C 151.24799,128.71064 148.13112,132.14719 148.13112,135.94337   z "
     style="fill:#000000;fill-rule:evenodd;fill-opacity:1;stroke:none;" />
  <path
     id="path15"
     d="  M 88.590963,172.70642   L 88.590963,172.70642   L 100.49899,180.49859   L 100.41907,162.4767   L 88.590963,154.60462   z "
     style="fill:#ffffff;fill-rule:evenodd;fill-opacity:1;stroke:none;" />
  <path
     id="path17"
     d="  M 136.74257,188.2508   L 149.17008,196.52249   L 149.13012,214.74417   L 136.74257,206.39257   z  M 112.9265,171.14799   L 124.83454,179.45964   L 124.79458,197.64136   L 112.9265,189.28976   z  M 88.590963,154.60462   L 100.41907,162.4767   L 100.49899,180.49859   L 88.590963,172.70642   z  M 75.124497,165.47369   C 75.124497,167.47168 110.44899,190.76827 114.80462,193.64538   C 121.79759,198.28072 128.03132,202.91606 134.98434,207.63132   C 138.58072,210.06887 141.61767,212.2267 145.13413,214.54437   C 148.37088,216.70221 153.3259,218.78012 153.3259,223.45542   L 153.3259,255.06365   L 181.29779,255.06365   L 181.29779,226.57229   C 181.29779,223.7751 185.41365,219.85903 185.41365,219.33956   C 185.41365,216.54237 182.73634,218.93996 181.65743,214.78413   C 180.73835,211.18775 181.01807,211.62731 178.9002,208.7502   C 176.54257,205.55341 172.58654,202.75622 167.31184,202.75622   C 159.7994,202.75622 161.91727,202.0769 156.20301,198.28072   C 152.68654,195.96305 149.4498,193.76526 146.17309,191.28775   C 140.01928,186.61245 132.74658,181.77731 126.27309,177.46164   C 120.55883,173.66546 89.27028,150.68855 85.993573,149.92932   C 84.994577,151.76747 75.124497,165.47369 75.124497,165.47369   z "
     style="fill:#000000;fill-rule:evenodd;fill-opacity:1;stroke:none;" />
  <path
     id="path19"
     d="  M 112.9265,189.28976   L 112.9265,189.28976   L 124.79458,197.64136   L 124.83454,179.45964   L 112.9265,171.14799   z "
     style="fill:#ffffff;fill-rule:evenodd;fill-opacity:1;stroke:none;" />
  <path
     id="path21"
     d="  M 136.74257,206.39257   L 136.74257,206.39257   L 149.13012,214.74417   L 149.17008,196.52249   L 136.74257,188.2508   z "
     style="fill:#ffffff;fill-rule:evenodd;fill-opacity:1;stroke:none;" />
  <path
     id="path23"
     d="  M 208.23072,188.2508   L 237.2016,188.2508   L 237.2016,199.11988   L 198.88012,199.11988   L 198.88012,255.06365   L 218.9,255.02369   L 222.21666,216.22269   L 227.93092,216.22269   L 231.00783,255.06365   L 250.66807,255.06365   L 250.66807,143.1761   C 250.66807,141.25803 244.87389,137.50181 242.91586,137.50181   C 240.83795,137.50181 210.94799,183.09598 208.23072,188.2508   z "
     style="fill:#000000;fill-rule:evenodd;fill-opacity:1;stroke:none;" />
  <path
     id="path25"
     d="  M 199,188.33072   L 198.88012,199.11988   L 237.2016,199.11988   L 237.2016,188.2508   L 208.23072,188.2508   C 210.94799,183.09598 240.83795,137.50181 242.91586,137.50181   L 233.08574,137.50181   z "
     style="fill:#ffffff;fill-rule:evenodd;fill-opacity:1;stroke:none;" />
  <path
     id="path27"
     d="  M 238.76004,110.56887   L 238.76004,110.56887   L 238.76004,106.41305   L 210.78815,106.41305   L 210.78815,110.56887   z "
     style="fill:#ffffff;fill-rule:evenodd;fill-opacity:1;stroke:none;" />
</svg>
