<?xml version="1.0" encoding="UTF-8" standalone="no"?>
<svg
   xmlns:dc="http://purl.org/dc/elements/1.1/"
   xmlns:cc="http://creativecommons.org/ns#"
   xmlns:rdf="http://www.w3.org/1999/02/22-rdf-syntax-ns#"
   xmlns:svg="http://www.w3.org/2000/svg"
   xmlns="http://www.w3.org/2000/svg"
   id="svg7"
   height="112.9mm"
   width="112.9mm"
   version="1.0">
  <metadata
     id="metadata11">
    <rdf:RDF>
      <cc:Work
         rdf:about="">
        <dc:format>image/svg+xml</dc:format>
        <dc:type
           rdf:resource="http://purl.org/dc/dcmitype/StillImage" />
      </cc:Work>
    </rdf:RDF>
  </metadata>
  <defs
     id="defs3">
    <pattern
       y="0"
       x="0"
       height="6"
       width="6"
       patternUnits="userSpaceOnUse"
       id="EMFhbasepattern" />
  </defs>
  <path
     id="path5"
     d="  M 362.43441,295.93865   L 179.3604,403.37378   L -0.12613753,295.93865   z  M 58.595001,8.9036811   L 58.595001,-0.42372793   L 295.48098,-0.42372793   L 295.48098,8.9036811   z  M 88.465367,209.42409   L 88.465367,118.94445   L 122.14978,118.94445   C 141.97524,118.94445 151.86909,126.57253 151.86909,141.79094   C 151.86909,150.13651 147.75295,156.55619 139.52066,161.04996   C 150.8495,164.63743 156.51391,172.11446 156.51391,183.4433   C 156.51391,200.73865 145.2606,209.42409 122.71622,209.42409   z  M 99.643153,157.19816   L 119.95953,157.19816   C 124.45331,157.19816 128.19182,156.89605 131.21285,156.29185   C 137.51923,154.17713 140.69131,149.98546 140.69131,143.64132   C 140.69131,137.03283 137.67028,132.69011 131.666,130.57539   C 128.98484,129.66908 124.45331,129.21593 118.14692,129.21593   L 99.643153,129.21593   z  M 99.643153,198.20855   L 122.48964,198.20855   L 130.98627,198.20855   C 135.48004,197.34 139.36961,194.8099 142.65497,190.65599   C 143.56128,187.67273 144.01443,185.29367 144.01443,183.48106   C 144.01443,180.23346 143.10812,177.09915 141.33327,174.11589   C 138.01015,169.65988 131.17508,167.43187 120.67703,167.43187   L 99.643153,167.43187   z  M 176.1128,296.84495   L 176.1128,-0.42372793   L 184.49614,-0.42372793   L 184.49614,296.84495   z  M 273.38975,176.87257   L 285.88923,180.00688   C 280.26258,200.24774 267.80086,210.3304 248.5796,210.3304   C 229.92478,210.3304 217.34977,202.58903 210.81681,187.03076   C 207.56921,179.25163 205.94541,171.01934 205.94541,162.3339   C 205.94541,142.62172 212.74271,129.02712 226.37508,121.51232   C 232.87028,117.96262 240.27178,116.15 248.5796,116.15   C 267.49875,116.15 279.35627,125.06202 284.11438,142.81053   L 272.03029,145.52945   C 268.17848,132.80339 260.28606,126.42148 248.39078,126.42148   C 228.18769,126.42148 218.06726,138.39229 218.06726,162.3339   C 218.06726,187.52168 227.73454,200.09669 247.06908,200.09669   C 261.64552,200.09669 270.44425,192.35531 273.38975,176.87257   z "
     style="fill:#00ff00;fill-rule:nonzero;fill-opacity:1;stroke:none;" />
</svg>
