<?xml version="1.0" encoding="UTF-8" standalone="no"?>
<svg
   xmlns:dc="http://purl.org/dc/elements/1.1/"
   xmlns:cc="http://creativecommons.org/ns#"
   xmlns:rdf="http://www.w3.org/1999/02/22-rdf-syntax-ns#"
   xmlns:svg="http://www.w3.org/2000/svg"
   xmlns="http://www.w3.org/2000/svg"
   id="svg7"
   height="112.9mm"
   width="112.9mm"
   version="1.0">
  <metadata
     id="metadata11">
    <rdf:RDF>
      <cc:Work
         rdf:about="">
        <dc:format>image/svg+xml</dc:format>
        <dc:type
           rdf:resource="http://purl.org/dc/dcmitype/StillImage" />
      </cc:Work>
    </rdf:RDF>
  </metadata>
  <defs
     id="defs3">
    <pattern
       y="0"
       x="0"
       height="6"
       width="6"
       patternUnits="userSpaceOnUse"
       id="EMFhbasepattern" />
  </defs>
  <path
     id="path5"
     d="  M 362.69632,296.45345   L 179.56139,403.92434   L 0.015110143,296.45345   L 362.69632,296.45345   z  M 58.755791,9.3229583   L 58.755791,-0.0075550715   L 295.72061,-0.0075550715   L 295.72061,9.3229583   L 58.755791,9.3229583   z  M 88.636099,209.91011   L 88.636099,119.40035   L 122.33172,119.40035   C 142.16378,119.40035 152.06092,127.03097 152.06092,142.25444   C 152.06092,150.6028 147.94341,157.02461 139.70838,161.51987   C 151.04099,165.10853 156.70729,172.58805 156.70729,183.92066   C 156.70729,201.22178 145.45024,209.91011 122.89835,209.91011   L 88.636099,209.91011   z  M 99.817605,157.66679   L 120.14075,157.66679   C 124.63602,157.66679 128.37578,157.36459 131.3978,156.76018   C 137.70629,154.64476 140.87942,150.45169 140.87942,144.10543   C 140.87942,137.49475 137.85739,133.15058 131.85111,131.03516   C 129.16906,130.12855 124.63602,129.67525 118.32753,129.67525   L 99.817605,129.67525   L 99.817605,157.66679   z  M 99.817605,198.69083   L 122.6717,198.69083   L 131.17115,198.69083   C 135.66642,197.82199 139.55728,195.29104 142.84374,191.13575   C 143.75035,188.1515 144.20365,185.77165 144.20365,183.95844   C 144.20365,180.70976 143.29704,177.5744 141.5216,174.59015   C 138.19737,170.13266 131.36003,167.90391 120.85848,167.90391   L 99.817605,167.90391   L 99.817605,198.69083   z  M 176.3127,297.36006   L 176.3127,-0.0075550715   L 184.69883,-0.0075550715   L 184.69883,297.36006   L 176.3127,297.36006   z  M 273.62203,177.34775   L 286.12567,180.4831   C 280.49714,200.7307 268.03127,210.81672 248.80362,210.81672   C 230.14259,210.81672 217.56339,203.07277 211.02826,187.50932   C 207.77958,179.7276 206.15524,171.49257 206.15524,162.80424   C 206.15524,143.0855 212.9548,129.48637 226.59171,121.96907   C 233.08907,118.41819 240.49304,116.60497 248.80362,116.60497   C 267.72907,116.60497 279.59053,125.51996 284.35023,143.27438   L 272.26211,145.9942   C 268.40903,133.26391 260.51398,126.87987 248.61474,126.87987   C 228.40492,126.87987 218.28113,138.85466 218.28113,162.80424   C 218.28113,188.0004 227.95162,200.57959 247.2926,200.57959   C 261.87389,200.57959 270.67555,192.83565 273.62203,177.34775   z "
     style="fill:#000000;fill-rule:nonzero;fill-opacity:1;stroke:none;" />
</svg>
