<?xml version="1.0" encoding="UTF-8" standalone="no"?>
<svg
   xmlns:dc="http://purl.org/dc/elements/1.1/"
   xmlns:cc="http://creativecommons.org/ns#"
   xmlns:rdf="http://www.w3.org/1999/02/22-rdf-syntax-ns#"
   xmlns:svg="http://www.w3.org/2000/svg"
   xmlns="http://www.w3.org/2000/svg"
   id="svg15"
   height="130.27mm"
   width="130.27mm"
   version="1.0">
  <metadata
     id="metadata19">
    <rdf:RDF>
      <cc:Work
         rdf:about="">
        <dc:format>image/svg+xml</dc:format>
        <dc:type
           rdf:resource="http://purl.org/dc/dcmitype/StillImage" />
      </cc:Work>
    </rdf:RDF>
  </metadata>
  <defs
     id="defs3">
    <pattern
       y="0"
       x="0"
       height="6"
       width="6"
       patternUnits="userSpaceOnUse"
       id="EMFhbasepattern" />
  </defs>
  <path
     id="path5"
     d="  M 164.63454,327.67068   C 164.63454,437.95983 327.67068,437.95983 327.67068,327.67068   C 437.95983,327.67068 437.95983,164.63454 327.67068,164.63454   C 327.67068,54.345381 164.63454,54.345381 164.63454,164.63454   C 54.345381,164.63454 54.345381,327.67068 164.63454,327.67068   z "
     style="fill:#ffff80;fill-rule:evenodd;fill-opacity:1;stroke:none;" />
  <path
     id="path7"
     d="  M 164.63454,327.67068   C 164.63454,437.95983 327.67068,437.95983 327.67068,327.67068   C 437.95983,327.67068 437.95983,164.63454 327.67068,164.63454   C 327.67068,54.345381 164.63454,54.345381 164.63454,164.63454   C 54.345381,164.63454 54.345381,327.67068 164.63454,327.67068  "
     style="fill:none;stroke:#000000;stroke-width:9.5903616px;stroke-linecap:butt;stroke-linejoin:miter;stroke-miterlimit:10;stroke-dasharray:none;stroke-opacity:1;" />
  <path
     id="path9"
     d="  M 177.74136,263.1755   L 177.74136,217.58132   L 192.7263,217.58132   C 195.76325,217.58132 198.2008,218.02088 200.03895,218.93996   C 201.87711,219.89899 203.31566,221.29759 204.35462,223.21566   C 205.43353,225.13373 205.95301,227.13172 205.95301,229.2496   C 205.95301,231.16767 205.47349,233.00582 204.55441,234.72409   C 203.63534,236.44237 202.23674,237.84096 200.35863,238.91988   C 202.75622,239.71907 204.63433,241.07771 205.91305,243.03574   C 207.23172,244.99377 207.87108,247.27148 207.87108,249.94879   C 207.87108,252.06666 207.47148,254.06465 206.67229,255.90281   C 205.91305,257.74096 204.91405,259.13955 203.75522,260.13855   C 202.59638,261.13755 201.15783,261.89678 199.3996,262.3763   C 197.64136,262.89578 195.48353,263.1755 192.96606,263.1755   z  M 183.01606,236.72208   L 191.64739,236.72208   C 194.00502,236.72208 195.68333,236.56225 196.68233,236.20261   C 198.04096,235.72309 199.03996,235.00381 199.71927,233.9249   C 200.39859,232.88594 200.75823,231.52731 200.75823,229.92891   C 200.75823,228.4504 200.43855,227.09176 199.79919,225.97289   C 199.15984,224.81405 198.24076,224.01486 197.08192,223.5753   C 195.88313,223.1757 193.88514,222.93594 191.00803,222.93594   L 183.01606,222.93594   z  M 183.01606,257.78092   L 192.96606,257.78092   C 194.64437,257.78092 195.84317,257.701 196.56245,257.54116   C 197.76124,257.3014 198.8002,256.9018 199.59939,256.30241   C 200.39859,255.74297 201.07791,254.90381 201.59739,253.78494   C 202.15682,252.66606 202.39658,251.38735 202.39658,249.94879   C 202.39658,248.23052 202.03694,246.752 201.23775,245.51325   C 200.47851,244.27449 199.43956,243.39538 198.08092,242.8759   C 196.72229,242.35642 194.80421,242.11666 192.24678,242.11666   L 183.01606,242.11666   z  M 215.14377,263.1755   L 215.14377,217.58132   L 230.16867,217.58132   C 232.84598,217.58132 234.84397,217.7012 236.24257,218.02088   C 238.2006,218.38052 239.83895,219.0998 241.15763,220.13875   C 242.4763,221.17771 243.55522,222.65622 244.35441,224.53433   C 245.15361,226.41245 245.59317,228.49036 245.59317,230.76807   C 245.59317,234.64417 244.51425,237.92088 242.35642,240.59819   C 240.19859,243.2755 236.28253,244.63413 230.64819,244.63413   L 220.41847,244.63413   L 220.41847,263.1755   z  M 220.41847,239.23955   L 230.72811,239.23955   C 234.1247,239.23955 236.56225,238.52028 238.0008,237.08172   C 239.39939,235.60321 240.11867,233.56526 240.11867,230.92791   C 240.11867,229.0498 239.71907,227.41144 238.87992,226.05281   C 238.04076,224.69417 236.92188,223.7751 235.52329,223.3755   C 234.64417,223.09578 233.00582,222.93594 230.60823,222.93594   L 220.41847,222.93594   z  M 247.91084,263.1755   L 263.21546,217.58132   L 268.92971,217.58132   L 285.23333,263.1755   L 279.23935,263.1755   L 274.56405,249.34939   L 257.9008,249.34939   L 253.50522,263.1755   z  M 259.41927,244.43433   L 272.96566,244.43433   L 268.76988,231.80702   C 267.53112,227.97088 266.57208,224.81405 265.97269,222.3765   C 265.45321,225.29357 264.73393,228.17068 263.81486,231.04779   z  M 289.46907,263.1755   L 289.46907,217.58132   L 303.21526,217.58132   C 306.29216,217.58132 308.64979,217.78112 310.28815,218.22068   C 312.60582,218.82008 314.52389,219.89899 316.16224,221.49739   C 318.24016,223.53534 319.83855,226.13273 320.87751,229.28955   C 321.91646,232.44638 322.43594,236.04277 322.43594,240.11867   C 322.43594,243.59518 322.0763,246.63212 321.35702,249.30943   C 320.67771,251.98674 319.75863,254.22449 318.63975,255.94277   C 317.56084,257.701 316.32208,259.09959 315.00341,260.09859   C 313.72469,261.09759 312.1263,261.85682 310.24819,262.3763   C 308.41004,262.89578 306.2522,263.1755 303.85461,263.1755   z  M 294.74377,257.78092   L 303.25522,257.78092   C 305.89257,257.78092 307.93052,257.5012 309.44899,256.94176   C 310.92751,256.38233 312.1263,255.58313 313.00542,254.58413   C 314.28413,253.14558 315.24317,251.22751 315.96245,248.78996   C 316.64176,246.39237 317.0014,243.4753 317.0014,240.03875   C 317.0014,235.24357 316.32208,231.60723 314.92349,229.0498   C 313.56485,226.49237 311.9265,224.77409 309.92851,223.89498   C 308.52992,223.25562 306.2522,222.93594 303.13534,222.93594   L 294.74377,222.93594   z "
     style="fill:#000000;fill-rule:evenodd;fill-opacity:1;stroke:none;" />
  <path
     id="path11"
     d="  M 102.29719,188.61044   L 102.29719,188.61044   L 140.65863,246.15261   L 102.29719,303.69477  "
     style="fill:none;stroke:#000000;stroke-width:9.5903616px;stroke-linecap:butt;stroke-linejoin:miter;stroke-miterlimit:10;stroke-dasharray:none;stroke-opacity:1;" />
  <path
     id="path13"
     d="  M 390.00803,188.61044   L 390.00803,188.61044   L 351.64658,246.15261   L 390.00803,303.69477  "
     style="fill:none;stroke:#000000;stroke-width:9.5903616px;stroke-linecap:butt;stroke-linejoin:miter;stroke-miterlimit:10;stroke-dasharray:none;stroke-opacity:1;" />
</svg>
