<?xml version="1.0" encoding="UTF-8" standalone="no"?>
<svg
   xmlns:dc="http://purl.org/dc/elements/1.1/"
   xmlns:cc="http://creativecommons.org/ns#"
   xmlns:rdf="http://www.w3.org/1999/02/22-rdf-syntax-ns#"
   xmlns:svg="http://www.w3.org/2000/svg"
   xmlns="http://www.w3.org/2000/svg"
   id="svg15"
   height="116.73mm"
   width="116.73mm"
   version="1.0">
  <metadata
     id="metadata19">
    <rdf:RDF>
      <cc:Work
         rdf:about="">
        <dc:format>image/svg+xml</dc:format>
        <dc:type
           rdf:resource="http://purl.org/dc/dcmitype/StillImage" />
      </cc:Work>
    </rdf:RDF>
  </metadata>
  <defs
     id="defs3">
    <pattern
       y="0"
       x="0"
       height="6"
       width="6"
       patternUnits="userSpaceOnUse"
       id="EMFhbasepattern" />
  </defs>
  <path
     id="path5"
     d="  M 220.57831,386.49156   L 220.57831,386.49156   L 386.49156,220.57831   L 220.57831,54.665059   L 54.665059,220.57831   L 220.57831,386.49156   z "
     style="fill:#ff8080;fill-rule:evenodd;fill-opacity:1;stroke:none;" />
  <path
     id="path7"
     d="  M 220.57831,386.49156   L 220.57831,386.49156   L 386.49156,220.57831   L 220.57831,54.665059   L 54.665059,220.57831   L 220.57831,386.49156  "
     style="fill:none;stroke:#000000;stroke-width:9.5903616px;stroke-linecap:butt;stroke-linejoin:miter;stroke-miterlimit:10;stroke-dasharray:none;stroke-opacity:1;" />
  <path
     id="path9"
     d="  M 152.16707,237.6012   L 152.16707,192.00703   L 167.15201,192.00703   C 170.18895,192.00703 172.6265,192.44658 174.46466,193.36566   C 176.30281,194.3247 177.74136,195.72329 178.78032,197.64136   C 179.85923,199.55943 180.37871,201.55743 180.37871,203.6753   C 180.37871,205.59337 179.89919,207.43152 178.98012,209.1498   C 178.06104,210.86807 176.66245,212.26666 174.78433,213.34558   C 177.18193,214.14478 179.06004,215.50341 180.33875,217.46144   C 181.65743,219.41947 182.29678,221.69719 182.29678,224.37449   C 182.29678,226.49237 181.89719,228.49036 181.09799,230.32851   C 180.33875,232.16666 179.33976,233.56526 178.18092,234.56425   C 177.02209,235.56325 175.58353,236.32249 173.8253,236.802   C 172.06707,237.32148 169.90923,237.6012 167.39176,237.6012   z  M 157.44176,211.14779   L 166.07309,211.14779   C 168.43072,211.14779 170.10903,210.98795 171.10803,210.62831   C 172.46666,210.14879 173.46566,209.42952 174.14498,208.3506   C 174.82429,207.31164 175.18393,205.95301 175.18393,204.35462   C 175.18393,202.8761 174.86425,201.51747 174.2249,200.39859   C 173.58554,199.23976 172.66646,198.44056 171.50763,198.001   C 170.30883,197.6014 168.31084,197.36164 165.43373,197.36164   L 157.44176,197.36164   z  M 157.44176,232.20662   L 167.39176,232.20662   C 169.07008,232.20662 170.26887,232.1267 170.98815,231.96686   C 172.18695,231.72711 173.2259,231.32751 174.0251,230.72811   C 174.82429,230.16867 175.50361,229.32951 176.02309,228.21064   C 176.58253,227.09176 176.82229,225.81305 176.82229,224.37449   C 176.82229,222.65622 176.46265,221.17771 175.66345,219.93895   C 174.90421,218.7002 173.86526,217.82108 172.50662,217.3016   C 171.14799,216.78213 169.22992,216.54237 166.67249,216.54237   L 157.44176,216.54237   z  M 189.56948,237.6012   L 189.56948,192.00703   L 204.59437,192.00703   C 207.27168,192.00703 209.26968,192.1269 210.66827,192.44658   C 212.6263,192.80622 214.26466,193.5255 215.58333,194.56446   C 216.902,195.60341 217.98092,197.08192 218.78012,198.96004   C 219.57931,200.83815 220.01887,202.91606 220.01887,205.19377   C 220.01887,209.06988 218.93996,212.34658 216.78213,215.02389   C 214.62429,217.7012 210.70823,219.05984 205.07389,219.05984   L 194.84417,219.05984   L 194.84417,237.6012   z  M 194.84417,213.66526   L 205.15381,213.66526   C 208.5504,213.66526 210.98795,212.94598 212.4265,211.50743   C 213.8251,210.02891 214.54437,207.99096 214.54437,205.35361   C 214.54437,203.4755 214.14478,201.83715 213.30562,200.47851   C 212.46646,199.11988 211.34759,198.2008 209.94899,197.8012   C 209.06988,197.52148 207.43152,197.36164 205.03393,197.36164   L 194.84417,197.36164   z  M 222.33654,237.6012   L 237.64116,192.00703   L 243.35542,192.00703   L 259.65903,237.6012   L 253.66506,237.6012   L 248.98976,223.7751   L 232.3265,223.7751   L 227.93092,237.6012   z  M 233.84498,218.86004   L 247.39136,218.86004   L 243.19558,206.23273   C 241.95682,202.39658 240.99779,199.23976 240.39839,196.80221   C 239.87891,199.71927 239.15964,202.59638 238.24056,205.47349   z  M 263.89478,237.6012   L 263.89478,192.00703   L 277.64096,192.00703   C 280.71787,192.00703 283.0755,192.20682 284.71385,192.64638   C 287.03152,193.24578 288.94959,194.3247 290.58795,195.92309   C 292.66586,197.96104 294.26425,200.55843 295.30321,203.71526   C 296.34216,206.87209 296.86164,210.46847 296.86164,214.54437   C 296.86164,218.02088 296.502,221.05783 295.78273,223.73514   C 295.10341,226.41245 294.18433,228.6502 293.06546,230.36847   C 291.98654,232.1267 290.74779,233.5253 289.42911,234.52429   C 288.1504,235.52329 286.552,236.28253 284.67389,236.802   C 282.83574,237.32148 280.67791,237.6012 278.28032,237.6012   z  M 269.16947,232.20662   L 277.68092,232.20662   C 280.31827,232.20662 282.35622,231.9269 283.87469,231.36747   C 285.35321,230.80803 286.552,230.00883 287.43112,229.00984   C 288.70984,227.57128 289.66887,225.65321 290.38815,223.21566   C 291.06747,220.81807 291.4271,217.901 291.4271,214.46445   C 291.4271,209.66927 290.74779,206.03293 289.34919,203.4755   C 287.99056,200.91807 286.3522,199.1998 284.35421,198.32068   C 282.95562,197.68132 280.67791,197.36164 277.56104,197.36164   L 269.16947,197.36164   z "
     style="fill:#000000;fill-rule:evenodd;fill-opacity:1;stroke:none;" />
  <path
     id="path11"
     d="  M 95.903613,177.42168   L 95.903613,177.42168   L 124.6747,220.57831   L 95.903613,263.73494  "
     style="fill:none;stroke:#000000;stroke-width:9.5903616px;stroke-linecap:butt;stroke-linejoin:miter;stroke-miterlimit:10;stroke-dasharray:none;stroke-opacity:1;" />
  <path
     id="path13"
     d="  M 345.25301,177.42168   L 345.25301,177.42168   L 316.48192,220.57831   L 345.25301,263.73494  "
     style="fill:none;stroke:#000000;stroke-width:9.5903616px;stroke-linecap:butt;stroke-linejoin:miter;stroke-miterlimit:10;stroke-dasharray:none;stroke-opacity:1;" />
</svg>
