<?xml version="1.0" encoding="UTF-8" standalone="no"?>
<svg
   xmlns:dc="http://purl.org/dc/elements/1.1/"
   xmlns:cc="http://creativecommons.org/ns#"
   xmlns:rdf="http://www.w3.org/1999/02/22-rdf-syntax-ns#"
   xmlns:svg="http://www.w3.org/2000/svg"
   xmlns="http://www.w3.org/2000/svg"
   id="svg11"
   height="89.669998mm"
   width="120.11mm"
   version="1.0">
  <metadata
     id="metadata15">
    <rdf:RDF>
      <cc:Work
         rdf:about="">
        <dc:format>image/svg+xml</dc:format>
        <dc:type
           rdf:resource="http://purl.org/dc/dcmitype/StillImage" />
      </cc:Work>
    </rdf:RDF>
  </metadata>
  <defs
     id="defs3">
    <pattern
       y="0"
       x="0"
       height="6"
       width="6"
       patternUnits="userSpaceOnUse"
       id="EMFhbasepattern" />
  </defs>
  <path
     id="path5"
     d="  M 54.345381,54.345381   L 54.345381,284.51405   L 399.59839,284.51405   L 399.59839,54.345381   L 54.345381,54.345381   z "
     style="fill:#80e0ff;fill-rule:evenodd;fill-opacity:1;stroke:none;" />
  <path
     id="path7"
     d="  M 54.345381,54.345381   L 399.59839,54.345381   L 399.59839,284.51405   L 54.345381,284.51405   z "
     style="fill:none;stroke:#000000;stroke-width:9.5903616px;stroke-linecap:butt;stroke-linejoin:miter;stroke-miterlimit:10;stroke-dasharray:none;stroke-opacity:1;" />
  <path
     id="path9"
     d="  M 129.23012,190.68835   L 129.23012,133.70562   L 150.60863,133.70562   C 154.96425,133.70562 158.48072,134.26506 161.07811,135.42389   C 163.71546,136.58273 165.79337,138.38092 167.27189,140.73855   C 168.7504,143.13614 169.50964,145.65361 169.50964,148.29096   C 169.50964,150.72851 168.87028,153.00622 167.51164,155.16405   C 166.19297,157.32189 164.19498,159.04016 161.55763,160.35883   C 164.99417,161.35783 167.63152,163.11606 169.50964,165.55361   C 171.34779,167.9512 172.26686,170.82831 172.26686,174.14498   C 172.26686,176.82229 171.70743,179.2998 170.58855,181.61747   C 169.46968,183.89518 168.07108,185.65341 166.39277,186.89217   C 164.75442,188.17088 162.6765,189.08996 160.15903,189.72931   C 157.68152,190.36867 154.60462,190.68835 150.96827,190.68835   z  M 136.78253,157.64156   L 149.09016,157.64156   C 152.44678,157.64156 154.84438,157.44176 156.28293,156.96225   C 158.201,156.40281 159.63956,155.48373 160.63855,154.16506   C 161.59759,152.80642 162.07711,151.16807 162.07711,149.17008   C 162.07711,147.29197 161.63755,145.61365 160.71847,144.1751   C 159.83936,142.73654 158.52068,141.73755 156.84237,141.21807   C 155.16405,140.69859 152.28695,140.41887 148.17108,140.41887   L 136.78253,140.41887   z  M 136.78253,183.9751   L 150.96827,183.9751   C 153.40582,183.9751 155.12409,183.85522 156.08313,183.69538   C 157.84136,183.3757 159.27992,182.85622 160.43875,182.13695   C 161.63755,181.41767 162.59658,180.33875 163.31586,178.98012   C 164.0751,177.58152 164.4747,175.98313 164.4747,174.14498   C 164.4747,172.02711 163.91526,170.18895 162.83634,168.63052   C 161.75743,167.07209 160.23895,165.95321 158.28092,165.31385   C 156.36285,164.6745 153.60562,164.35482 149.96927,164.35482   L 136.78253,164.35482   z  M 182.65642,190.68835   L 182.65642,133.70562   L 204.15482,133.70562   C 207.91104,133.70562 210.82811,133.86546 212.8261,134.2251   C 215.62329,134.70462 217.94096,135.58373 219.85903,136.90241   C 221.73715,138.22108 223.25562,140.05923 224.41445,142.41687   C 225.57329,144.7745 226.13273,147.37189 226.13273,150.16907   C 226.13273,155.04417 224.61425,159.12008 221.49739,162.4767   C 218.42048,165.83333 212.86606,167.51164 204.79417,167.51164   L 190.16887,167.51164   L 190.16887,190.68835   z  M 190.16887,160.79839   L 204.91405,160.79839   C 209.78915,160.79839 213.26566,159.87931 215.30361,158.08112   C 217.34156,156.24297 218.38052,153.7255 218.38052,150.40883   C 218.38052,148.0512 217.78112,145.97329 216.54237,144.29498   C 215.34357,142.61666 213.78514,141.45783 211.78715,140.93835   C 210.54839,140.57871 208.19076,140.41887 204.75421,140.41887   L 190.16887,140.41887   z  M 229.48935,190.68835   L 251.34739,133.70562   L 259.49919,133.70562   L 282.79578,190.68835   L 274.20441,190.68835   L 267.57108,173.4257   L 243.75502,173.4257   L 237.48132,190.68835   z  M 245.91285,167.27189   L 265.25341,167.27189   L 259.29939,151.48775   C 257.5012,146.69257 256.14257,142.7765 255.26345,139.6996   C 254.54417,143.33594 253.50522,146.97229 252.18654,150.56867   z  M 288.82971,190.68835   L 288.82971,133.70562   L 308.45,133.70562   C 312.88554,133.70562 316.28212,133.98534 318.59979,134.50482   C 321.8765,135.26405 324.67369,136.62269 326.9514,138.58072   C 329.98835,141.13815 332.2261,144.3749 333.70461,148.33092   C 335.18313,152.28695 335.94236,156.80241 335.94236,161.87731   C 335.94236,166.19297 335.42289,170.02911 334.42389,173.38574   C 333.42489,176.74237 332.10622,179.4996 330.54779,181.69739   C 328.94939,183.85522 327.23112,185.61345 325.35301,186.85221   C 323.47489,188.13092 321.19718,189.05 318.55983,189.72931   C 315.88253,190.36867 312.84558,190.68835 309.40903,190.68835   z  M 296.38212,183.9751   L 308.52992,183.9751   C 312.28614,183.9751 315.24317,183.61546 317.401,182.89618   C 319.51887,182.21686 321.23714,181.21787 322.4759,179.93915   C 324.27409,178.18092 325.67269,175.78333 326.67168,172.74638   C 327.67068,169.70944 328.1502,166.07309 328.1502,161.75743   C 328.1502,155.80341 327.19116,151.20803 325.23313,148.01124   C 323.2751,144.81446 320.91747,142.69658 318.12028,141.57771   C 316.08232,140.81847 312.84558,140.41887 308.33012,140.41887   L 296.38212,140.41887   z "
     style="fill:#000000;fill-rule:evenodd;fill-opacity:1;stroke:none;" />
</svg>
