<?xml version="1.0" encoding="UTF-8" standalone="no"?>
<svg
   xmlns:dc="http://purl.org/dc/elements/1.1/"
   xmlns:cc="http://creativecommons.org/ns#"
   xmlns:rdf="http://www.w3.org/1999/02/22-rdf-syntax-ns#"
   xmlns:svg="http://www.w3.org/2000/svg"
   xmlns="http://www.w3.org/2000/svg"
   id="svg11"
   height="130.27mm"
   width="130.27mm"
   version="1.0">
  <metadata
     id="metadata15">
    <rdf:RDF>
      <cc:Work
         rdf:about="">
        <dc:format>image/svg+xml</dc:format>
        <dc:type
           rdf:resource="http://purl.org/dc/dcmitype/StillImage" />
      </cc:Work>
    </rdf:RDF>
  </metadata>
  <defs
     id="defs3">
    <pattern
       y="0"
       x="0"
       height="6"
       width="6"
       patternUnits="userSpaceOnUse"
       id="EMFhbasepattern" />
  </defs>
  <path
     id="path5"
     d="  M 164.63454,327.67068   C 164.63454,437.95983 327.67068,437.95983 327.67068,327.67068   C 437.95983,327.67068 437.95983,164.63454 327.67068,164.63454   C 327.67068,54.345381 164.63454,54.345381 164.63454,164.63454   C 54.345381,164.63454 54.345381,327.67068 164.63454,327.67068   z "
     style="fill:#ffff80;fill-rule:evenodd;fill-opacity:1;stroke:none;" />
  <path
     id="path7"
     d="  M 164.63454,327.67068   C 164.63454,437.95983 327.67068,437.95983 327.67068,327.67068   C 437.95983,327.67068 437.95983,164.63454 327.67068,164.63454   C 327.67068,54.345381 164.63454,54.345381 164.63454,164.63454   C 54.345381,164.63454 54.345381,327.67068 164.63454,327.67068  "
     style="fill:none;stroke:#000000;stroke-width:9.5903616px;stroke-linecap:butt;stroke-linejoin:miter;stroke-miterlimit:10;stroke-dasharray:none;stroke-opacity:1;" />
  <path
     id="path9"
     d="  M 148.41084,267.41124   L 148.41084,210.42851   L 169.78935,210.42851   C 174.14498,210.42851 177.66144,210.98795 180.25883,212.14678   C 182.89618,213.30562 184.97409,215.10381 186.45261,217.46144   C 187.93112,219.85903 188.69036,222.3765 188.69036,225.01385   C 188.69036,227.4514 188.051,229.72911 186.69237,231.88694   C 185.37369,234.04478 183.3757,235.76305 180.73835,237.08172   C 184.1749,238.08072 186.81225,239.83895 188.69036,242.2765   C 190.52851,244.67409 191.44759,247.5512 191.44759,250.86787   C 191.44759,253.54518 190.88815,256.02269 189.76927,258.34036   C 188.6504,260.61807 187.2518,262.3763 185.57349,263.61506   C 183.93514,264.89377 181.85723,265.81285 179.33976,266.4522   C 176.86225,267.09156 173.78534,267.41124 170.14899,267.41124   z  M 155.96325,234.36445   L 168.27088,234.36445   C 171.62751,234.36445 174.0251,234.16466 175.46365,233.68514   C 177.38172,233.1257 178.82028,232.20662 179.81927,230.88795   C 180.77831,229.52931 181.25783,227.89096 181.25783,225.89297   C 181.25783,224.01486 180.81827,222.33654 179.89919,220.89799   C 179.02008,219.45943 177.7014,218.46044 176.02309,217.94096   C 174.34478,217.42148 171.46767,217.14176 167.3518,217.14176   L 155.96325,217.14176   z  M 155.96325,260.69799   L 170.14899,260.69799   C 172.58654,260.69799 174.30482,260.57811 175.26385,260.41827   C 177.02209,260.09859 178.46064,259.57911 179.61948,258.85984   C 180.81827,258.14056 181.77731,257.06164 182.49658,255.70301   C 183.25582,254.30441 183.65542,252.70602 183.65542,250.86787   C 183.65542,248.75 183.09598,246.91184 182.01707,245.35341   C 180.93815,243.79498 179.41968,242.6761 177.46164,242.03674   C 175.54357,241.39739 172.78634,241.07771 169.15,241.07771   L 155.96325,241.07771   z  M 201.83715,267.41124   L 201.83715,210.42851   L 223.33554,210.42851   C 227.09176,210.42851 230.00883,210.58835 232.00682,210.94799   C 234.80401,211.42751 237.12168,212.30662 239.03976,213.6253   C 240.91787,214.94397 242.43634,216.78213 243.59518,219.13976   C 244.75401,221.49739 245.31345,224.09478 245.31345,226.89196   C 245.31345,231.76706 243.79498,235.84297 240.67811,239.19959   C 237.6012,242.55622 232.04678,244.23453 223.9749,244.23453   L 209.3496,244.23453   L 209.3496,267.41124   z  M 209.3496,237.52128   L 224.09478,237.52128   C 228.96988,237.52128 232.44638,236.60221 234.48433,234.80401   C 236.52229,232.96586 237.56124,230.44839 237.56124,227.13172   C 237.56124,224.77409 236.96184,222.69618 235.72309,221.01787   C 234.52429,219.33956 232.96586,218.18072 230.96787,217.66124   C 229.72911,217.3016 227.37148,217.14176 223.93494,217.14176   L 209.3496,217.14176   z  M 248.67008,267.41124   L 270.52811,210.42851   L 278.67992,210.42851   L 301.9765,267.41124   L 293.38514,267.41124   L 286.7518,250.14859   L 262.93574,250.14859   L 256.66204,267.41124   z  M 265.09357,243.99478   L 284.43413,243.99478   L 278.48012,228.21064   C 276.68192,223.41546 275.32329,219.49939 274.44417,216.42249   C 273.7249,220.05883 272.68594,223.69518 271.36727,227.29156   z  M 308.01044,267.41124   L 308.01044,210.42851   L 327.63072,210.42851   C 332.06626,210.42851 335.46285,210.70823 337.78052,211.22771   C 341.05722,211.98694 343.85441,213.34558 346.13212,215.30361   C 349.16907,217.86104 351.40682,221.09779 352.88534,225.05381   C 354.36385,229.00984 355.12309,233.5253 355.12309,238.6002   C 355.12309,242.91586 354.60361,246.752 353.60461,250.10863   C 352.60562,253.46526 351.28694,256.22249 349.72851,258.42028   C 348.13012,260.57811 346.41184,262.33634 344.53373,263.5751   C 342.65562,264.85381 340.37791,265.77289 337.74056,266.4522   C 335.06325,267.09156 332.0263,267.41124 328.58975,267.41124   z  M 315.56285,260.69799   L 327.71064,260.69799   C 331.46686,260.69799 334.42389,260.33835 336.58172,259.61907   C 338.69959,258.93976 340.41787,257.94076 341.65662,256.66204   C 343.45481,254.90381 344.85341,252.50622 345.8524,249.46927   C 346.8514,246.43233 347.33092,242.79598 347.33092,238.48032   C 347.33092,232.5263 346.37188,227.93092 344.41385,224.73413   C 342.45582,221.53735 340.09819,219.41947 337.301,218.3006   C 335.26305,217.54136 332.0263,217.14176 327.51084,217.14176   L 315.56285,217.14176   z "
     style="fill:#000000;fill-rule:evenodd;fill-opacity:1;stroke:none;" />
</svg>
