<?xml version="1.0" encoding="UTF-8" standalone="no"?>
<svg
   xmlns:dc="http://purl.org/dc/elements/1.1/"
   xmlns:cc="http://creativecommons.org/ns#"
   xmlns:rdf="http://www.w3.org/1999/02/22-rdf-syntax-ns#"
   xmlns:svg="http://www.w3.org/2000/svg"
   xmlns="http://www.w3.org/2000/svg"
   id="svg33"
   height="116.73mm"
   width="116.73mm"
   version="1.0">
  <metadata
     id="metadata37">
    <rdf:RDF>
      <cc:Work
         rdf:about="">
        <dc:format>image/svg+xml</dc:format>
        <dc:type
           rdf:resource="http://purl.org/dc/dcmitype/StillImage" />
      </cc:Work>
    </rdf:RDF>
  </metadata>
  <defs
     id="defs3">
    <pattern
       y="0"
       x="0"
       height="6"
       width="6"
       patternUnits="userSpaceOnUse"
       id="EMFhbasepattern" />
  </defs>
  <path
     id="path5"
     d="  M 172.6265,43.156626   L 172.6265,100.69879   L 268.53012,100.69879   L 268.53012,43.156626   L 172.6265,43.156626   z "
     style="fill:#000000;fill-rule:evenodd;fill-opacity:1;stroke:none;" />
  <path
     id="path7"
     d="  M 220.57831,386.49156   L 220.57831,386.49156   L 386.49156,220.57831   L 220.57831,54.665059   L 54.665059,220.57831   L 220.57831,386.49156   z "
     style="fill:#ff8080;fill-rule:evenodd;fill-opacity:1;stroke:none;" />
  <path
     id="path9"
     d="  M 220.57831,386.49156   L 220.57831,386.49156   L 386.49156,220.57831   L 220.57831,54.665059   L 54.665059,220.57831   L 220.57831,386.49156  "
     style="fill:none;stroke:#000000;stroke-width:9.5903616px;stroke-linecap:butt;stroke-linejoin:miter;stroke-miterlimit:10;stroke-dasharray:none;stroke-opacity:1;" />
  <path
     id="path11"
     d="  M 193.80522,225.81305   L 216.26265,225.73313   L 238.95984,195.68333   L 222.73614,195.68333   C 221.05783,195.68333 195.88313,222.65622 193.80522,225.81305   z "
     style="fill:#ffffff;fill-rule:evenodd;fill-opacity:1;stroke:none;" />
  <path
     id="path13"
     d="  M 218.66024,226.33253   L 240.11867,250.10863   C 241.51727,249.10963 263.85482,216.78213 263.85482,216.54237   C 263.85482,215.70321 244.43433,197.6014 242.2765,196.16285   z "
     style="fill:#ffffff;fill-rule:evenodd;fill-opacity:1;stroke:none;" />
  <path
     id="path15"
     d="  M 159.91927,250.42831   L 170.02911,250.70803   C 173.4257,245.67309 179.41968,238.4004 183.53554,233.48534   C 187.4516,228.81004 195.88313,220.89799 198.4006,217.1018   L 191.72731,216.78213   z "
     style="fill:#ffffff;fill-rule:evenodd;fill-opacity:1;stroke:none;" />
  <path
     id="path17"
     d="  M 172.94618,250.70803   L 237.2016,250.70803   C 236.64217,248.59016 216.82209,228.13072 215.22369,228.13072   L 193.20582,228.13072   C 191.12791,228.13072 174.70442,248.03072 172.94618,250.70803   z "
     style="fill:#ffffff;fill-rule:evenodd;fill-opacity:1;stroke:none;" />
  <path
     id="path19"
     d="  M 242.83594,250.58815   L 242.83594,250.58815   L 252.58614,250.94779   L 277.72088,217.1018   L 266.29237,217.18172   z "
     style="fill:#ffffff;fill-rule:evenodd;fill-opacity:1;stroke:none;" />
  <path
     id="path21"
     d="  M 228.53032,253.0257   L 251.66706,253.0257   C 252.70602,253.0257 273.28534,275.00361 274.84377,277.32128   L 209.42952,277.32128   C 210.02891,274.96365 227.2516,253.0257 228.53032,253.0257   z  M 158.48072,253.0257   L 182.21686,253.0257   C 183.65542,253.0257 201.87711,274.68393 203.63534,277.32128   L 138.22108,277.32128   C 138.86044,274.88373 156.92229,253.0257 158.48072,253.0257   z  M 186.09297,253.14558   L 222.93594,253.18554   L 206.47249,276.8018   z  M 172.94618,250.70803   C 174.70442,248.03072 191.12791,228.13072 193.20582,228.13072   L 215.22369,228.13072   C 216.82209,228.13072 236.64217,248.59016 237.2016,250.70803   z  M 277.76084,276.76184   L 255.18353,251.86686   L 280.03855,217.7012   L 303.3751,238.08072   L 277.76084,276.76184   z  M 266.29237,217.18172   L 277.72088,217.1018   L 252.58614,250.94779   L 242.83594,250.58815   z  M 191.72731,216.78213   L 198.4006,217.1018   C 195.88313,220.89799 187.4516,228.81004 183.53554,233.48534   C 179.41968,238.4004 173.4257,245.67309 170.02911,250.70803   L 159.91927,250.42831   z  M 242.2765,196.16285   C 244.43433,197.6014 263.85482,215.70321 263.85482,216.54237   C 263.85482,216.78213 241.51727,249.10963 240.11867,250.10863   L 218.66024,226.33253   z  M 193.80522,225.81305   C 195.88313,222.65622 221.05783,195.68333 222.73614,195.68333   L 238.95984,195.68333   L 216.26265,225.73313   z  M 200.71827,214.78413   L 189.72931,214.78413   C 186.77229,219.17972 179.41968,226.53233 175.38373,230.56827   C 170.34879,235.60321 165.95321,241.19759 160.91827,246.19257   C 157.72148,249.42931 134.14518,276.88172 133.58574,279.07951   C 134.86446,279.35923 134.90442,279.63895 136.46285,279.63895   L 278.63996,279.47911   L 306.49196,237.64116   L 305.69277,237.801   L 280.63795,214.78413   L 266.73192,214.78413   C 263.05562,212.34658 243.71506,193.36566 241.83694,193.36566   L 222.13674,193.36566   C 220.05883,193.36566 204.0749,212.54638 200.71827,214.78413   z "
     style="fill:#000000;fill-rule:evenodd;fill-opacity:1;stroke:none;" />
  <path
     id="path23"
     d="  M 206.47249,276.8018   L 206.47249,276.8018   L 222.9759,253.18554   L 186.09297,253.14558   z "
     style="fill:#ffffff;fill-rule:evenodd;fill-opacity:1;stroke:none;" />
  <path
     id="path25"
     d="  M 303.3751,238.08072   L 303.3751,238.08072   L 280.03855,217.7012   L 255.18353,251.86686   L 277.76084,276.76184   z "
     style="fill:#ffffff;fill-rule:evenodd;fill-opacity:1;stroke:none;" />
  <path
     id="path27"
     d="  M 158.48072,253.0257   C 156.92229,253.0257 138.86044,274.88373 138.22108,277.32128   L 203.63534,277.32128   C 201.87711,274.68393 183.65542,253.0257 182.21686,253.0257   L 158.48072,253.0257   z "
     style="fill:#ffffff;fill-rule:evenodd;fill-opacity:1;stroke:none;" />
  <path
     id="path29"
     d="  M 228.53032,253.0257   C 227.2516,253.0257 210.02891,274.96365 209.42952,277.32128   L 274.84377,277.32128   C 273.28534,275.00361 252.70602,253.0257 251.66706,253.0257   z "
     style="fill:#ffffff;fill-rule:evenodd;fill-opacity:1;stroke:none;" />
  <path
     id="path31"
     d="  M 154.76446,154.5247   L 159.2,154.1251   C 159.3998,155.92329 159.91927,157.4018 160.67851,158.56064   C 161.43775,159.67952 162.63654,160.59859 164.2749,161.31787   C 165.87329,162.03715 167.71144,162.35682 169.7494,162.35682   C 171.54759,162.35682 173.14598,162.11707 174.50462,161.55763   C 175.90321,161.03815 176.94217,160.31887 177.58152,159.35984   C 178.26084,158.44076 178.62048,157.4018 178.62048,156.32289   C 178.62048,155.20401 178.3008,154.20502 177.62148,153.36586   C 176.98213,152.5267 175.90321,151.84739 174.4247,151.28795   C 173.46566,150.88835 171.34779,150.32891 168.07108,149.52972   C 164.79438,148.73052 162.4767,148.01124 161.15803,147.29197   C 159.47972,146.41285 158.201,145.29397 157.36185,143.9753   C 156.52269,142.65662 156.12309,141.17811 156.12309,139.53976   C 156.12309,137.74156 156.60261,136.06325 157.64156,134.46486   C 158.68052,132.90642 160.15903,131.74759 162.11707,130.90843   C 164.0751,130.10924 166.27289,129.70964 168.67048,129.70964   C 171.30783,129.70964 173.66546,130.10924 175.66345,130.98835   C 177.7014,131.82751 179.25984,133.06626 180.33875,134.74458   C 181.41767,136.38293 182.01707,138.26104 182.09699,140.37891   L 177.58152,140.69859   C 177.3018,138.46084 176.50261,136.74257 175.10401,135.58373   C 173.70542,134.4249 171.62751,133.86546 168.87028,133.86546   C 165.99317,133.86546 163.91526,134.38494 162.63654,135.42389   C 161.31787,136.46285 160.67851,137.74156 160.67851,139.22008   C 160.67851,140.49879 161.11807,141.53775 162.03715,142.37691   C 162.95622,143.21606 165.35381,144.05522 169.18996,144.93434   C 173.0261,145.81345 175.66345,146.57269 177.06205,147.21205   C 179.13996,148.17108 180.69839,149.36988 181.65743,150.84839   C 182.65642,152.32691 183.1759,154.00522 183.1759,155.92329   C 183.1759,157.84136 182.61646,159.5996 181.53755,161.27791   C 180.45863,162.95622 178.9002,164.2749 176.86225,165.19397   C 174.82429,166.15301 172.50662,166.59257 169.94919,166.59257   C 166.75241,166.59257 164.03514,166.15301 161.83735,165.19397   C 159.67952,164.2749 157.96124,162.83634 156.72249,160.95823   C 155.48373,159.08012 154.80442,156.92229 154.76446,154.5247   z  M 198.68032,165.99317   L 198.68032,134.50482   L 186.93213,134.50482   L 186.93213,130.30903   L 215.22369,130.30903   L 215.22369,134.50482   L 203.43554,134.50482   L 203.43554,165.99317   z  M 218.66024,148.61064   C 218.66024,142.69658 220.21867,138.06124 223.41546,134.70462   C 226.61225,131.34799 230.68815,129.66968 235.72309,129.66968   C 239.03976,129.66968 241.99678,130.46887 244.63413,132.02731   C 247.31144,133.6257 249.30943,135.82349 250.70803,138.62068   C 252.10662,141.45783 252.78594,144.61466 252.78594,148.21104   C 252.78594,151.80743 252.06666,155.04417 250.58815,157.92128   C 249.10963,160.79839 247.07168,162.95622 244.39437,164.39478   C 241.71706,165.87329 238.8,166.59257 235.72309,166.59257   C 232.36646,166.59257 229.32951,165.79337 226.69217,164.19498   C 224.05482,162.55662 222.05682,160.35883 220.69819,157.52168   C 219.33956,154.7245 218.66024,151.76747 218.66024,148.61064   z  M 223.49538,148.69056   C 223.49538,153.00622 224.65421,156.40281 226.97188,158.84036   C 229.28955,161.31787 232.20662,162.55662 235.68313,162.55662   C 239.23955,162.55662 242.15662,161.31787 244.47429,158.84036   C 246.752,156.32289 247.91084,152.76646 247.91084,148.17108   C 247.91084,145.29397 247.43132,142.73654 246.43233,140.57871   C 245.47329,138.42088 244.03474,136.74257 242.11666,135.54377   C 240.23855,134.34498 238.12068,133.74558 235.76305,133.74558   C 232.40642,133.74558 229.52931,134.90442 227.13172,137.18213   C 224.73413,139.4998 223.49538,143.33594 223.49538,148.69056   z  M 258.93976,165.99317   L 258.93976,130.30903   L 274.76385,130.30903   C 277.96064,130.30903 280.35823,130.62871 282.03654,131.26807   C 283.6749,131.90743 284.99357,133.0263 285.99257,134.66466   C 286.99156,136.30301 287.47108,138.1012 287.47108,140.05923   C 287.47108,142.5767 286.67188,144.73454 285.03353,146.45281   C 283.39518,148.17108 280.83775,149.28996 277.44116,149.76948   C 278.67992,150.36887 279.63895,150.96827 280.27831,151.52771   C 281.63694,152.80642 282.95562,154.40482 284.19437,156.28293   L 290.38815,165.99317   L 284.47409,165.99317   L 279.71887,158.56064   C 278.36024,156.44277 277.2014,154.80442 276.32229,153.64558   C 275.44317,152.5267 274.64397,151.72751 273.92469,151.28795   C 273.20542,150.80843 272.48614,150.48875 271.76686,150.32891   C 271.24739,150.20903 270.36827,150.16907 269.12951,150.16907   L 263.65502,150.16907   L 263.65502,165.99317   z  M 263.65502,146.05321   L 273.80482,146.05321   C 275.96265,146.05321 277.68092,145.85341 278.87971,145.37389   C 280.11847,144.93434 281.03755,144.21506 281.6769,143.25602   C 282.2763,142.25703 282.59598,141.21807 282.59598,140.05923   C 282.59598,138.34096 281.99658,136.98233 280.75783,135.86345   C 279.55903,134.78454 277.601,134.26506 274.96365,134.26506   L 263.65502,134.26506   z "
     style="fill:#000000;fill-rule:evenodd;fill-opacity:1;stroke:none;" />
</svg>
