<?xml version="1.0" encoding="UTF-8" standalone="no"?>
<svg
   xmlns:dc="http://purl.org/dc/elements/1.1/"
   xmlns:cc="http://creativecommons.org/ns#"
   xmlns:rdf="http://www.w3.org/1999/02/22-rdf-syntax-ns#"
   xmlns:svg="http://www.w3.org/2000/svg"
   xmlns="http://www.w3.org/2000/svg"
   id="svg33"
   height="89.669998mm"
   width="120.11mm"
   version="1.0">
  <metadata
     id="metadata37">
    <rdf:RDF>
      <cc:Work
         rdf:about="">
        <dc:format>image/svg+xml</dc:format>
        <dc:type
           rdf:resource="http://purl.org/dc/dcmitype/StillImage" />
      </cc:Work>
    </rdf:RDF>
  </metadata>
  <defs
     id="defs3">
    <pattern
       y="0"
       x="0"
       height="6"
       width="6"
       patternUnits="userSpaceOnUse"
       id="EMFhbasepattern" />
  </defs>
  <path
     id="path5"
     d="  M 179.02008,15.983936   L 179.02008,54.345381   L 274.92369,54.345381   L 274.92369,15.983936   L 179.02008,15.983936   z "
     style="fill:#000000;fill-rule:evenodd;fill-opacity:1;stroke:none;" />
  <path
     id="path7"
     d="  M 54.345381,54.345381   L 54.345381,284.51405   L 399.59839,284.51405   L 399.59839,54.345381   L 54.345381,54.345381   z "
     style="fill:#80e0ff;fill-rule:evenodd;fill-opacity:1;stroke:none;" />
  <path
     id="path9"
     d="  M 54.345381,54.345381   L 399.59839,54.345381   L 399.59839,284.51405   L 54.345381,284.51405   z "
     style="fill:none;stroke:#000000;stroke-width:9.5903616px;stroke-linecap:butt;stroke-linejoin:miter;stroke-miterlimit:10;stroke-dasharray:none;stroke-opacity:1;" />
  <path
     id="path11"
     d="  M 200.19879,174.66446   L 222.65622,174.58454   L 245.35341,144.53474   L 229.12972,144.53474   C 227.4514,144.53474 202.2767,171.50763 200.19879,174.66446   z "
     style="fill:#ffffff;fill-rule:evenodd;fill-opacity:1;stroke:none;" />
  <path
     id="path13"
     d="  M 225.05381,175.18393   L 246.51225,198.96004   C 247.91084,197.96104 270.24839,165.63353 270.24839,165.39377   C 270.24839,164.55462 250.82791,146.45281 248.67008,145.01425   z "
     style="fill:#ffffff;fill-rule:evenodd;fill-opacity:1;stroke:none;" />
  <path
     id="path15"
     d="  M 166.31285,199.27972   L 176.42269,199.55943   C 179.81927,194.5245 185.81325,187.2518 189.92911,182.33674   C 193.84518,177.66144 202.2767,169.7494 204.79417,165.95321   L 198.12088,165.63353   z "
     style="fill:#ffffff;fill-rule:evenodd;fill-opacity:1;stroke:none;" />
  <path
     id="path17"
     d="  M 179.33976,199.55943   L 243.59518,199.55943   C 243.03574,197.44156 223.21566,176.98213 221.61727,176.98213   L 199.59939,176.98213   C 197.52148,176.98213 181.09799,196.88213 179.33976,199.55943   z "
     style="fill:#ffffff;fill-rule:evenodd;fill-opacity:1;stroke:none;" />
  <path
     id="path19"
     d="  M 249.22951,199.43956   L 249.22951,199.43956   L 258.97972,199.79919   L 284.11445,165.95321   L 272.68594,166.03313   z "
     style="fill:#ffffff;fill-rule:evenodd;fill-opacity:1;stroke:none;" />
  <path
     id="path21"
     d="  M 234.92389,201.87711   L 258.06064,201.87711   C 259.09959,201.87711 279.67891,223.85502 281.23735,226.17269   L 215.82309,226.17269   C 216.42249,223.81506 233.64518,201.87711 234.92389,201.87711   z  M 164.87429,201.87711   L 188.61044,201.87711   C 190.04899,201.87711 208.27068,223.53534 210.02891,226.17269   L 144.61466,226.17269   C 145.25401,223.73514 163.31586,201.87711 164.87429,201.87711   z  M 192.48654,201.99699   L 229.32951,202.03694   L 212.86606,225.65321   z  M 179.33976,199.55943   C 181.09799,196.88213 197.52148,176.98213 199.59939,176.98213   L 221.61727,176.98213   C 223.21566,176.98213 243.03574,197.44156 243.59518,199.55943   z  M 284.15441,225.61325   L 261.5771,200.71827   L 286.43212,166.55261   L 309.76867,186.93213   L 284.15441,225.61325   z  M 272.68594,166.03313   L 284.11445,165.95321   L 258.97972,199.79919   L 249.22951,199.43956   z  M 198.12088,165.63353   L 204.79417,165.95321   C 202.2767,169.7494 193.84518,177.66144 189.92911,182.33674   C 185.81325,187.2518 179.81927,194.5245 176.42269,199.55943   L 166.31285,199.27972   z  M 248.67008,145.01425   C 250.82791,146.45281 270.24839,164.55462 270.24839,165.39377   C 270.24839,165.63353 247.91084,197.96104 246.51225,198.96004   L 225.05381,175.18393   z  M 200.19879,174.66446   C 202.2767,171.50763 227.4514,144.53474 229.12972,144.53474   L 245.35341,144.53474   L 222.65622,174.58454   z  M 207.11184,163.63554   L 196.12289,163.63554   C 193.16586,168.03112 185.81325,175.38373 181.77731,179.41968   C 176.74237,184.45462 172.34678,190.04899 167.31184,195.04397   C 164.11506,198.28072 140.53875,225.73313 139.97932,227.93092   C 141.25803,228.21064 141.29799,228.49036 142.85642,228.49036   L 285.03353,228.33052   L 312.88554,186.49257   L 312.08634,186.65241   L 287.03152,163.63554   L 273.1255,163.63554   C 269.44919,161.19799 250.10863,142.21707 248.23052,142.21707   L 228.53032,142.21707   C 226.45241,142.21707 210.46847,161.39779 207.11184,163.63554   z "
     style="fill:#000000;fill-rule:evenodd;fill-opacity:1;stroke:none;" />
  <path
     id="path23"
     d="  M 212.86606,225.65321   L 212.86606,225.65321   L 229.36947,202.03694   L 192.48654,201.99699   z "
     style="fill:#ffffff;fill-rule:evenodd;fill-opacity:1;stroke:none;" />
  <path
     id="path25"
     d="  M 309.76867,186.93213   L 309.76867,186.93213   L 286.43212,166.55261   L 261.5771,200.71827   L 284.15441,225.61325   z "
     style="fill:#ffffff;fill-rule:evenodd;fill-opacity:1;stroke:none;" />
  <path
     id="path27"
     d="  M 164.87429,201.87711   C 163.31586,201.87711 145.25401,223.73514 144.61466,226.17269   L 210.02891,226.17269   C 208.27068,223.53534 190.04899,201.87711 188.61044,201.87711   L 164.87429,201.87711   z "
     style="fill:#ffffff;fill-rule:evenodd;fill-opacity:1;stroke:none;" />
  <path
     id="path29"
     d="  M 234.92389,201.87711   C 233.64518,201.87711 216.42249,223.81506 215.82309,226.17269   L 281.23735,226.17269   C 279.67891,223.85502 259.09959,201.87711 258.06064,201.87711   z "
     style="fill:#ffffff;fill-rule:evenodd;fill-opacity:1;stroke:none;" />
  <path
     id="path31"
     d="  M 161.15803,103.3761   L 165.59357,102.9765   C 165.79337,104.7747 166.31285,106.25321 167.07209,107.41205   C 167.83132,108.53092 169.03012,109.45 170.66847,110.16928   C 172.26686,110.88855 174.10502,111.20823 176.14297,111.20823   C 177.94116,111.20823 179.53956,110.96847 180.89819,110.40903   C 182.29678,109.88956 183.33574,109.17028 183.9751,108.21124   C 184.65442,107.29217 185.01405,106.25321 185.01405,105.1743   C 185.01405,104.05542 184.69437,103.05642 184.01506,102.21727   C 183.3757,101.37811 182.29678,100.69879 180.81827,100.13936   C 179.85923,99.739758 177.74136,99.18032 174.46466,98.381123   C 171.18795,97.581926 168.87028,96.862649 167.5516,96.143372   C 165.87329,95.264256 164.59458,94.14538 163.75542,92.826705   C 162.91626,91.508031 162.51666,90.029517 162.51666,88.391163   C 162.51666,86.592971 162.99618,84.914657 164.03514,83.316264   C 165.07409,81.75783 166.55261,80.598995 168.51064,79.759838   C 170.46867,78.960641 172.66646,78.561043 175.06405,78.561043   C 177.7014,78.561043 180.05903,78.960641 182.05703,79.839758   C 184.09498,80.678914 185.65341,81.917669 186.73233,83.595983   C 187.81124,85.234336 188.41064,87.112449 188.49056,89.23032   L 183.9751,89.549999   C 183.69538,87.312248 182.89618,85.593975 181.49759,84.435139   C 180.09899,83.276304 178.02108,82.716866 175.26385,82.716866   C 172.38674,82.716866 170.30883,83.236344 169.03012,84.2753   C 167.71144,85.314256 167.07209,86.592971 167.07209,88.071485   C 167.07209,89.3502 167.51164,90.389155 168.43072,91.228312   C 169.3498,92.067469 171.74739,92.906625 175.58353,93.785742   C 179.41968,94.664858 182.05703,95.424095 183.45562,96.063452   C 185.53353,97.022489 187.09197,98.221284 188.051,99.699798   C 189.05,101.17831 189.56948,102.85663 189.56948,104.7747   C 189.56948,106.69277 189.01004,108.451 187.93112,110.12932   C 186.85221,111.80763 185.29377,113.1263 183.25582,114.04538   C 181.21787,115.00442 178.9002,115.44397 176.34277,115.44397   C 173.14598,115.44397 170.42871,115.00442 168.23092,114.04538   C 166.07309,113.1263 164.35482,111.68775 163.11606,109.80964   C 161.87731,107.93152 161.19799,105.77369 161.15803,103.3761   z  M 205.07389,114.84458   L 205.07389,83.356224   L 193.3257,83.356224   L 193.3257,79.160441   L 221.61727,79.160441   L 221.61727,83.356224   L 209.82911,83.356224   L 209.82911,114.84458   z  M 225.05381,97.462047   C 225.05381,91.547991 226.61225,86.912649 229.80903,83.556023   C 233.00582,80.199396 237.08172,78.521083 242.11666,78.521083   C 245.43333,78.521083 248.39036,79.32028 251.02771,80.878714   C 253.70502,82.477107 255.70301,84.674898 257.1016,87.472087   C 258.5002,90.309236 259.17951,93.466063 259.17951,97.062448   C 259.17951,100.65883 258.46024,103.89558 256.98172,106.77269   C 255.50321,109.6498 253.46526,111.80763 250.78795,113.24618   C 248.11064,114.7247 245.19357,115.44397 242.11666,115.44397   C 238.76004,115.44397 235.72309,114.64478 233.08574,113.04638   C 230.44839,111.40803 228.4504,109.21024 227.09176,106.37309   C 225.73313,103.5759 225.05381,100.61887 225.05381,97.462047   z  M 229.88895,97.541966   C 229.88895,101.85763 231.04779,105.25422 233.36546,107.69177   C 235.68313,110.16928 238.6002,111.40803 242.0767,111.40803   C 245.63313,111.40803 248.5502,110.16928 250.86787,107.69177   C 253.14558,105.1743 254.30441,101.61787 254.30441,97.022489   C 254.30441,94.14538 253.8249,91.58795 252.8259,89.430119   C 251.86686,87.272288 250.42831,85.593975 248.51024,84.39518   C 246.63212,83.196384 244.51425,82.596987 242.15662,82.596987   C 238.8,82.596987 235.92289,83.755822 233.5253,86.033533   C 231.12771,88.351204 229.88895,92.187348 229.88895,97.541966   z  M 265.33333,114.84458   L 265.33333,79.160441   L 281.15743,79.160441   C 284.35421,79.160441 286.7518,79.480119 288.43012,80.119477   C 290.06847,80.758834 291.38714,81.87771 292.38614,83.516063   C 293.38514,85.154416 293.86465,86.952609 293.86465,88.910641   C 293.86465,91.428111 293.06546,93.585942 291.4271,95.304215   C 289.78875,97.022489 287.23132,98.141364 283.83473,98.620882   C 285.07349,99.22028 286.03253,99.819677 286.67188,100.37912   C 288.03052,101.65783 289.34919,103.25622 290.58795,105.13434   L 296.78172,114.84458   L 290.86767,114.84458   L 286.11245,107.41205   C 284.75381,105.29418 283.59498,103.65582 282.71586,102.49699   C 281.83674,101.37811 281.03755,100.57891 280.31827,100.13936   C 279.59899,99.659838 278.87971,99.340159 278.16044,99.18032   C 277.64096,99.06044 276.76184,99.02048 275.52309,99.02048   L 270.04859,99.02048   L 270.04859,114.84458   z  M 270.04859,94.904617   L 280.19839,94.904617   C 282.35622,94.904617 284.07449,94.704818 285.27329,94.2253   C 286.51204,93.785742 287.43112,93.066465 288.07048,92.107428   C 288.66988,91.108432 288.98955,90.069477 288.98955,88.910641   C 288.98955,87.192368 288.39016,85.833734 287.1514,84.714858   C 285.95261,83.635943 283.99457,83.116465 281.35722,83.116465   L 270.04859,83.116465   z "
     style="fill:#000000;fill-rule:evenodd;fill-opacity:1;stroke:none;" />
</svg>
