<?xml version="1.0" encoding="UTF-8" standalone="no"?>
<svg
   xmlns:dc="http://purl.org/dc/elements/1.1/"
   xmlns:cc="http://creativecommons.org/ns#"
   xmlns:rdf="http://www.w3.org/1999/02/22-rdf-syntax-ns#"
   xmlns:svg="http://www.w3.org/2000/svg"
   xmlns="http://www.w3.org/2000/svg"
   id="svg33"
   height="95.75mm"
   width="95.75mm"
   version="1.0">
  <metadata
     id="metadata37">
    <rdf:RDF>
      <cc:Work
         rdf:about="">
        <dc:format>image/svg+xml</dc:format>
        <dc:type
           rdf:resource="http://purl.org/dc/dcmitype/StillImage" />
      </cc:Work>
    </rdf:RDF>
  </metadata>
  <defs
     id="defs3">
    <pattern
       y="0"
       x="0"
       height="6"
       width="6"
       patternUnits="userSpaceOnUse"
       id="EMFhbasepattern" />
  </defs>
  <path
     id="path5"
     d="  M 132.98634,15.983936   L 132.98634,54.345381   L 228.88996,54.345381   L 228.88996,15.983936   L 132.98634,15.983936   z "
     style="fill:#000000;fill-rule:evenodd;fill-opacity:1;stroke:none;" />
  <path
     id="path7"
     d="  M 54.345381,54.345381   L 54.345381,307.53092   L 307.53092,307.53092   L 307.53092,54.345381   L 54.345381,54.345381   z "
     style="fill:#aaffaa;fill-rule:evenodd;fill-opacity:1;stroke:none;" />
  <path
     id="path9"
     d="  M 54.345381,54.345381   L 307.53092,54.345381   L 307.53092,307.53092   L 54.345381,307.53092   z "
     style="fill:none;stroke:#000000;stroke-width:9.5903616px;stroke-linecap:butt;stroke-linejoin:miter;stroke-miterlimit:10;stroke-dasharray:none;stroke-opacity:1;" />
  <path
     id="path11"
     d="  M 154.16506,186.17289   L 176.62249,186.09297   L 199.31968,156.04317   L 183.09598,156.04317   C 181.41767,156.04317 156.24297,183.01606 154.16506,186.17289   z "
     style="fill:#ffffff;fill-rule:evenodd;fill-opacity:1;stroke:none;" />
  <path
     id="path13"
     d="  M 179.02008,186.69237   L 200.47851,210.46847   C 201.87711,209.46947 224.21466,177.14197 224.21466,176.90221   C 224.21466,176.06305 204.79417,157.96124 202.63634,156.52269   z "
     style="fill:#ffffff;fill-rule:evenodd;fill-opacity:1;stroke:none;" />
  <path
     id="path15"
     d="  M 120.27911,210.78815   L 130.38895,211.06787   C 133.78554,206.03293 139.77952,198.76024 143.89538,193.84518   C 147.81144,189.16988 156.24297,181.25783 158.76044,177.46164   L 152.08715,177.14197   z "
     style="fill:#ffffff;fill-rule:evenodd;fill-opacity:1;stroke:none;" />
  <path
     id="path17"
     d="  M 133.30602,211.06787   L 197.56144,211.06787   C 197.00201,208.95 177.18193,188.49056 175.58353,188.49056   L 153.56566,188.49056   C 151.48775,188.49056 135.06426,208.39056 133.30602,211.06787   z "
     style="fill:#ffffff;fill-rule:evenodd;fill-opacity:1;stroke:none;" />
  <path
     id="path19"
     d="  M 203.19578,210.94799   L 203.19578,210.94799   L 212.94598,211.30763   L 238.08072,177.46164   L 226.65221,177.54156   z "
     style="fill:#ffffff;fill-rule:evenodd;fill-opacity:1;stroke:none;" />
  <path
     id="path21"
     d="  M 188.89016,213.38554   L 212.0269,213.38554   C 213.06586,213.38554 233.64518,235.36345 235.20361,237.68112   L 169.78935,237.68112   C 170.38875,235.32349 187.61144,213.38554 188.89016,213.38554   z  M 118.84056,213.38554   L 142.5767,213.38554   C 144.01526,213.38554 162.23695,235.04377 163.99518,237.68112   L 98.580922,237.68112   C 99.22028,235.24357 117.28213,213.38554 118.84056,213.38554   z  M 146.45281,213.50542   L 183.29578,213.54538   L 166.83233,237.16164   z  M 133.30602,211.06787   C 135.06426,208.39056 151.48775,188.49056 153.56566,188.49056   L 175.58353,188.49056   C 177.18193,188.49056 197.00201,208.95 197.56144,211.06787   z  M 238.12068,237.12168   L 215.54337,212.2267   L 240.39839,178.06104   L 263.73494,198.44056   L 238.12068,237.12168   z  M 226.65221,177.54156   L 238.08072,177.46164   L 212.94598,211.30763   L 203.19578,210.94799   z  M 152.08715,177.14197   L 158.76044,177.46164   C 156.24297,181.25783 147.81144,189.16988 143.89538,193.84518   C 139.77952,198.76024 133.78554,206.03293 130.38895,211.06787   L 120.27911,210.78815   z  M 202.63634,156.52269   C 204.79417,157.96124 224.21466,176.06305 224.21466,176.90221   C 224.21466,177.14197 201.87711,209.46947 200.47851,210.46847   L 179.02008,186.69237   z  M 154.16506,186.17289   C 156.24297,183.01606 181.41767,156.04317 183.09598,156.04317   L 199.31968,156.04317   L 176.62249,186.09297   z  M 161.07811,175.14397   L 150.08915,175.14397   C 147.13213,179.53956 139.77952,186.89217 135.74357,190.92811   C 130.70863,195.96305 126.31305,201.55743 121.27811,206.55241   C 118.08132,209.78915 94.505019,237.24156 93.945581,239.43935   C 95.224296,239.71907 95.264256,239.99879 96.822689,239.99879   L 238.9998,239.83895   L 266.8518,198.001   L 266.05261,198.16084   L 240.99779,175.14397   L 227.09176,175.14397   C 223.41546,172.70642 204.0749,153.7255 202.19678,153.7255   L 182.49658,153.7255   C 180.41867,153.7255 164.43474,172.90622 161.07811,175.14397   z "
     style="fill:#000000;fill-rule:evenodd;fill-opacity:1;stroke:none;" />
  <path
     id="path23"
     d="  M 166.83233,237.16164   L 166.83233,237.16164   L 183.33574,213.54538   L 146.45281,213.50542   z "
     style="fill:#ffffff;fill-rule:evenodd;fill-opacity:1;stroke:none;" />
  <path
     id="path25"
     d="  M 263.73494,198.44056   L 263.73494,198.44056   L 240.39839,178.06104   L 215.54337,212.2267   L 238.12068,237.12168   z "
     style="fill:#ffffff;fill-rule:evenodd;fill-opacity:1;stroke:none;" />
  <path
     id="path27"
     d="  M 118.84056,213.38554   C 117.28213,213.38554 99.22028,235.24357 98.580922,237.68112   L 163.99518,237.68112   C 162.23695,235.04377 144.01526,213.38554 142.5767,213.38554   L 118.84056,213.38554   z "
     style="fill:#ffffff;fill-rule:evenodd;fill-opacity:1;stroke:none;" />
  <path
     id="path29"
     d="  M 188.89016,213.38554   C 187.61144,213.38554 170.38875,235.32349 169.78935,237.68112   L 235.20361,237.68112   C 233.64518,235.36345 213.06586,213.38554 212.0269,213.38554   z "
     style="fill:#ffffff;fill-rule:evenodd;fill-opacity:1;stroke:none;" />
  <path
     id="path31"
     d="  M 115.1243,114.88454   L 119.55984,114.48494   C 119.75964,116.28313 120.27911,117.76164 121.03835,118.92048   C 121.79759,120.03936 122.99638,120.95843 124.63474,121.67771   C 126.23313,122.39699 128.07128,122.71666 130.10924,122.71666   C 131.90743,122.71666 133.50582,122.47691 134.86446,121.91747   C 136.26305,121.39799 137.30201,120.67871 137.94136,119.71968   C 138.62068,118.8006 138.98032,117.76164 138.98032,116.68273   C 138.98032,115.56385 138.66064,114.56486 137.98132,113.7257   C 137.34197,112.88654 136.26305,112.20723 134.78454,111.64779   C 133.8255,111.24819 131.70763,110.68875 128.43092,109.88956   C 125.15422,109.09036 122.83654,108.37108 121.51787,107.65181   C 119.83956,106.77269 118.56084,105.65381 117.72169,104.33514   C 116.88253,103.01646 116.48293,101.53795 116.48293,99.899597   C 116.48293,98.101404 116.96245,96.423091 118.0014,94.824697   C 119.04036,93.266264 120.51887,92.107428 122.47691,91.268272   C 124.43494,90.469075 126.63273,90.069477 129.03032,90.069477   C 131.66767,90.069477 134.0253,90.469075 136.02329,91.348191   C 138.06124,92.187348 139.61968,93.426103 140.69859,95.104416   C 141.77751,96.74277 142.37691,98.620882 142.45683,100.73875   L 137.94136,101.05843   C 137.66164,98.820681 136.86245,97.102408 135.46385,95.943573   C 134.06526,94.784738 131.98735,94.2253 129.23012,94.2253   C 126.35301,94.2253 124.2751,94.744778 122.99638,95.783734   C 121.67771,96.822689 121.03835,98.101404 121.03835,99.579918   C 121.03835,100.85863 121.47791,101.89759 122.39699,102.73675   C 123.31606,103.5759 125.71365,104.41506 129.5498,105.29418   C 133.38594,106.17329 136.02329,106.93253 137.42189,107.57189   C 139.4998,108.53092 141.05823,109.72972 142.01727,111.20823   C 143.01626,112.68675 143.53574,114.36506 143.53574,116.28313   C 143.53574,118.2012 142.9763,119.95944 141.89739,121.63775   C 140.81847,123.31606 139.26004,124.63474 137.22209,125.55381   C 135.18413,126.51285 132.86646,126.95241 130.30903,126.95241   C 127.11225,126.95241 124.39498,126.51285 122.19719,125.55381   C 120.03936,124.63474 118.32108,123.19618 117.08233,121.31807   C 115.84357,119.43996 115.16426,117.28213 115.1243,114.88454   z  M 159.04016,126.35301   L 159.04016,94.864657   L 147.29197,94.864657   L 147.29197,90.668874   L 175.58353,90.668874   L 175.58353,94.864657   L 163.79538,94.864657   L 163.79538,126.35301   z  M 179.02008,108.97048   C 179.02008,103.05642 180.57851,98.421083 183.7753,95.064456   C 186.97209,91.70783 191.04799,90.029517 196.08293,90.029517   C 199.3996,90.029517 202.35662,90.828714 204.99397,92.387147   C 207.67128,93.985541 209.66927,96.183332 211.06787,98.980521   C 212.46646,101.81767 213.14578,104.9745 213.14578,108.57088   C 213.14578,112.16727 212.4265,115.40401 210.94799,118.28112   C 209.46947,121.15823 207.43152,123.31606 204.75421,124.75462   C 202.0769,126.23313 199.15984,126.95241 196.08293,126.95241   C 192.7263,126.95241 189.68935,126.15321 187.05201,124.55482   C 184.41466,122.91646 182.41666,120.71867 181.05803,117.88152   C 179.69939,115.08434 179.02008,112.12731 179.02008,108.97048   z  M 183.85522,109.0504   C 183.85522,113.36606 185.01405,116.76265 187.33172,119.2002   C 189.64939,121.67771 192.56646,122.91646 196.04297,122.91646   C 199.59939,122.91646 202.51646,121.67771 204.83413,119.2002   C 207.11184,116.68273 208.27068,113.1263 208.27068,108.53092   C 208.27068,105.65381 207.79116,103.09638 206.79217,100.93855   C 205.83313,98.780721 204.39458,97.102408 202.4765,95.903613   C 200.59839,94.704818 198.48052,94.10542 196.12289,94.10542   C 192.76626,94.10542 189.88915,95.264256 187.49156,97.541966   C 185.09397,99.859637 183.85522,103.69578 183.85522,109.0504   z  M 219.2996,126.35301   L 219.2996,90.668874   L 235.12369,90.668874   C 238.32048,90.668874 240.71807,90.988553 242.39638,91.62791   C 244.03474,92.267268 245.35341,93.386143 246.35241,95.024497   C 247.3514,96.66285 247.83092,98.461043 247.83092,100.41907   C 247.83092,102.93654 247.03172,105.09438 245.39337,106.81265   C 243.75502,108.53092 241.19759,109.6498 237.801,110.12932   C 239.03976,110.72871 239.99879,111.32811 240.63815,111.88755   C 241.99678,113.16626 243.31546,114.76466 244.55421,116.64277   L 250.74799,126.35301   L 244.83393,126.35301   L 240.07871,118.92048   C 238.72008,116.80261 237.56124,115.16426 236.68213,114.00542   C 235.80301,112.88654 235.00381,112.08735 234.28453,111.64779   C 233.56526,111.16827 232.84598,110.84859 232.1267,110.68875   C 231.60723,110.56887 230.72811,110.52891 229.48935,110.52891   L 224.01486,110.52891   L 224.01486,126.35301   z  M 224.01486,106.41305   L 234.16466,106.41305   C 236.32249,106.41305 238.04076,106.21325 239.23955,105.73373   C 240.47831,105.29418 241.39739,104.5749 242.03674,103.61586   C 242.63614,102.61687 242.95582,101.57791 242.95582,100.41907   C 242.95582,98.700802 242.35642,97.342167 241.11767,96.223292   C 239.91887,95.144376 237.96084,94.624898 235.32349,94.624898   L 224.01486,94.624898   z "
     style="fill:#000000;fill-rule:evenodd;fill-opacity:1;stroke:none;" />
</svg>
