<?xml version="1.0" encoding="UTF-8" standalone="no"?>
<svg
   xmlns:dc="http://purl.org/dc/elements/1.1/"
   xmlns:cc="http://creativecommons.org/ns#"
   xmlns:rdf="http://www.w3.org/1999/02/22-rdf-syntax-ns#"
   xmlns:svg="http://www.w3.org/2000/svg"
   xmlns="http://www.w3.org/2000/svg"
   id="svg19"
   height="74.610001mm"
   width="117.75mm"
   version="1.0">
  <metadata
     id="metadata23">
    <rdf:RDF>
      <cc:Work
         rdf:about="">
        <dc:format>image/svg+xml</dc:format>
        <dc:type
           rdf:resource="http://purl.org/dc/dcmitype/StillImage" />
      </cc:Work>
    </rdf:RDF>
  </metadata>
  <defs
     id="defs3">
    <pattern
       y="0"
       x="0"
       height="6"
       width="6"
       patternUnits="userSpaceOnUse"
       id="EMFhbasepattern" />
  </defs>
  <path
     id="path5"
     d="  M 54.665059,222.49638   L 390.32771,222.49638  "
     style="fill:none;stroke:#000000;stroke-width:9.5903616px;stroke-linecap:butt;stroke-linejoin:miter;stroke-miterlimit:10;stroke-dasharray:none;stroke-opacity:1;" />
  <path
     id="path7"
     d="  M 318.4,126.59277   C 318.4,179.57952 275.48313,222.49638 222.49638,222.49638   C 169.5496,222.49638 126.59277,179.57952 126.59277,126.59277   C 126.59277,73.645983 169.5496,30.689156 222.49638,30.689156   C 275.48313,30.689156 318.4,73.645983 318.4,126.59277   z "
     style="fill:#ffffff;fill-rule:evenodd;fill-opacity:1;stroke:none;" />
  <path
     id="path9"
     d="  M 318.4,126.59277   C 318.4,179.57952 275.48313,222.49638 222.49638,222.49638   C 169.5496,222.49638 126.59277,179.57952 126.59277,126.59277   C 126.59277,73.645983 169.5496,30.689156 222.49638,30.689156   C 275.48313,30.689156 318.4,73.645983 318.4,126.59277  "
     style="fill:none;stroke:#000000;stroke-width:4.7951808px;stroke-linecap:butt;stroke-linejoin:miter;stroke-miterlimit:10;stroke-dasharray:none;stroke-opacity:1;" />
  <path
     id="path11"
     d="  M 251.26747,222.49638   C 251.26747,238.4004 238.4004,251.26747 222.49638,251.26747   C 206.63233,251.26747 193.7253,238.4004 193.7253,222.49638   C 193.7253,206.63233 206.63233,193.7253 222.49638,193.7253   C 238.4004,193.7253 251.26747,206.63233 251.26747,222.49638   z "
     style="fill:#ffffff;fill-rule:evenodd;fill-opacity:1;stroke:none;" />
  <path
     id="path13"
     d="  M 251.26747,222.49638   C 251.26747,238.4004 238.4004,251.26747 222.49638,251.26747   C 206.63233,251.26747 193.7253,238.4004 193.7253,222.49638   C 193.7253,206.63233 206.63233,193.7253 222.49638,193.7253   C 238.4004,193.7253 251.26747,206.63233 251.26747,222.49638  "
     style="fill:none;stroke:#000000;stroke-width:4.7951808px;stroke-linecap:butt;stroke-linejoin:miter;stroke-miterlimit:10;stroke-dasharray:none;stroke-opacity:1;" />
  <path
     id="path15"
     d="  M 367.91024,140.21907   L 365.59256,140.21907   C 365.87228,135.50381 366.47168,131.58775 367.39076,128.51084   C 368.30983,125.39397 370.18795,121.11827 373.06505,115.60381   C 375.34277,111.36807 376.78132,108.13132 377.46064,105.85361   C 378.13995,103.5759 378.45963,101.29819 378.45963,98.980521   C 378.45963,94.2253 377.22088,90.429115 374.66345,87.631926   C 372.14598,84.794778 369.06907,83.396184 365.39277,83.396184   C 362.11606,83.396184 359.55863,84.15542 357.68052,85.713854   C 355.8024,87.232328 354.88333,88.910641 354.88333,90.708834   C 354.88333,92.107428 355.44277,93.785742 356.56164,95.823693   C 357.68052,97.861645 358.23995,99.380119 358.23995,100.41907   C 358.23995,101.77771 357.8004,102.89658 356.96124,103.81566   C 356.08212,104.73474 355.04317,105.21426 353.80441,105.21426   C 352.24598,105.21426 350.80742,104.41506 349.48875,102.89658   C 348.21004,101.33815 347.57068,99.14036 347.57068,96.383131   C 347.57068,92.147388 349.36887,88.391163 353.00522,85.154416   C 356.64156,81.87771 361.59658,80.239356 367.79036,80.239356   C 375.50261,80.239356 381.1769,82.517067 384.81325,86.992569   C 387.53052,90.309236 388.84919,93.945581 388.84919,97.941565   C 388.84919,100.69879 388.24979,103.49598 387.051,106.37309   C 385.81224,109.29016 383.49457,112.64679 380.09799,116.56285   C 374.66345,122.71666 371.34678,127.07229 370.10803,129.62972   C 368.90923,132.18715 368.14999,135.70361 367.91024,140.21907   z  M 367.11104,147.17209   C 368.86927,147.17209 370.38775,147.81144 371.58654,149.01024   C 372.8253,150.24899 373.42469,151.72751 373.42469,153.48574   C 373.42469,155.20401 372.78534,156.68253 371.54658,157.88132   C 370.30783,159.12008 368.82931,159.71948 367.11104,159.71948   C 365.39277,159.71948 363.91425,159.12008 362.71546,157.88132   C 361.4767,156.68253 360.8773,155.20401 360.8773,153.48574   C 360.8773,151.72751 361.4767,150.24899 362.71546,149.01024   C 363.91425,147.81144 365.39277,147.17209 367.11104,147.17209   z "
     style="fill:#ff00ff;fill-rule:evenodd;fill-opacity:1;stroke:none;" />
  <path
     id="path17"
     d="  M 367.91024,140.21907   L 365.59256,140.21907   C 365.87228,135.50381 366.47168,131.58775 367.39076,128.51084   C 368.30983,125.39397 370.18795,121.11827 373.06505,115.60381   C 375.34277,111.36807 376.78132,108.13132 377.46064,105.85361   C 378.13995,103.5759 378.45963,101.29819 378.45963,98.980521   C 378.45963,94.2253 377.22088,90.429115 374.66345,87.631926   C 372.14598,84.794778 369.06907,83.396184 365.39277,83.396184   C 362.11606,83.396184 359.55863,84.15542 357.68052,85.713854   C 355.8024,87.232328 354.88333,88.910641 354.88333,90.708834   C 354.88333,92.107428 355.44277,93.785742 356.56164,95.823693   C 357.68052,97.861645 358.23995,99.380119 358.23995,100.41907   C 358.23995,101.77771 357.8004,102.89658 356.96124,103.81566   C 356.08212,104.73474 355.04317,105.21426 353.80441,105.21426   C 352.24598,105.21426 350.80742,104.41506 349.48875,102.89658   C 348.21004,101.33815 347.57068,99.14036 347.57068,96.383131   C 347.57068,92.147388 349.36887,88.391163 353.00522,85.154416   C 356.64156,81.87771 361.59658,80.239356 367.79036,80.239356   C 375.50261,80.239356 381.1769,82.517067 384.81325,86.992569   C 387.53052,90.309236 388.84919,93.945581 388.84919,97.941565   C 388.84919,100.69879 388.24979,103.49598 387.051,106.37309   C 385.81224,109.29016 383.49457,112.64679 380.09799,116.56285   C 374.66345,122.71666 371.34678,127.07229 370.10803,129.62972   C 368.90923,132.18715 368.14999,135.70361 367.91024,140.21907   z  M 367.11104,147.17209   C 368.86927,147.17209 370.38775,147.81144 371.58654,149.01024   C 372.8253,150.24899 373.42469,151.72751 373.42469,153.48574   C 373.42469,155.20401 372.78534,156.68253 371.54658,157.88132   C 370.30783,159.12008 368.82931,159.71948 367.11104,159.71948   C 365.39277,159.71948 363.91425,159.12008 362.71546,157.88132   C 361.4767,156.68253 360.8773,155.20401 360.8773,153.48574   C 360.8773,151.72751 361.4767,150.24899 362.71546,149.01024   C 363.91425,147.81144 365.39277,147.17209 367.11104,147.17209   z "
     style="fill:none;stroke:#ff00ff;stroke-width:0.95903611px;stroke-linecap:butt;stroke-linejoin:miter;stroke-miterlimit:10;stroke-dasharray:none;stroke-opacity:1;" />
</svg>
