<?xml version="1.0" encoding="UTF-8" standalone="no"?>
<svg
   xmlns:dc="http://purl.org/dc/elements/1.1/"
   xmlns:cc="http://creativecommons.org/ns#"
   xmlns:rdf="http://www.w3.org/1999/02/22-rdf-syntax-ns#"
   xmlns:svg="http://www.w3.org/2000/svg"
   xmlns="http://www.w3.org/2000/svg"
   id="svg15"
   height="112.9mm"
   width="112.9mm"
   version="1.0">
  <metadata
     id="metadata19">
    <rdf:RDF>
      <cc:Work
         rdf:about="">
        <dc:format>image/svg+xml</dc:format>
        <dc:type
           rdf:resource="http://purl.org/dc/dcmitype/StillImage" />
      </cc:Work>
    </rdf:RDF>
  </metadata>
  <defs
     id="defs3">
    <pattern
       y="0"
       x="0"
       height="6"
       width="6"
       patternUnits="userSpaceOnUse"
       id="EMFhbasepattern" />
  </defs>
  <path
     id="path5"
     d="  M 451.74134,451.72623   L 600.99177,451.72623   L 600.99177,643.62504   L 451.74134,643.62504   L 451.74134,451.72623   z "
     style="fill:none;stroke:#000000;stroke-width:5.3263254px;stroke-linecap:butt;stroke-linejoin:miter;stroke-miterlimit:112;stroke-dasharray:none;stroke-opacity:1;" />
  <path
     id="path7"
     d="  M 451.74134,644.72053   L 526.34767,744.90078   L 600.99177,644.72053  "
     style="fill:none;stroke:#000000;stroke-width:5.3263254px;stroke-linecap:butt;stroke-linejoin:miter;stroke-miterlimit:112;stroke-dasharray:none;stroke-opacity:1;" />
  <path
     id="path9"
     d="  M 497.86505,499.66316   L 503.94688,501.17417   C 502.66252,506.16052 500.35822,509.93805 497.07177,512.58233   C 493.78531,515.18883 489.74335,516.47319 484.98365,516.47319   C 480.03508,516.47319 476.03089,515.49103 472.93331,513.48894   C 469.83573,511.44907 467.49366,508.54036 465.86932,504.72505   C 464.24498,500.94752 463.4517,496.83 463.4517,492.48584   C 463.4517,487.68837 464.35831,483.53308 466.17152,479.98219   C 468.02252,476.43131 470.59124,473.74926 473.95325,471.89827   C 477.31525,470.04728 481.01724,469.14067 485.0592,469.14067   C 489.63002,469.14067 493.48311,470.3117 496.61846,472.616   C 499.75382,474.95807 501.90701,478.24453 503.1536,482.47537   L 497.18509,483.87306   C 496.12738,480.54882 494.57859,478.1312 492.5765,476.58241   C 490.53663,475.0714 488.00568,474.31589 484.94588,474.31589   C 481.43277,474.31589 478.48629,475.14695 476.10644,476.84684   C 473.76437,478.54673 472.10225,480.81325 471.1201,483.6464   C 470.17571,486.47956 469.68463,489.42603 469.68463,492.44806   C 469.68463,496.33892 470.25126,499.73871 471.38452,502.64741   C 472.51778,505.55611 474.29323,507.70931 476.71085,509.14477   C 479.0907,510.58023 481.6972,511.29797 484.4548,511.29797   C 487.85458,511.29797 490.72551,510.31581 493.10535,508.35149   C 495.44743,506.42494 497.03399,503.51624 497.86505,499.66316   L 497.86505,499.66316   z "
     style="fill:#000000;fill-rule:nonzero;fill-opacity:1;stroke:#000000;stroke-width:1.0577101px;stroke-linecap:butt;stroke-linejoin:miter;stroke-miterlimit:112;stroke-dasharray:none;stroke-opacity:1;" />
  <path
     id="path11"
     d="  M 506.40228,515.71768   L 523.96782,469.93395   L 530.50296,469.93395   L 549.23953,515.71768   L 542.36442,515.71768   L 537.00032,501.85413   L 517.84821,501.85413   L 512.82409,515.71768   L 506.40228,515.71768   z  M 519.62365,496.90555   L 535.14933,496.90555   L 530.35186,484.21303   C 528.87862,480.35995 527.82091,477.18682 527.10318,474.73142   C 526.53654,477.6779 525.70549,480.5866 524.64778,483.45753   L 519.62365,496.90555   z "
     style="fill:#000000;fill-rule:nonzero;fill-opacity:1;stroke:#000000;stroke-width:1.0577101px;stroke-linecap:butt;stroke-linejoin:miter;stroke-miterlimit:112;stroke-dasharray:none;stroke-opacity:1;" />
  <path
     id="path13"
     d="  M 554.07478,515.71768   L 554.07478,469.93395   L 560.30771,469.93395   L 584.37062,505.85831   L 584.37062,469.93395   L 590.15025,469.93395   L 590.15025,515.71768   L 583.95509,515.71768   L 559.89219,479.71777   L 559.89219,515.71768   L 554.07478,515.71768   z "
     style="fill:#000000;fill-rule:nonzero;fill-opacity:1;stroke:#000000;stroke-width:1.0577101px;stroke-linecap:butt;stroke-linejoin:miter;stroke-miterlimit:112;stroke-dasharray:none;stroke-opacity:1;" />
</svg>
