<?xml version="1.0" encoding="UTF-8" standalone="no"?>
<svg
   xmlns:dc="http://purl.org/dc/elements/1.1/"
   xmlns:cc="http://creativecommons.org/ns#"
   xmlns:rdf="http://www.w3.org/1999/02/22-rdf-syntax-ns#"
   xmlns:svg="http://www.w3.org/2000/svg"
   xmlns="http://www.w3.org/2000/svg"
   id="svg15"
   height="112.9mm"
   width="112.9mm"
   version="1.0">
  <metadata
     id="metadata19">
    <rdf:RDF>
      <cc:Work
         rdf:about="">
        <dc:format>image/svg+xml</dc:format>
        <dc:type
           rdf:resource="http://purl.org/dc/dcmitype/StillImage" />
      </cc:Work>
    </rdf:RDF>
  </metadata>
  <defs
     id="defs3">
    <pattern
       y="0"
       x="0"
       height="6"
       width="6"
       patternUnits="userSpaceOnUse"
       id="EMFhbasepattern" />
  </defs>
  <path
     id="path5"
     d="  M 451.74134,451.72623   L 600.99177,451.72623   L 600.99177,643.62504   L 451.74134,643.62504   L 451.74134,451.72623   z "
     style="fill:none;stroke:#000000;stroke-width:5.3263254px;stroke-linecap:butt;stroke-linejoin:miter;stroke-miterlimit:112;stroke-dasharray:none;stroke-opacity:1;" />
  <path
     id="path7"
     d="  M 451.74134,644.72053   L 526.34767,744.90078   L 600.99177,644.72053  "
     style="fill:none;stroke:#000000;stroke-width:5.3263254px;stroke-linecap:butt;stroke-linejoin:miter;stroke-miterlimit:112;stroke-dasharray:none;stroke-opacity:1;" />
  <path
     id="path9"
     d="  M 495.74963,499.66316   L 501.79369,501.17417   C 500.50932,506.16052 498.2428,509.93805 494.95635,512.58233   C 491.63211,515.18883 487.59015,516.47319 482.83046,516.47319   C 477.91966,516.47319 473.8777,515.49103 470.78012,513.48894   C 467.72031,511.44907 465.34047,508.54036 463.7539,504.72505   C 462.12956,500.94752 461.33628,496.83 461.33628,492.48584   C 461.33628,487.68837 462.24289,483.53308 464.0561,479.98219   C 465.86932,476.43131 468.47582,473.74926 471.83783,471.89827   C 475.19983,470.04728 478.90182,469.14067 482.94378,469.14067   C 487.5146,469.14067 491.36769,470.3117 494.50304,472.616   C 497.60062,474.95807 499.79159,478.24453 501.0004,482.47537   L 495.06967,483.87306   C 493.97419,480.54882 492.46317,478.1312 490.4233,476.58241   C 488.42121,475.0714 485.85248,474.31589 482.79268,474.31589   C 479.27957,474.31589 476.33309,475.14695 473.99102,476.84684   C 471.61117,478.54673 469.94906,480.81325 469.00468,483.6464   C 468.06029,486.47956 467.56921,489.42603 467.56921,492.44806   C 467.56921,496.33892 468.13584,499.73871 469.2691,502.64741   C 470.40236,505.55611 472.17781,507.70931 474.55765,509.14477   C 476.97528,510.58023 479.544,511.29797 482.33938,511.29797   C 485.73916,511.29797 488.61009,510.31581 490.95216,508.35149   C 493.29423,506.42494 494.91857,503.51624 495.74963,499.66316   L 495.74963,499.66316   z "
     style="fill:#000000;fill-rule:nonzero;fill-opacity:1;stroke:#000000;stroke-width:1.0577101px;stroke-linecap:butt;stroke-linejoin:miter;stroke-miterlimit:112;stroke-dasharray:none;stroke-opacity:1;" />
  <path
     id="path11"
     d="  M 541.94889,499.66316   L 548.03072,501.17417   C 546.74636,506.16052 544.47984,509.93805 541.15561,512.58233   C 537.86915,515.18883 533.82719,516.47319 529.06749,516.47319   C 524.11892,516.47319 520.11473,515.49103 517.01715,513.48894   C 513.91958,511.44907 511.5775,508.54036 509.95316,504.72505   C 508.3666,500.94752 507.53554,496.83 507.53554,492.48584   C 507.53554,487.68837 508.44215,483.53308 510.29314,479.98219   C 512.10636,476.43131 514.67508,473.74926 518.03709,471.89827   C 521.43687,470.04728 525.10108,469.14067 529.14304,469.14067   C 533.75164,469.14067 537.60472,470.3117 540.7023,472.616   C 543.83766,474.95807 546.02863,478.24453 547.23744,482.47537   L 541.26893,483.87306   C 540.21122,480.54882 538.66243,478.1312 536.66034,476.58241   C 534.62047,475.0714 532.08952,474.31589 529.02972,474.31589   C 525.51661,474.31589 522.57013,475.14695 520.22806,476.84684   C 517.84821,478.54673 516.1861,480.81325 515.24171,483.6464   C 514.25955,486.47956 513.80625,489.42603 513.80625,492.44806   C 513.80625,496.33892 514.37288,499.73871 515.50614,502.64741   C 516.6394,505.55611 518.37707,507.70931 520.79469,509.14477   C 523.17454,510.58023 525.78104,511.29797 528.57641,511.29797   C 531.9762,511.29797 534.84712,510.31581 537.1892,508.35149   C 539.53127,506.42494 541.11783,503.51624 541.94889,499.66316   L 541.94889,499.66316   z "
     style="fill:#000000;fill-rule:nonzero;fill-opacity:1;stroke:#000000;stroke-width:1.0577101px;stroke-linecap:butt;stroke-linejoin:miter;stroke-miterlimit:112;stroke-dasharray:none;stroke-opacity:1;" />
  <path
     id="path13"
     d="  M 555.51024,515.71768   L 555.51024,469.93395   L 572.77358,469.93395   C 575.83339,469.93395 578.13768,470.04728 579.76202,470.34948   C 581.99077,470.72723 583.87954,471.44496 585.42833,472.50267   C 586.93934,473.56038 588.14815,475.03362 589.09254,476.92239   C 589.99915,478.81116 590.45245,480.8888 590.45245,483.15532   C 590.45245,487.04619 589.24364,490.33264 586.75047,493.05247   C 584.25729,495.73452 579.7998,497.09443 573.34021,497.09443   L 561.59208,497.09443   L 561.59208,515.71768   L 555.51024,515.71768   z  M 561.59208,491.69255   L 573.41576,491.69255   C 577.3444,491.69255 580.102,490.97482 581.76412,489.50158   C 583.38846,488.02835 584.21952,485.98848 584.21952,483.3442   C 584.21952,481.41766 583.72844,479.79332 582.78405,478.4334   C 581.80189,477.07349 580.51753,476.16688 578.93097,475.71358   C 577.91103,475.44915 576.02226,475.33583 573.30244,475.33583   L 561.59208,475.33583   L 561.59208,491.69255   z "
     style="fill:#000000;fill-rule:nonzero;fill-opacity:1;stroke:#000000;stroke-width:1.0577101px;stroke-linecap:butt;stroke-linejoin:miter;stroke-miterlimit:112;stroke-dasharray:none;stroke-opacity:1;" />
</svg>
