<?xml version="1.0" encoding="UTF-8" standalone="no"?>
<svg
   xmlns:dc="http://purl.org/dc/elements/1.1/"
   xmlns:cc="http://creativecommons.org/ns#"
   xmlns:rdf="http://www.w3.org/1999/02/22-rdf-syntax-ns#"
   xmlns:svg="http://www.w3.org/2000/svg"
   xmlns="http://www.w3.org/2000/svg"
   id="svg15"
   height="112.9mm"
   width="112.9mm"
   version="1.0">
  <metadata
     id="metadata19">
    <rdf:RDF>
      <cc:Work
         rdf:about="">
        <dc:format>image/svg+xml</dc:format>
        <dc:type
           rdf:resource="http://purl.org/dc/dcmitype/StillImage" />
      </cc:Work>
    </rdf:RDF>
  </metadata>
  <defs
     id="defs3">
    <pattern
       y="0"
       x="0"
       height="6"
       width="6"
       patternUnits="userSpaceOnUse"
       id="EMFhbasepattern" />
  </defs>
  <path
     id="path5"
     d="  M 391.92062,391.38808   L 541.15652,391.38808   L 541.15652,583.2682   L 391.92062,583.2682   L 391.92062,391.38808   z "
     style="fill:none;stroke:#ff0000;stroke-width:5.3258066px;stroke-linecap:butt;stroke-linejoin:miter;stroke-miterlimit:112;stroke-dasharray:none;stroke-opacity:1;" />
  <path
     id="path7"
     d="  M 391.92062,584.36358   L 466.51969,684.53407   L 541.15652,584.36358  "
     style="fill:none;stroke:#ff0000;stroke-width:5.3258066px;stroke-linecap:butt;stroke-linejoin:miter;stroke-miterlimit:112;stroke-dasharray:none;stroke-opacity:1;" />
  <path
     id="path9"
     d="  M 435.92463,439.32034   L 441.96809,440.8312   C 440.68386,445.81706 438.41756,449.59423 435.13142,452.23825   C 431.80751,454.8445 427.76594,456.12873 423.00671,456.12873   C 418.09639,456.12873 414.05482,455.14667 410.95755,453.14477   C 407.89804,451.1051 405.51842,448.19668 403.93201,444.38174   C 402.30783,440.60457 401.51463,436.48746 401.51463,432.14372   C 401.51463,427.34671 402.42115,423.19183 404.23419,419.64129   C 406.04723,416.09075 408.65347,413.40896 412.01515,411.55815   C 415.37683,409.70734 419.07846,408.80082 423.12003,408.80082   C 427.6904,408.80082 431.54311,409.97174 434.67816,412.27581   C 437.77544,414.61766 439.9662,417.90379 441.17489,422.13422   L 435.24474,423.53177   C 434.14936,420.20787 432.63849,417.79048 430.59882,416.24184   C 428.59692,414.73097 426.02845,413.97554 422.96894,413.97554   C 419.45617,413.97554 416.50998,414.80652 414.16814,416.50624   C 411.78852,418.20597 410.12657,420.47227 409.18228,423.30514   C 408.23799,426.13802 407.74695,429.08421 407.74695,432.10595   C 407.74695,435.99643 408.31353,439.39588 409.44668,442.3043   C 410.57983,445.21272 412.3551,447.3657 414.73471,448.80103   C 417.1521,450.23635 419.72058,450.95401 422.51568,450.95401   C 425.91513,450.95401 428.78578,449.97195 431.12762,448.00782   C 433.46947,446.08147 435.09365,443.17305 435.92463,439.32034   L 435.92463,439.32034   z "
     style="fill:#ff0000;fill-rule:nonzero;fill-opacity:1;stroke:#ff0000;stroke-width:1.0576069px;stroke-linecap:butt;stroke-linejoin:miter;stroke-miterlimit:112;stroke-dasharray:none;stroke-opacity:1;" />
  <path
     id="path11"
     d="  M 482.11939,439.32034   L 488.20063,440.8312   C 486.91639,445.81706 484.65009,449.59423 481.32618,452.23825   C 478.04005,454.8445 473.99848,456.12873 469.23925,456.12873   C 464.29116,456.12873 460.28736,455.14667 457.19008,453.14477   C 454.0928,451.1051 451.75096,448.19668 450.12678,444.38174   C 448.54037,440.60457 447.70939,436.48746 447.70939,432.14372   C 447.70939,427.34671 448.61591,423.19183 450.46672,419.64129   C 452.27976,416.09075 454.84824,413.40896 458.20992,411.55815   C 461.60937,409.70734 465.27322,408.80082 469.31479,408.80082   C 473.92293,408.80082 477.77565,409.97174 480.87292,412.27581   C 484.00797,414.61766 486.19873,417.90379 487.40742,422.13422   L 481.4395,423.53177   C 480.38189,420.20787 478.83325,417.79048 476.83135,416.24184   C 474.79168,414.73097 472.26098,413.97554 469.20147,413.97554   C 465.68871,413.97554 462.74252,414.80652 460.40067,416.50624   C 458.02106,418.20597 456.3591,420.47227 455.41481,423.30514   C 454.43275,426.13802 453.97949,429.08421 453.97949,432.10595   C 453.97949,435.99643 454.54606,439.39588 455.67921,442.3043   C 456.81236,445.21272 458.54986,447.3657 460.96725,448.80103   C 463.34686,450.23635 465.95311,450.95401 468.74821,450.95401   C 472.14767,450.95401 475.01831,449.97195 477.36016,448.00782   C 479.702,446.08147 481.28841,443.17305 482.11939,439.32034   L 482.11939,439.32034   z "
     style="fill:#ff0000;fill-rule:nonzero;fill-opacity:1;stroke:#ff0000;stroke-width:1.0576069px;stroke-linecap:butt;stroke-linejoin:miter;stroke-miterlimit:112;stroke-dasharray:none;stroke-opacity:1;" />
  <path
     id="path13"
     d="  M 495.67942,455.3733   L 495.67942,409.59403   L 512.94108,409.59403   C 516.00058,409.59403 518.30466,409.70734 519.92884,410.00951   C 522.15737,410.38723 524.04595,411.10489 525.59459,412.1625   C 527.10546,413.22011 528.31415,414.6932 529.25844,416.58179   C 530.16496,418.47037 530.61822,420.54781 530.61822,422.81411   C 530.61822,426.7046 529.40953,429.99073 526.9166,432.71029   C 524.42367,435.39208 519.96661,436.75186 513.50765,436.75186   L 501.76066,436.75186   L 501.76066,455.3733   L 495.67942,455.3733   z  M 501.76066,431.35051   L 513.5832,431.35051   C 517.51145,431.35051 520.26878,430.63285 521.93074,429.15975   C 523.55492,427.68666 524.3859,425.64699 524.3859,423.00297   C 524.3859,421.07662 523.89486,419.45243 522.95057,418.09265   C 521.96851,416.73287 520.68427,415.82635 519.09786,415.37309   C 518.07803,415.10869 516.18944,414.99538 513.46988,414.99538   L 501.76066,414.99538   L 501.76066,431.35051   z "
     style="fill:#ff0000;fill-rule:nonzero;fill-opacity:1;stroke:#ff0000;stroke-width:1.0576069px;stroke-linecap:butt;stroke-linejoin:miter;stroke-miterlimit:112;stroke-dasharray:none;stroke-opacity:1;" />
</svg>
