<?xml version="1.0" encoding="UTF-8" standalone="no"?>
<svg
   xmlns:dc="http://purl.org/dc/elements/1.1/"
   xmlns:cc="http://creativecommons.org/ns#"
   xmlns:rdf="http://www.w3.org/1999/02/22-rdf-syntax-ns#"
   xmlns:svg="http://www.w3.org/2000/svg"
   xmlns="http://www.w3.org/2000/svg"
   id="svg15"
   height="112.9mm"
   width="112.9mm"
   version="1.0">
  <metadata
     id="metadata19">
    <rdf:RDF>
      <cc:Work
         rdf:about="">
        <dc:format>image/svg+xml</dc:format>
        <dc:type
           rdf:resource="http://purl.org/dc/dcmitype/StillImage" />
      </cc:Work>
    </rdf:RDF>
  </metadata>
  <defs
     id="defs3">
    <pattern
       y="0"
       x="0"
       height="6"
       width="6"
       patternUnits="userSpaceOnUse"
       id="EMFhbasepattern" />
  </defs>
  <path
     id="path5"
     d="  M 1055.3824,1055.5085   L 1203.488,1055.5085   L 1203.488,1246.2484   L 1055.3824,1246.2484   z "
     style="fill:none;stroke:#ffff00;stroke-width:5.3245535px;stroke-linecap:butt;stroke-linejoin:miter;stroke-miterlimit:282;stroke-dasharray:none;stroke-opacity:1;" />
  <path
     id="path7"
     d="  M 1055.3824,1248.4386   L 1129.9639,1348.5855   L 1204.5832,1248.4386  "
     style="fill:none;stroke:#ffff00;stroke-width:5.3245535px;stroke-linecap:butt;stroke-linejoin:miter;stroke-miterlimit:282;stroke-dasharray:none;stroke-opacity:1;" />
  <path
     id="path9"
     d="  M 1099.8292,1103.4295   L 1105.909,1104.94   C 1104.6251,1109.9247 1102.3215,1113.701 1099.0362,1116.3444   C 1095.7508,1118.95 1091.7102,1120.2339 1086.9521,1120.2339   C 1082.0052,1120.2339 1078.0023,1119.2521 1074.9057,1117.2507   C 1071.8092,1115.2115 1069.4679,1112.3038 1067.8441,1108.4897   C 1066.2203,1104.7134 1065.4273,1100.5973 1065.4273,1096.2546   C 1065.4273,1091.4587 1066.3336,1087.3048 1068.1462,1083.7551   C 1069.9966,1080.2054 1072.5645,1077.5242 1075.9253,1075.6739   C 1079.2862,1073.8235 1082.987,1072.9172 1087.0276,1072.9172   C 1091.5969,1072.9172 1095.4487,1074.0878 1098.583,1076.3913   C 1101.7173,1078.7326 1103.8698,1082.018 1105.116,1086.2474   L 1099.1495,1087.6447   C 1098.0921,1084.3215 1096.5438,1081.9047 1094.5424,1080.3564   C 1092.5032,1078.8459 1089.9731,1078.0907 1086.9143,1078.0907   C 1083.4024,1078.0907 1080.4569,1078.9215 1078.0778,1080.6208   C 1075.7365,1082.3201 1074.075,1084.5859 1073.0931,1087.4181   C 1072.1491,1090.2503 1071.6581,1093.1958 1071.6581,1096.2168   C 1071.6581,1100.1064 1072.2246,1103.505 1073.3575,1106.4128   C 1074.4904,1109.3205 1076.2652,1111.473 1078.682,1112.908   C 1081.0611,1114.3429 1083.6667,1115.0604 1086.4234,1115.0604   C 1089.822,1115.0604 1092.692,1114.0786 1095.0711,1112.1149   C 1097.4124,1110.189 1098.9984,1107.2813 1099.8292,1103.4295   z "
     style="fill:#ffff00;fill-rule:nonzero;fill-opacity:1;stroke:#ffff00;stroke-width:1.0573581px;stroke-linecap:butt;stroke-linejoin:miter;stroke-miterlimit:282;stroke-dasharray:none;stroke-opacity:1;" />
  <path
     id="path11"
     d="  M 1146.0508,1103.4295   L 1152.0929,1104.94   C 1150.8467,1109.9247 1148.5432,1113.701 1145.2578,1116.3444   C 1141.9347,1118.95 1137.9318,1120.2339 1133.136,1120.2339   C 1128.2268,1120.2339 1124.1862,1119.2521 1121.1274,1117.2507   C 1118.0309,1115.2115 1115.6518,1112.3038 1114.0658,1108.4897   C 1112.442,1104.7134 1111.6489,1100.5973 1111.6489,1096.2546   C 1111.6489,1091.4587 1112.5552,1087.3048 1114.3679,1083.7551   C 1116.1805,1080.2054 1118.7861,1077.5242 1122.147,1075.6739   C 1125.5079,1073.8235 1129.2086,1072.9172 1133.2493,1072.9172   C 1137.8186,1072.9172 1141.6704,1074.0878 1144.8047,1076.3913   C 1147.9012,1078.7326 1150.0915,1082.018 1151.3376,1086.2474   L 1145.3711,1087.6447   C 1144.3138,1084.3215 1142.7655,1081.9047 1140.7263,1080.3564   C 1138.7249,1078.8459 1136.1948,1078.0907 1133.136,1078.0907   C 1129.5863,1078.0907 1126.6785,1078.9215 1124.2995,1080.6208   C 1121.9204,1082.3201 1120.2589,1084.5859 1119.3148,1087.4181   C 1118.3707,1090.2503 1117.8798,1093.1958 1117.8798,1096.2168   C 1117.8798,1100.1064 1118.4462,1103.505 1119.5791,1106.4128   C 1120.712,1109.3205 1122.4869,1111.473 1124.8659,1112.908   C 1127.2827,1114.3429 1129.8506,1115.0604 1132.6451,1115.0604   C 1136.0437,1115.0604 1138.9137,1114.0786 1141.255,1112.1149   C 1143.634,1110.189 1145.2201,1107.2813 1146.0508,1103.4295   z "
     style="fill:#ffff00;fill-rule:nonzero;fill-opacity:1;stroke:#ffff00;stroke-width:1.0573581px;stroke-linecap:butt;stroke-linejoin:miter;stroke-miterlimit:282;stroke-dasharray:none;stroke-opacity:1;" />
  <path
     id="path13"
     d="  M 1159.6077,1119.4787   L 1159.6077,1073.7102   L 1176.8653,1073.7102   C 1179.8863,1073.7102 1182.2276,1073.8235 1183.8136,1074.1256   C 1186.0794,1074.5032 1187.9675,1075.2207 1189.4781,1076.2781   C 1190.9886,1077.3354 1192.2347,1078.8082 1193.141,1080.6963   C 1194.0851,1082.5844 1194.5383,1084.6614 1194.5383,1086.9272   C 1194.5383,1090.8167 1193.2921,1094.1021 1190.8375,1096.821   C 1188.3452,1099.5022 1183.8514,1100.8616 1177.394,1100.8616   L 1165.6497,1100.8616   L 1165.6497,1119.4787   z  M 1165.6497,1095.4616   L 1177.4695,1095.4616   C 1181.3968,1095.4616 1184.1913,1094.7441 1185.8151,1093.2713   C 1187.4766,1091.7986 1188.3074,1089.7594 1188.3074,1087.116   C 1188.3074,1085.1901 1187.8165,1083.5663 1186.8347,1082.2068   C 1185.8528,1080.8474 1184.6067,1079.941 1183.0206,1079.4879   C 1182.001,1079.2236 1180.1129,1079.1103 1177.3562,1079.1103   L 1165.6497,1079.1103   z "
     style="fill:#ffff00;fill-rule:nonzero;fill-opacity:1;stroke:#ffff00;stroke-width:1.0573581px;stroke-linecap:butt;stroke-linejoin:miter;stroke-miterlimit:282;stroke-dasharray:none;stroke-opacity:1;" />
</svg>
