<?xml version="1.0" encoding="UTF-8" standalone="no"?>
<svg
   xmlns:dc="http://purl.org/dc/elements/1.1/"
   xmlns:cc="http://creativecommons.org/ns#"
   xmlns:rdf="http://www.w3.org/1999/02/22-rdf-syntax-ns#"
   xmlns:svg="http://www.w3.org/2000/svg"
   xmlns="http://www.w3.org/2000/svg"
   id="svg13"
   height="130.27mm"
   width="130.27mm"
   version="1.0">
  <metadata
     id="metadata17">
    <rdf:RDF>
      <cc:Work
         rdf:about="">
        <dc:format>image/svg+xml</dc:format>
        <dc:type
           rdf:resource="http://purl.org/dc/dcmitype/StillImage" />
      </cc:Work>
    </rdf:RDF>
  </metadata>
  <defs
     id="defs3">
    <pattern
       y="0"
       x="0"
       height="6"
       width="6"
       patternUnits="userSpaceOnUse"
       id="EMFhbasepattern" />
  </defs>
  <path
     id="path5"
     d="  M 164.63454,327.67068   C 164.63454,437.95983 327.67068,437.95983 327.67068,327.67068   C 437.95983,327.67068 437.95983,164.63454 327.67068,164.63454   C 327.67068,54.345381 164.63454,54.345381 164.63454,164.63454   C 54.345381,164.63454 54.345381,327.67068 164.63454,327.67068   z "
     style="fill:#ffff80;fill-rule:evenodd;fill-opacity:1;stroke:none;" />
  <path
     id="path7"
     d="  M 164.63454,327.67068   C 164.63454,437.95983 327.67068,437.95983 327.67068,327.67068   C 437.95983,327.67068 437.95983,164.63454 327.67068,164.63454   C 327.67068,54.345381 164.63454,54.345381 164.63454,164.63454   C 54.345381,164.63454 54.345381,327.67068 164.63454,327.67068  "
     style="fill:none;stroke:#000000;stroke-width:9.5903616px;stroke-linecap:butt;stroke-linejoin:miter;stroke-miterlimit:10;stroke-dasharray:none;stroke-opacity:1;" />
  <path
     id="path9"
     d="  M 361.23694,170.38875   L 131.06827,321.91646  "
     style="fill:none;stroke:#000000;stroke-width:9.5903616px;stroke-linecap:butt;stroke-linejoin:miter;stroke-miterlimit:10;stroke-dasharray:none;stroke-opacity:1;" />
  <path
     id="path11"
     d="  M 240.43835,301.41706   L 246.19257,302.89558   C 244.99377,307.57088 242.83594,311.16726 239.71907,313.64477   C 236.60221,316.08232 232.76606,317.32108 228.2506,317.32108   C 223.61526,317.32108 219.81907,316.402 216.902,314.48393   C 213.98494,312.60582 211.74719,309.84859 210.22871,306.2522   C 208.71024,302.65582 207.951,298.77971 207.951,294.66385   C 207.951,290.14839 208.79016,286.23233 210.50843,282.8757   C 212.2267,279.51907 214.70421,276.96164 217.86104,275.20341   C 221.05783,273.48514 224.53433,272.60602 228.37048,272.60602   C 232.68614,272.60602 236.32249,273.7249 239.27951,275.92269   C 242.23654,278.12048 244.27449,281.19739 245.43333,285.19337   L 239.79899,286.552   C 238.8,283.39518 237.36144,281.11747 235.44337,279.67891   C 233.5253,278.24036 231.12771,277.52108 228.2506,277.52108   C 224.93393,277.52108 222.13674,278.32028 219.89899,279.87871   C 217.66124,281.4771 216.10281,283.63494 215.18373,286.31224   C 214.30462,288.98955 213.8251,291.74678 213.8251,294.62389   C 213.8251,298.3002 214.38454,301.49698 215.46345,304.25421   C 216.54237,307.01144 218.18072,309.04939 220.45843,310.40803   C 222.69618,311.76666 225.17369,312.44598 227.81104,312.44598   C 231.00783,312.44598 233.7251,311.5269 235.92289,309.64879   C 238.16064,307.81064 239.67911,305.05341 240.43835,301.41706   z  M 248.47028,316.6018   L 265.09357,273.36526   L 271.24739,273.36526   L 288.94959,316.6018   L 282.43614,316.6018   L 277.4012,303.49498   L 259.29939,303.49498   L 254.54417,316.6018   z  M 260.93775,298.81967   L 275.60301,298.81967   L 271.08755,286.87168   C 269.72891,283.23534 268.68996,280.23835 268.0506,277.88072   C 267.49116,280.67791 266.69196,283.43514 265.69297,286.15241   z  M 305.89257,316.6018   L 289.14939,273.36526   L 295.34317,273.36526   L 306.57188,304.77369   C 307.49096,307.29116 308.21024,309.64879 308.84959,311.84658   C 309.48895,309.48895 310.28815,307.13132 311.16726,304.77369   L 322.83554,273.36526   L 328.70963,273.36526   L 311.76666,316.6018   z "
     style="fill:#000000;fill-rule:evenodd;fill-opacity:1;stroke:none;" />
</svg>
