<?xml version="1.0" encoding="UTF-8" standalone="no"?>
<svg
   xmlns:dc="http://purl.org/dc/elements/1.1/"
   xmlns:cc="http://creativecommons.org/ns#"
   xmlns:rdf="http://www.w3.org/1999/02/22-rdf-syntax-ns#"
   xmlns:svg="http://www.w3.org/2000/svg"
   xmlns="http://www.w3.org/2000/svg"
   id="svg13"
   height="95.75mm"
   width="95.75mm"
   version="1.0">
  <metadata
     id="metadata17">
    <rdf:RDF>
      <cc:Work
         rdf:about="">
        <dc:format>image/svg+xml</dc:format>
        <dc:type
           rdf:resource="http://purl.org/dc/dcmitype/StillImage" />
      </cc:Work>
    </rdf:RDF>
  </metadata>
  <defs
     id="defs3">
    <pattern
       y="0"
       x="0"
       height="6"
       width="6"
       patternUnits="userSpaceOnUse"
       id="EMFhbasepattern" />
  </defs>
  <path
     id="path5"
     d="  M 54.345381,54.345381   L 54.345381,307.53092   L 307.53092,307.53092   L 307.53092,54.345381   L 54.345381,54.345381   z "
     style="fill:#aaffaa;fill-rule:evenodd;fill-opacity:1;stroke:none;" />
  <path
     id="path7"
     d="  M 54.345381,54.345381   L 307.53092,54.345381   L 307.53092,307.53092   L 54.345381,307.53092   z "
     style="fill:none;stroke:#000000;stroke-width:9.5903616px;stroke-linecap:butt;stroke-linejoin:miter;stroke-miterlimit:10;stroke-dasharray:none;stroke-opacity:1;" />
  <path
     id="path9"
     d="  M 307.53092,54.345381   L 54.345381,307.53092  "
     style="fill:none;stroke:#000000;stroke-width:9.5903616px;stroke-linecap:butt;stroke-linejoin:miter;stroke-miterlimit:10;stroke-dasharray:none;stroke-opacity:1;" />
  <path
     id="path11"
     d="  M 180.01907,243.8749   L 185.77329,245.35341   C 184.5745,250.02871 182.41666,253.6251 179.2998,256.10261   C 176.18293,258.54016 172.34678,259.77891 167.83132,259.77891   C 163.19598,259.77891 159.3998,258.85984 156.48273,256.94176   C 153.56566,255.06365 151.32791,252.30642 149.80944,248.71004   C 148.29096,245.11365 147.53172,241.23755 147.53172,237.12168   C 147.53172,232.60622 148.37088,228.69016 150.08915,225.33353   C 151.80743,221.9769 154.28494,219.41947 157.44176,217.66124   C 160.63855,215.94297 164.11506,215.06385 167.9512,215.06385   C 172.26686,215.06385 175.90321,216.18273 178.86024,218.38052   C 181.81727,220.57831 183.85522,223.65522 185.01405,227.6512   L 179.37972,229.00984   C 178.38072,225.85301 176.94217,223.5753 175.02409,222.13674   C 173.10602,220.69819 170.70843,219.97891 167.83132,219.97891   C 164.51466,219.97891 161.71747,220.77811 159.47972,222.33654   C 157.24197,223.93494 155.68353,226.09277 154.76446,228.77008   C 153.88534,231.44739 153.40582,234.20462 153.40582,237.08172   C 153.40582,240.75803 153.96526,243.95482 155.04417,246.71204   C 156.12309,249.46927 157.76144,251.50723 160.03915,252.86586   C 162.27691,254.22449 164.75442,254.90381 167.39176,254.90381   C 170.58855,254.90381 173.30582,253.98474 175.50361,252.10662   C 177.74136,250.26847 179.25984,247.51124 180.01907,243.8749   z  M 188.051,259.05963   L 204.67429,215.82309   L 210.82811,215.82309   L 228.53032,259.05963   L 222.01686,259.05963   L 216.98192,245.95281   L 198.88012,245.95281   L 194.1249,259.05963   z  M 200.51847,241.27751   L 215.18373,241.27751   L 210.66827,229.32951   C 209.30964,225.69317 208.27068,222.69618 207.63132,220.33855   C 207.07188,223.13574 206.27269,225.89297 205.27369,228.61024   z  M 245.47329,259.05963   L 228.73012,215.82309   L 234.92389,215.82309   L 246.15261,247.23152   C 247.07168,249.74899 247.79096,252.10662 248.43032,254.30441   C 249.06968,251.94678 249.86887,249.58915 250.74799,247.23152   L 262.41626,215.82309   L 268.29036,215.82309   L 251.34739,259.05963   z "
     style="fill:#000000;fill-rule:evenodd;fill-opacity:1;stroke:none;" />
</svg>
