<?xml version="1.0" encoding="UTF-8" standalone="no"?>
<svg
   xmlns:dc="http://purl.org/dc/elements/1.1/"
   xmlns:cc="http://creativecommons.org/ns#"
   xmlns:rdf="http://www.w3.org/1999/02/22-rdf-syntax-ns#"
   xmlns:svg="http://www.w3.org/2000/svg"
   xmlns="http://www.w3.org/2000/svg"
   id="svg13"
   height="89.669998mm"
   width="120.11mm"
   version="1.0">
  <metadata
     id="metadata17">
    <rdf:RDF>
      <cc:Work
         rdf:about="">
        <dc:format>image/svg+xml</dc:format>
        <dc:type
           rdf:resource="http://purl.org/dc/dcmitype/StillImage" />
      </cc:Work>
    </rdf:RDF>
  </metadata>
  <defs
     id="defs3">
    <pattern
       y="0"
       x="0"
       height="6"
       width="6"
       patternUnits="userSpaceOnUse"
       id="EMFhbasepattern" />
  </defs>
  <path
     id="path5"
     d="  M 54.345381,54.345381   L 54.345381,284.51405   L 399.59839,284.51405   L 399.59839,54.345381   L 54.345381,54.345381   z "
     style="fill:#80e0ff;fill-rule:evenodd;fill-opacity:1;stroke:none;" />
  <path
     id="path7"
     d="  M 54.345381,54.345381   L 399.59839,54.345381   L 399.59839,284.51405   L 54.345381,284.51405   z "
     style="fill:none;stroke:#000000;stroke-width:9.5903616px;stroke-linecap:butt;stroke-linejoin:miter;stroke-miterlimit:10;stroke-dasharray:none;stroke-opacity:1;" />
  <path
     id="path9"
     d="  M 399.59839,54.345381   L 54.345381,284.51405  "
     style="fill:none;stroke:#000000;stroke-width:9.5903616px;stroke-linecap:butt;stroke-linejoin:miter;stroke-miterlimit:10;stroke-dasharray:none;stroke-opacity:1;" />
  <path
     id="path11"
     d="  M 221.25763,224.69417   L 227.01184,226.17269   C 225.81305,230.84799 223.65522,234.44437 220.53835,236.92188   C 217.42148,239.35943 213.58534,240.59819 209.06988,240.59819   C 204.43454,240.59819 200.63835,239.67911 197.72128,237.76104   C 194.80421,235.88293 192.56646,233.1257 191.04799,229.52931   C 189.52952,225.93293 188.77028,222.05682 188.77028,217.94096   C 188.77028,213.4255 189.60944,209.50943 191.32771,206.15281   C 193.04598,202.79618 195.52349,200.23875 198.68032,198.48052   C 201.87711,196.76225 205.35361,195.88313 209.18976,195.88313   C 213.50542,195.88313 217.14176,197.00201 220.09879,199.1998   C 223.05582,201.39759 225.09377,204.4745 226.25261,208.47048   L 220.61827,209.82911   C 219.61927,206.67229 218.18072,204.39458 216.26265,202.95602   C 214.34458,201.51747 211.94698,200.79819 209.06988,200.79819   C 205.75321,200.79819 202.95602,201.59739 200.71827,203.15582   C 198.48052,204.75421 196.92209,206.91205 196.00301,209.58935   C 195.12389,212.26666 194.64437,215.02389 194.64437,217.901   C 194.64437,221.57731 195.20381,224.77409 196.28273,227.53132   C 197.36164,230.28855 199,232.3265 201.27771,233.68514   C 203.51546,235.04377 205.99297,235.72309 208.63032,235.72309   C 211.82711,235.72309 214.54437,234.80401 216.74217,232.9259   C 218.97992,231.08775 220.49839,228.33052 221.25763,224.69417   z  M 229.28955,239.87891   L 245.91285,196.64237   L 252.06666,196.64237   L 269.76887,239.87891   L 263.25542,239.87891   L 258.22048,226.77209   L 240.11867,226.77209   L 235.36345,239.87891   z  M 241.75702,222.09678   L 256.42229,222.09678   L 251.90682,210.14879   C 250.54819,206.51245 249.50923,203.51546 248.86988,201.15783   C 248.31044,203.95502 247.51124,206.71225 246.51225,209.42952   z  M 286.71184,239.87891   L 269.96867,196.64237   L 276.16245,196.64237   L 287.39116,228.0508   C 288.31024,230.56827 289.02951,232.9259 289.66887,235.12369   C 290.30823,232.76606 291.10743,230.40843 291.98654,228.0508   L 303.65481,196.64237   L 309.52891,196.64237   L 292.58594,239.87891   z "
     style="fill:#000000;fill-rule:evenodd;fill-opacity:1;stroke:none;" />
</svg>
