<?xml version="1.0" encoding="UTF-8" standalone="no"?>
<svg
   xmlns:dc="http://purl.org/dc/elements/1.1/"
   xmlns:cc="http://creativecommons.org/ns#"
   xmlns:rdf="http://www.w3.org/1999/02/22-rdf-syntax-ns#"
   xmlns:svg="http://www.w3.org/2000/svg"
   xmlns="http://www.w3.org/2000/svg"
   id="svg21"
   height="77.82mm"
   width="87.300003mm"
   version="1.0">
  <metadata
     id="metadata25">
    <rdf:RDF>
      <cc:Work
         rdf:about="">
        <dc:format>image/svg+xml</dc:format>
        <dc:type
           rdf:resource="http://purl.org/dc/dcmitype/StillImage" />
      </cc:Work>
    </rdf:RDF>
  </metadata>
  <defs
     id="defs3">
    <pattern
       y="0"
       x="0"
       height="6"
       width="6"
       patternUnits="userSpaceOnUse"
       id="EMFhbasepattern" />
  </defs>
  <path
     id="path5"
     d="  M 30.689156,263.41526   L 30.689156,263.41526   L 164.95421,30.848996   L 299.21927,263.41526   z "
     style="fill:none;stroke:#000000;stroke-width:4.7951808px;stroke-linecap:butt;stroke-linejoin:miter;stroke-miterlimit:10;stroke-dasharray:none;stroke-opacity:1;" />
  <path
     id="path7"
     d="  M 231.12771,145.45381   L 30.689156,263.41526  "
     style="fill:none;stroke:#000000;stroke-width:4.7951808px;stroke-linecap:butt;stroke-linejoin:miter;stroke-miterlimit:10;stroke-dasharray:none;stroke-opacity:1;" />
  <path
     id="path9"
     d="  M 131.06827,163.51566   C 131.06827,169.98915 125.79357,175.22389 119.32008,175.22389   C 112.84658,175.22389 107.57189,169.98915 107.57189,163.51566   C 107.57189,157.00221 112.84658,151.76747 119.32008,151.76747   C 125.79357,151.76747 131.06827,157.00221 131.06827,163.51566   z "
     style="fill:#000000;fill-rule:evenodd;fill-opacity:1;stroke:none;" />
  <path
     id="path11"
     d="  M 131.06827,163.51566   C 131.06827,169.98915 125.79357,175.22389 119.32008,175.22389   C 112.84658,175.22389 107.57189,169.98915 107.57189,163.51566   C 107.57189,157.00221 112.84658,151.76747 119.32008,151.76747   C 125.79357,151.76747 131.06827,157.00221 131.06827,163.51566  "
     style="fill:none;stroke:#000000;stroke-width:6.5134535px;stroke-linecap:butt;stroke-linejoin:miter;stroke-miterlimit:10;stroke-dasharray:none;stroke-opacity:1;" />
  <path
     id="path13"
     d="  M 222.3765,163.51566   C 222.3765,169.98915 217.1018,175.22389 210.62831,175.22389   C 204.15482,175.22389 198.88012,169.98915 198.88012,163.51566   C 198.88012,157.00221 204.15482,151.76747 210.62831,151.76747   C 217.1018,151.76747 222.3765,157.00221 222.3765,163.51566   z "
     style="fill:#000000;fill-rule:evenodd;fill-opacity:1;stroke:none;" />
  <path
     id="path15"
     d="  M 222.3765,163.51566   C 222.3765,169.98915 217.1018,175.22389 210.62831,175.22389   C 204.15482,175.22389 198.88012,169.98915 198.88012,163.51566   C 198.88012,157.00221 204.15482,151.76747 210.62831,151.76747   C 217.1018,151.76747 222.3765,157.00221 222.3765,163.51566  "
     style="fill:none;stroke:#000000;stroke-width:6.5134535px;stroke-linecap:butt;stroke-linejoin:miter;stroke-miterlimit:10;stroke-dasharray:none;stroke-opacity:1;" />
  <path
     id="path17"
     d="  M 125.83353,153.7255   C 164.95421,176.54257 171.50763,189.56948 187.81124,248.27048  "
     style="fill:none;stroke:#000000;stroke-width:6.5134535px;stroke-linecap:butt;stroke-linejoin:miter;stroke-miterlimit:10;stroke-dasharray:none;stroke-opacity:1;" />
  <path
     id="path19"
     d="  M 204.11486,153.7255   C 164.95421,176.54257 158.44076,189.56948 142.13715,248.27048  "
     style="fill:none;stroke:#000000;stroke-width:6.5134535px;stroke-linecap:butt;stroke-linejoin:miter;stroke-miterlimit:10;stroke-dasharray:none;stroke-opacity:1;" />
</svg>
