<?xml version="1.0" encoding="UTF-8" standalone="no"?>
<svg
   xmlns:dc="http://purl.org/dc/elements/1.1/"
   xmlns:cc="http://creativecommons.org/ns#"
   xmlns:rdf="http://www.w3.org/1999/02/22-rdf-syntax-ns#"
   xmlns:svg="http://www.w3.org/2000/svg"
   xmlns="http://www.w3.org/2000/svg"
   id="svg21"
   height="101.85mm"
   width="101.85mm"
   version="1.0">
  <metadata
     id="metadata25">
    <rdf:RDF>
      <cc:Work
         rdf:about="">
        <dc:format>image/svg+xml</dc:format>
        <dc:type
           rdf:resource="http://purl.org/dc/dcmitype/StillImage" />
      </cc:Work>
    </rdf:RDF>
  </metadata>
  <defs
     id="defs3">
    <pattern
       y="0"
       x="0"
       height="6"
       width="6"
       patternUnits="userSpaceOnUse"
       id="EMFhbasepattern" />
  </defs>
  <path
     id="path5"
     d="  M 330.54779,192.44658   C 330.54779,268.72992 268.72992,330.54779 192.44658,330.54779   C 116.20321,330.54779 54.345381,268.72992 54.345381,192.44658   C 54.345381,116.20321 116.20321,54.345381 192.44658,54.345381   C 268.72992,54.345381 330.54779,116.20321 330.54779,192.44658   z "
     style="fill:#80e0ff;fill-rule:evenodd;fill-opacity:1;stroke:none;" />
  <path
     id="path7"
     d="  M 330.54779,192.44658   C 330.54779,268.72992 268.72992,330.54779 192.44658,330.54779   C 116.20321,330.54779 54.345381,268.72992 54.345381,192.44658   C 54.345381,116.20321 116.20321,54.345381 192.44658,54.345381   C 268.72992,54.345381 330.54779,116.20321 330.54779,192.44658  "
     style="fill:none;stroke:#000000;stroke-width:9.5903616px;stroke-linecap:butt;stroke-linejoin:miter;stroke-miterlimit:10;stroke-dasharray:none;stroke-opacity:1;" />
  <path
     id="path9"
     d="  M 142.5767,154.08514   C 142.5767,163.63554 134.86446,171.34779 125.31405,171.34779   C 115.80361,171.34779 108.0514,163.63554 108.0514,154.08514   C 108.0514,144.5747 115.80361,136.82249 125.31405,136.82249   C 134.86446,136.82249 142.5767,144.5747 142.5767,154.08514   z "
     style="fill:#000000;fill-rule:evenodd;fill-opacity:1;stroke:none;" />
  <path
     id="path11"
     d="  M 142.5767,154.08514   C 142.5767,163.63554 134.86446,171.34779 125.31405,171.34779   C 115.80361,171.34779 108.0514,163.63554 108.0514,154.08514   C 108.0514,144.5747 115.80361,136.82249 125.31405,136.82249   C 134.86446,136.82249 142.5767,144.5747 142.5767,154.08514  "
     style="fill:none;stroke:#000000;stroke-width:9.5903616px;stroke-linecap:butt;stroke-linejoin:miter;stroke-miterlimit:10;stroke-dasharray:none;stroke-opacity:1;" />
  <path
     id="path13"
     d="  M 276.84176,154.08514   C 276.84176,163.63554 269.12951,171.34779 259.57911,171.34779   C 250.06867,171.34779 242.31646,163.63554 242.31646,154.08514   C 242.31646,144.5747 250.06867,136.82249 259.57911,136.82249   C 269.12951,136.82249 276.84176,144.5747 276.84176,154.08514   z "
     style="fill:#000000;fill-rule:evenodd;fill-opacity:1;stroke:none;" />
  <path
     id="path15"
     d="  M 276.84176,154.08514   C 276.84176,163.63554 269.12951,171.34779 259.57911,171.34779   C 250.06867,171.34779 242.31646,163.63554 242.31646,154.08514   C 242.31646,144.5747 250.06867,136.82249 259.57911,136.82249   C 269.12951,136.82249 276.84176,144.5747 276.84176,154.08514  "
     style="fill:none;stroke:#000000;stroke-width:9.5903616px;stroke-linecap:butt;stroke-linejoin:miter;stroke-miterlimit:10;stroke-dasharray:none;stroke-opacity:1;" />
  <path
     id="path17"
     d="  M 134.90442,139.6996   C 192.44658,173.26586 202.03694,192.44658 226.01285,278.75984  "
     style="fill:none;stroke:#000000;stroke-width:9.5903616px;stroke-linecap:butt;stroke-linejoin:miter;stroke-miterlimit:10;stroke-dasharray:none;stroke-opacity:1;" />
  <path
     id="path19"
     d="  M 249.98875,139.6996   C 192.44658,173.26586 182.85622,192.44658 158.88032,278.75984  "
     style="fill:none;stroke:#000000;stroke-width:9.5903616px;stroke-linecap:butt;stroke-linejoin:miter;stroke-miterlimit:10;stroke-dasharray:none;stroke-opacity:1;" />
</svg>
