<?xml version="1.0" encoding="UTF-8" standalone="no"?>
<svg
   xmlns:dc="http://purl.org/dc/elements/1.1/"
   xmlns:cc="http://creativecommons.org/ns#"
   xmlns:rdf="http://www.w3.org/1999/02/22-rdf-syntax-ns#"
   xmlns:svg="http://www.w3.org/2000/svg"
   xmlns="http://www.w3.org/2000/svg"
   id="svg23"
   height="95.75mm"
   width="95.75mm"
   version="1.0">
  <metadata
     id="metadata27">
    <rdf:RDF>
      <cc:Work
         rdf:about="">
        <dc:format>image/svg+xml</dc:format>
        <dc:type
           rdf:resource="http://purl.org/dc/dcmitype/StillImage" />
      </cc:Work>
    </rdf:RDF>
  </metadata>
  <defs
     id="defs3">
    <pattern
       y="0"
       x="0"
       height="6"
       width="6"
       patternUnits="userSpaceOnUse"
       id="EMFhbasepattern" />
  </defs>
  <path
     id="path5"
     d="  M 54.345381,54.345381   L 54.345381,307.53092   L 307.53092,307.53092   L 307.53092,54.345381   L 54.345381,54.345381   z "
     style="fill:#aaffaa;fill-rule:evenodd;fill-opacity:1;stroke:none;" />
  <path
     id="path7"
     d="  M 54.345381,54.345381   L 307.53092,54.345381   L 307.53092,307.53092   L 54.345381,307.53092   z "
     style="fill:none;stroke:#000000;stroke-width:9.5903616px;stroke-linecap:butt;stroke-linejoin:miter;stroke-miterlimit:10;stroke-dasharray:none;stroke-opacity:1;" />
  <path
     id="path9"
     d="  M 131.06827,142.5767   C 131.06827,152.12711 123.35602,159.83936 113.80562,159.83936   C 104.29518,159.83936 96.54297,152.12711 96.54297,142.5767   C 96.54297,133.06626 104.29518,125.31405 113.80562,125.31405   C 123.35602,125.31405 131.06827,133.06626 131.06827,142.5767   z "
     style="fill:#000000;fill-rule:evenodd;fill-opacity:1;stroke:none;" />
  <path
     id="path11"
     d="  M 131.06827,142.5767   C 131.06827,152.12711 123.35602,159.83936 113.80562,159.83936   C 104.29518,159.83936 96.54297,152.12711 96.54297,142.5767   C 96.54297,133.06626 104.29518,125.31405 113.80562,125.31405   C 123.35602,125.31405 131.06827,133.06626 131.06827,142.5767  "
     style="fill:none;stroke:#000000;stroke-width:9.5903616px;stroke-linecap:butt;stroke-linejoin:miter;stroke-miterlimit:10;stroke-dasharray:none;stroke-opacity:1;" />
  <path
     id="path13"
     d="  M 265.33333,142.5767   C 265.33333,152.12711 257.62108,159.83936 248.07068,159.83936   C 238.56024,159.83936 230.80803,152.12711 230.80803,142.5767   C 230.80803,133.06626 238.56024,125.31405 248.07068,125.31405   C 257.62108,125.31405 265.33333,133.06626 265.33333,142.5767   z "
     style="fill:#000000;fill-rule:evenodd;fill-opacity:1;stroke:none;" />
  <path
     id="path15"
     d="  M 265.33333,142.5767   C 265.33333,152.12711 257.62108,159.83936 248.07068,159.83936   C 238.56024,159.83936 230.80803,152.12711 230.80803,142.5767   C 230.80803,133.06626 238.56024,125.31405 248.07068,125.31405   C 257.62108,125.31405 265.33333,133.06626 265.33333,142.5767  "
     style="fill:none;stroke:#000000;stroke-width:9.5903616px;stroke-linecap:butt;stroke-linejoin:miter;stroke-miterlimit:10;stroke-dasharray:none;stroke-opacity:1;" />
  <path
     id="path17"
     d="  M 123.39598,128.19116   C 180.93815,161.75743 190.52851,180.93815 214.50441,267.2514  "
     style="fill:none;stroke:#000000;stroke-width:9.5903616px;stroke-linecap:butt;stroke-linejoin:miter;stroke-miterlimit:10;stroke-dasharray:none;stroke-opacity:1;" />
  <path
     id="path19"
     d="  M 238.48032,128.19116   C 180.93815,161.75743 171.34779,180.93815 147.37189,267.2514  "
     style="fill:none;stroke:#000000;stroke-width:9.5903616px;stroke-linecap:butt;stroke-linejoin:miter;stroke-miterlimit:10;stroke-dasharray:none;stroke-opacity:1;" />
  <path
     id="path21"
     d="  M 165.39377,129.07028   L 165.39377,77.562047   L 183.13594,77.562047   C 187.13193,77.602007 190.20883,77.841766 192.3267,78.321284   C 195.24377,79.000601 197.76124,80.239356 199.87911,81.997589   C 202.59638,84.31526 204.59437,87.232328 205.95301,90.788754   C 207.31164,94.385139 207.99096,98.461043 207.99096,103.05642   C 207.99096,106.97249 207.51144,110.40903 206.59237,113.44598   C 205.67329,116.44297 204.51445,118.96044 203.0759,120.95843   C 201.67731,122.91646 200.11887,124.4749 198.4006,125.59377   C 196.72229,126.75261 194.64437,127.59177 192.24678,128.19116   C 189.84919,128.79056 187.09197,129.07028 183.9751,129.07028   z  M 172.22691,122.99638   L 183.21586,122.99638   C 186.61245,122.99638 189.28976,122.67671 191.20783,122.03735   C 193.1259,121.39799 194.68433,120.51887 195.80321,119.36004   C 197.44156,117.76164 198.68032,115.60381 199.59939,112.84658   C 200.51847,110.12932 200.95803,106.81265 200.95803,102.93654   C 200.95803,97.541966 200.07891,93.426103 198.28072,90.509035   C 196.52249,87.631926 194.36466,85.713854 191.84719,84.714858   C 190.00903,83.995581 187.09197,83.675902 183.05602,83.675902   L 172.22691,83.675902   z "
     style="fill:#000000;fill-rule:evenodd;fill-opacity:1;stroke:none;" />
</svg>
