<?xml version="1.0" encoding="UTF-8" standalone="no"?>
<svg
   xmlns:dc="http://purl.org/dc/elements/1.1/"
   xmlns:cc="http://creativecommons.org/ns#"
   xmlns:rdf="http://www.w3.org/1999/02/22-rdf-syntax-ns#"
   xmlns:svg="http://www.w3.org/2000/svg"
   xmlns="http://www.w3.org/2000/svg"
   id="svg11"
   height="116.73mm"
   width="116.73mm"
   version="1.0">
  <metadata
     id="metadata15">
    <rdf:RDF>
      <cc:Work
         rdf:about="">
        <dc:format>image/svg+xml</dc:format>
        <dc:type
           rdf:resource="http://purl.org/dc/dcmitype/StillImage" />
      </cc:Work>
    </rdf:RDF>
  </metadata>
  <defs
     id="defs3">
    <pattern
       y="0"
       x="0"
       height="6"
       width="6"
       patternUnits="userSpaceOnUse"
       id="EMFhbasepattern" />
  </defs>
  <path
     id="path5"
     d="  M 220.57831,386.49156   L 220.57831,386.49156   L 386.49156,220.57831   L 220.57831,54.665059   L 54.665059,220.57831   L 220.57831,386.49156   z "
     style="fill:#ff8080;fill-rule:evenodd;fill-opacity:1;stroke:none;" />
  <path
     id="path7"
     d="  M 220.57831,386.49156   L 220.57831,386.49156   L 386.49156,220.57831   L 220.57831,54.665059   L 54.665059,220.57831   L 220.57831,386.49156  "
     style="fill:none;stroke:#000000;stroke-width:9.5903616px;stroke-linecap:butt;stroke-linejoin:miter;stroke-miterlimit:10;stroke-dasharray:none;stroke-opacity:1;" />
  <path
     id="path9"
     d="  M 201.31767,221.45743   L 209.50943,223.49538   C 207.79116,230.24859 204.71425,235.36345 200.23875,238.87992   C 195.80321,242.39638 190.36867,244.15461 183.93514,244.15461   C 177.26184,244.15461 171.86727,242.79598 167.67148,240.11867   C 163.51566,237.4014 160.31887,233.44538 158.16104,228.33052   C 155.96325,223.1757 154.88434,217.66124 154.88434,211.74719   C 154.88434,205.31365 156.12309,199.71927 158.56064,194.92409   C 161.03815,190.12891 164.51466,186.49257 169.07008,184.01506   C 173.6255,181.49759 178.62048,180.25883 184.05502,180.25883   C 190.24879,180.25883 195.44357,181.85723 199.63935,185.01405   C 203.8751,188.13092 206.79217,192.56646 208.47048,198.28072   L 200.39859,200.15883   C 198.96004,195.68333 196.88213,192.40662 194.16486,190.32871   C 191.44759,188.29076 188.01104,187.2518 183.89518,187.2518   C 179.13996,187.2518 175.18393,188.41064 171.98715,190.68835   C 168.79036,192.96606 166.55261,196.00301 165.23393,199.83915   C 163.95522,203.6753 163.31586,207.63132 163.31586,211.70723   C 163.31586,216.98192 164.0751,221.53735 165.59357,225.49337   C 167.15201,229.40943 169.50964,232.3265 172.74638,234.24457   C 175.98313,236.20261 179.4996,237.16164 183.25582,237.16164   C 187.81124,237.16164 191.72731,235.84297 194.88413,233.20562   C 198.04096,230.56827 200.19879,226.65221 201.31767,221.45743   z  M 220.97791,243.11566   L 220.97791,181.33775   L 229.12972,181.33775   L 229.12972,243.11566   z  M 243.55522,243.11566   L 243.55522,181.33775   L 264.85381,181.33775   C 269.64899,181.33775 273.3253,181.61747 275.84277,182.21686   C 279.39919,183.01606 282.39618,184.49458 284.91365,186.65241   C 288.1504,189.40964 290.58795,192.9261 292.2263,197.2018   C 293.82469,201.47751 294.62389,206.39257 294.62389,211.86707   C 294.62389,216.58233 294.10441,220.73815 292.98554,224.37449   C 291.90662,227.97088 290.50803,230.96787 288.78975,233.36546   C 287.07148,235.72309 285.19337,237.6012 283.15542,238.95984   C 281.11747,240.31847 278.67992,241.35743 275.76285,242.0767   C 272.88574,242.75602 269.60903,243.11566 265.85281,243.11566   z  M 251.74698,235.80301   L 264.93373,235.80301   C 269.00963,235.80301 272.20642,235.44337 274.52409,234.68413   C 276.84176,233.9249 278.67992,232.84598 280.03855,231.48735   C 281.99658,229.52931 283.51506,226.93192 284.59397,223.65522   C 285.67289,220.37851 286.19237,216.42249 286.19237,211.74719   C 286.19237,205.31365 285.15341,200.31867 283.03554,196.84217   C 280.91767,193.40562 278.32028,191.04799 275.28333,189.88915   C 273.08554,189.05 269.56907,188.61044 264.73393,188.61044   L 251.74698,188.61044   z "
     style="fill:#000000;fill-rule:evenodd;fill-opacity:1;stroke:none;" />
</svg>
