<?xml version="1.0" encoding="UTF-8" standalone="no"?>
<svg
   xmlns:dc="http://purl.org/dc/elements/1.1/"
   xmlns:cc="http://creativecommons.org/ns#"
   xmlns:rdf="http://www.w3.org/1999/02/22-rdf-syntax-ns#"
   xmlns:svg="http://www.w3.org/2000/svg"
   xmlns="http://www.w3.org/2000/svg"
   id="svg11"
   height="130.27mm"
   width="130.27mm"
   version="1.0">
  <metadata
     id="metadata15">
    <rdf:RDF>
      <cc:Work
         rdf:about="">
        <dc:format>image/svg+xml</dc:format>
        <dc:type
           rdf:resource="http://purl.org/dc/dcmitype/StillImage" />
      </cc:Work>
    </rdf:RDF>
  </metadata>
  <defs
     id="defs3">
    <pattern
       y="0"
       x="0"
       height="6"
       width="6"
       patternUnits="userSpaceOnUse"
       id="EMFhbasepattern" />
  </defs>
  <path
     id="path5"
     d="  M 164.63454,327.67068   C 164.63454,437.95983 327.67068,437.95983 327.67068,327.67068   C 437.95983,327.67068 437.95983,164.63454 327.67068,164.63454   C 327.67068,54.345381 164.63454,54.345381 164.63454,164.63454   C 54.345381,164.63454 54.345381,327.67068 164.63454,327.67068   z "
     style="fill:#ffff80;fill-rule:evenodd;fill-opacity:1;stroke:none;" />
  <path
     id="path7"
     d="  M 164.63454,327.67068   C 164.63454,437.95983 327.67068,437.95983 327.67068,327.67068   C 437.95983,327.67068 437.95983,164.63454 327.67068,164.63454   C 327.67068,54.345381 164.63454,54.345381 164.63454,164.63454   C 54.345381,164.63454 54.345381,327.67068 164.63454,327.67068  "
     style="fill:none;stroke:#000000;stroke-width:9.5903616px;stroke-linecap:butt;stroke-linejoin:miter;stroke-miterlimit:10;stroke-dasharray:none;stroke-opacity:1;" />
  <path
     id="path9"
     d="  M 226.89196,247.03172   L 235.08373,249.06968   C 233.36546,255.82289 230.28855,260.93775 225.81305,264.45421   C 221.37751,267.97068 215.94297,269.72891 209.50943,269.72891   C 202.83614,269.72891 197.44156,268.37028 193.24578,265.69297   C 189.08996,262.9757 185.89317,259.01967 183.73534,253.90482   C 181.53755,248.75 180.45863,243.23554 180.45863,237.32148   C 180.45863,230.88795 181.69739,225.29357 184.13494,220.49839   C 186.61245,215.70321 190.08895,212.06686 194.64437,209.58935   C 199.1998,207.07188 204.19478,205.83313 209.62931,205.83313   C 215.82309,205.83313 221.01787,207.43152 225.21365,210.58835   C 229.44939,213.70522 232.36646,218.14076 234.04478,223.85502   L 225.97289,225.73313   C 224.53433,221.25763 222.45642,217.98092 219.73915,215.90301   C 217.02188,213.86506 213.58534,212.8261 209.46947,212.8261   C 204.71425,212.8261 200.75823,213.98494 197.56144,216.26265   C 194.36466,218.54036 192.1269,221.57731 190.80823,225.41345   C 189.52952,229.2496 188.89016,233.20562 188.89016,237.28152   C 188.89016,242.55622 189.64939,247.11164 191.16787,251.06767   C 192.7263,254.98373 195.08393,257.9008 198.32068,259.81887   C 201.55743,261.7769 205.07389,262.73594 208.83012,262.73594   C 213.38554,262.73594 217.3016,261.41727 220.45843,258.77992   C 223.61526,256.14257 225.77309,252.2265 226.89196,247.03172   z  M 246.55221,268.68996   L 246.55221,206.91205   L 254.70401,206.91205   L 254.70401,268.68996   z  M 269.12951,268.68996   L 269.12951,206.91205   L 290.42811,206.91205   C 295.22329,206.91205 298.89959,207.19176 301.41706,207.79116   C 304.97349,208.59036 307.97048,210.06887 310.48795,212.2267   C 313.72469,214.98393 316.16224,218.5004 317.8006,222.7761   C 319.39899,227.0518 320.19819,231.96686 320.19819,237.44136   C 320.19819,242.15662 319.67871,246.31245 318.55983,249.94879   C 317.48092,253.54518 316.08232,256.54216 314.36405,258.93976   C 312.64578,261.29739 310.76767,263.1755 308.72971,264.53413   C 306.69176,265.89277 304.25421,266.93172 301.33714,267.651   C 298.46004,268.33032 295.18333,268.68996 291.4271,268.68996   z  M 277.32128,261.37731   L 290.50803,261.37731   C 294.58393,261.37731 297.78072,261.01767 300.09839,260.25843   C 302.41606,259.49919 304.25421,258.42028 305.61285,257.06164   C 307.57088,255.10361 309.08935,252.50622 310.16827,249.22951   C 311.24718,245.95281 311.76666,241.99678 311.76666,237.32148   C 311.76666,230.88795 310.72771,225.89297 308.60983,222.41646   C 306.49196,218.97992 303.89457,216.62229 300.85763,215.46345   C 298.65984,214.62429 295.14337,214.18474 290.30823,214.18474   L 277.32128,214.18474   z "
     style="fill:#000000;fill-rule:evenodd;fill-opacity:1;stroke:none;" />
</svg>
