<?xml version="1.0" encoding="UTF-8" standalone="no"?>
<svg
   xmlns:dc="http://purl.org/dc/elements/1.1/"
   xmlns:cc="http://creativecommons.org/ns#"
   xmlns:rdf="http://www.w3.org/1999/02/22-rdf-syntax-ns#"
   xmlns:svg="http://www.w3.org/2000/svg"
   xmlns="http://www.w3.org/2000/svg"
   id="svg11"
   height="89.669998mm"
   width="120.11mm"
   version="1.0">
  <metadata
     id="metadata15">
    <rdf:RDF>
      <cc:Work
         rdf:about="">
        <dc:format>image/svg+xml</dc:format>
        <dc:type
           rdf:resource="http://purl.org/dc/dcmitype/StillImage" />
      </cc:Work>
    </rdf:RDF>
  </metadata>
  <defs
     id="defs3">
    <pattern
       y="0"
       x="0"
       height="6"
       width="6"
       patternUnits="userSpaceOnUse"
       id="EMFhbasepattern" />
  </defs>
  <path
     id="path5"
     d="  M 54.345381,54.345381   L 54.345381,284.51405   L 399.59839,284.51405   L 399.59839,54.345381   L 54.345381,54.345381   z "
     style="fill:#80e0ff;fill-rule:evenodd;fill-opacity:1;stroke:none;" />
  <path
     id="path7"
     d="  M 54.345381,54.345381   L 399.59839,54.345381   L 399.59839,284.51405   L 54.345381,284.51405   z "
     style="fill:none;stroke:#000000;stroke-width:9.5903616px;stroke-linecap:butt;stroke-linejoin:miter;stroke-miterlimit:10;stroke-dasharray:none;stroke-opacity:1;" />
  <path
     id="path9"
     d="  M 207.71124,170.30883   L 215.90301,172.34678   C 214.18474,179.1 211.10783,184.21486 206.63233,187.73132   C 202.19678,191.24779 196.76225,193.00602 190.32871,193.00602   C 183.65542,193.00602 178.26084,191.64739 174.06506,188.97008   C 169.90923,186.25281 166.71245,182.29678 164.55462,177.18193   C 162.35682,172.02711 161.27791,166.51265 161.27791,160.59859   C 161.27791,154.16506 162.51666,148.57068 164.95421,143.7755   C 167.43172,138.98032 170.90823,135.34397 175.46365,132.86646   C 180.01907,130.34899 185.01405,129.11024 190.44859,129.11024   C 196.64237,129.11024 201.83715,130.70863 206.03293,133.86546   C 210.26867,136.98233 213.18574,141.41787 214.86405,147.13213   L 206.79217,149.01024   C 205.35361,144.53474 203.2757,141.25803 200.55843,139.18012   C 197.84116,137.14217 194.40462,136.10321 190.28875,136.10321   C 185.53353,136.10321 181.57751,137.26205 178.38072,139.53976   C 175.18393,141.81747 172.94618,144.85442 171.62751,148.69056   C 170.34879,152.5267 169.70944,156.48273 169.70944,160.55863   C 169.70944,165.83333 170.46867,170.38875 171.98715,174.34478   C 173.54558,178.26084 175.90321,181.17791 179.13996,183.09598   C 182.3767,185.05401 185.89317,186.01305 189.64939,186.01305   C 194.20482,186.01305 198.12088,184.69437 201.27771,182.05703   C 204.43454,179.41968 206.59237,175.50361 207.71124,170.30883   z  M 227.37148,191.96707   L 227.37148,130.18915   L 235.52329,130.18915   L 235.52329,191.96707   z  M 249.94879,191.96707   L 249.94879,130.18915   L 271.24739,130.18915   C 276.04257,130.18915 279.71887,130.46887 282.23634,131.06827   C 285.79277,131.86747 288.78975,133.34598 291.30722,135.50381   C 294.54397,138.26104 296.98152,141.77751 298.61988,146.05321   C 300.21827,150.32891 301.01747,155.24397 301.01747,160.71847   C 301.01747,165.43373 300.49799,169.58956 299.37911,173.2259   C 298.3002,176.82229 296.9016,179.81927 295.18333,182.21686   C 293.46506,184.5745 291.58694,186.45261 289.54899,187.81124   C 287.51104,189.16988 285.07349,190.20883 282.15642,190.92811   C 279.27931,191.60743 276.00261,191.96707 272.24638,191.96707   z  M 258.14056,184.65442   L 271.32731,184.65442   C 275.40321,184.65442 278.6,184.29478 280.91767,183.53554   C 283.23534,182.7763 285.07349,181.69739 286.43212,180.33875   C 288.39016,178.38072 289.90863,175.78333 290.98755,172.50662   C 292.06646,169.22992 292.58594,165.27389 292.58594,160.59859   C 292.58594,154.16506 291.54698,149.17008 289.42911,145.69357   C 287.31124,142.25703 284.71385,139.8994 281.6769,138.74056   C 279.47911,137.9014 275.96265,137.46185 271.12751,137.46185   L 258.14056,137.46185   z "
     style="fill:#000000;fill-rule:evenodd;fill-opacity:1;stroke:none;" />
</svg>
