<?xml version="1.0" encoding="UTF-8" standalone="no"?>
<svg
   xmlns:dc="http://purl.org/dc/elements/1.1/"
   xmlns:cc="http://creativecommons.org/ns#"
   xmlns:rdf="http://www.w3.org/1999/02/22-rdf-syntax-ns#"
   xmlns:svg="http://www.w3.org/2000/svg"
   xmlns="http://www.w3.org/2000/svg"
   id="svg19"
   height="130.27mm"
   width="130.27mm"
   version="1.0">
  <metadata
     id="metadata23">
    <rdf:RDF>
      <cc:Work
         rdf:about="">
        <dc:format>image/svg+xml</dc:format>
        <dc:type
           rdf:resource="http://purl.org/dc/dcmitype/StillImage" />
      </cc:Work>
    </rdf:RDF>
  </metadata>
  <defs
     id="defs3">
    <pattern
       y="0"
       x="0"
       height="6"
       width="6"
       patternUnits="userSpaceOnUse"
       id="EMFhbasepattern" />
  </defs>
  <path
     id="path5"
     d="  M 164.63454,327.67068   C 164.63454,437.95983 327.67068,437.95983 327.67068,327.67068   C 437.95983,327.67068 437.95983,164.63454 327.67068,164.63454   C 327.67068,54.345381 164.63454,54.345381 164.63454,164.63454   C 54.345381,164.63454 54.345381,327.67068 164.63454,327.67068   z "
     style="fill:#ffff80;fill-rule:evenodd;fill-opacity:1;stroke:none;" />
  <path
     id="path7"
     d="  M 164.63454,327.67068   C 164.63454,437.95983 327.67068,437.95983 327.67068,327.67068   C 437.95983,327.67068 437.95983,164.63454 327.67068,164.63454   C 327.67068,54.345381 164.63454,54.345381 164.63454,164.63454   C 54.345381,164.63454 54.345381,327.67068 164.63454,327.67068  "
     style="fill:none;stroke:#000000;stroke-width:9.5903616px;stroke-linecap:butt;stroke-linejoin:miter;stroke-miterlimit:10;stroke-dasharray:none;stroke-opacity:1;" />
  <path
     id="path9"
     d="  M 217.38152,303.69477   L 217.38152,177.10201   C 217.38152,153.1261 274.92369,153.1261 274.92369,177.10201   L 274.92369,303.69477  "
     style="fill:none;stroke:#000000;stroke-width:9.5903616px;stroke-linecap:butt;stroke-linejoin:miter;stroke-miterlimit:10;stroke-dasharray:none;stroke-opacity:1;" />
  <path
     id="path11"
     d="  M 294.10441,158.88032   C 327.67068,158.88032 327.67068,222.1767 294.10441,222.1767   L 198.2008,222.1767   C 164.63454,222.1767 164.63454,158.88032 198.2008,158.88032   z "
     style="fill:none;stroke:#000000;stroke-width:9.5903616px;stroke-linecap:butt;stroke-linejoin:miter;stroke-miterlimit:10;stroke-dasharray:none;stroke-opacity:1;" />
  <path
     id="path13"
     d="  M 261.7769,192.7263   L 267.21144,194.08494   C 266.09257,198.56044 264.01465,201.99699 261.05763,204.31466   C 258.1006,206.67229 254.46425,207.87108 250.18855,207.87108   C 245.75301,207.87108 242.11666,206.95201 239.35943,205.15381   C 236.56225,203.35562 234.44437,200.71827 233.00582,197.28172   C 231.52731,193.88514 230.80803,190.16887 230.80803,186.25281   C 230.80803,181.97711 231.64719,178.22088 233.28554,175.02409   C 234.92389,171.82731 237.24156,169.38976 240.27851,167.7514   C 243.31546,166.07309 246.63212,165.27389 250.26847,165.27389   C 254.38433,165.27389 257.86084,166.31285 260.65803,168.39076   C 263.45522,170.50863 265.41325,173.46566 266.53212,177.26184   L 261.17751,178.54056   C 260.21847,175.54357 258.81988,173.34578 256.98172,171.98715   C 255.18353,170.62851 252.90582,169.90923 250.14859,169.90923   C 246.99176,169.90923 244.35441,170.66847 242.19658,172.18695   C 240.07871,173.70542 238.6002,175.74337 237.72108,178.3008   C 236.88192,180.85823 236.44237,183.49558 236.44237,186.21285   C 236.44237,189.72931 236.96184,192.76626 237.96084,195.40361   C 238.9998,198.001 240.55823,199.95903 242.71606,201.23775   C 244.87389,202.55642 247.23152,203.19578 249.70903,203.19578   C 252.78594,203.19578 255.34337,202.31666 257.46124,200.55843   C 259.57911,198.8002 261.01767,196.16285 261.7769,192.7263   z "
     style="fill:#000000;fill-rule:evenodd;fill-opacity:1;stroke:none;" />
  <path
     id="path15"
     d="  M 110.92851,309.44899   C 150.24899,226.97188 342.05622,226.97188 381.3767,309.44899   z "
     style="fill:#ffff80;fill-rule:evenodd;fill-opacity:1;stroke:none;" />
  <path
     id="path17"
     d="  M 110.92851,309.44899   C 150.24899,226.97188 342.05622,226.97188 381.3767,309.44899  "
     style="fill:none;stroke:#000000;stroke-width:9.5903616px;stroke-linecap:butt;stroke-linejoin:miter;stroke-miterlimit:10;stroke-dasharray:none;stroke-opacity:1;" />
</svg>
