<?xml version="1.0" encoding="UTF-8" standalone="no"?>
<svg
   xmlns:dc="http://purl.org/dc/elements/1.1/"
   xmlns:cc="http://creativecommons.org/ns#"
   xmlns:rdf="http://www.w3.org/1999/02/22-rdf-syntax-ns#"
   xmlns:svg="http://www.w3.org/2000/svg"
   xmlns="http://www.w3.org/2000/svg"
   id="svg15"
   height="112.9mm"
   width="112.9mm"
   version="1.0">
  <metadata
     id="metadata19">
    <rdf:RDF>
      <cc:Work
         rdf:about="">
        <dc:format>image/svg+xml</dc:format>
        <dc:type
           rdf:resource="http://purl.org/dc/dcmitype/StillImage" />
      </cc:Work>
    </rdf:RDF>
  </metadata>
  <defs
     id="defs3">
    <pattern
       y="0"
       x="0"
       height="6"
       width="6"
       patternUnits="userSpaceOnUse"
       id="EMFhbasepattern" />
  </defs>
  <path
     id="path5"
     d="  M 1055.3824,1055.5085   L 1203.488,1055.5085   L 1203.488,1246.2484   L 1055.3824,1246.2484   z "
     style="fill:none;stroke:#ffff00;stroke-width:5.3245535px;stroke-linecap:butt;stroke-linejoin:miter;stroke-miterlimit:282;stroke-dasharray:none;stroke-opacity:1;" />
  <path
     id="path7"
     d="  M 1055.3824,1248.4386   L 1129.9639,1348.5855   L 1204.5832,1248.4386  "
     style="fill:none;stroke:#ffff00;stroke-width:5.3245535px;stroke-linecap:butt;stroke-linejoin:miter;stroke-miterlimit:282;stroke-dasharray:none;stroke-opacity:1;" />
  <path
     id="path9"
     d="  M 1101.4908,1103.4295   L 1107.5706,1104.94   C 1106.2866,1109.9247 1103.9831,1113.701 1100.6977,1116.3444   C 1097.4124,1118.95 1093.3718,1120.2339 1088.6136,1120.2339   C 1083.6667,1120.2339 1079.6639,1119.2521 1076.5673,1117.2507   C 1073.4708,1115.2115 1071.1295,1112.3038 1069.5057,1108.4897   C 1067.8819,1104.7134 1067.0888,1100.5973 1067.0888,1096.2546   C 1067.0888,1091.4587 1067.9952,1087.3048 1069.8078,1083.7551   C 1071.6581,1080.2054 1074.226,1077.5242 1077.5869,1075.6739   C 1080.9478,1073.8235 1084.6485,1072.9172 1088.6892,1072.9172   C 1093.2585,1072.9172 1097.1103,1074.0878 1100.2446,1076.3913   C 1103.3789,1078.7326 1105.5314,1082.018 1106.7775,1086.2474   L 1100.811,1087.6447   C 1099.7537,1084.3215 1098.2054,1081.9047 1096.204,1080.3564   C 1094.1648,1078.8459 1091.6347,1078.0907 1088.5759,1078.0907   C 1085.0639,1078.0907 1082.1184,1078.9215 1079.7394,1080.6208   C 1077.3981,1082.3201 1075.7365,1084.5859 1074.7547,1087.4181   C 1073.8106,1090.2503 1073.3197,1093.1958 1073.3197,1096.2168   C 1073.3197,1100.1064 1073.8862,1103.505 1075.019,1106.4128   C 1076.1519,1109.3205 1077.9268,1111.473 1080.3436,1112.908   C 1082.7226,1114.3429 1085.3283,1115.0604 1088.085,1115.0604   C 1091.4836,1115.0604 1094.3536,1114.0786 1096.7326,1112.1149   C 1099.0739,1110.189 1100.66,1107.2813 1101.4908,1103.4295   z "
     style="fill:#ffff00;fill-rule:nonzero;fill-opacity:1;stroke:#ffff00;stroke-width:1.0573581px;stroke-linecap:butt;stroke-linejoin:miter;stroke-miterlimit:282;stroke-dasharray:none;stroke-opacity:1;" />
  <path
     id="path11"
     d="  M 1114.7833,1119.4787   L 1114.7833,1073.7102   L 1120.8631,1073.7102   L 1120.8631,1096.4056   L 1143.5963,1073.7102   L 1151.7908,1073.7102   L 1132.6073,1092.2517   L 1152.6216,1119.4787   L 1144.6536,1119.4787   L 1128.3401,1096.2923   L 1120.8631,1103.6183   L 1120.8631,1119.4787   z "
     style="fill:#ffff00;fill-rule:nonzero;fill-opacity:1;stroke:#ffff00;stroke-width:1.0573581px;stroke-linecap:butt;stroke-linejoin:miter;stroke-miterlimit:282;stroke-dasharray:none;stroke-opacity:1;" />
  <path
     id="path13"
     d="  M 1157.7573,1119.4787   L 1157.7573,1073.7102   L 1175.0149,1073.7102   C 1178.0737,1073.7102 1180.3772,1073.8235 1182.001,1074.1256   C 1184.229,1074.5032 1186.1172,1075.2207 1187.6277,1076.2781   C 1189.1759,1077.3354 1190.3844,1078.8082 1191.3284,1080.6963   C 1192.2347,1082.5844 1192.6879,1084.6614 1192.6879,1086.9272   C 1192.6879,1090.8167 1191.4795,1094.1021 1188.9871,1096.821   C 1186.4948,1099.5022 1182.0388,1100.8616 1175.5436,1100.8616   L 1163.8371,1100.8616   L 1163.8371,1119.4787   z  M 1163.8371,1095.4616   L 1175.6569,1095.4616   C 1179.5464,1095.4616 1182.3409,1094.7441 1184.0024,1093.2713   C 1185.6262,1091.7986 1186.457,1089.7594 1186.457,1087.116   C 1186.457,1085.1901 1185.9661,1083.5663 1184.9843,1082.2068   C 1184.0402,1080.8474 1182.7563,1079.941 1181.1702,1079.4879   C 1180.1506,1079.2236 1178.2625,1079.1103 1175.5436,1079.1103   L 1163.8371,1079.1103   z "
     style="fill:#ffff00;fill-rule:nonzero;fill-opacity:1;stroke:#ffff00;stroke-width:1.0573581px;stroke-linecap:butt;stroke-linejoin:miter;stroke-miterlimit:282;stroke-dasharray:none;stroke-opacity:1;" />
</svg>
