<?xml version="1.0" encoding="UTF-8" standalone="no"?>
<svg
   xmlns:dc="http://purl.org/dc/elements/1.1/"
   xmlns:cc="http://creativecommons.org/ns#"
   xmlns:rdf="http://www.w3.org/1999/02/22-rdf-syntax-ns#"
   xmlns:svg="http://www.w3.org/2000/svg"
   xmlns="http://www.w3.org/2000/svg"
   id="svg15"
   height="112.9mm"
   width="112.9mm"
   version="1.0">
  <metadata
     id="metadata19">
    <rdf:RDF>
      <cc:Work
         rdf:about="">
        <dc:format>image/svg+xml</dc:format>
        <dc:type
           rdf:resource="http://purl.org/dc/dcmitype/StillImage" />
      </cc:Work>
    </rdf:RDF>
  </metadata>
  <defs
     id="defs3">
    <pattern
       y="0"
       x="0"
       height="6"
       width="6"
       patternUnits="userSpaceOnUse"
       id="EMFhbasepattern" />
  </defs>
  <path
     id="path5"
     d="  M 1055.3824,1055.5085   L 1203.488,1055.5085   L 1203.488,1246.2484   L 1055.3824,1246.2484   z "
     style="fill:none;stroke:#ff0000;stroke-width:5.3245535px;stroke-linecap:butt;stroke-linejoin:miter;stroke-miterlimit:282;stroke-dasharray:none;stroke-opacity:1;" />
  <path
     id="path7"
     d="  M 1055.3824,1248.4386   L 1129.9639,1348.5855   L 1204.5832,1248.4386  "
     style="fill:none;stroke:#ff0000;stroke-width:5.3245535px;stroke-linecap:butt;stroke-linejoin:miter;stroke-miterlimit:282;stroke-dasharray:none;stroke-opacity:1;" />
  <path
     id="path9"
     d="  M 1101.5663,1103.4295   L 1107.6461,1104.94   C 1106.3622,1109.9247 1104.0964,1113.701 1100.7733,1116.3444   C 1097.4879,1118.95 1093.4473,1120.2339 1088.6892,1120.2339   C 1083.7422,1120.2339 1079.7394,1119.2521 1076.6428,1117.2507   C 1073.5463,1115.2115 1071.205,1112.3038 1069.5812,1108.4897   C 1067.9952,1104.7134 1067.1644,1100.5973 1067.1644,1096.2546   C 1067.1644,1091.4587 1068.0707,1087.3048 1069.9211,1083.7551   C 1071.7337,1080.2054 1074.3015,1077.5242 1077.7002,1075.6739   C 1081.0611,1073.8235 1084.7618,1072.9172 1088.7647,1072.9172   C 1093.3718,1072.9172 1097.2236,1074.0878 1100.3201,1076.3913   C 1103.4544,1078.7326 1105.6447,1082.018 1106.8531,1086.2474   L 1100.8865,1087.6447   C 1099.8292,1084.3215 1098.2809,1081.9047 1096.2795,1080.3564   C 1094.2403,1078.8459 1091.7102,1078.0907 1088.6514,1078.0907   C 1085.1395,1078.0907 1082.194,1078.9215 1079.8527,1080.6208   C 1077.4736,1082.3201 1075.8121,1084.5859 1074.868,1087.4181   C 1073.8862,1090.2503 1073.433,1093.1958 1073.433,1096.2168   C 1073.433,1100.1064 1073.9994,1103.505 1075.1323,1106.4128   C 1076.2652,1109.3205 1078.0023,1111.473 1080.4191,1112.908   C 1082.7982,1114.3429 1085.4038,1115.0604 1088.1982,1115.0604   C 1091.5969,1115.0604 1094.4669,1114.0786 1096.8082,1112.1149   C 1099.1495,1110.189 1100.7355,1107.2813 1101.5663,1103.4295   z "
     style="fill:#ff0000;fill-rule:nonzero;fill-opacity:1;stroke:#ff0000;stroke-width:1.0573581px;stroke-linecap:butt;stroke-linejoin:miter;stroke-miterlimit:282;stroke-dasharray:none;stroke-opacity:1;" />
  <path
     id="path11"
     d="  M 1114.8965,1119.4787   L 1114.8965,1073.7102   L 1120.9386,1073.7102   L 1120.9386,1096.4056   L 1143.6718,1073.7102   L 1151.8663,1073.7102   L 1132.6828,1092.2517   L 1152.7349,1119.4787   L 1144.7291,1119.4787   L 1128.4534,1096.2923   L 1120.9386,1103.6183   L 1120.9386,1119.4787   z "
     style="fill:#ff0000;fill-rule:nonzero;fill-opacity:1;stroke:#ff0000;stroke-width:1.0573581px;stroke-linecap:butt;stroke-linejoin:miter;stroke-miterlimit:282;stroke-dasharray:none;stroke-opacity:1;" />
  <path
     id="path13"
     d="  M 1157.8328,1119.4787   L 1157.8328,1073.7102   L 1175.1282,1073.7102   C 1178.1492,1073.7102 1180.4905,1073.8235 1182.0765,1074.1256   C 1184.3423,1074.5032 1186.1927,1075.2207 1187.741,1076.2781   C 1189.2515,1077.3354 1190.4599,1078.8082 1191.404,1080.6963   C 1192.3103,1082.5844 1192.8012,1084.6614 1192.8012,1086.9272   C 1192.8012,1090.8167 1191.555,1094.1021 1189.0627,1096.821   C 1186.6081,1099.5022 1182.1143,1100.8616 1175.6569,1100.8616   L 1163.9126,1100.8616   L 1163.9126,1119.4787   z  M 1163.9126,1095.4616   L 1175.7324,1095.4616   C 1179.6597,1095.4616 1182.4164,1094.7441 1184.078,1093.2713   C 1185.7018,1091.7986 1186.5326,1089.7594 1186.5326,1087.116   C 1186.5326,1085.1901 1186.0416,1083.5663 1185.0976,1082.2068   C 1184.1157,1080.8474 1182.8318,1079.941 1181.2835,1079.4879   C 1180.2262,1079.2236 1178.3758,1079.1103 1175.6191,1079.1103   L 1163.9126,1079.1103   z "
     style="fill:#ff0000;fill-rule:nonzero;fill-opacity:1;stroke:#ff0000;stroke-width:1.0573581px;stroke-linecap:butt;stroke-linejoin:miter;stroke-miterlimit:282;stroke-dasharray:none;stroke-opacity:1;" />
</svg>
