<?xml version="1.0" encoding="UTF-8" standalone="no"?>
<svg
   xmlns:dc="http://purl.org/dc/elements/1.1/"
   xmlns:cc="http://creativecommons.org/ns#"
   xmlns:rdf="http://www.w3.org/1999/02/22-rdf-syntax-ns#"
   xmlns:svg="http://www.w3.org/2000/svg"
   xmlns="http://www.w3.org/2000/svg"
   id="svg51"
   height="130.27mm"
   width="130.27mm"
   version="1.0">
  <metadata
     id="metadata55">
    <rdf:RDF>
      <cc:Work
         rdf:about="">
        <dc:format>image/svg+xml</dc:format>
        <dc:type
           rdf:resource="http://purl.org/dc/dcmitype/StillImage" />
      </cc:Work>
    </rdf:RDF>
  </metadata>
  <defs
     id="defs3">
    <pattern
       y="0"
       x="0"
       height="6"
       width="6"
       patternUnits="userSpaceOnUse"
       id="EMFhbasepattern" />
  </defs>
  <path
     id="path5"
     d="  M 198.2008,63.935742   L 198.2008,111.88755   L 294.10441,111.88755   L 294.10441,63.935742   L 198.2008,63.935742   z "
     style="fill:#000000;fill-rule:evenodd;fill-opacity:1;stroke:none;" />
  <path
     id="path7"
     d="  M 164.63454,327.67068   C 164.63454,437.95983 327.67068,437.95983 327.67068,327.67068   C 437.95983,327.67068 437.95983,164.63454 327.67068,164.63454   C 327.67068,54.345381 164.63454,54.345381 164.63454,164.63454   C 54.345381,164.63454 54.345381,327.67068 164.63454,327.67068   z "
     style="fill:#ffff80;fill-rule:evenodd;fill-opacity:1;stroke:none;" />
  <path
     id="path9"
     d="  M 164.63454,327.67068   C 164.63454,437.95983 327.67068,437.95983 327.67068,327.67068   C 437.95983,327.67068 437.95983,164.63454 327.67068,164.63454   C 327.67068,54.345381 164.63454,54.345381 164.63454,164.63454   C 54.345381,164.63454 54.345381,327.67068 164.63454,327.67068  "
     style="fill:none;stroke:#000000;stroke-width:9.5903616px;stroke-linecap:butt;stroke-linejoin:miter;stroke-miterlimit:10;stroke-dasharray:none;stroke-opacity:1;" />
  <path
     id="path11"
     d="  M 231.76706,217.22168   C 231.76706,215.66325 233.64518,213.38554 234.84397,213.38554   L 258.14056,213.38554   C 259.25943,213.38554 261.21747,216.82209 261.21747,217.58132   L 261.21747,219.13976   C 261.21747,221.25763 258.14056,220.81807 258.14056,222.5763   L 258.14056,234.80401   C 258.14056,235.96285 281.83674,267.77088 281.83674,270.32831   L 281.83674,278.36024   C 281.83674,285.67289 265.65301,292.10642 257.38132,292.10642   L 235.60321,292.10642   C 230.68815,292.10642 223.61526,290.38815 220.61827,288.3502   C 218.46044,286.91164 211.14779,281.51706 211.14779,278.71988   L 211.14779,275.28333   C 211.14779,269.44919 219.73915,258.42028 222.41646,253.70502   C 224.05482,250.86787 234.44437,234.52429 234.44437,232.88594   L 234.44437,222.5763   C 234.44437,220.77811 231.76706,221.13775 231.76706,217.22168   z  M 257.38132,207.67128   L 174.46466,207.67128   L 174.46466,296.3022   L 318.51987,296.3022   L 318.51987,207.67128   L 302.45602,207.67128   L 302.45602,175.58353   L 291.74678,175.58353   L 291.74678,207.67128   L 268.09056,207.67128   L 268.09056,175.58353   L 257.38132,175.58353   z "
     style="fill:#ffffff;fill-rule:evenodd;fill-opacity:1;stroke:none;" />
  <path
     id="path13"
     d="  M 257.38132,175.58353   L 268.09056,175.58353   L 268.09056,207.67128   L 291.74678,207.67128   L 291.74678,175.58353   L 302.45602,175.58353   L 302.45602,207.67128   L 318.51987,207.67128   L 318.51987,296.3022   L 174.46466,296.3022   L 174.46466,207.67128   L 257.38132,207.67128   L 257.38132,175.58353  z    M 171.78735,299.33915   L 321.19718,299.33915   L 321.19718,204.59437   L 305.89257,204.59437   L 305.89257,172.50662   L 288.70984,172.50662   L 288.70984,204.59437   L 271.5271,204.59437   L 271.5271,172.50662   L 254.30441,172.50662   L 254.30441,204.59437   L 171.78735,204.59437   L 171.78735,299.33915  z   "
     style="fill:#000000;fill-rule:evenodd;fill-opacity:1;stroke:none;" />
  <path
     id="path15"
     d="  M 179.97911,208.7502   L 179.97911,295.06345   L 315.20321,295.06345   L 315.20321,208.7502   L 179.97911,208.7502   z "
     style="fill:#ffffff;fill-rule:evenodd;fill-opacity:1;stroke:none;" />
  <path
     id="path17"
     d="  M 179.97911,208.7502   L 315.20321,208.7502   L 315.20321,295.06345   L 179.97911,295.06345   z "
     style="fill:none;stroke:#ffffff;stroke-width:0.95903611px;stroke-linecap:butt;stroke-linejoin:miter;stroke-miterlimit:10;stroke-dasharray:none;stroke-opacity:1;" />
  <path
     id="path19"
     d="  M 233.68514,215.86305   L 234.44437,218.54036   L 257.74096,218.54036   C 258.66004,218.54036 259.29939,217.901 259.29939,217.02188   C 259.29939,215.22369 258.38032,214.34458 256.62208,214.34458   L 236.36245,214.34458   C 234.80401,214.34458 234.32449,214.94397 233.68514,215.86305   z "
     style="fill:#ffffff;fill-rule:evenodd;fill-opacity:1;stroke:none;" />
  <path
     id="path21"
     d="  M 256.62208,289.22931   L 234.84397,289.22931   C 230.44839,289.22931 224.61425,287.91064 221.89698,286.11245   C 220.01887,284.87369 213.46546,278.67992 213.06586,278.52008   L 213.06586,275.48313   C 213.06586,269.36927 221.01787,257.98072 223.9749,253.54518   C 225.17369,251.74698 236.76204,233.20562 236.76204,233.08574   L 236.76204,221.21767   L 256.22249,221.21767   L 256.22249,234.20462   C 256.22249,236.72208 279.91867,266.09257 279.91867,270.52811   L 279.91867,276.24237   C 279.91867,283.43514 264.25441,289.22931 256.62208,289.22931   z  M 256.62208,214.34458   C 258.38032,214.34458 259.29939,215.22369 259.29939,217.02188   C 259.29939,217.901 258.66004,218.54036 257.74096,218.54036   L 234.44437,218.54036   L 233.68514,215.86305   C 234.32449,214.94397 234.80401,214.34458 236.36245,214.34458   z  M 257.38132,291.14739   C 265.65301,291.14739 281.83674,284.71385 281.83674,277.4012   L 281.83674,269.36927   C 281.83674,266.81184 258.14056,235.00381 258.14056,233.84498   L 258.14056,221.61727   C 258.14056,219.85903 261.21747,220.29859 261.21747,218.18072   L 261.21747,216.62229   C 261.21747,215.82309 259.25943,212.4265 258.14056,212.4265   L 234.84397,212.4265   C 233.64518,212.4265 231.76706,214.70421 231.76706,216.26265   C 231.76706,220.17871 234.44437,219.81907 234.44437,221.61727   L 234.44437,231.9269   C 234.44437,233.56526 224.05482,249.90883 222.41646,252.74598   C 219.73915,257.46124 211.14779,268.49016 211.14779,274.32429   L 211.14779,277.76084   C 211.14779,280.55803 218.46044,285.95261 220.61827,287.39116   C 223.61526,289.42911 230.68815,291.14739 235.60321,291.14739   z "
     style="fill:#000000;fill-rule:evenodd;fill-opacity:1;stroke:none;" />
  <path
     id="path23"
     d="  M 221.85702,268.96967   L 221.85702,273.56506   C 221.85702,281.91666 236.32249,283.87469 245.51325,283.87469   L 253.18554,283.87469   C 259.13955,283.87469 272.28634,278.67992 272.28634,273.96465   L 272.28634,272.04658   C 272.28634,264.49417 256.42229,249.58915 254.70401,242.23654   L 236.76204,242.23654   C 235.36345,248.19056 221.85702,266.09257 221.85702,268.96967   z "
     style="fill:#000000;fill-rule:evenodd;fill-opacity:1;stroke:none;" />
  <path
     id="path25"
     d="  M 221.85702,268.96967   C 221.85702,266.09257 235.36345,248.19056 236.76204,242.23654   L 254.70401,242.23654   C 256.42229,249.58915 272.28634,264.49417 272.28634,272.04658   L 272.28634,273.96465   C 272.28634,278.67992 259.13955,283.87469 253.18554,283.87469   L 245.51325,283.87469   C 236.32249,283.87469 221.85702,281.91666 221.85702,273.56506   z  M 256.62208,289.22931   C 264.25441,289.22931 279.91867,283.43514 279.91867,276.24237   L 279.91867,270.52811   C 279.91867,266.09257 256.22249,236.72208 256.22249,234.20462   L 256.22249,221.21767   L 236.76204,221.21767   L 236.76204,233.08574   C 236.76204,233.20562 225.17369,251.74698 223.9749,253.54518   C 221.01787,257.98072 213.06586,269.36927 213.06586,275.48313   L 213.06586,278.52008   C 213.46546,278.67992 220.01887,284.87369 221.89698,286.11245   C 224.61425,287.91064 230.44839,289.22931 234.84397,289.22931   z "
     style="fill:#ffffff;fill-rule:evenodd;fill-opacity:1;stroke:none;" />
  <path
     id="path27"
     d="  M 236.28253,220.61827   C 236.28253,220.61827 235.72309,226.852 236.28253,230.40843  "
     style="fill:none;stroke:#000000;stroke-width:4.7951808px;stroke-linecap:butt;stroke-linejoin:miter;stroke-miterlimit:10;stroke-dasharray:none;stroke-opacity:1;" />
  <path
     id="path29"
     d="  M 236.08273,228.92992   C 236.08273,244.51425 211.62731,258.06064 211.62731,276.32229  "
     style="fill:none;stroke:#000000;stroke-width:4.7951808px;stroke-linecap:butt;stroke-linejoin:miter;stroke-miterlimit:10;stroke-dasharray:none;stroke-opacity:1;" />
  <path
     id="path31"
     d="  M 257.06164,220.21867   C 257.06164,220.21867 256.82188,226.93192 256.702,230.20863  "
     style="fill:none;stroke:#000000;stroke-width:4.7951808px;stroke-linecap:butt;stroke-linejoin:miter;stroke-miterlimit:10;stroke-dasharray:none;stroke-opacity:1;" />
  <path
     id="path33"
     d="  M 256.702,229.00984   C 260.33835,250.26847 281.35722,257.06164 280.39819,276.48212  "
     style="fill:none;stroke:#000000;stroke-width:4.7951808px;stroke-linecap:butt;stroke-linejoin:miter;stroke-miterlimit:10;stroke-dasharray:none;stroke-opacity:1;" />
  <path
     id="path35"
     d="  M 235.84297,213.46546   C 229.64919,213.26566 231.56727,220.53835 237.12168,219.77911  "
     style="fill:none;stroke:#000000;stroke-width:3.8361444px;stroke-linecap:butt;stroke-linejoin:miter;stroke-miterlimit:10;stroke-dasharray:none;stroke-opacity:1;" />
  <path
     id="path37"
     d="  M 255.46325,219.85903   C 262.49618,218.26064 262.41626,213.70522 255.22349,213.46546  "
     style="fill:none;stroke:#000000;stroke-width:3.8361444px;stroke-linecap:butt;stroke-linejoin:miter;stroke-miterlimit:10;stroke-dasharray:none;stroke-opacity:1;" />
  <path
     id="path39"
     d="  M 234.1247,213.46546   C 234.1247,213.46546 251.18755,213.54538 256.82188,213.46546  "
     style="fill:none;stroke:#000000;stroke-width:3.8361444px;stroke-linecap:butt;stroke-linejoin:miter;stroke-miterlimit:10;stroke-dasharray:none;stroke-opacity:1;" />
  <path
     id="path41"
     d="  M 235.00381,219.65923   C 235.00381,219.65923 251.14759,219.65923 256.50221,219.65923  "
     style="fill:none;stroke:#000000;stroke-width:3.8361444px;stroke-linecap:butt;stroke-linejoin:miter;stroke-miterlimit:10;stroke-dasharray:none;stroke-opacity:1;" />
  <path
     id="path43"
     d="  M 232.84598,290.42811   C 232.84598,290.42811 252.34638,290.42811 258.85984,290.42811  "
     style="fill:none;stroke:#000000;stroke-width:4.7951808px;stroke-linecap:butt;stroke-linejoin:miter;stroke-miterlimit:10;stroke-dasharray:none;stroke-opacity:1;" />
  <path
     id="path45"
     d="  M 255.66305,290.62791   C 267.93072,289.18935 279.67891,290.22831 280.15843,275.28333  "
     style="fill:none;stroke:#000000;stroke-width:4.7951808px;stroke-linecap:butt;stroke-linejoin:miter;stroke-miterlimit:10;stroke-dasharray:none;stroke-opacity:1;" />
  <path
     id="path47"
     d="  M 234.32449,290.46807   C 224.97389,291.26726 211.58735,285.75281 211.58735,275.00361  "
     style="fill:none;stroke:#000000;stroke-width:4.7951808px;stroke-linecap:butt;stroke-linejoin:miter;stroke-miterlimit:10;stroke-dasharray:none;stroke-opacity:1;" />
  <path
     id="path49"
     d="  M 232.7261,216.22269   L 233.20562,218.22068  "
     style="fill:none;stroke:#000000;stroke-width:0.95903611px;stroke-linecap:butt;stroke-linejoin:miter;stroke-miterlimit:10;stroke-dasharray:none;stroke-opacity:1;" />
</svg>
