<?xml version="1.0" encoding="UTF-8" standalone="no"?>
<svg
   xmlns:dc="http://purl.org/dc/elements/1.1/"
   xmlns:cc="http://creativecommons.org/ns#"
   xmlns:rdf="http://www.w3.org/1999/02/22-rdf-syntax-ns#"
   xmlns:svg="http://www.w3.org/2000/svg"
   xmlns="http://www.w3.org/2000/svg"
   id="svg25"
   height="130.27mm"
   width="130.27mm"
   version="1.0">
  <metadata
     id="metadata29">
    <rdf:RDF>
      <cc:Work
         rdf:about="">
        <dc:format>image/svg+xml</dc:format>
        <dc:type
           rdf:resource="http://purl.org/dc/dcmitype/StillImage" />
      </cc:Work>
    </rdf:RDF>
  </metadata>
  <defs
     id="defs3">
    <pattern
       y="0"
       x="0"
       height="6"
       width="6"
       patternUnits="userSpaceOnUse"
       id="EMFhbasepattern" />
  </defs>
  <path
     id="path5"
     d="  M 198.2008,63.935742   L 198.2008,111.88755   L 294.10441,111.88755   L 294.10441,63.935742   L 198.2008,63.935742   z "
     style="fill:#000000;fill-rule:evenodd;fill-opacity:1;stroke:none;" />
  <path
     id="path7"
     d="  M 164.63454,327.67068   C 164.63454,437.95983 327.67068,437.95983 327.67068,327.67068   C 437.95983,327.67068 437.95983,164.63454 327.67068,164.63454   C 327.67068,54.345381 164.63454,54.345381 164.63454,164.63454   C 54.345381,164.63454 54.345381,327.67068 164.63454,327.67068   z "
     style="fill:#ffff80;fill-rule:evenodd;fill-opacity:1;stroke:none;" />
  <path
     id="path9"
     d="  M 164.63454,327.67068   C 164.63454,437.95983 327.67068,437.95983 327.67068,327.67068   C 437.95983,327.67068 437.95983,164.63454 327.67068,164.63454   C 327.67068,54.345381 164.63454,54.345381 164.63454,164.63454   C 54.345381,164.63454 54.345381,327.67068 164.63454,327.67068  "
     style="fill:none;stroke:#000000;stroke-width:9.5903616px;stroke-linecap:butt;stroke-linejoin:miter;stroke-miterlimit:10;stroke-dasharray:none;stroke-opacity:1;" />
  <path
     id="path11"
     d="  M 203.79518,184.77429   C 203.79518,192.88614 197.2018,199.47952 189.08996,199.47952   C 181.01807,199.47952 174.4247,192.88614 174.4247,184.77429   C 174.4247,176.70241 181.01807,170.10903 189.08996,170.10903   C 197.2018,170.10903 203.79518,176.70241 203.79518,184.77429   z "
     style="fill:#000000;fill-rule:evenodd;fill-opacity:1;stroke:none;" />
  <path
     id="path13"
     d="  M 203.79518,184.77429   C 203.79518,192.88614 197.2018,199.47952 189.08996,199.47952   C 181.01807,199.47952 174.4247,192.88614 174.4247,184.77429   C 174.4247,176.70241 181.01807,170.10903 189.08996,170.10903   C 197.2018,170.10903 203.79518,176.70241 203.79518,184.77429  "
     style="fill:none;stroke:#000000;stroke-width:8.1518068px;stroke-linecap:butt;stroke-linejoin:miter;stroke-miterlimit:10;stroke-dasharray:none;stroke-opacity:1;" />
  <path
     id="path15"
     d="  M 317.92048,184.77429   C 317.92048,192.88614 311.3271,199.47952 303.21526,199.47952   C 295.14337,199.47952 288.55,192.88614 288.55,184.77429   C 288.55,176.70241 295.14337,170.10903 303.21526,170.10903   C 311.3271,170.10903 317.92048,176.70241 317.92048,184.77429   z "
     style="fill:#000000;fill-rule:evenodd;fill-opacity:1;stroke:none;" />
  <path
     id="path17"
     d="  M 317.92048,184.77429   C 317.92048,192.88614 311.3271,199.47952 303.21526,199.47952   C 295.14337,199.47952 288.55,192.88614 288.55,184.77429   C 288.55,176.70241 295.14337,170.10903 303.21526,170.10903   C 311.3271,170.10903 317.92048,176.70241 317.92048,184.77429  "
     style="fill:none;stroke:#000000;stroke-width:8.1518068px;stroke-linecap:butt;stroke-linejoin:miter;stroke-miterlimit:10;stroke-dasharray:none;stroke-opacity:1;" />
  <path
     id="path19"
     d="  M 197.24176,172.54658   C 246.15261,201.07791 254.30441,217.38152 274.68393,290.74779  "
     style="fill:none;stroke:#000000;stroke-width:8.1518068px;stroke-linecap:butt;stroke-linejoin:miter;stroke-miterlimit:10;stroke-dasharray:none;stroke-opacity:1;" />
  <path
     id="path21"
     d="  M 295.06345,172.54658   C 246.15261,201.07791 238.0008,217.38152 217.62128,290.74779  "
     style="fill:none;stroke:#000000;stroke-width:8.1518068px;stroke-linecap:butt;stroke-linejoin:miter;stroke-miterlimit:10;stroke-dasharray:none;stroke-opacity:1;" />
  <path
     id="path23"
     d="  M 231.76706,340.05823   L 231.76706,288.55   L 251.10763,288.55   C 255.02369,288.58996 258.18052,289.10943 260.57811,290.14839   C 262.93574,291.18735 264.81385,292.78574 266.13253,294.94357   C 267.49116,297.1014 268.17048,299.37911 268.17048,301.73674   C 268.17048,303.93453 267.57108,306.01245 266.37229,307.97048   C 265.17349,309.88855 263.3753,311.48694 260.97771,312.64578   C 264.09457,313.56485 266.49216,315.12329 268.13052,317.32108   C 269.80883,319.51887 270.64799,322.11626 270.64799,325.11325   C 270.64799,327.5508 270.16847,329.78855 269.12951,331.86646   C 268.13052,333.94437 266.8518,335.54277 265.37329,336.66164   C 263.85482,337.78052 261.9767,338.61967 259.69899,339.17911   C 257.46124,339.77851 254.70401,340.05823 251.42731,340.05823   z  M 238.6002,310.20823   L 249.70903,310.20823   C 252.74598,310.20823 254.90381,310.00843 256.22249,309.60883   C 257.94076,309.08935 259.25943,308.2502 260.13855,307.0514   C 261.01767,305.85261 261.45723,304.33413 261.45723,302.53594   C 261.45723,300.85763 261.05763,299.33915 260.21847,298.02048   C 259.41927,296.74176 258.22048,295.86265 256.702,295.38313   C 255.18353,294.90361 252.58614,294.66385 248.86988,294.66385   L 238.6002,294.66385   z  M 238.6002,333.98433   L 251.42731,333.98433   C 253.6251,333.98433 255.14357,333.90441 256.06265,333.74457   C 257.62108,333.46485 258.93976,332.98534 259.97871,332.34598   C 261.01767,331.66666 261.89678,330.70763 262.5761,329.46887   C 263.25542,328.23012 263.61506,326.79156 263.61506,325.11325   C 263.61506,323.19518 263.09558,321.55682 262.13654,320.11827   C 261.13755,318.71967 259.77891,317.72068 258.02068,317.16124   C 256.30241,316.56184 253.78494,316.28212 250.50823,316.28212   L 238.6002,316.28212   z "
     style="fill:#000000;fill-rule:evenodd;fill-opacity:1;stroke:none;" />
</svg>
