<?xml version="1.0" encoding="UTF-8" standalone="no"?>
<svg
   xmlns:dc="http://purl.org/dc/elements/1.1/"
   xmlns:cc="http://creativecommons.org/ns#"
   xmlns:rdf="http://www.w3.org/1999/02/22-rdf-syntax-ns#"
   xmlns:svg="http://www.w3.org/2000/svg"
   xmlns="http://www.w3.org/2000/svg"
   id="svg25"
   height="116.73mm"
   width="116.73mm"
   version="1.0">
  <metadata
     id="metadata29">
    <rdf:RDF>
      <cc:Work
         rdf:about="">
        <dc:format>image/svg+xml</dc:format>
        <dc:type
           rdf:resource="http://purl.org/dc/dcmitype/StillImage" />
      </cc:Work>
    </rdf:RDF>
  </metadata>
  <defs
     id="defs3">
    <pattern
       y="0"
       x="0"
       height="6"
       width="6"
       patternUnits="userSpaceOnUse"
       id="EMFhbasepattern" />
  </defs>
  <path
     id="path5"
     d="  M 172.6265,43.156626   L 172.6265,100.69879   L 268.53012,100.69879   L 268.53012,43.156626   L 172.6265,43.156626   z "
     style="fill:#000000;fill-rule:evenodd;fill-opacity:1;stroke:none;" />
  <path
     id="path7"
     d="  M 220.57831,386.49156   L 220.57831,386.49156   L 386.49156,220.57831   L 220.57831,54.665059   L 54.665059,220.57831   L 220.57831,386.49156   z "
     style="fill:#ff8080;fill-rule:evenodd;fill-opacity:1;stroke:none;" />
  <path
     id="path9"
     d="  M 220.57831,386.49156   L 220.57831,386.49156   L 386.49156,220.57831   L 220.57831,54.665059   L 54.665059,220.57831   L 220.57831,386.49156  "
     style="fill:none;stroke:#000000;stroke-width:9.5903616px;stroke-linecap:butt;stroke-linejoin:miter;stroke-miterlimit:10;stroke-dasharray:none;stroke-opacity:1;" />
  <path
     id="path11"
     d="  M 178.22088,159.2   C 178.22088,167.31184 171.62751,173.90522 163.51566,173.90522   C 155.44377,173.90522 148.8504,167.31184 148.8504,159.2   C 148.8504,151.12811 155.44377,144.53474 163.51566,144.53474   C 171.62751,144.53474 178.22088,151.12811 178.22088,159.2   z "
     style="fill:#000000;fill-rule:evenodd;fill-opacity:1;stroke:none;" />
  <path
     id="path13"
     d="  M 178.22088,159.2   C 178.22088,167.31184 171.62751,173.90522 163.51566,173.90522   C 155.44377,173.90522 148.8504,167.31184 148.8504,159.2   C 148.8504,151.12811 155.44377,144.53474 163.51566,144.53474   C 171.62751,144.53474 178.22088,151.12811 178.22088,159.2  "
     style="fill:none;stroke:#000000;stroke-width:8.1518068px;stroke-linecap:butt;stroke-linejoin:miter;stroke-miterlimit:10;stroke-dasharray:none;stroke-opacity:1;" />
  <path
     id="path15"
     d="  M 292.34618,159.2   C 292.34618,167.31184 285.75281,173.90522 277.64096,173.90522   C 269.56907,173.90522 262.9757,167.31184 262.9757,159.2   C 262.9757,151.12811 269.56907,144.53474 277.64096,144.53474   C 285.75281,144.53474 292.34618,151.12811 292.34618,159.2   z "
     style="fill:#000000;fill-rule:evenodd;fill-opacity:1;stroke:none;" />
  <path
     id="path17"
     d="  M 292.34618,159.2   C 292.34618,167.31184 285.75281,173.90522 277.64096,173.90522   C 269.56907,173.90522 262.9757,167.31184 262.9757,159.2   C 262.9757,151.12811 269.56907,144.53474 277.64096,144.53474   C 285.75281,144.53474 292.34618,151.12811 292.34618,159.2  "
     style="fill:none;stroke:#000000;stroke-width:8.1518068px;stroke-linecap:butt;stroke-linejoin:miter;stroke-miterlimit:10;stroke-dasharray:none;stroke-opacity:1;" />
  <path
     id="path19"
     d="  M 171.66747,146.97229   C 220.57831,175.50361 228.73012,191.80723 249.10963,265.17349  "
     style="fill:none;stroke:#000000;stroke-width:8.1518068px;stroke-linecap:butt;stroke-linejoin:miter;stroke-miterlimit:10;stroke-dasharray:none;stroke-opacity:1;" />
  <path
     id="path21"
     d="  M 269.48915,146.97229   C 220.57831,175.50361 212.4265,191.80723 192.04699,265.17349  "
     style="fill:none;stroke:#000000;stroke-width:8.1518068px;stroke-linecap:butt;stroke-linejoin:miter;stroke-miterlimit:10;stroke-dasharray:none;stroke-opacity:1;" />
  <path
     id="path23"
     d="  M 206.19277,314.48393   L 206.19277,262.9757   L 225.53333,262.9757   C 229.44939,263.01566 232.60622,263.53514 235.00381,264.57409   C 237.36144,265.61305 239.23955,267.21144 240.55823,269.36927   C 241.91686,271.5271 242.59618,273.80482 242.59618,276.16245   C 242.59618,278.36024 241.99678,280.43815 240.79799,282.39618   C 239.59919,284.31425 237.801,285.91265 235.40341,287.07148   C 238.52028,287.99056 240.91787,289.54899 242.55622,291.74678   C 244.23453,293.94457 245.07369,296.54196 245.07369,299.53895   C 245.07369,301.9765 244.59417,304.21425 243.55522,306.29216   C 242.55622,308.37008 241.27751,309.96847 239.79899,311.08734   C 238.28052,312.20622 236.40241,313.04538 234.1247,313.60481   C 231.88694,314.20421 229.12972,314.48393 225.85301,314.48393   z  M 213.0259,284.63393   L 224.13474,284.63393   C 227.17168,284.63393 229.32951,284.43413 230.64819,284.03453   C 232.36646,283.51506 233.68514,282.6759 234.56425,281.4771   C 235.44337,280.27831 235.88293,278.75984 235.88293,276.96164   C 235.88293,275.28333 235.48333,273.76486 234.64417,272.44618   C 233.84498,271.16747 232.64618,270.28835 231.12771,269.80883   C 229.60923,269.32931 227.01184,269.08955 223.29558,269.08955   L 213.0259,269.08955   z  M 213.0259,308.41004   L 225.85301,308.41004   C 228.0508,308.41004 229.56927,308.33012 230.48835,308.17028   C 232.04678,307.89056 233.36546,307.41104 234.40441,306.77168   C 235.44337,306.09237 236.32249,305.13333 237.0018,303.89457   C 237.68112,302.65582 238.04076,301.21726 238.04076,299.53895   C 238.04076,297.62088 237.52128,295.98253 236.56225,294.54397   C 235.56325,293.14538 234.20462,292.14638 232.44638,291.58694   C 230.72811,290.98755 228.21064,290.70783 224.93393,290.70783   L 213.0259,290.70783   z "
     style="fill:#000000;fill-rule:evenodd;fill-opacity:1;stroke:none;" />
</svg>
