<?xml version="1.0" encoding="UTF-8" standalone="no"?>
<svg
   xmlns:dc="http://purl.org/dc/elements/1.1/"
   xmlns:cc="http://creativecommons.org/ns#"
   xmlns:rdf="http://www.w3.org/1999/02/22-rdf-syntax-ns#"
   xmlns:svg="http://www.w3.org/2000/svg"
   xmlns="http://www.w3.org/2000/svg"
   id="svg25"
   height="89.669998mm"
   width="120.11mm"
   version="1.0">
  <metadata
     id="metadata29">
    <rdf:RDF>
      <cc:Work
         rdf:about="">
        <dc:format>image/svg+xml</dc:format>
        <dc:type
           rdf:resource="http://purl.org/dc/dcmitype/StillImage" />
      </cc:Work>
    </rdf:RDF>
  </metadata>
  <defs
     id="defs3">
    <pattern
       y="0"
       x="0"
       height="6"
       width="6"
       patternUnits="userSpaceOnUse"
       id="EMFhbasepattern" />
  </defs>
  <path
     id="path5"
     d="  M 179.02008,15.983936   L 179.02008,54.345381   L 274.92369,54.345381   L 274.92369,15.983936   L 179.02008,15.983936   z "
     style="fill:#000000;fill-rule:evenodd;fill-opacity:1;stroke:none;" />
  <path
     id="path7"
     d="  M 54.345381,54.345381   L 54.345381,284.51405   L 399.59839,284.51405   L 399.59839,54.345381   L 54.345381,54.345381   z "
     style="fill:#80e0ff;fill-rule:evenodd;fill-opacity:1;stroke:none;" />
  <path
     id="path9"
     d="  M 54.345381,54.345381   L 399.59839,54.345381   L 399.59839,284.51405   L 54.345381,284.51405   z "
     style="fill:none;stroke:#000000;stroke-width:9.5903616px;stroke-linecap:butt;stroke-linejoin:miter;stroke-miterlimit:10;stroke-dasharray:none;stroke-opacity:1;" />
  <path
     id="path11"
     d="  M 184.61446,108.0514   C 184.61446,116.16325 178.02108,122.75662 169.90923,122.75662   C 161.83735,122.75662 155.24397,116.16325 155.24397,108.0514   C 155.24397,99.979517 161.83735,93.386143 169.90923,93.386143   C 178.02108,93.386143 184.61446,99.979517 184.61446,108.0514   z "
     style="fill:#000000;fill-rule:evenodd;fill-opacity:1;stroke:none;" />
  <path
     id="path13"
     d="  M 184.61446,108.0514   C 184.61446,116.16325 178.02108,122.75662 169.90923,122.75662   C 161.83735,122.75662 155.24397,116.16325 155.24397,108.0514   C 155.24397,99.979517 161.83735,93.386143 169.90923,93.386143   C 178.02108,93.386143 184.61446,99.979517 184.61446,108.0514  "
     style="fill:none;stroke:#000000;stroke-width:8.1518068px;stroke-linecap:butt;stroke-linejoin:miter;stroke-miterlimit:10;stroke-dasharray:none;stroke-opacity:1;" />
  <path
     id="path15"
     d="  M 298.73975,108.0514   C 298.73975,116.16325 292.14638,122.75662 284.03453,122.75662   C 275.96265,122.75662 269.36927,116.16325 269.36927,108.0514   C 269.36927,99.979517 275.96265,93.386143 284.03453,93.386143   C 292.14638,93.386143 298.73975,99.979517 298.73975,108.0514   z "
     style="fill:#000000;fill-rule:evenodd;fill-opacity:1;stroke:none;" />
  <path
     id="path17"
     d="  M 298.73975,108.0514   C 298.73975,116.16325 292.14638,122.75662 284.03453,122.75662   C 275.96265,122.75662 269.36927,116.16325 269.36927,108.0514   C 269.36927,99.979517 275.96265,93.386143 284.03453,93.386143   C 292.14638,93.386143 298.73975,99.979517 298.73975,108.0514  "
     style="fill:none;stroke:#000000;stroke-width:8.1518068px;stroke-linecap:butt;stroke-linejoin:miter;stroke-miterlimit:10;stroke-dasharray:none;stroke-opacity:1;" />
  <path
     id="path19"
     d="  M 178.06104,95.823693   C 226.97188,124.35502 235.12369,140.65863 255.50321,214.0249  "
     style="fill:none;stroke:#000000;stroke-width:8.1518068px;stroke-linecap:butt;stroke-linejoin:miter;stroke-miterlimit:10;stroke-dasharray:none;stroke-opacity:1;" />
  <path
     id="path21"
     d="  M 275.88273,95.823693   C 226.97188,124.35502 218.82008,140.65863 198.44056,214.0249  "
     style="fill:none;stroke:#000000;stroke-width:8.1518068px;stroke-linecap:butt;stroke-linejoin:miter;stroke-miterlimit:10;stroke-dasharray:none;stroke-opacity:1;" />
  <path
     id="path23"
     d="  M 212.58634,263.33534   L 212.58634,211.82711   L 231.9269,211.82711   C 235.84297,211.86707 238.9998,212.38654 241.39739,213.4255   C 243.75502,214.46445 245.63313,216.06285 246.9518,218.22068   C 248.31044,220.37851 248.98976,222.65622 248.98976,225.01385   C 248.98976,227.21164 248.39036,229.28955 247.19156,231.24759   C 245.99277,233.16566 244.19457,234.76405 241.79698,235.92289   C 244.91385,236.84196 247.31144,238.4004 248.9498,240.59819   C 250.62811,242.79598 251.46727,245.39337 251.46727,248.39036   C 251.46727,250.82791 250.98775,253.06566 249.94879,255.14357   C 248.9498,257.22148 247.67108,258.81988 246.19257,259.93875   C 244.67409,261.05763 242.79598,261.89678 240.51827,262.45622   C 238.28052,263.05562 235.52329,263.33534 232.24658,263.33534   z  M 219.41947,233.48534   L 230.52831,233.48534   C 233.56526,233.48534 235.72309,233.28554 237.04176,232.88594   C 238.76004,232.36646 240.07871,231.52731 240.95783,230.32851   C 241.83694,229.12972 242.2765,227.61124 242.2765,225.81305   C 242.2765,224.13474 241.8769,222.61626 241.03775,221.29759   C 240.23855,220.01887 239.03976,219.13976 237.52128,218.66024   C 236.00281,218.18072 233.40542,217.94096 229.68915,217.94096   L 219.41947,217.94096   z  M 219.41947,257.26144   L 232.24658,257.26144   C 234.44437,257.26144 235.96285,257.18152 236.88192,257.02168   C 238.44036,256.74196 239.75903,256.26245 240.79799,255.62309   C 241.83694,254.94377 242.71606,253.98474 243.39538,252.74598   C 244.0747,251.50723 244.43433,250.06867 244.43433,248.39036   C 244.43433,246.47229 243.91486,244.83393 242.95582,243.39538   C 241.95682,241.99678 240.59819,240.99779 238.83996,240.43835   C 237.12168,239.83895 234.60421,239.55923 231.32751,239.55923   L 219.41947,239.55923   z "
     style="fill:#000000;fill-rule:evenodd;fill-opacity:1;stroke:none;" />
</svg>
