<?xml version="1.0" encoding="UTF-8" standalone="no"?>
<svg
   xmlns:dc="http://purl.org/dc/elements/1.1/"
   xmlns:cc="http://creativecommons.org/ns#"
   xmlns:rdf="http://www.w3.org/1999/02/22-rdf-syntax-ns#"
   xmlns:svg="http://www.w3.org/2000/svg"
   xmlns="http://www.w3.org/2000/svg"
   id="svg25"
   height="95.75mm"
   width="95.75mm"
   version="1.0">
  <metadata
     id="metadata29">
    <rdf:RDF>
      <cc:Work
         rdf:about="">
        <dc:format>image/svg+xml</dc:format>
        <dc:type
           rdf:resource="http://purl.org/dc/dcmitype/StillImage" />
      </cc:Work>
    </rdf:RDF>
  </metadata>
  <defs
     id="defs3">
    <pattern
       y="0"
       x="0"
       height="6"
       width="6"
       patternUnits="userSpaceOnUse"
       id="EMFhbasepattern" />
  </defs>
  <path
     id="path5"
     d="  M 132.98634,15.983936   L 132.98634,54.345381   L 228.88996,54.345381   L 228.88996,15.983936   L 132.98634,15.983936   z "
     style="fill:#000000;fill-rule:evenodd;fill-opacity:1;stroke:none;" />
  <path
     id="path7"
     d="  M 54.345381,54.345381   L 54.345381,307.53092   L 307.53092,307.53092   L 307.53092,54.345381   L 54.345381,54.345381   z "
     style="fill:#aaffaa;fill-rule:evenodd;fill-opacity:1;stroke:none;" />
  <path
     id="path9"
     d="  M 54.345381,54.345381   L 307.53092,54.345381   L 307.53092,307.53092   L 54.345381,307.53092   z "
     style="fill:none;stroke:#000000;stroke-width:9.5903616px;stroke-linecap:butt;stroke-linejoin:miter;stroke-miterlimit:10;stroke-dasharray:none;stroke-opacity:1;" />
  <path
     id="path11"
     d="  M 138.58072,119.55984   C 138.58072,127.67168 131.98735,134.26506 123.8755,134.26506   C 115.80361,134.26506 109.21024,127.67168 109.21024,119.55984   C 109.21024,111.48795 115.80361,104.89458 123.8755,104.89458   C 131.98735,104.89458 138.58072,111.48795 138.58072,119.55984   z "
     style="fill:#000000;fill-rule:evenodd;fill-opacity:1;stroke:none;" />
  <path
     id="path13"
     d="  M 138.58072,119.55984   C 138.58072,127.67168 131.98735,134.26506 123.8755,134.26506   C 115.80361,134.26506 109.21024,127.67168 109.21024,119.55984   C 109.21024,111.48795 115.80361,104.89458 123.8755,104.89458   C 131.98735,104.89458 138.58072,111.48795 138.58072,119.55984  "
     style="fill:none;stroke:#000000;stroke-width:8.1518068px;stroke-linecap:butt;stroke-linejoin:miter;stroke-miterlimit:10;stroke-dasharray:none;stroke-opacity:1;" />
  <path
     id="path15"
     d="  M 252.70602,119.55984   C 252.70602,127.67168 246.11265,134.26506 238.0008,134.26506   C 229.92891,134.26506 223.33554,127.67168 223.33554,119.55984   C 223.33554,111.48795 229.92891,104.89458 238.0008,104.89458   C 246.11265,104.89458 252.70602,111.48795 252.70602,119.55984   z "
     style="fill:#000000;fill-rule:evenodd;fill-opacity:1;stroke:none;" />
  <path
     id="path17"
     d="  M 252.70602,119.55984   C 252.70602,127.67168 246.11265,134.26506 238.0008,134.26506   C 229.92891,134.26506 223.33554,127.67168 223.33554,119.55984   C 223.33554,111.48795 229.92891,104.89458 238.0008,104.89458   C 246.11265,104.89458 252.70602,111.48795 252.70602,119.55984  "
     style="fill:none;stroke:#000000;stroke-width:8.1518068px;stroke-linecap:butt;stroke-linejoin:miter;stroke-miterlimit:10;stroke-dasharray:none;stroke-opacity:1;" />
  <path
     id="path19"
     d="  M 132.02731,107.33213   C 180.93815,135.86345 189.08996,152.16707 209.46947,225.53333  "
     style="fill:none;stroke:#000000;stroke-width:8.1518068px;stroke-linecap:butt;stroke-linejoin:miter;stroke-miterlimit:10;stroke-dasharray:none;stroke-opacity:1;" />
  <path
     id="path21"
     d="  M 229.84899,107.33213   C 180.93815,135.86345 172.78634,152.16707 152.40683,225.53333  "
     style="fill:none;stroke:#000000;stroke-width:8.1518068px;stroke-linecap:butt;stroke-linejoin:miter;stroke-miterlimit:10;stroke-dasharray:none;stroke-opacity:1;" />
  <path
     id="path23"
     d="  M 166.55261,274.84377   L 166.55261,223.33554   L 185.89317,223.33554   C 189.80923,223.3755 192.96606,223.89498 195.36365,224.93393   C 197.72128,225.97289 199.59939,227.57128 200.91807,229.72911   C 202.2767,231.88694 202.95602,234.16466 202.95602,236.52229   C 202.95602,238.72008 202.35662,240.79799 201.15783,242.75602   C 199.95903,244.67409 198.16084,246.27249 195.76325,247.43132   C 198.88012,248.3504 201.27771,249.90883 202.91606,252.10662   C 204.59437,254.30441 205.43353,256.9018 205.43353,259.89879   C 205.43353,262.33634 204.95401,264.57409 203.91506,266.652   C 202.91606,268.72992 201.63735,270.32831 200.15883,271.44718   C 198.64036,272.56606 196.76225,273.40522 194.48454,273.96465   C 192.24678,274.56405 189.48956,274.84377 186.21285,274.84377   z  M 173.38574,244.99377   L 184.49458,244.99377   C 187.53152,244.99377 189.68935,244.79397 191.00803,244.39437   C 192.7263,243.8749 194.04498,243.03574 194.92409,241.83694   C 195.80321,240.63815 196.24277,239.11968 196.24277,237.32148   C 196.24277,235.64317 195.84317,234.1247 195.00401,232.80602   C 194.20482,231.52731 193.00602,230.64819 191.48755,230.16867   C 189.96907,229.68915 187.37168,229.44939 183.65542,229.44939   L 173.38574,229.44939   z  M 173.38574,268.76988   L 186.21285,268.76988   C 188.41064,268.76988 189.92911,268.68996 190.84819,268.53012   C 192.40662,268.2504 193.7253,267.77088 194.76425,267.13152   C 195.80321,266.4522 196.68233,265.49317 197.36164,264.25441   C 198.04096,263.01566 198.4006,261.5771 198.4006,259.89879   C 198.4006,257.98072 197.88112,256.34237 196.92209,254.90381   C 195.92309,253.50522 194.56446,252.50622 192.80622,251.94678   C 191.08795,251.34739 188.57048,251.06767 185.29377,251.06767   L 173.38574,251.06767   z "
     style="fill:#000000;fill-rule:evenodd;fill-opacity:1;stroke:none;" />
</svg>
