<?xml version="1.0" encoding="UTF-8" standalone="no"?>
<svg
   xmlns:dc="http://purl.org/dc/elements/1.1/"
   xmlns:cc="http://creativecommons.org/ns#"
   xmlns:rdf="http://www.w3.org/1999/02/22-rdf-syntax-ns#"
   xmlns:svg="http://www.w3.org/2000/svg"
   xmlns="http://www.w3.org/2000/svg"
   id="svg19"
   height="112.9mm"
   width="112.9mm"
   version="1.0">
  <metadata
     id="metadata23">
    <rdf:RDF>
      <cc:Work
         rdf:about="">
        <dc:format>image/svg+xml</dc:format>
        <dc:type
           rdf:resource="http://purl.org/dc/dcmitype/StillImage" />
      </cc:Work>
    </rdf:RDF>
  </metadata>
  <defs
     id="defs3">
    <pattern
       y="0"
       x="0"
       height="6"
       width="6"
       patternUnits="userSpaceOnUse"
       id="EMFhbasepattern" />
  </defs>
  <path
     id="path5"
     d="  M 240.85056,215.70793   C 240.85056,239.2376 221.77755,258.34837 198.21012,258.34837   C 174.68044,258.34837 155.60744,239.2376 155.60744,215.70793   C 155.60744,192.17826 174.68044,173.06748 198.21012,173.06748   C 221.77755,173.06748 240.85056,192.17826 240.85056,215.70793   z "
     style="fill:#ffff80;fill-rule:nonzero;fill-opacity:1;stroke:#e1dc00;stroke-width:5.2875667px;stroke-linecap:butt;stroke-linejoin:miter;stroke-miterlimit:28;stroke-dasharray:none;stroke-opacity:1;" />
  <path
     id="path7"
     d="  M 205.4994,217.82295   L 208.70971,218.65386   C 208.02988,221.29764 206.82129,223.29936 205.04618,224.69679   C 203.30884,226.09422 201.15604,226.81182 198.62557,226.81182   C 195.98178,226.81182 193.82899,226.24529 192.20495,225.18778   C 190.54314,224.13026 189.29679,222.58176 188.42812,220.54227   C 187.55945,218.50278 187.14399,216.31222 187.14399,213.97058   C 187.14399,211.44011 187.63498,209.21177 188.57919,207.32336   C 189.56117,205.43494 190.9586,203.99974 192.73371,203.01777   C 194.54659,202.03579 196.51054,201.5448 198.66334,201.5448   C 201.11828,201.5448 203.15777,202.18686 204.81957,203.39545   C 206.48138,204.64181 207.6522,206.41692 208.29426,208.64525   L 205.12172,209.40062   C 204.55519,207.6255 203.72429,206.34138 202.66678,205.51048   C 201.5715,204.71734 200.21184,204.30189 198.5878,204.30189   C 196.69938,204.30189 195.15088,204.75511 193.90453,205.66155   C 192.6204,206.56799 191.75173,207.77658 191.22297,209.28731   C 190.73199,210.79804 190.46761,212.34655 190.46761,213.97058   C 190.46761,216.04784 190.76975,217.86072 191.37405,219.40922   C 191.97834,220.95772 192.92255,222.12854 194.20667,222.88391   C 195.4908,223.63928 196.85046,224.01696 198.36119,224.01696   C 200.1363,224.01696 201.6848,223.52597 202.93116,222.46846   C 204.17751,221.41094 205.04618,219.86244 205.4994,217.82295   L 205.4994,217.82295   z "
     style="fill:#e1dc00;fill-rule:nonzero;fill-opacity:1;stroke:#e1dc00;stroke-width:1.0575134px;stroke-linecap:butt;stroke-linejoin:miter;stroke-miterlimit:28;stroke-dasharray:none;stroke-opacity:1;" />
  <path
     id="path9"
     d="  M 38.336764,161.3593   L 123.61766,161.3593   L 123.61766,195.4641   L 38.336764,195.4641   L 38.336764,161.3593   z "
     style="fill:#ffffff;fill-rule:nonzero;fill-opacity:1;stroke:#ffffff;stroke-width:1.0575134px;stroke-linecap:butt;stroke-linejoin:miter;stroke-miterlimit:28;stroke-dasharray:none;stroke-opacity:1;" />
  <path
     id="path11"
     d="  M 63.037253,182.62287   L 66.663013,183.56708   C 65.907647,186.55077 64.547987,188.81687 62.546265,190.40314   C 60.582312,191.95165 58.165139,192.74478 55.294745,192.74478   C 52.348815,192.74478 49.931642,192.14049 48.080994,190.9319   C 46.230346,189.72331 44.795149,187.98597 43.850941,185.6821   C 42.868964,183.416 42.377976,180.96106 42.377976,178.31728   C 42.377976,175.48465 42.944501,172.99194 44.039782,170.83915   C 45.135064,168.72412 46.683566,167.10008 48.685287,166.0048   C 50.724777,164.87175 52.91534,164.34299 55.332514,164.34299   C 58.089602,164.34299 60.39347,165.02282 62.281887,166.42025   C 64.170303,167.81768 65.454427,169.78163 66.209793,172.34988   L 62.621802,173.18078   C 61.97974,171.17906 61.0733,169.7061 59.864714,168.79966   C 58.618359,167.89322 57.107625,167.44 55.256977,167.44   C 53.179719,167.44 51.404607,167.96875 49.96941,168.95073   C 48.571982,169.97048 47.552237,171.33014 46.985712,173.02971   C 46.419187,174.72929 46.117041,176.5044 46.117041,178.31728   C 46.117041,180.65891 46.456956,182.6984 47.136786,184.43575   C 47.816616,186.17309 48.874129,187.45721 50.347094,188.32589   C 51.78229,189.19456 53.330792,189.61001 54.992599,189.61001   C 57.032089,189.61001 58.769432,189.04348 60.16686,187.87267   C 61.564289,186.70185 62.546265,184.9645 63.037253,182.62287   L 63.037253,182.62287   z "
     style="fill:#e1dc00;fill-rule:nonzero;fill-opacity:1;stroke:#e1dc00;stroke-width:1.0575134px;stroke-linecap:butt;stroke-linejoin:miter;stroke-miterlimit:28;stroke-dasharray:none;stroke-opacity:1;" />
  <path
     id="path13"
     d="  M 71.04414,192.25379   L 71.04414,164.79621   L 76.520548,164.79621   L 83.016701,184.24691   C 83.620995,186.05979 84.074215,187.41945 84.338593,188.32589   C 84.64074,187.30614 85.131728,185.83318 85.811558,183.90699   L 92.383248,164.79621   L 97.255363,164.79621   L 97.255363,192.25379   L 93.742908,192.25379   L 93.742908,169.29065   L 85.77379,192.25379   L 82.487945,192.25379   L 74.556595,168.87519   L 74.556595,192.25379   L 71.04414,192.25379   z "
     style="fill:#e1dc00;fill-rule:nonzero;fill-opacity:1;stroke:#e1dc00;stroke-width:1.0575134px;stroke-linecap:butt;stroke-linejoin:miter;stroke-miterlimit:28;stroke-dasharray:none;stroke-opacity:1;" />
  <path
     id="path15"
     d="  M 103.03392,192.25379   L 103.03392,164.79621   L 106.65968,164.79621   L 106.65968,189.04348   L 120.18074,189.04348   L 120.18074,192.25379   L 103.03392,192.25379   z "
     style="fill:#e1dc00;fill-rule:nonzero;fill-opacity:1;stroke:#e1dc00;stroke-width:1.0575134px;stroke-linecap:butt;stroke-linejoin:miter;stroke-miterlimit:28;stroke-dasharray:none;stroke-opacity:1;" />
  <path
     id="path17"
     d="  M 182.23411,178.1662   L 182.23411,98.475023   L 214.22389,98.475023   L 214.22389,178.1662   z "
     style="fill:#ffff80;fill-rule:nonzero;fill-opacity:1;stroke:#e1dc00;stroke-width:5.2875667px;stroke-linecap:butt;stroke-linejoin:miter;stroke-miterlimit:28;stroke-dasharray:none;stroke-opacity:1;" />
</svg>
