<?xml version="1.0" encoding="UTF-8" standalone="no"?>
<svg
   xmlns:dc="http://purl.org/dc/elements/1.1/"
   xmlns:cc="http://creativecommons.org/ns#"
   xmlns:rdf="http://www.w3.org/1999/02/22-rdf-syntax-ns#"
   xmlns:svg="http://www.w3.org/2000/svg"
   xmlns="http://www.w3.org/2000/svg"
   id="svg11"
   height="112.9mm"
   width="112.9mm"
   version="1.0">
  <metadata
     id="metadata15">
    <rdf:RDF>
      <cc:Work
         rdf:about="">
        <dc:format>image/svg+xml</dc:format>
        <dc:type
           rdf:resource="http://purl.org/dc/dcmitype/StillImage" />
      </cc:Work>
    </rdf:RDF>
  </metadata>
  <defs
     id="defs3">
    <pattern
       y="0"
       x="0"
       height="6"
       width="6"
       patternUnits="userSpaceOnUse"
       id="EMFhbasepattern" />
  </defs>
  <path
     id="path5"
     d="  M 2960.0427,3191.9855   L 3144.0637,3007.4254   L 2960.0427,2822.8275   L 2776.0593,3007.4254   L 2960.0427,3191.9855   z "
     style="fill:#ff8080;fill-rule:nonzero;fill-opacity:1;stroke:#000000;stroke-width:10.62747px;stroke-linecap:square;stroke-linejoin:miter;stroke-miterlimit:282;stroke-dasharray:none;stroke-opacity:1;" />
  <path
     id="path7"
     d="  M 3055.3884,3040.3151   C 3054.1071,3040.0504 3048.8687,3042.0919 3039.711,3046.4393   C 3033.832,3049.01 3027.0485,3052.9417 3019.3982,3058.3099   C 2991.3221,3076.9851 2971.5369,3102.1627 2960.0804,3133.8427   C 2959.5528,3133.8427 2958.799,3133.2 2957.7815,3131.9146   C 2953.4099,3118.1161 2945.6466,3104.3176 2934.4161,3090.519   C 2922.6581,3075.6998 2909.1288,3063.4134 2893.8283,3053.7355   C 2886.6679,3049.1234 2876.8318,3044.5113 2864.3201,3039.937   C 2864.1316,3039.4078 2864.1316,3039.0297 2864.3201,3038.7651   C 2867.6364,3037.2529 2872.1211,3035.3249 2877.7363,3033.0188   C 2892.2831,3028.1421 2907.7721,3017.0277 2924.2409,2999.6755   C 2940.7097,2982.2856 2951.4879,2965.9542 2956.6132,2950.6057   C 2957.367,2948.5643 2958.5352,2946.485 2960.0427,2944.4436   C 2964.9042,2959.5653 2974.0996,2975.254 2987.6289,2991.6232   C 3001.9119,3009.24 3016.6095,3021.7532 3031.6462,3029.1628   C 3034.9626,3030.7128 3040.3517,3033.1323 3047.7381,3036.459   C 3050.037,3036.7237 3052.562,3038.009 3055.3884,3040.3151   z "
     style="fill:#000000;fill-rule:nonzero;fill-opacity:1;stroke:none;" />
  <path
     id="path9"
     d="  M 2969.4265,2923.4623   L 2977.1898,2925.9195   C 2975.9839,2930.267 2974.0242,2933.4804 2971.2354,2935.5974   C 2968.4844,2937.6766 2964.9795,2938.7352 2960.721,2938.7352   C 2955.4827,2938.7352 2951.1488,2936.9206 2947.757,2933.3292   C 2944.403,2929.7378 2942.7071,2924.7854 2942.7071,2918.5477   C 2942.7071,2911.932 2944.403,2906.8284 2947.7947,2903.1614   C 2951.1864,2899.4944 2955.6711,2897.6798 2961.2109,2897.6798   C 2966.0724,2897.6798 2969.9918,2899.1164 2973.0067,2901.9895   C 2974.8156,2903.6907 2976.1723,2906.1101 2977.0768,2909.2857   L 2969.1627,2911.1759   C 2968.7105,2909.1345 2967.7306,2907.5089 2966.2232,2906.2992   C 2964.7534,2905.1272 2962.9445,2904.5224 2960.8341,2904.5224   C 2957.8946,2904.5224 2955.4827,2905.5809 2953.6737,2907.6979   C 2951.8271,2909.8149 2950.9226,2913.2173 2950.9226,2917.9428   C 2950.9226,2922.9708 2951.8271,2926.5622 2953.636,2928.6792   C 2955.445,2930.8341 2957.7815,2931.8926 2960.6456,2931.8926   C 2962.7938,2931.8926 2964.6027,2931.2121 2966.1478,2929.8512   C 2967.6553,2928.4902 2968.7482,2926.3732 2969.4265,2923.4623   z "
     style="fill:#000000;fill-rule:nonzero;fill-opacity:1;stroke:none;" />
</svg>
