<?xml version="1.0" encoding="UTF-8" standalone="no"?>
<svg
   xmlns:dc="http://purl.org/dc/elements/1.1/"
   xmlns:cc="http://creativecommons.org/ns#"
   xmlns:rdf="http://www.w3.org/1999/02/22-rdf-syntax-ns#"
   xmlns:svg="http://www.w3.org/2000/svg"
   xmlns="http://www.w3.org/2000/svg"
   id="svg51"
   height="89.669998mm"
   width="120.11mm"
   version="1.0">
  <metadata
     id="metadata55">
    <rdf:RDF>
      <cc:Work
         rdf:about="">
        <dc:format>image/svg+xml</dc:format>
        <dc:type
           rdf:resource="http://purl.org/dc/dcmitype/StillImage" />
      </cc:Work>
    </rdf:RDF>
  </metadata>
  <defs
     id="defs3">
    <pattern
       y="0"
       x="0"
       height="6"
       width="6"
       patternUnits="userSpaceOnUse"
       id="EMFhbasepattern" />
  </defs>
  <path
     id="path5"
     d="  M 179.02008,15.983936   L 179.02008,54.345381   L 274.92369,54.345381   L 274.92369,15.983936   L 179.02008,15.983936   z "
     style="fill:#000000;fill-rule:evenodd;fill-opacity:1;stroke:none;" />
  <path
     id="path7"
     d="  M 54.345381,54.345381   L 54.345381,284.51405   L 399.59839,284.51405   L 399.59839,54.345381   L 54.345381,54.345381   z "
     style="fill:#80e0ff;fill-rule:evenodd;fill-opacity:1;stroke:none;" />
  <path
     id="path9"
     d="  M 54.345381,54.345381   L 399.59839,54.345381   L 399.59839,284.51405   L 54.345381,284.51405   z "
     style="fill:none;stroke:#000000;stroke-width:9.5903616px;stroke-linecap:butt;stroke-linejoin:miter;stroke-miterlimit:10;stroke-dasharray:none;stroke-opacity:1;" />
  <path
     id="path11"
     d="  M 212.58634,140.49879   C 212.58634,138.94036 214.46445,136.66265 215.66325,136.66265   L 238.95984,136.66265   C 240.07871,136.66265 242.03674,140.09919 242.03674,140.85843   L 242.03674,142.41687   C 242.03674,144.53474 238.95984,144.09518 238.95984,145.85341   L 238.95984,158.08112   C 238.95984,159.23996 262.65602,191.04799 262.65602,193.60542   L 262.65602,201.63735   C 262.65602,208.95 246.47229,215.38353 238.2006,215.38353   L 216.42249,215.38353   C 211.50743,215.38353 204.43454,213.66526 201.43755,211.62731   C 199.27972,210.18875 191.96707,204.79417 191.96707,201.99699   L 191.96707,198.56044   C 191.96707,192.7263 200.55843,181.69739 203.23574,176.98213   C 204.87409,174.14498 215.26365,157.8014 215.26365,156.16305   L 215.26365,145.85341   C 215.26365,144.05522 212.58634,144.41486 212.58634,140.49879   z  M 238.2006,130.94839   L 155.28393,130.94839   L 155.28393,219.57931   L 299.33915,219.57931   L 299.33915,130.94839   L 283.2753,130.94839   L 283.2753,98.860641   L 272.56606,98.860641   L 272.56606,130.94839   L 248.90984,130.94839   L 248.90984,98.860641   L 238.2006,98.860641   z "
     style="fill:#ffffff;fill-rule:evenodd;fill-opacity:1;stroke:none;" />
  <path
     id="path13"
     d="  M 238.2006,98.860641   L 248.90984,98.860641   L 248.90984,130.94839   L 272.56606,130.94839   L 272.56606,98.860641   L 283.2753,98.860641   L 283.2753,130.94839   L 299.33915,130.94839   L 299.33915,219.57931   L 155.28393,219.57931   L 155.28393,130.94839   L 238.2006,130.94839   L 238.2006,98.860641  z    M 152.60662,222.61626   L 302.01646,222.61626   L 302.01646,127.87148   L 286.71184,127.87148   L 286.71184,95.783734   L 269.52911,95.783734   L 269.52911,127.87148   L 252.34638,127.87148   L 252.34638,95.783734   L 235.12369,95.783734   L 235.12369,127.87148   L 152.60662,127.87148   L 152.60662,222.61626  z   "
     style="fill:#000000;fill-rule:evenodd;fill-opacity:1;stroke:none;" />
  <path
     id="path15"
     d="  M 160.79839,132.02731   L 160.79839,218.34056   L 296.02249,218.34056   L 296.02249,132.02731   L 160.79839,132.02731   z "
     style="fill:#ffffff;fill-rule:evenodd;fill-opacity:1;stroke:none;" />
  <path
     id="path17"
     d="  M 160.79839,132.02731   L 296.02249,132.02731   L 296.02249,218.34056   L 160.79839,218.34056   z "
     style="fill:none;stroke:#ffffff;stroke-width:0.95903611px;stroke-linecap:butt;stroke-linejoin:miter;stroke-miterlimit:10;stroke-dasharray:none;stroke-opacity:1;" />
  <path
     id="path19"
     d="  M 214.50441,139.14016   L 215.26365,141.81747   L 238.56024,141.81747   C 239.47931,141.81747 240.11867,141.17811 240.11867,140.29899   C 240.11867,138.5008 239.19959,137.62168 237.44136,137.62168   L 217.18172,137.62168   C 215.62329,137.62168 215.14377,138.22108 214.50441,139.14016   z "
     style="fill:#ffffff;fill-rule:evenodd;fill-opacity:1;stroke:none;" />
  <path
     id="path21"
     d="  M 237.44136,212.50642   L 215.66325,212.50642   C 211.26767,212.50642 205.43353,211.18775 202.71626,209.38956   C 200.83815,208.1508 194.28474,201.95703 193.88514,201.79719   L 193.88514,198.76024   C 193.88514,192.64638 201.83715,181.25783 204.79417,176.82229   C 205.99297,175.02409 217.58132,156.48273 217.58132,156.36285   L 217.58132,144.49478   L 237.04176,144.49478   L 237.04176,157.48172   C 237.04176,159.99919 260.73795,189.36968 260.73795,193.80522   L 260.73795,199.51948   C 260.73795,206.71225 245.07369,212.50642 237.44136,212.50642   z  M 237.44136,137.62168   C 239.19959,137.62168 240.11867,138.5008 240.11867,140.29899   C 240.11867,141.17811 239.47931,141.81747 238.56024,141.81747   L 215.26365,141.81747   L 214.50441,139.14016   C 215.14377,138.22108 215.62329,137.62168 217.18172,137.62168   z  M 238.2006,214.42449   C 246.47229,214.42449 262.65602,207.99096 262.65602,200.67831   L 262.65602,192.64638   C 262.65602,190.08895 238.95984,158.28092 238.95984,157.12209   L 238.95984,144.89438   C 238.95984,143.13614 242.03674,143.5757 242.03674,141.45783   L 242.03674,139.8994   C 242.03674,139.1002 240.07871,135.70361 238.95984,135.70361   L 215.66325,135.70361   C 214.46445,135.70361 212.58634,137.98132 212.58634,139.53976   C 212.58634,143.45582 215.26365,143.09618 215.26365,144.89438   L 215.26365,155.20401   C 215.26365,156.84237 204.87409,173.18594 203.23574,176.02309   C 200.55843,180.73835 191.96707,191.76727 191.96707,197.6014   L 191.96707,201.03795   C 191.96707,203.83514 199.27972,209.22972 201.43755,210.66827   C 204.43454,212.70622 211.50743,214.42449 216.42249,214.42449   z "
     style="fill:#000000;fill-rule:evenodd;fill-opacity:1;stroke:none;" />
  <path
     id="path23"
     d="  M 202.6763,192.24678   L 202.6763,196.84217   C 202.6763,205.19377 217.14176,207.1518 226.33253,207.1518   L 234.00482,207.1518   C 239.95883,207.1518 253.10562,201.95703 253.10562,197.24176   L 253.10562,195.32369   C 253.10562,187.77128 237.24156,172.86626 235.52329,165.51365   L 217.58132,165.51365   C 216.18273,171.46767 202.6763,189.36968 202.6763,192.24678   z "
     style="fill:#000000;fill-rule:evenodd;fill-opacity:1;stroke:none;" />
  <path
     id="path25"
     d="  M 202.6763,192.24678   C 202.6763,189.36968 216.18273,171.46767 217.58132,165.51365   L 235.52329,165.51365   C 237.24156,172.86626 253.10562,187.77128 253.10562,195.32369   L 253.10562,197.24176   C 253.10562,201.95703 239.95883,207.1518 234.00482,207.1518   L 226.33253,207.1518   C 217.14176,207.1518 202.6763,205.19377 202.6763,196.84217   z  M 237.44136,212.50642   C 245.07369,212.50642 260.73795,206.71225 260.73795,199.51948   L 260.73795,193.80522   C 260.73795,189.36968 237.04176,159.99919 237.04176,157.48172   L 237.04176,144.49478   L 217.58132,144.49478   L 217.58132,156.36285   C 217.58132,156.48273 205.99297,175.02409 204.79417,176.82229   C 201.83715,181.25783 193.88514,192.64638 193.88514,198.76024   L 193.88514,201.79719   C 194.28474,201.95703 200.83815,208.1508 202.71626,209.38956   C 205.43353,211.18775 211.26767,212.50642 215.66325,212.50642   z "
     style="fill:#ffffff;fill-rule:evenodd;fill-opacity:1;stroke:none;" />
  <path
     id="path27"
     d="  M 217.1018,143.89538   C 217.1018,143.89538 216.54237,150.12911 217.1018,153.68554  "
     style="fill:none;stroke:#000000;stroke-width:4.7951808px;stroke-linecap:butt;stroke-linejoin:miter;stroke-miterlimit:10;stroke-dasharray:none;stroke-opacity:1;" />
  <path
     id="path29"
     d="  M 216.902,152.20703   C 216.902,167.79136 192.44658,181.33775 192.44658,199.59939  "
     style="fill:none;stroke:#000000;stroke-width:4.7951808px;stroke-linecap:butt;stroke-linejoin:miter;stroke-miterlimit:10;stroke-dasharray:none;stroke-opacity:1;" />
  <path
     id="path31"
     d="  M 237.88092,143.49578   C 237.88092,143.49578 237.64116,150.20903 237.52128,153.48574  "
     style="fill:none;stroke:#000000;stroke-width:4.7951808px;stroke-linecap:butt;stroke-linejoin:miter;stroke-miterlimit:10;stroke-dasharray:none;stroke-opacity:1;" />
  <path
     id="path33"
     d="  M 237.52128,152.28695   C 241.15763,173.54558 262.1765,180.33875 261.21747,199.75923  "
     style="fill:none;stroke:#000000;stroke-width:4.7951808px;stroke-linecap:butt;stroke-linejoin:miter;stroke-miterlimit:10;stroke-dasharray:none;stroke-opacity:1;" />
  <path
     id="path35"
     d="  M 216.66225,136.74257   C 210.46847,136.54277 212.38654,143.81546 217.94096,143.05622  "
     style="fill:none;stroke:#000000;stroke-width:3.8361444px;stroke-linecap:butt;stroke-linejoin:miter;stroke-miterlimit:10;stroke-dasharray:none;stroke-opacity:1;" />
  <path
     id="path37"
     d="  M 236.28253,143.13614   C 243.31546,141.53775 243.23554,136.98233 236.04277,136.74257  "
     style="fill:none;stroke:#000000;stroke-width:3.8361444px;stroke-linecap:butt;stroke-linejoin:miter;stroke-miterlimit:10;stroke-dasharray:none;stroke-opacity:1;" />
  <path
     id="path39"
     d="  M 214.94397,136.74257   C 214.94397,136.74257 232.00682,136.82249 237.64116,136.74257  "
     style="fill:none;stroke:#000000;stroke-width:3.8361444px;stroke-linecap:butt;stroke-linejoin:miter;stroke-miterlimit:10;stroke-dasharray:none;stroke-opacity:1;" />
  <path
     id="path41"
     d="  M 215.82309,142.93634   C 215.82309,142.93634 231.96686,142.93634 237.32148,142.93634  "
     style="fill:none;stroke:#000000;stroke-width:3.8361444px;stroke-linecap:butt;stroke-linejoin:miter;stroke-miterlimit:10;stroke-dasharray:none;stroke-opacity:1;" />
  <path
     id="path43"
     d="  M 213.66526,213.70522   C 213.66526,213.70522 233.16566,213.70522 239.67911,213.70522  "
     style="fill:none;stroke:#000000;stroke-width:4.7951808px;stroke-linecap:butt;stroke-linejoin:miter;stroke-miterlimit:10;stroke-dasharray:none;stroke-opacity:1;" />
  <path
     id="path45"
     d="  M 236.48233,213.90502   C 248.75,212.46646 260.49819,213.50542 260.97771,198.56044  "
     style="fill:none;stroke:#000000;stroke-width:4.7951808px;stroke-linecap:butt;stroke-linejoin:miter;stroke-miterlimit:10;stroke-dasharray:none;stroke-opacity:1;" />
  <path
     id="path47"
     d="  M 215.14377,213.74518   C 205.79317,214.54437 192.40662,209.02992 192.40662,198.28072  "
     style="fill:none;stroke:#000000;stroke-width:4.7951808px;stroke-linecap:butt;stroke-linejoin:miter;stroke-miterlimit:10;stroke-dasharray:none;stroke-opacity:1;" />
  <path
     id="path49"
     d="  M 213.54538,139.4998   L 214.0249,141.49779  "
     style="fill:none;stroke:#000000;stroke-width:0.95903611px;stroke-linecap:butt;stroke-linejoin:miter;stroke-miterlimit:10;stroke-dasharray:none;stroke-opacity:1;" />
</svg>
