<?xml version="1.0" encoding="UTF-8" standalone="no"?>
<svg
   xmlns:dc="http://purl.org/dc/elements/1.1/"
   xmlns:cc="http://creativecommons.org/ns#"
   xmlns:rdf="http://www.w3.org/1999/02/22-rdf-syntax-ns#"
   xmlns:svg="http://www.w3.org/2000/svg"
   xmlns="http://www.w3.org/2000/svg"
   id="svg19"
   height="112.9mm"
   width="112.9mm"
   version="1.0">
  <metadata
     id="metadata23">
    <rdf:RDF>
      <cc:Work
         rdf:about="">
        <dc:format>image/svg+xml</dc:format>
        <dc:type
           rdf:resource="http://purl.org/dc/dcmitype/StillImage" />
      </cc:Work>
    </rdf:RDF>
  </metadata>
  <defs
     id="defs3">
    <pattern
       y="0"
       x="0"
       height="6"
       width="6"
       patternUnits="userSpaceOnUse"
       id="EMFhbasepattern" />
  </defs>
  <ellipse
     id="ellipse5"
     ry="42.086629"
     rx="42.067748"
     cy="1172.2624"
     cx="1097.324"
     style="fill:#ffff80;fill-rule:nonzero;fill-opacity:1;stroke:#00ff00;stroke-width:5.3245535px;stroke-linecap:butt;stroke-linejoin:miter;stroke-miterlimit:282;stroke-dasharray:none;stroke-opacity:1;" />
  <path
     id="path7"
     d="  M 1081.879,1135.2737   L 1081.879,1055.5942   L 1113.8641,1055.5942   L 1113.8641,1135.2737   z "
     style="fill:#ffff80;fill-rule:nonzero;fill-opacity:1;stroke:#00ff00;stroke-width:5.3245535px;stroke-linecap:butt;stroke-linejoin:miter;stroke-miterlimit:282;stroke-dasharray:none;stroke-opacity:1;" />
  <path
     id="path9"
     d="  M 1105.1409,1174.9247   L 1108.3507,1175.7554   C 1107.671,1178.3988 1106.4626,1180.4003 1104.6877,1181.7975   C 1102.9507,1183.1947 1100.7982,1183.9122 1098.2681,1183.9122   C 1095.6247,1183.9122 1093.4722,1183.3458 1091.8484,1182.2884   C 1090.1868,1181.231 1088.9407,1179.6828 1088.0721,1177.6436   C 1087.2036,1175.6044 1086.7882,1173.4142 1086.7882,1171.0729   C 1086.7882,1168.5428 1087.2791,1166.3147 1088.2232,1164.4266   C 1089.205,1162.5385 1090.6022,1161.1035 1092.3771,1160.1217   C 1094.1897,1159.1398 1096.1533,1158.6489 1098.3058,1158.6489   C 1100.7604,1158.6489 1102.7996,1159.2909 1104.4612,1160.4993   C 1106.1227,1161.7455 1107.2934,1163.5203 1107.9353,1165.7483   L 1104.7633,1166.5036   C 1104.1968,1164.7287 1103.366,1163.4448 1102.3087,1162.614   C 1101.2136,1161.821 1099.8541,1161.4056 1098.2303,1161.4056   C 1096.3422,1161.4056 1094.7939,1161.8587 1093.5477,1162.765   C 1092.2638,1163.6714 1091.3952,1164.8798 1090.8666,1166.3903   C 1090.3756,1167.9008 1090.1113,1169.4491 1090.1113,1171.0729   C 1090.1113,1173.1498 1090.4134,1174.9624 1091.0176,1176.5107   C 1091.6218,1178.059 1092.5659,1179.2296 1093.8498,1179.9849   C 1095.1338,1180.7401 1096.4932,1181.1178 1098.0037,1181.1178   C 1099.7786,1181.1178 1101.3269,1180.6268 1102.573,1179.5695   C 1103.8192,1178.5121 1104.6877,1176.9639 1105.1409,1174.9247   z "
     style="fill:#00ff00;fill-rule:nonzero;fill-opacity:1;stroke:#00ff00;stroke-width:1.0573581px;stroke-linecap:butt;stroke-linejoin:miter;stroke-miterlimit:282;stroke-dasharray:none;stroke-opacity:1;" />
  <path
     id="path11"
     d="  M 948.65189,1118.5071   L 1032.8251,1118.5071   L 1032.8251,1151.4362   L 948.65189,1151.4362   z "
     style="fill:#ffffff;fill-rule:nonzero;fill-opacity:1;stroke:#ffffff;stroke-width:1.0573581px;stroke-linecap:butt;stroke-linejoin:miter;stroke-miterlimit:282;stroke-dasharray:none;stroke-opacity:1;" />
  <path
     id="path13"
     d="  M 973.34876,1139.7297   L 976.97398,1140.6738   C 976.21873,1143.6571 974.85927,1145.9228 972.85784,1147.5089   C 970.89417,1149.0572 968.47736,1149.8502 965.60738,1149.8502   C 962.66189,1149.8502 960.24507,1149.246 958.39469,1148.0376   C 956.54431,1146.8291 955.10933,1145.0921 954.16526,1142.7885   C 953.18343,1140.5228 952.69251,1138.0682 952.69251,1135.4248   C 952.69251,1132.5926 953.25895,1130.1002 954.35407,1127.9478   C 955.44919,1125.833 956.99747,1124.2092 958.9989,1123.1141   C 961.03809,1121.9812 963.26609,1121.4526 965.68291,1121.4526   C 968.40183,1121.4526 970.74312,1122.1323 972.5935,1123.5295   C 974.48164,1124.9267 975.76557,1126.8904 976.52083,1129.4583   L 972.93337,1130.289   C 972.2914,1128.2876 971.38509,1126.8149 970.17668,1125.9086   C 968.96827,1125.0023 967.42,1124.5491 965.60738,1124.5491   C 963.49267,1124.5491 961.71782,1125.0778 960.32059,1126.0596   C 958.88561,1127.0792 957.90377,1128.4387 957.29957,1130.138   C 956.73313,1131.8373 956.46879,1133.6122 956.46879,1135.4248   C 956.46879,1137.7661 956.80865,1139.8053 957.48838,1141.5424   C 958.16811,1143.2794 959.22547,1144.5634 960.66046,1145.4319   C 962.09544,1146.3005 963.64372,1146.7159 965.30528,1146.7159   C 967.34447,1146.7159 969.08156,1146.1494 970.47878,1144.9788   C 971.91377,1143.8081 972.85784,1142.071 973.34876,1139.7297   z "
     style="fill:#00ff00;fill-rule:nonzero;fill-opacity:1;stroke:#00ff00;stroke-width:1.0573581px;stroke-linecap:butt;stroke-linejoin:miter;stroke-miterlimit:282;stroke-dasharray:none;stroke-opacity:1;" />
  <path
     id="path15"
     d="  M 981.35447,1149.3593   L 981.35447,1121.9057   L 986.83007,1121.9057   L 993.32527,1141.3535   C 993.92948,1143.1662 994.38263,1144.5256 994.64697,1145.4319   C 994.94907,1144.4123 995.43999,1142.9396 996.11972,1141.0137   L 1002.6904,1121.9057   L 1007.5618,1121.9057   L 1007.5618,1149.3593   L 1004.0877,1149.3593   L 1004.0877,1126.3995   L 996.08196,1149.3593   L 992.83436,1149.3593   L 984.86641,1125.9841   L 984.86641,1149.3593   z "
     style="fill:#00ff00;fill-rule:nonzero;fill-opacity:1;stroke:#00ff00;stroke-width:1.0573581px;stroke-linecap:butt;stroke-linejoin:miter;stroke-miterlimit:282;stroke-dasharray:none;stroke-opacity:1;" />
  <path
     id="path17"
     d="  M 1013.3396,1149.3593   L 1013.3396,1121.9057   L 1016.9648,1121.9057   L 1016.9648,1146.1494   L 1030.4839,1146.1494   L 1030.4839,1149.3593   z "
     style="fill:#00ff00;fill-rule:nonzero;fill-opacity:1;stroke:#00ff00;stroke-width:1.0573581px;stroke-linecap:butt;stroke-linejoin:miter;stroke-miterlimit:282;stroke-dasharray:none;stroke-opacity:1;" />
</svg>
