<?xml version="1.0" encoding="UTF-8" standalone="no"?>
<svg
   xmlns:dc="http://purl.org/dc/elements/1.1/"
   xmlns:cc="http://creativecommons.org/ns#"
   xmlns:rdf="http://www.w3.org/1999/02/22-rdf-syntax-ns#"
   xmlns:svg="http://www.w3.org/2000/svg"
   xmlns="http://www.w3.org/2000/svg"
   id="svg19"
   height="112.9mm"
   width="112.9mm"
   version="1.0">
  <metadata
     id="metadata23">
    <rdf:RDF>
      <cc:Work
         rdf:about="">
        <dc:format>image/svg+xml</dc:format>
        <dc:type
           rdf:resource="http://purl.org/dc/dcmitype/StillImage" />
      </cc:Work>
    </rdf:RDF>
  </metadata>
  <defs
     id="defs3">
    <pattern
       y="0"
       x="0"
       height="6"
       width="6"
       patternUnits="userSpaceOnUse"
       id="EMFhbasepattern" />
  </defs>
  <ellipse
     id="ellipse5"
     ry="42.086629"
     rx="42.067748"
     cy="1172.2624"
     cx="1097.6695"
     style="fill:#ffff80;fill-rule:nonzero;fill-opacity:1;stroke:#ff0000;stroke-width:5.3245535px;stroke-linecap:butt;stroke-linejoin:miter;stroke-miterlimit:282;stroke-dasharray:none;stroke-opacity:1;" />
  <path
     id="path7"
     d="  M 1082.2246,1135.2737   L 1082.2246,1055.5942   L 1114.2097,1055.5942   L 1114.2097,1135.2737   z "
     style="fill:#ffff80;fill-rule:nonzero;fill-opacity:1;stroke:#ff0000;stroke-width:5.3245535px;stroke-linecap:butt;stroke-linejoin:miter;stroke-miterlimit:282;stroke-dasharray:none;stroke-opacity:1;" />
  <path
     id="path9"
     d="  M 1105.4864,1174.9247   L 1108.6963,1175.7554   C 1108.0166,1178.3988 1106.8081,1180.4003 1105.0333,1181.7975   C 1103.2962,1183.1947 1101.1437,1183.9122 1098.6136,1183.9122   C 1095.9702,1183.9122 1093.8177,1183.3458 1092.1939,1182.2884   C 1090.5324,1181.231 1089.2862,1179.6828 1088.4177,1177.6436   C 1087.5491,1175.6044 1087.1337,1173.4142 1087.1337,1171.0729   C 1087.1337,1168.5428 1087.6246,1166.3147 1088.5687,1164.4266   C 1089.5505,1162.5385 1090.9478,1161.1035 1092.7226,1160.1217   C 1094.5352,1159.1398 1096.4989,1158.6489 1098.6514,1158.6489   C 1101.106,1158.6489 1103.1452,1159.2909 1104.8067,1160.4993   C 1106.4683,1161.7455 1107.6389,1163.5203 1108.2809,1165.7483   L 1105.1088,1166.5036   C 1104.5424,1164.7287 1103.7116,1163.4448 1102.6542,1162.614   C 1101.5591,1161.821 1100.1997,1161.4056 1098.5759,1161.4056   C 1096.6877,1161.4056 1095.1394,1161.8587 1093.8933,1162.765   C 1092.6093,1163.6714 1091.7408,1164.8798 1091.2121,1166.3903   C 1090.7212,1167.9008 1090.4569,1169.4491 1090.4569,1171.0729   C 1090.4569,1173.1498 1090.759,1174.9624 1091.3632,1176.5107   C 1091.9674,1178.059 1092.9114,1179.2296 1094.1954,1179.9849   C 1095.4793,1180.7401 1096.8388,1181.1178 1098.3493,1181.1178   C 1100.1241,1181.1178 1101.6724,1180.6268 1102.9186,1179.5695   C 1104.1647,1178.5121 1105.0333,1176.9639 1105.4864,1174.9247   z "
     style="fill:#ff0000;fill-rule:nonzero;fill-opacity:1;stroke:#ff0000;stroke-width:1.0573581px;stroke-linecap:butt;stroke-linejoin:miter;stroke-miterlimit:282;stroke-dasharray:none;stroke-opacity:1;" />
  <path
     id="path11"
     d="  M 938.34834,1118.5071   L 1022.5216,1118.5071   L 1022.5216,1151.4362   L 938.34834,1151.4362   z "
     style="fill:#ffffff;fill-rule:nonzero;fill-opacity:1;stroke:#ffffff;stroke-width:1.0573581px;stroke-linecap:butt;stroke-linejoin:miter;stroke-miterlimit:282;stroke-dasharray:none;stroke-opacity:1;" />
  <path
     id="path13"
     d="  M 963.0452,1139.7297   L 966.67043,1140.6738   C 965.91518,1143.6571 964.55571,1145.9228 962.55429,1147.5089   C 960.59062,1149.0572 958.1738,1149.8502 955.30383,1149.8502   C 952.35833,1149.8502 949.94152,1149.246 948.09114,1148.0376   C 946.24076,1146.8291 944.80578,1145.0921 943.86171,1142.7885   C 942.87987,1140.5228 942.38896,1138.0682 942.38896,1135.4248   C 942.38896,1132.5926 942.9554,1130.1002 944.05052,1127.9478   C 945.14564,1125.833 946.69392,1124.2092 948.69534,1123.1141   C 950.73453,1121.9812 952.92478,1121.4526 955.34159,1121.4526   C 958.09828,1121.4526 960.40181,1122.1323 962.28995,1123.5295   C 964.17809,1124.9267 965.46202,1126.8904 966.21728,1129.4583   L 962.62981,1130.289   C 961.98785,1128.2876 961.08154,1126.8149 959.87313,1125.9086   C 958.62696,1125.0023 957.11645,1124.5491 955.26607,1124.5491   C 953.18912,1124.5491 951.41426,1125.0778 949.97928,1126.0596   C 948.58205,1127.0792 947.56246,1128.4387 946.99602,1130.138   C 946.42958,1131.8373 946.12747,1133.6122 946.12747,1135.4248   C 946.12747,1137.7661 946.46734,1139.8053 947.14707,1141.5424   C 947.8268,1143.2794 948.88416,1144.5634 950.35691,1145.4319   C 951.79189,1146.3005 953.34017,1146.7159 955.00173,1146.7159   C 957.04092,1146.7159 958.77801,1146.1494 960.17523,1144.9788   C 961.57245,1143.8081 962.55429,1142.071 963.0452,1139.7297   z "
     style="fill:#ff0000;fill-rule:nonzero;fill-opacity:1;stroke:#ff0000;stroke-width:1.0573581px;stroke-linecap:butt;stroke-linejoin:miter;stroke-miterlimit:282;stroke-dasharray:none;stroke-opacity:1;" />
  <path
     id="path15"
     d="  M 971.05091,1149.3593   L 971.05091,1121.9057   L 976.52652,1121.9057   L 983.02172,1141.3535   C 983.62592,1143.1662 984.07908,1144.5256 984.34342,1145.4319   C 984.64552,1144.4123 985.13644,1142.9396 985.81617,1141.0137   L 992.38689,1121.9057   L 997.25829,1121.9057   L 997.25829,1149.3593   L 993.74635,1149.3593   L 993.74635,1126.3995   L 985.7784,1149.3593   L 982.49304,1149.3593   L 974.56285,1125.9841   L 974.56285,1149.3593   z "
     style="fill:#ff0000;fill-rule:nonzero;fill-opacity:1;stroke:#ff0000;stroke-width:1.0573581px;stroke-linecap:butt;stroke-linejoin:miter;stroke-miterlimit:282;stroke-dasharray:none;stroke-opacity:1;" />
  <path
     id="path17"
     d="  M 1003.036,1149.3593   L 1003.036,1121.9057   L 1006.6612,1121.9057   L 1006.6612,1146.1494   L 1020.1803,1146.1494   L 1020.1803,1149.3593   z "
     style="fill:#ff0000;fill-rule:nonzero;fill-opacity:1;stroke:#ff0000;stroke-width:1.0573581px;stroke-linecap:butt;stroke-linejoin:miter;stroke-miterlimit:282;stroke-dasharray:none;stroke-opacity:1;" />
</svg>
