<?xml version="1.0" encoding="UTF-8" standalone="no"?>
<svg
   xmlns:dc="http://purl.org/dc/elements/1.1/"
   xmlns:cc="http://creativecommons.org/ns#"
   xmlns:rdf="http://www.w3.org/1999/02/22-rdf-syntax-ns#"
   xmlns:svg="http://www.w3.org/2000/svg"
   xmlns="http://www.w3.org/2000/svg"
   id="svg11"
   height="112.9mm"
   width="112.9mm"
   version="1.0">
  <metadata
     id="metadata15">
    <rdf:RDF>
      <cc:Work
         rdf:about="">
        <dc:format>image/svg+xml</dc:format>
        <dc:type
           rdf:resource="http://purl.org/dc/dcmitype/StillImage" />
      </cc:Work>
    </rdf:RDF>
  </metadata>
  <defs
     id="defs3">
    <pattern
       y="0"
       x="0"
       height="6"
       width="6"
       patternUnits="userSpaceOnUse"
       id="EMFhbasepattern" />
  </defs>
  <ellipse
     id="ellipse5"
     ry="152.47782"
     rx="152.49666"
     cy="2035.8394"
     cx="2011.1122"
     style="fill:#80e0ff;fill-rule:nonzero;fill-opacity:1;stroke:#000000;stroke-width:10.62747px;stroke-linecap:butt;stroke-linejoin:miter;stroke-miterlimit:282;stroke-dasharray:none;stroke-opacity:1;" />
  <path
     id="path7"
     d="  M 2107.1552,2069.4095   C 2105.8738,2069.1449 2100.6355,2071.1863 2091.4777,2075.5338   C 2085.5987,2078.1045 2078.8152,2082.0361 2071.165,2087.4043   C 2043.0888,2106.0796 2023.3037,2131.2572 2011.8471,2162.9371   C 2011.3195,2162.9371 2010.5658,2162.2945 2009.5482,2161.0091   C 2005.1767,2147.2106 1997.4133,2133.4121 1986.1829,2119.6135   C 1974.4248,2104.7943 1960.8955,2092.5079 1945.595,2082.83   C 1938.4346,2078.2179 1928.5986,2073.6058 1916.0868,2069.0315   C 1915.8984,2068.5022 1915.8984,2068.1242 1916.0868,2067.8596   C 1919.4032,2066.3474 1923.8878,2064.4194 1929.503,2062.1133   C 1944.0499,2057.2366 1959.5388,2046.1222 1976.0076,2028.77   C 1992.4765,2011.3801 2003.2547,1995.0487 2008.38,1979.7002   C 2009.1337,1977.6587 2010.302,1975.5795 2011.8094,1973.5381   C 2016.6709,1988.6598 2025.8663,2004.3485 2039.3956,2020.7177   C 2053.6786,2038.3345 2068.3762,2050.8477 2083.4129,2058.2573   C 2086.7293,2059.8073 2092.1184,2062.2267 2099.5049,2065.5535   C 2101.8037,2065.8181 2104.3287,2067.1035 2107.1552,2069.4095   z "
     style="fill:#000000;fill-rule:nonzero;fill-opacity:1;stroke:none;" />
  <path
     id="path9"
     d="  M 2021.1932,1952.5568   L 2028.9566,1955.014   C 2027.7506,1959.3615 2025.7909,1962.5749 2023.0022,1964.6919   C 2020.2511,1966.7711 2016.7463,1967.8296 2012.4878,1967.8296   C 2007.2494,1967.8296 2002.9155,1966.015 1999.5237,1962.4236   C 1996.1697,1958.8322 1994.4738,1953.8799 1994.4738,1947.6422   C 1994.4738,1941.0265 1996.1697,1935.9229 1999.5614,1932.2559   C 2002.9532,1928.5889 2007.4378,1926.7743 2012.9777,1926.7743   C 2017.8392,1926.7743 2021.7585,1928.2108 2024.7734,1931.084   C 2026.5823,1932.7852 2027.939,1935.2046 2028.8435,1938.3802   L 2020.9294,1940.2704   C 2020.4772,1938.229 2019.4974,1936.6034 2017.9899,1935.3936   C 2016.5202,1934.2217 2014.7112,1933.6168 2012.6008,1933.6168   C 2009.6613,1933.6168 2007.2494,1934.6754 2005.4405,1936.7924   C 2003.5938,1938.9094 2002.6894,1942.3118 2002.6894,1947.0373   C 2002.6894,1952.0653 2003.5938,1955.6567 2005.4028,1957.7737   C 2007.2117,1959.9286 2009.5482,1960.9871 2012.4124,1960.9871   C 2014.5605,1960.9871 2016.3694,1960.3066 2017.9145,1958.9457   C 2019.422,1957.5847 2020.5149,1955.4677 2021.1932,1952.5568   z "
     style="fill:#000000;fill-rule:nonzero;fill-opacity:1;stroke:none;" />
</svg>
