<?xml version="1.0" encoding="UTF-8" standalone="no"?>
<svg
   xmlns:dc="http://purl.org/dc/elements/1.1/"
   xmlns:cc="http://creativecommons.org/ns#"
   xmlns:rdf="http://www.w3.org/1999/02/22-rdf-syntax-ns#"
   xmlns:svg="http://www.w3.org/2000/svg"
   xmlns="http://www.w3.org/2000/svg"
   id="svg51"
   height="116.73mm"
   width="116.73mm"
   version="1.0">
  <metadata
     id="metadata55">
    <rdf:RDF>
      <cc:Work
         rdf:about="">
        <dc:format>image/svg+xml</dc:format>
        <dc:type
           rdf:resource="http://purl.org/dc/dcmitype/StillImage" />
      </cc:Work>
    </rdf:RDF>
  </metadata>
  <defs
     id="defs3">
    <pattern
       y="0"
       x="0"
       height="6"
       width="6"
       patternUnits="userSpaceOnUse"
       id="EMFhbasepattern" />
  </defs>
  <path
     id="path5"
     d="  M 172.6265,43.156626   L 172.6265,100.69879   L 268.53012,100.69879   L 268.53012,43.156626   L 172.6265,43.156626   z "
     style="fill:#000000;fill-rule:evenodd;fill-opacity:1;stroke:none;" />
  <path
     id="path7"
     d="  M 220.57831,386.49156   L 220.57831,386.49156   L 386.49156,220.57831   L 220.57831,54.665059   L 54.665059,220.57831   L 220.57831,386.49156   z "
     style="fill:#ff8080;fill-rule:evenodd;fill-opacity:1;stroke:none;" />
  <path
     id="path9"
     d="  M 220.57831,386.49156   L 220.57831,386.49156   L 386.49156,220.57831   L 220.57831,54.665059   L 54.665059,220.57831   L 220.57831,386.49156  "
     style="fill:none;stroke:#000000;stroke-width:9.5903616px;stroke-linecap:butt;stroke-linejoin:miter;stroke-miterlimit:10;stroke-dasharray:none;stroke-opacity:1;" />
  <path
     id="path11"
     d="  M 206.19277,191.64739   C 206.19277,190.08895 208.07088,187.81124 209.26968,187.81124   L 232.56626,187.81124   C 233.68514,187.81124 235.64317,191.24779 235.64317,192.00703   L 235.64317,193.56546   C 235.64317,195.68333 232.56626,195.24377 232.56626,197.00201   L 232.56626,209.22972   C 232.56626,210.38855 256.26245,242.19658 256.26245,244.75401   L 256.26245,252.78594   C 256.26245,260.09859 240.07871,266.53212 231.80702,266.53212   L 210.02891,266.53212   C 205.11385,266.53212 198.04096,264.81385 195.04397,262.7759   C 192.88614,261.33735 185.57349,255.94277 185.57349,253.14558   L 185.57349,249.70903   C 185.57349,243.8749 194.16486,232.84598 196.84217,228.13072   C 198.48052,225.29357 208.87008,208.95 208.87008,207.31164   L 208.87008,197.00201   C 208.87008,195.20381 206.19277,195.56345 206.19277,191.64739   z  M 231.80702,182.09699   L 148.89036,182.09699   L 148.89036,270.72791   L 292.94558,270.72791   L 292.94558,182.09699   L 276.88172,182.09699   L 276.88172,150.00923   L 266.17249,150.00923   L 266.17249,182.09699   L 242.51626,182.09699   L 242.51626,150.00923   L 231.80702,150.00923   z "
     style="fill:#ffffff;fill-rule:evenodd;fill-opacity:1;stroke:none;" />
  <path
     id="path13"
     d="  M 231.80702,150.00923   L 242.51626,150.00923   L 242.51626,182.09699   L 266.17249,182.09699   L 266.17249,150.00923   L 276.88172,150.00923   L 276.88172,182.09699   L 292.94558,182.09699   L 292.94558,270.72791   L 148.89036,270.72791   L 148.89036,182.09699   L 231.80702,182.09699   L 231.80702,150.00923  z    M 146.21305,273.76486   L 295.62289,273.76486   L 295.62289,179.02008   L 280.31827,179.02008   L 280.31827,146.93233   L 263.13554,146.93233   L 263.13554,179.02008   L 245.95281,179.02008   L 245.95281,146.93233   L 228.73012,146.93233   L 228.73012,179.02008   L 146.21305,179.02008   L 146.21305,273.76486  z   "
     style="fill:#000000;fill-rule:evenodd;fill-opacity:1;stroke:none;" />
  <path
     id="path15"
     d="  M 154.40482,183.1759   L 154.40482,269.48915   L 289.62891,269.48915   L 289.62891,183.1759   L 154.40482,183.1759   z "
     style="fill:#ffffff;fill-rule:evenodd;fill-opacity:1;stroke:none;" />
  <path
     id="path17"
     d="  M 154.40482,183.1759   L 289.62891,183.1759   L 289.62891,269.48915   L 154.40482,269.48915   z "
     style="fill:none;stroke:#ffffff;stroke-width:0.95903611px;stroke-linecap:butt;stroke-linejoin:miter;stroke-miterlimit:10;stroke-dasharray:none;stroke-opacity:1;" />
  <path
     id="path19"
     d="  M 208.11084,190.28875   L 208.87008,192.96606   L 232.16666,192.96606   C 233.08574,192.96606 233.7251,192.3267 233.7251,191.44759   C 233.7251,189.64939 232.80602,188.77028 231.04779,188.77028   L 210.78815,188.77028   C 209.22972,188.77028 208.7502,189.36968 208.11084,190.28875   z "
     style="fill:#ffffff;fill-rule:evenodd;fill-opacity:1;stroke:none;" />
  <path
     id="path21"
     d="  M 231.04779,263.65502   L 209.26968,263.65502   C 204.87409,263.65502 199.03996,262.33634 196.32269,260.53815   C 194.44458,259.29939 187.89116,253.10562 187.49156,252.94578   L 187.49156,249.90883   C 187.49156,243.79498 195.44357,232.40642 198.4006,227.97088   C 199.59939,226.17269 211.18775,207.63132 211.18775,207.51144   L 211.18775,195.64337   L 230.64819,195.64337   L 230.64819,208.63032   C 230.64819,211.14779 254.34437,240.51827 254.34437,244.95381   L 254.34437,250.66807   C 254.34437,257.86084 238.68012,263.65502 231.04779,263.65502   z  M 231.04779,188.77028   C 232.80602,188.77028 233.7251,189.64939 233.7251,191.44759   C 233.7251,192.3267 233.08574,192.96606 232.16666,192.96606   L 208.87008,192.96606   L 208.11084,190.28875   C 208.7502,189.36968 209.22972,188.77028 210.78815,188.77028   z  M 231.80702,265.57309   C 240.07871,265.57309 256.26245,259.13955 256.26245,251.8269   L 256.26245,243.79498   C 256.26245,241.23755 232.56626,209.42952 232.56626,208.27068   L 232.56626,196.04297   C 232.56626,194.28474 235.64317,194.72429 235.64317,192.60642   L 235.64317,191.04799   C 235.64317,190.24879 233.68514,186.85221 232.56626,186.85221   L 209.26968,186.85221   C 208.07088,186.85221 206.19277,189.12992 206.19277,190.68835   C 206.19277,194.60441 208.87008,194.24478 208.87008,196.04297   L 208.87008,206.35261   C 208.87008,207.99096 198.48052,224.33453 196.84217,227.17168   C 194.16486,231.88694 185.57349,242.91586 185.57349,248.75   L 185.57349,252.18654   C 185.57349,254.98373 192.88614,260.37831 195.04397,261.81686   C 198.04096,263.85482 205.11385,265.57309 210.02891,265.57309   z "
     style="fill:#000000;fill-rule:evenodd;fill-opacity:1;stroke:none;" />
  <path
     id="path23"
     d="  M 196.28273,243.39538   L 196.28273,247.99076   C 196.28273,256.34237 210.74819,258.3004 219.93895,258.3004   L 227.61124,258.3004   C 233.56526,258.3004 246.71204,253.10562 246.71204,248.39036   L 246.71204,246.47229   C 246.71204,238.91988 230.84799,224.01486 229.12972,216.66225   L 211.18775,216.66225   C 209.78915,222.61626 196.28273,240.51827 196.28273,243.39538   z "
     style="fill:#000000;fill-rule:evenodd;fill-opacity:1;stroke:none;" />
  <path
     id="path25"
     d="  M 196.28273,243.39538   C 196.28273,240.51827 209.78915,222.61626 211.18775,216.66225   L 229.12972,216.66225   C 230.84799,224.01486 246.71204,238.91988 246.71204,246.47229   L 246.71204,248.39036   C 246.71204,253.10562 233.56526,258.3004 227.61124,258.3004   L 219.93895,258.3004   C 210.74819,258.3004 196.28273,256.34237 196.28273,247.99076   z  M 231.04779,263.65502   C 238.68012,263.65502 254.34437,257.86084 254.34437,250.66807   L 254.34437,244.95381   C 254.34437,240.51827 230.64819,211.14779 230.64819,208.63032   L 230.64819,195.64337   L 211.18775,195.64337   L 211.18775,207.51144   C 211.18775,207.63132 199.59939,226.17269 198.4006,227.97088   C 195.44357,232.40642 187.49156,243.79498 187.49156,249.90883   L 187.49156,252.94578   C 187.89116,253.10562 194.44458,259.29939 196.32269,260.53815   C 199.03996,262.33634 204.87409,263.65502 209.26968,263.65502   z "
     style="fill:#ffffff;fill-rule:evenodd;fill-opacity:1;stroke:none;" />
  <path
     id="path27"
     d="  M 210.70823,195.04397   C 210.70823,195.04397 210.14879,201.27771 210.70823,204.83413  "
     style="fill:none;stroke:#000000;stroke-width:4.7951808px;stroke-linecap:butt;stroke-linejoin:miter;stroke-miterlimit:10;stroke-dasharray:none;stroke-opacity:1;" />
  <path
     id="path29"
     d="  M 210.50843,203.35562   C 210.50843,218.93996 186.05301,232.48634 186.05301,250.74799  "
     style="fill:none;stroke:#000000;stroke-width:4.7951808px;stroke-linecap:butt;stroke-linejoin:miter;stroke-miterlimit:10;stroke-dasharray:none;stroke-opacity:1;" />
  <path
     id="path31"
     d="  M 231.48735,194.64437   C 231.48735,194.64437 231.24759,201.35763 231.12771,204.63433  "
     style="fill:none;stroke:#000000;stroke-width:4.7951808px;stroke-linecap:butt;stroke-linejoin:miter;stroke-miterlimit:10;stroke-dasharray:none;stroke-opacity:1;" />
  <path
     id="path33"
     d="  M 231.12771,203.43554   C 234.76405,224.69417 255.78293,231.48735 254.82389,250.90783  "
     style="fill:none;stroke:#000000;stroke-width:4.7951808px;stroke-linecap:butt;stroke-linejoin:miter;stroke-miterlimit:10;stroke-dasharray:none;stroke-opacity:1;" />
  <path
     id="path35"
     d="  M 210.26867,187.89116   C 204.0749,187.69136 205.99297,194.96405 211.54739,194.20482  "
     style="fill:none;stroke:#000000;stroke-width:3.8361444px;stroke-linecap:butt;stroke-linejoin:miter;stroke-miterlimit:10;stroke-dasharray:none;stroke-opacity:1;" />
  <path
     id="path37"
     d="  M 229.88895,194.28474   C 236.92188,192.68634 236.84196,188.13092 229.64919,187.89116  "
     style="fill:none;stroke:#000000;stroke-width:3.8361444px;stroke-linecap:butt;stroke-linejoin:miter;stroke-miterlimit:10;stroke-dasharray:none;stroke-opacity:1;" />
  <path
     id="path39"
     d="  M 208.5504,187.89116   C 208.5504,187.89116 225.61325,187.97108 231.24759,187.89116  "
     style="fill:none;stroke:#000000;stroke-width:3.8361444px;stroke-linecap:butt;stroke-linejoin:miter;stroke-miterlimit:10;stroke-dasharray:none;stroke-opacity:1;" />
  <path
     id="path41"
     d="  M 209.42952,194.08494   C 209.42952,194.08494 225.57329,194.08494 230.92791,194.08494  "
     style="fill:none;stroke:#000000;stroke-width:3.8361444px;stroke-linecap:butt;stroke-linejoin:miter;stroke-miterlimit:10;stroke-dasharray:none;stroke-opacity:1;" />
  <path
     id="path43"
     d="  M 207.27168,264.85381   C 207.27168,264.85381 226.77209,264.85381 233.28554,264.85381  "
     style="fill:none;stroke:#000000;stroke-width:4.7951808px;stroke-linecap:butt;stroke-linejoin:miter;stroke-miterlimit:10;stroke-dasharray:none;stroke-opacity:1;" />
  <path
     id="path45"
     d="  M 230.08875,265.05361   C 242.35642,263.61506 254.10461,264.65401 254.58413,249.70903  "
     style="fill:none;stroke:#000000;stroke-width:4.7951808px;stroke-linecap:butt;stroke-linejoin:miter;stroke-miterlimit:10;stroke-dasharray:none;stroke-opacity:1;" />
  <path
     id="path47"
     d="  M 208.7502,264.89377   C 199.3996,265.69297 186.01305,260.17851 186.01305,249.42931  "
     style="fill:none;stroke:#000000;stroke-width:4.7951808px;stroke-linecap:butt;stroke-linejoin:miter;stroke-miterlimit:10;stroke-dasharray:none;stroke-opacity:1;" />
  <path
     id="path49"
     d="  M 207.1518,190.64839   L 207.63132,192.64638  "
     style="fill:none;stroke:#000000;stroke-width:0.95903611px;stroke-linecap:butt;stroke-linejoin:miter;stroke-miterlimit:10;stroke-dasharray:none;stroke-opacity:1;" />
</svg>
