<?xml version="1.0" encoding="UTF-8" standalone="no"?>
<svg
   xmlns:dc="http://purl.org/dc/elements/1.1/"
   xmlns:cc="http://creativecommons.org/ns#"
   xmlns:rdf="http://www.w3.org/1999/02/22-rdf-syntax-ns#"
   xmlns:svg="http://www.w3.org/2000/svg"
   xmlns="http://www.w3.org/2000/svg"
   id="svg19"
   height="112.9mm"
   width="112.9mm"
   version="1.0">
  <metadata
     id="metadata23">
    <rdf:RDF>
      <cc:Work
         rdf:about="">
        <dc:format>image/svg+xml</dc:format>
        <dc:type
           rdf:resource="http://purl.org/dc/dcmitype/StillImage" />
      </cc:Work>
    </rdf:RDF>
  </metadata>
  <defs
     id="defs3">
    <pattern
       y="0"
       x="0"
       height="6"
       width="6"
       patternUnits="userSpaceOnUse"
       id="EMFhbasepattern" />
  </defs>
  <path
     id="path5"
     d="  M 537.01921,568.99982   C 537.01921,592.53387 517.94265,611.6482 494.37083,611.6482   C 470.83678,611.6482 451.76022,592.53387 451.76022,568.99982   C 451.76022,545.46578 470.83678,526.35145 494.37083,526.35145   C 517.94265,526.35145 537.01921,545.46578 537.01921,568.99982   z "
     style="fill:#ffff80;fill-rule:nonzero;fill-opacity:1;stroke:#000000;stroke-width:5.3263254px;stroke-linecap:butt;stroke-linejoin:miter;stroke-miterlimit:112;stroke-dasharray:none;stroke-opacity:1;" />
  <path
     id="path7"
     d="  M 478.39185,531.45112   L 478.39185,451.74511   L 510.38758,451.74511   L 510.38758,531.45112   z "
     style="fill:#ffff80;fill-rule:nonzero;fill-opacity:1;stroke:#000000;stroke-width:5.3263254px;stroke-linecap:butt;stroke-linejoin:miter;stroke-miterlimit:112;stroke-dasharray:none;stroke-opacity:1;" />
  <path
     id="path9"
     d="  M 501.66147,571.11524   L 504.87238,571.9463   C 504.19242,574.59058 502.98361,576.59267 501.20817,577.99036   C 499.4705,579.38805 497.31731,580.10578 494.78636,580.10578   C 492.14208,580.10578 489.98889,579.53915 488.36455,578.48144   C 486.70243,577.42373 485.45584,575.87494 484.58701,573.83507   C 483.71818,571.7952 483.30265,569.60423 483.30265,567.26216   C 483.30265,564.73121 483.79373,562.50246 484.73811,560.6137   C 485.72027,558.72493 487.11796,557.28946 488.8934,556.3073   C 490.70662,555.32514 492.67094,554.83407 494.82413,554.83407   C 497.27953,554.83407 499.3194,555.47625 500.98152,556.68506   C 502.64363,557.93164 503.81467,559.70709 504.45685,561.93583   L 501.28372,562.69134   C 500.71709,560.9159 499.88603,559.63154 498.82832,558.80048   C 497.73283,558.0072 496.37292,557.59167 494.74858,557.59167   C 492.85981,557.59167 491.31102,558.04497 490.06444,558.95158   C 488.78007,559.85819 487.91124,561.067 487.38239,562.57801   C 486.89131,564.08903 486.62688,565.63782 486.62688,567.26216   C 486.62688,569.3398 486.92908,571.15302 487.53349,572.70181   C 488.13789,574.2506 489.08228,575.42164 490.36664,576.17714   C 491.651,576.93265 493.01091,577.3104 494.52193,577.3104   C 496.29737,577.3104 497.84616,576.81932 499.09275,575.76161   C 500.33933,574.7039 501.20817,573.15511 501.66147,571.11524   L 501.66147,571.11524   z "
     style="fill:#000000;fill-rule:nonzero;fill-opacity:1;stroke:#000000;stroke-width:1.0577101px;stroke-linecap:butt;stroke-linejoin:miter;stroke-miterlimit:112;stroke-dasharray:none;stroke-opacity:1;" />
  <path
     id="path11"
     d="  M 334.46774,514.64108   L 419.7645,514.64108   L 419.7645,548.75223   L 334.46774,548.75223   L 334.46774,514.64108   z "
     style="fill:#ffffff;fill-rule:nonzero;fill-opacity:1;stroke:#ffffff;stroke-width:1.0577101px;stroke-linecap:butt;stroke-linejoin:miter;stroke-miterlimit:112;stroke-dasharray:none;stroke-opacity:1;" />
  <path
     id="path13"
     d="  M 359.17282,535.90861   L 362.79926,536.853   C 362.04375,539.83725 360.68384,542.10377 358.68174,543.69033   C 356.71742,545.23912 354.2998,546.03241 351.42887,546.03241   C 348.4824,546.03241 346.06477,545.428 344.21378,544.21919   C 342.36279,543.01038 340.92732,541.27271 339.98294,538.96842   C 339.00078,536.70189 338.5097,534.2465 338.5097,531.60222   C 338.5097,528.76907 339.07633,526.27589 340.17182,524.1227   C 341.2673,522.00728 342.81609,520.38294 344.81819,519.28745   C 346.85806,518.15419 349.04903,517.62534 351.46665,517.62534   C 354.22425,517.62534 356.52855,518.30529 358.41732,519.70298   C 360.30608,521.10067 361.59045,523.06499 362.34595,525.63371   L 358.75729,526.46477   C 358.11511,524.46268 357.2085,522.98944 355.99969,522.08283   C 354.75311,521.17622 353.24209,520.72292 351.3911,520.72292   C 349.31345,520.72292 347.53801,521.25177 346.10255,522.23393   C 344.70486,523.25387 343.68493,524.61378 343.1183,526.31367   C 342.55167,528.01356 342.24946,529.789 342.24946,531.60222   C 342.24946,533.94429 342.58944,535.98416 343.2694,537.72183   C 343.94935,539.45949 345.00706,540.74386 346.4803,541.61269   C 347.91577,542.48152 349.46456,542.89705 351.12667,542.89705   C 353.16654,542.89705 354.90421,542.33042 356.3019,541.15939   C 357.69958,539.98835 358.68174,538.25068 359.17282,535.90861   L 359.17282,535.90861   z "
     style="fill:#000000;fill-rule:nonzero;fill-opacity:1;stroke:#000000;stroke-width:1.0577101px;stroke-linecap:butt;stroke-linejoin:miter;stroke-miterlimit:112;stroke-dasharray:none;stroke-opacity:1;" />
  <path
     id="path15"
     d="  M 367.1812,545.54133   L 367.1812,518.07864   L 372.65863,518.07864   L 379.15599,537.53295   C 379.76039,539.34617 380.2137,540.70608 380.47812,541.61269   C 380.78033,540.59276 381.27141,539.11952 381.95136,537.19297   L 388.52428,518.07864   L 393.3973,518.07864   L 393.3973,545.54133   L 389.88419,545.54133   L 389.88419,522.57391   L 381.91359,545.54133   L 378.62713,545.54133   L 370.69431,522.15838   L 370.69431,545.54133   L 367.1812,545.54133   z "
     style="fill:#000000;fill-rule:nonzero;fill-opacity:1;stroke:#000000;stroke-width:1.0577101px;stroke-linecap:butt;stroke-linejoin:miter;stroke-miterlimit:112;stroke-dasharray:none;stroke-opacity:1;" />
  <path
     id="path17"
     d="  M 399.17693,545.54133   L 399.17693,518.07864   L 402.80336,518.07864   L 402.80336,542.33042   L 416.32694,542.33042   L 416.32694,545.54133   L 399.17693,545.54133   z "
     style="fill:#000000;fill-rule:nonzero;fill-opacity:1;stroke:#000000;stroke-width:1.0577101px;stroke-linecap:butt;stroke-linejoin:miter;stroke-miterlimit:112;stroke-dasharray:none;stroke-opacity:1;" />
</svg>
