<?xml version="1.0" encoding="UTF-8" standalone="no"?>
<svg
   xmlns:dc="http://purl.org/dc/elements/1.1/"
   xmlns:cc="http://creativecommons.org/ns#"
   xmlns:rdf="http://www.w3.org/1999/02/22-rdf-syntax-ns#"
   xmlns:svg="http://www.w3.org/2000/svg"
   xmlns="http://www.w3.org/2000/svg"
   id="svg25"
   height="89.669998mm"
   width="120.11mm"
   version="1.0">
  <metadata
     id="metadata29">
    <rdf:RDF>
      <cc:Work
         rdf:about="">
        <dc:format>image/svg+xml</dc:format>
        <dc:type
           rdf:resource="http://purl.org/dc/dcmitype/StillImage" />
      </cc:Work>
    </rdf:RDF>
  </metadata>
  <defs
     id="defs3">
    <pattern
       y="0"
       x="0"
       height="6"
       width="6"
       patternUnits="userSpaceOnUse"
       id="EMFhbasepattern" />
  </defs>
  <path
     id="path5"
     d="  M 54.345381,54.345381   L 54.345381,284.51405   L 399.59839,284.51405   L 399.59839,54.345381   L 54.345381,54.345381   z "
     style="fill:#80e0ff;fill-rule:evenodd;fill-opacity:1;stroke:none;" />
  <path
     id="path7"
     d="  M 54.345381,54.345381   L 399.59839,54.345381   L 399.59839,284.51405   L 54.345381,284.51405   z "
     style="fill:none;stroke:#000000;stroke-width:9.5903616px;stroke-linecap:butt;stroke-linejoin:miter;stroke-miterlimit:10;stroke-dasharray:none;stroke-opacity:1;" />
  <path
     id="path9"
     d="  M 177.10201,131.06827   C 177.10201,140.61867 169.38976,148.33092 159.83936,148.33092   C 150.32891,148.33092 142.5767,140.61867 142.5767,131.06827   C 142.5767,121.55783 150.32891,113.80562 159.83936,113.80562   C 169.38976,113.80562 177.10201,121.55783 177.10201,131.06827   z "
     style="fill:#000000;fill-rule:evenodd;fill-opacity:1;stroke:none;" />
  <path
     id="path11"
     d="  M 177.10201,131.06827   C 177.10201,140.61867 169.38976,148.33092 159.83936,148.33092   C 150.32891,148.33092 142.5767,140.61867 142.5767,131.06827   C 142.5767,121.55783 150.32891,113.80562 159.83936,113.80562   C 169.38976,113.80562 177.10201,121.55783 177.10201,131.06827  "
     style="fill:none;stroke:#000000;stroke-width:9.5903616px;stroke-linecap:butt;stroke-linejoin:miter;stroke-miterlimit:10;stroke-dasharray:none;stroke-opacity:1;" />
  <path
     id="path13"
     d="  M 311.36706,131.06827   C 311.36706,140.61867 303.65481,148.33092 294.10441,148.33092   C 284.59397,148.33092 276.84176,140.61867 276.84176,131.06827   C 276.84176,121.55783 284.59397,113.80562 294.10441,113.80562   C 303.65481,113.80562 311.36706,121.55783 311.36706,131.06827   z "
     style="fill:#000000;fill-rule:evenodd;fill-opacity:1;stroke:none;" />
  <path
     id="path15"
     d="  M 311.36706,131.06827   C 311.36706,140.61867 303.65481,148.33092 294.10441,148.33092   C 284.59397,148.33092 276.84176,140.61867 276.84176,131.06827   C 276.84176,121.55783 284.59397,113.80562 294.10441,113.80562   C 303.65481,113.80562 311.36706,121.55783 311.36706,131.06827  "
     style="fill:none;stroke:#000000;stroke-width:9.5903616px;stroke-linecap:butt;stroke-linejoin:miter;stroke-miterlimit:10;stroke-dasharray:none;stroke-opacity:1;" />
  <path
     id="path17"
     d="  M 169.42972,116.68273   C 226.97188,150.24899 236.56225,169.42972 260.53815,255.74297  "
     style="fill:none;stroke:#000000;stroke-width:9.5903616px;stroke-linecap:butt;stroke-linejoin:miter;stroke-miterlimit:10;stroke-dasharray:none;stroke-opacity:1;" />
  <path
     id="path19"
     d="  M 284.51405,116.68273   C 226.97188,150.24899 217.38152,169.42972 193.40562,255.74297  "
     style="fill:none;stroke:#000000;stroke-width:9.5903616px;stroke-linecap:butt;stroke-linejoin:miter;stroke-miterlimit:10;stroke-dasharray:none;stroke-opacity:1;" />
  <path
     id="path21"
     d="  M 246.752,99.499999   L 253.54518,101.21827   C 252.10662,106.81265 249.54919,111.08835 245.83293,114.04538   C 242.11666,116.96245 237.6012,118.44096 232.24658,118.44096   C 226.69217,118.44096 222.1767,117.32209 218.7002,115.04438   C 215.22369,112.80662 212.58634,109.52992 210.74819,105.25422   C 208.95,100.93855 208.03092,96.343171 208.03092,91.428111   C 208.03092,86.073493 209.06988,81.398192 211.10783,77.402208   C 213.14578,73.406224 216.06285,70.369276 219.85903,68.291364   C 223.65522,66.213453 227.81104,65.214457 232.3265,65.214457   C 237.48132,65.214457 241.83694,66.493172 245.35341,69.130521   C 248.82992,71.76787 251.30743,75.444176 252.66606,80.199396   L 245.95281,81.75783   C 244.75401,78.041565 243.03574,75.284336 240.75803,73.606023   C 238.48032,71.88775 235.64317,71.008634 232.20662,71.008634   C 228.2506,71.008634 224.93393,71.96767 222.29658,73.885742   C 219.61927,75.763854 217.74116,78.321284 216.66225,81.518071   C 215.58333,84.714858 215.06385,87.991565 215.06385,91.388151   C 215.06385,95.783734 215.70321,99.579918 216.98192,102.85663   C 218.26064,106.13333 220.21867,108.57088 222.93594,110.16928   C 225.61325,111.80763 228.53032,112.60683 231.68715,112.60683   C 235.48333,112.60683 238.72008,111.52791 241.35743,109.29016   C 243.99478,107.09237 245.79297,103.85562 246.752,99.499999   z "
     style="fill:#000000;fill-rule:evenodd;fill-opacity:1;stroke:none;" />
  <path
     id="path23"
     d="  M 399.59839,54.345381   L 54.345381,284.51405  "
     style="fill:none;stroke:#000000;stroke-width:9.5903616px;stroke-linecap:butt;stroke-linejoin:miter;stroke-miterlimit:10;stroke-dasharray:none;stroke-opacity:1;" />
</svg>
