<?xml version="1.0" encoding="UTF-8" standalone="no"?>
<svg
   xmlns:dc="http://purl.org/dc/elements/1.1/"
   xmlns:cc="http://creativecommons.org/ns#"
   xmlns:rdf="http://www.w3.org/1999/02/22-rdf-syntax-ns#"
   xmlns:svg="http://www.w3.org/2000/svg"
   xmlns="http://www.w3.org/2000/svg"
   id="svg11"
   height="112.9mm"
   width="112.9mm"
   version="1.0">
  <metadata
     id="metadata15">
    <rdf:RDF>
      <cc:Work
         rdf:about="">
        <dc:format>image/svg+xml</dc:format>
        <dc:type
           rdf:resource="http://purl.org/dc/dcmitype/StillImage" />
      </cc:Work>
    </rdf:RDF>
  </metadata>
  <defs
     id="defs3">
    <pattern
       y="0"
       x="0"
       height="6"
       width="6"
       patternUnits="userSpaceOnUse"
       id="EMFhbasepattern" />
  </defs>
  <path
     id="path5"
     d="  M 1981.453,2187.1891   C 1981.453,2309.9016 2162.233,2309.9016 2162.233,2187.1891   C 2284.562,2187.1891 2284.562,2005.8424 2162.233,2005.8424   C 2162.233,1883.1299 1981.453,1883.1299 1981.453,2005.8424   C 1859.124,2005.8424 1859.124,2187.1891 1981.453,2187.1891   z "
     style="fill:#ffff80;fill-rule:nonzero;fill-opacity:1;stroke:#000000;stroke-width:10.62747px;stroke-linecap:butt;stroke-linejoin:miter;stroke-miterlimit:282;stroke-dasharray:none;stroke-opacity:1;" />
  <path
     id="path7"
     d="  M 2167.1699,2129.4243   C 2165.8886,2129.1597 2160.6502,2131.2011 2151.4925,2135.5486   C 2145.6135,2138.1193 2138.83,2142.0509 2131.1797,2147.4191   C 2103.1036,2166.0944 2083.3184,2191.272 2071.8619,2222.9519   C 2071.3342,2222.9519 2070.5805,2222.3092 2069.563,2221.0239   C 2065.1914,2207.2254 2057.4281,2193.4268 2046.1976,2179.6283   C 2034.4396,2164.809 2020.9103,2152.5227 2005.6098,2142.8448   C 1998.4494,2138.2327 1988.6133,2133.6206 1976.1016,2129.0463   C 1975.9131,2128.517 1975.9131,2128.139 1976.1016,2127.8743   C 1979.4179,2126.3622 1983.9026,2124.4342 1989.5178,2122.1281   C 2004.0646,2117.2514 2019.5536,2106.1369 2036.0224,2088.7848   C 2052.4912,2071.3949 2063.2694,2055.0634 2068.3947,2039.7149   C 2069.1485,2037.6735 2070.3167,2035.5943 2071.8242,2033.5528   C 2076.6857,2048.6745 2085.8811,2064.3633 2099.4104,2080.7325   C 2113.6934,2098.3493 2128.391,2110.8624 2143.4277,2118.2721   C 2146.7441,2119.822 2152.1332,2122.2415 2159.5196,2125.5683   C 2161.8185,2125.8329 2164.3435,2127.1183 2167.1699,2129.4243   z "
     style="fill:#000000;fill-rule:nonzero;fill-opacity:1;stroke:none;" />
  <path
     id="path9"
     d="  M 2081.208,2012.5715   L 2088.9713,2015.0288   C 2087.7654,2019.3763 2085.8057,2022.5896 2083.0169,2024.7067   C 2080.2658,2026.7859 2076.761,2027.8444 2072.5025,2027.8444   C 2067.2642,2027.8444 2062.9303,2026.0298 2059.5385,2022.4384   C 2056.1845,2018.847 2054.4886,2013.8947 2054.4886,2007.657   C 2054.4886,2001.0412 2056.1845,1995.9377 2059.5762,1992.2707   C 2062.9679,1988.6036 2067.4526,1986.789 2072.9924,1986.789   C 2077.8539,1986.789 2081.7733,1988.2256 2084.7882,1991.0987   C 2086.5971,1992.7999 2087.9538,1995.2194 2088.8583,1998.3949   L 2080.9442,2000.2851   C 2080.492,1998.2437 2079.5121,1996.6181 2078.0047,1995.4084   C 2076.5349,1994.2365 2074.726,1993.6316 2072.6156,1993.6316   C 2069.6761,1993.6316 2067.2642,1994.6901 2065.4552,1996.8072   C 2063.6086,1998.9242 2062.7041,2002.3266 2062.7041,2007.0521   C 2062.7041,2012.0801 2063.6086,2015.6715 2065.4175,2017.7885   C 2067.2265,2019.9433 2069.563,2021.0019 2072.4271,2021.0019   C 2074.5753,2021.0019 2076.3842,2020.3214 2077.9293,2018.9604   C 2079.4368,2017.5995 2080.5296,2015.4824 2081.208,2012.5715   z "
     style="fill:#000000;fill-rule:nonzero;fill-opacity:1;stroke:none;" />
</svg>
