<?xml version="1.0" encoding="UTF-8" standalone="no"?>
<svg
   xmlns:dc="http://purl.org/dc/elements/1.1/"
   xmlns:cc="http://creativecommons.org/ns#"
   xmlns:rdf="http://www.w3.org/1999/02/22-rdf-syntax-ns#"
   xmlns:svg="http://www.w3.org/2000/svg"
   xmlns="http://www.w3.org/2000/svg"
   id="svg27"
   height="95.75mm"
   width="95.75mm"
   version="1.0">
  <metadata
     id="metadata31">
    <rdf:RDF>
      <cc:Work
         rdf:about="">
        <dc:format>image/svg+xml</dc:format>
        <dc:type
           rdf:resource="http://purl.org/dc/dcmitype/StillImage" />
      </cc:Work>
    </rdf:RDF>
  </metadata>
  <defs
     id="defs3">
    <pattern
       y="0"
       x="0"
       height="6"
       width="6"
       patternUnits="userSpaceOnUse"
       id="EMFhbasepattern" />
  </defs>
  <path
     id="path5"
     d="  M 132.98634,15.983936   L 132.98634,54.345381   L 228.88996,54.345381   L 228.88996,15.983936   L 132.98634,15.983936   z "
     style="fill:#000000;fill-rule:evenodd;fill-opacity:1;stroke:none;" />
  <path
     id="path7"
     d="  M 54.345381,54.345381   L 54.345381,307.53092   L 307.53092,307.53092   L 307.53092,54.345381   L 54.345381,54.345381   z "
     style="fill:#aaffaa;fill-rule:evenodd;fill-opacity:1;stroke:none;" />
  <path
     id="path9"
     d="  M 54.345381,54.345381   L 307.53092,54.345381   L 307.53092,307.53092   L 54.345381,307.53092   z "
     style="fill:none;stroke:#000000;stroke-width:9.5903616px;stroke-linecap:butt;stroke-linejoin:miter;stroke-miterlimit:10;stroke-dasharray:none;stroke-opacity:1;" />
  <path
     id="path11"
     d="  M 186.85221,139.1002   L 186.85221,140.01928   C 186.85221,143.53574 190.16887,147.61164 193.56546,147.61164   L 194.44458,147.61164   C 198.16084,147.61164 201.63735,144.65462 201.63735,140.89839   L 201.63735,137.78152   C 201.63735,135.46385 197.92108,132.8265 194.88413,132.8265   L 194.44458,132.8265   C 190.84819,132.8265 186.85221,136.26305 186.85221,139.1002   z "
     style="fill:#000000;fill-rule:evenodd;fill-opacity:1;stroke:none;" />
  <path
     id="path13"
     d="  M 202.0769,165.51365   C 202.0769,168.87028 200.71827,169.26988 200.71827,171.34779   L 200.75823,172.78634   L 211.46747,168.67048   L 211.46747,160.15903   C 210.30863,159.87931 205.31365,157.64156 204.4745,158.08112   C 203.59538,158.52068 203.31566,163.6755 202.0769,165.51365   z "
     style="fill:#ffffff;fill-rule:evenodd;fill-opacity:1;stroke:none;" />
  <path
     id="path15"
     d="  M 194.00502,174.50462   C 194.96405,173.10602 194.88413,172.66646 194.88413,170.46867   z "
     style="fill:#ffffff;fill-rule:evenodd;fill-opacity:1;stroke:none;" />
  <path
     id="path17"
     d="  M 123.23614,167.7514   C 123.23614,172.02711 125.95341,175.82329 130.42891,175.82329   L 131.74759,175.82329   C 135.0243,175.82329 137.58172,172.14699 137.58172,168.67048   C 137.58172,158.201 123.23614,158.52068 123.23614,167.7514   z "
     style="fill:#000000;fill-rule:evenodd;fill-opacity:1;stroke:none;" />
  <path
     id="path19"
     d="  M 123.23614,167.7514   C 123.23614,158.52068 137.58172,158.201 137.58172,168.67048   C 137.58172,172.14699 135.0243,175.82329 131.74759,175.82329   L 130.42891,175.82329   C 125.95341,175.82329 123.23614,172.02711 123.23614,167.7514   z  M 194.00502,174.50462   L 194.88413,170.46867   L 197.6014,153.44578   L 198.48052,153.44578   L 198.48052,152.08715   C 198.48052,150.08915 204.63433,143.21606 206.11285,142.09719   L 233.40542,145.81345   C 232.16666,147.69156 231.20763,151.56767 229.92891,153.96526   C 229.20964,155.32389 228.88996,156.56265 228.29056,158.201   C 227.69116,159.87931 226.73213,160.11907 225.89297,161.71747   L 240.79799,154.88434   L 243.15562,161.75743   L 221.33755,171.34779   L 221.33755,172.70642   C 221.33755,177.7014 221.77711,181.65743 221.77711,186.13293   C 221.73715,190.36867 223.73514,196.44257 218.62028,196.44257   C 213.6253,196.44257 215.50341,191.24779 215.02389,187.05201   C 214.62429,183.69538 214.14478,178.62048 214.10482,174.86425   L 182.3767,188.81024   L 182.3767,212.54638   L 189.08996,212.54638   L 189.08996,228.6502   L 168.91024,228.6502   L 168.91024,212.54638   L 176.10301,212.54638   L 176.14297,192.44658   L 142.49679,207.63132   C 145.09417,209.86907 162.6765,219.2996 162.6765,221.49739   L 162.6765,222.41646   C 162.6765,224.13474 160.19899,225.97289 158.201,225.97289   L 156.84237,225.97289   C 153.96526,225.97289 135.42389,214.50441 131.74759,212.54638   L 117.00241,219.25964   L 113.88554,213.06586   L 123.71566,208.95   C 123.03634,206.51245 118.76064,205.31365 118.76064,203.15582   L 118.76064,191.96707   C 118.76064,190.92811 124.23514,178.5006 125.47389,178.5006   L 135.78353,178.5006   C 137.74156,178.5006 152.04719,194.64437 153.24598,194.64437   C 156.92229,194.64437 188.17088,177.22188 194.00502,176.74237   L 194.00502,174.50462   z  M 186.85221,139.1002   C 186.85221,136.26305 190.84819,132.8265 194.44458,132.8265   L 194.88413,132.8265   C 197.92108,132.8265 201.63735,135.46385 201.63735,137.78152   L 201.63735,140.89839   C 201.63735,144.65462 198.16084,147.61164 194.44458,147.61164   L 193.56546,147.61164   C 190.16887,147.61164 186.85221,143.53574 186.85221,140.01928   z  M 94.864657,150.88835   C 97.981525,151.20803 105.77369,150.12911 105.77369,153.00622   L 105.77369,236.72208   L 253.10562,236.72208   L 253.10562,153.00622   C 253.10562,150.12911 260.93775,151.20803 264.09457,150.84839   L 179.17992,98.740762   L 94.864657,150.88835   z "
     style="fill:#ffffff;fill-rule:evenodd;fill-opacity:1;stroke:none;" />
  <path
     id="path21"
     d="  M 133.98534,196.44257   C 133.98534,197.88112 135.78353,200.55843 136.34297,202.4765   L 147.81144,197.2018   L 148.17108,196.92209   L 133.98534,186.57249   z "
     style="fill:#ffffff;fill-rule:evenodd;fill-opacity:1;stroke:none;" />
  <path
     id="path23"
     d="  M 133.98534,186.57249   L 148.17108,196.92209   L 147.81144,197.2018   L 136.34297,202.4765   C 135.78353,200.55843 133.98534,197.88112 133.98534,196.44257   z  M 202.0769,165.51365   C 203.31566,163.6755 203.59538,158.52068 204.4745,158.08112   C 205.31365,157.64156 210.30863,159.87931 211.46747,160.15903   L 211.46747,168.67048   L 200.75823,172.78634   L 200.71827,171.34779   C 200.71827,169.26988 202.0769,168.87028 202.0769,165.51365   z  M 194.88413,170.46867   C 194.88413,172.66646 194.96405,173.10602 194.00502,174.50462   L 194.00502,176.74237   C 188.17088,177.22188 156.92229,194.64437 153.24598,194.64437   C 152.04719,194.64437 137.74156,178.5006 135.78353,178.5006   L 125.47389,178.5006   C 124.23514,178.5006 118.76064,190.92811 118.76064,191.96707   L 118.76064,203.15582   C 118.76064,205.31365 123.03634,206.51245 123.71566,208.95   L 113.88554,213.06586   L 117.00241,219.25964   L 131.74759,212.54638   C 135.42389,214.50441 153.96526,225.97289 156.84237,225.97289   L 158.201,225.97289   C 160.19899,225.97289 162.6765,224.13474 162.6765,222.41646   L 162.6765,221.49739   C 162.6765,219.2996 145.09417,209.86907 142.49679,207.63132   L 176.14297,192.44658   L 176.10301,212.54638   L 168.91024,212.54638   L 168.91024,228.6502   L 189.08996,228.6502   L 189.08996,212.54638   L 182.3767,212.54638   L 182.3767,188.81024   L 214.10482,174.86425   C 214.14478,178.62048 214.62429,183.69538 215.02389,187.05201   C 215.50341,191.24779 213.6253,196.44257 218.62028,196.44257   C 223.73514,196.44257 221.73715,190.36867 221.77711,186.13293   C 221.77711,181.65743 221.33755,177.7014 221.33755,172.70642   L 221.33755,171.34779   L 243.15562,161.75743   L 240.79799,154.88434   L 225.89297,161.71747   C 226.73213,160.11907 227.69116,159.87931 228.29056,158.201   C 228.88996,156.56265 229.20964,155.32389 229.92891,153.96526   C 231.20763,151.56767 232.16666,147.69156 233.40542,145.81345   L 206.11285,142.09719   C 204.63433,143.21606 198.48052,150.08915 198.48052,152.08715   L 198.48052,153.44578   L 197.6014,153.44578   L 194.88413,170.46867   z "
     style="fill:#000000;fill-rule:evenodd;fill-opacity:1;stroke:none;" />
  <path
     id="path25"
     d="  M 179.17992,98.740762   L 264.09457,150.84839   C 260.93775,151.20803 253.10562,150.12911 253.10562,153.00622   L 253.10562,236.72208   L 105.77369,236.72208   L 105.77369,153.00622   C 105.77369,150.12911 97.981525,151.20803 94.864657,150.88835   L 179.17992,98.740762   z  M 83.835742,152.5267   C 84.31526,154.5247 84.515059,155.68353 86.992569,155.68353   L 101.77771,155.68353   L 101.77771,238.52028   C 101.77771,239.71907 101.97751,239.75903 102.21727,240.75803   L 255.78293,240.75803   C 256.86184,240.75803 257.58112,239.99879 257.58112,238.95984   L 257.58112,155.68353   L 271.9267,155.68353   C 273.7249,155.68353 275.04357,154.68454 275.04357,153.00622   C 275.04357,151.52771 232.24658,126.15321 227.57128,122.99638   C 223.89498,120.47891 179.73935,93.426103 179.65944,93.426103   C 179.06004,93.426103 91.547991,147.41185 83.835742,152.5267   z "
     style="fill:#000000;fill-rule:evenodd;fill-opacity:1;stroke:none;" />
</svg>
