<?xml version="1.0" encoding="UTF-8" standalone="no"?>
<svg
   xmlns:dc="http://purl.org/dc/elements/1.1/"
   xmlns:cc="http://creativecommons.org/ns#"
   xmlns:rdf="http://www.w3.org/1999/02/22-rdf-syntax-ns#"
   xmlns:svg="http://www.w3.org/2000/svg"
   xmlns="http://www.w3.org/2000/svg"
   id="svg15"
   height="112.9mm"
   width="112.9mm"
   version="1.0">
  <metadata
     id="metadata19">
    <rdf:RDF>
      <cc:Work
         rdf:about="">
        <dc:format>image/svg+xml</dc:format>
        <dc:type
           rdf:resource="http://purl.org/dc/dcmitype/StillImage" />
      </cc:Work>
    </rdf:RDF>
  </metadata>
  <defs
     id="defs3">
    <pattern
       y="0"
       x="0"
       height="6"
       width="6"
       patternUnits="userSpaceOnUse"
       id="EMFhbasepattern" />
  </defs>
  <path
     id="path5"
     d="  M 391.92062,391.38808   L 541.15652,391.38808   L 541.15652,583.2682   L 391.92062,583.2682   L 391.92062,391.38808   z "
     style="fill:none;stroke:#ff0000;stroke-width:5.3258066px;stroke-linecap:butt;stroke-linejoin:miter;stroke-miterlimit:112;stroke-dasharray:none;stroke-opacity:1;" />
  <path
     id="path7"
     d="  M 391.92062,584.36358   L 466.51969,684.53407   L 541.15652,584.36358  "
     style="fill:none;stroke:#ff0000;stroke-width:5.3258066px;stroke-linecap:butt;stroke-linejoin:miter;stroke-miterlimit:112;stroke-dasharray:none;stroke-opacity:1;" />
  <path
     id="path9"
     d="  M 448.69145,439.32034   L 454.77269,440.8312   C 453.48846,445.81706 451.22216,449.59423 447.89825,452.23825   C 444.61211,454.8445 440.57054,456.12873 435.81131,456.12873   C 430.86322,456.12873 426.85942,455.14667 423.76215,453.14477   C 420.66487,451.1051 418.32302,448.19668 416.69884,444.38174   C 415.11243,440.60457 414.28145,436.48746 414.28145,432.14372   C 414.28145,427.34671 415.18797,423.19183 417.03879,419.64129   C 418.85183,416.09075 421.4203,413.40896 424.78198,411.55815   C 428.14366,409.70734 431.84528,408.80082 435.88685,408.80082   C 440.495,408.80082 444.34771,409.97174 447.44499,412.27581   C 450.58004,414.61766 452.77079,417.90379 453.97949,422.13422   L 448.01156,423.53177   C 446.95396,420.20787 445.40532,417.79048 443.40342,416.24184   C 441.36375,414.73097 438.83304,413.97554 435.77354,413.97554   C 432.26077,413.97554 429.31458,414.80652 426.97274,416.50624   C 424.59312,418.20597 422.93117,420.47227 421.98688,423.30514   C 421.00481,426.13802 420.55155,429.08421 420.55155,432.10595   C 420.55155,435.99643 421.11813,439.39588 422.25128,442.3043   C 423.38443,445.21272 425.12193,447.3657 427.53931,448.80103   C 429.91893,450.23635 432.52517,450.95401 435.32028,450.95401   C 438.71973,450.95401 441.59038,449.97195 443.93222,448.00782   C 446.27407,446.08147 447.86048,443.17305 448.69145,439.32034   L 448.69145,439.32034   z "
     style="fill:#ff0000;fill-rule:nonzero;fill-opacity:1;stroke:#ff0000;stroke-width:1.0576069px;stroke-linecap:butt;stroke-linejoin:miter;stroke-miterlimit:112;stroke-dasharray:none;stroke-opacity:1;" />
  <path
     id="path11"
     d="  M 463.30909,455.3733   L 463.30909,409.59403   L 469.35256,409.59403   L 469.35256,455.3733   L 463.30909,455.3733   z "
     style="fill:#ff0000;fill-rule:nonzero;fill-opacity:1;stroke:#ff0000;stroke-width:1.0576069px;stroke-linecap:butt;stroke-linejoin:miter;stroke-miterlimit:112;stroke-dasharray:none;stroke-opacity:1;" />
  <path
     id="path13"
     d="  M 493.07317,455.3733   L 475.35826,409.59403   L 481.89276,409.59403   L 493.79084,442.8331   C 494.7729,445.51489 495.56611,448.00782 496.20822,450.34967   C 496.92589,447.81896 497.71909,445.32603 498.66338,442.8331   L 511.05249,409.59403   L 517.20928,409.59403   L 499.3055,455.3733   L 493.07317,455.3733   z "
     style="fill:#ff0000;fill-rule:nonzero;fill-opacity:1;stroke:#ff0000;stroke-width:1.0576069px;stroke-linecap:butt;stroke-linejoin:miter;stroke-miterlimit:112;stroke-dasharray:none;stroke-opacity:1;" />
</svg>
