<?xml version="1.0" encoding="UTF-8" standalone="no"?>
<svg
   xmlns:dc="http://purl.org/dc/elements/1.1/"
   xmlns:cc="http://creativecommons.org/ns#"
   xmlns:rdf="http://www.w3.org/1999/02/22-rdf-syntax-ns#"
   xmlns:svg="http://www.w3.org/2000/svg"
   xmlns="http://www.w3.org/2000/svg"
   id="svg11"
   height="116.73mm"
   width="116.73mm"
   version="1.0">
  <metadata
     id="metadata15">
    <rdf:RDF>
      <cc:Work
         rdf:about="">
        <dc:format>image/svg+xml</dc:format>
        <dc:type
           rdf:resource="http://purl.org/dc/dcmitype/StillImage" />
      </cc:Work>
    </rdf:RDF>
  </metadata>
  <defs
     id="defs3">
    <pattern
       y="0"
       x="0"
       height="6"
       width="6"
       patternUnits="userSpaceOnUse"
       id="EMFhbasepattern" />
  </defs>
  <path
     id="path5"
     d="  M 220.57831,386.49156   L 220.57831,386.49156   L 386.49156,220.57831   L 220.57831,54.665059   L 54.665059,220.57831   L 220.57831,386.49156   z "
     style="fill:#ff8080;fill-rule:evenodd;fill-opacity:1;stroke:none;" />
  <path
     id="path7"
     d="  M 220.57831,386.49156   L 220.57831,386.49156   L 386.49156,220.57831   L 220.57831,54.665059   L 54.665059,220.57831   L 220.57831,386.49156  "
     style="fill:none;stroke:#000000;stroke-width:9.5903616px;stroke-linecap:butt;stroke-linejoin:miter;stroke-miterlimit:10;stroke-dasharray:none;stroke-opacity:1;" />
  <path
     id="path9"
     d="  M 202.2767,221.45743   L 210.46847,223.49538   C 208.7502,230.24859 205.67329,235.36345 201.19779,238.87992   C 196.76225,242.39638 191.32771,244.15461 184.89417,244.15461   C 178.22088,244.15461 172.8263,242.79598 168.63052,240.11867   C 164.4747,237.4014 161.27791,233.44538 159.12008,228.33052   C 156.92229,223.1757 155.84337,217.66124 155.84337,211.74719   C 155.84337,205.31365 157.08213,199.71927 159.51968,194.92409   C 161.99719,190.12891 165.47369,186.49257 170.02911,184.01506   C 174.58454,181.49759 179.57952,180.25883 185.01405,180.25883   C 191.20783,180.25883 196.40261,181.85723 200.59839,185.01405   C 204.83413,188.13092 207.7512,192.56646 209.42952,198.28072   L 201.35763,200.15883   C 199.91907,195.68333 197.84116,192.40662 195.12389,190.32871   C 192.40662,188.29076 188.97008,187.2518 184.85421,187.2518   C 180.09899,187.2518 176.14297,188.41064 172.94618,190.68835   C 169.7494,192.96606 167.51164,196.00301 166.19297,199.83915   C 164.91425,203.6753 164.2749,207.63132 164.2749,211.70723   C 164.2749,216.98192 165.03413,221.53735 166.55261,225.49337   C 168.11104,229.40943 170.46867,232.3265 173.70542,234.24457   C 176.94217,236.20261 180.45863,237.16164 184.21486,237.16164   C 188.77028,237.16164 192.68634,235.84297 195.84317,233.20562   C 199,230.56827 201.15783,226.65221 202.2767,221.45743   z  M 221.93694,243.11566   L 221.93694,181.33775   L 230.08875,181.33775   L 230.08875,243.11566   z  M 262.1765,243.11566   L 238.24056,181.33775   L 247.07168,181.33775   L 263.13554,226.21265   C 264.45421,229.80903 265.53313,233.16566 266.37229,236.32249   C 267.33132,232.96586 268.4502,229.56927 269.72891,226.21265   L 286.39216,181.33775   L 294.74377,181.33775   L 270.56807,243.11566   z "
     style="fill:#000000;fill-rule:evenodd;fill-opacity:1;stroke:none;" />
</svg>
