<?xml version="1.0" encoding="UTF-8" standalone="no"?>
<svg
   xmlns:dc="http://purl.org/dc/elements/1.1/"
   xmlns:cc="http://creativecommons.org/ns#"
   xmlns:rdf="http://www.w3.org/1999/02/22-rdf-syntax-ns#"
   xmlns:svg="http://www.w3.org/2000/svg"
   xmlns="http://www.w3.org/2000/svg"
   id="svg15"
   height="112.9mm"
   width="112.9mm"
   version="1.0">
  <metadata
     id="metadata19">
    <rdf:RDF>
      <cc:Work
         rdf:about="">
        <dc:format>image/svg+xml</dc:format>
        <dc:type
           rdf:resource="http://purl.org/dc/dcmitype/StillImage" />
      </cc:Work>
    </rdf:RDF>
  </metadata>
  <defs
     id="defs3">
    <pattern
       y="0"
       x="0"
       height="6"
       width="6"
       patternUnits="userSpaceOnUse"
       id="EMFhbasepattern" />
  </defs>
  <path
     id="path5"
     d="  M 1055.3824,1055.5085   L 1203.488,1055.5085   L 1203.488,1246.2484   L 1055.3824,1246.2484   z "
     style="fill:none;stroke:#ffff00;stroke-width:5.3245535px;stroke-linecap:butt;stroke-linejoin:miter;stroke-miterlimit:282;stroke-dasharray:none;stroke-opacity:1;" />
  <path
     id="path7"
     d="  M 1055.3824,1248.4386   L 1129.9639,1348.5855   L 1204.5832,1248.4386  "
     style="fill:none;stroke:#ffff00;stroke-width:5.3245535px;stroke-linecap:butt;stroke-linejoin:miter;stroke-miterlimit:282;stroke-dasharray:none;stroke-opacity:1;" />
  <path
     id="path9"
     d="  M 1112.1399,1103.4295   L 1118.2197,1104.94   C 1116.9357,1109.9247 1114.67,1113.701 1111.3468,1116.3444   C 1108.0615,1118.95 1104.0209,1120.2339 1099.2627,1120.2339   C 1094.3158,1120.2339 1090.313,1119.2521 1087.2164,1117.2507   C 1084.1199,1115.2115 1081.7786,1112.3038 1080.1548,1108.4897   C 1078.5687,1104.7134 1077.738,1100.5973 1077.738,1096.2546   C 1077.738,1091.4587 1078.6443,1087.3048 1080.4946,1083.7551   C 1082.3073,1080.2054 1084.8751,1077.5242 1088.236,1075.6739   C 1091.5969,1073.8235 1095.2977,1072.9172 1099.3383,1072.9172   C 1103.9453,1072.9172 1107.7971,1074.0878 1110.8937,1076.3913   C 1114.028,1078.7326 1116.2182,1082.018 1117.4266,1086.2474   L 1111.4601,1087.6447   C 1110.4028,1084.3215 1108.8545,1081.9047 1106.8531,1080.3564   C 1104.8139,1078.8459 1102.2838,1078.0907 1099.225,1078.0907   C 1095.713,1078.0907 1092.7675,1078.9215 1090.4263,1080.6208   C 1088.0472,1082.3201 1086.3856,1084.5859 1085.4416,1087.4181   C 1084.4597,1090.2503 1084.0066,1093.1958 1084.0066,1096.2168   C 1084.0066,1100.1064 1084.573,1103.505 1085.7059,1106.4128   C 1086.8388,1109.3205 1088.5759,1111.473 1090.9927,1112.908   C 1093.3718,1114.3429 1095.9774,1115.0604 1098.7718,1115.0604   C 1102.1705,1115.0604 1105.0405,1114.0786 1107.3817,1112.1149   C 1109.723,1110.189 1111.3091,1107.2813 1112.1399,1103.4295   z "
     style="fill:#ffff00;fill-rule:nonzero;fill-opacity:1;stroke:#ffff00;stroke-width:1.0573581px;stroke-linecap:butt;stroke-linejoin:miter;stroke-miterlimit:282;stroke-dasharray:none;stroke-opacity:1;" />
  <path
     id="path11"
     d="  M 1126.7541,1119.4787   L 1126.7541,1073.7102   L 1132.7961,1073.7102   L 1132.7961,1119.4787   z "
     style="fill:#ffff00;fill-rule:nonzero;fill-opacity:1;stroke:#ffff00;stroke-width:1.0573581px;stroke-linecap:butt;stroke-linejoin:miter;stroke-miterlimit:282;stroke-dasharray:none;stroke-opacity:1;" />
  <path
     id="path13"
     d="  M 1156.5111,1119.4787   L 1138.8004,1073.7102   L 1145.3333,1073.7102   L 1157.2286,1106.9414   C 1158.2105,1109.6226 1159.0035,1112.1149 1159.6454,1114.4562   C 1160.3629,1111.9261 1161.156,1109.4338 1162.1,1106.9414   L 1174.4862,1073.7102   L 1180.6416,1073.7102   L 1162.742,1119.4787   z "
     style="fill:#ffff00;fill-rule:nonzero;fill-opacity:1;stroke:#ffff00;stroke-width:1.0573581px;stroke-linecap:butt;stroke-linejoin:miter;stroke-miterlimit:282;stroke-dasharray:none;stroke-opacity:1;" />
</svg>
