<?xml version="1.0" encoding="UTF-8" standalone="no"?>
<svg
   xmlns:dc="http://purl.org/dc/elements/1.1/"
   xmlns:cc="http://creativecommons.org/ns#"
   xmlns:rdf="http://www.w3.org/1999/02/22-rdf-syntax-ns#"
   xmlns:svg="http://www.w3.org/2000/svg"
   xmlns="http://www.w3.org/2000/svg"
   id="svg17"
   height="107.94mm"
   width="95.75mm"
   version="1.0">
  <metadata
     id="metadata21">
    <rdf:RDF>
      <cc:Work
         rdf:about="">
        <dc:format>image/svg+xml</dc:format>
        <dc:type
           rdf:resource="http://purl.org/dc/dcmitype/StillImage" />
      </cc:Work>
    </rdf:RDF>
  </metadata>
  <defs
     id="defs3">
    <pattern
       y="0"
       x="0"
       height="6"
       width="6"
       patternUnits="userSpaceOnUse"
       id="EMFhbasepattern" />
  </defs>
  <path
     id="path5"
     d="  M 54.345381,353.56465   L 54.345381,171.34779   L 180.93815,54.345381   L 307.53092,171.34779   L 307.53092,353.56465   z "
     style="fill:#ff8080;fill-rule:evenodd;fill-opacity:1;stroke:none;" />
  <path
     id="path7"
     d="  M 54.345381,353.56465   L 54.345381,171.34779   L 180.93815,54.345381   L 307.53092,171.34779   L 307.53092,353.56465  "
     style="fill:none;stroke:#000000;stroke-width:9.5903616px;stroke-linecap:butt;stroke-linejoin:miter;stroke-miterlimit:10;stroke-dasharray:none;stroke-opacity:1;" />
  <path
     id="path9"
     d="  M 89.829718,204.91405   L 89.829718,204.91405   L 166.55261,204.91405   L 166.55261,185.73333   L 195.32369,185.73333   L 195.32369,204.91405   L 272.04658,204.91405   L 272.04658,238.48032   L 195.32369,238.48032   L 195.32369,281.63694   L 224.09478,281.63694   L 224.09478,300.81767   L 137.78152,300.81767   L 137.78152,281.63694   L 166.55261,281.63694   L 166.55261,238.48032   L 89.829718,238.48032   L 89.829718,204.91405   z "
     style="fill:#ffffff;fill-rule:evenodd;fill-opacity:1;stroke:none;" />
  <path
     id="path11"
     d="  M 89.829718,204.91405   L 89.829718,204.91405   L 166.55261,204.91405   L 166.55261,185.73333   L 195.32369,185.73333   L 195.32369,204.91405   L 272.04658,204.91405   L 272.04658,238.48032   L 195.32369,238.48032   L 195.32369,281.63694   L 224.09478,281.63694   L 224.09478,300.81767   L 137.78152,300.81767   L 137.78152,281.63694   L 166.55261,281.63694   L 166.55261,238.48032   L 89.829718,238.48032   L 89.829718,204.91405  "
     style="fill:none;stroke:#000000;stroke-width:9.5903616px;stroke-linecap:butt;stroke-linejoin:miter;stroke-miterlimit:10;stroke-dasharray:none;stroke-opacity:1;" />
  <path
     id="path13"
     d="  M 171.34779,171.34779   L 171.34779,185.73333   L 190.52851,185.73333   L 190.52851,171.34779   L 171.34779,171.34779   z "
     style="fill:#ffffff;fill-rule:evenodd;fill-opacity:1;stroke:none;" />
  <path
     id="path15"
     d="  M 171.34779,171.34779   L 190.52851,171.34779   L 190.52851,185.73333   L 171.34779,185.73333   z "
     style="fill:none;stroke:#000000;stroke-width:9.5903616px;stroke-linecap:butt;stroke-linejoin:miter;stroke-miterlimit:10;stroke-dasharray:none;stroke-opacity:1;" />
</svg>
