<?xml version="1.0" encoding="UTF-8" standalone="no"?>
<svg
   xmlns:dc="http://purl.org/dc/elements/1.1/"
   xmlns:cc="http://creativecommons.org/ns#"
   xmlns:rdf="http://www.w3.org/1999/02/22-rdf-syntax-ns#"
   xmlns:svg="http://www.w3.org/2000/svg"
   xmlns="http://www.w3.org/2000/svg"
   id="svg13"
   height="95.75mm"
   width="95.75mm"
   version="1.0">
  <metadata
     id="metadata17">
    <rdf:RDF>
      <cc:Work
         rdf:about="">
        <dc:format>image/svg+xml</dc:format>
        <dc:type
           rdf:resource="http://purl.org/dc/dcmitype/StillImage" />
      </cc:Work>
    </rdf:RDF>
  </metadata>
  <defs
     id="defs3">
    <pattern
       y="0"
       x="0"
       height="6"
       width="6"
       patternUnits="userSpaceOnUse"
       id="EMFhbasepattern" />
  </defs>
  <path
     id="path5"
     d="  M 54.345381,54.345381   L 54.345381,307.53092   L 307.53092,307.53092   L 307.53092,54.345381   L 54.345381,54.345381   z "
     style="fill:#aaffaa;fill-rule:evenodd;fill-opacity:1;stroke:none;" />
  <path
     id="path7"
     d="  M 54.345381,54.345381   L 307.53092,54.345381   L 307.53092,307.53092   L 54.345381,307.53092   z "
     style="fill:none;stroke:#000000;stroke-width:9.5903616px;stroke-linecap:butt;stroke-linejoin:miter;stroke-miterlimit:10;stroke-dasharray:none;stroke-opacity:1;" />
  <path
     id="path9"
     d="  M 174.14498,182.7763   L 182.33674,184.81425   C 180.61847,191.56747 177.54156,196.68233 173.06606,200.19879   C 168.63052,203.71526 163.19598,205.47349 156.76245,205.47349   C 150.08915,205.47349 144.69458,204.11486 140.49879,201.43755   C 136.34297,198.72028 133.14618,194.76425 130.98835,189.64939   C 128.79056,184.49458 127.71164,178.98012 127.71164,173.06606   C 127.71164,166.63253 128.9504,161.03815 131.38795,156.24297   C 133.86546,151.44779 137.34197,147.81144 141.89739,145.33393   C 146.45281,142.81646 151.44779,141.57771 156.88233,141.57771   C 163.0761,141.57771 168.27088,143.1761 172.46666,146.33293   C 176.70241,149.4498 179.61948,153.88534 181.29779,159.5996   L 173.2259,161.47771   C 171.78735,157.00221 169.70944,153.7255 166.99217,151.64759   C 164.2749,149.60964 160.83835,148.57068 156.72249,148.57068   C 151.96727,148.57068 148.01124,149.72952 144.81446,152.00723   C 141.61767,154.28494 139.37992,157.32189 138.06124,161.15803   C 136.78253,164.99417 136.14317,168.9502 136.14317,173.0261   C 136.14317,178.3008 136.90241,182.85622 138.42088,186.81225   C 139.97932,190.72831 142.33695,193.64538 145.57369,195.56345   C 148.81044,197.52148 152.32691,198.48052 156.08313,198.48052   C 160.63855,198.48052 164.55462,197.16184 167.71144,194.5245   C 170.86827,191.88715 173.0261,187.97108 174.14498,182.7763   z  M 185.61345,204.43454   L 209.3496,142.65662   L 218.14076,142.65662   L 243.43534,204.43454   L 234.1247,204.43454   L 226.93192,185.73333   L 201.07791,185.73333   L 194.28474,204.43454   z  M 203.43554,179.06004   L 224.37449,179.06004   L 217.94096,161.95723   C 215.98293,156.76245 214.50441,152.48674 213.54538,149.13012   C 212.78614,153.08614 211.66727,157.04217 210.22871,160.91827   z "
     style="fill:#000000;fill-rule:evenodd;fill-opacity:1;stroke:none;" />
  <path
     id="path11"
     d="  M 174.14498,182.7763   L 182.33674,184.81425   C 180.61847,191.56747 177.54156,196.68233 173.06606,200.19879   C 168.63052,203.71526 163.19598,205.47349 156.76245,205.47349   C 150.08915,205.47349 144.69458,204.11486 140.49879,201.43755   C 136.34297,198.72028 133.14618,194.76425 130.98835,189.64939   C 128.79056,184.49458 127.71164,178.98012 127.71164,173.06606   C 127.71164,166.63253 128.9504,161.03815 131.38795,156.24297   C 133.86546,151.44779 137.34197,147.81144 141.89739,145.33393   C 146.45281,142.81646 151.44779,141.57771 156.88233,141.57771   C 163.0761,141.57771 168.27088,143.1761 172.46666,146.33293   C 176.70241,149.4498 179.61948,153.88534 181.29779,159.5996   L 173.2259,161.47771   C 171.78735,157.00221 169.70944,153.7255 166.99217,151.64759   C 164.2749,149.60964 160.83835,148.57068 156.72249,148.57068   C 151.96727,148.57068 148.01124,149.72952 144.81446,152.00723   C 141.61767,154.28494 139.37992,157.32189 138.06124,161.15803   C 136.78253,164.99417 136.14317,168.9502 136.14317,173.0261   C 136.14317,178.3008 136.90241,182.85622 138.42088,186.81225   C 139.97932,190.72831 142.33695,193.64538 145.57369,195.56345   C 148.81044,197.52148 152.32691,198.48052 156.08313,198.48052   C 160.63855,198.48052 164.55462,197.16184 167.71144,194.5245   C 170.86827,191.88715 173.0261,187.97108 174.14498,182.7763   z  M 185.61345,204.43454   L 209.3496,142.65662   L 218.14076,142.65662   L 243.43534,204.43454   L 234.1247,204.43454   L 226.93192,185.73333   L 201.07791,185.73333   L 194.28474,204.43454   z  M 203.43554,179.06004   L 224.37449,179.06004   L 217.94096,161.95723   C 215.98293,156.76245 214.50441,152.48674 213.54538,149.13012   C 212.78614,153.08614 211.66727,157.04217 210.22871,160.91827   z "
     style="fill:none;stroke:#000000;stroke-width:0.95903611px;stroke-linecap:butt;stroke-linejoin:miter;stroke-miterlimit:10;stroke-dasharray:none;stroke-opacity:1;" />
</svg>
