<?xml version="1.0" encoding="UTF-8" standalone="no"?>
<svg
   xmlns:dc="http://purl.org/dc/elements/1.1/"
   xmlns:cc="http://creativecommons.org/ns#"
   xmlns:rdf="http://www.w3.org/1999/02/22-rdf-syntax-ns#"
   xmlns:svg="http://www.w3.org/2000/svg"
   xmlns="http://www.w3.org/2000/svg"
   id="svg11"
   height="101.85mm"
   width="101.85mm"
   version="1.0">
  <metadata
     id="metadata15">
    <rdf:RDF>
      <cc:Work
         rdf:about="">
        <dc:format>image/svg+xml</dc:format>
        <dc:type
           rdf:resource="http://purl.org/dc/dcmitype/StillImage" />
      </cc:Work>
    </rdf:RDF>
  </metadata>
  <defs
     id="defs3">
    <pattern
       y="0"
       x="0"
       height="6"
       width="6"
       patternUnits="userSpaceOnUse"
       id="EMFhbasepattern" />
  </defs>
  <path
     id="path5"
     d="  M 330.54779,192.44658   C 330.54779,268.72992 268.72992,330.54779 192.44658,330.54779   C 116.20321,330.54779 54.345381,268.72992 54.345381,192.44658   C 54.345381,116.20321 116.20321,54.345381 192.44658,54.345381   C 268.72992,54.345381 330.54779,116.20321 330.54779,192.44658   z "
     style="fill:#80e0ff;fill-rule:evenodd;fill-opacity:1;stroke:none;" />
  <path
     id="path7"
     d="  M 330.54779,192.44658   C 330.54779,268.72992 268.72992,330.54779 192.44658,330.54779   C 116.20321,330.54779 54.345381,268.72992 54.345381,192.44658   C 54.345381,116.20321 116.20321,54.345381 192.44658,54.345381   C 268.72992,54.345381 330.54779,116.20321 330.54779,192.44658  "
     style="fill:none;stroke:#000000;stroke-width:9.5903616px;stroke-linecap:butt;stroke-linejoin:miter;stroke-miterlimit:10;stroke-dasharray:none;stroke-opacity:1;" />
  <path
     id="path9"
     d="  M 174.14498,193.3257   L 182.33674,195.36365   C 180.61847,202.11686 177.54156,207.23172 173.06606,210.74819   C 168.63052,214.26466 163.19598,216.02289 156.76245,216.02289   C 150.08915,216.02289 144.69458,214.66425 140.49879,211.98694   C 136.34297,209.26968 133.14618,205.31365 130.98835,200.19879   C 128.79056,195.04397 127.71164,189.52952 127.71164,183.61546   C 127.71164,177.18193 128.9504,171.58755 131.38795,166.79237   C 133.86546,161.99719 137.34197,158.36084 141.89739,155.88333   C 146.45281,153.36586 151.44779,152.12711 156.88233,152.12711   C 163.0761,152.12711 168.27088,153.7255 172.46666,156.88233   C 176.70241,159.99919 179.61948,164.43474 181.29779,170.14899   L 173.2259,172.02711   C 171.78735,167.5516 169.70944,164.2749 166.99217,162.19699   C 164.2749,160.15903 160.83835,159.12008 156.72249,159.12008   C 151.96727,159.12008 148.01124,160.27891 144.81446,162.55662   C 141.61767,164.83433 139.37992,167.87128 138.06124,171.70743   C 136.78253,175.54357 136.14317,179.4996 136.14317,183.5755   C 136.14317,188.8502 136.90241,193.40562 138.42088,197.36164   C 139.97932,201.27771 142.33695,204.19478 145.57369,206.11285   C 148.81044,208.07088 152.32691,209.02992 156.08313,209.02992   C 160.63855,209.02992 164.55462,207.71124 167.71144,205.07389   C 170.86827,202.43654 173.0261,198.52048 174.14498,193.3257   z  M 193.80522,214.98393   L 193.80522,153.20602   L 201.95703,153.20602   L 201.95703,214.98393   z  M 234.04478,214.98393   L 210.10883,153.20602   L 218.93996,153.20602   L 235.00381,198.08092   C 236.32249,201.67731 237.4014,205.03393 238.24056,208.19076   C 239.19959,204.83413 240.31847,201.43755 241.59719,198.08092   L 258.26044,153.20602   L 266.61204,153.20602   L 242.43634,214.98393   z "
     style="fill:#000000;fill-rule:evenodd;fill-opacity:1;stroke:none;" />
</svg>
