<?xml version="1.0" encoding="UTF-8" standalone="no"?>
<svg
   xmlns:dc="http://purl.org/dc/elements/1.1/"
   xmlns:cc="http://creativecommons.org/ns#"
   xmlns:rdf="http://www.w3.org/1999/02/22-rdf-syntax-ns#"
   xmlns:svg="http://www.w3.org/2000/svg"
   xmlns="http://www.w3.org/2000/svg"
   id="svg13"
   height="130.27mm"
   width="130.27mm"
   version="1.0">
  <metadata
     id="metadata17">
    <rdf:RDF>
      <cc:Work
         rdf:about="">
        <dc:format>image/svg+xml</dc:format>
        <dc:type
           rdf:resource="http://purl.org/dc/dcmitype/StillImage" />
      </cc:Work>
    </rdf:RDF>
  </metadata>
  <defs
     id="defs3">
    <pattern
       y="0"
       x="0"
       height="6"
       width="6"
       patternUnits="userSpaceOnUse"
       id="EMFhbasepattern" />
  </defs>
  <path
     id="path5"
     d="  M 164.63454,327.67068   C 164.63454,437.95983 327.67068,437.95983 327.67068,327.67068   C 437.95983,327.67068 437.95983,164.63454 327.67068,164.63454   C 327.67068,54.345381 164.63454,54.345381 164.63454,164.63454   C 54.345381,164.63454 54.345381,327.67068 164.63454,327.67068   z "
     style="fill:#ffff80;fill-rule:evenodd;fill-opacity:1;stroke:none;" />
  <path
     id="path7"
     d="  M 164.63454,327.67068   C 164.63454,437.95983 327.67068,437.95983 327.67068,327.67068   C 437.95983,327.67068 437.95983,164.63454 327.67068,164.63454   C 327.67068,54.345381 164.63454,54.345381 164.63454,164.63454   C 54.345381,164.63454 54.345381,327.67068 164.63454,327.67068  "
     style="fill:none;stroke:#000000;stroke-width:9.5903616px;stroke-linecap:butt;stroke-linejoin:miter;stroke-miterlimit:10;stroke-dasharray:none;stroke-opacity:1;" />
  <path
     id="path9"
     d="  M 239.35943,247.99076   L 247.5512,250.02871   C 245.83293,256.78192 242.75602,261.89678 238.28052,265.41325   C 233.84498,268.92971 228.41044,270.68795 221.9769,270.68795   C 215.30361,270.68795 209.90903,269.32931 205.71325,266.652   C 201.55743,263.93474 198.36064,259.97871 196.20281,254.86385   C 194.00502,249.70903 192.9261,244.19457 192.9261,238.28052   C 192.9261,231.84698 194.16486,226.25261 196.60241,221.45743   C 199.07992,216.66225 202.55642,213.0259 207.11184,210.54839   C 211.66727,208.03092 216.66225,206.79217 222.09678,206.79217   C 228.29056,206.79217 233.48534,208.39056 237.68112,211.54739   C 241.91686,214.66425 244.83393,219.0998 246.51225,224.81405   L 238.44036,226.69217   C 237.0018,222.21666 234.92389,218.93996 232.20662,216.86205   C 229.48935,214.82409 226.05281,213.78514 221.93694,213.78514   C 217.18172,213.78514 213.2257,214.94397 210.02891,217.22168   C 206.83213,219.49939 204.59437,222.53634 203.2757,226.37249   C 201.99699,230.20863 201.35763,234.16466 201.35763,238.24056   C 201.35763,243.51526 202.11686,248.07068 203.63534,252.0267   C 205.19377,255.94277 207.5514,258.85984 210.78815,260.77791   C 214.0249,262.73594 217.54136,263.69498 221.29759,263.69498   C 225.85301,263.69498 229.76907,262.3763 232.9259,259.73895   C 236.08273,257.1016 238.24056,253.18554 239.35943,247.99076   z  M 250.82791,269.64899   L 274.56405,207.87108   L 283.35522,207.87108   L 308.64979,269.64899   L 299.33915,269.64899   L 292.14638,250.94779   L 266.29237,250.94779   L 259.49919,269.64899   z  M 268.65,244.27449   L 289.58895,244.27449   L 283.15542,227.17168   C 281.19739,221.9769 279.71887,217.7012 278.75984,214.34458   C 278.0006,218.3006 276.88172,222.25662 275.44317,226.13273   z "
     style="fill:#000000;fill-rule:evenodd;fill-opacity:1;stroke:none;" />
  <path
     id="path11"
     d="  M 239.35943,247.99076   L 247.5512,250.02871   C 245.83293,256.78192 242.75602,261.89678 238.28052,265.41325   C 233.84498,268.92971 228.41044,270.68795 221.9769,270.68795   C 215.30361,270.68795 209.90903,269.32931 205.71325,266.652   C 201.55743,263.93474 198.36064,259.97871 196.20281,254.86385   C 194.00502,249.70903 192.9261,244.19457 192.9261,238.28052   C 192.9261,231.84698 194.16486,226.25261 196.60241,221.45743   C 199.07992,216.66225 202.55642,213.0259 207.11184,210.54839   C 211.66727,208.03092 216.66225,206.79217 222.09678,206.79217   C 228.29056,206.79217 233.48534,208.39056 237.68112,211.54739   C 241.91686,214.66425 244.83393,219.0998 246.51225,224.81405   L 238.44036,226.69217   C 237.0018,222.21666 234.92389,218.93996 232.20662,216.86205   C 229.48935,214.82409 226.05281,213.78514 221.93694,213.78514   C 217.18172,213.78514 213.2257,214.94397 210.02891,217.22168   C 206.83213,219.49939 204.59437,222.53634 203.2757,226.37249   C 201.99699,230.20863 201.35763,234.16466 201.35763,238.24056   C 201.35763,243.51526 202.11686,248.07068 203.63534,252.0267   C 205.19377,255.94277 207.5514,258.85984 210.78815,260.77791   C 214.0249,262.73594 217.54136,263.69498 221.29759,263.69498   C 225.85301,263.69498 229.76907,262.3763 232.9259,259.73895   C 236.08273,257.1016 238.24056,253.18554 239.35943,247.99076   z  M 250.82791,269.64899   L 274.56405,207.87108   L 283.35522,207.87108   L 308.64979,269.64899   L 299.33915,269.64899   L 292.14638,250.94779   L 266.29237,250.94779   L 259.49919,269.64899   z  M 268.65,244.27449   L 289.58895,244.27449   L 283.15542,227.17168   C 281.19739,221.9769 279.71887,217.7012 278.75984,214.34458   C 278.0006,218.3006 276.88172,222.25662 275.44317,226.13273   z "
     style="fill:none;stroke:#000000;stroke-width:0.95903611px;stroke-linecap:butt;stroke-linejoin:miter;stroke-miterlimit:10;stroke-dasharray:none;stroke-opacity:1;" />
</svg>
