<?xml version="1.0" encoding="UTF-8" standalone="no"?>
<svg
   xmlns:dc="http://purl.org/dc/elements/1.1/"
   xmlns:cc="http://creativecommons.org/ns#"
   xmlns:rdf="http://www.w3.org/1999/02/22-rdf-syntax-ns#"
   xmlns:svg="http://www.w3.org/2000/svg"
   xmlns="http://www.w3.org/2000/svg"
   id="svg29"
   height="89.669998mm"
   width="120.11mm"
   version="1.0">
  <metadata
     id="metadata33">
    <rdf:RDF>
      <cc:Work
         rdf:about="">
        <dc:format>image/svg+xml</dc:format>
        <dc:type
           rdf:resource="http://purl.org/dc/dcmitype/StillImage" />
      </cc:Work>
    </rdf:RDF>
  </metadata>
  <defs
     id="defs3">
    <pattern
       y="0"
       x="0"
       height="6"
       width="6"
       patternUnits="userSpaceOnUse"
       id="EMFhbasepattern" />
  </defs>
  <path
     id="path5"
     d="  M 54.345381,54.345381   L 54.345381,284.51405   L 399.59839,284.51405   L 399.59839,54.345381   L 54.345381,54.345381   z "
     style="fill:#80e0ff;fill-rule:evenodd;fill-opacity:1;stroke:none;" />
  <path
     id="path7"
     d="  M 54.345381,54.345381   L 399.59839,54.345381   L 399.59839,284.51405   L 54.345381,284.51405   z "
     style="fill:none;stroke:#000000;stroke-width:9.5903616px;stroke-linecap:butt;stroke-linejoin:miter;stroke-miterlimit:10;stroke-dasharray:none;stroke-opacity:1;" />
  <path
     id="path9"
     d="  M 246.15261,164.63454   C 246.15261,175.26385 237.6012,183.81526 226.97188,183.81526   C 216.38253,183.81526 207.79116,175.26385 207.79116,164.63454   C 207.79116,154.04518 216.38253,145.45381 226.97188,145.45381   C 237.6012,145.45381 246.15261,154.04518 246.15261,164.63454  "
     style="fill:none;stroke:#000000;stroke-width:9.5903616px;stroke-linecap:butt;stroke-linejoin:miter;stroke-miterlimit:10;stroke-dasharray:none;stroke-opacity:1;" />
  <path
     id="path11"
     d="  M 226.97188,183.81526   L 226.97188,274.92369  "
     style="fill:none;stroke:#000000;stroke-width:9.5903616px;stroke-linecap:butt;stroke-linejoin:miter;stroke-miterlimit:10;stroke-dasharray:none;stroke-opacity:1;" />
  <path
     id="path13"
     d="  M 202.99598,207.79116   L 250.94779,207.79116  "
     style="fill:none;stroke:#000000;stroke-width:9.5903616px;stroke-linecap:butt;stroke-linejoin:miter;stroke-miterlimit:10;stroke-dasharray:none;stroke-opacity:1;" />
  <path
     id="path15"
     d="  M 188.61044,145.45381   C 188.61044,156.08313 180.05903,164.63454 169.42972,164.63454   C 158.84036,164.63454 150.24899,156.08313 150.24899,145.45381   C 150.24899,134.86446 158.84036,126.27309 169.42972,126.27309   C 180.05903,126.27309 188.61044,134.86446 188.61044,145.45381  "
     style="fill:none;stroke:#000000;stroke-width:9.5903616px;stroke-linecap:butt;stroke-linejoin:miter;stroke-miterlimit:10;stroke-dasharray:none;stroke-opacity:1;" />
  <path
     id="path17"
     d="  M 169.42972,164.63454   L 169.42972,255.74297  "
     style="fill:none;stroke:#000000;stroke-width:9.5903616px;stroke-linecap:butt;stroke-linejoin:miter;stroke-miterlimit:10;stroke-dasharray:none;stroke-opacity:1;" />
  <path
     id="path19"
     d="  M 145.45381,188.61044   L 193.40562,188.61044  "
     style="fill:none;stroke:#000000;stroke-width:9.5903616px;stroke-linecap:butt;stroke-linejoin:miter;stroke-miterlimit:10;stroke-dasharray:none;stroke-opacity:1;" />
  <path
     id="path21"
     d="  M 303.69477,145.45381   C 303.69477,156.08313 295.14337,164.63454 284.51405,164.63454   C 273.92469,164.63454 265.33333,156.08313 265.33333,145.45381   C 265.33333,134.86446 273.92469,126.27309 284.51405,126.27309   C 295.14337,126.27309 303.69477,134.86446 303.69477,145.45381  "
     style="fill:none;stroke:#000000;stroke-width:9.5903616px;stroke-linecap:butt;stroke-linejoin:miter;stroke-miterlimit:10;stroke-dasharray:none;stroke-opacity:1;" />
  <path
     id="path23"
     d="  M 284.51405,164.63454   L 284.51405,255.74297  "
     style="fill:none;stroke:#000000;stroke-width:9.5903616px;stroke-linecap:butt;stroke-linejoin:miter;stroke-miterlimit:10;stroke-dasharray:none;stroke-opacity:1;" />
  <path
     id="path25"
     d="  M 260.53815,188.61044   L 308.48996,188.61044  "
     style="fill:none;stroke:#000000;stroke-width:9.5903616px;stroke-linecap:butt;stroke-linejoin:miter;stroke-miterlimit:10;stroke-dasharray:none;stroke-opacity:1;" />
  <path
     id="path27"
     d="  M 176.10301,112.16727   L 176.10301,77.841766   L 191.32771,77.841766   C 194.36466,77.841766 196.68233,78.161445 198.28072,78.760842   C 199.87911,79.36024 201.15783,80.479115 202.11686,82.037549   C 203.0759,83.595983 203.55542,85.314256 203.55542,87.192368   C 203.55542,89.629918 202.75622,91.70783 201.15783,93.346183   C 199.59939,95.024497 197.16184,96.103412 193.88514,96.54297   C 195.08393,97.102408 195.96305,97.701806 196.60241,98.261244   C 197.92108,99.460039 199.1998,100.97851 200.35863,102.81667   L 206.35261,112.16727   L 200.63835,112.16727   L 196.08293,105.01446   C 194.76425,102.9765 193.68534,101.37811 192.80622,100.2992   C 191.96707,99.18032 191.16787,98.421083 190.48855,97.981525   C 189.80923,97.541966 189.12992,97.262248 188.4506,97.062448   C 187.93112,96.982529 187.09197,96.902609 185.89317,96.902609   L 180.61847,96.902609   L 180.61847,112.16727   z  M 180.61847,92.986545   L 190.40863,92.986545   C 192.48654,92.986545 194.08494,92.786746 195.28373,92.347187   C 196.44257,91.907629 197.32168,91.228312 197.92108,90.269276   C 198.56044,89.3502 198.84016,88.311244 198.84016,87.192368   C 198.84016,85.593975 198.28072,84.23534 197.08192,83.196384   C 195.92309,82.157429 194.04498,81.637951 191.48755,81.637951   L 180.61847,81.637951   z  M 211.42751,112.16727   L 211.42751,77.841766   L 215.98293,77.841766   L 215.98293,112.16727   z  M 222.5763,95.424095   C 222.5763,89.749798 224.13474,85.274296 227.17168,82.077509   C 230.24859,78.840762 234.20462,77.242368 239.03976,77.242368   C 242.19658,77.242368 245.07369,78.001605 247.59116,79.480119   C 250.14859,80.998593 252.06666,83.116465 253.4253,85.833734   C 254.74397,88.551003 255.42329,91.62791 255.42329,95.024497   C 255.42329,98.540962 254.70401,101.65783 253.30542,104.3751   C 251.90682,107.13233 249.90883,109.21024 247.3514,110.60883   C 244.75401,112.04739 241.99678,112.72671 238.9998,112.72671   C 235.76305,112.72671 232.88594,111.96747 230.32851,110.40903   C 227.81104,108.8506 225.89297,106.73273 224.57429,104.01546   C 223.25562,101.29819 222.5763,98.461043 222.5763,95.424095   z  M 227.29156,95.504015   C 227.29156,99.659838 228.37048,102.89658 230.60823,105.29418   C 232.84598,107.65181 235.64317,108.8506 238.9998,108.8506   C 242.39638,108.8506 245.23353,107.65181 247.43132,105.25422   C 249.62911,102.85663 250.74799,99.420079 250.74799,95.024497   C 250.74799,92.227308 250.26847,89.789758 249.30943,87.711846   C 248.39036,85.633935 246.99176,83.995581 245.19357,82.876706   C 243.35542,81.71787 241.31747,81.118473 239.03976,81.118473   C 235.84297,81.118473 233.08574,82.237348 230.76807,84.435139   C 228.4504,86.67289 227.29156,90.349195 227.29156,95.504015   z  M 270.00863,112.16727   L 270.00863,81.87771   L 258.7,81.87771   L 258.7,77.841766   L 285.91265,77.841766   L 285.91265,81.87771   L 274.56405,81.87771   L 274.56405,112.16727   z "
     style="fill:#000000;fill-rule:evenodd;fill-opacity:1;stroke:none;" />
</svg>
