<?xml version="1.0" encoding="UTF-8" standalone="no"?>
<svg
   xmlns:dc="http://purl.org/dc/elements/1.1/"
   xmlns:cc="http://creativecommons.org/ns#"
   xmlns:rdf="http://www.w3.org/1999/02/22-rdf-syntax-ns#"
   xmlns:svg="http://www.w3.org/2000/svg"
   xmlns="http://www.w3.org/2000/svg"
   id="svg11"
   height="130.27mm"
   width="130.27mm"
   version="1.0">
  <metadata
     id="metadata15">
    <rdf:RDF>
      <cc:Work
         rdf:about="">
        <dc:format>image/svg+xml</dc:format>
        <dc:type
           rdf:resource="http://purl.org/dc/dcmitype/StillImage" />
      </cc:Work>
    </rdf:RDF>
  </metadata>
  <defs
     id="defs3">
    <pattern
       y="0"
       x="0"
       height="6"
       width="6"
       patternUnits="userSpaceOnUse"
       id="EMFhbasepattern" />
  </defs>
  <path
     id="path5"
     d="  M 164.63454,327.67068   C 164.63454,437.95983 327.67068,437.95983 327.67068,327.67068   C 437.95983,327.67068 437.95983,164.63454 327.67068,164.63454   C 327.67068,54.345381 164.63454,54.345381 164.63454,164.63454   C 54.345381,164.63454 54.345381,327.67068 164.63454,327.67068   z "
     style="fill:#ffff80;fill-rule:evenodd;fill-opacity:1;stroke:none;" />
  <path
     id="path7"
     d="  M 164.63454,327.67068   C 164.63454,437.95983 327.67068,437.95983 327.67068,327.67068   C 437.95983,327.67068 437.95983,164.63454 327.67068,164.63454   C 327.67068,54.345381 164.63454,54.345381 164.63454,164.63454   C 54.345381,164.63454 54.345381,327.67068 164.63454,327.67068  "
     style="fill:none;stroke:#000000;stroke-width:9.5903616px;stroke-linecap:butt;stroke-linejoin:miter;stroke-miterlimit:10;stroke-dasharray:none;stroke-opacity:1;" />
  <path
     id="path9"
     d="  M 227.851,247.03172   L 236.04277,249.06968   C 234.32449,255.82289 231.24759,260.93775 226.77209,264.45421   C 222.33654,267.97068 216.902,269.72891 210.46847,269.72891   C 203.79518,269.72891 198.4006,268.37028 194.20482,265.69297   C 190.04899,262.9757 186.85221,259.01967 184.69437,253.90482   C 182.49658,248.75 181.41767,243.23554 181.41767,237.32148   C 181.41767,230.88795 182.65642,225.29357 185.09397,220.49839   C 187.57148,215.70321 191.04799,212.06686 195.60341,209.58935   C 200.15883,207.07188 205.15381,205.83313 210.58835,205.83313   C 216.78213,205.83313 221.9769,207.43152 226.17269,210.58835   C 230.40843,213.70522 233.3255,218.14076 235.00381,223.85502   L 226.93192,225.73313   C 225.49337,221.25763 223.41546,217.98092 220.69819,215.90301   C 217.98092,213.86506 214.54437,212.8261 210.42851,212.8261   C 205.67329,212.8261 201.71727,213.98494 198.52048,216.26265   C 195.32369,218.54036 193.08594,221.57731 191.76727,225.41345   C 190.48855,229.2496 189.84919,233.20562 189.84919,237.28152   C 189.84919,242.55622 190.60843,247.11164 192.1269,251.06767   C 193.68534,254.98373 196.04297,257.9008 199.27972,259.81887   C 202.51646,261.7769 206.03293,262.73594 209.78915,262.73594   C 214.34458,262.73594 218.26064,261.41727 221.41747,258.77992   C 224.57429,256.14257 226.73213,252.2265 227.851,247.03172   z  M 247.51124,268.68996   L 247.51124,206.91205   L 255.66305,206.91205   L 255.66305,268.68996   z  M 287.7508,268.68996   L 263.81486,206.91205   L 272.64598,206.91205   L 288.70984,251.78694   C 290.02851,255.38333 291.10743,258.73996 291.94658,261.89678   C 292.90562,258.54016 294.02449,255.14357 295.30321,251.78694   L 311.96646,206.91205   L 320.31807,206.91205   L 296.14237,268.68996   z "
     style="fill:#000000;fill-rule:evenodd;fill-opacity:1;stroke:none;" />
</svg>
