<?xml version="1.0" encoding="UTF-8" standalone="no"?>
<svg
   xmlns:dc="http://purl.org/dc/elements/1.1/"
   xmlns:cc="http://creativecommons.org/ns#"
   xmlns:rdf="http://www.w3.org/1999/02/22-rdf-syntax-ns#"
   xmlns:svg="http://www.w3.org/2000/svg"
   xmlns="http://www.w3.org/2000/svg"
   id="svg15"
   height="130.27mm"
   width="130.27mm"
   version="1.0">
  <metadata
     id="metadata19">
    <rdf:RDF>
      <cc:Work
         rdf:about="">
        <dc:format>image/svg+xml</dc:format>
        <dc:type
           rdf:resource="http://purl.org/dc/dcmitype/StillImage" />
      </cc:Work>
    </rdf:RDF>
  </metadata>
  <defs
     id="defs3">
    <pattern
       y="0"
       x="0"
       height="6"
       width="6"
       patternUnits="userSpaceOnUse"
       id="EMFhbasepattern" />
  </defs>
  <path
     id="path5"
     d="  M 164.63454,327.67068   C 164.63454,437.95983 327.67068,437.95983 327.67068,327.67068   C 437.95983,327.67068 437.95983,164.63454 327.67068,164.63454   C 327.67068,54.345381 164.63454,54.345381 164.63454,164.63454   C 54.345381,164.63454 54.345381,327.67068 164.63454,327.67068   z "
     style="fill:#ffff80;fill-rule:evenodd;fill-opacity:1;stroke:none;" />
  <path
     id="path7"
     d="  M 164.63454,327.67068   C 164.63454,437.95983 327.67068,437.95983 327.67068,327.67068   C 437.95983,327.67068 437.95983,164.63454 327.67068,164.63454   C 327.67068,54.345381 164.63454,54.345381 164.63454,164.63454   C 54.345381,164.63454 54.345381,327.67068 164.63454,327.67068  "
     style="fill:none;stroke:#000000;stroke-width:9.5903616px;stroke-linecap:butt;stroke-linejoin:miter;stroke-miterlimit:10;stroke-dasharray:none;stroke-opacity:1;" />
  <path
     id="path9"
     d="  M 237.84096,275.76285   L 254.78393,275.76285   L 254.78393,247.51124   L 313.16526,247.51124   L 313.16526,187.89116   L 298.1004,187.89116   L 298.1004,232.44638   L 254.78393,232.44638   L 254.78393,206.71225   C 254.78393,204.4745 259.77891,203.6753 261.89678,202.55642   C 263.73494,201.55743 267.0516,199.11988 268.4502,197.8012   C 272.04658,194.36466 276.12249,189.16988 277.52108,183.61546   C 281.35722,168.47068 276.96164,158.36084 268.4502,149.76948   C 261.17751,142.45683 246.27249,138.06124 234.04478,143.29598   C 225.41345,147.05221 213.98494,158.04116 213.98494,169.66948   L 213.98494,177.22188   C 213.98494,183.85522 218.54036,192.1269 221.9769,195.56345   C 224.33453,197.96104 226.21265,199.71927 229.2496,201.47751   C 231.56727,202.83614 237.84096,204.71425 237.84096,206.71225   L 237.84096,232.44638   L 194.5245,232.44638   L 194.5245,187.89116   L 179.45964,187.89116   L 179.45964,247.51124   L 237.84096,247.51124   z "
     style="fill:#000000;fill-rule:evenodd;fill-opacity:1;stroke:none;" />
  <path
     id="path11"
     d="  M 237.84096,275.76285   L 237.84096,275.76285   L 220.89799,275.76285   L 220.89799,344.13413   L 237.84096,344.13413   z "
     style="fill:#000000;fill-rule:evenodd;fill-opacity:1;stroke:none;" />
  <path
     id="path13"
     d="  M 254.78393,275.76285   L 254.78393,275.76285   L 254.78393,344.13413   L 271.7269,344.13413   L 271.7269,275.76285   z "
     style="fill:#000000;fill-rule:evenodd;fill-opacity:1;stroke:none;" />
</svg>
