<?xml version="1.0" encoding="UTF-8" standalone="no"?>
<svg
   xmlns:dc="http://purl.org/dc/elements/1.1/"
   xmlns:cc="http://creativecommons.org/ns#"
   xmlns:rdf="http://www.w3.org/1999/02/22-rdf-syntax-ns#"
   xmlns:svg="http://www.w3.org/2000/svg"
   xmlns="http://www.w3.org/2000/svg"
   id="svg15"
   height="95.75mm"
   width="95.75mm"
   version="1.0">
  <metadata
     id="metadata19">
    <rdf:RDF>
      <cc:Work
         rdf:about="">
        <dc:format>image/svg+xml</dc:format>
        <dc:type
           rdf:resource="http://purl.org/dc/dcmitype/StillImage" />
      </cc:Work>
    </rdf:RDF>
  </metadata>
  <defs
     id="defs3">
    <pattern
       y="0"
       x="0"
       height="6"
       width="6"
       patternUnits="userSpaceOnUse"
       id="EMFhbasepattern" />
  </defs>
  <path
     id="path5"
     d="  M 54.345381,54.345381   L 54.345381,307.53092   L 307.53092,307.53092   L 307.53092,54.345381   L 54.345381,54.345381   z "
     style="fill:#aaffaa;fill-rule:evenodd;fill-opacity:1;stroke:none;" />
  <path
     id="path7"
     d="  M 54.345381,54.345381   L 307.53092,54.345381   L 307.53092,307.53092   L 54.345381,307.53092   z "
     style="fill:none;stroke:#000000;stroke-width:9.5903616px;stroke-linecap:butt;stroke-linejoin:miter;stroke-miterlimit:10;stroke-dasharray:none;stroke-opacity:1;" />
  <path
     id="path9"
     d="  M 54.345381,224.09478   L 286.43212,224.09478  "
     style="fill:none;stroke:#000000;stroke-width:9.5903616px;stroke-linecap:butt;stroke-linejoin:miter;stroke-miterlimit:10;stroke-dasharray:none;stroke-opacity:1;" />
  <path
     id="path11"
     d="  M 307.53092,54.345381   L 307.53092,54.345381   L 272.04658,180.93815   L 307.53092,307.53092  "
     style="fill:none;stroke:#000000;stroke-width:9.5903616px;stroke-linecap:butt;stroke-linejoin:miter;stroke-miterlimit:10;stroke-dasharray:none;stroke-opacity:1;" />
  <path
     id="path13"
     d="  M 170.30883,180.85823   L 178.5006,182.89618   C 176.78233,189.64939 173.70542,194.76425 169.22992,198.28072   C 164.79438,201.79719 159.35984,203.55542 152.9263,203.55542   C 146.25301,203.55542 140.85843,202.19678 136.66265,199.51948   C 132.50683,196.80221 129.31004,192.84618 127.15221,187.73132   C 124.95442,182.5765 123.8755,177.06205 123.8755,171.14799   C 123.8755,164.71446 125.11426,159.12008 127.55181,154.3249   C 130.02932,149.52972 133.50582,145.89337 138.06124,143.41586   C 142.61666,140.89839 147.61164,139.65964 153.04618,139.65964   C 159.23996,139.65964 164.43474,141.25803 168.63052,144.41486   C 172.86626,147.53172 175.78333,151.96727 177.46164,157.68152   L 169.38976,159.55964   C 167.9512,155.08413 165.87329,151.80743 163.15602,149.72952   C 160.43875,147.69156 157.00221,146.65261 152.88634,146.65261   C 148.13112,146.65261 144.1751,147.81144 140.97831,150.08915   C 137.78152,152.36687 135.54377,155.40381 134.2251,159.23996   C 132.94638,163.0761 132.30703,167.03213 132.30703,171.10803   C 132.30703,176.38273 133.06626,180.93815 134.58474,184.89417   C 136.14317,188.81024 138.5008,191.72731 141.73755,193.64538   C 144.9743,195.60341 148.49076,196.56245 152.24699,196.56245   C 156.80241,196.56245 160.71847,195.24377 163.8753,192.60642   C 167.03213,189.96907 169.18996,186.05301 170.30883,180.85823   z  M 181.77731,202.51646   L 205.51345,140.73855   L 214.30462,140.73855   L 239.59919,202.51646   L 230.28855,202.51646   L 223.09578,183.81526   L 197.24176,183.81526   L 190.44859,202.51646   z  M 199.59939,177.14197   L 220.53835,177.14197   L 214.10482,160.03915   C 212.14678,154.84438 210.66827,150.56867 209.70923,147.21205   C 208.95,151.16807 207.83112,155.12409 206.39257,159.0002   z "
     style="fill:#000000;fill-rule:evenodd;fill-opacity:1;stroke:none;" />
</svg>
