<?xml version="1.0" encoding="UTF-8" standalone="no"?>
<svg
   xmlns:dc="http://purl.org/dc/elements/1.1/"
   xmlns:cc="http://creativecommons.org/ns#"
   xmlns:rdf="http://www.w3.org/1999/02/22-rdf-syntax-ns#"
   xmlns:svg="http://www.w3.org/2000/svg"
   xmlns="http://www.w3.org/2000/svg"
   id="svg15"
   height="130.27mm"
   width="130.27mm"
   version="1.0">
  <metadata
     id="metadata19">
    <rdf:RDF>
      <cc:Work
         rdf:about="">
        <dc:format>image/svg+xml</dc:format>
        <dc:type
           rdf:resource="http://purl.org/dc/dcmitype/StillImage" />
      </cc:Work>
    </rdf:RDF>
  </metadata>
  <defs
     id="defs3">
    <pattern
       y="0"
       x="0"
       height="6"
       width="6"
       patternUnits="userSpaceOnUse"
       id="EMFhbasepattern" />
  </defs>
  <path
     id="path5"
     d="  M 164.63454,327.67068   C 164.63454,437.95983 327.67068,437.95983 327.67068,327.67068   C 437.95983,327.67068 437.95983,164.63454 327.67068,164.63454   C 327.67068,54.345381 164.63454,54.345381 164.63454,164.63454   C 54.345381,164.63454 54.345381,327.67068 164.63454,327.67068   z "
     style="fill:#ffff80;fill-rule:evenodd;fill-opacity:1;stroke:none;" />
  <path
     id="path7"
     d="  M 164.63454,327.67068   C 164.63454,437.95983 327.67068,437.95983 327.67068,327.67068   C 437.95983,327.67068 437.95983,164.63454 327.67068,164.63454   C 327.67068,54.345381 164.63454,54.345381 164.63454,164.63454   C 54.345381,164.63454 54.345381,327.67068 164.63454,327.67068  "
     style="fill:none;stroke:#000000;stroke-width:9.5903616px;stroke-linecap:butt;stroke-linejoin:miter;stroke-miterlimit:10;stroke-dasharray:none;stroke-opacity:1;" />
  <path
     id="path9"
     d="  M 92.706826,289.30923   L 380.41767,289.30923  "
     style="fill:none;stroke:#000000;stroke-width:9.5903616px;stroke-linecap:butt;stroke-linejoin:miter;stroke-miterlimit:10;stroke-dasharray:none;stroke-opacity:1;" />
  <path
     id="path11"
     d="  M 390.00803,188.61044   L 390.00803,188.61044   L 351.64658,246.15261   L 390.00803,303.69477  "
     style="fill:none;stroke:#000000;stroke-width:9.5903616px;stroke-linecap:butt;stroke-linejoin:miter;stroke-miterlimit:10;stroke-dasharray:none;stroke-opacity:1;" />
  <path
     id="path13"
     d="  M 322.8755,239.71907   C 322.8755,251.66706 320.71767,259.89879 316.32208,264.45421   C 311.48694,269.76887 305.53293,272.44618 298.42008,272.44618   C 292.18634,272.44618 286.79176,270.40823 282.19638,266.37229   C 278.28032,263.09558 275.16345,255.70301 272.88574,244.0747   L 201.79719,244.0747   L 201.79719,268.4502   L 194.00502,268.4502   L 194.00502,244.0747   L 177.22188,244.0747   L 177.22188,268.4502   L 169.42972,268.4502   L 169.42972,235.48333   L 272.88574,235.48333   C 275.20341,224.13474 278.08052,216.902 281.51706,213.86506   C 285.87269,209.82911 291.26726,207.79116 297.7008,207.79116   C 304.61385,207.79116 310.52791,210.42851 315.48293,215.62329   C 320.43795,220.81807 322.8755,228.85 322.8755,239.71907   z  M 177.22188,268.4502   L 177.22188,261.85682   L 194.00502,261.85682   L 194.00502,268.4502   z  M 315.08333,239.71907   C 315.08333,230.96787 313.36506,224.85401 309.92851,221.45743   C 306.49196,218.06084 302.45602,216.38253 297.86064,216.38253   C 293.0255,216.38253 288.98955,218.02088 285.75281,221.29759   C 282.55602,224.53433 280.91767,230.68815 280.91767,239.71907   C 280.91767,248.5502 282.71586,254.74397 286.27229,258.38032   C 289.82871,262.05662 293.94457,263.85482 298.53996,263.85482   C 303.13534,263.85482 307.0514,262.21646 310.28815,258.93976   C 313.48494,255.70301 315.08333,249.26947 315.08333,239.71907   z "
     style="fill:#000000;fill-rule:evenodd;fill-opacity:1;stroke:none;" />
</svg>
