<?xml version="1.0" encoding="UTF-8" standalone="no"?>
<svg
   xmlns:dc="http://purl.org/dc/elements/1.1/"
   xmlns:cc="http://creativecommons.org/ns#"
   xmlns:rdf="http://www.w3.org/1999/02/22-rdf-syntax-ns#"
   xmlns:svg="http://www.w3.org/2000/svg"
   xmlns="http://www.w3.org/2000/svg"
   id="svg11"
   height="95.75mm"
   width="95.75mm"
   version="1.0">
  <metadata
     id="metadata15">
    <rdf:RDF>
      <cc:Work
         rdf:about="">
        <dc:format>image/svg+xml</dc:format>
        <dc:type
           rdf:resource="http://purl.org/dc/dcmitype/StillImage" />
      </cc:Work>
    </rdf:RDF>
  </metadata>
  <defs
     id="defs3">
    <pattern
       y="0"
       x="0"
       height="6"
       width="6"
       patternUnits="userSpaceOnUse"
       id="EMFhbasepattern" />
  </defs>
  <path
     id="path5"
     d="  M 54.345381,54.345381   L 54.345381,307.53092   L 307.53092,307.53092   L 307.53092,54.345381   L 54.345381,54.345381   z "
     style="fill:#aaffaa;fill-rule:evenodd;fill-opacity:1;stroke:none;" />
  <path
     id="path7"
     d="  M 54.345381,54.345381   L 307.53092,54.345381   L 307.53092,307.53092   L 54.345381,307.53092   z "
     style="fill:none;stroke:#000000;stroke-width:9.5903616px;stroke-linecap:butt;stroke-linejoin:miter;stroke-miterlimit:10;stroke-dasharray:none;stroke-opacity:1;" />
  <path
     id="path9"
     d="  M 224.41445,150.28895   C 234.52429,162.71646 239.59919,176.10301 239.59919,190.36867   C 239.59919,206.47249 233.80502,219.93895 222.1767,230.76807   C 210.54839,241.59719 197.04197,246.99176 181.61747,246.99176   C 165.71345,246.99176 152.08715,241.47731 140.69859,230.44839   C 129.31004,219.41947 123.59578,205.75321 123.59578,189.40964   C 123.59578,175.38373 128.67068,162.51666 138.78052,150.76847   C 131.86747,145.25401 121.63775,134.34498 108.0514,118.04136   C 112.88654,121.23815 124.63474,130.70863 143.29598,146.33293   C 154.3249,136.46285 166.99217,131.46787 181.25783,131.46787   C 180.77831,131.46787 183.09598,131.82751 188.17088,132.50683   C 199.67931,133.90542 210.14879,138.38092 219.57931,146.01325   L 254.10461,115.72369   C 243.2755,130.94839 233.40542,142.45683 224.41445,150.28895   z "
     style="fill:#000000;fill-rule:evenodd;fill-opacity:1;stroke:none;" />
</svg>
