<?xml version="1.0" encoding="UTF-8" standalone="no"?>
<svg
   xmlns:dc="http://purl.org/dc/elements/1.1/"
   xmlns:cc="http://creativecommons.org/ns#"
   xmlns:rdf="http://www.w3.org/1999/02/22-rdf-syntax-ns#"
   xmlns:svg="http://www.w3.org/2000/svg"
   xmlns="http://www.w3.org/2000/svg"
   id="svg9"
   height="51.439999mm"
   width="63.110001mm"
   version="1.0">
  <metadata
     id="metadata13">
    <rdf:RDF>
      <cc:Work
         rdf:about="">
        <dc:format>image/svg+xml</dc:format>
        <dc:type
           rdf:resource="http://purl.org/dc/dcmitype/StillImage" />
      </cc:Work>
    </rdf:RDF>
  </metadata>
  <defs
     id="defs3">
    <pattern
       y="0"
       x="0"
       height="6"
       width="6"
       patternUnits="userSpaceOnUse"
       id="EMFhbasepattern" />
  </defs>
  <path
     id="path5"
     d="  M 119.95944,11.308634   L 122.8765,54.46526   L 119.95944,54.46526   C 116.08333,41.558232 110.56887,32.24759 103.3761,26.573293   C 96.223292,20.898996 87.591967,18.061847 77.562047,18.061847   C 69.130521,18.061847 61.498192,20.219678 54.705019,24.455421   C 47.911847,28.771084 42.517268,35.564257 38.641164,44.954819   C 34.7251,54.305421 32.767068,65.933734 32.767068,79.879718   C 32.767068,91.348191 34.60522,101.33815 38.321485,109.72972   C 41.997791,118.16124 47.512248,124.63474 54.944778,129.1502   C 62.337348,133.6257 70.768874,135.86345 80.279316,135.86345   C 88.511043,135.86345 95.783734,134.10522 102.09739,130.58875   C 108.41104,127.07229 115.32409,120.03936 122.8765,109.56988   L 125.79357,111.40803   C 119.4,122.75662 111.96747,130.98835 103.49598,136.26305   C 94.984537,141.49779 84.914657,144.09518 73.246384,144.09518   C 52.187549,144.09518 35.923895,136.30301 24.335542,120.71867   C 15.744176,109.09036 11.428514,95.424095 11.428514,79.679919   C 11.428514,67.01265 14.265662,55.384337 19.93996,44.755019   C 25.614257,34.125702 33.446385,25.933935 43.396385,20.059839   C 53.386345,14.225703 64.255421,11.308634 76.043573,11.308634   C 85.234336,11.308634 94.26526,13.546385 103.21626,18.061847   C 105.81365,19.420482 107.69177,20.099799 108.81064,20.099799   C 110.52891,20.099799 111.96747,19.540361 113.24618,18.341566   C 114.84458,16.663253 116.00341,14.305622 116.68273,11.308634   z  M 133.54578,55.424296   L 173.54558,55.424296   L 173.54558,58.900802   L 171.58755,58.900802   C 168.7504,58.900802 166.67249,59.5002 165.27389,60.738955   C 163.83534,61.93775 163.15602,63.456224 163.15602,65.254417   C 163.15602,67.691967 164.19498,71.048593 166.23293,75.364256   L 187.13193,118.64076   L 206.31265,71.248393   C 207.39156,68.690963 207.91104,66.173493 207.91104,63.656023   C 207.91104,62.537148 207.71124,61.697991 207.27168,61.138553   C 206.75221,60.459236 205.99297,59.899798 204.91405,59.5002   C 203.8751,59.100602 201.99699,58.900802 199.27972,58.900802   L 199.27972,55.424296   L 227.21164,55.424296   L 227.21164,58.900802   C 224.89397,59.140561 223.13574,59.660039 221.85702,60.379316   C 220.61827,61.138553 219.25964,62.537148 217.74116,64.615059   C 217.18172,65.494176 216.14277,67.891766 214.54437,71.80783   L 179.61948,157.4018   C 176.26285,165.71345 171.82731,171.98715 166.39277,176.22289   C 160.91827,180.49859 155.64357,182.61646 150.60863,182.61646   C 146.93233,182.61646 143.89538,181.53755 141.49779,179.41968   C 139.14016,177.3018 137.94136,174.86425 137.94136,172.10703   C 137.94136,169.50964 138.82048,167.39176 140.53875,165.79337   C 142.25703,164.19498 144.61466,163.39578 147.61164,163.39578   C 149.6496,163.39578 152.48674,164.11506 156.04317,165.47369   C 158.52068,166.39277 160.07911,166.87229 160.71847,166.87229   C 162.59658,166.87229 164.63454,165.91325 166.83233,163.95522   C 169.07008,162.03715 171.30783,158.28092 173.54558,152.7265   L 179.61948,137.82148   L 148.81044,73.126505   C 147.89136,71.208433 146.37289,68.810842 144.33494,65.893774   C 142.7765,63.735943 141.49779,62.257429 140.49879,61.498192   C 139.06024,60.499196 136.74257,59.660039 133.54578,58.900802   z "
     style="fill:#000000;fill-rule:evenodd;fill-opacity:1;stroke:none;" />
  <path
     id="path7"
     d="  M 119.95944,11.308634   L 122.8765,54.46526   L 119.95944,54.46526   C 116.08333,41.558232 110.56887,32.24759 103.3761,26.573293   C 96.223292,20.898996 87.591967,18.061847 77.562047,18.061847   C 69.130521,18.061847 61.498192,20.219678 54.705019,24.455421   C 47.911847,28.771084 42.517268,35.564257 38.641164,44.954819   C 34.7251,54.305421 32.767068,65.933734 32.767068,79.879718   C 32.767068,91.348191 34.60522,101.33815 38.321485,109.72972   C 41.997791,118.16124 47.512248,124.63474 54.944778,129.1502   C 62.337348,133.6257 70.768874,135.86345 80.279316,135.86345   C 88.511043,135.86345 95.783734,134.10522 102.09739,130.58875   C 108.41104,127.07229 115.32409,120.03936 122.8765,109.56988   L 125.79357,111.40803   C 119.4,122.75662 111.96747,130.98835 103.49598,136.26305   C 94.984537,141.49779 84.914657,144.09518 73.246384,144.09518   C 52.187549,144.09518 35.923895,136.30301 24.335542,120.71867   C 15.744176,109.09036 11.428514,95.424095 11.428514,79.679919   C 11.428514,67.01265 14.265662,55.384337 19.93996,44.755019   C 25.614257,34.125702 33.446385,25.933935 43.396385,20.059839   C 53.386345,14.225703 64.255421,11.308634 76.043573,11.308634   C 85.234336,11.308634 94.26526,13.546385 103.21626,18.061847   C 105.81365,19.420482 107.69177,20.099799 108.81064,20.099799   C 110.52891,20.099799 111.96747,19.540361 113.24618,18.341566   C 114.84458,16.663253 116.00341,14.305622 116.68273,11.308634   z  M 133.54578,55.424296   L 173.54558,55.424296   L 173.54558,58.900802   L 171.58755,58.900802   C 168.7504,58.900802 166.67249,59.5002 165.27389,60.738955   C 163.83534,61.93775 163.15602,63.456224 163.15602,65.254417   C 163.15602,67.691967 164.19498,71.048593 166.23293,75.364256   L 187.13193,118.64076   L 206.31265,71.248393   C 207.39156,68.690963 207.91104,66.173493 207.91104,63.656023   C 207.91104,62.537148 207.71124,61.697991 207.27168,61.138553   C 206.75221,60.459236 205.99297,59.899798 204.91405,59.5002   C 203.8751,59.100602 201.99699,58.900802 199.27972,58.900802   L 199.27972,55.424296   L 227.21164,55.424296   L 227.21164,58.900802   C 224.89397,59.140561 223.13574,59.660039 221.85702,60.379316   C 220.61827,61.138553 219.25964,62.537148 217.74116,64.615059   C 217.18172,65.494176 216.14277,67.891766 214.54437,71.80783   L 179.61948,157.4018   C 176.26285,165.71345 171.82731,171.98715 166.39277,176.22289   C 160.91827,180.49859 155.64357,182.61646 150.60863,182.61646   C 146.93233,182.61646 143.89538,181.53755 141.49779,179.41968   C 139.14016,177.3018 137.94136,174.86425 137.94136,172.10703   C 137.94136,169.50964 138.82048,167.39176 140.53875,165.79337   C 142.25703,164.19498 144.61466,163.39578 147.61164,163.39578   C 149.6496,163.39578 152.48674,164.11506 156.04317,165.47369   C 158.52068,166.39277 160.07911,166.87229 160.71847,166.87229   C 162.59658,166.87229 164.63454,165.91325 166.83233,163.95522   C 169.07008,162.03715 171.30783,158.28092 173.54558,152.7265   L 179.61948,137.82148   L 148.81044,73.126505   C 147.89136,71.208433 146.37289,68.810842 144.33494,65.893774   C 142.7765,63.735943 141.49779,62.257429 140.49879,61.498192   C 139.06024,60.499196 136.74257,59.660039 133.54578,58.900802   z "
     style="fill:none;stroke:#000000;stroke-width:0.95903611px;stroke-linecap:butt;stroke-linejoin:miter;stroke-miterlimit:10;stroke-dasharray:none;stroke-opacity:1;" />
</svg>
