<?xml version="1.0" encoding="UTF-8" standalone="no"?>
<svg
   xmlns:dc="http://purl.org/dc/elements/1.1/"
   xmlns:cc="http://creativecommons.org/ns#"
   xmlns:rdf="http://www.w3.org/1999/02/22-rdf-syntax-ns#"
   xmlns:svg="http://www.w3.org/2000/svg"
   xmlns="http://www.w3.org/2000/svg"
   id="svg11"
   height="130.27mm"
   width="130.27mm"
   version="1.0">
  <metadata
     id="metadata15">
    <rdf:RDF>
      <cc:Work
         rdf:about="">
        <dc:format>image/svg+xml</dc:format>
        <dc:type
           rdf:resource="http://purl.org/dc/dcmitype/StillImage" />
      </cc:Work>
    </rdf:RDF>
  </metadata>
  <defs
     id="defs3">
    <pattern
       y="0"
       x="0"
       height="6"
       width="6"
       patternUnits="userSpaceOnUse"
       id="EMFhbasepattern" />
  </defs>
  <path
     id="path5"
     d="  M 164.63454,327.67068   C 164.63454,437.95983 327.67068,437.95983 327.67068,327.67068   C 437.95983,327.67068 437.95983,164.63454 327.67068,164.63454   C 327.67068,54.345381 164.63454,54.345381 164.63454,164.63454   C 54.345381,164.63454 54.345381,327.67068 164.63454,327.67068   z "
     style="fill:#ffff80;fill-rule:evenodd;fill-opacity:1;stroke:none;" />
  <path
     id="path7"
     d="  M 164.63454,327.67068   C 164.63454,437.95983 327.67068,437.95983 327.67068,327.67068   C 437.95983,327.67068 437.95983,164.63454 327.67068,164.63454   C 327.67068,54.345381 164.63454,54.345381 164.63454,164.63454   C 54.345381,164.63454 54.345381,327.67068 164.63454,327.67068  "
     style="fill:none;stroke:#000000;stroke-width:9.5903616px;stroke-linecap:butt;stroke-linejoin:miter;stroke-miterlimit:10;stroke-dasharray:none;stroke-opacity:1;" />
  <path
     id="path9"
     d="  M 289.62891,215.50341   C 299.73875,227.93092 304.81365,241.31747 304.81365,255.58313   C 304.81365,271.68694 299.01947,285.15341 287.39116,295.98253   C 275.76285,306.81164 262.25642,312.20622 246.83192,312.20622   C 230.92791,312.20622 217.3016,306.69176 205.91305,295.66285   C 194.5245,284.63393 188.81024,270.96767 188.81024,254.62409   C 188.81024,240.59819 193.88514,227.73112 203.99498,215.98293   C 197.08192,210.46847 186.85221,199.55943 173.26586,183.25582   C 178.101,186.45261 189.84919,195.92309 208.51044,211.54739   C 219.53935,201.67731 232.20662,196.68233 246.47229,196.68233   C 245.99277,196.68233 248.31044,197.04197 253.38534,197.72128   C 264.89377,199.11988 275.36325,203.59538 284.79377,211.22771   L 319.31907,180.93815   C 308.48996,196.16285 298.61988,207.67128 289.62891,215.50341   z "
     style="fill:#000000;fill-rule:evenodd;fill-opacity:1;stroke:none;" />
</svg>
