<?xml version="1.0" encoding="UTF-8" standalone="no"?>
<svg
   xmlns:dc="http://purl.org/dc/elements/1.1/"
   xmlns:cc="http://creativecommons.org/ns#"
   xmlns:rdf="http://www.w3.org/1999/02/22-rdf-syntax-ns#"
   xmlns:svg="http://www.w3.org/2000/svg"
   xmlns="http://www.w3.org/2000/svg"
   id="svg11"
   height="101.85mm"
   width="101.85mm"
   version="1.0">
  <metadata
     id="metadata15">
    <rdf:RDF>
      <cc:Work
         rdf:about="">
        <dc:format>image/svg+xml</dc:format>
        <dc:type
           rdf:resource="http://purl.org/dc/dcmitype/StillImage" />
      </cc:Work>
    </rdf:RDF>
  </metadata>
  <defs
     id="defs3">
    <pattern
       y="0"
       x="0"
       height="6"
       width="6"
       patternUnits="userSpaceOnUse"
       id="EMFhbasepattern" />
  </defs>
  <path
     id="path5"
     d="  M 330.54779,192.44658   C 330.54779,268.72992 268.72992,330.54779 192.44658,330.54779   C 116.20321,330.54779 54.345381,268.72992 54.345381,192.44658   C 54.345381,116.20321 116.20321,54.345381 192.44658,54.345381   C 268.72992,54.345381 330.54779,116.20321 330.54779,192.44658   z "
     style="fill:#80e0ff;fill-rule:evenodd;fill-opacity:1;stroke:none;" />
  <path
     id="path7"
     d="  M 330.54779,192.44658   C 330.54779,268.72992 268.72992,330.54779 192.44658,330.54779   C 116.20321,330.54779 54.345381,268.72992 54.345381,192.44658   C 54.345381,116.20321 116.20321,54.345381 192.44658,54.345381   C 268.72992,54.345381 330.54779,116.20321 330.54779,192.44658  "
     style="fill:none;stroke:#000000;stroke-width:9.5903616px;stroke-linecap:butt;stroke-linejoin:miter;stroke-miterlimit:10;stroke-dasharray:none;stroke-opacity:1;" />
  <path
     id="path9"
     d="  M 235.92289,161.79739   C 246.03273,174.2249 251.10763,187.61144 251.10763,201.87711   C 251.10763,217.98092 245.31345,231.44739 233.68514,242.2765   C 222.05682,253.10562 208.5504,258.5002 193.1259,258.5002   C 177.22188,258.5002 163.59558,252.98574 152.20703,241.95682   C 140.81847,230.92791 135.10421,217.26164 135.10421,200.91807   C 135.10421,186.89217 140.17911,174.0251 150.28895,162.27691   C 143.3759,156.76245 133.14618,145.85341 119.55984,129.5498   C 124.39498,132.74658 136.14317,142.21707 154.80442,157.84136   C 165.83333,147.97128 178.5006,142.9763 192.76626,142.9763   C 192.28674,142.9763 194.60441,143.33594 199.67931,144.01526   C 211.18775,145.41385 221.65723,149.88936 231.08775,157.52168   L 265.61305,127.23213   C 254.78393,142.45683 244.91385,153.96526 235.92289,161.79739   z "
     style="fill:#000000;fill-rule:evenodd;fill-opacity:1;stroke:none;" />
</svg>
