<?xml version="1.0" encoding="UTF-8" standalone="no"?>
<svg
   xmlns:dc="http://purl.org/dc/elements/1.1/"
   xmlns:cc="http://creativecommons.org/ns#"
   xmlns:rdf="http://www.w3.org/1999/02/22-rdf-syntax-ns#"
   xmlns:svg="http://www.w3.org/2000/svg"
   xmlns="http://www.w3.org/2000/svg"
   id="svg9"
   height="30.120001mm"
   width="25.219999mm"
   version="1.0">
  <metadata
     id="metadata13">
    <rdf:RDF>
      <cc:Work
         rdf:about="">
        <dc:format>image/svg+xml</dc:format>
        <dc:type
           rdf:resource="http://purl.org/dc/dcmitype/StillImage" />
      </cc:Work>
    </rdf:RDF>
  </metadata>
  <defs
     id="defs3">
    <pattern
       y="0"
       x="0"
       height="6"
       width="6"
       patternUnits="userSpaceOnUse"
       id="EMFhbasepattern" />
  </defs>
  <path
     id="path5"
     d="  M 83.675902,67.052609   C 81.358232,78.361244 76.84277,87.072489 70.089557,93.146384   C 63.336344,99.22028 55.903814,102.25723 47.712048,102.25723   C 37.961847,102.25723 29.490361,98.181324 22.21767,90.029517   C 14.98494,81.83775 11.388554,70.768874 11.388554,56.862851   C 11.388554,43.356425 15.384538,32.407429 23.416466,23.975903   C 31.448393,15.544377 41.038754,11.348594 52.307429,11.348594   C 60.738955,11.348594 67.652007,13.586345 73.086545,18.021887   C 78.521083,22.497389 81.238352,27.132731 81.238352,31.927911   C 81.238352,34.325502 80.479115,36.243574 78.960641,37.722088   C 77.402208,39.160642 75.284336,39.919879 72.527107,39.879919   C 68.850802,39.919879 66.053614,38.721084 64.175501,36.323493   C 63.136545,35.044779 62.417268,32.527309 62.097589,28.851004   C 61.737951,25.174698 60.499196,22.37751 58.301405,20.419478   C 56.103614,18.541365 53.066666,17.622289 49.190562,17.622289   C 42.956827,17.622289 37.921887,19.93996 34.125702,24.535341   C 29.050803,30.649196 26.533333,38.761044 26.533333,48.790963   C 26.533333,59.060642 29.050803,68.091565 34.085742,75.923694   C 39.120682,83.755822 45.913855,87.671886 54.46526,87.671886   C 60.579116,87.671886 66.053614,85.593975 70.928714,81.398192   C 74.36526,78.521083 77.721886,73.326304 80.958633,65.733935   z "
     style="fill:#000000;fill-rule:evenodd;fill-opacity:1;stroke:none;" />
  <path
     id="path7"
     d="  M 83.675902,67.052609   C 81.358232,78.361244 76.84277,87.072489 70.089557,93.146384   C 63.336344,99.22028 55.903814,102.25723 47.712048,102.25723   C 37.961847,102.25723 29.490361,98.181324 22.21767,90.029517   C 14.98494,81.83775 11.388554,70.768874 11.388554,56.862851   C 11.388554,43.356425 15.384538,32.407429 23.416466,23.975903   C 31.448393,15.544377 41.038754,11.348594 52.307429,11.348594   C 60.738955,11.348594 67.652007,13.586345 73.086545,18.021887   C 78.521083,22.497389 81.238352,27.132731 81.238352,31.927911   C 81.238352,34.325502 80.479115,36.243574 78.960641,37.722088   C 77.402208,39.160642 75.284336,39.919879 72.527107,39.879919   C 68.850802,39.919879 66.053614,38.721084 64.175501,36.323493   C 63.136545,35.044779 62.417268,32.527309 62.097589,28.851004   C 61.737951,25.174698 60.499196,22.37751 58.301405,20.419478   C 56.103614,18.541365 53.066666,17.622289 49.190562,17.622289   C 42.956827,17.622289 37.921887,19.93996 34.125702,24.535341   C 29.050803,30.649196 26.533333,38.761044 26.533333,48.790963   C 26.533333,59.060642 29.050803,68.091565 34.085742,75.923694   C 39.120682,83.755822 45.913855,87.671886 54.46526,87.671886   C 60.579116,87.671886 66.053614,85.593975 70.928714,81.398192   C 74.36526,78.521083 77.721886,73.326304 80.958633,65.733935   z "
     style="fill:none;stroke:#000000;stroke-width:0.95903611px;stroke-linecap:butt;stroke-linejoin:miter;stroke-miterlimit:10;stroke-dasharray:none;stroke-opacity:1;" />
</svg>
