<?xml version="1.0" encoding="UTF-8" standalone="no"?>
<svg
   xmlns:dc="http://purl.org/dc/elements/1.1/"
   xmlns:cc="http://creativecommons.org/ns#"
   xmlns:rdf="http://www.w3.org/1999/02/22-rdf-syntax-ns#"
   xmlns:svg="http://www.w3.org/2000/svg"
   xmlns="http://www.w3.org/2000/svg"
   id="svg15"
   height="95.75mm"
   width="95.75mm"
   version="1.0">
  <metadata
     id="metadata19">
    <rdf:RDF>
      <cc:Work
         rdf:about="">
        <dc:format>image/svg+xml</dc:format>
        <dc:type
           rdf:resource="http://purl.org/dc/dcmitype/StillImage" />
      </cc:Work>
    </rdf:RDF>
  </metadata>
  <defs
     id="defs3">
    <pattern
       y="0"
       x="0"
       height="6"
       width="6"
       patternUnits="userSpaceOnUse"
       id="EMFhbasepattern" />
  </defs>
  <path
     id="path5"
     d="  M 132.98634,15.983936   L 132.98634,54.345381   L 228.88996,54.345381   L 228.88996,15.983936   L 132.98634,15.983936   z "
     style="fill:#000000;fill-rule:evenodd;fill-opacity:1;stroke:none;" />
  <path
     id="path7"
     d="  M 54.345381,54.345381   L 54.345381,307.53092   L 307.53092,307.53092   L 307.53092,54.345381   L 54.345381,54.345381   z "
     style="fill:#aaffaa;fill-rule:evenodd;fill-opacity:1;stroke:none;" />
  <path
     id="path9"
     d="  M 54.345381,54.345381   L 307.53092,54.345381   L 307.53092,307.53092   L 54.345381,307.53092   z "
     style="fill:none;stroke:#000000;stroke-width:9.5903616px;stroke-linecap:butt;stroke-linejoin:miter;stroke-miterlimit:10;stroke-dasharray:none;stroke-opacity:1;" />
  <path
     id="path11"
     d="  M 177.22188,203.19578   L 141.77751,203.19578   L 141.77751,279.07951   L 218.5004,279.07951   L 218.5004,203.19578   L 183.05602,203.19578   L 183.05602,174.82429   C 183.05602,173.30582 198.68032,167.59156 201.11787,166.63253   C 204.2747,165.35381 217.74116,159.43976 220.17871,159.3998   C 219.49939,158.48072 184.97409,144.3749 182.65642,144.3749   L 177.22188,144.3749   z "
     style="fill:#000000;fill-rule:evenodd;fill-opacity:1;stroke:none;" />
  <path
     id="path13"
     d="  M 161.35783,113.84558   L 166.07309,115.04438   C 165.11405,118.92048 163.31586,121.87751 160.75843,123.91546   C 158.16104,125.95341 155.04417,126.95241 151.28795,126.95241   C 147.45181,126.95241 144.33494,126.19317 141.93735,124.63474   C 139.4998,123.0763 137.66164,120.79859 136.42289,117.8016   C 135.14417,114.84458 134.54478,111.64779 134.54478,108.2512   C 134.54478,104.53494 135.22409,101.29819 136.66265,98.501003   C 138.1012,95.743774 140.09919,93.665862 142.73654,92.227308   C 145.33393,90.788754 148.251,90.069477 151.36787,90.069477   C 154.96425,90.069477 157.96124,90.948593 160.39879,92.786746   C 162.83634,94.584938 164.51466,97.142368 165.47369,100.45903   L 160.83835,101.53795   C 159.99919,98.940561 158.8004,97.062448 157.24197,95.863653   C 155.64357,94.704818 153.68554,94.10542 151.28795,94.10542   C 148.53072,94.10542 146.25301,94.744778 144.41486,96.063452   C 142.5767,97.382127 141.25803,99.14036 140.53875,101.37811   C 139.77952,103.5759 139.37992,105.85361 139.37992,108.21124   C 139.37992,111.24819 139.85944,113.9255 140.73855,116.16325   C 141.61767,118.44096 142.9763,120.11928 144.85442,121.23815   C 146.73253,122.35703 148.73052,122.91646 150.92831,122.91646   C 153.56566,122.91646 155.80341,122.15723 157.64156,120.63875   C 159.47972,119.12028 160.71847,116.84257 161.35783,113.84558   z  M 170.46867,108.97048   C 170.46867,103.05642 172.06707,98.421083 175.22389,95.064456   C 178.42068,91.70783 182.53654,90.029517 187.57148,90.029517   C 190.84819,90.029517 193.84518,90.828714 196.48253,92.387147   C 199.11988,93.985541 201.15783,96.183332 202.51646,98.980521   C 203.91506,101.81767 204.59437,104.9745 204.59437,108.57088   C 204.59437,112.16727 203.8751,115.40401 202.43654,118.28112   C 200.95803,121.15823 198.88012,123.31606 196.20281,124.75462   C 193.5255,126.23313 190.64839,126.95241 187.53152,126.95241   C 184.1749,126.95241 181.17791,126.15321 178.54056,124.55482   C 175.90321,122.91646 173.86526,120.71867 172.50662,117.88152   C 171.14799,115.08434 170.46867,112.12731 170.46867,108.97048   z  M 175.34377,109.0504   C 175.34377,113.36606 176.50261,116.76265 178.82028,119.2002   C 181.13795,121.67771 184.01506,122.91646 187.53152,122.91646   C 191.08795,122.91646 194.00502,121.67771 196.28273,119.2002   C 198.6004,116.68273 199.75923,113.1263 199.75923,108.53092   C 199.75923,105.65381 199.23976,103.09638 198.28072,100.93855   C 197.28172,98.780721 195.84317,97.102408 193.96506,95.903613   C 192.08695,94.704818 189.92911,94.10542 187.57148,94.10542   C 184.25482,94.10542 181.37771,95.264256 178.94016,97.541966   C 176.54257,99.859637 175.34377,103.69578 175.34377,109.0504   z  M 210.50843,126.35301   L 210.50843,90.668874   L 215.22369,90.668874   L 215.22369,122.15723   L 232.80602,122.15723   L 232.80602,126.35301   z "
     style="fill:#000000;fill-rule:evenodd;fill-opacity:1;stroke:none;" />
</svg>
