<?xml version="1.0" encoding="UTF-8" standalone="no"?>
<svg
   xmlns:dc="http://purl.org/dc/elements/1.1/"
   xmlns:cc="http://creativecommons.org/ns#"
   xmlns:rdf="http://www.w3.org/1999/02/22-rdf-syntax-ns#"
   xmlns:svg="http://www.w3.org/2000/svg"
   xmlns="http://www.w3.org/2000/svg"
   id="svg21"
   height="95.75mm"
   width="95.75mm"
   version="1.0">
  <metadata
     id="metadata25">
    <rdf:RDF>
      <cc:Work
         rdf:about="">
        <dc:format>image/svg+xml</dc:format>
        <dc:type
           rdf:resource="http://purl.org/dc/dcmitype/StillImage" />
      </cc:Work>
    </rdf:RDF>
  </metadata>
  <defs
     id="defs3">
    <pattern
       y="0"
       x="0"
       height="6"
       width="6"
       patternUnits="userSpaceOnUse"
       id="EMFhbasepattern" />
  </defs>
  <path
     id="path5"
     d="  M 54.345381,54.345381   L 54.345381,307.53092   L 307.53092,307.53092   L 307.53092,54.345381   L 54.345381,54.345381   z "
     style="fill:#aaffaa;fill-rule:evenodd;fill-opacity:1;stroke:none;" />
  <path
     id="path7"
     d="  M 54.345381,54.345381   L 307.53092,54.345381   L 307.53092,307.53092   L 54.345381,307.53092   z "
     style="fill:none;stroke:#000000;stroke-width:9.5903616px;stroke-linecap:butt;stroke-linejoin:miter;stroke-miterlimit:10;stroke-dasharray:none;stroke-opacity:1;" />
  <path
     id="path9"
     d="  M 131.06827,142.5767   C 131.06827,152.12711 123.35602,159.83936 113.80562,159.83936   C 104.29518,159.83936 96.54297,152.12711 96.54297,142.5767   C 96.54297,133.06626 104.29518,125.31405 113.80562,125.31405   C 123.35602,125.31405 131.06827,133.06626 131.06827,142.5767   z "
     style="fill:#000000;fill-rule:evenodd;fill-opacity:1;stroke:none;" />
  <path
     id="path11"
     d="  M 131.06827,142.5767   C 131.06827,152.12711 123.35602,159.83936 113.80562,159.83936   C 104.29518,159.83936 96.54297,152.12711 96.54297,142.5767   C 96.54297,133.06626 104.29518,125.31405 113.80562,125.31405   C 123.35602,125.31405 131.06827,133.06626 131.06827,142.5767  "
     style="fill:none;stroke:#000000;stroke-width:9.5903616px;stroke-linecap:butt;stroke-linejoin:miter;stroke-miterlimit:10;stroke-dasharray:none;stroke-opacity:1;" />
  <path
     id="path13"
     d="  M 265.33333,142.5767   C 265.33333,152.12711 257.62108,159.83936 248.07068,159.83936   C 238.56024,159.83936 230.80803,152.12711 230.80803,142.5767   C 230.80803,133.06626 238.56024,125.31405 248.07068,125.31405   C 257.62108,125.31405 265.33333,133.06626 265.33333,142.5767   z "
     style="fill:#000000;fill-rule:evenodd;fill-opacity:1;stroke:none;" />
  <path
     id="path15"
     d="  M 265.33333,142.5767   C 265.33333,152.12711 257.62108,159.83936 248.07068,159.83936   C 238.56024,159.83936 230.80803,152.12711 230.80803,142.5767   C 230.80803,133.06626 238.56024,125.31405 248.07068,125.31405   C 257.62108,125.31405 265.33333,133.06626 265.33333,142.5767  "
     style="fill:none;stroke:#000000;stroke-width:9.5903616px;stroke-linecap:butt;stroke-linejoin:miter;stroke-miterlimit:10;stroke-dasharray:none;stroke-opacity:1;" />
  <path
     id="path17"
     d="  M 123.39598,128.19116   C 180.93815,161.75743 190.52851,180.93815 214.50441,267.2514  "
     style="fill:none;stroke:#000000;stroke-width:9.5903616px;stroke-linecap:butt;stroke-linejoin:miter;stroke-miterlimit:10;stroke-dasharray:none;stroke-opacity:1;" />
  <path
     id="path19"
     d="  M 238.48032,128.19116   C 180.93815,161.75743 171.34779,180.93815 147.37189,267.2514  "
     style="fill:none;stroke:#000000;stroke-width:9.5903616px;stroke-linecap:butt;stroke-linejoin:miter;stroke-miterlimit:10;stroke-dasharray:none;stroke-opacity:1;" />
</svg>
