<?xml version="1.0" encoding="UTF-8" standalone="no"?>
<svg
   xmlns:dc="http://purl.org/dc/elements/1.1/"
   xmlns:cc="http://creativecommons.org/ns#"
   xmlns:rdf="http://www.w3.org/1999/02/22-rdf-syntax-ns#"
   xmlns:svg="http://www.w3.org/2000/svg"
   xmlns="http://www.w3.org/2000/svg"
   id="svg11"
   height="116.73mm"
   width="116.73mm"
   version="1.0">
  <metadata
     id="metadata15">
    <rdf:RDF>
      <cc:Work
         rdf:about="">
        <dc:format>image/svg+xml</dc:format>
        <dc:type
           rdf:resource="http://purl.org/dc/dcmitype/StillImage" />
      </cc:Work>
    </rdf:RDF>
  </metadata>
  <defs
     id="defs3">
    <pattern
       y="0"
       x="0"
       height="6"
       width="6"
       patternUnits="userSpaceOnUse"
       id="EMFhbasepattern" />
  </defs>
  <path
     id="path5"
     d="  M 220.57831,386.49156   L 220.57831,386.49156   L 386.49156,220.57831   L 220.57831,54.665059   L 54.665059,220.57831   L 220.57831,386.49156   z "
     style="fill:#ff8080;fill-rule:evenodd;fill-opacity:1;stroke:none;" />
  <path
     id="path7"
     d="  M 220.57831,386.49156   L 220.57831,386.49156   L 386.49156,220.57831   L 220.57831,54.665059   L 54.665059,220.57831   L 220.57831,386.49156  "
     style="fill:none;stroke:#000000;stroke-width:9.5903616px;stroke-linecap:butt;stroke-linejoin:miter;stroke-miterlimit:10;stroke-dasharray:none;stroke-opacity:1;" />
  <path
     id="path9"
     d="  M 215.70321,221.45743   L 223.89498,223.49538   C 222.1767,230.24859 219.0998,235.36345 214.62429,238.87992   C 210.18875,242.39638 204.75421,244.15461 198.32068,244.15461   C 191.64739,244.15461 186.25281,242.79598 182.05703,240.11867   C 177.9012,237.4014 174.70442,233.44538 172.54658,228.33052   C 170.34879,223.1757 169.26988,217.66124 169.26988,211.74719   C 169.26988,205.31365 170.50863,199.71927 172.94618,194.92409   C 175.42369,190.12891 178.9002,186.49257 183.45562,184.01506   C 188.01104,181.49759 193.00602,180.25883 198.44056,180.25883   C 204.63433,180.25883 209.82911,181.85723 214.0249,185.01405   C 218.26064,188.13092 221.17771,192.56646 222.85602,198.28072   L 214.78413,200.15883   C 213.34558,195.68333 211.26767,192.40662 208.5504,190.32871   C 205.83313,188.29076 202.39658,187.2518 198.28072,187.2518   C 193.5255,187.2518 189.56948,188.41064 186.37269,190.68835   C 183.1759,192.96606 180.93815,196.00301 179.61948,199.83915   C 178.34076,203.6753 177.7014,207.63132 177.7014,211.70723   C 177.7014,216.98192 178.46064,221.53735 179.97911,225.49337   C 181.53755,229.40943 183.89518,232.3265 187.13193,234.24457   C 190.36867,236.20261 193.88514,237.16164 197.64136,237.16164   C 202.19678,237.16164 206.11285,235.84297 209.26968,233.20562   C 212.4265,230.56827 214.58433,226.65221 215.70321,221.45743   z  M 231.16767,223.25562   L 238.87992,222.5763   C 239.27951,225.69317 240.11867,228.21064 241.43735,230.20863   C 242.79598,232.16666 244.83393,233.76506 247.67108,235.00381   C 250.46827,236.20261 253.6251,236.84196 257.14156,236.84196   C 260.25843,236.84196 263.01566,236.36245 265.41325,235.44337   C 267.81084,234.52429 269.56907,233.24558 270.72791,231.64719   C 271.88674,230.00883 272.48614,228.2506 272.48614,226.33253   C 272.48614,224.41445 271.9267,222.69618 270.80783,221.25763   C 269.68895,219.81907 267.81084,218.58032 265.25341,217.62128   C 263.5751,216.98192 259.89879,215.98293 254.22449,214.58433   C 248.5502,213.2257 244.59417,211.94698 242.31646,210.74819   C 239.35943,209.18976 237.16164,207.27168 235.72309,204.99397   C 234.28453,202.71626 233.5253,200.11887 233.5253,197.28172   C 233.5253,194.16486 234.44437,191.28775 236.20261,188.57048   C 237.96084,185.85321 240.55823,183.7753 243.95482,182.3767   C 247.3514,180.97811 251.14759,180.25883 255.30341,180.25883   C 259.85883,180.25883 263.89478,181.01807 267.41124,182.49658   C 270.88775,183.9751 273.60502,186.13293 275.48313,189.01004   C 277.36124,191.84719 278.36024,195.12389 278.52008,198.72028   L 270.68795,199.31968   C 270.24839,195.40361 268.80984,192.48654 266.41225,190.48855   C 263.97469,188.49056 260.37831,187.49156 255.62309,187.49156   C 250.66807,187.49156 247.07168,188.37068 244.83393,190.20883   C 242.55622,192.00703 241.43735,194.20482 241.43735,196.76225   C 241.43735,198.96004 242.23654,200.79819 243.83494,202.23674   C 245.39337,203.6753 249.50923,205.15381 256.14257,206.63233   C 262.81586,208.1508 267.37128,209.46947 269.84879,210.58835   C 273.44518,212.2267 276.08253,214.34458 277.8008,216.86205   C 279.51907,219.41947 280.35823,222.33654 280.35823,225.65321   C 280.35823,228.96988 279.43915,232.04678 277.56104,234.96385   C 275.64297,237.88092 272.96566,240.11867 269.44919,241.75702   C 265.89277,243.35542 261.93674,244.15461 257.54116,244.15461   C 251.94678,244.15461 247.23152,243.35542 243.4753,241.71706   C 239.67911,240.07871 236.72208,237.64116 234.56425,234.36445   C 232.40642,231.08775 231.28755,227.41144 231.16767,223.25562   z "
     style="fill:#000000;fill-rule:evenodd;fill-opacity:1;stroke:none;" />
</svg>
