<?xml version="1.0" encoding="UTF-8" standalone="no"?>
<svg
   xmlns:dc="http://purl.org/dc/elements/1.1/"
   xmlns:cc="http://creativecommons.org/ns#"
   xmlns:rdf="http://www.w3.org/1999/02/22-rdf-syntax-ns#"
   xmlns:svg="http://www.w3.org/2000/svg"
   xmlns="http://www.w3.org/2000/svg"
   id="svg21"
   height="89.669998mm"
   width="120.11mm"
   version="1.0">
  <metadata
     id="metadata25">
    <rdf:RDF>
      <cc:Work
         rdf:about="">
        <dc:format>image/svg+xml</dc:format>
        <dc:type
           rdf:resource="http://purl.org/dc/dcmitype/StillImage" />
      </cc:Work>
    </rdf:RDF>
  </metadata>
  <defs
     id="defs3">
    <pattern
       y="0"
       x="0"
       height="6"
       width="6"
       patternUnits="userSpaceOnUse"
       id="EMFhbasepattern" />
  </defs>
  <path
     id="path5"
     d="  M 54.345381,54.345381   L 54.345381,284.51405   L 399.59839,284.51405   L 399.59839,54.345381   L 54.345381,54.345381   z "
     style="fill:#80e0ff;fill-rule:evenodd;fill-opacity:1;stroke:none;" />
  <path
     id="path7"
     d="  M 54.345381,54.345381   L 399.59839,54.345381   L 399.59839,284.51405   L 54.345381,284.51405   z "
     style="fill:none;stroke:#000000;stroke-width:9.5903616px;stroke-linecap:butt;stroke-linejoin:miter;stroke-miterlimit:10;stroke-dasharray:none;stroke-opacity:1;" />
  <path
     id="path9"
     d="  M 226.97188,144.49478   L 226.97188,198.2008  "
     style="fill:none;stroke:#000000;stroke-width:7.6722889px;stroke-linecap:butt;stroke-linejoin:miter;stroke-miterlimit:10;stroke-dasharray:none;stroke-opacity:1;" />
  <path
     id="path11"
     d="  M 157.92128,144.49478   L 157.92128,221.21767  "
     style="fill:none;stroke:#000000;stroke-width:7.6722889px;stroke-linecap:butt;stroke-linejoin:miter;stroke-miterlimit:10;stroke-dasharray:none;stroke-opacity:1;" />
  <path
     id="path13"
     d="  M 296.02249,144.49478   L 296.02249,221.21767  "
     style="fill:none;stroke:#000000;stroke-width:7.6722889px;stroke-linecap:butt;stroke-linejoin:miter;stroke-miterlimit:10;stroke-dasharray:none;stroke-opacity:1;" />
  <path
     id="path15"
     d="  M 154.08514,144.49478   L 299.85863,144.49478  "
     style="fill:none;stroke:#000000;stroke-width:7.6722889px;stroke-linecap:butt;stroke-linejoin:miter;stroke-miterlimit:10;stroke-dasharray:none;stroke-opacity:1;" />
  <path
     id="path17"
     d="  M 203.15582,112.48695   L 208.87008,113.96546   C 207.67128,118.64076 205.51345,122.23715 202.39658,124.71466   C 199.27972,127.15221 195.48353,128.39096 190.96807,128.39096   C 186.29277,128.39096 182.49658,127.47189 179.57952,125.55381   C 176.66245,123.6757 174.46466,120.91847 172.90622,117.32209   C 171.38775,113.7257 170.62851,109.8496 170.62851,105.73373   C 170.62851,101.21827 171.50763,97.302207 173.2259,93.945581   C 174.94417,90.588955 177.38172,88.031525 180.57851,86.273292   C 183.73534,84.555019 187.2518,83.675902 191.04799,83.675902   C 195.36365,83.675902 199,84.794778 201.95703,86.992569   C 204.91405,89.19036 206.99196,92.267268 208.1508,96.263252   L 202.51646,97.621886   C 201.47751,94.465059 200.03895,92.187348 198.12088,90.748794   C 196.24277,89.31024 193.80522,88.590963 190.92811,88.590963   C 187.61144,88.590963 184.81425,89.390159 182.61646,90.948593   C 180.37871,92.546987 178.78032,94.704818 177.9012,97.382127   C 176.98213,100.05944 176.54257,102.81667 176.54257,105.69377   C 176.54257,109.37008 177.06205,112.56687 178.14096,115.32409   C 179.21988,118.08132 180.89819,120.11928 183.13594,121.47791   C 185.41365,122.83654 187.8512,123.51586 190.48855,123.51586   C 193.68534,123.51586 196.40261,122.59679 198.64036,120.71867   C 200.83815,118.88052 202.35662,116.12329 203.15582,112.48695   z  M 215.70321,127.67168   L 215.70321,84.435139   L 231.9269,84.435139   C 235.20361,84.435139 237.88092,84.874698 239.87891,85.713854   C 241.8769,86.592971 243.43534,87.951605 244.55421,89.789758   C 245.67309,91.58795 246.23253,93.506023 246.23253,95.464055   C 246.23253,97.342167 245.75301,99.06044 244.75401,100.69879   C 243.75502,102.33715 242.23654,103.65582 240.19859,104.65482   C 242.83594,105.41405 244.83393,106.73273 246.23253,108.57088   C 247.63112,110.44899 248.3504,112.60683 248.3504,115.1243   C 248.3504,117.16225 247.91084,119.04036 247.07168,120.75863   C 246.19257,122.51687 245.15361,123.8755 243.8749,124.79458   C 242.63614,125.75361 241.03775,126.47289 239.15964,126.95241   C 237.24156,127.43193 234.92389,127.67168 232.16666,127.67168   z  M 221.41747,102.57691   L 230.76807,102.57691   C 233.28554,102.57691 235.12369,102.41707 236.20261,102.09739   C 237.68112,101.65783 238.76004,100.93855 239.51927,99.939557   C 240.23855,98.940561 240.59819,97.661846 240.59819,96.143372   C 240.59819,94.704818 240.27851,93.466063 239.59919,92.387147   C 238.87992,91.268272 237.92088,90.548995 236.64217,90.109436   C 235.36345,89.709838 233.16566,89.510039 230.04879,89.510039   L 221.41747,89.510039   z  M 221.41747,122.55683   L 232.16666,122.55683   C 234.04478,122.55683 235.32349,122.47691 236.08273,122.35703   C 237.4014,122.11727 238.48032,121.71767 239.35943,121.15823   C 240.27851,120.63875 240.99779,119.83956 241.55723,118.76064   C 242.11666,117.72169 242.39638,116.52289 242.39638,115.1243   C 242.39638,113.5259 241.99678,112.12731 241.15763,110.92851   C 240.35843,109.72972 239.19959,108.89056 237.72108,108.41104   C 236.28253,107.93152 234.16466,107.69177 231.40743,107.69177   L 221.41747,107.69177   z  M 267.21144,127.67168   L 267.21144,89.510039   L 252.98574,89.510039   L 252.98574,84.435139   L 287.27128,84.435139   L 287.27128,89.510039   L 272.96566,89.510039   L 272.96566,127.67168   z "
     style="fill:#000000;fill-rule:evenodd;fill-opacity:1;stroke:none;" />
  <path
     id="path19"
     d="  M 210.50843,266.17249   L 210.50843,221.53735   L 219.41947,221.53735   L 229.96887,253.14558   C 230.92791,256.06265 231.64719,258.26044 232.08674,259.73895   C 232.60622,258.1006 233.40542,255.74297 234.48433,252.58614   L 245.15361,221.53735   L 253.10562,221.53735   L 253.10562,266.17249   L 247.39136,266.17249   L 247.39136,228.81004   L 234.44437,266.17249   L 229.12972,266.17249   L 216.22269,228.17068   L 216.22269,266.17249   z "
     style="fill:#000000;fill-rule:evenodd;fill-opacity:1;stroke:none;" />
</svg>
