<?xml version="1.0" encoding="UTF-8" standalone="no"?>
<svg
   xmlns:dc="http://purl.org/dc/elements/1.1/"
   xmlns:cc="http://creativecommons.org/ns#"
   xmlns:rdf="http://www.w3.org/1999/02/22-rdf-syntax-ns#"
   xmlns:svg="http://www.w3.org/2000/svg"
   xmlns="http://www.w3.org/2000/svg"
   id="svg11"
   height="89.669998mm"
   width="120.11mm"
   version="1.0">
  <metadata
     id="metadata15">
    <rdf:RDF>
      <cc:Work
         rdf:about="">
        <dc:format>image/svg+xml</dc:format>
        <dc:type
           rdf:resource="http://purl.org/dc/dcmitype/StillImage" />
      </cc:Work>
    </rdf:RDF>
  </metadata>
  <defs
     id="defs3">
    <pattern
       y="0"
       x="0"
       height="6"
       width="6"
       patternUnits="userSpaceOnUse"
       id="EMFhbasepattern" />
  </defs>
  <path
     id="path5"
     d="  M 54.345381,54.345381   L 54.345381,284.51405   L 399.59839,284.51405   L 399.59839,54.345381   L 54.345381,54.345381   z "
     style="fill:#80e0ff;fill-rule:evenodd;fill-opacity:1;stroke:none;" />
  <path
     id="path7"
     d="  M 54.345381,54.345381   L 399.59839,54.345381   L 399.59839,284.51405   L 54.345381,284.51405   z "
     style="fill:none;stroke:#000000;stroke-width:9.5903616px;stroke-linecap:butt;stroke-linejoin:miter;stroke-miterlimit:10;stroke-dasharray:none;stroke-opacity:1;" />
  <path
     id="path9"
     d="  M 222.09678,170.30883   L 230.28855,172.34678   C 228.57028,179.1 225.49337,184.21486 221.01787,187.73132   C 216.58233,191.24779 211.14779,193.00602 204.71425,193.00602   C 198.04096,193.00602 192.64638,191.64739 188.4506,188.97008   C 184.29478,186.25281 181.09799,182.29678 178.94016,177.18193   C 176.74237,172.02711 175.66345,166.51265 175.66345,160.59859   C 175.66345,154.16506 176.90221,148.57068 179.33976,143.7755   C 181.81727,138.98032 185.29377,135.34397 189.84919,132.86646   C 194.40462,130.34899 199.3996,129.11024 204.83413,129.11024   C 211.02791,129.11024 216.22269,130.70863 220.41847,133.86546   C 224.65421,136.98233 227.57128,141.41787 229.2496,147.13213   L 221.17771,149.01024   C 219.73915,144.53474 217.66124,141.25803 214.94397,139.18012   C 212.2267,137.14217 208.79016,136.10321 204.67429,136.10321   C 199.91907,136.10321 195.96305,137.26205 192.76626,139.53976   C 189.56948,141.81747 187.33172,144.85442 186.01305,148.69056   C 184.73433,152.5267 184.09498,156.48273 184.09498,160.55863   C 184.09498,165.83333 184.85421,170.38875 186.37269,174.34478   C 187.93112,178.26084 190.28875,181.17791 193.5255,183.09598   C 196.76225,185.05401 200.27871,186.01305 204.03494,186.01305   C 208.59036,186.01305 212.50642,184.69437 215.66325,182.05703   C 218.82008,179.41968 220.97791,175.50361 222.09678,170.30883   z  M 237.56124,172.10703   L 245.27349,171.42771   C 245.67309,174.54458 246.51225,177.06205 247.83092,179.06004   C 249.18955,181.01807 251.22751,182.61646 254.06465,183.85522   C 256.86184,185.05401 260.01867,185.69337 263.53514,185.69337   C 266.652,185.69337 269.40923,185.21385 271.80682,184.29478   C 274.20441,183.3757 275.96265,182.09699 277.12148,180.49859   C 278.28032,178.86024 278.87971,177.10201 278.87971,175.18393   C 278.87971,173.26586 278.32028,171.54759 277.2014,170.10903   C 276.08253,168.67048 274.20441,167.43172 271.64698,166.47269   C 269.96867,165.83333 266.29237,164.83433 260.61807,163.43574   C 254.94377,162.07711 250.98775,160.79839 248.71004,159.5996   C 245.75301,158.04116 243.55522,156.12309 242.11666,153.84538   C 240.67811,151.56767 239.91887,148.97028 239.91887,146.13313   C 239.91887,143.01626 240.83795,140.13915 242.59618,137.42189   C 244.35441,134.70462 246.9518,132.6267 250.34839,131.22811   C 253.74498,129.82952 257.54116,129.11024 261.69698,129.11024   C 266.25241,129.11024 270.28835,129.86948 273.80482,131.34799   C 277.28132,132.8265 279.99859,134.98434 281.8767,137.86144   C 283.75482,140.69859 284.75381,143.9753 284.91365,147.57168   L 277.08152,148.17108   C 276.64196,144.25502 275.20341,141.33795 272.80582,139.33996   C 270.36827,137.34197 266.77188,136.34297 262.01666,136.34297   C 257.06164,136.34297 253.46526,137.22209 251.22751,139.06024   C 248.9498,140.85843 247.83092,143.05622 247.83092,145.61365   C 247.83092,147.81144 248.63012,149.6496 250.22851,151.08815   C 251.78694,152.5267 255.90281,154.00522 262.53614,155.48373   C 269.20943,157.00221 273.76486,158.32088 276.24237,159.43976   C 279.83875,161.07811 282.4761,163.19598 284.19437,165.71345   C 285.91265,168.27088 286.7518,171.18795 286.7518,174.50462   C 286.7518,177.82128 285.83273,180.89819 283.95461,183.81526   C 282.03654,186.73233 279.35923,188.97008 275.84277,190.60843   C 272.28634,192.20682 268.33032,193.00602 263.93474,193.00602   C 258.34036,193.00602 253.6251,192.20682 249.86887,190.56847   C 246.07269,188.93012 243.11566,186.49257 240.95783,183.21586   C 238.8,179.93915 237.68112,176.26285 237.56124,172.10703   z "
     style="fill:#000000;fill-rule:evenodd;fill-opacity:1;stroke:none;" />
</svg>
