<?xml version="1.0" encoding="UTF-8" standalone="no"?>
<svg
   xmlns:dc="http://purl.org/dc/elements/1.1/"
   xmlns:cc="http://creativecommons.org/ns#"
   xmlns:rdf="http://www.w3.org/1999/02/22-rdf-syntax-ns#"
   xmlns:svg="http://www.w3.org/2000/svg"
   xmlns="http://www.w3.org/2000/svg"
   id="svg23"
   height="116.73mm"
   width="116.73mm"
   version="1.0">
  <metadata
     id="metadata27">
    <rdf:RDF>
      <cc:Work
         rdf:about="">
        <dc:format>image/svg+xml</dc:format>
        <dc:type
           rdf:resource="http://purl.org/dc/dcmitype/StillImage" />
      </cc:Work>
    </rdf:RDF>
  </metadata>
  <defs
     id="defs3">
    <pattern
       y="0"
       x="0"
       height="6"
       width="6"
       patternUnits="userSpaceOnUse"
       id="EMFhbasepattern" />
  </defs>
  <path
     id="path5"
     d="  M 220.57831,386.49156   L 220.57831,386.49156   L 386.49156,220.57831   L 220.57831,54.665059   L 54.665059,220.57831   L 220.57831,386.49156   z "
     style="fill:#ff8080;fill-rule:evenodd;fill-opacity:1;stroke:none;" />
  <path
     id="path7"
     d="  M 220.57831,386.49156   L 220.57831,386.49156   L 386.49156,220.57831   L 220.57831,54.665059   L 54.665059,220.57831   L 220.57831,386.49156  "
     style="fill:none;stroke:#000000;stroke-width:9.5903616px;stroke-linecap:butt;stroke-linejoin:miter;stroke-miterlimit:10;stroke-dasharray:none;stroke-opacity:1;" />
  <path
     id="path9"
     d="  M 170.70843,182.21686   C 170.70843,191.76727 162.99618,199.47952 153.44578,199.47952   C 143.93534,199.47952 136.18313,191.76727 136.18313,182.21686   C 136.18313,172.70642 143.93534,164.95421 153.44578,164.95421   C 162.99618,164.95421 170.70843,172.70642 170.70843,182.21686   z "
     style="fill:#000000;fill-rule:evenodd;fill-opacity:1;stroke:none;" />
  <path
     id="path11"
     d="  M 170.70843,182.21686   C 170.70843,191.76727 162.99618,199.47952 153.44578,199.47952   C 143.93534,199.47952 136.18313,191.76727 136.18313,182.21686   C 136.18313,172.70642 143.93534,164.95421 153.44578,164.95421   C 162.99618,164.95421 170.70843,172.70642 170.70843,182.21686  "
     style="fill:none;stroke:#000000;stroke-width:9.5903616px;stroke-linecap:butt;stroke-linejoin:miter;stroke-miterlimit:10;stroke-dasharray:none;stroke-opacity:1;" />
  <path
     id="path13"
     d="  M 304.97349,182.21686   C 304.97349,191.76727 297.26124,199.47952 287.71084,199.47952   C 278.2004,199.47952 270.44819,191.76727 270.44819,182.21686   C 270.44819,172.70642 278.2004,164.95421 287.71084,164.95421   C 297.26124,164.95421 304.97349,172.70642 304.97349,182.21686   z "
     style="fill:#000000;fill-rule:evenodd;fill-opacity:1;stroke:none;" />
  <path
     id="path15"
     d="  M 304.97349,182.21686   C 304.97349,191.76727 297.26124,199.47952 287.71084,199.47952   C 278.2004,199.47952 270.44819,191.76727 270.44819,182.21686   C 270.44819,172.70642 278.2004,164.95421 287.71084,164.95421   C 297.26124,164.95421 304.97349,172.70642 304.97349,182.21686  "
     style="fill:none;stroke:#000000;stroke-width:9.5903616px;stroke-linecap:butt;stroke-linejoin:miter;stroke-miterlimit:10;stroke-dasharray:none;stroke-opacity:1;" />
  <path
     id="path17"
     d="  M 163.03614,167.83132   C 220.57831,201.39759 230.16867,220.57831 254.14457,306.89156  "
     style="fill:none;stroke:#000000;stroke-width:9.5903616px;stroke-linecap:butt;stroke-linejoin:miter;stroke-miterlimit:10;stroke-dasharray:none;stroke-opacity:1;" />
  <path
     id="path19"
     d="  M 278.12048,167.83132   C 220.57831,201.39759 210.98795,220.57831 187.01205,306.89156  "
     style="fill:none;stroke:#000000;stroke-width:9.5903616px;stroke-linecap:butt;stroke-linejoin:miter;stroke-miterlimit:10;stroke-dasharray:none;stroke-opacity:1;" />
  <path
     id="path21"
     d="  M 205.95301,168.71044   L 205.95301,117.20221   L 212.90602,117.20221   L 239.95883,157.64156   L 239.95883,117.20221   L 246.51225,117.20221   L 246.51225,168.71044   L 239.51927,168.71044   L 212.46646,128.23112   L 212.46646,168.71044   z "
     style="fill:#000000;fill-rule:evenodd;fill-opacity:1;stroke:none;" />
</svg>
