<?xml version="1.0" encoding="UTF-8" standalone="no"?>
<svg
   xmlns:dc="http://purl.org/dc/elements/1.1/"
   xmlns:cc="http://creativecommons.org/ns#"
   xmlns:rdf="http://www.w3.org/1999/02/22-rdf-syntax-ns#"
   xmlns:svg="http://www.w3.org/2000/svg"
   xmlns="http://www.w3.org/2000/svg"
   id="svg11"
   height="116.73mm"
   width="116.73mm"
   version="1.0">
  <metadata
     id="metadata15">
    <rdf:RDF>
      <cc:Work
         rdf:about="">
        <dc:format>image/svg+xml</dc:format>
        <dc:type
           rdf:resource="http://purl.org/dc/dcmitype/StillImage" />
      </cc:Work>
    </rdf:RDF>
  </metadata>
  <defs
     id="defs3">
    <pattern
       y="0"
       x="0"
       height="6"
       width="6"
       patternUnits="userSpaceOnUse"
       id="EMFhbasepattern" />
  </defs>
  <path
     id="path5"
     d="  M 220.57831,386.49156   L 220.57831,386.49156   L 386.49156,220.57831   L 220.57831,54.665059   L 54.665059,220.57831   L 220.57831,386.49156   z "
     style="fill:#ff8080;fill-rule:evenodd;fill-opacity:1;stroke:none;" />
  <path
     id="path7"
     d="  M 220.57831,386.49156   L 220.57831,386.49156   L 386.49156,220.57831   L 220.57831,54.665059   L 54.665059,220.57831   L 220.57831,386.49156  "
     style="fill:none;stroke:#000000;stroke-width:9.5903616px;stroke-linecap:butt;stroke-linejoin:miter;stroke-miterlimit:10;stroke-dasharray:none;stroke-opacity:1;" />
  <path
     id="path9"
     d="  M 186.93213,221.45743   L 195.12389,223.49538   C 193.40562,230.24859 190.32871,235.36345 185.85321,238.87992   C 181.41767,242.39638 175.98313,244.15461 169.5496,244.15461   C 162.8763,244.15461 157.48172,242.79598 153.28594,240.11867   C 149.13012,237.4014 145.93333,233.44538 143.7755,228.33052   C 141.57771,223.1757 140.49879,217.66124 140.49879,211.74719   C 140.49879,205.31365 141.73755,199.71927 144.1751,194.92409   C 146.65261,190.12891 150.12911,186.49257 154.68454,184.01506   C 159.23996,181.49759 164.23494,180.25883 169.66948,180.25883   C 175.86325,180.25883 181.05803,181.85723 185.25381,185.01405   C 189.48956,188.13092 192.40662,192.56646 194.08494,198.28072   L 186.01305,200.15883   C 184.5745,195.68333 182.49658,192.40662 179.77931,190.32871   C 177.06205,188.29076 173.6255,187.2518 169.50964,187.2518   C 164.75442,187.2518 160.79839,188.41064 157.6016,190.68835   C 154.40482,192.96606 152.16707,196.00301 150.84839,199.83915   C 149.56968,203.6753 148.93032,207.63132 148.93032,211.70723   C 148.93032,216.98192 149.68956,221.53735 151.20803,225.49337   C 152.76646,229.40943 155.12409,232.3265 158.36084,234.24457   C 161.59759,236.20261 165.11405,237.16164 168.87028,237.16164   C 173.4257,237.16164 177.34176,235.84297 180.49859,233.20562   C 183.65542,230.56827 185.81325,226.65221 186.93213,221.45743   z  M 202.39658,223.25562   L 210.10883,222.5763   C 210.50843,225.69317 211.34759,228.21064 212.66626,230.20863   C 214.0249,232.16666 216.06285,233.76506 218.9,235.00381   C 221.69719,236.20261 224.85401,236.84196 228.37048,236.84196   C 231.48735,236.84196 234.24457,236.36245 236.64217,235.44337   C 239.03976,234.52429 240.79799,233.24558 241.95682,231.64719   C 243.11566,230.00883 243.71506,228.2506 243.71506,226.33253   C 243.71506,224.41445 243.15562,222.69618 242.03674,221.25763   C 240.91787,219.81907 239.03976,218.58032 236.48233,217.62128   C 234.80401,216.98192 231.12771,215.98293 225.45341,214.58433   C 219.77911,213.2257 215.82309,211.94698 213.54538,210.74819   C 210.58835,209.18976 208.39056,207.27168 206.95201,204.99397   C 205.51345,202.71626 204.75421,200.11887 204.75421,197.28172   C 204.75421,194.16486 205.67329,191.28775 207.43152,188.57048   C 209.18976,185.85321 211.78715,183.7753 215.18373,182.3767   C 218.58032,180.97811 222.3765,180.25883 226.53233,180.25883   C 231.08775,180.25883 235.12369,181.01807 238.64016,182.49658   C 242.11666,183.9751 244.83393,186.13293 246.71204,189.01004   C 248.59016,191.84719 249.58915,195.12389 249.74899,198.72028   L 241.91686,199.31968   C 241.47731,195.40361 240.03875,192.48654 237.64116,190.48855   C 235.20361,188.49056 231.60723,187.49156 226.852,187.49156   C 221.89698,187.49156 218.3006,188.37068 216.06285,190.20883   C 213.78514,192.00703 212.66626,194.20482 212.66626,196.76225   C 212.66626,198.96004 213.46546,200.79819 215.06385,202.23674   C 216.62229,203.6753 220.73815,205.15381 227.37148,206.63233   C 234.04478,208.1508 238.6002,209.46947 241.07771,210.58835   C 244.67409,212.2267 247.31144,214.34458 249.02972,216.86205   C 250.74799,219.41947 251.58714,222.33654 251.58714,225.65321   C 251.58714,228.96988 250.66807,232.04678 248.78996,234.96385   C 246.87188,237.88092 244.19457,240.11867 240.67811,241.75702   C 237.12168,243.35542 233.16566,244.15461 228.77008,244.15461   C 223.1757,244.15461 218.46044,243.35542 214.70421,241.71706   C 210.90803,240.07871 207.951,237.64116 205.79317,234.36445   C 203.63534,231.08775 202.51646,227.41144 202.39658,223.25562   z  M 259.97871,223.25562   L 267.69096,222.5763   C 268.0506,225.69317 268.92971,228.21064 270.24839,230.20863   C 271.56706,232.16666 273.64498,233.76506 276.44216,235.00381   C 279.27931,236.20261 282.43614,236.84196 285.95261,236.84196   C 289.06947,236.84196 291.8267,236.36245 294.18433,235.44337   C 296.58192,234.52429 298.38012,233.24558 299.53895,231.64719   C 300.69779,230.00883 301.29718,228.2506 301.29718,226.33253   C 301.29718,224.41445 300.73775,222.69618 299.57891,221.25763   C 298.46004,219.81907 296.62188,218.58032 294.02449,217.62128   C 292.38614,216.98192 288.70984,215.98293 283.03554,214.58433   C 277.36124,213.2257 273.36526,211.94698 271.12751,210.74819   C 268.17048,209.18976 265.97269,207.27168 264.49417,204.99397   C 263.05562,202.71626 262.33634,200.11887 262.33634,197.28172   C 262.33634,194.16486 263.21546,191.28775 265.01365,188.57048   C 266.77188,185.85321 269.36927,183.7753 272.76586,182.3767   C 276.16245,180.97811 279.91867,180.25883 284.07449,180.25883   C 288.66988,180.25883 292.70582,181.01807 296.22228,182.49658   C 299.69879,183.9751 302.3761,186.13293 304.29417,189.01004   C 306.17228,191.84719 307.17128,195.12389 307.29116,198.72028   L 299.45903,199.31968   C 299.05943,195.40361 297.62088,192.48654 295.18333,190.48855   C 292.78574,188.49056 289.18935,187.49156 284.43413,187.49156   C 279.47911,187.49156 275.88273,188.37068 273.60502,190.20883   C 271.36727,192.00703 270.20843,194.20482 270.20843,196.76225   C 270.20843,198.96004 271.00763,200.79819 272.60602,202.23674   C 274.20441,203.6753 278.32028,205.15381 284.95361,206.63233   C 291.58694,208.1508 296.14237,209.46947 298.61988,210.58835   C 302.21626,212.2267 304.89357,214.34458 306.61184,216.86205   C 308.29016,219.41947 309.16927,222.33654 309.16927,225.65321   C 309.16927,228.96988 308.21024,232.04678 306.33212,234.96385   C 304.45401,237.88092 301.73674,240.11867 298.22028,241.75702   C 294.70381,243.35542 290.74779,244.15461 286.31224,244.15461   C 280.71787,244.15461 276.04257,243.35542 272.28634,241.71706   C 268.49016,240.07871 265.53313,237.64116 263.3753,234.36445   C 261.21747,231.08775 260.09859,227.41144 259.97871,223.25562   z "
     style="fill:#000000;fill-rule:evenodd;fill-opacity:1;stroke:none;" />
</svg>
