<?xml version="1.0" encoding="UTF-8" standalone="no"?>
<svg
   xmlns:dc="http://purl.org/dc/elements/1.1/"
   xmlns:cc="http://creativecommons.org/ns#"
   xmlns:rdf="http://www.w3.org/1999/02/22-rdf-syntax-ns#"
   xmlns:svg="http://www.w3.org/2000/svg"
   xmlns="http://www.w3.org/2000/svg"
   id="svg13"
   height="112.9mm"
   width="112.9mm"
   version="1.0">
  <metadata
     id="metadata17">
    <rdf:RDF>
      <cc:Work
         rdf:about="">
        <dc:format>image/svg+xml</dc:format>
        <dc:type
           rdf:resource="http://purl.org/dc/dcmitype/StillImage" />
      </cc:Work>
    </rdf:RDF>
  </metadata>
  <defs
     id="defs3">
    <pattern
       y="0"
       x="0"
       height="6"
       width="6"
       patternUnits="userSpaceOnUse"
       id="EMFhbasepattern" />
  </defs>
  <path
     id="path5"
     d="  M 1939.6302,2120.7783   C 1939.6302,2243.3563 2120.7783,2243.3563 2120.7783,2120.7783   C 2243.3563,2120.7783 2243.3563,1939.6302 2120.7783,1939.6302   C 2120.7783,1817.0522 1939.6302,1817.0522 1939.6302,1939.6302   C 1817.0522,1939.6302 1817.0522,2120.7783 1939.6302,2120.7783   z "
     style="fill:#ffff80;fill-rule:nonzero;fill-opacity:1;stroke:#000000;stroke-width:10.649107px;stroke-linecap:butt;stroke-linejoin:miter;stroke-miterlimit:282;stroke-dasharray:none;stroke-opacity:1;" />
  <path
     id="path7"
     d="  M 1958.285,1981.7735   L 2100.9906,1981.7735   L 2100.9906,2077.5399   L 1958.285,2077.5399   z "
     style="fill:none;stroke:#000000;stroke-width:10.649107px;stroke-linecap:round;stroke-linejoin:miter;stroke-miterlimit:282;stroke-dasharray:none;stroke-opacity:1;" />
  <path
     id="path9"
     d="  M 2030.4497,1964.818   L 2029.921,2095.5905  "
     style="fill:none;stroke:#000000;stroke-width:10.649107px;stroke-linecap:butt;stroke-linejoin:miter;stroke-miterlimit:282;stroke-dasharray:none;stroke-opacity:1;" />
  <path
     id="path11"
     d="  M 2107.1082,2103.4452   C 2066.1733,2147.1745 1997.7471,2149.7801 1954.2821,2109.3362   C 1910.8172,2068.8922 1908.7402,2000.6548 1949.6751,1956.9633   C 1990.6099,1913.2718 2059.0361,1910.6284 2102.5011,1951.0723   C 2104.2759,1952.6961 2105.9753,1954.3954 2107.5991,1956.1325  "
     style="fill:none;stroke:#000000;stroke-width:10.837921px;stroke-linecap:round;stroke-linejoin:miter;stroke-miterlimit:282;stroke-dasharray:none;stroke-opacity:1;" />
</svg>
