<?xml version="1.0" encoding="UTF-8" standalone="no"?>
<svg
   xmlns:dc="http://purl.org/dc/elements/1.1/"
   xmlns:cc="http://creativecommons.org/ns#"
   xmlns:rdf="http://www.w3.org/1999/02/22-rdf-syntax-ns#"
   xmlns:svg="http://www.w3.org/2000/svg"
   xmlns="http://www.w3.org/2000/svg"
   id="svg21"
   height="95.75mm"
   width="95.75mm"
   version="1.0">
  <metadata
     id="metadata25">
    <rdf:RDF>
      <cc:Work
         rdf:about="">
        <dc:format>image/svg+xml</dc:format>
        <dc:type
           rdf:resource="http://purl.org/dc/dcmitype/StillImage" />
      </cc:Work>
    </rdf:RDF>
  </metadata>
  <defs
     id="defs3">
    <pattern
       y="0"
       x="0"
       height="6"
       width="6"
       patternUnits="userSpaceOnUse"
       id="EMFhbasepattern" />
  </defs>
  <path
     id="path5"
     d="  M 54.345381,54.345381   L 54.345381,307.53092   L 307.53092,307.53092   L 307.53092,54.345381   L 54.345381,54.345381   z "
     style="fill:#aaffaa;fill-rule:evenodd;fill-opacity:1;stroke:none;" />
  <path
     id="path7"
     d="  M 54.345381,54.345381   L 307.53092,54.345381   L 307.53092,307.53092   L 54.345381,307.53092   z "
     style="fill:none;stroke:#000000;stroke-width:9.5903616px;stroke-linecap:butt;stroke-linejoin:miter;stroke-miterlimit:10;stroke-dasharray:none;stroke-opacity:1;" />
  <path
     id="path9"
     d="  M 180.93815,156.00321   L 180.93815,209.70923  "
     style="fill:none;stroke:#000000;stroke-width:7.6722889px;stroke-linecap:butt;stroke-linejoin:miter;stroke-miterlimit:10;stroke-dasharray:none;stroke-opacity:1;" />
  <path
     id="path11"
     d="  M 111.88755,156.00321   L 111.88755,232.7261  "
     style="fill:none;stroke:#000000;stroke-width:7.6722889px;stroke-linecap:butt;stroke-linejoin:miter;stroke-miterlimit:10;stroke-dasharray:none;stroke-opacity:1;" />
  <path
     id="path13"
     d="  M 249.98875,156.00321   L 249.98875,232.7261  "
     style="fill:none;stroke:#000000;stroke-width:7.6722889px;stroke-linecap:butt;stroke-linejoin:miter;stroke-miterlimit:10;stroke-dasharray:none;stroke-opacity:1;" />
  <path
     id="path15"
     d="  M 108.0514,156.00321   L 253.8249,156.00321  "
     style="fill:none;stroke:#000000;stroke-width:7.6722889px;stroke-linecap:butt;stroke-linejoin:miter;stroke-miterlimit:10;stroke-dasharray:none;stroke-opacity:1;" />
  <path
     id="path17"
     d="  M 157.12209,123.99538   L 162.83634,125.47389   C 161.63755,130.14919 159.47972,133.74558 156.36285,136.22309   C 153.24598,138.66064 149.4498,139.8994 144.93434,139.8994   C 140.25903,139.8994 136.46285,138.98032 133.54578,137.06225   C 130.62871,135.18413 128.43092,132.42691 126.87249,128.83052   C 125.35401,125.23413 124.59478,121.35803 124.59478,117.24217   C 124.59478,112.72671 125.47389,108.81064 127.19217,105.45401   C 128.91044,102.09739 131.34799,99.539958 134.54478,97.781725   C 137.7016,96.063452 141.21807,95.184336 145.01425,95.184336   C 149.32992,95.184336 152.96626,96.303211 155.92329,98.501003   C 158.88032,100.69879 160.95823,103.7757 162.11707,107.77169   L 156.48273,109.13032   C 155.44377,105.97349 154.00522,103.69578 152.08715,102.25723   C 150.20903,100.81867 147.77148,100.0994 144.89438,100.0994   C 141.57771,100.0994 138.78052,100.89859 136.58273,102.45703   C 134.34498,104.05542 132.74658,106.21325 131.86747,108.89056   C 130.94839,111.56787 130.50883,114.3251 130.50883,117.20221   C 130.50883,120.87851 131.02831,124.0753 132.10723,126.83253   C 133.18614,129.58976 134.86446,131.62771 137.10221,132.98634   C 139.37992,134.34498 141.81747,135.0243 144.45482,135.0243   C 147.6516,135.0243 150.36887,134.10522 152.60662,132.22711   C 154.80442,130.38895 156.32289,127.63173 157.12209,123.99538   z  M 169.66948,139.18012   L 169.66948,95.943573   L 185.89317,95.943573   C 189.16988,95.943573 191.84719,96.383131 193.84518,97.222288   C 195.84317,98.101404 197.4016,99.460039 198.52048,101.29819   C 199.63935,103.09638 200.19879,105.01446 200.19879,106.97249   C 200.19879,108.8506 199.71927,110.56887 198.72028,112.20723   C 197.72128,113.84558 196.20281,115.16426 194.16486,116.16325   C 196.80221,116.92249 198.8002,118.24116 200.19879,120.07932   C 201.59739,121.95743 202.31666,124.11526 202.31666,126.63273   C 202.31666,128.67068 201.87711,130.54879 201.03795,132.26707   C 200.15883,134.0253 199.11988,135.38393 197.84116,136.30301   C 196.60241,137.26205 195.00401,137.98132 193.1259,138.46084   C 191.20783,138.94036 188.89016,139.18012 186.13293,139.18012   z  M 175.38373,114.08534   L 184.73433,114.08534   C 187.2518,114.08534 189.08996,113.9255 190.16887,113.60582   C 191.64739,113.16626 192.7263,112.44699 193.48554,111.44799   C 194.20482,110.44899 194.56446,109.17028 194.56446,107.65181   C 194.56446,106.21325 194.24478,104.9745 193.56546,103.89558   C 192.84618,102.77671 191.88715,102.05743 190.60843,101.61787   C 189.32972,101.21827 187.13193,101.01847 184.01506,101.01847   L 175.38373,101.01847   z  M 175.38373,134.06526   L 186.13293,134.06526   C 188.01104,134.06526 189.28976,133.98534 190.04899,133.86546   C 191.36767,133.6257 192.44658,133.2261 193.3257,132.66666   C 194.24478,132.14719 194.96405,131.34799 195.52349,130.26907   C 196.08293,129.23012 196.36265,128.03132 196.36265,126.63273   C 196.36265,125.03434 195.96305,123.63574 195.12389,122.43695   C 194.3247,121.23815 193.16586,120.39899 191.68735,119.91948   C 190.24879,119.43996 188.13092,119.2002 185.37369,119.2002   L 175.38373,119.2002   z  M 221.17771,139.18012   L 221.17771,101.01847   L 206.95201,101.01847   L 206.95201,95.943573   L 241.23755,95.943573   L 241.23755,101.01847   L 226.93192,101.01847   L 226.93192,139.18012   z "
     style="fill:#000000;fill-rule:evenodd;fill-opacity:1;stroke:none;" />
  <path
     id="path19"
     d="  M 168.67048,277.68092   L 168.67048,233.04578   L 174.58454,233.04578   L 174.58454,251.38735   L 197.8012,251.38735   L 197.8012,233.04578   L 203.6753,233.04578   L 203.6753,277.68092   L 197.8012,277.68092   L 197.8012,256.62208   L 174.58454,256.62208   L 174.58454,277.68092   z "
     style="fill:#000000;fill-rule:evenodd;fill-opacity:1;stroke:none;" />
</svg>
