<?xml version="1.0" encoding="UTF-8" standalone="no"?>
<svg
   xmlns:dc="http://purl.org/dc/elements/1.1/"
   xmlns:cc="http://creativecommons.org/ns#"
   xmlns:rdf="http://www.w3.org/1999/02/22-rdf-syntax-ns#"
   xmlns:svg="http://www.w3.org/2000/svg"
   xmlns="http://www.w3.org/2000/svg"
   id="svg11"
   height="112.9mm"
   width="112.9mm"
   version="1.0">
  <metadata
     id="metadata15">
    <rdf:RDF>
      <cc:Work
         rdf:about="">
        <dc:format>image/svg+xml</dc:format>
        <dc:type
           rdf:resource="http://purl.org/dc/dcmitype/StillImage" />
      </cc:Work>
    </rdf:RDF>
  </metadata>
  <defs
     id="defs3">
    <pattern
       y="0"
       x="0"
       height="6"
       width="6"
       patternUnits="userSpaceOnUse"
       id="EMFhbasepattern" />
  </defs>
  <path
     id="path5"
     d="  M 1817.3195,1817.1379   L 1817.3195,2190.121  "
     style="fill:none;stroke:#ffff00;stroke-width:10.649107px;stroke-linecap:butt;stroke-linejoin:miter;stroke-miterlimit:282;stroke-dasharray:none;stroke-opacity:1;" />
  <path
     id="path7"
     d="  M 2030.4905,1817.1379   L 2030.4905,2190.121  "
     style="fill:none;stroke:#ffff00;stroke-width:10.649107px;stroke-linecap:butt;stroke-linejoin:miter;stroke-miterlimit:282;stroke-dasharray:none;stroke-opacity:1;" />
  <path
     id="path9"
     d="  M 1951.1131,2019.5087   L 1963.235,2022.5675   C 1960.7049,2032.4991 1956.1356,2040.0894 1949.5271,2045.3007   C 1942.9563,2050.5497 1934.8751,2053.1553 1925.3211,2053.1553   C 1915.465,2053.1553 1907.4593,2051.1539 1901.2662,2047.1133   C 1895.0731,2043.1104 1890.3905,2037.295 1887.1429,2029.6669   C 1883.9331,2022.0388 1882.3093,2013.882 1882.3093,2005.1211   C 1882.3093,1995.6048 1884.1219,1987.297 1887.7849,1980.1976   C 1891.4101,1973.0982 1896.6214,1967.6981 1903.3432,1963.9974   C 1910.065,1960.3344 1917.4665,1958.484 1925.5099,1958.484   C 1934.6863,1958.484 1942.3899,1960.8253 1948.6208,1965.4701   C 1954.8894,1970.1527 1959.2321,1976.6857 1961.6867,1985.1445   L 1949.7536,1987.939   C 1947.6389,1981.2927 1944.5424,1976.4591 1940.5018,1973.4003   C 1936.4611,1970.3793 1931.4009,1968.831 1925.2834,1968.831   C 1918.2595,1968.831 1912.3685,1970.5303 1907.6481,1973.8912   C 1902.9278,1977.2899 1899.6047,1981.8214 1897.6788,1987.4858   C 1895.7529,1993.188 1894.8088,1999.0413 1894.8088,2005.0833   C 1894.8088,2012.8624 1895.9417,2019.6597 1898.2074,2025.4752   C 1900.4732,2031.2529 1903.9851,2035.5956 1908.781,2038.4656   C 1913.5769,2041.3356 1918.7504,2042.7706 1924.3393,2042.7706   C 1931.1366,2042.7706 1936.8765,2040.8447 1941.5591,2036.9173   C 1946.2795,2032.99 1949.4515,2027.2123 1951.1131,2019.5087   z "
     style="fill:#ffff00;fill-rule:nonzero;fill-opacity:1;stroke:#ffff00;stroke-width:1.0573581px;stroke-linecap:butt;stroke-linejoin:miter;stroke-miterlimit:282;stroke-dasharray:none;stroke-opacity:1;" />
</svg>
