<?xml version="1.0" encoding="UTF-8" standalone="no"?>
<svg
   xmlns:dc="http://purl.org/dc/elements/1.1/"
   xmlns:cc="http://creativecommons.org/ns#"
   xmlns:rdf="http://www.w3.org/1999/02/22-rdf-syntax-ns#"
   xmlns:svg="http://www.w3.org/2000/svg"
   xmlns="http://www.w3.org/2000/svg"
   id="svg11"
   height="95.75mm"
   width="95.75mm"
   version="1.0">
  <metadata
     id="metadata15">
    <rdf:RDF>
      <cc:Work
         rdf:about="">
        <dc:format>image/svg+xml</dc:format>
        <dc:type
           rdf:resource="http://purl.org/dc/dcmitype/StillImage" />
      </cc:Work>
    </rdf:RDF>
  </metadata>
  <defs
     id="defs3">
    <pattern
       y="0"
       x="0"
       height="6"
       width="6"
       patternUnits="userSpaceOnUse"
       id="EMFhbasepattern" />
  </defs>
  <path
     id="path5"
     d="  M 54.345381,54.345381   L 54.345381,307.53092   L 307.53092,307.53092   L 307.53092,54.345381   L 54.345381,54.345381   z "
     style="fill:#aaffaa;fill-rule:evenodd;fill-opacity:1;stroke:none;" />
  <path
     id="path7"
     d="  M 54.345381,54.345381   L 307.53092,54.345381   L 307.53092,307.53092   L 54.345381,307.53092   z "
     style="fill:none;stroke:#000000;stroke-width:9.5903616px;stroke-linecap:butt;stroke-linejoin:miter;stroke-miterlimit:10;stroke-dasharray:none;stroke-opacity:1;" />
  <path
     id="path9"
     d="  M 147.29197,181.81727   L 155.48373,183.85522   C 153.76546,190.60843 150.68855,195.72329 146.21305,199.23976   C 141.77751,202.75622 136.34297,204.51445 129.90944,204.51445   C 123.23614,204.51445 117.84156,203.15582 113.64578,200.47851   C 109.48996,197.76124 106.29317,193.80522 104.13534,188.69036   C 101.93755,183.53554 100.85863,178.02108 100.85863,172.10703   C 100.85863,165.67349 102.09739,160.07911 104.53494,155.28393   C 107.01245,150.48875 110.48895,146.85241 115.04438,144.3749   C 119.5998,141.85743 124.59478,140.61867 130.02932,140.61867   C 136.22309,140.61867 141.41787,142.21707 145.61365,145.37389   C 149.8494,148.49076 152.76646,152.9263 154.44478,158.64056   L 146.37289,160.51867   C 144.93434,156.04317 142.85642,152.76646 140.13915,150.68855   C 137.42189,148.6506 133.98534,147.61164 129.86948,147.61164   C 125.11426,147.61164 121.15823,148.77048 117.96144,151.04819   C 114.76466,153.3259 112.52691,156.36285 111.20823,160.19899   C 109.92952,164.03514 109.29016,167.99116 109.29016,172.06707   C 109.29016,177.34176 110.0494,181.89719 111.56787,185.85321   C 113.1263,189.76927 115.48393,192.68634 118.72068,194.60441   C 121.95743,196.56245 125.47389,197.52148 129.23012,197.52148   C 133.78554,197.52148 137.7016,196.20281 140.85843,193.56546   C 144.01526,190.92811 146.17309,187.01205 147.29197,181.81727   z  M 162.75642,183.61546   L 170.46867,182.93614   C 170.86827,186.05301 171.70743,188.57048 173.0261,190.56847   C 174.38474,192.5265 176.42269,194.1249 179.25984,195.36365   C 182.05703,196.56245 185.21385,197.2018 188.73032,197.2018   C 191.84719,197.2018 194.60441,196.72229 197.00201,195.80321   C 199.3996,194.88413 201.15783,193.60542 202.31666,192.00703   C 203.4755,190.36867 204.0749,188.61044 204.0749,186.69237   C 204.0749,184.77429 203.51546,183.05602 202.39658,181.61747   C 201.27771,180.17891 199.3996,178.94016 196.84217,177.98112   C 195.16385,177.34176 191.48755,176.34277 185.81325,174.94417   C 180.13895,173.58554 176.18293,172.30682 173.90522,171.10803   C 170.94819,169.5496 168.7504,167.63152 167.31184,165.35381   C 165.87329,163.0761 165.11405,160.47871 165.11405,157.64156   C 165.11405,154.5247 166.03313,151.64759 167.79136,148.93032   C 169.5496,146.21305 172.14699,144.13514 175.54357,142.73654   C 178.94016,141.33795 182.73634,140.61867 186.89217,140.61867   C 191.44759,140.61867 195.48353,141.37791 199,142.85642   C 202.4765,144.33494 205.19377,146.49277 207.07188,149.36988   C 208.95,152.20703 209.94899,155.48373 210.10883,159.08012   L 202.2767,159.67952   C 201.83715,155.76345 200.39859,152.84638 198.001,150.84839   C 195.56345,148.8504 191.96707,147.8514 187.21184,147.8514   C 182.25682,147.8514 178.66044,148.73052 176.42269,150.56867   C 174.14498,152.36687 173.0261,154.56466 173.0261,157.12209   C 173.0261,159.31988 173.8253,161.15803 175.42369,162.59658   C 176.98213,164.03514 181.09799,165.51365 187.73132,166.99217   C 194.40462,168.51064 198.96004,169.82931 201.43755,170.94819   C 205.03393,172.58654 207.67128,174.70442 209.38956,177.22188   C 211.10783,179.77931 211.94698,182.69638 211.94698,186.01305   C 211.94698,189.32972 211.02791,192.40662 209.1498,195.32369   C 207.23172,198.24076 204.55441,200.47851 201.03795,202.11686   C 197.48152,203.71526 193.5255,204.51445 189.12992,204.51445   C 183.53554,204.51445 178.82028,203.71526 175.06405,202.0769   C 171.26787,200.43855 168.31084,198.001 166.15301,194.72429   C 163.99518,191.44759 162.8763,187.77128 162.75642,183.61546   z  M 220.33855,183.61546   L 228.0508,182.93614   C 228.41044,186.05301 229.28955,188.57048 230.60823,190.56847   C 231.9269,192.5265 234.00482,194.1249 236.802,195.36365   C 239.63915,196.56245 242.79598,197.2018 246.31245,197.2018   C 249.42931,197.2018 252.18654,196.72229 254.54417,195.80321   C 256.94176,194.88413 258.73996,193.60542 259.89879,192.00703   C 261.05763,190.36867 261.65702,188.61044 261.65702,186.69237   C 261.65702,184.77429 261.09759,183.05602 259.93875,181.61747   C 258.81988,180.17891 256.98172,178.94016 254.38433,177.98112   C 252.74598,177.34176 249.06968,176.34277 243.39538,174.94417   C 237.72108,173.58554 233.7251,172.30682 231.48735,171.10803   C 228.53032,169.5496 226.33253,167.63152 224.85401,165.35381   C 223.41546,163.0761 222.69618,160.47871 222.69618,157.64156   C 222.69618,154.5247 223.5753,151.64759 225.37349,148.93032   C 227.13172,146.21305 229.72911,144.13514 233.1257,142.73654   C 236.52229,141.33795 240.27851,140.61867 244.43433,140.61867   C 249.02972,140.61867 253.06566,141.37791 256.58212,142.85642   C 260.05863,144.33494 262.73594,146.49277 264.65401,149.36988   C 266.53212,152.20703 267.53112,155.48373 267.651,159.08012   L 259.81887,159.67952   C 259.41927,155.76345 257.98072,152.84638 255.54317,150.84839   C 253.14558,148.8504 249.54919,147.8514 244.79397,147.8514   C 239.83895,147.8514 236.24257,148.73052 233.96486,150.56867   C 231.72711,152.36687 230.56827,154.56466 230.56827,157.12209   C 230.56827,159.31988 231.36747,161.15803 232.96586,162.59658   C 234.56425,164.03514 238.68012,165.51365 245.31345,166.99217   C 251.94678,168.51064 256.50221,169.82931 258.97972,170.94819   C 262.5761,172.58654 265.25341,174.70442 266.97168,177.22188   C 268.65,179.77931 269.52911,182.69638 269.52911,186.01305   C 269.52911,189.32972 268.57008,192.40662 266.69196,195.32369   C 264.81385,198.24076 262.09658,200.47851 258.58012,202.11686   C 255.06365,203.71526 251.10763,204.51445 246.67208,204.51445   C 241.07771,204.51445 236.40241,203.71526 232.64618,202.0769   C 228.85,200.43855 225.89297,198.001 223.73514,194.72429   C 221.57731,191.44759 220.45843,187.77128 220.33855,183.61546   z "
     style="fill:#000000;fill-rule:evenodd;fill-opacity:1;stroke:none;" />
</svg>
