<?xml version="1.0" encoding="UTF-8" standalone="no"?>
<svg
   xmlns:dc="http://purl.org/dc/elements/1.1/"
   xmlns:cc="http://creativecommons.org/ns#"
   xmlns:rdf="http://www.w3.org/1999/02/22-rdf-syntax-ns#"
   xmlns:svg="http://www.w3.org/2000/svg"
   xmlns="http://www.w3.org/2000/svg"
   id="svg17"
   height="116.73mm"
   width="116.73mm"
   version="1.0">
  <metadata
     id="metadata21">
    <rdf:RDF>
      <cc:Work
         rdf:about="">
        <dc:format>image/svg+xml</dc:format>
        <dc:type
           rdf:resource="http://purl.org/dc/dcmitype/StillImage" />
      </cc:Work>
    </rdf:RDF>
  </metadata>
  <defs
     id="defs3">
    <pattern
       y="0"
       x="0"
       height="6"
       width="6"
       patternUnits="userSpaceOnUse"
       id="EMFhbasepattern" />
  </defs>
  <path
     id="path5"
     d="  M 220.57831,386.49156   L 220.57831,386.49156   L 386.49156,220.57831   L 220.57831,54.665059   L 54.665059,220.57831   L 220.57831,386.49156   z "
     style="fill:#ff8080;fill-rule:evenodd;fill-opacity:1;stroke:none;" />
  <path
     id="path7"
     d="  M 220.57831,386.49156   L 220.57831,386.49156   L 386.49156,220.57831   L 220.57831,54.665059   L 54.665059,220.57831   L 220.57831,386.49156  "
     style="fill:none;stroke:#000000;stroke-width:9.5903616px;stroke-linecap:butt;stroke-linejoin:miter;stroke-miterlimit:10;stroke-dasharray:none;stroke-opacity:1;" />
  <path
     id="path9"
     d="  M 220.57831,191.80723   L 220.57831,249.34939  "
     style="fill:none;stroke:#000000;stroke-width:9.5903616px;stroke-linecap:butt;stroke-linejoin:miter;stroke-miterlimit:10;stroke-dasharray:none;stroke-opacity:1;" />
  <path
     id="path11"
     d="  M 139.06024,220.57831   L 268.53012,220.57831  "
     style="fill:none;stroke:#000000;stroke-width:9.5903616px;stroke-linecap:butt;stroke-linejoin:miter;stroke-miterlimit:10;stroke-dasharray:none;stroke-opacity:1;" />
  <path
     id="path13"
     d="  M 311.68674,220.57831   C 311.68674,233.84498 300.97751,244.55421 287.71084,244.55421   C 274.48413,244.55421 263.73494,233.84498 263.73494,220.57831   C 263.73494,207.3516 274.48413,196.60241 287.71084,196.60241   C 300.97751,196.60241 311.68674,207.3516 311.68674,220.57831  "
     style="fill:none;stroke:#000000;stroke-width:9.5903616px;stroke-linecap:butt;stroke-linejoin:miter;stroke-miterlimit:10;stroke-dasharray:none;stroke-opacity:1;" />
  <path
     id="path15"
     d="  M 200.75823,149.60964   L 205.79317,150.88835   C 204.71425,154.96425 202.83614,158.12108 200.11887,160.27891   C 197.4016,162.43674 194.08494,163.51566 190.12891,163.51566   C 186.05301,163.51566 182.7763,162.6765 180.21887,160.99819   C 177.66144,159.35984 175.70341,156.96225 174.38474,153.80542   C 173.06606,150.68855 172.38674,147.29197 172.38674,143.69558   C 172.38674,139.77952 173.14598,136.34297 174.66446,133.38594   C 176.14297,130.46887 178.3008,128.27108 181.05803,126.75261   C 183.85522,125.19417 186.89217,124.43494 190.20883,124.43494   C 194.00502,124.43494 197.16184,125.43393 199.75923,127.35201   C 202.31666,129.27008 204.11486,131.94739 205.11385,135.46385   L 200.19879,136.62269   C 199.31968,133.86546 198.08092,131.86747 196.40261,130.62871   C 194.72429,129.35 192.64638,128.71064 190.12891,128.71064   C 187.21184,128.71064 184.77429,129.42992 182.85622,130.82851   C 180.89819,132.18715 179.53956,134.06526 178.74036,136.42289   C 177.94116,138.78052 177.54156,141.17811 177.54156,143.65562   C 177.54156,146.89237 178.02108,149.68956 178.94016,152.08715   C 179.89919,154.48474 181.33775,156.24297 183.29578,157.44176   C 185.29377,158.64056 187.41164,159.23996 189.72931,159.23996   C 192.5265,159.23996 194.88413,158.4008 196.84217,156.80241   C 198.76024,155.20401 200.07891,152.80642 200.75823,149.60964   z  M 211.70723,162.83634   L 211.70723,125.11426   L 225.89297,125.11426   C 228.77008,125.11426 231.08775,125.47389 232.84598,126.23313   C 234.56425,126.99237 235.92289,128.19116 236.92188,129.78956   C 237.92088,131.34799 238.4004,133.0263 238.4004,134.74458   C 238.4004,136.38293 237.96084,137.9014 237.08172,139.3   C 236.20261,140.73855 234.88393,141.89739 233.1257,142.7765   C 235.40341,143.41586 237.16164,144.5747 238.4004,146.17309   C 239.63915,147.81144 240.23855,149.72952 240.23855,151.92731   C 240.23855,153.68554 239.87891,155.32389 239.11968,156.84237   C 238.36044,158.36084 237.44136,159.51968 236.36245,160.35883   C 235.24357,161.19799 233.88494,161.79739 232.20662,162.23695   C 230.56827,162.63654 228.53032,162.83634 226.13273,162.83634   z  M 216.70221,140.97831   L 224.89397,140.97831   C 227.09176,140.97831 228.69016,140.81847 229.64919,140.53875   C 230.92791,140.13915 231.88694,139.53976 232.5263,138.66064   C 233.16566,137.78152 233.48534,136.66265 233.48534,135.34397   C 233.48534,134.10522 233.20562,132.98634 232.56626,132.02731   C 231.96686,131.06827 231.12771,130.42891 230.00883,130.06928   C 228.88996,129.7496 226.97188,129.5498 224.25462,129.5498   L 216.70221,129.5498   z  M 216.70221,158.4008   L 226.13273,158.4008   C 227.73112,158.4008 228.85,158.32088 229.52931,158.201   C 230.68815,158.0012 231.64719,157.68152 232.40642,157.20201   C 233.16566,156.72249 233.80502,156.00321 234.32449,155.08413   C 234.80401,154.16506 235.04377,153.1261 235.04377,151.92731   C 235.04377,150.48875 234.68413,149.28996 233.96486,148.251   C 233.24558,147.21205 232.24658,146.45281 230.96787,146.05321   C 229.68915,145.61365 227.851,145.41385 225.45341,145.41385   L 216.70221,145.41385   z  M 256.702,162.83634   L 256.702,129.5498   L 244.27449,129.5498   L 244.27449,125.11426   L 274.20441,125.11426   L 274.20441,129.5498   L 261.69698,129.5498   L 261.69698,162.83634   z "
     style="fill:#000000;fill-rule:evenodd;fill-opacity:1;stroke:none;" />
</svg>
