<?xml version="1.0" encoding="UTF-8" standalone="no"?>
<svg
   xmlns:dc="http://purl.org/dc/elements/1.1/"
   xmlns:cc="http://creativecommons.org/ns#"
   xmlns:rdf="http://www.w3.org/1999/02/22-rdf-syntax-ns#"
   xmlns:svg="http://www.w3.org/2000/svg"
   xmlns="http://www.w3.org/2000/svg"
   id="svg23"
   height="116.73mm"
   width="116.73mm"
   version="1.0">
  <metadata
     id="metadata27">
    <rdf:RDF>
      <cc:Work
         rdf:about="">
        <dc:format>image/svg+xml</dc:format>
        <dc:type
           rdf:resource="http://purl.org/dc/dcmitype/StillImage" />
      </cc:Work>
    </rdf:RDF>
  </metadata>
  <defs
     id="defs3">
    <pattern
       y="0"
       x="0"
       height="6"
       width="6"
       patternUnits="userSpaceOnUse"
       id="EMFhbasepattern" />
  </defs>
  <path
     id="path5"
     d="  M 220.57831,386.49156   L 220.57831,386.49156   L 386.49156,220.57831   L 220.57831,54.665059   L 54.665059,220.57831   L 220.57831,386.49156   z "
     style="fill:#ff8080;fill-rule:evenodd;fill-opacity:1;stroke:none;" />
  <path
     id="path7"
     d="  M 220.57831,386.49156   L 220.57831,386.49156   L 386.49156,220.57831   L 220.57831,54.665059   L 54.665059,220.57831   L 220.57831,386.49156  "
     style="fill:none;stroke:#000000;stroke-width:9.5903616px;stroke-linecap:butt;stroke-linejoin:miter;stroke-miterlimit:10;stroke-dasharray:none;stroke-opacity:1;" />
  <path
     id="path9"
     d="  M 170.70843,182.21686   C 170.70843,191.76727 162.99618,199.47952 153.44578,199.47952   C 143.93534,199.47952 136.18313,191.76727 136.18313,182.21686   C 136.18313,172.70642 143.93534,164.95421 153.44578,164.95421   C 162.99618,164.95421 170.70843,172.70642 170.70843,182.21686   z "
     style="fill:#000000;fill-rule:evenodd;fill-opacity:1;stroke:none;" />
  <path
     id="path11"
     d="  M 170.70843,182.21686   C 170.70843,191.76727 162.99618,199.47952 153.44578,199.47952   C 143.93534,199.47952 136.18313,191.76727 136.18313,182.21686   C 136.18313,172.70642 143.93534,164.95421 153.44578,164.95421   C 162.99618,164.95421 170.70843,172.70642 170.70843,182.21686  "
     style="fill:none;stroke:#000000;stroke-width:9.5903616px;stroke-linecap:butt;stroke-linejoin:miter;stroke-miterlimit:10;stroke-dasharray:none;stroke-opacity:1;" />
  <path
     id="path13"
     d="  M 304.97349,182.21686   C 304.97349,191.76727 297.26124,199.47952 287.71084,199.47952   C 278.2004,199.47952 270.44819,191.76727 270.44819,182.21686   C 270.44819,172.70642 278.2004,164.95421 287.71084,164.95421   C 297.26124,164.95421 304.97349,172.70642 304.97349,182.21686   z "
     style="fill:#000000;fill-rule:evenodd;fill-opacity:1;stroke:none;" />
  <path
     id="path15"
     d="  M 304.97349,182.21686   C 304.97349,191.76727 297.26124,199.47952 287.71084,199.47952   C 278.2004,199.47952 270.44819,191.76727 270.44819,182.21686   C 270.44819,172.70642 278.2004,164.95421 287.71084,164.95421   C 297.26124,164.95421 304.97349,172.70642 304.97349,182.21686  "
     style="fill:none;stroke:#000000;stroke-width:9.5903616px;stroke-linecap:butt;stroke-linejoin:miter;stroke-miterlimit:10;stroke-dasharray:none;stroke-opacity:1;" />
  <path
     id="path17"
     d="  M 163.03614,167.83132   C 220.57831,201.39759 230.16867,220.57831 254.14457,306.89156  "
     style="fill:none;stroke:#000000;stroke-width:9.5903616px;stroke-linecap:butt;stroke-linejoin:miter;stroke-miterlimit:10;stroke-dasharray:none;stroke-opacity:1;" />
  <path
     id="path19"
     d="  M 278.12048,167.83132   C 220.57831,201.39759 210.98795,220.57831 187.01205,306.89156  "
     style="fill:none;stroke:#000000;stroke-width:9.5903616px;stroke-linecap:butt;stroke-linejoin:miter;stroke-miterlimit:10;stroke-dasharray:none;stroke-opacity:1;" />
  <path
     id="path21"
     d="  M 206.19277,168.71044   L 206.19277,117.20221   L 225.53333,117.20221   C 229.44939,117.24217 232.60622,117.76164 235.00381,118.8006   C 237.36144,119.83956 239.23955,121.43795 240.55823,123.59578   C 241.91686,125.75361 242.59618,128.03132 242.59618,130.38895   C 242.59618,132.58675 241.99678,134.66466 240.79799,136.62269   C 239.59919,138.54076 237.801,140.13915 235.40341,141.29799   C 238.52028,142.21707 240.91787,143.7755 242.55622,145.97329   C 244.23453,148.17108 245.07369,150.76847 245.07369,153.76546   C 245.07369,156.20301 244.59417,158.44076 243.55522,160.51867   C 242.55622,162.59658 241.27751,164.19498 239.79899,165.31385   C 238.28052,166.43273 236.40241,167.27189 234.1247,167.83132   C 231.88694,168.43072 229.12972,168.71044 225.85301,168.71044   z  M 213.0259,138.86044   L 224.13474,138.86044   C 227.17168,138.86044 229.32951,138.66064 230.64819,138.26104   C 232.36646,137.74156 233.68514,136.90241 234.56425,135.70361   C 235.44337,134.50482 235.88293,132.98634 235.88293,131.18815   C 235.88293,129.50984 235.48333,127.99136 234.64417,126.67269   C 233.84498,125.39397 232.64618,124.51486 231.12771,124.03534   C 229.60923,123.55582 227.01184,123.31606 223.29558,123.31606   L 213.0259,123.31606   z  M 213.0259,162.63654   L 225.85301,162.63654   C 228.0508,162.63654 229.56927,162.55662 230.48835,162.39678   C 232.04678,162.11707 233.36546,161.63755 234.40441,160.99819   C 235.44337,160.31887 236.32249,159.35984 237.0018,158.12108   C 237.68112,156.88233 238.04076,155.44377 238.04076,153.76546   C 238.04076,151.84739 237.52128,150.20903 236.56225,148.77048   C 235.56325,147.37189 234.20462,146.37289 232.44638,145.81345   C 230.72811,145.21405 228.21064,144.93434 224.93393,144.93434   L 213.0259,144.93434   z "
     style="fill:#000000;fill-rule:evenodd;fill-opacity:1;stroke:none;" />
</svg>
