<?xml version="1.0" encoding="UTF-8" standalone="no"?>
<svg
   xmlns:dc="http://purl.org/dc/elements/1.1/"
   xmlns:cc="http://creativecommons.org/ns#"
   xmlns:rdf="http://www.w3.org/1999/02/22-rdf-syntax-ns#"
   xmlns:svg="http://www.w3.org/2000/svg"
   xmlns="http://www.w3.org/2000/svg"
   id="svg23"
   height="130.27mm"
   width="130.27mm"
   version="1.0">
  <metadata
     id="metadata27">
    <rdf:RDF>
      <cc:Work
         rdf:about="">
        <dc:format>image/svg+xml</dc:format>
        <dc:type
           rdf:resource="http://purl.org/dc/dcmitype/StillImage" />
      </cc:Work>
    </rdf:RDF>
  </metadata>
  <defs
     id="defs3">
    <pattern
       y="0"
       x="0"
       height="6"
       width="6"
       patternUnits="userSpaceOnUse"
       id="EMFhbasepattern" />
  </defs>
  <path
     id="path5"
     d="  M 164.63454,327.67068   C 164.63454,437.95983 327.67068,437.95983 327.67068,327.67068   C 437.95983,327.67068 437.95983,164.63454 327.67068,164.63454   C 327.67068,54.345381 164.63454,54.345381 164.63454,164.63454   C 54.345381,164.63454 54.345381,327.67068 164.63454,327.67068   z "
     style="fill:#ffff80;fill-rule:evenodd;fill-opacity:1;stroke:none;" />
  <path
     id="path7"
     d="  M 164.63454,327.67068   C 164.63454,437.95983 327.67068,437.95983 327.67068,327.67068   C 437.95983,327.67068 437.95983,164.63454 327.67068,164.63454   C 327.67068,54.345381 164.63454,54.345381 164.63454,164.63454   C 54.345381,164.63454 54.345381,327.67068 164.63454,327.67068  "
     style="fill:none;stroke:#000000;stroke-width:9.5903616px;stroke-linecap:butt;stroke-linejoin:miter;stroke-miterlimit:10;stroke-dasharray:none;stroke-opacity:1;" />
  <path
     id="path9"
     d="  M 196.28273,207.79116   C 196.28273,217.34156 188.57048,225.05381 179.02008,225.05381   C 169.50964,225.05381 161.75743,217.34156 161.75743,207.79116   C 161.75743,198.28072 169.50964,190.52851 179.02008,190.52851   C 188.57048,190.52851 196.28273,198.28072 196.28273,207.79116   z "
     style="fill:#000000;fill-rule:evenodd;fill-opacity:1;stroke:none;" />
  <path
     id="path11"
     d="  M 196.28273,207.79116   C 196.28273,217.34156 188.57048,225.05381 179.02008,225.05381   C 169.50964,225.05381 161.75743,217.34156 161.75743,207.79116   C 161.75743,198.28072 169.50964,190.52851 179.02008,190.52851   C 188.57048,190.52851 196.28273,198.28072 196.28273,207.79116  "
     style="fill:none;stroke:#000000;stroke-width:9.5903616px;stroke-linecap:butt;stroke-linejoin:miter;stroke-miterlimit:10;stroke-dasharray:none;stroke-opacity:1;" />
  <path
     id="path13"
     d="  M 330.54779,207.79116   C 330.54779,217.34156 322.83554,225.05381 313.28514,225.05381   C 303.77469,225.05381 296.02249,217.34156 296.02249,207.79116   C 296.02249,198.28072 303.77469,190.52851 313.28514,190.52851   C 322.83554,190.52851 330.54779,198.28072 330.54779,207.79116   z "
     style="fill:#000000;fill-rule:evenodd;fill-opacity:1;stroke:none;" />
  <path
     id="path15"
     d="  M 330.54779,207.79116   C 330.54779,217.34156 322.83554,225.05381 313.28514,225.05381   C 303.77469,225.05381 296.02249,217.34156 296.02249,207.79116   C 296.02249,198.28072 303.77469,190.52851 313.28514,190.52851   C 322.83554,190.52851 330.54779,198.28072 330.54779,207.79116  "
     style="fill:none;stroke:#000000;stroke-width:9.5903616px;stroke-linecap:butt;stroke-linejoin:miter;stroke-miterlimit:10;stroke-dasharray:none;stroke-opacity:1;" />
  <path
     id="path17"
     d="  M 188.61044,193.40562   C 246.15261,226.97188 255.74297,246.15261 279.71887,332.46586  "
     style="fill:none;stroke:#000000;stroke-width:9.5903616px;stroke-linecap:butt;stroke-linejoin:miter;stroke-miterlimit:10;stroke-dasharray:none;stroke-opacity:1;" />
  <path
     id="path19"
     d="  M 303.69477,193.40562   C 246.15261,226.97188 236.56225,246.15261 212.58634,332.46586  "
     style="fill:none;stroke:#000000;stroke-width:9.5903616px;stroke-linecap:butt;stroke-linejoin:miter;stroke-miterlimit:10;stroke-dasharray:none;stroke-opacity:1;" />
  <path
     id="path21"
     d="  M 231.76706,194.28474   L 231.76706,142.7765   L 251.10763,142.7765   C 255.02369,142.81646 258.18052,143.33594 260.57811,144.3749   C 262.93574,145.41385 264.81385,147.01225 266.13253,149.17008   C 267.49116,151.32791 268.17048,153.60562 268.17048,155.96325   C 268.17048,158.16104 267.57108,160.23895 266.37229,162.19699   C 265.17349,164.11506 263.3753,165.71345 260.97771,166.87229   C 264.09457,167.79136 266.49216,169.3498 268.13052,171.54759   C 269.80883,173.74538 270.64799,176.34277 270.64799,179.33976   C 270.64799,181.77731 270.16847,184.01506 269.12951,186.09297   C 268.13052,188.17088 266.8518,189.76927 265.37329,190.88815   C 263.85482,192.00703 261.9767,192.84618 259.69899,193.40562   C 257.46124,194.00502 254.70401,194.28474 251.42731,194.28474   z  M 238.6002,164.43474   L 249.70903,164.43474   C 252.74598,164.43474 254.90381,164.23494 256.22249,163.83534   C 257.94076,163.31586 259.25943,162.4767 260.13855,161.27791   C 261.01767,160.07911 261.45723,158.56064 261.45723,156.76245   C 261.45723,155.08413 261.05763,153.56566 260.21847,152.24699   C 259.41927,150.96827 258.22048,150.08915 256.702,149.60964   C 255.18353,149.13012 252.58614,148.89036 248.86988,148.89036   L 238.6002,148.89036   z  M 238.6002,188.21084   L 251.42731,188.21084   C 253.6251,188.21084 255.14357,188.13092 256.06265,187.97108   C 257.62108,187.69136 258.93976,187.21184 259.97871,186.57249   C 261.01767,185.89317 261.89678,184.93413 262.5761,183.69538   C 263.25542,182.45662 263.61506,181.01807 263.61506,179.33976   C 263.61506,177.42168 263.09558,175.78333 262.13654,174.34478   C 261.13755,172.94618 259.77891,171.94719 258.02068,171.38775   C 256.30241,170.78835 253.78494,170.50863 250.50823,170.50863   L 238.6002,170.50863   z "
     style="fill:#000000;fill-rule:evenodd;fill-opacity:1;stroke:none;" />
</svg>
