<?xml version="1.0" encoding="UTF-8" standalone="no"?>
<svg
   xmlns:dc="http://purl.org/dc/elements/1.1/"
   xmlns:cc="http://creativecommons.org/ns#"
   xmlns:rdf="http://www.w3.org/1999/02/22-rdf-syntax-ns#"
   xmlns:svg="http://www.w3.org/2000/svg"
   xmlns="http://www.w3.org/2000/svg"
   id="svg19"
   height="101.85mm"
   width="101.85mm"
   version="1.0">
  <metadata
     id="metadata23">
    <rdf:RDF>
      <cc:Work
         rdf:about="">
        <dc:format>image/svg+xml</dc:format>
        <dc:type
           rdf:resource="http://purl.org/dc/dcmitype/StillImage" />
      </cc:Work>
    </rdf:RDF>
  </metadata>
  <defs
     id="defs3">
    <pattern
       y="0"
       x="0"
       height="6"
       width="6"
       patternUnits="userSpaceOnUse"
       id="EMFhbasepattern" />
  </defs>
  <path
     id="path5"
     d="  M 330.54779,192.44658   C 330.54779,268.72992 268.72992,330.54779 192.44658,330.54779   C 116.20321,330.54779 54.345381,268.72992 54.345381,192.44658   C 54.345381,116.20321 116.20321,54.345381 192.44658,54.345381   C 268.72992,54.345381 330.54779,116.20321 330.54779,192.44658   z "
     style="fill:#80e0ff;fill-rule:evenodd;fill-opacity:1;stroke:none;" />
  <path
     id="path7"
     d="  M 330.54779,192.44658   C 330.54779,268.72992 268.72992,330.54779 192.44658,330.54779   C 116.20321,330.54779 54.345381,268.72992 54.345381,192.44658   C 54.345381,116.20321 116.20321,54.345381 192.44658,54.345381   C 268.72992,54.345381 330.54779,116.20321 330.54779,192.44658  "
     style="fill:none;stroke:#000000;stroke-width:9.5903616px;stroke-linecap:butt;stroke-linejoin:miter;stroke-miterlimit:10;stroke-dasharray:none;stroke-opacity:1;" />
  <path
     id="path9"
     d="  M 274.36425,242.83594   L 274.36425,242.83594   L 246.23253,227.09176   L 234.28453,227.09176   L 190.36867,187.01205   L 171.18795,163.99518   L 163.11606,141.41787   L 162.23695,109.45   L 175.90321,141.41787   L 195.08393,172.50662   L 218.1008,198.96004   L 249.18955,221.9769   L 276.04257,237.72108   z "
     style="fill:#ffffff;fill-rule:evenodd;fill-opacity:1;stroke:none;" />
  <path
     id="path11"
     d="  M 282.03654,240.91787   L 282.03654,240.91787   L 270.92771,254.14457   L 256.02269,255.86285   L 245.79297,252.4263   L 237.28152,242.19658   L 236.40241,232.84598   L 240.67811,220.89799   L 246.23253,226.01285   L 244.51425,234.96385   L 245.35341,241.35743   L 250.46827,247.31144   L 256.86184,250.30843   L 267.53112,248.59016   L 274.76385,238.36044   z "
     style="fill:#ffffff;fill-rule:evenodd;fill-opacity:1;stroke:none;" />
  <path
     id="path13"
     d="  M 102.57691,242.19658   L 102.57691,242.19658   L 111.96747,254.14457   L 128.59076,256.26245   L 139.22008,252.0267   L 147.77148,242.63614   L 147.77148,231.12771   L 141.37791,220.45843   L 135.82349,225.17369   L 140.49879,234.1247   L 141.77751,239.63915   L 136.26305,245.19357   L 122.59679,249.46927   L 113.24618,244.75401   L 108.97048,240.91787   z "
     style="fill:#ffffff;fill-rule:evenodd;fill-opacity:1;stroke:none;" />
  <path
     id="path15"
     d="  M 102.13735,240.71807   L 102.13735,240.71807   L 163.51566,199.79919   L 198.92008,155.88333   L 221.49739,106.45301   L 220.65823,145.65361   L 203.59538,174.66446   L 188.2508,193.40562   L 150.72851,227.93092   L 140.49879,224.93393   L 111.52791,241.99678   z "
     style="fill:#ffffff;fill-rule:evenodd;fill-opacity:1;stroke:none;" />
  <path
     id="path17"
     d="  M 258.66004,257.82088   C 254.94377,257.82088 252.78594,257.66104 252.26646,257.42128   C 245.31345,256.10261 240.23855,252.34638 237.04176,246.19257   C 234.36445,240.87791 233.28554,235.40341 233.84498,229.76907   C 224.21466,223.09578 210.34859,210.70823 192.20682,192.5265   C 175.62349,208.31064 161.59759,220.97791 150.12911,230.56827   C 152.5267,248.75 144.01526,257.82088 124.51486,257.82088   C 110.08936,257.82088 101.81767,251.66706 99.659838,239.39939   C 135.98333,219.89899 162.95622,199.75923 180.57851,178.9002   C 165.87329,158.6006 158.56064,139.26004 158.56064,120.83855   C 158.56064,118.96044 159.08012,111.64779 160.11907,98.820681   C 162.27691,98.820681 163.99518,99.899597 165.35381,102.01747   C 170.42871,123.91546 179.21988,144.21506 191.80723,162.91626   C 204.59437,145.81345 214.58433,123.23614 221.81707,95.224296   C 224.73413,104.29518 226.21265,112.28715 226.21265,119.24016   C 226.21265,141.41787 218.62028,161.03815 203.39558,178.101   C 219.93895,199.1998 246.91184,219.65923 284.27429,239.39939   C 281.63694,251.66706 273.08554,257.82088 258.66004,257.82088   z  M 138.5008,222.9759   L 138.1012,223.3755   C 141.29799,225.77309 142.93634,228.96988 142.93634,233.00582   C 143.1761,245.55321 136.90241,251.78694 124.11526,251.78694   C 117.16225,251.78694 111.52791,248.23052 107.29217,240.99779   C 106.73273,241.27751 106.21325,241.55723 105.69377,241.79698   L 105.69377,242.99578   C 109.13032,250.22851 115.80361,253.8249 125.71365,253.8249   C 129.70964,253.8249 134.0253,252.2265 138.7006,249.02972   C 143.3759,245.83293 145.73353,241.79698 145.73353,237.0018   C 145.73353,229.76907 143.33594,225.09377 138.5008,222.9759   z  M 133.70562,225.77309   L 111.68775,237.801   L 111.68775,238.2006   C 116.76265,236.04277 124.0753,231.9269 133.70562,225.77309   z  M 138.1012,233.40542   L 136.90241,230.16867   L 114.08534,242.99578   C 116.76265,246.19257 120.47891,247.79096 125.31405,247.79096   C 126.63273,247.79096 129.23012,246.59217 133.10622,244.19457   C 136.98233,241.79698 138.9004,239.51927 138.9004,237.4014   C 138.94036,236.88192 138.66064,235.52329 138.1012,233.40542   z  M 183.3757,183.33574   C 165.75341,202.2767 152.5267,214.42449 143.73554,219.77911   C 144.7745,220.85803 146.53273,222.5763 148.93032,224.97389   C 157.72148,218.58032 171.10803,206.43253 188.97008,188.53052   C 187.37168,186.65241 185.49357,184.93413 183.3757,183.33574   z  M 163.35582,114.44498   L 162.55662,120.43895   C 162.55662,154.36486 187.2518,189.08996 236.64217,224.57429   C 237.44136,223.53534 238.76004,221.89698 240.63815,219.77911   C 202.99598,193.60542 177.22188,158.52068 163.35582,114.44498   z  M 221.01787,116.44297   C 215.42349,134.34498 206.75221,151.40783 195.00401,167.71144   C 197.36164,170.90823 199.23976,173.18594 200.59839,174.50462   C 214.46445,156.08313 221.41747,138.22108 221.41747,120.83855   C 221.41747,120.31907 221.29759,118.84056 221.01787,116.44297   z  M 244.63413,222.5763   C 243.31546,224.45441 241.91686,226.45241 240.43835,228.57028   C 238.95984,230.72811 238.24056,232.84598 238.24056,235.00381   C 238.24056,240.07871 240.43835,244.47429 244.83393,248.19056   C 249.22951,251.94678 253.70502,253.8249 258.26044,253.8249   C 261.45723,253.8249 265.33333,252.86586 269.88875,251.02771   C 276.00261,248.59016 279.07951,245.67309 279.07951,242.19658   C 279.07951,241.6771 278.4002,241.39739 277.08152,241.39739   C 276.28233,244.59417 273.20542,247.67108 267.89076,250.58815   C 266.81184,251.42731 264.13453,251.78694 259.85883,251.78694   C 247.31144,251.78694 241.03775,246.07269 241.03775,234.56425   C 241.03775,230.56827 242.51626,226.852 245.43333,223.3755   z  M 246.63212,230.56827   C 245.59317,232.44638 245.03373,233.9249 245.03373,235.00381   C 245.03373,237.4014 246.59217,240.11867 249.62911,243.19558   C 252.70602,246.27249 255.70301,247.79096 258.66004,247.79096   C 263.45522,247.79096 267.21144,246.19257 269.88875,242.99578   z  M 272.68594,238.6002   L 250.26847,225.77309   L 250.26847,226.17269   L 271.88674,238.9998   L 272.28634,238.9998   z "
     style="fill:#000000;fill-rule:evenodd;fill-opacity:1;stroke:none;" />
</svg>
