<?xml version="1.0" encoding="UTF-8" standalone="no"?>
<svg
   xmlns:dc="http://purl.org/dc/elements/1.1/"
   xmlns:cc="http://creativecommons.org/ns#"
   xmlns:rdf="http://www.w3.org/1999/02/22-rdf-syntax-ns#"
   xmlns:svg="http://www.w3.org/2000/svg"
   xmlns="http://www.w3.org/2000/svg"
   id="svg13"
   height="117.75mm"
   width="79.510002mm"
   version="1.0">
  <metadata
     id="metadata17">
    <rdf:RDF>
      <cc:Work
         rdf:about="">
        <dc:format>image/svg+xml</dc:format>
        <dc:type
           rdf:resource="http://purl.org/dc/dcmitype/StillImage" />
      </cc:Work>
    </rdf:RDF>
  </metadata>
  <defs
     id="defs3">
    <pattern
       y="0"
       x="0"
       height="6"
       width="6"
       patternUnits="userSpaceOnUse"
       id="EMFhbasepattern" />
  </defs>
  <path
     id="path5"
     d="  M 54.345381,54.665059   L 54.345381,390.32771  "
     style="fill:none;stroke:#000000;stroke-width:9.5903616px;stroke-linecap:butt;stroke-linejoin:miter;stroke-miterlimit:10;stroke-dasharray:none;stroke-opacity:1;" />
  <path
     id="path7"
     d="  M 246.15261,54.665059   L 246.15261,390.32771  "
     style="fill:none;stroke:#000000;stroke-width:9.5903616px;stroke-linecap:butt;stroke-linejoin:miter;stroke-miterlimit:10;stroke-dasharray:none;stroke-opacity:1;" />
  <path
     id="path9"
     d="  M 174.78433,225.89297   L 185.65341,228.6502   C 183.3757,237.6012 179.25984,244.43433 173.34578,249.10963   C 167.39176,253.8249 160.15903,256.18253 151.56767,256.18253   C 142.69658,256.18253 135.46385,254.38433 129.90944,250.74799   C 124.31506,247.1516 120.11928,241.91686 117.20221,235.04377   C 114.28514,228.21064 112.84658,220.81807 112.84658,212.94598   C 112.84658,204.39458 114.48494,196.92209 117.76164,190.52851   C 121.03835,184.13494 125.71365,179.25984 131.74759,175.94317   C 137.82148,172.66646 144.45482,170.98815 151.72751,170.98815   C 159.95923,170.98815 166.91225,173.10602 172.50662,177.3018   C 178.14096,181.49759 182.05703,187.37168 184.25482,194.96405   L 173.54558,197.52148   C 171.62751,191.52751 168.83032,187.17188 165.23393,184.41466   C 161.59759,181.69739 157.00221,180.29879 151.48775,180.29879   C 145.17409,180.29879 139.8994,181.81727 135.62369,184.85421   C 131.38795,187.89116 128.39096,191.96707 126.67269,197.08192   C 124.95442,202.19678 124.0753,207.47148 124.0753,212.90602   C 124.0753,219.89899 125.11426,226.01285 127.15221,231.24759   C 129.19016,236.48233 132.34699,240.39839 136.66265,242.95582   C 140.97831,245.55321 145.65361,246.83192 150.64859,246.83192   C 156.76245,246.83192 161.95723,245.07369 166.15301,241.55723   C 170.38875,238.04076 173.26586,232.80602 174.78433,225.89297   z "
     style="fill:#000000;fill-rule:evenodd;fill-opacity:1;stroke:none;" />
  <path
     id="path11"
     d="  M 174.78433,225.89297   L 185.65341,228.6502   C 183.3757,237.6012 179.25984,244.43433 173.34578,249.10963   C 167.39176,253.8249 160.15903,256.18253 151.56767,256.18253   C 142.69658,256.18253 135.46385,254.38433 129.90944,250.74799   C 124.31506,247.1516 120.11928,241.91686 117.20221,235.04377   C 114.28514,228.21064 112.84658,220.81807 112.84658,212.94598   C 112.84658,204.39458 114.48494,196.92209 117.76164,190.52851   C 121.03835,184.13494 125.71365,179.25984 131.74759,175.94317   C 137.82148,172.66646 144.45482,170.98815 151.72751,170.98815   C 159.95923,170.98815 166.91225,173.10602 172.50662,177.3018   C 178.14096,181.49759 182.05703,187.37168 184.25482,194.96405   L 173.54558,197.52148   C 171.62751,191.52751 168.83032,187.17188 165.23393,184.41466   C 161.59759,181.69739 157.00221,180.29879 151.48775,180.29879   C 145.17409,180.29879 139.8994,181.81727 135.62369,184.85421   C 131.38795,187.89116 128.39096,191.96707 126.67269,197.08192   C 124.95442,202.19678 124.0753,207.47148 124.0753,212.90602   C 124.0753,219.89899 125.11426,226.01285 127.15221,231.24759   C 129.19016,236.48233 132.34699,240.39839 136.66265,242.95582   C 140.97831,245.55321 145.65361,246.83192 150.64859,246.83192   C 156.76245,246.83192 161.95723,245.07369 166.15301,241.55723   C 170.38875,238.04076 173.26586,232.80602 174.78433,225.89297   z "
     style="fill:none;stroke:#000000;stroke-width:0.95903611px;stroke-linecap:butt;stroke-linejoin:miter;stroke-miterlimit:10;stroke-dasharray:none;stroke-opacity:1;" />
</svg>
