<?xml version="1.0" encoding="UTF-8" standalone="no"?>
<svg
   xmlns:dc="http://purl.org/dc/elements/1.1/"
   xmlns:cc="http://creativecommons.org/ns#"
   xmlns:rdf="http://www.w3.org/1999/02/22-rdf-syntax-ns#"
   xmlns:svg="http://www.w3.org/2000/svg"
   xmlns="http://www.w3.org/2000/svg"
   id="svg23"
   height="130.27mm"
   width="130.27mm"
   version="1.0">
  <metadata
     id="metadata27">
    <rdf:RDF>
      <cc:Work
         rdf:about="">
        <dc:format>image/svg+xml</dc:format>
        <dc:type
           rdf:resource="http://purl.org/dc/dcmitype/StillImage" />
      </cc:Work>
    </rdf:RDF>
  </metadata>
  <defs
     id="defs3">
    <pattern
       y="0"
       x="0"
       height="6"
       width="6"
       patternUnits="userSpaceOnUse"
       id="EMFhbasepattern" />
  </defs>
  <path
     id="path5"
     d="  M 164.63454,327.67068   C 164.63454,437.95983 327.67068,437.95983 327.67068,327.67068   C 437.95983,327.67068 437.95983,164.63454 327.67068,164.63454   C 327.67068,54.345381 164.63454,54.345381 164.63454,164.63454   C 54.345381,164.63454 54.345381,327.67068 164.63454,327.67068   z "
     style="fill:#ffff80;fill-rule:evenodd;fill-opacity:1;stroke:none;" />
  <path
     id="path7"
     d="  M 164.63454,327.67068   C 164.63454,437.95983 327.67068,437.95983 327.67068,327.67068   C 437.95983,327.67068 437.95983,164.63454 327.67068,164.63454   C 327.67068,54.345381 164.63454,54.345381 164.63454,164.63454   C 54.345381,164.63454 54.345381,327.67068 164.63454,327.67068  "
     style="fill:none;stroke:#000000;stroke-width:9.5903616px;stroke-linecap:butt;stroke-linejoin:miter;stroke-miterlimit:10;stroke-dasharray:none;stroke-opacity:1;" />
  <path
     id="path9"
     d="  M 196.28273,207.79116   C 196.28273,217.34156 188.57048,225.05381 179.02008,225.05381   C 169.50964,225.05381 161.75743,217.34156 161.75743,207.79116   C 161.75743,198.28072 169.50964,190.52851 179.02008,190.52851   C 188.57048,190.52851 196.28273,198.28072 196.28273,207.79116   z "
     style="fill:#000000;fill-rule:evenodd;fill-opacity:1;stroke:none;" />
  <path
     id="path11"
     d="  M 196.28273,207.79116   C 196.28273,217.34156 188.57048,225.05381 179.02008,225.05381   C 169.50964,225.05381 161.75743,217.34156 161.75743,207.79116   C 161.75743,198.28072 169.50964,190.52851 179.02008,190.52851   C 188.57048,190.52851 196.28273,198.28072 196.28273,207.79116  "
     style="fill:none;stroke:#000000;stroke-width:9.5903616px;stroke-linecap:butt;stroke-linejoin:miter;stroke-miterlimit:10;stroke-dasharray:none;stroke-opacity:1;" />
  <path
     id="path13"
     d="  M 330.54779,207.79116   C 330.54779,217.34156 322.83554,225.05381 313.28514,225.05381   C 303.77469,225.05381 296.02249,217.34156 296.02249,207.79116   C 296.02249,198.28072 303.77469,190.52851 313.28514,190.52851   C 322.83554,190.52851 330.54779,198.28072 330.54779,207.79116   z "
     style="fill:#000000;fill-rule:evenodd;fill-opacity:1;stroke:none;" />
  <path
     id="path15"
     d="  M 330.54779,207.79116   C 330.54779,217.34156 322.83554,225.05381 313.28514,225.05381   C 303.77469,225.05381 296.02249,217.34156 296.02249,207.79116   C 296.02249,198.28072 303.77469,190.52851 313.28514,190.52851   C 322.83554,190.52851 330.54779,198.28072 330.54779,207.79116  "
     style="fill:none;stroke:#000000;stroke-width:9.5903616px;stroke-linecap:butt;stroke-linejoin:miter;stroke-miterlimit:10;stroke-dasharray:none;stroke-opacity:1;" />
  <path
     id="path17"
     d="  M 188.61044,193.40562   C 246.15261,226.97188 255.74297,246.15261 279.71887,332.46586  "
     style="fill:none;stroke:#000000;stroke-width:9.5903616px;stroke-linecap:butt;stroke-linejoin:miter;stroke-miterlimit:10;stroke-dasharray:none;stroke-opacity:1;" />
  <path
     id="path19"
     d="  M 303.69477,193.40562   C 246.15261,226.97188 236.56225,246.15261 212.58634,332.46586  "
     style="fill:none;stroke:#000000;stroke-width:9.5903616px;stroke-linecap:butt;stroke-linejoin:miter;stroke-miterlimit:10;stroke-dasharray:none;stroke-opacity:1;" />
  <path
     id="path21"
     d="  M 265.93273,176.22289   L 272.7259,177.94116   C 271.28735,183.53554 268.72992,187.81124 265.01365,190.76827   C 261.29739,193.68534 256.78192,195.16385 251.42731,195.16385   C 245.87289,195.16385 241.35743,194.04498 237.88092,191.76727   C 234.40441,189.52952 231.76706,186.25281 229.92891,181.97711   C 228.13072,177.66144 227.21164,173.06606 227.21164,168.151   C 227.21164,162.79638 228.2506,158.12108 230.28855,154.1251   C 232.3265,150.12911 235.24357,147.09217 239.03976,145.01425   C 242.83594,142.93634 246.99176,141.93735 251.50723,141.93735   C 256.66204,141.93735 261.01767,143.21606 264.53413,145.85341   C 268.01064,148.49076 270.48815,152.16707 271.84678,156.92229   L 265.13353,158.48072   C 263.93474,154.76446 262.21646,152.00723 259.93875,150.32891   C 257.66104,148.61064 254.82389,147.73152 251.38735,147.73152   C 247.43132,147.73152 244.11466,148.69056 241.47731,150.60863   C 238.8,152.48674 236.92188,155.04417 235.84297,158.24096   C 234.76405,161.43775 234.24457,164.71446 234.24457,168.11104   C 234.24457,172.50662 234.88393,176.30281 236.16265,179.57952   C 237.44136,182.85622 239.39939,185.29377 242.11666,186.89217   C 244.79397,188.53052 247.71104,189.32972 250.86787,189.32972   C 254.66405,189.32972 257.9008,188.2508 260.53815,186.01305   C 263.1755,183.81526 264.97369,180.57851 265.93273,176.22289   z "
     style="fill:#000000;fill-rule:evenodd;fill-opacity:1;stroke:none;" />
</svg>
