<?xml version="1.0" encoding="UTF-8" standalone="no"?>
<svg
   xmlns:dc="http://purl.org/dc/elements/1.1/"
   xmlns:cc="http://creativecommons.org/ns#"
   xmlns:rdf="http://www.w3.org/1999/02/22-rdf-syntax-ns#"
   xmlns:svg="http://www.w3.org/2000/svg"
   xmlns="http://www.w3.org/2000/svg"
   id="svg11"
   height="130.27mm"
   width="130.27mm"
   version="1.0">
  <metadata
     id="metadata15">
    <rdf:RDF>
      <cc:Work
         rdf:about="">
        <dc:format>image/svg+xml</dc:format>
        <dc:type
           rdf:resource="http://purl.org/dc/dcmitype/StillImage" />
      </cc:Work>
    </rdf:RDF>
  </metadata>
  <defs
     id="defs3">
    <pattern
       y="0"
       x="0"
       height="6"
       width="6"
       patternUnits="userSpaceOnUse"
       id="EMFhbasepattern" />
  </defs>
  <path
     id="path5"
     d="  M 164.63454,327.67068   C 164.63454,437.95983 327.67068,437.95983 327.67068,327.67068   C 437.95983,327.67068 437.95983,164.63454 327.67068,164.63454   C 327.67068,54.345381 164.63454,54.345381 164.63454,164.63454   C 54.345381,164.63454 54.345381,327.67068 164.63454,327.67068   z "
     style="fill:#ffff80;fill-rule:evenodd;fill-opacity:1;stroke:none;" />
  <path
     id="path7"
     d="  M 164.63454,327.67068   C 164.63454,437.95983 327.67068,437.95983 327.67068,327.67068   C 437.95983,327.67068 437.95983,164.63454 327.67068,164.63454   C 327.67068,54.345381 164.63454,54.345381 164.63454,164.63454   C 54.345381,164.63454 54.345381,327.67068 164.63454,327.67068  "
     style="fill:none;stroke:#000000;stroke-width:9.5903616px;stroke-linecap:butt;stroke-linejoin:miter;stroke-miterlimit:10;stroke-dasharray:none;stroke-opacity:1;" />
  <path
     id="path9"
     d="  M 212.50642,247.03172   L 220.69819,249.06968   C 218.97992,255.82289 215.90301,260.93775 211.42751,264.45421   C 206.99196,267.97068 201.55743,269.72891 195.12389,269.72891   C 188.4506,269.72891 183.05602,268.37028 178.86024,265.69297   C 174.70442,262.9757 171.50763,259.01967 169.3498,253.90482   C 167.15201,248.75 166.07309,243.23554 166.07309,237.32148   C 166.07309,230.88795 167.31184,225.29357 169.7494,220.49839   C 172.22691,215.70321 175.70341,212.06686 180.25883,209.58935   C 184.81425,207.07188 189.80923,205.83313 195.24377,205.83313   C 201.43755,205.83313 206.63233,207.43152 210.82811,210.58835   C 215.06385,213.70522 217.98092,218.14076 219.65923,223.85502   L 211.58735,225.73313   C 210.14879,221.25763 208.07088,217.98092 205.35361,215.90301   C 202.63634,213.86506 199.1998,212.8261 195.08393,212.8261   C 190.32871,212.8261 186.37269,213.98494 183.1759,216.26265   C 179.97911,218.54036 177.74136,221.57731 176.42269,225.41345   C 175.14397,229.2496 174.50462,233.20562 174.50462,237.28152   C 174.50462,242.55622 175.26385,247.11164 176.78233,251.06767   C 178.34076,254.98373 180.69839,257.9008 183.93514,259.81887   C 187.17188,261.7769 190.68835,262.73594 194.44458,262.73594   C 199,262.73594 202.91606,261.41727 206.07289,258.77992   C 209.22972,256.14257 211.38755,252.2265 212.50642,247.03172   z  M 227.97088,248.82992   L 235.68313,248.1506   C 236.08273,251.26747 236.92188,253.78494 238.24056,255.78293   C 239.59919,257.74096 241.63715,259.33935 244.47429,260.57811   C 247.27148,261.7769 250.42831,262.41626 253.94478,262.41626   C 257.06164,262.41626 259.81887,261.93674 262.21646,261.01767   C 264.61405,260.09859 266.37229,258.81988 267.53112,257.22148   C 268.68996,255.58313 269.28935,253.8249 269.28935,251.90682   C 269.28935,249.98875 268.72992,248.27048 267.61104,246.83192   C 266.49216,245.39337 264.61405,244.15461 262.05662,243.19558   C 260.37831,242.55622 256.702,241.55723 251.02771,240.15863   C 245.35341,238.8 241.39739,237.52128 239.11968,236.32249   C 236.16265,234.76405 233.96486,232.84598 232.5263,230.56827   C 231.08775,228.29056 230.32851,225.69317 230.32851,222.85602   C 230.32851,219.73915 231.24759,216.86205 233.00582,214.14478   C 234.76405,211.42751 237.36144,209.3496 240.75803,207.951   C 244.15461,206.55241 247.9508,205.83313 252.10662,205.83313   C 256.66204,205.83313 260.69799,206.59237 264.21445,208.07088   C 267.69096,209.54939 270.40823,211.70723 272.28634,214.58433   C 274.16445,217.42148 275.16345,220.69819 275.32329,224.29458   L 267.49116,224.89397   C 267.0516,220.97791 265.61305,218.06084 263.21546,216.06285   C 260.77791,214.06486 257.18152,213.06586 252.4263,213.06586   C 247.47128,213.06586 243.8749,213.94498 241.63715,215.78313   C 239.35943,217.58132 238.24056,219.77911 238.24056,222.33654   C 238.24056,224.53433 239.03976,226.37249 240.63815,227.81104   C 242.19658,229.2496 246.31245,230.72811 252.94578,232.20662   C 259.61907,233.7251 264.17449,235.04377 266.652,236.16265   C 270.24839,237.801 272.88574,239.91887 274.60401,242.43634   C 276.32229,244.99377 277.16144,247.91084 277.16144,251.22751   C 277.16144,254.54417 276.24237,257.62108 274.36425,260.53815   C 272.44618,263.45522 269.76887,265.69297 266.25241,267.33132   C 262.69598,268.92971 258.73996,269.72891 254.34437,269.72891   C 248.75,269.72891 244.03474,268.92971 240.27851,267.29136   C 236.48233,265.65301 233.5253,263.21546 231.36747,259.93875   C 229.20964,256.66204 228.09076,252.98574 227.97088,248.82992   z  M 285.55301,248.82992   L 293.26526,248.1506   C 293.6249,251.26747 294.50401,253.78494 295.82269,255.78293   C 297.14136,257.74096 299.21927,259.33935 302.01646,260.57811   C 304.85361,261.7769 308.01044,262.41626 311.5269,262.41626   C 314.64377,262.41626 317.401,261.93674 319.75863,261.01767   C 322.15622,260.09859 323.95441,258.81988 325.11325,257.22148   C 326.27208,255.58313 326.87148,253.8249 326.87148,251.90682   C 326.87148,249.98875 326.31204,248.27048 325.15321,246.83192   C 324.03433,245.39337 322.19618,244.15461 319.59879,243.19558   C 317.96044,242.55622 314.28413,241.55723 308.60983,240.15863   C 302.93554,238.8 298.93955,237.52128 296.7018,236.32249   C 293.74477,234.76405 291.54698,232.84598 290.06847,230.56827   C 288.62992,228.29056 287.91064,225.69317 287.91064,222.85602   C 287.91064,219.73915 288.78975,216.86205 290.58795,214.14478   C 292.34618,211.42751 294.94357,209.3496 298.34016,207.951   C 301.73674,206.55241 305.49297,205.83313 309.64879,205.83313   C 314.24417,205.83313 318.28012,206.59237 321.79658,208.07088   C 325.27309,209.54939 327.9504,211.70723 329.86847,214.58433   C 331.74658,217.42148 332.74558,220.69819 332.86546,224.29458   L 325.03333,224.89397   C 324.63373,220.97791 323.19518,218.06084 320.75763,216.06285   C 318.36004,214.06486 314.76365,213.06586 310.00843,213.06586   C 305.05341,213.06586 301.45702,213.94498 299.17931,215.78313   C 296.94156,217.58132 295.78273,219.77911 295.78273,222.33654   C 295.78273,224.53433 296.58192,226.37249 298.18032,227.81104   C 299.77871,229.2496 303.89457,230.72811 310.52791,232.20662   C 317.16124,233.7251 321.71666,235.04377 324.19417,236.16265   C 327.79056,237.801 330.46787,239.91887 332.18614,242.43634   C 333.86445,244.99377 334.74357,247.91084 334.74357,251.22751   C 334.74357,254.54417 333.78453,257.62108 331.90642,260.53815   C 330.02831,263.45522 327.31104,265.69297 323.79457,267.33132   C 320.27811,268.92971 316.32208,269.72891 311.88654,269.72891   C 306.29216,269.72891 301.61686,268.92971 297.86064,267.29136   C 294.06445,265.65301 291.10743,263.21546 288.94959,259.93875   C 286.79176,256.66204 285.67289,252.98574 285.55301,248.82992   z "
     style="fill:#000000;fill-rule:evenodd;fill-opacity:1;stroke:none;" />
</svg>
