<?xml version="1.0" encoding="UTF-8" standalone="no"?>
<svg
   xmlns:dc="http://purl.org/dc/elements/1.1/"
   xmlns:cc="http://creativecommons.org/ns#"
   xmlns:rdf="http://www.w3.org/1999/02/22-rdf-syntax-ns#"
   xmlns:svg="http://www.w3.org/2000/svg"
   xmlns="http://www.w3.org/2000/svg"
   id="svg17"
   height="130.27mm"
   width="130.27mm"
   version="1.0">
  <metadata
     id="metadata21">
    <rdf:RDF>
      <cc:Work
         rdf:about="">
        <dc:format>image/svg+xml</dc:format>
        <dc:type
           rdf:resource="http://purl.org/dc/dcmitype/StillImage" />
      </cc:Work>
    </rdf:RDF>
  </metadata>
  <defs
     id="defs3">
    <pattern
       y="0"
       x="0"
       height="6"
       width="6"
       patternUnits="userSpaceOnUse"
       id="EMFhbasepattern" />
  </defs>
  <path
     id="path5"
     d="  M 164.63454,327.67068   C 164.63454,437.95983 327.67068,437.95983 327.67068,327.67068   C 437.95983,327.67068 437.95983,164.63454 327.67068,164.63454   C 327.67068,54.345381 164.63454,54.345381 164.63454,164.63454   C 54.345381,164.63454 54.345381,327.67068 164.63454,327.67068   z "
     style="fill:#ffff80;fill-rule:evenodd;fill-opacity:1;stroke:none;" />
  <path
     id="path7"
     d="  M 164.63454,327.67068   C 164.63454,437.95983 327.67068,437.95983 327.67068,327.67068   C 437.95983,327.67068 437.95983,164.63454 327.67068,164.63454   C 327.67068,54.345381 164.63454,54.345381 164.63454,164.63454   C 54.345381,164.63454 54.345381,327.67068 164.63454,327.67068  "
     style="fill:none;stroke:#000000;stroke-width:9.5903616px;stroke-linecap:butt;stroke-linejoin:miter;stroke-miterlimit:10;stroke-dasharray:none;stroke-opacity:1;" />
  <path
     id="path9"
     d="  M 246.15261,217.38152   L 246.15261,274.92369  "
     style="fill:none;stroke:#000000;stroke-width:9.5903616px;stroke-linecap:butt;stroke-linejoin:miter;stroke-miterlimit:10;stroke-dasharray:none;stroke-opacity:1;" />
  <path
     id="path11"
     d="  M 164.63454,246.15261   L 294.10441,246.15261  "
     style="fill:none;stroke:#000000;stroke-width:9.5903616px;stroke-linecap:butt;stroke-linejoin:miter;stroke-miterlimit:10;stroke-dasharray:none;stroke-opacity:1;" />
  <path
     id="path13"
     d="  M 337.26104,246.15261   C 337.26104,259.41927 326.5518,270.12851 313.28514,270.12851   C 300.05843,270.12851 289.30923,259.41927 289.30923,246.15261   C 289.30923,232.9259 300.05843,222.1767 313.28514,222.1767   C 326.5518,222.1767 337.26104,232.9259 337.26104,246.15261  "
     style="fill:none;stroke:#000000;stroke-width:9.5903616px;stroke-linecap:butt;stroke-linejoin:miter;stroke-miterlimit:10;stroke-dasharray:none;stroke-opacity:1;" />
  <path
     id="path15"
     d="  M 226.33253,175.18393   L 231.36747,176.46265   C 230.28855,180.53855 228.41044,183.69538 225.69317,185.85321   C 222.9759,188.01104 219.65923,189.08996 215.70321,189.08996   C 211.62731,189.08996 208.3506,188.2508 205.79317,186.57249   C 203.23574,184.93413 201.27771,182.53654 199.95903,179.37972   C 198.64036,176.26285 197.96104,172.86626 197.96104,169.26988   C 197.96104,165.35381 198.72028,161.91727 200.23875,158.96024   C 201.71727,156.04317 203.8751,153.84538 206.63233,152.32691   C 209.42952,150.76847 212.46646,150.00923 215.78313,150.00923   C 219.57931,150.00923 222.73614,151.00823 225.33353,152.9263   C 227.89096,154.84438 229.68915,157.52168 230.68815,161.03815   L 225.77309,162.19699   C 224.89397,159.43976 223.65522,157.44176 221.9769,156.20301   C 220.29859,154.92429 218.22068,154.28494 215.70321,154.28494   C 212.78614,154.28494 210.34859,155.00421 208.43052,156.40281   C 206.47249,157.76144 205.11385,159.63956 204.31466,161.99719   C 203.51546,164.35482 203.11586,166.75241 203.11586,169.22992   C 203.11586,172.46666 203.59538,175.26385 204.51445,177.66144   C 205.47349,180.05903 206.91205,181.81727 208.87008,183.01606   C 210.86807,184.21486 212.98594,184.81425 215.30361,184.81425   C 218.1008,184.81425 220.45843,183.9751 222.41646,182.3767   C 224.33453,180.77831 225.65321,178.38072 226.33253,175.18393   z  M 237.28152,188.41064   L 237.28152,150.68855   L 251.46727,150.68855   C 254.34437,150.68855 256.66204,151.04819 258.42028,151.80743   C 260.13855,152.56666 261.49718,153.76546 262.49618,155.36385   C 263.49518,156.92229 263.97469,158.6006 263.97469,160.31887   C 263.97469,161.95723 263.53514,163.4757 262.65602,164.87429   C 261.7769,166.31285 260.45823,167.47168 258.7,168.3508   C 260.97771,168.99016 262.73594,170.14899 263.97469,171.74739   C 265.21345,173.38574 265.81285,175.30381 265.81285,177.5016   C 265.81285,179.25984 265.45321,180.89819 264.69397,182.41666   C 263.93474,183.93514 263.01566,185.09397 261.93674,185.93313   C 260.81787,186.77229 259.45923,187.37168 257.78092,187.81124   C 256.14257,188.21084 254.10461,188.41064 251.70702,188.41064   z  M 242.2765,166.55261   L 250.46827,166.55261   C 252.66606,166.55261 254.26445,166.39277 255.22349,166.11305   C 256.50221,165.71345 257.46124,165.11405 258.1006,164.23494   C 258.73996,163.35582 259.05963,162.23695 259.05963,160.91827   C 259.05963,159.67952 258.77992,158.56064 258.14056,157.6016   C 257.54116,156.64257 256.702,156.00321 255.58313,155.64357   C 254.46425,155.32389 252.54618,155.12409 249.82891,155.12409   L 242.2765,155.12409   z  M 242.2765,183.9751   L 251.70702,183.9751   C 253.30542,183.9751 254.42429,183.89518 255.10361,183.7753   C 256.26245,183.5755 257.22148,183.25582 257.98072,182.7763   C 258.73996,182.29678 259.37931,181.57751 259.89879,180.65843   C 260.37831,179.73935 260.61807,178.7004 260.61807,177.5016   C 260.61807,176.06305 260.25843,174.86425 259.53915,173.8253   C 258.81988,172.78634 257.82088,172.02711 256.54216,171.62751   C 255.26345,171.18795 253.4253,170.98815 251.02771,170.98815   L 242.2765,170.98815   z  M 282.2763,188.41064   L 282.2763,155.12409   L 269.84879,155.12409   L 269.84879,150.68855   L 299.77871,150.68855   L 299.77871,155.12409   L 287.27128,155.12409   L 287.27128,188.41064   z "
     style="fill:#000000;fill-rule:evenodd;fill-opacity:1;stroke:none;" />
</svg>
