<?xml version="1.0" encoding="UTF-8" standalone="no"?>
<svg
   xmlns:dc="http://purl.org/dc/elements/1.1/"
   xmlns:cc="http://creativecommons.org/ns#"
   xmlns:rdf="http://www.w3.org/1999/02/22-rdf-syntax-ns#"
   xmlns:svg="http://www.w3.org/2000/svg"
   xmlns="http://www.w3.org/2000/svg"
   id="svg21"
   height="89.669998mm"
   width="120.11mm"
   version="1.0">
  <metadata
     id="metadata25">
    <rdf:RDF>
      <cc:Work
         rdf:about="">
        <dc:format>image/svg+xml</dc:format>
        <dc:type
           rdf:resource="http://purl.org/dc/dcmitype/StillImage" />
      </cc:Work>
    </rdf:RDF>
  </metadata>
  <defs
     id="defs3">
    <pattern
       y="0"
       x="0"
       height="6"
       width="6"
       patternUnits="userSpaceOnUse"
       id="EMFhbasepattern" />
  </defs>
  <path
     id="path5"
     d="  M 54.345381,54.345381   L 54.345381,284.51405   L 399.59839,284.51405   L 399.59839,54.345381   L 54.345381,54.345381   z "
     style="fill:#80e0ff;fill-rule:evenodd;fill-opacity:1;stroke:none;" />
  <path
     id="path7"
     d="  M 54.345381,54.345381   L 399.59839,54.345381   L 399.59839,284.51405   L 54.345381,284.51405   z "
     style="fill:none;stroke:#000000;stroke-width:9.5903616px;stroke-linecap:butt;stroke-linejoin:miter;stroke-miterlimit:10;stroke-dasharray:none;stroke-opacity:1;" />
  <path
     id="path9"
     d="  M 177.10201,131.06827   C 177.10201,140.61867 169.38976,148.33092 159.83936,148.33092   C 150.32891,148.33092 142.5767,140.61867 142.5767,131.06827   C 142.5767,121.55783 150.32891,113.80562 159.83936,113.80562   C 169.38976,113.80562 177.10201,121.55783 177.10201,131.06827   z "
     style="fill:#000000;fill-rule:evenodd;fill-opacity:1;stroke:none;" />
  <path
     id="path11"
     d="  M 177.10201,131.06827   C 177.10201,140.61867 169.38976,148.33092 159.83936,148.33092   C 150.32891,148.33092 142.5767,140.61867 142.5767,131.06827   C 142.5767,121.55783 150.32891,113.80562 159.83936,113.80562   C 169.38976,113.80562 177.10201,121.55783 177.10201,131.06827  "
     style="fill:none;stroke:#000000;stroke-width:9.5903616px;stroke-linecap:butt;stroke-linejoin:miter;stroke-miterlimit:10;stroke-dasharray:none;stroke-opacity:1;" />
  <path
     id="path13"
     d="  M 311.36706,131.06827   C 311.36706,140.61867 303.65481,148.33092 294.10441,148.33092   C 284.59397,148.33092 276.84176,140.61867 276.84176,131.06827   C 276.84176,121.55783 284.59397,113.80562 294.10441,113.80562   C 303.65481,113.80562 311.36706,121.55783 311.36706,131.06827   z "
     style="fill:#000000;fill-rule:evenodd;fill-opacity:1;stroke:none;" />
  <path
     id="path15"
     d="  M 311.36706,131.06827   C 311.36706,140.61867 303.65481,148.33092 294.10441,148.33092   C 284.59397,148.33092 276.84176,140.61867 276.84176,131.06827   C 276.84176,121.55783 284.59397,113.80562 294.10441,113.80562   C 303.65481,113.80562 311.36706,121.55783 311.36706,131.06827  "
     style="fill:none;stroke:#000000;stroke-width:9.5903616px;stroke-linecap:butt;stroke-linejoin:miter;stroke-miterlimit:10;stroke-dasharray:none;stroke-opacity:1;" />
  <path
     id="path17"
     d="  M 169.42972,116.68273   C 226.97188,150.24899 236.56225,169.42972 260.53815,255.74297  "
     style="fill:none;stroke:#000000;stroke-width:9.5903616px;stroke-linecap:butt;stroke-linejoin:miter;stroke-miterlimit:10;stroke-dasharray:none;stroke-opacity:1;" />
  <path
     id="path19"
     d="  M 284.51405,116.68273   C 226.97188,150.24899 217.38152,169.42972 193.40562,255.74297  "
     style="fill:none;stroke:#000000;stroke-width:9.5903616px;stroke-linecap:butt;stroke-linejoin:miter;stroke-miterlimit:10;stroke-dasharray:none;stroke-opacity:1;" />
</svg>
