<?xml version="1.0" encoding="UTF-8" standalone="no"?>
<svg
   xmlns:dc="http://purl.org/dc/elements/1.1/"
   xmlns:cc="http://creativecommons.org/ns#"
   xmlns:rdf="http://www.w3.org/1999/02/22-rdf-syntax-ns#"
   xmlns:svg="http://www.w3.org/2000/svg"
   xmlns="http://www.w3.org/2000/svg"
   id="svg11"
   height="95.75mm"
   width="95.75mm"
   version="1.0">
  <metadata
     id="metadata15">
    <rdf:RDF>
      <cc:Work
         rdf:about="">
        <dc:format>image/svg+xml</dc:format>
        <dc:type
           rdf:resource="http://purl.org/dc/dcmitype/StillImage" />
      </cc:Work>
    </rdf:RDF>
  </metadata>
  <defs
     id="defs3">
    <pattern
       y="0"
       x="0"
       height="6"
       width="6"
       patternUnits="userSpaceOnUse"
       id="EMFhbasepattern" />
  </defs>
  <path
     id="path5"
     d="  M 54.345381,54.345381   L 54.345381,307.53092   L 307.53092,307.53092   L 307.53092,54.345381   L 54.345381,54.345381   z "
     style="fill:#aaffaa;fill-rule:evenodd;fill-opacity:1;stroke:none;" />
  <path
     id="path7"
     d="  M 54.345381,54.345381   L 307.53092,54.345381   L 307.53092,307.53092   L 54.345381,307.53092   z "
     style="fill:none;stroke:#000000;stroke-width:9.5903616px;stroke-linecap:butt;stroke-linejoin:miter;stroke-miterlimit:10;stroke-dasharray:none;stroke-opacity:1;" />
  <path
     id="path9"
     d="  M 176.06305,181.81727   L 184.25482,183.85522   C 182.53654,190.60843 179.45964,195.72329 174.98413,199.23976   C 170.54859,202.75622 165.11405,204.51445 158.68052,204.51445   C 152.00723,204.51445 146.61265,203.15582 142.41687,200.47851   C 138.26104,197.76124 135.06426,193.80522 132.90642,188.69036   C 130.70863,183.53554 129.62972,178.02108 129.62972,172.10703   C 129.62972,165.67349 130.86847,160.07911 133.30602,155.28393   C 135.78353,150.48875 139.26004,146.85241 143.81546,144.3749   C 148.37088,141.85743 153.36586,140.61867 158.8004,140.61867   C 164.99417,140.61867 170.18895,142.21707 174.38474,145.37389   C 178.62048,148.49076 181.53755,152.9263 183.21586,158.64056   L 175.14397,160.51867   C 173.70542,156.04317 171.62751,152.76646 168.91024,150.68855   C 166.19297,148.6506 162.75642,147.61164 158.64056,147.61164   C 153.88534,147.61164 149.92932,148.77048 146.73253,151.04819   C 143.53574,153.3259 141.29799,156.36285 139.97932,160.19899   C 138.7006,164.03514 138.06124,167.99116 138.06124,172.06707   C 138.06124,177.34176 138.82048,181.89719 140.33895,185.85321   C 141.89739,189.76927 144.25502,192.68634 147.49176,194.60441   C 150.72851,196.56245 154.24498,197.52148 158.0012,197.52148   C 162.55662,197.52148 166.47269,196.20281 169.62952,193.56546   C 172.78634,190.92811 174.94417,187.01205 176.06305,181.81727   z  M 191.52751,183.61546   L 199.23976,182.93614   C 199.63935,186.05301 200.47851,188.57048 201.79719,190.56847   C 203.15582,192.5265 205.19377,194.1249 208.03092,195.36365   C 210.82811,196.56245 213.98494,197.2018 217.5014,197.2018   C 220.61827,197.2018 223.3755,196.72229 225.77309,195.80321   C 228.17068,194.88413 229.92891,193.60542 231.08775,192.00703   C 232.24658,190.36867 232.84598,188.61044 232.84598,186.69237   C 232.84598,184.77429 232.28654,183.05602 231.16767,181.61747   C 230.04879,180.17891 228.17068,178.94016 225.61325,177.98112   C 223.93494,177.34176 220.25863,176.34277 214.58433,174.94417   C 208.91004,173.58554 204.95401,172.30682 202.6763,171.10803   C 199.71927,169.5496 197.52148,167.63152 196.08293,165.35381   C 194.64437,163.0761 193.88514,160.47871 193.88514,157.64156   C 193.88514,154.5247 194.80421,151.64759 196.56245,148.93032   C 198.32068,146.21305 200.91807,144.13514 204.31466,142.73654   C 207.71124,141.33795 211.50743,140.61867 215.66325,140.61867   C 220.21867,140.61867 224.25462,141.37791 227.77108,142.85642   C 231.24759,144.33494 233.96486,146.49277 235.84297,149.36988   C 237.72108,152.20703 238.72008,155.48373 238.87992,159.08012   L 231.04779,159.67952   C 230.60823,155.76345 229.16968,152.84638 226.77209,150.84839   C 224.33453,148.8504 220.73815,147.8514 215.98293,147.8514   C 211.02791,147.8514 207.43152,148.73052 205.19377,150.56867   C 202.91606,152.36687 201.79719,154.56466 201.79719,157.12209   C 201.79719,159.31988 202.59638,161.15803 204.19478,162.59658   C 205.75321,164.03514 209.86907,165.51365 216.50241,166.99217   C 223.1757,168.51064 227.73112,169.82931 230.20863,170.94819   C 233.80502,172.58654 236.44237,174.70442 238.16064,177.22188   C 239.87891,179.77931 240.71807,182.69638 240.71807,186.01305   C 240.71807,189.32972 239.79899,192.40662 237.92088,195.32369   C 236.00281,198.24076 233.3255,200.47851 229.80903,202.11686   C 226.25261,203.71526 222.29658,204.51445 217.901,204.51445   C 212.30662,204.51445 207.59136,203.71526 203.83514,202.0769   C 200.03895,200.43855 197.08192,198.001 194.92409,194.72429   C 192.76626,191.44759 191.64739,187.77128 191.52751,183.61546   z "
     style="fill:#000000;fill-rule:evenodd;fill-opacity:1;stroke:none;" />
</svg>
