<?xml version="1.0" encoding="UTF-8" standalone="no"?>
<svg
   xmlns:dc="http://purl.org/dc/elements/1.1/"
   xmlns:cc="http://creativecommons.org/ns#"
   xmlns:rdf="http://www.w3.org/1999/02/22-rdf-syntax-ns#"
   xmlns:svg="http://www.w3.org/2000/svg"
   xmlns="http://www.w3.org/2000/svg"
   id="svg13"
   height="95.75mm"
   width="95.75mm"
   version="1.0">
  <metadata
     id="metadata17">
    <rdf:RDF>
      <cc:Work
         rdf:about="">
        <dc:format>image/svg+xml</dc:format>
        <dc:type
           rdf:resource="http://purl.org/dc/dcmitype/StillImage" />
      </cc:Work>
    </rdf:RDF>
  </metadata>
  <defs
     id="defs3">
    <pattern
       y="0"
       x="0"
       height="6"
       width="6"
       patternUnits="userSpaceOnUse"
       id="EMFhbasepattern" />
  </defs>
  <path
     id="path5"
     d="  M 54.345381,54.345381   L 54.345381,307.53092   L 307.53092,307.53092   L 307.53092,54.345381   L 54.345381,54.345381   z "
     style="fill:#aaffaa;fill-rule:evenodd;fill-opacity:1;stroke:none;" />
  <path
     id="path7"
     d="  M 54.345381,54.345381   L 307.53092,54.345381   L 307.53092,307.53092   L 54.345381,307.53092   z "
     style="fill:none;stroke:#000000;stroke-width:9.5903616px;stroke-linecap:butt;stroke-linejoin:miter;stroke-miterlimit:10;stroke-dasharray:none;stroke-opacity:1;" />
  <path
     id="path9"
     d="  M 54.345381,54.345381   L 54.345381,54.345381   L 180.93815,200.11887   L 180.93815,161.75743   L 307.53092,307.53092  "
     style="fill:none;stroke:#000000;stroke-width:9.5903616px;stroke-linecap:butt;stroke-linejoin:miter;stroke-miterlimit:10;stroke-dasharray:none;stroke-opacity:1;" />
  <path
     id="path11"
     d="  M 150.28895,118.88052   C 150.28895,112.72671 151.92731,107.89156 155.24397,104.41506   C 158.52068,100.93855 162.79638,99.18032 168.03112,99.18032   C 171.46767,99.18032 174.54458,100.01948 177.3018,101.65783   C 180.01907,103.29618 182.13695,105.57389 183.5755,108.49096   C 185.01405,111.40803 185.73333,114.7247 185.73333,118.44096   C 185.73333,122.19719 184.97409,125.55381 183.45562,128.51084   C 181.93715,131.50783 179.77931,133.74558 177.02209,135.26405   C 174.2249,136.78253 171.22791,137.54177 167.99116,137.54177   C 164.51466,137.54177 161.39779,136.70261 158.64056,135.0243   C 155.88333,133.34598 153.80542,131.02831 152.40683,128.11124   C 150.96827,125.19417 150.28895,122.11727 150.28895,118.88052   z  M 155.32389,118.96044   C 155.32389,123.39598 156.52269,126.95241 158.92028,129.50984   C 161.35783,132.06727 164.35482,133.34598 167.99116,133.34598   C 171.66747,133.34598 174.70442,132.06727 177.10201,129.46988   C 179.4996,126.87249 180.65843,123.19618 180.65843,118.401   C 180.65843,115.40401 180.17891,112.76667 179.13996,110.52891   C 178.14096,108.2512 176.62249,106.53293 174.66446,105.29418   C 172.70642,104.05542 170.50863,103.41606 168.07108,103.41606   C 164.59458,103.41606 161.59759,104.61486 159.08012,107.01245   C 156.60261,109.37008 155.32389,113.36606 155.32389,118.96044   z  M 192.04699,136.94237   L 192.04699,99.859637   L 206.03293,99.859637   C 208.51044,99.859637 210.38855,99.979517 211.66727,100.21928   C 213.50542,100.49899 215.02389,101.09839 216.26265,101.93755   C 217.5014,102.77671 218.46044,103.9755 219.21968,105.53393   C 219.97891,107.05241 220.33855,108.73072 220.33855,110.56887   C 220.33855,113.7257 219.33956,116.40301 217.34156,118.56084   C 215.34357,120.75863 211.70723,121.83755 206.47249,121.83755   L 196.96205,121.83755   L 196.96205,136.94237   z  M 196.96205,117.48193   L 206.55241,117.48193   C 209.70923,117.48193 211.94698,116.88253 213.30562,115.72369   C 214.62429,114.5249 215.30361,112.88654 215.30361,110.72871   C 215.30361,109.17028 214.90401,107.8516 214.10482,106.73273   C 213.34558,105.65381 212.30662,104.89458 211.02791,104.5749   C 210.18875,104.33514 208.67028,104.21526 206.43253,104.21526   L 196.96205,104.21526   z  M 224.93393,124.99438   L 229.56927,124.59478   C 229.76907,126.47289 230.28855,127.99136 231.08775,129.19016   C 231.88694,130.34899 233.1257,131.30803 234.80401,132.06727   C 236.48233,132.78654 238.4004,133.14618 240.51827,133.14618   C 242.35642,133.14618 244.03474,132.86646 245.47329,132.30703   C 246.87188,131.74759 247.9508,130.98835 248.67008,130.02932   C 249.34939,129.07028 249.70903,127.99136 249.70903,126.87249   C 249.70903,125.71365 249.38935,124.6747 248.71004,123.79558   C 248.03072,122.95642 246.91184,122.19719 245.35341,121.63775   C 244.35441,121.23815 242.15662,120.63875 238.76004,119.7996   C 235.36345,119.0004 232.96586,118.24116 231.60723,117.52189   C 229.84899,116.56285 228.53032,115.44397 227.6512,114.04538   C 226.77209,112.68675 226.33253,111.12831 226.33253,109.45   C 226.33253,107.57189 226.89196,105.81365 227.93092,104.1753   C 229.00984,102.57691 230.56827,101.33815 232.60622,100.49899   C 234.64417,99.659838 236.88192,99.22028 239.39939,99.22028   C 242.15662,99.22028 244.55421,99.659838 246.67208,100.53895   C 248.75,101.41807 250.38835,102.73675 251.50723,104.45502   C 252.6261,106.17329 253.2255,108.13132 253.30542,110.28916   L 248.63012,110.64879   C 248.3504,108.29116 247.51124,106.53293 246.03273,105.33414   C 244.59417,104.13534 242.43634,103.53594 239.59919,103.53594   C 236.64217,103.53594 234.44437,104.09538 233.08574,105.1743   C 231.76706,106.25321 231.08775,107.57189 231.08775,109.09036   C 231.08775,110.44899 231.56727,111.52791 232.5263,112.40703   C 233.44538,113.24618 235.92289,114.1253 239.91887,115.04438   C 243.91486,115.92349 246.63212,116.72269 248.11064,117.40201   C 250.26847,118.401 251.86686,119.63976 252.90582,121.19819   C 253.90482,122.71666 254.42429,124.4749 254.42429,126.47289   C 254.42429,128.43092 253.86486,130.26907 252.74598,132.02731   C 251.6271,133.78554 249.98875,135.14417 247.87088,136.10321   C 245.75301,137.06225 243.39538,137.54177 240.71807,137.54177   C 237.36144,137.54177 234.56425,137.06225 232.28654,136.10321   C 230.04879,135.10421 228.2506,133.6257 226.97188,131.66767   C 225.65321,129.70964 224.97389,127.51185 224.93393,124.99438   z "
     style="fill:#000000;fill-rule:evenodd;fill-opacity:1;stroke:none;" />
</svg>
