<?xml version="1.0" encoding="UTF-8" standalone="no"?>
<svg
   xmlns:dc="http://purl.org/dc/elements/1.1/"
   xmlns:cc="http://creativecommons.org/ns#"
   xmlns:rdf="http://www.w3.org/1999/02/22-rdf-syntax-ns#"
   xmlns:svg="http://www.w3.org/2000/svg"
   xmlns="http://www.w3.org/2000/svg"
   id="svg13"
   height="89.669998mm"
   width="120.11mm"
   version="1.0">
  <metadata
     id="metadata17">
    <rdf:RDF>
      <cc:Work
         rdf:about="">
        <dc:format>image/svg+xml</dc:format>
        <dc:type
           rdf:resource="http://purl.org/dc/dcmitype/StillImage" />
      </cc:Work>
    </rdf:RDF>
  </metadata>
  <defs
     id="defs3">
    <pattern
       y="0"
       x="0"
       height="6"
       width="6"
       patternUnits="userSpaceOnUse"
       id="EMFhbasepattern" />
  </defs>
  <path
     id="path5"
     d="  M 54.345381,54.345381   L 54.345381,284.51405   L 399.59839,284.51405   L 399.59839,54.345381   L 54.345381,54.345381   z "
     style="fill:#80e0ff;fill-rule:evenodd;fill-opacity:1;stroke:none;" />
  <path
     id="path7"
     d="  M 54.345381,54.345381   L 399.59839,54.345381   L 399.59839,284.51405   L 54.345381,284.51405   z "
     style="fill:none;stroke:#000000;stroke-width:9.5903616px;stroke-linecap:butt;stroke-linejoin:miter;stroke-miterlimit:10;stroke-dasharray:none;stroke-opacity:1;" />
  <path
     id="path9"
     d="  M 54.345381,54.345381   L 54.345381,54.345381   L 226.97188,188.61044   L 226.97188,150.24899   L 399.59839,284.51405  "
     style="fill:none;stroke:#000000;stroke-width:9.5903616px;stroke-linecap:butt;stroke-linejoin:miter;stroke-miterlimit:10;stroke-dasharray:none;stroke-opacity:1;" />
  <path
     id="path11"
     d="  M 196.32269,107.37209   C 196.32269,101.21827 197.96104,96.383131 201.27771,92.906625   C 204.55441,89.430119 208.83012,87.671886 214.06486,87.671886   C 217.5014,87.671886 220.57831,88.511043 223.33554,90.149396   C 226.05281,91.78775 228.17068,94.06546 229.60923,96.982529   C 231.04779,99.899597 231.76706,103.21626 231.76706,106.93253   C 231.76706,110.68875 231.00783,114.04538 229.48935,117.00241   C 227.97088,119.9994 225.81305,122.23715 223.05582,123.75562   C 220.25863,125.27409 217.26164,126.03333 214.0249,126.03333   C 210.54839,126.03333 207.43152,125.19417 204.67429,123.51586   C 201.91707,121.83755 199.83915,119.51988 198.44056,116.60281   C 197.00201,113.68574 196.32269,110.60883 196.32269,107.37209   z  M 201.35763,107.45201   C 201.35763,111.88755 202.55642,115.44397 204.95401,118.0014   C 207.39156,120.55883 210.38855,121.83755 214.0249,121.83755   C 217.7012,121.83755 220.73815,120.55883 223.13574,117.96144   C 225.53333,115.36405 226.69217,111.68775 226.69217,106.89257   C 226.69217,103.89558 226.21265,101.25823 225.17369,99.02048   C 224.1747,96.74277 222.65622,95.024497 220.69819,93.785742   C 218.74016,92.546987 216.54237,91.907629 214.10482,91.907629   C 210.62831,91.907629 207.63132,93.106424 205.11385,95.504015   C 202.63634,97.861645 201.35763,101.85763 201.35763,107.45201   z  M 238.08072,125.43393   L 238.08072,88.351204   L 252.06666,88.351204   C 254.54417,88.351204 256.42229,88.471083 257.701,88.710842   C 259.53915,88.990561 261.05763,89.589959 262.29638,90.429115   C 263.53514,91.268272 264.49417,92.467067 265.25341,94.025501   C 266.01265,95.543975 266.37229,97.222288 266.37229,99.06044   C 266.37229,102.21727 265.37329,104.89458 263.3753,107.05241   C 261.37731,109.2502 257.74096,110.32911 252.50622,110.32911   L 242.99578,110.32911   L 242.99578,125.43393   z  M 242.99578,105.97349   L 252.58614,105.97349   C 255.74297,105.97349 257.98072,105.37409 259.33935,104.21526   C 260.65803,103.01646 261.33735,101.37811 261.33735,99.22028   C 261.33735,97.661846 260.93775,96.343171 260.13855,95.224296   C 259.37931,94.14538 258.34036,93.386143 257.06164,93.066465   C 256.22249,92.826705 254.70401,92.706826 252.46626,92.706826   L 242.99578,92.706826   z  M 270.96767,113.48594   L 275.60301,113.08634   C 275.80281,114.96446 276.32229,116.48293 277.12148,117.68173   C 277.92068,118.84056 279.15943,119.7996 280.83775,120.55883   C 282.51606,121.27811 284.43413,121.63775 286.552,121.63775   C 288.39016,121.63775 290.06847,121.35803 291.50702,120.79859   C 292.90562,120.23915 293.98453,119.47992 294.70381,118.52088   C 295.38313,117.56185 295.74277,116.48293 295.74277,115.36405   C 295.74277,114.20522 295.42309,113.16626 294.74377,112.28715   C 294.06445,111.44799 292.94558,110.68875 291.38714,110.12932   C 290.38815,109.72972 288.19036,109.13032 284.79377,108.29116   C 281.39718,107.49197 278.99959,106.73273 277.64096,106.01345   C 275.88273,105.05442 274.56405,103.93554 273.68494,102.53695   C 272.80582,101.17831 272.36626,99.619878 272.36626,97.941565   C 272.36626,96.063452 272.9257,94.30522 273.96465,92.666866   C 275.04357,91.068473 276.602,89.829718 278.63996,88.990561   C 280.67791,88.151404 282.91566,87.711846 285.43313,87.711846   C 288.19036,87.711846 290.58795,88.151404 292.70582,89.030521   C 294.78373,89.909637 296.42208,91.228312 297.54096,92.946585   C 298.65984,94.664858 299.25923,96.62289 299.33915,98.780721   L 294.66385,99.14036   C 294.38413,96.78273 293.54498,95.024497 292.06646,93.825701   C 290.62791,92.626906 288.47008,92.027509 285.63293,92.027509   C 282.6759,92.027509 280.47811,92.586946 279.11947,93.665862   C 277.8008,94.744778 277.12148,96.063452 277.12148,97.581926   C 277.12148,98.940561 277.601,100.01948 278.56004,100.89859   C 279.47911,101.73775 281.95662,102.61687 285.95261,103.53594   C 289.94859,104.41506 292.66586,105.21426 294.14437,105.89357   C 296.3022,106.89257 297.9006,108.13132 298.93955,109.68976   C 299.93855,111.20823 300.45803,112.96646 300.45803,114.96446   C 300.45803,116.92249 299.89859,118.76064 298.77971,120.51887   C 297.66084,122.27711 296.02249,123.63574 293.90461,124.59478   C 291.78674,125.55381 289.42911,126.03333 286.7518,126.03333   C 283.39518,126.03333 280.59799,125.55381 278.32028,124.59478   C 276.08253,123.59578 274.28433,122.11727 273.00562,120.15924   C 271.68694,118.2012 271.00763,116.00341 270.96767,113.48594   z "
     style="fill:#000000;fill-rule:evenodd;fill-opacity:1;stroke:none;" />
</svg>
