<?xml version="1.0" encoding="UTF-8" standalone="no"?>
<svg
   xmlns:dc="http://purl.org/dc/elements/1.1/"
   xmlns:cc="http://creativecommons.org/ns#"
   xmlns:rdf="http://www.w3.org/1999/02/22-rdf-syntax-ns#"
   xmlns:svg="http://www.w3.org/2000/svg"
   xmlns="http://www.w3.org/2000/svg"
   id="svg13"
   height="89.669998mm"
   width="120.11mm"
   version="1.0">
  <metadata
     id="metadata17">
    <rdf:RDF>
      <cc:Work
         rdf:about="">
        <dc:format>image/svg+xml</dc:format>
        <dc:type
           rdf:resource="http://purl.org/dc/dcmitype/StillImage" />
      </cc:Work>
    </rdf:RDF>
  </metadata>
  <defs
     id="defs3">
    <pattern
       y="0"
       x="0"
       height="6"
       width="6"
       patternUnits="userSpaceOnUse"
       id="EMFhbasepattern" />
  </defs>
  <path
     id="path5"
     d="  M 54.345381,54.345381   L 54.345381,284.51405   L 399.59839,284.51405   L 399.59839,54.345381   L 54.345381,54.345381   z "
     style="fill:#80e0ff;fill-rule:evenodd;fill-opacity:1;stroke:none;" />
  <path
     id="path7"
     d="  M 54.345381,54.345381   L 399.59839,54.345381   L 399.59839,284.51405   L 54.345381,284.51405   z "
     style="fill:none;stroke:#000000;stroke-width:9.5903616px;stroke-linecap:butt;stroke-linejoin:miter;stroke-miterlimit:10;stroke-dasharray:none;stroke-opacity:1;" />
  <path
     id="path9"
     d="  M 54.345381,54.345381   L 54.345381,54.345381   L 226.97188,188.61044   L 226.97188,150.24899   L 399.59839,284.51405  "
     style="fill:none;stroke:#000000;stroke-width:9.5903616px;stroke-linecap:butt;stroke-linejoin:miter;stroke-miterlimit:10;stroke-dasharray:none;stroke-opacity:1;" />
  <path
     id="path11"
     d="  M 229.64919,112.32711   L 234.36445,113.48594   C 233.36546,117.40201 231.60723,120.35903 229.00984,122.39699   C 226.45241,124.43494 223.29558,125.43393 219.57931,125.43393   C 215.74317,125.43393 212.6263,124.6747 210.18875,123.0763   C 207.79116,121.51787 205.95301,119.24016 204.71425,116.28313   C 203.43554,113.3261 202.79618,110.12932 202.79618,106.69277   C 202.79618,102.9765 203.51546,99.739758 204.95401,96.982529   C 206.35261,94.2253 208.39056,92.107428 210.98795,90.668874   C 213.6253,89.23032 216.50241,88.511043 219.65923,88.511043   C 223.21566,88.511043 226.25261,89.430119 228.69016,91.268272   C 231.12771,93.066465 232.80602,95.623894 233.76506,98.900601   L 229.12972,100.01948   C 228.29056,97.422087 227.09176,95.543975 225.49337,94.345179   C 223.93494,93.146384 221.93694,92.546987 219.57931,92.546987   C 216.82209,92.546987 214.54437,93.226304 212.70622,94.544979   C 210.82811,95.863653 209.54939,97.621886 208.79016,99.819677   C 208.07088,102.05743 207.67128,104.33514 207.67128,106.69277   C 207.67128,109.72972 208.11084,112.36707 209.02992,114.64478   C 209.90903,116.92249 211.26767,118.6008 213.14578,119.71968   C 215.02389,120.83855 217.02188,121.39799 219.21968,121.39799   C 221.85702,121.39799 224.09478,120.63875 225.93293,119.12028   C 227.77108,117.60181 229.00984,115.32409 229.64919,112.32711   z  M 265.65301,112.32711   L 270.36827,113.48594   C 269.40923,117.40201 267.61104,120.35903 265.05361,122.39699   C 262.45622,124.43494 259.33935,125.43393 255.62309,125.43393   C 251.74698,125.43393 248.63012,124.6747 246.23253,123.0763   C 243.79498,121.51787 241.95682,119.24016 240.71807,116.28313   C 239.43935,113.3261 238.83996,110.12932 238.83996,106.69277   C 238.83996,102.9765 239.51927,99.739758 240.95783,96.982529   C 242.39638,94.2253 244.39437,92.107428 247.03172,90.668874   C 249.62911,89.23032 252.54618,88.511043 255.66305,88.511043   C 259.25943,88.511043 262.25642,89.430119 264.69397,91.268272   C 267.13152,93.066465 268.80984,95.623894 269.76887,98.900601   L 265.13353,100.01948   C 264.29437,97.422087 263.09558,95.543975 261.53714,94.345179   C 259.93875,93.146384 257.98072,92.546987 255.58313,92.546987   C 252.8259,92.546987 250.54819,93.226304 248.71004,94.544979   C 246.87188,95.863653 245.55321,97.621886 244.83393,99.819677   C 244.0747,102.05743 243.71506,104.33514 243.71506,106.69277   C 243.71506,109.72972 244.15461,112.36707 245.03373,114.64478   C 245.91285,116.92249 247.27148,118.6008 249.14959,119.71968   C 251.02771,120.83855 253.0257,121.39799 255.22349,121.39799   C 257.86084,121.39799 260.09859,120.63875 261.93674,119.12028   C 263.7749,117.60181 265.01365,115.32409 265.65301,112.32711   z  M 276.20241,124.83454   L 276.20241,89.1504   L 289.66887,89.1504   C 292.0265,89.1504 293.86465,89.23032 295.10341,89.470079   C 296.86164,89.749798 298.34016,90.309236 299.49899,91.148392   C 300.69779,91.947589 301.65682,93.106424 302.3761,94.584938   C 303.09538,96.063452 303.45502,97.701806 303.45502,99.460039   C 303.45502,102.49699 302.49598,105.05442 300.53795,107.17229   C 298.61988,109.2502 295.14337,110.32911 290.06847,110.32911   L 280.91767,110.32911   L 280.91767,124.83454   z  M 280.91767,106.09337   L 290.14839,106.09337   C 293.2253,106.09337 295.38313,105.53393 296.66184,104.41506   C 297.94056,103.25622 298.57992,101.65783 298.57992,99.619878   C 298.57992,98.101404 298.22028,96.822689 297.46104,95.783734   C 296.7018,94.704818 295.70281,93.985541 294.46405,93.665862   C 293.66486,93.466063 292.18634,93.346183 290.06847,93.346183   L 280.91767,93.346183   z "
     style="fill:#000000;fill-rule:evenodd;fill-opacity:1;stroke:none;" />
</svg>
