<?xml version="1.0" encoding="UTF-8" standalone="no"?>
<svg
   xmlns:dc="http://purl.org/dc/elements/1.1/"
   xmlns:cc="http://creativecommons.org/ns#"
   xmlns:rdf="http://www.w3.org/1999/02/22-rdf-syntax-ns#"
   xmlns:svg="http://www.w3.org/2000/svg"
   xmlns="http://www.w3.org/2000/svg"
   id="svg13"
   height="116.73mm"
   width="116.73mm"
   version="1.0">
  <metadata
     id="metadata17">
    <rdf:RDF>
      <cc:Work
         rdf:about="">
        <dc:format>image/svg+xml</dc:format>
        <dc:type
           rdf:resource="http://purl.org/dc/dcmitype/StillImage" />
      </cc:Work>
    </rdf:RDF>
  </metadata>
  <defs
     id="defs3">
    <pattern
       y="0"
       x="0"
       height="6"
       width="6"
       patternUnits="userSpaceOnUse"
       id="EMFhbasepattern" />
  </defs>
  <path
     id="path5"
     d="  M 220.57831,386.49156   L 220.57831,386.49156   L 386.49156,220.57831   L 220.57831,54.665059   L 54.665059,220.57831   L 220.57831,386.49156   z "
     style="fill:#ff8080;fill-rule:evenodd;fill-opacity:1;stroke:none;" />
  <path
     id="path7"
     d="  M 220.57831,386.49156   L 220.57831,386.49156   L 386.49156,220.57831   L 220.57831,54.665059   L 54.665059,220.57831   L 220.57831,386.49156  "
     style="fill:none;stroke:#000000;stroke-width:9.5903616px;stroke-linecap:butt;stroke-linejoin:miter;stroke-miterlimit:10;stroke-dasharray:none;stroke-opacity:1;" />
  <path
     id="path9"
     d="  M 120.83855,153.44578   L 120.83855,153.44578   L 220.57831,239.75903   L 220.57831,201.39759   L 320.31807,287.71084  "
     style="fill:none;stroke:#000000;stroke-width:9.5903616px;stroke-linecap:butt;stroke-linejoin:miter;stroke-miterlimit:10;stroke-dasharray:none;stroke-opacity:1;" />
  <path
     id="path11"
     d="  M 189.92911,158.52068   C 189.92911,152.36687 191.56747,147.53172 194.88413,144.05522   C 198.16084,140.57871 202.43654,138.82048 207.67128,138.82048   C 211.10783,138.82048 214.18474,139.65964 216.94196,141.29799   C 219.65923,142.93634 221.77711,145.21405 223.21566,148.13112   C 224.65421,151.04819 225.37349,154.36486 225.37349,158.08112   C 225.37349,161.83735 224.61425,165.19397 223.09578,168.151   C 221.57731,171.14799 219.41947,173.38574 216.66225,174.90421   C 213.86506,176.42269 210.86807,177.18193 207.63132,177.18193   C 204.15482,177.18193 201.03795,176.34277 198.28072,174.66446   C 195.52349,172.98614 193.44558,170.66847 192.04699,167.7514   C 190.60843,164.83433 189.92911,161.75743 189.92911,158.52068   z  M 194.96405,158.6006   C 194.96405,163.03614 196.16285,166.59257 198.56044,169.15   C 200.99799,171.70743 203.99498,172.98614 207.63132,172.98614   C 211.30763,172.98614 214.34458,171.70743 216.74217,169.11004   C 219.13976,166.51265 220.29859,162.83634 220.29859,158.04116   C 220.29859,155.04417 219.81907,152.40683 218.78012,150.16907   C 217.78112,147.89136 216.26265,146.17309 214.30462,144.93434   C 212.34658,143.69558 210.14879,143.05622 207.71124,143.05622   C 204.23474,143.05622 201.23775,144.25502 198.72028,146.65261   C 196.24277,149.01024 194.96405,153.00622 194.96405,158.6006   z  M 231.68715,176.58253   L 231.68715,139.4998   L 245.67309,139.4998   C 248.1506,139.4998 250.02871,139.61968 251.30743,139.85944   C 253.14558,140.13915 254.66405,140.73855 255.90281,141.57771   C 257.14156,142.41687 258.1006,143.61566 258.85984,145.17409   C 259.61907,146.69257 259.97871,148.37088 259.97871,150.20903   C 259.97871,153.36586 258.97972,156.04317 256.98172,158.201   C 254.98373,160.39879 251.34739,161.47771 246.11265,161.47771   L 236.60221,161.47771   L 236.60221,176.58253   z  M 236.60221,157.12209   L 246.19257,157.12209   C 249.34939,157.12209 251.58714,156.52269 252.94578,155.36385   C 254.26445,154.16506 254.94377,152.5267 254.94377,150.36887   C 254.94377,148.81044 254.54417,147.49176 253.74498,146.37289   C 252.98574,145.29397 251.94678,144.53474 250.66807,144.21506   C 249.82891,143.9753 248.31044,143.85542 246.07269,143.85542   L 236.60221,143.85542   z  M 264.57409,164.63454   L 269.20943,164.23494   C 269.40923,166.11305 269.92871,167.63152 270.72791,168.83032   C 271.5271,169.98915 272.76586,170.94819 274.44417,171.70743   C 276.12249,172.4267 278.04056,172.78634 280.15843,172.78634   C 281.99658,172.78634 283.6749,172.50662 285.11345,171.94719   C 286.51204,171.38775 287.59096,170.62851 288.31024,169.66948   C 288.98955,168.71044 289.34919,167.63152 289.34919,166.51265   C 289.34919,165.35381 289.02951,164.31486 288.3502,163.43574   C 287.67088,162.59658 286.552,161.83735 284.99357,161.27791   C 283.99457,160.87831 281.79678,160.27891 278.4002,159.43976   C 275.00361,158.64056 272.60602,157.88132 271.24739,157.16205   C 269.48915,156.20301 268.17048,155.08413 267.29136,153.68554   C 266.41225,152.32691 265.97269,150.76847 265.97269,149.09016   C 265.97269,147.21205 266.53212,145.45381 267.57108,143.81546   C 268.65,142.21707 270.20843,140.97831 272.24638,140.13915   C 274.28433,139.3 276.52208,138.86044 279.03955,138.86044   C 281.79678,138.86044 284.19437,139.3 286.31224,140.17911   C 288.39016,141.05823 290.02851,142.37691 291.14739,144.09518   C 292.26626,145.81345 292.86566,147.77148 292.94558,149.92932   L 288.27028,150.28895   C 287.99056,147.93132 287.1514,146.17309 285.67289,144.9743   C 284.23433,143.7755 282.0765,143.1761 279.23935,143.1761   C 276.28233,143.1761 274.08453,143.73554 272.7259,144.81446   C 271.40722,145.89337 270.72791,147.21205 270.72791,148.73052   C 270.72791,150.08915 271.20743,151.16807 272.16646,152.04719   C 273.08554,152.88634 275.56305,153.76546 279.55903,154.68454   C 283.55502,155.56365 286.27229,156.36285 287.7508,157.04217   C 289.90863,158.04116 291.50702,159.27992 292.54598,160.83835   C 293.54498,162.35682 294.06445,164.11506 294.06445,166.11305   C 294.06445,168.07108 293.50502,169.90923 292.38614,171.66747   C 291.26726,173.4257 289.62891,174.78433 287.51104,175.74337   C 285.39317,176.70241 283.03554,177.18193 280.35823,177.18193   C 277.0016,177.18193 274.20441,176.70241 271.9267,175.74337   C 269.68895,174.74437 267.89076,173.26586 266.61204,171.30783   C 265.29337,169.3498 264.61405,167.15201 264.57409,164.63454   z "
     style="fill:#000000;fill-rule:evenodd;fill-opacity:1;stroke:none;" />
</svg>
