<?xml version="1.0" encoding="UTF-8" standalone="no"?>
<svg
   xmlns:dc="http://purl.org/dc/elements/1.1/"
   xmlns:cc="http://creativecommons.org/ns#"
   xmlns:rdf="http://www.w3.org/1999/02/22-rdf-syntax-ns#"
   xmlns:svg="http://www.w3.org/2000/svg"
   xmlns="http://www.w3.org/2000/svg"
   id="svg9"
   height="112.9mm"
   width="112.9mm"
   version="1.0">
  <metadata
     id="metadata13">
    <rdf:RDF>
      <cc:Work
         rdf:about="">
        <dc:format>image/svg+xml</dc:format>
        <dc:type
           rdf:resource="http://purl.org/dc/dcmitype/StillImage" />
      </cc:Work>
    </rdf:RDF>
  </metadata>
  <defs
     id="defs3">
    <pattern
       y="0"
       x="0"
       height="6"
       width="6"
       patternUnits="userSpaceOnUse"
       id="EMFhbasepattern" />
  </defs>
  <path
     id="path5"
     d="  M 576.96079,494.51746   C 576.96079,520.87589 568.04878,543.04265 550.14921,560.97997   C 532.24965,578.87954 510.15842,587.82932 483.83775,587.82932   C 457.81919,587.82932 435.76572,578.80401 417.75287,560.7534   C 399.74002,542.70278 390.71472,520.61155 390.71472,494.51746   C 390.71472,468.15904 399.6645,445.91675 417.56406,427.86614   C 435.42586,409.81553 457.55485,400.79022 483.83775,400.79022   C 509.89408,400.79022 531.94755,409.89105 549.9604,428.09272   C 567.97325,446.25662 576.96079,468.38561 576.96079,494.51746   z  M 569.78586,494.51746   C 569.78586,470.16046 561.51581,449.65527 545.05124,433.00188   C 528.5489,416.31073 508.15699,408.00291 483.83775,408.00291   C 459.55628,408.00291 439.16437,416.31073 422.66204,433.00188   C 406.19746,449.65527 397.92741,470.16046 397.92741,494.51746   C 397.92741,518.61012 406.23522,539.00203 422.85085,555.65542   C 439.50424,572.30881 459.82062,580.65439 483.83775,580.65439   C 507.89265,580.65439 528.20903,572.30881 544.82466,555.65542   C 561.44029,539.00203 569.78586,518.61012 569.78586,494.51746   z  M 505.02268,225.75969   L 505.02268,339.38792   L 479.34398,307.17626   L 479.75937,400.41259   L 487.46298,400.79022   L 487.46298,330.92906   L 513.48154,360.49732   L 513.48154,225.75969   z "
     style="fill:#ff0000;fill-rule:nonzero;fill-opacity:1;stroke:none;" />
  <path
     id="path7"
     d="  M 512.95287,505.39315   L 524.05513,508.18759   C 521.71383,517.32619 517.52216,524.27454 511.48012,529.07042   C 505.43807,533.86629 498.03656,536.24535 489.31336,536.24535   C 480.25029,536.24535 472.88655,534.39497 467.22213,530.73198   C 461.55771,527.03123 457.25275,521.70667 454.30725,514.72056   C 451.32399,507.73444 449.85124,500.25741 449.85124,492.21393   C 449.85124,483.49073 451.51281,475.86265 454.8737,469.36745   C 458.19682,462.87225 462.95493,457.92532 469.11027,454.52667   C 475.2656,451.16578 482.0629,449.46646 489.46441,449.46646   C 497.84775,449.46646 504.90939,451.61893 510.64934,455.88613   C 516.38928,460.15333 520.35437,466.15761 522.62014,473.89898   L 511.66893,476.50461   C 509.74303,470.38704 506.91082,465.93103 503.21007,463.13659   C 499.50931,460.3799 494.86449,458.98268 489.23783,458.98268   C 482.7804,458.98268 477.41808,460.53095 473.07536,463.6275   C 468.73264,466.68629 465.71162,470.84019 463.93676,476.05146   C 462.19968,481.26272 461.29337,486.62504 461.29337,492.17617   C 461.29337,499.31334 462.35073,505.5442 464.42768,510.86875   C 466.50463,516.19331 469.75223,520.1584 474.13272,522.80179   C 478.5132,525.44519 483.27131,526.72912 488.36929,526.72912   C 494.60015,526.72912 499.88694,524.95427 504.1919,521.36681   C 508.49686,517.77934 511.40459,512.45479 512.95287,505.39315   z "
     style="fill:#ff0000;fill-rule:nonzero;fill-opacity:1;stroke:#ff0000;stroke-width:1.0573581px;stroke-linecap:butt;stroke-linejoin:miter;stroke-miterlimit:282;stroke-dasharray:none;stroke-opacity:1;" />
</svg>
