<?xml version="1.0" encoding="UTF-8" standalone="no"?>
<svg
   xmlns:dc="http://purl.org/dc/elements/1.1/"
   xmlns:cc="http://creativecommons.org/ns#"
   xmlns:rdf="http://www.w3.org/1999/02/22-rdf-syntax-ns#"
   xmlns:svg="http://www.w3.org/2000/svg"
   xmlns="http://www.w3.org/2000/svg"
   id="svg21"
   height="130.27mm"
   width="130.27mm"
   version="1.0">
  <metadata
     id="metadata25">
    <rdf:RDF>
      <cc:Work
         rdf:about="">
        <dc:format>image/svg+xml</dc:format>
        <dc:type
           rdf:resource="http://purl.org/dc/dcmitype/StillImage" />
      </cc:Work>
    </rdf:RDF>
  </metadata>
  <defs
     id="defs3">
    <pattern
       y="0"
       x="0"
       height="6"
       width="6"
       patternUnits="userSpaceOnUse"
       id="EMFhbasepattern" />
  </defs>
  <path
     id="path5"
     d="  M 198.2008,63.935742   L 198.2008,111.88755   L 294.10441,111.88755   L 294.10441,63.935742   L 198.2008,63.935742   z "
     style="fill:#000000;fill-rule:evenodd;fill-opacity:1;stroke:none;" />
  <path
     id="path7"
     d="  M 164.63454,327.67068   C 164.63454,437.95983 327.67068,437.95983 327.67068,327.67068   C 437.95983,327.67068 437.95983,164.63454 327.67068,164.63454   C 327.67068,54.345381 164.63454,54.345381 164.63454,164.63454   C 54.345381,164.63454 54.345381,327.67068 164.63454,327.67068   z "
     style="fill:#ffff80;fill-rule:evenodd;fill-opacity:1;stroke:none;" />
  <path
     id="path9"
     d="  M 164.63454,327.67068   C 164.63454,437.95983 327.67068,437.95983 327.67068,327.67068   C 437.95983,327.67068 437.95983,164.63454 327.67068,164.63454   C 327.67068,54.345381 164.63454,54.345381 164.63454,164.63454   C 54.345381,164.63454 54.345381,327.67068 164.63454,327.67068  "
     style="fill:none;stroke:#000000;stroke-width:9.5903616px;stroke-linecap:butt;stroke-linejoin:miter;stroke-miterlimit:10;stroke-dasharray:none;stroke-opacity:1;" />
  <path
     id="path11"
     d="  M 231.76706,217.22168   C 231.76706,215.66325 233.64518,213.38554 234.84397,213.38554   L 258.14056,213.38554   C 259.25943,213.38554 261.21747,216.82209 261.21747,217.58132   L 261.21747,219.13976   C 261.21747,221.25763 258.14056,220.81807 258.14056,222.5763   L 258.14056,234.80401   C 258.14056,235.96285 281.83674,267.77088 281.83674,270.32831   L 281.83674,278.36024   C 281.83674,285.67289 265.65301,292.10642 257.38132,292.10642   L 235.60321,292.10642   C 230.68815,292.10642 223.61526,290.38815 220.61827,288.3502   C 218.46044,286.91164 211.14779,281.51706 211.14779,278.71988   L 211.14779,275.28333   C 211.14779,269.44919 219.73915,258.42028 222.41646,253.70502   C 224.05482,250.86787 234.44437,234.52429 234.44437,232.88594   L 234.44437,222.5763   C 234.44437,220.77811 231.76706,221.13775 231.76706,217.22168   z  M 257.38132,207.67128   L 174.46466,207.67128   L 174.46466,296.3022   L 318.51987,296.3022   L 318.51987,207.67128   L 302.45602,207.67128   L 302.45602,175.58353   L 291.74678,175.58353   L 291.74678,207.67128   L 268.09056,207.67128   L 268.09056,175.58353   L 257.38132,175.58353   z "
     style="fill:#ffffff;fill-rule:evenodd;fill-opacity:1;stroke:none;" />
  <path
     id="path13"
     d="  M 257.38132,175.58353   L 268.09056,175.58353   L 268.09056,207.67128   L 291.74678,207.67128   L 291.74678,175.58353   L 302.45602,175.58353   L 302.45602,207.67128   L 318.51987,207.67128   L 318.51987,296.3022   L 174.46466,296.3022   L 174.46466,207.67128   L 257.38132,207.67128   L 257.38132,175.58353  z    M 171.78735,299.33915   L 321.19718,299.33915   L 321.19718,204.59437   L 305.89257,204.59437   L 305.89257,172.50662   L 288.70984,172.50662   L 288.70984,204.59437   L 271.5271,204.59437   L 271.5271,172.50662   L 254.30441,172.50662   L 254.30441,204.59437   L 171.78735,204.59437   L 171.78735,299.33915  z   "
     style="fill:#000000;fill-rule:evenodd;fill-opacity:1;stroke:none;" />
  <path
     id="path15"
     d="  M 179.97911,208.7502   L 179.97911,295.06345   L 315.20321,295.06345   L 315.20321,208.7502   L 179.97911,208.7502   z "
     style="fill:#ffffff;fill-rule:evenodd;fill-opacity:1;stroke:none;" />
  <path
     id="path17"
     d="  M 179.97911,208.7502   L 315.20321,208.7502   L 315.20321,295.06345   L 179.97911,295.06345   z "
     style="fill:none;stroke:#ffffff;stroke-width:0.95903611px;stroke-linecap:butt;stroke-linejoin:miter;stroke-miterlimit:10;stroke-dasharray:none;stroke-opacity:1;" />
  <path
     id="path19"
     d="  M 247.27148,280.39819   L 247.27148,273.24538   C 243.71506,272.80582 240.79799,272.00662 238.56024,270.84779   C 236.32249,269.68895 234.36445,267.81084 232.7261,265.25341   C 231.12771,262.69598 230.16867,259.53915 229.88895,255.82289   L 237.08172,254.46425   C 237.64116,258.3004 238.64016,261.13755 240.03875,262.93574   C 242.0767,265.49317 244.47429,266.89176 247.27148,267.21144   L 247.27148,244.39437   C 244.35441,243.83494 241.31747,242.6761 238.24056,240.95783   C 235.96285,239.67911 234.20462,237.92088 232.96586,235.68313   C 231.76706,233.40542 231.12771,230.84799 231.12771,228.01084   C 231.12771,222.89598 232.9259,218.78012 236.56225,215.62329   C 238.95984,213.50542 242.55622,212.18674 247.27148,211.70723   L 247.27148,208.27068   L 251.50723,208.27068   L 251.50723,211.70723   C 255.66305,212.10682 258.97972,213.34558 261.41727,215.38353   C 264.53413,217.98092 266.4522,221.53735 267.09156,226.09277   L 259.65903,227.21164   C 259.25943,224.37449 258.38032,222.21666 257.02168,220.73815   C 255.70301,219.21968 253.86486,218.26064 251.50723,217.78112   L 251.50723,238.44036   C 255.10361,239.31947 257.5012,240.03875 258.66004,240.51827   C 260.89779,241.51727 262.73594,242.71606 264.13453,244.11466   C 265.53313,245.51325 266.61204,247.19156 267.37128,249.14959   C 268.13052,251.06767 268.49016,253.14558 268.49016,255.42329   C 268.49016,260.37831 266.93172,264.53413 263.7749,267.8508   C 260.61807,271.16747 256.54216,272.9257 251.50723,273.16546   L 251.50723,280.39819   z  M 247.27148,217.7012   C 244.51425,218.1008 242.31646,219.21968 240.71807,221.01787   C 239.07972,222.81606 238.28052,224.97389 238.28052,227.4514   C 238.28052,229.88895 238.95984,231.9269 240.35843,233.56526   C 241.71706,235.20361 244.03474,236.52229 247.27148,237.52128   z  M 251.50723,267.21144   C 254.30441,266.8518 256.58212,265.65301 258.42028,263.5751   C 260.21847,261.49718 261.13755,258.93976 261.13755,255.90281   C 261.13755,253.30542 260.49819,251.22751 259.21947,249.62911   C 257.94076,248.07068 255.34337,246.63212 251.50723,245.39337   z "
     style="fill:#000000;fill-rule:evenodd;fill-opacity:1;stroke:none;" />
</svg>
