<?xml version="1.0" encoding="UTF-8" standalone="no"?>
<svg
   xmlns:dc="http://purl.org/dc/elements/1.1/"
   xmlns:cc="http://creativecommons.org/ns#"
   xmlns:rdf="http://www.w3.org/1999/02/22-rdf-syntax-ns#"
   xmlns:svg="http://www.w3.org/2000/svg"
   xmlns="http://www.w3.org/2000/svg"
   id="svg21"
   height="95.75mm"
   width="95.75mm"
   version="1.0">
  <metadata
     id="metadata25">
    <rdf:RDF>
      <cc:Work
         rdf:about="">
        <dc:format>image/svg+xml</dc:format>
        <dc:type
           rdf:resource="http://purl.org/dc/dcmitype/StillImage" />
      </cc:Work>
    </rdf:RDF>
  </metadata>
  <defs
     id="defs3">
    <pattern
       y="0"
       x="0"
       height="6"
       width="6"
       patternUnits="userSpaceOnUse"
       id="EMFhbasepattern" />
  </defs>
  <path
     id="path5"
     d="  M 132.98634,15.983936   L 132.98634,54.345381   L 228.88996,54.345381   L 228.88996,15.983936   L 132.98634,15.983936   z "
     style="fill:#000000;fill-rule:evenodd;fill-opacity:1;stroke:none;" />
  <path
     id="path7"
     d="  M 54.345381,54.345381   L 54.345381,307.53092   L 307.53092,307.53092   L 307.53092,54.345381   L 54.345381,54.345381   z "
     style="fill:#aaffaa;fill-rule:evenodd;fill-opacity:1;stroke:none;" />
  <path
     id="path9"
     d="  M 54.345381,54.345381   L 307.53092,54.345381   L 307.53092,307.53092   L 54.345381,307.53092   z "
     style="fill:none;stroke:#000000;stroke-width:9.5903616px;stroke-linecap:butt;stroke-linejoin:miter;stroke-miterlimit:10;stroke-dasharray:none;stroke-opacity:1;" />
  <path
     id="path11"
     d="  M 166.55261,152.00723   C 166.55261,150.44879 168.43072,148.17108 169.62952,148.17108   L 192.9261,148.17108   C 194.04498,148.17108 196.00301,151.60763 196.00301,152.36687   L 196.00301,153.9253   C 196.00301,156.04317 192.9261,155.60361 192.9261,157.36185   L 192.9261,169.58956   C 192.9261,170.74839 216.62229,202.55642 216.62229,205.11385   L 216.62229,213.14578   C 216.62229,220.45843 200.43855,226.89196 192.16686,226.89196   L 170.38875,226.89196   C 165.47369,226.89196 158.4008,225.17369 155.40381,223.13574   C 153.24598,221.69719 145.93333,216.30261 145.93333,213.50542   L 145.93333,210.06887   C 145.93333,204.23474 154.5247,193.20582 157.20201,188.49056   C 158.84036,185.65341 169.22992,169.30984 169.22992,167.67148   L 169.22992,157.36185   C 169.22992,155.56365 166.55261,155.92329 166.55261,152.00723   z  M 192.16686,142.45683   L 109.2502,142.45683   L 109.2502,231.08775   L 253.30542,231.08775   L 253.30542,142.45683   L 237.24156,142.45683   L 237.24156,110.36907   L 226.53233,110.36907   L 226.53233,142.45683   L 202.8761,142.45683   L 202.8761,110.36907   L 192.16686,110.36907   z "
     style="fill:#ffffff;fill-rule:evenodd;fill-opacity:1;stroke:none;" />
  <path
     id="path13"
     d="  M 192.16686,110.36907   L 202.8761,110.36907   L 202.8761,142.45683   L 226.53233,142.45683   L 226.53233,110.36907   L 237.24156,110.36907   L 237.24156,142.45683   L 253.30542,142.45683   L 253.30542,231.08775   L 109.2502,231.08775   L 109.2502,142.45683   L 192.16686,142.45683   L 192.16686,110.36907  z    M 106.57289,234.1247   L 255.98273,234.1247   L 255.98273,139.37992   L 240.67811,139.37992   L 240.67811,107.29217   L 223.49538,107.29217   L 223.49538,139.37992   L 206.31265,139.37992   L 206.31265,107.29217   L 189.08996,107.29217   L 189.08996,139.37992   L 106.57289,139.37992   L 106.57289,234.1247  z   "
     style="fill:#000000;fill-rule:evenodd;fill-opacity:1;stroke:none;" />
  <path
     id="path15"
     d="  M 114.76466,143.53574   L 114.76466,229.84899   L 249.98875,229.84899   L 249.98875,143.53574   L 114.76466,143.53574   z "
     style="fill:#ffffff;fill-rule:evenodd;fill-opacity:1;stroke:none;" />
  <path
     id="path17"
     d="  M 114.76466,143.53574   L 249.98875,143.53574   L 249.98875,229.84899   L 114.76466,229.84899   z "
     style="fill:none;stroke:#ffffff;stroke-width:0.95903611px;stroke-linecap:butt;stroke-linejoin:miter;stroke-miterlimit:10;stroke-dasharray:none;stroke-opacity:1;" />
  <path
     id="path19"
     d="  M 182.05703,215.18373   L 182.05703,208.03092   C 178.5006,207.59136 175.58353,206.79217 173.34578,205.63333   C 171.10803,204.4745 169.15,202.59638 167.51164,200.03895   C 165.91325,197.48152 164.95421,194.3247 164.6745,190.60843   L 171.86727,189.2498   C 172.4267,193.08594 173.4257,195.92309 174.82429,197.72128   C 176.86225,200.27871 179.25984,201.67731 182.05703,201.99699   L 182.05703,179.17992   C 179.13996,178.62048 176.10301,177.46164 173.0261,175.74337   C 170.74839,174.46466 168.99016,172.70642 167.7514,170.46867   C 166.55261,168.19096 165.91325,165.63353 165.91325,162.79638   C 165.91325,157.68152 167.71144,153.56566 171.34779,150.40883   C 173.74538,148.29096 177.34176,146.97229 182.05703,146.49277   L 182.05703,143.05622   L 186.29277,143.05622   L 186.29277,146.49277   C 190.44859,146.89237 193.76526,148.13112 196.20281,150.16907   C 199.31968,152.76646 201.23775,156.32289 201.87711,160.87831   L 194.44458,161.99719   C 194.04498,159.16004 193.16586,157.00221 191.80723,155.52369   C 190.48855,154.00522 188.6504,153.04618 186.29277,152.56666   L 186.29277,173.2259   C 189.88915,174.10502 192.28674,174.82429 193.44558,175.30381   C 195.68333,176.30281 197.52148,177.5016 198.92008,178.9002   C 200.31867,180.29879 201.39759,181.97711 202.15682,183.93514   C 202.91606,185.85321 203.2757,187.93112 203.2757,190.20883   C 203.2757,195.16385 201.71727,199.31968 198.56044,202.63634   C 195.40361,205.95301 191.32771,207.71124 186.29277,207.951   L 186.29277,215.18373   z  M 182.05703,152.48674   C 179.2998,152.88634 177.10201,154.00522 175.50361,155.80341   C 173.86526,157.6016 173.06606,159.75944 173.06606,162.23695   C 173.06606,164.6745 173.74538,166.71245 175.14397,168.3508   C 176.50261,169.98915 178.82028,171.30783 182.05703,172.30682   z  M 186.29277,201.99699   C 189.08996,201.63735 191.36767,200.43855 193.20582,198.36064   C 195.00401,196.28273 195.92309,193.7253 195.92309,190.68835   C 195.92309,188.09096 195.28373,186.01305 194.00502,184.41466   C 192.7263,182.85622 190.12891,181.41767 186.29277,180.17891   z "
     style="fill:#000000;fill-rule:evenodd;fill-opacity:1;stroke:none;" />
</svg>
