<?xml version="1.0" encoding="UTF-8" standalone="no"?>
<svg
   xmlns:dc="http://purl.org/dc/elements/1.1/"
   xmlns:cc="http://creativecommons.org/ns#"
   xmlns:rdf="http://www.w3.org/1999/02/22-rdf-syntax-ns#"
   xmlns:svg="http://www.w3.org/2000/svg"
   xmlns="http://www.w3.org/2000/svg"
   id="svg27"
   height="116.73mm"
   width="116.73mm"
   version="1.0">
  <metadata
     id="metadata31">
    <rdf:RDF>
      <cc:Work
         rdf:about="">
        <dc:format>image/svg+xml</dc:format>
        <dc:type
           rdf:resource="http://purl.org/dc/dcmitype/StillImage" />
      </cc:Work>
    </rdf:RDF>
  </metadata>
  <defs
     id="defs3">
    <pattern
       y="0"
       x="0"
       height="6"
       width="6"
       patternUnits="userSpaceOnUse"
       id="EMFhbasepattern" />
  </defs>
  <path
     id="path5"
     d="  M 220.57831,386.49156   L 220.57831,386.49156   L 386.49156,220.57831   L 220.57831,54.665059   L 54.665059,220.57831   L 220.57831,386.49156   z "
     style="fill:#ff8080;fill-rule:evenodd;fill-opacity:1;stroke:none;" />
  <path
     id="path7"
     d="  M 220.57831,386.49156   L 220.57831,386.49156   L 386.49156,220.57831   L 220.57831,54.665059   L 54.665059,220.57831   L 220.57831,386.49156  "
     style="fill:none;stroke:#000000;stroke-width:9.5903616px;stroke-linecap:butt;stroke-linejoin:miter;stroke-miterlimit:10;stroke-dasharray:none;stroke-opacity:1;" />
  <path
     id="path9"
     d="  M 223.21566,127.07229   L 223.21566,122.23715   L 240.67811,122.19719   L 240.67811,137.50181   C 238.0008,139.61968 235.20361,141.21807 232.36646,142.29699   C 229.52931,143.3759 226.61225,143.93534 223.61526,143.93534   C 219.53935,143.93534 215.90301,143.05622 212.58634,141.33795   C 209.26968,139.57972 206.79217,137.10221 205.07389,133.8255   C 203.39558,130.54879 202.55642,126.87249 202.55642,122.83654   C 202.55642,118.8006 203.39558,115.08434 205.07389,111.60783   C 206.75221,108.13132 209.1498,105.53393 212.30662,103.85562   C 215.46345,102.17731 219.0998,101.33815 223.1757,101.33815   C 226.17269,101.33815 228.85,101.81767 231.24759,102.77671   C 233.68514,103.73574 235.56325,105.09438 236.92188,106.81265   C 238.28052,108.53092 239.31947,110.76867 240.03875,113.56586   L 235.12369,114.88454   C 234.52429,112.80662 233.7251,111.16827 232.80602,109.96948   C 231.88694,108.77068 230.60823,107.81165 228.88996,107.09237   C 227.17168,106.37309 225.29357,105.97349 223.21566,105.97349   C 220.73815,105.97349 218.58032,106.37309 216.74217,107.13233   C 214.94397,107.89156 213.46546,108.89056 212.34658,110.12932   C 211.22771,111.36807 210.38855,112.72671 209.74919,114.20522   C 208.71024,116.76265 208.19076,119.51988 208.19076,122.47691   C 208.19076,126.15321 208.83012,129.23012 210.06887,131.70763   C 211.34759,134.18514 213.18574,136.02329 215.58333,137.22209   C 218.02088,138.42088 220.57831,139.02028 223.29558,139.02028   C 225.65321,139.02028 227.97088,138.54076 230.20863,137.66164   C 232.44638,136.74257 234.16466,135.78353 235.32349,134.74458   L 235.32349,127.07229   z "
     style="fill:#000000;fill-rule:evenodd;fill-opacity:1;stroke:none;" />
  <path
     id="path11"
     d="  M 194.68433,321.2771   L 245.51325,321.2771  "
     style="fill:none;stroke:#000000;stroke-width:9.5903616px;stroke-linecap:butt;stroke-linejoin:miter;stroke-miterlimit:10;stroke-dasharray:none;stroke-opacity:1;" />
  <path
     id="path13"
     d="  M 220.57831,321.2771   L 220.57831,201.39759  "
     style="fill:none;stroke:#000000;stroke-width:9.5903616px;stroke-linecap:butt;stroke-linejoin:miter;stroke-miterlimit:10;stroke-dasharray:none;stroke-opacity:1;" />
  <path
     id="path15"
     d="  M 210.98795,183.1759   L 174.54458,170.70843   L 185.09397,154.40482   L 151.52771,143.85542  "
     style="fill:none;stroke:#000000;stroke-width:9.5903616px;stroke-linecap:butt;stroke-linejoin:miter;stroke-miterlimit:10;stroke-dasharray:none;stroke-opacity:1;" />
  <path
     id="path17"
     d="  M 230.16867,183.1759   L 266.61204,170.70843   L 256.06265,154.40482   L 289.62891,143.85542  "
     style="fill:none;stroke:#000000;stroke-width:9.5903616px;stroke-linecap:butt;stroke-linejoin:miter;stroke-miterlimit:10;stroke-dasharray:none;stroke-opacity:1;" />
  <path
     id="path19"
     d="  M 210.98795,196.60241   L 174.54458,210.02891   L 185.09397,225.37349   L 151.52771,236.88192  "
     style="fill:none;stroke:#000000;stroke-width:9.5903616px;stroke-linecap:butt;stroke-linejoin:miter;stroke-miterlimit:10;stroke-dasharray:none;stroke-opacity:1;" />
  <path
     id="path21"
     d="  M 230.16867,196.60241   L 266.61204,210.02891   L 256.06265,225.37349   L 289.62891,236.88192  "
     style="fill:none;stroke:#000000;stroke-width:9.5903616px;stroke-linecap:butt;stroke-linejoin:miter;stroke-miterlimit:10;stroke-dasharray:none;stroke-opacity:1;" />
  <path
     id="path23"
     d="  M 177.98112,291.86666   L 177.98112,255.54317   L 164.39478,255.54317   L 164.39478,250.66807   L 197.04197,250.66807   L 197.04197,255.54317   L 183.41566,255.54317   L 183.41566,291.86666   z "
     style="fill:#000000;fill-rule:evenodd;fill-opacity:1;stroke:none;" />
  <path
     id="path25"
     d="  M 242.35642,278.63996   L 247.51124,278.2004   C 247.751,280.23835 248.31044,281.95662 249.18955,283.2753   C 250.10863,284.59397 251.46727,285.63293 253.34538,286.47208   C 255.22349,287.27128 257.34136,287.67088 259.65903,287.67088   C 261.73694,287.67088 263.5751,287.39116 265.17349,286.7518   C 266.77188,286.15241 267.97068,285.27329 268.72992,284.23433   C 269.52911,283.15542 269.88875,281.95662 269.88875,280.67791   C 269.88875,279.39919 269.52911,278.28032 268.76988,277.32128   C 268.01064,276.32229 266.77188,275.52309 265.05361,274.88373   C 263.97469,274.44417 261.49718,273.76486 257.74096,272.84578   C 253.94478,271.96666 251.30743,271.08755 249.78895,270.28835   C 247.83092,269.24939 246.35241,267.97068 245.39337,266.4522   C 244.43433,264.93373 243.95482,263.21546 243.95482,261.33735   C 243.95482,259.25943 244.51425,257.3014 245.71305,255.50321   C 246.87188,253.70502 248.63012,252.30642 250.86787,251.38735   C 253.14558,250.42831 255.66305,249.98875 258.42028,249.98875   C 261.49718,249.98875 264.17449,250.46827 266.49216,251.46727   C 268.8498,252.4263 270.64799,253.86486 271.88674,255.78293   C 273.16546,257.701 273.80482,259.85883 273.92469,262.29638   L 268.68996,262.69598   C 268.41024,260.05863 267.4512,258.1006 265.85281,256.78192   C 264.21445,255.46325 261.81686,254.78393 258.66004,254.78393   C 255.34337,254.78393 252.94578,255.38333 251.46727,256.58212   C 249.94879,257.82088 249.18955,259.25943 249.18955,260.97771   C 249.18955,262.45622 249.70903,263.65502 250.78795,264.61405   C 251.8269,265.57309 254.58413,266.57208 259.01967,267.57108   C 263.45522,268.57008 266.49216,269.44919 268.13052,270.16847   C 270.52811,271.28735 272.28634,272.68594 273.44518,274.36425   C 274.56405,276.08253 275.16345,278.04056 275.16345,280.23835   C 275.16345,282.43614 274.52409,284.51405 273.28534,286.43212   C 272.00662,288.39016 270.20843,289.86867 267.8508,290.94759   C 265.49317,292.0265 262.85582,292.58594 259.93875,292.58594   C 256.18253,292.58594 253.06566,292.0265 250.54819,290.94759   C 248.03072,289.86867 246.07269,288.23032 244.63413,286.03253   C 243.19558,283.87469 242.43634,281.39718 242.35642,278.63996   z "
     style="fill:#000000;fill-rule:evenodd;fill-opacity:1;stroke:none;" />
</svg>
