<?xml version="1.0" encoding="UTF-8" standalone="no"?>
<svg
   xmlns:dc="http://purl.org/dc/elements/1.1/"
   xmlns:cc="http://creativecommons.org/ns#"
   xmlns:rdf="http://www.w3.org/1999/02/22-rdf-syntax-ns#"
   xmlns:svg="http://www.w3.org/2000/svg"
   xmlns="http://www.w3.org/2000/svg"
   id="svg19"
   height="89.669998mm"
   width="120.11mm"
   version="1.0">
  <metadata
     id="metadata23">
    <rdf:RDF>
      <cc:Work
         rdf:about="">
        <dc:format>image/svg+xml</dc:format>
        <dc:type
           rdf:resource="http://purl.org/dc/dcmitype/StillImage" />
      </cc:Work>
    </rdf:RDF>
  </metadata>
  <defs
     id="defs3">
    <pattern
       y="0"
       x="0"
       height="6"
       width="6"
       patternUnits="userSpaceOnUse"
       id="EMFhbasepattern" />
  </defs>
  <path
     id="path5"
     d="  M 179.02008,15.983936   L 179.02008,54.345381   L 274.92369,54.345381   L 274.92369,15.983936   L 179.02008,15.983936   z "
     style="fill:#000000;fill-rule:evenodd;fill-opacity:1;stroke:none;" />
  <path
     id="path7"
     d="  M 54.345381,54.345381   L 54.345381,284.51405   L 399.59839,284.51405   L 399.59839,54.345381   L 54.345381,54.345381   z "
     style="fill:#80e0ff;fill-rule:evenodd;fill-opacity:1;stroke:none;" />
  <path
     id="path9"
     d="  M 54.345381,54.345381   L 399.59839,54.345381   L 399.59839,284.51405   L 54.345381,284.51405   z "
     style="fill:none;stroke:#000000;stroke-width:9.5903616px;stroke-linecap:butt;stroke-linejoin:miter;stroke-miterlimit:10;stroke-dasharray:none;stroke-opacity:1;" />
  <path
     id="path11"
     d="  M 243.2755,125.79357   C 202.99598,125.79357 202.99598,202.99598 243.2755,202.99598  "
     style="fill:none;stroke:#000000;stroke-width:6.713253px;stroke-linecap:butt;stroke-linejoin:miter;stroke-miterlimit:10;stroke-dasharray:none;stroke-opacity:1;" />
  <path
     id="path13"
     d="  M 243.2755,125.79357   C 223.13574,125.79357 223.13574,202.99598 243.2755,202.99598  "
     style="fill:none;stroke:#000000;stroke-width:6.713253px;stroke-linecap:butt;stroke-linejoin:miter;stroke-miterlimit:10;stroke-dasharray:none;stroke-opacity:1;" />
  <path
     id="path15"
     d="  M 201.63735,102.33715   L 206.35261,103.53594   C 205.39357,107.41205 203.59538,110.36907 201.03795,112.40703   C 198.44056,114.44498 195.32369,115.44397 191.56747,115.44397   C 187.73132,115.44397 184.61446,114.68474 182.21686,113.1263   C 179.77931,111.56787 177.94116,109.29016 176.70241,106.29317   C 175.42369,103.33614 174.82429,100.13936 174.82429,96.74277   C 174.82429,93.026505 175.50361,89.789758 176.94217,86.992569   C 178.38072,84.23534 180.37871,82.157429 183.01606,80.718874   C 185.61345,79.28032 188.53052,78.561043 191.64739,78.561043   C 195.24377,78.561043 198.24076,79.440159 200.67831,81.278312   C 203.11586,83.076505 204.79417,85.633935 205.75321,88.950601   L 201.11787,90.029517   C 200.27871,87.432127 199.07992,85.554015 197.52148,84.35522   C 195.92309,83.196384 193.96506,82.596987 191.56747,82.596987   C 188.81024,82.596987 186.53253,83.236344 184.69437,84.555019   C 182.85622,85.873694 181.53755,87.631926 180.81827,89.869677   C 180.05903,92.067469 179.65944,94.345179 179.65944,96.70281   C 179.65944,99.739758 180.13895,102.41707 181.01807,104.65482   C 181.89719,106.93253 183.25582,108.61084 185.13393,109.72972   C 187.01205,110.84859 189.01004,111.40803 191.20783,111.40803   C 193.84518,111.40803 196.08293,110.64879 197.92108,109.13032   C 199.75923,107.61185 200.99799,105.33414 201.63735,102.33715   z  M 210.74819,97.462047   C 210.74819,91.547991 212.34658,86.912649 215.50341,83.556023   C 218.7002,80.199396 222.81606,78.521083 227.851,78.521083   C 231.12771,78.521083 234.1247,79.32028 236.76204,80.878714   C 239.39939,82.477107 241.43735,84.674898 242.79598,87.472087   C 244.19457,90.309236 244.87389,93.466063 244.87389,97.062448   C 244.87389,100.65883 244.15461,103.89558 242.71606,106.77269   C 241.23755,109.6498 239.15964,111.80763 236.48233,113.24618   C 233.80502,114.7247 230.92791,115.44397 227.81104,115.44397   C 224.45441,115.44397 221.45743,114.64478 218.82008,113.04638   C 216.18273,111.40803 214.14478,109.21024 212.78614,106.37309   C 211.42751,103.5759 210.74819,100.61887 210.74819,97.462047   z  M 215.62329,97.541966   C 215.62329,101.85763 216.78213,105.25422 219.0998,107.69177   C 221.41747,110.16928 224.29458,111.40803 227.81104,111.40803   C 231.36747,111.40803 234.28453,110.16928 236.56225,107.69177   C 238.87992,105.1743 240.03875,101.61787 240.03875,97.022489   C 240.03875,94.14538 239.51927,91.58795 238.56024,89.430119   C 237.56124,87.272288 236.12269,85.593975 234.24457,84.39518   C 232.36646,83.196384 230.20863,82.596987 227.851,82.596987   C 224.53433,82.596987 221.65723,83.755822 219.21968,86.033533   C 216.82209,88.351204 215.62329,92.187348 215.62329,97.541966   z  M 250.82791,114.84458   L 250.82791,79.160441   L 257.94076,79.160441   L 266.37229,104.41506   C 267.17148,106.77269 267.73092,108.53092 268.09056,109.72972   C 268.49016,108.41104 269.12951,106.49297 270.00863,103.9755   L 278.56004,79.160441   L 284.91365,79.160441   L 284.91365,114.84458   L 280.35823,114.84458   L 280.35823,84.994577   L 269.96867,114.84458   L 265.69297,114.84458   L 255.38333,84.475099   L 255.38333,114.84458   z "
     style="fill:#000000;fill-rule:evenodd;fill-opacity:1;stroke:none;" />
  <path
     id="path17"
     d="  M 54.345381,212.58634   L 399.59839,212.58634  "
     style="fill:none;stroke:#000000;stroke-width:9.5903616px;stroke-linecap:butt;stroke-linejoin:miter;stroke-miterlimit:10;stroke-dasharray:none;stroke-opacity:1;" />
</svg>
