<?xml version="1.0" encoding="UTF-8" standalone="no"?>
<svg
   xmlns:dc="http://purl.org/dc/elements/1.1/"
   xmlns:cc="http://creativecommons.org/ns#"
   xmlns:rdf="http://www.w3.org/1999/02/22-rdf-syntax-ns#"
   xmlns:svg="http://www.w3.org/2000/svg"
   xmlns="http://www.w3.org/2000/svg"
   id="svg19"
   height="89.669998mm"
   width="120.11mm"
   version="1.0">
  <metadata
     id="metadata23">
    <rdf:RDF>
      <cc:Work
         rdf:about="">
        <dc:format>image/svg+xml</dc:format>
        <dc:type
           rdf:resource="http://purl.org/dc/dcmitype/StillImage" />
      </cc:Work>
    </rdf:RDF>
  </metadata>
  <defs
     id="defs3">
    <pattern
       y="0"
       x="0"
       height="6"
       width="6"
       patternUnits="userSpaceOnUse"
       id="EMFhbasepattern" />
  </defs>
  <path
     id="path5"
     d="  M 54.345381,54.345381   L 54.345381,284.51405   L 399.59839,284.51405   L 399.59839,54.345381   L 54.345381,54.345381   z "
     style="fill:#80e0ff;fill-rule:evenodd;fill-opacity:1;stroke:none;" />
  <path
     id="path7"
     d="  M 54.345381,54.345381   L 399.59839,54.345381   L 399.59839,284.51405   L 54.345381,284.51405   z "
     style="fill:none;stroke:#000000;stroke-width:9.5903616px;stroke-linecap:butt;stroke-linejoin:miter;stroke-miterlimit:10;stroke-dasharray:none;stroke-opacity:1;" />
  <path
     id="path9"
     d="  M 226.97188,187.17188   L 226.97188,234.16466  "
     style="fill:none;stroke:#000000;stroke-width:6.713253px;stroke-linecap:butt;stroke-linejoin:miter;stroke-miterlimit:10;stroke-dasharray:none;stroke-opacity:1;" />
  <path
     id="path11"
     d="  M 166.55261,187.17188   L 166.55261,254.30441  "
     style="fill:none;stroke:#000000;stroke-width:6.713253px;stroke-linecap:butt;stroke-linejoin:miter;stroke-miterlimit:10;stroke-dasharray:none;stroke-opacity:1;" />
  <path
     id="path13"
     d="  M 287.39116,187.17188   L 287.39116,254.30441  "
     style="fill:none;stroke:#000000;stroke-width:6.713253px;stroke-linecap:butt;stroke-linejoin:miter;stroke-miterlimit:10;stroke-dasharray:none;stroke-opacity:1;" />
  <path
     id="path15"
     d="  M 163.19598,187.17188   L 290.74779,187.17188  "
     style="fill:none;stroke:#000000;stroke-width:6.713253px;stroke-linecap:butt;stroke-linejoin:miter;stroke-miterlimit:10;stroke-dasharray:none;stroke-opacity:1;" />
  <path
     id="path17"
     d="  M 157.24197,149.56968   L 162.6765,150.92831   C 161.55763,155.40381 159.47972,158.84036 156.52269,161.15803   C 153.56566,163.51566 149.92932,164.71446 145.65361,164.71446   C 141.21807,164.71446 137.58172,163.79538 134.8245,161.99719   C 132.02731,160.19899 129.90944,157.56164 128.47088,154.1251   C 126.99237,150.72851 126.27309,147.01225 126.27309,143.09618   C 126.27309,138.82048 127.11225,135.06426 128.7506,131.86747   C 130.38895,128.67068 132.70662,126.23313 135.74357,124.59478   C 138.78052,122.91646 142.09719,122.11727 145.73353,122.11727   C 149.8494,122.11727 153.3259,123.15622 156.12309,125.23413   C 158.92028,127.35201 160.87831,130.30903 161.99719,134.10522   L 156.64257,135.38393   C 155.68353,132.38695 154.28494,130.18915 152.44678,128.83052   C 150.64859,127.47189 148.37088,126.75261 145.61365,126.75261   C 142.45683,126.75261 139.81948,127.51185 137.66164,129.03032   C 135.54377,130.54879 134.06526,132.58675 133.18614,135.14417   C 132.34699,137.7016 131.90743,140.33895 131.90743,143.05622   C 131.90743,146.57269 132.42691,149.60964 133.4259,152.24699   C 134.46486,154.84438 136.02329,156.80241 138.18112,158.08112   C 140.33895,159.3998 142.69658,160.03915 145.17409,160.03915   C 148.251,160.03915 150.80843,159.16004 152.9263,157.4018   C 155.04417,155.64357 156.48273,153.00622 157.24197,149.56968   z  M 167.7514,143.93534   C 167.7514,137.10221 169.58956,131.74759 173.26586,127.87148   C 176.94217,123.99538 181.65743,122.07731 187.49156,122.07731   C 191.28775,122.07731 194.72429,122.99638 197.76124,124.79458   C 200.79819,126.63273 203.15582,129.1502 204.75421,132.38695   C 206.35261,135.66365 207.1518,139.33996 207.1518,143.45582   C 207.1518,147.6516 206.31265,151.36787 204.59437,154.68454   C 202.91606,157.96124 200.55843,160.47871 197.44156,162.15703   C 194.36466,163.8753 191.00803,164.71446 187.4516,164.71446   C 183.5755,164.71446 180.09899,163.75542 177.06205,161.87731   C 173.98514,160.03915 171.66747,157.48172 170.10903,154.20502   C 168.5506,150.96827 167.7514,147.57168 167.7514,143.93534   z  M 173.38574,144.01526   C 173.38574,148.97028 174.70442,152.88634 177.38172,155.76345   C 180.05903,158.6006 183.3757,160.03915 187.41164,160.03915   C 191.52751,160.03915 194.88413,158.6006 197.56144,155.72349   C 200.19879,152.84638 201.51747,148.73052 201.51747,143.41586   C 201.51747,140.09919 200.95803,137.14217 199.83915,134.66466   C 198.68032,132.14719 197.04197,130.22911 194.84417,128.83052   C 192.68634,127.47189 190.20883,126.75261 187.49156,126.75261   C 183.65542,126.75261 180.33875,128.11124 177.54156,130.74859   C 174.74437,133.38594 173.38574,137.82148 173.38574,144.01526   z  M 214.10482,163.99518   L 214.10482,122.79658   L 219.69919,122.79658   L 241.31747,155.16405   L 241.31747,122.79658   L 246.55221,122.79658   L 246.55221,163.99518   L 240.95783,163.99518   L 219.33956,131.62771   L 219.33956,163.99518   z  M 253.86486,150.76847   L 259.01967,150.32891   C 259.25943,152.36687 259.81887,154.08514 260.69799,155.40381   C 261.61706,156.72249 262.9757,157.76144 264.85381,158.6006   C 266.73192,159.3998 268.8498,159.7994 271.16747,159.7994   C 273.24538,159.7994 275.08353,159.51968 276.68192,158.88032   C 278.28032,158.28092 279.47911,157.4018 280.23835,156.36285   C 280.99759,155.28393 281.39718,154.08514 281.39718,152.80642   C 281.39718,151.52771 281.03755,150.40883 280.27831,149.4498   C 279.51907,148.4508 278.28032,147.6516 276.56204,147.01225   C 275.48313,146.57269 273.00562,145.89337 269.24939,144.9743   C 265.45321,144.09518 262.81586,143.21606 261.29739,142.41687   C 259.29939,141.37791 257.86084,140.09919 256.9018,138.58072   C 255.94277,137.06225 255.42329,135.34397 255.42329,133.46586   C 255.42329,131.38795 256.02269,129.42992 257.22148,127.63173   C 258.38032,125.83353 260.09859,124.43494 262.3763,123.51586   C 264.65401,122.55683 267.17148,122.11727 269.92871,122.11727   C 273.00562,122.11727 275.68293,122.59679 278.0006,123.59578   C 280.35823,124.55482 282.15642,125.99337 283.39518,127.91144   C 284.63393,129.82952 285.31325,131.98735 285.43313,134.4249   L 280.19839,134.8245   C 279.91867,132.18715 278.95963,130.22911 277.36124,128.91044   C 275.72289,127.59177 273.3253,126.91245 270.16847,126.91245   C 266.8518,126.91245 264.45421,127.51185 262.9757,128.71064   C 261.45723,129.9494 260.69799,131.38795 260.69799,133.10622   C 260.69799,134.58474 261.21747,135.78353 262.29638,136.74257   C 263.33534,137.7016 266.09257,138.7006 270.52811,139.6996   C 274.96365,140.69859 278.0006,141.57771 279.63895,142.29699   C 282.03654,143.41586 283.79478,144.81446 284.95361,146.49277   C 286.07249,148.21104 286.67188,150.16907 286.67188,152.36687   C 286.67188,154.56466 286.03253,156.64257 284.79377,158.56064   C 283.51506,160.51867 281.71686,161.99719 279.35923,163.0761   C 277.0016,164.15502 274.36425,164.71446 271.44718,164.71446   C 267.69096,164.71446 264.57409,164.15502 262.05662,163.0761   C 259.53915,161.99719 257.58112,160.35883 256.14257,158.16104   C 254.70401,156.00321 253.94478,153.5257 253.86486,150.76847   z  M 304.57389,163.99518   L 304.57389,127.67168   L 291.02751,127.67168   L 291.02751,122.79658   L 323.67469,122.79658   L 323.67469,127.67168   L 310.04839,127.67168   L 310.04839,163.99518   z "
     style="fill:#000000;fill-rule:evenodd;fill-opacity:1;stroke:none;" />
</svg>
