<?xml version="1.0" encoding="UTF-8" standalone="no"?>
<svg
   xmlns:dc="http://purl.org/dc/elements/1.1/"
   xmlns:cc="http://creativecommons.org/ns#"
   xmlns:rdf="http://www.w3.org/1999/02/22-rdf-syntax-ns#"
   xmlns:svg="http://www.w3.org/2000/svg"
   xmlns="http://www.w3.org/2000/svg"
   id="svg19"
   height="95.75mm"
   width="95.75mm"
   version="1.0">
  <metadata
     id="metadata23">
    <rdf:RDF>
      <cc:Work
         rdf:about="">
        <dc:format>image/svg+xml</dc:format>
        <dc:type
           rdf:resource="http://purl.org/dc/dcmitype/StillImage" />
      </cc:Work>
    </rdf:RDF>
  </metadata>
  <defs
     id="defs3">
    <pattern
       y="0"
       x="0"
       height="6"
       width="6"
       patternUnits="userSpaceOnUse"
       id="EMFhbasepattern" />
  </defs>
  <path
     id="path5"
     d="  M 54.345381,54.345381   L 54.345381,307.53092   L 307.53092,307.53092   L 307.53092,54.345381   L 54.345381,54.345381   z "
     style="fill:#aaffaa;fill-rule:evenodd;fill-opacity:1;stroke:none;" />
  <path
     id="path7"
     d="  M 54.345381,54.345381   L 307.53092,54.345381   L 307.53092,307.53092   L 54.345381,307.53092   z "
     style="fill:none;stroke:#000000;stroke-width:9.5903616px;stroke-linecap:butt;stroke-linejoin:miter;stroke-miterlimit:10;stroke-dasharray:none;stroke-opacity:1;" />
  <path
     id="path9"
     d="  M 180.93815,198.68032   L 180.93815,245.67309  "
     style="fill:none;stroke:#000000;stroke-width:6.713253px;stroke-linecap:butt;stroke-linejoin:miter;stroke-miterlimit:10;stroke-dasharray:none;stroke-opacity:1;" />
  <path
     id="path11"
     d="  M 120.51887,198.68032   L 120.51887,265.81285  "
     style="fill:none;stroke:#000000;stroke-width:6.713253px;stroke-linecap:butt;stroke-linejoin:miter;stroke-miterlimit:10;stroke-dasharray:none;stroke-opacity:1;" />
  <path
     id="path13"
     d="  M 241.35743,198.68032   L 241.35743,265.81285  "
     style="fill:none;stroke:#000000;stroke-width:6.713253px;stroke-linecap:butt;stroke-linejoin:miter;stroke-miterlimit:10;stroke-dasharray:none;stroke-opacity:1;" />
  <path
     id="path15"
     d="  M 117.16225,198.68032   L 244.71405,198.68032  "
     style="fill:none;stroke:#000000;stroke-width:6.713253px;stroke-linecap:butt;stroke-linejoin:miter;stroke-miterlimit:10;stroke-dasharray:none;stroke-opacity:1;" />
  <path
     id="path17"
     d="  M 111.20823,161.07811   L 116.64277,162.43674   C 115.52389,166.91225 113.44598,170.34879 110.48895,172.66646   C 107.53193,175.02409 103.89558,176.22289 99.619878,176.22289   C 95.184336,176.22289 91.547991,175.30381 88.790762,173.50562   C 85.993573,171.70743 83.875702,169.07008 82.437147,165.63353   C 80.958633,162.23695 80.239356,158.52068 80.239356,154.60462   C 80.239356,150.32891 81.078513,146.57269 82.716866,143.3759   C 84.35522,140.17911 86.67289,137.74156 89.709838,136.10321   C 92.746786,134.4249 96.063452,133.6257 99.699798,133.6257   C 103.81566,133.6257 107.29217,134.66466 110.08936,136.74257   C 112.88654,138.86044 114.84458,141.81747 115.96345,145.61365   L 110.60883,146.89237   C 109.6498,143.89538 108.2512,141.69759 106.41305,140.33895   C 104.61486,138.98032 102.33715,138.26104 99.579918,138.26104   C 96.423091,138.26104 93.785742,139.02028 91.62791,140.53875   C 89.510039,142.05723 88.031525,144.09518 87.152408,146.65261   C 86.313252,149.21004 85.873694,151.84739 85.873694,154.56466   C 85.873694,158.08112 86.393171,161.11807 87.392167,163.75542   C 88.431123,166.35281 89.989557,168.31084 92.147388,169.58956   C 94.30522,170.90823 96.66285,171.54759 99.14036,171.54759   C 102.21727,171.54759 104.7747,170.66847 106.89257,168.91024   C 109.01044,167.15201 110.44899,164.51466 111.20823,161.07811   z  M 121.71767,155.44377   C 121.71767,148.61064 123.55582,143.25602 127.23213,139.37992   C 130.90843,135.50381 135.62369,133.58574 141.45783,133.58574   C 145.25401,133.58574 148.69056,134.50482 151.72751,136.30301   C 154.76446,138.14116 157.12209,140.65863 158.72048,143.89538   C 160.31887,147.17209 161.11807,150.84839 161.11807,154.96425   C 161.11807,159.16004 160.27891,162.8763 158.56064,166.19297   C 156.88233,169.46968 154.5247,171.98715 151.40783,173.66546   C 148.33092,175.38373 144.9743,176.22289 141.41787,176.22289   C 137.54177,176.22289 134.06526,175.26385 131.02831,173.38574   C 127.9514,171.54759 125.63373,168.99016 124.0753,165.71345   C 122.51687,162.4767 121.71767,159.08012 121.71767,155.44377   z  M 127.35201,155.52369   C 127.35201,160.47871 128.67068,164.39478 131.34799,167.27189   C 134.0253,170.10903 137.34197,171.54759 141.37791,171.54759   C 145.49377,171.54759 148.8504,170.10903 151.52771,167.23193   C 154.16506,164.35482 155.48373,160.23895 155.48373,154.92429   C 155.48373,151.60763 154.92429,148.6506 153.80542,146.17309   C 152.64658,143.65562 151.00823,141.73755 148.81044,140.33895   C 146.65261,138.98032 144.1751,138.26104 141.45783,138.26104   C 137.62168,138.26104 134.30502,139.61968 131.50783,142.25703   C 128.71064,144.89438 127.35201,149.32992 127.35201,155.52369   z  M 168.07108,175.50361   L 168.07108,134.30502   L 173.66546,134.30502   L 195.28373,166.67249   L 195.28373,134.30502   L 200.51847,134.30502   L 200.51847,175.50361   L 194.92409,175.50361   L 173.30582,143.13614   L 173.30582,175.50361   z  M 207.83112,162.27691   L 212.98594,161.83735   C 213.2257,163.8753 213.78514,165.59357 214.66425,166.91225   C 215.58333,168.23092 216.94196,169.26988 218.82008,170.10903   C 220.69819,170.90823 222.81606,171.30783 225.13373,171.30783   C 227.21164,171.30783 229.0498,171.02811 230.64819,170.38875   C 232.24658,169.78935 233.44538,168.91024 234.20462,167.87128   C 234.96385,166.79237 235.36345,165.59357 235.36345,164.31486   C 235.36345,163.03614 235.00381,161.91727 234.24457,160.95823   C 233.48534,159.95923 232.24658,159.16004 230.52831,158.52068   C 229.44939,158.08112 226.97188,157.4018 223.21566,156.48273   C 219.41947,155.60361 216.78213,154.7245 215.26365,153.9253   C 213.26566,152.88634 211.82711,151.60763 210.86807,150.08915   C 209.90903,148.57068 209.38956,146.85241 209.38956,144.9743   C 209.38956,142.89638 209.98895,140.93835 211.18775,139.14016   C 212.34658,137.34197 214.06486,135.94337 216.34257,135.0243   C 218.62028,134.06526 221.13775,133.6257 223.89498,133.6257   C 226.97188,133.6257 229.64919,134.10522 231.96686,135.10421   C 234.32449,136.06325 236.12269,137.50181 237.36144,139.41988   C 238.6002,141.33795 239.27951,143.49578 239.39939,145.93333   L 234.16466,146.33293   C 233.88494,143.69558 232.9259,141.73755 231.32751,140.41887   C 229.68915,139.1002 227.29156,138.42088 224.13474,138.42088   C 220.81807,138.42088 218.42048,139.02028 216.94196,140.21907   C 215.42349,141.45783 214.66425,142.89638 214.66425,144.61466   C 214.66425,146.09317 215.18373,147.29197 216.26265,148.251   C 217.3016,149.21004 220.05883,150.20903 224.49437,151.20803   C 228.92992,152.20703 231.96686,153.08614 233.60522,153.80542   C 236.00281,154.92429 237.76104,156.32289 238.91988,158.0012   C 240.03875,159.71948 240.63815,161.67751 240.63815,163.8753   C 240.63815,166.07309 239.99879,168.151 238.76004,170.06907   C 237.48132,172.02711 235.68313,173.50562 233.3255,174.58454   C 230.96787,175.66345 228.33052,176.22289 225.41345,176.22289   C 221.65723,176.22289 218.54036,175.66345 216.02289,174.58454   C 213.50542,173.50562 211.54739,171.86727 210.10883,169.66948   C 208.67028,167.51164 207.91104,165.03413 207.83112,162.27691   z  M 258.54016,175.50361   L 258.54016,139.18012   L 244.99377,139.18012   L 244.99377,134.30502   L 277.64096,134.30502   L 277.64096,139.18012   L 264.01465,139.18012   L 264.01465,175.50361   z "
     style="fill:#000000;fill-rule:evenodd;fill-opacity:1;stroke:none;" />
</svg>
