<?xml version="1.0" encoding="UTF-8" standalone="no"?>
<svg
   xmlns:dc="http://purl.org/dc/elements/1.1/"
   xmlns:cc="http://creativecommons.org/ns#"
   xmlns:rdf="http://www.w3.org/1999/02/22-rdf-syntax-ns#"
   xmlns:svg="http://www.w3.org/2000/svg"
   xmlns="http://www.w3.org/2000/svg"
   id="svg41"
   height="95.75mm"
   width="95.75mm"
   version="1.0">
  <metadata
     id="metadata45">
    <rdf:RDF>
      <cc:Work
         rdf:about="">
        <dc:format>image/svg+xml</dc:format>
        <dc:type
           rdf:resource="http://purl.org/dc/dcmitype/StillImage" />
      </cc:Work>
    </rdf:RDF>
  </metadata>
  <defs
     id="defs3">
    <pattern
       y="0"
       x="0"
       height="6"
       width="6"
       patternUnits="userSpaceOnUse"
       id="EMFhbasepattern" />
  </defs>
  <path
     id="path5"
     d="  M 132.98634,15.983936   L 132.98634,54.345381   L 228.88996,54.345381   L 228.88996,15.983936   L 132.98634,15.983936   z "
     style="fill:#000000;fill-rule:evenodd;fill-opacity:1;stroke:none;" />
  <path
     id="path7"
     d="  M 54.345381,54.345381   L 54.345381,307.53092   L 307.53092,307.53092   L 307.53092,54.345381   L 54.345381,54.345381   z "
     style="fill:#aaffaa;fill-rule:evenodd;fill-opacity:1;stroke:none;" />
  <path
     id="path9"
     d="  M 54.345381,54.345381   L 307.53092,54.345381   L 307.53092,307.53092   L 54.345381,307.53092   z "
     style="fill:none;stroke:#000000;stroke-width:9.5903616px;stroke-linecap:butt;stroke-linejoin:miter;stroke-miterlimit:10;stroke-dasharray:none;stroke-opacity:1;" />
  <path
     id="path11"
     d="  M 135.74357,163.91526   C 135.74357,156.16305 137.74156,124.8745 142.45683,124.8745   C 147.81144,124.8745 149.48976,159.87931 149.48976,168.39076   C 149.48976,176.94217 147.8514,211.58735 142.45683,211.58735   C 137.54177,211.58735 135.74357,180.77831 135.74357,172.86626   z  M 180.53855,164.23494   C 180.53855,157.32189 179.61948,149.4498 178.66044,143.41586   C 178.06104,139.93936 177.58152,137.06225 176.82229,133.70562   C 176.06305,130.46887 174.74437,127.83152 174.14498,125.19417   L 234.28453,125.19417   C 238.08072,125.19417 241.31747,157.64156 241.31747,164.87429   L 241.31747,172.54658   C 241.31747,179.77931 238.16064,211.58735 234.28453,211.58735   L 174.14498,211.58735   C 174.74437,208.95 175.94317,206.31265 176.74237,203.03594   C 177.46164,200.15883 178.101,196.92209 178.62048,193.68534   C 179.57952,187.69136 180.53855,179.97911 180.53855,173.18594   z  M 158.12108,167.43172   C 158.12108,159.27992 157.44176,152.12711 156.84237,144.73454   C 156.56265,141.21807 155.84337,137.54177 155.32389,134.38494   C 154.7245,130.70863 153.3259,127.99136 152.68654,125.19417   L 167.71144,125.19417   C 170.26887,125.19417 172.66646,141.25803 173.30582,144.93434   C 174.58454,152.60662 174.10502,160.35883 175.02409,168.151   C 175.58353,172.6265 174.06506,187.29176 173.4257,191.68735   C 172.90622,195.12389 172.30682,198.8002 171.42771,202.19678   C 170.54859,205.67329 168.91024,209.26968 168.3508,211.58735   L 152.68654,211.58735   C 153.3259,208.87008 154.68454,206.15281 155.40381,202.4765   C 156.04317,199.07992 156.52269,195.92309 156.84237,192.40662   C 157.52168,185.33373 158.12108,178.14096 158.12108,170.30883   z  M 247.07168,168.39076   C 247.07168,155.56365 244.63413,133.2261 240.35843,125.19417   L 260.85783,125.19417   C 267.13152,138.301 270.76787,149.28996 270.76787,168.71044   C 270.76787,177.14197 269.92871,185.77329 268.29036,192.48654   C 267.29136,196.52249 266.4522,198.88012 265.21345,202.51646   C 264.21445,205.39357 261.61706,209.74919 261.17751,211.58735   L 240.35843,211.58735   C 244.59417,203.63534 247.07168,181.17791 247.07168,168.39076   z  M 150.44879,168.07108   C 150.44879,160.27891 150.24899,151.64759 149.4498,144.41486   C 149.09016,140.81847 148.41084,137.22209 147.69156,133.70562   C 146.93233,129.78956 145.45381,127.43193 144.69458,124.55482   L 149.17008,124.55482   C 155.28393,124.55482 156.84237,155.96325 156.84237,164.55462   L 156.84237,172.86626   C 156.84237,182.41666 155.24397,208.39056 150.44879,211.58735   L 145.01425,211.58735   C 149.56968,202.95602 150.44879,181.85723 150.44879,168.07108   z  M 144.3749,123.2761   C 139.53976,123.2761 139.41988,126.83253 138.18112,130.50883   C 137.10221,133.66566 136.50281,138.14116 136.02329,141.81747   C 135.0243,149.13012 134.54478,159.04016 134.4249,167.11205   C 134.38494,179.2998 135.74357,209.10984 141.81747,213.18574   L 161.63755,212.78614   L 178.62048,212.98594   L 227.2516,212.86606   C 228.92992,212.86606 234.16466,215.98293 234.92389,217.06184   C 233.16566,219.45943 227.01184,218.66024 223.73514,218.66024   L 223.09578,218.66024   C 220.97791,218.66024 218.93996,219.77911 218.93996,221.85702   L 218.93996,222.1767   C 218.93996,229.88895 247.71104,237.0018 247.71104,245.51325   C 247.71104,250.66807 236.28253,251.70702 230.84799,250.90783   C 224.65421,249.98875 217.901,245.51325 213.50542,245.51325   C 200.79819,245.51325 190.76827,258.73996 177.02209,257.02168   C 166.43273,255.70301 163.75542,238.16064 147.57168,238.16064   L 144.3749,238.16064   C 137.26205,238.16064 131.02831,242.31646 124.19518,242.31646   C 120.91847,242.31646 121.99739,236.88192 118.92048,234.48433   C 116.20321,232.40642 113.44598,231.9269 109.37008,231.24759   C 103.69578,230.28855 90.309236,230.52831 90.309236,224.73413   L 90.309236,224.09478   C 90.309236,218.97992 121.95743,221.89698 121.95743,216.38253   C 121.95743,211.06787 102.81667,204.55441 101.81767,200.71827   C 102.57691,200.35863 103.21626,200.07891 104.3751,200.07891   L 111.40803,200.07891   L 126.43293,200.79819   L 134.4249,199.83915   L 136.70261,200.11887   L 136.58273,198.76024   L 133.70562,198.76024   C 131.06827,198.76024 127.79156,200.11887 125.23413,199.67931   C 122.63675,199.27972 119.28012,199.47952 116.20321,199.43956   C 112.9265,199.3996 100.53895,197.32168 100.53895,201.03795   C 100.53895,205.43353 114.96446,209.1498 118.44096,215.74317   C 116.52289,219.37951 104.41506,219.0998 99.06044,220.05883   C 95.464055,220.65823 91.987549,220.61827 89.869677,222.69618   C 87.432127,225.17369 90.309236,228.09076 92.467067,229.28955   C 96.54297,231.48735 106.85261,231.68715 112.12731,232.96586   C 115.36405,233.76506 118.32108,234.56425 119.51988,237.4014   C 120.59879,239.99879 120.83855,243.59518 124.83454,243.59518   L 125.15422,243.59518   C 130.22911,243.59518 137.34197,239.43935 144.05522,239.43935   L 146.61265,239.43935   C 161.39779,239.43935 162.83634,257.14156 176.06305,258.02068   C 184.41466,258.58012 188.69036,256.06265 194.84417,253.4253   C 198.64036,251.78694 207.951,246.79196 212.2267,246.79196   L 212.86606,246.79196   C 217.22168,246.79196 220.77811,249.26947 224.49437,250.50823   C 228.41044,251.8269 232.48634,252.86586 237.48132,252.86586   L 238.76004,252.86586   C 241.71706,252.86586 244.19457,252.38634 246.43233,251.54719   C 249.38935,250.46827 249.10963,249.22951 249.02972,245.83293   C 248.86988,241.35743 243.79498,238.04076 240.75803,236.16265   C 237.36144,234.08474 232.7261,231.76706 229.0498,229.96887   C 227.0518,228.96988 225.33353,227.73112 223.61526,226.45241   C 220.49839,224.13474 221.25763,225.01385 219.57931,221.53735   C 222.49638,217.18172 236.20261,222.01686 236.20261,217.06184   C 236.20261,215.50341 230.76807,213.74518 229.80903,212.86606   L 245.47329,212.94598   L 259.25943,212.86606   L 259.25943,213.50542   L 264.37429,213.50542   C 267.13152,213.50542 272.5261,197.2018 273.44518,193.48554   C 275.44317,185.57349 276.52208,177.18193 276.52208,167.43172   C 276.52208,154.5247 272.76586,138.1012 268.41024,129.46988   C 267.17148,126.95241 266.37229,123.71566 262.7759,123.59578   C 259.05963,123.4759 255.02369,123.59578 251.26747,123.59578   C 243.2755,123.59578 236.36245,123.59578 228.85,123.59578   L 177.34176,123.59578   L 148.8504,123.59578   L 144.3749,123.2761   z "
     style="fill:#000000;fill-rule:evenodd;fill-opacity:1;stroke:none;" />
  <path
     id="path13"
     d="  M 136.70261,200.11887   L 134.4249,199.83915   L 126.43293,200.79819   L 111.40803,200.07891   L 104.3751,200.07891   C 103.21626,200.07891 102.57691,200.35863 101.81767,200.71827   C 102.81667,204.55441 121.95743,211.06787 121.95743,216.38253   C 121.95743,221.89698 90.309236,218.97992 90.309236,224.09478   L 90.309236,224.73413   C 90.309236,230.52831 103.69578,230.28855 109.37008,231.24759   C 113.44598,231.9269 116.20321,232.40642 118.92048,234.48433   C 121.99739,236.88192 120.91847,242.31646 124.19518,242.31646   C 131.02831,242.31646 137.26205,238.16064 144.3749,238.16064   L 147.57168,238.16064   C 163.75542,238.16064 166.43273,255.70301 177.02209,257.02168   C 190.76827,258.73996 200.79819,245.51325 213.50542,245.51325   C 217.901,245.51325 224.65421,249.98875 230.84799,250.90783   C 236.28253,251.70702 247.71104,250.66807 247.71104,245.51325   C 247.71104,237.0018 218.93996,229.88895 218.93996,222.1767   L 218.93996,221.85702   C 218.93996,219.77911 220.97791,218.66024 223.09578,218.66024   L 223.73514,218.66024   C 227.01184,218.66024 233.16566,219.45943 234.92389,217.06184   C 234.16466,215.98293 228.92992,212.86606 227.2516,212.86606   L 178.62048,212.98594   L 161.63755,212.78614   L 141.81747,213.18574   C 139.37992,211.54739 137.74156,205.83313 136.58273,198.76024   L 136.70261,200.11887   z "
     style="fill:#ffffff;fill-rule:evenodd;fill-opacity:1;stroke:none;" />
  <path
     id="path15"
     d="  M 142.7765,123.79558   L 142.7765,213.54538   L 263.61506,213.54538   L 263.61506,123.79558   L 142.7765,123.79558   z "
     style="fill:#ffffff;fill-rule:evenodd;fill-opacity:1;stroke:none;" />
  <path
     id="path17"
     d="  M 142.7765,123.79558   L 263.61506,123.79558   L 263.61506,213.54538   L 142.7765,213.54538   z "
     style="fill:none;stroke:#000000;stroke-width:3.4365461px;stroke-linecap:butt;stroke-linejoin:miter;stroke-miterlimit:10;stroke-dasharray:none;stroke-opacity:1;" />
  <path
     id="path19"
     d="  M 154.28494,168.67048   C 154.28494,193.48554 149.13012,213.54538 142.7765,213.54538   C 136.42289,213.54538 131.26807,193.48554 131.26807,168.67048   C 131.26807,143.89538 136.42289,123.79558 142.7765,123.79558   C 149.13012,123.79558 154.28494,143.89538 154.28494,168.67048   z "
     style="fill:#ffffff;fill-rule:evenodd;fill-opacity:1;stroke:none;" />
  <path
     id="path21"
     d="  M 154.28494,168.67048   C 154.28494,193.48554 149.13012,213.54538 142.7765,213.54538   C 136.42289,213.54538 131.26807,193.48554 131.26807,168.67048   C 131.26807,143.89538 136.42289,123.79558 142.7765,123.79558   C 149.13012,123.79558 154.28494,143.89538 154.28494,168.67048  "
     style="fill:none;stroke:#000000;stroke-width:3.4365461px;stroke-linecap:butt;stroke-linejoin:miter;stroke-miterlimit:10;stroke-dasharray:none;stroke-opacity:1;" />
  <path
     id="path23"
     d="  M 275.12349,168.11104   C 275.12349,192.88614 269.96867,212.98594 263.61506,212.98594   C 257.26144,212.98594 252.10662,192.88614 252.10662,168.11104   C 252.10662,143.33594 257.26144,123.23614 263.61506,123.23614   C 269.96867,123.23614 275.12349,143.33594 275.12349,168.11104   z "
     style="fill:#ffffff;fill-rule:evenodd;fill-opacity:1;stroke:none;" />
  <path
     id="path25"
     d="  M 275.12349,168.11104   C 275.12349,192.88614 269.96867,212.98594 263.61506,212.98594   C 257.26144,212.98594 252.10662,192.88614 252.10662,168.11104   C 252.10662,143.33594 257.26144,123.23614 263.61506,123.23614   C 269.96867,123.23614 275.12349,143.33594 275.12349,168.11104  "
     style="fill:none;stroke:#000000;stroke-width:3.4365461px;stroke-linecap:butt;stroke-linejoin:miter;stroke-miterlimit:10;stroke-dasharray:none;stroke-opacity:1;" />
  <path
     id="path27"
     d="  M 246.35241,125.39397   L 246.35241,211.26767   L 263.85482,211.26767   L 263.85482,125.39397   L 246.35241,125.39397   z "
     style="fill:#ffffff;fill-rule:evenodd;fill-opacity:1;stroke:none;" />
  <path
     id="path29"
     d="  M 179.17992,159.63956   L 179.17992,168.3508   L 186.45261,168.3508   L 186.45261,152.36687   C 185.49357,153.00622 179.17992,158.76044 179.17992,159.63956   z "
     style="fill:#ffffff;fill-rule:evenodd;fill-opacity:1;stroke:none;" />
  <path
     id="path31"
     d="  M 195.44357,143.49578   L 195.44357,143.49578   L 195.20381,168.3508   L 203.95502,168.3508   L 203.8751,135.18413   z "
     style="fill:#ffffff;fill-rule:evenodd;fill-opacity:1;stroke:none;" />
  <path
     id="path33"
     d="  M 214.14478,168.3508   L 222.89598,168.3508   L 222.89598,143.9753   C 222.89598,143.09618 215.22369,135.94337 214.14478,135.22409   z "
     style="fill:#ffffff;fill-rule:evenodd;fill-opacity:1;stroke:none;" />
  <path
     id="path35"
     d="  M 231.60723,168.3508   L 238.87992,168.3508   L 238.87992,160.35883   C 238.87992,158.96024 238.8,160.23895 239.19959,159.35984   L 231.60723,152.36687   z "
     style="fill:#ffffff;fill-rule:evenodd;fill-opacity:1;stroke:none;" />
  <path
     id="path37"
     d="  M 208.95,207.43152   L 208.95,207.43152   L 248.3504,169.46968   L 169.70944,169.46968   z "
     style="fill:#ffffff;fill-rule:evenodd;fill-opacity:1;stroke:none;" />
  <path
     id="path39"
     d="  M 169.70944,169.46968   L 248.3504,169.46968   L 208.95,207.43152   z  M 214.14478,135.22409   C 215.22369,135.94337 222.89598,143.09618 222.89598,143.9753   L 222.89598,168.3508   L 214.14478,168.3508   z  M 203.8751,135.18413   L 203.95502,168.3508   L 195.20381,168.3508   L 195.44357,143.49578   L 203.8751,135.18413   z  M 179.17992,159.63956   C 179.17992,158.76044 185.49357,153.00622 186.45261,152.36687   L 186.45261,168.3508   L 179.17992,168.3508   z  M 231.60723,152.36687   L 239.19959,159.35984   C 238.8,160.23895 238.87992,158.96024 238.87992,160.35883   L 238.87992,168.3508   L 231.60723,168.3508   z  M 250.86787,169.07008   L 209.10984,128.27108   L 167.39176,168.9502   L 209.10984,209.54939   z "
     style="fill:#000000;fill-rule:evenodd;fill-opacity:1;stroke:none;" />
</svg>
