<?xml version="1.0" encoding="UTF-8" standalone="no"?>
<svg
   xmlns:dc="http://purl.org/dc/elements/1.1/"
   xmlns:cc="http://creativecommons.org/ns#"
   xmlns:rdf="http://www.w3.org/1999/02/22-rdf-syntax-ns#"
   xmlns:svg="http://www.w3.org/2000/svg"
   xmlns="http://www.w3.org/2000/svg"
   id="svg41"
   height="89.669998mm"
   width="120.11mm"
   version="1.0">
  <metadata
     id="metadata45">
    <rdf:RDF>
      <cc:Work
         rdf:about="">
        <dc:format>image/svg+xml</dc:format>
        <dc:type
           rdf:resource="http://purl.org/dc/dcmitype/StillImage" />
      </cc:Work>
    </rdf:RDF>
  </metadata>
  <defs
     id="defs3">
    <pattern
       y="0"
       x="0"
       height="6"
       width="6"
       patternUnits="userSpaceOnUse"
       id="EMFhbasepattern" />
  </defs>
  <path
     id="path5"
     d="  M 179.02008,15.983936   L 179.02008,54.345381   L 274.92369,54.345381   L 274.92369,15.983936   L 179.02008,15.983936   z "
     style="fill:#000000;fill-rule:evenodd;fill-opacity:1;stroke:none;" />
  <path
     id="path7"
     d="  M 54.345381,54.345381   L 54.345381,284.51405   L 399.59839,284.51405   L 399.59839,54.345381   L 54.345381,54.345381   z "
     style="fill:#80e0ff;fill-rule:evenodd;fill-opacity:1;stroke:none;" />
  <path
     id="path9"
     d="  M 54.345381,54.345381   L 399.59839,54.345381   L 399.59839,284.51405   L 54.345381,284.51405   z "
     style="fill:none;stroke:#000000;stroke-width:9.5903616px;stroke-linecap:butt;stroke-linejoin:miter;stroke-miterlimit:10;stroke-dasharray:none;stroke-opacity:1;" />
  <path
     id="path11"
     d="  M 181.77731,152.40683   C 181.77731,144.65462 183.7753,113.36606 188.49056,113.36606   C 193.84518,113.36606 195.52349,148.37088 195.52349,156.88233   C 195.52349,165.43373 193.88514,200.07891 188.49056,200.07891   C 183.5755,200.07891 181.77731,169.26988 181.77731,161.35783   z  M 226.57229,152.7265   C 226.57229,145.81345 225.65321,137.94136 224.69417,131.90743   C 224.09478,128.43092 223.61526,125.55381 222.85602,122.19719   C 222.09678,118.96044 220.77811,116.32309 220.17871,113.68574   L 280.31827,113.68574   C 284.11445,113.68574 287.3512,146.13313 287.3512,153.36586   L 287.3512,161.03815   C 287.3512,168.27088 284.19437,200.07891 280.31827,200.07891   L 220.17871,200.07891   C 220.77811,197.44156 221.9769,194.80421 222.7761,191.52751   C 223.49538,188.6504 224.13474,185.41365 224.65421,182.1769   C 225.61325,176.18293 226.57229,168.47068 226.57229,161.67751   z  M 204.15482,155.92329   C 204.15482,147.77148 203.4755,140.61867 202.8761,133.2261   C 202.59638,129.70964 201.87711,126.03333 201.35763,122.8765   C 200.75823,119.2002 199.35964,116.48293 198.72028,113.68574   L 213.74518,113.68574   C 216.30261,113.68574 218.7002,129.7496 219.33956,133.4259   C 220.61827,141.09819 220.13875,148.8504 221.05783,156.64257   C 221.61727,161.11807 220.09879,175.78333 219.45943,180.17891   C 218.93996,183.61546 218.34056,187.29176 217.46144,190.68835   C 216.58233,194.16486 214.94397,197.76124 214.38454,200.07891   L 198.72028,200.07891   C 199.35964,197.36164 200.71827,194.64437 201.43755,190.96807   C 202.0769,187.57148 202.55642,184.41466 202.8761,180.89819   C 203.55542,173.8253 204.15482,166.63253 204.15482,158.8004   z  M 293.10542,156.88233   C 293.10542,144.05522 290.66787,121.71767 286.39216,113.68574   L 306.89156,113.68574   C 313.16526,126.79257 316.8016,137.78152 316.8016,157.20201   C 316.8016,165.63353 315.96245,174.26486 314.32409,180.97811   C 313.3251,185.01405 312.48594,187.37168 311.24718,191.00803   C 310.24819,193.88514 307.6508,198.24076 307.21124,200.07891   L 286.39216,200.07891   C 290.62791,192.1269 293.10542,169.66948 293.10542,156.88233   z  M 196.48253,156.56265   C 196.48253,148.77048 196.28273,140.13915 195.48353,132.90642   C 195.12389,129.31004 194.44458,125.71365 193.7253,122.19719   C 192.96606,118.28112 191.48755,115.92349 190.72831,113.04638   L 195.20381,113.04638   C 201.31767,113.04638 202.8761,144.45482 202.8761,153.04618   L 202.8761,161.35783   C 202.8761,170.90823 201.27771,196.88213 196.48253,200.07891   L 191.04799,200.07891   C 195.60341,191.44759 196.48253,170.34879 196.48253,156.56265   z  M 190.40863,111.76767   C 185.57349,111.76767 185.45361,115.32409 184.21486,119.0004   C 183.13594,122.15723 182.53654,126.63273 182.05703,130.30903   C 181.05803,137.62168 180.57851,147.53172 180.45863,155.60361   C 180.41867,167.79136 181.77731,197.6014 187.8512,201.67731   L 207.67128,201.27771   L 224.65421,201.47751   L 273.28534,201.35763   C 274.96365,201.35763 280.19839,204.4745 280.95763,205.55341   C 279.19939,207.951 273.04558,207.1518 269.76887,207.1518   L 269.12951,207.1518   C 267.01164,207.1518 264.97369,208.27068 264.97369,210.34859   L 264.97369,210.66827   C 264.97369,218.38052 293.74477,225.49337 293.74477,234.00482   C 293.74477,239.15964 282.31626,240.19859 276.88172,239.39939   C 270.68795,238.48032 263.93474,234.00482 259.53915,234.00482   C 246.83192,234.00482 236.802,247.23152 223.05582,245.51325   C 212.46646,244.19457 209.78915,226.65221 193.60542,226.65221   L 190.40863,226.65221   C 183.29578,226.65221 177.06205,230.80803 170.22891,230.80803   C 166.95221,230.80803 168.03112,225.37349 164.95421,222.9759   C 162.23695,220.89799 159.47972,220.41847 155.40381,219.73915   C 149.72952,218.78012 136.34297,219.01988 136.34297,213.2257   L 136.34297,212.58634   C 136.34297,207.47148 167.99116,210.38855 167.99116,204.87409   C 167.99116,199.55943 148.8504,193.04598 147.8514,189.20984   C 148.61064,188.8502 149.25,188.57048 150.40883,188.57048   L 157.44176,188.57048   L 172.46666,189.28976   L 180.45863,188.33072   L 182.73634,188.61044   L 182.61646,187.2518   L 179.73935,187.2518   C 177.10201,187.2518 173.8253,188.61044 171.26787,188.17088   C 168.67048,187.77128 165.31385,187.97108 162.23695,187.93112   C 158.96024,187.89116 146.57269,185.81325 146.57269,189.52952   C 146.57269,193.9251 160.99819,197.64136 164.4747,204.23474   C 162.55662,207.87108 150.44879,207.59136 145.09417,208.5504   C 141.49779,209.1498 138.02128,209.10984 135.90341,211.18775   C 133.46586,213.66526 136.34297,216.58233 138.5008,217.78112   C 142.5767,219.97891 152.88634,220.17871 158.16104,221.45743   C 161.39779,222.25662 164.35482,223.05582 165.55361,225.89297   C 166.63253,228.49036 166.87229,232.08674 170.86827,232.08674   L 171.18795,232.08674   C 176.26285,232.08674 183.3757,227.93092 190.08895,227.93092   L 192.64638,227.93092   C 207.43152,227.93092 208.87008,245.63313 222.09678,246.51225   C 230.44839,247.07168 234.72409,244.55421 240.87791,241.91686   C 244.67409,240.27851 253.98474,235.28353 258.26044,235.28353   L 258.8998,235.28353   C 263.25542,235.28353 266.81184,237.76104 270.52811,238.9998   C 274.44417,240.31847 278.52008,241.35743 283.51506,241.35743   L 284.79377,241.35743   C 287.7508,241.35743 290.22831,240.87791 292.46606,240.03875   C 295.42309,238.95984 295.14337,237.72108 295.06345,234.32449   C 294.90361,229.84899 289.82871,226.53233 286.79176,224.65421   C 283.39518,222.5763 278.75984,220.25863 275.08353,218.46044   C 273.08554,217.46144 271.36727,216.22269 269.64899,214.94397   C 266.53212,212.6263 267.29136,213.50542 265.61305,210.02891   C 268.53012,205.67329 282.23634,210.50843 282.23634,205.55341   C 282.23634,203.99498 276.8018,202.23674 275.84277,201.35763   L 291.50702,201.43755   L 305.29317,201.35763   L 305.29317,201.99699   L 310.40803,201.99699   C 313.16526,201.99699 318.55983,185.69337 319.47891,181.97711   C 321.4769,174.06506 322.55582,165.67349 322.55582,155.92329   C 322.55582,143.01626 318.79959,126.59277 314.44397,117.96144   C 313.20522,115.44397 312.40602,112.20723 308.80963,112.08735   C 305.09337,111.96747 301.05743,112.08735 297.3012,112.08735   C 289.30923,112.08735 282.39618,112.08735 274.88373,112.08735   L 223.3755,112.08735   L 194.88413,112.08735   L 190.40863,111.76767   z "
     style="fill:#000000;fill-rule:evenodd;fill-opacity:1;stroke:none;" />
  <path
     id="path13"
     d="  M 182.73634,188.61044   L 180.45863,188.33072   L 172.46666,189.28976   L 157.44176,188.57048   L 150.40883,188.57048   C 149.25,188.57048 148.61064,188.8502 147.8514,189.20984   C 148.8504,193.04598 167.99116,199.55943 167.99116,204.87409   C 167.99116,210.38855 136.34297,207.47148 136.34297,212.58634   L 136.34297,213.2257   C 136.34297,219.01988 149.72952,218.78012 155.40381,219.73915   C 159.47972,220.41847 162.23695,220.89799 164.95421,222.9759   C 168.03112,225.37349 166.95221,230.80803 170.22891,230.80803   C 177.06205,230.80803 183.29578,226.65221 190.40863,226.65221   L 193.60542,226.65221   C 209.78915,226.65221 212.46646,244.19457 223.05582,245.51325   C 236.802,247.23152 246.83192,234.00482 259.53915,234.00482   C 263.93474,234.00482 270.68795,238.48032 276.88172,239.39939   C 282.31626,240.19859 293.74477,239.15964 293.74477,234.00482   C 293.74477,225.49337 264.97369,218.38052 264.97369,210.66827   L 264.97369,210.34859   C 264.97369,208.27068 267.01164,207.1518 269.12951,207.1518   L 269.76887,207.1518   C 273.04558,207.1518 279.19939,207.951 280.95763,205.55341   C 280.19839,204.4745 274.96365,201.35763 273.28534,201.35763   L 224.65421,201.47751   L 207.67128,201.27771   L 187.8512,201.67731   C 185.41365,200.03895 183.7753,194.3247 182.61646,187.2518   L 182.73634,188.61044   z "
     style="fill:#ffffff;fill-rule:evenodd;fill-opacity:1;stroke:none;" />
  <path
     id="path15"
     d="  M 188.81024,112.28715   L 188.81024,202.03694   L 309.64879,202.03694   L 309.64879,112.28715   L 188.81024,112.28715   z "
     style="fill:#ffffff;fill-rule:evenodd;fill-opacity:1;stroke:none;" />
  <path
     id="path17"
     d="  M 188.81024,112.28715   L 309.64879,112.28715   L 309.64879,202.03694   L 188.81024,202.03694   z "
     style="fill:none;stroke:#000000;stroke-width:3.4365461px;stroke-linecap:butt;stroke-linejoin:miter;stroke-miterlimit:10;stroke-dasharray:none;stroke-opacity:1;" />
  <path
     id="path19"
     d="  M 200.31867,157.16205   C 200.31867,181.97711 195.16385,202.03694 188.81024,202.03694   C 182.45662,202.03694 177.3018,181.97711 177.3018,157.16205   C 177.3018,132.38695 182.45662,112.28715 188.81024,112.28715   C 195.16385,112.28715 200.31867,132.38695 200.31867,157.16205   z "
     style="fill:#ffffff;fill-rule:evenodd;fill-opacity:1;stroke:none;" />
  <path
     id="path21"
     d="  M 200.31867,157.16205   C 200.31867,181.97711 195.16385,202.03694 188.81024,202.03694   C 182.45662,202.03694 177.3018,181.97711 177.3018,157.16205   C 177.3018,132.38695 182.45662,112.28715 188.81024,112.28715   C 195.16385,112.28715 200.31867,132.38695 200.31867,157.16205  "
     style="fill:none;stroke:#000000;stroke-width:3.4365461px;stroke-linecap:butt;stroke-linejoin:miter;stroke-miterlimit:10;stroke-dasharray:none;stroke-opacity:1;" />
  <path
     id="path23"
     d="  M 321.15722,156.60261   C 321.15722,181.37771 316.00241,201.47751 309.64879,201.47751   C 303.29518,201.47751 298.14036,181.37771 298.14036,156.60261   C 298.14036,131.82751 303.29518,111.72771 309.64879,111.72771   C 316.00241,111.72771 321.15722,131.82751 321.15722,156.60261   z "
     style="fill:#ffffff;fill-rule:evenodd;fill-opacity:1;stroke:none;" />
  <path
     id="path25"
     d="  M 321.15722,156.60261   C 321.15722,181.37771 316.00241,201.47751 309.64879,201.47751   C 303.29518,201.47751 298.14036,181.37771 298.14036,156.60261   C 298.14036,131.82751 303.29518,111.72771 309.64879,111.72771   C 316.00241,111.72771 321.15722,131.82751 321.15722,156.60261  "
     style="fill:none;stroke:#000000;stroke-width:3.4365461px;stroke-linecap:butt;stroke-linejoin:miter;stroke-miterlimit:10;stroke-dasharray:none;stroke-opacity:1;" />
  <path
     id="path27"
     d="  M 292.38614,113.88554   L 292.38614,199.75923   L 309.88855,199.75923   L 309.88855,113.88554   L 292.38614,113.88554   z "
     style="fill:#ffffff;fill-rule:evenodd;fill-opacity:1;stroke:none;" />
  <path
     id="path29"
     d="  M 225.21365,148.13112   L 225.21365,156.84237   L 232.48634,156.84237   L 232.48634,140.85843   C 231.52731,141.49779 225.21365,147.25201 225.21365,148.13112   z "
     style="fill:#ffffff;fill-rule:evenodd;fill-opacity:1;stroke:none;" />
  <path
     id="path31"
     d="  M 241.47731,131.98735   L 241.47731,131.98735   L 241.23755,156.84237   L 249.98875,156.84237   L 249.90883,123.6757   z "
     style="fill:#ffffff;fill-rule:evenodd;fill-opacity:1;stroke:none;" />
  <path
     id="path33"
     d="  M 260.17851,156.84237   L 268.92971,156.84237   L 268.92971,132.46687   C 268.92971,131.58775 261.25743,124.43494 260.17851,123.71566   z "
     style="fill:#ffffff;fill-rule:evenodd;fill-opacity:1;stroke:none;" />
  <path
     id="path35"
     d="  M 277.64096,156.84237   L 284.91365,156.84237   L 284.91365,148.8504   C 284.91365,147.45181 284.83373,148.73052 285.23333,147.8514   L 277.64096,140.85843   z "
     style="fill:#ffffff;fill-rule:evenodd;fill-opacity:1;stroke:none;" />
  <path
     id="path37"
     d="  M 254.98373,195.92309   L 254.98373,195.92309   L 294.38413,157.96124   L 215.74317,157.96124   z "
     style="fill:#ffffff;fill-rule:evenodd;fill-opacity:1;stroke:none;" />
  <path
     id="path39"
     d="  M 215.74317,157.96124   L 294.38413,157.96124   L 254.98373,195.92309   z  M 260.17851,123.71566   C 261.25743,124.43494 268.92971,131.58775 268.92971,132.46687   L 268.92971,156.84237   L 260.17851,156.84237   z  M 249.90883,123.6757   L 249.98875,156.84237   L 241.23755,156.84237   L 241.47731,131.98735   L 249.90883,123.6757   z  M 225.21365,148.13112   C 225.21365,147.25201 231.52731,141.49779 232.48634,140.85843   L 232.48634,156.84237   L 225.21365,156.84237   z  M 277.64096,140.85843   L 285.23333,147.8514   C 284.83373,148.73052 284.91365,147.45181 284.91365,148.8504   L 284.91365,156.84237   L 277.64096,156.84237   z  M 296.9016,157.56164   L 255.14357,116.76265   L 213.4255,157.44176   L 255.14357,198.04096   z "
     style="fill:#000000;fill-rule:evenodd;fill-opacity:1;stroke:none;" />
</svg>
