<?xml version="1.0" encoding="UTF-8" standalone="no"?>
<svg
   xmlns:dc="http://purl.org/dc/elements/1.1/"
   xmlns:cc="http://creativecommons.org/ns#"
   xmlns:rdf="http://www.w3.org/1999/02/22-rdf-syntax-ns#"
   xmlns:svg="http://www.w3.org/2000/svg"
   xmlns="http://www.w3.org/2000/svg"
   id="svg19"
   height="121.12mm"
   width="135.35001mm"
   version="1.0">
  <metadata
     id="metadata23">
    <rdf:RDF>
      <cc:Work
         rdf:about="">
        <dc:format>image/svg+xml</dc:format>
        <dc:type
           rdf:resource="http://purl.org/dc/dcmitype/StillImage" />
      </cc:Work>
    </rdf:RDF>
  </metadata>
  <defs
     id="defs3">
    <pattern
       y="0"
       x="0"
       height="6"
       width="6"
       patternUnits="userSpaceOnUse"
       id="EMFhbasepattern" />
  </defs>
  <path
     id="path5"
     d="  M 174.2249,73.526103   C 54.345381,73.526103 54.345381,270.12851 174.2249,270.12851   C 174.2249,403.43453 337.26104,403.43453 337.26104,270.12851   C 457.14056,270.12851 457.14056,73.526103 337.26104,73.526103   z "
     style="fill:#ffff80;fill-rule:evenodd;fill-opacity:1;stroke:none;" />
  <path
     id="path7"
     d="  M 174.2249,73.526103   C 54.345381,73.526103 54.345381,270.12851 174.2249,270.12851   C 174.2249,403.43453 337.26104,403.43453 337.26104,270.12851   C 457.14056,270.12851 457.14056,73.526103 337.26104,73.526103  "
     style="fill:none;stroke:#000000;stroke-width:9.5903616px;stroke-linecap:butt;stroke-linejoin:miter;stroke-miterlimit:10;stroke-dasharray:none;stroke-opacity:1;" />
  <path
     id="path9"
     d="  M 150.24899,207.79116   L 150.24899,207.79116   L 198.2008,159.83936   L 313.28514,159.83936   L 361.23694,207.79116   L 313.28514,255.74297   L 198.2008,255.74297   z "
     style="fill:#000000;fill-rule:evenodd;fill-opacity:1;stroke:none;" />
  <path
     id="path11"
     d="  M 150.24899,207.79116   L 150.24899,207.79116   L 198.2008,159.83936   L 313.28514,159.83936   L 361.23694,207.79116   L 313.28514,255.74297   L 198.2008,255.74297   z "
     style="fill:none;stroke:#000000;stroke-width:0.95903611px;stroke-linecap:butt;stroke-linejoin:miter;stroke-miterlimit:10;stroke-dasharray:none;stroke-opacity:1;" />
  <path
     id="path13"
     d="  M 255.74297,193.40562   L 255.74297,102.29719  "
     style="fill:none;stroke:#000000;stroke-width:19.180723px;stroke-linecap:butt;stroke-linejoin:miter;stroke-miterlimit:10;stroke-dasharray:none;stroke-opacity:1;" />
  <path
     id="path15"
     d="  M 263.65502,205.35361   L 263.65502,197.32168   L 292.70582,197.28172   L 292.70582,222.73614   C 288.27028,226.29257 283.63494,228.96988 278.91967,230.76807   C 274.16445,232.56626 269.28935,233.44538 264.29437,233.44538   C 257.54116,233.44538 251.42731,232.00682 245.91285,229.12972   C 240.39839,226.25261 236.24257,222.05682 233.44538,216.62229   C 230.60823,211.14779 229.20964,205.03393 229.20964,198.28072   C 229.20964,191.60743 230.60823,185.37369 233.40542,179.57952   C 236.20261,173.78534 240.23855,169.50964 245.47329,166.67249   C 250.70803,163.8753 256.74196,162.4767 263.5751,162.4767   C 268.57008,162.4767 273.04558,163.2759 277.04156,164.87429   C 281.07751,166.51265 284.19437,168.7504 286.47208,171.58755   C 288.7498,174.46466 290.50803,178.22088 291.66686,182.85622   L 283.4751,185.09397   C 282.4761,181.57751 281.19739,178.86024 279.63895,176.86225   C 278.12048,174.86425 275.92269,173.26586 273.08554,172.06707   C 270.24839,170.86827 267.09156,170.22891 263.65502,170.22891   C 259.49919,170.22891 255.90281,170.86827 252.86586,172.14699   C 249.82891,173.4257 247.39136,175.06405 245.55321,177.14197   C 243.6751,179.17992 242.23654,181.45763 241.19759,183.93514   C 239.43935,188.17088 238.6002,192.76626 238.6002,197.72128   C 238.6002,203.8751 239.63915,208.98996 241.75702,213.10582   C 243.83494,217.22168 246.91184,220.25863 250.94779,222.25662   C 254.98373,224.25462 259.25943,225.25361 263.7749,225.25361   C 267.69096,225.25361 271.56706,224.53433 275.28333,223.01586   C 279.03955,221.49739 281.8767,219.85903 283.83473,218.14076   L 283.83473,205.35361   z "
     style="fill:#ffffff;fill-rule:evenodd;fill-opacity:1;stroke:none;" />
  <path
     id="path17"
     d="  M 263.65502,205.35361   L 263.65502,197.32168   L 292.70582,197.28172   L 292.70582,222.73614   C 288.27028,226.29257 283.63494,228.96988 278.91967,230.76807   C 274.16445,232.56626 269.28935,233.44538 264.29437,233.44538   C 257.54116,233.44538 251.42731,232.00682 245.91285,229.12972   C 240.39839,226.25261 236.24257,222.05682 233.44538,216.62229   C 230.60823,211.14779 229.20964,205.03393 229.20964,198.28072   C 229.20964,191.60743 230.60823,185.37369 233.40542,179.57952   C 236.20261,173.78534 240.23855,169.50964 245.47329,166.67249   C 250.70803,163.8753 256.74196,162.4767 263.5751,162.4767   C 268.57008,162.4767 273.04558,163.2759 277.04156,164.87429   C 281.07751,166.51265 284.19437,168.7504 286.47208,171.58755   C 288.7498,174.46466 290.50803,178.22088 291.66686,182.85622   L 283.4751,185.09397   C 282.4761,181.57751 281.19739,178.86024 279.63895,176.86225   C 278.12048,174.86425 275.92269,173.26586 273.08554,172.06707   C 270.24839,170.86827 267.09156,170.22891 263.65502,170.22891   C 259.49919,170.22891 255.90281,170.86827 252.86586,172.14699   C 249.82891,173.4257 247.39136,175.06405 245.55321,177.14197   C 243.6751,179.17992 242.23654,181.45763 241.19759,183.93514   C 239.43935,188.17088 238.6002,192.76626 238.6002,197.72128   C 238.6002,203.8751 239.63915,208.98996 241.75702,213.10582   C 243.83494,217.22168 246.91184,220.25863 250.94779,222.25662   C 254.98373,224.25462 259.25943,225.25361 263.7749,225.25361   C 267.69096,225.25361 271.56706,224.53433 275.28333,223.01586   C 279.03955,221.49739 281.8767,219.85903 283.83473,218.14076   L 283.83473,205.35361   z "
     style="fill:none;stroke:#000000;stroke-width:0.95903611px;stroke-linecap:butt;stroke-linejoin:miter;stroke-miterlimit:10;stroke-dasharray:none;stroke-opacity:1;" />
</svg>
