<?xml version="1.0" encoding="UTF-8" standalone="no"?>
<svg
   xmlns:dc="http://purl.org/dc/elements/1.1/"
   xmlns:cc="http://creativecommons.org/ns#"
   xmlns:rdf="http://www.w3.org/1999/02/22-rdf-syntax-ns#"
   xmlns:svg="http://www.w3.org/2000/svg"
   xmlns="http://www.w3.org/2000/svg"
   id="svg19"
   height="121.12mm"
   width="135.35001mm"
   version="1.0">
  <metadata
     id="metadata23">
    <rdf:RDF>
      <cc:Work
         rdf:about="">
        <dc:format>image/svg+xml</dc:format>
        <dc:type
           rdf:resource="http://purl.org/dc/dcmitype/StillImage" />
      </cc:Work>
    </rdf:RDF>
  </metadata>
  <defs
     id="defs3">
    <pattern
       y="0"
       x="0"
       height="6"
       width="6"
       patternUnits="userSpaceOnUse"
       id="EMFhbasepattern" />
  </defs>
  <path
     id="path5"
     d="  M 174.2249,73.526103   C 54.345381,73.526103 54.345381,270.12851 174.2249,270.12851   C 174.2249,403.43453 337.26104,403.43453 337.26104,270.12851   C 457.14056,270.12851 457.14056,73.526103 337.26104,73.526103   z "
     style="fill:#ffff80;fill-rule:evenodd;fill-opacity:1;stroke:none;" />
  <path
     id="path7"
     d="  M 174.2249,73.526103   C 54.345381,73.526103 54.345381,270.12851 174.2249,270.12851   C 174.2249,403.43453 337.26104,403.43453 337.26104,270.12851   C 457.14056,270.12851 457.14056,73.526103 337.26104,73.526103  "
     style="fill:none;stroke:#000000;stroke-width:9.5903616px;stroke-linecap:butt;stroke-linejoin:miter;stroke-miterlimit:10;stroke-dasharray:none;stroke-opacity:1;" />
  <path
     id="path9"
     d="  M 150.24899,207.79116   L 150.24899,207.79116   L 198.2008,159.83936   L 313.28514,159.83936   L 361.23694,207.79116   L 313.28514,255.74297   L 198.2008,255.74297   z "
     style="fill:#000000;fill-rule:evenodd;fill-opacity:1;stroke:none;" />
  <path
     id="path11"
     d="  M 150.24899,207.79116   L 150.24899,207.79116   L 198.2008,159.83936   L 313.28514,159.83936   L 361.23694,207.79116   L 313.28514,255.74297   L 198.2008,255.74297   z "
     style="fill:none;stroke:#000000;stroke-width:0.95903611px;stroke-linecap:butt;stroke-linejoin:miter;stroke-miterlimit:10;stroke-dasharray:none;stroke-opacity:1;" />
  <path
     id="path13"
     d="  M 255.74297,193.40562   L 255.74297,102.29719  "
     style="fill:none;stroke:#000000;stroke-width:19.180723px;stroke-linecap:butt;stroke-linejoin:miter;stroke-miterlimit:10;stroke-dasharray:none;stroke-opacity:1;" />
  <path
     id="path15"
     d="  M 223.9749,232.28654   L 250.34839,163.63554   L 260.13855,163.63554   L 288.23032,232.28654   L 277.88072,232.28654   L 269.84879,211.50743   L 241.15763,211.50743   L 233.60522,232.28654   z  M 243.79498,204.11486   L 267.0516,204.11486   L 259.89879,185.09397   C 257.701,179.2998 256.06265,174.58454 255.02369,170.86827   C 254.14457,175.26385 252.90582,179.61948 251.30743,183.9751   z "
     style="fill:#ffffff;fill-rule:evenodd;fill-opacity:1;stroke:none;" />
  <path
     id="path17"
     d="  M 223.9749,232.28654   L 250.34839,163.63554   L 260.13855,163.63554   L 288.23032,232.28654   L 277.88072,232.28654   L 269.84879,211.50743   L 241.15763,211.50743   L 233.60522,232.28654   z  M 243.79498,204.11486   L 267.0516,204.11486   L 259.89879,185.09397   C 257.701,179.2998 256.06265,174.58454 255.02369,170.86827   C 254.14457,175.26385 252.90582,179.61948 251.30743,183.9751   z "
     style="fill:none;stroke:#000000;stroke-width:0.95903611px;stroke-linecap:butt;stroke-linejoin:miter;stroke-miterlimit:10;stroke-dasharray:none;stroke-opacity:1;" />
</svg>
