<?xml version="1.0" encoding="UTF-8" standalone="no"?>
<svg
   xmlns:dc="http://purl.org/dc/elements/1.1/"
   xmlns:cc="http://creativecommons.org/ns#"
   xmlns:rdf="http://www.w3.org/1999/02/22-rdf-syntax-ns#"
   xmlns:svg="http://www.w3.org/2000/svg"
   xmlns="http://www.w3.org/2000/svg"
   id="svg19"
   height="121.12mm"
   width="135.35001mm"
   version="1.0">
  <metadata
     id="metadata23">
    <rdf:RDF>
      <cc:Work
         rdf:about="">
        <dc:format>image/svg+xml</dc:format>
        <dc:type
           rdf:resource="http://purl.org/dc/dcmitype/StillImage" />
      </cc:Work>
    </rdf:RDF>
  </metadata>
  <defs
     id="defs3">
    <pattern
       y="0"
       x="0"
       height="6"
       width="6"
       patternUnits="userSpaceOnUse"
       id="EMFhbasepattern" />
  </defs>
  <path
     id="path5"
     d="  M 174.2249,73.526103   C 54.345381,73.526103 54.345381,270.12851 174.2249,270.12851   C 174.2249,403.43453 337.26104,403.43453 337.26104,270.12851   C 457.14056,270.12851 457.14056,73.526103 337.26104,73.526103   z "
     style="fill:#ffff80;fill-rule:evenodd;fill-opacity:1;stroke:none;" />
  <path
     id="path7"
     d="  M 174.2249,73.526103   C 54.345381,73.526103 54.345381,270.12851 174.2249,270.12851   C 174.2249,403.43453 337.26104,403.43453 337.26104,270.12851   C 457.14056,270.12851 457.14056,73.526103 337.26104,73.526103  "
     style="fill:none;stroke:#000000;stroke-width:9.5903616px;stroke-linecap:butt;stroke-linejoin:miter;stroke-miterlimit:10;stroke-dasharray:none;stroke-opacity:1;" />
  <path
     id="path9"
     d="  M 150.24899,207.79116   L 150.24899,207.79116   L 198.2008,159.83936   L 313.28514,159.83936   L 361.23694,207.79116   L 313.28514,255.74297   L 198.2008,255.74297   z "
     style="fill:#000000;fill-rule:evenodd;fill-opacity:1;stroke:none;" />
  <path
     id="path11"
     d="  M 150.24899,207.79116   L 150.24899,207.79116   L 198.2008,159.83936   L 313.28514,159.83936   L 361.23694,207.79116   L 313.28514,255.74297   L 198.2008,255.74297   z "
     style="fill:none;stroke:#000000;stroke-width:0.95903611px;stroke-linecap:butt;stroke-linejoin:miter;stroke-miterlimit:10;stroke-dasharray:none;stroke-opacity:1;" />
  <path
     id="path13"
     d="  M 255.74297,193.40562   L 255.74297,102.29719  "
     style="fill:none;stroke:#000000;stroke-width:19.180723px;stroke-linecap:butt;stroke-linejoin:miter;stroke-miterlimit:10;stroke-dasharray:none;stroke-opacity:1;" />
  <path
     id="path15"
     d="  M 236.88192,232.28654   L 236.88192,163.63554   L 262.65602,163.63554   C 267.89076,163.63554 272.08654,164.35482 275.28333,165.71345   C 278.44016,167.11205 280.91767,169.26988 282.71586,172.14699   C 284.51405,175.02409 285.39317,178.06104 285.39317,181.21787   C 285.39317,184.13494 284.59397,186.89217 283.03554,189.48956   C 281.43714,192.08695 279.03955,194.16486 275.80281,195.76325   C 279.95863,197.00201 283.15542,199.07992 285.39317,201.99699   C 287.63092,204.91405 288.7498,208.39056 288.7498,212.38654   C 288.7498,215.62329 288.07048,218.58032 286.71184,221.37751   C 285.35321,224.13474 283.6749,226.25261 281.6769,227.77108   C 279.67891,229.2496 277.16144,230.36847 274.12449,231.12771   C 271.12751,231.9269 267.4512,232.28654 263.05562,232.28654   z  M 245.99277,192.48654   L 260.81787,192.48654   C 264.85381,192.48654 267.73092,192.20682 269.48915,191.68735   C 271.80682,191.00803 273.5251,189.84919 274.72389,188.29076   C 275.88273,186.69237 276.44216,184.69437 276.44216,182.29678   C 276.44216,180.01907 275.92269,177.98112 274.80381,176.26285   C 273.7249,174.54458 272.16646,173.34578 270.12851,172.70642   C 268.13052,172.06707 264.61405,171.74739 259.69899,171.74739   L 245.99277,171.74739   z  M 245.99277,224.1747   L 263.05562,224.1747   C 266.01265,224.1747 268.0506,224.09478 269.24939,223.85502   C 271.32731,223.49538 273.08554,222.85602 274.48413,221.9769   C 275.88273,221.13775 277.04156,219.85903 277.96064,218.18072   C 278.87971,216.50241 279.31927,214.58433 279.31927,212.38654   C 279.31927,209.82911 278.67992,207.59136 277.36124,205.71325   C 276.04257,203.83514 274.20441,202.51646 271.88674,201.75723   C 269.56907,200.95803 266.21245,200.59839 261.85682,200.59839   L 245.99277,200.59839   z "
     style="fill:#ffffff;fill-rule:evenodd;fill-opacity:1;stroke:none;" />
  <path
     id="path17"
     d="  M 236.88192,232.28654   L 236.88192,163.63554   L 262.65602,163.63554   C 267.89076,163.63554 272.08654,164.35482 275.28333,165.71345   C 278.44016,167.11205 280.91767,169.26988 282.71586,172.14699   C 284.51405,175.02409 285.39317,178.06104 285.39317,181.21787   C 285.39317,184.13494 284.59397,186.89217 283.03554,189.48956   C 281.43714,192.08695 279.03955,194.16486 275.80281,195.76325   C 279.95863,197.00201 283.15542,199.07992 285.39317,201.99699   C 287.63092,204.91405 288.7498,208.39056 288.7498,212.38654   C 288.7498,215.62329 288.07048,218.58032 286.71184,221.37751   C 285.35321,224.13474 283.6749,226.25261 281.6769,227.77108   C 279.67891,229.2496 277.16144,230.36847 274.12449,231.12771   C 271.12751,231.9269 267.4512,232.28654 263.05562,232.28654   z  M 245.99277,192.48654   L 260.81787,192.48654   C 264.85381,192.48654 267.73092,192.20682 269.48915,191.68735   C 271.80682,191.00803 273.5251,189.84919 274.72389,188.29076   C 275.88273,186.69237 276.44216,184.69437 276.44216,182.29678   C 276.44216,180.01907 275.92269,177.98112 274.80381,176.26285   C 273.7249,174.54458 272.16646,173.34578 270.12851,172.70642   C 268.13052,172.06707 264.61405,171.74739 259.69899,171.74739   L 245.99277,171.74739   z  M 245.99277,224.1747   L 263.05562,224.1747   C 266.01265,224.1747 268.0506,224.09478 269.24939,223.85502   C 271.32731,223.49538 273.08554,222.85602 274.48413,221.9769   C 275.88273,221.13775 277.04156,219.85903 277.96064,218.18072   C 278.87971,216.50241 279.31927,214.58433 279.31927,212.38654   C 279.31927,209.82911 278.67992,207.59136 277.36124,205.71325   C 276.04257,203.83514 274.20441,202.51646 271.88674,201.75723   C 269.56907,200.95803 266.21245,200.59839 261.85682,200.59839   L 245.99277,200.59839   z "
     style="fill:none;stroke:#000000;stroke-width:0.95903611px;stroke-linecap:butt;stroke-linejoin:miter;stroke-miterlimit:10;stroke-dasharray:none;stroke-opacity:1;" />
</svg>
