<?xml version="1.0" encoding="UTF-8" standalone="no"?>
<svg
   xmlns:dc="http://purl.org/dc/elements/1.1/"
   xmlns:cc="http://creativecommons.org/ns#"
   xmlns:rdf="http://www.w3.org/1999/02/22-rdf-syntax-ns#"
   xmlns:svg="http://www.w3.org/2000/svg"
   xmlns="http://www.w3.org/2000/svg"
   id="svg35"
   height="116.73mm"
   width="116.73mm"
   version="1.0">
  <metadata
     id="metadata39">
    <rdf:RDF>
      <cc:Work
         rdf:about="">
        <dc:format>image/svg+xml</dc:format>
        <dc:type
           rdf:resource="http://purl.org/dc/dcmitype/StillImage" />
      </cc:Work>
    </rdf:RDF>
  </metadata>
  <defs
     id="defs3">
    <pattern
       y="0"
       x="0"
       height="6"
       width="6"
       patternUnits="userSpaceOnUse"
       id="EMFhbasepattern" />
  </defs>
  <path
     id="path5"
     d="  M 220.57831,386.49156   L 220.57831,386.49156   L 386.49156,220.57831   L 220.57831,54.665059   L 54.665059,220.57831   L 220.57831,386.49156   z "
     style="fill:#ff8080;fill-rule:evenodd;fill-opacity:1;stroke:none;" />
  <path
     id="path7"
     d="  M 220.57831,386.49156   L 220.57831,386.49156   L 386.49156,220.57831   L 220.57831,54.665059   L 54.665059,220.57831   L 220.57831,386.49156  "
     style="fill:none;stroke:#000000;stroke-width:9.5903616px;stroke-linecap:butt;stroke-linejoin:miter;stroke-miterlimit:10;stroke-dasharray:none;stroke-opacity:1;" />
  <path
     id="path9"
     d="  M 210.34859,193.1259   C 210.66827,197.32168 214.10482,202.31666 218.02088,203.19578   L 214.98393,191.16787   z "
     style="fill:#000000;fill-rule:evenodd;fill-opacity:1;stroke:none;" />
  <path
     id="path11"
     d="  M 214.98393,191.16787   L 218.02088,203.19578   C 214.10482,202.31666 210.66827,197.32168 210.34859,193.1259   z  M 205.59337,183.21586   L 205.59337,186.49257   C 205.59337,197.04197 210.58835,207.27168 219.2996,209.10984   C 228.0508,210.94799 236.08273,198.24076 236.08273,189.76927   L 236.08273,186.13293   C 236.08273,179.02008 231.08775,165.51365 228.96988,159.12008   C 227.81104,155.76345 221.65723,133.86546 219.73915,133.86546   C 217.74116,133.86546 217.62128,144.61466 217.06184,146.77249   C 215.74317,151.88735 214.90401,154.48474 213.34558,159.04016   C 211.46747,164.55462 205.59337,177.22188 205.59337,183.21586   z "
     style="fill:#000000;fill-rule:evenodd;fill-opacity:1;stroke:none;" />
  <path
     id="path13"
     d="  M 202.95602,215.14377   L 202.95602,215.14377   L 201.51747,211.58735   L 148.21104,211.54739   L 148.21104,241.35743   L 290.18835,241.35743   L 290.18835,211.54739   L 236.08273,211.54739   L 236.08273,218.46044   L 228.81004,218.02088   L 231.08775,224.61425   L 228.4504,224.93393   L 224.49437,222.7761   L 223.69518,230.08875   L 221.17771,226.45241   L 213.18574,228.92992   L 211.70723,221.37751   L 206.79217,224.45441   L 205.23373,220.65823   L 199.31968,221.69719   z "
     style="fill:#000000;fill-rule:evenodd;fill-opacity:1;stroke:none;" />
  <path
     id="path15"
     d="  M 224.81405,250.42831   C 224.81405,255.18353 232.84598,254.90381 232.60622,250.10863   C 232.36646,244.51425 224.81405,245.71305 224.81405,249.34939   z "
     style="fill:#000000;fill-rule:evenodd;fill-opacity:1;stroke:none;" />
  <path
     id="path17"
     d="  M 215.02389,259.13955   C 216.58233,259.13955 218.3006,257.14156 218.3006,255.50321   L 218.3006,255.14357   C 218.3006,249.82891 210.66827,250.86787 210.66827,254.42429   L 210.66827,256.22249   C 210.66827,257.86084 213.18574,259.13955 215.02389,259.13955   z "
     style="fill:#000000;fill-rule:evenodd;fill-opacity:1;stroke:none;" />
  <path
     id="path19"
     d="  M 221.57731,267.49116   C 221.57731,269.00963 223.1757,271.12751 224.45441,271.12751   L 226.29257,271.12751   C 227.33152,271.12751 229.16968,269.28935 229.16968,268.21044   L 229.16968,266.41225   C 229.16968,264.97369 227.17168,263.49518 225.57329,263.49518   L 225.17369,263.49518   C 223.3755,263.49518 221.57731,265.29337 221.57731,267.13152   z "
     style="fill:#000000;fill-rule:evenodd;fill-opacity:1;stroke:none;" />
  <path
     id="path21"
     d="  M 215.74317,274.04457   C 217.14176,274.04457 218.66024,272.04658 218.66024,270.40823   C 218.66024,268.13052 216.94196,266.41225 214.66425,266.41225   C 213.26566,266.41225 211.02791,267.97068 211.02791,269.28935   L 211.02791,270.76787   C 211.02791,272.40622 212.70622,274.04457 213.94498,274.04457   z "
     style="fill:#000000;fill-rule:evenodd;fill-opacity:1;stroke:none;" />
  <path
     id="path23"
     d="  M 217.22168,283.83473   C 217.22168,285.23333 218.78012,287.47108 220.09879,287.47108   L 221.57731,287.47108   C 223.3755,287.47108 224.81405,285.99257 224.81405,284.19437   L 224.81405,282.75582   C 224.81405,281.51706 223.21566,279.83875 221.57731,279.83875   L 220.81807,279.83875   C 218.78012,279.83875 217.22168,281.75682 217.22168,283.83473   z "
     style="fill:#000000;fill-rule:evenodd;fill-opacity:1;stroke:none;" />
  <path
     id="path25"
     d="  M 232.08674,294.34417   C 235.28353,294.34417 237.28152,290.10843 234.80401,287.63092   C 232.3265,285.15341 228.09076,287.19136 228.09076,290.34819   C 228.09076,292.30622 230.16867,294.34417 232.08674,294.34417   z "
     style="fill:#000000;fill-rule:evenodd;fill-opacity:1;stroke:none;" />
  <path
     id="path27"
     d="  M 211.74719,296.54196   C 211.74719,298.18032 213.26566,300.17831 214.66425,300.17831   L 216.10281,300.17831   C 218.06084,300.17831 219.37951,298.38012 219.37951,296.54196   L 219.37951,296.18233   C 219.37951,294.54397 217.901,292.54598 216.46245,292.54598   L 214.66425,292.54598   C 213.38554,292.54598 211.74719,294.66385 211.74719,296.18233   z "
     style="fill:#000000;fill-rule:evenodd;fill-opacity:1;stroke:none;" />
  <path
     id="path29"
     d="  M 226.29257,303.45502   C 228.2506,303.45502 229.56927,301.65682 229.56927,299.81867   C 229.56927,298.18032 228.0508,296.18233 226.65221,296.18233   L 224.81405,296.18233   C 223.61526,296.18233 221.93694,297.82068 221.93694,299.45903   L 221.93694,300.17831   C 221.93694,301.9765 223.41546,303.45502 225.17369,303.45502   z "
     style="fill:#000000;fill-rule:evenodd;fill-opacity:1;stroke:none;" />
  <path
     id="path31"
     d="  M 222.33654,193.00602   C 224.49437,197.24176 223.33554,202.11686 219.81907,203.91506   C 216.26265,205.71325 211.62731,203.75522 209.50943,199.51948   C 207.3516,195.28373 208.51044,190.36867 212.0269,188.57048   C 215.58333,186.77229 220.21867,188.77028 222.33654,193.00602   z "
     style="fill:#000000;fill-rule:evenodd;fill-opacity:1;stroke:none;" />
  <path
     id="path33"
     d="  M 222.33654,193.00602   C 224.49437,197.24176 223.33554,202.11686 219.81907,203.91506   C 216.26265,205.71325 211.62731,203.75522 209.50943,199.51948   C 207.3516,195.28373 208.51044,190.36867 212.0269,188.57048   C 215.58333,186.77229 220.21867,188.77028 222.33654,193.00602  "
     style="fill:none;stroke:#000000;stroke-width:1.1188755px;stroke-linecap:butt;stroke-linejoin:miter;stroke-miterlimit:10;stroke-dasharray:none;stroke-opacity:1;" />
</svg>
