<?xml version="1.0" encoding="UTF-8" standalone="no"?>
<svg
   xmlns:dc="http://purl.org/dc/elements/1.1/"
   xmlns:cc="http://creativecommons.org/ns#"
   xmlns:rdf="http://www.w3.org/1999/02/22-rdf-syntax-ns#"
   xmlns:svg="http://www.w3.org/2000/svg"
   xmlns="http://www.w3.org/2000/svg"
   id="svg11"
   height="116.73mm"
   width="116.73mm"
   version="1.0">
  <metadata
     id="metadata15">
    <rdf:RDF>
      <cc:Work
         rdf:about="">
        <dc:format>image/svg+xml</dc:format>
        <dc:type
           rdf:resource="http://purl.org/dc/dcmitype/StillImage" />
      </cc:Work>
    </rdf:RDF>
  </metadata>
  <defs
     id="defs3">
    <pattern
       y="0"
       x="0"
       height="6"
       width="6"
       patternUnits="userSpaceOnUse"
       id="EMFhbasepattern" />
  </defs>
  <path
     id="path5"
     d="  M 220.57831,386.49156   L 220.57831,386.49156   L 386.49156,220.57831   L 220.57831,54.665059   L 54.665059,220.57831   L 220.57831,386.49156   z "
     style="fill:#ff8080;fill-rule:evenodd;fill-opacity:1;stroke:none;" />
  <path
     id="path7"
     d="  M 220.57831,386.49156   L 220.57831,386.49156   L 386.49156,220.57831   L 220.57831,54.665059   L 54.665059,220.57831   L 220.57831,386.49156  "
     style="fill:none;stroke:#000000;stroke-width:9.5903616px;stroke-linecap:butt;stroke-linejoin:miter;stroke-miterlimit:10;stroke-dasharray:none;stroke-opacity:1;" />
  <path
     id="path9"
     d="  M 233.9249,221.45743   L 242.11666,223.49538   C 240.39839,230.24859 237.32148,235.36345 232.84598,238.87992   C 228.41044,242.39638 222.9759,244.15461 216.54237,244.15461   C 209.86907,244.15461 204.4745,242.79598 200.27871,240.11867   C 196.12289,237.4014 192.9261,233.44538 190.76827,228.33052   C 188.57048,223.1757 187.49156,217.66124 187.49156,211.74719   C 187.49156,205.31365 188.73032,199.71927 191.16787,194.92409   C 193.64538,190.12891 197.12188,186.49257 201.67731,184.01506   C 206.23273,181.49759 211.22771,180.25883 216.66225,180.25883   C 222.85602,180.25883 228.0508,181.85723 232.24658,185.01405   C 236.48233,188.13092 239.39939,192.56646 241.07771,198.28072   L 233.00582,200.15883   C 231.56727,195.68333 229.48935,192.40662 226.77209,190.32871   C 224.05482,188.29076 220.61827,187.2518 216.50241,187.2518   C 211.74719,187.2518 207.79116,188.41064 204.59437,190.68835   C 201.39759,192.96606 199.15984,196.00301 197.84116,199.83915   C 196.56245,203.6753 195.92309,207.63132 195.92309,211.70723   C 195.92309,216.98192 196.68233,221.53735 198.2008,225.49337   C 199.75923,229.40943 202.11686,232.3265 205.35361,234.24457   C 208.59036,236.20261 212.10682,237.16164 215.86305,237.16164   C 220.41847,237.16164 224.33453,235.84297 227.49136,233.20562   C 230.64819,230.56827 232.80602,226.65221 233.9249,221.45743   z  M 253.58514,243.11566   L 253.58514,181.33775   L 261.73694,181.33775   L 261.73694,243.11566   z "
     style="fill:#000000;fill-rule:evenodd;fill-opacity:1;stroke:none;" />
</svg>
