<?xml version="1.0" encoding="UTF-8" standalone="no"?>
<svg
   xmlns:dc="http://purl.org/dc/elements/1.1/"
   xmlns:cc="http://creativecommons.org/ns#"
   xmlns:rdf="http://www.w3.org/1999/02/22-rdf-syntax-ns#"
   xmlns:svg="http://www.w3.org/2000/svg"
   xmlns="http://www.w3.org/2000/svg"
   id="svg11"
   height="89.669998mm"
   width="120.11mm"
   version="1.0">
  <metadata
     id="metadata15">
    <rdf:RDF>
      <cc:Work
         rdf:about="">
        <dc:format>image/svg+xml</dc:format>
        <dc:type
           rdf:resource="http://purl.org/dc/dcmitype/StillImage" />
      </cc:Work>
    </rdf:RDF>
  </metadata>
  <defs
     id="defs3">
    <pattern
       y="0"
       x="0"
       height="6"
       width="6"
       patternUnits="userSpaceOnUse"
       id="EMFhbasepattern" />
  </defs>
  <path
     id="path5"
     d="  M 54.345381,54.345381   L 54.345381,284.51405   L 399.59839,284.51405   L 399.59839,54.345381   L 54.345381,54.345381   z "
     style="fill:#80e0ff;fill-rule:evenodd;fill-opacity:1;stroke:none;" />
  <path
     id="path7"
     d="  M 54.345381,54.345381   L 399.59839,54.345381   L 399.59839,284.51405   L 54.345381,284.51405   z "
     style="fill:none;stroke:#000000;stroke-width:9.5903616px;stroke-linecap:butt;stroke-linejoin:miter;stroke-miterlimit:10;stroke-dasharray:none;stroke-opacity:1;" />
  <path
     id="path9"
     d="  M 240.31847,170.30883   L 248.51024,172.34678   C 246.79196,179.1 243.71506,184.21486 239.23955,187.73132   C 234.80401,191.24779 229.36947,193.00602 222.93594,193.00602   C 216.26265,193.00602 210.86807,191.64739 206.67229,188.97008   C 202.51646,186.25281 199.31968,182.29678 197.16184,177.18193   C 194.96405,172.02711 193.88514,166.51265 193.88514,160.59859   C 193.88514,154.16506 195.12389,148.57068 197.56144,143.7755   C 200.03895,138.98032 203.51546,135.34397 208.07088,132.86646   C 212.6263,130.34899 217.62128,129.11024 223.05582,129.11024   C 229.2496,129.11024 234.44437,130.70863 238.64016,133.86546   C 242.8759,136.98233 245.79297,141.41787 247.47128,147.13213   L 239.39939,149.01024   C 237.96084,144.53474 235.88293,141.25803 233.16566,139.18012   C 230.44839,137.14217 227.01184,136.10321 222.89598,136.10321   C 218.14076,136.10321 214.18474,137.26205 210.98795,139.53976   C 207.79116,141.81747 205.55341,144.85442 204.23474,148.69056   C 202.95602,152.5267 202.31666,156.48273 202.31666,160.55863   C 202.31666,165.83333 203.0759,170.38875 204.59437,174.34478   C 206.15281,178.26084 208.51044,181.17791 211.74719,183.09598   C 214.98393,185.05401 218.5004,186.01305 222.25662,186.01305   C 226.81204,186.01305 230.72811,184.69437 233.88494,182.05703   C 237.04176,179.41968 239.19959,175.50361 240.31847,170.30883   z  M 259.97871,191.96707   L 259.97871,130.18915   L 268.13052,130.18915   L 268.13052,191.96707   z "
     style="fill:#000000;fill-rule:evenodd;fill-opacity:1;stroke:none;" />
</svg>
