<?xml version="1.0" encoding="UTF-8" standalone="no"?>
<svg
   xmlns:dc="http://purl.org/dc/elements/1.1/"
   xmlns:cc="http://creativecommons.org/ns#"
   xmlns:rdf="http://www.w3.org/1999/02/22-rdf-syntax-ns#"
   xmlns:svg="http://www.w3.org/2000/svg"
   xmlns="http://www.w3.org/2000/svg"
   id="svg21"
   height="101.85mm"
   width="101.85mm"
   version="1.0">
  <metadata
     id="metadata25">
    <rdf:RDF>
      <cc:Work
         rdf:about="">
        <dc:format>image/svg+xml</dc:format>
        <dc:type
           rdf:resource="http://purl.org/dc/dcmitype/StillImage" />
      </cc:Work>
    </rdf:RDF>
  </metadata>
  <defs
     id="defs3">
    <pattern
       y="0"
       x="0"
       height="6"
       width="6"
       patternUnits="userSpaceOnUse"
       id="EMFhbasepattern" />
  </defs>
  <path
     id="path5"
     d="  M 330.54779,192.44658   C 330.54779,268.72992 268.72992,330.54779 192.44658,330.54779   C 116.20321,330.54779 54.345381,268.72992 54.345381,192.44658   C 54.345381,116.20321 116.20321,54.345381 192.44658,54.345381   C 268.72992,54.345381 330.54779,116.20321 330.54779,192.44658   z "
     style="fill:#80e0ff;fill-rule:evenodd;fill-opacity:1;stroke:none;" />
  <path
     id="path7"
     d="  M 330.54779,192.44658   C 330.54779,268.72992 268.72992,330.54779 192.44658,330.54779   C 116.20321,330.54779 54.345381,268.72992 54.345381,192.44658   C 54.345381,116.20321 116.20321,54.345381 192.44658,54.345381   C 268.72992,54.345381 330.54779,116.20321 330.54779,192.44658  "
     style="fill:none;stroke:#000000;stroke-width:9.5903616px;stroke-linecap:butt;stroke-linejoin:miter;stroke-miterlimit:10;stroke-dasharray:none;stroke-opacity:1;" />
  <path
     id="path9"
     d="  M 144.49478,130.10924   C 88.870681,130.10924 88.870681,219.2996 144.49478,219.2996   L 240.39839,219.2996   C 296.02249,219.2996 296.02249,130.10924 240.39839,130.10924   z "
     style="fill:none;stroke:#000000;stroke-width:9.5903616px;stroke-linecap:butt;stroke-linejoin:miter;stroke-miterlimit:10;stroke-dasharray:none;stroke-opacity:1;" />
  <path
     id="path11"
     d="  M 128.19116,235.60321   C 128.19116,242.51626 122.63675,248.07068 115.72369,248.07068   C 108.8506,248.07068 103.25622,242.51626 103.25622,235.60321   C 103.25622,228.73012 108.8506,223.13574 115.72369,223.13574   C 122.63675,223.13574 128.19116,228.73012 128.19116,235.60321  "
     style="fill:none;stroke:#000000;stroke-width:9.5903616px;stroke-linecap:butt;stroke-linejoin:miter;stroke-miterlimit:10;stroke-dasharray:none;stroke-opacity:1;" />
  <path
     id="path13"
     d="  M 281.63694,235.60321   C 281.63694,242.51626 276.08253,248.07068 269.16947,248.07068   C 262.29638,248.07068 256.702,242.51626 256.702,235.60321   C 256.702,228.73012 262.29638,223.13574 269.16947,223.13574   C 276.08253,223.13574 281.63694,228.73012 281.63694,235.60321  "
     style="fill:none;stroke:#000000;stroke-width:9.5903616px;stroke-linecap:butt;stroke-linejoin:miter;stroke-miterlimit:10;stroke-dasharray:none;stroke-opacity:1;" />
  <path
     id="path15"
     d="  M 98.461043,219.2996   L 286.43212,219.2996  "
     style="fill:none;stroke:#000000;stroke-width:9.5903616px;stroke-linecap:butt;stroke-linejoin:miter;stroke-miterlimit:10;stroke-dasharray:none;stroke-opacity:1;" />
  <path
     id="path17"
     d="  M 137.54177,191.44759   L 137.54177,147.49176   L 146.29297,147.49176   L 156.72249,178.62048   C 157.68152,181.53755 158.36084,183.69538 158.8004,185.13393   C 159.31988,183.53554 160.07911,181.17791 161.15803,178.06104   L 171.66747,147.49176   L 179.4996,147.49176   L 179.4996,191.44759   L 173.86526,191.44759   L 173.86526,154.68454   L 161.11807,191.44759   L 155.88333,191.44759   L 143.1761,154.04518   L 143.1761,191.44759   z  M 186.89217,177.34176   L 192.36666,176.86225   C 192.64638,179.06004 193.24578,180.85823 194.20482,182.25682   C 195.12389,183.65542 196.60241,184.81425 198.6004,185.69337   C 200.59839,186.53253 202.83614,186.97209 205.35361,186.97209   C 207.5514,186.97209 209.50943,186.65241 211.22771,186.01305   C 212.90602,185.33373 214.18474,184.41466 215.02389,183.29578   C 215.86305,182.13695 216.26265,180.85823 216.26265,179.4996   C 216.26265,178.14096 215.86305,176.94217 215.06385,175.90321   C 214.26466,174.86425 212.94598,174.0251 211.10783,173.30582   C 209.90903,172.86626 207.31164,172.14699 203.2757,171.18795   C 199.23976,170.18895 196.40261,169.30984 194.80421,168.43072   C 192.68634,167.31184 191.12791,165.95321 190.12891,164.35482   C 189.08996,162.71646 188.57048,160.87831 188.57048,158.88032   C 188.57048,156.64257 189.20984,154.56466 190.44859,152.64658   C 191.72731,150.72851 193.56546,149.25 195.96305,148.251   C 198.4006,147.25201 201.07791,146.77249 204.03494,146.77249   C 207.27168,146.77249 210.14879,147.29197 212.66626,148.33092   C 215.14377,149.36988 217.06184,150.92831 218.38052,152.96626   C 219.73915,155.00421 220.45843,157.32189 220.53835,159.87931   L 214.98393,160.31887   C 214.66425,157.52168 213.66526,155.44377 211.94698,154.00522   C 210.18875,152.60662 207.63132,151.88735 204.2747,151.88735   C 200.75823,151.88735 198.2008,152.5267 196.60241,153.80542   C 194.96405,155.12409 194.16486,156.64257 194.16486,158.48072   C 194.16486,160.07911 194.72429,161.35783 195.88313,162.35682   C 197.00201,163.39578 199.91907,164.43474 204.63433,165.51365   C 209.38956,166.59257 212.6263,167.51164 214.38454,168.31084   C 216.94196,169.46968 218.82008,170.98815 220.01887,172.78634   C 221.25763,174.58454 221.85702,176.66245 221.85702,179.02008   C 221.85702,181.37771 221.17771,183.5755 219.85903,185.65341   C 218.5004,187.73132 216.58233,189.32972 214.10482,190.48855   C 211.58735,191.60743 208.7502,192.20682 205.63333,192.20682   C 201.63735,192.20682 198.32068,191.60743 195.64337,190.44859   C 192.9261,189.28976 190.84819,187.57148 189.28976,185.21385   C 187.77128,182.89618 186.97209,180.25883 186.89217,177.34176   z  M 229.56927,191.44759   L 229.56927,147.49176   L 235.36345,147.49176   L 235.36345,186.25281   L 257.02168,186.25281   L 257.02168,191.44759   z "
     style="fill:#000000;fill-rule:evenodd;fill-opacity:1;stroke:none;" />
  <path
     id="path19"
     d="  M 150.88835,130.58875   L 192.44658,80.918674   L 192.44658,112.68675   L 205.75321,112.68675   L 205.75321,101.13835  "
     style="fill:none;stroke:#000000;stroke-width:6.713253px;stroke-linecap:butt;stroke-linejoin:miter;stroke-miterlimit:10;stroke-dasharray:none;stroke-opacity:1;" />
</svg>
