<?xml version="1.0" encoding="UTF-8" standalone="no"?>
<svg
   xmlns:dc="http://purl.org/dc/elements/1.1/"
   xmlns:cc="http://creativecommons.org/ns#"
   xmlns:rdf="http://www.w3.org/1999/02/22-rdf-syntax-ns#"
   xmlns:svg="http://www.w3.org/2000/svg"
   xmlns="http://www.w3.org/2000/svg"
   id="svg15"
   height="116.06mm"
   width="135.35001mm"
   version="1.0">
  <metadata
     id="metadata19">
    <rdf:RDF>
      <cc:Work
         rdf:about="">
        <dc:format>image/svg+xml</dc:format>
        <dc:type
           rdf:resource="http://purl.org/dc/dcmitype/StillImage" />
      </cc:Work>
    </rdf:RDF>
  </metadata>
  <defs
     id="defs3">
    <pattern
       y="0"
       x="0"
       height="6"
       width="6"
       patternUnits="userSpaceOnUse"
       id="EMFhbasepattern" />
  </defs>
  <path
     id="path5"
     d="  M 337.26104,384.25381   C 457.14056,384.25381 457.14056,187.6514 337.26104,187.6514   C 337.26104,54.345381 174.2249,54.345381 174.2249,187.6514   C 54.345381,187.6514 54.345381,384.25381 174.2249,384.25381   z "
     style="fill:#ffff80;fill-rule:evenodd;fill-opacity:1;stroke:none;" />
  <path
     id="path7"
     d="  M 337.26104,384.25381   C 457.14056,384.25381 457.14056,187.6514 337.26104,187.6514   C 337.26104,54.345381 174.2249,54.345381 174.2249,187.6514   C 54.345381,187.6514 54.345381,384.25381 174.2249,384.25381  "
     style="fill:none;stroke:#000000;stroke-width:9.5903616px;stroke-linecap:butt;stroke-linejoin:miter;stroke-miterlimit:10;stroke-dasharray:none;stroke-opacity:1;" />
  <path
     id="path9"
     d="  M 179.02008,154.08514   C 207.79116,62.976706 303.69477,62.976706 332.46586,154.08514   z "
     style="fill:#000000;fill-rule:evenodd;fill-opacity:1;stroke:none;" />
  <path
     id="path11"
     d="  M 179.02008,154.08514   C 207.79116,62.976706 303.69477,62.976706 332.46586,154.08514  "
     style="fill:none;stroke:#000000;stroke-width:0.95903611px;stroke-linecap:butt;stroke-linejoin:miter;stroke-miterlimit:10;stroke-dasharray:none;stroke-opacity:1;" />
  <path
     id="path13"
     d="  M 332.94538,337.34096   C 327.63072,338.41987 319.79859,339.73855 309.48895,341.33694   C 304.45401,341.85642 296.94156,342.3759 286.87168,342.89538   C 286.07249,345.29297 285.79277,348.44979 286.07249,352.40582   C 284.47409,352.40582 281.55702,352.96526 277.32128,354.00421   C 277.24136,354.00421 277.24136,356.68152 277.32128,361.95622   L 259.05963,361.55662   C 258.54016,363.39477 257.34136,369.14899 255.50321,378.77931   C 254.70401,374.82329 253.78494,369.42871 252.70602,362.55562   C 252.18654,362.03614 245.83293,361.75642 233.64518,361.75642   C 233.64518,361.23694 233.80502,360.11807 234.04478,358.39979   C 234.32449,356.68152 234.44437,355.44277 234.44437,354.64357   C 231.52731,353.04518 228.37048,352.24598 224.93393,352.24598   C 224.93393,351.20702 224.77409,349.72851 224.53433,347.89036   C 224.25462,346.0522 224.13474,344.57369 224.13474,343.53473   C 209.30964,341.41686 193.96506,339.29899 178.06104,337.18112   L 178.06104,327.27108   C 177.82128,322.51586 179.53956,317.8006 183.25582,313.00542   C 191.96707,303.77469 204.55441,289.66887 220.97791,270.60803   C 224.41445,266.41225 226.53233,261.89678 227.33152,257.14156   C 231.00783,237.08172 233.80502,222.69618 235.64317,213.98494   C 239.35943,197.08192 242.91586,183.33574 246.39237,172.74638   C 249.54919,163.51566 252.58614,158.88032 255.50321,158.88032   C 257.1016,158.88032 259.05963,161.43775 261.45723,166.43273   C 266.21245,176.22289 270.16847,189.05 273.36526,204.91405   C 275.48313,217.06184 277.601,229.36947 279.71887,241.79698   C 280.75783,246.79196 282.75582,254.06465 285.67289,263.61506   C 286.99156,266.77188 289.38915,270.60803 292.8257,275.08353   C 299.69879,282.51606 306.57188,289.90863 313.48494,297.3012   C 326.43192,311.84658 332.90542,320.83755 332.90542,324.27409   L 332.90542,337.34096   z "
     style="fill:#000000;fill-rule:evenodd;fill-opacity:1;stroke:none;" />
</svg>
