<?xml version="1.0" encoding="UTF-8" standalone="no"?>
<svg
   xmlns:dc="http://purl.org/dc/elements/1.1/"
   xmlns:cc="http://creativecommons.org/ns#"
   xmlns:rdf="http://www.w3.org/1999/02/22-rdf-syntax-ns#"
   xmlns:svg="http://www.w3.org/2000/svg"
   xmlns="http://www.w3.org/2000/svg"
   id="svg15"
   height="107.94mm"
   width="95.75mm"
   version="1.0">
  <metadata
     id="metadata19">
    <rdf:RDF>
      <cc:Work
         rdf:about="">
        <dc:format>image/svg+xml</dc:format>
        <dc:type
           rdf:resource="http://purl.org/dc/dcmitype/StillImage" />
      </cc:Work>
    </rdf:RDF>
  </metadata>
  <defs
     id="defs3">
    <pattern
       y="0"
       x="0"
       height="6"
       width="6"
       patternUnits="userSpaceOnUse"
       id="EMFhbasepattern" />
  </defs>
  <path
     id="path5"
     d="  M 54.345381,353.56465   L 54.345381,171.34779   L 180.93815,54.345381   L 307.53092,171.34779   L 307.53092,353.56465   z "
     style="fill:#ff8080;fill-rule:evenodd;fill-opacity:1;stroke:none;" />
  <path
     id="path7"
     d="  M 54.345381,353.56465   L 54.345381,171.34779   L 180.93815,54.345381   L 307.53092,171.34779   L 307.53092,353.56465  "
     style="fill:none;stroke:#000000;stroke-width:9.5903616px;stroke-linecap:butt;stroke-linejoin:miter;stroke-miterlimit:10;stroke-dasharray:none;stroke-opacity:1;" />
  <path
     id="path9"
     d="  M 107.09237,123.39598   L 107.09237,123.39598   L 180.93815,56.263453   L 254.78393,123.39598   z "
     style="fill:#000000;fill-rule:evenodd;fill-opacity:1;stroke:none;" />
  <path
     id="path11"
     d="  M 107.09237,123.39598   L 107.09237,123.39598   L 180.93815,56.263453   L 254.78393,123.39598   z "
     style="fill:none;stroke:#000000;stroke-width:0.95903611px;stroke-linecap:butt;stroke-linejoin:miter;stroke-miterlimit:10;stroke-dasharray:none;stroke-opacity:1;" />
  <path
     id="path13"
     d="  M 258.14056,306.6518   C 252.8259,307.73072 244.99377,309.04939 234.68413,310.64779   C 229.64919,311.16726 222.13674,311.68674 212.06686,312.20622   C 211.26767,314.60381 210.98795,317.76064 211.26767,321.71666   C 209.66927,321.71666 206.75221,322.2761 202.51646,323.31506   C 202.43654,323.31506 202.43654,325.99236 202.51646,331.26706   L 184.25482,330.86747   C 183.73534,332.70562 182.53654,338.45983 180.69839,348.09016   C 179.89919,344.13413 178.98012,338.73955 177.9012,331.86646   C 177.38172,331.34698 171.02811,331.06726 158.84036,331.06726   C 158.84036,330.54779 159.0002,329.42891 159.23996,327.71064   C 159.51968,325.99236 159.63956,324.75361 159.63956,323.95441   C 156.72249,322.35602 153.56566,321.55682 150.12911,321.55682   C 150.12911,320.51787 149.96927,319.03935 149.72952,317.2012   C 149.4498,315.36305 149.32992,313.88453 149.32992,312.84558   C 134.50482,310.72771 119.16024,308.60983 103.25622,306.49196   L 103.25622,296.58192   C 103.01646,291.8267 104.73474,287.11144 108.451,282.31626   C 117.16225,273.08554 129.7496,258.97972 146.17309,239.91887   C 149.60964,235.72309 151.72751,231.20763 152.5267,226.45241   C 156.20301,206.39257 159.0002,192.00703 160.83835,183.29578   C 164.55462,166.39277 168.11104,152.64658 171.58755,142.05723   C 174.74437,132.8265 177.78132,128.19116 180.69839,128.19116   C 182.29678,128.19116 184.25482,130.74859 186.65241,135.74357   C 191.40763,145.53373 195.36365,158.36084 198.56044,174.2249   C 200.67831,186.37269 202.79618,198.68032 204.91405,211.10783   C 205.95301,216.10281 207.951,223.3755 210.86807,232.9259   C 212.18674,236.08273 214.58433,239.91887 218.02088,244.39437   C 224.89397,251.8269 231.76706,259.21947 238.68012,266.61204   C 251.6271,281.15743 258.1006,290.14839 258.1006,293.58494   L 258.1006,306.6518   z "
     style="fill:#000000;fill-rule:evenodd;fill-opacity:1;stroke:none;" />
</svg>
