<?xml version="1.0" encoding="UTF-8" standalone="no"?>
<svg
   xmlns:dc="http://purl.org/dc/elements/1.1/"
   xmlns:cc="http://creativecommons.org/ns#"
   xmlns:rdf="http://www.w3.org/1999/02/22-rdf-syntax-ns#"
   xmlns:svg="http://www.w3.org/2000/svg"
   xmlns="http://www.w3.org/2000/svg"
   id="svg19"
   height="89.669998mm"
   width="120.11mm"
   version="1.0">
  <metadata
     id="metadata23">
    <rdf:RDF>
      <cc:Work
         rdf:about="">
        <dc:format>image/svg+xml</dc:format>
        <dc:type
           rdf:resource="http://purl.org/dc/dcmitype/StillImage" />
      </cc:Work>
    </rdf:RDF>
  </metadata>
  <defs
     id="defs3">
    <pattern
       y="0"
       x="0"
       height="6"
       width="6"
       patternUnits="userSpaceOnUse"
       id="EMFhbasepattern" />
  </defs>
  <path
     id="path5"
     d="  M 54.345381,54.345381   L 54.345381,284.51405   L 399.59839,284.51405   L 399.59839,54.345381   L 54.345381,54.345381   z "
     style="fill:#80e0ff;fill-rule:evenodd;fill-opacity:1;stroke:none;" />
  <path
     id="path7"
     d="  M 54.345381,54.345381   L 399.59839,54.345381   L 399.59839,284.51405   L 54.345381,284.51405   z "
     style="fill:none;stroke:#000000;stroke-width:9.5903616px;stroke-linecap:butt;stroke-linejoin:miter;stroke-miterlimit:10;stroke-dasharray:none;stroke-opacity:1;" />
  <path
     id="path9"
     d="  M 190.04899,117.76164   L 190.04899,118.84056   C 190.04899,119.5998 192.04699,121.23815 192.7263,121.23815   L 193.28574,121.23815   C 195.60341,121.23815 195.92309,118.92048 196.84217,117.8016   C 197.52148,117.00241 199.91907,115.1243 200.91807,114.40502   L 196.24277,110.48895   C 195.96305,111.44799 194.16486,113.44598 193.48554,114.44498   C 192.7263,115.64377 190.04899,116.32309 190.04899,117.76164   z "
     style="fill:#ffffff;fill-rule:evenodd;fill-opacity:1;stroke:none;" />
  <path
     id="path11"
     d="  M 274.12449,117.48193   C 277.4012,118.24116 280.55803,124.15522 280.55803,128.27108   L 280.55803,130.38895   C 280.55803,132.98634 278.67992,137.7016 276.52208,137.7016   L 275.72289,137.7016   C 272.56606,137.7016 269.80883,129.82952 269.80883,126.11325   L 269.80883,125.03434   C 269.80883,123.11626 270.52811,121.71767 270.88775,120.15924   L 271.40722,120.15924   C 271.60702,120.79859 273.5251,123.6757 274.12449,123.6757   C 275.36325,123.6757 276.00261,123.03634 276.00261,121.79759   L 276.00261,120.71867   C 276.00261,120.27911 274.44417,118.08132 274.12449,117.48193   z  M 264.41425,103.1763   C 263.29538,102.45703 262.65602,100.21928 260.89779,100.21928   C 260.13855,100.21928 259.29939,101.33815 259.29939,102.37711   C 259.29939,102.73675 260.61807,104.53494 260.89779,105.09438   C 260.05863,105.13434 259.93875,105.33414 259.01967,105.33414   L 258.22048,105.33414   C 254.42429,105.33414 246.79196,102.29719 246.07269,99.699798   L 250.66807,99.699798   C 251.98674,99.699798 253.10562,98.940561 253.10562,97.541966   C 253.10562,94.984537 249.50923,95.384135 246.91184,95.384135   C 249.66907,92.986545 255.46325,93.865661 258.5002,95.384135   C 261.9767,97.142368 265.49317,98.540962 264.41425,103.1763   z  M 215.90301,105.33414   C 215.90301,98.740762 228.01084,90.149396 231.52731,95.384135   C 228.96988,95.384135 226.13273,94.904617 226.13273,97.541966   C 226.13273,99.460039 227.21164,99.699798 229.12972,99.699798   L 231.00783,99.699798   C 229.92891,104.33514 224.01486,109.6498 218.06084,109.6498   C 217.1018,109.6498 215.90301,108.21124 215.90301,106.97249   z  M 212.66626,107.49197   C 212.66626,110.08936 215.26365,111.96747 217.78112,112.40703   C 220.61827,112.84658 223.05582,111.72771 225.17369,110.56887   C 228.13072,108.93052 233.64518,103.61586 233.96486,99.699798   L 242.03674,99.699798   C 242.51626,99.699798 244.39437,102.41707 245.07369,103.13634   C 246.35241,104.3751 246.99176,104.85462 248.71004,105.69377   C 250.26847,106.53293 256.38233,108.6508 258.73996,108.33112   L 262.81586,107.8516   L 269.24939,117.20221   C 267.89076,119.24016 266.8518,121.59779 266.8518,125.03434   L 266.8518,127.99136   C 266.8518,132.06727 271.00763,140.37891 275.20341,140.37891   L 276.52208,140.37891   C 280.75783,140.37891 283.2753,134.8245 283.2753,130.38895   L 283.2753,128.51084   C 283.2753,125.43393 281.59698,120.99839 280.35823,119.04036   C 278.04056,115.36405 277.28132,115.04438 272.48614,115.04438   C 272.24638,115.04438 266.61204,106.77269 266.01265,105.89357   C 266.73192,105.09438 267.93072,103.81566 267.93072,102.37711   C 267.93072,98.421083 265.21345,95.983533 262.73594,94.345179   C 260.97771,93.186344 255.62309,91.068473 252.8259,91.068473   L 250.38835,91.068473   C 247.1516,91.068473 243.15562,92.906625 242.59618,95.384135   L 234.24457,95.384135   C 233.68514,92.986545 231.72711,90.788754 228.85,90.788754   L 227.21164,90.788754   C 221.85702,90.788754 212.66626,99.979517 212.66626,105.33414   z "
     style="fill:#000000;fill-rule:evenodd;fill-opacity:1;stroke:none;" />
  <path
     id="path13"
     d="  M 287.03152,149.8494   L 287.59096,158.44076   C 287.7508,160.71847 289.14939,160.43875 290.54799,161.11807   C 291.74678,160.47871 293.50502,159.91927 293.50502,158.16104   C 293.50502,156.88233 293.18534,156.48273 292.6259,155.72349   L 293.50502,149.4498   z "
     style="fill:#ffffff;fill-rule:evenodd;fill-opacity:1;stroke:none;" />
  <path
     id="path15"
     d="  M 253.90482,192.64638   C 253.90482,184.53454 258.85984,176.90221 263.69498,173.6255   C 270.76787,168.87028 275.68293,168.39076 287.03152,168.39076   C 288.1504,168.39076 294.18433,170.98815 295.50301,171.54759   C 297.54096,172.4267 300.81767,174.90421 302.09638,176.54257   C 303.81465,178.78032 305.65281,180.29879 306.97148,183.21586   C 308.09036,185.65341 309.12931,189.12992 309.12931,192.64638   L 309.12931,196.16285   C 309.12931,203.79518 305.81265,207.79116 302.45602,212.10682   C 298.85963,216.70221 293.06546,217.62128 287.87068,220.13875   C 286.79176,218.54036 284.59397,217.98092 281.91666,217.98092   L 280.83775,217.98092   C 278.44016,217.98092 277.2014,219.41947 275.72289,220.41847   C 262.53614,219.2996 253.90482,208.1508 253.90482,193.44558   z  M 293.50502,149.4498   L 292.6259,155.72349   C 293.2253,156.48273 293.50502,156.88233 293.50502,158.16104   C 293.50502,159.91927 291.74678,160.47871 290.54799,161.11807   C 289.14939,160.43875 287.7508,160.71847 287.59096,158.44076   L 287.03152,149.8494   z  M 252.66606,169.18996   C 251.6271,170.58855 249.90883,172.38674 248.75,174.0251   C 247.91084,175.14397 246.35241,178.18092 245.71305,179.61948   C 244.11466,183.41566 243.11566,188.93012 243.11566,194.24478   C 243.11566,205.79317 246.87188,212.8261 252.34638,218.97992   C 255.06365,222.01686 258.26044,224.45441 261.9767,226.33253   C 264.33433,227.49136 271.56706,230.56827 274.64397,230.64819   C 276.602,234.28453 281.31727,236.52229 285.95261,234.16466   C 287.91064,233.16566 289.62891,230.44839 290.58795,230.12871   C 292.98554,229.36947 294.62389,229.00984 296.9016,228.09076   C 306.05241,224.41445 310.36807,220.33855 315.28313,212.54638   C 319.47891,205.83313 320.55783,193.84518 318.47992,184.13494   C 317.36104,178.98012 315.40301,176.34277 312.96546,172.66646   C 311.7267,170.74839 306.37208,165.19397 304.29417,164.63454   L 303.73473,149.01024   C 300.81767,147.57168 295.38313,145.45381 292.2263,144.3749   C 291.90662,144.25502 279.35923,144.85442 277.08152,144.93434   C 272.36626,145.13413 266.05261,145.13413 262.49618,146.53273   C 259.25943,147.81144 254.50421,150.08915 251.54719,151.68755   z "
     style="fill:#000000;fill-rule:evenodd;fill-opacity:1;stroke:none;" />
  <path
     id="path17"
     d="  M 190.04899,117.76164   C 190.04899,116.32309 192.7263,115.64377 193.48554,114.44498   C 194.16486,113.44598 195.96305,111.44799 196.24277,110.48895   L 200.91807,114.40502   C 199.91907,115.1243 197.52148,117.00241 196.84217,117.8016   C 195.92309,118.92048 195.60341,121.23815 193.28574,121.23815   L 192.7263,121.23815   C 192.04699,121.23815 190.04899,119.5998 190.04899,118.84056   z  M 150.72851,151.68755   C 150.72851,138.54076 163.51566,125.55381 176.58253,125.55381   L 178.98012,125.55381   C 188.49056,125.55381 193.24578,132.06727 198.32068,136.66265   C 201.03795,139.14016 203.55542,141.37791 206.15281,143.93534   C 208.07088,145.89337 211.94698,149.76948 214.0249,151.16807   C 215.54337,148.93032 226.41245,138.78052 226.41245,137.42189   C 226.41245,136.62269 221.33755,125.47389 220.69819,124.83454   C 217.54136,121.71767 214.34458,119.0004 211.26767,115.92349   C 208.39056,113.08634 204.83413,109.60984 201.67731,107.17229   C 199.71927,105.69377 191.80723,103.33614 188.97008,101.85763   L 176.42269,115.16426   C 165.47369,115.04438 157.64156,120.11928 152.12711,125.63373   C 147.29197,130.46887 140.45883,139.33996 140.45883,148.73052   L 140.45883,151.96727   C 140.45883,156.40281 141.93735,161.55763 143.21606,164.87429   C 143.85542,166.67249 144.73454,168.47068 145.69357,170.18895   C 147.21205,172.98614 147.33193,172.10703 147.13213,175.54357   C 146.89237,179.21988 147.97128,177.3018 145.73353,180.93815   C 144.85442,182.41666 143.7755,184.45462 143.09618,186.09297   C 141.85743,188.97008 140.21907,194.68433 140.21907,198.56044   L 140.21907,202.0769   C 140.21907,217.5014 156.72249,234.84397 170.90823,236.04277   L 169.50964,240.03875   L 180.37871,237.16164   L 180.33875,241.95682   L 189.68935,235.60321   L 190.96807,239.19959   L 197.68132,230.96787   L 200.07891,233.76506   L 200.27871,233.60522   C 200.39859,232.44638 201.99699,228.96988 202.4765,227.73112   C 203.2757,225.61325 202.71626,226.65221 204.23474,225.41345   C 204.79417,224.93393 205.39357,223.7751 205.39357,222.81606   C 205.39357,220.53835 202.35662,217.46144 200.11887,217.02188   C 197.84116,216.58233 194.88413,219.53935 193.16586,220.57831   C 189.12992,223.01586 183.1759,225.77309 176.86225,225.77309   L 176.02309,225.77309   C 163.59558,225.77309 150.96827,213.30562 150.96827,200.71827   L 150.96827,199.63935   C 150.96827,193.60542 153.7255,188.53052 155.84337,184.5745   C 166.95221,184.5745 168.03112,167.03213 155.56365,167.03213   C 153.24598,163.63554 150.72851,158.201 150.72851,152.48674   L 150.72851,151.68755   z "
     style="fill:#000000;fill-rule:evenodd;fill-opacity:1;stroke:none;" />
</svg>
