<?xml version="1.0" encoding="UTF-8" standalone="no"?>
<svg
   xmlns:dc="http://purl.org/dc/elements/1.1/"
   xmlns:cc="http://creativecommons.org/ns#"
   xmlns:rdf="http://www.w3.org/1999/02/22-rdf-syntax-ns#"
   xmlns:svg="http://www.w3.org/2000/svg"
   xmlns="http://www.w3.org/2000/svg"
   id="svg11"
   height="101.85mm"
   width="101.85mm"
   version="1.0">
  <metadata
     id="metadata15">
    <rdf:RDF>
      <cc:Work
         rdf:about="">
        <dc:format>image/svg+xml</dc:format>
        <dc:type
           rdf:resource="http://purl.org/dc/dcmitype/StillImage" />
      </cc:Work>
    </rdf:RDF>
  </metadata>
  <defs
     id="defs3">
    <pattern
       y="0"
       x="0"
       height="6"
       width="6"
       patternUnits="userSpaceOnUse"
       id="EMFhbasepattern" />
  </defs>
  <path
     id="path5"
     d="  M 330.54779,192.44658   C 330.54779,268.72992 268.72992,330.54779 192.44658,330.54779   C 116.20321,330.54779 54.345381,268.72992 54.345381,192.44658   C 54.345381,116.20321 116.20321,54.345381 192.44658,54.345381   C 268.72992,54.345381 330.54779,116.20321 330.54779,192.44658   z "
     style="fill:#80e0ff;fill-rule:evenodd;fill-opacity:1;stroke:none;" />
  <path
     id="path7"
     d="  M 330.54779,192.44658   C 330.54779,268.72992 268.72992,330.54779 192.44658,330.54779   C 116.20321,330.54779 54.345381,268.72992 54.345381,192.44658   C 54.345381,116.20321 116.20321,54.345381 192.44658,54.345381   C 268.72992,54.345381 330.54779,116.20321 330.54779,192.44658  "
     style="fill:none;stroke:#000000;stroke-width:9.5903616px;stroke-linecap:butt;stroke-linejoin:miter;stroke-miterlimit:10;stroke-dasharray:none;stroke-opacity:1;" />
  <path
     id="path9"
     d="  M 180.29879,194.00502   L 193.00602,197.2018   C 190.32871,207.67128 185.53353,215.62329 178.62048,221.09779   C 171.70743,226.61225 163.23594,229.32951 153.20602,229.32951   C 142.85642,229.32951 134.4249,227.2516 127.9514,223.01586   C 121.43795,218.78012 116.52289,212.70622 113.1263,204.67429   C 109.72972,196.68233 108.0514,188.09096 108.0514,178.94016   C 108.0514,168.91024 109.96948,160.19899 113.76566,152.7265   C 117.60181,145.29397 123.03634,139.61968 130.10924,135.74357   C 137.18213,131.90743 144.93434,129.9494 153.40582,129.9494   C 163.03614,129.9494 171.10803,132.38695 177.66144,137.30201   C 184.21486,142.17711 188.81024,149.09016 191.36767,157.96124   L 178.86024,160.87831   C 176.62249,153.88534 173.38574,148.81044 169.15,145.61365   C 164.91425,142.41687 159.55964,140.81847 153.16606,140.81847   C 145.77349,140.81847 139.57972,142.61666 134.6247,146.13313   C 129.66968,149.68956 126.19317,154.44478 124.15522,160.39879   C 122.15723,166.35281 121.15823,172.50662 121.15823,178.86024   C 121.15823,187.05201 122.35703,194.16486 124.71466,200.27871   C 127.11225,206.35261 130.82851,210.90803 135.82349,213.94498   C 140.85843,216.94196 146.29297,218.46044 152.16707,218.46044   C 159.27992,218.46044 165.31385,216.42249 170.26887,212.30662   C 175.18393,208.19076 178.54056,202.0769 180.29879,194.00502   z  M 277.24136,194.00502   L 289.98855,197.2018   C 287.31124,207.67128 282.51606,215.62329 275.56305,221.09779   C 268.65,226.61225 260.17851,229.32951 250.18855,229.32951   C 239.79899,229.32951 231.40743,227.2516 224.89397,223.01586   C 218.42048,218.78012 213.46546,212.70622 210.06887,204.67429   C 206.71225,196.68233 204.99397,188.09096 204.99397,178.94016   C 204.99397,168.91024 206.91205,160.19899 210.74819,152.7265   C 214.58433,145.29397 220.01887,139.61968 227.0518,135.74357   C 234.1247,131.90743 241.8769,129.9494 250.38835,129.9494   C 259.97871,129.9494 268.09056,132.38695 274.64397,137.30201   C 281.19739,142.17711 285.75281,149.09016 288.3502,157.96124   L 275.80281,160.87831   C 273.56506,153.88534 270.32831,148.81044 266.09257,145.61365   C 261.85682,142.41687 256.54216,140.81847 250.10863,140.81847   C 242.71606,140.81847 236.56225,142.61666 231.60723,146.13313   C 226.61225,149.68956 223.13574,154.44478 221.13775,160.39879   C 219.13976,166.35281 218.1008,172.50662 218.1008,178.86024   C 218.1008,187.05201 219.2996,194.16486 221.69719,200.27871   C 224.09478,206.35261 227.77108,210.90803 232.80602,213.94498   C 237.84096,216.94196 243.2755,218.46044 249.10963,218.46044   C 256.26245,218.46044 262.29638,216.42249 267.21144,212.30662   C 272.16646,208.19076 275.52309,202.0769 277.24136,194.00502   z "
     style="fill:#000000;fill-rule:evenodd;fill-opacity:1;stroke:none;" />
</svg>
