<?xml version="1.0" encoding="UTF-8" standalone="no"?>
<svg
   xmlns:dc="http://purl.org/dc/elements/1.1/"
   xmlns:cc="http://creativecommons.org/ns#"
   xmlns:rdf="http://www.w3.org/1999/02/22-rdf-syntax-ns#"
   xmlns:svg="http://www.w3.org/2000/svg"
   xmlns="http://www.w3.org/2000/svg"
   id="svg11"
   height="130.27mm"
   width="130.27mm"
   version="1.0">
  <metadata
     id="metadata15">
    <rdf:RDF>
      <cc:Work
         rdf:about="">
        <dc:format>image/svg+xml</dc:format>
        <dc:type
           rdf:resource="http://purl.org/dc/dcmitype/StillImage" />
      </cc:Work>
    </rdf:RDF>
  </metadata>
  <defs
     id="defs3">
    <pattern
       y="0"
       x="0"
       height="6"
       width="6"
       patternUnits="userSpaceOnUse"
       id="EMFhbasepattern" />
  </defs>
  <path
     id="path5"
     d="  M 164.63454,327.67068   C 164.63454,437.95983 327.67068,437.95983 327.67068,327.67068   C 437.95983,327.67068 437.95983,164.63454 327.67068,164.63454   C 327.67068,54.345381 164.63454,54.345381 164.63454,164.63454   C 54.345381,164.63454 54.345381,327.67068 164.63454,327.67068   z "
     style="fill:#ffff80;fill-rule:evenodd;fill-opacity:1;stroke:none;" />
  <path
     id="path7"
     d="  M 164.63454,327.67068   C 164.63454,437.95983 327.67068,437.95983 327.67068,327.67068   C 437.95983,327.67068 437.95983,164.63454 327.67068,164.63454   C 327.67068,54.345381 164.63454,54.345381 164.63454,164.63454   C 54.345381,164.63454 54.345381,327.67068 164.63454,327.67068  "
     style="fill:none;stroke:#000000;stroke-width:9.5903616px;stroke-linecap:butt;stroke-linejoin:miter;stroke-miterlimit:10;stroke-dasharray:none;stroke-opacity:1;" />
  <path
     id="path9"
     d="  M 234.00482,247.71104   L 246.71204,250.90783   C 244.03474,261.37731 239.23955,269.32931 232.3265,274.80381   C 225.41345,280.31827 216.94196,283.03554 206.91205,283.03554   C 196.56245,283.03554 188.13092,280.95763 181.65743,276.72188   C 175.14397,272.48614 170.22891,266.41225 166.83233,258.38032   C 163.43574,250.38835 161.75743,241.79698 161.75743,232.64618   C 161.75743,222.61626 163.6755,213.90502 167.47168,206.43253   C 171.30783,199 176.74237,193.3257 183.81526,189.4496   C 190.88815,185.61345 198.64036,183.65542 207.11184,183.65542   C 216.74217,183.65542 224.81405,186.09297 231.36747,191.00803   C 237.92088,195.88313 242.51626,202.79618 245.07369,211.66727   L 232.56626,214.58433   C 230.32851,207.59136 227.09176,202.51646 222.85602,199.31968   C 218.62028,196.12289 213.26566,194.5245 206.87209,194.5245   C 199.47952,194.5245 193.28574,196.32269 188.33072,199.83915   C 183.3757,203.39558 179.89919,208.1508 177.86124,214.10482   C 175.86325,220.05883 174.86425,226.21265 174.86425,232.56626   C 174.86425,240.75803 176.06305,247.87088 178.42068,253.98474   C 180.81827,260.05863 184.53454,264.61405 189.52952,267.651   C 194.56446,270.64799 199.99899,272.16646 205.87309,272.16646   C 212.98594,272.16646 219.01988,270.12851 223.9749,266.01265   C 228.88996,261.89678 232.24658,255.78293 234.00482,247.71104   z  M 330.94738,247.71104   L 343.69457,250.90783   C 341.01726,261.37731 336.22208,269.32931 329.26907,274.80381   C 322.35602,280.31827 313.88453,283.03554 303.89457,283.03554   C 293.50502,283.03554 285.11345,280.95763 278.6,276.72188   C 272.1265,272.48614 267.17148,266.41225 263.7749,258.38032   C 260.41827,250.38835 258.7,241.79698 258.7,232.64618   C 258.7,222.61626 260.61807,213.90502 264.45421,206.43253   C 268.29036,199 273.7249,193.3257 280.75783,189.4496   C 287.83072,185.61345 295.58293,183.65542 304.09437,183.65542   C 313.68473,183.65542 321.79658,186.09297 328.35,191.00803   C 334.90341,195.88313 339.45883,202.79618 342.05622,211.66727   L 329.50883,214.58433   C 327.27108,207.59136 324.03433,202.51646 319.79859,199.31968   C 315.56285,196.12289 310.24819,194.5245 303.81465,194.5245   C 296.42208,194.5245 290.26827,196.32269 285.31325,199.83915   C 280.31827,203.39558 276.84176,208.1508 274.84377,214.10482   C 272.84578,220.05883 271.80682,226.21265 271.80682,232.56626   C 271.80682,240.75803 273.00562,247.87088 275.40321,253.98474   C 277.8008,260.05863 281.4771,264.61405 286.51204,267.651   C 291.54698,270.64799 296.98152,272.16646 302.81566,272.16646   C 309.96847,272.16646 316.00241,270.12851 320.91747,266.01265   C 325.87249,261.89678 329.22911,255.78293 330.94738,247.71104   z "
     style="fill:#000000;fill-rule:evenodd;fill-opacity:1;stroke:none;" />
</svg>
