<?xml version="1.0" encoding="UTF-8" standalone="no"?>
<svg
   xmlns:dc="http://purl.org/dc/elements/1.1/"
   xmlns:cc="http://creativecommons.org/ns#"
   xmlns:rdf="http://www.w3.org/1999/02/22-rdf-syntax-ns#"
   xmlns:svg="http://www.w3.org/2000/svg"
   xmlns="http://www.w3.org/2000/svg"
   id="svg17"
   height="107.94mm"
   width="95.75mm"
   version="1.0">
  <metadata
     id="metadata21">
    <rdf:RDF>
      <cc:Work
         rdf:about="">
        <dc:format>image/svg+xml</dc:format>
        <dc:type
           rdf:resource="http://purl.org/dc/dcmitype/StillImage" />
      </cc:Work>
    </rdf:RDF>
  </metadata>
  <defs
     id="defs3">
    <pattern
       y="0"
       x="0"
       height="6"
       width="6"
       patternUnits="userSpaceOnUse"
       id="EMFhbasepattern" />
  </defs>
  <path
     id="path5"
     d="  M 54.345381,353.56465   L 54.345381,171.34779   L 180.93815,54.345381   L 307.53092,171.34779   L 307.53092,353.56465   z "
     style="fill:#ff8080;fill-rule:evenodd;fill-opacity:1;stroke:none;" />
  <path
     id="path7"
     d="  M 54.345381,353.56465   L 54.345381,171.34779   L 180.93815,54.345381   L 307.53092,171.34779   L 307.53092,353.56465  "
     style="fill:none;stroke:#000000;stroke-width:9.5903616px;stroke-linecap:butt;stroke-linejoin:miter;stroke-miterlimit:10;stroke-dasharray:none;stroke-opacity:1;" />
  <path
     id="path9"
     d="  M 180.93815,128.19116   L 180.93815,128.19116   L 195.32369,152.16707   L 195.32369,291.22731   L 209.70923,305.61285   L 209.70923,334.38393   L 180.93815,305.61285   L 152.16707,334.38393   L 152.16707,305.61285   L 166.55261,291.22731   L 166.55261,152.16707   L 180.93815,128.19116   z "
     style="fill:#ffff80;fill-rule:evenodd;fill-opacity:1;stroke:none;" />
  <path
     id="path11"
     d="  M 180.93815,128.19116   L 180.93815,128.19116   L 195.32369,152.16707   L 195.32369,291.22731   L 209.70923,305.61285   L 209.70923,334.38393   L 180.93815,305.61285   L 152.16707,334.38393   L 152.16707,305.61285   L 166.55261,291.22731   L 166.55261,152.16707   L 180.93815,128.19116  "
     style="fill:none;stroke:#000000;stroke-width:9.5903616px;stroke-linecap:butt;stroke-linejoin:miter;stroke-miterlimit:10;stroke-dasharray:none;stroke-opacity:1;" />
  <path
     id="path13"
     d="  M 137.7016,239.35943   L 145.89337,241.39739   C 144.1751,248.1506 141.09819,253.26546 136.62269,256.78192   C 132.18715,260.29839 126.75261,262.05662 120.31907,262.05662   C 113.64578,262.05662 108.2512,260.69799 104.05542,258.02068   C 99.899597,255.30341 96.70281,251.34739 94.544979,246.23253   C 92.347187,241.07771 91.268272,235.56325 91.268272,229.64919   C 91.268272,223.21566 92.507027,217.62128 94.944577,212.8261   C 97.422087,208.03092 100.89859,204.39458 105.45401,201.91707   C 110.00944,199.3996 115.00442,198.16084 120.43895,198.16084   C 126.63273,198.16084 131.82751,199.75923 136.02329,202.91606   C 140.25903,206.03293 143.1761,210.46847 144.85442,216.18273   L 136.78253,218.06084   C 135.34397,213.58534 133.26606,210.30863 130.54879,208.23072   C 127.83152,206.19277 124.39498,205.15381 120.27911,205.15381   C 115.52389,205.15381 111.56787,206.31265 108.37108,208.59036   C 105.1743,210.86807 102.93654,213.90502 101.61787,217.74116   C 100.33916,221.57731 99.699798,225.53333 99.699798,229.60923   C 99.699798,234.88393 100.45903,239.43935 101.97751,243.39538   C 103.53594,247.31144 105.89357,250.22851 109.13032,252.14658   C 112.36707,254.10461 115.88353,255.06365 119.63976,255.06365   C 124.19518,255.06365 128.11124,253.74498 131.26807,251.10763   C 134.4249,248.47028 136.58273,244.55421 137.7016,239.35943   z "
     style="fill:#000000;fill-rule:evenodd;fill-opacity:1;stroke:none;" />
  <path
     id="path15"
     d="  M 224.77409,261.01767   L 224.77409,199.23976   L 237.08172,199.23976   L 251.70702,242.95582   C 253.0257,247.03172 254.0247,250.10863 254.66405,252.10662   C 255.34337,249.86887 256.46225,246.55221 257.94076,242.19658   L 272.7259,199.23976   L 283.71486,199.23976   L 283.71486,261.01767   L 275.84277,261.01767   L 275.84277,209.30964   L 257.9008,261.01767   L 250.50823,261.01767   L 232.64618,208.43052   L 232.64618,261.01767   z "
     style="fill:#000000;fill-rule:evenodd;fill-opacity:1;stroke:none;" />
</svg>
