<?xml version="1.0" encoding="UTF-8" standalone="no"?>
<svg
   xmlns:dc="http://purl.org/dc/elements/1.1/"
   xmlns:cc="http://creativecommons.org/ns#"
   xmlns:rdf="http://www.w3.org/1999/02/22-rdf-syntax-ns#"
   xmlns:svg="http://www.w3.org/2000/svg"
   xmlns="http://www.w3.org/2000/svg"
   id="svg17"
   height="116.06mm"
   width="135.35001mm"
   version="1.0">
  <metadata
     id="metadata21">
    <rdf:RDF>
      <cc:Work
         rdf:about="">
        <dc:format>image/svg+xml</dc:format>
        <dc:type
           rdf:resource="http://purl.org/dc/dcmitype/StillImage" />
      </cc:Work>
    </rdf:RDF>
  </metadata>
  <defs
     id="defs3">
    <pattern
       y="0"
       x="0"
       height="6"
       width="6"
       patternUnits="userSpaceOnUse"
       id="EMFhbasepattern" />
  </defs>
  <path
     id="path5"
     d="  M 337.26104,384.25381   C 457.14056,384.25381 457.14056,187.6514 337.26104,187.6514   C 337.26104,54.345381 174.2249,54.345381 174.2249,187.6514   C 54.345381,187.6514 54.345381,384.25381 174.2249,384.25381   z "
     style="fill:#ffff80;fill-rule:evenodd;fill-opacity:1;stroke:none;" />
  <path
     id="path7"
     d="  M 337.26104,384.25381   C 457.14056,384.25381 457.14056,187.6514 337.26104,187.6514   C 337.26104,54.345381 174.2249,54.345381 174.2249,187.6514   C 54.345381,187.6514 54.345381,384.25381 174.2249,384.25381  "
     style="fill:none;stroke:#000000;stroke-width:9.5903616px;stroke-linecap:butt;stroke-linejoin:miter;stroke-miterlimit:10;stroke-dasharray:none;stroke-opacity:1;" />
  <path
     id="path9"
     d="  M 255.74297,158.88032   L 255.74297,158.88032   L 270.12851,182.85622   L 270.12851,321.91646   L 284.51405,336.302   L 284.51405,365.07309   L 255.74297,336.302   L 226.97188,365.07309   L 226.97188,336.302   L 241.35743,321.91646   L 241.35743,182.85622   L 255.74297,158.88032   z "
     style="fill:#ffff80;fill-rule:evenodd;fill-opacity:1;stroke:none;" />
  <path
     id="path11"
     d="  M 255.74297,158.88032   L 255.74297,158.88032   L 270.12851,182.85622   L 270.12851,321.91646   L 284.51405,336.302   L 284.51405,365.07309   L 255.74297,336.302   L 226.97188,365.07309   L 226.97188,336.302   L 241.35743,321.91646   L 241.35743,182.85622   L 255.74297,158.88032  "
     style="fill:none;stroke:#000000;stroke-width:9.5903616px;stroke-linecap:butt;stroke-linejoin:miter;stroke-miterlimit:10;stroke-dasharray:none;stroke-opacity:1;" />
  <path
     id="path13"
     d="  M 212.50642,270.04859   L 220.69819,272.08654   C 218.97992,278.83976 215.90301,283.95461 211.42751,287.47108   C 206.99196,290.98755 201.55743,292.74578 195.12389,292.74578   C 188.4506,292.74578 183.05602,291.38714 178.86024,288.70984   C 174.70442,285.99257 171.50763,282.03654 169.3498,276.92168   C 167.15201,271.76686 166.07309,266.25241 166.07309,260.33835   C 166.07309,253.90482 167.31184,248.31044 169.7494,243.51526   C 172.22691,238.72008 175.70341,235.08373 180.25883,232.60622   C 184.81425,230.08875 189.80923,228.85 195.24377,228.85   C 201.43755,228.85 206.63233,230.44839 210.82811,233.60522   C 215.06385,236.72208 217.98092,241.15763 219.65923,246.87188   L 211.58735,248.75   C 210.14879,244.27449 208.07088,240.99779 205.35361,238.91988   C 202.63634,236.88192 199.1998,235.84297 195.08393,235.84297   C 190.32871,235.84297 186.37269,237.0018 183.1759,239.27951   C 179.97911,241.55723 177.74136,244.59417 176.42269,248.43032   C 175.14397,252.26646 174.50462,256.22249 174.50462,260.29839   C 174.50462,265.57309 175.26385,270.12851 176.78233,274.08453   C 178.34076,278.0006 180.69839,280.91767 183.93514,282.83574   C 187.17188,284.79377 190.68835,285.75281 194.44458,285.75281   C 199,285.75281 202.91606,284.43413 206.07289,281.79678   C 209.22972,279.15943 211.38755,275.24337 212.50642,270.04859   z "
     style="fill:#000000;fill-rule:evenodd;fill-opacity:1;stroke:none;" />
  <path
     id="path15"
     d="  M 299.57891,291.70682   L 299.57891,229.92891   L 311.88654,229.92891   L 326.51184,273.64498   C 327.83052,277.72088 328.82951,280.79779 329.46887,282.79578   C 330.14819,280.55803 331.26706,277.24136 332.74558,272.88574   L 347.53072,229.92891   L 358.51967,229.92891   L 358.51967,291.70682   L 350.64759,291.70682   L 350.64759,239.99879   L 332.70562,291.70682   L 325.31305,291.70682   L 307.451,239.11968   L 307.451,291.70682   z "
     style="fill:#000000;fill-rule:evenodd;fill-opacity:1;stroke:none;" />
</svg>
