<?xml version="1.0" encoding="UTF-8" standalone="no"?>
<svg
   xmlns:dc="http://purl.org/dc/elements/1.1/"
   xmlns:cc="http://creativecommons.org/ns#"
   xmlns:rdf="http://www.w3.org/1999/02/22-rdf-syntax-ns#"
   xmlns:svg="http://www.w3.org/2000/svg"
   xmlns="http://www.w3.org/2000/svg"
   id="svg27"
   height="116.73mm"
   width="116.73mm"
   version="1.0">
  <metadata
     id="metadata31">
    <rdf:RDF>
      <cc:Work
         rdf:about="">
        <dc:format>image/svg+xml</dc:format>
        <dc:type
           rdf:resource="http://purl.org/dc/dcmitype/StillImage" />
      </cc:Work>
    </rdf:RDF>
  </metadata>
  <defs
     id="defs3">
    <pattern
       y="0"
       x="0"
       height="6"
       width="6"
       patternUnits="userSpaceOnUse"
       id="EMFhbasepattern" />
  </defs>
  <path
     id="path5"
     d="  M 172.6265,43.156626   L 172.6265,100.69879   L 268.53012,100.69879   L 268.53012,43.156626   L 172.6265,43.156626   z "
     style="fill:#000000;fill-rule:evenodd;fill-opacity:1;stroke:none;" />
  <path
     id="path7"
     d="  M 220.57831,386.49156   L 220.57831,386.49156   L 386.49156,220.57831   L 220.57831,54.665059   L 54.665059,220.57831   L 220.57831,386.49156   z "
     style="fill:#ff8080;fill-rule:evenodd;fill-opacity:1;stroke:none;" />
  <path
     id="path9"
     d="  M 220.57831,386.49156   L 220.57831,386.49156   L 386.49156,220.57831   L 220.57831,54.665059   L 54.665059,220.57831   L 220.57831,386.49156  "
     style="fill:none;stroke:#000000;stroke-width:9.5903616px;stroke-linecap:butt;stroke-linejoin:miter;stroke-miterlimit:10;stroke-dasharray:none;stroke-opacity:1;" />
  <path
     id="path11"
     d="  M 247.9508,148.49076   L 274.24437,148.49076   L 274.24437,141.01827   L 242.99578,141.01827   C 243.75502,142.45683 246.35241,148.49076 247.9508,148.49076   z "
     style="fill:#000000;fill-rule:evenodd;fill-opacity:1;stroke:none;" />
  <path
     id="path13"
     d="  M 243.4753,156.40281   L 246.9518,156.40281   L 246.9518,157.88132   C 246.9518,164.99417 253.50522,170.30883 260.85783,170.30883   C 269.96867,170.30883 274.24437,162.55662 274.24437,152.9263   L 247.43132,152.9263   C 246.03273,152.9263 244.11466,155.44377 243.4753,156.40281   z "
     style="fill:#000000;fill-rule:evenodd;fill-opacity:1;stroke:none;" />
  <path
     id="path15"
     d="  M 169.07008,223.89498   L 169.07008,224.89397   C 169.07008,226.45241 173.4257,231.32751 175.98313,231.32751   L 177.5016,231.32751   C 181.01807,231.32751 224.69417,198.8002 232.56626,194.60441   L 232.80602,228.0508   L 268.76988,174.78433   L 232.56626,174.78433   C 230.68815,174.78433 203.4755,195.00401 199.3996,197.68132   C 194.00502,201.27771 187.93112,205.43353 182.81626,209.3496   C 178.101,212.98594 169.07008,216.26265 169.07008,223.89498   z "
     style="fill:#000000;fill-rule:evenodd;fill-opacity:1;stroke:none;" />
  <path
     id="path17"
     d="  M 152.16707,240.75803   L 152.16707,174.78433   L 144.25502,174.78433   C 142.29699,174.78433 139.77952,176.66245 139.77952,178.26084   L 139.77952,236.802   C 139.77952,238.9998 140.93835,239.87891 142.25703,240.75803   z "
     style="fill:#000000;fill-rule:evenodd;fill-opacity:1;stroke:none;" />
  <path
     id="path19"
     d="  M 242.99578,227.851   L 272.76586,227.851   L 272.76586,240.27851   L 233.04578,240.27851   L 233.04578,300.29819   L 252.90582,300.29819   C 255.50321,300.29819 256.54216,283.43514 257.06164,280.15843   C 258.18052,273.56506 259.81887,264.93373 260.33835,258.62008   L 261.13755,258.66004   L 267.29136,300.29819   L 288.1504,300.29819   L 288.1504,182.21686   C 288.1504,179.69939 283.23534,174.78433 280.19839,174.78433   L 279.71887,174.78433   C 277.52108,174.78433 263.25542,197.48152 261.05763,200.75823   C 258.58012,204.4745 243.51526,225.89297 242.99578,227.851   z "
     style="fill:#000000;fill-rule:evenodd;fill-opacity:1;stroke:none;" />
  <path
     id="path21"
     d="  M 152.16707,240.75803   L 152.16707,240.75803   L 152.16707,301.29718   L 218.66024,301.29718   L 218.66024,240.75803   z "
     style="fill:#000000;fill-rule:evenodd;fill-opacity:1;stroke:none;" />
  <path
     id="path23"
     d="  M 272.76586,227.851   L 242.99578,227.851   C 243.51526,225.89297 258.58012,204.4745 261.05763,200.75823   C 263.25542,197.48152 277.52108,174.78433 279.71887,174.78433   L 268.76988,174.78433   L 232.80602,228.0508   L 233.04578,240.27851   L 272.76586,240.27851   z "
     style="fill:#ffffff;fill-rule:evenodd;fill-opacity:1;stroke:none;" />
  <path
     id="path25"
     d="  M 247.43132,152.9263   L 247.43132,152.9263   L 274.24437,152.9263   L 274.24437,148.49076   L 247.9508,148.49076   z "
     style="fill:#ffffff;fill-rule:evenodd;fill-opacity:1;stroke:none;" />
</svg>
