<?xml version="1.0" encoding="UTF-8" standalone="no"?>
<svg
   xmlns:dc="http://purl.org/dc/elements/1.1/"
   xmlns:cc="http://creativecommons.org/ns#"
   xmlns:rdf="http://www.w3.org/1999/02/22-rdf-syntax-ns#"
   xmlns:svg="http://www.w3.org/2000/svg"
   xmlns="http://www.w3.org/2000/svg"
   id="svg25"
   height="89.669998mm"
   width="120.11mm"
   version="1.0">
  <metadata
     id="metadata29">
    <rdf:RDF>
      <cc:Work
         rdf:about="">
        <dc:format>image/svg+xml</dc:format>
        <dc:type
           rdf:resource="http://purl.org/dc/dcmitype/StillImage" />
      </cc:Work>
    </rdf:RDF>
  </metadata>
  <defs
     id="defs3">
    <pattern
       y="0"
       x="0"
       height="6"
       width="6"
       patternUnits="userSpaceOnUse"
       id="EMFhbasepattern" />
  </defs>
  <path
     id="path5"
     d="  M 54.345381,54.345381   L 54.345381,284.51405   L 399.59839,284.51405   L 399.59839,54.345381   L 54.345381,54.345381   z "
     style="fill:#80e0ff;fill-rule:evenodd;fill-opacity:1;stroke:none;" />
  <path
     id="path7"
     d="  M 54.345381,54.345381   L 399.59839,54.345381   L 399.59839,284.51405   L 54.345381,284.51405   z "
     style="fill:none;stroke:#000000;stroke-width:9.5903616px;stroke-linecap:butt;stroke-linejoin:miter;stroke-miterlimit:10;stroke-dasharray:none;stroke-opacity:1;" />
  <path
     id="path9"
     d="  M 254.34437,97.342167   L 280.63795,97.342167   L 280.63795,89.869677   L 249.38935,89.869677   C 250.14859,91.308232 252.74598,97.342167 254.34437,97.342167   z "
     style="fill:#000000;fill-rule:evenodd;fill-opacity:1;stroke:none;" />
  <path
     id="path11"
     d="  M 249.86887,105.25422   L 253.34538,105.25422   L 253.34538,106.73273   C 253.34538,113.84558 259.89879,119.16024 267.2514,119.16024   C 276.36225,119.16024 280.63795,111.40803 280.63795,101.77771   L 253.8249,101.77771   C 252.4263,101.77771 250.50823,104.29518 249.86887,105.25422   z "
     style="fill:#000000;fill-rule:evenodd;fill-opacity:1;stroke:none;" />
  <path
     id="path13"
     d="  M 175.46365,172.74638   L 175.46365,173.74538   C 175.46365,175.30381 179.81927,180.17891 182.3767,180.17891   L 183.89518,180.17891   C 187.41164,180.17891 231.08775,147.6516 238.95984,143.45582   L 239.19959,176.90221   L 275.16345,123.63574   L 238.95984,123.63574   C 237.08172,123.63574 209.86907,143.85542 205.79317,146.53273   C 200.39859,150.12911 194.3247,154.28494 189.20984,158.201   C 184.49458,161.83735 175.46365,165.11405 175.46365,172.74638   z "
     style="fill:#000000;fill-rule:evenodd;fill-opacity:1;stroke:none;" />
  <path
     id="path15"
     d="  M 158.56064,189.60944   L 158.56064,123.63574   L 150.64859,123.63574   C 148.69056,123.63574 146.17309,125.51385 146.17309,127.11225   L 146.17309,185.65341   C 146.17309,187.8512 147.33193,188.73032 148.6506,189.60944   z "
     style="fill:#000000;fill-rule:evenodd;fill-opacity:1;stroke:none;" />
  <path
     id="path17"
     d="  M 249.38935,176.70241   L 279.15943,176.70241   L 279.15943,189.12992   L 239.43935,189.12992   L 239.43935,249.14959   L 259.29939,249.14959   C 261.89678,249.14959 262.93574,232.28654 263.45522,229.00984   C 264.57409,222.41646 266.21245,213.78514 266.73192,207.47148   L 267.53112,207.51144   L 273.68494,249.14959   L 294.54397,249.14959   L 294.54397,131.06827   C 294.54397,128.5508 289.62891,123.63574 286.59196,123.63574   L 286.11245,123.63574   C 283.91465,123.63574 269.64899,146.33293 267.4512,149.60964   C 264.97369,153.3259 249.90883,174.74437 249.38935,176.70241   z "
     style="fill:#000000;fill-rule:evenodd;fill-opacity:1;stroke:none;" />
  <path
     id="path19"
     d="  M 158.56064,189.60944   L 158.56064,189.60944   L 158.56064,250.14859   L 225.05381,250.14859   L 225.05381,189.60944   z "
     style="fill:#000000;fill-rule:evenodd;fill-opacity:1;stroke:none;" />
  <path
     id="path21"
     d="  M 279.15943,176.70241   L 249.38935,176.70241   C 249.90883,174.74437 264.97369,153.3259 267.4512,149.60964   C 269.64899,146.33293 283.91465,123.63574 286.11245,123.63574   L 275.16345,123.63574   L 239.19959,176.90221   L 239.43935,189.12992   L 279.15943,189.12992   z "
     style="fill:#ffffff;fill-rule:evenodd;fill-opacity:1;stroke:none;" />
  <path
     id="path23"
     d="  M 253.8249,101.77771   L 253.8249,101.77771   L 280.63795,101.77771   L 280.63795,97.342167   L 254.34437,97.342167   z "
     style="fill:#ffffff;fill-rule:evenodd;fill-opacity:1;stroke:none;" />
</svg>
