<?xml version="1.0" encoding="UTF-8" standalone="no"?>
<svg
   xmlns:dc="http://purl.org/dc/elements/1.1/"
   xmlns:cc="http://creativecommons.org/ns#"
   xmlns:rdf="http://www.w3.org/1999/02/22-rdf-syntax-ns#"
   xmlns:svg="http://www.w3.org/2000/svg"
   xmlns="http://www.w3.org/2000/svg"
   id="svg27"
   height="130.27mm"
   width="130.27mm"
   version="1.0">
  <metadata
     id="metadata31">
    <rdf:RDF>
      <cc:Work
         rdf:about="">
        <dc:format>image/svg+xml</dc:format>
        <dc:type
           rdf:resource="http://purl.org/dc/dcmitype/StillImage" />
      </cc:Work>
    </rdf:RDF>
  </metadata>
  <defs
     id="defs3">
    <pattern
       y="0"
       x="0"
       height="6"
       width="6"
       patternUnits="userSpaceOnUse"
       id="EMFhbasepattern" />
  </defs>
  <path
     id="path5"
     d="  M 198.2008,63.935742   L 198.2008,111.88755   L 294.10441,111.88755   L 294.10441,63.935742   L 198.2008,63.935742   z "
     style="fill:#000000;fill-rule:evenodd;fill-opacity:1;stroke:none;" />
  <path
     id="path7"
     d="  M 164.63454,327.67068   C 164.63454,437.95983 327.67068,437.95983 327.67068,327.67068   C 437.95983,327.67068 437.95983,164.63454 327.67068,164.63454   C 327.67068,54.345381 164.63454,54.345381 164.63454,164.63454   C 54.345381,164.63454 54.345381,327.67068 164.63454,327.67068   z "
     style="fill:#ffff80;fill-rule:evenodd;fill-opacity:1;stroke:none;" />
  <path
     id="path9"
     d="  M 164.63454,327.67068   C 164.63454,437.95983 327.67068,437.95983 327.67068,327.67068   C 437.95983,327.67068 437.95983,164.63454 327.67068,164.63454   C 327.67068,54.345381 164.63454,54.345381 164.63454,164.63454   C 54.345381,164.63454 54.345381,327.67068 164.63454,327.67068  "
     style="fill:none;stroke:#000000;stroke-width:9.5903616px;stroke-linecap:butt;stroke-linejoin:miter;stroke-miterlimit:10;stroke-dasharray:none;stroke-opacity:1;" />
  <path
     id="path11"
     d="  M 273.5251,174.06506   L 299.81867,174.06506   L 299.81867,166.59257   L 268.57008,166.59257   C 269.32931,168.03112 271.9267,174.06506 273.5251,174.06506   z "
     style="fill:#000000;fill-rule:evenodd;fill-opacity:1;stroke:none;" />
  <path
     id="path13"
     d="  M 269.04959,181.97711   L 272.5261,181.97711   L 272.5261,183.45562   C 272.5261,190.56847 279.07951,195.88313 286.43212,195.88313   C 295.54297,195.88313 299.81867,188.13092 299.81867,178.5006   L 273.00562,178.5006   C 271.60702,178.5006 269.68895,181.01807 269.04959,181.97711   z "
     style="fill:#000000;fill-rule:evenodd;fill-opacity:1;stroke:none;" />
  <path
     id="path15"
     d="  M 194.64437,249.46927   L 194.64437,250.46827   C 194.64437,252.0267 199,256.9018 201.55743,256.9018   L 203.0759,256.9018   C 206.59237,256.9018 250.26847,224.37449 258.14056,220.17871   L 258.38032,253.6251   L 294.34417,200.35863   L 258.14056,200.35863   C 256.26245,200.35863 229.0498,220.57831 224.97389,223.25562   C 219.57931,226.852 213.50542,231.00783 208.39056,234.92389   C 203.6753,238.56024 194.64437,241.83694 194.64437,249.46927   z "
     style="fill:#000000;fill-rule:evenodd;fill-opacity:1;stroke:none;" />
  <path
     id="path17"
     d="  M 177.74136,266.33233   L 177.74136,200.35863   L 169.82931,200.35863   C 167.87128,200.35863 165.35381,202.23674 165.35381,203.83514   L 165.35381,262.3763   C 165.35381,264.57409 166.51265,265.45321 167.83132,266.33233   z "
     style="fill:#000000;fill-rule:evenodd;fill-opacity:1;stroke:none;" />
  <path
     id="path19"
     d="  M 268.57008,253.4253   L 298.34016,253.4253   L 298.34016,265.85281   L 258.62008,265.85281   L 258.62008,325.87249   L 278.48012,325.87249   C 281.07751,325.87249 282.11646,309.00943 282.63594,305.73273   C 283.75482,299.13935 285.39317,290.50803 285.91265,284.19437   L 286.71184,284.23433   L 292.86566,325.87249   L 313.72469,325.87249   L 313.72469,207.79116   C 313.72469,205.27369 308.80963,200.35863 305.77269,200.35863   L 305.29317,200.35863   C 303.09538,200.35863 288.82971,223.05582 286.63192,226.33253   C 284.15441,230.04879 269.08955,251.46727 268.57008,253.4253   z "
     style="fill:#000000;fill-rule:evenodd;fill-opacity:1;stroke:none;" />
  <path
     id="path21"
     d="  M 177.74136,266.33233   L 177.74136,266.33233   L 177.74136,326.87148   L 244.23453,326.87148   L 244.23453,266.33233   z "
     style="fill:#000000;fill-rule:evenodd;fill-opacity:1;stroke:none;" />
  <path
     id="path23"
     d="  M 298.34016,253.4253   L 268.57008,253.4253   C 269.08955,251.46727 284.15441,230.04879 286.63192,226.33253   C 288.82971,223.05582 303.09538,200.35863 305.29317,200.35863   L 294.34417,200.35863   L 258.38032,253.6251   L 258.62008,265.85281   L 298.34016,265.85281   z "
     style="fill:#ffffff;fill-rule:evenodd;fill-opacity:1;stroke:none;" />
  <path
     id="path25"
     d="  M 273.00562,178.5006   L 273.00562,178.5006   L 299.81867,178.5006   L 299.81867,174.06506   L 273.5251,174.06506   z "
     style="fill:#ffffff;fill-rule:evenodd;fill-opacity:1;stroke:none;" />
</svg>
