<?xml version="1.0" encoding="UTF-8" standalone="no"?>
<svg
   xmlns:dc="http://purl.org/dc/elements/1.1/"
   xmlns:cc="http://creativecommons.org/ns#"
   xmlns:rdf="http://www.w3.org/1999/02/22-rdf-syntax-ns#"
   xmlns:svg="http://www.w3.org/2000/svg"
   xmlns="http://www.w3.org/2000/svg"
   id="svg25"
   height="95.75mm"
   width="95.75mm"
   version="1.0">
  <metadata
     id="metadata29">
    <rdf:RDF>
      <cc:Work
         rdf:about="">
        <dc:format>image/svg+xml</dc:format>
        <dc:type
           rdf:resource="http://purl.org/dc/dcmitype/StillImage" />
      </cc:Work>
    </rdf:RDF>
  </metadata>
  <defs
     id="defs3">
    <pattern
       y="0"
       x="0"
       height="6"
       width="6"
       patternUnits="userSpaceOnUse"
       id="EMFhbasepattern" />
  </defs>
  <path
     id="path5"
     d="  M 54.345381,54.345381   L 54.345381,307.53092   L 307.53092,307.53092   L 307.53092,54.345381   L 54.345381,54.345381   z "
     style="fill:#aaffaa;fill-rule:evenodd;fill-opacity:1;stroke:none;" />
  <path
     id="path7"
     d="  M 54.345381,54.345381   L 307.53092,54.345381   L 307.53092,307.53092   L 54.345381,307.53092   z "
     style="fill:none;stroke:#000000;stroke-width:9.5903616px;stroke-linecap:butt;stroke-linejoin:miter;stroke-miterlimit:10;stroke-dasharray:none;stroke-opacity:1;" />
  <path
     id="path9"
     d="  M 208.31064,108.8506   L 234.60421,108.8506   L 234.60421,101.37811   L 203.35562,101.37811   C 204.11486,102.81667 206.71225,108.8506 208.31064,108.8506   z "
     style="fill:#000000;fill-rule:evenodd;fill-opacity:1;stroke:none;" />
  <path
     id="path11"
     d="  M 203.83514,116.76265   L 207.31164,116.76265   L 207.31164,118.24116   C 207.31164,125.35401 213.86506,130.66867 221.21767,130.66867   C 230.32851,130.66867 234.60421,122.91646 234.60421,113.28614   L 207.79116,113.28614   C 206.39257,113.28614 204.4745,115.80361 203.83514,116.76265   z "
     style="fill:#000000;fill-rule:evenodd;fill-opacity:1;stroke:none;" />
  <path
     id="path13"
     d="  M 129.42992,184.25482   L 129.42992,185.25381   C 129.42992,186.81225 133.78554,191.68735 136.34297,191.68735   L 137.86144,191.68735   C 141.37791,191.68735 185.05401,159.16004 192.9261,154.96425   L 193.16586,188.41064   L 229.12972,135.14417   L 192.9261,135.14417   C 191.04799,135.14417 163.83534,155.36385 159.75944,158.04116   C 154.36486,161.63755 148.29096,165.79337 143.1761,169.70944   C 138.46084,173.34578 129.42992,176.62249 129.42992,184.25482   z "
     style="fill:#000000;fill-rule:evenodd;fill-opacity:1;stroke:none;" />
  <path
     id="path15"
     d="  M 112.52691,201.11787   L 112.52691,135.14417   L 104.61486,135.14417   C 102.65683,135.14417 100.13936,137.02229 100.13936,138.62068   L 100.13936,197.16184   C 100.13936,199.35964 101.29819,200.23875 102.61687,201.11787   z "
     style="fill:#000000;fill-rule:evenodd;fill-opacity:1;stroke:none;" />
  <path
     id="path17"
     d="  M 203.35562,188.21084   L 233.1257,188.21084   L 233.1257,200.63835   L 193.40562,200.63835   L 193.40562,260.65803   L 213.26566,260.65803   C 215.86305,260.65803 216.902,243.79498 217.42148,240.51827   C 218.54036,233.9249 220.17871,225.29357 220.69819,218.97992   L 221.49739,219.01988   L 227.6512,260.65803   L 248.51024,260.65803   L 248.51024,142.5767   C 248.51024,140.05923 243.59518,135.14417 240.55823,135.14417   L 240.07871,135.14417   C 237.88092,135.14417 223.61526,157.84136 221.41747,161.11807   C 218.93996,164.83433 203.8751,186.25281 203.35562,188.21084   z "
     style="fill:#000000;fill-rule:evenodd;fill-opacity:1;stroke:none;" />
  <path
     id="path19"
     d="  M 112.52691,201.11787   L 112.52691,201.11787   L 112.52691,261.65702   L 179.02008,261.65702   L 179.02008,201.11787   z "
     style="fill:#000000;fill-rule:evenodd;fill-opacity:1;stroke:none;" />
  <path
     id="path21"
     d="  M 233.1257,188.21084   L 203.35562,188.21084   C 203.8751,186.25281 218.93996,164.83433 221.41747,161.11807   C 223.61526,157.84136 237.88092,135.14417 240.07871,135.14417   L 229.12972,135.14417   L 193.16586,188.41064   L 193.40562,200.63835   L 233.1257,200.63835   z "
     style="fill:#ffffff;fill-rule:evenodd;fill-opacity:1;stroke:none;" />
  <path
     id="path23"
     d="  M 207.79116,113.28614   L 207.79116,113.28614   L 234.60421,113.28614   L 234.60421,108.8506   L 208.31064,108.8506   z "
     style="fill:#ffffff;fill-rule:evenodd;fill-opacity:1;stroke:none;" />
</svg>
