<?xml version="1.0" encoding="UTF-8" standalone="no"?>
<svg
   xmlns:dc="http://purl.org/dc/elements/1.1/"
   xmlns:cc="http://creativecommons.org/ns#"
   xmlns:rdf="http://www.w3.org/1999/02/22-rdf-syntax-ns#"
   xmlns:svg="http://www.w3.org/2000/svg"
   xmlns="http://www.w3.org/2000/svg"
   id="svg7"
   height="94.230003mm"
   width="80.360001mm"
   version="1.0">
  <metadata
     id="metadata11">
    <rdf:RDF>
      <cc:Work
         rdf:about="">
        <dc:format>image/svg+xml</dc:format>
        <dc:type
           rdf:resource="http://purl.org/dc/dcmitype/StillImage" />
      </cc:Work>
    </rdf:RDF>
  </metadata>
  <defs
     id="defs3">
    <pattern
       y="0"
       x="0"
       height="6"
       width="6"
       patternUnits="userSpaceOnUse"
       id="EMFhbasepattern" />
  </defs>
  <path
     id="path5"
     d="  M 258.26044,229.36947   L 303.69477,240.83795   C 294.18433,278.16044 277.04156,306.61184 252.30642,326.19216   C 227.57128,345.81244 197.32168,355.56265 161.55763,355.56265   C 124.55482,355.56265 94.505019,348.0502 71.288352,332.98534   C 48.111646,317.92048 30.489357,296.10241 18.381526,267.53112   C 6.3136545,238.9998 0.23975903,208.31064 0.23975903,175.50361   C 0.23975903,139.77952 7.0728915,108.61084 20.739156,81.997589   C 34.405421,55.384337 53.825903,35.164658 79.040561,21.338554   C 104.25522,7.5524095 131.98735,0.63935742 162.27691,0.59939758   C 196.60241,0.63935742 225.49337,9.3905621 248.90984,26.853012   C 272.3263,44.355421 288.62992,68.930722 297.82068,100.57891   L 253.10562,111.12831   C 245.15361,86.153412 233.60522,67.971686 218.46044,56.583132   C 203.31566,45.194578 184.29478,39.480321 161.31787,39.480321   C 134.94438,39.480321 112.9265,45.833935 95.184336,58.461244   C 77.482127,71.088553 65.014658,88.071485 57.861847,109.37008   C 50.669076,130.70863 47.07269,152.64658 47.07269,175.30381   C 47.07269,204.4745 51.348393,229.96887 59.819879,251.74698   C 68.331324,273.5251 81.597991,289.78875 99.499999,300.57791   C 117.48193,311.3271 136.90241,316.72168 157.8014,316.72168   C 183.25582,316.72168 204.79417,309.36907 222.45642,294.70381   C 240.07871,280.03855 252.0267,258.26044 258.26044,229.36947   z "
     style="fill:#c61021;fill-rule:evenodd;fill-opacity:1;stroke:none;" />
</svg>
