<?xml version="1.0" encoding="UTF-8" standalone="no"?>
<svg
   xmlns:dc="http://purl.org/dc/elements/1.1/"
   xmlns:cc="http://creativecommons.org/ns#"
   xmlns:rdf="http://www.w3.org/1999/02/22-rdf-syntax-ns#"
   xmlns:svg="http://www.w3.org/2000/svg"
   xmlns="http://www.w3.org/2000/svg"
   id="svg15"
   height="112.9mm"
   width="112.9mm"
   version="1.0">
  <metadata
     id="metadata19">
    <rdf:RDF>
      <cc:Work
         rdf:about="">
        <dc:format>image/svg+xml</dc:format>
        <dc:type
           rdf:resource="http://purl.org/dc/dcmitype/StillImage" />
      </cc:Work>
    </rdf:RDF>
  </metadata>
  <defs
     id="defs3">
    <pattern
       y="0"
       x="0"
       height="6"
       width="6"
       patternUnits="userSpaceOnUse"
       id="EMFhbasepattern" />
  </defs>
  <path
     id="path5"
     d="  M 1170.7492,1026.8391   L 1277.3786,1026.8391   L 1277.3786,1090.8243   L 1170.7492,1090.8243   L 1170.7492,1026.8391   z "
     style="fill:#000000;fill-rule:nonzero;fill-opacity:1;stroke:none;" />
  <path
     id="path7"
     d="  M 1224.045,1408.4841   L 1408.4841,1224.0828   L 1224.045,1039.6437   L 1039.6437,1224.0828   L 1224.045,1408.4841   z "
     style="fill:#ff8080;fill-rule:nonzero;fill-opacity:1;stroke:#000000;stroke-width:10.651613px;stroke-linecap:square;stroke-linejoin:miter;stroke-miterlimit:112;stroke-dasharray:none;stroke-opacity:1;" />
  <path
     id="path9"
     d="  M 1224.045,1336.0002   C 1213.3934,1336.0002 1192.0902,1330.6744 1192.0902,1325.3486   L 1192.0902,1288.0302   C 1085.4985,1245.386 1138.7943,1112.1275 1224.045,1117.4533  "
     style="fill:none;stroke:#000000;stroke-width:10.651613px;stroke-linecap:butt;stroke-linejoin:miter;stroke-miterlimit:112;stroke-dasharray:none;stroke-opacity:1;" />
  <path
     id="path11"
     d="  M 1218.7192,1336.0002   C 1229.4086,1336.0002 1250.7118,1330.6744 1250.7118,1325.3486   L 1250.7118,1288.0302   C 1357.3035,1245.386 1304.0076,1112.1275 1218.7192,1117.4533  "
     style="fill:none;stroke:#000000;stroke-width:10.651613px;stroke-linecap:butt;stroke-linejoin:miter;stroke-miterlimit:112;stroke-dasharray:none;stroke-opacity:1;" />
  <path
     id="path13"
     d="  M 1191.9768,1245.9148   L 1191.9768,1171.5046   L 1207.01,1171.5046   L 1207.01,1200.8154   L 1236.4341,1200.8154   L 1236.4341,1171.5046   L 1251.4672,1171.5046   L 1251.4672,1245.9148   L 1236.4341,1245.9148   L 1236.4341,1213.3934   L 1207.01,1213.3934   L 1207.01,1245.9148   L 1191.9768,1245.9148   z "
     style="fill:#000000;fill-rule:nonzero;fill-opacity:1;stroke:none;" />
</svg>
