<?xml version="1.0" encoding="UTF-8" standalone="no"?>
<svg
   xmlns:dc="http://purl.org/dc/elements/1.1/"
   xmlns:cc="http://creativecommons.org/ns#"
   xmlns:rdf="http://www.w3.org/1999/02/22-rdf-syntax-ns#"
   xmlns:svg="http://www.w3.org/2000/svg"
   xmlns="http://www.w3.org/2000/svg"
   id="svg13"
   height="130.27mm"
   width="130.27mm"
   version="1.0">
  <metadata
     id="metadata17">
    <rdf:RDF>
      <cc:Work
         rdf:about="">
        <dc:format>image/svg+xml</dc:format>
        <dc:type
           rdf:resource="http://purl.org/dc/dcmitype/StillImage" />
      </cc:Work>
    </rdf:RDF>
  </metadata>
  <defs
     id="defs3">
    <pattern
       y="0"
       x="0"
       height="6"
       width="6"
       patternUnits="userSpaceOnUse"
       id="EMFhbasepattern" />
  </defs>
  <path
     id="path5"
     d="  M 198.2008,63.935742   L 198.2008,111.88755   L 294.10441,111.88755   L 294.10441,63.935742   L 198.2008,63.935742   z "
     style="fill:#000000;fill-rule:evenodd;fill-opacity:1;stroke:none;" />
  <path
     id="path7"
     d="  M 164.63454,327.67068   C 164.63454,437.95983 327.67068,437.95983 327.67068,327.67068   C 437.95983,327.67068 437.95983,164.63454 327.67068,164.63454   C 327.67068,54.345381 164.63454,54.345381 164.63454,164.63454   C 54.345381,164.63454 54.345381,327.67068 164.63454,327.67068   z "
     style="fill:#ffff80;fill-rule:evenodd;fill-opacity:1;stroke:none;" />
  <path
     id="path9"
     d="  M 164.63454,327.67068   C 164.63454,437.95983 327.67068,437.95983 327.67068,327.67068   C 437.95983,327.67068 437.95983,164.63454 327.67068,164.63454   C 327.67068,54.345381 164.63454,54.345381 164.63454,164.63454   C 54.345381,164.63454 54.345381,327.67068 164.63454,327.67068  "
     style="fill:none;stroke:#000000;stroke-width:9.5903616px;stroke-linecap:butt;stroke-linejoin:miter;stroke-miterlimit:10;stroke-dasharray:none;stroke-opacity:1;" />
  <path
     id="path11"
     d="  M 173.58554,220.33855   C 179.17992,220.33855 181.13795,216.26265 184.49458,214.0249   C 187.09197,215.90301 189.84919,220.33855 195.04397,220.33855   L 195.40361,220.33855   C 201.63735,220.33855 203.31566,216.22269 206.67229,214.0249   C 210.02891,216.26265 211.98694,220.33855 217.901,220.33855   C 223.69518,220.33855 225.73313,216.06285 228.81004,214.0249   C 230.40843,215.06385 231.52731,216.70221 233.40542,217.86104   C 234.32449,218.46044 238.68012,219.97891 238.68012,221.05783   L 238.68012,237.2016   C 235.56325,236.48233 229.92891,231.60723 229.16968,228.77008   L 228.4504,228.77008   C 227.73112,231.52731 221.33755,237.56124 217.58132,237.56124   C 213.94498,237.56124 207.7512,231.24759 207.03192,228.41044   C 204.71425,229.96887 200.67831,237.56124 196.12289,237.56124   L 195.04397,237.56124   C 192.20682,237.56124 185.45361,231.08775 184.85421,228.77008   C 183.01606,229.28955 178.74036,237.56124 173.58554,237.56124   L 172.90622,237.56124   C 170.34879,237.56124 168.87028,235.80301 167.27189,234.76405   L 164.71446,237.48132   C 167.15201,239.15964 168.47068,241.79698 172.54658,241.79698   L 173.58554,241.79698   C 179.06004,241.79698 181.13795,237.36144 184.49458,235.12369   C 186.25281,237.72108 191.24779,241.79698 195.76325,241.79698   C 201.23775,241.79698 203.6753,237.12168 206.67229,235.12369   C 209.66927,237.12168 212.8261,241.79698 217.901,241.79698   C 222.9759,241.79698 226.01285,236.802 229.16968,235.12369   C 230.80803,237.56124 235.32349,240.67811 238.68012,241.43735   L 238.68012,258.34036   C 235.48333,258.06064 230.52831,252.46626 229.16968,249.86887   C 226.57229,251.6271 223.09578,258.66004 217.901,258.66004   L 217.58132,258.66004   C 212.14678,258.66004 207.7512,250.26847 206.31265,249.86887   C 205.71325,252.14658 199.11988,258.66004 196.44257,258.66004   L 195.40361,258.66004   C 190.28875,258.66004 186.77229,251.6271 184.13494,249.86887   C 182.85622,252.30642 177.46164,258.66004 174.30482,258.66004   L 172.18695,258.66004   C 170.46867,258.66004 168.151,256.34237 166.91225,255.50321   L 164.75442,258.97972   C 167.39176,260.73795 168.87028,262.89578 173.26586,262.89578   C 179.65944,262.89578 180.77831,258.54016 184.49458,256.58212   C 187.77128,258.73996 189.40964,262.89578 195.76325,262.89578   C 201.03795,262.89578 203.75522,258.5002 206.67229,256.58212   C 210.06887,258.81988 212.70622,262.89578 218.26064,262.89578   C 222.53634,262.89578 226.41245,258.18052 228.81004,256.58212   C 230.92791,257.66104 231.20763,258.8998 233.5253,260.29839   C 234.60421,260.93775 238.68012,262.05662 238.68012,263.25542   L 238.68012,279.43915   C 235.36345,278.63996 230.00883,274.08453 229.16968,270.96767   C 226.61225,272.68594 223.1757,280.11847 217.58132,280.11847   C 214.10482,280.11847 207.7512,273.76486 207.03192,270.96767   C 204.19478,272.84578 200.87811,280.11847 195.40361,280.11847   C 190.56847,280.11847 186.49257,272.56606 184.13494,270.96767   C 183.45562,273.56506 177.02209,280.11847 173.94518,280.11847   L 172.54658,280.11847   C 170.54859,280.11847 168.23092,277.84076 166.91225,276.96164   L 164.71446,280.07851   C 167.31184,281.79678 169.11004,284.35421 173.26586,284.35421   C 178.66044,284.35421 181.13795,279.91867 184.49458,277.68092   C 187.29176,279.51907 190.60843,284.51405 195.72329,284.31425   C 201.19779,284.11445 203.55542,279.75883 206.67229,277.68092   C 209.50943,279.55903 213.2257,284.35421 217.901,284.35421   C 222.41646,284.35421 226.17269,279.43915 228.81004,277.68092   C 232.60622,280.19839 233.00582,282.31626 238.68012,283.63494   L 238.68012,295.58293   L 279.43915,295.58293   L 276.20241,282.95562   C 278.28032,283.39518 278.67992,284.35421 281.55702,284.35421   C 286.3522,284.35421 289.42911,279.67891 292.46606,277.68092   C 295.62289,279.75883 298.1004,284.35421 303.73473,284.35421   C 307.53092,284.35421 312.96546,280.15843 314.28413,277.68092   C 317.44096,278.4002 320.19819,284.35421 326.59176,284.35421   C 329.30903,284.35421 332.8255,281.11747 334.66365,280.11847   L 332.18614,277.0016   C 330.58775,278.04056 328.70963,280.11847 325.87249,280.11847   C 320.83755,280.11847 317.08132,272.76586 314.60381,270.96767   C 312.96546,274.40421 308.17028,280.11847 303.3751,280.11847   C 300.25823,280.11847 293.06546,273.92469 292.8257,270.96767   C 290.34819,272.64598 286.552,280.11847 281.55702,280.11847   L 281.19739,280.11847   C 278.6,280.11847 276.00261,277.96064 274.64397,276.48212   C 273.84478,275.56305 272.60602,270.40823 272.08654,268.88976   C 271.24739,266.49216 267.8508,255.34337 267.8508,253.06566   L 267.09156,252.0267   L 267.13152,250.58815   L 266.41225,249.58915   L 266.4522,248.11064   L 265.69297,247.11164   L 253.10562,202.4765   L 253.46526,202.35662   L 252.66606,201.39759   L 252.74598,199.95903   C 252.30642,199.31968 252.0267,199.31968 252.0267,198.52048   L 252.0267,197.48152   L 238.68012,197.48152   L 238.68012,216.10281   C 235.32349,214.34458 235.76305,214.86405 232.9259,212.34658   C 232.64618,212.06686 230.56827,210.10883 230.44839,209.94899   C 229.48935,208.71024 230.16867,207.79116 228.4504,207.31164   C 228.2506,210.10883 221.09779,216.46245 218.26064,216.46245   L 217.901,216.46245   C 211.90703,216.46245 207.79116,207.71124 206.31265,207.31164   C 205.59337,209.94899 199.15984,216.46245 196.12289,216.46245   L 195.04397,216.46245   C 192.20682,216.46245 185.05401,209.90903 184.85421,207.31164   C 183.7753,207.63132 178.18092,216.46245 174.30482,216.46245   L 172.18695,216.46245   C 170.46867,216.46245 168.151,214.14478 166.91225,213.30562   L 164.79438,216.46245   C 167.27189,218.1008 168.59056,220.33855 172.90622,220.33855   L 173.58554,220.33855   z "
     style="fill:#000000;fill-rule:evenodd;fill-opacity:1;stroke:none;" />
</svg>
