<?xml version="1.0" encoding="UTF-8" standalone="no"?>
<svg
   xmlns:dc="http://purl.org/dc/elements/1.1/"
   xmlns:cc="http://creativecommons.org/ns#"
   xmlns:rdf="http://www.w3.org/1999/02/22-rdf-syntax-ns#"
   xmlns:svg="http://www.w3.org/2000/svg"
   xmlns="http://www.w3.org/2000/svg"
   id="svg15"
   height="112.9mm"
   width="112.9mm"
   version="1.0">
  <metadata
     id="metadata19">
    <rdf:RDF>
      <cc:Work
         rdf:about="">
        <dc:format>image/svg+xml</dc:format>
        <dc:type
           rdf:resource="http://purl.org/dc/dcmitype/StillImage" />
      </cc:Work>
    </rdf:RDF>
  </metadata>
  <defs
     id="defs3">
    <pattern
       y="0"
       x="0"
       height="6"
       width="6"
       patternUnits="userSpaceOnUse"
       id="EMFhbasepattern" />
  </defs>
  <path
     id="path5"
     d="  M 833.79528,652.80395   L 940.42472,652.80395   L 940.42472,695.44818   L 833.79528,695.44818   L 833.79528,652.80395   z "
     style="fill:#000000;fill-rule:nonzero;fill-opacity:1;stroke:none;" />
  <path
     id="path7"
     d="  M 695.21099,695.44818   L 1078.9712,695.44818   L 1078.9712,951.27576   L 695.21099,951.27576   L 695.21099,695.44818   z "
     style="fill:#80e0ff;fill-rule:nonzero;fill-opacity:1;stroke:#000000;stroke-width:10.651613px;stroke-linecap:butt;stroke-linejoin:miter;stroke-miterlimit:112;stroke-dasharray:none;stroke-opacity:1;" />
  <path
     id="path9"
     d="  M 887.09111,935.29834   C 876.4395,935.29834 855.13627,929.97253 855.13627,924.64672   L 855.13627,887.32831   C 748.5446,844.68408 801.84044,711.4256 887.09111,716.75141  "
     style="fill:none;stroke:#000000;stroke-width:10.651613px;stroke-linecap:butt;stroke-linejoin:miter;stroke-miterlimit:112;stroke-dasharray:none;stroke-opacity:1;" />
  <path
     id="path11"
     d="  M 881.76531,935.29834   C 892.45469,935.29834 913.75792,929.97253 913.75792,924.64672   L 913.75792,887.32831   C 1020.3496,844.68408 967.05376,711.4256 881.76531,716.75141  "
     style="fill:none;stroke:#000000;stroke-width:10.651613px;stroke-linecap:butt;stroke-linejoin:miter;stroke-miterlimit:112;stroke-dasharray:none;stroke-opacity:1;" />
  <path
     id="path13"
     d="  M 855.02296,845.21288   L 855.02296,770.80268   L 870.05609,770.80268   L 870.05609,800.1135   L 899.48022,800.1135   L 899.48022,770.80268   L 914.51335,770.80268   L 914.51335,845.21288   L 899.48022,845.21288   L 899.48022,812.69147   L 870.05609,812.69147   L 870.05609,845.21288   L 855.02296,845.21288   z "
     style="fill:#000000;fill-rule:nonzero;fill-opacity:1;stroke:none;" />
</svg>
