<?xml version="1.0" encoding="UTF-8" standalone="no"?>
<svg
   xmlns:dc="http://purl.org/dc/elements/1.1/"
   xmlns:cc="http://creativecommons.org/ns#"
   xmlns:rdf="http://www.w3.org/1999/02/22-rdf-syntax-ns#"
   xmlns:svg="http://www.w3.org/2000/svg"
   xmlns="http://www.w3.org/2000/svg"
   id="svg13"
   height="89.669998mm"
   width="120.11mm"
   version="1.0">
  <metadata
     id="metadata17">
    <rdf:RDF>
      <cc:Work
         rdf:about="">
        <dc:format>image/svg+xml</dc:format>
        <dc:type
           rdf:resource="http://purl.org/dc/dcmitype/StillImage" />
      </cc:Work>
    </rdf:RDF>
  </metadata>
  <defs
     id="defs3">
    <pattern
       y="0"
       x="0"
       height="6"
       width="6"
       patternUnits="userSpaceOnUse"
       id="EMFhbasepattern" />
  </defs>
  <path
     id="path5"
     d="  M 179.02008,15.983936   L 179.02008,54.345381   L 274.92369,54.345381   L 274.92369,15.983936   L 179.02008,15.983936   z "
     style="fill:#000000;fill-rule:evenodd;fill-opacity:1;stroke:none;" />
  <path
     id="path7"
     d="  M 54.345381,54.345381   L 54.345381,284.51405   L 399.59839,284.51405   L 399.59839,54.345381   L 54.345381,54.345381   z "
     style="fill:#80e0ff;fill-rule:evenodd;fill-opacity:1;stroke:none;" />
  <path
     id="path9"
     d="  M 54.345381,54.345381   L 399.59839,54.345381   L 399.59839,284.51405   L 54.345381,284.51405   z "
     style="fill:none;stroke:#000000;stroke-width:9.5903616px;stroke-linecap:butt;stroke-linejoin:miter;stroke-miterlimit:10;stroke-dasharray:none;stroke-opacity:1;" />
  <path
     id="path11"
     d="  M 154.40482,143.61566   C 159.99919,143.61566 161.95723,139.53976 165.31385,137.30201   C 167.91124,139.18012 170.66847,143.61566 175.86325,143.61566   L 176.22289,143.61566   C 182.45662,143.61566 184.13494,139.4998 187.49156,137.30201   C 190.84819,139.53976 192.80622,143.61566 198.72028,143.61566   C 204.51445,143.61566 206.55241,139.33996 209.62931,137.30201   C 211.22771,138.34096 212.34658,139.97932 214.2247,141.13815   C 215.14377,141.73755 219.49939,143.25602 219.49939,144.33494   L 219.49939,160.47871   C 216.38253,159.75944 210.74819,154.88434 209.98895,152.04719   L 209.26968,152.04719   C 208.5504,154.80442 202.15682,160.83835 198.4006,160.83835   C 194.76425,160.83835 188.57048,154.5247 187.8512,151.68755   C 185.53353,153.24598 181.49759,160.83835 176.94217,160.83835   L 175.86325,160.83835   C 173.0261,160.83835 166.27289,154.36486 165.67349,152.04719   C 163.83534,152.56666 159.55964,160.83835 154.40482,160.83835   L 153.7255,160.83835   C 151.16807,160.83835 149.68956,159.08012 148.09116,158.04116   L 145.53373,160.75843   C 147.97128,162.43674 149.28996,165.07409 153.36586,165.07409   L 154.40482,165.07409   C 159.87931,165.07409 161.95723,160.63855 165.31385,158.4008   C 167.07209,160.99819 172.06707,165.07409 176.58253,165.07409   C 182.05703,165.07409 184.49458,160.39879 187.49156,158.4008   C 190.48855,160.39879 193.64538,165.07409 198.72028,165.07409   C 203.79518,165.07409 206.83213,160.07911 209.98895,158.4008   C 211.62731,160.83835 216.14277,163.95522 219.49939,164.71446   L 219.49939,181.61747   C 216.30261,181.33775 211.34759,175.74337 209.98895,173.14598   C 207.39156,174.90421 203.91506,181.93715 198.72028,181.93715   L 198.4006,181.93715   C 192.96606,181.93715 188.57048,173.54558 187.13193,173.14598   C 186.53253,175.42369 179.93915,181.93715 177.26184,181.93715   L 176.22289,181.93715   C 171.10803,181.93715 167.59156,174.90421 164.95421,173.14598   C 163.6755,175.58353 158.28092,181.93715 155.12409,181.93715   L 153.00622,181.93715   C 151.28795,181.93715 148.97028,179.61948 147.73152,178.78032   L 145.57369,182.25682   C 148.21104,184.01506 149.68956,186.17289 154.08514,186.17289   C 160.47871,186.17289 161.59759,181.81727 165.31385,179.85923   C 168.59056,182.01707 170.22891,186.17289 176.58253,186.17289   C 181.85723,186.17289 184.5745,181.77731 187.49156,179.85923   C 190.88815,182.09699 193.5255,186.17289 199.07992,186.17289   C 203.35562,186.17289 207.23172,181.45763 209.62931,179.85923   C 211.74719,180.93815 212.0269,182.1769 214.34458,183.5755   C 215.42349,184.21486 219.49939,185.33373 219.49939,186.53253   L 219.49939,202.71626   C 216.18273,201.91707 210.82811,197.36164 209.98895,194.24478   C 207.43152,195.96305 203.99498,203.39558 198.4006,203.39558   C 194.92409,203.39558 188.57048,197.04197 187.8512,194.24478   C 185.01405,196.12289 181.69739,203.39558 176.22289,203.39558   C 171.38775,203.39558 167.31184,195.84317 164.95421,194.24478   C 164.2749,196.84217 157.84136,203.39558 154.76446,203.39558   L 153.36586,203.39558   C 151.36787,203.39558 149.0502,201.11787 147.73152,200.23875   L 145.53373,203.35562   C 148.13112,205.07389 149.92932,207.63132 154.08514,207.63132   C 159.47972,207.63132 161.95723,203.19578 165.31385,200.95803   C 168.11104,202.79618 171.42771,207.79116 176.54257,207.59136   C 182.01707,207.39156 184.3747,203.03594 187.49156,200.95803   C 190.32871,202.83614 194.04498,207.63132 198.72028,207.63132   C 203.23574,207.63132 206.99196,202.71626 209.62931,200.95803   C 213.4255,203.4755 213.8251,205.59337 219.49939,206.91205   L 219.49939,218.86004   L 260.25843,218.86004   L 257.02168,206.23273   C 259.09959,206.67229 259.49919,207.63132 262.3763,207.63132   C 267.17148,207.63132 270.24839,202.95602 273.28534,200.95803   C 276.44216,203.03594 278.91967,207.63132 284.55401,207.63132   C 288.3502,207.63132 293.78473,203.43554 295.10341,200.95803   C 298.26024,201.67731 301.01747,207.63132 307.41104,207.63132   C 310.12831,207.63132 313.64477,204.39458 315.48293,203.39558   L 313.00542,200.27871   C 311.40702,201.31767 309.52891,203.39558 306.69176,203.39558   C 301.65682,203.39558 297.9006,196.04297 295.42309,194.24478   C 293.78473,197.68132 288.98955,203.39558 284.19437,203.39558   C 281.07751,203.39558 273.88473,197.2018 273.64498,194.24478   C 271.16747,195.92309 267.37128,203.39558 262.3763,203.39558   L 262.01666,203.39558   C 259.41927,203.39558 256.82188,201.23775 255.46325,199.75923   C 254.66405,198.84016 253.4253,193.68534 252.90582,192.16686   C 252.06666,189.76927 248.67008,178.62048 248.67008,176.34277   L 247.91084,175.30381   L 247.9508,173.86526   L 247.23152,172.86626   L 247.27148,171.38775   L 246.51225,170.38875   L 233.9249,125.75361   L 234.28453,125.63373   L 233.48534,124.6747   L 233.56526,123.23614   C 233.1257,122.59679 232.84598,122.59679 232.84598,121.79759   L 232.84598,120.75863   L 219.49939,120.75863   L 219.49939,139.37992   C 216.14277,137.62168 216.58233,138.14116 213.74518,135.62369   C 213.46546,135.34397 211.38755,133.38594 211.26767,133.2261   C 210.30863,131.98735 210.98795,131.06827 209.26968,130.58875   C 209.06988,133.38594 201.91707,139.73956 199.07992,139.73956   L 198.72028,139.73956   C 192.7263,139.73956 188.61044,130.98835 187.13193,130.58875   C 186.41265,133.2261 179.97911,139.73956 176.94217,139.73956   L 175.86325,139.73956   C 173.0261,139.73956 165.87329,133.18614 165.67349,130.58875   C 164.59458,130.90843 159.0002,139.73956 155.12409,139.73956   L 153.00622,139.73956   C 151.28795,139.73956 148.97028,137.42189 147.73152,136.58273   L 145.61365,139.73956   C 148.09116,141.37791 149.40984,143.61566 153.7255,143.61566   L 154.40482,143.61566   z "
     style="fill:#000000;fill-rule:evenodd;fill-opacity:1;stroke:none;" />
</svg>
