<?xml version="1.0" encoding="UTF-8" standalone="no"?>
<svg
   xmlns:dc="http://purl.org/dc/elements/1.1/"
   xmlns:cc="http://creativecommons.org/ns#"
   xmlns:rdf="http://www.w3.org/1999/02/22-rdf-syntax-ns#"
   xmlns:svg="http://www.w3.org/2000/svg"
   xmlns="http://www.w3.org/2000/svg"
   id="svg7"
   height="112.9mm"
   width="112.9mm"
   version="1.0">
  <metadata
     id="metadata11">
    <rdf:RDF>
      <cc:Work
         rdf:about="">
        <dc:format>image/svg+xml</dc:format>
        <dc:type
           rdf:resource="http://purl.org/dc/dcmitype/StillImage" />
      </cc:Work>
    </rdf:RDF>
  </metadata>
  <defs
     id="defs3">
    <pattern
       y="0"
       x="0"
       height="6"
       width="6"
       patternUnits="userSpaceOnUse"
       id="EMFhbasepattern" />
  </defs>
  <path
     id="path5"
     d="  M 269.21848,135.04729   C 269.21848,172.99889 256.26584,204.94621 230.36057,230.88925   C 204.4553,256.79452 172.54574,269.78492 134.59414,269.78492   C 97.095685,269.78492 65.261653,256.68123 39.167566,230.58715   C 13.073478,204.41753 0.007552558,172.5835 0.007552558,135.04729   C 0.007552558,97.095685 12.960189,65.072839 38.8277,39.054277   C 64.732974,13.035715 96.680294,0.007552558 134.59414,0.007552558   C 172.31916,0.007552558 204.19096,13.073478 230.20952,39.205328   C 256.19032,65.337179 269.21848,97.284499 269.21848,135.04729   z  M 141.65578,259.77778   C 138.21936,260.23094 134.70742,260.45751 131.0822,260.45751   C 99.097113,260.45751 70.888309,247.92027 46.380258,222.80801   C 33.994063,210.27077 25.119808,197.77128 19.644203,185.34732   C 14.244124,172.92337 11.185338,157.9693 10.543371,140.56066   L 137.23753,140.56066   L 137.23753,259.77778   z  M 135.87807,139.2012   L 135.87807,9.9769291   C 100.79644,9.9769291 71.03936,22.249836 46.569072,46.757886   C 21.305766,72.134481 9.4860128,102.94892 11.185338,139.2012   z  M 221.90171,48.5705   C 239.1593,65.941384 250.14827,80.744397 254.83086,92.941778   C 258.0407,100.87196 259.62673,113.5225 259.62673,130.89338   C 259.62673,134.14098 259.43792,137.35082 259.09805,140.56066   L 137.19977,140.56066   L 137.19977,9.9769291   C 168.54288,10.430083 196.75169,23.307194 221.90171,48.5705   z  M 259.09805,140.56066   L 138.44594,140.56066   L 138.44594,259.77778   C 170.6576,258.07846 198.60206,245.91884 222.27933,223.33669   C 246.82515,199.886 259.09805,172.2814 259.09805,140.56066   z "
     style="fill:#ff0000;fill-rule:nonzero;fill-opacity:1;stroke:none;" />
</svg>
