<?xml version="1.0" encoding="UTF-8" standalone="no"?>
<svg
   xmlns:dc="http://purl.org/dc/elements/1.1/"
   xmlns:cc="http://creativecommons.org/ns#"
   xmlns:rdf="http://www.w3.org/1999/02/22-rdf-syntax-ns#"
   xmlns:svg="http://www.w3.org/2000/svg"
   xmlns="http://www.w3.org/2000/svg"
   id="svg11"
   height="95.75mm"
   width="95.75mm"
   version="1.0">
  <metadata
     id="metadata15">
    <rdf:RDF>
      <cc:Work
         rdf:about="">
        <dc:format>image/svg+xml</dc:format>
        <dc:type
           rdf:resource="http://purl.org/dc/dcmitype/StillImage" />
      </cc:Work>
    </rdf:RDF>
  </metadata>
  <defs
     id="defs3">
    <pattern
       y="0"
       x="0"
       height="6"
       width="6"
       patternUnits="userSpaceOnUse"
       id="EMFhbasepattern" />
  </defs>
  <path
     id="path5"
     d="  M 54.345381,54.345381   L 54.345381,307.53092   L 307.53092,307.53092   L 307.53092,54.345381   L 54.345381,54.345381   z "
     style="fill:#aaffaa;fill-rule:evenodd;fill-opacity:1;stroke:none;" />
  <path
     id="path7"
     d="  M 54.345381,54.345381   L 307.53092,54.345381   L 307.53092,307.53092   L 54.345381,307.53092   z "
     style="fill:none;stroke:#000000;stroke-width:9.5903616px;stroke-linecap:butt;stroke-linejoin:miter;stroke-miterlimit:10;stroke-dasharray:none;stroke-opacity:1;" />
  <path
     id="path9"
     d="  M 97.821685,205.87309   L 97.821685,140.65863   L 120.31907,140.65863   C 125.35401,140.65863 129.23012,140.97831 131.90743,141.61767   C 135.66365,142.45683 138.82048,144.01526 141.45783,146.29297   C 144.93434,149.17008 147.49176,152.9263 149.21004,157.44176   C 150.88835,161.95723 151.76747,167.11205 151.76747,172.94618   C 151.76747,177.9012 151.16807,182.25682 150.00923,186.09297   C 148.8504,189.92911 147.37189,193.08594 145.57369,195.60341   C 143.7755,198.12088 141.77751,200.07891 139.61968,201.51747   C 137.50181,202.95602 134.90442,204.03494 131.82751,204.79417   C 128.79056,205.51345 125.31405,205.87309 121.35803,205.87309   z  M 106.45301,198.2008   L 120.39899,198.2008   C 124.6747,198.2008 128.07128,197.8012 130.50883,197.00201   C 132.94638,196.20281 134.90442,195.08393 136.34297,193.60542   C 138.42088,191.56747 140.01928,188.81024 141.13815,185.37369   C 142.29699,181.89719 142.85642,177.74136 142.85642,172.78634   C 142.85642,165.99317 141.73755,160.71847 139.4998,157.08213   C 137.26205,153.40582 134.54478,150.96827 131.34799,149.68956   C 129.03032,148.81044 125.31405,148.37088 120.15924,148.37088   L 106.45301,148.37088   z  M 163.79538,205.87309   L 163.79538,140.65863   L 210.94799,140.65863   L 210.94799,148.37088   L 172.4267,148.37088   L 172.4267,168.3508   L 208.51044,168.3508   L 208.51044,175.98313   L 172.4267,175.98313   L 172.4267,198.2008   L 212.46646,198.2008   L 212.46646,205.87309   z  M 217.22168,205.87309   L 242.2765,140.65863   L 251.58714,140.65863   L 278.28032,205.87309   L 268.4502,205.87309   L 260.81787,186.13293   L 233.56526,186.13293   L 226.41245,205.87309   z  M 236.04277,179.1   L 258.18052,179.1   L 251.34739,161.03815   C 249.26947,155.56365 247.751,151.04819 246.752,147.53172   C 245.91285,151.72751 244.71405,155.84337 243.23554,159.99919   z "
     style="fill:#000000;fill-rule:evenodd;fill-opacity:1;stroke:none;" />
</svg>
