<?xml version="1.0" encoding="UTF-8" standalone="no"?>
<svg
   xmlns:dc="http://purl.org/dc/elements/1.1/"
   xmlns:cc="http://creativecommons.org/ns#"
   xmlns:rdf="http://www.w3.org/1999/02/22-rdf-syntax-ns#"
   xmlns:svg="http://www.w3.org/2000/svg"
   xmlns="http://www.w3.org/2000/svg"
   id="svg11"
   height="116.73mm"
   width="116.73mm"
   version="1.0">
  <metadata
     id="metadata15">
    <rdf:RDF>
      <cc:Work
         rdf:about="">
        <dc:format>image/svg+xml</dc:format>
        <dc:type
           rdf:resource="http://purl.org/dc/dcmitype/StillImage" />
      </cc:Work>
    </rdf:RDF>
  </metadata>
  <defs
     id="defs3">
    <pattern
       y="0"
       x="0"
       height="6"
       width="6"
       patternUnits="userSpaceOnUse"
       id="EMFhbasepattern" />
  </defs>
  <path
     id="path5"
     d="  M 220.57831,386.49156   L 220.57831,386.49156   L 386.49156,220.57831   L 220.57831,54.665059   L 54.665059,220.57831   L 220.57831,386.49156   z "
     style="fill:#ff8080;fill-rule:evenodd;fill-opacity:1;stroke:none;" />
  <path
     id="path7"
     d="  M 220.57831,386.49156   L 220.57831,386.49156   L 386.49156,220.57831   L 220.57831,54.665059   L 54.665059,220.57831   L 220.57831,386.49156  "
     style="fill:none;stroke:#000000;stroke-width:9.5903616px;stroke-linecap:butt;stroke-linejoin:miter;stroke-miterlimit:10;stroke-dasharray:none;stroke-opacity:1;" />
  <path
     id="path9"
     d="  M 137.46185,245.51325   L 137.46185,180.29879   L 159.95923,180.29879   C 164.99417,180.29879 168.87028,180.61847 171.54759,181.25783   C 175.30381,182.09699 178.46064,183.65542 181.09799,185.93313   C 184.5745,188.81024 187.13193,192.56646 188.8502,197.08192   C 190.52851,201.59739 191.40763,206.75221 191.40763,212.58634   C 191.40763,217.54136 190.80823,221.89698 189.64939,225.73313   C 188.49056,229.56927 187.01205,232.7261 185.21385,235.24357   C 183.41566,237.76104 181.41767,239.71907 179.25984,241.15763   C 177.14197,242.59618 174.54458,243.6751 171.46767,244.43433   C 168.43072,245.15361 164.95421,245.51325 160.99819,245.51325   z  M 146.09317,237.84096   L 160.03915,237.84096   C 164.31486,237.84096 167.71144,237.44136 170.14899,236.64217   C 172.58654,235.84297 174.54458,234.72409 175.98313,233.24558   C 178.06104,231.20763 179.65944,228.4504 180.77831,225.01385   C 181.93715,221.53735 182.49658,217.38152 182.49658,212.4265   C 182.49658,205.63333 181.37771,200.35863 179.13996,196.72229   C 176.90221,193.04598 174.18494,190.60843 170.98815,189.32972   C 168.67048,188.4506 164.95421,188.01104 159.7994,188.01104   L 146.09317,188.01104   z  M 203.43554,245.51325   L 203.43554,180.29879   L 250.58815,180.29879   L 250.58815,188.01104   L 212.06686,188.01104   L 212.06686,207.99096   L 248.1506,207.99096   L 248.1506,215.62329   L 212.06686,215.62329   L 212.06686,237.84096   L 252.10662,237.84096   L 252.10662,245.51325   z  M 256.86184,245.51325   L 281.91666,180.29879   L 291.22731,180.29879   L 317.92048,245.51325   L 308.09036,245.51325   L 300.45803,225.77309   L 273.20542,225.77309   L 266.05261,245.51325   z  M 275.68293,218.74016   L 297.82068,218.74016   L 290.98755,200.67831   C 288.90963,195.20381 287.39116,190.68835 286.39216,187.17188   C 285.55301,191.36767 284.35421,195.48353 282.8757,199.63935   z "
     style="fill:#000000;fill-rule:evenodd;fill-opacity:1;stroke:none;" />
</svg>
