<?xml version="1.0" encoding="UTF-8" standalone="no"?>
<svg
   xmlns:dc="http://purl.org/dc/elements/1.1/"
   xmlns:cc="http://creativecommons.org/ns#"
   xmlns:rdf="http://www.w3.org/1999/02/22-rdf-syntax-ns#"
   xmlns:svg="http://www.w3.org/2000/svg"
   xmlns="http://www.w3.org/2000/svg"
   id="svg11"
   height="89.669998mm"
   width="120.11mm"
   version="1.0">
  <metadata
     id="metadata15">
    <rdf:RDF>
      <cc:Work
         rdf:about="">
        <dc:format>image/svg+xml</dc:format>
        <dc:type
           rdf:resource="http://purl.org/dc/dcmitype/StillImage" />
      </cc:Work>
    </rdf:RDF>
  </metadata>
  <defs
     id="defs3">
    <pattern
       y="0"
       x="0"
       height="6"
       width="6"
       patternUnits="userSpaceOnUse"
       id="EMFhbasepattern" />
  </defs>
  <path
     id="path5"
     d="  M 54.345381,54.345381   L 54.345381,284.51405   L 399.59839,284.51405   L 399.59839,54.345381   L 54.345381,54.345381   z "
     style="fill:#80e0ff;fill-rule:evenodd;fill-opacity:1;stroke:none;" />
  <path
     id="path7"
     d="  M 54.345381,54.345381   L 399.59839,54.345381   L 399.59839,284.51405   L 54.345381,284.51405   z "
     style="fill:none;stroke:#000000;stroke-width:9.5903616px;stroke-linecap:butt;stroke-linejoin:miter;stroke-miterlimit:10;stroke-dasharray:none;stroke-opacity:1;" />
  <path
     id="path9"
     d="  M 143.85542,194.36466   L 143.85542,129.1502   L 166.35281,129.1502   C 171.38775,129.1502 175.26385,129.46988 177.94116,130.10924   C 181.69739,130.94839 184.85421,132.50683 187.49156,134.78454   C 190.96807,137.66164 193.5255,141.41787 195.24377,145.93333   C 196.92209,150.44879 197.8012,155.60361 197.8012,161.43775   C 197.8012,166.39277 197.2018,170.74839 196.04297,174.58454   C 194.88413,178.42068 193.40562,181.57751 191.60743,184.09498   C 189.80923,186.61245 187.81124,188.57048 185.65341,190.00903   C 183.53554,191.44759 180.93815,192.5265 177.86124,193.28574   C 174.82429,194.00502 171.34779,194.36466 167.39176,194.36466   z  M 152.48674,186.69237   L 166.43273,186.69237   C 170.70843,186.69237 174.10502,186.29277 176.54257,185.49357   C 178.98012,184.69437 180.93815,183.5755 182.3767,182.09699   C 184.45462,180.05903 186.05301,177.3018 187.17188,173.86526   C 188.33072,170.38875 188.89016,166.23293 188.89016,161.27791   C 188.89016,154.48474 187.77128,149.21004 185.53353,145.57369   C 183.29578,141.89739 180.57851,139.45984 177.38172,138.18112   C 175.06405,137.30201 171.34779,136.86245 166.19297,136.86245   L 152.48674,136.86245   z  M 209.82911,194.36466   L 209.82911,129.1502   L 256.98172,129.1502   L 256.98172,136.86245   L 218.46044,136.86245   L 218.46044,156.84237   L 254.54417,156.84237   L 254.54417,164.4747   L 218.46044,164.4747   L 218.46044,186.69237   L 258.5002,186.69237   L 258.5002,194.36466   z  M 263.25542,194.36466   L 288.31024,129.1502   L 297.62088,129.1502   L 324.31405,194.36466   L 314.48393,194.36466   L 306.8516,174.6245   L 279.59899,174.6245   L 272.44618,194.36466   z  M 282.0765,167.59156   L 304.21425,167.59156   L 297.38112,149.52972   C 295.30321,144.05522 293.78473,139.53976 292.78574,136.02329   C 291.94658,140.21907 290.74779,144.33494 289.26927,148.49076   z "
     style="fill:#000000;fill-rule:evenodd;fill-opacity:1;stroke:none;" />
</svg>
