<?xml version="1.0" encoding="UTF-8" standalone="no"?>
<svg
   xmlns:dc="http://purl.org/dc/elements/1.1/"
   xmlns:cc="http://creativecommons.org/ns#"
   xmlns:rdf="http://www.w3.org/1999/02/22-rdf-syntax-ns#"
   xmlns:svg="http://www.w3.org/2000/svg"
   xmlns="http://www.w3.org/2000/svg"
   id="svg21"
   height="112.9mm"
   width="112.9mm"
   version="1.0">
  <metadata
     id="metadata25">
    <rdf:RDF>
      <cc:Work
         rdf:about="">
        <dc:format>image/svg+xml</dc:format>
        <dc:type
           rdf:resource="http://purl.org/dc/dcmitype/StillImage" />
      </cc:Work>
    </rdf:RDF>
  </metadata>
  <defs
     id="defs3">
    <pattern
       y="0"
       x="0"
       height="6"
       width="6"
       patternUnits="userSpaceOnUse"
       id="EMFhbasepattern" />
  </defs>
  <path
     id="path5"
     d="  M 1055.3824,1055.5085   L 1203.488,1055.5085   L 1203.488,1246.2484   L 1055.3824,1246.2484   z "
     style="fill:none;stroke:#ff0000;stroke-width:5.3245535px;stroke-linecap:butt;stroke-linejoin:miter;stroke-miterlimit:282;stroke-dasharray:none;stroke-opacity:1;" />
  <path
     id="path7"
     d="  M 1055.3824,1248.4386   L 1129.9639,1348.5855   L 1204.5832,1248.4386  "
     style="fill:none;stroke:#ff0000;stroke-width:5.3245535px;stroke-linecap:butt;stroke-linejoin:miter;stroke-miterlimit:282;stroke-dasharray:none;stroke-opacity:1;" />
  <path
     id="path9"
     d="  M 1065.7672,1119.4787   L 1065.7672,1073.7102   L 1081.552,1073.7102   C 1085.1017,1073.7102 1087.8206,1073.899 1089.671,1074.3522   C 1092.3144,1074.9564 1094.5424,1076.0515 1096.3928,1077.6375   C 1098.8096,1079.6767 1100.6222,1082.2823 1101.8306,1085.4544   C 1103.0013,1088.6265 1103.6055,1092.2517 1103.6055,1096.3301   C 1103.6055,1099.8043 1103.1901,1102.9008 1102.3971,1105.582   C 1101.5663,1108.2631 1100.5467,1110.4911 1099.2627,1112.2282   C 1098.0166,1114.0031 1096.6194,1115.3625 1095.1088,1116.3821   C 1093.5983,1117.4017 1091.7857,1118.157 1089.6332,1118.6857   C 1087.5185,1119.2143 1085.0639,1119.4787 1082.2695,1119.4787   z  M 1071.8092,1114.0786   L 1081.5898,1114.0786   C 1084.6108,1114.0786 1086.9898,1113.7765 1088.6892,1113.2101   C 1090.4263,1112.6436 1091.7857,1111.8506 1092.8053,1110.831   C 1094.2403,1109.396 1095.3732,1107.4701 1096.1662,1105.0533   C 1096.9592,1102.6365 1097.3746,1099.691 1097.3746,1096.2546   C 1097.3746,1091.4587 1096.5816,1087.7579 1094.9956,1085.1901   C 1093.4473,1082.6222 1091.5214,1080.9229 1089.2934,1080.0166   C 1087.6696,1079.4124 1085.0639,1079.1103 1081.4387,1079.1103   L 1071.8092,1079.1103   z "
     style="fill:#ff0000;fill-rule:nonzero;fill-opacity:1;stroke:#ff0000;stroke-width:1.0573581px;stroke-linecap:butt;stroke-linejoin:miter;stroke-miterlimit:282;stroke-dasharray:none;stroke-opacity:1;" />
  <path
     id="path11"
     d="  M 1144.6536,1103.4295   L 1150.6957,1104.94   C 1149.4117,1109.9247 1147.146,1113.701 1143.8606,1116.3444   C 1140.5375,1118.95 1136.4969,1120.2339 1131.7387,1120.2339   C 1126.8296,1120.2339 1122.789,1119.2521 1119.6924,1117.2507   C 1116.6336,1115.2115 1114.2546,1112.3038 1112.6685,1108.4897   C 1111.0447,1104.7134 1110.214,1100.5973 1110.214,1096.2546   C 1110.214,1091.4587 1111.158,1087.3048 1112.9706,1083.7551   C 1114.7833,1080.2054 1117.3889,1077.5242 1120.7498,1075.6739   C 1124.1107,1073.8235 1127.8114,1072.9172 1131.852,1072.9172   C 1136.4213,1072.9172 1140.2731,1074.0878 1143.4074,1076.3913   C 1146.504,1078.7326 1148.6942,1082.018 1149.9026,1086.2474   L 1143.9361,1087.6447   C 1142.8788,1084.3215 1141.3683,1081.9047 1139.3291,1080.3564   C 1137.3276,1078.8459 1134.7598,1078.0907 1131.701,1078.0907   C 1128.189,1078.0907 1125.2435,1078.9215 1122.9023,1080.6208   C 1120.5232,1082.3201 1118.8616,1084.5859 1117.9176,1087.4181   C 1116.9735,1090.2503 1116.4826,1093.1958 1116.4826,1096.2168   C 1116.4826,1100.1064 1117.049,1103.505 1118.1819,1106.4128   C 1119.3148,1109.3205 1121.0896,1111.473 1123.4687,1112.908   C 1125.8478,1114.3429 1128.4534,1115.0604 1131.2478,1115.0604   C 1134.6465,1115.0604 1137.5165,1114.0786 1139.8577,1112.1149   C 1142.199,1110.189 1143.8228,1107.2813 1144.6536,1103.4295   z "
     style="fill:#ff0000;fill-rule:nonzero;fill-opacity:1;stroke:#ff0000;stroke-width:1.0573581px;stroke-linecap:butt;stroke-linejoin:miter;stroke-miterlimit:282;stroke-dasharray:none;stroke-opacity:1;" />
  <path
     id="path13"
     d="  M 1158.1349,1119.4787   L 1158.1349,1073.7102   L 1164.328,1073.7102   L 1188.3829,1109.6226   L 1188.3829,1073.7102   L 1194.1984,1073.7102   L 1194.1984,1119.4787   L 1187.9675,1119.4787   L 1163.9504,1083.4907   L 1163.9504,1119.4787   z "
     style="fill:#ff0000;fill-rule:nonzero;fill-opacity:1;stroke:#ff0000;stroke-width:1.0573581px;stroke-linecap:butt;stroke-linejoin:miter;stroke-miterlimit:282;stroke-dasharray:none;stroke-opacity:1;" />
  <path
     id="path15"
     d="  M 1083.4024,1178.0865   L 1083.4024,1132.318   L 1116.4826,1132.318   L 1116.4826,1137.7181   L 1089.4444,1137.7181   L 1089.4444,1151.7281   L 1114.7833,1151.7281   L 1114.7833,1157.0904   L 1089.4444,1157.0904   L 1089.4444,1172.6865   L 1117.5399,1172.6865   L 1117.5399,1178.0865   z "
     style="fill:#ff0000;fill-rule:nonzero;fill-opacity:1;stroke:#ff0000;stroke-width:1.0573581px;stroke-linecap:butt;stroke-linejoin:miter;stroke-miterlimit:282;stroke-dasharray:none;stroke-opacity:1;" />
  <path
     id="path17"
     d="  M 1121.0519,1178.8796   L 1134.3066,1131.525   L 1138.8004,1131.525   L 1125.5834,1178.8796   z "
     style="fill:#ff0000;fill-rule:nonzero;fill-opacity:1;stroke:#ff0000;stroke-width:1.0573581px;stroke-linecap:butt;stroke-linejoin:miter;stroke-miterlimit:282;stroke-dasharray:none;stroke-opacity:1;" />
  <path
     id="path19"
     d="  M 1155.3783,1178.0865   L 1155.3783,1137.7181   L 1140.2731,1137.7181   L 1140.2731,1132.318   L 1176.5632,1132.318   L 1176.5632,1137.7181   L 1161.4203,1137.7181   L 1161.4203,1178.0865   z "
     style="fill:#ff0000;fill-rule:nonzero;fill-opacity:1;stroke:#ff0000;stroke-width:1.0573581px;stroke-linecap:butt;stroke-linejoin:miter;stroke-miterlimit:282;stroke-dasharray:none;stroke-opacity:1;" />
</svg>
