<?xml version="1.0" encoding="UTF-8" standalone="no"?>
<svg
   xmlns:dc="http://purl.org/dc/elements/1.1/"
   xmlns:cc="http://creativecommons.org/ns#"
   xmlns:rdf="http://www.w3.org/1999/02/22-rdf-syntax-ns#"
   xmlns:svg="http://www.w3.org/2000/svg"
   xmlns="http://www.w3.org/2000/svg"
   id="svg25"
   height="116.06mm"
   width="135.35001mm"
   version="1.0">
  <metadata
     id="metadata29">
    <rdf:RDF>
      <cc:Work
         rdf:about="">
        <dc:format>image/svg+xml</dc:format>
        <dc:type
           rdf:resource="http://purl.org/dc/dcmitype/StillImage" />
      </cc:Work>
    </rdf:RDF>
  </metadata>
  <defs
     id="defs3">
    <pattern
       y="0"
       x="0"
       height="6"
       width="6"
       patternUnits="userSpaceOnUse"
       id="EMFhbasepattern" />
  </defs>
  <path
     id="path5"
     d="  M 337.26104,384.25381   C 457.14056,384.25381 457.14056,187.6514 337.26104,187.6514   C 337.26104,54.345381 174.2249,54.345381 174.2249,187.6514   C 54.345381,187.6514 54.345381,384.25381 174.2249,384.25381   z "
     style="fill:#ffff80;fill-rule:evenodd;fill-opacity:1;stroke:none;" />
  <path
     id="path7"
     d="  M 337.26104,384.25381   C 457.14056,384.25381 457.14056,187.6514 337.26104,187.6514   C 337.26104,54.345381 174.2249,54.345381 174.2249,187.6514   C 54.345381,187.6514 54.345381,384.25381 174.2249,384.25381  "
     style="fill:none;stroke:#000000;stroke-width:9.5903616px;stroke-linecap:butt;stroke-linejoin:miter;stroke-miterlimit:10;stroke-dasharray:none;stroke-opacity:1;" />
  <path
     id="path9"
     d="  M 179.02008,249.98875   L 179.02008,249.98875   L 217.38152,206.83213   L 217.38152,293.14538   z "
     style="fill:#000000;fill-rule:evenodd;fill-opacity:1;stroke:none;" />
  <path
     id="path11"
     d="  M 179.02008,249.98875   L 179.02008,249.98875   L 217.38152,206.83213   L 217.38152,293.14538   z "
     style="fill:none;stroke:#000000;stroke-width:9.5903616px;stroke-linecap:butt;stroke-linejoin:miter;stroke-miterlimit:10;stroke-dasharray:none;stroke-opacity:1;" />
  <path
     id="path13"
     d="  M 236.56225,249.98875   L 236.56225,249.98875   L 274.92369,206.83213   L 274.92369,293.14538   z "
     style="fill:#000000;fill-rule:evenodd;fill-opacity:1;stroke:none;" />
  <path
     id="path15"
     d="  M 236.56225,249.98875   L 236.56225,249.98875   L 274.92369,206.83213   L 274.92369,293.14538   z "
     style="fill:none;stroke:#000000;stroke-width:9.5903616px;stroke-linecap:butt;stroke-linejoin:miter;stroke-miterlimit:10;stroke-dasharray:none;stroke-opacity:1;" />
  <path
     id="path17"
     d="  M 294.10441,249.98875   L 294.10441,249.98875   L 332.46586,206.83213   L 332.46586,293.14538   z "
     style="fill:#000000;fill-rule:evenodd;fill-opacity:1;stroke:none;" />
  <path
     id="path19"
     d="  M 294.10441,249.98875   L 294.10441,249.98875   L 332.46586,206.83213   L 332.46586,293.14538   z "
     style="fill:none;stroke:#000000;stroke-width:9.5903616px;stroke-linecap:butt;stroke-linejoin:miter;stroke-miterlimit:10;stroke-dasharray:none;stroke-opacity:1;" />
  <path
     id="path21"
     d="  M 179.02008,317.12128   L 179.02008,336.302   L 332.46586,336.302   L 332.46586,317.12128   L 179.02008,317.12128   z "
     style="fill:#000000;fill-rule:evenodd;fill-opacity:1;stroke:none;" />
  <path
     id="path23"
     d="  M 179.02008,317.12128   L 332.46586,317.12128   L 332.46586,336.302   L 179.02008,336.302   z "
     style="fill:none;stroke:#000000;stroke-width:9.5903616px;stroke-linecap:butt;stroke-linejoin:miter;stroke-miterlimit:10;stroke-dasharray:none;stroke-opacity:1;" />
</svg>
