<?xml version="1.0" encoding="UTF-8" standalone="no"?>
<svg
   xmlns:dc="http://purl.org/dc/elements/1.1/"
   xmlns:cc="http://creativecommons.org/ns#"
   xmlns:rdf="http://www.w3.org/1999/02/22-rdf-syntax-ns#"
   xmlns:svg="http://www.w3.org/2000/svg"
   xmlns="http://www.w3.org/2000/svg"
   id="svg17"
   height="112.9mm"
   width="112.9mm"
   version="1.0">
  <metadata
     id="metadata21">
    <rdf:RDF>
      <cc:Work
         rdf:about="">
        <dc:format>image/svg+xml</dc:format>
        <dc:type
           rdf:resource="http://purl.org/dc/dcmitype/StillImage" />
      </cc:Work>
    </rdf:RDF>
  </metadata>
  <defs
     id="defs3">
    <pattern
       y="0"
       x="0"
       height="6"
       width="6"
       patternUnits="userSpaceOnUse"
       id="EMFhbasepattern" />
  </defs>
  <path
     id="path5"
     d="  M 391.92062,391.38808   L 541.15652,391.38808   L 541.15652,583.2682   L 391.92062,583.2682   L 391.92062,391.38808   z "
     style="fill:none;stroke:#000000;stroke-width:5.3258066px;stroke-linecap:butt;stroke-linejoin:miter;stroke-miterlimit:112;stroke-dasharray:none;stroke-opacity:1;" />
  <path
     id="path7"
     d="  M 391.92062,584.36358   L 466.51969,684.53407   L 541.15652,584.36358  "
     style="fill:none;stroke:#000000;stroke-width:5.3258066px;stroke-linecap:butt;stroke-linejoin:miter;stroke-miterlimit:112;stroke-dasharray:none;stroke-opacity:1;" />
  <path
     id="path9"
     d="  M 403.25212,455.3733   L 403.25212,409.59403   L 419.00291,409.59403   C 422.59122,409.59403 425.31078,409.78288 427.1616,410.23614   C 429.80561,410.84049 432.03414,411.93587 433.88496,413.52228   C 436.30234,415.56195 438.11538,418.1682 439.28631,421.34102   C 440.495,424.51384 441.09935,428.13992 441.09935,432.21926   C 441.09935,435.69426 440.68386,438.79153 439.89065,441.47332   C 439.05967,444.15511 438.03984,446.38364 436.7556,448.12114   C 435.47137,449.89641 434.11159,451.25619 432.60072,452.27602   C 431.08985,453.29586 429.23904,454.05129 427.12382,454.58009   C 424.97084,455.1089 422.55345,455.3733 419.75835,455.3733   L 403.25212,455.3733   z  M 409.29559,449.97195   L 419.07846,449.97195   C 422.10019,449.97195 424.47981,449.66978 426.17953,449.1032   C 427.91703,448.53663 429.27681,447.74342 430.29665,446.72359   C 431.73197,445.28826 432.86512,443.36191 433.65832,440.94452   C 434.45153,438.52713 434.86702,435.58094 434.86702,432.14372   C 434.86702,427.34671 434.07381,423.64509 432.4874,421.07662   C 430.93876,418.50814 429.01241,416.80842 426.74611,415.9019   C 425.12193,415.29755 422.51568,414.99538 418.92737,414.99538   L 409.29559,414.99538   L 409.29559,449.97195   z "
     style="fill:#000000;fill-rule:nonzero;fill-opacity:1;stroke:#000000;stroke-width:1.0576069px;stroke-linecap:butt;stroke-linejoin:miter;stroke-miterlimit:112;stroke-dasharray:none;stroke-opacity:1;" />
  <path
     id="path11"
     d="  M 482.11939,439.32034   L 488.20063,440.8312   C 486.91639,445.81706 484.65009,449.59423 481.32618,452.23825   C 478.04005,454.8445 473.99848,456.12873 469.23925,456.12873   C 464.29116,456.12873 460.28736,455.14667 457.19008,453.14477   C 454.0928,451.1051 451.75096,448.19668 450.12678,444.38174   C 448.54037,440.60457 447.70939,436.48746 447.70939,432.14372   C 447.70939,427.34671 448.61591,423.19183 450.46672,419.64129   C 452.27976,416.09075 454.84824,413.40896 458.20992,411.55815   C 461.60937,409.70734 465.27322,408.80082 469.31479,408.80082   C 473.92293,408.80082 477.77565,409.97174 480.87292,412.27581   C 484.00797,414.61766 486.19873,417.90379 487.40742,422.13422   L 481.4395,423.53177   C 480.38189,420.20787 478.83325,417.79048 476.83135,416.24184   C 474.79168,414.73097 472.26098,413.97554 469.20147,413.97554   C 465.68871,413.97554 462.74252,414.80652 460.40067,416.50624   C 458.02106,418.20597 456.3591,420.47227 455.41481,423.30514   C 454.43275,426.13802 453.97949,429.08421 453.97949,432.10595   C 453.97949,435.99643 454.54606,439.39588 455.67921,442.3043   C 456.81236,445.21272 458.54986,447.3657 460.96725,448.80103   C 463.34686,450.23635 465.95311,450.95401 468.74821,450.95401   C 472.14767,450.95401 475.01831,449.97195 477.36016,448.00782   C 479.702,446.08147 481.28841,443.17305 482.11939,439.32034   L 482.11939,439.32034   z "
     style="fill:#000000;fill-rule:nonzero;fill-opacity:1;stroke:#000000;stroke-width:1.0576069px;stroke-linecap:butt;stroke-linejoin:miter;stroke-miterlimit:112;stroke-dasharray:none;stroke-opacity:1;" />
  <path
     id="path13"
     d="  M 495.64165,455.3733   L 495.64165,409.59403   L 501.8362,409.59403   L 525.89676,445.51489   L 525.89676,409.59403   L 531.7136,409.59403   L 531.7136,455.3733   L 525.48127,455.3733   L 501.42072,419.37689   L 501.42072,455.3733   L 495.64165,455.3733   z "
     style="fill:#000000;fill-rule:nonzero;fill-opacity:1;stroke:#000000;stroke-width:1.0576069px;stroke-linecap:butt;stroke-linejoin:miter;stroke-miterlimit:112;stroke-dasharray:none;stroke-opacity:1;" />
  <path
     id="path15"
     d="  M 445.10314,491.70965   C 445.10314,484.07977 447.14281,478.14962 451.22216,473.84365   C 455.3015,469.53768 460.58953,467.38469 467.04849,467.38469   C 471.27892,467.38469 475.05608,468.40453 478.45554,470.40643   C 481.85499,472.4461 484.46123,475.2412 486.2365,478.86728   C 488.01177,482.49336 488.88052,486.57271 488.88052,491.14308   C 488.88052,495.789 487.974,499.94388 486.08541,503.60773   C 484.19683,507.27159 481.55281,510.06669 478.11559,511.95527   C 474.67837,513.84386 470.97674,514.78815 467.01072,514.78815   C 462.70475,514.78815 458.85203,513.73054 455.45258,511.6531   C 452.05313,509.57566 449.48466,506.74278 447.74716,503.1167   C 445.97189,499.52839 445.10314,495.71345 445.10314,491.70965   L 445.10314,491.70965   z  M 451.37324,491.7852   C 451.37324,497.29986 452.84634,501.64361 455.79253,504.81643   C 458.77649,507.98925 462.47812,509.57566 466.97295,509.57566   C 471.54332,509.57566 475.28271,507.98925 478.22891,504.77865   C 481.1751,501.56806 482.64819,497.03546 482.64819,491.14308   C 482.64819,487.40368 482.00607,484.15532 480.75961,481.36021   C 479.51314,478.60288 477.66233,476.4499 475.24494,474.90126   C 472.78978,473.39039 470.07022,472.59718 467.04849,472.59718   C 462.78029,472.59718 459.07866,474.07028 455.98139,477.01647   C 452.88411,479.96266 451.37324,484.91075 451.37324,491.7852   L 451.37324,491.7852   z "
     style="fill:#000000;fill-rule:nonzero;fill-opacity:1;stroke:#000000;stroke-width:1.0576069px;stroke-linecap:butt;stroke-linejoin:miter;stroke-miterlimit:112;stroke-dasharray:none;stroke-opacity:1;" />
</svg>
