<?xml version="1.0" encoding="UTF-8" standalone="no"?>
<svg
   xmlns:dc="http://purl.org/dc/elements/1.1/"
   xmlns:cc="http://creativecommons.org/ns#"
   xmlns:rdf="http://www.w3.org/1999/02/22-rdf-syntax-ns#"
   xmlns:svg="http://www.w3.org/2000/svg"
   xmlns="http://www.w3.org/2000/svg"
   id="svg15"
   height="112.9mm"
   width="112.9mm"
   version="1.0">
  <metadata
     id="metadata19">
    <rdf:RDF>
      <cc:Work
         rdf:about="">
        <dc:format>image/svg+xml</dc:format>
        <dc:type
           rdf:resource="http://purl.org/dc/dcmitype/StillImage" />
      </cc:Work>
    </rdf:RDF>
  </metadata>
  <defs
     id="defs3">
    <pattern
       y="0"
       x="0"
       height="6"
       width="6"
       patternUnits="userSpaceOnUse"
       id="EMFhbasepattern" />
  </defs>
  <path
     id="path5"
     d="  M 451.74134,451.72623   L 600.99177,451.72623   L 600.99177,643.62504   L 451.74134,643.62504   L 451.74134,451.72623   z "
     style="fill:none;stroke:#000000;stroke-width:5.3263254px;stroke-linecap:butt;stroke-linejoin:miter;stroke-miterlimit:112;stroke-dasharray:none;stroke-opacity:1;" />
  <path
     id="path7"
     d="  M 451.74134,644.72053   L 526.34767,744.90078   L 600.99177,644.72053  "
     style="fill:none;stroke:#000000;stroke-width:5.3263254px;stroke-linecap:butt;stroke-linejoin:miter;stroke-miterlimit:112;stroke-dasharray:none;stroke-opacity:1;" />
  <path
     id="path9"
     d="  M 463.07394,515.71768   L 463.07394,469.93395   L 478.82627,469.93395   C 482.41493,469.93395 485.13475,470.12283 486.98575,470.57613   C 489.63002,471.18054 491.85877,472.27602 493.70976,473.86259   C 496.12738,475.90246 497.9406,478.50896 499.11164,481.68209   C 500.32045,484.85522 500.92485,488.48165 500.92485,492.56139   C 500.92485,496.03672 500.50932,499.1343 499.71604,501.81635   C 498.88498,504.4984 497.86505,506.72715 496.58069,508.46481   C 495.29632,510.24026 493.93641,511.60017 492.4254,512.6201   C 490.91438,513.64004 489.06339,514.39554 486.94797,514.9244   C 484.79477,515.45325 482.37715,515.71768 479.58178,515.71768   L 463.07394,515.71768   z  M 469.118,510.31581   L 478.90182,510.31581   C 481.92385,510.31581 484.30369,510.0136 486.00359,509.44697   C 487.74125,508.88034 489.10117,508.08706 490.1211,507.06713   C 491.55656,505.63166 492.68982,503.70512 493.48311,501.2875   C 494.27639,498.86987 494.69192,495.9234 494.69192,492.48584   C 494.69192,487.68837 493.89864,483.98638 492.31207,481.41766   C 490.76328,478.84893 488.83674,477.14904 486.57022,476.24243   C 484.94588,475.63803 482.33938,475.33583 478.75072,475.33583   L 469.118,475.33583   L 469.118,510.31581   z "
     style="fill:#000000;fill-rule:nonzero;fill-opacity:1;stroke:#000000;stroke-width:1.0577101px;stroke-linecap:butt;stroke-linejoin:miter;stroke-miterlimit:112;stroke-dasharray:none;stroke-opacity:1;" />
  <path
     id="path11"
     d="  M 541.94889,499.66316   L 548.03072,501.17417   C 546.74636,506.16052 544.47984,509.93805 541.15561,512.58233   C 537.86915,515.18883 533.82719,516.47319 529.06749,516.47319   C 524.11892,516.47319 520.11473,515.49103 517.01715,513.48894   C 513.91958,511.44907 511.5775,508.54036 509.95316,504.72505   C 508.3666,500.94752 507.53554,496.83 507.53554,492.48584   C 507.53554,487.68837 508.44215,483.53308 510.29314,479.98219   C 512.10636,476.43131 514.67508,473.74926 518.03709,471.89827   C 521.43687,470.04728 525.10108,469.14067 529.14304,469.14067   C 533.75164,469.14067 537.60472,470.3117 540.7023,472.616   C 543.83766,474.95807 546.02863,478.24453 547.23744,482.47537   L 541.26893,483.87306   C 540.21122,480.54882 538.66243,478.1312 536.66034,476.58241   C 534.62047,475.0714 532.08952,474.31589 529.02972,474.31589   C 525.51661,474.31589 522.57013,475.14695 520.22806,476.84684   C 517.84821,478.54673 516.1861,480.81325 515.24171,483.6464   C 514.25955,486.47956 513.80625,489.42603 513.80625,492.44806   C 513.80625,496.33892 514.37288,499.73871 515.50614,502.64741   C 516.6394,505.55611 518.37707,507.70931 520.79469,509.14477   C 523.17454,510.58023 525.78104,511.29797 528.57641,511.29797   C 531.9762,511.29797 534.84712,510.31581 537.1892,508.35149   C 539.53127,506.42494 541.11783,503.51624 541.94889,499.66316   L 541.94889,499.66316   z "
     style="fill:#000000;fill-rule:nonzero;fill-opacity:1;stroke:#000000;stroke-width:1.0577101px;stroke-linecap:butt;stroke-linejoin:miter;stroke-miterlimit:112;stroke-dasharray:none;stroke-opacity:1;" />
  <path
     id="path13"
     d="  M 555.47247,515.71768   L 555.47247,469.93395   L 561.66763,469.93395   L 585.73053,505.85831   L 585.73053,469.93395   L 591.54794,469.93395   L 591.54794,515.71768   L 585.315,515.71768   L 561.2521,479.71777   L 561.2521,515.71768   L 555.47247,515.71768   z "
     style="fill:#000000;fill-rule:nonzero;fill-opacity:1;stroke:#000000;stroke-width:1.0577101px;stroke-linecap:butt;stroke-linejoin:miter;stroke-miterlimit:112;stroke-dasharray:none;stroke-opacity:1;" />
</svg>
