<?xml version="1.0" encoding="UTF-8" standalone="no"?>
<svg
   xmlns:dc="http://purl.org/dc/elements/1.1/"
   xmlns:cc="http://creativecommons.org/ns#"
   xmlns:rdf="http://www.w3.org/1999/02/22-rdf-syntax-ns#"
   xmlns:svg="http://www.w3.org/2000/svg"
   xmlns="http://www.w3.org/2000/svg"
   id="svg17"
   height="112.9mm"
   width="112.9mm"
   version="1.0">
  <metadata
     id="metadata21">
    <rdf:RDF>
      <cc:Work
         rdf:about="">
        <dc:format>image/svg+xml</dc:format>
        <dc:type
           rdf:resource="http://purl.org/dc/dcmitype/StillImage" />
      </cc:Work>
    </rdf:RDF>
  </metadata>
  <defs
     id="defs3">
    <pattern
       y="0"
       x="0"
       height="6"
       width="6"
       patternUnits="userSpaceOnUse"
       id="EMFhbasepattern" />
  </defs>
  <path
     id="path5"
     d="  M 1055.3824,1055.5085   L 1203.488,1055.5085   L 1203.488,1246.2484   L 1055.3824,1246.2484   z "
     style="fill:none;stroke:#ffff00;stroke-width:5.3245535px;stroke-linecap:butt;stroke-linejoin:miter;stroke-miterlimit:282;stroke-dasharray:none;stroke-opacity:1;" />
  <path
     id="path7"
     d="  M 1055.3824,1248.4386   L 1129.9639,1348.5855   L 1204.5832,1248.4386  "
     style="fill:none;stroke:#ffff00;stroke-width:5.3245535px;stroke-linecap:butt;stroke-linejoin:miter;stroke-miterlimit:282;stroke-dasharray:none;stroke-opacity:1;" />
  <path
     id="path9"
     d="  M 1066.7112,1119.4787   L 1066.7112,1073.7102   L 1082.4583,1073.7102   C 1086.0458,1073.7102 1088.7647,1073.899 1090.6151,1074.3522   C 1093.2585,1074.9564 1095.4865,1076.0515 1097.3368,1077.6375   C 1099.7537,1079.6767 1101.5663,1082.2823 1102.7369,1085.4544   C 1103.9453,1088.6265 1104.5495,1092.2517 1104.5495,1096.3301   C 1104.5495,1099.8043 1104.1341,1102.9008 1103.3411,1105.582   C 1102.5103,1108.2631 1101.4908,1110.4911 1100.2068,1112.2282   C 1098.9229,1114.0031 1097.5634,1115.3625 1096.0529,1116.3821   C 1094.5424,1117.4017 1092.692,1118.157 1090.5773,1118.6857   C 1088.4248,1119.2143 1086.008,1119.4787 1083.2136,1119.4787   z  M 1072.7533,1114.0786   L 1082.5338,1114.0786   C 1085.5549,1114.0786 1087.9339,1113.7765 1089.6332,1113.2101   C 1091.3703,1112.6436 1092.7298,1111.8506 1093.7494,1110.831   C 1095.1844,1109.396 1096.3172,1107.4701 1097.1103,1105.0533   C 1097.9033,1102.6365 1098.3187,1099.691 1098.3187,1096.2546   C 1098.3187,1091.4587 1097.5257,1087.7579 1095.9396,1085.1901   C 1094.3913,1082.6222 1092.4654,1080.9229 1090.1997,1080.0166   C 1088.5759,1079.4124 1085.9702,1079.1103 1082.3828,1079.1103   L 1072.7533,1079.1103   z "
     style="fill:#ffff00;fill-rule:nonzero;fill-opacity:1;stroke:#ffff00;stroke-width:1.0573581px;stroke-linecap:butt;stroke-linejoin:miter;stroke-miterlimit:282;stroke-dasharray:none;stroke-opacity:1;" />
  <path
     id="path11"
     d="  M 1145.5599,1103.4295   L 1151.6397,1104.94   C 1150.3558,1109.9247 1148.09,1113.701 1144.7669,1116.3444   C 1141.4815,1118.95 1137.4409,1120.2339 1132.6828,1120.2339   C 1127.7359,1120.2339 1123.733,1119.2521 1120.6365,1117.2507   C 1117.5399,1115.2115 1115.1986,1112.3038 1113.5748,1108.4897   C 1111.9888,1104.7134 1111.158,1100.5973 1111.158,1096.2546   C 1111.158,1091.4587 1112.0643,1087.3048 1113.9147,1083.7551   C 1115.7273,1080.2054 1118.2952,1077.5242 1121.6561,1075.6739   C 1125.0547,1073.8235 1128.7177,1072.9172 1132.7583,1072.9172   C 1137.3654,1072.9172 1141.2172,1074.0878 1144.3138,1076.3913   C 1147.4481,1078.7326 1149.6383,1082.018 1150.8467,1086.2474   L 1144.8802,1087.6447   C 1143.8228,1084.3215 1142.2746,1081.9047 1140.2731,1080.3564   C 1138.2339,1078.8459 1135.7038,1078.0907 1132.6451,1078.0907   C 1129.1331,1078.0907 1126.1876,1078.9215 1123.8463,1080.6208   C 1121.4673,1082.3201 1119.8057,1084.5859 1118.8616,1087.4181   C 1117.8798,1090.2503 1117.4266,1093.1958 1117.4266,1096.2168   C 1117.4266,1100.1064 1117.9931,1103.505 1119.126,1106.4128   C 1120.2589,1109.3205 1121.9959,1111.473 1124.4128,1112.908   C 1126.7918,1114.3429 1129.3975,1115.0604 1132.1919,1115.0604   C 1135.5905,1115.0604 1138.4605,1114.0786 1140.8018,1112.1149   C 1143.1431,1110.189 1144.7291,1107.2813 1145.5599,1103.4295   z "
     style="fill:#ffff00;fill-rule:nonzero;fill-opacity:1;stroke:#ffff00;stroke-width:1.0573581px;stroke-linecap:butt;stroke-linejoin:miter;stroke-miterlimit:282;stroke-dasharray:none;stroke-opacity:1;" />
  <path
     id="path13"
     d="  M 1159.079,1119.4787   L 1159.079,1073.7102   L 1165.2721,1073.7102   L 1189.327,1109.6226   L 1189.327,1073.7102   L 1195.1425,1073.7102   L 1195.1425,1119.4787   L 1188.9116,1119.4787   L 1164.8567,1083.4907   L 1164.8567,1119.4787   z "
     style="fill:#ffff00;fill-rule:nonzero;fill-opacity:1;stroke:#ffff00;stroke-width:1.0573581px;stroke-linecap:butt;stroke-linejoin:miter;stroke-miterlimit:282;stroke-dasharray:none;stroke-opacity:1;" />
  <path
     id="path15"
     d="  M 1108.5524,1155.8065   C 1108.5524,1148.1784 1110.5916,1142.2497 1114.67,1137.9447   C 1118.7483,1133.6397 1124.0351,1131.4873 1130.4926,1131.4873   C 1134.722,1131.4873 1138.4983,1132.5069 1141.8969,1134.5083   C 1145.2956,1136.5475 1147.9012,1139.3419 1149.6761,1142.9671   C 1151.4509,1146.5924 1152.3195,1150.6708 1152.3195,1155.24   C 1152.3195,1159.8849 1151.4132,1164.0388 1149.525,1167.7018   C 1147.6369,1171.3648 1144.9935,1174.1592 1141.5571,1176.0473   C 1138.1207,1177.9355 1134.4199,1178.8796 1130.4548,1178.8796   C 1126.1499,1178.8796 1122.298,1177.8222 1118.8994,1175.7452   C 1115.5007,1173.6683 1112.9329,1170.8361 1111.1958,1167.2109   C 1109.4209,1163.6234 1108.5524,1159.8093 1108.5524,1155.8065   z  M 1114.821,1155.882   C 1114.821,1161.3954 1116.2938,1165.7381 1119.2393,1168.9102   C 1122.2225,1172.0823 1125.9233,1173.6683 1130.417,1173.6683   C 1134.9863,1173.6683 1138.7249,1172.0823 1141.6704,1168.8724   C 1144.6159,1165.6626 1146.0886,1161.131 1146.0886,1155.24   C 1146.0886,1151.5015 1145.4466,1148.2539 1144.2005,1145.4595   C 1142.9543,1142.7028 1141.1039,1140.5503 1138.6871,1139.0021   C 1136.2325,1137.4915 1133.5136,1136.6985 1130.4926,1136.6985   C 1126.2254,1136.6985 1122.5246,1138.1713 1119.4281,1141.1168   C 1116.3315,1144.0623 1114.821,1149.0092 1114.821,1155.882   z "
     style="fill:#ffff00;fill-rule:nonzero;fill-opacity:1;stroke:#ffff00;stroke-width:1.0573581px;stroke-linecap:butt;stroke-linejoin:miter;stroke-miterlimit:282;stroke-dasharray:none;stroke-opacity:1;" />
</svg>
