<?xml version="1.0" encoding="UTF-8" standalone="no"?>
<svg
   xmlns:dc="http://purl.org/dc/elements/1.1/"
   xmlns:cc="http://creativecommons.org/ns#"
   xmlns:rdf="http://www.w3.org/1999/02/22-rdf-syntax-ns#"
   xmlns:svg="http://www.w3.org/2000/svg"
   xmlns="http://www.w3.org/2000/svg"
   id="svg11"
   height="89.669998mm"
   width="120.11mm"
   version="1.0">
  <metadata
     id="metadata15">
    <rdf:RDF>
      <cc:Work
         rdf:about="">
        <dc:format>image/svg+xml</dc:format>
        <dc:type
           rdf:resource="http://purl.org/dc/dcmitype/StillImage" />
      </cc:Work>
    </rdf:RDF>
  </metadata>
  <defs
     id="defs3">
    <pattern
       y="0"
       x="0"
       height="6"
       width="6"
       patternUnits="userSpaceOnUse"
       id="EMFhbasepattern" />
  </defs>
  <path
     id="path5"
     d="  M 54.345381,54.345381   L 54.345381,284.51405   L 399.59839,284.51405   L 399.59839,54.345381   L 54.345381,54.345381   z "
     style="fill:#80e0ff;fill-rule:evenodd;fill-opacity:1;stroke:none;" />
  <path
     id="path7"
     d="  M 54.345381,54.345381   L 399.59839,54.345381   L 399.59839,284.51405   L 54.345381,284.51405   z "
     style="fill:none;stroke:#000000;stroke-width:9.5903616px;stroke-linecap:butt;stroke-linejoin:miter;stroke-miterlimit:10;stroke-dasharray:none;stroke-opacity:1;" />
  <path
     id="path9"
     d="  M 134.50482,188.53052   L 134.50482,137.02229   L 144.7745,137.02229   L 156.96225,173.50562   C 158.08112,176.90221 158.88032,179.41968 159.3998,181.13795   C 159.99919,179.25984 160.91827,176.50261 162.15703,172.86626   L 174.46466,137.02229   L 183.65542,137.02229   L 183.65542,188.53052   L 177.06205,188.53052   L 177.06205,145.45381   L 162.11707,188.53052   L 155.96325,188.53052   L 141.05823,144.69458   L 141.05823,188.53052   z  M 188.97008,188.53052   L 208.7502,137.02229   L 216.10281,137.02229   L 237.16164,188.53052   L 229.40943,188.53052   L 223.41546,172.94618   L 201.87711,172.94618   L 196.20281,188.53052   z  M 203.83514,167.39176   L 221.29759,167.39176   L 215.90301,153.1261   C 214.26466,148.81044 213.06586,145.25401 212.26666,142.45683   C 211.62731,145.77349 210.66827,149.0502 209.50943,152.28695   z  M 240.27851,171.98715   L 246.71204,171.42771   C 247.03172,173.98514 247.751,176.10301 248.82992,177.78132   C 249.94879,179.41968 251.66706,180.73835 254.0247,181.77731   C 256.38233,182.7763 259.01967,183.29578 261.93674,183.29578   C 264.53413,183.29578 266.81184,182.89618 268.80984,182.13695   C 270.80783,181.37771 272.28634,180.29879 273.24538,178.98012   C 274.24437,177.62148 274.72389,176.14297 274.72389,174.54458   C 274.72389,172.94618 274.24437,171.54759 273.28534,170.30883   C 272.36626,169.11004 270.80783,168.11104 268.65,167.27189   C 267.29136,166.75241 264.21445,165.91325 259.49919,164.75442   C 254.78393,163.63554 251.46727,162.55662 249.54919,161.55763   C 247.11164,160.27891 245.27349,158.68052 244.0747,156.76245   C 242.8759,154.84438 242.2765,152.7265 242.2765,150.36887   C 242.2765,147.77148 242.99578,145.33393 244.47429,143.05622   C 245.95281,140.81847 248.11064,139.1002 250.94779,137.94136   C 253.78494,136.74257 256.9018,136.18313 260.37831,136.18313   C 264.21445,136.18313 267.57108,136.78253 270.48815,138.02128   C 273.40522,139.22008 275.64297,141.05823 277.2014,143.41586   C 278.75984,145.81345 279.59899,148.53072 279.71887,151.52771   L 273.20542,152.04719   C 272.84578,148.77048 271.64698,146.33293 269.64899,144.65462   C 267.61104,143.01626 264.61405,142.17711 260.65803,142.17711   C 256.54216,142.17711 253.54518,142.93634 251.66706,144.45482   C 249.78895,145.93333 248.82992,147.77148 248.82992,149.88936   C 248.82992,151.76747 249.50923,153.28594 250.82791,154.44478   C 252.14658,155.64357 255.58313,156.88233 261.09759,158.12108   C 266.652,159.3998 270.44819,160.47871 272.48614,161.39779   C 275.48313,162.79638 277.72088,164.55462 279.11947,166.67249   C 280.55803,168.79036 281.27731,171.22791 281.27731,173.98514   C 281.27731,176.74237 280.47811,179.2998 278.91967,181.73735   C 277.36124,184.1749 275.08353,186.05301 272.16646,187.37168   C 269.20943,188.73032 265.93273,189.40964 262.25642,189.40964   C 257.58112,189.40964 253.66506,188.73032 250.54819,187.37168   C 247.39136,186.01305 244.91385,183.9751 243.11566,181.25783   C 241.31747,178.5006 240.39839,175.42369 240.27851,171.98715   z  M 288.27028,171.98715   L 294.70381,171.42771   C 294.98353,173.98514 295.70281,176.10301 296.82168,177.78132   C 297.94056,179.41968 299.65883,180.73835 302.01646,181.77731   C 304.33413,182.7763 306.97148,183.29578 309.88855,183.29578   C 312.48594,183.29578 314.80361,182.89618 316.8016,182.13695   C 318.75963,181.37771 320.23815,180.29879 321.23714,178.98012   C 322.19618,177.62148 322.6757,176.14297 322.6757,174.54458   C 322.6757,172.94618 322.23614,171.54759 321.2771,170.30883   C 320.35803,169.11004 318.79959,168.11104 316.64176,167.27189   C 315.28313,166.75241 312.20622,165.91325 307.49096,164.75442   C 302.73574,163.63554 299.41907,162.55662 297.54096,161.55763   C 295.06345,160.27891 293.26526,158.68052 292.0265,156.76245   C 290.82771,154.84438 290.22831,152.7265 290.22831,150.36887   C 290.22831,147.77148 290.98755,145.33393 292.46606,143.05622   C 293.90461,140.81847 296.06245,139.1002 298.89959,137.94136   C 301.73674,136.74257 304.89357,136.18313 308.37008,136.18313   C 312.16626,136.18313 315.52289,136.78253 318.43996,138.02128   C 321.35702,139.22008 323.59477,141.05823 325.19317,143.41586   C 326.7516,145.81345 327.59076,148.53072 327.71064,151.52771   L 321.15722,152.04719   C 320.83755,148.77048 319.63875,146.33293 317.6008,144.65462   C 315.60281,143.01626 312.60582,142.17711 308.64979,142.17711   C 304.53393,142.17711 301.49698,142.93634 299.61887,144.45482   C 297.74076,145.93333 296.78172,147.77148 296.78172,149.88936   C 296.78172,151.76747 297.46104,153.28594 298.81967,154.44478   C 300.09839,155.64357 303.53494,156.88233 309.08935,158.12108   C 314.60381,159.3998 318.4,160.47871 320.47791,161.39779   C 323.47489,162.79638 325.67269,164.55462 327.11124,166.67249   C 328.54979,168.79036 329.26907,171.22791 329.26907,173.98514   C 329.26907,176.74237 328.46987,179.2998 326.91144,181.73735   C 325.31305,184.1749 323.0753,186.05301 320.15823,187.37168   C 317.2012,188.73032 313.88453,189.40964 310.20823,189.40964   C 305.57289,189.40964 301.65682,188.73032 298.5,187.37168   C 295.34317,186.01305 292.86566,183.9751 291.10743,181.25783   C 289.30923,178.5006 288.3502,175.42369 288.27028,171.98715   z "
     style="fill:#000000;fill-rule:evenodd;fill-opacity:1;stroke:none;" />
</svg>
