<?xml version="1.0" encoding="UTF-8" standalone="no"?>
<svg
   xmlns:dc="http://purl.org/dc/elements/1.1/"
   xmlns:cc="http://creativecommons.org/ns#"
   xmlns:rdf="http://www.w3.org/1999/02/22-rdf-syntax-ns#"
   xmlns:svg="http://www.w3.org/2000/svg"
   xmlns="http://www.w3.org/2000/svg"
   id="svg17"
   height="95.75mm"
   width="95.75mm"
   version="1.0">
  <metadata
     id="metadata21">
    <rdf:RDF>
      <cc:Work
         rdf:about="">
        <dc:format>image/svg+xml</dc:format>
        <dc:type
           rdf:resource="http://purl.org/dc/dcmitype/StillImage" />
      </cc:Work>
    </rdf:RDF>
  </metadata>
  <defs
     id="defs3">
    <pattern
       y="0"
       x="0"
       height="6"
       width="6"
       patternUnits="userSpaceOnUse"
       id="EMFhbasepattern" />
  </defs>
  <path
     id="path5"
     d="  M 54.345381,54.345381   L 54.345381,307.53092   L 307.53092,307.53092   L 307.53092,54.345381   L 54.345381,54.345381   z "
     style="fill:#aaffaa;fill-rule:evenodd;fill-opacity:1;stroke:none;" />
  <path
     id="path7"
     d="  M 54.345381,54.345381   L 307.53092,54.345381   L 307.53092,307.53092   L 54.345381,307.53092   z "
     style="fill:none;stroke:#000000;stroke-width:9.5903616px;stroke-linecap:butt;stroke-linejoin:miter;stroke-miterlimit:10;stroke-dasharray:none;stroke-opacity:1;" />
  <path
     id="path9"
     d="  M 180.93815,54.345381   L 180.93815,307.53092  "
     style="fill:none;stroke:#000000;stroke-width:9.5903616px;stroke-linecap:butt;stroke-linejoin:miter;stroke-miterlimit:10;stroke-dasharray:none;stroke-opacity:1;" />
  <path
     id="path11"
     d="  M 54.345381,180.93815   L 272.04658,180.93815  "
     style="fill:none;stroke:#000000;stroke-width:9.5903616px;stroke-linecap:butt;stroke-linejoin:miter;stroke-miterlimit:10;stroke-dasharray:none;stroke-opacity:1;" />
  <path
     id="path13"
     d="  M 307.53092,54.345381   L 307.53092,54.345381   L 272.04658,180.93815   L 307.53092,307.53092  "
     style="fill:none;stroke:#000000;stroke-width:9.5903616px;stroke-linecap:butt;stroke-linejoin:miter;stroke-miterlimit:10;stroke-dasharray:none;stroke-opacity:1;" />
  <path
     id="path15"
     d="  M 216.46245,244.55421   L 216.46245,203.35562   L 230.64819,203.35562   C 233.84498,203.35562 236.32249,203.55542 238.0008,203.95502   C 240.35843,204.51445 242.35642,205.47349 244.03474,206.91205   C 246.19257,208.7502 247.83092,211.10783 248.90984,213.94498   C 249.98875,216.82209 250.50823,220.05883 250.50823,223.73514   C 250.50823,226.852 250.14859,229.64919 249.42931,232.04678   C 248.71004,234.48433 247.751,236.48233 246.63212,238.04076   C 245.47329,239.63915 244.23453,240.87791 242.8759,241.79698   C 241.51727,242.71606 239.87891,243.39538 237.96084,243.8749   C 236.04277,244.31445 233.80502,244.55421 231.32751,244.55421   z  M 221.93694,239.67911   L 230.72811,239.67911   C 233.44538,239.67911 235.56325,239.43935 237.12168,238.91988   C 238.64016,238.44036 239.87891,237.72108 240.79799,236.802   C 242.0767,235.52329 243.11566,233.76506 243.83494,231.60723   C 244.55421,229.40943 244.91385,226.77209 244.91385,223.65522   C 244.91385,219.33956 244.19457,216.02289 242.79598,213.70522   C 241.35743,211.42751 239.63915,209.86907 237.64116,209.06988   C 236.16265,208.51044 233.80502,208.23072 230.56827,208.23072   L 221.93694,208.23072   z "
     style="fill:#000000;fill-rule:evenodd;fill-opacity:1;stroke:none;" />
</svg>
