<?xml version="1.0" encoding="UTF-8" standalone="no"?>
<svg
   xmlns:dc="http://purl.org/dc/elements/1.1/"
   xmlns:cc="http://creativecommons.org/ns#"
   xmlns:rdf="http://www.w3.org/1999/02/22-rdf-syntax-ns#"
   xmlns:svg="http://www.w3.org/2000/svg"
   xmlns="http://www.w3.org/2000/svg"
   id="svg11"
   height="101.85mm"
   width="101.85mm"
   version="1.0">
  <metadata
     id="metadata15">
    <rdf:RDF>
      <cc:Work
         rdf:about="">
        <dc:format>image/svg+xml</dc:format>
        <dc:type
           rdf:resource="http://purl.org/dc/dcmitype/StillImage" />
      </cc:Work>
    </rdf:RDF>
  </metadata>
  <defs
     id="defs3">
    <pattern
       y="0"
       x="0"
       height="6"
       width="6"
       patternUnits="userSpaceOnUse"
       id="EMFhbasepattern" />
  </defs>
  <path
     id="path5"
     d="  M 330.54779,192.44658   C 330.54779,268.72992 268.72992,330.54779 192.44658,330.54779   C 116.20321,330.54779 54.345381,268.72992 54.345381,192.44658   C 54.345381,116.20321 116.20321,54.345381 192.44658,54.345381   C 268.72992,54.345381 330.54779,116.20321 330.54779,192.44658   z "
     style="fill:#80e0ff;fill-rule:evenodd;fill-opacity:1;stroke:none;" />
  <path
     id="path7"
     d="  M 330.54779,192.44658   C 330.54779,268.72992 268.72992,330.54779 192.44658,330.54779   C 116.20321,330.54779 54.345381,268.72992 54.345381,192.44658   C 54.345381,116.20321 116.20321,54.345381 192.44658,54.345381   C 268.72992,54.345381 330.54779,116.20321 330.54779,192.44658  "
     style="fill:none;stroke:#000000;stroke-width:9.5903616px;stroke-linecap:butt;stroke-linejoin:miter;stroke-miterlimit:10;stroke-dasharray:none;stroke-opacity:1;" />
  <path
     id="path9"
     d="  M 114.60482,227.69116   L 114.60482,131.58775   L 147.69156,131.58775   C 155.16405,131.58775 160.87831,132.06727 164.79438,132.94638   C 170.30883,134.2251 175.02409,136.54277 178.9002,139.85944   C 183.9751,144.13514 187.77128,149.60964 190.28875,156.28293   C 192.80622,162.95622 194.04498,170.54859 194.04498,179.1   C 194.04498,186.41265 193.20582,192.88614 191.48755,198.52048   C 189.76927,204.15482 187.61144,208.83012 184.93413,212.50642   C 182.25682,216.22269 179.33976,219.13976 176.18293,221.25763   C 173.0261,223.3755 169.18996,224.97389 164.71446,226.05281   C 160.23895,227.17168 155.08413,227.69116 149.28996,227.69116   z  M 127.31205,216.34257   L 147.81144,216.34257   C 154.16506,216.34257 159.12008,215.78313 162.75642,214.58433   C 166.35281,213.4255 169.22992,211.74719 171.34779,209.58935   C 174.38474,206.59237 176.74237,202.55642 178.42068,197.44156   C 180.09899,192.36666 180.93815,186.17289 180.93815,178.94016   C 180.93815,168.87028 179.2998,161.15803 175.98313,155.76345   C 172.70642,150.36887 168.67048,146.73253 163.95522,144.89438   C 160.55863,143.5757 155.08413,142.93634 147.49176,142.93634   L 127.31205,142.93634   z  M 211.54739,227.69116   L 211.54739,131.58775   L 244.67409,131.58775   C 252.14658,131.58775 257.82088,132.06727 261.7769,132.94638   C 267.29136,134.2251 271.96666,136.54277 275.88273,139.85944   C 280.95763,144.13514 284.71385,149.60964 287.23132,156.28293   C 289.74879,162.95622 291.02751,170.54859 291.02751,179.1   C 291.02751,186.41265 290.14839,192.88614 288.47008,198.52048   C 286.7518,204.15482 284.55401,208.83012 281.91666,212.50642   C 279.23935,216.22269 276.32229,219.13976 273.16546,221.25763   C 269.96867,223.3755 266.17249,224.97389 261.65702,226.05281   C 257.18152,227.17168 252.06666,227.69116 246.23253,227.69116   z  M 224.25462,216.34257   L 244.79397,216.34257   C 251.14759,216.34257 256.10261,215.78313 259.69899,214.58433   C 263.29538,213.4255 266.17249,211.74719 268.33032,209.58935   C 271.32731,206.59237 273.68494,202.55642 275.36325,197.44156   C 277.04156,192.36666 277.88072,186.17289 277.88072,178.94016   C 277.88072,168.87028 276.24237,161.15803 272.96566,155.76345   C 269.64899,150.36887 265.65301,146.73253 260.93775,144.89438   C 257.5012,143.5757 252.0267,142.93634 244.47429,142.93634   L 224.25462,142.93634   z "
     style="fill:#000000;fill-rule:evenodd;fill-opacity:1;stroke:none;" />
</svg>
