<?xml version="1.0" encoding="UTF-8" standalone="no"?>
<svg
   xmlns:dc="http://purl.org/dc/elements/1.1/"
   xmlns:cc="http://creativecommons.org/ns#"
   xmlns:rdf="http://www.w3.org/1999/02/22-rdf-syntax-ns#"
   xmlns:svg="http://www.w3.org/2000/svg"
   xmlns="http://www.w3.org/2000/svg"
   id="svg15"
   height="112.9mm"
   width="112.9mm"
   version="1.0">
  <metadata
     id="metadata19">
    <rdf:RDF>
      <cc:Work
         rdf:about="">
        <dc:format>image/svg+xml</dc:format>
        <dc:type
           rdf:resource="http://purl.org/dc/dcmitype/StillImage" />
      </cc:Work>
    </rdf:RDF>
  </metadata>
  <defs
     id="defs3">
    <pattern
       y="0"
       x="0"
       height="6"
       width="6"
       patternUnits="userSpaceOnUse"
       id="EMFhbasepattern" />
  </defs>
  <path
     id="path5"
     d="  M 451.74134,451.72623   L 600.99177,451.72623   L 600.99177,643.62504   L 451.74134,643.62504   L 451.74134,451.72623   z "
     style="fill:none;stroke:#000000;stroke-width:5.3263254px;stroke-linecap:butt;stroke-linejoin:miter;stroke-miterlimit:112;stroke-dasharray:none;stroke-opacity:1;" />
  <path
     id="path7"
     d="  M 451.74134,644.72053   L 526.34767,744.90078   L 600.99177,644.72053  "
     style="fill:none;stroke:#000000;stroke-width:5.3263254px;stroke-linecap:butt;stroke-linejoin:miter;stroke-miterlimit:112;stroke-dasharray:none;stroke-opacity:1;" />
  <path
     id="path9"
     d="  M 465.18936,515.71768   L 465.18936,469.93395   L 480.97946,469.93395   C 484.53035,469.93395 487.25017,470.12283 489.13894,470.57613   C 491.74544,471.18054 493.97419,472.27602 495.82518,473.86259   C 498.2428,475.90246 500.05602,478.50896 501.26483,481.68209   C 502.47364,484.85522 503.04027,488.48165 503.04027,492.56139   C 503.04027,496.03672 502.66252,499.1343 501.83146,501.81635   C 501.03818,504.4984 499.98047,506.72715 498.69611,508.46481   C 497.44952,510.24026 496.05183,511.60017 494.54082,512.6201   C 493.0298,513.64004 491.21659,514.39554 489.06339,514.9244   C 486.94797,515.45325 484.49257,515.71768 481.73497,515.71768   L 465.18936,515.71768   z  M 471.2712,510.31581   L 481.05501,510.31581   C 484.03927,510.31581 486.41912,510.0136 488.15678,509.44697   C 489.85667,508.88034 491.21659,508.08706 492.23652,507.06713   C 493.67198,505.63166 494.80524,503.70512 495.59853,501.2875   C 496.39181,498.86987 496.80734,495.9234 496.80734,492.48584   C 496.80734,487.68837 496.01406,483.98638 494.46527,481.41766   C 492.8787,478.84893 490.95216,477.14904 488.72341,476.24243   C 487.09907,475.63803 484.49257,475.33583 480.86614,475.33583   L 471.2712,475.33583   L 471.2712,510.31581   z "
     style="fill:#000000;fill-rule:nonzero;fill-opacity:1;stroke:#000000;stroke-width:1.0577101px;stroke-linecap:butt;stroke-linejoin:miter;stroke-miterlimit:112;stroke-dasharray:none;stroke-opacity:1;" />
  <path
     id="path11"
     d="  M 511.53973,515.71768   L 511.53973,469.93395   L 544.66872,469.93395   L 544.66872,475.33583   L 517.62156,475.33583   L 517.62156,489.35048   L 542.93105,489.35048   L 542.93105,494.71458   L 517.62156,494.71458   L 517.62156,510.31581   L 545.72643,510.31581   L 545.72643,515.71768   L 511.53973,515.71768   z "
     style="fill:#000000;fill-rule:nonzero;fill-opacity:1;stroke:#000000;stroke-width:1.0577101px;stroke-linecap:butt;stroke-linejoin:miter;stroke-miterlimit:112;stroke-dasharray:none;stroke-opacity:1;" />
  <path
     id="path13"
     d="  M 565.82292,515.71768   L 565.82292,475.33583   L 550.71277,475.33583   L 550.71277,469.93395   L 587.01489,469.93395   L 587.01489,475.33583   L 571.86697,475.33583   L 571.86697,515.71768   L 565.82292,515.71768   z "
     style="fill:#000000;fill-rule:nonzero;fill-opacity:1;stroke:#000000;stroke-width:1.0577101px;stroke-linecap:butt;stroke-linejoin:miter;stroke-miterlimit:112;stroke-dasharray:none;stroke-opacity:1;" />
</svg>
