<?xml version="1.0" encoding="UTF-8" standalone="no"?>
<svg
   xmlns:dc="http://purl.org/dc/elements/1.1/"
   xmlns:cc="http://creativecommons.org/ns#"
   xmlns:rdf="http://www.w3.org/1999/02/22-rdf-syntax-ns#"
   xmlns:svg="http://www.w3.org/2000/svg"
   xmlns="http://www.w3.org/2000/svg"
   id="svg11"
   height="95.75mm"
   width="95.75mm"
   version="1.0">
  <metadata
     id="metadata15">
    <rdf:RDF>
      <cc:Work
         rdf:about="">
        <dc:format>image/svg+xml</dc:format>
        <dc:type
           rdf:resource="http://purl.org/dc/dcmitype/StillImage" />
      </cc:Work>
    </rdf:RDF>
  </metadata>
  <defs
     id="defs3">
    <pattern
       y="0"
       x="0"
       height="6"
       width="6"
       patternUnits="userSpaceOnUse"
       id="EMFhbasepattern" />
  </defs>
  <path
     id="path5"
     d="  M 54.345381,54.345381   L 54.345381,307.53092   L 307.53092,307.53092   L 307.53092,54.345381   L 54.345381,54.345381   z "
     style="fill:#aaffaa;fill-rule:evenodd;fill-opacity:1;stroke:none;" />
  <path
     id="path7"
     d="  M 54.345381,54.345381   L 307.53092,54.345381   L 307.53092,307.53092   L 54.345381,307.53092   z "
     style="fill:none;stroke:#000000;stroke-width:9.5903616px;stroke-linecap:butt;stroke-linejoin:miter;stroke-miterlimit:10;stroke-dasharray:none;stroke-opacity:1;" />
  <path
     id="path9"
     d="  M 138.74056,121.51787   L 149.6496,121.51787   L 149.6496,213.46546   L 138.74056,213.46546   L 138.74056,121.51787  z    M 174.58454,161.15803   L 174.58454,149.13012   L 149.6496,149.13012   L 149.6496,161.15803   L 174.58454,161.15803  z    M 174.58454,184.97409   L 174.58454,173.14598   L 149.6496,173.14598   L 149.6496,184.97409   L 174.58454,184.97409  z    M 186.29277,81.198392   L 186.29277,281.39718   L 174.58454,280.95763   L 174.58454,81.198392   L 186.29277,81.198392  z    M 208.87008,161.15803   L 208.87008,149.13012   L 186.29277,149.13012   L 186.29277,161.15803   L 208.87008,161.15803  z    M 208.87008,185.81325   L 208.87008,173.14598   L 186.29277,173.14598   L 186.29277,185.81325   L 208.87008,185.81325  z    M 208.87008,121.51787   L 220.57831,121.51787   L 220.57831,213.46546   L 208.87008,213.46546   L 208.87008,121.51787  z   "
     style="fill:#000000;fill-rule:evenodd;fill-opacity:1;stroke:none;" />
</svg>
