<?xml version="1.0" encoding="UTF-8" standalone="no"?>
<svg
   xmlns:dc="http://purl.org/dc/elements/1.1/"
   xmlns:cc="http://creativecommons.org/ns#"
   xmlns:rdf="http://www.w3.org/1999/02/22-rdf-syntax-ns#"
   xmlns:svg="http://www.w3.org/2000/svg"
   xmlns="http://www.w3.org/2000/svg"
   id="svg11"
   height="95.75mm"
   width="95.75mm"
   version="1.0">
  <metadata
     id="metadata15">
    <rdf:RDF>
      <cc:Work
         rdf:about="">
        <dc:format>image/svg+xml</dc:format>
        <dc:type
           rdf:resource="http://purl.org/dc/dcmitype/StillImage" />
      </cc:Work>
    </rdf:RDF>
  </metadata>
  <defs
     id="defs3">
    <pattern
       y="0"
       x="0"
       height="6"
       width="6"
       patternUnits="userSpaceOnUse"
       id="EMFhbasepattern" />
  </defs>
  <path
     id="path5"
     d="  M 54.345381,54.345381   L 54.345381,307.53092   L 307.53092,307.53092   L 307.53092,54.345381   L 54.345381,54.345381   z "
     style="fill:#aaffaa;fill-rule:evenodd;fill-opacity:1;stroke:none;" />
  <path
     id="path7"
     d="  M 54.345381,54.345381   L 307.53092,54.345381   L 307.53092,307.53092   L 54.345381,307.53092   z "
     style="fill:none;stroke:#000000;stroke-width:9.5903616px;stroke-linecap:butt;stroke-linejoin:miter;stroke-miterlimit:10;stroke-dasharray:none;stroke-opacity:1;" />
  <path
     id="path9"
     d="  M 230.48835,261.49718   L 131.94739,261.49718   C 114.7247,261.49718 106.13333,256.06265 106.13333,245.15361   C 106.13333,237.64116 110.44899,232.84598 119.04036,230.76807   C 123.0763,229.72911 130.26907,229.20964 140.65863,229.20964   L 235.40341,229.20964   C 252.10662,229.20964 260.41827,234.52429 260.41827,245.15361   C 260.41827,256.06265 250.46827,261.49718 230.48835,261.49718   z  M 131.26807,235.12369   C 122.43695,235.12369 118.0014,238.56024 118.0014,245.35341   C 118.0014,252.18654 125.59377,255.58313 140.73855,255.58313   L 234.20462,255.58313   C 243.75502,255.58313 248.59016,252.14658 248.59016,245.19357   C 248.59016,239.99879 246.03273,236.76204 240.99779,235.52329   C 239.23955,235.28353 234.56425,235.12369 227.01184,235.12369   z  M 148.33092,107.89156   L 156.92229,107.89156   L 156.92229,187.6514   L 148.33092,187.6514   z  M 176.70241,148.09116   L 176.70241,139.4998   L 156.92229,139.4998   L 156.92229,148.09116   z  M 186.57249,71.608031   L 186.57249,228.81004   L 176.70241,229.20964   L 176.70241,71.608031   z  M 203.71526,148.09116   L 203.71526,139.1002   L 186.57249,139.45984   L 186.57249,148.09116   z  M 203.71526,107.89156   L 212.30662,107.89156   L 212.30662,187.6514   L 203.71526,187.6514   z "
     style="fill:#000000;fill-rule:evenodd;fill-opacity:1;stroke:none;" />
</svg>
