<?xml version="1.0" encoding="UTF-8" standalone="no"?>
<svg
   xmlns:dc="http://purl.org/dc/elements/1.1/"
   xmlns:cc="http://creativecommons.org/ns#"
   xmlns:rdf="http://www.w3.org/1999/02/22-rdf-syntax-ns#"
   xmlns:svg="http://www.w3.org/2000/svg"
   xmlns="http://www.w3.org/2000/svg"
   id="svg19"
   height="130.27mm"
   width="130.27mm"
   version="1.0">
  <metadata
     id="metadata23">
    <rdf:RDF>
      <cc:Work
         rdf:about="">
        <dc:format>image/svg+xml</dc:format>
        <dc:type
           rdf:resource="http://purl.org/dc/dcmitype/StillImage" />
      </cc:Work>
    </rdf:RDF>
  </metadata>
  <defs
     id="defs3">
    <pattern
       y="0"
       x="0"
       height="6"
       width="6"
       patternUnits="userSpaceOnUse"
       id="EMFhbasepattern" />
  </defs>
  <path
     id="path5"
     d="  M 164.63454,327.67068   C 164.63454,437.95983 327.67068,437.95983 327.67068,327.67068   C 437.95983,327.67068 437.95983,164.63454 327.67068,164.63454   C 327.67068,54.345381 164.63454,54.345381 164.63454,164.63454   C 54.345381,164.63454 54.345381,327.67068 164.63454,327.67068   z "
     style="fill:#ffff80;fill-rule:evenodd;fill-opacity:1;stroke:none;" />
  <path
     id="path7"
     d="  M 164.63454,327.67068   C 164.63454,437.95983 327.67068,437.95983 327.67068,327.67068   C 437.95983,327.67068 437.95983,164.63454 327.67068,164.63454   C 327.67068,54.345381 164.63454,54.345381 164.63454,164.63454   C 54.345381,164.63454 54.345381,327.67068 164.63454,327.67068  "
     style="fill:none;stroke:#000000;stroke-width:9.5903616px;stroke-linecap:butt;stroke-linejoin:miter;stroke-miterlimit:10;stroke-dasharray:none;stroke-opacity:1;" />
  <path
     id="path9"
     d="  M 173.2259,301.69678   L 173.2259,250.18855   L 210.42851,250.18855   L 210.42851,256.30241   L 180.01907,256.30241   L 180.01907,272.04658   L 208.51044,272.04658   L 208.51044,278.08052   L 180.01907,278.08052   L 180.01907,295.62289   L 211.62731,295.62289   L 211.62731,301.69678   z "
     style="fill:#000000;fill-rule:evenodd;fill-opacity:1;stroke:none;" />
  <path
     id="path11"
     d="  M 273.64498,301.69678   L 259.97871,250.18855   L 266.97168,250.18855   L 274.80381,283.95461   C 275.64297,287.51104 276.4022,291.02751 277.0016,294.50401   C 278.32028,288.98955 279.07951,285.83273 279.31927,284.99357   L 289.10943,250.18855   L 297.34116,250.18855   L 304.69377,276.28233   C 306.57188,282.71586 307.89056,288.78975 308.68975,294.50401   C 309.36907,291.22731 310.20823,287.51104 311.28714,283.2753   L 319.35903,250.18855   L 326.19216,250.18855   L 312.08634,301.69678   L 305.53293,301.69678   L 294.66385,262.45622   C 293.74477,259.17951 293.2253,257.18152 293.0255,256.42229   C 292.50602,258.77992 291.98654,260.81787 291.54698,262.45622   L 280.59799,301.69678   z "
     style="fill:#000000;fill-rule:evenodd;fill-opacity:1;stroke:none;" />
  <path
     id="path13"
     d="  M 246.15261,152.16707   L 246.15261,348.76947  "
     style="fill:none;stroke:#000000;stroke-width:9.5903616px;stroke-linecap:butt;stroke-linejoin:miter;stroke-miterlimit:10;stroke-dasharray:none;stroke-opacity:1;" />
  <path
     id="path15"
     d="  M 249.02972,144.49478   L 159.83936,233.68514  "
     style="fill:none;stroke:#000000;stroke-width:9.5903616px;stroke-linecap:butt;stroke-linejoin:miter;stroke-miterlimit:10;stroke-dasharray:none;stroke-opacity:1;" />
  <path
     id="path17"
     d="  M 243.2755,144.49478   L 332.46586,233.68514  "
     style="fill:none;stroke:#000000;stroke-width:9.5903616px;stroke-linecap:butt;stroke-linejoin:miter;stroke-miterlimit:10;stroke-dasharray:none;stroke-opacity:1;" />
</svg>
