<?xml version="1.0" encoding="UTF-8" standalone="no"?>
<svg
   xmlns:dc="http://purl.org/dc/elements/1.1/"
   xmlns:cc="http://creativecommons.org/ns#"
   xmlns:rdf="http://www.w3.org/1999/02/22-rdf-syntax-ns#"
   xmlns:svg="http://www.w3.org/2000/svg"
   xmlns="http://www.w3.org/2000/svg"
   id="svg11"
   height="101.85mm"
   width="101.85mm"
   version="1.0">
  <metadata
     id="metadata15">
    <rdf:RDF>
      <cc:Work
         rdf:about="">
        <dc:format>image/svg+xml</dc:format>
        <dc:type
           rdf:resource="http://purl.org/dc/dcmitype/StillImage" />
      </cc:Work>
    </rdf:RDF>
  </metadata>
  <defs
     id="defs3">
    <pattern
       y="0"
       x="0"
       height="6"
       width="6"
       patternUnits="userSpaceOnUse"
       id="EMFhbasepattern" />
  </defs>
  <path
     id="path5"
     d="  M 330.54779,192.44658   C 330.54779,268.72992 268.72992,330.54779 192.44658,330.54779   C 116.20321,330.54779 54.345381,268.72992 54.345381,192.44658   C 54.345381,116.20321 116.20321,54.345381 192.44658,54.345381   C 268.72992,54.345381 330.54779,116.20321 330.54779,192.44658   z "
     style="fill:#80e0ff;fill-rule:evenodd;fill-opacity:1;stroke:none;" />
  <path
     id="path7"
     d="  M 330.54779,192.44658   C 330.54779,268.72992 268.72992,330.54779 192.44658,330.54779   C 116.20321,330.54779 54.345381,268.72992 54.345381,192.44658   C 54.345381,116.20321 116.20321,54.345381 192.44658,54.345381   C 268.72992,54.345381 330.54779,116.20321 330.54779,192.44658  "
     style="fill:none;stroke:#000000;stroke-width:9.5903616px;stroke-linecap:butt;stroke-linejoin:miter;stroke-miterlimit:10;stroke-dasharray:none;stroke-opacity:1;" />
  <path
     id="path9"
     d="  M 152.16707,134.46486   L 162.95622,134.46486   L 162.95622,240.59819   L 152.16707,240.59819   L 152.16707,134.46486  z    M 187.17188,168.51064   L 187.17188,157.32189   L 162.4767,157.32189   L 162.4767,168.51064   L 187.17188,168.51064   L 187.17188,168.51064  z    M 187.17188,192.56646   L 187.17188,181.33775   L 162.4767,181.33775   L 162.4767,192.56646   L 187.17188,192.56646  z    M 187.17188,216.58233   L 187.17188,205.35361   L 162.4767,205.35361   L 162.4767,216.58233   L 187.17188,216.58233  z    M 198.84016,81.198392   L 198.84016,303.89457   L 186.73233,304.29417   L 186.73233,81.198392   L 198.84016,81.198392  z    M 222.65622,168.51064   L 222.65622,157.32189   L 198.84016,157.32189   L 198.84016,168.91024   L 222.65622,168.51064  z    M 222.65622,192.56646   L 222.65622,181.33775   L 198.84016,181.33775   L 198.84016,192.96606   L 222.65622,192.56646  z    M 222.65622,216.58233   L 222.65622,204.95401   L 198.84016,205.35361   L 198.84016,216.98192   L 222.65622,216.58233  z    M 222.1767,134.06526   L 233.88494,134.06526   L 233.88494,240.19859   L 222.1767,240.19859   L 222.1767,134.06526  z   "
     style="fill:#000000;fill-rule:evenodd;fill-opacity:1;stroke:none;" />
</svg>
