<?xml version="1.0" encoding="UTF-8" standalone="no"?>
<svg
   xmlns:dc="http://purl.org/dc/elements/1.1/"
   xmlns:cc="http://creativecommons.org/ns#"
   xmlns:rdf="http://www.w3.org/1999/02/22-rdf-syntax-ns#"
   xmlns:svg="http://www.w3.org/2000/svg"
   xmlns="http://www.w3.org/2000/svg"
   id="svg9"
   height="112.9mm"
   width="112.9mm"
   version="1.0">
  <metadata
     id="metadata13">
    <rdf:RDF>
      <cc:Work
         rdf:about="">
        <dc:format>image/svg+xml</dc:format>
        <dc:type
           rdf:resource="http://purl.org/dc/dcmitype/StillImage" />
      </cc:Work>
    </rdf:RDF>
  </metadata>
  <defs
     id="defs3">
    <pattern
       y="0"
       x="0"
       height="6"
       width="6"
       patternUnits="userSpaceOnUse"
       id="EMFhbasepattern" />
  </defs>
  <path
     id="path5"
     d="  M 576.96079,494.51746   C 576.96079,520.87589 568.04878,543.04265 550.14921,560.97997   C 532.24965,578.87954 510.15842,587.82932 483.83775,587.82932   C 457.81919,587.82932 435.76572,578.80401 417.75287,560.7534   C 399.74002,542.70278 390.71472,520.61155 390.71472,494.51746   C 390.71472,468.15904 399.6645,445.91675 417.56406,427.86614   C 435.42586,409.81553 457.55485,400.79022 483.83775,400.79022   C 509.89408,400.79022 531.94755,409.89105 549.9604,428.09272   C 567.97325,446.25662 576.96079,468.38561 576.96079,494.51746   z  M 569.78586,494.51746   C 569.78586,470.16046 561.51581,449.65527 545.05124,433.00188   C 528.5489,416.31073 508.15699,408.00291 483.83775,408.00291   C 459.55628,408.00291 439.16437,416.31073 422.66204,433.00188   C 406.19746,449.65527 397.92741,470.16046 397.92741,494.51746   C 397.92741,518.61012 406.23522,539.00203 422.85085,555.65542   C 439.50424,572.30881 459.82062,580.65439 483.83775,580.65439   C 507.89265,580.65439 528.20903,572.30881 544.82466,555.65542   C 561.44029,539.00203 569.78586,518.61012 569.78586,494.51746   z  M 505.02268,225.75969   L 505.02268,339.38792   L 479.34398,307.17626   L 479.75937,400.41259   L 487.46298,400.79022   L 487.46298,330.92906   L 513.48154,360.49732   L 513.48154,225.75969   z "
     style="fill:#ffff00;fill-rule:nonzero;fill-opacity:1;stroke:none;" />
  <path
     id="path7"
     d="  M 449.2848,507.84773   L 459.74509,506.94142   C 460.27377,511.13309 461.40666,514.56951 463.21927,517.28843   C 465.03189,519.96958 467.86409,522.12206 471.67814,523.78363   C 475.49218,525.44519 479.75937,526.27597 484.55525,526.27597   C 488.78468,526.27597 492.5232,525.67177 495.7708,524.38783   C 499.0184,523.14166 501.43521,521.40457 503.02125,519.21433   C 504.60729,517.02409 505.40031,514.64503 505.40031,512.0394   C 505.40031,509.396 504.60729,507.09247 503.09678,505.12881   C 501.5485,503.16514 499.05616,501.54134 495.54422,500.18188   C 493.27845,499.31334 488.29376,497.95388 480.59015,496.1035   C 472.88655,494.25312 467.48647,492.51604 464.38992,490.85447   C 460.38706,488.73976 457.4038,486.17189 455.44014,483.03758   C 453.47647,479.94103 452.49464,476.46685 452.49464,472.61505   C 452.49464,468.34785 453.70305,464.38276 456.0821,460.71977   C 458.49892,457.01901 462.01086,454.22457 466.61792,452.33643   C 471.26275,450.41053 476.39849,449.46646 482.02514,449.46646   C 488.256,449.46646 493.73161,450.48605 498.48972,452.48748   C 503.24783,454.48891 506.87306,457.4344 509.44093,461.32397   C 512.0088,465.21354 513.36826,469.63179 513.55707,474.54095   L 502.90796,475.33397   C 502.34152,470.04718 500.41562,466.04432 497.09249,463.3254   C 493.80713,460.60648 488.93573,459.24702 482.47829,459.24702   C 475.75652,459.24702 470.88512,460.49319 467.78857,462.94777   C 464.72978,465.40235 463.18151,468.38561 463.18151,471.85979   C 463.18151,474.88081 464.27663,477.33539 466.46687,479.29906   C 468.58159,481.22496 474.17048,483.22639 483.19579,485.26558   C 492.22109,487.30477 498.41419,489.11739 501.77508,490.6279   C 506.64648,492.89366 510.27171,495.72587 512.613,499.20005   C 514.91653,502.63646 516.08718,506.60156 516.08718,511.13309   C 516.08718,515.5891 514.80324,519.78077 512.23537,523.74586   C 509.70527,527.71096 506.00451,530.76974 501.2464,532.95998   C 496.45053,535.15023 491.05045,536.24535 485.04616,536.24535   C 477.45584,536.24535 471.11169,535.15023 465.97596,532.92222   C 460.84022,530.73198 456.7996,527.37109 453.89186,522.95284   C 450.98413,518.49684 449.43585,513.47438 449.2848,507.84773   z "
     style="fill:#ffff00;fill-rule:nonzero;fill-opacity:1;stroke:#ffff00;stroke-width:1.0573581px;stroke-linecap:butt;stroke-linejoin:miter;stroke-miterlimit:282;stroke-dasharray:none;stroke-opacity:1;" />
</svg>
