<?xml version="1.0" encoding="UTF-8" standalone="no"?>
<svg
   xmlns:dc="http://purl.org/dc/elements/1.1/"
   xmlns:cc="http://creativecommons.org/ns#"
   xmlns:rdf="http://www.w3.org/1999/02/22-rdf-syntax-ns#"
   xmlns:svg="http://www.w3.org/2000/svg"
   xmlns="http://www.w3.org/2000/svg"
   id="svg9"
   height="112.9mm"
   width="112.9mm"
   version="1.0">
  <metadata
     id="metadata13">
    <rdf:RDF>
      <cc:Work
         rdf:about="">
        <dc:format>image/svg+xml</dc:format>
        <dc:type
           rdf:resource="http://purl.org/dc/dcmitype/StillImage" />
      </cc:Work>
    </rdf:RDF>
  </metadata>
  <defs
     id="defs3">
    <pattern
       y="0"
       x="0"
       height="6"
       width="6"
       patternUnits="userSpaceOnUse"
       id="EMFhbasepattern" />
  </defs>
  <path
     id="path5"
     d="  M 573.63894,493.41018   C 573.63894,519.76861 564.72693,541.93537 546.82736,559.87269   C 528.9278,577.77225 506.83657,586.72203 480.5159,586.72203   C 454.49734,586.72203 432.44387,577.69673 414.43102,559.64611   C 396.41817,541.5955 387.39286,519.50427 387.39286,493.41018   C 387.39286,467.05175 396.34265,444.80947 414.24221,426.75886   C 432.10401,408.70824 454.233,399.68294 480.5159,399.68294   C 506.57223,399.68294 528.6257,408.78377 546.63855,426.98543   C 564.6514,445.14934 573.63894,467.27833 573.63894,493.41018   z  M 566.46401,493.41018   C 566.46401,469.05318 558.19396,448.54799 541.72939,431.8946   C 525.22705,415.20344 504.83514,406.89563 480.5159,406.89563   C 456.23443,406.89563 435.84252,415.20344 419.34018,431.8946   C 402.87561,448.54799 394.60556,469.05318 394.60556,493.41018   C 394.60556,517.50284 402.91337,537.89475 419.529,554.54814   C 436.18239,571.20153 456.49877,579.5471 480.5159,579.5471   C 504.5708,579.5471 524.88718,571.20153 541.50281,554.54814   C 558.11844,537.89475 566.46401,517.50284 566.46401,493.41018   z  M 501.70083,224.65241   L 501.70083,338.28064   L 476.02213,306.06898   L 476.43752,399.30531   L 484.14113,399.68294   L 484.14113,329.82178   L 510.15969,359.39004   L 510.15969,224.65241   z "
     style="fill:#00ff00;fill-rule:nonzero;fill-opacity:1;stroke:none;" />
  <path
     id="path7"
     d="  M 449.73923,533.70308   L 449.73923,449.79416   L 478.66553,449.79416   C 485.16073,449.79416 490.14542,450.20955 493.58183,451.00257   C 498.41547,452.09769 502.49385,454.09912 505.8925,457.00685   C 510.31075,460.74537 513.63387,465.54124 515.82411,471.35671   C 518.01435,477.17218 519.10948,483.81843 519.10948,491.29546   C 519.10948,497.67738 518.39198,503.30403 516.88147,508.25096   C 515.40872,513.16012 513.48282,517.2385 511.17929,520.44834   C 508.838,523.69594 506.27013,526.22604 503.51344,528.07642   C 500.75676,529.9268 497.43363,531.32402 493.5063,532.26809   C 489.57897,533.24992 485.0852,533.70308 480.02499,533.70308   z  M 460.84149,523.80923   L 478.77882,523.80923   C 484.29218,523.80923 488.6349,523.28055 491.76922,522.26095   C 494.94129,521.24136 497.43363,519.76861 499.32177,517.91823   C 501.96517,515.27484 504.00436,511.72513 505.47711,507.30689   C 506.94986,502.85088 507.66735,497.4508 507.66735,491.10665   C 507.66735,482.34568 506.23236,475.58614 503.36239,470.90356   C 500.45466,466.18321 496.98048,463.01113 492.82657,461.4251   C 489.88108,460.25445 485.0852,459.68801 478.47671,459.68801   L 460.84149,459.68801   z "
     style="fill:#00ff00;fill-rule:nonzero;fill-opacity:1;stroke:#00ff00;stroke-width:1.0573581px;stroke-linecap:butt;stroke-linejoin:miter;stroke-miterlimit:282;stroke-dasharray:none;stroke-opacity:1;" />
</svg>
