<?xml version="1.0" encoding="UTF-8" standalone="no"?>
<svg
   xmlns:dc="http://purl.org/dc/elements/1.1/"
   xmlns:cc="http://creativecommons.org/ns#"
   xmlns:rdf="http://www.w3.org/1999/02/22-rdf-syntax-ns#"
   xmlns:svg="http://www.w3.org/2000/svg"
   xmlns="http://www.w3.org/2000/svg"
   id="svg7"
   height="53.130001mm"
   width="21.66mm"
   version="1.0">
  <metadata
     id="metadata11">
    <rdf:RDF>
      <cc:Work
         rdf:about="">
        <dc:format>image/svg+xml</dc:format>
        <dc:type
           rdf:resource="http://purl.org/dc/dcmitype/StillImage" />
      </cc:Work>
    </rdf:RDF>
  </metadata>
  <defs
     id="defs3">
    <pattern
       y="0"
       x="0"
       height="6"
       width="6"
       patternUnits="userSpaceOnUse"
       id="EMFhbasepattern" />
  </defs>
  <path
     id="path5"
     d="  M 0,40.319477   L 10.909036,40.319477   L 10.909036,132.26707   L 0,132.26707   L 0,40.319477  z    M 35.843975,79.959637   L 35.843975,67.931726   L 10.909036,67.931726   L 10.909036,79.959637   L 35.843975,79.959637  z    M 35.843975,103.7757   L 35.843975,91.947589   L 10.909036,91.947589   L 10.909036,103.7757   L 35.843975,103.7757  z    M 47.552208,0   L 47.552208,200.19879   L 35.843975,199.75923   L 35.843975,0   L 47.552208,0  z    M 70.129517,79.959637   L 70.129517,67.931726   L 47.552208,67.931726   L 47.552208,79.959637   L 70.129517,79.959637  z    M 70.129517,104.61486   L 70.129517,91.947589   L 47.552208,91.947589   L 47.552208,104.61486   L 70.129517,104.61486  z    M 70.129517,40.319477   L 81.83775,40.319477   L 81.83775,132.26707   L 70.129517,132.26707   L 70.129517,40.319477  z   "
     style="fill:#ff8080;fill-rule:evenodd;fill-opacity:1;stroke:none;" />
</svg>
