<?xml version="1.0" encoding="UTF-8" standalone="no"?>
<svg
   xmlns:dc="http://purl.org/dc/elements/1.1/"
   xmlns:cc="http://creativecommons.org/ns#"
   xmlns:rdf="http://www.w3.org/1999/02/22-rdf-syntax-ns#"
   xmlns:svg="http://www.w3.org/2000/svg"
   xmlns="http://www.w3.org/2000/svg"
   id="svg11"
   height="130.27mm"
   width="130.27mm"
   version="1.0">
  <metadata
     id="metadata15">
    <rdf:RDF>
      <cc:Work
         rdf:about="">
        <dc:format>image/svg+xml</dc:format>
        <dc:type
           rdf:resource="http://purl.org/dc/dcmitype/StillImage" />
      </cc:Work>
    </rdf:RDF>
  </metadata>
  <defs
     id="defs3">
    <pattern
       y="0"
       x="0"
       height="6"
       width="6"
       patternUnits="userSpaceOnUse"
       id="EMFhbasepattern" />
  </defs>
  <path
     id="path5"
     d="  M 164.63454,327.67068   C 164.63454,437.95983 327.67068,437.95983 327.67068,327.67068   C 437.95983,327.67068 437.95983,164.63454 327.67068,164.63454   C 327.67068,54.345381 164.63454,54.345381 164.63454,164.63454   C 54.345381,164.63454 54.345381,327.67068 164.63454,327.67068   z "
     style="fill:#ffff80;fill-rule:evenodd;fill-opacity:1;stroke:none;" />
  <path
     id="path7"
     d="  M 164.63454,327.67068   C 164.63454,437.95983 327.67068,437.95983 327.67068,327.67068   C 437.95983,327.67068 437.95983,164.63454 327.67068,164.63454   C 327.67068,54.345381 164.63454,54.345381 164.63454,164.63454   C 54.345381,164.63454 54.345381,327.67068 164.63454,327.67068  "
     style="fill:none;stroke:#000000;stroke-width:9.5903616px;stroke-linecap:butt;stroke-linejoin:miter;stroke-miterlimit:10;stroke-dasharray:none;stroke-opacity:1;" />
  <path
     id="path9"
     d="  M 295.94257,326.352   L 197.2018,326.352   C 179.97911,326.352 171.34779,321.03734 171.34779,310.40803   C 171.34779,303.05542 175.66345,298.38012 184.25482,296.34216   C 188.33072,295.34317 195.52349,294.82369 205.91305,294.82369   L 300.85763,294.82369   C 317.56084,294.82369 325.91245,300.01847 325.91245,310.40803   C 325.91245,321.03734 315.92249,326.352 295.94257,326.352   z  M 196.44257,299.77871   C 187.57148,299.77871 183.13594,303.33514 183.13594,310.40803   C 183.13594,317.48092 190.72831,321.03734 205.91305,321.03734   L 299.73875,321.03734   C 309.32911,321.03734 314.16425,317.48092 314.16425,310.40803   C 314.16425,305.09337 311.60682,301.81666 306.57188,300.53795   C 304.77369,300.29819 300.09839,300.13835 292.50602,300.13835   z  M 213.90502,155.44377   L 222.25662,155.44377   L 222.25662,240.91787   L 213.90502,240.91787   z  M 241.99678,180.53855   L 241.99678,172.14699   L 222.61626,172.14699   L 222.61626,180.53855   z  M 241.99678,201.39759   L 241.99678,193.04598   L 222.61626,193.04598   L 222.61626,201.39759   z  M 241.99678,222.29658   L 241.99678,213.94498   L 222.61626,213.94498   L 222.61626,222.29658   z  M 251.10763,136.82249   L 251.10763,294.06445   L 241.63715,294.46405   L 241.63715,136.82249   z  M 268.57008,180.53855   L 268.57008,172.14699   L 251.50723,172.14699   L 251.50723,180.89819   z  M 268.57008,201.39759   L 268.57008,192.68634   L 251.50723,193.04598   L 251.50723,201.79719   z  M 268.57008,222.29658   L 268.57008,213.94498   L 251.50723,213.94498   L 251.50723,222.69618   z  M 268.57008,155.08413   L 277.72088,155.08413   L 277.72088,240.51827   L 268.57008,240.51827   z "
     style="fill:#000000;fill-rule:evenodd;fill-opacity:1;stroke:none;" />
</svg>
