<?xml version="1.0" encoding="UTF-8" standalone="no"?>
<svg
   xmlns:dc="http://purl.org/dc/elements/1.1/"
   xmlns:cc="http://creativecommons.org/ns#"
   xmlns:rdf="http://www.w3.org/1999/02/22-rdf-syntax-ns#"
   xmlns:svg="http://www.w3.org/2000/svg"
   xmlns="http://www.w3.org/2000/svg"
   id="svg9"
   height="112.9mm"
   width="112.9mm"
   version="1.0">
  <metadata
     id="metadata13">
    <rdf:RDF>
      <cc:Work
         rdf:about="">
        <dc:format>image/svg+xml</dc:format>
        <dc:type
           rdf:resource="http://purl.org/dc/dcmitype/StillImage" />
      </cc:Work>
    </rdf:RDF>
  </metadata>
  <defs
     id="defs3">
    <pattern
       y="0"
       x="0"
       height="6"
       width="6"
       patternUnits="userSpaceOnUse"
       id="EMFhbasepattern" />
  </defs>
  <path
     id="path5"
     d="  M 331.54581,268.86233   C 331.54581,295.22953 322.63083,317.40367 304.72531,335.34696   C 286.81979,353.25248 264.72121,362.20524 238.39178,362.20524   C 212.36456,362.20524 190.30375,353.17693 172.28491,335.12031   C 154.26606,317.06369 145.23775,294.9651 145.23775,268.86233   C 145.23775,242.49513 154.19051,220.24545 172.09603,202.18882   C 189.96377,184.1322 212.10013,175.10389 238.39178,175.10389   C 264.45678,175.10389 286.51759,184.20775 304.53643,202.41548   C 322.55528,220.58542 331.54581,242.72178 331.54581,268.86233   z  M 324.3685,268.86233   C 324.3685,244.49723 316.09569,223.98521 299.62564,207.32627   C 283.11781,190.62956 262.71911,182.31899 238.39178,182.31899   C 214.10223,182.31899 193.70353,190.62956 177.1957,207.32627   C 160.72565,223.98521 152.45284,244.49723 152.45284,268.86233   C 152.45284,292.96301 160.76342,313.3617 177.38458,330.02063   C 194.04351,346.67957 214.36666,355.02792 238.39178,355.02792   C 262.45469,355.02792 282.77783,346.67957 299.39899,330.02063   C 316.02014,313.3617 324.3685,292.96301 324.3685,268.86233   z  M 259.58376,0.015110143   L 259.58376,113.68116   L 233.89652,81.458781   L 234.31204,174.72614   L 242.01822,175.10389   L 242.01822,105.21948   L 268.04544,134.79759   L 268.04544,0.015110143   L 259.58376,0.015110143   z "
     style="fill:#000000;fill-rule:nonzero;fill-opacity:1;stroke:none;" />
  <path
     id="path7"
     d="  M 207.60487,309.16864   L 207.60487,225.23179   L 236.54079,225.23179   C 243.03815,225.23179 248.0245,225.64732 251.46206,226.4406   C 256.2973,227.53609 260.37704,229.53818 263.77682,232.44689   C 268.19654,236.18665 271.52077,240.98412 273.71174,246.80152   C 275.90271,252.61893 276.9982,259.26739 276.9982,266.74691   C 276.9982,273.13095 276.28047,278.75947 274.76945,283.70805   C 273.29621,288.61884 271.36967,292.69858 269.06537,295.90949   C 266.7233,299.15817 264.15458,301.68912 261.39698,303.54011   C 258.63937,305.3911 255.31514,306.78879 251.38651,307.73317   C 247.45787,308.71533 242.9626,309.16864 237.9007,309.16864   L 207.60487,309.16864   z  M 218.71082,299.27149   L 236.65412,299.27149   C 242.16932,299.27149 246.51348,298.74264 249.64884,297.7227   C 252.82197,296.70277 255.31514,295.22953 257.20391,293.37854   C 259.84819,290.73426 261.88806,287.18338 263.36129,282.76366   C 264.83453,278.30617 265.55226,272.90429 265.55226,266.55803   C 265.55226,257.79415 264.1168,251.03236 261.24587,246.34822   C 258.33717,241.6263 254.86184,238.45317 250.70655,236.8666   C 247.76007,235.69557 242.9626,235.12894 236.35191,235.12894   L 218.71082,235.12894   L 218.71082,299.27149   z "
     style="fill:#000000;fill-rule:nonzero;fill-opacity:1;stroke:#000000;stroke-width:1.0577101px;stroke-linecap:butt;stroke-linejoin:miter;stroke-miterlimit:112;stroke-dasharray:none;stroke-opacity:1;" />
</svg>
