<?xml version="1.0" encoding="UTF-8" standalone="no"?>
<svg
   xmlns:dc="http://purl.org/dc/elements/1.1/"
   xmlns:cc="http://creativecommons.org/ns#"
   xmlns:rdf="http://www.w3.org/1999/02/22-rdf-syntax-ns#"
   xmlns:svg="http://www.w3.org/2000/svg"
   xmlns="http://www.w3.org/2000/svg"
   id="svg7"
   height="50.25mm"
   width="40.950001mm"
   version="1.0">
  <metadata
     id="metadata11">
    <rdf:RDF>
      <cc:Work
         rdf:about="">
        <dc:format>image/svg+xml</dc:format>
        <dc:type
           rdf:resource="http://purl.org/dc/dcmitype/StillImage" />
      </cc:Work>
    </rdf:RDF>
  </metadata>
  <defs
     id="defs3">
    <pattern
       y="0"
       x="0"
       height="6"
       width="6"
       patternUnits="userSpaceOnUse"
       id="EMFhbasepattern" />
  </defs>
  <path
     id="path5"
     d="  M 124.59478,189.52952   L 25.854016,189.52952   C 8.6313252,189.52952 0,184.21486 0,173.58554   C 0,166.23293 4.3156626,161.55763 12.907028,159.51968   C 16.982931,158.52068 24.175702,158.0012 34.565261,158.0012   L 129.50984,158.0012   C 146.21305,158.0012 154.56466,163.19598 154.56466,173.58554   C 154.56466,184.21486 144.5747,189.52952 124.59478,189.52952   z  M 25.094779,162.95622   C 16.223695,162.95622 11.788152,166.51265 11.788152,173.58554   C 11.788152,180.65843 19.380522,184.21486 34.565261,184.21486   L 128.39096,184.21486   C 137.98132,184.21486 142.81646,180.65843 142.81646,173.58554   C 142.81646,168.27088 140.25903,164.99417 135.22409,163.71546   C 133.4259,163.4757 128.7506,163.31586 121.15823,163.31586   z  M 42.557228,18.621285   L 50.908835,18.621285   L 50.908835,104.09538   L 42.557228,104.09538   z  M 70.648995,43.716064   L 70.648995,35.324497   L 51.268473,35.324497   L 51.268473,43.716064   z  M 70.648995,64.575099   L 70.648995,56.223493   L 51.268473,56.223493   L 51.268473,64.575099   z  M 70.648995,85.474095   L 70.648995,77.122489   L 51.268473,77.122489   L 51.268473,85.474095   z  M 79.759838,0   L 79.759838,157.24197   L 70.289356,157.64156   L 70.289356,0   z  M 97.222288,43.716064   L 97.222288,35.324497   L 80.159437,35.324497   L 80.159437,44.075702   z  M 97.222288,64.575099   L 97.222288,55.863855   L 80.159437,56.223493   L 80.159437,64.974698   z  M 97.222288,85.474095   L 97.222288,77.122489   L 80.159437,77.122489   L 80.159437,85.873694   z  M 97.222288,18.261646   L 106.37309,18.261646   L 106.37309,103.69578   L 97.222288,103.69578   z "
     style="fill:#80e0ff;fill-rule:evenodd;fill-opacity:1;stroke:none;" />
</svg>
