<?xml version="1.0" encoding="UTF-8" standalone="no"?>
<svg
   xmlns:dc="http://purl.org/dc/elements/1.1/"
   xmlns:cc="http://creativecommons.org/ns#"
   xmlns:rdf="http://www.w3.org/1999/02/22-rdf-syntax-ns#"
   xmlns:svg="http://www.w3.org/2000/svg"
   xmlns="http://www.w3.org/2000/svg"
   id="svg11"
   height="101.85mm"
   width="101.85mm"
   version="1.0">
  <metadata
     id="metadata15">
    <rdf:RDF>
      <cc:Work
         rdf:about="">
        <dc:format>image/svg+xml</dc:format>
        <dc:type
           rdf:resource="http://purl.org/dc/dcmitype/StillImage" />
      </cc:Work>
    </rdf:RDF>
  </metadata>
  <defs
     id="defs3">
    <pattern
       y="0"
       x="0"
       height="6"
       width="6"
       patternUnits="userSpaceOnUse"
       id="EMFhbasepattern" />
  </defs>
  <path
     id="path5"
     d="  M 330.54779,192.44658   C 330.54779,268.72992 268.72992,330.54779 192.44658,330.54779   C 116.20321,330.54779 54.345381,268.72992 54.345381,192.44658   C 54.345381,116.20321 116.20321,54.345381 192.44658,54.345381   C 268.72992,54.345381 330.54779,116.20321 330.54779,192.44658   z "
     style="fill:#80e0ff;fill-rule:evenodd;fill-opacity:1;stroke:none;" />
  <path
     id="path7"
     d="  M 330.54779,192.44658   C 330.54779,268.72992 268.72992,330.54779 192.44658,330.54779   C 116.20321,330.54779 54.345381,268.72992 54.345381,192.44658   C 54.345381,116.20321 116.20321,54.345381 192.44658,54.345381   C 268.72992,54.345381 330.54779,116.20321 330.54779,192.44658  "
     style="fill:none;stroke:#000000;stroke-width:9.5903616px;stroke-linecap:butt;stroke-linejoin:miter;stroke-miterlimit:10;stroke-dasharray:none;stroke-opacity:1;" />
  <path
     id="path9"
     d="  M 242.23654,272.64598   L 143.49578,272.64598   C 126.27309,272.64598 117.64177,267.33132 117.64177,256.702   C 117.64177,249.34939 121.95743,244.67409 130.58875,242.63614   C 134.6247,241.63715 141.85743,241.11767 152.20703,241.11767   L 247.1516,241.11767   C 263.89478,241.11767 272.24638,246.31245 272.24638,256.702   C 272.24638,267.33132 262.21646,272.64598 242.23654,272.64598   z  M 142.73654,246.07269   C 133.86546,246.07269 129.42992,249.62911 129.42992,256.702   C 129.42992,263.7749 137.02229,267.33132 152.20703,267.33132   L 246.03273,267.33132   C 255.62309,267.33132 260.45823,263.7749 260.45823,256.702   C 260.45823,251.38735 257.9008,248.11064 252.86586,246.83192   C 251.10763,246.55221 246.39237,246.43233 238.8,246.43233   z  M 160.19899,118.84056   L 168.5506,118.84056   L 168.5506,179.57952   L 160.19899,179.57952   z  M 188.29076,142.01727   L 188.29076,133.66566   L 168.5506,133.66566   L 168.5506,142.01727   z  M 188.29076,162.8763   L 188.29076,154.5247   L 168.5506,154.5247   L 168.5506,162.8763   z  M 197.4016,83.116465   L 197.4016,240.71807   L 187.93112,241.11767   L 187.93112,83.116465   z  M 214.86405,142.01727   L 214.86405,133.26606   L 197.4016,133.66566   L 197.4016,142.37691   z  M 214.86405,162.8763   L 214.86405,154.5247   L 197.4016,154.5247   L 197.4016,163.2759   z  M 214.86405,118.44096   L 224.01486,118.44096   L 224.01486,179.21988   L 214.86405,179.21988   z "
     style="fill:#000000;fill-rule:evenodd;fill-opacity:1;stroke:none;" />
</svg>
