<?xml version="1.0" encoding="UTF-8" standalone="no"?>
<svg
   xmlns:dc="http://purl.org/dc/elements/1.1/"
   xmlns:cc="http://creativecommons.org/ns#"
   xmlns:rdf="http://www.w3.org/1999/02/22-rdf-syntax-ns#"
   xmlns:svg="http://www.w3.org/2000/svg"
   xmlns="http://www.w3.org/2000/svg"
   id="svg11"
   height="130.27mm"
   width="130.27mm"
   version="1.0">
  <metadata
     id="metadata15">
    <rdf:RDF>
      <cc:Work
         rdf:about="">
        <dc:format>image/svg+xml</dc:format>
        <dc:type
           rdf:resource="http://purl.org/dc/dcmitype/StillImage" />
      </cc:Work>
    </rdf:RDF>
  </metadata>
  <defs
     id="defs3">
    <pattern
       y="0"
       x="0"
       height="6"
       width="6"
       patternUnits="userSpaceOnUse"
       id="EMFhbasepattern" />
  </defs>
  <path
     id="path5"
     d="  M 164.63454,327.67068   C 164.63454,437.95983 327.67068,437.95983 327.67068,327.67068   C 437.95983,327.67068 437.95983,164.63454 327.67068,164.63454   C 327.67068,54.345381 164.63454,54.345381 164.63454,164.63454   C 54.345381,164.63454 54.345381,327.67068 164.63454,327.67068   z "
     style="fill:#ffff80;fill-rule:evenodd;fill-opacity:1;stroke:none;" />
  <path
     id="path7"
     d="  M 164.63454,327.67068   C 164.63454,437.95983 327.67068,437.95983 327.67068,327.67068   C 437.95983,327.67068 437.95983,164.63454 327.67068,164.63454   C 327.67068,54.345381 164.63454,54.345381 164.63454,164.63454   C 54.345381,164.63454 54.345381,327.67068 164.63454,327.67068  "
     style="fill:none;stroke:#000000;stroke-width:9.5903616px;stroke-linecap:butt;stroke-linejoin:miter;stroke-miterlimit:10;stroke-dasharray:none;stroke-opacity:1;" />
  <path
     id="path9"
     d="  M 205.87309,188.17088   L 216.66225,188.17088   L 216.66225,294.30421   L 205.87309,294.30421   L 205.87309,188.17088  z    M 240.87791,222.21666   L 240.87791,211.02791   L 216.18273,211.02791   L 216.18273,222.21666   L 240.87791,222.21666   L 240.87791,222.21666  z    M 240.87791,246.27249   L 240.87791,235.04377   L 216.18273,235.04377   L 216.18273,246.27249   L 240.87791,246.27249  z    M 240.87791,270.28835   L 240.87791,259.05963   L 216.18273,259.05963   L 216.18273,270.28835   L 240.87791,270.28835  z    M 252.54618,134.90442   L 252.54618,357.6006   L 240.43835,358.0002   L 240.43835,134.90442   L 252.54618,134.90442  z    M 276.36225,222.21666   L 276.36225,211.02791   L 252.54618,211.02791   L 252.54618,222.61626   L 276.36225,222.21666  z    M 276.36225,246.27249   L 276.36225,235.04377   L 252.54618,235.04377   L 252.54618,246.67208   L 276.36225,246.27249  z    M 276.36225,270.28835   L 276.36225,258.66004   L 252.54618,259.05963   L 252.54618,270.68795   L 276.36225,270.28835  z    M 275.88273,187.77128   L 287.59096,187.77128   L 287.59096,293.90461   L 275.88273,293.90461   L 275.88273,187.77128  z   "
     style="fill:#000000;fill-rule:evenodd;fill-opacity:1;stroke:none;" />
</svg>
