<?xml version="1.0" encoding="UTF-8" standalone="no"?>
<svg
   xmlns:dc="http://purl.org/dc/elements/1.1/"
   xmlns:cc="http://creativecommons.org/ns#"
   xmlns:rdf="http://www.w3.org/1999/02/22-rdf-syntax-ns#"
   xmlns:svg="http://www.w3.org/2000/svg"
   xmlns="http://www.w3.org/2000/svg"
   id="svg33"
   height="112.9mm"
   width="112.9mm"
   version="1.0">
  <metadata
     id="metadata37">
    <rdf:RDF>
      <cc:Work
         rdf:about="">
        <dc:format>image/svg+xml</dc:format>
        <dc:type
           rdf:resource="http://purl.org/dc/dcmitype/StillImage" />
      </cc:Work>
    </rdf:RDF>
  </metadata>
  <defs
     id="defs3">
    <pattern
       y="0"
       x="0"
       height="6"
       width="6"
       patternUnits="userSpaceOnUse"
       id="EMFhbasepattern" />
  </defs>
  <path
     id="path5"
     d="  M 1859.0404,1883.1375   L 2241.9308,1883.1375   L 2241.9308,2139.1854   L 1859.0404,2139.1854   z "
     style="fill:#80e0ff;fill-rule:nonzero;fill-opacity:1;stroke:#000000;stroke-width:10.62747px;stroke-linecap:butt;stroke-linejoin:miter;stroke-miterlimit:282;stroke-dasharray:none;stroke-opacity:1;" />
  <ellipse
     id="ellipse7"
     ry="20.614278"
     rx="20.595435"
     cy="2005.1695"
     cx="2049.8261"
     style="fill:none;stroke:#000000;stroke-width:10.62747px;stroke-linecap:butt;stroke-linejoin:miter;stroke-miterlimit:282;stroke-dasharray:none;stroke-opacity:1;" />
  <path
     id="path9"
     d="  M 2050.4856,2027.1715   L 2050.4856,2128.5246  "
     style="fill:none;stroke:#000000;stroke-width:10.62747px;stroke-linecap:butt;stroke-linejoin:miter;stroke-miterlimit:282;stroke-dasharray:none;stroke-opacity:1;" />
  <path
     id="path11"
     d="  M 2023.9169,2053.8235   L 2077.0919,2053.8235  "
     style="fill:none;stroke:#000000;stroke-width:10.62747px;stroke-linecap:butt;stroke-linejoin:miter;stroke-miterlimit:282;stroke-dasharray:none;stroke-opacity:1;" />
  <ellipse
     id="ellipse13"
     ry="20.614278"
     rx="20.633121"
     cy="1983.8101"
     cx="1986.0236"
     style="fill:none;stroke:#000000;stroke-width:10.62747px;stroke-linecap:butt;stroke-linejoin:miter;stroke-miterlimit:282;stroke-dasharray:none;stroke-opacity:1;" />
  <path
     id="path15"
     d="  M 1986.6831,2005.8121   L 1986.6831,2107.203  "
     style="fill:none;stroke:#000000;stroke-width:10.62747px;stroke-linecap:butt;stroke-linejoin:miter;stroke-miterlimit:282;stroke-dasharray:none;stroke-opacity:1;" />
  <path
     id="path17"
     d="  M 1960.1144,2032.5019   L 2013.2894,2032.5019  "
     style="fill:none;stroke:#000000;stroke-width:10.62747px;stroke-linecap:butt;stroke-linejoin:miter;stroke-miterlimit:282;stroke-dasharray:none;stroke-opacity:1;" />
  <ellipse
     id="ellipse19"
     ry="20.614278"
     rx="20.614278"
     cy="1983.8101"
     cx="2113.6474"
     style="fill:none;stroke:#000000;stroke-width:10.62747px;stroke-linecap:butt;stroke-linejoin:miter;stroke-miterlimit:282;stroke-dasharray:none;stroke-opacity:1;" />
  <path
     id="path21"
     d="  M 2114.3258,2005.8121   L 2114.3258,2107.203  "
     style="fill:none;stroke:#000000;stroke-width:10.62747px;stroke-linecap:butt;stroke-linejoin:miter;stroke-miterlimit:282;stroke-dasharray:none;stroke-opacity:1;" />
  <path
     id="path23"
     d="  M 2087.7194,2032.5019   L 2140.8945,2032.5019  "
     style="fill:none;stroke:#000000;stroke-width:10.62747px;stroke-linecap:butt;stroke-linejoin:miter;stroke-miterlimit:282;stroke-dasharray:none;stroke-opacity:1;" />
  <path
     id="path25"
     d="  M 1980.3895,1914.2881   L 1994.4464,1914.2881   C 1997.612,1914.2881 2000.0239,1914.5528 2001.6821,1915.0442   C 2003.9056,1915.6869 2005.8276,1916.8588 2007.4104,1918.56   C 2009.0309,1920.2234 2010.2369,1922.3026 2011.066,1924.7221   C 2011.8951,1927.1794 2012.3096,1930.1659 2012.3096,1933.7573   C 2012.3096,1936.8951 2011.9327,1939.617 2011.1413,1941.8852   C 2010.1992,1944.6449 2008.8425,1946.9132 2007.0712,1948.6144   C 2005.7145,1949.9375 2003.9433,1950.9582 2001.6444,1951.6765   C 1999.9486,1952.2058 1997.6874,1952.4704 1994.861,1952.4704   L 1980.3895,1952.4704   z  M 1988.0775,1920.7527   L 1988.0775,1946.0437   L 1993.8057,1946.0437   C 1995.9538,1946.0437 1997.499,1945.9303 1998.4788,1945.6656   C 1999.7225,1945.3632 2000.74,1944.8339 2001.5691,1944.0779   C 2002.3982,1943.3596 2003.0765,1942.112 2003.5664,1940.4109   C 2004.094,1938.7097 2004.3578,1936.3658 2004.3578,1933.4171   C 2004.3578,1930.4683 2004.094,1928.2001 2003.5664,1926.6123   C 2003.0765,1925.0245 2002.3228,1923.8148 2001.4183,1922.9075   C 2000.4762,1922.038 1999.2702,1921.4331 1997.8382,1921.1307   C 1996.7829,1920.8661 1994.6725,1920.7527 1991.5446,1920.7527   z "
     style="fill:#000000;fill-rule:nonzero;fill-opacity:1;stroke:none;" />
  <path
     id="path27"
     d="  M 2018.867,1952.4704   L 2018.867,1914.2881   L 2031.1903,1914.2881   C 2035.8634,1914.2881 2038.916,1914.4772 2040.3103,1914.8552   C 2042.4961,1915.4601 2044.3428,1916.7076 2045.8125,1918.5978   C 2047.2823,1920.5258 2047.9983,1923.0209 2047.9983,1926.0453   C 2047.9983,1928.3891 2047.5838,1930.3549 2046.7547,1931.9427   C 2045.8879,1933.5683 2044.795,1934.8158 2043.5137,1935.7231   C 2042.1947,1936.6304 2040.8756,1937.2353 2039.5189,1937.5377   C 2037.6723,1937.878 2035.0343,1938.067 2031.5295,1938.067   L 2026.5172,1938.067   L 2026.5172,1952.4704   z  M 2026.5172,1920.7527   L 2026.5172,1931.6025   L 2030.7381,1931.6025   C 2033.753,1931.6025 2035.788,1931.3756 2036.8055,1930.9976   C 2037.8231,1930.5818 2038.6522,1929.9769 2039.2175,1929.1074   C 2039.7827,1928.2757 2040.0842,1927.2928 2040.0842,1926.1587   C 2040.0842,1924.7599 2039.6697,1923.6258 2038.8783,1922.7185   C 2038.0492,1921.8112 2037.0317,1921.2441 2035.788,1921.0173   C 2034.8459,1920.8283 2033.0369,1920.7527 2030.2482,1920.7527   z "
     style="fill:#000000;fill-rule:nonzero;fill-opacity:1;stroke:none;" />
  <path
     id="path29"
     d="  M 2054.4049,1952.4704   L 2054.4049,1914.2881   L 2070.5723,1914.2881   C 2074.6424,1914.2881 2077.5819,1914.6284 2079.4285,1915.3089   C 2081.2751,1916.0271 2082.7449,1917.2369 2083.8754,1918.9759   C 2084.9683,1920.7527 2085.5336,1922.7563 2085.5336,1924.9867   C 2085.5336,1927.8599 2084.7045,1930.2415 2083.0087,1932.0939   C 2081.3505,1933.9841 2078.8255,1935.1561 2075.4714,1935.6475   C 2077.1296,1936.5926 2078.524,1937.6889 2079.5792,1938.8231   C 2080.6721,1939.995 2082.1419,1942.0742 2083.9885,1945.023   L 2088.6239,1952.4704   L 2079.4285,1952.4704   L 2073.8886,1944.1913   C 2071.8913,1941.2047 2070.5346,1939.3145 2069.8185,1938.5584   C 2069.1025,1937.8024 2068.3111,1937.2731 2067.5197,1936.9707   C 2066.6906,1936.6682 2065.4093,1936.5548 2063.638,1936.5548   L 2062.0929,1936.5548   L 2062.0929,1952.4704   z  M 2062.0929,1930.4305   L 2067.7835,1930.4305   C 2071.439,1930.4305 2073.7756,1930.2793 2074.68,1929.9769   C 2075.5845,1929.6745 2076.3005,1929.1452 2076.8281,1928.3513   C 2077.3558,1927.5952 2077.6196,1926.6501 2077.6196,1925.516   C 2077.6196,1924.2307 2077.2804,1923.1721 2076.602,1922.3782   C 2075.886,1921.5844 2074.9438,1921.0929 2073.7002,1920.9039   C 2073.0595,1920.7905 2071.2129,1920.7527 2068.085,1920.7527   L 2062.0929,1920.7527   z "
     style="fill:#000000;fill-rule:nonzero;fill-opacity:1;stroke:none;" />
  <path
     id="path31"
     d="  M 2092.807,1952.4704   L 2092.807,1914.2881   L 2121.0339,1914.2881   L 2121.0339,1920.7527   L 2100.495,1920.7527   L 2100.495,1929.2208   L 2119.6018,1929.2208   L 2119.6018,1935.6475   L 2100.495,1935.6475   L 2100.495,1946.0437   L 2121.7499,1946.0437   L 2121.7499,1952.4704   z "
     style="fill:#000000;fill-rule:nonzero;fill-opacity:1;stroke:none;" />
</svg>
