<?xml version="1.0" encoding="UTF-8" standalone="no"?>
<svg
   xmlns:dc="http://purl.org/dc/elements/1.1/"
   xmlns:cc="http://creativecommons.org/ns#"
   xmlns:rdf="http://www.w3.org/1999/02/22-rdf-syntax-ns#"
   xmlns:svg="http://www.w3.org/2000/svg"
   xmlns="http://www.w3.org/2000/svg"
   id="svg33"
   height="112.9mm"
   width="112.9mm"
   version="1.0">
  <metadata
     id="metadata37">
    <rdf:RDF>
      <cc:Work
         rdf:about="">
        <dc:format>image/svg+xml</dc:format>
        <dc:type
           rdf:resource="http://purl.org/dc/dcmitype/StillImage" />
      </cc:Work>
    </rdf:RDF>
  </metadata>
  <defs
     id="defs3">
    <pattern
       y="0"
       x="0"
       height="6"
       width="6"
       patternUnits="userSpaceOnUse"
       id="EMFhbasepattern" />
  </defs>
  <path
     id="path5"
     d="  M 1981.453,2187.1891   C 1981.453,2309.9016 2162.233,2309.9016 2162.233,2187.1891   C 2284.562,2187.1891 2284.562,2005.8424 2162.233,2005.8424   C 2162.233,1883.1299 1981.453,1883.1299 1981.453,2005.8424   C 1859.124,2005.8424 1859.124,2187.1891 1981.453,2187.1891   z "
     style="fill:#ffff80;fill-rule:nonzero;fill-opacity:1;stroke:#000000;stroke-width:10.62747px;stroke-linecap:butt;stroke-linejoin:miter;stroke-miterlimit:282;stroke-dasharray:none;stroke-opacity:1;" />
  <ellipse
     id="ellipse7"
     ry="20.614278"
     rx="20.595435"
     cy="2090.5238"
     cx="2071.1647"
     style="fill:none;stroke:#000000;stroke-width:10.62747px;stroke-linecap:butt;stroke-linejoin:miter;stroke-miterlimit:282;stroke-dasharray:none;stroke-opacity:1;" />
  <path
     id="path9"
     d="  M 2071.8242,2112.5258   L 2071.8242,2213.8789  "
     style="fill:none;stroke:#000000;stroke-width:10.62747px;stroke-linecap:butt;stroke-linejoin:miter;stroke-miterlimit:282;stroke-dasharray:none;stroke-opacity:1;" />
  <path
     id="path11"
     d="  M 2045.2555,2139.1778   L 2098.4305,2139.1778  "
     style="fill:none;stroke:#000000;stroke-width:10.62747px;stroke-linecap:butt;stroke-linejoin:miter;stroke-miterlimit:282;stroke-dasharray:none;stroke-opacity:1;" />
  <ellipse
     id="ellipse13"
     ry="20.614278"
     rx="20.633121"
     cy="2069.1644"
     cx="2007.3622"
     style="fill:none;stroke:#000000;stroke-width:10.62747px;stroke-linecap:butt;stroke-linejoin:miter;stroke-miterlimit:282;stroke-dasharray:none;stroke-opacity:1;" />
  <path
     id="path15"
     d="  M 2008.0217,2091.1665   L 2008.0217,2192.5573  "
     style="fill:none;stroke:#000000;stroke-width:10.62747px;stroke-linecap:butt;stroke-linejoin:miter;stroke-miterlimit:282;stroke-dasharray:none;stroke-opacity:1;" />
  <path
     id="path17"
     d="  M 1981.453,2117.8562   L 2034.628,2117.8562  "
     style="fill:none;stroke:#000000;stroke-width:10.62747px;stroke-linecap:butt;stroke-linejoin:miter;stroke-miterlimit:282;stroke-dasharray:none;stroke-opacity:1;" />
  <ellipse
     id="ellipse19"
     ry="20.614278"
     rx="20.614278"
     cy="2069.1644"
     cx="2134.986"
     style="fill:none;stroke:#000000;stroke-width:10.62747px;stroke-linecap:butt;stroke-linejoin:miter;stroke-miterlimit:282;stroke-dasharray:none;stroke-opacity:1;" />
  <path
     id="path21"
     d="  M 2135.6644,2091.1665   L 2135.6644,2192.5573  "
     style="fill:none;stroke:#000000;stroke-width:10.62747px;stroke-linecap:butt;stroke-linejoin:miter;stroke-miterlimit:282;stroke-dasharray:none;stroke-opacity:1;" />
  <path
     id="path23"
     d="  M 2109.058,2117.8562   L 2162.233,2117.8562  "
     style="fill:none;stroke:#000000;stroke-width:10.62747px;stroke-linecap:butt;stroke-linejoin:miter;stroke-miterlimit:282;stroke-dasharray:none;stroke-opacity:1;" />
  <path
     id="path25"
     d="  M 2001.7281,1999.6425   L 2015.785,1999.6425   C 2018.9506,1999.6425 2021.3625,1999.9071 2023.0207,2000.3986   C 2025.2442,2001.0412 2027.1662,2002.2132 2028.749,2003.9144   C 2030.3695,2005.5777 2031.5755,2007.657 2032.4045,2010.0764   C 2033.2336,2012.5337 2033.6482,2015.5202 2033.6482,2019.1116   C 2033.6482,2022.2494 2033.2713,2024.9713 2032.4799,2027.2395   C 2031.5378,2029.9993 2030.1811,2032.2675 2028.4098,2033.9687   C 2027.0531,2035.2918 2025.2819,2036.3126 2022.983,2037.0308   C 2021.2872,2037.5601 2019.026,2037.8247 2016.1995,2037.8247   L 2001.7281,2037.8247   z  M 2009.416,2006.107   L 2009.416,2031.398   L 2015.1443,2031.398   C 2017.2924,2031.398 2018.8376,2031.2846 2019.8174,2031.02   C 2021.061,2030.7175 2022.0786,2030.1883 2022.9077,2029.4322   C 2023.7367,2028.7139 2024.4151,2027.4664 2024.905,2025.7652   C 2025.4326,2024.064 2025.6964,2021.7201 2025.6964,2018.7714   C 2025.6964,2015.8227 2025.4326,2013.5544 2024.905,2011.9666   C 2024.4151,2010.3789 2023.6614,2009.1691 2022.7569,2008.2618   C 2021.8148,2007.3923 2020.6088,2006.7875 2019.1767,2006.485   C 2018.1215,2006.2204 2016.0111,2006.107 2012.8832,2006.107   z "
     style="fill:#000000;fill-rule:nonzero;fill-opacity:1;stroke:none;" />
  <path
     id="path27"
     d="  M 2040.2056,2037.8247   L 2040.2056,1999.6425   L 2052.5289,1999.6425   C 2057.202,1999.6425 2060.2545,1999.8315 2061.6489,2000.2095   C 2063.8347,2000.8144 2065.6813,2002.0619 2067.1511,2003.9522   C 2068.6209,2005.8802 2069.3369,2008.3752 2069.3369,2011.3996   C 2069.3369,2013.7434 2068.9223,2015.7093 2068.0932,2017.297   C 2067.2265,2018.9226 2066.1336,2020.1702 2064.8522,2021.0775   C 2063.5332,2021.9848 2062.2142,2022.5896 2060.8575,2022.8921   C 2059.0109,2023.2323 2056.3729,2023.4213 2052.8681,2023.4213   L 2047.8558,2023.4213   L 2047.8558,2037.8247   z  M 2047.8558,2006.107   L 2047.8558,2016.9568   L 2052.0767,2016.9568   C 2055.0916,2016.9568 2057.1266,2016.73 2058.1441,2016.3519   C 2059.1617,2015.9361 2059.9907,2015.3312 2060.556,2014.4617   C 2061.1213,2013.63 2061.4228,2012.6471 2061.4228,2011.513   C 2061.4228,2010.1142 2061.0083,2008.9801 2060.2169,2008.0728   C 2059.3878,2007.1655 2058.3702,2006.5984 2057.1266,2006.3716   C 2056.1845,2006.1826 2054.3755,2006.107 2051.5868,2006.107   z "
     style="fill:#000000;fill-rule:nonzero;fill-opacity:1;stroke:none;" />
  <path
     id="path29"
     d="  M 2075.7435,2037.8247   L 2075.7435,1999.6425   L 2091.9108,1999.6425   C 2095.9809,1999.6425 2098.9204,1999.9827 2100.7671,2000.6632   C 2102.6137,2001.3815 2104.0834,2002.5912 2105.214,2004.3302   C 2106.3069,2006.107 2106.8722,2008.1106 2106.8722,2010.3411   C 2106.8722,2013.2142 2106.0431,2015.5959 2104.3472,2017.4483   C 2102.6891,2019.3385 2100.1641,2020.5104 2096.81,2021.0019   C 2098.4682,2021.947 2099.8626,2023.0433 2100.9178,2024.1774   C 2102.0107,2025.3493 2103.4805,2027.4286 2105.3271,2030.3773   L 2109.9625,2037.8247   L 2100.7671,2037.8247   L 2095.2272,2029.5456   C 2093.2299,2026.5591 2091.8732,2024.6689 2091.1571,2023.9128   C 2090.4411,2023.1567 2089.6497,2022.6274 2088.8583,2022.325   C 2088.0292,2022.0226 2086.7479,2021.9092 2084.9766,2021.9092   L 2083.4315,2021.9092   L 2083.4315,2037.8247   z  M 2083.4315,2015.7849   L 2089.1221,2015.7849   C 2092.7776,2015.7849 2095.1142,2015.6337 2096.0186,2015.3312   C 2096.9231,2015.0288 2097.6391,2014.4995 2098.1667,2013.7056   C 2098.6943,2012.9496 2098.9581,2012.0045 2098.9581,2010.8703   C 2098.9581,2009.585 2098.619,2008.5265 2097.9406,2007.7326   C 2097.2246,2006.9387 2096.2824,2006.4472 2095.0388,2006.2582   C 2094.3981,2006.1448 2092.5515,2006.107 2089.4236,2006.107   L 2083.4315,2006.107   z "
     style="fill:#000000;fill-rule:nonzero;fill-opacity:1;stroke:none;" />
  <path
     id="path31"
     d="  M 2114.1456,2037.8247   L 2114.1456,1999.6425   L 2142.3725,1999.6425   L 2142.3725,2006.107   L 2121.8336,2006.107   L 2121.8336,2014.5751   L 2140.9404,2014.5751   L 2140.9404,2021.0019   L 2121.8336,2021.0019   L 2121.8336,2031.398   L 2143.0885,2031.398   L 2143.0885,2037.8247   z "
     style="fill:#000000;fill-rule:nonzero;fill-opacity:1;stroke:none;" />
</svg>
