<?xml version="1.0" encoding="UTF-8" standalone="no"?>
<svg
   xmlns:dc="http://purl.org/dc/elements/1.1/"
   xmlns:cc="http://creativecommons.org/ns#"
   xmlns:rdf="http://www.w3.org/1999/02/22-rdf-syntax-ns#"
   xmlns:svg="http://www.w3.org/2000/svg"
   xmlns="http://www.w3.org/2000/svg"
   id="svg15"
   height="95.75mm"
   width="95.75mm"
   version="1.0">
  <metadata
     id="metadata19">
    <rdf:RDF>
      <cc:Work
         rdf:about="">
        <dc:format>image/svg+xml</dc:format>
        <dc:type
           rdf:resource="http://purl.org/dc/dcmitype/StillImage" />
      </cc:Work>
    </rdf:RDF>
  </metadata>
  <defs
     id="defs3">
    <pattern
       y="0"
       x="0"
       height="6"
       width="6"
       patternUnits="userSpaceOnUse"
       id="EMFhbasepattern" />
  </defs>
  <path
     id="path5"
     d="  M 54.345381,54.345381   L 54.345381,307.53092   L 307.53092,307.53092   L 307.53092,54.345381   L 54.345381,54.345381   z "
     style="fill:#aaffaa;fill-rule:evenodd;fill-opacity:1;stroke:none;" />
  <path
     id="path7"
     d="  M 54.345381,54.345381   L 307.53092,54.345381   L 307.53092,307.53092   L 54.345381,307.53092   z "
     style="fill:none;stroke:#000000;stroke-width:9.5903616px;stroke-linecap:butt;stroke-linejoin:miter;stroke-miterlimit:10;stroke-dasharray:none;stroke-opacity:1;" />
  <path
     id="path9"
     d="  M 307.53092,54.345381   L 54.345381,307.53092  "
     style="fill:none;stroke:#000000;stroke-width:9.5903616px;stroke-linecap:butt;stroke-linejoin:miter;stroke-miterlimit:10;stroke-dasharray:none;stroke-opacity:1;" />
  <path
     id="path11"
     d="  M 54.345381,160.79839   C 54.345381,159.83936 80.239356,155.04417 80.239356,180.93815   C 80.239356,209.70923 120.51887,209.70923 120.51887,180.93815   C 120.51887,152.16707 160.79839,152.16707 160.79839,180.93815   C 160.79839,209.70923 201.07791,209.70923 201.07791,180.93815   C 201.07791,152.16707 241.35743,152.16707 241.35743,180.93815   C 241.35743,209.70923 281.63694,209.30964 281.63694,180.93815   C 281.63694,155.04417 307.53092,159.83936 307.53092,160.79839  "
     style="fill:none;stroke:#000000;stroke-width:9.5903616px;stroke-linecap:butt;stroke-linejoin:miter;stroke-miterlimit:10;stroke-dasharray:none;stroke-opacity:1;" />
  <path
     id="path13"
     d="  M 128.23112,139.06024   L 128.23112,97.861645   L 142.41687,97.861645   C 145.61365,97.861645 148.09116,98.061444 149.76948,98.461043   C 152.12711,99.02048 154.1251,99.979517 155.80341,101.41807   C 157.96124,103.25622 159.5996,105.61385 160.67851,108.451   C 161.75743,111.32811 162.27691,114.56486 162.27691,118.24116   C 162.27691,121.35803 161.91727,124.15522 161.19799,126.55281   C 160.47871,128.99036 159.51968,130.98835 158.4008,132.54679   C 157.24197,134.14518 156.00321,135.38393 154.64458,136.30301   C 153.28594,137.22209 151.64759,137.9014 149.72952,138.38092   C 147.81144,138.82048 145.57369,139.06024 143.09618,139.06024   z  M 133.70562,134.18514   L 142.49679,134.18514   C 145.21405,134.18514 147.33193,133.94538 148.89036,133.4259   C 150.40883,132.94638 151.64759,132.22711 152.56666,131.30803   C 153.84538,130.02932 154.88434,128.27108 155.60361,126.11325   C 156.32289,123.91546 156.68253,121.27811 156.68253,118.16124   C 156.68253,113.84558 155.96325,110.52891 154.56466,108.21124   C 153.1261,105.93353 151.40783,104.3751 149.40984,103.5759   C 147.93132,103.01646 145.57369,102.73675 142.33695,102.73675   L 133.70562,102.73675   z "
     style="fill:#000000;fill-rule:evenodd;fill-opacity:1;stroke:none;" />
</svg>
