<?xml version="1.0" encoding="UTF-8" standalone="no"?>
<svg
   xmlns:dc="http://purl.org/dc/elements/1.1/"
   xmlns:cc="http://creativecommons.org/ns#"
   xmlns:rdf="http://www.w3.org/1999/02/22-rdf-syntax-ns#"
   xmlns:svg="http://www.w3.org/2000/svg"
   xmlns="http://www.w3.org/2000/svg"
   id="svg15"
   height="130.27mm"
   width="130.27mm"
   version="1.0">
  <metadata
     id="metadata19">
    <rdf:RDF>
      <cc:Work
         rdf:about="">
        <dc:format>image/svg+xml</dc:format>
        <dc:type
           rdf:resource="http://purl.org/dc/dcmitype/StillImage" />
      </cc:Work>
    </rdf:RDF>
  </metadata>
  <defs
     id="defs3">
    <pattern
       y="0"
       x="0"
       height="6"
       width="6"
       patternUnits="userSpaceOnUse"
       id="EMFhbasepattern" />
  </defs>
  <path
     id="path5"
     d="  M 164.63454,327.67068   C 164.63454,437.95983 327.67068,437.95983 327.67068,327.67068   C 437.95983,327.67068 437.95983,164.63454 327.67068,164.63454   C 327.67068,54.345381 164.63454,54.345381 164.63454,164.63454   C 54.345381,164.63454 54.345381,327.67068 164.63454,327.67068   z "
     style="fill:#ffff80;fill-rule:evenodd;fill-opacity:1;stroke:none;" />
  <path
     id="path7"
     d="  M 164.63454,327.67068   C 164.63454,437.95983 327.67068,437.95983 327.67068,327.67068   C 437.95983,327.67068 437.95983,164.63454 327.67068,164.63454   C 327.67068,54.345381 164.63454,54.345381 164.63454,164.63454   C 54.345381,164.63454 54.345381,327.67068 164.63454,327.67068  "
     style="fill:none;stroke:#000000;stroke-width:9.5903616px;stroke-linecap:butt;stroke-linejoin:miter;stroke-miterlimit:10;stroke-dasharray:none;stroke-opacity:1;" />
  <path
     id="path9"
     d="  M 361.23694,170.38875   L 131.06827,321.91646  "
     style="fill:none;stroke:#000000;stroke-width:9.5903616px;stroke-linecap:butt;stroke-linejoin:miter;stroke-miterlimit:10;stroke-dasharray:none;stroke-opacity:1;" />
  <path
     id="path11"
     d="  M 85.034537,267.2514   C 102.29719,267.2514 105.1743,251.90682 105.1743,246.15261   C 105.1743,217.38152 145.45381,217.38152 145.45381,246.15261   C 145.45381,274.92369 185.73333,274.92369 185.73333,246.15261   C 185.73333,217.38152 226.01285,217.38152 226.01285,246.15261   C 226.01285,274.92369 266.29237,274.92369 266.29237,246.15261   C 266.29237,217.38152 306.57188,217.38152 306.57188,246.15261   C 306.57188,274.92369 346.8514,274.92369 346.8514,246.15261   C 346.8514,217.38152 387.13092,217.38152 387.13092,246.15261   C 387.13092,251.90682 390.00803,267.2514 407.27068,267.2514  "
     style="fill:none;stroke:#000000;stroke-width:9.5903616px;stroke-linecap:butt;stroke-linejoin:miter;stroke-miterlimit:10;stroke-dasharray:none;stroke-opacity:1;" />
  <path
     id="path13"
     d="  M 193.44558,204.2747   L 193.44558,163.0761   L 207.63132,163.0761   C 210.82811,163.0761 213.30562,163.2759 214.98393,163.6755   C 217.34156,164.23494 219.33956,165.19397 221.01787,166.63253   C 223.1757,168.47068 224.81405,170.82831 225.89297,173.66546   C 226.97188,176.54257 227.49136,179.77931 227.49136,183.45562   C 227.49136,186.57249 227.13172,189.36968 226.41245,191.76727   C 225.69317,194.20482 224.73413,196.20281 223.61526,197.76124   C 222.45642,199.35964 221.21767,200.59839 219.85903,201.51747   C 218.5004,202.43654 216.86205,203.11586 214.94397,203.59538   C 213.0259,204.03494 210.78815,204.2747 208.31064,204.2747   z  M 198.92008,199.3996   L 207.71124,199.3996   C 210.42851,199.3996 212.54638,199.15984 214.10482,198.64036   C 215.62329,198.16084 216.86205,197.44156 217.78112,196.52249   C 219.05984,195.24377 220.09879,193.48554 220.81807,191.32771   C 221.53735,189.12992 221.89698,186.49257 221.89698,183.3757   C 221.89698,179.06004 221.17771,175.74337 219.77911,173.4257   C 218.34056,171.14799 216.62229,169.58956 214.62429,168.79036   C 213.14578,168.23092 210.78815,167.9512 207.5514,167.9512   L 198.92008,167.9512   z "
     style="fill:#000000;fill-rule:evenodd;fill-opacity:1;stroke:none;" />
</svg>
