<?xml version="1.0" encoding="UTF-8" standalone="no"?>
<svg
   xmlns:dc="http://purl.org/dc/elements/1.1/"
   xmlns:cc="http://creativecommons.org/ns#"
   xmlns:rdf="http://www.w3.org/1999/02/22-rdf-syntax-ns#"
   xmlns:svg="http://www.w3.org/2000/svg"
   xmlns="http://www.w3.org/2000/svg"
   id="svg19"
   height="112.67mm"
   width="112.67mm"
   version="1.0">
  <metadata
     id="metadata23">
    <rdf:RDF>
      <cc:Work
         rdf:about="">
        <dc:format>image/svg+xml</dc:format>
        <dc:type
           rdf:resource="http://purl.org/dc/dcmitype/StillImage" />
      </cc:Work>
    </rdf:RDF>
  </metadata>
  <defs
     id="defs3">
    <pattern
       y="0"
       x="0"
       height="6"
       width="6"
       patternUnits="userSpaceOnUse"
       id="EMFhbasepattern" />
  </defs>
  <path
     id="path5"
     d="  M 187.61144,270.20843   L 213.74518,270.20843   C 241.71706,270.20843 255.70301,283.79478 255.70301,310.92751   C 255.70301,338.69959 241.71706,352.56566 213.74518,352.56566   L 187.61144,352.56566   z  M 198.52048,342.81546   L 213.50542,342.81546   C 225.45341,342.81546 233.60522,340.01827 237.96084,334.46385   C 242.31646,328.90943 244.47429,321.0773 244.47429,310.92751   C 244.47429,301.09739 242.31646,293.46506 238.0008,288.07048   C 233.68514,282.6759 225.49337,279.99859 213.50542,279.99859   L 198.52048,279.99859   z "
     style="fill:#000000;fill-rule:evenodd;fill-opacity:1;stroke:none;" />
  <path
     id="path7"
     d="  M 187.61144,270.20843   L 213.74518,270.20843   C 241.71706,270.20843 255.70301,283.79478 255.70301,310.92751   C 255.70301,338.69959 241.71706,352.56566 213.74518,352.56566   L 187.61144,352.56566   z  M 198.52048,342.81546   L 213.50542,342.81546   C 225.45341,342.81546 233.60522,340.01827 237.96084,334.46385   C 242.31646,328.90943 244.47429,321.0773 244.47429,310.92751   C 244.47429,301.09739 242.31646,293.46506 238.0008,288.07048   C 233.68514,282.6759 225.49337,279.99859 213.50542,279.99859   L 198.52048,279.99859   z "
     style="fill:none;stroke:#000000;stroke-width:0.95903611px;stroke-linecap:butt;stroke-linejoin:miter;stroke-miterlimit:10;stroke-dasharray:none;stroke-opacity:1;" />
  <path
     id="path9"
     d="  M 265.65301,212.90602   C 265.65301,242.03674 242.03674,265.65301 212.90602,265.65301   C 183.7753,265.65301 160.15903,242.03674 160.15903,212.90602   C 160.15903,183.7753 183.7753,160.15903 212.90602,160.15903   C 242.03674,160.15903 265.65301,183.7753 265.65301,212.90602   z "
     style="fill:#000000;fill-rule:evenodd;fill-opacity:1;stroke:none;" />
  <path
     id="path11"
     d="  M 265.65301,212.90602   C 265.65301,242.03674 242.03674,265.65301 212.90602,265.65301   C 183.7753,265.65301 160.15903,242.03674 160.15903,212.90602   C 160.15903,183.7753 183.7753,160.15903 212.90602,160.15903   C 242.03674,160.15903 265.65301,183.7753 265.65301,212.90602  "
     style="fill:none;stroke:#000000;stroke-width:0.95903611px;stroke-linecap:butt;stroke-linejoin:miter;stroke-miterlimit:10;stroke-dasharray:none;stroke-opacity:1;" />
  <path
     id="path13"
     d="  M 45.074698,45.074698   L 380.73734,380.73734  "
     style="fill:none;stroke:#000000;stroke-width:7.6722889px;stroke-linecap:butt;stroke-linejoin:miter;stroke-miterlimit:10;stroke-dasharray:none;stroke-opacity:1;" />
  <path
     id="path15"
     d="  M 380.73734,45.074698   L 45.074698,380.73734  "
     style="fill:none;stroke:#000000;stroke-width:7.6722889px;stroke-linecap:butt;stroke-linejoin:miter;stroke-miterlimit:10;stroke-dasharray:none;stroke-opacity:1;" />
  <path
     id="path17"
     d="  M 45.074698,45.074698   L 380.73734,45.074698   L 380.73734,380.73734   L 45.074698,380.73734   z "
     style="fill:none;stroke:#000000;stroke-width:7.6722889px;stroke-linecap:butt;stroke-linejoin:miter;stroke-miterlimit:10;stroke-dasharray:none;stroke-opacity:1;" />
</svg>
