<?xml version="1.0" encoding="UTF-8" standalone="no"?>
<svg
   xmlns:dc="http://purl.org/dc/elements/1.1/"
   xmlns:cc="http://creativecommons.org/ns#"
   xmlns:rdf="http://www.w3.org/1999/02/22-rdf-syntax-ns#"
   xmlns:svg="http://www.w3.org/2000/svg"
   xmlns="http://www.w3.org/2000/svg"
   id="svg13"
   height="95.75mm"
   width="95.75mm"
   version="1.0">
  <metadata
     id="metadata17">
    <rdf:RDF>
      <cc:Work
         rdf:about="">
        <dc:format>image/svg+xml</dc:format>
        <dc:type
           rdf:resource="http://purl.org/dc/dcmitype/StillImage" />
      </cc:Work>
    </rdf:RDF>
  </metadata>
  <defs
     id="defs3">
    <pattern
       y="0"
       x="0"
       height="6"
       width="6"
       patternUnits="userSpaceOnUse"
       id="EMFhbasepattern" />
  </defs>
  <path
     id="path5"
     d="  M 54.345381,54.345381   L 54.345381,307.53092   L 307.53092,307.53092   L 307.53092,54.345381   L 54.345381,54.345381   z "
     style="fill:#aaffaa;fill-rule:evenodd;fill-opacity:1;stroke:none;" />
  <path
     id="path7"
     d="  M 54.345381,54.345381   L 307.53092,54.345381   L 307.53092,307.53092   L 54.345381,307.53092   z "
     style="fill:none;stroke:#000000;stroke-width:9.5903616px;stroke-linecap:butt;stroke-linejoin:miter;stroke-miterlimit:10;stroke-dasharray:none;stroke-opacity:1;" />
  <path
     id="path9"
     d="  M 124.91446,120.95843   L 124.91446,120.95843   L 122.95642,120.43895   L 122.95642,120.95843   z "
     style="fill:#ffffff;fill-rule:evenodd;fill-opacity:1;stroke:none;" />
  <path
     id="path11"
     d="  M 240.35843,129.03032   L 267.13152,202.83614   L 213.14578,202.83614   z  M 123.39598,129.03032   L 150.16907,202.83614   L 96.862649,202.71626   z  M 124.91446,120.95843   L 122.95642,120.95843   L 122.95642,120.43895   z  M 124.91446,120.95843   L 132.18715,122.11727   L 133.66566,121.91747   L 156.52269,118.68072   L 159.0002,119.0004   C 166.55261,119.0004 166.83233,127.7516 168.7504,127.7516   L 175.58353,127.7516   L 175.58353,239.35943   L 149.25,239.35943   L 149.25,244.71405   L 138.54076,244.71405   L 138.54076,250.58815   L 129.78956,250.58815   L 129.78956,259.85883   L 234.08474,259.85883   L 234.08474,250.10863   L 224.81405,250.10863   L 224.81405,244.71405   L 214.10482,244.71405   L 214.10482,239.35943   L 186.81225,239.35943   L 186.81225,127.7516   L 194.60441,127.7516   C 196.84217,127.7516 196.00301,119.0004 205.31365,119.0004   L 206.79217,119.0004   L 229.20964,121.83755   L 231.64719,121.91747   L 238.95984,121.03835   C 236.24257,126.55281 233.48534,135.86345 231.20763,141.97731   C 228.57028,149.0502 226.45241,156.00321 223.65522,163.15602   C 220.85803,170.26887 218.62028,177.10201 215.98293,184.25482   C 214.78413,187.41164 213.26566,191.36767 212.18674,194.60441   C 211.54739,196.60241 210.82811,198.12088 210.26867,199.95903   C 209.3496,202.83614 209.94899,202.83614 206.27269,202.83614   C 211.18775,210.14879 224.65421,219.37951 237.0018,219.37951   L 242.83594,219.37951   C 255.18353,219.37951 269.16947,210.06887 274.04457,202.83614   L 271.60702,202.83614   L 241.19759,120.51887   C 243.51526,120.27911 247.71104,118.52088 247.71104,116.56285   C 247.71104,114.60482 244.23453,117.04237 241.8769,117.04237   L 240.87791,117.04237   C 228.29056,117.04237 218.7002,106.81265 205.79317,106.81265   L 202.8761,106.81265   C 196.20281,106.81265 190.44859,109.96948 186.81225,113.1263   C 184.97409,112.28715 183.85522,112.56687 183.85522,109.72972   C 183.85522,108.81064 186.33273,101.89759 186.81225,100.93855   L 182.21686,86.87269   L 181.41767,86.83273   C 181.25783,88.990561 178.78032,96.103412 177.94116,98.461043   C 175.98313,104.1753 179.4996,104.45502 179.4996,109.72972   L 179.4996,111.20823   C 179.4996,112.9265 178.42068,112.48695 177.06205,113.1263   C 173.30582,109.88956 167.83132,106.81265 160.95823,106.81265   L 158.04116,106.81265   C 144.81446,106.81265 135.42389,117.04237 122.95642,117.04237   L 121.47791,117.04237   C 117.72169,117.04237 115.96345,113.68574 115.64377,117.52189   L 122.27711,120.79859   C 116.60281,132.6267 112.40703,149.32992 107.01245,162.51666   C 104.1753,169.50964 102.05743,176.46265 99.26024,183.53554   C 97.821685,187.13193 96.942569,190.32871 95.504015,193.88514   C 94.345179,196.72229 93.985541,202.75622 90.309236,202.83614   C 95.184336,210.10883 108.01144,219.37951 120.03936,219.37951   L 126.35301,219.37951   C 139.14016,219.37951 151.96727,210.42851 157.08213,202.83614   L 154.1251,202.83614   L 124.91446,120.95843   z "
     style="fill:#000000;fill-rule:evenodd;fill-opacity:1;stroke:none;" />
</svg>
