<?xml version="1.0" encoding="UTF-8" standalone="no"?>
<svg
   xmlns:dc="http://purl.org/dc/elements/1.1/"
   xmlns:cc="http://creativecommons.org/ns#"
   xmlns:rdf="http://www.w3.org/1999/02/22-rdf-syntax-ns#"
   xmlns:svg="http://www.w3.org/2000/svg"
   xmlns="http://www.w3.org/2000/svg"
   id="svg13"
   height="101.85mm"
   width="101.85mm"
   version="1.0">
  <metadata
     id="metadata17">
    <rdf:RDF>
      <cc:Work
         rdf:about="">
        <dc:format>image/svg+xml</dc:format>
        <dc:type
           rdf:resource="http://purl.org/dc/dcmitype/StillImage" />
      </cc:Work>
    </rdf:RDF>
  </metadata>
  <defs
     id="defs3">
    <pattern
       y="0"
       x="0"
       height="6"
       width="6"
       patternUnits="userSpaceOnUse"
       id="EMFhbasepattern" />
  </defs>
  <path
     id="path5"
     d="  M 330.54779,192.44658   C 330.54779,268.72992 268.72992,330.54779 192.44658,330.54779   C 116.20321,330.54779 54.345381,268.72992 54.345381,192.44658   C 54.345381,116.20321 116.20321,54.345381 192.44658,54.345381   C 268.72992,54.345381 330.54779,116.20321 330.54779,192.44658   z "
     style="fill:#80e0ff;fill-rule:evenodd;fill-opacity:1;stroke:none;" />
  <path
     id="path7"
     d="  M 330.54779,192.44658   C 330.54779,268.72992 268.72992,330.54779 192.44658,330.54779   C 116.20321,330.54779 54.345381,268.72992 54.345381,192.44658   C 54.345381,116.20321 116.20321,54.345381 192.44658,54.345381   C 268.72992,54.345381 330.54779,116.20321 330.54779,192.44658  "
     style="fill:none;stroke:#000000;stroke-width:9.5903616px;stroke-linecap:butt;stroke-linejoin:miter;stroke-miterlimit:10;stroke-dasharray:none;stroke-opacity:1;" />
  <path
     id="path9"
     d="  M 136.42289,132.46687   L 136.42289,132.46687   L 134.46486,131.94739   L 134.46486,132.46687   z "
     style="fill:#ffffff;fill-rule:evenodd;fill-opacity:1;stroke:none;" />
  <path
     id="path11"
     d="  M 251.86686,140.53875   L 278.63996,214.34458   L 224.65421,214.34458   z  M 134.90442,140.53875   L 161.67751,214.34458   L 108.37108,214.2247   z  M 136.42289,132.46687   L 134.46486,132.46687   L 134.46486,131.94739   z  M 136.42289,132.46687   L 143.69558,133.6257   L 145.17409,133.4259   L 168.03112,130.18915   L 170.50863,130.50883   C 178.06104,130.50883 178.34076,139.26004 180.25883,139.26004   L 187.09197,139.26004   L 187.09197,250.86787   L 160.75843,250.86787   L 160.75843,256.22249   L 150.04919,256.22249   L 150.04919,262.09658   L 141.29799,262.09658   L 141.29799,271.36727   L 245.59317,271.36727   L 245.59317,261.61706   L 236.32249,261.61706   L 236.32249,256.22249   L 225.61325,256.22249   L 225.61325,250.86787   L 198.32068,250.86787   L 198.32068,139.26004   L 206.11285,139.26004   C 208.3506,139.26004 207.51144,130.50883 216.82209,130.50883   L 218.3006,130.50883   L 240.71807,133.34598   L 243.15562,133.4259   L 250.46827,132.54679   C 247.751,138.06124 244.99377,147.37189 242.71606,153.48574   C 240.07871,160.55863 237.96084,167.51164 235.16365,174.66446   C 232.36646,181.77731 230.12871,188.61044 227.49136,195.76325   C 226.29257,198.92008 224.77409,202.8761 223.69518,206.11285   C 223.05582,208.11084 222.33654,209.62931 221.77711,211.46747   C 220.85803,214.34458 221.45743,214.34458 217.78112,214.34458   C 222.69618,221.65723 236.16265,230.88795 248.51024,230.88795   L 254.34437,230.88795   C 266.69196,230.88795 280.67791,221.57731 285.55301,214.34458   L 283.11546,214.34458   L 252.70602,132.02731   C 255.02369,131.78755 259.21947,130.02932 259.21947,128.07128   C 259.21947,126.11325 255.74297,128.5508 253.38534,128.5508   L 252.38634,128.5508   C 239.79899,128.5508 230.20863,118.32108 217.3016,118.32108   L 214.38454,118.32108   C 207.71124,118.32108 201.95703,121.47791 198.32068,124.63474   C 196.48253,123.79558 195.36365,124.0753 195.36365,121.23815   C 195.36365,120.31907 197.84116,113.40602 198.32068,112.44699   L 193.7253,98.381123   L 192.9261,98.341163   C 192.76626,100.49899 190.28875,107.61185 189.4496,109.96948   C 187.49156,115.68373 191.00803,115.96345 191.00803,121.23815   L 191.00803,122.71666   C 191.00803,124.43494 189.92911,123.99538 188.57048,124.63474   C 184.81425,121.39799 179.33976,118.32108 172.46666,118.32108   L 169.5496,118.32108   C 156.32289,118.32108 146.93233,128.5508 134.46486,128.5508   L 132.98634,128.5508   C 129.23012,128.5508 127.47189,125.19417 127.15221,129.03032   L 133.78554,132.30703   C 128.11124,144.13514 123.91546,160.83835 118.52088,174.0251   C 115.68373,181.01807 113.56586,187.97108 110.76867,195.04397   C 109.33012,198.64036 108.451,201.83715 107.01245,205.39357   C 105.85361,208.23072 105.49397,214.26466 101.81767,214.34458   C 106.69277,221.61727 119.51988,230.88795 131.54779,230.88795   L 137.86144,230.88795   C 150.64859,230.88795 163.4757,221.93694 168.59056,214.34458   L 165.63353,214.34458   L 136.42289,132.46687   z "
     style="fill:#000000;fill-rule:evenodd;fill-opacity:1;stroke:none;" />
</svg>
