<?xml version="1.0" encoding="UTF-8" standalone="no"?>
<svg
   xmlns:dc="http://purl.org/dc/elements/1.1/"
   xmlns:cc="http://creativecommons.org/ns#"
   xmlns:rdf="http://www.w3.org/1999/02/22-rdf-syntax-ns#"
   xmlns:svg="http://www.w3.org/2000/svg"
   xmlns="http://www.w3.org/2000/svg"
   id="svg15"
   height="89.669998mm"
   width="120.11mm"
   version="1.0">
  <metadata
     id="metadata19">
    <rdf:RDF>
      <cc:Work
         rdf:about="">
        <dc:format>image/svg+xml</dc:format>
        <dc:type
           rdf:resource="http://purl.org/dc/dcmitype/StillImage" />
      </cc:Work>
    </rdf:RDF>
  </metadata>
  <defs
     id="defs3">
    <pattern
       y="0"
       x="0"
       height="6"
       width="6"
       patternUnits="userSpaceOnUse"
       id="EMFhbasepattern" />
  </defs>
  <path
     id="path5"
     d="  M 179.02008,15.983936   L 179.02008,54.345381   L 274.92369,54.345381   L 274.92369,15.983936   L 179.02008,15.983936   z "
     style="fill:#000000;fill-rule:evenodd;fill-opacity:1;stroke:none;" />
  <path
     id="path7"
     d="  M 54.345381,54.345381   L 54.345381,284.51405   L 399.59839,284.51405   L 399.59839,54.345381   L 54.345381,54.345381   z "
     style="fill:#80e0ff;fill-rule:evenodd;fill-opacity:1;stroke:none;" />
  <path
     id="path9"
     d="  M 54.345381,54.345381   L 399.59839,54.345381   L 399.59839,284.51405   L 54.345381,284.51405   z "
     style="fill:none;stroke:#000000;stroke-width:9.5903616px;stroke-linecap:butt;stroke-linejoin:miter;stroke-miterlimit:10;stroke-dasharray:none;stroke-opacity:1;" />
  <path
     id="path11"
     d="  M 170.94819,109.45   L 170.94819,109.45   L 168.99016,108.93052   L 168.99016,109.45   z "
     style="fill:#ffffff;fill-rule:evenodd;fill-opacity:1;stroke:none;" />
  <path
     id="path13"
     d="  M 286.39216,117.52189   L 313.16526,191.32771   L 259.17951,191.32771   z  M 169.42972,117.52189   L 196.20281,191.32771   L 142.89638,191.20783   z  M 170.94819,109.45   L 168.99016,109.45   L 168.99016,108.93052   z  M 170.94819,109.45   L 178.22088,110.60883   L 179.69939,110.40903   L 202.55642,107.17229   L 205.03393,107.49197   C 212.58634,107.49197 212.86606,116.24317 214.78413,116.24317   L 221.61727,116.24317   L 221.61727,227.851   L 195.28373,227.851   L 195.28373,233.20562   L 184.5745,233.20562   L 184.5745,239.07972   L 175.82329,239.07972   L 175.82329,248.3504   L 280.11847,248.3504   L 280.11847,238.6002   L 270.84779,238.6002   L 270.84779,233.20562   L 260.13855,233.20562   L 260.13855,227.851   L 232.84598,227.851   L 232.84598,116.24317   L 240.63815,116.24317   C 242.8759,116.24317 242.03674,107.49197 251.34739,107.49197   L 252.8259,107.49197   L 275.24337,110.32911   L 277.68092,110.40903   L 284.99357,109.52992   C 282.2763,115.04438 279.51907,124.35502 277.24136,130.46887   C 274.60401,137.54177 272.48614,144.49478 269.68895,151.64759   C 266.89176,158.76044 264.65401,165.59357 262.01666,172.74638   C 260.81787,175.90321 259.29939,179.85923 258.22048,183.09598   C 257.58112,185.09397 256.86184,186.61245 256.30241,188.4506   C 255.38333,191.32771 255.98273,191.32771 252.30642,191.32771   C 257.22148,198.64036 270.68795,207.87108 283.03554,207.87108   L 288.86967,207.87108   C 301.21726,207.87108 315.20321,198.56044 320.07831,191.32771   L 317.64076,191.32771   L 287.23132,109.01044   C 289.54899,108.77068 293.74477,107.01245 293.74477,105.05442   C 293.74477,103.09638 290.26827,105.53393 287.91064,105.53393   L 286.91164,105.53393   C 274.32429,105.53393 264.73393,95.304215 251.8269,95.304215   L 248.90984,95.304215   C 242.23654,95.304215 236.48233,98.461043 232.84598,101.61787   C 231.00783,100.77871 229.88895,101.05843 229.88895,98.221284   C 229.88895,97.302207 232.36646,90.389155 232.84598,89.430119   L 228.2506,75.364256   L 227.4514,75.324296   C 227.29156,77.482127 224.81405,84.594979 223.9749,86.952609   C 222.01686,92.666866 225.53333,92.946585 225.53333,98.221284   L 225.53333,99.699798   C 225.53333,101.41807 224.45441,100.97851 223.09578,101.61787   C 219.33956,98.381123 213.86506,95.304215 206.99196,95.304215   L 204.0749,95.304215   C 190.84819,95.304215 181.45763,105.53393 168.99016,105.53393   L 167.51164,105.53393   C 163.75542,105.53393 161.99719,102.17731 161.67751,106.01345   L 168.31084,109.29016   C 162.63654,121.11827 158.44076,137.82148 153.04618,151.00823   C 150.20903,158.0012 148.09116,164.95421 145.29397,172.02711   C 143.85542,175.62349 142.9763,178.82028 141.53775,182.3767   C 140.37891,185.21385 140.01928,191.24779 136.34297,191.32771   C 141.21807,198.6004 154.04518,207.87108 166.07309,207.87108   L 172.38674,207.87108   C 185.17389,207.87108 198.001,198.92008 203.11586,191.32771   L 200.15883,191.32771   L 170.94819,109.45   z "
     style="fill:#000000;fill-rule:evenodd;fill-opacity:1;stroke:none;" />
</svg>
