<?xml version="1.0" encoding="UTF-8" standalone="no"?>
<svg
   xmlns:dc="http://purl.org/dc/elements/1.1/"
   xmlns:cc="http://creativecommons.org/ns#"
   xmlns:rdf="http://www.w3.org/1999/02/22-rdf-syntax-ns#"
   xmlns:svg="http://www.w3.org/2000/svg"
   xmlns="http://www.w3.org/2000/svg"
   id="svg19"
   height="95.75mm"
   width="95.75mm"
   version="1.0">
  <metadata
     id="metadata23">
    <rdf:RDF>
      <cc:Work
         rdf:about="">
        <dc:format>image/svg+xml</dc:format>
        <dc:type
           rdf:resource="http://purl.org/dc/dcmitype/StillImage" />
      </cc:Work>
    </rdf:RDF>
  </metadata>
  <defs
     id="defs3">
    <pattern
       y="0"
       x="0"
       height="6"
       width="6"
       patternUnits="userSpaceOnUse"
       id="EMFhbasepattern" />
  </defs>
  <path
     id="path5"
     d="  M 54.345381,54.345381   L 54.345381,307.53092   L 307.53092,307.53092   L 307.53092,54.345381   L 54.345381,54.345381   z "
     style="fill:#aaffaa;fill-rule:evenodd;fill-opacity:1;stroke:none;" />
  <path
     id="path7"
     d="  M 54.345381,54.345381   L 307.53092,54.345381   L 307.53092,307.53092   L 54.345381,307.53092   z "
     style="fill:none;stroke:#000000;stroke-width:9.5903616px;stroke-linecap:butt;stroke-linejoin:miter;stroke-miterlimit:10;stroke-dasharray:none;stroke-opacity:1;" />
  <path
     id="path9"
     d="  M 118.6008,252.86586   L 118.6008,252.86586   L 80.239356,176.14297   L 113.80562,176.14297   L 113.80562,142.5767   L 171.34779,142.5767   L 171.34779,176.14297   L 281.63694,176.14297   L 243.2755,252.86586   z "
     style="fill:#ffffff;fill-rule:evenodd;fill-opacity:1;stroke:none;" />
  <path
     id="path11"
     d="  M 118.6008,252.86586   L 118.6008,252.86586   L 80.239356,176.14297   L 113.80562,176.14297   L 113.80562,142.5767   L 171.34779,142.5767   L 171.34779,176.14297   L 281.63694,176.14297   L 243.2755,252.86586   z "
     style="fill:none;stroke:#000000;stroke-width:9.5903616px;stroke-linecap:butt;stroke-linejoin:miter;stroke-miterlimit:10;stroke-dasharray:none;stroke-opacity:1;" />
  <path
     id="path13"
     d="  M 194.36466,177.10201   L 194.36466,76.403212  "
     style="fill:none;stroke:#000000;stroke-width:9.5903616px;stroke-linecap:butt;stroke-linejoin:miter;stroke-miterlimit:10;stroke-dasharray:none;stroke-opacity:1;" />
  <path
     id="path15"
     d="  M 194.36466,176.14297   L 271.08755,99.420079  "
     style="fill:none;stroke:#000000;stroke-width:9.5903616px;stroke-linecap:butt;stroke-linejoin:miter;stroke-miterlimit:10;stroke-dasharray:none;stroke-opacity:1;" />
  <path
     id="path17"
     d="  M 147.05221,233.04578   L 147.05221,191.84719   L 161.23795,191.84719   C 164.43474,191.84719 166.87229,192.04699 168.5506,192.44658   C 170.90823,193.00602 172.94618,193.96506 174.58454,195.40361   C 176.78233,197.24176 178.38072,199.59939 179.45964,202.43654   C 180.53855,205.31365 181.09799,208.5504 181.09799,212.2267   C 181.09799,215.34357 180.73835,218.14076 179.97911,220.53835   C 179.25984,222.9759 178.34076,224.97389 177.18193,226.53233   C 176.02309,228.13072 174.78433,229.36947 173.4257,230.28855   C 172.06707,231.20763 170.42871,231.88694 168.51064,232.36646   C 166.59257,232.80602 164.39478,233.04578 161.91727,233.04578   z  M 152.48674,228.17068   L 161.27791,228.17068   C 163.99518,228.17068 166.11305,227.93092 167.67148,227.41144   C 169.22992,226.93192 170.46867,226.21265 171.34779,225.29357   C 172.66646,224.01486 173.66546,222.25662 174.38474,220.09879   C 175.10401,217.901 175.46365,215.26365 175.46365,212.14678   C 175.46365,207.83112 174.74437,204.51445 173.34578,202.19678   C 171.94719,199.91907 170.22891,198.36064 168.19096,197.56144   C 166.71245,197.00201 164.39478,196.72229 161.15803,196.72229   L 152.48674,196.72229   z  M 188.69036,233.04578   L 188.69036,191.84719   L 206.95201,191.84719   C 210.62831,191.84719 213.38554,192.24678 215.30361,192.96606   C 217.22168,193.7253 218.74016,195.00401 219.89899,196.88213   C 221.01787,198.76024 221.61727,200.83815 221.61727,203.11586   C 221.61727,206.03293 220.65823,208.47048 218.78012,210.46847   C 216.86205,212.50642 213.94498,213.78514 209.98895,214.30462   C 211.42751,214.98393 212.54638,215.70321 213.30562,216.34257   C 214.86405,217.82108 216.38253,219.65923 217.82108,221.85702   L 224.97389,233.04578   L 218.1008,233.04578   L 212.66626,224.49437   C 211.06787,222.01686 209.74919,220.09879 208.7502,218.82008   C 207.71124,217.5014 206.79217,216.58233 205.95301,216.06285   C 205.15381,215.54337 204.31466,215.14377 203.4755,214.94397   C 202.8761,214.82409 201.83715,214.74417 200.43855,214.74417   L 194.1249,214.74417   L 194.1249,233.04578   z  M 194.1249,210.02891   L 205.83313,210.02891   C 208.3506,210.02891 210.26867,209.78915 211.66727,209.26968   C 213.10582,208.7502 214.14478,207.91104 214.90401,206.79217   C 215.62329,205.67329 215.98293,204.43454 215.98293,203.11586   C 215.98293,201.15783 215.26365,199.55943 213.86506,198.28072   C 212.46646,197.04197 210.22871,196.40261 207.1518,196.40261   L 194.1249,196.40261   z "
     style="fill:#000000;fill-rule:evenodd;fill-opacity:1;stroke:none;" />
</svg>
