<?xml version="1.0" encoding="UTF-8" standalone="no"?>
<svg
   xmlns:dc="http://purl.org/dc/elements/1.1/"
   xmlns:cc="http://creativecommons.org/ns#"
   xmlns:rdf="http://www.w3.org/1999/02/22-rdf-syntax-ns#"
   xmlns:svg="http://www.w3.org/2000/svg"
   xmlns="http://www.w3.org/2000/svg"
   id="svg19"
   height="130.27mm"
   width="130.27mm"
   version="1.0">
  <metadata
     id="metadata23">
    <rdf:RDF>
      <cc:Work
         rdf:about="">
        <dc:format>image/svg+xml</dc:format>
        <dc:type
           rdf:resource="http://purl.org/dc/dcmitype/StillImage" />
      </cc:Work>
    </rdf:RDF>
  </metadata>
  <defs
     id="defs3">
    <pattern
       y="0"
       x="0"
       height="6"
       width="6"
       patternUnits="userSpaceOnUse"
       id="EMFhbasepattern" />
  </defs>
  <path
     id="path5"
     d="  M 164.63454,327.67068   C 164.63454,437.95983 327.67068,437.95983 327.67068,327.67068   C 437.95983,327.67068 437.95983,164.63454 327.67068,164.63454   C 327.67068,54.345381 164.63454,54.345381 164.63454,164.63454   C 54.345381,164.63454 54.345381,327.67068 164.63454,327.67068   z "
     style="fill:#ffff80;fill-rule:evenodd;fill-opacity:1;stroke:none;" />
  <path
     id="path7"
     d="  M 164.63454,327.67068   C 164.63454,437.95983 327.67068,437.95983 327.67068,327.67068   C 437.95983,327.67068 437.95983,164.63454 327.67068,164.63454   C 327.67068,54.345381 164.63454,54.345381 164.63454,164.63454   C 54.345381,164.63454 54.345381,327.67068 164.63454,327.67068  "
     style="fill:none;stroke:#000000;stroke-width:9.5903616px;stroke-linecap:butt;stroke-linejoin:miter;stroke-miterlimit:10;stroke-dasharray:none;stroke-opacity:1;" />
  <path
     id="path9"
     d="  M 183.81526,318.08032   L 183.81526,318.08032   L 145.45381,241.35743   L 179.02008,241.35743   L 179.02008,207.79116   L 236.56225,207.79116   L 236.56225,241.35743   L 346.8514,241.35743   L 308.48996,318.08032   z "
     style="fill:#ffffff;fill-rule:evenodd;fill-opacity:1;stroke:none;" />
  <path
     id="path11"
     d="  M 183.81526,318.08032   L 183.81526,318.08032   L 145.45381,241.35743   L 179.02008,241.35743   L 179.02008,207.79116   L 236.56225,207.79116   L 236.56225,241.35743   L 346.8514,241.35743   L 308.48996,318.08032   z "
     style="fill:none;stroke:#000000;stroke-width:9.5903616px;stroke-linecap:butt;stroke-linejoin:miter;stroke-miterlimit:10;stroke-dasharray:none;stroke-opacity:1;" />
  <path
     id="path13"
     d="  M 259.57911,242.31646   L 259.57911,141.61767  "
     style="fill:none;stroke:#000000;stroke-width:9.5903616px;stroke-linecap:butt;stroke-linejoin:miter;stroke-miterlimit:10;stroke-dasharray:none;stroke-opacity:1;" />
  <path
     id="path15"
     d="  M 259.57911,241.35743   L 336.302,164.63454  "
     style="fill:none;stroke:#000000;stroke-width:9.5903616px;stroke-linecap:butt;stroke-linejoin:miter;stroke-miterlimit:10;stroke-dasharray:none;stroke-opacity:1;" />
  <path
     id="path17"
     d="  M 212.26666,298.26024   L 212.26666,257.06164   L 226.45241,257.06164   C 229.64919,257.06164 232.08674,257.26144 233.76506,257.66104   C 236.12269,258.22048 238.16064,259.17951 239.79899,260.61807   C 241.99678,262.45622 243.59518,264.81385 244.67409,267.651   C 245.75301,270.52811 246.31245,273.76486 246.31245,277.44116   C 246.31245,280.55803 245.95281,283.35522 245.19357,285.75281   C 244.47429,288.19036 243.55522,290.18835 242.39638,291.74678   C 241.23755,293.34518 239.99879,294.58393 238.64016,295.50301   C 237.28152,296.42208 235.64317,297.1014 233.7251,297.58092   C 231.80702,298.02048 229.60923,298.26024 227.13172,298.26024   z  M 217.7012,293.38514   L 226.49237,293.38514   C 229.20964,293.38514 231.32751,293.14538 232.88594,292.6259   C 234.44437,292.14638 235.68313,291.4271 236.56225,290.50803   C 237.88092,289.22931 238.87992,287.47108 239.59919,285.31325   C 240.31847,283.11546 240.67811,280.47811 240.67811,277.36124   C 240.67811,273.04558 239.95883,269.72891 238.56024,267.41124   C 237.16164,265.13353 235.44337,263.5751 233.40542,262.7759   C 231.9269,262.21646 229.60923,261.93674 226.37249,261.93674   L 217.7012,261.93674   z  M 253.90482,298.26024   L 253.90482,257.06164   L 272.16646,257.06164   C 275.84277,257.06164 278.6,257.46124 280.51807,258.18052   C 282.43614,258.93976 283.95461,260.21847 285.11345,262.09658   C 286.23233,263.97469 286.83172,266.05261 286.83172,268.33032   C 286.83172,271.24739 285.87269,273.68494 283.99457,275.68293   C 282.0765,277.72088 279.15943,278.99959 275.20341,279.51907   C 276.64196,280.19839 277.76084,280.91767 278.52008,281.55702   C 280.07851,283.03554 281.59698,284.87369 283.03554,287.07148   L 290.18835,298.26024   L 283.31526,298.26024   L 277.88072,289.70883   C 276.28233,287.23132 274.96365,285.31325 273.96465,284.03453   C 272.9257,282.71586 272.00662,281.79678 271.16747,281.27731   C 270.36827,280.75783 269.52911,280.35823 268.68996,280.15843   C 268.09056,280.03855 267.0516,279.95863 265.65301,279.95863   L 259.33935,279.95863   L 259.33935,298.26024   z  M 259.33935,275.24337   L 271.04759,275.24337   C 273.56506,275.24337 275.48313,275.00361 276.88172,274.48413   C 278.32028,273.96465 279.35923,273.1255 280.11847,272.00662   C 280.83775,270.88775 281.19739,269.64899 281.19739,268.33032   C 281.19739,266.37229 280.47811,264.77389 279.07951,263.49518   C 277.68092,262.25642 275.44317,261.61706 272.36626,261.61706   L 259.33935,261.61706   z "
     style="fill:#000000;fill-rule:evenodd;fill-opacity:1;stroke:none;" />
</svg>
