<?xml version="1.0" encoding="UTF-8" standalone="no"?>
<svg
   xmlns:dc="http://purl.org/dc/elements/1.1/"
   xmlns:cc="http://creativecommons.org/ns#"
   xmlns:rdf="http://www.w3.org/1999/02/22-rdf-syntax-ns#"
   xmlns:svg="http://www.w3.org/2000/svg"
   xmlns="http://www.w3.org/2000/svg"
   id="svg19"
   height="101.85mm"
   width="101.85mm"
   version="1.0">
  <metadata
     id="metadata23">
    <rdf:RDF>
      <cc:Work
         rdf:about="">
        <dc:format>image/svg+xml</dc:format>
        <dc:type
           rdf:resource="http://purl.org/dc/dcmitype/StillImage" />
      </cc:Work>
    </rdf:RDF>
  </metadata>
  <defs
     id="defs3">
    <pattern
       y="0"
       x="0"
       height="6"
       width="6"
       patternUnits="userSpaceOnUse"
       id="EMFhbasepattern" />
  </defs>
  <path
     id="path5"
     d="  M 330.54779,192.44658   C 330.54779,268.72992 268.72992,330.54779 192.44658,330.54779   C 116.20321,330.54779 54.345381,268.72992 54.345381,192.44658   C 54.345381,116.20321 116.20321,54.345381 192.44658,54.345381   C 268.72992,54.345381 330.54779,116.20321 330.54779,192.44658   z "
     style="fill:#80e0ff;fill-rule:evenodd;fill-opacity:1;stroke:none;" />
  <path
     id="path7"
     d="  M 330.54779,192.44658   C 330.54779,268.72992 268.72992,330.54779 192.44658,330.54779   C 116.20321,330.54779 54.345381,268.72992 54.345381,192.44658   C 54.345381,116.20321 116.20321,54.345381 192.44658,54.345381   C 268.72992,54.345381 330.54779,116.20321 330.54779,192.44658  "
     style="fill:none;stroke:#000000;stroke-width:9.5903616px;stroke-linecap:butt;stroke-linejoin:miter;stroke-miterlimit:10;stroke-dasharray:none;stroke-opacity:1;" />
  <path
     id="path9"
     d="  M 130.10924,264.37429   L 130.10924,264.37429   L 91.74779,187.6514   L 125.31405,187.6514   L 125.31405,154.08514   L 182.85622,154.08514   L 182.85622,187.6514   L 293.14538,187.6514   L 254.78393,264.37429   z "
     style="fill:#ffffff;fill-rule:evenodd;fill-opacity:1;stroke:none;" />
  <path
     id="path11"
     d="  M 130.10924,264.37429   L 130.10924,264.37429   L 91.74779,187.6514   L 125.31405,187.6514   L 125.31405,154.08514   L 182.85622,154.08514   L 182.85622,187.6514   L 293.14538,187.6514   L 254.78393,264.37429   z "
     style="fill:none;stroke:#000000;stroke-width:9.5903616px;stroke-linecap:butt;stroke-linejoin:miter;stroke-miterlimit:10;stroke-dasharray:none;stroke-opacity:1;" />
  <path
     id="path13"
     d="  M 205.87309,188.61044   L 205.87309,87.911645  "
     style="fill:none;stroke:#000000;stroke-width:9.5903616px;stroke-linecap:butt;stroke-linejoin:miter;stroke-miterlimit:10;stroke-dasharray:none;stroke-opacity:1;" />
  <path
     id="path15"
     d="  M 205.87309,187.6514   L 282.59598,110.92851  "
     style="fill:none;stroke:#000000;stroke-width:9.5903616px;stroke-linecap:butt;stroke-linejoin:miter;stroke-miterlimit:10;stroke-dasharray:none;stroke-opacity:1;" />
  <path
     id="path17"
     d="  M 158.56064,244.55421   L 158.56064,203.35562   L 172.74638,203.35562   C 175.94317,203.35562 178.38072,203.55542 180.05903,203.95502   C 182.41666,204.51445 184.45462,205.47349 186.09297,206.91205   C 188.29076,208.7502 189.88915,211.10783 190.96807,213.94498   C 192.04699,216.82209 192.60642,220.05883 192.60642,223.73514   C 192.60642,226.852 192.24678,229.64919 191.48755,232.04678   C 190.76827,234.48433 189.84919,236.48233 188.69036,238.04076   C 187.53152,239.63915 186.29277,240.87791 184.93413,241.79698   C 183.5755,242.71606 181.93715,243.39538 180.01907,243.8749   C 178.101,244.31445 175.90321,244.55421 173.4257,244.55421   z  M 163.99518,239.67911   L 172.78634,239.67911   C 175.50361,239.67911 177.62148,239.43935 179.17992,238.91988   C 180.73835,238.44036 181.97711,237.72108 182.85622,236.802   C 184.1749,235.52329 185.17389,233.76506 185.89317,231.60723   C 186.61245,229.40943 186.97209,226.77209 186.97209,223.65522   C 186.97209,219.33956 186.25281,216.02289 184.85421,213.70522   C 183.45562,211.42751 181.73735,209.86907 179.69939,209.06988   C 178.22088,208.51044 175.90321,208.23072 172.66646,208.23072   L 163.99518,208.23072   z  M 200.39859,244.55421   L 200.39859,203.35562   L 228.17068,203.35562   L 228.17068,208.23072   L 205.83313,208.23072   L 205.83313,220.97791   L 225.17369,220.97791   L 225.17369,225.85301   L 205.83313,225.85301   L 205.83313,244.55421   z "
     style="fill:#000000;fill-rule:evenodd;fill-opacity:1;stroke:none;" />
</svg>
