<?xml version="1.0" encoding="UTF-8" standalone="no"?>
<svg
   xmlns:dc="http://purl.org/dc/elements/1.1/"
   xmlns:cc="http://creativecommons.org/ns#"
   xmlns:rdf="http://www.w3.org/1999/02/22-rdf-syntax-ns#"
   xmlns:svg="http://www.w3.org/2000/svg"
   xmlns="http://www.w3.org/2000/svg"
   id="svg37"
   height="81.709999mm"
   width="69.879997mm"
   version="1.0">
  <metadata
     id="metadata41">
    <rdf:RDF>
      <cc:Work
         rdf:about="">
        <dc:format>image/svg+xml</dc:format>
        <dc:type
           rdf:resource="http://purl.org/dc/dcmitype/StillImage" />
      </cc:Work>
    </rdf:RDF>
  </metadata>
  <defs
     id="defs3">
    <pattern
       y="0"
       x="0"
       height="6"
       width="6"
       patternUnits="userSpaceOnUse"
       id="EMFhbasepattern" />
  </defs>
  <path
     id="path5"
     d="  M 252.86586,136.18313   C 252.86586,149.4498 242.15662,160.15903 228.88996,160.15903   C 215.66325,160.15903 204.91405,149.4498 204.91405,136.18313   C 204.91405,122.95642 215.66325,112.20723 228.88996,112.20723   C 242.15662,112.20723 252.86586,122.95642 252.86586,136.18313   z "
     style="fill:#008000;fill-rule:evenodd;fill-opacity:1;stroke:none;" />
  <path
     id="path7"
     d="  M 252.86586,136.18313   C 252.86586,149.4498 242.15662,160.15903 228.88996,160.15903   C 215.66325,160.15903 204.91405,149.4498 204.91405,136.18313   C 204.91405,122.95642 215.66325,112.20723 228.88996,112.20723   C 242.15662,112.20723 252.86586,122.95642 252.86586,136.18313  "
     style="fill:none;stroke:#008000;stroke-width:0.95903611px;stroke-linecap:butt;stroke-linejoin:miter;stroke-miterlimit:10;stroke-dasharray:none;stroke-opacity:1;" />
  <path
     id="path9"
     d="  M 228.88996,160.63855   C 231.00783,172.58654 208.7502,195.16385 208.7502,195.16385   C 239.55923,195.36365 252.78594,163.0761 252.74598,139.14016   z "
     style="fill:#008000;fill-rule:evenodd;fill-opacity:1;stroke:none;" />
  <path
     id="path11"
     d="  M 228.88996,160.63855   C 231.00783,172.58654 208.7502,195.16385 208.7502,195.16385   C 239.55923,195.36365 252.78594,163.0761 252.74598,139.14016  "
     style="fill:none;stroke:#008000;stroke-width:0.95903611px;stroke-linecap:butt;stroke-linejoin:miter;stroke-miterlimit:10;stroke-dasharray:none;stroke-opacity:1;" />
  <path
     id="path13"
     d="  M 59.140561,136.18313   C 59.140561,149.4498 48.431325,160.15903 35.164658,160.15903   C 21.937951,160.15903 11.188755,149.4498 11.188755,136.18313   C 11.188755,122.95642 21.937951,112.20723 35.164658,112.20723   C 48.431325,112.20723 59.140561,122.95642 59.140561,136.18313   z "
     style="fill:#008000;fill-rule:evenodd;fill-opacity:1;stroke:none;" />
  <path
     id="path15"
     d="  M 59.140561,136.18313   C 59.140561,149.4498 48.431325,160.15903 35.164658,160.15903   C 21.937951,160.15903 11.188755,149.4498 11.188755,136.18313   C 11.188755,122.95642 21.937951,112.20723 35.164658,112.20723   C 48.431325,112.20723 59.140561,122.95642 59.140561,136.18313  "
     style="fill:none;stroke:#008000;stroke-width:0.95903611px;stroke-linecap:butt;stroke-linejoin:miter;stroke-miterlimit:10;stroke-dasharray:none;stroke-opacity:1;" />
  <path
     id="path17"
     d="  M 35.164658,160.63855   C 37.28253,172.58654 15.024899,195.16385 15.024899,195.16385   C 45.833935,195.36365 59.060642,163.0761 59.020682,139.14016   z "
     style="fill:#008000;fill-rule:evenodd;fill-opacity:1;stroke:none;" />
  <path
     id="path19"
     d="  M 35.164658,160.63855   C 37.28253,172.58654 15.024899,195.16385 15.024899,195.16385   C 45.833935,195.36365 59.060642,163.0761 59.020682,139.14016  "
     style="fill:none;stroke:#008000;stroke-width:0.95903611px;stroke-linecap:butt;stroke-linejoin:miter;stroke-miterlimit:10;stroke-dasharray:none;stroke-opacity:1;" />
  <path
     id="path21"
     d="  M 157.92128,35.484337   C 157.92128,48.751003 147.21205,59.46024 133.94538,59.46024   C 120.71867,59.46024 109.96948,48.751003 109.96948,35.484337   C 109.96948,22.25763 120.71867,11.508434 133.94538,11.508434   C 147.21205,11.508434 157.92128,22.25763 157.92128,35.484337   z "
     style="fill:#008000;fill-rule:evenodd;fill-opacity:1;stroke:none;" />
  <path
     id="path23"
     d="  M 157.92128,35.484337   C 157.92128,48.751003 147.21205,59.46024 133.94538,59.46024   C 120.71867,59.46024 109.96948,48.751003 109.96948,35.484337   C 109.96948,22.25763 120.71867,11.508434 133.94538,11.508434   C 147.21205,11.508434 157.92128,22.25763 157.92128,35.484337  "
     style="fill:none;stroke:#008000;stroke-width:0.95903611px;stroke-linecap:butt;stroke-linejoin:miter;stroke-miterlimit:10;stroke-dasharray:none;stroke-opacity:1;" />
  <path
     id="path25"
     d="  M 133.94538,59.939758   C 136.06325,71.88775 113.80562,94.465059 113.80562,94.465059   C 144.61466,94.664858 157.84136,62.377308 157.8014,38.441365   z "
     style="fill:#008000;fill-rule:evenodd;fill-opacity:1;stroke:none;" />
  <path
     id="path27"
     d="  M 133.94538,59.939758   C 136.06325,71.88775 113.80562,94.465059 113.80562,94.465059   C 144.61466,94.664858 157.84136,62.377308 157.8014,38.441365  "
     style="fill:none;stroke:#008000;stroke-width:0.95903611px;stroke-linecap:butt;stroke-linejoin:miter;stroke-miterlimit:10;stroke-dasharray:none;stroke-opacity:1;" />
  <path
     id="path29"
     d="  M 156.96225,237.84096   C 156.96225,251.10763 146.25301,261.81686 132.98634,261.81686   C 119.75964,261.81686 109.01044,251.10763 109.01044,237.84096   C 109.01044,224.61425 119.75964,213.86506 132.98634,213.86506   C 146.25301,213.86506 156.96225,224.61425 156.96225,237.84096   z "
     style="fill:#008000;fill-rule:evenodd;fill-opacity:1;stroke:none;" />
  <path
     id="path31"
     d="  M 156.96225,237.84096   C 156.96225,251.10763 146.25301,261.81686 132.98634,261.81686   C 119.75964,261.81686 109.01044,251.10763 109.01044,237.84096   C 109.01044,224.61425 119.75964,213.86506 132.98634,213.86506   C 146.25301,213.86506 156.96225,224.61425 156.96225,237.84096  "
     style="fill:none;stroke:#008000;stroke-width:0.95903611px;stroke-linecap:butt;stroke-linejoin:miter;stroke-miterlimit:10;stroke-dasharray:none;stroke-opacity:1;" />
  <path
     id="path33"
     d="  M 132.98634,262.29638   C 135.10421,274.24437 112.84658,296.82168 112.84658,296.82168   C 143.65562,297.02148 156.88233,264.73393 156.84237,240.79799   z "
     style="fill:#008000;fill-rule:evenodd;fill-opacity:1;stroke:none;" />
  <path
     id="path35"
     d="  M 132.98634,262.29638   C 135.10421,274.24437 112.84658,296.82168 112.84658,296.82168   C 143.65562,297.02148 156.88233,264.73393 156.84237,240.79799  "
     style="fill:none;stroke:#008000;stroke-width:0.95903611px;stroke-linecap:butt;stroke-linejoin:miter;stroke-miterlimit:10;stroke-dasharray:none;stroke-opacity:1;" />
</svg>
