<?xml version="1.0" encoding="UTF-8" standalone="no"?>
<svg
   xmlns:dc="http://purl.org/dc/elements/1.1/"
   xmlns:cc="http://creativecommons.org/ns#"
   xmlns:rdf="http://www.w3.org/1999/02/22-rdf-syntax-ns#"
   xmlns:svg="http://www.w3.org/2000/svg"
   xmlns="http://www.w3.org/2000/svg"
   id="svg29"
   height="56mm"
   width="56.68mm"
   version="1.0">
  <metadata
     id="metadata33">
    <rdf:RDF>
      <cc:Work
         rdf:about="">
        <dc:format>image/svg+xml</dc:format>
        <dc:type
           rdf:resource="http://purl.org/dc/dcmitype/StillImage" />
      </cc:Work>
    </rdf:RDF>
  </metadata>
  <defs
     id="defs3">
    <pattern
       y="0"
       x="0"
       height="6"
       width="6"
       patternUnits="userSpaceOnUse"
       id="EMFhbasepattern" />
  </defs>
  <path
     id="path5"
     d="  M 131.06827,35.484337   C 131.06827,48.751003 120.35903,59.46024 107.09237,59.46024   C 93.865661,59.46024 83.116465,48.751003 83.116465,35.484337   C 83.116465,22.25763 93.865661,11.508434 107.09237,11.508434   C 120.35903,11.508434 131.06827,22.25763 131.06827,35.484337   z "
     style="fill:#008000;fill-rule:evenodd;fill-opacity:1;stroke:none;" />
  <path
     id="path7"
     d="  M 131.06827,35.484337   C 131.06827,48.751003 120.35903,59.46024 107.09237,59.46024   C 93.865661,59.46024 83.116465,48.751003 83.116465,35.484337   C 83.116465,22.25763 93.865661,11.508434 107.09237,11.508434   C 120.35903,11.508434 131.06827,22.25763 131.06827,35.484337  "
     style="fill:none;stroke:#008000;stroke-width:0.95903611px;stroke-linecap:butt;stroke-linejoin:miter;stroke-miterlimit:10;stroke-dasharray:none;stroke-opacity:1;" />
  <path
     id="path9"
     d="  M 107.09237,59.939758   C 109.21024,71.88775 86.952609,94.465059 86.952609,94.465059   C 117.76164,94.664858 130.98835,62.377308 130.94839,38.441365   z "
     style="fill:#008000;fill-rule:evenodd;fill-opacity:1;stroke:none;" />
  <path
     id="path11"
     d="  M 107.09237,59.939758   C 109.21024,71.88775 86.952609,94.465059 86.952609,94.465059   C 117.76164,94.664858 130.98835,62.377308 130.94839,38.441365  "
     style="fill:none;stroke:#008000;stroke-width:0.95903611px;stroke-linecap:butt;stroke-linejoin:miter;stroke-miterlimit:10;stroke-dasharray:none;stroke-opacity:1;" />
  <path
     id="path13"
     d="  M 59.140561,140.97831   C 59.140561,154.24498 48.431325,164.95421 35.164658,164.95421   C 21.937951,164.95421 11.188755,154.24498 11.188755,140.97831   C 11.188755,127.7516 21.937951,117.00241 35.164658,117.00241   C 48.431325,117.00241 59.140561,127.7516 59.140561,140.97831   z "
     style="fill:#008000;fill-rule:evenodd;fill-opacity:1;stroke:none;" />
  <path
     id="path15"
     d="  M 59.140561,140.97831   C 59.140561,154.24498 48.431325,164.95421 35.164658,164.95421   C 21.937951,164.95421 11.188755,154.24498 11.188755,140.97831   C 11.188755,127.7516 21.937951,117.00241 35.164658,117.00241   C 48.431325,117.00241 59.140561,127.7516 59.140561,140.97831  "
     style="fill:none;stroke:#008000;stroke-width:0.95903611px;stroke-linecap:butt;stroke-linejoin:miter;stroke-miterlimit:10;stroke-dasharray:none;stroke-opacity:1;" />
  <path
     id="path17"
     d="  M 35.164658,165.43373   C 37.28253,177.38172 15.024899,199.95903 15.024899,199.95903   C 45.833935,200.15883 59.060642,167.87128 59.020682,143.93534   z "
     style="fill:#008000;fill-rule:evenodd;fill-opacity:1;stroke:none;" />
  <path
     id="path19"
     d="  M 35.164658,165.43373   C 37.28253,177.38172 15.024899,199.95903 15.024899,199.95903   C 45.833935,200.15883 59.060642,167.87128 59.020682,143.93534  "
     style="fill:none;stroke:#008000;stroke-width:0.95903611px;stroke-linecap:butt;stroke-linejoin:miter;stroke-miterlimit:10;stroke-dasharray:none;stroke-opacity:1;" />
  <path
     id="path21"
     d="  M 202.99598,140.01928   C 202.99598,153.28594 192.28674,163.99518 179.02008,163.99518   C 165.79337,163.99518 155.04417,153.28594 155.04417,140.01928   C 155.04417,126.79257 165.79337,116.04337 179.02008,116.04337   C 192.28674,116.04337 202.99598,126.79257 202.99598,140.01928   z "
     style="fill:#008000;fill-rule:evenodd;fill-opacity:1;stroke:none;" />
  <path
     id="path23"
     d="  M 202.99598,140.01928   C 202.99598,153.28594 192.28674,163.99518 179.02008,163.99518   C 165.79337,163.99518 155.04417,153.28594 155.04417,140.01928   C 155.04417,126.79257 165.79337,116.04337 179.02008,116.04337   C 192.28674,116.04337 202.99598,126.79257 202.99598,140.01928  "
     style="fill:none;stroke:#008000;stroke-width:0.95903611px;stroke-linecap:butt;stroke-linejoin:miter;stroke-miterlimit:10;stroke-dasharray:none;stroke-opacity:1;" />
  <path
     id="path25"
     d="  M 179.02008,164.4747   C 181.13795,176.42269 158.88032,199 158.88032,199   C 189.68935,199.1998 202.91606,166.91225 202.8761,142.9763   z "
     style="fill:#008000;fill-rule:evenodd;fill-opacity:1;stroke:none;" />
  <path
     id="path27"
     d="  M 179.02008,164.4747   C 181.13795,176.42269 158.88032,199 158.88032,199   C 189.68935,199.1998 202.91606,166.91225 202.8761,142.9763  "
     style="fill:none;stroke:#008000;stroke-width:0.95903611px;stroke-linecap:butt;stroke-linejoin:miter;stroke-miterlimit:10;stroke-dasharray:none;stroke-opacity:1;" />
</svg>
