<?xml version="1.0" encoding="UTF-8" standalone="no"?>
<svg
   xmlns:dc="http://purl.org/dc/elements/1.1/"
   xmlns:cc="http://creativecommons.org/ns#"
   xmlns:rdf="http://www.w3.org/1999/02/22-rdf-syntax-ns#"
   xmlns:svg="http://www.w3.org/2000/svg"
   xmlns="http://www.w3.org/2000/svg"
   id="svg29"
   height="93.050003mm"
   width="18.959999mm"
   version="1.0">
  <metadata
     id="metadata33">
    <rdf:RDF>
      <cc:Work
         rdf:about="">
        <dc:format>image/svg+xml</dc:format>
        <dc:type
           rdf:resource="http://purl.org/dc/dcmitype/StillImage" />
      </cc:Work>
    </rdf:RDF>
  </metadata>
  <defs
     id="defs3">
    <pattern
       y="0"
       x="0"
       height="6"
       width="6"
       patternUnits="userSpaceOnUse"
       id="EMFhbasepattern" />
  </defs>
  <path
     id="path5"
     d="  M 60.099598,35.484337   C 60.099598,48.751003 49.390361,59.46024 36.123694,59.46024   C 22.896988,59.46024 12.147791,48.751003 12.147791,35.484337   C 12.147791,22.25763 22.896988,11.508434 36.123694,11.508434   C 49.390361,11.508434 60.099598,22.25763 60.099598,35.484337   z "
     style="fill:#008000;fill-rule:evenodd;fill-opacity:1;stroke:none;" />
  <path
     id="path7"
     d="  M 60.099598,35.484337   C 60.099598,48.751003 49.390361,59.46024 36.123694,59.46024   C 22.896988,59.46024 12.147791,48.751003 12.147791,35.484337   C 12.147791,22.25763 22.896988,11.508434 36.123694,11.508434   C 49.390361,11.508434 60.099598,22.25763 60.099598,35.484337  "
     style="fill:none;stroke:#008000;stroke-width:0.95903611px;stroke-linecap:butt;stroke-linejoin:miter;stroke-miterlimit:10;stroke-dasharray:none;stroke-opacity:1;" />
  <path
     id="path9"
     d="  M 36.123694,59.939758   C 38.241566,71.88775 15.983936,94.465059 15.983936,94.465059   C 46.792971,94.664858 60.019678,62.377308 59.979718,38.441365   z "
     style="fill:#008000;fill-rule:evenodd;fill-opacity:1;stroke:none;" />
  <path
     id="path11"
     d="  M 36.123694,59.939758   C 38.241566,71.88775 15.983936,94.465059 15.983936,94.465059   C 46.792971,94.664858 60.019678,62.377308 59.979718,38.441365  "
     style="fill:none;stroke:#008000;stroke-width:0.95903611px;stroke-linecap:butt;stroke-linejoin:miter;stroke-miterlimit:10;stroke-dasharray:none;stroke-opacity:1;" />
  <path
     id="path13"
     d="  M 59.140561,160.15903   C 59.140561,173.4257 48.431325,184.13494 35.164658,184.13494   C 21.937951,184.13494 11.188755,173.4257 11.188755,160.15903   C 11.188755,146.93233 21.937951,136.18313 35.164658,136.18313   C 48.431325,136.18313 59.140561,146.93233 59.140561,160.15903   z "
     style="fill:#008000;fill-rule:evenodd;fill-opacity:1;stroke:none;" />
  <path
     id="path15"
     d="  M 59.140561,160.15903   C 59.140561,173.4257 48.431325,184.13494 35.164658,184.13494   C 21.937951,184.13494 11.188755,173.4257 11.188755,160.15903   C 11.188755,146.93233 21.937951,136.18313 35.164658,136.18313   C 48.431325,136.18313 59.140561,146.93233 59.140561,160.15903  "
     style="fill:none;stroke:#008000;stroke-width:0.95903611px;stroke-linecap:butt;stroke-linejoin:miter;stroke-miterlimit:10;stroke-dasharray:none;stroke-opacity:1;" />
  <path
     id="path17"
     d="  M 35.164658,184.61446   C 37.28253,196.56245 15.024899,219.13976 15.024899,219.13976   C 45.833935,219.33956 59.060642,187.05201 59.020682,163.11606   z "
     style="fill:#008000;fill-rule:evenodd;fill-opacity:1;stroke:none;" />
  <path
     id="path19"
     d="  M 35.164658,184.61446   C 37.28253,196.56245 15.024899,219.13976 15.024899,219.13976   C 45.833935,219.33956 59.060642,187.05201 59.020682,163.11606  "
     style="fill:none;stroke:#008000;stroke-width:0.95903611px;stroke-linecap:butt;stroke-linejoin:miter;stroke-miterlimit:10;stroke-dasharray:none;stroke-opacity:1;" />
  <path
     id="path21"
     d="  M 60.099598,280.99759   C 60.099598,294.26425 49.390361,304.97349 36.123694,304.97349   C 22.896988,304.97349 12.147791,294.26425 12.147791,280.99759   C 12.147791,267.77088 22.896988,257.02168 36.123694,257.02168   C 49.390361,257.02168 60.099598,267.77088 60.099598,280.99759   z "
     style="fill:#008000;fill-rule:evenodd;fill-opacity:1;stroke:none;" />
  <path
     id="path23"
     d="  M 60.099598,280.99759   C 60.099598,294.26425 49.390361,304.97349 36.123694,304.97349   C 22.896988,304.97349 12.147791,294.26425 12.147791,280.99759   C 12.147791,267.77088 22.896988,257.02168 36.123694,257.02168   C 49.390361,257.02168 60.099598,267.77088 60.099598,280.99759  "
     style="fill:none;stroke:#008000;stroke-width:0.95903611px;stroke-linecap:butt;stroke-linejoin:miter;stroke-miterlimit:10;stroke-dasharray:none;stroke-opacity:1;" />
  <path
     id="path25"
     d="  M 36.123694,305.45301   C 38.241566,317.401 15.983936,339.97831 15.983936,339.97831   C 46.792971,340.17811 60.019678,307.89056 59.979718,283.95461   z "
     style="fill:#008000;fill-rule:evenodd;fill-opacity:1;stroke:none;" />
  <path
     id="path27"
     d="  M 36.123694,305.45301   C 38.241566,317.401 15.983936,339.97831 15.983936,339.97831   C 46.792971,340.17811 60.019678,307.89056 59.979718,283.95461  "
     style="fill:none;stroke:#008000;stroke-width:0.95903611px;stroke-linecap:butt;stroke-linejoin:miter;stroke-miterlimit:10;stroke-dasharray:none;stroke-opacity:1;" />
</svg>
