<?xml version="1.0" encoding="UTF-8" standalone="no"?>
<svg
   xmlns:dc="http://purl.org/dc/elements/1.1/"
   xmlns:cc="http://creativecommons.org/ns#"
   xmlns:rdf="http://www.w3.org/1999/02/22-rdf-syntax-ns#"
   xmlns:svg="http://www.w3.org/2000/svg"
   xmlns="http://www.w3.org/2000/svg"
   id="svg13"
   height="125.53mm"
   width="95.75mm"
   version="1.0">
  <metadata
     id="metadata17">
    <rdf:RDF>
      <cc:Work
         rdf:about="">
        <dc:format>image/svg+xml</dc:format>
        <dc:type
           rdf:resource="http://purl.org/dc/dcmitype/StillImage" />
      </cc:Work>
    </rdf:RDF>
  </metadata>
  <defs
     id="defs3">
    <pattern
       y="0"
       x="0"
       height="6"
       width="6"
       patternUnits="userSpaceOnUse"
       id="EMFhbasepattern" />
  </defs>
  <path
     id="path5"
     d="  M 307.53092,420.05783   C 307.53092,54.665059 54.345381,54.665059 54.345381,420.05783   z "
     style="fill:#80e0ff;fill-rule:evenodd;fill-opacity:1;stroke:none;" />
  <path
     id="path7"
     d="  M 307.53092,420.05783   C 307.53092,54.665059 54.345381,54.665059 54.345381,420.05783  "
     style="fill:none;stroke:#000000;stroke-width:9.5903616px;stroke-linecap:butt;stroke-linejoin:miter;stroke-miterlimit:10;stroke-dasharray:none;stroke-opacity:1;" />
  <path
     id="path9"
     d="  M 149.28996,353.68453   L 149.28996,250.70803   L 162.91626,250.70803   L 162.91626,301.7767   L 214.06486,250.70803   L 232.5263,250.70803   L 189.32972,292.46606   L 234.44437,353.68453   L 216.46245,353.68453   L 179.77931,301.5769   L 162.91626,318.0004   L 162.91626,353.68453   z "
     style="fill:#000000;fill-rule:evenodd;fill-opacity:1;stroke:none;" />
  <path
     id="path11"
     d="  M 167.5516,251.14759   L 167.5516,206.51245   L 182.89618,206.51245   C 186.37269,206.51245 189.05,206.71225 190.84819,207.1518   C 193.40562,207.7512 195.60341,208.79016 197.4016,210.34859   C 199.75923,212.34658 201.51747,214.86405 202.6763,217.98092   C 203.83514,221.05783 204.43454,224.61425 204.43454,228.57028   C 204.43454,231.96686 204.03494,234.96385 203.23574,237.6012   C 202.4765,240.19859 201.43755,242.39638 200.19879,244.0747   C 198.96004,245.79297 197.6014,247.1516 196.12289,248.1506   C 194.68433,249.10963 192.88614,249.86887 190.80823,250.38835   C 188.73032,250.86787 186.33273,251.14759 183.65542,251.14759   z  M 173.46566,245.87289   L 182.9761,245.87289   C 185.93313,245.87289 188.21084,245.59317 189.88915,245.03373   C 191.56747,244.51425 192.9261,243.71506 193.88514,242.71606   C 195.32369,241.31747 196.40261,239.43935 197.16184,237.08172   C 197.96104,234.72409 198.36064,231.84698 198.36064,228.49036   C 198.36064,223.81506 197.6014,220.25863 196.04297,217.74116   C 194.5245,215.22369 192.64638,213.54538 190.44859,212.70622   C 188.89016,212.06686 186.33273,211.78715 182.81626,211.78715   L 173.46566,211.78715   z "
     style="fill:#000000;fill-rule:evenodd;fill-opacity:1;stroke:none;" />
</svg>
