<?xml version="1.0" encoding="UTF-8" standalone="no"?>
<svg
   xmlns:dc="http://purl.org/dc/elements/1.1/"
   xmlns:cc="http://creativecommons.org/ns#"
   xmlns:rdf="http://www.w3.org/1999/02/22-rdf-syntax-ns#"
   xmlns:svg="http://www.w3.org/2000/svg"
   xmlns="http://www.w3.org/2000/svg"
   id="svg13"
   height="101.85mm"
   width="95.75mm"
   version="1.0">
  <metadata
     id="metadata17">
    <rdf:RDF>
      <cc:Work
         rdf:about="">
        <dc:format>image/svg+xml</dc:format>
        <dc:type
           rdf:resource="http://purl.org/dc/dcmitype/StillImage" />
      </cc:Work>
    </rdf:RDF>
  </metadata>
  <defs
     id="defs3">
    <pattern
       y="0"
       x="0"
       height="6"
       width="6"
       patternUnits="userSpaceOnUse"
       id="EMFhbasepattern" />
  </defs>
  <path
     id="path5"
     d="  M 54.345381,54.345381   L 54.345381,330.54779   L 307.53092,330.54779   L 307.53092,54.345381   L 54.345381,54.345381   z "
     style="fill:#aaffaa;fill-rule:evenodd;fill-opacity:1;stroke:none;" />
  <path
     id="path7"
     d="  M 54.345381,330.54779   L 54.345381,54.345381   L 307.53092,54.345381   L 307.53092,330.54779  "
     style="fill:none;stroke:#000000;stroke-width:9.5903616px;stroke-linecap:butt;stroke-linejoin:miter;stroke-miterlimit:10;stroke-dasharray:none;stroke-opacity:1;" />
  <path
     id="path9"
     d="  M 149.28996,264.17449   L 149.28996,161.19799   L 162.91626,161.19799   L 162.91626,212.26666   L 214.06486,161.19799   L 232.5263,161.19799   L 189.32972,202.95602   L 234.44437,264.17449   L 216.46245,264.17449   L 179.77931,212.06686   L 162.91626,228.49036   L 162.91626,264.17449   z "
     style="fill:#000000;fill-rule:evenodd;fill-opacity:1;stroke:none;" />
  <path
     id="path11"
     d="  M 167.5516,161.63755   L 167.5516,117.00241   L 182.89618,117.00241   C 186.37269,117.00241 189.05,117.20221 190.84819,117.64177   C 193.40562,118.24116 195.60341,119.28012 197.4016,120.83855   C 199.75923,122.83654 201.51747,125.35401 202.6763,128.47088   C 203.83514,131.54779 204.43454,135.10421 204.43454,139.06024   C 204.43454,142.45683 204.03494,145.45381 203.23574,148.09116   C 202.4765,150.68855 201.43755,152.88634 200.19879,154.56466   C 198.96004,156.28293 197.6014,157.64156 196.12289,158.64056   C 194.68433,159.5996 192.88614,160.35883 190.80823,160.87831   C 188.73032,161.35783 186.33273,161.63755 183.65542,161.63755   z  M 173.46566,156.36285   L 182.9761,156.36285   C 185.93313,156.36285 188.21084,156.08313 189.88915,155.52369   C 191.56747,155.00421 192.9261,154.20502 193.88514,153.20602   C 195.32369,151.80743 196.40261,149.92932 197.16184,147.57168   C 197.96104,145.21405 198.36064,142.33695 198.36064,138.98032   C 198.36064,134.30502 197.6014,130.74859 196.04297,128.23112   C 194.5245,125.71365 192.64638,124.03534 190.44859,123.19618   C 188.89016,122.55683 186.33273,122.27711 182.81626,122.27711   L 173.46566,122.27711   z "
     style="fill:#000000;fill-rule:evenodd;fill-opacity:1;stroke:none;" />
</svg>
