<?xml version="1.0" encoding="UTF-8" standalone="no"?>
<svg
   xmlns:dc="http://purl.org/dc/elements/1.1/"
   xmlns:cc="http://creativecommons.org/ns#"
   xmlns:rdf="http://www.w3.org/1999/02/22-rdf-syntax-ns#"
   xmlns:svg="http://www.w3.org/2000/svg"
   xmlns="http://www.w3.org/2000/svg"
   id="svg13"
   height="101.85mm"
   width="95.75mm"
   version="1.0">
  <metadata
     id="metadata17">
    <rdf:RDF>
      <cc:Work
         rdf:about="">
        <dc:format>image/svg+xml</dc:format>
        <dc:type
           rdf:resource="http://purl.org/dc/dcmitype/StillImage" />
      </cc:Work>
    </rdf:RDF>
  </metadata>
  <defs
     id="defs3">
    <pattern
       y="0"
       x="0"
       height="6"
       width="6"
       patternUnits="userSpaceOnUse"
       id="EMFhbasepattern" />
  </defs>
  <path
     id="path5"
     d="  M 54.345381,54.345381   L 54.345381,330.54779   L 307.53092,330.54779   L 307.53092,54.345381   L 54.345381,54.345381   z "
     style="fill:#aaffaa;fill-rule:evenodd;fill-opacity:1;stroke:none;" />
  <path
     id="path7"
     d="  M 54.345381,330.54779   L 54.345381,54.345381   L 307.53092,54.345381   L 307.53092,330.54779  "
     style="fill:none;stroke:#000000;stroke-width:9.5903616px;stroke-linecap:butt;stroke-linejoin:miter;stroke-miterlimit:10;stroke-dasharray:none;stroke-opacity:1;" />
  <path
     id="path9"
     d="  M 85.034537,177.10201   L 85.034537,177.10201   L 85.034537,215.46345   L 180.93815,273.00562   L 276.84176,215.46345   L 276.84176,177.10201   L 180.93815,234.64417   z "
     style="fill:#000000;fill-rule:evenodd;fill-opacity:1;stroke:none;" />
  <path
     id="path11"
     d="  M 165.03413,167.91124   L 165.03413,116.40301   L 187.8512,116.40301   C 192.44658,116.44297 195.92309,116.88253 198.32068,117.8016   C 200.71827,118.72068 202.63634,120.35903 204.03494,122.71666   C 205.47349,125.03434 206.19277,127.63173 206.19277,130.46887   C 206.19277,134.14518 204.99397,137.22209 202.63634,139.6996   C 200.27871,142.21707 196.64237,143.81546 191.68735,144.49478   C 193.48554,145.33393 194.84417,146.21305 195.80321,147.05221   C 197.8012,148.89036 199.67931,151.16807 201.43755,153.88534   L 210.42851,167.91124   L 201.83715,167.91124   L 195.04397,157.20201   C 193.04598,154.1251 191.40763,151.72751 190.12891,150.08915   C 188.81024,148.4508 187.6514,147.33193 186.65241,146.65261   C 185.61345,146.01325 184.61446,145.53373 183.53554,145.29397   C 182.7763,145.13413 181.49759,145.05421 179.73935,145.05421   L 171.82731,145.05421   L 171.82731,167.91124   z  M 171.82731,139.14016   L 186.49257,139.14016   C 189.60944,139.14016 192.04699,138.82048 193.80522,138.18112   C 195.56345,137.54177 196.88213,136.50281 197.8012,135.10421   C 198.72028,133.66566 199.15984,132.14719 199.15984,130.46887   C 199.15984,128.03132 198.28072,126.03333 196.52249,124.4749   C 194.76425,122.91646 191.96707,122.11727 188.13092,122.11727   L 171.82731,122.11727   z "
     style="fill:#000000;fill-rule:evenodd;fill-opacity:1;stroke:none;" />
</svg>
