<?xml version="1.0" encoding="UTF-8" standalone="no"?>
<svg
   xmlns:dc="http://purl.org/dc/elements/1.1/"
   xmlns:cc="http://creativecommons.org/ns#"
   xmlns:rdf="http://www.w3.org/1999/02/22-rdf-syntax-ns#"
   xmlns:svg="http://www.w3.org/2000/svg"
   xmlns="http://www.w3.org/2000/svg"
   id="svg13"
   height="125.53mm"
   width="95.75mm"
   version="1.0">
  <metadata
     id="metadata17">
    <rdf:RDF>
      <cc:Work
         rdf:about="">
        <dc:format>image/svg+xml</dc:format>
        <dc:type
           rdf:resource="http://purl.org/dc/dcmitype/StillImage" />
      </cc:Work>
    </rdf:RDF>
  </metadata>
  <defs
     id="defs3">
    <pattern
       y="0"
       x="0"
       height="6"
       width="6"
       patternUnits="userSpaceOnUse"
       id="EMFhbasepattern" />
  </defs>
  <path
     id="path5"
     d="  M 307.53092,420.05783   C 307.53092,54.665059 54.345381,54.665059 54.345381,420.05783   z "
     style="fill:#80e0ff;fill-rule:evenodd;fill-opacity:1;stroke:none;" />
  <path
     id="path7"
     d="  M 307.53092,420.05783   C 307.53092,54.665059 54.345381,54.665059 54.345381,420.05783  "
     style="fill:none;stroke:#000000;stroke-width:9.5903616px;stroke-linecap:butt;stroke-linejoin:miter;stroke-miterlimit:10;stroke-dasharray:none;stroke-opacity:1;" />
  <path
     id="path9"
     d="  M 85.034537,266.61204   L 85.034537,266.61204   L 85.034537,304.97349   L 180.93815,362.51566   L 276.84176,304.97349   L 276.84176,266.61204   L 180.93815,324.15421   z "
     style="fill:#000000;fill-rule:evenodd;fill-opacity:1;stroke:none;" />
  <path
     id="path11"
     d="  M 165.03413,257.42128   L 165.03413,205.91305   L 187.8512,205.91305   C 192.44658,205.95301 195.92309,206.39257 198.32068,207.31164   C 200.71827,208.23072 202.63634,209.86907 204.03494,212.2267   C 205.47349,214.54437 206.19277,217.14176 206.19277,219.97891   C 206.19277,223.65522 204.99397,226.73213 202.63634,229.20964   C 200.27871,231.72711 196.64237,233.3255 191.68735,234.00482   C 193.48554,234.84397 194.84417,235.72309 195.80321,236.56225   C 197.8012,238.4004 199.67931,240.67811 201.43755,243.39538   L 210.42851,257.42128   L 201.83715,257.42128   L 195.04397,246.71204   C 193.04598,243.63514 191.40763,241.23755 190.12891,239.59919   C 188.81024,237.96084 187.6514,236.84196 186.65241,236.16265   C 185.61345,235.52329 184.61446,235.04377 183.53554,234.80401   C 182.7763,234.64417 181.49759,234.56425 179.73935,234.56425   L 171.82731,234.56425   L 171.82731,257.42128   z  M 171.82731,228.6502   L 186.49257,228.6502   C 189.60944,228.6502 192.04699,228.33052 193.80522,227.69116   C 195.56345,227.0518 196.88213,226.01285 197.8012,224.61425   C 198.72028,223.1757 199.15984,221.65723 199.15984,219.97891   C 199.15984,217.54136 198.28072,215.54337 196.52249,213.98494   C 194.76425,212.4265 191.96707,211.62731 188.13092,211.62731   L 171.82731,211.62731   z "
     style="fill:#000000;fill-rule:evenodd;fill-opacity:1;stroke:none;" />
</svg>
