<?xml version="1.0" encoding="UTF-8" standalone="no"?>
<svg
   xmlns:dc="http://purl.org/dc/elements/1.1/"
   xmlns:cc="http://creativecommons.org/ns#"
   xmlns:rdf="http://www.w3.org/1999/02/22-rdf-syntax-ns#"
   xmlns:svg="http://www.w3.org/2000/svg"
   xmlns="http://www.w3.org/2000/svg"
   id="svg13"
   height="125.53mm"
   width="95.75mm"
   version="1.0">
  <metadata
     id="metadata17">
    <rdf:RDF>
      <cc:Work
         rdf:about="">
        <dc:format>image/svg+xml</dc:format>
        <dc:type
           rdf:resource="http://purl.org/dc/dcmitype/StillImage" />
      </cc:Work>
    </rdf:RDF>
  </metadata>
  <defs
     id="defs3">
    <pattern
       y="0"
       x="0"
       height="6"
       width="6"
       patternUnits="userSpaceOnUse"
       id="EMFhbasepattern" />
  </defs>
  <path
     id="path5"
     d="  M 307.53092,420.05783   C 307.53092,54.665059 54.345381,54.665059 54.345381,420.05783   z "
     style="fill:#80e0ff;fill-rule:evenodd;fill-opacity:1;stroke:none;" />
  <path
     id="path7"
     d="  M 307.53092,420.05783   C 307.53092,54.665059 54.345381,54.665059 54.345381,420.05783  "
     style="fill:none;stroke:#000000;stroke-width:9.5903616px;stroke-linecap:butt;stroke-linejoin:miter;stroke-miterlimit:10;stroke-dasharray:none;stroke-opacity:1;" />
  <path
     id="path9"
     d="  M 85.034537,266.61204   L 85.034537,266.61204   L 85.034537,304.97349   L 180.93815,362.51566   L 276.84176,304.97349   L 276.84176,266.61204   L 180.93815,324.15421   z "
     style="fill:#000000;fill-rule:evenodd;fill-opacity:1;stroke:none;" />
  <path
     id="path11"
     d="  M 177.5016,257.42128   L 177.5016,235.60321   L 157.68152,205.91305   L 165.95321,205.91305   L 176.10301,221.45743   C 177.98112,224.37449 179.73935,227.2516 181.33775,230.16867   C 182.89618,227.49136 184.77429,224.45441 186.97209,221.05783   L 196.92209,205.91305   L 204.87409,205.91305   L 184.33474,235.60321   L 184.33474,257.42128   z "
     style="fill:#000000;fill-rule:evenodd;fill-opacity:1;stroke:none;" />
</svg>
