<?xml version="1.0" encoding="UTF-8" standalone="no"?>
<svg
   xmlns:dc="http://purl.org/dc/elements/1.1/"
   xmlns:cc="http://creativecommons.org/ns#"
   xmlns:rdf="http://www.w3.org/1999/02/22-rdf-syntax-ns#"
   xmlns:svg="http://www.w3.org/2000/svg"
   xmlns="http://www.w3.org/2000/svg"
   id="svg13"
   height="116.06mm"
   width="135.35001mm"
   version="1.0">
  <metadata
     id="metadata17">
    <rdf:RDF>
      <cc:Work
         rdf:about="">
        <dc:format>image/svg+xml</dc:format>
        <dc:type
           rdf:resource="http://purl.org/dc/dcmitype/StillImage" />
      </cc:Work>
    </rdf:RDF>
  </metadata>
  <defs
     id="defs3">
    <pattern
       y="0"
       x="0"
       height="6"
       width="6"
       patternUnits="userSpaceOnUse"
       id="EMFhbasepattern" />
  </defs>
  <path
     id="path5"
     d="  M 337.26104,384.25381   C 457.14056,384.25381 457.14056,187.6514 337.26104,187.6514   C 337.26104,54.345381 174.2249,54.345381 174.2249,187.6514   C 54.345381,187.6514 54.345381,384.25381 174.2249,384.25381   z "
     style="fill:#ffff80;fill-rule:evenodd;fill-opacity:1;stroke:none;" />
  <path
     id="path7"
     d="  M 337.26104,384.25381   C 457.14056,384.25381 457.14056,187.6514 337.26104,187.6514   C 337.26104,54.345381 174.2249,54.345381 174.2249,187.6514   C 54.345381,187.6514 54.345381,384.25381 174.2249,384.25381  "
     style="fill:none;stroke:#000000;stroke-width:9.5903616px;stroke-linecap:butt;stroke-linejoin:miter;stroke-miterlimit:10;stroke-dasharray:none;stroke-opacity:1;" />
  <path
     id="path9"
     d="  M 159.83936,230.80803   L 159.83936,230.80803   L 159.83936,269.16947   L 255.74297,326.71164   L 351.64658,269.16947   L 351.64658,230.80803   L 255.74297,288.3502   z "
     style="fill:#000000;fill-rule:evenodd;fill-opacity:1;stroke:none;" />
  <path
     id="path11"
     d="  M 243.75502,221.61727   L 243.75502,170.10903   L 263.09558,170.10903   C 267.01164,170.14899 270.16847,170.66847 272.56606,171.70743   C 274.92369,172.74638 276.8018,174.34478 278.12048,176.50261   C 279.47911,178.66044 280.15843,180.93815 280.15843,183.29578   C 280.15843,185.49357 279.55903,187.57148 278.36024,189.52952   C 277.16144,191.44759 275.36325,193.04598 272.96566,194.20482   C 276.08253,195.12389 278.48012,196.68233 280.11847,198.88012   C 281.79678,201.07791 282.63594,203.6753 282.63594,206.67229   C 282.63594,209.10984 282.15642,211.34759 281.11747,213.4255   C 280.11847,215.50341 278.83976,217.1018 277.36124,218.22068   C 275.84277,219.33956 273.96465,220.17871 271.68694,220.73815   C 269.44919,221.33755 266.69196,221.61727 263.41526,221.61727   z  M 250.58815,191.76727   L 261.69698,191.76727   C 264.73393,191.76727 266.89176,191.56747 268.21044,191.16787   C 269.92871,190.64839 271.24739,189.80923 272.1265,188.61044   C 273.00562,187.41164 273.44518,185.89317 273.44518,184.09498   C 273.44518,182.41666 273.04558,180.89819 272.20642,179.57952   C 271.40722,178.3008 270.20843,177.42168 268.68996,176.94217   C 267.17148,176.46265 264.57409,176.22289 260.85783,176.22289   L 250.58815,176.22289   z  M 250.58815,215.54337   L 263.41526,215.54337   C 265.61305,215.54337 267.13152,215.46345 268.0506,215.30361   C 269.60903,215.02389 270.92771,214.54437 271.96666,213.90502   C 273.00562,213.2257 273.88473,212.26666 274.56405,211.02791   C 275.24337,209.78915 275.60301,208.3506 275.60301,206.67229   C 275.60301,204.75421 275.08353,203.11586 274.12449,201.67731   C 273.1255,200.27871 271.76686,199.27972 270.00863,198.72028   C 268.29036,198.12088 265.77289,197.84116 262.49618,197.84116   L 250.58815,197.84116   z "
     style="fill:#000000;fill-rule:evenodd;fill-opacity:1;stroke:none;" />
</svg>
