<?xml version="1.0" encoding="UTF-8" standalone="no"?>
<svg
   xmlns:dc="http://purl.org/dc/elements/1.1/"
   xmlns:cc="http://creativecommons.org/ns#"
   xmlns:rdf="http://www.w3.org/1999/02/22-rdf-syntax-ns#"
   xmlns:svg="http://www.w3.org/2000/svg"
   xmlns="http://www.w3.org/2000/svg"
   id="svg13"
   height="125.53mm"
   width="95.75mm"
   version="1.0">
  <metadata
     id="metadata17">
    <rdf:RDF>
      <cc:Work
         rdf:about="">
        <dc:format>image/svg+xml</dc:format>
        <dc:type
           rdf:resource="http://purl.org/dc/dcmitype/StillImage" />
      </cc:Work>
    </rdf:RDF>
  </metadata>
  <defs
     id="defs3">
    <pattern
       y="0"
       x="0"
       height="6"
       width="6"
       patternUnits="userSpaceOnUse"
       id="EMFhbasepattern" />
  </defs>
  <path
     id="path5"
     d="  M 307.53092,420.05783   C 307.53092,54.665059 54.345381,54.665059 54.345381,420.05783   z "
     style="fill:#80e0ff;fill-rule:evenodd;fill-opacity:1;stroke:none;" />
  <path
     id="path7"
     d="  M 307.53092,420.05783   C 307.53092,54.665059 54.345381,54.665059 54.345381,420.05783  "
     style="fill:none;stroke:#000000;stroke-width:9.5903616px;stroke-linecap:butt;stroke-linejoin:miter;stroke-miterlimit:10;stroke-dasharray:none;stroke-opacity:1;" />
  <path
     id="path9"
     d="  M 85.034537,266.61204   L 85.034537,266.61204   L 85.034537,304.97349   L 180.93815,362.51566   L 276.84176,304.97349   L 276.84176,266.61204   L 180.93815,324.15421   z "
     style="fill:#000000;fill-rule:evenodd;fill-opacity:1;stroke:none;" />
  <path
     id="path11"
     d="  M 163.55562,240.87791   L 169.98915,240.31847   C 170.30883,242.8759 171.02811,244.99377 172.10703,246.67208   C 173.2259,248.31044 174.94417,249.62911 177.3018,250.66807   C 179.65944,251.66706 182.29678,252.18654 185.21385,252.18654   C 187.81124,252.18654 190.08895,251.78694 192.08695,251.02771   C 194.08494,250.26847 195.56345,249.18955 196.52249,247.87088   C 197.52148,246.51225 198.001,245.03373 198.001,243.43534   C 198.001,241.83694 197.52148,240.43835 196.56245,239.19959   C 195.64337,238.0008 194.08494,237.0018 191.92711,236.16265   C 190.56847,235.64317 187.49156,234.80401 182.7763,233.64518   C 178.06104,232.5263 174.74437,231.44739 172.8263,230.44839   C 170.38875,229.16968 168.5506,227.57128 167.3518,225.65321   C 166.15301,223.73514 165.55361,221.61727 165.55361,219.25964   C 165.55361,216.66225 166.27289,214.2247 167.7514,211.94698   C 169.22992,209.70923 171.38775,207.99096 174.2249,206.83213   C 177.06205,205.63333 180.17891,205.07389 183.65542,205.07389   C 187.49156,205.07389 190.84819,205.67329 193.76526,206.91205   C 196.68233,208.11084 198.92008,209.94899 200.47851,212.34658   C 202.03694,214.70421 202.8761,217.42148 202.99598,220.41847   L 196.48253,220.93795   C 196.12289,217.66124 194.92409,215.22369 192.9261,213.54538   C 190.88815,211.90703 187.89116,211.06787 183.93514,211.06787   C 179.81927,211.06787 176.82229,211.82711 174.94417,213.34558   C 173.06606,214.82409 172.10703,216.66225 172.10703,218.78012   C 172.10703,220.65823 172.78634,222.1767 174.10502,223.33554   C 175.42369,224.53433 178.86024,225.77309 184.3747,227.01184   C 189.92911,228.29056 193.7253,229.36947 195.76325,230.28855   C 198.76024,231.68715 200.99799,233.44538 202.39658,235.56325   C 203.83514,237.68112 204.55441,240.11867 204.55441,242.8759   C 204.55441,245.63313 203.75522,248.19056 202.19678,250.62811   C 200.63835,253.06566 198.36064,254.94377 195.44357,256.26245   C 192.48654,257.62108 189.20984,258.3004 185.53353,258.3004   C 180.85823,258.3004 176.94217,257.62108 173.8253,256.26245   C 170.66847,254.90381 168.19096,252.86586 166.39277,250.14859   C 164.59458,247.39136 163.6755,244.31445 163.55562,240.87791   z "
     style="fill:#000000;fill-rule:evenodd;fill-opacity:1;stroke:none;" />
</svg>
