<?xml version="1.0" encoding="UTF-8" standalone="no"?>
<svg
   xmlns:dc="http://purl.org/dc/elements/1.1/"
   xmlns:cc="http://creativecommons.org/ns#"
   xmlns:rdf="http://www.w3.org/1999/02/22-rdf-syntax-ns#"
   xmlns:svg="http://www.w3.org/2000/svg"
   xmlns="http://www.w3.org/2000/svg"
   id="svg15"
   height="107.94mm"
   width="95.75mm"
   version="1.0">
  <metadata
     id="metadata19">
    <rdf:RDF>
      <cc:Work
         rdf:about="">
        <dc:format>image/svg+xml</dc:format>
        <dc:type
           rdf:resource="http://purl.org/dc/dcmitype/StillImage" />
      </cc:Work>
    </rdf:RDF>
  </metadata>
  <defs
     id="defs3">
    <pattern
       y="0"
       x="0"
       height="6"
       width="6"
       patternUnits="userSpaceOnUse"
       id="EMFhbasepattern" />
  </defs>
  <path
     id="path5"
     d="  M 54.345381,353.56465   L 54.345381,171.34779   L 180.93815,54.345381   L 307.53092,171.34779   L 307.53092,353.56465   z "
     style="fill:#ff8080;fill-rule:evenodd;fill-opacity:1;stroke:none;" />
  <path
     id="path7"
     d="  M 54.345381,353.56465   L 54.345381,171.34779   L 180.93815,54.345381   L 307.53092,171.34779   L 307.53092,353.56465  "
     style="fill:none;stroke:#000000;stroke-width:9.5903616px;stroke-linecap:butt;stroke-linejoin:miter;stroke-miterlimit:10;stroke-dasharray:none;stroke-opacity:1;" />
  <path
     id="path9"
     d="  M 85.034537,200.11887   L 85.034537,200.11887   L 85.034537,238.48032   L 180.93815,296.02249   L 276.84176,238.48032   L 276.84176,200.11887   L 180.93815,257.66104   z "
     style="fill:#000000;fill-rule:evenodd;fill-opacity:1;stroke:none;" />
  <path
     id="path11"
     d="  M 120.95843,185.09397   L 120.95843,143.89538   L 129.19016,143.89538   L 138.94036,173.06606   C 139.81948,175.78333 140.49879,177.82128 140.89839,179.17992   C 141.37791,177.66144 142.09719,175.46365 143.09618,172.54658   L 152.9263,143.89538   L 160.27891,143.89538   L 160.27891,185.09397   L 155.04417,185.09397   L 155.04417,150.60863   L 143.05622,185.09397   L 138.14116,185.09397   L 126.23313,150.04919   L 126.23313,185.09397   z  M 198.48052,170.66847   L 203.91506,172.02711   C 202.75622,176.50261 200.71827,179.93915 197.76124,182.25682   C 194.76425,184.61446 191.16787,185.81325 186.85221,185.81325   C 182.41666,185.81325 178.82028,184.89417 176.02309,183.09598   C 173.26586,181.29779 171.14799,178.66044 169.66948,175.22389   C 168.23092,171.82731 167.51164,168.11104 167.51164,164.19498   C 167.51164,159.91927 168.31084,156.16305 169.94919,152.96626   C 171.58755,149.76948 173.94518,147.33193 176.94217,145.69357   C 179.97911,144.01526 183.29578,143.21606 186.93213,143.21606   C 191.04799,143.21606 194.5245,144.25502 197.32168,146.33293   C 200.15883,148.4508 202.11686,151.40783 203.19578,155.20401   L 197.84116,156.48273   C 196.88213,153.48574 195.52349,151.28795 193.68534,149.92932   C 191.88715,148.57068 189.56948,147.8514 186.81225,147.8514   C 183.65542,147.8514 181.01807,148.61064 178.9002,150.12911   C 176.78233,151.64759 175.26385,153.68554 174.4247,156.24297   C 173.54558,158.8004 173.10602,161.43775 173.10602,164.15502   C 173.10602,167.67148 173.6255,170.70843 174.66446,173.34578   C 175.66345,175.94317 177.26184,177.9012 179.41968,179.17992   C 181.57751,180.49859 183.89518,181.13795 186.41265,181.13795   C 189.4496,181.13795 192.04699,180.25883 194.16486,178.5006   C 196.28273,176.74237 197.72128,174.10502 198.48052,170.66847   z  M 210.46847,185.09397   L 210.46847,143.89538   L 218.66024,143.89538   L 228.41044,173.06606   C 229.32951,175.78333 229.96887,177.82128 230.36847,179.17992   C 230.84799,177.66144 231.56727,175.46365 232.56626,172.54658   L 242.43634,143.89538   L 249.74899,143.89538   L 249.74899,185.09397   L 244.51425,185.09397   L 244.51425,150.60863   L 232.5263,185.09397   L 227.61124,185.09397   L 215.70321,150.04919   L 215.70321,185.09397   z "
     style="fill:#000000;fill-rule:evenodd;fill-opacity:1;stroke:none;" />
  <path
     id="path13"
     d="  M 120.95843,185.09397   L 120.95843,143.89538   L 129.19016,143.89538   L 138.94036,173.06606   C 139.81948,175.78333 140.49879,177.82128 140.89839,179.17992   C 141.37791,177.66144 142.09719,175.46365 143.09618,172.54658   L 152.9263,143.89538   L 160.27891,143.89538   L 160.27891,185.09397   L 155.04417,185.09397   L 155.04417,150.60863   L 143.05622,185.09397   L 138.14116,185.09397   L 126.23313,150.04919   L 126.23313,185.09397   z  M 198.48052,170.66847   L 203.91506,172.02711   C 202.75622,176.50261 200.71827,179.93915 197.76124,182.25682   C 194.76425,184.61446 191.16787,185.81325 186.85221,185.81325   C 182.41666,185.81325 178.82028,184.89417 176.02309,183.09598   C 173.26586,181.29779 171.14799,178.66044 169.66948,175.22389   C 168.23092,171.82731 167.51164,168.11104 167.51164,164.19498   C 167.51164,159.91927 168.31084,156.16305 169.94919,152.96626   C 171.58755,149.76948 173.94518,147.33193 176.94217,145.69357   C 179.97911,144.01526 183.29578,143.21606 186.93213,143.21606   C 191.04799,143.21606 194.5245,144.25502 197.32168,146.33293   C 200.15883,148.4508 202.11686,151.40783 203.19578,155.20401   L 197.84116,156.48273   C 196.88213,153.48574 195.52349,151.28795 193.68534,149.92932   C 191.88715,148.57068 189.56948,147.8514 186.81225,147.8514   C 183.65542,147.8514 181.01807,148.61064 178.9002,150.12911   C 176.78233,151.64759 175.26385,153.68554 174.4247,156.24297   C 173.54558,158.8004 173.10602,161.43775 173.10602,164.15502   C 173.10602,167.67148 173.6255,170.70843 174.66446,173.34578   C 175.66345,175.94317 177.26184,177.9012 179.41968,179.17992   C 181.57751,180.49859 183.89518,181.13795 186.41265,181.13795   C 189.4496,181.13795 192.04699,180.25883 194.16486,178.5006   C 196.28273,176.74237 197.72128,174.10502 198.48052,170.66847   z  M 210.46847,185.09397   L 210.46847,143.89538   L 218.66024,143.89538   L 228.41044,173.06606   C 229.32951,175.78333 229.96887,177.82128 230.36847,179.17992   C 230.84799,177.66144 231.56727,175.46365 232.56626,172.54658   L 242.43634,143.89538   L 249.74899,143.89538   L 249.74899,185.09397   L 244.51425,185.09397   L 244.51425,150.60863   L 232.5263,185.09397   L 227.61124,185.09397   L 215.70321,150.04919   L 215.70321,185.09397   z "
     style="fill:none;stroke:#000000;stroke-width:0.95903611px;stroke-linecap:butt;stroke-linejoin:miter;stroke-miterlimit:10;stroke-dasharray:none;stroke-opacity:1;" />
</svg>
