<?xml version="1.0" encoding="UTF-8" standalone="no"?>
<svg
   xmlns:dc="http://purl.org/dc/elements/1.1/"
   xmlns:cc="http://creativecommons.org/ns#"
   xmlns:rdf="http://www.w3.org/1999/02/22-rdf-syntax-ns#"
   xmlns:svg="http://www.w3.org/2000/svg"
   xmlns="http://www.w3.org/2000/svg"
   id="svg13"
   height="101.85mm"
   width="95.75mm"
   version="1.0">
  <metadata
     id="metadata17">
    <rdf:RDF>
      <cc:Work
         rdf:about="">
        <dc:format>image/svg+xml</dc:format>
        <dc:type
           rdf:resource="http://purl.org/dc/dcmitype/StillImage" />
      </cc:Work>
    </rdf:RDF>
  </metadata>
  <defs
     id="defs3">
    <pattern
       y="0"
       x="0"
       height="6"
       width="6"
       patternUnits="userSpaceOnUse"
       id="EMFhbasepattern" />
  </defs>
  <path
     id="path5"
     d="  M 54.345381,54.345381   L 54.345381,330.54779   L 307.53092,330.54779   L 307.53092,54.345381   L 54.345381,54.345381   z "
     style="fill:#aaffaa;fill-rule:evenodd;fill-opacity:1;stroke:none;" />
  <path
     id="path7"
     d="  M 54.345381,330.54779   L 54.345381,54.345381   L 307.53092,54.345381   L 307.53092,330.54779  "
     style="fill:none;stroke:#000000;stroke-width:9.5903616px;stroke-linecap:butt;stroke-linejoin:miter;stroke-miterlimit:10;stroke-dasharray:none;stroke-opacity:1;" />
  <path
     id="path9"
     d="  M 85.034537,177.10201   L 85.034537,177.10201   L 85.034537,215.46345   L 180.93815,273.00562   L 276.84176,215.46345   L 276.84176,177.10201   L 180.93815,234.64417   z "
     style="fill:#000000;fill-rule:evenodd;fill-opacity:1;stroke:none;" />
  <path
     id="path11"
     d="  M 201.67731,149.8494   L 208.47048,151.56767   C 207.03192,157.16205 204.4745,161.43775 200.75823,164.39478   C 197.04197,167.31184 192.5265,168.79036 187.17188,168.79036   C 181.61747,168.79036 177.10201,167.67148 173.6255,165.39377   C 170.14899,163.15602 167.51164,159.87931 165.67349,155.60361   C 163.8753,151.28795 162.95622,146.69257 162.95622,141.77751   C 162.95622,136.42289 163.99518,131.74759 166.03313,127.7516   C 168.07108,123.75562 170.98815,120.71867 174.78433,118.64076   C 178.58052,116.56285 182.73634,115.56385 187.2518,115.56385   C 192.40662,115.56385 196.76225,116.84257 200.27871,119.47992   C 203.75522,122.11727 206.23273,125.79357 207.59136,130.54879   L 200.87811,132.10723   C 199.67931,128.39096 197.96104,125.63373 195.68333,123.95542   C 193.40562,122.23715 190.56847,121.35803 187.13193,121.35803   C 183.1759,121.35803 179.85923,122.31707 177.22188,124.23514   C 174.54458,126.11325 172.66646,128.67068 171.58755,131.86747   C 170.50863,135.06426 169.98915,138.34096 169.98915,141.73755   C 169.98915,146.13313 170.62851,149.92932 171.90723,153.20602   C 173.18594,156.48273 175.14397,158.92028 177.86124,160.51867   C 180.53855,162.15703 183.45562,162.95622 186.61245,162.95622   C 190.40863,162.95622 193.64538,161.87731 196.28273,159.63956   C 198.92008,157.44176 200.71827,154.20502 201.67731,149.8494   z "
     style="fill:#000000;fill-rule:evenodd;fill-opacity:1;stroke:none;" />
</svg>
