<?xml version="1.0" encoding="UTF-8" standalone="no"?>
<svg
   xmlns:dc="http://purl.org/dc/elements/1.1/"
   xmlns:cc="http://creativecommons.org/ns#"
   xmlns:rdf="http://www.w3.org/1999/02/22-rdf-syntax-ns#"
   xmlns:svg="http://www.w3.org/2000/svg"
   xmlns="http://www.w3.org/2000/svg"
   id="svg13"
   height="107.94mm"
   width="95.75mm"
   version="1.0">
  <metadata
     id="metadata17">
    <rdf:RDF>
      <cc:Work
         rdf:about="">
        <dc:format>image/svg+xml</dc:format>
        <dc:type
           rdf:resource="http://purl.org/dc/dcmitype/StillImage" />
      </cc:Work>
    </rdf:RDF>
  </metadata>
  <defs
     id="defs3">
    <pattern
       y="0"
       x="0"
       height="6"
       width="6"
       patternUnits="userSpaceOnUse"
       id="EMFhbasepattern" />
  </defs>
  <path
     id="path5"
     d="  M 54.345381,353.56465   L 54.345381,171.34779   L 180.93815,54.345381   L 307.53092,171.34779   L 307.53092,353.56465   z "
     style="fill:#ff8080;fill-rule:evenodd;fill-opacity:1;stroke:none;" />
  <path
     id="path7"
     d="  M 54.345381,353.56465   L 54.345381,171.34779   L 180.93815,54.345381   L 307.53092,171.34779   L 307.53092,353.56465  "
     style="fill:none;stroke:#000000;stroke-width:9.5903616px;stroke-linecap:butt;stroke-linejoin:miter;stroke-miterlimit:10;stroke-dasharray:none;stroke-opacity:1;" />
  <path
     id="path9"
     d="  M 85.034537,200.11887   L 85.034537,200.11887   L 85.034537,238.48032   L 180.93815,296.02249   L 276.84176,238.48032   L 276.84176,200.11887   L 180.93815,257.66104   z "
     style="fill:#000000;fill-rule:evenodd;fill-opacity:1;stroke:none;" />
  <path
     id="path11"
     d="  M 160.67851,202.2767   L 160.67851,150.80843   L 178.42068,150.80843   C 182.41666,150.80843 185.45361,151.04819 187.57148,151.52771   C 190.52851,152.20703 193.04598,153.44578 195.12389,155.24397   C 197.84116,157.52168 199.87911,160.47871 201.23775,164.03514   C 202.55642,167.59156 203.23574,171.66747 203.23574,176.26285   C 203.23574,180.17891 202.79618,183.65542 201.87711,186.65241   C 200.95803,189.68935 199.79919,192.16686 198.36064,194.16486   C 196.92209,196.12289 195.36365,197.68132 193.68534,198.84016   C 191.96707,199.95903 189.92911,200.83815 187.53152,201.39759   C 185.13393,201.99699 182.3767,202.2767 179.25984,202.2767   z  M 167.47168,196.20281   L 178.46064,196.20281   C 181.85723,196.20281 184.53454,195.88313 186.45261,195.28373   C 188.41064,194.64437 189.92911,193.76526 191.08795,192.60642   C 192.68634,190.96807 193.96506,188.81024 194.84417,186.09297   C 195.76325,183.3757 196.20281,180.05903 196.20281,176.14297   C 196.20281,170.78835 195.32369,166.63253 193.56546,163.75542   C 191.80723,160.83835 189.64939,158.92028 187.13193,157.92128   C 185.29377,157.24197 182.33674,156.88233 178.3008,156.88233   L 167.47168,156.88233   z "
     style="fill:#000000;fill-rule:evenodd;fill-opacity:1;stroke:none;" />
</svg>
