<?xml version="1.0" encoding="UTF-8" standalone="no"?>
<svg
   xmlns:dc="http://purl.org/dc/elements/1.1/"
   xmlns:cc="http://creativecommons.org/ns#"
   xmlns:rdf="http://www.w3.org/1999/02/22-rdf-syntax-ns#"
   xmlns:svg="http://www.w3.org/2000/svg"
   xmlns="http://www.w3.org/2000/svg"
   id="svg13"
   height="125.53mm"
   width="95.75mm"
   version="1.0">
  <metadata
     id="metadata17">
    <rdf:RDF>
      <cc:Work
         rdf:about="">
        <dc:format>image/svg+xml</dc:format>
        <dc:type
           rdf:resource="http://purl.org/dc/dcmitype/StillImage" />
      </cc:Work>
    </rdf:RDF>
  </metadata>
  <defs
     id="defs3">
    <pattern
       y="0"
       x="0"
       height="6"
       width="6"
       patternUnits="userSpaceOnUse"
       id="EMFhbasepattern" />
  </defs>
  <path
     id="path5"
     d="  M 307.53092,420.05783   C 307.53092,54.665059 54.345381,54.665059 54.345381,420.05783   z "
     style="fill:#80e0ff;fill-rule:evenodd;fill-opacity:1;stroke:none;" />
  <path
     id="path7"
     d="  M 307.53092,420.05783   C 307.53092,54.665059 54.345381,54.665059 54.345381,420.05783  "
     style="fill:none;stroke:#000000;stroke-width:9.5903616px;stroke-linecap:butt;stroke-linejoin:miter;stroke-miterlimit:10;stroke-dasharray:none;stroke-opacity:1;" />
  <path
     id="path9"
     d="  M 85.034537,266.61204   L 85.034537,266.61204   L 85.034537,304.97349   L 180.93815,362.51566   L 276.84176,304.97349   L 276.84176,266.61204   L 180.93815,324.15421   z "
     style="fill:#000000;fill-rule:evenodd;fill-opacity:1;stroke:none;" />
  <path
     id="path11"
     d="  M 168.9502,257.42128   L 168.9502,205.91305   L 188.29076,205.91305   C 192.20682,205.95301 195.36365,206.47249 197.76124,207.51144   C 200.11887,208.5504 201.99699,210.14879 203.31566,212.30662   C 204.67429,214.46445 205.35361,216.74217 205.35361,219.0998   C 205.35361,221.29759 204.75421,223.3755 203.55542,225.33353   C 202.35662,227.2516 200.55843,228.85 198.16084,230.00883   C 201.27771,230.92791 203.6753,232.48634 205.31365,234.68413   C 206.99196,236.88192 207.83112,239.47931 207.83112,242.4763   C 207.83112,244.91385 207.3516,247.1516 206.31265,249.22951   C 205.31365,251.30743 204.03494,252.90582 202.55642,254.0247   C 201.03795,255.14357 199.15984,255.98273 196.88213,256.54216   C 194.64437,257.14156 191.88715,257.42128 188.61044,257.42128   z  M 175.78333,227.57128   L 186.89217,227.57128   C 189.92911,227.57128 192.08695,227.37148 193.40562,226.97188   C 195.12389,226.45241 196.44257,225.61325 197.32168,224.41445   C 198.2008,223.21566 198.64036,221.69719 198.64036,219.89899   C 198.64036,218.22068 198.24076,216.70221 197.4016,215.38353   C 196.60241,214.10482 195.40361,213.2257 193.88514,212.74618   C 192.36666,212.26666 189.76927,212.0269 186.05301,212.0269   L 175.78333,212.0269   z  M 175.78333,251.34739   L 188.61044,251.34739   C 190.80823,251.34739 192.3267,251.26747 193.24578,251.10763   C 194.80421,250.82791 196.12289,250.34839 197.16184,249.70903   C 198.2008,249.02972 199.07992,248.07068 199.75923,246.83192   C 200.43855,245.59317 200.79819,244.15461 200.79819,242.4763   C 200.79819,240.55823 200.27871,238.91988 199.31968,237.48132   C 198.32068,236.08273 196.96205,235.08373 195.20381,234.52429   C 193.48554,233.9249 190.96807,233.64518 187.69136,233.64518   L 175.78333,233.64518   z "
     style="fill:#000000;fill-rule:evenodd;fill-opacity:1;stroke:none;" />
</svg>
