<?xml version="1.0" encoding="UTF-8" standalone="no"?>
<svg
   xmlns:dc="http://purl.org/dc/elements/1.1/"
   xmlns:cc="http://creativecommons.org/ns#"
   xmlns:rdf="http://www.w3.org/1999/02/22-rdf-syntax-ns#"
   xmlns:svg="http://www.w3.org/2000/svg"
   xmlns="http://www.w3.org/2000/svg"
   id="svg13"
   height="101.85mm"
   width="95.75mm"
   version="1.0">
  <metadata
     id="metadata17">
    <rdf:RDF>
      <cc:Work
         rdf:about="">
        <dc:format>image/svg+xml</dc:format>
        <dc:type
           rdf:resource="http://purl.org/dc/dcmitype/StillImage" />
      </cc:Work>
    </rdf:RDF>
  </metadata>
  <defs
     id="defs3">
    <pattern
       y="0"
       x="0"
       height="6"
       width="6"
       patternUnits="userSpaceOnUse"
       id="EMFhbasepattern" />
  </defs>
  <path
     id="path5"
     d="  M 54.345381,54.345381   L 54.345381,330.54779   L 307.53092,330.54779   L 307.53092,54.345381   L 54.345381,54.345381   z "
     style="fill:#aaffaa;fill-rule:evenodd;fill-opacity:1;stroke:none;" />
  <path
     id="path7"
     d="  M 54.345381,330.54779   L 54.345381,54.345381   L 307.53092,54.345381   L 307.53092,330.54779  "
     style="fill:none;stroke:#000000;stroke-width:9.5903616px;stroke-linecap:butt;stroke-linejoin:miter;stroke-miterlimit:10;stroke-dasharray:none;stroke-opacity:1;" />
  <path
     id="path9"
     d="  M 85.034537,177.10201   L 85.034537,177.10201   L 85.034537,215.46345   L 180.93815,273.00562   L 276.84176,215.46345   L 276.84176,177.10201   L 180.93815,234.64417   z "
     style="fill:#000000;fill-rule:evenodd;fill-opacity:1;stroke:none;" />
  <path
     id="path11"
     d="  M 163.55562,151.36787   L 169.98915,150.80843   C 170.30883,153.36586 171.02811,155.48373 172.10703,157.16205   C 173.2259,158.8004 174.94417,160.11907 177.3018,161.15803   C 179.65944,162.15703 182.29678,162.6765 185.21385,162.6765   C 187.81124,162.6765 190.08895,162.27691 192.08695,161.51767   C 194.08494,160.75843 195.56345,159.67952 196.52249,158.36084   C 197.52148,157.00221 198.001,155.52369 198.001,153.9253   C 198.001,152.32691 197.52148,150.92831 196.56245,149.68956   C 195.64337,148.49076 194.08494,147.49176 191.92711,146.65261   C 190.56847,146.13313 187.49156,145.29397 182.7763,144.13514   C 178.06104,143.01626 174.74437,141.93735 172.8263,140.93835   C 170.38875,139.65964 168.5506,138.06124 167.3518,136.14317   C 166.15301,134.2251 165.55361,132.10723 165.55361,129.7496   C 165.55361,127.15221 166.27289,124.71466 167.7514,122.43695   C 169.22992,120.1992 171.38775,118.48092 174.2249,117.32209   C 177.06205,116.12329 180.17891,115.56385 183.65542,115.56385   C 187.49156,115.56385 190.84819,116.16325 193.76526,117.40201   C 196.68233,118.6008 198.92008,120.43895 200.47851,122.83654   C 202.03694,125.19417 202.8761,127.91144 202.99598,130.90843   L 196.48253,131.42791   C 196.12289,128.1512 194.92409,125.71365 192.9261,124.03534   C 190.88815,122.39699 187.89116,121.55783 183.93514,121.55783   C 179.81927,121.55783 176.82229,122.31707 174.94417,123.83554   C 173.06606,125.31405 172.10703,127.15221 172.10703,129.27008   C 172.10703,131.14819 172.78634,132.66666 174.10502,133.8255   C 175.42369,135.0243 178.86024,136.26305 184.3747,137.50181   C 189.92911,138.78052 193.7253,139.85944 195.76325,140.77851   C 198.76024,142.17711 200.99799,143.93534 202.39658,146.05321   C 203.83514,148.17108 204.55441,150.60863 204.55441,153.36586   C 204.55441,156.12309 203.75522,158.68052 202.19678,161.11807   C 200.63835,163.55562 198.36064,165.43373 195.44357,166.75241   C 192.48654,168.11104 189.20984,168.79036 185.53353,168.79036   C 180.85823,168.79036 176.94217,168.11104 173.8253,166.75241   C 170.66847,165.39377 168.19096,163.35582 166.39277,160.63855   C 164.59458,157.88132 163.6755,154.80442 163.55562,151.36787   z "
     style="fill:#000000;fill-rule:evenodd;fill-opacity:1;stroke:none;" />
</svg>
