<?xml version="1.0" encoding="UTF-8" standalone="no"?>
<svg
   xmlns:dc="http://purl.org/dc/elements/1.1/"
   xmlns:cc="http://creativecommons.org/ns#"
   xmlns:rdf="http://www.w3.org/1999/02/22-rdf-syntax-ns#"
   xmlns:svg="http://www.w3.org/2000/svg"
   xmlns="http://www.w3.org/2000/svg"
   id="svg13"
   height="107.94mm"
   width="95.75mm"
   version="1.0">
  <metadata
     id="metadata17">
    <rdf:RDF>
      <cc:Work
         rdf:about="">
        <dc:format>image/svg+xml</dc:format>
        <dc:type
           rdf:resource="http://purl.org/dc/dcmitype/StillImage" />
      </cc:Work>
    </rdf:RDF>
  </metadata>
  <defs
     id="defs3">
    <pattern
       y="0"
       x="0"
       height="6"
       width="6"
       patternUnits="userSpaceOnUse"
       id="EMFhbasepattern" />
  </defs>
  <path
     id="path5"
     d="  M 54.345381,353.56465   L 54.345381,171.34779   L 180.93815,54.345381   L 307.53092,171.34779   L 307.53092,353.56465   z "
     style="fill:#ff8080;fill-rule:evenodd;fill-opacity:1;stroke:none;" />
  <path
     id="path7"
     d="  M 54.345381,353.56465   L 54.345381,171.34779   L 180.93815,54.345381   L 307.53092,171.34779   L 307.53092,353.56465  "
     style="fill:none;stroke:#000000;stroke-width:9.5903616px;stroke-linecap:butt;stroke-linejoin:miter;stroke-miterlimit:10;stroke-dasharray:none;stroke-opacity:1;" />
  <path
     id="path9"
     d="  M 85.034537,200.11887   L 85.034537,200.11887   L 85.034537,238.48032   L 180.93815,296.02249   L 276.84176,238.48032   L 276.84176,200.11887   L 180.93815,257.66104   z "
     style="fill:#000000;fill-rule:evenodd;fill-opacity:1;stroke:none;" />
  <path
     id="path11"
     d="  M 168.9502,190.92811   L 168.9502,139.41988   L 188.29076,139.41988   C 192.20682,139.45984 195.36365,139.97932 197.76124,141.01827   C 200.11887,142.05723 201.99699,143.65562 203.31566,145.81345   C 204.67429,147.97128 205.35361,150.24899 205.35361,152.60662   C 205.35361,154.80442 204.75421,156.88233 203.55542,158.84036   C 202.35662,160.75843 200.55843,162.35682 198.16084,163.51566   C 201.27771,164.43474 203.6753,165.99317 205.31365,168.19096   C 206.99196,170.38875 207.83112,172.98614 207.83112,175.98313   C 207.83112,178.42068 207.3516,180.65843 206.31265,182.73634   C 205.31365,184.81425 204.03494,186.41265 202.55642,187.53152   C 201.03795,188.6504 199.15984,189.48956 196.88213,190.04899   C 194.64437,190.64839 191.88715,190.92811 188.61044,190.92811   z  M 175.78333,161.07811   L 186.89217,161.07811   C 189.92911,161.07811 192.08695,160.87831 193.40562,160.47871   C 195.12389,159.95923 196.44257,159.12008 197.32168,157.92128   C 198.2008,156.72249 198.64036,155.20401 198.64036,153.40582   C 198.64036,151.72751 198.24076,150.20903 197.4016,148.89036   C 196.60241,147.61164 195.40361,146.73253 193.88514,146.25301   C 192.36666,145.77349 189.76927,145.53373 186.05301,145.53373   L 175.78333,145.53373   z  M 175.78333,184.85421   L 188.61044,184.85421   C 190.80823,184.85421 192.3267,184.77429 193.24578,184.61446   C 194.80421,184.33474 196.12289,183.85522 197.16184,183.21586   C 198.2008,182.53654 199.07992,181.57751 199.75923,180.33875   C 200.43855,179.1 200.79819,177.66144 200.79819,175.98313   C 200.79819,174.06506 200.27871,172.4267 199.31968,170.98815   C 198.32068,169.58956 196.96205,168.59056 195.20381,168.03112   C 193.48554,167.43172 190.96807,167.15201 187.69136,167.15201   L 175.78333,167.15201   z "
     style="fill:#000000;fill-rule:evenodd;fill-opacity:1;stroke:none;" />
</svg>
