<?xml version="1.0" encoding="UTF-8" standalone="no"?>
<svg
   xmlns:dc="http://purl.org/dc/elements/1.1/"
   xmlns:cc="http://creativecommons.org/ns#"
   xmlns:rdf="http://www.w3.org/1999/02/22-rdf-syntax-ns#"
   xmlns:svg="http://www.w3.org/2000/svg"
   xmlns="http://www.w3.org/2000/svg"
   id="svg13"
   height="116.06mm"
   width="135.35001mm"
   version="1.0">
  <metadata
     id="metadata17">
    <rdf:RDF>
      <cc:Work
         rdf:about="">
        <dc:format>image/svg+xml</dc:format>
        <dc:type
           rdf:resource="http://purl.org/dc/dcmitype/StillImage" />
      </cc:Work>
    </rdf:RDF>
  </metadata>
  <defs
     id="defs3">
    <pattern
       y="0"
       x="0"
       height="6"
       width="6"
       patternUnits="userSpaceOnUse"
       id="EMFhbasepattern" />
  </defs>
  <path
     id="path5"
     d="  M 337.26104,384.25381   C 457.14056,384.25381 457.14056,187.6514 337.26104,187.6514   C 337.26104,54.345381 174.2249,54.345381 174.2249,187.6514   C 54.345381,187.6514 54.345381,384.25381 174.2249,384.25381   z "
     style="fill:#ffff80;fill-rule:evenodd;fill-opacity:1;stroke:none;" />
  <path
     id="path7"
     d="  M 337.26104,384.25381   C 457.14056,384.25381 457.14056,187.6514 337.26104,187.6514   C 337.26104,54.345381 174.2249,54.345381 174.2249,187.6514   C 54.345381,187.6514 54.345381,384.25381 174.2249,384.25381  "
     style="fill:none;stroke:#000000;stroke-width:9.5903616px;stroke-linecap:butt;stroke-linejoin:miter;stroke-miterlimit:10;stroke-dasharray:none;stroke-opacity:1;" />
  <path
     id="path9"
     d="  M 159.83936,230.80803   L 159.83936,230.80803   L 159.83936,269.16947   L 255.74297,326.71164   L 351.64658,269.16947   L 351.64658,230.80803   L 255.74297,288.3502   z "
     style="fill:#000000;fill-rule:evenodd;fill-opacity:1;stroke:none;" />
  <path
     id="path11"
     d="  M 238.36044,205.07389   L 244.79397,204.51445   C 245.11365,207.07188 245.83293,209.18976 246.91184,210.86807   C 248.03072,212.50642 249.74899,213.8251 252.10662,214.86405   C 254.46425,215.86305 257.1016,216.38253 260.01867,216.38253   C 262.61606,216.38253 264.89377,215.98293 266.89176,215.22369   C 268.88976,214.46445 270.36827,213.38554 271.32731,212.06686   C 272.3263,210.70823 272.80582,209.22972 272.80582,207.63132   C 272.80582,206.03293 272.3263,204.63433 271.36727,203.39558   C 270.44819,202.19678 268.88976,201.19779 266.73192,200.35863   C 265.37329,199.83915 262.29638,199 257.58112,197.84116   C 252.86586,196.72229 249.54919,195.64337 247.63112,194.64437   C 245.19357,193.36566 243.35542,191.76727 242.15662,189.84919   C 240.95783,187.93112 240.35843,185.81325 240.35843,183.45562   C 240.35843,180.85823 241.07771,178.42068 242.55622,176.14297   C 244.03474,173.90522 246.19257,172.18695 249.02972,171.02811   C 251.86686,169.82931 254.98373,169.26988 258.46024,169.26988   C 262.29638,169.26988 265.65301,169.86927 268.57008,171.10803   C 271.48714,172.30682 273.7249,174.14498 275.28333,176.54257   C 276.84176,178.9002 277.68092,181.61747 277.8008,184.61446   L 271.28735,185.13393   C 270.92771,181.85723 269.72891,179.41968 267.73092,177.74136   C 265.69297,176.10301 262.69598,175.26385 258.73996,175.26385   C 254.62409,175.26385 251.6271,176.02309 249.74899,177.54156   C 247.87088,179.02008 246.91184,180.85823 246.91184,182.9761   C 246.91184,184.85421 247.59116,186.37269 248.90984,187.53152   C 250.22851,188.73032 253.66506,189.96907 259.17951,191.20783   C 264.73393,192.48654 268.53012,193.56546 270.56807,194.48454   C 273.56506,195.88313 275.80281,197.64136 277.2014,199.75923   C 278.63996,201.87711 279.35923,204.31466 279.35923,207.07188   C 279.35923,209.82911 278.56004,212.38654 277.0016,214.82409   C 275.44317,217.26164 273.16546,219.13976 270.24839,220.45843   C 267.29136,221.81707 264.01465,222.49638 260.33835,222.49638   C 255.66305,222.49638 251.74698,221.81707 248.63012,220.45843   C 245.47329,219.0998 242.99578,217.06184 241.19759,214.34458   C 239.39939,211.58735 238.48032,208.51044 238.36044,205.07389   z "
     style="fill:#000000;fill-rule:evenodd;fill-opacity:1;stroke:none;" />
</svg>
