<?xml version="1.0" encoding="UTF-8" standalone="no"?>
<svg
   xmlns:dc="http://purl.org/dc/elements/1.1/"
   xmlns:cc="http://creativecommons.org/ns#"
   xmlns:rdf="http://www.w3.org/1999/02/22-rdf-syntax-ns#"
   xmlns:svg="http://www.w3.org/2000/svg"
   xmlns="http://www.w3.org/2000/svg"
   id="svg13"
   height="101.85mm"
   width="95.75mm"
   version="1.0">
  <metadata
     id="metadata17">
    <rdf:RDF>
      <cc:Work
         rdf:about="">
        <dc:format>image/svg+xml</dc:format>
        <dc:type
           rdf:resource="http://purl.org/dc/dcmitype/StillImage" />
      </cc:Work>
    </rdf:RDF>
  </metadata>
  <defs
     id="defs3">
    <pattern
       y="0"
       x="0"
       height="6"
       width="6"
       patternUnits="userSpaceOnUse"
       id="EMFhbasepattern" />
  </defs>
  <path
     id="path5"
     d="  M 54.345381,54.345381   L 54.345381,330.54779   L 307.53092,330.54779   L 307.53092,54.345381   L 54.345381,54.345381   z "
     style="fill:#aaffaa;fill-rule:evenodd;fill-opacity:1;stroke:none;" />
  <path
     id="path7"
     d="  M 54.345381,330.54779   L 54.345381,54.345381   L 307.53092,54.345381   L 307.53092,330.54779  "
     style="fill:none;stroke:#000000;stroke-width:9.5903616px;stroke-linecap:butt;stroke-linejoin:miter;stroke-miterlimit:10;stroke-dasharray:none;stroke-opacity:1;" />
  <path
     id="path9"
     d="  M 85.034537,177.10201   L 85.034537,177.10201   L 85.034537,215.46345   L 180.93815,273.00562   L 276.84176,215.46345   L 276.84176,177.10201   L 180.93815,234.64417   z "
     style="fill:#000000;fill-rule:evenodd;fill-opacity:1;stroke:none;" />
  <path
     id="path11"
     d="  M 166.83233,167.91124   L 166.83233,116.40301   L 186.25281,116.40301   C 189.68935,116.44297 192.28674,116.60281 194.08494,116.92249   C 196.64237,117.32209 198.76024,118.12128 200.43855,119.32008   C 202.15682,120.51887 203.55542,122.15723 204.59437,124.2751   C 205.63333,126.43293 206.15281,128.7506 206.15281,131.30803   C 206.15281,135.70361 204.75421,139.41988 201.95703,142.41687   C 199.1998,145.45381 194.16486,146.97229 186.85221,146.97229   L 173.66546,146.97229   L 173.66546,167.91124   z  M 173.66546,140.89839   L 186.97209,140.89839   C 191.36767,140.89839 194.48454,140.09919 196.36265,138.46084   C 198.2008,136.82249 199.11988,134.50482 199.11988,131.50783   C 199.11988,129.38996 198.56044,127.51185 197.48152,125.99337   C 196.40261,124.4749 194.96405,123.43594 193.20582,122.95642   C 192.04699,122.63675 189.92911,122.51687 186.81225,122.51687   L 173.66546,122.51687   z "
     style="fill:#000000;fill-rule:evenodd;fill-opacity:1;stroke:none;" />
</svg>
