<?xml version="1.0" encoding="UTF-8" standalone="no"?>
<svg
   xmlns:dc="http://purl.org/dc/elements/1.1/"
   xmlns:cc="http://creativecommons.org/ns#"
   xmlns:rdf="http://www.w3.org/1999/02/22-rdf-syntax-ns#"
   xmlns:svg="http://www.w3.org/2000/svg"
   xmlns="http://www.w3.org/2000/svg"
   id="svg13"
   height="101.85mm"
   width="95.75mm"
   version="1.0">
  <metadata
     id="metadata17">
    <rdf:RDF>
      <cc:Work
         rdf:about="">
        <dc:format>image/svg+xml</dc:format>
        <dc:type
           rdf:resource="http://purl.org/dc/dcmitype/StillImage" />
      </cc:Work>
    </rdf:RDF>
  </metadata>
  <defs
     id="defs3">
    <pattern
       y="0"
       x="0"
       height="6"
       width="6"
       patternUnits="userSpaceOnUse"
       id="EMFhbasepattern" />
  </defs>
  <path
     id="path5"
     d="  M 54.345381,54.345381   L 54.345381,330.54779   L 307.53092,330.54779   L 307.53092,54.345381   L 54.345381,54.345381   z "
     style="fill:#aaffaa;fill-rule:evenodd;fill-opacity:1;stroke:none;" />
  <path
     id="path7"
     d="  M 54.345381,330.54779   L 54.345381,54.345381   L 307.53092,54.345381   L 307.53092,330.54779  "
     style="fill:none;stroke:#000000;stroke-width:9.5903616px;stroke-linecap:butt;stroke-linejoin:miter;stroke-miterlimit:10;stroke-dasharray:none;stroke-opacity:1;" />
  <path
     id="path9"
     d="  M 85.034537,177.10201   L 85.034537,177.10201   L 85.034537,215.46345   L 180.93815,273.00562   L 276.84176,215.46345   L 276.84176,177.10201   L 180.93815,234.64417   z "
     style="fill:#000000;fill-rule:evenodd;fill-opacity:1;stroke:none;" />
  <path
     id="path11"
     d="  M 161.55763,179.25984   L 147.89136,127.79156   L 154.88434,127.79156   L 162.71646,161.55763   C 163.55562,165.07409 164.2749,168.59056 164.87429,172.06707   C 166.19297,166.59257 166.95221,163.39578 167.19197,162.55662   L 176.98213,127.79156   L 185.21385,127.79156   L 192.60642,153.84538   C 194.44458,160.31887 195.76325,166.39277 196.60241,172.06707   C 197.24176,168.83032 198.12088,165.07409 199.15984,160.87831   L 207.23172,127.79156   L 214.10482,127.79156   L 199.95903,179.25984   L 193.40562,179.25984   L 182.53654,140.05923   C 181.61747,136.78253 181.09799,134.74458 180.93815,133.98534   C 180.37871,136.38293 179.89919,138.38092 179.41968,140.05923   L 168.51064,179.25984   z "
     style="fill:#000000;fill-rule:evenodd;fill-opacity:1;stroke:none;" />
</svg>
