<?xml version="1.0" encoding="UTF-8" standalone="no"?>
<svg
   xmlns:dc="http://purl.org/dc/elements/1.1/"
   xmlns:cc="http://creativecommons.org/ns#"
   xmlns:rdf="http://www.w3.org/1999/02/22-rdf-syntax-ns#"
   xmlns:svg="http://www.w3.org/2000/svg"
   xmlns="http://www.w3.org/2000/svg"
   id="svg13"
   height="107.94mm"
   width="95.75mm"
   version="1.0">
  <metadata
     id="metadata17">
    <rdf:RDF>
      <cc:Work
         rdf:about="">
        <dc:format>image/svg+xml</dc:format>
        <dc:type
           rdf:resource="http://purl.org/dc/dcmitype/StillImage" />
      </cc:Work>
    </rdf:RDF>
  </metadata>
  <defs
     id="defs3">
    <pattern
       y="0"
       x="0"
       height="6"
       width="6"
       patternUnits="userSpaceOnUse"
       id="EMFhbasepattern" />
  </defs>
  <path
     id="path5"
     d="  M 54.345381,353.56465   L 54.345381,171.34779   L 180.93815,54.345381   L 307.53092,171.34779   L 307.53092,353.56465   z "
     style="fill:#ff8080;fill-rule:evenodd;fill-opacity:1;stroke:none;" />
  <path
     id="path7"
     d="  M 54.345381,353.56465   L 54.345381,171.34779   L 180.93815,54.345381   L 307.53092,171.34779   L 307.53092,353.56465  "
     style="fill:none;stroke:#000000;stroke-width:9.5903616px;stroke-linecap:butt;stroke-linejoin:miter;stroke-miterlimit:10;stroke-dasharray:none;stroke-opacity:1;" />
  <path
     id="path9"
     d="  M 85.034537,200.11887   L 85.034537,200.11887   L 85.034537,238.48032   L 180.93815,296.02249   L 276.84176,238.48032   L 276.84176,200.11887   L 180.93815,257.66104   z "
     style="fill:#000000;fill-rule:evenodd;fill-opacity:1;stroke:none;" />
  <path
     id="path11"
     d="  M 163.55562,174.38474   L 169.98915,173.8253   C 170.30883,176.38273 171.02811,178.5006 172.10703,180.17891   C 173.2259,181.81727 174.94417,183.13594 177.3018,184.1749   C 179.65944,185.17389 182.29678,185.69337 185.21385,185.69337   C 187.81124,185.69337 190.08895,185.29377 192.08695,184.53454   C 194.08494,183.7753 195.56345,182.69638 196.52249,181.37771   C 197.52148,180.01907 198.001,178.54056 198.001,176.94217   C 198.001,175.34377 197.52148,173.94518 196.56245,172.70642   C 195.64337,171.50763 194.08494,170.50863 191.92711,169.66948   C 190.56847,169.15 187.49156,168.31084 182.7763,167.15201   C 178.06104,166.03313 174.74437,164.95421 172.8263,163.95522   C 170.38875,162.6765 168.5506,161.07811 167.3518,159.16004   C 166.15301,157.24197 165.55361,155.12409 165.55361,152.76646   C 165.55361,150.16907 166.27289,147.73152 167.7514,145.45381   C 169.22992,143.21606 171.38775,141.49779 174.2249,140.33895   C 177.06205,139.14016 180.17891,138.58072 183.65542,138.58072   C 187.49156,138.58072 190.84819,139.18012 193.76526,140.41887   C 196.68233,141.61767 198.92008,143.45582 200.47851,145.85341   C 202.03694,148.21104 202.8761,150.92831 202.99598,153.9253   L 196.48253,154.44478   C 196.12289,151.16807 194.92409,148.73052 192.9261,147.05221   C 190.88815,145.41385 187.89116,144.5747 183.93514,144.5747   C 179.81927,144.5747 176.82229,145.33393 174.94417,146.85241   C 173.06606,148.33092 172.10703,150.16907 172.10703,152.28695   C 172.10703,154.16506 172.78634,155.68353 174.10502,156.84237   C 175.42369,158.04116 178.86024,159.27992 184.3747,160.51867   C 189.92911,161.79739 193.7253,162.8763 195.76325,163.79538   C 198.76024,165.19397 200.99799,166.95221 202.39658,169.07008   C 203.83514,171.18795 204.55441,173.6255 204.55441,176.38273   C 204.55441,179.13996 203.75522,181.69739 202.19678,184.13494   C 200.63835,186.57249 198.36064,188.4506 195.44357,189.76927   C 192.48654,191.12791 189.20984,191.80723 185.53353,191.80723   C 180.85823,191.80723 176.94217,191.12791 173.8253,189.76927   C 170.66847,188.41064 168.19096,186.37269 166.39277,183.65542   C 164.59458,180.89819 163.6755,177.82128 163.55562,174.38474   z "
     style="fill:#000000;fill-rule:evenodd;fill-opacity:1;stroke:none;" />
</svg>
