<?xml version="1.0" encoding="UTF-8" standalone="no"?>
<svg
   xmlns:dc="http://purl.org/dc/elements/1.1/"
   xmlns:cc="http://creativecommons.org/ns#"
   xmlns:rdf="http://www.w3.org/1999/02/22-rdf-syntax-ns#"
   xmlns:svg="http://www.w3.org/2000/svg"
   xmlns="http://www.w3.org/2000/svg"
   id="svg13"
   height="107.94mm"
   width="95.75mm"
   version="1.0">
  <metadata
     id="metadata17">
    <rdf:RDF>
      <cc:Work
         rdf:about="">
        <dc:format>image/svg+xml</dc:format>
        <dc:type
           rdf:resource="http://purl.org/dc/dcmitype/StillImage" />
      </cc:Work>
    </rdf:RDF>
  </metadata>
  <defs
     id="defs3">
    <pattern
       y="0"
       x="0"
       height="6"
       width="6"
       patternUnits="userSpaceOnUse"
       id="EMFhbasepattern" />
  </defs>
  <path
     id="path5"
     d="  M 54.345381,353.56465   L 54.345381,171.34779   L 180.93815,54.345381   L 307.53092,171.34779   L 307.53092,353.56465   z "
     style="fill:#ff8080;fill-rule:evenodd;fill-opacity:1;stroke:none;" />
  <path
     id="path7"
     d="  M 54.345381,353.56465   L 54.345381,171.34779   L 180.93815,54.345381   L 307.53092,171.34779   L 307.53092,353.56465  "
     style="fill:none;stroke:#000000;stroke-width:9.5903616px;stroke-linecap:butt;stroke-linejoin:miter;stroke-miterlimit:10;stroke-dasharray:none;stroke-opacity:1;" />
  <path
     id="path9"
     d="  M 85.034537,200.11887   L 85.034537,200.11887   L 85.034537,238.48032   L 180.93815,296.02249   L 276.84176,238.48032   L 276.84176,200.11887   L 180.93815,257.66104   z "
     style="fill:#000000;fill-rule:evenodd;fill-opacity:1;stroke:none;" />
  <path
     id="path11"
     d="  M 165.03413,190.92811   L 165.03413,139.41988   L 187.8512,139.41988   C 192.44658,139.45984 195.92309,139.8994 198.32068,140.81847   C 200.71827,141.73755 202.63634,143.3759 204.03494,145.73353   C 205.47349,148.0512 206.19277,150.64859 206.19277,153.48574   C 206.19277,157.16205 204.99397,160.23895 202.63634,162.71646   C 200.27871,165.23393 196.64237,166.83233 191.68735,167.51164   C 193.48554,168.3508 194.84417,169.22992 195.80321,170.06907   C 197.8012,171.90723 199.67931,174.18494 201.43755,176.90221   L 210.42851,190.92811   L 201.83715,190.92811   L 195.04397,180.21887   C 193.04598,177.14197 191.40763,174.74437 190.12891,173.10602   C 188.81024,171.46767 187.6514,170.34879 186.65241,169.66948   C 185.61345,169.03012 184.61446,168.5506 183.53554,168.31084   C 182.7763,168.151 181.49759,168.07108 179.73935,168.07108   L 171.82731,168.07108   L 171.82731,190.92811   z  M 171.82731,162.15703   L 186.49257,162.15703   C 189.60944,162.15703 192.04699,161.83735 193.80522,161.19799   C 195.56345,160.55863 196.88213,159.51968 197.8012,158.12108   C 198.72028,156.68253 199.15984,155.16405 199.15984,153.48574   C 199.15984,151.04819 198.28072,149.0502 196.52249,147.49176   C 194.76425,145.93333 191.96707,145.13413 188.13092,145.13413   L 171.82731,145.13413   z "
     style="fill:#000000;fill-rule:evenodd;fill-opacity:1;stroke:none;" />
</svg>
