<?xml version="1.0" encoding="UTF-8" standalone="no"?>
<svg
   xmlns:dc="http://purl.org/dc/elements/1.1/"
   xmlns:cc="http://creativecommons.org/ns#"
   xmlns:rdf="http://www.w3.org/1999/02/22-rdf-syntax-ns#"
   xmlns:svg="http://www.w3.org/2000/svg"
   xmlns="http://www.w3.org/2000/svg"
   id="svg13"
   height="116.06mm"
   width="135.35001mm"
   version="1.0">
  <metadata
     id="metadata17">
    <rdf:RDF>
      <cc:Work
         rdf:about="">
        <dc:format>image/svg+xml</dc:format>
        <dc:type
           rdf:resource="http://purl.org/dc/dcmitype/StillImage" />
      </cc:Work>
    </rdf:RDF>
  </metadata>
  <defs
     id="defs3">
    <pattern
       y="0"
       x="0"
       height="6"
       width="6"
       patternUnits="userSpaceOnUse"
       id="EMFhbasepattern" />
  </defs>
  <path
     id="path5"
     d="  M 337.26104,384.25381   C 457.14056,384.25381 457.14056,187.6514 337.26104,187.6514   C 337.26104,54.345381 174.2249,54.345381 174.2249,187.6514   C 54.345381,187.6514 54.345381,384.25381 174.2249,384.25381   z "
     style="fill:#ffff80;fill-rule:evenodd;fill-opacity:1;stroke:none;" />
  <path
     id="path7"
     d="  M 337.26104,384.25381   C 457.14056,384.25381 457.14056,187.6514 337.26104,187.6514   C 337.26104,54.345381 174.2249,54.345381 174.2249,187.6514   C 54.345381,187.6514 54.345381,384.25381 174.2249,384.25381  "
     style="fill:none;stroke:#000000;stroke-width:9.5903616px;stroke-linecap:butt;stroke-linejoin:miter;stroke-miterlimit:10;stroke-dasharray:none;stroke-opacity:1;" />
  <path
     id="path9"
     d="  M 159.83936,230.80803   L 159.83936,230.80803   L 159.83936,269.16947   L 255.74297,326.71164   L 351.64658,269.16947   L 351.64658,230.80803   L 255.74297,288.3502   z "
     style="fill:#000000;fill-rule:evenodd;fill-opacity:1;stroke:none;" />
  <path
     id="path11"
     d="  M 276.48212,203.55542   L 283.2753,205.27369   C 281.83674,210.86807 279.27931,215.14377 275.56305,218.1008   C 271.84678,221.01787 267.33132,222.49638 261.9767,222.49638   C 256.42229,222.49638 251.90682,221.37751 248.43032,219.0998   C 244.95381,216.86205 242.31646,213.58534 240.47831,209.30964   C 238.68012,204.99397 237.76104,200.39859 237.76104,195.48353   C 237.76104,190.12891 238.8,185.45361 240.83795,181.45763   C 242.8759,177.46164 245.79297,174.4247 249.58915,172.34678   C 253.38534,170.26887 257.54116,169.26988 262.05662,169.26988   C 267.21144,169.26988 271.56706,170.54859 275.08353,173.18594   C 278.56004,175.82329 281.03755,179.4996 282.39618,184.25482   L 275.68293,185.81325   C 274.48413,182.09699 272.76586,179.33976 270.48815,177.66144   C 268.21044,175.94317 265.37329,175.06405 261.93674,175.06405   C 257.98072,175.06405 254.66405,176.02309 252.0267,177.94116   C 249.34939,179.81927 247.47128,182.3767 246.39237,185.57349   C 245.31345,188.77028 244.79397,192.04699 244.79397,195.44357   C 244.79397,199.83915 245.43333,203.63534 246.71204,206.91205   C 247.99076,210.18875 249.94879,212.6263 252.66606,214.2247   C 255.34337,215.86305 258.26044,216.66225 261.41727,216.66225   C 265.21345,216.66225 268.4502,215.58333 271.08755,213.34558   C 273.7249,211.14779 275.52309,207.91104 276.48212,203.55542   z "
     style="fill:#000000;fill-rule:evenodd;fill-opacity:1;stroke:none;" />
</svg>
