<?xml version="1.0" encoding="UTF-8" standalone="no"?>
<svg
   xmlns:dc="http://purl.org/dc/elements/1.1/"
   xmlns:cc="http://creativecommons.org/ns#"
   xmlns:rdf="http://www.w3.org/1999/02/22-rdf-syntax-ns#"
   xmlns:svg="http://www.w3.org/2000/svg"
   xmlns="http://www.w3.org/2000/svg"
   id="svg15"
   height="116.06mm"
   width="135.35001mm"
   version="1.0">
  <metadata
     id="metadata19">
    <rdf:RDF>
      <cc:Work
         rdf:about="">
        <dc:format>image/svg+xml</dc:format>
        <dc:type
           rdf:resource="http://purl.org/dc/dcmitype/StillImage" />
      </cc:Work>
    </rdf:RDF>
  </metadata>
  <defs
     id="defs3">
    <pattern
       y="0"
       x="0"
       height="6"
       width="6"
       patternUnits="userSpaceOnUse"
       id="EMFhbasepattern" />
  </defs>
  <path
     id="path5"
     d="  M 337.26104,384.25381   C 457.14056,384.25381 457.14056,187.6514 337.26104,187.6514   C 337.26104,54.345381 174.2249,54.345381 174.2249,187.6514   C 54.345381,187.6514 54.345381,384.25381 174.2249,384.25381   z "
     style="fill:#ffff80;fill-rule:evenodd;fill-opacity:1;stroke:none;" />
  <path
     id="path7"
     d="  M 337.26104,384.25381   C 457.14056,384.25381 457.14056,187.6514 337.26104,187.6514   C 337.26104,54.345381 174.2249,54.345381 174.2249,187.6514   C 54.345381,187.6514 54.345381,384.25381 174.2249,384.25381  "
     style="fill:none;stroke:#000000;stroke-width:9.5903616px;stroke-linecap:butt;stroke-linejoin:miter;stroke-miterlimit:10;stroke-dasharray:none;stroke-opacity:1;" />
  <path
     id="path9"
     d="  M 159.83936,230.80803   L 159.83936,230.80803   L 159.83936,269.16947   L 255.74297,326.71164   L 351.64658,269.16947   L 351.64658,230.80803   L 255.74297,288.3502   z "
     style="fill:#000000;fill-rule:evenodd;fill-opacity:1;stroke:none;" />
  <path
     id="path11"
     d="  M 195.76325,215.78313   L 195.76325,174.58454   L 203.99498,174.58454   L 213.74518,203.75522   C 214.62429,206.47249 215.30361,208.51044 215.70321,209.86907   C 216.18273,208.3506 216.902,206.15281 217.901,203.23574   L 227.73112,174.58454   L 235.08373,174.58454   L 235.08373,215.78313   L 229.84899,215.78313   L 229.84899,181.29779   L 217.86104,215.78313   L 212.94598,215.78313   L 201.03795,180.73835   L 201.03795,215.78313   z  M 273.28534,201.35763   L 278.71988,202.71626   C 277.56104,207.19176 275.52309,210.62831 272.56606,212.94598   C 269.56907,215.30361 265.97269,216.50241 261.65702,216.50241   C 257.22148,216.50241 253.6251,215.58333 250.82791,213.78514   C 248.07068,211.98694 245.95281,209.3496 244.47429,205.91305   C 243.03574,202.51646 242.31646,198.8002 242.31646,194.88413   C 242.31646,190.60843 243.11566,186.85221 244.75401,183.65542   C 246.39237,180.45863 248.75,178.02108 251.74698,176.38273   C 254.78393,174.70442 258.1006,173.90522 261.73694,173.90522   C 265.85281,173.90522 269.32931,174.94417 272.1265,177.02209   C 274.96365,179.13996 276.92168,182.09699 278.0006,185.89317   L 272.64598,187.17188   C 271.68694,184.1749 270.32831,181.97711 268.49016,180.61847   C 266.69196,179.25984 264.37429,178.54056 261.61706,178.54056   C 258.46024,178.54056 255.82289,179.2998 253.70502,180.81827   C 251.58714,182.33674 250.06867,184.3747 249.22951,186.93213   C 248.3504,189.48956 247.91084,192.1269 247.91084,194.84417   C 247.91084,198.36064 248.43032,201.39759 249.46927,204.03494   C 250.46827,206.63233 252.06666,208.59036 254.22449,209.86907   C 256.38233,211.18775 258.7,211.82711 261.21747,211.82711   C 264.25441,211.82711 266.8518,210.94799 268.96967,209.18976   C 271.08755,207.43152 272.5261,204.79417 273.28534,201.35763   z  M 285.27329,215.78313   L 285.27329,174.58454   L 293.46506,174.58454   L 303.21526,203.75522   C 304.13433,206.47249 304.77369,208.51044 305.17329,209.86907   C 305.65281,208.3506 306.37208,206.15281 307.37108,203.23574   L 317.24116,174.58454   L 324.55381,174.58454   L 324.55381,215.78313   L 319.31907,215.78313   L 319.31907,181.29779   L 307.33112,215.78313   L 302.41606,215.78313   L 290.50803,180.73835   L 290.50803,215.78313   z "
     style="fill:#000000;fill-rule:evenodd;fill-opacity:1;stroke:none;" />
  <path
     id="path13"
     d="  M 195.76325,215.78313   L 195.76325,174.58454   L 203.99498,174.58454   L 213.74518,203.75522   C 214.62429,206.47249 215.30361,208.51044 215.70321,209.86907   C 216.18273,208.3506 216.902,206.15281 217.901,203.23574   L 227.73112,174.58454   L 235.08373,174.58454   L 235.08373,215.78313   L 229.84899,215.78313   L 229.84899,181.29779   L 217.86104,215.78313   L 212.94598,215.78313   L 201.03795,180.73835   L 201.03795,215.78313   z  M 273.28534,201.35763   L 278.71988,202.71626   C 277.56104,207.19176 275.52309,210.62831 272.56606,212.94598   C 269.56907,215.30361 265.97269,216.50241 261.65702,216.50241   C 257.22148,216.50241 253.6251,215.58333 250.82791,213.78514   C 248.07068,211.98694 245.95281,209.3496 244.47429,205.91305   C 243.03574,202.51646 242.31646,198.8002 242.31646,194.88413   C 242.31646,190.60843 243.11566,186.85221 244.75401,183.65542   C 246.39237,180.45863 248.75,178.02108 251.74698,176.38273   C 254.78393,174.70442 258.1006,173.90522 261.73694,173.90522   C 265.85281,173.90522 269.32931,174.94417 272.1265,177.02209   C 274.96365,179.13996 276.92168,182.09699 278.0006,185.89317   L 272.64598,187.17188   C 271.68694,184.1749 270.32831,181.97711 268.49016,180.61847   C 266.69196,179.25984 264.37429,178.54056 261.61706,178.54056   C 258.46024,178.54056 255.82289,179.2998 253.70502,180.81827   C 251.58714,182.33674 250.06867,184.3747 249.22951,186.93213   C 248.3504,189.48956 247.91084,192.1269 247.91084,194.84417   C 247.91084,198.36064 248.43032,201.39759 249.46927,204.03494   C 250.46827,206.63233 252.06666,208.59036 254.22449,209.86907   C 256.38233,211.18775 258.7,211.82711 261.21747,211.82711   C 264.25441,211.82711 266.8518,210.94799 268.96967,209.18976   C 271.08755,207.43152 272.5261,204.79417 273.28534,201.35763   z  M 285.27329,215.78313   L 285.27329,174.58454   L 293.46506,174.58454   L 303.21526,203.75522   C 304.13433,206.47249 304.77369,208.51044 305.17329,209.86907   C 305.65281,208.3506 306.37208,206.15281 307.37108,203.23574   L 317.24116,174.58454   L 324.55381,174.58454   L 324.55381,215.78313   L 319.31907,215.78313   L 319.31907,181.29779   L 307.33112,215.78313   L 302.41606,215.78313   L 290.50803,180.73835   L 290.50803,215.78313   z "
     style="fill:none;stroke:#000000;stroke-width:0.95903611px;stroke-linecap:butt;stroke-linejoin:miter;stroke-miterlimit:10;stroke-dasharray:none;stroke-opacity:1;" />
</svg>
