<?xml version="1.0" encoding="UTF-8" standalone="no"?>
<svg
   xmlns:dc="http://purl.org/dc/elements/1.1/"
   xmlns:cc="http://creativecommons.org/ns#"
   xmlns:rdf="http://www.w3.org/1999/02/22-rdf-syntax-ns#"
   xmlns:svg="http://www.w3.org/2000/svg"
   xmlns="http://www.w3.org/2000/svg"
   id="svg15"
   height="107.94mm"
   width="95.75mm"
   version="1.0">
  <metadata
     id="metadata19">
    <rdf:RDF>
      <cc:Work
         rdf:about="">
        <dc:format>image/svg+xml</dc:format>
        <dc:type
           rdf:resource="http://purl.org/dc/dcmitype/StillImage" />
      </cc:Work>
    </rdf:RDF>
  </metadata>
  <defs
     id="defs3">
    <pattern
       y="0"
       x="0"
       height="6"
       width="6"
       patternUnits="userSpaceOnUse"
       id="EMFhbasepattern" />
  </defs>
  <path
     id="path5"
     d="  M 54.345381,353.56465   L 54.345381,171.34779   L 180.93815,54.345381   L 307.53092,171.34779   L 307.53092,353.56465   z "
     style="fill:#ff8080;fill-rule:evenodd;fill-opacity:1;stroke:none;" />
  <path
     id="path7"
     d="  M 54.345381,353.56465   L 54.345381,171.34779   L 180.93815,54.345381   L 307.53092,171.34779   L 307.53092,353.56465  "
     style="fill:none;stroke:#000000;stroke-width:9.5903616px;stroke-linecap:butt;stroke-linejoin:miter;stroke-miterlimit:10;stroke-dasharray:none;stroke-opacity:1;" />
  <path
     id="path9"
     d="  M 85.034537,200.11887   L 85.034537,200.11887   L 85.034537,238.48032   L 180.93815,296.02249   L 276.84176,238.48032   L 276.84176,200.11887   L 180.93815,257.66104   z "
     style="fill:#000000;fill-rule:evenodd;fill-opacity:1;stroke:none;" />
  <path
     id="path11"
     d="  M 122.15723,168.99016   L 127.31205,168.5506   C 127.55181,170.58855 128.11124,172.30682 128.99036,173.6255   C 129.90944,174.94417 131.26807,175.98313 133.14618,176.82229   C 135.0243,177.62148 137.14217,178.02108 139.45984,178.02108   C 141.53775,178.02108 143.3759,177.74136 144.9743,177.10201   C 146.57269,176.50261 147.77148,175.62349 148.53072,174.58454   C 149.32992,173.50562 149.68956,172.30682 149.68956,171.02811   C 149.68956,169.7494 149.32992,168.63052 148.57068,167.67148   C 147.81144,166.67249 146.57269,165.87329 144.85442,165.23393   C 143.7755,164.79438 141.29799,164.11506 137.54177,163.19598   C 133.74558,162.31687 131.10823,161.43775 129.58976,160.63855   C 127.63173,159.5996 126.15321,158.32088 125.19417,156.80241   C 124.23514,155.28393 123.75562,153.56566 123.75562,151.68755   C 123.75562,149.60964 124.31506,147.6516 125.51385,145.85341   C 126.67269,144.05522 128.43092,142.65662 130.66867,141.73755   C 132.94638,140.77851 135.46385,140.33895 138.22108,140.33895   C 141.29799,140.33895 143.9753,140.81847 146.29297,141.81747   C 148.6506,142.7765 150.44879,144.21506 151.68755,146.13313   C 152.96626,148.0512 153.60562,150.20903 153.7255,152.64658   L 148.49076,153.04618   C 148.21104,150.40883 147.25201,148.4508 145.65361,147.13213   C 144.01526,145.81345 141.61767,145.13413 138.46084,145.13413   C 135.14417,145.13413 132.74658,145.73353 131.26807,146.93233   C 129.7496,148.17108 128.99036,149.60964 128.99036,151.32791   C 128.99036,152.80642 129.50984,154.00522 130.58875,154.96425   C 131.62771,155.92329 134.38494,156.92229 138.82048,157.92128   C 143.25602,158.92028 146.29297,159.7994 147.93132,160.51867   C 150.32891,161.63755 152.08715,163.03614 153.24598,164.71446   C 154.36486,166.43273 154.96425,168.39076 154.96425,170.58855   C 154.96425,172.78634 154.3249,174.86425 153.08614,176.78233   C 151.80743,178.74036 150.00923,180.21887 147.6516,181.29779   C 145.29397,182.3767 142.65662,182.93614 139.73956,182.93614   C 135.98333,182.93614 132.86646,182.3767 130.34899,181.29779   C 127.83152,180.21887 125.87349,178.58052 124.43494,176.38273   C 122.99638,174.2249 122.23715,171.74739 122.15723,168.99016   z  M 160.75843,162.15703   C 160.75843,155.32389 162.59658,149.96927 166.23293,146.09317   C 169.90923,142.21707 174.66446,140.29899 180.45863,140.29899   C 184.25482,140.29899 187.69136,141.21807 190.72831,143.01626   C 193.80522,144.85442 196.12289,147.37189 197.72128,150.60863   C 199.31968,153.88534 200.11887,157.56164 200.11887,161.67751   C 200.11887,165.87329 199.27972,169.58956 197.6014,172.90622   C 195.92309,176.18293 193.5255,178.7004 190.44859,180.37871   C 187.33172,182.09699 184.01506,182.93614 180.41867,182.93614   C 176.54257,182.93614 173.10602,181.97711 170.02911,180.09899   C 166.99217,178.26084 164.6745,175.70341 163.11606,172.4267   C 161.51767,169.18996 160.75843,165.79337 160.75843,162.15703   z  M 166.35281,162.23695   C 166.35281,167.19197 167.71144,171.10803 170.34879,173.98514   C 173.0261,176.82229 176.38273,178.26084 180.41867,178.26084   C 184.49458,178.26084 187.89116,176.82229 190.52851,173.94518   C 193.20582,171.06807 194.5245,166.95221 194.5245,161.63755   C 194.5245,158.32088 193.96506,155.36385 192.80622,152.88634   C 191.68735,150.36887 190.00903,148.4508 187.8512,147.05221   C 185.65341,145.69357 183.21586,144.9743 180.49859,144.9743   C 176.62249,144.9743 173.30582,146.33293 170.54859,148.97028   C 167.7514,151.60763 166.35281,156.04317 166.35281,162.23695   z  M 207.43152,182.21686   L 207.43152,141.01827   L 235.24357,141.01827   L 235.24357,145.89337   L 212.90602,145.89337   L 212.90602,158.64056   L 232.20662,158.64056   L 232.20662,163.51566   L 212.90602,163.51566   L 212.90602,182.21686   z "
     style="fill:#000000;fill-rule:evenodd;fill-opacity:1;stroke:none;" />
  <path
     id="path13"
     d="  M 122.15723,168.99016   L 127.31205,168.5506   C 127.55181,170.58855 128.11124,172.30682 128.99036,173.6255   C 129.90944,174.94417 131.26807,175.98313 133.14618,176.82229   C 135.0243,177.62148 137.14217,178.02108 139.45984,178.02108   C 141.53775,178.02108 143.3759,177.74136 144.9743,177.10201   C 146.57269,176.50261 147.77148,175.62349 148.53072,174.58454   C 149.32992,173.50562 149.68956,172.30682 149.68956,171.02811   C 149.68956,169.7494 149.32992,168.63052 148.57068,167.67148   C 147.81144,166.67249 146.57269,165.87329 144.85442,165.23393   C 143.7755,164.79438 141.29799,164.11506 137.54177,163.19598   C 133.74558,162.31687 131.10823,161.43775 129.58976,160.63855   C 127.63173,159.5996 126.15321,158.32088 125.19417,156.80241   C 124.23514,155.28393 123.75562,153.56566 123.75562,151.68755   C 123.75562,149.60964 124.31506,147.6516 125.51385,145.85341   C 126.67269,144.05522 128.43092,142.65662 130.66867,141.73755   C 132.94638,140.77851 135.46385,140.33895 138.22108,140.33895   C 141.29799,140.33895 143.9753,140.81847 146.29297,141.81747   C 148.6506,142.7765 150.44879,144.21506 151.68755,146.13313   C 152.96626,148.0512 153.60562,150.20903 153.7255,152.64658   L 148.49076,153.04618   C 148.21104,150.40883 147.25201,148.4508 145.65361,147.13213   C 144.01526,145.81345 141.61767,145.13413 138.46084,145.13413   C 135.14417,145.13413 132.74658,145.73353 131.26807,146.93233   C 129.7496,148.17108 128.99036,149.60964 128.99036,151.32791   C 128.99036,152.80642 129.50984,154.00522 130.58875,154.96425   C 131.62771,155.92329 134.38494,156.92229 138.82048,157.92128   C 143.25602,158.92028 146.29297,159.7994 147.93132,160.51867   C 150.32891,161.63755 152.08715,163.03614 153.24598,164.71446   C 154.36486,166.43273 154.96425,168.39076 154.96425,170.58855   C 154.96425,172.78634 154.3249,174.86425 153.08614,176.78233   C 151.80743,178.74036 150.00923,180.21887 147.6516,181.29779   C 145.29397,182.3767 142.65662,182.93614 139.73956,182.93614   C 135.98333,182.93614 132.86646,182.3767 130.34899,181.29779   C 127.83152,180.21887 125.87349,178.58052 124.43494,176.38273   C 122.99638,174.2249 122.23715,171.74739 122.15723,168.99016   z  M 160.75843,162.15703   C 160.75843,155.32389 162.59658,149.96927 166.23293,146.09317   C 169.90923,142.21707 174.66446,140.29899 180.45863,140.29899   C 184.25482,140.29899 187.69136,141.21807 190.72831,143.01626   C 193.80522,144.85442 196.12289,147.37189 197.72128,150.60863   C 199.31968,153.88534 200.11887,157.56164 200.11887,161.67751   C 200.11887,165.87329 199.27972,169.58956 197.6014,172.90622   C 195.92309,176.18293 193.5255,178.7004 190.44859,180.37871   C 187.33172,182.09699 184.01506,182.93614 180.41867,182.93614   C 176.54257,182.93614 173.10602,181.97711 170.02911,180.09899   C 166.99217,178.26084 164.6745,175.70341 163.11606,172.4267   C 161.51767,169.18996 160.75843,165.79337 160.75843,162.15703   z  M 166.35281,162.23695   C 166.35281,167.19197 167.71144,171.10803 170.34879,173.98514   C 173.0261,176.82229 176.38273,178.26084 180.41867,178.26084   C 184.49458,178.26084 187.89116,176.82229 190.52851,173.94518   C 193.20582,171.06807 194.5245,166.95221 194.5245,161.63755   C 194.5245,158.32088 193.96506,155.36385 192.80622,152.88634   C 191.68735,150.36887 190.00903,148.4508 187.8512,147.05221   C 185.65341,145.69357 183.21586,144.9743 180.49859,144.9743   C 176.62249,144.9743 173.30582,146.33293 170.54859,148.97028   C 167.7514,151.60763 166.35281,156.04317 166.35281,162.23695   z  M 207.43152,182.21686   L 207.43152,141.01827   L 235.24357,141.01827   L 235.24357,145.89337   L 212.90602,145.89337   L 212.90602,158.64056   L 232.20662,158.64056   L 232.20662,163.51566   L 212.90602,163.51566   L 212.90602,182.21686   z "
     style="fill:none;stroke:#000000;stroke-width:0.95903611px;stroke-linecap:butt;stroke-linejoin:miter;stroke-miterlimit:10;stroke-dasharray:none;stroke-opacity:1;" />
</svg>
