<?xml version="1.0" encoding="UTF-8" standalone="no"?>
<svg
   xmlns:dc="http://purl.org/dc/elements/1.1/"
   xmlns:cc="http://creativecommons.org/ns#"
   xmlns:rdf="http://www.w3.org/1999/02/22-rdf-syntax-ns#"
   xmlns:svg="http://www.w3.org/2000/svg"
   xmlns="http://www.w3.org/2000/svg"
   id="svg11"
   height="116.73mm"
   width="116.73mm"
   version="1.0">
  <metadata
     id="metadata15">
    <rdf:RDF>
      <cc:Work
         rdf:about="">
        <dc:format>image/svg+xml</dc:format>
        <dc:type
           rdf:resource="http://purl.org/dc/dcmitype/StillImage" />
      </cc:Work>
    </rdf:RDF>
  </metadata>
  <defs
     id="defs3">
    <pattern
       y="0"
       x="0"
       height="6"
       width="6"
       patternUnits="userSpaceOnUse"
       id="EMFhbasepattern" />
  </defs>
  <path
     id="path5"
     d="  M 220.57831,386.49156   L 220.57831,386.49156   L 386.49156,220.57831   L 220.57831,54.665059   L 54.665059,220.57831   L 220.57831,386.49156   z "
     style="fill:#ff8080;fill-rule:evenodd;fill-opacity:1;stroke:none;" />
  <path
     id="path7"
     d="  M 220.57831,386.49156   L 220.57831,386.49156   L 386.49156,220.57831   L 220.57831,54.665059   L 54.665059,220.57831   L 220.57831,386.49156  "
     style="fill:none;stroke:#000000;stroke-width:9.5903616px;stroke-linecap:butt;stroke-linejoin:miter;stroke-miterlimit:10;stroke-dasharray:none;stroke-opacity:1;" />
  <path
     id="path9"
     d="  M 131.78755,238.2006   L 131.78755,190.16887   L 148.33092,190.16887   C 152.08715,190.16887 154.92429,190.40863 156.88233,190.84819   C 159.63956,191.48755 161.99719,192.64638 163.95522,194.28474   C 166.47269,196.44257 168.39076,199.15984 169.62952,202.51646   C 170.90823,205.83313 171.50763,209.62931 171.50763,213.90502   C 171.50763,217.58132 171.10803,220.81807 170.22891,223.61526   C 169.38976,226.45241 168.31084,228.77008 166.95221,230.60823   C 165.63353,232.48634 164.15502,233.9249 162.59658,235.00381   C 160.99819,236.04277 159.08012,236.84196 156.84237,237.4014   C 154.60462,237.96084 152.04719,238.2006 149.13012,238.2006   z  M 138.14116,232.5263   L 148.41084,232.5263   C 151.56767,232.5263 154.04518,232.24658 155.88333,231.64719   C 157.68152,231.08775 159.12008,230.24859 160.15903,229.16968   C 161.67751,227.6512 162.8763,225.65321 163.71546,223.09578   C 164.55462,220.53835 164.95421,217.46144 164.95421,213.8251   C 164.95421,208.79016 164.15502,204.95401 162.4767,202.23674   C 160.83835,199.55943 158.84036,197.72128 156.48273,196.80221   C 154.76446,196.16285 152.04719,195.84317 148.251,195.84317   L 138.14116,195.84317   z  M 180.37871,238.2006   L 180.37871,190.16887   L 201.67731,190.16887   C 205.95301,190.16887 209.22972,190.60843 211.42751,191.44759   C 213.66526,192.3267 215.46345,193.84518 216.78213,196.04297   C 218.14076,198.2008 218.78012,200.63835 218.78012,203.2757   C 218.78012,206.67229 217.7012,209.54939 215.46345,211.90703   C 213.26566,214.2247 209.86907,215.70321 205.23373,216.34257   C 206.95201,217.14176 208.23072,217.94096 209.06988,218.74016   C 210.94799,220.45843 212.70622,222.5763 214.34458,225.13373   L 222.73614,238.2006   L 214.70421,238.2006   L 208.3506,228.21064   C 206.51245,225.33353 204.99397,223.13574 203.75522,221.57731   C 202.55642,220.05883 201.47751,218.97992 200.55843,218.38052   C 199.59939,217.78112 198.64036,217.34156 197.64136,217.1018   C 196.92209,216.94196 195.76325,216.86205 194.08494,216.86205   L 186.73233,216.86205   L 186.73233,238.2006   z  M 186.73233,211.34759   L 200.39859,211.34759   C 203.31566,211.38755 205.59337,211.06787 207.23172,210.46847   C 208.87008,209.86907 210.10883,208.91004 210.94799,207.59136   C 211.78715,206.27269 212.2267,204.83413 212.2267,203.2757   C 212.2267,200.99799 211.42751,199.11988 209.74919,197.68132   C 208.11084,196.20281 205.51345,195.48353 201.95703,195.48353   L 186.73233,195.48353   z  M 260.29839,190.16887   L 266.652,190.16887   L 266.652,217.94096   C 266.652,222.73614 266.09257,226.57229 265.01365,229.44939   C 263.93474,232.28654 261.93674,234.56425 259.09959,236.36245   C 256.22249,238.16064 252.50622,239.03976 247.87088,239.03976   C 243.35542,239.03976 239.67911,238.24056 236.802,236.72208   C 233.96486,235.16365 231.9269,232.9259 230.68815,229.96887   C 229.44939,227.0518 228.85,223.01586 228.85,217.94096   L 228.85,190.16887   L 235.20361,190.16887   L 235.20361,217.901   C 235.20361,222.05682 235.60321,225.13373 236.36245,227.13172   C 237.16164,229.08976 238.48032,230.60823 240.35843,231.68715   C 242.2765,232.76606 244.59417,233.28554 247.31144,233.28554   C 251.98674,233.28554 255.30341,232.24658 257.3014,230.12871   C 259.29939,228.01084 260.29839,223.93494 260.29839,217.901   z  M 299.73875,219.37951   L 299.73875,213.74518   L 320.07831,213.70522   L 320.07831,231.52731   C 316.96144,234.00482 313.72469,235.88293 310.40803,237.16164   C 307.09136,238.4004 303.69477,239.03976 300.17831,239.03976   C 295.46305,239.03976 291.18735,238.04076 287.31124,236.00281   C 283.4751,233.96486 280.55803,231.04779 278.56004,227.2516   C 276.602,223.41546 275.64297,219.13976 275.64297,214.42449   C 275.64297,209.74919 276.602,205.39357 278.56004,201.31767   C 280.51807,197.28172 283.31526,194.24478 286.99156,192.28674   C 290.66787,190.32871 294.90361,189.32972 299.69879,189.32972   C 303.1753,189.32972 306.29216,189.88915 309.12931,191.04799   C 311.9265,192.16686 314.12429,193.7253 315.72269,195.72329   C 317.32108,197.76124 318.51987,200.35863 319.35903,203.59538   L 313.60481,205.15381   C 312.88554,202.71626 312.00642,200.79819 310.92751,199.3996   C 309.84859,198.001 308.33012,196.88213 306.33212,196.04297   C 304.37409,195.20381 302.13634,194.76425 299.73875,194.76425   C 296.82168,194.76425 294.30421,195.24377 292.18634,196.12289   C 290.06847,197.00201 288.3502,198.16084 287.03152,199.59939   C 285.75281,201.03795 284.75381,202.63634 284.03453,204.35462   C 282.79578,207.31164 282.19638,210.54839 282.19638,214.0249   C 282.19638,218.3006 282.91566,221.89698 284.39417,224.77409   C 285.87269,227.6512 288.03052,229.80903 290.82771,231.20763   C 293.66486,232.60622 296.66184,233.28554 299.81867,233.28554   C 302.5759,233.28554 305.25321,232.76606 307.89056,231.72711   C 310.48795,230.64819 312.48594,229.52931 313.84457,228.33052   L 313.84457,219.37951   z "
     style="fill:#000000;fill-rule:evenodd;fill-opacity:1;stroke:none;" />
</svg>
