<?xml version="1.0" encoding="UTF-8" standalone="no"?>
<svg
   xmlns:dc="http://purl.org/dc/elements/1.1/"
   xmlns:cc="http://creativecommons.org/ns#"
   xmlns:rdf="http://www.w3.org/1999/02/22-rdf-syntax-ns#"
   xmlns:svg="http://www.w3.org/2000/svg"
   xmlns="http://www.w3.org/2000/svg"
   id="svg11"
   height="95.75mm"
   width="95.75mm"
   version="1.0">
  <metadata
     id="metadata15">
    <rdf:RDF>
      <cc:Work
         rdf:about="">
        <dc:format>image/svg+xml</dc:format>
        <dc:type
           rdf:resource="http://purl.org/dc/dcmitype/StillImage" />
      </cc:Work>
    </rdf:RDF>
  </metadata>
  <defs
     id="defs3">
    <pattern
       y="0"
       x="0"
       height="6"
       width="6"
       patternUnits="userSpaceOnUse"
       id="EMFhbasepattern" />
  </defs>
  <path
     id="path5"
     d="  M 54.345381,54.345381   L 54.345381,307.53092   L 307.53092,307.53092   L 307.53092,54.345381   L 54.345381,54.345381   z "
     style="fill:#aaffaa;fill-rule:evenodd;fill-opacity:1;stroke:none;" />
  <path
     id="path7"
     d="  M 54.345381,54.345381   L 307.53092,54.345381   L 307.53092,307.53092   L 54.345381,307.53092   z "
     style="fill:none;stroke:#000000;stroke-width:9.5903616px;stroke-linecap:butt;stroke-linejoin:miter;stroke-miterlimit:10;stroke-dasharray:none;stroke-opacity:1;" />
  <path
     id="path9"
     d="  M 92.147388,198.56044   L 92.147388,150.52871   L 108.69076,150.52871   C 112.44699,150.52871 115.28413,150.76847 117.24217,151.20803   C 119.9994,151.84739 122.35703,153.00622 124.31506,154.64458   C 126.83253,156.80241 128.7506,159.51968 129.98936,162.8763   C 131.26807,166.19297 131.86747,169.98915 131.86747,174.26486   C 131.86747,177.94116 131.46787,181.17791 130.58875,183.9751   C 129.7496,186.81225 128.67068,189.12992 127.31205,190.96807   C 125.99337,192.84618 124.51486,194.28474 122.95642,195.36365   C 121.35803,196.40261 119.43996,197.2018 117.20221,197.76124   C 114.96446,198.32068 112.40703,198.56044 109.48996,198.56044   z  M 98.501003,192.88614   L 108.77068,192.88614   C 111.92751,192.88614 114.40502,192.60642 116.24317,192.00703   C 118.04136,191.44759 119.47992,190.60843 120.51887,189.52952   C 122.03735,188.01104 123.23614,186.01305 124.0753,183.45562   C 124.91446,180.89819 125.31405,177.82128 125.31405,174.18494   C 125.31405,169.15 124.51486,165.31385 122.83654,162.59658   C 121.19819,159.91927 119.2002,158.08112 116.84257,157.16205   C 115.1243,156.52269 112.40703,156.20301 108.61084,156.20301   L 98.501003,156.20301   z  M 140.73855,198.56044   L 140.73855,150.52871   L 162.03715,150.52871   C 166.31285,150.52871 169.58956,150.96827 171.78735,151.80743   C 174.0251,152.68654 175.82329,154.20502 177.14197,156.40281   C 178.5006,158.56064 179.13996,160.99819 179.13996,163.63554   C 179.13996,167.03213 178.06104,169.90923 175.82329,172.26686   C 173.6255,174.58454 170.22891,176.06305 165.59357,176.70241   C 167.31184,177.5016 168.59056,178.3008 169.42972,179.1   C 171.30783,180.81827 173.06606,182.93614 174.70442,185.49357   L 183.09598,198.56044   L 175.06405,198.56044   L 168.71044,188.57048   C 166.87229,185.69337 165.35381,183.49558 164.11506,181.93715   C 162.91626,180.41867 161.83735,179.33976 160.91827,178.74036   C 159.95923,178.14096 159.0002,177.7014 158.0012,177.46164   C 157.28193,177.3018 156.12309,177.22188 154.44478,177.22188   L 147.09217,177.22188   L 147.09217,198.56044   z  M 147.09217,171.70743   L 160.75843,171.70743   C 163.6755,171.74739 165.95321,171.42771 167.59156,170.82831   C 169.22992,170.22891 170.46867,169.26988 171.30783,167.9512   C 172.14699,166.63253 172.58654,165.19397 172.58654,163.63554   C 172.58654,161.35783 171.78735,159.47972 170.10903,158.04116   C 168.47068,156.56265 165.87329,155.84337 162.31687,155.84337   L 147.09217,155.84337   z  M 220.65823,150.52871   L 227.01184,150.52871   L 227.01184,178.3008   C 227.01184,183.09598 226.45241,186.93213 225.37349,189.80923   C 224.29458,192.64638 222.29658,194.92409 219.45943,196.72229   C 216.58233,198.52048 212.86606,199.3996 208.23072,199.3996   C 203.71526,199.3996 200.03895,198.6004 197.16184,197.08192   C 194.3247,195.52349 192.28674,193.28574 191.04799,190.32871   C 189.80923,187.41164 189.20984,183.3757 189.20984,178.3008   L 189.20984,150.52871   L 195.56345,150.52871   L 195.56345,178.26084   C 195.56345,182.41666 195.96305,185.49357 196.72229,187.49156   C 197.52148,189.4496 198.84016,190.96807 200.71827,192.04699   C 202.63634,193.1259 204.95401,193.64538 207.67128,193.64538   C 212.34658,193.64538 215.66325,192.60642 217.66124,190.48855   C 219.65923,188.37068 220.65823,184.29478 220.65823,178.26084   z  M 260.09859,179.73935   L 260.09859,174.10502   L 280.43815,174.06506   L 280.43815,191.88715   C 277.32128,194.36466 274.08453,196.24277 270.76787,197.52148   C 267.4512,198.76024 264.05461,199.3996 260.53815,199.3996   C 255.82289,199.3996 251.54719,198.4006 247.67108,196.36265   C 243.83494,194.3247 240.91787,191.40763 238.91988,187.61144   C 236.96184,183.7753 236.00281,179.4996 236.00281,174.78433   C 236.00281,170.10903 236.96184,165.75341 238.91988,161.67751   C 240.87791,157.64156 243.6751,154.60462 247.3514,152.64658   C 251.02771,150.68855 255.26345,149.68956 260.05863,149.68956   C 263.53514,149.68956 266.652,150.24899 269.48915,151.40783   C 272.28634,152.5267 274.48413,154.08514 276.08253,156.08313   C 277.68092,158.12108 278.87971,160.71847 279.71887,163.95522   L 273.96465,165.51365   C 273.24538,163.0761 272.36626,161.15803 271.28735,159.75944   C 270.20843,158.36084 268.68996,157.24197 266.69196,156.40281   C 264.73393,155.56365 262.49618,155.12409 260.09859,155.12409   C 257.18152,155.12409 254.66405,155.60361 252.54618,156.48273   C 250.42831,157.36185 248.71004,158.52068 247.39136,159.95923   C 246.11265,161.39779 245.11365,162.99618 244.39437,164.71446   C 243.15562,167.67148 242.55622,170.90823 242.55622,174.38474   C 242.55622,178.66044 243.2755,182.25682 244.75401,185.13393   C 246.23253,188.01104 248.39036,190.16887 251.18755,191.56747   C 254.0247,192.96606 257.02168,193.64538 260.17851,193.64538   C 262.93574,193.64538 265.61305,193.1259 268.2504,192.08695   C 270.84779,191.00803 272.84578,189.88915 274.20441,188.69036   L 274.20441,179.73935   z "
     style="fill:#000000;fill-rule:evenodd;fill-opacity:1;stroke:none;" />
</svg>
