<?xml version="1.0" encoding="UTF-8" standalone="no"?>
<svg
   xmlns:dc="http://purl.org/dc/elements/1.1/"
   xmlns:cc="http://creativecommons.org/ns#"
   xmlns:rdf="http://www.w3.org/1999/02/22-rdf-syntax-ns#"
   xmlns:svg="http://www.w3.org/2000/svg"
   xmlns="http://www.w3.org/2000/svg"
   id="svg11"
   height="130.27mm"
   width="130.27mm"
   version="1.0">
  <metadata
     id="metadata15">
    <rdf:RDF>
      <cc:Work
         rdf:about="">
        <dc:format>image/svg+xml</dc:format>
        <dc:type
           rdf:resource="http://purl.org/dc/dcmitype/StillImage" />
      </cc:Work>
    </rdf:RDF>
  </metadata>
  <defs
     id="defs3">
    <pattern
       y="0"
       x="0"
       height="6"
       width="6"
       patternUnits="userSpaceOnUse"
       id="EMFhbasepattern" />
  </defs>
  <path
     id="path5"
     d="  M 164.63454,327.67068   C 164.63454,437.95983 327.67068,437.95983 327.67068,327.67068   C 437.95983,327.67068 437.95983,164.63454 327.67068,164.63454   C 327.67068,54.345381 164.63454,54.345381 164.63454,164.63454   C 54.345381,164.63454 54.345381,327.67068 164.63454,327.67068   z "
     style="fill:#ffff80;fill-rule:evenodd;fill-opacity:1;stroke:none;" />
  <path
     id="path7"
     d="  M 164.63454,327.67068   C 164.63454,437.95983 327.67068,437.95983 327.67068,327.67068   C 437.95983,327.67068 437.95983,164.63454 327.67068,164.63454   C 327.67068,54.345381 164.63454,54.345381 164.63454,164.63454   C 54.345381,164.63454 54.345381,327.67068 164.63454,327.67068  "
     style="fill:none;stroke:#000000;stroke-width:9.5903616px;stroke-linecap:butt;stroke-linejoin:miter;stroke-miterlimit:10;stroke-dasharray:none;stroke-opacity:1;" />
  <path
     id="path9"
     d="  M 157.36185,263.7749   L 157.36185,215.74317   L 173.90522,215.74317   C 177.66144,215.74317 180.49859,215.98293 182.45662,216.42249   C 185.21385,217.06184 187.57148,218.22068 189.52952,219.85903   C 192.04699,222.01686 193.96506,224.73413 195.20381,228.09076   C 196.48253,231.40743 197.08192,235.20361 197.08192,239.47931   C 197.08192,243.15562 196.68233,246.39237 195.80321,249.18955   C 194.96405,252.0267 193.88514,254.34437 192.5265,256.18253   C 191.20783,258.06064 189.72931,259.49919 188.17088,260.57811   C 186.57249,261.61706 184.65442,262.41626 182.41666,262.9757   C 180.17891,263.53514 177.62148,263.7749 174.70442,263.7749   z  M 163.71546,258.1006   L 173.98514,258.1006   C 177.14197,258.1006 179.61948,257.82088 181.45763,257.22148   C 183.25582,256.66204 184.69437,255.82289 185.73333,254.74397   C 187.2518,253.2255 188.4506,251.22751 189.28976,248.67008   C 190.12891,246.11265 190.52851,243.03574 190.52851,239.39939   C 190.52851,234.36445 189.72931,230.52831 188.051,227.81104   C 186.41265,225.13373 184.41466,223.29558 182.05703,222.3765   C 180.33875,221.73715 177.62148,221.41747 173.8253,221.41747   L 163.71546,221.41747   z  M 205.95301,263.7749   L 205.95301,215.74317   L 227.2516,215.74317   C 231.52731,215.74317 234.80401,216.18273 237.0018,217.02188   C 239.23955,217.901 241.03775,219.41947 242.35642,221.61727   C 243.71506,223.7751 244.35441,226.21265 244.35441,228.85   C 244.35441,232.24658 243.2755,235.12369 241.03775,237.48132   C 238.83996,239.79899 235.44337,241.27751 230.80803,241.91686   C 232.5263,242.71606 233.80502,243.51526 234.64417,244.31445   C 236.52229,246.03273 238.28052,248.1506 239.91887,250.70803   L 248.31044,263.7749   L 240.27851,263.7749   L 233.9249,253.78494   C 232.08674,250.90783 230.56827,248.71004 229.32951,247.1516   C 228.13072,245.63313 227.0518,244.55421 226.13273,243.95482   C 225.17369,243.35542 224.21466,242.91586 223.21566,242.6761   C 222.49638,242.51626 221.33755,242.43634 219.65923,242.43634   L 212.30662,242.43634   L 212.30662,263.7749   z  M 212.30662,236.92188   L 225.97289,236.92188   C 228.88996,236.96184 231.16767,236.64217 232.80602,236.04277   C 234.44437,235.44337 235.68313,234.48433 236.52229,233.16566   C 237.36144,231.84698 237.801,230.40843 237.801,228.85   C 237.801,226.57229 237.0018,224.69417 235.32349,223.25562   C 233.68514,221.77711 231.08775,221.05783 227.53132,221.05783   L 212.30662,221.05783   z  M 285.87269,215.74317   L 292.2263,215.74317   L 292.2263,243.51526   C 292.2263,248.31044 291.66686,252.14658 290.58795,255.02369   C 289.50903,257.86084 287.51104,260.13855 284.67389,261.93674   C 281.79678,263.73494 278.08052,264.61405 273.44518,264.61405   C 268.92971,264.61405 265.25341,263.81486 262.3763,262.29638   C 259.53915,260.73795 257.5012,258.5002 256.26245,255.54317   C 255.02369,252.6261 254.42429,248.59016 254.42429,243.51526   L 254.42429,215.74317   L 260.77791,215.74317   L 260.77791,243.4753   C 260.77791,247.63112 261.17751,250.70803 261.93674,252.70602   C 262.73594,254.66405 264.05461,256.18253 265.93273,257.26144   C 267.8508,258.34036 270.16847,258.85984 272.88574,258.85984   C 277.56104,258.85984 280.87771,257.82088 282.8757,255.70301   C 284.87369,253.58514 285.87269,249.50923 285.87269,243.4753   z  M 325.31305,244.95381   L 325.31305,239.31947   L 345.65261,239.27951   L 345.65261,257.1016   C 342.53574,259.57911 339.29899,261.45723 335.98232,262.73594   C 332.66566,263.97469 329.26907,264.61405 325.75261,264.61405   C 321.03734,264.61405 316.76164,263.61506 312.88554,261.5771   C 309.04939,259.53915 306.13232,256.62208 304.13433,252.8259   C 302.1763,248.98976 301.21726,244.71405 301.21726,239.99879   C 301.21726,235.32349 302.1763,230.96787 304.13433,226.89196   C 306.09237,222.85602 308.88955,219.81907 312.56586,217.86104   C 316.24216,215.90301 320.47791,214.90401 325.27309,214.90401   C 328.74959,214.90401 331.86646,215.46345 334.70361,216.62229   C 337.5008,217.74116 339.69859,219.2996 341.29698,221.29759   C 342.89538,223.33554 344.09417,225.93293 344.93333,229.16968   L 339.17911,230.72811   C 338.45983,228.29056 337.58072,226.37249 336.5018,224.97389   C 335.42289,223.5753 333.90441,222.45642 331.90642,221.61727   C 329.94839,220.77811 327.71064,220.33855 325.31305,220.33855   C 322.39598,220.33855 319.87851,220.81807 317.76064,221.69719   C 315.64277,222.5763 313.92449,223.73514 312.60582,225.17369   C 311.3271,226.61225 310.32811,228.21064 309.60883,229.92891   C 308.37008,232.88594 307.77068,236.12269 307.77068,239.59919   C 307.77068,243.8749 308.48996,247.47128 309.96847,250.34839   C 311.44698,253.2255 313.60481,255.38333 316.402,256.78192   C 319.23915,258.18052 322.23614,258.85984 325.39297,258.85984   C 328.1502,258.85984 330.82751,258.34036 333.46485,257.3014   C 336.06224,256.22249 338.06024,255.10361 339.41887,253.90482   L 339.41887,244.95381   z "
     style="fill:#000000;fill-rule:evenodd;fill-opacity:1;stroke:none;" />
</svg>
