<?xml version="1.0" encoding="UTF-8" standalone="no"?>
<svg
   xmlns:dc="http://purl.org/dc/elements/1.1/"
   xmlns:cc="http://creativecommons.org/ns#"
   xmlns:rdf="http://www.w3.org/1999/02/22-rdf-syntax-ns#"
   xmlns:svg="http://www.w3.org/2000/svg"
   xmlns="http://www.w3.org/2000/svg"
   id="svg17"
   height="89.669998mm"
   width="120.11mm"
   version="1.0">
  <metadata
     id="metadata21">
    <rdf:RDF>
      <cc:Work
         rdf:about="">
        <dc:format>image/svg+xml</dc:format>
        <dc:type
           rdf:resource="http://purl.org/dc/dcmitype/StillImage" />
      </cc:Work>
    </rdf:RDF>
  </metadata>
  <defs
     id="defs3">
    <pattern
       y="0"
       x="0"
       height="6"
       width="6"
       patternUnits="userSpaceOnUse"
       id="EMFhbasepattern" />
  </defs>
  <path
     id="path5"
     d="  M 54.345381,54.345381   L 54.345381,284.51405   L 399.59839,284.51405   L 399.59839,54.345381   L 54.345381,54.345381   z "
     style="fill:#80e0ff;fill-rule:evenodd;fill-opacity:1;stroke:none;" />
  <path
     id="path7"
     d="  M 54.345381,54.345381   L 399.59839,54.345381   L 399.59839,284.51405   L 54.345381,284.51405   z "
     style="fill:none;stroke:#000000;stroke-width:9.5903616px;stroke-linecap:butt;stroke-linejoin:miter;stroke-miterlimit:10;stroke-dasharray:none;stroke-opacity:1;" />
  <path
     id="path9"
     d="  M 131.06827,193.40562   L 322.8755,193.40562  "
     style="fill:none;stroke:#000000;stroke-width:9.5903616px;stroke-linecap:butt;stroke-linejoin:miter;stroke-miterlimit:10;stroke-dasharray:none;stroke-opacity:1;" />
  <path
     id="path11"
     d="  M 313.28514,212.58634   C 313.28514,223.21566 304.73373,231.76706 294.10441,231.76706   C 283.51506,231.76706 274.92369,223.21566 274.92369,212.58634   C 274.92369,201.99699 283.51506,193.40562 294.10441,193.40562   C 304.73373,193.40562 313.28514,201.99699 313.28514,212.58634  "
     style="fill:none;stroke:#000000;stroke-width:9.5903616px;stroke-linecap:butt;stroke-linejoin:miter;stroke-miterlimit:10;stroke-dasharray:none;stroke-opacity:1;" />
  <path
     id="path13"
     d="  M 179.02008,212.58634   C 179.02008,223.21566 170.46867,231.76706 159.83936,231.76706   C 149.25,231.76706 140.65863,223.21566 140.65863,212.58634   C 140.65863,201.99699 149.25,193.40562 159.83936,193.40562   C 170.46867,193.40562 179.02008,201.99699 179.02008,212.58634  "
     style="fill:none;stroke:#000000;stroke-width:9.5903616px;stroke-linecap:butt;stroke-linejoin:miter;stroke-miterlimit:10;stroke-dasharray:none;stroke-opacity:1;" />
  <path
     id="path15"
     d="  M 138.18112,187.05201   L 138.18112,139.02028   L 154.7245,139.02028   C 158.48072,139.02028 161.31787,139.26004 163.2759,139.6996   C 166.03313,140.33895 168.39076,141.49779 170.34879,143.13614   C 172.86626,145.29397 174.78433,148.01124 176.02309,151.36787   C 177.3018,154.68454 177.9012,158.48072 177.9012,162.75642   C 177.9012,166.43273 177.5016,169.66948 176.62249,172.46666   C 175.78333,175.30381 174.70442,177.62148 173.34578,179.45964   C 172.02711,181.33775 170.54859,182.7763 168.99016,183.85522   C 167.39176,184.89417 165.47369,185.69337 163.23594,186.25281   C 160.99819,186.81225 158.44076,187.05201 155.52369,187.05201   z  M 144.53474,181.37771   L 154.80442,181.37771   C 157.96124,181.37771 160.43875,181.09799 162.27691,180.49859   C 164.0751,179.93915 165.51365,179.1 166.55261,178.02108   C 168.07108,176.50261 169.26988,174.50462 170.10903,171.94719   C 170.94819,169.38976 171.34779,166.31285 171.34779,162.6765   C 171.34779,157.64156 170.54859,153.80542 168.87028,151.08815   C 167.23193,148.41084 165.23393,146.57269 162.8763,145.65361   C 161.15803,145.01425 158.44076,144.69458 154.64458,144.69458   L 144.53474,144.69458   z  M 186.77229,187.05201   L 186.77229,139.02028   L 208.07088,139.02028   C 212.34658,139.02028 215.62329,139.45984 217.82108,140.29899   C 220.05883,141.17811 221.85702,142.69658 223.1757,144.89438   C 224.53433,147.05221 225.17369,149.48976 225.17369,152.12711   C 225.17369,155.52369 224.09478,158.4008 221.85702,160.75843   C 219.65923,163.0761 216.26265,164.55462 211.62731,165.19397   C 213.34558,165.99317 214.62429,166.79237 215.46345,167.59156   C 217.34156,169.30984 219.0998,171.42771 220.73815,173.98514   L 229.12972,187.05201   L 221.09779,187.05201   L 214.74417,177.06205   C 212.90602,174.18494 211.38755,171.98715 210.14879,170.42871   C 208.95,168.91024 207.87108,167.83132 206.95201,167.23193   C 205.99297,166.63253 205.03393,166.19297 204.03494,165.95321   C 203.31566,165.79337 202.15682,165.71345 200.47851,165.71345   L 193.1259,165.71345   L 193.1259,187.05201   z  M 193.1259,160.19899   L 206.79217,160.19899   C 209.70923,160.23895 211.98694,159.91927 213.6253,159.31988   C 215.26365,158.72048 216.50241,157.76144 217.34156,156.44277   C 218.18072,155.12409 218.62028,153.68554 218.62028,152.12711   C 218.62028,149.8494 217.82108,147.97128 216.14277,146.53273   C 214.50441,145.05421 211.90703,144.33494 208.3506,144.33494   L 193.1259,144.33494   z  M 266.69196,139.02028   L 273.04558,139.02028   L 273.04558,166.79237   C 273.04558,171.58755 272.48614,175.42369 271.40722,178.3008   C 270.32831,181.13795 268.33032,183.41566 265.49317,185.21385   C 262.61606,187.01205 258.8998,187.89116 254.26445,187.89116   C 249.74899,187.89116 246.07269,187.09197 243.19558,185.57349   C 240.35843,184.01506 238.32048,181.77731 237.08172,178.82028   C 235.84297,175.90321 235.24357,171.86727 235.24357,166.79237   L 235.24357,139.02028   L 241.59719,139.02028   L 241.59719,166.75241   C 241.59719,170.90823 241.99678,173.98514 242.75602,175.98313   C 243.55522,177.94116 244.87389,179.45964 246.752,180.53855   C 248.67008,181.61747 250.98775,182.13695 253.70502,182.13695   C 258.38032,182.13695 261.69698,181.09799 263.69498,178.98012   C 265.69297,176.86225 266.69196,172.78634 266.69196,166.75241   z  M 306.13232,168.23092   L 306.13232,162.59658   L 326.47188,162.55662   L 326.47188,180.37871   C 323.35502,182.85622 320.11827,184.73433 316.8016,186.01305   C 313.48494,187.2518 310.08835,187.89116 306.57188,187.89116   C 301.85662,187.89116 297.58092,186.89217 293.70482,184.85421   C 289.86867,182.81626 286.9516,179.89919 284.95361,176.10301   C 282.99558,172.26686 282.03654,167.99116 282.03654,163.2759   C 282.03654,158.6006 282.99558,154.24498 284.95361,150.16907   C 286.91164,146.13313 289.70883,143.09618 293.38514,141.13815   C 297.06144,139.18012 301.29718,138.18112 306.09237,138.18112   C 309.56887,138.18112 312.68574,138.74056 315.52289,139.8994   C 318.32008,141.01827 320.51787,142.5767 322.11626,144.5747   C 323.71465,146.61265 324.91345,149.21004 325.75261,152.44678   L 319.99839,154.00522   C 319.27911,151.56767 318.4,149.6496 317.32108,148.251   C 316.24216,146.85241 314.72369,145.73353 312.7257,144.89438   C 310.76767,144.05522 308.52992,143.61566 306.13232,143.61566   C 303.21526,143.61566 300.69779,144.09518 298.57992,144.9743   C 296.46204,145.85341 294.74377,147.01225 293.4251,148.4508   C 292.14638,149.88936 291.14739,151.48775 290.42811,153.20602   C 289.18935,156.16305 288.58996,159.3998 288.58996,162.8763   C 288.58996,167.15201 289.30923,170.74839 290.78775,173.6255   C 292.26626,176.50261 294.42409,178.66044 297.22128,180.05903   C 300.05843,181.45763 303.05542,182.13695 306.21224,182.13695   C 308.96947,182.13695 311.64678,181.61747 314.28413,180.57851   C 316.88152,179.4996 318.87951,178.38072 320.23815,177.18193   L 320.23815,168.23092   z "
     style="fill:#000000;fill-rule:evenodd;fill-opacity:1;stroke:none;" />
</svg>
