<?xml version="1.0" encoding="UTF-8" standalone="no"?>
<svg
   xmlns:dc="http://purl.org/dc/elements/1.1/"
   xmlns:cc="http://creativecommons.org/ns#"
   xmlns:rdf="http://www.w3.org/1999/02/22-rdf-syntax-ns#"
   xmlns:svg="http://www.w3.org/2000/svg"
   xmlns="http://www.w3.org/2000/svg"
   id="svg29"
   height="112.9mm"
   width="112.9mm"
   version="1.0">
  <metadata
     id="metadata33">
    <rdf:RDF>
      <cc:Work
         rdf:about="">
        <dc:format>image/svg+xml</dc:format>
        <dc:type
           rdf:resource="http://purl.org/dc/dcmitype/StillImage" />
      </cc:Work>
    </rdf:RDF>
  </metadata>
  <defs
     id="defs3">
    <pattern
       y="0"
       x="0"
       height="6"
       width="6"
       patternUnits="userSpaceOnUse"
       id="EMFhbasepattern" />
  </defs>
  <path
     id="path5"
     d="  M 303.64432,474.95135   L 603.17373,474.95135   L 603.17373,670.83527   L 303.64432,670.83527   L 303.64432,474.95135   z "
     style="fill:none;stroke:#000000;stroke-width:3.7016244px;stroke-linecap:butt;stroke-linejoin:miter;stroke-miterlimit:112;stroke-dasharray:none;stroke-opacity:1;" />
  <path
     id="path7"
     d="  M 389.46157,571.98679   C 389.46157,585.35797 378.6211,596.23621 365.21216,596.23621   C 351.84098,596.23621 340.96274,585.35797 340.96274,571.98679   C 340.96274,558.57785 351.84098,547.73737 365.21216,547.73737   C 378.6211,547.73737 389.46157,558.57785 389.46157,571.98679   z "
     style="fill:none;stroke:#000000;stroke-width:3.7016244px;stroke-linecap:butt;stroke-linejoin:miter;stroke-miterlimit:112;stroke-dasharray:none;stroke-opacity:1;" />
  <path
     id="path9"
     d="  M 482.75762,571.98679   C 482.75762,585.35797 471.87938,596.23621 458.5082,596.23621   C 445.09926,596.23621 434.25878,585.35797 434.25878,571.98679   C 434.25878,558.57785 445.09926,547.73737 458.5082,547.73737   C 471.87938,547.73737 482.75762,558.57785 482.75762,571.98679   z "
     style="fill:none;stroke:#000000;stroke-width:3.7016244px;stroke-linecap:butt;stroke-linejoin:miter;stroke-miterlimit:112;stroke-dasharray:none;stroke-opacity:1;" />
  <path
     id="path11"
     d="  M 568.57487,571.98679   C 568.57487,585.35797 557.69663,596.23621 544.32546,596.23621   C 530.91651,596.23621 520.07604,585.35797 520.07604,571.98679   C 520.07604,558.57785 530.91651,547.73737 544.32546,547.73737   C 557.69663,547.73737 568.57487,558.57785 568.57487,571.98679   z "
     style="fill:none;stroke:#000000;stroke-width:3.7016244px;stroke-linecap:butt;stroke-linejoin:miter;stroke-miterlimit:112;stroke-dasharray:none;stroke-opacity:1;" />
  <path
     id="path13"
     d="  M 303.64432,473.10054   L 339.45187,434.98891   z "
     style="fill:#000000;fill-rule:nonzero;fill-opacity:1;stroke:#000000;stroke-width:3.7016244px;stroke-linecap:butt;stroke-linejoin:miter;stroke-miterlimit:112;stroke-dasharray:none;stroke-opacity:1;" />
  <path
     id="path15"
     d="  M 345.91083,427.85007   L 381.86947,389.51181   z "
     style="fill:#000000;fill-rule:nonzero;fill-opacity:1;stroke:#000000;stroke-width:3.7016244px;stroke-linecap:butt;stroke-linejoin:miter;stroke-miterlimit:112;stroke-dasharray:none;stroke-opacity:1;" />
  <path
     id="path17"
     d="  M 391.6901,378.55803   L 422.54956,346.64096   z "
     style="fill:#000000;fill-rule:nonzero;fill-opacity:1;stroke:#000000;stroke-width:3.7016244px;stroke-linecap:butt;stroke-linejoin:miter;stroke-miterlimit:112;stroke-dasharray:none;stroke-opacity:1;" />
  <path
     id="path19"
     d="  M 432.48352,335.46054   L 462.36091,304.11005   z "
     style="fill:#000000;fill-rule:nonzero;fill-opacity:1;stroke:#000000;stroke-width:3.7016244px;stroke-linecap:butt;stroke-linejoin:miter;stroke-miterlimit:112;stroke-dasharray:none;stroke-opacity:1;" />
  <path
     id="path21"
     d="  M 460.39679,304.7144   L 486.49702,335.04505   z "
     style="fill:#000000;fill-rule:nonzero;fill-opacity:1;stroke:#000000;stroke-width:3.7016244px;stroke-linecap:butt;stroke-linejoin:miter;stroke-miterlimit:112;stroke-dasharray:none;stroke-opacity:1;" />
  <path
     id="path23"
     d="  M 495.22227,345.6589   L 520.64261,376.17841   z "
     style="fill:#000000;fill-rule:nonzero;fill-opacity:1;stroke:#000000;stroke-width:3.7016244px;stroke-linecap:butt;stroke-linejoin:miter;stroke-miterlimit:112;stroke-dasharray:none;stroke-opacity:1;" />
  <path
     id="path25"
     d="  M 530.46325,387.43437   L 559.96293,422.71312   z "
     style="fill:#000000;fill-rule:nonzero;fill-opacity:1;stroke:#000000;stroke-width:3.7016244px;stroke-linecap:butt;stroke-linejoin:miter;stroke-miterlimit:112;stroke-dasharray:none;stroke-opacity:1;" />
  <path
     id="path27"
     d="  M 572.2765,437.6707   L 603.7403,474.64918   z "
     style="fill:#000000;fill-rule:nonzero;fill-opacity:1;stroke:#000000;stroke-width:3.7016244px;stroke-linecap:butt;stroke-linejoin:miter;stroke-miterlimit:112;stroke-dasharray:none;stroke-opacity:1;" />
</svg>
