<?xml version="1.0" encoding="UTF-8" standalone="no"?>
<svg
   xmlns:dc="http://purl.org/dc/elements/1.1/"
   xmlns:cc="http://creativecommons.org/ns#"
   xmlns:rdf="http://www.w3.org/1999/02/22-rdf-syntax-ns#"
   xmlns:svg="http://www.w3.org/2000/svg"
   xmlns="http://www.w3.org/2000/svg"
   id="svg7"
   height="112.67mm"
   width="66.830002mm"
   version="1.0">
  <metadata
     id="metadata11">
    <rdf:RDF>
      <cc:Work
         rdf:about="">
        <dc:format>image/svg+xml</dc:format>
        <dc:type
           rdf:resource="http://purl.org/dc/dcmitype/StillImage" />
      </cc:Work>
    </rdf:RDF>
  </metadata>
  <defs
     id="defs3">
    <pattern
       y="0"
       x="0"
       height="6"
       width="6"
       patternUnits="userSpaceOnUse"
       id="EMFhbasepattern" />
  </defs>
  <path
     id="path5"
     d="  M 198.2008,83.436143   C 198.2008,64.255421 169.42972,54.665059 150.24899,54.665059   C 111.88755,54.665059 54.345381,88.231324 54.345381,126.59277   C 54.345381,164.95421 111.88755,198.52048 150.24899,198.52048   C 169.42972,198.52048 198.2008,188.93012 198.2008,169.7494   C 198.2008,150.56867 169.42972,140.97831 150.24899,140.97831   C 111.88755,140.97831 54.345381,174.54458 54.345381,212.90602   C 54.345381,251.26747 111.88755,284.83373 150.24899,284.83373   C 169.42972,284.83373 198.2008,275.24337 198.2008,256.06265   C 198.2008,236.88192 169.42972,227.29156 150.24899,227.29156   C 111.88755,227.29156 54.345381,260.85783 54.345381,299.21927   C 54.345381,337.58072 111.88755,371.14698 150.24899,371.14698   C 169.42972,371.14698 198.2008,361.55662 198.2008,342.3759  "
     style="fill:none;stroke:#ad694a;stroke-width:9.5903616px;stroke-linecap:butt;stroke-linejoin:miter;stroke-miterlimit:10;stroke-dasharray:none;stroke-opacity:1;" />
</svg>
