<?xml version="1.0" encoding="UTF-8" standalone="no"?>
<svg
   xmlns:dc="http://purl.org/dc/elements/1.1/"
   xmlns:cc="http://creativecommons.org/ns#"
   xmlns:rdf="http://www.w3.org/1999/02/22-rdf-syntax-ns#"
   xmlns:svg="http://www.w3.org/2000/svg"
   xmlns="http://www.w3.org/2000/svg"
   id="svg13"
   height="48.560001mm"
   width="50.09mm"
   version="1.0">
  <metadata
     id="metadata17">
    <rdf:RDF>
      <cc:Work
         rdf:about="">
        <dc:format>image/svg+xml</dc:format>
        <dc:type
           rdf:resource="http://purl.org/dc/dcmitype/StillImage" />
      </cc:Work>
    </rdf:RDF>
  </metadata>
  <defs
     id="defs3">
    <pattern
       y="0"
       x="0"
       height="6"
       width="6"
       patternUnits="userSpaceOnUse"
       id="EMFhbasepattern" />
  </defs>
  <path
     id="path5"
     d="  M 74.565059,91.268272   L 74.565059,91.867669   C 74.565059,100.85863 82.916665,110.40903 91.388151,110.40903   L 95.464055,110.40903   C 104.81466,110.40903 112.84658,101.05843 112.84658,91.867669   C 112.84658,82.357228 104.49498,72.726907 96.023493,72.726907   L 91.947589,72.726907   C 83.476103,72.726907 74.565059,82.357228 74.565059,91.268272   z "
     style="fill:#000000;fill-rule:evenodd;fill-opacity:1;stroke:none;" />
  <path
     id="path7"
     d="  M 93.106424,126.63273   C 72.846786,126.63273 60.698995,111.12831 58.661043,92.067469   C 56.822891,74.644979 74.844778,57.06265 91.947589,57.06265   L 96.023493,57.06265   C 113.64578,57.06265 128.51084,73.526103 128.51084,91.867669   C 128.51084,110.28916 113.48594,126.63273 95.464055,126.63273   z  M 48.471284,91.268272   C 48.471284,118.92048 67.572087,134.58474 92.586946,137.62168   C 107.41205,139.41988 117.16225,130.54879 125.03434,124.91446   C 131.74759,120.07932 138.94036,105.13434 138.94036,93.026505   L 138.94036,91.268272   C 138.94036,66.413252 119.16024,46.633132 94.30522,46.633132   L 92.546987,46.633132   C 68.730923,46.633132 48.471284,67.332328 48.471284,91.268272   z "
     style="fill:#000000;fill-rule:evenodd;fill-opacity:1;stroke:none;" />
  <path
     id="path9"
     d="  M 89.629918,155.64357   C 56.94277,155.64357 30.489357,124.35502 29.290562,91.268272   C 28.171686,59.58012 59.180521,28.051807 90.229316,28.051807   L 97.182328,28.051807   C 127.79156,28.051807 157.48172,57.821887 157.48172,88.351204   L 157.48172,94.18534   C 157.48172,124.79458 127.83152,155.64357 97.182328,155.64357   z  M 24.69518,91.268272   C 24.69518,112.24719 33.646184,129.58976 43.955823,140.41887   C 49.430321,146.17309 56.423292,150.88835 63.935742,154.68454   C 74.085541,159.7994 79.2004,159.31988 91.508031,161.31787   C 98.540962,162.4767 115.60381,158.201 120.1992,156.04317   C 131.26807,150.80843 132.18715,148.93032 140.89839,142.53674   C 151.04819,135.06426 162.71646,113.1263 162.71646,95.344175   L 162.71646,87.192368   C 162.71646,54.4253 130.06928,22.857028 97.182328,22.857028   L 89.629918,22.857028   C 54.944778,22.857028 24.69518,55.424296 24.69518,91.268272   z "
     style="fill:#000000;fill-rule:evenodd;fill-opacity:1;stroke:none;" />
  <path
     id="path11"
     d="  M 4.3955823,91.268272   C 4.3955823,65.374296 16.223695,42.757027 29.170682,29.6502   C 41.278513,17.38253 64.575099,2.5574297 88.471083,2.5574297   L 98.341163,2.5574297   C 110.00944,2.5574297 123.59578,7.0329316 131.58775,11.028916   C 143.53574,17.022891 146.85241,20.539357 156.44277,27.931927   C 167.5516,36.523293 183.01606,64.894778 183.01606,84.874698   L 183.01606,97.661846   C 183.01606,139.33996 141.05823,180.57851 98.940561,180.57851   L 87.911645,180.57851   C 63.296385,180.57851 41.478313,165.67349 28.890963,153.16606   C 15.904016,140.29899 4.3955823,117.08233 4.3955823,91.268272   z  M 98.940561,183.49558   C 124.71466,183.49558 146.81245,168.3508 159.95923,155.20401   C 176.10301,139.06024 183.65542,121.91747 185.65341,91.66787   C 188.69036,45.634136 143.09618,0.23975903 98.940561,0.23975903   L 87.312248,0.23975903   C 62.776907,0.23975903 39.120682,16.183735 26.892971,29.090763   C 19.580321,36.803012 13.346586,45.154618 8.8311244,55.704015   C 6.0339357,62.337348 0.39959839,82.676906 1.5184739,92.387147   C 3.3166666,107.73173 3.7562248,117.32209 9.6303211,128.9504   C 14.94498,139.57972 19.220682,147.21205 27.132731,155.52369   C 39.200602,168.151 63.616063,183.49558 87.911645,183.49558   z "
     style="fill:#000000;fill-rule:evenodd;fill-opacity:1;stroke:none;" />
</svg>
