<?xml version="1.0" encoding="UTF-8" standalone="no"?>
<svg
   xmlns:dc="http://purl.org/dc/elements/1.1/"
   xmlns:cc="http://creativecommons.org/ns#"
   xmlns:rdf="http://www.w3.org/1999/02/22-rdf-syntax-ns#"
   xmlns:svg="http://www.w3.org/2000/svg"
   xmlns="http://www.w3.org/2000/svg"
   id="svg15"
   height="116.73mm"
   width="116.73mm"
   version="1.0">
  <metadata
     id="metadata19">
    <rdf:RDF>
      <cc:Work
         rdf:about="">
        <dc:format>image/svg+xml</dc:format>
        <dc:type
           rdf:resource="http://purl.org/dc/dcmitype/StillImage" />
      </cc:Work>
    </rdf:RDF>
  </metadata>
  <defs
     id="defs3">
    <pattern
       y="0"
       x="0"
       height="6"
       width="6"
       patternUnits="userSpaceOnUse"
       id="EMFhbasepattern" />
  </defs>
  <path
     id="path5"
     d="  M 172.6265,43.156626   L 172.6265,100.69879   L 268.53012,100.69879   L 268.53012,43.156626   L 172.6265,43.156626   z "
     style="fill:#000000;fill-rule:evenodd;fill-opacity:1;stroke:none;" />
  <path
     id="path7"
     d="  M 220.57831,386.49156   L 220.57831,386.49156   L 386.49156,220.57831   L 220.57831,54.665059   L 54.665059,220.57831   L 220.57831,386.49156   z "
     style="fill:#ff8080;fill-rule:evenodd;fill-opacity:1;stroke:none;" />
  <path
     id="path9"
     d="  M 220.57831,386.49156   L 220.57831,386.49156   L 386.49156,220.57831   L 220.57831,54.665059   L 54.665059,220.57831   L 220.57831,386.49156  "
     style="fill:none;stroke:#000000;stroke-width:9.5903616px;stroke-linecap:butt;stroke-linejoin:miter;stroke-miterlimit:10;stroke-dasharray:none;stroke-opacity:1;" />
  <path
     id="path11"
     d="  M 216.86205,242.83594   L 181.41767,242.83594   L 181.41767,318.71967   L 258.14056,318.71967   L 258.14056,242.83594   L 222.69618,242.83594   L 222.69618,214.46445   C 222.69618,212.94598 238.32048,207.23172 240.75803,206.27269   C 243.91486,204.99397 257.38132,199.07992 259.81887,199.03996   C 259.13955,198.12088 224.61425,184.01506 222.29658,184.01506   L 216.86205,184.01506   z "
     style="fill:#000000;fill-rule:evenodd;fill-opacity:1;stroke:none;" />
  <path
     id="path13"
     d="  M 177.7014,165.99317   L 177.7014,130.30903   L 201.79719,130.30903   L 201.79719,134.50482   L 182.41666,134.50482   L 182.41666,145.57369   L 199.15984,145.57369   L 199.15984,149.76948   L 182.41666,149.76948   L 182.41666,165.99317   z  M 203.99498,165.99317   L 217.7012,130.30903   L 222.7761,130.30903   L 237.4014,165.99317   L 232.00682,165.99317   L 227.851,155.20401   L 212.94598,155.20401   L 208.98996,165.99317   z  M 214.30462,151.32791   L 226.41245,151.32791   L 222.65622,141.45783   C 221.53735,138.46084 220.69819,135.98333 220.13875,134.06526   C 219.69919,136.34297 219.05984,138.62068 218.22068,140.85843   z  M 266.652,153.48574   L 271.36727,154.68454   C 270.36827,158.56064 268.61004,161.51767 266.01265,163.55562   C 263.45522,165.59357 260.29839,166.59257 256.58212,166.59257   C 252.74598,166.59257 249.62911,165.83333 247.19156,164.2749   C 244.79397,162.71646 242.95582,160.43875 241.71706,157.44176   C 240.43835,154.48474 239.79899,151.28795 239.79899,147.89136   C 239.79899,144.1751 240.51827,140.93835 241.95682,138.14116   C 243.35542,135.38393 245.39337,133.30602 247.99076,131.86747   C 250.62811,130.42891 253.50522,129.70964 256.66204,129.70964   C 260.21847,129.70964 263.25542,130.58875 265.69297,132.42691   C 268.09056,134.2251 269.80883,136.78253 270.76787,140.09919   L 266.09257,141.17811   C 265.29337,138.58072 264.09457,136.70261 262.49618,135.50381   C 260.93775,134.34498 258.93976,133.74558 256.58212,133.74558   C 253.8249,133.74558 251.54719,134.38494 249.66907,135.70361   C 247.83092,137.02229 246.55221,138.78052 245.79297,141.01827   C 245.07369,143.21606 244.67409,145.49377 244.67409,147.8514   C 244.67409,150.88835 245.11365,153.56566 245.99277,155.80341   C 246.91184,158.08112 248.27048,159.75944 250.14859,160.87831   C 251.98674,161.99719 254.0247,162.55662 256.18253,162.55662   C 258.85984,162.55662 261.09759,161.79739 262.93574,160.27891   C 264.77389,158.76044 266.01265,156.48273 266.652,153.48574   z "
     style="fill:#000000;fill-rule:evenodd;fill-opacity:1;stroke:none;" />
</svg>
