<?xml version="1.0" encoding="UTF-8" standalone="no"?>
<svg
   xmlns:dc="http://purl.org/dc/elements/1.1/"
   xmlns:cc="http://creativecommons.org/ns#"
   xmlns:rdf="http://www.w3.org/1999/02/22-rdf-syntax-ns#"
   xmlns:svg="http://www.w3.org/2000/svg"
   xmlns="http://www.w3.org/2000/svg"
   id="svg15"
   height="95.75mm"
   width="95.75mm"
   version="1.0">
  <metadata
     id="metadata19">
    <rdf:RDF>
      <cc:Work
         rdf:about="">
        <dc:format>image/svg+xml</dc:format>
        <dc:type
           rdf:resource="http://purl.org/dc/dcmitype/StillImage" />
      </cc:Work>
    </rdf:RDF>
  </metadata>
  <defs
     id="defs3">
    <pattern
       y="0"
       x="0"
       height="6"
       width="6"
       patternUnits="userSpaceOnUse"
       id="EMFhbasepattern" />
  </defs>
  <path
     id="path5"
     d="  M 132.98634,15.983936   L 132.98634,54.345381   L 228.88996,54.345381   L 228.88996,15.983936   L 132.98634,15.983936   z "
     style="fill:#000000;fill-rule:evenodd;fill-opacity:1;stroke:none;" />
  <path
     id="path7"
     d="  M 54.345381,54.345381   L 54.345381,307.53092   L 307.53092,307.53092   L 307.53092,54.345381   L 54.345381,54.345381   z "
     style="fill:#aaffaa;fill-rule:evenodd;fill-opacity:1;stroke:none;" />
  <path
     id="path9"
     d="  M 54.345381,54.345381   L 307.53092,54.345381   L 307.53092,307.53092   L 54.345381,307.53092   z "
     style="fill:none;stroke:#000000;stroke-width:9.5903616px;stroke-linecap:butt;stroke-linejoin:miter;stroke-miterlimit:10;stroke-dasharray:none;stroke-opacity:1;" />
  <path
     id="path11"
     d="  M 177.22188,203.19578   L 141.77751,203.19578   L 141.77751,279.07951   L 218.5004,279.07951   L 218.5004,203.19578   L 183.05602,203.19578   L 183.05602,174.82429   C 183.05602,173.30582 198.68032,167.59156 201.11787,166.63253   C 204.2747,165.35381 217.74116,159.43976 220.17871,159.3998   C 219.49939,158.48072 184.97409,144.3749 182.65642,144.3749   L 177.22188,144.3749   z "
     style="fill:#000000;fill-rule:evenodd;fill-opacity:1;stroke:none;" />
  <path
     id="path13"
     d="  M 138.06124,126.35301   L 138.06124,90.668874   L 162.15703,90.668874   L 162.15703,94.864657   L 142.7765,94.864657   L 142.7765,105.93353   L 159.51968,105.93353   L 159.51968,110.12932   L 142.7765,110.12932   L 142.7765,126.35301   z  M 164.35482,126.35301   L 178.06104,90.668874   L 183.13594,90.668874   L 197.76124,126.35301   L 192.36666,126.35301   L 188.21084,115.56385   L 173.30582,115.56385   L 169.3498,126.35301   z  M 174.66446,111.68775   L 186.77229,111.68775   L 183.01606,101.81767   C 181.89719,98.820681 181.05803,96.343171 180.49859,94.425099   C 180.05903,96.70281 179.41968,98.980521 178.58052,101.21827   z  M 227.01184,113.84558   L 231.72711,115.04438   C 230.72811,118.92048 228.96988,121.87751 226.37249,123.91546   C 223.81506,125.95341 220.65823,126.95241 216.94196,126.95241   C 213.10582,126.95241 209.98895,126.19317 207.5514,124.63474   C 205.15381,123.0763 203.31566,120.79859 202.0769,117.8016   C 200.79819,114.84458 200.15883,111.64779 200.15883,108.2512   C 200.15883,104.53494 200.87811,101.29819 202.31666,98.501003   C 203.71526,95.743774 205.75321,93.665862 208.3506,92.227308   C 210.98795,90.788754 213.86506,90.069477 217.02188,90.069477   C 220.57831,90.069477 223.61526,90.948593 226.05281,92.786746   C 228.4504,94.584938 230.16867,97.142368 231.12771,100.45903   L 226.45241,101.53795   C 225.65321,98.940561 224.45441,97.062448 222.85602,95.863653   C 221.29759,94.704818 219.2996,94.10542 216.94196,94.10542   C 214.18474,94.10542 211.90703,94.744778 210.02891,96.063452   C 208.19076,97.382127 206.91205,99.14036 206.15281,101.37811   C 205.43353,103.5759 205.03393,105.85361 205.03393,108.21124   C 205.03393,111.24819 205.47349,113.9255 206.35261,116.16325   C 207.27168,118.44096 208.63032,120.11928 210.50843,121.23815   C 212.34658,122.35703 214.38454,122.91646 216.54237,122.91646   C 219.21968,122.91646 221.45743,122.15723 223.29558,120.63875   C 225.13373,119.12028 226.37249,116.84257 227.01184,113.84558   z "
     style="fill:#000000;fill-rule:evenodd;fill-opacity:1;stroke:none;" />
</svg>
