<?xml version="1.0" encoding="UTF-8" standalone="no"?>
<svg
   xmlns:dc="http://purl.org/dc/elements/1.1/"
   xmlns:cc="http://creativecommons.org/ns#"
   xmlns:rdf="http://www.w3.org/1999/02/22-rdf-syntax-ns#"
   xmlns:svg="http://www.w3.org/2000/svg"
   xmlns="http://www.w3.org/2000/svg"
   id="svg15"
   height="95.75mm"
   width="95.75mm"
   version="1.0">
  <metadata
     id="metadata19">
    <rdf:RDF>
      <cc:Work
         rdf:about="">
        <dc:format>image/svg+xml</dc:format>
        <dc:type
           rdf:resource="http://purl.org/dc/dcmitype/StillImage" />
      </cc:Work>
    </rdf:RDF>
  </metadata>
  <defs
     id="defs3">
    <pattern
       y="0"
       x="0"
       height="6"
       width="6"
       patternUnits="userSpaceOnUse"
       id="EMFhbasepattern" />
  </defs>
  <path
     id="path5"
     d="  M 132.98634,15.983936   L 132.98634,54.345381   L 228.88996,54.345381   L 228.88996,15.983936   L 132.98634,15.983936   z "
     style="fill:#000000;fill-rule:evenodd;fill-opacity:1;stroke:none;" />
  <path
     id="path7"
     d="  M 54.345381,54.345381   L 54.345381,307.53092   L 307.53092,307.53092   L 307.53092,54.345381   L 54.345381,54.345381   z "
     style="fill:#aaffaa;fill-rule:evenodd;fill-opacity:1;stroke:none;" />
  <path
     id="path9"
     d="  M 54.345381,54.345381   L 307.53092,54.345381   L 307.53092,307.53092   L 54.345381,307.53092   z "
     style="fill:none;stroke:#000000;stroke-width:9.5903616px;stroke-linecap:butt;stroke-linejoin:miter;stroke-miterlimit:10;stroke-dasharray:none;stroke-opacity:1;" />
  <path
     id="path11"
     d="  M 129.78956,107.8516   L 129.78956,109.41004   C 129.78956,119.63976 138.66064,128.39096 149.28996,128.39096   L 149.80944,128.39096   C 158.64056,128.39096 168.23092,119.63976 168.23092,111.52791   L 168.23092,106.25321   C 168.23092,98.660842 158.92028,89.909637 150.32891,89.909637   L 147.17209,89.909637   C 138.94036,89.909637 129.78956,99.420079 129.78956,107.8516   z "
     style="fill:#000000;fill-rule:evenodd;fill-opacity:1;stroke:none;" />
  <path
     id="path13"
     d="  M 238.32048,222.69618   C 238.32048,207.67128 243.75502,203.0759 247.59116,192.44658   C 249.86887,186.13293 251.46727,184.5745 252.0267,176.86225   C 252.4263,171.14799 254.10461,165.67349 254.10461,159.47972   L 254.10461,153.16606   C 254.10461,146.97229 248.71004,131.90743 246.11265,127.9514   C 242.99578,123.19618 234.52429,114.96446 229.96887,111.40803   C 224.61425,107.21225 217.1018,100.2992 210.18875,98.021485   C 206.59237,96.822689 186.85221,92.107428 182.9761,92.546987   L 169.26988,93.825701   L 169.30984,95.703814   C 169.30984,97.502007 174.10502,102.13735 175.10401,103.61586   C 175.10401,111.56787 177.06205,119.95944 171.94719,123.63574   C 166.51265,127.51185 165.27389,131.94739 162.83634,138.78052   C 161.99719,141.05823 160.75843,146.13313 160.39879,148.4508   C 159.99919,150.92831 159.91927,158.04116 159.31988,159.47972   C 156.76245,165.35381 153.08614,169.5496 150.32891,174.74437   L 138.22108,175.86325   C 133.06626,183.49558 127.15221,185.73333 127.15221,199   L 127.15221,262.21646   C 128.63072,262.5761 128.03132,262.73594 129.27008,262.73594   C 130.34899,262.73594 129.9494,262.53614 131.34799,262.21646   L 131.34799,196.36265   C 131.34799,194.64437 133.30602,189.20984 133.98534,187.93112   C 134.8245,188.4506 135.90341,189.48956 137.14217,189.48956   C 137.86144,189.48956 139.77952,188.69036 140.29899,188.4506   L 146.61265,190.68835   L 148.6506,189.32972   L 150.00923,195.24377   C 150.76847,195.92309 150.72851,196.36265 151.92731,196.36265   L 152.96626,196.36265   C 154.16506,196.36265 154.5247,196.00301 154.5247,194.76425   L 154.5247,193.7253   C 154.5247,191.36767 151.80743,186.53253 150.84839,184.77429   C 153.7255,178.78032 166.03313,178.38072 170.54859,170.70843   C 172.66646,167.07209 174.86425,163.6755 176.66245,159.99919   C 177.7014,157.92128 182.29678,150.12911 182.45662,149.4498   L 193.00602,149.4498   C 198.56044,149.4498 198.04096,155.52369 199.23976,159.55964   C 200.63835,164.2749 204.0749,164.4747 204.0749,170.54859   C 204.0749,177.22188 197.16184,187.17188 194.48454,192.04699   C 193.64538,193.60542 185.09397,212.94598 185.09397,213.2257   L 185.09397,217.94096   C 185.09397,225.17369 191.40763,239.87891 191.40763,244.83393   L 191.40763,250.10863   C 188.61044,250.74799 175.10401,255.94277 175.10401,258.5002   C 175.10401,259.17951 176.18293,260.09859 177.18193,260.09859   L 193.5255,260.09859   C 199.11988,260.09859 204.23474,257.58112 209.3496,257.46124   L 209.3496,250.10863   C 209.3496,248.78996 206.71225,244.95381 206.71225,241.11767   C 204.63433,238.08072 202.4765,226.852 202.4765,221.65723   C 202.4765,214.0249 205.35361,208.63032 208.39056,203.83514   C 214.46445,194.28474 209.3496,198.32068 219.33956,191.60743   L 223.69518,195.68333   C 221.33755,200.07891 218.3006,204.59437 218.3006,211.10783   L 218.3006,225.33353   L 219.33956,225.33353   L 219.33956,226.89196   C 219.33956,229.12972 231.32751,248.43032 233.04578,251.66706   C 229.40943,257.1016 216.902,255.62309 216.70221,263.7749   L 234.64417,263.7749   C 237.52128,263.7749 242.63614,261.37731 245.51325,260.41827   C 249.26947,259.17951 252.54618,257.82088 252.54618,253.26546   C 252.54618,251.6271 245.51325,242.11666 243.99478,239.67911   C 243.19558,238.36044 238.32048,225.17369 238.32048,223.73514   L 238.32048,222.69618   z "
     style="fill:#000000;fill-rule:evenodd;fill-opacity:1;stroke:none;" />
</svg>
