<?xml version="1.0" encoding="UTF-8" standalone="no"?>
<svg
   xmlns:dc="http://purl.org/dc/elements/1.1/"
   xmlns:cc="http://creativecommons.org/ns#"
   xmlns:rdf="http://www.w3.org/1999/02/22-rdf-syntax-ns#"
   xmlns:svg="http://www.w3.org/2000/svg"
   xmlns="http://www.w3.org/2000/svg"
   id="svg15"
   height="130.27mm"
   width="130.27mm"
   version="1.0">
  <metadata
     id="metadata19">
    <rdf:RDF>
      <cc:Work
         rdf:about="">
        <dc:format>image/svg+xml</dc:format>
        <dc:type
           rdf:resource="http://purl.org/dc/dcmitype/StillImage" />
      </cc:Work>
    </rdf:RDF>
  </metadata>
  <defs
     id="defs3">
    <pattern
       y="0"
       x="0"
       height="6"
       width="6"
       patternUnits="userSpaceOnUse"
       id="EMFhbasepattern" />
  </defs>
  <path
     id="path5"
     d="  M 198.2008,63.935742   L 198.2008,111.88755   L 294.10441,111.88755   L 294.10441,63.935742   L 198.2008,63.935742   z "
     style="fill:#000000;fill-rule:evenodd;fill-opacity:1;stroke:none;" />
  <path
     id="path7"
     d="  M 164.63454,327.67068   C 164.63454,437.95983 327.67068,437.95983 327.67068,327.67068   C 437.95983,327.67068 437.95983,164.63454 327.67068,164.63454   C 327.67068,54.345381 164.63454,54.345381 164.63454,164.63454   C 54.345381,164.63454 54.345381,327.67068 164.63454,327.67068   z "
     style="fill:#ffff80;fill-rule:evenodd;fill-opacity:1;stroke:none;" />
  <path
     id="path9"
     d="  M 164.63454,327.67068   C 164.63454,437.95983 327.67068,437.95983 327.67068,327.67068   C 437.95983,327.67068 437.95983,164.63454 327.67068,164.63454   C 327.67068,54.345381 164.63454,54.345381 164.63454,164.63454   C 54.345381,164.63454 54.345381,327.67068 164.63454,327.67068  "
     style="fill:none;stroke:#000000;stroke-width:9.5903616px;stroke-linecap:butt;stroke-linejoin:miter;stroke-miterlimit:10;stroke-dasharray:none;stroke-opacity:1;" />
  <path
     id="path11"
     d="  M 195.00401,173.06606   L 195.00401,174.6245   C 195.00401,184.85421 203.8751,193.60542 214.50441,193.60542   L 215.02389,193.60542   C 223.85502,193.60542 233.44538,184.85421 233.44538,176.74237   L 233.44538,171.46767   C 233.44538,163.8753 224.13474,155.12409 215.54337,155.12409   L 212.38654,155.12409   C 204.15482,155.12409 195.00401,164.63454 195.00401,173.06606   z "
     style="fill:#000000;fill-rule:evenodd;fill-opacity:1;stroke:none;" />
  <path
     id="path13"
     d="  M 303.53494,287.91064   C 303.53494,272.88574 308.96947,268.29036 312.80562,257.66104   C 315.08333,251.34739 316.68172,249.78895 317.24116,242.0767   C 317.64076,236.36245 319.31907,230.88795 319.31907,224.69417   L 319.31907,218.38052   C 319.31907,212.18674 313.92449,197.12188 311.3271,193.16586   C 308.21024,188.41064 299.73875,180.17891 295.18333,176.62249   C 289.82871,172.4267 282.31626,165.51365 275.40321,163.23594   C 271.80682,162.03715 252.06666,157.32189 248.19056,157.76144   L 234.48433,159.04016   L 234.52429,160.91827   C 234.52429,162.71646 239.31947,167.3518 240.31847,168.83032   C 240.31847,176.78233 242.2765,185.17389 237.16164,188.8502   C 231.72711,192.7263 230.48835,197.16184 228.0508,203.99498   C 227.21164,206.27269 225.97289,211.34759 225.61325,213.66526   C 225.21365,216.14277 225.13373,223.25562 224.53433,224.69417   C 221.9769,230.56827 218.3006,234.76405 215.54337,239.95883   L 203.43554,241.07771   C 198.28072,248.71004 192.36666,250.94779 192.36666,264.21445   L 192.36666,327.43092   C 193.84518,327.79056 193.24578,327.9504 194.48454,327.9504   C 195.56345,327.9504 195.16385,327.7506 196.56245,327.43092   L 196.56245,261.5771   C 196.56245,259.85883 198.52048,254.42429 199.1998,253.14558   C 200.03895,253.66506 201.11787,254.70401 202.35662,254.70401   C 203.0759,254.70401 204.99397,253.90482 205.51345,253.66506   L 211.82711,255.90281   L 213.86506,254.54417   L 215.22369,260.45823   C 215.98293,261.13755 215.94297,261.5771 217.14176,261.5771   L 218.18072,261.5771   C 219.37951,261.5771 219.73915,261.21747 219.73915,259.97871   L 219.73915,258.93976   C 219.73915,256.58212 217.02188,251.74698 216.06285,249.98875   C 218.93996,243.99478 231.24759,243.59518 235.76305,235.92289   C 237.88092,232.28654 240.07871,228.88996 241.8769,225.21365   C 242.91586,223.13574 247.51124,215.34357 247.67108,214.66425   L 258.22048,214.66425   C 263.7749,214.66425 263.25542,220.73815 264.45421,224.77409   C 265.85281,229.48935 269.28935,229.68915 269.28935,235.76305   C 269.28935,242.43634 262.3763,252.38634 259.69899,257.26144   C 258.85984,258.81988 250.30843,278.16044 250.30843,278.44016   L 250.30843,283.15542   C 250.30843,290.38815 256.62208,305.09337 256.62208,310.04839   L 256.62208,315.32309   C 253.8249,315.96245 240.31847,321.15722 240.31847,323.71465   C 240.31847,324.39397 241.39739,325.31305 242.39638,325.31305   L 258.73996,325.31305   C 264.33433,325.31305 269.44919,322.79558 274.56405,322.6757   L 274.56405,315.32309   C 274.56405,314.00441 271.9267,310.16827 271.9267,306.33212   C 269.84879,303.29518 267.69096,292.06646 267.69096,286.87168   C 267.69096,279.23935 270.56807,273.84478 273.60502,269.04959   C 279.67891,259.49919 274.56405,263.53514 284.55401,256.82188   L 288.90963,260.89779   C 286.552,265.29337 283.51506,269.80883 283.51506,276.32229   L 283.51506,290.54799   L 284.55401,290.54799   L 284.55401,292.10642   C 284.55401,294.34417 296.54196,313.64477 298.26024,316.88152   C 294.62389,322.31606 282.11646,320.83755 281.91666,328.98935   L 299.85863,328.98935   C 302.73574,328.98935 307.8506,326.59176 310.72771,325.63273   C 314.48393,324.39397 317.76064,323.03534 317.76064,318.47992   C 317.76064,316.84156 310.72771,307.33112 309.20923,304.89357   C 308.41004,303.5749 303.53494,290.38815 303.53494,288.94959   L 303.53494,287.91064   z "
     style="fill:#000000;fill-rule:evenodd;fill-opacity:1;stroke:none;" />
</svg>
