<?xml version="1.0" encoding="UTF-8" standalone="no"?>
<svg
   xmlns:dc="http://purl.org/dc/elements/1.1/"
   xmlns:cc="http://creativecommons.org/ns#"
   xmlns:rdf="http://www.w3.org/1999/02/22-rdf-syntax-ns#"
   xmlns:svg="http://www.w3.org/2000/svg"
   xmlns="http://www.w3.org/2000/svg"
   id="svg15"
   height="116.73mm"
   width="116.73mm"
   version="1.0">
  <metadata
     id="metadata19">
    <rdf:RDF>
      <cc:Work
         rdf:about="">
        <dc:format>image/svg+xml</dc:format>
        <dc:type
           rdf:resource="http://purl.org/dc/dcmitype/StillImage" />
      </cc:Work>
    </rdf:RDF>
  </metadata>
  <defs
     id="defs3">
    <pattern
       y="0"
       x="0"
       height="6"
       width="6"
       patternUnits="userSpaceOnUse"
       id="EMFhbasepattern" />
  </defs>
  <path
     id="path5"
     d="  M 172.6265,43.156626   L 172.6265,100.69879   L 268.53012,100.69879   L 268.53012,43.156626   L 172.6265,43.156626   z "
     style="fill:#000000;fill-rule:evenodd;fill-opacity:1;stroke:none;" />
  <path
     id="path7"
     d="  M 220.57831,386.49156   L 220.57831,386.49156   L 386.49156,220.57831   L 220.57831,54.665059   L 54.665059,220.57831   L 220.57831,386.49156   z "
     style="fill:#ff8080;fill-rule:evenodd;fill-opacity:1;stroke:none;" />
  <path
     id="path9"
     d="  M 220.57831,386.49156   L 220.57831,386.49156   L 386.49156,220.57831   L 220.57831,54.665059   L 54.665059,220.57831   L 220.57831,386.49156  "
     style="fill:none;stroke:#000000;stroke-width:9.5903616px;stroke-linecap:butt;stroke-linejoin:miter;stroke-miterlimit:10;stroke-dasharray:none;stroke-opacity:1;" />
  <path
     id="path11"
     d="  M 169.42972,147.49176   L 169.42972,149.0502   C 169.42972,159.27992 178.3008,168.03112 188.93012,168.03112   L 189.4496,168.03112   C 198.28072,168.03112 207.87108,159.27992 207.87108,151.16807   L 207.87108,145.89337   C 207.87108,138.301 198.56044,129.5498 189.96907,129.5498   L 186.81225,129.5498   C 178.58052,129.5498 169.42972,139.06024 169.42972,147.49176   z "
     style="fill:#000000;fill-rule:evenodd;fill-opacity:1;stroke:none;" />
  <path
     id="path13"
     d="  M 277.96064,262.33634   C 277.96064,247.31144 283.39518,242.71606 287.23132,232.08674   C 289.50903,225.77309 291.10743,224.21466 291.66686,216.50241   C 292.06646,210.78815 293.74477,205.31365 293.74477,199.11988   L 293.74477,192.80622   C 293.74477,186.61245 288.3502,171.54759 285.75281,167.59156   C 282.63594,162.83634 274.16445,154.60462 269.60903,151.04819   C 264.25441,146.85241 256.74196,139.93936 249.82891,137.66164   C 246.23253,136.46285 226.49237,131.74759 222.61626,132.18715   L 208.91004,133.46586   L 208.95,135.34397   C 208.95,137.14217 213.74518,141.77751 214.74417,143.25602   C 214.74417,151.20803 216.70221,159.5996 211.58735,163.2759   C 206.15281,167.15201 204.91405,171.58755 202.4765,178.42068   C 201.63735,180.69839 200.39859,185.77329 200.03895,188.09096   C 199.63935,190.56847 199.55943,197.68132 198.96004,199.11988   C 196.40261,204.99397 192.7263,209.18976 189.96907,214.38454   L 177.86124,215.50341   C 172.70642,223.13574 166.79237,225.37349 166.79237,238.64016   L 166.79237,301.85662   C 168.27088,302.21626 167.67148,302.3761 168.91024,302.3761   C 169.98915,302.3761 169.58956,302.1763 170.98815,301.85662   L 170.98815,236.00281   C 170.98815,234.28453 172.94618,228.85 173.6255,227.57128   C 174.46466,228.09076 175.54357,229.12972 176.78233,229.12972   C 177.5016,229.12972 179.41968,228.33052 179.93915,228.09076   L 186.25281,230.32851   L 188.29076,228.96988   L 189.64939,234.88393   C 190.40863,235.56325 190.36867,236.00281 191.56747,236.00281   L 192.60642,236.00281   C 193.80522,236.00281 194.16486,235.64317 194.16486,234.40441   L 194.16486,233.36546   C 194.16486,231.00783 191.44759,226.17269 190.48855,224.41445   C 193.36566,218.42048 205.67329,218.02088 210.18875,210.34859   C 212.30662,206.71225 214.50441,203.31566 216.30261,199.63935   C 217.34156,197.56144 221.93694,189.76927 222.09678,189.08996   L 232.64618,189.08996   C 238.2006,189.08996 237.68112,195.16385 238.87992,199.1998   C 240.27851,203.91506 243.71506,204.11486 243.71506,210.18875   C 243.71506,216.86205 236.802,226.81204 234.1247,231.68715   C 233.28554,233.24558 224.73413,252.58614 224.73413,252.86586   L 224.73413,257.58112   C 224.73413,264.81385 231.04779,279.51907 231.04779,284.47409   L 231.04779,289.74879   C 228.2506,290.38815 214.74417,295.58293 214.74417,298.14036   C 214.74417,298.81967 215.82309,299.73875 216.82209,299.73875   L 233.16566,299.73875   C 238.76004,299.73875 243.8749,297.22128 248.98976,297.1014   L 248.98976,289.74879   C 248.98976,288.43012 246.35241,284.59397 246.35241,280.75783   C 244.27449,277.72088 242.11666,266.49216 242.11666,261.29739   C 242.11666,253.66506 244.99377,248.27048 248.03072,243.4753   C 254.10461,233.9249 248.98976,237.96084 258.97972,231.24759   L 263.33534,235.32349   C 260.97771,239.71907 257.94076,244.23453 257.94076,250.74799   L 257.94076,264.97369   L 258.97972,264.97369   L 258.97972,266.53212   C 258.97972,268.76988 270.96767,288.07048 272.68594,291.30722   C 269.04959,296.74176 256.54216,295.26325 256.34237,303.41506   L 274.28433,303.41506   C 277.16144,303.41506 282.2763,301.01747 285.15341,300.05843   C 288.90963,298.81967 292.18634,297.46104 292.18634,292.90562   C 292.18634,291.26726 285.15341,281.75682 283.63494,279.31927   C 282.83574,278.0006 277.96064,264.81385 277.96064,263.3753   L 277.96064,262.33634   z "
     style="fill:#000000;fill-rule:evenodd;fill-opacity:1;stroke:none;" />
</svg>
