<?xml version="1.0" encoding="UTF-8" standalone="no"?>
<svg
   xmlns:dc="http://purl.org/dc/elements/1.1/"
   xmlns:cc="http://creativecommons.org/ns#"
   xmlns:rdf="http://www.w3.org/1999/02/22-rdf-syntax-ns#"
   xmlns:svg="http://www.w3.org/2000/svg"
   xmlns="http://www.w3.org/2000/svg"
   id="svg15"
   height="89.669998mm"
   width="120.11mm"
   version="1.0">
  <metadata
     id="metadata19">
    <rdf:RDF>
      <cc:Work
         rdf:about="">
        <dc:format>image/svg+xml</dc:format>
        <dc:type
           rdf:resource="http://purl.org/dc/dcmitype/StillImage" />
      </cc:Work>
    </rdf:RDF>
  </metadata>
  <defs
     id="defs3">
    <pattern
       y="0"
       x="0"
       height="6"
       width="6"
       patternUnits="userSpaceOnUse"
       id="EMFhbasepattern" />
  </defs>
  <path
     id="path5"
     d="  M 179.02008,15.983936   L 179.02008,54.345381   L 274.92369,54.345381   L 274.92369,15.983936   L 179.02008,15.983936   z "
     style="fill:#000000;fill-rule:evenodd;fill-opacity:1;stroke:none;" />
  <path
     id="path7"
     d="  M 54.345381,54.345381   L 54.345381,284.51405   L 399.59839,284.51405   L 399.59839,54.345381   L 54.345381,54.345381   z "
     style="fill:#80e0ff;fill-rule:evenodd;fill-opacity:1;stroke:none;" />
  <path
     id="path9"
     d="  M 54.345381,54.345381   L 399.59839,54.345381   L 399.59839,284.51405   L 54.345381,284.51405   z "
     style="fill:none;stroke:#000000;stroke-width:9.5903616px;stroke-linecap:butt;stroke-linejoin:miter;stroke-miterlimit:10;stroke-dasharray:none;stroke-opacity:1;" />
  <path
     id="path11"
     d="  M 175.82329,96.343171   L 175.82329,97.901605   C 175.82329,108.13132 184.69437,116.88253 195.32369,116.88253   L 195.84317,116.88253   C 204.67429,116.88253 214.26466,108.13132 214.26466,100.01948   L 214.26466,94.744778   C 214.26466,87.152408 204.95401,78.401204 196.36265,78.401204   L 193.20582,78.401204   C 184.97409,78.401204 175.82329,87.911645 175.82329,96.343171   z "
     style="fill:#000000;fill-rule:evenodd;fill-opacity:1;stroke:none;" />
  <path
     id="path13"
     d="  M 284.35421,211.18775   C 284.35421,196.16285 289.78875,191.56747 293.6249,180.93815   C 295.90261,174.6245 297.501,173.06606 298.06044,165.35381   C 298.46004,159.63956 300.13835,154.16506 300.13835,147.97128   L 300.13835,141.65763   C 300.13835,135.46385 294.74377,120.39899 292.14638,116.44297   C 289.02951,111.68775 280.55803,103.45602 276.00261,99.899597   C 270.64799,95.703814 263.13554,88.790762 256.22249,86.513051   C 252.6261,85.314256 232.88594,80.598995 229.00984,81.038553   L 215.30361,82.317268   L 215.34357,84.19538   C 215.34357,85.993573 220.13875,90.628914 221.13775,92.107428   C 221.13775,100.05944 223.09578,108.451 217.98092,112.12731   C 212.54638,116.00341 211.30763,120.43895 208.87008,127.27209   C 208.03092,129.5498 206.79217,134.6247 206.43253,136.94237   C 206.03293,139.41988 205.95301,146.53273 205.35361,147.97128   C 202.79618,153.84538 199.11988,158.04116 196.36265,163.23594   L 184.25482,164.35482   C 179.1,171.98715 173.18594,174.2249 173.18594,187.49156   L 173.18594,250.70803   C 174.66446,251.06767 174.06506,251.22751 175.30381,251.22751   C 176.38273,251.22751 175.98313,251.02771 177.38172,250.70803   L 177.38172,184.85421   C 177.38172,183.13594 179.33976,177.7014 180.01907,176.42269   C 180.85823,176.94217 181.93715,177.98112 183.1759,177.98112   C 183.89518,177.98112 185.81325,177.18193 186.33273,176.94217   L 192.64638,179.17992   L 194.68433,177.82128   L 196.04297,183.73534   C 196.80221,184.41466 196.76225,184.85421 197.96104,184.85421   L 199,184.85421   C 200.19879,184.85421 200.55843,184.49458 200.55843,183.25582   L 200.55843,182.21686   C 200.55843,179.85923 197.84116,175.02409 196.88213,173.26586   C 199.75923,167.27189 212.06686,166.87229 216.58233,159.2   C 218.7002,155.56365 220.89799,152.16707 222.69618,148.49076   C 223.73514,146.41285 228.33052,138.62068 228.49036,137.94136   L 239.03976,137.94136   C 244.59417,137.94136 244.0747,144.01526 245.27349,148.0512   C 246.67208,152.76646 250.10863,152.96626 250.10863,159.04016   C 250.10863,165.71345 243.19558,175.66345 240.51827,180.53855   C 239.67911,182.09699 231.12771,201.43755 231.12771,201.71727   L 231.12771,206.43253   C 231.12771,213.66526 237.44136,228.37048 237.44136,233.3255   L 237.44136,238.6002   C 234.64417,239.23955 221.13775,244.43433 221.13775,246.99176   C 221.13775,247.67108 222.21666,248.59016 223.21566,248.59016   L 239.55923,248.59016   C 245.15361,248.59016 250.26847,246.07269 255.38333,245.95281   L 255.38333,238.6002   C 255.38333,237.28152 252.74598,233.44538 252.74598,229.60923   C 250.66807,226.57229 248.51024,215.34357 248.51024,210.14879   C 248.51024,202.51646 251.38735,197.12188 254.42429,192.3267   C 260.49819,182.7763 255.38333,186.81225 265.37329,180.09899   L 269.72891,184.1749   C 267.37128,188.57048 264.33433,193.08594 264.33433,199.59939   L 264.33433,213.8251   L 265.37329,213.8251   L 265.37329,215.38353   C 265.37329,217.62128 277.36124,236.92188 279.07951,240.15863   C 275.44317,245.59317 262.93574,244.11466 262.73594,252.26646   L 280.67791,252.26646   C 283.55502,252.26646 288.66988,249.86887 291.54698,248.90984   C 295.30321,247.67108 298.57992,246.31245 298.57992,241.75702   C 298.57992,240.11867 291.54698,230.60823 290.02851,228.17068   C 289.22931,226.852 284.35421,213.66526 284.35421,212.2267   L 284.35421,211.18775   z "
     style="fill:#000000;fill-rule:evenodd;fill-opacity:1;stroke:none;" />
</svg>
