<?xml version="1.0" encoding="UTF-8" standalone="no"?>
<svg
   xmlns:dc="http://purl.org/dc/elements/1.1/"
   xmlns:cc="http://creativecommons.org/ns#"
   xmlns:rdf="http://www.w3.org/1999/02/22-rdf-syntax-ns#"
   xmlns:svg="http://www.w3.org/2000/svg"
   xmlns="http://www.w3.org/2000/svg"
   id="svg19"
   height="89.669998mm"
   width="120.11mm"
   version="1.0">
  <metadata
     id="metadata23">
    <rdf:RDF>
      <cc:Work
         rdf:about="">
        <dc:format>image/svg+xml</dc:format>
        <dc:type
           rdf:resource="http://purl.org/dc/dcmitype/StillImage" />
      </cc:Work>
    </rdf:RDF>
  </metadata>
  <defs
     id="defs3">
    <pattern
       y="0"
       x="0"
       height="6"
       width="6"
       patternUnits="userSpaceOnUse"
       id="EMFhbasepattern" />
  </defs>
  <path
     id="path5"
     d="  M 54.345381,54.345381   L 54.345381,284.51405   L 399.59839,284.51405   L 399.59839,54.345381   L 54.345381,54.345381   z "
     style="fill:#80e0ff;fill-rule:evenodd;fill-opacity:1;stroke:none;" />
  <path
     id="path7"
     d="  M 54.345381,54.345381   L 399.59839,54.345381   L 399.59839,284.51405   L 54.345381,284.51405   z "
     style="fill:none;stroke:#000000;stroke-width:9.5903616px;stroke-linecap:butt;stroke-linejoin:miter;stroke-miterlimit:10;stroke-dasharray:none;stroke-opacity:1;" />
  <path
     id="path9"
     d="  M 169.42972,169.42972   L 284.51405,169.42972  "
     style="fill:none;stroke:#000000;stroke-width:9.5903616px;stroke-linecap:butt;stroke-linejoin:miter;stroke-miterlimit:10;stroke-dasharray:none;stroke-opacity:1;" />
  <path
     id="path11"
     d="  M 308.48996,145.45381   C 274.92369,145.45381 274.92369,193.40562 308.48996,193.40562  "
     style="fill:none;stroke:#000000;stroke-width:9.5903616px;stroke-linecap:butt;stroke-linejoin:miter;stroke-miterlimit:10;stroke-dasharray:none;stroke-opacity:1;" />
  <path
     id="path13"
     d="  M 145.45381,145.45381   C 179.02008,145.45381 179.02008,193.40562 145.45381,193.40562  "
     style="fill:none;stroke:#000000;stroke-width:9.5903616px;stroke-linecap:butt;stroke-linejoin:miter;stroke-miterlimit:10;stroke-dasharray:none;stroke-opacity:1;" />
  <path
     id="path15"
     d="  M 188.77028,144.3749   L 188.77028,99.739758   L 221.01787,99.739758   L 221.01787,105.01446   L 194.68433,105.01446   L 194.68433,118.68072   L 219.33956,118.68072   L 219.33956,123.91546   L 194.68433,123.91546   L 194.68433,139.1002   L 222.05682,139.1002   L 222.05682,144.3749   z  M 228.41044,122.63675   C 228.41044,115.24418 230.40843,109.41004 234.40441,105.25422   C 238.36044,101.05843 243.51526,98.940561 249.78895,98.940561   C 253.90482,98.940561 257.62108,99.939557 260.93775,101.89759   C 264.25441,103.85562 266.77188,106.61285 268.49016,110.12932   C 270.24839,113.64578 271.08755,117.64177 271.08755,122.11727   C 271.08755,126.63273 270.16847,130.66867 268.37028,134.26506   C 266.53212,137.82148 263.93474,140.53875 260.61807,142.37691   C 257.26144,144.21506 253.6251,145.13413 249.74899,145.13413   C 245.55321,145.13413 241.79698,144.09518 238.52028,142.09719   C 235.20361,140.05923 232.68614,137.30201 230.96787,133.78554   C 229.28955,130.26907 228.41044,126.55281 228.41044,122.63675   z  M 234.52429,122.71666   C 234.52429,128.11124 235.96285,132.34699 238.83996,135.42389   C 241.75702,138.54076 245.35341,140.05923 249.74899,140.05923   C 254.18453,140.05923 257.82088,138.5008 260.69799,135.38393   C 263.5751,132.26707 265.01365,127.83152 265.01365,122.07731   C 265.01365,118.44096 264.41425,115.28413 263.1755,112.56687   C 261.93674,109.8496 260.13855,107.77169 257.78092,106.25321   C 255.42329,104.7747 252.78594,104.01546 249.82891,104.01546   C 245.63313,104.01546 242.03674,105.45401 239.03976,108.33112   C 236.00281,111.20823 234.52429,116.00341 234.52429,122.71666   z "
     style="fill:#000000;fill-rule:evenodd;fill-opacity:1;stroke:none;" />
  <path
     id="path17"
     d="  M 399.59839,54.345381   L 399.59839,54.345381   L 351.64658,169.42972   L 399.59839,284.51405  "
     style="fill:none;stroke:#000000;stroke-width:9.5903616px;stroke-linecap:butt;stroke-linejoin:miter;stroke-miterlimit:10;stroke-dasharray:none;stroke-opacity:1;" />
</svg>
