<?xml version="1.0" encoding="UTF-8" standalone="no"?>
<svg
   xmlns:dc="http://purl.org/dc/elements/1.1/"
   xmlns:cc="http://creativecommons.org/ns#"
   xmlns:rdf="http://www.w3.org/1999/02/22-rdf-syntax-ns#"
   xmlns:svg="http://www.w3.org/2000/svg"
   xmlns="http://www.w3.org/2000/svg"
   id="svg11"
   height="116.73mm"
   width="116.73mm"
   version="1.0">
  <metadata
     id="metadata15">
    <rdf:RDF>
      <cc:Work
         rdf:about="">
        <dc:format>image/svg+xml</dc:format>
        <dc:type
           rdf:resource="http://purl.org/dc/dcmitype/StillImage" />
      </cc:Work>
    </rdf:RDF>
  </metadata>
  <defs
     id="defs3">
    <pattern
       y="0"
       x="0"
       height="6"
       width="6"
       patternUnits="userSpaceOnUse"
       id="EMFhbasepattern" />
  </defs>
  <path
     id="path5"
     d="  M 220.57831,386.49156   L 220.57831,386.49156   L 386.49156,220.57831   L 220.57831,54.665059   L 54.665059,220.57831   L 220.57831,386.49156   z "
     style="fill:#ff8080;fill-rule:evenodd;fill-opacity:1;stroke:none;" />
  <path
     id="path7"
     d="  M 220.57831,386.49156   L 220.57831,386.49156   L 386.49156,220.57831   L 220.57831,54.665059   L 54.665059,220.57831   L 220.57831,386.49156  "
     style="fill:none;stroke:#000000;stroke-width:9.5903616px;stroke-linecap:butt;stroke-linejoin:miter;stroke-miterlimit:10;stroke-dasharray:none;stroke-opacity:1;" />
  <path
     id="path9"
     d="  M 162.19699,243.11566   L 162.19699,181.33775   L 206.87209,181.33775   L 206.87209,188.61044   L 170.38875,188.61044   L 170.38875,207.5514   L 204.55441,207.5514   L 204.55441,214.78413   L 170.38875,214.78413   L 170.38875,235.80301   L 208.31064,235.80301   L 208.31064,243.11566   z  M 230.40843,243.11566   L 214.0249,181.33775   L 222.3765,181.33775   L 231.80702,221.81707   C 232.80602,226.09277 233.68514,230.28855 234.40441,234.48433   C 235.96285,227.851 236.92188,224.05482 237.2016,223.05582   L 248.9498,181.33775   L 258.81988,181.33775   L 267.651,212.58634   C 269.88875,220.33855 271.48714,227.6512 272.44618,234.48433   C 273.24538,230.56827 274.28433,226.09277 275.52309,221.01787   L 285.23333,181.33775   L 293.46506,181.33775   L 276.52208,243.11566   L 268.61004,243.11566   L 255.62309,196.04297   C 254.50421,192.08695 253.86486,189.68935 253.66506,188.77028   C 253.0257,191.60743 252.4263,194.04498 251.86686,196.04297   L 238.76004,243.11566   z "
     style="fill:#000000;fill-rule:evenodd;fill-opacity:1;stroke:none;" />
</svg>
