<?xml version="1.0" encoding="UTF-8" standalone="no"?>
<svg
   xmlns:dc="http://purl.org/dc/elements/1.1/"
   xmlns:cc="http://creativecommons.org/ns#"
   xmlns:rdf="http://www.w3.org/1999/02/22-rdf-syntax-ns#"
   xmlns:svg="http://www.w3.org/2000/svg"
   xmlns="http://www.w3.org/2000/svg"
   id="svg17"
   height="116.73mm"
   width="116.73mm"
   version="1.0">
  <metadata
     id="metadata21">
    <rdf:RDF>
      <cc:Work
         rdf:about="">
        <dc:format>image/svg+xml</dc:format>
        <dc:type
           rdf:resource="http://purl.org/dc/dcmitype/StillImage" />
      </cc:Work>
    </rdf:RDF>
  </metadata>
  <defs
     id="defs3">
    <pattern
       y="0"
       x="0"
       height="6"
       width="6"
       patternUnits="userSpaceOnUse"
       id="EMFhbasepattern" />
  </defs>
  <path
     id="path5"
     d="  M 220.57831,386.49156   L 220.57831,386.49156   L 386.49156,220.57831   L 220.57831,54.665059   L 54.665059,220.57831   L 220.57831,386.49156   z "
     style="fill:#ff8080;fill-rule:evenodd;fill-opacity:1;stroke:none;" />
  <path
     id="path7"
     d="  M 220.57831,386.49156   L 220.57831,386.49156   L 386.49156,220.57831   L 220.57831,54.665059   L 54.665059,220.57831   L 220.57831,386.49156  "
     style="fill:none;stroke:#000000;stroke-width:9.5903616px;stroke-linecap:butt;stroke-linejoin:miter;stroke-miterlimit:10;stroke-dasharray:none;stroke-opacity:1;" />
  <path
     id="path9"
     d="  M 163.03614,220.57831   L 278.12048,220.57831  "
     style="fill:none;stroke:#000000;stroke-width:9.5903616px;stroke-linecap:butt;stroke-linejoin:miter;stroke-miterlimit:10;stroke-dasharray:none;stroke-opacity:1;" />
  <path
     id="path11"
     d="  M 302.09638,196.60241   C 268.53012,196.60241 268.53012,244.55421 302.09638,244.55421  "
     style="fill:none;stroke:#000000;stroke-width:9.5903616px;stroke-linecap:butt;stroke-linejoin:miter;stroke-miterlimit:10;stroke-dasharray:none;stroke-opacity:1;" />
  <path
     id="path13"
     d="  M 139.06024,196.60241   C 172.6265,196.60241 172.6265,244.55421 139.06024,244.55421  "
     style="fill:none;stroke:#000000;stroke-width:9.5903616px;stroke-linecap:butt;stroke-linejoin:miter;stroke-miterlimit:10;stroke-dasharray:none;stroke-opacity:1;" />
  <path
     id="path15"
     d="  M 182.3767,195.52349   L 182.3767,150.88835   L 214.62429,150.88835   L 214.62429,156.16305   L 188.29076,156.16305   L 188.29076,169.82931   L 212.94598,169.82931   L 212.94598,175.06405   L 188.29076,175.06405   L 188.29076,190.24879   L 215.66325,190.24879   L 215.66325,195.52349   z  M 222.01686,173.78534   C 222.01686,166.39277 224.01486,160.55863 228.01084,156.40281   C 231.96686,152.20703 237.12168,150.08915 243.39538,150.08915   C 247.51124,150.08915 251.22751,151.08815 254.54417,153.04618   C 257.86084,155.00421 260.37831,157.76144 262.09658,161.27791   C 263.85482,164.79438 264.69397,168.79036 264.69397,173.26586   C 264.69397,177.78132 263.7749,181.81727 261.9767,185.41365   C 260.13855,188.97008 257.54116,191.68735 254.22449,193.5255   C 250.86787,195.36365 247.23152,196.28273 243.35542,196.28273   C 239.15964,196.28273 235.40341,195.24377 232.1267,193.24578   C 228.81004,191.20783 226.29257,188.4506 224.57429,184.93413   C 222.89598,181.41767 222.01686,177.7014 222.01686,173.78534   z  M 228.13072,173.86526   C 228.13072,179.25984 229.56927,183.49558 232.44638,186.57249   C 235.36345,189.68935 238.95984,191.20783 243.35542,191.20783   C 247.79096,191.20783 251.42731,189.64939 254.30441,186.53253   C 257.18152,183.41566 258.62008,178.98012 258.62008,173.2259   C 258.62008,169.58956 258.02068,166.43273 256.78192,163.71546   C 255.54317,160.99819 253.74498,158.92028 251.38735,157.4018   C 249.02972,155.92329 246.39237,155.16405 243.43534,155.16405   C 239.23955,155.16405 235.64317,156.60261 232.64618,159.47972   C 229.60923,162.35682 228.13072,167.15201 228.13072,173.86526   z "
     style="fill:#000000;fill-rule:evenodd;fill-opacity:1;stroke:none;" />
</svg>
