<?xml version="1.0" encoding="UTF-8" standalone="no"?>
<svg
   xmlns:dc="http://purl.org/dc/elements/1.1/"
   xmlns:cc="http://creativecommons.org/ns#"
   xmlns:rdf="http://www.w3.org/1999/02/22-rdf-syntax-ns#"
   xmlns:svg="http://www.w3.org/2000/svg"
   xmlns="http://www.w3.org/2000/svg"
   id="svg15"
   height="89.669998mm"
   width="120.11mm"
   version="1.0">
  <metadata
     id="metadata19">
    <rdf:RDF>
      <cc:Work
         rdf:about="">
        <dc:format>image/svg+xml</dc:format>
        <dc:type
           rdf:resource="http://purl.org/dc/dcmitype/StillImage" />
      </cc:Work>
    </rdf:RDF>
  </metadata>
  <defs
     id="defs3">
    <pattern
       y="0"
       x="0"
       height="6"
       width="6"
       patternUnits="userSpaceOnUse"
       id="EMFhbasepattern" />
  </defs>
  <path
     id="path5"
     d="  M 54.345381,54.345381   L 54.345381,284.51405   L 399.59839,284.51405   L 399.59839,54.345381   L 54.345381,54.345381   z "
     style="fill:#80e0ff;fill-rule:evenodd;fill-opacity:1;stroke:none;" />
  <path
     id="path7"
     d="  M 54.345381,54.345381   L 399.59839,54.345381   L 399.59839,284.51405   L 54.345381,284.51405   z "
     style="fill:none;stroke:#000000;stroke-width:9.5903616px;stroke-linecap:butt;stroke-linejoin:miter;stroke-miterlimit:10;stroke-dasharray:none;stroke-opacity:1;" />
  <path
     id="path9"
     d="  M 168.59056,191.96707   L 168.59056,130.18915   L 213.26566,130.18915   L 213.26566,137.46185   L 176.78233,137.46185   L 176.78233,156.40281   L 210.94799,156.40281   L 210.94799,163.63554   L 176.78233,163.63554   L 176.78233,184.65442   L 214.70421,184.65442   L 214.70421,191.96707   z  M 236.802,191.96707   L 220.41847,130.18915   L 228.77008,130.18915   L 238.2006,170.66847   C 239.19959,174.94417 240.07871,179.13996 240.79799,183.33574   C 242.35642,176.70241 243.31546,172.90622 243.59518,171.90723   L 255.34337,130.18915   L 265.21345,130.18915   L 274.04457,161.43775   C 276.28233,169.18996 277.88072,176.50261 278.83976,183.33574   C 279.63895,179.41968 280.67791,174.94417 281.91666,169.86927   L 291.6269,130.18915   L 299.85863,130.18915   L 282.91566,191.96707   L 275.00361,191.96707   L 262.01666,144.89438   C 260.89779,140.93835 260.25843,138.54076 260.05863,137.62168   C 259.41927,140.45883 258.81988,142.89638 258.26044,144.89438   L 245.15361,191.96707   z "
     style="fill:#000000;fill-rule:evenodd;fill-opacity:1;stroke:none;" />
  <path
     id="path11"
     d="  M 54.345381,54.345381   L 54.345381,54.345381   L 102.29719,169.42972   L 54.345381,284.51405  "
     style="fill:none;stroke:#000000;stroke-width:9.5903616px;stroke-linecap:butt;stroke-linejoin:miter;stroke-miterlimit:10;stroke-dasharray:none;stroke-opacity:1;" />
  <path
     id="path13"
     d="  M 399.59839,54.345381   L 399.59839,54.345381   L 351.64658,169.42972   L 399.59839,284.51405  "
     style="fill:none;stroke:#000000;stroke-width:9.5903616px;stroke-linecap:butt;stroke-linejoin:miter;stroke-miterlimit:10;stroke-dasharray:none;stroke-opacity:1;" />
</svg>
