<?xml version="1.0" encoding="UTF-8" standalone="no"?>
<svg
   xmlns:dc="http://purl.org/dc/elements/1.1/"
   xmlns:cc="http://creativecommons.org/ns#"
   xmlns:rdf="http://www.w3.org/1999/02/22-rdf-syntax-ns#"
   xmlns:svg="http://www.w3.org/2000/svg"
   xmlns="http://www.w3.org/2000/svg"
   id="svg15"
   height="130.27mm"
   width="130.27mm"
   version="1.0">
  <metadata
     id="metadata19">
    <rdf:RDF>
      <cc:Work
         rdf:about="">
        <dc:format>image/svg+xml</dc:format>
        <dc:type
           rdf:resource="http://purl.org/dc/dcmitype/StillImage" />
      </cc:Work>
    </rdf:RDF>
  </metadata>
  <defs
     id="defs3">
    <pattern
       y="0"
       x="0"
       height="6"
       width="6"
       patternUnits="userSpaceOnUse"
       id="EMFhbasepattern" />
  </defs>
  <path
     id="path5"
     d="  M 164.63454,327.67068   C 164.63454,437.95983 327.67068,437.95983 327.67068,327.67068   C 437.95983,327.67068 437.95983,164.63454 327.67068,164.63454   C 327.67068,54.345381 164.63454,54.345381 164.63454,164.63454   C 54.345381,164.63454 54.345381,327.67068 164.63454,327.67068   z "
     style="fill:#ffff80;fill-rule:evenodd;fill-opacity:1;stroke:none;" />
  <path
     id="path7"
     d="  M 164.63454,327.67068   C 164.63454,437.95983 327.67068,437.95983 327.67068,327.67068   C 437.95983,327.67068 437.95983,164.63454 327.67068,164.63454   C 327.67068,54.345381 164.63454,54.345381 164.63454,164.63454   C 54.345381,164.63454 54.345381,327.67068 164.63454,327.67068  "
     style="fill:none;stroke:#000000;stroke-width:9.5903616px;stroke-linecap:butt;stroke-linejoin:miter;stroke-miterlimit:10;stroke-dasharray:none;stroke-opacity:1;" />
  <path
     id="path9"
     d="  M 187.77128,268.68996   L 187.77128,206.91205   L 232.44638,206.91205   L 232.44638,214.18474   L 195.96305,214.18474   L 195.96305,233.1257   L 230.12871,233.1257   L 230.12871,240.35843   L 195.96305,240.35843   L 195.96305,261.37731   L 233.88494,261.37731   L 233.88494,268.68996   z  M 255.98273,268.68996   L 239.59919,206.91205   L 247.9508,206.91205   L 257.38132,247.39136   C 258.38032,251.66706 259.25943,255.86285 259.97871,260.05863   C 261.53714,253.4253 262.49618,249.62911 262.7759,248.63012   L 274.52409,206.91205   L 284.39417,206.91205   L 293.2253,238.16064   C 295.46305,245.91285 297.06144,253.2255 298.02048,260.05863   C 298.81967,256.14257 299.85863,251.66706 301.09739,246.59217   L 310.80763,206.91205   L 319.03935,206.91205   L 302.09638,268.68996   L 294.18433,268.68996   L 281.19739,221.61727   C 280.07851,217.66124 279.43915,215.26365 279.23935,214.34458   C 278.6,217.18172 278.0006,219.61927 277.44116,221.61727   L 264.33433,268.68996   z "
     style="fill:#000000;fill-rule:evenodd;fill-opacity:1;stroke:none;" />
  <path
     id="path11"
     d="  M 102.29719,188.61044   L 102.29719,188.61044   L 140.65863,246.15261   L 102.29719,303.69477  "
     style="fill:none;stroke:#000000;stroke-width:9.5903616px;stroke-linecap:butt;stroke-linejoin:miter;stroke-miterlimit:10;stroke-dasharray:none;stroke-opacity:1;" />
  <path
     id="path13"
     d="  M 390.00803,188.61044   L 390.00803,188.61044   L 351.64658,246.15261   L 390.00803,303.69477  "
     style="fill:none;stroke:#000000;stroke-width:9.5903616px;stroke-linecap:butt;stroke-linejoin:miter;stroke-miterlimit:10;stroke-dasharray:none;stroke-opacity:1;" />
</svg>
