<?xml version="1.0" encoding="UTF-8" standalone="no"?>
<svg
   xmlns:dc="http://purl.org/dc/elements/1.1/"
   xmlns:cc="http://creativecommons.org/ns#"
   xmlns:rdf="http://www.w3.org/1999/02/22-rdf-syntax-ns#"
   xmlns:svg="http://www.w3.org/2000/svg"
   xmlns="http://www.w3.org/2000/svg"
   id="svg13"
   height="95.75mm"
   width="95.75mm"
   version="1.0">
  <metadata
     id="metadata17">
    <rdf:RDF>
      <cc:Work
         rdf:about="">
        <dc:format>image/svg+xml</dc:format>
        <dc:type
           rdf:resource="http://purl.org/dc/dcmitype/StillImage" />
      </cc:Work>
    </rdf:RDF>
  </metadata>
  <defs
     id="defs3">
    <pattern
       y="0"
       x="0"
       height="6"
       width="6"
       patternUnits="userSpaceOnUse"
       id="EMFhbasepattern" />
  </defs>
  <path
     id="path5"
     d="  M 54.345381,54.345381   L 54.345381,307.53092   L 307.53092,307.53092   L 307.53092,54.345381   L 54.345381,54.345381   z "
     style="fill:#aaffaa;fill-rule:evenodd;fill-opacity:1;stroke:none;" />
  <path
     id="path7"
     d="  M 54.345381,54.345381   L 307.53092,54.345381   L 307.53092,307.53092   L 54.345381,307.53092   z "
     style="fill:none;stroke:#000000;stroke-width:9.5903616px;stroke-linecap:butt;stroke-linejoin:miter;stroke-miterlimit:10;stroke-dasharray:none;stroke-opacity:1;" />
  <path
     id="path9"
     d="  M 122.55683,203.4755   L 122.55683,141.69759   L 167.23193,141.69759   L 167.23193,148.97028   L 130.74859,148.97028   L 130.74859,167.91124   L 164.91425,167.91124   L 164.91425,175.14397   L 130.74859,175.14397   L 130.74859,196.16285   L 168.67048,196.16285   L 168.67048,203.4755   z  M 190.76827,203.4755   L 174.38474,141.69759   L 182.73634,141.69759   L 192.16686,182.1769   C 193.16586,186.45261 194.04498,190.64839 194.76425,194.84417   C 196.32269,188.21084 197.28172,184.41466 197.56144,183.41566   L 209.30964,141.69759   L 219.17972,141.69759   L 228.01084,172.94618   C 230.24859,180.69839 231.84698,188.01104 232.80602,194.84417   C 233.60522,190.92811 234.64417,186.45261 235.88293,181.37771   L 245.59317,141.69759   L 253.8249,141.69759   L 236.88192,203.4755   L 228.96988,203.4755   L 215.98293,156.40281   C 214.86405,152.44678 214.2247,150.04919 214.0249,149.13012   C 213.38554,151.96727 212.78614,154.40482 212.2267,156.40281   L 199.11988,203.4755   z "
     style="fill:#000000;fill-rule:evenodd;fill-opacity:1;stroke:none;" />
  <path
     id="path11"
     d="  M 307.53092,54.345381   L 307.53092,54.345381   L 272.04658,180.93815   L 307.53092,307.53092  "
     style="fill:none;stroke:#000000;stroke-width:9.5903616px;stroke-linecap:butt;stroke-linejoin:miter;stroke-miterlimit:10;stroke-dasharray:none;stroke-opacity:1;" />
</svg>
