<?xml version="1.0" encoding="UTF-8" standalone="no"?>
<svg
   xmlns:dc="http://purl.org/dc/elements/1.1/"
   xmlns:cc="http://creativecommons.org/ns#"
   xmlns:rdf="http://www.w3.org/1999/02/22-rdf-syntax-ns#"
   xmlns:svg="http://www.w3.org/2000/svg"
   xmlns="http://www.w3.org/2000/svg"
   id="svg13"
   height="101.85mm"
   width="95.75mm"
   version="1.0">
  <metadata
     id="metadata17">
    <rdf:RDF>
      <cc:Work
         rdf:about="">
        <dc:format>image/svg+xml</dc:format>
        <dc:type
           rdf:resource="http://purl.org/dc/dcmitype/StillImage" />
      </cc:Work>
    </rdf:RDF>
  </metadata>
  <defs
     id="defs3">
    <pattern
       y="0"
       x="0"
       height="6"
       width="6"
       patternUnits="userSpaceOnUse"
       id="EMFhbasepattern" />
  </defs>
  <path
     id="path5"
     d="  M 54.345381,54.345381   L 54.345381,330.54779   L 307.53092,330.54779   L 307.53092,54.345381   L 54.345381,54.345381   z "
     style="fill:#aaffaa;fill-rule:evenodd;fill-opacity:1;stroke:none;" />
  <path
     id="path7"
     d="  M 54.345381,330.54779   L 54.345381,54.345381   L 307.53092,54.345381   L 307.53092,330.54779  "
     style="fill:none;stroke:#000000;stroke-width:9.5903616px;stroke-linecap:butt;stroke-linejoin:miter;stroke-miterlimit:10;stroke-dasharray:none;stroke-opacity:1;" />
  <path
     id="path9"
     d="  M 85.034537,177.10201   L 85.034537,177.10201   L 85.034537,215.46345   L 180.93815,273.00562   L 276.84176,215.46345   L 276.84176,177.10201   L 180.93815,234.64417   z "
     style="fill:#000000;fill-rule:evenodd;fill-opacity:1;stroke:none;" />
  <path
     id="path11"
     d="  M 171.02811,153.28594   L 177.18193,152.44678   C 177.34176,156.40281 178.101,159.08012 179.41968,160.51867   C 180.69839,161.99719 182.53654,162.71646 184.85421,162.71646   C 186.57249,162.71646 188.01104,162.31687 189.2498,161.51767   C 190.52851,160.75843 191.36767,159.67952 191.84719,158.36084   C 192.28674,157.00221 192.5265,154.84438 192.5265,151.88735   L 192.5265,116.40301   L 199.35964,116.40301   L 199.35964,151.52771   C 199.35964,155.80341 198.84016,159.16004 197.8012,161.51767   C 196.76225,163.8753 195.08393,165.67349 192.84618,166.91225   C 190.56847,168.151 187.93112,168.79036 184.89417,168.79036   C 180.37871,168.79036 176.90221,167.47168 174.50462,164.87429   C 172.10703,162.27691 170.94819,158.44076 171.02811,153.28594   z "
     style="fill:#000000;fill-rule:evenodd;fill-opacity:1;stroke:none;" />
</svg>
