<?xml version="1.0" encoding="UTF-8" standalone="no"?>
<svg
   xmlns:dc="http://purl.org/dc/elements/1.1/"
   xmlns:cc="http://creativecommons.org/ns#"
   xmlns:rdf="http://www.w3.org/1999/02/22-rdf-syntax-ns#"
   xmlns:svg="http://www.w3.org/2000/svg"
   xmlns="http://www.w3.org/2000/svg"
   id="svg21"
   height="89.669998mm"
   width="120.11mm"
   version="1.0">
  <metadata
     id="metadata25">
    <rdf:RDF>
      <cc:Work
         rdf:about="">
        <dc:format>image/svg+xml</dc:format>
        <dc:type
           rdf:resource="http://purl.org/dc/dcmitype/StillImage" />
      </cc:Work>
    </rdf:RDF>
  </metadata>
  <defs
     id="defs3">
    <pattern
       y="0"
       x="0"
       height="6"
       width="6"
       patternUnits="userSpaceOnUse"
       id="EMFhbasepattern" />
  </defs>
  <path
     id="path5"
     d="  M 179.02008,15.983936   L 179.02008,54.345381   L 274.92369,54.345381   L 274.92369,15.983936   L 179.02008,15.983936   z "
     style="fill:#000000;fill-rule:evenodd;fill-opacity:1;stroke:none;" />
  <path
     id="path7"
     d="  M 54.345381,54.345381   L 54.345381,284.51405   L 399.59839,284.51405   L 399.59839,54.345381   L 54.345381,54.345381   z "
     style="fill:#80e0ff;fill-rule:evenodd;fill-opacity:1;stroke:none;" />
  <path
     id="path9"
     d="  M 54.345381,54.345381   L 399.59839,54.345381   L 399.59839,284.51405   L 54.345381,284.51405   z "
     style="fill:none;stroke:#000000;stroke-width:9.5903616px;stroke-linecap:butt;stroke-linejoin:miter;stroke-miterlimit:10;stroke-dasharray:none;stroke-opacity:1;" />
  <path
     id="path11"
     d="  M 303.69477,198.2008   C 303.69477,240.59819 269.36927,274.92369 226.97188,274.92369   C 184.61446,274.92369 150.24899,240.59819 150.24899,198.2008   C 150.24899,155.84337 184.61446,121.47791 226.97188,121.47791   C 269.36927,121.47791 303.69477,155.84337 303.69477,198.2008   z "
     style="fill:#000000;fill-rule:evenodd;fill-opacity:1;stroke:none;" />
  <path
     id="path13"
     d="  M 303.69477,198.2008   C 303.69477,240.59819 269.36927,274.92369 226.97188,274.92369   C 184.61446,274.92369 150.24899,240.59819 150.24899,198.2008   C 150.24899,155.84337 184.61446,121.47791 226.97188,121.47791   C 269.36927,121.47791 303.69477,155.84337 303.69477,198.2008  "
     style="fill:none;stroke:#000000;stroke-width:0.95903611px;stroke-linecap:butt;stroke-linejoin:miter;stroke-miterlimit:10;stroke-dasharray:none;stroke-opacity:1;" />
  <path
     id="path15"
     d="  M 226.97188,121.47791   L 226.97188,121.47791   L 293.14538,236.56225   L 160.79839,236.56225   z "
     style="fill:#ffffff;fill-rule:evenodd;fill-opacity:1;stroke:none;" />
  <path
     id="path17"
     d="  M 226.97188,121.47791   L 226.97188,121.47791   L 293.14538,236.56225   L 160.79839,236.56225   z "
     style="fill:none;stroke:#000000;stroke-width:0.95903611px;stroke-linecap:butt;stroke-linejoin:miter;stroke-miterlimit:10;stroke-dasharray:none;stroke-opacity:1;" />
  <path
     id="path19"
     d="  M 201.19779,114.84458   L 201.19779,79.160441   L 227.01184,79.160441   L 227.01184,83.356224   L 205.91305,83.356224   L 205.91305,94.30522   L 225.69317,94.30522   L 225.69317,98.501003   L 205.91305,98.501003   L 205.91305,110.64879   L 227.851,110.64879   L 227.851,114.84458   z  M 232.76606,103.3761   L 237.2016,102.9765   C 237.44136,104.7747 237.92088,106.25321 238.68012,107.41205   C 239.47931,108.53092 240.67811,109.45 242.2765,110.16928   C 243.91486,110.88855 245.75301,111.20823 247.751,111.20823   C 249.54919,111.20823 251.14759,110.96847 252.54618,110.40903   C 253.90482,109.88956 254.94377,109.17028 255.62309,108.21124   C 256.30241,107.29217 256.62208,106.25321 256.62208,105.1743   C 256.62208,104.05542 256.30241,103.05642 255.66305,102.21727   C 255.02369,101.37811 253.94478,100.69879 252.4263,100.13936   C 251.46727,99.739758 249.34939,99.18032 246.07269,98.381123   C 242.79598,97.581926 240.51827,96.862649 239.19959,96.143372   C 237.48132,95.264256 236.20261,94.14538 235.36345,92.826705   C 234.56425,91.508031 234.1247,90.029517 234.1247,88.391163   C 234.1247,86.592971 234.64417,84.914657 235.64317,83.316264   C 236.68213,81.75783 238.16064,80.598995 240.15863,79.759838   C 242.11666,78.960641 244.27449,78.561043 246.67208,78.561043   C 249.34939,78.561043 251.66706,78.960641 253.70502,79.839758   C 255.70301,80.678914 257.26144,81.917669 258.34036,83.595983   C 259.45923,85.234336 260.01867,87.112449 260.09859,89.23032   L 255.58313,89.549999   C 255.34337,87.312248 254.50421,85.593975 253.10562,84.435139   C 251.70702,83.276304 249.62911,82.716866 246.87188,82.716866   C 244.03474,82.716866 241.95682,83.236344 240.63815,84.2753   C 239.31947,85.314256 238.68012,86.592971 238.68012,88.071485   C 238.68012,89.3502 239.15964,90.389155 240.07871,91.228312   C 240.99779,92.067469 243.35542,92.906625 247.19156,93.785742   C 251.02771,94.664858 253.66506,95.424095 255.10361,96.063452   C 257.18152,97.022489 258.7,98.221284 259.69899,99.699798   C 260.69799,101.17831 261.17751,102.85663 261.17751,104.7747   C 261.17751,106.69277 260.61807,108.451 259.53915,110.12932   C 258.46024,111.80763 256.9018,113.1263 254.86385,114.04538   C 252.8259,115.00442 250.54819,115.44397 247.99076,115.44397   C 244.75401,115.44397 242.03674,115.00442 239.87891,114.04538   C 237.68112,113.1263 235.96285,111.68775 234.72409,109.80964   C 233.48534,107.93152 232.84598,105.77369 232.76606,103.3761   z "
     style="fill:#000000;fill-rule:evenodd;fill-opacity:1;stroke:none;" />
</svg>
