<?xml version="1.0" encoding="UTF-8" standalone="no"?>
<svg
   xmlns:dc="http://purl.org/dc/elements/1.1/"
   xmlns:cc="http://creativecommons.org/ns#"
   xmlns:rdf="http://www.w3.org/1999/02/22-rdf-syntax-ns#"
   xmlns:svg="http://www.w3.org/2000/svg"
   xmlns="http://www.w3.org/2000/svg"
   id="svg19"
   height="89.669998mm"
   width="120.11mm"
   version="1.0">
  <metadata
     id="metadata23">
    <rdf:RDF>
      <cc:Work
         rdf:about="">
        <dc:format>image/svg+xml</dc:format>
        <dc:type
           rdf:resource="http://purl.org/dc/dcmitype/StillImage" />
      </cc:Work>
    </rdf:RDF>
  </metadata>
  <defs
     id="defs3">
    <pattern
       y="0"
       x="0"
       height="6"
       width="6"
       patternUnits="userSpaceOnUse"
       id="EMFhbasepattern" />
  </defs>
  <path
     id="path5"
     d="  M 179.02008,15.983936   L 179.02008,54.345381   L 274.92369,54.345381   L 274.92369,15.983936   L 179.02008,15.983936   z "
     style="fill:#000000;fill-rule:evenodd;fill-opacity:1;stroke:none;" />
  <path
     id="path7"
     d="  M 54.345381,54.345381   L 54.345381,284.51405   L 399.59839,284.51405   L 399.59839,54.345381   L 54.345381,54.345381   z "
     style="fill:#80e0ff;fill-rule:evenodd;fill-opacity:1;stroke:none;" />
  <path
     id="path9"
     d="  M 54.345381,54.345381   L 399.59839,54.345381   L 399.59839,284.51405   L 54.345381,284.51405   z "
     style="fill:none;stroke:#000000;stroke-width:9.5903616px;stroke-linecap:butt;stroke-linejoin:miter;stroke-miterlimit:10;stroke-dasharray:none;stroke-opacity:1;" />
  <path
     id="path11"
     d="  M 54.345381,212.58634   L 399.59839,212.58634  "
     style="fill:none;stroke:#000000;stroke-width:9.5903616px;stroke-linecap:butt;stroke-linejoin:miter;stroke-miterlimit:10;stroke-dasharray:none;stroke-opacity:1;" />
  <path
     id="path13"
     d="  M 243.2755,125.79357   C 202.99598,125.79357 202.99598,202.99598 243.2755,202.99598  "
     style="fill:none;stroke:#000000;stroke-width:6.713253px;stroke-linecap:butt;stroke-linejoin:miter;stroke-miterlimit:10;stroke-dasharray:none;stroke-opacity:1;" />
  <path
     id="path15"
     d="  M 243.2755,125.79357   C 223.13574,125.79357 223.13574,202.99598 243.2755,202.99598  "
     style="fill:none;stroke:#000000;stroke-width:6.713253px;stroke-linecap:butt;stroke-linejoin:miter;stroke-miterlimit:10;stroke-dasharray:none;stroke-opacity:1;" />
  <path
     id="path17"
     d="  M 160.91827,114.84458   L 160.91827,79.160441   L 186.73233,79.160441   L 186.73233,83.356224   L 165.63353,83.356224   L 165.63353,94.30522   L 185.41365,94.30522   L 185.41365,98.501003   L 165.63353,98.501003   L 165.63353,110.64879   L 187.57148,110.64879   L 187.57148,114.84458   z  M 193.9251,114.84458   L 193.9251,79.160441   L 201.03795,79.160441   L 209.50943,104.41506   C 210.26867,106.77269 210.86807,108.53092 211.22771,109.72972   C 211.62731,108.41104 212.26666,106.49297 213.10582,103.9755   L 221.65723,79.160441   L 228.01084,79.160441   L 228.01084,114.84458   L 223.45542,114.84458   L 223.45542,84.994577   L 213.06586,114.84458   L 208.83012,114.84458   L 198.48052,84.475099   L 198.48052,114.84458   z  M 235.72309,114.84458   L 235.72309,79.160441   L 261.53714,79.160441   L 261.53714,83.356224   L 240.43835,83.356224   L 240.43835,94.30522   L 260.21847,94.30522   L 260.21847,98.501003   L 240.43835,98.501003   L 240.43835,110.64879   L 262.3763,110.64879   L 262.3763,114.84458   z  M 268.96967,114.84458   L 268.96967,79.160441   L 284.79377,79.160441   C 287.99056,79.160441 290.38815,79.480119 292.06646,80.119477   C 293.70482,80.758834 295.02349,81.87771 296.02249,83.516063   C 297.02148,85.154416 297.501,86.952609 297.501,88.910641   C 297.501,91.428111 296.7018,93.585942 295.06345,95.304215   C 293.4251,97.022489 290.86767,98.141364 287.43112,98.620882   C 288.70984,99.22028 289.66887,99.819677 290.30823,100.37912   C 291.66686,101.65783 292.98554,103.25622 294.22429,105.13434   L 300.41807,114.84458   L 294.50401,114.84458   L 289.74879,107.41205   C 288.39016,105.29418 287.23132,103.65582 286.3522,102.49699   C 285.47309,101.37811 284.67389,100.57891 283.95461,100.13936   C 283.23534,99.659838 282.51606,99.340159 281.79678,99.18032   C 281.27731,99.06044 280.39819,99.02048 279.15943,99.02048   L 273.68494,99.02048   L 273.68494,114.84458   z  M 273.68494,94.904617   L 283.83473,94.904617   C 285.99257,94.904617 287.71084,94.704818 288.90963,94.2253   C 290.14839,93.785742 291.06747,93.066465 291.70682,92.107428   C 292.30622,91.108432 292.6259,90.069477 292.6259,88.910641   C 292.6259,87.192368 292.0265,85.833734 290.78775,84.714858   C 289.58895,83.635943 287.63092,83.116465 284.99357,83.116465   L 273.68494,83.116465   z "
     style="fill:#000000;fill-rule:evenodd;fill-opacity:1;stroke:none;" />
</svg>
