<?xml version="1.0" encoding="UTF-8" standalone="no"?>
<svg
   xmlns:dc="http://purl.org/dc/elements/1.1/"
   xmlns:cc="http://creativecommons.org/ns#"
   xmlns:rdf="http://www.w3.org/1999/02/22-rdf-syntax-ns#"
   xmlns:svg="http://www.w3.org/2000/svg"
   xmlns="http://www.w3.org/2000/svg"
   id="svg21"
   height="116.73mm"
   width="116.73mm"
   version="1.0">
  <metadata
     id="metadata25">
    <rdf:RDF>
      <cc:Work
         rdf:about="">
        <dc:format>image/svg+xml</dc:format>
        <dc:type
           rdf:resource="http://purl.org/dc/dcmitype/StillImage" />
      </cc:Work>
    </rdf:RDF>
  </metadata>
  <defs
     id="defs3">
    <pattern
       y="0"
       x="0"
       height="6"
       width="6"
       patternUnits="userSpaceOnUse"
       id="EMFhbasepattern" />
  </defs>
  <path
     id="path5"
     d="  M 172.6265,43.156626   L 172.6265,100.69879   L 268.53012,100.69879   L 268.53012,43.156626   L 172.6265,43.156626   z "
     style="fill:#000000;fill-rule:evenodd;fill-opacity:1;stroke:none;" />
  <path
     id="path7"
     d="  M 220.57831,386.49156   L 220.57831,386.49156   L 386.49156,220.57831   L 220.57831,54.665059   L 54.665059,220.57831   L 220.57831,386.49156   z "
     style="fill:#ff8080;fill-rule:evenodd;fill-opacity:1;stroke:none;" />
  <path
     id="path9"
     d="  M 220.57831,386.49156   L 220.57831,386.49156   L 386.49156,220.57831   L 220.57831,54.665059   L 54.665059,220.57831   L 220.57831,386.49156  "
     style="fill:none;stroke:#000000;stroke-width:9.5903616px;stroke-linecap:butt;stroke-linejoin:miter;stroke-miterlimit:10;stroke-dasharray:none;stroke-opacity:1;" />
  <path
     id="path11"
     d="  M 297.3012,249.34939   C 297.3012,291.74678 262.9757,326.07228 220.57831,326.07228   C 178.22088,326.07228 143.85542,291.74678 143.85542,249.34939   C 143.85542,206.99196 178.22088,172.6265 220.57831,172.6265   C 262.9757,172.6265 297.3012,206.99196 297.3012,249.34939   z "
     style="fill:#000000;fill-rule:evenodd;fill-opacity:1;stroke:none;" />
  <path
     id="path13"
     d="  M 297.3012,249.34939   C 297.3012,291.74678 262.9757,326.07228 220.57831,326.07228   C 178.22088,326.07228 143.85542,291.74678 143.85542,249.34939   C 143.85542,206.99196 178.22088,172.6265 220.57831,172.6265   C 262.9757,172.6265 297.3012,206.99196 297.3012,249.34939  "
     style="fill:none;stroke:#000000;stroke-width:0.95903611px;stroke-linecap:butt;stroke-linejoin:miter;stroke-miterlimit:10;stroke-dasharray:none;stroke-opacity:1;" />
  <path
     id="path15"
     d="  M 220.57831,172.6265   L 220.57831,172.6265   L 286.7518,287.71084   L 154.40482,287.71084   z "
     style="fill:#ffffff;fill-rule:evenodd;fill-opacity:1;stroke:none;" />
  <path
     id="path17"
     d="  M 220.57831,172.6265   L 220.57831,172.6265   L 286.7518,287.71084   L 154.40482,287.71084   z "
     style="fill:none;stroke:#000000;stroke-width:0.95903611px;stroke-linecap:butt;stroke-linejoin:miter;stroke-miterlimit:10;stroke-dasharray:none;stroke-opacity:1;" />
  <path
     id="path19"
     d="  M 167.9512,165.99317   L 167.9512,130.30903   L 193.76526,130.30903   L 193.76526,134.50482   L 172.66646,134.50482   L 172.66646,145.45381   L 192.44658,145.45381   L 192.44658,149.6496   L 172.66646,149.6496   L 172.66646,161.79739   L 194.60441,161.79739   L 194.60441,165.99317   z  M 201.91707,165.99317   L 201.91707,130.30903   L 206.63233,130.30903   L 206.63233,165.99317   z  M 240.43835,153.48574   L 245.19357,154.68454   C 244.19457,158.56064 242.39638,161.51767 239.83895,163.55562   C 237.24156,165.59357 234.1247,166.59257 230.40843,166.59257   C 226.53233,166.59257 223.41546,165.83333 221.01787,164.2749   C 218.58032,162.71646 216.74217,160.43875 215.50341,157.44176   C 214.26466,154.48474 213.6253,151.28795 213.6253,147.89136   C 213.6253,144.1751 214.34458,140.93835 215.74317,138.14116   C 217.18172,135.38393 219.17972,133.30602 221.81707,131.86747   C 224.41445,130.42891 227.33152,129.70964 230.44839,129.70964   C 234.04478,129.70964 237.04176,130.58875 239.47931,132.42691   C 241.91686,134.2251 243.59518,136.78253 244.55421,140.09919   L 239.91887,141.17811   C 239.07972,138.58072 237.88092,136.70261 236.32249,135.50381   C 234.72409,134.34498 232.76606,133.74558 230.36847,133.74558   C 227.61124,133.74558 225.33353,134.38494 223.49538,135.70361   C 221.65723,137.02229 220.33855,138.78052 219.61927,141.01827   C 218.86004,143.21606 218.5004,145.49377 218.5004,147.8514   C 218.5004,150.88835 218.93996,153.56566 219.81907,155.80341   C 220.69819,158.08112 222.05682,159.75944 223.93494,160.87831   C 225.81305,161.99719 227.81104,162.55662 230.00883,162.55662   C 232.64618,162.55662 234.88393,161.79739 236.72208,160.27891   C 238.56024,158.76044 239.79899,156.48273 240.43835,153.48574   z  M 276.48212,153.48574   L 281.19739,154.68454   C 280.19839,158.56064 278.4002,161.51767 275.84277,163.55562   C 273.28534,165.59357 270.12851,166.59257 266.41225,166.59257   C 262.5761,166.59257 259.41927,165.83333 257.02168,164.2749   C 254.62409,162.71646 252.78594,160.43875 251.50723,157.44176   C 250.26847,154.48474 249.62911,151.28795 249.62911,147.89136   C 249.62911,144.1751 250.34839,140.93835 251.74698,138.14116   C 253.18554,135.38393 255.22349,133.30602 257.82088,131.86747   C 260.45823,130.42891 263.33534,129.70964 266.49216,129.70964   C 270.04859,129.70964 273.04558,130.58875 275.48313,132.42691   C 277.92068,134.2251 279.63895,136.78253 280.59799,140.09919   L 275.92269,141.17811   C 275.08353,138.58072 273.88473,136.70261 272.3263,135.50381   C 270.76787,134.34498 268.76988,133.74558 266.37229,133.74558   C 263.65502,133.74558 261.33735,134.38494 259.49919,135.70361   C 257.66104,137.02229 256.38233,138.78052 255.62309,141.01827   C 254.86385,143.21606 254.50421,145.49377 254.50421,147.8514   C 254.50421,150.88835 254.94377,153.56566 255.82289,155.80341   C 256.702,158.08112 258.1006,159.75944 259.93875,160.87831   C 261.81686,161.99719 263.85482,162.55662 266.01265,162.55662   C 268.65,162.55662 270.88775,161.79739 272.7259,160.27891   C 274.56405,158.76044 275.80281,156.48273 276.48212,153.48574   z "
     style="fill:#000000;fill-rule:evenodd;fill-opacity:1;stroke:none;" />
</svg>
