<?xml version="1.0" encoding="UTF-8" standalone="no"?>
<svg
   xmlns:dc="http://purl.org/dc/elements/1.1/"
   xmlns:cc="http://creativecommons.org/ns#"
   xmlns:rdf="http://www.w3.org/1999/02/22-rdf-syntax-ns#"
   xmlns:svg="http://www.w3.org/2000/svg"
   xmlns="http://www.w3.org/2000/svg"
   id="svg19"
   height="130.27mm"
   width="130.27mm"
   version="1.0">
  <metadata
     id="metadata23">
    <rdf:RDF>
      <cc:Work
         rdf:about="">
        <dc:format>image/svg+xml</dc:format>
        <dc:type
           rdf:resource="http://purl.org/dc/dcmitype/StillImage" />
      </cc:Work>
    </rdf:RDF>
  </metadata>
  <defs
     id="defs3">
    <pattern
       y="0"
       x="0"
       height="6"
       width="6"
       patternUnits="userSpaceOnUse"
       id="EMFhbasepattern" />
  </defs>
  <path
     id="path5"
     d="  M 198.2008,63.935742   L 198.2008,111.88755   L 294.10441,111.88755   L 294.10441,63.935742   L 198.2008,63.935742   z "
     style="fill:#000000;fill-rule:evenodd;fill-opacity:1;stroke:none;" />
  <path
     id="path7"
     d="  M 164.63454,327.67068   C 164.63454,437.95983 327.67068,437.95983 327.67068,327.67068   C 437.95983,327.67068 437.95983,164.63454 327.67068,164.63454   C 327.67068,54.345381 164.63454,54.345381 164.63454,164.63454   C 54.345381,164.63454 54.345381,327.67068 164.63454,327.67068   z "
     style="fill:#ffff80;fill-rule:evenodd;fill-opacity:1;stroke:none;" />
  <path
     id="path9"
     d="  M 164.63454,327.67068   C 164.63454,437.95983 327.67068,437.95983 327.67068,327.67068   C 437.95983,327.67068 437.95983,164.63454 327.67068,164.63454   C 327.67068,54.345381 164.63454,54.345381 164.63454,164.63454   C 54.345381,164.63454 54.345381,327.67068 164.63454,327.67068  "
     style="fill:none;stroke:#000000;stroke-width:9.5903616px;stroke-linecap:butt;stroke-linejoin:miter;stroke-miterlimit:10;stroke-dasharray:none;stroke-opacity:1;" />
  <path
     id="path11"
     d="  M 92.706826,289.30923   L 399.59839,289.30923  "
     style="fill:none;stroke:#000000;stroke-width:9.5903616px;stroke-linecap:butt;stroke-linejoin:miter;stroke-miterlimit:10;stroke-dasharray:none;stroke-opacity:1;" />
  <path
     id="path13"
     d="  M 262.45622,202.51646   C 222.1767,202.51646 222.1767,279.71887 262.45622,279.71887  "
     style="fill:none;stroke:#000000;stroke-width:6.713253px;stroke-linecap:butt;stroke-linejoin:miter;stroke-miterlimit:10;stroke-dasharray:none;stroke-opacity:1;" />
  <path
     id="path15"
     d="  M 262.45622,202.51646   C 242.31646,202.51646 242.31646,279.71887 262.45622,279.71887  "
     style="fill:none;stroke:#000000;stroke-width:6.713253px;stroke-linecap:butt;stroke-linejoin:miter;stroke-miterlimit:10;stroke-dasharray:none;stroke-opacity:1;" />
  <path
     id="path17"
     d="  M 180.09899,191.56747   L 180.09899,155.88333   L 205.91305,155.88333   L 205.91305,160.07911   L 184.81425,160.07911   L 184.81425,171.02811   L 204.59437,171.02811   L 204.59437,175.22389   L 184.81425,175.22389   L 184.81425,187.37168   L 206.75221,187.37168   L 206.75221,191.56747   z  M 213.10582,191.56747   L 213.10582,155.88333   L 220.21867,155.88333   L 228.69016,181.13795   C 229.44939,183.49558 230.04879,185.25381 230.40843,186.45261   C 230.80803,185.13393 231.44739,183.21586 232.28654,180.69839   L 240.83795,155.88333   L 247.19156,155.88333   L 247.19156,191.56747   L 242.63614,191.56747   L 242.63614,161.71747   L 232.24658,191.56747   L 228.01084,191.56747   L 217.66124,161.19799   L 217.66124,191.56747   z  M 254.90381,191.56747   L 254.90381,155.88333   L 280.71787,155.88333   L 280.71787,160.07911   L 259.61907,160.07911   L 259.61907,171.02811   L 279.39919,171.02811   L 279.39919,175.22389   L 259.61907,175.22389   L 259.61907,187.37168   L 281.55702,187.37168   L 281.55702,191.56747   z  M 288.1504,191.56747   L 288.1504,155.88333   L 303.97449,155.88333   C 307.17128,155.88333 309.56887,156.20301 311.24718,156.84237   C 312.88554,157.48172 314.20421,158.6006 315.20321,160.23895   C 316.2022,161.87731 316.68172,163.6755 316.68172,165.63353   C 316.68172,168.151 315.88253,170.30883 314.24417,172.02711   C 312.60582,173.74538 310.04839,174.86425 306.61184,175.34377   C 307.89056,175.94317 308.84959,176.54257 309.48895,177.10201   C 310.84759,178.38072 312.16626,179.97911 313.40502,181.85723   L 319.59879,191.56747   L 313.68473,191.56747   L 308.92951,184.13494   C 307.57088,182.01707 306.41204,180.37871 305.53293,179.21988   C 304.65381,178.101 303.85461,177.3018 303.13534,176.86225   C 302.41606,176.38273 301.69678,176.06305 300.97751,175.90321   C 300.45803,175.78333 299.57891,175.74337 298.34016,175.74337   L 292.86566,175.74337   L 292.86566,191.56747   z  M 292.86566,171.62751   L 303.01546,171.62751   C 305.17329,171.62751 306.89156,171.42771 308.09036,170.94819   C 309.32911,170.50863 310.24819,169.78935 310.88755,168.83032   C 311.48694,167.83132 311.80662,166.79237 311.80662,165.63353   C 311.80662,163.91526 311.20722,162.55662 309.96847,161.43775   C 308.76967,160.35883 306.81164,159.83936 304.17429,159.83936   L 292.86566,159.83936   z "
     style="fill:#000000;fill-rule:evenodd;fill-opacity:1;stroke:none;" />
</svg>
