<?xml version="1.0" encoding="UTF-8" standalone="no"?>
<svg
   xmlns:dc="http://purl.org/dc/elements/1.1/"
   xmlns:cc="http://creativecommons.org/ns#"
   xmlns:rdf="http://www.w3.org/1999/02/22-rdf-syntax-ns#"
   xmlns:svg="http://www.w3.org/2000/svg"
   xmlns="http://www.w3.org/2000/svg"
   id="svg21"
   height="130.27mm"
   width="130.27mm"
   version="1.0">
  <metadata
     id="metadata25">
    <rdf:RDF>
      <cc:Work
         rdf:about="">
        <dc:format>image/svg+xml</dc:format>
        <dc:type
           rdf:resource="http://purl.org/dc/dcmitype/StillImage" />
      </cc:Work>
    </rdf:RDF>
  </metadata>
  <defs
     id="defs3">
    <pattern
       y="0"
       x="0"
       height="6"
       width="6"
       patternUnits="userSpaceOnUse"
       id="EMFhbasepattern" />
  </defs>
  <path
     id="path5"
     d="  M 198.2008,63.935742   L 198.2008,111.88755   L 294.10441,111.88755   L 294.10441,63.935742   L 198.2008,63.935742   z "
     style="fill:#000000;fill-rule:evenodd;fill-opacity:1;stroke:none;" />
  <path
     id="path7"
     d="  M 164.63454,327.67068   C 164.63454,437.95983 327.67068,437.95983 327.67068,327.67068   C 437.95983,327.67068 437.95983,164.63454 327.67068,164.63454   C 327.67068,54.345381 164.63454,54.345381 164.63454,164.63454   C 54.345381,164.63454 54.345381,327.67068 164.63454,327.67068   z "
     style="fill:#ffff80;fill-rule:evenodd;fill-opacity:1;stroke:none;" />
  <path
     id="path9"
     d="  M 164.63454,327.67068   C 164.63454,437.95983 327.67068,437.95983 327.67068,327.67068   C 437.95983,327.67068 437.95983,164.63454 327.67068,164.63454   C 327.67068,54.345381 164.63454,54.345381 164.63454,164.63454   C 54.345381,164.63454 54.345381,327.67068 164.63454,327.67068  "
     style="fill:none;stroke:#000000;stroke-width:9.5903616px;stroke-linecap:butt;stroke-linejoin:miter;stroke-miterlimit:10;stroke-dasharray:none;stroke-opacity:1;" />
  <path
     id="path11"
     d="  M 322.8755,274.92369   C 322.8755,317.32108 288.55,351.64658 246.15261,351.64658   C 203.79518,351.64658 169.42972,317.32108 169.42972,274.92369   C 169.42972,232.56626 203.79518,198.2008 246.15261,198.2008   C 288.55,198.2008 322.8755,232.56626 322.8755,274.92369   z "
     style="fill:#000000;fill-rule:evenodd;fill-opacity:1;stroke:none;" />
  <path
     id="path13"
     d="  M 322.8755,274.92369   C 322.8755,317.32108 288.55,351.64658 246.15261,351.64658   C 203.79518,351.64658 169.42972,317.32108 169.42972,274.92369   C 169.42972,232.56626 203.79518,198.2008 246.15261,198.2008   C 288.55,198.2008 322.8755,232.56626 322.8755,274.92369  "
     style="fill:none;stroke:#000000;stroke-width:0.95903611px;stroke-linecap:butt;stroke-linejoin:miter;stroke-miterlimit:10;stroke-dasharray:none;stroke-opacity:1;" />
  <path
     id="path15"
     d="  M 246.15261,198.2008   L 246.15261,198.2008   L 312.3261,313.28514   L 179.97911,313.28514   z "
     style="fill:#ffffff;fill-rule:evenodd;fill-opacity:1;stroke:none;" />
  <path
     id="path17"
     d="  M 246.15261,198.2008   L 246.15261,198.2008   L 312.3261,313.28514   L 179.97911,313.28514   z "
     style="fill:none;stroke:#000000;stroke-width:0.95903611px;stroke-linecap:butt;stroke-linejoin:miter;stroke-miterlimit:10;stroke-dasharray:none;stroke-opacity:1;" />
  <path
     id="path19"
     d="  M 215.82309,180.09899   L 220.25863,179.69939   C 220.45843,181.49759 220.97791,182.9761 221.73715,184.13494   C 222.49638,185.25381 223.69518,186.17289 225.33353,186.89217   C 226.93192,187.61144 228.77008,187.93112 230.80803,187.93112   C 232.60622,187.93112 234.20462,187.69136 235.56325,187.13193   C 236.96184,186.61245 238.0008,185.89317 238.64016,184.93413   C 239.31947,184.01506 239.67911,182.9761 239.67911,181.89719   C 239.67911,180.77831 239.35943,179.77931 238.68012,178.94016   C 238.04076,178.101 236.96184,177.42168 235.48333,176.86225   C 234.52429,176.46265 232.40642,175.90321 229.12972,175.10401   C 225.85301,174.30482 223.53534,173.58554 222.21666,172.86626   C 220.53835,171.98715 219.25964,170.86827 218.42048,169.5496   C 217.58132,168.23092 217.18172,166.75241 217.18172,165.11405   C 217.18172,163.31586 217.66124,161.63755 218.7002,160.03915   C 219.73915,158.48072 221.21767,157.32189 223.1757,156.48273   C 225.13373,155.68353 227.33152,155.28393 229.72911,155.28393   C 232.36646,155.28393 234.72409,155.68353 236.72208,156.56265   C 238.76004,157.4018 240.31847,158.64056 241.39739,160.31887   C 242.4763,161.95723 243.0757,163.83534 243.15562,165.95321   L 238.64016,166.27289   C 238.36044,164.03514 237.56124,162.31687 236.16265,161.15803   C 234.76405,159.99919 232.68614,159.43976 229.92891,159.43976   C 227.0518,159.43976 224.97389,159.95923 223.69518,160.99819   C 222.3765,162.03715 221.73715,163.31586 221.73715,164.79438   C 221.73715,166.07309 222.1767,167.11205 223.09578,167.9512   C 224.01486,168.79036 226.41245,169.62952 230.24859,170.50863   C 234.08474,171.38775 236.72208,172.14699 238.12068,172.78634   C 240.19859,173.74538 241.75702,174.94417 242.71606,176.42269   C 243.71506,177.9012 244.23453,179.57952 244.23453,181.49759   C 244.23453,183.41566 243.6751,185.17389 242.59618,186.85221   C 241.51727,188.53052 239.95883,189.84919 237.92088,190.76827   C 235.88293,191.72731 233.56526,192.16686 231.00783,192.16686   C 227.81104,192.16686 225.09377,191.72731 222.89598,190.76827   C 220.73815,189.84919 219.01988,188.41064 217.78112,186.53253   C 216.54237,184.65442 215.86305,182.49658 215.82309,180.09899   z  M 246.752,191.56747   L 260.45823,155.88333   L 265.53313,155.88333   L 280.15843,191.56747   L 274.76385,191.56747   L 270.60803,180.77831   L 255.70301,180.77831   L 251.78694,191.56747   z  M 257.06164,176.90221   L 269.16947,176.90221   L 265.41325,167.03213   C 264.29437,164.03514 263.45522,161.55763 262.89578,159.63956   C 262.45622,161.91727 261.81686,164.19498 260.97771,166.43273   z "
     style="fill:#000000;fill-rule:evenodd;fill-opacity:1;stroke:none;" />
</svg>
