<?xml version="1.0" encoding="UTF-8" standalone="no"?>
<svg
   xmlns:dc="http://purl.org/dc/elements/1.1/"
   xmlns:cc="http://creativecommons.org/ns#"
   xmlns:rdf="http://www.w3.org/1999/02/22-rdf-syntax-ns#"
   xmlns:svg="http://www.w3.org/2000/svg"
   xmlns="http://www.w3.org/2000/svg"
   id="svg21"
   height="130.27mm"
   width="130.27mm"
   version="1.0">
  <metadata
     id="metadata25">
    <rdf:RDF>
      <cc:Work
         rdf:about="">
        <dc:format>image/svg+xml</dc:format>
        <dc:type
           rdf:resource="http://purl.org/dc/dcmitype/StillImage" />
      </cc:Work>
    </rdf:RDF>
  </metadata>
  <defs
     id="defs3">
    <pattern
       y="0"
       x="0"
       height="6"
       width="6"
       patternUnits="userSpaceOnUse"
       id="EMFhbasepattern" />
  </defs>
  <path
     id="path5"
     d="  M 198.2008,63.935742   L 198.2008,111.88755   L 294.10441,111.88755   L 294.10441,63.935742   L 198.2008,63.935742   z "
     style="fill:#000000;fill-rule:evenodd;fill-opacity:1;stroke:none;" />
  <path
     id="path7"
     d="  M 164.63454,327.67068   C 164.63454,437.95983 327.67068,437.95983 327.67068,327.67068   C 437.95983,327.67068 437.95983,164.63454 327.67068,164.63454   C 327.67068,54.345381 164.63454,54.345381 164.63454,164.63454   C 54.345381,164.63454 54.345381,327.67068 164.63454,327.67068   z "
     style="fill:#ffff80;fill-rule:evenodd;fill-opacity:1;stroke:none;" />
  <path
     id="path9"
     d="  M 164.63454,327.67068   C 164.63454,437.95983 327.67068,437.95983 327.67068,327.67068   C 437.95983,327.67068 437.95983,164.63454 327.67068,164.63454   C 327.67068,54.345381 164.63454,54.345381 164.63454,164.63454   C 54.345381,164.63454 54.345381,327.67068 164.63454,327.67068  "
     style="fill:none;stroke:#000000;stroke-width:9.5903616px;stroke-linecap:butt;stroke-linejoin:miter;stroke-miterlimit:10;stroke-dasharray:none;stroke-opacity:1;" />
  <path
     id="path11"
     d="  M 322.8755,246.15261   C 322.8755,288.55 288.55,322.8755 246.15261,322.8755   C 203.79518,322.8755 169.42972,288.55 169.42972,246.15261   C 169.42972,203.79518 203.79518,169.42972 246.15261,169.42972   C 288.55,169.42972 322.8755,203.79518 322.8755,246.15261   z "
     style="fill:#000000;fill-rule:evenodd;fill-opacity:1;stroke:none;" />
  <path
     id="path13"
     d="  M 322.8755,246.15261   C 322.8755,288.55 288.55,322.8755 246.15261,322.8755   C 203.79518,322.8755 169.42972,288.55 169.42972,246.15261   C 169.42972,203.79518 203.79518,169.42972 246.15261,169.42972   C 288.55,169.42972 322.8755,203.79518 322.8755,246.15261  "
     style="fill:none;stroke:#000000;stroke-width:0.95903611px;stroke-linecap:butt;stroke-linejoin:miter;stroke-miterlimit:10;stroke-dasharray:none;stroke-opacity:1;" />
  <path
     id="path15"
     d="  M 246.15261,169.42972   L 246.15261,169.42972   L 312.3261,284.51405   L 179.97911,284.51405   z "
     style="fill:#ffffff;fill-rule:evenodd;fill-opacity:1;stroke:none;" />
  <path
     id="path17"
     d="  M 246.15261,169.42972   L 246.15261,169.42972   L 312.3261,284.51405   L 179.97911,284.51405   z "
     style="fill:none;stroke:#000000;stroke-width:0.95903611px;stroke-linecap:butt;stroke-linejoin:miter;stroke-miterlimit:10;stroke-dasharray:none;stroke-opacity:1;" />
  <path
     id="path19"
     d="  M 248.67008,203.71526   C 249.70903,203.71526 250.62811,204.11486 251.34739,204.83413   C 252.06666,205.55341 252.46626,206.47249 252.46626,207.51144   C 252.46626,208.5504 252.06666,209.46947 251.34739,210.22871   C 250.62811,210.94799 249.70903,211.34759 248.67008,211.34759   C 247.63112,211.34759 246.71204,210.94799 245.95281,210.22871   C 245.23353,209.46947 244.83393,208.5504 244.83393,207.51144   C 244.83393,206.47249 245.23353,205.55341 245.95281,204.83413   C 246.67208,204.11486 247.59116,203.71526 248.67008,203.71526   z  M 251.78694,221.65723   L 251.78694,249.22951   C 251.78694,251.38735 251.94678,252.8259 252.2265,253.54518   C 252.54618,254.26445 253.0257,254.78393 253.6251,255.14357   C 254.22449,255.46325 255.34337,255.66305 256.98172,255.66305   L 256.98172,256.98172   L 240.31847,256.98172   L 240.31847,255.66305   C 241.99678,255.66305 243.11566,255.50321 243.6751,255.18353   C 244.27449,254.82389 244.71405,254.30441 245.03373,253.54518   C 245.39337,252.78594 245.55321,251.38735 245.55321,249.22951   L 245.55321,236.00281   C 245.55321,232.28654 245.43333,229.88895 245.23353,228.77008   C 245.03373,228.01084 244.75401,227.4514 244.39437,227.13172   C 244.03474,226.81204 243.51526,226.65221 242.8759,226.65221   C 242.15662,226.65221 241.31747,226.852 240.31847,227.21164   L 239.79899,225.85301   L 250.10863,221.65723   z "
     style="fill:#000000;fill-rule:evenodd;fill-opacity:1;stroke:none;" />
</svg>
