<?xml version="1.0" encoding="UTF-8" standalone="no"?>
<svg
   xmlns:dc="http://purl.org/dc/elements/1.1/"
   xmlns:cc="http://creativecommons.org/ns#"
   xmlns:rdf="http://www.w3.org/1999/02/22-rdf-syntax-ns#"
   xmlns:svg="http://www.w3.org/2000/svg"
   xmlns="http://www.w3.org/2000/svg"
   id="svg21"
   height="95.75mm"
   width="95.75mm"
   version="1.0">
  <metadata
     id="metadata25">
    <rdf:RDF>
      <cc:Work
         rdf:about="">
        <dc:format>image/svg+xml</dc:format>
        <dc:type
           rdf:resource="http://purl.org/dc/dcmitype/StillImage" />
      </cc:Work>
    </rdf:RDF>
  </metadata>
  <defs
     id="defs3">
    <pattern
       y="0"
       x="0"
       height="6"
       width="6"
       patternUnits="userSpaceOnUse"
       id="EMFhbasepattern" />
  </defs>
  <path
     id="path5"
     d="  M 132.98634,15.983936   L 132.98634,54.345381   L 228.88996,54.345381   L 228.88996,15.983936   L 132.98634,15.983936   z "
     style="fill:#000000;fill-rule:evenodd;fill-opacity:1;stroke:none;" />
  <path
     id="path7"
     d="  M 54.345381,54.345381   L 54.345381,307.53092   L 307.53092,307.53092   L 307.53092,54.345381   L 54.345381,54.345381   z "
     style="fill:#aaffaa;fill-rule:evenodd;fill-opacity:1;stroke:none;" />
  <path
     id="path9"
     d="  M 54.345381,54.345381   L 307.53092,54.345381   L 307.53092,307.53092   L 54.345381,307.53092   z "
     style="fill:none;stroke:#000000;stroke-width:9.5903616px;stroke-linecap:butt;stroke-linejoin:miter;stroke-miterlimit:10;stroke-dasharray:none;stroke-opacity:1;" />
  <path
     id="path11"
     d="  M 257.66104,209.70923   C 257.66104,252.10662 223.33554,286.43212 180.93815,286.43212   C 138.58072,286.43212 104.21526,252.10662 104.21526,209.70923   C 104.21526,167.3518 138.58072,132.98634 180.93815,132.98634   C 223.33554,132.98634 257.66104,167.3518 257.66104,209.70923   z "
     style="fill:#000000;fill-rule:evenodd;fill-opacity:1;stroke:none;" />
  <path
     id="path13"
     d="  M 257.66104,209.70923   C 257.66104,252.10662 223.33554,286.43212 180.93815,286.43212   C 138.58072,286.43212 104.21526,252.10662 104.21526,209.70923   C 104.21526,167.3518 138.58072,132.98634 180.93815,132.98634   C 223.33554,132.98634 257.66104,167.3518 257.66104,209.70923  "
     style="fill:none;stroke:#000000;stroke-width:0.95903611px;stroke-linecap:butt;stroke-linejoin:miter;stroke-miterlimit:10;stroke-dasharray:none;stroke-opacity:1;" />
  <path
     id="path15"
     d="  M 180.93815,132.98634   L 180.93815,132.98634   L 247.11164,248.07068   L 114.76466,248.07068   z "
     style="fill:#ffffff;fill-rule:evenodd;fill-opacity:1;stroke:none;" />
  <path
     id="path17"
     d="  M 180.93815,132.98634   L 180.93815,132.98634   L 247.11164,248.07068   L 114.76466,248.07068   z "
     style="fill:none;stroke:#000000;stroke-width:0.95903611px;stroke-linecap:butt;stroke-linejoin:miter;stroke-miterlimit:10;stroke-dasharray:none;stroke-opacity:1;" />
  <path
     id="path19"
     d="  M 128.31104,126.35301   L 128.31104,90.668874   L 154.1251,90.668874   L 154.1251,94.864657   L 133.0263,94.864657   L 133.0263,105.81365   L 152.80642,105.81365   L 152.80642,110.00944   L 133.0263,110.00944   L 133.0263,122.15723   L 154.96425,122.15723   L 154.96425,126.35301   z  M 162.27691,126.35301   L 162.27691,90.668874   L 166.99217,90.668874   L 166.99217,126.35301   z  M 200.79819,113.84558   L 205.55341,115.04438   C 204.55441,118.92048 202.75622,121.87751 200.19879,123.91546   C 197.6014,125.95341 194.48454,126.95241 190.76827,126.95241   C 186.89217,126.95241 183.7753,126.19317 181.37771,124.63474   C 178.94016,123.0763 177.10201,120.79859 175.86325,117.8016   C 174.6245,114.84458 173.98514,111.64779 173.98514,108.2512   C 173.98514,104.53494 174.70442,101.29819 176.10301,98.501003   C 177.54156,95.743774 179.53956,93.665862 182.1769,92.227308   C 184.77429,90.788754 187.69136,90.069477 190.80823,90.069477   C 194.40462,90.069477 197.4016,90.948593 199.83915,92.786746   C 202.2767,94.584938 203.95502,97.142368 204.91405,100.45903   L 200.27871,101.53795   C 199.43956,98.940561 198.24076,97.062448 196.68233,95.863653   C 195.08393,94.704818 193.1259,94.10542 190.72831,94.10542   C 187.97108,94.10542 185.69337,94.744778 183.85522,96.063452   C 182.01707,97.382127 180.69839,99.14036 179.97911,101.37811   C 179.21988,103.5759 178.86024,105.85361 178.86024,108.21124   C 178.86024,111.24819 179.2998,113.9255 180.17891,116.16325   C 181.05803,118.44096 182.41666,120.11928 184.29478,121.23815   C 186.17289,122.35703 188.17088,122.91646 190.36867,122.91646   C 193.00602,122.91646 195.24377,122.15723 197.08192,120.63875   C 198.92008,119.12028 200.15883,116.84257 200.79819,113.84558   z  M 236.84196,113.84558   L 241.55723,115.04438   C 240.55823,118.92048 238.76004,121.87751 236.20261,123.91546   C 233.64518,125.95341 230.48835,126.95241 226.77209,126.95241   C 222.93594,126.95241 219.77911,126.19317 217.38152,124.63474   C 214.98393,123.0763 213.14578,120.79859 211.86707,117.8016   C 210.62831,114.84458 209.98895,111.64779 209.98895,108.2512   C 209.98895,104.53494 210.70823,101.29819 212.10682,98.501003   C 213.54538,95.743774 215.58333,93.665862 218.18072,92.227308   C 220.81807,90.788754 223.69518,90.069477 226.852,90.069477   C 230.40843,90.069477 233.40542,90.948593 235.84297,92.786746   C 238.28052,94.584938 239.99879,97.142368 240.95783,100.45903   L 236.28253,101.53795   C 235.44337,98.940561 234.24457,97.062448 232.68614,95.863653   C 231.12771,94.704818 229.12972,94.10542 226.73213,94.10542   C 224.01486,94.10542 221.69719,94.744778 219.85903,96.063452   C 218.02088,97.382127 216.74217,99.14036 215.98293,101.37811   C 215.22369,103.5759 214.86405,105.85361 214.86405,108.21124   C 214.86405,111.24819 215.30361,113.9255 216.18273,116.16325   C 217.06184,118.44096 218.46044,120.11928 220.29859,121.23815   C 222.1767,122.35703 224.21466,122.91646 226.37249,122.91646   C 229.00984,122.91646 231.24759,122.15723 233.08574,120.63875   C 234.92389,119.12028 236.16265,116.84257 236.84196,113.84558   z "
     style="fill:#000000;fill-rule:evenodd;fill-opacity:1;stroke:none;" />
</svg>
