<?xml version="1.0" encoding="UTF-8" standalone="no"?>
<svg
   xmlns:dc="http://purl.org/dc/elements/1.1/"
   xmlns:cc="http://creativecommons.org/ns#"
   xmlns:rdf="http://www.w3.org/1999/02/22-rdf-syntax-ns#"
   xmlns:svg="http://www.w3.org/2000/svg"
   xmlns="http://www.w3.org/2000/svg"
   id="svg21"
   height="95.75mm"
   width="95.75mm"
   version="1.0">
  <metadata
     id="metadata25">
    <rdf:RDF>
      <cc:Work
         rdf:about="">
        <dc:format>image/svg+xml</dc:format>
        <dc:type
           rdf:resource="http://purl.org/dc/dcmitype/StillImage" />
      </cc:Work>
    </rdf:RDF>
  </metadata>
  <defs
     id="defs3">
    <pattern
       y="0"
       x="0"
       height="6"
       width="6"
       patternUnits="userSpaceOnUse"
       id="EMFhbasepattern" />
  </defs>
  <path
     id="path5"
     d="  M 132.98634,15.983936   L 132.98634,54.345381   L 228.88996,54.345381   L 228.88996,15.983936   L 132.98634,15.983936   z "
     style="fill:#000000;fill-rule:evenodd;fill-opacity:1;stroke:none;" />
  <path
     id="path7"
     d="  M 54.345381,54.345381   L 54.345381,307.53092   L 307.53092,307.53092   L 307.53092,54.345381   L 54.345381,54.345381   z "
     style="fill:#aaffaa;fill-rule:evenodd;fill-opacity:1;stroke:none;" />
  <path
     id="path9"
     d="  M 54.345381,54.345381   L 307.53092,54.345381   L 307.53092,307.53092   L 54.345381,307.53092   z "
     style="fill:none;stroke:#000000;stroke-width:9.5903616px;stroke-linecap:butt;stroke-linejoin:miter;stroke-miterlimit:10;stroke-dasharray:none;stroke-opacity:1;" />
  <path
     id="path11"
     d="  M 257.66104,209.70923   C 257.66104,252.10662 223.33554,286.43212 180.93815,286.43212   C 138.58072,286.43212 104.21526,252.10662 104.21526,209.70923   C 104.21526,167.3518 138.58072,132.98634 180.93815,132.98634   C 223.33554,132.98634 257.66104,167.3518 257.66104,209.70923   z "
     style="fill:#000000;fill-rule:evenodd;fill-opacity:1;stroke:none;" />
  <path
     id="path13"
     d="  M 257.66104,209.70923   C 257.66104,252.10662 223.33554,286.43212 180.93815,286.43212   C 138.58072,286.43212 104.21526,252.10662 104.21526,209.70923   C 104.21526,167.3518 138.58072,132.98634 180.93815,132.98634   C 223.33554,132.98634 257.66104,167.3518 257.66104,209.70923  "
     style="fill:none;stroke:#000000;stroke-width:0.95903611px;stroke-linecap:butt;stroke-linejoin:miter;stroke-miterlimit:10;stroke-dasharray:none;stroke-opacity:1;" />
  <path
     id="path15"
     d="  M 180.93815,132.98634   L 180.93815,132.98634   L 247.11164,248.07068   L 114.76466,248.07068   z "
     style="fill:#ffffff;fill-rule:evenodd;fill-opacity:1;stroke:none;" />
  <path
     id="path17"
     d="  M 180.93815,132.98634   L 180.93815,132.98634   L 247.11164,248.07068   L 114.76466,248.07068   z "
     style="fill:none;stroke:#000000;stroke-width:0.95903611px;stroke-linecap:butt;stroke-linejoin:miter;stroke-miterlimit:10;stroke-dasharray:none;stroke-opacity:1;" />
  <path
     id="path19"
     d="  M 155.16405,126.35301   L 155.16405,90.668874   L 180.97811,90.668874   L 180.97811,94.864657   L 159.87931,94.864657   L 159.87931,105.81365   L 179.65944,105.81365   L 179.65944,110.00944   L 159.87931,110.00944   L 159.87931,122.15723   L 181.81727,122.15723   L 181.81727,126.35301   z  M 186.73233,114.88454   L 191.16787,114.48494   C 191.40763,116.28313 191.88715,117.76164 192.64638,118.92048   C 193.44558,120.03936 194.64437,120.95843 196.24277,121.67771   C 197.88112,122.39699 199.71927,122.71666 201.71727,122.71666   C 203.51546,122.71666 205.11385,122.47691 206.51245,121.91747   C 207.87108,121.39799 208.91004,120.67871 209.58935,119.71968   C 210.26867,118.8006 210.58835,117.76164 210.58835,116.68273   C 210.58835,115.56385 210.26867,114.56486 209.62931,113.7257   C 208.98996,112.88654 207.91104,112.20723 206.39257,111.64779   C 205.43353,111.24819 203.31566,110.68875 200.03895,109.88956   C 196.76225,109.09036 194.48454,108.37108 193.16586,107.65181   C 191.44759,106.77269 190.16887,105.65381 189.32972,104.33514   C 188.53052,103.01646 188.09096,101.53795 188.09096,99.899597   C 188.09096,98.101404 188.61044,96.423091 189.60944,94.824697   C 190.64839,93.266264 192.1269,92.107428 194.1249,91.268272   C 196.08293,90.469075 198.24076,90.069477 200.63835,90.069477   C 203.31566,90.069477 205.63333,90.469075 207.67128,91.348191   C 209.66927,92.187348 211.22771,93.426103 212.30662,95.104416   C 213.4255,96.74277 213.98494,98.620882 214.06486,100.73875   L 209.54939,101.05843   C 209.30964,98.820681 208.47048,97.102408 207.07188,95.943573   C 205.67329,94.784738 203.59538,94.2253 200.83815,94.2253   C 198.001,94.2253 195.92309,94.744778 194.60441,95.783734   C 193.28574,96.822689 192.64638,98.101404 192.64638,99.579918   C 192.64638,100.85863 193.1259,101.89759 194.04498,102.73675   C 194.96405,103.5759 197.32168,104.41506 201.15783,105.29418   C 204.99397,106.17329 207.63132,106.93253 209.06988,107.57189   C 211.14779,108.53092 212.66626,109.72972 213.66526,111.20823   C 214.66425,112.68675 215.14377,114.36506 215.14377,116.28313   C 215.14377,118.2012 214.58433,119.95944 213.50542,121.63775   C 212.4265,123.31606 210.86807,124.63474 208.83012,125.55381   C 206.79217,126.51285 204.51445,126.95241 201.95703,126.95241   C 198.72028,126.95241 196.00301,126.51285 193.84518,125.55381   C 191.64739,124.63474 189.92911,123.19618 188.69036,121.31807   C 187.4516,119.43996 186.81225,117.28213 186.73233,114.88454   z "
     style="fill:#000000;fill-rule:evenodd;fill-opacity:1;stroke:none;" />
</svg>
