<?xml version="1.0" encoding="UTF-8" standalone="no"?>
<svg
   xmlns:dc="http://purl.org/dc/elements/1.1/"
   xmlns:cc="http://creativecommons.org/ns#"
   xmlns:rdf="http://www.w3.org/1999/02/22-rdf-syntax-ns#"
   xmlns:svg="http://www.w3.org/2000/svg"
   xmlns="http://www.w3.org/2000/svg"
   id="svg21"
   height="97.790001mm"
   width="120.11mm"
   version="1.0">
  <metadata
     id="metadata25">
    <rdf:RDF>
      <cc:Work
         rdf:about="">
        <dc:format>image/svg+xml</dc:format>
        <dc:type
           rdf:resource="http://purl.org/dc/dcmitype/StillImage" />
      </cc:Work>
    </rdf:RDF>
  </metadata>
  <defs
     id="defs3">
    <pattern
       y="0"
       x="0"
       height="6"
       width="6"
       patternUnits="userSpaceOnUse"
       id="EMFhbasepattern" />
  </defs>
  <path
     id="path5"
     d="  M 54.345381,85.034537   L 54.345381,315.20321   L 399.59839,315.20321   L 399.59839,85.034537   L 54.345381,85.034537   z "
     style="fill:#80e0ff;fill-rule:evenodd;fill-opacity:1;stroke:none;" />
  <path
     id="path7"
     d="  M 54.345381,85.034537   L 399.59839,85.034537   L 399.59839,315.20321   L 54.345381,315.20321   z "
     style="fill:none;stroke:#000000;stroke-width:9.5903616px;stroke-linecap:butt;stroke-linejoin:miter;stroke-miterlimit:10;stroke-dasharray:none;stroke-opacity:1;" />
  <path
     id="path9"
     d="  M 303.69477,201.07791   C 303.69477,243.4753 269.36927,277.8008 226.97188,277.8008   C 184.61446,277.8008 150.24899,243.4753 150.24899,201.07791   C 150.24899,158.72048 184.61446,124.35502 226.97188,124.35502   C 269.36927,124.35502 303.69477,158.72048 303.69477,201.07791   z "
     style="fill:#000000;fill-rule:evenodd;fill-opacity:1;stroke:none;" />
  <path
     id="path11"
     d="  M 303.69477,201.07791   C 303.69477,243.4753 269.36927,277.8008 226.97188,277.8008   C 184.61446,277.8008 150.24899,243.4753 150.24899,201.07791   C 150.24899,158.72048 184.61446,124.35502 226.97188,124.35502   C 269.36927,124.35502 303.69477,158.72048 303.69477,201.07791  "
     style="fill:none;stroke:#000000;stroke-width:0.95903611px;stroke-linecap:butt;stroke-linejoin:miter;stroke-miterlimit:10;stroke-dasharray:none;stroke-opacity:1;" />
  <path
     id="path13"
     d="  M 226.97188,124.35502   L 226.97188,124.35502   L 293.14538,239.43935   L 160.79839,239.43935   z "
     style="fill:#ffffff;fill-rule:evenodd;fill-opacity:1;stroke:none;" />
  <path
     id="path15"
     d="  M 226.97188,124.35502   L 226.97188,124.35502   L 293.14538,239.43935   L 160.79839,239.43935   z "
     style="fill:none;stroke:#000000;stroke-width:0.95903611px;stroke-linecap:butt;stroke-linejoin:miter;stroke-miterlimit:10;stroke-dasharray:none;stroke-opacity:1;" />
  <path
     id="path17"
     d="  M 243.2755,56.263453   C 243.2755,65.294377 236.00281,72.567067 226.97188,72.567067   C 217.98092,72.567067 210.66827,65.294377 210.66827,56.263453   C 210.66827,47.272489 217.98092,39.959839 226.97188,39.959839   C 236.00281,39.959839 243.2755,47.272489 243.2755,56.263453  "
     style="fill:none;stroke:#000000;stroke-width:6.713253px;stroke-linecap:butt;stroke-linejoin:miter;stroke-miterlimit:10;stroke-dasharray:none;stroke-opacity:1;" />
  <path
     id="path19"
     d="  M 210.66827,72.567067   L 243.2755,39.959839  "
     style="fill:none;stroke:#000000;stroke-width:6.713253px;stroke-linecap:butt;stroke-linejoin:miter;stroke-miterlimit:10;stroke-dasharray:none;stroke-opacity:1;" />
</svg>
