<?xml version="1.0" encoding="UTF-8" standalone="no"?>
<svg
   xmlns:dc="http://purl.org/dc/elements/1.1/"
   xmlns:cc="http://creativecommons.org/ns#"
   xmlns:rdf="http://www.w3.org/1999/02/22-rdf-syntax-ns#"
   xmlns:svg="http://www.w3.org/2000/svg"
   xmlns="http://www.w3.org/2000/svg"
   id="svg21"
   height="130.27mm"
   width="130.27mm"
   version="1.0">
  <metadata
     id="metadata25">
    <rdf:RDF>
      <cc:Work
         rdf:about="">
        <dc:format>image/svg+xml</dc:format>
        <dc:type
           rdf:resource="http://purl.org/dc/dcmitype/StillImage" />
      </cc:Work>
    </rdf:RDF>
  </metadata>
  <defs
     id="defs3">
    <pattern
       y="0"
       x="0"
       height="6"
       width="6"
       patternUnits="userSpaceOnUse"
       id="EMFhbasepattern" />
  </defs>
  <path
     id="path5"
     d="  M 198.2008,63.935742   L 198.2008,111.88755   L 294.10441,111.88755   L 294.10441,63.935742   L 198.2008,63.935742   z "
     style="fill:#000000;fill-rule:evenodd;fill-opacity:1;stroke:none;" />
  <path
     id="path7"
     d="  M 164.63454,327.67068   C 164.63454,437.95983 327.67068,437.95983 327.67068,327.67068   C 437.95983,327.67068 437.95983,164.63454 327.67068,164.63454   C 327.67068,54.345381 164.63454,54.345381 164.63454,164.63454   C 54.345381,164.63454 54.345381,327.67068 164.63454,327.67068   z "
     style="fill:#ffff80;fill-rule:evenodd;fill-opacity:1;stroke:none;" />
  <path
     id="path9"
     d="  M 164.63454,327.67068   C 164.63454,437.95983 327.67068,437.95983 327.67068,327.67068   C 437.95983,327.67068 437.95983,164.63454 327.67068,164.63454   C 327.67068,54.345381 164.63454,54.345381 164.63454,164.63454   C 54.345381,164.63454 54.345381,327.67068 164.63454,327.67068  "
     style="fill:none;stroke:#000000;stroke-width:9.5903616px;stroke-linecap:butt;stroke-linejoin:miter;stroke-miterlimit:10;stroke-dasharray:none;stroke-opacity:1;" />
  <path
     id="path11"
     d="  M 322.8755,274.92369   C 322.8755,317.32108 288.55,351.64658 246.15261,351.64658   C 203.79518,351.64658 169.42972,317.32108 169.42972,274.92369   C 169.42972,232.56626 203.79518,198.2008 246.15261,198.2008   C 288.55,198.2008 322.8755,232.56626 322.8755,274.92369   z "
     style="fill:#000000;fill-rule:evenodd;fill-opacity:1;stroke:none;" />
  <path
     id="path13"
     d="  M 322.8755,274.92369   C 322.8755,317.32108 288.55,351.64658 246.15261,351.64658   C 203.79518,351.64658 169.42972,317.32108 169.42972,274.92369   C 169.42972,232.56626 203.79518,198.2008 246.15261,198.2008   C 288.55,198.2008 322.8755,232.56626 322.8755,274.92369  "
     style="fill:none;stroke:#000000;stroke-width:0.95903611px;stroke-linecap:butt;stroke-linejoin:miter;stroke-miterlimit:10;stroke-dasharray:none;stroke-opacity:1;" />
  <path
     id="path15"
     d="  M 246.15261,198.2008   L 246.15261,198.2008   L 312.3261,313.28514   L 179.97911,313.28514   z "
     style="fill:#ffffff;fill-rule:evenodd;fill-opacity:1;stroke:none;" />
  <path
     id="path17"
     d="  M 246.15261,198.2008   L 246.15261,198.2008   L 312.3261,313.28514   L 179.97911,313.28514   z "
     style="fill:none;stroke:#000000;stroke-width:0.95903611px;stroke-linecap:butt;stroke-linejoin:miter;stroke-miterlimit:10;stroke-dasharray:none;stroke-opacity:1;" />
  <path
     id="path19"
     d="  M 193.5255,191.56747   L 193.5255,155.88333   L 219.33956,155.88333   L 219.33956,160.07911   L 198.24076,160.07911   L 198.24076,171.02811   L 218.02088,171.02811   L 218.02088,175.22389   L 198.24076,175.22389   L 198.24076,187.37168   L 220.17871,187.37168   L 220.17871,191.56747   z  M 227.49136,191.56747   L 227.49136,155.88333   L 232.20662,155.88333   L 232.20662,191.56747   z  M 266.01265,179.06004   L 270.76787,180.25883   C 269.76887,184.13494 267.97068,187.09197 265.41325,189.12992   C 262.81586,191.16787 259.69899,192.16686 255.98273,192.16686   C 252.10662,192.16686 248.98976,191.40763 246.59217,189.84919   C 244.15461,188.29076 242.31646,186.01305 241.07771,183.01606   C 239.83895,180.05903 239.19959,176.86225 239.19959,173.46566   C 239.19959,169.7494 239.91887,166.51265 241.31747,163.71546   C 242.75602,160.95823 244.75401,158.88032 247.39136,157.44176   C 249.98875,156.00321 252.90582,155.28393 256.02269,155.28393   C 259.61907,155.28393 262.61606,156.16305 265.05361,158.0012   C 267.49116,159.7994 269.16947,162.35682 270.12851,165.67349   L 265.49317,166.75241   C 264.65401,164.15502 263.45522,162.27691 261.89678,161.07811   C 260.29839,159.91927 258.34036,159.31988 255.94277,159.31988   C 253.18554,159.31988 250.90783,159.95923 249.06968,161.27791   C 247.23152,162.59658 245.91285,164.35482 245.19357,166.59257   C 244.43433,168.79036 244.0747,171.06807 244.0747,173.4257   C 244.0747,176.46265 244.51425,179.13996 245.39337,181.37771   C 246.27249,183.65542 247.63112,185.33373 249.50923,186.45261   C 251.38735,187.57148 253.38534,188.13092 255.58313,188.13092   C 258.22048,188.13092 260.45823,187.37168 262.29638,185.85321   C 264.13453,184.33474 265.37329,182.05703 266.01265,179.06004   z  M 302.05642,179.06004   L 306.77168,180.25883   C 305.77269,184.13494 303.97449,187.09197 301.41706,189.12992   C 298.85963,191.16787 295.70281,192.16686 291.98654,192.16686   C 288.1504,192.16686 284.99357,191.40763 282.59598,189.84919   C 280.19839,188.29076 278.36024,186.01305 277.08152,183.01606   C 275.84277,180.05903 275.20341,176.86225 275.20341,173.46566   C 275.20341,169.7494 275.92269,166.51265 277.32128,163.71546   C 278.75984,160.95823 280.79779,158.88032 283.39518,157.44176   C 286.03253,156.00321 288.90963,155.28393 292.06646,155.28393   C 295.62289,155.28393 298.61988,156.16305 301.05743,158.0012   C 303.49498,159.7994 305.21325,162.35682 306.17228,165.67349   L 301.49698,166.75241   C 300.65783,164.15502 299.45903,162.27691 297.9006,161.07811   C 296.34216,159.91927 294.34417,159.31988 291.94658,159.31988   C 289.22931,159.31988 286.91164,159.95923 285.07349,161.27791   C 283.23534,162.59658 281.95662,164.35482 281.19739,166.59257   C 280.43815,168.79036 280.07851,171.06807 280.07851,173.4257   C 280.07851,176.46265 280.51807,179.13996 281.39718,181.37771   C 282.2763,183.65542 283.6749,185.33373 285.51305,186.45261   C 287.39116,187.57148 289.42911,188.13092 291.58694,188.13092   C 294.22429,188.13092 296.46204,187.37168 298.3002,185.85321   C 300.13835,184.33474 301.3771,182.05703 302.05642,179.06004   z "
     style="fill:#000000;fill-rule:evenodd;fill-opacity:1;stroke:none;" />
</svg>
