<?xml version="1.0" encoding="UTF-8" standalone="no"?>
<svg
   xmlns:dc="http://purl.org/dc/elements/1.1/"
   xmlns:cc="http://creativecommons.org/ns#"
   xmlns:rdf="http://www.w3.org/1999/02/22-rdf-syntax-ns#"
   xmlns:svg="http://www.w3.org/2000/svg"
   xmlns="http://www.w3.org/2000/svg"
   id="svg19"
   height="95.75mm"
   width="95.75mm"
   version="1.0">
  <metadata
     id="metadata23">
    <rdf:RDF>
      <cc:Work
         rdf:about="">
        <dc:format>image/svg+xml</dc:format>
        <dc:type
           rdf:resource="http://purl.org/dc/dcmitype/StillImage" />
      </cc:Work>
    </rdf:RDF>
  </metadata>
  <defs
     id="defs3">
    <pattern
       y="0"
       x="0"
       height="6"
       width="6"
       patternUnits="userSpaceOnUse"
       id="EMFhbasepattern" />
  </defs>
  <path
     id="path5"
     d="  M 132.98634,15.983936   L 132.98634,54.345381   L 228.88996,54.345381   L 228.88996,15.983936   L 132.98634,15.983936   z "
     style="fill:#000000;fill-rule:evenodd;fill-opacity:1;stroke:none;" />
  <path
     id="path7"
     d="  M 54.345381,54.345381   L 54.345381,307.53092   L 307.53092,307.53092   L 307.53092,54.345381   L 54.345381,54.345381   z "
     style="fill:#aaffaa;fill-rule:evenodd;fill-opacity:1;stroke:none;" />
  <path
     id="path9"
     d="  M 54.345381,54.345381   L 307.53092,54.345381   L 307.53092,307.53092   L 54.345381,307.53092   z "
     style="fill:none;stroke:#000000;stroke-width:9.5903616px;stroke-linecap:butt;stroke-linejoin:miter;stroke-miterlimit:10;stroke-dasharray:none;stroke-opacity:1;" />
  <path
     id="path11"
     d="  M 54.345381,224.09478   L 307.53092,224.09478  "
     style="fill:none;stroke:#000000;stroke-width:9.5903616px;stroke-linecap:butt;stroke-linejoin:miter;stroke-miterlimit:10;stroke-dasharray:none;stroke-opacity:1;" />
  <path
     id="path13"
     d="  M 197.24176,137.30201   C 156.96225,137.30201 156.96225,214.50441 197.24176,214.50441  "
     style="fill:none;stroke:#000000;stroke-width:6.713253px;stroke-linecap:butt;stroke-linejoin:miter;stroke-miterlimit:10;stroke-dasharray:none;stroke-opacity:1;" />
  <path
     id="path15"
     d="  M 197.24176,137.30201   C 177.10201,137.30201 177.10201,214.50441 197.24176,214.50441  "
     style="fill:none;stroke:#000000;stroke-width:6.713253px;stroke-linecap:butt;stroke-linejoin:miter;stroke-miterlimit:10;stroke-dasharray:none;stroke-opacity:1;" />
  <path
     id="path17"
     d="  M 114.88454,126.35301   L 114.88454,90.668874   L 140.69859,90.668874   L 140.69859,94.864657   L 119.5998,94.864657   L 119.5998,105.81365   L 139.37992,105.81365   L 139.37992,110.00944   L 119.5998,110.00944   L 119.5998,122.15723   L 141.53775,122.15723   L 141.53775,126.35301   z  M 147.89136,126.35301   L 147.89136,90.668874   L 155.00421,90.668874   L 163.4757,115.92349   C 164.23494,118.28112 164.83433,120.03936 165.19397,121.23815   C 165.59357,119.91948 166.23293,118.0014 167.07209,115.48393   L 175.62349,90.668874   L 181.97711,90.668874   L 181.97711,126.35301   L 177.42168,126.35301   L 177.42168,96.503011   L 167.03213,126.35301   L 162.79638,126.35301   L 152.44678,95.983533   L 152.44678,126.35301   z  M 189.68935,126.35301   L 189.68935,90.668874   L 215.50341,90.668874   L 215.50341,94.864657   L 194.40462,94.864657   L 194.40462,105.81365   L 214.18474,105.81365   L 214.18474,110.00944   L 194.40462,110.00944   L 194.40462,122.15723   L 216.34257,122.15723   L 216.34257,126.35301   z  M 222.93594,126.35301   L 222.93594,90.668874   L 238.76004,90.668874   C 241.95682,90.668874 244.35441,90.988553 246.03273,91.62791   C 247.67108,92.267268 248.98976,93.386143 249.98875,95.024497   C 250.98775,96.66285 251.46727,98.461043 251.46727,100.41907   C 251.46727,102.93654 250.66807,105.09438 249.02972,106.81265   C 247.39136,108.53092 244.83393,109.6498 241.39739,110.12932   C 242.6761,110.72871 243.63514,111.32811 244.27449,111.88755   C 245.63313,113.16626 246.9518,114.76466 248.19056,116.64277   L 254.38433,126.35301   L 248.47028,126.35301   L 243.71506,118.92048   C 242.35642,116.80261 241.19759,115.16426 240.31847,114.00542   C 239.43935,112.88654 238.64016,112.08735 237.92088,111.64779   C 237.2016,111.16827 236.48233,110.84859 235.76305,110.68875   C 235.24357,110.56887 234.36445,110.52891 233.1257,110.52891   L 227.6512,110.52891   L 227.6512,126.35301   z  M 227.6512,106.41305   L 237.801,106.41305   C 239.95883,106.41305 241.6771,106.21325 242.8759,105.73373   C 244.11466,105.29418 245.03373,104.5749 245.67309,103.61586   C 246.27249,102.61687 246.59217,101.57791 246.59217,100.41907   C 246.59217,98.700802 245.99277,97.342167 244.75401,96.223292   C 243.55522,95.144376 241.59719,94.624898 238.95984,94.624898   L 227.6512,94.624898   z "
     style="fill:#000000;fill-rule:evenodd;fill-opacity:1;stroke:none;" />
</svg>
