<?xml version="1.0" encoding="UTF-8" standalone="no"?>
<svg
   xmlns:dc="http://purl.org/dc/elements/1.1/"
   xmlns:cc="http://creativecommons.org/ns#"
   xmlns:rdf="http://www.w3.org/1999/02/22-rdf-syntax-ns#"
   xmlns:svg="http://www.w3.org/2000/svg"
   xmlns="http://www.w3.org/2000/svg"
   id="svg21"
   height="104.21mm"
   width="95.75mm"
   version="1.0">
  <metadata
     id="metadata25">
    <rdf:RDF>
      <cc:Work
         rdf:about="">
        <dc:format>image/svg+xml</dc:format>
        <dc:type
           rdf:resource="http://purl.org/dc/dcmitype/StillImage" />
      </cc:Work>
    </rdf:RDF>
  </metadata>
  <defs
     id="defs3">
    <pattern
       y="0"
       x="0"
       height="6"
       width="6"
       patternUnits="userSpaceOnUse"
       id="EMFhbasepattern" />
  </defs>
  <path
     id="path5"
     d="  M 54.345381,86.313252   L 54.345381,339.49879   L 307.53092,339.49879   L 307.53092,86.313252   L 54.345381,86.313252   z "
     style="fill:#aaffaa;fill-rule:evenodd;fill-opacity:1;stroke:none;" />
  <path
     id="path7"
     d="  M 54.345381,86.313252   L 307.53092,86.313252   L 307.53092,339.49879   L 54.345381,339.49879   z "
     style="fill:none;stroke:#000000;stroke-width:9.5903616px;stroke-linecap:butt;stroke-linejoin:miter;stroke-miterlimit:10;stroke-dasharray:none;stroke-opacity:1;" />
  <path
     id="path9"
     d="  M 257.66104,213.86506   C 257.66104,256.26245 223.33554,290.58795 180.93815,290.58795   C 138.58072,290.58795 104.21526,256.26245 104.21526,213.86506   C 104.21526,171.50763 138.58072,137.14217 180.93815,137.14217   C 223.33554,137.14217 257.66104,171.50763 257.66104,213.86506   z "
     style="fill:#000000;fill-rule:evenodd;fill-opacity:1;stroke:none;" />
  <path
     id="path11"
     d="  M 257.66104,213.86506   C 257.66104,256.26245 223.33554,290.58795 180.93815,290.58795   C 138.58072,290.58795 104.21526,256.26245 104.21526,213.86506   C 104.21526,171.50763 138.58072,137.14217 180.93815,137.14217   C 223.33554,137.14217 257.66104,171.50763 257.66104,213.86506  "
     style="fill:none;stroke:#000000;stroke-width:0.95903611px;stroke-linecap:butt;stroke-linejoin:miter;stroke-miterlimit:10;stroke-dasharray:none;stroke-opacity:1;" />
  <path
     id="path13"
     d="  M 180.93815,137.14217   L 180.93815,137.14217   L 247.11164,252.2265   L 114.76466,252.2265   z "
     style="fill:#ffffff;fill-rule:evenodd;fill-opacity:1;stroke:none;" />
  <path
     id="path15"
     d="  M 180.93815,137.14217   L 180.93815,137.14217   L 247.11164,252.2265   L 114.76466,252.2265   z "
     style="fill:none;stroke:#000000;stroke-width:0.95903611px;stroke-linecap:butt;stroke-linejoin:miter;stroke-miterlimit:10;stroke-dasharray:none;stroke-opacity:1;" />
  <path
     id="path17"
     d="  M 197.24176,56.583132   C 197.24176,65.614055 189.96907,72.886746 180.93815,72.886746   C 171.94719,72.886746 164.63454,65.614055 164.63454,56.583132   C 164.63454,47.592168 171.94719,40.279517 180.93815,40.279517   C 189.96907,40.279517 197.24176,47.592168 197.24176,56.583132  "
     style="fill:none;stroke:#000000;stroke-width:6.713253px;stroke-linecap:butt;stroke-linejoin:miter;stroke-miterlimit:10;stroke-dasharray:none;stroke-opacity:1;" />
  <path
     id="path19"
     d="  M 164.63454,72.886746   L 197.24176,40.279517  "
     style="fill:none;stroke:#000000;stroke-width:6.713253px;stroke-linecap:butt;stroke-linejoin:miter;stroke-miterlimit:10;stroke-dasharray:none;stroke-opacity:1;" />
</svg>
