<?xml version="1.0" encoding="UTF-8" standalone="no"?>
<svg
   xmlns:dc="http://purl.org/dc/elements/1.1/"
   xmlns:cc="http://creativecommons.org/ns#"
   xmlns:rdf="http://www.w3.org/1999/02/22-rdf-syntax-ns#"
   xmlns:svg="http://www.w3.org/2000/svg"
   xmlns="http://www.w3.org/2000/svg"
   id="svg11"
   height="95.75mm"
   width="95.75mm"
   version="1.0">
  <metadata
     id="metadata15">
    <rdf:RDF>
      <cc:Work
         rdf:about="">
        <dc:format>image/svg+xml</dc:format>
        <dc:type
           rdf:resource="http://purl.org/dc/dcmitype/StillImage" />
      </cc:Work>
    </rdf:RDF>
  </metadata>
  <defs
     id="defs3">
    <pattern
       y="0"
       x="0"
       height="6"
       width="6"
       patternUnits="userSpaceOnUse"
       id="EMFhbasepattern" />
  </defs>
  <path
     id="path5"
     d="  M 54.345381,54.345381   L 54.345381,307.53092   L 307.53092,307.53092   L 307.53092,54.345381   L 54.345381,54.345381   z "
     style="fill:#aaffaa;fill-rule:evenodd;fill-opacity:1;stroke:none;" />
  <path
     id="path7"
     d="  M 54.345381,54.345381   L 307.53092,54.345381   L 307.53092,307.53092   L 54.345381,307.53092   z "
     style="fill:none;stroke:#000000;stroke-width:9.5903616px;stroke-linecap:butt;stroke-linejoin:miter;stroke-miterlimit:10;stroke-dasharray:none;stroke-opacity:1;" />
  <path
     id="path9"
     d="  M 258.58012,194.1249   C 257.66104,193.9251 253.50522,195.52349 246.15261,198.96004   C 241.31747,201.07791 235.76305,204.2747 229.56927,208.67028   C 206.99196,223.61526 191.00803,243.99478 181.57751,269.80883   C 181.09799,269.80883 180.53855,269.20943 179.85923,268.09056   C 171.30783,242.75602 154.04518,221.65723 128.07128,204.83413   C 122.31707,201.15783 114.36506,197.48152 104.21526,193.80522   C 104.01546,193.3257 104.01546,193.00602 104.21526,192.76626   C 106.77269,191.60743 110.32911,190.12891 114.9245,188.2508   C 126.67269,184.13494 139.22008,175.02409 152.56666,160.99819   C 165.91325,146.93233 174.66446,133.8255 178.82028,121.59779   C 179.4996,119.9994 180.41867,118.28112 181.57751,116.44297   C 185.49357,128.63072 192.84618,141.41787 203.6753,154.76446   C 215.38353,169.03012 227.37148,179.06004 239.55923,184.81425   C 242.11666,186.21285 246.47229,188.29076 252.66606,191.04799   C 254.54417,191.24779 256.46225,192.3267 258.58012,194.1249   z  M 241.63715,109.17028   L 235.08373,113.64578   L 224.93393,102.65683   L 203.31566,124.4749   L 181.81727,102.45703   L 159.0002,124.59478   L 136.06325,101.17831   L 124.2751,112.96646   L 118.401,108.8506   L 135.98333,91.74779   L 158.76044,115.04438   L 181.57751,92.946585   L 204.03494,115.04438   L 225.41345,92.946585   z "
     style="fill:#000000;fill-rule:evenodd;fill-opacity:1;stroke:none;" />
</svg>
