<?xml version="1.0" encoding="UTF-8" standalone="no"?>
<svg
   xmlns:dc="http://purl.org/dc/elements/1.1/"
   xmlns:cc="http://creativecommons.org/ns#"
   xmlns:rdf="http://www.w3.org/1999/02/22-rdf-syntax-ns#"
   xmlns:svg="http://www.w3.org/2000/svg"
   xmlns="http://www.w3.org/2000/svg"
   id="svg11"
   height="116.73mm"
   width="116.73mm"
   version="1.0">
  <metadata
     id="metadata15">
    <rdf:RDF>
      <cc:Work
         rdf:about="">
        <dc:format>image/svg+xml</dc:format>
        <dc:type
           rdf:resource="http://purl.org/dc/dcmitype/StillImage" />
      </cc:Work>
    </rdf:RDF>
  </metadata>
  <defs
     id="defs3">
    <pattern
       y="0"
       x="0"
       height="6"
       width="6"
       patternUnits="userSpaceOnUse"
       id="EMFhbasepattern" />
  </defs>
  <path
     id="path5"
     d="  M 220.57831,386.49156   L 220.57831,386.49156   L 386.49156,220.57831   L 220.57831,54.665059   L 54.665059,220.57831   L 220.57831,386.49156   z "
     style="fill:#ff8080;fill-rule:evenodd;fill-opacity:1;stroke:none;" />
  <path
     id="path7"
     d="  M 220.57831,386.49156   L 220.57831,386.49156   L 386.49156,220.57831   L 220.57831,54.665059   L 54.665059,220.57831   L 220.57831,386.49156  "
     style="fill:none;stroke:#000000;stroke-width:9.5903616px;stroke-linecap:butt;stroke-linejoin:miter;stroke-miterlimit:10;stroke-dasharray:none;stroke-opacity:1;" />
  <path
     id="path9"
     d="  M 298.22028,233.76506   C 297.3012,233.56526 293.14538,235.16365 285.79277,238.6002   C 280.95763,240.71807 275.40321,243.91486 269.20943,248.31044   C 246.63212,263.25542 230.64819,283.63494 221.21767,309.44899   C 220.73815,309.44899 220.17871,308.84959 219.49939,307.73072   C 210.94799,282.39618 193.68534,261.29739 167.71144,244.47429   C 161.95723,240.79799 154.00522,237.12168 143.85542,233.44538   C 143.65562,232.96586 143.65562,232.64618 143.85542,232.40642   C 146.41285,231.24759 149.96927,229.76907 154.56466,227.89096   C 166.31285,223.7751 178.86024,214.66425 192.20682,200.63835   C 205.55341,186.57249 214.30462,173.46566 218.46044,161.23795   C 219.13976,159.63956 220.05883,157.92128 221.21767,156.08313   C 225.13373,168.27088 232.48634,181.05803 243.31546,194.40462   C 255.02369,208.67028 267.01164,218.7002 279.19939,224.45441   C 281.75682,225.85301 286.11245,227.93092 292.30622,230.68815   C 294.18433,230.88795 296.10241,231.96686 298.22028,233.76506   z  M 281.27731,148.81044   L 274.72389,153.28594   L 264.57409,142.29699   L 242.95582,164.11506   L 221.45743,142.09719   L 198.64036,164.23494   L 175.70341,140.81847   L 163.91526,152.60662   L 158.04116,148.49076   L 175.62349,131.38795   L 198.4006,154.68454   L 221.21767,132.58675   L 243.6751,154.68454   L 265.05361,132.58675   z "
     style="fill:#000000;fill-rule:evenodd;fill-opacity:1;stroke:none;" />
</svg>
