<?xml version="1.0" encoding="UTF-8" standalone="no"?>
<svg
   xmlns:dc="http://purl.org/dc/elements/1.1/"
   xmlns:cc="http://creativecommons.org/ns#"
   xmlns:rdf="http://www.w3.org/1999/02/22-rdf-syntax-ns#"
   xmlns:svg="http://www.w3.org/2000/svg"
   xmlns="http://www.w3.org/2000/svg"
   id="svg45"
   height="95.75mm"
   width="95.75mm"
   version="1.0">
  <metadata
     id="metadata49">
    <rdf:RDF>
      <cc:Work
         rdf:about="">
        <dc:format>image/svg+xml</dc:format>
        <dc:type
           rdf:resource="http://purl.org/dc/dcmitype/StillImage" />
      </cc:Work>
    </rdf:RDF>
  </metadata>
  <defs
     id="defs3">
    <pattern
       y="0"
       x="0"
       height="6"
       width="6"
       patternUnits="userSpaceOnUse"
       id="EMFhbasepattern" />
  </defs>
  <path
     id="path5"
     d="  M 132.98634,15.983936   L 132.98634,54.345381   L 228.88996,54.345381   L 228.88996,15.983936   L 132.98634,15.983936   z "
     style="fill:#000000;fill-rule:evenodd;fill-opacity:1;stroke:none;" />
  <path
     id="path7"
     d="  M 54.345381,54.345381   L 54.345381,307.53092   L 307.53092,307.53092   L 307.53092,54.345381   L 54.345381,54.345381   z "
     style="fill:#aaffaa;fill-rule:evenodd;fill-opacity:1;stroke:none;" />
  <path
     id="path9"
     d="  M 54.345381,54.345381   L 307.53092,54.345381   L 307.53092,307.53092   L 54.345381,307.53092   z "
     style="fill:none;stroke:#000000;stroke-width:9.5903616px;stroke-linecap:butt;stroke-linejoin:miter;stroke-miterlimit:10;stroke-dasharray:none;stroke-opacity:1;" />
  <path
     id="path11"
     d="  M 171.30783,179.77931   L 188.09096,179.77931   C 189.48956,179.77931 198.76024,165.35381 200.11887,163.39578   L 159.31988,163.39578   C 160.71847,165.47369 169.7494,179.77931 171.30783,179.77931   z "
     style="fill:#000000;fill-rule:evenodd;fill-opacity:1;stroke:none;" />
  <path
     id="path13"
     d="  M 149.36988,169.07008   L 159.31988,185.77329   C 160.03915,185.61345 161.31787,185.33373 161.31787,184.5745   C 161.31787,183.21586 152.40683,171.14799 151.68755,168.11104   z "
     style="fill:#000000;fill-rule:evenodd;fill-opacity:1;stroke:none;" />
  <path
     id="path15"
     d="  M 198.12088,184.1749   C 198.12088,185.49357 198.92008,185.69337 199.83915,185.61345   L 210.02891,169.15   L 208.51044,168.19096   C 207.87108,168.63052 198.12088,183.9751 198.12088,184.1749   z "
     style="fill:#000000;fill-rule:evenodd;fill-opacity:1;stroke:none;" />
  <path
     id="path17"
     d="  M 168.11104,188.57048   L 168.11104,188.57048   L 191.32771,188.57048   L 191.32771,186.17289   L 168.11104,186.17289   z "
     style="fill:#000000;fill-rule:evenodd;fill-opacity:1;stroke:none;" />
  <path
     id="path19"
     d="  M 204.43454,194.92409   L 204.43454,194.92409   L 206.79217,195.72329   L 222.09678,170.58855   L 220.21867,169.86927   z "
     style="fill:#000000;fill-rule:evenodd;fill-opacity:1;stroke:none;" />
  <path
     id="path21"
     d="  M 137.34197,170.62851   L 137.34197,170.62851   L 153.3259,195.76325   L 155.00421,194.92409   L 138.94036,169.78935   z "
     style="fill:#000000;fill-rule:evenodd;fill-opacity:1;stroke:none;" />
  <path
     id="path23"
     d="  M 160.11907,198.56044   L 160.11907,198.56044   L 199.71927,198.56044   L 199.71927,196.16285   L 160.11907,196.16285   z "
     style="fill:#000000;fill-rule:evenodd;fill-opacity:1;stroke:none;" />
  <path
     id="path25"
     d="  M 125.35401,172.58654   C 125.35401,173.38574 134.2251,186.69237 135.34397,188.61044   C 136.22309,190.12891 145.37389,204.55441 145.73353,204.55441   C 146.81245,204.55441 146.93233,203.99498 147.37189,203.35562   L 126.95241,171.38775   C 126.43293,171.66747 125.35401,171.94719 125.35401,172.58654   z "
     style="fill:#000000;fill-rule:evenodd;fill-opacity:1;stroke:none;" />
  <path
     id="path27"
     d="  M 212.06686,203.35562   L 212.06686,203.35562   L 213.94498,204.87409   L 234.44437,172.30682   L 232.48634,171.38775   z "
     style="fill:#000000;fill-rule:evenodd;fill-opacity:1;stroke:none;" />
  <path
     id="path29"
     d="  M 95.743774,208.1508   L 96.54297,202.55642   C 95.743774,202.55642 95.743774,206.91205 95.743774,208.1508   z "
     style="fill:#ffffff;fill-rule:evenodd;fill-opacity:1;stroke:none;" />
  <path
     id="path31"
     d="  M 151.72751,208.59036   L 151.72751,208.59036   L 208.11084,208.59036   L 208.11084,206.15281   L 151.72751,206.15281   z "
     style="fill:#000000;fill-rule:evenodd;fill-opacity:1;stroke:none;" />
  <path
     id="path33"
     d="  M 102.17731,212.18674   C 102.89658,212.18674 102.9765,206.67229 102.9765,205.35361   z "
     style="fill:#000000;fill-rule:evenodd;fill-opacity:1;stroke:none;" />
  <path
     id="path35"
     d="  M 142.93634,216.18273   L 216.50241,216.18273   L 216.50241,218.97992   L 142.93634,218.97992   z  M 151.72751,206.15281   L 208.11084,206.15281   L 208.11084,208.59036   L 151.72751,208.59036   z  M 160.11907,196.16285   L 199.71927,196.16285   L 199.71927,198.56044   L 160.11907,198.56044   z  M 168.11104,186.17289   L 191.32771,186.17289   L 191.32771,188.57048   L 168.11104,188.57048   z  M 221.69719,213.78514   L 219.05984,212.8261   L 244.47429,172.98614   C 245.19357,173.14598 246.47229,173.4257 246.47229,174.18494   C 246.47229,174.94417 235.52329,191.40763 234.16466,193.84518   C 231.88694,198.001 222.53634,210.62831 221.69719,213.78514   z  M 112.88654,173.8253   L 115.24418,172.8263   L 140.09919,212.86606   L 138.18112,213.74518   z  M 145.73353,204.55441   C 145.37389,204.55441 136.22309,190.12891 135.34397,188.61044   C 134.2251,186.69237 125.35401,173.38574 125.35401,172.58654   C 125.35401,171.94719 126.43293,171.66747 126.95241,171.38775   L 147.37189,203.35562   C 146.93233,203.99498 146.81245,204.55441 145.73353,204.55441   z  M 232.48634,171.38775   L 234.44437,172.30682   L 213.94498,204.87409   L 212.06686,203.35562   z  M 220.21867,169.86927   L 222.09678,170.58855   L 206.79217,195.72329   L 204.43454,194.92409   z  M 138.94036,169.78935   L 155.00421,194.92409   L 153.3259,195.76325   L 137.34197,170.62851   z  M 198.12088,184.1749   C 198.12088,183.9751 207.87108,168.63052 208.51044,168.19096   L 210.02891,169.15   L 199.83915,185.61345   C 198.92008,185.69337 198.12088,185.49357 198.12088,184.1749   z  M 151.68755,168.11104   C 152.40683,171.14799 161.31787,183.21586 161.31787,184.5745   C 161.31787,185.33373 160.03915,185.61345 159.31988,185.77329   L 149.36988,169.07008   z  M 171.30783,179.77931   C 169.7494,179.77931 160.71847,165.47369 159.31988,163.39578   L 200.11887,163.39578   C 198.76024,165.35381 189.48956,179.77931 188.09096,179.77931   z  M 102.9765,205.35361   C 102.9765,206.67229 102.89658,212.18674 102.17731,212.18674   L 101.77771,224.1747   L 258.06064,224.1747   L 258.22048,218.93996   L 255.26345,192.96606   L 255.26345,190.56847   L 254.46425,190.56847   L 254.46425,188.97008   C 254.46425,184.65442 247.67108,163.4757 245.83293,160.03915   C 244.79397,158.12108 244.11466,155.60361 243.15562,153.5257   C 242.03674,151.16807 240.79799,149.52972 239.67911,147.41185   C 237.44136,143.09618 234.92389,139.97932 232.00682,136.30301   C 221.77711,123.31606 204.0749,111.80763 180.89819,111.80763   L 178.5006,111.80763   C 152.60662,111.80763 134.2251,125.87349 123.83554,141.49779   C 117.84156,150.48875 114.1253,159.12008 110.28916,170.30883   C 107.65181,178.02108 103.1763,195.96305 102.9765,205.35361   z "
     style="fill:#ffffff;fill-rule:evenodd;fill-opacity:1;stroke:none;" />
  <path
     id="path37"
     d="  M 221.69719,213.78514   C 222.53634,210.62831 231.88694,198.001 234.16466,193.84518   C 235.52329,191.40763 246.47229,174.94417 246.47229,174.18494   C 246.47229,173.4257 245.19357,173.14598 244.47429,172.98614   L 219.05984,212.8261   L 221.69719,213.78514   z "
     style="fill:#000000;fill-rule:evenodd;fill-opacity:1;stroke:none;" />
  <path
     id="path39"
     d="  M 138.18112,213.74518   L 138.18112,213.74518   L 140.09919,212.86606   L 115.24418,172.8263   L 112.88654,173.8253   z "
     style="fill:#000000;fill-rule:evenodd;fill-opacity:1;stroke:none;" />
  <path
     id="path41"
     d="  M 142.93634,218.97992   L 142.93634,218.97992   L 216.50241,218.97992   L 216.50241,216.18273   L 142.93634,216.18273   z "
     style="fill:#000000;fill-rule:evenodd;fill-opacity:1;stroke:none;" />
  <path
     id="path43"
     d="  M 102.17731,212.18674   L 102.9765,205.35361   C 103.1763,195.96305 107.65181,178.02108 110.28916,170.30883   C 114.1253,159.12008 117.84156,150.48875 123.83554,141.49779   C 134.2251,125.87349 152.60662,111.80763 178.5006,111.80763   L 180.89819,111.80763   C 204.0749,111.80763 221.77711,123.31606 232.00682,136.30301   C 234.92389,139.97932 237.44136,143.09618 239.67911,147.41185   C 240.79799,149.52972 242.03674,151.16807 243.15562,153.5257   C 244.11466,155.60361 244.79397,158.12108 245.83293,160.03915   C 247.67108,163.4757 254.46425,184.65442 254.46425,188.97008   L 254.46425,190.56847   L 255.26345,190.56847   L 255.26345,192.96606   L 258.22048,218.93996   L 258.06064,224.1747   L 101.77771,224.1747   L 102.17731,212.18674   z  M 96.54297,202.55642   L 95.743774,208.1508   L 94.944577,221.77711   L 94.944577,230.96787   L 264.85381,230.96787   L 264.85381,228.57028   C 264.85381,223.69518 265.05361,213.34558 264.29437,209.10984   C 263.29538,203.31566 263.05562,196.80221 261.81686,191.20783   C 260.73795,186.25281 254.74397,160.71847 252.46626,159.7994   C 252.46626,156.00321 244.11466,141.61767 242.0767,138.62068   C 237.88092,132.34699 233.1257,126.55281 227.21164,121.87751   C 215.34357,112.52691 202.03694,105.01446 180.89819,105.01446   L 178.5006,105.01446   C 150.32891,105.01446 131.54779,119.2002 119.5998,135.66365   C 116.24317,140.21907 113.96546,144.73454 111.36807,149.80944   C 108.57088,155.24397 107.29217,159.95923 104.9745,165.79337   C 102.05743,173.10602 96.78273,193.04598 96.54297,202.55642   z "
     style="fill:#000000;fill-rule:evenodd;fill-opacity:1;stroke:none;" />
</svg>
