<?xml version="1.0" encoding="UTF-8" standalone="no"?>
<svg
   xmlns:dc="http://purl.org/dc/elements/1.1/"
   xmlns:cc="http://creativecommons.org/ns#"
   xmlns:rdf="http://www.w3.org/1999/02/22-rdf-syntax-ns#"
   xmlns:svg="http://www.w3.org/2000/svg"
   xmlns="http://www.w3.org/2000/svg"
   id="svg15"
   height="112.9mm"
   width="112.9mm"
   version="1.0">
  <metadata
     id="metadata19">
    <rdf:RDF>
      <cc:Work
         rdf:about="">
        <dc:format>image/svg+xml</dc:format>
        <dc:type
           rdf:resource="http://purl.org/dc/dcmitype/StillImage" />
      </cc:Work>
    </rdf:RDF>
  </metadata>
  <defs
     id="defs3">
    <pattern
       y="0"
       x="0"
       height="6"
       width="6"
       patternUnits="userSpaceOnUse"
       id="EMFhbasepattern" />
  </defs>
  <path
     id="path5"
     d="  M 391.92062,391.38808   L 541.15652,391.38808   L 541.15652,583.2682   L 391.92062,583.2682   L 391.92062,391.38808   z "
     style="fill:none;stroke:#000000;stroke-width:5.3258066px;stroke-linecap:butt;stroke-linejoin:miter;stroke-miterlimit:112;stroke-dasharray:none;stroke-opacity:1;" />
  <path
     id="path7"
     d="  M 391.92062,584.36358   L 466.51969,684.53407   L 541.15652,584.36358  "
     style="fill:none;stroke:#000000;stroke-width:5.3258066px;stroke-linecap:butt;stroke-linejoin:miter;stroke-miterlimit:112;stroke-dasharray:none;stroke-opacity:1;" />
  <path
     id="path9"
     d="  M 405.51842,455.3733   L 405.51842,409.59403   L 438.60641,409.59403   L 438.60641,414.99538   L 411.56189,414.99538   L 411.56189,429.00867   L 436.90669,429.00867   L 436.90669,434.37225   L 411.56189,434.37225   L 411.56189,449.97195   L 439.66402,449.97195   L 439.66402,455.3733   L 405.51842,455.3733   z "
     style="fill:#000000;fill-rule:nonzero;fill-opacity:1;stroke:#000000;stroke-width:1.0576069px;stroke-linecap:butt;stroke-linejoin:miter;stroke-miterlimit:112;stroke-dasharray:none;stroke-opacity:1;" />
  <path
     id="path11"
     d="  M 448.20042,455.3733   L 448.20042,409.59403   L 468.48381,409.59403   C 472.56315,409.59403 475.66043,409.97174 477.81342,410.80272   C 479.92863,411.6337 481.62836,413.06902 482.87482,415.18423   C 484.15906,417.26168 484.80118,419.56575 484.80118,422.05868   C 484.80118,425.30704 483.74357,428.06438 481.62836,430.29291   C 479.55091,432.52143 476.30255,433.91899 471.88326,434.52333   C 473.50745,435.31654 474.71614,436.07197 475.54712,436.82741   C 477.32239,438.45159 478.98434,440.45349 480.57075,442.90865   L 488.54057,455.3733   L 480.91069,455.3733   L 474.86723,445.81706   C 473.09196,443.0975 471.65663,440.98229 470.48571,439.50919   C 469.35256,438.07387 468.33273,437.05404 467.42621,436.44969   C 466.51969,435.88311 465.57539,435.46763 464.66887,435.24099   C 463.95121,435.08991 462.85583,435.01436 461.26942,435.01436   L 454.24389,435.01436   L 454.24389,455.3733   L 448.20042,455.3733   z  M 454.24389,429.7641   L 467.27512,429.7641   C 470.03245,429.7641 472.22321,429.4997 473.77185,428.93312   C 475.32049,428.36655 476.52918,427.42226 477.32239,426.17579   C 478.15336,424.92933 478.56885,423.53177 478.56885,422.05868   C 478.56885,419.90569 477.77565,418.13042 476.18923,416.73287   C 474.6406,415.33532 472.14767,414.61766 468.74821,414.61766   L 454.24389,414.61766   L 454.24389,429.7641   z "
     style="fill:#000000;fill-rule:nonzero;fill-opacity:1;stroke:#000000;stroke-width:1.0576069px;stroke-linecap:butt;stroke-linejoin:miter;stroke-miterlimit:112;stroke-dasharray:none;stroke-opacity:1;" />
  <path
     id="path13"
     d="  M 494.31964,455.3733   L 494.31964,409.59403   L 511.5813,409.59403   C 514.6408,409.59403 516.94488,409.70734 518.56906,410.00951   C 520.79759,410.38723 522.68617,411.10489 524.19704,412.1625   C 525.74568,413.22011 526.95437,414.6932 527.89866,416.58179   C 528.80518,418.47037 529.25844,420.54781 529.25844,422.81411   C 529.25844,426.7046 528.04975,429.99073 525.55682,432.71029   C 523.06389,435.39208 518.60683,436.75186 512.1101,436.75186   L 500.40088,436.75186   L 500.40088,455.3733   L 494.31964,455.3733   z  M 500.40088,431.35051   L 512.22342,431.35051   C 516.1139,431.35051 518.909,430.63285 520.57096,429.15975   C 522.19514,427.68666 523.02612,425.64699 523.02612,423.00297   C 523.02612,421.07662 522.53508,419.45243 521.55302,418.09265   C 520.60873,416.73287 519.32449,415.82635 517.73808,415.37309   C 516.71825,415.10869 514.82966,414.99538 512.1101,414.99538   L 500.40088,414.99538   L 500.40088,431.35051   z "
     style="fill:#000000;fill-rule:nonzero;fill-opacity:1;stroke:#000000;stroke-width:1.0576069px;stroke-linecap:butt;stroke-linejoin:miter;stroke-miterlimit:112;stroke-dasharray:none;stroke-opacity:1;" />
</svg>
