<?xml version="1.0" encoding="UTF-8" standalone="no"?>
<svg
   xmlns:dc="http://purl.org/dc/elements/1.1/"
   xmlns:cc="http://creativecommons.org/ns#"
   xmlns:rdf="http://www.w3.org/1999/02/22-rdf-syntax-ns#"
   xmlns:svg="http://www.w3.org/2000/svg"
   xmlns="http://www.w3.org/2000/svg"
   id="svg15"
   height="112.9mm"
   width="112.9mm"
   version="1.0">
  <metadata
     id="metadata19">
    <rdf:RDF>
      <cc:Work
         rdf:about="">
        <dc:format>image/svg+xml</dc:format>
        <dc:type
           rdf:resource="http://purl.org/dc/dcmitype/StillImage" />
      </cc:Work>
    </rdf:RDF>
  </metadata>
  <defs
     id="defs3">
    <pattern
       y="0"
       x="0"
       height="6"
       width="6"
       patternUnits="userSpaceOnUse"
       id="EMFhbasepattern" />
  </defs>
  <path
     id="path5"
     d="  M 1055.3824,1055.5085   L 1203.488,1055.5085   L 1203.488,1246.2484   L 1055.3824,1246.2484   z "
     style="fill:none;stroke:#ffff00;stroke-width:5.3245535px;stroke-linecap:butt;stroke-linejoin:miter;stroke-miterlimit:282;stroke-dasharray:none;stroke-opacity:1;" />
  <path
     id="path7"
     d="  M 1055.3824,1248.4386   L 1129.9639,1348.5855   L 1204.5832,1248.4386  "
     style="fill:none;stroke:#ffff00;stroke-width:5.3245535px;stroke-linecap:butt;stroke-linejoin:miter;stroke-miterlimit:282;stroke-dasharray:none;stroke-opacity:1;" />
  <path
     id="path9"
     d="  M 1068.977,1119.4787   L 1068.977,1073.7102   L 1102.0572,1073.7102   L 1102.0572,1079.1103   L 1075.019,1079.1103   L 1075.019,1093.1203   L 1100.3579,1093.1203   L 1100.3579,1098.4826   L 1075.019,1098.4826   L 1075.019,1114.0786   L 1103.1146,1114.0786   L 1103.1146,1119.4787   z "
     style="fill:#ffff00;fill-rule:nonzero;fill-opacity:1;stroke:#ffff00;stroke-width:1.0573581px;stroke-linecap:butt;stroke-linejoin:miter;stroke-miterlimit:282;stroke-dasharray:none;stroke-opacity:1;" />
  <path
     id="path11"
     d="  M 1111.6489,1119.4787   L 1111.6489,1073.7102   L 1131.9276,1073.7102   C 1136.0059,1073.7102 1139.1025,1074.0878 1141.255,1074.9186   C 1143.3697,1075.7494 1145.069,1077.1844 1146.3152,1079.2991   C 1147.5991,1081.376 1148.2411,1083.6796 1148.2411,1086.1719   C 1148.2411,1089.4195 1147.1837,1092.1762 1145.069,1094.4042   C 1142.9921,1096.6322 1139.7445,1098.0294 1135.3262,1098.6336   C 1136.95,1099.4266 1138.1584,1100.1819 1138.9892,1100.9372   C 1140.7641,1102.561 1142.4256,1104.5624 1144.0117,1107.017   L 1151.9796,1119.4787   L 1144.3515,1119.4787   L 1138.3095,1109.9247   C 1136.5346,1107.2058 1135.0996,1105.0911 1133.929,1103.6183   C 1132.7961,1102.1833 1131.7765,1101.1637 1130.8702,1100.5595   C 1129.9639,1099.9931 1129.0198,1099.5777 1128.1135,1099.3511   C 1127.396,1099.2001 1126.3009,1099.1245 1124.7149,1099.1245   L 1117.691,1099.1245   L 1117.691,1119.4787   z  M 1117.691,1093.8755   L 1130.7191,1093.8755   C 1133.4758,1093.8755 1135.6661,1093.6112 1137.2143,1093.0447   C 1138.7626,1092.4783 1139.971,1091.5342 1140.7641,1090.2881   C 1141.5948,1089.0419 1142.0102,1087.6447 1142.0102,1086.1719   C 1142.0102,1084.0194 1141.2172,1082.2446 1139.6312,1080.8474   C 1138.0829,1079.4501 1135.5905,1078.7326 1132.1919,1078.7326   L 1117.691,1078.7326   z "
     style="fill:#ffff00;fill-rule:nonzero;fill-opacity:1;stroke:#ffff00;stroke-width:1.0573581px;stroke-linecap:butt;stroke-linejoin:miter;stroke-miterlimit:282;stroke-dasharray:none;stroke-opacity:1;" />
  <path
     id="path13"
     d="  M 1157.7573,1119.4787   L 1157.7573,1073.7102   L 1175.0149,1073.7102   C 1178.0737,1073.7102 1180.3772,1073.8235 1182.001,1074.1256   C 1184.229,1074.5032 1186.1172,1075.2207 1187.6277,1076.2781   C 1189.1759,1077.3354 1190.3844,1078.8082 1191.3284,1080.6963   C 1192.2347,1082.5844 1192.6879,1084.6614 1192.6879,1086.9272   C 1192.6879,1090.8167 1191.4795,1094.1021 1188.9871,1096.821   C 1186.4948,1099.5022 1182.0388,1100.8616 1175.5436,1100.8616   L 1163.8371,1100.8616   L 1163.8371,1119.4787   z  M 1163.8371,1095.4616   L 1175.6569,1095.4616   C 1179.5464,1095.4616 1182.3409,1094.7441 1184.0024,1093.2713   C 1185.6262,1091.7986 1186.457,1089.7594 1186.457,1087.116   C 1186.457,1085.1901 1185.9661,1083.5663 1184.9843,1082.2068   C 1184.0402,1080.8474 1182.7563,1079.941 1181.1702,1079.4879   C 1180.1506,1079.2236 1178.2625,1079.1103 1175.5436,1079.1103   L 1163.8371,1079.1103   z "
     style="fill:#ffff00;fill-rule:nonzero;fill-opacity:1;stroke:#ffff00;stroke-width:1.0573581px;stroke-linecap:butt;stroke-linejoin:miter;stroke-miterlimit:282;stroke-dasharray:none;stroke-opacity:1;" />
</svg>
