<?xml version="1.0" encoding="UTF-8" standalone="no"?>
<svg
   xmlns:dc="http://purl.org/dc/elements/1.1/"
   xmlns:cc="http://creativecommons.org/ns#"
   xmlns:rdf="http://www.w3.org/1999/02/22-rdf-syntax-ns#"
   xmlns:svg="http://www.w3.org/2000/svg"
   xmlns="http://www.w3.org/2000/svg"
   id="svg15"
   height="112.9mm"
   width="112.9mm"
   version="1.0">
  <metadata
     id="metadata19">
    <rdf:RDF>
      <cc:Work
         rdf:about="">
        <dc:format>image/svg+xml</dc:format>
        <dc:type
           rdf:resource="http://purl.org/dc/dcmitype/StillImage" />
      </cc:Work>
    </rdf:RDF>
  </metadata>
  <defs
     id="defs3">
    <pattern
       y="0"
       x="0"
       height="6"
       width="6"
       patternUnits="userSpaceOnUse"
       id="EMFhbasepattern" />
  </defs>
  <path
     id="path5"
     d="  M 1055.3824,1055.5085   L 1203.488,1055.5085   L 1203.488,1246.2484   L 1055.3824,1246.2484   z "
     style="fill:none;stroke:#ff0000;stroke-width:5.3245535px;stroke-linecap:butt;stroke-linejoin:miter;stroke-miterlimit:282;stroke-dasharray:none;stroke-opacity:1;" />
  <path
     id="path7"
     d="  M 1055.3824,1248.4386   L 1129.9639,1348.5855   L 1204.5832,1248.4386  "
     style="fill:none;stroke:#ff0000;stroke-width:5.3245535px;stroke-linecap:butt;stroke-linejoin:miter;stroke-miterlimit:282;stroke-dasharray:none;stroke-opacity:1;" />
  <path
     id="path9"
     d="  M 1068.1084,1119.4787   L 1068.1084,1073.7102   L 1101.2264,1073.7102   L 1101.2264,1079.1103   L 1074.1505,1079.1103   L 1074.1505,1093.1203   L 1099.4893,1093.1203   L 1099.4893,1098.4826   L 1074.1505,1098.4826   L 1074.1505,1114.0786   L 1102.2838,1114.0786   L 1102.2838,1119.4787   z "
     style="fill:#ff0000;fill-rule:nonzero;fill-opacity:1;stroke:#ff0000;stroke-width:1.0573581px;stroke-linecap:butt;stroke-linejoin:miter;stroke-miterlimit:282;stroke-dasharray:none;stroke-opacity:1;" />
  <path
     id="path11"
     d="  M 1110.7804,1119.4787   L 1110.7804,1073.7102   L 1131.0968,1073.7102   C 1135.1752,1073.7102 1138.2717,1074.0878 1140.3864,1074.9186   C 1142.5011,1075.7494 1144.2005,1077.1844 1145.4844,1079.2991   C 1146.7683,1081.376 1147.3725,1083.6796 1147.3725,1086.1719   C 1147.3725,1089.4195 1146.3529,1092.1762 1144.2382,1094.4042   C 1142.1235,1096.6322 1138.8759,1098.0294 1134.4954,1098.6336   C 1136.0815,1099.4266 1137.3276,1100.1819 1138.1584,1100.9372   C 1139.9333,1102.561 1141.5948,1104.5624 1143.1809,1107.017   L 1151.1488,1119.4787   L 1143.5207,1119.4787   L 1137.4409,1109.9247   C 1135.7038,1107.2058 1134.2311,1105.0911 1133.0982,1103.6183   C 1131.9276,1102.1833 1130.908,1101.1637 1130.0017,1100.5595   C 1129.0954,1099.9931 1128.189,1099.5777 1127.245,1099.3511   C 1126.5652,1099.2001 1125.4324,1099.1245 1123.8841,1099.1245   L 1116.8602,1099.1245   L 1116.8602,1119.4787   z  M 1116.8602,1093.8755   L 1129.8884,1093.8755   C 1132.6451,1093.8755 1134.7975,1093.6112 1136.3836,1093.0447   C 1137.9318,1092.4783 1139.1025,1091.5342 1139.9333,1090.2881   C 1140.7263,1089.0419 1141.1417,1087.6447 1141.1417,1086.1719   C 1141.1417,1084.0194 1140.3487,1082.2446 1138.8004,1080.8474   C 1137.2143,1079.4501 1134.722,1078.7326 1131.3234,1078.7326   L 1116.8602,1078.7326   z "
     style="fill:#ff0000;fill-rule:nonzero;fill-opacity:1;stroke:#ff0000;stroke-width:1.0573581px;stroke-linecap:butt;stroke-linejoin:miter;stroke-miterlimit:282;stroke-dasharray:none;stroke-opacity:1;" />
  <path
     id="path13"
     d="  M 1156.9265,1119.4787   L 1156.9265,1073.7102   L 1174.1841,1073.7102   C 1177.2051,1073.7102 1179.5464,1073.8235 1181.1325,1074.1256   C 1183.3982,1074.5032 1185.2864,1075.2207 1186.7969,1076.2781   C 1188.3074,1077.3354 1189.5158,1078.8082 1190.4599,1080.6963   C 1191.404,1082.5844 1191.8571,1084.6614 1191.8571,1086.9272   C 1191.8571,1090.8167 1190.6109,1094.1021 1188.1186,1096.821   C 1185.664,1099.5022 1181.1702,1100.8616 1174.7128,1100.8616   L 1162.9686,1100.8616   L 1162.9686,1119.4787   z  M 1162.9686,1095.4616   L 1174.7883,1095.4616   C 1178.7157,1095.4616 1181.5101,1094.7441 1183.1339,1093.2713   C 1184.7955,1091.7986 1185.5885,1089.7594 1185.5885,1087.116   C 1185.5885,1085.1901 1185.1353,1083.5663 1184.1535,1082.2068   C 1183.1717,1080.8474 1181.9255,1079.941 1180.3395,1079.4879   C 1179.3199,1079.2236 1177.4317,1079.1103 1174.675,1079.1103   L 1162.9686,1079.1103   z "
     style="fill:#ff0000;fill-rule:nonzero;fill-opacity:1;stroke:#ff0000;stroke-width:1.0573581px;stroke-linecap:butt;stroke-linejoin:miter;stroke-miterlimit:282;stroke-dasharray:none;stroke-opacity:1;" />
</svg>
