<?xml version="1.0" encoding="UTF-8" standalone="no"?>
<svg
   xmlns:dc="http://purl.org/dc/elements/1.1/"
   xmlns:cc="http://creativecommons.org/ns#"
   xmlns:rdf="http://www.w3.org/1999/02/22-rdf-syntax-ns#"
   xmlns:svg="http://www.w3.org/2000/svg"
   xmlns="http://www.w3.org/2000/svg"
   id="svg9"
   height="112.9mm"
   width="112.9mm"
   version="1.0">
  <metadata
     id="metadata13">
    <rdf:RDF>
      <cc:Work
         rdf:about="">
        <dc:format>image/svg+xml</dc:format>
        <dc:type
           rdf:resource="http://purl.org/dc/dcmitype/StillImage" />
      </cc:Work>
    </rdf:RDF>
  </metadata>
  <defs
     id="defs3">
    <pattern
       y="0"
       x="0"
       height="6"
       width="6"
       patternUnits="userSpaceOnUse"
       id="EMFhbasepattern" />
  </defs>
  <path
     id="path5"
     d="  M 818.03994,999.23068   C 818.03994,1121.8375 999.23068,1121.8375 999.23068,999.23068   C 1121.8375,999.23068 1121.8375,818.03994 999.23068,818.03994   C 999.23068,695.43307 818.03994,695.43307 818.03994,818.03994   C 695.43307,818.03994 695.43307,999.23068 818.03994,999.23068   z "
     style="fill:#ffff80;fill-rule:nonzero;fill-opacity:1;stroke:#000000;stroke-width:10.651613px;stroke-linecap:butt;stroke-linejoin:miter;stroke-miterlimit:112;stroke-dasharray:none;stroke-opacity:1;" />
  <path
     id="path7"
     d="  M 1004.1788,909.52294   C 1002.8945,909.25854 997.64427,911.33598 988.46575,915.64196   C 982.57337,918.21043 975.77447,922.17646 968.10682,927.54003   C 939.96692,946.16147 920.13678,971.31741 908.65419,1002.9701   C 908.12539,1002.9701 907.36996,1002.328 906.35012,1001.0815   C 901.96861,987.29483 894.18764,973.47039 882.93168,959.68373   C 871.14692,944.87723 857.58689,932.63921 842.25158,922.93189   C 835.07497,918.32374 825.21656,913.75337 812.67636,909.14523   C 812.4875,908.61642 812.4875,908.23871 812.67636,907.9743   C 816.00027,906.46344 820.4951,904.53708 826.12308,902.23301   C 840.70295,897.39823 856.22711,886.29336 872.73333,868.91839   C 889.23955,851.54342 900.04225,835.22605 905.1792,819.89075   C 905.93463,817.85108 907.10556,815.81141 908.61642,813.77174   C 913.48897,828.84264 922.70526,844.51788 936.26529,860.87302   C 950.58076,878.5124 965.31171,891.01482 980.38261,898.41807   C 983.70652,899.96671 989.10787,902.3841 996.51112,905.67023   C 998.81519,905.93463 1001.3459,907.21887 1004.1788,909.52294   z "
     style="fill:#000000;fill-rule:nonzero;fill-opacity:1;stroke:none;" />
</svg>
