<?xml version="1.0" encoding="UTF-8" standalone="no"?>
<svg
   xmlns:dc="http://purl.org/dc/elements/1.1/"
   xmlns:cc="http://creativecommons.org/ns#"
   xmlns:rdf="http://www.w3.org/1999/02/22-rdf-syntax-ns#"
   xmlns:svg="http://www.w3.org/2000/svg"
   xmlns="http://www.w3.org/2000/svg"
   id="svg9"
   height="112.9mm"
   width="112.9mm"
   version="1.0">
  <metadata
     id="metadata13">
    <rdf:RDF>
      <cc:Work
         rdf:about="">
        <dc:format>image/svg+xml</dc:format>
        <dc:type
           rdf:resource="http://purl.org/dc/dcmitype/StillImage" />
      </cc:Work>
    </rdf:RDF>
  </metadata>
  <defs
     id="defs3">
    <pattern
       y="0"
       x="0"
       height="6"
       width="6"
       patternUnits="userSpaceOnUse"
       id="EMFhbasepattern" />
  </defs>
  <path
     id="path5"
     d="  M 695.06203,695.06203   L 976.4988,695.06203   L 976.4988,976.4988   L 695.06203,976.4988   L 695.06203,695.06203   z "
     style="fill:#aaffaa;fill-rule:nonzero;fill-opacity:1;stroke:#000000;stroke-width:10.651613px;stroke-linecap:butt;stroke-linejoin:miter;stroke-miterlimit:112;stroke-dasharray:none;stroke-opacity:1;" />
  <path
     id="path7"
     d="  M 931.32388,836.66805   C 930.03964,836.40365 924.78938,838.48109 915.61086,842.78706   C 909.71848,845.35554 902.91957,849.32156 895.25192,854.68514   C 867.11202,873.30658 847.28189,898.46252 835.7993,930.11518   C 835.2705,930.11518 834.51506,929.47306 833.49523,928.2266   C 829.11371,914.43994 821.33275,900.6155 810.07679,886.82884   C 798.29202,872.02234 784.73199,859.78432 769.39669,850.077   C 762.22007,845.46885 752.36166,840.89848 739.82147,836.29033   C 739.63261,835.76153 739.63261,835.38381 739.82147,835.11941   C 743.14537,833.60854 747.6402,831.68219 753.26818,829.37812   C 767.84805,824.54334 783.37221,813.43847 799.87844,796.0635   C 816.38466,778.68852 827.18736,762.37116 832.32431,747.03586   C 833.07974,744.99619 834.25066,742.95652 835.76153,740.91685   C 840.63408,755.98775 849.85037,771.66299 863.4104,788.01813   C 877.72586,805.6575 892.45682,818.15993 907.52772,825.56318   C 910.85163,827.11182 916.25298,829.5292 923.65623,832.81534   C 925.9603,833.07974 928.491,834.36398 931.32388,836.66805   z "
     style="fill:#000000;fill-rule:nonzero;fill-opacity:1;stroke:none;" />
</svg>
