<?xml version="1.0" encoding="UTF-8" standalone="no"?>
<svg
   xmlns:dc="http://purl.org/dc/elements/1.1/"
   xmlns:cc="http://creativecommons.org/ns#"
   xmlns:rdf="http://www.w3.org/1999/02/22-rdf-syntax-ns#"
   xmlns:svg="http://www.w3.org/2000/svg"
   xmlns="http://www.w3.org/2000/svg"
   id="svg7"
   height="112.9mm"
   width="112.9mm"
   version="1.0">
  <metadata
     id="metadata11">
    <rdf:RDF>
      <cc:Work
         rdf:about="">
        <dc:format>image/svg+xml</dc:format>
        <dc:type
           rdf:resource="http://purl.org/dc/dcmitype/StillImage" />
      </cc:Work>
    </rdf:RDF>
  </metadata>
  <defs
     id="defs3">
    <pattern
       y="0"
       x="0"
       height="6"
       width="6"
       patternUnits="userSpaceOnUse"
       id="EMFhbasepattern" />
  </defs>
  <path
     id="path5"
     d="  M 192.01229,95.700671   C 190.72805,95.436269 185.47779,97.513712 176.29927,101.81968   C 170.40689,104.38816 163.60799,108.35418 155.94034,113.71776   C 127.80044,132.3392 107.97031,157.49514 96.487715,189.1478   C 95.958912,189.1478 95.203478,188.50568 94.183643,187.25922   C 89.802128,173.47256 82.021163,159.64812 70.765203,145.86146   C 58.980439,131.05496 45.420406,118.81694 30.085105,109.10962   C 22.908486,104.50147 13.050078,99.931099 0.50988098,95.322954   C 0.32102259,94.794151 0.32102259,94.416434 0.50988098,94.152032   C 3.8337887,92.641165 8.3286184,90.714809 13.956598,88.410737   C 28.536466,83.575962 44.060626,72.471089 60.566849,55.096117   C 77.073073,37.721145 87.875773,21.40378 93.012721,6.0684785   C 93.768155,4.0288079 94.939077,1.9891373 96.449944,-0.050533371   C 101.32249,15.020366 110.53878,30.695613 124.09881,47.050749   C 138.41428,64.690123 153.14523,77.192549 168.21613,84.595798   C 171.54004,86.144436 176.94139,88.561824 184.34464,91.84796   C 186.64871,92.112362 189.17941,93.396599 192.01229,95.700671   z "
     style="fill:#ffff80;fill-rule:nonzero;fill-opacity:1;stroke:none;" />
</svg>
