<?xml version="1.0" encoding="UTF-8" standalone="no"?>
<svg
   xmlns:dc="http://purl.org/dc/elements/1.1/"
   xmlns:cc="http://creativecommons.org/ns#"
   xmlns:rdf="http://www.w3.org/1999/02/22-rdf-syntax-ns#"
   xmlns:svg="http://www.w3.org/2000/svg"
   xmlns="http://www.w3.org/2000/svg"
   id="svg9"
   height="112.9mm"
   width="112.9mm"
   version="1.0">
  <metadata
     id="metadata13">
    <rdf:RDF>
      <cc:Work
         rdf:about="">
        <dc:format>image/svg+xml</dc:format>
        <dc:type
           rdf:resource="http://purl.org/dc/dcmitype/StillImage" />
      </cc:Work>
    </rdf:RDF>
  </metadata>
  <defs
     id="defs3">
    <pattern
       y="0"
       x="0"
       height="6"
       width="6"
       patternUnits="userSpaceOnUse"
       id="EMFhbasepattern" />
  </defs>
  <path
     id="path5"
     d="  M 1002.512,849.04565   C 1002.512,933.76752 933.76752,1002.5497 849.00787,1002.5497   C 764.286,1002.5497 695.50377,933.76752 695.50377,849.04565   C 695.50377,764.286 764.286,695.54155 849.00787,695.54155   C 933.76752,695.54155 1002.512,764.286 1002.512,849.04565   z "
     style="fill:#80e0ff;fill-rule:nonzero;fill-opacity:1;stroke:#000000;stroke-width:10.651613px;stroke-linecap:butt;stroke-linejoin:miter;stroke-miterlimit:112;stroke-dasharray:none;stroke-opacity:1;" />
  <path
     id="path7"
     d="  M 944.57022,849.91439   C 943.28598,849.64999 938.03572,851.72743 928.8572,856.03341   C 922.96482,858.60188 916.16592,862.56791 908.49827,867.93148   C 880.35837,886.55292 860.52824,911.70886 849.04565,943.36153   C 848.51684,943.36153 847.76141,942.71941 846.74157,941.47294   C 842.36006,927.68628 834.57909,913.86185 823.32313,900.07518   C 811.53837,885.26869 797.97834,873.03066 782.64304,863.32334   C 775.46642,858.7152 765.60801,854.14482 753.06781,849.53668   C 752.87895,849.00787 752.87895,848.63016 753.06781,848.36576   C 756.39172,846.85489 760.88655,844.92853 766.51453,842.62446   C 781.0944,837.78969 796.61856,826.68481 813.12478,809.30984   C 829.631,791.93487 840.4337,775.6175 845.57065,760.2822   C 846.32608,758.24253 847.49701,756.20286 849.00787,754.16319   C 853.88042,769.23409 863.09671,784.90934 876.65674,801.26447   C 890.97221,818.90385 905.70316,831.40627 920.77406,838.80952   C 924.09797,840.35816 929.49932,842.77555 936.90257,846.06168   C 939.20664,846.32608 941.73734,847.61032 944.57022,849.91439   z "
     style="fill:#000000;fill-rule:nonzero;fill-opacity:1;stroke:none;" />
</svg>
