<?xml version="1.0" encoding="UTF-8" standalone="no"?>
<svg
   xmlns:dc="http://purl.org/dc/elements/1.1/"
   xmlns:cc="http://creativecommons.org/ns#"
   xmlns:rdf="http://www.w3.org/1999/02/22-rdf-syntax-ns#"
   xmlns:svg="http://www.w3.org/2000/svg"
   xmlns="http://www.w3.org/2000/svg"
   id="svg9"
   height="112.9mm"
   width="112.9mm"
   version="1.0">
  <metadata
     id="metadata13">
    <rdf:RDF>
      <cc:Work
         rdf:about="">
        <dc:format>image/svg+xml</dc:format>
        <dc:type
           rdf:resource="http://purl.org/dc/dcmitype/StillImage" />
      </cc:Work>
    </rdf:RDF>
  </metadata>
  <defs
     id="defs3">
    <pattern
       y="0"
       x="0"
       height="6"
       width="6"
       patternUnits="userSpaceOnUse"
       id="EMFhbasepattern" />
  </defs>
  <path
     id="path5"
     d="  M 1224.045,1408.4841   L 1408.4841,1224.0828   L 1224.045,1039.6437   L 1039.6437,1224.0828   L 1224.045,1408.4841   z "
     style="fill:#ff8080;fill-rule:nonzero;fill-opacity:1;stroke:#000000;stroke-width:10.651613px;stroke-linecap:square;stroke-linejoin:miter;stroke-miterlimit:112;stroke-dasharray:none;stroke-opacity:1;" />
  <path
     id="path7"
     d="  M 1319.6073,1224.9515   C 1318.3231,1224.6871 1313.0728,1226.7646 1303.8943,1231.0705   C 1298.0019,1233.639 1291.203,1237.605 1283.5354,1242.9686   C 1255.3955,1261.59 1235.5654,1286.746 1224.0828,1318.3986   C 1223.554,1318.3986 1222.7985,1317.7565 1221.7787,1316.5101   C 1217.3972,1302.7234 1209.6162,1288.899 1198.3603,1275.1123   C 1186.5755,1260.3058 1173.0155,1248.0678 1157.6802,1238.3605   C 1150.5035,1233.7523 1140.6451,1229.1819 1128.1049,1224.5738   C 1127.9161,1224.045 1127.9161,1223.6673 1128.1049,1223.4029   C 1131.4288,1221.892 1135.9237,1219.9657 1141.5516,1217.6616   C 1156.1315,1212.8268 1171.6557,1201.7219 1188.1619,1184.347   C 1204.6681,1166.972 1215.4708,1150.6546 1220.6078,1135.3193   C 1221.3632,1133.2797 1222.5341,1131.24 1224.045,1129.2003   C 1228.9175,1144.2712 1238.1338,1159.9465 1251.6939,1176.3016   C 1266.0093,1193.941 1280.7403,1206.4434 1295.8112,1213.8466   C 1299.1351,1215.3953 1304.5364,1217.8127 1311.9397,1221.0988   C 1314.2438,1221.3632 1316.7745,1222.6474 1319.6073,1224.9515   z "
     style="fill:#000000;fill-rule:nonzero;fill-opacity:1;stroke:none;" />
</svg>
