<?xml version="1.0" encoding="UTF-8" standalone="no"?>
<svg
   xmlns:dc="http://purl.org/dc/elements/1.1/"
   xmlns:cc="http://creativecommons.org/ns#"
   xmlns:rdf="http://www.w3.org/1999/02/22-rdf-syntax-ns#"
   xmlns:svg="http://www.w3.org/2000/svg"
   xmlns="http://www.w3.org/2000/svg"
   id="svg11"
   height="122.82mm"
   width="122.83mm"
   version="1.0">
  <metadata
     id="metadata15">
    <rdf:RDF>
      <cc:Work
         rdf:about="">
        <dc:format>image/svg+xml</dc:format>
        <dc:type
           rdf:resource="http://purl.org/dc/dcmitype/StillImage" />
      </cc:Work>
    </rdf:RDF>
  </metadata>
  <defs
     id="defs3">
    <pattern
       y="0"
       x="0"
       height="6"
       width="6"
       patternUnits="userSpaceOnUse"
       id="EMFhbasepattern" />
  </defs>
  <path
     id="path5"
     d="  M 78.640963,78.640963   L 78.640963,78.640963   L 78.640963,385.53252   L 385.53252,385.53252   L 385.53252,78.640963   z "
     style="fill:none;stroke:#000000;stroke-width:14.385542px;stroke-linecap:butt;stroke-linejoin:miter;stroke-miterlimit:10;stroke-dasharray:none;stroke-opacity:1;" />
  <path
     id="path7"
     d="  M 172.14699,192.1269   L 180.77831,165.55361   C 200.63835,172.54658 215.06385,178.58052 224.05482,183.69538   C 221.69719,161.11807 220.41847,145.57369 220.29859,137.06225   L 247.47128,137.06225   C 247.07168,149.4498 245.67309,164.91425 243.15562,183.53554   C 256.02269,177.02209 270.76787,171.02811 287.3512,165.55361   L 295.98253,192.1269   C 280.11847,197.4016 264.57409,200.87811 249.34939,202.63634   C 256.94176,209.22972 267.69096,221.05783 281.55702,238.04076   L 259.05963,253.94478   C 251.8269,244.0747 243.2755,230.68815 233.40542,213.66526   C 224.1747,231.28755 216.06285,244.71405 209.06988,253.94478   L 186.97209,238.04076   C 201.43755,220.17871 211.82711,208.39056 218.06084,202.63634   C 201.95703,199.51948 186.65241,196.00301 172.14699,192.1269   z "
     style="fill:#000000;fill-rule:evenodd;fill-opacity:1;stroke:none;" />
  <path
     id="path9"
     d="  M 319.55883,330.90742   L 319.55883,330.90742   L 343.89437,356.84136   L 366.91124,330.90742   L 348.44979,330.90742   L 348.44979,101.77771   L 339.97831,101.77771   L 339.97831,330.90742   z "
     style="fill:#000000;fill-rule:evenodd;fill-opacity:1;stroke:none;" />
</svg>
