<?xml version="1.0" encoding="UTF-8" standalone="no"?>
<svg
   xmlns:dc="http://purl.org/dc/elements/1.1/"
   xmlns:cc="http://creativecommons.org/ns#"
   xmlns:rdf="http://www.w3.org/1999/02/22-rdf-syntax-ns#"
   xmlns:svg="http://www.w3.org/2000/svg"
   xmlns="http://www.w3.org/2000/svg"
   id="svg21"
   height="112.9mm"
   width="112.9mm"
   version="1.0">
  <metadata
     id="metadata25">
    <rdf:RDF>
      <cc:Work
         rdf:about="">
        <dc:format>image/svg+xml</dc:format>
        <dc:type
           rdf:resource="http://purl.org/dc/dcmitype/StillImage" />
      </cc:Work>
    </rdf:RDF>
  </metadata>
  <defs
     id="defs3">
    <pattern
       y="0"
       x="0"
       height="6"
       width="6"
       patternUnits="userSpaceOnUse"
       id="EMFhbasepattern" />
  </defs>
  <path
     id="path5"
     d="  M 2959.9915,3144.0094   L 3144.0094,2960.0292   L 2959.9915,2776.0113   L 2776.0113,2960.0292   L 2959.9915,3144.0094   z "
     style="fill:#ff8080;fill-rule:nonzero;fill-opacity:1;stroke:#000000;stroke-width:10.627287px;stroke-linecap:square;stroke-linejoin:miter;stroke-miterlimit:282;stroke-dasharray:none;stroke-opacity:1;" />
  <path
     id="path7"
     d="  M 2886.015,2937.9078   L 2886.015,2896.793   L 2916.5025,2896.793   L 2916.5025,2903.7272   L 2894.3058,2903.7272   L 2894.3058,2912.847   L 2914.9574,2912.847   L 2914.9574,2919.7812   L 2894.3058,2919.7812   L 2894.3058,2930.9737   L 2917.2939,2930.9737   L 2917.2939,2937.9078   z "
     style="fill:#000000;fill-rule:nonzero;fill-opacity:1;stroke:none;" />
  <path
     id="path9"
     d="  M 2930.22,2937.9078   L 2920.3841,2896.793   L 2928.901,2896.793   L 2935.0814,2925.0194   L 2942.5808,2896.793   L 2952.4544,2896.793   L 2959.69,2925.5093   L 2965.9835,2896.793   L 2974.3496,2896.793   L 2964.363,2937.9078   L 2955.5446,2937.9078   L 2947.3669,2907.1565   L 2939.1891,2937.9078   z "
     style="fill:#000000;fill-rule:nonzero;fill-opacity:1;stroke:none;" />
  <path
     id="path11"
     d="  M 2899.3933,2878.3272   C 2838.7575,2878.3272 2838.7575,2990.6297 2899.3933,2990.6297   L 3020.6273,2990.6297   C 3081.2632,2990.6297 3081.2632,2878.3272 3020.6273,2878.3272   z "
     style="fill:none;stroke:#000000;stroke-width:9.7228365px;stroke-linecap:butt;stroke-linejoin:miter;stroke-miterlimit:282;stroke-dasharray:none;stroke-opacity:1;" />
  <path
     id="path13"
     d="  M 2888.7661,3007.8896   C 2888.7661,3015.5021 2882.548,3021.6825 2874.9355,3021.6825   C 2867.2854,3021.6825 2861.105,3015.5021 2861.105,3007.8896   C 2861.105,3000.2395 2867.2854,2994.0591 2874.9355,2994.0591   C 2882.548,2994.0591 2888.7661,3000.2395 2888.7661,3007.8896   z "
     style="fill:none;stroke:#000000;stroke-width:10.627287px;stroke-linecap:butt;stroke-linejoin:miter;stroke-miterlimit:282;stroke-dasharray:none;stroke-opacity:1;" />
  <path
     id="path15"
     d="  M 2973.822,3007.8896   C 2973.822,3015.5021 2967.6416,3021.6825 2959.9915,3021.6825   C 2952.379,3021.6825 2946.1986,3015.5021 2946.1986,3007.8896   C 2946.1986,3000.2395 2952.379,2994.0591 2959.9915,2994.0591   C 2967.6416,2994.0591 2973.822,3000.2395 2973.822,3007.8896   z "
     style="fill:none;stroke:#000000;stroke-width:10.627287px;stroke-linecap:butt;stroke-linejoin:miter;stroke-miterlimit:282;stroke-dasharray:none;stroke-opacity:1;" />
  <path
     id="path17"
     d="  M 3058.9157,3007.8896   C 3058.9157,3015.5021 3052.7353,3021.6825 3045.0852,3021.6825   C 3037.4727,3021.6825 3031.2546,3015.5021 3031.2546,3007.8896   C 3031.2546,3000.2395 3037.4727,2994.0591 3045.0852,2994.0591   C 3052.7353,2994.0591 3058.9157,3000.2395 3058.9157,3007.8896   z "
     style="fill:none;stroke:#000000;stroke-width:10.627287px;stroke-linecap:butt;stroke-linejoin:miter;stroke-miterlimit:282;stroke-dasharray:none;stroke-opacity:1;" />
  <path
     id="path19"
     d="  M 3070.6359,2885.5628   L 2849.3848,3034.4579  "
     style="fill:none;stroke:#000000;stroke-width:10.627287px;stroke-linecap:butt;stroke-linejoin:miter;stroke-miterlimit:282;stroke-dasharray:none;stroke-opacity:1;" />
</svg>
