<?xml version="1.0" encoding="UTF-8" standalone="no"?>
<svg
   xmlns:dc="http://purl.org/dc/elements/1.1/"
   xmlns:cc="http://creativecommons.org/ns#"
   xmlns:rdf="http://www.w3.org/1999/02/22-rdf-syntax-ns#"
   xmlns:svg="http://www.w3.org/2000/svg"
   xmlns="http://www.w3.org/2000/svg"
   id="svg21"
   height="112.9mm"
   width="112.9mm"
   version="1.0">
  <metadata
     id="metadata25">
    <rdf:RDF>
      <cc:Work
         rdf:about="">
        <dc:format>image/svg+xml</dc:format>
        <dc:type
           rdf:resource="http://purl.org/dc/dcmitype/StillImage" />
      </cc:Work>
    </rdf:RDF>
  </metadata>
  <defs
     id="defs3">
    <pattern
       y="0"
       x="0"
       height="6"
       width="6"
       patternUnits="userSpaceOnUse"
       id="EMFhbasepattern" />
  </defs>
  <path
     id="path5"
     d="  M 1859.0082,1858.8327   L 2241.892,1858.8327   L 2241.892,2114.076   L 1859.0082,2114.076   z "
     style="fill:#80e0ff;fill-rule:nonzero;fill-opacity:1;stroke:#000000;stroke-width:10.627287px;stroke-linecap:butt;stroke-linejoin:miter;stroke-miterlimit:282;stroke-dasharray:none;stroke-opacity:1;" />
  <path
     id="path7"
     d="  M 1976.4737,1964.3518   L 1976.4737,1923.237   L 2006.9612,1923.237   L 2006.9612,1930.1712   L 1984.7645,1930.1712   L 1984.7645,1939.291   L 2005.4161,1939.291   L 2005.4161,1946.2252   L 1984.7645,1946.2252   L 1984.7645,1957.4177   L 2007.7526,1957.4177   L 2007.7526,1964.3518   z "
     style="fill:#000000;fill-rule:nonzero;fill-opacity:1;stroke:none;" />
  <path
     id="path9"
     d="  M 2020.6787,1964.3518   L 2010.8428,1923.237   L 2019.3597,1923.237   L 2025.5401,1951.4634   L 2033.0395,1923.237   L 2042.913,1923.237   L 2050.1486,1951.9533   L 2056.4421,1923.237   L 2064.8083,1923.237   L 2054.8216,1964.3518   L 2046.0033,1964.3518   L 2037.8255,1933.6005   L 2029.6478,1964.3518   z "
     style="fill:#000000;fill-rule:nonzero;fill-opacity:1;stroke:none;" />
  <path
     id="path11"
     d="  M 1989.852,1904.7712   C 1929.2162,1904.7712 1929.2162,2017.0737 1989.852,2017.0737   L 2111.086,2017.0737   C 2171.7218,2017.0737 2171.7218,1904.7712 2111.086,1904.7712   z "
     style="fill:none;stroke:#000000;stroke-width:9.7228365px;stroke-linecap:butt;stroke-linejoin:miter;stroke-miterlimit:282;stroke-dasharray:none;stroke-opacity:1;" />
  <path
     id="path13"
     d="  M 1979.2247,2034.3336   C 1979.2247,2041.9461 1973.0066,2048.1265 1965.3942,2048.1265   C 1957.744,2048.1265 1951.5636,2041.9461 1951.5636,2034.3336   C 1951.5636,2026.6835 1957.744,2020.5031 1965.3942,2020.5031   C 1973.0066,2020.5031 1979.2247,2026.6835 1979.2247,2034.3336   z "
     style="fill:none;stroke:#000000;stroke-width:10.627287px;stroke-linecap:butt;stroke-linejoin:miter;stroke-miterlimit:282;stroke-dasharray:none;stroke-opacity:1;" />
  <path
     id="path15"
     d="  M 2064.2807,2034.3336   C 2064.2807,2041.9461 2058.1003,2048.1265 2050.4501,2048.1265   C 2042.8377,2048.1265 2036.6573,2041.9461 2036.6573,2034.3336   C 2036.6573,2026.6835 2042.8377,2020.5031 2050.4501,2020.5031   C 2058.1003,2020.5031 2064.2807,2026.6835 2064.2807,2034.3336   z "
     style="fill:none;stroke:#000000;stroke-width:10.627287px;stroke-linecap:butt;stroke-linejoin:miter;stroke-miterlimit:282;stroke-dasharray:none;stroke-opacity:1;" />
  <path
     id="path17"
     d="  M 2149.3743,2034.3336   C 2149.3743,2041.9461 2143.1939,2048.1265 2135.5438,2048.1265   C 2127.9313,2048.1265 2121.7132,2041.9461 2121.7132,2034.3336   C 2121.7132,2026.6835 2127.9313,2020.5031 2135.5438,2020.5031   C 2143.1939,2020.5031 2149.3743,2026.6835 2149.3743,2034.3336   z "
     style="fill:none;stroke:#000000;stroke-width:10.627287px;stroke-linecap:butt;stroke-linejoin:miter;stroke-miterlimit:282;stroke-dasharray:none;stroke-opacity:1;" />
  <path
     id="path19"
     d="  M 2241.892,1858.8327   L 1859.0082,2114.076  "
     style="fill:none;stroke:#000000;stroke-width:10.627287px;stroke-linecap:butt;stroke-linejoin:miter;stroke-miterlimit:282;stroke-dasharray:none;stroke-opacity:1;" />
</svg>
