<?xml version="1.0" encoding="UTF-8" standalone="no"?>
<svg
   xmlns:dc="http://purl.org/dc/elements/1.1/"
   xmlns:cc="http://creativecommons.org/ns#"
   xmlns:rdf="http://www.w3.org/1999/02/22-rdf-syntax-ns#"
   xmlns:svg="http://www.w3.org/2000/svg"
   xmlns="http://www.w3.org/2000/svg"
   id="svg21"
   height="112.9mm"
   width="112.9mm"
   version="1.0">
  <metadata
     id="metadata25">
    <rdf:RDF>
      <cc:Work
         rdf:about="">
        <dc:format>image/svg+xml</dc:format>
        <dc:type
           rdf:resource="http://purl.org/dc/dcmitype/StillImage" />
      </cc:Work>
    </rdf:RDF>
  </metadata>
  <defs
     id="defs3">
    <pattern
       y="0"
       x="0"
       height="6"
       width="6"
       patternUnits="userSpaceOnUse"
       id="EMFhbasepattern" />
  </defs>
  <path
     id="path5"
     d="  M 1981.4187,2162.1957   C 1981.4187,2284.5225 2162.1957,2284.5225 2162.1957,2162.1957   C 2284.5225,2162.1957 2284.5225,1981.4187 2162.1957,1981.4187   C 2162.1957,1859.0919 1981.4187,1859.0919 1981.4187,1981.4187   C 1859.0919,1981.4187 1859.0919,2162.1957 1981.4187,2162.1957   z "
     style="fill:#ffff80;fill-rule:nonzero;fill-opacity:1;stroke:#000000;stroke-width:10.627287px;stroke-linecap:butt;stroke-linejoin:miter;stroke-miterlimit:282;stroke-dasharray:none;stroke-opacity:1;" />
  <path
     id="path7"
     d="  M 1997.8119,2049.7047   L 1997.8119,2008.5899   L 2028.2994,2008.5899   L 2028.2994,2015.524   L 2006.1027,2015.524   L 2006.1027,2024.6439   L 2026.7543,2024.6439   L 2026.7543,2031.578   L 2006.1027,2031.578   L 2006.1027,2042.7706   L 2029.0908,2042.7706   L 2029.0908,2049.7047   z "
     style="fill:#000000;fill-rule:nonzero;fill-opacity:1;stroke:none;" />
  <path
     id="path9"
     d="  M 2042.0169,2049.7047   L 2032.181,2008.5899   L 2040.6979,2008.5899   L 2046.8783,2036.8163   L 2054.3777,2008.5899   L 2064.2513,2008.5899   L 2071.4869,2037.3062   L 2077.7803,2008.5899   L 2086.1465,2008.5899   L 2076.1599,2049.7047   L 2067.3415,2049.7047   L 2059.1637,2018.9534   L 2050.986,2049.7047   z "
     style="fill:#000000;fill-rule:nonzero;fill-opacity:1;stroke:none;" />
  <path
     id="path11"
     d="  M 2011.1902,1990.1241   C 1950.5544,1990.1241 1950.5544,2102.4266 2011.1902,2102.4266   L 2132.4242,2102.4266   C 2193.06,2102.4266 2193.06,1990.1241 2132.4242,1990.1241   z "
     style="fill:none;stroke:#000000;stroke-width:9.7228365px;stroke-linecap:butt;stroke-linejoin:miter;stroke-miterlimit:282;stroke-dasharray:none;stroke-opacity:1;" />
  <path
     id="path13"
     d="  M 2000.5629,2119.6865   C 2000.5629,2127.299 1994.3448,2133.4794 1986.7324,2133.4794   C 1979.0822,2133.4794 1972.9018,2127.299 1972.9018,2119.6865   C 1972.9018,2112.0364 1979.0822,2105.856 1986.7324,2105.856   C 1994.3448,2105.856 2000.5629,2112.0364 2000.5629,2119.6865   z "
     style="fill:none;stroke:#000000;stroke-width:10.627287px;stroke-linecap:butt;stroke-linejoin:miter;stroke-miterlimit:282;stroke-dasharray:none;stroke-opacity:1;" />
  <path
     id="path15"
     d="  M 2085.6189,2119.6865   C 2085.6189,2127.299 2079.4385,2133.4794 2071.7883,2133.4794   C 2064.1759,2133.4794 2057.9955,2127.299 2057.9955,2119.6865   C 2057.9955,2112.0364 2064.1759,2105.856 2071.7883,2105.856   C 2079.4385,2105.856 2085.6189,2112.0364 2085.6189,2119.6865   z "
     style="fill:none;stroke:#000000;stroke-width:10.627287px;stroke-linecap:butt;stroke-linejoin:miter;stroke-miterlimit:282;stroke-dasharray:none;stroke-opacity:1;" />
  <path
     id="path17"
     d="  M 2170.7126,2119.6865   C 2170.7126,2127.299 2164.5321,2133.4794 2156.882,2133.4794   C 2149.2696,2133.4794 2143.0515,2127.299 2143.0515,2119.6865   C 2143.0515,2112.0364 2149.2696,2105.856 2156.882,2105.856   C 2164.5321,2105.856 2170.7126,2112.0364 2170.7126,2119.6865   z "
     style="fill:none;stroke:#000000;stroke-width:10.627287px;stroke-linecap:butt;stroke-linejoin:miter;stroke-miterlimit:282;stroke-dasharray:none;stroke-opacity:1;" />
  <path
     id="path19"
     d="  M 2199.4288,1987.7876   L 1944.1855,2155.8268  "
     style="fill:none;stroke:#000000;stroke-width:10.627287px;stroke-linecap:butt;stroke-linejoin:miter;stroke-miterlimit:282;stroke-dasharray:none;stroke-opacity:1;" />
</svg>
