<?xml version="1.0" encoding="UTF-8" standalone="no"?>
<svg
   xmlns:dc="http://purl.org/dc/elements/1.1/"
   xmlns:cc="http://creativecommons.org/ns#"
   xmlns:rdf="http://www.w3.org/1999/02/22-rdf-syntax-ns#"
   xmlns:svg="http://www.w3.org/2000/svg"
   xmlns="http://www.w3.org/2000/svg"
   id="svg19"
   height="89.669998mm"
   width="120.11mm"
   version="1.0">
  <metadata
     id="metadata23">
    <rdf:RDF>
      <cc:Work
         rdf:about="">
        <dc:format>image/svg+xml</dc:format>
        <dc:type
           rdf:resource="http://purl.org/dc/dcmitype/StillImage" />
      </cc:Work>
    </rdf:RDF>
  </metadata>
  <defs
     id="defs3">
    <pattern
       y="0"
       x="0"
       height="6"
       width="6"
       patternUnits="userSpaceOnUse"
       id="EMFhbasepattern" />
  </defs>
  <path
     id="path5"
     d="  M 54.345381,54.345381   L 54.345381,284.51405   L 399.59839,284.51405   L 399.59839,54.345381   L 54.345381,54.345381   z "
     style="fill:#80e0ff;fill-rule:evenodd;fill-opacity:1;stroke:none;" />
  <path
     id="path7"
     d="  M 54.345381,54.345381   L 399.59839,54.345381   L 399.59839,284.51405   L 54.345381,284.51405   z "
     style="fill:none;stroke:#000000;stroke-width:9.5903616px;stroke-linecap:butt;stroke-linejoin:miter;stroke-miterlimit:10;stroke-dasharray:none;stroke-opacity:1;" />
  <path
     id="path9"
     d="  M 54.345381,54.345381   L 399.59839,284.51405  "
     style="fill:none;stroke:#000000;stroke-width:9.5903616px;stroke-linecap:butt;stroke-linejoin:miter;stroke-miterlimit:10;stroke-dasharray:none;stroke-opacity:1;" />
  <path
     id="path11"
     d="  M 246.15261,150.24899   C 246.15261,160.87831 237.6012,169.42972 226.97188,169.42972   C 216.38253,169.42972 207.79116,160.87831 207.79116,150.24899   C 207.79116,139.65964 216.38253,131.06827 226.97188,131.06827   C 237.6012,131.06827 246.15261,139.65964 246.15261,150.24899  "
     style="fill:none;stroke:#000000;stroke-width:9.5903616px;stroke-linecap:butt;stroke-linejoin:miter;stroke-miterlimit:10;stroke-dasharray:none;stroke-opacity:1;" />
  <path
     id="path13"
     d="  M 226.97188,169.42972   L 226.97188,274.92369  "
     style="fill:none;stroke:#000000;stroke-width:9.5903616px;stroke-linecap:butt;stroke-linejoin:miter;stroke-miterlimit:10;stroke-dasharray:none;stroke-opacity:1;" />
  <path
     id="path15"
     d="  M 198.2008,198.2008   L 255.74297,198.2008  "
     style="fill:none;stroke:#000000;stroke-width:9.5903616px;stroke-linecap:butt;stroke-linejoin:miter;stroke-miterlimit:10;stroke-dasharray:none;stroke-opacity:1;" />
  <path
     id="path17"
     d="  M 192.60642,115.60381   L 192.60642,70.968674   L 224.85401,70.968674   L 224.85401,76.243372   L 198.52048,76.243372   L 198.52048,89.909637   L 223.1757,89.909637   L 223.1757,95.144376   L 198.52048,95.144376   L 198.52048,110.32911   L 225.89297,110.32911   L 225.89297,115.60381   z  M 229.52931,115.60381   L 246.79196,92.347187   L 231.56727,70.968674   L 238.6002,70.968674   L 246.67208,82.397188   C 248.39036,84.794778 249.58915,86.63293 250.26847,87.911645   C 251.26747,86.273292 252.46626,84.594979 253.8249,82.796786   L 262.7759,70.968674   L 269.20943,70.968674   L 253.54518,91.987549   L 270.44819,115.60381   L 263.13554,115.60381   L 251.90682,99.659838   C 251.26747,98.780721 250.62811,97.781725 249.94879,96.70281   C 248.9498,98.301203 248.23052,99.420079 247.83092,100.01948   L 236.60221,115.60381   z "
     style="fill:#000000;fill-rule:evenodd;fill-opacity:1;stroke:none;" />
</svg>
