<?xml version="1.0" encoding="UTF-8" standalone="no"?>
<svg
   xmlns:dc="http://purl.org/dc/elements/1.1/"
   xmlns:cc="http://creativecommons.org/ns#"
   xmlns:rdf="http://www.w3.org/1999/02/22-rdf-syntax-ns#"
   xmlns:svg="http://www.w3.org/2000/svg"
   xmlns="http://www.w3.org/2000/svg"
   id="svg11"
   height="116.73mm"
   width="116.73mm"
   version="1.0">
  <metadata
     id="metadata15">
    <rdf:RDF>
      <cc:Work
         rdf:about="">
        <dc:format>image/svg+xml</dc:format>
        <dc:type
           rdf:resource="http://purl.org/dc/dcmitype/StillImage" />
      </cc:Work>
    </rdf:RDF>
  </metadata>
  <defs
     id="defs3">
    <pattern
       y="0"
       x="0"
       height="6"
       width="6"
       patternUnits="userSpaceOnUse"
       id="EMFhbasepattern" />
  </defs>
  <path
     id="path5"
     d="  M 220.57831,386.49156   L 220.57831,386.49156   L 386.49156,220.57831   L 220.57831,54.665059   L 54.665059,220.57831   L 220.57831,386.49156   z "
     style="fill:#ff8080;fill-rule:evenodd;fill-opacity:1;stroke:none;" />
  <path
     id="path7"
     d="  M 220.57831,386.49156   L 220.57831,386.49156   L 386.49156,220.57831   L 220.57831,54.665059   L 54.665059,220.57831   L 220.57831,386.49156  "
     style="fill:none;stroke:#000000;stroke-width:9.5903616px;stroke-linecap:butt;stroke-linejoin:miter;stroke-miterlimit:10;stroke-dasharray:none;stroke-opacity:1;" />
  <path
     id="path9"
     d="  M 139.18012,243.11566   L 139.18012,181.33775   L 183.85522,181.33775   L 183.85522,188.61044   L 147.37189,188.61044   L 147.37189,207.5514   L 181.53755,207.5514   L 181.53755,214.78413   L 147.37189,214.78413   L 147.37189,235.80301   L 185.29377,235.80301   L 185.29377,243.11566   z  M 194.1249,213.0259   C 194.1249,202.75622 196.88213,194.72429 202.35662,188.93012   C 207.87108,183.13594 214.98393,180.21887 223.69518,180.21887   C 229.40943,180.21887 234.52429,181.57751 239.11968,184.33474   C 243.71506,187.05201 247.19156,190.84819 249.58915,195.72329   C 251.98674,200.59839 253.18554,206.11285 253.18554,212.30662   C 253.18554,218.58032 251.94678,224.1747 249.38935,229.12972   C 246.87188,234.08474 243.2755,237.801 238.64016,240.35843   C 234.00482,242.91586 229.00984,244.15461 223.65522,244.15461   C 217.82108,244.15461 212.6263,242.75602 208.07088,239.95883   C 203.4755,237.16164 199.99899,233.3255 197.64136,228.4504   C 195.28373,223.5753 194.1249,218.46044 194.1249,213.0259   z  M 202.55642,213.14578   C 202.55642,220.57831 204.55441,226.45241 208.5504,230.72811   C 212.54638,235.04377 217.58132,237.16164 223.61526,237.16164   C 229.76907,237.16164 234.84397,235.00381 238.8,230.68815   C 242.79598,226.37249 244.75401,220.21867 244.75401,212.26666   C 244.75401,207.23172 243.91486,202.83614 242.23654,199.07992   C 240.51827,195.32369 238.04076,192.44658 234.76405,190.36867   C 231.48735,188.29076 227.81104,187.2518 223.73514,187.2518   C 217.94096,187.2518 212.98594,189.2498 208.79016,193.24578   C 204.63433,197.2018 202.55642,203.83514 202.55642,213.14578   z  M 263.73494,243.11566   L 263.73494,181.33775   L 285.03353,181.33775   C 289.82871,181.33775 293.50502,181.61747 296.02249,182.21686   C 299.53895,183.01606 302.5759,184.49458 305.09337,186.65241   C 308.33012,189.40964 310.76767,192.9261 312.40602,197.2018   C 314.00441,201.47751 314.80361,206.39257 314.80361,211.86707   C 314.80361,216.58233 314.24417,220.73815 313.16526,224.37449   C 312.08634,227.97088 310.68775,230.96787 308.96947,233.36546   C 307.2512,235.72309 305.37309,237.6012 303.33514,238.95984   C 301.29718,240.31847 298.81967,241.35743 295.94257,242.0767   C 293.06546,242.75602 289.74879,243.11566 286.03253,243.11566   z  M 271.9267,235.80301   L 285.11345,235.80301   C 289.18935,235.80301 292.38614,235.44337 294.70381,234.68413   C 297.02148,233.9249 298.85963,232.84598 300.21827,231.48735   C 302.1763,229.52931 303.69477,226.93192 304.77369,223.65522   C 305.85261,220.37851 306.37208,216.42249 306.37208,211.74719   C 306.37208,205.31365 305.33313,200.31867 303.21526,196.84217   C 301.09739,193.40562 298.5,191.04799 295.46305,189.88915   C 293.26526,189.05 289.74879,188.61044 284.87369,188.61044   L 271.9267,188.61044   z "
     style="fill:#000000;fill-rule:evenodd;fill-opacity:1;stroke:none;" />
</svg>
