<?xml version="1.0" encoding="UTF-8" standalone="no"?>
<svg
   xmlns:dc="http://purl.org/dc/elements/1.1/"
   xmlns:cc="http://creativecommons.org/ns#"
   xmlns:rdf="http://www.w3.org/1999/02/22-rdf-syntax-ns#"
   xmlns:svg="http://www.w3.org/2000/svg"
   xmlns="http://www.w3.org/2000/svg"
   id="svg13"
   height="95.75mm"
   width="95.75mm"
   version="1.0">
  <metadata
     id="metadata17">
    <rdf:RDF>
      <cc:Work
         rdf:about="">
        <dc:format>image/svg+xml</dc:format>
        <dc:type
           rdf:resource="http://purl.org/dc/dcmitype/StillImage" />
      </cc:Work>
    </rdf:RDF>
  </metadata>
  <defs
     id="defs3">
    <pattern
       y="0"
       x="0"
       height="6"
       width="6"
       patternUnits="userSpaceOnUse"
       id="EMFhbasepattern" />
  </defs>
  <path
     id="path5"
     d="  M 54.345381,54.345381   L 54.345381,307.53092   L 307.53092,307.53092   L 307.53092,54.345381   L 54.345381,54.345381   z "
     style="fill:#aaffaa;fill-rule:evenodd;fill-opacity:1;stroke:none;" />
  <path
     id="path7"
     d="  M 54.345381,54.345381   L 307.53092,54.345381   L 307.53092,307.53092   L 54.345381,307.53092   z "
     style="fill:none;stroke:#000000;stroke-width:9.5903616px;stroke-linecap:butt;stroke-linejoin:miter;stroke-miterlimit:10;stroke-dasharray:none;stroke-opacity:1;" />
  <path
     id="path9"
     d="  M 72.007629,178.26084   L 72.007629,178.26084   L 109.60984,149.88936   L 102.69679,106.93253   L 131.86747,127.63173   L 140.29899,89.27028   L 164.83433,134.54478   L 177.10201,76.243372   L 194.00502,120.71867   L 221.61727,87.751806   L 226.97188,130.70863   L 254.62409,107.69177   L 254.62409,155.24397   L 287.59096,185.17389   L 254.62409,212.78614   L 261.49718,243.4753   L 230.04879,228.13072   L 225.45341,266.49216   L 200.91807,222.7761   L 180.93815,284.91365   L 160.99819,237.36144   L 143.3759,261.89678   L 128.03132,215.86305   L 95.783734,229.68915   L 105.77369,208.19076   L 72.007629,178.26084  "
     style="fill:none;stroke:#000000;stroke-width:3.8361444px;stroke-linecap:butt;stroke-linejoin:miter;stroke-miterlimit:10;stroke-dasharray:none;stroke-opacity:1;" />
  <path
     id="path11"
     d="  M 110.00944,195.12389   L 110.00944,157.4018   L 124.19518,157.4018   C 127.07229,157.4018 129.38996,157.76144 131.10823,158.52068   C 132.86646,159.27992 134.2251,160.47871 135.22409,162.07711   C 136.22309,163.63554 136.70261,165.31385 136.70261,167.03213   C 136.70261,168.67048 136.26305,170.18895 135.38393,171.58755   C 134.50482,173.0261 133.18614,174.18494 131.42791,175.06405   C 133.70562,175.70341 135.46385,176.86225 136.70261,178.46064   C 137.9014,180.09899 138.54076,182.01707 138.54076,184.21486   C 138.54076,185.97309 138.14116,187.61144 137.42189,189.12992   C 136.66265,190.64839 135.74357,191.80723 134.6247,192.64638   C 133.54578,193.48554 132.14719,194.08494 130.50883,194.5245   C 128.83052,194.92409 126.83253,195.12389 124.39498,195.12389   z  M 115.00442,173.26586   L 123.19618,173.26586   C 125.39397,173.26586 126.99237,173.10602 127.9514,172.8263   C 129.23012,172.4267 130.14919,171.82731 130.82851,170.94819   C 131.46787,170.06907 131.78755,168.9502 131.78755,167.63152   C 131.78755,166.39277 131.46787,165.27389 130.86847,164.31486   C 130.26907,163.35582 129.42992,162.71646 128.31104,162.35682   C 127.19217,162.03715 125.27409,161.83735 122.55683,161.83735   L 115.00442,161.83735   z  M 115.00442,190.68835   L 124.39498,190.68835   C 126.03333,190.68835 127.15221,190.60843 127.83152,190.48855   C 128.9504,190.28875 129.90944,189.96907 130.70863,189.48956   C 131.46787,189.01004 132.10723,188.29076 132.58675,187.37168   C 133.10622,186.45261 133.34598,185.41365 133.34598,184.21486   C 133.34598,182.7763 132.98634,181.57751 132.26707,180.53855   C 131.54779,179.4996 130.54879,178.74036 129.27008,178.34076   C 127.99136,177.9012 126.15321,177.7014 123.75562,177.7014   L 115.00442,177.7014   z  M 143.89538,176.74237   C 143.89538,170.46867 145.57369,165.59357 148.93032,162.03715   C 152.28695,158.48072 156.64257,156.72249 161.95723,156.72249   C 165.43373,156.72249 168.59056,157.56164 171.38775,159.2   C 174.18494,160.87831 176.30281,163.19598 177.78132,166.19297   C 179.25984,169.15 179.97911,172.54658 179.97911,176.30281   C 179.97911,180.13895 179.21988,183.5755 177.66144,186.57249   C 176.14297,189.60944 173.94518,191.88715 171.10803,193.44558   C 168.27088,195.00401 165.23393,195.80321 161.95723,195.80321   C 158.4008,195.80321 155.20401,194.92409 152.40683,193.20582   C 149.60964,191.48755 147.49176,189.16988 146.05321,186.17289   C 144.61466,183.21586 143.89538,180.05903 143.89538,176.74237   z  M 149.0502,176.82229   C 149.0502,181.37771 150.24899,184.97409 152.68654,187.57148   C 155.16405,190.20883 158.24096,191.52751 161.91727,191.52751   C 165.67349,191.52751 168.7504,190.20883 171.18795,187.53152   C 173.6255,184.89417 174.82429,181.13795 174.82429,176.30281   C 174.82429,173.2259 174.30482,170.54859 173.26586,168.23092   C 172.22691,165.95321 170.70843,164.15502 168.71044,162.91626   C 166.71245,161.63755 164.4747,160.99819 161.99719,160.99819   C 158.44076,160.99819 155.40381,162.23695 152.84638,164.6745   C 150.32891,167.07209 149.0502,171.14799 149.0502,176.82229   z  M 186.29277,195.12389   L 186.29277,157.4018   L 193.80522,157.4018   L 202.71626,184.13494   C 203.55542,186.61245 204.15482,188.49056 204.55441,189.68935   C 204.95401,188.33072 205.63333,186.33273 206.55241,183.65542   L 215.58333,157.4018   L 222.29658,157.4018   L 222.29658,195.12389   L 217.5014,195.12389   L 217.5014,163.55562   L 206.51245,195.12389   L 201.99699,195.12389   L 191.08795,162.99618   L 191.08795,195.12389   z  M 230.16867,195.12389   L 230.16867,157.4018   L 244.31445,157.4018   C 247.23152,157.4018 249.50923,157.76144 251.26747,158.52068   C 253.0257,159.27992 254.38433,160.47871 255.38333,162.07711   C 256.34237,163.63554 256.86184,165.31385 256.86184,167.03213   C 256.86184,168.67048 256.42229,170.18895 255.54317,171.58755   C 254.66405,173.0261 253.34538,174.18494 251.54719,175.06405   C 253.86486,175.70341 255.62309,176.86225 256.82188,178.46064   C 258.06064,180.09899 258.66004,182.01707 258.66004,184.21486   C 258.66004,185.97309 258.3004,187.61144 257.54116,189.12992   C 256.82188,190.64839 255.90281,191.80723 254.78393,192.64638   C 253.70502,193.48554 252.30642,194.08494 250.66807,194.5245   C 248.98976,194.92409 246.9518,195.12389 244.55421,195.12389   z  M 235.16365,173.26586   L 243.31546,173.26586   C 245.55321,173.26586 247.11164,173.10602 248.07068,172.8263   C 249.34939,172.4267 250.30843,171.82731 250.94779,170.94819   C 251.58714,170.06907 251.94678,168.9502 251.94678,167.63152   C 251.94678,166.39277 251.6271,165.27389 251.02771,164.31486   C 250.42831,163.35582 249.54919,162.71646 248.47028,162.35682   C 247.3514,162.03715 245.43333,161.83735 242.71606,161.83735   L 235.16365,161.83735   z  M 235.16365,190.68835   L 244.55421,190.68835   C 246.19257,190.68835 247.31144,190.60843 247.9508,190.48855   C 249.10963,190.28875 250.06867,189.96907 250.82791,189.48956   C 251.6271,189.01004 252.26646,188.29076 252.74598,187.37168   C 253.26546,186.45261 253.50522,185.41365 253.50522,184.21486   C 253.50522,182.7763 253.14558,181.57751 252.4263,180.53855   C 251.70702,179.4996 250.70803,178.74036 249.42931,178.34076   C 248.1506,177.9012 246.31245,177.7014 243.8749,177.7014   L 235.16365,177.7014   z "
     style="fill:#000000;fill-rule:evenodd;fill-opacity:1;stroke:none;" />
</svg>
