<?xml version="1.0" encoding="UTF-8" standalone="no"?>
<svg
   xmlns:dc="http://purl.org/dc/elements/1.1/"
   xmlns:cc="http://creativecommons.org/ns#"
   xmlns:rdf="http://www.w3.org/1999/02/22-rdf-syntax-ns#"
   xmlns:svg="http://www.w3.org/2000/svg"
   xmlns="http://www.w3.org/2000/svg"
   id="svg11"
   height="95.75mm"
   width="95.75mm"
   version="1.0">
  <metadata
     id="metadata15">
    <rdf:RDF>
      <cc:Work
         rdf:about="">
        <dc:format>image/svg+xml</dc:format>
        <dc:type
           rdf:resource="http://purl.org/dc/dcmitype/StillImage" />
      </cc:Work>
    </rdf:RDF>
  </metadata>
  <defs
     id="defs3">
    <pattern
       y="0"
       x="0"
       height="6"
       width="6"
       patternUnits="userSpaceOnUse"
       id="EMFhbasepattern" />
  </defs>
  <path
     id="path5"
     d="  M 54.345381,54.345381   L 54.345381,307.53092   L 307.53092,307.53092   L 307.53092,54.345381   L 54.345381,54.345381   z "
     style="fill:#aaffaa;fill-rule:evenodd;fill-opacity:1;stroke:none;" />
  <path
     id="path7"
     d="  M 54.345381,54.345381   L 307.53092,54.345381   L 307.53092,307.53092   L 54.345381,307.53092   z "
     style="fill:none;stroke:#000000;stroke-width:9.5903616px;stroke-linecap:butt;stroke-linejoin:miter;stroke-miterlimit:10;stroke-dasharray:none;stroke-opacity:1;" />
  <path
     id="path9"
     d="  M 99.539958,203.4755   L 99.539958,141.69759   L 144.21506,141.69759   L 144.21506,148.97028   L 107.73173,148.97028   L 107.73173,167.91124   L 141.89739,167.91124   L 141.89739,175.14397   L 107.73173,175.14397   L 107.73173,196.16285   L 145.65361,196.16285   L 145.65361,203.4755   z  M 154.48474,173.38574   C 154.48474,163.11606 157.24197,155.08413 162.71646,149.28996   C 168.23092,143.49578 175.34377,140.57871 184.05502,140.57871   C 189.76927,140.57871 194.88413,141.93735 199.47952,144.69458   C 204.0749,147.41185 207.5514,151.20803 209.94899,156.08313   C 212.34658,160.95823 213.54538,166.47269 213.54538,172.66646   C 213.54538,178.94016 212.30662,184.53454 209.74919,189.48956   C 207.23172,194.44458 203.63534,198.16084 199,200.71827   C 194.36466,203.2757 189.36968,204.51445 184.01506,204.51445   C 178.18092,204.51445 172.98614,203.11586 168.43072,200.31867   C 163.83534,197.52148 160.35883,193.68534 158.0012,188.81024   C 155.64357,183.93514 154.48474,178.82028 154.48474,173.38574   z  M 162.91626,173.50562   C 162.91626,180.93815 164.91425,186.81225 168.91024,191.08795   C 172.90622,195.40361 177.94116,197.52148 183.9751,197.52148   C 190.12891,197.52148 195.20381,195.36365 199.15984,191.04799   C 203.15582,186.73233 205.11385,180.57851 205.11385,172.6265   C 205.11385,167.59156 204.2747,163.19598 202.59638,159.43976   C 200.87811,155.68353 198.4006,152.80642 195.12389,150.72851   C 191.84719,148.6506 188.17088,147.61164 184.09498,147.61164   C 178.3008,147.61164 173.34578,149.60964 169.15,153.60562   C 164.99417,157.56164 162.91626,164.19498 162.91626,173.50562   z  M 224.09478,203.4755   L 224.09478,141.69759   L 245.39337,141.69759   C 250.18855,141.69759 253.86486,141.97731 256.38233,142.5767   C 259.89879,143.3759 262.93574,144.85442 265.45321,147.01225   C 268.68996,149.76948 271.12751,153.28594 272.76586,157.56164   C 274.36425,161.83735 275.16345,166.75241 275.16345,172.22691   C 275.16345,176.94217 274.60401,181.09799 273.5251,184.73433   C 272.44618,188.33072 271.04759,191.32771 269.32931,193.7253   C 267.61104,196.08293 265.73293,197.96104 263.69498,199.31968   C 261.65702,200.67831 259.17951,201.71727 256.30241,202.43654   C 253.4253,203.11586 250.10863,203.4755 246.39237,203.4755   z  M 232.28654,196.16285   L 245.47329,196.16285   C 249.54919,196.16285 252.74598,195.80321 255.06365,195.04397   C 257.38132,194.28474 259.21947,193.20582 260.57811,191.84719   C 262.53614,189.88915 264.05461,187.29176 265.13353,184.01506   C 266.21245,180.73835 266.73192,176.78233 266.73192,172.10703   C 266.73192,165.67349 265.69297,160.67851 263.5751,157.20201   C 261.45723,153.76546 258.85984,151.40783 255.82289,150.24899   C 253.6251,149.40984 250.10863,148.97028 245.23353,148.97028   L 232.28654,148.97028   z "
     style="fill:#000000;fill-rule:evenodd;fill-opacity:1;stroke:none;" />
</svg>
