<?xml version="1.0" encoding="UTF-8" standalone="no"?>
<svg
   xmlns:dc="http://purl.org/dc/elements/1.1/"
   xmlns:cc="http://creativecommons.org/ns#"
   xmlns:rdf="http://www.w3.org/1999/02/22-rdf-syntax-ns#"
   xmlns:svg="http://www.w3.org/2000/svg"
   xmlns="http://www.w3.org/2000/svg"
   id="svg15"
   height="130.27mm"
   width="130.27mm"
   version="1.0">
  <metadata
     id="metadata19">
    <rdf:RDF>
      <cc:Work
         rdf:about="">
        <dc:format>image/svg+xml</dc:format>
        <dc:type
           rdf:resource="http://purl.org/dc/dcmitype/StillImage" />
      </cc:Work>
    </rdf:RDF>
  </metadata>
  <defs
     id="defs3">
    <pattern
       y="0"
       x="0"
       height="6"
       width="6"
       patternUnits="userSpaceOnUse"
       id="EMFhbasepattern" />
  </defs>
  <path
     id="path5"
     d="  M 164.63454,327.67068   C 164.63454,437.95983 327.67068,437.95983 327.67068,327.67068   C 437.95983,327.67068 437.95983,164.63454 327.67068,164.63454   C 327.67068,54.345381 164.63454,54.345381 164.63454,164.63454   C 54.345381,164.63454 54.345381,327.67068 164.63454,327.67068   z "
     style="fill:#ffff80;fill-rule:evenodd;fill-opacity:1;stroke:none;" />
  <path
     id="path7"
     d="  M 164.63454,327.67068   C 164.63454,437.95983 327.67068,437.95983 327.67068,327.67068   C 437.95983,327.67068 437.95983,164.63454 327.67068,164.63454   C 327.67068,54.345381 164.63454,54.345381 164.63454,164.63454   C 54.345381,164.63454 54.345381,327.67068 164.63454,327.67068  "
     style="fill:none;stroke:#000000;stroke-width:9.5903616px;stroke-linecap:butt;stroke-linejoin:miter;stroke-miterlimit:10;stroke-dasharray:none;stroke-opacity:1;" />
  <path
     id="path9"
     d="  M 286.79176,168.63052   L 286.79176,168.63052   L 257.62108,207.03192   L 252.8259,155.84337   L 240.99779,191.48755   L 227.49136,170.54859   L 223.85502,210.58835   L 197.52148,180.73835   L 206.63233,214.82409   L 171.90723,213.10582   L 171.62751,213.6253   L 203.95502,236.96184   L 149.0502,240.59819   L 196.80221,254.54417   L 196.88213,255.26345   L 163.2759,274.72389   L 163.43574,275.24337   L 206.95201,270.00863   L 192.96606,293.98453   L 218.62028,283.31526   L 209.3496,322.71566   L 233.60522,291.06747   L 246.91184,341.89638   L 247.91084,341.93634   L 250.46827,290.86767   L 276.4022,322.43594   L 267.33132,280.83775   L 297.26124,297.46104   L 279.07951,275.60301   L 323.87449,288.43012   L 294.50401,261.33735   L 332.38594,255.54317   L 289.22931,243.63514   L 340.01827,217.82108   L 294.18433,221.93694   L 312.76566,192.00703   L 272.68594,213.74518   z "
     style="fill:#000000;fill-rule:evenodd;fill-opacity:1;stroke:none;" />
  <path
     id="path11"
     d="  M 278.99959,181.73735   L 278.99959,181.73735   L 254.70401,213.70522   L 250.66807,171.06807   L 240.83795,200.75823   L 229.56927,183.29578   L 226.53233,216.70221   L 204.59437,191.80723   L 212.18674,220.21867   L 183.25582,218.78012   L 183.01606,219.21968   L 209.94899,238.68012   L 164.19498,241.6771   L 203.99498,253.30542   L 204.03494,253.90482   L 176.02309,270.12851   L 176.18293,270.56807   L 212.46646,266.21245   L 200.79819,286.15241   L 222.1767,277.28132   L 214.46445,310.12831   L 234.64417,283.75482   L 245.75301,326.11224   L 246.59217,326.11224   L 248.71004,283.59498   L 270.32831,309.88855   L 262.7759,275.24337   L 287.71084,289.06947   L 272.56606,270.88775   L 309.88855,281.55702   L 285.39317,258.97972   L 317.0014,254.14457   L 280.99759,244.19457   L 323.35502,222.69618   L 285.15341,226.13273   L 300.61787,201.19779   L 267.21144,219.2996   z "
     style="fill:#ffffff;fill-rule:evenodd;fill-opacity:1;stroke:none;" />
  <path
     id="path13"
     d="  M 245.83293,255.82289   C 245.83293,254.90381 245.83293,254.22449 245.83293,253.74498   C 245.83293,251.06767 246.19257,248.75 246.9518,246.83192   C 247.51124,245.35341 248.39036,243.8749 249.62911,242.39638   C 250.54819,241.27751 252.18654,239.71907 254.54417,237.64116   C 256.94176,235.52329 258.46024,233.88494 259.17951,232.64618   C 259.85883,231.40743 260.21847,230.04879 260.21847,228.57028   C 260.21847,225.93293 259.17951,223.5753 257.1016,221.57731   C 255.06365,219.57931 252.50622,218.58032 249.50923,218.58032   C 246.59217,218.58032 244.15461,219.45943 242.19658,221.29759   C 240.27851,223.09578 238.9998,225.97289 238.4004,229.80903   L 231.36747,229.00984   C 232.00682,223.81506 233.88494,219.85903 237.0018,217.1018   C 240.11867,214.34458 244.23453,212.94598 249.38935,212.94598   C 254.82389,212.94598 259.13955,214.42449 262.3763,217.38152   C 265.61305,220.33855 267.2514,223.93494 267.2514,228.13072   C 267.2514,230.56827 266.69196,232.80602 265.53313,234.84397   C 264.41425,236.88192 262.1765,239.35943 258.85984,242.31646   C 256.62208,244.27449 255.18353,245.75301 254.50421,246.67208   C 253.8249,247.59116 253.30542,248.67008 252.98574,249.90883   C 252.66606,251.10763 252.46626,253.06566 252.4263,255.82289   z  M 245.43333,269.48915   L 245.43333,261.73694   L 253.2255,261.73694   L 253.2255,269.48915   z "
     style="fill:#000000;fill-rule:evenodd;fill-opacity:1;stroke:none;" />
</svg>
