<?xml version="1.0" encoding="UTF-8" standalone="no"?>
<svg
   xmlns:dc="http://purl.org/dc/elements/1.1/"
   xmlns:cc="http://creativecommons.org/ns#"
   xmlns:rdf="http://www.w3.org/1999/02/22-rdf-syntax-ns#"
   xmlns:svg="http://www.w3.org/2000/svg"
   xmlns="http://www.w3.org/2000/svg"
   id="svg13"
   height="116.73mm"
   width="116.73mm"
   version="1.0">
  <metadata
     id="metadata17">
    <rdf:RDF>
      <cc:Work
         rdf:about="">
        <dc:format>image/svg+xml</dc:format>
        <dc:type
           rdf:resource="http://purl.org/dc/dcmitype/StillImage" />
      </cc:Work>
    </rdf:RDF>
  </metadata>
  <defs
     id="defs3">
    <pattern
       y="0"
       x="0"
       height="6"
       width="6"
       patternUnits="userSpaceOnUse"
       id="EMFhbasepattern" />
  </defs>
  <path
     id="path5"
     d="  M 220.57831,386.49156   L 220.57831,386.49156   L 386.49156,220.57831   L 220.57831,54.665059   L 54.665059,220.57831   L 220.57831,386.49156   z "
     style="fill:#ff8080;fill-rule:evenodd;fill-opacity:1;stroke:none;" />
  <path
     id="path7"
     d="  M 220.57831,386.49156   L 220.57831,386.49156   L 386.49156,220.57831   L 220.57831,54.665059   L 54.665059,220.57831   L 220.57831,386.49156  "
     style="fill:none;stroke:#000000;stroke-width:9.5903616px;stroke-linecap:butt;stroke-linejoin:miter;stroke-miterlimit:10;stroke-dasharray:none;stroke-opacity:1;" />
  <path
     id="path9"
     d="  M 111.64779,217.901   L 111.64779,217.901   L 149.25,189.52952   L 142.33695,146.57269   L 171.50763,167.27189   L 179.93915,128.91044   L 204.4745,174.18494   L 216.74217,115.88353   L 233.64518,160.35883   L 261.25743,127.39197   L 266.61204,170.34879   L 294.26425,147.33193   L 294.26425,194.88413   L 327.23112,224.81405   L 294.26425,252.4263   L 301.13735,283.11546   L 269.68895,267.77088   L 265.09357,306.13232   L 240.55823,262.41626   L 220.57831,324.55381   L 200.63835,277.0016   L 183.01606,301.53694   L 167.67148,255.50321   L 135.42389,269.32931   L 145.41385,247.83092   L 111.64779,217.901  "
     style="fill:none;stroke:#000000;stroke-width:3.8361444px;stroke-linecap:butt;stroke-linejoin:miter;stroke-miterlimit:10;stroke-dasharray:none;stroke-opacity:1;" />
  <path
     id="path11"
     d="  M 149.6496,234.76405   L 149.6496,197.04197   L 163.83534,197.04197   C 166.71245,197.04197 169.03012,197.4016 170.74839,198.16084   C 172.50662,198.92008 173.86526,200.11887 174.86425,201.71727   C 175.86325,203.2757 176.34277,204.95401 176.34277,206.67229   C 176.34277,208.31064 175.90321,209.82911 175.02409,211.22771   C 174.14498,212.66626 172.8263,213.8251 171.06807,214.70421   C 173.34578,215.34357 175.10401,216.50241 176.34277,218.1008   C 177.54156,219.73915 178.18092,221.65723 178.18092,223.85502   C 178.18092,225.61325 177.78132,227.2516 177.06205,228.77008   C 176.30281,230.28855 175.38373,231.44739 174.26486,232.28654   C 173.18594,233.1257 171.78735,233.7251 170.14899,234.16466   C 168.47068,234.56425 166.47269,234.76405 164.03514,234.76405   z  M 154.64458,212.90602   L 162.83634,212.90602   C 165.03413,212.90602 166.63253,212.74618 167.59156,212.46646   C 168.87028,212.06686 169.78935,211.46747 170.46867,210.58835   C 171.10803,209.70923 171.42771,208.59036 171.42771,207.27168   C 171.42771,206.03293 171.10803,204.91405 170.50863,203.95502   C 169.90923,202.99598 169.07008,202.35662 167.9512,201.99699   C 166.83233,201.67731 164.91425,201.47751 162.19699,201.47751   L 154.64458,201.47751   z  M 154.64458,230.32851   L 164.03514,230.32851   C 165.67349,230.32851 166.79237,230.24859 167.47168,230.12871   C 168.59056,229.92891 169.5496,229.60923 170.34879,229.12972   C 171.10803,228.6502 171.74739,227.93092 172.22691,227.01184   C 172.74638,226.09277 172.98614,225.05381 172.98614,223.85502   C 172.98614,222.41646 172.6265,221.21767 171.90723,220.17871   C 171.18795,219.13976 170.18895,218.38052 168.91024,217.98092   C 167.63152,217.54136 165.79337,217.34156 163.39578,217.34156   L 154.64458,217.34156   z  M 183.53554,216.38253   C 183.53554,210.10883 185.21385,205.23373 188.57048,201.67731   C 191.92711,198.12088 196.28273,196.36265 201.59739,196.36265   C 205.07389,196.36265 208.23072,197.2018 211.02791,198.84016   C 213.8251,200.51847 215.94297,202.83614 217.42148,205.83313   C 218.9,208.79016 219.61927,212.18674 219.61927,215.94297   C 219.61927,219.77911 218.86004,223.21566 217.3016,226.21265   C 215.78313,229.2496 213.58534,231.52731 210.74819,233.08574   C 207.91104,234.64417 204.87409,235.44337 201.59739,235.44337   C 198.04096,235.44337 194.84417,234.56425 192.04699,232.84598   C 189.2498,231.12771 187.13193,228.81004 185.69337,225.81305   C 184.25482,222.85602 183.53554,219.69919 183.53554,216.38253   z  M 188.69036,216.46245   C 188.69036,221.01787 189.88915,224.61425 192.3267,227.21164   C 194.80421,229.84899 197.88112,231.16767 201.55743,231.16767   C 205.31365,231.16767 208.39056,229.84899 210.82811,227.17168   C 213.26566,224.53433 214.46445,220.77811 214.46445,215.94297   C 214.46445,212.86606 213.94498,210.18875 212.90602,207.87108   C 211.86707,205.59337 210.34859,203.79518 208.3506,202.55642   C 206.35261,201.27771 204.11486,200.63835 201.63735,200.63835   C 198.08092,200.63835 195.04397,201.87711 192.48654,204.31466   C 189.96907,206.71225 188.69036,210.78815 188.69036,216.46245   z  M 225.93293,234.76405   L 225.93293,197.04197   L 233.44538,197.04197   L 242.35642,223.7751   C 243.19558,226.25261 243.79498,228.13072 244.19457,229.32951   C 244.59417,227.97088 245.27349,225.97289 246.19257,223.29558   L 255.22349,197.04197   L 261.93674,197.04197   L 261.93674,234.76405   L 257.14156,234.76405   L 257.14156,203.19578   L 246.15261,234.76405   L 241.63715,234.76405   L 230.72811,202.63634   L 230.72811,234.76405   z  M 269.80883,234.76405   L 269.80883,197.04197   L 283.95461,197.04197   C 286.87168,197.04197 289.14939,197.4016 290.90763,198.16084   C 292.66586,198.92008 294.02449,200.11887 295.02349,201.71727   C 295.98253,203.2757 296.502,204.95401 296.502,206.67229   C 296.502,208.31064 296.06245,209.82911 295.18333,211.22771   C 294.30421,212.66626 292.98554,213.8251 291.18735,214.70421   C 293.50502,215.34357 295.26325,216.50241 296.46204,218.1008   C 297.7008,219.73915 298.3002,221.65723 298.3002,223.85502   C 298.3002,225.61325 297.94056,227.2516 297.18132,228.77008   C 296.46204,230.28855 295.54297,231.44739 294.42409,232.28654   C 293.34518,233.1257 291.94658,233.7251 290.30823,234.16466   C 288.62992,234.56425 286.59196,234.76405 284.19437,234.76405   z  M 274.80381,212.90602   L 282.95562,212.90602   C 285.19337,212.90602 286.7518,212.74618 287.71084,212.46646   C 288.98955,212.06686 289.94859,211.46747 290.58795,210.58835   C 291.22731,209.70923 291.58694,208.59036 291.58694,207.27168   C 291.58694,206.03293 291.26726,204.91405 290.66787,203.95502   C 290.06847,202.99598 289.18935,202.35662 288.11044,201.99699   C 286.99156,201.67731 285.07349,201.47751 282.35622,201.47751   L 274.80381,201.47751   z  M 274.80381,230.32851   L 284.19437,230.32851   C 285.83273,230.32851 286.9516,230.24859 287.59096,230.12871   C 288.7498,229.92891 289.70883,229.60923 290.46807,229.12972   C 291.26726,228.6502 291.90662,227.93092 292.38614,227.01184   C 292.90562,226.09277 293.14538,225.05381 293.14538,223.85502   C 293.14538,222.41646 292.78574,221.21767 292.06646,220.17871   C 291.34718,219.13976 290.34819,218.38052 289.06947,217.98092   C 287.79076,217.54136 285.95261,217.34156 283.51506,217.34156   L 274.80381,217.34156   z "
     style="fill:#000000;fill-rule:evenodd;fill-opacity:1;stroke:none;" />
</svg>
