<?xml version="1.0" encoding="UTF-8" standalone="no"?>
<svg
   xmlns:dc="http://purl.org/dc/elements/1.1/"
   xmlns:cc="http://creativecommons.org/ns#"
   xmlns:rdf="http://www.w3.org/1999/02/22-rdf-syntax-ns#"
   xmlns:svg="http://www.w3.org/2000/svg"
   xmlns="http://www.w3.org/2000/svg"
   id="svg15"
   height="95.75mm"
   width="95.75mm"
   version="1.0">
  <metadata
     id="metadata19">
    <rdf:RDF>
      <cc:Work
         rdf:about="">
        <dc:format>image/svg+xml</dc:format>
        <dc:type
           rdf:resource="http://purl.org/dc/dcmitype/StillImage" />
      </cc:Work>
    </rdf:RDF>
  </metadata>
  <defs
     id="defs3">
    <pattern
       y="0"
       x="0"
       height="6"
       width="6"
       patternUnits="userSpaceOnUse"
       id="EMFhbasepattern" />
  </defs>
  <path
     id="path5"
     d="  M 54.345381,54.345381   L 54.345381,307.53092   L 307.53092,307.53092   L 307.53092,54.345381   L 54.345381,54.345381   z "
     style="fill:#aaffaa;fill-rule:evenodd;fill-opacity:1;stroke:none;" />
  <path
     id="path7"
     d="  M 54.345381,54.345381   L 307.53092,54.345381   L 307.53092,307.53092   L 54.345381,307.53092   z "
     style="fill:none;stroke:#000000;stroke-width:9.5903616px;stroke-linecap:butt;stroke-linejoin:miter;stroke-miterlimit:10;stroke-dasharray:none;stroke-opacity:1;" />
  <path
     id="path9"
     d="  M 221.57731,103.41606   L 221.57731,103.41606   L 192.40662,141.81747   L 187.61144,90.628914   L 175.78333,126.27309   L 162.27691,105.33414   L 158.64056,145.37389   L 132.30703,115.52389   L 141.41787,149.60964   L 106.69277,147.89136   L 106.41305,148.41084   L 138.74056,171.74739   L 83.835742,175.38373   L 131.58775,189.32972   L 131.66767,190.04899   L 98.061444,209.50943   L 98.221284,210.02891   L 141.73755,204.79417   L 127.7516,228.77008   L 153.40582,218.1008   L 144.13514,257.5012   L 168.39076,225.85301   L 181.69739,276.68192   L 182.69638,276.72188   L 185.25381,225.65321   L 211.18775,257.22148   L 202.11686,215.62329   L 232.04678,232.24658   L 213.86506,210.38855   L 258.66004,223.21566   L 229.28955,196.12289   L 267.17148,190.32871   L 224.01486,178.42068   L 274.80381,152.60662   L 228.96988,156.72249   L 247.5512,126.79257   L 207.47148,148.53072   z "
     style="fill:#000000;fill-rule:evenodd;fill-opacity:1;stroke:none;" />
  <path
     id="path11"
     d="  M 213.78514,116.52289   L 213.78514,116.52289   L 189.48956,148.49076   L 185.45361,105.85361   L 175.62349,135.54377   L 164.35482,118.08132   L 161.31787,151.48775   L 139.37992,126.59277   L 146.97229,155.00421   L 118.04136,153.56566   L 117.8016,154.00522   L 144.73454,173.46566   L 98.980521,176.46265   L 138.78052,188.09096   L 138.82048,188.69036   L 110.80863,204.91405   L 110.96847,205.35361   L 147.25201,200.99799   L 135.58373,220.93795   L 156.96225,212.06686   L 149.25,244.91385   L 169.42972,218.54036   L 180.53855,260.89779   L 181.37771,260.89779   L 183.49558,218.38052   L 205.11385,244.67409   L 197.56144,210.02891   L 222.49638,223.85502   L 207.3516,205.67329   L 244.67409,216.34257   L 220.17871,193.76526   L 251.78694,188.93012   L 215.78313,178.98012   L 258.14056,157.48172   L 219.93895,160.91827   L 235.40341,135.98333   L 201.99699,154.08514   z "
     style="fill:#ffffff;fill-rule:evenodd;fill-opacity:1;stroke:none;" />
  <path
     id="path13"
     d="  M 180.61847,190.60843   C 180.61847,189.68935 180.61847,189.01004 180.61847,188.53052   C 180.61847,185.85321 180.97811,183.53554 181.73735,181.61747   C 182.29678,180.13895 183.1759,178.66044 184.41466,177.18193   C 185.33373,176.06305 186.97209,174.50462 189.32972,172.4267   C 191.72731,170.30883 193.24578,168.67048 193.96506,167.43172   C 194.64437,166.19297 195.00401,164.83433 195.00401,163.35582   C 195.00401,160.71847 193.96506,158.36084 191.88715,156.36285   C 189.84919,154.36486 187.29176,153.36586 184.29478,153.36586   C 181.37771,153.36586 178.94016,154.24498 176.98213,156.08313   C 175.06405,157.88132 173.78534,160.75843 173.18594,164.59458   L 166.15301,163.79538   C 166.79237,158.6006 168.67048,154.64458 171.78735,151.88735   C 174.90421,149.13012 179.02008,147.73152 184.1749,147.73152   C 189.60944,147.73152 193.9251,149.21004 197.16184,152.16707   C 200.39859,155.12409 202.03694,158.72048 202.03694,162.91626   C 202.03694,165.35381 201.47751,167.59156 200.31867,169.62952   C 199.1998,171.66747 196.96205,174.14498 193.64538,177.10201   C 191.40763,179.06004 189.96907,180.53855 189.28976,181.45763   C 188.61044,182.3767 188.09096,183.45562 187.77128,184.69437   C 187.4516,185.89317 187.2518,187.8512 187.21184,190.60843   z  M 180.21887,204.2747   L 180.21887,196.52249   L 188.01104,196.52249   L 188.01104,204.2747   z "
     style="fill:#000000;fill-rule:evenodd;fill-opacity:1;stroke:none;" />
</svg>
