<?xml version="1.0" encoding="UTF-8" standalone="no"?>
<svg
   xmlns:dc="http://purl.org/dc/elements/1.1/"
   xmlns:cc="http://creativecommons.org/ns#"
   xmlns:rdf="http://www.w3.org/1999/02/22-rdf-syntax-ns#"
   xmlns:svg="http://www.w3.org/2000/svg"
   xmlns="http://www.w3.org/2000/svg"
   id="svg15"
   height="116.73mm"
   width="116.73mm"
   version="1.0">
  <metadata
     id="metadata19">
    <rdf:RDF>
      <cc:Work
         rdf:about="">
        <dc:format>image/svg+xml</dc:format>
        <dc:type
           rdf:resource="http://purl.org/dc/dcmitype/StillImage" />
      </cc:Work>
    </rdf:RDF>
  </metadata>
  <defs
     id="defs3">
    <pattern
       y="0"
       x="0"
       height="6"
       width="6"
       patternUnits="userSpaceOnUse"
       id="EMFhbasepattern" />
  </defs>
  <path
     id="path5"
     d="  M 220.57831,386.49156   L 220.57831,386.49156   L 386.49156,220.57831   L 220.57831,54.665059   L 54.665059,220.57831   L 220.57831,386.49156   z "
     style="fill:#ff8080;fill-rule:evenodd;fill-opacity:1;stroke:none;" />
  <path
     id="path7"
     d="  M 220.57831,386.49156   L 220.57831,386.49156   L 386.49156,220.57831   L 220.57831,54.665059   L 54.665059,220.57831   L 220.57831,386.49156  "
     style="fill:none;stroke:#000000;stroke-width:9.5903616px;stroke-linecap:butt;stroke-linejoin:miter;stroke-miterlimit:10;stroke-dasharray:none;stroke-opacity:1;" />
  <path
     id="path9"
     d="  M 261.21747,143.05622   L 261.21747,143.05622   L 232.04678,181.45763   L 227.2516,130.26907   L 215.42349,165.91325   L 201.91707,144.9743   L 198.28072,185.01405   L 171.94719,155.16405   L 181.05803,189.2498   L 146.33293,187.53152   L 146.05321,188.051   L 178.38072,211.38755   L 123.4759,215.02389   L 171.22791,228.96988   L 171.30783,229.68915   L 137.7016,249.14959   L 137.86144,249.66907   L 181.37771,244.43433   L 167.39176,268.41024   L 193.04598,257.74096   L 183.7753,297.14136   L 208.03092,265.49317   L 221.33755,316.32208   L 222.33654,316.36204   L 224.89397,265.29337   L 250.82791,296.86164   L 241.75702,255.26345   L 271.68694,271.88674   L 253.50522,250.02871   L 298.3002,262.85582   L 268.92971,235.76305   L 306.81164,229.96887   L 263.65502,218.06084   L 314.44397,192.24678   L 268.61004,196.36265   L 287.19136,166.43273   L 247.11164,188.17088   z "
     style="fill:#000000;fill-rule:evenodd;fill-opacity:1;stroke:none;" />
  <path
     id="path11"
     d="  M 253.4253,156.16305   L 253.4253,156.16305   L 229.12972,188.13092   L 225.09377,145.49377   L 215.26365,175.18393   L 203.99498,157.72148   L 200.95803,191.12791   L 179.02008,166.23293   L 186.61245,194.64437   L 157.68152,193.20582   L 157.44176,193.64538   L 184.3747,213.10582   L 138.62068,216.10281   L 178.42068,227.73112   L 178.46064,228.33052   L 150.44879,244.55421   L 150.60863,244.99377   L 186.89217,240.63815   L 175.22389,260.57811   L 196.60241,251.70702   L 188.89016,284.55401   L 209.06988,258.18052   L 220.17871,300.53795   L 221.01787,300.53795   L 223.13574,258.02068   L 244.75401,284.31425   L 237.2016,249.66907   L 262.13654,263.49518   L 246.99176,245.31345   L 284.31425,255.98273   L 259.81887,233.40542   L 291.4271,228.57028   L 255.42329,218.62028   L 297.78072,197.12188   L 259.57911,200.55843   L 275.04357,175.62349   L 241.63715,193.7253   z "
     style="fill:#ffffff;fill-rule:evenodd;fill-opacity:1;stroke:none;" />
  <path
     id="path13"
     d="  M 220.25863,230.24859   C 220.25863,229.32951 220.25863,228.6502 220.25863,228.17068   C 220.25863,225.49337 220.61827,223.1757 221.37751,221.25763   C 221.93694,219.77911 222.81606,218.3006 224.05482,216.82209   C 224.97389,215.70321 226.61225,214.14478 228.96988,212.06686   C 231.36747,209.94899 232.88594,208.31064 233.60522,207.07188   C 234.28453,205.83313 234.64417,204.4745 234.64417,202.99598   C 234.64417,200.35863 233.60522,198.001 231.52731,196.00301   C 229.48935,194.00502 226.93192,193.00602 223.93494,193.00602   C 221.01787,193.00602 218.58032,193.88514 216.62229,195.72329   C 214.70421,197.52148 213.4255,200.39859 212.8261,204.23474   L 205.79317,203.43554   C 206.43253,198.24076 208.31064,194.28474 211.42751,191.52751   C 214.54437,188.77028 218.66024,187.37168 223.81506,187.37168   C 229.2496,187.37168 233.56526,188.8502 236.802,191.80723   C 240.03875,194.76425 241.6771,198.36064 241.6771,202.55642   C 241.6771,204.99397 241.11767,207.23172 239.95883,209.26968   C 238.83996,211.30763 236.60221,213.78514 233.28554,216.74217   C 231.04779,218.7002 229.60923,220.17871 228.92992,221.09779   C 228.2506,222.01686 227.73112,223.09578 227.41144,224.33453   C 227.09176,225.53333 226.89196,227.49136 226.852,230.24859   z  M 219.85903,243.91486   L 219.85903,236.16265   L 227.6512,236.16265   L 227.6512,243.91486   z "
     style="fill:#000000;fill-rule:evenodd;fill-opacity:1;stroke:none;" />
</svg>
