<?xml version="1.0" encoding="UTF-8" standalone="no"?>
<svg
   xmlns:dc="http://purl.org/dc/elements/1.1/"
   xmlns:cc="http://creativecommons.org/ns#"
   xmlns:rdf="http://www.w3.org/1999/02/22-rdf-syntax-ns#"
   xmlns:svg="http://www.w3.org/2000/svg"
   xmlns="http://www.w3.org/2000/svg"
   id="svg11"
   height="130.27mm"
   width="130.27mm"
   version="1.0">
  <metadata
     id="metadata15">
    <rdf:RDF>
      <cc:Work
         rdf:about="">
        <dc:format>image/svg+xml</dc:format>
        <dc:type
           rdf:resource="http://purl.org/dc/dcmitype/StillImage" />
      </cc:Work>
    </rdf:RDF>
  </metadata>
  <defs
     id="defs3">
    <pattern
       y="0"
       x="0"
       height="6"
       width="6"
       patternUnits="userSpaceOnUse"
       id="EMFhbasepattern" />
  </defs>
  <path
     id="path5"
     d="  M 164.63454,327.67068   C 164.63454,437.95983 327.67068,437.95983 327.67068,327.67068   C 437.95983,327.67068 437.95983,164.63454 327.67068,164.63454   C 327.67068,54.345381 164.63454,54.345381 164.63454,164.63454   C 54.345381,164.63454 54.345381,327.67068 164.63454,327.67068   z "
     style="fill:#ffff80;fill-rule:evenodd;fill-opacity:1;stroke:none;" />
  <path
     id="path7"
     d="  M 164.63454,327.67068   C 164.63454,437.95983 327.67068,437.95983 327.67068,327.67068   C 437.95983,327.67068 437.95983,164.63454 327.67068,164.63454   C 327.67068,54.345381 164.63454,54.345381 164.63454,164.63454   C 54.345381,164.63454 54.345381,327.67068 164.63454,327.67068  "
     style="fill:none;stroke:#000000;stroke-width:9.5903616px;stroke-linecap:butt;stroke-linejoin:miter;stroke-miterlimit:10;stroke-dasharray:none;stroke-opacity:1;" />
  <path
     id="path9"
     d="  M 164.75442,268.68996   L 164.75442,206.91205   L 209.42952,206.91205   L 209.42952,214.18474   L 172.94618,214.18474   L 172.94618,233.1257   L 207.11184,233.1257   L 207.11184,240.35843   L 172.94618,240.35843   L 172.94618,261.37731   L 210.86807,261.37731   L 210.86807,268.68996   z  M 219.69919,238.6002   C 219.69919,228.33052 222.45642,220.29859 227.93092,214.50441   C 233.44538,208.71024 240.55823,205.79317 249.26947,205.79317   C 254.98373,205.79317 260.09859,207.1518 264.69397,209.90903   C 269.28935,212.6263 272.76586,216.42249 275.16345,221.29759   C 277.56104,226.17269 278.75984,231.68715 278.75984,237.88092   C 278.75984,244.15461 277.52108,249.74899 274.96365,254.70401   C 272.44618,259.65903 268.8498,263.3753 264.21445,265.93273   C 259.57911,268.49016 254.58413,269.72891 249.22951,269.72891   C 243.39538,269.72891 238.2006,268.33032 233.64518,265.53313   C 229.0498,262.73594 225.57329,258.8998 223.21566,254.0247   C 220.85803,249.14959 219.69919,244.03474 219.69919,238.6002   z  M 228.13072,238.72008   C 228.13072,246.15261 230.12871,252.0267 234.1247,256.30241   C 238.12068,260.61807 243.15562,262.73594 249.18955,262.73594   C 255.34337,262.73594 260.41827,260.57811 264.37429,256.26245   C 268.37028,251.94678 270.32831,245.79297 270.32831,237.84096   C 270.32831,232.80602 269.48915,228.41044 267.81084,224.65421   C 266.09257,220.89799 263.61506,218.02088 260.33835,215.94297   C 257.06164,213.86506 253.38534,212.8261 249.30943,212.8261   C 243.51526,212.8261 238.56024,214.82409 234.36445,218.82008   C 230.20863,222.7761 228.13072,229.40943 228.13072,238.72008   z  M 289.30923,268.68996   L 289.30923,206.91205   L 310.60783,206.91205   C 315.40301,206.91205 319.07931,207.19176 321.59678,207.79116   C 325.11325,208.59036 328.1502,210.06887 330.66767,212.2267   C 333.90441,214.98393 336.34196,218.5004 337.98032,222.7761   C 339.57871,227.0518 340.37791,231.96686 340.37791,237.44136   C 340.37791,242.15662 339.81847,246.31245 338.73955,249.94879   C 337.66064,253.54518 336.26204,256.54216 334.54377,258.93976   C 332.8255,261.29739 330.94738,263.1755 328.90943,264.53413   C 326.87148,265.89277 324.39397,266.93172 321.51686,267.651   C 318.63975,268.33032 315.32309,268.68996 311.60682,268.68996   z  M 297.501,261.37731   L 310.68775,261.37731   C 314.76365,261.37731 317.96044,261.01767 320.27811,260.25843   C 322.59578,259.49919 324.43393,258.42028 325.79257,257.06164   C 327.7506,255.10361 329.26907,252.50622 330.34799,249.22951   C 331.4269,245.95281 331.94638,241.99678 331.94638,237.32148   C 331.94638,230.88795 330.90742,225.89297 328.78955,222.41646   C 326.67168,218.97992 324.07429,216.62229 321.03734,215.46345   C 318.83955,214.62429 315.32309,214.18474 310.44799,214.18474   L 297.501,214.18474   z "
     style="fill:#000000;fill-rule:evenodd;fill-opacity:1;stroke:none;" />
</svg>
