<?xml version="1.0" encoding="UTF-8" standalone="no"?>
<svg
   xmlns:dc="http://purl.org/dc/elements/1.1/"
   xmlns:cc="http://creativecommons.org/ns#"
   xmlns:rdf="http://www.w3.org/1999/02/22-rdf-syntax-ns#"
   xmlns:svg="http://www.w3.org/2000/svg"
   xmlns="http://www.w3.org/2000/svg"
   id="svg11"
   height="89.669998mm"
   width="120.11mm"
   version="1.0">
  <metadata
     id="metadata15">
    <rdf:RDF>
      <cc:Work
         rdf:about="">
        <dc:format>image/svg+xml</dc:format>
        <dc:type
           rdf:resource="http://purl.org/dc/dcmitype/StillImage" />
      </cc:Work>
    </rdf:RDF>
  </metadata>
  <defs
     id="defs3">
    <pattern
       y="0"
       x="0"
       height="6"
       width="6"
       patternUnits="userSpaceOnUse"
       id="EMFhbasepattern" />
  </defs>
  <path
     id="path5"
     d="  M 54.345381,54.345381   L 54.345381,284.51405   L 399.59839,284.51405   L 399.59839,54.345381   L 54.345381,54.345381   z "
     style="fill:#80e0ff;fill-rule:evenodd;fill-opacity:1;stroke:none;" />
  <path
     id="path7"
     d="  M 54.345381,54.345381   L 399.59839,54.345381   L 399.59839,284.51405   L 54.345381,284.51405   z "
     style="fill:none;stroke:#000000;stroke-width:9.5903616px;stroke-linecap:butt;stroke-linejoin:miter;stroke-miterlimit:10;stroke-dasharray:none;stroke-opacity:1;" />
  <path
     id="path9"
     d="  M 145.57369,191.96707   L 145.57369,130.18915   L 190.24879,130.18915   L 190.24879,137.46185   L 153.76546,137.46185   L 153.76546,156.40281   L 187.93112,156.40281   L 187.93112,163.63554   L 153.76546,163.63554   L 153.76546,184.65442   L 191.68735,184.65442   L 191.68735,191.96707   z  M 200.51847,161.87731   C 200.51847,151.60763 203.2757,143.5757 208.7502,137.78152   C 214.26466,131.98735 221.37751,129.07028 230.08875,129.07028   C 235.80301,129.07028 240.91787,130.42891 245.51325,133.18614   C 250.10863,135.90341 253.58514,139.6996 255.98273,144.5747   C 258.38032,149.4498 259.57911,154.96425 259.57911,161.15803   C 259.57911,167.43172 258.34036,173.0261 255.78293,177.98112   C 253.26546,182.93614 249.66907,186.65241 245.03373,189.20984   C 240.39839,191.76727 235.40341,193.00602 230.04879,193.00602   C 224.21466,193.00602 219.01988,191.60743 214.46445,188.81024   C 209.86907,186.01305 206.39257,182.1769 204.03494,177.3018   C 201.67731,172.4267 200.51847,167.31184 200.51847,161.87731   z  M 208.95,161.99719   C 208.95,169.42972 210.94799,175.30381 214.94397,179.57952   C 218.93996,183.89518 223.9749,186.01305 230.00883,186.01305   C 236.16265,186.01305 241.23755,183.85522 245.19357,179.53956   C 249.18955,175.22389 251.14759,169.07008 251.14759,161.11807   C 251.14759,156.08313 250.30843,151.68755 248.63012,147.93132   C 246.91184,144.1751 244.43433,141.29799 241.15763,139.22008   C 237.88092,137.14217 234.20462,136.10321 230.12871,136.10321   C 224.33453,136.10321 219.37951,138.1012 215.18373,142.09719   C 211.02791,146.05321 208.95,152.68654 208.95,161.99719   z  M 270.12851,191.96707   L 270.12851,130.18915   L 291.4271,130.18915   C 296.22228,130.18915 299.89859,130.46887 302.41606,131.06827   C 305.93253,131.86747 308.96947,133.34598 311.48694,135.50381   C 314.72369,138.26104 317.16124,141.77751 318.79959,146.05321   C 320.39799,150.32891 321.19718,155.24397 321.19718,160.71847   C 321.19718,165.43373 320.63775,169.58956 319.55883,173.2259   C 318.47992,176.82229 317.08132,179.81927 315.36305,182.21686   C 313.64477,184.5745 311.76666,186.45261 309.72871,187.81124   C 307.69076,189.16988 305.21325,190.20883 302.33614,190.92811   C 299.45903,191.60743 296.14237,191.96707 292.4261,191.96707   z  M 278.32028,184.65442   L 291.50702,184.65442   C 295.58293,184.65442 298.77971,184.29478 301.09739,183.53554   C 303.41506,182.7763 305.25321,181.69739 306.61184,180.33875   C 308.56988,178.38072 310.08835,175.78333 311.16726,172.50662   C 312.24618,169.22992 312.76566,165.27389 312.76566,160.59859   C 312.76566,154.16506 311.7267,149.17008 309.60883,145.69357   C 307.49096,142.25703 304.89357,139.8994 301.85662,138.74056   C 299.65883,137.9014 296.14237,137.46185 291.26726,137.46185   L 278.32028,137.46185   z "
     style="fill:#000000;fill-rule:evenodd;fill-opacity:1;stroke:none;" />
</svg>
