<?xml version="1.0" encoding="UTF-8" standalone="no"?>
<svg
   xmlns:dc="http://purl.org/dc/elements/1.1/"
   xmlns:cc="http://creativecommons.org/ns#"
   xmlns:rdf="http://www.w3.org/1999/02/22-rdf-syntax-ns#"
   xmlns:svg="http://www.w3.org/2000/svg"
   xmlns="http://www.w3.org/2000/svg"
   id="svg15"
   height="89.669998mm"
   width="120.11mm"
   version="1.0">
  <metadata
     id="metadata19">
    <rdf:RDF>
      <cc:Work
         rdf:about="">
        <dc:format>image/svg+xml</dc:format>
        <dc:type
           rdf:resource="http://purl.org/dc/dcmitype/StillImage" />
      </cc:Work>
    </rdf:RDF>
  </metadata>
  <defs
     id="defs3">
    <pattern
       y="0"
       x="0"
       height="6"
       width="6"
       patternUnits="userSpaceOnUse"
       id="EMFhbasepattern" />
  </defs>
  <path
     id="path5"
     d="  M 54.345381,54.345381   L 54.345381,284.51405   L 399.59839,284.51405   L 399.59839,54.345381   L 54.345381,54.345381   z "
     style="fill:#80e0ff;fill-rule:evenodd;fill-opacity:1;stroke:none;" />
  <path
     id="path7"
     d="  M 54.345381,54.345381   L 399.59839,54.345381   L 399.59839,284.51405   L 54.345381,284.51405   z "
     style="fill:none;stroke:#000000;stroke-width:9.5903616px;stroke-linecap:butt;stroke-linejoin:miter;stroke-miterlimit:10;stroke-dasharray:none;stroke-opacity:1;" />
  <path
     id="path9"
     d="  M 267.61104,91.907629   L 267.61104,91.907629   L 238.44036,130.30903   L 233.64518,79.120481   L 221.81707,114.76466   L 208.31064,93.825701   L 204.67429,133.86546   L 178.34076,104.01546   L 187.4516,138.1012   L 152.7265,136.38293   L 152.44678,136.90241   L 184.77429,160.23895   L 129.86948,163.8753   L 177.62148,177.82128   L 177.7014,178.54056   L 144.09518,198.001   L 144.25502,198.52048   L 187.77128,193.28574   L 173.78534,217.26164   L 199.43956,206.59237   L 190.16887,245.99277   L 214.42449,214.34458   L 227.73112,265.17349   L 228.73012,265.21345   L 231.28755,214.14478   L 257.22148,245.71305   L 248.1506,204.11486   L 278.08052,220.73815   L 259.89879,198.88012   L 304.69377,211.70723   L 275.32329,184.61446   L 313.20522,178.82028   L 270.04859,166.91225   L 320.83755,141.09819   L 275.00361,145.21405   L 293.58494,115.28413   L 253.50522,137.02229   z "
     style="fill:#000000;fill-rule:evenodd;fill-opacity:1;stroke:none;" />
  <path
     id="path11"
     d="  M 259.81887,105.01446   L 259.81887,105.01446   L 235.52329,136.98233   L 231.48735,94.345179   L 221.65723,124.03534   L 210.38855,106.57289   L 207.3516,139.97932   L 185.41365,115.08434   L 193.00602,143.49578   L 164.0751,142.05723   L 163.83534,142.49679   L 190.76827,161.95723   L 145.01425,164.95421   L 184.81425,176.58253   L 184.85421,177.18193   L 156.84237,193.40562   L 157.00221,193.84518   L 193.28574,189.48956   L 181.61747,209.42952   L 202.99598,200.55843   L 195.28373,233.40542   L 215.46345,207.03192   L 226.57229,249.38935   L 227.41144,249.38935   L 229.52931,206.87209   L 251.14759,233.16566   L 243.59518,198.52048   L 268.53012,212.34658   L 253.38534,194.16486   L 290.70783,204.83413   L 266.21245,182.25682   L 297.82068,177.42168   L 261.81686,167.47168   L 304.17429,145.97329   L 265.97269,149.40984   L 281.43714,124.4749   L 248.03072,142.5767   z "
     style="fill:#ffffff;fill-rule:evenodd;fill-opacity:1;stroke:none;" />
  <path
     id="path13"
     d="  M 226.65221,179.1   C 226.65221,178.18092 226.65221,177.5016 226.65221,177.02209   C 226.65221,174.34478 227.01184,172.02711 227.77108,170.10903   C 228.33052,168.63052 229.20964,167.15201 230.44839,165.67349   C 231.36747,164.55462 233.00582,162.99618 235.36345,160.91827   C 237.76104,158.8004 239.27951,157.16205 239.99879,155.92329   C 240.67811,154.68454 241.03775,153.3259 241.03775,151.84739   C 241.03775,149.21004 239.99879,146.85241 237.92088,144.85442   C 235.88293,142.85642 233.3255,141.85743 230.32851,141.85743   C 227.41144,141.85743 224.97389,142.73654 223.01586,144.5747   C 221.09779,146.37289 219.81907,149.25 219.21968,153.08614   L 212.18674,152.28695   C 212.8261,147.09217 214.70421,143.13614 217.82108,140.37891   C 220.93795,137.62168 225.05381,136.22309 230.20863,136.22309   C 235.64317,136.22309 239.95883,137.7016 243.19558,140.65863   C 246.43233,143.61566 248.07068,147.21205 248.07068,151.40783   C 248.07068,153.84538 247.51124,156.08313 246.35241,158.12108   C 245.23353,160.15903 242.99578,162.63654 239.67911,165.59357   C 237.44136,167.5516 236.00281,169.03012 235.32349,169.94919   C 234.64417,170.86827 234.1247,171.94719 233.80502,173.18594   C 233.48534,174.38474 233.28554,176.34277 233.24558,179.1   z  M 226.25261,192.76626   L 226.25261,185.01405   L 234.04478,185.01405   L 234.04478,192.76626   z "
     style="fill:#000000;fill-rule:evenodd;fill-opacity:1;stroke:none;" />
</svg>
