<?xml version="1.0" encoding="UTF-8" standalone="no"?>
<svg
   xmlns:dc="http://purl.org/dc/elements/1.1/"
   xmlns:cc="http://creativecommons.org/ns#"
   xmlns:rdf="http://www.w3.org/1999/02/22-rdf-syntax-ns#"
   xmlns:svg="http://www.w3.org/2000/svg"
   xmlns="http://www.w3.org/2000/svg"
   id="svg15"
   height="130.27mm"
   width="130.27mm"
   version="1.0">
  <metadata
     id="metadata19">
    <rdf:RDF>
      <cc:Work
         rdf:about="">
        <dc:format>image/svg+xml</dc:format>
        <dc:type
           rdf:resource="http://purl.org/dc/dcmitype/StillImage" />
      </cc:Work>
    </rdf:RDF>
  </metadata>
  <defs
     id="defs3">
    <pattern
       y="0"
       x="0"
       height="6"
       width="6"
       patternUnits="userSpaceOnUse"
       id="EMFhbasepattern" />
  </defs>
  <path
     id="path5"
     d="  M 164.63454,327.67068   C 164.63454,437.95983 327.67068,437.95983 327.67068,327.67068   C 437.95983,327.67068 437.95983,164.63454 327.67068,164.63454   C 327.67068,54.345381 164.63454,54.345381 164.63454,164.63454   C 54.345381,164.63454 54.345381,327.67068 164.63454,327.67068   z "
     style="fill:#ffff80;fill-rule:evenodd;fill-opacity:1;stroke:none;" />
  <path
     id="path7"
     d="  M 164.63454,327.67068   C 164.63454,437.95983 327.67068,437.95983 327.67068,327.67068   C 437.95983,327.67068 437.95983,164.63454 327.67068,164.63454   C 327.67068,54.345381 164.63454,54.345381 164.63454,164.63454   C 54.345381,164.63454 54.345381,327.67068 164.63454,327.67068  "
     style="fill:none;stroke:#000000;stroke-width:9.5903616px;stroke-linecap:butt;stroke-linejoin:miter;stroke-miterlimit:10;stroke-dasharray:none;stroke-opacity:1;" />
  <path
     id="path9"
     d="  M 188.8502,254.62409   L 210.26867,252.74598   C 211.30763,261.33735 213.66526,268.41024 217.34156,273.88473   C 221.05783,279.39919 226.81204,283.83473 234.64417,287.23132   C 242.43634,290.62791 251.22751,292.34618 260.97771,292.34618   C 269.60903,292.34618 277.28132,291.06747 283.91465,288.47008   C 290.54799,285.91265 295.50301,282.35622 298.73975,277.88072   C 301.9765,273.40522 303.5749,268.49016 303.5749,263.1755   C 303.5749,257.82088 302.01646,253.10562 298.89959,249.06968   C 295.78273,245.07369 290.62791,241.6771 283.43514,238.95984   C 278.83976,237.16164 268.65,234.36445 252.90582,230.56827   C 237.12168,226.81204 226.09277,223.21566 219.73915,219.85903   C 211.54739,215.58333 205.47349,210.26867 201.43755,203.8751   C 197.4016,197.52148 195.40361,190.40863 195.40361,182.53654   C 195.40361,173.86526 197.88112,165.75341 202.79618,158.24096   C 207.71124,150.68855 214.86405,144.9743 224.33453,141.09819   C 233.76506,137.18213 244.27449,135.22409 255.82289,135.22409   C 268.53012,135.22409 279.75883,137.26205 289.46907,141.37791   C 299.17931,145.45381 306.6518,151.48775 311.88654,159.47972   C 317.12128,167.43172 319.91847,176.42269 320.31807,186.49257   L 298.53996,188.13092   C 297.38112,177.3018 293.4251,169.11004 286.67188,163.55562   C 279.91867,158.04116 269.92871,155.24397 256.74196,155.24397   C 243.03574,155.24397 233.00582,157.76144 226.73213,162.79638   C 220.45843,167.83132 217.3016,173.90522 217.3016,180.97811   C 217.3016,187.17188 219.53935,192.24678 223.9749,196.20281   C 228.33052,200.19879 239.75903,204.2747 258.22048,208.47048   C 276.68192,212.6263 289.34919,216.26265 296.22228,219.37951   C 306.21224,224.01486 313.56485,229.84899 318.32008,236.92188   C 323.0753,243.95482 325.47289,252.10662 325.47289,261.29739   C 325.47289,270.44819 322.8755,279.03955 317.64076,287.11144   C 312.40602,295.22329 304.89357,301.49698 295.10341,305.97249   C 285.31325,310.44799 274.28433,312.68574 262.01666,312.68574   C 246.51225,312.68574 233.48534,310.44799 222.9759,305.93253   C 212.46646,301.3771 204.23474,294.58393 198.28072,285.47309   C 192.28674,276.4022 189.16988,266.13253 188.8502,254.62409   z "
     style="fill:#000000;fill-rule:evenodd;fill-opacity:1;stroke:none;" />
  <path
     id="path11"
     d="  M 236.56225,140.65863   L 236.56225,351.64658  "
     style="fill:none;stroke:#000000;stroke-width:9.5903616px;stroke-linecap:butt;stroke-linejoin:miter;stroke-miterlimit:10;stroke-dasharray:none;stroke-opacity:1;" />
  <path
     id="path13"
     d="  M 255.74297,140.65863   L 255.74297,351.64658  "
     style="fill:none;stroke:#000000;stroke-width:9.5903616px;stroke-linecap:butt;stroke-linejoin:miter;stroke-miterlimit:10;stroke-dasharray:none;stroke-opacity:1;" />
</svg>
