<?xml version="1.0" encoding="UTF-8" standalone="no"?>
<svg
   xmlns:dc="http://purl.org/dc/elements/1.1/"
   xmlns:cc="http://creativecommons.org/ns#"
   xmlns:rdf="http://www.w3.org/1999/02/22-rdf-syntax-ns#"
   xmlns:svg="http://www.w3.org/2000/svg"
   xmlns="http://www.w3.org/2000/svg"
   id="svg15"
   height="89.669998mm"
   width="120.11mm"
   version="1.0">
  <metadata
     id="metadata19">
    <rdf:RDF>
      <cc:Work
         rdf:about="">
        <dc:format>image/svg+xml</dc:format>
        <dc:type
           rdf:resource="http://purl.org/dc/dcmitype/StillImage" />
      </cc:Work>
    </rdf:RDF>
  </metadata>
  <defs
     id="defs3">
    <pattern
       y="0"
       x="0"
       height="6"
       width="6"
       patternUnits="userSpaceOnUse"
       id="EMFhbasepattern" />
  </defs>
  <path
     id="path5"
     d="  M 54.345381,54.345381   L 54.345381,284.51405   L 399.59839,284.51405   L 399.59839,54.345381   L 54.345381,54.345381   z "
     style="fill:#80e0ff;fill-rule:evenodd;fill-opacity:1;stroke:none;" />
  <path
     id="path7"
     d="  M 54.345381,54.345381   L 399.59839,54.345381   L 399.59839,284.51405   L 54.345381,284.51405   z "
     style="fill:none;stroke:#000000;stroke-width:9.5903616px;stroke-linecap:butt;stroke-linejoin:miter;stroke-miterlimit:10;stroke-dasharray:none;stroke-opacity:1;" />
  <path
     id="path9"
     d="  M 169.66948,177.9012   L 191.08795,176.02309   C 192.1269,184.61446 194.48454,191.68735 198.16084,197.16184   C 201.87711,202.6763 207.63132,207.11184 215.46345,210.50843   C 223.25562,213.90502 232.04678,215.62329 241.79698,215.62329   C 250.42831,215.62329 258.1006,214.34458 264.73393,211.74719   C 271.36727,209.18976 276.32229,205.63333 279.55903,201.15783   C 282.79578,196.68233 284.39417,191.76727 284.39417,186.45261   C 284.39417,181.09799 282.83574,176.38273 279.71887,172.34678   C 276.602,168.3508 271.44718,164.95421 264.25441,162.23695   C 259.65903,160.43875 249.46927,157.64156 233.7251,153.84538   C 217.94096,150.08915 206.91205,146.49277 200.55843,143.13614   C 192.36666,138.86044 186.29277,133.54578 182.25682,127.15221   C 178.22088,120.79859 176.22289,113.68574 176.22289,105.81365   C 176.22289,97.142368 178.7004,89.030521 183.61546,81.518071   C 188.53052,73.965662 195.68333,68.251405 205.15381,64.3753   C 214.58433,60.459236 225.09377,58.501204 236.64217,58.501204   C 249.34939,58.501204 260.57811,60.539156 270.28835,64.655019   C 279.99859,68.730923 287.47108,74.764858 292.70582,82.756826   C 297.94056,90.708834 300.73775,99.699798 301.13735,109.76968   L 279.35923,111.40803   C 278.2004,100.57891 274.24437,92.387147 267.49116,86.83273   C 260.73795,81.318272 250.74799,78.521083 237.56124,78.521083   C 223.85502,78.521083 213.8251,81.038553 207.5514,86.073493   C 201.27771,91.108432 198.12088,97.182328 198.12088,104.25522   C 198.12088,110.44899 200.35863,115.52389 204.79417,119.47992   C 209.1498,123.4759 220.57831,127.55181 239.03976,131.74759   C 257.5012,135.90341 270.16847,139.53976 277.04156,142.65662   C 287.03152,147.29197 294.38413,153.1261 299.13935,160.19899   C 303.89457,167.23193 306.29216,175.38373 306.29216,184.5745   C 306.29216,193.7253 303.69477,202.31666 298.46004,210.38855   C 293.2253,218.5004 285.71285,224.77409 275.92269,229.2496   C 266.13253,233.7251 255.10361,235.96285 242.83594,235.96285   C 227.33152,235.96285 214.30462,233.7251 203.79518,229.20964   C 193.28574,224.65421 185.05401,217.86104 179.1,208.7502   C 173.10602,199.67931 169.98915,189.40964 169.66948,177.9012   z "
     style="fill:#000000;fill-rule:evenodd;fill-opacity:1;stroke:none;" />
  <path
     id="path11"
     d="  M 217.38152,63.935742   L 217.38152,274.92369  "
     style="fill:none;stroke:#000000;stroke-width:9.5903616px;stroke-linecap:butt;stroke-linejoin:miter;stroke-miterlimit:10;stroke-dasharray:none;stroke-opacity:1;" />
  <path
     id="path13"
     d="  M 236.56225,63.935742   L 236.56225,274.92369  "
     style="fill:none;stroke:#000000;stroke-width:9.5903616px;stroke-linecap:butt;stroke-linejoin:miter;stroke-miterlimit:10;stroke-dasharray:none;stroke-opacity:1;" />
</svg>
