<?xml version="1.0" encoding="UTF-8" standalone="no"?>
<svg
   xmlns:dc="http://purl.org/dc/elements/1.1/"
   xmlns:cc="http://creativecommons.org/ns#"
   xmlns:rdf="http://www.w3.org/1999/02/22-rdf-syntax-ns#"
   xmlns:svg="http://www.w3.org/2000/svg"
   xmlns="http://www.w3.org/2000/svg"
   id="svg15"
   height="95.75mm"
   width="95.75mm"
   version="1.0">
  <metadata
     id="metadata19">
    <rdf:RDF>
      <cc:Work
         rdf:about="">
        <dc:format>image/svg+xml</dc:format>
        <dc:type
           rdf:resource="http://purl.org/dc/dcmitype/StillImage" />
      </cc:Work>
    </rdf:RDF>
  </metadata>
  <defs
     id="defs3">
    <pattern
       y="0"
       x="0"
       height="6"
       width="6"
       patternUnits="userSpaceOnUse"
       id="EMFhbasepattern" />
  </defs>
  <path
     id="path5"
     d="  M 54.345381,54.345381   L 54.345381,307.53092   L 307.53092,307.53092   L 307.53092,54.345381   L 54.345381,54.345381   z "
     style="fill:#aaffaa;fill-rule:evenodd;fill-opacity:1;stroke:none;" />
  <path
     id="path7"
     d="  M 54.345381,54.345381   L 307.53092,54.345381   L 307.53092,307.53092   L 54.345381,307.53092   z "
     style="fill:none;stroke:#000000;stroke-width:9.5903616px;stroke-linecap:butt;stroke-linejoin:miter;stroke-miterlimit:10;stroke-dasharray:none;stroke-opacity:1;" />
  <path
     id="path9"
     d="  M 123.63574,189.40964   L 145.05421,187.53152   C 146.09317,196.12289 148.4508,203.19578 152.12711,208.67028   C 155.84337,214.18474 161.59759,218.62028 169.42972,222.01686   C 177.22188,225.41345 186.01305,227.13172 195.76325,227.13172   C 204.39458,227.13172 212.06686,225.85301 218.7002,223.25562   C 225.33353,220.69819 230.28855,217.14176 233.5253,212.66626   C 236.76204,208.19076 238.36044,203.2757 238.36044,197.96104   C 238.36044,192.60642 236.802,187.89116 233.68514,183.85522   C 230.56827,179.85923 225.41345,176.46265 218.22068,173.74538   C 213.6253,171.94719 203.43554,169.15 187.69136,165.35381   C 171.90723,161.59759 160.87831,158.0012 154.5247,154.64458   C 146.33293,150.36887 140.25903,145.05421 136.22309,138.66064   C 132.18715,132.30703 130.18915,125.19417 130.18915,117.32209   C 130.18915,108.6508 132.66666,100.53895 137.58172,93.026505   C 142.49679,85.474095 149.6496,79.759838 159.12008,75.883734   C 168.5506,71.96767 179.06004,70.009638 190.60843,70.009638   C 203.31566,70.009638 214.54437,72.047589 224.25462,76.163453   C 233.96486,80.239356 241.43735,86.273292 246.67208,94.26526   C 251.90682,102.21727 254.70401,111.20823 255.10361,121.27811   L 233.3255,122.91646   C 232.16666,112.08735 228.21064,103.89558 221.45743,98.341163   C 214.70421,92.826705 204.71425,90.029517 191.52751,90.029517   C 177.82128,90.029517 167.79136,92.546987 161.51767,97.581926   C 155.24397,102.61687 152.08715,108.69076 152.08715,115.76365   C 152.08715,121.95743 154.3249,127.03233 158.76044,130.98835   C 163.11606,134.98434 174.54458,139.06024 193.00602,143.25602   C 211.46747,147.41185 224.13474,151.04819 231.00783,154.16506   C 240.99779,158.8004 248.3504,164.63454 253.10562,171.70743   C 257.86084,178.74036 260.25843,186.89217 260.25843,196.08293   C 260.25843,205.23373 257.66104,213.8251 252.4263,221.89698   C 247.19156,230.00883 239.67911,236.28253 229.88895,240.75803   C 220.09879,245.23353 209.06988,247.47128 196.80221,247.47128   C 181.29779,247.47128 168.27088,245.23353 157.76144,240.71807   C 147.25201,236.16265 139.02028,229.36947 133.06626,220.25863   C 127.07229,211.18775 123.95542,200.91807 123.63574,189.40964   z "
     style="fill:#000000;fill-rule:evenodd;fill-opacity:1;stroke:none;" />
  <path
     id="path11"
     d="  M 171.34779,75.444176   L 171.34779,286.43212  "
     style="fill:none;stroke:#000000;stroke-width:9.5903616px;stroke-linecap:butt;stroke-linejoin:miter;stroke-miterlimit:10;stroke-dasharray:none;stroke-opacity:1;" />
  <path
     id="path13"
     d="  M 190.52851,75.444176   L 190.52851,286.43212  "
     style="fill:none;stroke:#000000;stroke-width:9.5903616px;stroke-linecap:butt;stroke-linejoin:miter;stroke-miterlimit:10;stroke-dasharray:none;stroke-opacity:1;" />
</svg>
