<?xml version="1.0" encoding="UTF-8" standalone="no"?>
<svg
   xmlns:dc="http://purl.org/dc/elements/1.1/"
   xmlns:cc="http://creativecommons.org/ns#"
   xmlns:rdf="http://www.w3.org/1999/02/22-rdf-syntax-ns#"
   xmlns:svg="http://www.w3.org/2000/svg"
   xmlns="http://www.w3.org/2000/svg"
   id="svg9"
   height="122.82mm"
   width="122.83mm"
   version="1.0">
  <metadata
     id="metadata13">
    <rdf:RDF>
      <cc:Work
         rdf:about="">
        <dc:format>image/svg+xml</dc:format>
        <dc:type
           rdf:resource="http://purl.org/dc/dcmitype/StillImage" />
      </cc:Work>
    </rdf:RDF>
  </metadata>
  <defs
     id="defs3">
    <pattern
       y="0"
       x="0"
       height="6"
       width="6"
       patternUnits="userSpaceOnUse"
       id="EMFhbasepattern" />
  </defs>
  <path
     id="path5"
     d="  M 78.640963,78.640963   L 78.640963,78.640963   L 78.640963,385.53252   L 385.53252,385.53252   L 385.53252,78.640963   z "
     style="fill:none;stroke:#000000;stroke-width:14.385542px;stroke-linecap:butt;stroke-linejoin:miter;stroke-miterlimit:10;stroke-dasharray:none;stroke-opacity:1;" />
  <path
     id="path7"
     d="  M 148.81044,305.53293   L 148.81044,99.619878   L 219.73915,99.619878   C 235.76305,99.619878 247.99076,100.57891 256.42229,102.53695   C 268.21044,105.25422 278.28032,110.20924 286.63192,117.28213   C 297.501,126.47289 305.61285,138.22108 311.00743,152.48674   C 316.402,166.79237 319.07931,183.09598 319.07931,201.43755   C 319.07931,217.1018 317.24116,230.96787 313.60481,243.03574   C 309.92851,255.14357 305.25321,265.13353 299.53895,273.04558   C 293.82469,280.95763 287.59096,287.19136 280.79779,291.70682   C 274.00461,296.26224 265.81285,299.69879 256.22249,302.05642   C 246.59217,304.37409 235.56325,305.53293 223.13574,305.53293   z  M 176.06305,281.23735   L 220.01887,281.23735   C 233.60522,281.23735 244.27449,279.99859 251.98674,277.48112   C 259.73895,274.92369 265.89277,271.36727 270.44819,266.77188   C 276.92168,260.33835 281.95662,251.6271 285.55301,240.71807   C 289.18935,229.80903 290.98755,216.58233 290.98755,201.03795   C 290.98755,179.4996 287.43112,162.95622 280.35823,151.36787   C 273.28534,139.81948 264.69397,132.06727 254.58413,128.11124   C 247.27148,125.31405 235.52329,123.91546 219.33956,123.91546   L 176.06305,123.91546   z "
     style="fill:#000000;fill-rule:evenodd;fill-opacity:1;stroke:none;" />
</svg>
