<?xml version="1.0" encoding="UTF-8" standalone="no"?>
<svg
   xmlns:dc="http://purl.org/dc/elements/1.1/"
   xmlns:cc="http://creativecommons.org/ns#"
   xmlns:rdf="http://www.w3.org/1999/02/22-rdf-syntax-ns#"
   xmlns:svg="http://www.w3.org/2000/svg"
   xmlns="http://www.w3.org/2000/svg"
   id="svg19"
   height="116.73mm"
   width="116.73mm"
   version="1.0">
  <metadata
     id="metadata23">
    <rdf:RDF>
      <cc:Work
         rdf:about="">
        <dc:format>image/svg+xml</dc:format>
        <dc:type
           rdf:resource="http://purl.org/dc/dcmitype/StillImage" />
      </cc:Work>
    </rdf:RDF>
  </metadata>
  <defs
     id="defs3">
    <pattern
       y="0"
       x="0"
       height="6"
       width="6"
       patternUnits="userSpaceOnUse"
       id="EMFhbasepattern" />
  </defs>
  <path
     id="path5"
     d="  M 172.6265,43.156626   L 172.6265,100.69879   L 268.53012,100.69879   L 268.53012,43.156626   L 172.6265,43.156626   z "
     style="fill:#000000;fill-rule:evenodd;fill-opacity:1;stroke:none;" />
  <path
     id="path7"
     d="  M 220.57831,386.49156   L 220.57831,386.49156   L 386.49156,220.57831   L 220.57831,54.665059   L 54.665059,220.57831   L 220.57831,386.49156   z "
     style="fill:#ff8080;fill-rule:evenodd;fill-opacity:1;stroke:none;" />
  <path
     id="path9"
     d="  M 220.57831,386.49156   L 220.57831,386.49156   L 386.49156,220.57831   L 220.57831,54.665059   L 54.665059,220.57831   L 220.57831,386.49156  "
     style="fill:none;stroke:#000000;stroke-width:9.5903616px;stroke-linecap:butt;stroke-linejoin:miter;stroke-miterlimit:10;stroke-dasharray:none;stroke-opacity:1;" />
  <path
     id="path11"
     d="  M 196.56245,196.48253   C 196.56245,197.68132 196.76225,197.08192 197.08192,198.6004   L 198.68032,198.6004   C 200.79819,198.6004 219.05984,183.29578 222.85602,182.25682   L 222.85602,180.69839   C 222.85602,179.4996 222.49638,179.1 221.29759,179.1   L 220.25863,179.1   C 219.25964,179.1 196.56245,195.60341 196.56245,196.48253   z "
     style="fill:#000000;fill-rule:evenodd;fill-opacity:1;stroke:none;" />
  <path
     id="path13"
     d="  M 148.17108,235.40341   C 148.17108,238.76004 147.09217,239.43935 147.09217,242.79598   C 147.09217,255.70301 156.92229,265.93273 169.7494,265.93273   L 171.30783,265.93273   C 182.73634,265.93273 192.36666,255.70301 192.36666,243.83494   L 192.36666,241.19759   C 192.36666,229.96887 182.01707,220.13875 170.78835,220.13875   L 169.18996,220.13875   C 163.8753,220.13875 159.0002,222.3765 155.96325,224.77409   C 150.80843,228.88996 151.32791,230.68815 148.17108,235.40341   z "
     style="fill:#ffffff;fill-rule:evenodd;fill-opacity:1;stroke:none;" />
  <path
     id="path15"
     d="  M 272.84578,261.17751   L 272.84578,260.65803   C 272.84578,255.82289 276.4022,251.70702 281.27731,251.70702   L 282.31626,251.70702   C 287.7508,251.70702 291.26726,255.66305 291.26726,261.17751   L 291.26726,262.7759   C 291.26726,265.69297 286.27229,269.60903 282.31626,269.60903   L 281.27731,269.60903   C 276.68192,269.60903 272.84578,265.77289 272.84578,261.17751   z  M 148.17108,235.40341   C 151.32791,230.68815 150.80843,228.88996 155.96325,224.77409   C 159.0002,222.3765 163.8753,220.13875 169.18996,220.13875   L 170.78835,220.13875   C 182.01707,220.13875 192.36666,229.96887 192.36666,241.19759   L 192.36666,243.83494   C 192.36666,255.70301 182.73634,265.93273 171.30783,265.93273   L 169.7494,265.93273   C 156.92229,265.93273 147.09217,255.70301 147.09217,242.79598   C 147.09217,239.39939 148.17108,238.76004 148.17108,235.40341   z  M 167.11205,187.01205   C 165.07409,187.01205 163.4757,176.38273 162.91626,174.38474   C 162.27691,172.02711 159.71948,163.35582 159.71948,161.23795   L 217.62128,161.23795   C 218.9,161.23795 220.77811,159.31988 220.77811,158.08112   L 220.77811,152.80642   C 220.77811,151.12811 218.86004,150.16907 217.1018,150.16907   L 140.77851,150.16907   C 139.02028,150.16907 137.10221,151.12811 137.10221,152.80642   L 137.10221,158.08112   C 137.10221,159.31988 139.02028,161.23795 140.25903,161.23795   L 148.69056,161.23795   L 155.04417,199.63935   L 138.74056,205.59337   L 145.57369,213.78514   C 143.21606,217.02188 140.09919,218.86004 136.98233,223.73514   C 135.78353,225.65321 132.38695,234.28453 132.38695,237.0018   L 132.38695,242.23654   C 132.38695,255.06365 136.34297,263.21546 142.7765,269.76887   C 148.29096,275.36325 158.24096,281.19739 169.18996,281.19739   L 170.26887,281.19739   C 191.32771,281.19739 208.1508,263.5751 208.1508,242.79598   L 240.23855,242.79598   C 241.59719,242.79598 244.83393,246.19257 246.03273,246.99176   L 266.53212,246.99176   C 263.85482,251.02771 261.29739,254.0247 261.29739,260.65803   C 261.29739,271.80682 270.60803,281.19739 281.79678,281.19739   C 292.30622,281.19739 302.85562,272.00662 302.85562,262.25642   L 302.85562,257.5012   C 302.85562,254.54417 299.29919,249.22951 298.1004,246.99176   L 315.48293,246.99176   L 317.92048,235.88293   L 300.73775,235.92289   L 300.73775,234.36445   L 303.61486,214.94397   L 303.3751,206.99196   C 303.3751,205.47349 299.25923,201.99699 298.1004,201.19779   L 259.69899,199.99899   L 259.69899,163.31586   C 259.69899,162.11707 258.81988,161.23795 257.58112,161.23795   C 256.38233,161.23795 255.50321,162.11707 255.50321,163.31586   L 255.50321,200.15883   C 250.34839,199.71927 241.19759,199.11988 236.04277,199.07992   C 232.9259,199.07992 229.08976,199.31968 226.01285,199.11988   C 220.97791,198.8002 221.17771,195.96305 219.17972,195.96305   L 208.1508,195.96305   L 212.94598,225.41345   L 203.91506,225.41345   L 203.91506,212.26666   C 203.91506,210.42851 194.1249,202.2767 191.84719,202.2767   L 173.94518,202.2767   L 173.94518,191.20783   L 171.18795,187.09197   z "
     style="fill:#000000;fill-rule:evenodd;fill-opacity:1;stroke:none;" />
  <path
     id="path17"
     d="  M 272.84578,261.17751   C 272.84578,265.77289 276.68192,269.60903 281.27731,269.60903   L 282.31626,269.60903   C 286.27229,269.60903 291.26726,265.69297 291.26726,262.7759   L 291.26726,261.17751   C 291.26726,255.66305 287.7508,251.70702 282.31626,251.70702   L 281.27731,251.70702   C 276.4022,251.70702 272.84578,255.82289 272.84578,260.65803   z "
     style="fill:#ffffff;fill-rule:evenodd;fill-opacity:1;stroke:none;" />
</svg>
