<?xml version="1.0" encoding="UTF-8" standalone="no"?>
<svg
   xmlns:dc="http://purl.org/dc/elements/1.1/"
   xmlns:cc="http://creativecommons.org/ns#"
   xmlns:rdf="http://www.w3.org/1999/02/22-rdf-syntax-ns#"
   xmlns:svg="http://www.w3.org/2000/svg"
   xmlns="http://www.w3.org/2000/svg"
   id="svg13"
   height="89.669998mm"
   width="120.11mm"
   version="1.0">
  <metadata
     id="metadata17">
    <rdf:RDF>
      <cc:Work
         rdf:about="">
        <dc:format>image/svg+xml</dc:format>
        <dc:type
           rdf:resource="http://purl.org/dc/dcmitype/StillImage" />
      </cc:Work>
    </rdf:RDF>
  </metadata>
  <defs
     id="defs3">
    <pattern
       y="0"
       x="0"
       height="6"
       width="6"
       patternUnits="userSpaceOnUse"
       id="EMFhbasepattern" />
  </defs>
  <path
     id="path5"
     d="  M 179.02008,15.983936   L 179.02008,54.345381   L 274.92369,54.345381   L 274.92369,15.983936   L 179.02008,15.983936   z "
     style="fill:#000000;fill-rule:evenodd;fill-opacity:1;stroke:none;" />
  <path
     id="path7"
     d="  M 54.345381,54.345381   L 54.345381,284.51405   L 399.59839,284.51405   L 399.59839,54.345381   L 54.345381,54.345381   z "
     style="fill:#80e0ff;fill-rule:evenodd;fill-opacity:1;stroke:none;" />
  <path
     id="path9"
     d="  M 54.345381,54.345381   L 399.59839,54.345381   L 399.59839,284.51405   L 54.345381,284.51405   z "
     style="fill:none;stroke:#000000;stroke-width:9.5903616px;stroke-linecap:butt;stroke-linejoin:miter;stroke-miterlimit:10;stroke-dasharray:none;stroke-opacity:1;" />
  <path
     id="path11"
     d="  M 171.14799,194.36466   L 171.14799,129.1502   L 215.18373,129.1502   L 215.18373,136.86245   L 179.77931,136.86245   L 179.77931,157.04217   L 210.38855,157.04217   L 210.38855,164.75442   L 179.77931,164.75442   L 179.77931,194.36466   z  M 226.01285,194.36466   L 226.01285,129.1502   L 250.46827,129.1502   C 255.46325,129.1502 259.45923,129.82952 262.49618,131.14819   C 265.49317,132.46687 267.8508,134.50482 269.56907,137.26205   C 271.24739,139.97932 272.1265,142.85642 272.1265,145.85341   C 272.1265,148.6506 271.36727,151.24799 269.84879,153.7255   C 268.33032,156.20301 266.05261,158.16104 262.9757,159.67952   C 266.93172,160.83835 269.96867,162.83634 272.08654,165.59357   C 274.20441,168.39076 275.28333,171.66747 275.28333,175.46365   C 275.28333,178.54056 274.60401,181.37771 273.3253,184.01506   C 272.04658,186.61245 270.44819,188.6504 268.53012,190.08895   C 266.652,191.48755 264.25441,192.56646 261.41727,193.28574   C 258.54016,194.04498 255.02369,194.36466 250.86787,194.36466   z  M 234.64417,156.56265   L 248.75,156.56265   C 252.58614,156.56265 255.30341,156.32289 256.98172,155.80341   C 259.17951,155.16405 260.81787,154.08514 261.93674,152.56666   C 263.05562,151.04819 263.61506,149.17008 263.61506,146.89237   C 263.61506,144.69458 263.09558,142.81646 262.05662,141.17811   C 261.01767,139.4998 259.53915,138.38092 257.62108,137.78152   C 255.66305,137.18213 252.38634,136.86245 247.67108,136.86245   L 234.64417,136.86245   z  M 234.64417,186.69237   L 250.86787,186.69237   C 253.66506,186.69237 255.62309,186.57249 256.74196,186.37269   C 258.73996,186.01305 260.41827,185.41365 261.73694,184.61446   C 263.09558,183.7753 264.17449,182.5765 265.05361,180.97811   C 265.89277,179.37972 266.33233,177.54156 266.33233,175.46365   C 266.33233,173.06606 265.69297,170.94819 264.45421,169.15   C 263.21546,167.3518 261.49718,166.07309 259.25943,165.35381   C 257.06164,164.63454 253.90482,164.2749 249.74899,164.2749   L 234.64417,164.2749   z  M 288.62992,194.36466   L 288.62992,129.1502   L 297.26124,129.1502   L 297.26124,194.36466   z "
     style="fill:#000000;fill-rule:evenodd;fill-opacity:1;stroke:none;" />
</svg>
