<?xml version="1.0" encoding="UTF-8" standalone="no"?>
<svg
   xmlns:dc="http://purl.org/dc/elements/1.1/"
   xmlns:cc="http://creativecommons.org/ns#"
   xmlns:rdf="http://www.w3.org/1999/02/22-rdf-syntax-ns#"
   xmlns:svg="http://www.w3.org/2000/svg"
   xmlns="http://www.w3.org/2000/svg"
   id="svg15"
   height="130.27mm"
   width="130.27mm"
   version="1.0">
  <metadata
     id="metadata19">
    <rdf:RDF>
      <cc:Work
         rdf:about="">
        <dc:format>image/svg+xml</dc:format>
        <dc:type
           rdf:resource="http://purl.org/dc/dcmitype/StillImage" />
      </cc:Work>
    </rdf:RDF>
  </metadata>
  <defs
     id="defs3">
    <pattern
       y="0"
       x="0"
       height="6"
       width="6"
       patternUnits="userSpaceOnUse"
       id="EMFhbasepattern" />
  </defs>
  <path
     id="path5"
     d="  M 164.63454,327.67068   C 164.63454,437.95983 327.67068,437.95983 327.67068,327.67068   C 437.95983,327.67068 437.95983,164.63454 327.67068,164.63454   C 327.67068,54.345381 164.63454,54.345381 164.63454,164.63454   C 54.345381,164.63454 54.345381,327.67068 164.63454,327.67068   z "
     style="fill:#ffff80;fill-rule:evenodd;fill-opacity:1;stroke:none;" />
  <path
     id="path7"
     d="  M 164.63454,327.67068   C 164.63454,437.95983 327.67068,437.95983 327.67068,327.67068   C 437.95983,327.67068 437.95983,164.63454 327.67068,164.63454   C 327.67068,54.345381 164.63454,54.345381 164.63454,164.63454   C 54.345381,164.63454 54.345381,327.67068 164.63454,327.67068  "
     style="fill:none;stroke:#000000;stroke-width:9.5903616px;stroke-linecap:butt;stroke-linejoin:miter;stroke-miterlimit:10;stroke-dasharray:none;stroke-opacity:1;" />
  <path
     id="path9"
     d="  M 183.81526,318.08032   L 183.81526,318.08032   L 145.45381,241.35743   L 193.40562,241.35743   L 193.40562,179.02008   L 298.89959,179.02008   L 298.89959,241.35743   L 346.8514,241.35743   L 308.48996,318.08032   z "
     style="fill:#ffffff;fill-rule:evenodd;fill-opacity:1;stroke:none;" />
  <path
     id="path11"
     d="  M 183.81526,318.08032   L 183.81526,318.08032   L 145.45381,241.35743   L 193.40562,241.35743   L 193.40562,179.02008   L 298.89959,179.02008   L 298.89959,241.35743   L 346.8514,241.35743   L 308.48996,318.08032   z "
     style="fill:none;stroke:#000000;stroke-width:9.5903616px;stroke-linecap:butt;stroke-linejoin:miter;stroke-miterlimit:10;stroke-dasharray:none;stroke-opacity:1;" />
  <path
     id="path13"
     d="  M 212.54638,288.66988   L 212.54638,247.47128   L 240.31847,247.47128   L 240.31847,252.34638   L 217.98092,252.34638   L 217.98092,265.09357   L 237.32148,265.09357   L 237.32148,269.96867   L 217.98092,269.96867   L 217.98092,288.66988   L 212.54638,288.66988  z    M 247.51124,288.66988   L 247.51124,247.47128   L 277.28132,247.47128   L 277.28132,252.34638   L 252.94578,252.34638   L 252.94578,264.97369   L 275.76285,264.97369   L 275.76285,269.80883   L 252.94578,269.80883   L 252.94578,283.79478   L 278.24036,283.79478   L 278.24036,288.66988   L 247.51124,288.66988  z   "
     style="fill:#000000;fill-rule:evenodd;fill-opacity:1;stroke:none;" />
</svg>
