<?xml version="1.0" encoding="UTF-8" standalone="no"?>
<svg
   xmlns:dc="http://purl.org/dc/elements/1.1/"
   xmlns:cc="http://creativecommons.org/ns#"
   xmlns:rdf="http://www.w3.org/1999/02/22-rdf-syntax-ns#"
   xmlns:svg="http://www.w3.org/2000/svg"
   xmlns="http://www.w3.org/2000/svg"
   id="svg11"
   height="65.639999mm"
   width="82.230003mm"
   version="1.0">
  <metadata
     id="metadata15">
    <rdf:RDF>
      <cc:Work
         rdf:about="">
        <dc:format>image/svg+xml</dc:format>
        <dc:type
           rdf:resource="http://purl.org/dc/dcmitype/StillImage" />
      </cc:Work>
    </rdf:RDF>
  </metadata>
  <defs
     id="defs3">
    <pattern
       y="0"
       x="0"
       height="6"
       width="6"
       patternUnits="userSpaceOnUse"
       id="EMFhbasepattern" />
  </defs>
  <path
     id="path5"
     d="  M 93.026505,193.40562   L 93.026505,193.40562   L 54.665059,116.68273   L 102.61687,116.68273   L 102.61687,54.345381   L 208.11084,54.345381   L 208.11084,116.68273   L 256.06265,116.68273   L 217.7012,193.40562   z "
     style="fill:#ffff80;fill-rule:evenodd;fill-opacity:1;stroke:none;" />
  <path
     id="path7"
     d="  M 93.026505,193.40562   L 93.026505,193.40562   L 54.665059,116.68273   L 102.61687,116.68273   L 102.61687,54.345381   L 208.11084,54.345381   L 208.11084,116.68273   L 256.06265,116.68273   L 217.7012,193.40562   z "
     style="fill:none;stroke:#000000;stroke-width:9.5903616px;stroke-linecap:butt;stroke-linejoin:miter;stroke-miterlimit:10;stroke-dasharray:none;stroke-opacity:1;" />
  <path
     id="path9"
     d="  M 121.75763,163.99518   L 121.75763,122.79658   L 149.52972,122.79658   L 149.52972,127.67168   L 127.19217,127.67168   L 127.19217,140.41887   L 146.53273,140.41887   L 146.53273,145.29397   L 127.19217,145.29397   L 127.19217,163.99518   L 121.75763,163.99518  z    M 156.72249,163.99518   L 156.72249,122.79658   L 186.49257,122.79658   L 186.49257,127.67168   L 162.15703,127.67168   L 162.15703,140.29899   L 184.97409,140.29899   L 184.97409,145.13413   L 162.15703,145.13413   L 162.15703,159.12008   L 187.4516,159.12008   L 187.4516,163.99518   L 156.72249,163.99518  z   "
     style="fill:#000000;fill-rule:evenodd;fill-opacity:1;stroke:none;" />
</svg>
