<?xml version="1.0" encoding="UTF-8" standalone="no"?>
<svg
   xmlns:dc="http://purl.org/dc/elements/1.1/"
   xmlns:cc="http://creativecommons.org/ns#"
   xmlns:rdf="http://www.w3.org/1999/02/22-rdf-syntax-ns#"
   xmlns:svg="http://www.w3.org/2000/svg"
   xmlns="http://www.w3.org/2000/svg"
   id="svg17"
   height="89.669998mm"
   width="120.11mm"
   version="1.0">
  <metadata
     id="metadata21">
    <rdf:RDF>
      <cc:Work
         rdf:about="">
        <dc:format>image/svg+xml</dc:format>
        <dc:type
           rdf:resource="http://purl.org/dc/dcmitype/StillImage" />
      </cc:Work>
    </rdf:RDF>
  </metadata>
  <defs
     id="defs3">
    <pattern
       y="0"
       x="0"
       height="6"
       width="6"
       patternUnits="userSpaceOnUse"
       id="EMFhbasepattern" />
  </defs>
  <path
     id="path5"
     d="  M 179.02008,15.983936   L 179.02008,54.345381   L 274.92369,54.345381   L 274.92369,15.983936   L 179.02008,15.983936   z "
     style="fill:#000000;fill-rule:evenodd;fill-opacity:1;stroke:none;" />
  <path
     id="path7"
     d="  M 54.345381,54.345381   L 54.345381,284.51405   L 399.59839,284.51405   L 399.59839,54.345381   L 54.345381,54.345381   z "
     style="fill:#80e0ff;fill-rule:evenodd;fill-opacity:1;stroke:none;" />
  <path
     id="path9"
     d="  M 54.345381,54.345381   L 399.59839,54.345381   L 399.59839,284.51405   L 54.345381,284.51405   z "
     style="fill:none;stroke:#000000;stroke-width:9.5903616px;stroke-linecap:butt;stroke-linejoin:miter;stroke-miterlimit:10;stroke-dasharray:none;stroke-opacity:1;" />
  <path
     id="path11"
     d="  M 164.63454,241.35743   L 164.63454,241.35743   L 126.27309,164.63454   L 174.2249,164.63454   L 174.2249,102.29719   L 279.71887,102.29719   L 279.71887,164.63454   L 327.67068,164.63454   L 289.30923,241.35743   z "
     style="fill:#ffffff;fill-rule:evenodd;fill-opacity:1;stroke:none;" />
  <path
     id="path13"
     d="  M 164.63454,241.35743   L 164.63454,241.35743   L 126.27309,164.63454   L 174.2249,164.63454   L 174.2249,102.29719   L 279.71887,102.29719   L 279.71887,164.63454   L 327.67068,164.63454   L 289.30923,241.35743   z "
     style="fill:none;stroke:#000000;stroke-width:9.5903616px;stroke-linecap:butt;stroke-linejoin:miter;stroke-miterlimit:10;stroke-dasharray:none;stroke-opacity:1;" />
  <path
     id="path15"
     d="  M 193.36566,211.94698   L 193.36566,170.74839   L 221.13775,170.74839   L 221.13775,175.62349   L 198.8002,175.62349   L 198.8002,188.37068   L 218.14076,188.37068   L 218.14076,193.24578   L 198.8002,193.24578   L 198.8002,211.94698   L 193.36566,211.94698  z    M 228.33052,211.94698   L 228.33052,170.74839   L 258.1006,170.74839   L 258.1006,175.62349   L 233.76506,175.62349   L 233.76506,188.2508   L 256.58212,188.2508   L 256.58212,193.08594   L 233.76506,193.08594   L 233.76506,207.07188   L 259.05963,207.07188   L 259.05963,211.94698   L 228.33052,211.94698  z   "
     style="fill:#000000;fill-rule:evenodd;fill-opacity:1;stroke:none;" />
</svg>
