<?xml version="1.0" encoding="UTF-8" standalone="no"?>
<svg
   xmlns:dc="http://purl.org/dc/elements/1.1/"
   xmlns:cc="http://creativecommons.org/ns#"
   xmlns:rdf="http://www.w3.org/1999/02/22-rdf-syntax-ns#"
   xmlns:svg="http://www.w3.org/2000/svg"
   xmlns="http://www.w3.org/2000/svg"
   id="svg11"
   height="130.27mm"
   width="130.27mm"
   version="1.0">
  <metadata
     id="metadata15">
    <rdf:RDF>
      <cc:Work
         rdf:about="">
        <dc:format>image/svg+xml</dc:format>
        <dc:type
           rdf:resource="http://purl.org/dc/dcmitype/StillImage" />
      </cc:Work>
    </rdf:RDF>
  </metadata>
  <defs
     id="defs3">
    <pattern
       y="0"
       x="0"
       height="6"
       width="6"
       patternUnits="userSpaceOnUse"
       id="EMFhbasepattern" />
  </defs>
  <path
     id="path5"
     d="  M 164.63454,327.67068   C 164.63454,437.95983 327.67068,437.95983 327.67068,327.67068   C 437.95983,327.67068 437.95983,164.63454 327.67068,164.63454   C 327.67068,54.345381 164.63454,54.345381 164.63454,164.63454   C 54.345381,164.63454 54.345381,327.67068 164.63454,327.67068   z "
     style="fill:#ffff80;fill-rule:evenodd;fill-opacity:1;stroke:none;" />
  <path
     id="path7"
     d="  M 164.63454,327.67068   C 164.63454,437.95983 327.67068,437.95983 327.67068,327.67068   C 437.95983,327.67068 437.95983,164.63454 327.67068,164.63454   C 327.67068,54.345381 164.63454,54.345381 164.63454,164.63454   C 54.345381,164.63454 54.345381,327.67068 164.63454,327.67068  "
     style="fill:none;stroke:#000000;stroke-width:9.5903616px;stroke-linecap:butt;stroke-linejoin:miter;stroke-miterlimit:10;stroke-dasharray:none;stroke-opacity:1;" />
  <path
     id="path9"
     d="  M 165.31385,268.68996   L 165.31385,206.91205   L 177.62148,206.91205   L 192.24678,250.62811   C 193.56546,254.70401 194.56446,257.78092 195.20381,259.77891   C 195.88313,257.54116 197.00201,254.22449 198.48052,249.86887   L 213.26566,206.91205   L 224.25462,206.91205   L 224.25462,268.68996   L 216.38253,268.68996   L 216.38253,216.98192   L 198.44056,268.68996   L 191.04799,268.68996   L 173.18594,216.10281   L 173.18594,268.68996   z  M 237.64116,268.68996   L 237.64116,206.91205   L 282.31626,206.91205   L 282.31626,214.18474   L 245.79297,214.18474   L 245.79297,233.1257   L 279.99859,233.1257   L 279.99859,240.35843   L 245.79297,240.35843   L 245.79297,261.37731   L 283.71486,261.37731   L 283.71486,268.68996   z  M 310.76767,268.68996   L 310.76767,214.18474   L 290.38815,214.18474   L 290.38815,206.91205   L 339.37891,206.91205   L 339.37891,214.18474   L 318.91947,214.18474   L 318.91947,268.68996   z "
     style="fill:#000000;fill-rule:evenodd;fill-opacity:1;stroke:none;" />
</svg>
