<?xml version="1.0" encoding="UTF-8" standalone="no"?>
<svg
   xmlns:dc="http://purl.org/dc/elements/1.1/"
   xmlns:cc="http://creativecommons.org/ns#"
   xmlns:rdf="http://www.w3.org/1999/02/22-rdf-syntax-ns#"
   xmlns:svg="http://www.w3.org/2000/svg"
   xmlns="http://www.w3.org/2000/svg"
   id="svg17"
   height="130.27mm"
   width="130.27mm"
   version="1.0">
  <metadata
     id="metadata21">
    <rdf:RDF>
      <cc:Work
         rdf:about="">
        <dc:format>image/svg+xml</dc:format>
        <dc:type
           rdf:resource="http://purl.org/dc/dcmitype/StillImage" />
      </cc:Work>
    </rdf:RDF>
  </metadata>
  <defs
     id="defs3">
    <pattern
       y="0"
       x="0"
       height="6"
       width="6"
       patternUnits="userSpaceOnUse"
       id="EMFhbasepattern" />
  </defs>
  <path
     id="path5"
     d="  M 198.2008,63.935742   L 198.2008,111.88755   L 294.10441,111.88755   L 294.10441,63.935742   L 198.2008,63.935742   z "
     style="fill:#000000;fill-rule:evenodd;fill-opacity:1;stroke:none;" />
  <path
     id="path7"
     d="  M 164.63454,327.67068   C 164.63454,437.95983 327.67068,437.95983 327.67068,327.67068   C 437.95983,327.67068 437.95983,164.63454 327.67068,164.63454   C 327.67068,54.345381 164.63454,54.345381 164.63454,164.63454   C 54.345381,164.63454 54.345381,327.67068 164.63454,327.67068   z "
     style="fill:#ffff80;fill-rule:evenodd;fill-opacity:1;stroke:none;" />
  <path
     id="path9"
     d="  M 164.63454,327.67068   C 164.63454,437.95983 327.67068,437.95983 327.67068,327.67068   C 437.95983,327.67068 437.95983,164.63454 327.67068,164.63454   C 327.67068,54.345381 164.63454,54.345381 164.63454,164.63454   C 54.345381,164.63454 54.345381,327.67068 164.63454,327.67068  "
     style="fill:none;stroke:#000000;stroke-width:9.5903616px;stroke-linecap:butt;stroke-linejoin:miter;stroke-miterlimit:10;stroke-dasharray:none;stroke-opacity:1;" />
  <path
     id="path11"
     d="  M 262.85582,236.28253   L 262.85582,218.62028   C 267.93072,218.74016 272.60602,222.05682 272.60602,227.2516   L 272.60602,227.6512   C 272.60602,232.80602 268.13052,236.28253 262.85582,236.28253   z  M 251.58714,203.59538   C 251.58714,198.72028 254.0247,195.32369 258.73996,195.32369   L 259.85883,195.32369   L 259.85883,211.10783   C 255.62309,211.02791 251.58714,207.99096 251.58714,203.59538   z  M 259.85883,190.04899   L 257.58112,190.04899   C 251.30743,190.04899 245.19357,196.96205 245.19357,203.59538   L 245.19357,205.83313   C 245.19357,208.51044 248.3504,212.58634 250.30843,213.90502   C 253.0257,215.74317 256.30241,216.66225 259.85883,217.5014   L 259.85883,236.28253   C 253.74498,234.84397 250.06867,232.36646 250.06867,225.01385   L 244.35441,225.01385   L 244.83393,231.00783   C 246.99176,234.28453 246.19257,236.08273 249.98875,238.6002   C 252.58614,240.31847 255.74297,241.55723 259.85883,241.55723   L 259.85883,248.31044   L 262.85582,248.31044   L 262.85582,241.55723   C 270.16847,241.55723 278.28032,236.04277 278.28032,229.52931   L 278.28032,223.49538   C 278.28032,216.58233 268.68996,213.2257 262.85582,211.86707   L 262.85582,195.32369   C 267.53112,195.32369 271.00763,198.52048 271.12751,203.19578   L 277.52108,203.19578   C 277.52108,195.44357 270.84779,190.04899 262.85582,190.04899   L 262.85582,185.53353   L 259.85883,185.53353   z "
     style="fill:#000000;fill-rule:evenodd;fill-opacity:1;stroke:none;" />
  <path
     id="path13"
     d="  M 256.10261,282.8757   L 232.64618,233.00582   L 218.38052,267.57108   L 205.71325,252.06666   L 173.74538,281.79678   L 175.86325,284.19437   L 175.86325,284.59397   L 205.63333,257.42128   L 218.9,274.24437   L 219.61927,274.24437   C 219.69919,271.76686 225.09377,260.89779 226.17269,257.5012   C 226.97188,255.02369 228.81004,251.6271 229.72911,249.38935   C 230.48835,247.59116 231.9269,241.95682 233.3255,241.63715   L 255.94277,290.26827   L 256.14257,290.66787   L 297.78072,225.13373   L 298.14036,225.41345   L 317.401,262.73594   L 320.67771,261.49718   L 298.18032,218.26064   C 297.86064,219.45943 279.67891,247.31144 277.36124,250.78795   C 274.80381,254.58413 257.66104,282.43614 256.10261,282.8757   z "
     style="fill:#000000;fill-rule:evenodd;fill-opacity:1;stroke:none;" />
  <path
     id="path15"
     d="  M 165.15401,303.53494   L 165.15401,303.53494   L 326.7516,303.53494   L 326.7516,300.17831   L 166.63253,300.17831   L 167.39176,300.17831   L 167.39176,187.41164   L 165.15401,187.41164   z "
     style="fill:#000000;fill-rule:evenodd;fill-opacity:1;stroke:none;" />
</svg>
