<?xml version="1.0" encoding="UTF-8" standalone="no"?>
<svg
   xmlns:dc="http://purl.org/dc/elements/1.1/"
   xmlns:cc="http://creativecommons.org/ns#"
   xmlns:rdf="http://www.w3.org/1999/02/22-rdf-syntax-ns#"
   xmlns:svg="http://www.w3.org/2000/svg"
   xmlns="http://www.w3.org/2000/svg"
   id="svg15"
   height="95.75mm"
   width="95.75mm"
   version="1.0">
  <metadata
     id="metadata19">
    <rdf:RDF>
      <cc:Work
         rdf:about="">
        <dc:format>image/svg+xml</dc:format>
        <dc:type
           rdf:resource="http://purl.org/dc/dcmitype/StillImage" />
      </cc:Work>
    </rdf:RDF>
  </metadata>
  <defs
     id="defs3">
    <pattern
       y="0"
       x="0"
       height="6"
       width="6"
       patternUnits="userSpaceOnUse"
       id="EMFhbasepattern" />
  </defs>
  <path
     id="path5"
     d="  M 132.98634,15.983936   L 132.98634,54.345381   L 228.88996,54.345381   L 228.88996,15.983936   L 132.98634,15.983936   z "
     style="fill:#000000;fill-rule:evenodd;fill-opacity:1;stroke:none;" />
  <path
     id="path7"
     d="  M 54.345381,54.345381   L 54.345381,307.53092   L 307.53092,307.53092   L 307.53092,54.345381   L 54.345381,54.345381   z "
     style="fill:#aaffaa;fill-rule:evenodd;fill-opacity:1;stroke:none;" />
  <path
     id="path9"
     d="  M 54.345381,54.345381   L 307.53092,54.345381   L 307.53092,307.53092   L 54.345381,307.53092   z "
     style="fill:none;stroke:#000000;stroke-width:9.5903616px;stroke-linecap:butt;stroke-linejoin:miter;stroke-miterlimit:10;stroke-dasharray:none;stroke-opacity:1;" />
  <path
     id="path11"
     d="  M 133.50582,108.97048   C 133.50582,103.05642 135.10421,98.421083 138.26104,95.064456   C 141.45783,91.70783 145.57369,90.029517 150.60863,90.029517   C 153.88534,90.029517 156.84237,90.828714 159.51968,92.387147   C 162.15703,93.985541 164.15502,96.183332 165.55361,98.980521   C 166.95221,101.81767 167.63152,104.9745 167.63152,108.57088   C 167.63152,112.16727 166.91225,115.40401 165.43373,118.28112   C 163.99518,121.15823 161.91727,123.31606 159.23996,124.75462   C 156.56265,126.23313 153.68554,126.95241 150.56867,126.95241   C 147.21205,126.95241 144.21506,126.15321 141.53775,124.55482   C 138.9004,122.91646 136.90241,120.71867 135.54377,117.88152   C 134.18514,115.08434 133.50582,112.12731 133.50582,108.97048   z  M 138.38092,109.0504   C 138.38092,113.36606 139.53976,116.76265 141.85743,119.2002   C 144.13514,121.67771 147.05221,122.91646 150.52871,122.91646   C 154.08514,122.91646 157.04217,121.67771 159.31988,119.2002   C 161.63755,116.68273 162.75642,113.1263 162.75642,108.53092   C 162.75642,105.65381 162.27691,103.09638 161.27791,100.93855   C 160.31887,98.780721 158.88032,97.102408 157.00221,95.903613   C 155.08413,94.704818 152.96626,94.10542 150.60863,94.10542   C 147.29197,94.10542 144.3749,95.264256 141.97731,97.541966   C 139.57972,99.859637 138.38092,103.69578 138.38092,109.0504   z  M 182.81626,126.35301   L 182.81626,94.864657   L 171.02811,94.864657   L 171.02811,90.668874   L 199.35964,90.668874   L 199.35964,94.864657   L 187.53152,94.864657   L 187.53152,126.35301   z  M 204.31466,126.35301   L 204.31466,90.668874   L 209.06988,90.668874   L 209.06988,105.33414   L 227.61124,105.33414   L 227.61124,90.668874   L 232.3265,90.668874   L 232.3265,126.35301   L 227.61124,126.35301   L 227.61124,109.52992   L 209.06988,109.52992   L 209.06988,126.35301   z "
     style="fill:#000000;fill-rule:evenodd;fill-opacity:1;stroke:none;" />
  <path
     id="path13"
     d="  M 182.73634,258.77992   L 182.73634,246.99176   C 176.86225,246.23253 172.06707,244.91385 168.3508,243.03574   C 164.6745,241.11767 161.47771,238.08072 158.8004,233.80502   C 156.08313,229.56927 154.5247,224.41445 154.08514,218.26064   L 165.95321,216.06285   C 166.87229,222.3765 168.51064,227.0518 170.82831,230.00883   C 174.14498,234.20462 178.101,236.56225 182.73634,237.04176   L 182.73634,199.47952   C 177.9012,198.56044 172.94618,196.68233 167.87128,193.80522   C 164.11506,191.72731 161.19799,188.81024 159.16004,185.09397   C 157.16205,181.37771 156.12309,177.18193 156.12309,172.46666   C 156.12309,164.0751 159.12008,157.28193 165.03413,152.04719   C 169.03012,148.57068 174.90421,146.41285 182.73634,145.65361   L 182.73634,140.01928   L 189.68935,140.01928   L 189.68935,145.65361   C 196.56245,146.29297 201.99699,148.29096 206.03293,151.68755   C 211.18775,155.96325 214.26466,161.83735 215.34357,169.30984   L 203.11586,171.14799   C 202.43654,166.51265 200.99799,162.95622 198.76024,160.47871   C 196.56245,158.04116 193.5255,156.40281 189.68935,155.60361   L 189.68935,189.60944   C 195.64337,191.12791 199.55943,192.28674 201.47751,193.08594   C 205.15381,194.72429 208.1508,196.68233 210.46847,199   C 212.78614,201.31767 214.58433,204.0749 215.82309,207.27168   C 217.06184,210.46847 217.7012,213.90502 217.7012,217.62128   C 217.7012,225.81305 215.10381,232.60622 209.86907,238.08072   C 204.67429,243.55522 197.96104,246.47229 189.68935,246.87188   L 189.68935,258.77992   z  M 182.73634,155.48373   C 178.14096,156.16305 174.54458,158.0012 171.90723,160.99819   C 169.26988,163.95522 167.91124,167.47168 167.91124,171.54759   C 167.91124,175.54357 169.07008,178.94016 171.30783,181.61747   C 173.54558,184.33474 177.38172,186.49257 182.73634,188.13092   z  M 189.68935,237.04176   C 194.28474,236.48233 198.08092,234.48433 201.07791,231.04779   C 204.0749,227.6512 205.55341,223.45542 205.55341,218.42048   C 205.55341,214.14478 204.51445,210.70823 202.39658,208.07088   C 200.27871,205.47349 196.04297,203.15582 189.68935,201.11787   z "
     style="fill:#000000;fill-rule:evenodd;fill-opacity:1;stroke:none;" />
</svg>
