<?xml version="1.0" encoding="UTF-8" standalone="no"?>
<svg
   xmlns:dc="http://purl.org/dc/elements/1.1/"
   xmlns:cc="http://creativecommons.org/ns#"
   xmlns:rdf="http://www.w3.org/1999/02/22-rdf-syntax-ns#"
   xmlns:svg="http://www.w3.org/2000/svg"
   xmlns="http://www.w3.org/2000/svg"
   id="svg15"
   height="89.669998mm"
   width="120.11mm"
   version="1.0">
  <metadata
     id="metadata19">
    <rdf:RDF>
      <cc:Work
         rdf:about="">
        <dc:format>image/svg+xml</dc:format>
        <dc:type
           rdf:resource="http://purl.org/dc/dcmitype/StillImage" />
      </cc:Work>
    </rdf:RDF>
  </metadata>
  <defs
     id="defs3">
    <pattern
       y="0"
       x="0"
       height="6"
       width="6"
       patternUnits="userSpaceOnUse"
       id="EMFhbasepattern" />
  </defs>
  <path
     id="path5"
     d="  M 179.02008,15.983936   L 179.02008,54.345381   L 274.92369,54.345381   L 274.92369,15.983936   L 179.02008,15.983936   z "
     style="fill:#000000;fill-rule:evenodd;fill-opacity:1;stroke:none;" />
  <path
     id="path7"
     d="  M 54.345381,54.345381   L 54.345381,284.51405   L 399.59839,284.51405   L 399.59839,54.345381   L 54.345381,54.345381   z "
     style="fill:#80e0ff;fill-rule:evenodd;fill-opacity:1;stroke:none;" />
  <path
     id="path9"
     d="  M 54.345381,54.345381   L 399.59839,54.345381   L 399.59839,284.51405   L 54.345381,284.51405   z "
     style="fill:none;stroke:#000000;stroke-width:9.5903616px;stroke-linecap:butt;stroke-linejoin:miter;stroke-miterlimit:10;stroke-dasharray:none;stroke-opacity:1;" />
  <path
     id="path11"
     d="  M 179.53956,97.462047   C 179.53956,91.547991 181.13795,86.912649 184.29478,83.556023   C 187.49156,80.199396 191.60743,78.521083 196.64237,78.521083   C 199.91907,78.521083 202.8761,79.32028 205.55341,80.878714   C 208.19076,82.477107 210.18875,84.674898 211.58735,87.472087   C 212.98594,90.309236 213.66526,93.466063 213.66526,97.062448   C 213.66526,100.65883 212.94598,103.89558 211.46747,106.77269   C 210.02891,109.6498 207.951,111.80763 205.27369,113.24618   C 202.59638,114.7247 199.71927,115.44397 196.60241,115.44397   C 193.24578,115.44397 190.24879,114.64478 187.57148,113.04638   C 184.93413,111.40803 182.93614,109.21024 181.57751,106.37309   C 180.21887,103.5759 179.53956,100.61887 179.53956,97.462047   z  M 184.41466,97.541966   C 184.41466,101.85763 185.57349,105.25422 187.89116,107.69177   C 190.16887,110.16928 193.08594,111.40803 196.56245,111.40803   C 200.11887,111.40803 203.0759,110.16928 205.35361,107.69177   C 207.67128,105.1743 208.79016,101.61787 208.79016,97.022489   C 208.79016,94.14538 208.31064,91.58795 207.31164,89.430119   C 206.35261,87.272288 204.91405,85.593975 203.03594,84.39518   C 201.11787,83.196384 199,82.596987 196.64237,82.596987   C 193.3257,82.596987 190.40863,83.755822 188.01104,86.033533   C 185.61345,88.351204 184.41466,92.187348 184.41466,97.541966   z  M 228.85,114.84458   L 228.85,83.356224   L 217.06184,83.356224   L 217.06184,79.160441   L 245.39337,79.160441   L 245.39337,83.356224   L 233.56526,83.356224   L 233.56526,114.84458   z  M 250.34839,114.84458   L 250.34839,79.160441   L 255.10361,79.160441   L 255.10361,93.825701   L 273.64498,93.825701   L 273.64498,79.160441   L 278.36024,79.160441   L 278.36024,114.84458   L 273.64498,114.84458   L 273.64498,98.021485   L 255.10361,98.021485   L 255.10361,114.84458   z "
     style="fill:#000000;fill-rule:evenodd;fill-opacity:1;stroke:none;" />
  <path
     id="path13"
     d="  M 228.77008,247.27148   L 228.77008,235.48333   C 222.89598,234.72409 218.1008,233.40542 214.38454,231.52731   C 210.70823,229.60923 207.51144,226.57229 204.83413,222.29658   C 202.11686,218.06084 200.55843,212.90602 200.11887,206.75221   L 211.98694,204.55441   C 212.90602,210.86807 214.54437,215.54337 216.86205,218.5004   C 220.17871,222.69618 224.13474,225.05381 228.77008,225.53333   L 228.77008,187.97108   C 223.93494,187.05201 218.97992,185.17389 213.90502,182.29678   C 210.14879,180.21887 207.23172,177.3018 205.19377,173.58554   C 203.19578,169.86927 202.15682,165.67349 202.15682,160.95823   C 202.15682,152.56666 205.15381,145.77349 211.06787,140.53875   C 215.06385,137.06225 220.93795,134.90442 228.77008,134.14518   L 228.77008,128.51084   L 235.72309,128.51084   L 235.72309,134.14518   C 242.59618,134.78454 248.03072,136.78253 252.06666,140.17911   C 257.22148,144.45482 260.29839,150.32891 261.37731,157.8014   L 249.14959,159.63956   C 248.47028,155.00421 247.03172,151.44779 244.79397,148.97028   C 242.59618,146.53273 239.55923,144.89438 235.72309,144.09518   L 235.72309,178.101   C 241.6771,179.61948 245.59317,180.77831 247.51124,181.57751   C 251.18755,183.21586 254.18453,185.17389 256.50221,187.49156   C 258.81988,189.80923 260.61807,192.56646 261.85682,195.76325   C 263.09558,198.96004 263.73494,202.39658 263.73494,206.11285   C 263.73494,214.30462 261.13755,221.09779 255.90281,226.57229   C 250.70803,232.04678 243.99478,234.96385 235.72309,235.36345   L 235.72309,247.27148   z  M 228.77008,143.9753   C 224.1747,144.65462 220.57831,146.49277 217.94096,149.48976   C 215.30361,152.44678 213.94498,155.96325 213.94498,160.03915   C 213.94498,164.03514 215.10381,167.43172 217.34156,170.10903   C 219.57931,172.8263 223.41546,174.98413 228.77008,176.62249   z  M 235.72309,225.53333   C 240.31847,224.97389 244.11466,222.9759 247.11164,219.53935   C 250.10863,216.14277 251.58714,211.94698 251.58714,206.91205   C 251.58714,202.63634 250.54819,199.1998 248.43032,196.56245   C 246.31245,193.96506 242.0767,191.64739 235.72309,189.60944   z "
     style="fill:#000000;fill-rule:evenodd;fill-opacity:1;stroke:none;" />
</svg>
