<?xml version="1.0" encoding="UTF-8" standalone="no"?>
<svg
   xmlns:dc="http://purl.org/dc/elements/1.1/"
   xmlns:cc="http://creativecommons.org/ns#"
   xmlns:rdf="http://www.w3.org/1999/02/22-rdf-syntax-ns#"
   xmlns:svg="http://www.w3.org/2000/svg"
   xmlns="http://www.w3.org/2000/svg"
   id="svg17"
   height="89.669998mm"
   width="120.11mm"
   version="1.0">
  <metadata
     id="metadata21">
    <rdf:RDF>
      <cc:Work
         rdf:about="">
        <dc:format>image/svg+xml</dc:format>
        <dc:type
           rdf:resource="http://purl.org/dc/dcmitype/StillImage" />
      </cc:Work>
    </rdf:RDF>
  </metadata>
  <defs
     id="defs3">
    <pattern
       y="0"
       x="0"
       height="6"
       width="6"
       patternUnits="userSpaceOnUse"
       id="EMFhbasepattern" />
  </defs>
  <path
     id="path5"
     d="  M 179.02008,15.983936   L 179.02008,54.345381   L 274.92369,54.345381   L 274.92369,15.983936   L 179.02008,15.983936   z "
     style="fill:#000000;fill-rule:evenodd;fill-opacity:1;stroke:none;" />
  <path
     id="path7"
     d="  M 54.345381,54.345381   L 54.345381,284.51405   L 399.59839,284.51405   L 399.59839,54.345381   L 54.345381,54.345381   z "
     style="fill:#80e0ff;fill-rule:evenodd;fill-opacity:1;stroke:none;" />
  <path
     id="path9"
     d="  M 54.345381,54.345381   L 399.59839,54.345381   L 399.59839,284.51405   L 54.345381,284.51405   z "
     style="fill:none;stroke:#000000;stroke-width:9.5903616px;stroke-linecap:butt;stroke-linejoin:miter;stroke-miterlimit:10;stroke-dasharray:none;stroke-opacity:1;" />
  <path
     id="path11"
     d="  M 243.6751,159.55964   L 243.6751,141.89739   C 248.75,142.01727 253.4253,145.33393 253.4253,150.52871   L 253.4253,150.92831   C 253.4253,156.08313 248.9498,159.55964 243.6751,159.55964   z  M 232.40642,126.87249   C 232.40642,121.99739 234.84397,118.6008 239.55923,118.6008   L 240.67811,118.6008   L 240.67811,134.38494   C 236.44237,134.30502 232.40642,131.26807 232.40642,126.87249   z  M 240.67811,113.3261   L 238.4004,113.3261   C 232.1267,113.3261 226.01285,120.23915 226.01285,126.87249   L 226.01285,129.11024   C 226.01285,131.78755 229.16968,135.86345 231.12771,137.18213   C 233.84498,139.02028 237.12168,139.93936 240.67811,140.77851   L 240.67811,159.55964   C 234.56425,158.12108 230.88795,155.64357 230.88795,148.29096   L 225.17369,148.29096   L 225.65321,154.28494   C 227.81104,157.56164 227.01184,159.35984 230.80803,161.87731   C 233.40542,163.59558 236.56225,164.83433 240.67811,164.83433   L 240.67811,171.58755   L 243.6751,171.58755   L 243.6751,164.83433   C 250.98775,164.83433 259.09959,159.31988 259.09959,152.80642   L 259.09959,146.77249   C 259.09959,139.85944 249.50923,136.50281 243.6751,135.14417   L 243.6751,118.6008   C 248.3504,118.6008 251.8269,121.79759 251.94678,126.47289   L 258.34036,126.47289   C 258.34036,118.72068 251.66706,113.3261 243.6751,113.3261   L 243.6751,108.81064   L 240.67811,108.81064   z "
     style="fill:#000000;fill-rule:evenodd;fill-opacity:1;stroke:none;" />
  <path
     id="path13"
     d="  M 236.92188,206.15281   L 213.46546,156.28293   L 199.1998,190.84819   L 186.53253,175.34377   L 154.56466,205.07389   L 156.68253,207.47148   L 156.68253,207.87108   L 186.45261,180.69839   L 199.71927,197.52148   L 200.43855,197.52148   C 200.51847,195.04397 205.91305,184.1749 206.99196,180.77831   C 207.79116,178.3008 209.62931,174.90421 210.54839,172.66646   C 211.30763,170.86827 212.74618,165.23393 214.14478,164.91425   L 236.76204,213.54538   L 236.96184,213.94498   L 278.6,148.41084   L 278.95963,148.69056   L 298.22028,186.01305   L 301.49698,184.77429   L 278.99959,141.53775   C 278.67992,142.73654 260.49819,170.58855 258.18052,174.06506   C 255.62309,177.86124 238.48032,205.71325 236.92188,206.15281   z "
     style="fill:#000000;fill-rule:evenodd;fill-opacity:1;stroke:none;" />
  <path
     id="path15"
     d="  M 145.97329,226.81204   L 145.97329,226.81204   L 307.57088,226.81204   L 307.57088,223.45542   L 147.45181,223.45542   L 148.21104,223.45542   L 148.21104,110.68875   L 145.97329,110.68875   z "
     style="fill:#000000;fill-rule:evenodd;fill-opacity:1;stroke:none;" />
</svg>
