<?xml version="1.0" encoding="UTF-8" standalone="no"?>
<svg
   xmlns:dc="http://purl.org/dc/elements/1.1/"
   xmlns:cc="http://creativecommons.org/ns#"
   xmlns:rdf="http://www.w3.org/1999/02/22-rdf-syntax-ns#"
   xmlns:svg="http://www.w3.org/2000/svg"
   xmlns="http://www.w3.org/2000/svg"
   id="svg9"
   height="41.279999mm"
   width="26.059999mm"
   version="1.0">
  <metadata
     id="metadata13">
    <rdf:RDF>
      <cc:Work
         rdf:about="">
        <dc:format>image/svg+xml</dc:format>
        <dc:type
           rdf:resource="http://purl.org/dc/dcmitype/StillImage" />
      </cc:Work>
    </rdf:RDF>
  </metadata>
  <defs
     id="defs3">
    <pattern
       y="0"
       x="0"
       height="6"
       width="6"
       patternUnits="userSpaceOnUse"
       id="EMFhbasepattern" />
  </defs>
  <path
     id="path5"
     d="  M 43.396385,65.693975   L 43.396385,122.07731   C 43.396385,130.06928 44.275501,135.10421 45.993774,137.22209   C 48.311445,139.97932 51.388353,141.37791 55.264457,141.33795   L 63.056626,141.33795   L 63.056626,144.73454   L 11.828112,144.73454   L 11.828112,141.33795   L 15.664257,141.33795   C 18.141767,141.37791 20.419478,140.73855 22.497389,139.4998   C 24.535341,138.26104 25.973895,136.54277 26.773092,134.4249   C 27.532329,132.30703 27.931927,128.19116 27.931927,122.07731   L 27.931927,65.693975   L 11.268675,65.693975   L 11.268675,58.940762   L 27.931927,58.940762   L 27.931927,53.306425   C 27.931927,44.755019 29.290562,37.522289 32.047791,31.608232   C 34.80502,25.654216 39.000803,20.859036 44.63514,17.222691   C 50.309437,13.586345 56.663051,11.748193 63.695983,11.748193   C 70.249397,11.748193 76.283332,13.866064 81.75783,18.101807   C 85.394175,20.938956 87.192368,24.055823 87.192368,27.572289   C 87.192368,29.450401 86.393171,31.208634 84.754818,32.846987   C 83.156425,34.525301 81.398192,35.324497 79.520079,35.324497   C 78.081525,35.324497 76.563051,34.844979 75.004617,33.806024   C 73.406224,32.767068 71.448192,30.569277 69.130521,27.132731   C 66.81285,23.736144 64.694979,21.458433 62.776907,20.259638   C 60.818875,19.060843 58.661043,18.501405 56.303413,18.461446   C 53.426304,18.501405 50.988754,19.260642 48.990762,20.779116   C 46.99277,22.29759 45.554216,24.69518 44.6751,27.891967   C 43.835943,31.128714 43.396385,39.400401 43.396385,52.746987   L 43.396385,58.940762   L 65.494176,58.940762   L 65.494176,65.693975   z "
     style="fill:#000000;fill-rule:evenodd;fill-opacity:1;stroke:none;" />
  <path
     id="path7"
     d="  M 43.396385,65.693975   L 43.396385,122.07731   C 43.396385,130.06928 44.275501,135.10421 45.993774,137.22209   C 48.311445,139.97932 51.388353,141.37791 55.264457,141.33795   L 63.056626,141.33795   L 63.056626,144.73454   L 11.828112,144.73454   L 11.828112,141.33795   L 15.664257,141.33795   C 18.141767,141.37791 20.419478,140.73855 22.497389,139.4998   C 24.535341,138.26104 25.973895,136.54277 26.773092,134.4249   C 27.532329,132.30703 27.931927,128.19116 27.931927,122.07731   L 27.931927,65.693975   L 11.268675,65.693975   L 11.268675,58.940762   L 27.931927,58.940762   L 27.931927,53.306425   C 27.931927,44.755019 29.290562,37.522289 32.047791,31.608232   C 34.80502,25.654216 39.000803,20.859036 44.63514,17.222691   C 50.309437,13.586345 56.663051,11.748193 63.695983,11.748193   C 70.249397,11.748193 76.283332,13.866064 81.75783,18.101807   C 85.394175,20.938956 87.192368,24.055823 87.192368,27.572289   C 87.192368,29.450401 86.393171,31.208634 84.754818,32.846987   C 83.156425,34.525301 81.398192,35.324497 79.520079,35.324497   C 78.081525,35.324497 76.563051,34.844979 75.004617,33.806024   C 73.406224,32.767068 71.448192,30.569277 69.130521,27.132731   C 66.81285,23.736144 64.694979,21.458433 62.776907,20.259638   C 60.818875,19.060843 58.661043,18.501405 56.303413,18.461446   C 53.426304,18.501405 50.988754,19.260642 48.990762,20.779116   C 46.99277,22.29759 45.554216,24.69518 44.6751,27.891967   C 43.835943,31.128714 43.396385,39.400401 43.396385,52.746987   L 43.396385,58.940762   L 65.494176,58.940762   L 65.494176,65.693975   z "
     style="fill:none;stroke:#000000;stroke-width:0.95903611px;stroke-linecap:butt;stroke-linejoin:miter;stroke-miterlimit:10;stroke-dasharray:none;stroke-opacity:1;" />
</svg>
