<?xml version="1.0" encoding="UTF-8" standalone="no"?>
<svg
   xmlns:dc="http://purl.org/dc/elements/1.1/"
   xmlns:cc="http://creativecommons.org/ns#"
   xmlns:rdf="http://www.w3.org/1999/02/22-rdf-syntax-ns#"
   xmlns:svg="http://www.w3.org/2000/svg"
   xmlns="http://www.w3.org/2000/svg"
   id="svg31"
   height="95.75mm"
   width="95.75mm"
   version="1.0">
  <metadata
     id="metadata35">
    <rdf:RDF>
      <cc:Work
         rdf:about="">
        <dc:format>image/svg+xml</dc:format>
        <dc:type
           rdf:resource="http://purl.org/dc/dcmitype/StillImage" />
      </cc:Work>
    </rdf:RDF>
  </metadata>
  <defs
     id="defs3">
    <pattern
       y="0"
       x="0"
       height="6"
       width="6"
       patternUnits="userSpaceOnUse"
       id="EMFhbasepattern" />
  </defs>
  <path
     id="path5"
     d="  M 54.345381,54.345381   L 54.345381,307.53092   L 307.53092,307.53092   L 307.53092,54.345381   L 54.345381,54.345381   z "
     style="fill:#aaffaa;fill-rule:evenodd;fill-opacity:1;stroke:none;" />
  <path
     id="path7"
     d="  M 54.345381,54.345381   L 307.53092,54.345381   L 307.53092,307.53092   L 54.345381,307.53092   z "
     style="fill:none;stroke:#000000;stroke-width:9.5903616px;stroke-linecap:butt;stroke-linejoin:miter;stroke-miterlimit:10;stroke-dasharray:none;stroke-opacity:1;" />
  <path
     id="path9"
     d="  M 176.66245,104.09538   L 171.78735,104.09538   L 171.78735,108.97048   L 169.86927,108.97048   C 157.36185,108.97048 146.05321,121.03835 145.05421,132.30703   L 166.95221,131.06827   L 166.47269,131.26807   L 190.24879,131.14819   L 215.02389,131.78755   C 214.54437,126.19317 209.42952,119.0004 206.15281,115.84357   C 201.07791,110.96847 196.08293,110.28916 188.29076,108.451   L 188.29076,104.09538   L 183.45562,104.09538   L 183.45562,94.864657   L 176.66245,94.864657   z "
     style="fill:#ffffff;fill-rule:evenodd;fill-opacity:1;stroke:none;" />
  <path
     id="path11"
     d="  M 179.1,145.37389   L 182.9761,145.25401   L 220.81807,145.85341   C 224.1747,143.61566 223.61526,144.29498 223.25562,140.01928   C 212.50642,137.50181 168.43072,136.22309 155.88333,138.18112   C 151.12811,138.94036 144.41486,138.38092 139.3,139.1002   C 135.26405,139.65964 133.14618,145.89337 143.65562,145.85341   C 155.84337,145.81345 166.67249,145.37389 179.1,145.37389   z "
     style="fill:#ffffff;fill-rule:evenodd;fill-opacity:1;stroke:none;" />
  <path
     id="path13"
     d="  M 174.70442,189.05   C 175.58353,190.32871 176.66245,193.44558 178.101,193.44558   L 181.49759,193.44558   C 182.73634,193.44558 184.89417,189.68935 184.89417,189.52952   C 184.89417,187.8512 183.05602,184.69437 181.49759,184.69437   L 178.101,184.69437   C 176.66245,184.69437 175.58353,187.77128 174.70442,189.05   z "
     style="fill:#ffffff;fill-rule:evenodd;fill-opacity:1;stroke:none;" />
  <path
     id="path15"
     d="  M 174.70442,189.05   C 175.58353,187.77128 176.66245,184.69437 178.101,184.69437   L 181.49759,184.69437   C 183.05602,184.69437 184.89417,187.8512 184.89417,189.52952   C 184.89417,189.68935 182.73634,193.44558 181.49759,193.44558   L 178.101,193.44558   C 176.66245,193.44558 175.58353,190.32871 174.70442,189.05   z  M 167.91124,189.05   L 173.26586,199.23976   L 185.41365,199.23976   C 187.09197,199.23976 191.12791,190.68835 192.20682,189.05   L 186.37269,178.38072   L 174.70442,178.38072   C 172.86626,178.38072 168.91024,187.21184 167.91124,189.05   z "
     style="fill:#000000;fill-rule:evenodd;fill-opacity:1;stroke:none;" />
  <path
     id="path17"
     d="  M 116.44297,181.29779   L 116.44297,181.29779   L 108.21124,181.29779   L 108.21124,190.52851   L 116.44297,190.52851   L 116.44297,206.55241   L 123.23614,206.55241   L 123.23614,165.27389   L 116.44297,165.27389   z "
     style="fill:#ffffff;fill-rule:evenodd;fill-opacity:1;stroke:none;" />
  <path
     id="path19"
     d="  M 236.36245,206.55241   L 236.36245,206.55241   L 243.6751,206.55241   L 243.6751,190.52851   L 251.42731,190.52851   L 251.42731,181.29779   L 243.6751,181.29779   L 243.6751,165.27389   L 236.36245,165.27389   z "
     style="fill:#ffffff;fill-rule:evenodd;fill-opacity:1;stroke:none;" />
  <path
     id="path21"
     d="  M 167.91124,189.05   C 168.91024,187.21184 172.86626,178.38072 174.70442,178.38072   L 186.37269,178.38072   L 192.20682,189.05   C 191.12791,190.68835 187.09197,199.23976 185.41365,199.23976   L 173.26586,199.23976   z  M 177.14197,210.90803   L 182.9761,210.90803   C 192.64638,210.90803 202.31666,199.23976 202.31666,189.05   C 202.31666,178.54056 192.56646,167.23193 182.49658,167.23193   L 177.62148,167.23193   C 167.71144,167.23193 158.08112,178.18092 157.68152,188.61044   C 157.32189,199 167.67148,210.90803 177.14197,210.90803   z "
     style="fill:#ffffff;fill-rule:evenodd;fill-opacity:1;stroke:none;" />
  <path
     id="path23"
     d="  M 177.14197,210.90803   C 167.67148,210.90803 157.32189,199 157.68152,188.61044   C 158.08112,178.18092 167.71144,167.23193 177.62148,167.23193   L 182.49658,167.23193   C 192.56646,167.23193 202.31666,178.54056 202.31666,189.05   C 202.31666,199.23976 192.64638,210.90803 182.9761,210.90803   z  M 151.88735,187.13193   L 151.88735,191.48755   C 151.88735,203.8751 164.83433,217.22168 177.14197,217.22168   L 182.9761,217.22168   C 196.36265,217.22168 208.71024,203.23574 208.71024,189.05   C 208.71024,174.66446 196.12289,160.91827 182.49658,160.91827   L 177.62148,160.91827   C 164.6745,160.91827 151.88735,174.0251 151.88735,187.13193   z "
     style="fill:#000000;fill-rule:evenodd;fill-opacity:1;stroke:none;" />
  <path
     id="path25"
     d="  M 151.88735,187.13193   C 151.88735,174.0251 164.6745,160.91827 177.62148,160.91827   L 182.49658,160.91827   C 196.12289,160.91827 208.71024,174.66446 208.71024,189.05   C 208.71024,203.23574 196.36265,217.22168 182.9761,217.22168   L 177.14197,217.22168   C 164.83433,217.22168 151.88735,203.8751 151.88735,191.48755   z  M 145.09417,152.08715   L 145.09417,172.06707   L 130.02932,172.06707   L 130.02932,200.71827   L 145.09417,200.71827   L 144.9743,242.0767   L 133.94538,245.87289   C 136.46285,249.30943 163.79538,253.6251 172.26686,253.6251   L 187.81124,253.6251   C 196.44257,253.6251 223.01586,249.50923 225.77309,245.67309   L 215.02389,242.4763   L 215.02389,200.71827   L 230.04879,200.71827   L 230.04879,172.06707   L 215.02389,172.06707   L 215.02389,152.08715   L 185.41365,151.20803   L 174.70442,151.00823   L 145.09417,152.08715   z "
     style="fill:#ffffff;fill-rule:evenodd;fill-opacity:1;stroke:none;" />
  <path
     id="path27"
     d="  M 131.98735,255.10361   L 131.98735,252.66606   C 135.10421,252.90582 145.73353,257.02168 150.48875,257.98072   C 157.16205,259.29939 164.35482,260.41827 172.30682,260.41827   L 187.81124,260.41827   C 195.84317,260.41827 202.4765,259.29939 209.1498,257.98072   C 214.0249,257.02168 224.69417,252.90582 227.6512,252.66606   L 227.6512,255.10361   C 227.6512,261.9767 197.68132,265.77289 187.81124,265.77289   L 172.30682,265.77289   C 162.4767,265.77289 131.98735,261.89678 131.98735,255.10361   z  M 174.70442,151.00823   L 185.41365,151.20803   L 215.02389,152.08715   L 215.02389,172.06707   L 230.04879,172.06707   L 230.04879,200.71827   L 215.02389,200.71827   L 215.02389,242.4763   L 225.77309,245.67309   C 223.01586,249.50923 196.44257,253.6251 187.81124,253.6251   L 172.30682,253.6251   C 163.79538,253.6251 136.46285,249.30943 133.94538,245.87289   L 144.9743,242.0767   L 145.09417,200.71827   L 130.02932,200.71827   L 130.02932,172.06707   L 145.09417,172.06707   L 145.09417,152.08715   L 174.70442,151.00823   z  M 236.36245,165.27389   L 243.6751,165.27389   L 243.6751,181.29779   L 251.42731,181.29779   L 251.42731,190.52851   L 243.6751,190.52851   L 243.6751,206.55241   L 236.36245,206.55241   z  M 116.44297,165.27389   L 123.23614,165.27389   L 123.23614,206.55241   L 116.44297,206.55241   L 116.44297,190.52851   L 108.21124,190.52851   L 108.21124,181.29779   L 116.44297,181.29779   z  M 179.1,145.37389   C 166.67249,145.37389 155.84337,145.81345 143.65562,145.85341   C 133.14618,145.89337 135.26405,139.65964 139.3,139.1002   C 144.41486,138.38092 151.12811,138.94036 155.88333,138.18112   C 168.43072,136.22309 212.50642,137.54177 223.25562,140.01928   C 223.61526,144.29498 224.1747,143.61566 220.85803,145.85341   L 182.9761,145.25401   z  M 176.66245,94.864657   L 183.45562,94.864657   L 183.45562,104.09538   L 188.29076,104.09538   L 188.29076,108.451   C 196.08293,110.28916 201.07791,111.00843 206.15281,115.84357   C 209.46947,119.0004 214.54437,126.19317 215.02389,131.78755   L 190.24879,131.14819   L 166.47269,131.26807   L 166.95221,131.06827   L 145.05421,132.30703   C 146.05321,121.03835 157.36185,108.97048 169.86927,108.97048   L 171.78735,108.97048   L 171.78735,104.09538   L 176.66245,104.09538   z  M 170.34879,97.781725   L 165.47369,97.781725   L 165.47369,103.13634   C 151.92731,104.25522 139.97932,118.8006 138.78052,133.2261   C 133.4259,133.66566 133.30602,136.22309 130.66867,138.1012   L 130.02932,141.97731   C 129.19016,147.33193 134.8245,151.24799 138.78052,152.16707   L 138.78052,165.27389   L 130.02932,165.27389   L 130.02932,159.43976   L 110.12932,159.43976   L 110.12932,175.46365   L 102.37711,175.46365   L 102.37711,196.84217   L 110.12932,196.84217   L 110.12932,211.86707   L 130.02932,211.86707   L 130.02932,206.07289   L 138.78052,206.07289   L 138.78052,237.12168   C 133.2261,238.44036 125.67369,241.99678 125.67369,248.78996   L 125.67369,253.6251   C 125.67369,268.80984 156.56265,272.08654 173.26586,272.08654   L 187.33172,272.08654   C 203.95502,272.08654 233.96486,269.08955 233.96486,253.6251   L 233.96486,248.78996   C 233.96486,242.11666 226.81204,238.4004 221.33755,237.12168   L 221.33755,206.07289   L 230.04879,206.07289   L 230.04879,211.86707   L 249.46927,211.86707   L 249.46927,196.84217   L 257.26144,196.84217   L 257.26144,174.98413   L 249.46927,174.98413   L 249.46927,159.43976   L 230.04879,159.43976   L 230.04879,165.27389   L 221.33755,165.27389   L 221.33755,152.16707   C 225.17369,151.24799 230.04879,147.81144 230.04879,142.93634   C 230.04879,137.54177 226.21265,133.6257 221.33755,133.2261   C 220.17871,119.24016 207.67128,104.25522 194.1249,103.13634   L 194.1249,97.781725   L 189.28976,97.781725   L 189.28976,88.071485   L 170.34879,88.071485   z "
     style="fill:#000000;fill-rule:evenodd;fill-opacity:1;stroke:none;" />
  <path
     id="path29"
     d="  M 172.30682,260.41827   C 164.35482,260.41827 157.16205,259.29939 150.48875,257.98072   C 145.73353,257.02168 135.10421,252.90582 131.98735,252.66606   L 131.98735,255.10361   C 131.98735,261.89678 162.4767,265.77289 172.30682,265.77289   L 187.81124,265.77289   C 197.68132,265.77289 227.6512,261.9767 227.6512,255.10361   L 227.6512,252.66606   C 224.69417,252.90582 214.0249,256.98172 209.1498,257.98072   C 202.4765,259.29939 195.84317,260.41827 187.81124,260.41827   z "
     style="fill:#ffffff;fill-rule:evenodd;fill-opacity:1;stroke:none;" />
</svg>
