<?xml version="1.0" encoding="UTF-8" standalone="no"?>
<svg
   xmlns:dc="http://purl.org/dc/elements/1.1/"
   xmlns:cc="http://creativecommons.org/ns#"
   xmlns:rdf="http://www.w3.org/1999/02/22-rdf-syntax-ns#"
   xmlns:svg="http://www.w3.org/2000/svg"
   xmlns="http://www.w3.org/2000/svg"
   id="svg21"
   height="95.75mm"
   width="95.75mm"
   version="1.0">
  <metadata
     id="metadata25">
    <rdf:RDF>
      <cc:Work
         rdf:about="">
        <dc:format>image/svg+xml</dc:format>
        <dc:type
           rdf:resource="http://purl.org/dc/dcmitype/StillImage" />
      </cc:Work>
    </rdf:RDF>
  </metadata>
  <defs
     id="defs3">
    <pattern
       y="0"
       x="0"
       height="6"
       width="6"
       patternUnits="userSpaceOnUse"
       id="EMFhbasepattern" />
  </defs>
  <path
     id="path5"
     d="  M 132.98634,15.983936   L 132.98634,54.345381   L 228.88996,54.345381   L 228.88996,15.983936   L 132.98634,15.983936   z "
     style="fill:#000000;fill-rule:evenodd;fill-opacity:1;stroke:none;" />
  <path
     id="path7"
     d="  M 54.345381,54.345381   L 54.345381,307.53092   L 307.53092,307.53092   L 307.53092,54.345381   L 54.345381,54.345381   z "
     style="fill:#aaffaa;fill-rule:evenodd;fill-opacity:1;stroke:none;" />
  <path
     id="path9"
     d="  M 54.345381,54.345381   L 307.53092,54.345381   L 307.53092,307.53092   L 54.345381,307.53092   z "
     style="fill:none;stroke:#000000;stroke-width:9.5903616px;stroke-linecap:butt;stroke-linejoin:miter;stroke-miterlimit:10;stroke-dasharray:none;stroke-opacity:1;" />
  <path
     id="path11"
     d="  M 175.34377,154.16506   L 209.82911,154.16506   L 209.82911,172.70642   C 204.79417,172.70642 194.92409,176.02309 191.20783,174.86425   C 187.33172,173.58554 179.1,169.90923 175.34377,169.62952   z  M 114.1253,154.16506   L 167.11205,154.16506   L 167.11205,173.2259   C 167.11205,175.14397 176.66245,177.66144 178.82028,178.54056   C 179.93915,178.98012 191.28775,183.01606 191.36767,183.29578   L 214.26466,180.45863   L 216.74217,189.08996   L 220.13875,200.99799   C 220.97791,202.2767 223.21566,208.63032 223.21566,210.78815   L 223.21566,211.30763   C 223.21566,214.90401 221.13775,217.42148 221.13775,222.61626   L 264.41425,222.61626   L 261.45723,212.94598   L 259.69899,207.3516   L 249.94879,175.26385   C 249.22951,174.14498 248.43032,173.06606 248.43032,171.14799   C 248.43032,167.15201 260.81787,157.96124 263.29538,154.20502   L 254.58413,127.43193   L 114.1253,127.43193   L 114.1253,154.16506   z "
     style="fill:#000000;fill-rule:evenodd;fill-opacity:1;stroke:none;" />
  <path
     id="path13"
     d="  M 194.16486,203.35562   L 174.14498,187.57148   L 99.1004,186.73233   L 99.979517,248.9498   L 177.10201,248.51024   L 194.60441,227.6512   z "
     style="fill:#ffffff;fill-rule:evenodd;fill-opacity:1;stroke:none;" />
  <path
     id="path15"
     d="  M 194.16486,203.35562   L 174.14498,187.57148   L 99.1004,186.73233   L 99.979517,248.9498   L 177.10201,248.51024   L 194.60441,227.6512   z "
     style="fill:none;stroke:#000000;stroke-width:3.8361444px;stroke-linecap:butt;stroke-linejoin:miter;stroke-miterlimit:10;stroke-dasharray:none;stroke-opacity:1;" />
  <path
     id="path17"
     d="  M 181.89719,219.2996   L 201.07791,169.42972  "
     style="fill:none;stroke:#000000;stroke-width:1.9180722px;stroke-linecap:butt;stroke-linejoin:miter;stroke-miterlimit:10;stroke-dasharray:none;stroke-opacity:1;" />
  <path
     id="path19"
     d="  M 141.33795,237.0018   L 141.33795,232.36646   C 139.02028,232.08674 137.14217,231.56727 135.70361,230.80803   C 134.2251,230.08875 132.98634,228.88996 131.94739,227.21164   C 130.86847,225.53333 130.26907,223.49538 130.10924,221.09779   L 134.74458,220.21867   C 135.10421,222.73614 135.74357,224.53433 136.66265,225.69317   C 137.98132,227.37148 139.53976,228.29056 141.33795,228.4504   L 141.33795,213.70522   C 139.41988,213.34558 137.50181,212.6263 135.50381,211.50743   C 134.0253,210.66827 132.86646,209.54939 132.06727,208.07088   C 131.26807,206.63233 130.86847,204.95401 130.86847,203.11586   C 130.86847,199.79919 132.06727,197.12188 134.38494,195.08393   C 135.94337,193.7253 138.26104,192.88614 141.33795,192.56646   L 141.33795,190.36867   L 144.05522,190.36867   L 144.05522,192.56646   C 146.77249,192.80622 148.89036,193.60542 150.48875,194.92409   C 152.5267,196.60241 153.7255,198.92008 154.16506,201.87711   L 149.36988,202.59638   C 149.09016,200.75823 148.49076,199.35964 147.6516,198.4006   C 146.77249,197.44156 145.57369,196.80221 144.05522,196.48253   L 144.05522,209.82911   C 146.41285,210.42851 147.97128,210.86807 148.73052,211.22771   C 150.16907,211.86707 151.32791,212.6263 152.24699,213.54538   C 153.16606,214.42449 153.84538,215.54337 154.3249,216.78213   C 154.84438,218.02088 155.08413,219.37951 155.08413,220.85803   C 155.08413,224.05482 154.04518,226.73213 152.00723,228.88996   C 149.96927,231.04779 147.33193,232.16666 144.05522,232.3265   L 144.05522,237.0018   z  M 141.33795,196.44257   C 139.53976,196.72229 138.14116,197.44156 137.10221,198.6004   C 136.06325,199.75923 135.54377,201.15783 135.54377,202.75622   C 135.54377,204.31466 135.98333,205.63333 136.86245,206.71225   C 137.74156,207.79116 139.22008,208.63032 141.33795,209.26968   z  M 144.05522,228.4504   C 145.89337,228.2506 147.37189,227.4514 148.53072,226.13273   C 149.72952,224.77409 150.28895,223.13574 150.28895,221.13775   C 150.28895,219.45943 149.88936,218.14076 149.0502,217.1018   C 148.21104,216.06285 146.57269,215.14377 144.05522,214.34458   z "
     style="fill:#000000;fill-rule:evenodd;fill-opacity:1;stroke:none;" />
</svg>
