<?xml version="1.0" encoding="UTF-8" standalone="no"?>
<svg
   xmlns:dc="http://purl.org/dc/elements/1.1/"
   xmlns:cc="http://creativecommons.org/ns#"
   xmlns:rdf="http://www.w3.org/1999/02/22-rdf-syntax-ns#"
   xmlns:svg="http://www.w3.org/2000/svg"
   xmlns="http://www.w3.org/2000/svg"
   id="svg21"
   height="116.73mm"
   width="116.73mm"
   version="1.0">
  <metadata
     id="metadata25">
    <rdf:RDF>
      <cc:Work
         rdf:about="">
        <dc:format>image/svg+xml</dc:format>
        <dc:type
           rdf:resource="http://purl.org/dc/dcmitype/StillImage" />
      </cc:Work>
    </rdf:RDF>
  </metadata>
  <defs
     id="defs3">
    <pattern
       y="0"
       x="0"
       height="6"
       width="6"
       patternUnits="userSpaceOnUse"
       id="EMFhbasepattern" />
  </defs>
  <path
     id="path5"
     d="  M 220.57831,386.49156   L 220.57831,386.49156   L 386.49156,220.57831   L 220.57831,54.665059   L 54.665059,220.57831   L 220.57831,386.49156   z "
     style="fill:#ff8080;fill-rule:evenodd;fill-opacity:1;stroke:none;" />
  <path
     id="path7"
     d="  M 220.57831,386.49156   L 220.57831,386.49156   L 386.49156,220.57831   L 220.57831,54.665059   L 54.665059,220.57831   L 220.57831,386.49156  "
     style="fill:none;stroke:#000000;stroke-width:9.5903616px;stroke-linecap:butt;stroke-linejoin:miter;stroke-miterlimit:10;stroke-dasharray:none;stroke-opacity:1;" />
  <path
     id="path9"
     d="  M 282.91566,220.57831   C 282.91566,255.02369 255.02369,282.91566 220.57831,282.91566   C 186.17289,282.91566 158.24096,255.02369 158.24096,220.57831   C 158.24096,186.17289 186.17289,158.24096 220.57831,158.24096   C 255.02369,158.24096 282.91566,186.17289 282.91566,220.57831   z "
     style="fill:#000000;fill-rule:evenodd;fill-opacity:1;stroke:none;" />
  <path
     id="path11"
     d="  M 282.91566,220.57831   C 282.91566,255.02369 255.02369,282.91566 220.57831,282.91566   C 186.17289,282.91566 158.24096,255.02369 158.24096,220.57831   C 158.24096,186.17289 186.17289,158.24096 220.57831,158.24096   C 255.02369,158.24096 282.91566,186.17289 282.91566,220.57831  "
     style="fill:none;stroke:#000000;stroke-width:0.95903611px;stroke-linecap:butt;stroke-linejoin:miter;stroke-miterlimit:10;stroke-dasharray:none;stroke-opacity:1;" />
  <path
     id="path13"
     d="  M 172.6265,143.85542   L 172.6265,143.85542   L 268.53012,143.85542   L 220.57831,220.57831   L 268.53012,297.3012   L 172.6265,297.3012   L 220.57831,220.57831   z "
     style="fill:#000000;fill-rule:evenodd;fill-opacity:1;stroke:none;" />
  <path
     id="path15"
     d="  M 172.6265,143.85542   L 172.6265,143.85542   L 268.53012,143.85542   L 220.57831,220.57831   L 268.53012,297.3012   L 172.6265,297.3012   L 220.57831,220.57831  "
     style="fill:none;stroke:#000000;stroke-width:0.95903611px;stroke-linecap:butt;stroke-linejoin:miter;stroke-miterlimit:10;stroke-dasharray:none;stroke-opacity:1;" />
  <path
     id="path17"
     d="  M 143.85542,172.6265   L 143.85542,172.6265   L 143.85542,268.53012   L 220.57831,220.57831   L 297.3012,268.53012   L 297.3012,172.6265   L 220.57831,220.57831   z "
     style="fill:#000000;fill-rule:evenodd;fill-opacity:1;stroke:none;" />
  <path
     id="path19"
     d="  M 143.85542,172.6265   L 143.85542,172.6265   L 143.85542,268.53012   L 220.57831,220.57831   L 297.3012,268.53012   L 297.3012,172.6265   L 220.57831,220.57831  "
     style="fill:none;stroke:#000000;stroke-width:0.95903611px;stroke-linecap:butt;stroke-linejoin:miter;stroke-miterlimit:10;stroke-dasharray:none;stroke-opacity:1;" />
</svg>
