<?xml version="1.0" encoding="UTF-8" standalone="no"?>
<svg
   xmlns:dc="http://purl.org/dc/elements/1.1/"
   xmlns:cc="http://creativecommons.org/ns#"
   xmlns:rdf="http://www.w3.org/1999/02/22-rdf-syntax-ns#"
   xmlns:svg="http://www.w3.org/2000/svg"
   xmlns="http://www.w3.org/2000/svg"
   id="svg11"
   height="89.669998mm"
   width="120.11mm"
   version="1.0">
  <metadata
     id="metadata15">
    <rdf:RDF>
      <cc:Work
         rdf:about="">
        <dc:format>image/svg+xml</dc:format>
        <dc:type
           rdf:resource="http://purl.org/dc/dcmitype/StillImage" />
      </cc:Work>
    </rdf:RDF>
  </metadata>
  <defs
     id="defs3">
    <pattern
       y="0"
       x="0"
       height="6"
       width="6"
       patternUnits="userSpaceOnUse"
       id="EMFhbasepattern" />
  </defs>
  <path
     id="path5"
     d="  M 54.345381,54.345381   L 54.345381,284.51405   L 399.59839,284.51405   L 399.59839,54.345381   L 54.345381,54.345381   z "
     style="fill:#80e0ff;fill-rule:evenodd;fill-opacity:1;stroke:none;" />
  <path
     id="path7"
     d="  M 54.345381,54.345381   L 399.59839,54.345381   L 399.59839,284.51405   L 54.345381,284.51405   z "
     style="fill:none;stroke:#000000;stroke-width:9.5903616px;stroke-linecap:butt;stroke-linejoin:miter;stroke-miterlimit:10;stroke-dasharray:none;stroke-opacity:1;" />
  <path
     id="path9"
     d="  M 216.50241,116.40301   C 216.50241,105.1743 225.49337,94.944577 225.49337,87.512047   L 225.49337,86.592971   C 225.49337,83.755822 225.41345,78.201404 223.13574,77.602007   C 220.81807,87.512047 215.42349,95.264256 210.02891,102.33715   C 207.23172,105.93353 204.79417,109.56988 202.03694,113.28614   C 199.79919,116.24317 195.20381,120.91847 195.20381,125.39397   C 195.20381,128.59076 208.7502,164.6745 201.83715,164.6745   C 201.59739,164.6745 193.5255,159.08012 192.56646,158.36084   C 189.48956,156.04317 187.29176,153.28594 185.17389,150.08915   C 178.38072,139.93936 179.77931,140.29899 176.74237,127.27209   C 173.4257,128.19116 171.10803,138.301 170.30883,142.61666   C 169.3498,147.89136 169.70944,157.36185 170.86827,162.51666   C 172.26686,168.83032 173.86526,173.6255 176.42269,178.74036   C 177.78132,181.41767 183.1759,190.88815 183.3757,193.08594   C 178.58052,191.96707 167.7514,182.93614 164.31486,179.4996   C 160.95823,176.10301 152.12711,161.11807 151.16807,160.43875   C 151.16807,182.29678 162.23695,210.90803 172.8263,221.61727   C 179.61948,228.49036 186.81225,235.72309 195.28373,240.79799   C 200.71827,244.0747 218.5004,250.34839 226.93192,250.34839   L 232.1267,250.34839   C 238.44036,250.34839 256.06265,243.63514 260.69799,241.03775   C 268.2504,236.88192 275.88273,230.56827 280.59799,223.5753   C 290.30823,209.18976 298.38012,190.40863 298.38012,166.59257   L 298.38012,163.75542   L 297.42108,150.92831   C 295.90261,151.76747 292.54598,160.59859 291.8267,162.39678   C 290.70783,165.31385 287.31124,169.94919 285.51305,172.6265   C 282.39618,177.34176 273.88473,186.53253 268.09056,187.89116   L 268.09056,185.49357   C 268.09056,175.78333 274.24437,166.03313 274.24437,158.04116   L 274.24437,153.80542   L 271.44718,126.83253   L 270.00863,126.83253   C 269.28935,135.42389 266.33233,144.33494 262.53614,150.08915   C 259.61907,154.5247 250.82791,162.4767 245.39337,163.75542   C 244.87389,162.79638 244.43433,162.35682 244.43433,160.87831   L 244.43433,155.68353   C 244.43433,144.45482 251.06767,136.02329 251.06767,127.27209   L 251.06767,125.39397   C 251.06767,122.03735 246.43233,116.84257 244.63413,113.84558   C 243.11566,111.36807 239.31947,104.25522 236.88192,103.61586   L 236.88192,106.45301   C 236.88192,120.07932 233.84498,129.9494 224.57429,134.38494   C 222.09678,130.70863 216.50241,127.51185 216.50241,120.67871   L 216.50241,116.40301   z "
     style="fill:#000000;fill-rule:evenodd;fill-opacity:1;stroke:none;" />
</svg>
