<?xml version="1.0" encoding="UTF-8" standalone="no"?>
<svg
   xmlns:dc="http://purl.org/dc/elements/1.1/"
   xmlns:cc="http://creativecommons.org/ns#"
   xmlns:rdf="http://www.w3.org/1999/02/22-rdf-syntax-ns#"
   xmlns:svg="http://www.w3.org/2000/svg"
   xmlns="http://www.w3.org/2000/svg"
   id="svg31"
   height="130.27mm"
   width="130.27mm"
   version="1.0">
  <metadata
     id="metadata35">
    <rdf:RDF>
      <cc:Work
         rdf:about="">
        <dc:format>image/svg+xml</dc:format>
        <dc:type
           rdf:resource="http://purl.org/dc/dcmitype/StillImage" />
      </cc:Work>
    </rdf:RDF>
  </metadata>
  <defs
     id="defs3">
    <pattern
       y="0"
       x="0"
       height="6"
       width="6"
       patternUnits="userSpaceOnUse"
       id="EMFhbasepattern" />
  </defs>
  <path
     id="path5"
     d="  M 164.63454,327.67068   C 164.63454,437.95983 327.67068,437.95983 327.67068,327.67068   C 437.95983,327.67068 437.95983,164.63454 327.67068,164.63454   C 327.67068,54.345381 164.63454,54.345381 164.63454,164.63454   C 54.345381,164.63454 54.345381,327.67068 164.63454,327.67068   z "
     style="fill:#ffff80;fill-rule:evenodd;fill-opacity:1;stroke:none;" />
  <path
     id="path7"
     d="  M 164.63454,327.67068   C 164.63454,437.95983 327.67068,437.95983 327.67068,327.67068   C 437.95983,327.67068 437.95983,164.63454 327.67068,164.63454   C 327.67068,54.345381 164.63454,54.345381 164.63454,164.63454   C 54.345381,164.63454 54.345381,327.67068 164.63454,327.67068  "
     style="fill:none;stroke:#000000;stroke-width:9.5903616px;stroke-linecap:butt;stroke-linejoin:miter;stroke-miterlimit:10;stroke-dasharray:none;stroke-opacity:1;" />
  <path
     id="path9"
     d="  M 241.8769,169.30984   L 237.0018,169.30984   L 237.0018,174.18494   L 235.08373,174.18494   C 222.5763,174.18494 211.26767,186.25281 210.26867,197.52148   L 232.16666,196.28273   L 231.68715,196.48253   L 255.46325,196.36265   L 280.23835,197.00201   C 279.75883,191.40763 274.64397,184.21486 271.36727,181.05803   C 266.29237,176.18293 261.29739,175.50361 253.50522,173.66546   L 253.50522,169.30984   L 248.67008,169.30984   L 248.67008,160.07911   L 241.8769,160.07911   z "
     style="fill:#ffffff;fill-rule:evenodd;fill-opacity:1;stroke:none;" />
  <path
     id="path11"
     d="  M 244.31445,210.58835   L 248.19056,210.46847   L 286.03253,211.06787   C 289.38915,208.83012 288.82971,209.50943 288.47008,205.23373   C 277.72088,202.71626 233.64518,201.43755 221.09779,203.39558   C 216.34257,204.15482 209.62931,203.59538 204.51445,204.31466   C 200.47851,204.87409 198.36064,211.10783 208.87008,211.06787   C 221.05783,211.02791 231.88694,210.58835 244.31445,210.58835   z "
     style="fill:#ffffff;fill-rule:evenodd;fill-opacity:1;stroke:none;" />
  <path
     id="path13"
     d="  M 239.91887,254.26445   C 240.79799,255.54317 241.8769,258.66004 243.31546,258.66004   L 246.71204,258.66004   C 247.9508,258.66004 250.10863,254.90381 250.10863,254.74397   C 250.10863,253.06566 248.27048,249.90883 246.71204,249.90883   L 243.31546,249.90883   C 241.8769,249.90883 240.79799,252.98574 239.91887,254.26445   z "
     style="fill:#ffffff;fill-rule:evenodd;fill-opacity:1;stroke:none;" />
  <path
     id="path15"
     d="  M 239.91887,254.26445   C 240.79799,252.98574 241.8769,249.90883 243.31546,249.90883   L 246.71204,249.90883   C 248.27048,249.90883 250.10863,253.06566 250.10863,254.74397   C 250.10863,254.90381 247.9508,258.66004 246.71204,258.66004   L 243.31546,258.66004   C 241.8769,258.66004 240.79799,255.54317 239.91887,254.26445   z  M 233.1257,254.26445   L 238.48032,264.45421   L 250.62811,264.45421   C 252.30642,264.45421 256.34237,255.90281 257.42128,254.26445   L 251.58714,243.59518   L 239.91887,243.59518   C 238.08072,243.59518 234.1247,252.4263 233.1257,254.26445   z "
     style="fill:#000000;fill-rule:evenodd;fill-opacity:1;stroke:none;" />
  <path
     id="path17"
     d="  M 181.65743,246.51225   L 181.65743,246.51225   L 173.4257,246.51225   L 173.4257,255.74297   L 181.65743,255.74297   L 181.65743,271.76686   L 188.4506,271.76686   L 188.4506,230.48835   L 181.65743,230.48835   z "
     style="fill:#ffffff;fill-rule:evenodd;fill-opacity:1;stroke:none;" />
  <path
     id="path19"
     d="  M 301.5769,271.76686   L 301.5769,271.76686   L 308.88955,271.76686   L 308.88955,255.74297   L 316.64176,255.74297   L 316.64176,246.51225   L 308.88955,246.51225   L 308.88955,230.48835   L 301.5769,230.48835   z "
     style="fill:#ffffff;fill-rule:evenodd;fill-opacity:1;stroke:none;" />
  <path
     id="path21"
     d="  M 233.1257,254.26445   C 234.1247,252.4263 238.08072,243.59518 239.91887,243.59518   L 251.58714,243.59518   L 257.42128,254.26445   C 256.34237,255.90281 252.30642,264.45421 250.62811,264.45421   L 238.48032,264.45421   z  M 242.35642,276.12249   L 248.19056,276.12249   C 257.86084,276.12249 267.53112,264.45421 267.53112,254.26445   C 267.53112,243.75502 257.78092,232.44638 247.71104,232.44638   L 242.83594,232.44638   C 232.9259,232.44638 223.29558,243.39538 222.89598,253.8249   C 222.53634,264.21445 232.88594,276.12249 242.35642,276.12249   z "
     style="fill:#ffffff;fill-rule:evenodd;fill-opacity:1;stroke:none;" />
  <path
     id="path23"
     d="  M 242.35642,276.12249   C 232.88594,276.12249 222.53634,264.21445 222.89598,253.8249   C 223.29558,243.39538 232.9259,232.44638 242.83594,232.44638   L 247.71104,232.44638   C 257.78092,232.44638 267.53112,243.75502 267.53112,254.26445   C 267.53112,264.45421 257.86084,276.12249 248.19056,276.12249   z  M 217.1018,252.34638   L 217.1018,256.702   C 217.1018,269.08955 230.04879,282.43614 242.35642,282.43614   L 248.19056,282.43614   C 261.5771,282.43614 273.92469,268.4502 273.92469,254.26445   C 273.92469,239.87891 261.33735,226.13273 247.71104,226.13273   L 242.83594,226.13273   C 229.88895,226.13273 217.1018,239.23955 217.1018,252.34638   z "
     style="fill:#000000;fill-rule:evenodd;fill-opacity:1;stroke:none;" />
  <path
     id="path25"
     d="  M 217.1018,252.34638   C 217.1018,239.23955 229.88895,226.13273 242.83594,226.13273   L 247.71104,226.13273   C 261.33735,226.13273 273.92469,239.87891 273.92469,254.26445   C 273.92469,268.4502 261.5771,282.43614 248.19056,282.43614   L 242.35642,282.43614   C 230.04879,282.43614 217.1018,269.08955 217.1018,256.702   z  M 210.30863,217.3016   L 210.30863,237.28152   L 195.24377,237.28152   L 195.24377,265.93273   L 210.30863,265.93273   L 210.18875,307.29116   L 199.15984,311.08734   C 201.67731,314.52389 229.00984,318.83955 237.48132,318.83955   L 253.0257,318.83955   C 261.65702,318.83955 288.23032,314.72369 290.98755,310.88755   L 280.23835,307.69076   L 280.23835,265.93273   L 295.26325,265.93273   L 295.26325,237.28152   L 280.23835,237.28152   L 280.23835,217.3016   L 250.62811,216.42249   L 239.91887,216.22269   L 210.30863,217.3016   z "
     style="fill:#ffffff;fill-rule:evenodd;fill-opacity:1;stroke:none;" />
  <path
     id="path27"
     d="  M 197.2018,320.31807   L 197.2018,317.88052   C 200.31867,318.12028 210.94799,322.23614 215.70321,323.19518   C 222.3765,324.51385 229.56927,325.63273 237.52128,325.63273   L 253.0257,325.63273   C 261.05763,325.63273 267.69096,324.51385 274.36425,323.19518   C 279.23935,322.23614 289.90863,318.12028 292.86566,317.88052   L 292.86566,320.31807   C 292.86566,327.19116 262.89578,330.98734 253.0257,330.98734   L 237.52128,330.98734   C 227.69116,330.98734 197.2018,327.11124 197.2018,320.31807   z  M 239.91887,216.22269   L 250.62811,216.42249   L 280.23835,217.3016   L 280.23835,237.28152   L 295.26325,237.28152   L 295.26325,265.93273   L 280.23835,265.93273   L 280.23835,307.69076   L 290.98755,310.88755   C 288.23032,314.72369 261.65702,318.83955 253.0257,318.83955   L 237.52128,318.83955   C 229.00984,318.83955 201.67731,314.52389 199.15984,311.08734   L 210.18875,307.29116   L 210.30863,265.93273   L 195.24377,265.93273   L 195.24377,237.28152   L 210.30863,237.28152   L 210.30863,217.3016   L 239.91887,216.22269   z  M 301.5769,230.48835   L 308.88955,230.48835   L 308.88955,246.51225   L 316.64176,246.51225   L 316.64176,255.74297   L 308.88955,255.74297   L 308.88955,271.76686   L 301.5769,271.76686   z  M 181.65743,230.48835   L 188.4506,230.48835   L 188.4506,271.76686   L 181.65743,271.76686   L 181.65743,255.74297   L 173.4257,255.74297   L 173.4257,246.51225   L 181.65743,246.51225   z  M 244.31445,210.58835   C 231.88694,210.58835 221.05783,211.02791 208.87008,211.06787   C 198.36064,211.10783 200.47851,204.87409 204.51445,204.31466   C 209.62931,203.59538 216.34257,204.15482 221.09779,203.39558   C 233.64518,201.43755 277.72088,202.75622 288.47008,205.23373   C 288.82971,209.50943 289.38915,208.83012 286.07249,211.06787   L 248.19056,210.46847   z  M 241.8769,160.07911   L 248.67008,160.07911   L 248.67008,169.30984   L 253.50522,169.30984   L 253.50522,173.66546   C 261.29739,175.50361 266.29237,176.22289 271.36727,181.05803   C 274.68393,184.21486 279.75883,191.40763 280.23835,197.00201   L 255.46325,196.36265   L 231.68715,196.48253   L 232.16666,196.28273   L 210.26867,197.52148   C 211.26767,186.25281 222.5763,174.18494 235.08373,174.18494   L 237.0018,174.18494   L 237.0018,169.30984   L 241.8769,169.30984   z  M 235.56325,162.99618   L 230.68815,162.99618   L 230.68815,168.3508   C 217.14176,169.46968 205.19377,184.01506 203.99498,198.44056   C 198.64036,198.88012 198.52048,201.43755 195.88313,203.31566   L 195.24377,207.19176   C 194.40462,212.54638 200.03895,216.46245 203.99498,217.38152   L 203.99498,230.48835   L 195.24377,230.48835   L 195.24377,224.65421   L 175.34377,224.65421   L 175.34377,240.67811   L 167.59156,240.67811   L 167.59156,262.05662   L 175.34377,262.05662   L 175.34377,277.08152   L 195.24377,277.08152   L 195.24377,271.28735   L 203.99498,271.28735   L 203.99498,302.33614   C 198.44056,303.65481 190.88815,307.21124 190.88815,314.00441   L 190.88815,318.83955   C 190.88815,334.02429 221.77711,337.301 238.48032,337.301   L 252.54618,337.301   C 269.16947,337.301 299.17931,334.30401 299.17931,318.83955   L 299.17931,314.00441   C 299.17931,307.33112 292.0265,303.61486 286.552,302.33614   L 286.552,271.28735   L 295.26325,271.28735   L 295.26325,277.08152   L 314.68373,277.08152   L 314.68373,262.05662   L 322.4759,262.05662   L 322.4759,240.19859   L 314.68373,240.19859   L 314.68373,224.65421   L 295.26325,224.65421   L 295.26325,230.48835   L 286.552,230.48835   L 286.552,217.38152   C 290.38815,216.46245 295.26325,213.0259 295.26325,208.1508   C 295.26325,202.75622 291.4271,198.84016 286.552,198.44056   C 285.39317,184.45462 272.88574,169.46968 259.33935,168.3508   L 259.33935,162.99618   L 254.50421,162.99618   L 254.50421,153.28594   L 235.56325,153.28594   z "
     style="fill:#000000;fill-rule:evenodd;fill-opacity:1;stroke:none;" />
  <path
     id="path29"
     d="  M 237.52128,325.63273   C 229.56927,325.63273 222.3765,324.51385 215.70321,323.19518   C 210.94799,322.23614 200.31867,318.12028 197.2018,317.88052   L 197.2018,320.31807   C 197.2018,327.11124 227.69116,330.98734 237.52128,330.98734   L 253.0257,330.98734   C 262.89578,330.98734 292.86566,327.19116 292.86566,320.31807   L 292.86566,317.88052   C 289.90863,318.12028 279.23935,322.19618 274.36425,323.19518   C 267.69096,324.51385 261.05763,325.63273 253.0257,325.63273   z "
     style="fill:#ffffff;fill-rule:evenodd;fill-opacity:1;stroke:none;" />
</svg>
