<?xml version="1.0" encoding="UTF-8" standalone="no"?>
<svg
   xmlns:dc="http://purl.org/dc/elements/1.1/"
   xmlns:cc="http://creativecommons.org/ns#"
   xmlns:rdf="http://www.w3.org/1999/02/22-rdf-syntax-ns#"
   xmlns:svg="http://www.w3.org/2000/svg"
   xmlns="http://www.w3.org/2000/svg"
   id="svg23"
   height="116.73mm"
   width="116.73mm"
   version="1.0">
  <metadata
     id="metadata27">
    <rdf:RDF>
      <cc:Work
         rdf:about="">
        <dc:format>image/svg+xml</dc:format>
        <dc:type
           rdf:resource="http://purl.org/dc/dcmitype/StillImage" />
      </cc:Work>
    </rdf:RDF>
  </metadata>
  <defs
     id="defs3">
    <pattern
       y="0"
       x="0"
       height="6"
       width="6"
       patternUnits="userSpaceOnUse"
       id="EMFhbasepattern" />
  </defs>
  <path
     id="path5"
     d="  M 172.6265,43.156626   L 172.6265,100.69879   L 268.53012,100.69879   L 268.53012,43.156626   L 172.6265,43.156626   z "
     style="fill:#000000;fill-rule:evenodd;fill-opacity:1;stroke:none;" />
  <path
     id="path7"
     d="  M 220.57831,386.49156   L 220.57831,386.49156   L 386.49156,220.57831   L 220.57831,54.665059   L 54.665059,220.57831   L 220.57831,386.49156   z "
     style="fill:#ff8080;fill-rule:evenodd;fill-opacity:1;stroke:none;" />
  <path
     id="path9"
     d="  M 220.57831,386.49156   L 220.57831,386.49156   L 386.49156,220.57831   L 220.57831,54.665059   L 54.665059,220.57831   L 220.57831,386.49156  "
     style="fill:none;stroke:#000000;stroke-width:9.5903616px;stroke-linecap:butt;stroke-linejoin:miter;stroke-miterlimit:10;stroke-dasharray:none;stroke-opacity:1;" />
  <path
     id="path11"
     d="  M 206.19277,191.64739   C 206.19277,190.08895 208.07088,187.81124 209.26968,187.81124   L 232.56626,187.81124   C 233.68514,187.81124 235.64317,191.24779 235.64317,192.00703   L 235.64317,193.56546   C 235.64317,195.68333 232.56626,195.24377 232.56626,197.00201   L 232.56626,209.22972   C 232.56626,210.38855 256.26245,242.19658 256.26245,244.75401   L 256.26245,252.78594   C 256.26245,260.09859 240.07871,266.53212 231.80702,266.53212   L 210.02891,266.53212   C 205.11385,266.53212 198.04096,264.81385 195.04397,262.7759   C 192.88614,261.33735 185.57349,255.94277 185.57349,253.14558   L 185.57349,249.70903   C 185.57349,243.8749 194.16486,232.84598 196.84217,228.13072   C 198.48052,225.29357 208.87008,208.95 208.87008,207.31164   L 208.87008,197.00201   C 208.87008,195.20381 206.19277,195.56345 206.19277,191.64739   z  M 231.80702,182.09699   L 148.89036,182.09699   L 148.89036,270.72791   L 292.94558,270.72791   L 292.94558,182.09699   L 276.88172,182.09699   L 276.88172,150.00923   L 266.17249,150.00923   L 266.17249,182.09699   L 242.51626,182.09699   L 242.51626,150.00923   L 231.80702,150.00923   z "
     style="fill:#ffffff;fill-rule:evenodd;fill-opacity:1;stroke:none;" />
  <path
     id="path13"
     d="  M 231.80702,150.00923   L 242.51626,150.00923   L 242.51626,182.09699   L 266.17249,182.09699   L 266.17249,150.00923   L 276.88172,150.00923   L 276.88172,182.09699   L 292.94558,182.09699   L 292.94558,270.72791   L 148.89036,270.72791   L 148.89036,182.09699   L 231.80702,182.09699   L 231.80702,150.00923  z    M 146.21305,273.76486   L 295.62289,273.76486   L 295.62289,179.02008   L 280.31827,179.02008   L 280.31827,146.93233   L 263.13554,146.93233   L 263.13554,179.02008   L 245.95281,179.02008   L 245.95281,146.93233   L 228.73012,146.93233   L 228.73012,179.02008   L 146.21305,179.02008   L 146.21305,273.76486  z   "
     style="fill:#000000;fill-rule:evenodd;fill-opacity:1;stroke:none;" />
  <path
     id="path15"
     d="  M 154.40482,183.1759   L 154.40482,269.48915   L 289.62891,269.48915   L 289.62891,183.1759   L 154.40482,183.1759   z "
     style="fill:#ffffff;fill-rule:evenodd;fill-opacity:1;stroke:none;" />
  <path
     id="path17"
     d="  M 154.40482,183.1759   L 289.62891,183.1759   L 289.62891,269.48915   L 154.40482,269.48915   z "
     style="fill:none;stroke:#ffffff;stroke-width:0.95903611px;stroke-linecap:butt;stroke-linejoin:miter;stroke-miterlimit:10;stroke-dasharray:none;stroke-opacity:1;" />
  <path
     id="path19"
     d="  M 207.99096,221.69719   C 210.78815,221.89698 216.98192,224.65421 219.89899,225.61325   C 222.69618,226.49237 230.08875,224.01486 233.84498,224.01486   L 233.84498,210.10883   L 207.99096,210.10883   z "
     style="fill:#ffffff;fill-rule:evenodd;fill-opacity:1;stroke:none;" />
  <path
     id="path21"
     d="  M 207.99096,210.10883   L 233.84498,210.10883   L 233.84498,224.01486   C 230.08875,224.01486 222.69618,226.49237 219.89899,225.61325   C 216.98192,224.65421 210.78815,221.89698 207.99096,221.69719   z  M 162.07711,210.10883   L 201.83715,210.10883   L 201.83715,224.37449   C 201.83715,225.81305 208.98996,227.69116 210.58835,228.37048   C 211.42751,228.69016 219.93895,231.72711 219.97891,231.9269   L 237.2016,229.80903   L 239.03976,236.28253   L 241.59719,245.23353   C 242.19658,246.15261 243.91486,250.94779 243.91486,252.54618   L 243.91486,252.94578   C 243.91486,255.66305 242.35642,257.54116 242.35642,261.41727   L 274.80381,261.41727   L 272.56606,254.18453   L 271.24739,249.98875   L 263.97469,225.93293   C 263.41526,225.09377 262.81586,224.29458 262.81586,222.85602   C 262.81586,219.81907 272.08654,212.94598 273.96465,210.10883   L 267.4512,190.04899   L 162.07711,190.04899   L 162.07711,210.10883   z "
     style="fill:#000000;fill-rule:evenodd;fill-opacity:1;stroke:none;" />
</svg>
