<?xml version="1.0" encoding="UTF-8" standalone="no"?>
<svg
   xmlns:dc="http://purl.org/dc/elements/1.1/"
   xmlns:cc="http://creativecommons.org/ns#"
   xmlns:rdf="http://www.w3.org/1999/02/22-rdf-syntax-ns#"
   xmlns:svg="http://www.w3.org/2000/svg"
   xmlns="http://www.w3.org/2000/svg"
   id="svg21"
   height="130.27mm"
   width="130.27mm"
   version="1.0">
  <metadata
     id="metadata25">
    <rdf:RDF>
      <cc:Work
         rdf:about="">
        <dc:format>image/svg+xml</dc:format>
        <dc:type
           rdf:resource="http://purl.org/dc/dcmitype/StillImage" />
      </cc:Work>
    </rdf:RDF>
  </metadata>
  <defs
     id="defs3">
    <pattern
       y="0"
       x="0"
       height="6"
       width="6"
       patternUnits="userSpaceOnUse"
       id="EMFhbasepattern" />
  </defs>
  <path
     id="path5"
     d="  M 198.2008,63.935742   L 198.2008,111.88755   L 294.10441,111.88755   L 294.10441,63.935742   L 198.2008,63.935742   z "
     style="fill:#000000;fill-rule:evenodd;fill-opacity:1;stroke:none;" />
  <path
     id="path7"
     d="  M 164.63454,327.67068   C 164.63454,437.95983 327.67068,437.95983 327.67068,327.67068   C 437.95983,327.67068 437.95983,164.63454 327.67068,164.63454   C 327.67068,54.345381 164.63454,54.345381 164.63454,164.63454   C 54.345381,164.63454 54.345381,327.67068 164.63454,327.67068   z "
     style="fill:#ffff80;fill-rule:evenodd;fill-opacity:1;stroke:none;" />
  <path
     id="path9"
     d="  M 164.63454,327.67068   C 164.63454,437.95983 327.67068,437.95983 327.67068,327.67068   C 437.95983,327.67068 437.95983,164.63454 327.67068,164.63454   C 327.67068,54.345381 164.63454,54.345381 164.63454,164.63454   C 54.345381,164.63454 54.345381,327.67068 164.63454,327.67068  "
     style="fill:none;stroke:#000000;stroke-width:9.5903616px;stroke-linecap:butt;stroke-linejoin:miter;stroke-miterlimit:10;stroke-dasharray:none;stroke-opacity:1;" />
  <path
     id="path11"
     d="  M 240.55823,219.37951   L 275.04357,219.37951   L 275.04357,237.92088   C 270.00863,237.92088 260.13855,241.23755 256.42229,240.07871   C 252.54618,238.8 244.31445,235.12369 240.55823,234.84397   z  M 179.33976,219.37951   L 232.3265,219.37951   L 232.3265,238.44036   C 232.3265,240.35843 241.8769,242.8759 244.03474,243.75502   C 245.15361,244.19457 256.50221,248.23052 256.58212,248.51024   L 279.47911,245.67309   L 281.95662,254.30441   L 285.35321,266.21245   C 286.19237,267.49116 288.43012,273.84478 288.43012,276.00261   L 288.43012,276.52208   C 288.43012,280.11847 286.3522,282.63594 286.3522,287.83072   L 329.62871,287.83072   L 326.67168,278.16044   L 324.91345,272.56606   L 315.16325,240.47831   C 314.44397,239.35943 313.64477,238.28052 313.64477,236.36245   C 313.64477,232.36646 326.03232,223.1757 328.50983,219.41947   L 319.79859,192.64638   L 179.33976,192.64638   L 179.33976,219.37951   z "
     style="fill:#000000;fill-rule:evenodd;fill-opacity:1;stroke:none;" />
  <path
     id="path13"
     d="  M 259.37931,268.57008   L 239.35943,252.78594   L 164.31486,251.94678   L 165.19397,314.16425   L 242.31646,313.72469   L 259.81887,292.86566   z "
     style="fill:#ffffff;fill-rule:evenodd;fill-opacity:1;stroke:none;" />
  <path
     id="path15"
     d="  M 259.37931,268.57008   L 239.35943,252.78594   L 164.31486,251.94678   L 165.19397,314.16425   L 242.31646,313.72469   L 259.81887,292.86566   z "
     style="fill:none;stroke:#000000;stroke-width:3.8361444px;stroke-linecap:butt;stroke-linejoin:miter;stroke-miterlimit:10;stroke-dasharray:none;stroke-opacity:1;" />
  <path
     id="path17"
     d="  M 247.11164,284.51405   L 266.29237,234.64417  "
     style="fill:none;stroke:#000000;stroke-width:1.9180722px;stroke-linecap:butt;stroke-linejoin:miter;stroke-miterlimit:10;stroke-dasharray:none;stroke-opacity:1;" />
  <path
     id="path19"
     d="  M 206.55241,302.21626   L 206.55241,297.58092   C 204.23474,297.3012 202.35662,296.78172 200.91807,296.02249   C 199.43956,295.30321 198.2008,294.10441 197.16184,292.4261   C 196.08293,290.74779 195.48353,288.70984 195.32369,286.31224   L 199.95903,285.43313   C 200.31867,287.9506 200.95803,289.74879 201.87711,290.90763   C 203.19578,292.58594 204.75421,293.50502 206.55241,293.66486   L 206.55241,278.91967   C 204.63433,278.56004 202.71626,277.84076 200.71827,276.72188   C 199.23976,275.88273 198.08092,274.76385 197.28172,273.28534   C 196.48253,271.84678 196.08293,270.16847 196.08293,268.33032   C 196.08293,265.01365 197.28172,262.33634 199.59939,260.29839   C 201.15783,258.93976 203.4755,258.1006 206.55241,257.78092   L 206.55241,255.58313   L 209.26968,255.58313   L 209.26968,257.78092   C 211.98694,258.02068 214.10482,258.81988 215.70321,260.13855   C 217.74116,261.81686 218.93996,264.13453 219.37951,267.09156   L 214.58433,267.81084   C 214.30462,265.97269 213.70522,264.57409 212.86606,263.61506   C 211.98694,262.65602 210.78815,262.01666 209.26968,261.69698   L 209.26968,275.04357   C 211.62731,275.64297 213.18574,276.08253 213.94498,276.44216   C 215.38353,277.08152 216.54237,277.84076 217.46144,278.75984   C 218.38052,279.63895 219.05984,280.75783 219.53935,281.99658   C 220.05883,283.23534 220.29859,284.59397 220.29859,286.07249   C 220.29859,289.26927 219.25964,291.94658 217.22168,294.10441   C 215.18373,296.26224 212.54638,297.38112 209.26968,297.54096   L 209.26968,302.21626   z  M 206.55241,261.65702   C 204.75421,261.93674 203.35562,262.65602 202.31666,263.81486   C 201.27771,264.97369 200.75823,266.37229 200.75823,267.97068   C 200.75823,269.52911 201.19779,270.84779 202.0769,271.9267   C 202.95602,273.00562 204.43454,273.84478 206.55241,274.48413   z  M 209.26968,293.66486   C 211.10783,293.46506 212.58634,292.66586 213.74518,291.34718   C 214.94397,289.98855 215.50341,288.3502 215.50341,286.3522   C 215.50341,284.67389 215.10381,283.35522 214.26466,282.31626   C 213.4255,281.27731 211.78715,280.35823 209.26968,279.55903   z "
     style="fill:#000000;fill-rule:evenodd;fill-opacity:1;stroke:none;" />
</svg>
