<?xml version="1.0" encoding="UTF-8" standalone="no"?>
<svg
   xmlns:dc="http://purl.org/dc/elements/1.1/"
   xmlns:cc="http://creativecommons.org/ns#"
   xmlns:rdf="http://www.w3.org/1999/02/22-rdf-syntax-ns#"
   xmlns:svg="http://www.w3.org/2000/svg"
   xmlns="http://www.w3.org/2000/svg"
   id="svg13"
   height="112.9mm"
   width="112.9mm"
   version="1.0">
  <metadata
     id="metadata17">
    <rdf:RDF>
      <cc:Work
         rdf:about="">
        <dc:format>image/svg+xml</dc:format>
        <dc:type
           rdf:resource="http://purl.org/dc/dcmitype/StillImage" />
      </cc:Work>
    </rdf:RDF>
  </metadata>
  <defs
     id="defs3">
    <pattern
       y="0"
       x="0"
       height="6"
       width="6"
       patternUnits="userSpaceOnUse"
       id="EMFhbasepattern" />
  </defs>
  <path
     id="path5"
     d="  M 1092.9564,1126.3893   L 1092.9564,1080.583   L 1124.3372,1080.583   L 1124.3372,1088.3244   L 1102.2082,1088.3244   L 1102.2082,1099.1623   L 1121.3162,1099.1623   L 1121.3162,1106.9037   L 1102.2082,1106.9037   L 1102.2082,1126.3893   z "
     style="fill:#ffff00;fill-rule:nonzero;fill-opacity:1;stroke:none;" />
  <path
     id="path7"
     d="  M 1132.0031,1126.3893   L 1132.0031,1080.583   L 1146.8439,1080.583   C 1152.4328,1080.583 1156.1335,1080.8096 1157.8328,1081.3005   C 1160.4385,1081.9802 1162.6287,1083.453 1164.4036,1085.7565   C 1166.1784,1088.06 1167.047,1091.0433 1167.047,1094.6685   C 1167.047,1097.5007 1166.556,1099.842 1165.5364,1101.7679   C 1164.5168,1103.6938 1163.2329,1105.2044 1161.6469,1106.2617   C 1160.0608,1107.3568 1158.4748,1108.1121 1156.851,1108.452   C 1154.6608,1108.9051 1151.4509,1109.0939 1147.2593,1109.0939   L 1141.255,1109.0939   L 1141.255,1126.3893   z  M 1141.255,1088.3244   L 1141.255,1101.3148   L 1146.3152,1101.3148   C 1149.9404,1101.3148 1152.395,1101.0882 1153.6034,1100.5973   C 1154.8496,1100.1441 1155.7936,1099.3889 1156.5111,1098.3693   C 1157.1909,1097.3497 1157.5307,1096.1413 1157.5307,1094.8196   C 1157.5307,1093.158 1157.0398,1091.7608 1156.058,1090.6657   C 1155.0761,1089.6083 1153.8677,1088.9286 1152.3572,1088.6643   C 1151.2621,1088.4377 1149.0341,1088.3244 1145.711,1088.3244   z "
     style="fill:#ffff00;fill-rule:nonzero;fill-opacity:1;stroke:none;" />
  <path
     id="path9"
     d="  M 1055.3824,1055.5085   L 1203.488,1055.5085   L 1203.488,1246.2484   L 1055.3824,1246.2484   z "
     style="fill:none;stroke:#ffff00;stroke-width:5.3245535px;stroke-linecap:butt;stroke-linejoin:miter;stroke-miterlimit:282;stroke-dasharray:none;stroke-opacity:1;" />
  <path
     id="path11"
     d="  M 1055.3824,1248.4386   L 1129.9639,1348.5855   L 1204.5832,1248.4386  "
     style="fill:none;stroke:#ffff00;stroke-width:5.3245535px;stroke-linecap:butt;stroke-linejoin:miter;stroke-miterlimit:282;stroke-dasharray:none;stroke-opacity:1;" />
</svg>
