<?xml version="1.0" encoding="UTF-8" standalone="no"?>
<svg
   xmlns:dc="http://purl.org/dc/elements/1.1/"
   xmlns:cc="http://creativecommons.org/ns#"
   xmlns:rdf="http://www.w3.org/1999/02/22-rdf-syntax-ns#"
   xmlns:svg="http://www.w3.org/2000/svg"
   xmlns="http://www.w3.org/2000/svg"
   id="svg13"
   height="112.9mm"
   width="112.9mm"
   version="1.0">
  <metadata
     id="metadata17">
    <rdf:RDF>
      <cc:Work
         rdf:about="">
        <dc:format>image/svg+xml</dc:format>
        <dc:type
           rdf:resource="http://purl.org/dc/dcmitype/StillImage" />
      </cc:Work>
    </rdf:RDF>
  </metadata>
  <defs
     id="defs3">
    <pattern
       y="0"
       x="0"
       height="6"
       width="6"
       patternUnits="userSpaceOnUse"
       id="EMFhbasepattern" />
  </defs>
  <path
     id="path5"
     d="  M 1092.9186,1126.3893   L 1092.9186,1080.583   L 1124.2995,1080.583   L 1124.2995,1088.3244   L 1102.1705,1088.3244   L 1102.1705,1099.1623   L 1121.2785,1099.1623   L 1121.2785,1106.9037   L 1102.1705,1106.9037   L 1102.1705,1126.3893   z "
     style="fill:#ff0000;fill-rule:nonzero;fill-opacity:1;stroke:none;" />
  <path
     id="path7"
     d="  M 1131.9653,1126.3893   L 1131.9653,1080.583   L 1146.8061,1080.583   C 1152.4328,1080.583 1156.0957,1080.8096 1157.7951,1081.3005   C 1160.4007,1081.9802 1162.5909,1083.453 1164.3658,1085.7565   C 1166.1406,1088.06 1167.0092,1091.0433 1167.0092,1094.6685   C 1167.0092,1097.5007 1166.5183,1099.842 1165.4987,1101.7679   C 1164.4791,1103.6938 1163.1951,1105.2044 1161.6091,1106.2617   C 1160.0231,1107.3568 1158.437,1108.1121 1156.8132,1108.452   C 1154.623,1108.9051 1151.4132,1109.0939 1147.2215,1109.0939   L 1141.2172,1109.0939   L 1141.2172,1126.3893   z  M 1141.2172,1088.3244   L 1141.2172,1101.3148   L 1146.2774,1101.3148   C 1149.9026,1101.3148 1152.3572,1101.0882 1153.5656,1100.5973   C 1154.8118,1100.1441 1155.7559,1099.3889 1156.4734,1098.3693   C 1157.1531,1097.3497 1157.493,1096.1413 1157.493,1094.8196   C 1157.493,1093.158 1157.0021,1091.7608 1156.0202,1090.6657   C 1155.0761,1089.6083 1153.83,1088.9286 1152.3195,1088.6643   C 1151.2243,1088.4377 1148.9963,1088.3244 1145.6732,1088.3244   z "
     style="fill:#ff0000;fill-rule:nonzero;fill-opacity:1;stroke:none;" />
  <path
     id="path9"
     d="  M 1055.3824,1055.5085   L 1203.488,1055.5085   L 1203.488,1246.2484   L 1055.3824,1246.2484   z "
     style="fill:none;stroke:#ff0000;stroke-width:5.3245535px;stroke-linecap:butt;stroke-linejoin:miter;stroke-miterlimit:282;stroke-dasharray:none;stroke-opacity:1;" />
  <path
     id="path11"
     d="  M 1055.3824,1248.4386   L 1129.9639,1348.5855   L 1204.5832,1248.4386  "
     style="fill:none;stroke:#ff0000;stroke-width:5.3245535px;stroke-linecap:butt;stroke-linejoin:miter;stroke-miterlimit:282;stroke-dasharray:none;stroke-opacity:1;" />
</svg>
