<?xml version="1.0" encoding="UTF-8" standalone="no"?>
<svg
   xmlns:dc="http://purl.org/dc/elements/1.1/"
   xmlns:cc="http://creativecommons.org/ns#"
   xmlns:rdf="http://www.w3.org/1999/02/22-rdf-syntax-ns#"
   xmlns:svg="http://www.w3.org/2000/svg"
   xmlns="http://www.w3.org/2000/svg"
   id="svg11"
   height="101.85mm"
   width="95.75mm"
   version="1.0">
  <metadata
     id="metadata15">
    <rdf:RDF>
      <cc:Work
         rdf:about="">
        <dc:format>image/svg+xml</dc:format>
        <dc:type
           rdf:resource="http://purl.org/dc/dcmitype/StillImage" />
      </cc:Work>
    </rdf:RDF>
  </metadata>
  <defs
     id="defs3">
    <pattern
       y="0"
       x="0"
       height="6"
       width="6"
       patternUnits="userSpaceOnUse"
       id="EMFhbasepattern" />
  </defs>
  <path
     id="path5"
     d="  M 54.345381,54.345381   L 54.345381,330.54779   L 307.53092,330.54779   L 307.53092,54.345381   L 54.345381,54.345381   z "
     style="fill:#aaffaa;fill-rule:evenodd;fill-opacity:1;stroke:none;" />
  <path
     id="path7"
     d="  M 54.345381,330.54779   L 54.345381,54.345381   L 307.53092,54.345381   L 307.53092,330.54779  "
     style="fill:none;stroke:#000000;stroke-width:9.5903616px;stroke-linecap:butt;stroke-linejoin:miter;stroke-miterlimit:10;stroke-dasharray:none;stroke-opacity:1;" />
  <path
     id="path9"
     d="  M 149.8494,230.60823   L 149.8494,127.63173   L 185.33373,127.63173   C 193.3257,127.67168 199.43956,128.1512 203.6753,129.11024   C 209.54939,130.46887 214.58433,132.94638 218.78012,136.50281   C 224.21466,141.09819 228.2506,146.97229 230.96787,154.08514   C 233.64518,161.23795 235.00381,169.38976 235.00381,178.58052   C 235.00381,186.41265 234.08474,193.3257 232.24658,199.35964   C 230.40843,205.43353 228.09076,210.42851 225.21365,214.38454   C 222.3765,218.34056 219.25964,221.45743 215.86305,223.69518   C 212.46646,225.97289 208.3506,227.69116 203.55542,228.88996   C 198.76024,230.04879 193.24578,230.60823 187.01205,230.60823   z  M 163.4757,218.46044   L 185.45361,218.46044   C 192.24678,218.46044 197.6014,217.86104 201.43755,216.58233   C 205.31365,215.30361 208.39056,213.54538 210.66827,211.22771   C 213.90502,208.03092 216.42249,203.6753 218.22068,198.2008   C 220.05883,192.76626 220.93795,186.13293 220.93795,178.38072   C 220.93795,167.59156 219.17972,159.31988 215.62329,153.5257   C 212.10682,147.77148 207.79116,143.89538 202.75622,141.89739   C 199.07992,140.49879 193.20582,139.81948 185.13393,139.81948   L 163.4757,139.81948   z "
     style="fill:#000000;fill-rule:evenodd;fill-opacity:1;stroke:none;" />
</svg>
