<?xml version="1.0" encoding="UTF-8" standalone="no"?>
<svg
   xmlns:dc="http://purl.org/dc/elements/1.1/"
   xmlns:cc="http://creativecommons.org/ns#"
   xmlns:rdf="http://www.w3.org/1999/02/22-rdf-syntax-ns#"
   xmlns:svg="http://www.w3.org/2000/svg"
   xmlns="http://www.w3.org/2000/svg"
   id="svg13"
   height="107.94mm"
   width="95.75mm"
   version="1.0">
  <metadata
     id="metadata17">
    <rdf:RDF>
      <cc:Work
         rdf:about="">
        <dc:format>image/svg+xml</dc:format>
        <dc:type
           rdf:resource="http://purl.org/dc/dcmitype/StillImage" />
      </cc:Work>
    </rdf:RDF>
  </metadata>
  <defs
     id="defs3">
    <pattern
       y="0"
       x="0"
       height="6"
       width="6"
       patternUnits="userSpaceOnUse"
       id="EMFhbasepattern" />
  </defs>
  <path
     id="path5"
     d="  M 54.345381,353.56465   L 54.345381,171.34779   L 180.93815,54.345381   L 307.53092,171.34779   L 307.53092,353.56465   z "
     style="fill:#ff8080;fill-rule:evenodd;fill-opacity:1;stroke:none;" />
  <path
     id="path7"
     d="  M 54.345381,353.56465   L 54.345381,171.34779   L 180.93815,54.345381   L 307.53092,171.34779   L 307.53092,353.56465  "
     style="fill:none;stroke:#000000;stroke-width:9.5903616px;stroke-linecap:butt;stroke-linejoin:miter;stroke-miterlimit:10;stroke-dasharray:none;stroke-opacity:1;" />
  <path
     id="path9"
     d="  M 219.33956,126.67269   L 232.96586,126.67269   L 232.96586,186.17289   C 232.96586,196.52249 231.80702,204.75421 229.44939,210.82811   C 227.13172,216.94196 222.89598,221.89698 216.78213,225.69317   C 210.66827,229.52931 202.6763,231.40743 192.7263,231.40743   C 183.09598,231.40743 175.18393,229.76907 169.07008,226.45241   C 162.91626,223.13574 158.56064,218.3006 155.92329,211.98694   C 153.28594,205.71325 151.96727,197.08192 151.96727,186.17289   L 151.96727,126.67269   L 165.59357,126.67269   L 165.59357,186.13293   C 165.59357,195.08393 166.43273,201.67731 168.11104,205.91305   C 169.78935,210.14879 172.6265,213.38554 176.66245,215.70321   C 180.73835,217.98092 185.69337,219.13976 191.52751,219.13976   C 201.55743,219.13976 208.71024,216.86205 212.94598,212.30662   C 217.22168,207.79116 219.33956,199.03996 219.33956,186.13293   z "
     style="fill:#000000;fill-rule:evenodd;fill-opacity:1;stroke:none;" />
  <path
     id="path11"
     d="  M 171.14799,335.22309   L 171.14799,290.58795   L 177.02209,290.58795   L 177.02209,329.94839   L 199,329.94839   L 199,335.22309   z "
     style="fill:#000000;fill-rule:evenodd;fill-opacity:1;stroke:none;" />
</svg>
