<?xml version="1.0" encoding="UTF-8" standalone="no"?>
<svg
   xmlns:dc="http://purl.org/dc/elements/1.1/"
   xmlns:cc="http://creativecommons.org/ns#"
   xmlns:rdf="http://www.w3.org/1999/02/22-rdf-syntax-ns#"
   xmlns:svg="http://www.w3.org/2000/svg"
   xmlns="http://www.w3.org/2000/svg"
   id="svg11"
   height="107.94mm"
   width="95.75mm"
   version="1.0">
  <metadata
     id="metadata15">
    <rdf:RDF>
      <cc:Work
         rdf:about="">
        <dc:format>image/svg+xml</dc:format>
        <dc:type
           rdf:resource="http://purl.org/dc/dcmitype/StillImage" />
      </cc:Work>
    </rdf:RDF>
  </metadata>
  <defs
     id="defs3">
    <pattern
       y="0"
       x="0"
       height="6"
       width="6"
       patternUnits="userSpaceOnUse"
       id="EMFhbasepattern" />
  </defs>
  <path
     id="path5"
     d="  M 54.345381,353.56465   L 54.345381,171.34779   L 180.93815,54.345381   L 307.53092,171.34779   L 307.53092,353.56465   z "
     style="fill:#ff8080;fill-rule:evenodd;fill-opacity:1;stroke:none;" />
  <path
     id="path7"
     d="  M 54.345381,353.56465   L 54.345381,171.34779   L 180.93815,54.345381   L 307.53092,171.34779   L 307.53092,353.56465  "
     style="fill:none;stroke:#000000;stroke-width:9.5903616px;stroke-linecap:butt;stroke-linejoin:miter;stroke-miterlimit:10;stroke-dasharray:none;stroke-opacity:1;" />
  <path
     id="path9"
     d="  M 149.8494,253.6251   L 149.8494,150.64859   L 185.33373,150.64859   C 193.3257,150.68855 199.43956,151.16807 203.6753,152.12711   C 209.54939,153.48574 214.58433,155.96325 218.78012,159.51968   C 224.21466,164.11506 228.2506,169.98915 230.96787,177.10201   C 233.64518,184.25482 235.00381,192.40662 235.00381,201.59739   C 235.00381,209.42952 234.08474,216.34257 232.24658,222.3765   C 230.40843,228.4504 228.09076,233.44538 225.21365,237.4014   C 222.3765,241.35743 219.25964,244.47429 215.86305,246.71204   C 212.46646,248.98976 208.3506,250.70803 203.55542,251.90682   C 198.76024,253.06566 193.24578,253.6251 187.01205,253.6251   z  M 163.4757,241.47731   L 185.45361,241.47731   C 192.24678,241.47731 197.6014,240.87791 201.43755,239.59919   C 205.31365,238.32048 208.39056,236.56225 210.66827,234.24457   C 213.90502,231.04779 216.42249,226.69217 218.22068,221.21767   C 220.05883,215.78313 220.93795,209.1498 220.93795,201.39759   C 220.93795,190.60843 219.17972,182.33674 215.62329,176.54257   C 212.10682,170.78835 207.79116,166.91225 202.75622,164.91425   C 199.07992,163.51566 193.20582,162.83634 185.13393,162.83634   L 163.4757,162.83634   z "
     style="fill:#000000;fill-rule:evenodd;fill-opacity:1;stroke:none;" />
</svg>
