<?xml version="1.0" encoding="UTF-8" standalone="no"?>
<svg
   xmlns:dc="http://purl.org/dc/elements/1.1/"
   xmlns:cc="http://creativecommons.org/ns#"
   xmlns:rdf="http://www.w3.org/1999/02/22-rdf-syntax-ns#"
   xmlns:svg="http://www.w3.org/2000/svg"
   xmlns="http://www.w3.org/2000/svg"
   id="svg13"
   height="125.53mm"
   width="95.75mm"
   version="1.0">
  <metadata
     id="metadata17">
    <rdf:RDF>
      <cc:Work
         rdf:about="">
        <dc:format>image/svg+xml</dc:format>
        <dc:type
           rdf:resource="http://purl.org/dc/dcmitype/StillImage" />
      </cc:Work>
    </rdf:RDF>
  </metadata>
  <defs
     id="defs3">
    <pattern
       y="0"
       x="0"
       height="6"
       width="6"
       patternUnits="userSpaceOnUse"
       id="EMFhbasepattern" />
  </defs>
  <path
     id="path5"
     d="  M 307.53092,420.05783   C 307.53092,54.665059 54.345381,54.665059 54.345381,420.05783   z "
     style="fill:#80e0ff;fill-rule:evenodd;fill-opacity:1;stroke:none;" />
  <path
     id="path7"
     d="  M 307.53092,420.05783   C 307.53092,54.665059 54.345381,54.665059 54.345381,420.05783  "
     style="fill:none;stroke:#000000;stroke-width:9.5903616px;stroke-linecap:butt;stroke-linejoin:miter;stroke-miterlimit:10;stroke-dasharray:none;stroke-opacity:1;" />
  <path
     id="path9"
     d="  M 96.58293,308.60983   L 104.33514,307.93052   C 104.69478,311.04739 105.53393,313.56485 106.85261,315.56285   C 108.21124,317.52088 110.28916,319.11927 113.08634,320.35803   C 115.88353,321.55682 119.04036,322.19618 122.55683,322.19618   C 125.67369,322.19618 128.43092,321.71666 130.82851,320.79759   C 133.2261,319.87851 134.98434,318.59979 136.14317,317.0014   C 137.34197,315.36305 137.9014,313.60481 137.9014,311.68674   C 137.9014,309.76867 137.34197,308.0504 136.22309,306.61184   C 135.10421,305.17329 133.2261,303.93453 130.66867,302.9755   C 128.99036,302.33614 125.31405,301.33714 119.63976,299.93855   C 113.96546,298.57992 110.00944,297.3012 107.73173,296.10241   C 104.7747,294.54397 102.57691,292.6259 101.13835,290.34819   C 99.699798,288.07048 98.980521,285.47309 98.980521,282.63594   C 98.980521,279.51907 99.859637,276.64196 101.61787,273.92469   C 103.3761,271.20743 105.97349,269.12951 109.37008,267.73092   C 112.76667,266.33233 116.56285,265.61305 120.71867,265.61305   C 125.27409,265.61305 129.31004,266.37229 132.8265,267.8508   C 136.34297,269.32931 139.02028,271.48714 140.89839,274.36425   C 142.7765,277.2014 143.7755,280.47811 143.93534,284.07449   L 136.10321,284.67389   C 135.66365,280.75783 134.26506,277.84076 131.82751,275.84277   C 129.38996,273.84478 125.79357,272.84578 121.03835,272.84578   C 116.08333,272.84578 112.48695,273.7249 110.2492,275.56305   C 107.97148,277.36124 106.85261,279.55903 106.85261,282.11646   C 106.85261,284.31425 107.65181,286.15241 109.2502,287.59096   C 110.80863,289.02951 114.9245,290.50803 121.55783,291.98654   C 128.23112,293.50502 132.78654,294.82369 135.26405,295.94257   C 138.86044,297.58092 141.49779,299.69879 143.21606,302.21626   C 144.93434,304.77369 145.77349,307.69076 145.77349,311.00743   C 145.77349,314.32409 144.85442,317.401 142.9763,320.31807   C 141.09819,323.23514 138.38092,325.47289 134.86446,327.11124   C 131.30803,328.70963 127.35201,329.50883 122.95642,329.50883   C 117.36205,329.50883 112.68675,328.70963 108.89056,327.07128   C 105.09438,325.43293 102.13735,322.99538 99.979517,319.71867   C 97.861645,316.44196 96.70281,312.76566 96.58293,308.60983   z  M 154.48474,298.38012   C 154.48474,288.11044 157.24197,280.07851 162.71646,274.28433   C 168.23092,268.49016 175.34377,265.57309 184.05502,265.57309   C 189.76927,265.57309 194.88413,266.93172 199.47952,269.68895   C 204.0749,272.40622 207.5514,276.20241 209.94899,281.07751   C 212.34658,285.95261 213.54538,291.46706 213.54538,297.66084   C 213.54538,303.93453 212.30662,309.52891 209.74919,314.48393   C 207.23172,319.43895 203.63534,323.15522 199,325.71265   C 194.36466,328.27008 189.36968,329.50883 184.01506,329.50883   C 178.18092,329.50883 172.98614,328.11024 168.43072,325.31305   C 163.83534,322.51586 160.35883,318.67971 158.0012,313.80461   C 155.64357,308.92951 154.48474,303.81465 154.48474,298.38012   z  M 162.91626,298.5   C 162.91626,305.93253 164.91425,311.80662 168.91024,316.08232   C 172.90622,320.39799 177.94116,322.51586 183.9751,322.51586   C 190.12891,322.51586 195.20381,320.35803 199.15984,316.04236   C 203.15582,311.7267 205.11385,305.57289 205.11385,297.62088   C 205.11385,292.58594 204.2747,288.19036 202.59638,284.43413   C 200.87811,280.67791 198.4006,277.8008 195.12389,275.72289   C 191.84719,273.64498 188.17088,272.60602 184.09498,272.60602   C 178.3008,272.60602 173.34578,274.60401 169.15,278.6   C 164.99417,282.55602 162.91626,289.18935 162.91626,298.5   z  M 224.49437,328.46987   L 224.49437,266.69196   L 266.21245,266.69196   L 266.21245,273.96465   L 232.68614,273.96465   L 232.68614,293.10542   L 261.69698,293.10542   L 261.69698,300.37811   L 232.68614,300.37811   L 232.68614,328.46987   z "
     style="fill:#000000;fill-rule:evenodd;fill-opacity:1;stroke:none;" />
  <path
     id="path11"
     d="  M 96.58293,308.60983   L 104.33514,307.93052   C 104.69478,311.04739 105.53393,313.56485 106.85261,315.56285   C 108.21124,317.52088 110.28916,319.11927 113.08634,320.35803   C 115.88353,321.55682 119.04036,322.19618 122.55683,322.19618   C 125.67369,322.19618 128.43092,321.71666 130.82851,320.79759   C 133.2261,319.87851 134.98434,318.59979 136.14317,317.0014   C 137.34197,315.36305 137.9014,313.60481 137.9014,311.68674   C 137.9014,309.76867 137.34197,308.0504 136.22309,306.61184   C 135.10421,305.17329 133.2261,303.93453 130.66867,302.9755   C 128.99036,302.33614 125.31405,301.33714 119.63976,299.93855   C 113.96546,298.57992 110.00944,297.3012 107.73173,296.10241   C 104.7747,294.54397 102.57691,292.6259 101.13835,290.34819   C 99.699798,288.07048 98.980521,285.47309 98.980521,282.63594   C 98.980521,279.51907 99.859637,276.64196 101.61787,273.92469   C 103.3761,271.20743 105.97349,269.12951 109.37008,267.73092   C 112.76667,266.33233 116.56285,265.61305 120.71867,265.61305   C 125.27409,265.61305 129.31004,266.37229 132.8265,267.8508   C 136.34297,269.32931 139.02028,271.48714 140.89839,274.36425   C 142.7765,277.2014 143.7755,280.47811 143.93534,284.07449   L 136.10321,284.67389   C 135.66365,280.75783 134.26506,277.84076 131.82751,275.84277   C 129.38996,273.84478 125.79357,272.84578 121.03835,272.84578   C 116.08333,272.84578 112.48695,273.7249 110.2492,275.56305   C 107.97148,277.36124 106.85261,279.55903 106.85261,282.11646   C 106.85261,284.31425 107.65181,286.15241 109.2502,287.59096   C 110.80863,289.02951 114.9245,290.50803 121.55783,291.98654   C 128.23112,293.50502 132.78654,294.82369 135.26405,295.94257   C 138.86044,297.58092 141.49779,299.69879 143.21606,302.21626   C 144.93434,304.77369 145.77349,307.69076 145.77349,311.00743   C 145.77349,314.32409 144.85442,317.401 142.9763,320.31807   C 141.09819,323.23514 138.38092,325.47289 134.86446,327.11124   C 131.30803,328.70963 127.35201,329.50883 122.95642,329.50883   C 117.36205,329.50883 112.68675,328.70963 108.89056,327.07128   C 105.09438,325.43293 102.13735,322.99538 99.979517,319.71867   C 97.861645,316.44196 96.70281,312.76566 96.58293,308.60983   z  M 154.48474,298.38012   C 154.48474,288.11044 157.24197,280.07851 162.71646,274.28433   C 168.23092,268.49016 175.34377,265.57309 184.05502,265.57309   C 189.76927,265.57309 194.88413,266.93172 199.47952,269.68895   C 204.0749,272.40622 207.5514,276.20241 209.94899,281.07751   C 212.34658,285.95261 213.54538,291.46706 213.54538,297.66084   C 213.54538,303.93453 212.30662,309.52891 209.74919,314.48393   C 207.23172,319.43895 203.63534,323.15522 199,325.71265   C 194.36466,328.27008 189.36968,329.50883 184.01506,329.50883   C 178.18092,329.50883 172.98614,328.11024 168.43072,325.31305   C 163.83534,322.51586 160.35883,318.67971 158.0012,313.80461   C 155.64357,308.92951 154.48474,303.81465 154.48474,298.38012   z  M 162.91626,298.5   C 162.91626,305.93253 164.91425,311.80662 168.91024,316.08232   C 172.90622,320.39799 177.94116,322.51586 183.9751,322.51586   C 190.12891,322.51586 195.20381,320.35803 199.15984,316.04236   C 203.15582,311.7267 205.11385,305.57289 205.11385,297.62088   C 205.11385,292.58594 204.2747,288.19036 202.59638,284.43413   C 200.87811,280.67791 198.4006,277.8008 195.12389,275.72289   C 191.84719,273.64498 188.17088,272.60602 184.09498,272.60602   C 178.3008,272.60602 173.34578,274.60401 169.15,278.6   C 164.99417,282.55602 162.91626,289.18935 162.91626,298.5   z  M 224.49437,328.46987   L 224.49437,266.69196   L 266.21245,266.69196   L 266.21245,273.96465   L 232.68614,273.96465   L 232.68614,293.10542   L 261.69698,293.10542   L 261.69698,300.37811   L 232.68614,300.37811   L 232.68614,328.46987   z "
     style="fill:none;stroke:#000000;stroke-width:0.95903611px;stroke-linecap:butt;stroke-linejoin:miter;stroke-miterlimit:10;stroke-dasharray:none;stroke-opacity:1;" />
</svg>
