<?xml version="1.0" encoding="UTF-8" standalone="no"?>
<svg
   xmlns:dc="http://purl.org/dc/elements/1.1/"
   xmlns:cc="http://creativecommons.org/ns#"
   xmlns:rdf="http://www.w3.org/1999/02/22-rdf-syntax-ns#"
   xmlns:svg="http://www.w3.org/2000/svg"
   xmlns="http://www.w3.org/2000/svg"
   id="svg13"
   height="101.85mm"
   width="95.75mm"
   version="1.0">
  <metadata
     id="metadata17">
    <rdf:RDF>
      <cc:Work
         rdf:about="">
        <dc:format>image/svg+xml</dc:format>
        <dc:type
           rdf:resource="http://purl.org/dc/dcmitype/StillImage" />
      </cc:Work>
    </rdf:RDF>
  </metadata>
  <defs
     id="defs3">
    <pattern
       y="0"
       x="0"
       height="6"
       width="6"
       patternUnits="userSpaceOnUse"
       id="EMFhbasepattern" />
  </defs>
  <path
     id="path5"
     d="  M 54.345381,54.345381   L 54.345381,330.54779   L 307.53092,330.54779   L 307.53092,54.345381   L 54.345381,54.345381   z "
     style="fill:#aaffaa;fill-rule:evenodd;fill-opacity:1;stroke:none;" />
  <path
     id="path7"
     d="  M 54.345381,330.54779   L 54.345381,54.345381   L 307.53092,54.345381   L 307.53092,330.54779  "
     style="fill:none;stroke:#000000;stroke-width:9.5903616px;stroke-linecap:butt;stroke-linejoin:miter;stroke-miterlimit:10;stroke-dasharray:none;stroke-opacity:1;" />
  <path
     id="path9"
     d="  M 219.33956,103.65582   L 232.96586,103.65582   L 232.96586,163.15602   C 232.96586,173.50562 231.80702,181.73735 229.44939,187.81124   C 227.13172,193.9251 222.89598,198.88012 216.78213,202.6763   C 210.66827,206.51245 202.6763,208.39056 192.7263,208.39056   C 183.09598,208.39056 175.18393,206.75221 169.07008,203.43554   C 162.91626,200.11887 158.56064,195.28373 155.92329,188.97008   C 153.28594,182.69638 151.96727,174.06506 151.96727,163.15602   L 151.96727,103.65582   L 165.59357,103.65582   L 165.59357,163.11606   C 165.59357,172.06707 166.43273,178.66044 168.11104,182.89618   C 169.78935,187.13193 172.6265,190.36867 176.66245,192.68634   C 180.73835,194.96405 185.69337,196.12289 191.52751,196.12289   C 201.55743,196.12289 208.71024,193.84518 212.94598,189.28976   C 217.22168,184.77429 219.33956,176.02309 219.33956,163.11606   z "
     style="fill:#000000;fill-rule:evenodd;fill-opacity:1;stroke:none;" />
  <path
     id="path11"
     d="  M 171.14799,312.20622   L 171.14799,267.57108   L 177.02209,267.57108   L 177.02209,306.93152   L 199,306.93152   L 199,312.20622   z "
     style="fill:#000000;fill-rule:evenodd;fill-opacity:1;stroke:none;" />
</svg>
