<?xml version="1.0" encoding="UTF-8" standalone="no"?>
<svg
   xmlns:dc="http://purl.org/dc/elements/1.1/"
   xmlns:cc="http://creativecommons.org/ns#"
   xmlns:rdf="http://www.w3.org/1999/02/22-rdf-syntax-ns#"
   xmlns:svg="http://www.w3.org/2000/svg"
   xmlns="http://www.w3.org/2000/svg"
   id="svg11"
   height="125.53mm"
   width="95.75mm"
   version="1.0">
  <metadata
     id="metadata15">
    <rdf:RDF>
      <cc:Work
         rdf:about="">
        <dc:format>image/svg+xml</dc:format>
        <dc:type
           rdf:resource="http://purl.org/dc/dcmitype/StillImage" />
      </cc:Work>
    </rdf:RDF>
  </metadata>
  <defs
     id="defs3">
    <pattern
       y="0"
       x="0"
       height="6"
       width="6"
       patternUnits="userSpaceOnUse"
       id="EMFhbasepattern" />
  </defs>
  <path
     id="path5"
     d="  M 307.53092,420.05783   C 307.53092,54.665059 54.345381,54.665059 54.345381,420.05783   z "
     style="fill:#80e0ff;fill-rule:evenodd;fill-opacity:1;stroke:none;" />
  <path
     id="path7"
     d="  M 307.53092,420.05783   C 307.53092,54.665059 54.345381,54.665059 54.345381,420.05783  "
     style="fill:none;stroke:#000000;stroke-width:9.5903616px;stroke-linecap:butt;stroke-linejoin:miter;stroke-miterlimit:10;stroke-dasharray:none;stroke-opacity:1;" />
  <path
     id="path9"
     d="  M 220.45843,284.03453   L 234.08474,287.47108   C 231.20763,298.65984 226.09277,307.21124 218.66024,313.08534   C 211.22771,318.95943 202.15682,321.8765 191.44759,321.8765   C 180.33875,321.8765 171.30783,319.63875 164.35482,315.12329   C 157.4018,310.60783 152.12711,304.05441 148.49076,295.50301   C 144.85442,286.91164 143.05622,277.72088 143.05622,267.89076   C 143.05622,257.14156 145.09417,247.79096 149.21004,239.83895   C 153.28594,231.84698 159.12008,225.77309 166.67249,221.61727   C 174.26486,217.5014 182.5765,215.42349 191.64739,215.42349   C 201.95703,215.42349 210.62831,218.02088 217.66124,223.29558   C 224.65421,228.53032 229.56927,235.88293 232.3265,245.39337   L 218.9,248.5502   C 216.50241,241.07771 213.06586,235.60321 208.51044,232.20662   C 203.95502,228.77008 198.24076,227.0518 191.36767,227.0518   C 183.45562,227.0518 176.86225,228.96988 171.54759,232.76606   C 166.23293,236.56225 162.4767,241.63715 160.31887,248.03072   C 158.16104,254.42429 157.08213,261.01767 157.08213,267.81084   C 157.08213,276.56204 158.36084,284.19437 160.91827,290.74779   C 163.4757,297.26124 167.43172,302.1763 172.8263,305.37309   C 178.22088,308.60983 184.05502,310.24819 190.32871,310.24819   C 197.96104,310.24819 204.43454,308.0504 209.70923,303.61486   C 214.98393,299.21927 218.58032,292.70582 220.45843,284.03453   z "
     style="fill:#000000;fill-rule:evenodd;fill-opacity:1;stroke:none;" />
</svg>
