<?xml version="1.0" encoding="UTF-8" standalone="no"?>
<svg
   xmlns:dc="http://purl.org/dc/elements/1.1/"
   xmlns:cc="http://creativecommons.org/ns#"
   xmlns:rdf="http://www.w3.org/1999/02/22-rdf-syntax-ns#"
   xmlns:svg="http://www.w3.org/2000/svg"
   xmlns="http://www.w3.org/2000/svg"
   id="svg11"
   height="107.94mm"
   width="95.75mm"
   version="1.0">
  <metadata
     id="metadata15">
    <rdf:RDF>
      <cc:Work
         rdf:about="">
        <dc:format>image/svg+xml</dc:format>
        <dc:type
           rdf:resource="http://purl.org/dc/dcmitype/StillImage" />
      </cc:Work>
    </rdf:RDF>
  </metadata>
  <defs
     id="defs3">
    <pattern
       y="0"
       x="0"
       height="6"
       width="6"
       patternUnits="userSpaceOnUse"
       id="EMFhbasepattern" />
  </defs>
  <path
     id="path5"
     d="  M 54.345381,353.56465   L 54.345381,171.34779   L 180.93815,54.345381   L 307.53092,171.34779   L 307.53092,353.56465   z "
     style="fill:#ff8080;fill-rule:evenodd;fill-opacity:1;stroke:none;" />
  <path
     id="path7"
     d="  M 54.345381,353.56465   L 54.345381,171.34779   L 180.93815,54.345381   L 307.53092,171.34779   L 307.53092,353.56465  "
     style="fill:none;stroke:#000000;stroke-width:9.5903616px;stroke-linecap:butt;stroke-linejoin:miter;stroke-miterlimit:10;stroke-dasharray:none;stroke-opacity:1;" />
  <path
     id="path9"
     d="  M 147.17209,253.6251   L 147.17209,150.64859   L 192.84618,150.64859   C 202.03694,150.68855 208.98996,151.60763 213.78514,153.44578   C 218.54036,155.28393 222.3765,158.56064 225.21365,163.23594   C 228.09076,167.91124 229.52931,173.10602 229.52931,178.78032   C 229.52931,186.09297 227.17168,192.24678 222.41646,197.24176   C 217.7012,202.2767 210.38855,205.43353 200.51847,206.79217   C 204.11486,208.51044 206.87209,210.22871 208.71024,211.90703   C 212.70622,215.58333 216.46245,220.13875 220.01887,225.61325   L 237.96084,253.6251   L 220.81807,253.6251   L 207.19176,232.20662   C 203.19578,226.05281 199.91907,221.29759 197.36164,218.02088   C 194.76425,214.74417 192.44658,212.46646 190.40863,211.14779   C 188.37068,209.82911 186.33273,208.91004 184.21486,208.39056   C 182.65642,208.07088 180.13895,207.91104 176.62249,207.91104   L 160.79839,207.91104   L 160.79839,253.6251   z  M 160.79839,196.12289   L 190.08895,196.12289   C 196.32269,196.12289 201.19779,195.48353 204.71425,194.20482   C 208.23072,192.88614 210.90803,190.84819 212.74618,188.01104   C 214.54437,185.17389 215.46345,182.09699 215.46345,178.78032   C 215.46345,173.90522 213.70522,169.90923 210.14879,166.75241   C 206.63233,163.63554 201.03795,162.03715 193.40562,162.03715   L 160.79839,162.03715   z "
     style="fill:#000000;fill-rule:evenodd;fill-opacity:1;stroke:none;" />
</svg>
