<?xml version="1.0" encoding="UTF-8" standalone="no"?>
<svg
   xmlns:dc="http://purl.org/dc/elements/1.1/"
   xmlns:cc="http://creativecommons.org/ns#"
   xmlns:rdf="http://www.w3.org/1999/02/22-rdf-syntax-ns#"
   xmlns:svg="http://www.w3.org/2000/svg"
   xmlns="http://www.w3.org/2000/svg"
   id="svg11"
   height="116.06mm"
   width="135.35001mm"
   version="1.0">
  <metadata
     id="metadata15">
    <rdf:RDF>
      <cc:Work
         rdf:about="">
        <dc:format>image/svg+xml</dc:format>
        <dc:type
           rdf:resource="http://purl.org/dc/dcmitype/StillImage" />
      </cc:Work>
    </rdf:RDF>
  </metadata>
  <defs
     id="defs3">
    <pattern
       y="0"
       x="0"
       height="6"
       width="6"
       patternUnits="userSpaceOnUse"
       id="EMFhbasepattern" />
  </defs>
  <path
     id="path5"
     d="  M 337.26104,384.25381   C 457.14056,384.25381 457.14056,187.6514 337.26104,187.6514   C 337.26104,54.345381 174.2249,54.345381 174.2249,187.6514   C 54.345381,187.6514 54.345381,384.25381 174.2249,384.25381   z "
     style="fill:#ffff80;fill-rule:evenodd;fill-opacity:1;stroke:none;" />
  <path
     id="path7"
     d="  M 337.26104,384.25381   C 457.14056,384.25381 457.14056,187.6514 337.26104,187.6514   C 337.26104,54.345381 174.2249,54.345381 174.2249,187.6514   C 54.345381,187.6514 54.345381,384.25381 174.2249,384.25381  "
     style="fill:none;stroke:#000000;stroke-width:9.5903616px;stroke-linecap:butt;stroke-linejoin:miter;stroke-miterlimit:10;stroke-dasharray:none;stroke-opacity:1;" />
  <path
     id="path9"
     d="  M 224.65421,284.31425   L 224.65421,181.33775   L 260.13855,181.33775   C 268.13052,181.37771 274.24437,181.85723 278.48012,182.81626   C 284.35421,184.1749 289.38915,186.65241 293.58494,190.20883   C 299.01947,194.80421 303.05542,200.67831 305.77269,207.79116   C 308.45,214.94397 309.80863,223.09578 309.80863,232.28654   C 309.80863,240.11867 308.88955,247.03172 307.0514,253.06566   C 305.21325,259.13955 302.89558,264.13453 300.01847,268.09056   C 297.18132,272.04658 294.06445,275.16345 290.66787,277.4012   C 287.27128,279.67891 283.15542,281.39718 278.36024,282.59598   C 273.56506,283.75482 268.0506,284.31425 261.81686,284.31425   z  M 238.28052,272.16646   L 260.25843,272.16646   C 267.0516,272.16646 272.40622,271.56706 276.24237,270.28835   C 280.11847,269.00963 283.19538,267.2514 285.47309,264.93373   C 288.70984,261.73694 291.22731,257.38132 293.0255,251.90682   C 294.86365,246.47229 295.74277,239.83895 295.74277,232.08674   C 295.74277,221.29759 293.98453,213.0259 290.42811,207.23172   C 286.91164,201.47751 282.59598,197.6014 277.56104,195.60341   C 273.88473,194.20482 268.01064,193.5255 259.93875,193.5255   L 238.28052,193.5255   z "
     style="fill:#000000;fill-rule:evenodd;fill-opacity:1;stroke:none;" />
</svg>
