<?xml version="1.0" encoding="UTF-8" standalone="no"?>
<svg
   xmlns:dc="http://purl.org/dc/elements/1.1/"
   xmlns:cc="http://creativecommons.org/ns#"
   xmlns:rdf="http://www.w3.org/1999/02/22-rdf-syntax-ns#"
   xmlns:svg="http://www.w3.org/2000/svg"
   xmlns="http://www.w3.org/2000/svg"
   id="svg11"
   height="125.53mm"
   width="95.75mm"
   version="1.0">
  <metadata
     id="metadata15">
    <rdf:RDF>
      <cc:Work
         rdf:about="">
        <dc:format>image/svg+xml</dc:format>
        <dc:type
           rdf:resource="http://purl.org/dc/dcmitype/StillImage" />
      </cc:Work>
    </rdf:RDF>
  </metadata>
  <defs
     id="defs3">
    <pattern
       y="0"
       x="0"
       height="6"
       width="6"
       patternUnits="userSpaceOnUse"
       id="EMFhbasepattern" />
  </defs>
  <path
     id="path5"
     d="  M 307.53092,420.05783   C 307.53092,54.665059 54.345381,54.665059 54.345381,420.05783   z "
     style="fill:#80e0ff;fill-rule:evenodd;fill-opacity:1;stroke:none;" />
  <path
     id="path7"
     d="  M 307.53092,420.05783   C 307.53092,54.665059 54.345381,54.665059 54.345381,420.05783  "
     style="fill:none;stroke:#000000;stroke-width:9.5903616px;stroke-linecap:butt;stroke-linejoin:miter;stroke-miterlimit:10;stroke-dasharray:none;stroke-opacity:1;" />
  <path
     id="path9"
     d="  M 147.17209,320.11827   L 147.17209,217.14176   L 192.84618,217.14176   C 202.03694,217.18172 208.98996,218.1008 213.78514,219.93895   C 218.54036,221.77711 222.3765,225.05381 225.21365,229.72911   C 228.09076,234.40441 229.52931,239.59919 229.52931,245.27349   C 229.52931,252.58614 227.17168,258.73996 222.41646,263.73494   C 217.7012,268.76988 210.38855,271.9267 200.51847,273.28534   C 204.11486,275.00361 206.87209,276.72188 208.71024,278.4002   C 212.70622,282.0765 216.46245,286.63192 220.01887,292.10642   L 237.96084,320.11827   L 220.81807,320.11827   L 207.19176,298.69979   C 203.19578,292.54598 199.91907,287.79076 197.36164,284.51405   C 194.76425,281.23735 192.44658,278.95963 190.40863,277.64096   C 188.37068,276.32229 186.33273,275.40321 184.21486,274.88373   C 182.65642,274.56405 180.13895,274.40421 176.62249,274.40421   L 160.79839,274.40421   L 160.79839,320.11827   z  M 160.79839,262.61606   L 190.08895,262.61606   C 196.32269,262.61606 201.19779,261.9767 204.71425,260.69799   C 208.23072,259.37931 210.90803,257.34136 212.74618,254.50421   C 214.54437,251.66706 215.46345,248.59016 215.46345,245.27349   C 215.46345,240.39839 213.70522,236.40241 210.14879,233.24558   C 206.63233,230.12871 201.03795,228.53032 193.40562,228.53032   L 160.79839,228.53032   z "
     style="fill:#000000;fill-rule:evenodd;fill-opacity:1;stroke:none;" />
</svg>
