<?xml version="1.0" encoding="UTF-8" standalone="no"?>
<svg
   xmlns:dc="http://purl.org/dc/elements/1.1/"
   xmlns:cc="http://creativecommons.org/ns#"
   xmlns:rdf="http://www.w3.org/1999/02/22-rdf-syntax-ns#"
   xmlns:svg="http://www.w3.org/2000/svg"
   xmlns="http://www.w3.org/2000/svg"
   id="svg13"
   height="116.06mm"
   width="135.35001mm"
   version="1.0">
  <metadata
     id="metadata17">
    <rdf:RDF>
      <cc:Work
         rdf:about="">
        <dc:format>image/svg+xml</dc:format>
        <dc:type
           rdf:resource="http://purl.org/dc/dcmitype/StillImage" />
      </cc:Work>
    </rdf:RDF>
  </metadata>
  <defs
     id="defs3">
    <pattern
       y="0"
       x="0"
       height="6"
       width="6"
       patternUnits="userSpaceOnUse"
       id="EMFhbasepattern" />
  </defs>
  <path
     id="path5"
     d="  M 337.26104,384.25381   C 457.14056,384.25381 457.14056,187.6514 337.26104,187.6514   C 337.26104,54.345381 174.2249,54.345381 174.2249,187.6514   C 54.345381,187.6514 54.345381,384.25381 174.2249,384.25381   z "
     style="fill:#ffff80;fill-rule:evenodd;fill-opacity:1;stroke:none;" />
  <path
     id="path7"
     d="  M 337.26104,384.25381   C 457.14056,384.25381 457.14056,187.6514 337.26104,187.6514   C 337.26104,54.345381 174.2249,54.345381 174.2249,187.6514   C 54.345381,187.6514 54.345381,384.25381 174.2249,384.25381  "
     style="fill:none;stroke:#000000;stroke-width:9.5903616px;stroke-linecap:butt;stroke-linejoin:miter;stroke-miterlimit:10;stroke-dasharray:none;stroke-opacity:1;" />
  <path
     id="path9"
     d="  M 294.14437,157.36185   L 307.77068,157.36185   L 307.77068,216.86205   C 307.77068,227.21164 306.61184,235.44337 304.25421,241.51727   C 301.93654,247.63112 297.7008,252.58614 291.58694,256.38233   C 285.47309,260.21847 277.48112,262.09658 267.53112,262.09658   C 257.9008,262.09658 249.98875,260.45823 243.8749,257.14156   C 237.72108,253.8249 233.36546,248.98976 230.72811,242.6761   C 228.09076,236.40241 226.77209,227.77108 226.77209,216.86205   L 226.77209,157.36185   L 240.39839,157.36185   L 240.39839,216.82209   C 240.39839,225.77309 241.23755,232.36646 242.91586,236.60221   C 244.59417,240.83795 247.43132,244.0747 251.46727,246.39237   C 255.54317,248.67008 260.49819,249.82891 266.33233,249.82891   C 276.36225,249.82891 283.51506,247.5512 287.7508,242.99578   C 292.0265,238.48032 294.14437,229.72911 294.14437,216.82209   z "
     style="fill:#000000;fill-rule:evenodd;fill-opacity:1;stroke:none;" />
  <path
     id="path11"
     d="  M 243.4753,365.91224   L 243.4753,321.2771   L 249.38935,321.2771   L 249.38935,339.61867   L 272.60602,339.61867   L 272.60602,321.2771   L 278.48012,321.2771   L 278.48012,365.91224   L 272.60602,365.91224   L 272.60602,344.85341   L 249.38935,344.85341   L 249.38935,365.91224   z "
     style="fill:#000000;fill-rule:evenodd;fill-opacity:1;stroke:none;" />
</svg>
