<?xml version="1.0" encoding="UTF-8" standalone="no"?>
<svg
   xmlns:dc="http://purl.org/dc/elements/1.1/"
   xmlns:cc="http://creativecommons.org/ns#"
   xmlns:rdf="http://www.w3.org/1999/02/22-rdf-syntax-ns#"
   xmlns:svg="http://www.w3.org/2000/svg"
   xmlns="http://www.w3.org/2000/svg"
   id="svg11"
   height="125.53mm"
   width="95.75mm"
   version="1.0">
  <metadata
     id="metadata15">
    <rdf:RDF>
      <cc:Work
         rdf:about="">
        <dc:format>image/svg+xml</dc:format>
        <dc:type
           rdf:resource="http://purl.org/dc/dcmitype/StillImage" />
      </cc:Work>
    </rdf:RDF>
  </metadata>
  <defs
     id="defs3">
    <pattern
       y="0"
       x="0"
       height="6"
       width="6"
       patternUnits="userSpaceOnUse"
       id="EMFhbasepattern" />
  </defs>
  <path
     id="path5"
     d="  M 307.53092,420.05783   C 307.53092,54.665059 54.345381,54.665059 54.345381,420.05783   z "
     style="fill:#80e0ff;fill-rule:evenodd;fill-opacity:1;stroke:none;" />
  <path
     id="path7"
     d="  M 307.53092,420.05783   C 307.53092,54.665059 54.345381,54.665059 54.345381,420.05783  "
     style="fill:none;stroke:#000000;stroke-width:9.5903616px;stroke-linecap:butt;stroke-linejoin:miter;stroke-miterlimit:10;stroke-dasharray:none;stroke-opacity:1;" />
  <path
     id="path9"
     d="  M 152.16707,320.11827   L 152.16707,217.14176   L 190.80823,217.14176   C 198.68032,217.18172 204.99397,218.22068 209.74919,220.29859   C 214.50441,222.3765 218.22068,225.57329 220.89799,229.92891   C 223.61526,234.24457 224.93393,238.76004 224.93393,243.51526   C 224.93393,247.91084 223.73514,252.06666 221.37751,255.94277   C 218.97992,259.81887 215.38353,262.9757 210.54839,265.33333   C 216.78213,267.17148 221.57731,270.28835 224.89397,274.68393   C 228.2506,279.07951 229.92891,284.31425 229.92891,290.26827   C 229.92891,295.10341 228.92992,299.57891 226.89196,303.73473   C 224.85401,307.89056 222.33654,311.08734 219.33956,313.3251   C 216.34257,315.56285 212.58634,317.28112 208.03092,318.4   C 203.51546,319.55883 198.001,320.11827 191.44759,320.11827   z  M 165.79337,260.41827   L 188.051,260.41827   C 194.1249,260.41827 198.44056,260.01867 201.07791,259.21947   C 204.51445,258.22048 207.1518,256.50221 208.91004,254.10461   C 210.66827,251.70702 211.50743,248.71004 211.50743,245.11365   C 211.50743,241.71706 210.70823,238.68012 209.06988,236.08273   C 207.43152,233.48534 205.07389,231.72711 202.03694,230.76807   C 199,229.80903 193.76526,229.32951 186.37269,229.32951   L 165.79337,229.32951   z  M 165.79337,307.97048   L 191.44759,307.97048   C 195.84317,307.97048 198.92008,307.81064 200.71827,307.49096   C 203.83514,306.93152 206.47249,306.01245 208.59036,304.69377   C 210.66827,303.3751 212.4265,301.45702 213.78514,298.97951   C 215.14377,296.46204 215.82309,293.58494 215.82309,290.26827   C 215.82309,286.43212 214.82409,283.11546 212.86606,280.27831   C 210.90803,277.44116 208.1508,275.44317 204.67429,274.32429   C 201.19779,273.16546 196.16285,272.60602 189.60944,272.56606   L 165.79337,272.56606   z "
     style="fill:#000000;fill-rule:evenodd;fill-opacity:1;stroke:none;" />
</svg>
