<?xml version="1.0" encoding="UTF-8" standalone="no"?>
<svg
   xmlns:dc="http://purl.org/dc/elements/1.1/"
   xmlns:cc="http://creativecommons.org/ns#"
   xmlns:rdf="http://www.w3.org/1999/02/22-rdf-syntax-ns#"
   xmlns:svg="http://www.w3.org/2000/svg"
   xmlns="http://www.w3.org/2000/svg"
   id="svg13"
   height="89.669998mm"
   width="120.11mm"
   version="1.0">
  <metadata
     id="metadata17">
    <rdf:RDF>
      <cc:Work
         rdf:about="">
        <dc:format>image/svg+xml</dc:format>
        <dc:type
           rdf:resource="http://purl.org/dc/dcmitype/StillImage" />
      </cc:Work>
    </rdf:RDF>
  </metadata>
  <defs
     id="defs3">
    <pattern
       y="0"
       x="0"
       height="6"
       width="6"
       patternUnits="userSpaceOnUse"
       id="EMFhbasepattern" />
  </defs>
  <path
     id="path5"
     d="  M 54.345381,54.345381   L 54.345381,284.51405   L 399.59839,284.51405   L 399.59839,54.345381   L 54.345381,54.345381   z "
     style="fill:#80e0ff;fill-rule:evenodd;fill-opacity:1;stroke:none;" />
  <path
     id="path7"
     d="  M 54.345381,54.345381   L 399.59839,54.345381   L 399.59839,284.51405   L 54.345381,284.51405   z "
     style="fill:none;stroke:#000000;stroke-width:9.5903616px;stroke-linecap:butt;stroke-linejoin:miter;stroke-miterlimit:10;stroke-dasharray:none;stroke-opacity:1;" />
  <path
     id="path9"
     d="  M 226.97188,169.42972   L 174.2249,145.45381   C 121.47791,121.47791 121.47791,217.38152 174.2249,193.40562   L 226.97188,169.42972   L 279.71887,145.45381   C 332.46586,121.47791 332.46586,217.38152 279.71887,193.40562   L 226.97188,169.42972   z "
     style="fill:#000000;fill-rule:evenodd;fill-opacity:1;stroke:none;" />
  <path
     id="path11"
     d="  M 210.10883,119.47992   L 210.10883,67.971686   L 232.9259,67.971686   C 237.52128,68.011646 240.99779,68.451204 243.39538,69.37028   C 245.79297,70.289356 247.71104,71.92771 249.10963,74.28534   C 250.54819,76.603011 251.26747,79.2004 251.26747,82.037549   C 251.26747,85.713854 250.06867,88.790762 247.71104,91.268272   C 245.35341,93.785742 241.71706,95.384135 236.76204,96.063452   C 238.56024,96.902609 239.91887,97.781725 240.87791,98.620882   C 242.8759,100.45903 244.75401,102.73675 246.51225,105.45401   L 255.50321,119.47992   L 246.91184,119.47992   L 240.11867,108.77068   C 238.12068,105.69377 236.48233,103.29618 235.20361,101.65783   C 233.88494,100.01948 232.7261,98.900601 231.72711,98.221284   C 230.68815,97.581926 229.68915,97.102408 228.61024,96.862649   C 227.851,96.70281 226.57229,96.62289 224.81405,96.62289   L 216.902,96.62289   L 216.902,119.47992   z  M 216.902,90.708834   L 231.56727,90.708834   C 234.68413,90.708834 237.12168,90.389155 238.87992,89.749798   C 240.63815,89.11044 241.95682,88.071485 242.8759,86.67289   C 243.79498,85.234336 244.23453,83.715862 244.23453,82.037549   C 244.23453,79.599999 243.35542,77.602007 241.59719,76.043573   C 239.83895,74.485139 237.04176,73.685943 233.20562,73.685943   L 216.902,73.685943   z "
     style="fill:#000000;fill-rule:evenodd;fill-opacity:1;stroke:none;" />
</svg>
