<?xml version="1.0" encoding="UTF-8" standalone="no"?>
<svg
   xmlns:dc="http://purl.org/dc/elements/1.1/"
   xmlns:cc="http://creativecommons.org/ns#"
   xmlns:rdf="http://www.w3.org/1999/02/22-rdf-syntax-ns#"
   xmlns:svg="http://www.w3.org/2000/svg"
   xmlns="http://www.w3.org/2000/svg"
   id="svg13"
   height="116.06mm"
   width="135.35001mm"
   version="1.0">
  <metadata
     id="metadata17">
    <rdf:RDF>
      <cc:Work
         rdf:about="">
        <dc:format>image/svg+xml</dc:format>
        <dc:type
           rdf:resource="http://purl.org/dc/dcmitype/StillImage" />
      </cc:Work>
    </rdf:RDF>
  </metadata>
  <defs
     id="defs3">
    <pattern
       y="0"
       x="0"
       height="6"
       width="6"
       patternUnits="userSpaceOnUse"
       id="EMFhbasepattern" />
  </defs>
  <path
     id="path5"
     d="  M 337.26104,384.25381   C 457.14056,384.25381 457.14056,187.6514 337.26104,187.6514   C 337.26104,54.345381 174.2249,54.345381 174.2249,187.6514   C 54.345381,187.6514 54.345381,384.25381 174.2249,384.25381   z "
     style="fill:#ffff80;fill-rule:evenodd;fill-opacity:1;stroke:none;" />
  <path
     id="path7"
     d="  M 337.26104,384.25381   C 457.14056,384.25381 457.14056,187.6514 337.26104,187.6514   C 337.26104,54.345381 174.2249,54.345381 174.2249,187.6514   C 54.345381,187.6514 54.345381,384.25381 174.2249,384.25381  "
     style="fill:none;stroke:#000000;stroke-width:9.5903616px;stroke-linecap:butt;stroke-linejoin:miter;stroke-miterlimit:10;stroke-dasharray:none;stroke-opacity:1;" />
  <path
     id="path9"
     d="  M 171.38775,272.80582   L 179.13996,272.1265   C 179.4996,275.24337 180.33875,277.76084 181.65743,279.75883   C 183.01606,281.71686 185.09397,283.31526 187.89116,284.55401   C 190.68835,285.75281 193.84518,286.39216 197.36164,286.39216   C 200.47851,286.39216 203.23574,285.91265 205.63333,284.99357   C 208.03092,284.07449 209.78915,282.79578 210.94799,281.19739   C 212.14678,279.55903 212.70622,277.8008 212.70622,275.88273   C 212.70622,273.96465 212.14678,272.24638 211.02791,270.80783   C 209.90903,269.36927 208.03092,268.13052 205.47349,267.17148   C 203.79518,266.53212 200.11887,265.53313 194.44458,264.13453   C 188.77028,262.7759 184.81425,261.49718 182.53654,260.29839   C 179.57952,258.73996 177.38172,256.82188 175.94317,254.54417   C 174.50462,252.26646 173.78534,249.66907 173.78534,246.83192   C 173.78534,243.71506 174.66446,240.83795 176.42269,238.12068   C 178.18092,235.40341 180.77831,233.3255 184.1749,231.9269   C 187.57148,230.52831 191.36767,229.80903 195.52349,229.80903   C 200.07891,229.80903 204.11486,230.56827 207.63132,232.04678   C 211.14779,233.5253 213.8251,235.68313 215.70321,238.56024   C 217.58132,241.39739 218.58032,244.67409 218.74016,248.27048   L 210.90803,248.86988   C 210.46847,244.95381 209.06988,242.03674 206.63233,240.03875   C 204.19478,238.04076 200.59839,237.04176 195.84317,237.04176   C 190.88815,237.04176 187.29176,237.92088 185.05401,239.75903   C 182.7763,241.55723 181.65743,243.75502 181.65743,246.31245   C 181.65743,248.51024 182.45662,250.34839 184.05502,251.78694   C 185.61345,253.2255 189.72931,254.70401 196.36265,256.18253   C 203.03594,257.701 207.59136,259.01967 210.06887,260.13855   C 213.66526,261.7769 216.30261,263.89478 218.02088,266.41225   C 219.73915,268.96967 220.57831,271.88674 220.57831,275.20341   C 220.57831,278.52008 219.65923,281.59698 217.78112,284.51405   C 215.90301,287.43112 213.18574,289.66887 209.66927,291.30722   C 206.11285,292.90562 202.15682,293.70482 197.76124,293.70482   C 192.16686,293.70482 187.49156,292.90562 183.69538,291.26726   C 179.89919,289.62891 176.94217,287.19136 174.78433,283.91465   C 172.66646,280.63795 171.50763,276.96164 171.38775,272.80582   z  M 229.28955,262.5761   C 229.28955,252.30642 232.04678,244.27449 237.52128,238.48032   C 243.03574,232.68614 250.14859,229.76907 258.85984,229.76907   C 264.57409,229.76907 269.68895,231.12771 274.28433,233.88494   C 278.87971,236.60221 282.35622,240.39839 284.75381,245.27349   C 287.1514,250.14859 288.3502,255.66305 288.3502,261.85682   C 288.3502,268.13052 287.11144,273.7249 284.55401,278.67992   C 282.03654,283.63494 278.44016,287.3512 273.80482,289.90863   C 269.16947,292.46606 264.17449,293.70482 258.81988,293.70482   C 252.98574,293.70482 247.79096,292.30622 243.23554,289.50903   C 238.64016,286.71184 235.16365,282.8757 232.80602,278.0006   C 230.44839,273.1255 229.28955,268.01064 229.28955,262.5761   z  M 237.72108,262.69598   C 237.72108,270.12851 239.71907,276.00261 243.71506,280.27831   C 247.71104,284.59397 252.74598,286.71184 258.77992,286.71184   C 264.93373,286.71184 270.00863,284.55401 273.96465,280.23835   C 277.96064,275.92269 279.91867,269.76887 279.91867,261.81686   C 279.91867,256.78192 279.07951,252.38634 277.4012,248.63012   C 275.68293,244.87389 273.20542,241.99678 269.92871,239.91887   C 266.652,237.84096 262.9757,236.802 258.8998,236.802   C 253.10562,236.802 248.1506,238.8 243.95482,242.79598   C 239.79899,246.752 237.72108,253.38534 237.72108,262.69598   z  M 299.29919,292.66586   L 299.29919,230.88795   L 341.01726,230.88795   L 341.01726,238.16064   L 307.49096,238.16064   L 307.49096,257.3014   L 336.5018,257.3014   L 336.5018,264.57409   L 307.49096,264.57409   L 307.49096,292.66586   z "
     style="fill:#000000;fill-rule:evenodd;fill-opacity:1;stroke:none;" />
  <path
     id="path11"
     d="  M 171.38775,272.80582   L 179.13996,272.1265   C 179.4996,275.24337 180.33875,277.76084 181.65743,279.75883   C 183.01606,281.71686 185.09397,283.31526 187.89116,284.55401   C 190.68835,285.75281 193.84518,286.39216 197.36164,286.39216   C 200.47851,286.39216 203.23574,285.91265 205.63333,284.99357   C 208.03092,284.07449 209.78915,282.79578 210.94799,281.19739   C 212.14678,279.55903 212.70622,277.8008 212.70622,275.88273   C 212.70622,273.96465 212.14678,272.24638 211.02791,270.80783   C 209.90903,269.36927 208.03092,268.13052 205.47349,267.17148   C 203.79518,266.53212 200.11887,265.53313 194.44458,264.13453   C 188.77028,262.7759 184.81425,261.49718 182.53654,260.29839   C 179.57952,258.73996 177.38172,256.82188 175.94317,254.54417   C 174.50462,252.26646 173.78534,249.66907 173.78534,246.83192   C 173.78534,243.71506 174.66446,240.83795 176.42269,238.12068   C 178.18092,235.40341 180.77831,233.3255 184.1749,231.9269   C 187.57148,230.52831 191.36767,229.80903 195.52349,229.80903   C 200.07891,229.80903 204.11486,230.56827 207.63132,232.04678   C 211.14779,233.5253 213.8251,235.68313 215.70321,238.56024   C 217.58132,241.39739 218.58032,244.67409 218.74016,248.27048   L 210.90803,248.86988   C 210.46847,244.95381 209.06988,242.03674 206.63233,240.03875   C 204.19478,238.04076 200.59839,237.04176 195.84317,237.04176   C 190.88815,237.04176 187.29176,237.92088 185.05401,239.75903   C 182.7763,241.55723 181.65743,243.75502 181.65743,246.31245   C 181.65743,248.51024 182.45662,250.34839 184.05502,251.78694   C 185.61345,253.2255 189.72931,254.70401 196.36265,256.18253   C 203.03594,257.701 207.59136,259.01967 210.06887,260.13855   C 213.66526,261.7769 216.30261,263.89478 218.02088,266.41225   C 219.73915,268.96967 220.57831,271.88674 220.57831,275.20341   C 220.57831,278.52008 219.65923,281.59698 217.78112,284.51405   C 215.90301,287.43112 213.18574,289.66887 209.66927,291.30722   C 206.11285,292.90562 202.15682,293.70482 197.76124,293.70482   C 192.16686,293.70482 187.49156,292.90562 183.69538,291.26726   C 179.89919,289.62891 176.94217,287.19136 174.78433,283.91465   C 172.66646,280.63795 171.50763,276.96164 171.38775,272.80582   z  M 229.28955,262.5761   C 229.28955,252.30642 232.04678,244.27449 237.52128,238.48032   C 243.03574,232.68614 250.14859,229.76907 258.85984,229.76907   C 264.57409,229.76907 269.68895,231.12771 274.28433,233.88494   C 278.87971,236.60221 282.35622,240.39839 284.75381,245.27349   C 287.1514,250.14859 288.3502,255.66305 288.3502,261.85682   C 288.3502,268.13052 287.11144,273.7249 284.55401,278.67992   C 282.03654,283.63494 278.44016,287.3512 273.80482,289.90863   C 269.16947,292.46606 264.17449,293.70482 258.81988,293.70482   C 252.98574,293.70482 247.79096,292.30622 243.23554,289.50903   C 238.64016,286.71184 235.16365,282.8757 232.80602,278.0006   C 230.44839,273.1255 229.28955,268.01064 229.28955,262.5761   z  M 237.72108,262.69598   C 237.72108,270.12851 239.71907,276.00261 243.71506,280.27831   C 247.71104,284.59397 252.74598,286.71184 258.77992,286.71184   C 264.93373,286.71184 270.00863,284.55401 273.96465,280.23835   C 277.96064,275.92269 279.91867,269.76887 279.91867,261.81686   C 279.91867,256.78192 279.07951,252.38634 277.4012,248.63012   C 275.68293,244.87389 273.20542,241.99678 269.92871,239.91887   C 266.652,237.84096 262.9757,236.802 258.8998,236.802   C 253.10562,236.802 248.1506,238.8 243.95482,242.79598   C 239.79899,246.752 237.72108,253.38534 237.72108,262.69598   z  M 299.29919,292.66586   L 299.29919,230.88795   L 341.01726,230.88795   L 341.01726,238.16064   L 307.49096,238.16064   L 307.49096,257.3014   L 336.5018,257.3014   L 336.5018,264.57409   L 307.49096,264.57409   L 307.49096,292.66586   z "
     style="fill:none;stroke:#000000;stroke-width:0.95903611px;stroke-linecap:butt;stroke-linejoin:miter;stroke-miterlimit:10;stroke-dasharray:none;stroke-opacity:1;" />
</svg>
