<?xml version="1.0" encoding="UTF-8" standalone="no"?>
<svg
   xmlns:dc="http://purl.org/dc/elements/1.1/"
   xmlns:cc="http://creativecommons.org/ns#"
   xmlns:rdf="http://www.w3.org/1999/02/22-rdf-syntax-ns#"
   xmlns:svg="http://www.w3.org/2000/svg"
   xmlns="http://www.w3.org/2000/svg"
   id="svg11"
   height="101.85mm"
   width="95.75mm"
   version="1.0">
  <metadata
     id="metadata15">
    <rdf:RDF>
      <cc:Work
         rdf:about="">
        <dc:format>image/svg+xml</dc:format>
        <dc:type
           rdf:resource="http://purl.org/dc/dcmitype/StillImage" />
      </cc:Work>
    </rdf:RDF>
  </metadata>
  <defs
     id="defs3">
    <pattern
       y="0"
       x="0"
       height="6"
       width="6"
       patternUnits="userSpaceOnUse"
       id="EMFhbasepattern" />
  </defs>
  <path
     id="path5"
     d="  M 54.345381,54.345381   L 54.345381,330.54779   L 307.53092,330.54779   L 307.53092,54.345381   L 54.345381,54.345381   z "
     style="fill:#aaffaa;fill-rule:evenodd;fill-opacity:1;stroke:none;" />
  <path
     id="path7"
     d="  M 54.345381,330.54779   L 54.345381,54.345381   L 307.53092,54.345381   L 307.53092,330.54779  "
     style="fill:none;stroke:#000000;stroke-width:9.5903616px;stroke-linecap:butt;stroke-linejoin:miter;stroke-miterlimit:10;stroke-dasharray:none;stroke-opacity:1;" />
  <path
     id="path9"
     d="  M 152.7265,230.60823   L 152.7265,127.63173   L 191.56747,127.63173   C 198.4006,127.67168 203.63534,127.99136 207.23172,128.63072   C 212.30662,129.46988 216.54237,131.10823 219.93895,133.46586   C 223.3755,135.82349 226.13273,139.14016 228.21064,143.3759   C 230.28855,147.6516 231.32751,152.32691 231.32751,157.44176   C 231.32751,166.19297 228.57028,173.6255 222.9759,179.65944   C 217.42148,185.73333 207.3516,188.77028 192.76626,188.77028   L 166.35281,188.77028   L 166.35281,230.60823   z  M 166.35281,176.62249   L 192.96606,176.62249   C 201.79719,176.62249 208.03092,174.98413 211.74719,171.70743   C 215.42349,168.43072 217.3016,163.79538 217.3016,157.84136   C 217.3016,153.56566 216.18273,149.8494 214.0249,146.81245   C 211.82711,143.73554 208.98996,141.69759 205.43353,140.69859   C 203.11586,140.09919 198.88012,139.81948 192.68634,139.81948   L 166.35281,139.81948   z "
     style="fill:#000000;fill-rule:evenodd;fill-opacity:1;stroke:none;" />
</svg>
