<?xml version="1.0" encoding="UTF-8" standalone="no"?>
<svg
   xmlns:dc="http://purl.org/dc/elements/1.1/"
   xmlns:cc="http://creativecommons.org/ns#"
   xmlns:rdf="http://www.w3.org/1999/02/22-rdf-syntax-ns#"
   xmlns:svg="http://www.w3.org/2000/svg"
   xmlns="http://www.w3.org/2000/svg"
   id="svg13"
   height="125.53mm"
   width="95.75mm"
   version="1.0">
  <metadata
     id="metadata17">
    <rdf:RDF>
      <cc:Work
         rdf:about="">
        <dc:format>image/svg+xml</dc:format>
        <dc:type
           rdf:resource="http://purl.org/dc/dcmitype/StillImage" />
      </cc:Work>
    </rdf:RDF>
  </metadata>
  <defs
     id="defs3">
    <pattern
       y="0"
       x="0"
       height="6"
       width="6"
       patternUnits="userSpaceOnUse"
       id="EMFhbasepattern" />
  </defs>
  <path
     id="path5"
     d="  M 307.53092,420.05783   C 307.53092,54.665059 54.345381,54.665059 54.345381,420.05783   z "
     style="fill:#80e0ff;fill-rule:evenodd;fill-opacity:1;stroke:none;" />
  <path
     id="path7"
     d="  M 307.53092,420.05783   C 307.53092,54.665059 54.345381,54.665059 54.345381,420.05783  "
     style="fill:none;stroke:#000000;stroke-width:9.5903616px;stroke-linecap:butt;stroke-linejoin:miter;stroke-miterlimit:10;stroke-dasharray:none;stroke-opacity:1;" />
  <path
     id="path9"
     d="  M 220.45843,252.38634   L 234.08474,255.82289   C 231.20763,267.01164 226.09277,275.56305 218.66024,281.43714   C 211.22771,287.31124 202.15682,290.22831 191.44759,290.22831   C 180.33875,290.22831 171.30783,287.99056 164.35482,283.4751   C 157.4018,278.95963 152.12711,272.40622 148.49076,263.85482   C 144.85442,255.26345 143.05622,246.07269 143.05622,236.24257   C 143.05622,225.49337 145.09417,216.14277 149.21004,208.19076   C 153.28594,200.19879 159.12008,194.1249 166.67249,189.96907   C 174.26486,185.85321 182.5765,183.7753 191.64739,183.7753   C 201.95703,183.7753 210.62831,186.37269 217.66124,191.64739   C 224.65421,196.88213 229.56927,204.23474 232.3265,213.74518   L 218.9,216.902   C 216.50241,209.42952 213.06586,203.95502 208.51044,200.55843   C 203.95502,197.12188 198.24076,195.40361 191.36767,195.40361   C 183.45562,195.40361 176.86225,197.32168 171.54759,201.11787   C 166.23293,204.91405 162.4767,209.98895 160.31887,216.38253   C 158.16104,222.7761 157.08213,229.36947 157.08213,236.16265   C 157.08213,244.91385 158.36084,252.54618 160.91827,259.09959   C 163.4757,265.61305 167.43172,270.52811 172.8263,273.7249   C 178.22088,276.96164 184.05502,278.6 190.32871,278.6   C 197.96104,278.6 204.43454,276.4022 209.70923,271.96666   C 214.98393,267.57108 218.58032,261.05763 220.45843,252.38634   z "
     style="fill:#000000;fill-rule:evenodd;fill-opacity:1;stroke:none;" />
  <path
     id="path11"
     d="  M 171.14799,401.71626   L 171.14799,357.08112   L 177.02209,357.08112   L 177.02209,396.44156   L 199,396.44156   L 199,401.71626   z "
     style="fill:#000000;fill-rule:evenodd;fill-opacity:1;stroke:none;" />
</svg>
