<?xml version="1.0" encoding="UTF-8" standalone="no"?>
<svg
   xmlns:dc="http://purl.org/dc/elements/1.1/"
   xmlns:cc="http://creativecommons.org/ns#"
   xmlns:rdf="http://www.w3.org/1999/02/22-rdf-syntax-ns#"
   xmlns:svg="http://www.w3.org/2000/svg"
   xmlns="http://www.w3.org/2000/svg"
   id="svg11"
   height="101.85mm"
   width="95.75mm"
   version="1.0">
  <metadata
     id="metadata15">
    <rdf:RDF>
      <cc:Work
         rdf:about="">
        <dc:format>image/svg+xml</dc:format>
        <dc:type
           rdf:resource="http://purl.org/dc/dcmitype/StillImage" />
      </cc:Work>
    </rdf:RDF>
  </metadata>
  <defs
     id="defs3">
    <pattern
       y="0"
       x="0"
       height="6"
       width="6"
       patternUnits="userSpaceOnUse"
       id="EMFhbasepattern" />
  </defs>
  <path
     id="path5"
     d="  M 54.345381,54.345381   L 54.345381,330.54779   L 307.53092,330.54779   L 307.53092,54.345381   L 54.345381,54.345381   z "
     style="fill:#aaffaa;fill-rule:evenodd;fill-opacity:1;stroke:none;" />
  <path
     id="path7"
     d="  M 54.345381,330.54779   L 54.345381,54.345381   L 307.53092,54.345381   L 307.53092,330.54779  "
     style="fill:none;stroke:#000000;stroke-width:9.5903616px;stroke-linecap:butt;stroke-linejoin:miter;stroke-miterlimit:10;stroke-dasharray:none;stroke-opacity:1;" />
  <path
     id="path9"
     d="  M 220.45843,194.5245   L 234.08474,197.96104   C 231.20763,209.1498 226.09277,217.7012 218.66024,223.5753   C 211.22771,229.44939 202.15682,232.36646 191.44759,232.36646   C 180.33875,232.36646 171.30783,230.12871 164.35482,225.61325   C 157.4018,221.09779 152.12711,214.54437 148.49076,205.99297   C 144.85442,197.4016 143.05622,188.21084 143.05622,178.38072   C 143.05622,167.63152 145.09417,158.28092 149.21004,150.32891   C 153.28594,142.33695 159.12008,136.26305 166.67249,132.10723   C 174.26486,127.99136 182.5765,125.91345 191.64739,125.91345   C 201.95703,125.91345 210.62831,128.51084 217.66124,133.78554   C 224.65421,139.02028 229.56927,146.37289 232.3265,155.88333   L 218.9,159.04016   C 216.50241,151.56767 213.06586,146.09317 208.51044,142.69658   C 203.95502,139.26004 198.24076,137.54177 191.36767,137.54177   C 183.45562,137.54177 176.86225,139.45984 171.54759,143.25602   C 166.23293,147.05221 162.4767,152.12711 160.31887,158.52068   C 158.16104,164.91425 157.08213,171.50763 157.08213,178.3008   C 157.08213,187.05201 158.36084,194.68433 160.91827,201.23775   C 163.4757,207.7512 167.43172,212.66626 172.8263,215.86305   C 178.22088,219.0998 184.05502,220.73815 190.32871,220.73815   C 197.96104,220.73815 204.43454,218.54036 209.70923,214.10482   C 214.98393,209.70923 218.58032,203.19578 220.45843,194.5245   z "
     style="fill:#000000;fill-rule:evenodd;fill-opacity:1;stroke:none;" />
</svg>
