<?xml version="1.0" encoding="UTF-8" standalone="no"?>
<svg
   xmlns:dc="http://purl.org/dc/elements/1.1/"
   xmlns:cc="http://creativecommons.org/ns#"
   xmlns:rdf="http://www.w3.org/1999/02/22-rdf-syntax-ns#"
   xmlns:svg="http://www.w3.org/2000/svg"
   xmlns="http://www.w3.org/2000/svg"
   id="svg11"
   height="101.85mm"
   width="95.75mm"
   version="1.0">
  <metadata
     id="metadata15">
    <rdf:RDF>
      <cc:Work
         rdf:about="">
        <dc:format>image/svg+xml</dc:format>
        <dc:type
           rdf:resource="http://purl.org/dc/dcmitype/StillImage" />
      </cc:Work>
    </rdf:RDF>
  </metadata>
  <defs
     id="defs3">
    <pattern
       y="0"
       x="0"
       height="6"
       width="6"
       patternUnits="userSpaceOnUse"
       id="EMFhbasepattern" />
  </defs>
  <path
     id="path5"
     d="  M 54.345381,54.345381   L 54.345381,330.54779   L 307.53092,330.54779   L 307.53092,54.345381   L 54.345381,54.345381   z "
     style="fill:#aaffaa;fill-rule:evenodd;fill-opacity:1;stroke:none;" />
  <path
     id="path7"
     d="  M 54.345381,330.54779   L 54.345381,54.345381   L 307.53092,54.345381   L 307.53092,330.54779  "
     style="fill:none;stroke:#000000;stroke-width:9.5903616px;stroke-linecap:butt;stroke-linejoin:miter;stroke-miterlimit:10;stroke-dasharray:none;stroke-opacity:1;" />
  <path
     id="path9"
     d="  M 147.17209,230.60823   L 147.17209,127.63173   L 192.84618,127.63173   C 202.03694,127.67168 208.98996,128.59076 213.78514,130.42891   C 218.54036,132.26707 222.3765,135.54377 225.21365,140.21907   C 228.09076,144.89438 229.52931,150.08915 229.52931,155.76345   C 229.52931,163.0761 227.17168,169.22992 222.41646,174.2249   C 217.7012,179.25984 210.38855,182.41666 200.51847,183.7753   C 204.11486,185.49357 206.87209,187.21184 208.71024,188.89016   C 212.70622,192.56646 216.46245,197.12188 220.01887,202.59638   L 237.96084,230.60823   L 220.81807,230.60823   L 207.19176,209.18976   C 203.19578,203.03594 199.91907,198.28072 197.36164,195.00401   C 194.76425,191.72731 192.44658,189.4496 190.40863,188.13092   C 188.37068,186.81225 186.33273,185.89317 184.21486,185.37369   C 182.65642,185.05401 180.13895,184.89417 176.62249,184.89417   L 160.79839,184.89417   L 160.79839,230.60823   z  M 160.79839,173.10602   L 190.08895,173.10602   C 196.32269,173.10602 201.19779,172.46666 204.71425,171.18795   C 208.23072,169.86927 210.90803,167.83132 212.74618,164.99417   C 214.54437,162.15703 215.46345,159.08012 215.46345,155.76345   C 215.46345,150.88835 213.70522,146.89237 210.14879,143.73554   C 206.63233,140.61867 201.03795,139.02028 193.40562,139.02028   L 160.79839,139.02028   z "
     style="fill:#000000;fill-rule:evenodd;fill-opacity:1;stroke:none;" />
</svg>
