<?xml version="1.0" encoding="UTF-8" standalone="no"?>
<svg
   xmlns:dc="http://purl.org/dc/elements/1.1/"
   xmlns:cc="http://creativecommons.org/ns#"
   xmlns:rdf="http://www.w3.org/1999/02/22-rdf-syntax-ns#"
   xmlns:svg="http://www.w3.org/2000/svg"
   xmlns="http://www.w3.org/2000/svg"
   id="svg11"
   height="116.06mm"
   width="135.35001mm"
   version="1.0">
  <metadata
     id="metadata15">
    <rdf:RDF>
      <cc:Work
         rdf:about="">
        <dc:format>image/svg+xml</dc:format>
        <dc:type
           rdf:resource="http://purl.org/dc/dcmitype/StillImage" />
      </cc:Work>
    </rdf:RDF>
  </metadata>
  <defs
     id="defs3">
    <pattern
       y="0"
       x="0"
       height="6"
       width="6"
       patternUnits="userSpaceOnUse"
       id="EMFhbasepattern" />
  </defs>
  <path
     id="path5"
     d="  M 337.26104,384.25381   C 457.14056,384.25381 457.14056,187.6514 337.26104,187.6514   C 337.26104,54.345381 174.2249,54.345381 174.2249,187.6514   C 54.345381,187.6514 54.345381,384.25381 174.2249,384.25381   z "
     style="fill:#ffff80;fill-rule:evenodd;fill-opacity:1;stroke:none;" />
  <path
     id="path7"
     d="  M 337.26104,384.25381   C 457.14056,384.25381 457.14056,187.6514 337.26104,187.6514   C 337.26104,54.345381 174.2249,54.345381 174.2249,187.6514   C 54.345381,187.6514 54.345381,384.25381 174.2249,384.25381  "
     style="fill:none;stroke:#000000;stroke-width:9.5903616px;stroke-linecap:butt;stroke-linejoin:miter;stroke-miterlimit:10;stroke-dasharray:none;stroke-opacity:1;" />
  <path
     id="path9"
     d="  M 295.26325,248.23052   L 308.88955,251.66706   C 306.01245,262.85582 300.89759,271.40722 293.46506,277.28132   C 286.03253,283.15542 276.96164,286.07249 266.25241,286.07249   C 255.14357,286.07249 246.11265,283.83473 239.15964,279.31927   C 232.20662,274.80381 226.93192,268.2504 223.29558,259.69899   C 219.65923,251.10763 217.86104,241.91686 217.86104,232.08674   C 217.86104,221.33755 219.89899,211.98694 224.01486,204.03494   C 228.09076,196.04297 233.9249,189.96907 241.47731,185.81325   C 249.06968,181.69739 257.38132,179.61948 266.4522,179.61948   C 276.76184,179.61948 285.43313,182.21686 292.46606,187.49156   C 299.45903,192.7263 304.37409,200.07891 307.13132,209.58935   L 293.70482,212.74618   C 291.30722,205.27369 287.87068,199.79919 283.31526,196.40261   C 278.75984,192.96606 273.04558,191.24779 266.17249,191.24779   C 258.26044,191.24779 251.66706,193.16586 246.35241,196.96205   C 241.03775,200.75823 237.28152,205.83313 235.12369,212.2267   C 232.96586,218.62028 231.88694,225.21365 231.88694,232.00682   C 231.88694,240.75803 233.16566,248.39036 235.72309,254.94377   C 238.28052,261.45723 242.23654,266.37229 247.63112,269.56907   C 253.0257,272.80582 258.85984,274.44417 265.13353,274.44417   C 272.76586,274.44417 279.23935,272.24638 284.51405,267.81084   C 289.78875,263.41526 293.38514,256.9018 295.26325,248.23052   z "
     style="fill:#000000;fill-rule:evenodd;fill-opacity:1;stroke:none;" />
</svg>
