<?xml version="1.0" encoding="UTF-8" standalone="no"?>
<svg
   xmlns:dc="http://purl.org/dc/elements/1.1/"
   xmlns:cc="http://creativecommons.org/ns#"
   xmlns:rdf="http://www.w3.org/1999/02/22-rdf-syntax-ns#"
   xmlns:svg="http://www.w3.org/2000/svg"
   xmlns="http://www.w3.org/2000/svg"
   id="svg13"
   height="116.73mm"
   width="116.73mm"
   version="1.0">
  <metadata
     id="metadata17">
    <rdf:RDF>
      <cc:Work
         rdf:about="">
        <dc:format>image/svg+xml</dc:format>
        <dc:type
           rdf:resource="http://purl.org/dc/dcmitype/StillImage" />
      </cc:Work>
    </rdf:RDF>
  </metadata>
  <defs
     id="defs3">
    <pattern
       y="0"
       x="0"
       height="6"
       width="6"
       patternUnits="userSpaceOnUse"
       id="EMFhbasepattern" />
  </defs>
  <path
     id="path5"
     d="  M 220.57831,386.49156   L 220.57831,386.49156   L 386.49156,220.57831   L 220.57831,54.665059   L 54.665059,220.57831   L 220.57831,386.49156   z "
     style="fill:#ff8080;fill-rule:evenodd;fill-opacity:1;stroke:none;" />
  <path
     id="path7"
     d="  M 220.57831,386.49156   L 220.57831,386.49156   L 386.49156,220.57831   L 220.57831,54.665059   L 54.665059,220.57831   L 220.57831,386.49156  "
     style="fill:none;stroke:#000000;stroke-width:9.5903616px;stroke-linecap:butt;stroke-linejoin:miter;stroke-miterlimit:10;stroke-dasharray:none;stroke-opacity:1;" />
  <path
     id="path9"
     d="  M 220.57831,220.57831   L 167.83132,196.60241   C 115.08434,172.6265 115.08434,268.53012 167.83132,244.55421   L 220.57831,220.57831   L 273.3253,196.60241   C 326.07228,172.6265 326.07228,268.53012 273.3253,244.55421   L 220.57831,220.57831   z "
     style="fill:#000000;fill-rule:evenodd;fill-opacity:1;stroke:none;" />
  <path
     id="path11"
     d="  M 203.71526,170.62851   L 203.71526,119.12028   L 226.53233,119.12028   C 231.12771,119.16024 234.60421,119.5998 237.0018,120.51887   C 239.39939,121.43795 241.31747,123.0763 242.71606,125.43393   C 244.15461,127.7516 244.87389,130.34899 244.87389,133.18614   C 244.87389,136.86245 243.6751,139.93936 241.31747,142.41687   C 238.95984,144.93434 235.32349,146.53273 230.36847,147.21205   C 232.16666,148.0512 233.5253,148.93032 234.48433,149.76948   C 236.48233,151.60763 238.36044,153.88534 240.11867,156.60261   L 249.10963,170.62851   L 240.51827,170.62851   L 233.7251,159.91927   C 231.72711,156.84237 230.08875,154.44478 228.81004,152.80642   C 227.49136,151.16807 226.33253,150.04919 225.33353,149.36988   C 224.29458,148.73052 223.29558,148.251 222.21666,148.01124   C 221.45743,147.8514 220.17871,147.77148 218.42048,147.77148   L 210.50843,147.77148   L 210.50843,170.62851   z  M 210.50843,141.85743   L 225.17369,141.85743   C 228.29056,141.85743 230.72811,141.53775 232.48634,140.89839   C 234.24457,140.25903 235.56325,139.22008 236.48233,137.82148   C 237.4014,136.38293 237.84096,134.86446 237.84096,133.18614   C 237.84096,130.74859 236.96184,128.7506 235.20361,127.19217   C 233.44538,125.63373 230.64819,124.83454 226.81204,124.83454   L 210.50843,124.83454   z "
     style="fill:#000000;fill-rule:evenodd;fill-opacity:1;stroke:none;" />
</svg>
