<?xml version="1.0" encoding="UTF-8" standalone="no"?>
<svg
   xmlns:dc="http://purl.org/dc/elements/1.1/"
   xmlns:cc="http://creativecommons.org/ns#"
   xmlns:rdf="http://www.w3.org/1999/02/22-rdf-syntax-ns#"
   xmlns:svg="http://www.w3.org/2000/svg"
   xmlns="http://www.w3.org/2000/svg"
   id="svg21"
   height="95.75mm"
   width="95.75mm"
   version="1.0">
  <metadata
     id="metadata25">
    <rdf:RDF>
      <cc:Work
         rdf:about="">
        <dc:format>image/svg+xml</dc:format>
        <dc:type
           rdf:resource="http://purl.org/dc/dcmitype/StillImage" />
      </cc:Work>
    </rdf:RDF>
  </metadata>
  <defs
     id="defs3">
    <pattern
       y="0"
       x="0"
       height="6"
       width="6"
       patternUnits="userSpaceOnUse"
       id="EMFhbasepattern" />
  </defs>
  <path
     id="path5"
     d="  M 54.345381,54.345381   L 54.345381,307.53092   L 307.53092,307.53092   L 307.53092,54.345381   L 54.345381,54.345381   z "
     style="fill:#aaffaa;fill-rule:evenodd;fill-opacity:1;stroke:none;" />
  <path
     id="path7"
     d="  M 54.345381,54.345381   L 307.53092,54.345381   L 307.53092,307.53092   L 54.345381,307.53092   z "
     style="fill:none;stroke:#000000;stroke-width:9.5903616px;stroke-linecap:butt;stroke-linejoin:miter;stroke-miterlimit:10;stroke-dasharray:none;stroke-opacity:1;" />
  <path
     id="path9"
     d="  M 163.79538,181.53755   L 163.79538,133.66566   L 211.66727,132.66666   L 211.66727,179.17992   z  M 130.46887,163.39578   L 130.58875,123.03634   L 156.48273,132.66666   L 156.48273,180.01907   C 153.5257,178.46064 130.46887,165.03413 130.46887,163.39578   z  M 134.10522,119.16024   C 147.81144,119.16024 161.51767,119.2002 175.22389,119.16024   C 180.17891,119.12028 204.19478,126.59277 206.95201,128.43092   L 198.12088,129.03032   L 162.23695,129.03032   C 159.99919,129.03032 135.66365,120.23915 134.10522,119.16024   z  M 125.79357,115.64377   L 125.91345,150.88835   L 125.27409,167.03213   C 130.66867,169.86927 137.98132,174.26486 143.1761,177.74136   C 147.73152,180.77831 156.24297,187.33172 162.75642,187.33172   C 180.89819,187.29176 199.47952,184.69437 218.06084,184.69437   L 217.901,127.99136   C 215.46345,126.83253 182.41666,115.00442 181.45763,115.00442   L 172.10703,114.84458   z "
     style="fill:#000000;fill-rule:evenodd;fill-opacity:1;stroke:none;" />
  <path
     id="path11"
     d="  M 134.10522,119.16024   C 135.66365,120.23915 159.99919,129.03032 162.23695,129.03032   L 198.12088,129.03032   L 206.95201,128.43092   C 204.19478,126.59277 180.17891,119.12028 175.22389,119.16024   C 161.51767,119.2002 147.81144,119.16024 134.10522,119.16024   z "
     style="fill:#ffffff;fill-rule:evenodd;fill-opacity:1;stroke:none;" />
  <path
     id="path13"
     d="  M 130.46887,163.39578   C 130.46887,165.03413 153.5257,178.46064 156.48273,180.01907   L 156.48273,132.66666   L 130.58875,123.03634   z "
     style="fill:#ffffff;fill-rule:evenodd;fill-opacity:1;stroke:none;" />
  <path
     id="path15"
     d="  M 211.66727,179.17992   L 211.66727,179.17992   L 211.66727,132.66666   L 163.79538,133.66566   L 163.79538,181.53755   z "
     style="fill:#ffffff;fill-rule:evenodd;fill-opacity:1;stroke:none;" />
  <path
     id="path17"
     d="  M 249.10963,176.90221   C 249.10963,172.74638 254.30441,166.15301 254.30441,161.79739   C 254.30441,160.07911 253.8249,157.92128 252.74598,157.12209   C 250.66807,166.19297 238.72008,178.5006 238.72008,181.57751   L 238.72008,182.61646   C 238.72008,187.13193 242.35642,191.60743 242.35642,197.2018   L 242.35642,202.39658   C 236.76204,200.91807 229.00984,190.68835 228.81004,183.13594   C 226.29257,184.85421 225.17369,190.36867 225.17369,194.60441   L 225.17369,197.2018   C 225.17369,203.91506 231.16767,215.74317 234.24457,219.89899   C 238.91988,226.33253 249.50923,227.37148 254.30441,231.52731   C 259.29939,228.92992 261.81686,227.29156 266.49216,224.45441   C 272.76586,220.65823 271.80682,220.77811 274.96365,214.2247   C 276.56204,210.90803 278.99959,203.35562 279.31927,199.27972   C 279.55903,195.60341 279.03955,183.9751 277.2014,182.61646   C 275.24337,191.12791 272.16646,199.75923 264.21445,201.87711   C 264.05461,200.23875 263.69498,200.03895 263.69498,198.24076   L 263.69498,197.72128   C 263.69498,193.5255 267.73092,185.93313 267.17148,182.29678   C 266.8518,180.29879 261.17751,170.94819 260.05863,170.14899   C 260.05863,176.94217 258.73996,186.13293 252.74598,186.29277   C 251.90682,183.05602 249.10963,183.81526 249.10963,176.90221   z "
     style="fill:#000000;fill-rule:evenodd;fill-opacity:1;stroke:none;" />
  <path
     id="path19"
     d="  M 104.45502,177.94116   C 104.45502,173.2259 109.13032,167.83132 109.13032,162.8763   L 109.13032,159.2   C 109.13032,157.72148 108.97048,158.28092 108.09136,157.64156   C 106.05341,166.39277 93.545983,179.4996 93.545983,182.61646   C 93.545983,186.53253 98.221284,193.56546 98.221284,202.39658   C 92.027509,201.87711 84.15542,190.60843 84.15542,183.13594   C 82.197388,185.41365 80.519075,189.4496 80.519075,193.56546   C 80.519075,204.11486 84.515059,212.86606 88.830722,219.05984   C 90.828714,221.93694 105.77369,231.52731 109.6498,231.52731   C 112.28715,231.52731 125.83353,222.5763 127.07229,220.85803   C 129.19016,217.86104 134.6247,204.51445 134.6247,200.31867   C 134.6247,196.44257 134.54478,184.5745 132.54679,183.13594   C 129.90944,194.5245 129.11024,197.32168 119.55984,202.39658   C 119.55984,192.1269 122.67671,188.6504 122.67671,182.61646   L 122.67671,181.57751   C 122.67671,181.25783 116.00341,171.06807 115.40401,170.66847   C 115.40401,176.50261 113.80562,186.81225 109.13032,186.81225   C 106.97249,186.81225 104.45502,180.97811 104.45502,177.94116   z "
     style="fill:#000000;fill-rule:evenodd;fill-opacity:1;stroke:none;" />
</svg>
