<?xml version="1.0" encoding="UTF-8" standalone="no"?>
<svg
   xmlns:dc="http://purl.org/dc/elements/1.1/"
   xmlns:cc="http://creativecommons.org/ns#"
   xmlns:rdf="http://www.w3.org/1999/02/22-rdf-syntax-ns#"
   xmlns:svg="http://www.w3.org/2000/svg"
   xmlns="http://www.w3.org/2000/svg"
   id="svg17"
   height="89.669998mm"
   width="120.11mm"
   version="1.0">
  <metadata
     id="metadata21">
    <rdf:RDF>
      <cc:Work
         rdf:about="">
        <dc:format>image/svg+xml</dc:format>
        <dc:type
           rdf:resource="http://purl.org/dc/dcmitype/StillImage" />
      </cc:Work>
    </rdf:RDF>
  </metadata>
  <defs
     id="defs3">
    <pattern
       y="0"
       x="0"
       height="6"
       width="6"
       patternUnits="userSpaceOnUse"
       id="EMFhbasepattern" />
  </defs>
  <path
     id="path5"
     d="  M 54.345381,54.345381   L 54.345381,284.51405   L 399.59839,284.51405   L 399.59839,54.345381   L 54.345381,54.345381   z "
     style="fill:#80e0ff;fill-rule:evenodd;fill-opacity:1;stroke:none;" />
  <path
     id="path7"
     d="  M 54.345381,54.345381   L 399.59839,54.345381   L 399.59839,284.51405   L 54.345381,284.51405   z "
     style="fill:none;stroke:#000000;stroke-width:9.5903616px;stroke-linecap:butt;stroke-linejoin:miter;stroke-miterlimit:10;stroke-dasharray:none;stroke-opacity:1;" />
  <path
     id="path9"
     d="  M 147.6516,155.28393   L 147.6516,156.20301   C 147.6516,158.96024 151.88735,166.59257 151.88735,170.82831   L 151.88735,176.02309   C 146.21305,175.54357 138.22108,164.03514 138.22108,156.68253   C 134.18514,159.35984 134.70462,167.07209 134.90442,172.70642   C 135.10421,178.34076 138.14116,183.81526 140.09919,187.81124   C 143.1761,194.00502 144.01526,194.80421 149.60964,198.56044   C 151.08815,199.51948 162.27691,205.23373 163.6755,205.23373   C 166.39277,205.23373 180.01907,195.88313 181.69739,194.04498   C 183.85522,191.68735 189.52952,176.58253 189.2498,172.22691   L 187.69136,156.68253   L 186.77229,156.68253   C 185.49357,162.07711 185.93313,164.55462 182.81626,168.7504   C 181.37771,170.66847 176.26285,175.30381 173.54558,175.54357   C 173.50562,173.34578 173.10602,173.94518 173.10602,172.22691   C 173.10602,167.83132 176.54257,161.87731 177.14197,156.48273   C 177.42168,154.20502 170.98815,145.53373 169.30984,144.41486   C 170.42871,149.13012 167.31184,159.99919 163.6755,159.99919   L 163.19598,159.99919   C 161.11807,159.99919 158.96024,154.76446 158.96024,151.96727   C 158.96024,142.53674 165.19397,141.33795 162.71646,130.74859   C 162.59658,130.82851 157.52168,141.61767 155.76345,143.61566   C 154.5247,145.01425 147.6516,153.88534 147.6516,155.28393   z "
     style="fill:#000000;fill-rule:evenodd;fill-opacity:1;stroke:none;" />
  <path
     id="path11"
     d="  M 273.96465,155.28393   L 273.96465,156.68253   C 273.96465,161.83735 279.35923,168.99016 277.72088,176.02309   C 274.52409,175.26385 270.20843,171.30783 268.49016,168.7504   C 267.77088,167.67148 266.33233,164.71446 265.81285,163.43574   C 264.85381,161.19799 264.73393,158.08112 264.05461,156.68253   C 261.41727,158.64056 260.29839,165.07409 260.29839,169.86927   L 260.29839,170.34879   C 260.29839,178.101 266.05261,188.41064 269.32931,193.36566   C 274.08453,200.51847 284.35421,201.23775 289.50903,205.71325   C 293.34518,203.6753 306.01245,196.68233 307.93052,193.9251   C 309.96847,190.96807 315.56285,176.10301 315.08333,170.82831   L 313.56485,156.68253   L 312.60582,156.68253   C 312.44598,164.35482 306.05241,174.98413 299.41907,175.54357   L 299.41907,170.82831   C 299.41907,166.63253 302.73574,161.11807 302.73574,156.20301   L 302.73574,155.72349   C 302.73574,153.5257 296.82168,145.29397 295.18333,144.41486   C 295.18333,152.64658 294.46405,157.6016 289.06947,160.43875   C 287.03152,158.72048 284.79377,156.64257 284.79377,152.9263   L 284.79377,150.08915   C 284.79377,145.09417 289.50903,140.25903 289.50903,135.46385   C 289.50903,133.38594 289.30923,131.62771 288.11044,130.74859   C 285.99257,139.81948 273.96465,152.08715 273.96465,155.28393   z "
     style="fill:#000000;fill-rule:evenodd;fill-opacity:1;stroke:none;" />
  <path
     id="path13"
     d="  M 208.91004,127.47189   L 208.91004,260.85783   C 208.91004,263.93474 219.41947,263.69498 223.05582,263.69498   L 227.77108,263.69498   C 231.40743,263.69498 241.91686,263.93474 241.91686,260.85783   L 241.91686,127.47189   C 241.91686,117.12229 208.91004,117.24217 208.91004,127.47189   z "
     style="fill:#ffffff;fill-rule:evenodd;fill-opacity:1;stroke:none;" />
  <path
     id="path15"
     d="  M 208.91004,127.47189   C 208.91004,117.24217 241.91686,117.12229 241.91686,127.47189   L 241.91686,260.85783   C 241.91686,263.93474 231.40743,263.69498 227.77108,263.69498   L 223.05582,263.69498   C 219.41947,263.69498 208.91004,263.93474 208.91004,260.85783   z  M 221.65723,77.961645   L 206.07289,77.961645   L 206.07289,85.034537   L 221.17771,85.034537   L 221.17771,92.586946   L 212.2267,92.586946   L 212.2267,97.302207   L 221.17771,97.302207   L 221.17771,110.00944   L 210.34859,110.00944   L 210.34859,120.87851   C 207.83112,121.51787 205.63333,124.6747 205.63333,127.91144   L 205.63333,259.45923   C 205.63333,267.37128 214.62429,266.97168 222.5763,266.97168   L 228.2506,266.97168   C 236.32249,266.97168 245.19357,267.49116 245.19357,259.45923   L 245.19357,128.87048   C 245.19357,122.15723 240.95783,122.15723 240.95783,119.91948   L 240.95783,110.00944   L 229.64919,110.00944   L 229.64919,85.034537   L 244.75401,85.034537   L 244.75401,77.961645   L 228.73012,77.961645   L 228.73012,71.84779   L 221.65723,71.84779   L 221.65723,77.961645   z "
     style="fill:#000000;fill-rule:evenodd;fill-opacity:1;stroke:none;" />
</svg>
