<?xml version="1.0" encoding="UTF-8" standalone="no"?>
<svg
   xmlns:dc="http://purl.org/dc/elements/1.1/"
   xmlns:cc="http://creativecommons.org/ns#"
   xmlns:rdf="http://www.w3.org/1999/02/22-rdf-syntax-ns#"
   xmlns:svg="http://www.w3.org/2000/svg"
   xmlns="http://www.w3.org/2000/svg"
   id="svg21"
   height="116.73mm"
   width="116.73mm"
   version="1.0">
  <metadata
     id="metadata25">
    <rdf:RDF>
      <cc:Work
         rdf:about="">
        <dc:format>image/svg+xml</dc:format>
        <dc:type
           rdf:resource="http://purl.org/dc/dcmitype/StillImage" />
      </cc:Work>
    </rdf:RDF>
  </metadata>
  <defs
     id="defs3">
    <pattern
       y="0"
       x="0"
       height="6"
       width="6"
       patternUnits="userSpaceOnUse"
       id="EMFhbasepattern" />
  </defs>
  <path
     id="path5"
     d="  M 220.57831,386.49156   L 220.57831,386.49156   L 386.49156,220.57831   L 220.57831,54.665059   L 54.665059,220.57831   L 220.57831,386.49156   z "
     style="fill:#ff8080;fill-rule:evenodd;fill-opacity:1;stroke:none;" />
  <path
     id="path7"
     d="  M 220.57831,386.49156   L 220.57831,386.49156   L 386.49156,220.57831   L 220.57831,54.665059   L 54.665059,220.57831   L 220.57831,386.49156  "
     style="fill:none;stroke:#000000;stroke-width:9.5903616px;stroke-linecap:butt;stroke-linejoin:miter;stroke-miterlimit:10;stroke-dasharray:none;stroke-opacity:1;" />
  <path
     id="path9"
     d="  M 203.43554,221.17771   L 203.43554,173.30582   L 251.30743,172.30682   L 251.30743,218.82008   z  M 170.10903,203.03594   L 170.22891,162.6765   L 196.12289,172.30682   L 196.12289,219.65923   C 193.16586,218.1008 170.10903,204.67429 170.10903,203.03594   z  M 173.74538,158.8004   C 187.4516,158.8004 201.15783,158.84036 214.86405,158.8004   C 219.81907,158.76044 243.83494,166.23293 246.59217,168.07108   L 237.76104,168.67048   L 201.87711,168.67048   C 199.63935,168.67048 175.30381,159.87931 173.74538,158.8004   z  M 165.43373,155.28393   L 165.55361,190.52851   L 164.91425,206.67229   C 170.30883,209.50943 177.62148,213.90502 182.81626,217.38152   C 187.37168,220.41847 195.88313,226.97188 202.39658,226.97188   C 220.53835,226.93192 239.11968,224.33453 257.701,224.33453   L 257.54116,167.63152   C 255.10361,166.47269 222.05682,154.64458 221.09779,154.64458   L 211.74719,154.48474   z "
     style="fill:#000000;fill-rule:evenodd;fill-opacity:1;stroke:none;" />
  <path
     id="path11"
     d="  M 173.74538,158.8004   C 175.30381,159.87931 199.63935,168.67048 201.87711,168.67048   L 237.76104,168.67048   L 246.59217,168.07108   C 243.83494,166.23293 219.81907,158.76044 214.86405,158.8004   C 201.15783,158.84036 187.4516,158.8004 173.74538,158.8004   z "
     style="fill:#ffffff;fill-rule:evenodd;fill-opacity:1;stroke:none;" />
  <path
     id="path13"
     d="  M 170.10903,203.03594   C 170.10903,204.67429 193.16586,218.1008 196.12289,219.65923   L 196.12289,172.30682   L 170.22891,162.6765   z "
     style="fill:#ffffff;fill-rule:evenodd;fill-opacity:1;stroke:none;" />
  <path
     id="path15"
     d="  M 251.30743,218.82008   L 251.30743,218.82008   L 251.30743,172.30682   L 203.43554,173.30582   L 203.43554,221.17771   z "
     style="fill:#ffffff;fill-rule:evenodd;fill-opacity:1;stroke:none;" />
  <path
     id="path17"
     d="  M 288.7498,216.54237   C 288.7498,212.38654 293.94457,205.79317 293.94457,201.43755   C 293.94457,199.71927 293.46506,197.56144 292.38614,196.76225   C 290.30823,205.83313 278.36024,218.14076 278.36024,221.21767   L 278.36024,222.25662   C 278.36024,226.77209 281.99658,231.24759 281.99658,236.84196   L 281.99658,242.03674   C 276.4022,240.55823 268.65,230.32851 268.4502,222.7761   C 265.93273,224.49437 264.81385,230.00883 264.81385,234.24457   L 264.81385,236.84196   C 264.81385,243.55522 270.80783,255.38333 273.88473,259.53915   C 278.56004,265.97269 289.14939,267.01164 293.94457,271.16747   C 298.93955,268.57008 301.45702,266.93172 306.13232,264.09457   C 312.40602,260.29839 311.44698,260.41827 314.60381,253.86486   C 316.2022,250.54819 318.63975,242.99578 318.95943,238.91988   C 319.19919,235.24357 318.67971,223.61526 316.84156,222.25662   C 314.88353,230.76807 311.80662,239.39939 303.85461,241.51727   C 303.69477,239.87891 303.33514,239.67911 303.33514,237.88092   L 303.33514,237.36144   C 303.33514,233.16566 307.37108,225.57329 306.81164,221.93694   C 306.49196,219.93895 300.81767,210.58835 299.69879,209.78915   C 299.69879,216.58233 298.38012,225.77309 292.38614,225.93293   C 291.54698,222.69618 288.7498,223.45542 288.7498,216.54237   z "
     style="fill:#000000;fill-rule:evenodd;fill-opacity:1;stroke:none;" />
  <path
     id="path19"
     d="  M 144.09518,217.58132   C 144.09518,212.86606 148.77048,207.47148 148.77048,202.51646   L 148.77048,198.84016   C 148.77048,197.36164 148.61064,197.92108 147.73152,197.28172   C 145.69357,206.03293 133.18614,219.13976 133.18614,222.25662   C 133.18614,226.17269 137.86144,233.20562 137.86144,242.03674   C 131.66767,241.51727 123.79558,230.24859 123.79558,222.7761   C 121.83755,225.05381 120.15924,229.08976 120.15924,233.20562   C 120.15924,243.75502 124.15522,252.50622 128.47088,258.7   C 130.46887,261.5771 145.41385,271.16747 149.28996,271.16747   C 151.92731,271.16747 165.47369,262.21646 166.71245,260.49819   C 168.83032,257.5012 174.26486,244.15461 174.26486,239.95883   C 174.26486,236.08273 174.18494,224.21466 172.18695,222.7761   C 169.5496,234.16466 168.7504,236.96184 159.2,242.03674   C 159.2,231.76706 162.31687,228.29056 162.31687,222.25662   L 162.31687,221.21767   C 162.31687,220.89799 155.64357,210.70823 155.04417,210.30863   C 155.04417,216.14277 153.44578,226.45241 148.77048,226.45241   C 146.61265,226.45241 144.09518,220.61827 144.09518,217.58132   z "
     style="fill:#000000;fill-rule:evenodd;fill-opacity:1;stroke:none;" />
</svg>
