<?xml version="1.0" encoding="UTF-8" standalone="no"?>
<svg
   xmlns:dc="http://purl.org/dc/elements/1.1/"
   xmlns:cc="http://creativecommons.org/ns#"
   xmlns:rdf="http://www.w3.org/1999/02/22-rdf-syntax-ns#"
   xmlns:svg="http://www.w3.org/2000/svg"
   xmlns="http://www.w3.org/2000/svg"
   id="svg19"
   height="116.73mm"
   width="116.73mm"
   version="1.0">
  <metadata
     id="metadata23">
    <rdf:RDF>
      <cc:Work
         rdf:about="">
        <dc:format>image/svg+xml</dc:format>
        <dc:type
           rdf:resource="http://purl.org/dc/dcmitype/StillImage" />
      </cc:Work>
    </rdf:RDF>
  </metadata>
  <defs
     id="defs3">
    <pattern
       y="0"
       x="0"
       height="6"
       width="6"
       patternUnits="userSpaceOnUse"
       id="EMFhbasepattern" />
  </defs>
  <path
     id="path5"
     d="  M 220.57831,386.49156   L 220.57831,386.49156   L 386.49156,220.57831   L 220.57831,54.665059   L 54.665059,220.57831   L 220.57831,386.49156   z "
     style="fill:#ff8080;fill-rule:evenodd;fill-opacity:1;stroke:none;" />
  <path
     id="path7"
     d="  M 220.57831,386.49156   L 220.57831,386.49156   L 386.49156,220.57831   L 220.57831,54.665059   L 54.665059,220.57831   L 220.57831,386.49156  "
     style="fill:none;stroke:#000000;stroke-width:9.5903616px;stroke-linecap:butt;stroke-linejoin:miter;stroke-miterlimit:10;stroke-dasharray:none;stroke-opacity:1;" />
  <path
     id="path9"
     d="  M 138.42088,197.32168   C 138.42088,200.39859 142.9763,208.47048 142.9763,214.0249   L 142.9763,218.58032   C 136.74257,218.06084 128.31104,205.95301 128.31104,197.8012   C 120.07932,203.83514 126.59277,225.25361 130.34899,231.72711   C 133.98534,237.96084 134.66466,238.9998 140.77851,243.0757   C 141.81747,243.75502 155.44377,250.46827 155.64357,250.46827   C 158.88032,250.46827 165.43373,244.31445 168.31084,242.83594   C 174.30482,239.83895 175.26385,238.8 178.26084,232.56626   C 179.25984,230.48835 182.13695,219.61927 182.69638,216.78213   C 183.69538,211.78715 181.57751,202.91606 181.45763,197.8012   L 180.45863,197.8012   C 179.73935,206.15281 173.58554,217.901 166.27289,218.06084   C 166.11305,215.98293 165.75341,216.94196 165.75341,215.02389   C 165.75341,210.18875 169.3498,203.31566 170.14899,198.12088   C 170.58855,195.36365 163.75542,185.69337 161.71747,185.17389   C 164.15502,190.24879 159.16004,199.71927 155.12409,201.87711   C 153.08614,200.47851 150.56867,196.68233 150.56867,193.24578   L 150.56867,192.24678   C 150.56867,183.41566 157.12209,181.17791 154.64458,170.46867   C 153.3259,171.42771 152.7265,175.34377 151.20803,177.66144   C 149.60964,180.05903 148.69056,181.77731 146.97229,184.05502   C 145.09417,186.53253 138.42088,194.28474 138.42088,197.32168   z "
     style="fill:#000000;fill-rule:evenodd;fill-opacity:1;stroke:none;" />
  <path
     id="path11"
     d="  M 274.08453,197.32168   L 274.08453,197.8012   C 274.08453,203.31566 279.87871,211.02791 278.16044,218.58032   C 274.92369,218.3006 269.72891,213.26566 268.21044,210.78815   C 266.97168,208.71024 266.13253,207.5514 265.29337,205.11385   C 264.69397,203.2757 263.89478,198.72028 263.45522,197.8012   C 260.61807,199.91907 259.41927,207.31164 259.41927,212.50642   C 259.41927,220.21867 265.73293,232.64618 269.00963,237.32148   C 271.28735,240.51827 275.00361,242.79598 278.7998,244.71405   C 280.27831,245.43333 290.46807,250.46827 290.78775,250.46827   C 292.86566,250.46827 309.04939,239.79899 310.40803,238.2006   C 312.5259,235.64317 318.67971,218.9 318.32008,213.98494   L 316.6018,197.8012   L 315.60281,197.8012   C 315.40301,206.19277 308.76967,217.46144 301.41706,218.06084   C 301.45702,218.02088 302.13634,209.74919 302.65582,207.63132   C 303.41506,204.43454 304.97349,200.71827 304.97349,197.32168   L 304.97349,196.80221   C 304.97349,194.5245 298.57992,185.77329 296.86164,184.65442   C 296.86164,193.48554 296.38212,198.92008 290.30823,201.87711   C 288.66988,200.43855 285.75281,197.72128 285.75281,194.76425   L 285.75281,191.24779   C 285.75281,185.73333 290.78775,179.97911 290.78775,175.54357   L 290.90763,175.02409   L 290.30823,170.46867   C 287.91064,171.10803 287.71084,175.30381 286.59196,177.42168   C 285.47309,179.4996 283.75482,181.93715 282.31626,183.7753   C 280.19839,186.53253 274.08453,193.56546 274.08453,197.32168   z "
     style="fill:#000000;fill-rule:evenodd;fill-opacity:1;stroke:none;" />
  <path
     id="path13"
     d="  M 197.64136,274.76385   C 197.64136,287.27128 202.59638,291.66686 210.66827,295.86265   L 217.42148,289.42911   C 214.70421,288.70984 209.86907,284.03453 208.39056,281.75682   C 206.11285,278.28032 205.79317,273.24538 204.75421,268.68996   C 203.63534,268.96967 197.64136,273.84478 197.64136,274.76385   z "
     style="fill:#ffffff;fill-rule:evenodd;fill-opacity:1;stroke:none;" />
  <path
     id="path15"
     d="  M 197.64136,274.76385   C 197.64136,273.84478 203.63534,268.96967 204.75421,268.68996   C 205.79317,273.24538 206.11285,278.28032 208.39056,281.75682   C 209.86907,284.03453 214.70421,288.70984 217.42148,289.42911   L 210.66827,295.86265   C 202.59638,291.66686 197.64136,287.27128 197.64136,274.76385   z  M 221.45743,313.20522   L 222.9759,313.20522   C 246.19257,313.20522 256.9018,286.07249 256.9018,262.09658   L 256.9018,258.06064   C 256.9018,239.75903 241.83694,223.21566 235.48333,207.59136   C 229.08976,191.96707 230.00883,161.27791 220.45843,150.24899   C 217.42148,186.37269 205.91305,212.78614 191.92711,238.12068   C 184.33474,251.8269 184.97409,270.44819 190.00903,286.47208   C 194.3247,300.29819 203.55542,313.20522 221.45743,313.20522   z "
     style="fill:#ffffff;fill-rule:evenodd;fill-opacity:1;stroke:none;" />
  <path
     id="path17"
     d="  M 221.45743,313.20522   C 203.55542,313.20522 194.3247,300.29819 190.00903,286.47208   C 184.97409,270.44819 184.33474,251.8269 191.92711,238.12068   C 205.91305,212.78614 217.42148,186.37269 220.45843,150.24899   C 230.00883,161.27791 229.08976,191.96707 235.48333,207.59136   C 241.83694,223.21566 256.9018,239.75903 256.9018,258.06064   L 256.9018,262.09658   C 256.9018,286.07249 246.19257,313.20522 222.9759,313.20522   z  M 219.93895,317.28112   L 224.49437,317.28112   C 248.75,317.28112 261.45723,289.30923 261.45723,264.61405   L 261.45723,257.54116   C 261.45723,234.92389 243.0757,219.73915 237.76104,199.75923   C 232.04678,178.34076 233.64518,149.01024 215.90301,139.61968   C 215.90301,160.27891 212.66626,177.9012 207.19176,193.16586   C 204.39458,201.03795 201.59739,208.11084 198.48052,215.82309   C 195.80321,222.45642 191.04799,229.76907 187.69136,236.44237   C 184.45462,242.95582 180.61847,251.22751 181.45763,261.5771   C 182.29678,272.20642 182.81626,279.87871 185.73333,288.70984   C 190.40863,302.81566 201.67731,317.28112 219.93895,317.28112   z "
     style="fill:#000000;fill-rule:evenodd;fill-opacity:1;stroke:none;" />
</svg>
