<?xml version="1.0" encoding="UTF-8" standalone="no"?>
<svg
   xmlns:dc="http://purl.org/dc/elements/1.1/"
   xmlns:cc="http://creativecommons.org/ns#"
   xmlns:rdf="http://www.w3.org/1999/02/22-rdf-syntax-ns#"
   xmlns:svg="http://www.w3.org/2000/svg"
   xmlns="http://www.w3.org/2000/svg"
   id="svg19"
   height="89.669998mm"
   width="120.11mm"
   version="1.0">
  <metadata
     id="metadata23">
    <rdf:RDF>
      <cc:Work
         rdf:about="">
        <dc:format>image/svg+xml</dc:format>
        <dc:type
           rdf:resource="http://purl.org/dc/dcmitype/StillImage" />
      </cc:Work>
    </rdf:RDF>
  </metadata>
  <defs
     id="defs3">
    <pattern
       y="0"
       x="0"
       height="6"
       width="6"
       patternUnits="userSpaceOnUse"
       id="EMFhbasepattern" />
  </defs>
  <path
     id="path5"
     d="  M 54.345381,54.345381   L 54.345381,284.51405   L 399.59839,284.51405   L 399.59839,54.345381   L 54.345381,54.345381   z "
     style="fill:#80e0ff;fill-rule:evenodd;fill-opacity:1;stroke:none;" />
  <path
     id="path7"
     d="  M 54.345381,54.345381   L 399.59839,54.345381   L 399.59839,284.51405   L 54.345381,284.51405   z "
     style="fill:none;stroke:#000000;stroke-width:9.5903616px;stroke-linecap:butt;stroke-linejoin:miter;stroke-miterlimit:10;stroke-dasharray:none;stroke-opacity:1;" />
  <path
     id="path9"
     d="  M 144.81446,146.17309   C 144.81446,149.25 149.36988,157.32189 149.36988,162.8763   L 149.36988,167.43172   C 143.13614,166.91225 134.70462,154.80442 134.70462,146.65261   C 126.47289,152.68654 132.98634,174.10502 136.74257,180.57851   C 140.37891,186.81225 141.05823,187.8512 147.17209,191.92711   C 148.21104,192.60642 161.83735,199.31968 162.03715,199.31968   C 165.27389,199.31968 171.82731,193.16586 174.70442,191.68735   C 180.69839,188.69036 181.65743,187.6514 184.65442,181.41767   C 185.65341,179.33976 188.53052,168.47068 189.08996,165.63353   C 190.08895,160.63855 187.97108,151.76747 187.8512,146.65261   L 186.85221,146.65261   C 186.13293,155.00421 179.97911,166.75241 172.66646,166.91225   C 172.50662,164.83433 172.14699,165.79337 172.14699,163.8753   C 172.14699,159.04016 175.74337,152.16707 176.54257,146.97229   C 176.98213,144.21506 170.14899,134.54478 168.11104,134.0253   C 170.54859,139.1002 165.55361,148.57068 161.51767,150.72851   C 159.47972,149.32992 156.96225,145.53373 156.96225,142.09719   L 156.96225,141.09819   C 156.96225,132.26707 163.51566,130.02932 161.03815,119.32008   C 159.71948,120.27911 159.12008,124.19518 157.6016,126.51285   C 156.00321,128.91044 155.08413,130.62871 153.36586,132.90642   C 151.48775,135.38393 144.81446,143.13614 144.81446,146.17309   z "
     style="fill:#000000;fill-rule:evenodd;fill-opacity:1;stroke:none;" />
  <path
     id="path11"
     d="  M 280.47811,146.17309   L 280.47811,146.65261   C 280.47811,152.16707 286.27229,159.87931 284.55401,167.43172   C 281.31727,167.15201 276.12249,162.11707 274.60401,159.63956   C 273.36526,157.56164 272.5261,156.40281 271.68694,153.96526   C 271.08755,152.12711 270.28835,147.57168 269.84879,146.65261   C 267.01164,148.77048 265.81285,156.16305 265.81285,161.35783   C 265.81285,169.07008 272.1265,181.49759 275.40321,186.17289   C 277.68092,189.36968 281.39718,191.64739 285.19337,193.56546   C 286.67188,194.28474 296.86164,199.31968 297.18132,199.31968   C 299.25923,199.31968 315.44297,188.6504 316.8016,187.05201   C 318.91947,184.49458 325.07329,167.7514 324.71365,162.83634   L 322.99538,146.65261   L 321.99638,146.65261   C 321.79658,155.04417 315.16325,166.31285 307.81064,166.91225   C 307.8506,166.87229 308.52992,158.6006 309.04939,156.48273   C 309.80863,153.28594 311.36706,149.56968 311.36706,146.17309   L 311.36706,145.65361   C 311.36706,143.3759 304.97349,134.6247 303.25522,133.50582   C 303.25522,142.33695 302.7757,147.77148 296.7018,150.72851   C 295.06345,149.28996 292.14638,146.57269 292.14638,143.61566   L 292.14638,140.09919   C 292.14638,134.58474 297.18132,128.83052 297.18132,124.39498   L 297.3012,123.8755   L 296.7018,119.32008   C 294.30421,119.95944 294.10441,124.15522 292.98554,126.27309   C 291.86666,128.351 290.14839,130.78855 288.70984,132.6267   C 286.59196,135.38393 280.47811,142.41687 280.47811,146.17309   z "
     style="fill:#000000;fill-rule:evenodd;fill-opacity:1;stroke:none;" />
  <path
     id="path13"
     d="  M 204.03494,223.61526   C 204.03494,236.12269 208.98996,240.51827 217.06184,244.71405   L 223.81506,238.28052   C 221.09779,237.56124 216.26265,232.88594 214.78413,230.60823   C 212.50642,227.13172 212.18674,222.09678 211.14779,217.54136   C 210.02891,217.82108 204.03494,222.69618 204.03494,223.61526   z "
     style="fill:#ffffff;fill-rule:evenodd;fill-opacity:1;stroke:none;" />
  <path
     id="path15"
     d="  M 204.03494,223.61526   C 204.03494,222.69618 210.02891,217.82108 211.14779,217.54136   C 212.18674,222.09678 212.50642,227.13172 214.78413,230.60823   C 216.26265,232.88594 221.09779,237.56124 223.81506,238.28052   L 217.06184,244.71405   C 208.98996,240.51827 204.03494,236.12269 204.03494,223.61526   z  M 227.851,262.05662   L 229.36947,262.05662   C 252.58614,262.05662 263.29538,234.92389 263.29538,210.94799   L 263.29538,206.91205   C 263.29538,188.61044 248.23052,172.06707 241.8769,156.44277   C 235.48333,140.81847 236.40241,110.12932 226.852,99.1004   C 223.81506,135.22409 212.30662,161.63755 198.32068,186.97209   C 190.72831,200.67831 191.36767,219.2996 196.40261,235.32349   C 200.71827,249.14959 209.94899,262.05662 227.851,262.05662   z "
     style="fill:#ffffff;fill-rule:evenodd;fill-opacity:1;stroke:none;" />
  <path
     id="path17"
     d="  M 227.851,262.05662   C 209.94899,262.05662 200.71827,249.14959 196.40261,235.32349   C 191.36767,219.2996 190.72831,200.67831 198.32068,186.97209   C 212.30662,161.63755 223.81506,135.22409 226.852,99.1004   C 236.40241,110.12932 235.48333,140.81847 241.8769,156.44277   C 248.23052,172.06707 263.29538,188.61044 263.29538,206.91205   L 263.29538,210.94799   C 263.29538,234.92389 252.58614,262.05662 229.36947,262.05662   z  M 226.33253,266.13253   L 230.88795,266.13253   C 255.14357,266.13253 267.8508,238.16064 267.8508,213.46546   L 267.8508,206.39257   C 267.8508,183.7753 249.46927,168.59056 244.15461,148.61064   C 238.44036,127.19217 240.03875,97.861645 222.29658,88.471083   C 222.29658,109.13032 219.05984,126.75261 213.58534,142.01727   C 210.78815,149.88936 207.99096,156.96225 204.87409,164.6745   C 202.19678,171.30783 197.44156,178.62048 194.08494,185.29377   C 190.84819,191.80723 187.01205,200.07891 187.8512,210.42851   C 188.69036,221.05783 189.20984,228.73012 192.1269,237.56124   C 196.80221,251.66706 208.07088,266.13253 226.33253,266.13253   z "
     style="fill:#000000;fill-rule:evenodd;fill-opacity:1;stroke:none;" />
</svg>
