<?xml version="1.0" encoding="UTF-8" standalone="no"?>
<svg
   xmlns:dc="http://purl.org/dc/elements/1.1/"
   xmlns:cc="http://creativecommons.org/ns#"
   xmlns:rdf="http://www.w3.org/1999/02/22-rdf-syntax-ns#"
   xmlns:svg="http://www.w3.org/2000/svg"
   xmlns="http://www.w3.org/2000/svg"
   id="svg21"
   height="130.27mm"
   width="130.27mm"
   version="1.0">
  <metadata
     id="metadata25">
    <rdf:RDF>
      <cc:Work
         rdf:about="">
        <dc:format>image/svg+xml</dc:format>
        <dc:type
           rdf:resource="http://purl.org/dc/dcmitype/StillImage" />
      </cc:Work>
    </rdf:RDF>
  </metadata>
  <defs
     id="defs3">
    <pattern
       y="0"
       x="0"
       height="6"
       width="6"
       patternUnits="userSpaceOnUse"
       id="EMFhbasepattern" />
  </defs>
  <path
     id="path5"
     d="  M 164.63454,327.67068   C 164.63454,437.95983 327.67068,437.95983 327.67068,327.67068   C 437.95983,327.67068 437.95983,164.63454 327.67068,164.63454   C 327.67068,54.345381 164.63454,54.345381 164.63454,164.63454   C 54.345381,164.63454 54.345381,327.67068 164.63454,327.67068   z "
     style="fill:#ffff80;fill-rule:evenodd;fill-opacity:1;stroke:none;" />
  <path
     id="path7"
     d="  M 164.63454,327.67068   C 164.63454,437.95983 327.67068,437.95983 327.67068,327.67068   C 437.95983,327.67068 437.95983,164.63454 327.67068,164.63454   C 327.67068,54.345381 164.63454,54.345381 164.63454,164.63454   C 54.345381,164.63454 54.345381,327.67068 164.63454,327.67068  "
     style="fill:none;stroke:#000000;stroke-width:9.5903616px;stroke-linecap:butt;stroke-linejoin:miter;stroke-miterlimit:10;stroke-dasharray:none;stroke-opacity:1;" />
  <path
     id="path9"
     d="  M 229.00984,246.752   L 229.00984,198.88012   L 276.88172,197.88112   L 276.88172,244.39437   z  M 195.68333,228.61024   L 195.80321,188.2508   L 221.69719,197.88112   L 221.69719,245.23353   C 218.74016,243.6751 195.68333,230.24859 195.68333,228.61024   z  M 199.31968,184.3747   C 213.0259,184.3747 226.73213,184.41466 240.43835,184.3747   C 245.39337,184.33474 269.40923,191.80723 272.16646,193.64538   L 263.33534,194.24478   L 227.4514,194.24478   C 225.21365,194.24478 200.87811,185.45361 199.31968,184.3747   z  M 191.00803,180.85823   L 191.12791,216.10281   L 190.48855,232.24658   C 195.88313,235.08373 203.19578,239.47931 208.39056,242.95582   C 212.94598,245.99277 221.45743,252.54618 227.97088,252.54618   C 246.11265,252.50622 264.69397,249.90883 283.2753,249.90883   L 283.11546,193.20582   C 280.67791,192.04699 247.63112,180.21887 246.67208,180.21887   L 237.32148,180.05903   z "
     style="fill:#000000;fill-rule:evenodd;fill-opacity:1;stroke:none;" />
  <path
     id="path11"
     d="  M 199.31968,184.3747   C 200.87811,185.45361 225.21365,194.24478 227.4514,194.24478   L 263.33534,194.24478   L 272.16646,193.64538   C 269.40923,191.80723 245.39337,184.33474 240.43835,184.3747   C 226.73213,184.41466 213.0259,184.3747 199.31968,184.3747   z "
     style="fill:#ffffff;fill-rule:evenodd;fill-opacity:1;stroke:none;" />
  <path
     id="path13"
     d="  M 195.68333,228.61024   C 195.68333,230.24859 218.74016,243.6751 221.69719,245.23353   L 221.69719,197.88112   L 195.80321,188.2508   z "
     style="fill:#ffffff;fill-rule:evenodd;fill-opacity:1;stroke:none;" />
  <path
     id="path15"
     d="  M 276.88172,244.39437   L 276.88172,244.39437   L 276.88172,197.88112   L 229.00984,198.88012   L 229.00984,246.752   z "
     style="fill:#ffffff;fill-rule:evenodd;fill-opacity:1;stroke:none;" />
  <path
     id="path17"
     d="  M 314.32409,242.11666   C 314.32409,237.96084 319.51887,231.36747 319.51887,227.01184   C 319.51887,225.29357 319.03935,223.13574 317.96044,222.33654   C 315.88253,231.40743 303.93453,243.71506 303.93453,246.79196   L 303.93453,247.83092   C 303.93453,252.34638 307.57088,256.82188 307.57088,262.41626   L 307.57088,267.61104   C 301.9765,266.13253 294.22429,255.90281 294.02449,248.3504   C 291.50702,250.06867 290.38815,255.58313 290.38815,259.81887   L 290.38815,262.41626   C 290.38815,269.12951 296.38212,280.95763 299.45903,285.11345   C 304.13433,291.54698 314.72369,292.58594 319.51887,296.74176   C 324.51385,294.14437 327.03132,292.50602 331.70662,289.66887   C 337.98032,285.87269 337.02128,285.99257 340.17811,279.43915   C 341.7765,276.12249 344.21405,268.57008 344.53373,264.49417   C 344.77349,260.81787 344.25401,249.18955 342.41586,247.83092   C 340.45783,256.34237 337.38092,264.97369 329.42891,267.09156   C 329.26907,265.45321 328.90943,265.25341 328.90943,263.45522   L 328.90943,262.93574   C 328.90943,258.73996 332.94538,251.14759 332.38594,247.51124   C 332.06626,245.51325 326.39196,236.16265 325.27309,235.36345   C 325.27309,242.15662 323.95441,251.34739 317.96044,251.50723   C 317.12128,248.27048 314.32409,249.02972 314.32409,242.11666   z "
     style="fill:#000000;fill-rule:evenodd;fill-opacity:1;stroke:none;" />
  <path
     id="path19"
     d="  M 169.66948,243.15562   C 169.66948,238.44036 174.34478,233.04578 174.34478,228.09076   L 174.34478,224.41445   C 174.34478,222.93594 174.18494,223.49538 173.30582,222.85602   C 171.26787,231.60723 158.76044,244.71405 158.76044,247.83092   C 158.76044,251.74698 163.43574,258.77992 163.43574,267.61104   C 157.24197,267.09156 149.36988,255.82289 149.36988,248.3504   C 147.41185,250.62811 145.73353,254.66405 145.73353,258.77992   C 145.73353,269.32931 149.72952,278.08052 154.04518,284.27429   C 156.04317,287.1514 170.98815,296.74176 174.86425,296.74176   C 177.5016,296.74176 191.04799,287.79076 192.28674,286.07249   C 194.40462,283.0755 199.83915,269.72891 199.83915,265.53313   C 199.83915,261.65702 199.75923,249.78895 197.76124,248.3504   C 195.12389,259.73895 194.3247,262.53614 184.77429,267.61104   C 184.77429,257.34136 187.89116,253.86486 187.89116,247.83092   L 187.89116,246.79196   C 187.89116,246.47229 181.21787,236.28253 180.61847,235.88293   C 180.61847,241.71706 179.02008,252.0267 174.34478,252.0267   C 172.18695,252.0267 169.66948,246.19257 169.66948,243.15562   z "
     style="fill:#000000;fill-rule:evenodd;fill-opacity:1;stroke:none;" />
</svg>
