<?xml version="1.0" encoding="UTF-8" standalone="no"?>
<svg
   xmlns:dc="http://purl.org/dc/elements/1.1/"
   xmlns:cc="http://creativecommons.org/ns#"
   xmlns:rdf="http://www.w3.org/1999/02/22-rdf-syntax-ns#"
   xmlns:svg="http://www.w3.org/2000/svg"
   xmlns="http://www.w3.org/2000/svg"
   id="svg17"
   height="95.75mm"
   width="95.75mm"
   version="1.0">
  <metadata
     id="metadata21">
    <rdf:RDF>
      <cc:Work
         rdf:about="">
        <dc:format>image/svg+xml</dc:format>
        <dc:type
           rdf:resource="http://purl.org/dc/dcmitype/StillImage" />
      </cc:Work>
    </rdf:RDF>
  </metadata>
  <defs
     id="defs3">
    <pattern
       y="0"
       x="0"
       height="6"
       width="6"
       patternUnits="userSpaceOnUse"
       id="EMFhbasepattern" />
  </defs>
  <path
     id="path5"
     d="  M 54.345381,54.345381   L 54.345381,307.53092   L 307.53092,307.53092   L 307.53092,54.345381   L 54.345381,54.345381   z "
     style="fill:#aaffaa;fill-rule:evenodd;fill-opacity:1;stroke:none;" />
  <path
     id="path7"
     d="  M 54.345381,54.345381   L 307.53092,54.345381   L 307.53092,307.53092   L 54.345381,307.53092   z "
     style="fill:none;stroke:#000000;stroke-width:9.5903616px;stroke-linecap:butt;stroke-linejoin:miter;stroke-miterlimit:10;stroke-dasharray:none;stroke-opacity:1;" />
  <path
     id="path9"
     d="  M 101.61787,166.79237   L 101.61787,167.71144   C 101.61787,170.46867 105.85361,178.101 105.85361,182.33674   L 105.85361,187.53152   C 100.17932,187.05201 92.187348,175.54357 92.187348,168.19096   C 88.151404,170.86827 88.670882,178.58052 88.870681,184.21486   C 89.070481,189.84919 92.107428,195.32369 94.06546,199.31968   C 97.142368,205.51345 97.981525,206.31265 103.5759,210.06887   C 105.05442,211.02791 116.24317,216.74217 117.64177,216.74217   C 120.35903,216.74217 133.98534,207.39156 135.66365,205.55341   C 137.82148,203.19578 143.49578,188.09096 143.21606,183.73534   L 141.65763,168.19096   L 140.73855,168.19096   C 139.45984,173.58554 139.8994,176.06305 136.78253,180.25883   C 135.34397,182.1769 130.22911,186.81225 127.51185,187.05201   C 127.47189,184.85421 127.07229,185.45361 127.07229,183.73534   C 127.07229,179.33976 130.50883,173.38574 131.10823,167.99116   C 131.38795,165.71345 124.95442,157.04217 123.2761,155.92329   C 124.39498,160.63855 121.27811,171.50763 117.64177,171.50763   L 117.16225,171.50763   C 115.08434,171.50763 112.9265,166.27289 112.9265,163.4757   C 112.9265,154.04518 119.16024,152.84638 116.68273,142.25703   C 116.56285,142.33695 111.48795,153.1261 109.72972,155.12409   C 108.49096,156.52269 101.61787,165.39377 101.61787,166.79237   z "
     style="fill:#000000;fill-rule:evenodd;fill-opacity:1;stroke:none;" />
  <path
     id="path11"
     d="  M 227.93092,166.79237   L 227.93092,168.19096   C 227.93092,173.34578 233.3255,180.49859 231.68715,187.53152   C 228.49036,186.77229 224.1747,182.81626 222.45642,180.25883   C 221.73715,179.17992 220.29859,176.22289 219.77911,174.94417   C 218.82008,172.70642 218.7002,169.58956 218.02088,168.19096   C 215.38353,170.14899 214.26466,176.58253 214.26466,181.37771   L 214.26466,181.85723   C 214.26466,189.60944 220.01887,199.91907 223.29558,204.87409   C 228.0508,212.0269 238.32048,212.74618 243.4753,217.22168   C 247.31144,215.18373 259.97871,208.19076 261.89678,205.43353   C 263.93474,202.4765 269.52911,187.61144 269.04959,182.33674   L 267.53112,168.19096   L 266.57208,168.19096   C 266.41225,175.86325 260.01867,186.49257 253.38534,187.05201   L 253.38534,182.33674   C 253.38534,178.14096 256.702,172.6265 256.702,167.71144   L 256.702,167.23193   C 256.702,165.03413 250.78795,156.80241 249.14959,155.92329   C 249.14959,164.15502 248.43032,169.11004 243.03574,171.94719   C 240.99779,170.22891 238.76004,168.151 238.76004,164.43474   L 238.76004,161.59759   C 238.76004,156.60261 243.4753,151.76747 243.4753,146.97229   C 243.4753,144.89438 243.2755,143.13614 242.0767,142.25703   C 239.95883,151.32791 227.93092,163.59558 227.93092,166.79237   z "
     style="fill:#000000;fill-rule:evenodd;fill-opacity:1;stroke:none;" />
  <path
     id="path13"
     d="  M 162.8763,138.98032   L 162.8763,272.36626   C 162.8763,275.44317 173.38574,275.20341 177.02209,275.20341   L 181.73735,275.20341   C 185.37369,275.20341 195.88313,275.44317 195.88313,272.36626   L 195.88313,138.98032   C 195.88313,128.63072 162.8763,128.7506 162.8763,138.98032   z "
     style="fill:#ffffff;fill-rule:evenodd;fill-opacity:1;stroke:none;" />
  <path
     id="path15"
     d="  M 162.8763,138.98032   C 162.8763,128.7506 195.88313,128.63072 195.88313,138.98032   L 195.88313,272.36626   C 195.88313,275.44317 185.37369,275.20341 181.73735,275.20341   L 177.02209,275.20341   C 173.38574,275.20341 162.8763,275.44317 162.8763,272.36626   z  M 175.62349,89.470079   L 160.03915,89.470079   L 160.03915,96.54297   L 175.14397,96.54297   L 175.14397,104.09538   L 166.19297,104.09538   L 166.19297,108.81064   L 175.14397,108.81064   L 175.14397,121.51787   L 164.31486,121.51787   L 164.31486,132.38695   C 161.79739,133.0263 159.5996,136.18313 159.5996,139.41988   L 159.5996,270.96767   C 159.5996,278.87971 168.59056,278.48012 176.54257,278.48012   L 182.21686,278.48012   C 190.28875,278.48012 199.15984,278.99959 199.15984,270.96767   L 199.15984,140.37891   C 199.15984,133.66566 194.92409,133.66566 194.92409,131.42791   L 194.92409,121.51787   L 183.61546,121.51787   L 183.61546,96.54297   L 198.72028,96.54297   L 198.72028,89.470079   L 182.69638,89.470079   L 182.69638,83.356224   L 175.62349,83.356224   L 175.62349,89.470079   z "
     style="fill:#000000;fill-rule:evenodd;fill-opacity:1;stroke:none;" />
</svg>
