<?xml version="1.0" encoding="UTF-8" standalone="no"?>
<svg
   xmlns:dc="http://purl.org/dc/elements/1.1/"
   xmlns:cc="http://creativecommons.org/ns#"
   xmlns:rdf="http://www.w3.org/1999/02/22-rdf-syntax-ns#"
   xmlns:svg="http://www.w3.org/2000/svg"
   xmlns="http://www.w3.org/2000/svg"
   id="svg17"
   height="95.75mm"
   width="95.75mm"
   version="1.0">
  <metadata
     id="metadata21">
    <rdf:RDF>
      <cc:Work
         rdf:about="">
        <dc:format>image/svg+xml</dc:format>
        <dc:type
           rdf:resource="http://purl.org/dc/dcmitype/StillImage" />
      </cc:Work>
    </rdf:RDF>
  </metadata>
  <defs
     id="defs3">
    <pattern
       y="0"
       x="0"
       height="6"
       width="6"
       patternUnits="userSpaceOnUse"
       id="EMFhbasepattern" />
  </defs>
  <path
     id="path5"
     d="  M 54.345381,54.345381   L 54.345381,307.53092   L 307.53092,307.53092   L 307.53092,54.345381   L 54.345381,54.345381   z "
     style="fill:#aaffaa;fill-rule:evenodd;fill-opacity:1;stroke:none;" />
  <path
     id="path7"
     d="  M 54.345381,54.345381   L 307.53092,54.345381   L 307.53092,307.53092   L 54.345381,307.53092   z "
     style="fill:none;stroke:#000000;stroke-width:9.5903616px;stroke-linecap:butt;stroke-linejoin:miter;stroke-miterlimit:10;stroke-dasharray:none;stroke-opacity:1;" />
  <path
     id="path9"
     d="  M 198.2008,180.93815   C 198.2008,190.48855 190.48855,198.2008 180.93815,198.2008   C 171.42771,198.2008 163.6755,190.48855 163.6755,180.93815   C 163.6755,171.42771 171.42771,163.6755 180.93815,163.6755   C 190.48855,163.6755 198.2008,171.42771 198.2008,180.93815   z "
     style="fill:#000000;fill-rule:evenodd;fill-opacity:1;stroke:none;" />
  <path
     id="path11"
     d="  M 198.2008,180.93815   C 198.2008,190.48855 190.48855,198.2008 180.93815,198.2008   C 171.42771,198.2008 163.6755,190.48855 163.6755,180.93815   C 163.6755,171.42771 171.42771,163.6755 180.93815,163.6755   C 190.48855,163.6755 198.2008,171.42771 198.2008,180.93815  "
     style="fill:none;stroke:#000000;stroke-width:9.5903616px;stroke-linecap:butt;stroke-linejoin:miter;stroke-miterlimit:10;stroke-dasharray:none;stroke-opacity:1;" />
  <path
     id="path13"
     d="  M 156.84237,270.96767   L 156.84237,231.60723   L 142.13715,231.60723   L 142.13715,226.33253   L 177.5016,226.33253   L 177.5016,231.60723   L 162.75642,231.60723   L 162.75642,270.96767   z  M 178.66044,270.96767   L 195.80321,226.33253   L 202.15682,226.33253   L 220.41847,270.96767   L 213.70522,270.96767   L 208.51044,257.42128   L 189.84919,257.42128   L 184.93413,270.96767   z  M 191.52751,252.6261   L 206.67229,252.6261   L 201.99699,240.27851   C 200.59839,236.52229 199.51948,233.44538 198.84016,231.00783   C 198.28072,233.88494 197.48152,236.72208 196.44257,239.55923   z "
     style="fill:#000000;fill-rule:evenodd;fill-opacity:1;stroke:none;" />
  <path
     id="path15"
     d="  M 120.67871,119.75964   C 120.67871,112.36707 122.67671,106.53293 126.63273,102.37711   C 130.62871,98.181324 135.74357,96.063452 142.05723,96.063452   C 146.17309,96.063452 149.88936,97.062448 153.16606,99.02048   C 156.48273,100.97851 159.0002,103.73574 160.75843,107.25221   C 162.4767,110.76867 163.35582,114.76466 163.35582,119.24016   C 163.35582,123.75562 162.43674,127.79156 160.59859,131.38795   C 158.8004,134.94438 156.20301,137.66164 152.84638,139.4998   C 149.48976,141.33795 145.89337,142.25703 142.01727,142.25703   C 137.82148,142.25703 134.06526,141.21807 130.74859,139.22008   C 127.43193,137.18213 124.95442,134.4249 123.23614,130.90843   C 121.51787,127.39197 120.67871,123.6757 120.67871,119.75964   z  M 126.75261,119.83956   C 126.75261,125.23413 128.19116,129.46988 131.10823,132.54679   C 133.98534,135.66365 137.62168,137.18213 141.97731,137.18213   C 146.41285,137.18213 150.08915,135.62369 152.96626,132.50683   C 155.84337,129.38996 157.24197,124.95442 157.24197,119.2002   C 157.24197,115.56385 156.64257,112.40703 155.40381,109.68976   C 154.20502,106.97249 152.40683,104.89458 150.04919,103.3761   C 147.6516,101.89759 145.01425,101.13835 142.05723,101.13835   C 137.9014,101.13835 134.30502,102.57691 131.26807,105.45401   C 128.27108,108.33112 126.75261,113.1263 126.75261,119.83956   z  M 170.94819,141.49779   L 170.94819,96.862649   L 187.77128,96.862649   C 190.76827,96.862649 193.00602,97.022489 194.56446,97.302207   C 196.76225,97.661846 198.6004,98.341163 200.07891,99.380119   C 201.55743,100.41907 202.75622,101.85763 203.6753,103.69578   C 204.55441,105.53393 205.03393,107.57189 205.03393,109.76968   C 205.03393,113.56586 203.79518,116.76265 201.39759,119.4   C 199,122.03735 194.60441,123.35602 188.29076,123.35602   L 176.86225,123.35602   L 176.86225,141.49779   z  M 176.86225,118.08132   L 188.41064,118.08132   C 192.20682,118.08132 194.92409,117.36205 196.52249,115.96345   C 198.12088,114.5249 198.92008,112.52691 198.92008,109.96948   C 198.92008,108.09136 198.44056,106.49297 197.52148,105.1743   C 196.56245,103.81566 195.32369,102.93654 193.80522,102.53695   C 192.80622,102.25723 190.96807,102.13735 188.29076,102.13735   L 176.86225,102.13735   z  M 223.89498,141.49779   L 223.89498,102.13735   L 209.18976,102.13735   L 209.18976,96.862649   L 244.55421,96.862649   L 244.55421,102.13735   L 229.80903,102.13735   L 229.80903,141.49779   z "
     style="fill:#000000;fill-rule:evenodd;fill-opacity:1;stroke:none;" />
</svg>
