<?xml version="1.0" encoding="UTF-8" standalone="no"?>
<svg
   xmlns:dc="http://purl.org/dc/elements/1.1/"
   xmlns:cc="http://creativecommons.org/ns#"
   xmlns:rdf="http://www.w3.org/1999/02/22-rdf-syntax-ns#"
   xmlns:svg="http://www.w3.org/2000/svg"
   xmlns="http://www.w3.org/2000/svg"
   id="svg17"
   height="116.73mm"
   width="116.73mm"
   version="1.0">
  <metadata
     id="metadata21">
    <rdf:RDF>
      <cc:Work
         rdf:about="">
        <dc:format>image/svg+xml</dc:format>
        <dc:type
           rdf:resource="http://purl.org/dc/dcmitype/StillImage" />
      </cc:Work>
    </rdf:RDF>
  </metadata>
  <defs
     id="defs3">
    <pattern
       y="0"
       x="0"
       height="6"
       width="6"
       patternUnits="userSpaceOnUse"
       id="EMFhbasepattern" />
  </defs>
  <path
     id="path5"
     d="  M 220.57831,386.49156   L 220.57831,386.49156   L 386.49156,220.57831   L 220.57831,54.665059   L 54.665059,220.57831   L 220.57831,386.49156   z "
     style="fill:#ff8080;fill-rule:evenodd;fill-opacity:1;stroke:none;" />
  <path
     id="path7"
     d="  M 220.57831,386.49156   L 220.57831,386.49156   L 386.49156,220.57831   L 220.57831,54.665059   L 54.665059,220.57831   L 220.57831,386.49156  "
     style="fill:none;stroke:#000000;stroke-width:9.5903616px;stroke-linecap:butt;stroke-linejoin:miter;stroke-miterlimit:10;stroke-dasharray:none;stroke-opacity:1;" />
  <path
     id="path9"
     d="  M 237.84096,220.57831   C 237.84096,230.12871 230.12871,237.84096 220.57831,237.84096   C 211.06787,237.84096 203.31566,230.12871 203.31566,220.57831   C 203.31566,211.06787 211.06787,203.31566 220.57831,203.31566   C 230.12871,203.31566 237.84096,211.06787 237.84096,220.57831   z "
     style="fill:#000000;fill-rule:evenodd;fill-opacity:1;stroke:none;" />
  <path
     id="path11"
     d="  M 237.84096,220.57831   C 237.84096,230.12871 230.12871,237.84096 220.57831,237.84096   C 211.06787,237.84096 203.31566,230.12871 203.31566,220.57831   C 203.31566,211.06787 211.06787,203.31566 220.57831,203.31566   C 230.12871,203.31566 237.84096,211.06787 237.84096,220.57831  "
     style="fill:none;stroke:#000000;stroke-width:9.5903616px;stroke-linecap:butt;stroke-linejoin:miter;stroke-miterlimit:10;stroke-dasharray:none;stroke-opacity:1;" />
  <path
     id="path13"
     d="  M 196.48253,310.60783   L 196.48253,271.24739   L 181.77731,271.24739   L 181.77731,265.97269   L 217.14176,265.97269   L 217.14176,271.24739   L 202.39658,271.24739   L 202.39658,310.60783   z  M 218.3006,310.60783   L 235.44337,265.97269   L 241.79698,265.97269   L 260.05863,310.60783   L 253.34538,310.60783   L 248.1506,297.06144   L 229.48935,297.06144   L 224.57429,310.60783   z  M 231.16767,292.26626   L 246.31245,292.26626   L 241.63715,279.91867   C 240.23855,276.16245 239.15964,273.08554 238.48032,270.64799   C 237.92088,273.5251 237.12168,276.36225 236.08273,279.19939   z "
     style="fill:#000000;fill-rule:evenodd;fill-opacity:1;stroke:none;" />
  <path
     id="path15"
     d="  M 160.31887,159.3998   C 160.31887,152.00723 162.31687,146.17309 166.27289,142.01727   C 170.26887,137.82148 175.38373,135.70361 181.69739,135.70361   C 185.81325,135.70361 189.52952,136.70261 192.80622,138.66064   C 196.12289,140.61867 198.64036,143.3759 200.39859,146.89237   C 202.11686,150.40883 202.99598,154.40482 202.99598,158.88032   C 202.99598,163.39578 202.0769,167.43172 200.23875,171.02811   C 198.44056,174.58454 195.84317,177.3018 192.48654,179.13996   C 189.12992,180.97811 185.53353,181.89719 181.65743,181.89719   C 177.46164,181.89719 173.70542,180.85823 170.38875,178.86024   C 167.07209,176.82229 164.59458,174.06506 162.8763,170.54859   C 161.15803,167.03213 160.31887,163.31586 160.31887,159.3998   z  M 166.39277,159.47972   C 166.39277,164.87429 167.83132,169.11004 170.74839,172.18695   C 173.6255,175.30381 177.26184,176.82229 181.61747,176.82229   C 186.05301,176.82229 189.72931,175.26385 192.60642,172.14699   C 195.48353,169.03012 196.88213,164.59458 196.88213,158.84036   C 196.88213,155.20401 196.28273,152.04719 195.04397,149.32992   C 193.84518,146.61265 192.04699,144.53474 189.68935,143.01626   C 187.29176,141.53775 184.65442,140.77851 181.69739,140.77851   C 177.54156,140.77851 173.94518,142.21707 170.90823,145.09417   C 167.91124,147.97128 166.39277,152.76646 166.39277,159.47972   z  M 210.58835,181.13795   L 210.58835,136.50281   L 227.41144,136.50281   C 230.40843,136.50281 232.64618,136.66265 234.20462,136.94237   C 236.40241,137.30201 238.24056,137.98132 239.71907,139.02028   C 241.19759,140.05923 242.39638,141.49779 243.31546,143.33594   C 244.19457,145.17409 244.67409,147.21205 244.67409,149.40984   C 244.67409,153.20602 243.43534,156.40281 241.03775,159.04016   C 238.64016,161.67751 234.24457,162.99618 227.93092,162.99618   L 216.50241,162.99618   L 216.50241,181.13795   z  M 216.50241,157.72148   L 228.0508,157.72148   C 231.84698,157.72148 234.56425,157.00221 236.16265,155.60361   C 237.76104,154.16506 238.56024,152.16707 238.56024,149.60964   C 238.56024,147.73152 238.08072,146.13313 237.16164,144.81446   C 236.20261,143.45582 234.96385,142.5767 233.44538,142.17711   C 232.44638,141.89739 230.60823,141.77751 227.93092,141.77751   L 216.50241,141.77751   z  M 263.53514,181.13795   L 263.53514,141.77751   L 248.82992,141.77751   L 248.82992,136.50281   L 284.19437,136.50281   L 284.19437,141.77751   L 269.44919,141.77751   L 269.44919,181.13795   z "
     style="fill:#000000;fill-rule:evenodd;fill-opacity:1;stroke:none;" />
</svg>
