<?xml version="1.0" encoding="UTF-8" standalone="no"?>
<svg
   xmlns:dc="http://purl.org/dc/elements/1.1/"
   xmlns:cc="http://creativecommons.org/ns#"
   xmlns:rdf="http://www.w3.org/1999/02/22-rdf-syntax-ns#"
   xmlns:svg="http://www.w3.org/2000/svg"
   xmlns="http://www.w3.org/2000/svg"
   id="svg11"
   height="95.75mm"
   width="95.75mm"
   version="1.0">
  <metadata
     id="metadata15">
    <rdf:RDF>
      <cc:Work
         rdf:about="">
        <dc:format>image/svg+xml</dc:format>
        <dc:type
           rdf:resource="http://purl.org/dc/dcmitype/StillImage" />
      </cc:Work>
    </rdf:RDF>
  </metadata>
  <defs
     id="defs3">
    <pattern
       y="0"
       x="0"
       height="6"
       width="6"
       patternUnits="userSpaceOnUse"
       id="EMFhbasepattern" />
  </defs>
  <path
     id="path5"
     d="  M 54.345381,54.345381   L 54.345381,307.53092   L 307.53092,307.53092   L 307.53092,54.345381   L 54.345381,54.345381   z "
     style="fill:#aaffaa;fill-rule:evenodd;fill-opacity:1;stroke:none;" />
  <path
     id="path7"
     d="  M 54.345381,54.345381   L 307.53092,54.345381   L 307.53092,307.53092   L 54.345381,307.53092   z "
     style="fill:none;stroke:#000000;stroke-width:9.5903616px;stroke-linecap:butt;stroke-linejoin:miter;stroke-miterlimit:10;stroke-dasharray:none;stroke-opacity:1;" />
  <path
     id="path9"
     d="  M 94.465059,216.18273   L 131.34799,120.07932   L 145.05421,120.07932   L 184.3747,216.18273   L 169.90923,216.18273   L 158.68052,187.09197   L 118.52088,187.09197   L 107.97148,216.18273   z  M 122.19719,176.74237   L 154.76446,176.74237   L 144.73454,150.08915   C 141.65763,142.01727 139.41988,135.38393 137.9014,130.18915   C 136.70261,136.34297 134.94438,142.45683 132.74658,148.53072   z  M 190.20883,185.29377   L 202.23674,184.25482   C 202.79618,189.08996 204.11486,193.00602 206.19277,196.08293   C 208.27068,199.1998 211.50743,201.67731 215.86305,203.55542   C 220.21867,205.47349 225.13373,206.43253 230.60823,206.43253   C 235.48333,206.43253 239.75903,205.71325 243.4753,204.2747   C 247.19156,202.83614 249.94879,200.83815 251.74698,198.32068   C 253.58514,195.80321 254.46425,193.08594 254.46425,190.08895   C 254.46425,187.09197 253.58514,184.45462 251.86686,182.21686   C 250.10863,179.93915 247.23152,178.06104 243.19558,176.54257   C 240.63815,175.54357 234.92389,173.98514 226.09277,171.82731   C 217.26164,169.70944 211.06787,167.71144 207.5514,165.83333   C 202.95602,163.43574 199.51948,160.47871 197.28172,156.88233   C 195.04397,153.3259 193.88514,149.32992 193.88514,144.93434   C 193.88514,140.09919 195.28373,135.54377 198.04096,131.34799   C 200.79819,127.11225 204.79417,123.91546 210.10883,121.71767   C 215.38353,119.51988 221.25763,118.44096 227.73112,118.44096   C 234.84397,118.44096 241.11767,119.5998 246.59217,121.87751   C 252.0267,124.19518 256.22249,127.55181 259.13955,132.02731   C 262.05662,136.46285 263.61506,141.53775 263.85482,147.17209   L 251.66706,148.09116   C 250.98775,142.01727 248.78996,137.42189 244.99377,134.30502   C 241.23755,131.22811 235.64317,129.66968 228.2506,129.66968   C 220.57831,129.66968 214.94397,131.06827 211.42751,133.86546   C 207.91104,136.70261 206.15281,140.09919 206.15281,144.05522   C 206.15281,147.53172 207.39156,150.36887 209.90903,152.60662   C 212.34658,154.84438 218.74016,157.12209 229.08976,159.43976   C 239.39939,161.79739 246.51225,163.83534 250.34839,165.59357   C 255.94277,168.151 260.05863,171.42771 262.73594,175.38373   C 265.41325,179.33976 266.73192,183.89518 266.73192,189.05   C 266.73192,194.16486 265.29337,199 262.33634,203.51546   C 259.41927,208.03092 255.22349,211.54739 249.70903,214.06486   C 244.23453,216.58233 238.08072,217.82108 231.20763,217.82108   C 222.49638,217.82108 215.22369,216.58233 209.3496,214.0249   C 203.4755,211.50743 198.84016,207.67128 195.52349,202.59638   C 192.16686,197.52148 190.40863,191.72731 190.20883,185.29377   z "
     style="fill:#000000;fill-rule:evenodd;fill-opacity:1;stroke:none;" />
</svg>
