<?xml version="1.0" encoding="UTF-8" standalone="no"?>
<svg
   xmlns:dc="http://purl.org/dc/elements/1.1/"
   xmlns:cc="http://creativecommons.org/ns#"
   xmlns:rdf="http://www.w3.org/1999/02/22-rdf-syntax-ns#"
   xmlns:svg="http://www.w3.org/2000/svg"
   xmlns="http://www.w3.org/2000/svg"
   id="svg11"
   height="130.27mm"
   width="130.27mm"
   version="1.0">
  <metadata
     id="metadata15">
    <rdf:RDF>
      <cc:Work
         rdf:about="">
        <dc:format>image/svg+xml</dc:format>
        <dc:type
           rdf:resource="http://purl.org/dc/dcmitype/StillImage" />
      </cc:Work>
    </rdf:RDF>
  </metadata>
  <defs
     id="defs3">
    <pattern
       y="0"
       x="0"
       height="6"
       width="6"
       patternUnits="userSpaceOnUse"
       id="EMFhbasepattern" />
  </defs>
  <path
     id="path5"
     d="  M 164.63454,327.67068   C 164.63454,437.95983 327.67068,437.95983 327.67068,327.67068   C 437.95983,327.67068 437.95983,164.63454 327.67068,164.63454   C 327.67068,54.345381 164.63454,54.345381 164.63454,164.63454   C 54.345381,164.63454 54.345381,327.67068 164.63454,327.67068   z "
     style="fill:#ffff80;fill-rule:evenodd;fill-opacity:1;stroke:none;" />
  <path
     id="path7"
     d="  M 164.63454,327.67068   C 164.63454,437.95983 327.67068,437.95983 327.67068,327.67068   C 437.95983,327.67068 437.95983,164.63454 327.67068,164.63454   C 327.67068,54.345381 164.63454,54.345381 164.63454,164.63454   C 54.345381,164.63454 54.345381,327.67068 164.63454,327.67068  "
     style="fill:none;stroke:#000000;stroke-width:9.5903616px;stroke-linecap:butt;stroke-linejoin:miter;stroke-miterlimit:10;stroke-dasharray:none;stroke-opacity:1;" />
  <path
     id="path9"
     d="  M 159.67952,281.39718   L 196.56245,185.29377   L 210.26867,185.29377   L 249.58915,281.39718   L 235.12369,281.39718   L 223.89498,252.30642   L 183.73534,252.30642   L 173.18594,281.39718   z  M 187.41164,241.95682   L 219.97891,241.95682   L 209.94899,215.30361   C 206.87209,207.23172 204.63433,200.59839 203.11586,195.40361   C 201.91707,201.55743 200.15883,207.67128 197.96104,213.74518   z  M 255.42329,250.50823   L 267.4512,249.46927   C 268.01064,254.30441 269.32931,258.22048 271.40722,261.29739   C 273.48514,264.41425 276.72188,266.89176 281.07751,268.76988   C 285.43313,270.68795 290.34819,271.64698 295.82269,271.64698   C 300.69779,271.64698 304.97349,270.92771 308.68975,269.48915   C 312.40602,268.0506 315.16325,266.05261 316.96144,263.53514   C 318.79959,261.01767 319.67871,258.3004 319.67871,255.30341   C 319.67871,252.30642 318.79959,249.66907 317.08132,247.43132   C 315.32309,245.15361 312.44598,243.2755 308.41004,241.75702   C 305.85261,240.75803 300.13835,239.19959 291.30722,237.04176   C 282.4761,234.92389 276.28233,232.9259 272.76586,231.04779   C 268.17048,228.6502 264.73393,225.69317 262.49618,222.09678   C 260.25843,218.54036 259.09959,214.54437 259.09959,210.14879   C 259.09959,205.31365 260.49819,200.75823 263.25542,196.56245   C 266.01265,192.3267 270.00863,189.12992 275.32329,186.93213   C 280.59799,184.73433 286.47208,183.65542 292.94558,183.65542   C 300.05843,183.65542 306.33212,184.81425 311.80662,187.09197   C 317.24116,189.40964 321.43694,192.76626 324.35401,197.24176   C 327.27108,201.67731 328.82951,206.75221 329.06927,212.38654   L 316.88152,213.30562   C 316.2022,207.23172 314.00441,202.63634 310.20823,199.51948   C 306.452,196.44257 300.85763,194.88413 293.46506,194.88413   C 285.79277,194.88413 280.15843,196.28273 276.64196,199.07992   C 273.1255,201.91707 271.36727,205.31365 271.36727,209.26968   C 271.36727,212.74618 272.60602,215.58333 275.12349,217.82108   C 277.56104,220.05883 283.95461,222.33654 294.30421,224.65421   C 304.61385,227.01184 311.7267,229.0498 315.56285,230.80803   C 321.15722,233.36546 325.27309,236.64217 327.9504,240.59819   C 330.62771,244.55421 331.94638,249.10963 331.94638,254.26445   C 331.94638,259.37931 330.50783,264.21445 327.5508,268.72992   C 324.63373,273.24538 320.43795,276.76184 314.92349,279.27931   C 309.44899,281.79678 303.29518,283.03554 296.42208,283.03554   C 287.71084,283.03554 280.43815,281.79678 274.56405,279.23935   C 268.68996,276.72188 264.05461,272.88574 260.73795,267.81084   C 257.38132,262.73594 255.62309,256.94176 255.42329,250.50823   z "
     style="fill:#000000;fill-rule:evenodd;fill-opacity:1;stroke:none;" />
</svg>
