<?xml version="1.0" encoding="UTF-8" standalone="no"?>
<svg
   xmlns:dc="http://purl.org/dc/elements/1.1/"
   xmlns:cc="http://creativecommons.org/ns#"
   xmlns:rdf="http://www.w3.org/1999/02/22-rdf-syntax-ns#"
   xmlns:svg="http://www.w3.org/2000/svg"
   xmlns="http://www.w3.org/2000/svg"
   id="svg15"
   height="116.05mm"
   width="135.35001mm"
   version="1.0">
  <metadata
     id="metadata19">
    <rdf:RDF>
      <cc:Work
         rdf:about="">
        <dc:format>image/svg+xml</dc:format>
        <dc:type
           rdf:resource="http://purl.org/dc/dcmitype/StillImage" />
      </cc:Work>
    </rdf:RDF>
  </metadata>
  <defs
     id="defs3">
    <pattern
       y="0"
       x="0"
       height="6"
       width="6"
       patternUnits="userSpaceOnUse"
       id="EMFhbasepattern" />
  </defs>
  <path
     id="path5"
     d="  M 174.2249,54.345381   C 54.345381,54.345381 54.345381,250.94779 174.2249,250.94779   C 174.2249,384.25381 337.26104,384.25381 337.26104,250.94779   C 457.14056,250.94779 457.14056,54.345381 337.26104,54.345381  "
     style="fill:none;stroke:#ffff00;stroke-width:9.5903616px;stroke-linecap:butt;stroke-linejoin:miter;stroke-miterlimit:10;stroke-dasharray:none;stroke-opacity:1;" />
  <path
     id="path7"
     d="  M 229.56927,95.783734   L 229.56927,95.783734   L 282.31626,95.783734   L 319.23915,132.70662   L 319.23915,185.45361   L 282.31626,222.3765   L 229.56927,222.3765   L 192.64638,185.45361   L 192.64638,132.70662   z "
     style="fill:#008000;fill-rule:evenodd;fill-opacity:1;stroke:none;" />
  <path
     id="path9"
     d="  M 229.56927,95.783734   L 229.56927,95.783734   L 282.31626,95.783734   L 319.23915,132.70662   L 319.23915,185.45361   L 282.31626,222.3765   L 229.56927,222.3765   L 192.64638,185.45361   L 192.64638,132.70662   z "
     style="fill:none;stroke:#000000;stroke-width:10.549397px;stroke-linecap:butt;stroke-linejoin:miter;stroke-miterlimit:10;stroke-dasharray:none;stroke-opacity:1;" />
  <path
     id="path11"
     d="  M 238.36044,182.3767   L 238.36044,120.59879   L 246.752,120.59879   L 279.19939,169.11004   L 279.19939,120.59879   L 287.03152,120.59879   L 287.03152,182.3767   L 278.63996,182.3767   L 246.19257,133.8255   L 246.19257,182.3767   z "
     style="fill:#000000;fill-rule:evenodd;fill-opacity:1;stroke:none;" />
  <path
     id="path13"
     d="  M 198.2008,265.33333   L 198.2008,265.33333   L 212.58634,231.76706   L 226.97188,265.33333   L 241.35743,231.76706   L 255.74297,265.33333   L 270.12851,231.76706   L 284.51405,265.33333   L 298.89959,231.76706   L 313.28514,265.33333  "
     style="fill:none;stroke:#000000;stroke-width:9.5903616px;stroke-linecap:butt;stroke-linejoin:miter;stroke-miterlimit:10;stroke-dasharray:none;stroke-opacity:1;" />
</svg>
