<?xml version="1.0" encoding="UTF-8" standalone="no"?>
<svg
   xmlns:dc="http://purl.org/dc/elements/1.1/"
   xmlns:cc="http://creativecommons.org/ns#"
   xmlns:rdf="http://www.w3.org/1999/02/22-rdf-syntax-ns#"
   xmlns:svg="http://www.w3.org/2000/svg"
   xmlns="http://www.w3.org/2000/svg"
   id="svg25"
   height="67.160004mm"
   width="90.519997mm"
   version="1.0">
  <metadata
     id="metadata29">
    <rdf:RDF>
      <cc:Work
         rdf:about="">
        <dc:format>image/svg+xml</dc:format>
        <dc:type
           rdf:resource="http://purl.org/dc/dcmitype/StillImage" />
      </cc:Work>
    </rdf:RDF>
  </metadata>
  <defs
     id="defs3">
    <pattern
       y="0"
       x="0"
       height="6"
       width="6"
       patternUnits="userSpaceOnUse"
       id="EMFhbasepattern" />
  </defs>
  <path
     id="path5"
     d="  M 83.116465,110.92851   L 83.116465,223.13574   L 255.74297,223.13574   L 255.74297,110.92851   L 83.116465,110.92851   z "
     style="fill:#ffffff;fill-rule:evenodd;fill-opacity:1;stroke:none;" />
  <path
     id="path7"
     d="  M 83.116465,110.92851   L 255.74297,110.92851   L 255.74297,223.13574   L 83.116465,223.13574   z "
     style="fill:none;stroke:#000000;stroke-width:4.7951808px;stroke-linecap:butt;stroke-linejoin:miter;stroke-miterlimit:10;stroke-dasharray:none;stroke-opacity:1;" />
  <path
     id="path9"
     d="  M 83.116465,109.96948   L 83.116465,109.96948   L 169.42972,30.369477   L 255.74297,109.96948   z "
     style="fill:#ffffff;fill-rule:evenodd;fill-opacity:1;stroke:none;" />
  <path
     id="path11"
     d="  M 83.116465,109.96948   L 83.116465,109.96948   L 169.42972,30.369477   L 255.74297,109.96948   z "
     style="fill:none;stroke:#000000;stroke-width:4.7951808px;stroke-linecap:butt;stroke-linejoin:miter;stroke-miterlimit:10;stroke-dasharray:none;stroke-opacity:1;" />
  <path
     id="path13"
     d="  M 28.451405,217.86104   L 28.451405,241.83694   L 313.28514,241.83694   L 313.28514,217.86104   L 28.451405,217.86104   z "
     style="fill:#000000;fill-rule:evenodd;fill-opacity:1;stroke:none;" />
  <path
     id="path15"
     d="  M 28.451405,217.86104   L 313.28514,217.86104   L 313.28514,241.83694   L 28.451405,241.83694   z "
     style="fill:none;stroke:#000000;stroke-width:0.95903611px;stroke-linecap:butt;stroke-linejoin:miter;stroke-miterlimit:10;stroke-dasharray:none;stroke-opacity:1;" />
  <path
     id="path17"
     d="  M 30.369477,219.77911   L 30.369477,196.76225  "
     style="fill:none;stroke:#000000;stroke-width:4.7951808px;stroke-linecap:butt;stroke-linejoin:miter;stroke-miterlimit:10;stroke-dasharray:none;stroke-opacity:1;" />
  <path
     id="path19"
     d="  M 311.36706,219.77911   L 311.36706,196.76225  "
     style="fill:none;stroke:#000000;stroke-width:4.7951808px;stroke-linecap:butt;stroke-linejoin:miter;stroke-miterlimit:10;stroke-dasharray:none;stroke-opacity:1;" />
  <path
     id="path21"
     d="  M 31.368473,195.04397   C 46.473293,236.64217 71.008634,195.96305 73.246384,196.64237   C 84.39518,199.91907 79.560039,213.78514 98.820681,210.38855   C 105.41405,209.22972 116.44297,197.12188 119.5998,196.96205   C 127.7516,196.48253 131.42791,217.58132 148.0512,213.58534   C 155.84337,211.70723 160.99819,199.55943 166.59257,198.24076   C 171.42771,197.08192 171.90723,206.35261 174.26486,208.47048   C 180.41867,213.98494 193.84518,215.66325 201.43755,212.94598   C 210.42851,209.70923 211.18775,197.04197 217.42148,194.40462   C 224.09478,191.52751 223.93494,209.3496 230.84799,211.66727   C 253.38534,219.17972 252.46626,200.03895 265.69297,193.44558   C 269.60903,191.48755 268.09056,202.11686 270.80783,205.59337   C 279.99859,217.3016 297.501,208.1508 305.97249,200.15883   C 309.08935,197.16184 309.56887,195.96305 311.08734,201.11787   C 311.88654,203.91506 313.16526,219.81907 311.08734,221.89698   C 308.29016,224.65421 294.22429,226.25261 292.86566,226.37249   C 264.21445,228.53032 36.842971,230.40843 30.089759,215.50341   z "
     style="fill:#000000;fill-rule:evenodd;fill-opacity:1;stroke:none;" />
  <path
     id="path23"
     d="  M 31.368473,195.04397   C 46.473293,236.64217 71.008634,195.96305 73.246384,196.64237   C 84.39518,199.91907 79.560039,213.78514 98.820681,210.38855   C 105.41405,209.22972 116.44297,197.12188 119.5998,196.96205   C 127.7516,196.48253 131.42791,217.58132 148.0512,213.58534   C 155.84337,211.70723 160.99819,199.55943 166.59257,198.24076   C 171.42771,197.08192 171.90723,206.35261 174.26486,208.47048   C 180.41867,213.98494 193.84518,215.66325 201.43755,212.94598   C 210.42851,209.70923 211.18775,197.04197 217.42148,194.40462   C 224.09478,191.52751 223.93494,209.3496 230.84799,211.66727   C 253.38534,219.17972 252.46626,200.03895 265.69297,193.44558   C 269.60903,191.48755 268.09056,202.11686 270.80783,205.59337   C 279.99859,217.3016 297.501,208.1508 305.97249,200.15883   C 309.08935,197.16184 309.56887,195.96305 311.08734,201.11787   C 311.88654,203.91506 313.16526,219.81907 311.08734,221.89698   C 308.29016,224.65421 294.22429,226.25261 292.86566,226.37249   C 264.21445,228.53032 36.842971,230.40843 30.089759,215.50341  "
     style="fill:none;stroke:#000000;stroke-width:0.95903611px;stroke-linecap:butt;stroke-linejoin:miter;stroke-miterlimit:10;stroke-dasharray:none;stroke-opacity:1;" />
</svg>
