<?xml version="1.0" encoding="UTF-8" standalone="no"?>
<svg
   xmlns:dc="http://purl.org/dc/elements/1.1/"
   xmlns:cc="http://creativecommons.org/ns#"
   xmlns:rdf="http://www.w3.org/1999/02/22-rdf-syntax-ns#"
   xmlns:svg="http://www.w3.org/2000/svg"
   xmlns="http://www.w3.org/2000/svg"
   id="svg19"
   height="130.27mm"
   width="130.27mm"
   version="1.0">
  <metadata
     id="metadata23">
    <rdf:RDF>
      <cc:Work
         rdf:about="">
        <dc:format>image/svg+xml</dc:format>
        <dc:type
           rdf:resource="http://purl.org/dc/dcmitype/StillImage" />
      </cc:Work>
    </rdf:RDF>
  </metadata>
  <defs
     id="defs3">
    <pattern
       y="0"
       x="0"
       height="6"
       width="6"
       patternUnits="userSpaceOnUse"
       id="EMFhbasepattern" />
  </defs>
  <path
     id="path5"
     d="  M 198.2008,63.935742   L 198.2008,111.88755   L 294.10441,111.88755   L 294.10441,63.935742   L 198.2008,63.935742   z "
     style="fill:#000000;fill-rule:evenodd;fill-opacity:1;stroke:none;" />
  <path
     id="path7"
     d="  M 164.63454,327.67068   C 164.63454,437.95983 327.67068,437.95983 327.67068,327.67068   C 437.95983,327.67068 437.95983,164.63454 327.67068,164.63454   C 327.67068,54.345381 164.63454,54.345381 164.63454,164.63454   C 54.345381,164.63454 54.345381,327.67068 164.63454,327.67068   z "
     style="fill:#ffff80;fill-rule:evenodd;fill-opacity:1;stroke:none;" />
  <path
     id="path9"
     d="  M 164.63454,327.67068   C 164.63454,437.95983 327.67068,437.95983 327.67068,327.67068   C 437.95983,327.67068 437.95983,164.63454 327.67068,164.63454   C 327.67068,54.345381 164.63454,54.345381 164.63454,164.63454   C 54.345381,164.63454 54.345381,327.67068 164.63454,327.67068  "
     style="fill:none;stroke:#000000;stroke-width:9.5903616px;stroke-linecap:butt;stroke-linejoin:miter;stroke-miterlimit:10;stroke-dasharray:none;stroke-opacity:1;" />
  <path
     id="path11"
     d="  M 262.45622,202.51646   C 222.1767,202.51646 222.1767,279.71887 262.45622,279.71887  "
     style="fill:none;stroke:#000000;stroke-width:6.713253px;stroke-linecap:butt;stroke-linejoin:miter;stroke-miterlimit:10;stroke-dasharray:none;stroke-opacity:1;" />
  <path
     id="path13"
     d="  M 262.45622,202.51646   C 242.31646,202.51646 242.31646,279.71887 262.45622,279.71887  "
     style="fill:none;stroke:#000000;stroke-width:6.713253px;stroke-linecap:butt;stroke-linejoin:miter;stroke-miterlimit:10;stroke-dasharray:none;stroke-opacity:1;" />
  <path
     id="path15"
     d="  M 205.99297,191.56747   L 205.99297,155.88333   L 221.81707,155.88333   C 224.97389,155.88333 227.41144,156.20301 229.0498,156.84237   C 230.72811,157.48172 232.04678,158.6006 233.04578,160.23895   C 234.00482,161.87731 234.52429,163.6755 234.52429,165.63353   C 234.52429,168.151 233.68514,170.30883 232.04678,172.02711   C 230.40843,173.74538 227.89096,174.86425 224.45441,175.34377   C 225.69317,175.94317 226.65221,176.54257 227.29156,177.10201   C 228.69016,178.38072 230.00883,179.97911 231.20763,181.85723   L 237.44136,191.56747   L 231.48735,191.56747   L 226.77209,184.13494   C 225.37349,182.01707 224.25462,180.37871 223.3755,179.21988   C 222.45642,178.101 221.65723,177.3018 220.97791,176.86225   C 220.25863,176.38273 219.53935,176.06305 218.82008,175.90321   C 218.26064,175.78333 217.38152,175.74337 216.18273,175.74337   L 210.70823,175.74337   L 210.70823,191.56747   z  M 210.70823,171.62751   L 220.85803,171.62751   C 223.01586,171.62751 224.69417,171.42771 225.93293,170.94819   C 227.13172,170.50863 228.0508,169.78935 228.69016,168.83032   C 229.32951,167.83132 229.64919,166.79237 229.64919,165.63353   C 229.64919,163.91526 229.0498,162.55662 227.81104,161.43775   C 226.57229,160.35883 224.65421,159.83936 222.01686,159.83936   L 210.70823,159.83936   z  M 250.98775,191.56747   L 250.98775,160.07911   L 239.23955,160.07911   L 239.23955,155.88333   L 267.53112,155.88333   L 267.53112,160.07911   L 255.74297,160.07911   L 255.74297,191.56747   z  M 272.16646,191.56747   L 272.16646,155.88333   L 276.92168,155.88333   L 276.92168,187.37168   L 294.50401,187.37168   L 294.50401,191.56747   z "
     style="fill:#000000;fill-rule:evenodd;fill-opacity:1;stroke:none;" />
  <path
     id="path17"
     d="  M 92.706826,289.30923   L 399.59839,289.30923  "
     style="fill:none;stroke:#000000;stroke-width:9.5903616px;stroke-linecap:butt;stroke-linejoin:miter;stroke-miterlimit:10;stroke-dasharray:none;stroke-opacity:1;" />
</svg>
