<?xml version="1.0" encoding="UTF-8" standalone="no"?>
<svg
   xmlns:dc="http://purl.org/dc/elements/1.1/"
   xmlns:cc="http://creativecommons.org/ns#"
   xmlns:rdf="http://www.w3.org/1999/02/22-rdf-syntax-ns#"
   xmlns:svg="http://www.w3.org/2000/svg"
   xmlns="http://www.w3.org/2000/svg"
   id="svg19"
   height="130.27mm"
   width="130.27mm"
   version="1.0">
  <metadata
     id="metadata23">
    <rdf:RDF>
      <cc:Work
         rdf:about="">
        <dc:format>image/svg+xml</dc:format>
        <dc:type
           rdf:resource="http://purl.org/dc/dcmitype/StillImage" />
      </cc:Work>
    </rdf:RDF>
  </metadata>
  <defs
     id="defs3">
    <pattern
       y="0"
       x="0"
       height="6"
       width="6"
       patternUnits="userSpaceOnUse"
       id="EMFhbasepattern" />
  </defs>
  <path
     id="path5"
     d="  M 198.2008,63.935742   L 198.2008,111.88755   L 294.10441,111.88755   L 294.10441,63.935742   L 198.2008,63.935742   z "
     style="fill:#000000;fill-rule:evenodd;fill-opacity:1;stroke:none;" />
  <path
     id="path7"
     d="  M 164.63454,327.67068   C 164.63454,437.95983 327.67068,437.95983 327.67068,327.67068   C 437.95983,327.67068 437.95983,164.63454 327.67068,164.63454   C 327.67068,54.345381 164.63454,54.345381 164.63454,164.63454   C 54.345381,164.63454 54.345381,327.67068 164.63454,327.67068   z "
     style="fill:#ffff80;fill-rule:evenodd;fill-opacity:1;stroke:none;" />
  <path
     id="path9"
     d="  M 164.63454,327.67068   C 164.63454,437.95983 327.67068,437.95983 327.67068,327.67068   C 437.95983,327.67068 437.95983,164.63454 327.67068,164.63454   C 327.67068,54.345381 164.63454,54.345381 164.63454,164.63454   C 54.345381,164.63454 54.345381,327.67068 164.63454,327.67068  "
     style="fill:none;stroke:#000000;stroke-width:9.5903616px;stroke-linecap:butt;stroke-linejoin:miter;stroke-miterlimit:10;stroke-dasharray:none;stroke-opacity:1;" />
  <path
     id="path11"
     d="  M 262.45622,202.51646   C 222.1767,202.51646 222.1767,279.71887 262.45622,279.71887  "
     style="fill:none;stroke:#000000;stroke-width:6.713253px;stroke-linecap:butt;stroke-linejoin:miter;stroke-miterlimit:10;stroke-dasharray:none;stroke-opacity:1;" />
  <path
     id="path13"
     d="  M 262.45622,202.51646   C 242.31646,202.51646 242.31646,279.71887 262.45622,279.71887  "
     style="fill:none;stroke:#000000;stroke-width:6.713253px;stroke-linecap:butt;stroke-linejoin:miter;stroke-miterlimit:10;stroke-dasharray:none;stroke-opacity:1;" />
  <path
     id="path15"
     d="  M 180.97811,191.56747   L 180.97811,155.88333   L 194.44458,155.88333   C 196.80221,155.88333 198.6004,156.00321 199.87911,156.20301   C 201.59739,156.52269 203.0759,157.08213 204.2747,157.88132   C 205.47349,158.72048 206.39257,159.87931 207.1518,161.31787   C 207.87108,162.79638 208.23072,164.43474 208.23072,166.19297   C 208.23072,169.22992 207.23172,171.82731 205.31365,173.90522   C 203.39558,176.02309 199.87911,177.06205 194.84417,177.06205   L 185.69337,177.06205   L 185.69337,191.56747   z  M 185.69337,172.86626   L 194.92409,172.86626   C 197.96104,172.86626 200.15883,172.26686 201.43755,171.14799   C 202.71626,170.02911 203.35562,168.43072 203.35562,166.35281   C 203.35562,164.87429 202.95602,163.59558 202.19678,162.51666   C 201.47751,161.43775 200.47851,160.75843 199.23976,160.39879   C 198.44056,160.19899 196.96205,160.07911 194.80421,160.07911   L 185.69337,160.07911   z  M 214.30462,191.56747   L 214.30462,155.88333   L 230.12871,155.88333   C 233.3255,155.88333 235.72309,156.20301 237.4014,156.84237   C 239.03976,157.48172 240.35843,158.6006 241.35743,160.23895   C 242.35642,161.87731 242.83594,163.6755 242.83594,165.63353   C 242.83594,168.151 242.03674,170.30883 240.39839,172.02711   C 238.76004,173.74538 236.20261,174.86425 232.76606,175.34377   C 234.04478,175.94317 235.00381,176.54257 235.64317,177.10201   C 237.0018,178.38072 238.32048,179.97911 239.55923,181.85723   L 245.75301,191.56747   L 239.83895,191.56747   L 235.08373,184.13494   C 233.7251,182.01707 232.56626,180.37871 231.68715,179.21988   C 230.80803,178.101 230.00883,177.3018 229.28955,176.86225   C 228.57028,176.38273 227.851,176.06305 227.13172,175.90321   C 226.61225,175.78333 225.73313,175.74337 224.49437,175.74337   L 219.01988,175.74337   L 219.01988,191.56747   z  M 219.01988,171.62751   L 229.16968,171.62751   C 231.32751,171.62751 233.04578,171.42771 234.24457,170.94819   C 235.48333,170.50863 236.40241,169.78935 237.04176,168.83032   C 237.64116,167.83132 237.96084,166.79237 237.96084,165.63353   C 237.96084,163.91526 237.36144,162.55662 236.12269,161.43775   C 234.92389,160.35883 232.96586,159.83936 230.32851,159.83936   L 219.01988,159.83936   z  M 248.78996,174.18494   C 248.78996,168.27088 250.38835,163.63554 253.58514,160.27891   C 256.78192,156.92229 260.85783,155.24397 265.89277,155.24397   C 269.20943,155.24397 272.16646,156.04317 274.80381,157.6016   C 277.48112,159.2 279.47911,161.39779 280.87771,164.19498   C 282.23634,167.03213 282.95562,170.18895 282.95562,173.78534   C 282.95562,177.38172 282.23634,180.61847 280.75783,183.49558   C 279.27931,186.37269 277.24136,188.53052 274.56405,189.96907   C 271.88674,191.44759 268.96967,192.16686 265.89277,192.16686   C 262.53614,192.16686 259.49919,191.36767 256.86184,189.76927   C 254.22449,188.13092 252.2265,185.93313 250.86787,183.09598   C 249.50923,180.29879 248.78996,177.34176 248.78996,174.18494   z  M 253.66506,174.26486   C 253.66506,178.58052 254.82389,181.97711 257.14156,184.41466   C 259.45923,186.89217 262.3763,188.13092 265.85281,188.13092   C 269.40923,188.13092 272.3263,186.89217 274.64397,184.41466   C 276.92168,181.89719 278.08052,178.34076 278.08052,173.74538   C 278.08052,170.86827 277.601,168.31084 276.602,166.15301   C 275.64297,163.99518 274.20441,162.31687 272.28634,161.11807   C 270.40823,159.91927 268.29036,159.31988 265.93273,159.31988   C 262.5761,159.31988 259.69899,160.47871 257.3014,162.75642   C 254.90381,165.07409 253.66506,168.91024 253.66506,174.26486   z  M 289.02951,191.56747   L 289.02951,155.88333   L 301.33714,155.88333   C 304.09437,155.88333 306.21224,156.04317 307.69076,156.40281   C 309.72871,156.88233 311.48694,157.72148 312.9255,158.96024   C 314.80361,160.55863 316.2022,162.55662 317.16124,165.03413   C 318.08032,167.51164 318.55983,170.34879 318.55983,173.54558   C 318.55983,176.26285 318.24016,178.66044 317.6008,180.73835   C 316.96144,182.85622 316.16224,184.5745 315.16325,185.93313   C 314.16425,187.33172 313.08534,188.41064 311.9265,189.16988   C 310.72771,189.96907 309.32911,190.56847 307.6508,190.96807   C 305.97249,191.36767 304.09437,191.56747 301.93654,191.56747   z  M 293.74477,187.37168   L 301.3771,187.37168   C 303.73473,187.37168 305.57289,187.13193 306.93152,186.69237   C 308.2502,186.25281 309.32911,185.65341 310.12831,184.85421   C 311.24718,183.73534 312.1263,182.21686 312.7257,180.33875   C 313.36506,178.46064 313.68473,176.14297 313.68473,173.46566   C 313.68473,169.70944 313.08534,166.87229 311.84658,164.83433   C 310.60783,162.83634 309.12931,161.51767 307.37108,160.83835   C 306.09237,160.31887 304.05441,160.07911 301.25722,160.07911   L 293.74477,160.07911   z "
     style="fill:#000000;fill-rule:evenodd;fill-opacity:1;stroke:none;" />
  <path
     id="path17"
     d="  M 92.706826,289.30923   L 399.59839,289.30923  "
     style="fill:none;stroke:#000000;stroke-width:9.5903616px;stroke-linecap:butt;stroke-linejoin:miter;stroke-miterlimit:10;stroke-dasharray:none;stroke-opacity:1;" />
</svg>
