<?xml version="1.0" encoding="UTF-8" standalone="no"?>
<svg
   xmlns:dc="http://purl.org/dc/elements/1.1/"
   xmlns:cc="http://creativecommons.org/ns#"
   xmlns:rdf="http://www.w3.org/1999/02/22-rdf-syntax-ns#"
   xmlns:svg="http://www.w3.org/2000/svg"
   xmlns="http://www.w3.org/2000/svg"
   id="svg19"
   height="116.73mm"
   width="116.73mm"
   version="1.0">
  <metadata
     id="metadata23">
    <rdf:RDF>
      <cc:Work
         rdf:about="">
        <dc:format>image/svg+xml</dc:format>
        <dc:type
           rdf:resource="http://purl.org/dc/dcmitype/StillImage" />
      </cc:Work>
    </rdf:RDF>
  </metadata>
  <defs
     id="defs3">
    <pattern
       y="0"
       x="0"
       height="6"
       width="6"
       patternUnits="userSpaceOnUse"
       id="EMFhbasepattern" />
  </defs>
  <path
     id="path5"
     d="  M 172.6265,43.156626   L 172.6265,100.69879   L 268.53012,100.69879   L 268.53012,43.156626   L 172.6265,43.156626   z "
     style="fill:#000000;fill-rule:evenodd;fill-opacity:1;stroke:none;" />
  <path
     id="path7"
     d="  M 220.57831,386.49156   L 220.57831,386.49156   L 386.49156,220.57831   L 220.57831,54.665059   L 54.665059,220.57831   L 220.57831,386.49156   z "
     style="fill:#ff8080;fill-rule:evenodd;fill-opacity:1;stroke:none;" />
  <path
     id="path9"
     d="  M 220.57831,386.49156   L 220.57831,386.49156   L 386.49156,220.57831   L 220.57831,54.665059   L 54.665059,220.57831   L 220.57831,386.49156  "
     style="fill:none;stroke:#000000;stroke-width:9.5903616px;stroke-linecap:butt;stroke-linejoin:miter;stroke-miterlimit:10;stroke-dasharray:none;stroke-opacity:1;" />
  <path
     id="path11"
     d="  M 236.88192,176.94217   C 196.60241,176.94217 196.60241,254.14457 236.88192,254.14457  "
     style="fill:none;stroke:#000000;stroke-width:6.713253px;stroke-linecap:butt;stroke-linejoin:miter;stroke-miterlimit:10;stroke-dasharray:none;stroke-opacity:1;" />
  <path
     id="path13"
     d="  M 236.88192,176.94217   C 216.74217,176.94217 216.74217,254.14457 236.88192,254.14457  "
     style="fill:none;stroke:#000000;stroke-width:6.713253px;stroke-linecap:butt;stroke-linejoin:miter;stroke-miterlimit:10;stroke-dasharray:none;stroke-opacity:1;" />
  <path
     id="path15"
     d="  M 180.41867,165.99317   L 180.41867,130.30903   L 196.24277,130.30903   C 199.3996,130.30903 201.83715,130.62871 203.4755,131.26807   C 205.15381,131.90743 206.47249,133.0263 207.47148,134.66466   C 208.43052,136.30301 208.95,138.1012 208.95,140.05923   C 208.95,142.5767 208.11084,144.73454 206.47249,146.45281   C 204.83413,148.17108 202.31666,149.28996 198.88012,149.76948   C 200.11887,150.36887 201.07791,150.96827 201.71727,151.52771   C 203.11586,152.80642 204.43454,154.40482 205.63333,156.28293   L 211.86707,165.99317   L 205.91305,165.99317   L 201.19779,158.56064   C 199.79919,156.44277 198.68032,154.80442 197.8012,153.64558   C 196.88213,152.5267 196.08293,151.72751 195.40361,151.28795   C 194.68433,150.80843 193.96506,150.48875 193.24578,150.32891   C 192.68634,150.20903 191.80723,150.16907 190.60843,150.16907   L 185.13393,150.16907   L 185.13393,165.99317   z  M 185.13393,146.05321   L 195.28373,146.05321   C 197.44156,146.05321 199.11988,145.85341 200.35863,145.37389   C 201.55743,144.93434 202.4765,144.21506 203.11586,143.25602   C 203.75522,142.25703 204.0749,141.21807 204.0749,140.05923   C 204.0749,138.34096 203.4755,136.98233 202.23674,135.86345   C 200.99799,134.78454 199.07992,134.26506 196.44257,134.26506   L 185.13393,134.26506   z  M 225.41345,165.99317   L 225.41345,134.50482   L 213.66526,134.50482   L 213.66526,130.30903   L 241.95682,130.30903   L 241.95682,134.50482   L 230.16867,134.50482   L 230.16867,165.99317   z  M 246.59217,165.99317   L 246.59217,130.30903   L 251.34739,130.30903   L 251.34739,161.79739   L 268.92971,161.79739   L 268.92971,165.99317   z "
     style="fill:#000000;fill-rule:evenodd;fill-opacity:1;stroke:none;" />
  <path
     id="path17"
     d="  M 95.903613,263.73494   L 345.25301,263.73494  "
     style="fill:none;stroke:#000000;stroke-width:9.5903616px;stroke-linecap:butt;stroke-linejoin:miter;stroke-miterlimit:10;stroke-dasharray:none;stroke-opacity:1;" />
</svg>
