<?xml version="1.0" encoding="UTF-8" standalone="no"?>
<svg
   xmlns:dc="http://purl.org/dc/elements/1.1/"
   xmlns:cc="http://creativecommons.org/ns#"
   xmlns:rdf="http://www.w3.org/1999/02/22-rdf-syntax-ns#"
   xmlns:svg="http://www.w3.org/2000/svg"
   xmlns="http://www.w3.org/2000/svg"
   id="svg29"
   height="95.75mm"
   width="95.75mm"
   version="1.0">
  <metadata
     id="metadata33">
    <rdf:RDF>
      <cc:Work
         rdf:about="">
        <dc:format>image/svg+xml</dc:format>
        <dc:type
           rdf:resource="http://purl.org/dc/dcmitype/StillImage" />
      </cc:Work>
    </rdf:RDF>
  </metadata>
  <defs
     id="defs3">
    <pattern
       y="0"
       x="0"
       height="6"
       width="6"
       patternUnits="userSpaceOnUse"
       id="EMFhbasepattern" />
  </defs>
  <path
     id="path5"
     d="  M 54.345381,54.345381   L 54.345381,307.53092   L 307.53092,307.53092   L 307.53092,54.345381   L 54.345381,54.345381   z "
     style="fill:#aaffaa;fill-rule:evenodd;fill-opacity:1;stroke:none;" />
  <path
     id="path7"
     d="  M 54.345381,54.345381   L 307.53092,54.345381   L 307.53092,307.53092   L 54.345381,307.53092   z "
     style="fill:none;stroke:#000000;stroke-width:9.5903616px;stroke-linecap:butt;stroke-linejoin:miter;stroke-miterlimit:10;stroke-dasharray:none;stroke-opacity:1;" />
  <path
     id="path9"
     d="  M 200.11887,176.14297   C 200.11887,186.77229 191.56747,195.32369 180.93815,195.32369   C 170.34879,195.32369 161.75743,186.77229 161.75743,176.14297   C 161.75743,165.55361 170.34879,156.96225 180.93815,156.96225   C 191.56747,156.96225 200.11887,165.55361 200.11887,176.14297  "
     style="fill:none;stroke:#000000;stroke-width:9.5903616px;stroke-linecap:butt;stroke-linejoin:miter;stroke-miterlimit:10;stroke-dasharray:none;stroke-opacity:1;" />
  <path
     id="path11"
     d="  M 180.93815,195.32369   L 180.93815,286.43212  "
     style="fill:none;stroke:#000000;stroke-width:9.5903616px;stroke-linecap:butt;stroke-linejoin:miter;stroke-miterlimit:10;stroke-dasharray:none;stroke-opacity:1;" />
  <path
     id="path13"
     d="  M 156.96225,219.2996   L 204.91405,219.2996  "
     style="fill:none;stroke:#000000;stroke-width:9.5903616px;stroke-linecap:butt;stroke-linejoin:miter;stroke-miterlimit:10;stroke-dasharray:none;stroke-opacity:1;" />
  <path
     id="path15"
     d="  M 142.5767,156.96225   C 142.5767,167.59156 134.0253,176.14297 123.39598,176.14297   C 112.80662,176.14297 104.21526,167.59156 104.21526,156.96225   C 104.21526,146.37289 112.80662,137.78152 123.39598,137.78152   C 134.0253,137.78152 142.5767,146.37289 142.5767,156.96225  "
     style="fill:none;stroke:#000000;stroke-width:9.5903616px;stroke-linecap:butt;stroke-linejoin:miter;stroke-miterlimit:10;stroke-dasharray:none;stroke-opacity:1;" />
  <path
     id="path17"
     d="  M 123.39598,176.14297   L 123.39598,267.2514  "
     style="fill:none;stroke:#000000;stroke-width:9.5903616px;stroke-linecap:butt;stroke-linejoin:miter;stroke-miterlimit:10;stroke-dasharray:none;stroke-opacity:1;" />
  <path
     id="path19"
     d="  M 99.420079,200.11887   L 147.37189,200.11887  "
     style="fill:none;stroke:#000000;stroke-width:9.5903616px;stroke-linecap:butt;stroke-linejoin:miter;stroke-miterlimit:10;stroke-dasharray:none;stroke-opacity:1;" />
  <path
     id="path21"
     d="  M 257.66104,156.96225   C 257.66104,167.59156 249.10963,176.14297 238.48032,176.14297   C 227.89096,176.14297 219.2996,167.59156 219.2996,156.96225   C 219.2996,146.37289 227.89096,137.78152 238.48032,137.78152   C 249.10963,137.78152 257.66104,146.37289 257.66104,156.96225  "
     style="fill:none;stroke:#000000;stroke-width:9.5903616px;stroke-linecap:butt;stroke-linejoin:miter;stroke-miterlimit:10;stroke-dasharray:none;stroke-opacity:1;" />
  <path
     id="path23"
     d="  M 238.48032,176.14297   L 238.48032,267.2514  "
     style="fill:none;stroke:#000000;stroke-width:9.5903616px;stroke-linecap:butt;stroke-linejoin:miter;stroke-miterlimit:10;stroke-dasharray:none;stroke-opacity:1;" />
  <path
     id="path25"
     d="  M 214.50441,200.11887   L 262.45622,200.11887  "
     style="fill:none;stroke:#000000;stroke-width:9.5903616px;stroke-linecap:butt;stroke-linejoin:miter;stroke-miterlimit:10;stroke-dasharray:none;stroke-opacity:1;" />
  <path
     id="path27"
     d="  M 156.52269,123.19618   L 156.52269,85.474095   L 181.97711,85.474095   L 181.97711,89.909637   L 161.51767,89.909637   L 161.51767,101.61787   L 179.21988,101.61787   L 179.21988,106.05341   L 161.51767,106.05341   L 161.51767,123.19618   L 156.52269,123.19618  z    M 188.73032,123.19618   L 188.73032,85.474095   L 214.18474,85.474095   L 214.18474,89.909637   L 193.7253,89.909637   L 193.7253,101.61787   L 211.46747,101.61787   L 211.46747,106.05341   L 193.7253,106.05341   L 193.7253,123.19618   L 188.73032,123.19618  z   "
     style="fill:#000000;fill-rule:evenodd;fill-opacity:1;stroke:none;" />
</svg>
