<?xml version="1.0" encoding="UTF-8" standalone="no"?>
<svg
   xmlns:dc="http://purl.org/dc/elements/1.1/"
   xmlns:cc="http://creativecommons.org/ns#"
   xmlns:rdf="http://www.w3.org/1999/02/22-rdf-syntax-ns#"
   xmlns:svg="http://www.w3.org/2000/svg"
   xmlns="http://www.w3.org/2000/svg"
   id="svg13"
   height="89.669998mm"
   width="120.11mm"
   version="1.0">
  <metadata
     id="metadata17">
    <rdf:RDF>
      <cc:Work
         rdf:about="">
        <dc:format>image/svg+xml</dc:format>
        <dc:type
           rdf:resource="http://purl.org/dc/dcmitype/StillImage" />
      </cc:Work>
    </rdf:RDF>
  </metadata>
  <defs
     id="defs3">
    <pattern
       y="0"
       x="0"
       height="6"
       width="6"
       patternUnits="userSpaceOnUse"
       id="EMFhbasepattern" />
  </defs>
  <path
     id="path5"
     d="  M 54.345381,54.345381   L 54.345381,284.51405   L 399.59839,284.51405   L 399.59839,54.345381   L 54.345381,54.345381   z "
     style="fill:#80e0ff;fill-rule:evenodd;fill-opacity:1;stroke:none;" />
  <path
     id="path7"
     d="  M 54.345381,54.345381   L 399.59839,54.345381   L 399.59839,284.51405   L 54.345381,284.51405   z "
     style="fill:none;stroke:#000000;stroke-width:9.5903616px;stroke-linecap:butt;stroke-linejoin:miter;stroke-miterlimit:10;stroke-dasharray:none;stroke-opacity:1;" />
  <path
     id="path9"
     d="  M 54.345381,54.345381   L 54.345381,54.345381   L 226.97188,188.61044   L 226.97188,150.24899   L 399.59839,284.51405  "
     style="fill:none;stroke:#000000;stroke-width:9.5903616px;stroke-linecap:butt;stroke-linejoin:miter;stroke-miterlimit:10;stroke-dasharray:none;stroke-opacity:1;" />
  <path
     id="path11"
     d="  M 201.35763,124.83454   L 201.35763,89.1504   L 225.45341,89.1504   L 225.45341,93.346183   L 206.07289,93.346183   L 206.07289,104.41506   L 222.81606,104.41506   L 222.81606,108.61084   L 206.07289,108.61084   L 206.07289,124.83454   z  M 237.801,124.83454   L 228.33052,89.1504   L 233.16566,89.1504   L 238.6002,112.52691   C 239.19959,115.00442 239.67911,117.40201 240.11867,119.83956   C 241.03775,116.00341 241.55723,113.80562 241.71706,113.24618   L 248.51024,89.1504   L 254.22449,89.1504   L 259.33935,107.21225   C 260.61807,111.68775 261.53714,115.88353 262.09658,119.83956   C 262.5761,117.56185 263.13554,115.00442 263.89478,112.08735   L 269.48915,89.1504   L 274.24437,89.1504   L 264.45421,124.83454   L 259.89879,124.83454   L 252.34638,97.621886   C 251.74698,95.344175 251.34739,93.945581 251.22751,93.426103   C 250.86787,95.064456 250.50823,96.463051 250.18855,97.621886   L 242.63614,124.83454   z  M 278.63996,124.83454   L 278.63996,89.1504   L 290.94759,89.1504   C 293.70482,89.1504 295.82269,89.31024 297.3012,89.629918   C 299.33915,90.109436 301.09739,90.948593 302.53594,92.187348   C 304.41405,93.785742 305.81265,95.823693 306.77168,98.301203   C 307.69076,100.77871 308.17028,103.61586 308.17028,106.77269   C 308.17028,109.48996 307.8506,111.88755 307.21124,114.00542   C 306.57188,116.08333 305.77269,117.84156 304.77369,119.2002   C 303.77469,120.55883 302.69578,121.63775 301.53694,122.43695   C 300.33815,123.23614 298.93955,123.83554 297.26124,124.23514   C 295.58293,124.63474 293.66486,124.83454 291.50702,124.83454   z  M 283.35522,120.59879   L 290.98755,120.59879   C 293.34518,120.59879 295.18333,120.39899 296.54196,119.95944   C 297.86064,119.51988 298.93955,118.92048 299.73875,118.12128   C 300.85763,117.00241 301.73674,115.48393 302.33614,113.60582   C 302.9755,111.68775 303.29518,109.41004 303.29518,106.69277   C 303.29518,102.9765 302.65582,100.0994 301.45702,98.101404   C 300.21827,96.103412 298.73975,94.744778 296.98152,94.06546   C 295.70281,93.585942 293.66486,93.346183 290.86767,93.346183   L 283.35522,93.346183   z "
     style="fill:#000000;fill-rule:evenodd;fill-opacity:1;stroke:none;" />
</svg>
