<?xml version="1.0" encoding="UTF-8" standalone="no"?>
<svg
   xmlns:dc="http://purl.org/dc/elements/1.1/"
   xmlns:cc="http://creativecommons.org/ns#"
   xmlns:rdf="http://www.w3.org/1999/02/22-rdf-syntax-ns#"
   xmlns:svg="http://www.w3.org/2000/svg"
   xmlns="http://www.w3.org/2000/svg"
   id="svg13"
   height="95.75mm"
   width="95.75mm"
   version="1.0">
  <metadata
     id="metadata17">
    <rdf:RDF>
      <cc:Work
         rdf:about="">
        <dc:format>image/svg+xml</dc:format>
        <dc:type
           rdf:resource="http://purl.org/dc/dcmitype/StillImage" />
      </cc:Work>
    </rdf:RDF>
  </metadata>
  <defs
     id="defs3">
    <pattern
       y="0"
       x="0"
       height="6"
       width="6"
       patternUnits="userSpaceOnUse"
       id="EMFhbasepattern" />
  </defs>
  <path
     id="path5"
     d="  M 54.345381,54.345381   L 54.345381,307.53092   L 307.53092,307.53092   L 307.53092,54.345381   L 54.345381,54.345381   z "
     style="fill:#aaffaa;fill-rule:evenodd;fill-opacity:1;stroke:none;" />
  <path
     id="path7"
     d="  M 54.345381,54.345381   L 307.53092,54.345381   L 307.53092,307.53092   L 54.345381,307.53092   z "
     style="fill:none;stroke:#000000;stroke-width:9.5903616px;stroke-linecap:butt;stroke-linejoin:miter;stroke-miterlimit:10;stroke-dasharray:none;stroke-opacity:1;" />
  <path
     id="path9"
     d="  M 54.345381,54.345381   L 54.345381,54.345381   L 180.93815,200.11887   L 180.93815,161.75743   L 307.53092,307.53092  "
     style="fill:none;stroke:#000000;stroke-width:9.5903616px;stroke-linecap:butt;stroke-linejoin:miter;stroke-miterlimit:10;stroke-dasharray:none;stroke-opacity:1;" />
  <path
     id="path11"
     d="  M 155.32389,136.34297   L 155.32389,100.65883   L 179.41968,100.65883   L 179.41968,104.85462   L 160.03915,104.85462   L 160.03915,115.92349   L 176.78233,115.92349   L 176.78233,120.11928   L 160.03915,120.11928   L 160.03915,136.34297   z  M 191.76727,136.34297   L 182.29678,100.65883   L 187.13193,100.65883   L 192.56646,124.03534   C 193.16586,126.51285 193.64538,128.91044 194.08494,131.34799   C 195.00401,127.51185 195.52349,125.31405 195.68333,124.75462   L 202.4765,100.65883   L 208.19076,100.65883   L 213.30562,118.72068   C 214.58433,123.19618 215.50341,127.39197 216.06285,131.34799   C 216.54237,129.07028 217.1018,126.51285 217.86104,123.59578   L 223.45542,100.65883   L 228.21064,100.65883   L 218.42048,136.34297   L 213.86506,136.34297   L 206.31265,109.13032   C 205.71325,106.85261 205.31365,105.45401 205.19377,104.93454   C 204.83413,106.57289 204.4745,107.97148 204.15482,109.13032   L 196.60241,136.34297   z  M 232.60622,136.34297   L 232.60622,100.65883   L 244.91385,100.65883   C 247.67108,100.65883 249.78895,100.81867 251.26747,101.13835   C 253.30542,101.61787 255.06365,102.45703 256.50221,103.69578   C 258.38032,105.29418 259.77891,107.33213 260.73795,109.80964   C 261.65702,112.28715 262.13654,115.1243 262.13654,118.28112   C 262.13654,120.99839 261.81686,123.39598 261.17751,125.51385   C 260.53815,127.59177 259.73895,129.35 258.73996,130.70863   C 257.74096,132.06727 256.66204,133.14618 255.50321,133.94538   C 254.30441,134.74458 252.90582,135.34397 251.22751,135.74357   C 249.54919,136.14317 247.63112,136.34297 245.47329,136.34297   z  M 237.32148,132.10723   L 244.95381,132.10723   C 247.31144,132.10723 249.14959,131.90743 250.50823,131.46787   C 251.8269,131.02831 252.90582,130.42891 253.70502,129.62972   C 254.82389,128.51084 255.70301,126.99237 256.30241,125.11426   C 256.94176,123.19618 257.26144,120.91847 257.26144,118.2012   C 257.26144,114.48494 256.62208,111.60783 255.42329,109.60984   C 254.18453,107.61185 252.70602,106.25321 250.94779,105.57389   C 249.66907,105.09438 247.63112,104.85462 244.83393,104.85462   L 237.32148,104.85462   z "
     style="fill:#000000;fill-rule:evenodd;fill-opacity:1;stroke:none;" />
</svg>
