<?xml version="1.0" encoding="UTF-8" standalone="no"?>
<svg
   xmlns:dc="http://purl.org/dc/elements/1.1/"
   xmlns:cc="http://creativecommons.org/ns#"
   xmlns:rdf="http://www.w3.org/1999/02/22-rdf-syntax-ns#"
   xmlns:svg="http://www.w3.org/2000/svg"
   xmlns="http://www.w3.org/2000/svg"
   id="svg13"
   height="130.27mm"
   width="130.27mm"
   version="1.0">
  <metadata
     id="metadata17">
    <rdf:RDF>
      <cc:Work
         rdf:about="">
        <dc:format>image/svg+xml</dc:format>
        <dc:type
           rdf:resource="http://purl.org/dc/dcmitype/StillImage" />
      </cc:Work>
    </rdf:RDF>
  </metadata>
  <defs
     id="defs3">
    <pattern
       y="0"
       x="0"
       height="6"
       width="6"
       patternUnits="userSpaceOnUse"
       id="EMFhbasepattern" />
  </defs>
  <path
     id="path5"
     d="  M 164.63454,327.67068   C 164.63454,437.95983 327.67068,437.95983 327.67068,327.67068   C 437.95983,327.67068 437.95983,164.63454 327.67068,164.63454   C 327.67068,54.345381 164.63454,54.345381 164.63454,164.63454   C 54.345381,164.63454 54.345381,327.67068 164.63454,327.67068   z "
     style="fill:#ffff80;fill-rule:evenodd;fill-opacity:1;stroke:none;" />
  <path
     id="path7"
     d="  M 164.63454,327.67068   C 164.63454,437.95983 327.67068,437.95983 327.67068,327.67068   C 437.95983,327.67068 437.95983,164.63454 327.67068,164.63454   C 327.67068,54.345381 164.63454,54.345381 164.63454,164.63454   C 54.345381,164.63454 54.345381,327.67068 164.63454,327.67068  "
     style="fill:none;stroke:#000000;stroke-width:9.5903616px;stroke-linecap:butt;stroke-linejoin:miter;stroke-miterlimit:10;stroke-dasharray:none;stroke-opacity:1;" />
  <path
     id="path9"
     d="  M 131.06827,170.38875   L 131.06827,170.38875   L 246.15261,265.33333   L 246.15261,226.97188   L 361.23694,321.91646  "
     style="fill:none;stroke:#000000;stroke-width:9.5903616px;stroke-linecap:butt;stroke-linejoin:miter;stroke-miterlimit:10;stroke-dasharray:none;stroke-opacity:1;" />
  <path
     id="path11"
     d="  M 220.53835,201.55743   L 220.53835,165.87329   L 244.63413,165.87329   L 244.63413,170.06907   L 225.25361,170.06907   L 225.25361,181.13795   L 241.99678,181.13795   L 241.99678,185.33373   L 225.25361,185.33373   L 225.25361,201.55743   z  M 256.98172,201.55743   L 247.51124,165.87329   L 252.34638,165.87329   L 257.78092,189.2498   C 258.38032,191.72731 258.85984,194.1249 259.29939,196.56245   C 260.21847,192.7263 260.73795,190.52851 260.89779,189.96907   L 267.69096,165.87329   L 273.40522,165.87329   L 278.52008,183.93514   C 279.79879,188.41064 280.71787,192.60642 281.27731,196.56245   C 281.75682,194.28474 282.31626,191.72731 283.0755,188.81024   L 288.66988,165.87329   L 293.4251,165.87329   L 283.63494,201.55743   L 279.07951,201.55743   L 271.5271,174.34478   C 270.92771,172.06707 270.52811,170.66847 270.40823,170.14899   C 270.04859,171.78735 269.68895,173.18594 269.36927,174.34478   L 261.81686,201.55743   z  M 297.82068,201.55743   L 297.82068,165.87329   L 310.12831,165.87329   C 312.88554,165.87329 315.00341,166.03313 316.48192,166.35281   C 318.51987,166.83233 320.27811,167.67148 321.71666,168.91024   C 323.59477,170.50863 324.99337,172.54658 325.9524,175.02409   C 326.87148,177.5016 327.351,180.33875 327.351,183.49558   C 327.351,186.21285 327.03132,188.61044 326.39196,190.72831   C 325.75261,192.80622 324.95341,194.56446 323.95441,195.92309   C 322.95542,197.28172 321.8765,198.36064 320.71767,199.15984   C 319.51887,199.95903 318.12028,200.55843 316.44196,200.95803   C 314.76365,201.35763 312.84558,201.55743 310.68775,201.55743   z  M 302.53594,197.32168   L 310.16827,197.32168   C 312.5259,197.32168 314.36405,197.12188 315.72269,196.68233   C 317.04136,196.24277 318.12028,195.64337 318.91947,194.84417   C 320.03835,193.7253 320.91747,192.20682 321.51686,190.32871   C 322.15622,188.41064 322.4759,186.13293 322.4759,183.41566   C 322.4759,179.69939 321.83654,176.82229 320.63775,174.82429   C 319.39899,172.8263 317.92048,171.46767 316.16224,170.78835   C 314.88353,170.30883 312.84558,170.06907 310.04839,170.06907   L 302.53594,170.06907   z "
     style="fill:#000000;fill-rule:evenodd;fill-opacity:1;stroke:none;" />
</svg>
