<?xml version="1.0" encoding="UTF-8" standalone="no"?>
<svg
   xmlns:dc="http://purl.org/dc/elements/1.1/"
   xmlns:cc="http://creativecommons.org/ns#"
   xmlns:rdf="http://www.w3.org/1999/02/22-rdf-syntax-ns#"
   xmlns:svg="http://www.w3.org/2000/svg"
   xmlns="http://www.w3.org/2000/svg"
   id="svg13"
   height="116.73mm"
   width="116.73mm"
   version="1.0">
  <metadata
     id="metadata17">
    <rdf:RDF>
      <cc:Work
         rdf:about="">
        <dc:format>image/svg+xml</dc:format>
        <dc:type
           rdf:resource="http://purl.org/dc/dcmitype/StillImage" />
      </cc:Work>
    </rdf:RDF>
  </metadata>
  <defs
     id="defs3">
    <pattern
       y="0"
       x="0"
       height="6"
       width="6"
       patternUnits="userSpaceOnUse"
       id="EMFhbasepattern" />
  </defs>
  <path
     id="path5"
     d="  M 220.57831,386.49156   L 220.57831,386.49156   L 386.49156,220.57831   L 220.57831,54.665059   L 54.665059,220.57831   L 220.57831,386.49156   z "
     style="fill:#ff8080;fill-rule:evenodd;fill-opacity:1;stroke:none;" />
  <path
     id="path7"
     d="  M 220.57831,386.49156   L 220.57831,386.49156   L 386.49156,220.57831   L 220.57831,54.665059   L 54.665059,220.57831   L 220.57831,386.49156  "
     style="fill:none;stroke:#000000;stroke-width:9.5903616px;stroke-linecap:butt;stroke-linejoin:miter;stroke-miterlimit:10;stroke-dasharray:none;stroke-opacity:1;" />
  <path
     id="path9"
     d="  M 120.83855,153.44578   L 120.83855,153.44578   L 220.57831,239.75903   L 220.57831,201.39759   L 320.31807,287.71084  "
     style="fill:none;stroke:#000000;stroke-width:9.5903616px;stroke-linecap:butt;stroke-linejoin:miter;stroke-miterlimit:10;stroke-dasharray:none;stroke-opacity:1;" />
  <path
     id="path11"
     d="  M 194.96405,175.98313   L 194.96405,140.29899   L 219.05984,140.29899   L 219.05984,144.49478   L 199.67931,144.49478   L 199.67931,155.56365   L 216.42249,155.56365   L 216.42249,159.75944   L 199.67931,159.75944   L 199.67931,175.98313   z  M 231.40743,175.98313   L 221.93694,140.29899   L 226.77209,140.29899   L 232.20662,163.6755   C 232.80602,166.15301 233.28554,168.5506 233.7251,170.98815   C 234.64417,167.15201 235.16365,164.95421 235.32349,164.39478   L 242.11666,140.29899   L 247.83092,140.29899   L 252.94578,158.36084   C 254.22449,162.83634 255.14357,167.03213 255.70301,170.98815   C 256.18253,168.71044 256.74196,166.15301 257.5012,163.23594   L 263.09558,140.29899   L 267.8508,140.29899   L 258.06064,175.98313   L 253.50522,175.98313   L 245.95281,148.77048   C 245.35341,146.49277 244.95381,145.09417 244.83393,144.5747   C 244.47429,146.21305 244.11466,147.61164 243.79498,148.77048   L 236.24257,175.98313   z  M 272.24638,175.98313   L 272.24638,140.29899   L 284.55401,140.29899   C 287.31124,140.29899 289.42911,140.45883 290.90763,140.77851   C 292.94558,141.25803 294.70381,142.09719 296.14237,143.33594   C 298.02048,144.93434 299.41907,146.97229 300.37811,149.4498   C 301.29718,151.92731 301.7767,154.76446 301.7767,157.92128   C 301.7767,160.63855 301.45702,163.03614 300.81767,165.15401   C 300.17831,167.23193 299.37911,168.99016 298.38012,170.34879   C 297.38112,171.70743 296.3022,172.78634 295.14337,173.58554   C 293.94457,174.38474 292.54598,174.98413 290.86767,175.38373   C 289.18935,175.78333 287.27128,175.98313 285.11345,175.98313   z  M 276.96164,171.74739   L 284.59397,171.74739   C 286.9516,171.74739 288.78975,171.54759 290.14839,171.10803   C 291.46706,170.66847 292.54598,170.06907 293.34518,169.26988   C 294.46405,168.151 295.34317,166.63253 295.94257,164.75442   C 296.58192,162.83634 296.9016,160.55863 296.9016,157.84136   C 296.9016,154.1251 296.26224,151.24799 295.06345,149.25   C 293.82469,147.25201 292.34618,145.89337 290.58795,145.21405   C 289.30923,144.73454 287.27128,144.49478 284.47409,144.49478   L 276.96164,144.49478   z "
     style="fill:#000000;fill-rule:evenodd;fill-opacity:1;stroke:none;" />
</svg>
