<?xml version="1.0" encoding="UTF-8" standalone="no"?>
<svg
   xmlns:dc="http://purl.org/dc/elements/1.1/"
   xmlns:cc="http://creativecommons.org/ns#"
   xmlns:rdf="http://www.w3.org/1999/02/22-rdf-syntax-ns#"
   xmlns:svg="http://www.w3.org/2000/svg"
   xmlns="http://www.w3.org/2000/svg"
   id="svg15"
   height="112.9mm"
   width="112.9mm"
   version="1.0">
  <metadata
     id="metadata19">
    <rdf:RDF>
      <cc:Work
         rdf:about="">
        <dc:format>image/svg+xml</dc:format>
        <dc:type
           rdf:resource="http://purl.org/dc/dcmitype/StillImage" />
      </cc:Work>
    </rdf:RDF>
  </metadata>
  <defs
     id="defs3">
    <pattern
       y="0"
       x="0"
       height="6"
       width="6"
       patternUnits="userSpaceOnUse"
       id="EMFhbasepattern" />
  </defs>
  <path
     id="path5"
     d="  M 782.46569,652.4178   L 889.09514,652.4178   L 889.09514,695.06203   L 782.46569,695.06203   L 782.46569,652.4178   z "
     style="fill:#000000;fill-rule:nonzero;fill-opacity:1;stroke:none;" />
  <path
     id="path7"
     d="  M 695.06203,695.06203   L 976.4988,695.06203   L 976.4988,976.4988   L 695.06203,976.4988   L 695.06203,695.06203   z "
     style="fill:#aaffaa;fill-rule:nonzero;fill-opacity:1;stroke:#000000;stroke-width:10.651613px;stroke-linecap:butt;stroke-linejoin:miter;stroke-miterlimit:112;stroke-dasharray:none;stroke-opacity:1;" />
  <path
     id="path9"
     d="  M 835.76153,947.71678   C 825.10992,947.71678 803.80669,942.39098 803.80669,937.06517   L 803.80669,899.74675   C 697.21501,857.10253 750.51085,723.84405 835.76153,729.16985  "
     style="fill:none;stroke:#000000;stroke-width:10.651613px;stroke-linecap:butt;stroke-linejoin:miter;stroke-miterlimit:112;stroke-dasharray:none;stroke-opacity:1;" />
  <path
     id="path11"
     d="  M 830.43572,947.71678   C 841.12511,947.71678 862.42833,942.39098 862.42833,937.06517   L 862.42833,899.74675   C 969.02001,857.10253 915.72417,723.84405 830.43572,729.16985  "
     style="fill:none;stroke:#000000;stroke-width:10.651613px;stroke-linecap:butt;stroke-linejoin:miter;stroke-miterlimit:112;stroke-dasharray:none;stroke-opacity:1;" />
  <path
     id="path13"
     d="  M 807.96157,859.78432   L 807.96157,773.92929   L 866.80985,773.92929   L 866.80985,788.43362   L 825.29877,788.43362   L 825.29877,808.75478   L 861.1441,808.75478   L 861.1441,823.29688   L 825.29877,823.29688   L 825.29877,859.78432   L 807.96157,859.78432   z "
     style="fill:#000000;fill-rule:nonzero;fill-opacity:1;stroke:none;" />
</svg>
