<?xml version="1.0" encoding="UTF-8" standalone="no"?>
<svg
   xmlns:dc="http://purl.org/dc/elements/1.1/"
   xmlns:cc="http://creativecommons.org/ns#"
   xmlns:rdf="http://www.w3.org/1999/02/22-rdf-syntax-ns#"
   xmlns:svg="http://www.w3.org/2000/svg"
   xmlns="http://www.w3.org/2000/svg"
   id="svg11"
   height="74.440002mm"
   width="125.19mm"
   version="1.0">
  <metadata
     id="metadata15">
    <rdf:RDF>
      <cc:Work
         rdf:about="">
        <dc:format>image/svg+xml</dc:format>
        <dc:type
           rdf:resource="http://purl.org/dc/dcmitype/StillImage" />
      </cc:Work>
    </rdf:RDF>
  </metadata>
  <defs
     id="defs3">
    <pattern
       y="0"
       x="0"
       height="6"
       width="6"
       patternUnits="userSpaceOnUse"
       id="EMFhbasepattern" />
  </defs>
  <path
     id="path5"
     d="  M 188.61044,140.65863   C 188.61044,167.15201 167.15201,188.61044 140.65863,188.61044   C 114.20522,188.61044 92.706826,167.15201 92.706826,140.65863   C 92.706826,114.20522 114.20522,92.706826 140.65863,92.706826   C 167.15201,92.706826 188.61044,114.20522 188.61044,140.65863   z "
     style="fill:#c61021;fill-rule:evenodd;fill-opacity:1;stroke:none;" />
  <path
     id="path7"
     d="  M 188.61044,140.65863   C 188.61044,167.15201 167.15201,188.61044 140.65863,188.61044   C 114.20522,188.61044 92.706826,167.15201 92.706826,140.65863   C 92.706826,114.20522 114.20522,92.706826 140.65863,92.706826   C 167.15201,92.706826 188.61044,114.20522 188.61044,140.65863  "
     style="fill:none;stroke:#c61021;stroke-width:0.95903611px;stroke-linecap:butt;stroke-linejoin:miter;stroke-miterlimit:10;stroke-dasharray:none;stroke-opacity:1;" />
  <path
     id="path9"
     d="  M 83.116465,204.91405   C 66.81285,190.52851 54.345381,166.55261 54.345381,140.65863   C 54.345381,92.706826 92.706826,54.345381 140.65863,54.345381   C 188.61044,54.345381 217.38152,92.706826 236.56225,140.65863   C 255.74297,188.61044 284.51405,226.97188 332.46586,226.97188   C 380.41767,226.97188 418.77911,188.61044 418.77911,140.65863   C 418.77911,114.76466 406.31164,90.788754 390.00803,76.403212  "
     style="fill:none;stroke:#c61021;stroke-width:9.5903616px;stroke-linecap:butt;stroke-linejoin:miter;stroke-miterlimit:10;stroke-dasharray:none;stroke-opacity:1;" />
</svg>
