<?xml version="1.0" encoding="UTF-8" standalone="no"?>
<svg
   xmlns:dc="http://purl.org/dc/elements/1.1/"
   xmlns:cc="http://creativecommons.org/ns#"
   xmlns:rdf="http://www.w3.org/1999/02/22-rdf-syntax-ns#"
   xmlns:svg="http://www.w3.org/2000/svg"
   xmlns="http://www.w3.org/2000/svg"
   id="svg13"
   height="112.9mm"
   width="112.9mm"
   version="1.0">
  <metadata
     id="metadata17">
    <rdf:RDF>
      <cc:Work
         rdf:about="">
        <dc:format>image/svg+xml</dc:format>
        <dc:type
           rdf:resource="http://purl.org/dc/dcmitype/StillImage" />
      </cc:Work>
    </rdf:RDF>
  </metadata>
  <defs
     id="defs3">
    <pattern
       y="0"
       x="0"
       height="6"
       width="6"
       patternUnits="userSpaceOnUse"
       id="EMFhbasepattern" />
  </defs>
  <path
     id="path5"
     d="  M 695.32203,695.2261   L 1100.4233,695.2261   L 1100.4233,908.44722   L 695.32203,908.44722   L 695.32203,695.2261   z "
     style="fill:none;stroke:#000000;stroke-width:10.651613px;stroke-linecap:butt;stroke-linejoin:miter;stroke-miterlimit:112;stroke-dasharray:none;stroke-opacity:1;" />
  <path
     id="path7"
     d="  M 739.62821,801.89332   C 739.62821,792.86589 740.53473,785.61372 742.42331,780.09906   C 744.27412,774.62216 747.03146,770.35396 750.69531,767.37   C 754.35916,764.38604 758.96731,762.91294 764.51974,762.91294   C 768.59909,762.91294 772.18739,763.74392 775.28467,765.3681   C 778.38195,767.03006 780.91265,769.40967 782.91455,772.50695   C 784.95422,775.60423 786.50286,779.3814 787.67378,783.83845   C 788.80693,788.29551 789.37351,794.33898 789.37351,801.89332   C 789.37351,810.8452 788.46699,818.05959 786.61618,823.57426   C 784.80314,829.05115 782.0458,833.31935 778.38195,836.30332   C 774.7181,839.32505 770.07218,840.83592 764.51974,840.83592   C 757.15427,840.83592 751.3752,838.1919 747.18254,832.90386   C 742.12114,826.55822 739.62821,816.20878 739.62821,801.89332   L 739.62821,801.89332   z  M 749.25999,801.89332   C 749.25999,814.43351 750.73308,822.74328 753.6415,826.89817   C 756.58769,831.05305 760.21377,833.13049 764.51974,833.13049   C 768.78794,833.13049 772.41402,831.05305 775.36022,826.8604   C 778.30641,822.70551 779.74173,814.39574 779.74173,801.89332   C 779.74173,789.31535 778.30641,780.96781 775.36022,776.85069   C 772.41402,772.73358 768.78794,770.65614 764.40643,770.65614   C 760.10046,770.65614 756.66323,772.46918 754.09476,776.13303   C 750.88417,780.77895 749.25999,789.35312 749.25999,801.89332   L 749.25999,801.89332   z "
     style="fill:#000000;fill-rule:nonzero;fill-opacity:1;stroke:none;" />
  <path
     id="path9"
     d="  M 833.71746,794.90556   L 833.71746,784.25394   L 844.40684,784.25394   L 844.40684,794.90556   L 833.71746,794.90556   z  M 833.71746,839.51391   L 833.71746,828.86229   L 844.40684,828.86229   L 844.40684,839.51391   L 833.71746,839.51391   z "
     style="fill:#000000;fill-rule:nonzero;fill-opacity:1;stroke:none;" />
  <path
     id="path11"
     d="  M 815.24711,759.21132   C 815.24711,763.63061 811.6588,767.18114 807.27728,767.18114   C 802.858,767.18114 799.26969,763.63061 799.26969,759.21132   C 799.26969,754.79203 802.858,751.20372 807.27728,751.20372   C 811.6588,751.20372 815.24711,754.79203 815.24711,759.21132   z "
     style="fill:none;stroke:#000000;stroke-width:5.3258066px;stroke-linecap:butt;stroke-linejoin:miter;stroke-miterlimit:112;stroke-dasharray:none;stroke-opacity:1;" />
</svg>
