<?xml version="1.0" encoding="UTF-8" standalone="no"?>
<svg
   xmlns:dc="http://purl.org/dc/elements/1.1/"
   xmlns:cc="http://creativecommons.org/ns#"
   xmlns:rdf="http://www.w3.org/1999/02/22-rdf-syntax-ns#"
   xmlns:svg="http://www.w3.org/2000/svg"
   xmlns="http://www.w3.org/2000/svg"
   id="svg17"
   height="116.73mm"
   width="116.73mm"
   version="1.0">
  <metadata
     id="metadata21">
    <rdf:RDF>
      <cc:Work
         rdf:about="">
        <dc:format>image/svg+xml</dc:format>
        <dc:type
           rdf:resource="http://purl.org/dc/dcmitype/StillImage" />
      </cc:Work>
    </rdf:RDF>
  </metadata>
  <defs
     id="defs3">
    <pattern
       y="0"
       x="0"
       height="6"
       width="6"
       patternUnits="userSpaceOnUse"
       id="EMFhbasepattern" />
  </defs>
  <path
     id="path5"
     d="  M 172.6265,43.156626   L 172.6265,100.69879   L 268.53012,100.69879   L 268.53012,43.156626   L 172.6265,43.156626   z "
     style="fill:#000000;fill-rule:evenodd;fill-opacity:1;stroke:none;" />
  <path
     id="path7"
     d="  M 220.57831,386.49156   L 220.57831,386.49156   L 386.49156,220.57831   L 220.57831,54.665059   L 54.665059,220.57831   L 220.57831,386.49156   z "
     style="fill:#ff8080;fill-rule:evenodd;fill-opacity:1;stroke:none;" />
  <path
     id="path9"
     d="  M 220.57831,386.49156   L 220.57831,386.49156   L 386.49156,220.57831   L 220.57831,54.665059   L 54.665059,220.57831   L 220.57831,386.49156  "
     style="fill:none;stroke:#000000;stroke-width:9.5903616px;stroke-linecap:butt;stroke-linejoin:miter;stroke-miterlimit:10;stroke-dasharray:none;stroke-opacity:1;" />
  <path
     id="path11"
     d="  M 221.53735,324.63373   C 214.82409,324.63373 201.39759,321.2771 201.39759,317.92048   L 201.39759,294.42409   C 134.26506,267.57108 167.83132,183.65542 221.53735,187.01205  "
     style="fill:none;stroke:#000000;stroke-width:6.713253px;stroke-linecap:butt;stroke-linejoin:miter;stroke-miterlimit:10;stroke-dasharray:none;stroke-opacity:1;" />
  <path
     id="path13"
     d="  M 218.18072,324.63373   C 224.89397,324.63373 238.32048,321.2771 238.32048,317.92048   L 238.32048,294.42409   C 305.45301,267.57108 271.88674,183.65542 218.18072,187.01205  "
     style="fill:none;stroke:#000000;stroke-width:6.713253px;stroke-linecap:butt;stroke-linejoin:miter;stroke-miterlimit:10;stroke-dasharray:none;stroke-opacity:1;" />
  <path
     id="path15"
     d="  M 190.32871,152.00723   L 190.32871,147.81144   L 205.43353,147.77148   L 205.43353,161.03815   C 203.11586,162.8763 200.71827,164.2749 198.24076,165.19397   C 195.80321,166.15301 193.24578,166.59257 190.64839,166.59257   C 187.17188,166.59257 183.9751,165.87329 181.09799,164.35482   C 178.22088,162.8763 176.06305,160.67851 174.6245,157.84136   C 173.14598,155.00421 172.4267,151.84739 172.4267,148.33092   C 172.4267,144.85442 173.14598,141.61767 174.58454,138.58072   C 176.06305,135.58373 178.14096,133.34598 180.85823,131.90743   C 183.61546,130.42891 186.73233,129.70964 190.28875,129.70964   C 192.88614,129.70964 195.20381,130.10924 197.28172,130.94839   C 199.3996,131.78755 201.03795,132.94638 202.19678,134.46486   C 203.39558,135.94337 204.2747,137.9014 204.91405,140.29899   L 200.63835,141.45783   C 200.11887,139.65964 199.43956,138.22108 198.64036,137.18213   C 197.84116,136.14317 196.72229,135.30401 195.24377,134.66466   C 193.76526,134.06526 192.1269,133.74558 190.32871,133.74558   C 188.17088,133.74558 186.29277,134.06526 184.73433,134.74458   C 183.13594,135.38393 181.85723,136.26305 180.89819,137.30201   C 179.93915,138.38092 179.17992,139.57972 178.66044,140.85843   C 177.74136,143.05622 177.3018,145.45381 177.3018,148.0512   C 177.3018,151.20803 177.82128,153.88534 178.94016,156.00321   C 180.01907,158.16104 181.61747,159.75944 183.73534,160.79839   C 185.81325,161.83735 188.051,162.35682 190.40863,162.35682   C 192.44658,162.35682 194.44458,161.95723 196.40261,161.15803   C 198.32068,160.39879 199.79919,159.55964 200.79819,158.64056   L 200.79819,152.00723   z  M 212.50642,165.99317   L 212.50642,130.30903   L 238.32048,130.30903   L 238.32048,134.50482   L 217.22168,134.50482   L 217.22168,145.45381   L 236.96184,145.45381   L 236.96184,149.6496   L 217.22168,149.6496   L 217.22168,161.79739   L 239.15964,161.79739   L 239.15964,165.99317   z  M 245.63313,165.99317   L 245.63313,130.30903   L 250.46827,130.30903   L 269.20943,158.32088   L 269.20943,130.30903   L 273.7249,130.30903   L 273.7249,165.99317   L 268.88976,165.99317   L 250.14859,137.94136   L 250.14859,165.99317   z "
     style="fill:#000000;fill-rule:evenodd;fill-opacity:1;stroke:none;" />
</svg>
