<?xml version="1.0" encoding="UTF-8" standalone="no"?>
<svg
   xmlns:dc="http://purl.org/dc/elements/1.1/"
   xmlns:cc="http://creativecommons.org/ns#"
   xmlns:rdf="http://www.w3.org/1999/02/22-rdf-syntax-ns#"
   xmlns:svg="http://www.w3.org/2000/svg"
   xmlns="http://www.w3.org/2000/svg"
   id="svg13"
   height="116.05mm"
   width="135.35001mm"
   version="1.0">
  <metadata
     id="metadata17">
    <rdf:RDF>
      <cc:Work
         rdf:about="">
        <dc:format>image/svg+xml</dc:format>
        <dc:type
           rdf:resource="http://purl.org/dc/dcmitype/StillImage" />
      </cc:Work>
    </rdf:RDF>
  </metadata>
  <defs
     id="defs3">
    <pattern
       y="0"
       x="0"
       height="6"
       width="6"
       patternUnits="userSpaceOnUse"
       id="EMFhbasepattern" />
  </defs>
  <path
     id="path5"
     d="  M 174.2249,54.345381   C 54.345381,54.345381 54.345381,250.94779 174.2249,250.94779   C 174.2249,384.25381 337.26104,384.25381 337.26104,250.94779   C 457.14056,250.94779 457.14056,54.345381 337.26104,54.345381  "
     style="fill:none;stroke:#ffff00;stroke-width:9.5903616px;stroke-linecap:butt;stroke-linejoin:miter;stroke-miterlimit:10;stroke-dasharray:none;stroke-opacity:1;" />
  <path
     id="path7"
     d="  M 229.56927,95.783734   L 229.56927,95.783734   L 282.31626,95.783734   L 319.23915,132.70662   L 319.23915,185.45361   L 282.31626,222.3765   L 229.56927,222.3765   L 192.64638,185.45361   L 192.64638,132.70662   z "
     style="fill:#ffff00;fill-rule:evenodd;fill-opacity:1;stroke:none;" />
  <path
     id="path9"
     d="  M 229.56927,95.783734   L 229.56927,95.783734   L 282.31626,95.783734   L 319.23915,132.70662   L 319.23915,185.45361   L 282.31626,222.3765   L 229.56927,222.3765   L 192.64638,185.45361   L 192.64638,132.70662   z "
     style="fill:none;stroke:#000000;stroke-width:10.549397px;stroke-linecap:butt;stroke-linejoin:miter;stroke-miterlimit:10;stroke-dasharray:none;stroke-opacity:1;" />
  <path
     id="path11"
     d="  M 213.06586,155.12409   C 213.06586,146.93233 215.26365,140.49879 219.65923,135.86345   C 224.09478,131.22811 229.76907,128.91044 236.72208,128.91044   C 241.31747,128.91044 245.39337,129.98936 249.06968,132.18715   C 252.74598,134.34498 255.54317,137.38193 257.46124,141.29799   C 259.37931,145.21405 260.33835,149.60964 260.33835,154.56466   C 260.33835,159.5996 259.33935,164.0751 257.3014,168.03112   C 255.26345,171.98715 252.4263,174.98413 248.71004,177.02209   C 244.99377,179.06004 240.99779,180.05903 236.68213,180.05903   C 232.04678,180.05903 227.89096,178.94016 224.21466,176.70241   C 220.57831,174.4247 217.78112,171.38775 215.90301,167.47168   C 214.0249,163.59558 213.06586,159.47972 213.06586,155.12409   z  M 219.81907,155.24397   C 219.81907,161.19799 221.41747,165.87329 224.61425,169.30984   C 227.81104,172.74638 231.84698,174.46466 236.68213,174.46466   C 241.59719,174.46466 245.63313,172.74638 248.82992,169.26988   C 251.98674,165.79337 253.58514,160.87831 253.58514,154.5247   C 253.58514,150.52871 252.90582,147.01225 251.54719,144.01526   C 250.18855,140.97831 248.19056,138.66064 245.59317,137.02229   C 242.95582,135.38393 240.03875,134.54478 236.76204,134.54478   C 232.1267,134.54478 228.17068,136.14317 224.81405,139.3   C 221.49739,142.49679 219.81907,147.81144 219.81907,155.24397   z  M 268.49016,179.21988   L 268.49016,129.78956   L 287.03152,129.78956   C 290.82771,129.78956 293.86465,130.26907 296.14237,131.26807   C 298.42008,132.26707 300.17831,133.8255 301.49698,135.90341   C 302.7757,137.98132 303.41506,140.17911 303.41506,142.41687   C 303.41506,144.53474 302.85562,146.53273 301.69678,148.41084   C 300.57791,150.24899 298.81967,151.76747 296.502,152.9263   C 299.49899,153.80542 301.81666,155.28393 303.41506,157.4018   C 305.01345,159.51968 305.81265,161.99719 305.81265,164.87429   C 305.81265,167.19197 305.33313,169.3498 304.33413,171.34779   C 303.3751,173.34578 302.1763,174.86425 300.73775,175.94317   C 299.29919,177.02209 297.501,177.82128 295.30321,178.38072   C 293.14538,178.94016 290.50803,179.21988 287.3512,179.21988   z  M 275.04357,150.56867   L 285.71285,150.56867   C 288.62992,150.56867 290.70783,150.36887 291.94658,149.96927   C 293.6249,149.48976 294.86365,148.6506 295.70281,147.53172   C 296.58192,146.37289 296.98152,144.93434 296.98152,143.21606   C 296.98152,141.57771 296.58192,140.13915 295.82269,138.86044   C 295.02349,137.62168 293.90461,136.78253 292.4261,136.30301   C 290.98755,135.86345 288.47008,135.62369 284.91365,135.62369   L 275.04357,135.62369   z  M 275.04357,173.38574   L 287.3512,173.38574   C 289.46907,173.38574 290.94759,173.30582 291.78674,173.14598   C 293.30522,172.86626 294.54397,172.4267 295.58293,171.78735   C 296.58192,171.14799 297.42108,170.26887 298.06044,169.03012   C 298.69979,167.83132 299.05943,166.47269 299.05943,164.87429   C 299.05943,163.03614 298.57992,161.43775 297.62088,160.07911   C 296.66184,158.72048 295.38313,157.76144 293.70482,157.20201   C 292.0265,156.68253 289.62891,156.40281 286.47208,156.40281   L 275.04357,156.40281   z "
     style="fill:#000000;fill-rule:evenodd;fill-opacity:1;stroke:none;" />
</svg>
