<?xml version="1.0" encoding="UTF-8" standalone="no"?>
<svg
   xmlns:dc="http://purl.org/dc/elements/1.1/"
   xmlns:cc="http://creativecommons.org/ns#"
   xmlns:rdf="http://www.w3.org/1999/02/22-rdf-syntax-ns#"
   xmlns:svg="http://www.w3.org/2000/svg"
   xmlns="http://www.w3.org/2000/svg"
   id="svg13"
   height="116.05mm"
   width="135.35001mm"
   version="1.0">
  <metadata
     id="metadata17">
    <rdf:RDF>
      <cc:Work
         rdf:about="">
        <dc:format>image/svg+xml</dc:format>
        <dc:type
           rdf:resource="http://purl.org/dc/dcmitype/StillImage" />
      </cc:Work>
    </rdf:RDF>
  </metadata>
  <defs
     id="defs3">
    <pattern
       y="0"
       x="0"
       height="6"
       width="6"
       patternUnits="userSpaceOnUse"
       id="EMFhbasepattern" />
  </defs>
  <path
     id="path5"
     d="  M 174.2249,54.345381   C 54.345381,54.345381 54.345381,250.94779 174.2249,250.94779   C 174.2249,384.25381 337.26104,384.25381 337.26104,250.94779   C 457.14056,250.94779 457.14056,54.345381 337.26104,54.345381  "
     style="fill:none;stroke:#ffff00;stroke-width:9.5903616px;stroke-linecap:butt;stroke-linejoin:miter;stroke-miterlimit:10;stroke-dasharray:none;stroke-opacity:1;" />
  <path
     id="path7"
     d="  M 229.56927,95.783734   L 229.56927,95.783734   L 282.31626,95.783734   L 319.23915,132.70662   L 319.23915,185.45361   L 282.31626,222.3765   L 229.56927,222.3765   L 192.64638,185.45361   L 192.64638,132.70662   z "
     style="fill:#008000;fill-rule:evenodd;fill-opacity:1;stroke:none;" />
  <path
     id="path9"
     d="  M 229.56927,95.783734   L 229.56927,95.783734   L 282.31626,95.783734   L 319.23915,132.70662   L 319.23915,185.45361   L 282.31626,222.3765   L 229.56927,222.3765   L 192.64638,185.45361   L 192.64638,132.70662   z "
     style="fill:none;stroke:#000000;stroke-width:10.549397px;stroke-linecap:butt;stroke-linejoin:miter;stroke-miterlimit:10;stroke-dasharray:none;stroke-opacity:1;" />
  <path
     id="path11"
     d="  M 205.83313,167.91124   L 215.86305,141.81747   L 219.57931,141.81747   L 230.24859,167.91124   L 226.33253,167.91124   L 223.29558,159.99919   L 212.38654,159.99919   L 209.50943,167.91124   z  M 213.34558,157.20201   L 222.21666,157.20201   L 219.49939,149.96927   C 218.66024,147.77148 218.02088,145.97329 217.62128,144.5747   C 217.3016,146.25301 216.82209,147.89136 216.22269,149.56968   z  M 232.96586,167.91124   L 232.96586,141.81747   L 236.52229,141.81747   L 250.22851,162.31687   L 250.22851,141.81747   L 253.54518,141.81747   L 253.54518,167.91124   L 249.98875,167.91124   L 236.28253,147.41185   L 236.28253,167.91124   z  M 277.96064,158.76044   L 281.39718,159.63956   C 280.67791,162.4767 279.35923,164.63454 277.48112,166.11305   C 275.60301,167.63152 273.3253,168.3508 270.60803,168.3508   C 267.77088,168.3508 265.49317,167.79136 263.73494,166.63253   C 261.9767,165.51365 260.61807,163.83534 259.69899,161.67751   C 258.77992,159.47972 258.34036,157.16205 258.34036,154.68454   C 258.34036,151.96727 258.85984,149.60964 259.89879,147.57168   C 260.93775,145.53373 262.41626,144.01526 264.33433,142.9763   C 266.25241,141.89739 268.33032,141.37791 270.64799,141.37791   C 273.24538,141.37791 275.44317,142.05723 277.24136,143.3759   C 278.99959,144.69458 280.23835,146.57269 280.95763,148.97028   L 277.56104,149.76948   C 276.96164,147.89136 276.08253,146.49277 274.92369,145.65361   C 273.76486,144.7745 272.3263,144.33494 270.56807,144.33494   C 268.57008,144.33494 266.89176,144.81446 265.53313,145.77349   C 264.21445,146.73253 263.25542,148.01124 262.69598,149.6496   C 262.1765,151.28795 261.89678,152.9263 261.89678,154.64458   C 261.89678,156.88233 262.21646,158.8004 262.85582,160.47871   C 263.49518,162.11707 264.49417,163.35582 265.89277,164.19498   C 267.2514,164.99417 268.72992,165.39377 270.28835,165.39377   C 272.24638,165.39377 273.88473,164.83433 275.20341,163.71546   C 276.56204,162.63654 277.48112,160.95823 277.96064,158.76044   z  M 285.71285,167.91124   L 285.71285,141.81747   L 297.26124,141.81747   C 299.57891,141.81747 301.3771,142.05723 302.5759,142.53674   C 303.77469,143.01626 304.73373,143.81546 305.45301,145.01425   C 306.21224,146.21305 306.57188,147.49176 306.57188,148.93032   C 306.57188,150.80843 305.97249,152.36687 304.77369,153.64558   C 303.5749,154.88434 301.69678,155.68353 299.21927,156.04317   C 300.13835,156.48273 300.81767,156.92229 301.29718,157.36185   C 302.29618,158.28092 303.25522,159.43976 304.13433,160.79839   L 308.68975,167.91124   L 304.33413,167.91124   L 300.89759,162.4767   C 299.89859,160.91827 299.05943,159.71948 298.42008,158.88032   C 297.74076,158.08112 297.18132,157.48172 296.66184,157.16205   C 296.14237,156.80241 295.62289,156.60261 295.06345,156.44277   C 294.70381,156.36285 294.06445,156.32289 293.14538,156.32289   L 289.14939,156.32289   L 289.14939,167.91124   z  M 289.14939,153.3259   L 296.58192,153.3259   C 298.14036,153.3259 299.37911,153.16606 300.25823,152.84638   C 301.1773,152.5267 301.85662,152.00723 302.29618,151.28795   C 302.7757,150.56867 303.01546,149.76948 303.01546,148.93032   C 303.01546,147.73152 302.53594,146.69257 301.65682,145.89337   C 300.77771,145.09417 299.33915,144.69458 297.42108,144.69458   L 289.14939,144.69458   z "
     style="fill:#000000;fill-rule:evenodd;fill-opacity:1;stroke:none;" />
</svg>
