<?xml version="1.0" encoding="UTF-8" standalone="no"?>
<svg
   xmlns:dc="http://purl.org/dc/elements/1.1/"
   xmlns:cc="http://creativecommons.org/ns#"
   xmlns:rdf="http://www.w3.org/1999/02/22-rdf-syntax-ns#"
   xmlns:svg="http://www.w3.org/2000/svg"
   xmlns="http://www.w3.org/2000/svg"
   id="svg17"
   height="95.75mm"
   width="95.75mm"
   version="1.0">
  <metadata
     id="metadata21">
    <rdf:RDF>
      <cc:Work
         rdf:about="">
        <dc:format>image/svg+xml</dc:format>
        <dc:type
           rdf:resource="http://purl.org/dc/dcmitype/StillImage" />
      </cc:Work>
    </rdf:RDF>
  </metadata>
  <defs
     id="defs3">
    <pattern
       y="0"
       x="0"
       height="6"
       width="6"
       patternUnits="userSpaceOnUse"
       id="EMFhbasepattern" />
  </defs>
  <path
     id="path5"
     d="  M 132.98634,15.983936   L 132.98634,54.345381   L 228.88996,54.345381   L 228.88996,15.983936   L 132.98634,15.983936   z "
     style="fill:#000000;fill-rule:evenodd;fill-opacity:1;stroke:none;" />
  <path
     id="path7"
     d="  M 54.345381,54.345381   L 54.345381,307.53092   L 307.53092,307.53092   L 307.53092,54.345381   L 54.345381,54.345381   z "
     style="fill:#aaffaa;fill-rule:evenodd;fill-opacity:1;stroke:none;" />
  <path
     id="path9"
     d="  M 54.345381,54.345381   L 307.53092,54.345381   L 307.53092,307.53092   L 54.345381,307.53092   z "
     style="fill:none;stroke:#000000;stroke-width:9.5903616px;stroke-linecap:butt;stroke-linejoin:miter;stroke-miterlimit:10;stroke-dasharray:none;stroke-opacity:1;" />
  <path
     id="path11"
     d="  M 181.89719,284.99357   C 175.18393,284.99357 161.75743,281.63694 161.75743,278.28032   L 161.75743,254.78393   C 94.624898,227.93092 128.19116,144.01526 181.89719,147.37189  "
     style="fill:none;stroke:#000000;stroke-width:6.713253px;stroke-linecap:butt;stroke-linejoin:miter;stroke-miterlimit:10;stroke-dasharray:none;stroke-opacity:1;" />
  <path
     id="path13"
     d="  M 178.54056,284.99357   C 185.25381,284.99357 198.68032,281.63694 198.68032,278.28032   L 198.68032,254.78393   C 265.81285,227.93092 232.24658,144.01526 178.54056,147.37189  "
     style="fill:none;stroke:#000000;stroke-width:6.713253px;stroke-linecap:butt;stroke-linejoin:miter;stroke-miterlimit:10;stroke-dasharray:none;stroke-opacity:1;" />
  <path
     id="path15"
     d="  M 150.68855,112.36707   L 150.68855,108.17128   L 165.79337,108.13132   L 165.79337,121.39799   C 163.4757,123.23614 161.07811,124.63474 158.6006,125.55381   C 156.16305,126.51285 153.60562,126.95241 151.00823,126.95241   C 147.53172,126.95241 144.33494,126.23313 141.45783,124.71466   C 138.58072,123.23614 136.42289,121.03835 134.98434,118.2012   C 133.50582,115.36405 132.78654,112.20723 132.78654,108.69076   C 132.78654,105.21426 133.50582,101.97751 134.94438,98.940561   C 136.42289,95.943573 138.5008,93.705822 141.21807,92.267268   C 143.9753,90.788754 147.09217,90.069477 150.64859,90.069477   C 153.24598,90.069477 155.56365,90.469075 157.64156,91.308232   C 159.75944,92.147388 161.39779,93.306224 162.55662,94.824697   C 163.75542,96.303211 164.63454,98.261244 165.27389,100.65883   L 160.99819,101.81767   C 160.47871,100.01948 159.7994,98.580922 159.0002,97.541966   C 158.201,96.503011 157.08213,95.663854 155.60361,95.024497   C 154.1251,94.425099 152.48674,94.10542 150.68855,94.10542   C 148.53072,94.10542 146.65261,94.425099 145.09417,95.104416   C 143.49578,95.743774 142.21707,96.62289 141.25803,97.661846   C 140.29899,98.740762 139.53976,99.939557 139.02028,101.21827   C 138.1012,103.41606 137.66164,105.81365 137.66164,108.41104   C 137.66164,111.56787 138.18112,114.24518 139.3,116.36305   C 140.37891,118.52088 141.97731,120.11928 144.09518,121.15823   C 146.17309,122.19719 148.41084,122.71666 150.76847,122.71666   C 152.80642,122.71666 154.80442,122.31707 156.76245,121.51787   C 158.68052,120.75863 160.15903,119.91948 161.15803,119.0004   L 161.15803,112.36707   z  M 172.86626,126.35301   L 172.86626,90.668874   L 198.68032,90.668874   L 198.68032,94.864657   L 177.58152,94.864657   L 177.58152,105.81365   L 197.32168,105.81365   L 197.32168,110.00944   L 177.58152,110.00944   L 177.58152,122.15723   L 199.51948,122.15723   L 199.51948,126.35301   z  M 205.99297,126.35301   L 205.99297,90.668874   L 210.82811,90.668874   L 229.56927,118.68072   L 229.56927,90.668874   L 234.08474,90.668874   L 234.08474,126.35301   L 229.2496,126.35301   L 210.50843,98.301203   L 210.50843,126.35301   z "
     style="fill:#000000;fill-rule:evenodd;fill-opacity:1;stroke:none;" />
</svg>
