<?xml version="1.0" encoding="UTF-8" standalone="no"?>
<svg
   xmlns:dc="http://purl.org/dc/elements/1.1/"
   xmlns:cc="http://creativecommons.org/ns#"
   xmlns:rdf="http://www.w3.org/1999/02/22-rdf-syntax-ns#"
   xmlns:svg="http://www.w3.org/2000/svg"
   xmlns="http://www.w3.org/2000/svg"
   id="svg13"
   height="107.94mm"
   width="95.75mm"
   version="1.0">
  <metadata
     id="metadata17">
    <rdf:RDF>
      <cc:Work
         rdf:about="">
        <dc:format>image/svg+xml</dc:format>
        <dc:type
           rdf:resource="http://purl.org/dc/dcmitype/StillImage" />
      </cc:Work>
    </rdf:RDF>
  </metadata>
  <defs
     id="defs3">
    <pattern
       y="0"
       x="0"
       height="6"
       width="6"
       patternUnits="userSpaceOnUse"
       id="EMFhbasepattern" />
  </defs>
  <path
     id="path5"
     d="  M 307.53092,54.345381   L 307.53092,236.56225   L 180.93815,353.56465   L 54.345381,236.56225   L 54.345381,54.345381  "
     style="fill:none;stroke:#ff0000;stroke-width:9.5903616px;stroke-linecap:butt;stroke-linejoin:miter;stroke-miterlimit:10;stroke-dasharray:none;stroke-opacity:1;" />
  <path
     id="path7"
     d="  M 154.76446,95.783734   L 154.76446,95.783734   L 207.51144,95.783734   L 244.43433,132.70662   L 244.43433,185.45361   L 207.51144,222.3765   L 154.76446,222.3765   L 117.84156,185.45361   L 117.84156,132.70662   z "
     style="fill:#ff8c00;fill-rule:evenodd;fill-opacity:1;stroke:none;" />
  <path
     id="path9"
     d="  M 154.76446,95.783734   L 154.76446,95.783734   L 207.51144,95.783734   L 244.43433,132.70662   L 244.43433,185.45361   L 207.51144,222.3765   L 154.76446,222.3765   L 117.84156,185.45361   L 117.84156,132.70662   z "
     style="fill:none;stroke:#000000;stroke-width:10.549397px;stroke-linecap:butt;stroke-linejoin:miter;stroke-miterlimit:10;stroke-dasharray:none;stroke-opacity:1;" />
  <path
     id="path11"
     d="  M 162.27691,183.41566   L 165.95321,165.47369   L 158.84036,165.47369   L 158.84036,159.2   L 167.19197,159.2   L 170.34879,143.89538   L 158.84036,143.89538   L 158.84036,137.62168   L 171.58755,137.62168   L 175.26385,119.51988   L 181.57751,119.51988   L 177.9012,137.62168   L 191.20783,137.62168   L 194.84417,119.51988   L 201.23775,119.51988   L 197.56144,137.62168   L 204.83413,137.62168   L 204.83413,143.89538   L 196.28273,143.89538   L 193.1259,159.2   L 204.83413,159.2   L 204.83413,165.47369   L 191.84719,165.47369   L 188.21084,183.41566   L 181.89719,183.41566   L 185.49357,165.47369   L 172.26686,165.47369   L 168.59056,183.41566   L 162.27691,183.41566  z    M 173.54558,159.2   L 186.77229,159.2   L 189.92911,143.89538   L 176.66245,143.89538   L 173.54558,159.2  z   "
     style="fill:#000000;fill-rule:evenodd;fill-opacity:1;stroke:none;" />
</svg>
