<?xml version="1.0" encoding="UTF-8" standalone="no"?>
<svg
   xmlns:dc="http://purl.org/dc/elements/1.1/"
   xmlns:cc="http://creativecommons.org/ns#"
   xmlns:rdf="http://www.w3.org/1999/02/22-rdf-syntax-ns#"
   xmlns:svg="http://www.w3.org/2000/svg"
   xmlns="http://www.w3.org/2000/svg"
   id="svg13"
   height="89.669998mm"
   width="120.11mm"
   version="1.0">
  <metadata
     id="metadata17">
    <rdf:RDF>
      <cc:Work
         rdf:about="">
        <dc:format>image/svg+xml</dc:format>
        <dc:type
           rdf:resource="http://purl.org/dc/dcmitype/StillImage" />
      </cc:Work>
    </rdf:RDF>
  </metadata>
  <defs
     id="defs3">
    <pattern
       y="0"
       x="0"
       height="6"
       width="6"
       patternUnits="userSpaceOnUse"
       id="EMFhbasepattern" />
  </defs>
  <path
     id="path5"
     d="  M 179.02008,15.983936   L 179.02008,54.345381   L 274.92369,54.345381   L 274.92369,15.983936   L 179.02008,15.983936   z "
     style="fill:#000000;fill-rule:evenodd;fill-opacity:1;stroke:none;" />
  <path
     id="path7"
     d="  M 54.345381,54.345381   L 54.345381,284.51405   L 399.59839,284.51405   L 399.59839,54.345381   L 54.345381,54.345381   z "
     style="fill:#80e0ff;fill-rule:evenodd;fill-opacity:1;stroke:none;" />
  <path
     id="path9"
     d="  M 54.345381,54.345381   L 399.59839,54.345381   L 399.59839,284.51405   L 54.345381,284.51405   z "
     style="fill:none;stroke:#000000;stroke-width:9.5903616px;stroke-linecap:butt;stroke-linejoin:miter;stroke-miterlimit:10;stroke-dasharray:none;stroke-opacity:1;" />
  <path
     id="path11"
     d="  M 169.5496,167.71144   L 169.5496,160.47871   L 195.72329,160.43875   L 195.72329,183.3757   C 191.68735,186.57249 187.53152,188.97008 183.25582,190.60843   C 179.02008,192.20682 174.6245,193.00602 170.10903,193.00602   C 164.0751,193.00602 158.56064,191.72731 153.56566,189.12992   C 148.61064,186.53253 144.89438,182.7763 142.33695,177.86124   C 139.81948,172.94618 138.54076,167.43172 138.54076,161.35783   C 138.54076,155.36385 139.81948,149.72952 142.33695,144.53474   C 144.85442,139.3 148.4508,135.46385 153.16606,132.90642   C 157.92128,130.38895 163.35582,129.11024 169.50964,129.11024   C 173.94518,129.11024 177.98112,129.86948 181.61747,131.30803   C 185.21385,132.74658 188.051,134.74458 190.08895,137.34197   C 192.16686,139.93936 193.7253,143.29598 194.76425,147.45181   L 187.41164,149.48976   C 186.49257,146.33293 185.33373,143.85542 183.93514,142.05723   C 182.5765,140.25903 180.61847,138.82048 178.06104,137.74156   C 175.50361,136.66265 172.66646,136.10321 169.5496,136.10321   C 165.79337,136.10321 162.55662,136.70261 159.83936,137.82148   C 157.12209,138.98032 154.92429,140.45883 153.24598,142.33695   C 151.56767,144.1751 150.28895,146.21305 149.32992,148.41084   C 147.77148,152.24699 146.97229,156.40281 146.97229,160.83835   C 146.97229,166.35281 147.93132,170.98815 149.8494,174.70442   C 151.72751,178.38072 154.48474,181.13795 158.12108,182.93614   C 161.75743,184.73433 165.59357,185.65341 169.66948,185.65341   C 173.18594,185.65341 176.66245,184.97409 180.01907,183.61546   C 183.41566,182.21686 185.97309,180.77831 187.69136,179.21988   L 187.69136,167.71144   z  M 205.27369,161.87731   C 205.27369,151.60763 208.03092,143.5757 213.54538,137.78152   C 219.05984,131.98735 226.13273,129.07028 234.84397,129.07028   C 240.55823,129.07028 245.71305,130.42891 250.26847,133.18614   C 254.86385,135.90341 258.34036,139.6996 260.73795,144.5747   C 263.1755,149.4498 264.37429,154.96425 264.37429,161.15803   C 264.37429,167.43172 263.09558,173.0261 260.57811,177.98112   C 258.02068,182.93614 254.46425,186.65241 249.82891,189.20984   C 245.19357,191.76727 240.19859,193.00602 234.80401,193.00602   C 229.00984,193.00602 223.81506,191.60743 219.21968,188.81024   C 214.66425,186.01305 211.18775,182.1769 208.83012,177.3018   C 206.47249,172.4267 205.27369,167.31184 205.27369,161.87731   z  M 213.70522,161.99719   C 213.70522,169.42972 215.70321,175.30381 219.69919,179.57952   C 223.69518,183.89518 228.73012,186.01305 234.76405,186.01305   C 240.91787,186.01305 245.99277,183.85522 249.94879,179.53956   C 253.94478,175.22389 255.94277,169.07008 255.94277,161.11807   C 255.94277,156.08313 255.10361,151.68755 253.38534,147.93132   C 251.66706,144.1751 249.18955,141.29799 245.91285,139.22008   C 242.63614,137.14217 238.95984,136.10321 234.88393,136.10321   C 229.12972,136.10321 224.13474,138.1012 219.97891,142.09719   C 215.78313,146.05321 213.70522,152.68654 213.70522,161.99719   z  M 292.54598,191.96707   L 268.61004,130.18915   L 277.48112,130.18915   L 293.54498,175.06405   C 294.82369,178.66044 295.90261,182.01707 296.78172,185.17389   C 297.74076,181.81727 298.81967,178.42068 300.09839,175.06405   L 316.8016,130.18915   L 325.15321,130.18915   L 300.93755,191.96707   z "
     style="fill:#000000;fill-rule:evenodd;fill-opacity:1;stroke:none;" />
</svg>
