<?xml version="1.0" encoding="UTF-8" standalone="no"?>
<svg
   xmlns:dc="http://purl.org/dc/elements/1.1/"
   xmlns:cc="http://creativecommons.org/ns#"
   xmlns:rdf="http://www.w3.org/1999/02/22-rdf-syntax-ns#"
   xmlns:svg="http://www.w3.org/2000/svg"
   xmlns="http://www.w3.org/2000/svg"
   id="svg31"
   height="130.27mm"
   width="130.27mm"
   version="1.0">
  <metadata
     id="metadata35">
    <rdf:RDF>
      <cc:Work
         rdf:about="">
        <dc:format>image/svg+xml</dc:format>
        <dc:type
           rdf:resource="http://purl.org/dc/dcmitype/StillImage" />
      </cc:Work>
    </rdf:RDF>
  </metadata>
  <defs
     id="defs3">
    <pattern
       y="0"
       x="0"
       height="6"
       width="6"
       patternUnits="userSpaceOnUse"
       id="EMFhbasepattern" />
  </defs>
  <path
     id="path5"
     d="  M 198.2008,63.935742   L 198.2008,111.88755   L 294.10441,111.88755   L 294.10441,63.935742   L 198.2008,63.935742   z "
     style="fill:#000000;fill-rule:evenodd;fill-opacity:1;stroke:none;" />
  <path
     id="path7"
     d="  M 164.63454,327.67068   C 164.63454,437.95983 327.67068,437.95983 327.67068,327.67068   C 437.95983,327.67068 437.95983,164.63454 327.67068,164.63454   C 327.67068,54.345381 164.63454,54.345381 164.63454,164.63454   C 54.345381,164.63454 54.345381,327.67068 164.63454,327.67068   z "
     style="fill:#ffff80;fill-rule:evenodd;fill-opacity:1;stroke:none;" />
  <path
     id="path9"
     d="  M 164.63454,327.67068   C 164.63454,437.95983 327.67068,437.95983 327.67068,327.67068   C 437.95983,327.67068 437.95983,164.63454 327.67068,164.63454   C 327.67068,54.345381 164.63454,54.345381 164.63454,164.63454   C 54.345381,164.63454 54.345381,327.67068 164.63454,327.67068  "
     style="fill:none;stroke:#000000;stroke-width:9.5903616px;stroke-linecap:butt;stroke-linejoin:miter;stroke-miterlimit:10;stroke-dasharray:none;stroke-opacity:1;" />
  <path
     id="path11"
     d="  M 203.51546,211.34759   L 203.51546,214.66425   C 203.51546,217.78112 209.30964,227.37148 211.62731,227.97088   C 211.62731,224.93393 212.54638,224.33453 212.54638,221.29759   L 212.54638,211.34759   C 212.54638,209.86907 210.58835,206.11285 209.22972,206.11285   L 207.79116,206.11285   C 205.91305,206.11285 203.51546,209.06988 203.51546,211.34759   z "
     style="fill:#ffffff;fill-rule:evenodd;fill-opacity:1;stroke:none;" />
  <path
     id="path13"
     d="  M 279.55903,217.98092   L 279.55903,226.53233   C 282.83574,225.37349 290.02851,213.78514 290.02851,208.95   C 290.02851,207.3516 289.18935,205.63333 287.63092,205.63333   L 286.19237,205.63333   C 279.47911,205.63333 279.55903,211.38755 279.55903,217.98092   z "
     style="fill:#ffffff;fill-rule:evenodd;fill-opacity:1;stroke:none;" />
  <path
     id="path15"
     d="  M 215.42349,228.4504   C 216.62229,233.00582 236.64217,236.04277 243.91486,236.04277   L 246.31245,236.04277   C 253.74498,236.04277 276.28233,232.76606 276.72188,227.49136   C 266.93172,225.21365 261.05763,223.21566 248.19056,223.21566   L 244.87389,223.21566   C 239.11968,223.21566 234.36445,224.05482 229.20964,224.65421   C 222.3765,225.45341 220.21867,227.17168 215.42349,228.4504   z "
     style="fill:#000000;fill-rule:evenodd;fill-opacity:1;stroke:none;" />
  <path
     id="path17"
     d="  M 187.8512,230.80803   L 187.8512,232.7261   C 187.8512,234.60421 191.32771,237.48132 193.56546,237.48132   L 194.48454,237.48132   C 199.1998,237.48132 208.43052,232.9259 210.18875,230.32851   C 205.47349,229.2496 204.03494,228.85 198.32068,228.4504   C 188.97008,227.77108 193.00602,229.44939 187.8512,230.80803   z "
     style="fill:#ffffff;fill-rule:evenodd;fill-opacity:1;stroke:none;" />
  <path
     id="path19"
     d="  M 281.91666,228.69016   C 283.6749,231.52731 294.26425,237.96084 298.57992,237.96084   L 299.97851,237.96084   C 301.45702,237.96084 302.85562,237.52128 302.85562,236.04277   L 302.85562,234.60421   C 302.85562,229.32951 296.7018,226.73213 291.38714,227.29156   L 281.91666,228.69016   z "
     style="fill:#ffffff;fill-rule:evenodd;fill-opacity:1;stroke:none;" />
  <path
     id="path21"
     d="  M 259.13955,276.44216   L 261.85682,273.60502   L 262.45622,276.44216   L 264.09457,280.87771   L 267.69096,275.96265   C 267.37128,275.36325 266.73192,274.40421 266.73192,273.56506   C 266.73192,272.44618 268.17048,271.76686 268.17048,268.37028   L 268.53012,268.37028   L 269.48915,273.80482   L 277.601,260.05863   L 277.16144,259.81887   C 280.31827,260.65803 276.28233,265.45321 275.36325,267.01164   C 273.88473,269.48915 272.28634,272.1265 271.04759,274.68393   L 274.32429,273.56506   C 272.36626,276.52208 272.16646,277.68092 268.68996,277.44116   L 265.29337,282.0765   L 271.96666,281.6769   C 271.24739,282.15642 267.0516,284.51405 266.25241,284.51405   C 264.97369,284.51405 264.93373,284.27429 263.85482,284.03453   L 260.53815,290.70783   L 268.21044,290.30823   L 261.01767,293.58494   L 259.05963,292.54598   L 256.26245,300.05843   L 264.81385,299.25923   C 264.21445,299.61887 257.78092,302.5759 257.22148,302.5759   C 255.98273,302.5759 256.74196,302.25622 254.86385,302.09638   C 254.26445,309.24919 247.23152,321.8765 247.23152,331.54678   L 247.1516,333.94437   L 247.71104,339.13915   L 244.39437,339.13915   C 244.39437,329.66867 241.55723,306.57188 238.68012,301.13735   L 236.28253,301.1773   L 231.08775,297.3012   L 238.2006,298.77971   C 238.16064,297.06144 236.36245,290.62791 235.48333,290.46807   C 232.44638,289.94859 229.96887,289.26927 228.2506,286.7518   L 235.16365,287.71084   L 232.5263,281.19739   C 228.85,281.4771 226.53233,279.63895 223.9749,277.36124   L 231.60723,278.7998   L 229.20964,273.56506   C 228.6502,273.7249 227.89096,274.04457 227.77108,274.04457   C 226.17269,274.04457 223.05582,271.60702 222.09678,270.64799   L 228.2506,271.68694   L 226.81204,269.28935   L 224.49437,269.24939   L 222.13674,264.85381   L 225.29357,266.49216   L 219.25964,252.86586   L 220.17871,252.4263   L 226.81204,266.4522   L 227.53132,266.41225   L 229.20964,260.73795   C 229.20964,263.85482 230.12871,263.7749 230.12871,266.4522   L 230.12871,266.93172   C 230.12871,268.61004 228.73012,268.37028 228.73012,269.28935   C 228.73012,270.32831 229.96887,271.68694 230.44839,272.08654   L 232.04678,267.89076   L 233.00582,267.89076   L 233.00582,271.68694   C 233.00582,272.80582 232.20662,273.08554 231.56727,274.04457   C 232.04678,276.16245 232.80602,279.19939 234.60421,279.59899   L 237.76104,274.52409   C 237.76104,278.24036 237.84096,280.83775 235.36345,282.11646   L 236.96184,286.07249   L 239.63915,283.0755   L 239.71907,287.91064   L 238.28052,289.70883   L 240.19859,296.46204   L 242.95582,293.54498   L 243.03574,298.38012   L 241.59719,300.17831   L 244.39437,308.72971   C 244.39437,302.09638 245.47329,299.21927 246.51225,293.74477   C 247.11164,290.66787 249.58915,280.39819 249.50923,279.47911   L 247.3514,278.32028   L 246.9518,272.48614   L 250.58815,276.92168   L 251.90682,270.40823   L 250.34839,269.24939   L 249.30943,262.53614   L 253.38534,267.89076   L 255.34337,262.1765   C 252.78594,260.85783 253.4253,260.17851 253.6251,256.30241   L 256.02269,259.69899   L 258.18052,254.58413   C 257.1016,254.30441 256.74196,254.46425 256.74196,253.14558   C 256.74196,251.22751 257.701,251.10763 257.701,247.43132   L 257.98072,247.51124   L 259.13955,252.66606   L 259.85883,252.58614   L 264.81385,238.44036   L 266.69196,238.6002   L 261.09759,253.30542   L 264.33433,251.70702   C 263.7749,253.8249 262.7759,255.94277 260.09859,256.02269   L 258.18052,260.69799   L 263.89478,259.81887   C 262.1765,261.25743 260.17851,263.13554 257.1016,263.09558   L 255.34337,268.88976   L 262.45622,266.93172   C 261.89678,267.69096 256.66204,271.68694 255.78293,271.68694   C 254.70401,271.68694 255.26345,271.5271 253.86486,271.20743   L 251.98674,277.76084   z  M 215.42349,228.4504   C 220.21867,227.17168 222.3765,225.45341 229.20964,224.65421   C 234.36445,224.05482 239.11968,223.21566 244.87389,223.21566   L 248.19056,223.21566   C 261.05763,223.21566 266.93172,225.21365 276.72188,227.49136   C 276.28233,232.76606 253.74498,236.04277 246.31245,236.04277   L 243.91486,236.04277   C 236.64217,236.04277 216.62229,233.00582 215.42349,228.4504   z  M 201.63735,308.72971   L 201.63735,314.44397   C 201.63735,327.63072 201.47751,342.9753 214.46445,342.9753   L 277.64096,342.9753   C 284.35421,342.9753 286.87168,338.81947 289.46907,334.86345   L 290.46807,326.31204   L 290.46807,306.37208   C 290.46807,284.79377 288.62992,268.21044 285.67289,249.86887   C 281.79678,225.61325 279.43915,222.73614 251.50723,222.73614   L 241.07771,222.73614   C 209.06988,222.73614 213.38554,226.89196 206.67229,251.06767   C 205.63333,254.82389 205.83313,260.73795 204.75421,264.85381   C 203.55542,269.48915 204.23474,274.28433 203.35562,279.07951   C 201.91707,286.99156 201.63735,299.77871 201.63735,308.72971   z "
     style="fill:#ffffff;fill-rule:evenodd;fill-opacity:1;stroke:none;" />
  <path
     id="path23"
     d="  M 259.13955,276.44216   C 258.38032,277.08152 253.74498,280.71787 252.94578,280.71787   C 251.86686,280.71787 252.38634,280.55803 251.06767,280.23835   C 250.98775,283.83473 248.39036,290.54799 247.751,294.54397   C 247.1516,298.42008 245.35341,306.13232 245.35341,309.68875   L 245.15361,314.00441   L 246.39237,323.99437   L 253.86486,300.73775   L 251.94678,300.17831   L 251.06767,291.6269   L 254.70401,298.89959   L 257.58112,291.74678   L 256.26245,290.22831   L 256.50221,285.31325   L 258.93976,289.42911   L 262.93574,282.15642   L 261.93674,282.11646   L 262.45622,276.44216   L 261.85682,273.60502   z "
     style="fill:#ffffff;fill-rule:evenodd;fill-opacity:1;stroke:none;" />
  <path
     id="path25"
     d="  M 201.63735,308.72971   C 201.63735,299.77871 201.91707,286.99156 203.35562,279.07951   C 204.23474,274.28433 203.55542,269.48915 204.75421,264.85381   C 205.83313,260.73795 205.63333,254.82389 206.67229,251.06767   C 213.38554,226.89196 209.06988,222.73614 241.07771,222.73614   L 251.50723,222.73614   C 279.43915,222.73614 281.79678,225.61325 285.67289,249.86887   C 288.62992,268.21044 290.46807,284.79377 290.46807,306.37208   L 290.46807,326.31204   L 289.46907,334.86345   C 286.87168,338.81947 284.35421,342.9753 277.64096,342.9753   L 214.46445,342.9753   C 201.47751,342.9753 201.63735,327.63072 201.63735,314.44397   z  M 187.8512,230.80803   C 193.00602,229.44939 188.97008,227.77108 198.32068,228.4504   C 204.03494,228.85 205.47349,229.2496 210.18875,230.32851   C 208.43052,232.9259 199.1998,237.48132 194.48454,237.48132   L 193.56546,237.48132   C 191.32771,237.48132 187.8512,234.60421 187.8512,232.7261   z  M 291.38714,227.29156   C 296.7018,226.73213 302.85562,229.32951 302.85562,234.60421   L 302.85562,236.04277   C 302.85562,237.52128 301.45702,237.96084 299.97851,237.96084   L 298.57992,237.96084   C 294.26425,237.96084 283.6749,231.52731 281.91666,228.69016   z  M 203.51546,211.34759   C 203.51546,209.06988 205.91305,206.11285 207.79116,206.11285   L 209.22972,206.11285   C 210.58835,206.11285 212.54638,209.86907 212.54638,211.34759   L 212.54638,221.29759   C 212.54638,224.33453 211.62731,224.93393 211.62731,227.97088   C 209.30964,227.37148 203.51546,217.78112 203.51546,214.66425   z  M 279.55903,217.98092   C 279.55903,211.38755 279.47911,205.63333 286.19237,205.63333   L 287.63092,205.63333   C 289.18935,205.63333 290.02851,207.3516 290.02851,208.95   C 290.02851,213.78514 282.83574,225.37349 279.55903,226.53233   z  M 282.8757,227.01184   C 284.03453,222.69618 291.90662,215.02389 291.90662,209.90903   L 291.90662,206.59237   C 290.34819,205.95301 290.30823,203.75522 288.11044,203.75522   L 286.67188,203.75522   C 280.55803,203.75522 277.64096,208.59036 277.64096,214.66425   L 277.64096,224.65421   C 272.84578,223.33554 272.16646,222.29658 265.29337,221.77711   C 260.57811,221.41747 256.46225,220.85803 251.06767,220.85803   L 242.4763,220.85803   C 230.96787,220.85803 221.13775,221.53735 213.50542,225.57329   C 213.90502,223.89498 214.46445,223.3755 214.46445,221.29759   L 214.46445,213.2257   C 214.46445,209.78915 212.10682,204.19478 209.22972,204.19478   L 207.3516,204.19478   C 205.39357,204.19478 201.15783,208.67028 201.15783,211.34759   C 201.15783,216.02289 206.23273,224.45441 208.27068,227.49136   L 194.5245,226.37249   C 191.60743,226.29257 186.41265,229.00984 186.41265,231.28755   L 186.41265,232.7261   C 186.41265,235.96285 190.48855,239.35943 193.56546,239.35943   L 194.04498,239.35943   C 201.03795,239.35943 204.91405,234.68413 209.22972,233.68514   C 204.75421,242.11666 200.19879,286.43212 200.19879,301.13735   L 200.19879,315.40301   C 200.19879,329.54879 200.87811,344.85341 214.94397,344.85341   L 277.64096,344.85341   C 287.47108,344.85341 292.38614,335.74257 292.38614,325.83253   L 292.38614,300.65783   C 292.38614,295.26325 292.0265,287.551 291.38714,282.15642   C 290.90763,277.92068 289.54899,268.41024 289.54899,264.57409   C 289.54899,258.38032 287.7508,253.2255 287.11144,247.47128   C 286.552,242.51626 283.91465,237.2016 282.8757,232.7261   C 285.67289,234.20462 294.58393,239.83895 297.62088,239.83895   L 300.45803,239.83895   C 302.81566,239.83895 304.73373,237.92088 304.73373,235.56325   L 304.73373,235.08373   C 304.73373,229.84899 301.21726,226.05281 295.70281,226.05281   L 289.54899,226.05281   z "
     style="fill:#000000;fill-rule:evenodd;fill-opacity:1;stroke:none;" />
  <path
     id="path27"
     d="  M 262.45622,276.44216   L 261.93674,282.11646   L 262.93574,282.15642   L 258.93976,289.42911   L 256.50221,285.31325   L 256.26245,290.22831   L 257.58112,291.74678   L 254.70401,298.89959   L 251.06767,291.6269   L 251.94678,300.17831   L 253.86486,300.73775   L 246.39237,323.99437   L 245.15361,314.00441   L 245.35341,309.68875   C 245.35341,306.13232 247.1516,298.42008 247.751,294.54397   C 248.39036,290.54799 250.98775,283.83473 251.06767,280.23835   C 252.38634,280.55803 251.86686,280.71787 252.94578,280.71787   C 253.74498,280.71787 258.38032,277.08152 259.13955,276.44216   L 251.98674,277.76084   L 253.86486,271.20743   C 255.26345,271.5271 254.70401,271.68694 255.78293,271.68694   C 256.66204,271.68694 261.89678,267.69096 262.45622,266.93172   L 255.34337,268.88976   L 257.1016,263.09558   C 260.17851,263.13554 262.1765,261.25743 263.89478,259.81887   L 258.18052,260.69799   L 260.09859,256.02269   C 262.7759,255.94277 263.7749,253.8249 264.33433,251.70702   L 261.09759,253.30542   L 266.69196,238.6002   L 264.81385,238.44036   L 259.85883,252.58614   L 259.13955,252.66606   L 257.98072,247.51124   L 257.701,247.43132   C 257.701,251.10763 256.74196,251.22751 256.74196,253.14558   C 256.74196,254.46425 257.1016,254.30441 258.18052,254.58413   L 256.02269,259.69899   L 253.6251,256.30241   C 253.4253,260.17851 252.78594,260.85783 255.34337,262.1765   L 253.38534,267.89076   L 249.30943,262.53614   L 250.34839,269.24939   L 251.90682,270.40823   L 250.58815,276.92168   L 246.99176,272.48614   L 247.3514,278.32028   L 249.50923,279.47911   C 249.58915,280.39819 247.11164,290.66787 246.51225,293.74477   C 245.47329,299.21927 244.39437,302.09638 244.39437,308.72971   L 241.59719,300.17831   L 243.03574,298.38012   L 242.95582,293.54498   L 240.19859,296.46204   L 238.28052,289.70883   L 239.71907,287.91064   L 239.63915,283.0755   L 236.96184,286.07249   L 235.36345,282.11646   C 237.84096,280.83775 237.76104,278.24036 237.76104,274.52409   L 234.60421,279.59899   C 232.80602,279.19939 232.04678,276.16245 231.56727,274.04457   C 232.20662,273.08554 233.00582,272.80582 233.00582,271.68694   L 233.00582,267.89076   L 232.04678,267.89076   L 230.44839,272.08654   C 229.96887,271.68694 228.73012,270.32831 228.73012,269.28935   C 228.73012,268.37028 230.12871,268.61004 230.12871,266.93172   L 230.12871,266.4522   C 230.12871,263.7749 229.20964,263.85482 229.20964,260.73795   L 227.53132,266.41225   L 226.81204,266.4522   L 220.17871,252.4263   L 219.25964,252.86586   L 225.29357,266.49216   L 222.13674,264.85381   L 224.49437,269.24939   L 226.81204,269.28935   L 228.2506,271.68694   L 222.09678,270.64799   C 223.05582,271.60702 226.17269,274.04457 227.77108,274.04457   C 227.89096,274.04457 228.6502,273.7249 229.20964,273.56506   L 231.60723,278.7998   L 223.9749,277.36124   C 226.53233,279.63895 228.85,281.4771 232.5263,281.19739   L 235.16365,287.71084   L 228.2506,286.7518   C 229.96887,289.26927 232.44638,289.94859 235.48333,290.46807   C 236.36245,290.62791 238.16064,297.06144 238.2006,298.77971   L 231.08775,297.3012   L 236.28253,301.1773   L 238.68012,301.13735   C 241.55723,306.57188 244.39437,329.66867 244.39437,339.13915   L 247.71104,339.13915   L 247.1516,333.94437   L 247.23152,331.54678   C 247.23152,321.8765 254.26445,309.24919 254.86385,302.09638   C 256.74196,302.25622 255.98273,302.5759 257.22148,302.5759   C 257.78092,302.5759 264.21445,299.61887 264.81385,299.25923   L 256.26245,300.05843   L 259.05963,292.54598   L 261.01767,293.58494   L 268.21044,290.30823   L 260.53815,290.70783   L 263.85482,284.03453   C 264.93373,284.27429 264.97369,284.51405 266.25241,284.51405   C 267.0516,284.51405 271.24739,282.15642 271.96666,281.6769   L 265.29337,282.0765   L 268.68996,277.44116   C 272.16646,277.68092 272.36626,276.52208 274.32429,273.56506   L 271.04759,274.68393   C 272.28634,272.1265 273.88473,269.48915 275.36325,267.01164   C 276.28233,265.45321 280.31827,260.65803 277.2014,259.81887   L 277.601,260.05863   L 269.48915,273.80482   L 268.53012,268.37028   L 268.17048,268.37028   C 268.17048,271.76686 266.73192,272.44618 266.73192,273.56506   C 266.73192,274.40421 267.37128,275.36325 267.69096,275.96265   L 264.09457,280.87771   z "
     style="fill:#000000;fill-rule:evenodd;fill-opacity:1;stroke:none;" />
  <path
     id="path29"
     d="  M 180.33875,180.09899   L 184.77429,179.69939   C 184.97409,181.49759 185.49357,182.9761 186.25281,184.13494   C 187.01205,185.25381 188.21084,186.17289 189.84919,186.89217   C 191.44759,187.61144 193.28574,187.93112 195.32369,187.93112   C 197.12188,187.93112 198.72028,187.69136 200.07891,187.13193   C 201.47751,186.61245 202.51646,185.89317 203.15582,184.93413   C 203.83514,184.01506 204.19478,182.9761 204.19478,181.89719   C 204.19478,180.77831 203.8751,179.77931 203.19578,178.94016   C 202.55642,178.101 201.47751,177.42168 199.99899,176.86225   C 199.03996,176.46265 196.92209,175.90321 193.64538,175.10401   C 190.36867,174.30482 188.051,173.58554 186.73233,172.86626   C 185.05401,171.98715 183.7753,170.86827 182.93614,169.5496   C 182.09699,168.23092 181.69739,166.75241 181.69739,165.11405   C 181.69739,163.31586 182.1769,161.63755 183.21586,160.03915   C 184.25482,158.48072 185.73333,157.32189 187.69136,156.48273   C 189.64939,155.68353 191.84719,155.28393 194.24478,155.28393   C 196.88213,155.28393 199.23976,155.68353 201.23775,156.56265   C 203.2757,157.4018 204.83413,158.64056 205.91305,160.31887   C 206.99196,161.95723 207.59136,163.83534 207.67128,165.95321   L 203.15582,166.27289   C 202.8761,164.03514 202.0769,162.31687 200.67831,161.15803   C 199.27972,159.99919 197.2018,159.43976 194.44458,159.43976   C 191.56747,159.43976 189.48956,159.95923 188.21084,160.99819   C 186.89217,162.03715 186.25281,163.31586 186.25281,164.79438   C 186.25281,166.07309 186.69237,167.11205 187.61144,167.9512   C 188.53052,168.79036 190.92811,169.62952 194.76425,170.50863   C 198.6004,171.38775 201.23775,172.14699 202.63634,172.78634   C 204.71425,173.74538 206.27269,174.94417 207.23172,176.42269   C 208.23072,177.9012 208.7502,179.57952 208.7502,181.49759   C 208.7502,183.41566 208.19076,185.17389 207.11184,186.85221   C 206.03293,188.53052 204.4745,189.84919 202.43654,190.76827   C 200.39859,191.72731 198.08092,192.16686 195.52349,192.16686   C 192.3267,192.16686 189.60944,191.72731 187.41164,190.76827   C 185.25381,189.84919 183.53554,188.41064 182.29678,186.53253   C 181.05803,184.65442 180.37871,182.49658 180.33875,180.09899   z  M 224.25462,191.56747   L 224.25462,160.07911   L 212.50642,160.07911   L 212.50642,155.88333   L 240.79799,155.88333   L 240.79799,160.07911   L 229.00984,160.07911   L 229.00984,191.56747   z  M 244.23453,174.18494   C 244.23453,168.27088 245.79297,163.63554 248.98976,160.27891   C 252.18654,156.92229 256.26245,155.24397 261.29739,155.24397   C 264.61405,155.24397 267.57108,156.04317 270.20843,157.6016   C 272.88574,159.2 274.88373,161.39779 276.28233,164.19498   C 277.68092,167.03213 278.36024,170.18895 278.36024,173.78534   C 278.36024,177.38172 277.64096,180.61847 276.16245,183.49558   C 274.68393,186.37269 272.64598,188.53052 269.96867,189.96907   C 267.29136,191.44759 264.37429,192.16686 261.29739,192.16686   C 257.94076,192.16686 254.90381,191.36767 252.26646,189.76927   C 249.62911,188.13092 247.63112,185.93313 246.27249,183.09598   C 244.91385,180.29879 244.23453,177.34176 244.23453,174.18494   z  M 249.06968,174.26486   C 249.06968,178.58052 250.22851,181.97711 252.54618,184.41466   C 254.86385,186.89217 257.78092,188.13092 261.25743,188.13092   C 264.81385,188.13092 267.73092,186.89217 270.04859,184.41466   C 272.3263,181.89719 273.48514,178.34076 273.48514,173.74538   C 273.48514,170.86827 273.00562,168.31084 272.00662,166.15301   C 271.04759,163.99518 269.60903,162.31687 267.69096,161.11807   C 265.81285,159.91927 263.69498,159.31988 261.33735,159.31988   C 257.98072,159.31988 255.10361,160.47871 252.70602,162.75642   C 250.30843,165.07409 249.06968,168.91024 249.06968,174.26486   z  M 284.51405,191.56747   L 284.51405,155.88333   L 300.33815,155.88333   C 303.53494,155.88333 305.93253,156.20301 307.61084,156.84237   C 309.24919,157.48172 310.56787,158.6006 311.56686,160.23895   C 312.56586,161.87731 313.04538,163.6755 313.04538,165.63353   C 313.04538,168.151 312.24618,170.30883 310.60783,172.02711   C 308.96947,173.74538 306.41204,174.86425 303.01546,175.34377   C 304.25421,175.94317 305.21325,176.54257 305.85261,177.10201   C 307.21124,178.38072 308.52992,179.97911 309.76867,181.85723   L 315.96245,191.56747   L 310.04839,191.56747   L 305.29317,184.13494   C 303.93453,182.01707 302.7757,180.37871 301.89658,179.21988   C 301.01747,178.101 300.21827,177.3018 299.49899,176.86225   C 298.77971,176.38273 298.06044,176.06305 297.34116,175.90321   C 296.82168,175.78333 295.94257,175.74337 294.70381,175.74337   L 289.22931,175.74337   L 289.22931,191.56747   z  M 289.22931,171.62751   L 299.37911,171.62751   C 301.53694,171.62751 303.25522,171.42771 304.45401,170.94819   C 305.69277,170.50863 306.61184,169.78935 307.2512,168.83032   C 307.8506,167.83132 308.17028,166.79237 308.17028,165.63353   C 308.17028,163.91526 307.57088,162.55662 306.33212,161.43775   C 305.13333,160.35883 303.1753,159.83936 300.53795,159.83936   L 289.22931,159.83936   z "
     style="fill:#000000;fill-rule:evenodd;fill-opacity:1;stroke:none;" />
</svg>
