<?xml version="1.0" encoding="UTF-8" standalone="no"?>
<svg
   xmlns:dc="http://purl.org/dc/elements/1.1/"
   xmlns:cc="http://creativecommons.org/ns#"
   xmlns:rdf="http://www.w3.org/1999/02/22-rdf-syntax-ns#"
   xmlns:svg="http://www.w3.org/2000/svg"
   xmlns="http://www.w3.org/2000/svg"
   id="svg11"
   height="89.669998mm"
   width="120.11mm"
   version="1.0">
  <metadata
     id="metadata15">
    <rdf:RDF>
      <cc:Work
         rdf:about="">
        <dc:format>image/svg+xml</dc:format>
        <dc:type
           rdf:resource="http://purl.org/dc/dcmitype/StillImage" />
      </cc:Work>
    </rdf:RDF>
  </metadata>
  <defs
     id="defs3">
    <pattern
       y="0"
       x="0"
       height="6"
       width="6"
       patternUnits="userSpaceOnUse"
       id="EMFhbasepattern" />
  </defs>
  <path
     id="path5"
     d="  M 54.345381,54.345381   L 54.345381,284.51405   L 399.59839,284.51405   L 399.59839,54.345381   L 54.345381,54.345381   z "
     style="fill:#80e0ff;fill-rule:evenodd;fill-opacity:1;stroke:none;" />
  <path
     id="path7"
     d="  M 54.345381,54.345381   L 399.59839,54.345381   L 399.59839,284.51405   L 54.345381,284.51405   z "
     style="fill:none;stroke:#000000;stroke-width:9.5903616px;stroke-linecap:butt;stroke-linejoin:miter;stroke-miterlimit:10;stroke-dasharray:none;stroke-opacity:1;" />
  <path
     id="path9"
     d="  M 161.63755,168.23092   L 161.63755,162.59658   L 181.97711,162.55662   L 181.97711,180.37871   C 178.86024,182.85622 175.62349,184.73433 172.30682,186.01305   C 168.99016,187.2518 165.59357,187.89116 162.07711,187.89116   C 157.36185,187.89116 153.08614,186.89217 149.21004,184.85421   C 145.37389,182.81626 142.45683,179.89919 140.49879,176.10301   C 138.5008,172.26686 137.54177,167.99116 137.54177,163.2759   C 137.54177,158.6006 138.5008,154.24498 140.45883,150.16907   C 142.41687,146.13313 145.25401,143.09618 148.93032,141.13815   C 152.56666,139.18012 156.80241,138.18112 161.59759,138.18112   C 165.07409,138.18112 168.23092,138.74056 171.02811,139.8994   C 173.8253,141.01827 176.02309,142.5767 177.62148,144.5747   C 179.21988,146.61265 180.41867,149.21004 181.25783,152.44678   L 175.54357,154.00522   C 174.82429,151.56767 173.90522,149.6496 172.8263,148.251   C 171.78735,146.85241 170.22891,145.73353 168.27088,144.89438   C 166.27289,144.05522 164.0751,143.61566 161.63755,143.61566   C 158.72048,143.61566 156.20301,144.09518 154.08514,144.9743   C 151.96727,145.85341 150.24899,147.01225 148.97028,148.4508   C 147.6516,149.88936 146.65261,151.48775 145.93333,153.20602   C 144.69458,156.16305 144.09518,159.3998 144.09518,162.8763   C 144.09518,167.15201 144.81446,170.74839 146.29297,173.6255   C 147.77148,176.50261 149.92932,178.66044 152.76646,180.05903   C 155.56365,181.45763 158.56064,182.13695 161.71747,182.13695   C 164.4747,182.13695 167.15201,181.61747 169.78935,180.57851   C 172.4267,179.4996 174.38474,178.38072 175.74337,177.18193   L 175.74337,168.23092   z  M 191.44759,187.05201   L 191.44759,139.02028   L 212.74618,139.02028   C 217.06184,139.02028 220.29859,139.45984 222.53634,140.29899   C 224.77409,141.17811 226.53233,142.69658 227.89096,144.89438   C 229.20964,147.05221 229.88895,149.48976 229.88895,152.12711   C 229.88895,155.52369 228.77008,158.4008 226.57229,160.75843   C 224.37449,163.0761 220.93795,164.55462 216.34257,165.19397   C 218.02088,165.99317 219.2996,166.79237 220.17871,167.59156   C 222.01686,169.30984 223.7751,171.42771 225.45341,173.98514   L 233.80502,187.05201   L 225.81305,187.05201   L 219.45943,177.06205   C 217.58132,174.18494 216.06285,171.98715 214.86405,170.42871   C 213.66526,168.91024 212.58634,167.83132 211.62731,167.23193   C 210.66827,166.63253 209.70923,166.19297 208.7502,165.95321   C 208.03092,165.79337 206.83213,165.71345 205.19377,165.71345   L 197.8012,165.71345   L 197.8012,187.05201   z  M 197.8012,160.19899   L 211.50743,160.19899   C 214.38454,160.23895 216.66225,159.91927 218.3006,159.31988   C 219.93895,158.72048 221.17771,157.76144 222.05682,156.44277   C 222.89598,155.12409 223.33554,153.68554 223.33554,152.12711   C 223.33554,149.8494 222.49638,147.97128 220.85803,146.53273   C 219.17972,145.05421 216.58233,144.33494 213.0259,144.33494   L 197.8012,144.33494   z  M 234.56425,187.05201   L 253.0257,139.02028   L 259.85883,139.02028   L 279.51907,187.05201   L 272.28634,187.05201   L 266.69196,172.50662   L 246.59217,172.50662   L 241.31747,187.05201   z  M 248.43032,167.31184   L 264.73393,167.31184   L 259.69899,154.00522   C 258.18052,149.96927 257.02168,146.65261 256.30241,144.05522   C 255.70301,147.13213 254.82389,150.20903 253.70502,153.24598   z  M 298.14036,187.05201   L 298.14036,166.71245   L 279.63895,139.02028   L 287.39116,139.02028   L 296.86164,153.48574   C 298.57992,156.20301 300.21827,158.92028 301.73674,161.63755   C 303.1753,159.12008 304.93353,156.28293 306.97148,153.1261   L 316.28212,139.02028   L 323.67469,139.02028   L 304.53393,166.71245   L 304.53393,187.05201   z "
     style="fill:#000000;fill-rule:evenodd;fill-opacity:1;stroke:none;" />
</svg>
