<?xml version="1.0" encoding="UTF-8" standalone="no"?>
<svg
   xmlns:dc="http://purl.org/dc/elements/1.1/"
   xmlns:cc="http://creativecommons.org/ns#"
   xmlns:rdf="http://www.w3.org/1999/02/22-rdf-syntax-ns#"
   xmlns:svg="http://www.w3.org/2000/svg"
   xmlns="http://www.w3.org/2000/svg"
   id="svg11"
   height="95.75mm"
   width="95.75mm"
   version="1.0">
  <metadata
     id="metadata15">
    <rdf:RDF>
      <cc:Work
         rdf:about="">
        <dc:format>image/svg+xml</dc:format>
        <dc:type
           rdf:resource="http://purl.org/dc/dcmitype/StillImage" />
      </cc:Work>
    </rdf:RDF>
  </metadata>
  <defs
     id="defs3">
    <pattern
       y="0"
       x="0"
       height="6"
       width="6"
       patternUnits="userSpaceOnUse"
       id="EMFhbasepattern" />
  </defs>
  <path
     id="path5"
     d="  M 54.345381,54.345381   L 54.345381,307.53092   L 307.53092,307.53092   L 307.53092,54.345381   L 54.345381,54.345381   z "
     style="fill:#aaffaa;fill-rule:evenodd;fill-opacity:1;stroke:none;" />
  <path
     id="path7"
     d="  M 54.345381,54.345381   L 307.53092,54.345381   L 307.53092,307.53092   L 54.345381,307.53092   z "
     style="fill:none;stroke:#000000;stroke-width:9.5903616px;stroke-linecap:butt;stroke-linejoin:miter;stroke-miterlimit:10;stroke-dasharray:none;stroke-opacity:1;" />
  <path
     id="path9"
     d="  M 115.60381,179.73935   L 115.60381,174.10502   L 135.94337,174.06506   L 135.94337,191.88715   C 132.8265,194.36466 129.58976,196.24277 126.27309,197.52148   C 122.95642,198.76024 119.55984,199.3996 116.04337,199.3996   C 111.32811,199.3996 107.05241,198.4006 103.1763,196.36265   C 99.340159,194.3247 96.423091,191.40763 94.465059,187.61144   C 92.467067,183.7753 91.508031,179.4996 91.508031,174.78433   C 91.508031,170.10903 92.467067,165.75341 94.425099,161.67751   C 96.383131,157.64156 99.22028,154.60462 102.89658,152.64658   C 106.53293,150.68855 110.76867,149.68956 115.56385,149.68956   C 119.04036,149.68956 122.19719,150.24899 124.99438,151.40783   C 127.79156,152.5267 129.98936,154.08514 131.58775,156.08313   C 133.18614,158.12108 134.38494,160.71847 135.22409,163.95522   L 129.50984,165.51365   C 128.79056,163.0761 127.87148,161.15803 126.79257,159.75944   C 125.75361,158.36084 124.19518,157.24197 122.23715,156.40281   C 120.23915,155.56365 118.04136,155.12409 115.60381,155.12409   C 112.68675,155.12409 110.16928,155.60361 108.0514,156.48273   C 105.93353,157.36185 104.21526,158.52068 102.93654,159.95923   C 101.61787,161.39779 100.61887,162.99618 99.899597,164.71446   C 98.660842,167.67148 98.061444,170.90823 98.061444,174.38474   C 98.061444,178.66044 98.780721,182.25682 100.25924,185.13393   C 101.73775,188.01104 103.89558,190.16887 106.73273,191.56747   C 109.52992,192.96606 112.52691,193.64538 115.68373,193.64538   C 118.44096,193.64538 121.11827,193.1259 123.75562,192.08695   C 126.39297,191.00803 128.351,189.88915 129.70964,188.69036   L 129.70964,179.73935   z  M 145.41385,198.56044   L 145.41385,150.52871   L 166.71245,150.52871   C 171.02811,150.52871 174.26486,150.96827 176.50261,151.80743   C 178.74036,152.68654 180.49859,154.20502 181.85723,156.40281   C 183.1759,158.56064 183.85522,160.99819 183.85522,163.63554   C 183.85522,167.03213 182.73634,169.90923 180.53855,172.26686   C 178.34076,174.58454 174.90421,176.06305 170.30883,176.70241   C 171.98715,177.5016 173.26586,178.3008 174.14498,179.1   C 175.98313,180.81827 177.74136,182.93614 179.41968,185.49357   L 187.77128,198.56044   L 179.77931,198.56044   L 173.4257,188.57048   C 171.54759,185.69337 170.02911,183.49558 168.83032,181.93715   C 167.63152,180.41867 166.55261,179.33976 165.59357,178.74036   C 164.63454,178.14096 163.6755,177.7014 162.71646,177.46164   C 161.99719,177.3018 160.79839,177.22188 159.16004,177.22188   L 151.76747,177.22188   L 151.76747,198.56044   z  M 151.76747,171.70743   L 165.47369,171.70743   C 168.3508,171.74739 170.62851,171.42771 172.26686,170.82831   C 173.90522,170.22891 175.14397,169.26988 176.02309,167.9512   C 176.86225,166.63253 177.3018,165.19397 177.3018,163.63554   C 177.3018,161.35783 176.46265,159.47972 174.82429,158.04116   C 173.14598,156.56265 170.54859,155.84337 166.99217,155.84337   L 151.76747,155.84337   z  M 188.53052,198.56044   L 206.99196,150.52871   L 213.8251,150.52871   L 233.48534,198.56044   L 226.25261,198.56044   L 220.65823,184.01506   L 200.55843,184.01506   L 195.28373,198.56044   z  M 202.39658,178.82028   L 218.7002,178.82028   L 213.66526,165.51365   C 212.14678,161.47771 210.98795,158.16104 210.26867,155.56365   C 209.66927,158.64056 208.79016,161.71747 207.67128,164.75442   z  M 252.10662,198.56044   L 252.10662,178.22088   L 233.60522,150.52871   L 241.35743,150.52871   L 250.82791,164.99417   C 252.54618,167.71144 254.18453,170.42871 255.70301,173.14598   C 257.14156,170.62851 258.8998,167.79136 260.93775,164.63454   L 270.24839,150.52871   L 277.64096,150.52871   L 258.5002,178.22088   L 258.5002,198.56044   z "
     style="fill:#000000;fill-rule:evenodd;fill-opacity:1;stroke:none;" />
</svg>
