<?xml version="1.0" encoding="UTF-8" standalone="no"?>
<svg
   xmlns:dc="http://purl.org/dc/elements/1.1/"
   xmlns:cc="http://creativecommons.org/ns#"
   xmlns:rdf="http://www.w3.org/1999/02/22-rdf-syntax-ns#"
   xmlns:svg="http://www.w3.org/2000/svg"
   xmlns="http://www.w3.org/2000/svg"
   id="svg7"
   height="59.380001mm"
   width="21.83mm"
   version="1.0">
  <metadata
     id="metadata11">
    <rdf:RDF>
      <cc:Work
         rdf:about="">
        <dc:format>image/svg+xml</dc:format>
        <dc:type
           rdf:resource="http://purl.org/dc/dcmitype/StillImage" />
      </cc:Work>
    </rdf:RDF>
  </metadata>
  <defs
     id="defs3">
    <pattern
       y="0"
       x="0"
       height="6"
       width="6"
       patternUnits="userSpaceOnUse"
       id="EMFhbasepattern" />
  </defs>
  <path
     id="path5"
     d="  M 12.147791,116.36305   C 4.2757027,109.17028 0.31967871,100.21928 0.31967871,89.589959   C 0.31967871,80.479115 4.0759036,72.127509 11.548393,64.53514   C 20.379518,55.903814 30.848996,51.628112 42.996787,51.628112   C 53.785943,51.628112 62.617067,54.385341 69.530119,59.979718   C 78.081525,66.81285 82.357228,76.682931 82.357228,89.589959   C 82.357228,100.21928 78.401204,109.17028 70.569075,116.36305   C 62.696987,123.59578 52.946786,127.19217 41.358433,127.19217   C 29.77008,127.19217 20.019879,123.59578 12.147791,116.36305   z  M 65.574095,111.04839   C 72.087549,105.09438 75.324296,97.821685 75.324296,89.23032   C 75.324296,80.598995 72.087549,73.326304 65.574095,67.372288   C 59.100602,61.418272 51.148594,58.461244 41.758032,58.461244   C 32.367469,58.461244 24.415461,61.418272 17.941968,67.372288   C 11.468474,73.326304 8.2317268,80.598995 8.2317268,89.23032   C 8.2317268,97.821685 11.468474,105.09438 17.941968,111.04839   C 24.415461,117.00241 32.367469,119.95944 41.758032,119.95944   C 51.148594,119.95944 59.100602,117.00241 65.574095,111.04839   z  M 43.436345,0.31967871   L 11.947992,29.969879   L 19.82008,37.16265   L 37.642168,21.218674   L 37.642168,51.628112   L 48.790963,51.228513   L 48.790963,20.859036   L 65.813854,37.16265   L 75.324296,29.610241   z  M 13.586345,146.57269   L 13.586345,135.94337   L 36.803012,135.94337   L 36.803012,146.57269   z  M 13.586345,169.3498   L 13.586345,158.72048   L 36.803012,158.72048   L 36.803012,169.3498   z  M 13.586345,192.88614   L 13.586345,182.25682   L 36.803012,182.25682   L 36.803012,192.88614   z  M 37.20261,119.5998   L 48.391365,119.5998   L 48.790963,58.820883   L 37.20261,58.820883   z  M 37.20261,224.41445   L 48.830923,224.41445   L 48.830923,127.19217   L 37.20261,127.19217   z  M 47.991766,146.93233   L 47.991766,135.94337   L 71.608031,135.54377   L 71.608031,146.57269   z  M 47.991766,169.70944   L 47.991766,158.72048   L 71.608031,158.32088   L 71.608031,169.3498   z  M 47.991766,193.24578   L 47.991766,182.25682   L 71.608031,181.85723   L 71.608031,192.88614   z "
     style="fill:#ff8080;fill-rule:evenodd;fill-opacity:1;stroke:none;" />
</svg>
