<?xml version="1.0" encoding="UTF-8" standalone="no"?>
<svg
   xmlns:dc="http://purl.org/dc/elements/1.1/"
   xmlns:cc="http://creativecommons.org/ns#"
   xmlns:rdf="http://www.w3.org/1999/02/22-rdf-syntax-ns#"
   xmlns:svg="http://www.w3.org/2000/svg"
   xmlns="http://www.w3.org/2000/svg"
   id="svg11"
   height="101.85mm"
   width="101.85mm"
   version="1.0">
  <metadata
     id="metadata15">
    <rdf:RDF>
      <cc:Work
         rdf:about="">
        <dc:format>image/svg+xml</dc:format>
        <dc:type
           rdf:resource="http://purl.org/dc/dcmitype/StillImage" />
      </cc:Work>
    </rdf:RDF>
  </metadata>
  <defs
     id="defs3">
    <pattern
       y="0"
       x="0"
       height="6"
       width="6"
       patternUnits="userSpaceOnUse"
       id="EMFhbasepattern" />
  </defs>
  <path
     id="path5"
     d="  M 330.54779,192.44658   C 330.54779,268.72992 268.72992,330.54779 192.44658,330.54779   C 116.20321,330.54779 54.345381,268.72992 54.345381,192.44658   C 54.345381,116.20321 116.20321,54.345381 192.44658,54.345381   C 268.72992,54.345381 330.54779,116.20321 330.54779,192.44658   z "
     style="fill:#80e0ff;fill-rule:evenodd;fill-opacity:1;stroke:none;" />
  <path
     id="path7"
     d="  M 330.54779,192.44658   C 330.54779,268.72992 268.72992,330.54779 192.44658,330.54779   C 116.20321,330.54779 54.345381,268.72992 54.345381,192.44658   C 54.345381,116.20321 116.20321,54.345381 192.44658,54.345381   C 268.72992,54.345381 330.54779,116.20321 330.54779,192.44658  "
     style="fill:none;stroke:#000000;stroke-width:9.5903616px;stroke-linecap:butt;stroke-linejoin:miter;stroke-miterlimit:10;stroke-dasharray:none;stroke-opacity:1;" />
  <path
     id="path9"
     d="  M 161.11807,201.43755   C 153.24598,194.20482 149.28996,185.25381 149.28996,174.58454   C 149.28996,165.43373 153.00622,157.04217 160.47871,149.4498   C 169.30984,140.77851 179.81927,136.46285 191.96707,136.46285   C 202.75622,136.46285 211.58735,139.26004 218.5004,144.85442   C 227.0518,151.72751 231.32751,161.63755 231.32751,174.58454   C 231.32751,185.25381 227.37148,194.20482 219.53935,201.43755   C 211.66727,208.71024 201.91707,212.30662 190.32871,212.30662   C 178.7004,212.30662 168.99016,208.67028 161.11807,201.43755   z  M 214.30462,195.48353   C 220.85803,189.56948 224.09478,182.29678 224.09478,173.74538   C 224.09478,165.15401 220.85803,157.92128 214.30462,151.96727   C 207.7512,146.05321 199.75923,143.05622 190.28875,143.05622   C 180.85823,143.05622 172.8263,146.05321 166.31285,151.96727   C 159.75944,157.92128 156.48273,165.15401 156.48273,173.74538   C 156.48273,182.33674 159.75944,189.56948 166.31285,195.52349   C 172.8263,201.43755 180.85823,204.39458 190.28875,204.39458   C 199.75923,204.39458 207.7512,201.43755 214.30462,195.48353   z  M 192.40662,85.034537   L 160.83835,114.88454   L 168.67048,122.15723   L 185.97309,106.09337   L 185.97309,136.46285   L 196.76225,136.06325   L 196.76225,105.05442   L 214.42449,122.35703   L 224.09478,114.44498   z  M 162.55662,244.71405   L 162.55662,234.04478   L 185.97309,234.04478   L 185.97309,244.71405   z  M 185.97309,204.39458   L 196.76225,204.39458   L 196.76225,143.05622   L 185.97309,143.05622   z  M 185.97309,299.97851   L 196.76225,299.97851   L 196.76225,212.30662   L 185.97309,212.30662   z  M 196.76225,245.07369   L 196.76225,234.04478   L 220.57831,234.04478   L 220.57831,244.71405   z "
     style="fill:#000000;fill-rule:evenodd;fill-opacity:1;stroke:none;" />
</svg>
