<?xml version="1.0" encoding="UTF-8" standalone="no"?>
<svg
   xmlns:dc="http://purl.org/dc/elements/1.1/"
   xmlns:cc="http://creativecommons.org/ns#"
   xmlns:rdf="http://www.w3.org/1999/02/22-rdf-syntax-ns#"
   xmlns:svg="http://www.w3.org/2000/svg"
   xmlns="http://www.w3.org/2000/svg"
   id="svg11"
   height="130.27mm"
   width="130.27mm"
   version="1.0">
  <metadata
     id="metadata15">
    <rdf:RDF>
      <cc:Work
         rdf:about="">
        <dc:format>image/svg+xml</dc:format>
        <dc:type
           rdf:resource="http://purl.org/dc/dcmitype/StillImage" />
      </cc:Work>
    </rdf:RDF>
  </metadata>
  <defs
     id="defs3">
    <pattern
       y="0"
       x="0"
       height="6"
       width="6"
       patternUnits="userSpaceOnUse"
       id="EMFhbasepattern" />
  </defs>
  <path
     id="path5"
     d="  M 164.63454,327.67068   C 164.63454,437.95983 327.67068,437.95983 327.67068,327.67068   C 437.95983,327.67068 437.95983,164.63454 327.67068,164.63454   C 327.67068,54.345381 164.63454,54.345381 164.63454,164.63454   C 54.345381,164.63454 54.345381,327.67068 164.63454,327.67068   z "
     style="fill:#ffff80;fill-rule:evenodd;fill-opacity:1;stroke:none;" />
  <path
     id="path7"
     d="  M 164.63454,327.67068   C 164.63454,437.95983 327.67068,437.95983 327.67068,327.67068   C 437.95983,327.67068 437.95983,164.63454 327.67068,164.63454   C 327.67068,54.345381 164.63454,54.345381 164.63454,164.63454   C 54.345381,164.63454 54.345381,327.67068 164.63454,327.67068  "
     style="fill:none;stroke:#000000;stroke-width:9.5903616px;stroke-linecap:butt;stroke-linejoin:miter;stroke-miterlimit:10;stroke-dasharray:none;stroke-opacity:1;" />
  <path
     id="path9"
     d="  M 214.82409,254.78393   C 206.95201,247.59116 202.99598,238.64016 202.99598,228.01084   C 202.99598,218.9 206.75221,210.54839 214.2247,202.95602   C 223.05582,194.3247 233.5253,190.04899 245.67309,190.04899   C 256.46225,190.04899 265.29337,192.80622 272.20642,198.4006   C 280.75783,205.23373 285.03353,215.10381 285.03353,228.01084   C 285.03353,238.64016 281.07751,247.59116 273.24538,254.78393   C 265.37329,262.01666 255.62309,265.61305 244.03474,265.61305   C 232.44638,265.61305 222.69618,262.01666 214.82409,254.78393   z  M 268.2504,249.46927   C 274.76385,243.51526 278.0006,236.24257 278.0006,227.6512   C 278.0006,219.01988 274.76385,211.74719 268.2504,205.79317   C 261.7769,199.83915 253.8249,196.88213 244.43433,196.88213   C 235.04377,196.88213 227.09176,199.83915 220.61827,205.79317   C 214.14478,211.74719 210.90803,219.01988 210.90803,227.6512   C 210.90803,236.24257 214.14478,243.51526 220.61827,249.46927   C 227.09176,255.42329 235.04377,258.38032 244.43433,258.38032   C 253.8249,258.38032 261.7769,255.42329 268.2504,249.46927   z  M 246.11265,138.74056   L 214.62429,168.39076   L 222.49638,175.58353   L 240.31847,159.63956   L 240.31847,190.04899   L 251.46727,189.64939   L 251.46727,159.27992   L 268.49016,175.58353   L 278.0006,168.03112   z  M 216.26265,288.78975   L 216.26265,278.12048   L 239.47931,278.12048   L 239.47931,288.78975   z  M 216.26265,311.56686   L 216.26265,300.93755   L 239.47931,300.93755   L 239.47931,311.56686   z  M 239.87891,258.02068   L 251.06767,258.02068   L 251.46727,197.24176   L 239.87891,197.24176   z  M 239.87891,359.03915   L 251.50723,359.03915   L 251.50723,265.61305   L 239.87891,265.61305   z  M 250.66807,289.14939   L 250.66807,278.12048   L 274.28433,277.76084   L 274.28433,288.78975   z  M 250.66807,311.9265   L 250.66807,300.93755   L 274.28433,300.53795   L 274.28433,311.56686   z "
     style="fill:#000000;fill-rule:evenodd;fill-opacity:1;stroke:none;" />
</svg>
