<?xml version="1.0" encoding="UTF-8" standalone="no"?>
<svg
   xmlns:dc="http://purl.org/dc/elements/1.1/"
   xmlns:cc="http://creativecommons.org/ns#"
   xmlns:rdf="http://www.w3.org/1999/02/22-rdf-syntax-ns#"
   xmlns:svg="http://www.w3.org/2000/svg"
   xmlns="http://www.w3.org/2000/svg"
   id="svg7"
   height="57.02mm"
   width="21.83mm"
   version="1.0">
  <metadata
     id="metadata11">
    <rdf:RDF>
      <cc:Work
         rdf:about="">
        <dc:format>image/svg+xml</dc:format>
        <dc:type
           rdf:resource="http://purl.org/dc/dcmitype/StillImage" />
      </cc:Work>
    </rdf:RDF>
  </metadata>
  <defs
     id="defs3">
    <pattern
       y="0"
       x="0"
       height="6"
       width="6"
       patternUnits="userSpaceOnUse"
       id="EMFhbasepattern" />
  </defs>
  <path
     id="path5"
     d="  M 12.147791,116.40301   C 4.2757027,109.17028 0.31967871,100.21928 0.31967871,89.549999   C 0.31967871,80.399196 4.0359437,72.007629 11.508434,64.41526   C 20.339558,55.743975 30.848996,51.428313 42.996787,51.428313   C 53.785943,51.428313 62.617067,54.225501 69.530119,59.819879   C 78.081525,66.692971 82.357228,76.603011 82.357228,89.549999   C 82.357228,100.21928 78.401204,109.17028 70.569075,116.40301   C 62.696987,123.6757 52.946786,127.27209 41.358433,127.27209   C 29.73012,127.27209 20.019879,123.63574 12.147791,116.40301   z  M 65.334336,110.44899   C 71.88775,104.53494 75.124497,97.262248 75.124497,88.710842   C 75.124497,80.119477 71.88775,72.886746 65.334336,66.93273   C 58.780923,61.018674 50.788955,58.021686 41.318473,58.021686   C 31.887951,58.021686 23.856024,61.018674 17.34257,66.93273   C 10.789156,72.886746 7.5124497,80.119477 7.5124497,88.710842   C 7.5124497,97.302207 10.789156,104.53494 17.34257,110.48895   C 23.856024,116.40301 31.887951,119.36004 41.318473,119.36004   C 50.788955,119.36004 58.780923,116.40301 65.334336,110.44899   z  M 43.436345,0   L 11.868072,29.85   L 19.700201,37.12269   L 37.002811,21.058835   L 37.002811,51.428313   L 47.791967,51.028714   L 47.791967,20.019879   L 65.454216,37.322489   L 75.124497,29.410441   z  M 13.586345,159.67952   L 13.586345,149.01024   L 37.002811,149.01024   L 37.002811,159.67952   z  M 37.002811,119.36004   L 47.791967,119.36004   L 47.791967,58.021686   L 37.002811,58.021686   z  M 37.002811,214.94397   L 47.791967,214.94397   L 47.791967,127.27209   L 37.002811,127.27209   z  M 47.791967,160.03915   L 47.791967,149.01024   L 71.608031,149.01024   L 71.608031,159.67952   z "
     style="fill:#80e0ff;fill-rule:evenodd;fill-opacity:1;stroke:none;" />
</svg>
