<?xml version="1.0" encoding="UTF-8" standalone="no"?>
<svg
   xmlns:dc="http://purl.org/dc/elements/1.1/"
   xmlns:cc="http://creativecommons.org/ns#"
   xmlns:rdf="http://www.w3.org/1999/02/22-rdf-syntax-ns#"
   xmlns:svg="http://www.w3.org/2000/svg"
   xmlns="http://www.w3.org/2000/svg"
   id="svg11"
   height="116.73mm"
   width="116.73mm"
   version="1.0">
  <metadata
     id="metadata15">
    <rdf:RDF>
      <cc:Work
         rdf:about="">
        <dc:format>image/svg+xml</dc:format>
        <dc:type
           rdf:resource="http://purl.org/dc/dcmitype/StillImage" />
      </cc:Work>
    </rdf:RDF>
  </metadata>
  <defs
     id="defs3">
    <pattern
       y="0"
       x="0"
       height="6"
       width="6"
       patternUnits="userSpaceOnUse"
       id="EMFhbasepattern" />
  </defs>
  <path
     id="path5"
     d="  M 220.57831,386.49156   L 220.57831,386.49156   L 386.49156,220.57831   L 220.57831,54.665059   L 54.665059,220.57831   L 220.57831,386.49156   z "
     style="fill:#ff8080;fill-rule:evenodd;fill-opacity:1;stroke:none;" />
  <path
     id="path7"
     d="  M 220.57831,386.49156   L 220.57831,386.49156   L 386.49156,220.57831   L 220.57831,54.665059   L 54.665059,220.57831   L 220.57831,386.49156  "
     style="fill:none;stroke:#000000;stroke-width:9.5903616px;stroke-linecap:butt;stroke-linejoin:miter;stroke-miterlimit:10;stroke-dasharray:none;stroke-opacity:1;" />
  <path
     id="path9"
     d="  M 189.2498,224.41445   C 181.37771,217.22168 177.42168,208.27068 177.42168,197.64136   C 177.42168,188.53052 181.17791,180.17891 188.6504,172.58654   C 197.48152,163.95522 207.951,159.67952 220.09879,159.67952   C 230.88795,159.67952 239.71907,162.43674 246.63212,168.03112   C 255.18353,174.86425 259.45923,184.73433 259.45923,197.64136   C 259.45923,208.27068 255.50321,217.22168 247.67108,224.41445   C 239.79899,231.64719 230.04879,235.24357 218.46044,235.24357   C 206.87209,235.24357 197.12188,231.64719 189.2498,224.41445   z  M 242.6761,219.0998   C 249.18955,213.14578 252.4263,205.87309 252.4263,197.28172   C 252.4263,188.6504 249.18955,181.37771 242.6761,175.42369   C 236.20261,169.46968 228.2506,166.51265 218.86004,166.51265   C 209.46947,166.51265 201.51747,169.46968 195.04397,175.42369   C 188.57048,181.37771 185.33373,188.6504 185.33373,197.28172   C 185.33373,205.87309 188.57048,213.14578 195.04397,219.0998   C 201.51747,225.05381 209.46947,228.01084 218.86004,228.01084   C 228.2506,228.01084 236.20261,225.05381 242.6761,219.0998   z  M 220.53835,108.37108   L 189.05,138.02128   L 196.92209,145.21405   L 214.74417,129.27008   L 214.74417,159.67952   L 225.89297,159.27992   L 225.89297,128.91044   L 242.91586,145.21405   L 252.4263,137.66164   z  M 190.68835,254.62409   L 190.68835,243.99478   L 213.90502,243.99478   L 213.90502,254.62409   z  M 190.68835,277.4012   L 190.68835,266.77188   L 213.90502,266.77188   L 213.90502,277.4012   z  M 190.68835,300.93755   L 190.68835,290.30823   L 213.90502,290.30823   L 213.90502,300.93755   z  M 214.30462,227.6512   L 225.49337,227.6512   L 225.89297,166.87229   L 214.30462,166.87229   z  M 214.30462,332.46586   L 225.93293,332.46586   L 225.93293,235.24357   L 214.30462,235.24357   z  M 225.09377,254.98373   L 225.09377,243.99478   L 248.71004,243.59518   L 248.71004,254.62409   z  M 225.09377,277.76084   L 225.09377,266.77188   L 248.71004,266.37229   L 248.71004,277.4012   z  M 225.09377,301.29718   L 225.09377,290.30823   L 248.71004,289.90863   L 248.71004,300.93755   z "
     style="fill:#000000;fill-rule:evenodd;fill-opacity:1;stroke:none;" />
</svg>
