<?xml version="1.0" encoding="UTF-8" standalone="no"?>
<svg
   xmlns:dc="http://purl.org/dc/elements/1.1/"
   xmlns:cc="http://creativecommons.org/ns#"
   xmlns:rdf="http://www.w3.org/1999/02/22-rdf-syntax-ns#"
   xmlns:svg="http://www.w3.org/2000/svg"
   xmlns="http://www.w3.org/2000/svg"
   id="svg11"
   height="95.75mm"
   width="95.75mm"
   version="1.0">
  <metadata
     id="metadata15">
    <rdf:RDF>
      <cc:Work
         rdf:about="">
        <dc:format>image/svg+xml</dc:format>
        <dc:type
           rdf:resource="http://purl.org/dc/dcmitype/StillImage" />
      </cc:Work>
    </rdf:RDF>
  </metadata>
  <defs
     id="defs3">
    <pattern
       y="0"
       x="0"
       height="6"
       width="6"
       patternUnits="userSpaceOnUse"
       id="EMFhbasepattern" />
  </defs>
  <path
     id="path5"
     d="  M 54.345381,54.345381   L 54.345381,307.53092   L 307.53092,307.53092   L 307.53092,54.345381   L 54.345381,54.345381   z "
     style="fill:#aaffaa;fill-rule:evenodd;fill-opacity:1;stroke:none;" />
  <path
     id="path7"
     d="  M 54.345381,54.345381   L 307.53092,54.345381   L 307.53092,307.53092   L 54.345381,307.53092   z "
     style="fill:none;stroke:#000000;stroke-width:9.5903616px;stroke-linecap:butt;stroke-linejoin:miter;stroke-miterlimit:10;stroke-dasharray:none;stroke-opacity:1;" />
  <path
     id="path9"
     d="  M 149.60964,189.56948   C 141.73755,182.3767 137.78152,173.4257 137.78152,162.79638   C 137.78152,153.68554 141.53775,145.33393 149.01024,137.74156   C 157.84136,129.11024 168.31084,124.83454 180.45863,124.83454   C 191.24779,124.83454 200.07891,127.59177 206.99196,133.18614   C 215.54337,140.01928 219.81907,149.88936 219.81907,162.79638   C 219.81907,173.4257 215.86305,182.3767 208.03092,189.56948   C 200.15883,196.80221 190.40863,200.39859 178.82028,200.39859   C 167.23193,200.39859 157.48172,196.80221 149.60964,189.56948   z  M 203.03594,184.25482   C 209.54939,178.3008 212.78614,171.02811 212.78614,162.43674   C 212.78614,153.80542 209.54939,146.53273 203.03594,140.57871   C 196.56245,134.6247 188.61044,131.66767 179.21988,131.66767   C 169.82931,131.66767 161.87731,134.6247 155.40381,140.57871   C 148.93032,146.53273 145.69357,153.80542 145.69357,162.43674   C 145.69357,171.02811 148.93032,178.3008 155.40381,184.25482   C 161.87731,190.20883 169.82931,193.16586 179.21988,193.16586   C 188.61044,193.16586 196.56245,190.20883 203.03594,184.25482   z  M 180.89819,73.526103   L 149.40984,103.1763   L 157.28193,110.36907   L 175.10401,94.425099   L 175.10401,124.83454   L 186.25281,124.43494   L 186.25281,94.06546   L 203.2757,110.36907   L 212.78614,102.81667   z  M 151.04819,223.5753   L 151.04819,212.90602   L 174.26486,212.90602   L 174.26486,223.5753   z  M 151.04819,246.35241   L 151.04819,235.72309   L 174.26486,235.72309   L 174.26486,246.35241   z  M 174.66446,192.80622   L 185.85321,192.80622   L 186.25281,132.02731   L 174.66446,132.02731   z  M 174.66446,293.82469   L 186.29277,293.82469   L 186.29277,200.39859   L 174.66446,200.39859   z  M 185.45361,223.93494   L 185.45361,212.90602   L 209.06988,212.54638   L 209.06988,223.5753   z  M 185.45361,246.71204   L 185.45361,235.72309   L 209.06988,235.32349   L 209.06988,246.35241   z "
     style="fill:#000000;fill-rule:evenodd;fill-opacity:1;stroke:none;" />
</svg>
