<?xml version="1.0" encoding="UTF-8" standalone="no"?>
<svg
   xmlns:dc="http://purl.org/dc/elements/1.1/"
   xmlns:cc="http://creativecommons.org/ns#"
   xmlns:rdf="http://www.w3.org/1999/02/22-rdf-syntax-ns#"
   xmlns:svg="http://www.w3.org/2000/svg"
   xmlns="http://www.w3.org/2000/svg"
   id="svg11"
   height="116.73mm"
   width="116.73mm"
   version="1.0">
  <metadata
     id="metadata15">
    <rdf:RDF>
      <cc:Work
         rdf:about="">
        <dc:format>image/svg+xml</dc:format>
        <dc:type
           rdf:resource="http://purl.org/dc/dcmitype/StillImage" />
      </cc:Work>
    </rdf:RDF>
  </metadata>
  <defs
     id="defs3">
    <pattern
       y="0"
       x="0"
       height="6"
       width="6"
       patternUnits="userSpaceOnUse"
       id="EMFhbasepattern" />
  </defs>
  <path
     id="path5"
     d="  M 220.57831,386.49156   L 220.57831,386.49156   L 386.49156,220.57831   L 220.57831,54.665059   L 54.665059,220.57831   L 220.57831,386.49156   z "
     style="fill:#ff8080;fill-rule:evenodd;fill-opacity:1;stroke:none;" />
  <path
     id="path7"
     d="  M 220.57831,386.49156   L 220.57831,386.49156   L 386.49156,220.57831   L 220.57831,54.665059   L 54.665059,220.57831   L 220.57831,386.49156  "
     style="fill:none;stroke:#000000;stroke-width:9.5903616px;stroke-linecap:butt;stroke-linejoin:miter;stroke-miterlimit:10;stroke-dasharray:none;stroke-opacity:1;" />
  <path
     id="path9"
     d="  M 189.2498,238.83996   C 181.37771,231.64719 177.42168,222.69618 177.42168,212.06686   C 177.42168,201.43755 181.29779,192.56646 189.05,185.49357   C 196.76225,178.38072 207.39156,174.86425 220.93795,174.86425   C 231.16767,174.86425 240.15863,178.38072 247.87088,185.49357   C 255.62309,192.56646 259.45923,201.43755 259.45923,212.06686   C 259.45923,222.69618 255.54317,231.64719 247.67108,238.83996   C 239.79899,246.07269 230.04879,249.66907 218.46044,249.66907   C 206.83213,249.66907 197.12188,246.07269 189.2498,238.83996   z  M 243.15562,233.5253   C 249.70903,227.57128 252.94578,220.33855 252.94578,211.74719   C 252.94578,203.19578 249.70903,195.92309 243.15562,190.00903   C 236.60221,184.05502 228.61024,181.09799 219.13976,181.09799   C 209.70923,181.09799 201.67731,184.05502 195.16385,190.00903   C 188.61044,195.92309 185.33373,203.19578 185.33373,211.74719   C 185.33373,220.33855 188.61044,227.57128 195.16385,233.5253   C 201.67731,239.43935 209.70923,242.39638 219.13976,242.39638   C 228.61024,242.39638 236.60221,239.43935 243.15562,233.5253   z  M 220.53835,113.16626   L 188.97008,143.01626   L 196.92209,150.16907   L 214.82409,134.2251   L 214.82409,174.86425   L 225.61325,174.46466   L 225.61325,133.54578   L 242.91586,150.16907   L 252.94578,142.5767   z  M 214.82409,242.39638   L 225.61325,242.39638   L 225.61325,181.09799   L 214.82409,181.09799   z  M 214.82409,328.11024   L 225.61325,328.11024   L 225.61325,249.66907   L 214.82409,249.66907   z "
     style="fill:#000000;fill-rule:evenodd;fill-opacity:1;stroke:none;" />
</svg>
