<?xml version="1.0" encoding="UTF-8" standalone="no"?>
<svg
   xmlns:dc="http://purl.org/dc/elements/1.1/"
   xmlns:cc="http://creativecommons.org/ns#"
   xmlns:rdf="http://www.w3.org/1999/02/22-rdf-syntax-ns#"
   xmlns:svg="http://www.w3.org/2000/svg"
   xmlns="http://www.w3.org/2000/svg"
   id="svg7"
   height="57.02mm"
   width="21.83mm"
   version="1.0">
  <metadata
     id="metadata11">
    <rdf:RDF>
      <cc:Work
         rdf:about="">
        <dc:format>image/svg+xml</dc:format>
        <dc:type
           rdf:resource="http://purl.org/dc/dcmitype/StillImage" />
      </cc:Work>
    </rdf:RDF>
  </metadata>
  <defs
     id="defs3">
    <pattern
       y="0"
       x="0"
       height="6"
       width="6"
       patternUnits="userSpaceOnUse"
       id="EMFhbasepattern" />
  </defs>
  <path
     id="path5"
     d="  M 12.147791,125.67369   C 4.2757027,118.48092 0.31967871,109.52992 0.31967871,98.900601   C 0.31967871,88.271284 4.1957831,79.4002 11.947992,72.327308   C 19.660241,65.214457 30.289558,61.697991 43.835943,61.697991   C 54.065662,61.697991 63.056626,65.214457 70.768874,72.327308   C 78.521083,79.4002 82.357228,88.271284 82.357228,98.900601   C 82.357228,109.52992 78.441164,118.48092 70.569075,125.67369   C 62.696987,132.90642 52.946786,136.50281 41.358433,136.50281   C 29.73012,136.50281 20.019879,132.90642 12.147791,125.67369   z  M 66.053614,120.35903   C 72.607027,114.40502 75.843774,107.17229 75.843774,98.580922   C 75.843774,90.029517 72.607027,82.756826 66.053614,76.84277   C 59.5002,70.888754 51.508232,67.931726 42.03775,67.931726   C 32.607228,67.931726 24.575301,70.888754 18.061847,76.84277   C 11.508434,82.756826 8.2317268,90.029517 8.2317268,98.580922   C 8.2317268,107.17229 11.508434,114.40502 18.061847,120.35903   C 24.575301,126.27309 32.607228,129.23012 42.03775,129.23012   C 51.508232,129.23012 59.5002,126.27309 66.053614,120.35903   z  M 43.436345,0   L 11.868072,29.85   L 19.82008,37.002811   L 37.722088,21.058835   L 37.722088,61.697991   L 48.511244,61.298393   L 48.511244,20.379518   L 65.813854,37.002811   L 75.843774,29.410441   z  M 37.722088,129.23012   L 48.511244,129.23012   L 48.511244,67.931726   L 37.722088,67.931726   z  M 37.722088,214.94397   L 48.511244,214.94397   L 48.511244,136.50281   L 37.722088,136.50281   z "
     style="fill:#ffff80;fill-rule:evenodd;fill-opacity:1;stroke:none;" />
</svg>
