<?xml version="1.0" encoding="UTF-8" standalone="no"?>
<svg
   xmlns:dc="http://purl.org/dc/elements/1.1/"
   xmlns:cc="http://creativecommons.org/ns#"
   xmlns:rdf="http://www.w3.org/1999/02/22-rdf-syntax-ns#"
   xmlns:svg="http://www.w3.org/2000/svg"
   xmlns="http://www.w3.org/2000/svg"
   id="svg19"
   height="101.85mm"
   width="101.85mm"
   version="1.0">
  <metadata
     id="metadata23">
    <rdf:RDF>
      <cc:Work
         rdf:about="">
        <dc:format>image/svg+xml</dc:format>
        <dc:type
           rdf:resource="http://purl.org/dc/dcmitype/StillImage" />
      </cc:Work>
    </rdf:RDF>
  </metadata>
  <defs
     id="defs3">
    <pattern
       y="0"
       x="0"
       height="6"
       width="6"
       patternUnits="userSpaceOnUse"
       id="EMFhbasepattern" />
  </defs>
  <path
     id="path5"
     d="  M 330.54779,192.44658   C 330.54779,268.72992 268.72992,330.54779 192.44658,330.54779   C 116.20321,330.54779 54.345381,268.72992 54.345381,192.44658   C 54.345381,116.20321 116.20321,54.345381 192.44658,54.345381   C 268.72992,54.345381 330.54779,116.20321 330.54779,192.44658   z "
     style="fill:#80e0ff;fill-rule:evenodd;fill-opacity:1;stroke:none;" />
  <path
     id="path7"
     d="  M 330.54779,192.44658   C 330.54779,268.72992 268.72992,330.54779 192.44658,330.54779   C 116.20321,330.54779 54.345381,268.72992 54.345381,192.44658   C 54.345381,116.20321 116.20321,54.345381 192.44658,54.345381   C 268.72992,54.345381 330.54779,116.20321 330.54779,192.44658  "
     style="fill:none;stroke:#000000;stroke-width:9.5903616px;stroke-linecap:butt;stroke-linejoin:miter;stroke-miterlimit:10;stroke-dasharray:none;stroke-opacity:1;" />
  <path
     id="path9"
     d="  M 195.08393,98.940561   L 195.08393,94.10542   L 212.54638,94.06546   L 212.54638,109.37008   C 209.86907,111.48795 207.07188,113.08634 204.23474,114.16526   C 201.39759,115.24418 198.48052,115.80361 195.48353,115.80361   C 191.40763,115.80361 187.77128,114.9245 184.45462,113.20622   C 181.13795,111.44799 178.66044,108.97048 176.94217,105.69377   C 175.26385,102.41707 174.4247,98.740762 174.4247,94.704818   C 174.4247,90.668874 175.26385,86.952609 176.94217,83.476103   C 178.62048,79.999597 181.01807,77.402208 184.1749,75.723894   C 187.33172,74.045581 190.96807,73.206425 195.04397,73.206425   C 198.04096,73.206425 200.71827,73.685943 203.11586,74.644979   C 205.55341,75.604015 207.43152,76.962649 208.79016,78.680923   C 210.14879,80.399196 211.18775,82.636947 211.90703,85.434135   L 206.99196,86.75281   C 206.39257,84.674898 205.59337,83.036545 204.67429,81.83775   C 203.75522,80.638955 202.4765,79.679919 200.75823,78.960641   C 199.03996,78.241364 197.16184,77.841766 195.08393,77.841766   C 192.60642,77.841766 190.44859,78.241364 188.61044,79.000601   C 186.81225,79.759838 185.33373,80.758834 184.21486,81.997589   C 183.09598,83.236344 182.25682,84.594979 181.61747,86.073493   C 180.57851,88.630922 180.05903,91.388151 180.05903,94.345179   C 180.05903,98.021485 180.69839,101.09839 181.93715,103.5759   C 183.21586,106.05341 185.05401,107.89156 187.4516,109.09036   C 189.88915,110.28916 192.44658,110.88855 195.16385,110.88855   C 197.52148,110.88855 199.83915,110.40903 202.0769,109.52992   C 204.31466,108.61084 206.03293,107.65181 207.19176,106.61285   L 207.19176,98.940561   z "
     style="fill:#000000;fill-rule:evenodd;fill-opacity:1;stroke:none;" />
  <path
     id="path11"
     d="  M 135.86345,155.04417   C 135.86345,213.26566 167.59156,234.44437 220.53835,229.12972  "
     style="fill:none;stroke:#000000;stroke-width:10.589357px;stroke-linecap:butt;stroke-linejoin:miter;stroke-miterlimit:10;stroke-dasharray:none;stroke-opacity:1;" />
  <path
     id="path13"
     d="  M 141.13815,192.08695   L 141.13815,192.08695   L 199.35964,149.72952   L 199.35964,192.08695   L 257.62108,149.72952  "
     style="fill:none;stroke:#000000;stroke-width:10.589357px;stroke-linecap:butt;stroke-linejoin:miter;stroke-miterlimit:10;stroke-dasharray:none;stroke-opacity:1;" />
  <path
     id="path15"
     d="  M 96.503011,207.1518   L 96.503011,165.95321   L 124.2751,165.95321   L 124.2751,170.82831   L 101.93755,170.82831   L 101.93755,183.5755   L 121.27811,183.5755   L 121.27811,188.4506   L 101.93755,188.4506   L 101.93755,207.1518   z "
     style="fill:#000000;fill-rule:evenodd;fill-opacity:1;stroke:none;" />
  <path
     id="path17"
     d="  M 283.83473,192.7263   L 289.26927,194.08494   C 288.1504,198.56044 286.07249,201.99699 283.11546,204.31466   C 280.15843,206.67229 276.52208,207.87108 272.24638,207.87108   C 267.81084,207.87108 264.17449,206.95201 261.41727,205.15381   C 258.62008,203.35562 256.50221,200.71827 255.06365,197.28172   C 253.58514,193.88514 252.86586,190.16887 252.86586,186.25281   C 252.86586,181.97711 253.70502,178.22088 255.34337,175.02409   C 256.98172,171.82731 259.29939,169.38976 262.33634,167.7514   C 265.37329,166.07309 268.68996,165.27389 272.3263,165.27389   C 276.44216,165.27389 279.91867,166.31285 282.71586,168.39076   C 285.51305,170.50863 287.47108,173.46566 288.58996,177.26184   L 283.23534,178.54056   C 282.2763,175.54357 280.87771,173.34578 279.03955,171.98715   C 277.24136,170.62851 274.96365,169.90923 272.20642,169.90923   C 269.04959,169.90923 266.41225,170.66847 264.25441,172.18695   C 262.13654,173.70542 260.65803,175.74337 259.77891,178.3008   C 258.93976,180.85823 258.5002,183.49558 258.5002,186.21285   C 258.5002,189.72931 259.01967,192.76626 260.01867,195.40361   C 261.05763,198.001 262.61606,199.95903 264.77389,201.23775   C 266.93172,202.55642 269.28935,203.19578 271.76686,203.19578   C 274.84377,203.19578 277.4012,202.31666 279.51907,200.55843   C 281.63694,198.8002 283.0755,196.16285 283.83473,192.7263   z "
     style="fill:#000000;fill-rule:evenodd;fill-opacity:1;stroke:none;" />
</svg>
