<?xml version="1.0" encoding="UTF-8" standalone="no"?>
<svg
   xmlns:dc="http://purl.org/dc/elements/1.1/"
   xmlns:cc="http://creativecommons.org/ns#"
   xmlns:rdf="http://www.w3.org/1999/02/22-rdf-syntax-ns#"
   xmlns:svg="http://www.w3.org/2000/svg"
   xmlns="http://www.w3.org/2000/svg"
   id="svg13"
   height="130.27mm"
   width="130.27mm"
   version="1.0">
  <metadata
     id="metadata17">
    <rdf:RDF>
      <cc:Work
         rdf:about="">
        <dc:format>image/svg+xml</dc:format>
        <dc:type
           rdf:resource="http://purl.org/dc/dcmitype/StillImage" />
      </cc:Work>
    </rdf:RDF>
  </metadata>
  <defs
     id="defs3">
    <pattern
       y="0"
       x="0"
       height="6"
       width="6"
       patternUnits="userSpaceOnUse"
       id="EMFhbasepattern" />
  </defs>
  <path
     id="path5"
     d="  M 164.63454,327.67068   C 164.63454,437.95983 327.67068,437.95983 327.67068,327.67068   C 437.95983,327.67068 437.95983,164.63454 327.67068,164.63454   C 327.67068,54.345381 164.63454,54.345381 164.63454,164.63454   C 54.345381,164.63454 54.345381,327.67068 164.63454,327.67068   z "
     style="fill:#ffff80;fill-rule:evenodd;fill-opacity:1;stroke:none;" />
  <path
     id="path7"
     d="  M 164.63454,327.67068   C 164.63454,437.95983 327.67068,437.95983 327.67068,327.67068   C 437.95983,327.67068 437.95983,164.63454 327.67068,164.63454   C 327.67068,54.345381 164.63454,54.345381 164.63454,164.63454   C 54.345381,164.63454 54.345381,327.67068 164.63454,327.67068  "
     style="fill:none;stroke:#000000;stroke-width:9.5903616px;stroke-linecap:butt;stroke-linejoin:miter;stroke-miterlimit:10;stroke-dasharray:none;stroke-opacity:1;" />
  <path
     id="path9"
     d="  M 164.6745,248.82992   L 172.4267,248.1506   C 172.78634,251.26747 173.6255,253.78494 174.94417,255.78293   C 176.30281,257.74096 178.38072,259.33935 181.17791,260.57811   C 183.9751,261.7769 187.13193,262.41626 190.64839,262.41626   C 193.76526,262.41626 196.52249,261.93674 198.92008,261.01767   C 201.31767,260.09859 203.0759,258.81988 204.23474,257.22148   C 205.43353,255.58313 205.99297,253.8249 205.99297,251.90682   C 205.99297,249.98875 205.43353,248.27048 204.31466,246.83192   C 203.19578,245.39337 201.31767,244.15461 198.76024,243.19558   C 197.08192,242.55622 193.40562,241.55723 187.73132,240.15863   C 182.05703,238.8 178.101,237.52128 175.82329,236.32249   C 172.86626,234.76405 170.66847,232.84598 169.22992,230.56827   C 167.79136,228.29056 167.07209,225.69317 167.07209,222.85602   C 167.07209,219.73915 167.9512,216.86205 169.70944,214.14478   C 171.46767,211.42751 174.06506,209.3496 177.46164,207.951   C 180.85823,206.55241 184.65442,205.83313 188.81024,205.83313   C 193.36566,205.83313 197.4016,206.59237 200.91807,208.07088   C 204.43454,209.54939 207.11184,211.70723 208.98996,214.58433   C 210.86807,217.42148 211.86707,220.69819 212.0269,224.29458   L 204.19478,224.89397   C 203.75522,220.97791 202.35662,218.06084 199.91907,216.06285   C 197.48152,214.06486 193.88514,213.06586 189.12992,213.06586   C 184.1749,213.06586 180.57851,213.94498 178.34076,215.78313   C 176.06305,217.58132 174.94417,219.77911 174.94417,222.33654   C 174.94417,224.53433 175.74337,226.37249 177.34176,227.81104   C 178.9002,229.2496 183.01606,230.72811 189.64939,232.20662   C 196.32269,233.7251 200.87811,235.04377 203.35562,236.16265   C 206.95201,237.801 209.58935,239.91887 211.30763,242.43634   C 213.0259,244.99377 213.86506,247.91084 213.86506,251.22751   C 213.86506,254.54417 212.94598,257.62108 211.06787,260.53815   C 209.18976,263.45522 206.47249,265.69297 202.95602,267.33132   C 199.3996,268.92971 195.44357,269.72891 191.04799,269.72891   C 185.45361,269.72891 180.77831,268.92971 176.98213,267.29136   C 173.18594,265.65301 170.22891,263.21546 168.07108,259.93875   C 165.95321,256.66204 164.79438,252.98574 164.6745,248.82992   z  M 225.21365,268.68996   L 225.21365,206.91205   L 269.88875,206.91205   L 269.88875,214.18474   L 233.40542,214.18474   L 233.40542,233.1257   L 267.57108,233.1257   L 267.57108,240.35843   L 233.40542,240.35843   L 233.40542,261.37731   L 271.32731,261.37731   L 271.32731,268.68996   z  M 326.71164,247.03172   L 334.86345,249.06968   C 333.14518,255.82289 330.06827,260.93775 325.63273,264.45421   C 321.15722,267.97068 315.72269,269.72891 309.28915,269.72891   C 302.61586,269.72891 297.22128,268.37028 293.06546,265.69297   C 288.86967,262.9757 285.71285,259.01967 283.51506,253.90482   C 281.35722,248.75 280.23835,243.23554 280.23835,237.32148   C 280.23835,230.88795 281.4771,225.29357 283.95461,220.49839   C 286.39216,215.70321 289.90863,212.06686 294.42409,209.58935   C 298.97951,207.07188 303.97449,205.83313 309.40903,205.83313   C 315.60281,205.83313 320.79759,207.43152 325.03333,210.58835   C 329.22911,213.70522 332.14618,218.14076 333.82449,223.85502   L 325.79257,225.73313   C 324.35401,221.25763 322.2761,217.98092 319.51887,215.90301   C 316.8016,213.86506 313.36506,212.8261 309.24919,212.8261   C 304.49397,212.8261 300.53795,213.98494 297.34116,216.26265   C 294.14437,218.54036 291.90662,221.57731 290.62791,225.41345   C 289.34919,229.2496 288.66988,233.20562 288.66988,237.28152   C 288.66988,242.55622 289.46907,247.11164 290.98755,251.06767   C 292.50602,254.98373 294.90361,257.9008 298.14036,259.81887   C 301.3771,261.7769 304.85361,262.73594 308.60983,262.73594   C 313.20522,262.73594 317.08132,261.41727 320.23815,258.77992   C 323.43494,256.14257 325.59277,252.2265 326.71164,247.03172   z "
     style="fill:#000000;fill-rule:evenodd;fill-opacity:1;stroke:none;" />
  <path
     id="path11"
     d="  M 188.61044,188.61044   C 131.06827,188.61044 131.06827,303.69477 188.61044,303.69477   L 303.69477,303.69477   C 361.23694,303.69477 361.23694,188.61044 303.69477,188.61044   z "
     style="fill:none;stroke:#000000;stroke-width:9.5903616px;stroke-linecap:butt;stroke-linejoin:miter;stroke-miterlimit:10;stroke-dasharray:none;stroke-opacity:1;" />
</svg>
