<?xml version="1.0" encoding="UTF-8" standalone="no"?>
<svg
   xmlns:dc="http://purl.org/dc/elements/1.1/"
   xmlns:cc="http://creativecommons.org/ns#"
   xmlns:rdf="http://www.w3.org/1999/02/22-rdf-syntax-ns#"
   xmlns:svg="http://www.w3.org/2000/svg"
   xmlns="http://www.w3.org/2000/svg"
   id="svg13"
   height="130.27mm"
   width="130.27mm"
   version="1.0">
  <metadata
     id="metadata17">
    <rdf:RDF>
      <cc:Work
         rdf:about="">
        <dc:format>image/svg+xml</dc:format>
        <dc:type
           rdf:resource="http://purl.org/dc/dcmitype/StillImage" />
      </cc:Work>
    </rdf:RDF>
  </metadata>
  <defs
     id="defs3">
    <pattern
       y="0"
       x="0"
       height="6"
       width="6"
       patternUnits="userSpaceOnUse"
       id="EMFhbasepattern" />
  </defs>
  <path
     id="path5"
     d="  M 164.63454,327.67068   C 164.63454,437.95983 327.67068,437.95983 327.67068,327.67068   C 437.95983,327.67068 437.95983,164.63454 327.67068,164.63454   C 327.67068,54.345381 164.63454,54.345381 164.63454,164.63454   C 54.345381,164.63454 54.345381,327.67068 164.63454,327.67068   z "
     style="fill:#ffff80;fill-rule:evenodd;fill-opacity:1;stroke:none;" />
  <path
     id="path7"
     d="  M 164.63454,327.67068   C 164.63454,437.95983 327.67068,437.95983 327.67068,327.67068   C 437.95983,327.67068 437.95983,164.63454 327.67068,164.63454   C 327.67068,54.345381 164.63454,54.345381 164.63454,164.63454   C 54.345381,164.63454 54.345381,327.67068 164.63454,327.67068  "
     style="fill:none;stroke:#000000;stroke-width:9.5903616px;stroke-linecap:butt;stroke-linejoin:miter;stroke-miterlimit:10;stroke-dasharray:none;stroke-opacity:1;" />
  <path
     id="path9"
     d="  M 214.82409,333.58473   L 214.82409,277.96064   L 225.89297,277.96064   L 239.07972,317.32108   C 240.27851,320.99738 241.15763,323.75461 241.71706,325.55281   C 242.35642,323.55481 243.31546,320.55783 244.67409,316.64176   L 257.98072,277.96064   L 267.89076,277.96064   L 267.89076,333.58473   L 260.77791,333.58473   L 260.77791,287.03152   L 244.63413,333.58473   L 238.0008,333.58473   L 221.89698,286.23233   L 221.89698,333.58473   z  M 280.99759,333.58473   L 280.99759,277.96064   L 288.3502,277.96064   L 288.3502,333.58473   z "
     style="fill:#000000;fill-rule:evenodd;fill-opacity:1;stroke:none;" />
  <path
     id="path11"
     d="  M 196.36265,206.27269   L 196.36265,199.71927   L 219.93895,199.71927   L 219.93895,220.33855   C 216.30261,223.21566 212.58634,225.37349 208.7502,226.852   C 204.91405,228.29056 200.95803,229.00984 196.92209,229.00984   C 191.44759,229.00984 186.49257,227.851 182.01707,225.53333   C 177.54156,223.1757 174.18494,219.77911 171.90723,215.38353   C 169.62952,210.94799 168.51064,205.99297 168.51064,200.51847   C 168.51064,195.12389 169.62952,190.08895 171.90723,185.37369   C 174.14498,180.69839 177.42168,177.22188 181.65743,174.94417   C 185.89317,172.66646 190.80823,171.50763 196.32269,171.50763   C 200.35863,171.50763 203.99498,172.18695 207.23172,173.46566   C 210.50843,174.78433 213.0259,176.58253 214.90401,178.9002   C 216.74217,181.25783 218.14076,184.29478 219.0998,188.01104   L 212.46646,189.84919   C 211.62731,187.01205 210.58835,184.77429 209.3496,183.1759   C 208.11084,181.53755 206.35261,180.25883 204.03494,179.25984   C 201.75723,178.3008 199.1998,177.82128 196.36265,177.82128   C 193.00602,177.82128 190.08895,178.34076 187.6514,179.33976   C 185.21385,180.37871 183.21586,181.73735 181.73735,183.3757   C 180.21887,185.05401 179.06004,186.89217 178.22088,188.89016   C 176.78233,192.3267 176.10301,196.04297 176.10301,200.07891   C 176.10301,205.03393 176.94217,209.18976 178.66044,212.50642   C 180.33875,215.86305 182.85622,218.34056 186.09297,219.93895   C 189.36968,221.57731 192.84618,222.3765 196.48253,222.3765   C 199.67931,222.3765 202.79618,221.77711 205.83313,220.53835   C 208.87008,219.2996 211.14779,218.02088 212.74618,216.62229   L 212.74618,206.27269   z  M 228.29056,210.18875   L 235.20361,209.58935   C 235.56325,212.38654 236.32249,214.66425 237.52128,216.46245   C 238.72008,218.22068 240.59819,219.65923 243.11566,220.77811   C 245.63313,221.85702 248.47028,222.41646 251.6271,222.41646   C 254.46425,222.41646 256.94176,222.01686 259.05963,221.17771   C 261.21747,220.33855 262.81586,219.17972 263.89478,217.74116   C 264.93373,216.30261 265.45321,214.70421 265.45321,212.98594   C 265.45321,211.22771 264.93373,209.70923 263.93474,208.39056   C 262.93574,207.11184 261.25743,205.99297 258.93976,205.11385   C 257.42128,204.55441 254.14457,203.63534 249.02972,202.39658   C 243.91486,201.19779 240.35843,200.03895 238.28052,198.96004   C 235.64317,197.56144 233.64518,195.84317 232.36646,193.76526   C 231.04779,191.68735 230.40843,189.40964 230.40843,186.85221   C 230.40843,184.05502 231.20763,181.41767 232.80602,178.98012   C 234.40441,176.54257 236.72208,174.66446 239.75903,173.4257   C 242.83594,172.14699 246.23253,171.50763 249.98875,171.50763   C 254.10461,171.50763 257.74096,172.18695 260.89779,173.50562   C 264.01465,174.82429 266.4522,176.78233 268.13052,179.37972   C 269.84879,181.93715 270.76787,184.85421 270.88775,188.13092   L 263.81486,188.6504   C 263.45522,185.13393 262.1765,182.49658 259.97871,180.69839   C 257.78092,178.9002 254.54417,178.02108 250.26847,178.02108   C 245.83293,178.02108 242.59618,178.82028 240.55823,180.45863   C 238.52028,182.09699 237.48132,184.05502 237.48132,186.33273   C 237.48132,188.33072 238.2006,190.00903 239.63915,191.28775   C 241.07771,192.56646 244.75401,193.88514 250.74799,195.24377   C 256.74196,196.60241 260.81787,197.76124 263.05562,198.8002   C 266.29237,200.27871 268.68996,202.15682 270.24839,204.4745   C 271.76686,206.75221 272.5261,209.38956 272.5261,212.38654   C 272.5261,215.34357 271.68694,218.1008 270.00863,220.73815   C 268.29036,223.33554 265.89277,225.37349 262.69598,226.852   C 259.53915,228.29056 255.94277,229.00984 251.98674,229.00984   C 246.9518,229.00984 242.75602,228.29056 239.31947,226.81204   C 235.92289,225.37349 233.28554,223.13574 231.32751,220.21867   C 229.40943,217.26164 228.37048,213.94498 228.29056,210.18875   z  M 282.35622,228.09076   L 282.35622,172.46666   L 293.4251,172.46666   L 306.61184,211.82711   C 307.81064,215.50341 308.68975,218.26064 309.24919,220.05883   C 309.88855,218.06084 310.88755,215.06385 312.20622,211.14779   L 325.51285,172.46666   L 335.42289,172.46666   L 335.42289,228.09076   L 328.35,228.09076   L 328.35,181.53755   L 312.16626,228.09076   L 305.53293,228.09076   L 289.46907,180.73835   L 289.46907,228.09076   z "
     style="fill:#000000;fill-rule:evenodd;fill-opacity:1;stroke:none;" />
</svg>
