<?xml version="1.0" encoding="UTF-8" standalone="no"?>
<svg
   xmlns:dc="http://purl.org/dc/elements/1.1/"
   xmlns:cc="http://creativecommons.org/ns#"
   xmlns:rdf="http://www.w3.org/1999/02/22-rdf-syntax-ns#"
   xmlns:svg="http://www.w3.org/2000/svg"
   xmlns="http://www.w3.org/2000/svg"
   id="svg27"
   height="130.27mm"
   width="130.27mm"
   version="1.0">
  <metadata
     id="metadata31">
    <rdf:RDF>
      <cc:Work
         rdf:about="">
        <dc:format>image/svg+xml</dc:format>
        <dc:type
           rdf:resource="http://purl.org/dc/dcmitype/StillImage" />
      </cc:Work>
    </rdf:RDF>
  </metadata>
  <defs
     id="defs3">
    <pattern
       y="0"
       x="0"
       height="6"
       width="6"
       patternUnits="userSpaceOnUse"
       id="EMFhbasepattern" />
  </defs>
  <path
     id="path5"
     d="  M 164.63454,327.67068   C 164.63454,437.95983 327.67068,437.95983 327.67068,327.67068   C 437.95983,327.67068 437.95983,164.63454 327.67068,164.63454   C 327.67068,54.345381 164.63454,54.345381 164.63454,164.63454   C 54.345381,164.63454 54.345381,327.67068 164.63454,327.67068   z "
     style="fill:#ffff80;fill-rule:evenodd;fill-opacity:1;stroke:none;" />
  <path
     id="path7"
     d="  M 164.63454,327.67068   C 164.63454,437.95983 327.67068,437.95983 327.67068,327.67068   C 437.95983,327.67068 437.95983,164.63454 327.67068,164.63454   C 327.67068,54.345381 164.63454,54.345381 164.63454,164.63454   C 54.345381,164.63454 54.345381,327.67068 164.63454,327.67068  "
     style="fill:none;stroke:#000000;stroke-width:9.5903616px;stroke-linecap:butt;stroke-linejoin:miter;stroke-miterlimit:10;stroke-dasharray:none;stroke-opacity:1;" />
  <path
     id="path9"
     d="  M 248.78996,152.64658   L 248.78996,147.81144   L 266.25241,147.77148   L 266.25241,163.0761   C 263.5751,165.19397 260.77791,166.79237 257.94076,167.87128   C 255.10361,168.9502 252.18654,169.50964 249.18955,169.50964   C 245.11365,169.50964 241.47731,168.63052 238.16064,166.91225   C 234.84397,165.15401 232.36646,162.6765 230.64819,159.3998   C 228.96988,156.12309 228.13072,152.44678 228.13072,148.41084   C 228.13072,144.3749 228.96988,140.65863 230.64819,137.18213   C 232.3265,133.70562 234.72409,131.10823 237.88092,129.42992   C 241.03775,127.7516 244.67409,126.91245 248.75,126.91245   C 251.74698,126.91245 254.42429,127.39197 256.82188,128.351   C 259.25943,129.31004 261.13755,130.66867 262.49618,132.38695   C 263.85482,134.10522 264.89377,136.34297 265.61305,139.14016   L 260.69799,140.45883   C 260.09859,138.38092 259.29939,136.74257 258.38032,135.54377   C 257.46124,134.34498 256.18253,133.38594 254.46425,132.66666   C 252.74598,131.94739 250.86787,131.54779 248.78996,131.54779   C 246.31245,131.54779 244.15461,131.94739 242.31646,132.70662   C 240.51827,133.46586 239.03976,134.46486 237.92088,135.70361   C 236.802,136.94237 235.96285,138.301 235.32349,139.77952   C 234.28453,142.33695 233.76506,145.09417 233.76506,148.0512   C 233.76506,151.72751 234.40441,154.80442 235.64317,157.28193   C 236.92188,159.75944 238.76004,161.59759 241.15763,162.79638   C 243.59518,163.99518 246.15261,164.59458 248.86988,164.59458   C 251.22751,164.59458 253.54518,164.11506 255.78293,163.23594   C 258.02068,162.31687 259.73895,161.35783 260.89779,160.31887   L 260.89779,152.64658   z "
     style="fill:#000000;fill-rule:evenodd;fill-opacity:1;stroke:none;" />
  <path
     id="path11"
     d="  M 220.25863,346.8514   L 271.08755,346.8514  "
     style="fill:none;stroke:#000000;stroke-width:9.5903616px;stroke-linecap:butt;stroke-linejoin:miter;stroke-miterlimit:10;stroke-dasharray:none;stroke-opacity:1;" />
  <path
     id="path13"
     d="  M 246.15261,346.8514   L 246.15261,226.97188  "
     style="fill:none;stroke:#000000;stroke-width:9.5903616px;stroke-linecap:butt;stroke-linejoin:miter;stroke-miterlimit:10;stroke-dasharray:none;stroke-opacity:1;" />
  <path
     id="path15"
     d="  M 236.56225,208.7502   L 200.11887,196.28273   L 210.66827,179.97911   L 177.10201,169.42972  "
     style="fill:none;stroke:#000000;stroke-width:9.5903616px;stroke-linecap:butt;stroke-linejoin:miter;stroke-miterlimit:10;stroke-dasharray:none;stroke-opacity:1;" />
  <path
     id="path17"
     d="  M 255.74297,208.7502   L 292.18634,196.28273   L 281.63694,179.97911   L 315.20321,169.42972  "
     style="fill:none;stroke:#000000;stroke-width:9.5903616px;stroke-linecap:butt;stroke-linejoin:miter;stroke-miterlimit:10;stroke-dasharray:none;stroke-opacity:1;" />
  <path
     id="path19"
     d="  M 236.56225,222.1767   L 200.11887,235.60321   L 210.66827,250.94779   L 177.10201,262.45622  "
     style="fill:none;stroke:#000000;stroke-width:9.5903616px;stroke-linecap:butt;stroke-linejoin:miter;stroke-miterlimit:10;stroke-dasharray:none;stroke-opacity:1;" />
  <path
     id="path21"
     d="  M 255.74297,222.1767   L 292.18634,235.60321   L 281.63694,250.94779   L 315.20321,262.45622  "
     style="fill:none;stroke:#000000;stroke-width:9.5903616px;stroke-linecap:butt;stroke-linejoin:miter;stroke-miterlimit:10;stroke-dasharray:none;stroke-opacity:1;" />
  <path
     id="path23"
     d="  M 191.20783,304.21425   L 196.36265,303.77469   C 196.60241,305.81265 197.16184,307.53092 198.04096,308.84959   C 198.96004,310.16827 200.31867,311.20722 202.19678,312.04638   C 204.0749,312.84558 206.19277,313.24518 208.51044,313.24518   C 210.58835,313.24518 212.4265,312.96546 214.0249,312.3261   C 215.62329,311.7267 216.82209,310.84759 217.58132,309.80863   C 218.38052,308.72971 218.74016,307.53092 218.74016,306.2522   C 218.74016,304.97349 218.38052,303.85461 217.62128,302.89558   C 216.86205,301.89658 215.62329,301.09739 213.90502,300.45803   C 212.8261,300.01847 210.34859,299.33915 206.59237,298.42008   C 202.79618,297.54096 200.15883,296.66184 198.64036,295.86265   C 196.68233,294.82369 195.20381,293.54498 194.24478,292.0265   C 193.28574,290.50803 192.80622,288.78975 192.80622,286.91164   C 192.80622,284.83373 193.36566,282.8757 194.56446,281.07751   C 195.72329,279.27931 197.48152,277.88072 199.71927,276.96164   C 201.99699,276.00261 204.51445,275.56305 207.27168,275.56305   C 210.34859,275.56305 213.0259,276.04257 215.34357,277.04156   C 217.7012,278.0006 219.49939,279.43915 220.73815,281.35722   C 222.01686,283.2753 222.65622,285.43313 222.7761,287.87068   L 217.54136,288.27028   C 217.26164,285.63293 216.30261,283.6749 214.70421,282.35622   C 213.06586,281.03755 210.66827,280.35823 207.51144,280.35823   C 204.19478,280.35823 201.79719,280.95763 200.31867,282.15642   C 198.8002,283.39518 198.04096,284.83373 198.04096,286.552   C 198.04096,288.03052 198.56044,289.22931 199.63935,290.18835   C 200.67831,291.14739 203.43554,292.14638 207.87108,293.14538   C 212.30662,294.14437 215.34357,295.02349 216.98192,295.74277   C 219.37951,296.86164 221.13775,298.26024 222.29658,299.93855   C 223.41546,301.65682 224.01486,303.61486 224.01486,305.81265   C 224.01486,308.01044 223.3755,310.08835 222.13674,312.00642   C 220.85803,313.96445 219.05984,315.44297 216.70221,316.52188   C 214.34458,317.6008 211.70723,318.16024 208.79016,318.16024   C 205.03393,318.16024 201.91707,317.6008 199.3996,316.52188   C 196.88213,315.44297 194.92409,313.80461 193.48554,311.60682   C 192.04699,309.44899 191.28775,306.97148 191.20783,304.21425   z "
     style="fill:#000000;fill-rule:evenodd;fill-opacity:1;stroke:none;" />
  <path
     id="path25"
     d="  M 296.82168,276.24237   L 302.25622,276.24237   L 302.25622,300.05843   C 302.25622,304.17429 301.81666,307.49096 300.85763,309.92851   C 299.93855,312.36606 298.22028,314.32409 295.78273,315.84257   C 293.34518,317.401 290.14839,318.16024 286.15241,318.16024   C 282.31626,318.16024 279.15943,317.48092 276.72188,316.16224   C 274.24437,314.80361 272.48614,312.88554 271.44718,310.36807   C 270.40823,307.8506 269.88875,304.41405 269.88875,300.05843   L 269.88875,276.24237   L 275.32329,276.24237   L 275.32329,300.01847   C 275.32329,303.61486 275.64297,306.2522 276.32229,307.93052   C 277.0016,309.64879 278.12048,310.92751 279.75883,311.84658   C 281.35722,312.76566 283.35522,313.24518 285.71285,313.24518   C 289.70883,313.24518 292.54598,312.3261 294.26425,310.48795   C 295.98253,308.68975 296.82168,305.21325 296.82168,300.01847   z "
     style="fill:#000000;fill-rule:evenodd;fill-opacity:1;stroke:none;" />
</svg>
