<?xml version="1.0" encoding="UTF-8" standalone="no"?>
<svg
   xmlns:dc="http://purl.org/dc/elements/1.1/"
   xmlns:cc="http://creativecommons.org/ns#"
   xmlns:rdf="http://www.w3.org/1999/02/22-rdf-syntax-ns#"
   xmlns:svg="http://www.w3.org/2000/svg"
   xmlns="http://www.w3.org/2000/svg"
   id="svg27"
   height="95.75mm"
   width="95.75mm"
   version="1.0">
  <metadata
     id="metadata31">
    <rdf:RDF>
      <cc:Work
         rdf:about="">
        <dc:format>image/svg+xml</dc:format>
        <dc:type
           rdf:resource="http://purl.org/dc/dcmitype/StillImage" />
      </cc:Work>
    </rdf:RDF>
  </metadata>
  <defs
     id="defs3">
    <pattern
       y="0"
       x="0"
       height="6"
       width="6"
       patternUnits="userSpaceOnUse"
       id="EMFhbasepattern" />
  </defs>
  <path
     id="path5"
     d="  M 54.345381,54.345381   L 54.345381,307.53092   L 307.53092,307.53092   L 307.53092,54.345381   L 54.345381,54.345381   z "
     style="fill:#aaffaa;fill-rule:evenodd;fill-opacity:1;stroke:none;" />
  <path
     id="path7"
     d="  M 54.345381,54.345381   L 307.53092,54.345381   L 307.53092,307.53092   L 54.345381,307.53092   z "
     style="fill:none;stroke:#000000;stroke-width:9.5903616px;stroke-linecap:butt;stroke-linejoin:miter;stroke-miterlimit:10;stroke-dasharray:none;stroke-opacity:1;" />
  <path
     id="path9"
     d="  M 183.5755,87.432127   L 183.5755,82.596987   L 201.03795,82.557027   L 201.03795,97.861645   C 198.36064,99.979517 195.56345,101.57791 192.7263,102.65683   C 189.88915,103.73574 186.97209,104.29518 183.9751,104.29518   C 179.89919,104.29518 176.26285,103.41606 172.94618,101.69779   C 169.62952,99.939557 167.15201,97.462047 165.43373,94.18534   C 163.75542,90.908633 162.91626,87.232328 162.91626,83.196384   C 162.91626,79.160441 163.75542,75.444176 165.43373,71.96767   C 167.11205,68.491164 169.50964,65.893774 172.66646,64.215461   C 175.82329,62.537148 179.45964,61.697991 183.53554,61.697991   C 186.53253,61.697991 189.20984,62.177509 191.60743,63.136545   C 194.04498,64.095581 195.92309,65.454216 197.28172,67.172489   C 198.64036,68.890762 199.67931,71.128513 200.39859,73.925702   L 195.48353,75.244376   C 194.88413,73.166465 194.08494,71.528111 193.16586,70.329316   C 192.24678,69.130521 190.96807,68.171485 189.2498,67.452208   C 187.53152,66.732931 185.65341,66.333332 183.5755,66.333332   C 181.09799,66.333332 178.94016,66.732931 177.10201,67.492168   C 175.30381,68.251405 173.8253,69.250401 172.70642,70.489156   C 171.58755,71.727911 170.74839,73.086545 170.10903,74.565059   C 169.07008,77.122489 168.5506,79.879718 168.5506,82.836746   C 168.5506,86.513051 169.18996,89.589959 170.42871,92.067469   C 171.70743,94.544979 173.54558,96.383131 175.94317,97.581926   C 178.38072,98.780721 180.93815,99.380119 183.65542,99.380119   C 186.01305,99.380119 188.33072,98.900601 190.56847,98.021485   C 192.80622,97.102408 194.5245,96.143372 195.68333,95.104416   L 195.68333,87.432127   z "
     style="fill:#000000;fill-rule:evenodd;fill-opacity:1;stroke:none;" />
  <path
     id="path11"
     d="  M 155.04417,281.63694   L 205.87309,281.63694  "
     style="fill:none;stroke:#000000;stroke-width:9.5903616px;stroke-linecap:butt;stroke-linejoin:miter;stroke-miterlimit:10;stroke-dasharray:none;stroke-opacity:1;" />
  <path
     id="path13"
     d="  M 180.93815,281.63694   L 180.93815,161.75743  "
     style="fill:none;stroke:#000000;stroke-width:9.5903616px;stroke-linecap:butt;stroke-linejoin:miter;stroke-miterlimit:10;stroke-dasharray:none;stroke-opacity:1;" />
  <path
     id="path15"
     d="  M 171.34779,143.53574   L 134.90442,131.06827   L 145.45381,114.76466   L 111.88755,104.21526  "
     style="fill:none;stroke:#000000;stroke-width:9.5903616px;stroke-linecap:butt;stroke-linejoin:miter;stroke-miterlimit:10;stroke-dasharray:none;stroke-opacity:1;" />
  <path
     id="path17"
     d="  M 190.52851,143.53574   L 226.97188,131.06827   L 216.42249,114.76466   L 249.98875,104.21526  "
     style="fill:none;stroke:#000000;stroke-width:9.5903616px;stroke-linecap:butt;stroke-linejoin:miter;stroke-miterlimit:10;stroke-dasharray:none;stroke-opacity:1;" />
  <path
     id="path19"
     d="  M 171.34779,156.96225   L 134.90442,170.38875   L 145.45381,185.73333   L 111.88755,197.24176  "
     style="fill:none;stroke:#000000;stroke-width:9.5903616px;stroke-linecap:butt;stroke-linejoin:miter;stroke-miterlimit:10;stroke-dasharray:none;stroke-opacity:1;" />
  <path
     id="path21"
     d="  M 190.52851,156.96225   L 226.97188,170.38875   L 216.42249,185.73333   L 249.98875,197.24176  "
     style="fill:none;stroke:#000000;stroke-width:9.5903616px;stroke-linecap:butt;stroke-linejoin:miter;stroke-miterlimit:10;stroke-dasharray:none;stroke-opacity:1;" />
  <path
     id="path23"
     d="  M 126.19317,232.16666   C 126.19317,225.33353 128.03132,219.97891 131.70763,216.10281   C 135.38393,212.2267 140.09919,210.30863 145.93333,210.30863   C 149.72952,210.30863 153.16606,211.22771 156.20301,213.0259   C 159.23996,214.86405 161.59759,217.38152 163.19598,220.61827   C 164.79438,223.89498 165.59357,227.57128 165.59357,231.68715   C 165.59357,235.88293 164.75442,239.59919 163.0761,242.91586   C 161.35783,246.19257 159.0002,248.71004 155.88333,250.38835   C 152.80642,252.10662 149.48976,252.94578 145.89337,252.94578   C 142.01727,252.94578 138.54076,251.98674 135.50381,250.10863   C 132.42691,248.27048 130.14919,245.71305 128.5508,242.43634   C 126.99237,239.19959 126.19317,235.80301 126.19317,232.16666   z  M 131.82751,232.24658   C 131.82751,237.2016 133.14618,241.11767 135.82349,243.99478   C 138.5008,246.83192 141.81747,248.27048 145.85341,248.27048   C 149.96927,248.27048 153.3259,246.83192 156.00321,243.95482   C 158.64056,241.07771 159.95923,236.96184 159.95923,231.64719   C 159.95923,228.33052 159.3998,225.37349 158.28092,222.89598   C 157.12209,220.37851 155.48373,218.46044 153.28594,217.06184   C 151.12811,215.70321 148.6506,214.98393 145.93333,214.98393   C 142.09719,214.98393 138.78052,216.34257 135.98333,218.97992   C 133.2261,221.61727 131.82751,226.05281 131.82751,232.24658   z "
     style="fill:#000000;fill-rule:evenodd;fill-opacity:1;stroke:none;" />
  <path
     id="path25"
     d="  M 204.35462,252.2265   L 204.35462,211.02791   L 209.78915,211.02791   L 209.78915,247.3514   L 230.08875,247.3514   L 230.08875,252.2265   z "
     style="fill:#000000;fill-rule:evenodd;fill-opacity:1;stroke:none;" />
</svg>
