<?xml version="1.0" encoding="UTF-8" standalone="no"?>
<svg
   xmlns:dc="http://purl.org/dc/elements/1.1/"
   xmlns:cc="http://creativecommons.org/ns#"
   xmlns:rdf="http://www.w3.org/1999/02/22-rdf-syntax-ns#"
   xmlns:svg="http://www.w3.org/2000/svg"
   xmlns="http://www.w3.org/2000/svg"
   id="svg27"
   height="101.85mm"
   width="101.85mm"
   version="1.0">
  <metadata
     id="metadata31">
    <rdf:RDF>
      <cc:Work
         rdf:about="">
        <dc:format>image/svg+xml</dc:format>
        <dc:type
           rdf:resource="http://purl.org/dc/dcmitype/StillImage" />
      </cc:Work>
    </rdf:RDF>
  </metadata>
  <defs
     id="defs3">
    <pattern
       y="0"
       x="0"
       height="6"
       width="6"
       patternUnits="userSpaceOnUse"
       id="EMFhbasepattern" />
  </defs>
  <path
     id="path5"
     d="  M 330.54779,192.44658   C 330.54779,268.72992 268.72992,330.54779 192.44658,330.54779   C 116.20321,330.54779 54.345381,268.72992 54.345381,192.44658   C 54.345381,116.20321 116.20321,54.345381 192.44658,54.345381   C 268.72992,54.345381 330.54779,116.20321 330.54779,192.44658   z "
     style="fill:#80e0ff;fill-rule:evenodd;fill-opacity:1;stroke:none;" />
  <path
     id="path7"
     d="  M 330.54779,192.44658   C 330.54779,268.72992 268.72992,330.54779 192.44658,330.54779   C 116.20321,330.54779 54.345381,268.72992 54.345381,192.44658   C 54.345381,116.20321 116.20321,54.345381 192.44658,54.345381   C 268.72992,54.345381 330.54779,116.20321 330.54779,192.44658  "
     style="fill:none;stroke:#000000;stroke-width:9.5903616px;stroke-linecap:butt;stroke-linejoin:miter;stroke-miterlimit:10;stroke-dasharray:none;stroke-opacity:1;" />
  <path
     id="path9"
     d="  M 195.08393,98.940561   L 195.08393,94.10542   L 212.54638,94.06546   L 212.54638,109.37008   C 209.86907,111.48795 207.07188,113.08634 204.23474,114.16526   C 201.39759,115.24418 198.48052,115.80361 195.48353,115.80361   C 191.40763,115.80361 187.77128,114.9245 184.45462,113.20622   C 181.13795,111.44799 178.66044,108.97048 176.94217,105.69377   C 175.26385,102.41707 174.4247,98.740762 174.4247,94.704818   C 174.4247,90.668874 175.26385,86.952609 176.94217,83.476103   C 178.62048,79.999597 181.01807,77.402208 184.1749,75.723894   C 187.33172,74.045581 190.96807,73.206425 195.04397,73.206425   C 198.04096,73.206425 200.71827,73.685943 203.11586,74.644979   C 205.55341,75.604015 207.43152,76.962649 208.79016,78.680923   C 210.14879,80.399196 211.18775,82.636947 211.90703,85.434135   L 206.99196,86.75281   C 206.39257,84.674898 205.59337,83.036545 204.67429,81.83775   C 203.75522,80.638955 202.4765,79.679919 200.75823,78.960641   C 199.03996,78.241364 197.16184,77.841766 195.08393,77.841766   C 192.60642,77.841766 190.44859,78.241364 188.61044,79.000601   C 186.81225,79.759838 185.33373,80.758834 184.21486,81.997589   C 183.09598,83.236344 182.25682,84.594979 181.61747,86.073493   C 180.57851,88.630922 180.05903,91.388151 180.05903,94.345179   C 180.05903,98.021485 180.69839,101.09839 181.93715,103.5759   C 183.21586,106.05341 185.05401,107.89156 187.4516,109.09036   C 189.88915,110.28916 192.44658,110.88855 195.16385,110.88855   C 197.52148,110.88855 199.83915,110.40903 202.0769,109.52992   C 204.31466,108.61084 206.03293,107.65181 207.19176,106.61285   L 207.19176,98.940561   z "
     style="fill:#000000;fill-rule:evenodd;fill-opacity:1;stroke:none;" />
  <path
     id="path11"
     d="  M 166.55261,293.14538   L 217.38152,293.14538  "
     style="fill:none;stroke:#000000;stroke-width:9.5903616px;stroke-linecap:butt;stroke-linejoin:miter;stroke-miterlimit:10;stroke-dasharray:none;stroke-opacity:1;" />
  <path
     id="path13"
     d="  M 192.44658,293.14538   L 192.44658,173.26586  "
     style="fill:none;stroke:#000000;stroke-width:9.5903616px;stroke-linecap:butt;stroke-linejoin:miter;stroke-miterlimit:10;stroke-dasharray:none;stroke-opacity:1;" />
  <path
     id="path15"
     d="  M 182.85622,155.04417   L 146.41285,142.5767   L 156.96225,126.27309   L 123.39598,115.72369  "
     style="fill:none;stroke:#000000;stroke-width:9.5903616px;stroke-linecap:butt;stroke-linejoin:miter;stroke-miterlimit:10;stroke-dasharray:none;stroke-opacity:1;" />
  <path
     id="path17"
     d="  M 202.03694,155.04417   L 238.48032,142.5767   L 227.93092,126.27309   L 261.49718,115.72369  "
     style="fill:none;stroke:#000000;stroke-width:9.5903616px;stroke-linecap:butt;stroke-linejoin:miter;stroke-miterlimit:10;stroke-dasharray:none;stroke-opacity:1;" />
  <path
     id="path19"
     d="  M 182.85622,168.47068   L 146.41285,181.89719   L 156.96225,197.24176   L 123.39598,208.7502  "
     style="fill:none;stroke:#000000;stroke-width:9.5903616px;stroke-linecap:butt;stroke-linejoin:miter;stroke-miterlimit:10;stroke-dasharray:none;stroke-opacity:1;" />
  <path
     id="path21"
     d="  M 202.03694,168.47068   L 238.48032,181.89719   L 227.93092,197.24176   L 261.49718,208.7502  "
     style="fill:none;stroke:#000000;stroke-width:9.5903616px;stroke-linecap:butt;stroke-linejoin:miter;stroke-miterlimit:10;stroke-dasharray:none;stroke-opacity:1;" />
  <path
     id="path23"
     d="  M 168.7504,249.30943   L 174.18494,250.66807   C 173.06606,255.14357 170.98815,258.58012 168.03112,260.89779   C 165.07409,263.25542 161.43775,264.45421 157.16205,264.45421   C 152.7265,264.45421 149.09016,263.53514 146.33293,261.73694   C 143.53574,259.93875 141.41787,257.3014 139.97932,253.86486   C 138.5008,250.46827 137.78152,246.752 137.78152,242.83594   C 137.78152,238.56024 138.62068,234.80401 140.25903,231.60723   C 141.89739,228.41044 144.21506,225.97289 147.25201,224.33453   C 150.28895,222.65622 153.60562,221.85702 157.24197,221.85702   C 161.35783,221.85702 164.83433,222.89598 167.63152,224.97389   C 170.42871,227.09176 172.38674,230.04879 173.50562,233.84498   L 168.151,235.12369   C 167.19197,232.1267 165.79337,229.92891 163.95522,228.57028   C 162.15703,227.21164 159.87931,226.49237 157.12209,226.49237   C 153.96526,226.49237 151.32791,227.2516 149.17008,228.77008   C 147.05221,230.28855 145.57369,232.3265 144.69458,234.88393   C 143.85542,237.44136 143.41586,240.07871 143.41586,242.79598   C 143.41586,246.31245 143.93534,249.34939 144.93434,251.98674   C 145.97329,254.58413 147.53172,256.54216 149.68956,257.82088   C 151.84739,259.13955 154.20502,259.77891 156.68253,259.77891   C 159.75944,259.77891 162.31687,258.8998 164.43474,257.14156   C 166.55261,255.38333 167.99116,252.74598 168.7504,249.30943   z "
     style="fill:#000000;fill-rule:evenodd;fill-opacity:1;stroke:none;" />
  <path
     id="path25"
     d="  M 215.90301,263.73494   L 215.90301,222.53634   L 224.13474,222.53634   L 233.88494,251.70702   C 234.76405,254.42429 235.44337,256.46225 235.84297,257.82088   C 236.32249,256.30241 237.04176,254.10461 238.04076,251.18755   L 247.87088,222.53634   L 255.22349,222.53634   L 255.22349,263.73494   L 249.98875,263.73494   L 249.98875,229.2496   L 238.0008,263.73494   L 233.08574,263.73494   L 221.17771,228.69016   L 221.17771,263.73494   z "
     style="fill:#000000;fill-rule:evenodd;fill-opacity:1;stroke:none;" />
</svg>
