<?xml version="1.0" encoding="UTF-8" standalone="no"?>
<svg
   xmlns:dc="http://purl.org/dc/elements/1.1/"
   xmlns:cc="http://creativecommons.org/ns#"
   xmlns:rdf="http://www.w3.org/1999/02/22-rdf-syntax-ns#"
   xmlns:svg="http://www.w3.org/2000/svg"
   xmlns="http://www.w3.org/2000/svg"
   id="svg27"
   height="101.85mm"
   width="101.85mm"
   version="1.0">
  <metadata
     id="metadata31">
    <rdf:RDF>
      <cc:Work
         rdf:about="">
        <dc:format>image/svg+xml</dc:format>
        <dc:type
           rdf:resource="http://purl.org/dc/dcmitype/StillImage" />
      </cc:Work>
    </rdf:RDF>
  </metadata>
  <defs
     id="defs3">
    <pattern
       y="0"
       x="0"
       height="6"
       width="6"
       patternUnits="userSpaceOnUse"
       id="EMFhbasepattern" />
  </defs>
  <path
     id="path5"
     d="  M 330.54779,192.44658   C 330.54779,268.72992 268.72992,330.54779 192.44658,330.54779   C 116.20321,330.54779 54.345381,268.72992 54.345381,192.44658   C 54.345381,116.20321 116.20321,54.345381 192.44658,54.345381   C 268.72992,54.345381 330.54779,116.20321 330.54779,192.44658   z "
     style="fill:#80e0ff;fill-rule:evenodd;fill-opacity:1;stroke:none;" />
  <path
     id="path7"
     d="  M 330.54779,192.44658   C 330.54779,268.72992 268.72992,330.54779 192.44658,330.54779   C 116.20321,330.54779 54.345381,268.72992 54.345381,192.44658   C 54.345381,116.20321 116.20321,54.345381 192.44658,54.345381   C 268.72992,54.345381 330.54779,116.20321 330.54779,192.44658  "
     style="fill:none;stroke:#000000;stroke-width:9.5903616px;stroke-linecap:butt;stroke-linejoin:miter;stroke-miterlimit:10;stroke-dasharray:none;stroke-opacity:1;" />
  <path
     id="path9"
     d="  M 195.08393,98.940561   L 195.08393,94.10542   L 212.54638,94.06546   L 212.54638,109.37008   C 209.86907,111.48795 207.07188,113.08634 204.23474,114.16526   C 201.39759,115.24418 198.48052,115.80361 195.48353,115.80361   C 191.40763,115.80361 187.77128,114.9245 184.45462,113.20622   C 181.13795,111.44799 178.66044,108.97048 176.94217,105.69377   C 175.26385,102.41707 174.4247,98.740762 174.4247,94.704818   C 174.4247,90.668874 175.26385,86.952609 176.94217,83.476103   C 178.62048,79.999597 181.01807,77.402208 184.1749,75.723894   C 187.33172,74.045581 190.96807,73.206425 195.04397,73.206425   C 198.04096,73.206425 200.71827,73.685943 203.11586,74.644979   C 205.55341,75.604015 207.43152,76.962649 208.79016,78.680923   C 210.14879,80.399196 211.18775,82.636947 211.90703,85.434135   L 206.99196,86.75281   C 206.39257,84.674898 205.59337,83.036545 204.67429,81.83775   C 203.75522,80.638955 202.4765,79.679919 200.75823,78.960641   C 199.03996,78.241364 197.16184,77.841766 195.08393,77.841766   C 192.60642,77.841766 190.44859,78.241364 188.61044,79.000601   C 186.81225,79.759838 185.33373,80.758834 184.21486,81.997589   C 183.09598,83.236344 182.25682,84.594979 181.61747,86.073493   C 180.57851,88.630922 180.05903,91.388151 180.05903,94.345179   C 180.05903,98.021485 180.69839,101.09839 181.93715,103.5759   C 183.21586,106.05341 185.05401,107.89156 187.4516,109.09036   C 189.88915,110.28916 192.44658,110.88855 195.16385,110.88855   C 197.52148,110.88855 199.83915,110.40903 202.0769,109.52992   C 204.31466,108.61084 206.03293,107.65181 207.19176,106.61285   L 207.19176,98.940561   z "
     style="fill:#000000;fill-rule:evenodd;fill-opacity:1;stroke:none;" />
  <path
     id="path11"
     d="  M 166.55261,293.14538   L 217.38152,293.14538  "
     style="fill:none;stroke:#000000;stroke-width:9.5903616px;stroke-linecap:butt;stroke-linejoin:miter;stroke-miterlimit:10;stroke-dasharray:none;stroke-opacity:1;" />
  <path
     id="path13"
     d="  M 192.44658,293.14538   L 192.44658,173.26586  "
     style="fill:none;stroke:#000000;stroke-width:9.5903616px;stroke-linecap:butt;stroke-linejoin:miter;stroke-miterlimit:10;stroke-dasharray:none;stroke-opacity:1;" />
  <path
     id="path15"
     d="  M 182.85622,155.04417   L 146.41285,142.5767   L 156.96225,126.27309   L 123.39598,115.72369  "
     style="fill:none;stroke:#000000;stroke-width:9.5903616px;stroke-linecap:butt;stroke-linejoin:miter;stroke-miterlimit:10;stroke-dasharray:none;stroke-opacity:1;" />
  <path
     id="path17"
     d="  M 202.03694,155.04417   L 238.48032,142.5767   L 227.93092,126.27309   L 261.49718,115.72369  "
     style="fill:none;stroke:#000000;stroke-width:9.5903616px;stroke-linecap:butt;stroke-linejoin:miter;stroke-miterlimit:10;stroke-dasharray:none;stroke-opacity:1;" />
  <path
     id="path19"
     d="  M 182.85622,168.47068   L 146.41285,181.89719   L 156.96225,197.24176   L 123.39598,208.7502  "
     style="fill:none;stroke:#000000;stroke-width:9.5903616px;stroke-linecap:butt;stroke-linejoin:miter;stroke-miterlimit:10;stroke-dasharray:none;stroke-opacity:1;" />
  <path
     id="path21"
     d="  M 202.03694,168.47068   L 238.48032,181.89719   L 227.93092,197.24176   L 261.49718,208.7502  "
     style="fill:none;stroke:#000000;stroke-width:9.5903616px;stroke-linecap:butt;stroke-linejoin:miter;stroke-miterlimit:10;stroke-dasharray:none;stroke-opacity:1;" />
  <path
     id="path23"
     d="  M 139.37992,263.73494   L 139.37992,222.53634   L 154.88434,222.53634   C 157.64156,222.53634 159.71948,222.69618 161.15803,222.93594   C 163.19598,223.29558 164.87429,223.93494 166.23293,224.85401   C 167.63152,225.81305 168.71044,227.13172 169.5496,228.85   C 170.38875,230.52831 170.78835,232.40642 170.78835,234.44437   C 170.78835,237.96084 169.66948,240.91787 167.47168,243.35542   C 165.23393,245.79297 161.19799,246.99176 155.36385,246.99176   L 144.81446,246.99176   L 144.81446,263.73494   z  M 144.81446,242.11666   L 155.44377,242.11666   C 159.0002,242.11666 161.47771,241.47731 162.95622,240.15863   C 164.43474,238.83996 165.19397,237.0018 165.19397,234.64417   C 165.19397,232.9259 164.75442,231.44739 163.8753,230.20863   C 162.99618,228.96988 161.87731,228.17068 160.43875,227.77108   C 159.51968,227.53132 157.84136,227.41144 155.36385,227.41144   L 144.81446,227.41144   z "
     style="fill:#000000;fill-rule:evenodd;fill-opacity:1;stroke:none;" />
  <path
     id="path25"
     d="  M 216.10281,263.73494   L 216.10281,222.53634   L 231.60723,222.53634   C 234.36445,222.53634 236.44237,222.69618 237.88092,222.93594   C 239.91887,223.29558 241.59719,223.93494 242.95582,224.85401   C 244.35441,225.81305 245.43333,227.13172 246.27249,228.85   C 247.11164,230.52831 247.51124,232.40642 247.51124,234.44437   C 247.51124,237.96084 246.39237,240.91787 244.19457,243.35542   C 241.95682,245.79297 237.92088,246.99176 232.08674,246.99176   L 221.53735,246.99176   L 221.53735,263.73494   z  M 221.53735,242.11666   L 232.16666,242.11666   C 235.72309,242.11666 238.2006,241.47731 239.67911,240.15863   C 241.15763,238.83996 241.91686,237.0018 241.91686,234.64417   C 241.91686,232.9259 241.47731,231.44739 240.59819,230.20863   C 239.71907,228.96988 238.6002,228.17068 237.16164,227.77108   C 236.24257,227.53132 234.56425,227.41144 232.08674,227.41144   L 221.53735,227.41144   z "
     style="fill:#000000;fill-rule:evenodd;fill-opacity:1;stroke:none;" />
</svg>
