<?xml version="1.0" encoding="UTF-8" standalone="no"?>
<svg
   xmlns:dc="http://purl.org/dc/elements/1.1/"
   xmlns:cc="http://creativecommons.org/ns#"
   xmlns:rdf="http://www.w3.org/1999/02/22-rdf-syntax-ns#"
   xmlns:svg="http://www.w3.org/2000/svg"
   xmlns="http://www.w3.org/2000/svg"
   id="svg27"
   height="95.75mm"
   width="95.75mm"
   version="1.0">
  <metadata
     id="metadata31">
    <rdf:RDF>
      <cc:Work
         rdf:about="">
        <dc:format>image/svg+xml</dc:format>
        <dc:type
           rdf:resource="http://purl.org/dc/dcmitype/StillImage" />
      </cc:Work>
    </rdf:RDF>
  </metadata>
  <defs
     id="defs3">
    <pattern
       y="0"
       x="0"
       height="6"
       width="6"
       patternUnits="userSpaceOnUse"
       id="EMFhbasepattern" />
  </defs>
  <path
     id="path5"
     d="  M 54.345381,54.345381   L 54.345381,307.53092   L 307.53092,307.53092   L 307.53092,54.345381   L 54.345381,54.345381   z "
     style="fill:#aaffaa;fill-rule:evenodd;fill-opacity:1;stroke:none;" />
  <path
     id="path7"
     d="  M 54.345381,54.345381   L 307.53092,54.345381   L 307.53092,307.53092   L 54.345381,307.53092   z "
     style="fill:none;stroke:#000000;stroke-width:9.5903616px;stroke-linecap:butt;stroke-linejoin:miter;stroke-miterlimit:10;stroke-dasharray:none;stroke-opacity:1;" />
  <path
     id="path9"
     d="  M 183.5755,87.432127   L 183.5755,82.596987   L 201.03795,82.557027   L 201.03795,97.861645   C 198.36064,99.979517 195.56345,101.57791 192.7263,102.65683   C 189.88915,103.73574 186.97209,104.29518 183.9751,104.29518   C 179.89919,104.29518 176.26285,103.41606 172.94618,101.69779   C 169.62952,99.939557 167.15201,97.462047 165.43373,94.18534   C 163.75542,90.908633 162.91626,87.232328 162.91626,83.196384   C 162.91626,79.160441 163.75542,75.444176 165.43373,71.96767   C 167.11205,68.491164 169.50964,65.893774 172.66646,64.215461   C 175.82329,62.537148 179.45964,61.697991 183.53554,61.697991   C 186.53253,61.697991 189.20984,62.177509 191.60743,63.136545   C 194.04498,64.095581 195.92309,65.454216 197.28172,67.172489   C 198.64036,68.890762 199.67931,71.128513 200.39859,73.925702   L 195.48353,75.244376   C 194.88413,73.166465 194.08494,71.528111 193.16586,70.329316   C 192.24678,69.130521 190.96807,68.171485 189.2498,67.452208   C 187.53152,66.732931 185.65341,66.333332 183.5755,66.333332   C 181.09799,66.333332 178.94016,66.732931 177.10201,67.492168   C 175.30381,68.251405 173.8253,69.250401 172.70642,70.489156   C 171.58755,71.727911 170.74839,73.086545 170.10903,74.565059   C 169.07008,77.122489 168.5506,79.879718 168.5506,82.836746   C 168.5506,86.513051 169.18996,89.589959 170.42871,92.067469   C 171.70743,94.544979 173.54558,96.383131 175.94317,97.581926   C 178.38072,98.780721 180.93815,99.380119 183.65542,99.380119   C 186.01305,99.380119 188.33072,98.900601 190.56847,98.021485   C 192.80622,97.102408 194.5245,96.143372 195.68333,95.104416   L 195.68333,87.432127   z "
     style="fill:#000000;fill-rule:evenodd;fill-opacity:1;stroke:none;" />
  <path
     id="path11"
     d="  M 155.04417,281.63694   L 205.87309,281.63694  "
     style="fill:none;stroke:#000000;stroke-width:9.5903616px;stroke-linecap:butt;stroke-linejoin:miter;stroke-miterlimit:10;stroke-dasharray:none;stroke-opacity:1;" />
  <path
     id="path13"
     d="  M 180.93815,281.63694   L 180.93815,161.75743  "
     style="fill:none;stroke:#000000;stroke-width:9.5903616px;stroke-linecap:butt;stroke-linejoin:miter;stroke-miterlimit:10;stroke-dasharray:none;stroke-opacity:1;" />
  <path
     id="path15"
     d="  M 171.34779,143.53574   L 134.90442,131.06827   L 145.45381,114.76466   L 111.88755,104.21526  "
     style="fill:none;stroke:#000000;stroke-width:9.5903616px;stroke-linecap:butt;stroke-linejoin:miter;stroke-miterlimit:10;stroke-dasharray:none;stroke-opacity:1;" />
  <path
     id="path17"
     d="  M 190.52851,143.53574   L 226.97188,131.06827   L 216.42249,114.76466   L 249.98875,104.21526  "
     style="fill:none;stroke:#000000;stroke-width:9.5903616px;stroke-linecap:butt;stroke-linejoin:miter;stroke-miterlimit:10;stroke-dasharray:none;stroke-opacity:1;" />
  <path
     id="path19"
     d="  M 171.34779,156.96225   L 134.90442,170.38875   L 145.45381,185.73333   L 111.88755,197.24176  "
     style="fill:none;stroke:#000000;stroke-width:9.5903616px;stroke-linecap:butt;stroke-linejoin:miter;stroke-miterlimit:10;stroke-dasharray:none;stroke-opacity:1;" />
  <path
     id="path21"
     d="  M 190.52851,156.96225   L 226.97188,170.38875   L 216.42249,185.73333   L 249.98875,197.24176  "
     style="fill:none;stroke:#000000;stroke-width:9.5903616px;stroke-linecap:butt;stroke-linejoin:miter;stroke-miterlimit:10;stroke-dasharray:none;stroke-opacity:1;" />
  <path
     id="path23"
     d="  M 125.99337,238.9998   L 131.14819,238.56024   C 131.38795,240.59819 131.94739,242.31646 132.8265,243.63514   C 133.74558,244.95381 135.10421,245.99277 136.98233,246.83192   C 138.86044,247.63112 140.97831,248.03072 143.29598,248.03072   C 145.37389,248.03072 147.21205,247.751 148.81044,247.11164   C 150.40883,246.51225 151.60763,245.63313 152.36687,244.59417   C 153.16606,243.51526 153.5257,242.31646 153.5257,241.03775   C 153.5257,239.75903 153.16606,238.64016 152.40683,237.68112   C 151.64759,236.68213 150.40883,235.88293 148.69056,235.24357   C 147.61164,234.80401 145.13413,234.1247 141.37791,233.20562   C 137.58172,232.3265 134.94438,231.44739 133.4259,230.64819   C 131.46787,229.60923 129.98936,228.33052 129.03032,226.81204   C 128.07128,225.29357 127.59177,223.5753 127.59177,221.69719   C 127.59177,219.61927 128.1512,217.66124 129.35,215.86305   C 130.50883,214.06486 132.26707,212.66626 134.50482,211.74719   C 136.78253,210.78815 139.3,210.34859 142.05723,210.34859   C 145.13413,210.34859 147.81144,210.82811 150.12911,211.82711   C 152.48674,212.78614 154.28494,214.2247 155.52369,216.14277   C 156.80241,218.06084 157.44176,220.21867 157.56164,222.65622   L 152.32691,223.05582   C 152.04719,220.41847 151.08815,218.46044 149.48976,217.14176   C 147.8514,215.82309 145.45381,215.14377 142.29699,215.14377   C 138.98032,215.14377 136.58273,215.74317 135.10421,216.94196   C 133.58574,218.18072 132.8265,219.61927 132.8265,221.33755   C 132.8265,222.81606 133.34598,224.01486 134.4249,224.97389   C 135.46385,225.93293 138.22108,226.93192 142.65662,227.93092   C 147.09217,228.92992 150.12911,229.80903 151.76747,230.52831   C 154.16506,231.64719 155.92329,233.04578 157.08213,234.72409   C 158.201,236.44237 158.8004,238.4004 158.8004,240.59819   C 158.8004,242.79598 158.16104,244.87389 156.92229,246.79196   C 155.64357,248.75 153.84538,250.22851 151.48775,251.30743   C 149.13012,252.38634 146.49277,252.94578 143.5757,252.94578   C 139.81948,252.94578 136.70261,252.38634 134.18514,251.30743   C 131.66767,250.22851 129.70964,248.59016 128.27108,246.39237   C 126.83253,244.23453 126.07329,241.75702 125.99337,238.9998   z "
     style="fill:#000000;fill-rule:evenodd;fill-opacity:1;stroke:none;" />
  <path
     id="path25"
     d="  M 231.60723,211.02791   L 237.04176,211.02791   L 237.04176,234.84397   C 237.04176,238.95984 236.60221,242.2765 235.64317,244.71405   C 234.72409,247.1516 233.00582,249.10963 230.56827,250.62811   C 228.13072,252.18654 224.93393,252.94578 220.93795,252.94578   C 217.1018,252.94578 213.94498,252.26646 211.50743,250.94779   C 209.02992,249.58915 207.27168,247.67108 206.23273,245.15361   C 205.19377,242.63614 204.67429,239.19959 204.67429,234.84397   L 204.67429,211.02791   L 210.10883,211.02791   L 210.10883,234.80401   C 210.10883,238.4004 210.42851,241.03775 211.10783,242.71606   C 211.78715,244.43433 212.90602,245.71305 214.54437,246.63212   C 216.14277,247.5512 218.14076,248.03072 220.49839,248.03072   C 224.49437,248.03072 227.33152,247.11164 229.0498,245.27349   C 230.76807,243.4753 231.60723,239.99879 231.60723,234.80401   z "
     style="fill:#000000;fill-rule:evenodd;fill-opacity:1;stroke:none;" />
</svg>
