<?xml version="1.0" encoding="UTF-8" standalone="no"?>
<svg
   xmlns:dc="http://purl.org/dc/elements/1.1/"
   xmlns:cc="http://creativecommons.org/ns#"
   xmlns:rdf="http://www.w3.org/1999/02/22-rdf-syntax-ns#"
   xmlns:svg="http://www.w3.org/2000/svg"
   xmlns="http://www.w3.org/2000/svg"
   id="svg13"
   height="95.75mm"
   width="95.75mm"
   version="1.0">
  <metadata
     id="metadata17">
    <rdf:RDF>
      <cc:Work
         rdf:about="">
        <dc:format>image/svg+xml</dc:format>
        <dc:type
           rdf:resource="http://purl.org/dc/dcmitype/StillImage" />
      </cc:Work>
    </rdf:RDF>
  </metadata>
  <defs
     id="defs3">
    <pattern
       y="0"
       x="0"
       height="6"
       width="6"
       patternUnits="userSpaceOnUse"
       id="EMFhbasepattern" />
  </defs>
  <path
     id="path5"
     d="  M 54.345381,54.345381   L 54.345381,307.53092   L 307.53092,307.53092   L 307.53092,54.345381   L 54.345381,54.345381   z "
     style="fill:#aaffaa;fill-rule:evenodd;fill-opacity:1;stroke:none;" />
  <path
     id="path7"
     d="  M 54.345381,54.345381   L 307.53092,54.345381   L 307.53092,307.53092   L 54.345381,307.53092   z "
     style="fill:none;stroke:#000000;stroke-width:9.5903616px;stroke-linecap:butt;stroke-linejoin:miter;stroke-miterlimit:10;stroke-dasharray:none;stroke-opacity:1;" />
  <path
     id="path9"
     d="  M 99.460039,183.61546   L 107.21225,182.93614   C 107.57189,186.05301 108.41104,188.57048 109.72972,190.56847   C 111.08835,192.5265 113.16626,194.1249 115.96345,195.36365   C 118.76064,196.56245 121.91747,197.2018 125.43393,197.2018   C 128.5508,197.2018 131.30803,196.72229 133.70562,195.80321   C 136.10321,194.88413 137.86144,193.60542 139.02028,192.00703   C 140.21907,190.36867 140.77851,188.61044 140.77851,186.69237   C 140.77851,184.77429 140.21907,183.05602 139.1002,181.61747   C 137.98132,180.17891 136.10321,178.94016 133.54578,177.98112   C 131.86747,177.34176 128.19116,176.34277 122.51687,174.94417   C 116.84257,173.58554 112.88654,172.30682 110.60883,171.10803   C 107.65181,169.5496 105.45401,167.63152 104.01546,165.35381   C 102.57691,163.0761 101.85763,160.47871 101.85763,157.64156   C 101.85763,154.5247 102.73675,151.64759 104.49498,148.93032   C 106.25321,146.21305 108.8506,144.13514 112.24719,142.73654   C 115.64377,141.33795 119.43996,140.61867 123.59578,140.61867   C 128.1512,140.61867 132.18715,141.37791 135.70361,142.85642   C 139.22008,144.33494 141.89739,146.49277 143.7755,149.36988   C 145.65361,152.20703 146.65261,155.48373 146.81245,159.08012   L 138.98032,159.67952   C 138.54076,155.76345 137.14217,152.84638 134.70462,150.84839   C 132.26707,148.8504 128.67068,147.8514 123.91546,147.8514   C 118.96044,147.8514 115.36405,148.73052 113.1263,150.56867   C 110.84859,152.36687 109.72972,154.56466 109.72972,157.12209   C 109.72972,159.31988 110.52891,161.15803 112.12731,162.59658   C 113.68574,164.03514 117.8016,165.51365 124.43494,166.99217   C 131.10823,168.51064 135.66365,169.82931 138.14116,170.94819   C 141.73755,172.58654 144.3749,174.70442 146.09317,177.22188   C 147.81144,179.77931 148.6506,182.69638 148.6506,186.01305   C 148.6506,189.32972 147.73152,192.40662 145.85341,195.32369   C 143.9753,198.24076 141.25803,200.47851 137.74156,202.11686   C 134.18514,203.71526 130.22911,204.51445 125.83353,204.51445   C 120.23915,204.51445 115.56385,203.71526 111.76767,202.0769   C 107.97148,200.43855 105.01446,198.001 102.85663,194.72429   C 100.73875,191.44759 99.579918,187.77128 99.460039,183.61546   z  M 159.99919,203.4755   L 159.99919,141.69759   L 204.67429,141.69759   L 204.67429,148.97028   L 168.19096,148.97028   L 168.19096,167.91124   L 202.35662,167.91124   L 202.35662,175.14397   L 168.19096,175.14397   L 168.19096,196.16285   L 206.11285,196.16285   L 206.11285,203.4755   z  M 261.49718,181.81727   L 269.64899,183.85522   C 267.93072,190.60843 264.85381,195.72329 260.41827,199.23976   C 255.94277,202.75622 250.50823,204.51445 244.0747,204.51445   C 237.4014,204.51445 232.00682,203.15582 227.851,200.47851   C 223.65522,197.76124 220.49839,193.80522 218.3006,188.69036   C 216.14277,183.53554 215.02389,178.02108 215.02389,172.10703   C 215.02389,165.67349 216.26265,160.07911 218.74016,155.28393   C 221.17771,150.48875 224.69417,146.85241 229.20964,144.3749   C 233.76506,141.85743 238.76004,140.61867 244.19457,140.61867   C 250.38835,140.61867 255.58313,142.21707 259.81887,145.37389   C 264.01465,148.49076 266.93172,152.9263 268.61004,158.64056   L 260.57811,160.51867   C 259.13955,156.04317 257.06164,152.76646 254.30441,150.68855   C 251.58714,148.6506 248.1506,147.61164 244.03474,147.61164   C 239.27951,147.61164 235.32349,148.77048 232.1267,151.04819   C 228.92992,153.3259 226.69217,156.36285 225.41345,160.19899   C 224.13474,164.03514 223.45542,167.99116 223.45542,172.06707   C 223.45542,177.34176 224.25462,181.89719 225.77309,185.85321   C 227.29156,189.76927 229.68915,192.68634 232.9259,194.60441   C 236.16265,196.56245 239.63915,197.52148 243.39538,197.52148   C 247.99076,197.52148 251.86686,196.20281 255.02369,193.56546   C 258.22048,190.92811 260.37831,187.01205 261.49718,181.81727   z "
     style="fill:#000000;fill-rule:evenodd;fill-opacity:1;stroke:none;" />
  <path
     id="path11"
     d="  M 180.93815,54.345381   L 180.93815,307.53092  "
     style="fill:none;stroke:#000000;stroke-width:9.5903616px;stroke-linecap:butt;stroke-linejoin:miter;stroke-miterlimit:10;stroke-dasharray:none;stroke-opacity:1;" />
</svg>
