<?xml version="1.0" encoding="UTF-8" standalone="no"?>
<svg
   xmlns:dc="http://purl.org/dc/elements/1.1/"
   xmlns:cc="http://creativecommons.org/ns#"
   xmlns:rdf="http://www.w3.org/1999/02/22-rdf-syntax-ns#"
   xmlns:svg="http://www.w3.org/2000/svg"
   xmlns="http://www.w3.org/2000/svg"
   id="svg15"
   height="95.75mm"
   width="95.75mm"
   version="1.0">
  <metadata
     id="metadata19">
    <rdf:RDF>
      <cc:Work
         rdf:about="">
        <dc:format>image/svg+xml</dc:format>
        <dc:type
           rdf:resource="http://purl.org/dc/dcmitype/StillImage" />
      </cc:Work>
    </rdf:RDF>
  </metadata>
  <defs
     id="defs3">
    <pattern
       y="0"
       x="0"
       height="6"
       width="6"
       patternUnits="userSpaceOnUse"
       id="EMFhbasepattern" />
  </defs>
  <path
     id="path5"
     d="  M 54.345381,54.345381   L 54.345381,307.53092   L 307.53092,307.53092   L 307.53092,54.345381   L 54.345381,54.345381   z "
     style="fill:#aaffaa;fill-rule:evenodd;fill-opacity:1;stroke:none;" />
  <path
     id="path7"
     d="  M 54.345381,54.345381   L 307.53092,54.345381   L 307.53092,307.53092   L 54.345381,307.53092   z "
     style="fill:none;stroke:#000000;stroke-width:9.5903616px;stroke-linecap:butt;stroke-linejoin:miter;stroke-miterlimit:10;stroke-dasharray:none;stroke-opacity:1;" />
  <path
     id="path9"
     d="  M 146.13313,265.81285   L 146.13313,204.03494   L 158.44076,204.03494   L 173.06606,247.751   C 174.38474,251.8269 175.38373,254.90381 176.02309,256.9018   C 176.70241,254.66405 177.82128,251.34739 179.2998,246.99176   L 194.08494,204.03494   L 205.07389,204.03494   L 205.07389,265.81285   L 197.2018,265.81285   L 197.2018,214.10482   L 179.25984,265.81285   L 171.86727,265.81285   L 154.00522,213.2257   L 154.00522,265.81285   z  M 219.65923,265.81285   L 219.65923,204.03494   L 227.851,204.03494   L 227.851,265.81285   z "
     style="fill:#000000;fill-rule:evenodd;fill-opacity:1;stroke:none;" />
  <path
     id="path11"
     d="  M 109.41004,107.97148   C 109.41004,174.4247 145.65361,198.6004 206.07289,192.56646  "
     style="fill:none;stroke:#000000;stroke-width:12.067871px;stroke-linecap:butt;stroke-linejoin:miter;stroke-miterlimit:10;stroke-dasharray:none;stroke-opacity:1;" />
  <path
     id="path13"
     d="  M 115.44397,150.24899   L 115.44397,150.24899   L 181.89719,101.93755   L 181.89719,150.24899   L 248.39036,101.93755  "
     style="fill:none;stroke:#000000;stroke-width:12.067871px;stroke-linecap:butt;stroke-linejoin:miter;stroke-miterlimit:10;stroke-dasharray:none;stroke-opacity:1;" />
</svg>
