<?xml version="1.0" encoding="UTF-8" standalone="no"?>
<svg
   xmlns:dc="http://purl.org/dc/elements/1.1/"
   xmlns:cc="http://creativecommons.org/ns#"
   xmlns:rdf="http://www.w3.org/1999/02/22-rdf-syntax-ns#"
   xmlns:svg="http://www.w3.org/2000/svg"
   xmlns="http://www.w3.org/2000/svg"
   id="svg27"
   height="116.73mm"
   width="116.73mm"
   version="1.0">
  <metadata
     id="metadata31">
    <rdf:RDF>
      <cc:Work
         rdf:about="">
        <dc:format>image/svg+xml</dc:format>
        <dc:type
           rdf:resource="http://purl.org/dc/dcmitype/StillImage" />
      </cc:Work>
    </rdf:RDF>
  </metadata>
  <defs
     id="defs3">
    <pattern
       y="0"
       x="0"
       height="6"
       width="6"
       patternUnits="userSpaceOnUse"
       id="EMFhbasepattern" />
  </defs>
  <path
     id="path5"
     d="  M 220.57831,386.49156   L 220.57831,386.49156   L 386.49156,220.57831   L 220.57831,54.665059   L 54.665059,220.57831   L 220.57831,386.49156   z "
     style="fill:#ff8080;fill-rule:evenodd;fill-opacity:1;stroke:none;" />
  <path
     id="path7"
     d="  M 220.57831,386.49156   L 220.57831,386.49156   L 386.49156,220.57831   L 220.57831,54.665059   L 54.665059,220.57831   L 220.57831,386.49156  "
     style="fill:none;stroke:#000000;stroke-width:9.5903616px;stroke-linecap:butt;stroke-linejoin:miter;stroke-miterlimit:10;stroke-dasharray:none;stroke-opacity:1;" />
  <path
     id="path9"
     d="  M 223.21566,127.07229   L 223.21566,122.23715   L 240.67811,122.19719   L 240.67811,137.50181   C 238.0008,139.61968 235.20361,141.21807 232.36646,142.29699   C 229.52931,143.3759 226.61225,143.93534 223.61526,143.93534   C 219.53935,143.93534 215.90301,143.05622 212.58634,141.33795   C 209.26968,139.57972 206.79217,137.10221 205.07389,133.8255   C 203.39558,130.54879 202.55642,126.87249 202.55642,122.83654   C 202.55642,118.8006 203.39558,115.08434 205.07389,111.60783   C 206.75221,108.13132 209.1498,105.53393 212.30662,103.85562   C 215.46345,102.17731 219.0998,101.33815 223.1757,101.33815   C 226.17269,101.33815 228.85,101.81767 231.24759,102.77671   C 233.68514,103.73574 235.56325,105.09438 236.92188,106.81265   C 238.28052,108.53092 239.31947,110.76867 240.03875,113.56586   L 235.12369,114.88454   C 234.52429,112.80662 233.7251,111.16827 232.80602,109.96948   C 231.88694,108.77068 230.60823,107.81165 228.88996,107.09237   C 227.17168,106.37309 225.29357,105.97349 223.21566,105.97349   C 220.73815,105.97349 218.58032,106.37309 216.74217,107.13233   C 214.94397,107.89156 213.46546,108.89056 212.34658,110.12932   C 211.22771,111.36807 210.38855,112.72671 209.74919,114.20522   C 208.71024,116.76265 208.19076,119.51988 208.19076,122.47691   C 208.19076,126.15321 208.83012,129.23012 210.06887,131.70763   C 211.34759,134.18514 213.18574,136.02329 215.58333,137.22209   C 218.02088,138.42088 220.57831,139.02028 223.29558,139.02028   C 225.65321,139.02028 227.97088,138.54076 230.20863,137.66164   C 232.44638,136.74257 234.16466,135.78353 235.32349,134.74458   L 235.32349,127.07229   z "
     style="fill:#000000;fill-rule:evenodd;fill-opacity:1;stroke:none;" />
  <path
     id="path11"
     d="  M 194.68433,321.2771   L 245.51325,321.2771  "
     style="fill:none;stroke:#000000;stroke-width:9.5903616px;stroke-linecap:butt;stroke-linejoin:miter;stroke-miterlimit:10;stroke-dasharray:none;stroke-opacity:1;" />
  <path
     id="path13"
     d="  M 220.57831,321.2771   L 220.57831,201.39759  "
     style="fill:none;stroke:#000000;stroke-width:9.5903616px;stroke-linecap:butt;stroke-linejoin:miter;stroke-miterlimit:10;stroke-dasharray:none;stroke-opacity:1;" />
  <path
     id="path15"
     d="  M 210.98795,183.1759   L 174.54458,170.70843   L 185.09397,154.40482   L 151.52771,143.85542  "
     style="fill:none;stroke:#000000;stroke-width:9.5903616px;stroke-linecap:butt;stroke-linejoin:miter;stroke-miterlimit:10;stroke-dasharray:none;stroke-opacity:1;" />
  <path
     id="path17"
     d="  M 230.16867,183.1759   L 266.61204,170.70843   L 256.06265,154.40482   L 289.62891,143.85542  "
     style="fill:none;stroke:#000000;stroke-width:9.5903616px;stroke-linecap:butt;stroke-linejoin:miter;stroke-miterlimit:10;stroke-dasharray:none;stroke-opacity:1;" />
  <path
     id="path19"
     d="  M 210.98795,196.60241   L 174.54458,210.02891   L 185.09397,225.37349   L 151.52771,236.88192  "
     style="fill:none;stroke:#000000;stroke-width:9.5903616px;stroke-linecap:butt;stroke-linejoin:miter;stroke-miterlimit:10;stroke-dasharray:none;stroke-opacity:1;" />
  <path
     id="path21"
     d="  M 230.16867,196.60241   L 266.61204,210.02891   L 256.06265,225.37349   L 289.62891,236.88192  "
     style="fill:none;stroke:#000000;stroke-width:9.5903616px;stroke-linecap:butt;stroke-linejoin:miter;stroke-miterlimit:10;stroke-dasharray:none;stroke-opacity:1;" />
  <path
     id="path23"
     d="  M 196.88213,277.44116   L 202.31666,278.7998   C 201.19779,283.2753 199.11988,286.71184 196.16285,289.02951   C 193.20582,291.38714 189.56948,292.58594 185.29377,292.58594   C 180.85823,292.58594 177.22188,291.66686 174.46466,289.86867   C 171.66747,288.07048 169.5496,285.43313 168.11104,281.99658   C 166.63253,278.6 165.91325,274.88373 165.91325,270.96767   C 165.91325,266.69196 166.75241,262.93574 168.39076,259.73895   C 170.02911,256.54216 172.34678,254.10461 175.38373,252.46626   C 178.42068,250.78795 181.73735,249.98875 185.37369,249.98875   C 189.48956,249.98875 192.96606,251.02771 195.76325,253.10562   C 198.56044,255.22349 200.51847,258.18052 201.63735,261.9767   L 196.28273,263.25542   C 195.32369,260.25843 193.9251,258.06064 192.08695,256.702   C 190.28875,255.34337 188.01104,254.62409 185.25381,254.62409   C 182.09699,254.62409 179.45964,255.38333 177.3018,256.9018   C 175.18393,258.42028 173.70542,260.45823 172.8263,263.01566   C 171.98715,265.57309 171.54759,268.21044 171.54759,270.92771   C 171.54759,274.44417 172.06707,277.48112 173.06606,280.11847   C 174.10502,282.71586 175.66345,284.67389 177.82128,285.95261   C 179.97911,287.27128 182.33674,287.91064 184.81425,287.91064   C 187.89116,287.91064 190.44859,287.03152 192.56646,285.27329   C 194.68433,283.51506 196.12289,280.87771 196.88213,277.44116   z "
     style="fill:#000000;fill-rule:evenodd;fill-opacity:1;stroke:none;" />
  <path
     id="path25"
     d="  M 244.03474,291.86666   L 244.03474,250.66807   L 252.26646,250.66807   L 262.01666,279.83875   C 262.89578,282.55602 263.5751,284.59397 263.97469,285.95261   C 264.45421,284.43413 265.17349,282.23634 266.17249,279.31927   L 276.00261,250.66807   L 283.35522,250.66807   L 283.35522,291.86666   L 278.12048,291.86666   L 278.12048,257.38132   L 266.13253,291.86666   L 261.21747,291.86666   L 249.30943,256.82188   L 249.30943,291.86666   z "
     style="fill:#000000;fill-rule:evenodd;fill-opacity:1;stroke:none;" />
</svg>
