<?xml version="1.0" encoding="UTF-8" standalone="no"?>
<svg
   xmlns:dc="http://purl.org/dc/elements/1.1/"
   xmlns:cc="http://creativecommons.org/ns#"
   xmlns:rdf="http://www.w3.org/1999/02/22-rdf-syntax-ns#"
   xmlns:svg="http://www.w3.org/2000/svg"
   xmlns="http://www.w3.org/2000/svg"
   id="svg19"
   height="116.73mm"
   width="116.73mm"
   version="1.0">
  <metadata
     id="metadata23">
    <rdf:RDF>
      <cc:Work
         rdf:about="">
        <dc:format>image/svg+xml</dc:format>
        <dc:type
           rdf:resource="http://purl.org/dc/dcmitype/StillImage" />
      </cc:Work>
    </rdf:RDF>
  </metadata>
  <defs
     id="defs3">
    <pattern
       y="0"
       x="0"
       height="6"
       width="6"
       patternUnits="userSpaceOnUse"
       id="EMFhbasepattern" />
  </defs>
  <path
     id="path5"
     d="  M 220.57831,386.49156   L 220.57831,386.49156   L 386.49156,220.57831   L 220.57831,54.665059   L 54.665059,220.57831   L 220.57831,386.49156   z "
     style="fill:#ff8080;fill-rule:evenodd;fill-opacity:1;stroke:none;" />
  <path
     id="path7"
     d="  M 220.57831,386.49156   L 220.57831,386.49156   L 386.49156,220.57831   L 220.57831,54.665059   L 54.665059,220.57831   L 220.57831,386.49156  "
     style="fill:none;stroke:#000000;stroke-width:9.5903616px;stroke-linecap:butt;stroke-linejoin:miter;stroke-miterlimit:10;stroke-dasharray:none;stroke-opacity:1;" />
  <path
     id="path9"
     d="  M 223.21566,127.07229   L 223.21566,122.23715   L 240.67811,122.19719   L 240.67811,137.50181   C 238.0008,139.61968 235.20361,141.21807 232.36646,142.29699   C 229.52931,143.3759 226.61225,143.93534 223.61526,143.93534   C 219.53935,143.93534 215.90301,143.05622 212.58634,141.33795   C 209.26968,139.57972 206.79217,137.10221 205.07389,133.8255   C 203.39558,130.54879 202.55642,126.87249 202.55642,122.83654   C 202.55642,118.8006 203.39558,115.08434 205.07389,111.60783   C 206.75221,108.13132 209.1498,105.53393 212.30662,103.85562   C 215.46345,102.17731 219.0998,101.33815 223.1757,101.33815   C 226.17269,101.33815 228.85,101.81767 231.24759,102.77671   C 233.68514,103.73574 235.56325,105.09438 236.92188,106.81265   C 238.28052,108.53092 239.31947,110.76867 240.03875,113.56586   L 235.12369,114.88454   C 234.52429,112.80662 233.7251,111.16827 232.80602,109.96948   C 231.88694,108.77068 230.60823,107.81165 228.88996,107.09237   C 227.17168,106.37309 225.29357,105.97349 223.21566,105.97349   C 220.73815,105.97349 218.58032,106.37309 216.74217,107.13233   C 214.94397,107.89156 213.46546,108.89056 212.34658,110.12932   C 211.22771,111.36807 210.38855,112.72671 209.74919,114.20522   C 208.71024,116.76265 208.19076,119.51988 208.19076,122.47691   C 208.19076,126.15321 208.83012,129.23012 210.06887,131.70763   C 211.34759,134.18514 213.18574,136.02329 215.58333,137.22209   C 218.02088,138.42088 220.57831,139.02028 223.29558,139.02028   C 225.65321,139.02028 227.97088,138.54076 230.20863,137.66164   C 232.44638,136.74257 234.16466,135.78353 235.32349,134.74458   L 235.32349,127.07229   z "
     style="fill:#000000;fill-rule:evenodd;fill-opacity:1;stroke:none;" />
  <path
     id="path11"
     d="  M 163.99518,183.1759   C 163.99518,241.39739 195.72329,262.5761 248.67008,257.26144  "
     style="fill:none;stroke:#000000;stroke-width:10.589357px;stroke-linecap:butt;stroke-linejoin:miter;stroke-miterlimit:10;stroke-dasharray:none;stroke-opacity:1;" />
  <path
     id="path13"
     d="  M 169.26988,220.21867   L 169.26988,220.21867   L 227.49136,177.86124   L 227.49136,220.21867   L 285.75281,177.86124  "
     style="fill:none;stroke:#000000;stroke-width:10.589357px;stroke-linecap:butt;stroke-linejoin:miter;stroke-miterlimit:10;stroke-dasharray:none;stroke-opacity:1;" />
  <path
     id="path15"
     d="  M 114.5249,235.28353   L 114.5249,194.08494   L 129.98936,194.08494   C 133.10622,194.08494 135.66365,194.5245 137.54177,195.36365   C 139.45984,196.16285 140.93835,197.48152 142.01727,199.1998   C 143.09618,200.91807 143.61566,202.75622 143.61566,204.63433   C 143.61566,206.39257 143.13614,208.07088 142.21707,209.58935   C 141.25803,211.14779 139.81948,212.4265 137.86144,213.38554   C 140.37891,214.10482 142.29699,215.34357 143.61566,217.1018   C 144.9743,218.86004 145.61365,220.93795 145.61365,223.33554   C 145.61365,225.29357 145.21405,227.0518 144.41486,228.73012   C 143.5757,230.36847 142.5767,231.64719 141.37791,232.56626   C 140.17911,233.44538 138.7006,234.1247 136.86245,234.60421   C 135.06426,235.04377 132.86646,235.28353 130.22911,235.28353   z  M 119.95944,211.38755   L 128.87048,211.38755   C 131.30803,211.38755 133.0263,211.22771 134.06526,210.90803   C 135.46385,210.50843 136.50281,209.82911 137.22209,208.87008   C 137.9014,207.91104 138.26104,206.71225 138.26104,205.27369   C 138.26104,203.91506 137.94136,202.71626 137.26205,201.67731   C 136.62269,200.63835 135.70361,199.91907 134.46486,199.51948   C 133.26606,199.15984 131.14819,198.96004 128.19116,198.96004   L 119.95944,198.96004   z  M 119.95944,230.40843   L 130.22911,230.40843   C 131.98735,230.40843 133.2261,230.36847 133.94538,230.20863   C 135.18413,230.00883 136.22309,229.64919 137.10221,229.08976   C 137.94136,228.57028 138.62068,227.81104 139.18012,226.81204   C 139.6996,225.81305 139.97932,224.65421 139.97932,223.33554   C 139.97932,221.81707 139.57972,220.45843 138.78052,219.33956   C 138.02128,218.22068 136.90241,217.42148 135.54377,216.94196   C 134.14518,216.50241 132.10723,216.26265 129.50984,216.26265   L 119.95944,216.26265   z "
     style="fill:#000000;fill-rule:evenodd;fill-opacity:1;stroke:none;" />
  <path
     id="path17"
     d="  M 290.30823,222.05682   L 295.46305,221.61727   C 295.70281,223.65522 296.26224,225.37349 297.14136,226.69217   C 298.06044,228.01084 299.41907,229.0498 301.29718,229.88895   C 303.1753,230.68815 305.29317,231.08775 307.61084,231.08775   C 309.68875,231.08775 311.5269,230.80803 313.1253,230.16867   C 314.72369,229.56927 315.92249,228.69016 316.68172,227.6512   C 317.48092,226.57229 317.84056,225.37349 317.84056,224.09478   C 317.84056,222.81606 317.48092,221.69719 316.72168,220.73815   C 315.96245,219.73915 314.72369,218.93996 313.00542,218.3006   C 311.9265,217.86104 309.44899,217.18172 305.69277,216.26265   C 301.89658,215.38353 299.25923,214.50441 297.74076,213.70522   C 295.78273,212.66626 294.30421,211.38755 293.34518,209.86907   C 292.38614,208.3506 291.90662,206.63233 291.90662,204.75421   C 291.90662,202.6763 292.46606,200.71827 293.66486,198.92008   C 294.82369,197.12188 296.58192,195.72329 298.81967,194.80421   C 301.09739,193.84518 303.61486,193.40562 306.37208,193.40562   C 309.44899,193.40562 312.1263,193.88514 314.44397,194.88413   C 316.8016,195.84317 318.59979,197.28172 319.83855,199.1998   C 321.11726,201.11787 321.75662,203.2757 321.8765,205.71325   L 316.64176,206.11285   C 316.36204,203.4755 315.40301,201.51747 313.80461,200.19879   C 312.16626,198.88012 309.76867,198.2008 306.61184,198.2008   C 303.29518,198.2008 300.89759,198.8002 299.41907,199.99899   C 297.9006,201.23775 297.14136,202.6763 297.14136,204.39458   C 297.14136,205.87309 297.66084,207.07188 298.73975,208.03092   C 299.77871,208.98996 302.53594,209.98895 306.97148,210.98795   C 311.40702,211.98694 314.44397,212.86606 316.08232,213.58534   C 318.47992,214.70421 320.23815,216.10281 321.39698,217.78112   C 322.51586,219.49939 323.11526,221.45743 323.11526,223.65522   C 323.11526,225.85301 322.4759,227.93092 321.23714,229.84899   C 319.95843,231.80702 318.16024,233.28554 315.80261,234.36445   C 313.44498,235.44337 310.80763,236.00281 307.89056,236.00281   C 304.13433,236.00281 301.01747,235.44337 298.5,234.36445   C 295.98253,233.28554 294.02449,231.64719 292.58594,229.44939   C 291.14739,227.29156 290.38815,224.81405 290.30823,222.05682   z "
     style="fill:#000000;fill-rule:evenodd;fill-opacity:1;stroke:none;" />
</svg>
