<?xml version="1.0" encoding="UTF-8" standalone="no"?>
<svg
   xmlns:dc="http://purl.org/dc/elements/1.1/"
   xmlns:cc="http://creativecommons.org/ns#"
   xmlns:rdf="http://www.w3.org/1999/02/22-rdf-syntax-ns#"
   xmlns:svg="http://www.w3.org/2000/svg"
   xmlns="http://www.w3.org/2000/svg"
   id="svg19"
   height="95.75mm"
   width="95.75mm"
   version="1.0">
  <metadata
     id="metadata23">
    <rdf:RDF>
      <cc:Work
         rdf:about="">
        <dc:format>image/svg+xml</dc:format>
        <dc:type
           rdf:resource="http://purl.org/dc/dcmitype/StillImage" />
      </cc:Work>
    </rdf:RDF>
  </metadata>
  <defs
     id="defs3">
    <pattern
       y="0"
       x="0"
       height="6"
       width="6"
       patternUnits="userSpaceOnUse"
       id="EMFhbasepattern" />
  </defs>
  <path
     id="path5"
     d="  M 54.345381,54.345381   L 54.345381,307.53092   L 307.53092,307.53092   L 307.53092,54.345381   L 54.345381,54.345381   z "
     style="fill:#aaffaa;fill-rule:evenodd;fill-opacity:1;stroke:none;" />
  <path
     id="path7"
     d="  M 54.345381,54.345381   L 307.53092,54.345381   L 307.53092,307.53092   L 54.345381,307.53092   z "
     style="fill:none;stroke:#000000;stroke-width:9.5903616px;stroke-linecap:butt;stroke-linejoin:miter;stroke-miterlimit:10;stroke-dasharray:none;stroke-opacity:1;" />
  <path
     id="path9"
     d="  M 183.5755,87.432127   L 183.5755,82.596987   L 201.03795,82.557027   L 201.03795,97.861645   C 198.36064,99.979517 195.56345,101.57791 192.7263,102.65683   C 189.88915,103.73574 186.97209,104.29518 183.9751,104.29518   C 179.89919,104.29518 176.26285,103.41606 172.94618,101.69779   C 169.62952,99.939557 167.15201,97.462047 165.43373,94.18534   C 163.75542,90.908633 162.91626,87.232328 162.91626,83.196384   C 162.91626,79.160441 163.75542,75.444176 165.43373,71.96767   C 167.11205,68.491164 169.50964,65.893774 172.66646,64.215461   C 175.82329,62.537148 179.45964,61.697991 183.53554,61.697991   C 186.53253,61.697991 189.20984,62.177509 191.60743,63.136545   C 194.04498,64.095581 195.92309,65.454216 197.28172,67.172489   C 198.64036,68.890762 199.67931,71.128513 200.39859,73.925702   L 195.48353,75.244376   C 194.88413,73.166465 194.08494,71.528111 193.16586,70.329316   C 192.24678,69.130521 190.96807,68.171485 189.2498,67.452208   C 187.53152,66.732931 185.65341,66.333332 183.5755,66.333332   C 181.09799,66.333332 178.94016,66.732931 177.10201,67.492168   C 175.30381,68.251405 173.8253,69.250401 172.70642,70.489156   C 171.58755,71.727911 170.74839,73.086545 170.10903,74.565059   C 169.07008,77.122489 168.5506,79.879718 168.5506,82.836746   C 168.5506,86.513051 169.18996,89.589959 170.42871,92.067469   C 171.70743,94.544979 173.54558,96.383131 175.94317,97.581926   C 178.38072,98.780721 180.93815,99.380119 183.65542,99.380119   C 186.01305,99.380119 188.33072,98.900601 190.56847,98.021485   C 192.80622,97.102408 194.5245,96.143372 195.68333,95.104416   L 195.68333,87.432127   z "
     style="fill:#000000;fill-rule:evenodd;fill-opacity:1;stroke:none;" />
  <path
     id="path11"
     d="  M 124.35502,143.53574   C 124.35502,201.75723 156.08313,222.93594 209.02992,217.62128  "
     style="fill:none;stroke:#000000;stroke-width:10.589357px;stroke-linecap:butt;stroke-linejoin:miter;stroke-miterlimit:10;stroke-dasharray:none;stroke-opacity:1;" />
  <path
     id="path13"
     d="  M 129.62972,180.57851   L 129.62972,180.57851   L 187.8512,138.22108   L 187.8512,180.57851   L 246.11265,138.22108  "
     style="fill:none;stroke:#000000;stroke-width:10.589357px;stroke-linecap:butt;stroke-linejoin:miter;stroke-miterlimit:10;stroke-dasharray:none;stroke-opacity:1;" />
  <path
     id="path15"
     d="  M 111.72771,154.44478   L 117.16225,154.44478   L 117.16225,178.26084   C 117.16225,182.3767 116.72269,185.69337 115.76365,188.13092   C 114.84458,190.56847 113.1263,192.5265 110.68875,194.04498   C 108.2512,195.60341 105.05442,196.36265 101.05843,196.36265   C 97.222288,196.36265 94.06546,195.68333 91.62791,194.36466   C 89.1504,193.00602 87.392167,191.08795 86.353212,188.57048   C 85.314256,186.05301 84.794778,182.61646 84.794778,178.26084   L 84.794778,154.44478   L 90.229316,154.44478   L 90.229316,178.22088   C 90.229316,181.81727 90.548995,184.45462 91.228312,186.13293   C 91.907629,187.8512 93.026505,189.12992 94.664858,190.04899   C 96.263252,190.96807 98.261244,191.44759 100.61887,191.44759   C 104.61486,191.44759 107.45201,190.52851 109.17028,188.69036   C 110.88855,186.89217 111.72771,183.41566 111.72771,178.22088   z "
     style="fill:#000000;fill-rule:evenodd;fill-opacity:1;stroke:none;" />
  <path
     id="path17"
     d="  M 247.67108,195.64337   L 247.67108,154.44478   L 253.26546,154.44478   L 274.88373,186.81225   L 274.88373,154.44478   L 280.11847,154.44478   L 280.11847,195.64337   L 274.52409,195.64337   L 252.90582,163.2759   L 252.90582,195.64337   z "
     style="fill:#000000;fill-rule:evenodd;fill-opacity:1;stroke:none;" />
</svg>
