<?xml version="1.0" encoding="UTF-8" standalone="no"?>
<svg
   xmlns:dc="http://purl.org/dc/elements/1.1/"
   xmlns:cc="http://creativecommons.org/ns#"
   xmlns:rdf="http://www.w3.org/1999/02/22-rdf-syntax-ns#"
   xmlns:svg="http://www.w3.org/2000/svg"
   xmlns="http://www.w3.org/2000/svg"
   id="svg15"
   height="95.75mm"
   width="95.75mm"
   version="1.0">
  <metadata
     id="metadata19">
    <rdf:RDF>
      <cc:Work
         rdf:about="">
        <dc:format>image/svg+xml</dc:format>
        <dc:type
           rdf:resource="http://purl.org/dc/dcmitype/StillImage" />
      </cc:Work>
    </rdf:RDF>
  </metadata>
  <defs
     id="defs3">
    <pattern
       y="0"
       x="0"
       height="6"
       width="6"
       patternUnits="userSpaceOnUse"
       id="EMFhbasepattern" />
  </defs>
  <path
     id="path5"
     d="  M 54.345381,54.345381   L 54.345381,307.53092   L 307.53092,307.53092   L 307.53092,54.345381   L 54.345381,54.345381   z "
     style="fill:#aaffaa;fill-rule:evenodd;fill-opacity:1;stroke:none;" />
  <path
     id="path7"
     d="  M 54.345381,54.345381   L 307.53092,54.345381   L 307.53092,307.53092   L 54.345381,307.53092   z "
     style="fill:none;stroke:#000000;stroke-width:9.5903616px;stroke-linecap:butt;stroke-linejoin:miter;stroke-miterlimit:10;stroke-dasharray:none;stroke-opacity:1;" />
  <path
     id="path9"
     d="  M 180.93815,180.93815   L 180.93815,180.93815   L 94.624898,132.98634   L 94.624898,228.88996   L 180.93815,180.93815   L 267.2514,132.98634   L 267.2514,228.88996   L 180.93815,180.93815   z "
     style="fill:#000000;fill-rule:evenodd;fill-opacity:1;stroke:none;" />
  <path
     id="path11"
     d="  M 200.15883,69.889758   L 206.95201,69.889758   L 206.95201,99.659838   C 206.95201,104.81466 206.39257,108.93052 205.19377,111.96747   C 204.03494,115.04438 201.91707,117.52189 198.88012,119.4   C 195.80321,121.31807 191.80723,122.27711 186.85221,122.27711   C 182.01707,122.27711 178.06104,121.43795 175.02409,119.7996   C 171.94719,118.12128 169.7494,115.72369 168.43072,112.56687   C 167.11205,109.41004 166.47269,105.09438 166.47269,99.659838   L 166.47269,69.889758   L 173.26586,69.889758   L 173.26586,99.619878   C 173.26586,104.09538 173.70542,107.37209 174.54458,109.52992   C 175.38373,111.64779 176.78233,113.24618 178.82028,114.40502   C 180.85823,115.56385 183.33574,116.12329 186.25281,116.12329   C 191.24779,116.12329 194.84417,115.00442 196.96205,112.72671   C 199.07992,110.44899 200.15883,106.09337 200.15883,99.619878   z "
     style="fill:#000000;fill-rule:evenodd;fill-opacity:1;stroke:none;" />
  <path
     id="path13"
     d="  M 164.4747,277.68092   L 164.4747,233.04578   L 173.38574,233.04578   L 183.93514,264.65401   C 184.89417,267.57108 185.61345,269.76887 186.05301,271.24739   C 186.57249,269.60903 187.37168,267.2514 188.4506,264.09457   L 199.11988,233.04578   L 207.07188,233.04578   L 207.07188,277.68092   L 201.35763,277.68092   L 201.35763,240.31847   L 188.41064,277.68092   L 183.09598,277.68092   L 170.18895,239.67911   L 170.18895,277.68092   z "
     style="fill:#000000;fill-rule:evenodd;fill-opacity:1;stroke:none;" />
</svg>
