<?xml version="1.0" encoding="UTF-8" standalone="no"?>
<svg
   xmlns:dc="http://purl.org/dc/elements/1.1/"
   xmlns:cc="http://creativecommons.org/ns#"
   xmlns:rdf="http://www.w3.org/1999/02/22-rdf-syntax-ns#"
   xmlns:svg="http://www.w3.org/2000/svg"
   xmlns="http://www.w3.org/2000/svg"
   id="svg19"
   height="95.75mm"
   width="95.75mm"
   version="1.0">
  <metadata
     id="metadata23">
    <rdf:RDF>
      <cc:Work
         rdf:about="">
        <dc:format>image/svg+xml</dc:format>
        <dc:type
           rdf:resource="http://purl.org/dc/dcmitype/StillImage" />
      </cc:Work>
    </rdf:RDF>
  </metadata>
  <defs
     id="defs3">
    <pattern
       y="0"
       x="0"
       height="6"
       width="6"
       patternUnits="userSpaceOnUse"
       id="EMFhbasepattern" />
  </defs>
  <path
     id="path5"
     d="  M 54.345381,54.345381   L 54.345381,307.53092   L 307.53092,307.53092   L 307.53092,54.345381   L 54.345381,54.345381   z "
     style="fill:#aaffaa;fill-rule:evenodd;fill-opacity:1;stroke:none;" />
  <path
     id="path7"
     d="  M 54.345381,54.345381   L 307.53092,54.345381   L 307.53092,307.53092   L 54.345381,307.53092   z "
     style="fill:none;stroke:#000000;stroke-width:9.5903616px;stroke-linecap:butt;stroke-linejoin:miter;stroke-miterlimit:10;stroke-dasharray:none;stroke-opacity:1;" />
  <path
     id="path9"
     d="  M 183.5755,87.432127   L 183.5755,82.596987   L 201.03795,82.557027   L 201.03795,97.861645   C 198.36064,99.979517 195.56345,101.57791 192.7263,102.65683   C 189.88915,103.73574 186.97209,104.29518 183.9751,104.29518   C 179.89919,104.29518 176.26285,103.41606 172.94618,101.69779   C 169.62952,99.939557 167.15201,97.462047 165.43373,94.18534   C 163.75542,90.908633 162.91626,87.232328 162.91626,83.196384   C 162.91626,79.160441 163.75542,75.444176 165.43373,71.96767   C 167.11205,68.491164 169.50964,65.893774 172.66646,64.215461   C 175.82329,62.537148 179.45964,61.697991 183.53554,61.697991   C 186.53253,61.697991 189.20984,62.177509 191.60743,63.136545   C 194.04498,64.095581 195.92309,65.454216 197.28172,67.172489   C 198.64036,68.890762 199.67931,71.128513 200.39859,73.925702   L 195.48353,75.244376   C 194.88413,73.166465 194.08494,71.528111 193.16586,70.329316   C 192.24678,69.130521 190.96807,68.171485 189.2498,67.452208   C 187.53152,66.732931 185.65341,66.333332 183.5755,66.333332   C 181.09799,66.333332 178.94016,66.732931 177.10201,67.492168   C 175.30381,68.251405 173.8253,69.250401 172.70642,70.489156   C 171.58755,71.727911 170.74839,73.086545 170.10903,74.565059   C 169.07008,77.122489 168.5506,79.879718 168.5506,82.836746   C 168.5506,86.513051 169.18996,89.589959 170.42871,92.067469   C 171.70743,94.544979 173.54558,96.383131 175.94317,97.581926   C 178.38072,98.780721 180.93815,99.380119 183.65542,99.380119   C 186.01305,99.380119 188.33072,98.900601 190.56847,98.021485   C 192.80622,97.102408 194.5245,96.143372 195.68333,95.104416   L 195.68333,87.432127   z "
     style="fill:#000000;fill-rule:evenodd;fill-opacity:1;stroke:none;" />
  <path
     id="path11"
     d="  M 124.35502,143.53574   C 124.35502,201.75723 156.08313,222.93594 209.02992,217.62128  "
     style="fill:none;stroke:#000000;stroke-width:10.589357px;stroke-linecap:butt;stroke-linejoin:miter;stroke-miterlimit:10;stroke-dasharray:none;stroke-opacity:1;" />
  <path
     id="path13"
     d="  M 129.62972,180.57851   L 129.62972,180.57851   L 187.8512,138.22108   L 187.8512,180.57851   L 246.11265,138.22108  "
     style="fill:none;stroke:#000000;stroke-width:10.589357px;stroke-linecap:butt;stroke-linejoin:miter;stroke-miterlimit:10;stroke-dasharray:none;stroke-opacity:1;" />
  <path
     id="path15"
     d="  M 104.49498,181.21787   L 109.92952,182.5765   C 108.81064,187.05201 106.73273,190.48855 103.7757,192.80622   C 100.81867,195.16385 97.182328,196.36265 92.906625,196.36265   C 88.471083,196.36265 84.834738,195.44357 82.077509,193.64538   C 79.28032,191.84719 77.162449,189.20984 75.723894,185.77329   C 74.24538,182.3767 73.526103,178.66044 73.526103,174.74437   C 73.526103,170.46867 74.36526,166.71245 76.003613,163.51566   C 77.641967,160.31887 79.959637,157.88132 82.996585,156.24297   C 86.033533,154.56466 89.3502,153.76546 92.986545,153.76546   C 97.102408,153.76546 100.57891,154.80442 103.3761,156.88233   C 106.17329,159.0002 108.13132,161.95723 109.2502,165.75341   L 103.89558,167.03213   C 102.93654,164.03514 101.53795,161.83735 99.699798,160.47871   C 97.901605,159.12008 95.623894,158.4008 92.866665,158.4008   C 89.709838,158.4008 87.072489,159.16004 84.914657,160.67851   C 82.796786,162.19699 81.318272,164.23494 80.439155,166.79237   C 79.599999,169.3498 79.160441,171.98715 79.160441,174.70442   C 79.160441,178.22088 79.679919,181.25783 80.678914,183.89518   C 81.71787,186.49257 83.276304,188.4506 85.434135,189.72931   C 87.591967,191.04799 89.949597,191.68735 92.427107,191.68735   C 95.504015,191.68735 98.061444,190.80823 100.17932,189.05   C 102.29719,187.29176 103.73574,184.65442 104.49498,181.21787   z "
     style="fill:#000000;fill-rule:evenodd;fill-opacity:1;stroke:none;" />
  <path
     id="path17"
     d="  M 250.66807,182.41666   L 255.82289,181.97711   C 256.06265,184.01506 256.62208,185.73333 257.5012,187.05201   C 258.42028,188.37068 259.77891,189.40964 261.65702,190.24879   C 263.53514,191.04799 265.65301,191.44759 267.97068,191.44759   C 270.04859,191.44759 271.88674,191.16787 273.48514,190.52851   C 275.08353,189.92911 276.28233,189.05 277.04156,188.01104   C 277.84076,186.93213 278.2004,185.73333 278.2004,184.45462   C 278.2004,183.1759 277.84076,182.05703 277.08152,181.09799   C 276.32229,180.09899 275.08353,179.2998 273.36526,178.66044   C 272.28634,178.22088 269.80883,177.54156 266.05261,176.62249   C 262.25642,175.74337 259.61907,174.86425 258.1006,174.06506   C 256.14257,173.0261 254.66405,171.74739 253.70502,170.22891   C 252.74598,168.71044 252.26646,166.99217 252.26646,165.11405   C 252.26646,163.03614 252.8259,161.07811 254.0247,159.27992   C 255.18353,157.48172 256.94176,156.08313 259.17951,155.16405   C 261.45723,154.20502 263.97469,153.76546 266.73192,153.76546   C 269.80883,153.76546 272.48614,154.24498 274.80381,155.24397   C 277.16144,156.20301 278.95963,157.64156 280.19839,159.55964   C 281.4771,161.47771 282.11646,163.63554 282.23634,166.07309   L 277.0016,166.47269   C 276.72188,163.83534 275.76285,161.87731 274.16445,160.55863   C 272.5261,159.23996 270.12851,158.56064 266.97168,158.56064   C 263.65502,158.56064 261.25743,159.16004 259.77891,160.35883   C 258.26044,161.59759 257.5012,163.03614 257.5012,164.75442   C 257.5012,166.23293 258.02068,167.43172 259.09959,168.39076   C 260.13855,169.3498 262.89578,170.34879 267.33132,171.34779   C 271.76686,172.34678 274.80381,173.2259 276.44216,173.94518   C 278.83976,175.06405 280.59799,176.46265 281.75682,178.14096   C 282.8757,179.85923 283.4751,181.81727 283.4751,184.01506   C 283.4751,186.21285 282.83574,188.29076 281.59698,190.20883   C 280.31827,192.16686 278.52008,193.64538 276.16245,194.72429   C 273.80482,195.80321 271.16747,196.36265 268.2504,196.36265   C 264.49417,196.36265 261.37731,195.80321 258.85984,194.72429   C 256.34237,193.64538 254.38433,192.00703 252.94578,189.80923   C 251.50723,187.6514 250.74799,185.17389 250.66807,182.41666   z "
     style="fill:#000000;fill-rule:evenodd;fill-opacity:1;stroke:none;" />
</svg>
