<?xml version="1.0" encoding="UTF-8" standalone="no"?>
<svg
   xmlns:dc="http://purl.org/dc/elements/1.1/"
   xmlns:cc="http://creativecommons.org/ns#"
   xmlns:rdf="http://www.w3.org/1999/02/22-rdf-syntax-ns#"
   xmlns:svg="http://www.w3.org/2000/svg"
   xmlns="http://www.w3.org/2000/svg"
   id="svg19"
   height="101.85mm"
   width="101.85mm"
   version="1.0">
  <metadata
     id="metadata23">
    <rdf:RDF>
      <cc:Work
         rdf:about="">
        <dc:format>image/svg+xml</dc:format>
        <dc:type
           rdf:resource="http://purl.org/dc/dcmitype/StillImage" />
      </cc:Work>
    </rdf:RDF>
  </metadata>
  <defs
     id="defs3">
    <pattern
       y="0"
       x="0"
       height="6"
       width="6"
       patternUnits="userSpaceOnUse"
       id="EMFhbasepattern" />
  </defs>
  <path
     id="path5"
     d="  M 330.54779,192.44658   C 330.54779,268.72992 268.72992,330.54779 192.44658,330.54779   C 116.20321,330.54779 54.345381,268.72992 54.345381,192.44658   C 54.345381,116.20321 116.20321,54.345381 192.44658,54.345381   C 268.72992,54.345381 330.54779,116.20321 330.54779,192.44658   z "
     style="fill:#80e0ff;fill-rule:evenodd;fill-opacity:1;stroke:none;" />
  <path
     id="path7"
     d="  M 330.54779,192.44658   C 330.54779,268.72992 268.72992,330.54779 192.44658,330.54779   C 116.20321,330.54779 54.345381,268.72992 54.345381,192.44658   C 54.345381,116.20321 116.20321,54.345381 192.44658,54.345381   C 268.72992,54.345381 330.54779,116.20321 330.54779,192.44658  "
     style="fill:none;stroke:#000000;stroke-width:9.5903616px;stroke-linecap:butt;stroke-linejoin:miter;stroke-miterlimit:10;stroke-dasharray:none;stroke-opacity:1;" />
  <path
     id="path9"
     d="  M 195.08393,98.940561   L 195.08393,94.10542   L 212.54638,94.06546   L 212.54638,109.37008   C 209.86907,111.48795 207.07188,113.08634 204.23474,114.16526   C 201.39759,115.24418 198.48052,115.80361 195.48353,115.80361   C 191.40763,115.80361 187.77128,114.9245 184.45462,113.20622   C 181.13795,111.44799 178.66044,108.97048 176.94217,105.69377   C 175.26385,102.41707 174.4247,98.740762 174.4247,94.704818   C 174.4247,90.668874 175.26385,86.952609 176.94217,83.476103   C 178.62048,79.999597 181.01807,77.402208 184.1749,75.723894   C 187.33172,74.045581 190.96807,73.206425 195.04397,73.206425   C 198.04096,73.206425 200.71827,73.685943 203.11586,74.644979   C 205.55341,75.604015 207.43152,76.962649 208.79016,78.680923   C 210.14879,80.399196 211.18775,82.636947 211.90703,85.434135   L 206.99196,86.75281   C 206.39257,84.674898 205.59337,83.036545 204.67429,81.83775   C 203.75522,80.638955 202.4765,79.679919 200.75823,78.960641   C 199.03996,78.241364 197.16184,77.841766 195.08393,77.841766   C 192.60642,77.841766 190.44859,78.241364 188.61044,79.000601   C 186.81225,79.759838 185.33373,80.758834 184.21486,81.997589   C 183.09598,83.236344 182.25682,84.594979 181.61747,86.073493   C 180.57851,88.630922 180.05903,91.388151 180.05903,94.345179   C 180.05903,98.021485 180.69839,101.09839 181.93715,103.5759   C 183.21586,106.05341 185.05401,107.89156 187.4516,109.09036   C 189.88915,110.28916 192.44658,110.88855 195.16385,110.88855   C 197.52148,110.88855 199.83915,110.40903 202.0769,109.52992   C 204.31466,108.61084 206.03293,107.65181 207.19176,106.61285   L 207.19176,98.940561   z "
     style="fill:#000000;fill-rule:evenodd;fill-opacity:1;stroke:none;" />
  <path
     id="path11"
     d="  M 135.86345,155.04417   C 135.86345,213.26566 167.59156,234.44437 220.53835,229.12972  "
     style="fill:none;stroke:#000000;stroke-width:10.589357px;stroke-linecap:butt;stroke-linejoin:miter;stroke-miterlimit:10;stroke-dasharray:none;stroke-opacity:1;" />
  <path
     id="path13"
     d="  M 141.13815,192.08695   L 141.13815,192.08695   L 199.35964,149.72952   L 199.35964,192.08695   L 257.62108,149.72952  "
     style="fill:none;stroke:#000000;stroke-width:10.589357px;stroke-linecap:butt;stroke-linejoin:miter;stroke-miterlimit:10;stroke-dasharray:none;stroke-opacity:1;" />
  <path
     id="path15"
     d="  M 84.754818,193.9251   L 89.909637,193.48554   C 90.149396,195.52349 90.708834,197.24176 91.58795,198.56044   C 92.507027,199.87911 93.865661,200.91807 95.743774,201.75723   C 97.621886,202.55642 99.739758,202.95602 102.05743,202.95602   C 104.13534,202.95602 105.97349,202.6763 107.57189,202.03694   C 109.17028,201.43755 110.36907,200.55843 111.12831,199.51948   C 111.92751,198.44056 112.28715,197.24176 112.28715,195.96305   C 112.28715,194.68433 111.92751,193.56546 111.16827,192.60642   C 110.40903,191.60743 109.17028,190.80823 107.45201,190.16887   C 106.37309,189.72931 103.89558,189.05 100.13936,188.13092   C 96.343171,187.2518 93.705822,186.37269 92.187348,185.57349   C 90.229316,184.53454 88.750802,183.25582 87.791766,181.73735   C 86.83273,180.21887 86.353212,178.5006 86.353212,176.62249   C 86.353212,174.54458 86.912649,172.58654 88.111445,170.78835   C 89.27028,168.99016 91.028513,167.59156 93.266264,166.67249   C 95.543975,165.71345 98.061444,165.27389 100.81867,165.27389   C 103.89558,165.27389 106.57289,165.75341 108.89056,166.75241   C 111.24819,167.71144 113.04638,169.15 114.28514,171.06807   C 115.56385,172.98614 116.20321,175.14397 116.32309,177.58152   L 111.08835,177.98112   C 110.80863,175.34377 109.8496,173.38574 108.2512,172.06707   C 106.61285,170.74839 104.21526,170.06907 101.05843,170.06907   C 97.741766,170.06907 95.344175,170.66847 93.865661,171.86727   C 92.347187,173.10602 91.58795,174.54458 91.58795,176.26285   C 91.58795,177.74136 92.107428,178.94016 93.186344,179.89919   C 94.2253,180.85823 96.982529,181.85723 101.41807,182.85622   C 105.85361,183.85522 108.89056,184.73433 110.52891,185.45361   C 112.9265,186.57249 114.68474,187.97108 115.84357,189.64939   C 116.96245,191.36767 117.56185,193.3257 117.56185,195.52349   C 117.56185,197.72128 116.92249,199.79919 115.68373,201.71727   C 114.40502,203.6753 112.60683,205.15381 110.2492,206.23273   C 107.89156,207.31164 105.25422,207.87108 102.33715,207.87108   C 98.580922,207.87108 95.464055,207.31164 92.946585,206.23273   C 90.429115,205.15381 88.471083,203.51546 87.032529,201.31767   C 85.593975,199.15984 84.834738,196.68233 84.754818,193.9251   z "
     style="fill:#000000;fill-rule:evenodd;fill-opacity:1;stroke:none;" />
  <path
     id="path17"
     d="  M 274.52409,207.1518   L 274.52409,170.82831   L 260.93775,170.82831   L 260.93775,165.95321   L 293.58494,165.95321   L 293.58494,170.82831   L 279.95863,170.82831   L 279.95863,207.1518   z "
     style="fill:#000000;fill-rule:evenodd;fill-opacity:1;stroke:none;" />
</svg>
