<?xml version="1.0" encoding="UTF-8" standalone="no"?>
<svg
   xmlns:dc="http://purl.org/dc/elements/1.1/"
   xmlns:cc="http://creativecommons.org/ns#"
   xmlns:rdf="http://www.w3.org/1999/02/22-rdf-syntax-ns#"
   xmlns:svg="http://www.w3.org/2000/svg"
   xmlns="http://www.w3.org/2000/svg"
   id="svg19"
   height="101.85mm"
   width="101.85mm"
   version="1.0">
  <metadata
     id="metadata23">
    <rdf:RDF>
      <cc:Work
         rdf:about="">
        <dc:format>image/svg+xml</dc:format>
        <dc:type
           rdf:resource="http://purl.org/dc/dcmitype/StillImage" />
      </cc:Work>
    </rdf:RDF>
  </metadata>
  <defs
     id="defs3">
    <pattern
       y="0"
       x="0"
       height="6"
       width="6"
       patternUnits="userSpaceOnUse"
       id="EMFhbasepattern" />
  </defs>
  <path
     id="path5"
     d="  M 330.54779,192.44658   C 330.54779,268.72992 268.72992,330.54779 192.44658,330.54779   C 116.20321,330.54779 54.345381,268.72992 54.345381,192.44658   C 54.345381,116.20321 116.20321,54.345381 192.44658,54.345381   C 268.72992,54.345381 330.54779,116.20321 330.54779,192.44658   z "
     style="fill:#80e0ff;fill-rule:evenodd;fill-opacity:1;stroke:none;" />
  <path
     id="path7"
     d="  M 330.54779,192.44658   C 330.54779,268.72992 268.72992,330.54779 192.44658,330.54779   C 116.20321,330.54779 54.345381,268.72992 54.345381,192.44658   C 54.345381,116.20321 116.20321,54.345381 192.44658,54.345381   C 268.72992,54.345381 330.54779,116.20321 330.54779,192.44658  "
     style="fill:none;stroke:#000000;stroke-width:9.5903616px;stroke-linecap:butt;stroke-linejoin:miter;stroke-miterlimit:10;stroke-dasharray:none;stroke-opacity:1;" />
  <path
     id="path9"
     d="  M 195.08393,98.940561   L 195.08393,94.10542   L 212.54638,94.06546   L 212.54638,109.37008   C 209.86907,111.48795 207.07188,113.08634 204.23474,114.16526   C 201.39759,115.24418 198.48052,115.80361 195.48353,115.80361   C 191.40763,115.80361 187.77128,114.9245 184.45462,113.20622   C 181.13795,111.44799 178.66044,108.97048 176.94217,105.69377   C 175.26385,102.41707 174.4247,98.740762 174.4247,94.704818   C 174.4247,90.668874 175.26385,86.952609 176.94217,83.476103   C 178.62048,79.999597 181.01807,77.402208 184.1749,75.723894   C 187.33172,74.045581 190.96807,73.206425 195.04397,73.206425   C 198.04096,73.206425 200.71827,73.685943 203.11586,74.644979   C 205.55341,75.604015 207.43152,76.962649 208.79016,78.680923   C 210.14879,80.399196 211.18775,82.636947 211.90703,85.434135   L 206.99196,86.75281   C 206.39257,84.674898 205.59337,83.036545 204.67429,81.83775   C 203.75522,80.638955 202.4765,79.679919 200.75823,78.960641   C 199.03996,78.241364 197.16184,77.841766 195.08393,77.841766   C 192.60642,77.841766 190.44859,78.241364 188.61044,79.000601   C 186.81225,79.759838 185.33373,80.758834 184.21486,81.997589   C 183.09598,83.236344 182.25682,84.594979 181.61747,86.073493   C 180.57851,88.630922 180.05903,91.388151 180.05903,94.345179   C 180.05903,98.021485 180.69839,101.09839 181.93715,103.5759   C 183.21586,106.05341 185.05401,107.89156 187.4516,109.09036   C 189.88915,110.28916 192.44658,110.88855 195.16385,110.88855   C 197.52148,110.88855 199.83915,110.40903 202.0769,109.52992   C 204.31466,108.61084 206.03293,107.65181 207.19176,106.61285   L 207.19176,98.940561   z "
     style="fill:#000000;fill-rule:evenodd;fill-opacity:1;stroke:none;" />
  <path
     id="path11"
     d="  M 135.86345,155.04417   C 135.86345,213.26566 167.59156,234.44437 220.53835,229.12972  "
     style="fill:none;stroke:#000000;stroke-width:10.589357px;stroke-linecap:butt;stroke-linejoin:miter;stroke-miterlimit:10;stroke-dasharray:none;stroke-opacity:1;" />
  <path
     id="path13"
     d="  M 141.13815,192.08695   L 141.13815,192.08695   L 199.35964,149.72952   L 199.35964,192.08695   L 257.62108,149.72952  "
     style="fill:none;stroke:#000000;stroke-width:10.589357px;stroke-linecap:butt;stroke-linejoin:miter;stroke-miterlimit:10;stroke-dasharray:none;stroke-opacity:1;" />
  <path
     id="path15"
     d="  M 116.00341,192.7263   L 121.43795,194.08494   C 120.31907,198.56044 118.24116,201.99699 115.28413,204.31466   C 112.32711,206.67229 108.69076,207.87108 104.41506,207.87108   C 99.979517,207.87108 96.343171,206.95201 93.585942,205.15381   C 90.788754,203.35562 88.670882,200.71827 87.232328,197.28172   C 85.753814,193.88514 85.034537,190.16887 85.034537,186.25281   C 85.034537,181.97711 85.873694,178.22088 87.512047,175.02409   C 89.1504,171.82731 91.468071,169.38976 94.505019,167.7514   C 97.541966,166.07309 100.85863,165.27389 104.49498,165.27389   C 108.61084,165.27389 112.08735,166.31285 114.88454,168.39076   C 117.68173,170.50863 119.63976,173.46566 120.75863,177.26184   L 115.40401,178.54056   C 114.44498,175.54357 113.04638,173.34578 111.20823,171.98715   C 109.41004,170.62851 107.13233,169.90923 104.3751,169.90923   C 101.21827,169.90923 98.580922,170.66847 96.423091,172.18695   C 94.30522,173.70542 92.826705,175.74337 91.947589,178.3008   C 91.108432,180.85823 90.668874,183.49558 90.668874,186.21285   C 90.668874,189.72931 91.188352,192.76626 92.187348,195.40361   C 93.226304,198.001 94.784738,199.95903 96.942569,201.23775   C 99.1004,202.55642 101.45803,203.19578 103.93554,203.19578   C 107.01245,203.19578 109.56988,202.31666 111.68775,200.55843   C 113.80562,198.8002 115.24418,196.16285 116.00341,192.7263   z "
     style="fill:#000000;fill-rule:evenodd;fill-opacity:1;stroke:none;" />
  <path
     id="path17"
     d="  M 262.1765,193.9251   L 267.33132,193.48554   C 267.57108,195.52349 268.13052,197.24176 269.00963,198.56044   C 269.92871,199.87911 271.28735,200.91807 273.16546,201.75723   C 275.04357,202.55642 277.16144,202.95602 279.47911,202.95602   C 281.55702,202.95602 283.39518,202.6763 284.99357,202.03694   C 286.59196,201.43755 287.79076,200.55843 288.55,199.51948   C 289.34919,198.44056 289.70883,197.24176 289.70883,195.96305   C 289.70883,194.68433 289.34919,193.56546 288.58996,192.60642   C 287.83072,191.60743 286.59196,190.80823 284.87369,190.16887   C 283.79478,189.72931 281.31727,189.05 277.56104,188.13092   C 273.76486,187.2518 271.12751,186.37269 269.60903,185.57349   C 267.651,184.53454 266.17249,183.25582 265.21345,181.73735   C 264.25441,180.21887 263.7749,178.5006 263.7749,176.62249   C 263.7749,174.54458 264.33433,172.58654 265.53313,170.78835   C 266.69196,168.99016 268.4502,167.59156 270.68795,166.67249   C 272.96566,165.71345 275.48313,165.27389 278.24036,165.27389   C 281.31727,165.27389 283.99457,165.75341 286.31224,166.75241   C 288.66988,167.71144 290.46807,169.15 291.70682,171.06807   C 292.98554,172.98614 293.6249,175.14397 293.74477,177.58152   L 288.51004,177.98112   C 288.23032,175.34377 287.27128,173.38574 285.67289,172.06707   C 284.03453,170.74839 281.63694,170.06907 278.48012,170.06907   C 275.16345,170.06907 272.76586,170.66847 271.28735,171.86727   C 269.76887,173.10602 269.00963,174.54458 269.00963,176.26285   C 269.00963,177.74136 269.52911,178.94016 270.60803,179.89919   C 271.64698,180.85823 274.40421,181.85723 278.83976,182.85622   C 283.2753,183.85522 286.31224,184.73433 287.9506,185.45361   C 290.34819,186.57249 292.10642,187.97108 293.26526,189.64939   C 294.38413,191.36767 294.98353,193.3257 294.98353,195.52349   C 294.98353,197.72128 294.34417,199.79919 293.10542,201.71727   C 291.8267,203.6753 290.02851,205.15381 287.67088,206.23273   C 285.31325,207.31164 282.6759,207.87108 279.75883,207.87108   C 276.00261,207.87108 272.88574,207.31164 270.36827,206.23273   C 267.8508,205.15381 265.89277,203.51546 264.45421,201.31767   C 263.01566,199.15984 262.25642,196.68233 262.1765,193.9251   z "
     style="fill:#000000;fill-rule:evenodd;fill-opacity:1;stroke:none;" />
</svg>
