<?xml version="1.0" encoding="UTF-8" standalone="no"?>
<svg
   xmlns:dc="http://purl.org/dc/elements/1.1/"
   xmlns:cc="http://creativecommons.org/ns#"
   xmlns:rdf="http://www.w3.org/1999/02/22-rdf-syntax-ns#"
   xmlns:svg="http://www.w3.org/2000/svg"
   xmlns="http://www.w3.org/2000/svg"
   id="svg19"
   height="130.27mm"
   width="130.27mm"
   version="1.0">
  <metadata
     id="metadata23">
    <rdf:RDF>
      <cc:Work
         rdf:about="">
        <dc:format>image/svg+xml</dc:format>
        <dc:type
           rdf:resource="http://purl.org/dc/dcmitype/StillImage" />
      </cc:Work>
    </rdf:RDF>
  </metadata>
  <defs
     id="defs3">
    <pattern
       y="0"
       x="0"
       height="6"
       width="6"
       patternUnits="userSpaceOnUse"
       id="EMFhbasepattern" />
  </defs>
  <path
     id="path5"
     d="  M 164.63454,327.67068   C 164.63454,437.95983 327.67068,437.95983 327.67068,327.67068   C 437.95983,327.67068 437.95983,164.63454 327.67068,164.63454   C 327.67068,54.345381 164.63454,54.345381 164.63454,164.63454   C 54.345381,164.63454 54.345381,327.67068 164.63454,327.67068   z "
     style="fill:#ffff80;fill-rule:evenodd;fill-opacity:1;stroke:none;" />
  <path
     id="path7"
     d="  M 164.63454,327.67068   C 164.63454,437.95983 327.67068,437.95983 327.67068,327.67068   C 437.95983,327.67068 437.95983,164.63454 327.67068,164.63454   C 327.67068,54.345381 164.63454,54.345381 164.63454,164.63454   C 54.345381,164.63454 54.345381,327.67068 164.63454,327.67068  "
     style="fill:none;stroke:#000000;stroke-width:9.5903616px;stroke-linecap:butt;stroke-linejoin:miter;stroke-miterlimit:10;stroke-dasharray:none;stroke-opacity:1;" />
  <path
     id="path9"
     d="  M 248.78996,152.64658   L 248.78996,147.81144   L 266.25241,147.77148   L 266.25241,163.0761   C 263.5751,165.19397 260.77791,166.79237 257.94076,167.87128   C 255.10361,168.9502 252.18654,169.50964 249.18955,169.50964   C 245.11365,169.50964 241.47731,168.63052 238.16064,166.91225   C 234.84397,165.15401 232.36646,162.6765 230.64819,159.3998   C 228.96988,156.12309 228.13072,152.44678 228.13072,148.41084   C 228.13072,144.3749 228.96988,140.65863 230.64819,137.18213   C 232.3265,133.70562 234.72409,131.10823 237.88092,129.42992   C 241.03775,127.7516 244.67409,126.91245 248.75,126.91245   C 251.74698,126.91245 254.42429,127.39197 256.82188,128.351   C 259.25943,129.31004 261.13755,130.66867 262.49618,132.38695   C 263.85482,134.10522 264.89377,136.34297 265.61305,139.14016   L 260.69799,140.45883   C 260.09859,138.38092 259.29939,136.74257 258.38032,135.54377   C 257.46124,134.34498 256.18253,133.38594 254.46425,132.66666   C 252.74598,131.94739 250.86787,131.54779 248.78996,131.54779   C 246.31245,131.54779 244.15461,131.94739 242.31646,132.70662   C 240.51827,133.46586 239.03976,134.46486 237.92088,135.70361   C 236.802,136.94237 235.96285,138.301 235.32349,139.77952   C 234.28453,142.33695 233.76506,145.09417 233.76506,148.0512   C 233.76506,151.72751 234.40441,154.80442 235.64317,157.28193   C 236.92188,159.75944 238.76004,161.59759 241.15763,162.79638   C 243.59518,163.99518 246.15261,164.59458 248.86988,164.59458   C 251.22751,164.59458 253.54518,164.11506 255.78293,163.23594   C 258.02068,162.31687 259.73895,161.35783 260.89779,160.31887   L 260.89779,152.64658   z "
     style="fill:#000000;fill-rule:evenodd;fill-opacity:1;stroke:none;" />
  <path
     id="path11"
     d="  M 189.56948,208.7502   C 189.56948,266.97168 221.29759,288.1504 274.24437,282.83574  "
     style="fill:none;stroke:#000000;stroke-width:10.589357px;stroke-linecap:butt;stroke-linejoin:miter;stroke-miterlimit:10;stroke-dasharray:none;stroke-opacity:1;" />
  <path
     id="path13"
     d="  M 194.84417,245.79297   L 194.84417,245.79297   L 253.06566,203.43554   L 253.06566,245.79297   L 311.3271,203.43554  "
     style="fill:none;stroke:#000000;stroke-width:10.589357px;stroke-linecap:butt;stroke-linejoin:miter;stroke-miterlimit:10;stroke-dasharray:none;stroke-opacity:1;" />
  <path
     id="path15"
     d="  M 135.78353,260.85783   L 151.60763,219.65923   L 157.48172,219.65923   L 174.34478,260.85783   L 168.151,260.85783   L 163.31586,248.39036   L 146.09317,248.39036   L 141.57771,260.85783   z  M 147.69156,243.95482   L 161.63755,243.95482   L 157.36185,232.5263   C 156.04317,229.08976 155.04417,226.21265 154.44478,224.01486   C 153.88534,226.65221 153.16606,229.2496 152.20703,231.84698   z "
     style="fill:#000000;fill-rule:evenodd;fill-opacity:1;stroke:none;" />
  <path
     id="path17"
     d="  M 328.23012,260.85783   L 328.23012,224.53433   L 314.64377,224.53433   L 314.64377,219.65923   L 347.29096,219.65923   L 347.29096,224.53433   L 333.66465,224.53433   L 333.66465,260.85783   z "
     style="fill:#000000;fill-rule:evenodd;fill-opacity:1;stroke:none;" />
</svg>
