<?xml version="1.0" encoding="UTF-8" standalone="no"?>
<svg
   xmlns:dc="http://purl.org/dc/elements/1.1/"
   xmlns:cc="http://creativecommons.org/ns#"
   xmlns:rdf="http://www.w3.org/1999/02/22-rdf-syntax-ns#"
   xmlns:svg="http://www.w3.org/2000/svg"
   xmlns="http://www.w3.org/2000/svg"
   id="svg13"
   height="89.669998mm"
   width="120.11mm"
   version="1.0">
  <metadata
     id="metadata17">
    <rdf:RDF>
      <cc:Work
         rdf:about="">
        <dc:format>image/svg+xml</dc:format>
        <dc:type
           rdf:resource="http://purl.org/dc/dcmitype/StillImage" />
      </cc:Work>
    </rdf:RDF>
  </metadata>
  <defs
     id="defs3">
    <pattern
       y="0"
       x="0"
       height="6"
       width="6"
       patternUnits="userSpaceOnUse"
       id="EMFhbasepattern" />
  </defs>
  <path
     id="path5"
     d="  M 54.345381,54.345381   L 54.345381,284.51405   L 399.59839,284.51405   L 399.59839,54.345381   L 54.345381,54.345381   z "
     style="fill:#80e0ff;fill-rule:evenodd;fill-opacity:1;stroke:none;" />
  <path
     id="path7"
     d="  M 54.345381,54.345381   L 399.59839,54.345381   L 399.59839,284.51405   L 54.345381,284.51405   z "
     style="fill:none;stroke:#000000;stroke-width:9.5903616px;stroke-linecap:butt;stroke-linejoin:miter;stroke-miterlimit:10;stroke-dasharray:none;stroke-opacity:1;" />
  <path
     id="path9"
     d="  M 145.49377,172.10703   L 153.24598,171.42771   C 153.60562,174.54458 154.44478,177.06205 155.76345,179.06004   C 157.12209,181.01807 159.2,182.61646 161.99719,183.85522   C 164.79438,185.05401 167.9512,185.69337 171.46767,185.69337   C 174.58454,185.69337 177.34176,185.21385 179.73935,184.29478   C 182.13695,183.3757 183.89518,182.09699 185.05401,180.49859   C 186.25281,178.86024 186.81225,177.10201 186.81225,175.18393   C 186.81225,173.26586 186.25281,171.54759 185.13393,170.10903   C 184.01506,168.67048 182.13695,167.43172 179.57952,166.47269   C 177.9012,165.83333 174.2249,164.83433 168.5506,163.43574   C 162.8763,162.07711 158.92028,160.79839 156.64257,159.5996   C 153.68554,158.04116 151.48775,156.12309 150.04919,153.84538   C 148.61064,151.56767 147.89136,148.97028 147.89136,146.13313   C 147.89136,143.01626 148.77048,140.13915 150.52871,137.42189   C 152.28695,134.70462 154.88434,132.6267 158.28092,131.22811   C 161.67751,129.82952 165.47369,129.11024 169.62952,129.11024   C 174.18494,129.11024 178.22088,129.86948 181.73735,131.34799   C 185.25381,132.8265 187.93112,134.98434 189.80923,137.86144   C 191.68735,140.69859 192.68634,143.9753 192.84618,147.57168   L 185.01405,148.17108   C 184.5745,144.25502 183.1759,141.33795 180.73835,139.33996   C 178.3008,137.34197 174.70442,136.34297 169.94919,136.34297   C 164.99417,136.34297 161.39779,137.22209 159.16004,139.06024   C 156.88233,140.85843 155.76345,143.05622 155.76345,145.61365   C 155.76345,147.81144 156.56265,149.6496 158.16104,151.08815   C 159.71948,152.5267 163.83534,154.00522 170.46867,155.48373   C 177.14197,157.00221 181.69739,158.32088 184.1749,159.43976   C 187.77128,161.07811 190.40863,163.19598 192.1269,165.71345   C 193.84518,168.27088 194.68433,171.18795 194.68433,174.50462   C 194.68433,177.82128 193.76526,180.89819 191.88715,183.81526   C 190.00903,186.73233 187.29176,188.97008 183.7753,190.60843   C 180.21887,192.20682 176.26285,193.00602 171.86727,193.00602   C 166.27289,193.00602 161.59759,192.20682 157.8014,190.56847   C 154.00522,188.93012 151.04819,186.49257 148.89036,183.21586   C 146.77249,179.93915 145.61365,176.26285 145.49377,172.10703   z  M 206.03293,191.96707   L 206.03293,130.18915   L 250.70803,130.18915   L 250.70803,137.46185   L 214.2247,137.46185   L 214.2247,156.40281   L 248.39036,156.40281   L 248.39036,163.63554   L 214.2247,163.63554   L 214.2247,184.65442   L 252.14658,184.65442   L 252.14658,191.96707   z  M 307.53092,170.30883   L 315.68273,172.34678   C 313.96445,179.1 310.88755,184.21486 306.452,187.73132   C 301.9765,191.24779 296.54196,193.00602 290.10843,193.00602   C 283.43514,193.00602 278.04056,191.64739 273.88473,188.97008   C 269.68895,186.25281 266.53212,182.29678 264.33433,177.18193   C 262.1765,172.02711 261.05763,166.51265 261.05763,160.59859   C 261.05763,154.16506 262.29638,148.57068 264.77389,143.7755   C 267.21144,138.98032 270.72791,135.34397 275.24337,132.86646   C 279.79879,130.34899 284.79377,129.11024 290.22831,129.11024   C 296.42208,129.11024 301.61686,130.70863 305.85261,133.86546   C 310.04839,136.98233 312.96546,141.41787 314.64377,147.13213   L 306.61184,149.01024   C 305.17329,144.53474 303.09538,141.25803 300.33815,139.18012   C 297.62088,137.14217 294.18433,136.10321 290.06847,136.10321   C 285.31325,136.10321 281.35722,137.26205 278.16044,139.53976   C 274.96365,141.81747 272.7259,144.85442 271.44718,148.69056   C 270.16847,152.5267 269.48915,156.48273 269.48915,160.55863   C 269.48915,165.83333 270.28835,170.38875 271.80682,174.34478   C 273.3253,178.26084 275.72289,181.17791 278.95963,183.09598   C 282.19638,185.05401 285.67289,186.01305 289.42911,186.01305   C 294.02449,186.01305 297.9006,184.69437 301.05743,182.05703   C 304.25421,179.41968 306.41204,175.50361 307.53092,170.30883   z "
     style="fill:#000000;fill-rule:evenodd;fill-opacity:1;stroke:none;" />
  <path
     id="path11"
     d="  M 226.97188,54.345381   L 226.97188,284.51405  "
     style="fill:none;stroke:#000000;stroke-width:9.5903616px;stroke-linecap:butt;stroke-linejoin:miter;stroke-miterlimit:10;stroke-dasharray:none;stroke-opacity:1;" />
</svg>
