<?xml version="1.0" encoding="UTF-8" standalone="no"?>
<svg
   xmlns:dc="http://purl.org/dc/elements/1.1/"
   xmlns:cc="http://creativecommons.org/ns#"
   xmlns:rdf="http://www.w3.org/1999/02/22-rdf-syntax-ns#"
   xmlns:svg="http://www.w3.org/2000/svg"
   xmlns="http://www.w3.org/2000/svg"
   id="svg19"
   height="130.27mm"
   width="130.27mm"
   version="1.0">
  <metadata
     id="metadata23">
    <rdf:RDF>
      <cc:Work
         rdf:about="">
        <dc:format>image/svg+xml</dc:format>
        <dc:type
           rdf:resource="http://purl.org/dc/dcmitype/StillImage" />
      </cc:Work>
    </rdf:RDF>
  </metadata>
  <defs
     id="defs3">
    <pattern
       y="0"
       x="0"
       height="6"
       width="6"
       patternUnits="userSpaceOnUse"
       id="EMFhbasepattern" />
  </defs>
  <path
     id="path5"
     d="  M 164.63454,327.67068   C 164.63454,437.95983 327.67068,437.95983 327.67068,327.67068   C 437.95983,327.67068 437.95983,164.63454 327.67068,164.63454   C 327.67068,54.345381 164.63454,54.345381 164.63454,164.63454   C 54.345381,164.63454 54.345381,327.67068 164.63454,327.67068   z "
     style="fill:#ffff80;fill-rule:evenodd;fill-opacity:1;stroke:none;" />
  <path
     id="path7"
     d="  M 164.63454,327.67068   C 164.63454,437.95983 327.67068,437.95983 327.67068,327.67068   C 437.95983,327.67068 437.95983,164.63454 327.67068,164.63454   C 327.67068,54.345381 164.63454,54.345381 164.63454,164.63454   C 54.345381,164.63454 54.345381,327.67068 164.63454,327.67068  "
     style="fill:none;stroke:#000000;stroke-width:9.5903616px;stroke-linecap:butt;stroke-linejoin:miter;stroke-miterlimit:10;stroke-dasharray:none;stroke-opacity:1;" />
  <path
     id="path9"
     d="  M 248.78996,152.64658   L 248.78996,147.81144   L 266.25241,147.77148   L 266.25241,163.0761   C 263.5751,165.19397 260.77791,166.79237 257.94076,167.87128   C 255.10361,168.9502 252.18654,169.50964 249.18955,169.50964   C 245.11365,169.50964 241.47731,168.63052 238.16064,166.91225   C 234.84397,165.15401 232.36646,162.6765 230.64819,159.3998   C 228.96988,156.12309 228.13072,152.44678 228.13072,148.41084   C 228.13072,144.3749 228.96988,140.65863 230.64819,137.18213   C 232.3265,133.70562 234.72409,131.10823 237.88092,129.42992   C 241.03775,127.7516 244.67409,126.91245 248.75,126.91245   C 251.74698,126.91245 254.42429,127.39197 256.82188,128.351   C 259.25943,129.31004 261.13755,130.66867 262.49618,132.38695   C 263.85482,134.10522 264.89377,136.34297 265.61305,139.14016   L 260.69799,140.45883   C 260.09859,138.38092 259.29939,136.74257 258.38032,135.54377   C 257.46124,134.34498 256.18253,133.38594 254.46425,132.66666   C 252.74598,131.94739 250.86787,131.54779 248.78996,131.54779   C 246.31245,131.54779 244.15461,131.94739 242.31646,132.70662   C 240.51827,133.46586 239.03976,134.46486 237.92088,135.70361   C 236.802,136.94237 235.96285,138.301 235.32349,139.77952   C 234.28453,142.33695 233.76506,145.09417 233.76506,148.0512   C 233.76506,151.72751 234.40441,154.80442 235.64317,157.28193   C 236.92188,159.75944 238.76004,161.59759 241.15763,162.79638   C 243.59518,163.99518 246.15261,164.59458 248.86988,164.59458   C 251.22751,164.59458 253.54518,164.11506 255.78293,163.23594   C 258.02068,162.31687 259.73895,161.35783 260.89779,160.31887   L 260.89779,152.64658   z "
     style="fill:#000000;fill-rule:evenodd;fill-opacity:1;stroke:none;" />
  <path
     id="path11"
     d="  M 189.56948,208.7502   C 189.56948,266.97168 221.29759,288.1504 274.24437,282.83574  "
     style="fill:none;stroke:#000000;stroke-width:10.589357px;stroke-linecap:butt;stroke-linejoin:miter;stroke-miterlimit:10;stroke-dasharray:none;stroke-opacity:1;" />
  <path
     id="path13"
     d="  M 194.84417,245.79297   L 194.84417,245.79297   L 253.06566,203.43554   L 253.06566,245.79297   L 311.3271,203.43554  "
     style="fill:none;stroke:#000000;stroke-width:10.589357px;stroke-linecap:butt;stroke-linejoin:miter;stroke-miterlimit:10;stroke-dasharray:none;stroke-opacity:1;" />
  <path
     id="path15"
     d="  M 169.70944,246.43233   L 175.14397,247.79096   C 174.0251,252.26646 171.94719,255.70301 168.99016,258.02068   C 166.03313,260.37831 162.39678,261.5771 158.12108,261.5771   C 153.68554,261.5771 150.04919,260.65803 147.29197,258.85984   C 144.49478,257.06164 142.37691,254.42429 140.93835,250.98775   C 139.45984,247.59116 138.74056,243.8749 138.74056,239.95883   C 138.74056,235.68313 139.57972,231.9269 141.21807,228.73012   C 142.85642,225.53333 145.17409,223.09578 148.21104,221.45743   C 151.24799,219.77911 154.56466,218.97992 158.201,218.97992   C 162.31687,218.97992 165.79337,220.01887 168.59056,222.09678   C 171.38775,224.21466 173.34578,227.17168 174.46466,230.96787   L 169.11004,232.24658   C 168.151,229.2496 166.75241,227.0518 164.91425,225.69317   C 163.11606,224.33453 160.83835,223.61526 158.08112,223.61526   C 154.92429,223.61526 152.28695,224.37449 150.12911,225.89297   C 148.01124,227.41144 146.53273,229.44939 145.65361,232.00682   C 144.81446,234.56425 144.3749,237.2016 144.3749,239.91887   C 144.3749,243.43534 144.89438,246.47229 145.89337,249.10963   C 146.93233,251.70702 148.49076,253.66506 150.64859,254.94377   C 152.80642,256.26245 155.16405,256.9018 157.64156,256.9018   C 160.71847,256.9018 163.2759,256.02269 165.39377,254.26445   C 167.51164,252.50622 168.9502,249.86887 169.70944,246.43233   z "
     style="fill:#000000;fill-rule:evenodd;fill-opacity:1;stroke:none;" />
  <path
     id="path17"
     d="  M 315.88253,247.63112   L 321.03734,247.19156   C 321.2771,249.22951 321.83654,250.94779 322.71566,252.26646   C 323.63473,253.58514 324.99337,254.62409 326.87148,255.46325   C 328.74959,256.26245 330.86747,256.66204 333.18514,256.66204   C 335.26305,256.66204 337.1012,256.38233 338.69959,255.74297   C 340.29799,255.14357 341.49678,254.26445 342.25602,253.2255   C 343.05522,252.14658 343.41485,250.94779 343.41485,249.66907   C 343.41485,248.39036 343.05522,247.27148 342.29598,246.31245   C 341.53674,245.31345 340.29799,244.51425 338.57971,243.8749   C 337.5008,243.43534 335.02329,242.75602 331.26706,241.83694   C 327.47088,240.95783 324.83353,240.07871 323.31506,239.27951   C 321.35702,238.24056 319.87851,236.96184 318.91947,235.44337   C 317.96044,233.9249 317.48092,232.20662 317.48092,230.32851   C 317.48092,228.2506 318.04036,226.29257 319.23915,224.49437   C 320.39799,222.69618 322.15622,221.29759 324.39397,220.37851   C 326.67168,219.41947 329.18915,218.97992 331.94638,218.97992   C 335.02329,218.97992 337.7006,219.45943 340.01827,220.45843   C 342.3759,221.41747 344.17409,222.85602 345.41285,224.77409   C 346.69156,226.69217 347.33092,228.85 347.4508,231.28755   L 342.21606,231.68715   C 341.93634,229.0498 340.9773,227.09176 339.37891,225.77309   C 337.74056,224.45441 335.34297,223.7751 332.18614,223.7751   C 328.86947,223.7751 326.47188,224.37449 324.99337,225.57329   C 323.47489,226.81204 322.71566,228.2506 322.71566,229.96887   C 322.71566,231.44739 323.23514,232.64618 324.31405,233.60522   C 325.35301,234.56425 328.11024,235.56325 332.54578,236.56225   C 336.98132,237.56124 340.01827,238.44036 341.65662,239.15964   C 344.05421,240.27851 345.81244,241.6771 346.97128,243.35542   C 348.09016,245.07369 348.68955,247.03172 348.68955,249.22951   C 348.68955,251.42731 348.0502,253.50522 346.81144,255.42329   C 345.53273,257.38132 343.73453,258.85984 341.3769,259.93875   C 339.01927,261.01767 336.38192,261.5771 333.46485,261.5771   C 329.70863,261.5771 326.59176,261.01767 324.07429,259.93875   C 321.55682,258.85984 319.59879,257.22148 318.16024,255.02369   C 316.72168,252.86586 315.96245,250.38835 315.88253,247.63112   z "
     style="fill:#000000;fill-rule:evenodd;fill-opacity:1;stroke:none;" />
</svg>
