<?xml version="1.0" encoding="UTF-8" standalone="no"?>
<svg
   xmlns:dc="http://purl.org/dc/elements/1.1/"
   xmlns:cc="http://creativecommons.org/ns#"
   xmlns:rdf="http://www.w3.org/1999/02/22-rdf-syntax-ns#"
   xmlns:svg="http://www.w3.org/2000/svg"
   xmlns="http://www.w3.org/2000/svg"
   id="svg27"
   height="116.73mm"
   width="116.73mm"
   version="1.0">
  <metadata
     id="metadata31">
    <rdf:RDF>
      <cc:Work
         rdf:about="">
        <dc:format>image/svg+xml</dc:format>
        <dc:type
           rdf:resource="http://purl.org/dc/dcmitype/StillImage" />
      </cc:Work>
    </rdf:RDF>
  </metadata>
  <defs
     id="defs3">
    <pattern
       y="0"
       x="0"
       height="6"
       width="6"
       patternUnits="userSpaceOnUse"
       id="EMFhbasepattern" />
  </defs>
  <path
     id="path5"
     d="  M 220.57831,386.49156   L 220.57831,386.49156   L 386.49156,220.57831   L 220.57831,54.665059   L 54.665059,220.57831   L 220.57831,386.49156   z "
     style="fill:#ff8080;fill-rule:evenodd;fill-opacity:1;stroke:none;" />
  <path
     id="path7"
     d="  M 220.57831,386.49156   L 220.57831,386.49156   L 386.49156,220.57831   L 220.57831,54.665059   L 54.665059,220.57831   L 220.57831,386.49156  "
     style="fill:none;stroke:#000000;stroke-width:9.5903616px;stroke-linecap:butt;stroke-linejoin:miter;stroke-miterlimit:10;stroke-dasharray:none;stroke-opacity:1;" />
  <path
     id="path9"
     d="  M 223.21566,127.07229   L 223.21566,122.23715   L 240.67811,122.19719   L 240.67811,137.50181   C 238.0008,139.61968 235.20361,141.21807 232.36646,142.29699   C 229.52931,143.3759 226.61225,143.93534 223.61526,143.93534   C 219.53935,143.93534 215.90301,143.05622 212.58634,141.33795   C 209.26968,139.57972 206.79217,137.10221 205.07389,133.8255   C 203.39558,130.54879 202.55642,126.87249 202.55642,122.83654   C 202.55642,118.8006 203.39558,115.08434 205.07389,111.60783   C 206.75221,108.13132 209.1498,105.53393 212.30662,103.85562   C 215.46345,102.17731 219.0998,101.33815 223.1757,101.33815   C 226.17269,101.33815 228.85,101.81767 231.24759,102.77671   C 233.68514,103.73574 235.56325,105.09438 236.92188,106.81265   C 238.28052,108.53092 239.31947,110.76867 240.03875,113.56586   L 235.12369,114.88454   C 234.52429,112.80662 233.7251,111.16827 232.80602,109.96948   C 231.88694,108.77068 230.60823,107.81165 228.88996,107.09237   C 227.17168,106.37309 225.29357,105.97349 223.21566,105.97349   C 220.73815,105.97349 218.58032,106.37309 216.74217,107.13233   C 214.94397,107.89156 213.46546,108.89056 212.34658,110.12932   C 211.22771,111.36807 210.38855,112.72671 209.74919,114.20522   C 208.71024,116.76265 208.19076,119.51988 208.19076,122.47691   C 208.19076,126.15321 208.83012,129.23012 210.06887,131.70763   C 211.34759,134.18514 213.18574,136.02329 215.58333,137.22209   C 218.02088,138.42088 220.57831,139.02028 223.29558,139.02028   C 225.65321,139.02028 227.97088,138.54076 230.20863,137.66164   C 232.44638,136.74257 234.16466,135.78353 235.32349,134.74458   L 235.32349,127.07229   z "
     style="fill:#000000;fill-rule:evenodd;fill-opacity:1;stroke:none;" />
  <path
     id="path11"
     d="  M 194.68433,321.2771   L 245.51325,321.2771  "
     style="fill:none;stroke:#000000;stroke-width:9.5903616px;stroke-linecap:butt;stroke-linejoin:miter;stroke-miterlimit:10;stroke-dasharray:none;stroke-opacity:1;" />
  <path
     id="path13"
     d="  M 220.57831,321.2771   L 220.57831,201.39759  "
     style="fill:none;stroke:#000000;stroke-width:9.5903616px;stroke-linecap:butt;stroke-linejoin:miter;stroke-miterlimit:10;stroke-dasharray:none;stroke-opacity:1;" />
  <path
     id="path15"
     d="  M 210.98795,183.1759   L 174.54458,170.70843   L 185.09397,154.40482   L 151.52771,143.85542  "
     style="fill:none;stroke:#000000;stroke-width:9.5903616px;stroke-linecap:butt;stroke-linejoin:miter;stroke-miterlimit:10;stroke-dasharray:none;stroke-opacity:1;" />
  <path
     id="path17"
     d="  M 230.16867,183.1759   L 266.61204,170.70843   L 256.06265,154.40482   L 289.62891,143.85542  "
     style="fill:none;stroke:#000000;stroke-width:9.5903616px;stroke-linecap:butt;stroke-linejoin:miter;stroke-miterlimit:10;stroke-dasharray:none;stroke-opacity:1;" />
  <path
     id="path19"
     d="  M 210.98795,196.60241   L 174.54458,210.02891   L 185.09397,225.37349   L 151.52771,236.88192  "
     style="fill:none;stroke:#000000;stroke-width:9.5903616px;stroke-linecap:butt;stroke-linejoin:miter;stroke-miterlimit:10;stroke-dasharray:none;stroke-opacity:1;" />
  <path
     id="path21"
     d="  M 230.16867,196.60241   L 266.61204,210.02891   L 256.06265,225.37349   L 289.62891,236.88192  "
     style="fill:none;stroke:#000000;stroke-width:9.5903616px;stroke-linecap:butt;stroke-linejoin:miter;stroke-miterlimit:10;stroke-dasharray:none;stroke-opacity:1;" />
  <path
     id="path23"
     d="  M 165.83333,271.80682   C 165.83333,264.97369 167.67148,259.61907 171.34779,255.74297   C 175.02409,251.86686 179.73935,249.94879 185.57349,249.94879   C 189.36968,249.94879 192.80622,250.86787 195.84317,252.66606   C 198.88012,254.50421 201.23775,257.02168 202.83614,260.25843   C 204.43454,263.53514 205.23373,267.21144 205.23373,271.32731   C 205.23373,275.52309 204.39458,279.23935 202.71626,282.55602   C 200.99799,285.83273 198.64036,288.3502 195.52349,290.02851   C 192.44658,291.74678 189.12992,292.58594 185.53353,292.58594   C 181.65743,292.58594 178.18092,291.6269 175.14397,289.74879   C 172.06707,287.91064 169.78935,285.35321 168.19096,282.0765   C 166.63253,278.83976 165.83333,275.44317 165.83333,271.80682   z  M 171.46767,271.88674   C 171.46767,276.84176 172.78634,280.75783 175.46365,283.63494   C 178.14096,286.47208 181.45763,287.91064 185.49357,287.91064   C 189.60944,287.91064 192.96606,286.47208 195.64337,283.59498   C 198.28072,280.71787 199.59939,276.602 199.59939,271.28735   C 199.59939,267.97068 199.03996,265.01365 197.92108,262.53614   C 196.76225,260.01867 195.12389,258.1006 192.9261,256.702   C 190.76827,255.34337 188.29076,254.62409 185.57349,254.62409   C 181.73735,254.62409 178.42068,255.98273 175.62349,258.62008   C 172.86626,261.25743 171.46767,265.69297 171.46767,271.88674   z "
     style="fill:#000000;fill-rule:evenodd;fill-opacity:1;stroke:none;" />
  <path
     id="path25"
     d="  M 243.99478,291.86666   L 243.99478,250.66807   L 249.42931,250.66807   L 249.42931,286.99156   L 269.72891,286.99156   L 269.72891,291.86666   z "
     style="fill:#000000;fill-rule:evenodd;fill-opacity:1;stroke:none;" />
</svg>
