<?xml version="1.0" encoding="UTF-8" standalone="no"?>
<svg
   xmlns:dc="http://purl.org/dc/elements/1.1/"
   xmlns:cc="http://creativecommons.org/ns#"
   xmlns:rdf="http://www.w3.org/1999/02/22-rdf-syntax-ns#"
   xmlns:svg="http://www.w3.org/2000/svg"
   xmlns="http://www.w3.org/2000/svg"
   id="svg19"
   height="116.73mm"
   width="116.73mm"
   version="1.0">
  <metadata
     id="metadata23">
    <rdf:RDF>
      <cc:Work
         rdf:about="">
        <dc:format>image/svg+xml</dc:format>
        <dc:type
           rdf:resource="http://purl.org/dc/dcmitype/StillImage" />
      </cc:Work>
    </rdf:RDF>
  </metadata>
  <defs
     id="defs3">
    <pattern
       y="0"
       x="0"
       height="6"
       width="6"
       patternUnits="userSpaceOnUse"
       id="EMFhbasepattern" />
  </defs>
  <path
     id="path5"
     d="  M 220.57831,386.49156   L 220.57831,386.49156   L 386.49156,220.57831   L 220.57831,54.665059   L 54.665059,220.57831   L 220.57831,386.49156   z "
     style="fill:#ff8080;fill-rule:evenodd;fill-opacity:1;stroke:none;" />
  <path
     id="path7"
     d="  M 220.57831,386.49156   L 220.57831,386.49156   L 386.49156,220.57831   L 220.57831,54.665059   L 54.665059,220.57831   L 220.57831,386.49156  "
     style="fill:none;stroke:#000000;stroke-width:9.5903616px;stroke-linecap:butt;stroke-linejoin:miter;stroke-miterlimit:10;stroke-dasharray:none;stroke-opacity:1;" />
  <path
     id="path9"
     d="  M 223.21566,127.07229   L 223.21566,122.23715   L 240.67811,122.19719   L 240.67811,137.50181   C 238.0008,139.61968 235.20361,141.21807 232.36646,142.29699   C 229.52931,143.3759 226.61225,143.93534 223.61526,143.93534   C 219.53935,143.93534 215.90301,143.05622 212.58634,141.33795   C 209.26968,139.57972 206.79217,137.10221 205.07389,133.8255   C 203.39558,130.54879 202.55642,126.87249 202.55642,122.83654   C 202.55642,118.8006 203.39558,115.08434 205.07389,111.60783   C 206.75221,108.13132 209.1498,105.53393 212.30662,103.85562   C 215.46345,102.17731 219.0998,101.33815 223.1757,101.33815   C 226.17269,101.33815 228.85,101.81767 231.24759,102.77671   C 233.68514,103.73574 235.56325,105.09438 236.92188,106.81265   C 238.28052,108.53092 239.31947,110.76867 240.03875,113.56586   L 235.12369,114.88454   C 234.52429,112.80662 233.7251,111.16827 232.80602,109.96948   C 231.88694,108.77068 230.60823,107.81165 228.88996,107.09237   C 227.17168,106.37309 225.29357,105.97349 223.21566,105.97349   C 220.73815,105.97349 218.58032,106.37309 216.74217,107.13233   C 214.94397,107.89156 213.46546,108.89056 212.34658,110.12932   C 211.22771,111.36807 210.38855,112.72671 209.74919,114.20522   C 208.71024,116.76265 208.19076,119.51988 208.19076,122.47691   C 208.19076,126.15321 208.83012,129.23012 210.06887,131.70763   C 211.34759,134.18514 213.18574,136.02329 215.58333,137.22209   C 218.02088,138.42088 220.57831,139.02028 223.29558,139.02028   C 225.65321,139.02028 227.97088,138.54076 230.20863,137.66164   C 232.44638,136.74257 234.16466,135.78353 235.32349,134.74458   L 235.32349,127.07229   z "
     style="fill:#000000;fill-rule:evenodd;fill-opacity:1;stroke:none;" />
  <path
     id="path11"
     d="  M 163.99518,183.1759   C 163.99518,241.39739 195.72329,262.5761 248.67008,257.26144  "
     style="fill:none;stroke:#000000;stroke-width:10.589357px;stroke-linecap:butt;stroke-linejoin:miter;stroke-miterlimit:10;stroke-dasharray:none;stroke-opacity:1;" />
  <path
     id="path13"
     d="  M 169.26988,220.21867   L 169.26988,220.21867   L 227.49136,177.86124   L 227.49136,220.21867   L 285.75281,177.86124  "
     style="fill:none;stroke:#000000;stroke-width:10.589357px;stroke-linecap:butt;stroke-linejoin:miter;stroke-miterlimit:10;stroke-dasharray:none;stroke-opacity:1;" />
  <path
     id="path15"
     d="  M 119.55984,235.28353   L 119.55984,194.08494   L 133.74558,194.08494   C 136.94237,194.08494 139.37992,194.28474 141.05823,194.68433   C 143.41586,195.24377 145.45381,196.20281 147.09217,197.64136   C 149.28996,199.47952 150.88835,201.83715 151.96727,204.67429   C 153.04618,207.5514 153.60562,210.78815 153.60562,214.46445   C 153.60562,217.58132 153.24598,220.37851 152.48674,222.7761   C 151.76747,225.21365 150.84839,227.21164 149.68956,228.77008   C 148.53072,230.36847 147.29197,231.60723 145.93333,232.5263   C 144.5747,233.44538 142.93634,234.1247 141.01827,234.60421   C 139.1002,235.04377 136.90241,235.28353 134.4249,235.28353   z  M 124.99438,230.40843   L 133.78554,230.40843   C 136.50281,230.40843 138.62068,230.16867 140.17911,229.64919   C 141.73755,229.16968 142.9763,228.4504 143.85542,227.53132   C 145.17409,226.25261 146.17309,224.49437 146.89237,222.33654   C 147.61164,220.13875 147.97128,217.5014 147.97128,214.38454   C 147.97128,210.06887 147.25201,206.75221 145.85341,204.43454   C 144.45482,202.15682 142.73654,200.59839 140.69859,199.79919   C 139.22008,199.23976 136.90241,198.96004 133.66566,198.96004   L 124.99438,198.96004   z "
     style="fill:#000000;fill-rule:evenodd;fill-opacity:1;stroke:none;" />
  <path
     id="path17"
     d="  M 302.65582,235.28353   L 302.65582,198.96004   L 289.06947,198.96004   L 289.06947,194.08494   L 321.71666,194.08494   L 321.71666,198.96004   L 308.09036,198.96004   L 308.09036,235.28353   z "
     style="fill:#000000;fill-rule:evenodd;fill-opacity:1;stroke:none;" />
</svg>
