<?xml version="1.0" encoding="UTF-8" standalone="no"?>
<svg
   xmlns:dc="http://purl.org/dc/elements/1.1/"
   xmlns:cc="http://creativecommons.org/ns#"
   xmlns:rdf="http://www.w3.org/1999/02/22-rdf-syntax-ns#"
   xmlns:svg="http://www.w3.org/2000/svg"
   xmlns="http://www.w3.org/2000/svg"
   id="svg27"
   height="130.27mm"
   width="130.27mm"
   version="1.0">
  <metadata
     id="metadata31">
    <rdf:RDF>
      <cc:Work
         rdf:about="">
        <dc:format>image/svg+xml</dc:format>
        <dc:type
           rdf:resource="http://purl.org/dc/dcmitype/StillImage" />
      </cc:Work>
    </rdf:RDF>
  </metadata>
  <defs
     id="defs3">
    <pattern
       y="0"
       x="0"
       height="6"
       width="6"
       patternUnits="userSpaceOnUse"
       id="EMFhbasepattern" />
  </defs>
  <path
     id="path5"
     d="  M 164.63454,327.67068   C 164.63454,437.95983 327.67068,437.95983 327.67068,327.67068   C 437.95983,327.67068 437.95983,164.63454 327.67068,164.63454   C 327.67068,54.345381 164.63454,54.345381 164.63454,164.63454   C 54.345381,164.63454 54.345381,327.67068 164.63454,327.67068   z "
     style="fill:#ffff80;fill-rule:evenodd;fill-opacity:1;stroke:none;" />
  <path
     id="path7"
     d="  M 164.63454,327.67068   C 164.63454,437.95983 327.67068,437.95983 327.67068,327.67068   C 437.95983,327.67068 437.95983,164.63454 327.67068,164.63454   C 327.67068,54.345381 164.63454,54.345381 164.63454,164.63454   C 54.345381,164.63454 54.345381,327.67068 164.63454,327.67068  "
     style="fill:none;stroke:#000000;stroke-width:9.5903616px;stroke-linecap:butt;stroke-linejoin:miter;stroke-miterlimit:10;stroke-dasharray:none;stroke-opacity:1;" />
  <path
     id="path9"
     d="  M 248.78996,152.64658   L 248.78996,147.81144   L 266.25241,147.77148   L 266.25241,163.0761   C 263.5751,165.19397 260.77791,166.79237 257.94076,167.87128   C 255.10361,168.9502 252.18654,169.50964 249.18955,169.50964   C 245.11365,169.50964 241.47731,168.63052 238.16064,166.91225   C 234.84397,165.15401 232.36646,162.6765 230.64819,159.3998   C 228.96988,156.12309 228.13072,152.44678 228.13072,148.41084   C 228.13072,144.3749 228.96988,140.65863 230.64819,137.18213   C 232.3265,133.70562 234.72409,131.10823 237.88092,129.42992   C 241.03775,127.7516 244.67409,126.91245 248.75,126.91245   C 251.74698,126.91245 254.42429,127.39197 256.82188,128.351   C 259.25943,129.31004 261.13755,130.66867 262.49618,132.38695   C 263.85482,134.10522 264.89377,136.34297 265.61305,139.14016   L 260.69799,140.45883   C 260.09859,138.38092 259.29939,136.74257 258.38032,135.54377   C 257.46124,134.34498 256.18253,133.38594 254.46425,132.66666   C 252.74598,131.94739 250.86787,131.54779 248.78996,131.54779   C 246.31245,131.54779 244.15461,131.94739 242.31646,132.70662   C 240.51827,133.46586 239.03976,134.46486 237.92088,135.70361   C 236.802,136.94237 235.96285,138.301 235.32349,139.77952   C 234.28453,142.33695 233.76506,145.09417 233.76506,148.0512   C 233.76506,151.72751 234.40441,154.80442 235.64317,157.28193   C 236.92188,159.75944 238.76004,161.59759 241.15763,162.79638   C 243.59518,163.99518 246.15261,164.59458 248.86988,164.59458   C 251.22751,164.59458 253.54518,164.11506 255.78293,163.23594   C 258.02068,162.31687 259.73895,161.35783 260.89779,160.31887   L 260.89779,152.64658   z "
     style="fill:#000000;fill-rule:evenodd;fill-opacity:1;stroke:none;" />
  <path
     id="path11"
     d="  M 220.25863,346.8514   L 271.08755,346.8514  "
     style="fill:none;stroke:#000000;stroke-width:9.5903616px;stroke-linecap:butt;stroke-linejoin:miter;stroke-miterlimit:10;stroke-dasharray:none;stroke-opacity:1;" />
  <path
     id="path13"
     d="  M 246.15261,346.8514   L 246.15261,226.97188  "
     style="fill:none;stroke:#000000;stroke-width:9.5903616px;stroke-linecap:butt;stroke-linejoin:miter;stroke-miterlimit:10;stroke-dasharray:none;stroke-opacity:1;" />
  <path
     id="path15"
     d="  M 236.56225,208.7502   L 200.11887,196.28273   L 210.66827,179.97911   L 177.10201,169.42972  "
     style="fill:none;stroke:#000000;stroke-width:9.5903616px;stroke-linecap:butt;stroke-linejoin:miter;stroke-miterlimit:10;stroke-dasharray:none;stroke-opacity:1;" />
  <path
     id="path17"
     d="  M 255.74297,208.7502   L 292.18634,196.28273   L 281.63694,179.97911   L 315.20321,169.42972  "
     style="fill:none;stroke:#000000;stroke-width:9.5903616px;stroke-linecap:butt;stroke-linejoin:miter;stroke-miterlimit:10;stroke-dasharray:none;stroke-opacity:1;" />
  <path
     id="path19"
     d="  M 236.56225,222.1767   L 200.11887,235.60321   L 210.66827,250.94779   L 177.10201,262.45622  "
     style="fill:none;stroke:#000000;stroke-width:9.5903616px;stroke-linecap:butt;stroke-linejoin:miter;stroke-miterlimit:10;stroke-dasharray:none;stroke-opacity:1;" />
  <path
     id="path21"
     d="  M 255.74297,222.1767   L 292.18634,235.60321   L 281.63694,250.94779   L 315.20321,262.45622  "
     style="fill:none;stroke:#000000;stroke-width:9.5903616px;stroke-linecap:butt;stroke-linejoin:miter;stroke-miterlimit:10;stroke-dasharray:none;stroke-opacity:1;" />
  <path
     id="path23"
     d="  M 191.40763,297.38112   C 191.40763,290.54799 193.24578,285.19337 196.92209,281.31727   C 200.59839,277.44116 205.31365,275.52309 211.14779,275.52309   C 214.94397,275.52309 218.38052,276.44216 221.41747,278.24036   C 224.45441,280.07851 226.81204,282.59598 228.41044,285.83273   C 230.00883,289.10943 230.80803,292.78574 230.80803,296.9016   C 230.80803,301.09739 229.96887,304.81365 228.29056,308.13032   C 226.57229,311.40702 224.21466,313.92449 221.09779,315.60281   C 218.02088,317.32108 214.70421,318.16024 211.10783,318.16024   C 207.23172,318.16024 203.75522,317.2012 200.71827,315.32309   C 197.64136,313.48494 195.36365,310.92751 193.76526,307.6508   C 192.20682,304.41405 191.40763,301.01747 191.40763,297.38112   z  M 197.04197,297.46104   C 197.04197,302.41606 198.36064,306.33212 201.03795,309.20923   C 203.71526,312.04638 207.03192,313.48494 211.06787,313.48494   C 215.18373,313.48494 218.54036,312.04638 221.21767,309.16927   C 223.85502,306.29216 225.17369,302.1763 225.17369,296.86164   C 225.17369,293.54498 224.61425,290.58795 223.49538,288.11044   C 222.33654,285.59297 220.69819,283.6749 218.5004,282.2763   C 216.34257,280.91767 213.86506,280.19839 211.14779,280.19839   C 207.31164,280.19839 203.99498,281.55702 201.19779,284.19437   C 198.44056,286.83172 197.04197,291.26726 197.04197,297.46104   z "
     style="fill:#000000;fill-rule:evenodd;fill-opacity:1;stroke:none;" />
  <path
     id="path25"
     d="  M 269.56907,317.44096   L 269.56907,276.24237   L 275.00361,276.24237   L 275.00361,312.56586   L 295.30321,312.56586   L 295.30321,317.44096   z "
     style="fill:#000000;fill-rule:evenodd;fill-opacity:1;stroke:none;" />
</svg>
