<?xml version="1.0" encoding="UTF-8" standalone="no"?>
<svg
   xmlns:dc="http://purl.org/dc/elements/1.1/"
   xmlns:cc="http://creativecommons.org/ns#"
   xmlns:rdf="http://www.w3.org/1999/02/22-rdf-syntax-ns#"
   xmlns:svg="http://www.w3.org/2000/svg"
   xmlns="http://www.w3.org/2000/svg"
   id="svg19"
   height="95.75mm"
   width="95.75mm"
   version="1.0">
  <metadata
     id="metadata23">
    <rdf:RDF>
      <cc:Work
         rdf:about="">
        <dc:format>image/svg+xml</dc:format>
        <dc:type
           rdf:resource="http://purl.org/dc/dcmitype/StillImage" />
      </cc:Work>
    </rdf:RDF>
  </metadata>
  <defs
     id="defs3">
    <pattern
       y="0"
       x="0"
       height="6"
       width="6"
       patternUnits="userSpaceOnUse"
       id="EMFhbasepattern" />
  </defs>
  <path
     id="path5"
     d="  M 54.345381,54.345381   L 54.345381,307.53092   L 307.53092,307.53092   L 307.53092,54.345381   L 54.345381,54.345381   z "
     style="fill:#aaffaa;fill-rule:evenodd;fill-opacity:1;stroke:none;" />
  <path
     id="path7"
     d="  M 54.345381,54.345381   L 307.53092,54.345381   L 307.53092,307.53092   L 54.345381,307.53092   z "
     style="fill:none;stroke:#000000;stroke-width:9.5903616px;stroke-linecap:butt;stroke-linejoin:miter;stroke-miterlimit:10;stroke-dasharray:none;stroke-opacity:1;" />
  <path
     id="path9"
     d="  M 183.5755,87.432127   L 183.5755,82.596987   L 201.03795,82.557027   L 201.03795,97.861645   C 198.36064,99.979517 195.56345,101.57791 192.7263,102.65683   C 189.88915,103.73574 186.97209,104.29518 183.9751,104.29518   C 179.89919,104.29518 176.26285,103.41606 172.94618,101.69779   C 169.62952,99.939557 167.15201,97.462047 165.43373,94.18534   C 163.75542,90.908633 162.91626,87.232328 162.91626,83.196384   C 162.91626,79.160441 163.75542,75.444176 165.43373,71.96767   C 167.11205,68.491164 169.50964,65.893774 172.66646,64.215461   C 175.82329,62.537148 179.45964,61.697991 183.53554,61.697991   C 186.53253,61.697991 189.20984,62.177509 191.60743,63.136545   C 194.04498,64.095581 195.92309,65.454216 197.28172,67.172489   C 198.64036,68.890762 199.67931,71.128513 200.39859,73.925702   L 195.48353,75.244376   C 194.88413,73.166465 194.08494,71.528111 193.16586,70.329316   C 192.24678,69.130521 190.96807,68.171485 189.2498,67.452208   C 187.53152,66.732931 185.65341,66.333332 183.5755,66.333332   C 181.09799,66.333332 178.94016,66.732931 177.10201,67.492168   C 175.30381,68.251405 173.8253,69.250401 172.70642,70.489156   C 171.58755,71.727911 170.74839,73.086545 170.10903,74.565059   C 169.07008,77.122489 168.5506,79.879718 168.5506,82.836746   C 168.5506,86.513051 169.18996,89.589959 170.42871,92.067469   C 171.70743,94.544979 173.54558,96.383131 175.94317,97.581926   C 178.38072,98.780721 180.93815,99.380119 183.65542,99.380119   C 186.01305,99.380119 188.33072,98.900601 190.56847,98.021485   C 192.80622,97.102408 194.5245,96.143372 195.68333,95.104416   L 195.68333,87.432127   z "
     style="fill:#000000;fill-rule:evenodd;fill-opacity:1;stroke:none;" />
  <path
     id="path11"
     d="  M 124.35502,143.53574   C 124.35502,201.75723 156.08313,222.93594 209.02992,217.62128  "
     style="fill:none;stroke:#000000;stroke-width:10.589357px;stroke-linecap:butt;stroke-linejoin:miter;stroke-miterlimit:10;stroke-dasharray:none;stroke-opacity:1;" />
  <path
     id="path13"
     d="  M 129.62972,180.57851   L 129.62972,180.57851   L 187.8512,138.22108   L 187.8512,180.57851   L 246.11265,138.22108  "
     style="fill:none;stroke:#000000;stroke-width:10.589357px;stroke-linecap:butt;stroke-linejoin:miter;stroke-miterlimit:10;stroke-dasharray:none;stroke-opacity:1;" />
  <path
     id="path15"
     d="  M 84.994577,195.64337   L 84.994577,154.44478   L 112.76667,154.44478   L 112.76667,159.31988   L 90.429115,159.31988   L 90.429115,172.06707   L 109.76968,172.06707   L 109.76968,176.94217   L 90.429115,176.94217   L 90.429115,195.64337   z "
     style="fill:#000000;fill-rule:evenodd;fill-opacity:1;stroke:none;" />
  <path
     id="path17"
     d="  M 272.3263,181.21787   L 277.76084,182.5765   C 276.64196,187.05201 274.56405,190.48855 271.60702,192.80622   C 268.65,195.16385 265.01365,196.36265 260.73795,196.36265   C 256.30241,196.36265 252.66606,195.44357 249.90883,193.64538   C 247.11164,191.84719 244.99377,189.20984 243.55522,185.77329   C 242.0767,182.3767 241.35743,178.66044 241.35743,174.74437   C 241.35743,170.46867 242.19658,166.71245 243.83494,163.51566   C 245.47329,160.31887 247.79096,157.88132 250.82791,156.24297   C 253.86486,154.56466 257.18152,153.76546 260.81787,153.76546   C 264.93373,153.76546 268.41024,154.80442 271.20743,156.88233   C 274.00461,159.0002 275.96265,161.95723 277.08152,165.75341   L 271.7269,167.03213   C 270.76787,164.03514 269.36927,161.83735 267.53112,160.47871   C 265.73293,159.12008 263.45522,158.4008 260.69799,158.4008   C 257.54116,158.4008 254.90381,159.16004 252.74598,160.67851   C 250.62811,162.19699 249.14959,164.23494 248.27048,166.79237   C 247.43132,169.3498 246.99176,171.98715 246.99176,174.70442   C 246.99176,178.22088 247.51124,181.25783 248.51024,183.89518   C 249.54919,186.49257 251.10763,188.4506 253.26546,189.72931   C 255.42329,191.04799 257.78092,191.68735 260.25843,191.68735   C 263.33534,191.68735 265.89277,190.80823 268.01064,189.05   C 270.12851,187.29176 271.56706,184.65442 272.3263,181.21787   z "
     style="fill:#000000;fill-rule:evenodd;fill-opacity:1;stroke:none;" />
</svg>
