<?xml version="1.0" encoding="UTF-8" standalone="no"?>
<svg
   xmlns:dc="http://purl.org/dc/elements/1.1/"
   xmlns:cc="http://creativecommons.org/ns#"
   xmlns:rdf="http://www.w3.org/1999/02/22-rdf-syntax-ns#"
   xmlns:svg="http://www.w3.org/2000/svg"
   xmlns="http://www.w3.org/2000/svg"
   id="svg27"
   height="95.75mm"
   width="95.75mm"
   version="1.0">
  <metadata
     id="metadata31">
    <rdf:RDF>
      <cc:Work
         rdf:about="">
        <dc:format>image/svg+xml</dc:format>
        <dc:type
           rdf:resource="http://purl.org/dc/dcmitype/StillImage" />
      </cc:Work>
    </rdf:RDF>
  </metadata>
  <defs
     id="defs3">
    <pattern
       y="0"
       x="0"
       height="6"
       width="6"
       patternUnits="userSpaceOnUse"
       id="EMFhbasepattern" />
  </defs>
  <path
     id="path5"
     d="  M 54.345381,54.345381   L 54.345381,307.53092   L 307.53092,307.53092   L 307.53092,54.345381   L 54.345381,54.345381   z "
     style="fill:#aaffaa;fill-rule:evenodd;fill-opacity:1;stroke:none;" />
  <path
     id="path7"
     d="  M 54.345381,54.345381   L 307.53092,54.345381   L 307.53092,307.53092   L 54.345381,307.53092   z "
     style="fill:none;stroke:#000000;stroke-width:9.5903616px;stroke-linecap:butt;stroke-linejoin:miter;stroke-miterlimit:10;stroke-dasharray:none;stroke-opacity:1;" />
  <path
     id="path9"
     d="  M 183.5755,87.432127   L 183.5755,82.596987   L 201.03795,82.557027   L 201.03795,97.861645   C 198.36064,99.979517 195.56345,101.57791 192.7263,102.65683   C 189.88915,103.73574 186.97209,104.29518 183.9751,104.29518   C 179.89919,104.29518 176.26285,103.41606 172.94618,101.69779   C 169.62952,99.939557 167.15201,97.462047 165.43373,94.18534   C 163.75542,90.908633 162.91626,87.232328 162.91626,83.196384   C 162.91626,79.160441 163.75542,75.444176 165.43373,71.96767   C 167.11205,68.491164 169.50964,65.893774 172.66646,64.215461   C 175.82329,62.537148 179.45964,61.697991 183.53554,61.697991   C 186.53253,61.697991 189.20984,62.177509 191.60743,63.136545   C 194.04498,64.095581 195.92309,65.454216 197.28172,67.172489   C 198.64036,68.890762 199.67931,71.128513 200.39859,73.925702   L 195.48353,75.244376   C 194.88413,73.166465 194.08494,71.528111 193.16586,70.329316   C 192.24678,69.130521 190.96807,68.171485 189.2498,67.452208   C 187.53152,66.732931 185.65341,66.333332 183.5755,66.333332   C 181.09799,66.333332 178.94016,66.732931 177.10201,67.492168   C 175.30381,68.251405 173.8253,69.250401 172.70642,70.489156   C 171.58755,71.727911 170.74839,73.086545 170.10903,74.565059   C 169.07008,77.122489 168.5506,79.879718 168.5506,82.836746   C 168.5506,86.513051 169.18996,89.589959 170.42871,92.067469   C 171.70743,94.544979 173.54558,96.383131 175.94317,97.581926   C 178.38072,98.780721 180.93815,99.380119 183.65542,99.380119   C 186.01305,99.380119 188.33072,98.900601 190.56847,98.021485   C 192.80622,97.102408 194.5245,96.143372 195.68333,95.104416   L 195.68333,87.432127   z "
     style="fill:#000000;fill-rule:evenodd;fill-opacity:1;stroke:none;" />
  <path
     id="path11"
     d="  M 155.04417,281.63694   L 205.87309,281.63694  "
     style="fill:none;stroke:#000000;stroke-width:9.5903616px;stroke-linecap:butt;stroke-linejoin:miter;stroke-miterlimit:10;stroke-dasharray:none;stroke-opacity:1;" />
  <path
     id="path13"
     d="  M 180.93815,281.63694   L 180.93815,161.75743  "
     style="fill:none;stroke:#000000;stroke-width:9.5903616px;stroke-linecap:butt;stroke-linejoin:miter;stroke-miterlimit:10;stroke-dasharray:none;stroke-opacity:1;" />
  <path
     id="path15"
     d="  M 171.34779,143.53574   L 134.90442,131.06827   L 145.45381,114.76466   L 111.88755,104.21526  "
     style="fill:none;stroke:#000000;stroke-width:9.5903616px;stroke-linecap:butt;stroke-linejoin:miter;stroke-miterlimit:10;stroke-dasharray:none;stroke-opacity:1;" />
  <path
     id="path17"
     d="  M 190.52851,143.53574   L 226.97188,131.06827   L 216.42249,114.76466   L 249.98875,104.21526  "
     style="fill:none;stroke:#000000;stroke-width:9.5903616px;stroke-linecap:butt;stroke-linejoin:miter;stroke-miterlimit:10;stroke-dasharray:none;stroke-opacity:1;" />
  <path
     id="path19"
     d="  M 171.34779,156.96225   L 134.90442,170.38875   L 145.45381,185.73333   L 111.88755,197.24176  "
     style="fill:none;stroke:#000000;stroke-width:9.5903616px;stroke-linecap:butt;stroke-linejoin:miter;stroke-miterlimit:10;stroke-dasharray:none;stroke-opacity:1;" />
  <path
     id="path21"
     d="  M 190.52851,156.96225   L 226.97188,170.38875   L 216.42249,185.73333   L 249.98875,197.24176  "
     style="fill:none;stroke:#000000;stroke-width:9.5903616px;stroke-linecap:butt;stroke-linejoin:miter;stroke-miterlimit:10;stroke-dasharray:none;stroke-opacity:1;" />
  <path
     id="path23"
     d="  M 127.87148,252.2265   L 127.87148,211.02791   L 143.3759,211.02791   C 146.13313,211.02791 148.21104,211.18775 149.6496,211.42751   C 151.68755,211.78715 153.36586,212.4265 154.7245,213.34558   C 156.12309,214.30462 157.20201,215.62329 158.04116,217.34156   C 158.88032,219.01988 159.27992,220.89799 159.27992,222.93594   C 159.27992,226.45241 158.16104,229.40943 155.96325,231.84698   C 153.7255,234.28453 149.68956,235.48333 143.85542,235.48333   L 133.30602,235.48333   L 133.30602,252.2265   z  M 133.30602,230.60823   L 143.93534,230.60823   C 147.49176,230.60823 149.96927,229.96887 151.44779,228.6502   C 152.9263,227.33152 153.68554,225.49337 153.68554,223.13574   C 153.68554,221.41747 153.24598,219.93895 152.36687,218.7002   C 151.48775,217.46144 150.36887,216.66225 148.93032,216.26265   C 148.01124,216.02289 146.33293,215.90301 143.85542,215.90301   L 133.30602,215.90301   z "
     style="fill:#000000;fill-rule:evenodd;fill-opacity:1;stroke:none;" />
  <path
     id="path25"
     d="  M 204.59437,252.2265   L 204.59437,211.02791   L 220.09879,211.02791   C 222.85602,211.02791 224.93393,211.18775 226.37249,211.42751   C 228.41044,211.78715 230.08875,212.4265 231.44739,213.34558   C 232.84598,214.30462 233.9249,215.62329 234.76405,217.34156   C 235.60321,219.01988 236.00281,220.89799 236.00281,222.93594   C 236.00281,226.45241 234.88393,229.40943 232.68614,231.84698   C 230.44839,234.28453 226.41245,235.48333 220.57831,235.48333   L 210.02891,235.48333   L 210.02891,252.2265   z  M 210.02891,230.60823   L 220.65823,230.60823   C 224.21466,230.60823 226.69217,229.96887 228.17068,228.6502   C 229.64919,227.33152 230.40843,225.49337 230.40843,223.13574   C 230.40843,221.41747 229.96887,219.93895 229.08976,218.7002   C 228.21064,217.46144 227.09176,216.66225 225.65321,216.26265   C 224.73413,216.02289 223.05582,215.90301 220.57831,215.90301   L 210.02891,215.90301   z "
     style="fill:#000000;fill-rule:evenodd;fill-opacity:1;stroke:none;" />
</svg>
