<?xml version="1.0" encoding="UTF-8" standalone="no"?>
<svg
   xmlns:dc="http://purl.org/dc/elements/1.1/"
   xmlns:cc="http://creativecommons.org/ns#"
   xmlns:rdf="http://www.w3.org/1999/02/22-rdf-syntax-ns#"
   xmlns:svg="http://www.w3.org/2000/svg"
   xmlns="http://www.w3.org/2000/svg"
   id="svg19"
   height="130.27mm"
   width="130.27mm"
   version="1.0">
  <metadata
     id="metadata23">
    <rdf:RDF>
      <cc:Work
         rdf:about="">
        <dc:format>image/svg+xml</dc:format>
        <dc:type
           rdf:resource="http://purl.org/dc/dcmitype/StillImage" />
      </cc:Work>
    </rdf:RDF>
  </metadata>
  <defs
     id="defs3">
    <pattern
       y="0"
       x="0"
       height="6"
       width="6"
       patternUnits="userSpaceOnUse"
       id="EMFhbasepattern" />
  </defs>
  <path
     id="path5"
     d="  M 164.63454,327.67068   C 164.63454,437.95983 327.67068,437.95983 327.67068,327.67068   C 437.95983,327.67068 437.95983,164.63454 327.67068,164.63454   C 327.67068,54.345381 164.63454,54.345381 164.63454,164.63454   C 54.345381,164.63454 54.345381,327.67068 164.63454,327.67068   z "
     style="fill:#ffff80;fill-rule:evenodd;fill-opacity:1;stroke:none;" />
  <path
     id="path7"
     d="  M 164.63454,327.67068   C 164.63454,437.95983 327.67068,437.95983 327.67068,327.67068   C 437.95983,327.67068 437.95983,164.63454 327.67068,164.63454   C 327.67068,54.345381 164.63454,54.345381 164.63454,164.63454   C 54.345381,164.63454 54.345381,327.67068 164.63454,327.67068  "
     style="fill:none;stroke:#000000;stroke-width:9.5903616px;stroke-linecap:butt;stroke-linejoin:miter;stroke-miterlimit:10;stroke-dasharray:none;stroke-opacity:1;" />
  <path
     id="path9"
     d="  M 248.78996,152.64658   L 248.78996,147.81144   L 266.25241,147.77148   L 266.25241,163.0761   C 263.5751,165.19397 260.77791,166.79237 257.94076,167.87128   C 255.10361,168.9502 252.18654,169.50964 249.18955,169.50964   C 245.11365,169.50964 241.47731,168.63052 238.16064,166.91225   C 234.84397,165.15401 232.36646,162.6765 230.64819,159.3998   C 228.96988,156.12309 228.13072,152.44678 228.13072,148.41084   C 228.13072,144.3749 228.96988,140.65863 230.64819,137.18213   C 232.3265,133.70562 234.72409,131.10823 237.88092,129.42992   C 241.03775,127.7516 244.67409,126.91245 248.75,126.91245   C 251.74698,126.91245 254.42429,127.39197 256.82188,128.351   C 259.25943,129.31004 261.13755,130.66867 262.49618,132.38695   C 263.85482,134.10522 264.89377,136.34297 265.61305,139.14016   L 260.69799,140.45883   C 260.09859,138.38092 259.29939,136.74257 258.38032,135.54377   C 257.46124,134.34498 256.18253,133.38594 254.46425,132.66666   C 252.74598,131.94739 250.86787,131.54779 248.78996,131.54779   C 246.31245,131.54779 244.15461,131.94739 242.31646,132.70662   C 240.51827,133.46586 239.03976,134.46486 237.92088,135.70361   C 236.802,136.94237 235.96285,138.301 235.32349,139.77952   C 234.28453,142.33695 233.76506,145.09417 233.76506,148.0512   C 233.76506,151.72751 234.40441,154.80442 235.64317,157.28193   C 236.92188,159.75944 238.76004,161.59759 241.15763,162.79638   C 243.59518,163.99518 246.15261,164.59458 248.86988,164.59458   C 251.22751,164.59458 253.54518,164.11506 255.78293,163.23594   C 258.02068,162.31687 259.73895,161.35783 260.89779,160.31887   L 260.89779,152.64658   z "
     style="fill:#000000;fill-rule:evenodd;fill-opacity:1;stroke:none;" />
  <path
     id="path11"
     d="  M 189.56948,208.7502   C 189.56948,266.97168 221.29759,288.1504 274.24437,282.83574  "
     style="fill:none;stroke:#000000;stroke-width:10.589357px;stroke-linecap:butt;stroke-linejoin:miter;stroke-miterlimit:10;stroke-dasharray:none;stroke-opacity:1;" />
  <path
     id="path13"
     d="  M 194.84417,245.79297   L 194.84417,245.79297   L 253.06566,203.43554   L 253.06566,245.79297   L 311.3271,203.43554  "
     style="fill:none;stroke:#000000;stroke-width:10.589357px;stroke-linecap:butt;stroke-linejoin:miter;stroke-miterlimit:10;stroke-dasharray:none;stroke-opacity:1;" />
  <path
     id="path15"
     d="  M 144.93434,260.85783   L 144.93434,219.65923   L 153.16606,219.65923   L 162.91626,248.82992   C 163.79538,251.54719 164.4747,253.58514 164.87429,254.94377   C 165.35381,253.4253 166.07309,251.22751 167.07209,248.31044   L 176.90221,219.65923   L 184.25482,219.65923   L 184.25482,260.85783   L 179.02008,260.85783   L 179.02008,226.37249   L 167.03213,260.85783   L 162.11707,260.85783   L 150.20903,225.81305   L 150.20903,260.85783   z "
     style="fill:#000000;fill-rule:evenodd;fill-opacity:1;stroke:none;" />
  <path
     id="path17"
     d="  M 332.2261,244.71405   L 332.2261,239.87891   L 349.68855,239.83895   L 349.68855,255.14357   C 347.01124,257.26144 344.21405,258.85984 341.3769,259.93875   C 338.53975,261.01767 335.62269,261.5771 332.6257,261.5771   C 328.54979,261.5771 324.91345,260.69799 321.59678,258.97972   C 318.28012,257.22148 315.80261,254.74397 314.08433,251.46727   C 312.40602,248.19056 311.56686,244.51425 311.56686,240.47831   C 311.56686,236.44237 312.40602,232.7261 314.08433,229.2496   C 315.76265,225.77309 318.16024,223.1757 321.31706,221.49739   C 324.47389,219.81907 328.11024,218.97992 332.18614,218.97992   C 335.18313,218.97992 337.86044,219.45943 340.25803,220.41847   C 342.69558,221.37751 344.57369,222.73614 345.93232,224.45441   C 347.29096,226.17269 348.32991,228.41044 349.04919,231.20763   L 344.13413,232.5263   C 343.53473,230.44839 342.73554,228.81004 341.81646,227.61124   C 340.89738,226.41245 339.61867,225.45341 337.9004,224.73413   C 336.18212,224.01486 334.30401,223.61526 332.2261,223.61526   C 329.74859,223.61526 327.59076,224.01486 325.75261,224.77409   C 323.95441,225.53333 322.4759,226.53233 321.35702,227.77108   C 320.23815,229.00984 319.39899,230.36847 318.75963,231.84698   C 317.72068,234.40441 317.2012,237.16164 317.2012,240.11867   C 317.2012,243.79498 317.84056,246.87188 319.07931,249.34939   C 320.35803,251.8269 322.19618,253.66506 324.59377,254.86385   C 327.03132,256.06265 329.58875,256.66204 332.30602,256.66204   C 334.66365,256.66204 336.98132,256.18253 339.21907,255.30341   C 341.45682,254.38433 343.1751,253.4253 344.33393,252.38634   L 344.33393,244.71405   z "
     style="fill:#000000;fill-rule:evenodd;fill-opacity:1;stroke:none;" />
</svg>
