<?xml version="1.0" encoding="UTF-8" standalone="no"?>
<svg
   xmlns:dc="http://purl.org/dc/elements/1.1/"
   xmlns:cc="http://creativecommons.org/ns#"
   xmlns:rdf="http://www.w3.org/1999/02/22-rdf-syntax-ns#"
   xmlns:svg="http://www.w3.org/2000/svg"
   xmlns="http://www.w3.org/2000/svg"
   id="svg11"
   height="101.85mm"
   width="101.85mm"
   version="1.0">
  <metadata
     id="metadata15">
    <rdf:RDF>
      <cc:Work
         rdf:about="">
        <dc:format>image/svg+xml</dc:format>
        <dc:type
           rdf:resource="http://purl.org/dc/dcmitype/StillImage" />
      </cc:Work>
    </rdf:RDF>
  </metadata>
  <defs
     id="defs3">
    <pattern
       y="0"
       x="0"
       height="6"
       width="6"
       patternUnits="userSpaceOnUse"
       id="EMFhbasepattern" />
  </defs>
  <path
     id="path5"
     d="  M 330.54779,192.44658   C 330.54779,268.72992 268.72992,330.54779 192.44658,330.54779   C 116.20321,330.54779 54.345381,268.72992 54.345381,192.44658   C 54.345381,116.20321 116.20321,54.345381 192.44658,54.345381   C 268.72992,54.345381 330.54779,116.20321 330.54779,192.44658   z "
     style="fill:#80e0ff;fill-rule:evenodd;fill-opacity:1;stroke:none;" />
  <path
     id="path7"
     d="  M 330.54779,192.44658   C 330.54779,268.72992 268.72992,330.54779 192.44658,330.54779   C 116.20321,330.54779 54.345381,268.72992 54.345381,192.44658   C 54.345381,116.20321 116.20321,54.345381 192.44658,54.345381   C 268.72992,54.345381 330.54779,116.20321 330.54779,192.44658  "
     style="fill:none;stroke:#000000;stroke-width:9.5903616px;stroke-linecap:butt;stroke-linejoin:miter;stroke-miterlimit:10;stroke-dasharray:none;stroke-opacity:1;" />
  <path
     id="path9"
     d="  M 115.56385,227.69116   L 115.56385,131.58775   L 151.80743,131.58775   C 158.201,131.58775 163.0761,131.90743 166.43273,132.50683   C 171.14799,133.30602 175.10401,134.78454 178.3008,136.98233   C 181.49759,139.22008 184.05502,142.29699 186.01305,146.29297   C 187.93112,150.24899 188.93012,154.64458 188.93012,159.3998   C 188.93012,167.5516 186.33273,174.46466 181.09799,180.13895   C 175.90321,185.81325 166.51265,188.61044 152.9263,188.61044   L 128.27108,188.61044   L 128.27108,227.69116   z  M 128.27108,177.3018   L 153.1261,177.3018   C 161.31787,177.3018 167.15201,175.74337 170.62851,172.70642   C 174.06506,169.62952 175.78333,165.35381 175.78333,159.75944   C 175.78333,155.76345 174.78433,152.32691 172.74638,149.4498   C 170.70843,146.61265 168.03112,144.69458 164.71446,143.7755   C 162.59658,143.21606 158.64056,142.93634 152.84638,142.93634   L 128.27108,142.93634   z  M 250.06867,190.00903   L 250.06867,178.74036   L 290.78775,178.66044   L 290.78775,214.30462   C 284.55401,219.2996 278.08052,223.05582 271.44718,225.57329   C 264.81385,228.09076 257.98072,229.32951 250.98775,229.32951   C 241.55723,229.32951 232.96586,227.33152 225.25361,223.29558   C 217.54136,219.21968 211.70723,213.38554 207.79116,205.75321   C 203.8751,198.08092 201.87711,189.52952 201.87711,180.09899   C 201.87711,170.74839 203.83514,162.03715 207.7512,153.9253   C 211.66727,145.81345 217.3016,139.77952 224.65421,135.86345   C 231.96686,131.90743 240.43835,129.9494 250.02871,129.9494   C 256.98172,129.9494 263.25542,131.06827 268.8498,133.34598   C 274.48413,135.58373 278.87971,138.7006 282.0765,142.73654   C 285.27329,146.77249 287.67088,152.00723 289.34919,158.48072   L 277.88072,161.59759   C 276.44216,156.72249 274.64397,152.88634 272.48614,150.08915   C 270.36827,147.29197 267.29136,145.05421 263.33534,143.3759   C 259.33935,141.69759 254.94377,140.81847 250.06867,140.81847   C 244.27449,140.81847 239.23955,141.73755 235.00381,143.49578   C 230.76807,145.25401 227.33152,147.57168 224.73413,150.48875   C 222.13674,153.36586 220.09879,156.52269 218.66024,159.95923   C 216.22269,165.91325 215.02389,172.38674 215.02389,179.2998   C 215.02389,187.89116 216.46245,195.04397 219.41947,200.83815   C 222.3765,206.59237 226.69217,210.86807 232.3265,213.66526   C 237.96084,216.46245 243.95482,217.86104 250.26847,217.86104   C 255.78293,217.86104 261.17751,216.82209 266.41225,214.70421   C 271.64698,212.58634 275.64297,210.30863 278.32028,207.91104   L 278.32028,190.00903   z "
     style="fill:#000000;fill-rule:evenodd;fill-opacity:1;stroke:none;" />
</svg>
