<?xml version="1.0" encoding="UTF-8" standalone="no"?>
<svg
   xmlns:dc="http://purl.org/dc/elements/1.1/"
   xmlns:cc="http://creativecommons.org/ns#"
   xmlns:rdf="http://www.w3.org/1999/02/22-rdf-syntax-ns#"
   xmlns:svg="http://www.w3.org/2000/svg"
   xmlns="http://www.w3.org/2000/svg"
   id="svg11"
   height="116.73mm"
   width="116.73mm"
   version="1.0">
  <metadata
     id="metadata15">
    <rdf:RDF>
      <cc:Work
         rdf:about="">
        <dc:format>image/svg+xml</dc:format>
        <dc:type
           rdf:resource="http://purl.org/dc/dcmitype/StillImage" />
      </cc:Work>
    </rdf:RDF>
  </metadata>
  <defs
     id="defs3">
    <pattern
       y="0"
       x="0"
       height="6"
       width="6"
       patternUnits="userSpaceOnUse"
       id="EMFhbasepattern" />
  </defs>
  <path
     id="path5"
     d="  M 220.57831,386.49156   L 220.57831,386.49156   L 386.49156,220.57831   L 220.57831,54.665059   L 54.665059,220.57831   z "
     style="fill:#ff8080;fill-rule:evenodd;fill-opacity:1;stroke:none;" />
  <path
     id="path7"
     d="  M 220.57831,386.49156   L 220.57831,386.49156   L 386.49156,220.57831   L 220.57831,54.665059   L 54.665059,220.57831   z "
     style="fill:none;stroke:#000000;stroke-width:9.5903616px;stroke-linecap:butt;stroke-linejoin:miter;stroke-miterlimit:10;stroke-dasharray:none;stroke-opacity:1;" />
  <path
     id="path9"
     d="  M 143.69558,255.82289   L 143.69558,159.71948   L 179.93915,159.71948   C 186.33273,159.71948 191.20783,160.03915 194.56446,160.63855   C 199.27972,161.43775 203.23574,162.91626 206.43253,165.11405   C 209.62931,167.3518 212.18674,170.42871 214.14478,174.4247   C 216.06285,178.38072 217.06184,182.7763 217.06184,187.53152   C 217.06184,195.68333 214.46445,202.59638 209.22972,208.27068   C 204.03494,213.94498 194.64437,216.74217 181.05803,216.74217   L 156.40281,216.74217   L 156.40281,255.82289   z  M 156.40281,205.43353   L 181.25783,205.43353   C 189.4496,205.43353 195.28373,203.8751 198.76024,200.83815   C 202.19678,197.76124 203.91506,193.48554 203.91506,187.89116   C 203.91506,183.89518 202.91606,180.45863 200.87811,177.58152   C 198.84016,174.74437 196.16285,172.8263 192.84618,171.90723   C 190.72831,171.34779 186.77229,171.06807 180.97811,171.06807   L 156.40281,171.06807   z  M 278.2004,218.14076   L 278.2004,206.87209   L 318.91947,206.79217   L 318.91947,242.43634   C 312.68574,247.43132 306.21224,251.18755 299.57891,253.70502   C 292.94558,256.22249 286.11245,257.46124 279.11947,257.46124   C 269.68895,257.46124 261.09759,255.46325 253.38534,251.42731   C 245.67309,247.3514 239.83895,241.51727 235.92289,233.88494   C 232.00682,226.21265 230.00883,217.66124 230.00883,208.23072   C 230.00883,198.88012 231.96686,190.16887 235.88293,182.05703   C 239.79899,173.94518 245.43333,167.91124 252.78594,163.99518   C 260.09859,160.03915 268.57008,158.08112 278.16044,158.08112   C 285.11345,158.08112 291.38714,159.2 296.98152,161.47771   C 302.61586,163.71546 307.01144,166.83233 310.20823,170.86827   C 313.40502,174.90421 315.80261,180.13895 317.48092,186.61245   L 306.01245,189.72931   C 304.57389,184.85421 302.7757,181.01807 300.61787,178.22088   C 298.5,175.42369 295.42309,173.18594 291.46706,171.50763   C 287.47108,169.82931 283.0755,168.9502 278.2004,168.9502   C 272.40622,168.9502 267.37128,169.86927 263.13554,171.62751   C 258.8998,173.38574 255.46325,175.70341 252.86586,178.62048   C 250.26847,181.49759 248.23052,184.65442 246.79196,188.09096   C 244.35441,194.04498 243.15562,200.51847 243.15562,207.43152   C 243.15562,216.02289 244.59417,223.1757 247.5512,228.96988   C 250.50823,234.72409 254.82389,238.9998 260.45823,241.79698   C 266.09257,244.59417 272.08654,245.99277 278.4002,245.99277   C 283.91465,245.99277 289.30923,244.95381 294.54397,242.83594   C 299.77871,240.71807 303.77469,238.44036 306.452,236.04277   L 306.452,218.14076   z "
     style="fill:#000000;fill-rule:evenodd;fill-opacity:1;stroke:none;" />
</svg>
