<?xml version="1.0" encoding="UTF-8" standalone="no"?>
<svg
   xmlns:dc="http://purl.org/dc/elements/1.1/"
   xmlns:cc="http://creativecommons.org/ns#"
   xmlns:rdf="http://www.w3.org/1999/02/22-rdf-syntax-ns#"
   xmlns:svg="http://www.w3.org/2000/svg"
   xmlns="http://www.w3.org/2000/svg"
   id="svg15"
   height="95.75mm"
   width="95.75mm"
   version="1.0">
  <metadata
     id="metadata19">
    <rdf:RDF>
      <cc:Work
         rdf:about="">
        <dc:format>image/svg+xml</dc:format>
        <dc:type
           rdf:resource="http://purl.org/dc/dcmitype/StillImage" />
      </cc:Work>
    </rdf:RDF>
  </metadata>
  <defs
     id="defs3">
    <pattern
       y="0"
       x="0"
       height="6"
       width="6"
       patternUnits="userSpaceOnUse"
       id="EMFhbasepattern" />
  </defs>
  <path
     id="path5"
     d="  M 54.345381,54.345381   L 54.345381,307.53092   L 307.53092,307.53092   L 307.53092,54.345381   L 54.345381,54.345381   z "
     style="fill:#aaffaa;fill-rule:evenodd;fill-opacity:1;stroke:none;" />
  <path
     id="path7"
     d="  M 54.345381,54.345381   L 307.53092,54.345381   L 307.53092,307.53092   L 54.345381,307.53092   z "
     style="fill:none;stroke:#000000;stroke-width:9.5903616px;stroke-linecap:butt;stroke-linejoin:miter;stroke-miterlimit:10;stroke-dasharray:none;stroke-opacity:1;" />
  <path
     id="path9"
     d="  M 104.33514,172.46666   L 104.33514,116.84257   L 111.68775,116.84257   L 111.68775,139.65964   L 140.57871,139.65964   L 140.57871,116.84257   L 147.93132,116.84257   L 147.93132,172.46666   L 140.57871,172.46666   L 140.57871,146.25301   L 111.68775,146.25301   L 111.68775,172.46666   z  M 159.95923,172.46666   L 159.95923,116.84257   L 171.02811,116.84257   L 184.21486,156.20301   C 185.41365,159.87931 186.29277,162.63654 186.85221,164.43474   C 187.49156,162.43674 188.49056,159.43976 189.80923,155.52369   L 203.11586,116.84257   L 213.0259,116.84257   L 213.0259,172.46666   L 205.91305,172.46666   L 205.91305,125.91345   L 189.76927,172.46666   L 183.13594,172.46666   L 167.07209,125.11426   L 167.07209,172.46666   z  M 224.89397,172.46666   L 224.89397,116.84257   L 244.03474,116.84257   C 248.39036,116.84257 251.66706,117.12229 253.94478,117.64177   C 257.14156,118.36104 259.85883,119.71968 262.09658,121.63775   C 265.05361,124.11526 267.2514,127.27209 268.68996,131.10823   C 270.12851,134.98434 270.88775,139.37992 270.88775,144.33494   C 270.88775,148.57068 270.36827,152.32691 269.40923,155.56365   C 268.41024,158.84036 267.13152,161.51767 265.61305,163.6755   C 264.05461,165.79337 262.3763,167.47168 260.53815,168.71044   C 258.7,169.94919 256.50221,170.86827 253.90482,171.50763   C 251.30743,172.14699 248.31044,172.46666 244.95381,172.46666   z  M 232.24658,165.87329   L 244.11466,165.87329   C 247.79096,165.87329 250.66807,165.55361 252.74598,164.87429   C 254.86385,164.19498 256.50221,163.23594 257.74096,161.99719   C 259.49919,160.23895 260.85783,157.88132 261.81686,154.96425   C 262.81586,152.00723 263.29538,148.41084 263.29538,144.21506   C 263.29538,138.42088 262.33634,133.94538 260.41827,130.82851   C 258.5002,127.71164 256.18253,125.59377 253.46526,124.55482   C 251.50723,123.79558 248.31044,123.39598 243.95482,123.39598   L 232.24658,123.39598   z "
     style="fill:#000000;fill-rule:evenodd;fill-opacity:1;stroke:none;" />
  <path
     id="path11"
     d="  M 56.263453,307.53092   C 85.034537,161.75743 276.84176,161.75743 305.61285,307.53092   z "
     style="fill:#aaffaa;fill-rule:evenodd;fill-opacity:1;stroke:none;" />
  <path
     id="path13"
     d="  M 56.263453,307.53092   C 85.034537,161.75743 276.84176,161.75743 305.61285,307.53092   z "
     style="fill:none;stroke:#000000;stroke-width:9.5903616px;stroke-linecap:butt;stroke-linejoin:miter;stroke-miterlimit:10;stroke-dasharray:none;stroke-opacity:1;" />
</svg>
