<?xml version="1.0" encoding="UTF-8" standalone="no"?>
<svg
   xmlns:dc="http://purl.org/dc/elements/1.1/"
   xmlns:cc="http://creativecommons.org/ns#"
   xmlns:rdf="http://www.w3.org/1999/02/22-rdf-syntax-ns#"
   xmlns:svg="http://www.w3.org/2000/svg"
   xmlns="http://www.w3.org/2000/svg"
   id="svg9"
   height="112.9mm"
   width="112.9mm"
   version="1.0">
  <metadata
     id="metadata13">
    <rdf:RDF>
      <cc:Work
         rdf:about="">
        <dc:format>image/svg+xml</dc:format>
        <dc:type
           rdf:resource="http://purl.org/dc/dcmitype/StillImage" />
      </cc:Work>
    </rdf:RDF>
  </metadata>
  <defs
     id="defs3">
    <pattern
       y="0"
       x="0"
       height="6"
       width="6"
       patternUnits="userSpaceOnUse"
       id="EMFhbasepattern" />
  </defs>
  <path
     id="path5"
     d="  M 549.80239,712.92394   L 451.73756,451.74511   L 798.21314,451.74511   L 705.47464,712.92394  "
     style="fill:none;stroke:#000000;stroke-width:5.3263254px;stroke-linecap:butt;stroke-linejoin:miter;stroke-miterlimit:112;stroke-dasharray:none;stroke-opacity:1;" />
  <path
     id="path7"
     d="  M 653.60907,617.84336   C 659.2376,621.69645 664.41282,624.5296 669.17252,626.34282   L 665.58386,634.76672   C 659.01095,632.38687 652.43803,628.64711 645.9029,623.50967   C 639.14111,627.32498 631.62381,629.21374 623.42656,629.21374   C 615.15376,629.21374 607.63646,627.21165 600.87467,623.20746   C 594.15066,619.20327 588.93766,613.57475 585.31122,606.35965   C 581.64701,599.10678 579.8338,590.94731 579.8338,581.84345   C 579.8338,572.81514 581.64701,564.58011 585.31122,557.17614   C 588.97543,549.77217 594.18843,544.14364 600.988,540.25278   C 607.74979,536.36192 615.30486,534.43537 623.69099,534.43537   C 632.15267,534.43537 639.74551,536.43747 646.54508,540.47943   C 653.34464,544.48362 658.51987,550.11215 662.07075,557.32724   C 665.62163,564.58011 667.39708,572.70181 667.39708,581.80567   C 667.39708,589.32297 666.26382,596.12253 663.95952,602.12881   C 661.693,608.13509 658.21766,613.38587 653.60907,617.84336   L 653.60907,617.84336   z  M 626.93967,602.35547   C 633.92811,604.31978 639.70774,607.22849 644.24078,611.08157   C 651.34255,604.58421 654.93121,594.83817 654.93121,581.80567   C 654.93121,574.36393 653.64685,567.90434 651.1159,562.35136   C 648.62272,556.83616 644.92074,552.52977 640.08549,549.46996   C 635.21247,546.41016 629.77282,544.86137 623.72876,544.86137   C 614.70045,544.86137 607.22093,547.95895 601.25242,554.15411   C 595.28392,560.34927 592.33744,569.56645 592.33744,581.84345   C 592.33744,593.78046 595.28392,602.9221 601.17687,609.26836   C 607.06983,615.65239 614.58713,618.82552 623.72876,618.82552   C 628.07293,618.82552 632.15267,618.03224 635.96798,616.4079   C 632.19044,613.9525 628.18625,612.17706 623.99319,611.15712   L 626.93967,602.35547   z "
     style="fill:#000000;fill-rule:nonzero;fill-opacity:1;stroke:#000000;stroke-width:1.0577101px;stroke-linecap:butt;stroke-linejoin:miter;stroke-miterlimit:112;stroke-dasharray:none;stroke-opacity:1;" />
</svg>
