<?xml version="1.0" encoding="UTF-8" standalone="no"?>
<svg
   xmlns:dc="http://purl.org/dc/elements/1.1/"
   xmlns:cc="http://creativecommons.org/ns#"
   xmlns:rdf="http://www.w3.org/1999/02/22-rdf-syntax-ns#"
   xmlns:svg="http://www.w3.org/2000/svg"
   xmlns="http://www.w3.org/2000/svg"
   id="svg9"
   height="112.9mm"
   width="112.9mm"
   version="1.0">
  <metadata
     id="metadata13">
    <rdf:RDF>
      <cc:Work
         rdf:about="">
        <dc:format>image/svg+xml</dc:format>
        <dc:type
           rdf:resource="http://purl.org/dc/dcmitype/StillImage" />
      </cc:Work>
    </rdf:RDF>
  </metadata>
  <defs
     id="defs3">
    <pattern
       y="0"
       x="0"
       height="6"
       width="6"
       patternUnits="userSpaceOnUse"
       id="EMFhbasepattern" />
  </defs>
  <path
     id="path5"
     d="  M 549.80239,712.92394   L 451.73756,451.74511   L 798.21314,451.74511   L 705.47464,712.92394  "
     style="fill:none;stroke:#000000;stroke-width:5.3263254px;stroke-linecap:butt;stroke-linejoin:miter;stroke-miterlimit:112;stroke-dasharray:none;stroke-opacity:1;" />
  <path
     id="path7"
     d="  M 574.88523,627.62718   L 610.31851,579.9169   L 579.07829,536.05971   L 593.50848,536.05971   L 610.12963,559.55599   C 613.56719,564.42901 616.02259,568.16877 617.49583,570.81304   C 619.5357,567.45103 621.95332,563.9757 624.7487,560.34927   L 643.18307,536.05971   L 656.36667,536.05971   L 624.18207,579.23695   L 658.85985,627.62718   L 643.86303,627.62718   L 620.82006,594.98927   C 619.49792,593.1005 618.17579,591.06063 616.81587,588.86966   C 614.776,592.19389 613.30276,594.46042 612.43393,595.707   L 589.46651,627.62718   L 574.88523,627.62718   z "
     style="fill:#000000;fill-rule:nonzero;fill-opacity:1;stroke:#000000;stroke-width:1.0577101px;stroke-linecap:butt;stroke-linejoin:miter;stroke-miterlimit:112;stroke-dasharray:none;stroke-opacity:1;" />
</svg>
