<?xml version="1.0" encoding="UTF-8" standalone="no"?>
<svg
   xmlns:dc="http://purl.org/dc/elements/1.1/"
   xmlns:cc="http://creativecommons.org/ns#"
   xmlns:rdf="http://www.w3.org/1999/02/22-rdf-syntax-ns#"
   xmlns:svg="http://www.w3.org/2000/svg"
   xmlns="http://www.w3.org/2000/svg"
   id="svg9"
   height="112.9mm"
   width="112.9mm"
   version="1.0">
  <metadata
     id="metadata13">
    <rdf:RDF>
      <cc:Work
         rdf:about="">
        <dc:format>image/svg+xml</dc:format>
        <dc:type
           rdf:resource="http://purl.org/dc/dcmitype/StillImage" />
      </cc:Work>
    </rdf:RDF>
  </metadata>
  <defs
     id="defs3">
    <pattern
       y="0"
       x="0"
       height="6"
       width="6"
       patternUnits="userSpaceOnUse"
       id="EMFhbasepattern" />
  </defs>
  <path
     id="path5"
     d="  M 1152.9353,1316.5525   L 1054.9031,1055.4606   L 1401.2634,1055.4606   L 1308.5558,1316.5525  "
     style="fill:none;stroke:#ffff00;stroke-width:5.3245535px;stroke-linecap:butt;stroke-linejoin:miter;stroke-miterlimit:282;stroke-dasharray:none;stroke-opacity:1;" />
  <path
     id="path7"
     d="  M 1178.0098,1231.2841   L 1213.4313,1183.5897   L 1182.2015,1139.7471   L 1196.6269,1139.7471   L 1213.2425,1163.2356   C 1216.6789,1168.107 1219.1335,1171.8455 1220.6063,1174.4889   C 1222.6455,1171.128 1225.0623,1167.6538 1227.8567,1164.0286   L 1246.285,1139.7471   L 1259.4642,1139.7471   L 1227.2903,1182.91   L 1261.9565,1231.2841   L 1246.9647,1231.2841   L 1223.9294,1198.6571   C 1222.6077,1196.7689 1221.286,1194.7297 1219.9265,1192.5395   C 1217.8873,1195.8626 1216.4146,1198.1284 1215.546,1199.3746   L 1192.5863,1231.2841   z "
     style="fill:#ffff00;fill-rule:nonzero;fill-opacity:1;stroke:#ffff00;stroke-width:1.0573581px;stroke-linecap:butt;stroke-linejoin:miter;stroke-miterlimit:282;stroke-dasharray:none;stroke-opacity:1;" />
</svg>
