<?xml version="1.0" encoding="UTF-8" standalone="no"?>
<svg
   xmlns:dc="http://purl.org/dc/elements/1.1/"
   xmlns:cc="http://creativecommons.org/ns#"
   xmlns:rdf="http://www.w3.org/1999/02/22-rdf-syntax-ns#"
   xmlns:svg="http://www.w3.org/2000/svg"
   xmlns="http://www.w3.org/2000/svg"
   id="svg9"
   height="112.9mm"
   width="112.9mm"
   version="1.0">
  <metadata
     id="metadata13">
    <rdf:RDF>
      <cc:Work
         rdf:about="">
        <dc:format>image/svg+xml</dc:format>
        <dc:type
           rdf:resource="http://purl.org/dc/dcmitype/StillImage" />
      </cc:Work>
    </rdf:RDF>
  </metadata>
  <defs
     id="defs3">
    <pattern
       y="0"
       x="0"
       height="6"
       width="6"
       patternUnits="userSpaceOnUse"
       id="EMFhbasepattern" />
  </defs>
  <path
     id="path5"
     d="  M 1152.9353,1316.5525   L 1054.9031,1055.4606   L 1401.2634,1055.4606   L 1308.5558,1316.5525  "
     style="fill:none;stroke:#ffff00;stroke-width:5.3245535px;stroke-linecap:butt;stroke-linejoin:miter;stroke-miterlimit:282;stroke-dasharray:none;stroke-opacity:1;" />
  <path
     id="path7"
     d="  M 1256.7075,1221.5035   C 1262.3341,1225.3553 1267.5076,1228.1876 1272.2658,1230.0002   L 1268.6783,1238.4213   C 1262.1076,1236.0422 1255.5368,1232.3037 1249.0039,1227.168   C 1242.2443,1230.982 1234.7295,1232.8701 1226.535,1232.8701   C 1218.265,1232.8701 1210.7502,1230.8687 1203.9906,1226.8659   C 1197.2689,1222.863 1192.0576,1217.2363 1188.4324,1210.0237   C 1184.7694,1202.7732 1182.9568,1194.6164 1182.9568,1185.5156   C 1182.9568,1176.4903 1184.7694,1168.258 1188.4324,1160.8565   C 1192.0954,1153.455 1197.3066,1147.8283 1204.1039,1143.9388   C 1210.8635,1140.0492 1218.416,1138.1233 1226.7994,1138.1233   C 1235.2582,1138.1233 1242.8485,1140.1247 1249.6458,1144.1654   C 1256.4431,1148.1682 1261.6167,1153.7949 1265.1664,1161.0076   C 1268.7161,1168.258 1270.4909,1176.377 1270.4909,1185.4778   C 1270.4909,1192.9926 1269.358,1199.7899 1267.0545,1205.7942   C 1264.7887,1211.7985 1261.3145,1217.0475 1256.7075,1221.5035   z  M 1230.047,1206.0208   C 1237.0331,1207.9845 1242.8108,1210.8922 1247.3423,1214.744   C 1254.4417,1208.2488 1258.0292,1198.506 1258.0292,1185.4778   C 1258.0292,1178.0386 1256.7453,1171.5811 1254.2151,1166.03   C 1251.7228,1160.5166 1248.022,1156.2117 1243.1884,1153.1529   C 1238.317,1150.0941 1232.8792,1148.5458 1226.8371,1148.5458   C 1217.8118,1148.5458 1210.3348,1151.6424 1204.3683,1157.8355   C 1198.4017,1164.0286 1195.4562,1173.2427 1195.4562,1185.5156   C 1195.4562,1197.4486 1198.4017,1206.5872 1204.2927,1212.9314   C 1210.1837,1219.3133 1217.6985,1222.4854 1226.8371,1222.4854   C 1231.1798,1222.4854 1235.2582,1221.6924 1239.0723,1220.0686   C 1235.296,1217.614 1231.2931,1215.8391 1227.1015,1214.8195   z "
     style="fill:#ffff00;fill-rule:nonzero;fill-opacity:1;stroke:#ffff00;stroke-width:1.0573581px;stroke-linecap:butt;stroke-linejoin:miter;stroke-miterlimit:282;stroke-dasharray:none;stroke-opacity:1;" />
</svg>
