<?xml version="1.0" encoding="UTF-8" standalone="no"?>
<svg
   xmlns:dc="http://purl.org/dc/elements/1.1/"
   xmlns:cc="http://creativecommons.org/ns#"
   xmlns:rdf="http://www.w3.org/1999/02/22-rdf-syntax-ns#"
   xmlns:svg="http://www.w3.org/2000/svg"
   xmlns="http://www.w3.org/2000/svg"
   id="svg27"
   height="116.73mm"
   width="116.73mm"
   version="1.0">
  <metadata
     id="metadata31">
    <rdf:RDF>
      <cc:Work
         rdf:about="">
        <dc:format>image/svg+xml</dc:format>
        <dc:type
           rdf:resource="http://purl.org/dc/dcmitype/StillImage" />
      </cc:Work>
    </rdf:RDF>
  </metadata>
  <defs
     id="defs3">
    <pattern
       y="0"
       x="0"
       height="6"
       width="6"
       patternUnits="userSpaceOnUse"
       id="EMFhbasepattern" />
  </defs>
  <path
     id="path5"
     d="  M 172.6265,43.156626   L 172.6265,100.69879   L 268.53012,100.69879   L 268.53012,43.156626   L 172.6265,43.156626   z "
     style="fill:#000000;fill-rule:evenodd;fill-opacity:1;stroke:none;" />
  <path
     id="path7"
     d="  M 220.57831,386.49156   L 220.57831,386.49156   L 386.49156,220.57831   L 220.57831,54.665059   L 54.665059,220.57831   L 220.57831,386.49156   z "
     style="fill:#ff8080;fill-rule:evenodd;fill-opacity:1;stroke:none;" />
  <path
     id="path9"
     d="  M 220.57831,386.49156   L 220.57831,386.49156   L 386.49156,220.57831   L 220.57831,54.665059   L 54.665059,220.57831   L 220.57831,386.49156  "
     style="fill:none;stroke:#000000;stroke-width:9.5903616px;stroke-linecap:butt;stroke-linejoin:miter;stroke-miterlimit:10;stroke-dasharray:none;stroke-opacity:1;" />
  <path
     id="path11"
     d="  M 219.97891,276.68192   L 170.90823,228.92992   L 219.97891,181.05803   L 269.12951,229.0498   L 219.97891,276.68192  z    M 232.3265,178.98012   L 139.37992,178.98012   L 139.37992,278.36024   L 300.85763,278.36024   L 300.85763,178.98012   L 282.8757,178.98012   L 282.8757,143.01626   L 270.88775,143.01626   L 270.88775,178.98012   L 244.31445,178.98012   L 244.31445,143.01626   L 232.3265,143.01626   L 232.3265,178.98012  z   "
     style="fill:#ffffff;fill-rule:evenodd;fill-opacity:1;stroke:none;" />
  <path
     id="path13"
     d="  M 184.77429,217.98092   L 184.77429,228.2506   L 193.36566,228.2506   L 193.36566,209.38956   C 192.20682,210.14879 184.77429,216.902 184.77429,217.98092   z "
     style="fill:#ffffff;fill-rule:evenodd;fill-opacity:1;stroke:none;" />
  <path
     id="path15"
     d="  M 203.91506,198.96004   L 203.91506,198.96004   L 203.63534,228.2506   L 213.90502,228.2506   L 213.8251,189.16988   z "
     style="fill:#ffffff;fill-rule:evenodd;fill-opacity:1;stroke:none;" />
  <path
     id="path17"
     d="  M 225.89297,228.2506   L 236.16265,228.2506   L 236.16265,199.55943   C 236.16265,198.48052 227.17168,190.08895 225.89297,189.2498   z "
     style="fill:#ffffff;fill-rule:evenodd;fill-opacity:1;stroke:none;" />
  <path
     id="path19"
     d="  M 246.47229,228.2506   L 255.02369,228.2506   L 255.02369,218.82008   C 255.02369,217.18172 254.90381,218.66024 255.38333,217.62128   L 246.47229,209.38956   z "
     style="fill:#ffffff;fill-rule:evenodd;fill-opacity:1;stroke:none;" />
  <path
     id="path21"
     d="  M 219.77911,274.16445   L 219.77911,274.16445   L 266.17249,229.52931   L 173.6255,229.56927   z "
     style="fill:#ffffff;fill-rule:evenodd;fill-opacity:1;stroke:none;" />
  <path
     id="path23"
     d="  M 173.6255,229.56927   L 266.17249,229.52931   L 219.77911,274.16445   z  M 225.89297,189.2498   C 227.17168,190.08895 236.16265,198.48052 236.16265,199.55943   L 236.16265,228.2506   L 225.89297,228.2506   z  M 213.8251,189.16988   L 213.90502,228.2506   L 203.63534,228.2506   L 203.91506,198.96004   L 213.8251,189.16988   z  M 184.77429,217.98092   C 184.77429,216.902 192.20682,210.14879 193.36566,209.38956   L 193.36566,228.2506   L 184.77429,228.2506   z  M 246.47229,209.38956   L 255.38333,217.62128   C 254.90381,218.66024 255.02369,217.18172 255.02369,218.82008   L 255.02369,228.2506   L 246.47229,228.2506   z  M 269.12951,229.0498   L 219.97891,181.05803   L 170.90823,228.92992   L 219.97891,276.68192   z "
     style="fill:#000000;fill-rule:evenodd;fill-opacity:1;stroke:none;" />
  <path
     id="path25"
     d="  M 232.3265,143.01626   L 244.31445,143.01626   L 244.31445,178.98012   L 270.88775,178.98012   L 270.88775,143.01626   L 282.8757,143.01626   L 282.8757,178.98012   L 300.85763,178.98012   L 300.85763,278.36024   L 139.37992,278.36024   L 139.37992,178.98012   L 232.3265,178.98012   L 232.3265,143.01626  z    M 136.38293,281.79678   L 303.85461,281.79678   L 303.85461,175.98313   L 286.71184,175.98313   L 286.71184,139.57972   L 267.4512,139.57972   L 267.4512,175.98313   L 248.19056,175.98313   L 248.19056,139.57972   L 228.88996,139.57972   L 228.88996,175.98313   L 136.38293,175.98313   L 136.38293,281.79678   L 136.38293,281.79678  z   "
     style="fill:#000000;fill-rule:evenodd;fill-opacity:1;stroke:none;" />
</svg>
