<?xml version="1.0" encoding="UTF-8" standalone="no"?>
<svg
   xmlns:dc="http://purl.org/dc/elements/1.1/"
   xmlns:cc="http://creativecommons.org/ns#"
   xmlns:rdf="http://www.w3.org/1999/02/22-rdf-syntax-ns#"
   xmlns:svg="http://www.w3.org/2000/svg"
   xmlns="http://www.w3.org/2000/svg"
   id="svg11"
   height="65.639999mm"
   width="82.230003mm"
   version="1.0">
  <metadata
     id="metadata15">
    <rdf:RDF>
      <cc:Work
         rdf:about="">
        <dc:format>image/svg+xml</dc:format>
        <dc:type
           rdf:resource="http://purl.org/dc/dcmitype/StillImage" />
      </cc:Work>
    </rdf:RDF>
  </metadata>
  <defs
     id="defs3">
    <pattern
       y="0"
       x="0"
       height="6"
       width="6"
       patternUnits="userSpaceOnUse"
       id="EMFhbasepattern" />
  </defs>
  <path
     id="path5"
     d="  M 93.026505,193.40562   L 93.026505,193.40562   L 54.665059,116.68273   L 102.61687,116.68273   L 102.61687,54.345381   L 208.11084,54.345381   L 208.11084,116.68273   L 256.06265,116.68273   L 217.7012,193.40562   z "
     style="fill:#ff8080;fill-rule:evenodd;fill-opacity:1;stroke:none;" />
  <path
     id="path7"
     d="  M 93.026505,193.40562   L 93.026505,193.40562   L 54.665059,116.68273   L 102.61687,116.68273   L 102.61687,54.345381   L 208.11084,54.345381   L 208.11084,116.68273   L 256.06265,116.68273   L 217.7012,193.40562   z "
     style="fill:none;stroke:#000000;stroke-width:9.5903616px;stroke-linecap:butt;stroke-linejoin:miter;stroke-miterlimit:10;stroke-dasharray:none;stroke-opacity:1;" />
  <path
     id="path9"
     d="  M 121.63775,163.99518   L 121.63775,122.79658   L 127.07229,122.79658   L 127.07229,139.73956   L 148.49076,139.73956   L 148.49076,122.79658   L 153.9253,122.79658   L 153.9253,163.99518   L 148.49076,163.99518   L 148.49076,144.5747   L 127.07229,144.5747   L 127.07229,163.99518   z  M 159.71948,163.99518   L 159.71948,158.92028   L 180.81827,132.54679   C 182.33674,130.66867 183.73534,129.07028 185.09397,127.67168   L 162.11707,127.67168   L 162.11707,122.79658   L 191.60743,122.79658   L 191.60743,127.67168   L 168.51064,156.24297   L 165.99317,159.12008   L 192.28674,159.12008   L 192.28674,163.99518   z "
     style="fill:#000000;fill-rule:evenodd;fill-opacity:1;stroke:none;" />
</svg>
