<?xml version="1.0" encoding="UTF-8" standalone="no"?>
<svg
   xmlns:dc="http://purl.org/dc/elements/1.1/"
   xmlns:cc="http://creativecommons.org/ns#"
   xmlns:rdf="http://www.w3.org/1999/02/22-rdf-syntax-ns#"
   xmlns:svg="http://www.w3.org/2000/svg"
   xmlns="http://www.w3.org/2000/svg"
   id="svg27"
   height="130.27mm"
   width="130.27mm"
   version="1.0">
  <metadata
     id="metadata31">
    <rdf:RDF>
      <cc:Work
         rdf:about="">
        <dc:format>image/svg+xml</dc:format>
        <dc:type
           rdf:resource="http://purl.org/dc/dcmitype/StillImage" />
      </cc:Work>
    </rdf:RDF>
  </metadata>
  <defs
     id="defs3">
    <pattern
       y="0"
       x="0"
       height="6"
       width="6"
       patternUnits="userSpaceOnUse"
       id="EMFhbasepattern" />
  </defs>
  <path
     id="path5"
     d="  M 198.2008,63.935742   L 198.2008,111.88755   L 294.10441,111.88755   L 294.10441,63.935742   L 198.2008,63.935742   z "
     style="fill:#000000;fill-rule:evenodd;fill-opacity:1;stroke:none;" />
  <path
     id="path7"
     d="  M 164.63454,327.67068   C 164.63454,437.95983 327.67068,437.95983 327.67068,327.67068   C 437.95983,327.67068 437.95983,164.63454 327.67068,164.63454   C 327.67068,54.345381 164.63454,54.345381 164.63454,164.63454   C 54.345381,164.63454 54.345381,327.67068 164.63454,327.67068   z "
     style="fill:#ffff80;fill-rule:evenodd;fill-opacity:1;stroke:none;" />
  <path
     id="path9"
     d="  M 164.63454,327.67068   C 164.63454,437.95983 327.67068,437.95983 327.67068,327.67068   C 437.95983,327.67068 437.95983,164.63454 327.67068,164.63454   C 327.67068,54.345381 164.63454,54.345381 164.63454,164.63454   C 54.345381,164.63454 54.345381,327.67068 164.63454,327.67068  "
     style="fill:none;stroke:#000000;stroke-width:9.5903616px;stroke-linecap:butt;stroke-linejoin:miter;stroke-miterlimit:10;stroke-dasharray:none;stroke-opacity:1;" />
  <path
     id="path11"
     d="  M 245.55321,302.25622   L 196.48253,254.50421   L 245.55321,206.63233   L 294.70381,254.62409   L 245.55321,302.25622  z    M 257.9008,204.55441   L 164.95421,204.55441   L 164.95421,303.93453   L 326.43192,303.93453   L 326.43192,204.55441   L 308.45,204.55441   L 308.45,168.59056   L 296.46204,168.59056   L 296.46204,204.55441   L 269.88875,204.55441   L 269.88875,168.59056   L 257.9008,168.59056   L 257.9008,204.55441  z   "
     style="fill:#ffffff;fill-rule:evenodd;fill-opacity:1;stroke:none;" />
  <path
     id="path13"
     d="  M 210.34859,243.55522   L 210.34859,253.8249   L 218.93996,253.8249   L 218.93996,234.96385   C 217.78112,235.72309 210.34859,242.4763 210.34859,243.55522   z "
     style="fill:#ffffff;fill-rule:evenodd;fill-opacity:1;stroke:none;" />
  <path
     id="path15"
     d="  M 229.48935,224.53433   L 229.48935,224.53433   L 229.20964,253.8249   L 239.47931,253.8249   L 239.39939,214.74417   z "
     style="fill:#ffffff;fill-rule:evenodd;fill-opacity:1;stroke:none;" />
  <path
     id="path17"
     d="  M 251.46727,253.8249   L 261.73694,253.8249   L 261.73694,225.13373   C 261.73694,224.05482 252.74598,215.66325 251.46727,214.82409   z "
     style="fill:#ffffff;fill-rule:evenodd;fill-opacity:1;stroke:none;" />
  <path
     id="path19"
     d="  M 272.04658,253.8249   L 280.59799,253.8249   L 280.59799,244.39437   C 280.59799,242.75602 280.47811,244.23453 280.95763,243.19558   L 272.04658,234.96385   z "
     style="fill:#ffffff;fill-rule:evenodd;fill-opacity:1;stroke:none;" />
  <path
     id="path21"
     d="  M 245.35341,299.73875   L 245.35341,299.73875   L 291.74678,255.10361   L 199.1998,255.14357   z "
     style="fill:#ffffff;fill-rule:evenodd;fill-opacity:1;stroke:none;" />
  <path
     id="path23"
     d="  M 199.1998,255.14357   L 291.74678,255.10361   L 245.35341,299.73875   z  M 251.46727,214.82409   C 252.74598,215.66325 261.73694,224.05482 261.73694,225.13373   L 261.73694,253.8249   L 251.46727,253.8249   z  M 239.39939,214.74417   L 239.47931,253.8249   L 229.20964,253.8249   L 229.48935,224.53433   L 239.39939,214.74417   z  M 210.34859,243.55522   C 210.34859,242.4763 217.78112,235.72309 218.93996,234.96385   L 218.93996,253.8249   L 210.34859,253.8249   z  M 272.04658,234.96385   L 280.95763,243.19558   C 280.47811,244.23453 280.59799,242.75602 280.59799,244.39437   L 280.59799,253.8249   L 272.04658,253.8249   z  M 294.70381,254.62409   L 245.55321,206.63233   L 196.48253,254.50421   L 245.55321,302.25622   z "
     style="fill:#000000;fill-rule:evenodd;fill-opacity:1;stroke:none;" />
  <path
     id="path25"
     d="  M 257.9008,168.59056   L 269.88875,168.59056   L 269.88875,204.55441   L 296.46204,204.55441   L 296.46204,168.59056   L 308.45,168.59056   L 308.45,204.55441   L 326.43192,204.55441   L 326.43192,303.93453   L 164.95421,303.93453   L 164.95421,204.55441   L 257.9008,204.55441   L 257.9008,168.59056  z    M 161.95723,307.37108   L 329.42891,307.37108   L 329.42891,201.55743   L 312.28614,201.55743   L 312.28614,165.15401   L 293.0255,165.15401   L 293.0255,201.55743   L 273.76486,201.55743   L 273.76486,165.15401   L 254.46425,165.15401   L 254.46425,201.55743   L 161.95723,201.55743   L 161.95723,307.37108   L 161.95723,307.37108  z   "
     style="fill:#000000;fill-rule:evenodd;fill-opacity:1;stroke:none;" />
</svg>
