<?xml version="1.0" encoding="UTF-8" standalone="no"?>
<svg
   xmlns:dc="http://purl.org/dc/elements/1.1/"
   xmlns:cc="http://creativecommons.org/ns#"
   xmlns:rdf="http://www.w3.org/1999/02/22-rdf-syntax-ns#"
   xmlns:svg="http://www.w3.org/2000/svg"
   xmlns="http://www.w3.org/2000/svg"
   id="svg25"
   height="130.27mm"
   width="130.27mm"
   version="1.0">
  <metadata
     id="metadata29">
    <rdf:RDF>
      <cc:Work
         rdf:about="">
        <dc:format>image/svg+xml</dc:format>
        <dc:type
           rdf:resource="http://purl.org/dc/dcmitype/StillImage" />
      </cc:Work>
    </rdf:RDF>
  </metadata>
  <defs
     id="defs3">
    <pattern
       y="0"
       x="0"
       height="6"
       width="6"
       patternUnits="userSpaceOnUse"
       id="EMFhbasepattern" />
  </defs>
  <path
     id="path5"
     d="  M 164.63454,327.67068   C 164.63454,437.95983 327.67068,437.95983 327.67068,327.67068   C 437.95983,327.67068 437.95983,164.63454 327.67068,164.63454   C 327.67068,54.345381 164.63454,54.345381 164.63454,164.63454   C 54.345381,164.63454 54.345381,327.67068 164.63454,327.67068   z "
     style="fill:#ffff80;fill-rule:evenodd;fill-opacity:1;stroke:none;" />
  <path
     id="path7"
     d="  M 164.63454,327.67068   C 164.63454,437.95983 327.67068,437.95983 327.67068,327.67068   C 437.95983,327.67068 437.95983,164.63454 327.67068,164.63454   C 327.67068,54.345381 164.63454,54.345381 164.63454,164.63454   C 54.345381,164.63454 54.345381,327.67068 164.63454,327.67068  "
     style="fill:none;stroke:#000000;stroke-width:9.5903616px;stroke-linecap:butt;stroke-linejoin:miter;stroke-miterlimit:10;stroke-dasharray:none;stroke-opacity:1;" />
  <path
     id="path9"
     d="  M 165.87329,231.76706   C 166.03313,232.1267 166.15301,232.04678 166.15301,232.76606   L 166.15301,246.63212   L 180.37871,246.63212   L 180.29879,217.34156   z "
     style="fill:#ffffff;fill-rule:evenodd;fill-opacity:1;stroke:none;" />
  <path
     id="path11"
     d="  M 195.36365,202.83614   L 195.36365,246.63212   L 209.94899,246.63212   L 209.94899,187.8512   C 208.47048,188.8502 195.36365,201.99699 195.36365,202.83614   z "
     style="fill:#ffffff;fill-rule:evenodd;fill-opacity:1;stroke:none;" />
  <path
     id="path13"
     d="  M 224.57429,173.6255   L 224.57429,246.63212   L 239.15964,246.63212   L 239.15964,158.64056   C 237.68112,159.63956 224.57429,172.74638 224.57429,173.6255   z "
     style="fill:#ffffff;fill-rule:evenodd;fill-opacity:1;stroke:none;" />
  <path
     id="path15"
     d="  M 254.14457,246.63212   L 268.72992,246.63212   L 268.72992,174.34478   C 268.72992,172.98614 268.65,174.18494 269.00963,173.34578   L 254.14457,158.64056   z "
     style="fill:#ffffff;fill-rule:evenodd;fill-opacity:1;stroke:none;" />
  <path
     id="path17"
     d="  M 283.35522,246.63212   L 297.94056,246.63212   L 297.94056,202.83614   C 297.94056,201.99699 284.83373,188.8502 283.35522,187.8512   z "
     style="fill:#ffffff;fill-rule:evenodd;fill-opacity:1;stroke:none;" />
  <path
     id="path19"
     d="  M 312.9255,246.63212   L 327.51084,246.63212   L 327.51084,232.40642   C 327.51084,231.52731 314.40401,218.42048 312.9255,217.42148   z "
     style="fill:#ffffff;fill-rule:evenodd;fill-opacity:1;stroke:none;" />
  <path
     id="path21"
     d="  M 246.55221,342.21606   L 246.55221,342.21606   L 340.69759,248.07068   L 152.5267,248.1506   z "
     style="fill:#ffffff;fill-rule:evenodd;fill-opacity:1;stroke:none;" />
  <path
     id="path23"
     d="  M 152.5267,248.1506   L 340.69759,248.07068   L 246.55221,342.21606   z  M 312.9255,217.42148   C 314.40401,218.42048 327.51084,231.52731 327.51084,232.40642   L 327.51084,246.63212   L 312.9255,246.63212   z  M 283.35522,187.8512   C 284.83373,188.8502 297.94056,201.99699 297.94056,202.83614   L 297.94056,246.63212   L 283.35522,246.63212   z  M 224.57429,173.6255   C 224.57429,172.74638 237.68112,159.63956 239.15964,158.64056   L 239.15964,246.63212   L 224.57429,246.63212   z  M 195.36365,202.83614   C 195.36365,201.99699 208.47048,188.8502 209.94899,187.8512   L 209.94899,246.63212   L 195.36365,246.63212   z  M 180.29879,217.34156   L 180.37871,246.63212   L 166.15301,246.63212   L 166.15301,232.76606   C 166.15301,232.04678 166.03313,232.1267 165.87329,231.76706   z  M 254.14457,158.64056   L 269.00963,173.34578   C 268.65,174.18494 268.72992,172.98614 268.72992,174.34478   L 268.72992,246.63212   L 254.14457,246.63212   z  M 142.89638,246.55221   L 246.752,350.40783   L 350.40783,246.55221   L 246.55221,142.89638   z "
     style="fill:#000000;fill-rule:evenodd;fill-opacity:1;stroke:none;" />
</svg>
