<?xml version="1.0" encoding="UTF-8" standalone="no"?>
<svg
   xmlns:dc="http://purl.org/dc/elements/1.1/"
   xmlns:cc="http://creativecommons.org/ns#"
   xmlns:rdf="http://www.w3.org/1999/02/22-rdf-syntax-ns#"
   xmlns:svg="http://www.w3.org/2000/svg"
   xmlns="http://www.w3.org/2000/svg"
   id="svg15"
   height="116.73mm"
   width="116.73mm"
   version="1.0">
  <metadata
     id="metadata19">
    <rdf:RDF>
      <cc:Work
         rdf:about="">
        <dc:format>image/svg+xml</dc:format>
        <dc:type
           rdf:resource="http://purl.org/dc/dcmitype/StillImage" />
      </cc:Work>
    </rdf:RDF>
  </metadata>
  <defs
     id="defs3">
    <pattern
       y="0"
       x="0"
       height="6"
       width="6"
       patternUnits="userSpaceOnUse"
       id="EMFhbasepattern" />
  </defs>
  <path
     id="path5"
     d="  M 220.57831,386.49156   L 220.57831,386.49156   L 386.49156,220.57831   L 220.57831,54.665059   L 54.665059,220.57831   z "
     style="fill:#ff8080;fill-rule:evenodd;fill-opacity:1;stroke:none;" />
  <path
     id="path7"
     d="  M 220.57831,386.49156   L 220.57831,386.49156   L 386.49156,220.57831   L 220.57831,54.665059   L 54.665059,220.57831   z "
     style="fill:none;stroke:#000000;stroke-width:9.5903616px;stroke-linecap:butt;stroke-linejoin:miter;stroke-miterlimit:10;stroke-dasharray:none;stroke-opacity:1;" />
  <path
     id="path9"
     d="  M 158.24096,292.50602   L 158.24096,292.50602   L 119.87952,215.78313   L 167.83132,215.78313   L 167.83132,153.44578   L 273.3253,153.44578   L 273.3253,215.78313   L 321.2771,215.78313   L 282.91566,292.50602   z "
     style="fill:#ffffff;fill-rule:evenodd;fill-opacity:1;stroke:none;" />
  <path
     id="path11"
     d="  M 158.24096,292.50602   L 158.24096,292.50602   L 119.87952,215.78313   L 167.83132,215.78313   L 167.83132,153.44578   L 273.3253,153.44578   L 273.3253,215.78313   L 321.2771,215.78313   L 282.91566,292.50602   z "
     style="fill:none;stroke:#000000;stroke-width:9.5903616px;stroke-linecap:butt;stroke-linejoin:miter;stroke-miterlimit:10;stroke-dasharray:none;stroke-opacity:1;" />
  <path
     id="path13"
     d="  M 186.85221,263.09558   L 186.85221,221.89698   L 192.28674,221.89698   L 192.28674,238.83996   L 213.70522,238.83996   L 213.70522,221.89698   L 219.13976,221.89698   L 219.13976,263.09558   L 213.70522,263.09558   L 213.70522,243.6751   L 192.28674,243.6751   L 192.28674,263.09558   z  M 224.93393,263.09558   L 224.93393,258.02068   L 246.03273,231.64719   C 247.5512,229.76907 248.9498,228.17068 250.30843,226.77209   L 227.33152,226.77209   L 227.33152,221.89698   L 256.82188,221.89698   L 256.82188,226.77209   L 233.7251,255.34337   L 231.20763,258.22048   L 257.5012,258.22048   L 257.5012,263.09558   z "
     style="fill:#000000;fill-rule:evenodd;fill-opacity:1;stroke:none;" />
</svg>
