<?xml version="1.0" encoding="UTF-8" standalone="no"?>
<svg
   xmlns:dc="http://purl.org/dc/elements/1.1/"
   xmlns:cc="http://creativecommons.org/ns#"
   xmlns:rdf="http://www.w3.org/1999/02/22-rdf-syntax-ns#"
   xmlns:svg="http://www.w3.org/2000/svg"
   xmlns="http://www.w3.org/2000/svg"
   id="svg37"
   height="89.669998mm"
   width="120.11mm"
   version="1.0">
  <metadata
     id="metadata41">
    <rdf:RDF>
      <cc:Work
         rdf:about="">
        <dc:format>image/svg+xml</dc:format>
        <dc:type
           rdf:resource="http://purl.org/dc/dcmitype/StillImage" />
      </cc:Work>
    </rdf:RDF>
  </metadata>
  <defs
     id="defs3">
    <pattern
       y="0"
       x="0"
       height="6"
       width="6"
       patternUnits="userSpaceOnUse"
       id="EMFhbasepattern" />
  </defs>
  <path
     id="path5"
     d="  M 54.345381,54.345381   L 54.345381,284.51405   L 399.59839,284.51405   L 399.59839,54.345381   L 54.345381,54.345381   z "
     style="fill:#80e0ff;fill-rule:evenodd;fill-opacity:1;stroke:none;" />
  <path
     id="path7"
     d="  M 54.345381,54.345381   L 399.59839,54.345381   L 399.59839,284.51405   L 54.345381,284.51405   z "
     style="fill:none;stroke:#000000;stroke-width:9.5903616px;stroke-linecap:butt;stroke-linejoin:miter;stroke-miterlimit:10;stroke-dasharray:none;stroke-opacity:1;" />
  <path
     id="path9"
     d="  M 146.93233,155.20401   C 147.09217,155.56365 147.21205,155.48373 147.21205,156.20301   L 147.21205,169.70944   L 161.47771,169.70944   L 161.35783,140.77851   z "
     style="fill:#ffffff;fill-rule:evenodd;fill-opacity:1;stroke:none;" />
  <path
     id="path11"
     d="  M 176.42269,126.27309   L 176.42269,169.70944   L 191.04799,169.70944   L 191.04799,111.28815   C 189.52952,112.28715 176.42269,125.39397 176.42269,126.27309   z "
     style="fill:#ffffff;fill-rule:evenodd;fill-opacity:1;stroke:none;" />
  <path
     id="path13"
     d="  M 205.63333,97.022489   L 205.63333,169.70944   L 220.25863,169.70944   L 220.25863,82.077509   C 218.78012,83.076505 205.63333,96.183332 205.63333,97.022489   z "
     style="fill:#ffffff;fill-rule:evenodd;fill-opacity:1;stroke:none;" />
  <path
     id="path15"
     d="  M 235.20361,169.70944   L 249.82891,169.70944   L 249.82891,97.741766   C 249.82891,96.383131 249.70903,97.621886 250.10863,96.78273   L 235.20361,82.077509   z "
     style="fill:#ffffff;fill-rule:evenodd;fill-opacity:1;stroke:none;" />
  <path
     id="path17"
     d="  M 264.41425,169.70944   L 279.03955,169.70944   L 279.03955,126.27309   C 279.03955,125.39397 265.93273,112.28715 264.41425,111.28815   z "
     style="fill:#ffffff;fill-rule:evenodd;fill-opacity:1;stroke:none;" />
  <path
     id="path19"
     d="  M 293.98453,169.70944   L 308.60983,169.70944   L 308.60983,155.84337   C 308.60983,154.96425 295.50301,141.85743 293.98453,140.85843   z "
     style="fill:#ffffff;fill-rule:evenodd;fill-opacity:1;stroke:none;" />
  <path
     id="path21"
     d="  M 258.7,205.59337   C 259.01967,209.42952 260.89779,208.23072 262.29638,210.34859   L 260.49819,211.02791   C 257.94076,210.46847 256.46225,209.26968 256.26245,206.47249   z  M 263.3753,178.98012   C 262.65602,187.53152 257.94076,192.24678 254.58413,198.36064   C 250.50823,205.67329 253.78494,214.62429 262.29638,214.62429   L 265.49317,214.62429   C 270.72791,214.62429 274.40421,210.50843 274.40421,205.35361   L 274.40421,203.19578   C 274.40421,199.79919 269.88875,194.08494 268.2504,191.52751   C 266.13253,188.17088 266.49216,181.09799 263.3753,178.98012   z "
     style="fill:#000000;fill-rule:evenodd;fill-opacity:1;stroke:none;" />
  <path
     id="path23"
     d="  M 263.3753,178.98012   C 266.49216,181.09799 266.13253,188.17088 268.2504,191.52751   C 269.88875,194.08494 274.40421,199.79919 274.40421,203.19578   L 274.40421,205.35361   C 274.40421,210.50843 270.72791,214.62429 265.49317,214.62429   L 262.29638,214.62429   C 253.78494,214.62429 250.50823,205.67329 254.58413,198.36064   C 257.94076,192.24678 262.65602,187.53152 263.3753,178.98012   z  M 251.58714,202.51646   L 251.58714,205.71325   C 251.58714,210.66827 257.02168,216.02289 261.93674,216.02289   L 265.85281,216.02289   C 271.20743,216.02289 275.84277,210.06887 275.84277,204.63433   L 275.84277,203.19578   C 275.84277,199.95903 270.76787,192.76626 269.16947,189.56948   C 266.53212,184.1749 267.41124,179.37972 261.93674,176.50261   C 261.93674,188.97008 251.58714,197.08192 251.58714,202.51646   z "
     style="fill:#000000;fill-rule:evenodd;fill-opacity:1;stroke:none;" />
  <path
     id="path25"
     d="  M 186.69237,205.55341   C 187.69136,207.67128 187.77128,209.02992 190.32871,209.62931   L 189.01004,211.14779   C 185.05401,210.14879 186.01305,209.62931 184.61446,206.75221   z  M 190.68835,214.62429   L 194.24478,214.62429   C 199.67931,214.62429 203.15582,209.22972 203.15582,203.55542   C 203.15582,200.55843 198.52048,194.28474 197.00201,191.88715   C 194.84417,188.41064 194.24478,180.65843 191.76727,178.98012   C 191.12791,186.25281 186.33273,193.16586 183.13594,198.16084   C 178.7004,205.03393 182.33674,214.62429 190.68835,214.62429   z "
     style="fill:#000000;fill-rule:evenodd;fill-opacity:1;stroke:none;" />
  <path
     id="path27"
     d="  M 190.68835,214.62429   C 182.33674,214.62429 178.7004,205.03393 183.13594,198.16084   C 186.33273,193.16586 191.12791,186.25281 191.76727,178.98012   C 194.24478,180.65843 194.84417,188.41064 197.00201,191.88715   C 198.52048,194.28474 203.15582,200.55843 203.15582,203.55542   C 203.15582,209.22972 199.67931,214.62429 194.24478,214.62429   z  M 179.97911,202.51646   L 179.97911,204.63433   C 179.97911,210.34859 185.13393,216.02289 190.68835,216.02289   L 194.24478,216.02289   C 199.59939,216.02289 204.23474,210.46847 204.23474,204.99397   L 204.23474,203.55542   C 204.23474,198.88012 199.1998,193.88514 197.48152,189.96907   C 194.84417,184.01506 196.36265,179.69939 190.32871,176.50261   C 190.32871,189.52952 179.97911,196.84217 179.97911,202.51646   z "
     style="fill:#000000;fill-rule:evenodd;fill-opacity:1;stroke:none;" />
  <path
     id="path29"
     d="  M 222.73614,230.64819   C 223.33554,233.16566 224.13474,234.32449 226.65221,234.92389   L 224.81405,236.24257   C 221.69719,234.80401 221.61727,236.00281 220.61827,231.72711   z  M 217.06184,228.17068   C 217.06184,235.16365 220.17871,239.91887 227.01184,239.91887   L 229.16968,239.91887   C 233.7251,239.91887 236.24257,237.52128 237.84096,234.32449   C 239.99879,229.96887 239.07972,226.97188 237.12168,223.41546   C 235.36345,220.21867 233.24558,217.98092 231.80702,214.46445   C 230.56827,211.46747 229.80903,205.43353 227.73112,203.91506   C 226.93192,213.50542 217.06184,224.13474 217.06184,228.17068   z "
     style="fill:#000000;fill-rule:evenodd;fill-opacity:1;stroke:none;" />
  <path
     id="path31"
     d="  M 217.06184,228.17068   C 217.06184,224.13474 226.93192,213.50542 227.73112,203.91506   C 229.80903,205.43353 230.56827,211.46747 231.80702,214.46445   C 233.24558,217.98092 235.36345,220.21867 237.12168,223.41546   C 239.07972,226.97188 239.99879,229.96887 237.84096,234.32449   C 236.24257,237.52128 233.7251,239.91887 229.16968,239.91887   L 227.01184,239.91887   C 220.17871,239.91887 217.06184,235.16365 217.06184,228.17068   z  M 215.98293,227.81104   L 215.98293,230.64819   C 215.98293,243.51526 240.19859,246.27249 240.19859,228.85   L 240.19859,228.17068   C 240.19859,223.3755 234.56425,218.58032 233.20562,214.82409   C 231.12771,208.95 231.64719,204.23474 226.29257,201.43755   C 226.29257,214.62429 215.98293,220.85803 215.98293,227.81104   z "
     style="fill:#000000;fill-rule:evenodd;fill-opacity:1;stroke:none;" />
  <path
     id="path33"
     d="  M 215.98293,227.81104   C 215.98293,220.85803 226.29257,214.62429 226.29257,201.43755   C 231.64719,204.23474 231.12771,208.95 233.20562,214.82409   C 234.56425,218.58032 240.19859,223.3755 240.19859,228.17068   L 240.19859,228.85   C 240.19859,246.27249 215.98293,243.51526 215.98293,230.64819   z  M 251.58714,202.51646   C 251.58714,197.08192 261.93674,188.97008 261.93674,176.50261   C 267.41124,179.37972 266.53212,184.1749 269.16947,189.56948   C 270.76787,192.76626 275.84277,199.95903 275.84277,203.19578   L 275.84277,204.63433   C 275.84277,210.06887 271.20743,216.02289 265.85281,216.02289   L 261.93674,216.02289   C 257.02168,216.02289 251.58714,210.66827 251.58714,205.71325   z  M 179.97911,202.51646   C 179.97911,196.88213 190.32871,189.52952 190.32871,176.50261   C 196.36265,179.69939 194.84417,184.01506 197.48152,189.96907   C 199.1998,193.88514 204.23474,198.88012 204.23474,203.55542   L 204.23474,204.99397   C 204.23474,210.46847 199.59939,216.02289 194.24478,216.02289   L 190.68835,216.02289   C 185.13393,216.02289 179.97911,210.34859 179.97911,204.63433   z  M 227.6512,265.65301   L 322.15622,171.14799   L 133.2261,171.22791   z "
     style="fill:#ffffff;fill-rule:evenodd;fill-opacity:1;stroke:none;" />
  <path
     id="path35"
     d="  M 133.2261,171.22791   L 322.15622,171.14799   L 227.6512,265.65301   z  M 293.98453,140.85843   C 295.50301,141.85743 308.60983,154.96425 308.60983,155.84337   L 308.60983,169.70944   L 293.98453,169.70944   z  M 264.41425,111.28815   C 265.93273,112.28715 279.03955,125.39397 279.03955,126.27309   L 279.03955,169.70944   L 264.41425,169.70944   z  M 205.63333,97.022489   C 205.63333,96.183332 218.78012,83.076505 220.25863,82.077509   L 220.25863,169.70944   L 205.63333,169.70944   z  M 176.42269,126.27309   C 176.42269,125.39397 189.56948,112.28715 191.04799,111.28815   L 191.04799,169.70944   L 176.42269,169.70944   z  M 161.39779,140.77851   L 161.47771,169.70944   L 147.21205,169.70944   L 147.21205,156.20301   C 147.21205,155.48373 147.09217,155.56365 146.93233,155.20401   z  M 235.20361,82.077509   L 250.10863,96.78273   C 249.70903,97.621886 249.82891,96.383131 249.82891,97.741766   L 249.82891,169.70944   L 235.20361,169.70944   z  M 123.95542,169.98915   L 227.81104,273.84478   L 331.50682,169.98915   L 227.6512,66.293373   z "
     style="fill:#000000;fill-rule:evenodd;fill-opacity:1;stroke:none;" />
</svg>
