<?xml version="1.0" encoding="UTF-8" standalone="no"?>
<svg
   xmlns:dc="http://purl.org/dc/elements/1.1/"
   xmlns:cc="http://creativecommons.org/ns#"
   xmlns:rdf="http://www.w3.org/1999/02/22-rdf-syntax-ns#"
   xmlns:svg="http://www.w3.org/2000/svg"
   xmlns="http://www.w3.org/2000/svg"
   id="svg27"
   height="95.75mm"
   width="95.75mm"
   version="1.0">
  <metadata
     id="metadata31">
    <rdf:RDF>
      <cc:Work
         rdf:about="">
        <dc:format>image/svg+xml</dc:format>
        <dc:type
           rdf:resource="http://purl.org/dc/dcmitype/StillImage" />
      </cc:Work>
    </rdf:RDF>
  </metadata>
  <defs
     id="defs3">
    <pattern
       y="0"
       x="0"
       height="6"
       width="6"
       patternUnits="userSpaceOnUse"
       id="EMFhbasepattern" />
  </defs>
  <path
     id="path5"
     d="  M 132.98634,15.983936   L 132.98634,54.345381   L 228.88996,54.345381   L 228.88996,15.983936   L 132.98634,15.983936   z "
     style="fill:#000000;fill-rule:evenodd;fill-opacity:1;stroke:none;" />
  <path
     id="path7"
     d="  M 54.345381,54.345381   L 54.345381,307.53092   L 307.53092,307.53092   L 307.53092,54.345381   L 54.345381,54.345381   z "
     style="fill:#aaffaa;fill-rule:evenodd;fill-opacity:1;stroke:none;" />
  <path
     id="path9"
     d="  M 54.345381,54.345381   L 307.53092,54.345381   L 307.53092,307.53092   L 54.345381,307.53092   z "
     style="fill:none;stroke:#000000;stroke-width:9.5903616px;stroke-linecap:butt;stroke-linejoin:miter;stroke-miterlimit:10;stroke-dasharray:none;stroke-opacity:1;" />
  <path
     id="path11"
     d="  M 180.33875,237.04176   L 131.26807,189.28976   L 180.33875,141.41787   L 229.48935,189.40964   L 180.33875,237.04176  z    M 192.68634,139.33996   L 99.739758,139.33996   L 99.739758,238.72008   L 261.21747,238.72008   L 261.21747,139.33996   L 243.23554,139.33996   L 243.23554,103.3761   L 231.24759,103.3761   L 231.24759,139.33996   L 204.67429,139.33996   L 204.67429,103.3761   L 192.68634,103.3761   L 192.68634,139.33996  z   "
     style="fill:#ffffff;fill-rule:evenodd;fill-opacity:1;stroke:none;" />
  <path
     id="path13"
     d="  M 145.13413,178.34076   L 145.13413,188.61044   L 153.7255,188.61044   L 153.7255,169.7494   C 152.56666,170.50863 145.13413,177.26184 145.13413,178.34076   z "
     style="fill:#ffffff;fill-rule:evenodd;fill-opacity:1;stroke:none;" />
  <path
     id="path15"
     d="  M 164.2749,159.31988   L 164.2749,159.31988   L 163.99518,188.61044   L 174.26486,188.61044   L 174.18494,149.52972   z "
     style="fill:#ffffff;fill-rule:evenodd;fill-opacity:1;stroke:none;" />
  <path
     id="path17"
     d="  M 186.25281,188.61044   L 196.52249,188.61044   L 196.52249,159.91927   C 196.52249,158.84036 187.53152,150.44879 186.25281,149.60964   z "
     style="fill:#ffffff;fill-rule:evenodd;fill-opacity:1;stroke:none;" />
  <path
     id="path19"
     d="  M 206.83213,188.61044   L 215.38353,188.61044   L 215.38353,179.17992   C 215.38353,177.54156 215.26365,179.02008 215.74317,177.98112   L 206.83213,169.7494   z "
     style="fill:#ffffff;fill-rule:evenodd;fill-opacity:1;stroke:none;" />
  <path
     id="path21"
     d="  M 180.13895,234.52429   L 180.13895,234.52429   L 226.53233,189.88915   L 133.98534,189.92911   z "
     style="fill:#ffffff;fill-rule:evenodd;fill-opacity:1;stroke:none;" />
  <path
     id="path23"
     d="  M 133.98534,189.92911   L 226.53233,189.88915   L 180.13895,234.52429   z  M 186.25281,149.60964   C 187.53152,150.44879 196.52249,158.84036 196.52249,159.91927   L 196.52249,188.61044   L 186.25281,188.61044   z  M 174.18494,149.52972   L 174.26486,188.61044   L 163.99518,188.61044   L 164.2749,159.31988   L 174.18494,149.52972   z  M 145.13413,178.34076   C 145.13413,177.26184 152.56666,170.50863 153.7255,169.7494   L 153.7255,188.61044   L 145.13413,188.61044   z  M 206.83213,169.7494   L 215.74317,177.98112   C 215.26365,179.02008 215.38353,177.54156 215.38353,179.17992   L 215.38353,188.61044   L 206.83213,188.61044   z  M 229.48935,189.40964   L 180.33875,141.41787   L 131.26807,189.28976   L 180.33875,237.04176   z "
     style="fill:#000000;fill-rule:evenodd;fill-opacity:1;stroke:none;" />
  <path
     id="path25"
     d="  M 192.68634,103.3761   L 204.67429,103.3761   L 204.67429,139.33996   L 231.24759,139.33996   L 231.24759,103.3761   L 243.23554,103.3761   L 243.23554,139.33996   L 261.21747,139.33996   L 261.21747,238.72008   L 99.739758,238.72008   L 99.739758,139.33996   L 192.68634,139.33996   L 192.68634,103.3761  z    M 96.74277,242.15662   L 264.21445,242.15662   L 264.21445,136.34297   L 247.07168,136.34297   L 247.07168,99.939557   L 227.81104,99.939557   L 227.81104,136.34297   L 208.5504,136.34297   L 208.5504,99.939557   L 189.2498,99.939557   L 189.2498,136.34297   L 96.74277,136.34297   L 96.74277,242.15662   L 96.74277,242.15662  z   "
     style="fill:#000000;fill-rule:evenodd;fill-opacity:1;stroke:none;" />
</svg>
