<?xml version="1.0" encoding="UTF-8" standalone="no"?>
<svg
   xmlns:dc="http://purl.org/dc/elements/1.1/"
   xmlns:cc="http://creativecommons.org/ns#"
   xmlns:rdf="http://www.w3.org/1999/02/22-rdf-syntax-ns#"
   xmlns:svg="http://www.w3.org/2000/svg"
   xmlns="http://www.w3.org/2000/svg"
   id="svg25"
   height="89.669998mm"
   width="120.11mm"
   version="1.0">
  <metadata
     id="metadata29">
    <rdf:RDF>
      <cc:Work
         rdf:about="">
        <dc:format>image/svg+xml</dc:format>
        <dc:type
           rdf:resource="http://purl.org/dc/dcmitype/StillImage" />
      </cc:Work>
    </rdf:RDF>
  </metadata>
  <defs
     id="defs3">
    <pattern
       y="0"
       x="0"
       height="6"
       width="6"
       patternUnits="userSpaceOnUse"
       id="EMFhbasepattern" />
  </defs>
  <path
     id="path5"
     d="  M 179.02008,15.983936   L 179.02008,54.345381   L 274.92369,54.345381   L 274.92369,15.983936   L 179.02008,15.983936   z "
     style="fill:#000000;fill-rule:evenodd;fill-opacity:1;stroke:none;" />
  <path
     id="path7"
     d="  M 54.345381,54.345381   L 54.345381,284.51405   L 399.59839,284.51405   L 399.59839,54.345381   L 54.345381,54.345381   z "
     style="fill:#80e0ff;fill-rule:evenodd;fill-opacity:1;stroke:none;" />
  <path
     id="path9"
     d="  M 54.345381,54.345381   L 399.59839,54.345381   L 399.59839,284.51405   L 54.345381,284.51405   z "
     style="fill:none;stroke:#000000;stroke-width:9.5903616px;stroke-linecap:butt;stroke-linejoin:miter;stroke-miterlimit:10;stroke-dasharray:none;stroke-opacity:1;" />
  <path
     id="path11"
     d="  M 174.2249,183.73534   L 174.2249,199.11988   L 187.09197,199.11988   L 187.09197,170.86827   C 185.37369,171.98715 174.2249,182.13695 174.2249,183.73534   z "
     style="fill:#ffffff;fill-rule:evenodd;fill-opacity:1;stroke:none;" />
  <path
     id="path13"
     d="  M 202.91606,155.24397   L 202.91606,155.24397   L 202.4765,199.11988   L 217.901,199.11988   L 217.78112,140.53875   z "
     style="fill:#ffffff;fill-rule:evenodd;fill-opacity:1;stroke:none;" />
  <path
     id="path15"
     d="  M 235.92289,199.11988   L 251.30743,199.11988   L 251.30743,156.08313   C 251.30743,154.5247 237.801,141.93735 235.92289,140.65863   z "
     style="fill:#ffffff;fill-rule:evenodd;fill-opacity:1;stroke:none;" />
  <path
     id="path17"
     d="  M 266.73192,199.11988   L 279.59899,199.11988   L 279.59899,185.01405   C 279.59899,182.53654 279.39919,184.77429 280.11847,183.21586   L 266.73192,170.86827   z "
     style="fill:#ffffff;fill-rule:evenodd;fill-opacity:1;stroke:none;" />
  <path
     id="path19"
     d="  M 226.73213,268.0506   L 226.73213,268.0506   L 296.3022,201.07791   L 157.48172,201.11787   z "
     style="fill:#ffffff;fill-rule:evenodd;fill-opacity:1;stroke:none;" />
  <path
     id="path21"
     d="  M 157.48172,201.11787   L 296.3022,201.07791   L 226.73213,268.0506   z  M 235.92289,140.65863   C 237.801,141.93735 251.30743,154.5247 251.30743,156.08313   L 251.30743,199.11988   L 235.92289,199.11988   z  M 217.78112,140.53875   L 217.901,199.11988   L 202.4765,199.11988   L 202.91606,155.24397   L 217.78112,140.53875   z  M 174.2249,183.73534   C 174.2249,182.13695 185.37369,171.98715 187.09197,170.86827   L 187.09197,199.11988   L 174.2249,199.11988   z  M 266.73192,170.86827   L 280.11847,183.21586   C 279.39919,184.77429 279.59899,182.53654 279.59899,185.01405   L 279.59899,199.11988   L 266.73192,199.11988   z  M 300.73775,200.35863   L 227.01184,128.39096   L 153.40582,200.15883   L 227.01184,271.80682   z "
     style="fill:#000000;fill-rule:evenodd;fill-opacity:1;stroke:none;" />
  <path
     id="path23"
     d="  M 161.15803,103.3761   L 165.59357,102.9765   C 165.79337,104.7747 166.31285,106.25321 167.07209,107.41205   C 167.83132,108.53092 169.03012,109.45 170.66847,110.16928   C 172.26686,110.88855 174.10502,111.20823 176.14297,111.20823   C 177.94116,111.20823 179.53956,110.96847 180.89819,110.40903   C 182.29678,109.88956 183.33574,109.17028 183.9751,108.21124   C 184.65442,107.29217 185.01405,106.25321 185.01405,105.1743   C 185.01405,104.05542 184.69437,103.05642 184.01506,102.21727   C 183.3757,101.37811 182.29678,100.69879 180.81827,100.13936   C 179.85923,99.739758 177.74136,99.18032 174.46466,98.381123   C 171.18795,97.581926 168.87028,96.862649 167.5516,96.143372   C 165.87329,95.264256 164.59458,94.14538 163.75542,92.826705   C 162.91626,91.508031 162.51666,90.029517 162.51666,88.391163   C 162.51666,86.592971 162.99618,84.914657 164.03514,83.316264   C 165.07409,81.75783 166.55261,80.598995 168.51064,79.759838   C 170.46867,78.960641 172.66646,78.561043 175.06405,78.561043   C 177.7014,78.561043 180.05903,78.960641 182.05703,79.839758   C 184.09498,80.678914 185.65341,81.917669 186.73233,83.595983   C 187.81124,85.234336 188.41064,87.112449 188.49056,89.23032   L 183.9751,89.549999   C 183.69538,87.312248 182.89618,85.593975 181.49759,84.435139   C 180.09899,83.276304 178.02108,82.716866 175.26385,82.716866   C 172.38674,82.716866 170.30883,83.236344 169.03012,84.2753   C 167.71144,85.314256 167.07209,86.592971 167.07209,88.071485   C 167.07209,89.3502 167.51164,90.389155 168.43072,91.228312   C 169.3498,92.067469 171.74739,92.906625 175.58353,93.785742   C 179.41968,94.664858 182.05703,95.424095 183.45562,96.063452   C 185.53353,97.022489 187.09197,98.221284 188.051,99.699798   C 189.05,101.17831 189.56948,102.85663 189.56948,104.7747   C 189.56948,106.69277 189.01004,108.451 187.93112,110.12932   C 186.85221,111.80763 185.29377,113.1263 183.25582,114.04538   C 181.21787,115.00442 178.9002,115.44397 176.34277,115.44397   C 173.14598,115.44397 170.42871,115.00442 168.23092,114.04538   C 166.07309,113.1263 164.35482,111.68775 163.11606,109.80964   C 161.87731,107.93152 161.19799,105.77369 161.15803,103.3761   z  M 205.07389,114.84458   L 205.07389,83.356224   L 193.3257,83.356224   L 193.3257,79.160441   L 221.61727,79.160441   L 221.61727,83.356224   L 209.82911,83.356224   L 209.82911,114.84458   z  M 225.05381,97.462047   C 225.05381,91.547991 226.61225,86.912649 229.80903,83.556023   C 233.00582,80.199396 237.08172,78.521083 242.11666,78.521083   C 245.43333,78.521083 248.39036,79.32028 251.02771,80.878714   C 253.70502,82.477107 255.70301,84.674898 257.1016,87.472087   C 258.5002,90.309236 259.17951,93.466063 259.17951,97.062448   C 259.17951,100.65883 258.46024,103.89558 256.98172,106.77269   C 255.50321,109.6498 253.46526,111.80763 250.78795,113.24618   C 248.11064,114.7247 245.19357,115.44397 242.11666,115.44397   C 238.76004,115.44397 235.72309,114.64478 233.08574,113.04638   C 230.44839,111.40803 228.4504,109.21024 227.09176,106.37309   C 225.73313,103.5759 225.05381,100.61887 225.05381,97.462047   z  M 229.88895,97.541966   C 229.88895,101.85763 231.04779,105.25422 233.36546,107.69177   C 235.68313,110.16928 238.6002,111.40803 242.0767,111.40803   C 245.63313,111.40803 248.5502,110.16928 250.86787,107.69177   C 253.14558,105.1743 254.30441,101.61787 254.30441,97.022489   C 254.30441,94.14538 253.8249,91.58795 252.8259,89.430119   C 251.86686,87.272288 250.42831,85.593975 248.51024,84.39518   C 246.63212,83.196384 244.51425,82.596987 242.15662,82.596987   C 238.8,82.596987 235.92289,83.755822 233.5253,86.033533   C 231.12771,88.351204 229.88895,92.187348 229.88895,97.541966   z  M 265.33333,114.84458   L 265.33333,79.160441   L 281.15743,79.160441   C 284.35421,79.160441 286.7518,79.480119 288.43012,80.119477   C 290.06847,80.758834 291.38714,81.87771 292.38614,83.516063   C 293.38514,85.154416 293.86465,86.952609 293.86465,88.910641   C 293.86465,91.428111 293.06546,93.585942 291.4271,95.304215   C 289.78875,97.022489 287.23132,98.141364 283.83473,98.620882   C 285.07349,99.22028 286.03253,99.819677 286.67188,100.37912   C 288.03052,101.65783 289.34919,103.25622 290.58795,105.13434   L 296.78172,114.84458   L 290.86767,114.84458   L 286.11245,107.41205   C 284.75381,105.29418 283.59498,103.65582 282.71586,102.49699   C 281.83674,101.37811 281.03755,100.57891 280.31827,100.13936   C 279.59899,99.659838 278.87971,99.340159 278.16044,99.18032   C 277.64096,99.06044 276.76184,99.02048 275.52309,99.02048   L 270.04859,99.02048   L 270.04859,114.84458   z  M 270.04859,94.904617   L 280.19839,94.904617   C 282.35622,94.904617 284.07449,94.704818 285.27329,94.2253   C 286.51204,93.785742 287.43112,93.066465 288.07048,92.107428   C 288.66988,91.108432 288.98955,90.069477 288.98955,88.910641   C 288.98955,87.192368 288.39016,85.833734 287.1514,84.714858   C 285.95261,83.635943 283.99457,83.116465 281.35722,83.116465   L 270.04859,83.116465   z "
     style="fill:#000000;fill-rule:evenodd;fill-opacity:1;stroke:none;" />
</svg>
