<?xml version="1.0" encoding="UTF-8" standalone="no"?>
<svg
   xmlns:dc="http://purl.org/dc/elements/1.1/"
   xmlns:cc="http://creativecommons.org/ns#"
   xmlns:rdf="http://www.w3.org/1999/02/22-rdf-syntax-ns#"
   xmlns:svg="http://www.w3.org/2000/svg"
   xmlns="http://www.w3.org/2000/svg"
   id="svg23"
   height="130.27mm"
   width="130.27mm"
   version="1.0">
  <metadata
     id="metadata27">
    <rdf:RDF>
      <cc:Work
         rdf:about="">
        <dc:format>image/svg+xml</dc:format>
        <dc:type
           rdf:resource="http://purl.org/dc/dcmitype/StillImage" />
      </cc:Work>
    </rdf:RDF>
  </metadata>
  <defs
     id="defs3">
    <pattern
       y="0"
       x="0"
       height="6"
       width="6"
       patternUnits="userSpaceOnUse"
       id="EMFhbasepattern" />
  </defs>
  <path
     id="path5"
     d="  M 198.2008,63.935742   L 198.2008,111.88755   L 294.10441,111.88755   L 294.10441,63.935742   L 198.2008,63.935742   z "
     style="fill:#000000;fill-rule:evenodd;fill-opacity:1;stroke:none;" />
  <path
     id="path7"
     d="  M 164.63454,327.67068   C 164.63454,437.95983 327.67068,437.95983 327.67068,327.67068   C 437.95983,327.67068 437.95983,164.63454 327.67068,164.63454   C 327.67068,54.345381 164.63454,54.345381 164.63454,164.63454   C 54.345381,164.63454 54.345381,327.67068 164.63454,327.67068   z "
     style="fill:#ffff80;fill-rule:evenodd;fill-opacity:1;stroke:none;" />
  <path
     id="path9"
     d="  M 164.63454,327.67068   C 164.63454,437.95983 327.67068,437.95983 327.67068,327.67068   C 437.95983,327.67068 437.95983,164.63454 327.67068,164.63454   C 327.67068,54.345381 164.63454,54.345381 164.63454,164.63454   C 54.345381,164.63454 54.345381,327.67068 164.63454,327.67068  "
     style="fill:none;stroke:#000000;stroke-width:9.5903616px;stroke-linecap:butt;stroke-linejoin:miter;stroke-miterlimit:10;stroke-dasharray:none;stroke-opacity:1;" />
  <path
     id="path11"
     d="  M 170.22891,198.4006   L 170.22891,198.4006   L 320.99738,198.68032   L 245.63313,162.19699   z "
     style="fill:#000000;fill-rule:evenodd;fill-opacity:1;stroke:none;" />
  <path
     id="path13"
     d="  M 210.66827,258.46024   L 210.66827,258.46024   L 233.5253,258.46024   L 233.5253,281.27731   L 257.82088,281.27731   L 257.82088,258.46024   L 280.63795,258.46024   L 280.63795,233.64518   L 257.82088,233.64518   L 257.82088,210.30863   L 233.5253,210.30863   L 233.5253,233.64518   L 210.66827,233.64518   z "
     style="fill:#000000;fill-rule:evenodd;fill-opacity:1;stroke:none;" />
  <path
     id="path15"
     d="  M 178.58052,213.74518   L 178.58052,213.74518   L 181.49759,213.74518   L 181.49759,280.31827   L 178.58052,280.31827   L 178.58052,289.54899   L 196.08293,289.54899   L 196.08293,280.31827   L 192.68634,280.31827   L 192.68634,213.74518   L 196.08293,213.74518   L 196.08293,204.99397   L 178.58052,204.99397   z "
     style="fill:#000000;fill-rule:evenodd;fill-opacity:1;stroke:none;" />
  <path
     id="path17"
     d="  M 295.22329,213.74518   L 295.22329,213.74518   L 298.14036,213.74518   L 298.14036,280.31827   L 295.22329,280.31827   L 295.22329,289.54899   L 312.7257,289.54899   L 312.7257,280.31827   L 309.32911,280.31827   L 309.32911,213.74518   L 312.7257,213.74518   L 312.7257,204.99397   L 295.22329,204.99397   z "
     style="fill:#000000;fill-rule:evenodd;fill-opacity:1;stroke:none;" />
  <path
     id="path19"
     d="  M 174.2249,299.73875   L 174.2249,299.73875   L 316.6018,299.73875   L 316.6018,292.46606   L 174.2249,292.46606   z "
     style="fill:#000000;fill-rule:evenodd;fill-opacity:1;stroke:none;" />
  <path
     id="path21"
     d="  M 169.82931,313.84457   L 169.82931,313.84457   L 321.4769,313.84457   L 321.4769,307.0514   L 169.82931,307.0514   z "
     style="fill:#000000;fill-rule:evenodd;fill-opacity:1;stroke:none;" />
</svg>
