<?xml version="1.0" encoding="UTF-8" standalone="no"?>
<svg
   xmlns:dc="http://purl.org/dc/elements/1.1/"
   xmlns:cc="http://creativecommons.org/ns#"
   xmlns:rdf="http://www.w3.org/1999/02/22-rdf-syntax-ns#"
   xmlns:svg="http://www.w3.org/2000/svg"
   xmlns="http://www.w3.org/2000/svg"
   id="svg11"
   height="116.73mm"
   width="116.73mm"
   version="1.0">
  <metadata
     id="metadata15">
    <rdf:RDF>
      <cc:Work
         rdf:about="">
        <dc:format>image/svg+xml</dc:format>
        <dc:type
           rdf:resource="http://purl.org/dc/dcmitype/StillImage" />
      </cc:Work>
    </rdf:RDF>
  </metadata>
  <defs
     id="defs3">
    <pattern
       y="0"
       x="0"
       height="6"
       width="6"
       patternUnits="userSpaceOnUse"
       id="EMFhbasepattern" />
  </defs>
  <path
     id="path5"
     d="  M 220.57831,386.49156   L 220.57831,386.49156   L 386.49156,220.57831   L 220.57831,54.665059   L 54.665059,220.57831   L 220.57831,386.49156   z "
     style="fill:#ff8080;fill-rule:evenodd;fill-opacity:1;stroke:none;" />
  <path
     id="path7"
     d="  M 220.57831,386.49156   L 220.57831,386.49156   L 386.49156,220.57831   L 220.57831,54.665059   L 54.665059,220.57831   L 220.57831,386.49156  "
     style="fill:none;stroke:#000000;stroke-width:9.5903616px;stroke-linecap:butt;stroke-linejoin:miter;stroke-miterlimit:10;stroke-dasharray:none;stroke-opacity:1;" />
  <path
     id="path9"
     d="  M 252.38634,145.45381   L 242.63614,153.28594   L 224.97389,136.06325   L 224.97389,325.71265   L 214.18474,325.71265   L 214.18474,137.10221   L 196.80221,153.1261   L 188.93012,145.89337   L 220.49839,116.04337   L 252.38634,145.45381  z    M 214.18474,257.5012   L 214.18474,246.59217   L 189.84919,246.59217   L 189.84919,257.5012   L 214.18474,257.5012  z    M 214.18474,208.3506   L 214.18474,197.48152   L 190.68835,197.48152   L 190.68835,208.3506   L 214.18474,208.3506  z    M 214.18474,232.08674   L 214.18474,221.53735   L 190.68835,221.53735   L 190.68835,232.08674   L 214.18474,232.08674  z    M 248.67008,208.3506   L 248.67008,197.88112   L 224.97389,197.88112   L 224.97389,208.3506   L 248.67008,208.3506  z    M 248.67008,232.08674   L 248.67008,221.53735   L 224.97389,221.53735   L 224.97389,232.08674   L 248.67008,232.08674  z    M 248.67008,257.86084   L 248.67008,246.59217   L 224.97389,246.59217   L 224.97389,257.86084   L 248.67008,257.86084  z   "
     style="fill:#000000;fill-rule:evenodd;fill-opacity:1;stroke:none;" />
</svg>
