<?xml version="1.0" encoding="UTF-8" standalone="no"?>
<svg
   xmlns:dc="http://purl.org/dc/elements/1.1/"
   xmlns:cc="http://creativecommons.org/ns#"
   xmlns:rdf="http://www.w3.org/1999/02/22-rdf-syntax-ns#"
   xmlns:svg="http://www.w3.org/2000/svg"
   xmlns="http://www.w3.org/2000/svg"
   id="svg13"
   height="112.9mm"
   width="112.9mm"
   version="1.0">
  <metadata
     id="metadata17">
    <rdf:RDF>
      <cc:Work
         rdf:about="">
        <dc:format>image/svg+xml</dc:format>
        <dc:type
           rdf:resource="http://purl.org/dc/dcmitype/StillImage" />
      </cc:Work>
    </rdf:RDF>
  </metadata>
  <defs
     id="defs3">
    <pattern
       y="0"
       x="0"
       height="6"
       width="6"
       patternUnits="userSpaceOnUse"
       id="EMFhbasepattern" />
  </defs>
  <path
     id="path5"
     d="  M 451.74134,451.72623   L 600.99177,451.72623   L 600.99177,643.62504   L 451.74134,643.62504   L 451.74134,451.72623   z "
     style="fill:none;stroke:#000000;stroke-width:5.3263254px;stroke-linecap:butt;stroke-linejoin:miter;stroke-miterlimit:112;stroke-dasharray:none;stroke-opacity:1;" />
  <path
     id="path7"
     d="  M 451.74134,644.72053   L 526.34767,744.90078   L 600.99177,644.72053  "
     style="fill:none;stroke:#000000;stroke-width:5.3263254px;stroke-linecap:butt;stroke-linejoin:miter;stroke-miterlimit:112;stroke-dasharray:none;stroke-opacity:1;" />
  <path
     id="path9"
     d="  M 485.77693,522.63057   L 485.77693,476.80906   L 494.99412,476.80906   L 494.99412,494.86568   L 513.12629,494.86568   L 513.12629,476.80906   L 522.38126,476.80906   L 522.38126,522.63057   L 513.12629,522.63057   L 513.12629,502.60963   L 494.99412,502.60963   L 494.99412,522.63057   L 485.77693,522.63057   z "
     style="fill:#000000;fill-rule:nonzero;fill-opacity:1;stroke:none;" />
  <path
     id="path11"
     d="  M 531.93842,522.63057   L 531.93842,476.80906   L 546.78414,476.80906   C 552.41266,476.80906 556.07687,477.03572 557.77677,477.5268   C 560.42104,478.20675 562.61201,479.67999 564.38745,481.98429   C 566.1629,484.28858 567.03173,487.27284 567.03173,490.89927   C 567.03173,493.73242 566.50287,496.0745 565.48294,498.00104   C 564.463,499.92758 563.17864,501.4386 561.62985,502.49631   C 560.04329,503.59179 558.45672,504.3473 556.83238,504.68728   C 554.60364,505.14058 551.43051,505.32946 547.23744,505.32946   L 541.19338,505.32946   L 541.19338,522.63057   L 531.93842,522.63057   z  M 541.19338,484.55301   L 541.19338,497.54774   L 546.25528,497.54774   C 549.91949,497.54774 552.33711,497.32108 553.5837,496.83   C 554.79251,496.3767 555.77467,495.62119 556.45463,494.60126   C 557.17236,493.58132 557.51234,492.37251 557.51234,491.05037   C 557.51234,489.38826 557.02126,487.99057 556.0391,486.89508   C 555.05694,485.83737 553.81035,485.15742 552.33711,484.89299   C 551.20385,484.66634 549.01288,484.55301 545.65088,484.55301   L 541.19338,484.55301   z "
     style="fill:#000000;fill-rule:nonzero;fill-opacity:1;stroke:none;" />
</svg>
