<?xml version="1.0" encoding="UTF-8" standalone="no"?>
<svg
   xmlns:dc="http://purl.org/dc/elements/1.1/"
   xmlns:cc="http://creativecommons.org/ns#"
   xmlns:rdf="http://www.w3.org/1999/02/22-rdf-syntax-ns#"
   xmlns:svg="http://www.w3.org/2000/svg"
   xmlns="http://www.w3.org/2000/svg"
   id="svg13"
   height="112.9mm"
   width="112.9mm"
   version="1.0">
  <metadata
     id="metadata17">
    <rdf:RDF>
      <cc:Work
         rdf:about="">
        <dc:format>image/svg+xml</dc:format>
        <dc:type
           rdf:resource="http://purl.org/dc/dcmitype/StillImage" />
      </cc:Work>
    </rdf:RDF>
  </metadata>
  <defs
     id="defs3">
    <pattern
       y="0"
       x="0"
       height="6"
       width="6"
       patternUnits="userSpaceOnUse"
       id="EMFhbasepattern" />
  </defs>
  <path
     id="path5"
     d="  M 1055.3824,1055.5085   L 1203.488,1055.5085   L 1203.488,1246.2484   L 1055.3824,1246.2484   z "
     style="fill:none;stroke:#ff0000;stroke-width:5.3245535px;stroke-linecap:butt;stroke-linejoin:miter;stroke-miterlimit:282;stroke-dasharray:none;stroke-opacity:1;" />
  <path
     id="path7"
     d="  M 1055.3824,1248.4386   L 1129.9639,1348.5855   L 1204.5832,1248.4386  "
     style="fill:none;stroke:#ff0000;stroke-width:5.3245535px;stroke-linecap:butt;stroke-linejoin:miter;stroke-miterlimit:282;stroke-dasharray:none;stroke-opacity:1;" />
  <path
     id="path9"
     d="  M 1089.3689,1126.3893   L 1089.3689,1080.583   L 1098.583,1080.583   L 1098.583,1098.6336   L 1116.7092,1098.6336   L 1116.7092,1080.583   L 1125.961,1080.583   L 1125.961,1126.3893   L 1116.7092,1126.3893   L 1116.7092,1106.375   L 1098.583,1106.375   L 1098.583,1126.3893   z "
     style="fill:#ff0000;fill-rule:nonzero;fill-opacity:1;stroke:none;" />
  <path
     id="path11"
     d="  M 1135.5528,1126.3893   L 1135.5528,1080.583   L 1150.3558,1080.583   C 1155.9825,1080.583 1159.6454,1080.8096 1161.3448,1081.3005   C 1163.9882,1081.9802 1166.1784,1083.453 1167.9533,1085.7565   C 1169.7281,1088.06 1170.5967,1091.0433 1170.5967,1094.6685   C 1170.5967,1097.5007 1170.1057,1099.842 1169.0861,1101.7679   C 1168.0665,1103.6938 1166.7449,1105.2044 1165.1966,1106.2617   C 1163.6105,1107.3568 1162.0245,1108.1121 1160.4007,1108.452   C 1158.1727,1108.9051 1155.0006,1109.0939 1150.809,1109.0939   L 1144.7669,1109.0939   L 1144.7669,1126.3893   z  M 1144.7669,1088.3244   L 1144.7669,1101.3148   L 1149.8271,1101.3148   C 1153.4901,1101.3148 1155.9069,1101.0882 1157.1531,1100.5973   C 1158.3615,1100.1441 1159.3433,1099.3889 1160.0231,1098.3693   C 1160.7406,1097.3497 1161.0804,1096.1413 1161.0804,1094.8196   C 1161.0804,1093.158 1160.5895,1091.7608 1159.6077,1090.6657   C 1158.6259,1089.6083 1157.3797,1088.9286 1155.9069,1088.6643   C 1154.774,1088.4377 1152.5838,1088.3244 1149.2607,1088.3244   z "
     style="fill:#ff0000;fill-rule:nonzero;fill-opacity:1;stroke:none;" />
</svg>
