<?xml version="1.0" encoding="UTF-8" standalone="no"?>
<svg
   xmlns:dc="http://purl.org/dc/elements/1.1/"
   xmlns:cc="http://creativecommons.org/ns#"
   xmlns:rdf="http://www.w3.org/1999/02/22-rdf-syntax-ns#"
   xmlns:svg="http://www.w3.org/2000/svg"
   xmlns="http://www.w3.org/2000/svg"
   id="svg11"
   height="89.669998mm"
   width="120.11mm"
   version="1.0">
  <metadata
     id="metadata15">
    <rdf:RDF>
      <cc:Work
         rdf:about="">
        <dc:format>image/svg+xml</dc:format>
        <dc:type
           rdf:resource="http://purl.org/dc/dcmitype/StillImage" />
      </cc:Work>
    </rdf:RDF>
  </metadata>
  <defs
     id="defs3">
    <pattern
       y="0"
       x="0"
       height="6"
       width="6"
       patternUnits="userSpaceOnUse"
       id="EMFhbasepattern" />
  </defs>
  <path
     id="path5"
     d="  M 54.345381,54.345381   L 54.345381,284.51405   L 399.59839,284.51405   L 399.59839,54.345381   L 54.345381,54.345381   z "
     style="fill:#80e0ff;fill-rule:evenodd;fill-opacity:1;stroke:none;" />
  <path
     id="path7"
     d="  M 54.345381,54.345381   L 399.59839,54.345381   L 399.59839,284.51405   L 54.345381,284.51405   z "
     style="fill:none;stroke:#000000;stroke-width:9.5903616px;stroke-linecap:butt;stroke-linejoin:miter;stroke-miterlimit:10;stroke-dasharray:none;stroke-opacity:1;" />
  <path
     id="path9"
     d="  M 316.48192,135.22409   C 316.48192,137.46185 315.68273,139.53976 314.00441,141.45783   C 312.3261,143.41586 310.68775,144.3749 309.00943,144.3749   C 307.09136,144.3749 305.69277,144.09518 304.85361,143.53574   C 303.21526,142.17711 300.57791,140.21907 296.98152,137.74156   L 289.90863,136.50281   C 286.83172,135.94337 285.03353,134.70462 284.51405,132.74658   C 278.12048,134.70462 271.7269,141.33795 265.37329,152.68654   C 264.53413,156.00321 263.01566,160.43875 260.81787,165.99317   C 258.3004,170.14899 254.42429,177.62148 249.18955,188.41064   C 245.55321,197.84116 243.79498,208.19076 243.79498,219.53935   C 243.79498,221.49739 244.75401,223.9749 246.752,227.01184   C 249.58915,231.44739 251.18755,234.08474 251.46727,234.88393   L 241.6771,234.88393   C 239.99879,232.96586 238.28052,229.32951 236.60221,224.05482   C 236.60221,222.09678 236.92188,219.25964 237.6012,215.50341   C 238.28052,211.74719 238.64016,208.91004 238.64016,206.95201   C 237.801,207.79116 236.96184,209.26968 236.12269,211.50743   C 235.28353,220.05883 234.88393,224.21466 234.88393,223.89498   C 234.88393,224.73413 235.96285,227.93092 238.2006,233.44538   L 227.37148,233.44538   C 226.77209,231.80702 226.53233,229.28955 226.53233,225.97289   C 226.53233,224.33453 227.2516,220.81807 228.81004,215.42349   C 230.32851,210.02891 231.08775,206.39257 231.08775,204.43454   C 231.08775,197.84116 231.36747,189.2498 231.96686,178.74036   C 213.18574,176.82229 197.44156,171.98715 184.73433,164.23494   C 182.53654,167.03213 179.33976,171.30783 175.22389,177.14197   C 174.94417,179.06004 174.38474,181.69739 173.58554,185.01405   C 172.46666,186.97209 170.94819,189.72931 168.99016,193.3257   C 167.07209,200.27871 166.11305,204.43454 166.11305,205.83313   C 166.11305,206.39257 166.31285,206.99196 166.71245,207.67128   C 167.11205,208.39056 167.3518,208.98996 167.3518,209.54939   C 167.59156,214.26466 168.99016,219.0998 171.46767,224.09478   C 174.2249,229.92891 175.74337,233.5253 176.02309,234.88393   C 175.18393,234.88393 173.98514,234.80401 172.46666,234.68413   C 170.90823,234.56425 169.86927,234.64417 169.26988,234.88393   C 168.71044,235.20361 168.59056,235.92289 168.87028,237.04176   L 157.08213,237.04176   C 156.24297,236.20261 156.08313,234.00482 156.64257,230.40843   C 153.84538,226.81204 152.44678,224.13474 152.44678,222.49638   C 152.44678,222.7761 152.84638,219.73915 153.68554,213.34558   C 154.5247,206.95201 154.80442,202.39658 154.5247,199.59939   C 153.84538,192.68634 153.1261,189.60944 152.44678,190.44859   C 153.84538,189.32972 155.40381,187.81124 157.12209,185.85321   C 158.16104,185.01405 158.68052,183.21586 158.68052,180.45863   C 158.68052,176.30281 156.52269,171.30783 152.16707,165.47369   C 151.88735,165.75341 151.72751,173.34578 151.72751,188.29076   C 151.20803,191.60743 150.64859,194.76425 150.12911,197.8012   C 149.0502,202.23674 146.33293,206.07289 142.01727,209.38956   C 140.93835,208.5504 140.81847,207.87108 141.61767,207.3516   C 141.29799,206.79217 140.37891,206.51245 138.74056,206.51245   C 140.17911,203.75522 140.89839,201.79719 140.89839,200.71827   C 140.97831,196.84217 140.97831,190.76827 140.89839,182.49658   L 140.89839,170.06907   L 140.89839,150.56867   C 140.89839,148.37088 142.09719,144.65462 144.41486,139.41988   C 146.77249,134.14518 148.77048,131.10823 150.44879,130.26907   C 155.96325,126.99237 161.35783,124.63474 166.59257,123.23614   C 174.30482,121.59779 179.13996,120.75863 181.05803,120.75863   C 185.77329,120.75863 192.24678,122.39699 200.51847,125.71365   C 208.83012,129.03032 214.62429,130.70863 217.94096,130.70863   C 220.97791,130.70863 231.56727,127.79156 249.82891,121.95743   C 253.10562,120.31907 258.38032,117.84156 265.53313,114.5249   C 268.01064,113.68574 274.36425,111.88755 284.59397,109.09036   C 290.10843,107.45201 293.70482,105.37409 295.34317,102.89658   C 295.90261,101.21827 296.46204,100.37912 297.02148,100.37912   C 298.42008,103.73574 298.14036,106.21325 296.18233,107.8516   C 298.14036,108.69076 299.37911,110.76867 299.93855,114.08534   C 301.01747,115.20422 302.53594,117.00241 304.49397,119.47992   C 305.01345,120.59879 305.85261,122.23715 306.97148,124.4749   L 312.76566,129.82952   C 315.24317,132.34699 316.48192,134.14518 316.48192,135.22409   z  M 165.71345,228.88996   L 164.03514,224.73413   L 163.19598,225.17369   L 164.43474,228.88996   L 165.71345,228.88996   z "
     style="fill:#000000;fill-rule:evenodd;fill-opacity:1;stroke:none;" />
</svg>
