<?xml version="1.0" encoding="UTF-8" standalone="no"?>
<svg
   xmlns:dc="http://purl.org/dc/elements/1.1/"
   xmlns:cc="http://creativecommons.org/ns#"
   xmlns:rdf="http://www.w3.org/1999/02/22-rdf-syntax-ns#"
   xmlns:svg="http://www.w3.org/2000/svg"
   xmlns="http://www.w3.org/2000/svg"
   id="svg11"
   height="130.27mm"
   width="130.27mm"
   version="1.0">
  <metadata
     id="metadata15">
    <rdf:RDF>
      <cc:Work
         rdf:about="">
        <dc:format>image/svg+xml</dc:format>
        <dc:type
           rdf:resource="http://purl.org/dc/dcmitype/StillImage" />
      </cc:Work>
    </rdf:RDF>
  </metadata>
  <defs
     id="defs3">
    <pattern
       y="0"
       x="0"
       height="6"
       width="6"
       patternUnits="userSpaceOnUse"
       id="EMFhbasepattern" />
  </defs>
  <path
     id="path5"
     d="  M 164.63454,327.67068   C 164.63454,437.95983 327.67068,437.95983 327.67068,327.67068   C 437.95983,327.67068 437.95983,164.63454 327.67068,164.63454   C 327.67068,54.345381 164.63454,54.345381 164.63454,164.63454   C 54.345381,164.63454 54.345381,327.67068 164.63454,327.67068   z "
     style="fill:#ffff80;fill-rule:evenodd;fill-opacity:1;stroke:none;" />
  <path
     id="path7"
     d="  M 164.63454,327.67068   C 164.63454,437.95983 327.67068,437.95983 327.67068,327.67068   C 437.95983,327.67068 437.95983,164.63454 327.67068,164.63454   C 327.67068,54.345381 164.63454,54.345381 164.63454,164.63454   C 54.345381,164.63454 54.345381,327.67068 164.63454,327.67068  "
     style="fill:none;stroke:#000000;stroke-width:9.5903616px;stroke-linecap:butt;stroke-linejoin:miter;stroke-miterlimit:10;stroke-dasharray:none;stroke-opacity:1;" />
  <path
     id="path9"
     d="  M 335.66265,211.94698   C 335.66265,214.18474 334.86345,216.26265 333.18514,218.18072   C 331.50682,220.13875 329.86847,221.09779 328.19016,221.09779   C 326.27208,221.09779 324.87349,220.81807 324.03433,220.25863   C 322.39598,218.9 319.75863,216.94196 316.16224,214.46445   L 309.08935,213.2257   C 306.01245,212.66626 304.21425,211.42751 303.69477,209.46947   C 297.3012,211.42751 290.90763,218.06084 284.55401,229.40943   C 283.71486,232.7261 282.19638,237.16164 279.99859,242.71606   C 277.48112,246.87188 273.60502,254.34437 268.37028,265.13353   C 264.73393,274.56405 262.9757,284.91365 262.9757,296.26224   C 262.9757,298.22028 263.93474,300.69779 265.93273,303.73473   C 268.76988,308.17028 270.36827,310.80763 270.64799,311.60682   L 260.85783,311.60682   C 259.17951,309.68875 257.46124,306.05241 255.78293,300.77771   C 255.78293,298.81967 256.10261,295.98253 256.78192,292.2263   C 257.46124,288.47008 257.82088,285.63293 257.82088,283.6749   C 256.98172,284.51405 256.14257,285.99257 255.30341,288.23032   C 254.46425,296.78172 254.06465,300.93755 254.06465,300.61787   C 254.06465,301.45702 255.14357,304.65381 257.38132,310.16827   L 246.55221,310.16827   C 245.95281,308.52992 245.71305,306.01245 245.71305,302.69578   C 245.71305,301.05743 246.43233,297.54096 247.99076,292.14638   C 249.50923,286.7518 250.26847,283.11546 250.26847,281.15743   C 250.26847,274.56405 250.54819,265.97269 251.14759,255.46325   C 232.36646,253.54518 216.62229,248.71004 203.91506,240.95783   C 201.71727,243.75502 198.52048,248.03072 194.40462,253.86486   C 194.1249,255.78293 193.56546,258.42028 192.76626,261.73694   C 191.64739,263.69498 190.12891,266.4522 188.17088,270.04859   C 186.25281,277.0016 185.29377,281.15743 185.29377,282.55602   C 185.29377,283.11546 185.49357,283.71486 185.89317,284.39417   C 186.29277,285.11345 186.53253,285.71285 186.53253,286.27229   C 186.77229,290.98755 188.17088,295.82269 190.64839,300.81767   C 193.40562,306.6518 194.92409,310.24819 195.20381,311.60682   C 194.36466,311.60682 193.16586,311.5269 191.64739,311.40702   C 190.08895,311.28714 189.05,311.36706 188.4506,311.60682   C 187.89116,311.9265 187.77128,312.64578 188.051,313.76465   L 176.26285,313.76465   C 175.42369,312.9255 175.26385,310.72771 175.82329,307.13132   C 173.0261,303.53494 171.62751,300.85763 171.62751,299.21927   C 171.62751,299.49899 172.02711,296.46204 172.86626,290.06847   C 173.70542,283.6749 173.98514,279.11947 173.70542,276.32229   C 173.0261,269.40923 172.30682,266.33233 171.62751,267.17148   C 173.0261,266.05261 174.58454,264.53413 176.30281,262.5761   C 177.34176,261.73694 177.86124,259.93875 177.86124,257.18152   C 177.86124,253.0257 175.70341,248.03072 171.34779,242.19658   C 171.06807,242.4763 170.90823,250.06867 170.90823,265.01365   C 170.38875,268.33032 169.82931,271.48714 169.30984,274.52409   C 168.23092,278.95963 165.51365,282.79578 161.19799,286.11245   C 160.11907,285.27329 159.99919,284.59397 160.79839,284.07449   C 160.47871,283.51506 159.55964,283.23534 157.92128,283.23534   C 159.35984,280.47811 160.07911,278.52008 160.07911,277.44116   C 160.15903,273.56506 160.15903,267.49116 160.07911,259.21947   L 160.07911,246.79196   L 160.07911,227.29156   C 160.07911,225.09377 161.27791,221.37751 163.59558,216.14277   C 165.95321,210.86807 167.9512,207.83112 169.62952,206.99196   C 175.14397,203.71526 180.53855,201.35763 185.77329,199.95903   C 193.48554,198.32068 198.32068,197.48152 200.23875,197.48152   C 204.95401,197.48152 211.42751,199.11988 219.69919,202.43654   C 228.01084,205.75321 233.80502,207.43152 237.12168,207.43152   C 240.15863,207.43152 250.74799,204.51445 269.00963,198.68032   C 272.28634,197.04197 277.56104,194.56446 284.71385,191.24779   C 287.19136,190.40863 293.54498,188.61044 303.77469,185.81325   C 309.28915,184.1749 312.88554,182.09699 314.52389,179.61948   C 315.08333,177.94116 315.64277,177.10201 316.2022,177.10201   C 317.6008,180.45863 317.32108,182.93614 315.36305,184.5745   C 317.32108,185.41365 318.55983,187.49156 319.11927,190.80823   C 320.19819,191.92711 321.71666,193.7253 323.67469,196.20281   C 324.19417,197.32168 325.03333,198.96004 326.1522,201.19779   L 331.94638,206.55241   C 334.42389,209.06988 335.66265,210.86807 335.66265,211.94698   z  M 184.89417,305.61285   L 183.21586,301.45702   L 182.3767,301.89658   L 183.61546,305.61285   L 184.89417,305.61285   z "
     style="fill:#000000;fill-rule:evenodd;fill-opacity:1;stroke:none;" />
</svg>
