<?xml version="1.0" encoding="UTF-8" standalone="no"?>
<svg
   xmlns:dc="http://purl.org/dc/elements/1.1/"
   xmlns:cc="http://creativecommons.org/ns#"
   xmlns:rdf="http://www.w3.org/1999/02/22-rdf-syntax-ns#"
   xmlns:svg="http://www.w3.org/2000/svg"
   xmlns="http://www.w3.org/2000/svg"
   id="svg11"
   height="95.75mm"
   width="95.75mm"
   version="1.0">
  <metadata
     id="metadata15">
    <rdf:RDF>
      <cc:Work
         rdf:about="">
        <dc:format>image/svg+xml</dc:format>
        <dc:type
           rdf:resource="http://purl.org/dc/dcmitype/StillImage" />
      </cc:Work>
    </rdf:RDF>
  </metadata>
  <defs
     id="defs3">
    <pattern
       y="0"
       x="0"
       height="6"
       width="6"
       patternUnits="userSpaceOnUse"
       id="EMFhbasepattern" />
  </defs>
  <path
     id="path5"
     d="  M 54.345381,54.345381   L 54.345381,307.53092   L 307.53092,307.53092   L 307.53092,54.345381   L 54.345381,54.345381   z "
     style="fill:#aaffaa;fill-rule:evenodd;fill-opacity:1;stroke:none;" />
  <path
     id="path7"
     d="  M 54.345381,54.345381   L 307.53092,54.345381   L 307.53092,307.53092   L 54.345381,307.53092   z "
     style="fill:none;stroke:#000000;stroke-width:9.5903616px;stroke-linecap:butt;stroke-linejoin:miter;stroke-miterlimit:10;stroke-dasharray:none;stroke-opacity:1;" />
  <path
     id="path9"
     d="  M 270.44819,146.73253   C 270.44819,148.97028 269.64899,151.04819 267.97068,152.96626   C 266.29237,154.92429 264.65401,155.88333 262.9757,155.88333   C 261.05763,155.88333 259.65903,155.60361 258.81988,155.04417   C 257.18152,153.68554 254.54417,151.72751 250.94779,149.25   L 243.8749,148.01124   C 240.79799,147.45181 238.9998,146.21305 238.48032,144.25502   C 232.08674,146.21305 225.69317,152.84638 219.33956,164.19498   C 218.5004,167.51164 216.98192,171.94719 214.78413,177.5016   C 212.26666,181.65743 208.39056,189.12992 203.15582,199.91907   C 199.51948,209.3496 197.76124,219.69919 197.76124,231.04779   C 197.76124,233.00582 198.72028,235.48333 200.71827,238.52028   C 203.55542,242.95582 205.15381,245.59317 205.43353,246.39237   L 195.64337,246.39237   C 193.96506,244.47429 192.24678,240.83795 190.56847,235.56325   C 190.56847,233.60522 190.88815,230.76807 191.56747,227.01184   C 192.24678,223.25562 192.60642,220.41847 192.60642,218.46044   C 191.76727,219.2996 190.92811,220.77811 190.08895,223.01586   C 189.2498,231.56727 188.8502,235.72309 188.8502,235.40341   C 188.8502,236.24257 189.92911,239.43935 192.16686,244.95381   L 181.33775,244.95381   C 180.73835,243.31546 180.49859,240.79799 180.49859,237.48132   C 180.49859,235.84297 181.21787,232.3265 182.7763,226.93192   C 184.29478,221.53735 185.05401,217.901 185.05401,215.94297   C 185.05401,209.3496 185.33373,200.75823 185.93313,190.24879   C 167.15201,188.33072 151.40783,183.49558 138.7006,175.74337   C 136.50281,178.54056 133.30602,182.81626 129.19016,188.6504   C 128.91044,190.56847 128.351,193.20582 127.55181,196.52249   C 126.43293,198.48052 124.91446,201.23775 122.95642,204.83413   C 121.03835,211.78715 120.07932,215.94297 120.07932,217.34156   C 120.07932,217.901 120.27911,218.5004 120.67871,219.17972   C 121.07831,219.89899 121.31807,220.49839 121.31807,221.05783   C 121.55783,225.77309 122.95642,230.60823 125.43393,235.60321   C 128.19116,241.43735 129.70964,245.03373 129.98936,246.39237   C 129.1502,246.39237 127.9514,246.31245 126.43293,246.19257   C 124.8745,246.07269 123.83554,246.15261 123.23614,246.39237   C 122.67671,246.71204 122.55683,247.43132 122.83654,248.5502   L 111.04839,248.5502   C 110.20924,247.71104 110.0494,245.51325 110.60883,241.91686   C 107.81165,238.32048 106.41305,235.64317 106.41305,234.00482   C 106.41305,234.28453 106.81265,231.24759 107.65181,224.85401   C 108.49096,218.46044 108.77068,213.90502 108.49096,211.10783   C 107.81165,204.19478 107.09237,201.11787 106.41305,201.95703   C 107.81165,200.83815 109.37008,199.31968 111.08835,197.36164   C 112.12731,196.52249 112.64679,194.72429 112.64679,191.96707   C 112.64679,187.81124 110.48895,182.81626 106.13333,176.98213   C 105.85361,177.26184 105.69377,184.85421 105.69377,199.79919   C 105.1743,203.11586 104.61486,206.27269 104.09538,209.30964   C 103.01646,213.74518 100.2992,217.58132 95.983533,220.89799   C 94.904617,220.05883 94.784738,219.37951 95.583934,218.86004   C 95.264256,218.3006 94.345179,218.02088 92.706826,218.02088   C 94.14538,215.26365 94.864657,213.30562 94.864657,212.2267   C 94.944577,208.3506 94.944577,202.2767 94.864657,194.00502   L 94.864657,181.57751   L 94.864657,162.07711   C 94.864657,159.87931 96.063452,156.16305 98.381123,150.92831   C 100.73875,145.65361 102.73675,142.61666 104.41506,141.77751   C 109.92952,138.5008 115.32409,136.14317 120.55883,134.74458   C 128.27108,133.10622 133.10622,132.26707 135.0243,132.26707   C 139.73956,132.26707 146.21305,133.90542 154.48474,137.22209   C 162.79638,140.53875 168.59056,142.21707 171.90723,142.21707   C 174.94417,142.21707 185.53353,139.3 203.79518,133.46586   C 207.07188,131.82751 212.34658,129.35 219.49939,126.03333   C 221.9769,125.19417 228.33052,123.39598 238.56024,120.59879   C 244.0747,118.96044 247.67108,116.88253 249.30943,114.40502   C 249.86887,112.72671 250.42831,111.88755 250.98775,111.88755   C 252.38634,115.24418 252.10662,117.72169 250.14859,119.36004   C 252.10662,120.1992 253.34538,122.27711 253.90482,125.59377   C 254.98373,126.71265 256.50221,128.51084 258.46024,130.98835   C 258.97972,132.10723 259.81887,133.74558 260.93775,135.98333   L 266.73192,141.33795   C 269.20943,143.85542 270.44819,145.65361 270.44819,146.73253   z  M 119.67972,240.39839   L 118.0014,236.24257   L 117.16225,236.68213   L 118.401,240.39839   L 119.67972,240.39839   z "
     style="fill:#000000;fill-rule:evenodd;fill-opacity:1;stroke:none;" />
</svg>
