<?xml version="1.0" encoding="UTF-8" standalone="no"?>
<svg
   xmlns:dc="http://purl.org/dc/elements/1.1/"
   xmlns:cc="http://creativecommons.org/ns#"
   xmlns:rdf="http://www.w3.org/1999/02/22-rdf-syntax-ns#"
   xmlns:svg="http://www.w3.org/2000/svg"
   xmlns="http://www.w3.org/2000/svg"
   id="svg11"
   height="116.73mm"
   width="116.73mm"
   version="1.0">
  <metadata
     id="metadata15">
    <rdf:RDF>
      <cc:Work
         rdf:about="">
        <dc:format>image/svg+xml</dc:format>
        <dc:type
           rdf:resource="http://purl.org/dc/dcmitype/StillImage" />
      </cc:Work>
    </rdf:RDF>
  </metadata>
  <defs
     id="defs3">
    <pattern
       y="0"
       x="0"
       height="6"
       width="6"
       patternUnits="userSpaceOnUse"
       id="EMFhbasepattern" />
  </defs>
  <path
     id="path5"
     d="  M 220.57831,386.49156   L 220.57831,386.49156   L 386.49156,220.57831   L 220.57831,54.665059   L 54.665059,220.57831   L 220.57831,386.49156   z "
     style="fill:#ff8080;fill-rule:evenodd;fill-opacity:1;stroke:none;" />
  <path
     id="path7"
     d="  M 220.57831,386.49156   L 220.57831,386.49156   L 386.49156,220.57831   L 220.57831,54.665059   L 54.665059,220.57831   L 220.57831,386.49156  "
     style="fill:none;stroke:#000000;stroke-width:9.5903616px;stroke-linecap:butt;stroke-linejoin:miter;stroke-miterlimit:10;stroke-dasharray:none;stroke-opacity:1;" />
  <path
     id="path9"
     d="  M 310.08835,186.37269   C 310.08835,188.61044 309.28915,190.68835 307.61084,192.60642   C 305.93253,194.56446 304.29417,195.52349 302.61586,195.52349   C 300.69779,195.52349 299.29919,195.24377 298.46004,194.68433   C 296.82168,193.3257 294.18433,191.36767 290.58795,188.89016   L 283.51506,187.6514   C 280.43815,187.09197 278.63996,185.85321 278.12048,183.89518   C 271.7269,185.85321 265.33333,192.48654 258.97972,203.83514   C 258.14056,207.1518 256.62208,211.58735 254.42429,217.14176   C 251.90682,221.29759 248.03072,228.77008 242.79598,239.55923   C 239.15964,248.98976 237.4014,259.33935 237.4014,270.68795   C 237.4014,272.64598 238.36044,275.12349 240.35843,278.16044   C 243.19558,282.59598 244.79397,285.23333 245.07369,286.03253   L 235.28353,286.03253   C 233.60522,284.11445 231.88694,280.47811 230.20863,275.20341   C 230.20863,273.24538 230.52831,270.40823 231.20763,266.652   C 231.88694,262.89578 232.24658,260.05863 232.24658,258.1006   C 231.40743,258.93976 230.56827,260.41827 229.72911,262.65602   C 228.88996,271.20743 228.49036,275.36325 228.49036,275.04357   C 228.49036,275.88273 229.56927,279.07951 231.80702,284.59397   L 220.97791,284.59397   C 220.37851,282.95562 220.13875,280.43815 220.13875,277.12148   C 220.13875,275.48313 220.85803,271.96666 222.41646,266.57208   C 223.93494,261.17751 224.69417,257.54116 224.69417,255.58313   C 224.69417,248.98976 224.97389,240.39839 225.57329,229.88895   C 206.79217,227.97088 191.04799,223.13574 178.34076,215.38353   C 176.14297,218.18072 172.94618,222.45642 168.83032,228.29056   C 168.5506,230.20863 167.99116,232.84598 167.19197,236.16265   C 166.07309,238.12068 164.55462,240.87791 162.59658,244.47429   C 160.67851,251.42731 159.71948,255.58313 159.71948,256.98172   C 159.71948,257.54116 159.91927,258.14056 160.31887,258.81988   C 160.71847,259.53915 160.95823,260.13855 160.95823,260.69799   C 161.19799,265.41325 162.59658,270.24839 165.07409,275.24337   C 167.83132,281.07751 169.3498,284.67389 169.62952,286.03253   C 168.79036,286.03253 167.59156,285.95261 166.07309,285.83273   C 164.51466,285.71285 163.4757,285.79277 162.8763,286.03253   C 162.31687,286.3522 162.19699,287.07148 162.4767,288.19036   L 150.68855,288.19036   C 149.8494,287.3512 149.68956,285.15341 150.24899,281.55702   C 147.45181,277.96064 146.05321,275.28333 146.05321,273.64498   C 146.05321,273.92469 146.45281,270.88775 147.29197,264.49417   C 148.13112,258.1006 148.41084,253.54518 148.13112,250.74799   C 147.45181,243.83494 146.73253,240.75803 146.05321,241.59719   C 147.45181,240.47831 149.01024,238.95984 150.72851,237.0018   C 151.76747,236.16265 152.28695,234.36445 152.28695,231.60723   C 152.28695,227.4514 150.12911,222.45642 145.77349,216.62229   C 145.49377,216.902 145.33393,224.49437 145.33393,239.43935   C 144.81446,242.75602 144.25502,245.91285 143.73554,248.9498   C 142.65662,253.38534 139.93936,257.22148 135.62369,260.53815   C 134.54478,259.69899 134.4249,259.01967 135.22409,258.5002   C 134.90442,257.94076 133.98534,257.66104 132.34699,257.66104   C 133.78554,254.90381 134.50482,252.94578 134.50482,251.86686   C 134.58474,247.99076 134.58474,241.91686 134.50482,233.64518   L 134.50482,221.21767   L 134.50482,201.71727   C 134.50482,199.51948 135.70361,195.80321 138.02128,190.56847   C 140.37891,185.29377 142.37691,182.25682 144.05522,181.41767   C 149.56968,178.14096 154.96425,175.78333 160.19899,174.38474   C 167.91124,172.74638 172.74638,171.90723 174.66446,171.90723   C 179.37972,171.90723 185.85321,173.54558 194.1249,176.86225   C 202.43654,180.17891 208.23072,181.85723 211.54739,181.85723   C 214.58433,181.85723 225.17369,178.94016 243.43534,173.10602   C 246.71204,171.46767 251.98674,168.99016 259.13955,165.67349   C 261.61706,164.83433 267.97068,163.03614 278.2004,160.23895   C 283.71486,158.6006 287.31124,156.52269 288.94959,154.04518   C 289.50903,152.36687 290.06847,151.52771 290.62791,151.52771   C 292.0265,154.88434 291.74678,157.36185 289.78875,159.0002   C 291.74678,159.83936 292.98554,161.91727 293.54498,165.23393   C 294.62389,166.35281 296.14237,168.151 298.1004,170.62851   C 298.61988,171.74739 299.45903,173.38574 300.57791,175.62349   L 306.37208,180.97811   C 308.84959,183.49558 310.08835,185.29377 310.08835,186.37269   z  M 159.31988,280.03855   L 157.64156,275.88273   L 156.80241,276.32229   L 158.04116,280.03855   L 159.31988,280.03855   z "
     style="fill:#000000;fill-rule:evenodd;fill-opacity:1;stroke:none;" />
</svg>
