<?xml version="1.0" encoding="UTF-8" standalone="no"?>
<svg
   xmlns:dc="http://purl.org/dc/elements/1.1/"
   xmlns:cc="http://creativecommons.org/ns#"
   xmlns:rdf="http://www.w3.org/1999/02/22-rdf-syntax-ns#"
   xmlns:svg="http://www.w3.org/2000/svg"
   xmlns="http://www.w3.org/2000/svg"
   id="svg11"
   height="116.73mm"
   width="116.73mm"
   version="1.0">
  <metadata
     id="metadata15">
    <rdf:RDF>
      <cc:Work
         rdf:about="">
        <dc:format>image/svg+xml</dc:format>
        <dc:type
           rdf:resource="http://purl.org/dc/dcmitype/StillImage" />
      </cc:Work>
    </rdf:RDF>
  </metadata>
  <defs
     id="defs3">
    <pattern
       y="0"
       x="0"
       height="6"
       width="6"
       patternUnits="userSpaceOnUse"
       id="EMFhbasepattern" />
  </defs>
  <path
     id="path5"
     d="  M 220.57831,386.49156   L 220.57831,386.49156   L 386.49156,220.57831   L 220.57831,54.665059   L 54.665059,220.57831   z "
     style="fill:#ff8080;fill-rule:evenodd;fill-opacity:1;stroke:none;" />
  <path
     id="path7"
     d="  M 220.57831,386.49156   L 220.57831,386.49156   L 386.49156,220.57831   L 220.57831,54.665059   L 54.665059,220.57831   z "
     style="fill:none;stroke:#000000;stroke-width:9.5903616px;stroke-linecap:butt;stroke-linejoin:miter;stroke-miterlimit:10;stroke-dasharray:none;stroke-opacity:1;" />
  <path
     id="path9"
     d="  M 132.18715,255.82289   L 169.07008,159.71948   L 182.7763,159.71948   L 222.09678,255.82289   L 207.63132,255.82289   L 196.40261,226.73213   L 156.24297,226.73213   L 145.69357,255.82289   z  M 159.91927,216.38253   L 192.48654,216.38253   L 182.45662,189.72931   C 179.37972,181.65743 177.14197,175.02409 175.62349,169.82931   C 174.4247,175.98313 172.66646,182.09699 170.46867,188.17088   z  M 232.68614,255.82289   L 232.68614,159.71948   L 245.39337,159.71948   L 245.39337,199.1998   L 295.34317,199.1998   L 295.34317,159.71948   L 308.0504,159.71948   L 308.0504,255.82289   L 295.34317,255.82289   L 295.34317,210.54839   L 245.39337,210.54839   L 245.39337,255.82289   z "
     style="fill:#000000;fill-rule:evenodd;fill-opacity:1;stroke:none;" />
</svg>
