<?xml version="1.0" encoding="UTF-8" standalone="no"?>
<svg
   xmlns:dc="http://purl.org/dc/elements/1.1/"
   xmlns:cc="http://creativecommons.org/ns#"
   xmlns:rdf="http://www.w3.org/1999/02/22-rdf-syntax-ns#"
   xmlns:svg="http://www.w3.org/2000/svg"
   xmlns="http://www.w3.org/2000/svg"
   id="svg13"
   height="116.73mm"
   width="116.73mm"
   version="1.0">
  <metadata
     id="metadata17">
    <rdf:RDF>
      <cc:Work
         rdf:about="">
        <dc:format>image/svg+xml</dc:format>
        <dc:type
           rdf:resource="http://purl.org/dc/dcmitype/StillImage" />
      </cc:Work>
    </rdf:RDF>
  </metadata>
  <defs
     id="defs3">
    <pattern
       y="0"
       x="0"
       height="6"
       width="6"
       patternUnits="userSpaceOnUse"
       id="EMFhbasepattern" />
  </defs>
  <path
     id="path5"
     d="  M 220.57831,386.49156   L 220.57831,386.49156   L 386.49156,220.57831   L 220.57831,54.665059   L 54.665059,220.57831   L 220.57831,386.49156   z "
     style="fill:#ff8080;fill-rule:evenodd;fill-opacity:1;stroke:none;" />
  <path
     id="path7"
     d="  M 220.57831,386.49156   L 220.57831,386.49156   L 386.49156,220.57831   L 220.57831,54.665059   L 54.665059,220.57831   L 220.57831,386.49156  "
     style="fill:none;stroke:#000000;stroke-width:9.5903616px;stroke-linecap:butt;stroke-linejoin:miter;stroke-miterlimit:10;stroke-dasharray:none;stroke-opacity:1;" />
  <path
     id="path9"
     d="  M 192.16686,269.48915   C 192.16686,282.35622 203.51546,295.26325 215.62329,295.26325   L 220.29859,295.26325   C 232.08674,295.26325 243.2755,282.31626 243.2755,269.96867   C 243.2755,257.22148 232.3265,244.67409 220.29859,244.67409   L 215.62329,244.67409   C 203.6753,244.67409 192.16686,257.02168 192.16686,269.48915   z "
     style="fill:#ffffff;fill-rule:evenodd;fill-opacity:1;stroke:none;" />
  <path
     id="path11"
     d="  M 192.16686,269.48915   C 192.16686,257.02168 203.6753,244.67409 215.62329,244.67409   L 220.29859,244.67409   C 232.3265,244.67409 243.2755,257.22148 243.2755,269.96867   C 243.2755,282.31626 232.08674,295.26325 220.29859,295.26325   L 215.62329,295.26325   C 203.51546,295.26325 192.16686,282.35622 192.16686,269.48915   z  M 209.50943,169.66948   C 209.50943,158.52068 218.42048,148.41084 218.42048,141.05823   L 218.42048,140.13915   C 218.42048,137.30201 218.34056,131.82751 216.10281,131.22811   C 213.78514,141.05823 208.43052,148.73052 203.0759,155.72349   C 200.35863,159.31988 197.92108,162.8763 195.16385,166.55261   C 193.00602,169.46968 188.41064,174.10502 188.41064,178.58052   C 188.41064,187.05201 200.47851,208.03092 195.92309,217.46144   C 190.96807,216.30261 181.45763,207.51144 178.66044,203.31566   C 171.82731,193.04598 173.2259,193.60542 170.14899,180.41867   C 166.87229,181.29779 164.55462,191.36767 163.75542,195.64337   C 162.83634,200.83815 163.19598,210.22871 164.31486,215.34357   C 165.71345,221.57731 167.27189,226.33253 169.82931,231.36747   C 171.18795,234.04478 176.54257,243.43534 176.70241,245.59317   C 171.94719,244.47429 161.23795,235.56325 157.84136,232.1267   C 154.80442,229.08976 145.37389,213.6253 144.81446,213.26566   C 144.81446,234.84397 155.76345,263.21546 166.27289,273.84478   C 173.54558,281.19739 179.45964,287.1514 188.61044,292.74578   C 194.16486,296.14237 211.26767,302.29618 219.81907,302.29618   L 224.97389,302.29618   C 231.32751,302.29618 248.63012,295.66285 253.26546,293.10542   C 260.73795,288.94959 268.33032,282.71586 273.00562,275.80281   C 282.63594,261.53714 290.62791,242.95582 290.62791,219.33956   L 290.62791,216.54237   L 289.62891,203.83514   C 287.83072,204.87409 285.19337,212.90602 284.19437,215.26365   C 283.0755,217.98092 279.59899,222.7761 277.88072,225.33353   C 274.76385,230.00883 266.37229,239.11968 260.61807,240.43835   L 260.61807,238.08072   C 260.61807,228.17068 266.69196,219.13976 266.69196,210.42851   L 266.69196,206.67229   L 263.93474,179.97911   L 262.49618,179.97911   C 261.7769,188.49056 258.85984,197.32168 255.10361,203.03594   C 252.18654,207.39156 243.51526,215.26365 238.12068,216.54237   C 237.64116,215.62329 237.16164,215.14377 237.16164,213.70522   L 237.16164,208.5504   C 237.16164,197.44156 243.75502,189.05 243.75502,180.41867   L 243.75502,178.58052   C 243.75502,175.54357 231.76706,157.56164 229.68915,157.00221   L 229.68915,159.7994   C 229.68915,173.30582 226.69217,183.05602 217.5014,187.4516   C 215.06385,183.85522 209.50943,180.65843 209.50943,173.86526   L 209.50943,169.66948   z "
     style="fill:#000000;fill-rule:evenodd;fill-opacity:1;stroke:none;" />
</svg>
