<?xml version="1.0" encoding="UTF-8" standalone="no"?>
<svg
   xmlns:dc="http://purl.org/dc/elements/1.1/"
   xmlns:cc="http://creativecommons.org/ns#"
   xmlns:rdf="http://www.w3.org/1999/02/22-rdf-syntax-ns#"
   xmlns:svg="http://www.w3.org/2000/svg"
   xmlns="http://www.w3.org/2000/svg"
   id="svg13"
   height="95.75mm"
   width="95.75mm"
   version="1.0">
  <metadata
     id="metadata17">
    <rdf:RDF>
      <cc:Work
         rdf:about="">
        <dc:format>image/svg+xml</dc:format>
        <dc:type
           rdf:resource="http://purl.org/dc/dcmitype/StillImage" />
      </cc:Work>
    </rdf:RDF>
  </metadata>
  <defs
     id="defs3">
    <pattern
       y="0"
       x="0"
       height="6"
       width="6"
       patternUnits="userSpaceOnUse"
       id="EMFhbasepattern" />
  </defs>
  <path
     id="path5"
     d="  M 54.345381,54.345381   L 54.345381,307.53092   L 307.53092,307.53092   L 307.53092,54.345381   L 54.345381,54.345381   z "
     style="fill:#aaffaa;fill-rule:evenodd;fill-opacity:1;stroke:none;" />
  <path
     id="path7"
     d="  M 54.345381,54.345381   L 307.53092,54.345381   L 307.53092,307.53092   L 54.345381,307.53092   z "
     style="fill:none;stroke:#000000;stroke-width:9.5903616px;stroke-linecap:butt;stroke-linejoin:miter;stroke-miterlimit:10;stroke-dasharray:none;stroke-opacity:1;" />
  <path
     id="path9"
     d="  M 152.5267,229.84899   C 152.5267,242.71606 163.8753,255.62309 175.98313,255.62309   L 180.65843,255.62309   C 192.44658,255.62309 203.63534,242.6761 203.63534,230.32851   C 203.63534,217.58132 192.68634,205.03393 180.65843,205.03393   L 175.98313,205.03393   C 164.03514,205.03393 152.5267,217.38152 152.5267,229.84899   z "
     style="fill:#ffffff;fill-rule:evenodd;fill-opacity:1;stroke:none;" />
  <path
     id="path11"
     d="  M 152.5267,229.84899   C 152.5267,217.38152 164.03514,205.03393 175.98313,205.03393   L 180.65843,205.03393   C 192.68634,205.03393 203.63534,217.58132 203.63534,230.32851   C 203.63534,242.6761 192.44658,255.62309 180.65843,255.62309   L 175.98313,255.62309   C 163.8753,255.62309 152.5267,242.71606 152.5267,229.84899   z  M 169.86927,130.02932   C 169.86927,118.88052 178.78032,108.77068 178.78032,101.41807   L 178.78032,100.49899   C 178.78032,97.661846 178.7004,92.187348 176.46265,91.58795   C 174.14498,101.41807 168.79036,109.09036 163.43574,116.08333   C 160.71847,119.67972 158.28092,123.23614 155.52369,126.91245   C 153.36586,129.82952 148.77048,134.46486 148.77048,138.94036   C 148.77048,147.41185 160.83835,168.39076 156.28293,177.82128   C 151.32791,176.66245 141.81747,167.87128 139.02028,163.6755   C 132.18715,153.40582 133.58574,153.96526 130.50883,140.77851   C 127.23213,141.65763 124.91446,151.72751 124.11526,156.00321   C 123.19618,161.19799 123.55582,170.58855 124.6747,175.70341   C 126.07329,181.93715 127.63173,186.69237 130.18915,191.72731   C 131.54779,194.40462 136.90241,203.79518 137.06225,205.95301   C 132.30703,204.83413 121.59779,195.92309 118.2012,192.48654   C 115.16426,189.4496 105.73373,173.98514 105.1743,173.6255   C 105.1743,195.20381 116.12329,223.5753 126.63273,234.20462   C 133.90542,241.55723 139.81948,247.51124 148.97028,253.10562   C 154.5247,256.50221 171.62751,262.65602 180.17891,262.65602   L 185.33373,262.65602   C 191.68735,262.65602 208.98996,256.02269 213.6253,253.46526   C 221.09779,249.30943 228.69016,243.0757 233.36546,236.16265   C 242.99578,221.89698 250.98775,203.31566 250.98775,179.69939   L 250.98775,176.90221   L 249.98875,164.19498   C 248.19056,165.23393 245.55321,173.26586 244.55421,175.62349   C 243.43534,178.34076 239.95883,183.13594 238.24056,185.69337   C 235.12369,190.36867 226.73213,199.47952 220.97791,200.79819   L 220.97791,198.44056   C 220.97791,188.53052 227.0518,179.4996 227.0518,170.78835   L 227.0518,167.03213   L 224.29458,140.33895   L 222.85602,140.33895   C 222.13674,148.8504 219.21968,157.68152 215.46345,163.39578   C 212.54638,167.7514 203.8751,175.62349 198.48052,176.90221   C 198.001,175.98313 197.52148,175.50361 197.52148,174.06506   L 197.52148,168.91024   C 197.52148,157.8014 204.11486,149.40984 204.11486,140.77851   L 204.11486,138.94036   C 204.11486,135.90341 192.1269,117.92148 190.04899,117.36205   L 190.04899,120.15924   C 190.04899,133.66566 187.05201,143.41586 177.86124,147.81144   C 175.42369,144.21506 169.86927,141.01827 169.86927,134.2251   L 169.86927,130.02932   z "
     style="fill:#000000;fill-rule:evenodd;fill-opacity:1;stroke:none;" />
</svg>
