<?xml version="1.0" encoding="UTF-8" standalone="no"?>
<svg
   xmlns:dc="http://purl.org/dc/elements/1.1/"
   xmlns:cc="http://creativecommons.org/ns#"
   xmlns:rdf="http://www.w3.org/1999/02/22-rdf-syntax-ns#"
   xmlns:svg="http://www.w3.org/2000/svg"
   xmlns="http://www.w3.org/2000/svg"
   id="svg11"
   height="116.73mm"
   width="116.73mm"
   version="1.0">
  <metadata
     id="metadata15">
    <rdf:RDF>
      <cc:Work
         rdf:about="">
        <dc:format>image/svg+xml</dc:format>
        <dc:type
           rdf:resource="http://purl.org/dc/dcmitype/StillImage" />
      </cc:Work>
    </rdf:RDF>
  </metadata>
  <defs
     id="defs3">
    <pattern
       y="0"
       x="0"
       height="6"
       width="6"
       patternUnits="userSpaceOnUse"
       id="EMFhbasepattern" />
  </defs>
  <path
     id="path5"
     d="  M 220.57831,386.49156   L 220.57831,386.49156   L 386.49156,220.57831   L 220.57831,54.665059   L 54.665059,220.57831   L 220.57831,386.49156   z "
     style="fill:#ff8080;fill-rule:evenodd;fill-opacity:1;stroke:none;" />
  <path
     id="path7"
     d="  M 220.57831,386.49156   L 220.57831,386.49156   L 386.49156,220.57831   L 220.57831,54.665059   L 54.665059,220.57831   L 220.57831,386.49156  "
     style="fill:none;stroke:#000000;stroke-width:9.5903616px;stroke-linecap:butt;stroke-linejoin:miter;stroke-miterlimit:10;stroke-dasharray:none;stroke-opacity:1;" />
  <path
     id="path9"
     d="  M 270.36827,300.77771   L 171.62751,300.77771   C 154.40482,300.77771 145.77349,295.46305 145.77349,284.83373   C 145.77349,277.48112 150.08915,272.80582 158.68052,270.76787   C 162.75642,269.76887 169.94919,269.24939 180.33875,269.24939   L 275.28333,269.24939   C 291.98654,269.24939 300.33815,274.44417 300.33815,284.83373   C 300.33815,295.46305 290.34819,300.77771 270.36827,300.77771   z  M 170.86827,274.20441   C 161.99719,274.20441 157.56164,277.76084 157.56164,284.83373   C 157.56164,291.90662 165.15401,295.46305 180.33875,295.46305   L 274.16445,295.46305   C 283.75482,295.46305 288.58996,291.90662 288.58996,284.83373   C 288.58996,279.51907 286.03253,276.24237 280.99759,274.96365   C 279.19939,274.72389 274.52409,274.56405 266.93172,274.56405   z  M 188.33072,129.86948   L 196.68233,129.86948   L 196.68233,215.34357   L 188.33072,215.34357   z  M 238.28052,262.81586   C 233.56526,266.8518 227.69116,268.88976 220.61827,268.88976   C 213.50542,268.88976 207.5514,266.8518 202.75622,262.81586   C 197.96104,258.73996 195.52349,253.66506 195.52349,247.59116   C 195.52349,241.79698 198.001,236.88192 202.95602,232.80602   C 207.87108,228.77008 213.6253,226.61225 220.21867,226.33253   C 227.0518,226.33253 233.08574,228.37048 238.28052,232.40642   C 243.43534,236.48233 245.91285,241.51727 245.67309,247.59116   C 245.43333,253.66506 242.95582,258.73996 238.28052,262.81586   z  M 216.42249,154.96425   L 216.42249,146.57269   L 196.68233,146.57269   L 196.68233,154.96425   z  M 216.42249,175.82329   L 216.42249,167.47168   L 196.68233,167.47168   L 196.68233,175.82329   z  M 216.42249,196.72229   L 216.42249,188.37068   L 196.68233,188.37068   L 196.68233,196.72229   z  M 220.97791,232.80602   C 215.90301,232.80602 211.66727,234.20462 208.27068,237.0018   C 204.83413,239.75903 203.11586,243.31546 203.11586,247.59116   C 203.11586,251.66706 204.83413,255.14357 208.27068,258.06064   C 211.66727,260.97771 215.90301,262.41626 220.97791,262.41626   C 225.77309,262.41626 229.88895,260.97771 233.3255,258.06064   C 236.76204,255.14357 238.48032,251.66706 238.48032,247.59116   C 238.48032,243.03574 236.68213,239.43935 233.1257,236.802   C 229.60923,234.1247 225.53333,232.80602 220.97791,232.80602   z  M 225.53333,111.24819   L 225.53333,226.33253   L 216.06285,226.73213   L 216.06285,111.24819   z  M 242.99578,154.96425   L 242.99578,146.57269   L 225.53333,146.57269   L 225.53333,155.32389   z  M 242.99578,175.82329   L 242.99578,167.11205   L 225.53333,167.47168   L 225.53333,176.22289   z  M 242.99578,196.72229   L 242.99578,188.37068   L 225.53333,188.37068   L 225.53333,197.12188   z  M 242.99578,129.50984   L 252.14658,129.50984   L 252.14658,214.94397   L 242.99578,214.94397   z "
     style="fill:#000000;fill-rule:evenodd;fill-opacity:1;stroke:none;" />
</svg>
