<?xml version="1.0" encoding="UTF-8" standalone="no"?>
<svg
   xmlns:dc="http://purl.org/dc/elements/1.1/"
   xmlns:cc="http://creativecommons.org/ns#"
   xmlns:rdf="http://www.w3.org/1999/02/22-rdf-syntax-ns#"
   xmlns:svg="http://www.w3.org/2000/svg"
   xmlns="http://www.w3.org/2000/svg"
   id="svg15"
   height="89.669998mm"
   width="120.11mm"
   version="1.0">
  <metadata
     id="metadata19">
    <rdf:RDF>
      <cc:Work
         rdf:about="">
        <dc:format>image/svg+xml</dc:format>
        <dc:type
           rdf:resource="http://purl.org/dc/dcmitype/StillImage" />
      </cc:Work>
    </rdf:RDF>
  </metadata>
  <defs
     id="defs3">
    <pattern
       y="0"
       x="0"
       height="6"
       width="6"
       patternUnits="userSpaceOnUse"
       id="EMFhbasepattern" />
  </defs>
  <path
     id="path5"
     d="  M 54.345381,54.345381   L 54.345381,284.51405   L 399.59839,284.51405   L 399.59839,54.345381   L 54.345381,54.345381   z "
     style="fill:#80e0ff;fill-rule:evenodd;fill-opacity:1;stroke:none;" />
  <path
     id="path7"
     d="  M 54.345381,54.345381   L 399.59839,54.345381   L 399.59839,284.51405   L 54.345381,284.51405   z "
     style="fill:none;stroke:#000000;stroke-width:9.5903616px;stroke-linecap:butt;stroke-linejoin:miter;stroke-miterlimit:10;stroke-dasharray:none;stroke-opacity:1;" />
  <path
     id="path9"
     d="  M 244.23453,169.42972   C 244.23453,178.98012 236.52229,186.69237 226.97188,186.69237   C 217.46144,186.69237 209.70923,178.98012 209.70923,169.42972   C 209.70923,159.91927 217.46144,152.16707 226.97188,152.16707   C 236.52229,152.16707 244.23453,159.91927 244.23453,169.42972   z "
     style="fill:#000000;fill-rule:evenodd;fill-opacity:1;stroke:none;" />
  <path
     id="path11"
     d="  M 244.23453,169.42972   C 244.23453,178.98012 236.52229,186.69237 226.97188,186.69237   C 217.46144,186.69237 209.70923,178.98012 209.70923,169.42972   C 209.70923,159.91927 217.46144,152.16707 226.97188,152.16707   C 236.52229,152.16707 244.23453,159.91927 244.23453,169.42972  "
     style="fill:none;stroke:#000000;stroke-width:9.5903616px;stroke-linecap:butt;stroke-linejoin:miter;stroke-miterlimit:10;stroke-dasharray:none;stroke-opacity:1;" />
  <path
     id="path13"
     d="  M 54.345381,187.6514   C 54.345381,190.52851 85.993573,198.2008 85.993573,169.42972   C 85.993573,140.65863 126.27309,140.65863 126.27309,169.42972   C 126.27309,198.2008 166.55261,198.2008 166.55261,169.42972   C 166.55261,140.65863 206.83213,140.65863 206.83213,169.42972   C 206.83213,198.2008 247.11164,198.2008 247.11164,169.42972   C 247.11164,140.65863 287.39116,140.65863 287.39116,169.42972   C 287.39116,198.2008 327.67068,198.2008 327.67068,169.42972   C 327.67068,140.65863 367.9502,140.65863 367.9502,169.42972   C 367.9502,198.2008 399.59839,190.52851 399.59839,187.6514  "
     style="fill:none;stroke:#000000;stroke-width:9.5903616px;stroke-linecap:butt;stroke-linejoin:miter;stroke-miterlimit:10;stroke-dasharray:none;stroke-opacity:1;" />
</svg>
