<?xml version="1.0" encoding="UTF-8" standalone="no"?>
<svg
   xmlns:dc="http://purl.org/dc/elements/1.1/"
   xmlns:cc="http://creativecommons.org/ns#"
   xmlns:rdf="http://www.w3.org/1999/02/22-rdf-syntax-ns#"
   xmlns:svg="http://www.w3.org/2000/svg"
   xmlns="http://www.w3.org/2000/svg"
   id="svg11"
   height="95.75mm"
   width="95.75mm"
   version="1.0">
  <metadata
     id="metadata15">
    <rdf:RDF>
      <cc:Work
         rdf:about="">
        <dc:format>image/svg+xml</dc:format>
        <dc:type
           rdf:resource="http://purl.org/dc/dcmitype/StillImage" />
      </cc:Work>
    </rdf:RDF>
  </metadata>
  <defs
     id="defs3">
    <pattern
       y="0"
       x="0"
       height="6"
       width="6"
       patternUnits="userSpaceOnUse"
       id="EMFhbasepattern" />
  </defs>
  <path
     id="path5"
     d="  M 54.345381,54.345381   L 54.345381,307.53092   L 307.53092,307.53092   L 307.53092,54.345381   L 54.345381,54.345381   z "
     style="fill:#aaffaa;fill-rule:evenodd;fill-opacity:1;stroke:none;" />
  <path
     id="path7"
     d="  M 54.345381,54.345381   L 307.53092,54.345381   L 307.53092,307.53092   L 54.345381,307.53092   z "
     style="fill:none;stroke:#000000;stroke-width:9.5903616px;stroke-linecap:butt;stroke-linejoin:miter;stroke-miterlimit:10;stroke-dasharray:none;stroke-opacity:1;" />
  <path
     id="path9"
     d="  M 230.72811,261.13755   L 131.98735,261.13755   C 114.76466,261.13755 106.13333,255.82289 106.13333,245.19357   C 106.13333,237.84096 110.44899,233.16566 119.08032,231.12771   C 123.11626,230.12871 130.34899,229.60923 140.69859,229.60923   L 235.64317,229.60923   C 252.38634,229.60923 260.73795,234.80401 260.73795,245.19357   C 260.73795,255.82289 250.70803,261.13755 230.72811,261.13755   z  M 131.22811,234.56425   C 122.35703,234.56425 117.92148,238.12068 117.92148,245.19357   C 117.92148,252.26646 125.51385,255.82289 140.69859,255.82289   L 234.52429,255.82289   C 244.11466,255.82289 248.9498,252.26646 248.9498,245.19357   C 248.9498,239.87891 246.39237,236.60221 241.35743,235.32349   C 239.59919,235.04377 234.88393,234.92389 227.29156,234.92389   z  M 148.69056,107.33213   L 157.04217,107.33213   L 157.04217,168.07108   L 148.69056,168.07108   z  M 198.64036,223.1757   C 193.9251,227.21164 188.051,229.20964 180.97811,229.20964   C 173.86526,229.20964 167.91124,227.21164 163.11606,223.1757   C 158.28092,219.0998 155.88333,214.0249 155.88333,207.951   C 155.88333,202.15682 158.36084,197.2018 163.31586,193.16586   C 168.23092,189.08996 173.98514,186.93213 180.57851,186.69237   C 187.41164,186.69237 193.44558,188.73032 198.64036,192.76626   C 203.79518,196.80221 206.27269,201.87711 206.03293,207.951   C 205.79317,214.0249 203.31566,219.0998 198.64036,223.1757   z  M 176.78233,130.50883   L 176.78233,122.15723   L 157.04217,122.15723   L 157.04217,130.50883   z  M 176.78233,151.36787   L 176.78233,143.01626   L 157.04217,143.01626   L 157.04217,151.36787   z  M 181.33775,193.16586   C 176.26285,193.16586 172.02711,194.56446 168.63052,197.32168   C 165.19397,200.11887 163.51566,203.6753 163.51566,207.951   C 163.51566,212.0269 165.19397,215.50341 168.63052,218.42048   C 172.02711,221.33755 176.26285,222.7761 181.33775,222.7761   C 186.17289,222.7761 190.24879,221.33755 193.68534,218.42048   C 197.12188,215.50341 198.84016,212.0269 198.84016,207.951   C 198.84016,203.39558 197.04197,199.79919 193.5255,197.12188   C 189.96907,194.48454 185.89317,193.16586 181.33775,193.16586   z  M 185.89317,71.608031   L 185.89317,186.69237   L 176.42269,187.05201   L 176.42269,71.608031   z  M 203.35562,130.50883   L 203.35562,121.75763   L 185.89317,122.15723   L 185.89317,130.86847   z  M 203.35562,151.36787   L 203.35562,142.65662   L 185.89317,143.01626   L 185.89317,151.76747   z  M 203.35562,106.93253   L 212.50642,106.93253   L 212.50642,167.71144   L 203.35562,167.71144   z "
     style="fill:#000000;fill-rule:evenodd;fill-opacity:1;stroke:none;" />
</svg>
