<?xml version="1.0" encoding="UTF-8" standalone="no"?>
<svg
   xmlns:dc="http://purl.org/dc/elements/1.1/"
   xmlns:cc="http://creativecommons.org/ns#"
   xmlns:rdf="http://www.w3.org/1999/02/22-rdf-syntax-ns#"
   xmlns:svg="http://www.w3.org/2000/svg"
   xmlns="http://www.w3.org/2000/svg"
   id="svg11"
   height="116.73mm"
   width="116.73mm"
   version="1.0">
  <metadata
     id="metadata15">
    <rdf:RDF>
      <cc:Work
         rdf:about="">
        <dc:format>image/svg+xml</dc:format>
        <dc:type
           rdf:resource="http://purl.org/dc/dcmitype/StillImage" />
      </cc:Work>
    </rdf:RDF>
  </metadata>
  <defs
     id="defs3">
    <pattern
       y="0"
       x="0"
       height="6"
       width="6"
       patternUnits="userSpaceOnUse"
       id="EMFhbasepattern" />
  </defs>
  <path
     id="path5"
     d="  M 220.57831,386.49156   L 220.57831,386.49156   L 386.49156,220.57831   L 220.57831,54.665059   L 54.665059,220.57831   L 220.57831,386.49156   z "
     style="fill:#ff8080;fill-rule:evenodd;fill-opacity:1;stroke:none;" />
  <path
     id="path7"
     d="  M 220.57831,386.49156   L 220.57831,386.49156   L 386.49156,220.57831   L 220.57831,54.665059   L 54.665059,220.57831   L 220.57831,386.49156  "
     style="fill:none;stroke:#000000;stroke-width:9.5903616px;stroke-linecap:butt;stroke-linejoin:miter;stroke-miterlimit:10;stroke-dasharray:none;stroke-opacity:1;" />
  <path
     id="path9"
     d="  M 182.21686,150.28895   L 192.16686,150.28895   L 192.16686,250.90783   L 182.21686,250.90783   z  M 241.07771,313.20522   C 235.24357,318.51987 228.33052,321.19718 220.33855,321.19718   C 211.78715,321.19718 204.67429,318.59979 199,313.40502   C 193.3257,308.21024 190.52851,301.81666 190.52851,294.22429   C 190.52851,286.63192 193.3257,280.23835 199,275.04357   C 204.67429,269.84879 211.62731,267.13152 219.93895,266.8518   C 227.93092,266.8518 234.92389,269.52911 240.83795,274.84377   C 246.79196,280.15843 249.74899,286.59196 249.74899,294.22429   C 249.74899,301.53694 246.87188,307.89056 241.07771,313.20522   z  M 215.38353,182.53654   L 215.38353,171.90723   L 191.76727,171.90723   L 191.76727,182.53654   z  M 215.38353,205.35361   L 215.38353,194.72429   L 191.76727,194.72429   L 191.76727,205.35361   z  M 215.38353,228.13072   L 215.38353,217.5014   L 191.76727,217.5014   L 191.76727,228.13072   z  M 220.33855,274.84377   C 214.54437,274.84377 209.62931,276.68192 205.63333,280.35823   C 201.63735,284.03453 199.63935,288.51004 199.63935,293.82469   C 199.63935,299.13935 201.63735,303.65481 205.63333,307.33112   C 209.62931,311.00743 214.54437,312.84558 220.33855,312.84558   C 226.13273,312.84558 231.04779,311.00743 235.04377,307.33112   C 239.03976,303.65481 241.07771,299.13935 241.07771,293.82469   C 241.07771,288.51004 239.03976,284.03453 235.04377,280.35823   C 231.04779,276.68192 226.13273,274.84377 220.33855,274.84377   z  M 226.13273,119.87952   L 226.13273,266.8518   L 214.98393,267.2514   L 214.98393,119.87952   z  M 247.27148,182.53654   L 247.27148,171.54759   L 226.57229,171.90723   L 226.57229,182.93614   z  M 247.27148,205.35361   L 247.27148,194.3247   L 226.57229,194.72429   L 226.57229,205.71325   z  M 247.27148,228.13072   L 247.27148,217.1018   L 226.57229,217.5014   L 226.57229,228.53032   z  M 246.87188,149.88936   L 257.62108,149.88936   L 257.62108,250.54819   L 246.87188,250.54819   z "
     style="fill:#000000;fill-rule:evenodd;fill-opacity:1;stroke:none;" />
</svg>
