<?xml version="1.0" encoding="UTF-8" standalone="no"?>
<svg
   xmlns:dc="http://purl.org/dc/elements/1.1/"
   xmlns:cc="http://creativecommons.org/ns#"
   xmlns:rdf="http://www.w3.org/1999/02/22-rdf-syntax-ns#"
   xmlns:svg="http://www.w3.org/2000/svg"
   xmlns="http://www.w3.org/2000/svg"
   id="svg11"
   height="130.27mm"
   width="130.27mm"
   version="1.0">
  <metadata
     id="metadata15">
    <rdf:RDF>
      <cc:Work
         rdf:about="">
        <dc:format>image/svg+xml</dc:format>
        <dc:type
           rdf:resource="http://purl.org/dc/dcmitype/StillImage" />
      </cc:Work>
    </rdf:RDF>
  </metadata>
  <defs
     id="defs3">
    <pattern
       y="0"
       x="0"
       height="6"
       width="6"
       patternUnits="userSpaceOnUse"
       id="EMFhbasepattern" />
  </defs>
  <path
     id="path5"
     d="  M 164.63454,327.67068   C 164.63454,437.95983 327.67068,437.95983 327.67068,327.67068   C 437.95983,327.67068 437.95983,164.63454 327.67068,164.63454   C 327.67068,54.345381 164.63454,54.345381 164.63454,164.63454   C 54.345381,164.63454 54.345381,327.67068 164.63454,327.67068   z "
     style="fill:#ffff80;fill-rule:evenodd;fill-opacity:1;stroke:none;" />
  <path
     id="path7"
     d="  M 164.63454,327.67068   C 164.63454,437.95983 327.67068,437.95983 327.67068,327.67068   C 437.95983,327.67068 437.95983,164.63454 327.67068,164.63454   C 327.67068,54.345381 164.63454,54.345381 164.63454,164.63454   C 54.345381,164.63454 54.345381,327.67068 164.63454,327.67068  "
     style="fill:none;stroke:#000000;stroke-width:9.5903616px;stroke-linecap:butt;stroke-linejoin:miter;stroke-miterlimit:10;stroke-dasharray:none;stroke-opacity:1;" />
  <path
     id="path9"
     d="  M 295.94257,326.352   L 197.2018,326.352   C 179.97911,326.352 171.34779,321.03734 171.34779,310.40803   C 171.34779,303.05542 175.66345,298.38012 184.25482,296.34216   C 188.33072,295.34317 195.52349,294.82369 205.91305,294.82369   L 300.85763,294.82369   C 317.56084,294.82369 325.91245,300.01847 325.91245,310.40803   C 325.91245,321.03734 315.92249,326.352 295.94257,326.352   z  M 196.44257,299.77871   C 187.57148,299.77871 183.13594,303.33514 183.13594,310.40803   C 183.13594,317.48092 190.72831,321.03734 205.91305,321.03734   L 299.73875,321.03734   C 309.32911,321.03734 314.16425,317.48092 314.16425,310.40803   C 314.16425,305.09337 311.60682,301.81666 306.57188,300.53795   C 304.77369,300.29819 300.09839,300.13835 292.50602,300.13835   z  M 213.90502,172.54658   L 222.25662,172.54658   L 222.25662,227.61124   L 213.90502,227.61124   z  M 263.85482,288.39016   C 259.13955,292.4261 253.26546,294.46405 246.19257,294.46405   C 239.07972,294.46405 233.1257,292.4261 228.33052,288.39016   C 223.49538,284.31425 221.09779,279.27931 221.09779,273.20542   C 221.09779,267.37128 223.5753,262.45622 228.49036,258.38032   C 233.44538,254.34437 239.19959,252.18654 245.79297,251.90682   C 252.6261,251.90682 258.66004,253.94478 263.81486,257.98072   C 269.00963,262.05662 271.48714,267.09156 271.24739,273.20542   C 271.00763,279.27931 268.53012,284.31425 263.85482,288.39016   z  M 241.59719,205.19377   L 241.59719,196.84217   L 222.25662,196.84217   L 222.25662,205.19377   z  M 246.55221,258.38032   C 241.47731,258.38032 237.24156,259.77891 233.84498,262.5761   C 230.40843,265.33333 228.69016,268.88976 228.69016,273.20542   C 228.69016,277.24136 230.40843,280.71787 233.84498,283.63494   C 237.24156,286.552 241.47731,287.99056 246.55221,287.99056   C 251.34739,287.99056 255.46325,286.552 258.8998,283.63494   C 262.29638,280.71787 264.01465,277.24136 264.01465,273.20542   C 264.01465,268.65 262.25642,265.01365 258.7,262.3763   C 255.18353,259.69899 251.10763,258.38032 246.55221,258.38032   z  M 251.10763,136.82249   L 251.10763,251.90682   L 241.59719,252.30642   L 241.59719,136.82249   z  M 268.57008,205.19377   L 268.57008,196.48253   L 251.10763,196.84217   L 251.10763,205.59337   z  M 268.57008,172.14699   L 277.72088,172.14699   L 277.72088,227.21164   L 268.57008,227.21164   z "
     style="fill:#000000;fill-rule:evenodd;fill-opacity:1;stroke:none;" />
</svg>
