<?xml version="1.0" encoding="UTF-8" standalone="no"?>
<svg
   xmlns:dc="http://purl.org/dc/elements/1.1/"
   xmlns:cc="http://creativecommons.org/ns#"
   xmlns:rdf="http://www.w3.org/1999/02/22-rdf-syntax-ns#"
   xmlns:svg="http://www.w3.org/2000/svg"
   xmlns="http://www.w3.org/2000/svg"
   id="svg11"
   height="130.27mm"
   width="130.27mm"
   version="1.0">
  <metadata
     id="metadata15">
    <rdf:RDF>
      <cc:Work
         rdf:about="">
        <dc:format>image/svg+xml</dc:format>
        <dc:type
           rdf:resource="http://purl.org/dc/dcmitype/StillImage" />
      </cc:Work>
    </rdf:RDF>
  </metadata>
  <defs
     id="defs3">
    <pattern
       y="0"
       x="0"
       height="6"
       width="6"
       patternUnits="userSpaceOnUse"
       id="EMFhbasepattern" />
  </defs>
  <path
     id="path5"
     d="  M 164.63454,327.67068   C 164.63454,437.95983 327.67068,437.95983 327.67068,327.67068   C 437.95983,327.67068 437.95983,164.63454 327.67068,164.63454   C 327.67068,54.345381 164.63454,54.345381 164.63454,164.63454   C 54.345381,164.63454 54.345381,327.67068 164.63454,327.67068   z "
     style="fill:#ffff80;fill-rule:evenodd;fill-opacity:1;stroke:none;" />
  <path
     id="path7"
     d="  M 164.63454,327.67068   C 164.63454,437.95983 327.67068,437.95983 327.67068,327.67068   C 437.95983,327.67068 437.95983,164.63454 327.67068,164.63454   C 327.67068,54.345381 164.63454,54.345381 164.63454,164.63454   C 54.345381,164.63454 54.345381,327.67068 164.63454,327.67068  "
     style="fill:none;stroke:#000000;stroke-width:9.5903616px;stroke-linecap:butt;stroke-linejoin:miter;stroke-miterlimit:10;stroke-dasharray:none;stroke-opacity:1;" />
  <path
     id="path9"
     d="  M 207.79116,183.45562   L 217.74116,183.45562   L 217.74116,268.88976   L 207.79116,268.88976   z  M 266.652,338.77951   C 260.81787,344.09417 253.90482,346.77148 245.91285,346.77148   C 237.36144,346.77148 230.24859,344.17409 224.57429,338.97931   C 218.9,333.78453 216.10281,327.39096 216.10281,319.79859   C 216.10281,312.20622 218.9,305.81265 224.57429,300.61787   C 230.24859,295.42309 237.2016,292.70582 245.51325,292.4261   C 253.50522,292.4261 260.49819,295.10341 266.41225,300.41807   C 272.36626,305.73273 275.32329,312.16626 275.32329,319.79859   C 275.32329,327.11124 272.44618,333.46485 266.652,338.77951   z  M 240.95783,219.53935   L 240.95783,208.91004   L 217.34156,208.91004   L 217.34156,219.53935   z  M 240.95783,242.31646   L 240.95783,231.68715   L 217.34156,231.68715   L 217.34156,242.31646   z  M 245.91285,300.41807   C 240.11867,300.41807 235.20361,302.25622 231.20763,305.93253   C 227.21164,309.60883 225.21365,314.08433 225.21365,319.39899   C 225.21365,324.71365 227.21164,329.22911 231.20763,332.90542   C 235.20361,336.58172 240.11867,338.41987 245.91285,338.41987   C 251.70702,338.41987 256.62208,336.58172 260.61807,332.90542   C 264.61405,329.22911 266.652,324.71365 266.652,319.39899   C 266.652,314.08433 264.61405,309.60883 260.61807,305.93253   C 256.62208,302.25622 251.70702,300.41807 245.91285,300.41807   z  M 251.70702,145.45381   L 251.70702,292.4261   L 240.55823,292.8257   L 240.55823,145.45381   z  M 272.84578,219.53935   L 272.84578,208.51044   L 252.14658,208.91004   L 252.14658,219.89899   z  M 272.84578,242.31646   L 272.84578,231.28755   L 252.14658,231.68715   L 252.14658,242.6761   z  M 272.44618,183.05602   L 283.19538,183.05602   L 283.19538,268.53012   L 272.44618,268.53012   z "
     style="fill:#000000;fill-rule:evenodd;fill-opacity:1;stroke:none;" />
</svg>
