<?xml version="1.0" encoding="UTF-8" standalone="no"?>
<svg
   xmlns:dc="http://purl.org/dc/elements/1.1/"
   xmlns:cc="http://creativecommons.org/ns#"
   xmlns:rdf="http://www.w3.org/1999/02/22-rdf-syntax-ns#"
   xmlns:svg="http://www.w3.org/2000/svg"
   xmlns="http://www.w3.org/2000/svg"
   id="svg11"
   height="101.85mm"
   width="101.85mm"
   version="1.0">
  <metadata
     id="metadata15">
    <rdf:RDF>
      <cc:Work
         rdf:about="">
        <dc:format>image/svg+xml</dc:format>
        <dc:type
           rdf:resource="http://purl.org/dc/dcmitype/StillImage" />
      </cc:Work>
    </rdf:RDF>
  </metadata>
  <defs
     id="defs3">
    <pattern
       y="0"
       x="0"
       height="6"
       width="6"
       patternUnits="userSpaceOnUse"
       id="EMFhbasepattern" />
  </defs>
  <path
     id="path5"
     d="  M 330.54779,192.44658   C 330.54779,268.72992 268.72992,330.54779 192.44658,330.54779   C 116.20321,330.54779 54.345381,268.72992 54.345381,192.44658   C 54.345381,116.20321 116.20321,54.345381 192.44658,54.345381   C 268.72992,54.345381 330.54779,116.20321 330.54779,192.44658   z "
     style="fill:#80e0ff;fill-rule:evenodd;fill-opacity:1;stroke:none;" />
  <path
     id="path7"
     d="  M 330.54779,192.44658   C 330.54779,268.72992 268.72992,330.54779 192.44658,330.54779   C 116.20321,330.54779 54.345381,268.72992 54.345381,192.44658   C 54.345381,116.20321 116.20321,54.345381 192.44658,54.345381   C 268.72992,54.345381 330.54779,116.20321 330.54779,192.44658  "
     style="fill:none;stroke:#000000;stroke-width:9.5903616px;stroke-linecap:butt;stroke-linejoin:miter;stroke-miterlimit:10;stroke-dasharray:none;stroke-opacity:1;" />
  <path
     id="path9"
     d="  M 154.08514,137.26205   L 164.15502,137.26205   L 164.15502,207.79116   L 154.08514,207.79116   z  M 213.06586,284.87369   C 207.27168,290.18835 200.39859,292.86566 192.44658,292.86566   C 183.89518,292.86566 176.82229,290.26827 171.18795,285.07349   C 165.55361,279.87871 162.71646,273.44518 162.71646,265.85281   C 162.71646,258.26044 165.55361,251.8269 171.18795,246.63212   C 176.82229,241.43735 183.7753,238.72008 192.00703,238.44036   C 199.99899,238.44036 206.95201,241.11767 212.86606,246.43233   C 218.74016,251.78694 221.69719,258.22048 221.69719,265.85281   C 221.69719,273.20542 218.82008,279.55903 213.06586,284.87369   z  M 187.17188,178.78032   L 187.17188,168.19096   L 164.15502,168.19096   L 164.15502,178.78032   z  M 192.60642,246.71204   C 186.85221,246.71204 181.97711,248.5502 178.02108,252.14658   C 174.06506,255.78293 172.10703,260.25843 172.10703,265.49317   C 172.10703,270.76787 174.06506,275.20341 178.02108,278.83976   C 181.97711,282.4761 186.85221,284.27429 192.60642,284.27429   C 198.32068,284.27429 203.19578,282.4761 207.1518,278.83976   C 211.10783,275.20341 213.06586,270.76787 213.06586,265.49317   C 213.06586,260.25843 211.10783,255.78293 207.1518,252.14658   C 203.15582,248.5502 198.32068,246.71204 192.60642,246.71204   z  M 197.96104,91.74779   L 197.96104,238.8   L 187.17188,238.8   L 187.17188,91.74779   z  M 218.82008,178.78032   L 218.82008,167.83132   L 197.96104,168.19096   L 197.96104,178.78032   z  M 218.82008,137.26205   L 229.60923,137.26205   L 229.60923,207.79116   L 218.82008,207.79116   z "
     style="fill:#000000;fill-rule:evenodd;fill-opacity:1;stroke:none;" />
</svg>
