<?xml version="1.0" encoding="UTF-8" standalone="no"?>
<svg
   xmlns:dc="http://purl.org/dc/elements/1.1/"
   xmlns:cc="http://creativecommons.org/ns#"
   xmlns:rdf="http://www.w3.org/1999/02/22-rdf-syntax-ns#"
   xmlns:svg="http://www.w3.org/2000/svg"
   xmlns="http://www.w3.org/2000/svg"
   id="svg11"
   height="95.75mm"
   width="95.75mm"
   version="1.0">
  <metadata
     id="metadata15">
    <rdf:RDF>
      <cc:Work
         rdf:about="">
        <dc:format>image/svg+xml</dc:format>
        <dc:type
           rdf:resource="http://purl.org/dc/dcmitype/StillImage" />
      </cc:Work>
    </rdf:RDF>
  </metadata>
  <defs
     id="defs3">
    <pattern
       y="0"
       x="0"
       height="6"
       width="6"
       patternUnits="userSpaceOnUse"
       id="EMFhbasepattern" />
  </defs>
  <path
     id="path5"
     d="  M 54.345381,54.345381   L 54.345381,307.53092   L 307.53092,307.53092   L 307.53092,54.345381   L 54.345381,54.345381   z "
     style="fill:#aaffaa;fill-rule:evenodd;fill-opacity:1;stroke:none;" />
  <path
     id="path7"
     d="  M 54.345381,54.345381   L 307.53092,54.345381   L 307.53092,307.53092   L 54.345381,307.53092   z "
     style="fill:none;stroke:#000000;stroke-width:9.5903616px;stroke-linecap:butt;stroke-linejoin:miter;stroke-miterlimit:10;stroke-dasharray:none;stroke-opacity:1;" />
  <path
     id="path9"
     d="  M 142.5767,125.75361   L 152.64658,125.75361   L 152.64658,196.28273   L 142.5767,196.28273   z  M 201.55743,273.36526   C 195.76325,278.67992 188.89016,281.35722 180.93815,281.35722   C 172.38674,281.35722 165.31385,278.75984 159.67952,273.56506   C 154.04518,268.37028 151.20803,261.93674 151.20803,254.34437   C 151.20803,246.752 154.04518,240.31847 159.67952,235.12369   C 165.31385,229.92891 172.26686,227.21164 180.49859,226.93192   C 188.49056,226.93192 195.44357,229.60923 201.35763,234.92389   C 207.23172,240.27851 210.18875,246.71204 210.18875,254.34437   C 210.18875,261.69698 207.31164,268.0506 201.55743,273.36526   z  M 175.66345,167.27189   L 175.66345,156.68253   L 152.64658,156.68253   L 152.64658,167.27189   z  M 181.09799,235.20361   C 175.34377,235.20361 170.46867,237.04176 166.51265,240.63815   C 162.55662,244.27449 160.59859,248.75 160.59859,253.98474   C 160.59859,259.25943 162.55662,263.69498 166.51265,267.33132   C 170.46867,270.96767 175.34377,272.76586 181.09799,272.76586   C 186.81225,272.76586 191.68735,270.96767 195.64337,267.33132   C 199.59939,263.69498 201.55743,259.25943 201.55743,253.98474   C 201.55743,248.75 199.59939,244.27449 195.64337,240.63815   C 191.64739,237.04176 186.81225,235.20361 181.09799,235.20361   z  M 186.45261,80.239356   L 186.45261,227.29156   L 175.66345,227.29156   L 175.66345,80.239356   z  M 207.31164,167.27189   L 207.31164,156.32289   L 186.45261,156.68253   L 186.45261,167.27189   z  M 207.31164,125.75361   L 218.1008,125.75361   L 218.1008,196.28273   L 207.31164,196.28273   z "
     style="fill:#000000;fill-rule:evenodd;fill-opacity:1;stroke:none;" />
</svg>
