<?xml version="1.0" encoding="UTF-8" standalone="no"?>
<svg
   xmlns:dc="http://purl.org/dc/elements/1.1/"
   xmlns:cc="http://creativecommons.org/ns#"
   xmlns:rdf="http://www.w3.org/1999/02/22-rdf-syntax-ns#"
   xmlns:svg="http://www.w3.org/2000/svg"
   xmlns="http://www.w3.org/2000/svg"
   id="svg7"
   height="53.470001mm"
   width="20.139999mm"
   version="1.0">
  <metadata
     id="metadata11">
    <rdf:RDF>
      <cc:Work
         rdf:about="">
        <dc:format>image/svg+xml</dc:format>
        <dc:type
           rdf:resource="http://purl.org/dc/dcmitype/StillImage" />
      </cc:Work>
    </rdf:RDF>
  </metadata>
  <defs
     id="defs3">
    <pattern
       y="0"
       x="0"
       height="6"
       width="6"
       patternUnits="userSpaceOnUse"
       id="EMFhbasepattern" />
  </defs>
  <path
     id="path5"
     d="  M 0,45.833935   L 10.069879,45.833935   L 10.069879,116.36305   L 0,116.36305   z  M 58.980722,193.44558   C 53.186545,198.76024 46.313453,201.43755 38.361445,201.43755   C 29.81004,201.43755 22.737148,198.84016 17.102811,193.64538   C 11.468474,188.4506 8.6313252,182.01707 8.6313252,174.4247   C 8.6313252,166.83233 11.468474,160.39879 17.102811,155.20401   C 22.737148,150.00923 29.69016,147.29197 37.921887,147.01225   C 45.913855,147.01225 52.866867,149.68956 58.780923,155.00421   C 64.655019,160.35883 67.612047,166.79237 67.612047,174.4247   C 67.612047,181.77731 64.734939,188.13092 58.980722,193.44558   z  M 33.086747,87.352208   L 33.086747,76.76285   L 10.069879,76.76285   L 10.069879,87.352208   z  M 38.521285,155.28393   C 32.767068,155.28393 27.891967,157.12209 23.935943,160.71847   C 19.979919,164.35482 18.021887,168.83032 18.021887,174.06506   C 18.021887,179.33976 19.979919,183.7753 23.935943,187.41164   C 27.891967,191.04799 32.767068,192.84618 38.521285,192.84618   C 44.235542,192.84618 49.110642,191.04799 53.066666,187.41164   C 57.02269,183.7753 58.980722,179.33976 58.980722,174.06506   C 58.980722,168.83032 57.02269,164.35482 53.066666,160.71847   C 49.070682,157.12209 44.235542,155.28393 38.521285,155.28393   z  M 43.875903,0.31967871   L 43.875903,147.37189   L 33.086747,147.37189   L 33.086747,0.31967871   z  M 64.734939,87.352208   L 64.734939,76.403212   L 43.875903,76.76285   L 43.875903,87.352208   z  M 64.734939,45.833935   L 75.524095,45.833935   L 75.524095,116.36305   L 64.734939,116.36305   z "
     style="fill:#ff8080;fill-rule:evenodd;fill-opacity:1;stroke:none;" />
</svg>
