<?xml version="1.0" encoding="UTF-8" standalone="no"?>
<svg
   xmlns:dc="http://purl.org/dc/elements/1.1/"
   xmlns:cc="http://creativecommons.org/ns#"
   xmlns:rdf="http://www.w3.org/1999/02/22-rdf-syntax-ns#"
   xmlns:svg="http://www.w3.org/2000/svg"
   xmlns="http://www.w3.org/2000/svg"
   id="svg11"
   height="116.73mm"
   width="116.73mm"
   version="1.0">
  <metadata
     id="metadata15">
    <rdf:RDF>
      <cc:Work
         rdf:about="">
        <dc:format>image/svg+xml</dc:format>
        <dc:type
           rdf:resource="http://purl.org/dc/dcmitype/StillImage" />
      </cc:Work>
    </rdf:RDF>
  </metadata>
  <defs
     id="defs3">
    <pattern
       y="0"
       x="0"
       height="6"
       width="6"
       patternUnits="userSpaceOnUse"
       id="EMFhbasepattern" />
  </defs>
  <path
     id="path5"
     d="  M 220.57831,386.49156   L 220.57831,386.49156   L 386.49156,220.57831   L 220.57831,54.665059   L 54.665059,220.57831   L 220.57831,386.49156   z "
     style="fill:#ff8080;fill-rule:evenodd;fill-opacity:1;stroke:none;" />
  <path
     id="path7"
     d="  M 220.57831,386.49156   L 220.57831,386.49156   L 386.49156,220.57831   L 220.57831,54.665059   L 54.665059,220.57831   L 220.57831,386.49156  "
     style="fill:none;stroke:#000000;stroke-width:9.5903616px;stroke-linecap:butt;stroke-linejoin:miter;stroke-miterlimit:10;stroke-dasharray:none;stroke-opacity:1;" />
  <path
     id="path9"
     d="  M 182.21686,165.39377   L 192.28674,165.39377   L 192.28674,235.92289   L 182.21686,235.92289   z  M 241.19759,313.00542   C 235.40341,318.32008 228.53032,320.99738 220.57831,320.99738   C 212.0269,320.99738 204.95401,318.4 199.31968,313.20522   C 193.68534,308.01044 190.84819,301.5769 190.84819,293.98453   C 190.84819,286.39216 193.68534,279.95863 199.31968,274.76385   C 204.95401,269.56907 211.90703,266.8518 220.13875,266.57208   C 228.13072,266.57208 235.08373,269.24939 240.99779,274.56405   C 246.87188,279.91867 249.82891,286.3522 249.82891,293.98453   C 249.82891,301.33714 246.9518,307.69076 241.19759,313.00542   z  M 220.73815,274.84377   C 214.98393,274.84377 210.10883,276.68192 206.15281,280.27831   C 202.19678,283.91465 200.23875,288.39016 200.23875,293.6249   C 200.23875,298.89959 202.19678,303.33514 206.15281,306.97148   C 210.10883,310.60783 214.98393,312.40602 220.73815,312.40602   C 226.45241,312.40602 231.32751,310.60783 235.28353,306.97148   C 239.23955,303.33514 241.19759,298.89959 241.19759,293.6249   C 241.19759,288.39016 239.23955,283.91465 235.28353,280.27831   C 231.28755,276.68192 226.45241,274.84377 220.73815,274.84377   z  M 226.09277,119.87952   L 226.09277,266.93172   L 215.30361,266.93172   L 215.30361,119.87952   z  M 246.9518,165.39377   L 257.74096,165.39377   L 257.74096,235.92289   L 246.9518,235.92289   z "
     style="fill:#000000;fill-rule:evenodd;fill-opacity:1;stroke:none;" />
</svg>
