<?xml version="1.0" encoding="UTF-8" standalone="no"?>
<svg
   xmlns:dc="http://purl.org/dc/elements/1.1/"
   xmlns:cc="http://creativecommons.org/ns#"
   xmlns:rdf="http://www.w3.org/1999/02/22-rdf-syntax-ns#"
   xmlns:svg="http://www.w3.org/2000/svg"
   xmlns="http://www.w3.org/2000/svg"
   id="svg11"
   height="101.85mm"
   width="101.85mm"
   version="1.0">
  <metadata
     id="metadata15">
    <rdf:RDF>
      <cc:Work
         rdf:about="">
        <dc:format>image/svg+xml</dc:format>
        <dc:type
           rdf:resource="http://purl.org/dc/dcmitype/StillImage" />
      </cc:Work>
    </rdf:RDF>
  </metadata>
  <defs
     id="defs3">
    <pattern
       y="0"
       x="0"
       height="6"
       width="6"
       patternUnits="userSpaceOnUse"
       id="EMFhbasepattern" />
  </defs>
  <path
     id="path5"
     d="  M 330.54779,192.44658   C 330.54779,268.72992 268.72992,330.54779 192.44658,330.54779   C 116.20321,330.54779 54.345381,268.72992 54.345381,192.44658   C 54.345381,116.20321 116.20321,54.345381 192.44658,54.345381   C 268.72992,54.345381 330.54779,116.20321 330.54779,192.44658   z "
     style="fill:#80e0ff;fill-rule:evenodd;fill-opacity:1;stroke:none;" />
  <path
     id="path7"
     d="  M 330.54779,192.44658   C 330.54779,268.72992 268.72992,330.54779 192.44658,330.54779   C 116.20321,330.54779 54.345381,268.72992 54.345381,192.44658   C 54.345381,116.20321 116.20321,54.345381 192.44658,54.345381   C 268.72992,54.345381 330.54779,116.20321 330.54779,192.44658  "
     style="fill:none;stroke:#000000;stroke-width:9.5903616px;stroke-linecap:butt;stroke-linejoin:miter;stroke-miterlimit:10;stroke-dasharray:none;stroke-opacity:1;" />
  <path
     id="path9"
     d="  M 242.23654,272.64598   L 143.49578,272.64598   C 126.27309,272.64598 117.64177,267.33132 117.64177,256.702   C 117.64177,249.34939 121.95743,244.67409 130.54879,242.63614   C 134.6247,241.63715 141.81747,241.11767 152.20703,241.11767   L 247.1516,241.11767   C 263.85482,241.11767 272.20642,246.31245 272.20642,256.702   C 272.20642,267.33132 262.21646,272.64598 242.23654,272.64598   z  M 142.73654,246.07269   C 133.86546,246.07269 129.42992,249.62911 129.42992,256.702   C 129.42992,263.7749 137.02229,267.33132 152.20703,267.33132   L 246.03273,267.33132   C 255.62309,267.33132 260.45823,263.7749 260.45823,256.702   C 260.45823,251.38735 257.9008,248.11064 252.86586,246.83192   C 251.06767,246.59217 246.39237,246.43233 238.8,246.43233   z  M 160.19899,101.73775   L 168.5506,101.73775   L 168.5506,187.21184   L 160.19899,187.21184   z  M 210.14879,234.68413   C 205.43353,238.72008 199.55943,240.75803 192.48654,240.75803   C 185.37369,240.75803 179.41968,238.72008 174.6245,234.68413   C 169.82931,230.60823 167.39176,225.53333 167.39176,219.45943   C 167.39176,213.66526 169.86927,208.7502 174.82429,204.67429   C 179.73935,200.63835 185.49357,198.48052 192.08695,198.2008   C 198.92008,198.2008 204.95401,200.23875 210.14879,204.2747   C 215.30361,208.3506 217.78112,213.38554 217.54136,219.45943   C 217.3016,225.53333 214.82409,230.60823 210.14879,234.68413   z  M 188.29076,126.83253   L 188.29076,118.44096   L 168.5506,118.44096   L 168.5506,126.83253   z  M 188.29076,147.69156   L 188.29076,139.33996   L 168.5506,139.33996   L 168.5506,147.69156   z  M 188.29076,168.59056   L 188.29076,160.23895   L 168.5506,160.23895   L 168.5506,168.59056   z  M 192.84618,204.67429   C 187.77128,204.67429 183.53554,206.07289 180.13895,208.87008   C 176.70241,211.62731 174.98413,215.18373 174.98413,219.45943   C 174.98413,223.53534 176.70241,227.01184 180.13895,229.92891   C 183.53554,232.84598 187.77128,234.28453 192.84618,234.28453   C 197.64136,234.28453 201.75723,232.84598 205.19377,229.92891   C 208.63032,227.01184 210.34859,223.53534 210.34859,219.45943   C 210.34859,214.90401 208.5504,211.30763 204.99397,208.67028   C 201.47751,205.99297 197.4016,204.67429 192.84618,204.67429   z  M 197.4016,83.116465   L 197.4016,198.2008   L 187.93112,198.6004   L 187.93112,83.116465   z  M 214.86405,126.83253   L 214.86405,118.44096   L 197.4016,118.44096   L 197.4016,127.19217   z  M 214.86405,147.69156   L 214.86405,138.98032   L 197.4016,139.33996   L 197.4016,148.09116   z  M 214.86405,168.59056   L 214.86405,160.23895   L 197.4016,160.23895   L 197.4016,168.99016   z  M 214.86405,101.37811   L 224.01486,101.37811   L 224.01486,186.81225   L 214.86405,186.81225   z "
     style="fill:#000000;fill-rule:evenodd;fill-opacity:1;stroke:none;" />
</svg>
