<?xml version="1.0" encoding="UTF-8" standalone="no"?>
<svg
   xmlns:dc="http://purl.org/dc/elements/1.1/"
   xmlns:cc="http://creativecommons.org/ns#"
   xmlns:rdf="http://www.w3.org/1999/02/22-rdf-syntax-ns#"
   xmlns:svg="http://www.w3.org/2000/svg"
   xmlns="http://www.w3.org/2000/svg"
   id="svg11"
   height="101.85mm"
   width="101.85mm"
   version="1.0">
  <metadata
     id="metadata15">
    <rdf:RDF>
      <cc:Work
         rdf:about="">
        <dc:format>image/svg+xml</dc:format>
        <dc:type
           rdf:resource="http://purl.org/dc/dcmitype/StillImage" />
      </cc:Work>
    </rdf:RDF>
  </metadata>
  <defs
     id="defs3">
    <pattern
       y="0"
       x="0"
       height="6"
       width="6"
       patternUnits="userSpaceOnUse"
       id="EMFhbasepattern" />
  </defs>
  <path
     id="path5"
     d="  M 330.54779,192.44658   C 330.54779,268.72992 268.72992,330.54779 192.44658,330.54779   C 116.20321,330.54779 54.345381,268.72992 54.345381,192.44658   C 54.345381,116.20321 116.20321,54.345381 192.44658,54.345381   C 268.72992,54.345381 330.54779,116.20321 330.54779,192.44658   z "
     style="fill:#80e0ff;fill-rule:evenodd;fill-opacity:1;stroke:none;" />
  <path
     id="path7"
     d="  M 330.54779,192.44658   C 330.54779,268.72992 268.72992,330.54779 192.44658,330.54779   C 116.20321,330.54779 54.345381,268.72992 54.345381,192.44658   C 54.345381,116.20321 116.20321,54.345381 192.44658,54.345381   C 268.72992,54.345381 330.54779,116.20321 330.54779,192.44658  "
     style="fill:none;stroke:#000000;stroke-width:9.5903616px;stroke-linecap:butt;stroke-linejoin:miter;stroke-miterlimit:10;stroke-dasharray:none;stroke-opacity:1;" />
  <path
     id="path9"
     d="  M 242.23654,272.64598   L 143.49578,272.64598   C 126.27309,272.64598 117.64177,267.33132 117.64177,256.702   C 117.64177,249.34939 121.95743,244.67409 130.58875,242.63614   C 134.6247,241.63715 141.85743,241.11767 152.20703,241.11767   L 247.1516,241.11767   C 263.89478,241.11767 272.24638,246.31245 272.24638,256.702   C 272.24638,267.33132 262.21646,272.64598 242.23654,272.64598   z  M 142.73654,246.07269   C 133.86546,246.07269 129.42992,249.62911 129.42992,256.702   C 129.42992,263.7749 137.02229,267.33132 152.20703,267.33132   L 246.03273,267.33132   C 255.62309,267.33132 260.45823,263.7749 260.45823,256.702   C 260.45823,251.38735 257.9008,248.11064 252.86586,246.83192   C 251.10763,246.55221 246.39237,246.43233 238.8,246.43233   z  M 160.19899,118.84056   L 168.5506,118.84056   L 168.5506,179.57952   L 160.19899,179.57952   z  M 210.14879,234.68413   C 205.43353,238.72008 199.55943,240.71807 192.48654,240.71807   C 185.37369,240.71807 179.41968,238.72008 174.6245,234.68413   C 169.78935,230.60823 167.39176,225.53333 167.39176,219.45943   C 167.39176,213.66526 169.86927,208.71024 174.82429,204.67429   C 179.73935,200.59839 185.49357,198.44056 192.08695,198.2008   C 198.92008,198.2008 204.95401,200.23875 210.14879,204.2747   C 215.30361,208.31064 217.78112,213.38554 217.54136,219.45943   C 217.3016,225.53333 214.82409,230.60823 210.14879,234.68413   z  M 188.29076,142.01727   L 188.29076,133.66566   L 168.5506,133.66566   L 168.5506,142.01727   z  M 188.29076,162.8763   L 188.29076,154.5247   L 168.5506,154.5247   L 168.5506,162.8763   z  M 192.84618,204.67429   C 187.77128,204.67429 183.53554,206.07289 180.13895,208.83012   C 176.70241,211.62731 175.02409,215.18373 175.02409,219.45943   C 175.02409,223.53534 176.70241,227.01184 180.13895,229.92891   C 183.53554,232.84598 187.77128,234.28453 192.84618,234.28453   C 197.68132,234.28453 201.75723,232.84598 205.19377,229.92891   C 208.63032,227.01184 210.34859,223.53534 210.34859,219.45943   C 210.34859,214.90401 208.5504,211.30763 205.03393,208.63032   C 201.47751,205.99297 197.4016,204.67429 192.84618,204.67429   z  M 197.4016,83.116465   L 197.4016,198.2008   L 187.93112,198.56044   L 187.93112,83.116465   z  M 214.86405,142.01727   L 214.86405,133.26606   L 197.4016,133.66566   L 197.4016,142.37691   z  M 214.86405,162.8763   L 214.86405,154.16506   L 197.4016,154.5247   L 197.4016,163.2759   z  M 214.86405,118.44096   L 224.01486,118.44096   L 224.01486,179.21988   L 214.86405,179.21988   z "
     style="fill:#000000;fill-rule:evenodd;fill-opacity:1;stroke:none;" />
</svg>
