<?xml version="1.0" encoding="UTF-8" standalone="no"?>
<svg
   xmlns:dc="http://purl.org/dc/elements/1.1/"
   xmlns:cc="http://creativecommons.org/ns#"
   xmlns:rdf="http://www.w3.org/1999/02/22-rdf-syntax-ns#"
   xmlns:svg="http://www.w3.org/2000/svg"
   xmlns="http://www.w3.org/2000/svg"
   id="svg11"
   height="130.27mm"
   width="130.27mm"
   version="1.0">
  <metadata
     id="metadata15">
    <rdf:RDF>
      <cc:Work
         rdf:about="">
        <dc:format>image/svg+xml</dc:format>
        <dc:type
           rdf:resource="http://purl.org/dc/dcmitype/StillImage" />
      </cc:Work>
    </rdf:RDF>
  </metadata>
  <defs
     id="defs3">
    <pattern
       y="0"
       x="0"
       height="6"
       width="6"
       patternUnits="userSpaceOnUse"
       id="EMFhbasepattern" />
  </defs>
  <path
     id="path5"
     d="  M 164.63454,327.67068   C 164.63454,437.95983 327.67068,437.95983 327.67068,327.67068   C 437.95983,327.67068 437.95983,164.63454 327.67068,164.63454   C 327.67068,54.345381 164.63454,54.345381 164.63454,164.63454   C 54.345381,164.63454 54.345381,327.67068 164.63454,327.67068   z "
     style="fill:#ffff80;fill-rule:evenodd;fill-opacity:1;stroke:none;" />
  <path
     id="path7"
     d="  M 164.63454,327.67068   C 164.63454,437.95983 327.67068,437.95983 327.67068,327.67068   C 437.95983,327.67068 437.95983,164.63454 327.67068,164.63454   C 327.67068,54.345381 164.63454,54.345381 164.63454,164.63454   C 54.345381,164.63454 54.345381,327.67068 164.63454,327.67068  "
     style="fill:none;stroke:#000000;stroke-width:9.5903616px;stroke-linecap:butt;stroke-linejoin:miter;stroke-miterlimit:10;stroke-dasharray:none;stroke-opacity:1;" />
  <path
     id="path9"
     d="  M 207.79116,190.96807   L 217.86104,190.96807   L 217.86104,261.49718   L 207.79116,261.49718   z  M 266.77188,338.57971   C 260.97771,343.89437 254.10461,346.57168 246.15261,346.57168   C 237.6012,346.57168 230.52831,343.97429 224.89397,338.77951   C 219.25964,333.58473 216.42249,327.1512 216.42249,319.55883   C 216.42249,311.96646 219.25964,305.53293 224.89397,300.33815   C 230.52831,295.14337 237.48132,292.4261 245.71305,292.14638   C 253.70502,292.14638 260.65803,294.82369 266.57208,300.13835   C 272.44618,305.49297 275.40321,311.9265 275.40321,319.55883   C 275.40321,326.91144 272.5261,333.26506 266.77188,338.57971   z  M 240.87791,232.48634   L 240.87791,221.89698   L 217.86104,221.89698   L 217.86104,232.48634   z  M 246.31245,300.41807   C 240.55823,300.41807 235.68313,302.25622 231.72711,305.85261   C 227.77108,309.48895 225.81305,313.96445 225.81305,319.19919   C 225.81305,324.47389 227.77108,328.90943 231.72711,332.54578   C 235.68313,336.18212 240.55823,337.98032 246.31245,337.98032   C 252.0267,337.98032 256.9018,336.18212 260.85783,332.54578   C 264.81385,328.90943 266.77188,324.47389 266.77188,319.19919   C 266.77188,313.96445 264.81385,309.48895 260.85783,305.85261   C 256.86184,302.25622 252.0267,300.41807 246.31245,300.41807   z  M 251.66706,145.45381   L 251.66706,292.50602   L 240.87791,292.50602   L 240.87791,145.45381   z  M 272.5261,232.48634   L 272.5261,221.53735   L 251.66706,221.89698   L 251.66706,232.48634   z  M 272.5261,190.96807   L 283.31526,190.96807   L 283.31526,261.49718   L 272.5261,261.49718   z "
     style="fill:#000000;fill-rule:evenodd;fill-opacity:1;stroke:none;" />
</svg>
