<?xml version="1.0" encoding="UTF-8" standalone="no"?>
<svg
   xmlns:dc="http://purl.org/dc/elements/1.1/"
   xmlns:cc="http://creativecommons.org/ns#"
   xmlns:rdf="http://www.w3.org/1999/02/22-rdf-syntax-ns#"
   xmlns:svg="http://www.w3.org/2000/svg"
   xmlns="http://www.w3.org/2000/svg"
   id="svg11"
   height="54.139999mm"
   width="54.150002mm"
   version="1.0">
  <metadata
     id="metadata15">
    <rdf:RDF>
      <cc:Work
         rdf:about="">
        <dc:format>image/svg+xml</dc:format>
        <dc:type
           rdf:resource="http://purl.org/dc/dcmitype/StillImage" />
      </cc:Work>
    </rdf:RDF>
  </metadata>
  <defs
     id="defs3">
    <pattern
       y="0"
       x="0"
       height="6"
       width="6"
       patternUnits="userSpaceOnUse"
       id="EMFhbasepattern" />
  </defs>
  <path
     id="path5"
     d="  M 54.345381,150.24899   L 54.345381,150.24899   L 102.29719,54.345381   L 150.24899,150.24899   z "
     style="fill:none;stroke:#c61021;stroke-width:9.5903616px;stroke-linecap:butt;stroke-linejoin:miter;stroke-miterlimit:10;stroke-dasharray:none;stroke-opacity:1;" />
  <path
     id="path7"
     d="  M 109.48996,111.88755   C 109.48996,115.88353 106.29317,119.08032 102.29719,119.08032   C 98.341163,119.08032 95.104416,115.88353 95.104416,111.88755   C 95.104416,107.93152 98.341163,104.69478 102.29719,104.69478   C 106.29317,104.69478 109.48996,107.93152 109.48996,111.88755   z "
     style="fill:#c61021;fill-rule:evenodd;fill-opacity:1;stroke:none;" />
  <path
     id="path9"
     d="  M 109.48996,111.88755   C 109.48996,115.88353 106.29317,119.08032 102.29719,119.08032   C 98.341163,119.08032 95.104416,115.88353 95.104416,111.88755   C 95.104416,107.93152 98.341163,104.69478 102.29719,104.69478   C 106.29317,104.69478 109.48996,107.93152 109.48996,111.88755  "
     style="fill:none;stroke:#c61021;stroke-width:0.95903611px;stroke-linecap:butt;stroke-linejoin:miter;stroke-miterlimit:10;stroke-dasharray:none;stroke-opacity:1;" />
</svg>
