<?xml version="1.0" encoding="UTF-8" standalone="no"?>
<svg
   xmlns:dc="http://purl.org/dc/elements/1.1/"
   xmlns:cc="http://creativecommons.org/ns#"
   xmlns:rdf="http://www.w3.org/1999/02/22-rdf-syntax-ns#"
   xmlns:svg="http://www.w3.org/2000/svg"
   xmlns="http://www.w3.org/2000/svg"
   id="svg13"
   height="116.73mm"
   width="116.73mm"
   version="1.0">
  <metadata
     id="metadata17">
    <rdf:RDF>
      <cc:Work
         rdf:about="">
        <dc:format>image/svg+xml</dc:format>
        <dc:type
           rdf:resource="http://purl.org/dc/dcmitype/StillImage" />
      </cc:Work>
    </rdf:RDF>
  </metadata>
  <defs
     id="defs3">
    <pattern
       y="0"
       x="0"
       height="6"
       width="6"
       patternUnits="userSpaceOnUse"
       id="EMFhbasepattern" />
  </defs>
  <path
     id="path5"
     d="  M 220.57831,386.49156   L 220.57831,386.49156   L 386.49156,220.57831   L 220.57831,54.665059   L 54.665059,220.57831   L 220.57831,386.49156   z "
     style="fill:#ff8080;fill-rule:evenodd;fill-opacity:1;stroke:none;" />
  <path
     id="path7"
     d="  M 220.57831,386.49156   L 220.57831,386.49156   L 386.49156,220.57831   L 220.57831,54.665059   L 54.665059,220.57831   L 220.57831,386.49156  "
     style="fill:none;stroke:#000000;stroke-width:9.5903616px;stroke-linecap:butt;stroke-linejoin:miter;stroke-miterlimit:10;stroke-dasharray:none;stroke-opacity:1;" />
  <path
     id="path9"
     d="  M 166.11305,236.56225   L 166.11305,176.18293   L 174.10502,176.18293   L 174.10502,236.56225   z  M 188.37068,236.56225   L 188.37068,176.18293   L 232.04678,176.18293   L 232.04678,183.29578   L 196.36265,183.29578   L 196.36265,201.79719   L 229.80903,201.79719   L 229.80903,208.87008   L 196.36265,208.87008   L 196.36265,229.44939   L 233.44538,229.44939   L 233.44538,236.56225   z  M 244.51425,236.56225   L 244.51425,176.18293   L 265.33333,176.18293   C 270.00863,176.18293 273.60502,176.46265 276.08253,177.02209   C 279.51907,177.82128 282.4761,179.25984 284.95361,181.37771   C 288.11044,184.05502 290.50803,187.49156 292.06646,191.68735   C 293.66486,195.88313 294.46405,200.67831 294.46405,206.03293   C 294.46405,210.62831 293.90461,214.70421 292.86566,218.26064   C 291.78674,221.77711 290.38815,224.73413 288.70984,227.0518   C 287.07148,229.36947 285.23333,231.20763 283.23534,232.5263   C 281.23735,233.84498 278.83976,234.88393 276.00261,235.56325   C 273.20542,236.24257 269.96867,236.56225 266.29237,236.56225   z  M 252.50622,229.44939   L 265.41325,229.44939   C 269.36927,229.44939 272.5261,229.08976 274.76385,228.33052   C 277.04156,227.61124 278.83976,226.57229 280.19839,225.21365   C 282.0765,223.29558 283.55502,220.77811 284.63393,217.58132   C 285.67289,214.34458 286.19237,210.46847 286.19237,205.91305   C 286.19237,199.59939 285.19337,194.76425 283.11546,191.36767   C 281.03755,187.97108 278.52008,185.69337 275.52309,184.53454   C 273.40522,183.69538 269.96867,183.29578 265.21345,183.29578   L 252.50622,183.29578   z "
     style="fill:#000000;fill-rule:evenodd;fill-opacity:1;stroke:none;" />
  <path
     id="path11"
     d="  M 111.64779,217.901   L 111.64779,217.901   L 149.25,189.52952   L 142.33695,146.57269   L 171.50763,167.27189   L 179.93915,128.91044   L 204.4745,174.18494   L 216.74217,115.88353   L 233.64518,160.35883   L 261.25743,127.39197   L 266.61204,170.34879   L 294.26425,147.33193   L 294.26425,194.88413   L 327.23112,224.81405   L 294.26425,252.4263   L 301.13735,283.11546   L 269.68895,267.77088   L 265.09357,306.13232   L 240.55823,262.41626   L 220.57831,324.55381   L 200.63835,277.0016   L 183.01606,301.53694   L 167.67148,255.50321   L 135.42389,269.32931   L 145.41385,247.83092   L 111.64779,217.901  "
     style="fill:none;stroke:#000000;stroke-width:7.6722889px;stroke-linecap:butt;stroke-linejoin:miter;stroke-miterlimit:10;stroke-dasharray:none;stroke-opacity:1;" />
</svg>
