<?xml version="1.0" encoding="UTF-8" standalone="no"?>
<svg
   xmlns:dc="http://purl.org/dc/elements/1.1/"
   xmlns:cc="http://creativecommons.org/ns#"
   xmlns:rdf="http://www.w3.org/1999/02/22-rdf-syntax-ns#"
   xmlns:svg="http://www.w3.org/2000/svg"
   xmlns="http://www.w3.org/2000/svg"
   id="svg11"
   height="116.73mm"
   width="116.73mm"
   version="1.0">
  <metadata
     id="metadata15">
    <rdf:RDF>
      <cc:Work
         rdf:about="">
        <dc:format>image/svg+xml</dc:format>
        <dc:type
           rdf:resource="http://purl.org/dc/dcmitype/StillImage" />
      </cc:Work>
    </rdf:RDF>
  </metadata>
  <defs
     id="defs3">
    <pattern
       y="0"
       x="0"
       height="6"
       width="6"
       patternUnits="userSpaceOnUse"
       id="EMFhbasepattern" />
  </defs>
  <path
     id="path5"
     d="  M 220.57831,386.49156   L 220.57831,386.49156   L 386.49156,220.57831   L 220.57831,54.665059   L 54.665059,220.57831   L 220.57831,386.49156   z "
     style="fill:#ff8080;fill-rule:evenodd;fill-opacity:1;stroke:none;" />
  <path
     id="path7"
     d="  M 220.57831,386.49156   L 220.57831,386.49156   L 386.49156,220.57831   L 220.57831,54.665059   L 54.665059,220.57831   L 220.57831,386.49156  "
     style="fill:none;stroke:#000000;stroke-width:9.5903616px;stroke-linecap:butt;stroke-linejoin:miter;stroke-miterlimit:10;stroke-dasharray:none;stroke-opacity:1;" />
  <path
     id="path9"
     d="  M 140.65863,252.38634   L 140.65863,166.59257   L 152.00723,166.59257   L 152.00723,252.38634   z  M 172.26686,252.38634   L 172.26686,166.59257   L 234.32449,166.59257   L 234.32449,176.70241   L 183.61546,176.70241   L 183.61546,202.99598   L 231.08775,202.99598   L 231.08775,213.06586   L 183.61546,213.06586   L 183.61546,242.2765   L 236.32249,242.2765   L 236.32249,252.38634   z  M 251.98674,252.38634   L 251.98674,166.59257   L 281.55702,166.59257   C 288.23032,166.59257 293.34518,166.99217 296.82168,167.83132   C 301.7767,168.9502 305.97249,170.98815 309.40903,173.94518   C 313.96445,177.78132 317.32108,182.69638 319.59879,188.61044   C 321.83654,194.56446 322.95542,201.35763 322.95542,209.02992   C 322.95542,215.54337 322.19618,221.33755 320.67771,226.37249   C 319.15923,231.40743 317.2012,235.56325 314.80361,238.83996   C 312.44598,242.15662 309.80863,244.75401 307.01144,246.63212   C 304.17429,248.5502 300.73775,249.94879 296.74176,250.94779   C 292.74578,251.90682 288.1504,252.38634 282.95562,252.38634   z  M 263.3753,242.2765   L 281.6769,242.2765   C 287.3512,242.2765 291.78674,241.75702 294.98353,240.67811   C 298.22028,239.63915 300.77771,238.16064 302.69578,236.24257   C 305.37309,233.56526 307.49096,229.92891 308.96947,225.37349   C 310.48795,220.85803 311.24718,215.34357 311.24718,208.83012   C 311.24718,199.87911 309.76867,192.96606 306.81164,188.17088   C 303.89457,183.33574 300.29819,180.09899 296.06245,178.46064   C 293.0255,177.3018 288.1504,176.70241 281.39718,176.70241   L 263.3753,176.70241   z "
     style="fill:#000000;fill-rule:evenodd;fill-opacity:1;stroke:none;" />
</svg>
