<?xml version="1.0" encoding="UTF-8" standalone="no"?>
<svg
   xmlns:dc="http://purl.org/dc/elements/1.1/"
   xmlns:cc="http://creativecommons.org/ns#"
   xmlns:rdf="http://www.w3.org/1999/02/22-rdf-syntax-ns#"
   xmlns:svg="http://www.w3.org/2000/svg"
   xmlns="http://www.w3.org/2000/svg"
   id="svg13"
   height="95.75mm"
   width="95.75mm"
   version="1.0">
  <metadata
     id="metadata17">
    <rdf:RDF>
      <cc:Work
         rdf:about="">
        <dc:format>image/svg+xml</dc:format>
        <dc:type
           rdf:resource="http://purl.org/dc/dcmitype/StillImage" />
      </cc:Work>
    </rdf:RDF>
  </metadata>
  <defs
     id="defs3">
    <pattern
       y="0"
       x="0"
       height="6"
       width="6"
       patternUnits="userSpaceOnUse"
       id="EMFhbasepattern" />
  </defs>
  <path
     id="path5"
     d="  M 54.345381,54.345381   L 54.345381,307.53092   L 307.53092,307.53092   L 307.53092,54.345381   L 54.345381,54.345381   z "
     style="fill:#aaffaa;fill-rule:evenodd;fill-opacity:1;stroke:none;" />
  <path
     id="path7"
     d="  M 54.345381,54.345381   L 307.53092,54.345381   L 307.53092,307.53092   L 54.345381,307.53092   z "
     style="fill:none;stroke:#000000;stroke-width:9.5903616px;stroke-linecap:butt;stroke-linejoin:miter;stroke-miterlimit:10;stroke-dasharray:none;stroke-opacity:1;" />
  <path
     id="path9"
     d="  M 126.47289,196.92209   L 126.47289,136.54277   L 134.46486,136.54277   L 134.46486,196.92209   z  M 148.73052,196.92209   L 148.73052,136.54277   L 192.40662,136.54277   L 192.40662,143.65562   L 156.72249,143.65562   L 156.72249,162.15703   L 190.16887,162.15703   L 190.16887,169.22992   L 156.72249,169.22992   L 156.72249,189.80923   L 193.80522,189.80923   L 193.80522,196.92209   z  M 204.87409,196.92209   L 204.87409,136.54277   L 225.69317,136.54277   C 230.36847,136.54277 233.96486,136.82249 236.44237,137.38193   C 239.87891,138.18112 242.83594,139.61968 245.31345,141.73755   C 248.47028,144.41486 250.86787,147.8514 252.4263,152.04719   C 254.0247,156.24297 254.82389,161.03815 254.82389,166.39277   C 254.82389,170.98815 254.26445,175.06405 253.2255,178.62048   C 252.14658,182.13695 250.74799,185.09397 249.06968,187.41164   C 247.43132,189.72931 245.59317,191.56747 243.59518,192.88614   C 241.59719,194.20482 239.19959,195.24377 236.36245,195.92309   C 233.56526,196.60241 230.32851,196.92209 226.65221,196.92209   z  M 212.86606,189.80923   L 225.77309,189.80923   C 229.72911,189.80923 232.88594,189.4496 235.12369,188.69036   C 237.4014,187.97108 239.19959,186.93213 240.55823,185.57349   C 242.43634,183.65542 243.91486,181.13795 244.99377,177.94116   C 246.03273,174.70442 246.55221,170.82831 246.55221,166.27289   C 246.55221,159.95923 245.55321,155.12409 243.4753,151.72751   C 241.39739,148.33092 238.87992,146.05321 235.88293,144.89438   C 233.76506,144.05522 230.32851,143.65562 225.57329,143.65562   L 212.86606,143.65562   z "
     style="fill:#000000;fill-rule:evenodd;fill-opacity:1;stroke:none;" />
  <path
     id="path11"
     d="  M 72.007629,178.26084   L 72.007629,178.26084   L 109.60984,149.88936   L 102.69679,106.93253   L 131.86747,127.63173   L 140.29899,89.27028   L 164.83433,134.54478   L 177.10201,76.243372   L 194.00502,120.71867   L 221.61727,87.751806   L 226.97188,130.70863   L 254.62409,107.69177   L 254.62409,155.24397   L 287.59096,185.17389   L 254.62409,212.78614   L 261.49718,243.4753   L 230.04879,228.13072   L 225.45341,266.49216   L 200.91807,222.7761   L 180.93815,284.91365   L 160.99819,237.36144   L 143.3759,261.89678   L 128.03132,215.86305   L 95.783734,229.68915   L 105.77369,208.19076   L 72.007629,178.26084  "
     style="fill:none;stroke:#000000;stroke-width:7.6722889px;stroke-linecap:butt;stroke-linejoin:miter;stroke-miterlimit:10;stroke-dasharray:none;stroke-opacity:1;" />
</svg>
