<?xml version="1.0" encoding="UTF-8" standalone="no"?>
<svg
   xmlns:dc="http://purl.org/dc/elements/1.1/"
   xmlns:cc="http://creativecommons.org/ns#"
   xmlns:rdf="http://www.w3.org/1999/02/22-rdf-syntax-ns#"
   xmlns:svg="http://www.w3.org/2000/svg"
   xmlns="http://www.w3.org/2000/svg"
   id="svg11"
   height="101.85mm"
   width="101.85mm"
   version="1.0">
  <metadata
     id="metadata15">
    <rdf:RDF>
      <cc:Work
         rdf:about="">
        <dc:format>image/svg+xml</dc:format>
        <dc:type
           rdf:resource="http://purl.org/dc/dcmitype/StillImage" />
      </cc:Work>
    </rdf:RDF>
  </metadata>
  <defs
     id="defs3">
    <pattern
       y="0"
       x="0"
       height="6"
       width="6"
       patternUnits="userSpaceOnUse"
       id="EMFhbasepattern" />
  </defs>
  <path
     id="path5"
     d="  M 330.54779,192.44658   C 330.54779,268.72992 268.72992,330.54779 192.44658,330.54779   C 116.20321,330.54779 54.345381,268.72992 54.345381,192.44658   C 54.345381,116.20321 116.20321,54.345381 192.44658,54.345381   C 268.72992,54.345381 330.54779,116.20321 330.54779,192.44658   z "
     style="fill:#80e0ff;fill-rule:evenodd;fill-opacity:1;stroke:none;" />
  <path
     id="path7"
     d="  M 330.54779,192.44658   C 330.54779,268.72992 268.72992,330.54779 192.44658,330.54779   C 116.20321,330.54779 54.345381,268.72992 54.345381,192.44658   C 54.345381,116.20321 116.20321,54.345381 192.44658,54.345381   C 268.72992,54.345381 330.54779,116.20321 330.54779,192.44658  "
     style="fill:none;stroke:#000000;stroke-width:9.5903616px;stroke-linecap:butt;stroke-linejoin:miter;stroke-miterlimit:10;stroke-dasharray:none;stroke-opacity:1;" />
  <path
     id="path9"
     d="  M 112.52691,224.25462   L 112.52691,138.46084   L 123.8755,138.46084   L 123.8755,224.25462   z  M 144.13514,224.25462   L 144.13514,138.46084   L 206.19277,138.46084   L 206.19277,148.57068   L 155.48373,148.57068   L 155.48373,174.86425   L 202.95602,174.86425   L 202.95602,184.93413   L 155.48373,184.93413   L 155.48373,214.14478   L 208.19076,214.14478   L 208.19076,224.25462   z  M 223.85502,224.25462   L 223.85502,138.46084   L 253.4253,138.46084   C 260.09859,138.46084 265.21345,138.86044 268.68996,139.6996   C 273.64498,140.81847 277.84076,142.85642 281.27731,145.81345   C 285.83273,149.6496 289.18935,154.56466 291.46706,160.47871   C 293.70482,166.43273 294.82369,173.2259 294.82369,180.89819   C 294.82369,187.41164 294.06445,193.20582 292.54598,198.24076   C 291.02751,203.2757 289.06947,207.43152 286.67188,210.70823   C 284.31425,214.0249 281.6769,216.62229 278.87971,218.5004   C 276.04257,220.41847 272.60602,221.81707 268.61004,222.81606   C 264.61405,223.7751 260.01867,224.25462 254.82389,224.25462   z  M 235.24357,214.14478   L 253.54518,214.14478   C 259.21947,214.14478 263.65502,213.6253 266.8518,212.54638   C 270.08855,211.50743 272.64598,210.02891 274.56405,208.11084   C 277.24136,205.43353 279.35923,201.79719 280.83775,197.24176   C 282.35622,192.7263 283.11546,187.21184 283.11546,180.69839   C 283.11546,171.74739 281.63694,164.83433 278.67992,160.03915   C 275.76285,155.20401 272.16646,151.96727 267.93072,150.32891   C 264.89377,149.17008 260.01867,148.57068 253.26546,148.57068   L 235.24357,148.57068   z "
     style="fill:#000000;fill-rule:evenodd;fill-opacity:1;stroke:none;" />
</svg>
