<?xml version="1.0" encoding="UTF-8" standalone="no"?>
<svg
   xmlns:dc="http://purl.org/dc/elements/1.1/"
   xmlns:cc="http://creativecommons.org/ns#"
   xmlns:rdf="http://www.w3.org/1999/02/22-rdf-syntax-ns#"
   xmlns:svg="http://www.w3.org/2000/svg"
   xmlns="http://www.w3.org/2000/svg"
   id="svg11"
   height="116.73mm"
   width="116.73mm"
   version="1.0">
  <metadata
     id="metadata15">
    <rdf:RDF>
      <cc:Work
         rdf:about="">
        <dc:format>image/svg+xml</dc:format>
        <dc:type
           rdf:resource="http://purl.org/dc/dcmitype/StillImage" />
      </cc:Work>
    </rdf:RDF>
  </metadata>
  <defs
     id="defs3">
    <pattern
       y="0"
       x="0"
       height="6"
       width="6"
       patternUnits="userSpaceOnUse"
       id="EMFhbasepattern" />
  </defs>
  <path
     id="path5"
     d="  M 220.57831,386.49156   L 220.57831,386.49156   L 386.49156,220.57831   L 220.57831,54.665059   L 54.665059,220.57831   L 220.57831,386.49156   z "
     style="fill:#ff8080;fill-rule:evenodd;fill-opacity:1;stroke:none;" />
  <path
     id="path7"
     d="  M 220.57831,386.49156   L 220.57831,386.49156   L 386.49156,220.57831   L 220.57831,54.665059   L 54.665059,220.57831   L 220.57831,386.49156  "
     style="fill:none;stroke:#000000;stroke-width:9.5903616px;stroke-linecap:butt;stroke-linejoin:miter;stroke-miterlimit:10;stroke-dasharray:none;stroke-opacity:1;" />
  <path
     id="path9"
     d="  M 180.69839,243.11566   L 180.69839,181.33775   L 188.89016,181.33775   L 188.89016,243.11566   z  M 214.06486,243.11566   L 197.68132,181.33775   L 206.07289,181.33775   L 215.46345,221.81707   C 216.46245,226.09277 217.34156,230.28855 218.06084,234.48433   C 219.65923,227.851 220.57831,224.05482 220.85803,223.05582   L 232.60622,181.33775   L 242.4763,181.33775   L 251.34739,212.58634   C 253.54518,220.33855 255.14357,227.6512 256.14257,234.48433   C 256.94176,230.56827 257.94076,226.09277 259.21947,221.01787   L 268.88976,181.33775   L 277.12148,181.33775   L 260.17851,243.11566   L 252.30642,243.11566   L 239.27951,196.04297   C 238.2006,192.08695 237.52128,189.68935 237.32148,188.77028   C 236.68213,191.60743 236.08273,194.04498 235.52329,196.04297   L 222.41646,243.11566   z "
     style="fill:#000000;fill-rule:evenodd;fill-opacity:1;stroke:none;" />
</svg>
