<?xml version="1.0" encoding="UTF-8" standalone="no"?>
<svg
   xmlns:dc="http://purl.org/dc/elements/1.1/"
   xmlns:cc="http://creativecommons.org/ns#"
   xmlns:rdf="http://www.w3.org/1999/02/22-rdf-syntax-ns#"
   xmlns:svg="http://www.w3.org/2000/svg"
   xmlns="http://www.w3.org/2000/svg"
   id="svg11"
   height="95.75mm"
   width="95.75mm"
   version="1.0">
  <metadata
     id="metadata15">
    <rdf:RDF>
      <cc:Work
         rdf:about="">
        <dc:format>image/svg+xml</dc:format>
        <dc:type
           rdf:resource="http://purl.org/dc/dcmitype/StillImage" />
      </cc:Work>
    </rdf:RDF>
  </metadata>
  <defs
     id="defs3">
    <pattern
       y="0"
       x="0"
       height="6"
       width="6"
       patternUnits="userSpaceOnUse"
       id="EMFhbasepattern" />
  </defs>
  <path
     id="path5"
     d="  M 54.345381,54.345381   L 54.345381,307.53092   L 307.53092,307.53092   L 307.53092,54.345381   L 54.345381,54.345381   z "
     style="fill:#aaffaa;fill-rule:evenodd;fill-opacity:1;stroke:none;" />
  <path
     id="path7"
     d="  M 54.345381,54.345381   L 307.53092,54.345381   L 307.53092,307.53092   L 54.345381,307.53092   z "
     style="fill:none;stroke:#000000;stroke-width:9.5903616px;stroke-linecap:butt;stroke-linejoin:miter;stroke-miterlimit:10;stroke-dasharray:none;stroke-opacity:1;" />
  <path
     id="path9"
     d="  M 141.05823,203.4755   L 141.05823,141.69759   L 149.25,141.69759   L 149.25,203.4755   z  M 174.4247,203.4755   L 158.04116,141.69759   L 166.43273,141.69759   L 175.82329,182.1769   C 176.82229,186.45261 177.7014,190.64839 178.42068,194.84417   C 180.01907,188.21084 180.93815,184.41466 181.21787,183.41566   L 192.96606,141.69759   L 202.83614,141.69759   L 211.70723,172.94618   C 213.90502,180.69839 215.50341,188.01104 216.50241,194.84417   C 217.3016,190.92811 218.3006,186.45261 219.57931,181.37771   L 229.2496,141.69759   L 237.48132,141.69759   L 220.53835,203.4755   L 212.66626,203.4755   L 199.63935,156.40281   C 198.56044,152.44678 197.88112,150.04919 197.68132,149.13012   C 197.04197,151.96727 196.44257,154.40482 195.88313,156.40281   L 182.7763,203.4755   z "
     style="fill:#000000;fill-rule:evenodd;fill-opacity:1;stroke:none;" />
</svg>
