<?xml version="1.0" encoding="UTF-8" standalone="no"?>
<svg
   xmlns:dc="http://purl.org/dc/elements/1.1/"
   xmlns:cc="http://creativecommons.org/ns#"
   xmlns:rdf="http://www.w3.org/1999/02/22-rdf-syntax-ns#"
   xmlns:svg="http://www.w3.org/2000/svg"
   xmlns="http://www.w3.org/2000/svg"
   id="svg11"
   height="130.27mm"
   width="130.27mm"
   version="1.0">
  <metadata
     id="metadata15">
    <rdf:RDF>
      <cc:Work
         rdf:about="">
        <dc:format>image/svg+xml</dc:format>
        <dc:type
           rdf:resource="http://purl.org/dc/dcmitype/StillImage" />
      </cc:Work>
    </rdf:RDF>
  </metadata>
  <defs
     id="defs3">
    <pattern
       y="0"
       x="0"
       height="6"
       width="6"
       patternUnits="userSpaceOnUse"
       id="EMFhbasepattern" />
  </defs>
  <path
     id="path5"
     d="  M 164.63454,327.67068   C 164.63454,437.95983 327.67068,437.95983 327.67068,327.67068   C 437.95983,327.67068 437.95983,164.63454 327.67068,164.63454   C 327.67068,54.345381 164.63454,54.345381 164.63454,164.63454   C 54.345381,164.63454 54.345381,327.67068 164.63454,327.67068   z "
     style="fill:#ffff80;fill-rule:evenodd;fill-opacity:1;stroke:none;" />
  <path
     id="path7"
     d="  M 164.63454,327.67068   C 164.63454,437.95983 327.67068,437.95983 327.67068,327.67068   C 437.95983,327.67068 437.95983,164.63454 327.67068,164.63454   C 327.67068,54.345381 164.63454,54.345381 164.63454,164.63454   C 54.345381,164.63454 54.345381,327.67068 164.63454,327.67068  "
     style="fill:none;stroke:#000000;stroke-width:9.5903616px;stroke-linecap:butt;stroke-linejoin:miter;stroke-miterlimit:10;stroke-dasharray:none;stroke-opacity:1;" />
  <path
     id="path9"
     d="  M 206.27269,268.68996   L 206.27269,206.91205   L 214.46445,206.91205   L 214.46445,268.68996   z  M 239.63915,268.68996   L 223.25562,206.91205   L 231.64719,206.91205   L 241.03775,247.39136   C 242.03674,251.66706 242.91586,255.86285 243.63514,260.05863   C 245.23353,253.4253 246.15261,249.62911 246.43233,248.63012   L 258.18052,206.91205   L 268.0506,206.91205   L 276.92168,238.16064   C 279.11947,245.91285 280.71787,253.2255 281.71686,260.05863   C 282.51606,256.14257 283.51506,251.66706 284.79377,246.59217   L 294.46405,206.91205   L 302.69578,206.91205   L 285.75281,268.68996   L 277.88072,268.68996   L 264.85381,221.61727   C 263.7749,217.66124 263.09558,215.26365 262.89578,214.34458   C 262.25642,217.18172 261.65702,219.61927 261.09759,221.61727   L 247.99076,268.68996   z "
     style="fill:#000000;fill-rule:evenodd;fill-opacity:1;stroke:none;" />
</svg>
