<?xml version="1.0" encoding="UTF-8" standalone="no"?>
<svg
   xmlns:dc="http://purl.org/dc/elements/1.1/"
   xmlns:cc="http://creativecommons.org/ns#"
   xmlns:rdf="http://www.w3.org/1999/02/22-rdf-syntax-ns#"
   xmlns:svg="http://www.w3.org/2000/svg"
   xmlns="http://www.w3.org/2000/svg"
   id="svg11"
   height="46.189999mm"
   width="79.010002mm"
   version="1.0">
  <metadata
     id="metadata15">
    <rdf:RDF>
      <cc:Work
         rdf:about="">
        <dc:format>image/svg+xml</dc:format>
        <dc:type
           rdf:resource="http://purl.org/dc/dcmitype/StillImage" />
      </cc:Work>
    </rdf:RDF>
  </metadata>
  <defs
     id="defs3">
    <pattern
       y="0"
       x="0"
       height="6"
       width="6"
       patternUnits="userSpaceOnUse"
       id="EMFhbasepattern" />
  </defs>
  <path
     id="path5"
     d="  M 237.28152,87.432127   C 237.28152,89.749798 237.64116,88.630922 238.28052,91.468071   L 242.2765,91.428111   L 243.8749,87.591967   L 243.31546,85.434135   L 240.31847,85.434135   C 238.68012,85.434135 237.28152,86.033533 237.28152,87.432127   z "
     style="fill:#ffffff;fill-rule:evenodd;fill-opacity:1;stroke:none;" />
  <path
     id="path7"
     d="  M 237.28152,87.432127   C 237.28152,86.033533 238.68012,85.434135 240.31847,85.434135   L 243.31546,85.434135   L 243.8749,87.591967   L 242.2765,91.428111   L 238.28052,91.468071   C 237.64116,88.630922 237.28152,89.749798 237.28152,87.432127   z  M 251.34739,80.399196   C 250.46827,80.399196 245.19357,73.366264 238.28052,73.366264   L 236.28253,73.366264   C 228.37048,73.366264 228.49036,82.277308 226.37249,88.590963   C 224.53433,94.06546 221.21767,102.81667 221.21767,109.52992   C 221.21767,111.88755 222.89598,113.56586 225.25361,113.56586   C 234.68413,113.56586 250.26847,93.346183 252.34638,84.435139   C 267.8508,84.435139 295.74277,80.039557 298.57992,69.37028   C 288.58996,72.047589 287.43112,78.760842 267.4512,80.399196   C 274.32429,74.40522 289.58895,63.536144 290.54799,52.267469   L 288.51004,52.267469   C 285.35321,64.095581 266.41225,80.399196 251.34739,80.399196   z "
     style="fill:#000000;fill-rule:evenodd;fill-opacity:1;stroke:none;" />
  <path
     id="path9"
     d="  M 60.858834,43.396385   L 61.178513,42.357429   L 85.234336,61.538152   L 84.594979,62.337348   C 75.723894,68.251405 54.4253,97.502007 45.394377,97.502007   L 38.960843,97.302207   z  M 88.590963,56.303413   C 86.83273,49.67008 68.890762,31.248594 62.497188,28.171686   C 60.778915,29.090763 55.464256,32.12771 55.464256,34.205622   C 55.464256,37.24257 56.423292,38.241566 57.302409,40.159638   L 35.364457,97.502007   L 31.328514,97.502007   C 32.24759,100.93855 33.366465,100.13936 33.366465,101.49799   C 33.366465,102.81667 21.738152,132.10723 20.299598,135.66365   C 17.981927,141.29799 16.263654,146.21305 13.866064,152.32691   C 12.707229,155.28393 11.508434,158.68052 10.429518,160.95823   C 8.3915661,165.35381 8.1118473,162.35682 5.194779,167.59156   L 0.19979919,168.83032   C 1.5184739,170.62851 7.5124497,170.74839 10.149799,170.26887   C 14.465462,169.50964 11.508434,166.23293 13.186747,161.75743   C 15.824096,154.80442 18.661245,147.89136 21.418474,140.81847   C 23.376506,135.86345 35.923895,100.49899 39.360441,100.49899   L 44.395381,100.49899   C 47.472288,100.49899 48.471284,101.45803 50.389357,102.49699   L 59.46024,91.468071   C 69.969678,98.501003 92.786746,109.52992 109.68976,109.52992   L 112.72671,109.52992   L 113.56586,108.93052   L 99.659838,89.470079   L 61.178513,89.1504   L 86.592971,64.33534   C 103.3761,75.564055 132.54679,130.62871 144.85442,130.62871   L 145.85341,130.62871   C 151.36787,130.62871 151.04819,128.11124 152.88634,124.59478   C 149.48976,109.92952 134.38494,99.899597 124.03534,91.188352   C 114.60482,83.316264 100.05944,65.973694 91.62791,60.299397   C 96.063452,53.666063 132.06727,17.902008 139.45984,16.023895   L 142.85642,46.233533   L 143.53574,57.382328   L 138.82048,86.433131   L 131.70763,86.553011   L 151.88735,103.49598   L 180.01907,88.431123   C 178.101,96.74277 178.7004,98.221284 171.34779,101.85763   C 169.07008,102.9765 156.92229,109.13032 156.92229,110.52891   C 156.92229,112.72671 159.91927,117.20221 159.91927,122.59679   C 159.91927,133.90542 147.69156,139.73956 137.18213,135.30401   C 128.9504,131.82751 118.2012,115.56385 115.72369,115.56385   L 111.72771,115.56385   C 93.825701,115.56385 85.394175,121.59779 70.529115,121.59779   L 68.531124,121.59779   C 61.098593,121.59779 58.541164,118.6008 52.427308,118.6008   L 50.429317,118.6008   C 48.071686,118.6008 46.393373,120.23915 46.393373,122.59679   C 46.393373,135.06426 94.505019,141.09819 112.72671,140.69859   L 163.91526,139.61968   L 163.95522,140.69859   C 160.47871,145.89337 141.21807,159.75944 132.8265,159.75944   C 132.26707,160.59859 130.78855,162.23695 130.78855,162.79638   C 130.78855,165.51365 131.26807,165.55361 131.78755,167.83132   C 134.50482,168.47068 133.70562,168.83032 135.82349,168.83032   C 138.06124,168.83032 138.02128,168.03112 139.85944,166.79237   L 139.81948,161.75743   L 170.02911,140.69859   L 163.95522,164.79438   C 160.43875,165.07409 158.92028,166.35281 158.92028,169.82931   C 158.92028,173.38574 161.15803,172.50662 164.35482,174.26486   L 168.99016,168.83032   C 168.59056,168.11104 165.95321,163.8753 165.95321,163.79538   C 165.95321,158.88032 175.30381,133.90542 177.02209,126.47289   L 238.16064,124.63474   L 242.63614,157.6016   L 241.31747,157.76144   C 242.4763,159.99919 242.19658,161.79739 245.31345,161.79739   C 248.90984,161.79739 249.66907,160.55863 251.34739,158.76044   C 249.58915,155.08413 249.34939,151.40783 244.67409,153.68554   L 241.59719,127.39197   L 260.53815,148.8504   L 257.98072,152.16707   L 263.41526,156.76245   C 265.61305,155.60361 267.41124,155.88333 267.41124,152.7265   L 267.41124,150.72851   C 267.41124,147.17209 263.97469,146.81245 260.89779,146.29297   L 243.11566,126.55281   L 244.31445,122.59679   L 211.18775,122.59679   C 211.18775,103.13634 218.82008,90.349195 220.21867,73.885742   L 184.1749,75.444176   L 181.01807,85.434135   L 162.95622,85.434135   C 155.92329,85.434135 152.00723,54.345381 151.84739,45.274497   C 151.72751,35.843975 150.48875,29.010843 150.84839,20.099799   C 151.04819,14.745181 154.84438,0.039959839 146.89237,0.039959839   L 143.85542,0.039959839   C 139.93936,0.039959839 138.86044,3.9959839 137.86144,7.0728915   C 136.62269,10.829116 134.18514,12.227711 131.54779,14.86506   C 126.63273,19.78012 122.43695,23.975903 117.48193,28.930923   C 112.64679,33.766064 93.306224,55.024698 88.590963,56.303413   z "
     style="fill:#000000;fill-rule:evenodd;fill-opacity:1;stroke:none;" />
</svg>
