<?xml version="1.0" encoding="UTF-8" standalone="no"?>
<svg
   xmlns:dc="http://purl.org/dc/elements/1.1/"
   xmlns:cc="http://creativecommons.org/ns#"
   xmlns:rdf="http://www.w3.org/1999/02/22-rdf-syntax-ns#"
   xmlns:svg="http://www.w3.org/2000/svg"
   xmlns="http://www.w3.org/2000/svg"
   id="svg11"
   height="95.75mm"
   width="95.75mm"
   version="1.0">
  <metadata
     id="metadata15">
    <rdf:RDF>
      <cc:Work
         rdf:about="">
        <dc:format>image/svg+xml</dc:format>
        <dc:type
           rdf:resource="http://purl.org/dc/dcmitype/StillImage" />
      </cc:Work>
    </rdf:RDF>
  </metadata>
  <defs
     id="defs3">
    <pattern
       y="0"
       x="0"
       height="6"
       width="6"
       patternUnits="userSpaceOnUse"
       id="EMFhbasepattern" />
  </defs>
  <path
     id="path5"
     d="  M 54.345381,54.345381   L 54.345381,307.53092   L 307.53092,307.53092   L 307.53092,54.345381   L 54.345381,54.345381   z "
     style="fill:#aaffaa;fill-rule:evenodd;fill-opacity:1;stroke:none;" />
  <path
     id="path7"
     d="  M 54.345381,54.345381   L 307.53092,54.345381   L 307.53092,307.53092   L 54.345381,307.53092   z "
     style="fill:none;stroke:#000000;stroke-width:9.5903616px;stroke-linecap:butt;stroke-linejoin:miter;stroke-miterlimit:10;stroke-dasharray:none;stroke-opacity:1;" />
  <path
     id="path9"
     d="  M 112.28715,203.4755   L 112.28715,141.69759   L 120.47891,141.69759   L 120.47891,203.4755   z  M 134.86446,203.4755   L 134.86446,141.69759   L 158.16104,141.69759   C 162.27691,141.69759 165.43373,141.89739 167.59156,142.25703   C 170.62851,142.7765 173.14598,143.73554 175.22389,145.17409   C 177.26184,146.57269 178.9002,148.57068 180.13895,151.12811   C 181.41767,153.68554 182.01707,156.48273 182.01707,159.55964   C 182.01707,164.79438 180.37871,169.26988 177.02209,172.90622   C 173.66546,176.54257 167.63152,178.34076 158.88032,178.34076   L 143.05622,178.34076   L 143.05622,203.4755   z  M 143.05622,171.06807   L 159.04016,171.06807   C 164.31486,171.06807 168.07108,170.06907 170.26887,168.11104   C 172.50662,166.15301 173.58554,163.39578 173.58554,159.7994   C 173.58554,157.24197 172.94618,155.00421 171.62751,153.16606   C 170.34879,151.32791 168.63052,150.12911 166.47269,149.52972   C 165.11405,149.17008 162.55662,148.97028 158.84036,148.97028   L 143.05622,148.97028   z  M 203.23574,203.4755   L 186.85221,141.69759   L 195.24377,141.69759   L 204.63433,182.1769   C 205.63333,186.45261 206.51245,190.64839 207.23172,194.84417   C 208.83012,188.21084 209.74919,184.41466 210.02891,183.41566   L 221.77711,141.69759   L 231.64719,141.69759   L 240.47831,172.94618   C 242.71606,180.69839 244.31445,188.01104 245.31345,194.84417   C 246.07269,190.92811 247.11164,186.45261 248.3504,181.37771   L 258.06064,141.69759   L 266.29237,141.69759   L 249.34939,203.4755   L 241.47731,203.4755   L 228.4504,156.40281   C 227.33152,152.44678 226.69217,150.04919 226.49237,149.13012   C 225.85301,151.96727 225.25361,154.40482 224.69417,156.40281   L 211.58735,203.4755   z "
     style="fill:#000000;fill-rule:evenodd;fill-opacity:1;stroke:none;" />
</svg>
