<?xml version="1.0" encoding="UTF-8" standalone="no"?>
<svg
   xmlns:dc="http://purl.org/dc/elements/1.1/"
   xmlns:cc="http://creativecommons.org/ns#"
   xmlns:rdf="http://www.w3.org/1999/02/22-rdf-syntax-ns#"
   xmlns:svg="http://www.w3.org/2000/svg"
   xmlns="http://www.w3.org/2000/svg"
   id="svg11"
   height="116.73mm"
   width="116.73mm"
   version="1.0">
  <metadata
     id="metadata15">
    <rdf:RDF>
      <cc:Work
         rdf:about="">
        <dc:format>image/svg+xml</dc:format>
        <dc:type
           rdf:resource="http://purl.org/dc/dcmitype/StillImage" />
      </cc:Work>
    </rdf:RDF>
  </metadata>
  <defs
     id="defs3">
    <pattern
       y="0"
       x="0"
       height="6"
       width="6"
       patternUnits="userSpaceOnUse"
       id="EMFhbasepattern" />
  </defs>
  <path
     id="path5"
     d="  M 220.57831,386.49156   L 220.57831,386.49156   L 386.49156,220.57831   L 220.57831,54.665059   L 54.665059,220.57831   L 220.57831,386.49156   z "
     style="fill:#ff8080;fill-rule:evenodd;fill-opacity:1;stroke:none;" />
  <path
     id="path7"
     d="  M 220.57831,386.49156   L 220.57831,386.49156   L 386.49156,220.57831   L 220.57831,54.665059   L 54.665059,220.57831   L 220.57831,386.49156  "
     style="fill:none;stroke:#000000;stroke-width:9.5903616px;stroke-linecap:butt;stroke-linejoin:miter;stroke-miterlimit:10;stroke-dasharray:none;stroke-opacity:1;" />
  <path
     id="path9"
     d="  M 167.27189,243.11566   L 167.27189,181.33775   L 175.46365,181.33775   L 175.46365,243.11566   z  M 187.09197,223.25562   L 194.80421,222.5763   C 195.16385,225.69317 196.00301,228.21064 197.32168,230.20863   C 198.68032,232.16666 200.75823,233.76506 203.55542,235.00381   C 206.35261,236.20261 209.50943,236.84196 213.0259,236.84196   C 216.14277,236.84196 218.9,236.36245 221.29759,235.44337   C 223.69518,234.52429 225.45341,233.24558 226.61225,231.64719   C 227.81104,230.00883 228.37048,228.2506 228.37048,226.33253   C 228.37048,224.41445 227.81104,222.69618 226.69217,221.25763   C 225.57329,219.81907 223.73514,218.58032 221.13775,217.62128   C 219.45943,216.98192 215.82309,215.98293 210.14879,214.58433   C 204.4745,213.2257 200.47851,211.94698 198.2008,210.74819   C 195.24377,209.18976 193.04598,207.27168 191.60743,204.99397   C 190.16887,202.71626 189.4496,200.11887 189.4496,197.28172   C 189.4496,194.16486 190.32871,191.28775 192.08695,188.57048   C 193.84518,185.85321 196.44257,183.7753 199.83915,182.3767   C 203.23574,180.97811 207.03192,180.25883 211.18775,180.25883   C 215.78313,180.25883 219.81907,181.01807 223.29558,182.49658   C 226.81204,183.9751 229.48935,186.13293 231.36747,189.01004   C 233.24558,191.84719 234.28453,195.12389 234.40441,198.72028   L 226.57229,199.31968   C 226.13273,195.40361 224.73413,192.48654 222.29658,190.48855   C 219.85903,188.49056 216.26265,187.49156 211.50743,187.49156   C 206.59237,187.49156 202.95602,188.37068 200.71827,190.20883   C 198.44056,192.00703 197.32168,194.20482 197.32168,196.76225   C 197.32168,198.96004 198.12088,200.79819 199.71927,202.23674   C 201.27771,203.6753 205.39357,205.15381 212.06686,206.63233   C 218.7002,208.1508 223.25562,209.46947 225.73313,210.58835   C 229.32951,212.2267 231.96686,214.34458 233.68514,216.86205   C 235.40341,219.41947 236.24257,222.33654 236.24257,225.65321   C 236.24257,228.96988 235.32349,232.04678 233.44538,234.96385   C 231.56727,237.88092 228.85,240.11867 225.33353,241.75702   C 221.81707,243.35542 217.82108,244.15461 213.4255,244.15461   C 207.83112,244.15461 203.15582,243.35542 199.35964,241.71706   C 195.60341,240.07871 192.60642,237.64116 190.48855,234.36445   C 188.33072,231.08775 187.17188,227.41144 187.09197,223.25562   z  M 247.83092,243.11566   L 247.83092,181.33775   L 289.54899,181.33775   L 289.54899,188.61044   L 256.02269,188.61044   L 256.02269,207.7512   L 285.03353,207.7512   L 285.03353,215.02389   L 256.02269,215.02389   L 256.02269,243.11566   z "
     style="fill:#000000;fill-rule:evenodd;fill-opacity:1;stroke:none;" />
</svg>
