<?xml version="1.0" encoding="UTF-8" standalone="no"?>
<svg
   xmlns:dc="http://purl.org/dc/elements/1.1/"
   xmlns:cc="http://creativecommons.org/ns#"
   xmlns:rdf="http://www.w3.org/1999/02/22-rdf-syntax-ns#"
   xmlns:svg="http://www.w3.org/2000/svg"
   xmlns="http://www.w3.org/2000/svg"
   id="svg19"
   height="89.669998mm"
   width="120.11mm"
   version="1.0">
  <metadata
     id="metadata23">
    <rdf:RDF>
      <cc:Work
         rdf:about="">
        <dc:format>image/svg+xml</dc:format>
        <dc:type
           rdf:resource="http://purl.org/dc/dcmitype/StillImage" />
      </cc:Work>
    </rdf:RDF>
  </metadata>
  <defs
     id="defs3">
    <pattern
       y="0"
       x="0"
       height="6"
       width="6"
       patternUnits="userSpaceOnUse"
       id="EMFhbasepattern" />
  </defs>
  <path
     id="path5"
     d="  M 54.345381,54.345381   L 54.345381,284.51405   L 399.59839,284.51405   L 399.59839,54.345381   L 54.345381,54.345381   z "
     style="fill:#80e0ff;fill-rule:evenodd;fill-opacity:1;stroke:none;" />
  <path
     id="path7"
     d="  M 54.345381,54.345381   L 399.59839,54.345381   L 399.59839,284.51405   L 54.345381,284.51405   z "
     style="fill:none;stroke:#000000;stroke-width:9.5903616px;stroke-linecap:butt;stroke-linejoin:miter;stroke-miterlimit:10;stroke-dasharray:none;stroke-opacity:1;" />
  <path
     id="path9"
     d="  M 154.04518,153.04618   L 154.04518,101.53795   L 191.24779,101.53795   L 191.24779,107.65181   L 160.83835,107.65181   L 160.83835,123.39598   L 189.32972,123.39598   L 189.32972,129.42992   L 160.83835,129.42992   L 160.83835,146.97229   L 192.44658,146.97229   L 192.44658,153.04618   z "
     style="fill:#000000;fill-rule:evenodd;fill-opacity:1;stroke:none;" />
  <path
     id="path11"
     d="  M 254.46425,153.04618   L 240.79799,101.53795   L 247.79096,101.53795   L 255.62309,135.30401   C 256.46225,138.86044 257.22148,142.37691 257.82088,145.85341   C 259.13955,140.33895 259.89879,137.18213 260.13855,136.34297   L 269.92871,101.53795   L 278.16044,101.53795   L 285.51305,127.63173   C 287.39116,134.06526 288.70984,140.13915 289.50903,145.85341   C 290.18835,142.5767 291.02751,138.86044 292.10642,134.6247   L 300.17831,101.53795   L 307.01144,101.53795   L 292.90562,153.04618   L 286.3522,153.04618   L 275.48313,113.80562   C 274.56405,110.52891 274.04457,108.53092 273.84478,107.77169   C 273.3253,110.12932 272.80582,112.16727 272.36626,113.80562   L 261.41727,153.04618   z "
     style="fill:#000000;fill-rule:evenodd;fill-opacity:1;stroke:none;" />
  <path
     id="path13"
     d="  M 226.97188,66.81285   L 226.97188,263.41526  "
     style="fill:none;stroke:#000000;stroke-width:9.5903616px;stroke-linecap:butt;stroke-linejoin:miter;stroke-miterlimit:10;stroke-dasharray:none;stroke-opacity:1;" />
  <path
     id="path15"
     d="  M 130.10924,187.6514   L 130.10924,187.6514   L 226.97188,274.92369   L 323.83453,187.6514   z "
     style="fill:#000000;fill-rule:evenodd;fill-opacity:1;stroke:none;" />
  <path
     id="path17"
     d="  M 130.10924,187.6514   L 130.10924,187.6514   L 226.97188,274.92369   L 323.83453,187.6514  "
     style="fill:none;stroke:#000000;stroke-width:0.95903611px;stroke-linecap:butt;stroke-linejoin:miter;stroke-miterlimit:10;stroke-dasharray:none;stroke-opacity:1;" />
</svg>
