<?xml version="1.0" encoding="UTF-8" standalone="no"?>
<svg
   xmlns:dc="http://purl.org/dc/elements/1.1/"
   xmlns:cc="http://creativecommons.org/ns#"
   xmlns:rdf="http://www.w3.org/1999/02/22-rdf-syntax-ns#"
   xmlns:svg="http://www.w3.org/2000/svg"
   xmlns="http://www.w3.org/2000/svg"
   id="svg11"
   height="116.73mm"
   width="116.73mm"
   version="1.0">
  <metadata
     id="metadata15">
    <rdf:RDF>
      <cc:Work
         rdf:about="">
        <dc:format>image/svg+xml</dc:format>
        <dc:type
           rdf:resource="http://purl.org/dc/dcmitype/StillImage" />
      </cc:Work>
    </rdf:RDF>
  </metadata>
  <defs
     id="defs3">
    <pattern
       y="0"
       x="0"
       height="6"
       width="6"
       patternUnits="userSpaceOnUse"
       id="EMFhbasepattern" />
  </defs>
  <path
     id="path5"
     d="  M 220.57831,386.49156   L 220.57831,386.49156   L 386.49156,220.57831   L 220.57831,54.665059   L 54.665059,220.57831   L 220.57831,386.49156   z "
     style="fill:#ff8080;fill-rule:evenodd;fill-opacity:1;stroke:none;" />
  <path
     id="path7"
     d="  M 220.57831,386.49156   L 220.57831,386.49156   L 386.49156,220.57831   L 220.57831,54.665059   L 54.665059,220.57831   L 220.57831,386.49156  "
     style="fill:none;stroke:#000000;stroke-width:9.5903616px;stroke-linecap:butt;stroke-linejoin:miter;stroke-miterlimit:10;stroke-dasharray:none;stroke-opacity:1;" />
  <path
     id="path9"
     d="  M 151.92731,243.11566   L 151.92731,181.33775   L 160.11907,181.33775   L 160.11907,243.11566   z  M 174.50462,243.11566   L 174.50462,181.33775   L 197.8012,181.33775   C 201.91707,181.33775 205.07389,181.53755 207.23172,181.89719   C 210.26867,182.41666 212.78614,183.3757 214.86405,184.81425   C 216.902,186.21285 218.54036,188.21084 219.77911,190.76827   C 221.05783,193.3257 221.65723,196.12289 221.65723,199.1998   C 221.65723,204.43454 220.01887,208.91004 216.66225,212.54638   C 213.30562,216.18273 207.27168,217.98092 198.52048,217.98092   L 182.69638,217.98092   L 182.69638,243.11566   z  M 182.69638,210.70823   L 198.68032,210.70823   C 203.95502,210.70823 207.71124,209.70923 209.90903,207.7512   C 212.14678,205.79317 213.2257,203.03594 213.2257,199.43956   C 213.2257,196.88213 212.58634,194.64437 211.26767,192.80622   C 209.98895,190.96807 208.27068,189.76927 206.11285,189.16988   C 204.75421,188.81024 202.19678,188.61044 198.48052,188.61044   L 182.69638,188.61044   z  M 242.8759,243.11566   L 226.49237,181.33775   L 234.88393,181.33775   L 244.27449,221.81707   C 245.27349,226.09277 246.15261,230.28855 246.87188,234.48433   C 248.47028,227.851 249.38935,224.05482 249.66907,223.05582   L 261.41727,181.33775   L 271.28735,181.33775   L 280.11847,212.58634   C 282.35622,220.33855 283.95461,227.6512 284.95361,234.48433   C 285.71285,230.56827 286.7518,226.09277 287.99056,221.01787   L 297.7008,181.33775   L 305.93253,181.33775   L 288.98955,243.11566   L 281.11747,243.11566   L 268.09056,196.04297   C 266.97168,192.08695 266.33233,189.68935 266.13253,188.77028   C 265.49317,191.60743 264.89377,194.04498 264.33433,196.04297   L 251.22751,243.11566   z "
     style="fill:#000000;fill-rule:evenodd;fill-opacity:1;stroke:none;" />
</svg>
