<?xml version="1.0" encoding="UTF-8" standalone="no"?>
<svg
   xmlns:dc="http://purl.org/dc/elements/1.1/"
   xmlns:cc="http://creativecommons.org/ns#"
   xmlns:rdf="http://www.w3.org/1999/02/22-rdf-syntax-ns#"
   xmlns:svg="http://www.w3.org/2000/svg"
   xmlns="http://www.w3.org/2000/svg"
   id="svg11"
   height="95.75mm"
   width="95.75mm"
   version="1.0">
  <metadata
     id="metadata15">
    <rdf:RDF>
      <cc:Work
         rdf:about="">
        <dc:format>image/svg+xml</dc:format>
        <dc:type
           rdf:resource="http://purl.org/dc/dcmitype/StillImage" />
      </cc:Work>
    </rdf:RDF>
  </metadata>
  <defs
     id="defs3">
    <pattern
       y="0"
       x="0"
       height="6"
       width="6"
       patternUnits="userSpaceOnUse"
       id="EMFhbasepattern" />
  </defs>
  <path
     id="path5"
     d="  M 54.345381,54.345381   L 54.345381,307.53092   L 307.53092,307.53092   L 307.53092,54.345381   L 54.345381,54.345381   z "
     style="fill:#aaffaa;fill-rule:evenodd;fill-opacity:1;stroke:none;" />
  <path
     id="path7"
     d="  M 54.345381,54.345381   L 307.53092,54.345381   L 307.53092,307.53092   L 54.345381,307.53092   z "
     style="fill:none;stroke:#000000;stroke-width:9.5903616px;stroke-linecap:butt;stroke-linejoin:miter;stroke-miterlimit:10;stroke-dasharray:none;stroke-opacity:1;" />
  <path
     id="path9"
     d="  M 127.63173,203.4755   L 127.63173,141.69759   L 135.82349,141.69759   L 135.82349,203.4755   z  M 147.45181,183.61546   L 155.16405,182.93614   C 155.52369,186.05301 156.36285,188.57048 157.68152,190.56847   C 159.04016,192.5265 161.11807,194.1249 163.91526,195.36365   C 166.71245,196.56245 169.86927,197.2018 173.38574,197.2018   C 176.50261,197.2018 179.25984,196.72229 181.65743,195.80321   C 184.05502,194.88413 185.81325,193.60542 186.97209,192.00703   C 188.17088,190.36867 188.73032,188.61044 188.73032,186.69237   C 188.73032,184.77429 188.17088,183.05602 187.05201,181.61747   C 185.93313,180.17891 184.09498,178.94016 181.49759,177.98112   C 179.81927,177.34176 176.18293,176.34277 170.50863,174.94417   C 164.83433,173.58554 160.83835,172.30682 158.56064,171.10803   C 155.60361,169.5496 153.40582,167.63152 151.96727,165.35381   C 150.52871,163.0761 149.80944,160.47871 149.80944,157.64156   C 149.80944,154.5247 150.68855,151.64759 152.44678,148.93032   C 154.20502,146.21305 156.80241,144.13514 160.19899,142.73654   C 163.59558,141.33795 167.39176,140.61867 171.54759,140.61867   C 176.14297,140.61867 180.17891,141.37791 183.65542,142.85642   C 187.17188,144.33494 189.84919,146.49277 191.72731,149.36988   C 193.60542,152.20703 194.64437,155.48373 194.76425,159.08012   L 186.93213,159.67952   C 186.49257,155.76345 185.09397,152.84638 182.65642,150.84839   C 180.21887,148.8504 176.62249,147.8514 171.86727,147.8514   C 166.95221,147.8514 163.31586,148.73052 161.07811,150.56867   C 158.8004,152.36687 157.68152,154.56466 157.68152,157.12209   C 157.68152,159.31988 158.48072,161.15803 160.07911,162.59658   C 161.63755,164.03514 165.75341,165.51365 172.4267,166.99217   C 179.06004,168.51064 183.61546,169.82931 186.09297,170.94819   C 189.68935,172.58654 192.3267,174.70442 194.04498,177.22188   C 195.76325,179.77931 196.60241,182.69638 196.60241,186.01305   C 196.60241,189.32972 195.68333,192.40662 193.80522,195.32369   C 191.92711,198.24076 189.20984,200.47851 185.69337,202.11686   C 182.1769,203.71526 178.18092,204.51445 173.78534,204.51445   C 168.19096,204.51445 163.51566,203.71526 159.71948,202.0769   C 155.96325,200.43855 152.96626,198.001 150.84839,194.72429   C 148.69056,191.44759 147.53172,187.77128 147.45181,183.61546   z  M 208.19076,203.4755   L 208.19076,141.69759   L 249.90883,141.69759   L 249.90883,148.97028   L 216.38253,148.97028   L 216.38253,168.11104   L 245.39337,168.11104   L 245.39337,175.38373   L 216.38253,175.38373   L 216.38253,203.4755   z "
     style="fill:#000000;fill-rule:evenodd;fill-opacity:1;stroke:none;" />
</svg>
