<?xml version="1.0" encoding="UTF-8" standalone="no"?>
<svg
   xmlns:dc="http://purl.org/dc/elements/1.1/"
   xmlns:cc="http://creativecommons.org/ns#"
   xmlns:rdf="http://www.w3.org/1999/02/22-rdf-syntax-ns#"
   xmlns:svg="http://www.w3.org/2000/svg"
   xmlns="http://www.w3.org/2000/svg"
   id="svg11"
   height="130.27mm"
   width="130.27mm"
   version="1.0">
  <metadata
     id="metadata15">
    <rdf:RDF>
      <cc:Work
         rdf:about="">
        <dc:format>image/svg+xml</dc:format>
        <dc:type
           rdf:resource="http://purl.org/dc/dcmitype/StillImage" />
      </cc:Work>
    </rdf:RDF>
  </metadata>
  <defs
     id="defs3">
    <pattern
       y="0"
       x="0"
       height="6"
       width="6"
       patternUnits="userSpaceOnUse"
       id="EMFhbasepattern" />
  </defs>
  <path
     id="path5"
     d="  M 164.63454,327.67068   C 164.63454,437.95983 327.67068,437.95983 327.67068,327.67068   C 437.95983,327.67068 437.95983,164.63454 327.67068,164.63454   C 327.67068,54.345381 164.63454,54.345381 164.63454,164.63454   C 54.345381,164.63454 54.345381,327.67068 164.63454,327.67068   z "
     style="fill:#ffff80;fill-rule:evenodd;fill-opacity:1;stroke:none;" />
  <path
     id="path7"
     d="  M 164.63454,327.67068   C 164.63454,437.95983 327.67068,437.95983 327.67068,327.67068   C 437.95983,327.67068 437.95983,164.63454 327.67068,164.63454   C 327.67068,54.345381 164.63454,54.345381 164.63454,164.63454   C 54.345381,164.63454 54.345381,327.67068 164.63454,327.67068  "
     style="fill:none;stroke:#000000;stroke-width:9.5903616px;stroke-linecap:butt;stroke-linejoin:miter;stroke-miterlimit:10;stroke-dasharray:none;stroke-opacity:1;" />
  <path
     id="path9"
     d="  M 177.5016,268.68996   L 177.5016,206.91205   L 185.69337,206.91205   L 185.69337,268.68996   z  M 200.07891,268.68996   L 200.07891,206.91205   L 223.3755,206.91205   C 227.49136,206.91205 230.64819,207.11184 232.80602,207.47148   C 235.84297,207.99096 238.36044,208.95 240.43835,210.38855   C 242.4763,211.78715 244.11466,213.78514 245.35341,216.34257   C 246.63212,218.9 247.23152,221.69719 247.23152,224.77409   C 247.23152,230.00883 245.59317,234.48433 242.23654,238.12068   C 238.87992,241.75702 232.84598,243.55522 224.09478,243.55522   L 208.27068,243.55522   L 208.27068,268.68996   z  M 208.27068,236.28253   L 224.25462,236.28253   C 229.52931,236.28253 233.28554,235.28353 235.48333,233.3255   C 237.72108,231.36747 238.8,228.61024 238.8,225.01385   C 238.8,222.45642 238.16064,220.21867 236.84196,218.38052   C 235.56325,216.54237 233.84498,215.34357 231.68715,214.74417   C 230.32851,214.38454 227.77108,214.18474 224.05482,214.18474   L 208.27068,214.18474   z  M 268.4502,268.68996   L 252.06666,206.91205   L 260.45823,206.91205   L 269.84879,247.39136   C 270.84779,251.66706 271.7269,255.86285 272.44618,260.05863   C 274.04457,253.4253 274.96365,249.62911 275.24337,248.63012   L 286.99156,206.91205   L 296.86164,206.91205   L 305.69277,238.16064   C 307.93052,245.91285 309.52891,253.2255 310.52791,260.05863   C 311.28714,256.14257 312.3261,251.66706 313.56485,246.59217   L 323.2751,206.91205   L 331.50682,206.91205   L 314.56385,268.68996   L 306.69176,268.68996   L 293.66486,221.61727   C 292.54598,217.66124 291.90662,215.26365 291.70682,214.34458   C 291.06747,217.18172 290.46807,219.61927 289.90863,221.61727   L 276.8018,268.68996   z "
     style="fill:#000000;fill-rule:evenodd;fill-opacity:1;stroke:none;" />
</svg>
