<?xml version="1.0" encoding="UTF-8" standalone="no"?>
<svg
   xmlns:dc="http://purl.org/dc/elements/1.1/"
   xmlns:cc="http://creativecommons.org/ns#"
   xmlns:rdf="http://www.w3.org/1999/02/22-rdf-syntax-ns#"
   xmlns:svg="http://www.w3.org/2000/svg"
   xmlns="http://www.w3.org/2000/svg"
   id="svg13"
   height="89.669998mm"
   width="120.11mm"
   version="1.0">
  <metadata
     id="metadata17">
    <rdf:RDF>
      <cc:Work
         rdf:about="">
        <dc:format>image/svg+xml</dc:format>
        <dc:type
           rdf:resource="http://purl.org/dc/dcmitype/StillImage" />
      </cc:Work>
    </rdf:RDF>
  </metadata>
  <defs
     id="defs3">
    <pattern
       y="0"
       x="0"
       height="6"
       width="6"
       patternUnits="userSpaceOnUse"
       id="EMFhbasepattern" />
  </defs>
  <path
     id="path5"
     d="  M 54.345381,54.345381   L 54.345381,284.51405   L 399.59839,284.51405   L 399.59839,54.345381   L 54.345381,54.345381   z "
     style="fill:#80e0ff;fill-rule:evenodd;fill-opacity:1;stroke:none;" />
  <path
     id="path7"
     d="  M 54.345381,54.345381   L 399.59839,54.345381   L 399.59839,284.51405   L 54.345381,284.51405   z "
     style="fill:none;stroke:#000000;stroke-width:9.5903616px;stroke-linecap:butt;stroke-linejoin:miter;stroke-miterlimit:10;stroke-dasharray:none;stroke-opacity:1;" />
  <path
     id="path9"
     d="  M 154.60462,119.08032   L 161.55763,118.48092   C 161.87731,121.27811 162.6765,123.55582 163.8753,125.35401   C 165.07409,127.11225 166.91225,128.5508 169.46968,129.66968   C 171.98715,130.74859 174.82429,131.30803 177.98112,131.30803   C 180.77831,131.30803 183.25582,130.90843 185.41365,130.06928   C 187.57148,129.23012 189.16988,128.07128 190.20883,126.63273   C 191.28775,125.19417 191.80723,123.59578 191.80723,121.87751   C 191.80723,120.11928 191.28775,118.6008 190.28875,117.28213   C 189.2498,116.00341 187.61144,114.88454 185.25381,114.00542   C 183.7753,113.44598 180.45863,112.52691 175.38373,111.28815   C 170.26887,110.08936 166.67249,108.93052 164.63454,107.8516   C 161.99719,106.45301 159.99919,104.73474 158.68052,102.65683   C 157.4018,100.57891 156.76245,98.301203 156.76245,95.743774   C 156.76245,92.946585 157.52168,90.309236 159.12008,87.871685   C 160.71847,85.434135 163.03614,83.556023 166.11305,82.317268   C 169.18996,81.038553 172.58654,80.399196 176.30281,80.399196   C 180.45863,80.399196 184.05502,81.078513 187.21184,82.397188   C 190.36867,83.715862 192.80622,85.673894 194.48454,88.271284   C 196.16285,90.828714 197.08192,93.745782 197.2018,97.022489   L 190.16887,97.541966   C 189.76927,94.025501 188.49056,91.388151 186.29277,89.589959   C 184.13494,87.791766 180.89819,86.912649 176.62249,86.912649   C 172.18695,86.912649 168.91024,87.711846 166.87229,89.3502   C 164.87429,90.988553 163.83534,92.946585 163.83534,95.224296   C 163.83534,97.222288 164.55462,98.900601 165.99317,100.17932   C 167.43172,101.45803 171.10803,102.77671 177.10201,104.13534   C 183.05602,105.49397 187.17188,106.65281 189.40964,107.69177   C 192.64638,109.17028 195.04397,111.04839 196.56245,113.36606   C 198.12088,115.64377 198.88012,118.28112 198.88012,121.27811   C 198.88012,124.23514 198.04096,126.99237 196.36265,129.62972   C 194.64437,132.22711 192.20682,134.26506 189.05,135.74357   C 185.85321,137.18213 182.29678,137.9014 178.34076,137.9014   C 173.30582,137.9014 169.07008,137.18213 165.67349,135.70361   C 162.27691,134.26506 159.5996,132.02731 157.68152,129.11024   C 155.72349,126.15321 154.7245,122.83654 154.60462,119.08032   z  M 209.06988,136.98233   L 209.06988,81.358232   L 249.30943,81.358232   L 249.30943,87.911645   L 216.46245,87.911645   L 216.46245,104.93454   L 247.19156,104.93454   L 247.19156,111.48795   L 216.46245,111.48795   L 216.46245,130.38895   L 250.58815,130.38895   L 250.58815,136.98233   z  M 300.41807,117.48193   L 307.77068,119.32008   C 306.2522,125.35401 303.45502,129.98936 299.45903,133.14618   C 295.46305,136.34297 290.54799,137.9014 284.75381,137.9014   C 278.75984,137.9014 273.88473,136.70261 270.12851,134.26506   C 266.37229,131.82751 263.53514,128.27108 261.5771,123.63574   C 259.61907,119.04036 258.62008,114.04538 258.62008,108.73072   C 258.62008,102.93654 259.73895,97.901605 261.93674,93.585942   C 264.17449,89.27028 267.29136,85.993573 271.40722,83.755822   C 275.48313,81.518071 279.95863,80.399196 284.87369,80.399196   C 290.42811,80.399196 295.10341,81.83775 298.89959,84.674898   C 302.69578,87.512047 305.33313,91.468071 306.8516,96.62289   L 299.57891,98.301203   C 298.3002,94.26526 296.42208,91.308232 293.98453,89.470079   C 291.50702,87.631926 288.43012,86.71285 284.71385,86.71285   C 280.43815,86.71285 276.88172,87.711846 274.00461,89.789758   C 271.12751,91.82771 269.12951,94.584938 267.97068,98.021485   C 266.81184,101.49799 266.21245,105.05442 266.21245,108.69076   C 266.21245,113.44598 266.89176,117.56185 268.29036,121.07831   C 269.64899,124.63474 271.80682,127.27209 274.72389,128.99036   C 277.601,130.74859 280.75783,131.62771 284.15441,131.62771   C 288.27028,131.62771 291.74678,130.42891 294.62389,128.07128   C 297.501,125.67369 299.41907,122.15723 300.41807,117.48193   z "
     style="fill:#000000;fill-rule:evenodd;fill-opacity:1;stroke:none;" />
  <path
     id="path11"
     d="  M 226.97188,188.61044   L 226.97188,188.61044   L 140.65863,140.65863   L 140.65863,236.56225   L 226.97188,188.61044   L 313.28514,140.65863   L 313.28514,236.56225   L 226.97188,188.61044   z "
     style="fill:#000000;fill-rule:evenodd;fill-opacity:1;stroke:none;" />
</svg>
