<?xml version="1.0" encoding="UTF-8" standalone="no"?>
<svg
   xmlns:dc="http://purl.org/dc/elements/1.1/"
   xmlns:cc="http://creativecommons.org/ns#"
   xmlns:rdf="http://www.w3.org/1999/02/22-rdf-syntax-ns#"
   xmlns:svg="http://www.w3.org/2000/svg"
   xmlns="http://www.w3.org/2000/svg"
   id="svg13"
   height="130.27mm"
   width="130.27mm"
   version="1.0">
  <metadata
     id="metadata17">
    <rdf:RDF>
      <cc:Work
         rdf:about="">
        <dc:format>image/svg+xml</dc:format>
        <dc:type
           rdf:resource="http://purl.org/dc/dcmitype/StillImage" />
      </cc:Work>
    </rdf:RDF>
  </metadata>
  <defs
     id="defs3">
    <pattern
       y="0"
       x="0"
       height="6"
       width="6"
       patternUnits="userSpaceOnUse"
       id="EMFhbasepattern" />
  </defs>
  <path
     id="path5"
     d="  M 164.63454,327.67068   C 164.63454,437.95983 327.67068,437.95983 327.67068,327.67068   C 437.95983,327.67068 437.95983,164.63454 327.67068,164.63454   C 327.67068,54.345381 164.63454,54.345381 164.63454,164.63454   C 54.345381,164.63454 54.345381,327.67068 164.63454,327.67068   z "
     style="fill:#ffff80;fill-rule:evenodd;fill-opacity:1;stroke:none;" />
  <path
     id="path7"
     d="  M 164.63454,327.67068   C 164.63454,437.95983 327.67068,437.95983 327.67068,327.67068   C 437.95983,327.67068 437.95983,164.63454 327.67068,164.63454   C 327.67068,54.345381 164.63454,54.345381 164.63454,164.63454   C 54.345381,164.63454 54.345381,327.67068 164.63454,327.67068  "
     style="fill:none;stroke:#000000;stroke-width:9.5903616px;stroke-linecap:butt;stroke-linejoin:miter;stroke-miterlimit:10;stroke-dasharray:none;stroke-opacity:1;" />
  <path
     id="path9"
     d="  M 173.78534,195.80321   L 180.73835,195.20381   C 181.05803,198.001 181.85723,200.27871 183.05602,202.0769   C 184.25482,203.83514 186.09297,205.27369 188.6504,206.39257   C 191.16787,207.47148 194.00502,208.03092 197.16184,208.03092   C 199.95903,208.03092 202.43654,207.63132 204.59437,206.79217   C 206.75221,205.95301 208.3506,204.79417 209.38956,203.35562   C 210.46847,201.91707 210.98795,200.31867 210.98795,198.6004   C 210.98795,196.84217 210.46847,195.32369 209.46947,194.00502   C 208.43052,192.7263 206.79217,191.60743 204.43454,190.72831   C 202.95602,190.16887 199.63935,189.2498 194.56446,188.01104   C 189.4496,186.81225 185.85321,185.65341 183.81526,184.5745   C 181.17791,183.1759 179.17992,181.45763 177.86124,179.37972   C 176.58253,177.3018 175.94317,175.02409 175.94317,172.46666   C 175.94317,169.66948 176.70241,167.03213 178.3008,164.59458   C 179.89919,162.15703 182.21686,160.27891 185.29377,159.04016   C 188.37068,157.76144 191.76727,157.12209 195.48353,157.12209   C 199.63935,157.12209 203.23574,157.8014 206.39257,159.12008   C 209.54939,160.43875 211.98694,162.39678 213.66526,164.99417   C 215.34357,167.5516 216.26265,170.46867 216.38253,173.74538   L 209.3496,174.26486   C 208.95,170.74839 207.67128,168.11104 205.47349,166.31285   C 203.31566,164.51466 200.07891,163.63554 195.80321,163.63554   C 191.36767,163.63554 188.09096,164.43474 186.05301,166.07309   C 184.05502,167.71144 183.01606,169.66948 183.01606,171.94719   C 183.01606,173.94518 183.73534,175.62349 185.17389,176.90221   C 186.61245,178.18092 190.28875,179.4996 196.28273,180.85823   C 202.23674,182.21686 206.35261,183.3757 208.59036,184.41466   C 211.82711,185.89317 214.2247,187.77128 215.74317,190.08895   C 217.3016,192.36666 218.06084,195.00401 218.06084,198.001   C 218.06084,200.95803 217.22168,203.71526 215.54337,206.35261   C 213.8251,208.95 211.38755,210.98795 208.23072,212.46646   C 205.03393,213.90502 201.47751,214.62429 197.52148,214.62429   C 192.48654,214.62429 188.2508,213.90502 184.85421,212.4265   C 181.45763,210.98795 178.78032,208.7502 176.86225,205.83313   C 174.90421,202.8761 173.90522,199.55943 173.78534,195.80321   z  M 228.2506,213.70522   L 228.2506,158.08112   L 268.49016,158.08112   L 268.49016,164.63454   L 235.64317,164.63454   L 235.64317,181.65743   L 266.37229,181.65743   L 266.37229,188.21084   L 235.64317,188.21084   L 235.64317,207.11184   L 269.76887,207.11184   L 269.76887,213.70522   z  M 319.59879,194.20482   L 326.9514,196.04297   C 325.43293,202.0769 322.63574,206.71225 318.63975,209.86907   C 314.64377,213.06586 309.72871,214.62429 303.93453,214.62429   C 297.94056,214.62429 293.06546,213.4255 289.30923,210.98795   C 285.55301,208.5504 282.71586,204.99397 280.75783,200.35863   C 278.7998,195.76325 277.8008,190.76827 277.8008,185.45361   C 277.8008,179.65944 278.91967,174.6245 281.11747,170.30883   C 283.35522,165.99317 286.47208,162.71646 290.58795,160.47871   C 294.66385,158.24096 299.13935,157.12209 304.05441,157.12209   C 309.60883,157.12209 314.28413,158.56064 318.08032,161.39779   C 321.8765,164.23494 324.51385,168.19096 326.03232,173.34578   L 318.75963,175.02409   C 317.48092,170.98815 315.60281,168.03112 313.16526,166.19297   C 310.68775,164.35482 307.61084,163.43574 303.89457,163.43574   C 299.61887,163.43574 296.06245,164.43474 293.18534,166.51265   C 290.30823,168.5506 288.31024,171.30783 287.1514,174.74437   C 285.99257,178.22088 285.39317,181.77731 285.39317,185.41365   C 285.39317,190.16887 286.07249,194.28474 287.47108,197.8012   C 288.82971,201.35763 290.98755,203.99498 293.90461,205.71325   C 296.78172,207.47148 299.93855,208.3506 303.33514,208.3506   C 307.451,208.3506 310.92751,207.1518 313.80461,204.79417   C 316.68172,202.39658 318.59979,198.88012 319.59879,194.20482   z "
     style="fill:#000000;fill-rule:evenodd;fill-opacity:1;stroke:none;" />
  <path
     id="path11"
     d="  M 246.15261,265.33333   L 246.15261,265.33333   L 159.83936,217.38152   L 159.83936,313.28514   L 246.15261,265.33333   L 332.46586,217.38152   L 332.46586,313.28514   L 246.15261,265.33333   z "
     style="fill:#000000;fill-rule:evenodd;fill-opacity:1;stroke:none;" />
</svg>
