<?xml version="1.0" encoding="UTF-8" standalone="no"?>
<svg
   xmlns:dc="http://purl.org/dc/elements/1.1/"
   xmlns:cc="http://creativecommons.org/ns#"
   xmlns:rdf="http://www.w3.org/1999/02/22-rdf-syntax-ns#"
   xmlns:svg="http://www.w3.org/2000/svg"
   xmlns="http://www.w3.org/2000/svg"
   id="svg9"
   height="47.200001mm"
   width="50.759998mm"
   version="1.0">
  <metadata
     id="metadata13">
    <rdf:RDF>
      <cc:Work
         rdf:about="">
        <dc:format>image/svg+xml</dc:format>
        <dc:type
           rdf:resource="http://purl.org/dc/dcmitype/StillImage" />
      </cc:Work>
    </rdf:RDF>
  </metadata>
  <defs
     id="defs3">
    <pattern
       y="0"
       x="0"
       height="6"
       width="6"
       patternUnits="userSpaceOnUse"
       id="EMFhbasepattern" />
  </defs>
  <path
     id="path5"
     d="  M 0.11987952,20.499397   L 0.11987952,20.499397   L 191.68735,20.499397   L 191.68735,0.11987952   L 0.11987952,0.11987952   z "
     style="fill:#000000;fill-rule:evenodd;fill-opacity:1;stroke:none;" />
  <path
     id="path7"
     d="  M 22.697188,59.859838   C 22.697188,57.10261 32.607228,50.389357 37.28253,50.389357   L 38.001807,50.389357   C 45.873895,50.389357 59.5002,72.247389 74.40522,72.247389   L 78.800802,72.247389   C 91.74779,72.247389 105.93353,50.389357 114.48494,50.389357   C 122.83654,50.389357 135.54377,72.247389 150.88835,72.247389   L 153.08614,72.247389   C 173.50562,72.247389 178.3008,61.817871 190.24879,55.464256   L 177.34176,39.999799   C 169.22992,44.355421 167.47168,51.188553 154.68454,52.786947   C 149.40984,53.426304 139.02028,43.356425 134.70462,39.64016   C 115.64377,23.216666 103.33614,32.487349 88.111445,44.435341   C 78.680923,51.827911 78.840762,57.142569 67.652007,47.672088   C 62.377308,43.156626 54.265461,36.083734 47.991766,33.126706   C 38.960843,28.890963 27.412449,31.488353 20.659237,35.963855   C 16.942972,38.401405 3.0369477,48.351405 3.0369477,52.587148   L 3.0369477,177.86124   L 22.697188,177.86124   z "
     style="fill:#000000;fill-rule:evenodd;fill-opacity:1;stroke:none;" />
</svg>
