<?xml version="1.0" encoding="UTF-8" standalone="no"?>
<svg
   xmlns:dc="http://purl.org/dc/elements/1.1/"
   xmlns:cc="http://creativecommons.org/ns#"
   xmlns:rdf="http://www.w3.org/1999/02/22-rdf-syntax-ns#"
   xmlns:svg="http://www.w3.org/2000/svg"
   xmlns="http://www.w3.org/2000/svg"
   id="svg22"
   height="116.73mm"
   width="130.60001mm"
   version="1.0">
  <metadata
     id="metadata26">
    <rdf:RDF>
      <cc:Work
         rdf:about="">
        <dc:format>image/svg+xml</dc:format>
        <dc:type
           rdf:resource="http://purl.org/dc/dcmitype/StillImage" />
      </cc:Work>
    </rdf:RDF>
  </metadata>
  <defs
     id="defs6">
    <clipPath
       id="clipEmfPath1"
       clipPathUnits="userSpaceOnUse">
      <path
         id="path2"
         d="  M 220.57831,386.81124   L 220.57831,386.81124   L 386.81124,220.57831   L 220.57831,54.984738   L 54.984738,220.57831   L 220.57831,386.81124   z" />
    </clipPath>
    <pattern
       y="0"
       x="0"
       height="6"
       width="6"
       patternUnits="userSpaceOnUse"
       id="EMFhbasepattern" />
  </defs>
  <path
     id="path8"
     d="  M 220.57831,386.49156   L 220.57831,386.49156   L 386.49156,220.57831   L 220.57831,54.665059   L 54.665059,220.57831   L 220.57831,386.49156   z "
     style="fill:#ff8080;fill-rule:evenodd;fill-opacity:1;stroke:none;" />
  <path
     id="path10"
     d="  M 220.57831,386.49156   L 220.57831,386.49156   L 386.49156,220.57831   L 220.57831,54.665059   L 54.665059,220.57831   L 220.57831,386.49156  "
     style="fill:none;stroke:#000000;stroke-width:9.5903616px;stroke-linecap:butt;stroke-linejoin:miter;stroke-miterlimit:10;stroke-dasharray:none;stroke-opacity:1;" />
  <path
     id="path12"
     d="  M 162.19699,281.4771   L 162.19699,219.69919   L 206.87209,219.69919   L 206.87209,226.97188   L 170.38875,226.97188   L 170.38875,245.91285   L 204.55441,245.91285   L 204.55441,253.14558   L 170.38875,253.14558   L 170.38875,274.16445   L 208.31064,274.16445   L 208.31064,281.4771   z  M 230.40843,281.4771   L 214.0249,219.69919   L 222.3765,219.69919   L 231.80702,260.17851   C 232.80602,264.45421 233.68514,268.65 234.40441,272.84578   C 235.96285,266.21245 236.92188,262.41626 237.2016,261.41727   L 248.9498,219.69919   L 258.81988,219.69919   L 267.651,250.94779   C 269.88875,258.7 271.48714,266.01265 272.44618,272.84578   C 273.24538,268.92971 274.28433,264.45421 275.52309,259.37931   L 285.23333,219.69919   L 293.46506,219.69919   L 276.52208,281.4771   L 268.61004,281.4771   L 255.62309,234.40441   C 254.50421,230.44839 253.86486,228.0508 253.66506,227.13172   C 253.0257,229.96887 252.4263,232.40642 251.86686,234.40441   L 238.76004,281.4771   z "
     style="fill:#000000;fill-rule:evenodd;fill-opacity:1;stroke:none;" />
  <path
     id="path14"
     d="  M 33.126706,152.04719   C 33.126706,153.7255 53.426304,158.16104 53.426304,141.53775   C 53.426304,124.91446 79.28032,124.91446 79.28032,141.53775   C 79.28032,158.16104 105.13434,158.16104 105.13434,141.53775   C 105.13434,124.91446 130.98835,124.91446 130.98835,141.53775   C 130.98835,158.16104 156.84237,158.16104 156.84237,141.53775   C 156.84237,124.91446 182.65642,124.91446 182.65642,141.53775   C 182.65642,158.16104 208.51044,158.16104 208.51044,141.53775   C 208.51044,124.91446 234.36445,124.91446 234.36445,141.53775   C 234.36445,158.16104 254.66405,153.7255 254.66405,152.04719  "
     clip-path="url(#clipEmfPath1)"
     style="fill:none;stroke:#000000;stroke-width:6.1538153px;stroke-linecap:butt;stroke-linejoin:miter;stroke-miterlimit:10;stroke-dasharray:none;stroke-opacity:1;" />
  <path
     id="path16"
     d="  M 241.55723,152.36687   C 241.55723,154.04518 261.85682,158.48072 261.85682,141.85743   C 261.85682,125.23413 287.71084,125.23413 287.71084,141.85743   C 287.71084,158.48072 313.56485,158.48072 313.56485,141.85743   C 313.56485,125.23413 339.41887,125.23413 339.41887,141.85743   C 339.41887,158.48072 365.27289,158.48072 365.27289,141.85743   C 365.27289,125.23413 391.08694,125.23413 391.08694,141.85743   C 391.08694,158.48072 416.94096,158.48072 416.94096,141.85743   C 416.94096,125.23413 442.79497,125.23413 442.79497,141.85743   C 442.79497,158.48072 463.09457,154.04518 463.09457,152.36687  "
     clip-path="url(#clipEmfPath1)"
     style="fill:none;stroke:#000000;stroke-width:6.1538153px;stroke-linecap:butt;stroke-linejoin:miter;stroke-miterlimit:10;stroke-dasharray:none;stroke-opacity:1;" />
  <path
     id="path18"
     d="  M 32.16767,181.77731   C 32.16767,183.45562 52.467268,187.89116 52.467268,171.26787   C 52.467268,154.64458 78.321284,154.64458 78.321284,171.26787   C 78.321284,187.89116 104.1753,187.89116 104.1753,171.26787   C 104.1753,154.64458 130.02932,154.64458 130.02932,171.26787   C 130.02932,187.89116 155.88333,187.89116 155.88333,171.26787   C 155.88333,154.64458 181.69739,154.64458 181.69739,171.26787   C 181.69739,187.89116 207.5514,187.89116 207.5514,171.26787   C 207.5514,154.64458 233.40542,154.64458 233.40542,171.26787   C 233.40542,187.89116 253.70502,183.45562 253.70502,181.77731  "
     clip-path="url(#clipEmfPath1)"
     style="fill:none;stroke:#000000;stroke-width:6.1538153px;stroke-linecap:butt;stroke-linejoin:miter;stroke-miterlimit:10;stroke-dasharray:none;stroke-opacity:1;" />
  <path
     id="path20"
     d="  M 240.59819,182.09699   C 240.59819,183.7753 260.89779,188.21084 260.89779,171.58755   C 260.89779,154.96425 286.7518,154.96425 286.7518,171.58755   C 286.7518,188.21084 312.60582,188.21084 312.60582,171.58755   C 312.60582,154.96425 338.45983,154.96425 338.45983,171.58755   C 338.45983,188.21084 364.31385,188.21084 364.31385,171.58755   C 364.31385,154.96425 390.12791,154.96425 390.12791,171.58755   C 390.12791,188.21084 415.98192,188.21084 415.98192,171.58755   C 415.98192,154.96425 441.83594,154.96425 441.83594,171.58755   C 441.83594,188.21084 462.13554,183.7753 462.13554,182.09699  "
     clip-path="url(#clipEmfPath1)"
     style="fill:none;stroke:#000000;stroke-width:6.1538153px;stroke-linecap:butt;stroke-linejoin:miter;stroke-miterlimit:10;stroke-dasharray:none;stroke-opacity:1;" />
</svg>
