<?xml version="1.0" encoding="UTF-8" standalone="no"?>
<svg
   xmlns:dc="http://purl.org/dc/elements/1.1/"
   xmlns:cc="http://creativecommons.org/ns#"
   xmlns:rdf="http://www.w3.org/1999/02/22-rdf-syntax-ns#"
   xmlns:svg="http://www.w3.org/2000/svg"
   xmlns="http://www.w3.org/2000/svg"
   id="svg29"
   height="95.75mm"
   width="95.75mm"
   version="1.0">
  <metadata
     id="metadata33">
    <rdf:RDF>
      <cc:Work
         rdf:about="">
        <dc:format>image/svg+xml</dc:format>
        <dc:type
           rdf:resource="http://purl.org/dc/dcmitype/StillImage" />
      </cc:Work>
    </rdf:RDF>
  </metadata>
  <defs
     id="defs3">
    <pattern
       y="0"
       x="0"
       height="6"
       width="6"
       patternUnits="userSpaceOnUse"
       id="EMFhbasepattern" />
  </defs>
  <path
     id="path5"
     d="  M 54.345381,54.345381   L 54.345381,307.53092   L 307.53092,307.53092   L 307.53092,54.345381   L 54.345381,54.345381   z "
     style="fill:#aaffaa;fill-rule:evenodd;fill-opacity:1;stroke:none;" />
  <path
     id="path7"
     d="  M 54.345381,54.345381   L 307.53092,54.345381   L 307.53092,307.53092   L 54.345381,307.53092   z "
     style="fill:none;stroke:#000000;stroke-width:9.5903616px;stroke-linecap:butt;stroke-linejoin:miter;stroke-miterlimit:10;stroke-dasharray:none;stroke-opacity:1;" />
  <path
     id="path9"
     d="  M 109.01044,228.88996   L 109.01044,228.88996   L 109.01044,180.93815   L 252.86586,180.93815   L 252.86586,228.88996   z "
     style="fill:#ffffff;fill-rule:evenodd;fill-opacity:1;stroke:none;" />
  <path
     id="path11"
     d="  M 109.01044,228.88996   L 109.01044,228.88996   L 109.01044,180.93815   L 252.86586,180.93815   L 252.86586,228.88996   z "
     style="fill:none;stroke:#000000;stroke-width:9.5903616px;stroke-linecap:butt;stroke-linejoin:miter;stroke-miterlimit:10;stroke-dasharray:none;stroke-opacity:1;" />
  <path
     id="path13"
     d="  M 152.16707,228.88996   C 152.16707,239.51927 143.61566,248.07068 132.98634,248.07068   C 122.39699,248.07068 113.80562,239.51927 113.80562,228.88996   C 113.80562,218.3006 122.39699,209.70923 132.98634,209.70923   C 143.61566,209.70923 152.16707,218.3006 152.16707,228.88996   z "
     style="fill:#ffffff;fill-rule:evenodd;fill-opacity:1;stroke:none;" />
  <path
     id="path15"
     d="  M 152.16707,228.88996   C 152.16707,239.51927 143.61566,248.07068 132.98634,248.07068   C 122.39699,248.07068 113.80562,239.51927 113.80562,228.88996   C 113.80562,218.3006 122.39699,209.70923 132.98634,209.70923   C 143.61566,209.70923 152.16707,218.3006 152.16707,228.88996  "
     style="fill:none;stroke:#000000;stroke-width:9.5903616px;stroke-linecap:butt;stroke-linejoin:miter;stroke-miterlimit:10;stroke-dasharray:none;stroke-opacity:1;" />
  <path
     id="path17"
     d="  M 248.07068,228.88996   C 248.07068,239.51927 239.51927,248.07068 228.88996,248.07068   C 218.3006,248.07068 209.70923,239.51927 209.70923,228.88996   C 209.70923,218.3006 218.3006,209.70923 228.88996,209.70923   C 239.51927,209.70923 248.07068,218.3006 248.07068,228.88996   z "
     style="fill:#ffffff;fill-rule:evenodd;fill-opacity:1;stroke:none;" />
  <path
     id="path19"
     d="  M 248.07068,228.88996   C 248.07068,239.51927 239.51927,248.07068 228.88996,248.07068   C 218.3006,248.07068 209.70923,239.51927 209.70923,228.88996   C 209.70923,218.3006 218.3006,209.70923 228.88996,209.70923   C 239.51927,209.70923 248.07068,218.3006 248.07068,228.88996  "
     style="fill:none;stroke:#000000;stroke-width:9.5903616px;stroke-linecap:butt;stroke-linejoin:miter;stroke-miterlimit:10;stroke-dasharray:none;stroke-opacity:1;" />
  <path
     id="path21"
     d="  M 156.96225,180.93815   L 171.34779,132.98634  "
     style="fill:none;stroke:#000000;stroke-width:9.5903616px;stroke-linecap:butt;stroke-linejoin:miter;stroke-miterlimit:10;stroke-dasharray:none;stroke-opacity:1;" />
  <path
     id="path23"
     d="  M 180.93815,184.77429   L 180.93815,228.88996  "
     style="fill:none;stroke:#000000;stroke-width:9.5903616px;stroke-linecap:butt;stroke-linejoin:miter;stroke-miterlimit:10;stroke-dasharray:none;stroke-opacity:1;" />
  <path
     id="path25"
     d="  M 162.71646,184.77429   L 162.71646,227.93092  "
     style="fill:none;stroke:#000000;stroke-width:9.5903616px;stroke-linecap:butt;stroke-linejoin:miter;stroke-miterlimit:10;stroke-dasharray:none;stroke-opacity:1;" />
  <path
     id="path27"
     d="  M 199.15984,184.77429   L 199.15984,227.93092  "
     style="fill:none;stroke:#000000;stroke-width:9.5903616px;stroke-linecap:butt;stroke-linejoin:miter;stroke-miterlimit:10;stroke-dasharray:none;stroke-opacity:1;" />
</svg>
