<?xml version="1.0" encoding="UTF-8" standalone="no"?>
<svg
   xmlns:dc="http://purl.org/dc/elements/1.1/"
   xmlns:cc="http://creativecommons.org/ns#"
   xmlns:rdf="http://www.w3.org/1999/02/22-rdf-syntax-ns#"
   xmlns:svg="http://www.w3.org/2000/svg"
   xmlns="http://www.w3.org/2000/svg"
   id="svg21"
   height="59.220001mm"
   width="67mm"
   version="1.0">
  <metadata
     id="metadata25">
    <rdf:RDF>
      <cc:Work
         rdf:about="">
        <dc:format>image/svg+xml</dc:format>
        <dc:type
           rdf:resource="http://purl.org/dc/dcmitype/StillImage" />
      </cc:Work>
    </rdf:RDF>
  </metadata>
  <defs
     id="defs3">
    <pattern
       y="0"
       x="0"
       height="6"
       width="6"
       patternUnits="userSpaceOnUse"
       id="EMFhbasepattern" />
  </defs>
  <path
     id="path5"
     d="  M 54.665059,150.24899   L 54.665059,150.24899   L 54.665059,102.29719   L 198.52048,102.29719   L 198.52048,150.24899   z "
     style="fill:#80e0ff;fill-rule:evenodd;fill-opacity:1;stroke:none;" />
  <path
     id="path7"
     d="  M 54.665059,150.24899   L 54.665059,150.24899   L 54.665059,102.29719   L 198.52048,102.29719   L 198.52048,150.24899   z "
     style="fill:none;stroke:#000000;stroke-width:9.5903616px;stroke-linecap:butt;stroke-linejoin:miter;stroke-miterlimit:10;stroke-dasharray:none;stroke-opacity:1;" />
  <path
     id="path9"
     d="  M 97.821685,150.24899   C 97.821685,160.87831 89.27028,169.42972 78.640963,169.42972   C 68.051605,169.42972 59.46024,160.87831 59.46024,150.24899   C 59.46024,139.65964 68.051605,131.06827 78.640963,131.06827   C 89.27028,131.06827 97.821685,139.65964 97.821685,150.24899   z "
     style="fill:#80e0ff;fill-rule:evenodd;fill-opacity:1;stroke:none;" />
  <path
     id="path11"
     d="  M 97.821685,150.24899   C 97.821685,160.87831 89.27028,169.42972 78.640963,169.42972   C 68.051605,169.42972 59.46024,160.87831 59.46024,150.24899   C 59.46024,139.65964 68.051605,131.06827 78.640963,131.06827   C 89.27028,131.06827 97.821685,139.65964 97.821685,150.24899  "
     style="fill:none;stroke:#000000;stroke-width:9.5903616px;stroke-linecap:butt;stroke-linejoin:miter;stroke-miterlimit:10;stroke-dasharray:none;stroke-opacity:1;" />
  <path
     id="path13"
     d="  M 193.7253,150.24899   C 193.7253,160.87831 185.17389,169.42972 174.54458,169.42972   C 163.95522,169.42972 155.36385,160.87831 155.36385,150.24899   C 155.36385,139.65964 163.95522,131.06827 174.54458,131.06827   C 185.17389,131.06827 193.7253,139.65964 193.7253,150.24899   z "
     style="fill:#80e0ff;fill-rule:evenodd;fill-opacity:1;stroke:none;" />
  <path
     id="path15"
     d="  M 193.7253,150.24899   C 193.7253,160.87831 185.17389,169.42972 174.54458,169.42972   C 163.95522,169.42972 155.36385,160.87831 155.36385,150.24899   C 155.36385,139.65964 163.95522,131.06827 174.54458,131.06827   C 185.17389,131.06827 193.7253,139.65964 193.7253,150.24899  "
     style="fill:none;stroke:#000000;stroke-width:9.5903616px;stroke-linecap:butt;stroke-linejoin:miter;stroke-miterlimit:10;stroke-dasharray:none;stroke-opacity:1;" />
  <path
     id="path17"
     d="  M 102.61687,102.29719   L 117.00241,54.345381  "
     style="fill:none;stroke:#000000;stroke-width:9.5903616px;stroke-linecap:butt;stroke-linejoin:miter;stroke-miterlimit:10;stroke-dasharray:none;stroke-opacity:1;" />
  <path
     id="path19"
     d="  M 126.59277,104.21526   L 126.59277,149.28996  "
     style="fill:none;stroke:#000000;stroke-width:9.5903616px;stroke-linecap:butt;stroke-linejoin:miter;stroke-miterlimit:10;stroke-dasharray:none;stroke-opacity:1;" />
</svg>
