<?xml version="1.0" encoding="UTF-8" standalone="no"?>
<svg
   xmlns:dc="http://purl.org/dc/elements/1.1/"
   xmlns:cc="http://creativecommons.org/ns#"
   xmlns:rdf="http://www.w3.org/1999/02/22-rdf-syntax-ns#"
   xmlns:svg="http://www.w3.org/2000/svg"
   xmlns="http://www.w3.org/2000/svg"
   id="svg13"
   height="95.75mm"
   width="95.75mm"
   version="1.0">
  <metadata
     id="metadata17">
    <rdf:RDF>
      <cc:Work
         rdf:about="">
        <dc:format>image/svg+xml</dc:format>
        <dc:type
           rdf:resource="http://purl.org/dc/dcmitype/StillImage" />
      </cc:Work>
    </rdf:RDF>
  </metadata>
  <defs
     id="defs3">
    <pattern
       y="0"
       x="0"
       height="6"
       width="6"
       patternUnits="userSpaceOnUse"
       id="EMFhbasepattern" />
  </defs>
  <path
     id="path5"
     d="  M 54.345381,54.345381   L 54.345381,307.53092   L 307.53092,307.53092   L 307.53092,54.345381   L 54.345381,54.345381   z "
     style="fill:#aaffaa;fill-rule:evenodd;fill-opacity:1;stroke:none;" />
  <path
     id="path7"
     d="  M 54.345381,54.345381   L 307.53092,54.345381   L 307.53092,307.53092   L 54.345381,307.53092   z "
     style="fill:none;stroke:#000000;stroke-width:9.5903616px;stroke-linecap:butt;stroke-linejoin:miter;stroke-miterlimit:10;stroke-dasharray:none;stroke-opacity:1;" />
  <path
     id="path9"
     d="  M 124.95442,185.93313   L 132.30703,184.93413   C 132.50683,189.64939 133.38594,192.88614 134.98434,194.60441   C 136.54277,196.36265 138.74056,197.24176 141.49779,197.24176   C 143.5757,197.24176 145.33393,196.76225 146.81245,195.80321   C 148.29096,194.88413 149.32992,193.60542 149.88936,192.00703   C 150.44879,190.36867 150.72851,187.81124 150.72851,184.25482   L 150.72851,141.69759   L 158.92028,141.69759   L 158.92028,183.7753   C 158.92028,188.97008 158.28092,192.96606 157.04217,195.80321   C 155.80341,198.64036 153.80542,200.79819 151.08815,202.2767   C 148.37088,203.79518 145.21405,204.51445 141.53775,204.51445   C 136.14317,204.51445 131.98735,202.95602 129.11024,199.83915   C 126.23313,196.72229 124.83454,192.08695 124.95442,185.93313   z  M 173.66546,203.4755   L 173.66546,141.69759   L 181.85723,141.69759   L 181.85723,203.4755   z  M 195.92309,203.4755   L 195.92309,141.69759   L 219.0998,141.69759   C 223.81506,141.69759 227.61124,142.29699 230.44839,143.5757   C 233.28554,144.81446 235.52329,146.73253 237.16164,149.32992   C 238.76004,151.92731 239.55923,154.64458 239.55923,157.48172   C 239.55923,160.11907 238.87992,162.63654 237.44136,164.95421   C 236.00281,167.27189 233.84498,169.15 230.92791,170.58855   C 234.68413,171.70743 237.56124,173.54558 239.55923,176.22289   C 241.55723,178.86024 242.55622,181.97711 242.55622,185.57349   C 242.55622,188.4506 241.95682,191.12791 240.71807,193.64538   C 239.51927,196.12289 238.0008,198.04096 236.20261,199.3996   C 234.40441,200.71827 232.16666,201.75723 229.44939,202.43654   C 226.73213,203.11586 223.41546,203.4755 219.45943,203.4755   z  M 204.0749,167.63152   L 217.46144,167.63152   C 221.05783,167.63152 223.65522,167.39176 225.25361,166.91225   C 227.33152,166.31285 228.88996,165.27389 229.92891,163.8753   C 231.00783,162.43674 231.52731,160.63855 231.52731,158.44076   C 231.52731,156.40281 231.04779,154.60462 230.04879,153.04618   C 229.0498,151.48775 227.6512,150.40883 225.85301,149.8494   C 224.01486,149.25 220.89799,148.97028 216.42249,148.97028   L 204.0749,148.97028   z  M 204.0749,196.16285   L 219.45943,196.16285   C 222.09678,196.16285 223.9749,196.08293 225.05381,195.88313   C 226.93192,195.56345 228.49036,195.00401 229.76907,194.20482   C 231.00783,193.40562 232.04678,192.28674 232.88594,190.76827   C 233.68514,189.2498 234.08474,187.53152 234.08474,185.57349   C 234.08474,183.25582 233.5253,181.25783 232.3265,179.53956   C 231.16767,177.86124 229.52931,176.66245 227.41144,175.98313   C 225.33353,175.30381 222.29658,174.94417 218.38052,174.94417   L 204.0749,174.94417   z "
     style="fill:#000000;fill-rule:evenodd;fill-opacity:1;stroke:none;" />
  <path
     id="path11"
     d="  M 307.53092,54.345381   L 307.53092,54.345381   L 272.04658,180.93815   L 307.53092,307.53092  "
     style="fill:none;stroke:#000000;stroke-width:9.5903616px;stroke-linecap:butt;stroke-linejoin:miter;stroke-miterlimit:10;stroke-dasharray:none;stroke-opacity:1;" />
</svg>
