<?xml version="1.0" encoding="UTF-8" standalone="no"?>
<svg
   xmlns:dc="http://purl.org/dc/elements/1.1/"
   xmlns:cc="http://creativecommons.org/ns#"
   xmlns:rdf="http://www.w3.org/1999/02/22-rdf-syntax-ns#"
   xmlns:svg="http://www.w3.org/2000/svg"
   xmlns="http://www.w3.org/2000/svg"
   id="svg11"
   height="116.73mm"
   width="116.73mm"
   version="1.0">
  <metadata
     id="metadata15">
    <rdf:RDF>
      <cc:Work
         rdf:about="">
        <dc:format>image/svg+xml</dc:format>
        <dc:type
           rdf:resource="http://purl.org/dc/dcmitype/StillImage" />
      </cc:Work>
    </rdf:RDF>
  </metadata>
  <defs
     id="defs3">
    <pattern
       y="0"
       x="0"
       height="6"
       width="6"
       patternUnits="userSpaceOnUse"
       id="EMFhbasepattern" />
  </defs>
  <path
     id="path5"
     d="  M 220.57831,386.49156   L 220.57831,386.49156   L 386.49156,220.57831   L 220.57831,54.665059   L 54.665059,220.57831   L 220.57831,386.49156   z "
     style="fill:#ff8080;fill-rule:evenodd;fill-opacity:1;stroke:none;" />
  <path
     id="path7"
     d="  M 220.57831,386.49156   L 220.57831,386.49156   L 386.49156,220.57831   L 220.57831,54.665059   L 54.665059,220.57831   L 220.57831,386.49156  "
     style="fill:none;stroke:#000000;stroke-width:9.5903616px;stroke-linecap:butt;stroke-linejoin:miter;stroke-miterlimit:10;stroke-dasharray:none;stroke-opacity:1;" />
  <path
     id="path9"
     d="  M 161.71747,225.57329   L 169.07008,224.57429   C 169.26988,229.28955 170.14899,232.5263 171.74739,234.24457   C 173.30582,236.00281 175.50361,236.88192 178.26084,236.88192   C 180.33875,236.88192 182.09699,236.40241 183.5755,235.44337   C 185.05401,234.52429 186.09297,233.24558 186.65241,231.64719   C 187.21184,230.00883 187.49156,227.4514 187.49156,223.89498   L 187.49156,181.33775   L 195.68333,181.33775   L 195.68333,223.41546   C 195.68333,228.61024 195.04397,232.60622 193.80522,235.44337   C 192.56646,238.28052 190.56847,240.43835 187.8512,241.91686   C 185.13393,243.43534 181.97711,244.15461 178.3008,244.15461   C 172.90622,244.15461 168.7504,242.59618 165.87329,239.47931   C 162.99618,236.36245 161.59759,231.72711 161.71747,225.57329   z  M 210.42851,243.11566   L 210.42851,181.33775   L 218.62028,181.33775   L 218.62028,243.11566   z  M 277.08152,221.45743   L 285.27329,223.49538   C 283.55502,230.24859 280.47811,235.36345 276.04257,238.87992   C 271.56706,242.39638 266.13253,244.15461 259.69899,244.15461   C 253.0257,244.15461 247.63112,242.79598 243.43534,240.11867   C 239.27951,237.4014 236.08273,233.44538 233.9249,228.33052   C 231.72711,223.1757 230.64819,217.66124 230.64819,211.74719   C 230.64819,205.31365 231.88694,199.71927 234.32449,194.92409   C 236.802,190.12891 240.31847,186.49257 244.83393,184.01506   C 249.38935,181.49759 254.38433,180.25883 259.81887,180.25883   C 266.01265,180.25883 271.20743,181.85723 275.40321,185.01405   C 279.63895,188.13092 282.55602,192.56646 284.23433,198.28072   L 276.16245,200.15883   C 274.72389,195.68333 272.64598,192.40662 269.92871,190.32871   C 267.21144,188.29076 263.7749,187.2518 259.65903,187.2518   C 254.90381,187.2518 250.94779,188.41064 247.751,190.68835   C 244.55421,192.96606 242.31646,196.00301 241.03775,199.83915   C 239.71907,203.6753 239.07972,207.63132 239.07972,211.70723   C 239.07972,216.98192 239.83895,221.53735 241.39739,225.49337   C 242.91586,229.40943 245.31345,232.3265 248.51024,234.24457   C 251.74698,236.20261 255.26345,237.16164 259.01967,237.16164   C 263.61506,237.16164 267.49116,235.84297 270.64799,233.20562   C 273.84478,230.56827 275.96265,226.65221 277.08152,221.45743   z "
     style="fill:#000000;fill-rule:evenodd;fill-opacity:1;stroke:none;" />
</svg>
