<?xml version="1.0" encoding="UTF-8" standalone="no"?>
<svg
   xmlns:dc="http://purl.org/dc/elements/1.1/"
   xmlns:cc="http://creativecommons.org/ns#"
   xmlns:rdf="http://www.w3.org/1999/02/22-rdf-syntax-ns#"
   xmlns:svg="http://www.w3.org/2000/svg"
   xmlns="http://www.w3.org/2000/svg"
   id="svg15"
   height="130.27mm"
   width="130.27mm"
   version="1.0">
  <metadata
     id="metadata19">
    <rdf:RDF>
      <cc:Work
         rdf:about="">
        <dc:format>image/svg+xml</dc:format>
        <dc:type
           rdf:resource="http://purl.org/dc/dcmitype/StillImage" />
      </cc:Work>
    </rdf:RDF>
  </metadata>
  <defs
     id="defs3">
    <pattern
       y="0"
       x="0"
       height="6"
       width="6"
       patternUnits="userSpaceOnUse"
       id="EMFhbasepattern" />
  </defs>
  <path
     id="path5"
     d="  M 164.63454,327.67068   C 164.63454,437.95983 327.67068,437.95983 327.67068,327.67068   C 437.95983,327.67068 437.95983,164.63454 327.67068,164.63454   C 327.67068,54.345381 164.63454,54.345381 164.63454,164.63454   C 54.345381,164.63454 54.345381,327.67068 164.63454,327.67068   z "
     style="fill:#ffff80;fill-rule:evenodd;fill-opacity:1;stroke:none;" />
  <path
     id="path7"
     d="  M 164.63454,327.67068   C 164.63454,437.95983 327.67068,437.95983 327.67068,327.67068   C 437.95983,327.67068 437.95983,164.63454 327.67068,164.63454   C 327.67068,54.345381 164.63454,54.345381 164.63454,164.63454   C 54.345381,164.63454 54.345381,327.67068 164.63454,327.67068  "
     style="fill:none;stroke:#000000;stroke-width:9.5903616px;stroke-linecap:butt;stroke-linejoin:miter;stroke-miterlimit:10;stroke-dasharray:none;stroke-opacity:1;" />
  <path
     id="path9"
     d="  M 190.16887,251.14759   L 197.52148,250.14859   C 197.72128,254.86385 198.6004,258.1006 200.19879,259.81887   C 201.75723,261.5771 203.95502,262.45622 206.71225,262.45622   C 208.79016,262.45622 210.54839,261.9767 212.0269,261.01767   C 213.50542,260.09859 214.54437,258.81988 215.10381,257.22148   C 215.66325,255.58313 215.94297,253.0257 215.94297,249.46927   L 215.94297,206.91205   L 224.13474,206.91205   L 224.13474,248.98976   C 224.13474,254.18453 223.49538,258.18052 222.25662,261.01767   C 221.01787,263.85482 219.01988,266.01265 216.30261,267.49116   C 213.58534,269.00963 210.42851,269.72891 206.75221,269.72891   C 201.35763,269.72891 197.2018,268.17048 194.3247,265.05361   C 191.44759,261.93674 190.04899,257.3014 190.16887,251.14759   z  M 238.87992,268.68996   L 238.87992,206.91205   L 247.07168,206.91205   L 247.07168,268.68996   z  M 261.13755,268.68996   L 261.13755,206.91205   L 284.31425,206.91205   C 289.02951,206.91205 292.8257,207.51144 295.66285,208.79016   C 298.5,210.02891 300.73775,211.94698 302.3761,214.54437   C 303.97449,217.14176 304.77369,219.85903 304.77369,222.69618   C 304.77369,225.33353 304.09437,227.851 302.65582,230.16867   C 301.21726,232.48634 299.05943,234.36445 296.14237,235.80301   C 299.89859,236.92188 302.7757,238.76004 304.77369,241.43735   C 306.77168,244.0747 307.77068,247.19156 307.77068,250.78795   C 307.77068,253.66506 307.17128,256.34237 305.93253,258.85984   C 304.73373,261.33735 303.21526,263.25542 301.41706,264.61405   C 299.61887,265.93273 297.38112,266.97168 294.66385,267.651   C 291.94658,268.33032 288.62992,268.68996 284.67389,268.68996   z  M 269.28935,232.84598   L 282.6759,232.84598   C 286.27229,232.84598 288.86967,232.60622 290.46807,232.1267   C 292.54598,231.52731 294.10441,230.48835 295.14337,229.08976   C 296.22228,227.6512 296.74176,225.85301 296.74176,223.65522   C 296.74176,221.61727 296.26224,219.81907 295.26325,218.26064   C 294.26425,216.70221 292.86566,215.62329 291.06747,215.06385   C 289.22931,214.46445 286.11245,214.18474 281.63694,214.18474   L 269.28935,214.18474   z  M 269.28935,261.37731   L 284.67389,261.37731   C 287.31124,261.37731 289.18935,261.29739 290.26827,261.09759   C 292.14638,260.77791 293.70482,260.21847 294.98353,259.41927   C 296.22228,258.62008 297.26124,257.5012 298.1004,255.98273   C 298.89959,254.46425 299.29919,252.74598 299.29919,250.78795   C 299.29919,248.47028 298.73975,246.47229 297.54096,244.75401   C 296.38212,243.0757 294.74377,241.8769 292.6259,241.19759   C 290.54799,240.51827 287.51104,240.15863 283.59498,240.15863   L 269.28935,240.15863   z "
     style="fill:#000000;fill-rule:evenodd;fill-opacity:1;stroke:none;" />
  <path
     id="path11"
     d="  M 102.29719,188.61044   L 102.29719,188.61044   L 140.65863,246.15261   L 102.29719,303.69477  "
     style="fill:none;stroke:#000000;stroke-width:9.5903616px;stroke-linecap:butt;stroke-linejoin:miter;stroke-miterlimit:10;stroke-dasharray:none;stroke-opacity:1;" />
  <path
     id="path13"
     d="  M 390.00803,188.61044   L 390.00803,188.61044   L 351.64658,246.15261   L 390.00803,303.69477  "
     style="fill:none;stroke:#000000;stroke-width:9.5903616px;stroke-linecap:butt;stroke-linejoin:miter;stroke-miterlimit:10;stroke-dasharray:none;stroke-opacity:1;" />
</svg>
