<?xml version="1.0" encoding="UTF-8" standalone="no"?>
<svg
   xmlns:dc="http://purl.org/dc/elements/1.1/"
   xmlns:cc="http://creativecommons.org/ns#"
   xmlns:rdf="http://www.w3.org/1999/02/22-rdf-syntax-ns#"
   xmlns:svg="http://www.w3.org/2000/svg"
   xmlns="http://www.w3.org/2000/svg"
   id="svg11"
   height="89.669998mm"
   width="120.11mm"
   version="1.0">
  <metadata
     id="metadata15">
    <rdf:RDF>
      <cc:Work
         rdf:about="">
        <dc:format>image/svg+xml</dc:format>
        <dc:type
           rdf:resource="http://purl.org/dc/dcmitype/StillImage" />
      </cc:Work>
    </rdf:RDF>
  </metadata>
  <defs
     id="defs3">
    <pattern
       y="0"
       x="0"
       height="6"
       width="6"
       patternUnits="userSpaceOnUse"
       id="EMFhbasepattern" />
  </defs>
  <path
     id="path5"
     d="  M 54.345381,54.345381   L 54.345381,284.51405   L 399.59839,284.51405   L 399.59839,54.345381   L 54.345381,54.345381   z "
     style="fill:#80e0ff;fill-rule:evenodd;fill-opacity:1;stroke:none;" />
  <path
     id="path7"
     d="  M 54.345381,54.345381   L 399.59839,54.345381   L 399.59839,284.51405   L 54.345381,284.51405   z "
     style="fill:none;stroke:#000000;stroke-width:9.5903616px;stroke-linecap:butt;stroke-linejoin:miter;stroke-miterlimit:10;stroke-dasharray:none;stroke-opacity:1;" />
  <path
     id="path9"
     d="  M 168.19096,173.4257   L 174.06506,172.6265   C 174.2249,176.38273 174.94417,178.98012 176.18293,180.37871   C 177.46164,181.77731 179.21988,182.45662 181.41767,182.45662   C 183.05602,182.45662 184.49458,182.09699 185.69337,181.33775   C 186.85221,180.57851 187.69136,179.57952 188.13092,178.26084   C 188.57048,176.98213 188.81024,174.90421 188.81024,172.06707   L 188.81024,138.02128   L 195.36365,138.02128   L 195.36365,171.70743   C 195.36365,175.86325 194.84417,179.06004 193.84518,181.33775   C 192.84618,183.61546 191.28775,185.33373 189.08996,186.53253   C 186.93213,187.69136 184.3747,188.29076 181.45763,188.29076   C 177.14197,188.29076 173.78534,187.05201 171.50763,184.5745   C 169.18996,182.05703 168.07108,178.34076 168.19096,173.4257   z  M 200.59839,187.4516   L 219.57931,138.02128   L 226.65221,138.02128   L 246.87188,187.4516   L 239.39939,187.4516   L 233.64518,172.50662   L 212.98594,172.50662   L 207.5514,187.4516   z  M 214.86405,167.15201   L 231.64719,167.15201   L 226.45241,153.48574   C 224.89397,149.32992 223.73514,145.89337 222.9759,143.21606   C 222.33654,146.41285 221.45743,149.52972 220.29859,152.64658   z  M 275.24337,168.07108   L 275.24337,162.27691   L 296.18233,162.23695   L 296.18233,180.57851   C 292.94558,183.13594 289.62891,185.05401 286.23233,186.37269   C 282.79578,187.6514 279.27931,188.29076 275.68293,188.29076   C 270.84779,188.29076 266.41225,187.2518 262.45622,185.17389   C 258.5002,183.09598 255.50321,180.09899 253.46526,176.18293   C 251.46727,172.22691 250.42831,167.83132 250.42831,162.99618   C 250.42831,158.16104 251.46727,153.68554 253.46526,149.52972   C 255.46325,145.33393 258.38032,142.25703 262.13654,140.21907   C 265.93273,138.22108 270.28835,137.18213 275.20341,137.18213   C 278.75984,137.18213 281.99658,137.78152 284.87369,138.94036   C 287.79076,140.09919 290.02851,141.69759 291.66686,143.7755   C 293.30522,145.85341 294.58393,148.53072 295.42309,151.84739   L 289.50903,153.48574   C 288.78975,150.96827 287.87068,148.97028 286.7518,147.53172   C 285.67289,146.09317 284.07449,144.93434 282.03654,144.09518   C 279.99859,143.21606 277.72088,142.7765 275.24337,142.7765   C 272.24638,142.7765 269.64899,143.25602 267.4512,144.13514   C 265.29337,145.05421 263.53514,146.25301 262.1765,147.73152   C 260.85783,149.21004 259.81887,150.84839 259.05963,152.64658   C 257.82088,155.68353 257.18152,159.0002 257.18152,162.55662   C 257.18152,166.99217 257.94076,170.66847 259.45923,173.6255   C 260.97771,176.62249 263.1755,178.82028 266.09257,180.25883   C 268.96967,181.69739 272.08654,182.41666 275.32329,182.41666   C 278.16044,182.41666 280.91767,181.85723 283.63494,180.77831   C 286.31224,179.65944 288.3502,178.5006 289.74879,177.26184   L 289.74879,168.07108   z "
     style="fill:#000000;fill-rule:evenodd;fill-opacity:1;stroke:none;" />
</svg>
