<?xml version="1.0" encoding="UTF-8" standalone="no"?>
<svg
   xmlns:dc="http://purl.org/dc/elements/1.1/"
   xmlns:cc="http://creativecommons.org/ns#"
   xmlns:rdf="http://www.w3.org/1999/02/22-rdf-syntax-ns#"
   xmlns:svg="http://www.w3.org/2000/svg"
   xmlns="http://www.w3.org/2000/svg"
   id="svg15"
   height="95.75mm"
   width="95.75mm"
   version="1.0">
  <metadata
     id="metadata19">
    <rdf:RDF>
      <cc:Work
         rdf:about="">
        <dc:format>image/svg+xml</dc:format>
        <dc:type
           rdf:resource="http://purl.org/dc/dcmitype/StillImage" />
      </cc:Work>
    </rdf:RDF>
  </metadata>
  <defs
     id="defs3">
    <pattern
       y="0"
       x="0"
       height="6"
       width="6"
       patternUnits="userSpaceOnUse"
       id="EMFhbasepattern" />
  </defs>
  <path
     id="path5"
     d="  M 54.345381,54.345381   L 54.345381,307.53092   L 307.53092,307.53092   L 307.53092,54.345381   L 54.345381,54.345381   z "
     style="fill:#aaffaa;fill-rule:evenodd;fill-opacity:1;stroke:none;" />
  <path
     id="path7"
     d="  M 54.345381,54.345381   L 307.53092,54.345381   L 307.53092,307.53092   L 54.345381,307.53092   z "
     style="fill:none;stroke:#000000;stroke-width:9.5903616px;stroke-linecap:butt;stroke-linejoin:miter;stroke-miterlimit:10;stroke-dasharray:none;stroke-opacity:1;" />
  <path
     id="path9"
     d="  M 122.15723,184.93413   L 128.03132,184.13494   C 128.19116,187.89116 128.91044,190.48855 130.14919,191.88715   C 131.42791,193.28574 133.18614,193.96506 135.38393,193.96506   C 137.02229,193.96506 138.46084,193.60542 139.65964,192.84618   C 140.81847,192.08695 141.65763,191.08795 142.09719,189.76927   C 142.53674,188.49056 142.7765,186.41265 142.7765,183.5755   L 142.7765,149.52972   L 149.32992,149.52972   L 149.32992,183.21586   C 149.32992,187.37168 148.81044,190.56847 147.81144,192.84618   C 146.81245,195.12389 145.25401,196.84217 143.05622,198.04096   C 140.89839,199.1998 138.34096,199.79919 135.42389,199.79919   C 131.10823,199.79919 127.7516,198.56044 125.47389,196.08293   C 123.15622,193.56546 122.03735,189.84919 122.15723,184.93413   z  M 154.56466,198.96004   L 173.54558,149.52972   L 180.61847,149.52972   L 200.83815,198.96004   L 193.36566,198.96004   L 187.61144,184.01506   L 166.95221,184.01506   L 161.51767,198.96004   z  M 168.83032,178.66044   L 185.61345,178.66044   L 180.41867,164.99417   C 178.86024,160.83835 177.7014,157.4018 176.94217,154.7245   C 176.30281,157.92128 175.42369,161.03815 174.26486,164.15502   z  M 229.20964,179.57952   L 229.20964,173.78534   L 250.14859,173.74538   L 250.14859,192.08695   C 246.91184,194.64437 243.59518,196.56245 240.19859,197.88112   C 236.76204,199.15984 233.24558,199.79919 229.64919,199.79919   C 224.81405,199.79919 220.37851,198.76024 216.42249,196.68233   C 212.46646,194.60441 209.46947,191.60743 207.43152,187.69136   C 205.43353,183.73534 204.39458,179.33976 204.39458,174.50462   C 204.39458,169.66948 205.43353,165.19397 207.43152,161.03815   C 209.42952,156.84237 212.34658,153.76546 216.10281,151.72751   C 219.89899,149.72952 224.25462,148.69056 229.16968,148.69056   C 232.7261,148.69056 235.96285,149.28996 238.83996,150.44879   C 241.75702,151.60763 243.99478,153.20602 245.63313,155.28393   C 247.27148,157.36185 248.5502,160.03915 249.38935,163.35582   L 243.4753,164.99417   C 242.75602,162.4767 241.83694,160.47871 240.71807,159.04016   C 239.63915,157.6016 238.04076,156.44277 236.00281,155.60361   C 233.96486,154.7245 231.68715,154.28494 229.20964,154.28494   C 226.21265,154.28494 223.61526,154.76446 221.41747,155.64357   C 219.25964,156.56265 217.5014,157.76144 216.14277,159.23996   C 214.82409,160.71847 213.78514,162.35682 213.0259,164.15502   C 211.78715,167.19197 211.14779,170.50863 211.14779,174.06506   C 211.14779,178.5006 211.90703,182.1769 213.4255,185.13393   C 214.94397,188.13092 217.14176,190.32871 220.05883,191.76727   C 222.93594,193.20582 226.05281,193.9251 229.28955,193.9251   C 232.1267,193.9251 234.88393,193.36566 237.6012,192.28674   C 240.27851,191.16787 242.31646,190.00903 243.71506,188.77028   L 243.71506,179.57952   z "
     style="fill:#000000;fill-rule:evenodd;fill-opacity:1;stroke:none;" />
  <path
     id="path11"
     d="  M 54.345381,54.345381   L 54.345381,54.345381   L 89.829718,180.93815   L 54.345381,307.53092  "
     style="fill:none;stroke:#000000;stroke-width:9.5903616px;stroke-linecap:butt;stroke-linejoin:miter;stroke-miterlimit:10;stroke-dasharray:none;stroke-opacity:1;" />
  <path
     id="path13"
     d="  M 307.53092,54.345381   L 307.53092,54.345381   L 272.04658,180.93815   L 307.53092,307.53092  "
     style="fill:none;stroke:#000000;stroke-width:9.5903616px;stroke-linecap:butt;stroke-linejoin:miter;stroke-miterlimit:10;stroke-dasharray:none;stroke-opacity:1;" />
</svg>
