<?xml version="1.0" encoding="UTF-8" standalone="no"?>
<svg
   xmlns:dc="http://purl.org/dc/elements/1.1/"
   xmlns:cc="http://creativecommons.org/ns#"
   xmlns:rdf="http://www.w3.org/1999/02/22-rdf-syntax-ns#"
   xmlns:svg="http://www.w3.org/2000/svg"
   xmlns="http://www.w3.org/2000/svg"
   id="svg15"
   height="130.27mm"
   width="130.27mm"
   version="1.0">
  <metadata
     id="metadata19">
    <rdf:RDF>
      <cc:Work
         rdf:about="">
        <dc:format>image/svg+xml</dc:format>
        <dc:type
           rdf:resource="http://purl.org/dc/dcmitype/StillImage" />
      </cc:Work>
    </rdf:RDF>
  </metadata>
  <defs
     id="defs3">
    <pattern
       y="0"
       x="0"
       height="6"
       width="6"
       patternUnits="userSpaceOnUse"
       id="EMFhbasepattern" />
  </defs>
  <path
     id="path5"
     d="  M 164.63454,327.67068   C 164.63454,437.95983 327.67068,437.95983 327.67068,327.67068   C 437.95983,327.67068 437.95983,164.63454 327.67068,164.63454   C 327.67068,54.345381 164.63454,54.345381 164.63454,164.63454   C 54.345381,164.63454 54.345381,327.67068 164.63454,327.67068   z "
     style="fill:#ffff80;fill-rule:evenodd;fill-opacity:1;stroke:none;" />
  <path
     id="path7"
     d="  M 164.63454,327.67068   C 164.63454,437.95983 327.67068,437.95983 327.67068,327.67068   C 437.95983,327.67068 437.95983,164.63454 327.67068,164.63454   C 327.67068,54.345381 164.63454,54.345381 164.63454,164.63454   C 54.345381,164.63454 54.345381,327.67068 164.63454,327.67068  "
     style="fill:none;stroke:#000000;stroke-width:9.5903616px;stroke-linecap:butt;stroke-linejoin:miter;stroke-miterlimit:10;stroke-dasharray:none;stroke-opacity:1;" />
  <path
     id="path9"
     d="  M 187.37168,250.14859   L 193.24578,249.34939   C 193.40562,253.10562 194.1249,255.70301 195.36365,257.1016   C 196.64237,258.5002 198.4006,259.17951 200.59839,259.17951   C 202.23674,259.17951 203.6753,258.81988 204.87409,258.06064   C 206.03293,257.3014 206.87209,256.30241 207.31164,254.98373   C 207.7512,253.70502 207.99096,251.6271 207.99096,248.78996   L 207.99096,214.74417   L 214.54437,214.74417   L 214.54437,248.43032   C 214.54437,252.58614 214.0249,255.78293 213.0259,258.06064   C 212.0269,260.33835 210.46847,262.05662 208.27068,263.25542   C 206.11285,264.41425 203.55542,265.01365 200.63835,265.01365   C 196.32269,265.01365 192.96606,263.7749 190.68835,261.29739   C 188.37068,258.77992 187.2518,255.06365 187.37168,250.14859   z  M 219.77911,264.17449   L 238.76004,214.74417   L 245.83293,214.74417   L 266.05261,264.17449   L 258.58012,264.17449   L 252.8259,249.22951   L 232.16666,249.22951   L 226.73213,264.17449   z  M 234.04478,243.8749   L 250.82791,243.8749   L 245.63313,230.20863   C 244.0747,226.05281 242.91586,222.61626 242.15662,219.93895   C 241.51727,223.13574 240.63815,226.25261 239.47931,229.36947   z  M 294.42409,244.79397   L 294.42409,238.9998   L 315.36305,238.95984   L 315.36305,257.3014   C 312.1263,259.85883 308.80963,261.7769 305.41305,263.09558   C 301.9765,264.37429 298.46004,265.01365 294.86365,265.01365   C 290.02851,265.01365 285.59297,263.97469 281.63694,261.89678   C 277.68092,259.81887 274.68393,256.82188 272.64598,252.90582   C 270.64799,248.9498 269.60903,244.55421 269.60903,239.71907   C 269.60903,234.88393 270.64799,230.40843 272.64598,226.25261   C 274.64397,222.05682 277.56104,218.97992 281.31727,216.94196   C 285.11345,214.94397 289.46907,213.90502 294.38413,213.90502   C 297.94056,213.90502 301.1773,214.50441 304.05441,215.66325   C 306.97148,216.82209 309.20923,218.42048 310.84759,220.49839   C 312.48594,222.5763 313.76465,225.25361 314.60381,228.57028   L 308.68975,230.20863   C 307.97048,227.69116 307.0514,225.69317 305.93253,224.25462   C 304.85361,222.81606 303.25522,221.65723 301.21726,220.81807   C 299.17931,219.93895 296.9016,219.49939 294.42409,219.49939   C 291.4271,219.49939 288.82971,219.97891 286.63192,220.85803   C 284.47409,221.77711 282.71586,222.9759 281.35722,224.45441   C 280.03855,225.93293 278.99959,227.57128 278.24036,229.36947   C 277.0016,232.40642 276.36225,235.72309 276.36225,239.27951   C 276.36225,243.71506 277.12148,247.39136 278.63996,250.34839   C 280.15843,253.34538 282.35622,255.54317 285.27329,256.98172   C 288.1504,258.42028 291.26726,259.13955 294.50401,259.13955   C 297.34116,259.13955 300.09839,258.58012 302.81566,257.5012   C 305.49297,256.38233 307.53092,255.22349 308.92951,253.98474   L 308.92951,244.79397   z "
     style="fill:#000000;fill-rule:evenodd;fill-opacity:1;stroke:none;" />
  <path
     id="path11"
     d="  M 102.29719,188.61044   L 102.29719,188.61044   L 140.65863,246.15261   L 102.29719,303.69477  "
     style="fill:none;stroke:#000000;stroke-width:9.5903616px;stroke-linecap:butt;stroke-linejoin:miter;stroke-miterlimit:10;stroke-dasharray:none;stroke-opacity:1;" />
  <path
     id="path13"
     d="  M 390.00803,188.61044   L 390.00803,188.61044   L 351.64658,246.15261   L 390.00803,303.69477  "
     style="fill:none;stroke:#000000;stroke-width:9.5903616px;stroke-linecap:butt;stroke-linejoin:miter;stroke-miterlimit:10;stroke-dasharray:none;stroke-opacity:1;" />
</svg>
