<?xml version="1.0" encoding="UTF-8" standalone="no"?>
<svg
   xmlns:dc="http://purl.org/dc/elements/1.1/"
   xmlns:cc="http://creativecommons.org/ns#"
   xmlns:rdf="http://www.w3.org/1999/02/22-rdf-syntax-ns#"
   xmlns:svg="http://www.w3.org/2000/svg"
   xmlns="http://www.w3.org/2000/svg"
   id="svg11"
   height="101.85mm"
   width="101.85mm"
   version="1.0">
  <metadata
     id="metadata15">
    <rdf:RDF>
      <cc:Work
         rdf:about="">
        <dc:format>image/svg+xml</dc:format>
        <dc:type
           rdf:resource="http://purl.org/dc/dcmitype/StillImage" />
      </cc:Work>
    </rdf:RDF>
  </metadata>
  <defs
     id="defs3">
    <pattern
       y="0"
       x="0"
       height="6"
       width="6"
       patternUnits="userSpaceOnUse"
       id="EMFhbasepattern" />
  </defs>
  <path
     id="path5"
     d="  M 330.54779,192.44658   C 330.54779,268.72992 268.72992,330.54779 192.44658,330.54779   C 116.20321,330.54779 54.345381,268.72992 54.345381,192.44658   C 54.345381,116.20321 116.20321,54.345381 192.44658,54.345381   C 268.72992,54.345381 330.54779,116.20321 330.54779,192.44658   z "
     style="fill:#80e0ff;fill-rule:evenodd;fill-opacity:1;stroke:none;" />
  <path
     id="path7"
     d="  M 330.54779,192.44658   C 330.54779,268.72992 268.72992,330.54779 192.44658,330.54779   C 116.20321,330.54779 54.345381,268.72992 54.345381,192.44658   C 54.345381,116.20321 116.20321,54.345381 192.44658,54.345381   C 268.72992,54.345381 330.54779,116.20321 330.54779,192.44658  "
     style="fill:none;stroke:#000000;stroke-width:9.5903616px;stroke-linecap:butt;stroke-linejoin:miter;stroke-miterlimit:10;stroke-dasharray:none;stroke-opacity:1;" />
  <path
     id="path9"
     d="  M 123.6757,227.69116   L 123.6757,131.58775   L 136.38293,131.58775   L 136.38293,216.34257   L 183.69538,216.34257   L 183.69538,227.69116   z  M 267.41124,194.00502   L 280.15843,197.2018   C 277.48112,207.67128 272.68594,215.62329 265.77289,221.09779   C 258.81988,226.61225 250.34839,229.32951 240.35843,229.32951   C 230.00883,229.32951 221.57731,227.2516 215.06385,223.01586   C 208.59036,218.78012 203.63534,212.70622 200.27871,204.67429   C 196.88213,196.68233 195.16385,188.09096 195.16385,178.94016   C 195.16385,168.91024 197.08192,160.19899 200.91807,152.7265   C 204.75421,145.29397 210.18875,139.61968 217.26164,135.74357   C 224.29458,131.90743 232.08674,129.9494 240.55823,129.9494   C 250.14859,129.9494 258.26044,132.38695 264.81385,137.30201   C 271.36727,142.17711 275.92269,149.09016 278.52008,157.96124   L 265.97269,160.87831   C 263.7749,153.88534 260.53815,148.81044 256.30241,145.61365   C 252.06666,142.41687 246.71204,140.81847 240.27851,140.81847   C 232.88594,140.81847 226.73213,142.61666 221.77711,146.13313   C 216.82209,149.68956 213.30562,154.44478 211.30763,160.39879   C 209.30964,166.35281 208.31064,172.50662 208.31064,178.86024   C 208.31064,187.05201 209.46947,194.16486 211.86707,200.27871   C 214.26466,206.35261 217.94096,210.90803 222.9759,213.94498   C 228.01084,216.94196 233.44538,218.46044 239.31947,218.46044   C 246.43233,218.46044 252.46626,216.42249 257.38132,212.30662   C 262.33634,208.19076 265.69297,202.0769 267.41124,194.00502   z "
     style="fill:#000000;fill-rule:evenodd;fill-opacity:1;stroke:none;" />
</svg>
