<?xml version="1.0" encoding="UTF-8" standalone="no"?>
<svg
   xmlns:dc="http://purl.org/dc/elements/1.1/"
   xmlns:cc="http://creativecommons.org/ns#"
   xmlns:rdf="http://www.w3.org/1999/02/22-rdf-syntax-ns#"
   xmlns:svg="http://www.w3.org/2000/svg"
   xmlns="http://www.w3.org/2000/svg"
   id="svg13"
   height="130.27mm"
   width="130.27mm"
   version="1.0">
  <metadata
     id="metadata17">
    <rdf:RDF>
      <cc:Work
         rdf:about="">
        <dc:format>image/svg+xml</dc:format>
        <dc:type
           rdf:resource="http://purl.org/dc/dcmitype/StillImage" />
      </cc:Work>
    </rdf:RDF>
  </metadata>
  <defs
     id="defs3">
    <pattern
       y="0"
       x="0"
       height="6"
       width="6"
       patternUnits="userSpaceOnUse"
       id="EMFhbasepattern" />
  </defs>
  <path
     id="path5"
     d="  M 164.63454,327.67068   C 164.63454,437.95983 327.67068,437.95983 327.67068,327.67068   C 437.95983,327.67068 437.95983,164.63454 327.67068,164.63454   C 327.67068,54.345381 164.63454,54.345381 164.63454,164.63454   C 54.345381,164.63454 54.345381,327.67068 164.63454,327.67068   z "
     style="fill:#ffff80;fill-rule:evenodd;fill-opacity:1;stroke:none;" />
  <path
     id="path7"
     d="  M 164.63454,327.67068   C 164.63454,437.95983 327.67068,437.95983 327.67068,327.67068   C 437.95983,327.67068 437.95983,164.63454 327.67068,164.63454   C 327.67068,54.345381 164.63454,54.345381 164.63454,164.63454   C 54.345381,164.63454 54.345381,327.67068 164.63454,327.67068  "
     style="fill:none;stroke:#000000;stroke-width:9.5903616px;stroke-linecap:butt;stroke-linejoin:miter;stroke-miterlimit:10;stroke-dasharray:none;stroke-opacity:1;" />
  <path
     id="path9"
     d="  M 182.1769,281.39718   L 182.1769,185.29377   L 194.88413,185.29377   L 194.88413,270.04859   L 242.19658,270.04859   L 242.19658,281.39718   z  M 253.0257,250.50823   L 265.01365,249.46927   C 265.61305,254.30441 266.93172,258.22048 269.00963,261.29739   C 271.08755,264.41425 274.28433,266.89176 278.67992,268.76988   C 283.03554,270.68795 287.9506,271.64698 293.4251,271.64698   C 298.26024,271.64698 302.53594,270.92771 306.2522,269.48915   C 309.96847,268.0506 312.7257,266.05261 314.56385,263.53514   C 316.36204,261.01767 317.28112,258.3004 317.28112,255.30341   C 317.28112,252.30642 316.402,249.66907 314.64377,247.43132   C 312.9255,245.15361 310.00843,243.2755 306.01245,241.75702   C 303.41506,240.75803 297.7008,239.19959 288.86967,237.04176   C 280.07851,234.92389 273.88473,232.9259 270.32831,231.04779   C 265.73293,228.6502 262.33634,225.69317 260.05863,222.09678   C 257.82088,218.54036 256.702,214.54437 256.702,210.14879   C 256.702,205.31365 258.06064,200.75823 260.81787,196.56245   C 263.5751,192.3267 267.61104,189.12992 272.88574,186.93213   C 278.2004,184.73433 284.07449,183.65542 290.54799,183.65542   C 297.66084,183.65542 303.93453,184.81425 309.36907,187.09197   C 314.80361,189.40964 318.99939,192.76626 321.91646,197.24176   C 324.87349,201.67731 326.43192,206.75221 326.63172,212.38654   L 314.44397,213.30562   C 313.80461,207.23172 311.56686,202.63634 307.81064,199.51948   C 304.01445,196.44257 298.46004,194.88413 291.06747,194.88413   C 283.35522,194.88413 277.76084,196.28273 274.24437,199.07992   C 270.72791,201.91707 268.96967,205.31365 268.96967,209.26968   C 268.96967,212.74618 270.20843,215.58333 272.68594,217.82108   C 275.16345,220.05883 281.55702,222.33654 291.86666,224.65421   C 302.21626,227.01184 309.28915,229.0498 313.16526,230.80803   C 318.75963,233.36546 322.8755,236.64217 325.55281,240.59819   C 328.19016,244.55421 329.54879,249.10963 329.54879,254.26445   C 329.54879,259.37931 328.07028,264.21445 325.15321,268.72992   C 322.23614,273.24538 318.0004,276.76184 312.5259,279.27931   C 307.0514,281.79678 300.85763,283.03554 293.98453,283.03554   C 285.31325,283.03554 278.0006,281.79678 272.1265,279.23935   C 266.25241,276.72188 261.65702,272.88574 258.3004,267.81084   C 254.94377,262.73594 253.18554,256.94176 253.0257,250.50823   z "
     style="fill:#000000;fill-rule:evenodd;fill-opacity:1;stroke:none;" />
  <path
     id="path11"
     d="  M 229.68915,342.89538   L 229.68915,298.26024   L 238.6002,298.26024   L 249.14959,329.86847   C 250.10863,332.78554 250.82791,334.98333 251.26747,336.46184   C 251.78694,334.82349 252.58614,332.46586 253.66506,329.30903   L 264.33433,298.26024   L 272.28634,298.26024   L 272.28634,342.89538   L 266.57208,342.89538   L 266.57208,305.53293   L 253.6251,342.89538   L 248.31044,342.89538   L 235.40341,304.89357   L 235.40341,342.89538   z "
     style="fill:#000000;fill-rule:evenodd;fill-opacity:1;stroke:none;" />
</svg>
