<?xml version="1.0" encoding="UTF-8" standalone="no"?>
<svg
   xmlns:dc="http://purl.org/dc/elements/1.1/"
   xmlns:cc="http://creativecommons.org/ns#"
   xmlns:rdf="http://www.w3.org/1999/02/22-rdf-syntax-ns#"
   xmlns:svg="http://www.w3.org/2000/svg"
   xmlns="http://www.w3.org/2000/svg"
   id="svg13"
   height="95.75mm"
   width="95.75mm"
   version="1.0">
  <metadata
     id="metadata17">
    <rdf:RDF>
      <cc:Work
         rdf:about="">
        <dc:format>image/svg+xml</dc:format>
        <dc:type
           rdf:resource="http://purl.org/dc/dcmitype/StillImage" />
      </cc:Work>
    </rdf:RDF>
  </metadata>
  <defs
     id="defs3">
    <pattern
       y="0"
       x="0"
       height="6"
       width="6"
       patternUnits="userSpaceOnUse"
       id="EMFhbasepattern" />
  </defs>
  <path
     id="path5"
     d="  M 54.345381,54.345381   L 54.345381,307.53092   L 307.53092,307.53092   L 307.53092,54.345381   L 54.345381,54.345381   z "
     style="fill:#aaffaa;fill-rule:evenodd;fill-opacity:1;stroke:none;" />
  <path
     id="path7"
     d="  M 54.345381,54.345381   L 307.53092,54.345381   L 307.53092,307.53092   L 54.345381,307.53092   z "
     style="fill:none;stroke:#000000;stroke-width:9.5903616px;stroke-linecap:butt;stroke-linejoin:miter;stroke-miterlimit:10;stroke-dasharray:none;stroke-opacity:1;" />
  <path
     id="path9"
     d="  M 149.09016,136.70261   L 149.09016,92.067469   L 154.96425,92.067469   L 154.96425,131.42791   L 176.94217,131.42791   L 176.94217,136.70261   z  M 181.97711,122.35703   L 187.57148,121.87751   C 187.81124,124.11526 188.4506,125.91345 189.40964,127.35201   C 190.36867,128.79056 191.84719,129.9494 193.88514,130.82851   C 195.92309,131.70763 198.2008,132.14719 200.71827,132.14719   C 202.99598,132.14719 204.99397,131.82751 206.71225,131.14819   C 208.43052,130.46887 209.70923,129.5498 210.54839,128.39096   C 211.38755,127.23213 211.82711,125.95341 211.82711,124.59478   C 211.82711,123.19618 211.38755,121.95743 210.58835,120.91847   C 209.78915,119.87952 208.43052,119.0004 206.59237,118.28112   C 205.39357,117.8016 202.71626,117.08233 198.64036,116.08333   C 194.5245,115.1243 191.64739,114.20522 190.00903,113.3261   C 187.89116,112.20723 186.29277,110.80863 185.25381,109.17028   C 184.21486,107.49197 183.69538,105.65381 183.69538,103.61586   C 183.69538,101.33815 184.33474,99.26024 185.61345,97.302207   C 186.89217,95.344175 188.77028,93.865661 191.20783,92.826705   C 193.64538,91.82771 196.40261,91.308232 199.3996,91.308232   C 202.71626,91.308232 205.63333,91.82771 208.1508,92.906625   C 210.66827,93.985541 212.6263,95.543975 213.98494,97.621886   C 215.34357,99.659838 216.06285,102.01747 216.18273,104.65482   L 210.50843,105.05442   C 210.18875,102.25723 209.18976,100.0994 207.43152,98.660842   C 205.67329,97.222288 203.0759,96.503011 199.63935,96.503011   C 196.08293,96.503011 193.44558,97.182328 191.84719,98.461043   C 190.20883,99.779717 189.36968,101.37811 189.36968,103.21626   C 189.36968,104.81466 189.96907,106.13333 191.12791,107.17229   C 192.24678,108.21124 195.20381,109.2502 199.99899,110.32911   C 204.83413,111.44799 208.11084,112.36707 209.90903,113.20622   C 212.50642,114.40502 214.42449,115.92349 215.66325,117.76164   C 216.902,119.5998 217.5014,121.67771 217.5014,124.0753   C 217.5014,126.47289 216.82209,128.71064 215.46345,130.78855   C 214.10482,132.90642 212.14678,134.54478 209.58935,135.70361   C 207.07188,136.86245 204.19478,137.46185 200.99799,137.46185   C 196.96205,137.46185 193.60542,136.86245 190.84819,135.70361   C 188.13092,134.50482 185.97309,132.74658 184.41466,130.38895   C 182.89618,128.03132 182.05703,125.35401 181.97711,122.35703   z "
     style="fill:#000000;fill-rule:evenodd;fill-opacity:1;stroke:none;" />
  <path
     id="path11"
     d="  M 54.345381,160.79839   C 54.345381,159.83936 80.239356,155.04417 80.239356,180.93815   C 80.239356,209.70923 120.51887,209.70923 120.51887,180.93815   C 120.51887,152.16707 160.79839,152.16707 160.79839,180.93815   C 160.79839,209.70923 201.07791,209.70923 201.07791,180.93815   C 201.07791,152.16707 241.35743,152.16707 241.35743,180.93815   C 241.35743,209.70923 281.63694,209.30964 281.63694,180.93815   C 281.63694,155.04417 307.53092,159.83936 307.53092,160.79839  "
     style="fill:none;stroke:#000000;stroke-width:9.5903616px;stroke-linecap:butt;stroke-linejoin:miter;stroke-miterlimit:10;stroke-dasharray:none;stroke-opacity:1;" />
</svg>
