<?xml version="1.0" encoding="UTF-8" standalone="no"?>
<svg
   xmlns:dc="http://purl.org/dc/elements/1.1/"
   xmlns:cc="http://creativecommons.org/ns#"
   xmlns:rdf="http://www.w3.org/1999/02/22-rdf-syntax-ns#"
   xmlns:svg="http://www.w3.org/2000/svg"
   xmlns="http://www.w3.org/2000/svg"
   id="svg17"
   height="95.75mm"
   width="95.75mm"
   version="1.0">
  <metadata
     id="metadata21">
    <rdf:RDF>
      <cc:Work
         rdf:about="">
        <dc:format>image/svg+xml</dc:format>
        <dc:type
           rdf:resource="http://purl.org/dc/dcmitype/StillImage" />
      </cc:Work>
    </rdf:RDF>
  </metadata>
  <defs
     id="defs3">
    <pattern
       y="0"
       x="0"
       height="6"
       width="6"
       patternUnits="userSpaceOnUse"
       id="EMFhbasepattern" />
  </defs>
  <path
     id="path5"
     d="  M 132.98634,15.983936   L 132.98634,54.345381   L 228.88996,54.345381   L 228.88996,15.983936   L 132.98634,15.983936   z "
     style="fill:#000000;fill-rule:evenodd;fill-opacity:1;stroke:none;" />
  <path
     id="path7"
     d="  M 54.345381,54.345381   L 54.345381,307.53092   L 307.53092,307.53092   L 307.53092,54.345381   L 54.345381,54.345381   z "
     style="fill:#aaffaa;fill-rule:evenodd;fill-opacity:1;stroke:none;" />
  <path
     id="path9"
     d="  M 54.345381,54.345381   L 307.53092,54.345381   L 307.53092,307.53092   L 54.345381,307.53092   z "
     style="fill:none;stroke:#000000;stroke-width:9.5903616px;stroke-linecap:butt;stroke-linejoin:miter;stroke-miterlimit:10;stroke-dasharray:none;stroke-opacity:1;" />
  <path
     id="path11"
     d="  M 236.96184,178.58052   L 256.34237,178.58052   C 255.26345,177.02209 246.35241,165.55361 245.27349,165.55361   L 236.96184,165.55361   z "
     style="fill:#ffffff;fill-rule:evenodd;fill-opacity:1;stroke:none;" />
  <path
     id="path13"
     d="  M 236.96184,165.55361   L 245.27349,165.55361   C 246.35241,165.55361 255.26345,177.02209 256.34237,178.58052   L 236.96184,178.58052   z  M 227.0518,122.83654   L 225.33353,119.75964   L 208.5504,128.91044   L 211.90703,137.34197   L 135.14417,172.30682   C 137.02229,173.34578 140.09919,182.61646 141.33795,184.81425   C 141.85743,185.73333 146.77249,196.92209 146.77249,197.16184   C 146.77249,198.32068 144.65462,197.68132 144.81446,198.76024   L 146.09317,206.23273   L 154.28494,206.27269   C 154.28494,200.43855 159.08012,194.80421 164.59458,194.80421   L 166.95221,194.80421   C 172.66646,194.80421 177.22188,200.35863 177.22188,206.27269   L 178.82028,206.27269   C 178.82028,200.55843 180.25883,200.71827 182.3767,197.56144   L 177.22188,184.13494   L 200.11887,173.74538   L 210.26867,197.48152   L 197.8012,197.56144   C 199.91907,200.71827 201.75723,200.63835 201.75723,206.27269   L 236.16265,206.27269   L 236.16265,205.07389   C 236.16265,200.19879 242.23654,194.80421 247.63112,194.80421   L 248.82992,194.80421   C 254.94377,194.80421 259.89879,199.95903 259.89879,206.27269   L 266.21245,206.27269   L 266.21245,198.76024   L 263.45522,198.76024   L 263.45522,180.93815   C 263.45522,177.98112 249.62911,164.59458 248.82992,161.59759   L 233.40542,161.59759   L 233.40542,197.56144   L 223.49538,197.56144   L 210.70823,168.7504   L 223.81506,163.31586   L 213.54538,140.53875   z "
     style="fill:#000000;fill-rule:evenodd;fill-opacity:1;stroke:none;" />
  <path
     id="path15"
     d="  M 239.31947,207.83112   C 239.31947,213.8251 243.11566,214.42449 246.43233,216.54237   L 191.88715,216.54237   C 194.60441,214.82409 198.6004,213.66526 198.6004,208.63032   L 198.6004,205.87309   C 198.6004,202.71626 194.08494,199.15984 189.88915,199.15984   C 187.4516,199.15984 185.53353,200.11887 184.25482,201.39759   C 183.45562,202.19678 181.57751,205.15381 181.57751,206.27269   L 181.57751,209.42952   C 181.57751,209.94899 183.61546,213.58534 184.05502,214.06486   C 185.49357,215.70321 186.81225,215.58333 188.33072,216.54237   L 167.7514,216.54237   C 169.11004,215.58333 170.74839,215.34357 171.94719,214.0249   C 172.8263,213.0259 173.34578,210.66827 174.46466,210.22871   L 174.46466,206.27269   C 174.46466,205.31365 172.4267,201.91707 171.58755,201.23775   C 170.06907,199.91907 168.47068,199.15984 165.75341,199.15984   L 165.39377,199.15984   C 161.35783,199.15984 157.08213,202.63634 157.08213,206.67229   L 157.08213,209.82911   C 157.08213,213.4255 161.83735,215.18373 163.79538,216.54237   L 142.81646,216.54237   C 142.65662,208.79016 136.78253,212.10682 135.30401,209.46947   C 132.66666,204.79417 137.50181,204.19478 128.51084,201.99699   C 121.03835,200.19879 123.6757,201.27771 119.2002,196.68233   C 117.68173,195.08393 112.08735,192.40662 109.21024,192.40662   L 108.81064,192.40662   C 106.41305,192.40662 104.25522,195.16385 102.21727,196.12289   C 99.539958,197.4016 96.78273,196.92209 94.505019,198.68032   C 91.947589,200.59839 89.070481,209.10984 89.070481,213.38554   L 89.070481,214.98393   L 88.271284,214.98393   L 88.271284,220.09879   L 261.05763,220.09879   L 272.9257,220.09879   L 272.9257,216.54237   L 249.98875,216.54237   C 251.86686,215.34357 252.2265,216.14277 254.26445,214.06486   C 255.14357,213.18574 256.30241,210.54839 257.14156,210.22871   L 257.14156,206.27269   C 257.14156,205.15381 254.90381,201.75723 253.98474,201.11787   C 252.4263,199.99899 250.70803,199.15984 248.03072,199.15984   C 243.39538,199.15984 239.31947,202.79618 239.31947,207.47148   z "
     style="fill:#000000;fill-rule:evenodd;fill-opacity:1;stroke:none;" />
</svg>
