<?xml version="1.0" encoding="UTF-8" standalone="no"?>
<svg
   xmlns:dc="http://purl.org/dc/elements/1.1/"
   xmlns:cc="http://creativecommons.org/ns#"
   xmlns:rdf="http://www.w3.org/1999/02/22-rdf-syntax-ns#"
   xmlns:svg="http://www.w3.org/2000/svg"
   xmlns="http://www.w3.org/2000/svg"
   id="svg17"
   height="37.400002mm"
   width="47.709999mm"
   version="1.0">
  <metadata
     id="metadata21">
    <rdf:RDF>
      <cc:Work
         rdf:about="">
        <dc:format>image/svg+xml</dc:format>
        <dc:type
           rdf:resource="http://purl.org/dc/dcmitype/StillImage" />
      </cc:Work>
    </rdf:RDF>
  </metadata>
  <defs
     id="defs3">
    <pattern
       y="0"
       x="0"
       height="6"
       width="6"
       patternUnits="userSpaceOnUse"
       id="EMFhbasepattern" />
  </defs>
  <path
     id="path5"
     d="  M 109.41004,34.485341   C 109.21024,37.002811 108.81064,35.843975 108.81064,38.161646   C 108.81064,40.479317 110.72871,45.434337 113.04638,45.434337   L 113.64578,45.434337   C 121.15823,45.434337 121.07831,44.794979 125.19417,41.797991   C 122.59679,36.403413 123.99538,33.286546 114.88454,33.286546   C 112.24719,33.286546 111.56787,34.005823 109.41004,34.485341   z "
     style="fill:#000000;fill-rule:evenodd;fill-opacity:1;stroke:none;" />
  <path
     id="path7"
     d="  M 117.32209,67.292369   C 119.28012,67.292369 119.63976,65.574095 120.35903,64.255421   C 118.8006,61.058634 119.16024,58.181525 114.28514,58.181525   L 113.64578,58.181525   C 111.28815,58.181525 108.81064,59.5002 108.81064,61.817871   C 108.81064,63.456224 112.76667,67.292369 115.48393,67.292369   z "
     style="fill:#000000;fill-rule:evenodd;fill-opacity:1;stroke:none;" />
  <path
     id="path9"
     d="  M 137.34197,54.54518   C 132.06727,54.54518 120.55883,69.809838 127.7516,75.044577   C 131.74759,77.961645 134.10522,78.800802 140.41887,76.443172   C 145.17409,74.644979 147.05221,72.646987 147.05221,66.093573   C 147.05221,60.419276 142.13715,54.54518 137.34197,54.54518   z "
     style="fill:#000000;fill-rule:evenodd;fill-opacity:1;stroke:none;" />
  <path
     id="path11"
     d="  M 130.66867,94.025501   C 130.66867,102.73675 145.25401,100.65883 145.25401,92.187348   C 145.25401,82.197388 130.66867,87.631926 130.66867,94.025501   z "
     style="fill:#000000;fill-rule:evenodd;fill-opacity:1;stroke:none;" />
  <path
     id="path13"
     d="  M 107.33213,12.587349   L 94.624898,0.079919678   L 0.35963855,139.93936   L 134.30502,140.17911   L 134.30502,137.14217   C 134.30502,135.42389 131.78755,133.6257 130.66867,132.90642   C 130.66867,128.19116 129.35,129.11024 128.47088,125.99337   C 127.83152,123.83554 128.23112,119.51988 128.23112,117.08233   C 128.23112,110.44899 127.99136,106.69277 124.15522,103.5759   C 118.72068,99.14036 121.03835,99.979517 113.84558,96.263252   C 109.09036,93.785742 110.32911,91.188352 101.49799,90.988553   L 101.49799,87.352208   C 101.49799,82.876706 96.74277,78.640963 94.824697,75.803814   C 94.824697,70.369276 93.585942,64.53514 93.625902,59.42028   C 93.625902,55.704015 93.186344,54.744979 93.026505,51.508232   C 92.826705,47.392369 91.188352,47.911847 91.188352,44.834939   L 91.188352,44.235542   C 91.188352,37.042771 92.427107,33.526305 96.183332,29.81004   C 101.33815,24.73514 98.301203,24.495381 105.37409,20.419478   L 107.33213,12.587349   z "
     style="fill:#000000;fill-rule:evenodd;fill-opacity:1;stroke:none;" />
  <path
     id="path15"
     d="  M 160.43875,96.463051   C 153.9253,96.463051 145.49377,106.33313 150.08915,108.61084   C 147.61164,112.28715 141.57771,113.36606 141.57771,118.32108   C 141.57771,122.51687 147.93132,129.50984 149.88936,133.10622   C 152.48674,137.9014 157.44176,140.77851 164.6745,140.77851   L 168.91024,140.77851   C 175.42369,140.77851 179.85923,134.66466 179.85923,128.03132   L 179.85923,125.59377   C 179.85923,117.32209 177.34176,113.48594 174.82429,107.57189   C 172.34678,101.81767 170.70843,96.463051 162.83634,96.463051   z "
     style="fill:#000000;fill-rule:evenodd;fill-opacity:1;stroke:none;" />
</svg>
