<?xml version="1.0" encoding="UTF-8" standalone="no"?>
<svg
   xmlns:dc="http://purl.org/dc/elements/1.1/"
   xmlns:cc="http://creativecommons.org/ns#"
   xmlns:rdf="http://www.w3.org/1999/02/22-rdf-syntax-ns#"
   xmlns:svg="http://www.w3.org/2000/svg"
   xmlns="http://www.w3.org/2000/svg"
   id="svg13"
   height="89.669998mm"
   width="120.11mm"
   version="1.0">
  <metadata
     id="metadata17">
    <rdf:RDF>
      <cc:Work
         rdf:about="">
        <dc:format>image/svg+xml</dc:format>
        <dc:type
           rdf:resource="http://purl.org/dc/dcmitype/StillImage" />
      </cc:Work>
    </rdf:RDF>
  </metadata>
  <defs
     id="defs3">
    <pattern
       y="0"
       x="0"
       height="6"
       width="6"
       patternUnits="userSpaceOnUse"
       id="EMFhbasepattern" />
  </defs>
  <path
     id="path5"
     d="  M 54.345381,54.345381   L 54.345381,284.51405   L 399.59839,284.51405   L 399.59839,54.345381   L 54.345381,54.345381   z "
     style="fill:#80e0ff;fill-rule:evenodd;fill-opacity:1;stroke:none;" />
  <path
     id="path7"
     d="  M 54.345381,54.345381   L 399.59839,54.345381   L 399.59839,284.51405   L 54.345381,284.51405   z "
     style="fill:none;stroke:#000000;stroke-width:9.5903616px;stroke-linecap:butt;stroke-linejoin:miter;stroke-miterlimit:10;stroke-dasharray:none;stroke-opacity:1;" />
  <path
     id="path9"
     d="  M 195.12389,125.19417   L 195.12389,80.559035   L 200.99799,80.559035   L 200.99799,119.91948   L 222.9759,119.91948   L 222.9759,125.19417   z  M 228.01084,110.84859   L 233.60522,110.36907   C 233.84498,112.60683 234.48433,114.40502 235.44337,115.84357   C 236.40241,117.28213 237.88092,118.44096 239.91887,119.32008   C 241.95682,120.1992 244.23453,120.63875 246.752,120.63875   C 249.02972,120.63875 251.02771,120.31907 252.74598,119.63976   C 254.46425,118.96044 255.74297,118.04136 256.58212,116.88253   C 257.42128,115.72369 257.86084,114.44498 257.86084,113.08634   C 257.86084,111.68775 257.42128,110.44899 256.62208,109.41004   C 255.82289,108.37108 254.46425,107.49197 252.6261,106.77269   C 251.42731,106.29317 248.75,105.57389 244.67409,104.5749   C 240.55823,103.61586 237.68112,102.69679 236.04277,101.81767   C 233.9249,100.69879 232.3265,99.300199 231.28755,97.661846   C 230.24859,95.983533 229.72911,94.14538 229.72911,92.107428   C 229.72911,89.829718 230.36847,87.751806 231.64719,85.793774   C 232.9259,83.835742 234.80401,82.357228 237.24156,81.318272   C 239.67911,80.319276 242.43634,79.799798 245.43333,79.799798   C 248.75,79.799798 251.66706,80.319276 254.18453,81.398192   C 256.702,82.477107 258.66004,84.035541 260.01867,86.113453   C 261.37731,88.151404 262.09658,90.509035 262.21646,93.146384   L 256.54216,93.545983   C 256.22249,90.748794 255.22349,88.590963 253.46526,87.152408   C 251.70702,85.713854 249.10963,84.994577 245.67309,84.994577   C 242.11666,84.994577 239.47931,85.673894 237.88092,86.952609   C 236.24257,88.271284 235.40341,89.869677 235.40341,91.70783   C 235.40341,93.306224 236.00281,94.624898 237.16164,95.663854   C 238.28052,96.70281 241.23755,97.741766 246.03273,98.820681   C 250.86787,99.939557 254.14457,100.85863 255.94277,101.69779   C 258.54016,102.89658 260.45823,104.41506 261.69698,106.25321   C 262.93574,108.09136 263.53514,110.16928 263.53514,112.56687   C 263.53514,114.96446 262.85582,117.20221 261.49718,119.28012   C 260.13855,121.39799 258.18052,123.03634 255.62309,124.19518   C 253.10562,125.35401 250.22851,125.95341 247.03172,125.95341   C 242.99578,125.95341 239.63915,125.35401 236.88192,124.19518   C 234.16466,122.99638 232.00682,121.23815 230.44839,118.88052   C 228.92992,116.52289 228.09076,113.84558 228.01084,110.84859   z "
     style="fill:#000000;fill-rule:evenodd;fill-opacity:1;stroke:none;" />
  <path
     id="path11"
     d="  M 54.345381,187.6514   C 54.345381,190.52851 85.993573,198.2008 85.993573,169.42972   C 85.993573,140.65863 126.27309,140.65863 126.27309,169.42972   C 126.27309,198.2008 166.55261,198.2008 166.55261,169.42972   C 166.55261,140.65863 206.83213,140.65863 206.83213,169.42972   C 206.83213,198.2008 247.11164,198.2008 247.11164,169.42972   C 247.11164,140.65863 287.39116,140.65863 287.39116,169.42972   C 287.39116,198.2008 327.67068,198.2008 327.67068,169.42972   C 327.67068,140.65863 367.9502,140.65863 367.9502,169.42972   C 367.9502,198.2008 399.59839,190.52851 399.59839,187.6514  "
     style="fill:none;stroke:#000000;stroke-width:9.5903616px;stroke-linecap:butt;stroke-linejoin:miter;stroke-miterlimit:10;stroke-dasharray:none;stroke-opacity:1;" />
</svg>
