<?xml version="1.0" encoding="UTF-8" standalone="no"?>
<svg
   xmlns:dc="http://purl.org/dc/elements/1.1/"
   xmlns:cc="http://creativecommons.org/ns#"
   xmlns:rdf="http://www.w3.org/1999/02/22-rdf-syntax-ns#"
   xmlns:svg="http://www.w3.org/2000/svg"
   xmlns="http://www.w3.org/2000/svg"
   id="svg13"
   height="101.85mm"
   width="101.85mm"
   version="1.0">
  <metadata
     id="metadata17">
    <rdf:RDF>
      <cc:Work
         rdf:about="">
        <dc:format>image/svg+xml</dc:format>
        <dc:type
           rdf:resource="http://purl.org/dc/dcmitype/StillImage" />
      </cc:Work>
    </rdf:RDF>
  </metadata>
  <defs
     id="defs3">
    <pattern
       y="0"
       x="0"
       height="6"
       width="6"
       patternUnits="userSpaceOnUse"
       id="EMFhbasepattern" />
  </defs>
  <path
     id="path5"
     d="  M 330.54779,192.44658   C 330.54779,268.72992 268.72992,330.54779 192.44658,330.54779   C 116.20321,330.54779 54.345381,268.72992 54.345381,192.44658   C 54.345381,116.20321 116.20321,54.345381 192.44658,54.345381   C 268.72992,54.345381 330.54779,116.20321 330.54779,192.44658   z "
     style="fill:#80e0ff;fill-rule:evenodd;fill-opacity:1;stroke:none;" />
  <path
     id="path7"
     d="  M 330.54779,192.44658   C 330.54779,268.72992 268.72992,330.54779 192.44658,330.54779   C 116.20321,330.54779 54.345381,268.72992 54.345381,192.44658   C 54.345381,116.20321 116.20321,54.345381 192.44658,54.345381   C 268.72992,54.345381 330.54779,116.20321 330.54779,192.44658  "
     style="fill:none;stroke:#000000;stroke-width:9.5903616px;stroke-linecap:butt;stroke-linejoin:miter;stroke-miterlimit:10;stroke-dasharray:none;stroke-opacity:1;" />
  <path
     id="path9"
     d="  M 128.47088,227.69116   L 128.47088,131.58775   L 141.17811,131.58775   L 141.17811,216.34257   L 188.49056,216.34257   L 188.49056,227.69116   z  M 199.31968,196.80221   L 211.30763,195.76325   C 211.90703,200.59839 213.2257,204.51445 215.30361,207.59136   C 217.38152,210.70823 220.57831,213.18574 224.97389,215.06385   C 229.32951,216.98192 234.24457,217.94096 239.71907,217.94096   C 244.55421,217.94096 248.82992,217.22168 252.54618,215.78313   C 256.26245,214.34458 259.01967,212.34658 260.85783,209.82911   C 262.65602,207.31164 263.5751,204.59437 263.5751,201.59739   C 263.5751,198.6004 262.69598,195.96305 260.93775,193.7253   C 259.21947,191.44759 256.30241,189.56948 252.30642,188.051   C 249.70903,187.05201 243.99478,185.49357 235.16365,183.33574   C 226.37249,181.21787 220.17871,179.21988 216.62229,177.34176   C 212.0269,174.94417 208.63032,171.98715 206.35261,168.39076   C 204.11486,164.83433 202.99598,160.83835 202.99598,156.44277   C 202.99598,151.60763 204.35462,147.05221 207.11184,142.85642   C 209.86907,138.62068 213.90502,135.42389 219.17972,133.2261   C 224.49437,131.02831 230.36847,129.9494 236.84196,129.9494   C 243.95482,129.9494 250.22851,131.10823 255.66305,133.38594   C 261.09759,135.70361 265.29337,139.06024 268.21044,143.53574   C 271.16747,147.97128 272.7259,153.04618 272.9257,158.68052   L 260.73795,159.5996   C 260.09859,153.5257 257.86084,148.93032 254.10461,145.81345   C 250.30843,142.73654 244.75401,141.17811 237.36144,141.17811   C 229.64919,141.17811 224.05482,142.5767 220.53835,145.37389   C 217.02188,148.21104 215.26365,151.60763 215.26365,155.56365   C 215.26365,159.04016 216.50241,161.87731 218.97992,164.11506   C 221.45743,166.35281 227.851,168.63052 238.16064,170.94819   C 248.51024,173.30582 255.58313,175.34377 259.45923,177.10201   C 265.05361,179.65944 269.16947,182.93614 271.84678,186.89217   C 274.48413,190.84819 275.84277,195.40361 275.84277,200.55843   C 275.84277,205.67329 274.36425,210.50843 271.44718,215.02389   C 268.53012,219.53935 264.29437,223.05582 258.81988,225.57329   C 253.34538,228.09076 247.1516,229.32951 240.27851,229.32951   C 231.60723,229.32951 224.29458,228.09076 218.42048,225.53333   C 212.54638,223.01586 207.951,219.17972 204.59437,214.10482   C 201.23775,209.02992 199.47952,203.23574 199.31968,196.80221   z "
     style="fill:#000000;fill-rule:evenodd;fill-opacity:1;stroke:none;" />
  <path
     id="path11"
     d="  M 175.98313,289.18935   L 175.98313,244.55421   L 184.89417,244.55421   L 195.44357,276.16245   C 196.40261,279.07951 197.12188,281.27731 197.56144,282.75582   C 198.08092,281.11747 198.88012,278.75984 199.95903,275.60301   L 210.62831,244.55421   L 218.58032,244.55421   L 218.58032,289.18935   L 212.86606,289.18935   L 212.86606,251.8269   L 199.91907,289.18935   L 194.60441,289.18935   L 181.69739,251.18755   L 181.69739,289.18935   z "
     style="fill:#000000;fill-rule:evenodd;fill-opacity:1;stroke:none;" />
</svg>
