<?xml version="1.0" encoding="UTF-8" standalone="no"?>
<svg
   xmlns:dc="http://purl.org/dc/elements/1.1/"
   xmlns:cc="http://creativecommons.org/ns#"
   xmlns:rdf="http://www.w3.org/1999/02/22-rdf-syntax-ns#"
   xmlns:svg="http://www.w3.org/2000/svg"
   xmlns="http://www.w3.org/2000/svg"
   id="svg17"
   height="89.669998mm"
   width="120.11mm"
   version="1.0">
  <metadata
     id="metadata21">
    <rdf:RDF>
      <cc:Work
         rdf:about="">
        <dc:format>image/svg+xml</dc:format>
        <dc:type
           rdf:resource="http://purl.org/dc/dcmitype/StillImage" />
      </cc:Work>
    </rdf:RDF>
  </metadata>
  <defs
     id="defs3">
    <pattern
       y="0"
       x="0"
       height="6"
       width="6"
       patternUnits="userSpaceOnUse"
       id="EMFhbasepattern" />
  </defs>
  <path
     id="path5"
     d="  M 179.02008,15.983936   L 179.02008,54.345381   L 274.92369,54.345381   L 274.92369,15.983936   L 179.02008,15.983936   z "
     style="fill:#000000;fill-rule:evenodd;fill-opacity:1;stroke:none;" />
  <path
     id="path7"
     d="  M 54.345381,54.345381   L 54.345381,284.51405   L 399.59839,284.51405   L 399.59839,54.345381   L 54.345381,54.345381   z "
     style="fill:#80e0ff;fill-rule:evenodd;fill-opacity:1;stroke:none;" />
  <path
     id="path9"
     d="  M 54.345381,54.345381   L 399.59839,54.345381   L 399.59839,284.51405   L 54.345381,284.51405   z "
     style="fill:none;stroke:#000000;stroke-width:9.5903616px;stroke-linecap:butt;stroke-linejoin:miter;stroke-miterlimit:10;stroke-dasharray:none;stroke-opacity:1;" />
  <path
     id="path11"
     d="  M 282.99558,167.07209   L 302.3761,167.07209   C 301.29718,165.51365 292.38614,154.04518 291.30722,154.04518   L 282.99558,154.04518   z "
     style="fill:#ffffff;fill-rule:evenodd;fill-opacity:1;stroke:none;" />
  <path
     id="path13"
     d="  M 282.99558,154.04518   L 291.30722,154.04518   C 292.38614,154.04518 301.29718,165.51365 302.3761,167.07209   L 282.99558,167.07209   z  M 273.08554,111.32811   L 271.36727,108.2512   L 254.58413,117.40201   L 257.94076,125.83353   L 181.17791,160.79839   C 183.05602,161.83735 186.13293,171.10803 187.37168,173.30582   C 187.89116,174.2249 192.80622,185.41365 192.80622,185.65341   C 192.80622,186.81225 190.68835,186.17289 190.84819,187.2518   L 192.1269,194.72429   L 200.31867,194.76425   C 200.31867,188.93012 205.11385,183.29578 210.62831,183.29578   L 212.98594,183.29578   C 218.7002,183.29578 223.25562,188.8502 223.25562,194.76425   L 224.85401,194.76425   C 224.85401,189.05 226.29257,189.20984 228.41044,186.05301   L 223.25562,172.6265   L 246.15261,162.23695   L 256.30241,185.97309   L 243.83494,186.05301   C 245.95281,189.20984 247.79096,189.12992 247.79096,194.76425   L 282.19638,194.76425   L 282.19638,193.56546   C 282.19638,188.69036 288.27028,183.29578 293.66486,183.29578   L 294.86365,183.29578   C 300.97751,183.29578 305.93253,188.4506 305.93253,194.76425   L 312.24618,194.76425   L 312.24618,187.2518   L 309.48895,187.2518   L 309.48895,169.42972   C 309.48895,166.47269 295.66285,153.08614 294.86365,150.08915   L 279.43915,150.08915   L 279.43915,186.05301   L 269.52911,186.05301   L 256.74196,157.24197   L 269.84879,151.80743   L 259.57911,129.03032   z "
     style="fill:#000000;fill-rule:evenodd;fill-opacity:1;stroke:none;" />
  <path
     id="path15"
     d="  M 285.35321,196.32269   C 285.35321,202.31666 289.14939,202.91606 292.46606,205.03393   L 237.92088,205.03393   C 240.63815,203.31566 244.63413,202.15682 244.63413,197.12188   L 244.63413,194.36466   C 244.63413,191.20783 240.11867,187.6514 235.92289,187.6514   C 233.48534,187.6514 231.56727,188.61044 230.28855,189.88915   C 229.48935,190.68835 227.61124,193.64538 227.61124,194.76425   L 227.61124,197.92108   C 227.61124,198.44056 229.64919,202.0769 230.08875,202.55642   C 231.52731,204.19478 232.84598,204.0749 234.36445,205.03393   L 213.78514,205.03393   C 215.14377,204.0749 216.78213,203.83514 217.98092,202.51646   C 218.86004,201.51747 219.37951,199.15984 220.49839,198.72028   L 220.49839,194.76425   C 220.49839,193.80522 218.46044,190.40863 217.62128,189.72931   C 216.10281,188.41064 214.50441,187.6514 211.78715,187.6514   L 211.42751,187.6514   C 207.39156,187.6514 203.11586,191.12791 203.11586,195.16385   L 203.11586,198.32068   C 203.11586,201.91707 207.87108,203.6753 209.82911,205.03393   L 188.8502,205.03393   C 188.69036,197.28172 182.81626,200.59839 181.33775,197.96104   C 178.7004,193.28574 183.53554,192.68634 174.54458,190.48855   C 167.07209,188.69036 169.70944,189.76927 165.23393,185.17389   C 163.71546,183.5755 158.12108,180.89819 155.24397,180.89819   L 154.84438,180.89819   C 152.44678,180.89819 150.28895,183.65542 148.251,184.61446   C 145.57369,185.89317 142.81646,185.41365 140.53875,187.17188   C 137.98132,189.08996 135.10421,197.6014 135.10421,201.87711   L 135.10421,203.4755   L 134.30502,203.4755   L 134.30502,208.59036   L 307.09136,208.59036   L 318.95943,208.59036   L 318.95943,205.03393   L 296.02249,205.03393   C 297.9006,203.83514 298.26024,204.63433 300.29819,202.55642   C 301.1773,201.67731 302.33614,199.03996 303.1753,198.72028   L 303.1753,194.76425   C 303.1753,193.64538 300.93755,190.24879 300.01847,189.60944   C 298.46004,188.49056 296.74176,187.6514 294.06445,187.6514   C 289.42911,187.6514 285.35321,191.28775 285.35321,195.96305   z "
     style="fill:#000000;fill-rule:evenodd;fill-opacity:1;stroke:none;" />
</svg>
