<?xml version="1.0" encoding="UTF-8" standalone="no"?>
<svg
   xmlns:dc="http://purl.org/dc/elements/1.1/"
   xmlns:cc="http://creativecommons.org/ns#"
   xmlns:rdf="http://www.w3.org/1999/02/22-rdf-syntax-ns#"
   xmlns:svg="http://www.w3.org/2000/svg"
   xmlns="http://www.w3.org/2000/svg"
   id="svg13"
   height="116.73mm"
   width="116.73mm"
   version="1.0">
  <metadata
     id="metadata17">
    <rdf:RDF>
      <cc:Work
         rdf:about="">
        <dc:format>image/svg+xml</dc:format>
        <dc:type
           rdf:resource="http://purl.org/dc/dcmitype/StillImage" />
      </cc:Work>
    </rdf:RDF>
  </metadata>
  <defs
     id="defs3">
    <pattern
       y="0"
       x="0"
       height="6"
       width="6"
       patternUnits="userSpaceOnUse"
       id="EMFhbasepattern" />
  </defs>
  <path
     id="path5"
     d="  M 220.57831,386.49156   L 220.57831,386.49156   L 386.49156,220.57831   L 220.57831,54.665059   L 54.665059,220.57831   L 220.57831,386.49156   z "
     style="fill:#ff8080;fill-rule:evenodd;fill-opacity:1;stroke:none;" />
  <path
     id="path7"
     d="  M 220.57831,386.49156   L 220.57831,386.49156   L 386.49156,220.57831   L 220.57831,54.665059   L 54.665059,220.57831   L 220.57831,386.49156  "
     style="fill:none;stroke:#000000;stroke-width:9.5903616px;stroke-linecap:butt;stroke-linejoin:miter;stroke-miterlimit:10;stroke-dasharray:none;stroke-opacity:1;" />
  <path
     id="path9"
     d="  M 120.83855,153.44578   L 120.83855,153.44578   L 220.57831,239.75903   L 220.57831,201.39759   L 320.31807,287.71084  "
     style="fill:none;stroke:#000000;stroke-width:9.5903616px;stroke-linecap:butt;stroke-linejoin:miter;stroke-miterlimit:10;stroke-dasharray:none;stroke-opacity:1;" />
  <path
     id="path11"
     d="  M 201.79719,175.98313   L 201.79719,140.29899   L 206.51245,140.29899   L 206.51245,171.74739   L 224.09478,171.74739   L 224.09478,175.98313   L 201.79719,175.98313  z    M 229.84899,175.98313   L 229.84899,140.29899   L 255.66305,140.29899   L 255.66305,144.49478   L 234.56425,144.49478   L 234.56425,155.44377   L 254.30441,155.44377   L 254.30441,159.5996   L 234.56425,159.5996   L 234.56425,171.74739   L 256.46225,171.74739   L 256.46225,175.98313   L 229.84899,175.98313  z    M 262.93574,175.98313   L 262.93574,140.29899   L 267.81084,140.29899   L 286.552,168.31084   L 286.552,140.29899   L 291.06747,140.29899   L 291.06747,175.98313   L 286.23233,175.98313   L 267.49116,147.93132   L 267.49116,175.98313   L 262.93574,175.98313  z   "
     style="fill:#000000;fill-rule:evenodd;fill-opacity:1;stroke:none;" />
</svg>
