<?xml version="1.0" encoding="UTF-8" standalone="no"?>
<svg
   xmlns:dc="http://purl.org/dc/elements/1.1/"
   xmlns:cc="http://creativecommons.org/ns#"
   xmlns:rdf="http://www.w3.org/1999/02/22-rdf-syntax-ns#"
   xmlns:svg="http://www.w3.org/2000/svg"
   xmlns="http://www.w3.org/2000/svg"
   id="svg15"
   height="116.73mm"
   width="116.73mm"
   version="1.0">
  <metadata
     id="metadata19">
    <rdf:RDF>
      <cc:Work
         rdf:about="">
        <dc:format>image/svg+xml</dc:format>
        <dc:type
           rdf:resource="http://purl.org/dc/dcmitype/StillImage" />
      </cc:Work>
    </rdf:RDF>
  </metadata>
  <defs
     id="defs3">
    <pattern
       y="0"
       x="0"
       height="6"
       width="6"
       patternUnits="userSpaceOnUse"
       id="EMFhbasepattern" />
  </defs>
  <path
     id="path5"
     d="  M 220.57831,386.49156   L 220.57831,386.49156   L 386.49156,220.57831   L 220.57831,54.665059   L 54.665059,220.57831   L 220.57831,386.49156   z "
     style="fill:#ff8080;fill-rule:evenodd;fill-opacity:1;stroke:none;" />
  <path
     id="path7"
     d="  M 220.57831,386.49156   L 220.57831,386.49156   L 386.49156,220.57831   L 220.57831,54.665059   L 54.665059,220.57831   L 220.57831,386.49156  "
     style="fill:none;stroke:#000000;stroke-width:9.5903616px;stroke-linecap:butt;stroke-linejoin:miter;stroke-miterlimit:10;stroke-dasharray:none;stroke-opacity:1;" />
  <path
     id="path9"
     d="  M 120.83855,153.44578   L 120.83855,153.44578   L 220.57831,239.75903   L 220.57831,201.39759   L 320.31807,287.71084  "
     style="fill:none;stroke:#000000;stroke-width:9.5903616px;stroke-linecap:butt;stroke-linejoin:miter;stroke-miterlimit:10;stroke-dasharray:none;stroke-opacity:1;" />
  <path
     id="path11"
     d="  M 192.04699,177.22188   L 192.04699,146.01325   L 196.16285,146.01325   L 196.16285,173.54558   L 211.54739,173.54558   L 211.54739,177.22188   z  M 238.76004,166.27289   L 242.91586,167.31184   C 242.03674,170.70843 240.47831,173.30582 238.24056,175.10401   C 235.96285,176.86225 233.24558,177.78132 229.96887,177.78132   C 226.61225,177.78132 223.85502,177.10201 221.77711,175.70341   C 219.65923,174.34478 218.06084,172.34678 216.94196,169.7494   C 215.86305,167.15201 215.30361,164.35482 215.30361,161.39779   C 215.30361,158.12108 215.90301,155.28393 217.14176,152.88634   C 218.42048,150.44879 220.17871,148.61064 222.45642,147.37189   C 224.77409,146.09317 227.29156,145.45381 230.04879,145.45381   C 233.16566,145.45381 235.80301,146.25301 237.92088,147.8514   C 240.03875,149.4498 241.55723,151.68755 242.35642,154.56466   L 238.32048,155.52369   C 237.6012,153.24598 236.52229,151.60763 235.16365,150.56867   C 233.76506,149.52972 232.04678,149.01024 229.96887,149.01024   C 227.57128,149.01024 225.53333,149.56968 223.93494,150.72851   C 222.33654,151.88735 221.17771,153.44578 220.53835,155.36385   C 219.89899,157.32189 219.53935,159.31988 219.53935,161.35783   C 219.53935,164.03514 219.93895,166.35281 220.69819,168.31084   C 221.49739,170.30883 222.69618,171.78735 224.33453,172.74638   C 225.97289,173.74538 227.73112,174.2249 229.64919,174.2249   C 231.96686,174.2249 233.9249,173.58554 235.52329,172.22691   C 237.12168,170.90823 238.2006,168.91024 238.76004,166.27289   z  M 270.28835,166.27289   L 274.40421,167.31184   C 273.56506,170.70843 272.00662,173.30582 269.72891,175.10401   C 267.49116,176.86225 264.73393,177.78132 261.49718,177.78132   C 258.14056,177.78132 255.38333,177.10201 253.26546,175.70341   C 251.14759,174.34478 249.54919,172.34678 248.47028,169.7494   C 247.3514,167.15201 246.79196,164.35482 246.79196,161.39779   C 246.79196,158.12108 247.43132,155.28393 248.67008,152.88634   C 249.90883,150.44879 251.66706,148.61064 253.98474,147.37189   C 256.26245,146.09317 258.77992,145.45381 261.53714,145.45381   C 264.69397,145.45381 267.29136,146.25301 269.44919,147.8514   C 271.56706,149.4498 273.04558,151.68755 273.88473,154.56466   L 269.80883,155.52369   C 269.08955,153.24598 268.0506,151.60763 266.652,150.56867   C 265.29337,149.52972 263.53514,149.01024 261.45723,149.01024   C 259.05963,149.01024 257.06164,149.56968 255.46325,150.72851   C 253.8249,151.88735 252.70602,153.44578 252.06666,155.36385   C 251.38735,157.32189 251.06767,159.31988 251.06767,161.35783   C 251.06767,164.03514 251.46727,166.35281 252.2265,168.31084   C 252.98574,170.30883 254.22449,171.78735 255.82289,172.74638   C 257.46124,173.74538 259.25943,174.2249 261.13755,174.2249   C 263.45522,174.2249 265.41325,173.58554 267.01164,172.22691   C 268.65,170.90823 269.72891,168.91024 270.28835,166.27289   z  M 279.51907,177.22188   L 279.51907,146.01325   L 291.30722,146.01325   C 293.38514,146.01325 294.94357,146.09317 296.06245,146.29297   C 297.58092,146.57269 298.85963,147.05221 299.89859,147.77148   C 300.93755,148.49076 301.7767,149.48976 302.41606,150.76847   C 303.05542,152.08715 303.3751,153.48574 303.3751,155.04417   C 303.3751,157.68152 302.49598,159.95923 300.81767,161.79739   C 299.13935,163.63554 296.06245,164.55462 291.66686,164.55462   L 283.63494,164.55462   L 283.63494,177.22188   z  M 283.63494,160.83835   L 291.70682,160.83835   C 294.38413,160.83835 296.3022,160.35883 297.42108,159.35984   C 298.53996,158.36084 299.09939,156.96225 299.09939,155.16405   C 299.09939,153.84538 298.77971,152.7265 298.1004,151.80743   C 297.46104,150.88835 296.58192,150.24899 295.50301,149.96927   C 294.78373,149.76948 293.50502,149.68956 291.6269,149.68956   L 283.63494,149.68956   z "
     style="fill:#000000;fill-rule:evenodd;fill-opacity:1;stroke:none;" />
  <path
     id="path13"
     d="  M 159.2,303.05542   C 159.2,272.36626 220.57831,272.36626 220.57831,303.05542   C 220.57831,272.36626 281.95662,272.36626 281.95662,303.05542  "
     style="fill:none;stroke:#000000;stroke-width:7.6722889px;stroke-linecap:butt;stroke-linejoin:miter;stroke-miterlimit:10;stroke-dasharray:none;stroke-opacity:1;" />
</svg>
