<?xml version="1.0" encoding="UTF-8" standalone="no"?>
<svg
   xmlns:dc="http://purl.org/dc/elements/1.1/"
   xmlns:cc="http://creativecommons.org/ns#"
   xmlns:rdf="http://www.w3.org/1999/02/22-rdf-syntax-ns#"
   xmlns:svg="http://www.w3.org/2000/svg"
   xmlns="http://www.w3.org/2000/svg"
   id="svg15"
   height="95.75mm"
   width="95.75mm"
   version="1.0">
  <metadata
     id="metadata19">
    <rdf:RDF>
      <cc:Work
         rdf:about="">
        <dc:format>image/svg+xml</dc:format>
        <dc:type
           rdf:resource="http://purl.org/dc/dcmitype/StillImage" />
      </cc:Work>
    </rdf:RDF>
  </metadata>
  <defs
     id="defs3">
    <pattern
       y="0"
       x="0"
       height="6"
       width="6"
       patternUnits="userSpaceOnUse"
       id="EMFhbasepattern" />
  </defs>
  <path
     id="path5"
     d="  M 54.345381,54.345381   L 54.345381,307.53092   L 307.53092,307.53092   L 307.53092,54.345381   L 54.345381,54.345381   z "
     style="fill:#aaffaa;fill-rule:evenodd;fill-opacity:1;stroke:none;" />
  <path
     id="path7"
     d="  M 54.345381,54.345381   L 307.53092,54.345381   L 307.53092,307.53092   L 54.345381,307.53092   z "
     style="fill:none;stroke:#000000;stroke-width:9.5903616px;stroke-linecap:butt;stroke-linejoin:miter;stroke-miterlimit:10;stroke-dasharray:none;stroke-opacity:1;" />
  <path
     id="path9"
     d="  M 54.345381,54.345381   L 54.345381,54.345381   L 180.93815,200.11887   L 180.93815,161.75743   L 307.53092,307.53092  "
     style="fill:none;stroke:#000000;stroke-width:9.5903616px;stroke-linecap:butt;stroke-linejoin:miter;stroke-miterlimit:10;stroke-dasharray:none;stroke-opacity:1;" />
  <path
     id="path11"
     d="  M 152.40683,137.58172   L 152.40683,106.37309   L 156.52269,106.37309   L 156.52269,133.90542   L 171.90723,133.90542   L 171.90723,137.58172   z  M 199.11988,126.63273   L 203.2757,127.67168   C 202.39658,131.06827 200.83815,133.66566 198.6004,135.46385   C 196.32269,137.22209 193.60542,138.14116 190.32871,138.14116   C 186.97209,138.14116 184.21486,137.46185 182.13695,136.06325   C 180.01907,134.70462 178.42068,132.70662 177.3018,130.10924   C 176.22289,127.51185 175.66345,124.71466 175.66345,121.75763   C 175.66345,118.48092 176.26285,115.64377 177.5016,113.24618   C 178.78032,110.80863 180.53855,108.97048 182.81626,107.73173   C 185.13393,106.45301 187.6514,105.81365 190.40863,105.81365   C 193.5255,105.81365 196.16285,106.61285 198.28072,108.21124   C 200.39859,109.80964 201.91707,112.04739 202.71626,114.9245   L 198.68032,115.88353   C 197.96104,113.60582 196.88213,111.96747 195.52349,110.92851   C 194.1249,109.88956 192.40662,109.37008 190.32871,109.37008   C 187.93112,109.37008 185.89317,109.92952 184.29478,111.08835   C 182.69638,112.24719 181.53755,113.80562 180.89819,115.72369   C 180.25883,117.68173 179.89919,119.67972 179.89919,121.71767   C 179.89919,124.39498 180.29879,126.71265 181.05803,128.67068   C 181.85723,130.66867 183.05602,132.14719 184.69437,133.10622   C 186.33273,134.10522 188.09096,134.58474 190.00903,134.58474   C 192.3267,134.58474 194.28474,133.94538 195.88313,132.58675   C 197.48152,131.26807 198.56044,129.27008 199.11988,126.63273   z  M 230.64819,126.63273   L 234.76405,127.67168   C 233.9249,131.06827 232.36646,133.66566 230.08875,135.46385   C 227.851,137.22209 225.09377,138.14116 221.85702,138.14116   C 218.5004,138.14116 215.74317,137.46185 213.6253,136.06325   C 211.50743,134.70462 209.90903,132.70662 208.83012,130.10924   C 207.71124,127.51185 207.1518,124.71466 207.1518,121.75763   C 207.1518,118.48092 207.79116,115.64377 209.02992,113.24618   C 210.26867,110.80863 212.0269,108.97048 214.34458,107.73173   C 216.62229,106.45301 219.13976,105.81365 221.89698,105.81365   C 225.05381,105.81365 227.6512,106.61285 229.80903,108.21124   C 231.9269,109.80964 233.40542,112.04739 234.24457,114.9245   L 230.16867,115.88353   C 229.44939,113.60582 228.41044,111.96747 227.01184,110.92851   C 225.65321,109.88956 223.89498,109.37008 221.81707,109.37008   C 219.41947,109.37008 217.42148,109.92952 215.82309,111.08835   C 214.18474,112.24719 213.06586,113.80562 212.4265,115.72369   C 211.74719,117.68173 211.42751,119.67972 211.42751,121.71767   C 211.42751,124.39498 211.82711,126.71265 212.58634,128.67068   C 213.34558,130.66867 214.58433,132.14719 216.18273,133.10622   C 217.82108,134.10522 219.61927,134.58474 221.49739,134.58474   C 223.81506,134.58474 225.77309,133.94538 227.37148,132.58675   C 229.00984,131.26807 230.08875,129.27008 230.64819,126.63273   z  M 239.87891,137.58172   L 239.87891,106.37309   L 251.66706,106.37309   C 253.74498,106.37309 255.30341,106.45301 256.42229,106.65281   C 257.94076,106.93253 259.21947,107.41205 260.25843,108.13132   C 261.29739,108.8506 262.13654,109.8496 262.7759,111.12831   C 263.41526,112.44699 263.73494,113.84558 263.73494,115.40401   C 263.73494,118.04136 262.85582,120.31907 261.17751,122.15723   C 259.49919,123.99538 256.42229,124.91446 252.0267,124.91446   L 243.99478,124.91446   L 243.99478,137.58172   z  M 243.99478,121.19819   L 252.06666,121.19819   C 254.74397,121.19819 256.66204,120.71867 257.78092,119.71968   C 258.8998,118.72068 259.45923,117.32209 259.45923,115.52389   C 259.45923,114.20522 259.13955,113.08634 258.46024,112.16727   C 257.82088,111.24819 256.94176,110.60883 255.86285,110.32911   C 255.14357,110.12932 253.86486,110.0494 251.98674,110.0494   L 243.99478,110.0494   z "
     style="fill:#000000;fill-rule:evenodd;fill-opacity:1;stroke:none;" />
  <path
     id="path13"
     d="  M 119.55984,263.41526   C 119.55984,232.7261 180.93815,232.7261 180.93815,263.41526   C 180.93815,232.7261 242.31646,232.7261 242.31646,263.41526  "
     style="fill:none;stroke:#000000;stroke-width:7.6722889px;stroke-linecap:butt;stroke-linejoin:miter;stroke-miterlimit:10;stroke-dasharray:none;stroke-opacity:1;" />
</svg>
