<?xml version="1.0" encoding="UTF-8" standalone="no"?>
<svg
   xmlns:dc="http://purl.org/dc/elements/1.1/"
   xmlns:cc="http://creativecommons.org/ns#"
   xmlns:rdf="http://www.w3.org/1999/02/22-rdf-syntax-ns#"
   xmlns:svg="http://www.w3.org/2000/svg"
   xmlns="http://www.w3.org/2000/svg"
   id="svg9"
   height="63.110001mm"
   width="31.809999mm"
   version="1.0">
  <metadata
     id="metadata13">
    <rdf:RDF>
      <cc:Work
         rdf:about="">
        <dc:format>image/svg+xml</dc:format>
        <dc:type
           rdf:resource="http://purl.org/dc/dcmitype/StillImage" />
      </cc:Work>
    </rdf:RDF>
  </metadata>
  <defs
     id="defs3">
    <pattern
       y="0"
       x="0"
       height="6"
       width="6"
       patternUnits="userSpaceOnUse"
       id="EMFhbasepattern" />
  </defs>
  <path
     id="path5"
     d="  M 68.690963,169.46968   C 65.014658,168.7504 61.338353,168.19096 57.662047,167.71144   L 57.662047,130.86847   C 54.904818,130.42891 47.432329,129.38996 35.204618,127.79156   L 32.767068,122.95642   L 66.613051,116.04337   L 33.766064,109.8496   L 33.806024,104.45502   L 68.690963,96.862649   C 65.454216,96.383131 61.777911,95.943573 57.662047,95.464055   L 57.662047,38.840963   C 53.066666,41.598192 46.952811,45.394377 39.360441,50.229517   L 30.689156,48.151606   L 60.379316,30.689156   L 89.390159,48.151606   L 81.038553,50.589156   L 61.85783,38.521285   L 61.85783,89.829718   L 86.433131,93.945581   L 86.433131,99.14036   L 51.348393,106.17329   L 86.433131,113.44598   L 86.433131,118.6008   L 53.506224,124.43494   C 55.823895,124.6747 58.621083,124.99438 61.85783,125.43393   L 61.85783,162.19699   L 86.513051,166.59257   L 86.433131,172.10703   L 52.826907,178.62048   L 86.433131,185.01405   L 86.433131,190.08895   L 52.10763,197.32168   L 84.914657,203.43554   L 84.555019,207.5514   L 33.806024,199.75923   L 33.806024,194.44458   L 68.611043,187.73132   L 33.806024,181.09799   L 33.845983,176.18293   z "
     style="fill:#aaffaa;fill-rule:evenodd;fill-opacity:1;stroke:none;" />
  <path
     id="path7"
     d="  M 68.690963,169.46968   C 65.014658,168.7504 61.338353,168.19096 57.662047,167.71144   L 57.662047,130.86847   C 54.904818,130.42891 47.432329,129.38996 35.204618,127.79156   L 32.767068,122.95642   L 66.613051,116.04337   L 33.766064,109.8496   L 33.806024,104.45502   L 68.690963,96.862649   C 65.454216,96.383131 61.777911,95.943573 57.662047,95.464055   L 57.662047,38.840963   C 53.066666,41.598192 46.952811,45.394377 39.360441,50.229517   L 30.689156,48.151606   L 60.379316,30.689156   L 89.390159,48.151606   L 81.038553,50.589156   L 61.85783,38.521285   L 61.85783,89.829718   L 86.433131,93.945581   L 86.433131,99.14036   L 51.348393,106.17329   L 86.433131,113.44598   L 86.433131,118.6008   L 53.506224,124.43494   C 55.823895,124.6747 58.621083,124.99438 61.85783,125.43393   L 61.85783,162.19699   L 86.513051,166.59257   L 86.433131,172.10703   L 52.826907,178.62048   L 86.433131,185.01405   L 86.433131,190.08895   L 52.10763,197.32168   L 84.914657,203.43554   L 84.555019,207.5514   L 33.806024,199.75923   L 33.806024,194.44458   L 68.611043,187.73132   L 33.806024,181.09799   L 33.845983,176.18293   z "
     style="fill:none;stroke:#aaffaa;stroke-width:4.7951808px;stroke-linecap:butt;stroke-linejoin:miter;stroke-miterlimit:10;stroke-dasharray:none;stroke-opacity:1;" />
</svg>
