<?xml version="1.0" encoding="UTF-8" standalone="no"?>
<svg
   xmlns:dc="http://purl.org/dc/elements/1.1/"
   xmlns:cc="http://creativecommons.org/ns#"
   xmlns:rdf="http://www.w3.org/1999/02/22-rdf-syntax-ns#"
   xmlns:svg="http://www.w3.org/2000/svg"
   xmlns="http://www.w3.org/2000/svg"
   id="svg39"
   height="95.75mm"
   width="95.75mm"
   version="1.0">
  <metadata
     id="metadata43">
    <rdf:RDF>
      <cc:Work
         rdf:about="">
        <dc:format>image/svg+xml</dc:format>
        <dc:type
           rdf:resource="http://purl.org/dc/dcmitype/StillImage" />
      </cc:Work>
    </rdf:RDF>
  </metadata>
  <defs
     id="defs3">
    <pattern
       y="0"
       x="0"
       height="6"
       width="6"
       patternUnits="userSpaceOnUse"
       id="EMFhbasepattern" />
  </defs>
  <path
     id="path5"
     d="  M 132.98634,15.983936   L 132.98634,54.345381   L 228.88996,54.345381   L 228.88996,15.983936   L 132.98634,15.983936   z "
     style="fill:#000000;fill-rule:evenodd;fill-opacity:1;stroke:none;" />
  <path
     id="path7"
     d="  M 54.345381,54.345381   L 54.345381,307.53092   L 307.53092,307.53092   L 307.53092,54.345381   L 54.345381,54.345381   z "
     style="fill:#aaffaa;fill-rule:evenodd;fill-opacity:1;stroke:none;" />
  <path
     id="path9"
     d="  M 54.345381,54.345381   L 307.53092,54.345381   L 307.53092,307.53092   L 54.345381,307.53092   z "
     style="fill:none;stroke:#000000;stroke-width:9.5903616px;stroke-linecap:butt;stroke-linejoin:miter;stroke-miterlimit:10;stroke-dasharray:none;stroke-opacity:1;" />
  <path
     id="path11"
     d="  M 180.45863,85.034537   L 180.45863,85.034537   L 208.1508,132.54679   L 263.13554,132.74658   L 235.84297,180.45863   L 263.13554,228.17068   L 208.1508,228.41044   L 180.45863,275.88273   L 152.80642,228.41044   L 97.821685,228.17068   L 125.11426,180.45863   L 97.821685,132.74658   L 152.80642,132.54679   z "
     style="fill:#000000;fill-rule:evenodd;fill-opacity:1;stroke:none;" />
  <path
     id="path13"
     d="  M 180.45863,85.034537   L 180.45863,85.034537   L 208.1508,132.54679   L 263.13554,132.74658   L 235.84297,180.45863   L 263.13554,228.17068   L 208.1508,228.41044   L 180.45863,275.88273   L 152.80642,228.41044   L 97.821685,228.17068   L 125.11426,180.45863   L 97.821685,132.74658   L 152.80642,132.54679   z "
     style="fill:none;stroke:#000000;stroke-width:0.95903611px;stroke-linecap:butt;stroke-linejoin:miter;stroke-miterlimit:10;stroke-dasharray:none;stroke-opacity:1;" />
  <path
     id="path15"
     d="  M 191.48755,84.075501   C 191.48755,90.469075 186.37269,95.583934 179.97911,95.583934   C 173.6255,95.583934 168.47068,90.469075 168.47068,84.075501   C 168.47068,77.721886 173.6255,72.567067 179.97911,72.567067   C 186.37269,72.567067 191.48755,77.721886 191.48755,84.075501   z "
     style="fill:#000000;fill-rule:evenodd;fill-opacity:1;stroke:none;" />
  <path
     id="path17"
     d="  M 191.48755,84.075501   C 191.48755,90.469075 186.37269,95.583934 179.97911,95.583934   C 173.6255,95.583934 168.47068,90.469075 168.47068,84.075501   C 168.47068,77.721886 173.6255,72.567067 179.97911,72.567067   C 186.37269,72.567067 191.48755,77.721886 191.48755,84.075501  "
     style="fill:none;stroke:#000000;stroke-width:0.95903611px;stroke-linecap:butt;stroke-linejoin:miter;stroke-miterlimit:10;stroke-dasharray:none;stroke-opacity:1;" />
  <path
     id="path19"
     d="  M 191.48755,275.88273   C 191.48755,282.2763 186.37269,287.39116 179.97911,287.39116   C 173.6255,287.39116 168.47068,282.2763 168.47068,275.88273   C 168.47068,269.52911 173.6255,264.37429 179.97911,264.37429   C 186.37269,264.37429 191.48755,269.52911 191.48755,275.88273   z "
     style="fill:#000000;fill-rule:evenodd;fill-opacity:1;stroke:none;" />
  <path
     id="path21"
     d="  M 191.48755,275.88273   C 191.48755,282.2763 186.37269,287.39116 179.97911,287.39116   C 173.6255,287.39116 168.47068,282.2763 168.47068,275.88273   C 168.47068,269.52911 173.6255,264.37429 179.97911,264.37429   C 186.37269,264.37429 191.48755,269.52911 191.48755,275.88273  "
     style="fill:none;stroke:#000000;stroke-width:0.95903611px;stroke-linecap:butt;stroke-linejoin:miter;stroke-miterlimit:10;stroke-dasharray:none;stroke-opacity:1;" />
  <path
     id="path23"
     d="  M 110.92851,132.98634   C 110.92851,139.37992 105.81365,144.49478 99.420079,144.49478   C 93.066465,144.49478 87.911645,139.37992 87.911645,132.98634   C 87.911645,126.63273 93.066465,121.47791 99.420079,121.47791   C 105.81365,121.47791 110.92851,126.63273 110.92851,132.98634   z "
     style="fill:#000000;fill-rule:evenodd;fill-opacity:1;stroke:none;" />
  <path
     id="path25"
     d="  M 110.92851,132.98634   C 110.92851,139.37992 105.81365,144.49478 99.420079,144.49478   C 93.066465,144.49478 87.911645,139.37992 87.911645,132.98634   C 87.911645,126.63273 93.066465,121.47791 99.420079,121.47791   C 105.81365,121.47791 110.92851,126.63273 110.92851,132.98634  "
     style="fill:none;stroke:#000000;stroke-width:0.95903611px;stroke-linecap:butt;stroke-linejoin:miter;stroke-miterlimit:10;stroke-dasharray:none;stroke-opacity:1;" />
  <path
     id="path27"
     d="  M 273.96465,132.02731   C 273.96465,138.42088 268.8498,143.53574 262.45622,143.53574   C 256.10261,143.53574 250.94779,138.42088 250.94779,132.02731   C 250.94779,125.67369 256.10261,120.51887 262.45622,120.51887   C 268.8498,120.51887 273.96465,125.67369 273.96465,132.02731   z "
     style="fill:#000000;fill-rule:evenodd;fill-opacity:1;stroke:none;" />
  <path
     id="path29"
     d="  M 273.96465,132.02731   C 273.96465,138.42088 268.8498,143.53574 262.45622,143.53574   C 256.10261,143.53574 250.94779,138.42088 250.94779,132.02731   C 250.94779,125.67369 256.10261,120.51887 262.45622,120.51887   C 268.8498,120.51887 273.96465,125.67369 273.96465,132.02731  "
     style="fill:none;stroke:#000000;stroke-width:0.95903611px;stroke-linecap:butt;stroke-linejoin:miter;stroke-miterlimit:10;stroke-dasharray:none;stroke-opacity:1;" />
  <path
     id="path31"
     d="  M 273.96465,228.88996   C 273.96465,235.28353 268.8498,240.39839 262.45622,240.39839   C 256.10261,240.39839 250.94779,235.28353 250.94779,228.88996   C 250.94779,222.53634 256.10261,217.38152 262.45622,217.38152   C 268.8498,217.38152 273.96465,222.53634 273.96465,228.88996   z "
     style="fill:#000000;fill-rule:evenodd;fill-opacity:1;stroke:none;" />
  <path
     id="path33"
     d="  M 273.96465,228.88996   C 273.96465,235.28353 268.8498,240.39839 262.45622,240.39839   C 256.10261,240.39839 250.94779,235.28353 250.94779,228.88996   C 250.94779,222.53634 256.10261,217.38152 262.45622,217.38152   C 268.8498,217.38152 273.96465,222.53634 273.96465,228.88996  "
     style="fill:none;stroke:#000000;stroke-width:0.95903611px;stroke-linecap:butt;stroke-linejoin:miter;stroke-miterlimit:10;stroke-dasharray:none;stroke-opacity:1;" />
  <path
     id="path35"
     d="  M 110.92851,228.88996   C 110.92851,235.28353 105.81365,240.39839 99.420079,240.39839   C 93.066465,240.39839 87.911645,235.28353 87.911645,228.88996   C 87.911645,222.53634 93.066465,217.38152 99.420079,217.38152   C 105.81365,217.38152 110.92851,222.53634 110.92851,228.88996   z "
     style="fill:#000000;fill-rule:evenodd;fill-opacity:1;stroke:none;" />
  <path
     id="path37"
     d="  M 110.92851,228.88996   C 110.92851,235.28353 105.81365,240.39839 99.420079,240.39839   C 93.066465,240.39839 87.911645,235.28353 87.911645,228.88996   C 87.911645,222.53634 93.066465,217.38152 99.420079,217.38152   C 105.81365,217.38152 110.92851,222.53634 110.92851,228.88996  "
     style="fill:none;stroke:#000000;stroke-width:0.95903611px;stroke-linecap:butt;stroke-linejoin:miter;stroke-miterlimit:10;stroke-dasharray:none;stroke-opacity:1;" />
</svg>
