<?xml version="1.0" encoding="UTF-8" standalone="no"?>
<svg
   xmlns:dc="http://purl.org/dc/elements/1.1/"
   xmlns:cc="http://creativecommons.org/ns#"
   xmlns:rdf="http://www.w3.org/1999/02/22-rdf-syntax-ns#"
   xmlns:svg="http://www.w3.org/2000/svg"
   xmlns="http://www.w3.org/2000/svg"
   id="svg17"
   height="116.73mm"
   width="116.73mm"
   version="1.0">
  <metadata
     id="metadata21">
    <rdf:RDF>
      <cc:Work
         rdf:about="">
        <dc:format>image/svg+xml</dc:format>
        <dc:type
           rdf:resource="http://purl.org/dc/dcmitype/StillImage" />
      </cc:Work>
    </rdf:RDF>
  </metadata>
  <defs
     id="defs3">
    <pattern
       y="0"
       x="0"
       height="6"
       width="6"
       patternUnits="userSpaceOnUse"
       id="EMFhbasepattern" />
  </defs>
  <path
     id="path5"
     d="  M 220.57831,386.49156   L 220.57831,386.49156   L 386.49156,220.57831   L 220.57831,54.665059   L 54.665059,220.57831   L 220.57831,386.49156   z "
     style="fill:#ff8080;fill-rule:evenodd;fill-opacity:1;stroke:none;" />
  <path
     id="path7"
     d="  M 220.57831,386.49156   L 220.57831,386.49156   L 386.49156,220.57831   L 220.57831,54.665059   L 54.665059,220.57831   L 220.57831,386.49156  "
     style="fill:none;stroke:#000000;stroke-width:9.5903616px;stroke-linecap:butt;stroke-linejoin:miter;stroke-miterlimit:10;stroke-dasharray:none;stroke-opacity:1;" />
  <path
     id="path9"
     d="  M 239.75903,201.39759   C 239.75903,212.0269 231.20763,220.57831 220.57831,220.57831   C 209.98895,220.57831 201.39759,212.0269 201.39759,201.39759   C 201.39759,190.80823 209.98895,182.21686 220.57831,182.21686   C 231.20763,182.21686 239.75903,190.80823 239.75903,201.39759  "
     style="fill:none;stroke:#000000;stroke-width:9.5903616px;stroke-linecap:butt;stroke-linejoin:miter;stroke-miterlimit:10;stroke-dasharray:none;stroke-opacity:1;" />
  <path
     id="path11"
     d="  M 220.57831,220.57831   L 220.57831,326.07228  "
     style="fill:none;stroke:#000000;stroke-width:9.5903616px;stroke-linecap:butt;stroke-linejoin:miter;stroke-miterlimit:10;stroke-dasharray:none;stroke-opacity:1;" />
  <path
     id="path13"
     d="  M 191.80723,249.34939   L 249.34939,249.34939  "
     style="fill:none;stroke:#000000;stroke-width:9.5903616px;stroke-linecap:butt;stroke-linejoin:miter;stroke-miterlimit:10;stroke-dasharray:none;stroke-opacity:1;" />
  <path
     id="path15"
     d="  M 173.6255,162.83634   L 173.6255,125.11426   L 178.62048,125.11426   L 178.62048,158.4008   L 197.24176,158.4008   L 197.24176,162.83634   z  M 203.15582,162.83634   L 203.15582,125.11426   L 216.18273,125.11426   C 219.0998,125.11426 221.33755,125.27409 222.89598,125.63373   C 225.05381,126.15321 226.89196,127.03233 228.4504,128.351   C 230.44839,130.02932 231.9269,132.18715 232.9259,134.78454   C 233.88494,137.42189 234.40441,140.41887 234.40441,143.7755   C 234.40441,146.65261 234.04478,149.17008 233.36546,151.40783   C 232.7261,153.60562 231.84698,155.44377 230.80803,156.88233   C 229.76907,158.36084 228.61024,159.47972 227.37148,160.31887   C 226.13273,161.15803 224.61425,161.79739 222.85602,162.19699   C 221.09779,162.63654 219.0998,162.83634 216.78213,162.83634   z  M 208.1508,158.4008   L 216.22269,158.4008   C 218.74016,158.4008 220.65823,158.16104 222.09678,157.72148   C 223.49538,157.24197 224.65421,156.60261 225.49337,155.76345   C 226.65221,154.56466 227.57128,152.96626 228.2506,150.96827   C 228.88996,148.97028 229.2496,146.53273 229.2496,143.69558   C 229.2496,139.73956 228.57028,136.70261 227.29156,134.58474   C 226.01285,132.46687 224.41445,131.02831 222.5763,130.30903   C 221.21767,129.82952 219.05984,129.5498 216.10281,129.5498   L 208.1508,129.5498   z  M 241.35743,162.83634   L 241.35743,125.11426   L 258.1006,125.11426   C 261.45723,125.11426 264.01465,125.43393 265.77289,126.11325   C 267.49116,126.79257 268.92971,127.99136 269.96867,129.70964   C 271.00763,131.42791 271.5271,133.30602 271.5271,135.38393   C 271.5271,138.06124 270.64799,140.33895 268.92971,142.17711   C 267.21144,144.01526 264.49417,145.17409 260.89779,145.69357   C 262.21646,146.29297 263.21546,146.93233 263.89478,147.57168   C 265.37329,148.89036 266.73192,150.56867 268.0506,152.56666   L 274.60401,162.83634   L 268.33032,162.83634   L 263.33534,155.00421   C 261.89678,152.7265 260.65803,151.00823 259.73895,149.80944   C 258.77992,148.61064 257.94076,147.77148 257.18152,147.29197   C 256.46225,146.81245 255.70301,146.45281 254.90381,146.25301   C 254.34437,146.13313 253.4253,146.09317 252.14658,146.09317   L 246.35241,146.09317   L 246.35241,162.83634   z  M 246.35241,141.77751   L 257.06164,141.77751   C 259.37931,141.77751 261.13755,141.53775 262.41626,141.05823   C 263.73494,140.57871 264.69397,139.81948 265.37329,138.78052   C 266.05261,137.74156 266.37229,136.62269 266.37229,135.38393   C 266.37229,133.6257 265.73293,132.14719 264.41425,130.98835   C 263.13554,129.82952 261.09759,129.27008 258.3004,129.27008   L 246.35241,129.27008   z "
     style="fill:#000000;fill-rule:evenodd;fill-opacity:1;stroke:none;" />
</svg>
