<?xml version="1.0" encoding="UTF-8" standalone="no"?>
<svg
   xmlns:dc="http://purl.org/dc/elements/1.1/"
   xmlns:cc="http://creativecommons.org/ns#"
   xmlns:rdf="http://www.w3.org/1999/02/22-rdf-syntax-ns#"
   xmlns:svg="http://www.w3.org/2000/svg"
   xmlns="http://www.w3.org/2000/svg"
   id="svg17"
   height="130.27mm"
   width="130.27mm"
   version="1.0">
  <metadata
     id="metadata21">
    <rdf:RDF>
      <cc:Work
         rdf:about="">
        <dc:format>image/svg+xml</dc:format>
        <dc:type
           rdf:resource="http://purl.org/dc/dcmitype/StillImage" />
      </cc:Work>
    </rdf:RDF>
  </metadata>
  <defs
     id="defs3">
    <pattern
       y="0"
       x="0"
       height="6"
       width="6"
       patternUnits="userSpaceOnUse"
       id="EMFhbasepattern" />
  </defs>
  <path
     id="path5"
     d="  M 164.63454,327.67068   C 164.63454,437.95983 327.67068,437.95983 327.67068,327.67068   C 437.95983,327.67068 437.95983,164.63454 327.67068,164.63454   C 327.67068,54.345381 164.63454,54.345381 164.63454,164.63454   C 54.345381,164.63454 54.345381,327.67068 164.63454,327.67068   z "
     style="fill:#ffff80;fill-rule:evenodd;fill-opacity:1;stroke:none;" />
  <path
     id="path7"
     d="  M 164.63454,327.67068   C 164.63454,437.95983 327.67068,437.95983 327.67068,327.67068   C 437.95983,327.67068 437.95983,164.63454 327.67068,164.63454   C 327.67068,54.345381 164.63454,54.345381 164.63454,164.63454   C 54.345381,164.63454 54.345381,327.67068 164.63454,327.67068  "
     style="fill:none;stroke:#000000;stroke-width:9.5903616px;stroke-linecap:butt;stroke-linejoin:miter;stroke-miterlimit:10;stroke-dasharray:none;stroke-opacity:1;" />
  <path
     id="path9"
     d="  M 265.33333,226.97188   C 265.33333,237.6012 256.78192,246.15261 246.15261,246.15261   C 235.56325,246.15261 226.97188,237.6012 226.97188,226.97188   C 226.97188,216.38253 235.56325,207.79116 246.15261,207.79116   C 256.78192,207.79116 265.33333,216.38253 265.33333,226.97188  "
     style="fill:none;stroke:#000000;stroke-width:9.5903616px;stroke-linecap:butt;stroke-linejoin:miter;stroke-miterlimit:10;stroke-dasharray:none;stroke-opacity:1;" />
  <path
     id="path11"
     d="  M 246.15261,246.15261   L 246.15261,351.64658  "
     style="fill:none;stroke:#000000;stroke-width:9.5903616px;stroke-linecap:butt;stroke-linejoin:miter;stroke-miterlimit:10;stroke-dasharray:none;stroke-opacity:1;" />
  <path
     id="path13"
     d="  M 217.38152,274.92369   L 274.92369,274.92369  "
     style="fill:none;stroke:#000000;stroke-width:9.5903616px;stroke-linecap:butt;stroke-linejoin:miter;stroke-miterlimit:10;stroke-dasharray:none;stroke-opacity:1;" />
  <path
     id="path15"
     d="  M 199.1998,188.41064   L 199.1998,150.68855   L 204.19478,150.68855   L 204.19478,183.9751   L 222.81606,183.9751   L 222.81606,188.41064   z  M 228.73012,188.41064   L 228.73012,150.68855   L 241.75702,150.68855   C 244.67409,150.68855 246.91184,150.84839 248.47028,151.20803   C 250.62811,151.72751 252.46626,152.60662 254.0247,153.9253   C 256.02269,155.60361 257.5012,157.76144 258.5002,160.35883   C 259.45923,162.99618 259.97871,165.99317 259.97871,169.3498   C 259.97871,172.22691 259.61907,174.74437 258.93976,176.98213   C 258.3004,179.17992 257.42128,181.01807 256.38233,182.45662   C 255.34337,183.93514 254.18453,185.05401 252.94578,185.89317   C 251.70702,186.73233 250.18855,187.37168 248.43032,187.77128   C 246.67208,188.21084 244.67409,188.41064 242.35642,188.41064   z  M 233.7251,183.9751   L 241.79698,183.9751   C 244.31445,183.9751 246.23253,183.73534 247.67108,183.29578   C 249.06968,182.81626 250.22851,182.1769 251.06767,181.33775   C 252.2265,180.13895 253.14558,178.54056 253.8249,176.54257   C 254.46425,174.54458 254.82389,172.10703 254.82389,169.26988   C 254.82389,165.31385 254.14457,162.27691 252.86586,160.15903   C 251.58714,158.04116 249.98875,156.60261 248.1506,155.88333   C 246.79196,155.40381 244.63413,155.12409 241.6771,155.12409   L 233.7251,155.12409   z  M 266.93172,188.41064   L 266.93172,150.68855   L 283.6749,150.68855   C 287.03152,150.68855 289.58895,151.00823 291.34718,151.68755   C 293.06546,152.36687 294.50401,153.56566 295.54297,155.28393   C 296.58192,157.00221 297.1014,158.88032 297.1014,160.95823   C 297.1014,163.63554 296.22228,165.91325 294.50401,167.7514   C 292.78574,169.58956 290.06847,170.74839 286.47208,171.26787   C 287.79076,171.86727 288.78975,172.50662 289.46907,173.14598   C 290.94759,174.46466 292.30622,176.14297 293.6249,178.14096   L 300.17831,188.41064   L 293.90461,188.41064   L 288.90963,180.57851   C 287.47108,178.3008 286.23233,176.58253 285.31325,175.38373   C 284.35421,174.18494 283.51506,173.34578 282.75582,172.86626   C 282.03654,172.38674 281.27731,172.02711 280.47811,171.82731   C 279.91867,171.70743 278.99959,171.66747 277.72088,171.66747   L 271.9267,171.66747   L 271.9267,188.41064   z  M 271.9267,167.3518   L 282.63594,167.3518   C 284.95361,167.3518 286.71184,167.11205 287.99056,166.63253   C 289.30923,166.15301 290.26827,165.39377 290.94759,164.35482   C 291.6269,163.31586 291.94658,162.19699 291.94658,160.95823   C 291.94658,159.2 291.30722,157.72148 289.98855,156.56265   C 288.70984,155.40381 286.67188,154.84438 283.87469,154.84438   L 271.9267,154.84438   z "
     style="fill:#000000;fill-rule:evenodd;fill-opacity:1;stroke:none;" />
</svg>
