<?xml version="1.0" encoding="UTF-8" standalone="no"?>
<svg
   xmlns:dc="http://purl.org/dc/elements/1.1/"
   xmlns:cc="http://creativecommons.org/ns#"
   xmlns:rdf="http://www.w3.org/1999/02/22-rdf-syntax-ns#"
   xmlns:svg="http://www.w3.org/2000/svg"
   xmlns="http://www.w3.org/2000/svg"
   id="svg11"
   height="116.73mm"
   width="116.73mm"
   version="1.0">
  <metadata
     id="metadata15">
    <rdf:RDF>
      <cc:Work
         rdf:about="">
        <dc:format>image/svg+xml</dc:format>
        <dc:type
           rdf:resource="http://purl.org/dc/dcmitype/StillImage" />
      </cc:Work>
    </rdf:RDF>
  </metadata>
  <defs
     id="defs3">
    <pattern
       y="0"
       x="0"
       height="6"
       width="6"
       patternUnits="userSpaceOnUse"
       id="EMFhbasepattern" />
  </defs>
  <path
     id="path5"
     d="  M 220.57831,386.49156   L 220.57831,386.49156   L 386.49156,220.57831   L 220.57831,54.665059   L 54.665059,220.57831   L 220.57831,386.49156   z "
     style="fill:#ff8080;fill-rule:evenodd;fill-opacity:1;stroke:none;" />
  <path
     id="path7"
     d="  M 220.57831,386.49156   L 220.57831,386.49156   L 386.49156,220.57831   L 220.57831,54.665059   L 54.665059,220.57831   L 220.57831,386.49156  "
     style="fill:none;stroke:#000000;stroke-width:9.5903616px;stroke-linecap:butt;stroke-linejoin:miter;stroke-miterlimit:10;stroke-dasharray:none;stroke-opacity:1;" />
  <path
     id="path9"
     d="  M 264.05461,189.92911   C 274.00461,202.35662 278.95963,215.74317 278.95963,230.00883   C 278.95963,246.11265 273.16546,259.57911 261.5771,270.40823   C 249.98875,281.23735 236.52229,286.63192 221.13775,286.63192   C 205.27369,286.63192 191.68735,281.11747 180.33875,270.08855   C 168.9502,259.05963 163.2759,245.39337 163.2759,229.0498   C 163.2759,215.02389 168.3508,202.15682 178.42068,190.40863   C 171.50763,184.89417 161.27791,173.98514 147.69156,157.68152   C 152.5267,160.87831 164.2749,170.34879 182.93614,185.97309   C 193.96506,175.98313 206.63233,170.94819 220.89799,170.94819   C 220.41847,170.94819 222.73614,171.30783 227.81104,172.02711   C 239.31947,173.4257 249.78895,177.94116 259.21947,185.65341   L 293.74477,155.36385   C 282.91566,170.58855 273.04558,182.09699 264.05461,189.92911   z  M 220.77811,178.14096   C 207.19176,178.14096 195.20381,183.1759 184.85421,193.16586   C 174.46466,203.19578 169.26988,215.22369 169.26988,229.2496   C 169.26988,243.51526 174.46466,255.62309 184.85421,265.65301   C 195.20381,275.64297 207.31164,280.63795 221.13775,280.63795   C 234.72409,280.63795 246.752,275.76285 257.26144,265.97269   C 267.73092,256.22249 272.96566,244.31445 272.96566,230.28855   C 272.96566,216.22269 268.01064,204.03494 258.1006,193.68534   C 248.23052,183.33574 235.76305,178.14096 220.77811,178.14096   z "
     style="fill:#000000;fill-rule:evenodd;fill-opacity:1;stroke:none;" />
</svg>
