<?xml version="1.0" encoding="UTF-8" standalone="no"?>
<svg
   xmlns:dc="http://purl.org/dc/elements/1.1/"
   xmlns:cc="http://creativecommons.org/ns#"
   xmlns:rdf="http://www.w3.org/1999/02/22-rdf-syntax-ns#"
   xmlns:svg="http://www.w3.org/2000/svg"
   xmlns="http://www.w3.org/2000/svg"
   id="svg21"
   height="130.27mm"
   width="130.27mm"
   version="1.0">
  <metadata
     id="metadata25">
    <rdf:RDF>
      <cc:Work
         rdf:about="">
        <dc:format>image/svg+xml</dc:format>
        <dc:type
           rdf:resource="http://purl.org/dc/dcmitype/StillImage" />
      </cc:Work>
    </rdf:RDF>
  </metadata>
  <defs
     id="defs3">
    <pattern
       y="0"
       x="0"
       height="6"
       width="6"
       patternUnits="userSpaceOnUse"
       id="EMFhbasepattern" />
  </defs>
  <path
     id="path5"
     d="  M 164.63454,327.67068   C 164.63454,437.95983 327.67068,437.95983 327.67068,327.67068   C 437.95983,327.67068 437.95983,164.63454 327.67068,164.63454   C 327.67068,54.345381 164.63454,54.345381 164.63454,164.63454   C 54.345381,164.63454 54.345381,327.67068 164.63454,327.67068   z "
     style="fill:#ffff80;fill-rule:evenodd;fill-opacity:1;stroke:none;" />
  <path
     id="path7"
     d="  M 164.63454,327.67068   C 164.63454,437.95983 327.67068,437.95983 327.67068,327.67068   C 437.95983,327.67068 437.95983,164.63454 327.67068,164.63454   C 327.67068,54.345381 164.63454,54.345381 164.63454,164.63454   C 54.345381,164.63454 54.345381,327.67068 164.63454,327.67068  "
     style="fill:none;stroke:#000000;stroke-width:9.5903616px;stroke-linecap:butt;stroke-linejoin:miter;stroke-miterlimit:10;stroke-dasharray:none;stroke-opacity:1;" />
  <path
     id="path9"
     d="  M 246.15261,221.21767   L 246.15261,274.92369  "
     style="fill:none;stroke:#000000;stroke-width:7.6722889px;stroke-linecap:butt;stroke-linejoin:miter;stroke-miterlimit:10;stroke-dasharray:none;stroke-opacity:1;" />
  <path
     id="path11"
     d="  M 177.10201,221.21767   L 177.10201,297.94056  "
     style="fill:none;stroke:#000000;stroke-width:7.6722889px;stroke-linecap:butt;stroke-linejoin:miter;stroke-miterlimit:10;stroke-dasharray:none;stroke-opacity:1;" />
  <path
     id="path13"
     d="  M 315.20321,221.21767   L 315.20321,297.94056  "
     style="fill:none;stroke:#000000;stroke-width:7.6722889px;stroke-linecap:butt;stroke-linejoin:miter;stroke-miterlimit:10;stroke-dasharray:none;stroke-opacity:1;" />
  <path
     id="path15"
     d="  M 173.26586,221.21767   L 319.03935,221.21767  "
     style="fill:none;stroke:#000000;stroke-width:7.6722889px;stroke-linecap:butt;stroke-linejoin:miter;stroke-miterlimit:10;stroke-dasharray:none;stroke-opacity:1;" />
  <path
     id="path17"
     d="  M 222.33654,189.20984   L 228.0508,190.68835   C 226.852,195.36365 224.69417,198.96004 221.57731,201.43755   C 218.46044,203.8751 214.66425,205.11385 210.14879,205.11385   C 205.47349,205.11385 201.67731,204.19478 198.76024,202.2767   C 195.84317,200.39859 193.64538,197.64136 192.08695,194.04498   C 190.56847,190.44859 189.80923,186.57249 189.80923,182.45662   C 189.80923,177.94116 190.68835,174.0251 192.40662,170.66847   C 194.1249,167.31184 196.56245,164.75442 199.75923,162.99618   C 202.91606,161.27791 206.43253,160.39879 210.22871,160.39879   C 214.54437,160.39879 218.18072,161.51767 221.13775,163.71546   C 224.09478,165.91325 226.17269,168.99016 227.33152,172.98614   L 221.69719,174.34478   C 220.65823,171.18795 219.21968,168.91024 217.3016,167.47168   C 215.42349,166.03313 212.98594,165.31385 210.10883,165.31385   C 206.79217,165.31385 203.99498,166.11305 201.79719,167.67148   C 199.55943,169.26988 197.96104,171.42771 197.08192,174.10502   C 196.16285,176.78233 195.72329,179.53956 195.72329,182.41666   C 195.72329,186.09297 196.24277,189.28976 197.32168,192.04699   C 198.4006,194.80421 200.07891,196.84217 202.31666,198.2008   C 204.59437,199.55943 207.03192,200.23875 209.66927,200.23875   C 212.86606,200.23875 215.58333,199.31968 217.82108,197.44156   C 220.01887,195.60341 221.53735,192.84618 222.33654,189.20984   z  M 234.88393,204.39458   L 234.88393,161.15803   L 251.10763,161.15803   C 254.38433,161.15803 257.06164,161.59759 259.05963,162.43674   C 261.05763,163.31586 262.61606,164.6745 263.73494,166.51265   C 264.85381,168.31084 265.41325,170.22891 265.41325,172.18695   C 265.41325,174.06506 264.93373,175.78333 263.93474,177.42168   C 262.93574,179.06004 261.41727,180.37871 259.37931,181.37771   C 262.01666,182.13695 264.01465,183.45562 265.41325,185.29377   C 266.81184,187.17188 267.53112,189.32972 267.53112,191.84719   C 267.53112,193.88514 267.09156,195.76325 266.25241,197.48152   C 265.37329,199.23976 264.33433,200.59839 263.05562,201.51747   C 261.81686,202.4765 260.21847,203.19578 258.34036,203.6753   C 256.42229,204.15482 254.10461,204.39458 251.34739,204.39458   z  M 240.59819,179.2998   L 249.94879,179.2998   C 252.46626,179.2998 254.30441,179.13996 255.38333,178.82028   C 256.86184,178.38072 257.94076,177.66144 258.7,176.66245   C 259.41927,175.66345 259.77891,174.38474 259.77891,172.86626   C 259.77891,171.42771 259.45923,170.18895 258.77992,169.11004   C 258.06064,167.99116 257.1016,167.27189 255.82289,166.83233   C 254.54417,166.43273 252.34638,166.23293 249.22951,166.23293   L 240.59819,166.23293   z  M 240.59819,199.27972   L 251.34739,199.27972   C 253.2255,199.27972 254.50421,199.1998 255.26345,199.07992   C 256.58212,198.84016 257.66104,198.44056 258.54016,197.88112   C 259.45923,197.36164 260.17851,196.56245 260.73795,195.48353   C 261.29739,194.44458 261.5771,193.24578 261.5771,191.84719   C 261.5771,190.24879 261.17751,188.8502 260.33835,187.6514   C 259.53915,186.45261 258.38032,185.61345 256.9018,185.13393   C 255.46325,184.65442 253.34538,184.41466 250.58815,184.41466   L 240.59819,184.41466   z  M 286.39216,204.39458   L 286.39216,166.23293   L 272.16646,166.23293   L 272.16646,161.15803   L 306.452,161.15803   L 306.452,166.23293   L 292.14638,166.23293   L 292.14638,204.39458   z "
     style="fill:#000000;fill-rule:evenodd;fill-opacity:1;stroke:none;" />
  <path
     id="path19"
     d="  M 236.36245,342.89538   L 236.36245,298.26024   L 242.23654,298.26024   L 242.23654,337.62068   L 264.21445,337.62068   L 264.21445,342.89538   z "
     style="fill:#000000;fill-rule:evenodd;fill-opacity:1;stroke:none;" />
</svg>
