<?xml version="1.0" encoding="UTF-8" standalone="no"?>
<svg
   xmlns:dc="http://purl.org/dc/elements/1.1/"
   xmlns:cc="http://creativecommons.org/ns#"
   xmlns:rdf="http://www.w3.org/1999/02/22-rdf-syntax-ns#"
   xmlns:svg="http://www.w3.org/2000/svg"
   xmlns="http://www.w3.org/2000/svg"
   id="svg13"
   height="112.9mm"
   width="112.9mm"
   version="1.0">
  <metadata
     id="metadata17">
    <rdf:RDF>
      <cc:Work
         rdf:about="">
        <dc:format>image/svg+xml</dc:format>
        <dc:type
           rdf:resource="http://purl.org/dc/dcmitype/StillImage" />
      </cc:Work>
    </rdf:RDF>
  </metadata>
  <defs
     id="defs3">
    <pattern
       y="0"
       x="0"
       height="6"
       width="6"
       patternUnits="userSpaceOnUse"
       id="EMFhbasepattern" />
  </defs>
  <path
     id="path5"
     d="  M 1055.3824,1055.5085   L 1203.488,1055.5085   L 1203.488,1246.2484   L 1055.3824,1246.2484   z "
     style="fill:none;stroke:#ff0000;stroke-width:5.3245535px;stroke-linecap:butt;stroke-linejoin:miter;stroke-miterlimit:282;stroke-dasharray:none;stroke-opacity:1;" />
  <path
     id="path7"
     d="  M 1055.3824,1248.4386   L 1129.9639,1348.5855   L 1204.5832,1248.4386  "
     style="fill:none;stroke:#ff0000;stroke-width:5.3245535px;stroke-linecap:butt;stroke-linejoin:miter;stroke-miterlimit:282;stroke-dasharray:none;stroke-opacity:1;" />
  <path
     id="path9"
     d="  M 1094.0137,1119.4787   L 1094.0137,1073.7102   L 1100.0558,1073.7102   L 1100.0558,1114.0786   L 1122.6002,1114.0786   L 1122.6002,1119.4787   z "
     style="fill:#ff0000;fill-rule:nonzero;fill-opacity:1;stroke:#ff0000;stroke-width:1.0573581px;stroke-linecap:butt;stroke-linejoin:miter;stroke-miterlimit:282;stroke-dasharray:none;stroke-opacity:1;" />
  <path
     id="path11"
     d="  M 1159.9098,1073.7102   L 1165.9518,1073.7102   L 1165.9518,1100.1441   C 1165.9518,1104.7512 1165.4232,1108.3764 1164.4036,1111.0953   C 1163.3462,1113.8143 1161.4581,1116.0045 1158.7391,1117.7038   C 1156.0202,1119.4032 1152.4705,1120.2339 1148.0523,1120.2339   C 1143.7851,1120.2339 1140.2731,1119.5165 1137.5542,1118.0437   C 1134.7975,1116.5332 1132.8716,1114.4185 1131.701,1111.624   C 1130.5303,1108.8296 1129.9639,1104.9778 1129.9639,1100.1441   L 1129.9639,1073.7102   L 1136.0059,1073.7102   L 1136.0059,1100.1064   C 1136.0059,1104.0715 1136.3836,1107.017 1137.1011,1108.9051   C 1137.8563,1110.7932 1139.1403,1112.2282 1140.9151,1113.2478   C 1142.7277,1114.2674 1144.918,1114.7961 1147.5236,1114.7961   C 1151.9796,1114.7961 1155.1517,1113.7765 1157.0398,1111.7373   C 1158.928,1109.7359 1159.9098,1105.8463 1159.9098,1100.1064   z "
     style="fill:#ff0000;fill-rule:nonzero;fill-opacity:1;stroke:#ff0000;stroke-width:1.0573581px;stroke-linecap:butt;stroke-linejoin:miter;stroke-miterlimit:282;stroke-dasharray:none;stroke-opacity:1;" />
</svg>
