<?xml version="1.0" encoding="UTF-8" standalone="no"?>
<svg
   xmlns:dc="http://purl.org/dc/elements/1.1/"
   xmlns:cc="http://creativecommons.org/ns#"
   xmlns:rdf="http://www.w3.org/1999/02/22-rdf-syntax-ns#"
   xmlns:svg="http://www.w3.org/2000/svg"
   xmlns="http://www.w3.org/2000/svg"
   id="svg13"
   height="112.9mm"
   width="112.9mm"
   version="1.0">
  <metadata
     id="metadata17">
    <rdf:RDF>
      <cc:Work
         rdf:about="">
        <dc:format>image/svg+xml</dc:format>
        <dc:type
           rdf:resource="http://purl.org/dc/dcmitype/StillImage" />
      </cc:Work>
    </rdf:RDF>
  </metadata>
  <defs
     id="defs3">
    <pattern
       y="0"
       x="0"
       height="6"
       width="6"
       patternUnits="userSpaceOnUse"
       id="EMFhbasepattern" />
  </defs>
  <path
     id="path5"
     d="  M 451.74134,451.72623   L 600.99177,451.72623   L 600.99177,643.62504   L 451.74134,643.62504   L 451.74134,451.72623   z "
     style="fill:none;stroke:#000000;stroke-width:5.3263254px;stroke-linecap:butt;stroke-linejoin:miter;stroke-miterlimit:112;stroke-dasharray:none;stroke-opacity:1;" />
  <path
     id="path7"
     d="  M 451.74134,644.72053   L 526.34767,744.90078   L 600.99177,644.72053  "
     style="fill:none;stroke:#000000;stroke-width:5.3263254px;stroke-linecap:butt;stroke-linejoin:miter;stroke-miterlimit:112;stroke-dasharray:none;stroke-opacity:1;" />
  <path
     id="path9"
     d="  M 489.47892,515.71768   L 489.47892,469.93395   L 495.52298,469.93395   L 495.52298,510.31581   L 518.07486,510.31581   L 518.07486,515.71768   L 489.47892,515.71768   z "
     style="fill:#000000;fill-rule:nonzero;fill-opacity:1;stroke:#000000;stroke-width:1.0577101px;stroke-linecap:butt;stroke-linejoin:miter;stroke-miterlimit:112;stroke-dasharray:none;stroke-opacity:1;" />
  <path
     id="path11"
     d="  M 555.35914,469.93395   L 561.44098,469.93395   L 561.44098,496.3767   C 561.44098,500.98529 560.91212,504.61173 559.85441,507.33155   C 558.83448,510.05138 556.94571,512.24235 554.22588,513.94224   C 551.50606,515.64213 547.95517,516.47319 543.53546,516.47319   C 539.22907,516.47319 535.75373,515.75546 532.99613,514.28222   C 530.27631,512.7712 528.34976,510.65578 527.17873,507.86041   C 526.00769,505.06503 525.40328,501.21195 525.40328,496.3767   L 525.40328,469.93395   L 531.48512,469.93395   L 531.48512,496.33892   C 531.48512,500.30534 531.86287,503.25181 532.5806,505.14058   C 533.33611,507.02935 534.5827,508.46481 536.39591,509.48475   C 538.20913,510.50468 540.4001,511.03354 543.0066,511.03354   C 547.46409,511.03354 550.63722,510.0136 552.52599,507.97373   C 554.41476,505.97164 555.35914,502.08078 555.35914,496.33892   L 555.35914,469.93395   z "
     style="fill:#000000;fill-rule:nonzero;fill-opacity:1;stroke:#000000;stroke-width:1.0577101px;stroke-linecap:butt;stroke-linejoin:miter;stroke-miterlimit:112;stroke-dasharray:none;stroke-opacity:1;" />
</svg>
