<?xml version="1.0" encoding="UTF-8" standalone="no"?>
<svg
   xmlns:dc="http://purl.org/dc/elements/1.1/"
   xmlns:cc="http://creativecommons.org/ns#"
   xmlns:rdf="http://www.w3.org/1999/02/22-rdf-syntax-ns#"
   xmlns:svg="http://www.w3.org/2000/svg"
   xmlns="http://www.w3.org/2000/svg"
   id="svg15"
   height="112.9mm"
   width="112.9mm"
   version="1.0">
  <metadata
     id="metadata19">
    <rdf:RDF>
      <cc:Work
         rdf:about="">
        <dc:format>image/svg+xml</dc:format>
        <dc:type
           rdf:resource="http://purl.org/dc/dcmitype/StillImage" />
      </cc:Work>
    </rdf:RDF>
  </metadata>
  <defs
     id="defs3">
    <pattern
       y="0"
       x="0"
       height="6"
       width="6"
       patternUnits="userSpaceOnUse"
       id="EMFhbasepattern" />
  </defs>
  <path
     id="path5"
     d="  M 391.92062,391.38808   L 541.15652,391.38808   L 541.15652,583.2682   L 391.92062,583.2682   L 391.92062,391.38808   z "
     style="fill:none;stroke:#ff0000;stroke-width:5.3258066px;stroke-linecap:butt;stroke-linejoin:miter;stroke-miterlimit:112;stroke-dasharray:none;stroke-opacity:1;" />
  <path
     id="path7"
     d="  M 391.92062,584.36358   L 466.51969,684.53407   L 541.15652,584.36358  "
     style="fill:none;stroke:#ff0000;stroke-width:5.3258066px;stroke-linecap:butt;stroke-linejoin:miter;stroke-miterlimit:112;stroke-dasharray:none;stroke-opacity:1;" />
  <path
     id="path9"
     d="  M 407.25592,455.3733   L 407.25592,409.59403   L 413.33716,409.59403   L 413.33716,449.97195   L 435.88685,449.97195   L 435.88685,455.3733   L 407.25592,455.3733   z "
     style="fill:#ff0000;fill-rule:nonzero;fill-opacity:1;stroke:#ff0000;stroke-width:1.0576069px;stroke-linecap:butt;stroke-linejoin:miter;stroke-miterlimit:112;stroke-dasharray:none;stroke-opacity:1;" />
  <path
     id="path11"
     d="  M 443.21456,455.3733   L 443.21456,409.59403   L 463.49795,409.59403   C 467.57729,409.59403 470.67457,409.97174 472.82756,410.80272   C 474.94277,411.6337 476.64249,413.06902 477.88896,415.18423   C 479.1732,417.26168 479.81532,419.56575 479.81532,422.05868   C 479.81532,425.30704 478.75771,428.06438 476.64249,430.29291   C 474.56505,432.52143 471.31669,433.91899 466.8974,434.52333   C 468.52158,435.31654 469.73028,436.07197 470.56125,436.82741   C 472.33652,438.45159 473.99848,440.45349 475.58489,442.90865   L 483.55471,455.3733   L 475.92483,455.3733   L 469.88136,445.81706   C 468.1061,443.0975 466.633,440.98229 465.49985,439.50919   C 464.3667,438.07387 463.34686,437.05404 462.44034,436.44969   C 461.53382,435.88311 460.58953,435.46763 459.68301,435.24099   C 458.96535,435.08991 457.86997,435.01436 456.28356,435.01436   L 449.25803,435.01436   L 449.25803,455.3733   L 443.21456,455.3733   z  M 449.25803,429.7641   L 462.28926,429.7641   C 465.04659,429.7641 467.23735,429.4997 468.78599,428.93312   C 470.33462,428.36655 471.54332,427.42226 472.33652,426.17579   C 473.1675,424.92933 473.54522,423.53177 473.54522,422.05868   C 473.54522,419.90569 472.78978,418.13042 471.20337,416.73287   C 469.61696,415.33532 467.1618,414.61766 463.76235,414.61766   L 449.25803,414.61766   L 449.25803,429.7641   z "
     style="fill:#ff0000;fill-rule:nonzero;fill-opacity:1;stroke:#ff0000;stroke-width:1.0576069px;stroke-linecap:butt;stroke-linejoin:miter;stroke-miterlimit:112;stroke-dasharray:none;stroke-opacity:1;" />
  <path
     id="path13"
     d="  M 489.33378,455.3733   L 489.33378,409.59403   L 506.59544,409.59403   C 509.65494,409.59403 511.95901,409.70734 513.5832,410.00951   C 515.81173,410.38723 517.70031,411.10489 519.21118,412.1625   C 520.75982,413.22011 521.96851,414.6932 522.87503,416.58179   C 523.81932,418.47037 524.27258,420.54781 524.27258,422.81411   C 524.27258,426.7046 523.02612,429.99073 520.57096,432.71029   C 518.07803,435.39208 513.62097,436.75186 507.12424,436.75186   L 495.37725,436.75186   L 495.37725,455.3733   L 489.33378,455.3733   z  M 495.37725,431.35051   L 507.23755,431.35051   C 511.12804,431.35051 513.92314,430.63285 515.5851,429.15975   C 517.20928,427.68666 518.04025,425.64699 518.04025,423.00297   C 518.04025,421.07662 517.54922,419.45243 516.56716,418.09265   C 515.62287,416.73287 514.33863,415.82635 512.75222,415.37309   C 511.73238,415.10869 509.8438,414.99538 507.08647,414.99538   L 495.37725,414.99538   L 495.37725,431.35051   z "
     style="fill:#ff0000;fill-rule:nonzero;fill-opacity:1;stroke:#ff0000;stroke-width:1.0576069px;stroke-linecap:butt;stroke-linejoin:miter;stroke-miterlimit:112;stroke-dasharray:none;stroke-opacity:1;" />
</svg>
