<?xml version="1.0" encoding="UTF-8" standalone="no"?>
<svg
   xmlns:dc="http://purl.org/dc/elements/1.1/"
   xmlns:cc="http://creativecommons.org/ns#"
   xmlns:rdf="http://www.w3.org/1999/02/22-rdf-syntax-ns#"
   xmlns:svg="http://www.w3.org/2000/svg"
   xmlns="http://www.w3.org/2000/svg"
   id="svg15"
   height="112.9mm"
   width="112.9mm"
   version="1.0">
  <metadata
     id="metadata19">
    <rdf:RDF>
      <cc:Work
         rdf:about="">
        <dc:format>image/svg+xml</dc:format>
        <dc:type
           rdf:resource="http://purl.org/dc/dcmitype/StillImage" />
      </cc:Work>
    </rdf:RDF>
  </metadata>
  <defs
     id="defs3">
    <pattern
       y="0"
       x="0"
       height="6"
       width="6"
       patternUnits="userSpaceOnUse"
       id="EMFhbasepattern" />
  </defs>
  <path
     id="path5"
     d="  M 451.74134,451.72623   L 600.99177,451.72623   L 600.99177,643.62504   L 451.74134,643.62504   L 451.74134,451.72623   z "
     style="fill:none;stroke:#000000;stroke-width:5.3263254px;stroke-linecap:butt;stroke-linejoin:miter;stroke-miterlimit:112;stroke-dasharray:none;stroke-opacity:1;" />
  <path
     id="path7"
     d="  M 451.74134,644.72053   L 526.34767,744.90078   L 600.99177,644.72053  "
     style="fill:none;stroke:#000000;stroke-width:5.3263254px;stroke-linecap:butt;stroke-linejoin:miter;stroke-miterlimit:112;stroke-dasharray:none;stroke-opacity:1;" />
  <path
     id="path9"
     d="  M 467.07813,515.71768   L 467.07813,469.93395   L 473.15996,469.93395   L 473.15996,510.31581   L 495.71185,510.31581   L 495.71185,515.71768   L 467.07813,515.71768   z "
     style="fill:#000000;fill-rule:nonzero;fill-opacity:1;stroke:#000000;stroke-width:1.0577101px;stroke-linecap:butt;stroke-linejoin:miter;stroke-miterlimit:112;stroke-dasharray:none;stroke-opacity:1;" />
  <path
     id="path11"
     d="  M 503.04027,515.71768   L 503.04027,469.93395   L 523.32564,469.93395   C 527.40538,469.93395 530.50296,470.3117 532.65615,471.14276   C 534.77157,471.97382 536.47146,473.40928 537.71805,475.5247   C 539.00241,477.60235 539.64459,479.90664 539.64459,482.39982   C 539.64459,485.6485 538.58688,488.4061 536.47146,490.63484   C 534.39382,492.86359 531.14514,494.26128 526.72542,494.86568   C 528.34976,495.65897 529.55857,496.41447 530.38963,497.16998   C 532.16507,498.79432 533.82719,500.79642 535.41375,503.25181   L 543.38435,515.71768   L 535.75373,515.71768   L 529.70967,506.16052   C 527.93423,503.44069 526.46099,501.32527 525.32773,499.85203   C 524.19447,498.41657 523.17454,497.39663 522.26793,496.79223   C 521.36132,496.2256 520.41694,495.81007 519.51033,495.58342   C 518.7926,495.43232 517.69711,495.35676 516.11055,495.35676   L 509.08433,495.35676   L 509.08433,515.71768   L 503.04027,515.71768   z  M 509.08433,490.10599   L 522.11683,490.10599   C 524.87443,490.10599 527.0654,489.84156 528.61419,489.27493   C 530.16298,488.7083 531.37179,487.76392 532.16507,486.51733   C 532.99613,485.27074 533.37388,483.87306 533.37388,482.39982   C 533.37388,480.24662 532.61838,478.47118 531.03181,477.07349   C 529.44525,475.6758 526.98985,474.95807 523.59007,474.95807   L 509.08433,474.95807   L 509.08433,490.10599   z "
     style="fill:#000000;fill-rule:nonzero;fill-opacity:1;stroke:#000000;stroke-width:1.0577101px;stroke-linecap:butt;stroke-linejoin:miter;stroke-miterlimit:112;stroke-dasharray:none;stroke-opacity:1;" />
  <path
     id="path13"
     d="  M 549.16398,515.71768   L 549.16398,469.93395   L 566.42732,469.93395   C 569.48713,469.93395 571.79142,470.04728 573.41576,470.34948   C 575.64451,470.72723 577.53328,471.44496 579.04429,472.50267   C 580.59308,473.56038 581.80189,475.03362 582.7085,476.92239   C 583.65289,478.81116 584.10619,480.8888 584.10619,483.15532   C 584.10619,487.04619 582.8596,490.33264 580.4042,493.05247   C 577.91103,495.73452 573.45354,497.09443 566.95618,497.09443   L 555.20804,497.09443   L 555.20804,515.71768   L 549.16398,515.71768   z  M 555.20804,491.69255   L 567.0695,491.69255   C 570.96037,491.69255 573.75574,490.97482 575.41786,489.50158   C 577.0422,488.02835 577.87326,485.98848 577.87326,483.3442   C 577.87326,481.41766 577.38218,479.79332 576.40002,478.4334   C 575.45563,477.07349 574.17127,476.16688 572.58471,475.71358   C 571.56477,475.44915 569.676,475.33583 566.9184,475.33583   L 555.20804,475.33583   L 555.20804,491.69255   z "
     style="fill:#000000;fill-rule:nonzero;fill-opacity:1;stroke:#000000;stroke-width:1.0577101px;stroke-linecap:butt;stroke-linejoin:miter;stroke-miterlimit:112;stroke-dasharray:none;stroke-opacity:1;" />
</svg>
