<?xml version="1.0" encoding="UTF-8" standalone="no"?>
<svg
   xmlns:dc="http://purl.org/dc/elements/1.1/"
   xmlns:cc="http://creativecommons.org/ns#"
   xmlns:rdf="http://www.w3.org/1999/02/22-rdf-syntax-ns#"
   xmlns:svg="http://www.w3.org/2000/svg"
   xmlns="http://www.w3.org/2000/svg"
   id="svg13"
   height="95.75mm"
   width="95.75mm"
   version="1.0">
  <metadata
     id="metadata17">
    <rdf:RDF>
      <cc:Work
         rdf:about="">
        <dc:format>image/svg+xml</dc:format>
        <dc:type
           rdf:resource="http://purl.org/dc/dcmitype/StillImage" />
      </cc:Work>
    </rdf:RDF>
  </metadata>
  <defs
     id="defs3">
    <pattern
       y="0"
       x="0"
       height="6"
       width="6"
       patternUnits="userSpaceOnUse"
       id="EMFhbasepattern" />
  </defs>
  <path
     id="path5"
     d="  M 54.345381,54.345381   L 54.345381,307.53092   L 307.53092,307.53092   L 307.53092,54.345381   L 54.345381,54.345381   z "
     style="fill:#aaffaa;fill-rule:evenodd;fill-opacity:1;stroke:none;" />
  <path
     id="path7"
     d="  M 54.345381,54.345381   L 307.53092,54.345381   L 307.53092,307.53092   L 54.345381,307.53092   z "
     style="fill:none;stroke:#000000;stroke-width:9.5903616px;stroke-linecap:butt;stroke-linejoin:miter;stroke-miterlimit:10;stroke-dasharray:none;stroke-opacity:1;" />
  <path
     id="path9"
     d="  M 307.53092,54.345381   L 54.345381,307.53092  "
     style="fill:none;stroke:#000000;stroke-width:9.5903616px;stroke-linecap:butt;stroke-linejoin:miter;stroke-miterlimit:10;stroke-dasharray:none;stroke-opacity:1;" />
  <path
     id="path11"
     d="  M 154.3249,259.05963   L 154.3249,215.82309   L 160.03915,215.82309   L 160.03915,253.94478   L 181.33775,253.94478   L 181.33775,259.05963   z  M 188.2508,259.05963   L 188.2508,215.82309   L 207.43152,215.82309   C 211.26767,215.82309 214.18474,216.18273 216.22269,216.98192   C 218.22068,217.74116 219.81907,219.13976 221.01787,221.09779   C 222.21666,223.05582 222.81606,225.21365 222.81606,227.61124   C 222.81606,230.68815 221.81707,233.24558 219.81907,235.36345   C 217.86104,237.48132 214.78413,238.8 210.62831,239.35943   C 212.14678,240.11867 213.30562,240.83795 214.06486,241.51727   C 215.74317,243.0757 217.34156,244.99377 218.82008,247.27148   L 226.33253,259.05963   L 219.13976,259.05963   L 213.4255,250.06867   C 211.74719,247.47128 210.38855,245.47329 209.30964,244.11466   C 208.23072,242.71606 207.23172,241.75702 206.39257,241.19759   C 205.55341,240.63815 204.67429,240.27851 203.79518,240.03875   C 203.11586,239.91887 202.0769,239.83895 200.59839,239.83895   L 193.96506,239.83895   L 193.96506,259.05963   z  M 193.96506,234.88393   L 206.27269,234.88393   C 208.87008,234.88393 210.90803,234.60421 212.38654,234.08474   C 213.86506,233.5253 214.98393,232.68614 215.74317,231.48735   C 216.54237,230.28855 216.902,229.00984 216.902,227.61124   C 216.902,225.57329 216.18273,223.89498 214.70421,222.5763   C 213.18574,221.25763 210.86807,220.57831 207.63132,220.57831   L 193.96506,220.57831   z  M 229.84899,245.15361   L 235.24357,244.67409   C 235.48333,246.83192 236.08273,248.63012 237.0018,250.02871   C 237.96084,251.38735 239.39939,252.50622 241.35743,253.38534   C 243.35542,254.22449 245.55321,254.66405 247.99076,254.66405   C 250.18855,254.66405 252.10662,254.34437 253.78494,253.70502   C 255.46325,253.0257 256.702,252.14658 257.5012,251.02771   C 258.34036,249.86887 258.73996,248.67008 258.73996,247.31144   C 258.73996,245.95281 258.34036,244.75401 257.58112,243.75502   C 256.78192,242.75602 255.46325,241.8769 253.66506,241.19759   C 252.50622,240.75803 249.94879,240.03875 245.95281,239.07972   C 241.99678,238.16064 239.19959,237.24156 237.64116,236.40241   C 235.56325,235.32349 234.00482,233.96486 233.00582,232.36646   C 232.00682,230.76807 231.48735,228.96988 231.48735,226.97188   C 231.48735,224.81405 232.08674,222.7761 233.3255,220.85803   C 234.56425,218.97992 236.40241,217.54136 238.76004,216.54237   C 241.15763,215.54337 243.79498,215.06385 246.71204,215.06385   C 249.90883,215.06385 252.74598,215.58333 255.18353,216.62229   C 257.62108,217.66124 259.53915,219.17972 260.85783,221.17771   C 262.1765,223.1757 262.85582,225.45341 262.9757,227.97088   L 257.46124,228.41044   C 257.18152,225.65321 256.18253,223.61526 254.46425,222.21666   C 252.78594,220.81807 250.26847,220.09879 246.9518,220.09879   C 243.4753,220.09879 240.95783,220.73815 239.35943,222.01686   C 237.801,223.29558 237.0018,224.81405 237.0018,226.61225   C 237.0018,228.17068 237.56124,229.44939 238.68012,230.44839   C 239.79899,231.44739 242.6761,232.48634 247.31144,233.5253   C 251.94678,234.56425 255.14357,235.48333 256.9018,236.28253   C 259.41927,237.44136 261.25743,238.91988 262.45622,240.67811   C 263.65502,242.4763 264.25441,244.51425 264.25441,246.83192   C 264.25441,249.14959 263.61506,251.30743 262.29638,253.34538   C 260.97771,255.38333 259.05963,256.98172 256.62208,258.1006   C 254.14457,259.21947 251.34739,259.77891 248.27048,259.77891   C 244.35441,259.77891 241.07771,259.21947 238.44036,258.1006   C 235.80301,256.94176 233.7251,255.22349 232.20662,252.94578   C 230.68815,250.62811 229.92891,248.07068 229.84899,245.15361   z "
     style="fill:#000000;fill-rule:evenodd;fill-opacity:1;stroke:none;" />
</svg>
