<?xml version="1.0" encoding="UTF-8" standalone="no"?>
<svg
   xmlns:dc="http://purl.org/dc/elements/1.1/"
   xmlns:cc="http://creativecommons.org/ns#"
   xmlns:rdf="http://www.w3.org/1999/02/22-rdf-syntax-ns#"
   xmlns:svg="http://www.w3.org/2000/svg"
   xmlns="http://www.w3.org/2000/svg"
   id="svg13"
   height="116.73mm"
   width="116.73mm"
   version="1.0">
  <metadata
     id="metadata17">
    <rdf:RDF>
      <cc:Work
         rdf:about="">
        <dc:format>image/svg+xml</dc:format>
        <dc:type
           rdf:resource="http://purl.org/dc/dcmitype/StillImage" />
      </cc:Work>
    </rdf:RDF>
  </metadata>
  <defs
     id="defs3">
    <pattern
       y="0"
       x="0"
       height="6"
       width="6"
       patternUnits="userSpaceOnUse"
       id="EMFhbasepattern" />
  </defs>
  <path
     id="path5"
     d="  M 220.57831,386.49156   L 220.57831,386.49156   L 386.49156,220.57831   L 220.57831,54.665059   L 54.665059,220.57831   L 220.57831,386.49156   z "
     style="fill:#ff8080;fill-rule:evenodd;fill-opacity:1;stroke:none;" />
  <path
     id="path7"
     d="  M 220.57831,386.49156   L 220.57831,386.49156   L 386.49156,220.57831   L 220.57831,54.665059   L 54.665059,220.57831   L 220.57831,386.49156  "
     style="fill:none;stroke:#000000;stroke-width:9.5903616px;stroke-linecap:butt;stroke-linejoin:miter;stroke-miterlimit:10;stroke-dasharray:none;stroke-opacity:1;" />
  <path
     id="path9"
     d="  M 320.31807,153.44578   L 120.83855,287.71084  "
     style="fill:none;stroke:#000000;stroke-width:9.5903616px;stroke-linecap:butt;stroke-linejoin:miter;stroke-miterlimit:10;stroke-dasharray:none;stroke-opacity:1;" />
  <path
     id="path11"
     d="  M 189.16988,291.02751   L 189.16988,247.79096   L 194.88413,247.79096   L 194.88413,285.91265   L 216.18273,285.91265   L 216.18273,291.02751   z  M 223.09578,291.02751   L 223.09578,247.79096   L 242.2765,247.79096   C 246.11265,247.79096 249.02972,248.1506 251.06767,248.9498   C 253.06566,249.70903 254.66405,251.10763 255.86285,253.06566   C 257.06164,255.02369 257.66104,257.18152 257.66104,259.57911   C 257.66104,262.65602 256.66204,265.21345 254.66405,267.33132   C 252.70602,269.44919 249.62911,270.76787 245.47329,271.32731   C 246.99176,272.08654 248.1506,272.80582 248.90984,273.48514   C 250.58815,275.04357 252.18654,276.96164 253.66506,279.23935   L 261.17751,291.02751   L 253.98474,291.02751   L 248.27048,282.03654   C 246.59217,279.43915 245.23353,277.44116 244.15461,276.08253   C 243.0757,274.68393 242.0767,273.7249 241.23755,273.16546   C 240.39839,272.60602 239.51927,272.24638 238.64016,272.00662   C 237.96084,271.88674 236.92188,271.80682 235.44337,271.80682   L 228.81004,271.80682   L 228.81004,291.02751   z  M 228.81004,266.8518   L 241.11767,266.8518   C 243.71506,266.8518 245.75301,266.57208 247.23152,266.05261   C 248.71004,265.49317 249.82891,264.65401 250.58815,263.45522   C 251.38735,262.25642 251.74698,260.97771 251.74698,259.57911   C 251.74698,257.54116 251.02771,255.86285 249.54919,254.54417   C 248.03072,253.2255 245.71305,252.54618 242.4763,252.54618   L 228.81004,252.54618   z  M 264.69397,277.12148   L 270.08855,276.64196   C 270.32831,278.7998 270.92771,280.59799 271.84678,281.99658   C 272.80582,283.35522 274.24437,284.47409 276.20241,285.35321   C 278.2004,286.19237 280.39819,286.63192 282.83574,286.63192   C 285.03353,286.63192 286.9516,286.31224 288.62992,285.67289   C 290.30823,284.99357 291.54698,284.11445 292.34618,282.99558   C 293.18534,281.83674 293.58494,280.63795 293.58494,279.27931   C 293.58494,277.92068 293.18534,276.72188 292.4261,275.72289   C 291.6269,274.72389 290.30823,273.84478 288.51004,273.16546   C 287.3512,272.7259 284.79377,272.00662 280.79779,271.04759   C 276.84176,270.12851 274.04457,269.20943 272.48614,268.37028   C 270.40823,267.29136 268.8498,265.93273 267.8508,264.33433   C 266.8518,262.73594 266.33233,260.93775 266.33233,258.93976   C 266.33233,256.78192 266.93172,254.74397 268.17048,252.8259   C 269.40923,250.94779 271.24739,249.50923 273.60502,248.51024   C 276.00261,247.51124 278.63996,247.03172 281.55702,247.03172   C 284.75381,247.03172 287.59096,247.5512 290.02851,248.59016   C 292.46606,249.62911 294.38413,251.14759 295.70281,253.14558   C 297.02148,255.14357 297.7008,257.42128 297.82068,259.93875   L 292.30622,260.37831   C 292.0265,257.62108 291.02751,255.58313 289.30923,254.18453   C 287.63092,252.78594 285.11345,252.06666 281.79678,252.06666   C 278.32028,252.06666 275.80281,252.70602 274.20441,253.98474   C 272.64598,255.26345 271.84678,256.78192 271.84678,258.58012   C 271.84678,260.13855 272.40622,261.41727 273.5251,262.41626   C 274.64397,263.41526 277.52108,264.45421 282.15642,265.49317   C 286.79176,266.53212 289.98855,267.4512 291.74678,268.2504   C 294.26425,269.40923 296.10241,270.88775 297.3012,272.64598   C 298.5,274.44417 299.09939,276.48212 299.09939,278.7998   C 299.09939,281.11747 298.46004,283.2753 297.14136,285.31325   C 295.82269,287.3512 293.90461,288.94959 291.46706,290.06847   C 288.98955,291.18735 286.19237,291.74678 283.11546,291.74678   C 279.19939,291.74678 275.92269,291.18735 273.28534,290.06847   C 270.64799,288.90963 268.57008,287.19136 267.0516,284.91365   C 265.53313,282.59598 264.77389,280.03855 264.69397,277.12148   z "
     style="fill:#000000;fill-rule:evenodd;fill-opacity:1;stroke:none;" />
</svg>
