<?xml version="1.0" encoding="UTF-8" standalone="no"?>
<svg
   xmlns:dc="http://purl.org/dc/elements/1.1/"
   xmlns:cc="http://creativecommons.org/ns#"
   xmlns:rdf="http://www.w3.org/1999/02/22-rdf-syntax-ns#"
   xmlns:svg="http://www.w3.org/2000/svg"
   xmlns="http://www.w3.org/2000/svg"
   id="svg25"
   height="95.75mm"
   width="95.75mm"
   version="1.0">
  <metadata
     id="metadata29">
    <rdf:RDF>
      <cc:Work
         rdf:about="">
        <dc:format>image/svg+xml</dc:format>
        <dc:type
           rdf:resource="http://purl.org/dc/dcmitype/StillImage" />
      </cc:Work>
    </rdf:RDF>
  </metadata>
  <defs
     id="defs3">
    <pattern
       y="0"
       x="0"
       height="6"
       width="6"
       patternUnits="userSpaceOnUse"
       id="EMFhbasepattern" />
  </defs>
  <path
     id="path5"
     d="  M 54.345381,54.345381   L 54.345381,307.53092   L 307.53092,307.53092   L 307.53092,54.345381   L 54.345381,54.345381   z "
     style="fill:#aaffaa;fill-rule:evenodd;fill-opacity:1;stroke:none;" />
  <path
     id="path7"
     d="  M 54.345381,54.345381   L 307.53092,54.345381   L 307.53092,307.53092   L 54.345381,307.53092   z "
     style="fill:none;stroke:#000000;stroke-width:9.5903616px;stroke-linecap:butt;stroke-linejoin:miter;stroke-miterlimit:10;stroke-dasharray:none;stroke-opacity:1;" />
  <path
     id="path9"
     d="  M 156.96225,257.66104   L 156.96225,102.29719   C 161.75743,78.321284 200.11887,78.321284 204.91405,102.29719   L 204.91405,257.66104  "
     style="fill:none;stroke:#000000;stroke-width:9.5903616px;stroke-linecap:butt;stroke-linejoin:miter;stroke-miterlimit:10;stroke-dasharray:none;stroke-opacity:1;" />
  <path
     id="path11"
     d="  M 180.93815,85.034537   L 180.93815,248.07068  "
     style="fill:none;stroke:#000000;stroke-width:9.5903616px;stroke-linecap:butt;stroke-linejoin:miter;stroke-miterlimit:10;stroke-dasharray:none;stroke-opacity:1;" />
  <path
     id="path13"
     d="  M 144.49478,272.04658   C 147.37189,243.2755 214.50441,243.2755 217.38152,272.04658   z "
     style="fill:none;stroke:#000000;stroke-width:9.5903616px;stroke-linecap:butt;stroke-linejoin:miter;stroke-miterlimit:10;stroke-dasharray:none;stroke-opacity:1;" />
  <path
     id="path15"
     d="  M 156.96225,142.5767   L 204.91405,142.5767  "
     style="fill:none;stroke:#000000;stroke-width:9.5903616px;stroke-linecap:butt;stroke-linejoin:miter;stroke-miterlimit:10;stroke-dasharray:none;stroke-opacity:1;" />
  <path
     id="path17"
     d="  M 156.96225,161.75743   L 204.91405,161.75743  "
     style="fill:none;stroke:#000000;stroke-width:9.5903616px;stroke-linecap:butt;stroke-linejoin:miter;stroke-miterlimit:10;stroke-dasharray:none;stroke-opacity:1;" />
  <path
     id="path19"
     d="  M 156.96225,180.93815   L 204.91405,180.93815  "
     style="fill:none;stroke:#000000;stroke-width:9.5903616px;stroke-linecap:butt;stroke-linejoin:miter;stroke-miterlimit:10;stroke-dasharray:none;stroke-opacity:1;" />
  <path
     id="path21"
     d="  M 116.84257,175.06405   L 116.84257,130.42891   L 149.09016,130.42891   L 149.09016,135.70361   L 122.75662,135.70361   L 122.75662,149.36988   L 147.41185,149.36988   L 147.41185,154.60462   L 122.75662,154.60462   L 122.75662,169.78935   L 150.12911,169.78935   L 150.12911,175.06405   z "
     style="fill:#000000;fill-rule:evenodd;fill-opacity:1;stroke:none;" />
  <path
     id="path23"
     d="  M 218.46044,175.06405   L 218.46044,130.42891   L 238.24056,130.42891   C 242.23654,130.42891 245.23353,130.82851 247.31144,131.62771   C 249.38935,132.42691 251.02771,133.86546 252.26646,135.86345   C 253.50522,137.9014 254.14457,140.13915 254.14457,142.61666   C 254.14457,145.77349 253.10562,148.4508 251.06767,150.60863   C 249.02972,152.76646 245.83293,154.16506 241.55723,154.76446   C 243.11566,155.48373 244.31445,156.24297 245.11365,156.96225   C 246.87188,158.56064 248.47028,160.51867 250.02871,162.91626   L 257.78092,175.06405   L 250.34839,175.06405   L 244.47429,165.75341   C 242.71606,163.0761 241.31747,161.03815 240.19859,159.63956   C 239.07972,158.201 238.08072,157.20201 237.2016,156.64257   C 236.32249,156.08313 235.40341,155.68353 234.52429,155.44377   C 233.84498,155.32389 232.7261,155.24397 231.20763,155.24397   L 224.37449,155.24397   L 224.37449,175.06405   z  M 224.37449,150.12911   L 237.08172,150.12911   C 239.75903,150.12911 241.8769,149.8494 243.39538,149.28996   C 244.91385,148.73052 246.07269,147.8514 246.87188,146.61265   C 247.67108,145.37389 248.03072,144.05522 248.03072,142.61666   C 248.03072,140.49879 247.27148,138.78052 245.75301,137.38193   C 244.23453,136.06325 241.79698,135.34397 238.48032,135.34397   L 224.37449,135.34397   z "
     style="fill:#000000;fill-rule:evenodd;fill-opacity:1;stroke:none;" />
</svg>
