<?xml version="1.0" encoding="UTF-8" standalone="no"?>
<svg
   xmlns:dc="http://purl.org/dc/elements/1.1/"
   xmlns:cc="http://creativecommons.org/ns#"
   xmlns:rdf="http://www.w3.org/1999/02/22-rdf-syntax-ns#"
   xmlns:svg="http://www.w3.org/2000/svg"
   xmlns="http://www.w3.org/2000/svg"
   id="svg25"
   height="116.73mm"
   width="116.73mm"
   version="1.0">
  <metadata
     id="metadata29">
    <rdf:RDF>
      <cc:Work
         rdf:about="">
        <dc:format>image/svg+xml</dc:format>
        <dc:type
           rdf:resource="http://purl.org/dc/dcmitype/StillImage" />
      </cc:Work>
    </rdf:RDF>
  </metadata>
  <defs
     id="defs3">
    <pattern
       y="0"
       x="0"
       height="6"
       width="6"
       patternUnits="userSpaceOnUse"
       id="EMFhbasepattern" />
  </defs>
  <path
     id="path5"
     d="  M 220.57831,386.49156   L 220.57831,386.49156   L 386.49156,220.57831   L 220.57831,54.665059   L 54.665059,220.57831   L 220.57831,386.49156   z "
     style="fill:#ff8080;fill-rule:evenodd;fill-opacity:1;stroke:none;" />
  <path
     id="path7"
     d="  M 220.57831,386.49156   L 220.57831,386.49156   L 386.49156,220.57831   L 220.57831,54.665059   L 54.665059,220.57831   L 220.57831,386.49156  "
     style="fill:none;stroke:#000000;stroke-width:9.5903616px;stroke-linecap:butt;stroke-linejoin:miter;stroke-miterlimit:10;stroke-dasharray:none;stroke-opacity:1;" />
  <path
     id="path9"
     d="  M 196.60241,297.3012   L 196.60241,141.93735   C 201.39759,117.96144 239.75903,117.96144 244.55421,141.93735   L 244.55421,297.3012  "
     style="fill:none;stroke:#000000;stroke-width:9.5903616px;stroke-linecap:butt;stroke-linejoin:miter;stroke-miterlimit:10;stroke-dasharray:none;stroke-opacity:1;" />
  <path
     id="path11"
     d="  M 220.57831,124.6747   L 220.57831,287.71084  "
     style="fill:none;stroke:#000000;stroke-width:9.5903616px;stroke-linecap:butt;stroke-linejoin:miter;stroke-miterlimit:10;stroke-dasharray:none;stroke-opacity:1;" />
  <path
     id="path13"
     d="  M 184.13494,311.68674   C 187.01205,282.91566 254.14457,282.91566 257.02168,311.68674   z "
     style="fill:none;stroke:#000000;stroke-width:9.5903616px;stroke-linecap:butt;stroke-linejoin:miter;stroke-miterlimit:10;stroke-dasharray:none;stroke-opacity:1;" />
  <path
     id="path15"
     d="  M 196.60241,182.21686   L 244.55421,182.21686  "
     style="fill:none;stroke:#000000;stroke-width:9.5903616px;stroke-linecap:butt;stroke-linejoin:miter;stroke-miterlimit:10;stroke-dasharray:none;stroke-opacity:1;" />
  <path
     id="path17"
     d="  M 196.60241,201.39759   L 244.55421,201.39759  "
     style="fill:none;stroke:#000000;stroke-width:9.5903616px;stroke-linecap:butt;stroke-linejoin:miter;stroke-miterlimit:10;stroke-dasharray:none;stroke-opacity:1;" />
  <path
     id="path19"
     d="  M 196.60241,220.57831   L 244.55421,220.57831  "
     style="fill:none;stroke:#000000;stroke-width:9.5903616px;stroke-linecap:butt;stroke-linejoin:miter;stroke-miterlimit:10;stroke-dasharray:none;stroke-opacity:1;" />
  <path
     id="path21"
     d="  M 156.48273,214.70421   L 156.48273,170.06907   L 188.73032,170.06907   L 188.73032,175.34377   L 162.39678,175.34377   L 162.39678,189.01004   L 187.05201,189.01004   L 187.05201,194.24478   L 162.39678,194.24478   L 162.39678,209.42952   L 189.76927,209.42952   L 189.76927,214.70421   z "
     style="fill:#000000;fill-rule:evenodd;fill-opacity:1;stroke:none;" />
  <path
     id="path23"
     d="  M 258.1006,214.70421   L 258.1006,170.06907   L 277.88072,170.06907   C 281.8767,170.06907 284.87369,170.46867 286.9516,171.26787   C 289.02951,172.06707 290.66787,173.50562 291.90662,175.50361   C 293.14538,177.54156 293.78473,179.77931 293.78473,182.25682   C 293.78473,185.41365 292.74578,188.09096 290.70783,190.24879   C 288.66988,192.40662 285.47309,193.80522 281.19739,194.40462   C 282.75582,195.12389 283.95461,195.88313 284.75381,196.60241   C 286.51204,198.2008 288.11044,200.15883 289.66887,202.55642   L 297.42108,214.70421   L 289.98855,214.70421   L 284.11445,205.39357   C 282.35622,202.71626 280.95763,200.67831 279.83875,199.27972   C 278.71988,197.84116 277.72088,196.84217 276.84176,196.28273   C 275.96265,195.72329 275.04357,195.32369 274.16445,195.08393   C 273.48514,194.96405 272.36626,194.88413 270.84779,194.88413   L 264.01465,194.88413   L 264.01465,214.70421   z  M 264.01465,189.76927   L 276.72188,189.76927   C 279.39919,189.76927 281.51706,189.48956 283.03554,188.93012   C 284.55401,188.37068 285.71285,187.49156 286.51204,186.25281   C 287.31124,185.01405 287.67088,183.69538 287.67088,182.25682   C 287.67088,180.13895 286.91164,178.42068 285.39317,177.02209   C 283.87469,175.70341 281.43714,174.98413 278.12048,174.98413   L 264.01465,174.98413   z "
     style="fill:#000000;fill-rule:evenodd;fill-opacity:1;stroke:none;" />
</svg>
