<?xml version="1.0" encoding="UTF-8" standalone="no"?>
<svg
   xmlns:dc="http://purl.org/dc/elements/1.1/"
   xmlns:cc="http://creativecommons.org/ns#"
   xmlns:rdf="http://www.w3.org/1999/02/22-rdf-syntax-ns#"
   xmlns:svg="http://www.w3.org/2000/svg"
   xmlns="http://www.w3.org/2000/svg"
   id="svg11"
   height="112.9mm"
   width="112.9mm"
   version="1.0">
  <metadata
     id="metadata15">
    <rdf:RDF>
      <cc:Work
         rdf:about="">
        <dc:format>image/svg+xml</dc:format>
        <dc:type
           rdf:resource="http://purl.org/dc/dcmitype/StillImage" />
      </cc:Work>
    </rdf:RDF>
  </metadata>
  <defs
     id="defs3">
    <pattern
       y="0"
       x="0"
       height="6"
       width="6"
       patternUnits="userSpaceOnUse"
       id="EMFhbasepattern" />
  </defs>
  <path
     id="path5"
     d="  M 2611.1343,2611.1343   L 2611.1343,2951.4713   L 2951.4713,2951.4713   L 2951.4713,2611.1343  "
     style="fill:none;stroke:#000000;stroke-width:15.94093px;stroke-linecap:butt;stroke-linejoin:miter;stroke-miterlimit:282;stroke-dasharray:none;stroke-opacity:1;" />
  <path
     id="path7"
     d="  M 2714.8446,2777.2893   L 2724.379,2747.7816   C 2746.3873,2755.5448 2762.4036,2762.2528 2772.3525,2767.9433   C 2769.7522,2742.8448 2768.3579,2725.6226 2768.2071,2716.2012   L 2798.3178,2716.2012   C 2797.9032,2729.9187 2796.3204,2747.1033 2793.5694,2767.7172   C 2807.8145,2760.5193 2824.1699,2753.8867 2842.5981,2747.7816   L 2852.1325,2777.2893   C 2834.5334,2783.0928 2817.3112,2786.9744 2800.4281,2788.8964   C 2808.8697,2796.2451 2820.7783,2809.3219 2836.1539,2828.1646   L 2811.2062,2845.8391   C 2803.1792,2834.8726 2793.6825,2819.9869 2782.7537,2801.1818   C 2772.5032,2820.7029 2763.4964,2835.5886 2755.7332,2845.8391   L 2731.2377,2828.1646   C 2747.2917,2808.3798 2758.7858,2795.2652 2765.7199,2788.8964   C 2747.857,2785.4293 2730.8986,2781.5854 2714.8446,2777.2893   z "
     style="fill:#000000;fill-rule:nonzero;fill-opacity:1;stroke:none;" />
  <path
     id="path9"
     d="  M 2878.2862,2890.8731   L 2905.269,2919.6271   L 2930.782,2890.8731   L 2910.3188,2890.8731   L 2910.3188,2636.7604   L 2900.9351,2636.7604   L 2900.9351,2890.8731   z "
     style="fill:#000000;fill-rule:nonzero;fill-opacity:1;stroke:none;" />
</svg>
