<?xml version="1.0" encoding="UTF-8" standalone="no"?>
<svg
   xmlns:dc="http://purl.org/dc/elements/1.1/"
   xmlns:cc="http://creativecommons.org/ns#"
   xmlns:rdf="http://www.w3.org/1999/02/22-rdf-syntax-ns#"
   xmlns:svg="http://www.w3.org/2000/svg"
   xmlns="http://www.w3.org/2000/svg"
   id="svg29"
   height="95.75mm"
   width="95.75mm"
   version="1.0">
  <metadata
     id="metadata33">
    <rdf:RDF>
      <cc:Work
         rdf:about="">
        <dc:format>image/svg+xml</dc:format>
        <dc:type
           rdf:resource="http://purl.org/dc/dcmitype/StillImage" />
      </cc:Work>
    </rdf:RDF>
  </metadata>
  <defs
     id="defs3">
    <pattern
       y="0"
       x="0"
       height="6"
       width="6"
       patternUnits="userSpaceOnUse"
       id="EMFhbasepattern" />
  </defs>
  <path
     id="path5"
     d="  M 54.345381,54.345381   L 54.345381,307.53092   L 307.53092,307.53092   L 307.53092,54.345381   L 54.345381,54.345381   z "
     style="fill:#aaffaa;fill-rule:evenodd;fill-opacity:1;stroke:none;" />
  <path
     id="path7"
     d="  M 54.345381,54.345381   L 307.53092,54.345381   L 307.53092,307.53092   L 54.345381,307.53092   z "
     style="fill:none;stroke:#000000;stroke-width:9.5903616px;stroke-linecap:butt;stroke-linejoin:miter;stroke-miterlimit:10;stroke-dasharray:none;stroke-opacity:1;" />
  <path
     id="path9"
     d="  M 200.11887,176.14297   C 200.11887,186.77229 191.56747,195.32369 180.93815,195.32369   C 170.34879,195.32369 161.75743,186.77229 161.75743,176.14297   C 161.75743,165.55361 170.34879,156.96225 180.93815,156.96225   C 191.56747,156.96225 200.11887,165.55361 200.11887,176.14297  "
     style="fill:none;stroke:#000000;stroke-width:9.5903616px;stroke-linecap:butt;stroke-linejoin:miter;stroke-miterlimit:10;stroke-dasharray:none;stroke-opacity:1;" />
  <path
     id="path11"
     d="  M 180.93815,195.32369   L 180.93815,286.43212  "
     style="fill:none;stroke:#000000;stroke-width:9.5903616px;stroke-linecap:butt;stroke-linejoin:miter;stroke-miterlimit:10;stroke-dasharray:none;stroke-opacity:1;" />
  <path
     id="path13"
     d="  M 156.96225,219.2996   L 204.91405,219.2996  "
     style="fill:none;stroke:#000000;stroke-width:9.5903616px;stroke-linecap:butt;stroke-linejoin:miter;stroke-miterlimit:10;stroke-dasharray:none;stroke-opacity:1;" />
  <path
     id="path15"
     d="  M 142.5767,156.96225   C 142.5767,167.59156 134.0253,176.14297 123.39598,176.14297   C 112.80662,176.14297 104.21526,167.59156 104.21526,156.96225   C 104.21526,146.37289 112.80662,137.78152 123.39598,137.78152   C 134.0253,137.78152 142.5767,146.37289 142.5767,156.96225  "
     style="fill:none;stroke:#000000;stroke-width:9.5903616px;stroke-linecap:butt;stroke-linejoin:miter;stroke-miterlimit:10;stroke-dasharray:none;stroke-opacity:1;" />
  <path
     id="path17"
     d="  M 123.39598,176.14297   L 123.39598,267.2514  "
     style="fill:none;stroke:#000000;stroke-width:9.5903616px;stroke-linecap:butt;stroke-linejoin:miter;stroke-miterlimit:10;stroke-dasharray:none;stroke-opacity:1;" />
  <path
     id="path19"
     d="  M 99.420079,200.11887   L 147.37189,200.11887  "
     style="fill:none;stroke:#000000;stroke-width:9.5903616px;stroke-linecap:butt;stroke-linejoin:miter;stroke-miterlimit:10;stroke-dasharray:none;stroke-opacity:1;" />
  <path
     id="path21"
     d="  M 257.66104,156.96225   C 257.66104,167.59156 249.10963,176.14297 238.48032,176.14297   C 227.89096,176.14297 219.2996,167.59156 219.2996,156.96225   C 219.2996,146.37289 227.89096,137.78152 238.48032,137.78152   C 249.10963,137.78152 257.66104,146.37289 257.66104,156.96225  "
     style="fill:none;stroke:#000000;stroke-width:9.5903616px;stroke-linecap:butt;stroke-linejoin:miter;stroke-miterlimit:10;stroke-dasharray:none;stroke-opacity:1;" />
  <path
     id="path23"
     d="  M 238.48032,176.14297   L 238.48032,267.2514  "
     style="fill:none;stroke:#000000;stroke-width:9.5903616px;stroke-linecap:butt;stroke-linejoin:miter;stroke-miterlimit:10;stroke-dasharray:none;stroke-opacity:1;" />
  <path
     id="path25"
     d="  M 214.50441,200.11887   L 262.45622,200.11887  "
     style="fill:none;stroke:#000000;stroke-width:9.5903616px;stroke-linecap:butt;stroke-linejoin:miter;stroke-miterlimit:10;stroke-dasharray:none;stroke-opacity:1;" />
  <path
     id="path27"
     d="  M 121.15823,123.6757   L 121.15823,89.3502   L 125.71365,89.3502   L 125.71365,119.5998   L 142.61666,119.5998   L 142.61666,123.6757   z  M 146.65261,106.93253   C 146.65261,101.25823 148.17108,96.78273 151.24799,93.585942   C 154.28494,90.349195 158.24096,88.750802 163.0761,88.750802   C 166.27289,88.750802 169.11004,89.510039 171.66747,90.988553   C 174.18494,92.507027 176.14297,94.624898 177.46164,97.342167   C 178.82028,100.05944 179.45964,103.13634 179.45964,106.53293   C 179.45964,110.0494 178.78032,113.16626 177.38172,115.88353   C 175.94317,118.64076 173.98514,120.71867 171.38775,122.11727   C 168.83032,123.55582 166.03313,124.23514 163.0761,124.23514   C 159.83936,124.23514 156.92229,123.4759 154.40482,121.91747   C 151.84739,120.35903 149.92932,118.24116 148.61064,115.52389   C 147.29197,112.80662 146.65261,109.96948 146.65261,106.93253   z  M 151.32791,107.01245   C 151.32791,111.16827 152.44678,114.40502 154.68454,116.80261   C 156.88233,119.16024 159.67952,120.35903 163.03614,120.35903   C 166.47269,120.35903 169.26988,119.16024 171.46767,116.76265   C 173.70542,114.36506 174.78433,110.92851 174.78433,106.53293   C 174.78433,103.73574 174.30482,101.29819 173.38574,99.22028   C 172.4267,97.142368 171.06807,95.504015 169.22992,94.385139   C 167.43172,93.226304 165.35381,92.626906 163.11606,92.626906   C 159.87931,92.626906 157.12209,93.745782 154.80442,95.943573   C 152.48674,98.181324 151.32791,101.85763 151.32791,107.01245   z  M 183.93514,106.93253   C 183.93514,101.25823 185.49357,96.78273 188.53052,93.585942   C 191.60743,90.349195 195.56345,88.750802 200.39859,88.750802   C 203.55542,88.750802 206.39257,89.510039 208.95,90.988553   C 211.50743,92.507027 213.4255,94.624898 214.78413,97.342167   C 216.10281,100.05944 216.78213,103.13634 216.78213,106.53293   C 216.78213,110.0494 216.06285,113.16626 214.66425,115.88353   C 213.26566,118.64076 211.26767,120.71867 208.71024,122.11727   C 206.11285,123.55582 203.35562,124.23514 200.35863,124.23514   C 197.12188,124.23514 194.24478,123.4759 191.68735,121.91747   C 189.16988,120.35903 187.21184,118.24116 185.89317,115.52389   C 184.61446,112.80662 183.93514,109.96948 183.93514,106.93253   z  M 188.61044,107.01245   C 188.61044,111.16827 189.72931,114.40502 191.96707,116.80261   C 194.20482,119.16024 196.96205,120.35903 200.31867,120.35903   C 203.75522,120.35903 206.55241,119.16024 208.79016,116.76265   C 210.98795,114.36506 212.10682,110.92851 212.10682,106.53293   C 212.10682,103.73574 211.62731,101.29819 210.66827,99.22028   C 209.70923,97.142368 208.3506,95.504015 206.51245,94.385139   C 204.71425,93.226304 202.6763,92.626906 200.39859,92.626906   C 197.2018,92.626906 194.40462,93.745782 192.08695,95.943573   C 189.76927,98.181324 188.61044,101.85763 188.61044,107.01245   z  M 231.36747,123.6757   L 231.36747,93.386143   L 220.05883,93.386143   L 220.05883,89.3502   L 247.27148,89.3502   L 247.27148,93.386143   L 235.88293,93.386143   L 235.88293,123.6757   z "
     style="fill:#000000;fill-rule:evenodd;fill-opacity:1;stroke:none;" />
</svg>
