<?xml version="1.0" encoding="UTF-8" standalone="no"?>
<svg
   xmlns:dc="http://purl.org/dc/elements/1.1/"
   xmlns:cc="http://creativecommons.org/ns#"
   xmlns:rdf="http://www.w3.org/1999/02/22-rdf-syntax-ns#"
   xmlns:svg="http://www.w3.org/2000/svg"
   xmlns="http://www.w3.org/2000/svg"
   id="svg29"
   height="89.669998mm"
   width="120.11mm"
   version="1.0">
  <metadata
     id="metadata33">
    <rdf:RDF>
      <cc:Work
         rdf:about="">
        <dc:format>image/svg+xml</dc:format>
        <dc:type
           rdf:resource="http://purl.org/dc/dcmitype/StillImage" />
      </cc:Work>
    </rdf:RDF>
  </metadata>
  <defs
     id="defs3">
    <pattern
       y="0"
       x="0"
       height="6"
       width="6"
       patternUnits="userSpaceOnUse"
       id="EMFhbasepattern" />
  </defs>
  <path
     id="path5"
     d="  M 54.345381,54.345381   L 54.345381,284.51405   L 399.59839,284.51405   L 399.59839,54.345381   L 54.345381,54.345381   z "
     style="fill:#80e0ff;fill-rule:evenodd;fill-opacity:1;stroke:none;" />
  <path
     id="path7"
     d="  M 54.345381,54.345381   L 399.59839,54.345381   L 399.59839,284.51405   L 54.345381,284.51405   z "
     style="fill:none;stroke:#000000;stroke-width:9.5903616px;stroke-linecap:butt;stroke-linejoin:miter;stroke-miterlimit:10;stroke-dasharray:none;stroke-opacity:1;" />
  <path
     id="path9"
     d="  M 246.15261,164.63454   C 246.15261,175.26385 237.6012,183.81526 226.97188,183.81526   C 216.38253,183.81526 207.79116,175.26385 207.79116,164.63454   C 207.79116,154.04518 216.38253,145.45381 226.97188,145.45381   C 237.6012,145.45381 246.15261,154.04518 246.15261,164.63454  "
     style="fill:none;stroke:#000000;stroke-width:9.5903616px;stroke-linecap:butt;stroke-linejoin:miter;stroke-miterlimit:10;stroke-dasharray:none;stroke-opacity:1;" />
  <path
     id="path11"
     d="  M 226.97188,183.81526   L 226.97188,274.92369  "
     style="fill:none;stroke:#000000;stroke-width:9.5903616px;stroke-linecap:butt;stroke-linejoin:miter;stroke-miterlimit:10;stroke-dasharray:none;stroke-opacity:1;" />
  <path
     id="path13"
     d="  M 202.99598,207.79116   L 250.94779,207.79116  "
     style="fill:none;stroke:#000000;stroke-width:9.5903616px;stroke-linecap:butt;stroke-linejoin:miter;stroke-miterlimit:10;stroke-dasharray:none;stroke-opacity:1;" />
  <path
     id="path15"
     d="  M 188.61044,145.45381   C 188.61044,156.08313 180.05903,164.63454 169.42972,164.63454   C 158.84036,164.63454 150.24899,156.08313 150.24899,145.45381   C 150.24899,134.86446 158.84036,126.27309 169.42972,126.27309   C 180.05903,126.27309 188.61044,134.86446 188.61044,145.45381  "
     style="fill:none;stroke:#000000;stroke-width:9.5903616px;stroke-linecap:butt;stroke-linejoin:miter;stroke-miterlimit:10;stroke-dasharray:none;stroke-opacity:1;" />
  <path
     id="path17"
     d="  M 169.42972,164.63454   L 169.42972,255.74297  "
     style="fill:none;stroke:#000000;stroke-width:9.5903616px;stroke-linecap:butt;stroke-linejoin:miter;stroke-miterlimit:10;stroke-dasharray:none;stroke-opacity:1;" />
  <path
     id="path19"
     d="  M 145.45381,188.61044   L 193.40562,188.61044  "
     style="fill:none;stroke:#000000;stroke-width:9.5903616px;stroke-linecap:butt;stroke-linejoin:miter;stroke-miterlimit:10;stroke-dasharray:none;stroke-opacity:1;" />
  <path
     id="path21"
     d="  M 303.69477,145.45381   C 303.69477,156.08313 295.14337,164.63454 284.51405,164.63454   C 273.92469,164.63454 265.33333,156.08313 265.33333,145.45381   C 265.33333,134.86446 273.92469,126.27309 284.51405,126.27309   C 295.14337,126.27309 303.69477,134.86446 303.69477,145.45381  "
     style="fill:none;stroke:#000000;stroke-width:9.5903616px;stroke-linecap:butt;stroke-linejoin:miter;stroke-miterlimit:10;stroke-dasharray:none;stroke-opacity:1;" />
  <path
     id="path23"
     d="  M 284.51405,164.63454   L 284.51405,255.74297  "
     style="fill:none;stroke:#000000;stroke-width:9.5903616px;stroke-linecap:butt;stroke-linejoin:miter;stroke-miterlimit:10;stroke-dasharray:none;stroke-opacity:1;" />
  <path
     id="path25"
     d="  M 260.53815,188.61044   L 308.48996,188.61044  "
     style="fill:none;stroke:#000000;stroke-width:9.5903616px;stroke-linecap:butt;stroke-linejoin:miter;stroke-miterlimit:10;stroke-dasharray:none;stroke-opacity:1;" />
  <path
     id="path27"
     d="  M 167.19197,112.16727   L 167.19197,77.841766   L 171.74739,77.841766   L 171.74739,108.09136   L 188.6504,108.09136   L 188.6504,112.16727   z  M 192.68634,95.424095   C 192.68634,89.749798 194.20482,85.274296 197.28172,82.077509   C 200.31867,78.840762 204.2747,77.242368 209.10984,77.242368   C 212.30662,77.242368 215.14377,78.001605 217.7012,79.480119   C 220.21867,80.998593 222.1767,83.116465 223.49538,85.833734   C 224.85401,88.551003 225.49337,91.62791 225.49337,95.024497   C 225.49337,98.540962 224.81405,101.65783 223.41546,104.3751   C 221.9769,107.13233 220.01887,109.21024 217.42148,110.60883   C 214.86405,112.04739 212.06686,112.72671 209.10984,112.72671   C 205.87309,112.72671 202.95602,111.96747 200.43855,110.40903   C 197.88112,108.8506 195.96305,106.73273 194.64437,104.01546   C 193.3257,101.29819 192.68634,98.461043 192.68634,95.424095   z  M 197.36164,95.504015   C 197.36164,99.659838 198.48052,102.89658 200.71827,105.29418   C 202.91606,107.65181 205.71325,108.8506 209.06988,108.8506   C 212.50642,108.8506 215.30361,107.65181 217.5014,105.25422   C 219.73915,102.85663 220.81807,99.420079 220.81807,95.024497   C 220.81807,92.227308 220.33855,89.789758 219.41947,87.711846   C 218.46044,85.633935 217.1018,83.995581 215.26365,82.876706   C 213.46546,81.71787 211.38755,81.118473 209.1498,81.118473   C 205.91305,81.118473 203.15582,82.237348 200.83815,84.435139   C 198.52048,86.67289 197.36164,90.349195 197.36164,95.504015   z  M 229.96887,95.424095   C 229.96887,89.749798 231.52731,85.274296 234.56425,82.077509   C 237.64116,78.840762 241.59719,77.242368 246.43233,77.242368   C 249.58915,77.242368 252.4263,78.001605 254.98373,79.480119   C 257.54116,80.998593 259.45923,83.116465 260.81787,85.833734   C 262.13654,88.551003 262.81586,91.62791 262.81586,95.024497   C 262.81586,98.540962 262.09658,101.65783 260.69799,104.3751   C 259.29939,107.13233 257.3014,109.21024 254.74397,110.60883   C 252.14658,112.04739 249.38935,112.72671 246.39237,112.72671   C 243.15562,112.72671 240.27851,111.96747 237.72108,110.40903   C 235.20361,108.8506 233.24558,106.73273 231.9269,104.01546   C 230.64819,101.29819 229.96887,98.461043 229.96887,95.424095   z  M 234.64417,95.504015   C 234.64417,99.659838 235.76305,102.89658 238.0008,105.29418   C 240.23855,107.65181 242.99578,108.8506 246.35241,108.8506   C 249.78895,108.8506 252.58614,107.65181 254.82389,105.25422   C 257.02168,102.85663 258.14056,99.420079 258.14056,95.024497   C 258.14056,92.227308 257.66104,89.789758 256.702,87.711846   C 255.74297,85.633935 254.38433,83.995581 252.54618,82.876706   C 250.74799,81.71787 248.71004,81.118473 246.43233,81.118473   C 243.23554,81.118473 240.43835,82.237348 238.12068,84.435139   C 235.80301,86.67289 234.64417,90.349195 234.64417,95.504015   z  M 277.4012,112.16727   L 277.4012,81.87771   L 266.09257,81.87771   L 266.09257,77.841766   L 293.30522,77.841766   L 293.30522,81.87771   L 281.91666,81.87771   L 281.91666,112.16727   z "
     style="fill:#000000;fill-rule:evenodd;fill-opacity:1;stroke:none;" />
</svg>
