<?xml version="1.0" encoding="UTF-8" standalone="no"?>
<svg
   xmlns:dc="http://purl.org/dc/elements/1.1/"
   xmlns:cc="http://creativecommons.org/ns#"
   xmlns:rdf="http://www.w3.org/1999/02/22-rdf-syntax-ns#"
   xmlns:svg="http://www.w3.org/2000/svg"
   xmlns="http://www.w3.org/2000/svg"
   id="svg29"
   height="130.27mm"
   width="130.27mm"
   version="1.0">
  <metadata
     id="metadata33">
    <rdf:RDF>
      <cc:Work
         rdf:about="">
        <dc:format>image/svg+xml</dc:format>
        <dc:type
           rdf:resource="http://purl.org/dc/dcmitype/StillImage" />
      </cc:Work>
    </rdf:RDF>
  </metadata>
  <defs
     id="defs3">
    <pattern
       y="0"
       x="0"
       height="6"
       width="6"
       patternUnits="userSpaceOnUse"
       id="EMFhbasepattern" />
  </defs>
  <path
     id="path5"
     d="  M 164.63454,327.67068   C 164.63454,437.95983 327.67068,437.95983 327.67068,327.67068   C 437.95983,327.67068 437.95983,164.63454 327.67068,164.63454   C 327.67068,54.345381 164.63454,54.345381 164.63454,164.63454   C 54.345381,164.63454 54.345381,327.67068 164.63454,327.67068   z "
     style="fill:#ffff80;fill-rule:evenodd;fill-opacity:1;stroke:none;" />
  <path
     id="path7"
     d="  M 164.63454,327.67068   C 164.63454,437.95983 327.67068,437.95983 327.67068,327.67068   C 437.95983,327.67068 437.95983,164.63454 327.67068,164.63454   C 327.67068,54.345381 164.63454,54.345381 164.63454,164.63454   C 54.345381,164.63454 54.345381,327.67068 164.63454,327.67068  "
     style="fill:none;stroke:#000000;stroke-width:9.5903616px;stroke-linecap:butt;stroke-linejoin:miter;stroke-miterlimit:10;stroke-dasharray:none;stroke-opacity:1;" />
  <path
     id="path9"
     d="  M 265.33333,241.35743   C 265.33333,251.98674 256.78192,260.53815 246.15261,260.53815   C 235.56325,260.53815 226.97188,251.98674 226.97188,241.35743   C 226.97188,230.76807 235.56325,222.1767 246.15261,222.1767   C 256.78192,222.1767 265.33333,230.76807 265.33333,241.35743  "
     style="fill:none;stroke:#000000;stroke-width:9.5903616px;stroke-linecap:butt;stroke-linejoin:miter;stroke-miterlimit:10;stroke-dasharray:none;stroke-opacity:1;" />
  <path
     id="path11"
     d="  M 246.15261,260.53815   L 246.15261,351.64658  "
     style="fill:none;stroke:#000000;stroke-width:9.5903616px;stroke-linecap:butt;stroke-linejoin:miter;stroke-miterlimit:10;stroke-dasharray:none;stroke-opacity:1;" />
  <path
     id="path13"
     d="  M 222.1767,284.51405   L 270.12851,284.51405  "
     style="fill:none;stroke:#000000;stroke-width:9.5903616px;stroke-linecap:butt;stroke-linejoin:miter;stroke-miterlimit:10;stroke-dasharray:none;stroke-opacity:1;" />
  <path
     id="path15"
     d="  M 207.79116,222.1767   C 207.79116,232.80602 199.23976,241.35743 188.61044,241.35743   C 178.02108,241.35743 169.42972,232.80602 169.42972,222.1767   C 169.42972,211.58735 178.02108,202.99598 188.61044,202.99598   C 199.23976,202.99598 207.79116,211.58735 207.79116,222.1767  "
     style="fill:none;stroke:#000000;stroke-width:9.5903616px;stroke-linecap:butt;stroke-linejoin:miter;stroke-miterlimit:10;stroke-dasharray:none;stroke-opacity:1;" />
  <path
     id="path17"
     d="  M 188.61044,241.35743   L 188.61044,332.46586  "
     style="fill:none;stroke:#000000;stroke-width:9.5903616px;stroke-linecap:butt;stroke-linejoin:miter;stroke-miterlimit:10;stroke-dasharray:none;stroke-opacity:1;" />
  <path
     id="path19"
     d="  M 164.63454,265.33333   L 212.58634,265.33333  "
     style="fill:none;stroke:#000000;stroke-width:9.5903616px;stroke-linecap:butt;stroke-linejoin:miter;stroke-miterlimit:10;stroke-dasharray:none;stroke-opacity:1;" />
  <path
     id="path21"
     d="  M 322.8755,222.1767   C 322.8755,232.80602 314.32409,241.35743 303.69477,241.35743   C 293.10542,241.35743 284.51405,232.80602 284.51405,222.1767   C 284.51405,211.58735 293.10542,202.99598 303.69477,202.99598   C 314.32409,202.99598 322.8755,211.58735 322.8755,222.1767  "
     style="fill:none;stroke:#000000;stroke-width:9.5903616px;stroke-linecap:butt;stroke-linejoin:miter;stroke-miterlimit:10;stroke-dasharray:none;stroke-opacity:1;" />
  <path
     id="path23"
     d="  M 303.69477,241.35743   L 303.69477,332.46586  "
     style="fill:none;stroke:#000000;stroke-width:9.5903616px;stroke-linecap:butt;stroke-linejoin:miter;stroke-miterlimit:10;stroke-dasharray:none;stroke-opacity:1;" />
  <path
     id="path25"
     d="  M 279.71887,265.33333   L 327.67068,265.33333  "
     style="fill:none;stroke:#000000;stroke-width:9.5903616px;stroke-linecap:butt;stroke-linejoin:miter;stroke-miterlimit:10;stroke-dasharray:none;stroke-opacity:1;" />
  <path
     id="path27"
     d="  M 186.37269,188.89016   L 186.37269,154.56466   L 190.92811,154.56466   L 190.92811,184.81425   L 207.83112,184.81425   L 207.83112,188.89016   z  M 211.86707,172.14699   C 211.86707,166.47269 213.38554,161.99719 216.46245,158.8004   C 219.49939,155.56365 223.45542,153.96526 228.29056,153.96526   C 231.48735,153.96526 234.32449,154.7245 236.88192,156.20301   C 239.39939,157.72148 241.35743,159.83936 242.6761,162.55662   C 244.03474,165.27389 244.67409,168.3508 244.67409,171.74739   C 244.67409,175.26385 243.99478,178.38072 242.59618,181.09799   C 241.15763,183.85522 239.19959,185.93313 236.60221,187.33172   C 234.04478,188.77028 231.24759,189.4496 228.29056,189.4496   C 225.05381,189.4496 222.13674,188.69036 219.61927,187.13193   C 217.06184,185.57349 215.14377,183.45562 213.8251,180.73835   C 212.50642,178.02108 211.86707,175.18393 211.86707,172.14699   z  M 216.54237,172.22691   C 216.54237,176.38273 217.66124,179.61948 219.89899,182.01707   C 222.09678,184.3747 224.89397,185.57349 228.2506,185.57349   C 231.68715,185.57349 234.48433,184.3747 236.68213,181.97711   C 238.91988,179.57952 239.99879,176.14297 239.99879,171.74739   C 239.99879,168.9502 239.51927,166.51265 238.6002,164.43474   C 237.64116,162.35682 236.28253,160.71847 234.44437,159.5996   C 232.64618,158.44076 230.56827,157.84136 228.33052,157.84136   C 225.09377,157.84136 222.33654,158.96024 220.01887,161.15803   C 217.7012,163.39578 216.54237,167.07209 216.54237,172.22691   z  M 249.14959,172.14699   C 249.14959,166.47269 250.70803,161.99719 253.74498,158.8004   C 256.82188,155.56365 260.77791,153.96526 265.61305,153.96526   C 268.76988,153.96526 271.60702,154.7245 274.16445,156.20301   C 276.72188,157.72148 278.63996,159.83936 279.99859,162.55662   C 281.31727,165.27389 281.99658,168.3508 281.99658,171.74739   C 281.99658,175.26385 281.27731,178.38072 279.87871,181.09799   C 278.48012,183.85522 276.48212,185.93313 273.92469,187.33172   C 271.32731,188.77028 268.57008,189.4496 265.57309,189.4496   C 262.33634,189.4496 259.45923,188.69036 256.9018,187.13193   C 254.38433,185.57349 252.4263,183.45562 251.10763,180.73835   C 249.82891,178.02108 249.14959,175.18393 249.14959,172.14699   z  M 253.8249,172.22691   C 253.8249,176.38273 254.94377,179.61948 257.18152,182.01707   C 259.41927,184.3747 262.1765,185.57349 265.53313,185.57349   C 268.96967,185.57349 271.76686,184.3747 274.00461,181.97711   C 276.20241,179.57952 277.32128,176.14297 277.32128,171.74739   C 277.32128,168.9502 276.84176,166.51265 275.88273,164.43474   C 274.92369,162.35682 273.56506,160.71847 271.7269,159.5996   C 269.92871,158.44076 267.89076,157.84136 265.61305,157.84136   C 262.41626,157.84136 259.61907,158.96024 257.3014,161.15803   C 254.98373,163.39578 253.8249,167.07209 253.8249,172.22691   z  M 296.58192,188.89016   L 296.58192,158.6006   L 285.27329,158.6006   L 285.27329,154.56466   L 312.48594,154.56466   L 312.48594,158.6006   L 301.09739,158.6006   L 301.09739,188.89016   z "
     style="fill:#000000;fill-rule:evenodd;fill-opacity:1;stroke:none;" />
</svg>
