<?xml version="1.0" encoding="UTF-8" standalone="no"?>
<svg
   xmlns:dc="http://purl.org/dc/elements/1.1/"
   xmlns:cc="http://creativecommons.org/ns#"
   xmlns:rdf="http://www.w3.org/1999/02/22-rdf-syntax-ns#"
   xmlns:svg="http://www.w3.org/2000/svg"
   xmlns="http://www.w3.org/2000/svg"
   id="svg7"
   height="112.9mm"
   width="112.9mm"
   version="1.0">
  <metadata
     id="metadata11">
    <rdf:RDF>
      <cc:Work
         rdf:about="">
        <dc:format>image/svg+xml</dc:format>
        <dc:type
           rdf:resource="http://purl.org/dc/dcmitype/StillImage" />
      </cc:Work>
    </rdf:RDF>
  </metadata>
  <defs
     id="defs3">
    <pattern
       y="0"
       x="0"
       height="6"
       width="6"
       patternUnits="userSpaceOnUse"
       id="EMFhbasepattern" />
  </defs>
  <path
     id="path5"
     d="  M 310.92145,253.48042   L 153.9793,345.5461   L 0.13369008,253.48042   z  M 50.509252,7.455846   L 50.509252,-0.54986545   L 253.52201,-0.54986545   L 253.52201,7.455846   z  M 75.281642,180.10732   L 75.281642,99.370476   L 84.87339,99.370476   L 84.87339,171.30859   L 123.24038,171.30859   L 123.24038,180.10732   z  M 151.22261,254.23568   L 151.22261,-0.54986545   L 158.39754,-0.54986545   L 158.39754,254.23568   z  M 234.60285,151.4076   L 245.28972,154.08876   C 240.49385,171.42188 229.80698,180.10732 213.3424,180.10732   C 197.33098,180.10732 186.56858,173.42331 180.97969,160.09304   C 178.18524,153.44679 176.78802,146.38515 176.78802,138.94588   C 176.78802,122.02815 182.60349,110.39721 194.30996,103.97754   C 199.86109,100.88099 206.20523,99.370476 213.30464,99.370476   C 229.54264,99.370476 239.70083,106.99856 243.77921,122.21696   L 233.43221,124.55826   C 230.10908,113.60705 223.3873,108.16921 213.19135,108.16921   C 195.85823,108.16921 187.17279,118.40292 187.17279,138.94588   C 187.17279,160.50843 195.44284,171.30859 212.0207,171.30859   C 224.52019,171.30859 232.03498,164.7001 234.60285,151.4076   z "
     style="fill:#ff0000;fill-rule:nonzero;fill-opacity:1;stroke:none;" />
</svg>
