<?xml version="1.0" encoding="UTF-8" standalone="no"?>
<svg
   xmlns:dc="http://purl.org/dc/elements/1.1/"
   xmlns:cc="http://creativecommons.org/ns#"
   xmlns:rdf="http://www.w3.org/1999/02/22-rdf-syntax-ns#"
   xmlns:svg="http://www.w3.org/2000/svg"
   xmlns="http://www.w3.org/2000/svg"
   id="svg15"
   height="112.9mm"
   width="112.9mm"
   version="1.0">
  <metadata
     id="metadata19">
    <rdf:RDF>
      <cc:Work
         rdf:about="">
        <dc:format>image/svg+xml</dc:format>
        <dc:type
           rdf:resource="http://purl.org/dc/dcmitype/StillImage" />
      </cc:Work>
    </rdf:RDF>
  </metadata>
  <defs
     id="defs3">
    <pattern
       y="0"
       x="0"
       height="6"
       width="6"
       patternUnits="userSpaceOnUse"
       id="EMFhbasepattern" />
  </defs>
  <path
     id="path5"
     d="  M 451.74134,451.72623   L 600.99177,451.72623   L 600.99177,643.62504   L 451.74134,643.62504   L 451.74134,451.72623   z "
     style="fill:none;stroke:#000000;stroke-width:5.3263254px;stroke-linecap:butt;stroke-linejoin:miter;stroke-miterlimit:112;stroke-dasharray:none;stroke-opacity:1;" />
  <path
     id="path7"
     d="  M 451.74134,644.72053   L 526.34767,744.90078   L 600.99177,644.72053  "
     style="fill:none;stroke:#000000;stroke-width:5.3263254px;stroke-linecap:butt;stroke-linejoin:miter;stroke-miterlimit:112;stroke-dasharray:none;stroke-opacity:1;" />
  <path
     id="path9"
     d="  M 458.61645,515.71768   L 458.61645,469.93395   L 467.72031,469.93395   L 478.56184,502.34521   C 479.58178,505.36723 480.29951,507.63376 480.75281,509.10699   C 481.28167,507.44488 482.11272,504.98948 483.20821,501.77858   L 494.16306,469.93395   L 502.32254,469.93395   L 502.32254,515.71768   L 496.46736,515.71768   L 496.46736,477.37569   L 483.17043,515.71768   L 477.69301,515.71768   L 464.47163,476.73351   L 464.47163,515.71768   L 458.61645,515.71768   z "
     style="fill:#000000;fill-rule:nonzero;fill-opacity:1;stroke:#000000;stroke-width:1.0577101px;stroke-linecap:butt;stroke-linejoin:miter;stroke-miterlimit:112;stroke-dasharray:none;stroke-opacity:1;" />
  <path
     id="path11"
     d="  M 544.81982,499.66316   L 550.86388,501.17417   C 549.61729,506.16052 547.31299,509.93805 544.02654,512.58233   C 540.74008,515.18883 536.69812,516.47319 531.93842,516.47319   C 526.98985,516.47319 522.98566,515.49103 519.88808,513.48894   C 516.7905,511.44907 514.44843,508.54036 512.82409,504.72505   C 511.19975,500.94752 510.40647,496.83 510.40647,492.48584   C 510.40647,487.68837 511.31308,483.53308 513.12629,479.98219   C 514.93951,476.43131 517.54601,473.74926 520.90802,471.89827   C 524.27002,470.04728 527.97201,469.14067 532.01397,469.14067   C 536.58479,469.14067 540.43788,470.3117 543.57323,472.616   C 546.70859,474.95807 548.86178,478.24453 550.10837,482.47537   L 544.13986,483.87306   C 543.08215,480.54882 541.53336,478.1312 539.49349,476.58241   C 537.4914,475.0714 534.96045,474.31589 531.90065,474.31589   C 528.38754,474.31589 525.44106,475.14695 523.06121,476.84684   C 520.71914,478.54673 519.05702,480.81325 518.07486,483.6464   C 517.13048,486.47956 516.6394,489.42603 516.6394,492.44806   C 516.6394,496.33892 517.20603,499.73871 518.33929,502.64741   C 519.47255,505.55611 521.24799,507.70931 523.62784,509.14477   C 526.04547,510.58023 528.61419,511.29797 531.40957,511.29797   C 534.80935,511.29797 537.68028,510.31581 540.06012,508.35149   C 542.4022,506.42494 543.98876,503.51624 544.81982,499.66316   L 544.81982,499.66316   z "
     style="fill:#000000;fill-rule:nonzero;fill-opacity:1;stroke:#000000;stroke-width:1.0577101px;stroke-linecap:butt;stroke-linejoin:miter;stroke-miterlimit:112;stroke-dasharray:none;stroke-opacity:1;" />
  <path
     id="path13"
     d="  M 558.38117,515.71768   L 558.38117,469.93395   L 575.64451,469.93395   C 578.70431,469.93395 581.00861,470.04728 582.59518,470.34948   C 584.8617,470.72723 586.75047,471.44496 588.26148,472.50267   C 589.77249,473.56038 591.01908,475.03362 591.92569,476.92239   C 592.87007,478.81116 593.32338,480.8888 593.32338,483.15532   C 593.32338,487.04619 592.07679,490.33264 589.62139,493.05247   C 587.12822,495.73452 582.67073,497.09443 576.17336,497.09443   L 564.42523,497.09443   L 564.42523,515.71768   L 558.38117,515.71768   z  M 564.42523,491.69255   L 576.28669,491.69255   C 580.17755,491.69255 582.97293,490.97482 584.59727,489.50158   C 586.25939,488.02835 587.09044,485.98848 587.09044,483.3442   C 587.09044,481.41766 586.59936,479.79332 585.6172,478.4334   C 584.67282,477.07349 583.38846,476.16688 581.80189,475.71358   C 580.78196,475.44915 578.89319,475.33583 576.13559,475.33583   L 564.42523,475.33583   L 564.42523,491.69255   z "
     style="fill:#000000;fill-rule:nonzero;fill-opacity:1;stroke:#000000;stroke-width:1.0577101px;stroke-linecap:butt;stroke-linejoin:miter;stroke-miterlimit:112;stroke-dasharray:none;stroke-opacity:1;" />
</svg>
