<?xml version="1.0" encoding="UTF-8" standalone="no"?>
<svg
   xmlns:dc="http://purl.org/dc/elements/1.1/"
   xmlns:cc="http://creativecommons.org/ns#"
   xmlns:rdf="http://www.w3.org/1999/02/22-rdf-syntax-ns#"
   xmlns:svg="http://www.w3.org/2000/svg"
   xmlns="http://www.w3.org/2000/svg"
   id="svg15"
   height="112.9mm"
   width="112.9mm"
   version="1.0">
  <metadata
     id="metadata19">
    <rdf:RDF>
      <cc:Work
         rdf:about="">
        <dc:format>image/svg+xml</dc:format>
        <dc:type
           rdf:resource="http://purl.org/dc/dcmitype/StillImage" />
      </cc:Work>
    </rdf:RDF>
  </metadata>
  <defs
     id="defs3">
    <pattern
       y="0"
       x="0"
       height="6"
       width="6"
       patternUnits="userSpaceOnUse"
       id="EMFhbasepattern" />
  </defs>
  <path
     id="path5"
     d="  M 391.92062,391.38808   L 541.15652,391.38808   L 541.15652,583.2682   L 391.92062,583.2682   L 391.92062,391.38808   z "
     style="fill:none;stroke:#ff0000;stroke-width:5.3258066px;stroke-linecap:butt;stroke-linejoin:miter;stroke-miterlimit:112;stroke-dasharray:none;stroke-opacity:1;" />
  <path
     id="path7"
     d="  M 391.92062,584.36358   L 466.51969,684.53407   L 541.15652,584.36358  "
     style="fill:none;stroke:#ff0000;stroke-width:5.3258066px;stroke-linecap:butt;stroke-linejoin:miter;stroke-miterlimit:112;stroke-dasharray:none;stroke-opacity:1;" />
  <path
     id="path9"
     d="  M 398.79507,455.3733   L 398.79507,409.59403   L 407.89804,409.59403   L 418.73851,442.00213   C 419.75835,445.02386 420.47601,447.29016 420.92927,448.76326   C 421.45807,447.1013 422.28905,444.64614 423.38443,441.43555   L 434.33822,409.59403   L 442.4969,409.59403   L 442.4969,455.3733   L 436.64229,455.3733   L 436.64229,417.03505   L 423.34666,455.3733   L 417.86976,455.3733   L 404.64968,416.39293   L 404.64968,455.3733   L 398.79507,455.3733   z "
     style="fill:#ff0000;fill-rule:nonzero;fill-opacity:1;stroke:#ff0000;stroke-width:1.0576069px;stroke-linecap:butt;stroke-linejoin:miter;stroke-miterlimit:112;stroke-dasharray:none;stroke-opacity:1;" />
  <path
     id="path11"
     d="  M 484.99004,439.32034   L 491.0335,440.8312   C 489.78704,445.81706 487.48297,449.59423 484.19683,452.23825   C 480.91069,454.8445 476.86912,456.12873 472.10989,456.12873   C 467.1618,456.12873 463.15801,455.14667 460.06073,453.14477   C 456.96345,451.1051 454.62161,448.19668 452.99742,444.38174   C 451.37324,440.60457 450.58004,436.48746 450.58004,432.14372   C 450.58004,427.34671 451.48656,423.19183 453.2996,419.64129   C 455.11264,416.09075 457.71888,413.40896 461.08056,411.55815   C 464.44224,409.70734 468.14387,408.80082 472.18544,408.80082   C 476.75581,408.80082 480.60852,409.97174 483.74357,412.27581   C 486.87862,414.61766 489.03161,417.90379 490.27807,422.13422   L 484.31015,423.53177   C 483.25254,420.20787 481.7039,417.79048 479.66423,416.24184   C 477.66233,414.73097 475.13163,413.97554 472.07212,413.97554   C 468.55936,413.97554 465.61316,414.80652 463.23355,416.50624   C 460.8917,418.20597 459.22975,420.47227 458.24769,423.30514   C 457.3034,426.13802 456.81236,429.08421 456.81236,432.10595   C 456.81236,435.99643 457.37894,439.39588 458.51209,442.3043   C 459.64524,445.21272 461.42051,447.3657 463.80012,448.80103   C 466.21751,450.23635 468.78599,450.95401 471.58109,450.95401   C 474.98054,450.95401 477.85119,449.97195 480.2308,448.00782   C 482.57265,446.08147 484.15906,443.17305 484.99004,439.32034   L 484.99004,439.32034   z "
     style="fill:#ff0000;fill-rule:nonzero;fill-opacity:1;stroke:#ff0000;stroke-width:1.0576069px;stroke-linecap:butt;stroke-linejoin:miter;stroke-miterlimit:112;stroke-dasharray:none;stroke-opacity:1;" />
  <path
     id="path13"
     d="  M 498.55007,455.3733   L 498.55007,409.59403   L 515.81173,409.59403   C 518.87123,409.59403 521.1753,409.70734 522.76171,410.00951   C 525.02801,410.38723 526.9166,411.10489 528.42747,412.1625   C 529.93833,413.22011 531.1848,414.6932 532.09132,416.58179   C 533.03561,418.47037 533.48887,420.54781 533.48887,422.81411   C 533.48887,426.7046 532.24241,429.99073 529.78725,432.71029   C 527.29432,435.39208 522.83726,436.75186 516.34053,436.75186   L 504.59354,436.75186   L 504.59354,455.3733   L 498.55007,455.3733   z  M 504.59354,431.35051   L 516.45384,431.35051   C 520.34433,431.35051 523.13943,430.63285 524.76361,429.15975   C 526.42557,427.68666 527.25654,425.64699 527.25654,423.00297   C 527.25654,421.07662 526.76551,419.45243 525.78345,418.09265   C 524.83916,416.73287 523.55492,415.82635 521.96851,415.37309   C 520.94867,415.10869 519.06009,414.99538 516.30276,414.99538   L 504.59354,414.99538   L 504.59354,431.35051   z "
     style="fill:#ff0000;fill-rule:nonzero;fill-opacity:1;stroke:#ff0000;stroke-width:1.0576069px;stroke-linecap:butt;stroke-linejoin:miter;stroke-miterlimit:112;stroke-dasharray:none;stroke-opacity:1;" />
</svg>
