<?xml version="1.0" encoding="UTF-8" standalone="no"?>
<svg
   xmlns:dc="http://purl.org/dc/elements/1.1/"
   xmlns:cc="http://creativecommons.org/ns#"
   xmlns:rdf="http://www.w3.org/1999/02/22-rdf-syntax-ns#"
   xmlns:svg="http://www.w3.org/2000/svg"
   xmlns="http://www.w3.org/2000/svg"
   id="svg15"
   height="112.9mm"
   width="112.9mm"
   version="1.0">
  <metadata
     id="metadata19">
    <rdf:RDF>
      <cc:Work
         rdf:about="">
        <dc:format>image/svg+xml</dc:format>
        <dc:type
           rdf:resource="http://purl.org/dc/dcmitype/StillImage" />
      </cc:Work>
    </rdf:RDF>
  </metadata>
  <defs
     id="defs3">
    <pattern
       y="0"
       x="0"
       height="6"
       width="6"
       patternUnits="userSpaceOnUse"
       id="EMFhbasepattern" />
  </defs>
  <path
     id="path5"
     d="  M 1055.3824,1055.5085   L 1203.488,1055.5085   L 1203.488,1246.2484   L 1055.3824,1246.2484   z "
     style="fill:none;stroke:#ffff00;stroke-width:5.3245535px;stroke-linecap:butt;stroke-linejoin:miter;stroke-miterlimit:282;stroke-dasharray:none;stroke-opacity:1;" />
  <path
     id="path7"
     d="  M 1055.3824,1248.4386   L 1129.9639,1348.5855   L 1204.5832,1248.4386  "
     style="fill:none;stroke:#ffff00;stroke-width:5.3245535px;stroke-linecap:butt;stroke-linejoin:miter;stroke-miterlimit:282;stroke-dasharray:none;stroke-opacity:1;" />
  <path
     id="path9"
     d="  M 1062.2552,1119.4787   L 1062.2552,1073.7102   L 1071.356,1073.7102   L 1082.194,1106.1107   C 1083.2136,1109.1317 1083.9311,1111.3975 1084.3842,1112.8702   C 1084.9129,1111.2086 1085.7437,1108.7541 1086.8388,1105.5442   L 1097.79,1073.7102   L 1105.9468,1073.7102   L 1105.9468,1119.4787   L 1100.0935,1119.4787   L 1100.0935,1081.1495   L 1086.801,1119.4787   L 1081.3254,1119.4787   L 1068.1084,1080.5075   L 1068.1084,1119.4787   z "
     style="fill:#ffff00;fill-rule:nonzero;fill-opacity:1;stroke:#ffff00;stroke-width:1.0573581px;stroke-linecap:butt;stroke-linejoin:miter;stroke-miterlimit:282;stroke-dasharray:none;stroke-opacity:1;" />
  <path
     id="path11"
     d="  M 1148.4299,1103.4295   L 1154.4719,1104.94   C 1153.2258,1109.9247 1150.9222,1113.701 1147.6369,1116.3444   C 1144.3515,1118.95 1140.3109,1120.2339 1135.5528,1120.2339   C 1130.6059,1120.2339 1126.603,1119.2521 1123.5065,1117.2507   C 1120.4099,1115.2115 1118.0686,1112.3038 1116.4448,1108.4897   C 1114.821,1104.7134 1114.028,1100.5973 1114.028,1096.2546   C 1114.028,1091.4587 1114.9343,1087.3048 1116.7469,1083.7551   C 1118.5595,1080.2054 1121.1652,1077.5242 1124.5261,1075.6739   C 1127.8869,1073.8235 1131.5877,1072.9172 1135.6283,1072.9172   C 1140.1976,1072.9172 1144.0494,1074.0878 1147.1837,1076.3913   C 1150.318,1078.7326 1152.4705,1082.018 1153.7167,1086.2474   L 1147.7502,1087.6447   C 1146.6928,1084.3215 1145.1445,1081.9047 1143.1053,1080.3564   C 1141.1039,1078.8459 1138.5738,1078.0907 1135.515,1078.0907   C 1132.0031,1078.0907 1129.0576,1078.9215 1126.6785,1080.6208   C 1124.3372,1082.3201 1122.6757,1084.5859 1121.6938,1087.4181   C 1120.7498,1090.2503 1120.2589,1093.1958 1120.2589,1096.2168   C 1120.2589,1100.1064 1120.8253,1103.505 1121.9582,1106.4128   C 1123.0911,1109.3205 1124.8659,1111.473 1127.245,1112.908   C 1129.6618,1114.3429 1132.2297,1115.0604 1135.0241,1115.0604   C 1138.4228,1115.0604 1141.2927,1114.0786 1143.6718,1112.1149   C 1146.0131,1110.189 1147.5991,1107.2813 1148.4299,1103.4295   z "
     style="fill:#ffff00;fill-rule:nonzero;fill-opacity:1;stroke:#ffff00;stroke-width:1.0573581px;stroke-linecap:butt;stroke-linejoin:miter;stroke-miterlimit:282;stroke-dasharray:none;stroke-opacity:1;" />
  <path
     id="path13"
     d="  M 1161.9867,1119.4787   L 1161.9867,1073.7102   L 1179.2443,1073.7102   C 1182.3031,1073.7102 1184.6067,1073.8235 1186.1927,1074.1256   C 1188.4585,1074.5032 1190.3466,1075.2207 1191.8571,1076.2781   C 1193.3676,1077.3354 1194.6138,1078.8082 1195.5201,1080.6963   C 1196.4642,1082.5844 1196.9173,1084.6614 1196.9173,1086.9272   C 1196.9173,1090.8167 1195.6711,1094.1021 1193.2166,1096.821   C 1190.7242,1099.5022 1186.2682,1100.8616 1179.773,1100.8616   L 1168.0288,1100.8616   L 1168.0288,1119.4787   z  M 1168.0288,1095.4616   L 1179.8863,1095.4616   C 1183.7759,1095.4616 1186.5703,1094.7441 1188.1941,1093.2713   C 1189.8557,1091.7986 1190.6865,1089.7594 1190.6865,1087.116   C 1190.6865,1085.1901 1190.1955,1083.5663 1189.2137,1082.2068   C 1188.2696,1080.8474 1186.9857,1079.941 1185.3997,1079.4879   C 1184.3801,1079.2236 1182.4919,1079.1103 1179.7353,1079.1103   L 1168.0288,1079.1103   z "
     style="fill:#ffff00;fill-rule:nonzero;fill-opacity:1;stroke:#ffff00;stroke-width:1.0573581px;stroke-linecap:butt;stroke-linejoin:miter;stroke-miterlimit:282;stroke-dasharray:none;stroke-opacity:1;" />
</svg>
