<?xml version="1.0" encoding="UTF-8" standalone="no"?>
<svg
   xmlns:dc="http://purl.org/dc/elements/1.1/"
   xmlns:cc="http://creativecommons.org/ns#"
   xmlns:rdf="http://www.w3.org/1999/02/22-rdf-syntax-ns#"
   xmlns:svg="http://www.w3.org/2000/svg"
   xmlns="http://www.w3.org/2000/svg"
   id="svg15"
   height="89.669998mm"
   width="120.11mm"
   version="1.0">
  <metadata
     id="metadata19">
    <rdf:RDF>
      <cc:Work
         rdf:about="">
        <dc:format>image/svg+xml</dc:format>
        <dc:type
           rdf:resource="http://purl.org/dc/dcmitype/StillImage" />
      </cc:Work>
    </rdf:RDF>
  </metadata>
  <defs
     id="defs3">
    <pattern
       y="0"
       x="0"
       height="6"
       width="6"
       patternUnits="userSpaceOnUse"
       id="EMFhbasepattern" />
  </defs>
  <path
     id="path5"
     d="  M 54.345381,54.345381   L 54.345381,284.51405   L 399.59839,284.51405   L 399.59839,54.345381   L 54.345381,54.345381   z "
     style="fill:#80e0ff;fill-rule:evenodd;fill-opacity:1;stroke:none;" />
  <path
     id="path7"
     d="  M 54.345381,54.345381   L 399.59839,54.345381   L 399.59839,284.51405   L 54.345381,284.51405   z "
     style="fill:none;stroke:#000000;stroke-width:9.5903616px;stroke-linecap:butt;stroke-linejoin:miter;stroke-miterlimit:10;stroke-dasharray:none;stroke-opacity:1;" />
  <path
     id="path9"
     d="  M 205.79317,115.60381   L 222.93594,70.968674   L 229.28955,70.968674   L 247.5512,115.60381   L 240.83795,115.60381   L 235.64317,102.05743   L 216.98192,102.05743   L 212.06686,115.60381   z  M 218.66024,97.262248   L 233.80502,97.262248   L 229.12972,84.914657   C 227.73112,81.158433 226.65221,78.081525 225.97289,75.643975   C 225.41345,78.521083 224.61425,81.358232 223.5753,84.19538   z "
     style="fill:#000000;fill-rule:evenodd;fill-opacity:1;stroke:none;" />
  <path
     id="path11"
     d="  M 140.65863,198.2008   L 140.65863,198.2008   L 179.02008,255.74297   L 274.92369,255.74297   L 313.28514,198.2008   L 140.65863,198.2008   L 274.92369,198.2008   L 226.97188,140.65863   L 226.97188,198.2008   z "
     style="fill:#ffffff;fill-rule:evenodd;fill-opacity:1;stroke:none;" />
  <path
     id="path13"
     d="  M 140.65863,198.2008   L 140.65863,198.2008   L 179.02008,255.74297   L 274.92369,255.74297   L 313.28514,198.2008   L 140.65863,198.2008   L 274.92369,198.2008   L 226.97188,140.65863   L 226.97188,198.2008   z "
     style="fill:none;stroke:#000000;stroke-width:9.5903616px;stroke-linecap:butt;stroke-linejoin:miter;stroke-miterlimit:10;stroke-dasharray:none;stroke-opacity:1;" />
</svg>
