<?xml version="1.0" encoding="UTF-8" standalone="no"?>
<svg
   xmlns:dc="http://purl.org/dc/elements/1.1/"
   xmlns:cc="http://creativecommons.org/ns#"
   xmlns:rdf="http://www.w3.org/1999/02/22-rdf-syntax-ns#"
   xmlns:svg="http://www.w3.org/2000/svg"
   xmlns="http://www.w3.org/2000/svg"
   id="svg11"
   height="116.73mm"
   width="116.73mm"
   version="1.0">
  <metadata
     id="metadata15">
    <rdf:RDF>
      <cc:Work
         rdf:about="">
        <dc:format>image/svg+xml</dc:format>
        <dc:type
           rdf:resource="http://purl.org/dc/dcmitype/StillImage" />
      </cc:Work>
    </rdf:RDF>
  </metadata>
  <defs
     id="defs3">
    <pattern
       y="0"
       x="0"
       height="6"
       width="6"
       patternUnits="userSpaceOnUse"
       id="EMFhbasepattern" />
  </defs>
  <path
     id="path5"
     d="  M 220.57831,386.49156   L 220.57831,386.49156   L 386.49156,220.57831   L 220.57831,54.665059   L 54.665059,220.57831   z "
     style="fill:#ff8080;fill-rule:evenodd;fill-opacity:1;stroke:none;" />
  <path
     id="path7"
     d="  M 220.57831,386.49156   L 220.57831,386.49156   L 386.49156,220.57831   L 220.57831,54.665059   L 54.665059,220.57831   z "
     style="fill:none;stroke:#000000;stroke-width:9.5903616px;stroke-linecap:butt;stroke-linejoin:miter;stroke-miterlimit:10;stroke-dasharray:none;stroke-opacity:1;" />
  <path
     id="path9"
     d="  M 134.66466,255.82289   L 134.66466,159.71948   L 153.80542,159.71948   L 176.54257,227.77108   C 178.66044,234.1247 180.17891,238.83996 181.13795,241.99678   C 182.21686,238.52028 183.93514,233.36546 186.25281,226.57229   L 209.26968,159.71948   L 226.37249,159.71948   L 226.37249,255.82289   L 214.10482,255.82289   L 214.10482,175.38373   L 186.17289,255.82289   L 174.70442,255.82289   L 146.93233,174.0251   L 146.93233,255.82289   z  M 236.32249,255.82289   L 273.24538,159.71948   L 286.9516,159.71948   L 326.27208,255.82289   L 311.80662,255.82289   L 300.57791,226.73213   L 260.41827,226.73213   L 249.82891,255.82289   z  M 264.05461,216.38253   L 296.66184,216.38253   L 286.63192,189.72931   C 283.55502,181.65743 281.27731,175.02409 279.79879,169.82931   C 278.6,175.98313 276.84176,182.09699 274.64397,188.17088   z "
     style="fill:#000000;fill-rule:evenodd;fill-opacity:1;stroke:none;" />
</svg>
