<?xml version="1.0" encoding="UTF-8" standalone="no"?>
<svg
   xmlns:dc="http://purl.org/dc/elements/1.1/"
   xmlns:cc="http://creativecommons.org/ns#"
   xmlns:rdf="http://www.w3.org/1999/02/22-rdf-syntax-ns#"
   xmlns:svg="http://www.w3.org/2000/svg"
   xmlns="http://www.w3.org/2000/svg"
   id="svg11"
   height="95.75mm"
   width="95.75mm"
   version="1.0">
  <metadata
     id="metadata15">
    <rdf:RDF>
      <cc:Work
         rdf:about="">
        <dc:format>image/svg+xml</dc:format>
        <dc:type
           rdf:resource="http://purl.org/dc/dcmitype/StillImage" />
      </cc:Work>
    </rdf:RDF>
  </metadata>
  <defs
     id="defs3">
    <pattern
       y="0"
       x="0"
       height="6"
       width="6"
       patternUnits="userSpaceOnUse"
       id="EMFhbasepattern" />
  </defs>
  <path
     id="path5"
     d="  M 54.345381,54.345381   L 54.345381,307.53092   L 307.53092,307.53092   L 307.53092,54.345381   L 54.345381,54.345381   z "
     style="fill:#aaffaa;fill-rule:evenodd;fill-opacity:1;stroke:none;" />
  <path
     id="path7"
     d="  M 54.345381,54.345381   L 307.53092,54.345381   L 307.53092,307.53092   L 54.345381,307.53092   z "
     style="fill:none;stroke:#000000;stroke-width:9.5903616px;stroke-linecap:butt;stroke-linejoin:miter;stroke-miterlimit:10;stroke-dasharray:none;stroke-opacity:1;" />
  <path
     id="path9"
     d="  M 95.024497,216.18273   L 95.024497,120.07932   L 114.16526,120.07932   L 136.90241,188.13092   C 139.02028,194.48454 140.53875,199.1998 141.49779,202.35662   C 142.5767,198.88012 144.29498,193.7253 146.61265,186.93213   L 169.62952,120.07932   L 186.73233,120.07932   L 186.73233,216.18273   L 174.46466,216.18273   L 174.46466,135.74357   L 146.53273,216.18273   L 135.06426,216.18273   L 107.29217,134.38494   L 107.29217,216.18273   z  M 196.68233,216.18273   L 233.60522,120.07932   L 247.31144,120.07932   L 286.63192,216.18273   L 272.16646,216.18273   L 260.93775,187.09197   L 220.77811,187.09197   L 210.18875,216.18273   z  M 224.41445,176.74237   L 257.02168,176.74237   L 246.99176,150.08915   C 243.91486,142.01727 241.63715,135.38393 240.15863,130.18915   C 238.95984,136.34297 237.2016,142.45683 235.00381,148.53072   z "
     style="fill:#000000;fill-rule:evenodd;fill-opacity:1;stroke:none;" />
</svg>
