<?xml version="1.0" encoding="UTF-8" standalone="no"?>
<svg
   xmlns:dc="http://purl.org/dc/elements/1.1/"
   xmlns:cc="http://creativecommons.org/ns#"
   xmlns:rdf="http://www.w3.org/1999/02/22-rdf-syntax-ns#"
   xmlns:svg="http://www.w3.org/2000/svg"
   xmlns="http://www.w3.org/2000/svg"
   id="svg29"
   height="102.18mm"
   width="95.75mm"
   version="1.0">
  <metadata
     id="metadata33">
    <rdf:RDF>
      <cc:Work
         rdf:about="">
        <dc:format>image/svg+xml</dc:format>
        <dc:type
           rdf:resource="http://purl.org/dc/dcmitype/StillImage" />
      </cc:Work>
    </rdf:RDF>
  </metadata>
  <defs
     id="defs3">
    <pattern
       y="0"
       x="0"
       height="6"
       width="6"
       patternUnits="userSpaceOnUse"
       id="EMFhbasepattern" />
  </defs>
  <path
     id="path5"
     d="  M 54.345381,78.640963   L 54.345381,331.8265   L 307.53092,331.8265   L 307.53092,78.640963   L 54.345381,78.640963   z "
     style="fill:#aaffaa;fill-rule:evenodd;fill-opacity:1;stroke:none;" />
  <path
     id="path7"
     d="  M 54.345381,78.640963   L 307.53092,78.640963   L 307.53092,331.8265   L 54.345381,331.8265   z "
     style="fill:none;stroke:#000000;stroke-width:9.5903616px;stroke-linecap:butt;stroke-linejoin:miter;stroke-miterlimit:10;stroke-dasharray:none;stroke-opacity:1;" />
  <path
     id="path9"
     d="  M 205.11385,213.38554   C 205.11385,241.03775 194.28474,263.45522 180.93815,263.45522   C 167.59156,263.45522 156.80241,241.03775 156.80241,213.38554   C 156.80241,185.77329 167.59156,163.35582 180.93815,163.35582   C 194.28474,163.35582 205.11385,185.77329 205.11385,213.38554   z "
     style="fill:#ffffff;fill-rule:evenodd;fill-opacity:1;stroke:none;" />
  <path
     id="path11"
     d="  M 205.11385,213.38554   C 205.11385,241.03775 194.28474,263.45522 180.93815,263.45522   C 167.59156,263.45522 156.80241,241.03775 156.80241,213.38554   C 156.80241,185.77329 167.59156,163.35582 180.93815,163.35582   C 194.28474,163.35582 205.11385,185.77329 205.11385,213.38554  "
     style="fill:none;stroke:#000000;stroke-width:8.6313248px;stroke-linecap:butt;stroke-linejoin:miter;stroke-miterlimit:10;stroke-dasharray:none;stroke-opacity:1;" />
  <path
     id="path13"
     d="  M 133.46586,165.91325   L 159.35984,191.80723  "
     style="fill:none;stroke:#000000;stroke-width:8.6313248px;stroke-linecap:butt;stroke-linejoin:miter;stroke-miterlimit:10;stroke-dasharray:none;stroke-opacity:1;" />
  <path
     id="path15"
     d="  M 202.51646,234.96385   L 228.41044,260.85783  "
     style="fill:none;stroke:#000000;stroke-width:8.6313248px;stroke-linecap:butt;stroke-linejoin:miter;stroke-miterlimit:10;stroke-dasharray:none;stroke-opacity:1;" />
  <path
     id="path17"
     d="  M 159.35984,234.96385   L 133.46586,260.85783  "
     style="fill:none;stroke:#000000;stroke-width:8.6313248px;stroke-linecap:butt;stroke-linejoin:miter;stroke-miterlimit:10;stroke-dasharray:none;stroke-opacity:1;" />
  <path
     id="path19"
     d="  M 228.41044,165.91325   L 202.51646,191.80723  "
     style="fill:none;stroke:#000000;stroke-width:8.6313248px;stroke-linecap:butt;stroke-linejoin:miter;stroke-miterlimit:10;stroke-dasharray:none;stroke-opacity:1;" />
  <path
     id="path21"
     d="  M 180.93815,262.61606   L 180.93815,306.61184  "
     style="fill:none;stroke:#000000;stroke-width:8.6313248px;stroke-linecap:butt;stroke-linejoin:miter;stroke-miterlimit:10;stroke-dasharray:none;stroke-opacity:1;" />
  <path
     id="path23"
     d="  M 167.99116,306.61184   L 193.88514,306.61184  "
     style="fill:none;stroke:#000000;stroke-width:8.6313248px;stroke-linecap:butt;stroke-linejoin:miter;stroke-miterlimit:10;stroke-dasharray:none;stroke-opacity:1;" />
  <path
     id="path25"
     d="  M 180.93815,102.61687   L 180.93815,150.56867  "
     style="fill:none;stroke:#000000;stroke-width:19.180723px;stroke-linecap:butt;stroke-linejoin:miter;stroke-miterlimit:10;stroke-dasharray:none;stroke-opacity:1;" />
  <path
     id="path27"
     d="  M 156.96225,126.59277   L 204.91405,126.59277  "
     style="fill:none;stroke:#000000;stroke-width:19.180723px;stroke-linecap:butt;stroke-linejoin:miter;stroke-miterlimit:10;stroke-dasharray:none;stroke-opacity:1;" />
</svg>
