<?xml version="1.0" encoding="UTF-8" standalone="no"?>
<svg
   xmlns:dc="http://purl.org/dc/elements/1.1/"
   xmlns:cc="http://creativecommons.org/ns#"
   xmlns:rdf="http://www.w3.org/1999/02/22-rdf-syntax-ns#"
   xmlns:svg="http://www.w3.org/2000/svg"
   xmlns="http://www.w3.org/2000/svg"
   id="svg19"
   height="116.73mm"
   width="116.73mm"
   version="1.0">
  <metadata
     id="metadata23">
    <rdf:RDF>
      <cc:Work
         rdf:about="">
        <dc:format>image/svg+xml</dc:format>
        <dc:type
           rdf:resource="http://purl.org/dc/dcmitype/StillImage" />
      </cc:Work>
    </rdf:RDF>
  </metadata>
  <defs
     id="defs3">
    <pattern
       y="0"
       x="0"
       height="6"
       width="6"
       patternUnits="userSpaceOnUse"
       id="EMFhbasepattern" />
  </defs>
  <path
     id="path5"
     d="  M 172.6265,43.156626   L 172.6265,100.69879   L 268.53012,100.69879   L 268.53012,43.156626   L 172.6265,43.156626   z "
     style="fill:#000000;fill-rule:evenodd;fill-opacity:1;stroke:none;" />
  <path
     id="path7"
     d="  M 220.57831,386.49156   L 220.57831,386.49156   L 386.49156,220.57831   L 220.57831,54.665059   L 54.665059,220.57831   L 220.57831,386.49156   z "
     style="fill:#ff8080;fill-rule:evenodd;fill-opacity:1;stroke:none;" />
  <path
     id="path9"
     d="  M 220.57831,386.49156   L 220.57831,386.49156   L 386.49156,220.57831   L 220.57831,54.665059   L 54.665059,220.57831   L 220.57831,386.49156  "
     style="fill:none;stroke:#000000;stroke-width:9.5903616px;stroke-linecap:butt;stroke-linejoin:miter;stroke-miterlimit:10;stroke-dasharray:none;stroke-opacity:1;" />
  <path
     id="path11"
     d="  M 223.81506,251.6271   L 223.81506,249.66907   C 223.81506,247.59116 225.33353,245.75301 227.21164,245.75301   C 229.52931,245.75301 232.08674,250.06867 232.08674,253.06566   L 232.08674,254.06465   C 232.08674,255.94277 231.04779,257.94076 229.16968,257.94076   C 226.25261,257.94076 223.81506,254.18453 223.81506,251.6271   z  M 186.29277,185.37369   L 198.96004,190.24879   L 199,172.58654   L 212.6263,177.06205   L 212.6263,194.1249   C 212.6263,195.64337 223.7751,199.51948 225.77309,199.95903   L 225.73313,219.05984   L 212.6263,214.58433   L 212.6263,232.56626   L 198.96004,227.2516   L 198.96004,210.18875   C 198.96004,208.59036 188.4506,204.55441 186.29277,204.35462   z  M 176.54257,292.0265   L 240.35843,313.96445   L 240.27851,160.79839   L 176.54257,139.1002   L 176.54257,292.0265   z "
     style="fill:#ffffff;fill-rule:evenodd;fill-opacity:1;stroke:none;" />
  <path
     id="path13"
     d="  M 186.29277,204.35462   C 188.4506,204.55441 198.96004,208.59036 198.96004,210.18875   L 198.96004,227.2516   L 212.6263,232.56626   L 212.6263,214.58433   L 225.73313,219.05984   L 225.77309,199.95903   C 223.7751,199.51948 212.6263,195.64337 212.6263,194.1249   L 212.6263,177.06205   L 199,172.58654   L 198.96004,190.24879   L 186.29277,185.37369   z "
     style="fill:#000000;fill-rule:evenodd;fill-opacity:1;stroke:none;" />
  <path
     id="path15"
     d="  M 223.81506,251.6271   C 223.81506,254.18453 226.25261,257.94076 229.16968,257.94076   C 231.04779,257.94076 232.08674,255.94277 232.08674,254.06465   L 232.08674,253.06566   C 232.08674,250.06867 229.52931,245.75301 227.21164,245.75301   C 225.33353,245.75301 223.81506,247.59116 223.81506,249.66907   z "
     style="fill:#000000;fill-rule:evenodd;fill-opacity:1;stroke:none;" />
  <path
     id="path17"
     d="  M 176.54257,139.1002   L 240.27851,160.79839   L 240.35843,313.96445   L 176.54257,292.0265   L 176.54257,139.1002   L 176.54257,139.1002  z    M 172.66646,294.98353   L 244.27449,319.79859   L 244.27449,294.46405   L 267.651,294.46405   L 267.651,132.74658   L 172.66646,132.74658   L 172.66646,294.98353   L 172.66646,294.98353  z   "
     style="fill:#000000;fill-rule:evenodd;fill-opacity:1;stroke:none;" />
</svg>
