<?xml version="1.0" encoding="UTF-8" standalone="no"?>
<svg
   xmlns:dc="http://purl.org/dc/elements/1.1/"
   xmlns:cc="http://creativecommons.org/ns#"
   xmlns:rdf="http://www.w3.org/1999/02/22-rdf-syntax-ns#"
   xmlns:svg="http://www.w3.org/2000/svg"
   xmlns="http://www.w3.org/2000/svg"
   id="svg19"
   height="95.75mm"
   width="95.75mm"
   version="1.0">
  <metadata
     id="metadata23">
    <rdf:RDF>
      <cc:Work
         rdf:about="">
        <dc:format>image/svg+xml</dc:format>
        <dc:type
           rdf:resource="http://purl.org/dc/dcmitype/StillImage" />
      </cc:Work>
    </rdf:RDF>
  </metadata>
  <defs
     id="defs3">
    <pattern
       y="0"
       x="0"
       height="6"
       width="6"
       patternUnits="userSpaceOnUse"
       id="EMFhbasepattern" />
  </defs>
  <path
     id="path5"
     d="  M 132.98634,15.983936   L 132.98634,54.345381   L 228.88996,54.345381   L 228.88996,15.983936   L 132.98634,15.983936   z "
     style="fill:#000000;fill-rule:evenodd;fill-opacity:1;stroke:none;" />
  <path
     id="path7"
     d="  M 54.345381,54.345381   L 54.345381,307.53092   L 307.53092,307.53092   L 307.53092,54.345381   L 54.345381,54.345381   z "
     style="fill:#aaffaa;fill-rule:evenodd;fill-opacity:1;stroke:none;" />
  <path
     id="path9"
     d="  M 54.345381,54.345381   L 307.53092,54.345381   L 307.53092,307.53092   L 54.345381,307.53092   z "
     style="fill:none;stroke:#000000;stroke-width:9.5903616px;stroke-linecap:butt;stroke-linejoin:miter;stroke-miterlimit:10;stroke-dasharray:none;stroke-opacity:1;" />
  <path
     id="path11"
     d="  M 184.1749,211.98694   L 184.1749,210.02891   C 184.1749,207.951 185.69337,206.11285 187.57148,206.11285   C 189.88915,206.11285 192.44658,210.42851 192.44658,213.4255   L 192.44658,214.42449   C 192.44658,216.30261 191.40763,218.3006 189.52952,218.3006   C 186.61245,218.3006 184.1749,214.54437 184.1749,211.98694   z  M 146.65261,145.73353   L 159.31988,150.60863   L 159.35984,132.94638   L 172.98614,137.42189   L 172.98614,154.48474   C 172.98614,156.00321 184.13494,159.87931 186.13293,160.31887   L 186.09297,179.41968   L 172.98614,174.94417   L 172.98614,192.9261   L 159.31988,187.61144   L 159.31988,170.54859   C 159.31988,168.9502 148.81044,164.91425 146.65261,164.71446   z  M 136.90241,252.38634   L 200.71827,274.32429   L 200.63835,121.15823   L 136.90241,99.460039   L 136.90241,252.38634   z "
     style="fill:#ffffff;fill-rule:evenodd;fill-opacity:1;stroke:none;" />
  <path
     id="path13"
     d="  M 146.65261,164.71446   C 148.81044,164.91425 159.31988,168.9502 159.31988,170.54859   L 159.31988,187.61144   L 172.98614,192.9261   L 172.98614,174.94417   L 186.09297,179.41968   L 186.13293,160.31887   C 184.13494,159.87931 172.98614,156.00321 172.98614,154.48474   L 172.98614,137.42189   L 159.35984,132.94638   L 159.31988,150.60863   L 146.65261,145.73353   z "
     style="fill:#000000;fill-rule:evenodd;fill-opacity:1;stroke:none;" />
  <path
     id="path15"
     d="  M 184.1749,211.98694   C 184.1749,214.54437 186.61245,218.3006 189.52952,218.3006   C 191.40763,218.3006 192.44658,216.30261 192.44658,214.42449   L 192.44658,213.4255   C 192.44658,210.42851 189.88915,206.11285 187.57148,206.11285   C 185.69337,206.11285 184.1749,207.951 184.1749,210.02891   z "
     style="fill:#000000;fill-rule:evenodd;fill-opacity:1;stroke:none;" />
  <path
     id="path17"
     d="  M 136.90241,99.460039   L 200.63835,121.15823   L 200.71827,274.32429   L 136.90241,252.38634   L 136.90241,99.460039   L 136.90241,99.460039  z    M 133.0263,255.34337   L 204.63433,280.15843   L 204.63433,254.82389   L 228.01084,254.82389   L 228.01084,93.106424   L 133.0263,93.106424   L 133.0263,255.34337   L 133.0263,255.34337  z   "
     style="fill:#000000;fill-rule:evenodd;fill-opacity:1;stroke:none;" />
</svg>
