<?xml version="1.0" encoding="UTF-8" standalone="no"?>
<svg
   xmlns:dc="http://purl.org/dc/elements/1.1/"
   xmlns:cc="http://creativecommons.org/ns#"
   xmlns:rdf="http://www.w3.org/1999/02/22-rdf-syntax-ns#"
   xmlns:svg="http://www.w3.org/2000/svg"
   xmlns="http://www.w3.org/2000/svg"
   id="svg19"
   height="89.669998mm"
   width="120.11mm"
   version="1.0">
  <metadata
     id="metadata23">
    <rdf:RDF>
      <cc:Work
         rdf:about="">
        <dc:format>image/svg+xml</dc:format>
        <dc:type
           rdf:resource="http://purl.org/dc/dcmitype/StillImage" />
      </cc:Work>
    </rdf:RDF>
  </metadata>
  <defs
     id="defs3">
    <pattern
       y="0"
       x="0"
       height="6"
       width="6"
       patternUnits="userSpaceOnUse"
       id="EMFhbasepattern" />
  </defs>
  <path
     id="path5"
     d="  M 179.02008,15.983936   L 179.02008,54.345381   L 274.92369,54.345381   L 274.92369,15.983936   L 179.02008,15.983936   z "
     style="fill:#000000;fill-rule:evenodd;fill-opacity:1;stroke:none;" />
  <path
     id="path7"
     d="  M 54.345381,54.345381   L 54.345381,284.51405   L 399.59839,284.51405   L 399.59839,54.345381   L 54.345381,54.345381   z "
     style="fill:#80e0ff;fill-rule:evenodd;fill-opacity:1;stroke:none;" />
  <path
     id="path9"
     d="  M 54.345381,54.345381   L 399.59839,54.345381   L 399.59839,284.51405   L 54.345381,284.51405   z "
     style="fill:none;stroke:#000000;stroke-width:9.5903616px;stroke-linecap:butt;stroke-linejoin:miter;stroke-miterlimit:10;stroke-dasharray:none;stroke-opacity:1;" />
  <path
     id="path11"
     d="  M 230.20863,200.47851   L 230.20863,198.52048   C 230.20863,196.44257 231.72711,194.60441 233.60522,194.60441   C 235.92289,194.60441 238.48032,198.92008 238.48032,201.91707   L 238.48032,202.91606   C 238.48032,204.79417 237.44136,206.79217 235.56325,206.79217   C 232.64618,206.79217 230.20863,203.03594 230.20863,200.47851   z  M 192.68634,134.2251   L 205.35361,139.1002   L 205.39357,121.43795   L 219.01988,125.91345   L 219.01988,142.9763   C 219.01988,144.49478 230.16867,148.37088 232.16666,148.81044   L 232.1267,167.91124   L 219.01988,163.43574   L 219.01988,181.41767   L 205.35361,176.10301   L 205.35361,159.04016   C 205.35361,157.44176 194.84417,153.40582 192.68634,153.20602   z  M 182.93614,240.87791   L 246.752,262.81586   L 246.67208,109.6498   L 182.93614,87.951605   L 182.93614,240.87791   z "
     style="fill:#ffffff;fill-rule:evenodd;fill-opacity:1;stroke:none;" />
  <path
     id="path13"
     d="  M 192.68634,153.20602   C 194.84417,153.40582 205.35361,157.44176 205.35361,159.04016   L 205.35361,176.10301   L 219.01988,181.41767   L 219.01988,163.43574   L 232.1267,167.91124   L 232.16666,148.81044   C 230.16867,148.37088 219.01988,144.49478 219.01988,142.9763   L 219.01988,125.91345   L 205.39357,121.43795   L 205.35361,139.1002   L 192.68634,134.2251   z "
     style="fill:#000000;fill-rule:evenodd;fill-opacity:1;stroke:none;" />
  <path
     id="path15"
     d="  M 230.20863,200.47851   C 230.20863,203.03594 232.64618,206.79217 235.56325,206.79217   C 237.44136,206.79217 238.48032,204.79417 238.48032,202.91606   L 238.48032,201.91707   C 238.48032,198.92008 235.92289,194.60441 233.60522,194.60441   C 231.72711,194.60441 230.20863,196.44257 230.20863,198.52048   z "
     style="fill:#000000;fill-rule:evenodd;fill-opacity:1;stroke:none;" />
  <path
     id="path17"
     d="  M 182.93614,87.951605   L 246.67208,109.6498   L 246.752,262.81586   L 182.93614,240.87791   L 182.93614,87.951605   L 182.93614,87.951605  z    M 179.06004,243.83494   L 250.66807,268.65   L 250.66807,243.31546   L 274.04457,243.31546   L 274.04457,81.597991   L 179.06004,81.597991   L 179.06004,243.83494   L 179.06004,243.83494  z   "
     style="fill:#000000;fill-rule:evenodd;fill-opacity:1;stroke:none;" />
</svg>
