<?xml version="1.0" encoding="UTF-8" standalone="no"?>
<svg
   xmlns:dc="http://purl.org/dc/elements/1.1/"
   xmlns:cc="http://creativecommons.org/ns#"
   xmlns:rdf="http://www.w3.org/1999/02/22-rdf-syntax-ns#"
   xmlns:svg="http://www.w3.org/2000/svg"
   xmlns="http://www.w3.org/2000/svg"
   id="svg15"
   height="116.73mm"
   width="116.73mm"
   version="1.0">
  <metadata
     id="metadata19">
    <rdf:RDF>
      <cc:Work
         rdf:about="">
        <dc:format>image/svg+xml</dc:format>
        <dc:type
           rdf:resource="http://purl.org/dc/dcmitype/StillImage" />
      </cc:Work>
    </rdf:RDF>
  </metadata>
  <defs
     id="defs3">
    <pattern
       y="0"
       x="0"
       height="6"
       width="6"
       patternUnits="userSpaceOnUse"
       id="EMFhbasepattern" />
  </defs>
  <path
     id="path5"
     d="  M 220.57831,386.49156   L 220.57831,386.49156   L 386.49156,220.57831   L 220.57831,54.665059   L 54.665059,220.57831   z "
     style="fill:#ff8080;fill-rule:evenodd;fill-opacity:1;stroke:none;" />
  <path
     id="path7"
     d="  M 220.57831,386.49156   L 220.57831,386.49156   L 386.49156,220.57831   L 220.57831,54.665059   L 54.665059,220.57831   z "
     style="fill:none;stroke:#000000;stroke-width:9.5903616px;stroke-linecap:butt;stroke-linejoin:miter;stroke-miterlimit:10;stroke-dasharray:none;stroke-opacity:1;" />
  <path
     id="path9"
     d="  M 158.24096,292.50602   L 158.24096,292.50602   L 119.87952,215.78313   L 167.83132,215.78313   L 167.83132,153.44578   L 273.3253,153.44578   L 273.3253,215.78313   L 321.2771,215.78313   L 282.91566,292.50602   z "
     style="fill:#ffffff;fill-rule:evenodd;fill-opacity:1;stroke:none;" />
  <path
     id="path11"
     d="  M 158.24096,292.50602   L 158.24096,292.50602   L 119.87952,215.78313   L 167.83132,215.78313   L 167.83132,153.44578   L 273.3253,153.44578   L 273.3253,215.78313   L 321.2771,215.78313   L 282.91566,292.50602   z "
     style="fill:none;stroke:#000000;stroke-width:9.5903616px;stroke-linecap:butt;stroke-linejoin:miter;stroke-miterlimit:10;stroke-dasharray:none;stroke-opacity:1;" />
  <path
     id="path13"
     d="  M 211.26767,248.67008   L 216.70221,250.02871   C 215.58333,254.50421 213.50542,257.94076 210.54839,260.25843   C 207.59136,262.61606 203.95502,263.81486 199.67931,263.81486   C 195.24377,263.81486 191.60743,262.89578 188.8502,261.09759   C 186.05301,259.29939 183.93514,256.66204 182.49658,253.2255   C 181.01807,249.82891 180.29879,246.11265 180.29879,242.19658   C 180.29879,237.92088 181.13795,234.16466 182.7763,230.96787   C 184.41466,227.77108 186.73233,225.33353 189.76927,223.69518   C 192.80622,222.01686 196.12289,221.21767 199.75923,221.21767   C 203.8751,221.21767 207.3516,222.25662 210.14879,224.33453   C 212.94598,226.45241 214.90401,229.40943 216.02289,233.20562   L 210.66827,234.48433   C 209.70923,231.48735 208.31064,229.28955 206.47249,227.93092   C 204.67429,226.57229 202.39658,225.85301 199.63935,225.85301   C 196.48253,225.85301 193.84518,226.61225 191.68735,228.13072   C 189.56948,229.64919 188.09096,231.68715 187.21184,234.24457   C 186.37269,236.802 185.93313,239.43935 185.93313,242.15662   C 185.93313,245.67309 186.45261,248.71004 187.4516,251.34739   C 188.49056,253.94478 190.04899,255.90281 192.20682,257.18152   C 194.36466,258.5002 196.72229,259.13955 199.1998,259.13955   C 202.2767,259.13955 204.83413,258.26044 206.95201,256.50221   C 209.06988,254.74397 210.50843,252.10662 211.26767,248.67008   z  M 218.9,263.09558   L 234.72409,221.89698   L 240.59819,221.89698   L 257.46124,263.09558   L 251.26747,263.09558   L 246.43233,250.62811   L 229.20964,250.62811   L 224.69417,263.09558   z  M 230.80803,246.19257   L 244.75401,246.19257   L 240.47831,234.76405   C 239.15964,231.32751 238.16064,228.4504 237.52128,226.25261   C 237.0018,228.88996 236.28253,231.48735 235.32349,234.08474   z "
     style="fill:#000000;fill-rule:evenodd;fill-opacity:1;stroke:none;" />
</svg>
