<?xml version="1.0" encoding="UTF-8" standalone="no"?>
<svg
   xmlns:dc="http://purl.org/dc/elements/1.1/"
   xmlns:cc="http://creativecommons.org/ns#"
   xmlns:rdf="http://www.w3.org/1999/02/22-rdf-syntax-ns#"
   xmlns:svg="http://www.w3.org/2000/svg"
   xmlns="http://www.w3.org/2000/svg"
   id="svg15"
   height="130.27mm"
   width="130.27mm"
   version="1.0">
  <metadata
     id="metadata19">
    <rdf:RDF>
      <cc:Work
         rdf:about="">
        <dc:format>image/svg+xml</dc:format>
        <dc:type
           rdf:resource="http://purl.org/dc/dcmitype/StillImage" />
      </cc:Work>
    </rdf:RDF>
  </metadata>
  <defs
     id="defs3">
    <pattern
       y="0"
       x="0"
       height="6"
       width="6"
       patternUnits="userSpaceOnUse"
       id="EMFhbasepattern" />
  </defs>
  <path
     id="path5"
     d="  M 164.63454,327.67068   C 164.63454,437.95983 327.67068,437.95983 327.67068,327.67068   C 437.95983,327.67068 437.95983,164.63454 327.67068,164.63454   C 327.67068,54.345381 164.63454,54.345381 164.63454,164.63454   C 54.345381,164.63454 54.345381,327.67068 164.63454,327.67068   z "
     style="fill:#ffff80;fill-rule:evenodd;fill-opacity:1;stroke:none;" />
  <path
     id="path7"
     d="  M 164.63454,327.67068   C 164.63454,437.95983 327.67068,437.95983 327.67068,327.67068   C 437.95983,327.67068 437.95983,164.63454 327.67068,164.63454   C 327.67068,54.345381 164.63454,54.345381 164.63454,164.63454   C 54.345381,164.63454 54.345381,327.67068 164.63454,327.67068  "
     style="fill:none;stroke:#000000;stroke-width:9.5903616px;stroke-linecap:butt;stroke-linejoin:miter;stroke-miterlimit:10;stroke-dasharray:none;stroke-opacity:1;" />
  <path
     id="path9"
     d="  M 183.81526,318.08032   L 183.81526,318.08032   L 145.45381,241.35743   L 193.40562,241.35743   L 193.40562,179.02008   L 298.89959,179.02008   L 298.89959,241.35743   L 346.8514,241.35743   L 308.48996,318.08032   z "
     style="fill:#ffffff;fill-rule:evenodd;fill-opacity:1;stroke:none;" />
  <path
     id="path11"
     d="  M 183.81526,318.08032   L 183.81526,318.08032   L 145.45381,241.35743   L 193.40562,241.35743   L 193.40562,179.02008   L 298.89959,179.02008   L 298.89959,241.35743   L 346.8514,241.35743   L 308.48996,318.08032   z "
     style="fill:none;stroke:#000000;stroke-width:9.5903616px;stroke-linecap:butt;stroke-linejoin:miter;stroke-miterlimit:10;stroke-dasharray:none;stroke-opacity:1;" />
  <path
     id="path13"
     d="  M 236.84196,274.24437   L 242.2765,275.60301   C 241.15763,280.07851 239.07972,283.51506 236.12269,285.83273   C 233.16566,288.19036 229.52931,289.38915 225.25361,289.38915   C 220.81807,289.38915 217.18172,288.47008 214.42449,286.67188   C 211.62731,284.87369 209.50943,282.23634 208.07088,278.7998   C 206.59237,275.40321 205.87309,271.68694 205.87309,267.77088   C 205.87309,263.49518 206.71225,259.73895 208.3506,256.54216   C 209.98895,253.34538 212.30662,250.90783 215.34357,249.26947   C 218.38052,247.59116 221.69719,246.79196 225.33353,246.79196   C 229.44939,246.79196 232.9259,247.83092 235.72309,249.90883   C 238.52028,252.0267 240.47831,254.98373 241.59719,258.77992   L 236.24257,260.05863   C 235.28353,257.06164 233.88494,254.86385 232.04678,253.50522   C 230.24859,252.14658 227.97088,251.42731 225.21365,251.42731   C 222.05682,251.42731 219.41947,252.18654 217.26164,253.70502   C 215.14377,255.22349 213.66526,257.26144 212.78614,259.81887   C 211.94698,262.3763 211.50743,265.01365 211.50743,267.73092   C 211.50743,271.24739 212.0269,274.28433 213.0259,276.92168   C 214.06486,279.51907 215.62329,281.4771 217.78112,282.75582   C 219.93895,284.07449 222.29658,284.71385 224.77409,284.71385   C 227.851,284.71385 230.40843,283.83473 232.5263,282.0765   C 234.64417,280.31827 236.08273,277.68092 236.84196,274.24437   z  M 244.47429,288.66988   L 260.29839,247.47128   L 266.17249,247.47128   L 283.03554,288.66988   L 276.84176,288.66988   L 272.00662,276.20241   L 254.78393,276.20241   L 250.26847,288.66988   z  M 256.38233,271.76686   L 270.32831,271.76686   L 266.05261,260.33835   C 264.73393,256.9018 263.73494,254.0247 263.09558,251.8269   C 262.5761,254.46425 261.85682,257.06164 260.89779,259.65903   z "
     style="fill:#000000;fill-rule:evenodd;fill-opacity:1;stroke:none;" />
</svg>
