<?xml version="1.0" encoding="UTF-8" standalone="no"?>
<svg
   xmlns:dc="http://purl.org/dc/elements/1.1/"
   xmlns:cc="http://creativecommons.org/ns#"
   xmlns:rdf="http://www.w3.org/1999/02/22-rdf-syntax-ns#"
   xmlns:svg="http://www.w3.org/2000/svg"
   xmlns="http://www.w3.org/2000/svg"
   id="svg13"
   height="95.75mm"
   width="95.75mm"
   version="1.0">
  <metadata
     id="metadata17">
    <rdf:RDF>
      <cc:Work
         rdf:about="">
        <dc:format>image/svg+xml</dc:format>
        <dc:type
           rdf:resource="http://purl.org/dc/dcmitype/StillImage" />
      </cc:Work>
    </rdf:RDF>
  </metadata>
  <defs
     id="defs3">
    <pattern
       y="0"
       x="0"
       height="6"
       width="6"
       patternUnits="userSpaceOnUse"
       id="EMFhbasepattern" />
  </defs>
  <path
     id="path5"
     d="  M 54.345381,54.345381   L 54.345381,307.53092   L 307.53092,307.53092   L 307.53092,54.345381   L 54.345381,54.345381   z "
     style="fill:#aaffaa;fill-rule:evenodd;fill-opacity:1;stroke:none;" />
  <path
     id="path7"
     d="  M 54.345381,54.345381   L 307.53092,54.345381   L 307.53092,307.53092   L 54.345381,307.53092   z "
     style="fill:none;stroke:#000000;stroke-width:9.5903616px;stroke-linecap:butt;stroke-linejoin:miter;stroke-miterlimit:10;stroke-dasharray:none;stroke-opacity:1;" />
  <path
     id="path9"
     d="  M 104.33514,201.23775   L 104.33514,145.61365   L 115.40401,145.61365   L 128.59076,184.97409   C 129.78956,188.6504 130.66867,191.40763 131.22811,193.20582   C 131.86747,191.20783 132.86646,188.21084 134.18514,184.29478   L 147.49176,145.61365   L 157.4018,145.61365   L 157.4018,201.23775   L 150.32891,201.23775   L 150.32891,154.68454   L 134.14518,201.23775   L 127.51185,201.23775   L 111.44799,153.88534   L 111.44799,201.23775   z  M 169.42972,201.23775   L 169.42972,145.61365   L 209.62931,145.61365   L 209.62931,152.16707   L 176.78233,152.16707   L 176.78233,169.18996   L 207.5514,169.18996   L 207.5514,175.74337   L 176.78233,175.74337   L 176.78233,194.64437   L 210.90803,194.64437   L 210.90803,201.23775   z  M 235.24357,201.23775   L 235.24357,152.16707   L 216.902,152.16707   L 216.902,145.61365   L 260.97771,145.61365   L 260.97771,152.16707   L 242.59618,152.16707   L 242.59618,201.23775   z "
     style="fill:#000000;fill-rule:evenodd;fill-opacity:1;stroke:none;" />
  <path
     id="path11"
     d="  M 171.14799,277.68092   L 171.14799,233.04578   L 177.02209,233.04578   L 177.02209,272.40622   L 199,272.40622   L 199,277.68092   z "
     style="fill:#000000;fill-rule:evenodd;fill-opacity:1;stroke:none;" />
</svg>
