<?xml version="1.0" encoding="UTF-8" standalone="no"?>
<svg
   xmlns:dc="http://purl.org/dc/elements/1.1/"
   xmlns:cc="http://creativecommons.org/ns#"
   xmlns:rdf="http://www.w3.org/1999/02/22-rdf-syntax-ns#"
   xmlns:svg="http://www.w3.org/2000/svg"
   xmlns="http://www.w3.org/2000/svg"
   id="svg11"
   height="107.94mm"
   width="95.75mm"
   version="1.0">
  <metadata
     id="metadata15">
    <rdf:RDF>
      <cc:Work
         rdf:about="">
        <dc:format>image/svg+xml</dc:format>
        <dc:type
           rdf:resource="http://purl.org/dc/dcmitype/StillImage" />
      </cc:Work>
    </rdf:RDF>
  </metadata>
  <defs
     id="defs3">
    <pattern
       y="0"
       x="0"
       height="6"
       width="6"
       patternUnits="userSpaceOnUse"
       id="EMFhbasepattern" />
  </defs>
  <path
     id="path5"
     d="  M 54.345381,353.56465   L 54.345381,171.34779   L 180.93815,54.345381   L 307.53092,171.34779   L 307.53092,353.56465   z "
     style="fill:#ff8080;fill-rule:evenodd;fill-opacity:1;stroke:none;" />
  <path
     id="path7"
     d="  M 54.345381,353.56465   L 54.345381,171.34779   L 180.93815,54.345381   L 307.53092,171.34779   L 307.53092,353.56465  "
     style="fill:none;stroke:#000000;stroke-width:9.5903616px;stroke-linecap:butt;stroke-linejoin:miter;stroke-miterlimit:10;stroke-dasharray:none;stroke-opacity:1;" />
  <path
     id="path9"
     d="  M 219.33956,150.64859   L 232.96586,150.64859   L 232.96586,210.14879   C 232.96586,220.49839 231.80702,228.73012 229.44939,234.80401   C 227.13172,240.91787 222.89598,245.87289 216.78213,249.66907   C 210.66827,253.50522 202.6763,255.38333 192.7263,255.38333   C 183.09598,255.38333 175.18393,253.74498 169.07008,250.42831   C 162.91626,247.11164 158.56064,242.2765 155.92329,235.96285   C 153.28594,229.68915 151.96727,221.05783 151.96727,210.14879   L 151.96727,150.64859   L 165.59357,150.64859   L 165.59357,210.10883   C 165.59357,219.05984 166.43273,225.65321 168.11104,229.88895   C 169.78935,234.1247 172.6265,237.36144 176.66245,239.67911   C 180.73835,241.95682 185.69337,243.11566 191.52751,243.11566   C 201.55743,243.11566 208.71024,240.83795 212.94598,236.28253   C 217.22168,231.76706 219.33956,223.01586 219.33956,210.10883   z "
     style="fill:#000000;fill-rule:evenodd;fill-opacity:1;stroke:none;" />
</svg>
