<?xml version="1.0" encoding="UTF-8" standalone="no"?>
<svg
   xmlns:dc="http://purl.org/dc/elements/1.1/"
   xmlns:cc="http://creativecommons.org/ns#"
   xmlns:rdf="http://www.w3.org/1999/02/22-rdf-syntax-ns#"
   xmlns:svg="http://www.w3.org/2000/svg"
   xmlns="http://www.w3.org/2000/svg"
   id="svg15"
   height="130.27mm"
   width="130.27mm"
   version="1.0">
  <metadata
     id="metadata19">
    <rdf:RDF>
      <cc:Work
         rdf:about="">
        <dc:format>image/svg+xml</dc:format>
        <dc:type
           rdf:resource="http://purl.org/dc/dcmitype/StillImage" />
      </cc:Work>
    </rdf:RDF>
  </metadata>
  <defs
     id="defs3">
    <pattern
       y="0"
       x="0"
       height="6"
       width="6"
       patternUnits="userSpaceOnUse"
       id="EMFhbasepattern" />
  </defs>
  <path
     id="path5"
     d="  M 198.2008,63.935742   L 198.2008,111.88755   L 294.10441,111.88755   L 294.10441,63.935742   L 198.2008,63.935742   z "
     style="fill:#000000;fill-rule:evenodd;fill-opacity:1;stroke:none;" />
  <path
     id="path7"
     d="  M 164.63454,327.67068   C 164.63454,437.95983 327.67068,437.95983 327.67068,327.67068   C 437.95983,327.67068 437.95983,164.63454 327.67068,164.63454   C 327.67068,54.345381 164.63454,54.345381 164.63454,164.63454   C 54.345381,164.63454 54.345381,327.67068 164.63454,327.67068   z "
     style="fill:#ffff80;fill-rule:evenodd;fill-opacity:1;stroke:none;" />
  <path
     id="path9"
     d="  M 164.63454,327.67068   C 164.63454,437.95983 327.67068,437.95983 327.67068,327.67068   C 437.95983,327.67068 437.95983,164.63454 327.67068,164.63454   C 327.67068,54.345381 164.63454,54.345381 164.63454,164.63454   C 54.345381,164.63454 54.345381,327.67068 164.63454,327.67068  "
     style="fill:none;stroke:#000000;stroke-width:9.5903616px;stroke-linecap:butt;stroke-linejoin:miter;stroke-miterlimit:10;stroke-dasharray:none;stroke-opacity:1;" />
  <path
     id="path11"
     d="  M 202.15682,191.56747   L 202.15682,155.88333   L 217.98092,155.88333   C 221.13775,155.88333 223.5753,156.20301 225.21365,156.84237   C 226.89196,157.48172 228.21064,158.6006 229.20964,160.23895   C 230.16867,161.87731 230.68815,163.6755 230.68815,165.63353   C 230.68815,168.151 229.84899,170.30883 228.21064,172.02711   C 226.57229,173.74538 224.05482,174.86425 220.61827,175.34377   C 221.85702,175.94317 222.81606,176.54257 223.45542,177.10201   C 224.85401,178.38072 226.17269,179.97911 227.37148,181.85723   L 233.60522,191.56747   L 227.6512,191.56747   L 222.93594,184.13494   C 221.53735,182.01707 220.41847,180.37871 219.53935,179.21988   C 218.62028,178.101 217.82108,177.3018 217.14176,176.86225   C 216.42249,176.38273 215.70321,176.06305 214.98393,175.90321   C 214.42449,175.78333 213.54538,175.74337 212.34658,175.74337   L 206.87209,175.74337   L 206.87209,191.56747   z  M 206.87209,171.62751   L 217.02188,171.62751   C 219.17972,171.62751 220.85803,171.42771 222.09678,170.94819   C 223.29558,170.50863 224.21466,169.78935 224.85401,168.83032   C 225.49337,167.83132 225.81305,166.79237 225.81305,165.63353   C 225.81305,163.91526 225.21365,162.55662 223.9749,161.43775   C 222.73614,160.35883 220.81807,159.83936 218.18072,159.83936   L 206.87209,159.83936   z  M 238.16064,191.56747   L 238.16064,155.88333   L 263.97469,155.88333   L 263.97469,160.07911   L 242.91586,160.07911   L 242.91586,171.02811   L 262.65602,171.02811   L 262.65602,175.22389   L 242.91586,175.22389   L 242.91586,187.37168   L 264.81385,187.37168   L 264.81385,191.56747   z  M 269.72891,180.09899   L 274.20441,179.69939   C 274.40421,181.49759 274.88373,182.9761 275.68293,184.13494   C 276.44216,185.25381 277.64096,186.17289 279.23935,186.89217   C 280.87771,187.61144 282.71586,187.93112 284.75381,187.93112   C 286.552,187.93112 288.1504,187.69136 289.50903,187.13193   C 290.90763,186.61245 291.90662,185.89317 292.58594,184.93413   C 293.26526,184.01506 293.58494,182.9761 293.58494,181.89719   C 293.58494,180.77831 293.26526,179.77931 292.6259,178.94016   C 291.98654,178.101 290.90763,177.42168 289.42911,176.86225   C 288.47008,176.46265 286.3522,175.90321 283.0755,175.10401   C 279.75883,174.30482 277.48112,173.58554 276.16245,172.86626   C 274.44417,171.98715 273.20542,170.86827 272.36626,169.5496   C 271.5271,168.23092 271.08755,166.75241 271.08755,165.11405   C 271.08755,163.31586 271.60702,161.63755 272.64598,160.03915   C 273.64498,158.48072 275.16345,157.32189 277.12148,156.48273   C 279.07951,155.68353 281.27731,155.28393 283.6749,155.28393   C 286.31224,155.28393 288.62992,155.68353 290.66787,156.56265   C 292.70582,157.4018 294.22429,158.64056 295.34317,160.31887   C 296.42208,161.95723 297.02148,163.83534 297.1014,165.95321   L 292.54598,166.27289   C 292.30622,164.03514 291.46706,162.31687 290.06847,161.15803   C 288.66988,159.99919 286.59196,159.43976 283.87469,159.43976   C 280.99759,159.43976 278.91967,159.95923 277.601,160.99819   C 276.32229,162.03715 275.64297,163.31586 275.64297,164.79438   C 275.64297,166.07309 276.12249,167.11205 277.04156,167.9512   C 277.96064,168.79036 280.31827,169.62952 284.15441,170.50863   C 287.99056,171.38775 290.62791,172.14699 292.06646,172.78634   C 294.14437,173.74538 295.66285,174.94417 296.66184,176.42269   C 297.66084,177.9012 298.14036,179.57952 298.14036,181.49759   C 298.14036,183.41566 297.62088,185.17389 296.54196,186.85221   C 295.42309,188.53052 293.86465,189.84919 291.8267,190.76827   C 289.78875,191.72731 287.51104,192.16686 284.95361,192.16686   C 281.71686,192.16686 278.99959,191.72731 276.84176,190.76827   C 274.64397,189.84919 272.9257,188.41064 271.68694,186.53253   C 270.44819,184.65442 269.80883,182.49658 269.72891,180.09899   z "
     style="fill:#000000;fill-rule:evenodd;fill-opacity:1;stroke:none;" />
  <path
     id="path13"
     d="  M 254.54417,245.71305   L 332.2261,297.14136   L 327.31104,305.37309   L 246.31245,251.78694   L 165.31385,304.01445   L 160.19899,295.86265   L 236.44237,246.07269   L 159.83936,196.12289   L 164.75442,187.8512   L 245.75301,240.71807   L 327.31104,186.69237   L 332.50582,194.76425   z "
     style="fill:#000000;fill-rule:evenodd;fill-opacity:1;stroke:none;" />
</svg>
