<?xml version="1.0" encoding="UTF-8" standalone="no"?>
<svg
   xmlns:dc="http://purl.org/dc/elements/1.1/"
   xmlns:cc="http://creativecommons.org/ns#"
   xmlns:rdf="http://www.w3.org/1999/02/22-rdf-syntax-ns#"
   xmlns:svg="http://www.w3.org/2000/svg"
   xmlns="http://www.w3.org/2000/svg"
   id="svg15"
   height="95.75mm"
   width="95.75mm"
   version="1.0">
  <metadata
     id="metadata19">
    <rdf:RDF>
      <cc:Work
         rdf:about="">
        <dc:format>image/svg+xml</dc:format>
        <dc:type
           rdf:resource="http://purl.org/dc/dcmitype/StillImage" />
      </cc:Work>
    </rdf:RDF>
  </metadata>
  <defs
     id="defs3">
    <pattern
       y="0"
       x="0"
       height="6"
       width="6"
       patternUnits="userSpaceOnUse"
       id="EMFhbasepattern" />
  </defs>
  <path
     id="path5"
     d="  M 132.98634,15.983936   L 132.98634,54.345381   L 228.88996,54.345381   L 228.88996,15.983936   L 132.98634,15.983936   z "
     style="fill:#000000;fill-rule:evenodd;fill-opacity:1;stroke:none;" />
  <path
     id="path7"
     d="  M 54.345381,54.345381   L 54.345381,307.53092   L 307.53092,307.53092   L 307.53092,54.345381   L 54.345381,54.345381   z "
     style="fill:#aaffaa;fill-rule:evenodd;fill-opacity:1;stroke:none;" />
  <path
     id="path9"
     d="  M 54.345381,54.345381   L 307.53092,54.345381   L 307.53092,307.53092   L 54.345381,307.53092   z "
     style="fill:none;stroke:#000000;stroke-width:9.5903616px;stroke-linecap:butt;stroke-linejoin:miter;stroke-miterlimit:10;stroke-dasharray:none;stroke-opacity:1;" />
  <path
     id="path11"
     d="  M 136.94237,126.35301   L 136.94237,90.668874   L 152.76646,90.668874   C 155.92329,90.668874 158.36084,90.988553 159.99919,91.62791   C 161.67751,92.267268 162.99618,93.386143 163.99518,95.024497   C 164.95421,96.66285 165.47369,98.461043 165.47369,100.41907   C 165.47369,102.93654 164.63454,105.09438 162.99618,106.81265   C 161.35783,108.53092 158.84036,109.6498 155.40381,110.12932   C 156.64257,110.72871 157.6016,111.32811 158.24096,111.88755   C 159.63956,113.16626 160.95823,114.76466 162.15703,116.64277   L 168.39076,126.35301   L 162.43674,126.35301   L 157.72148,118.92048   C 156.32289,116.80261 155.20401,115.16426 154.3249,114.00542   C 153.40582,112.88654 152.60662,112.08735 151.92731,111.64779   C 151.20803,111.16827 150.48875,110.84859 149.76948,110.68875   C 149.21004,110.56887 148.33092,110.52891 147.13213,110.52891   L 141.65763,110.52891   L 141.65763,126.35301   z  M 141.65763,106.41305   L 151.80743,106.41305   C 153.96526,106.41305 155.64357,106.21325 156.88233,105.73373   C 158.08112,105.29418 159.0002,104.5749 159.63956,103.61586   C 160.27891,102.61687 160.59859,101.57791 160.59859,100.41907   C 160.59859,98.700802 159.99919,97.342167 158.76044,96.223292   C 157.52168,95.144376 155.60361,94.624898 152.96626,94.624898   L 141.65763,94.624898   z  M 172.94618,126.35301   L 172.94618,90.668874   L 198.76024,90.668874   L 198.76024,94.864657   L 177.7014,94.864657   L 177.7014,105.81365   L 197.44156,105.81365   L 197.44156,110.00944   L 177.7014,110.00944   L 177.7014,122.15723   L 199.59939,122.15723   L 199.59939,126.35301   z  M 204.51445,114.88454   L 208.98996,114.48494   C 209.18976,116.28313 209.66927,117.76164 210.46847,118.92048   C 211.22771,120.03936 212.4265,120.95843 214.0249,121.67771   C 215.66325,122.39699 217.5014,122.71666 219.53935,122.71666   C 221.33755,122.71666 222.93594,122.47691 224.29458,121.91747   C 225.69317,121.39799 226.69217,120.67871 227.37148,119.71968   C 228.0508,118.8006 228.37048,117.76164 228.37048,116.68273   C 228.37048,115.56385 228.0508,114.56486 227.41144,113.7257   C 226.77209,112.88654 225.69317,112.20723 224.21466,111.64779   C 223.25562,111.24819 221.13775,110.68875 217.86104,109.88956   C 214.54437,109.09036 212.26666,108.37108 210.94799,107.65181   C 209.22972,106.77269 207.99096,105.65381 207.1518,104.33514   C 206.31265,103.01646 205.87309,101.53795 205.87309,99.899597   C 205.87309,98.101404 206.39257,96.423091 207.43152,94.824697   C 208.43052,93.266264 209.94899,92.107428 211.90703,91.268272   C 213.86506,90.469075 216.06285,90.069477 218.46044,90.069477   C 221.09779,90.069477 223.41546,90.469075 225.45341,91.348191   C 227.49136,92.187348 229.00984,93.426103 230.12871,95.104416   C 231.20763,96.74277 231.80702,98.620882 231.88694,100.73875   L 227.33152,101.05843   C 227.09176,98.820681 226.25261,97.102408 224.85401,95.943573   C 223.45542,94.784738 221.37751,94.2253 218.66024,94.2253   C 215.78313,94.2253 213.70522,94.744778 212.38654,95.783734   C 211.10783,96.822689 210.42851,98.101404 210.42851,99.579918   C 210.42851,100.85863 210.90803,101.89759 211.82711,102.73675   C 212.74618,103.5759 215.10381,104.41506 218.93996,105.29418   C 222.7761,106.17329 225.41345,106.93253 226.852,107.57189   C 228.92992,108.53092 230.44839,109.72972 231.44739,111.20823   C 232.44638,112.68675 232.9259,114.36506 232.9259,116.28313   C 232.9259,118.2012 232.40642,119.95944 231.32751,121.63775   C 230.20863,123.31606 228.6502,124.63474 226.61225,125.55381   C 224.57429,126.51285 222.29658,126.95241 219.73915,126.95241   C 216.50241,126.95241 213.78514,126.51285 211.62731,125.55381   C 209.42952,124.63474 207.71124,123.19618 206.47249,121.31807   C 205.23373,119.43996 204.59437,117.28213 204.51445,114.88454   z "
     style="fill:#000000;fill-rule:evenodd;fill-opacity:1;stroke:none;" />
  <path
     id="path13"
     d="  M 189.32972,180.49859   L 267.01164,231.9269   L 262.09658,240.15863   L 181.09799,186.57249   L 100.0994,238.8   L 94.984537,230.64819   L 171.22791,180.85823   L 94.624898,130.90843   L 99.539958,122.63675   L 180.53855,175.50361   L 262.09658,121.47791   L 267.29136,129.5498   z "
     style="fill:#000000;fill-rule:evenodd;fill-opacity:1;stroke:none;" />
</svg>
