<?xml version="1.0" encoding="UTF-8" standalone="no"?>
<svg
   xmlns:dc="http://purl.org/dc/elements/1.1/"
   xmlns:cc="http://creativecommons.org/ns#"
   xmlns:rdf="http://www.w3.org/1999/02/22-rdf-syntax-ns#"
   xmlns:svg="http://www.w3.org/2000/svg"
   xmlns="http://www.w3.org/2000/svg"
   id="svg11"
   height="101.85mm"
   width="95.75mm"
   version="1.0">
  <metadata
     id="metadata15">
    <rdf:RDF>
      <cc:Work
         rdf:about="">
        <dc:format>image/svg+xml</dc:format>
        <dc:type
           rdf:resource="http://purl.org/dc/dcmitype/StillImage" />
      </cc:Work>
    </rdf:RDF>
  </metadata>
  <defs
     id="defs3">
    <pattern
       y="0"
       x="0"
       height="6"
       width="6"
       patternUnits="userSpaceOnUse"
       id="EMFhbasepattern" />
  </defs>
  <path
     id="path5"
     d="  M 54.345381,54.345381   L 54.345381,330.54779   L 307.53092,330.54779   L 307.53092,54.345381   L 54.345381,54.345381   z "
     style="fill:#aaffaa;fill-rule:evenodd;fill-opacity:1;stroke:none;" />
  <path
     id="path7"
     d="  M 54.345381,330.54779   L 54.345381,54.345381   L 307.53092,54.345381   L 307.53092,330.54779  "
     style="fill:none;stroke:#000000;stroke-width:9.5903616px;stroke-linecap:butt;stroke-linejoin:miter;stroke-miterlimit:10;stroke-dasharray:none;stroke-opacity:1;" />
  <path
     id="path9"
     d="  M 186.01305,126.35301   C 186.93213,128.19116 187.61144,129.66968 188.09096,130.82851   L 188.09096,168.5506   L 269.20943,252.54618   L 269.20943,265.01365   L 188.09096,212.18674   L 188.09096,279.83875   L 207.07188,299.17931   L 207.07188,308.48996   L 184.97409,299.17931   L 180.49859,308.48996   L 175.66345,299.17931   L 153.9253,308.48996   L 153.9253,299.17931   L 172.54658,279.83875   L 172.54658,212.18674   L 91.74779,265.01365   L 91.74779,252.54618   L 172.54658,168.5506   L 172.54658,130.82851   L 173.58554,127.71164   C 175.66345,123.59578 177.94116,121.47791 180.49859,121.47791   C 182.33674,121.47791 184.1749,123.11626 186.01305,126.35301   z "
     style="fill:#000000;fill-rule:evenodd;fill-opacity:1;stroke:none;" />
</svg>
