<?xml version="1.0" encoding="UTF-8" standalone="no"?>
<svg
   xmlns:dc="http://purl.org/dc/elements/1.1/"
   xmlns:cc="http://creativecommons.org/ns#"
   xmlns:rdf="http://www.w3.org/1999/02/22-rdf-syntax-ns#"
   xmlns:svg="http://www.w3.org/2000/svg"
   xmlns="http://www.w3.org/2000/svg"
   id="svg13"
   height="107.94mm"
   width="95.75mm"
   version="1.0">
  <metadata
     id="metadata17">
    <rdf:RDF>
      <cc:Work
         rdf:about="">
        <dc:format>image/svg+xml</dc:format>
        <dc:type
           rdf:resource="http://purl.org/dc/dcmitype/StillImage" />
      </cc:Work>
    </rdf:RDF>
  </metadata>
  <defs
     id="defs3">
    <pattern
       y="0"
       x="0"
       height="6"
       width="6"
       patternUnits="userSpaceOnUse"
       id="EMFhbasepattern" />
  </defs>
  <path
     id="path5"
     d="  M 54.345381,353.56465   L 54.345381,171.34779   L 180.93815,54.345381   L 307.53092,171.34779   L 307.53092,353.56465   z "
     style="fill:#ff8080;fill-rule:evenodd;fill-opacity:1;stroke:none;" />
  <path
     id="path7"
     d="  M 54.345381,353.56465   L 54.345381,171.34779   L 180.93815,54.345381   L 307.53092,171.34779   L 307.53092,353.56465  "
     style="fill:none;stroke:#000000;stroke-width:9.5903616px;stroke-linecap:butt;stroke-linejoin:miter;stroke-miterlimit:10;stroke-dasharray:none;stroke-opacity:1;" />
  <path
     id="path9"
     d="  M 180.93815,238.48032   L 180.93815,238.48032   L 94.624898,190.52851   L 94.624898,286.43212   L 180.93815,238.48032   L 267.2514,190.52851   L 267.2514,286.43212   L 180.93815,238.48032   z "
     style="fill:#000000;fill-rule:evenodd;fill-opacity:1;stroke:none;" />
  <path
     id="path11"
     d="  M 200.15883,137.02229   L 206.95201,137.02229   L 206.95201,166.79237   C 206.95201,171.94719 206.39257,176.06305 205.19377,179.1   C 204.03494,182.1769 201.91707,184.65442 198.88012,186.53253   C 195.80321,188.4506 191.80723,189.40964 186.85221,189.40964   C 182.01707,189.40964 178.06104,188.57048 175.02409,186.93213   C 171.94719,185.25381 169.7494,182.85622 168.43072,179.69939   C 167.11205,176.54257 166.47269,172.22691 166.47269,166.79237   L 166.47269,137.02229   L 173.26586,137.02229   L 173.26586,166.75241   C 173.26586,171.22791 173.70542,174.50462 174.54458,176.66245   C 175.38373,178.78032 176.78233,180.37871 178.82028,181.53755   C 180.85823,182.69638 183.33574,183.25582 186.25281,183.25582   C 191.24779,183.25582 194.84417,182.13695 196.96205,179.85923   C 199.07992,177.58152 200.15883,173.2259 200.15883,166.75241   z "
     style="fill:#000000;fill-rule:evenodd;fill-opacity:1;stroke:none;" />
</svg>
