<?xml version="1.0" encoding="UTF-8" standalone="no"?>
<svg
   xmlns:dc="http://purl.org/dc/elements/1.1/"
   xmlns:cc="http://creativecommons.org/ns#"
   xmlns:rdf="http://www.w3.org/1999/02/22-rdf-syntax-ns#"
   xmlns:svg="http://www.w3.org/2000/svg"
   xmlns="http://www.w3.org/2000/svg"
   id="svg11"
   height="101.85mm"
   width="95.75mm"
   version="1.0">
  <metadata
     id="metadata15">
    <rdf:RDF>
      <cc:Work
         rdf:about="">
        <dc:format>image/svg+xml</dc:format>
        <dc:type
           rdf:resource="http://purl.org/dc/dcmitype/StillImage" />
      </cc:Work>
    </rdf:RDF>
  </metadata>
  <defs
     id="defs3">
    <pattern
       y="0"
       x="0"
       height="6"
       width="6"
       patternUnits="userSpaceOnUse"
       id="EMFhbasepattern" />
  </defs>
  <path
     id="path5"
     d="  M 54.345381,54.345381   L 54.345381,330.54779   L 307.53092,330.54779   L 307.53092,54.345381   L 54.345381,54.345381   z "
     style="fill:#aaffaa;fill-rule:evenodd;fill-opacity:1;stroke:none;" />
  <path
     id="path7"
     d="  M 54.345381,330.54779   L 54.345381,54.345381   L 307.53092,54.345381   L 307.53092,330.54779  "
     style="fill:none;stroke:#000000;stroke-width:9.5903616px;stroke-linecap:butt;stroke-linejoin:miter;stroke-miterlimit:10;stroke-dasharray:none;stroke-opacity:1;" />
  <path
     id="path9"
     d="  M 120.23915,238.0008   L 120.23915,176.22289   L 132.54679,176.22289   L 147.17209,219.93895   C 148.49076,224.01486 149.48976,227.09176 150.12911,229.08976   C 150.80843,226.852 151.92731,223.53534 153.40582,219.17972   L 168.19096,176.22289   L 179.17992,176.22289   L 179.17992,238.0008   L 171.30783,238.0008   L 171.30783,186.29277   L 153.36586,238.0008   L 145.97329,238.0008   L 128.11124,185.41365   L 128.11124,238.0008   z  M 193.76526,238.0008   L 193.76526,176.22289   L 201.95703,176.22289   L 201.95703,238.0008   z  M 216.02289,238.0008   L 216.02289,176.22289   L 224.21466,176.22289   L 224.21466,230.68815   L 254.62409,230.68815   L 254.62409,238.0008   z "
     style="fill:#000000;fill-rule:evenodd;fill-opacity:1;stroke:none;" />
</svg>
