<?xml version="1.0" encoding="UTF-8" standalone="no"?>
<svg
   xmlns:dc="http://purl.org/dc/elements/1.1/"
   xmlns:cc="http://creativecommons.org/ns#"
   xmlns:rdf="http://www.w3.org/1999/02/22-rdf-syntax-ns#"
   xmlns:svg="http://www.w3.org/2000/svg"
   xmlns="http://www.w3.org/2000/svg"
   id="svg15"
   height="116.73mm"
   width="116.73mm"
   version="1.0">
  <metadata
     id="metadata19">
    <rdf:RDF>
      <cc:Work
         rdf:about="">
        <dc:format>image/svg+xml</dc:format>
        <dc:type
           rdf:resource="http://purl.org/dc/dcmitype/StillImage" />
      </cc:Work>
    </rdf:RDF>
  </metadata>
  <defs
     id="defs3">
    <pattern
       y="0"
       x="0"
       height="6"
       width="6"
       patternUnits="userSpaceOnUse"
       id="EMFhbasepattern" />
  </defs>
  <path
     id="path5"
     d="  M 172.6265,43.156626   L 172.6265,100.69879   L 268.53012,100.69879   L 268.53012,43.156626   L 172.6265,43.156626   z "
     style="fill:#000000;fill-rule:evenodd;fill-opacity:1;stroke:none;" />
  <path
     id="path7"
     d="  M 220.57831,386.49156   L 220.57831,386.49156   L 386.49156,220.57831   L 220.57831,54.665059   L 54.665059,220.57831   L 220.57831,386.49156   z "
     style="fill:#ff8080;fill-rule:evenodd;fill-opacity:1;stroke:none;" />
  <path
     id="path9"
     d="  M 220.57831,386.49156   L 220.57831,386.49156   L 386.49156,220.57831   L 220.57831,54.665059   L 54.665059,220.57831   L 220.57831,386.49156  "
     style="fill:none;stroke:#000000;stroke-width:9.5903616px;stroke-linecap:butt;stroke-linejoin:miter;stroke-miterlimit:10;stroke-dasharray:none;stroke-opacity:1;" />
  <path
     id="path11"
     d="  M 176.58253,165.99317   L 176.58253,130.30903   L 192.40662,130.30903   C 195.56345,130.30903 198.001,130.62871 199.63935,131.26807   C 201.31767,131.90743 202.63634,133.0263 203.63534,134.66466   C 204.59437,136.30301 205.11385,138.1012 205.11385,140.05923   C 205.11385,142.5767 204.2747,144.73454 202.63634,146.45281   C 200.99799,148.17108 198.48052,149.28996 195.04397,149.76948   C 196.28273,150.36887 197.24176,150.96827 197.88112,151.52771   C 199.27972,152.80642 200.59839,154.40482 201.79719,156.28293   L 208.03092,165.99317   L 202.0769,165.99317   L 197.36164,158.56064   C 195.96305,156.44277 194.84417,154.80442 193.96506,153.64558   C 193.04598,152.5267 192.24678,151.72751 191.56747,151.28795   C 190.84819,150.80843 190.12891,150.48875 189.40964,150.32891   C 188.8502,150.20903 187.97108,150.16907 186.77229,150.16907   L 181.29779,150.16907   L 181.29779,165.99317   z  M 181.29779,146.05321   L 191.44759,146.05321   C 193.60542,146.05321 195.28373,145.85341 196.52249,145.37389   C 197.72128,144.93434 198.64036,144.21506 199.27972,143.25602   C 199.91907,142.25703 200.23875,141.21807 200.23875,140.05923   C 200.23875,138.34096 199.63935,136.98233 198.4006,135.86345   C 197.16184,134.78454 195.24377,134.26506 192.60642,134.26506   L 181.29779,134.26506   z  M 212.58634,165.99317   L 212.58634,130.30903   L 238.4004,130.30903   L 238.4004,134.50482   L 217.34156,134.50482   L 217.34156,145.45381   L 237.08172,145.45381   L 237.08172,149.6496   L 217.34156,149.6496   L 217.34156,161.79739   L 239.23955,161.79739   L 239.23955,165.99317   z  M 244.15461,154.5247   L 248.63012,154.1251   C 248.82992,155.92329 249.30943,157.4018 250.10863,158.56064   C 250.86787,159.67952 252.06666,160.59859 253.66506,161.31787   C 255.30341,162.03715 257.14156,162.35682 259.17951,162.35682   C 260.97771,162.35682 262.5761,162.11707 263.93474,161.55763   C 265.33333,161.03815 266.33233,160.31887 267.01164,159.35984   C 267.69096,158.44076 268.01064,157.4018 268.01064,156.32289   C 268.01064,155.20401 267.69096,154.20502 267.0516,153.36586   C 266.41225,152.5267 265.33333,151.84739 263.85482,151.28795   C 262.89578,150.88835 260.77791,150.32891 257.5012,149.52972   C 254.18453,148.73052 251.90682,148.01124 250.58815,147.29197   C 248.86988,146.41285 247.63112,145.29397 246.79196,143.9753   C 245.95281,142.65662 245.51325,141.17811 245.51325,139.53976   C 245.51325,137.74156 246.03273,136.06325 247.07168,134.46486   C 248.07068,132.90642 249.58915,131.74759 251.54719,130.90843   C 253.50522,130.10924 255.70301,129.70964 258.1006,129.70964   C 260.73795,129.70964 263.05562,130.10924 265.09357,130.98835   C 267.13152,131.82751 268.65,133.06626 269.76887,134.74458   C 270.84779,136.38293 271.44718,138.26104 271.5271,140.37891   L 266.97168,140.69859   C 266.73192,138.46084 265.89277,136.74257 264.49417,135.58373   C 263.09558,134.4249 261.01767,133.86546 258.3004,133.86546   C 255.42329,133.86546 253.34538,134.38494 252.0267,135.42389   C 250.74799,136.46285 250.06867,137.74156 250.06867,139.22008   C 250.06867,140.49879 250.54819,141.53775 251.46727,142.37691   C 252.38634,143.21606 254.74397,144.05522 258.58012,144.93434   C 262.41626,145.81345 265.05361,146.57269 266.49216,147.21205   C 268.57008,148.17108 270.08855,149.36988 271.08755,150.84839   C 272.08654,152.32691 272.56606,154.00522 272.56606,155.92329   C 272.56606,157.84136 272.04658,159.5996 270.96767,161.27791   C 269.84879,162.95622 268.29036,164.2749 266.25241,165.19397   C 264.21445,166.15301 261.93674,166.59257 259.37931,166.59257   C 256.14257,166.59257 253.4253,166.15301 251.26747,165.19397   C 249.06968,164.2749 247.3514,162.83634 246.11265,160.95823   C 244.87389,159.08012 244.23453,156.92229 244.15461,154.5247   z "
     style="fill:#000000;fill-rule:evenodd;fill-opacity:1;stroke:none;" />
  <path
     id="path13"
     d="  M 228.96988,220.13875   L 306.6518,271.56706   L 301.73674,279.79879   L 220.73815,226.21265   L 139.73956,278.44016   L 134.6247,270.28835   L 210.86807,220.49839   L 134.26506,170.54859   L 139.18012,162.27691   L 220.17871,215.14377   L 301.73674,161.11807   L 306.93152,169.18996   z "
     style="fill:#000000;fill-rule:evenodd;fill-opacity:1;stroke:none;" />
</svg>
