<?xml version="1.0" encoding="UTF-8" standalone="no"?>
<svg
   xmlns:dc="http://purl.org/dc/elements/1.1/"
   xmlns:cc="http://creativecommons.org/ns#"
   xmlns:rdf="http://www.w3.org/1999/02/22-rdf-syntax-ns#"
   xmlns:svg="http://www.w3.org/2000/svg"
   xmlns="http://www.w3.org/2000/svg"
   id="svg23"
   height="116.73mm"
   width="116.73mm"
   version="1.0">
  <metadata
     id="metadata27">
    <rdf:RDF>
      <cc:Work
         rdf:about="">
        <dc:format>image/svg+xml</dc:format>
        <dc:type
           rdf:resource="http://purl.org/dc/dcmitype/StillImage" />
      </cc:Work>
    </rdf:RDF>
  </metadata>
  <defs
     id="defs3">
    <pattern
       y="0"
       x="0"
       height="6"
       width="6"
       patternUnits="userSpaceOnUse"
       id="EMFhbasepattern" />
  </defs>
  <path
     id="path5"
     d="  M 172.6265,43.156626   L 172.6265,100.69879   L 268.53012,100.69879   L 268.53012,43.156626   L 172.6265,43.156626   z "
     style="fill:#000000;fill-rule:evenodd;fill-opacity:1;stroke:none;" />
  <path
     id="path7"
     d="  M 220.57831,386.49156   L 220.57831,386.49156   L 386.49156,220.57831   L 220.57831,54.665059   L 54.665059,220.57831   L 220.57831,386.49156   z "
     style="fill:#ff8080;fill-rule:evenodd;fill-opacity:1;stroke:none;" />
  <path
     id="path9"
     d="  M 220.57831,386.49156   L 220.57831,386.49156   L 386.49156,220.57831   L 220.57831,54.665059   L 54.665059,220.57831   L 220.57831,386.49156  "
     style="fill:none;stroke:#000000;stroke-width:9.5903616px;stroke-linecap:butt;stroke-linejoin:miter;stroke-miterlimit:10;stroke-dasharray:none;stroke-opacity:1;" />
  <path
     id="path11"
     d="  M 277.72088,248.23052   L 265.69297,285.87269   L 175.26385,285.75281   L 154.28494,222.85602   C 154.28494,217.3016 147.21205,203.03594 147.21205,200.55843   L 147.21205,198.92008   C 149.48976,198.32068 178.94016,176.14297 183.65542,172.86626   C 187.01205,170.50863 219.85903,146.21305 220.05883,146.21305   C 221.69719,146.21305 286.15241,194.28474 293.58494,199.35964   z  M 136.90241,196.76225   C 136.90241,196.76225 151.44779,241.51727 152.84638,244.95381   C 155.12409,250.74799 168.07108,289.86867 168.43072,294.02449   L 271.68694,294.02449   C 273.24538,287.27128 277.2014,277.16144 279.59899,269.92871   C 282.39618,261.53714 284.63393,253.50522 287.63092,245.35341   C 289.14939,241.27751 303.73473,196.88213 303.73473,196.76225   C 303.73473,195.64337 266.41225,169.07008 262.29638,165.91325   C 258.18052,162.79638 221.45743,135.90341 220.05883,135.90341   C 219.85903,135.90341 182.13695,163.23594 178.42068,165.99317   C 174.26486,169.11004 136.90241,195.60341 136.90241,196.76225   z "
     style="fill:#ffffff;fill-rule:evenodd;fill-opacity:1;stroke:none;" />
  <path
     id="path13"
     d="  M 172.78634,207.07188   L 174.78433,215.98293   L 175.50361,215.78313   C 175.50361,219.65923 181.41767,235.40341 182.89618,240.43835   C 184.13494,244.71405 185.57349,248.51024 186.97209,252.66606   C 187.57148,254.50421 190.00903,264.13453 191.80723,264.13453   L 248.82992,264.13453   C 251.10763,264.13453 256.66204,243.51526 257.86084,239.99879   C 259.41927,235.52329 265.69297,218.42048 265.69297,214.70421   C 266.81184,212.98594 267.8508,210.94799 267.8508,208.1508   C 267.8508,206.19277 247.5512,192.60642 244.59417,190.68835   C 242.15662,189.05 220.73815,173.38574 220.57831,173.38574   C 219.37951,173.38574 199.35964,188.33072 196.68233,190.24879   C 193.40562,192.5265 174.70442,206.55241 172.78634,207.07188   z "
     style="fill:#ffffff;fill-rule:evenodd;fill-opacity:1;stroke:none;" />
  <path
     id="path15"
     d="  M 172.78634,207.07188   C 174.70442,206.55241 193.40562,192.5265 196.68233,190.24879   C 199.35964,188.33072 219.37951,173.38574 220.57831,173.38574   C 220.73815,173.38574 242.15662,189.05 244.59417,190.68835   C 247.5512,192.60642 267.8508,206.19277 267.8508,208.1508   C 267.8508,210.94799 266.81184,212.98594 265.69297,214.70421   C 265.69297,218.42048 259.41927,235.52329 257.86084,239.99879   C 256.66204,243.51526 251.10763,264.13453 248.82992,264.13453   L 191.80723,264.13453   C 190.00903,264.13453 187.57148,254.50421 186.97209,252.66606   C 185.57349,248.51024 184.13494,244.71405 182.89618,240.43835   C 181.41767,235.40341 175.50361,219.65923 175.50361,215.78313   L 174.78433,215.98293   z  M 165.15401,205.43353   L 186.37269,270.12851   L 254.0247,270.04859   L 274.92369,204.91405   C 267.17148,200.79819 222.81606,165.79337 220.05883,165.79337   C 219.25964,165.79337 170.66847,201.75723 165.15401,205.43353   z "
     style="fill:#000000;fill-rule:evenodd;fill-opacity:1;stroke:none;" />
  <path
     id="path17"
     d="  M 165.15401,205.43353   C 170.66847,201.75723 219.25964,165.79337 220.05883,165.79337   C 222.81606,165.79337 267.17148,200.79819 274.92369,204.91405   L 254.0247,270.04859   L 186.37269,270.12851   z  M 156.60261,202.39658   L 158.68052,210.50843   L 166.79237,233.7251   C 166.79237,237.44136 172.18695,251.86686 173.66546,256.18253   C 174.70442,259.33935 179.89919,277.16144 182.01707,277.16144   L 260.05863,277.12148   L 273.28534,235.32349   C 274.32429,233.80502 284.15441,205.11385 284.15441,203.2757   C 284.15441,200.91807 226.89196,162.03715 220.33855,156.20301   z "
     style="fill:#ffffff;fill-rule:evenodd;fill-opacity:1;stroke:none;" />
  <path
     id="path19"
     d="  M 220.33855,156.20301   C 226.89196,162.03715 284.15441,200.91807 284.15441,203.2757   C 284.15441,205.11385 274.32429,233.80502 273.28534,235.32349   L 260.05863,277.12148   L 182.01707,277.16144   C 179.89919,277.16144 174.70442,259.33935 173.66546,256.18253   C 172.18695,251.86686 166.79237,237.44136 166.79237,233.7251   L 158.68052,210.50843   L 156.60261,202.39658   z  M 293.58494,199.35964   C 286.15241,194.28474 221.65723,146.21305 220.05883,146.21305   C 219.85903,146.21305 187.01205,170.50863 183.65542,172.86626   C 178.94016,176.14297 149.48976,198.32068 147.21205,198.92008   L 147.21205,200.55843   C 147.21205,203.03594 154.28494,217.3016 154.28494,222.85602   L 175.26385,285.75281   L 265.69297,285.87269   L 277.72088,248.23052   z "
     style="fill:#000000;fill-rule:evenodd;fill-opacity:1;stroke:none;" />
  <path
     id="path21"
     d="  M 136.90241,196.76225   C 136.90241,195.60341 174.26486,169.11004 178.42068,165.99317   C 182.13695,163.23594 219.85903,135.90341 220.05883,135.90341   C 221.45743,135.90341 258.18052,162.79638 262.29638,165.91325   C 266.41225,169.07008 303.73473,195.64337 303.73473,196.76225   C 303.73473,196.88213 289.14939,241.27751 287.63092,245.35341   C 284.63393,253.50522 282.39618,261.53714 279.59899,269.92871   C 277.2014,277.16144 273.24538,287.27128 271.68694,294.02449   L 168.43072,294.02449   C 168.07108,289.86867 155.12409,250.74799 152.80642,244.95381   C 151.44779,241.51727 136.90241,196.76225 136.90241,196.76225   z  M 156.96225,288.98955   L 161.75743,303.65481   L 279.27931,303.81465   L 299.49899,240.63815   L 315.40301,191.40763   L 220.17871,122.67671   L 125.0743,191.80723   L 156.96225,288.98955   z "
     style="fill:#000000;fill-rule:evenodd;fill-opacity:1;stroke:none;" />
</svg>
