<?xml version="1.0" encoding="UTF-8" standalone="no"?>
<svg
   xmlns:dc="http://purl.org/dc/elements/1.1/"
   xmlns:cc="http://creativecommons.org/ns#"
   xmlns:rdf="http://www.w3.org/1999/02/22-rdf-syntax-ns#"
   xmlns:svg="http://www.w3.org/2000/svg"
   xmlns="http://www.w3.org/2000/svg"
   id="svg15"
   height="89.669998mm"
   width="120.11mm"
   version="1.0">
  <metadata
     id="metadata19">
    <rdf:RDF>
      <cc:Work
         rdf:about="">
        <dc:format>image/svg+xml</dc:format>
        <dc:type
           rdf:resource="http://purl.org/dc/dcmitype/StillImage" />
      </cc:Work>
    </rdf:RDF>
  </metadata>
  <defs
     id="defs3">
    <pattern
       y="0"
       x="0"
       height="6"
       width="6"
       patternUnits="userSpaceOnUse"
       id="EMFhbasepattern" />
  </defs>
  <path
     id="path5"
     d="  M 179.02008,15.983936   L 179.02008,54.345381   L 274.92369,54.345381   L 274.92369,15.983936   L 179.02008,15.983936   z "
     style="fill:#000000;fill-rule:evenodd;fill-opacity:1;stroke:none;" />
  <path
     id="path7"
     d="  M 54.345381,54.345381   L 54.345381,284.51405   L 399.59839,284.51405   L 399.59839,54.345381   L 54.345381,54.345381   z "
     style="fill:#80e0ff;fill-rule:evenodd;fill-opacity:1;stroke:none;" />
  <path
     id="path9"
     d="  M 54.345381,54.345381   L 399.59839,54.345381   L 399.59839,284.51405   L 54.345381,284.51405   z "
     style="fill:none;stroke:#000000;stroke-width:9.5903616px;stroke-linecap:butt;stroke-linejoin:miter;stroke-miterlimit:10;stroke-dasharray:none;stroke-opacity:1;" />
  <path
     id="path11"
     d="  M 182.9761,114.84458   L 182.9761,79.160441   L 198.8002,79.160441   C 201.95703,79.160441 204.39458,79.480119 206.03293,80.119477   C 207.71124,80.758834 209.02992,81.87771 210.02891,83.516063   C 210.98795,85.154416 211.50743,86.952609 211.50743,88.910641   C 211.50743,91.428111 210.66827,93.585942 209.02992,95.304215   C 207.39156,97.022489 204.87409,98.141364 201.43755,98.620882   C 202.6763,99.22028 203.63534,99.819677 204.2747,100.37912   C 205.67329,101.65783 206.99196,103.25622 208.19076,105.13434   L 214.42449,114.84458   L 208.47048,114.84458   L 203.75522,107.41205   C 202.35662,105.29418 201.23775,103.65582 200.35863,102.49699   C 199.43956,101.37811 198.64036,100.57891 197.96104,100.13936   C 197.24176,99.659838 196.52249,99.340159 195.80321,99.18032   C 195.24377,99.06044 194.36466,99.02048 193.16586,99.02048   L 187.69136,99.02048   L 187.69136,114.84458   z  M 187.69136,94.904617   L 197.84116,94.904617   C 199.99899,94.904617 201.67731,94.704818 202.91606,94.2253   C 204.11486,93.785742 205.03393,93.066465 205.67329,92.107428   C 206.31265,91.108432 206.63233,90.069477 206.63233,88.910641   C 206.63233,87.192368 206.03293,85.833734 204.79417,84.714858   C 203.55542,83.635943 201.63735,83.116465 199,83.116465   L 187.69136,83.116465   z  M 218.97992,114.84458   L 218.97992,79.160441   L 244.79397,79.160441   L 244.79397,83.356224   L 223.73514,83.356224   L 223.73514,94.30522   L 243.4753,94.30522   L 243.4753,98.501003   L 223.73514,98.501003   L 223.73514,110.64879   L 245.63313,110.64879   L 245.63313,114.84458   z  M 250.54819,103.3761   L 255.02369,102.9765   C 255.22349,104.7747 255.70301,106.25321 256.50221,107.41205   C 257.26144,108.53092 258.46024,109.45 260.05863,110.16928   C 261.69698,110.88855 263.53514,111.20823 265.57309,111.20823   C 267.37128,111.20823 268.96967,110.96847 270.32831,110.40903   C 271.7269,109.88956 272.7259,109.17028 273.40522,108.21124   C 274.08453,107.29217 274.40421,106.25321 274.40421,105.1743   C 274.40421,104.05542 274.08453,103.05642 273.44518,102.21727   C 272.80582,101.37811 271.7269,100.69879 270.24839,100.13936   C 269.28935,99.739758 267.17148,99.18032 263.89478,98.381123   C 260.57811,97.581926 258.3004,96.862649 256.98172,96.143372   C 255.26345,95.264256 254.0247,94.14538 253.18554,92.826705   C 252.34638,91.508031 251.90682,90.029517 251.90682,88.391163   C 251.90682,86.592971 252.4263,84.914657 253.46526,83.316264   C 254.46425,81.75783 255.98273,80.598995 257.94076,79.759838   C 259.89879,78.960641 262.09658,78.561043 264.49417,78.561043   C 267.13152,78.561043 269.44919,78.960641 271.48714,79.839758   C 273.5251,80.678914 275.04357,81.917669 276.16245,83.595983   C 277.24136,85.234336 277.84076,87.112449 277.92068,89.23032   L 273.36526,89.549999   C 273.1255,87.312248 272.28634,85.593975 270.88775,84.435139   C 269.48915,83.276304 267.41124,82.716866 264.69397,82.716866   C 261.81686,82.716866 259.73895,83.236344 258.42028,84.2753   C 257.14156,85.314256 256.46225,86.592971 256.46225,88.071485   C 256.46225,89.3502 256.94176,90.389155 257.86084,91.228312   C 258.77992,92.067469 261.13755,92.906625 264.97369,93.785742   C 268.80984,94.664858 271.44718,95.424095 272.88574,96.063452   C 274.96365,97.022489 276.48212,98.221284 277.48112,99.699798   C 278.48012,101.17831 278.95963,102.85663 278.95963,104.7747   C 278.95963,106.69277 278.44016,108.451 277.36124,110.12932   C 276.24237,111.80763 274.68393,113.1263 272.64598,114.04538   C 270.60803,115.00442 268.33032,115.44397 265.77289,115.44397   C 262.53614,115.44397 259.81887,115.00442 257.66104,114.04538   C 255.46325,113.1263 253.74498,111.68775 252.50622,109.80964   C 251.26747,107.93152 250.62811,105.77369 250.54819,103.3761   z "
     style="fill:#000000;fill-rule:evenodd;fill-opacity:1;stroke:none;" />
  <path
     id="path13"
     d="  M 235.36345,168.99016   L 313.04538,220.41847   L 308.13032,228.6502   L 227.13172,175.06405   L 146.13313,227.29156   L 141.01827,219.13976   L 217.26164,169.3498   L 140.65863,119.4   L 145.57369,111.12831   L 226.57229,163.99518   L 308.13032,109.96948   L 313.3251,118.04136   z "
     style="fill:#000000;fill-rule:evenodd;fill-opacity:1;stroke:none;" />
</svg>
