<?xml version="1.0" encoding="UTF-8" standalone="no"?>
<svg
   xmlns:dc="http://purl.org/dc/elements/1.1/"
   xmlns:cc="http://creativecommons.org/ns#"
   xmlns:rdf="http://www.w3.org/1999/02/22-rdf-syntax-ns#"
   xmlns:svg="http://www.w3.org/2000/svg"
   xmlns="http://www.w3.org/2000/svg"
   id="svg13"
   height="95.75mm"
   width="95.75mm"
   version="1.0">
  <metadata
     id="metadata17">
    <rdf:RDF>
      <cc:Work
         rdf:about="">
        <dc:format>image/svg+xml</dc:format>
        <dc:type
           rdf:resource="http://purl.org/dc/dcmitype/StillImage" />
      </cc:Work>
    </rdf:RDF>
  </metadata>
  <defs
     id="defs3">
    <pattern
       y="0"
       x="0"
       height="6"
       width="6"
       patternUnits="userSpaceOnUse"
       id="EMFhbasepattern" />
  </defs>
  <path
     id="path5"
     d="  M 54.345381,54.345381   L 54.345381,307.53092   L 307.53092,307.53092   L 307.53092,54.345381   L 54.345381,54.345381   z "
     style="fill:#aaffaa;fill-rule:evenodd;fill-opacity:1;stroke:none;" />
  <path
     id="path7"
     d="  M 54.345381,54.345381   L 307.53092,54.345381   L 307.53092,307.53092   L 54.345381,307.53092   z "
     style="fill:none;stroke:#000000;stroke-width:9.5903616px;stroke-linecap:butt;stroke-linejoin:miter;stroke-miterlimit:10;stroke-dasharray:none;stroke-opacity:1;" />
  <path
     id="path9"
     d="  M 123.6757,187.41164   L 123.6757,91.308232   L 136.38293,91.308232   L 136.38293,176.06305   L 183.69538,176.06305   L 183.69538,187.41164   L 123.6757,187.41164  z    M 198.32068,187.41164   L 198.32068,91.308232   L 211.06787,91.308232   L 211.06787,176.06305   L 258.38032,176.06305   L 258.38032,187.41164   L 198.32068,187.41164  z   "
     style="fill:#000000;fill-rule:evenodd;fill-opacity:1;stroke:none;" />
  <path
     id="path11"
     d="  M 124.19518,248.90984   L 124.19518,204.2747   L 133.10622,204.2747   L 143.65562,235.88293   C 144.61466,238.8 145.33393,240.99779 145.77349,242.4763   C 146.29297,240.83795 147.09217,238.48032 148.17108,235.32349   L 158.84036,204.2747   L 166.79237,204.2747   L 166.79237,248.90984   L 161.07811,248.90984   L 161.07811,211.54739   L 148.13112,248.90984   L 142.81646,248.90984   L 129.90944,210.90803   L 129.90944,248.90984   z  M 177.3018,248.90984   L 177.3018,204.2747   L 183.21586,204.2747   L 183.21586,248.90984   z  M 201.43755,248.90984   L 189.56948,204.2747   L 195.64337,204.2747   L 202.43654,233.5253   C 203.15582,236.60221 203.79518,239.63915 204.31466,242.6761   C 205.47349,237.88092 206.11285,235.12369 206.31265,234.40441   L 214.82409,204.2747   L 221.93694,204.2747   L 228.33052,226.852   C 229.92891,232.44638 231.08775,237.72108 231.80702,242.6761   C 232.36646,239.83895 233.1257,236.60221 234.04478,232.96586   L 241.03775,204.2747   L 246.9518,204.2747   L 234.72409,248.90984   L 229.0498,248.90984   L 219.61927,214.90401   C 218.82008,212.06686 218.38052,210.30863 218.22068,209.66927   C 217.78112,211.70723 217.34156,213.46546 216.902,214.90401   L 207.47148,248.90984   z "
     style="fill:#000000;fill-rule:evenodd;fill-opacity:1;stroke:none;" />
</svg>
