<?xml version="1.0" encoding="UTF-8" standalone="no"?>
<svg
   xmlns:dc="http://purl.org/dc/elements/1.1/"
   xmlns:cc="http://creativecommons.org/ns#"
   xmlns:rdf="http://www.w3.org/1999/02/22-rdf-syntax-ns#"
   xmlns:svg="http://www.w3.org/2000/svg"
   xmlns="http://www.w3.org/2000/svg"
   id="svg27"
   height="106.75mm"
   width="102.53mm"
   version="1.0">
  <metadata
     id="metadata31">
    <rdf:RDF>
      <cc:Work
         rdf:about="">
        <dc:format>image/svg+xml</dc:format>
        <dc:type
           rdf:resource="http://purl.org/dc/dcmitype/StillImage" />
      </cc:Work>
    </rdf:RDF>
  </metadata>
  <defs
     id="defs3">
    <pattern
       y="0"
       x="0"
       height="6"
       width="6"
       patternUnits="userSpaceOnUse"
       id="EMFhbasepattern" />
  </defs>
  <path
     id="path5"
     d="  M 67.132529,95.903613   L 67.132529,349.08915   L 320.31807,349.08915   L 320.31807,95.903613   L 67.132529,95.903613   z "
     style="fill:#aaffaa;fill-rule:evenodd;fill-opacity:1;stroke:none;" />
  <path
     id="path7"
     d="  M 67.132529,95.903613   L 320.31807,95.903613   L 320.31807,349.08915   L 67.132529,349.08915   z "
     style="fill:none;stroke:#000000;stroke-width:9.5903616px;stroke-linecap:butt;stroke-linejoin:miter;stroke-miterlimit:10;stroke-dasharray:none;stroke-opacity:1;" />
  <path
     id="path9"
     d="  M 193.7253,323.19518   L 193.7253,323.19518   L 97.821685,232.08674   L 289.62891,232.08674   z "
     style="fill:#000000;fill-rule:evenodd;fill-opacity:1;stroke:none;" />
  <path
     id="path11"
     d="  M 193.7253,323.19518   L 193.7253,323.19518   L 97.821685,232.08674   L 289.62891,232.08674   z "
     style="fill:none;stroke:#000000;stroke-width:0.95903611px;stroke-linecap:butt;stroke-linejoin:miter;stroke-miterlimit:10;stroke-dasharray:none;stroke-opacity:1;" />
  <path
     id="path13"
     d="  M 83.436143,208.11084   L 83.436143,236.88192   L 304.01445,236.88192   L 304.01445,208.11084   L 83.436143,208.11084   z "
     style="fill:#000000;fill-rule:evenodd;fill-opacity:1;stroke:none;" />
  <path
     id="path15"
     d="  M 83.436143,208.11084   L 304.01445,208.11084   L 304.01445,236.88192   L 83.436143,236.88192   z "
     style="fill:none;stroke:#000000;stroke-width:0.95903611px;stroke-linecap:butt;stroke-linejoin:miter;stroke-miterlimit:10;stroke-dasharray:none;stroke-opacity:1;" />
  <path
     id="path17"
     d="  M 256.06265,222.49638   C 256.06265,256.94176 228.17068,284.83373 193.7253,284.83373   C 159.31988,284.83373 131.38795,256.94176 131.38795,222.49638   C 131.38795,188.09096 159.31988,160.15903 193.7253,160.15903   C 228.17068,160.15903 256.06265,188.09096 256.06265,222.49638   z "
     style="fill:#000000;fill-rule:evenodd;fill-opacity:1;stroke:none;" />
  <path
     id="path19"
     d="  M 256.06265,222.49638   C 256.06265,256.94176 228.17068,284.83373 193.7253,284.83373   C 159.31988,284.83373 131.38795,256.94176 131.38795,222.49638   C 131.38795,188.09096 159.31988,160.15903 193.7253,160.15903   C 228.17068,160.15903 256.06265,188.09096 256.06265,222.49638  "
     style="fill:none;stroke:#000000;stroke-width:0.95903611px;stroke-linecap:butt;stroke-linejoin:miter;stroke-miterlimit:10;stroke-dasharray:none;stroke-opacity:1;" />
  <path
     id="path21"
     d="  M 193.7253,222.49638   L 126.59277,155.36385  "
     style="fill:none;stroke:#000000;stroke-width:23.975903px;stroke-linecap:butt;stroke-linejoin:miter;stroke-miterlimit:10;stroke-dasharray:none;stroke-opacity:1;" />
  <path
     id="path23"
     d="  M 193.7253,222.49638   L 193.7253,126.59277  "
     style="fill:none;stroke:#000000;stroke-width:23.975903px;stroke-linecap:butt;stroke-linejoin:miter;stroke-miterlimit:10;stroke-dasharray:none;stroke-opacity:1;" />
  <path
     id="path25"
     d="  M 193.7253,222.49638   L 260.85783,155.36385  "
     style="fill:none;stroke:#000000;stroke-width:23.975903px;stroke-linecap:butt;stroke-linejoin:miter;stroke-miterlimit:10;stroke-dasharray:none;stroke-opacity:1;" />
</svg>
