<?xml version="1.0" encoding="UTF-8" standalone="no"?>
<svg
   xmlns:dc="http://purl.org/dc/elements/1.1/"
   xmlns:cc="http://creativecommons.org/ns#"
   xmlns:rdf="http://www.w3.org/1999/02/22-rdf-syntax-ns#"
   xmlns:svg="http://www.w3.org/2000/svg"
   xmlns="http://www.w3.org/2000/svg"
   id="svg15"
   height="116.05mm"
   width="135.35001mm"
   version="1.0">
  <metadata
     id="metadata19">
    <rdf:RDF>
      <cc:Work
         rdf:about="">
        <dc:format>image/svg+xml</dc:format>
        <dc:type
           rdf:resource="http://purl.org/dc/dcmitype/StillImage" />
      </cc:Work>
    </rdf:RDF>
  </metadata>
  <defs
     id="defs3">
    <pattern
       y="0"
       x="0"
       height="6"
       width="6"
       patternUnits="userSpaceOnUse"
       id="EMFhbasepattern" />
  </defs>
  <path
     id="path5"
     d="  M 174.2249,54.345381   C 54.345381,54.345381 54.345381,250.94779 174.2249,250.94779   C 174.2249,384.25381 337.26104,384.25381 337.26104,250.94779   C 457.14056,250.94779 457.14056,54.345381 337.26104,54.345381   z "
     style="fill:#ffff80;fill-rule:evenodd;fill-opacity:1;stroke:none;" />
  <path
     id="path7"
     d="  M 174.2249,54.345381   C 54.345381,54.345381 54.345381,250.94779 174.2249,250.94779   C 174.2249,384.25381 337.26104,384.25381 337.26104,250.94779   C 457.14056,250.94779 457.14056,54.345381 337.26104,54.345381  "
     style="fill:none;stroke:#000000;stroke-width:9.5903616px;stroke-linecap:butt;stroke-linejoin:miter;stroke-miterlimit:10;stroke-dasharray:none;stroke-opacity:1;" />
  <path
     id="path9"
     d="  M 159.83936,131.06827   L 159.83936,131.06827   L 159.83936,169.42972   L 255.74297,226.97188   L 351.64658,169.42972   L 351.64658,131.06827   L 255.74297,188.61044   z "
     style="fill:#000000;fill-rule:evenodd;fill-opacity:1;stroke:none;" />
  <path
     id="path11"
     d="  M 195.76325,116.04337   L 195.76325,74.844778   L 203.99498,74.844778   L 213.74518,104.01546   C 214.62429,106.73273 215.30361,108.77068 215.70321,110.12932   C 216.18273,108.61084 216.902,106.41305 217.901,103.49598   L 227.73112,74.844778   L 235.08373,74.844778   L 235.08373,116.04337   L 229.84899,116.04337   L 229.84899,81.558031   L 217.86104,116.04337   L 212.94598,116.04337   L 201.03795,80.998593   L 201.03795,116.04337   z  M 273.28534,101.61787   L 278.71988,102.9765   C 277.56104,107.45201 275.52309,110.88855 272.56606,113.20622   C 269.56907,115.56385 265.97269,116.76265 261.65702,116.76265   C 257.22148,116.76265 253.6251,115.84357 250.82791,114.04538   C 248.07068,112.24719 245.95281,109.60984 244.47429,106.17329   C 243.03574,102.77671 242.31646,99.06044 242.31646,95.144376   C 242.31646,90.868673 243.11566,87.112449 244.75401,83.915661   C 246.39237,80.718874 248.75,78.281324 251.74698,76.642971   C 254.78393,74.964658 258.1006,74.165461 261.73694,74.165461   C 265.85281,74.165461 269.32931,75.204417 272.1265,77.282328   C 274.96365,79.4002 276.92168,82.357228 278.0006,86.153412   L 272.64598,87.432127   C 271.68694,84.435139 270.32831,82.237348 268.49016,80.878714   C 266.69196,79.520079 264.37429,78.800802 261.61706,78.800802   C 258.46024,78.800802 255.82289,79.560039 253.70502,81.078513   C 251.58714,82.596987 250.06867,84.634939 249.22951,87.192368   C 248.3504,89.749798 247.91084,92.387147 247.91084,95.104416   C 247.91084,98.620882 248.43032,101.65783 249.46927,104.29518   C 250.46827,106.89257 252.06666,108.8506 254.22449,110.12932   C 256.38233,111.44799 258.7,112.08735 261.21747,112.08735   C 264.25441,112.08735 266.8518,111.20823 268.96967,109.45   C 271.08755,107.69177 272.5261,105.05442 273.28534,101.61787   z  M 285.27329,116.04337   L 285.27329,74.844778   L 293.46506,74.844778   L 303.21526,104.01546   C 304.13433,106.73273 304.77369,108.77068 305.17329,110.12932   C 305.65281,108.61084 306.37208,106.41305 307.37108,103.49598   L 317.24116,74.844778   L 324.55381,74.844778   L 324.55381,116.04337   L 319.31907,116.04337   L 319.31907,81.558031   L 307.33112,116.04337   L 302.41606,116.04337   L 290.50803,80.998593   L 290.50803,116.04337   z "
     style="fill:#000000;fill-rule:evenodd;fill-opacity:1;stroke:none;" />
  <path
     id="path13"
     d="  M 195.76325,116.04337   L 195.76325,74.844778   L 203.99498,74.844778   L 213.74518,104.01546   C 214.62429,106.73273 215.30361,108.77068 215.70321,110.12932   C 216.18273,108.61084 216.902,106.41305 217.901,103.49598   L 227.73112,74.844778   L 235.08373,74.844778   L 235.08373,116.04337   L 229.84899,116.04337   L 229.84899,81.558031   L 217.86104,116.04337   L 212.94598,116.04337   L 201.03795,80.998593   L 201.03795,116.04337   z  M 273.28534,101.61787   L 278.71988,102.9765   C 277.56104,107.45201 275.52309,110.88855 272.56606,113.20622   C 269.56907,115.56385 265.97269,116.76265 261.65702,116.76265   C 257.22148,116.76265 253.6251,115.84357 250.82791,114.04538   C 248.07068,112.24719 245.95281,109.60984 244.47429,106.17329   C 243.03574,102.77671 242.31646,99.06044 242.31646,95.144376   C 242.31646,90.868673 243.11566,87.112449 244.75401,83.915661   C 246.39237,80.718874 248.75,78.281324 251.74698,76.642971   C 254.78393,74.964658 258.1006,74.165461 261.73694,74.165461   C 265.85281,74.165461 269.32931,75.204417 272.1265,77.282328   C 274.96365,79.4002 276.92168,82.357228 278.0006,86.153412   L 272.64598,87.432127   C 271.68694,84.435139 270.32831,82.237348 268.49016,80.878714   C 266.69196,79.520079 264.37429,78.800802 261.61706,78.800802   C 258.46024,78.800802 255.82289,79.560039 253.70502,81.078513   C 251.58714,82.596987 250.06867,84.634939 249.22951,87.192368   C 248.3504,89.749798 247.91084,92.387147 247.91084,95.104416   C 247.91084,98.620882 248.43032,101.65783 249.46927,104.29518   C 250.46827,106.89257 252.06666,108.8506 254.22449,110.12932   C 256.38233,111.44799 258.7,112.08735 261.21747,112.08735   C 264.25441,112.08735 266.8518,111.20823 268.96967,109.45   C 271.08755,107.69177 272.5261,105.05442 273.28534,101.61787   z  M 285.27329,116.04337   L 285.27329,74.844778   L 293.46506,74.844778   L 303.21526,104.01546   C 304.13433,106.73273 304.77369,108.77068 305.17329,110.12932   C 305.65281,108.61084 306.37208,106.41305 307.37108,103.49598   L 317.24116,74.844778   L 324.55381,74.844778   L 324.55381,116.04337   L 319.31907,116.04337   L 319.31907,81.558031   L 307.33112,116.04337   L 302.41606,116.04337   L 290.50803,80.998593   L 290.50803,116.04337   z "
     style="fill:none;stroke:#000000;stroke-width:0.95903611px;stroke-linecap:butt;stroke-linejoin:miter;stroke-miterlimit:10;stroke-dasharray:none;stroke-opacity:1;" />
</svg>
