<?xml version="1.0" encoding="UTF-8" standalone="no"?>
<svg
   xmlns:dc="http://purl.org/dc/elements/1.1/"
   xmlns:cc="http://creativecommons.org/ns#"
   xmlns:rdf="http://www.w3.org/1999/02/22-rdf-syntax-ns#"
   xmlns:svg="http://www.w3.org/2000/svg"
   xmlns="http://www.w3.org/2000/svg"
   id="svg13"
   height="130.27mm"
   width="130.27mm"
   version="1.0">
  <metadata
     id="metadata17">
    <rdf:RDF>
      <cc:Work
         rdf:about="">
        <dc:format>image/svg+xml</dc:format>
        <dc:type
           rdf:resource="http://purl.org/dc/dcmitype/StillImage" />
      </cc:Work>
    </rdf:RDF>
  </metadata>
  <defs
     id="defs3">
    <pattern
       y="0"
       x="0"
       height="6"
       width="6"
       patternUnits="userSpaceOnUse"
       id="EMFhbasepattern" />
  </defs>
  <path
     id="path5"
     d="  M 164.63454,327.67068   C 164.63454,437.95983 327.67068,437.95983 327.67068,327.67068   C 437.95983,327.67068 437.95983,164.63454 327.67068,164.63454   C 327.67068,54.345381 164.63454,54.345381 164.63454,164.63454   C 54.345381,164.63454 54.345381,327.67068 164.63454,327.67068   z "
     style="fill:#ffff80;fill-rule:evenodd;fill-opacity:1;stroke:none;" />
  <path
     id="path7"
     d="  M 164.63454,327.67068   C 164.63454,437.95983 327.67068,437.95983 327.67068,327.67068   C 437.95983,327.67068 437.95983,164.63454 327.67068,164.63454   C 327.67068,54.345381 164.63454,54.345381 164.63454,164.63454   C 54.345381,164.63454 54.345381,327.67068 164.63454,327.67068  "
     style="fill:none;stroke:#000000;stroke-width:9.5903616px;stroke-linecap:butt;stroke-linejoin:miter;stroke-miterlimit:10;stroke-dasharray:none;stroke-opacity:1;" />
  <path
     id="path9"
     d="  M 188.89016,252.6261   L 188.89016,156.52269   L 201.59739,156.52269   L 201.59739,241.27751   L 248.90984,241.27751   L 248.90984,252.6261   L 188.89016,252.6261  z    M 263.53514,252.6261   L 263.53514,156.52269   L 276.28233,156.52269   L 276.28233,241.27751   L 323.59477,241.27751   L 323.59477,252.6261   L 263.53514,252.6261  z   "
     style="fill:#000000;fill-rule:evenodd;fill-opacity:1;stroke:none;" />
  <path
     id="path11"
     d="  M 189.40964,314.12429   L 189.40964,269.48915   L 198.32068,269.48915   L 208.87008,301.09739   C 209.82911,304.01445 210.54839,306.21224 210.98795,307.69076   C 211.50743,306.05241 212.30662,303.69477 213.38554,300.53795   L 224.05482,269.48915   L 232.00682,269.48915   L 232.00682,314.12429   L 226.29257,314.12429   L 226.29257,276.76184   L 213.34558,314.12429   L 208.03092,314.12429   L 195.12389,276.12249   L 195.12389,314.12429   z  M 242.51626,314.12429   L 242.51626,269.48915   L 248.43032,269.48915   L 248.43032,314.12429   z  M 266.652,314.12429   L 254.78393,269.48915   L 260.85783,269.48915   L 267.651,298.73975   C 268.37028,301.81666 269.00963,304.85361 269.52911,307.89056   C 270.68795,303.09538 271.32731,300.33815 271.5271,299.61887   L 280.03855,269.48915   L 287.1514,269.48915   L 293.54498,292.06646   C 295.14337,297.66084 296.3022,302.93554 297.02148,307.89056   C 297.58092,305.05341 298.34016,301.81666 299.25923,298.18032   L 306.2522,269.48915   L 312.16626,269.48915   L 299.93855,314.12429   L 294.26425,314.12429   L 284.83373,280.11847   C 284.03453,277.28132 283.59498,275.52309 283.43514,274.88373   C 282.99558,276.92168 282.55602,278.67992 282.11646,280.11847   L 272.68594,314.12429   z "
     style="fill:#000000;fill-rule:evenodd;fill-opacity:1;stroke:none;" />
</svg>
