<?xml version="1.0" encoding="UTF-8" standalone="no"?>
<svg
   xmlns:dc="http://purl.org/dc/elements/1.1/"
   xmlns:cc="http://creativecommons.org/ns#"
   xmlns:rdf="http://www.w3.org/1999/02/22-rdf-syntax-ns#"
   xmlns:svg="http://www.w3.org/2000/svg"
   xmlns="http://www.w3.org/2000/svg"
   id="svg13"
   height="101.85mm"
   width="101.85mm"
   version="1.0">
  <metadata
     id="metadata17">
    <rdf:RDF>
      <cc:Work
         rdf:about="">
        <dc:format>image/svg+xml</dc:format>
        <dc:type
           rdf:resource="http://purl.org/dc/dcmitype/StillImage" />
      </cc:Work>
    </rdf:RDF>
  </metadata>
  <defs
     id="defs3">
    <pattern
       y="0"
       x="0"
       height="6"
       width="6"
       patternUnits="userSpaceOnUse"
       id="EMFhbasepattern" />
  </defs>
  <path
     id="path5"
     d="  M 330.54779,192.44658   C 330.54779,268.72992 268.72992,330.54779 192.44658,330.54779   C 116.20321,330.54779 54.345381,268.72992 54.345381,192.44658   C 54.345381,116.20321 116.20321,54.345381 192.44658,54.345381   C 268.72992,54.345381 330.54779,116.20321 330.54779,192.44658   z "
     style="fill:#80e0ff;fill-rule:evenodd;fill-opacity:1;stroke:none;" />
  <path
     id="path7"
     d="  M 330.54779,192.44658   C 330.54779,268.72992 268.72992,330.54779 192.44658,330.54779   C 116.20321,330.54779 54.345381,268.72992 54.345381,192.44658   C 54.345381,116.20321 116.20321,54.345381 192.44658,54.345381   C 268.72992,54.345381 330.54779,116.20321 330.54779,192.44658  "
     style="fill:none;stroke:#000000;stroke-width:9.5903616px;stroke-linecap:butt;stroke-linejoin:miter;stroke-miterlimit:10;stroke-dasharray:none;stroke-opacity:1;" />
  <path
     id="path9"
     d="  M 135.18413,198.92008   L 135.18413,102.81667   L 147.89136,102.81667   L 147.89136,187.57148   L 195.20381,187.57148   L 195.20381,198.92008   L 135.18413,198.92008  z    M 209.82911,198.92008   L 209.82911,102.81667   L 222.5763,102.81667   L 222.5763,187.57148   L 269.88875,187.57148   L 269.88875,198.92008   L 209.82911,198.92008  z   "
     style="fill:#000000;fill-rule:evenodd;fill-opacity:1;stroke:none;" />
  <path
     id="path11"
     d="  M 135.70361,260.41827   L 135.70361,215.78313   L 144.61466,215.78313   L 155.16405,247.39136   C 156.12309,250.30843 156.84237,252.50622 157.28193,253.98474   C 157.8014,252.34638 158.6006,249.98875 159.67952,246.83192   L 170.34879,215.78313   L 178.3008,215.78313   L 178.3008,260.41827   L 172.58654,260.41827   L 172.58654,223.05582   L 159.63956,260.41827   L 154.3249,260.41827   L 141.41787,222.41646   L 141.41787,260.41827   z  M 188.81024,260.41827   L 188.81024,215.78313   L 194.72429,215.78313   L 194.72429,260.41827   z  M 212.94598,260.41827   L 201.07791,215.78313   L 207.1518,215.78313   L 213.94498,245.03373   C 214.66425,248.11064 215.30361,251.14759 215.82309,254.18453   C 216.98192,249.38935 217.62128,246.63212 217.82108,245.91285   L 226.33253,215.78313   L 233.44538,215.78313   L 239.83895,238.36044   C 241.43735,243.95482 242.59618,249.22951 243.31546,254.18453   C 243.8749,251.34739 244.63413,248.11064 245.55321,244.47429   L 252.54618,215.78313   L 258.46024,215.78313   L 246.23253,260.41827   L 240.55823,260.41827   L 231.12771,226.41245   C 230.32851,223.5753 229.88895,221.81707 229.72911,221.17771   C 229.28955,223.21566 228.85,224.97389 228.41044,226.41245   L 218.97992,260.41827   z "
     style="fill:#000000;fill-rule:evenodd;fill-opacity:1;stroke:none;" />
</svg>
