<?xml version="1.0" encoding="UTF-8" standalone="no"?>
<svg
   xmlns:dc="http://purl.org/dc/elements/1.1/"
   xmlns:cc="http://creativecommons.org/ns#"
   xmlns:rdf="http://www.w3.org/1999/02/22-rdf-syntax-ns#"
   xmlns:svg="http://www.w3.org/2000/svg"
   xmlns="http://www.w3.org/2000/svg"
   id="svg27"
   height="117.24mm"
   width="116.73mm"
   version="1.0">
  <metadata
     id="metadata31">
    <rdf:RDF>
      <cc:Work
         rdf:about="">
        <dc:format>image/svg+xml</dc:format>
        <dc:type
           rdf:resource="http://purl.org/dc/dcmitype/StillImage" />
      </cc:Work>
    </rdf:RDF>
  </metadata>
  <defs
     id="defs3">
    <pattern
       y="0"
       x="0"
       height="6"
       width="6"
       patternUnits="userSpaceOnUse"
       id="EMFhbasepattern" />
  </defs>
  <path
     id="path5"
     d="  M 220.57831,388.40963   L 220.57831,388.40963   L 386.49156,222.49638   L 220.57831,56.583132   L 54.665059,222.49638   z "
     style="fill:#ff8080;fill-rule:evenodd;fill-opacity:1;stroke:none;" />
  <path
     id="path7"
     d="  M 220.57831,388.40963   L 220.57831,388.40963   L 386.49156,222.49638   L 220.57831,56.583132   L 54.665059,222.49638   z "
     style="fill:none;stroke:#000000;stroke-width:9.5903616px;stroke-linecap:butt;stroke-linejoin:miter;stroke-miterlimit:10;stroke-dasharray:none;stroke-opacity:1;" />
  <path
     id="path9"
     d="  M 220.57831,323.19518   L 220.57831,323.19518   L 124.6747,232.08674   L 316.48192,232.08674   z "
     style="fill:#000000;fill-rule:evenodd;fill-opacity:1;stroke:none;" />
  <path
     id="path11"
     d="  M 220.57831,323.19518   L 220.57831,323.19518   L 124.6747,232.08674   L 316.48192,232.08674   z "
     style="fill:none;stroke:#000000;stroke-width:0.95903611px;stroke-linecap:butt;stroke-linejoin:miter;stroke-miterlimit:10;stroke-dasharray:none;stroke-opacity:1;" />
  <path
     id="path13"
     d="  M 110.28916,208.11084   L 110.28916,236.88192   L 330.86747,236.88192   L 330.86747,208.11084   L 110.28916,208.11084   z "
     style="fill:#000000;fill-rule:evenodd;fill-opacity:1;stroke:none;" />
  <path
     id="path15"
     d="  M 110.28916,208.11084   L 330.86747,208.11084   L 330.86747,236.88192   L 110.28916,236.88192   z "
     style="fill:none;stroke:#000000;stroke-width:0.95903611px;stroke-linecap:butt;stroke-linejoin:miter;stroke-miterlimit:10;stroke-dasharray:none;stroke-opacity:1;" />
  <path
     id="path17"
     d="  M 282.91566,222.49638   C 282.91566,256.94176 255.02369,284.83373 220.57831,284.83373   C 186.17289,284.83373 158.24096,256.94176 158.24096,222.49638   C 158.24096,188.09096 186.17289,160.15903 220.57831,160.15903   C 255.02369,160.15903 282.91566,188.09096 282.91566,222.49638   z "
     style="fill:#000000;fill-rule:evenodd;fill-opacity:1;stroke:none;" />
  <path
     id="path19"
     d="  M 282.91566,222.49638   C 282.91566,256.94176 255.02369,284.83373 220.57831,284.83373   C 186.17289,284.83373 158.24096,256.94176 158.24096,222.49638   C 158.24096,188.09096 186.17289,160.15903 220.57831,160.15903   C 255.02369,160.15903 282.91566,188.09096 282.91566,222.49638  "
     style="fill:none;stroke:#000000;stroke-width:0.95903611px;stroke-linecap:butt;stroke-linejoin:miter;stroke-miterlimit:10;stroke-dasharray:none;stroke-opacity:1;" />
  <path
     id="path21"
     d="  M 220.57831,222.49638   L 153.44578,155.36385  "
     style="fill:none;stroke:#000000;stroke-width:23.975903px;stroke-linecap:butt;stroke-linejoin:miter;stroke-miterlimit:10;stroke-dasharray:none;stroke-opacity:1;" />
  <path
     id="path23"
     d="  M 220.57831,222.49638   L 220.57831,126.59277  "
     style="fill:none;stroke:#000000;stroke-width:23.975903px;stroke-linecap:butt;stroke-linejoin:miter;stroke-miterlimit:10;stroke-dasharray:none;stroke-opacity:1;" />
  <path
     id="path25"
     d="  M 220.57831,222.49638   L 287.71084,155.36385  "
     style="fill:none;stroke:#000000;stroke-width:23.975903px;stroke-linecap:butt;stroke-linejoin:miter;stroke-miterlimit:10;stroke-dasharray:none;stroke-opacity:1;" />
</svg>
