<?xml version="1.0" encoding="UTF-8" standalone="no"?>
<svg
   xmlns:dc="http://purl.org/dc/elements/1.1/"
   xmlns:cc="http://creativecommons.org/ns#"
   xmlns:rdf="http://www.w3.org/1999/02/22-rdf-syntax-ns#"
   xmlns:svg="http://www.w3.org/2000/svg"
   xmlns="http://www.w3.org/2000/svg"
   id="svg15"
   height="125.53mm"
   width="95.75mm"
   version="1.0">
  <metadata
     id="metadata19">
    <rdf:RDF>
      <cc:Work
         rdf:about="">
        <dc:format>image/svg+xml</dc:format>
        <dc:type
           rdf:resource="http://purl.org/dc/dcmitype/StillImage" />
      </cc:Work>
    </rdf:RDF>
  </metadata>
  <defs
     id="defs3">
    <pattern
       y="0"
       x="0"
       height="6"
       width="6"
       patternUnits="userSpaceOnUse"
       id="EMFhbasepattern" />
  </defs>
  <path
     id="path5"
     d="  M 54.345381,54.345381   C 54.345381,419.73815 307.53092,419.73815 307.53092,54.345381   z "
     style="fill:#80e0ff;fill-rule:evenodd;fill-opacity:1;stroke:none;" />
  <path
     id="path7"
     d="  M 54.345381,54.345381   C 54.345381,419.73815 307.53092,419.73815 307.53092,54.345381  "
     style="fill:none;stroke:#000000;stroke-width:9.5903616px;stroke-linecap:butt;stroke-linejoin:miter;stroke-miterlimit:10;stroke-dasharray:none;stroke-opacity:1;" />
  <path
     id="path9"
     d="  M 85.034537,131.06827   L 85.034537,131.06827   L 85.034537,169.42972   L 180.93815,226.97188   L 276.84176,169.42972   L 276.84176,131.06827   L 180.93815,188.61044   z "
     style="fill:#000000;fill-rule:evenodd;fill-opacity:1;stroke:none;" />
  <path
     id="path11"
     d="  M 120.95843,116.04337   L 120.95843,74.844778   L 129.19016,74.844778   L 138.94036,104.01546   C 139.81948,106.73273 140.49879,108.77068 140.89839,110.12932   C 141.37791,108.61084 142.09719,106.41305 143.09618,103.49598   L 152.9263,74.844778   L 160.27891,74.844778   L 160.27891,116.04337   L 155.04417,116.04337   L 155.04417,81.558031   L 143.05622,116.04337   L 138.14116,116.04337   L 126.23313,80.998593   L 126.23313,116.04337   z  M 198.48052,101.61787   L 203.91506,102.9765   C 202.75622,107.45201 200.71827,110.88855 197.76124,113.20622   C 194.76425,115.56385 191.16787,116.76265 186.85221,116.76265   C 182.41666,116.76265 178.82028,115.84357 176.02309,114.04538   C 173.26586,112.24719 171.14799,109.60984 169.66948,106.17329   C 168.23092,102.77671 167.51164,99.06044 167.51164,95.144376   C 167.51164,90.868673 168.31084,87.112449 169.94919,83.915661   C 171.58755,80.718874 173.94518,78.281324 176.94217,76.642971   C 179.97911,74.964658 183.29578,74.165461 186.93213,74.165461   C 191.04799,74.165461 194.5245,75.204417 197.32168,77.282328   C 200.15883,79.4002 202.11686,82.357228 203.19578,86.153412   L 197.84116,87.432127   C 196.88213,84.435139 195.52349,82.237348 193.68534,80.878714   C 191.88715,79.520079 189.56948,78.800802 186.81225,78.800802   C 183.65542,78.800802 181.01807,79.560039 178.9002,81.078513   C 176.78233,82.596987 175.26385,84.634939 174.4247,87.192368   C 173.54558,89.749798 173.10602,92.387147 173.10602,95.104416   C 173.10602,98.620882 173.6255,101.65783 174.66446,104.29518   C 175.66345,106.89257 177.26184,108.8506 179.41968,110.12932   C 181.57751,111.44799 183.89518,112.08735 186.41265,112.08735   C 189.4496,112.08735 192.04699,111.20823 194.16486,109.45   C 196.28273,107.69177 197.72128,105.05442 198.48052,101.61787   z  M 210.46847,116.04337   L 210.46847,74.844778   L 218.66024,74.844778   L 228.41044,104.01546   C 229.32951,106.73273 229.96887,108.77068 230.36847,110.12932   C 230.84799,108.61084 231.56727,106.41305 232.56626,103.49598   L 242.43634,74.844778   L 249.74899,74.844778   L 249.74899,116.04337   L 244.51425,116.04337   L 244.51425,81.558031   L 232.5263,116.04337   L 227.61124,116.04337   L 215.70321,80.998593   L 215.70321,116.04337   z "
     style="fill:#000000;fill-rule:evenodd;fill-opacity:1;stroke:none;" />
  <path
     id="path13"
     d="  M 120.95843,116.04337   L 120.95843,74.844778   L 129.19016,74.844778   L 138.94036,104.01546   C 139.81948,106.73273 140.49879,108.77068 140.89839,110.12932   C 141.37791,108.61084 142.09719,106.41305 143.09618,103.49598   L 152.9263,74.844778   L 160.27891,74.844778   L 160.27891,116.04337   L 155.04417,116.04337   L 155.04417,81.558031   L 143.05622,116.04337   L 138.14116,116.04337   L 126.23313,80.998593   L 126.23313,116.04337   z  M 198.48052,101.61787   L 203.91506,102.9765   C 202.75622,107.45201 200.71827,110.88855 197.76124,113.20622   C 194.76425,115.56385 191.16787,116.76265 186.85221,116.76265   C 182.41666,116.76265 178.82028,115.84357 176.02309,114.04538   C 173.26586,112.24719 171.14799,109.60984 169.66948,106.17329   C 168.23092,102.77671 167.51164,99.06044 167.51164,95.144376   C 167.51164,90.868673 168.31084,87.112449 169.94919,83.915661   C 171.58755,80.718874 173.94518,78.281324 176.94217,76.642971   C 179.97911,74.964658 183.29578,74.165461 186.93213,74.165461   C 191.04799,74.165461 194.5245,75.204417 197.32168,77.282328   C 200.15883,79.4002 202.11686,82.357228 203.19578,86.153412   L 197.84116,87.432127   C 196.88213,84.435139 195.52349,82.237348 193.68534,80.878714   C 191.88715,79.520079 189.56948,78.800802 186.81225,78.800802   C 183.65542,78.800802 181.01807,79.560039 178.9002,81.078513   C 176.78233,82.596987 175.26385,84.634939 174.4247,87.192368   C 173.54558,89.749798 173.10602,92.387147 173.10602,95.104416   C 173.10602,98.620882 173.6255,101.65783 174.66446,104.29518   C 175.66345,106.89257 177.26184,108.8506 179.41968,110.12932   C 181.57751,111.44799 183.89518,112.08735 186.41265,112.08735   C 189.4496,112.08735 192.04699,111.20823 194.16486,109.45   C 196.28273,107.69177 197.72128,105.05442 198.48052,101.61787   z  M 210.46847,116.04337   L 210.46847,74.844778   L 218.66024,74.844778   L 228.41044,104.01546   C 229.32951,106.73273 229.96887,108.77068 230.36847,110.12932   C 230.84799,108.61084 231.56727,106.41305 232.56626,103.49598   L 242.43634,74.844778   L 249.74899,74.844778   L 249.74899,116.04337   L 244.51425,116.04337   L 244.51425,81.558031   L 232.5263,116.04337   L 227.61124,116.04337   L 215.70321,80.998593   L 215.70321,116.04337   z "
     style="fill:none;stroke:#000000;stroke-width:0.95903611px;stroke-linecap:butt;stroke-linejoin:miter;stroke-miterlimit:10;stroke-dasharray:none;stroke-opacity:1;" />
</svg>
