<?xml version="1.0" encoding="UTF-8" standalone="no"?>
<svg
   xmlns:dc="http://purl.org/dc/elements/1.1/"
   xmlns:cc="http://creativecommons.org/ns#"
   xmlns:rdf="http://www.w3.org/1999/02/22-rdf-syntax-ns#"
   xmlns:svg="http://www.w3.org/2000/svg"
   xmlns="http://www.w3.org/2000/svg"
   id="svg17"
   height="116.73mm"
   width="116.73mm"
   version="1.0">
  <metadata
     id="metadata21">
    <rdf:RDF>
      <cc:Work
         rdf:about="">
        <dc:format>image/svg+xml</dc:format>
        <dc:type
           rdf:resource="http://purl.org/dc/dcmitype/StillImage" />
      </cc:Work>
    </rdf:RDF>
  </metadata>
  <defs
     id="defs3">
    <pattern
       y="0"
       x="0"
       height="6"
       width="6"
       patternUnits="userSpaceOnUse"
       id="EMFhbasepattern" />
  </defs>
  <path
     id="path5"
     d="  M 220.57831,386.49156   L 220.57831,386.49156   L 386.49156,220.57831   L 220.57831,54.665059   L 54.665059,220.57831   L 220.57831,386.49156   z "
     style="fill:#ff8080;fill-rule:evenodd;fill-opacity:1;stroke:none;" />
  <path
     id="path7"
     d="  M 220.57831,386.49156   L 220.57831,386.49156   L 386.49156,220.57831   L 220.57831,54.665059   L 54.665059,220.57831   L 220.57831,386.49156  "
     style="fill:none;stroke:#000000;stroke-width:9.5903616px;stroke-linecap:butt;stroke-linejoin:miter;stroke-miterlimit:10;stroke-dasharray:none;stroke-opacity:1;" />
  <path
     id="path9"
     d="  M 134.26506,191.80723   L 306.89156,191.80723   L 306.89156,249.34939   L 134.26506,249.34939   z "
     style="fill:none;stroke:#000000;stroke-width:9.5903616px;stroke-linecap:butt;stroke-linejoin:miter;stroke-miterlimit:10;stroke-dasharray:none;stroke-opacity:1;" />
  <path
     id="path11"
     d="  M 182.21686,220.57831   C 182.21686,231.20763 173.66546,239.75903 163.03614,239.75903   C 152.44678,239.75903 143.85542,231.20763 143.85542,220.57831   C 143.85542,209.98895 152.44678,201.39759 163.03614,201.39759   C 173.66546,201.39759 182.21686,209.98895 182.21686,220.57831   z "
     style="fill:#000000;fill-rule:evenodd;fill-opacity:1;stroke:none;" />
  <path
     id="path13"
     d="  M 239.75903,220.57831   C 239.75903,231.20763 231.20763,239.75903 220.57831,239.75903   C 209.98895,239.75903 201.39759,231.20763 201.39759,220.57831   C 201.39759,209.98895 209.98895,201.39759 220.57831,201.39759   C 231.20763,201.39759 239.75903,209.98895 239.75903,220.57831   z "
     style="fill:#000000;fill-rule:evenodd;fill-opacity:1;stroke:none;" />
  <path
     id="path15"
     d="  M 297.3012,220.57831   C 297.3012,231.20763 288.7498,239.75903 278.12048,239.75903   C 267.53112,239.75903 258.93976,231.20763 258.93976,220.57831   C 258.93976,209.98895 267.53112,201.39759 278.12048,201.39759   C 288.7498,201.39759 297.3012,209.98895 297.3012,220.57831   z "
     style="fill:#000000;fill-rule:evenodd;fill-opacity:1;stroke:none;" />
</svg>
