<?xml version="1.0" encoding="UTF-8" standalone="no"?>
<svg
   xmlns:dc="http://purl.org/dc/elements/1.1/"
   xmlns:cc="http://creativecommons.org/ns#"
   xmlns:rdf="http://www.w3.org/1999/02/22-rdf-syntax-ns#"
   xmlns:svg="http://www.w3.org/2000/svg"
   xmlns="http://www.w3.org/2000/svg"
   id="svg15"
   height="95.75mm"
   width="95.75mm"
   version="1.0">
  <metadata
     id="metadata19">
    <rdf:RDF>
      <cc:Work
         rdf:about="">
        <dc:format>image/svg+xml</dc:format>
        <dc:type
           rdf:resource="http://purl.org/dc/dcmitype/StillImage" />
      </cc:Work>
    </rdf:RDF>
  </metadata>
  <defs
     id="defs3">
    <pattern
       y="0"
       x="0"
       height="6"
       width="6"
       patternUnits="userSpaceOnUse"
       id="EMFhbasepattern" />
  </defs>
  <path
     id="path5"
     d="  M 54.345381,54.345381   L 54.345381,307.53092   L 307.53092,307.53092   L 307.53092,54.345381   L 54.345381,54.345381   z "
     style="fill:#aaffaa;fill-rule:evenodd;fill-opacity:1;stroke:none;" />
  <path
     id="path7"
     d="  M 54.345381,54.345381   L 307.53092,54.345381   L 307.53092,307.53092   L 54.345381,307.53092   z "
     style="fill:none;stroke:#000000;stroke-width:9.5903616px;stroke-linecap:butt;stroke-linejoin:miter;stroke-miterlimit:10;stroke-dasharray:none;stroke-opacity:1;" />
  <path
     id="path9"
     d="  M 180.93815,190.52851   L 180.93815,190.52851   L 94.624898,142.5767   L 94.624898,238.48032   L 180.93815,190.52851   L 267.2514,142.5767   L 267.2514,238.48032   L 180.93815,190.52851   z "
     style="fill:#000000;fill-rule:evenodd;fill-opacity:1;stroke:none;" />
  <path
     id="path11"
     d="  M 120.95843,127.55181   L 120.95843,86.353212   L 129.19016,86.353212   L 138.94036,115.52389   C 139.81948,118.24116 140.49879,120.27911 140.89839,121.63775   C 141.37791,120.11928 142.09719,117.92148 143.09618,115.00442   L 152.9263,86.353212   L 160.27891,86.353212   L 160.27891,127.55181   L 155.04417,127.55181   L 155.04417,93.066465   L 143.05622,127.55181   L 138.14116,127.55181   L 126.23313,92.507027   L 126.23313,127.55181   z  M 198.48052,113.1263   L 203.91506,114.48494   C 202.75622,118.96044 200.71827,122.39699 197.76124,124.71466   C 194.76425,127.07229 191.16787,128.27108 186.85221,128.27108   C 182.41666,128.27108 178.82028,127.35201 176.02309,125.55381   C 173.26586,123.75562 171.14799,121.11827 169.66948,117.68173   C 168.23092,114.28514 167.51164,110.56887 167.51164,106.65281   C 167.51164,102.37711 168.31084,98.620882 169.94919,95.424095   C 171.58755,92.227308 173.94518,89.789758 176.94217,88.151404   C 179.97911,86.473091 183.29578,85.673894 186.93213,85.673894   C 191.04799,85.673894 194.5245,86.71285 197.32168,88.790762   C 200.15883,90.908633 202.11686,93.865661 203.19578,97.661846   L 197.84116,98.940561   C 196.88213,95.943573 195.52349,93.745782 193.68534,92.387147   C 191.88715,91.028513 189.56948,90.309236 186.81225,90.309236   C 183.65542,90.309236 181.01807,91.068473 178.9002,92.586946   C 176.78233,94.10542 175.26385,96.143372 174.4247,98.700802   C 173.54558,101.25823 173.10602,103.89558 173.10602,106.61285   C 173.10602,110.12932 173.6255,113.16626 174.66446,115.80361   C 175.66345,118.401 177.26184,120.35903 179.41968,121.63775   C 181.57751,122.95642 183.89518,123.59578 186.41265,123.59578   C 189.4496,123.59578 192.04699,122.71666 194.16486,120.95843   C 196.28273,119.2002 197.72128,116.56285 198.48052,113.1263   z  M 210.46847,127.55181   L 210.46847,86.353212   L 218.66024,86.353212   L 228.41044,115.52389   C 229.32951,118.24116 229.96887,120.27911 230.36847,121.63775   C 230.84799,120.11928 231.56727,117.92148 232.56626,115.00442   L 242.43634,86.353212   L 249.74899,86.353212   L 249.74899,127.55181   L 244.51425,127.55181   L 244.51425,93.066465   L 232.5263,127.55181   L 227.61124,127.55181   L 215.70321,92.507027   L 215.70321,127.55181   z "
     style="fill:#000000;fill-rule:evenodd;fill-opacity:1;stroke:none;" />
  <path
     id="path13"
     d="  M 120.95843,127.55181   L 120.95843,86.353212   L 129.19016,86.353212   L 138.94036,115.52389   C 139.81948,118.24116 140.49879,120.27911 140.89839,121.63775   C 141.37791,120.11928 142.09719,117.92148 143.09618,115.00442   L 152.9263,86.353212   L 160.27891,86.353212   L 160.27891,127.55181   L 155.04417,127.55181   L 155.04417,93.066465   L 143.05622,127.55181   L 138.14116,127.55181   L 126.23313,92.507027   L 126.23313,127.55181   z  M 198.48052,113.1263   L 203.91506,114.48494   C 202.75622,118.96044 200.71827,122.39699 197.76124,124.71466   C 194.76425,127.07229 191.16787,128.27108 186.85221,128.27108   C 182.41666,128.27108 178.82028,127.35201 176.02309,125.55381   C 173.26586,123.75562 171.14799,121.11827 169.66948,117.68173   C 168.23092,114.28514 167.51164,110.56887 167.51164,106.65281   C 167.51164,102.37711 168.31084,98.620882 169.94919,95.424095   C 171.58755,92.227308 173.94518,89.789758 176.94217,88.151404   C 179.97911,86.473091 183.29578,85.673894 186.93213,85.673894   C 191.04799,85.673894 194.5245,86.71285 197.32168,88.790762   C 200.15883,90.908633 202.11686,93.865661 203.19578,97.661846   L 197.84116,98.940561   C 196.88213,95.943573 195.52349,93.745782 193.68534,92.387147   C 191.88715,91.028513 189.56948,90.309236 186.81225,90.309236   C 183.65542,90.309236 181.01807,91.068473 178.9002,92.586946   C 176.78233,94.10542 175.26385,96.143372 174.4247,98.700802   C 173.54558,101.25823 173.10602,103.89558 173.10602,106.61285   C 173.10602,110.12932 173.6255,113.16626 174.66446,115.80361   C 175.66345,118.401 177.26184,120.35903 179.41968,121.63775   C 181.57751,122.95642 183.89518,123.59578 186.41265,123.59578   C 189.4496,123.59578 192.04699,122.71666 194.16486,120.95843   C 196.28273,119.2002 197.72128,116.56285 198.48052,113.1263   z  M 210.46847,127.55181   L 210.46847,86.353212   L 218.66024,86.353212   L 228.41044,115.52389   C 229.32951,118.24116 229.96887,120.27911 230.36847,121.63775   C 230.84799,120.11928 231.56727,117.92148 232.56626,115.00442   L 242.43634,86.353212   L 249.74899,86.353212   L 249.74899,127.55181   L 244.51425,127.55181   L 244.51425,93.066465   L 232.5263,127.55181   L 227.61124,127.55181   L 215.70321,92.507027   L 215.70321,127.55181   z "
     style="fill:none;stroke:#000000;stroke-width:0.95903611px;stroke-linecap:butt;stroke-linejoin:miter;stroke-miterlimit:10;stroke-dasharray:none;stroke-opacity:1;" />
</svg>
