<?xml version="1.0" encoding="UTF-8" standalone="no"?>
<svg
   xmlns:dc="http://purl.org/dc/elements/1.1/"
   xmlns:cc="http://creativecommons.org/ns#"
   xmlns:rdf="http://www.w3.org/1999/02/22-rdf-syntax-ns#"
   xmlns:svg="http://www.w3.org/2000/svg"
   xmlns="http://www.w3.org/2000/svg"
   id="svg13"
   height="116.73mm"
   width="116.73mm"
   version="1.0">
  <metadata
     id="metadata17">
    <rdf:RDF>
      <cc:Work
         rdf:about="">
        <dc:format>image/svg+xml</dc:format>
        <dc:type
           rdf:resource="http://purl.org/dc/dcmitype/StillImage" />
      </cc:Work>
    </rdf:RDF>
  </metadata>
  <defs
     id="defs3">
    <pattern
       y="0"
       x="0"
       height="6"
       width="6"
       patternUnits="userSpaceOnUse"
       id="EMFhbasepattern" />
  </defs>
  <path
     id="path5"
     d="  M 220.57831,386.49156   L 220.57831,386.49156   L 386.49156,220.57831   L 220.57831,54.665059   L 54.665059,220.57831   z "
     style="fill:#ff8080;fill-rule:evenodd;fill-opacity:1;stroke:none;" />
  <path
     id="path7"
     d="  M 220.57831,386.49156   L 220.57831,386.49156   L 386.49156,220.57831   L 220.57831,54.665059   L 54.665059,220.57831   z "
     style="fill:none;stroke:#000000;stroke-width:9.5903616px;stroke-linecap:butt;stroke-linejoin:miter;stroke-miterlimit:10;stroke-dasharray:none;stroke-opacity:1;" />
  <path
     id="path9"
     d="  M 163.31586,227.0518   L 163.31586,130.94839   L 176.02309,130.94839   L 176.02309,215.70321   L 223.33554,215.70321   L 223.33554,227.0518   L 163.31586,227.0518  z    M 237.96084,227.0518   L 237.96084,130.94839   L 250.70803,130.94839   L 250.70803,215.70321   L 298.02048,215.70321   L 298.02048,227.0518   L 237.96084,227.0518  z   "
     style="fill:#000000;fill-rule:evenodd;fill-opacity:1;stroke:none;" />
  <path
     id="path11"
     d="  M 163.83534,288.55   L 163.83534,243.91486   L 172.74638,243.91486   L 183.29578,275.52309   C 184.25482,278.44016 184.97409,280.63795 185.41365,282.11646   C 185.93313,280.47811 186.73233,278.12048 187.81124,274.96365   L 198.48052,243.91486   L 206.43253,243.91486   L 206.43253,288.55   L 200.71827,288.55   L 200.71827,251.18755   L 187.77128,288.55   L 182.45662,288.55   L 169.5496,250.54819   L 169.5496,288.55   z  M 216.94196,288.55   L 216.94196,243.91486   L 222.85602,243.91486   L 222.85602,288.55   z  M 241.07771,288.55   L 229.20964,243.91486   L 235.28353,243.91486   L 242.0767,273.16546   C 242.79598,276.24237 243.43534,279.27931 243.95482,282.31626   C 245.11365,277.52108 245.75301,274.76385 245.95281,274.04457   L 254.46425,243.91486   L 261.5771,243.91486   L 267.97068,266.49216   C 269.56907,272.08654 270.72791,277.36124 271.44718,282.31626   C 272.00662,279.47911 272.76586,276.24237 273.68494,272.60602   L 280.67791,243.91486   L 286.59196,243.91486   L 274.36425,288.55   L 268.68996,288.55   L 259.25943,254.54417   C 258.46024,251.70702 258.02068,249.94879 257.86084,249.30943   C 257.42128,251.34739 256.98172,253.10562 256.54216,254.54417   L 247.11164,288.55   z "
     style="fill:#000000;fill-rule:evenodd;fill-opacity:1;stroke:none;" />
</svg>
