<?xml version="1.0" encoding="UTF-8" standalone="no"?>
<svg
   xmlns:dc="http://purl.org/dc/elements/1.1/"
   xmlns:cc="http://creativecommons.org/ns#"
   xmlns:rdf="http://www.w3.org/1999/02/22-rdf-syntax-ns#"
   xmlns:svg="http://www.w3.org/2000/svg"
   xmlns="http://www.w3.org/2000/svg"
   id="svg15"
   height="116.73mm"
   width="116.73mm"
   version="1.0">
  <metadata
     id="metadata19">
    <rdf:RDF>
      <cc:Work
         rdf:about="">
        <dc:format>image/svg+xml</dc:format>
        <dc:type
           rdf:resource="http://purl.org/dc/dcmitype/StillImage" />
      </cc:Work>
    </rdf:RDF>
  </metadata>
  <defs
     id="defs3">
    <pattern
       y="0"
       x="0"
       height="6"
       width="6"
       patternUnits="userSpaceOnUse"
       id="EMFhbasepattern" />
  </defs>
  <path
     id="path5"
     d="  M 220.57831,386.49156   L 220.57831,386.49156   L 386.49156,220.57831   L 220.57831,54.665059   L 54.665059,220.57831   L 220.57831,386.49156   z "
     style="fill:#ff8080;fill-rule:evenodd;fill-opacity:1;stroke:none;" />
  <path
     id="path7"
     d="  M 220.57831,386.49156   L 220.57831,386.49156   L 386.49156,220.57831   L 220.57831,54.665059   L 54.665059,220.57831   L 220.57831,386.49156  "
     style="fill:none;stroke:#000000;stroke-width:9.5903616px;stroke-linecap:butt;stroke-linejoin:miter;stroke-miterlimit:10;stroke-dasharray:none;stroke-opacity:1;" />
  <path
     id="path9"
     d="  M 220.57831,230.16867   L 220.57831,230.16867   L 134.26506,182.21686   L 134.26506,278.12048   L 220.57831,230.16867   L 306.89156,182.21686   L 306.89156,278.12048   L 220.57831,230.16867   z "
     style="fill:#000000;fill-rule:evenodd;fill-opacity:1;stroke:none;" />
  <path
     id="path11"
     d="  M 160.59859,167.19197   L 160.59859,125.99337   L 168.83032,125.99337   L 178.58052,155.16405   C 179.45964,157.88132 180.13895,159.91927 180.53855,161.27791   C 181.01807,159.75944 181.73735,157.56164 182.73634,154.64458   L 192.56646,125.99337   L 199.91907,125.99337   L 199.91907,167.19197   L 194.68433,167.19197   L 194.68433,132.70662   L 182.69638,167.19197   L 177.78132,167.19197   L 165.87329,132.14719   L 165.87329,167.19197   z  M 238.12068,152.76646   L 243.55522,154.1251   C 242.39638,158.6006 240.35843,162.03715 237.4014,164.35482   C 234.40441,166.71245 230.80803,167.91124 226.49237,167.91124   C 222.05682,167.91124 218.46044,166.99217 215.66325,165.19397   C 212.90602,163.39578 210.78815,160.75843 209.30964,157.32189   C 207.87108,153.9253 207.1518,150.20903 207.1518,146.29297   C 207.1518,142.01727 207.951,138.26104 209.58935,135.06426   C 211.22771,131.86747 213.58534,129.42992 216.58233,127.79156   C 219.61927,126.11325 222.93594,125.31405 226.57229,125.31405   C 230.68815,125.31405 234.16466,126.35301 236.96184,128.43092   C 239.79899,130.54879 241.75702,133.50582 242.83594,137.30201   L 237.48132,138.58072   C 236.52229,135.58373 235.16365,133.38594 233.3255,132.02731   C 231.52731,130.66867 229.20964,129.9494 226.45241,129.9494   C 223.29558,129.9494 220.65823,130.70863 218.54036,132.22711   C 216.42249,133.74558 214.90401,135.78353 214.06486,138.34096   C 213.18574,140.89839 212.74618,143.53574 212.74618,146.25301   C 212.74618,149.76948 213.26566,152.80642 214.30462,155.44377   C 215.30361,158.04116 216.902,159.99919 219.05984,161.27791   C 221.21767,162.59658 223.53534,163.23594 226.05281,163.23594   C 229.08976,163.23594 231.68715,162.35682 233.80502,160.59859   C 235.92289,158.84036 237.36144,156.20301 238.12068,152.76646   z  M 250.10863,167.19197   L 250.10863,125.99337   L 258.3004,125.99337   L 268.0506,155.16405   C 268.96967,157.88132 269.60903,159.91927 270.00863,161.27791   C 270.48815,159.75944 271.20743,157.56164 272.20642,154.64458   L 282.0765,125.99337   L 289.38915,125.99337   L 289.38915,167.19197   L 284.15441,167.19197   L 284.15441,132.70662   L 272.16646,167.19197   L 267.2514,167.19197   L 255.34337,132.14719   L 255.34337,167.19197   z "
     style="fill:#000000;fill-rule:evenodd;fill-opacity:1;stroke:none;" />
  <path
     id="path13"
     d="  M 160.59859,167.19197   L 160.59859,125.99337   L 168.83032,125.99337   L 178.58052,155.16405   C 179.45964,157.88132 180.13895,159.91927 180.53855,161.27791   C 181.01807,159.75944 181.73735,157.56164 182.73634,154.64458   L 192.56646,125.99337   L 199.91907,125.99337   L 199.91907,167.19197   L 194.68433,167.19197   L 194.68433,132.70662   L 182.69638,167.19197   L 177.78132,167.19197   L 165.87329,132.14719   L 165.87329,167.19197   z  M 238.12068,152.76646   L 243.55522,154.1251   C 242.39638,158.6006 240.35843,162.03715 237.4014,164.35482   C 234.40441,166.71245 230.80803,167.91124 226.49237,167.91124   C 222.05682,167.91124 218.46044,166.99217 215.66325,165.19397   C 212.90602,163.39578 210.78815,160.75843 209.30964,157.32189   C 207.87108,153.9253 207.1518,150.20903 207.1518,146.29297   C 207.1518,142.01727 207.951,138.26104 209.58935,135.06426   C 211.22771,131.86747 213.58534,129.42992 216.58233,127.79156   C 219.61927,126.11325 222.93594,125.31405 226.57229,125.31405   C 230.68815,125.31405 234.16466,126.35301 236.96184,128.43092   C 239.79899,130.54879 241.75702,133.50582 242.83594,137.30201   L 237.48132,138.58072   C 236.52229,135.58373 235.16365,133.38594 233.3255,132.02731   C 231.52731,130.66867 229.20964,129.9494 226.45241,129.9494   C 223.29558,129.9494 220.65823,130.70863 218.54036,132.22711   C 216.42249,133.74558 214.90401,135.78353 214.06486,138.34096   C 213.18574,140.89839 212.74618,143.53574 212.74618,146.25301   C 212.74618,149.76948 213.26566,152.80642 214.30462,155.44377   C 215.30361,158.04116 216.902,159.99919 219.05984,161.27791   C 221.21767,162.59658 223.53534,163.23594 226.05281,163.23594   C 229.08976,163.23594 231.68715,162.35682 233.80502,160.59859   C 235.92289,158.84036 237.36144,156.20301 238.12068,152.76646   z  M 250.10863,167.19197   L 250.10863,125.99337   L 258.3004,125.99337   L 268.0506,155.16405   C 268.96967,157.88132 269.60903,159.91927 270.00863,161.27791   C 270.48815,159.75944 271.20743,157.56164 272.20642,154.64458   L 282.0765,125.99337   L 289.38915,125.99337   L 289.38915,167.19197   L 284.15441,167.19197   L 284.15441,132.70662   L 272.16646,167.19197   L 267.2514,167.19197   L 255.34337,132.14719   L 255.34337,167.19197   z "
     style="fill:none;stroke:#000000;stroke-width:0.95903611px;stroke-linecap:butt;stroke-linejoin:miter;stroke-miterlimit:10;stroke-dasharray:none;stroke-opacity:1;" />
</svg>
