<?xml version="1.0" encoding="UTF-8" standalone="no"?>
<svg
   xmlns:dc="http://purl.org/dc/elements/1.1/"
   xmlns:cc="http://creativecommons.org/ns#"
   xmlns:rdf="http://www.w3.org/1999/02/22-rdf-syntax-ns#"
   xmlns:svg="http://www.w3.org/2000/svg"
   xmlns="http://www.w3.org/2000/svg"
   id="svg17"
   height="95.75mm"
   width="95.75mm"
   version="1.0">
  <metadata
     id="metadata21">
    <rdf:RDF>
      <cc:Work
         rdf:about="">
        <dc:format>image/svg+xml</dc:format>
        <dc:type
           rdf:resource="http://purl.org/dc/dcmitype/StillImage" />
      </cc:Work>
    </rdf:RDF>
  </metadata>
  <defs
     id="defs3">
    <pattern
       y="0"
       x="0"
       height="6"
       width="6"
       patternUnits="userSpaceOnUse"
       id="EMFhbasepattern" />
  </defs>
  <path
     id="path5"
     d="  M 54.345381,54.345381   L 54.345381,307.53092   L 307.53092,307.53092   L 307.53092,54.345381   L 54.345381,54.345381   z "
     style="fill:#aaffaa;fill-rule:evenodd;fill-opacity:1;stroke:none;" />
  <path
     id="path7"
     d="  M 54.345381,54.345381   L 307.53092,54.345381   L 307.53092,307.53092   L 54.345381,307.53092   z "
     style="fill:none;stroke:#000000;stroke-width:9.5903616px;stroke-linecap:butt;stroke-linejoin:miter;stroke-miterlimit:10;stroke-dasharray:none;stroke-opacity:1;" />
  <path
     id="path9"
     d="  M 94.624898,152.16707   L 267.2514,152.16707   L 267.2514,209.70923   L 94.624898,209.70923   z "
     style="fill:none;stroke:#000000;stroke-width:9.5903616px;stroke-linecap:butt;stroke-linejoin:miter;stroke-miterlimit:10;stroke-dasharray:none;stroke-opacity:1;" />
  <path
     id="path11"
     d="  M 142.5767,180.93815   C 142.5767,191.56747 134.0253,200.11887 123.39598,200.11887   C 112.80662,200.11887 104.21526,191.56747 104.21526,180.93815   C 104.21526,170.34879 112.80662,161.75743 123.39598,161.75743   C 134.0253,161.75743 142.5767,170.34879 142.5767,180.93815   z "
     style="fill:#000000;fill-rule:evenodd;fill-opacity:1;stroke:none;" />
  <path
     id="path13"
     d="  M 200.11887,180.93815   C 200.11887,191.56747 191.56747,200.11887 180.93815,200.11887   C 170.34879,200.11887 161.75743,191.56747 161.75743,180.93815   C 161.75743,170.34879 170.34879,161.75743 180.93815,161.75743   C 191.56747,161.75743 200.11887,170.34879 200.11887,180.93815   z "
     style="fill:#000000;fill-rule:evenodd;fill-opacity:1;stroke:none;" />
  <path
     id="path15"
     d="  M 257.66104,180.93815   C 257.66104,191.56747 249.10963,200.11887 238.48032,200.11887   C 227.89096,200.11887 219.2996,191.56747 219.2996,180.93815   C 219.2996,170.34879 227.89096,161.75743 238.48032,161.75743   C 249.10963,161.75743 257.66104,170.34879 257.66104,180.93815   z "
     style="fill:#000000;fill-rule:evenodd;fill-opacity:1;stroke:none;" />
</svg>
