<?xml version="1.0" encoding="UTF-8" standalone="no"?>
<svg
   xmlns:dc="http://purl.org/dc/elements/1.1/"
   xmlns:cc="http://creativecommons.org/ns#"
   xmlns:rdf="http://www.w3.org/1999/02/22-rdf-syntax-ns#"
   xmlns:svg="http://www.w3.org/2000/svg"
   xmlns="http://www.w3.org/2000/svg"
   id="svg21"
   height="101.85mm"
   width="101.85mm"
   version="1.0">
  <metadata
     id="metadata25">
    <rdf:RDF>
      <cc:Work
         rdf:about="">
        <dc:format>image/svg+xml</dc:format>
        <dc:type
           rdf:resource="http://purl.org/dc/dcmitype/StillImage" />
      </cc:Work>
    </rdf:RDF>
  </metadata>
  <defs
     id="defs3">
    <pattern
       y="0"
       x="0"
       height="6"
       width="6"
       patternUnits="userSpaceOnUse"
       id="EMFhbasepattern" />
  </defs>
  <path
     id="path5"
     d="  M 330.54779,192.44658   C 330.54779,268.72992 268.72992,330.54779 192.44658,330.54779   C 116.20321,330.54779 54.345381,268.72992 54.345381,192.44658   C 54.345381,116.20321 116.20321,54.345381 192.44658,54.345381   C 268.72992,54.345381 330.54779,116.20321 330.54779,192.44658   z "
     style="fill:#80e0ff;fill-rule:evenodd;fill-opacity:1;stroke:none;" />
  <path
     id="path7"
     d="  M 330.54779,192.44658   C 330.54779,268.72992 268.72992,330.54779 192.44658,330.54779   C 116.20321,330.54779 54.345381,268.72992 54.345381,192.44658   C 54.345381,116.20321 116.20321,54.345381 192.44658,54.345381   C 268.72992,54.345381 330.54779,116.20321 330.54779,192.44658  "
     style="fill:none;stroke:#000000;stroke-width:9.5903616px;stroke-linecap:butt;stroke-linejoin:miter;stroke-miterlimit:10;stroke-dasharray:none;stroke-opacity:1;" />
  <path
     id="path9"
     d="  M 144.49478,130.10924   C 88.870681,130.10924 88.870681,219.2996 144.49478,219.2996   L 240.39839,219.2996   C 296.02249,219.2996 296.02249,130.10924 240.39839,130.10924   z "
     style="fill:none;stroke:#000000;stroke-width:9.5903616px;stroke-linecap:butt;stroke-linejoin:miter;stroke-miterlimit:10;stroke-dasharray:none;stroke-opacity:1;" />
  <path
     id="path11"
     d="  M 128.19116,235.60321   C 128.19116,242.51626 122.63675,248.07068 115.72369,248.07068   C 108.8506,248.07068 103.25622,242.51626 103.25622,235.60321   C 103.25622,228.73012 108.8506,223.13574 115.72369,223.13574   C 122.63675,223.13574 128.19116,228.73012 128.19116,235.60321  "
     style="fill:none;stroke:#000000;stroke-width:9.5903616px;stroke-linecap:butt;stroke-linejoin:miter;stroke-miterlimit:10;stroke-dasharray:none;stroke-opacity:1;" />
  <path
     id="path13"
     d="  M 281.63694,235.60321   C 281.63694,242.51626 276.08253,248.07068 269.16947,248.07068   C 262.29638,248.07068 256.702,242.51626 256.702,235.60321   C 256.702,228.73012 262.29638,223.13574 269.16947,223.13574   C 276.08253,223.13574 281.63694,228.73012 281.63694,235.60321  "
     style="fill:none;stroke:#000000;stroke-width:9.5903616px;stroke-linecap:butt;stroke-linejoin:miter;stroke-miterlimit:10;stroke-dasharray:none;stroke-opacity:1;" />
  <path
     id="path15"
     d="  M 98.461043,219.2996   L 286.43212,219.2996  "
     style="fill:none;stroke:#000000;stroke-width:9.5903616px;stroke-linecap:butt;stroke-linejoin:miter;stroke-miterlimit:10;stroke-dasharray:none;stroke-opacity:1;" />
  <path
     id="path17"
     d="  M 150.80843,166.99217   L 150.80843,134.06526   L 157.36185,134.06526   L 165.15401,157.4018   C 165.87329,159.55964 166.43273,161.19799 166.75241,162.27691   C 167.11205,161.07811 167.71144,159.31988 168.51064,156.96225   L 176.38273,134.06526   L 182.25682,134.06526   L 182.25682,166.99217   L 178.06104,166.99217   L 178.06104,139.41988   L 168.47068,166.99217   L 164.55462,166.99217   L 155.00421,138.94036   L 155.00421,166.99217   z  M 187.81124,156.40281   L 191.92711,156.04317   C 192.1269,157.72148 192.56646,159.08012 193.28574,160.11907   C 194.00502,161.15803 195.08393,162.03715 196.60241,162.6765   C 198.08092,163.31586 199.75923,163.6755 201.63735,163.6755   C 203.31566,163.6755 204.79417,163.39578 206.07289,162.91626   C 207.31164,162.43674 208.27068,161.75743 208.91004,160.87831   C 209.50943,160.03915 209.82911,159.08012 209.82911,158.04116   C 209.82911,157.04217 209.54939,156.12309 208.95,155.36385   C 208.3506,154.56466 207.3516,153.9253 205.95301,153.40582   C 205.07389,153.04618 203.11586,152.5267 200.11887,151.80743   C 197.08192,151.08815 194.96405,150.40883 193.7253,149.72952   C 192.16686,148.93032 191.00803,147.89136 190.20883,146.69257   C 189.4496,145.45381 189.05,144.09518 189.05,142.5767   C 189.05,140.89839 189.52952,139.33996 190.48855,137.9014   C 191.40763,136.46285 192.80622,135.38393 194.60441,134.6247   C 196.44257,133.86546 198.44056,133.50582 200.67831,133.50582   C 203.11586,133.50582 205.27369,133.90542 207.11184,134.66466   C 208.98996,135.46385 210.42851,136.62269 211.42751,138.14116   C 212.4265,139.65964 212.98594,141.41787 213.06586,143.33594   L 208.87008,143.65562   C 208.63032,141.57771 207.87108,139.97932 206.59237,138.94036   C 205.27369,137.86144 203.35562,137.34197 200.83815,137.34197   C 198.2008,137.34197 196.28273,137.82148 195.08393,138.78052   C 193.88514,139.73956 193.28574,140.89839 193.28574,142.29699   C 193.28574,143.45582 193.68534,144.45482 194.56446,145.21405   C 195.40361,145.97329 197.56144,146.73253 201.11787,147.57168   C 204.67429,148.37088 207.11184,149.0502 208.43052,149.6496   C 210.34859,150.52871 211.74719,151.64759 212.66626,153.00622   C 213.58534,154.36486 214.0249,155.92329 214.0249,157.68152   C 214.0249,159.43976 213.54538,161.11807 212.54638,162.6765   C 211.50743,164.19498 210.06887,165.43373 208.19076,166.27289   C 206.31265,167.15201 204.19478,167.5516 201.83715,167.5516   C 198.88012,167.5516 196.36265,167.15201 194.36466,166.27289   C 192.3267,165.39377 190.76827,164.0751 189.60944,162.35682   C 188.4506,160.59859 187.8512,158.64056 187.81124,156.40281   z  M 219.81907,166.99217   L 219.81907,134.06526   L 224.1747,134.06526   L 224.1747,163.11606   L 240.39839,163.11606   L 240.39839,166.99217   z "
     style="fill:#000000;fill-rule:evenodd;fill-opacity:1;stroke:none;" />
  <path
     id="path19"
     d="  M 151.36787,194.76425   L 155.48373,194.40462   C 155.68353,196.08293 156.12309,197.44156 156.84237,198.48052   C 157.56164,199.51948 158.68052,200.39859 160.15903,201.03795   C 161.67751,201.67731 163.35582,202.03694 165.23393,202.03694   C 166.87229,202.03694 168.3508,201.75723 169.62952,201.27771   C 170.90823,200.79819 171.86727,200.11887 172.46666,199.23976   C 173.10602,198.4006 173.38574,197.44156 173.38574,196.40261   C 173.38574,195.40361 173.10602,194.48454 172.50662,193.7253   C 171.90723,192.9261 170.90823,192.28674 169.5496,191.76727   C 168.67048,191.40763 166.71245,190.88815 163.6755,190.16887   C 160.63855,189.4496 158.52068,188.77028 157.32189,188.09096   C 155.72349,187.29176 154.56466,186.25281 153.80542,185.05401   C 153.00622,183.81526 152.64658,182.45662 152.64658,180.93815   C 152.64658,179.25984 153.1261,177.7014 154.04518,176.26285   C 155.00421,174.82429 156.36285,173.74538 158.201,172.98614   C 159.99919,172.22691 161.99719,171.86727 164.23494,171.86727   C 166.67249,171.86727 168.83032,172.26686 170.70843,173.0261   C 172.54658,173.8253 173.98514,174.98413 174.98413,176.50261   C 176.02309,178.02108 176.54257,179.77931 176.62249,181.69739   L 172.4267,182.01707   C 172.22691,179.93915 171.46767,178.34076 170.14899,177.3018   C 168.87028,176.22289 166.95221,175.70341 164.39478,175.70341   C 161.75743,175.70341 159.83936,176.18293 158.64056,177.14197   C 157.44176,178.101 156.84237,179.25984 156.84237,180.65843   C 156.84237,181.81727 157.28193,182.81626 158.12108,183.5755   C 158.96024,184.33474 161.15803,185.09397 164.6745,185.93313   C 168.23092,186.73233 170.66847,187.41164 171.98715,188.01104   C 173.90522,188.89016 175.30381,190.00903 176.22289,191.36767   C 177.14197,192.7263 177.62148,194.28474 177.62148,196.04297   C 177.62148,197.8012 177.10201,199.47952 176.10301,201.03795   C 175.10401,202.55642 173.66546,203.79518 171.78735,204.63433   C 169.90923,205.51345 167.79136,205.91305 165.43373,205.91305   C 162.43674,205.91305 159.95923,205.51345 157.92128,204.63433   C 155.92329,203.75522 154.3249,202.43654 153.16606,200.71827   C 152.04719,198.96004 151.44779,197.00201 151.36787,194.76425   z  M 183.5755,205.35361   L 183.5755,172.4267   L 196.00301,172.4267   C 198.2008,172.4267 199.83915,172.50662 200.99799,172.74638   C 202.63634,172.98614 203.99498,173.50562 205.07389,174.26486   C 206.15281,175.02409 207.03192,176.10301 207.71124,177.46164   C 208.39056,178.82028 208.71024,180.29879 208.71024,181.93715   C 208.71024,184.73433 207.83112,187.13193 206.03293,189.05   C 204.2747,191.00803 201.03795,191.96707 196.36265,191.96707   L 187.93112,191.96707   L 187.93112,205.35361   z  M 187.93112,188.09096   L 196.44257,188.09096   C 199.27972,188.09096 201.27771,187.57148 202.43654,186.49257   C 203.63534,185.45361 204.23474,183.9751 204.23474,182.09699   C 204.23474,180.69839 203.8751,179.53956 203.15582,178.54056   C 202.4765,177.54156 201.55743,176.90221 200.43855,176.58253   C 199.67931,176.38273 198.32068,176.30281 196.36265,176.30281   L 187.93112,176.30281   z  M 222.65622,205.35361   L 222.65622,176.30281   L 211.78715,176.30281   L 211.78715,172.4267   L 237.92088,172.4267   L 237.92088,176.30281   L 227.01184,176.30281   L 227.01184,205.35361   z "
     style="fill:#000000;fill-rule:evenodd;fill-opacity:1;stroke:none;" />
</svg>
