<?xml version="1.0" encoding="UTF-8" standalone="no"?>
<svg
   xmlns:dc="http://purl.org/dc/elements/1.1/"
   xmlns:cc="http://creativecommons.org/ns#"
   xmlns:rdf="http://www.w3.org/1999/02/22-rdf-syntax-ns#"
   xmlns:svg="http://www.w3.org/2000/svg"
   xmlns="http://www.w3.org/2000/svg"
   id="svg17"
   height="60.060001mm"
   width="83.57mm"
   version="1.0">
  <metadata
     id="metadata21">
    <rdf:RDF>
      <cc:Work
         rdf:about="">
        <dc:format>image/svg+xml</dc:format>
        <dc:type
           rdf:resource="http://purl.org/dc/dcmitype/StillImage" />
      </cc:Work>
    </rdf:RDF>
  </metadata>
  <defs
     id="defs3">
    <pattern
       y="0"
       x="0"
       height="6"
       width="6"
       patternUnits="userSpaceOnUse"
       id="EMFhbasepattern" />
  </defs>
  <path
     id="path5"
     d="  M 109.96948,54.665059   C 54.345381,54.665059 54.345381,143.85542 109.96948,143.85542   L 205.87309,143.85542   C 261.49718,143.85542 261.49718,54.665059 205.87309,54.665059   z "
     style="fill:none;stroke:#aaffaa;stroke-width:9.5903616px;stroke-linecap:butt;stroke-linejoin:miter;stroke-miterlimit:10;stroke-dasharray:none;stroke-opacity:1;" />
  <path
     id="path7"
     d="  M 93.665862,160.15903   C 93.665862,167.07209 88.111445,172.6265 81.198392,172.6265   C 74.3253,172.6265 68.730923,167.07209 68.730923,160.15903   C 68.730923,153.28594 74.3253,147.69156 81.198392,147.69156   C 88.111445,147.69156 93.665862,153.28594 93.665862,160.15903  "
     style="fill:none;stroke:#aaffaa;stroke-width:9.5903616px;stroke-linecap:butt;stroke-linejoin:miter;stroke-miterlimit:10;stroke-dasharray:none;stroke-opacity:1;" />
  <path
     id="path9"
     d="  M 247.11164,160.15903   C 247.11164,167.07209 241.55723,172.6265 234.64417,172.6265   C 227.77108,172.6265 222.1767,167.07209 222.1767,160.15903   C 222.1767,153.28594 227.77108,147.69156 234.64417,147.69156   C 241.55723,147.69156 247.11164,153.28594 247.11164,160.15903  "
     style="fill:none;stroke:#aaffaa;stroke-width:9.5903616px;stroke-linecap:butt;stroke-linejoin:miter;stroke-miterlimit:10;stroke-dasharray:none;stroke-opacity:1;" />
  <path
     id="path11"
     d="  M 63.935742,143.85542   L 251.90682,143.85542  "
     style="fill:none;stroke:#aaffaa;stroke-width:9.5903616px;stroke-linecap:butt;stroke-linejoin:miter;stroke-miterlimit:10;stroke-dasharray:none;stroke-opacity:1;" />
  <path
     id="path13"
     d="  M 116.28313,91.547991   L 116.28313,58.621083   L 122.83654,58.621083   L 130.62871,81.957629   C 131.34799,84.115461 131.90743,85.753814 132.22711,86.83273   C 132.58675,85.633935 133.18614,83.875702 133.98534,81.518071   L 141.85743,58.621083   L 147.73152,58.621083   L 147.73152,91.547991   L 143.53574,91.547991   L 143.53574,63.975702   L 133.94538,91.547991   L 130.02932,91.547991   L 120.47891,63.496184   L 120.47891,91.547991   z  M 153.28594,80.958633   L 157.4018,80.598995   C 157.6016,82.277308 158.04116,83.635943 158.76044,84.674898   C 159.47972,85.713854 160.55863,86.592971 162.07711,87.232328   C 163.55562,87.871685 165.23393,88.231324 167.11205,88.231324   C 168.79036,88.231324 170.26887,87.951605 171.54759,87.472087   C 172.78634,86.992569 173.74538,86.313252 174.38474,85.434135   C 174.98413,84.594979 175.30381,83.635943 175.30381,82.596987   C 175.30381,81.597991 175.02409,80.678914 174.4247,79.919678   C 173.8253,79.120481 172.8263,78.481123 171.42771,77.961645   C 170.54859,77.602007 168.59056,77.082529 165.59357,76.363252   C 162.55662,75.643975 160.43875,74.964658 159.2,74.28534   C 157.64156,73.486144 156.48273,72.447188 155.68353,71.248393   C 154.92429,70.009638 154.5247,68.651003 154.5247,67.132529   C 154.5247,65.454216 155.00421,63.895782 155.96325,62.457228   C 156.88233,61.018674 158.28092,59.939758 160.07911,59.180521   C 161.91727,58.421284 163.91526,58.061646 166.15301,58.061646   C 168.59056,58.061646 170.74839,58.461244 172.58654,59.220481   C 174.46466,60.019678 175.90321,61.178513 176.90221,62.696987   C 177.9012,64.215461 178.46064,65.973694 178.54056,67.891766   L 174.34478,68.211445   C 174.10502,66.133533 173.34578,64.53514 172.06707,63.496184   C 170.74839,62.417268 168.83032,61.89779 166.31285,61.89779   C 163.6755,61.89779 161.75743,62.377308 160.55863,63.336344   C 159.35984,64.295381 158.76044,65.454216 158.76044,66.85281   C 158.76044,68.011646 159.16004,69.010642 160.03915,69.769879   C 160.87831,70.529115 163.03614,71.288352 166.59257,72.127509   C 170.14899,72.926706 172.58654,73.606023 173.90522,74.205421   C 175.82329,75.084537 177.22188,76.203413 178.14096,77.562047   C 179.06004,78.920682 179.4996,80.479115 179.4996,82.237348   C 179.4996,83.995581 179.02008,85.673894 178.02108,87.232328   C 176.98213,88.750802 175.54357,89.989557 173.66546,90.828714   C 171.78735,91.70783 169.66948,92.107428 167.31184,92.107428   C 164.35482,92.107428 161.83735,91.70783 159.83936,90.828714   C 157.8014,89.949597 156.24297,88.630922 155.08413,86.912649   C 153.9253,85.154416 153.3259,83.196384 153.28594,80.958633   z  M 185.29377,91.547991   L 185.29377,58.621083   L 189.64939,58.621083   L 189.64939,87.671886   L 205.87309,87.671886   L 205.87309,91.547991   z "
     style="fill:#aaffaa;fill-rule:evenodd;fill-opacity:1;stroke:none;" />
  <path
     id="path15"
     d="  M 116.84257,119.32008   L 120.95843,118.96044   C 121.15823,120.63875 121.59779,121.99739 122.31707,123.03634   C 123.03634,124.0753 124.15522,124.95442 125.63373,125.59377   C 127.15221,126.23313 128.83052,126.59277 130.70863,126.59277   C 132.34699,126.59277 133.8255,126.31305 135.10421,125.83353   C 136.38293,125.35401 137.34197,124.6747 137.94136,123.79558   C 138.58072,122.95642 138.86044,121.99739 138.86044,120.95843   C 138.86044,119.95944 138.58072,119.04036 137.98132,118.28112   C 137.38193,117.48193 136.38293,116.84257 135.0243,116.32309   C 134.14518,115.96345 132.18715,115.44397 129.1502,114.7247   C 126.11325,114.00542 123.99538,113.3261 122.79658,112.64679   C 121.19819,111.84759 120.03936,110.80863 119.28012,109.60984   C 118.48092,108.37108 118.12128,107.01245 118.12128,105.49397   C 118.12128,103.81566 118.6008,102.25723 119.51988,100.81867   C 120.47891,99.380119 121.83755,98.301203 123.6757,97.541966   C 125.47389,96.78273 127.47189,96.423091 129.70964,96.423091   C 132.14719,96.423091 134.30502,96.822689 136.18313,97.581926   C 138.02128,98.381123 139.45984,99.539958 140.45883,101.05843   C 141.49779,102.57691 142.01727,104.33514 142.09719,106.25321   L 137.9014,106.57289   C 137.7016,104.49498 136.94237,102.89658 135.62369,101.85763   C 134.34498,100.77871 132.42691,100.25924 129.86948,100.25924   C 127.23213,100.25924 125.31405,100.73875 124.11526,101.69779   C 122.91646,102.65683 122.31707,103.81566 122.31707,105.21426   C 122.31707,106.37309 122.75662,107.37209 123.59578,108.13132   C 124.43494,108.89056 126.63273,109.6498 130.14919,110.48895   C 133.70562,111.28815 136.14317,111.96747 137.46185,112.56687   C 139.37992,113.44598 140.77851,114.56486 141.69759,115.92349   C 142.61666,117.28213 143.09618,118.84056 143.09618,120.59879   C 143.09618,122.35703 142.5767,124.03534 141.57771,125.59377   C 140.57871,127.11225 139.14016,128.351 137.26205,129.19016   C 135.38393,130.06928 133.26606,130.46887 130.90843,130.46887   C 127.91144,130.46887 125.43393,130.06928 123.39598,129.19016   C 121.39799,128.31104 119.7996,126.99237 118.64076,125.27409   C 117.52189,123.51586 116.92249,121.55783 116.84257,119.32008   z  M 149.0502,129.90944   L 149.0502,96.982529   L 161.47771,96.982529   C 163.6755,96.982529 165.31385,97.062448 166.47269,97.302207   C 168.11104,97.541966 169.46968,98.061444 170.54859,98.820681   C 171.62751,99.579918 172.50662,100.65883 173.18594,102.01747   C 173.86526,103.3761 174.18494,104.85462 174.18494,106.49297   C 174.18494,109.29016 173.30582,111.68775 171.50763,113.60582   C 169.7494,115.56385 166.51265,116.52289 161.83735,116.52289   L 153.40582,116.52289   L 153.40582,129.90944   z  M 153.40582,112.64679   L 161.91727,112.64679   C 164.75442,112.64679 166.75241,112.12731 167.91124,111.04839   C 169.11004,110.00944 169.70944,108.53092 169.70944,106.65281   C 169.70944,105.25422 169.3498,104.09538 168.63052,103.09638   C 167.9512,102.09739 167.03213,101.45803 165.91325,101.13835   C 165.15401,100.93855 163.79538,100.85863 161.83735,100.85863   L 153.40582,100.85863   z  M 188.13092,129.90944   L 188.13092,100.85863   L 177.26184,100.85863   L 177.26184,96.982529   L 203.39558,96.982529   L 203.39558,100.85863   L 192.48654,100.85863   L 192.48654,129.90944   z "
     style="fill:#aaffaa;fill-rule:evenodd;fill-opacity:1;stroke:none;" />
</svg>
