<?xml version="1.0" encoding="UTF-8" standalone="no"?>
<svg
   xmlns:dc="http://purl.org/dc/elements/1.1/"
   xmlns:cc="http://creativecommons.org/ns#"
   xmlns:rdf="http://www.w3.org/1999/02/22-rdf-syntax-ns#"
   xmlns:svg="http://www.w3.org/2000/svg"
   xmlns="http://www.w3.org/2000/svg"
   id="svg11"
   height="130.27mm"
   width="130.27mm"
   version="1.0">
  <metadata
     id="metadata15">
    <rdf:RDF>
      <cc:Work
         rdf:about="">
        <dc:format>image/svg+xml</dc:format>
        <dc:type
           rdf:resource="http://purl.org/dc/dcmitype/StillImage" />
      </cc:Work>
    </rdf:RDF>
  </metadata>
  <defs
     id="defs3">
    <pattern
       y="0"
       x="0"
       height="6"
       width="6"
       patternUnits="userSpaceOnUse"
       id="EMFhbasepattern" />
  </defs>
  <path
     id="path5"
     d="  M 164.63454,327.67068   C 164.63454,437.95983 327.67068,437.95983 327.67068,327.67068   C 437.95983,327.67068 437.95983,164.63454 327.67068,164.63454   C 327.67068,54.345381 164.63454,54.345381 164.63454,164.63454   C 54.345381,164.63454 54.345381,327.67068 164.63454,327.67068   z "
     style="fill:#ffff80;fill-rule:evenodd;fill-opacity:1;stroke:none;" />
  <path
     id="path7"
     d="  M 164.63454,327.67068   C 164.63454,437.95983 327.67068,437.95983 327.67068,327.67068   C 437.95983,327.67068 437.95983,164.63454 327.67068,164.63454   C 327.67068,54.345381 164.63454,54.345381 164.63454,164.63454   C 54.345381,164.63454 54.345381,327.67068 164.63454,327.67068  "
     style="fill:none;stroke:#000000;stroke-width:9.5903616px;stroke-linecap:butt;stroke-linejoin:miter;stroke-miterlimit:10;stroke-dasharray:none;stroke-opacity:1;" />
  <path
     id="path9"
     d="  M 278.4002,335.38293   L 278.4002,195.36365   C 278.4002,184.85421 275.48313,175.74337 269.60903,167.99116   C 263.73494,160.27891 255.98273,156.40281 246.31245,156.40281   C 236.92188,156.40281 229.28955,160.27891 223.45542,168.03112   C 221.09779,171.14799 219.33956,175.30381 218.14076,180.57851   C 215.82309,189.88915 214.62429,194.84417 214.62429,195.44357   L 214.62429,336.302   L 202.03694,336.302   L 202.03694,195.60341   C 202.03694,181.33775 206.19277,169.11004 214.50441,158.88032   C 222.7761,148.69056 233.28554,143.53574 246.11265,143.53574   C 258.58012,143.53574 269.20943,148.81044 277.92068,159.31988   C 286.63192,169.78935 290.98755,181.85723 290.98755,195.44357   L 290.98755,336.302   L 278.4002,336.302   z  M 241.47731,149.96927   L 252.38634,149.96927   L 252.38634,336.302   L 241.47731,336.302   z "
     style="fill:#000000;fill-rule:evenodd;fill-opacity:1;stroke:none;" />
</svg>
