<?xml version="1.0" encoding="UTF-8" standalone="no"?>
<svg
   xmlns:dc="http://purl.org/dc/elements/1.1/"
   xmlns:cc="http://creativecommons.org/ns#"
   xmlns:rdf="http://www.w3.org/1999/02/22-rdf-syntax-ns#"
   xmlns:svg="http://www.w3.org/2000/svg"
   xmlns="http://www.w3.org/2000/svg"
   id="svg21"
   height="116.73mm"
   width="116.73mm"
   version="1.0">
  <metadata
     id="metadata25">
    <rdf:RDF>
      <cc:Work
         rdf:about="">
        <dc:format>image/svg+xml</dc:format>
        <dc:type
           rdf:resource="http://purl.org/dc/dcmitype/StillImage" />
      </cc:Work>
    </rdf:RDF>
  </metadata>
  <defs
     id="defs3">
    <pattern
       y="0"
       x="0"
       height="6"
       width="6"
       patternUnits="userSpaceOnUse"
       id="EMFhbasepattern" />
  </defs>
  <path
     id="path5"
     d="  M 220.57831,386.49156   L 220.57831,386.49156   L 386.49156,220.57831   L 220.57831,54.665059   L 54.665059,220.57831   L 220.57831,386.49156   z "
     style="fill:#ff8080;fill-rule:evenodd;fill-opacity:1;stroke:none;" />
  <path
     id="path7"
     d="  M 220.57831,386.49156   L 220.57831,386.49156   L 386.49156,220.57831   L 220.57831,54.665059   L 54.665059,220.57831   L 220.57831,386.49156  "
     style="fill:none;stroke:#000000;stroke-width:9.5903616px;stroke-linecap:butt;stroke-linejoin:miter;stroke-miterlimit:10;stroke-dasharray:none;stroke-opacity:1;" />
  <path
     id="path9"
     d="  M 172.6265,158.24096   C 117.00241,158.24096 117.00241,247.43132 172.6265,247.43132   L 268.53012,247.43132   C 324.15421,247.43132 324.15421,158.24096 268.53012,158.24096   z "
     style="fill:none;stroke:#000000;stroke-width:9.5903616px;stroke-linecap:butt;stroke-linejoin:miter;stroke-miterlimit:10;stroke-dasharray:none;stroke-opacity:1;" />
  <path
     id="path11"
     d="  M 156.32289,263.73494   C 156.32289,270.64799 150.76847,276.20241 143.85542,276.20241   C 136.98233,276.20241 131.38795,270.64799 131.38795,263.73494   C 131.38795,256.86184 136.98233,251.26747 143.85542,251.26747   C 150.76847,251.26747 156.32289,256.86184 156.32289,263.73494  "
     style="fill:none;stroke:#000000;stroke-width:9.5903616px;stroke-linecap:butt;stroke-linejoin:miter;stroke-miterlimit:10;stroke-dasharray:none;stroke-opacity:1;" />
  <path
     id="path13"
     d="  M 309.76867,263.73494   C 309.76867,270.64799 304.21425,276.20241 297.3012,276.20241   C 290.42811,276.20241 284.83373,270.64799 284.83373,263.73494   C 284.83373,256.86184 290.42811,251.26747 297.3012,251.26747   C 304.21425,251.26747 309.76867,256.86184 309.76867,263.73494  "
     style="fill:none;stroke:#000000;stroke-width:9.5903616px;stroke-linecap:butt;stroke-linejoin:miter;stroke-miterlimit:10;stroke-dasharray:none;stroke-opacity:1;" />
  <path
     id="path15"
     d="  M 126.59277,247.43132   L 314.56385,247.43132  "
     style="fill:none;stroke:#000000;stroke-width:9.5903616px;stroke-linecap:butt;stroke-linejoin:miter;stroke-miterlimit:10;stroke-dasharray:none;stroke-opacity:1;" />
  <path
     id="path17"
     d="  M 178.94016,195.12389   L 178.94016,162.19699   L 185.49357,162.19699   L 193.28574,185.53353   C 194.00502,187.69136 194.56446,189.32972 194.88413,190.40863   C 195.24377,189.20984 195.84317,187.4516 196.64237,185.09397   L 204.51445,162.19699   L 210.38855,162.19699   L 210.38855,195.12389   L 206.19277,195.12389   L 206.19277,167.5516   L 196.60241,195.12389   L 192.68634,195.12389   L 183.13594,167.07209   L 183.13594,195.12389   z  M 215.94297,184.53454   L 220.05883,184.1749   C 220.25863,185.85321 220.69819,187.21184 221.41747,188.2508   C 222.13674,189.28976 223.21566,190.16887 224.73413,190.80823   C 226.21265,191.44759 227.89096,191.80723 229.76907,191.80723   C 231.44739,191.80723 232.9259,191.52751 234.20462,191.04799   C 235.44337,190.56847 236.40241,189.88915 237.04176,189.01004   C 237.64116,188.17088 237.96084,187.21184 237.96084,186.17289   C 237.96084,185.17389 237.68112,184.25482 237.08172,183.49558   C 236.48233,182.69638 235.48333,182.05703 234.08474,181.53755   C 233.20562,181.17791 231.24759,180.65843 228.2506,179.93915   C 225.21365,179.21988 223.09578,178.54056 221.85702,177.86124   C 220.29859,177.06205 219.13976,176.02309 218.34056,174.82429   C 217.58132,173.58554 217.18172,172.22691 217.18172,170.70843   C 217.18172,169.03012 217.66124,167.47168 218.62028,166.03313   C 219.53935,164.59458 220.93795,163.51566 222.73614,162.75642   C 224.57429,161.99719 226.57229,161.63755 228.81004,161.63755   C 231.24759,161.63755 233.40542,162.03715 235.24357,162.79638   C 237.12168,163.59558 238.56024,164.75442 239.55923,166.27289   C 240.55823,167.79136 241.11767,169.5496 241.19759,171.46767   L 237.0018,171.78735   C 236.76204,169.70944 236.00281,168.11104 234.72409,167.07209   C 233.40542,165.99317 231.48735,165.47369 228.96988,165.47369   C 226.33253,165.47369 224.41445,165.95321 223.21566,166.91225   C 222.01686,167.87128 221.41747,169.03012 221.41747,170.42871   C 221.41747,171.58755 221.81707,172.58654 222.69618,173.34578   C 223.53534,174.10502 225.69317,174.86425 229.2496,175.70341   C 232.80602,176.50261 235.24357,177.18193 236.56225,177.78132   C 238.48032,178.66044 239.87891,179.77931 240.79799,181.13795   C 241.71706,182.49658 242.15662,184.05502 242.15662,185.81325   C 242.15662,187.57148 241.6771,189.2498 240.67811,190.80823   C 239.63915,192.3267 238.2006,193.56546 236.32249,194.40462   C 234.44437,195.28373 232.3265,195.68333 229.96887,195.68333   C 227.01184,195.68333 224.49437,195.28373 222.49638,194.40462   C 220.45843,193.5255 218.9,192.20682 217.74116,190.48855   C 216.58233,188.73032 215.98293,186.77229 215.94297,184.53454   z  M 247.9508,195.12389   L 247.9508,162.19699   L 252.30642,162.19699   L 252.30642,191.24779   L 268.53012,191.24779   L 268.53012,195.12389   z "
     style="fill:#000000;fill-rule:evenodd;fill-opacity:1;stroke:none;" />
  <path
     id="path19"
     d="  M 179.4996,222.89598   L 183.61546,222.53634   C 183.81526,224.21466 184.25482,225.57329 184.97409,226.61225   C 185.69337,227.6512 186.81225,228.53032 188.29076,229.16968   C 189.80923,229.80903 191.48755,230.16867 193.36566,230.16867   C 195.00401,230.16867 196.48253,229.88895 197.76124,229.40943   C 199.03996,228.92992 199.99899,228.2506 200.59839,227.37148   C 201.23775,226.53233 201.51747,225.57329 201.51747,224.53433   C 201.51747,223.53534 201.23775,222.61626 200.63835,221.85702   C 200.03895,221.05783 199.03996,220.41847 197.68132,219.89899   C 196.80221,219.53935 194.84417,219.01988 191.80723,218.3006   C 188.77028,217.58132 186.65241,216.902 185.45361,216.22269   C 183.85522,215.42349 182.69638,214.38454 181.93715,213.18574   C 181.13795,211.94698 180.77831,210.58835 180.77831,209.06988   C 180.77831,207.39156 181.25783,205.83313 182.1769,204.39458   C 183.13594,202.95602 184.49458,201.87711 186.33273,201.11787   C 188.13092,200.35863 190.12891,199.99899 192.36666,199.99899   C 194.80421,199.99899 196.96205,200.39859 198.84016,201.15783   C 200.67831,201.95703 202.11686,203.11586 203.11586,204.63433   C 204.15482,206.15281 204.67429,207.91104 204.75421,209.82911   L 200.55843,210.14879   C 200.35863,208.07088 199.59939,206.47249 198.28072,205.43353   C 197.00201,204.35462 195.08393,203.83514 192.5265,203.83514   C 189.88915,203.83514 187.97108,204.31466 186.77229,205.27369   C 185.57349,206.23273 184.97409,207.39156 184.97409,208.79016   C 184.97409,209.94899 185.41365,210.94799 186.25281,211.70723   C 187.09197,212.46646 189.28976,213.2257 192.80622,214.06486   C 196.36265,214.86405 198.8002,215.54337 200.11887,216.14277   C 202.03694,217.02188 203.43554,218.14076 204.35462,219.49939   C 205.27369,220.85803 205.75321,222.41646 205.75321,224.1747   C 205.75321,225.93293 205.23373,227.61124 204.23474,229.16968   C 203.23574,230.68815 201.79719,231.9269 199.91907,232.76606   C 198.04096,233.64518 195.92309,234.04478 193.56546,234.04478   C 190.56847,234.04478 188.09096,233.64518 186.05301,232.76606   C 184.05502,231.88694 182.45662,230.56827 181.29779,228.85   C 180.17891,227.09176 179.57952,225.13373 179.4996,222.89598   z  M 211.70723,233.48534   L 211.70723,200.55843   L 224.13474,200.55843   C 226.33253,200.55843 227.97088,200.63835 229.12972,200.87811   C 230.76807,201.11787 232.1267,201.63735 233.20562,202.39658   C 234.28453,203.15582 235.16365,204.23474 235.84297,205.59337   C 236.52229,206.95201 236.84196,208.43052 236.84196,210.06887   C 236.84196,212.86606 235.96285,215.26365 234.16466,217.18172   C 232.40642,219.13976 229.16968,220.09879 224.49437,220.09879   L 216.06285,220.09879   L 216.06285,233.48534   z  M 216.06285,216.22269   L 224.57429,216.22269   C 227.41144,216.22269 229.40943,215.70321 230.56827,214.62429   C 231.76706,213.58534 232.36646,212.10682 232.36646,210.22871   C 232.36646,208.83012 232.00682,207.67128 231.28755,206.67229   C 230.60823,205.67329 229.68915,205.03393 228.57028,204.71425   C 227.81104,204.51445 226.45241,204.43454 224.49437,204.43454   L 216.06285,204.43454   z  M 250.78795,233.48534   L 250.78795,204.43454   L 239.91887,204.43454   L 239.91887,200.55843   L 266.05261,200.55843   L 266.05261,204.43454   L 255.14357,204.43454   L 255.14357,233.48534   z "
     style="fill:#000000;fill-rule:evenodd;fill-opacity:1;stroke:none;" />
</svg>
