<?xml version="1.0" encoding="UTF-8" standalone="no"?>
<svg
   xmlns:dc="http://purl.org/dc/elements/1.1/"
   xmlns:cc="http://creativecommons.org/ns#"
   xmlns:rdf="http://www.w3.org/1999/02/22-rdf-syntax-ns#"
   xmlns:svg="http://www.w3.org/2000/svg"
   xmlns="http://www.w3.org/2000/svg"
   id="svg15"
   height="112.9mm"
   width="112.9mm"
   version="1.0">
  <metadata
     id="metadata19">
    <rdf:RDF>
      <cc:Work
         rdf:about="">
        <dc:format>image/svg+xml</dc:format>
        <dc:type
           rdf:resource="http://purl.org/dc/dcmitype/StillImage" />
      </cc:Work>
    </rdf:RDF>
  </metadata>
  <defs
     id="defs3">
    <pattern
       y="0"
       x="0"
       height="6"
       width="6"
       patternUnits="userSpaceOnUse"
       id="EMFhbasepattern" />
  </defs>
  <path
     id="path5"
     d="  M 1816.8403,1817.3195   L 2232.4953,1817.3195  "
     style="fill:none;stroke:#ffff00;stroke-width:10.649107px;stroke-linecap:butt;stroke-linejoin:miter;stroke-miterlimit:282;stroke-dasharray:none;stroke-opacity:1;" />
  <path
     id="path7"
     d="  M 1816.8403,2030.4905   L 2232.4953,2030.4905  "
     style="fill:none;stroke:#ffff00;stroke-width:10.649107px;stroke-linecap:butt;stroke-linejoin:miter;stroke-miterlimit:282;stroke-dasharray:none;stroke-opacity:1;" />
  <path
     id="path9"
     d="  M 1892.1393,1977.2072   L 1892.1393,1878.0043   L 1922.123,1878.0043   L 1940.098,1945.6753   L 1957.8843,1878.0043   L 1987.9435,1878.0043   L 1987.9435,1977.2072   L 1969.3264,1977.2072   L 1969.3264,1899.1137   L 1949.652,1977.2072   L 1930.3552,1977.2072   L 1910.7564,1899.1137   L 1910.7564,1977.2072   z "
     style="fill:#ffff00;fill-rule:nonzero;fill-opacity:1;stroke:none;" />
  <path
     id="path11"
     d="  M 2007.3536,1977.2072   L 2007.3536,1878.0043   L 2027.3679,1878.0043   L 2027.3679,1977.2072   z "
     style="fill:#ffff00;fill-rule:nonzero;fill-opacity:1;stroke:none;" />
  <path
     id="path13"
     d="  M 2060.4481,1977.2072   L 2036.7708,1878.0043   L 2057.276,1878.0043   L 2072.23,1946.1284   L 2090.3562,1878.0043   L 2114.1845,1878.0043   L 2131.5554,1947.2991   L 2146.7738,1878.0043   L 2166.9391,1878.0043   L 2142.8465,1977.2072   L 2121.6238,1977.2072   L 2101.8361,1903.0411   L 2082.1617,1977.2072   z "
     style="fill:#ffff00;fill-rule:nonzero;fill-opacity:1;stroke:none;" />
</svg>
