<?xml version="1.0" encoding="UTF-8" standalone="no"?>
<svg
   xmlns:dc="http://purl.org/dc/elements/1.1/"
   xmlns:cc="http://creativecommons.org/ns#"
   xmlns:rdf="http://www.w3.org/1999/02/22-rdf-syntax-ns#"
   xmlns:svg="http://www.w3.org/2000/svg"
   xmlns="http://www.w3.org/2000/svg"
   id="svg17"
   height="112.9mm"
   width="112.9mm"
   version="1.0">
  <metadata
     id="metadata21">
    <rdf:RDF>
      <cc:Work
         rdf:about="">
        <dc:format>image/svg+xml</dc:format>
        <dc:type
           rdf:resource="http://purl.org/dc/dcmitype/StillImage" />
      </cc:Work>
    </rdf:RDF>
  </metadata>
  <defs
     id="defs3">
    <pattern
       y="0"
       x="0"
       height="6"
       width="6"
       patternUnits="userSpaceOnUse"
       id="EMFhbasepattern" />
  </defs>
  <path
     id="path5"
     d="  M 1817.3195,1817.1379   L 1817.3195,2190.121  "
     style="fill:none;stroke:#ff0000;stroke-width:10.649107px;stroke-linecap:butt;stroke-linejoin:miter;stroke-miterlimit:282;stroke-dasharray:none;stroke-opacity:1;" />
  <path
     id="path7"
     d="  M 2030.4905,1817.1379   L 2030.4905,2190.121  "
     style="fill:none;stroke:#ff0000;stroke-width:10.649107px;stroke-linecap:butt;stroke-linejoin:miter;stroke-miterlimit:282;stroke-dasharray:none;stroke-opacity:1;" />
  <path
     id="path9"
     d="  M 1862.7482,1950.3273   L 1862.7482,1904.5588   L 1876.5694,1904.5588   L 1884.8772,1935.7886   L 1893.0717,1904.5588   L 1906.9306,1904.5588   L 1906.9306,1950.3273   L 1898.3585,1950.3273   L 1898.3585,1914.3015   L 1889.2577,1950.3273   L 1880.3834,1950.3273   L 1871.3203,1914.3015   L 1871.3203,1950.3273   z "
     style="fill:#ff0000;fill-rule:nonzero;fill-opacity:1;stroke:#ff0000;stroke-width:1.0573581px;stroke-linecap:butt;stroke-linejoin:miter;stroke-miterlimit:282;stroke-dasharray:none;stroke-opacity:1;" />
  <path
     id="path11"
     d="  M 1915.9182,1950.3273   L 1915.9182,1904.5588   L 1925.1701,1904.5588   L 1925.1701,1950.3273   z "
     style="fill:#ff0000;fill-rule:nonzero;fill-opacity:1;stroke:#ff0000;stroke-width:1.0573581px;stroke-linecap:butt;stroke-linejoin:miter;stroke-miterlimit:282;stroke-dasharray:none;stroke-opacity:1;" />
  <path
     id="path13"
     d="  M 1940.4262,1950.3273   L 1929.475,1904.5588   L 1938.9535,1904.5588   L 1945.8641,1936.0152   L 1954.2097,1904.5588   L 1965.1986,1904.5588   L 1973.2421,1936.5438   L 1980.266,1904.5588   L 1989.5556,1904.5588   L 1978.4534,1950.3273   L 1968.635,1950.3273   L 1959.5342,1916.1142   L 1950.4334,1950.3273   z "
     style="fill:#ff0000;fill-rule:nonzero;fill-opacity:1;stroke:#ff0000;stroke-width:1.0573581px;stroke-linecap:butt;stroke-linejoin:miter;stroke-miterlimit:282;stroke-dasharray:none;stroke-opacity:1;" />
  <path
     id="path15"
     d="  M 1899.9823,2138.0461   C 1899.9823,2134.6852 1900.662,2133.6656 1908.5544,2125.1312   L 1917.1266,2115.8793   L 1917.1266,2084.574   C 1917.1266,2067.3919 1916.8245,2053.3064 1916.4091,2053.3064   C 1916.0315,2053.3064 1899.2648,2064.0688 1879.175,2077.2102   L 1842.6206,2101.0763   L 1842.3563,2096.1671   L 1842.0919,2091.258   L 1879.5904,2052.2868   L 1917.1266,2013.3156   L 1917.1266,1995.0384   C 1917.1266,1977.5542 1917.2021,1976.6857 1919.2036,1973.7402   C 1921.6581,1970.0772 1923.8484,1969.473 1926.303,1971.701   C 1930.3058,1975.3262 1930.6834,1977.3654 1930.6834,1995.8692   L 1930.6834,2013.4666   L 1967.9176,2052.0224   L 2005.1894,2090.5405   L 2005.4538,2095.9406   L 2005.7181,2101.3029   L 2000.96,2098.2063   C 1998.3166,2096.507 1981.9653,2085.8579 1964.5944,2074.5668   C 1947.2235,2063.2758 1932.4961,2053.7973 1931.8541,2053.5707   C 1930.91,2053.1931 1930.6834,2059.0841 1930.6834,2084.4607   L 1930.6834,2115.8416   L 1939.2556,2125.0934   C 1947.1858,2133.6278 1947.8277,2134.6474 1947.8277,2138.0461   L 1947.8277,2141.7091   L 1938.6892,2137.7062   C 1933.6289,2135.4782 1929.0596,2133.7034 1928.4554,2133.7034   C 1927.889,2133.7034 1926.6051,2135.3649 1925.6232,2137.4041   L 1923.8106,2141.1426   L 1922.149,2137.4041   C 1921.205,2135.3649 1919.9966,2133.7034 1919.3924,2133.7034   C 1918.7882,2133.7034 1914.1811,2135.4782 1909.1209,2137.7062   L 1899.9823,2141.7091   L 1899.9823,2138.0461   z "
     style="fill:#ff0000;fill-rule:nonzero;fill-opacity:1;stroke:#ff0000;stroke-width:0.86854416px;stroke-linecap:butt;stroke-linejoin:miter;stroke-miterlimit:282;stroke-dasharray:none;stroke-opacity:1;" />
</svg>
