<?xml version="1.0" encoding="UTF-8" standalone="no"?>
<svg
   xmlns:dc="http://purl.org/dc/elements/1.1/"
   xmlns:cc="http://creativecommons.org/ns#"
   xmlns:rdf="http://www.w3.org/1999/02/22-rdf-syntax-ns#"
   xmlns:svg="http://www.w3.org/2000/svg"
   xmlns="http://www.w3.org/2000/svg"
   id="svg17"
   height="112.9mm"
   width="112.9mm"
   version="1.0">
  <metadata
     id="metadata21">
    <rdf:RDF>
      <cc:Work
         rdf:about="">
        <dc:format>image/svg+xml</dc:format>
        <dc:type
           rdf:resource="http://purl.org/dc/dcmitype/StillImage" />
      </cc:Work>
    </rdf:RDF>
  </metadata>
  <defs
     id="defs3">
    <pattern
       y="0"
       x="0"
       height="6"
       width="6"
       patternUnits="userSpaceOnUse"
       id="EMFhbasepattern" />
  </defs>
  <path
     id="path5"
     d="  M 1817.3195,1817.1379   L 1817.3195,2190.121  "
     style="fill:none;stroke:#ffff00;stroke-width:10.649107px;stroke-linecap:butt;stroke-linejoin:miter;stroke-miterlimit:282;stroke-dasharray:none;stroke-opacity:1;" />
  <path
     id="path7"
     d="  M 2030.4905,1817.1379   L 2030.4905,2190.121  "
     style="fill:none;stroke:#ffff00;stroke-width:10.649107px;stroke-linecap:butt;stroke-linejoin:miter;stroke-miterlimit:282;stroke-dasharray:none;stroke-opacity:1;" />
  <path
     id="path9"
     d="  M 1929.0596,1969.4352   C 1929.8904,1971.1345 1930.5324,1972.5318 1930.9855,1973.5891   L 1930.9855,2008.4442   L 2006.0202,2086.16   L 2006.0202,2097.6777   L 1930.9855,2048.8126   L 1930.9855,2111.4233   L 1948.5452,2129.2851   L 1948.5452,2137.9328   L 1928.0778,2129.2851   L 1923.9617,2137.9328   L 1919.4679,2129.2851   L 1899.3403,2137.9328   L 1899.3403,2129.2851   L 1916.5979,2111.4233   L 1916.5979,2048.8126   L 1841.8654,2097.6777   L 1841.8654,2086.16   L 1916.5979,2008.4442   L 1916.5979,1973.5891   L 1917.5798,1970.7192   C 1919.4679,1966.8674 1921.5826,1964.9415 1923.9617,1964.9415   C 1925.661,1964.9415 1927.3603,1966.452 1929.0596,1969.4352   z "
     style="fill:#ffff00;fill-rule:nonzero;fill-opacity:1;stroke:none;" />
  <path
     id="path11"
     d="  M 1862.7482,1950.3273   L 1862.7482,1904.5588   L 1876.5694,1904.5588   L 1884.8772,1935.7886   L 1893.0717,1904.5588   L 1906.9306,1904.5588   L 1906.9306,1950.3273   L 1898.3585,1950.3273   L 1898.3585,1914.3015   L 1889.2577,1950.3273   L 1880.3834,1950.3273   L 1871.3203,1914.3015   L 1871.3203,1950.3273   z "
     style="fill:#ffff00;fill-rule:nonzero;fill-opacity:1;stroke:#ffff00;stroke-width:1.0573581px;stroke-linecap:butt;stroke-linejoin:miter;stroke-miterlimit:282;stroke-dasharray:none;stroke-opacity:1;" />
  <path
     id="path13"
     d="  M 1915.9182,1950.3273   L 1915.9182,1904.5588   L 1925.1701,1904.5588   L 1925.1701,1950.3273   z "
     style="fill:#ffff00;fill-rule:nonzero;fill-opacity:1;stroke:#ffff00;stroke-width:1.0573581px;stroke-linecap:butt;stroke-linejoin:miter;stroke-miterlimit:282;stroke-dasharray:none;stroke-opacity:1;" />
  <path
     id="path15"
     d="  M 1940.4262,1950.3273   L 1929.475,1904.5588   L 1938.9535,1904.5588   L 1945.8641,1936.0152   L 1954.2097,1904.5588   L 1965.1986,1904.5588   L 1973.2421,1936.5438   L 1980.266,1904.5588   L 1989.5556,1904.5588   L 1978.4534,1950.3273   L 1968.635,1950.3273   L 1959.5342,1916.1142   L 1950.4334,1950.3273   z "
     style="fill:#ffff00;fill-rule:nonzero;fill-opacity:1;stroke:#ffff00;stroke-width:1.0573581px;stroke-linecap:butt;stroke-linejoin:miter;stroke-miterlimit:282;stroke-dasharray:none;stroke-opacity:1;" />
</svg>
