<?xml version="1.0" encoding="UTF-8" standalone="no"?>
<svg
   xmlns:dc="http://purl.org/dc/elements/1.1/"
   xmlns:cc="http://creativecommons.org/ns#"
   xmlns:rdf="http://www.w3.org/1999/02/22-rdf-syntax-ns#"
   xmlns:svg="http://www.w3.org/2000/svg"
   xmlns="http://www.w3.org/2000/svg"
   id="svg15"
   height="117.75mm"
   width="79.510002mm"
   version="1.0">
  <metadata
     id="metadata19">
    <rdf:RDF>
      <cc:Work
         rdf:about="">
        <dc:format>image/svg+xml</dc:format>
        <dc:type
           rdf:resource="http://purl.org/dc/dcmitype/StillImage" />
      </cc:Work>
    </rdf:RDF>
  </metadata>
  <defs
     id="defs3">
    <pattern
       y="0"
       x="0"
       height="6"
       width="6"
       patternUnits="userSpaceOnUse"
       id="EMFhbasepattern" />
  </defs>
  <path
     id="path5"
     d="  M 54.345381,54.665059   L 54.345381,390.32771  "
     style="fill:none;stroke:#000000;stroke-width:9.5903616px;stroke-linecap:butt;stroke-linejoin:miter;stroke-miterlimit:10;stroke-dasharray:none;stroke-opacity:1;" />
  <path
     id="path7"
     d="  M 246.15261,54.665059   L 246.15261,390.32771  "
     style="fill:none;stroke:#000000;stroke-width:9.5903616px;stroke-linecap:butt;stroke-linejoin:miter;stroke-miterlimit:10;stroke-dasharray:none;stroke-opacity:1;" />
  <path
     id="path9"
     d="  M 154.88434,191.72731   C 155.68353,193.28574 156.24297,194.5245 156.64257,195.48353   L 156.64257,226.852   L 224.13474,296.78172   L 224.13474,307.13132   L 156.64257,263.1755   L 156.64257,319.51887   L 172.4267,335.58273   L 172.4267,343.33493   L 154.04518,335.58273   L 150.28895,343.33493   L 146.29297,335.58273   L 128.19116,343.33493   L 128.19116,335.58273   L 143.69558,319.51887   L 143.69558,263.1755   L 76.443172,307.13132   L 76.443172,296.78172   L 143.69558,226.852   L 143.69558,195.48353   L 144.5747,192.88614   C 146.29297,189.4496 148.21104,187.73132 150.28895,187.73132   C 151.84739,187.73132 153.36586,189.05 154.88434,191.72731   z "
     style="fill:#000000;fill-rule:evenodd;fill-opacity:1;stroke:none;" />
  <path
     id="path11"
     d="  M 97.941565,169.11004   L 97.941565,127.91144   L 106.17329,127.91144   L 115.92349,157.08213   C 116.80261,159.7994 117.48193,161.83735 117.88152,163.19598   C 118.36104,161.67751 119.08032,159.47972 120.07932,156.56265   L 129.90944,127.91144   L 137.26205,127.91144   L 137.26205,169.11004   L 132.02731,169.11004   L 132.02731,134.6247   L 120.03936,169.11004   L 115.1243,169.11004   L 103.21626,134.06526   L 103.21626,169.11004   z  M 146.97229,169.11004   L 146.97229,127.91144   L 152.44678,127.91144   L 152.44678,169.11004   z  M 169.22992,169.11004   L 158.32088,127.91144   L 163.91526,127.91144   L 170.14899,154.92429   C 170.82831,157.76144 171.42771,160.55863 171.90723,163.35582   C 172.94618,158.96024 173.58554,156.40281 173.74538,155.72349   L 181.61747,127.91144   L 188.17088,127.91144   L 194.08494,148.77048   C 195.56345,153.9253 196.60241,158.8004 197.28172,163.35582   C 197.8012,160.75843 198.48052,157.76144 199.31968,154.40482   L 205.79317,127.91144   L 211.26767,127.91144   L 199.95903,169.11004   L 194.72429,169.11004   L 186.05301,137.74156   C 185.29377,135.10421 184.89417,133.50582 184.73433,132.90642   C 184.33474,134.78454 183.89518,136.38293 183.53554,137.74156   L 174.78433,169.11004   z "
     style="fill:#000000;fill-rule:evenodd;fill-opacity:1;stroke:none;" />
  <path
     id="path13"
     d="  M 97.941565,169.11004   L 97.941565,127.91144   L 106.17329,127.91144   L 115.92349,157.08213   C 116.80261,159.7994 117.48193,161.83735 117.88152,163.19598   C 118.36104,161.67751 119.08032,159.47972 120.07932,156.56265   L 129.90944,127.91144   L 137.26205,127.91144   L 137.26205,169.11004   L 132.02731,169.11004   L 132.02731,134.6247   L 120.03936,169.11004   L 115.1243,169.11004   L 103.21626,134.06526   L 103.21626,169.11004   z  M 146.97229,169.11004   L 146.97229,127.91144   L 152.44678,127.91144   L 152.44678,169.11004   z  M 169.22992,169.11004   L 158.32088,127.91144   L 163.91526,127.91144   L 170.14899,154.92429   C 170.82831,157.76144 171.42771,160.55863 171.90723,163.35582   C 172.94618,158.96024 173.58554,156.40281 173.74538,155.72349   L 181.61747,127.91144   L 188.17088,127.91144   L 194.08494,148.77048   C 195.56345,153.9253 196.60241,158.8004 197.28172,163.35582   C 197.8012,160.75843 198.48052,157.76144 199.31968,154.40482   L 205.79317,127.91144   L 211.26767,127.91144   L 199.95903,169.11004   L 194.72429,169.11004   L 186.05301,137.74156   C 185.29377,135.10421 184.89417,133.50582 184.73433,132.90642   C 184.33474,134.78454 183.89518,136.38293 183.53554,137.74156   L 174.78433,169.11004   z "
     style="fill:none;stroke:#000000;stroke-width:0.95903611px;stroke-linecap:butt;stroke-linejoin:miter;stroke-miterlimit:10;stroke-dasharray:none;stroke-opacity:1;" />
</svg>
