<?xml version="1.0" encoding="UTF-8" standalone="no"?>
<svg
   xmlns:dc="http://purl.org/dc/elements/1.1/"
   xmlns:cc="http://creativecommons.org/ns#"
   xmlns:rdf="http://www.w3.org/1999/02/22-rdf-syntax-ns#"
   xmlns:svg="http://www.w3.org/2000/svg"
   xmlns="http://www.w3.org/2000/svg"
   id="svg39"
   height="116.05mm"
   width="135.35001mm"
   version="1.0">
  <metadata
     id="metadata43">
    <rdf:RDF>
      <cc:Work
         rdf:about="">
        <dc:format>image/svg+xml</dc:format>
        <dc:type
           rdf:resource="http://purl.org/dc/dcmitype/StillImage" />
      </cc:Work>
    </rdf:RDF>
  </metadata>
  <defs
     id="defs3">
    <pattern
       y="0"
       x="0"
       height="6"
       width="6"
       patternUnits="userSpaceOnUse"
       id="EMFhbasepattern" />
  </defs>
  <path
     id="path5"
     d="  M 174.2249,54.345381   C 54.345381,54.345381 54.345381,250.94779 174.2249,250.94779   C 174.2249,384.25381 337.26104,384.25381 337.26104,250.94779   C 457.14056,250.94779 457.14056,54.345381 337.26104,54.345381  "
     style="fill:none;stroke:#ffff00;stroke-width:9.5903616px;stroke-linecap:butt;stroke-linejoin:miter;stroke-miterlimit:10;stroke-dasharray:none;stroke-opacity:1;" />
  <path
     id="path7"
     d="  M 255.74297,159.83936   L 255.74297,255.74297  "
     style="fill:none;stroke:#000000;stroke-width:9.5903616px;stroke-linecap:butt;stroke-linejoin:miter;stroke-miterlimit:10;stroke-dasharray:none;stroke-opacity:1;" />
  <path
     id="path9"
     d="  M 202.99598,258.62008   L 308.48996,258.62008  "
     style="fill:none;stroke:#000000;stroke-width:9.5903616px;stroke-linecap:butt;stroke-linejoin:miter;stroke-miterlimit:10;stroke-dasharray:none;stroke-opacity:1;" />
  <path
     id="path11"
     d="  M 236.56225,102.29719   L 236.56225,102.29719   L 236.56225,68.730923   L 274.92369,68.730923   L 274.92369,102.29719   z "
     style="fill:#008000;fill-rule:evenodd;fill-opacity:1;stroke:none;" />
  <path
     id="path13"
     d="  M 236.56225,102.29719   L 236.56225,102.29719   L 236.56225,68.730923   L 274.92369,68.730923   L 274.92369,102.29719   z "
     style="fill:none;stroke:#000000;stroke-width:9.5903616px;stroke-linecap:butt;stroke-linejoin:miter;stroke-miterlimit:10;stroke-dasharray:none;stroke-opacity:1;" />
  <path
     id="path15"
     d="  M 200.87811,133.10622   L 200.87811,133.10622   L 177.14197,109.37008   L 204.2747,82.237348   L 228.01084,105.97349   z "
     style="fill:#008000;fill-rule:evenodd;fill-opacity:1;stroke:none;" />
  <path
     id="path17"
     d="  M 200.87811,133.10622   L 200.87811,133.10622   L 177.14197,109.37008   L 204.2747,82.237348   L 228.01084,105.97349   z "
     style="fill:none;stroke:#000000;stroke-width:9.5903616px;stroke-linecap:butt;stroke-linejoin:miter;stroke-miterlimit:10;stroke-dasharray:none;stroke-opacity:1;" />
  <path
     id="path19"
     d="  M 282.8757,105.93353   L 282.8757,105.93353   L 306.57188,82.157429   L 333.74457,109.2502   L 310.04839,133.0263   z "
     style="fill:#008000;fill-rule:evenodd;fill-opacity:1;stroke:none;" />
  <path
     id="path21"
     d="  M 282.8757,105.93353   L 282.8757,105.93353   L 306.57188,82.157429   L 333.74457,109.2502   L 310.04839,133.0263   z "
     style="fill:none;stroke:#000000;stroke-width:9.5903616px;stroke-linecap:butt;stroke-linejoin:miter;stroke-miterlimit:10;stroke-dasharray:none;stroke-opacity:1;" />
  <path
     id="path23"
     d="  M 188.61044,159.83936   C 188.61044,121.47791 217.38152,92.706826 255.74297,92.706826   C 294.10441,92.706826 322.8755,121.47791 322.8755,159.83936   z "
     style="fill:#008000;fill-rule:evenodd;fill-opacity:1;stroke:none;" />
  <path
     id="path25"
     d="  M 188.61044,159.83936   C 188.61044,121.47791 217.38152,92.706826 255.74297,92.706826   C 294.10441,92.706826 322.8755,121.47791 322.8755,159.83936   z "
     style="fill:none;stroke:#000000;stroke-width:9.5903616px;stroke-linecap:butt;stroke-linejoin:miter;stroke-miterlimit:10;stroke-dasharray:none;stroke-opacity:1;" />
  <path
     id="path27"
     d="  M 322.8755,226.97188   L 322.8755,226.97188   L 289.30923,202.99598   L 322.8755,179.02008   z "
     style="fill:#008000;fill-rule:evenodd;fill-opacity:1;stroke:none;" />
  <path
     id="path29"
     d="  M 322.8755,226.97188   L 322.8755,226.97188   L 289.30923,202.99598   L 322.8755,179.02008   z "
     style="fill:none;stroke:#000000;stroke-width:9.5903616px;stroke-linecap:butt;stroke-linejoin:miter;stroke-miterlimit:10;stroke-dasharray:none;stroke-opacity:1;" />
  <path
     id="path31"
     d="  M 274.92369,226.97188   L 274.92369,226.97188   L 241.35743,202.99598   L 274.92369,179.02008   z "
     style="fill:#008000;fill-rule:evenodd;fill-opacity:1;stroke:none;" />
  <path
     id="path33"
     d="  M 274.92369,226.97188   L 274.92369,226.97188   L 241.35743,202.99598   L 274.92369,179.02008   z "
     style="fill:none;stroke:#000000;stroke-width:9.5903616px;stroke-linecap:butt;stroke-linejoin:miter;stroke-miterlimit:10;stroke-dasharray:none;stroke-opacity:1;" />
  <path
     id="path35"
     d="  M 226.97188,226.97188   L 226.97188,226.97188   L 193.40562,202.99598   L 226.97188,179.02008   z "
     style="fill:#008000;fill-rule:evenodd;fill-opacity:1;stroke:none;" />
  <path
     id="path37"
     d="  M 226.97188,226.97188   L 226.97188,226.97188   L 193.40562,202.99598   L 226.97188,179.02008   z "
     style="fill:none;stroke:#000000;stroke-width:9.5903616px;stroke-linecap:butt;stroke-linejoin:miter;stroke-miterlimit:10;stroke-dasharray:none;stroke-opacity:1;" />
</svg>
