<?xml version="1.0" encoding="UTF-8" standalone="no"?>
<svg
   xmlns:dc="http://purl.org/dc/elements/1.1/"
   xmlns:cc="http://creativecommons.org/ns#"
   xmlns:rdf="http://www.w3.org/1999/02/22-rdf-syntax-ns#"
   xmlns:svg="http://www.w3.org/2000/svg"
   xmlns="http://www.w3.org/2000/svg"
   id="svg17"
   height="107.94mm"
   width="95.75mm"
   version="1.0">
  <metadata
     id="metadata21">
    <rdf:RDF>
      <cc:Work
         rdf:about="">
        <dc:format>image/svg+xml</dc:format>
        <dc:type
           rdf:resource="http://purl.org/dc/dcmitype/StillImage" />
      </cc:Work>
    </rdf:RDF>
  </metadata>
  <defs
     id="defs3">
    <pattern
       y="0"
       x="0"
       height="6"
       width="6"
       patternUnits="userSpaceOnUse"
       id="EMFhbasepattern" />
  </defs>
  <path
     id="path5"
     d="  M 307.53092,54.345381   L 307.53092,236.56225   L 180.93815,353.56465   L 54.345381,236.56225   L 54.345381,54.345381  "
     style="fill:none;stroke:#ff0000;stroke-width:9.5903616px;stroke-linecap:butt;stroke-linejoin:miter;stroke-miterlimit:10;stroke-dasharray:none;stroke-opacity:1;" />
  <path
     id="path7"
     d="  M 154.76446,95.783734   L 154.76446,95.783734   L 207.51144,95.783734   L 244.43433,132.70662   L 244.43433,185.45361   L 207.51144,222.3765   L 154.76446,222.3765   L 117.84156,185.45361   L 117.84156,132.70662   z "
     style="fill:#ffff00;fill-rule:evenodd;fill-opacity:1;stroke:none;" />
  <path
     id="path9"
     d="  M 154.76446,95.783734   L 154.76446,95.783734   L 207.51144,95.783734   L 244.43433,132.70662   L 244.43433,185.45361   L 207.51144,222.3765   L 154.76446,222.3765   L 117.84156,185.45361   L 117.84156,132.70662   z "
     style="fill:none;stroke:#000000;stroke-width:10.549397px;stroke-linecap:butt;stroke-linejoin:miter;stroke-miterlimit:10;stroke-dasharray:none;stroke-opacity:1;" />
  <path
     id="path11"
     d="  M 164.75442,182.3767   L 164.75442,120.59879   L 209.42952,120.59879   L 209.42952,127.87148   L 172.94618,127.87148   L 172.94618,146.81245   L 207.11184,146.81245   L 207.11184,154.04518   L 172.94618,154.04518   L 172.94618,175.06405   L 210.86807,175.06405   L 210.86807,182.3767   z "
     style="fill:#000000;fill-rule:evenodd;fill-opacity:1;stroke:none;" />
  <path
     id="path13"
     d="  M 180.93815,226.97188   L 180.93815,260.53815  "
     style="fill:none;stroke:#000000;stroke-width:9.5903616px;stroke-linecap:butt;stroke-linejoin:miter;stroke-miterlimit:10;stroke-dasharray:none;stroke-opacity:1;" />
  <path
     id="path15"
     d="  M 118.6008,257.66104   L 243.2755,257.66104  "
     style="fill:none;stroke:#000000;stroke-width:9.5903616px;stroke-linecap:butt;stroke-linejoin:miter;stroke-miterlimit:10;stroke-dasharray:none;stroke-opacity:1;" />
</svg>
