<?xml version="1.0" encoding="UTF-8" standalone="no"?>
<svg
   xmlns:dc="http://purl.org/dc/elements/1.1/"
   xmlns:cc="http://creativecommons.org/ns#"
   xmlns:rdf="http://www.w3.org/1999/02/22-rdf-syntax-ns#"
   xmlns:svg="http://www.w3.org/2000/svg"
   xmlns="http://www.w3.org/2000/svg"
   id="svg11"
   height="130.27mm"
   width="130.27mm"
   version="1.0">
  <metadata
     id="metadata15">
    <rdf:RDF>
      <cc:Work
         rdf:about="">
        <dc:format>image/svg+xml</dc:format>
        <dc:type
           rdf:resource="http://purl.org/dc/dcmitype/StillImage" />
      </cc:Work>
    </rdf:RDF>
  </metadata>
  <defs
     id="defs3">
    <pattern
       y="0"
       x="0"
       height="6"
       width="6"
       patternUnits="userSpaceOnUse"
       id="EMFhbasepattern" />
  </defs>
  <path
     id="path5"
     d="  M 164.63454,327.67068   C 164.63454,437.95983 327.67068,437.95983 327.67068,327.67068   C 437.95983,327.67068 437.95983,164.63454 327.67068,164.63454   C 327.67068,54.345381 164.63454,54.345381 164.63454,164.63454   C 54.345381,164.63454 54.345381,327.67068 164.63454,327.67068   z "
     style="fill:#ffff80;fill-rule:evenodd;fill-opacity:1;stroke:none;" />
  <path
     id="path7"
     d="  M 164.63454,327.67068   C 164.63454,437.95983 327.67068,437.95983 327.67068,327.67068   C 437.95983,327.67068 437.95983,164.63454 327.67068,164.63454   C 327.67068,54.345381 164.63454,54.345381 164.63454,164.63454   C 54.345381,164.63454 54.345381,327.67068 164.63454,327.67068  "
     style="fill:none;stroke:#000000;stroke-width:9.5903616px;stroke-linecap:butt;stroke-linejoin:miter;stroke-miterlimit:10;stroke-dasharray:none;stroke-opacity:1;" />
  <path
     id="path9"
     d="  M 276.56204,166.31285   L 268.53012,173.86526   L 250.46827,157.24197   L 250.46827,299.33915   L 239.67911,299.33915   L 239.67911,158.04116   L 222.21666,173.98514   L 214.50441,167.23193   L 245.59317,137.78152   z  M 245.43333,353.40481   C 237.12168,353.40481 230.12871,350.80742 224.45441,345.61265   C 218.78012,340.37791 215.94297,333.98433 215.94297,326.352   C 215.94297,318.51987 218.74016,311.96646 224.25462,306.77168   C 229.80903,301.5769 236.72208,298.93955 245.03373,298.93955   C 253.34538,298.93955 260.37831,301.61686 266.21245,306.97148   C 272.04658,312.28614 274.92369,318.75963 274.92369,326.39196   C 274.92369,333.98433 272.08654,340.41787 266.41225,345.61265   C 260.73795,350.80742 253.74498,353.40481 245.43333,353.40481   z  M 239.67911,236.04277   L 239.67911,224.89397   L 216.18273,224.89397   L 216.18273,236.04277   z  M 245.83293,307.2512   C 240.07871,307.2512 235.20361,309.08935 231.24759,312.68574   C 227.29156,316.32208 225.33353,320.79759 225.33353,326.03232   C 225.33353,331.30702 227.29156,335.74257 231.24759,339.37891   C 235.20361,343.01526 240.07871,344.81345 245.83293,344.81345   C 251.54719,344.81345 256.42229,343.01526 260.37831,339.37891   C 264.33433,335.74257 266.29237,331.30702 266.29237,326.03232   C 266.29237,320.79759 264.33433,316.32208 260.37831,312.68574   C 256.38233,309.08935 251.54719,307.2512 245.83293,307.2512   z  M 273.76486,236.04277   L 273.76486,224.49437   L 250.46827,224.89397   L 250.46827,236.04277   z "
     style="fill:#000000;fill-rule:evenodd;fill-opacity:1;stroke:none;" />
</svg>
