<?xml version="1.0" encoding="UTF-8" standalone="no"?>
<svg
   xmlns:dc="http://purl.org/dc/elements/1.1/"
   xmlns:cc="http://creativecommons.org/ns#"
   xmlns:rdf="http://www.w3.org/1999/02/22-rdf-syntax-ns#"
   xmlns:svg="http://www.w3.org/2000/svg"
   xmlns="http://www.w3.org/2000/svg"
   id="svg7"
   height="57.189999mm"
   width="16.59mm"
   version="1.0">
  <metadata
     id="metadata11">
    <rdf:RDF>
      <cc:Work
         rdf:about="">
        <dc:format>image/svg+xml</dc:format>
        <dc:type
           rdf:resource="http://purl.org/dc/dcmitype/StillImage" />
      </cc:Work>
    </rdf:RDF>
  </metadata>
  <defs
     id="defs3">
    <pattern
       y="0"
       x="0"
       height="6"
       width="6"
       patternUnits="userSpaceOnUse"
       id="EMFhbasepattern" />
  </defs>
  <path
     id="path5"
     d="  M 62.377308,28.851004   L 54.345381,36.403413   L 36.283534,19.78012   L 36.283534,161.87731   L 25.494377,161.87731   L 25.494377,20.579317   L 8.0319276,36.523293   L 0.31967871,29.77008   L 31.408433,0.31967871   z  M 31.248594,215.94297   C 22.936947,215.94297 15.943976,213.34558 10.269679,208.1508   C 4.5953815,202.91606 1.7582329,196.52249 1.7582329,188.89016   C 1.7582329,181.05803 4.5554216,174.50462 10.069879,169.30984   C 15.624297,164.11506 22.537349,161.47771 30.848996,161.47771   C 39.160642,161.47771 46.193574,164.15502 52.02771,169.50964   C 57.861847,174.82429 60.738955,181.29779 60.738955,188.93012   C 60.738955,196.52249 57.901806,202.95602 52.227509,208.1508   C 46.553212,213.34558 39.56024,215.94297 31.248594,215.94297   z  M 25.494377,98.580922   L 25.494377,87.432127   L 1.9979919,87.432127   L 1.9979919,98.580922   z  M 31.648192,169.78935   C 25.893976,169.78935 21.018875,171.62751 17.062851,175.22389   C 13.106827,178.86024 11.148795,183.33574 11.148795,188.57048   C 11.148795,193.84518 13.106827,198.28072 17.062851,201.91707   C 21.018875,205.55341 25.893976,207.3516 31.648192,207.3516   C 37.362449,207.3516 42.23755,205.55341 46.193574,201.91707   C 50.149598,198.28072 52.10763,193.84518 52.10763,188.57048   C 52.10763,183.33574 50.149598,178.86024 46.193574,175.22389   C 42.19759,171.62751 37.362449,169.78935 31.648192,169.78935   z  M 59.58012,98.580922   L 59.58012,87.032529   L 36.283534,87.432127   L 36.283534,98.580922   z "
     style="fill:#aaffaa;fill-rule:evenodd;fill-opacity:1;stroke:none;" />
</svg>
