<?xml version="1.0" encoding="UTF-8" standalone="no"?>
<svg
   xmlns:dc="http://purl.org/dc/elements/1.1/"
   xmlns:cc="http://creativecommons.org/ns#"
   xmlns:rdf="http://www.w3.org/1999/02/22-rdf-syntax-ns#"
   xmlns:svg="http://www.w3.org/2000/svg"
   xmlns="http://www.w3.org/2000/svg"
   id="svg11"
   height="95.75mm"
   width="95.75mm"
   version="1.0">
  <metadata
     id="metadata15">
    <rdf:RDF>
      <cc:Work
         rdf:about="">
        <dc:format>image/svg+xml</dc:format>
        <dc:type
           rdf:resource="http://purl.org/dc/dcmitype/StillImage" />
      </cc:Work>
    </rdf:RDF>
  </metadata>
  <defs
     id="defs3">
    <pattern
       y="0"
       x="0"
       height="6"
       width="6"
       patternUnits="userSpaceOnUse"
       id="EMFhbasepattern" />
  </defs>
  <path
     id="path5"
     d="  M 54.345381,54.345381   L 54.345381,307.53092   L 307.53092,307.53092   L 307.53092,54.345381   L 54.345381,54.345381   z "
     style="fill:#aaffaa;fill-rule:evenodd;fill-opacity:1;stroke:none;" />
  <path
     id="path7"
     d="  M 54.345381,54.345381   L 307.53092,54.345381   L 307.53092,307.53092   L 54.345381,307.53092   z "
     style="fill:none;stroke:#000000;stroke-width:9.5903616px;stroke-linecap:butt;stroke-linejoin:miter;stroke-miterlimit:10;stroke-dasharray:none;stroke-opacity:1;" />
  <path
     id="path9"
     d="  M 212.34658,100.89859   L 204.67429,108.81064   L 186.69237,92.467067   L 186.69237,234.1247   L 175.90321,234.1247   L 175.90321,92.267268   L 157.84136,108.69076   L 149.28996,101.61787   L 181.21787,72.567067   z  M 181.17791,288.19036   C 172.6265,288.19036 165.55361,285.59297 159.91927,280.39819   C 154.28494,275.20341 151.44779,268.76988 151.44779,261.17751   C 151.44779,253.30542 154.20502,246.752 159.71948,241.55723   C 165.19397,236.36245 172.22691,233.76506 180.73835,233.76506   C 189.01004,233.76506 196.00301,236.44237 201.79719,241.75702   C 207.5514,247.07168 210.42851,253.54518 210.42851,261.17751   C 210.42851,268.76988 207.63132,275.20341 201.99699,280.39819   C 196.36265,285.59297 189.40964,288.19036 181.17791,288.19036   z  M 181.33775,242.03674   C 175.58353,242.03674 170.70843,243.8749 166.75241,247.47128   C 162.79638,251.10763 160.79839,255.58313 160.79839,260.81787   C 160.79839,266.09257 162.79638,270.52811 166.75241,274.16445   C 170.70843,277.8008 175.58353,279.59899 181.29779,279.59899   C 187.05201,279.59899 191.88715,277.8008 195.88313,274.16445   C 199.83915,270.52811 201.79719,266.09257 201.79719,260.81787   C 201.79719,255.58313 199.83915,251.10763 195.88313,247.47128   C 191.88715,243.8749 187.05201,242.03674 181.33775,242.03674   z "
     style="fill:#000000;fill-rule:evenodd;fill-opacity:1;stroke:none;" />
</svg>
