<?xml version="1.0" encoding="UTF-8" standalone="no"?>
<svg
   xmlns:dc="http://purl.org/dc/elements/1.1/"
   xmlns:cc="http://creativecommons.org/ns#"
   xmlns:rdf="http://www.w3.org/1999/02/22-rdf-syntax-ns#"
   xmlns:svg="http://www.w3.org/2000/svg"
   xmlns="http://www.w3.org/2000/svg"
   id="svg7"
   height="57.189999mm"
   width="16.93mm"
   version="1.0">
  <metadata
     id="metadata11">
    <rdf:RDF>
      <cc:Work
         rdf:about="">
        <dc:format>image/svg+xml</dc:format>
        <dc:type
           rdf:resource="http://purl.org/dc/dcmitype/StillImage" />
      </cc:Work>
    </rdf:RDF>
  </metadata>
  <defs
     id="defs3">
    <pattern
       y="0"
       x="0"
       height="6"
       width="6"
       patternUnits="userSpaceOnUse"
       id="EMFhbasepattern" />
  </defs>
  <path
     id="path5"
     d="  M 63.376304,28.651204   L 55.704015,36.563252   L 37.722088,20.219678   L 37.722088,161.87731   L 26.932931,161.87731   L 26.932931,20.019879   L 8.8710842,36.443373   L 0.31967871,29.370482   L 32.24759,0.31967871   z  M 32.20763,215.94297   C 23.656225,215.94297 16.583333,213.34558 10.948996,208.1508   C 5.3146586,202.95602 2.47751,196.52249 2.47751,188.93012   C 2.47751,181.05803 5.2347389,174.50462 10.749197,169.30984   C 16.223695,164.11506 23.256626,161.51767 31.768072,161.51767   C 40.039758,161.51767 47.03273,164.19498 52.826907,169.50964   C 58.581124,174.82429 61.458232,181.29779 61.458232,188.93012   C 61.458232,196.52249 58.661043,202.95602 53.026706,208.1508   C 47.392369,213.34558 40.439357,215.94297 32.20763,215.94297   z  M 32.367469,169.78935   C 26.613253,169.78935 21.738152,171.62751 17.782128,175.22389   C 13.826104,178.86024 11.828112,183.33574 11.828112,188.57048   C 11.828112,193.84518 13.826104,198.28072 17.782128,201.91707   C 21.738152,205.55341 26.613253,207.3516 32.32751,207.3516   C 38.081726,207.3516 42.916867,205.55341 46.912851,201.91707   C 50.868875,198.28072 52.826907,193.84518 52.826907,188.57048   C 52.826907,183.33574 50.868875,178.86024 46.912851,175.22389   C 42.916867,171.62751 38.081726,169.78935 32.367469,169.78935   z "
     style="fill:#ff8080;fill-rule:evenodd;fill-opacity:1;stroke:none;" />
</svg>
