<?xml version="1.0" encoding="UTF-8" standalone="no"?>
<svg
   xmlns:dc="http://purl.org/dc/elements/1.1/"
   xmlns:cc="http://creativecommons.org/ns#"
   xmlns:rdf="http://www.w3.org/1999/02/22-rdf-syntax-ns#"
   xmlns:svg="http://www.w3.org/2000/svg"
   xmlns="http://www.w3.org/2000/svg"
   id="svg17"
   height="89.669998mm"
   width="120.11mm"
   version="1.0">
  <metadata
     id="metadata21">
    <rdf:RDF>
      <cc:Work
         rdf:about="">
        <dc:format>image/svg+xml</dc:format>
        <dc:type
           rdf:resource="http://purl.org/dc/dcmitype/StillImage" />
      </cc:Work>
    </rdf:RDF>
  </metadata>
  <defs
     id="defs3">
    <pattern
       y="0"
       x="0"
       height="6"
       width="6"
       patternUnits="userSpaceOnUse"
       id="EMFhbasepattern" />
  </defs>
  <path
     id="path5"
     d="  M 54.345381,54.345381   L 54.345381,284.51405   L 399.59839,284.51405   L 399.59839,54.345381   L 54.345381,54.345381   z "
     style="fill:#80e0ff;fill-rule:evenodd;fill-opacity:1;stroke:none;" />
  <path
     id="path7"
     d="  M 54.345381,54.345381   L 399.59839,54.345381   L 399.59839,284.51405   L 54.345381,284.51405   z "
     style="fill:none;stroke:#000000;stroke-width:9.5903616px;stroke-linecap:butt;stroke-linejoin:miter;stroke-miterlimit:10;stroke-dasharray:none;stroke-opacity:1;" />
  <path
     id="path9"
     d="  M 219.2996,90.628914   L 226.97188,70.648995   L 234.64417,90.628914   z "
     style="fill:none;stroke:#000000;stroke-width:7.6722889px;stroke-linecap:butt;stroke-linejoin:miter;stroke-miterlimit:10;stroke-dasharray:none;stroke-opacity:1;" />
  <path
     id="path11"
     d="  M 226.97188,70.648995   L 226.97188,208.7502  "
     style="fill:none;stroke:#000000;stroke-width:7.6722889px;stroke-linecap:butt;stroke-linejoin:miter;stroke-miterlimit:10;stroke-dasharray:none;stroke-opacity:1;" />
  <path
     id="path13"
     d="  M 236.96184,220.25863   C 236.96184,225.77309 232.48634,230.24859 226.97188,230.24859   C 221.49739,230.24859 217.02188,225.77309 217.02188,220.25863   C 217.02188,214.78413 221.49739,210.30863 226.97188,210.30863   C 232.48634,210.30863 236.96184,214.78413 236.96184,220.25863  "
     style="fill:none;stroke:#000000;stroke-width:7.6722889px;stroke-linecap:butt;stroke-linejoin:miter;stroke-miterlimit:10;stroke-dasharray:none;stroke-opacity:1;" />
  <path
     id="path15"
     d="  M 54.345381,245.19357   C 54.345381,248.07068 85.993573,255.74297 85.993573,226.97188   C 85.993573,198.2008 126.27309,198.2008 126.27309,226.97188   C 126.27309,255.74297 166.55261,255.74297 166.55261,226.97188   C 166.55261,198.2008 206.83213,198.2008 206.83213,226.97188   C 206.83213,255.74297 247.11164,255.74297 247.11164,226.97188   C 247.11164,198.2008 287.39116,198.2008 287.39116,226.97188   C 287.39116,255.74297 327.67068,255.74297 327.67068,226.97188   C 327.67068,198.2008 367.9502,198.2008 367.9502,226.97188   C 367.9502,255.74297 399.59839,248.07068 399.59839,245.19357  "
     style="fill:none;stroke:#000000;stroke-width:9.5903616px;stroke-linecap:butt;stroke-linejoin:miter;stroke-miterlimit:10;stroke-dasharray:none;stroke-opacity:1;" />
</svg>
