<?xml version="1.0" encoding="UTF-8" standalone="no"?>
<svg
   xmlns:dc="http://purl.org/dc/elements/1.1/"
   xmlns:cc="http://creativecommons.org/ns#"
   xmlns:rdf="http://www.w3.org/1999/02/22-rdf-syntax-ns#"
   xmlns:svg="http://www.w3.org/2000/svg"
   xmlns="http://www.w3.org/2000/svg"
   id="svg11"
   height="101.85mm"
   width="101.85mm"
   version="1.0">
  <metadata
     id="metadata15">
    <rdf:RDF>
      <cc:Work
         rdf:about="">
        <dc:format>image/svg+xml</dc:format>
        <dc:type
           rdf:resource="http://purl.org/dc/dcmitype/StillImage" />
      </cc:Work>
    </rdf:RDF>
  </metadata>
  <defs
     id="defs3">
    <pattern
       y="0"
       x="0"
       height="6"
       width="6"
       patternUnits="userSpaceOnUse"
       id="EMFhbasepattern" />
  </defs>
  <path
     id="path5"
     d="  M 330.54779,192.44658   C 330.54779,268.72992 268.72992,330.54779 192.44658,330.54779   C 116.20321,330.54779 54.345381,268.72992 54.345381,192.44658   C 54.345381,116.20321 116.20321,54.345381 192.44658,54.345381   C 268.72992,54.345381 330.54779,116.20321 330.54779,192.44658   z "
     style="fill:#80e0ff;fill-rule:evenodd;fill-opacity:1;stroke:none;" />
  <path
     id="path7"
     d="  M 330.54779,192.44658   C 330.54779,268.72992 268.72992,330.54779 192.44658,330.54779   C 116.20321,330.54779 54.345381,268.72992 54.345381,192.44658   C 54.345381,116.20321 116.20321,54.345381 192.44658,54.345381   C 268.72992,54.345381 330.54779,116.20321 330.54779,192.44658  "
     style="fill:none;stroke:#000000;stroke-width:9.5903616px;stroke-linecap:butt;stroke-linejoin:miter;stroke-miterlimit:10;stroke-dasharray:none;stroke-opacity:1;" />
  <path
     id="path9"
     d="  M 223.85502,112.40703   L 216.18273,120.31907   L 198.2008,103.9755   L 198.2008,245.63313   L 187.41164,245.63313   L 187.41164,103.7757   L 169.3498,120.1992   L 160.79839,113.1263   L 192.7263,84.075501   z  M 192.68634,299.69879   C 184.13494,299.69879 177.06205,297.1014 171.42771,291.90662   C 165.79337,286.71184 162.95622,280.27831 162.95622,272.68594   C 162.95622,264.81385 165.71345,258.26044 171.22791,253.06566   C 176.70241,247.87088 183.73534,245.27349 192.24678,245.27349   C 200.51847,245.27349 207.51144,247.9508 213.30562,253.26546   C 219.05984,258.58012 221.93694,265.05361 221.93694,272.68594   C 221.93694,280.27831 219.13976,286.71184 213.50542,291.90662   C 207.87108,297.1014 200.91807,299.69879 192.68634,299.69879   z  M 192.84618,253.54518   C 187.09197,253.54518 182.21686,255.38333 178.26084,258.97972   C 174.30482,262.61606 172.30682,267.09156 172.30682,272.3263   C 172.30682,277.601 174.30482,282.03654 178.26084,285.67289   C 182.21686,289.30923 187.09197,291.10743 192.80622,291.10743   C 198.56044,291.10743 203.39558,289.30923 207.39156,285.67289   C 211.34759,282.03654 213.30562,277.601 213.30562,272.3263   C 213.30562,267.09156 211.34759,262.61606 207.39156,258.97972   C 203.39558,255.38333 198.56044,253.54518 192.84618,253.54518   z "
     style="fill:#000000;fill-rule:evenodd;fill-opacity:1;stroke:none;" />
</svg>
