<?xml version="1.0" encoding="UTF-8" standalone="no"?>
<svg
   xmlns:dc="http://purl.org/dc/elements/1.1/"
   xmlns:cc="http://creativecommons.org/ns#"
   xmlns:rdf="http://www.w3.org/1999/02/22-rdf-syntax-ns#"
   xmlns:svg="http://www.w3.org/2000/svg"
   xmlns="http://www.w3.org/2000/svg"
   id="svg11"
   height="116.73mm"
   width="116.73mm"
   version="1.0">
  <metadata
     id="metadata15">
    <rdf:RDF>
      <cc:Work
         rdf:about="">
        <dc:format>image/svg+xml</dc:format>
        <dc:type
           rdf:resource="http://purl.org/dc/dcmitype/StillImage" />
      </cc:Work>
    </rdf:RDF>
  </metadata>
  <defs
     id="defs3">
    <pattern
       y="0"
       x="0"
       height="6"
       width="6"
       patternUnits="userSpaceOnUse"
       id="EMFhbasepattern" />
  </defs>
  <path
     id="path5"
     d="  M 220.57831,386.49156   L 220.57831,386.49156   L 386.49156,220.57831   L 220.57831,54.665059   L 54.665059,220.57831   L 220.57831,386.49156   z "
     style="fill:#ff8080;fill-rule:evenodd;fill-opacity:1;stroke:none;" />
  <path
     id="path7"
     d="  M 220.57831,386.49156   L 220.57831,386.49156   L 386.49156,220.57831   L 220.57831,54.665059   L 54.665059,220.57831   L 220.57831,386.49156  "
     style="fill:none;stroke:#000000;stroke-width:9.5903616px;stroke-linecap:butt;stroke-linejoin:miter;stroke-miterlimit:10;stroke-dasharray:none;stroke-opacity:1;" />
  <path
     id="path9"
     d="  M 251.98674,140.53875   L 244.31445,148.4508   L 226.33253,132.10723   L 226.33253,273.76486   L 215.54337,273.76486   L 215.54337,131.90743   L 197.48152,148.33092   L 188.93012,141.25803   L 220.85803,112.20723   z  M 220.81807,327.83052   C 212.26666,327.83052 205.19377,325.23313 199.55943,320.03835   C 193.9251,314.84357 191.08795,308.41004 191.08795,300.81767   C 191.08795,292.94558 193.84518,286.39216 199.35964,281.19739   C 204.83413,276.00261 211.86707,273.40522 220.37851,273.40522   C 228.6502,273.40522 235.64317,276.08253 241.43735,281.39718   C 247.19156,286.71184 250.06867,293.18534 250.06867,300.81767   C 250.06867,308.41004 247.27148,314.84357 241.63715,320.03835   C 236.00281,325.23313 229.0498,327.83052 220.81807,327.83052   z  M 220.97791,281.6769   C 215.22369,281.6769 210.34859,283.51506 206.39257,287.11144   C 202.43654,290.74779 200.43855,295.22329 200.43855,300.45803   C 200.43855,305.73273 202.43654,310.16827 206.39257,313.80461   C 210.34859,317.44096 215.22369,319.23915 220.93795,319.23915   C 226.69217,319.23915 231.52731,317.44096 235.52329,313.80461   C 239.47931,310.16827 241.43735,305.73273 241.43735,300.45803   C 241.43735,295.22329 239.47931,290.74779 235.52329,287.11144   C 231.52731,283.51506 226.69217,281.6769 220.97791,281.6769   z "
     style="fill:#000000;fill-rule:evenodd;fill-opacity:1;stroke:none;" />
</svg>
