<?xml version="1.0" encoding="UTF-8" standalone="no"?>
<svg
   xmlns:dc="http://purl.org/dc/elements/1.1/"
   xmlns:cc="http://creativecommons.org/ns#"
   xmlns:rdf="http://www.w3.org/1999/02/22-rdf-syntax-ns#"
   xmlns:svg="http://www.w3.org/2000/svg"
   xmlns="http://www.w3.org/2000/svg"
   id="svg11"
   height="95.75mm"
   width="95.75mm"
   version="1.0">
  <metadata
     id="metadata15">
    <rdf:RDF>
      <cc:Work
         rdf:about="">
        <dc:format>image/svg+xml</dc:format>
        <dc:type
           rdf:resource="http://purl.org/dc/dcmitype/StillImage" />
      </cc:Work>
    </rdf:RDF>
  </metadata>
  <defs
     id="defs3">
    <pattern
       y="0"
       x="0"
       height="6"
       width="6"
       patternUnits="userSpaceOnUse"
       id="EMFhbasepattern" />
  </defs>
  <path
     id="path5"
     d="  M 54.345381,54.345381   L 54.345381,307.53092   L 307.53092,307.53092   L 307.53092,54.345381   L 54.345381,54.345381   z "
     style="fill:#aaffaa;fill-rule:evenodd;fill-opacity:1;stroke:none;" />
  <path
     id="path7"
     d="  M 54.345381,54.345381   L 307.53092,54.345381   L 307.53092,307.53092   L 54.345381,307.53092   z "
     style="fill:none;stroke:#000000;stroke-width:9.5903616px;stroke-linecap:butt;stroke-linejoin:miter;stroke-miterlimit:10;stroke-dasharray:none;stroke-opacity:1;" />
  <path
     id="path9"
     d="  M 211.46747,101.45803   L 203.15582,109.0504   L 185.77329,92.706826   L 186.17289,234.00482   L 174.98413,234.36445   L 174.98413,93.106424   L 157.16205,109.0504   L 149.28996,102.21727   L 180.37871,72.567067   z  M 174.18494,143.9753   L 174.18494,133.34598   L 150.96827,133.34598   L 150.96827,143.9753   z  M 174.18494,170.58855   L 174.18494,159.91927   L 150.96827,159.91927   L 150.96827,170.58855   z  M 174.18494,197.16184   L 174.18494,186.53253   L 150.96827,186.53253   L 150.96827,197.16184   z  M 180.37871,288.31024   C 172.10703,288.31024 165.11405,285.71285 159.43976,280.51807   C 153.80542,275.32329 150.96827,268.92971 150.96827,261.33735   C 150.96827,253.50522 153.7255,246.99176 159.23996,241.79698   C 164.75442,236.60221 171.66747,234.00482 179.97911,234.00482   C 188.2508,234.00482 195.28373,236.64217 201.07791,241.95682   C 206.87209,247.27148 209.78915,253.74498 209.78915,261.33735   C 209.78915,268.92971 206.95201,275.32329 201.27771,280.51807   C 195.64337,285.71285 188.6504,288.31024 180.37871,288.31024   z  M 180.81827,241.95682   C 174.98413,241.95682 170.10903,243.83494 166.07309,247.47128   C 162.07711,251.14759 160.07911,255.66305 160.07911,260.97771   C 160.07911,266.29237 162.07711,270.76787 166.07309,274.44417   C 170.06907,278.12048 174.98413,279.95863 180.81827,279.95863   C 186.61245,279.95863 191.48755,278.12048 195.52349,274.44417   C 199.51948,270.76787 201.51747,266.29237 201.51747,260.97771   C 201.51747,255.66305 199.51948,251.14759 195.52349,247.47128   C 191.48755,243.79498 186.61245,241.95682 180.81827,241.95682   z  M 208.5504,143.9753   L 208.5504,132.98634   L 185.33373,133.34598   L 185.33373,144.3749   z  M 208.5504,170.58855   L 208.5504,159.55964   L 185.33373,159.91927   L 185.33373,170.94819   z  M 208.5504,197.16184   L 208.5504,186.13293   L 185.33373,186.53253   L 185.33373,197.52148   z "
     style="fill:#000000;fill-rule:evenodd;fill-opacity:1;stroke:none;" />
</svg>
