<?xml version="1.0" encoding="UTF-8" standalone="no"?>
<svg
   xmlns:dc="http://purl.org/dc/elements/1.1/"
   xmlns:cc="http://creativecommons.org/ns#"
   xmlns:rdf="http://www.w3.org/1999/02/22-rdf-syntax-ns#"
   xmlns:svg="http://www.w3.org/2000/svg"
   xmlns="http://www.w3.org/2000/svg"
   id="svg23"
   height="89.669998mm"
   width="120.11mm"
   version="1.0">
  <metadata
     id="metadata27">
    <rdf:RDF>
      <cc:Work
         rdf:about="">
        <dc:format>image/svg+xml</dc:format>
        <dc:type
           rdf:resource="http://purl.org/dc/dcmitype/StillImage" />
      </cc:Work>
    </rdf:RDF>
  </metadata>
  <defs
     id="defs3">
    <pattern
       y="0"
       x="0"
       height="6"
       width="6"
       patternUnits="userSpaceOnUse"
       id="EMFhbasepattern" />
  </defs>
  <path
     id="path5"
     d="  M 54.345381,54.345381   L 54.345381,284.51405   L 399.59839,284.51405   L 399.59839,54.345381   L 54.345381,54.345381   z "
     style="fill:#80e0ff;fill-rule:evenodd;fill-opacity:1;stroke:none;" />
  <path
     id="path7"
     d="  M 54.345381,54.345381   L 399.59839,54.345381   L 399.59839,284.51405   L 54.345381,284.51405   z "
     style="fill:none;stroke:#000000;stroke-width:9.5903616px;stroke-linecap:butt;stroke-linejoin:miter;stroke-miterlimit:10;stroke-dasharray:none;stroke-opacity:1;" />
  <path
     id="path9"
     d="  M 296.02249,198.2008   C 296.02249,236.36245 265.13353,267.2514 226.97188,267.2514   C 188.8502,267.2514 157.92128,236.36245 157.92128,198.2008   C 157.92128,160.07911 188.8502,129.1502 226.97188,129.1502   C 265.13353,129.1502 296.02249,160.07911 296.02249,198.2008  "
     style="fill:none;stroke:#000000;stroke-width:8.6313248px;stroke-linecap:butt;stroke-linejoin:miter;stroke-miterlimit:10;stroke-dasharray:none;stroke-opacity:1;" />
  <path
     id="path11"
     d="  M 171.74739,160.23895   L 282.23634,236.20261  "
     style="fill:none;stroke:#000000;stroke-width:8.6313248px;stroke-linecap:butt;stroke-linejoin:miter;stroke-miterlimit:10;stroke-dasharray:none;stroke-opacity:1;" />
  <path
     id="path13"
     d="  M 171.74739,236.20261   L 282.23634,160.23895  "
     style="fill:none;stroke:#000000;stroke-width:8.6313248px;stroke-linecap:butt;stroke-linejoin:miter;stroke-miterlimit:10;stroke-dasharray:none;stroke-opacity:1;" />
  <path
     id="path15"
     d="  M 226.97188,129.1502   L 226.97188,267.2514  "
     style="fill:none;stroke:#000000;stroke-width:8.6313248px;stroke-linecap:butt;stroke-linejoin:miter;stroke-miterlimit:10;stroke-dasharray:none;stroke-opacity:1;" />
  <path
     id="path17"
     d="  M 176.02309,110.44899   L 176.02309,74.764858   L 183.13594,74.764858   L 191.56747,100.01948   C 192.36666,102.37711 192.9261,104.13534 193.28574,105.29418   C 193.68534,104.01546 194.3247,102.09739 195.20381,99.579918   L 203.75522,74.764858   L 210.10883,74.764858   L 210.10883,110.44899   L 205.55341,110.44899   L 205.55341,80.559035   L 195.16385,110.44899   L 190.88815,110.44899   L 180.57851,80.039557   L 180.57851,110.44899   z  M 243.19558,97.941565   L 247.91084,99.1004   C 246.91184,103.01646 245.15361,105.97349 242.55622,108.01144   C 239.99879,110.0494 236.84196,111.04839 233.1257,111.04839   C 229.28955,111.04839 226.13273,110.28916 223.73514,108.69076   C 221.33755,107.13233 219.49939,104.85462 218.22068,101.89759   C 216.98192,98.940561 216.34257,95.743774 216.34257,92.307228   C 216.34257,88.590963 217.06184,85.354216 218.5004,82.596987   C 219.89899,79.839758 221.93694,77.721886 224.53433,76.283332   C 227.17168,74.844778 230.04879,74.125501 233.20562,74.125501   C 236.76204,74.125501 239.75903,75.044577 242.19658,76.88273   C 244.63413,78.680923 246.35241,81.238352 247.31144,84.515059   L 242.63614,85.633935   C 241.83694,83.036545 240.63815,81.158433 239.03976,79.959637   C 237.48132,78.760842 235.48333,78.161445 233.08574,78.161445   C 230.36847,78.161445 228.0508,78.840762 226.21265,80.159437   C 224.37449,81.478111 223.09578,83.236344 222.33654,85.434135   C 221.57731,87.671886 221.21767,89.949597 221.21767,92.307228   C 221.21767,95.344175 221.65723,97.981525 222.53634,100.25924   C 223.41546,102.53695 224.81405,104.21526 226.69217,105.33414   C 228.53032,106.45301 230.56827,107.01245 232.7261,107.01245   C 235.40341,107.01245 237.64116,106.25321 239.47931,104.73474   C 241.27751,103.21626 242.55622,100.93855 243.19558,97.941565   z  M 279.19939,97.941565   L 283.91465,99.1004   C 282.91566,103.01646 281.15743,105.97349 278.56004,108.01144   C 276.00261,110.0494 272.84578,111.04839 269.12951,111.04839   C 265.29337,111.04839 262.1765,110.28916 259.73895,108.69076   C 257.34136,107.13233 255.50321,104.85462 254.26445,101.89759   C 252.98574,98.940561 252.34638,95.743774 252.34638,92.307228   C 252.34638,88.590963 253.06566,85.354216 254.50421,82.596987   C 255.90281,79.839758 257.94076,77.721886 260.57811,76.283332   C 263.1755,74.844778 266.05261,74.125501 269.20943,74.125501   C 272.80582,74.125501 275.80281,75.044577 278.24036,76.88273   C 280.67791,78.680923 282.35622,81.238352 283.31526,84.515059   L 278.67992,85.633935   C 277.84076,83.036545 276.64196,81.158433 275.04357,79.959637   C 273.48514,78.760842 271.48714,78.161445 269.12951,78.161445   C 266.37229,78.161445 264.09457,78.840762 262.25642,80.159437   C 260.41827,81.478111 259.09959,83.236344 258.34036,85.434135   C 257.62108,87.671886 257.22148,89.949597 257.22148,92.307228   C 257.22148,95.344175 257.66104,97.981525 258.58012,100.25924   C 259.45923,102.53695 260.81787,104.21526 262.69598,105.33414   C 264.57409,106.45301 266.57208,107.01245 268.76988,107.01245   C 271.40722,107.01245 273.64498,106.25321 275.48313,104.73474   C 277.32128,103.21626 278.56004,100.93855 279.19939,97.941565   z "
     style="fill:#000000;fill-rule:evenodd;fill-opacity:1;stroke:none;" />
  <path
     id="path19"
     d="  M 54.345381,54.345381   L 54.345381,54.345381   L 102.29719,169.42972   L 54.345381,284.51405  "
     style="fill:none;stroke:#000000;stroke-width:9.5903616px;stroke-linecap:butt;stroke-linejoin:miter;stroke-miterlimit:10;stroke-dasharray:none;stroke-opacity:1;" />
  <path
     id="path21"
     d="  M 399.59839,54.345381   L 399.59839,54.345381   L 351.64658,169.42972   L 399.59839,284.51405  "
     style="fill:none;stroke:#000000;stroke-width:9.5903616px;stroke-linecap:butt;stroke-linejoin:miter;stroke-miterlimit:10;stroke-dasharray:none;stroke-opacity:1;" />
</svg>
