<?xml version="1.0" encoding="UTF-8" standalone="no"?>
<svg
   xmlns:dc="http://purl.org/dc/elements/1.1/"
   xmlns:cc="http://creativecommons.org/ns#"
   xmlns:rdf="http://www.w3.org/1999/02/22-rdf-syntax-ns#"
   xmlns:svg="http://www.w3.org/2000/svg"
   xmlns="http://www.w3.org/2000/svg"
   id="svg9"
   height="39.599998mm"
   width="49.240002mm"
   version="1.0">
  <metadata
     id="metadata13">
    <rdf:RDF>
      <cc:Work
         rdf:about="">
        <dc:format>image/svg+xml</dc:format>
        <dc:type
           rdf:resource="http://purl.org/dc/dcmitype/StillImage" />
      </cc:Work>
    </rdf:RDF>
  </metadata>
  <defs
     id="defs3">
    <pattern
       y="0"
       x="0"
       height="6"
       width="6"
       patternUnits="userSpaceOnUse"
       id="EMFhbasepattern" />
  </defs>
  <path
     id="path5"
     d="  M 86.513051,138.34096   L 37.402409,31.488353   L 37.402409,116.32309   C 37.402409,124.11526 38.241566,128.99036 39.959839,130.94839   C 42.277509,133.54578 45.913855,134.86446 50.908835,134.86446   L 55.384337,134.86446   L 55.384337,138.34096   L 11.188755,138.34096   L 11.188755,134.86446   L 15.704217,134.86446   C 21.058835,134.86446 24.85502,133.26606 27.132731,129.98936   C 28.491365,127.99136 29.170682,123.43594 29.170682,116.32309   L 29.170682,33.326506   C 29.170682,27.732128 28.571285,23.656225 27.29257,21.178715   C 26.413453,19.380522 24.81506,17.862048 22.497389,16.623293   C 20.139759,15.424498 16.383534,14.8251 11.188755,14.78514   L 11.188755,11.348594   L 47.15261,11.348594   L 93.226304,110.68875   L 138.58072,11.348594   L 174.54458,11.348594   L 174.54458,14.78514   L 170.10903,14.78514   C 164.71446,14.8251 160.83835,16.423494 158.6006,19.660241   C 157.24197,21.658233 156.56265,26.213654 156.56265,33.326506   L 156.56265,116.32309   C 156.56265,124.11526 157.44176,128.99036 159.16004,130.94839   C 161.47771,133.54578 165.15401,134.86446 170.10903,134.86446   L 174.54458,134.86446   L 174.54458,138.34096   L 120.59879,138.34096   L 120.59879,134.86446   L 125.0743,134.86446   C 130.50883,134.86446 134.30502,133.26606 136.50281,129.98936   C 137.9014,127.99136 138.58072,123.43594 138.58072,116.32309   L 138.58072,31.488353   L 89.589959,138.34096   z "
     style="fill:#000000;fill-rule:evenodd;fill-opacity:1;stroke:none;" />
  <path
     id="path7"
     d="  M 86.513051,138.34096   L 37.402409,31.488353   L 37.402409,116.32309   C 37.402409,124.11526 38.241566,128.99036 39.959839,130.94839   C 42.277509,133.54578 45.913855,134.86446 50.908835,134.86446   L 55.384337,134.86446   L 55.384337,138.34096   L 11.188755,138.34096   L 11.188755,134.86446   L 15.704217,134.86446   C 21.058835,134.86446 24.85502,133.26606 27.132731,129.98936   C 28.491365,127.99136 29.170682,123.43594 29.170682,116.32309   L 29.170682,33.326506   C 29.170682,27.732128 28.571285,23.656225 27.29257,21.178715   C 26.413453,19.380522 24.81506,17.862048 22.497389,16.623293   C 20.139759,15.424498 16.383534,14.8251 11.188755,14.78514   L 11.188755,11.348594   L 47.15261,11.348594   L 93.226304,110.68875   L 138.58072,11.348594   L 174.54458,11.348594   L 174.54458,14.78514   L 170.10903,14.78514   C 164.71446,14.8251 160.83835,16.423494 158.6006,19.660241   C 157.24197,21.658233 156.56265,26.213654 156.56265,33.326506   L 156.56265,116.32309   C 156.56265,124.11526 157.44176,128.99036 159.16004,130.94839   C 161.47771,133.54578 165.15401,134.86446 170.10903,134.86446   L 174.54458,134.86446   L 174.54458,138.34096   L 120.59879,138.34096   L 120.59879,134.86446   L 125.0743,134.86446   C 130.50883,134.86446 134.30502,133.26606 136.50281,129.98936   C 137.9014,127.99136 138.58072,123.43594 138.58072,116.32309   L 138.58072,31.488353   L 89.589959,138.34096   z "
     style="fill:none;stroke:#000000;stroke-width:0.95903611px;stroke-linecap:butt;stroke-linejoin:miter;stroke-miterlimit:10;stroke-dasharray:none;stroke-opacity:1;" />
</svg>
