<?xml version="1.0" encoding="UTF-8" standalone="no"?>
<svg
   xmlns:dc="http://purl.org/dc/elements/1.1/"
   xmlns:cc="http://creativecommons.org/ns#"
   xmlns:rdf="http://www.w3.org/1999/02/22-rdf-syntax-ns#"
   xmlns:svg="http://www.w3.org/2000/svg"
   xmlns="http://www.w3.org/2000/svg"
   id="svg11"
   height="130.27mm"
   width="130.27mm"
   version="1.0">
  <metadata
     id="metadata15">
    <rdf:RDF>
      <cc:Work
         rdf:about="">
        <dc:format>image/svg+xml</dc:format>
        <dc:type
           rdf:resource="http://purl.org/dc/dcmitype/StillImage" />
      </cc:Work>
    </rdf:RDF>
  </metadata>
  <defs
     id="defs3">
    <pattern
       y="0"
       x="0"
       height="6"
       width="6"
       patternUnits="userSpaceOnUse"
       id="EMFhbasepattern" />
  </defs>
  <path
     id="path5"
     d="  M 164.63454,327.67068   C 164.63454,437.95983 327.67068,437.95983 327.67068,327.67068   C 437.95983,327.67068 437.95983,164.63454 327.67068,164.63454   C 327.67068,54.345381 164.63454,54.345381 164.63454,164.63454   C 54.345381,164.63454 54.345381,327.67068 164.63454,327.67068   z "
     style="fill:#ffff80;fill-rule:evenodd;fill-opacity:1;stroke:none;" />
  <path
     id="path7"
     d="  M 164.63454,327.67068   C 164.63454,437.95983 327.67068,437.95983 327.67068,327.67068   C 437.95983,327.67068 437.95983,164.63454 327.67068,164.63454   C 327.67068,54.345381 164.63454,54.345381 164.63454,164.63454   C 54.345381,164.63454 54.345381,327.67068 164.63454,327.67068  "
     style="fill:none;stroke:#000000;stroke-width:9.5903616px;stroke-linecap:butt;stroke-linejoin:miter;stroke-miterlimit:10;stroke-dasharray:none;stroke-opacity:1;" />
  <path
     id="path9"
     d="  M 199.63935,214.50441   L 211.74719,214.50441   L 211.74719,309.00943   L 199.15984,309.00943   L 199.63935,214.50441  z    M 215.34357,177.42168   L 205.47349,169.66948   L 245.87289,132.98634   L 285.35321,168.87028   L 276.4022,177.42168   L 245.87289,149.72952   L 215.34357,177.42168  z    M 280.43815,195.32369   L 271.44718,203.91506   L 251.70702,185.97309   L 251.26747,356.28192   L 239.11968,356.28192   L 239.55923,186.37269   L 220.29859,204.31466   L 211.30763,196.16285   L 245.87289,164.39478   L 280.43815,195.32369  z    M 238.68012,241.35743   L 238.68012,229.96887   L 213.10582,229.96887   L 213.10582,241.35743   L 238.68012,241.35743  z    M 238.68012,265.81285   L 238.68012,254.42429   L 213.10582,254.42429   L 213.10582,265.81285   L 238.68012,265.81285  z    M 238.68012,289.86867   L 238.68012,278.44016   L 213.10582,278.44016   L 213.10582,289.86867   L 238.68012,289.86867  z    M 274.12449,241.35743   L 274.12449,229.96887   L 250.78795,230.36847   L 250.78795,241.79698   L 274.12449,241.35743  z    M 275.48313,265.81285   L 275.48313,254.0247   L 250.78795,254.42429   L 250.78795,266.21245   L 275.48313,265.81285  z    M 274.12449,289.86867   L 274.12449,278.44016   L 250.78795,278.83976   L 250.78795,290.26827   L 274.12449,289.86867  z    M 275.48313,214.06486   L 288.51004,214.06486   L 288.51004,308.60983   L 275.48313,308.60983   L 275.48313,214.06486  z   "
     style="fill:#000000;fill-rule:evenodd;fill-opacity:1;stroke:none;" />
</svg>
