<?xml version="1.0" encoding="UTF-8" standalone="no"?>
<svg
   xmlns:dc="http://purl.org/dc/elements/1.1/"
   xmlns:cc="http://creativecommons.org/ns#"
   xmlns:rdf="http://www.w3.org/1999/02/22-rdf-syntax-ns#"
   xmlns:svg="http://www.w3.org/2000/svg"
   xmlns="http://www.w3.org/2000/svg"
   id="svg11"
   height="95.75mm"
   width="95.75mm"
   version="1.0">
  <metadata
     id="metadata15">
    <rdf:RDF>
      <cc:Work
         rdf:about="">
        <dc:format>image/svg+xml</dc:format>
        <dc:type
           rdf:resource="http://purl.org/dc/dcmitype/StillImage" />
      </cc:Work>
    </rdf:RDF>
  </metadata>
  <defs
     id="defs3">
    <pattern
       y="0"
       x="0"
       height="6"
       width="6"
       patternUnits="userSpaceOnUse"
       id="EMFhbasepattern" />
  </defs>
  <path
     id="path5"
     d="  M 54.345381,54.345381   L 54.345381,307.53092   L 307.53092,307.53092   L 307.53092,54.345381   L 54.345381,54.345381   z "
     style="fill:#aaffaa;fill-rule:evenodd;fill-opacity:1;stroke:none;" />
  <path
     id="path7"
     d="  M 54.345381,54.345381   L 307.53092,54.345381   L 307.53092,307.53092   L 54.345381,307.53092   z "
     style="fill:none;stroke:#000000;stroke-width:9.5903616px;stroke-linecap:butt;stroke-linejoin:miter;stroke-miterlimit:10;stroke-dasharray:none;stroke-opacity:1;" />
  <path
     id="path9"
     d="  M 135.86345,169.18996   L 148.33092,169.18996   L 148.33092,235.36345   L 135.86345,235.36345   L 135.86345,169.18996  z    M 152.00723,122.59679   L 142.17711,114.3251   L 182.5765,76.403212   L 221.65723,113.5259   L 212.78614,121.87751   L 182.3767,94.025501   L 152.00723,122.59679  z    M 216.74217,140.01928   L 207.99096,149.25   L 188.09096,130.90843   L 188.09096,285.71285   L 176.38273,285.71285   L 176.38273,130.38895   L 157.32189,148.29096   L 148.09116,140.77851   L 182.5765,108.49096   L 216.74217,140.01928  z    M 176.38273,207.51144   L 176.38273,195.92309   L 149.88936,195.92309   L 149.88936,207.51144   L 176.38273,207.51144  z    M 210.66827,207.51144   L 210.66827,195.92309   L 188.09096,196.32269   L 188.09096,207.951   L 210.66827,207.51144  z    M 210.66827,169.18996   L 223.93494,169.18996   L 223.93494,235.36345   L 210.66827,235.36345   L 210.66827,169.18996  z   "
     style="fill:#000000;fill-rule:evenodd;fill-opacity:1;stroke:none;" />
</svg>
