<?xml version="1.0" encoding="UTF-8" standalone="no"?>
<svg
   xmlns:dc="http://purl.org/dc/elements/1.1/"
   xmlns:cc="http://creativecommons.org/ns#"
   xmlns:rdf="http://www.w3.org/1999/02/22-rdf-syntax-ns#"
   xmlns:svg="http://www.w3.org/2000/svg"
   xmlns="http://www.w3.org/2000/svg"
   id="svg13"
   height="89.669998mm"
   width="120.11mm"
   version="1.0">
  <metadata
     id="metadata17">
    <rdf:RDF>
      <cc:Work
         rdf:about="">
        <dc:format>image/svg+xml</dc:format>
        <dc:type
           rdf:resource="http://purl.org/dc/dcmitype/StillImage" />
      </cc:Work>
    </rdf:RDF>
  </metadata>
  <defs
     id="defs3">
    <pattern
       y="0"
       x="0"
       height="6"
       width="6"
       patternUnits="userSpaceOnUse"
       id="EMFhbasepattern" />
  </defs>
  <path
     id="path5"
     d="  M 54.345381,54.345381   L 54.345381,284.51405   L 399.59839,284.51405   L 399.59839,54.345381   L 54.345381,54.345381   z "
     style="fill:#80e0ff;fill-rule:evenodd;fill-opacity:1;stroke:none;" />
  <path
     id="path7"
     d="  M 54.345381,54.345381   L 399.59839,54.345381   L 399.59839,284.51405   L 54.345381,284.51405   z "
     style="fill:none;stroke:#000000;stroke-width:9.5903616px;stroke-linecap:butt;stroke-linejoin:miter;stroke-miterlimit:10;stroke-dasharray:none;stroke-opacity:1;" />
  <path
     id="path9"
     d="  M 54.345381,54.345381   L 54.345381,54.345381   L 226.97188,188.61044   L 226.97188,150.24899   L 399.59839,284.51405  "
     style="fill:none;stroke:#000000;stroke-width:9.5903616px;stroke-linecap:butt;stroke-linejoin:miter;stroke-miterlimit:10;stroke-dasharray:none;stroke-opacity:1;" />
  <path
     id="path11"
     d="  M 202.11686,124.83454   L 202.11686,89.1504   L 209.22972,89.1504   L 217.66124,114.40502   C 218.46044,116.76265 219.01988,118.52088 219.37951,119.67972   C 219.77911,118.401 220.41847,116.48293 221.25763,113.96546   L 229.80903,89.1504   L 236.16265,89.1504   L 236.16265,124.83454   L 231.60723,124.83454   L 231.60723,94.944577   L 221.25763,124.83454   L 216.98192,124.83454   L 206.67229,94.425099   L 206.67229,124.83454   z  M 242.19658,113.36606   L 246.63212,112.96646   C 246.87188,114.76466 247.3514,116.20321 248.11064,117.36205   C 248.90984,118.52088 250.10863,119.43996 251.70702,120.15924   C 253.34538,120.83855 255.18353,121.19819 257.18152,121.19819   C 258.97972,121.19819 260.57811,120.91847 261.9767,120.39899   C 263.33534,119.87952 264.37429,119.12028 265.05361,118.2012   C 265.73293,117.24217 266.05261,116.24317 266.05261,115.1243   C 266.05261,114.00542 265.73293,113.04638 265.09357,112.20723   C 264.45421,111.36807 263.3753,110.64879 261.85682,110.08936   C 260.89779,109.72972 258.77992,109.13032 255.50321,108.37108   C 252.2265,107.57189 249.94879,106.81265 248.63012,106.13333   C 246.91184,105.25422 245.63313,104.13534 244.79397,102.81667   C 243.99478,101.49799 243.55522,100.01948 243.55522,98.341163   C 243.55522,96.54297 244.0747,94.864657 245.07369,93.306224   C 246.11265,91.74779 247.59116,90.548995 249.58915,89.749798   C 251.54719,88.910641 253.70502,88.511043 256.10261,88.511043   C 258.77992,88.511043 261.09759,88.950601 263.13554,89.789758   C 265.13353,90.668874 266.69196,91.907629 267.77088,93.545983   C 268.88976,95.224296 269.44919,97.102408 269.52911,99.18032   L 265.01365,99.539958   C 264.77389,97.262248 263.93474,95.583934 262.53614,94.425099   C 261.13755,93.266264 259.05963,92.706826 256.30241,92.666866   C 253.46526,92.706826 251.38735,93.226304 250.06867,94.26526   C 248.75,95.304215 248.11064,96.58293 248.11064,98.061444   C 248.11064,99.340159 248.59016,100.37912 249.50923,101.21827   C 250.42831,102.05743 252.78594,102.89658 256.62208,103.73574   C 260.45823,104.61486 263.09558,105.37409 264.53413,106.01345   C 266.61204,106.97249 268.13052,108.21124 269.12951,109.68976   C 270.12851,111.12831 270.60803,112.84658 270.60803,114.76466   C 270.60803,116.64277 270.04859,118.44096 268.96967,120.11928   C 267.89076,121.79759 266.33233,123.11626 264.29437,124.03534   C 262.25642,124.95442 259.97871,125.43393 257.42128,125.43393   C 254.18453,125.43393 251.46727,124.95442 249.30943,124.03534   C 247.11164,123.0763 245.39337,121.67771 244.15461,119.75964   C 242.91586,117.88152 242.2765,115.76365 242.19658,113.36606   z  M 277.16144,124.83454   L 277.16144,89.1504   L 302.9755,89.1504   L 302.9755,93.346183   L 281.8767,93.346183   L 281.8767,104.29518   L 301.61686,104.29518   L 301.61686,108.451   L 281.8767,108.451   L 281.8767,120.59879   L 303.81465,120.59879   L 303.81465,124.83454   z "
     style="fill:#000000;fill-rule:evenodd;fill-opacity:1;stroke:none;" />
</svg>
