<?xml version="1.0" encoding="UTF-8" standalone="no"?>
<svg
   xmlns:dc="http://purl.org/dc/elements/1.1/"
   xmlns:cc="http://creativecommons.org/ns#"
   xmlns:rdf="http://www.w3.org/1999/02/22-rdf-syntax-ns#"
   xmlns:svg="http://www.w3.org/2000/svg"
   xmlns="http://www.w3.org/2000/svg"
   id="svg13"
   height="95.75mm"
   width="95.75mm"
   version="1.0">
  <metadata
     id="metadata17">
    <rdf:RDF>
      <cc:Work
         rdf:about="">
        <dc:format>image/svg+xml</dc:format>
        <dc:type
           rdf:resource="http://purl.org/dc/dcmitype/StillImage" />
      </cc:Work>
    </rdf:RDF>
  </metadata>
  <defs
     id="defs3">
    <pattern
       y="0"
       x="0"
       height="6"
       width="6"
       patternUnits="userSpaceOnUse"
       id="EMFhbasepattern" />
  </defs>
  <path
     id="path5"
     d="  M 54.345381,54.345381   L 54.345381,307.53092   L 307.53092,307.53092   L 307.53092,54.345381   L 54.345381,54.345381   z "
     style="fill:#aaffaa;fill-rule:evenodd;fill-opacity:1;stroke:none;" />
  <path
     id="path7"
     d="  M 54.345381,54.345381   L 307.53092,54.345381   L 307.53092,307.53092   L 54.345381,307.53092   z "
     style="fill:none;stroke:#000000;stroke-width:9.5903616px;stroke-linecap:butt;stroke-linejoin:miter;stroke-miterlimit:10;stroke-dasharray:none;stroke-opacity:1;" />
  <path
     id="path9"
     d="  M 54.345381,54.345381   L 54.345381,54.345381   L 180.93815,200.11887   L 180.93815,161.75743   L 307.53092,307.53092  "
     style="fill:none;stroke:#000000;stroke-width:9.5903616px;stroke-linecap:butt;stroke-linejoin:miter;stroke-miterlimit:10;stroke-dasharray:none;stroke-opacity:1;" />
  <path
     id="path11"
     d="  M 156.08313,136.34297   L 156.08313,100.65883   L 163.19598,100.65883   L 171.62751,125.91345   C 172.4267,128.27108 172.98614,130.02932 173.34578,131.18815   C 173.74538,129.90944 174.38474,127.99136 175.22389,125.47389   L 183.7753,100.65883   L 190.12891,100.65883   L 190.12891,136.34297   L 185.57349,136.34297   L 185.57349,106.45301   L 175.22389,136.34297   L 170.94819,136.34297   L 160.63855,105.93353   L 160.63855,136.34297   z  M 196.16285,124.8745   L 200.59839,124.4749   C 200.83815,126.27309 201.31767,127.71164 202.0769,128.87048   C 202.8761,130.02932 204.0749,130.94839 205.67329,131.66767   C 207.31164,132.34699 209.1498,132.70662 211.14779,132.70662   C 212.94598,132.70662 214.54437,132.42691 215.94297,131.90743   C 217.3016,131.38795 218.34056,130.62871 219.01988,129.70964   C 219.69919,128.7506 220.01887,127.7516 220.01887,126.63273   C 220.01887,125.51385 219.69919,124.55482 219.05984,123.71566   C 218.42048,122.8765 217.34156,122.15723 215.82309,121.59779   C 214.86405,121.23815 212.74618,120.63875 209.46947,119.87952   C 206.19277,119.08032 203.91506,118.32108 202.59638,117.64177   C 200.87811,116.76265 199.59939,115.64377 198.76024,114.3251   C 197.96104,113.00642 197.52148,111.52791 197.52148,109.8496   C 197.52148,108.0514 198.04096,106.37309 199.03996,104.81466   C 200.07891,103.25622 201.55743,102.05743 203.55542,101.25823   C 205.51345,100.41907 207.67128,100.01948 210.06887,100.01948   C 212.74618,100.01948 215.06385,100.45903 217.1018,101.29819   C 219.0998,102.17731 220.65823,103.41606 221.73715,105.05442   C 222.85602,106.73273 223.41546,108.61084 223.49538,110.68875   L 218.97992,111.04839   C 218.74016,108.77068 217.901,107.09237 216.50241,105.93353   C 215.10381,104.7747 213.0259,104.21526 210.26867,104.1753   C 207.43152,104.21526 205.35361,104.73474 204.03494,105.77369   C 202.71626,106.81265 202.0769,108.09136 202.0769,109.56988   C 202.0769,110.84859 202.55642,111.88755 203.4755,112.72671   C 204.39458,113.56586 206.75221,114.40502 210.58835,115.24418   C 214.42449,116.12329 217.06184,116.88253 218.5004,117.52189   C 220.57831,118.48092 222.09678,119.71968 223.09578,121.19819   C 224.09478,122.63675 224.57429,124.35502 224.57429,126.27309   C 224.57429,128.1512 224.01486,129.9494 222.93594,131.62771   C 221.85702,133.30602 220.29859,134.6247 218.26064,135.54377   C 216.22269,136.46285 213.94498,136.94237 211.38755,136.94237   C 208.1508,136.94237 205.43353,136.46285 203.2757,135.54377   C 201.07791,134.58474 199.35964,133.18614 198.12088,131.26807   C 196.88213,129.38996 196.24277,127.27209 196.16285,124.8745   z  M 231.12771,136.34297   L 231.12771,100.65883   L 256.94176,100.65883   L 256.94176,104.85462   L 235.84297,104.85462   L 235.84297,115.80361   L 255.58313,115.80361   L 255.58313,119.95944   L 235.84297,119.95944   L 235.84297,132.10723   L 257.78092,132.10723   L 257.78092,136.34297   z "
     style="fill:#000000;fill-rule:evenodd;fill-opacity:1;stroke:none;" />
</svg>
