<?xml version="1.0" encoding="UTF-8" standalone="no"?>
<svg
   xmlns:dc="http://purl.org/dc/elements/1.1/"
   xmlns:cc="http://creativecommons.org/ns#"
   xmlns:rdf="http://www.w3.org/1999/02/22-rdf-syntax-ns#"
   xmlns:svg="http://www.w3.org/2000/svg"
   xmlns="http://www.w3.org/2000/svg"
   id="svg11"
   height="101.85mm"
   width="101.85mm"
   version="1.0">
  <metadata
     id="metadata15">
    <rdf:RDF>
      <cc:Work
         rdf:about="">
        <dc:format>image/svg+xml</dc:format>
        <dc:type
           rdf:resource="http://purl.org/dc/dcmitype/StillImage" />
      </cc:Work>
    </rdf:RDF>
  </metadata>
  <defs
     id="defs3">
    <pattern
       y="0"
       x="0"
       height="6"
       width="6"
       patternUnits="userSpaceOnUse"
       id="EMFhbasepattern" />
  </defs>
  <path
     id="path5"
     d="  M 330.54779,192.44658   C 330.54779,268.72992 268.72992,330.54779 192.44658,330.54779   C 116.20321,330.54779 54.345381,268.72992 54.345381,192.44658   C 54.345381,116.20321 116.20321,54.345381 192.44658,54.345381   C 268.72992,54.345381 330.54779,116.20321 330.54779,192.44658   z "
     style="fill:#80e0ff;fill-rule:evenodd;fill-opacity:1;stroke:none;" />
  <path
     id="path7"
     d="  M 330.54779,192.44658   C 330.54779,268.72992 268.72992,330.54779 192.44658,330.54779   C 116.20321,330.54779 54.345381,268.72992 54.345381,192.44658   C 54.345381,116.20321 116.20321,54.345381 192.44658,54.345381   C 268.72992,54.345381 330.54779,116.20321 330.54779,192.44658  "
     style="fill:none;stroke:#000000;stroke-width:9.5903616px;stroke-linecap:butt;stroke-linejoin:miter;stroke-miterlimit:10;stroke-dasharray:none;stroke-opacity:1;" />
  <path
     id="path9"
     d="  M 145.93333,160.79839   L 158.04116,160.79839   L 158.04116,255.30341   L 145.45381,255.30341   L 145.93333,160.79839  z    M 161.63755,123.71566   L 151.76747,115.96345   L 192.16686,79.28032   L 231.64719,115.16426   L 222.69618,123.71566   L 192.16686,96.023493   L 161.63755,123.71566  z    M 226.73213,141.61767   L 217.74116,150.20903   L 198.001,132.26707   L 197.56144,302.5759   L 185.41365,302.5759   L 185.85321,132.66666   L 166.59257,150.60863   L 157.6016,142.45683   L 192.16686,110.68875   L 226.73213,141.61767  z    M 184.97409,187.6514   L 184.97409,176.26285   L 159.3998,176.26285   L 159.3998,187.6514   L 184.97409,187.6514  z    M 184.97409,212.10682   L 184.97409,200.71827   L 159.3998,200.71827   L 159.3998,212.10682   L 184.97409,212.10682  z    M 184.97409,236.16265   L 184.97409,224.73413   L 159.3998,224.73413   L 159.3998,236.16265   L 184.97409,236.16265  z    M 220.41847,187.6514   L 220.41847,176.26285   L 197.08192,176.66245   L 197.08192,188.09096   L 220.41847,187.6514  z    M 221.77711,212.10682   L 221.77711,200.31867   L 197.08192,200.71827   L 197.08192,212.50642   L 221.77711,212.10682  z    M 220.41847,236.16265   L 220.41847,224.73413   L 197.08192,225.13373   L 197.08192,236.56225   L 220.41847,236.16265  z    M 221.77711,160.35883   L 234.80401,160.35883   L 234.80401,254.90381   L 221.77711,254.90381   L 221.77711,160.35883  z   "
     style="fill:#000000;fill-rule:evenodd;fill-opacity:1;stroke:none;" />
</svg>
