<?xml version="1.0" encoding="UTF-8" standalone="no"?>
<svg
   xmlns:dc="http://purl.org/dc/elements/1.1/"
   xmlns:cc="http://creativecommons.org/ns#"
   xmlns:rdf="http://www.w3.org/1999/02/22-rdf-syntax-ns#"
   xmlns:svg="http://www.w3.org/2000/svg"
   xmlns="http://www.w3.org/2000/svg"
   id="svg11"
   height="101.85mm"
   width="101.85mm"
   version="1.0">
  <metadata
     id="metadata15">
    <rdf:RDF>
      <cc:Work
         rdf:about="">
        <dc:format>image/svg+xml</dc:format>
        <dc:type
           rdf:resource="http://purl.org/dc/dcmitype/StillImage" />
      </cc:Work>
    </rdf:RDF>
  </metadata>
  <defs
     id="defs3">
    <pattern
       y="0"
       x="0"
       height="6"
       width="6"
       patternUnits="userSpaceOnUse"
       id="EMFhbasepattern" />
  </defs>
  <path
     id="path5"
     d="  M 330.54779,192.44658   C 330.54779,268.72992 268.72992,330.54779 192.44658,330.54779   C 116.20321,330.54779 54.345381,268.72992 54.345381,192.44658   C 54.345381,116.20321 116.20321,54.345381 192.44658,54.345381   C 268.72992,54.345381 330.54779,116.20321 330.54779,192.44658   z "
     style="fill:#80e0ff;fill-rule:evenodd;fill-opacity:1;stroke:none;" />
  <path
     id="path7"
     d="  M 330.54779,192.44658   C 330.54779,268.72992 268.72992,330.54779 192.44658,330.54779   C 116.20321,330.54779 54.345381,268.72992 54.345381,192.44658   C 54.345381,116.20321 116.20321,54.345381 192.44658,54.345381   C 268.72992,54.345381 330.54779,116.20321 330.54779,192.44658  "
     style="fill:none;stroke:#000000;stroke-width:9.5903616px;stroke-linecap:butt;stroke-linejoin:miter;stroke-miterlimit:10;stroke-dasharray:none;stroke-opacity:1;" />
  <path
     id="path9"
     d="  M 147.37189,180.69839   L 159.83936,180.69839   L 159.83936,246.87188   L 147.37189,246.87188   L 147.37189,180.69839  z    M 163.51566,134.10522   L 153.68554,125.83353   L 194.08494,87.911645   L 233.16566,125.03434   L 224.29458,133.38594   L 193.88514,105.53393   L 163.51566,134.10522  z    M 228.2506,151.52771   L 219.49939,160.75843   L 199.59939,142.41687   L 199.59939,297.22128   L 187.89116,297.22128   L 187.89116,141.89739   L 168.83032,159.7994   L 159.5996,152.28695   L 194.08494,119.9994   L 228.2506,151.52771  z    M 187.89116,219.01988   L 187.89116,207.43152   L 161.39779,207.43152   L 161.39779,219.01988   L 187.89116,219.01988  z    M 222.1767,219.01988   L 222.1767,207.43152   L 199.59939,207.83112   L 199.59939,219.45943   L 222.1767,219.01988  z    M 222.1767,180.69839   L 235.44337,180.69839   L 235.44337,246.87188   L 222.1767,246.87188   L 222.1767,180.69839  z   "
     style="fill:#000000;fill-rule:evenodd;fill-opacity:1;stroke:none;" />
</svg>
