<?xml version="1.0" encoding="UTF-8" standalone="no"?>
<svg
   xmlns:dc="http://purl.org/dc/elements/1.1/"
   xmlns:cc="http://creativecommons.org/ns#"
   xmlns:rdf="http://www.w3.org/1999/02/22-rdf-syntax-ns#"
   xmlns:svg="http://www.w3.org/2000/svg"
   xmlns="http://www.w3.org/2000/svg"
   id="svg7"
   height="59.209999mm"
   width="23.860001mm"
   version="1.0">
  <metadata
     id="metadata11">
    <rdf:RDF>
      <cc:Work
         rdf:about="">
        <dc:format>image/svg+xml</dc:format>
        <dc:type
           rdf:resource="http://purl.org/dc/dcmitype/StillImage" />
      </cc:Work>
    </rdf:RDF>
  </metadata>
  <defs
     id="defs3">
    <pattern
       y="0"
       x="0"
       height="6"
       width="6"
       patternUnits="userSpaceOnUse"
       id="EMFhbasepattern" />
  </defs>
  <path
     id="path5"
     d="  M 0.79919678,81.518071   L 12.907028,81.518071   L 12.907028,176.02309   L 0.31967871,176.02309   L 0.79919678,81.518071  z    M 16.503413,44.435341   L 6.6333332,36.683132   L 47.03273,0   L 86.513051,35.883935   L 77.562047,44.435341   L 47.03273,16.743172   L 16.503413,44.435341  z    M 81.597991,62.337348   L 72.607027,70.928714   L 52.866867,52.986746   L 52.427308,223.29558   L 40.279517,223.29558   L 40.719076,53.386345   L 21.458433,71.328312   L 12.46747,63.176505   L 47.03273,31.408433   L 81.597991,62.337348  z    M 39.839959,108.37108   L 39.839959,96.982529   L 14.265662,96.982529   L 14.265662,108.37108   L 39.839959,108.37108  z    M 39.839959,132.8265   L 39.839959,121.43795   L 14.265662,121.43795   L 14.265662,132.8265   L 39.839959,132.8265  z    M 39.839959,156.88233   L 39.839959,145.45381   L 14.265662,145.45381   L 14.265662,156.88233   L 39.839959,156.88233  z    M 75.284336,108.37108   L 75.284336,96.982529   L 51.94779,97.382127   L 51.94779,108.81064   L 75.284336,108.37108  z    M 76.642971,132.8265   L 76.642971,121.03835   L 51.94779,121.43795   L 51.94779,133.2261   L 76.642971,132.8265  z    M 75.284336,156.88233   L 75.284336,145.45381   L 51.94779,145.85341   L 51.94779,157.28193   L 75.284336,156.88233  z    M 76.642971,81.078513   L 89.669878,81.078513   L 89.669878,175.62349   L 76.642971,175.62349   L 76.642971,81.078513  z   "
     style="fill:#ff8080;fill-rule:evenodd;fill-opacity:1;stroke:none;" />
</svg>
