<?xml version="1.0" encoding="UTF-8" standalone="no"?>
<svg
   xmlns:dc="http://purl.org/dc/elements/1.1/"
   xmlns:cc="http://creativecommons.org/ns#"
   xmlns:rdf="http://www.w3.org/1999/02/22-rdf-syntax-ns#"
   xmlns:svg="http://www.w3.org/2000/svg"
   xmlns="http://www.w3.org/2000/svg"
   id="svg11"
   height="116.73mm"
   width="116.73mm"
   version="1.0">
  <metadata
     id="metadata15">
    <rdf:RDF>
      <cc:Work
         rdf:about="">
        <dc:format>image/svg+xml</dc:format>
        <dc:type
           rdf:resource="http://purl.org/dc/dcmitype/StillImage" />
      </cc:Work>
    </rdf:RDF>
  </metadata>
  <defs
     id="defs3">
    <pattern
       y="0"
       x="0"
       height="6"
       width="6"
       patternUnits="userSpaceOnUse"
       id="EMFhbasepattern" />
  </defs>
  <path
     id="path5"
     d="  M 220.57831,386.49156   L 220.57831,386.49156   L 386.49156,220.57831   L 220.57831,54.665059   L 54.665059,220.57831   L 220.57831,386.49156   z "
     style="fill:#ff8080;fill-rule:evenodd;fill-opacity:1;stroke:none;" />
  <path
     id="path7"
     d="  M 220.57831,386.49156   L 220.57831,386.49156   L 386.49156,220.57831   L 220.57831,54.665059   L 54.665059,220.57831   L 220.57831,386.49156  "
     style="fill:none;stroke:#000000;stroke-width:9.5903616px;stroke-linecap:butt;stroke-linejoin:miter;stroke-miterlimit:10;stroke-dasharray:none;stroke-opacity:1;" />
  <path
     id="path9"
     d="  M 174.06506,188.93012   L 186.17289,188.93012   L 186.17289,283.43514   L 173.58554,283.43514   L 174.06506,188.93012  z    M 189.76927,151.84739   L 179.89919,144.09518   L 220.29859,107.41205   L 259.77891,143.29598   L 250.82791,151.84739   L 220.29859,124.15522   L 189.76927,151.84739  z    M 254.86385,169.7494   L 245.87289,178.34076   L 226.13273,160.39879   L 225.69317,330.70763   L 213.54538,330.70763   L 213.98494,160.79839   L 194.72429,178.74036   L 185.73333,170.58855   L 220.29859,138.82048   L 254.86385,169.7494  z    M 213.10582,215.78313   L 213.10582,204.39458   L 187.53152,204.39458   L 187.53152,215.78313   L 213.10582,215.78313  z    M 213.10582,240.23855   L 213.10582,228.85   L 187.53152,228.85   L 187.53152,240.23855   L 213.10582,240.23855  z    M 213.10582,264.29437   L 213.10582,252.86586   L 187.53152,252.86586   L 187.53152,264.29437   L 213.10582,264.29437  z    M 248.5502,215.78313   L 248.5502,204.39458   L 225.21365,204.79417   L 225.21365,216.22269   L 248.5502,215.78313  z    M 249.90883,240.23855   L 249.90883,228.4504   L 225.21365,228.85   L 225.21365,240.63815   L 249.90883,240.23855  z    M 248.5502,264.29437   L 248.5502,252.86586   L 225.21365,253.26546   L 225.21365,264.69397   L 248.5502,264.29437  z    M 249.90883,188.49056   L 262.93574,188.49056   L 262.93574,283.03554   L 249.90883,283.03554   L 249.90883,188.49056  z   "
     style="fill:#000000;fill-rule:evenodd;fill-opacity:1;stroke:none;" />
</svg>
