<?xml version="1.0" encoding="UTF-8" standalone="no"?>
<svg
   xmlns:dc="http://purl.org/dc/elements/1.1/"
   xmlns:cc="http://creativecommons.org/ns#"
   xmlns:rdf="http://www.w3.org/1999/02/22-rdf-syntax-ns#"
   xmlns:svg="http://www.w3.org/2000/svg"
   xmlns="http://www.w3.org/2000/svg"
   id="svg11"
   height="116.73mm"
   width="116.73mm"
   version="1.0">
  <metadata
     id="metadata15">
    <rdf:RDF>
      <cc:Work
         rdf:about="">
        <dc:format>image/svg+xml</dc:format>
        <dc:type
           rdf:resource="http://purl.org/dc/dcmitype/StillImage" />
      </cc:Work>
    </rdf:RDF>
  </metadata>
  <defs
     id="defs3">
    <pattern
       y="0"
       x="0"
       height="6"
       width="6"
       patternUnits="userSpaceOnUse"
       id="EMFhbasepattern" />
  </defs>
  <path
     id="path5"
     d="  M 220.57831,386.49156   L 220.57831,386.49156   L 386.49156,220.57831   L 220.57831,54.665059   L 54.665059,220.57831   L 220.57831,386.49156   z "
     style="fill:#ff8080;fill-rule:evenodd;fill-opacity:1;stroke:none;" />
  <path
     id="path7"
     d="  M 220.57831,386.49156   L 220.57831,386.49156   L 386.49156,220.57831   L 220.57831,54.665059   L 54.665059,220.57831   L 220.57831,386.49156  "
     style="fill:none;stroke:#000000;stroke-width:9.5903616px;stroke-linecap:butt;stroke-linejoin:miter;stroke-miterlimit:10;stroke-dasharray:none;stroke-opacity:1;" />
  <path
     id="path9"
     d="  M 173.58554,195.84317   L 186.05301,195.84317   L 186.05301,265.17349   L 173.58554,265.17349   L 173.58554,195.84317  z    M 189.72931,152.40683   L 179.89919,144.69458   L 220.29859,107.41205   L 259.05963,143.21606   L 250.50823,152.12711   L 220.09879,124.71466   L 189.72931,152.40683  z    M 254.66405,170.18895   L 246.47229,178.74036   L 225.81305,160.23895   L 225.81305,330.94738   L 214.10482,330.94738   L 214.10482,160.51867   L 194.88413,179.25984   L 185.81325,171.10803   L 220.29859,139.41988   L 254.66405,170.18895  z    M 214.10482,224.13474   L 214.10482,213.14578   L 187.61144,213.14578   L 187.61144,224.13474   L 214.10482,224.13474  z    M 214.10482,248.5502   L 214.10482,236.88192   L 187.61144,236.88192   L 187.61144,248.5502   L 214.10482,248.5502  z    M 249.94879,224.13474   L 249.94879,212.70622   L 225.81305,213.10582   L 225.81305,224.13474   L 249.94879,224.13474   L 249.94879,224.13474  z    M 249.18955,248.5502   L 249.18955,236.88192   L 225.81305,236.88192   L 225.81305,248.98976   L 249.18955,248.5502  z    M 249.94879,195.84317   L 263.21546,195.84317   L 263.21546,265.17349   L 249.94879,265.17349   L 249.94879,195.84317  z   "
     style="fill:#000000;fill-rule:evenodd;fill-opacity:1;stroke:none;" />
</svg>
