<?xml version="1.0" encoding="UTF-8" standalone="no"?>
<svg
   xmlns:dc="http://purl.org/dc/elements/1.1/"
   xmlns:cc="http://creativecommons.org/ns#"
   xmlns:rdf="http://www.w3.org/1999/02/22-rdf-syntax-ns#"
   xmlns:svg="http://www.w3.org/2000/svg"
   xmlns="http://www.w3.org/2000/svg"
   id="svg7"
   height="55.32mm"
   width="23.190001mm"
   version="1.0">
  <metadata
     id="metadata11">
    <rdf:RDF>
      <cc:Work
         rdf:about="">
        <dc:format>image/svg+xml</dc:format>
        <dc:type
           rdf:resource="http://purl.org/dc/dcmitype/StillImage" />
      </cc:Work>
    </rdf:RDF>
  </metadata>
  <defs
     id="defs3">
    <pattern
       y="0"
       x="0"
       height="6"
       width="6"
       patternUnits="userSpaceOnUse"
       id="EMFhbasepattern" />
  </defs>
  <path
     id="path5"
     d="  M 0.31967871,96.70281   L 12.787148,96.70281   L 12.787148,162.8763   L 0.31967871,162.8763   L 0.31967871,96.70281  z    M 14.665261,45.833935   L 5.7142569,37.961847   L 45.674096,0.31967871   L 84.594979,36.603212   L 76.043573,45.714056   L 45.594176,17.662249   L 14.665261,45.833935  z    M 80.399196,64.175501   L 71.608031,72.367268   L 50.988754,54.345381   L 50.988754,208.91004   L 39.280522,208.91004   L 39.280522,55.624096   L 20.699196,72.127509   L 11.188755,64.41526   L 45.674096,32.16767   L 80.399196,64.175501  z    M 74.36526,96.70281   L 87.591967,96.70281   L 87.591967,162.8763   L 74.36526,162.8763   L 74.36526,96.70281  z   "
     style="fill:#ff8080;fill-rule:evenodd;fill-opacity:1;stroke:none;" />
</svg>
