<?xml version="1.0" encoding="UTF-8" standalone="no"?>
<svg
   xmlns:dc="http://purl.org/dc/elements/1.1/"
   xmlns:cc="http://creativecommons.org/ns#"
   xmlns:rdf="http://www.w3.org/1999/02/22-rdf-syntax-ns#"
   xmlns:svg="http://www.w3.org/2000/svg"
   xmlns="http://www.w3.org/2000/svg"
   id="svg11"
   height="130.27mm"
   width="130.27mm"
   version="1.0">
  <metadata
     id="metadata15">
    <rdf:RDF>
      <cc:Work
         rdf:about="">
        <dc:format>image/svg+xml</dc:format>
        <dc:type
           rdf:resource="http://purl.org/dc/dcmitype/StillImage" />
      </cc:Work>
    </rdf:RDF>
  </metadata>
  <defs
     id="defs3">
    <pattern
       y="0"
       x="0"
       height="6"
       width="6"
       patternUnits="userSpaceOnUse"
       id="EMFhbasepattern" />
  </defs>
  <path
     id="path5"
     d="  M 164.63454,327.67068   C 164.63454,437.95983 327.67068,437.95983 327.67068,327.67068   C 437.95983,327.67068 437.95983,164.63454 327.67068,164.63454   C 327.67068,54.345381 164.63454,54.345381 164.63454,164.63454   C 54.345381,164.63454 54.345381,327.67068 164.63454,327.67068   z "
     style="fill:#ffff80;fill-rule:evenodd;fill-opacity:1;stroke:none;" />
  <path
     id="path7"
     d="  M 164.63454,327.67068   C 164.63454,437.95983 327.67068,437.95983 327.67068,327.67068   C 437.95983,327.67068 437.95983,164.63454 327.67068,164.63454   C 327.67068,54.345381 164.63454,54.345381 164.63454,164.63454   C 54.345381,164.63454 54.345381,327.67068 164.63454,327.67068  "
     style="fill:none;stroke:#000000;stroke-width:9.5903616px;stroke-linecap:butt;stroke-linejoin:miter;stroke-miterlimit:10;stroke-dasharray:none;stroke-opacity:1;" />
  <path
     id="path9"
     d="  M 199.15984,221.41747   L 211.62731,221.41747   L 211.62731,290.74779   L 199.15984,290.74779   L 199.15984,221.41747  z    M 215.30361,177.98112   L 205.47349,170.26887   L 245.87289,132.98634   L 284.63393,168.79036   L 276.08253,177.7014   L 245.67309,150.28895   L 215.30361,177.98112  z    M 280.23835,195.76325   L 272.04658,204.31466   L 251.38735,185.81325   L 251.38735,356.52168   L 239.67911,356.52168   L 239.67911,186.09297   L 220.45843,204.83413   L 211.38755,196.68233   L 245.87289,164.99417   L 280.23835,195.76325  z    M 239.67911,249.70903   L 239.67911,238.72008   L 213.18574,238.72008   L 213.18574,249.70903   L 239.67911,249.70903  z    M 239.67911,274.12449   L 239.67911,262.45622   L 213.18574,262.45622   L 213.18574,274.12449   L 239.67911,274.12449  z    M 275.52309,249.70903   L 275.52309,238.28052   L 251.38735,238.68012   L 251.38735,249.70903   L 275.52309,249.70903   L 275.52309,249.70903  z    M 274.76385,274.12449   L 274.76385,262.45622   L 251.38735,262.45622   L 251.38735,274.56405   L 274.76385,274.12449  z    M 275.52309,221.41747   L 288.78975,221.41747   L 288.78975,290.74779   L 275.52309,290.74779   L 275.52309,221.41747  z   "
     style="fill:#000000;fill-rule:evenodd;fill-opacity:1;stroke:none;" />
</svg>
