<?xml version="1.0" encoding="UTF-8" standalone="no"?>
<svg
   xmlns:dc="http://purl.org/dc/elements/1.1/"
   xmlns:cc="http://creativecommons.org/ns#"
   xmlns:rdf="http://www.w3.org/1999/02/22-rdf-syntax-ns#"
   xmlns:svg="http://www.w3.org/2000/svg"
   xmlns="http://www.w3.org/2000/svg"
   id="svg13"
   height="116.73mm"
   width="116.73mm"
   version="1.0">
  <metadata
     id="metadata17">
    <rdf:RDF>
      <cc:Work
         rdf:about="">
        <dc:format>image/svg+xml</dc:format>
        <dc:type
           rdf:resource="http://purl.org/dc/dcmitype/StillImage" />
      </cc:Work>
    </rdf:RDF>
  </metadata>
  <defs
     id="defs3">
    <pattern
       y="0"
       x="0"
       height="6"
       width="6"
       patternUnits="userSpaceOnUse"
       id="EMFhbasepattern" />
  </defs>
  <path
     id="path5"
     d="  M 220.57831,386.49156   L 220.57831,386.49156   L 386.49156,220.57831   L 220.57831,54.665059   L 54.665059,220.57831   L 220.57831,386.49156   z "
     style="fill:#ff8080;fill-rule:evenodd;fill-opacity:1;stroke:none;" />
  <path
     id="path7"
     d="  M 220.57831,386.49156   L 220.57831,386.49156   L 386.49156,220.57831   L 220.57831,54.665059   L 54.665059,220.57831   L 220.57831,386.49156  "
     style="fill:none;stroke:#000000;stroke-width:9.5903616px;stroke-linecap:butt;stroke-linejoin:miter;stroke-miterlimit:10;stroke-dasharray:none;stroke-opacity:1;" />
  <path
     id="path9"
     d="  M 120.83855,153.44578   L 120.83855,153.44578   L 220.57831,239.75903   L 220.57831,201.39759   L 320.31807,287.71084  "
     style="fill:none;stroke:#000000;stroke-width:9.5903616px;stroke-linecap:butt;stroke-linejoin:miter;stroke-miterlimit:10;stroke-dasharray:none;stroke-opacity:1;" />
  <path
     id="path11"
     d="  M 195.72329,175.98313   L 195.72329,140.29899   L 202.83614,140.29899   L 211.26767,165.55361   C 212.06686,167.91124 212.6263,169.66948 212.98594,170.82831   C 213.38554,169.5496 214.0249,167.63152 214.86405,165.11405   L 223.41546,140.29899   L 229.76907,140.29899   L 229.76907,175.98313   L 225.21365,175.98313   L 225.21365,146.09317   L 214.86405,175.98313   L 210.58835,175.98313   L 200.27871,145.57369   L 200.27871,175.98313   z  M 235.80301,164.51466   L 240.23855,164.11506   C 240.47831,165.91325 240.95783,167.3518 241.71706,168.51064   C 242.51626,169.66948 243.71506,170.58855 245.31345,171.30783   C 246.9518,171.98715 248.78996,172.34678 250.78795,172.34678   C 252.58614,172.34678 254.18453,172.06707 255.58313,171.54759   C 256.94176,171.02811 257.98072,170.26887 258.66004,169.3498   C 259.33935,168.39076 259.65903,167.39176 259.65903,166.27289   C 259.65903,165.15401 259.33935,164.19498 258.7,163.35582   C 258.06064,162.51666 256.98172,161.79739 255.46325,161.23795   C 254.50421,160.87831 252.38634,160.27891 249.10963,159.51968   C 245.83293,158.72048 243.55522,157.96124 242.23654,157.28193   C 240.51827,156.40281 239.23955,155.28393 238.4004,153.96526   C 237.6012,152.64658 237.16164,151.16807 237.16164,149.48976   C 237.16164,147.69156 237.68112,146.01325 238.68012,144.45482   C 239.71907,142.89638 241.19759,141.69759 243.19558,140.89839   C 245.15361,140.05923 247.31144,139.65964 249.70903,139.65964   C 252.38634,139.65964 254.70401,140.09919 256.74196,140.93835   C 258.73996,141.81747 260.29839,143.05622 261.37731,144.69458   C 262.49618,146.37289 263.05562,148.251 263.13554,150.32891   L 258.62008,150.68855   C 258.38032,148.41084 257.54116,146.73253 256.14257,145.57369   C 254.74397,144.41486 252.66606,143.85542 249.90883,143.81546   C 247.07168,143.85542 244.99377,144.3749 243.6751,145.41385   C 242.35642,146.45281 241.71706,147.73152 241.71706,149.21004   C 241.71706,150.48875 242.19658,151.52771 243.11566,152.36687   C 244.03474,153.20602 246.39237,154.04518 250.22851,154.88434   C 254.06465,155.76345 256.702,156.52269 258.14056,157.16205   C 260.21847,158.12108 261.73694,159.35984 262.73594,160.83835   C 263.73494,162.27691 264.21445,163.99518 264.21445,165.91325   C 264.21445,167.79136 263.65502,169.58956 262.5761,171.26787   C 261.49718,172.94618 259.93875,174.26486 257.9008,175.18393   C 255.86285,176.10301 253.58514,176.58253 251.02771,176.58253   C 247.79096,176.58253 245.07369,176.10301 242.91586,175.18393   C 240.71807,174.2249 238.9998,172.8263 237.76104,170.90823   C 236.52229,169.03012 235.88293,166.91225 235.80301,164.51466   z  M 270.76787,175.98313   L 270.76787,140.29899   L 296.58192,140.29899   L 296.58192,144.49478   L 275.48313,144.49478   L 275.48313,155.44377   L 295.22329,155.44377   L 295.22329,159.5996   L 275.48313,159.5996   L 275.48313,171.74739   L 297.42108,171.74739   L 297.42108,175.98313   z "
     style="fill:#000000;fill-rule:evenodd;fill-opacity:1;stroke:none;" />
</svg>
