<?xml version="1.0" encoding="UTF-8" standalone="no"?>
<svg
   xmlns:dc="http://purl.org/dc/elements/1.1/"
   xmlns:cc="http://creativecommons.org/ns#"
   xmlns:rdf="http://www.w3.org/1999/02/22-rdf-syntax-ns#"
   xmlns:svg="http://www.w3.org/2000/svg"
   xmlns="http://www.w3.org/2000/svg"
   id="svg19"
   height="95.75mm"
   width="95.75mm"
   version="1.0">
  <metadata
     id="metadata23">
    <rdf:RDF>
      <cc:Work
         rdf:about="">
        <dc:format>image/svg+xml</dc:format>
        <dc:type
           rdf:resource="http://purl.org/dc/dcmitype/StillImage" />
      </cc:Work>
    </rdf:RDF>
  </metadata>
  <defs
     id="defs3">
    <pattern
       y="0"
       x="0"
       height="6"
       width="6"
       patternUnits="userSpaceOnUse"
       id="EMFhbasepattern" />
  </defs>
  <path
     id="path5"
     d="  M 54.345381,54.345381   L 54.345381,307.53092   L 307.53092,307.53092   L 307.53092,54.345381   L 54.345381,54.345381   z "
     style="fill:#aaffaa;fill-rule:evenodd;fill-opacity:1;stroke:none;" />
  <path
     id="path7"
     d="  M 54.345381,54.345381   L 307.53092,54.345381   L 307.53092,307.53092   L 54.345381,307.53092   z "
     style="fill:none;stroke:#000000;stroke-width:9.5903616px;stroke-linecap:butt;stroke-linejoin:miter;stroke-miterlimit:10;stroke-dasharray:none;stroke-opacity:1;" />
  <path
     id="path9"
     d="  M 54.345381,54.345381   L 307.53092,307.53092  "
     style="fill:none;stroke:#000000;stroke-width:9.5903616px;stroke-linecap:butt;stroke-linejoin:miter;stroke-miterlimit:10;stroke-dasharray:none;stroke-opacity:1;" />
  <path
     id="path11"
     d="  M 200.11887,161.75743   C 200.11887,172.38674 191.56747,180.93815 180.93815,180.93815   C 170.34879,180.93815 161.75743,172.38674 161.75743,161.75743   C 161.75743,151.16807 170.34879,142.5767 180.93815,142.5767   C 191.56747,142.5767 200.11887,151.16807 200.11887,161.75743  "
     style="fill:none;stroke:#000000;stroke-width:9.5903616px;stroke-linecap:butt;stroke-linejoin:miter;stroke-miterlimit:10;stroke-dasharray:none;stroke-opacity:1;" />
  <path
     id="path13"
     d="  M 180.93815,180.93815   L 180.93815,286.43212  "
     style="fill:none;stroke:#000000;stroke-width:9.5903616px;stroke-linecap:butt;stroke-linejoin:miter;stroke-miterlimit:10;stroke-dasharray:none;stroke-opacity:1;" />
  <path
     id="path15"
     d="  M 152.16707,209.70923   L 209.70923,209.70923  "
     style="fill:none;stroke:#000000;stroke-width:9.5903616px;stroke-linecap:butt;stroke-linejoin:miter;stroke-miterlimit:10;stroke-dasharray:none;stroke-opacity:1;" />
  <path
     id="path17"
     d="  M 141.45783,127.11225   L 141.45783,82.477107   L 150.36887,82.477107   L 160.91827,114.08534   C 161.87731,117.00241 162.59658,119.2002 163.03614,120.67871   C 163.55562,119.04036 164.35482,116.68273 165.43373,113.5259   L 176.10301,82.477107   L 184.05502,82.477107   L 184.05502,127.11225   L 178.34076,127.11225   L 178.34076,89.749798   L 165.39377,127.11225   L 160.07911,127.11225   L 147.17209,89.11044   L 147.17209,127.11225   z  M 222.85602,82.477107   L 228.77008,82.477107   L 228.77008,108.2512   C 228.77008,112.72671 228.2506,116.32309 227.2516,118.96044   C 226.21265,121.59779 224.41445,123.71566 221.73715,125.39397   C 219.0998,127.03233 215.62329,127.87148 211.30763,127.87148   C 207.1518,127.87148 203.71526,127.15221 201.07791,125.71365   C 198.4006,124.2751 196.52249,122.15723 195.36365,119.43996   C 194.24478,116.72269 193.68534,113.00642 193.68534,108.2512   L 193.68534,82.477107   L 199.55943,82.477107   L 199.55943,108.21124   C 199.55943,112.08735 199.91907,114.96446 200.63835,116.80261   C 201.35763,118.64076 202.59638,120.03936 204.35462,121.03835   C 206.11285,122.03735 208.27068,122.51687 210.78815,122.51687   C 215.14377,122.51687 218.26064,121.55783 220.09879,119.5998   C 221.93694,117.60181 222.85602,113.84558 222.85602,108.21124   z "
     style="fill:#000000;fill-rule:evenodd;fill-opacity:1;stroke:none;" />
</svg>
