<?xml version="1.0" encoding="UTF-8" standalone="no"?>
<svg
   xmlns:dc="http://purl.org/dc/elements/1.1/"
   xmlns:cc="http://creativecommons.org/ns#"
   xmlns:rdf="http://www.w3.org/1999/02/22-rdf-syntax-ns#"
   xmlns:svg="http://www.w3.org/2000/svg"
   xmlns="http://www.w3.org/2000/svg"
   id="svg15"
   height="112.9mm"
   width="112.9mm"
   version="1.0">
  <metadata
     id="metadata19">
    <rdf:RDF>
      <cc:Work
         rdf:about="">
        <dc:format>image/svg+xml</dc:format>
        <dc:type
           rdf:resource="http://purl.org/dc/dcmitype/StillImage" />
      </cc:Work>
    </rdf:RDF>
  </metadata>
  <defs
     id="defs3">
    <pattern
       y="0"
       x="0"
       height="6"
       width="6"
       patternUnits="userSpaceOnUse"
       id="EMFhbasepattern" />
  </defs>
  <path
     id="path5"
     d="  M 1981.4187,2162.1957   C 1981.4187,2284.5225 2162.1957,2284.5225 2162.1957,2162.1957   C 2284.5225,2162.1957 2284.5225,1981.4187 2162.1957,1981.4187   C 2162.1957,1859.0919 1981.4187,1859.0919 1981.4187,1981.4187   C 1859.0919,1981.4187 1859.0919,2162.1957 1981.4187,2162.1957   z "
     style="fill:#ffff80;fill-rule:nonzero;fill-opacity:1;stroke:#000000;stroke-width:10.627287px;stroke-linecap:butt;stroke-linejoin:miter;stroke-miterlimit:282;stroke-dasharray:none;stroke-opacity:1;" />
  <path
     id="path7"
     d="  M 1984.5089,2098.1681   L 1984.5089,2045.1824   L 2000.5252,2045.1824   L 2010.135,2081.3604   L 2019.6317,2045.1824   L 2035.6857,2045.1824   L 2035.6857,2098.1681   L 2025.7745,2098.1681   L 2025.7745,2056.4881   L 2015.2225,2098.1681   L 2004.9344,2098.1681   L 1994.4579,2056.4881   L 1994.4579,2098.1681   z "
     style="fill:#000000;fill-rule:nonzero;fill-opacity:1;stroke:none;" />
  <path
     id="path9"
     d="  M 2053.9255,2098.1681   L 2041.2632,2045.1824   L 2052.2296,2045.1824   L 2060.2189,2081.5866   L 2069.9041,2045.1824   L 2082.6041,2045.1824   L 2091.9124,2082.2272   L 2100.0524,2045.1824   L 2110.7927,2045.1824   L 2097.942,2098.1681   L 2086.5987,2098.1681   L 2076.0468,2058.5608   L 2065.5326,2098.1681   z "
     style="fill:#000000;fill-rule:nonzero;fill-opacity:1;stroke:none;" />
  <path
     id="path11"
     d="  M 2116.2571,2098.1681   L 2116.2571,2045.1824   L 2138.793,2045.1824   C 2144.4458,2045.1824 2148.5535,2045.6724 2151.1161,2046.6145   C 2153.6787,2047.5943 2155.7514,2049.2525 2157.2965,2051.702   C 2158.8416,2054.1516 2159.5954,2056.9026 2159.5954,2060.0682   C 2159.5954,2064.0251 2158.4271,2067.3038 2156.0906,2069.9041   C 2153.7541,2072.5044 2150.2494,2074.1248 2145.6141,2074.8032   C 2147.9129,2076.1599 2149.8348,2077.6296 2151.3423,2079.2501   C 2152.8497,2080.8705 2154.8847,2083.7346 2157.4473,2087.8423   L 2163.8915,2098.1681   L 2151.1161,2098.1681   L 2143.3529,2086.6741   C 2140.6396,2082.5287 2138.7553,2079.9284 2137.7378,2078.8732   C 2136.7203,2077.7803 2135.6651,2077.0643 2134.5346,2076.6498   C 2133.3663,2076.2729 2131.5951,2076.0468 2129.1455,2076.0468   L 2126.9598,2076.0468   L 2126.9598,2098.1681   z  M 2126.9598,2067.6053   L 2134.8737,2067.6053   C 2139.9989,2067.6053 2143.2022,2067.3792 2144.4835,2066.9646   C 2145.7648,2066.5124 2146.7823,2065.7587 2147.4983,2064.7035   C 2148.2144,2063.6483 2148.5912,2062.3293 2148.5912,2060.7465   C 2148.5912,2058.9753 2148.1013,2057.5056 2147.1592,2056.4127   C 2146.1794,2055.3198 2144.8604,2054.6415 2143.1268,2054.34   C 2142.2601,2054.2269 2139.6598,2054.1516 2135.326,2054.1516   L 2126.9598,2054.1516   z "
     style="fill:#000000;fill-rule:nonzero;fill-opacity:1;stroke:none;" />
  <path
     id="path13"
     d="  M 2231.3484,2007.9869   L 2188.8016,2071.826   L 2231.3484,2135.6274  "
     style="fill:none;stroke:#000000;stroke-width:10.627287px;stroke-linecap:butt;stroke-linejoin:miter;stroke-miterlimit:282;stroke-dasharray:none;stroke-opacity:1;" />
</svg>
