<?xml version="1.0" encoding="UTF-8" standalone="no"?>
<svg
   xmlns:dc="http://purl.org/dc/elements/1.1/"
   xmlns:cc="http://creativecommons.org/ns#"
   xmlns:rdf="http://www.w3.org/1999/02/22-rdf-syntax-ns#"
   xmlns:svg="http://www.w3.org/2000/svg"
   xmlns="http://www.w3.org/2000/svg"
   id="svg17"
   height="112.9mm"
   width="112.9mm"
   version="1.0">
  <metadata
     id="metadata21">
    <rdf:RDF>
      <cc:Work
         rdf:about="">
        <dc:format>image/svg+xml</dc:format>
        <dc:type
           rdf:resource="http://purl.org/dc/dcmitype/StillImage" />
      </cc:Work>
    </rdf:RDF>
  </metadata>
  <defs
     id="defs3">
    <pattern
       y="0"
       x="0"
       height="6"
       width="6"
       patternUnits="userSpaceOnUse"
       id="EMFhbasepattern" />
  </defs>
  <path
     id="path5"
     d="  M 1859.0082,1858.8327   L 2241.892,1858.8327   L 2241.892,2114.076   L 1859.0082,2114.076   z "
     style="fill:#80e0ff;fill-rule:nonzero;fill-opacity:1;stroke:#000000;stroke-width:10.627287px;stroke-linecap:butt;stroke-linejoin:miter;stroke-miterlimit:282;stroke-dasharray:none;stroke-opacity:1;" />
  <path
     id="path7"
     d="  M 1963.1707,2012.8153   L 1963.1707,1959.8296   L 1979.187,1959.8296   L 1988.7968,1996.0076   L 1998.2935,1959.8296   L 2014.3475,1959.8296   L 2014.3475,2012.8153   L 2004.4362,2012.8153   L 2004.4362,1971.1352   L 1993.8843,2012.8153   L 1983.5962,2012.8153   L 1973.1197,1971.1352   L 1973.1197,2012.8153   z "
     style="fill:#000000;fill-rule:nonzero;fill-opacity:1;stroke:none;" />
  <path
     id="path9"
     d="  M 2032.5872,2012.8153   L 2019.9249,1959.8296   L 2030.8914,1959.8296   L 2038.8807,1996.2337   L 2048.5659,1959.8296   L 2061.2658,1959.8296   L 2070.5741,1996.8743   L 2078.7142,1959.8296   L 2089.4545,1959.8296   L 2076.6038,2012.8153   L 2065.2605,2012.8153   L 2054.7086,1973.2079   L 2044.1944,2012.8153   z "
     style="fill:#000000;fill-rule:nonzero;fill-opacity:1;stroke:none;" />
  <path
     id="path11"
     d="  M 2094.9189,2012.8153   L 2094.9189,1959.8296   L 2117.4548,1959.8296   C 2123.1076,1959.8296 2127.2153,1960.3195 2129.7779,1961.2616   C 2132.3405,1962.2415 2134.4132,1963.8996 2135.9583,1966.3492   C 2137.5034,1968.7987 2138.2571,1971.5498 2138.2571,1974.7153   C 2138.2571,1978.6723 2137.0889,1981.9509 2134.7524,1984.5512   C 2132.4159,1987.1515 2128.9112,1988.772 2124.2759,1989.4503   C 2126.5747,1990.807 2128.4966,1992.2767 2130.004,1993.8972   C 2131.5115,1995.5177 2133.5465,1998.3818 2136.1091,2002.4895   L 2142.5533,2012.8153   L 2129.7779,2012.8153   L 2122.0147,2001.3212   C 2119.3014,1997.1758 2117.4171,1994.5755 2116.3996,1993.5203   C 2115.3821,1992.4275 2114.3269,1991.7114 2113.1963,1991.2969   C 2112.0281,1990.9201 2110.2569,1990.6939 2107.8073,1990.6939   L 2105.6216,1990.6939   L 2105.6216,2012.8153   z  M 2105.6216,1982.2524   L 2113.5355,1982.2524   C 2118.6607,1982.2524 2121.864,1982.0263 2123.1453,1981.6118   C 2124.4266,1981.1595 2125.4441,1980.4058 2126.1601,1979.3506   C 2126.8761,1978.2954 2127.253,1976.9764 2127.253,1975.3937   C 2127.253,1973.6224 2126.7631,1972.1527 2125.821,1971.0598   C 2124.8411,1969.967 2123.5221,1969.2886 2121.7886,1968.9871   C 2120.9219,1968.8741 2118.3216,1968.7987 2113.9877,1968.7987   L 2105.6216,1968.7987   z "
     style="fill:#000000;fill-rule:nonzero;fill-opacity:1;stroke:none;" />
  <path
     id="path13"
     d="  M 1859.0082,1858.8327   L 1912.22,1986.4732   L 1859.0082,2114.076  "
     style="fill:none;stroke:#000000;stroke-width:10.627287px;stroke-linecap:butt;stroke-linejoin:miter;stroke-miterlimit:282;stroke-dasharray:none;stroke-opacity:1;" />
  <path
     id="path15"
     d="  M 2241.892,1858.8327   L 2188.7179,1986.4732   L 2241.892,2114.076  "
     style="fill:none;stroke:#000000;stroke-width:10.627287px;stroke-linecap:butt;stroke-linejoin:miter;stroke-miterlimit:282;stroke-dasharray:none;stroke-opacity:1;" />
</svg>
