<?xml version="1.0" encoding="UTF-8" standalone="no"?>
<svg
   xmlns:dc="http://purl.org/dc/elements/1.1/"
   xmlns:cc="http://creativecommons.org/ns#"
   xmlns:rdf="http://www.w3.org/1999/02/22-rdf-syntax-ns#"
   xmlns:svg="http://www.w3.org/2000/svg"
   xmlns="http://www.w3.org/2000/svg"
   id="svg13"
   height="112.9mm"
   width="112.9mm"
   version="1.0">
  <metadata
     id="metadata17">
    <rdf:RDF>
      <cc:Work
         rdf:about="">
        <dc:format>image/svg+xml</dc:format>
        <dc:type
           rdf:resource="http://purl.org/dc/dcmitype/StillImage" />
      </cc:Work>
    </rdf:RDF>
  </metadata>
  <defs
     id="defs3">
    <pattern
       y="0"
       x="0"
       height="6"
       width="6"
       patternUnits="userSpaceOnUse"
       id="EMFhbasepattern" />
  </defs>
  <path
     id="path5"
     d="  M 1859.3937,1859.3937   L 2140.1877,1859.3937   L 2140.1877,2140.1877   L 1859.3937,2140.1877   z "
     style="fill:#aaffaa;fill-rule:nonzero;fill-opacity:1;stroke:#000000;stroke-width:10.627287px;stroke-linecap:butt;stroke-linejoin:miter;stroke-miterlimit:282;stroke-dasharray:none;stroke-opacity:1;" />
  <path
     id="path7"
     d="  M 1890.6726,2032.7466   L 1890.6726,1966.5333   L 1910.6836,1966.5333   L 1922.7052,2011.7181   L 1934.5761,1966.5333   L 1954.6624,1966.5333   L 1954.6624,2032.7466   L 1942.2262,2032.7466   L 1942.2262,1980.6277   L 1929.074,2032.7466   L 1916.1856,2032.7466   L 1903.1088,1980.6277   L 1903.1088,2032.7466   z "
     style="fill:#000000;fill-rule:nonzero;fill-opacity:1;stroke:none;" />
  <path
     id="path9"
     d="  M 1977.4244,2032.7466   L 1961.5965,1966.5333   L 1975.314,1966.5333   L 1985.3007,2012.0196   L 1997.3977,1966.5333   L 2013.3009,1966.5333   L 2024.908,2012.811   L 2035.0831,1966.5333   L 2048.5368,1966.5333   L 2032.4451,2032.7466   L 2018.2754,2032.7466   L 2005.0855,1983.228   L 1991.9333,2032.7466   z "
     style="fill:#000000;fill-rule:nonzero;fill-opacity:1;stroke:none;" />
  <path
     id="path11"
     d="  M 2055.3579,2032.7466   L 2055.3579,1966.5333   L 2083.5089,1966.5333   C 2090.5937,1966.5333 2095.7189,1967.1363 2098.9222,1968.3046   C 2102.1631,1969.5105 2104.7257,1971.6209 2106.6477,1974.6734   C 2108.5697,1977.6882 2109.5495,1981.193 2109.5495,1985.1122   C 2109.5495,1990.049 2108.0798,1994.1567 2105.1403,1997.3977   C 2102.2385,2000.6386 2097.867,2002.6736 2092.0635,2003.5404   C 2094.9275,2005.2363 2097.3394,2007.0828 2099.2237,2009.0802   C 2101.1079,2011.1152 2103.6329,2014.6953 2106.8361,2019.8582   L 2114.9008,2032.7466   L 2098.9222,2032.7466   L 2089.237,2018.3508   C 2085.8077,2013.1879 2083.4712,2009.9469 2082.1899,2008.6279   C 2080.9463,2007.2713 2079.5896,2006.3668 2078.1952,2005.8769   C 2076.7632,2005.3493 2074.502,2005.1232 2071.4495,2005.1232   L 2068.7362,2005.1232   L 2068.7362,2032.7466   z  M 2068.7362,1994.5336   L 2078.6474,1994.5336   C 2085.054,1994.5336 2089.0486,1994.2698 2090.6314,1993.7422   C 2092.2519,1993.1769 2093.4955,1992.2348 2094.3999,1990.9158   C 2095.3044,1989.5968 2095.7566,1987.9387 2095.7566,1985.9413   C 2095.7566,1983.7179 2095.1537,1981.909 2093.9854,1980.5523   C 2092.7795,1979.1956 2091.0836,1978.3289 2088.9356,1977.952   C 2087.8427,1977.8013 2084.6017,1977.7259 2079.175,1977.7259   L 2068.7362,1977.7259   z "
     style="fill:#000000;fill-rule:nonzero;fill-opacity:1;stroke:none;" />
</svg>
