<?xml version="1.0" encoding="UTF-8" standalone="no"?>
<svg
   xmlns:dc="http://purl.org/dc/elements/1.1/"
   xmlns:cc="http://creativecommons.org/ns#"
   xmlns:rdf="http://www.w3.org/1999/02/22-rdf-syntax-ns#"
   xmlns:svg="http://www.w3.org/2000/svg"
   xmlns="http://www.w3.org/2000/svg"
   id="svg13"
   height="112.9mm"
   width="112.9mm"
   version="1.0">
  <metadata
     id="metadata17">
    <rdf:RDF>
      <cc:Work
         rdf:about="">
        <dc:format>image/svg+xml</dc:format>
        <dc:type
           rdf:resource="http://purl.org/dc/dcmitype/StillImage" />
      </cc:Work>
    </rdf:RDF>
  </metadata>
  <defs
     id="defs3">
    <pattern
       y="0"
       x="0"
       height="6"
       width="6"
       patternUnits="userSpaceOnUse"
       id="EMFhbasepattern" />
  </defs>
  <path
     id="path5"
     d="  M 2959.9915,3144.0094   L 3144.0094,2960.0292   L 2959.9915,2776.0113   L 2776.0113,2960.0292   L 2959.9915,3144.0094   z "
     style="fill:#ff8080;fill-rule:nonzero;fill-opacity:1;stroke:#000000;stroke-width:10.627287px;stroke-linecap:square;stroke-linejoin:miter;stroke-miterlimit:282;stroke-dasharray:none;stroke-opacity:1;" />
  <path
     id="path7"
     d="  M 2850.8922,2992.9662   L 2850.8922,2926.753   L 2870.9032,2926.753   L 2882.9248,2971.9378   L 2894.7957,2926.753   L 2914.882,2926.753   L 2914.882,2992.9662   L 2902.4459,2992.9662   L 2902.4459,2940.8473   L 2889.2937,2992.9662   L 2876.4052,2992.9662   L 2863.3284,2940.8473   L 2863.3284,2992.9662   z "
     style="fill:#000000;fill-rule:nonzero;fill-opacity:1;stroke:none;" />
  <path
     id="path9"
     d="  M 2937.644,2992.9662   L 2921.8162,2926.753   L 2935.5337,2926.753   L 2945.5203,2972.2392   L 2957.6173,2926.753   L 2973.5206,2926.753   L 2985.1277,2973.0306   L 2995.3027,2926.753   L 3008.7564,2926.753   L 2992.6647,2992.9662   L 2978.495,2992.9662   L 2965.3051,2943.4476   L 2952.1529,2992.9662   z "
     style="fill:#000000;fill-rule:nonzero;fill-opacity:1;stroke:none;" />
  <path
     id="path11"
     d="  M 3015.5775,2992.9662   L 3015.5775,2926.753   L 3043.7285,2926.753   C 3050.8133,2926.753 3055.9386,2927.3559 3059.1418,2928.5242   C 3062.3828,2929.7301 3064.9454,2931.8405 3066.8673,2934.893   C 3068.7893,2937.9078 3069.7691,2941.4126 3069.7691,2945.3319   C 3069.7691,2950.2687 3068.2994,2954.3764 3065.3599,2957.6173   C 3062.4581,2960.8583 3058.0866,2962.8933 3052.2831,2963.76   C 3055.1472,2965.4559 3057.559,2967.3025 3059.4433,2969.2998   C 3061.3276,2971.3348 3063.8525,2974.9149 3067.0557,2980.0778   L 3075.1204,2992.9662   L 3059.1418,2992.9662   L 3049.4567,2978.5704   C 3046.0273,2973.4075 3043.6908,2970.1666 3042.4095,2968.8476   C 3041.1659,2967.4909 3039.8092,2966.5864 3038.4148,2966.0965   C 3036.9828,2965.5689 3034.7217,2965.3428 3031.6691,2965.3428   L 3028.9558,2965.3428   L 3028.9558,2992.9662   z  M 3028.9558,2954.7532   L 3038.8671,2954.7532   C 3045.2736,2954.7532 3049.2682,2954.4894 3050.851,2953.9618   C 3052.4715,2953.3965 3053.7151,2952.4544 3054.6196,2951.1354   C 3055.524,2949.8164 3055.9762,2948.1583 3055.9762,2946.1609   C 3055.9762,2943.9375 3055.3733,2942.1286 3054.205,2940.7719   C 3052.9991,2939.4153 3051.3032,2938.5485 3049.1552,2938.1716   C 3048.0623,2938.0209 3044.8214,2937.9455 3039.3947,2937.9455   L 3028.9558,2937.9455   z "
     style="fill:#000000;fill-rule:nonzero;fill-opacity:1;stroke:none;" />
</svg>
