<?xml version="1.0" encoding="UTF-8" standalone="no"?>
<svg
   xmlns:dc="http://purl.org/dc/elements/1.1/"
   xmlns:cc="http://creativecommons.org/ns#"
   xmlns:rdf="http://www.w3.org/1999/02/22-rdf-syntax-ns#"
   xmlns:svg="http://www.w3.org/2000/svg"
   xmlns="http://www.w3.org/2000/svg"
   id="svg13"
   height="112.9mm"
   width="112.9mm"
   version="1.0">
  <metadata
     id="metadata17">
    <rdf:RDF>
      <cc:Work
         rdf:about="">
        <dc:format>image/svg+xml</dc:format>
        <dc:type
           rdf:resource="http://purl.org/dc/dcmitype/StillImage" />
      </cc:Work>
    </rdf:RDF>
  </metadata>
  <defs
     id="defs3">
    <pattern
       y="0"
       x="0"
       height="6"
       width="6"
       patternUnits="userSpaceOnUse"
       id="EMFhbasepattern" />
  </defs>
  <path
     id="path5"
     d="  M 1859.0082,1858.8327   L 2241.892,1858.8327   L 2241.892,2114.076   L 1859.0082,2114.076   z "
     style="fill:#80e0ff;fill-rule:nonzero;fill-opacity:1;stroke:#000000;stroke-width:10.627287px;stroke-linecap:butt;stroke-linejoin:miter;stroke-miterlimit:282;stroke-dasharray:none;stroke-opacity:1;" />
  <path
     id="path7"
     d="  M 1941.3509,2019.4102   L 1941.3509,1953.197   L 1961.3618,1953.197   L 1973.3835,1998.3818   L 1985.2544,1953.197   L 2005.3407,1953.197   L 2005.3407,2019.4102   L 1992.9045,2019.4102   L 1992.9045,1967.2913   L 1979.7523,2019.4102   L 1966.8639,2019.4102   L 1953.787,1967.2913   L 1953.787,2019.4102   z "
     style="fill:#000000;fill-rule:nonzero;fill-opacity:1;stroke:none;" />
  <path
     id="path9"
     d="  M 2028.1027,2019.4102   L 2012.2748,1953.197   L 2025.9923,1953.197   L 2035.9789,1998.6832   L 2048.0759,1953.197   L 2063.9792,1953.197   L 2075.5863,1999.4746   L 2085.7614,1953.197   L 2099.2151,1953.197   L 2083.1234,2019.4102   L 2068.9537,2019.4102   L 2055.7638,1969.8916   L 2042.6116,2019.4102   z "
     style="fill:#000000;fill-rule:nonzero;fill-opacity:1;stroke:none;" />
  <path
     id="path11"
     d="  M 2106.0361,2019.4102   L 2106.0361,1953.197   L 2134.1871,1953.197   C 2141.272,1953.197 2146.3972,1953.7999 2149.6005,1954.9682   C 2152.8414,1956.1741 2155.404,1958.2845 2157.326,1961.337   C 2159.2479,1964.3518 2160.2277,1967.8566 2160.2277,1971.7759   C 2160.2277,1976.7127 2158.758,1980.8204 2155.8185,1984.0613   C 2152.9168,1987.3023 2148.5453,1989.3373 2142.7417,1990.204   C 2145.6058,1991.8999 2148.0177,1993.7465 2149.9019,1995.7438   C 2151.7862,1997.7788 2154.3111,2001.3589 2157.5144,2006.5218   L 2165.5791,2019.4102   L 2149.6005,2019.4102   L 2139.9153,2005.0144   C 2136.4859,1999.8515 2134.1494,1996.6106 2132.8681,1995.2916   C 2131.6245,1993.9349 2130.2678,1993.0304 2128.8735,1992.5405   C 2127.4414,1992.0129 2125.1803,1991.7868 2122.1278,1991.7868   L 2119.4144,1991.7868   L 2119.4144,2019.4102   z  M 2119.4144,1981.1972   L 2129.3257,1981.1972   C 2135.7322,1981.1972 2139.7269,1980.9334 2141.3097,1980.4058   C 2142.9301,1979.8405 2144.1738,1978.8984 2145.0782,1977.5794   C 2145.9827,1976.2604 2146.4349,1974.6023 2146.4349,1972.6049   C 2146.4349,1970.3815 2145.8319,1968.5726 2144.6637,1967.2159   C 2143.4577,1965.8593 2141.7619,1964.9925 2139.6138,1964.6156   C 2138.5209,1964.4649 2135.28,1964.3895 2129.8533,1964.3895   L 2119.4144,1964.3895   z "
     style="fill:#000000;fill-rule:nonzero;fill-opacity:1;stroke:none;" />
</svg>
