<?xml version="1.0" encoding="UTF-8" standalone="no"?>
<svg
   xmlns:dc="http://purl.org/dc/elements/1.1/"
   xmlns:cc="http://creativecommons.org/ns#"
   xmlns:rdf="http://www.w3.org/1999/02/22-rdf-syntax-ns#"
   xmlns:svg="http://www.w3.org/2000/svg"
   xmlns="http://www.w3.org/2000/svg"
   id="svg13"
   height="112.9mm"
   width="112.9mm"
   version="1.0">
  <metadata
     id="metadata17">
    <rdf:RDF>
      <cc:Work
         rdf:about="">
        <dc:format>image/svg+xml</dc:format>
        <dc:type
           rdf:resource="http://purl.org/dc/dcmitype/StillImage" />
      </cc:Work>
    </rdf:RDF>
  </metadata>
  <defs
     id="defs3">
    <pattern
       y="0"
       x="0"
       height="6"
       width="6"
       patternUnits="userSpaceOnUse"
       id="EMFhbasepattern" />
  </defs>
  <path
     id="path5"
     d="  M 1981.4187,2162.1957   C 1981.4187,2284.5225 2162.1957,2284.5225 2162.1957,2162.1957   C 2284.5225,2162.1957 2284.5225,1981.4187 2162.1957,1981.4187   C 2162.1957,1859.0919 1981.4187,1859.0919 1981.4187,1981.4187   C 1859.0919,1981.4187 1859.0919,2162.1957 1981.4187,2162.1957   z "
     style="fill:#ffff80;fill-rule:nonzero;fill-opacity:1;stroke:#000000;stroke-width:10.627287px;stroke-linecap:butt;stroke-linejoin:miter;stroke-miterlimit:282;stroke-dasharray:none;stroke-opacity:1;" />
  <path
     id="path7"
     d="  M 1962.6891,2104.7631   L 1962.6891,2038.5498   L 1982.7,2038.5498   L 1994.7217,2083.7346   L 2006.5926,2038.5498   L 2026.6789,2038.5498   L 2026.6789,2104.7631   L 2014.2427,2104.7631   L 2014.2427,2052.6442   L 2001.0905,2104.7631   L 1988.2021,2104.7631   L 1975.1253,2052.6442   L 1975.1253,2104.7631   z "
     style="fill:#000000;fill-rule:nonzero;fill-opacity:1;stroke:none;" />
  <path
     id="path9"
     d="  M 2049.4409,2104.7631   L 2033.613,2038.5498   L 2047.3305,2038.5498   L 2057.3171,2084.0361   L 2069.4142,2038.5498   L 2085.3174,2038.5498   L 2096.9245,2084.8275   L 2107.0996,2038.5498   L 2120.5533,2038.5498   L 2104.4616,2104.7631   L 2090.2919,2104.7631   L 2077.102,2055.2444   L 2063.9498,2104.7631   z "
     style="fill:#000000;fill-rule:nonzero;fill-opacity:1;stroke:none;" />
  <path
     id="path11"
     d="  M 2127.3743,2104.7631   L 2127.3743,2038.5498   L 2155.5253,2038.5498   C 2162.6102,2038.5498 2167.7354,2039.1528 2170.9387,2040.321   C 2174.1796,2041.527 2176.7422,2043.6373 2178.6642,2046.6899   C 2180.5861,2049.7047 2181.566,2053.2094 2181.566,2057.1287   C 2181.566,2062.0655 2180.0962,2066.1732 2177.1568,2069.4142   C 2174.255,2072.6551 2169.8835,2074.6901 2164.0799,2075.5569   C 2166.944,2077.2527 2169.3559,2079.0993 2171.2402,2081.0966   C 2173.1244,2083.1317 2175.6493,2086.7118 2178.8526,2091.8747   L 2186.9173,2104.7631   L 2170.9387,2104.7631   L 2161.2535,2090.3673   C 2157.8241,2085.2044 2155.4876,2081.9634 2154.2063,2080.6444   C 2152.9627,2079.2877 2151.606,2078.3833 2150.2117,2077.8934   C 2148.7796,2077.3658 2146.5185,2077.1397 2143.466,2077.1397   L 2140.7527,2077.1397   L 2140.7527,2104.7631   z  M 2140.7527,2066.5501   L 2150.6639,2066.5501   C 2157.0704,2066.5501 2161.0651,2066.2863 2162.6479,2065.7587   C 2164.2683,2065.1934 2165.512,2064.2513 2166.4164,2062.9323   C 2167.3209,2061.6133 2167.7731,2059.9551 2167.7731,2057.9578   C 2167.7731,2055.7344 2167.1701,2053.9255 2166.0019,2052.5688   C 2164.7959,2051.2121 2163.1001,2050.3453 2160.952,2049.9685   C 2159.8592,2049.8177 2156.6182,2049.7424 2151.1915,2049.7424   L 2140.7527,2049.7424   z "
     style="fill:#000000;fill-rule:nonzero;fill-opacity:1;stroke:none;" />
</svg>
