<?xml version="1.0" encoding="UTF-8" standalone="no"?>
<svg
   xmlns:dc="http://purl.org/dc/elements/1.1/"
   xmlns:cc="http://creativecommons.org/ns#"
   xmlns:rdf="http://www.w3.org/1999/02/22-rdf-syntax-ns#"
   xmlns:svg="http://www.w3.org/2000/svg"
   xmlns="http://www.w3.org/2000/svg"
   id="svg15"
   height="112.9mm"
   width="112.9mm"
   version="1.0">
  <metadata
     id="metadata19">
    <rdf:RDF>
      <cc:Work
         rdf:about="">
        <dc:format>image/svg+xml</dc:format>
        <dc:type
           rdf:resource="http://purl.org/dc/dcmitype/StillImage" />
      </cc:Work>
    </rdf:RDF>
  </metadata>
  <defs
     id="defs3">
    <pattern
       y="0"
       x="0"
       height="6"
       width="6"
       patternUnits="userSpaceOnUse"
       id="EMFhbasepattern" />
  </defs>
  <path
     id="path5"
     d="  M 1859.3937,1859.3937   L 2140.1877,1859.3937   L 2140.1877,2140.1877   L 1859.3937,2140.1877   z "
     style="fill:#aaffaa;fill-rule:nonzero;fill-opacity:1;stroke:#000000;stroke-width:10.627287px;stroke-linecap:butt;stroke-linejoin:miter;stroke-miterlimit:282;stroke-dasharray:none;stroke-opacity:1;" />
  <path
     id="path7"
     d="  M 1912.4925,2026.1517   L 1912.4925,1973.166   L 1928.5088,1973.166   L 1938.1185,2009.344   L 1947.6153,1973.166   L 1963.6692,1973.166   L 1963.6692,2026.1517   L 1953.758,2026.1517   L 1953.758,1984.4716   L 1943.2061,2026.1517   L 1932.9179,2026.1517   L 1922.4414,1984.4716   L 1922.4414,2026.1517   z "
     style="fill:#000000;fill-rule:nonzero;fill-opacity:1;stroke:none;" />
  <path
     id="path9"
     d="  M 1981.909,2026.1517   L 1969.2467,1973.166   L 1980.2131,1973.166   L 1988.2025,2009.5701   L 1997.8876,1973.166   L 2010.5876,1973.166   L 2019.8959,2010.2107   L 2028.0359,1973.166   L 2038.7763,1973.166   L 2025.9255,2026.1517   L 2014.5822,2026.1517   L 2004.0303,1986.5443   L 1993.5161,2026.1517   z "
     style="fill:#000000;fill-rule:nonzero;fill-opacity:1;stroke:none;" />
  <path
     id="path11"
     d="  M 2044.2407,2026.1517   L 2044.2407,1973.166   L 2066.7765,1973.166   C 2072.4293,1973.166 2076.5371,1973.6559 2079.0997,1974.598   C 2081.6623,1975.5778 2083.735,1977.236 2085.2801,1979.6855   C 2086.8252,1982.1351 2087.5789,1984.8861 2087.5789,1988.0517   C 2087.5789,1992.0087 2086.4106,1995.2873 2084.0741,1997.8876   C 2081.7376,2000.4879 2078.2329,2002.1084 2073.5976,2002.7867   C 2075.8964,2004.1434 2077.8184,2005.6131 2079.3258,2007.2336   C 2080.8332,2008.8541 2082.8682,2011.7181 2085.4308,2015.8259   L 2091.875,2026.1517   L 2079.0997,2026.1517   L 2071.3365,2014.6576   C 2068.6231,2010.5122 2066.7389,2007.9119 2065.7213,2006.8567   C 2064.7038,2005.7639 2063.6486,2005.0478 2062.5181,2004.6333   C 2061.3498,2004.2564 2059.5786,2004.0303 2057.1291,2004.0303   L 2054.9433,2004.0303   L 2054.9433,2026.1517   z  M 2054.9433,1995.5888   L 2062.8573,1995.5888   C 2067.9825,1995.5888 2071.1857,1995.3627 2072.467,1994.9481   C 2073.7483,1994.4959 2074.7658,1993.7422 2075.4819,1992.687   C 2076.1979,1991.6318 2076.5747,1990.3128 2076.5747,1988.73   C 2076.5747,1986.9588 2076.0848,1985.4891 2075.1427,1984.3962   C 2074.1629,1983.3033 2072.8439,1982.625 2071.1104,1982.3235   C 2070.2436,1982.2105 2067.6433,1982.1351 2063.3095,1982.1351   L 2054.9433,1982.1351   z "
     style="fill:#000000;fill-rule:nonzero;fill-opacity:1;stroke:none;" />
  <path
     id="path13"
     d="  M 2140.1877,1859.3937   L 2100.8442,1999.8096   L 2140.1877,2140.1877  "
     style="fill:none;stroke:#000000;stroke-width:10.627287px;stroke-linecap:butt;stroke-linejoin:miter;stroke-miterlimit:282;stroke-dasharray:none;stroke-opacity:1;" />
</svg>
