<?xml version="1.0" encoding="UTF-8" standalone="no"?>
<svg
   xmlns:dc="http://purl.org/dc/elements/1.1/"
   xmlns:cc="http://creativecommons.org/ns#"
   xmlns:rdf="http://www.w3.org/1999/02/22-rdf-syntax-ns#"
   xmlns:svg="http://www.w3.org/2000/svg"
   xmlns="http://www.w3.org/2000/svg"
   id="svg17"
   height="130.27mm"
   width="130.27mm"
   version="1.0">
  <metadata
     id="metadata21">
    <rdf:RDF>
      <cc:Work
         rdf:about="">
        <dc:format>image/svg+xml</dc:format>
        <dc:type
           rdf:resource="http://purl.org/dc/dcmitype/StillImage" />
      </cc:Work>
    </rdf:RDF>
  </metadata>
  <defs
     id="defs3">
    <pattern
       y="0"
       x="0"
       height="6"
       width="6"
       patternUnits="userSpaceOnUse"
       id="EMFhbasepattern" />
  </defs>
  <path
     id="path5"
     d="  M 198.2008,63.935742   L 198.2008,111.88755   L 294.10441,111.88755   L 294.10441,63.935742   L 198.2008,63.935742   z "
     style="fill:#000000;fill-rule:evenodd;fill-opacity:1;stroke:none;" />
  <path
     id="path7"
     d="  M 164.63454,327.67068   C 164.63454,437.95983 327.67068,437.95983 327.67068,327.67068   C 437.95983,327.67068 437.95983,164.63454 327.67068,164.63454   C 327.67068,54.345381 164.63454,54.345381 164.63454,164.63454   C 54.345381,164.63454 54.345381,327.67068 164.63454,327.67068   z "
     style="fill:#ffff80;fill-rule:evenodd;fill-opacity:1;stroke:none;" />
  <path
     id="path9"
     d="  M 164.63454,327.67068   C 164.63454,437.95983 327.67068,437.95983 327.67068,327.67068   C 437.95983,327.67068 437.95983,164.63454 327.67068,164.63454   C 327.67068,54.345381 164.63454,54.345381 164.63454,164.63454   C 54.345381,164.63454 54.345381,327.67068 164.63454,327.67068  "
     style="fill:none;stroke:#000000;stroke-width:9.5903616px;stroke-linecap:butt;stroke-linejoin:miter;stroke-miterlimit:10;stroke-dasharray:none;stroke-opacity:1;" />
  <path
     id="path11"
     d="  M 246.15261,346.8514   C 236.56225,346.8514 217.38152,342.05622 217.38152,337.26104   L 217.38152,303.69477   C 121.47791,265.33333 169.42972,145.45381 246.15261,150.24899  "
     style="fill:none;stroke:#000000;stroke-width:9.5903616px;stroke-linecap:butt;stroke-linejoin:miter;stroke-miterlimit:10;stroke-dasharray:none;stroke-opacity:1;" />
  <path
     id="path13"
     d="  M 241.35743,346.8514   C 250.94779,346.8514 270.12851,342.05622 270.12851,337.26104   L 270.12851,303.69477   C 366.03212,265.33333 318.08032,145.45381 241.35743,150.24899  "
     style="fill:none;stroke:#000000;stroke-width:9.5903616px;stroke-linecap:butt;stroke-linejoin:miter;stroke-miterlimit:10;stroke-dasharray:none;stroke-opacity:1;" />
  <path
     id="path15"
     d="  M 194.24478,257.18152   L 194.24478,195.40361   L 202.63634,195.40361   L 235.08373,243.91486   L 235.08373,195.40361   L 242.91586,195.40361   L 242.91586,257.18152   L 234.52429,257.18152   L 202.0769,208.63032   L 202.0769,257.18152   z  M 285.59297,232.9259   L 285.59297,225.69317   L 311.7267,225.65321   L 311.7267,248.59016   C 307.73072,251.78694 303.5749,254.18453 299.29919,255.82289   C 295.02349,257.42128 290.66787,258.22048 286.15241,258.22048   C 280.07851,258.22048 274.56405,256.94176 269.60903,254.34437   C 264.65401,251.74698 260.93775,247.99076 258.38032,243.0757   C 255.86285,238.16064 254.58413,232.64618 254.58413,226.57229   C 254.58413,220.57831 255.86285,214.94397 258.38032,209.74919   C 260.89779,204.51445 264.49417,200.67831 269.20943,198.12088   C 273.92469,195.60341 279.35923,194.3247 285.51305,194.3247   C 289.98855,194.3247 294.02449,195.08393 297.66084,196.52249   C 301.25722,197.96104 304.09437,199.95903 306.13232,202.55642   C 308.21024,205.15381 309.76867,208.51044 310.80763,212.66626   L 303.45502,214.70421   C 302.49598,211.54739 301.3771,209.06988 299.97851,207.27168   C 298.61988,205.47349 296.66184,204.03494 294.10441,202.95602   C 291.54698,201.87711 288.70984,201.31767 285.59297,201.31767   C 281.83674,201.31767 278.6,201.91707 275.88273,203.03594   C 273.16546,204.19478 270.96767,205.67329 269.28935,207.5514   C 267.61104,209.38956 266.33233,211.42751 265.37329,213.6253   C 263.81486,217.46144 263.01566,221.61727 263.01566,226.05281   C 263.01566,231.56727 263.97469,236.20261 265.85281,239.91887   C 267.77088,243.59518 270.52811,246.35241 274.16445,248.1506   C 277.76084,249.94879 281.63694,250.86787 285.71285,250.86787   C 289.22931,250.86787 292.70582,250.18855 296.06245,248.82992   C 299.41907,247.43132 302.01646,245.99277 303.73473,244.43433   L 303.73473,232.9259   z "
     style="fill:#000000;fill-rule:evenodd;fill-opacity:1;stroke:none;" />
</svg>
