<?xml version="1.0" encoding="UTF-8" standalone="no"?>
<svg
   xmlns:dc="http://purl.org/dc/elements/1.1/"
   xmlns:cc="http://creativecommons.org/ns#"
   xmlns:rdf="http://www.w3.org/1999/02/22-rdf-syntax-ns#"
   xmlns:svg="http://www.w3.org/2000/svg"
   xmlns="http://www.w3.org/2000/svg"
   id="svg17"
   height="95.75mm"
   width="95.75mm"
   version="1.0">
  <metadata
     id="metadata21">
    <rdf:RDF>
      <cc:Work
         rdf:about="">
        <dc:format>image/svg+xml</dc:format>
        <dc:type
           rdf:resource="http://purl.org/dc/dcmitype/StillImage" />
      </cc:Work>
    </rdf:RDF>
  </metadata>
  <defs
     id="defs3">
    <pattern
       y="0"
       x="0"
       height="6"
       width="6"
       patternUnits="userSpaceOnUse"
       id="EMFhbasepattern" />
  </defs>
  <path
     id="path5"
     d="  M 132.98634,15.983936   L 132.98634,54.345381   L 228.88996,54.345381   L 228.88996,15.983936   L 132.98634,15.983936   z "
     style="fill:#000000;fill-rule:evenodd;fill-opacity:1;stroke:none;" />
  <path
     id="path7"
     d="  M 54.345381,54.345381   L 54.345381,307.53092   L 307.53092,307.53092   L 307.53092,54.345381   L 54.345381,54.345381   z "
     style="fill:#aaffaa;fill-rule:evenodd;fill-opacity:1;stroke:none;" />
  <path
     id="path9"
     d="  M 54.345381,54.345381   L 307.53092,54.345381   L 307.53092,307.53092   L 54.345381,307.53092   z "
     style="fill:none;stroke:#000000;stroke-width:9.5903616px;stroke-linecap:butt;stroke-linejoin:miter;stroke-miterlimit:10;stroke-dasharray:none;stroke-opacity:1;" />
  <path
     id="path11"
     d="  M 180.93815,281.63694   C 171.34779,281.63694 152.16707,276.84176 152.16707,272.04658   L 152.16707,238.48032   C 56.263453,200.11887 104.21526,80.239356 180.93815,85.034537  "
     style="fill:none;stroke:#000000;stroke-width:9.5903616px;stroke-linecap:butt;stroke-linejoin:miter;stroke-miterlimit:10;stroke-dasharray:none;stroke-opacity:1;" />
  <path
     id="path13"
     d="  M 176.14297,281.63694   C 185.73333,281.63694 204.91405,276.84176 204.91405,272.04658   L 204.91405,238.48032   C 300.81767,200.11887 252.86586,80.239356 176.14297,85.034537  "
     style="fill:none;stroke:#000000;stroke-width:9.5903616px;stroke-linecap:butt;stroke-linejoin:miter;stroke-miterlimit:10;stroke-dasharray:none;stroke-opacity:1;" />
  <path
     id="path15"
     d="  M 129.03032,191.96707   L 129.03032,130.18915   L 137.42189,130.18915   L 169.86927,178.7004   L 169.86927,130.18915   L 177.7014,130.18915   L 177.7014,191.96707   L 169.30984,191.96707   L 136.86245,143.41586   L 136.86245,191.96707   z  M 220.37851,167.71144   L 220.37851,160.47871   L 246.51225,160.43875   L 246.51225,183.3757   C 242.51626,186.57249 238.36044,188.97008 234.08474,190.60843   C 229.80903,192.20682 225.45341,193.00602 220.93795,193.00602   C 214.86405,193.00602 209.3496,191.72731 204.39458,189.12992   C 199.43956,186.53253 195.72329,182.7763 193.16586,177.86124   C 190.64839,172.94618 189.36968,167.43172 189.36968,161.35783   C 189.36968,155.36385 190.64839,149.72952 193.16586,144.53474   C 195.68333,139.3 199.27972,135.46385 203.99498,132.90642   C 208.71024,130.38895 214.14478,129.11024 220.29859,129.11024   C 224.77409,129.11024 228.81004,129.86948 232.44638,131.30803   C 236.04277,132.74658 238.87992,134.74458 240.91787,137.34197   C 242.99578,139.93936 244.55421,143.29598 245.59317,147.45181   L 238.24056,149.48976   C 237.28152,146.33293 236.16265,143.85542 234.76405,142.05723   C 233.40542,140.25903 231.44739,138.82048 228.88996,137.74156   C 226.33253,136.66265 223.49538,136.10321 220.37851,136.10321   C 216.62229,136.10321 213.38554,136.70261 210.66827,137.82148   C 207.951,138.98032 205.75321,140.45883 204.0749,142.33695   C 202.39658,144.1751 201.11787,146.21305 200.15883,148.41084   C 198.6004,152.24699 197.8012,156.40281 197.8012,160.83835   C 197.8012,166.35281 198.76024,170.98815 200.63835,174.70442   C 202.55642,178.38072 205.31365,181.13795 208.95,182.93614   C 212.54638,184.73433 216.42249,185.65341 220.49839,185.65341   C 224.01486,185.65341 227.49136,184.97409 230.84799,183.61546   C 234.20462,182.21686 236.802,180.77831 238.52028,179.21988   L 238.52028,167.71144   z "
     style="fill:#000000;fill-rule:evenodd;fill-opacity:1;stroke:none;" />
</svg>
