<?xml version="1.0" encoding="UTF-8" standalone="no"?>
<svg
   xmlns:dc="http://purl.org/dc/elements/1.1/"
   xmlns:cc="http://creativecommons.org/ns#"
   xmlns:rdf="http://www.w3.org/1999/02/22-rdf-syntax-ns#"
   xmlns:svg="http://www.w3.org/2000/svg"
   xmlns="http://www.w3.org/2000/svg"
   id="svg19"
   height="101.85mm"
   width="101.85mm"
   version="1.0">
  <metadata
     id="metadata23">
    <rdf:RDF>
      <cc:Work
         rdf:about="">
        <dc:format>image/svg+xml</dc:format>
        <dc:type
           rdf:resource="http://purl.org/dc/dcmitype/StillImage" />
      </cc:Work>
    </rdf:RDF>
  </metadata>
  <defs
     id="defs3">
    <pattern
       y="0"
       x="0"
       height="6"
       width="6"
       patternUnits="userSpaceOnUse"
       id="EMFhbasepattern" />
  </defs>
  <path
     id="path5"
     d="  M 330.54779,192.44658   C 330.54779,268.72992 268.72992,330.54779 192.44658,330.54779   C 116.20321,330.54779 54.345381,268.72992 54.345381,192.44658   C 54.345381,116.20321 116.20321,54.345381 192.44658,54.345381   C 268.72992,54.345381 330.54779,116.20321 330.54779,192.44658   z "
     style="fill:#80e0ff;fill-rule:evenodd;fill-opacity:1;stroke:none;" />
  <path
     id="path7"
     d="  M 330.54779,192.44658   C 330.54779,268.72992 268.72992,330.54779 192.44658,330.54779   C 116.20321,330.54779 54.345381,268.72992 54.345381,192.44658   C 54.345381,116.20321 116.20321,54.345381 192.44658,54.345381   C 268.72992,54.345381 330.54779,116.20321 330.54779,192.44658  "
     style="fill:none;stroke:#000000;stroke-width:9.5903616px;stroke-linecap:butt;stroke-linejoin:miter;stroke-miterlimit:10;stroke-dasharray:none;stroke-opacity:1;" />
  <path
     id="path9"
     d="  M 130.10924,245.19357   L 130.10924,245.19357   L 130.10924,163.6755   L 192.44658,101.33815   L 254.78393,163.6755   L 254.78393,245.19357   z "
     style="fill:#000000;fill-rule:evenodd;fill-opacity:1;stroke:none;" />
  <path
     id="path11"
     d="  M 130.10924,245.19357   L 130.10924,245.19357   L 130.10924,163.6755   L 192.44658,101.33815   L 254.78393,163.6755   L 254.78393,245.19357  "
     style="fill:none;stroke:#000000;stroke-width:0.95903611px;stroke-linecap:butt;stroke-linejoin:miter;stroke-miterlimit:10;stroke-dasharray:none;stroke-opacity:1;" />
  <path
     id="path13"
     d="  M 115.72369,245.19357   L 115.72369,245.19357   L 115.72369,158.88032   L 174.2249,101.33815  "
     style="fill:none;stroke:#000000;stroke-width:4.7951808px;stroke-linecap:butt;stroke-linejoin:miter;stroke-miterlimit:10;stroke-dasharray:none;stroke-opacity:1;" />
  <path
     id="path15"
     d="  M 269.16947,245.19357   L 269.16947,245.19357   L 269.16947,158.88032   L 210.66827,101.33815  "
     style="fill:none;stroke:#000000;stroke-width:4.7951808px;stroke-linecap:butt;stroke-linejoin:miter;stroke-miterlimit:10;stroke-dasharray:none;stroke-opacity:1;" />
  <path
     id="path17"
     d="  M 169.03012,292.50602   L 169.03012,256.18253   L 155.44377,256.18253   L 155.44377,251.30743   L 188.09096,251.30743   L 188.09096,256.18253   L 174.46466,256.18253   L 174.46466,292.50602   z  M 212.98594,276.36225   L 212.98594,271.5271   L 230.40843,271.48714   L 230.40843,286.79176   C 227.73112,288.90963 224.97389,290.50803 222.13674,291.58694   C 219.25964,292.66586 216.34257,293.2253 213.34558,293.2253   C 209.30964,293.2253 205.63333,292.34618 202.31666,290.62791   C 199.03996,288.86967 196.52249,286.39216 194.84417,283.11546   C 193.16586,279.83875 192.3267,276.16245 192.3267,272.1265   C 192.3267,268.09056 193.16586,264.37429 194.84417,260.89779   C 196.52249,257.42128 198.92008,254.82389 202.0769,253.14558   C 205.19377,251.46727 208.83012,250.62811 212.94598,250.62811   C 215.90301,250.62811 218.62028,251.10763 221.01787,252.06666   C 223.41546,253.0257 225.29357,254.38433 226.69217,256.10261   C 228.0508,257.82088 229.08976,260.05863 229.80903,262.85582   L 224.89397,264.17449   C 224.25462,262.09658 223.49538,260.45823 222.5763,259.25943   C 221.65723,258.06064 220.33855,257.1016 218.66024,256.38233   C 216.94196,255.66305 215.06385,255.26345 212.98594,255.26345   C 210.46847,255.26345 208.31064,255.66305 206.51245,256.42229   C 204.67429,257.18152 203.23574,258.18052 202.11686,259.41927   C 200.99799,260.65803 200.11887,262.01666 199.51948,263.49518   C 198.44056,266.05261 197.92108,268.80984 197.92108,271.76686   C 197.92108,275.44317 198.56044,278.52008 199.83915,280.99759   C 201.07791,283.4751 202.91606,285.31325 205.35361,286.51204   C 207.7512,287.71084 210.34859,288.31024 213.06586,288.31024   C 215.42349,288.31024 217.7012,287.83072 219.97891,286.9516   C 222.21666,286.03253 223.93494,285.07349 225.09377,284.03453   L 225.09377,276.36225   z "
     style="fill:#000000;fill-rule:evenodd;fill-opacity:1;stroke:none;" />
</svg>
