<?xml version="1.0" encoding="UTF-8" standalone="no"?>
<svg
   xmlns:dc="http://purl.org/dc/elements/1.1/"
   xmlns:cc="http://creativecommons.org/ns#"
   xmlns:rdf="http://www.w3.org/1999/02/22-rdf-syntax-ns#"
   xmlns:svg="http://www.w3.org/2000/svg"
   xmlns="http://www.w3.org/2000/svg"
   id="svg19"
   height="130.27mm"
   width="130.27mm"
   version="1.0">
  <metadata
     id="metadata23">
    <rdf:RDF>
      <cc:Work
         rdf:about="">
        <dc:format>image/svg+xml</dc:format>
        <dc:type
           rdf:resource="http://purl.org/dc/dcmitype/StillImage" />
      </cc:Work>
    </rdf:RDF>
  </metadata>
  <defs
     id="defs3">
    <pattern
       y="0"
       x="0"
       height="6"
       width="6"
       patternUnits="userSpaceOnUse"
       id="EMFhbasepattern" />
  </defs>
  <path
     id="path5"
     d="  M 164.63454,327.67068   C 164.63454,437.95983 327.67068,437.95983 327.67068,327.67068   C 437.95983,327.67068 437.95983,164.63454 327.67068,164.63454   C 327.67068,54.345381 164.63454,54.345381 164.63454,164.63454   C 54.345381,164.63454 54.345381,327.67068 164.63454,327.67068   z "
     style="fill:#ffff80;fill-rule:evenodd;fill-opacity:1;stroke:none;" />
  <path
     id="path7"
     d="  M 164.63454,327.67068   C 164.63454,437.95983 327.67068,437.95983 327.67068,327.67068   C 437.95983,327.67068 437.95983,164.63454 327.67068,164.63454   C 327.67068,54.345381 164.63454,54.345381 164.63454,164.63454   C 54.345381,164.63454 54.345381,327.67068 164.63454,327.67068  "
     style="fill:none;stroke:#000000;stroke-width:9.5903616px;stroke-linecap:butt;stroke-linejoin:miter;stroke-miterlimit:10;stroke-dasharray:none;stroke-opacity:1;" />
  <path
     id="path9"
     d="  M 183.81526,298.89959   L 183.81526,298.89959   L 183.81526,217.38152   L 246.15261,155.04417   L 308.48996,217.38152   L 308.48996,298.89959   z "
     style="fill:#000000;fill-rule:evenodd;fill-opacity:1;stroke:none;" />
  <path
     id="path11"
     d="  M 183.81526,298.89959   L 183.81526,298.89959   L 183.81526,217.38152   L 246.15261,155.04417   L 308.48996,217.38152   L 308.48996,298.89959  "
     style="fill:none;stroke:#000000;stroke-width:0.95903611px;stroke-linecap:butt;stroke-linejoin:miter;stroke-miterlimit:10;stroke-dasharray:none;stroke-opacity:1;" />
  <path
     id="path13"
     d="  M 169.42972,298.89959   L 169.42972,298.89959   L 169.42972,212.58634   L 227.93092,155.04417  "
     style="fill:none;stroke:#000000;stroke-width:4.7951808px;stroke-linecap:butt;stroke-linejoin:miter;stroke-miterlimit:10;stroke-dasharray:none;stroke-opacity:1;" />
  <path
     id="path15"
     d="  M 322.8755,298.89959   L 322.8755,298.89959   L 322.8755,212.58634   L 264.37429,155.04417  "
     style="fill:none;stroke:#000000;stroke-width:4.7951808px;stroke-linecap:butt;stroke-linejoin:miter;stroke-miterlimit:10;stroke-dasharray:none;stroke-opacity:1;" />
  <path
     id="path17"
     d="  M 222.73614,346.21204   L 222.73614,309.88855   L 209.1498,309.88855   L 209.1498,305.01345   L 241.79698,305.01345   L 241.79698,309.88855   L 228.17068,309.88855   L 228.17068,346.21204   z  M 266.69196,330.06827   L 266.69196,325.23313   L 284.11445,325.19317   L 284.11445,340.49779   C 281.43714,342.61566 278.67992,344.21405 275.84277,345.29297   C 272.96566,346.37188 270.04859,346.93132 267.0516,346.93132   C 263.01566,346.93132 259.33935,346.0522 256.02269,344.33393   C 252.74598,342.5757 250.22851,340.09819 248.5502,336.82148   C 246.87188,333.54477 246.03273,329.86847 246.03273,325.83253   C 246.03273,321.79658 246.87188,318.08032 248.5502,314.60381   C 250.22851,311.1273 252.6261,308.52992 255.78293,306.8516   C 258.8998,305.17329 262.53614,304.33413 266.652,304.33413   C 269.60903,304.33413 272.3263,304.81365 274.72389,305.77269   C 277.12148,306.73172 278.99959,308.09036 280.39819,309.80863   C 281.75682,311.5269 282.79578,313.76465 283.51506,316.56184   L 278.6,317.88052   C 277.96064,315.80261 277.2014,314.16425 276.28233,312.96546   C 275.36325,311.76666 274.04457,310.80763 272.36626,310.08835   C 270.64799,309.36907 268.76988,308.96947 266.69196,308.96947   C 264.17449,308.96947 262.01666,309.36907 260.21847,310.12831   C 258.38032,310.88755 256.94176,311.88654 255.82289,313.1253   C 254.70401,314.36405 253.8249,315.72269 253.2255,317.2012   C 252.14658,319.75863 251.6271,322.51586 251.6271,325.47289   C 251.6271,329.14919 252.26646,332.2261 253.54518,334.70361   C 254.78393,337.18112 256.62208,339.01927 259.05963,340.21807   C 261.45723,341.41686 264.05461,342.01626 266.77188,342.01626   C 269.12951,342.01626 271.40722,341.53674 273.68494,340.65763   C 275.92269,339.73855 277.64096,338.77951 278.7998,337.74056   L 278.7998,330.06827   z "
     style="fill:#000000;fill-rule:evenodd;fill-opacity:1;stroke:none;" />
</svg>
