<?xml version="1.0" encoding="UTF-8" standalone="no"?>
<svg
   xmlns:dc="http://purl.org/dc/elements/1.1/"
   xmlns:cc="http://creativecommons.org/ns#"
   xmlns:rdf="http://www.w3.org/1999/02/22-rdf-syntax-ns#"
   xmlns:svg="http://www.w3.org/2000/svg"
   xmlns="http://www.w3.org/2000/svg"
   id="svg19"
   height="95.75mm"
   width="95.75mm"
   version="1.0">
  <metadata
     id="metadata23">
    <rdf:RDF>
      <cc:Work
         rdf:about="">
        <dc:format>image/svg+xml</dc:format>
        <dc:type
           rdf:resource="http://purl.org/dc/dcmitype/StillImage" />
      </cc:Work>
    </rdf:RDF>
  </metadata>
  <defs
     id="defs3">
    <pattern
       y="0"
       x="0"
       height="6"
       width="6"
       patternUnits="userSpaceOnUse"
       id="EMFhbasepattern" />
  </defs>
  <path
     id="path5"
     d="  M 54.345381,54.345381   L 54.345381,307.53092   L 307.53092,307.53092   L 307.53092,54.345381   L 54.345381,54.345381   z "
     style="fill:#aaffaa;fill-rule:evenodd;fill-opacity:1;stroke:none;" />
  <path
     id="path7"
     d="  M 54.345381,54.345381   L 307.53092,54.345381   L 307.53092,307.53092   L 54.345381,307.53092   z "
     style="fill:none;stroke:#000000;stroke-width:9.5903616px;stroke-linecap:butt;stroke-linejoin:miter;stroke-miterlimit:10;stroke-dasharray:none;stroke-opacity:1;" />
  <path
     id="path9"
     d="  M 118.6008,233.68514   L 118.6008,233.68514   L 118.6008,152.16707   L 180.93815,89.829718   L 243.2755,152.16707   L 243.2755,233.68514   z "
     style="fill:#000000;fill-rule:evenodd;fill-opacity:1;stroke:none;" />
  <path
     id="path11"
     d="  M 118.6008,233.68514   L 118.6008,233.68514   L 118.6008,152.16707   L 180.93815,89.829718   L 243.2755,152.16707   L 243.2755,233.68514  "
     style="fill:none;stroke:#000000;stroke-width:0.95903611px;stroke-linecap:butt;stroke-linejoin:miter;stroke-miterlimit:10;stroke-dasharray:none;stroke-opacity:1;" />
  <path
     id="path13"
     d="  M 104.21526,233.68514   L 104.21526,233.68514   L 104.21526,147.37189   L 162.71646,89.829718  "
     style="fill:none;stroke:#000000;stroke-width:4.7951808px;stroke-linecap:butt;stroke-linejoin:miter;stroke-miterlimit:10;stroke-dasharray:none;stroke-opacity:1;" />
  <path
     id="path15"
     d="  M 257.66104,233.68514   L 257.66104,233.68514   L 257.66104,147.37189   L 199.15984,89.829718  "
     style="fill:none;stroke:#000000;stroke-width:4.7951808px;stroke-linecap:butt;stroke-linejoin:miter;stroke-miterlimit:10;stroke-dasharray:none;stroke-opacity:1;" />
  <path
     id="path17"
     d="  M 157.52168,280.99759   L 157.52168,244.67409   L 143.93534,244.67409   L 143.93534,239.79899   L 176.58253,239.79899   L 176.58253,244.67409   L 162.95622,244.67409   L 162.95622,280.99759   z  M 201.47751,264.85381   L 201.47751,260.01867   L 218.9,259.97871   L 218.9,275.28333   C 216.22269,277.4012 213.46546,278.99959 210.62831,280.07851   C 207.7512,281.15743 204.83413,281.71686 201.83715,281.71686   C 197.8012,281.71686 194.1249,280.83775 190.80823,279.11947   C 187.53152,277.36124 185.01405,274.88373 183.33574,271.60702   C 181.65743,268.33032 180.81827,264.65401 180.81827,260.61807   C 180.81827,256.58212 181.65743,252.86586 183.33574,249.38935   C 185.01405,245.91285 187.41164,243.31546 190.56847,241.63715   C 193.68534,239.95883 197.32168,239.11968 201.43755,239.11968   C 204.39458,239.11968 207.11184,239.59919 209.50943,240.55823   C 211.90703,241.51727 213.78514,242.8759 215.18373,244.59417   C 216.54237,246.31245 217.58132,248.5502 218.3006,251.34739   L 213.38554,252.66606   C 212.74618,250.58815 211.98694,248.9498 211.06787,247.751   C 210.14879,246.55221 208.83012,245.59317 207.1518,244.87389   C 205.43353,244.15461 203.55542,243.75502 201.47751,243.75502   C 198.96004,243.75502 196.80221,244.15461 195.00401,244.91385   C 193.16586,245.67309 191.72731,246.67208 190.60843,247.91084   C 189.48956,249.14959 188.61044,250.50823 188.01104,251.98674   C 186.93213,254.54417 186.41265,257.3014 186.41265,260.25843   C 186.41265,263.93474 187.05201,267.01164 188.33072,269.48915   C 189.56948,271.96666 191.40763,273.80482 193.84518,275.00361   C 196.24277,276.20241 198.84016,276.8018 201.55743,276.8018   C 203.91506,276.8018 206.19277,276.32229 208.47048,275.44317   C 210.70823,274.52409 212.4265,273.56506 213.58534,272.5261   L 213.58534,264.85381   z "
     style="fill:#000000;fill-rule:evenodd;fill-opacity:1;stroke:none;" />
</svg>
