<?xml version="1.0" encoding="UTF-8" standalone="no"?>
<svg
   xmlns:dc="http://purl.org/dc/elements/1.1/"
   xmlns:cc="http://creativecommons.org/ns#"
   xmlns:rdf="http://www.w3.org/1999/02/22-rdf-syntax-ns#"
   xmlns:svg="http://www.w3.org/2000/svg"
   xmlns="http://www.w3.org/2000/svg"
   id="svg13"
   height="95.75mm"
   width="95.75mm"
   version="1.0">
  <metadata
     id="metadata17">
    <rdf:RDF>
      <cc:Work
         rdf:about="">
        <dc:format>image/svg+xml</dc:format>
        <dc:type
           rdf:resource="http://purl.org/dc/dcmitype/StillImage" />
      </cc:Work>
    </rdf:RDF>
  </metadata>
  <defs
     id="defs3">
    <pattern
       y="0"
       x="0"
       height="6"
       width="6"
       patternUnits="userSpaceOnUse"
       id="EMFhbasepattern" />
  </defs>
  <path
     id="path5"
     d="  M 54.345381,54.345381   L 54.345381,307.53092   L 307.53092,307.53092   L 307.53092,54.345381   L 54.345381,54.345381   z "
     style="fill:#aaffaa;fill-rule:evenodd;fill-opacity:1;stroke:none;" />
  <path
     id="path7"
     d="  M 54.345381,54.345381   L 307.53092,54.345381   L 307.53092,307.53092   L 54.345381,307.53092   z "
     style="fill:none;stroke:#000000;stroke-width:9.5903616px;stroke-linecap:butt;stroke-linejoin:miter;stroke-miterlimit:10;stroke-dasharray:none;stroke-opacity:1;" />
  <path
     id="path9"
     d="  M 54.345381,54.345381   L 54.345381,54.345381   L 180.93815,200.11887   L 180.93815,161.75743   L 307.53092,307.53092  "
     style="fill:none;stroke:#000000;stroke-width:9.5903616px;stroke-linecap:butt;stroke-linejoin:miter;stroke-miterlimit:10;stroke-dasharray:none;stroke-opacity:1;" />
  <path
     id="path11"
     d="  M 185.33373,136.34297   L 185.33373,100.65883   L 190.16887,100.65883   L 208.91004,128.67068   L 208.91004,100.65883   L 213.46546,100.65883   L 213.46546,136.34297   L 208.59036,136.34297   L 189.84919,108.29116   L 189.84919,136.34297   z  M 246.87188,123.83554   L 251.58714,124.99438   C 250.58815,128.91044 248.82992,131.86747 246.23253,133.90542   C 243.6751,135.94337 240.51827,136.94237 236.802,136.94237   C 232.96586,136.94237 229.84899,136.18313 227.41144,134.58474   C 225.01385,133.0263 223.1757,130.74859 221.93694,127.79156   C 220.65823,124.83454 220.01887,121.63775 220.01887,118.2012   C 220.01887,114.48494 220.73815,111.24819 222.1767,108.49096   C 223.5753,105.73373 225.61325,103.61586 228.21064,102.17731   C 230.84799,100.73875 233.7251,100.01948 236.88192,100.01948   C 240.43835,100.01948 243.4753,100.93855 245.87289,102.77671   C 248.31044,104.5749 250.02871,107.13233 250.98775,110.40903   L 246.31245,111.52791   C 245.51325,108.93052 244.31445,107.05241 242.71606,105.85361   C 241.15763,104.65482 239.15964,104.05542 236.802,104.05542   C 234.04478,104.05542 231.76706,104.73474 229.88895,106.05341   C 228.0508,107.37209 226.77209,109.13032 226.01285,111.32811   C 225.29357,113.56586 224.89397,115.84357 224.89397,118.2012   C 224.89397,121.23815 225.33353,123.8755 226.21265,126.15321   C 227.13172,128.43092 228.49036,130.10924 230.36847,131.22811   C 232.20662,132.34699 234.24457,132.90642 236.40241,132.90642   C 239.07972,132.90642 241.31747,132.14719 243.15562,130.62871   C 244.99377,129.11024 246.23253,126.83253 246.87188,123.83554   z "
     style="fill:#000000;fill-rule:evenodd;fill-opacity:1;stroke:none;" />
</svg>
