<?xml version="1.0" encoding="UTF-8" standalone="no"?>
<svg
   xmlns:dc="http://purl.org/dc/elements/1.1/"
   xmlns:cc="http://creativecommons.org/ns#"
   xmlns:rdf="http://www.w3.org/1999/02/22-rdf-syntax-ns#"
   xmlns:svg="http://www.w3.org/2000/svg"
   xmlns="http://www.w3.org/2000/svg"
   id="svg13"
   height="89.669998mm"
   width="120.11mm"
   version="1.0">
  <metadata
     id="metadata17">
    <rdf:RDF>
      <cc:Work
         rdf:about="">
        <dc:format>image/svg+xml</dc:format>
        <dc:type
           rdf:resource="http://purl.org/dc/dcmitype/StillImage" />
      </cc:Work>
    </rdf:RDF>
  </metadata>
  <defs
     id="defs3">
    <pattern
       y="0"
       x="0"
       height="6"
       width="6"
       patternUnits="userSpaceOnUse"
       id="EMFhbasepattern" />
  </defs>
  <path
     id="path5"
     d="  M 54.345381,54.345381   L 54.345381,284.51405   L 399.59839,284.51405   L 399.59839,54.345381   L 54.345381,54.345381   z "
     style="fill:#80e0ff;fill-rule:evenodd;fill-opacity:1;stroke:none;" />
  <path
     id="path7"
     d="  M 54.345381,54.345381   L 399.59839,54.345381   L 399.59839,284.51405   L 54.345381,284.51405   z "
     style="fill:none;stroke:#000000;stroke-width:9.5903616px;stroke-linecap:butt;stroke-linejoin:miter;stroke-miterlimit:10;stroke-dasharray:none;stroke-opacity:1;" />
  <path
     id="path9"
     d="  M 54.345381,54.345381   L 54.345381,54.345381   L 226.97188,188.61044   L 226.97188,150.24899   L 399.59839,284.51405  "
     style="fill:none;stroke:#000000;stroke-width:9.5903616px;stroke-linecap:butt;stroke-linejoin:miter;stroke-miterlimit:10;stroke-dasharray:none;stroke-opacity:1;" />
  <path
     id="path11"
     d="  M 231.36747,124.83454   L 231.36747,89.1504   L 236.20261,89.1504   L 254.94377,117.16225   L 254.94377,89.1504   L 259.49919,89.1504   L 259.49919,124.83454   L 254.62409,124.83454   L 235.88293,96.78273   L 235.88293,124.83454   z  M 292.90562,112.32711   L 297.62088,113.48594   C 296.62188,117.40201 294.86365,120.35903 292.26626,122.39699   C 289.70883,124.43494 286.552,125.43393 282.83574,125.43393   C 278.99959,125.43393 275.88273,124.6747 273.44518,123.0763   C 271.04759,121.51787 269.20943,119.24016 267.97068,116.28313   C 266.69196,113.3261 266.05261,110.12932 266.05261,106.69277   C 266.05261,102.9765 266.77188,99.739758 268.21044,96.982529   C 269.60903,94.2253 271.64698,92.107428 274.24437,90.668874   C 276.88172,89.23032 279.75883,88.511043 282.91566,88.511043   C 286.47208,88.511043 289.50903,89.430119 291.90662,91.268272   C 294.34417,93.066465 296.06245,95.623894 297.02148,98.900601   L 292.34618,100.01948   C 291.54698,97.422087 290.34819,95.543975 288.7498,94.345179   C 287.19136,93.146384 285.19337,92.546987 282.83574,92.546987   C 280.07851,92.546987 277.8008,93.226304 275.92269,94.544979   C 274.08453,95.863653 272.80582,97.621886 272.04658,99.819677   C 271.32731,102.05743 270.92771,104.33514 270.92771,106.69277   C 270.92771,109.72972 271.36727,112.36707 272.24638,114.64478   C 273.16546,116.92249 274.52409,118.6008 276.4022,119.71968   C 278.24036,120.83855 280.27831,121.39799 282.43614,121.39799   C 285.11345,121.39799 287.3512,120.63875 289.18935,119.12028   C 291.02751,117.60181 292.26626,115.32409 292.90562,112.32711   z "
     style="fill:#000000;fill-rule:evenodd;fill-opacity:1;stroke:none;" />
</svg>
