<?xml version="1.0" encoding="UTF-8" standalone="no"?>
<svg
   xmlns:dc="http://purl.org/dc/elements/1.1/"
   xmlns:cc="http://creativecommons.org/ns#"
   xmlns:rdf="http://www.w3.org/1999/02/22-rdf-syntax-ns#"
   xmlns:svg="http://www.w3.org/2000/svg"
   xmlns="http://www.w3.org/2000/svg"
   id="svg31"
   height="130.27mm"
   width="130.27mm"
   version="1.0">
  <metadata
     id="metadata35">
    <rdf:RDF>
      <cc:Work
         rdf:about="">
        <dc:format>image/svg+xml</dc:format>
        <dc:type
           rdf:resource="http://purl.org/dc/dcmitype/StillImage" />
      </cc:Work>
    </rdf:RDF>
  </metadata>
  <defs
     id="defs3">
    <pattern
       y="0"
       x="0"
       height="6"
       width="6"
       patternUnits="userSpaceOnUse"
       id="EMFhbasepattern" />
  </defs>
  <path
     id="path5"
     d="  M 164.63454,327.67068   C 164.63454,437.95983 327.67068,437.95983 327.67068,327.67068   C 437.95983,327.67068 437.95983,164.63454 327.67068,164.63454   C 327.67068,54.345381 164.63454,54.345381 164.63454,164.63454   C 54.345381,164.63454 54.345381,327.67068 164.63454,327.67068   z "
     style="fill:#ffff80;fill-rule:evenodd;fill-opacity:1;stroke:none;" />
  <path
     id="path7"
     d="  M 164.63454,327.67068   C 164.63454,437.95983 327.67068,437.95983 327.67068,327.67068   C 437.95983,327.67068 437.95983,164.63454 327.67068,164.63454   C 327.67068,54.345381 164.63454,54.345381 164.63454,164.63454   C 54.345381,164.63454 54.345381,327.67068 164.63454,327.67068  "
     style="fill:none;stroke:#000000;stroke-width:9.5903616px;stroke-linecap:butt;stroke-linejoin:miter;stroke-miterlimit:10;stroke-dasharray:none;stroke-opacity:1;" />
  <path
     id="path9"
     d="  M 197.00201,189.52952   L 205.67329,189.52952   L 205.67329,253.78494   L 225.57329,253.78494   L 225.57329,189.52952   L 233.7251,189.52952   L 233.7251,201.79719   C 234.36445,201.31767 236.802,198.64036 236.802,197.72128   L 236.802,186.49257   L 222.49638,186.49257   L 222.49638,250.74799   L 208.23072,250.74799   L 208.23072,186.49257   L 194.44458,186.49257   L 194.44458,250.74799   L 182.73634,250.74799   L 182.73634,324.19417   L 305.65281,324.19417   L 305.65281,255.34337   C 304.77369,255.90281 303.09538,257.66104 303.09538,258.8998   L 303.09538,320.59779   L 185.29377,320.59779   L 185.29377,253.78494   L 197.00201,253.78494   L 197.00201,189.52952   z "
     style="fill:#000000;fill-rule:evenodd;fill-opacity:1;stroke:none;" />
  <path
     id="path11"
     d="  M 233.7251,253.78494   L 241.8769,253.78494   C 241.55723,252.34638 241.11767,250.74799 239.31947,250.74799   L 236.802,250.74799   L 236.802,244.63413   C 236.802,242.55622 234.76405,239.19959 233.7251,238.0008   z "
     style="fill:#000000;fill-rule:evenodd;fill-opacity:1;stroke:none;" />
  <path
     id="path13"
     d="  M 266.89176,194.64437   C 266.89176,186.89217 274.52409,177.98112 274.52409,174.2249   C 274.52409,171.14799 272.80582,164.91425 270.44819,164.03514   C 270.44819,180.01907 251.06767,192.84618 251.06767,199.23976   L 251.06767,200.23875   C 251.06767,201.83715 255.38333,211.98694 256.18253,215.02389   C 257.18152,218.9 259.41927,227.57128 259.73895,231.36747   C 245.95281,231.04779 243.43534,209.26968 236.802,204.83413   L 236.16265,211.46747   L 236.28253,221.65723   C 236.28253,232.16666 243.83494,247.31144 248.90984,252.90582   C 251.14759,255.38333 258.22048,261.13755 261.25743,262.49618   C 263.1755,263.33534 275.32329,269.08955 276.04257,269.08955   C 279.31927,269.08955 296.7018,252.8259 299.65883,249.86887   C 305.29317,244.23453 308.68975,228.33052 308.68975,216.58233   L 308.68975,215.02389   L 307.09136,202.23674   C 304.93353,203.55542 302.33614,214.90401 300.89759,217.94096   C 297.501,225.01385 296.94156,224.89397 288.82971,226.77209   C 288.19036,199.3996 303.77469,208.19076 282.6759,183.93514   C 282.6759,194.84417 280.59799,201.59739 273.5251,205.35361   C 270.44819,203.75522 266.89176,199.1998 266.89176,194.64437   z "
     style="fill:#000000;fill-rule:evenodd;fill-opacity:1;stroke:none;" />
  <path
     id="path15"
     d="  M 198.04096,283.39518   L 198.04096,283.39518   L 210.78815,283.39518   L 210.78815,269.60903   L 198.04096,269.60903   z "
     style="fill:#000000;fill-rule:evenodd;fill-opacity:1;stroke:none;" />
  <path
     id="path17"
     d="  M 225.05381,283.39518   L 225.05381,283.39518   L 238.32048,283.39518   L 238.32048,269.60903   L 225.05381,269.60903   z "
     style="fill:#000000;fill-rule:evenodd;fill-opacity:1;stroke:none;" />
  <path
     id="path19"
     d="  M 252.10662,283.39518   L 252.10662,283.39518   L 265.85281,283.39518   L 265.85281,269.60903   L 252.10662,269.60903   z "
     style="fill:#000000;fill-rule:evenodd;fill-opacity:1;stroke:none;" />
  <path
     id="path21"
     d="  M 279.11947,283.39518   L 292.90562,283.39518   L 292.90562,269.60903   L 287.27128,269.60903   C 284.59397,269.60903 281.6769,273.00562 279.11947,273.68494   z "
     style="fill:#000000;fill-rule:evenodd;fill-opacity:1;stroke:none;" />
  <path
     id="path23"
     d="  M 198.04096,307.37108   L 198.04096,307.37108   L 210.78815,307.37108   L 210.78815,294.10441   L 198.04096,294.10441   z "
     style="fill:#000000;fill-rule:evenodd;fill-opacity:1;stroke:none;" />
  <path
     id="path25"
     d="  M 225.05381,307.37108   L 225.05381,307.37108   L 238.32048,307.37108   L 238.32048,294.10441   L 225.05381,294.10441   z "
     style="fill:#000000;fill-rule:evenodd;fill-opacity:1;stroke:none;" />
  <path
     id="path27"
     d="  M 252.10662,307.37108   L 252.10662,307.37108   L 265.85281,307.37108   L 265.85281,294.10441   L 252.10662,294.10441   z "
     style="fill:#000000;fill-rule:evenodd;fill-opacity:1;stroke:none;" />
  <path
     id="path29"
     d="  M 279.11947,307.37108   L 279.11947,307.37108   L 292.90562,307.37108   L 292.90562,294.10441   L 279.11947,294.10441   z "
     style="fill:#000000;fill-rule:evenodd;fill-opacity:1;stroke:none;" />
</svg>
