<?xml version="1.0" encoding="UTF-8" standalone="no"?>
<svg
   xmlns:dc="http://purl.org/dc/elements/1.1/"
   xmlns:cc="http://creativecommons.org/ns#"
   xmlns:rdf="http://www.w3.org/1999/02/22-rdf-syntax-ns#"
   xmlns:svg="http://www.w3.org/2000/svg"
   xmlns="http://www.w3.org/2000/svg"
   id="svg13"
   height="95.75mm"
   width="95.75mm"
   version="1.0">
  <metadata
     id="metadata17">
    <rdf:RDF>
      <cc:Work
         rdf:about="">
        <dc:format>image/svg+xml</dc:format>
        <dc:type
           rdf:resource="http://purl.org/dc/dcmitype/StillImage" />
      </cc:Work>
    </rdf:RDF>
  </metadata>
  <defs
     id="defs3">
    <pattern
       y="0"
       x="0"
       height="6"
       width="6"
       patternUnits="userSpaceOnUse"
       id="EMFhbasepattern" />
  </defs>
  <path
     id="path5"
     d="  M 54.345381,54.345381   L 54.345381,307.53092   L 307.53092,307.53092   L 307.53092,54.345381   L 54.345381,54.345381   z "
     style="fill:#aaffaa;fill-rule:evenodd;fill-opacity:1;stroke:none;" />
  <path
     id="path7"
     d="  M 54.345381,54.345381   L 307.53092,54.345381   L 307.53092,307.53092   L 54.345381,307.53092   z "
     style="fill:none;stroke:#000000;stroke-width:9.5903616px;stroke-linecap:butt;stroke-linejoin:miter;stroke-miterlimit:10;stroke-dasharray:none;stroke-opacity:1;" />
  <path
     id="path9"
     d="  M 162.11707,135.86345   L 162.11707,278.4002   C 162.11707,281.6769 173.34578,281.39718 177.22188,281.39718   L 182.25682,281.39718   C 186.13293,281.39718 197.36164,281.6769 197.36164,278.4002   L 197.36164,135.86345   C 197.36164,124.83454 162.11707,124.95442 162.11707,135.86345   z "
     style="fill:#ffffff;fill-rule:evenodd;fill-opacity:1;stroke:none;" />
  <path
     id="path11"
     d="  M 162.11707,135.86345   C 162.11707,124.95442 197.36164,124.83454 197.36164,135.86345   L 197.36164,278.4002   C 197.36164,281.6769 186.13293,281.39718 182.25682,281.39718   L 177.22188,281.39718   C 173.34578,281.39718 162.11707,281.6769 162.11707,278.4002   z  M 175.70341,82.996585   L 159.08012,82.996585   L 159.08012,90.548995   L 175.22389,90.548995   L 175.22389,98.620882   L 165.63353,98.620882   L 165.63353,103.65582   L 175.22389,103.65582   L 175.22389,117.24217   L 163.63554,117.24217   L 163.63554,128.83052   C 160.95823,129.5498 158.6006,132.90642 158.6006,136.38293   L 158.6006,276.88172   C 158.6006,285.35321 168.19096,284.95361 176.70241,284.95361   L 182.7763,284.95361   C 191.36767,284.95361 200.87811,285.47309 200.87811,276.88172   L 200.87811,137.38193   C 200.87811,130.22911 196.36265,130.18915 196.36265,127.83152   L 196.36265,117.24217   L 184.25482,117.24217   L 184.25482,90.548995   L 200.39859,90.548995   L 200.39859,82.996585   L 183.25582,82.996585   L 183.25582,76.443172   L 175.70341,76.443172   L 175.70341,82.996585   z "
     style="fill:#000000;fill-rule:evenodd;fill-opacity:1;stroke:none;" />
</svg>
