<?xml version="1.0" encoding="UTF-8" standalone="no"?>
<svg
   xmlns:dc="http://purl.org/dc/elements/1.1/"
   xmlns:cc="http://creativecommons.org/ns#"
   xmlns:rdf="http://www.w3.org/1999/02/22-rdf-syntax-ns#"
   xmlns:svg="http://www.w3.org/2000/svg"
   xmlns="http://www.w3.org/2000/svg"
   id="svg31"
   height="95.75mm"
   width="95.75mm"
   version="1.0">
  <metadata
     id="metadata35">
    <rdf:RDF>
      <cc:Work
         rdf:about="">
        <dc:format>image/svg+xml</dc:format>
        <dc:type
           rdf:resource="http://purl.org/dc/dcmitype/StillImage" />
      </cc:Work>
    </rdf:RDF>
  </metadata>
  <defs
     id="defs3">
    <pattern
       y="0"
       x="0"
       height="6"
       width="6"
       patternUnits="userSpaceOnUse"
       id="EMFhbasepattern" />
  </defs>
  <path
     id="path5"
     d="  M 54.345381,54.345381   L 54.345381,307.53092   L 307.53092,307.53092   L 307.53092,54.345381   L 54.345381,54.345381   z "
     style="fill:#aaffaa;fill-rule:evenodd;fill-opacity:1;stroke:none;" />
  <path
     id="path7"
     d="  M 54.345381,54.345381   L 307.53092,54.345381   L 307.53092,307.53092   L 54.345381,307.53092   z "
     style="fill:none;stroke:#000000;stroke-width:9.5903616px;stroke-linecap:butt;stroke-linejoin:miter;stroke-miterlimit:10;stroke-dasharray:none;stroke-opacity:1;" />
  <path
     id="path9"
     d="  M 131.78755,124.31506   L 140.45883,124.31506   L 140.45883,188.57048   L 160.35883,188.57048   L 160.35883,124.31506   L 168.51064,124.31506   L 168.51064,136.58273   C 169.15,136.10321 171.58755,133.4259 171.58755,132.50683   L 171.58755,121.27811   L 157.28193,121.27811   L 157.28193,185.53353   L 143.01626,185.53353   L 143.01626,121.27811   L 129.23012,121.27811   L 129.23012,185.53353   L 117.52189,185.53353   L 117.52189,258.97972   L 240.43835,258.97972   L 240.43835,190.12891   C 239.55923,190.68835 237.88092,192.44658 237.88092,193.68534   L 237.88092,255.38333   L 120.07932,255.38333   L 120.07932,188.57048   L 131.78755,188.57048   L 131.78755,124.31506   z "
     style="fill:#000000;fill-rule:evenodd;fill-opacity:1;stroke:none;" />
  <path
     id="path11"
     d="  M 168.51064,188.57048   L 176.66245,188.57048   C 176.34277,187.13193 175.90321,185.53353 174.10502,185.53353   L 171.58755,185.53353   L 171.58755,179.41968   C 171.58755,177.34176 169.5496,173.98514 168.51064,172.78634   z "
     style="fill:#000000;fill-rule:evenodd;fill-opacity:1;stroke:none;" />
  <path
     id="path13"
     d="  M 201.67731,129.42992   C 201.67731,121.67771 209.30964,112.76667 209.30964,109.01044   C 209.30964,105.93353 207.59136,99.699798 205.23373,98.820681   C 205.23373,114.80462 185.85321,127.63173 185.85321,134.0253   L 185.85321,135.0243   C 185.85321,136.62269 190.16887,146.77249 190.96807,149.80944   C 191.96707,153.68554 194.20482,162.35682 194.5245,166.15301   C 180.73835,165.83333 178.22088,144.05522 171.58755,139.61968   L 170.94819,146.25301   L 171.06807,156.44277   C 171.06807,166.95221 178.62048,182.09699 183.69538,187.69136   C 185.93313,190.16887 193.00602,195.92309 196.04297,197.28172   C 197.96104,198.12088 210.10883,203.8751 210.82811,203.8751   C 214.10482,203.8751 231.48735,187.61144 234.44437,184.65442   C 240.07871,179.02008 243.4753,163.11606 243.4753,151.36787   L 243.4753,149.80944   L 241.8769,137.02229   C 239.71907,138.34096 237.12168,149.68956 235.68313,152.7265   C 232.28654,159.7994 231.72711,159.67952 223.61526,161.55763   C 222.9759,134.18514 238.56024,142.9763 217.46144,118.72068   C 217.46144,129.62972 215.38353,136.38293 208.31064,140.13915   C 205.23373,138.54076 201.67731,133.98534 201.67731,129.42992   z "
     style="fill:#000000;fill-rule:evenodd;fill-opacity:1;stroke:none;" />
  <path
     id="path15"
     d="  M 132.8265,218.18072   L 132.8265,218.18072   L 145.57369,218.18072   L 145.57369,204.39458   L 132.8265,204.39458   z "
     style="fill:#000000;fill-rule:evenodd;fill-opacity:1;stroke:none;" />
  <path
     id="path17"
     d="  M 159.83936,218.18072   L 159.83936,218.18072   L 173.10602,218.18072   L 173.10602,204.39458   L 159.83936,204.39458   z "
     style="fill:#000000;fill-rule:evenodd;fill-opacity:1;stroke:none;" />
  <path
     id="path19"
     d="  M 186.89217,218.18072   L 186.89217,218.18072   L 200.63835,218.18072   L 200.63835,204.39458   L 186.89217,204.39458   z "
     style="fill:#000000;fill-rule:evenodd;fill-opacity:1;stroke:none;" />
  <path
     id="path21"
     d="  M 213.90502,218.18072   L 227.69116,218.18072   L 227.69116,204.39458   L 222.05682,204.39458   C 219.37951,204.39458 216.46245,207.79116 213.90502,208.47048   z "
     style="fill:#000000;fill-rule:evenodd;fill-opacity:1;stroke:none;" />
  <path
     id="path23"
     d="  M 132.8265,242.15662   L 132.8265,242.15662   L 145.57369,242.15662   L 145.57369,228.88996   L 132.8265,228.88996   z "
     style="fill:#000000;fill-rule:evenodd;fill-opacity:1;stroke:none;" />
  <path
     id="path25"
     d="  M 159.83936,242.15662   L 159.83936,242.15662   L 173.10602,242.15662   L 173.10602,228.88996   L 159.83936,228.88996   z "
     style="fill:#000000;fill-rule:evenodd;fill-opacity:1;stroke:none;" />
  <path
     id="path27"
     d="  M 186.89217,242.15662   L 186.89217,242.15662   L 200.63835,242.15662   L 200.63835,228.88996   L 186.89217,228.88996   z "
     style="fill:#000000;fill-rule:evenodd;fill-opacity:1;stroke:none;" />
  <path
     id="path29"
     d="  M 213.90502,242.15662   L 213.90502,242.15662   L 227.69116,242.15662   L 227.69116,228.88996   L 213.90502,228.88996   z "
     style="fill:#000000;fill-rule:evenodd;fill-opacity:1;stroke:none;" />
</svg>
