<?xml version="1.0" encoding="UTF-8" standalone="no"?>
<svg
   xmlns:dc="http://purl.org/dc/elements/1.1/"
   xmlns:cc="http://creativecommons.org/ns#"
   xmlns:rdf="http://www.w3.org/1999/02/22-rdf-syntax-ns#"
   xmlns:svg="http://www.w3.org/2000/svg"
   xmlns="http://www.w3.org/2000/svg"
   id="svg13"
   height="89.669998mm"
   width="120.11mm"
   version="1.0">
  <metadata
     id="metadata17">
    <rdf:RDF>
      <cc:Work
         rdf:about="">
        <dc:format>image/svg+xml</dc:format>
        <dc:type
           rdf:resource="http://purl.org/dc/dcmitype/StillImage" />
      </cc:Work>
    </rdf:RDF>
  </metadata>
  <defs
     id="defs3">
    <pattern
       y="0"
       x="0"
       height="6"
       width="6"
       patternUnits="userSpaceOnUse"
       id="EMFhbasepattern" />
  </defs>
  <path
     id="path5"
     d="  M 54.345381,54.345381   L 54.345381,284.51405   L 399.59839,284.51405   L 399.59839,54.345381   L 54.345381,54.345381   z "
     style="fill:#80e0ff;fill-rule:evenodd;fill-opacity:1;stroke:none;" />
  <path
     id="path7"
     d="  M 54.345381,54.345381   L 399.59839,54.345381   L 399.59839,284.51405   L 54.345381,284.51405   z "
     style="fill:none;stroke:#000000;stroke-width:9.5903616px;stroke-linecap:butt;stroke-linejoin:miter;stroke-miterlimit:10;stroke-dasharray:none;stroke-opacity:1;" />
  <path
     id="path9"
     d="  M 208.1508,124.35502   L 208.1508,266.89176   C 208.1508,270.16847 219.37951,269.88875 223.25562,269.88875   L 228.29056,269.88875   C 232.16666,269.88875 243.39538,270.16847 243.39538,266.89176   L 243.39538,124.35502   C 243.39538,113.3261 208.1508,113.44598 208.1508,124.35502   z "
     style="fill:#ffffff;fill-rule:evenodd;fill-opacity:1;stroke:none;" />
  <path
     id="path11"
     d="  M 208.1508,124.35502   C 208.1508,113.44598 243.39538,113.3261 243.39538,124.35502   L 243.39538,266.89176   C 243.39538,270.16847 232.16666,269.88875 228.29056,269.88875   L 223.25562,269.88875   C 219.37951,269.88875 208.1508,270.16847 208.1508,266.89176   z  M 221.73715,71.488152   L 205.11385,71.488152   L 205.11385,79.040561   L 221.25763,79.040561   L 221.25763,87.112449   L 211.66727,87.112449   L 211.66727,92.147388   L 221.25763,92.147388   L 221.25763,105.73373   L 209.66927,105.73373   L 209.66927,117.32209   C 206.99196,118.04136 204.63433,121.39799 204.63433,124.8745   L 204.63433,265.37329   C 204.63433,273.84478 214.2247,273.44518 222.73614,273.44518   L 228.81004,273.44518   C 237.4014,273.44518 246.91184,273.96465 246.91184,265.37329   L 246.91184,125.87349   C 246.91184,118.72068 242.39638,118.68072 242.39638,116.32309   L 242.39638,105.73373   L 230.28855,105.73373   L 230.28855,79.040561   L 246.43233,79.040561   L 246.43233,71.488152   L 229.28955,71.488152   L 229.28955,64.934738   L 221.73715,64.934738   L 221.73715,71.488152   z "
     style="fill:#000000;fill-rule:evenodd;fill-opacity:1;stroke:none;" />
</svg>
