<?xml version="1.0" encoding="UTF-8" standalone="no"?>
<svg
   xmlns:dc="http://purl.org/dc/elements/1.1/"
   xmlns:cc="http://creativecommons.org/ns#"
   xmlns:rdf="http://www.w3.org/1999/02/22-rdf-syntax-ns#"
   xmlns:svg="http://www.w3.org/2000/svg"
   xmlns="http://www.w3.org/2000/svg"
   id="svg15"
   height="112.9mm"
   width="112.9mm"
   version="1.0">
  <metadata
     id="metadata19">
    <rdf:RDF>
      <cc:Work
         rdf:about="">
        <dc:format>image/svg+xml</dc:format>
        <dc:type
           rdf:resource="http://purl.org/dc/dcmitype/StillImage" />
      </cc:Work>
    </rdf:RDF>
  </metadata>
  <defs
     id="defs3">
    <pattern
       y="0"
       x="0"
       height="6"
       width="6"
       patternUnits="userSpaceOnUse"
       id="EMFhbasepattern" />
  </defs>
  <path
     id="path5"
     d="  M 1817.5455,1817.5455   L 2097.821,1817.5455   L 2097.821,2097.821   L 1817.5455,2097.821   z "
     style="fill:#aaffaa;fill-rule:nonzero;fill-opacity:1;stroke:#000000;stroke-width:10.649107px;stroke-linecap:butt;stroke-linejoin:miter;stroke-miterlimit:282;stroke-dasharray:none;stroke-opacity:1;" />
  <path
     id="path7"
     d="  M 1886.3116,1884.2346   L 2029.0172,1884.2346   L 2029.0172,1980.0388   L 1886.3116,1980.0388   z "
     style="fill:none;stroke:#000000;stroke-width:6.3819113px;stroke-linecap:round;stroke-linejoin:miter;stroke-miterlimit:282;stroke-dasharray:none;stroke-opacity:1;" />
  <path
     id="path9"
     d="  M 1958.4763,1867.3169   L 1957.9476,1998.0894  "
     style="fill:none;stroke:#000000;stroke-width:6.3819113px;stroke-linecap:butt;stroke-linejoin:miter;stroke-miterlimit:282;stroke-dasharray:none;stroke-opacity:1;" />
  <path
     id="path11"
     d="  M 1915.7288,2051.5615   L 1915.7288,2005.793   L 1921.9596,2005.793   L 1945.9768,2041.7055   L 1945.9768,2005.793   L 1951.7923,2005.793   L 1951.7923,2051.5615   L 1945.5992,2051.5615   L 1921.5443,2015.5736   L 1921.5443,2051.5615   z "
     style="fill:#000000;fill-rule:nonzero;fill-opacity:1;stroke:none;" />
  <path
     id="path13"
     d="  M 1994.653,2035.5124   L 2000.7328,2037.0229   C 1999.4489,2042.0076 1997.1831,2045.8216 1993.86,2048.4272   C 1990.5746,2051.0329 1986.534,2052.3168 1981.7759,2052.3168   C 1976.829,2052.3168 1972.8261,2051.335 1969.7296,2049.3335   C 1966.633,2047.2943 1964.2917,2044.3866 1962.6679,2040.6103   C 1961.0819,2036.7963 1960.2511,2032.6801 1960.2511,2028.3374   C 1960.2511,2023.5416 1961.1574,2019.3876 1963.0078,2015.8379   C 1964.8204,2012.2882 1967.3883,2009.6071 1970.7492,2007.7567   C 1974.1101,2005.9063 1977.8108,2005 1981.8514,2005   C 1986.4585,2005 1990.3103,2006.1707 1993.4068,2008.512   C 1996.5412,2010.8155 1998.7314,2014.1009 1999.9398,2018.3303   L 1993.9733,2019.7275   C 1992.9159,2016.4044 1991.3677,2013.9876 1989.3662,2012.4771   C 1987.327,2010.9288 1984.7969,2010.1735 1981.7381,2010.1735   C 1978.2262,2010.1735 1975.2807,2011.0421 1972.9017,2012.7036   C 1970.5604,2014.403 1968.8988,2016.6687 1967.9547,2019.5009   C 1966.9729,2022.3331 1966.5197,2025.2786 1966.5197,2028.2997   C 1966.5197,2032.1892 1967.0862,2035.5879 1968.2191,2038.4956   C 1969.3519,2041.4034 1971.089,2043.5558 1973.5059,2044.9908   C 1975.8849,2046.4258 1978.4905,2047.1433 1981.285,2047.1433   C 1984.6459,2047.1433 1987.5536,2046.1615 1989.8949,2044.1978   C 1992.2362,2042.2719 1993.8222,2039.3642 1994.653,2035.5124   z "
     style="fill:#000000;fill-rule:nonzero;fill-opacity:1;stroke:none;" />
</svg>
