<?xml version="1.0" encoding="UTF-8" standalone="no"?>
<svg
   xmlns:dc="http://purl.org/dc/elements/1.1/"
   xmlns:cc="http://creativecommons.org/ns#"
   xmlns:rdf="http://www.w3.org/1999/02/22-rdf-syntax-ns#"
   xmlns:svg="http://www.w3.org/2000/svg"
   xmlns="http://www.w3.org/2000/svg"
   id="svg17"
   height="116.73mm"
   width="116.73mm"
   version="1.0">
  <metadata
     id="metadata21">
    <rdf:RDF>
      <cc:Work
         rdf:about="">
        <dc:format>image/svg+xml</dc:format>
        <dc:type
           rdf:resource="http://purl.org/dc/dcmitype/StillImage" />
      </cc:Work>
    </rdf:RDF>
  </metadata>
  <defs
     id="defs3">
    <pattern
       y="0"
       x="0"
       height="6"
       width="6"
       patternUnits="userSpaceOnUse"
       id="EMFhbasepattern" />
  </defs>
  <path
     id="path5"
     d="  M 220.57831,386.49156   L 220.57831,386.49156   L 386.49156,220.57831   L 220.57831,54.665059   L 54.665059,220.57831   z "
     style="fill:#ff8080;fill-rule:evenodd;fill-opacity:1;stroke:none;" />
  <path
     id="path7"
     d="  M 220.57831,386.49156   L 220.57831,386.49156   L 386.49156,220.57831   L 220.57831,54.665059   L 54.665059,220.57831   z "
     style="fill:none;stroke:#000000;stroke-width:9.5903616px;stroke-linecap:butt;stroke-linejoin:miter;stroke-miterlimit:10;stroke-dasharray:none;stroke-opacity:1;" />
  <path
     id="path9"
     d="  M 326.07228,220.57831   L 326.07228,220.57831   L 297.3012,282.91566   L 143.85542,282.91566   L 115.08434,220.57831   L 134.26506,220.57831   L 134.26506,167.83132   L 143.85542,196.60241   L 297.3012,196.60241   L 306.89156,167.83132   L 306.89156,220.57831   z "
     style="fill:#000000;fill-rule:evenodd;fill-opacity:1;stroke:none;" />
  <path
     id="path11"
     d="  M 326.07228,220.57831   L 326.07228,220.57831   L 297.3012,282.91566   L 143.85542,282.91566   L 115.08434,220.57831   L 134.26506,220.57831   L 134.26506,167.83132   L 143.85542,196.60241   L 297.3012,196.60241   L 306.89156,167.83132   L 306.89156,220.57831   z "
     style="fill:none;stroke:#000000;stroke-width:0.95903611px;stroke-linecap:butt;stroke-linejoin:miter;stroke-miterlimit:10;stroke-dasharray:none;stroke-opacity:1;" />
  <path
     id="path13"
     d="  M 181.81727,263.09558   L 181.81727,221.89698   L 187.41164,221.89698   L 209.02992,254.26445   L 209.02992,221.89698   L 214.26466,221.89698   L 214.26466,263.09558   L 208.67028,263.09558   L 187.05201,230.72811   L 187.05201,263.09558   z  M 252.8259,248.67008   L 258.26044,250.02871   C 257.14156,254.50421 255.06365,257.94076 252.10662,260.25843   C 249.14959,262.61606 245.51325,263.81486 241.23755,263.81486   C 236.76204,263.81486 233.16566,262.89578 230.40843,261.09759   C 227.61124,259.29939 225.49337,256.66204 224.05482,253.2255   C 222.5763,249.82891 221.85702,246.11265 221.85702,242.19658   C 221.85702,237.92088 222.69618,234.16466 224.33453,230.96787   C 225.97289,227.77108 228.29056,225.33353 231.32751,223.69518   C 234.32449,222.01686 237.68112,221.21767 241.31747,221.21767   C 245.43333,221.21767 248.90984,222.25662 251.70702,224.33453   C 254.50421,226.45241 256.46225,229.40943 257.58112,233.20562   L 252.18654,234.48433   C 251.26747,231.48735 249.86887,229.28955 248.03072,227.93092   C 246.23253,226.57229 243.95482,225.85301 241.19759,225.85301   C 238.04076,225.85301 235.36345,226.61225 233.24558,228.13072   C 231.12771,229.64919 229.64919,231.68715 228.77008,234.24457   C 227.93092,236.802 227.49136,239.43935 227.49136,242.15662   C 227.49136,245.67309 228.01084,248.71004 229.00984,251.34739   C 230.04879,253.94478 231.60723,255.90281 233.76506,257.18152   C 235.92289,258.5002 238.28052,259.13955 240.75803,259.13955   C 243.83494,259.13955 246.39237,258.26044 248.51024,256.50221   C 250.62811,254.74397 252.06666,252.10662 252.8259,248.67008   z "
     style="fill:#ffffff;fill-rule:evenodd;fill-opacity:1;stroke:none;" />
  <path
     id="path15"
     d="  M 181.81727,263.09558   L 181.81727,221.89698   L 187.41164,221.89698   L 209.02992,254.26445   L 209.02992,221.89698   L 214.26466,221.89698   L 214.26466,263.09558   L 208.67028,263.09558   L 187.05201,230.72811   L 187.05201,263.09558   z  M 252.8259,248.67008   L 258.26044,250.02871   C 257.14156,254.50421 255.06365,257.94076 252.10662,260.25843   C 249.14959,262.61606 245.51325,263.81486 241.23755,263.81486   C 236.76204,263.81486 233.16566,262.89578 230.40843,261.09759   C 227.61124,259.29939 225.49337,256.66204 224.05482,253.2255   C 222.5763,249.82891 221.85702,246.11265 221.85702,242.19658   C 221.85702,237.92088 222.69618,234.16466 224.33453,230.96787   C 225.97289,227.77108 228.29056,225.33353 231.32751,223.69518   C 234.32449,222.01686 237.68112,221.21767 241.31747,221.21767   C 245.43333,221.21767 248.90984,222.25662 251.70702,224.33453   C 254.50421,226.45241 256.46225,229.40943 257.58112,233.20562   L 252.18654,234.48433   C 251.26747,231.48735 249.86887,229.28955 248.03072,227.93092   C 246.23253,226.57229 243.95482,225.85301 241.19759,225.85301   C 238.04076,225.85301 235.36345,226.61225 233.24558,228.13072   C 231.12771,229.64919 229.64919,231.68715 228.77008,234.24457   C 227.93092,236.802 227.49136,239.43935 227.49136,242.15662   C 227.49136,245.67309 228.01084,248.71004 229.00984,251.34739   C 230.04879,253.94478 231.60723,255.90281 233.76506,257.18152   C 235.92289,258.5002 238.28052,259.13955 240.75803,259.13955   C 243.83494,259.13955 246.39237,258.26044 248.51024,256.50221   C 250.62811,254.74397 252.06666,252.10662 252.8259,248.67008   z "
     style="fill:none;stroke:#ffffff;stroke-width:0.95903611px;stroke-linecap:butt;stroke-linejoin:miter;stroke-miterlimit:10;stroke-dasharray:none;stroke-opacity:1;" />
</svg>
