<?xml version="1.0" encoding="UTF-8" standalone="no"?>
<svg
   xmlns:dc="http://purl.org/dc/elements/1.1/"
   xmlns:cc="http://creativecommons.org/ns#"
   xmlns:rdf="http://www.w3.org/1999/02/22-rdf-syntax-ns#"
   xmlns:svg="http://www.w3.org/2000/svg"
   xmlns="http://www.w3.org/2000/svg"
   id="svg17"
   height="101.85mm"
   width="101.85mm"
   version="1.0">
  <metadata
     id="metadata21">
    <rdf:RDF>
      <cc:Work
         rdf:about="">
        <dc:format>image/svg+xml</dc:format>
        <dc:type
           rdf:resource="http://purl.org/dc/dcmitype/StillImage" />
      </cc:Work>
    </rdf:RDF>
  </metadata>
  <defs
     id="defs3">
    <pattern
       y="0"
       x="0"
       height="6"
       width="6"
       patternUnits="userSpaceOnUse"
       id="EMFhbasepattern" />
  </defs>
  <path
     id="path5"
     d="  M 330.54779,192.44658   C 330.54779,268.72992 268.72992,330.54779 192.44658,330.54779   C 116.20321,330.54779 54.345381,268.72992 54.345381,192.44658   C 54.345381,116.20321 116.20321,54.345381 192.44658,54.345381   C 268.72992,54.345381 330.54779,116.20321 330.54779,192.44658   z "
     style="fill:#80e0ff;fill-rule:evenodd;fill-opacity:1;stroke:none;" />
  <path
     id="path7"
     d="  M 330.54779,192.44658   C 330.54779,268.72992 268.72992,330.54779 192.44658,330.54779   C 116.20321,330.54779 54.345381,268.72992 54.345381,192.44658   C 54.345381,116.20321 116.20321,54.345381 192.44658,54.345381   C 268.72992,54.345381 330.54779,116.20321 330.54779,192.44658  "
     style="fill:none;stroke:#000000;stroke-width:9.5903616px;stroke-linecap:butt;stroke-linejoin:miter;stroke-miterlimit:10;stroke-dasharray:none;stroke-opacity:1;" />
  <path
     id="path9"
     d="  M 297.94056,192.44658   L 297.94056,192.44658   L 269.16947,254.78393   L 115.72369,254.78393   L 86.952609,192.44658   L 106.13333,192.44658   L 106.13333,139.6996   L 115.72369,168.47068   L 269.16947,168.47068   L 278.75984,139.6996   L 278.75984,192.44658   z "
     style="fill:#000000;fill-rule:evenodd;fill-opacity:1;stroke:none;" />
  <path
     id="path11"
     d="  M 297.94056,192.44658   L 297.94056,192.44658   L 269.16947,254.78393   L 115.72369,254.78393   L 86.952609,192.44658   L 106.13333,192.44658   L 106.13333,139.6996   L 115.72369,168.47068   L 269.16947,168.47068   L 278.75984,139.6996   L 278.75984,192.44658   z "
     style="fill:none;stroke:#000000;stroke-width:0.95903611px;stroke-linecap:butt;stroke-linejoin:miter;stroke-miterlimit:10;stroke-dasharray:none;stroke-opacity:1;" />
  <path
     id="path13"
     d="  M 153.68554,234.96385   L 153.68554,193.76526   L 159.27992,193.76526   L 180.89819,226.13273   L 180.89819,193.76526   L 186.13293,193.76526   L 186.13293,234.96385   L 180.53855,234.96385   L 158.92028,202.59638   L 158.92028,234.96385   z  M 224.69417,220.53835   L 230.12871,221.89698   C 229.00984,226.37249 226.93192,229.80903 223.9749,232.1267   C 221.01787,234.48433 217.38152,235.68313 213.10582,235.68313   C 208.63032,235.68313 205.03393,234.76405 202.2767,232.96586   C 199.47952,231.16767 197.36164,228.53032 195.92309,225.09377   C 194.44458,221.69719 193.7253,217.98092 193.7253,214.06486   C 193.7253,209.78915 194.56446,206.03293 196.20281,202.83614   C 197.84116,199.63935 200.15883,197.2018 203.19578,195.56345   C 206.19277,193.88514 209.54939,193.08594 213.18574,193.08594   C 217.3016,193.08594 220.77811,194.1249 223.5753,196.20281   C 226.37249,198.32068 228.33052,201.27771 229.44939,205.07389   L 224.05482,206.35261   C 223.13574,203.35562 221.73715,201.15783 219.89899,199.79919   C 218.1008,198.44056 215.82309,197.72128 213.06586,197.72128   C 209.90903,197.72128 207.23172,198.48052 205.11385,199.99899   C 202.99598,201.51747 201.51747,203.55542 200.63835,206.11285   C 199.79919,208.67028 199.35964,211.30763 199.35964,214.0249   C 199.35964,217.54136 199.87911,220.57831 200.87811,223.21566   C 201.91707,225.81305 203.4755,227.77108 205.63333,229.0498   C 207.79116,230.36847 210.14879,231.00783 212.6263,231.00783   C 215.70321,231.00783 218.26064,230.12871 220.37851,228.37048   C 222.49638,226.61225 223.93494,223.9749 224.69417,220.53835   z "
     style="fill:#ffffff;fill-rule:evenodd;fill-opacity:1;stroke:none;" />
  <path
     id="path15"
     d="  M 153.68554,234.96385   L 153.68554,193.76526   L 159.27992,193.76526   L 180.89819,226.13273   L 180.89819,193.76526   L 186.13293,193.76526   L 186.13293,234.96385   L 180.53855,234.96385   L 158.92028,202.59638   L 158.92028,234.96385   z  M 224.69417,220.53835   L 230.12871,221.89698   C 229.00984,226.37249 226.93192,229.80903 223.9749,232.1267   C 221.01787,234.48433 217.38152,235.68313 213.10582,235.68313   C 208.63032,235.68313 205.03393,234.76405 202.2767,232.96586   C 199.47952,231.16767 197.36164,228.53032 195.92309,225.09377   C 194.44458,221.69719 193.7253,217.98092 193.7253,214.06486   C 193.7253,209.78915 194.56446,206.03293 196.20281,202.83614   C 197.84116,199.63935 200.15883,197.2018 203.19578,195.56345   C 206.19277,193.88514 209.54939,193.08594 213.18574,193.08594   C 217.3016,193.08594 220.77811,194.1249 223.5753,196.20281   C 226.37249,198.32068 228.33052,201.27771 229.44939,205.07389   L 224.05482,206.35261   C 223.13574,203.35562 221.73715,201.15783 219.89899,199.79919   C 218.1008,198.44056 215.82309,197.72128 213.06586,197.72128   C 209.90903,197.72128 207.23172,198.48052 205.11385,199.99899   C 202.99598,201.51747 201.51747,203.55542 200.63835,206.11285   C 199.79919,208.67028 199.35964,211.30763 199.35964,214.0249   C 199.35964,217.54136 199.87911,220.57831 200.87811,223.21566   C 201.91707,225.81305 203.4755,227.77108 205.63333,229.0498   C 207.79116,230.36847 210.14879,231.00783 212.6263,231.00783   C 215.70321,231.00783 218.26064,230.12871 220.37851,228.37048   C 222.49638,226.61225 223.93494,223.9749 224.69417,220.53835   z "
     style="fill:none;stroke:#ffffff;stroke-width:0.95903611px;stroke-linecap:butt;stroke-linejoin:miter;stroke-miterlimit:10;stroke-dasharray:none;stroke-opacity:1;" />
</svg>
