<?xml version="1.0" encoding="UTF-8" standalone="no"?>
<svg
   xmlns:dc="http://purl.org/dc/elements/1.1/"
   xmlns:cc="http://creativecommons.org/ns#"
   xmlns:rdf="http://www.w3.org/1999/02/22-rdf-syntax-ns#"
   xmlns:svg="http://www.w3.org/2000/svg"
   xmlns="http://www.w3.org/2000/svg"
   id="svg17"
   height="130.27mm"
   width="130.27mm"
   version="1.0">
  <metadata
     id="metadata21">
    <rdf:RDF>
      <cc:Work
         rdf:about="">
        <dc:format>image/svg+xml</dc:format>
        <dc:type
           rdf:resource="http://purl.org/dc/dcmitype/StillImage" />
      </cc:Work>
    </rdf:RDF>
  </metadata>
  <defs
     id="defs3">
    <pattern
       y="0"
       x="0"
       height="6"
       width="6"
       patternUnits="userSpaceOnUse"
       id="EMFhbasepattern" />
  </defs>
  <path
     id="path5"
     d="  M 164.63454,327.67068   C 164.63454,437.95983 327.67068,437.95983 327.67068,327.67068   C 437.95983,327.67068 437.95983,164.63454 327.67068,164.63454   C 327.67068,54.345381 164.63454,54.345381 164.63454,164.63454   C 54.345381,164.63454 54.345381,327.67068 164.63454,327.67068   z "
     style="fill:#ffff80;fill-rule:evenodd;fill-opacity:1;stroke:none;" />
  <path
     id="path7"
     d="  M 164.63454,327.67068   C 164.63454,437.95983 327.67068,437.95983 327.67068,327.67068   C 437.95983,327.67068 437.95983,164.63454 327.67068,164.63454   C 327.67068,54.345381 164.63454,54.345381 164.63454,164.63454   C 54.345381,164.63454 54.345381,327.67068 164.63454,327.67068  "
     style="fill:none;stroke:#000000;stroke-width:9.5903616px;stroke-linecap:butt;stroke-linejoin:miter;stroke-miterlimit:10;stroke-dasharray:none;stroke-opacity:1;" />
  <path
     id="path9"
     d="  M 351.64658,246.15261   L 351.64658,246.15261   L 322.8755,308.48996   L 169.42972,308.48996   L 140.65863,246.15261   L 159.83936,246.15261   L 159.83936,193.40562   L 169.42972,222.1767   L 322.8755,222.1767   L 332.46586,193.40562   L 332.46586,246.15261   z "
     style="fill:#000000;fill-rule:evenodd;fill-opacity:1;stroke:none;" />
  <path
     id="path11"
     d="  M 351.64658,246.15261   L 351.64658,246.15261   L 322.8755,308.48996   L 169.42972,308.48996   L 140.65863,246.15261   L 159.83936,246.15261   L 159.83936,193.40562   L 169.42972,222.1767   L 322.8755,222.1767   L 332.46586,193.40562   L 332.46586,246.15261   z "
     style="fill:none;stroke:#000000;stroke-width:0.95903611px;stroke-linecap:butt;stroke-linejoin:miter;stroke-miterlimit:10;stroke-dasharray:none;stroke-opacity:1;" />
  <path
     id="path13"
     d="  M 207.39156,288.66988   L 207.39156,247.47128   L 212.98594,247.47128   L 234.60421,279.83875   L 234.60421,247.47128   L 239.83895,247.47128   L 239.83895,288.66988   L 234.24457,288.66988   L 212.6263,256.30241   L 212.6263,288.66988   z  M 278.4002,274.24437   L 283.83473,275.60301   C 282.71586,280.07851 280.63795,283.51506 277.68092,285.83273   C 274.72389,288.19036 271.08755,289.38915 266.81184,289.38915   C 262.33634,289.38915 258.73996,288.47008 255.98273,286.67188   C 253.18554,284.87369 251.06767,282.23634 249.62911,278.7998   C 248.1506,275.40321 247.43132,271.68694 247.43132,267.77088   C 247.43132,263.49518 248.27048,259.73895 249.90883,256.54216   C 251.54719,253.34538 253.86486,250.90783 256.9018,249.26947   C 259.89879,247.59116 263.25542,246.79196 266.89176,246.79196   C 271.00763,246.79196 274.48413,247.83092 277.28132,249.90883   C 280.07851,252.0267 282.03654,254.98373 283.15542,258.77992   L 277.76084,260.05863   C 276.84176,257.06164 275.44317,254.86385 273.60502,253.50522   C 271.80682,252.14658 269.52911,251.42731 266.77188,251.42731   C 263.61506,251.42731 260.93775,252.18654 258.81988,253.70502   C 256.702,255.22349 255.22349,257.26144 254.34437,259.81887   C 253.50522,262.3763 253.06566,265.01365 253.06566,267.73092   C 253.06566,271.24739 253.58514,274.28433 254.58413,276.92168   C 255.62309,279.51907 257.18152,281.4771 259.33935,282.75582   C 261.49718,284.07449 263.85482,284.71385 266.33233,284.71385   C 269.40923,284.71385 271.96666,283.83473 274.08453,282.0765   C 276.20241,280.31827 277.64096,277.68092 278.4002,274.24437   z "
     style="fill:#ffffff;fill-rule:evenodd;fill-opacity:1;stroke:none;" />
  <path
     id="path15"
     d="  M 207.39156,288.66988   L 207.39156,247.47128   L 212.98594,247.47128   L 234.60421,279.83875   L 234.60421,247.47128   L 239.83895,247.47128   L 239.83895,288.66988   L 234.24457,288.66988   L 212.6263,256.30241   L 212.6263,288.66988   z  M 278.4002,274.24437   L 283.83473,275.60301   C 282.71586,280.07851 280.63795,283.51506 277.68092,285.83273   C 274.72389,288.19036 271.08755,289.38915 266.81184,289.38915   C 262.33634,289.38915 258.73996,288.47008 255.98273,286.67188   C 253.18554,284.87369 251.06767,282.23634 249.62911,278.7998   C 248.1506,275.40321 247.43132,271.68694 247.43132,267.77088   C 247.43132,263.49518 248.27048,259.73895 249.90883,256.54216   C 251.54719,253.34538 253.86486,250.90783 256.9018,249.26947   C 259.89879,247.59116 263.25542,246.79196 266.89176,246.79196   C 271.00763,246.79196 274.48413,247.83092 277.28132,249.90883   C 280.07851,252.0267 282.03654,254.98373 283.15542,258.77992   L 277.76084,260.05863   C 276.84176,257.06164 275.44317,254.86385 273.60502,253.50522   C 271.80682,252.14658 269.52911,251.42731 266.77188,251.42731   C 263.61506,251.42731 260.93775,252.18654 258.81988,253.70502   C 256.702,255.22349 255.22349,257.26144 254.34437,259.81887   C 253.50522,262.3763 253.06566,265.01365 253.06566,267.73092   C 253.06566,271.24739 253.58514,274.28433 254.58413,276.92168   C 255.62309,279.51907 257.18152,281.4771 259.33935,282.75582   C 261.49718,284.07449 263.85482,284.71385 266.33233,284.71385   C 269.40923,284.71385 271.96666,283.83473 274.08453,282.0765   C 276.20241,280.31827 277.64096,277.68092 278.4002,274.24437   z "
     style="fill:none;stroke:#ffffff;stroke-width:0.95903611px;stroke-linecap:butt;stroke-linejoin:miter;stroke-miterlimit:10;stroke-dasharray:none;stroke-opacity:1;" />
</svg>
