<?xml version="1.0" encoding="UTF-8" standalone="no"?>
<svg
   xmlns:dc="http://purl.org/dc/elements/1.1/"
   xmlns:cc="http://creativecommons.org/ns#"
   xmlns:rdf="http://www.w3.org/1999/02/22-rdf-syntax-ns#"
   xmlns:svg="http://www.w3.org/2000/svg"
   xmlns="http://www.w3.org/2000/svg"
   id="svg15"
   height="112.9mm"
   width="112.9mm"
   version="1.0">
  <metadata
     id="metadata19">
    <rdf:RDF>
      <cc:Work
         rdf:about="">
        <dc:format>image/svg+xml</dc:format>
        <dc:type
           rdf:resource="http://purl.org/dc/dcmitype/StillImage" />
      </cc:Work>
    </rdf:RDF>
  </metadata>
  <defs
     id="defs3">
    <pattern
       y="0"
       x="0"
       height="6"
       width="6"
       patternUnits="userSpaceOnUse"
       id="EMFhbasepattern" />
  </defs>
  <path
     id="path5"
     d="  M 2001.396,2185.7917   L 2185.7917,2001.4337   L 2001.396,1817.038   L 1817.038,2001.4337   z "
     style="fill:#ff8080;fill-rule:nonzero;fill-opacity:1;stroke:#000000;stroke-width:10.649107px;stroke-linecap:butt;stroke-linejoin:miter;stroke-miterlimit:282;stroke-dasharray:none;stroke-opacity:1;" />
  <path
     id="path7"
     d="  M 1929.4956,1925.6438   L 2072.2012,1925.6438   L 2072.2012,2021.4103   L 1929.4956,2021.4103   z "
     style="fill:none;stroke:#000000;stroke-width:6.3819113px;stroke-linecap:round;stroke-linejoin:miter;stroke-miterlimit:282;stroke-dasharray:none;stroke-opacity:1;" />
  <path
     id="path9"
     d="  M 2001.6603,1908.6883   L 2001.1316,2039.4609  "
     style="fill:none;stroke:#000000;stroke-width:6.3819113px;stroke-linecap:butt;stroke-linejoin:miter;stroke-miterlimit:282;stroke-dasharray:none;stroke-opacity:1;" />
  <path
     id="path11"
     d="  M 1958.9128,2092.933   L 1958.9128,2047.1645   L 1965.1437,2047.1645   L 1989.1608,2083.0769   L 1989.1608,2047.1645   L 1994.9763,2047.1645   L 1994.9763,2092.933   L 1988.7832,2092.933   L 1964.7283,2056.945   L 1964.7283,2092.933   z "
     style="fill:#000000;fill-rule:nonzero;fill-opacity:1;stroke:none;" />
  <path
     id="path13"
     d="  M 2037.8371,2076.8838   L 2043.9169,2078.3943   C 2042.6329,2083.379 2040.3672,2087.193 2037.0441,2089.7987   C 2033.7587,2092.4043 2029.7181,2093.726 2024.96,2093.726   C 2020.013,2093.726 2016.0102,2092.7064 2012.9136,2090.705   C 2009.8171,2088.7036 2007.4758,2085.7958 2005.852,2081.9818   C 2004.266,2078.1677 2003.4352,2074.0894 2003.4352,2069.7089   C 2003.4352,2064.9508 2004.3415,2060.7591 2006.1919,2057.2094   C 2008.0045,2053.6597 2010.5723,2050.9785 2013.9332,2049.1281   C 2017.2941,2047.3155 2020.9949,2046.3715 2025.0355,2046.3715   C 2029.6425,2046.3715 2033.4944,2047.5421 2036.5909,2049.8834   C 2039.7252,2052.1869 2041.9155,2055.4723 2043.1239,2059.7017   L 2037.1573,2061.099   C 2036.1,2057.7758 2034.5517,2055.359 2032.5503,2053.8485   C 2030.5111,2052.338 2027.981,2051.545 2024.9222,2051.545   C 2021.4103,2051.545 2018.4648,2052.4135 2016.0857,2054.0751   C 2013.7444,2055.7744 2012.0829,2058.0402 2011.1388,2060.8724   C 2010.1569,2063.7046 2009.7038,2066.6501 2009.7038,2069.6711   C 2009.7038,2073.5607 2010.2702,2076.9593 2011.4031,2079.8671   C 2012.536,2082.7748 2014.2731,2084.9273 2016.6899,2086.3623   C 2019.069,2087.7972 2021.6746,2088.5147 2024.469,2088.5147   C 2027.8299,2088.5147 2030.7377,2087.5329 2033.079,2085.607   C 2035.4203,2083.6433 2037.0063,2080.7356 2037.8371,2076.8838   z "
     style="fill:#000000;fill-rule:nonzero;fill-opacity:1;stroke:none;" />
</svg>
