<?xml version="1.0" encoding="UTF-8" standalone="no"?>
<svg
   xmlns:dc="http://purl.org/dc/elements/1.1/"
   xmlns:cc="http://creativecommons.org/ns#"
   xmlns:rdf="http://www.w3.org/1999/02/22-rdf-syntax-ns#"
   xmlns:svg="http://www.w3.org/2000/svg"
   xmlns="http://www.w3.org/2000/svg"
   id="svg29"
   height="89.669998mm"
   width="120.11mm"
   version="1.0">
  <metadata
     id="metadata33">
    <rdf:RDF>
      <cc:Work
         rdf:about="">
        <dc:format>image/svg+xml</dc:format>
        <dc:type
           rdf:resource="http://purl.org/dc/dcmitype/StillImage" />
      </cc:Work>
    </rdf:RDF>
  </metadata>
  <defs
     id="defs3">
    <pattern
       y="0"
       x="0"
       height="6"
       width="6"
       patternUnits="userSpaceOnUse"
       id="EMFhbasepattern" />
  </defs>
  <path
     id="path5"
     d="  M 54.345381,54.345381   L 54.345381,284.51405   L 399.59839,284.51405   L 399.59839,54.345381   L 54.345381,54.345381   z "
     style="fill:#80e0ff;fill-rule:evenodd;fill-opacity:1;stroke:none;" />
  <path
     id="path7"
     d="  M 54.345381,54.345381   L 399.59839,54.345381   L 399.59839,284.51405   L 54.345381,284.51405   z "
     style="fill:none;stroke:#000000;stroke-width:9.5903616px;stroke-linecap:butt;stroke-linejoin:miter;stroke-miterlimit:10;stroke-dasharray:none;stroke-opacity:1;" />
  <path
     id="path9"
     d="  M 246.15261,164.63454   C 246.15261,175.26385 237.6012,183.81526 226.97188,183.81526   C 216.38253,183.81526 207.79116,175.26385 207.79116,164.63454   C 207.79116,154.04518 216.38253,145.45381 226.97188,145.45381   C 237.6012,145.45381 246.15261,154.04518 246.15261,164.63454  "
     style="fill:none;stroke:#000000;stroke-width:9.5903616px;stroke-linecap:butt;stroke-linejoin:miter;stroke-miterlimit:10;stroke-dasharray:none;stroke-opacity:1;" />
  <path
     id="path11"
     d="  M 226.97188,183.81526   L 226.97188,274.92369  "
     style="fill:none;stroke:#000000;stroke-width:9.5903616px;stroke-linecap:butt;stroke-linejoin:miter;stroke-miterlimit:10;stroke-dasharray:none;stroke-opacity:1;" />
  <path
     id="path13"
     d="  M 202.99598,207.79116   L 250.94779,207.79116  "
     style="fill:none;stroke:#000000;stroke-width:9.5903616px;stroke-linecap:butt;stroke-linejoin:miter;stroke-miterlimit:10;stroke-dasharray:none;stroke-opacity:1;" />
  <path
     id="path15"
     d="  M 188.61044,145.45381   C 188.61044,156.08313 180.05903,164.63454 169.42972,164.63454   C 158.84036,164.63454 150.24899,156.08313 150.24899,145.45381   C 150.24899,134.86446 158.84036,126.27309 169.42972,126.27309   C 180.05903,126.27309 188.61044,134.86446 188.61044,145.45381  "
     style="fill:none;stroke:#000000;stroke-width:9.5903616px;stroke-linecap:butt;stroke-linejoin:miter;stroke-miterlimit:10;stroke-dasharray:none;stroke-opacity:1;" />
  <path
     id="path17"
     d="  M 169.42972,164.63454   L 169.42972,255.74297  "
     style="fill:none;stroke:#000000;stroke-width:9.5903616px;stroke-linecap:butt;stroke-linejoin:miter;stroke-miterlimit:10;stroke-dasharray:none;stroke-opacity:1;" />
  <path
     id="path19"
     d="  M 145.45381,188.61044   L 193.40562,188.61044  "
     style="fill:none;stroke:#000000;stroke-width:9.5903616px;stroke-linecap:butt;stroke-linejoin:miter;stroke-miterlimit:10;stroke-dasharray:none;stroke-opacity:1;" />
  <path
     id="path21"
     d="  M 303.69477,145.45381   C 303.69477,156.08313 295.14337,164.63454 284.51405,164.63454   C 273.92469,164.63454 265.33333,156.08313 265.33333,145.45381   C 265.33333,134.86446 273.92469,126.27309 284.51405,126.27309   C 295.14337,126.27309 303.69477,134.86446 303.69477,145.45381  "
     style="fill:none;stroke:#000000;stroke-width:9.5903616px;stroke-linecap:butt;stroke-linejoin:miter;stroke-miterlimit:10;stroke-dasharray:none;stroke-opacity:1;" />
  <path
     id="path23"
     d="  M 284.51405,164.63454   L 284.51405,255.74297  "
     style="fill:none;stroke:#000000;stroke-width:9.5903616px;stroke-linecap:butt;stroke-linejoin:miter;stroke-miterlimit:10;stroke-dasharray:none;stroke-opacity:1;" />
  <path
     id="path25"
     d="  M 260.53815,188.61044   L 308.48996,188.61044  "
     style="fill:none;stroke:#000000;stroke-width:9.5903616px;stroke-linecap:butt;stroke-linejoin:miter;stroke-miterlimit:10;stroke-dasharray:none;stroke-opacity:1;" />
  <path
     id="path27"
     d="  M 174.4247,111.68775   L 174.4247,73.965662   L 179.53956,73.965662   L 199.3996,103.5759   L 199.3996,73.965662   L 204.15482,73.965662   L 204.15482,111.68775   L 199.03996,111.68775   L 179.21988,82.037549   L 179.21988,111.68775   z  M 230.24859,96.902609   L 230.24859,92.467067   L 246.23253,92.427107   L 246.23253,106.45301   C 243.79498,108.41104 241.23755,109.88956 238.64016,110.88855   C 236.04277,111.84759 233.36546,112.36707 230.60823,112.36707   C 226.89196,112.36707 223.53534,111.56787 220.49839,109.96948   C 217.46144,108.37108 215.18373,106.09337 213.6253,103.09638   C 212.06686,100.05944 211.30763,96.70281 211.30763,92.986545   C 211.30763,89.3502 212.06686,85.913653 213.6253,82.716866   C 215.14377,79.520079 217.34156,77.162449 220.25863,75.604015   C 223.13574,74.085541 226.45241,73.286344 230.20863,73.286344   C 232.9259,73.286344 235.40341,73.765862 237.6012,74.644979   C 239.83895,75.524095 241.55723,76.76285 242.79598,78.321284   C 244.0747,79.919678 244.99377,81.957629 245.67309,84.515059   L 241.15763,85.753814   C 240.59819,83.835742 239.87891,82.317268 239.03976,81.198392   C 238.2006,80.119477 237.0018,79.24036 235.44337,78.561043   C 233.88494,77.921686 232.1267,77.562047 230.24859,77.562047   C 227.97088,77.562047 225.97289,77.921686 224.29458,78.640963   C 222.65622,79.32028 221.29759,80.239356 220.29859,81.358232   C 219.25964,82.517067 218.46044,83.755822 217.901,85.114457   C 216.94196,87.432127 216.46245,89.949597 216.46245,92.706826   C 216.46245,96.063452 217.02188,98.860641 218.18072,101.13835   C 219.33956,103.41606 221.05783,105.09438 223.25562,106.21325   C 225.45341,107.29217 227.81104,107.8516 230.32851,107.8516   C 232.48634,107.8516 234.60421,107.41205 236.64217,106.61285   C 238.72008,105.77369 240.27851,104.85462 241.35743,103.93554   L 241.35743,96.902609   z  M 252.06666,93.306224   C 252.06666,87.032529 253.74498,82.157429 257.14156,78.601003   C 260.49819,75.044577 264.85381,73.286344 270.16847,73.286344   C 273.64498,73.286344 276.8018,74.125501 279.59899,75.763854   C 282.39618,77.442168 284.51405,79.759838 285.99257,82.756826   C 287.47108,85.713854 288.19036,89.11044 288.19036,92.866665   C 288.19036,96.70281 287.43112,100.13936 285.87269,103.13634   C 284.31425,106.17329 282.11646,108.451 279.31927,110.00944   C 276.48212,111.56787 273.40522,112.36707 270.12851,112.36707   C 266.57208,112.36707 263.41526,111.48795 260.61807,109.76968   C 257.82088,108.0514 255.70301,105.73373 254.22449,102.73675   C 252.78594,99.779717 252.06666,96.62289 252.06666,93.306224   z  M 257.22148,93.386143   C 257.22148,97.941565 258.46024,101.53795 260.89779,104.13534   C 263.33534,106.77269 266.41225,108.09136 270.08855,108.09136   C 273.88473,108.09136 276.96164,106.77269 279.39919,104.09538   C 281.83674,101.45803 283.03554,97.701806 283.03554,92.866665   C 283.03554,89.789758 282.51606,87.112449 281.4771,84.794778   C 280.43815,82.517067 278.91967,80.718874 276.92168,79.480119   C 274.92369,78.201404 272.68594,77.562047 270.16847,77.562047   C 266.652,77.562047 263.61506,78.800802 261.05763,81.238352   C 258.5002,83.635943 257.22148,87.711846 257.22148,93.386143   z "
     style="fill:#000000;fill-rule:evenodd;fill-opacity:1;stroke:none;" />
</svg>
