<?xml version="1.0" encoding="UTF-8" standalone="no"?>
<svg
   xmlns:dc="http://purl.org/dc/elements/1.1/"
   xmlns:cc="http://creativecommons.org/ns#"
   xmlns:rdf="http://www.w3.org/1999/02/22-rdf-syntax-ns#"
   xmlns:svg="http://www.w3.org/2000/svg"
   xmlns="http://www.w3.org/2000/svg"
   id="svg29"
   height="130.27mm"
   width="130.27mm"
   version="1.0">
  <metadata
     id="metadata33">
    <rdf:RDF>
      <cc:Work
         rdf:about="">
        <dc:format>image/svg+xml</dc:format>
        <dc:type
           rdf:resource="http://purl.org/dc/dcmitype/StillImage" />
      </cc:Work>
    </rdf:RDF>
  </metadata>
  <defs
     id="defs3">
    <pattern
       y="0"
       x="0"
       height="6"
       width="6"
       patternUnits="userSpaceOnUse"
       id="EMFhbasepattern" />
  </defs>
  <path
     id="path5"
     d="  M 164.63454,327.67068   C 164.63454,437.95983 327.67068,437.95983 327.67068,327.67068   C 437.95983,327.67068 437.95983,164.63454 327.67068,164.63454   C 327.67068,54.345381 164.63454,54.345381 164.63454,164.63454   C 54.345381,164.63454 54.345381,327.67068 164.63454,327.67068   z "
     style="fill:#ffff80;fill-rule:evenodd;fill-opacity:1;stroke:none;" />
  <path
     id="path7"
     d="  M 164.63454,327.67068   C 164.63454,437.95983 327.67068,437.95983 327.67068,327.67068   C 437.95983,327.67068 437.95983,164.63454 327.67068,164.63454   C 327.67068,54.345381 164.63454,54.345381 164.63454,164.63454   C 54.345381,164.63454 54.345381,327.67068 164.63454,327.67068  "
     style="fill:none;stroke:#000000;stroke-width:9.5903616px;stroke-linecap:butt;stroke-linejoin:miter;stroke-miterlimit:10;stroke-dasharray:none;stroke-opacity:1;" />
  <path
     id="path9"
     d="  M 265.33333,241.35743   C 265.33333,251.98674 256.78192,260.53815 246.15261,260.53815   C 235.56325,260.53815 226.97188,251.98674 226.97188,241.35743   C 226.97188,230.76807 235.56325,222.1767 246.15261,222.1767   C 256.78192,222.1767 265.33333,230.76807 265.33333,241.35743  "
     style="fill:none;stroke:#000000;stroke-width:9.5903616px;stroke-linecap:butt;stroke-linejoin:miter;stroke-miterlimit:10;stroke-dasharray:none;stroke-opacity:1;" />
  <path
     id="path11"
     d="  M 246.15261,260.53815   L 246.15261,351.64658  "
     style="fill:none;stroke:#000000;stroke-width:9.5903616px;stroke-linecap:butt;stroke-linejoin:miter;stroke-miterlimit:10;stroke-dasharray:none;stroke-opacity:1;" />
  <path
     id="path13"
     d="  M 222.1767,284.51405   L 270.12851,284.51405  "
     style="fill:none;stroke:#000000;stroke-width:9.5903616px;stroke-linecap:butt;stroke-linejoin:miter;stroke-miterlimit:10;stroke-dasharray:none;stroke-opacity:1;" />
  <path
     id="path15"
     d="  M 207.79116,222.1767   C 207.79116,232.80602 199.23976,241.35743 188.61044,241.35743   C 178.02108,241.35743 169.42972,232.80602 169.42972,222.1767   C 169.42972,211.58735 178.02108,202.99598 188.61044,202.99598   C 199.23976,202.99598 207.79116,211.58735 207.79116,222.1767  "
     style="fill:none;stroke:#000000;stroke-width:9.5903616px;stroke-linecap:butt;stroke-linejoin:miter;stroke-miterlimit:10;stroke-dasharray:none;stroke-opacity:1;" />
  <path
     id="path17"
     d="  M 188.61044,241.35743   L 188.61044,332.46586  "
     style="fill:none;stroke:#000000;stroke-width:9.5903616px;stroke-linecap:butt;stroke-linejoin:miter;stroke-miterlimit:10;stroke-dasharray:none;stroke-opacity:1;" />
  <path
     id="path19"
     d="  M 164.63454,265.33333   L 212.58634,265.33333  "
     style="fill:none;stroke:#000000;stroke-width:9.5903616px;stroke-linecap:butt;stroke-linejoin:miter;stroke-miterlimit:10;stroke-dasharray:none;stroke-opacity:1;" />
  <path
     id="path21"
     d="  M 322.8755,222.1767   C 322.8755,232.80602 314.32409,241.35743 303.69477,241.35743   C 293.10542,241.35743 284.51405,232.80602 284.51405,222.1767   C 284.51405,211.58735 293.10542,202.99598 303.69477,202.99598   C 314.32409,202.99598 322.8755,211.58735 322.8755,222.1767  "
     style="fill:none;stroke:#000000;stroke-width:9.5903616px;stroke-linecap:butt;stroke-linejoin:miter;stroke-miterlimit:10;stroke-dasharray:none;stroke-opacity:1;" />
  <path
     id="path23"
     d="  M 303.69477,241.35743   L 303.69477,332.46586  "
     style="fill:none;stroke:#000000;stroke-width:9.5903616px;stroke-linecap:butt;stroke-linejoin:miter;stroke-miterlimit:10;stroke-dasharray:none;stroke-opacity:1;" />
  <path
     id="path25"
     d="  M 279.71887,265.33333   L 327.67068,265.33333  "
     style="fill:none;stroke:#000000;stroke-width:9.5903616px;stroke-linecap:butt;stroke-linejoin:miter;stroke-miterlimit:10;stroke-dasharray:none;stroke-opacity:1;" />
  <path
     id="path27"
     d="  M 193.60542,188.41064   L 193.60542,150.68855   L 198.72028,150.68855   L 218.58032,180.29879   L 218.58032,150.68855   L 223.33554,150.68855   L 223.33554,188.41064   L 218.22068,188.41064   L 198.4006,158.76044   L 198.4006,188.41064   z  M 249.42931,173.6255   L 249.42931,169.18996   L 265.41325,169.15   L 265.41325,183.1759   C 262.9757,185.13393 260.41827,186.61245 257.82088,187.61144   C 255.22349,188.57048 252.54618,189.08996 249.78895,189.08996   C 246.07269,189.08996 242.71606,188.29076 239.67911,186.69237   C 236.64217,185.09397 234.36445,182.81626 232.80602,179.81927   C 231.24759,176.78233 230.48835,173.4257 230.48835,169.70944   C 230.48835,166.07309 231.24759,162.63654 232.80602,159.43976   C 234.32449,156.24297 236.52229,153.88534 239.43935,152.32691   C 242.31646,150.80843 245.63313,150.00923 249.38935,150.00923   C 252.10662,150.00923 254.58413,150.48875 256.78192,151.36787   C 259.01967,152.24699 260.73795,153.48574 261.9767,155.04417   C 263.25542,156.64257 264.17449,158.68052 264.85381,161.23795   L 260.33835,162.4767   C 259.77891,160.55863 259.05963,159.04016 258.22048,157.92128   C 257.38132,156.84237 256.18253,155.96325 254.62409,155.28393   C 253.06566,154.64458 251.30743,154.28494 249.42931,154.28494   C 247.1516,154.28494 245.15361,154.64458 243.4753,155.36385   C 241.83694,156.04317 240.47831,156.96225 239.47931,158.08112   C 238.44036,159.23996 237.64116,160.47871 237.08172,161.83735   C 236.12269,164.15502 235.64317,166.67249 235.64317,169.42972   C 235.64317,172.78634 236.20261,175.58353 237.36144,177.86124   C 238.52028,180.13895 240.23855,181.81727 242.43634,182.93614   C 244.63413,184.01506 246.99176,184.5745 249.50923,184.5745   C 251.66706,184.5745 253.78494,184.13494 255.82289,183.33574   C 257.9008,182.49658 259.45923,181.57751 260.53815,180.65843   L 260.53815,173.6255   z  M 271.24739,170.02911   C 271.24739,163.75542 272.9257,158.88032 276.32229,155.32389   C 279.67891,151.76747 284.03453,150.00923 289.34919,150.00923   C 292.8257,150.00923 295.98253,150.84839 298.77971,152.48674   C 301.5769,154.16506 303.69477,156.48273 305.17329,159.47972   C 306.6518,162.43674 307.37108,165.83333 307.37108,169.58956   C 307.37108,173.4257 306.61184,176.86225 305.05341,179.85923   C 303.49498,182.89618 301.29718,185.17389 298.5,186.73233   C 295.66285,188.29076 292.58594,189.08996 289.30923,189.08996   C 285.75281,189.08996 282.59598,188.21084 279.79879,186.49257   C 277.0016,184.77429 274.88373,182.45662 273.40522,179.45964   C 271.96666,176.50261 271.24739,173.34578 271.24739,170.02911   z  M 276.4022,170.10903   C 276.4022,174.66446 277.64096,178.26084 280.07851,180.85823   C 282.51606,183.49558 285.59297,184.81425 289.26927,184.81425   C 293.06546,184.81425 296.14237,183.49558 298.57992,180.81827   C 301.01747,178.18092 302.21626,174.4247 302.21626,169.58956   C 302.21626,166.51265 301.69678,163.83534 300.65783,161.51767   C 299.61887,159.23996 298.1004,157.44176 296.10241,156.20301   C 294.10441,154.92429 291.86666,154.28494 289.34919,154.28494   C 285.83273,154.28494 282.79578,155.52369 280.23835,157.96124   C 277.68092,160.35883 276.4022,164.43474 276.4022,170.10903   z "
     style="fill:#000000;fill-rule:evenodd;fill-opacity:1;stroke:none;" />
</svg>
