<?xml version="1.0" encoding="UTF-8" standalone="no"?>
<svg
   xmlns:dc="http://purl.org/dc/elements/1.1/"
   xmlns:cc="http://creativecommons.org/ns#"
   xmlns:rdf="http://www.w3.org/1999/02/22-rdf-syntax-ns#"
   xmlns:svg="http://www.w3.org/2000/svg"
   xmlns="http://www.w3.org/2000/svg"
   id="svg13"
   height="116.05mm"
   width="135.35001mm"
   version="1.0">
  <metadata
     id="metadata17">
    <rdf:RDF>
      <cc:Work
         rdf:about="">
        <dc:format>image/svg+xml</dc:format>
        <dc:type
           rdf:resource="http://purl.org/dc/dcmitype/StillImage" />
      </cc:Work>
    </rdf:RDF>
  </metadata>
  <defs
     id="defs3">
    <pattern
       y="0"
       x="0"
       height="6"
       width="6"
       patternUnits="userSpaceOnUse"
       id="EMFhbasepattern" />
  </defs>
  <path
     id="path5"
     d="  M 174.2249,54.345381   C 54.345381,54.345381 54.345381,250.94779 174.2249,250.94779   C 174.2249,384.25381 337.26104,384.25381 337.26104,250.94779   C 457.14056,250.94779 457.14056,54.345381 337.26104,54.345381   z "
     style="fill:#ffff80;fill-rule:evenodd;fill-opacity:1;stroke:none;" />
  <path
     id="path7"
     d="  M 174.2249,54.345381   C 54.345381,54.345381 54.345381,250.94779 174.2249,250.94779   C 174.2249,384.25381 337.26104,384.25381 337.26104,250.94779   C 457.14056,250.94779 457.14056,54.345381 337.26104,54.345381  "
     style="fill:none;stroke:#000000;stroke-width:9.5903616px;stroke-linecap:butt;stroke-linejoin:miter;stroke-miterlimit:10;stroke-dasharray:none;stroke-opacity:1;" />
  <path
     id="path9"
     d="  M 173.14598,191.96707   L 173.14598,130.18915   L 181.53755,130.18915   L 213.98494,178.7004   L 213.98494,130.18915   L 221.81707,130.18915   L 221.81707,191.96707   L 213.4255,191.96707   L 180.97811,143.41586   L 180.97811,191.96707   z  M 233.08574,161.87731   C 233.08574,151.60763 235.84297,143.5757 241.31747,137.78152   C 246.83192,131.98735 253.94478,129.07028 262.65602,129.07028   C 268.37028,129.07028 273.5251,130.42891 278.08052,133.18614   C 282.6759,135.90341 286.15241,139.6996 288.55,144.5747   C 290.94759,149.4498 292.14638,154.96425 292.14638,161.15803   C 292.14638,167.43172 290.90763,173.0261 288.39016,177.98112   C 285.83273,182.93614 282.2763,186.65241 277.64096,189.20984   C 273.00562,191.76727 267.97068,193.00602 262.61606,193.00602   C 256.82188,193.00602 251.58714,191.60743 247.03172,188.81024   C 242.43634,186.01305 238.95984,182.1769 236.60221,177.3018   C 234.24457,172.4267 233.08574,167.31184 233.08574,161.87731   z  M 241.51727,161.99719   C 241.51727,169.42972 243.51526,175.30381 247.51124,179.57952   C 251.50723,183.89518 256.54216,186.01305 262.5761,186.01305   C 268.72992,186.01305 273.80482,183.85522 277.76084,179.53956   C 281.75682,175.22389 283.71486,169.07008 283.71486,161.11807   C 283.71486,156.08313 282.8757,151.68755 281.19739,147.93132   C 279.47911,144.1751 277.0016,141.29799 273.7249,139.22008   C 270.44819,137.14217 266.77188,136.10321 262.69598,136.10321   C 256.9018,136.10321 251.94678,138.1012 247.751,142.09719   C 243.59518,146.05321 241.51727,152.68654 241.51727,161.99719   z  M 302.61586,191.96707   L 302.61586,130.18915   L 311.00743,130.18915   L 343.45481,178.7004   L 343.45481,130.18915   L 351.28694,130.18915   L 351.28694,191.96707   L 342.89538,191.96707   L 310.44799,143.41586   L 310.44799,191.96707   z "
     style="fill:#000000;fill-rule:evenodd;fill-opacity:1;stroke:none;" />
  <path
     id="path11"
     d="  M 173.14598,191.96707   L 173.14598,130.18915   L 181.53755,130.18915   L 213.98494,178.7004   L 213.98494,130.18915   L 221.81707,130.18915   L 221.81707,191.96707   L 213.4255,191.96707   L 180.97811,143.41586   L 180.97811,191.96707   z  M 233.08574,161.87731   C 233.08574,151.60763 235.84297,143.5757 241.31747,137.78152   C 246.83192,131.98735 253.94478,129.07028 262.65602,129.07028   C 268.37028,129.07028 273.5251,130.42891 278.08052,133.18614   C 282.6759,135.90341 286.15241,139.6996 288.55,144.5747   C 290.94759,149.4498 292.14638,154.96425 292.14638,161.15803   C 292.14638,167.43172 290.90763,173.0261 288.39016,177.98112   C 285.83273,182.93614 282.2763,186.65241 277.64096,189.20984   C 273.00562,191.76727 267.97068,193.00602 262.61606,193.00602   C 256.82188,193.00602 251.58714,191.60743 247.03172,188.81024   C 242.43634,186.01305 238.95984,182.1769 236.60221,177.3018   C 234.24457,172.4267 233.08574,167.31184 233.08574,161.87731   z  M 241.51727,161.99719   C 241.51727,169.42972 243.51526,175.30381 247.51124,179.57952   C 251.50723,183.89518 256.54216,186.01305 262.5761,186.01305   C 268.72992,186.01305 273.80482,183.85522 277.76084,179.53956   C 281.75682,175.22389 283.71486,169.07008 283.71486,161.11807   C 283.71486,156.08313 282.8757,151.68755 281.19739,147.93132   C 279.47911,144.1751 277.0016,141.29799 273.7249,139.22008   C 270.44819,137.14217 266.77188,136.10321 262.69598,136.10321   C 256.9018,136.10321 251.94678,138.1012 247.751,142.09719   C 243.59518,146.05321 241.51727,152.68654 241.51727,161.99719   z  M 302.61586,191.96707   L 302.61586,130.18915   L 311.00743,130.18915   L 343.45481,178.7004   L 343.45481,130.18915   L 351.28694,130.18915   L 351.28694,191.96707   L 342.89538,191.96707   L 310.44799,143.41586   L 310.44799,191.96707   z "
     style="fill:none;stroke:#000000;stroke-width:0.95903611px;stroke-linecap:butt;stroke-linejoin:miter;stroke-miterlimit:10;stroke-dasharray:none;stroke-opacity:1;" />
</svg>
