<?xml version="1.0" encoding="UTF-8" standalone="no"?>
<svg
   xmlns:dc="http://purl.org/dc/elements/1.1/"
   xmlns:cc="http://creativecommons.org/ns#"
   xmlns:rdf="http://www.w3.org/1999/02/22-rdf-syntax-ns#"
   xmlns:svg="http://www.w3.org/2000/svg"
   xmlns="http://www.w3.org/2000/svg"
   id="svg13"
   height="125.53mm"
   width="95.75mm"
   version="1.0">
  <metadata
     id="metadata17">
    <rdf:RDF>
      <cc:Work
         rdf:about="">
        <dc:format>image/svg+xml</dc:format>
        <dc:type
           rdf:resource="http://purl.org/dc/dcmitype/StillImage" />
      </cc:Work>
    </rdf:RDF>
  </metadata>
  <defs
     id="defs3">
    <pattern
       y="0"
       x="0"
       height="6"
       width="6"
       patternUnits="userSpaceOnUse"
       id="EMFhbasepattern" />
  </defs>
  <path
     id="path5"
     d="  M 54.345381,54.345381   C 54.345381,419.73815 307.53092,419.73815 307.53092,54.345381   z "
     style="fill:#80e0ff;fill-rule:evenodd;fill-opacity:1;stroke:none;" />
  <path
     id="path7"
     d="  M 54.345381,54.345381   C 54.345381,419.73815 307.53092,419.73815 307.53092,54.345381  "
     style="fill:none;stroke:#000000;stroke-width:9.5903616px;stroke-linecap:butt;stroke-linejoin:miter;stroke-miterlimit:10;stroke-dasharray:none;stroke-opacity:1;" />
  <path
     id="path9"
     d="  M 98.341163,191.96707   L 98.341163,130.18915   L 106.73273,130.18915   L 139.18012,178.7004   L 139.18012,130.18915   L 147.01225,130.18915   L 147.01225,191.96707   L 138.62068,191.96707   L 106.17329,143.41586   L 106.17329,191.96707   z  M 158.28092,161.87731   C 158.28092,151.60763 161.03815,143.5757 166.51265,137.78152   C 172.02711,131.98735 179.13996,129.07028 187.8512,129.07028   C 193.56546,129.07028 198.72028,130.42891 203.2757,133.18614   C 207.87108,135.90341 211.34759,139.6996 213.74518,144.5747   C 216.14277,149.4498 217.34156,154.96425 217.34156,161.15803   C 217.34156,167.43172 216.10281,173.0261 213.58534,177.98112   C 211.02791,182.93614 207.47148,186.65241 202.83614,189.20984   C 198.2008,191.76727 193.16586,193.00602 187.81124,193.00602   C 182.01707,193.00602 176.78233,191.60743 172.22691,188.81024   C 167.63152,186.01305 164.15502,182.1769 161.79739,177.3018   C 159.43976,172.4267 158.28092,167.31184 158.28092,161.87731   z  M 166.71245,161.99719   C 166.71245,169.42972 168.71044,175.30381 172.70642,179.57952   C 176.70241,183.89518 181.73735,186.01305 187.77128,186.01305   C 193.9251,186.01305 199,183.85522 202.95602,179.53956   C 206.95201,175.22389 208.91004,169.07008 208.91004,161.11807   C 208.91004,156.08313 208.07088,151.68755 206.39257,147.93132   C 204.67429,144.1751 202.19678,141.29799 198.92008,139.22008   C 195.64337,137.14217 191.96707,136.10321 187.89116,136.10321   C 182.09699,136.10321 177.14197,138.1012 172.94618,142.09719   C 168.79036,146.05321 166.71245,152.68654 166.71245,161.99719   z  M 227.81104,191.96707   L 227.81104,130.18915   L 236.20261,130.18915   L 268.65,178.7004   L 268.65,130.18915   L 276.48212,130.18915   L 276.48212,191.96707   L 268.09056,191.96707   L 235.64317,143.41586   L 235.64317,191.96707   z "
     style="fill:#000000;fill-rule:evenodd;fill-opacity:1;stroke:none;" />
  <path
     id="path11"
     d="  M 98.341163,191.96707   L 98.341163,130.18915   L 106.73273,130.18915   L 139.18012,178.7004   L 139.18012,130.18915   L 147.01225,130.18915   L 147.01225,191.96707   L 138.62068,191.96707   L 106.17329,143.41586   L 106.17329,191.96707   z  M 158.28092,161.87731   C 158.28092,151.60763 161.03815,143.5757 166.51265,137.78152   C 172.02711,131.98735 179.13996,129.07028 187.8512,129.07028   C 193.56546,129.07028 198.72028,130.42891 203.2757,133.18614   C 207.87108,135.90341 211.34759,139.6996 213.74518,144.5747   C 216.14277,149.4498 217.34156,154.96425 217.34156,161.15803   C 217.34156,167.43172 216.10281,173.0261 213.58534,177.98112   C 211.02791,182.93614 207.47148,186.65241 202.83614,189.20984   C 198.2008,191.76727 193.16586,193.00602 187.81124,193.00602   C 182.01707,193.00602 176.78233,191.60743 172.22691,188.81024   C 167.63152,186.01305 164.15502,182.1769 161.79739,177.3018   C 159.43976,172.4267 158.28092,167.31184 158.28092,161.87731   z  M 166.71245,161.99719   C 166.71245,169.42972 168.71044,175.30381 172.70642,179.57952   C 176.70241,183.89518 181.73735,186.01305 187.77128,186.01305   C 193.9251,186.01305 199,183.85522 202.95602,179.53956   C 206.95201,175.22389 208.91004,169.07008 208.91004,161.11807   C 208.91004,156.08313 208.07088,151.68755 206.39257,147.93132   C 204.67429,144.1751 202.19678,141.29799 198.92008,139.22008   C 195.64337,137.14217 191.96707,136.10321 187.89116,136.10321   C 182.09699,136.10321 177.14197,138.1012 172.94618,142.09719   C 168.79036,146.05321 166.71245,152.68654 166.71245,161.99719   z  M 227.81104,191.96707   L 227.81104,130.18915   L 236.20261,130.18915   L 268.65,178.7004   L 268.65,130.18915   L 276.48212,130.18915   L 276.48212,191.96707   L 268.09056,191.96707   L 235.64317,143.41586   L 235.64317,191.96707   z "
     style="fill:none;stroke:#000000;stroke-width:0.95903611px;stroke-linecap:butt;stroke-linejoin:miter;stroke-miterlimit:10;stroke-dasharray:none;stroke-opacity:1;" />
</svg>
