<?xml version="1.0" encoding="UTF-8" standalone="no"?>
<svg
   xmlns:dc="http://purl.org/dc/elements/1.1/"
   xmlns:cc="http://creativecommons.org/ns#"
   xmlns:rdf="http://www.w3.org/1999/02/22-rdf-syntax-ns#"
   xmlns:svg="http://www.w3.org/2000/svg"
   xmlns="http://www.w3.org/2000/svg"
   id="svg17"
   height="112.9mm"
   width="112.9mm"
   version="1.0">
  <metadata
     id="metadata21">
    <rdf:RDF>
      <cc:Work
         rdf:about="">
        <dc:format>image/svg+xml</dc:format>
        <dc:type
           rdf:resource="http://purl.org/dc/dcmitype/StillImage" />
      </cc:Work>
    </rdf:RDF>
  </metadata>
  <defs
     id="defs3">
    <pattern
       y="0"
       x="0"
       height="6"
       width="6"
       patternUnits="userSpaceOnUse"
       id="EMFhbasepattern" />
  </defs>
  <path
     id="path5"
     d="  M 1997.3105,1840.4565   L 2103.6983,1840.4565   L 2103.6983,1883.1375   L 1997.3105,1883.1375   z "
     style="fill:#000000;fill-rule:nonzero;fill-opacity:1;stroke:none;" />
  <path
     id="path7"
     d="  M 1859.0404,1883.1375   L 2241.9308,1883.1375   L 2241.9308,2139.1854   L 1859.0404,2139.1854   z "
     style="fill:#80e0ff;fill-rule:nonzero;fill-opacity:1;stroke:#000000;stroke-width:10.62747px;stroke-linecap:butt;stroke-linejoin:miter;stroke-miterlimit:282;stroke-dasharray:none;stroke-opacity:1;" />
  <path
     id="path9"
     d="  M 2050.4856,2011.1803   L 2002.6243,1925.8184   C 2002.6243,1893.7983 2098.3469,1893.7983 2098.3469,1925.8184   z "
     style="fill:none;stroke:#000000;stroke-width:10.62747px;stroke-linecap:butt;stroke-linejoin:miter;stroke-miterlimit:282;stroke-dasharray:none;stroke-opacity:1;" />
  <path
     id="path11"
     d="  M 2050.4856,2011.1803   L 2148.1302,2012.2766   C 2175.7541,2028.2678 2127.8928,2111.4371 2100.2689,2095.4081   z "
     style="fill:none;stroke:#000000;stroke-width:10.62747px;stroke-linecap:butt;stroke-linejoin:miter;stroke-miterlimit:282;stroke-dasharray:none;stroke-opacity:1;" />
  <path
     id="path13"
     d="  M 2050.4856,2011.1803   L 2000.74,2095.4081   C 1973.1161,2111.4371 1925.2548,2028.2678 1952.8787,2012.2766   z "
     style="fill:none;stroke:#000000;stroke-width:10.62747px;stroke-linecap:butt;stroke-linejoin:miter;stroke-miterlimit:282;stroke-dasharray:none;stroke-opacity:1;" />
  <path
     id="path15"
     d="  M 2029.909,2109.1688   L 2039.632,2108.2237   C 2040.235,2111.5127 2041.4032,2113.8943 2043.2122,2115.4443   C 2044.9834,2116.9565 2047.3953,2117.7504 2050.4479,2117.7504   C 2053.6512,2117.7504 2056.0631,2117.0699 2057.7213,2115.6711   C 2059.3418,2114.3102 2060.1709,2112.7224 2060.1709,2110.9078   C 2060.1709,2109.7359 2059.8317,2108.7152 2059.1157,2107.8835   C 2058.4373,2107.0896 2057.2314,2106.3713 2055.5355,2105.7664   C 2054.3673,2105.3506 2051.6915,2104.6323 2047.5461,2103.5738   C 2042.157,2102.2506 2038.426,2100.6251 2036.2403,2098.6592   C 2033.2254,2095.9373 2031.7179,2092.6106 2031.7179,2088.6789   C 2031.7179,2086.1461 2032.3963,2083.8022 2033.8283,2081.6096   C 2035.2604,2079.3791 2037.3331,2077.7157 2040.0089,2076.5438   C 2042.7223,2075.4097 2045.9633,2074.8426 2049.7696,2074.8426   C 2055.9878,2074.8426 2060.6608,2076.2035 2063.7888,2078.9255   C 2066.9167,2081.6474 2068.5749,2085.3144 2068.7256,2089.8887   L 2058.7388,2090.3045   C 2058.3243,2087.7716 2057.3821,2085.9192 2055.9878,2084.8229   C 2054.5934,2083.6888 2052.4829,2083.1217 2049.6565,2083.1217   C 2046.7547,2083.1217 2044.4935,2083.7266 2042.8353,2084.9363   C 2041.7801,2085.6924 2041.2525,2086.7131 2041.2525,2087.9985   C 2041.2525,2089.1704 2041.7424,2090.1911 2042.7223,2091.0228   C 2044.0036,2092.0813 2047.0562,2093.1776 2051.9177,2094.3496   C 2056.7792,2095.4837 2060.3593,2096.6934 2062.6959,2097.9032   C 2065.0324,2099.1507 2066.8413,2100.8141 2068.1604,2102.9689   C 2069.4794,2105.086 2070.1577,2107.7323 2070.1577,2110.87   C 2070.1577,2113.7053 2069.3663,2116.3894 2067.7835,2118.8467   C 2066.2007,2121.3418 2063.9772,2123.1942 2061.1131,2124.4039   C 2058.2112,2125.6136 2054.6311,2126.2185 2050.3348,2126.2185   C 2044.079,2126.2185 2039.2551,2124.7441 2035.9011,2121.871   C 2032.5847,2118.9601 2030.5497,2114.726 2029.909,2109.1688   z "
     style="fill:#000000;fill-rule:nonzero;fill-opacity:1;stroke:none;" />
</svg>
