<?xml version="1.0" encoding="UTF-8" standalone="no"?>
<svg
   xmlns:dc="http://purl.org/dc/elements/1.1/"
   xmlns:cc="http://creativecommons.org/ns#"
   xmlns:rdf="http://www.w3.org/1999/02/22-rdf-syntax-ns#"
   xmlns:svg="http://www.w3.org/2000/svg"
   xmlns="http://www.w3.org/2000/svg"
   id="svg17"
   height="112.9mm"
   width="112.9mm"
   version="1.0">
  <metadata
     id="metadata21">
    <rdf:RDF>
      <cc:Work
         rdf:about="">
        <dc:format>image/svg+xml</dc:format>
        <dc:type
           rdf:resource="http://purl.org/dc/dcmitype/StillImage" />
      </cc:Work>
    </rdf:RDF>
  </metadata>
  <defs
     id="defs3">
    <pattern
       y="0"
       x="0"
       height="6"
       width="6"
       patternUnits="userSpaceOnUse"
       id="EMFhbasepattern" />
  </defs>
  <path
     id="path5"
     d="  M 2018.6491,1893.7907   L 2125.0369,1893.7907   L 2125.0369,1947.1324   L 2018.6491,1947.1324   z "
     style="fill:#000000;fill-rule:nonzero;fill-opacity:1;stroke:none;" />
  <path
     id="path7"
     d="  M 1981.453,2187.1891   C 1981.453,2309.9016 2162.233,2309.9016 2162.233,2187.1891   C 2284.562,2187.1891 2284.562,2005.8424 2162.233,2005.8424   C 2162.233,1883.1299 1981.453,1883.1299 1981.453,2005.8424   C 1859.124,2005.8424 1859.124,2187.1891 1981.453,2187.1891   z "
     style="fill:#ffff80;fill-rule:nonzero;fill-opacity:1;stroke:#000000;stroke-width:10.62747px;stroke-linecap:butt;stroke-linejoin:miter;stroke-miterlimit:282;stroke-dasharray:none;stroke-opacity:1;" />
  <path
     id="path9"
     d="  M 2071.8242,2096.5347   L 2023.9629,2011.1728   C 2023.9629,1979.1526 2119.6855,1979.1526 2119.6855,2011.1728   z "
     style="fill:none;stroke:#000000;stroke-width:10.62747px;stroke-linecap:butt;stroke-linejoin:miter;stroke-miterlimit:282;stroke-dasharray:none;stroke-opacity:1;" />
  <path
     id="path11"
     d="  M 2071.8242,2096.5347   L 2169.4688,2097.631   C 2197.0927,2113.6222 2149.2313,2196.7914 2121.6075,2180.7624   z "
     style="fill:none;stroke:#000000;stroke-width:10.62747px;stroke-linecap:butt;stroke-linejoin:miter;stroke-miterlimit:282;stroke-dasharray:none;stroke-opacity:1;" />
  <path
     id="path13"
     d="  M 2071.8242,2096.5347   L 2022.0786,2180.7624   C 1994.4547,2196.7914 1946.5934,2113.6222 1974.2173,2097.631   z "
     style="fill:none;stroke:#000000;stroke-width:10.62747px;stroke-linecap:butt;stroke-linejoin:miter;stroke-miterlimit:282;stroke-dasharray:none;stroke-opacity:1;" />
  <path
     id="path15"
     d="  M 2051.2476,2194.5231   L 2060.9706,2193.578   C 2061.5736,2196.867 2062.7418,2199.2487 2064.5508,2200.7986   C 2066.322,2202.3108 2068.7339,2203.1047 2071.7865,2203.1047   C 2074.9898,2203.1047 2077.4017,2202.4242 2079.0599,2201.0255   C 2080.6804,2199.6645 2081.5095,2198.0767 2081.5095,2196.2621   C 2081.5095,2195.0902 2081.1703,2194.0695 2080.4543,2193.2378   C 2079.7759,2192.4439 2078.57,2191.7256 2076.8741,2191.1208   C 2075.7058,2190.7049 2073.0301,2189.9866 2068.8847,2188.9281   C 2063.4955,2187.605 2059.7646,2185.9794 2057.5788,2184.0136   C 2054.564,2181.2917 2053.0565,2177.9649 2053.0565,2174.0333   C 2053.0565,2171.5004 2053.7349,2169.1565 2055.1669,2166.9639   C 2056.599,2164.7334 2058.6717,2163.07 2061.3474,2161.8981   C 2064.0608,2160.764 2067.3018,2160.1969 2071.1081,2160.1969   C 2077.3263,2160.1969 2081.9994,2161.5579 2085.1273,2164.2798   C 2088.2553,2167.0017 2089.9135,2170.6687 2090.0642,2175.243   L 2080.0774,2175.6588   C 2079.6629,2173.126 2078.7207,2171.2736 2077.3263,2170.1772   C 2075.9319,2169.0431 2073.8215,2168.476 2070.9951,2168.476   C 2068.0932,2168.476 2065.8321,2169.0809 2064.1739,2170.2907   C 2063.1187,2171.0467 2062.5911,2172.0674 2062.5911,2173.3528   C 2062.5911,2174.5247 2063.081,2175.5454 2064.0608,2176.3771   C 2065.3422,2177.4356 2068.3947,2178.532 2073.2562,2179.7039   C 2078.1177,2180.838 2081.6979,2182.0478 2084.0345,2183.2575   C 2086.371,2184.505 2088.1799,2186.1684 2089.4989,2188.3233   C 2090.8179,2190.4403 2091.4963,2193.0866 2091.4963,2196.2243   C 2091.4963,2199.0597 2090.7049,2201.7437 2089.1221,2204.201   C 2087.5393,2206.6961 2085.3158,2208.5485 2082.4516,2209.7582   C 2079.5498,2210.968 2075.9696,2211.5728 2071.6734,2211.5728   C 2065.4175,2211.5728 2060.5937,2210.0985 2057.2397,2207.2254   C 2053.9233,2204.3144 2051.8882,2200.0804 2051.2476,2194.5231   z "
     style="fill:#000000;fill-rule:nonzero;fill-opacity:1;stroke:none;" />
</svg>
