<?xml version="1.0" encoding="UTF-8" standalone="no"?>
<svg
   xmlns:dc="http://purl.org/dc/elements/1.1/"
   xmlns:cc="http://creativecommons.org/ns#"
   xmlns:rdf="http://www.w3.org/1999/02/22-rdf-syntax-ns#"
   xmlns:svg="http://www.w3.org/2000/svg"
   xmlns="http://www.w3.org/2000/svg"
   id="svg21"
   height="116.05mm"
   width="135.35001mm"
   version="1.0">
  <metadata
     id="metadata25">
    <rdf:RDF>
      <cc:Work
         rdf:about="">
        <dc:format>image/svg+xml</dc:format>
        <dc:type
           rdf:resource="http://purl.org/dc/dcmitype/StillImage" />
      </cc:Work>
    </rdf:RDF>
  </metadata>
  <defs
     id="defs3">
    <pattern
       y="0"
       x="0"
       height="6"
       width="6"
       patternUnits="userSpaceOnUse"
       id="EMFhbasepattern" />
  </defs>
  <path
     id="path5"
     d="  M 174.2249,54.345381   C 54.345381,54.345381 54.345381,250.94779 174.2249,250.94779   C 174.2249,384.25381 337.26104,384.25381 337.26104,250.94779   C 457.14056,250.94779 457.14056,54.345381 337.26104,54.345381   z "
     style="fill:#ffff80;fill-rule:evenodd;fill-opacity:1;stroke:none;" />
  <path
     id="path7"
     d="  M 174.2249,54.345381   C 54.345381,54.345381 54.345381,250.94779 174.2249,250.94779   C 174.2249,384.25381 337.26104,384.25381 337.26104,250.94779   C 457.14056,250.94779 457.14056,54.345381 337.26104,54.345381  "
     style="fill:none;stroke:#000000;stroke-width:9.5903616px;stroke-linecap:butt;stroke-linejoin:miter;stroke-miterlimit:10;stroke-dasharray:none;stroke-opacity:1;" />
  <path
     id="path9"
     d="  M 150.24899,188.61044   L 150.24899,188.61044   L 198.2008,140.65863   L 313.28514,140.65863   L 361.23694,188.61044   L 313.28514,236.56225   L 198.2008,236.56225   z "
     style="fill:#000000;fill-rule:evenodd;fill-opacity:1;stroke:none;" />
  <path
     id="path11"
     d="  M 150.24899,188.61044   L 150.24899,188.61044   L 198.2008,140.65863   L 313.28514,140.65863   L 361.23694,188.61044   L 313.28514,236.56225   L 198.2008,236.56225   z "
     style="fill:none;stroke:#000000;stroke-width:0.95903611px;stroke-linecap:butt;stroke-linejoin:miter;stroke-miterlimit:10;stroke-dasharray:none;stroke-opacity:1;" />
  <path
     id="path13"
     d="  M 198.2008,164.63454   L 198.2008,164.63454   L 198.2008,121.47791   L 313.28514,121.47791   L 313.28514,164.63454   z "
     style="fill:#000000;fill-rule:evenodd;fill-opacity:1;stroke:none;" />
  <path
     id="path15"
     d="  M 198.2008,164.63454   L 198.2008,164.63454   L 198.2008,121.47791   L 313.28514,121.47791   L 313.28514,164.63454   z "
     style="fill:none;stroke:#000000;stroke-width:0.95903611px;stroke-linecap:butt;stroke-linejoin:miter;stroke-miterlimit:10;stroke-dasharray:none;stroke-opacity:1;" />
  <path
     id="path17"
     d="  M 263.65502,186.17289   L 263.65502,178.14096   L 292.70582,178.101   L 292.70582,203.55542   C 288.27028,207.11184 283.63494,209.78915 278.91967,211.58735   C 274.16445,213.38554 269.28935,214.26466 264.29437,214.26466   C 257.54116,214.26466 251.42731,212.8261 245.91285,209.94899   C 240.39839,207.07188 236.24257,202.8761 233.44538,197.44156   C 230.60823,191.96707 229.20964,185.85321 229.20964,179.1   C 229.20964,172.4267 230.60823,166.19297 233.40542,160.39879   C 236.20261,154.60462 240.23855,150.32891 245.47329,147.49176   C 250.70803,144.69458 256.74196,143.29598 263.5751,143.29598   C 268.57008,143.29598 273.04558,144.09518 277.04156,145.69357   C 281.07751,147.33193 284.19437,149.56968 286.47208,152.40683   C 288.7498,155.28393 290.50803,159.04016 291.66686,163.6755   L 283.4751,165.91325   C 282.4761,162.39678 281.19739,159.67952 279.63895,157.68152   C 278.12048,155.68353 275.92269,154.08514 273.08554,152.88634   C 270.24839,151.68755 267.09156,151.04819 263.65502,151.04819   C 259.49919,151.04819 255.90281,151.68755 252.86586,152.96626   C 249.82891,154.24498 247.39136,155.88333 245.55321,157.96124   C 243.6751,159.99919 242.23654,162.27691 241.19759,164.75442   C 239.43935,168.99016 238.6002,173.58554 238.6002,178.54056   C 238.6002,184.69437 239.63915,189.80923 241.75702,193.9251   C 243.83494,198.04096 246.91184,201.07791 250.94779,203.0759   C 254.98373,205.07389 259.25943,206.07289 263.7749,206.07289   C 267.69096,206.07289 271.56706,205.35361 275.28333,203.83514   C 279.03955,202.31666 281.8767,200.67831 283.83473,198.96004   L 283.83473,186.17289   z "
     style="fill:#ffffff;fill-rule:evenodd;fill-opacity:1;stroke:none;" />
  <path
     id="path19"
     d="  M 263.65502,186.17289   L 263.65502,178.14096   L 292.70582,178.101   L 292.70582,203.55542   C 288.27028,207.11184 283.63494,209.78915 278.91967,211.58735   C 274.16445,213.38554 269.28935,214.26466 264.29437,214.26466   C 257.54116,214.26466 251.42731,212.8261 245.91285,209.94899   C 240.39839,207.07188 236.24257,202.8761 233.44538,197.44156   C 230.60823,191.96707 229.20964,185.85321 229.20964,179.1   C 229.20964,172.4267 230.60823,166.19297 233.40542,160.39879   C 236.20261,154.60462 240.23855,150.32891 245.47329,147.49176   C 250.70803,144.69458 256.74196,143.29598 263.5751,143.29598   C 268.57008,143.29598 273.04558,144.09518 277.04156,145.69357   C 281.07751,147.33193 284.19437,149.56968 286.47208,152.40683   C 288.7498,155.28393 290.50803,159.04016 291.66686,163.6755   L 283.4751,165.91325   C 282.4761,162.39678 281.19739,159.67952 279.63895,157.68152   C 278.12048,155.68353 275.92269,154.08514 273.08554,152.88634   C 270.24839,151.68755 267.09156,151.04819 263.65502,151.04819   C 259.49919,151.04819 255.90281,151.68755 252.86586,152.96626   C 249.82891,154.24498 247.39136,155.88333 245.55321,157.96124   C 243.6751,159.99919 242.23654,162.27691 241.19759,164.75442   C 239.43935,168.99016 238.6002,173.58554 238.6002,178.54056   C 238.6002,184.69437 239.63915,189.80923 241.75702,193.9251   C 243.83494,198.04096 246.91184,201.07791 250.94779,203.0759   C 254.98373,205.07389 259.25943,206.07289 263.7749,206.07289   C 267.69096,206.07289 271.56706,205.35361 275.28333,203.83514   C 279.03955,202.31666 281.8767,200.67831 283.83473,198.96004   L 283.83473,186.17289   z "
     style="fill:none;stroke:#000000;stroke-width:0.95903611px;stroke-linecap:butt;stroke-linejoin:miter;stroke-miterlimit:10;stroke-dasharray:none;stroke-opacity:1;" />
</svg>
