<?xml version="1.0" encoding="UTF-8" standalone="no"?>
<svg
   xmlns:dc="http://purl.org/dc/elements/1.1/"
   xmlns:cc="http://creativecommons.org/ns#"
   xmlns:rdf="http://www.w3.org/1999/02/22-rdf-syntax-ns#"
   xmlns:svg="http://www.w3.org/2000/svg"
   xmlns="http://www.w3.org/2000/svg"
   id="svg17"
   height="112.9mm"
   width="112.9mm"
   version="1.0">
  <metadata
     id="metadata21">
    <rdf:RDF>
      <cc:Work
         rdf:about="">
        <dc:format>image/svg+xml</dc:format>
        <dc:type
           rdf:resource="http://purl.org/dc/dcmitype/StillImage" />
      </cc:Work>
    </rdf:RDF>
  </metadata>
  <defs
     id="defs3">
    <pattern
       y="0"
       x="0"
       height="6"
       width="6"
       patternUnits="userSpaceOnUse"
       id="EMFhbasepattern" />
  </defs>
  <path
     id="path5"
     d="  M 2018.6491,1893.7907   L 2125.0369,1893.7907   L 2125.0369,1947.1324   L 2018.6491,1947.1324   z "
     style="fill:#000000;fill-rule:nonzero;fill-opacity:1;stroke:none;" />
  <path
     id="path7"
     d="  M 1981.453,2187.1891   C 1981.453,2309.9016 2162.233,2309.9016 2162.233,2187.1891   C 2284.562,2187.1891 2284.562,2005.8424 2162.233,2005.8424   C 2162.233,1883.1299 1981.453,1883.1299 1981.453,2005.8424   C 1859.124,2005.8424 1859.124,2187.1891 1981.453,2187.1891   z "
     style="fill:#ffff80;fill-rule:nonzero;fill-opacity:1;stroke:#000000;stroke-width:10.62747px;stroke-linecap:butt;stroke-linejoin:miter;stroke-miterlimit:282;stroke-dasharray:none;stroke-opacity:1;" />
  <path
     id="path9"
     d="  M 2053.7725,2210.6655   L 2053.7725,2161.0286   L 2069.8268,2161.0286   C 2075.8943,2161.0286 2079.8513,2161.2933 2081.6979,2161.7847   C 2084.5244,2162.5408 2086.8986,2164.1286 2088.8206,2166.6236   C 2090.7426,2169.1187 2091.6847,2172.3699 2091.6847,2176.3015   C 2091.6847,2179.3637 2091.1194,2181.9343 2090.0265,2184.0136   C 2088.9336,2186.055 2087.5393,2187.7184 2085.8434,2188.8903   C 2084.1475,2190.0622 2082.414,2190.8561 2080.6427,2191.2342   C 2078.2685,2191.7256 2074.8014,2191.9525 2070.279,2191.9525   L 2063.7594,2191.9525   L 2063.7594,2210.6655   z  M 2063.7594,2169.4212   L 2063.7594,2183.5221   L 2069.2238,2183.5221   C 2073.1809,2183.5221 2075.8189,2183.2575 2077.1379,2182.7282   C 2078.4569,2182.2368 2079.5121,2181.4051 2080.2658,2180.3088   C 2081.0196,2179.2124 2081.3964,2177.9271 2081.3964,2176.4527   C 2081.3964,2174.6381 2080.8688,2173.1638 2079.8136,2171.9918   C 2078.7584,2170.7821 2077.4017,2170.0638 2075.7812,2169.7614   C 2074.6129,2169.5346 2072.201,2169.4212 2068.5832,2169.4212   z "
     style="fill:#000000;fill-rule:nonzero;fill-opacity:1;stroke:none;" />
  <path
     id="path11"
     d="  M 2071.8242,2096.5347   L 2023.9629,2011.1728   C 2023.9629,1979.1526 2119.6855,1979.1526 2119.6855,2011.1728   z "
     style="fill:none;stroke:#000000;stroke-width:10.62747px;stroke-linecap:butt;stroke-linejoin:miter;stroke-miterlimit:282;stroke-dasharray:none;stroke-opacity:1;" />
  <path
     id="path13"
     d="  M 2071.8242,2096.5347   L 2169.4688,2097.631   C 2197.0927,2113.6222 2149.2313,2196.7914 2121.6075,2180.7624   z "
     style="fill:none;stroke:#000000;stroke-width:10.62747px;stroke-linecap:butt;stroke-linejoin:miter;stroke-miterlimit:282;stroke-dasharray:none;stroke-opacity:1;" />
  <path
     id="path15"
     d="  M 2071.8242,2096.5347   L 2022.0786,2180.7624   C 1994.4547,2196.7914 1946.5934,2113.6222 1974.2173,2097.631   z "
     style="fill:none;stroke:#000000;stroke-width:10.62747px;stroke-linecap:butt;stroke-linejoin:miter;stroke-miterlimit:282;stroke-dasharray:none;stroke-opacity:1;" />
</svg>
