<?xml version="1.0" encoding="UTF-8" standalone="no"?>
<svg
   xmlns:dc="http://purl.org/dc/elements/1.1/"
   xmlns:cc="http://creativecommons.org/ns#"
   xmlns:rdf="http://www.w3.org/1999/02/22-rdf-syntax-ns#"
   xmlns:svg="http://www.w3.org/2000/svg"
   xmlns="http://www.w3.org/2000/svg"
   id="svg17"
   height="112.9mm"
   width="112.9mm"
   version="1.0">
  <metadata
     id="metadata21">
    <rdf:RDF>
      <cc:Work
         rdf:about="">
        <dc:format>image/svg+xml</dc:format>
        <dc:type
           rdf:resource="http://purl.org/dc/dcmitype/StillImage" />
      </cc:Work>
    </rdf:RDF>
  </metadata>
  <defs
     id="defs3">
    <pattern
       y="0"
       x="0"
       height="6"
       width="6"
       patternUnits="userSpaceOnUse"
       id="EMFhbasepattern" />
  </defs>
  <path
     id="path5"
     d="  M 1997.3105,1840.4565   L 2103.6983,1840.4565   L 2103.6983,1883.1375   L 1997.3105,1883.1375   z "
     style="fill:#000000;fill-rule:nonzero;fill-opacity:1;stroke:none;" />
  <path
     id="path7"
     d="  M 1859.0404,1883.1375   L 2241.9308,1883.1375   L 2241.9308,2139.1854   L 1859.0404,2139.1854   z "
     style="fill:#80e0ff;fill-rule:nonzero;fill-opacity:1;stroke:#000000;stroke-width:10.62747px;stroke-linecap:butt;stroke-linejoin:miter;stroke-miterlimit:282;stroke-dasharray:none;stroke-opacity:1;" />
  <path
     id="path9"
     d="  M 2032.434,2125.3112   L 2032.434,2075.6743   L 2048.4882,2075.6743   C 2054.5557,2075.6743 2058.5127,2075.9389 2060.3593,2076.4304   C 2063.1858,2077.1865 2065.56,2078.7742 2067.482,2081.2693   C 2069.404,2083.7644 2070.3461,2087.0156 2070.3461,2090.9472   C 2070.3461,2094.0093 2069.7809,2096.58 2068.688,2098.6592   C 2067.5951,2100.7007 2066.2007,2102.3641 2064.5048,2103.536   C 2062.8089,2104.7079 2061.0754,2105.5018 2059.3041,2105.8798   C 2056.9299,2106.3713 2053.4628,2106.5981 2048.9405,2106.5981   L 2042.4208,2106.5981   L 2042.4208,2125.3112   z  M 2042.4208,2084.0668   L 2042.4208,2098.1678   L 2047.8852,2098.1678   C 2051.8423,2098.1678 2054.4803,2097.9032 2055.7993,2097.3739   C 2057.1183,2096.8824 2058.1735,2096.0508 2058.9273,2094.9544   C 2059.681,2093.8581 2060.0578,2092.5728 2060.0578,2091.0984   C 2060.0578,2089.2838 2059.5302,2087.8094 2058.475,2086.6375   C 2057.4198,2085.4278 2056.0631,2084.7095 2054.4426,2084.4071   C 2053.2744,2084.1802 2050.8624,2084.0668 2047.2446,2084.0668   z "
     style="fill:#000000;fill-rule:nonzero;fill-opacity:1;stroke:none;" />
  <path
     id="path11"
     d="  M 2050.4856,2011.1803   L 2002.6243,1925.8184   C 2002.6243,1893.7983 2098.3469,1893.7983 2098.3469,1925.8184   z "
     style="fill:none;stroke:#000000;stroke-width:10.62747px;stroke-linecap:butt;stroke-linejoin:miter;stroke-miterlimit:282;stroke-dasharray:none;stroke-opacity:1;" />
  <path
     id="path13"
     d="  M 2050.4856,2011.1803   L 2148.1302,2012.2766   C 2175.7541,2028.2678 2127.8928,2111.4371 2100.2689,2095.4081   z "
     style="fill:none;stroke:#000000;stroke-width:10.62747px;stroke-linecap:butt;stroke-linejoin:miter;stroke-miterlimit:282;stroke-dasharray:none;stroke-opacity:1;" />
  <path
     id="path15"
     d="  M 2050.4856,2011.1803   L 2000.74,2095.4081   C 1973.1161,2111.4371 1925.2548,2028.2678 1952.8787,2012.2766   z "
     style="fill:none;stroke:#000000;stroke-width:10.62747px;stroke-linecap:butt;stroke-linejoin:miter;stroke-miterlimit:282;stroke-dasharray:none;stroke-opacity:1;" />
</svg>
