<?xml version="1.0" encoding="UTF-8" standalone="no"?>
<svg
   xmlns:dc="http://purl.org/dc/elements/1.1/"
   xmlns:cc="http://creativecommons.org/ns#"
   xmlns:rdf="http://www.w3.org/1999/02/22-rdf-syntax-ns#"
   xmlns:svg="http://www.w3.org/2000/svg"
   xmlns="http://www.w3.org/2000/svg"
   id="svg17"
   height="112.9mm"
   width="112.9mm"
   version="1.0">
  <metadata
     id="metadata21">
    <rdf:RDF>
      <cc:Work
         rdf:about="">
        <dc:format>image/svg+xml</dc:format>
        <dc:type
           rdf:resource="http://purl.org/dc/dcmitype/StillImage" />
      </cc:Work>
    </rdf:RDF>
  </metadata>
  <defs
     id="defs3">
    <pattern
       y="0"
       x="0"
       height="6"
       width="6"
       patternUnits="userSpaceOnUse"
       id="EMFhbasepattern" />
  </defs>
  <path
     id="path5"
     d="  M 1946.6314,1840.9775   L 2053.0192,1840.9775   L 2053.0192,1883.6585   L 1946.6314,1883.6585   z "
     style="fill:#000000;fill-rule:nonzero;fill-opacity:1;stroke:none;" />
  <path
     id="path7"
     d="  M 1859.4259,1883.6585   L 2140.2247,1883.6585   L 2140.2247,2165.3376   L 1859.4259,2165.3376   z "
     style="fill:#aaffaa;fill-rule:nonzero;fill-opacity:1;stroke:#000000;stroke-width:10.62747px;stroke-linecap:butt;stroke-linejoin:miter;stroke-miterlimit:282;stroke-dasharray:none;stroke-opacity:1;" />
  <path
     id="path9"
     d="  M 1999.8065,2024.5169   L 1951.9451,1939.155   C 1951.9451,1907.1349 2047.6678,1907.1349 2047.6678,1939.155   z "
     style="fill:none;stroke:#000000;stroke-width:10.62747px;stroke-linecap:butt;stroke-linejoin:miter;stroke-miterlimit:282;stroke-dasharray:none;stroke-opacity:1;" />
  <path
     id="path11"
     d="  M 1999.8065,2024.5169   L 2097.451,2025.6133   C 2125.0749,2041.6044 2077.2136,2124.7737 2049.5897,2108.7447   z "
     style="fill:none;stroke:#000000;stroke-width:10.62747px;stroke-linecap:butt;stroke-linejoin:miter;stroke-miterlimit:282;stroke-dasharray:none;stroke-opacity:1;" />
  <path
     id="path13"
     d="  M 1999.8065,2024.5169   L 1950.0608,2108.7447   C 1922.437,2124.7737 1874.5757,2041.6044 1902.1995,2025.6133   z "
     style="fill:none;stroke:#000000;stroke-width:10.62747px;stroke-linecap:butt;stroke-linejoin:miter;stroke-miterlimit:282;stroke-dasharray:none;stroke-opacity:1;" />
  <path
     id="path15"
     d="  M 1979.2299,2122.5054   L 1988.9529,2121.5603   C 1989.5558,2124.8493 1990.7241,2127.231 1992.533,2128.7809   C 1994.3043,2130.2931 1996.7162,2131.087 1999.7688,2131.087   C 2002.9721,2131.087 2005.384,2130.4065 2007.0422,2129.0078   C 2008.6627,2127.6468 2009.4918,2126.059 2009.4918,2124.2444   C 2009.4918,2123.0725 2009.1526,2122.0518 2008.4366,2121.2201   C 2007.7582,2120.4262 2006.5523,2119.7079 2004.8564,2119.1031   C 2003.6881,2118.6872 2001.0124,2117.9689 1996.8669,2116.9104   C 1991.4778,2115.5873 1987.7469,2113.9617 1985.5611,2111.9959   C 1982.5462,2109.274 1981.0388,2105.9472 1981.0388,2102.0156   C 1981.0388,2099.4827 1981.7171,2097.1388 1983.1492,2094.9462   C 1984.5813,2092.7157 1986.654,2091.0523 1989.3297,2089.8804   C 1992.0431,2088.7463 1995.2841,2088.1792 1999.0904,2088.1792   C 2005.3086,2088.1792 2009.9817,2089.5402 2013.1096,2092.2621   C 2016.2376,2094.984 2017.8958,2098.651 2018.0465,2103.2253   L 2008.0597,2103.6411   C 2007.6452,2101.1082 2006.703,2099.2558 2005.3086,2098.1595   C 2003.9142,2097.0254 2001.8038,2096.4583 1998.9774,2096.4583   C 1996.0755,2096.4583 1993.8144,2097.0632 1992.1562,2098.2729   C 1991.101,2099.029 1990.5734,2100.0497 1990.5734,2101.3351   C 1990.5734,2102.507 1991.0633,2103.5277 1992.0431,2104.3594   C 1993.3244,2105.4179 1996.377,2106.5143 2001.2385,2107.6862   C 2006.1,2108.8203 2009.6802,2110.03 2012.0167,2111.2398   C 2014.3533,2112.4873 2016.1622,2114.1507 2017.4812,2116.3055   C 2018.8002,2118.4226 2019.4786,2121.0689 2019.4786,2124.2066   C 2019.4786,2127.0419 2018.6872,2129.726 2017.1044,2132.1833   C 2015.5215,2134.6784 2013.2981,2136.5308 2010.4339,2137.7405   C 2007.5321,2138.9503 2003.9519,2139.5551 1999.6557,2139.5551   C 1993.3998,2139.5551 1988.576,2138.0808 1985.2219,2135.2076   C 1981.9056,2132.2967 1979.8705,2128.0626 1979.2299,2122.5054   z "
     style="fill:#000000;fill-rule:nonzero;fill-opacity:1;stroke:none;" />
</svg>
