<?xml version="1.0" encoding="UTF-8" standalone="no"?>
<svg
   xmlns:dc="http://purl.org/dc/elements/1.1/"
   xmlns:cc="http://creativecommons.org/ns#"
   xmlns:rdf="http://www.w3.org/1999/02/22-rdf-syntax-ns#"
   xmlns:svg="http://www.w3.org/2000/svg"
   xmlns="http://www.w3.org/2000/svg"
   id="svg21"
   height="116.05mm"
   width="135.35001mm"
   version="1.0">
  <metadata
     id="metadata25">
    <rdf:RDF>
      <cc:Work
         rdf:about="">
        <dc:format>image/svg+xml</dc:format>
        <dc:type
           rdf:resource="http://purl.org/dc/dcmitype/StillImage" />
      </cc:Work>
    </rdf:RDF>
  </metadata>
  <defs
     id="defs3">
    <pattern
       y="0"
       x="0"
       height="6"
       width="6"
       patternUnits="userSpaceOnUse"
       id="EMFhbasepattern" />
  </defs>
  <path
     id="path5"
     d="  M 174.2249,54.345381   C 54.345381,54.345381 54.345381,250.94779 174.2249,250.94779   C 174.2249,384.25381 337.26104,384.25381 337.26104,250.94779   C 457.14056,250.94779 457.14056,54.345381 337.26104,54.345381   z "
     style="fill:#ffff80;fill-rule:evenodd;fill-opacity:1;stroke:none;" />
  <path
     id="path7"
     d="  M 174.2249,54.345381   C 54.345381,54.345381 54.345381,250.94779 174.2249,250.94779   C 174.2249,384.25381 337.26104,384.25381 337.26104,250.94779   C 457.14056,250.94779 457.14056,54.345381 337.26104,54.345381  "
     style="fill:none;stroke:#000000;stroke-width:9.5903616px;stroke-linecap:butt;stroke-linejoin:miter;stroke-miterlimit:10;stroke-dasharray:none;stroke-opacity:1;" />
  <path
     id="path9"
     d="  M 150.24899,188.61044   L 150.24899,188.61044   L 198.2008,140.65863   L 313.28514,140.65863   L 361.23694,188.61044   L 313.28514,236.56225   L 198.2008,236.56225   z "
     style="fill:#000000;fill-rule:evenodd;fill-opacity:1;stroke:none;" />
  <path
     id="path11"
     d="  M 150.24899,188.61044   L 150.24899,188.61044   L 198.2008,140.65863   L 313.28514,140.65863   L 361.23694,188.61044   L 313.28514,236.56225   L 198.2008,236.56225   z "
     style="fill:none;stroke:#000000;stroke-width:0.95903611px;stroke-linecap:butt;stroke-linejoin:miter;stroke-miterlimit:10;stroke-dasharray:none;stroke-opacity:1;" />
  <path
     id="path13"
     d="  M 198.2008,164.63454   L 198.2008,164.63454   L 198.2008,121.47791   L 313.28514,121.47791   L 313.28514,164.63454   z "
     style="fill:#000000;fill-rule:evenodd;fill-opacity:1;stroke:none;" />
  <path
     id="path15"
     d="  M 198.2008,164.63454   L 198.2008,164.63454   L 198.2008,121.47791   L 313.28514,121.47791   L 313.28514,164.63454   z "
     style="fill:none;stroke:#000000;stroke-width:0.95903611px;stroke-linecap:butt;stroke-linejoin:miter;stroke-miterlimit:10;stroke-dasharray:none;stroke-opacity:1;" />
  <path
     id="path17"
     d="  M 230.28855,213.10582   L 230.28855,144.45482   L 243.95482,144.45482   L 260.17851,193.08594   C 261.69698,197.6014 262.7759,200.99799 263.45522,203.23574   C 264.25441,200.71827 265.45321,197.08192 267.13152,192.20682   L 283.55502,144.45482   L 295.78273,144.45482   L 295.78273,213.10582   L 287.03152,213.10582   L 287.03152,155.64357   L 267.09156,213.10582   L 258.8998,213.10582   L 239.03976,154.68454   L 239.03976,213.10582   z "
     style="fill:#ffffff;fill-rule:evenodd;fill-opacity:1;stroke:none;" />
  <path
     id="path19"
     d="  M 230.28855,213.10582   L 230.28855,144.45482   L 243.95482,144.45482   L 260.17851,193.08594   C 261.69698,197.6014 262.7759,200.99799 263.45522,203.23574   C 264.25441,200.71827 265.45321,197.08192 267.13152,192.20682   L 283.55502,144.45482   L 295.78273,144.45482   L 295.78273,213.10582   L 287.03152,213.10582   L 287.03152,155.64357   L 267.09156,213.10582   L 258.8998,213.10582   L 239.03976,154.68454   L 239.03976,213.10582   z "
     style="fill:none;stroke:#000000;stroke-width:0.95903611px;stroke-linecap:butt;stroke-linejoin:miter;stroke-miterlimit:10;stroke-dasharray:none;stroke-opacity:1;" />
</svg>
