<?xml version="1.0" encoding="UTF-8" standalone="no"?>
<svg
   xmlns:dc="http://purl.org/dc/elements/1.1/"
   xmlns:cc="http://creativecommons.org/ns#"
   xmlns:rdf="http://www.w3.org/1999/02/22-rdf-syntax-ns#"
   xmlns:svg="http://www.w3.org/2000/svg"
   xmlns="http://www.w3.org/2000/svg"
   id="svg21"
   height="116.05mm"
   width="135.35001mm"
   version="1.0">
  <metadata
     id="metadata25">
    <rdf:RDF>
      <cc:Work
         rdf:about="">
        <dc:format>image/svg+xml</dc:format>
        <dc:type
           rdf:resource="http://purl.org/dc/dcmitype/StillImage" />
      </cc:Work>
    </rdf:RDF>
  </metadata>
  <defs
     id="defs3">
    <pattern
       y="0"
       x="0"
       height="6"
       width="6"
       patternUnits="userSpaceOnUse"
       id="EMFhbasepattern" />
  </defs>
  <path
     id="path5"
     d="  M 174.2249,54.345381   C 54.345381,54.345381 54.345381,250.94779 174.2249,250.94779   C 174.2249,384.25381 337.26104,384.25381 337.26104,250.94779   C 457.14056,250.94779 457.14056,54.345381 337.26104,54.345381   z "
     style="fill:#ffff80;fill-rule:evenodd;fill-opacity:1;stroke:none;" />
  <path
     id="path7"
     d="  M 174.2249,54.345381   C 54.345381,54.345381 54.345381,250.94779 174.2249,250.94779   C 174.2249,384.25381 337.26104,384.25381 337.26104,250.94779   C 457.14056,250.94779 457.14056,54.345381 337.26104,54.345381  "
     style="fill:none;stroke:#000000;stroke-width:9.5903616px;stroke-linecap:butt;stroke-linejoin:miter;stroke-miterlimit:10;stroke-dasharray:none;stroke-opacity:1;" />
  <path
     id="path9"
     d="  M 150.24899,188.61044   L 150.24899,188.61044   L 198.2008,140.65863   L 313.28514,140.65863   L 361.23694,188.61044   L 313.28514,236.56225   L 198.2008,236.56225   z "
     style="fill:#000000;fill-rule:evenodd;fill-opacity:1;stroke:none;" />
  <path
     id="path11"
     d="  M 150.24899,188.61044   L 150.24899,188.61044   L 198.2008,140.65863   L 313.28514,140.65863   L 361.23694,188.61044   L 313.28514,236.56225   L 198.2008,236.56225   z "
     style="fill:none;stroke:#000000;stroke-width:0.95903611px;stroke-linecap:butt;stroke-linejoin:miter;stroke-miterlimit:10;stroke-dasharray:none;stroke-opacity:1;" />
  <path
     id="path13"
     d="  M 198.2008,164.63454   L 198.2008,164.63454   L 198.2008,121.47791   L 313.28514,121.47791   L 313.28514,164.63454   z "
     style="fill:#000000;fill-rule:evenodd;fill-opacity:1;stroke:none;" />
  <path
     id="path15"
     d="  M 198.2008,164.63454   L 198.2008,164.63454   L 198.2008,121.47791   L 313.28514,121.47791   L 313.28514,164.63454   z "
     style="fill:none;stroke:#000000;stroke-width:0.95903611px;stroke-linecap:butt;stroke-linejoin:miter;stroke-miterlimit:10;stroke-dasharray:none;stroke-opacity:1;" />
  <path
     id="path17"
     d="  M 236.88192,213.10582   L 236.88192,144.45482   L 262.65602,144.45482   C 267.89076,144.45482 272.08654,145.17409 275.28333,146.53273   C 278.44016,147.93132 280.91767,150.08915 282.71586,152.96626   C 284.51405,155.84337 285.39317,158.88032 285.39317,162.03715   C 285.39317,164.95421 284.59397,167.71144 283.03554,170.30883   C 281.43714,172.90622 279.03955,174.98413 275.80281,176.58253   C 279.95863,177.82128 283.15542,179.89919 285.39317,182.81626   C 287.63092,185.73333 288.7498,189.20984 288.7498,193.20582   C 288.7498,196.44257 288.07048,199.3996 286.71184,202.19678   C 285.35321,204.95401 283.6749,207.07188 281.6769,208.59036   C 279.67891,210.06887 277.16144,211.18775 274.12449,211.94698   C 271.12751,212.74618 267.4512,213.10582 263.05562,213.10582   z  M 245.99277,173.30582   L 260.81787,173.30582   C 264.85381,173.30582 267.73092,173.0261 269.48915,172.50662   C 271.80682,171.82731 273.5251,170.66847 274.72389,169.11004   C 275.88273,167.51164 276.44216,165.51365 276.44216,163.11606   C 276.44216,160.83835 275.92269,158.8004 274.80381,157.08213   C 273.7249,155.36385 272.16646,154.16506 270.12851,153.5257   C 268.13052,152.88634 264.61405,152.56666 259.69899,152.56666   L 245.99277,152.56666   z  M 245.99277,204.99397   L 263.05562,204.99397   C 266.01265,204.99397 268.0506,204.91405 269.24939,204.67429   C 271.32731,204.31466 273.08554,203.6753 274.48413,202.79618   C 275.88273,201.95703 277.04156,200.67831 277.96064,199   C 278.87971,197.32168 279.31927,195.40361 279.31927,193.20582   C 279.31927,190.64839 278.67992,188.41064 277.36124,186.53253   C 276.04257,184.65442 274.20441,183.33574 271.88674,182.5765   C 269.56907,181.77731 266.21245,181.41767 261.85682,181.41767   L 245.99277,181.41767   z "
     style="fill:#ffffff;fill-rule:evenodd;fill-opacity:1;stroke:none;" />
  <path
     id="path19"
     d="  M 236.88192,213.10582   L 236.88192,144.45482   L 262.65602,144.45482   C 267.89076,144.45482 272.08654,145.17409 275.28333,146.53273   C 278.44016,147.93132 280.91767,150.08915 282.71586,152.96626   C 284.51405,155.84337 285.39317,158.88032 285.39317,162.03715   C 285.39317,164.95421 284.59397,167.71144 283.03554,170.30883   C 281.43714,172.90622 279.03955,174.98413 275.80281,176.58253   C 279.95863,177.82128 283.15542,179.89919 285.39317,182.81626   C 287.63092,185.73333 288.7498,189.20984 288.7498,193.20582   C 288.7498,196.44257 288.07048,199.3996 286.71184,202.19678   C 285.35321,204.95401 283.6749,207.07188 281.6769,208.59036   C 279.67891,210.06887 277.16144,211.18775 274.12449,211.94698   C 271.12751,212.74618 267.4512,213.10582 263.05562,213.10582   z  M 245.99277,173.30582   L 260.81787,173.30582   C 264.85381,173.30582 267.73092,173.0261 269.48915,172.50662   C 271.80682,171.82731 273.5251,170.66847 274.72389,169.11004   C 275.88273,167.51164 276.44216,165.51365 276.44216,163.11606   C 276.44216,160.83835 275.92269,158.8004 274.80381,157.08213   C 273.7249,155.36385 272.16646,154.16506 270.12851,153.5257   C 268.13052,152.88634 264.61405,152.56666 259.69899,152.56666   L 245.99277,152.56666   z  M 245.99277,204.99397   L 263.05562,204.99397   C 266.01265,204.99397 268.0506,204.91405 269.24939,204.67429   C 271.32731,204.31466 273.08554,203.6753 274.48413,202.79618   C 275.88273,201.95703 277.04156,200.67831 277.96064,199   C 278.87971,197.32168 279.31927,195.40361 279.31927,193.20582   C 279.31927,190.64839 278.67992,188.41064 277.36124,186.53253   C 276.04257,184.65442 274.20441,183.33574 271.88674,182.5765   C 269.56907,181.77731 266.21245,181.41767 261.85682,181.41767   L 245.99277,181.41767   z "
     style="fill:none;stroke:#000000;stroke-width:0.95903611px;stroke-linecap:butt;stroke-linejoin:miter;stroke-miterlimit:10;stroke-dasharray:none;stroke-opacity:1;" />
</svg>
