<?xml version="1.0" encoding="UTF-8" standalone="no"?>
<svg
   xmlns:dc="http://purl.org/dc/elements/1.1/"
   xmlns:cc="http://creativecommons.org/ns#"
   xmlns:rdf="http://www.w3.org/1999/02/22-rdf-syntax-ns#"
   xmlns:svg="http://www.w3.org/2000/svg"
   xmlns="http://www.w3.org/2000/svg"
   id="svg21"
   height="107.94mm"
   width="95.75mm"
   version="1.0">
  <metadata
     id="metadata25">
    <rdf:RDF>
      <cc:Work
         rdf:about="">
        <dc:format>image/svg+xml</dc:format>
        <dc:type
           rdf:resource="http://purl.org/dc/dcmitype/StillImage" />
      </cc:Work>
    </rdf:RDF>
  </metadata>
  <defs
     id="defs3">
    <pattern
       y="0"
       x="0"
       height="6"
       width="6"
       patternUnits="userSpaceOnUse"
       id="EMFhbasepattern" />
  </defs>
  <path
     id="path5"
     d="  M 307.53092,54.345381   L 307.53092,236.56225   L 180.93815,353.56465   L 54.345381,236.56225   L 54.345381,54.345381   z "
     style="fill:#ff8080;fill-rule:evenodd;fill-opacity:1;stroke:none;" />
  <path
     id="path7"
     d="  M 307.53092,54.345381   L 307.53092,236.56225   L 180.93815,353.56465   L 54.345381,236.56225   L 54.345381,54.345381  "
     style="fill:none;stroke:#000000;stroke-width:9.5903616px;stroke-linecap:butt;stroke-linejoin:miter;stroke-miterlimit:10;stroke-dasharray:none;stroke-opacity:1;" />
  <path
     id="path9"
     d="  M 75.444176,188.61044   L 75.444176,188.61044   L 123.39598,140.65863   L 238.48032,140.65863   L 286.43212,188.61044   L 238.48032,236.56225   L 123.39598,236.56225   z "
     style="fill:#000000;fill-rule:evenodd;fill-opacity:1;stroke:none;" />
  <path
     id="path11"
     d="  M 75.444176,188.61044   L 75.444176,188.61044   L 123.39598,140.65863   L 238.48032,140.65863   L 286.43212,188.61044   L 238.48032,236.56225   L 123.39598,236.56225   z "
     style="fill:none;stroke:#000000;stroke-width:0.95903611px;stroke-linecap:butt;stroke-linejoin:miter;stroke-miterlimit:10;stroke-dasharray:none;stroke-opacity:1;" />
  <path
     id="path13"
     d="  M 123.39598,164.63454   L 123.39598,164.63454   L 123.39598,121.47791   L 238.48032,121.47791   L 238.48032,164.63454   z "
     style="fill:#000000;fill-rule:evenodd;fill-opacity:1;stroke:none;" />
  <path
     id="path15"
     d="  M 123.39598,164.63454   L 123.39598,164.63454   L 123.39598,121.47791   L 238.48032,121.47791   L 238.48032,164.63454   z "
     style="fill:none;stroke:#000000;stroke-width:0.95903611px;stroke-linecap:butt;stroke-linejoin:miter;stroke-miterlimit:10;stroke-dasharray:none;stroke-opacity:1;" />
  <path
     id="path17"
     d="  M 162.07711,213.10582   L 162.07711,144.45482   L 187.8512,144.45482   C 193.08594,144.45482 197.28172,145.17409 200.47851,146.53273   C 203.63534,147.93132 206.11285,150.08915 207.91104,152.96626   C 209.70923,155.84337 210.58835,158.88032 210.58835,162.03715   C 210.58835,164.95421 209.78915,167.71144 208.23072,170.30883   C 206.63233,172.90622 204.23474,174.98413 200.99799,176.58253   C 205.15381,177.82128 208.3506,179.89919 210.58835,182.81626   C 212.8261,185.73333 213.94498,189.20984 213.94498,193.20582   C 213.94498,196.44257 213.26566,199.3996 211.90703,202.19678   C 210.54839,204.95401 208.87008,207.07188 206.87209,208.59036   C 204.87409,210.06887 202.35662,211.18775 199.31968,211.94698   C 196.32269,212.74618 192.64638,213.10582 188.2508,213.10582   z  M 171.18795,173.30582   L 186.01305,173.30582   C 190.04899,173.30582 192.9261,173.0261 194.68433,172.50662   C 197.00201,171.82731 198.72028,170.66847 199.91907,169.11004   C 201.07791,167.51164 201.63735,165.51365 201.63735,163.11606   C 201.63735,160.83835 201.11787,158.8004 199.99899,157.08213   C 198.92008,155.36385 197.36164,154.16506 195.32369,153.5257   C 193.3257,152.88634 189.80923,152.56666 184.89417,152.56666   L 171.18795,152.56666   z  M 171.18795,204.99397   L 188.2508,204.99397   C 191.20783,204.99397 193.24578,204.91405 194.44458,204.67429   C 196.52249,204.31466 198.28072,203.6753 199.67931,202.79618   C 201.07791,201.95703 202.23674,200.67831 203.15582,199   C 204.0749,197.32168 204.51445,195.40361 204.51445,193.20582   C 204.51445,190.64839 203.8751,188.41064 202.55642,186.53253   C 201.23775,184.65442 199.3996,183.33574 197.08192,182.5765   C 194.76425,181.77731 191.40763,181.41767 187.05201,181.41767   L 171.18795,181.41767   z "
     style="fill:#ffffff;fill-rule:evenodd;fill-opacity:1;stroke:none;" />
  <path
     id="path19"
     d="  M 162.07711,213.10582   L 162.07711,144.45482   L 187.8512,144.45482   C 193.08594,144.45482 197.28172,145.17409 200.47851,146.53273   C 203.63534,147.93132 206.11285,150.08915 207.91104,152.96626   C 209.70923,155.84337 210.58835,158.88032 210.58835,162.03715   C 210.58835,164.95421 209.78915,167.71144 208.23072,170.30883   C 206.63233,172.90622 204.23474,174.98413 200.99799,176.58253   C 205.15381,177.82128 208.3506,179.89919 210.58835,182.81626   C 212.8261,185.73333 213.94498,189.20984 213.94498,193.20582   C 213.94498,196.44257 213.26566,199.3996 211.90703,202.19678   C 210.54839,204.95401 208.87008,207.07188 206.87209,208.59036   C 204.87409,210.06887 202.35662,211.18775 199.31968,211.94698   C 196.32269,212.74618 192.64638,213.10582 188.2508,213.10582   z  M 171.18795,173.30582   L 186.01305,173.30582   C 190.04899,173.30582 192.9261,173.0261 194.68433,172.50662   C 197.00201,171.82731 198.72028,170.66847 199.91907,169.11004   C 201.07791,167.51164 201.63735,165.51365 201.63735,163.11606   C 201.63735,160.83835 201.11787,158.8004 199.99899,157.08213   C 198.92008,155.36385 197.36164,154.16506 195.32369,153.5257   C 193.3257,152.88634 189.80923,152.56666 184.89417,152.56666   L 171.18795,152.56666   z  M 171.18795,204.99397   L 188.2508,204.99397   C 191.20783,204.99397 193.24578,204.91405 194.44458,204.67429   C 196.52249,204.31466 198.28072,203.6753 199.67931,202.79618   C 201.07791,201.95703 202.23674,200.67831 203.15582,199   C 204.0749,197.32168 204.51445,195.40361 204.51445,193.20582   C 204.51445,190.64839 203.8751,188.41064 202.55642,186.53253   C 201.23775,184.65442 199.3996,183.33574 197.08192,182.5765   C 194.76425,181.77731 191.40763,181.41767 187.05201,181.41767   L 171.18795,181.41767   z "
     style="fill:none;stroke:#000000;stroke-width:0.95903611px;stroke-linecap:butt;stroke-linejoin:miter;stroke-miterlimit:10;stroke-dasharray:none;stroke-opacity:1;" />
</svg>
