<?xml version="1.0" encoding="UTF-8" standalone="no"?>
<svg
   xmlns:dc="http://purl.org/dc/elements/1.1/"
   xmlns:cc="http://creativecommons.org/ns#"
   xmlns:rdf="http://www.w3.org/1999/02/22-rdf-syntax-ns#"
   xmlns:svg="http://www.w3.org/2000/svg"
   xmlns="http://www.w3.org/2000/svg"
   id="svg17"
   height="112.9mm"
   width="112.9mm"
   version="1.0">
  <metadata
     id="metadata21">
    <rdf:RDF>
      <cc:Work
         rdf:about="">
        <dc:format>image/svg+xml</dc:format>
        <dc:type
           rdf:resource="http://purl.org/dc/dcmitype/StillImage" />
      </cc:Work>
    </rdf:RDF>
  </metadata>
  <defs
     id="defs3">
    <pattern
       y="0"
       x="0"
       height="6"
       width="6"
       patternUnits="userSpaceOnUse"
       id="EMFhbasepattern" />
  </defs>
  <path
     id="path5"
     d="  M 2906.8676,2810.0118   L 3013.2554,2810.0118   L 3013.2554,2874.0522   L 2906.8676,2874.0522   z "
     style="fill:#000000;fill-rule:nonzero;fill-opacity:1;stroke:none;" />
  <path
     id="path7"
     d="  M 2960.0427,3191.9855   L 3144.0637,3007.4254   L 2960.0427,2822.8275   L 2776.0593,3007.4254   L 2960.0427,3191.9855   z "
     style="fill:#ff8080;fill-rule:nonzero;fill-opacity:1;stroke:#000000;stroke-width:10.62747px;stroke-linecap:square;stroke-linejoin:miter;stroke-miterlimit:282;stroke-dasharray:none;stroke-opacity:1;" />
  <path
     id="path9"
     d="  M 2960.0427,3007.4254   L 2912.1814,2922.0635   C 2912.1814,2890.0433 3007.904,2890.0433 3007.904,2922.0635   z "
     style="fill:none;stroke:#000000;stroke-width:10.62747px;stroke-linecap:butt;stroke-linejoin:miter;stroke-miterlimit:282;stroke-dasharray:none;stroke-opacity:1;" />
  <path
     id="path11"
     d="  M 2960.0427,3007.4254   L 3057.6873,3008.5217   C 3085.3112,3024.5129 3037.4499,3107.6821 3009.826,3091.6532   z "
     style="fill:none;stroke:#000000;stroke-width:10.62747px;stroke-linecap:butt;stroke-linejoin:miter;stroke-miterlimit:282;stroke-dasharray:none;stroke-opacity:1;" />
  <path
     id="path13"
     d="  M 2960.0427,3007.4254   L 2910.2971,3091.6532   C 2882.6732,3107.6821 2834.8119,3024.5129 2862.4358,3008.5217   z "
     style="fill:none;stroke:#000000;stroke-width:10.62747px;stroke-linecap:butt;stroke-linejoin:miter;stroke-miterlimit:282;stroke-dasharray:none;stroke-opacity:1;" />
  <path
     id="path15"
     d="  M 2939.4661,3105.4139   L 2949.1891,3104.4688   C 2949.7921,3107.7578 2950.9603,3110.1394 2952.7693,3111.6894   C 2954.5405,3113.2016 2956.9524,3113.9954 2960.005,3113.9954   C 2963.2083,3113.9954 2965.6202,3113.315 2967.2784,3111.9162   C 2968.8989,3110.5553 2969.728,3108.9675 2969.728,3107.1529   C 2969.728,3105.981 2969.3888,3104.9602 2968.6728,3104.1286   C 2967.9944,3103.3347 2966.7885,3102.6164 2965.0926,3102.0115   C 2963.9243,3101.5957 2961.2486,3100.8774 2957.1032,3099.8189   C 2951.7141,3098.4957 2947.9831,3096.8701 2945.7973,3094.9043   C 2942.7825,3092.1824 2941.275,3088.8557 2941.275,3084.924   C 2941.275,3082.3911 2941.9534,3080.0473 2943.3854,3077.8546   C 2944.8175,3075.6242 2946.8902,3073.9608 2949.5659,3072.7889   C 2952.2793,3071.6547 2955.5203,3071.0877 2959.3266,3071.0877   C 2965.5448,3071.0877 2970.2179,3072.4486 2973.3459,3075.1705   C 2976.4738,3077.8924 2978.132,3081.5594 2978.2827,3086.1337   L 2968.2959,3086.5496   C 2967.8814,3084.0167 2966.9392,3082.1643 2965.5448,3081.068   C 2964.1505,3079.9339 2962.04,3079.3668 2959.2136,3079.3668   C 2956.3118,3079.3668 2954.0506,3079.9717 2952.3924,3081.1814   C 2951.3372,3081.9375 2950.8096,3082.9582 2950.8096,3084.2435   C 2950.8096,3085.4155 2951.2995,3086.4362 2952.2793,3087.2679   C 2953.5607,3088.3264 2956.6132,3089.4227 2961.4747,3090.5946   C 2966.3362,3091.7288 2969.9164,3092.9385 2972.253,3094.1482   C 2974.5895,3095.3958 2976.3984,3097.0592 2977.7174,3099.214   C 2979.0364,3101.331 2979.7148,3103.9773 2979.7148,3107.1151   C 2979.7148,3109.9504 2978.9234,3112.6345 2977.3406,3115.0918   C 2975.7578,3117.5868 2973.5343,3119.4393 2970.6701,3120.649   C 2967.7683,3121.8587 2964.1881,3122.4636 2959.8919,3122.4636   C 2953.636,3122.4636 2948.8122,3120.9892 2945.4582,3118.1161   C 2942.1418,3115.2052 2940.1067,3110.9711 2939.4661,3105.4139   z "
     style="fill:#000000;fill-rule:nonzero;fill-opacity:1;stroke:none;" />
</svg>
