<?xml version="1.0" encoding="UTF-8" standalone="no"?>
<svg
   xmlns:dc="http://purl.org/dc/elements/1.1/"
   xmlns:cc="http://creativecommons.org/ns#"
   xmlns:rdf="http://www.w3.org/1999/02/22-rdf-syntax-ns#"
   xmlns:svg="http://www.w3.org/2000/svg"
   xmlns="http://www.w3.org/2000/svg"
   id="svg21"
   height="125.53mm"
   width="95.75mm"
   version="1.0">
  <metadata
     id="metadata25">
    <rdf:RDF>
      <cc:Work
         rdf:about="">
        <dc:format>image/svg+xml</dc:format>
        <dc:type
           rdf:resource="http://purl.org/dc/dcmitype/StillImage" />
      </cc:Work>
    </rdf:RDF>
  </metadata>
  <defs
     id="defs3">
    <pattern
       y="0"
       x="0"
       height="6"
       width="6"
       patternUnits="userSpaceOnUse"
       id="EMFhbasepattern" />
  </defs>
  <path
     id="path5"
     d="  M 54.345381,54.345381   C 54.345381,419.73815 307.53092,419.73815 307.53092,54.345381   z "
     style="fill:#80e0ff;fill-rule:evenodd;fill-opacity:1;stroke:none;" />
  <path
     id="path7"
     d="  M 54.345381,54.345381   C 54.345381,419.73815 307.53092,419.73815 307.53092,54.345381  "
     style="fill:none;stroke:#000000;stroke-width:9.5903616px;stroke-linecap:butt;stroke-linejoin:miter;stroke-miterlimit:10;stroke-dasharray:none;stroke-opacity:1;" />
  <path
     id="path9"
     d="  M 75.444176,188.61044   L 75.444176,188.61044   L 123.39598,140.65863   L 238.48032,140.65863   L 286.43212,188.61044   L 238.48032,236.56225   L 123.39598,236.56225   z "
     style="fill:#000000;fill-rule:evenodd;fill-opacity:1;stroke:none;" />
  <path
     id="path11"
     d="  M 75.444176,188.61044   L 75.444176,188.61044   L 123.39598,140.65863   L 238.48032,140.65863   L 286.43212,188.61044   L 238.48032,236.56225   L 123.39598,236.56225   z "
     style="fill:none;stroke:#000000;stroke-width:0.95903611px;stroke-linecap:butt;stroke-linejoin:miter;stroke-miterlimit:10;stroke-dasharray:none;stroke-opacity:1;" />
  <path
     id="path13"
     d="  M 123.39598,164.63454   L 123.39598,164.63454   L 123.39598,121.47791   L 238.48032,121.47791   L 238.48032,164.63454   z "
     style="fill:#000000;fill-rule:evenodd;fill-opacity:1;stroke:none;" />
  <path
     id="path15"
     d="  M 123.39598,164.63454   L 123.39598,164.63454   L 123.39598,121.47791   L 238.48032,121.47791   L 238.48032,164.63454   z "
     style="fill:none;stroke:#000000;stroke-width:0.95903611px;stroke-linecap:butt;stroke-linejoin:miter;stroke-miterlimit:10;stroke-dasharray:none;stroke-opacity:1;" />
  <path
     id="path17"
     d="  M 188.8502,186.17289   L 188.8502,178.14096   L 217.901,178.101   L 217.901,203.55542   C 213.46546,207.11184 208.83012,209.78915 204.11486,211.58735   C 199.35964,213.38554 194.48454,214.26466 189.48956,214.26466   C 182.73634,214.26466 176.62249,212.8261 171.10803,209.94899   C 165.59357,207.07188 161.43775,202.8761 158.64056,197.44156   C 155.80341,191.96707 154.40482,185.85321 154.40482,179.1   C 154.40482,172.4267 155.80341,166.19297 158.6006,160.39879   C 161.39779,154.60462 165.43373,150.32891 170.66847,147.49176   C 175.90321,144.69458 181.93715,143.29598 188.77028,143.29598   C 193.76526,143.29598 198.24076,144.09518 202.23674,145.69357   C 206.27269,147.33193 209.38956,149.56968 211.66727,152.40683   C 213.94498,155.28393 215.70321,159.04016 216.86205,163.6755   L 208.67028,165.91325   C 207.67128,162.39678 206.39257,159.67952 204.83413,157.68152   C 203.31566,155.68353 201.11787,154.08514 198.28072,152.88634   C 195.44357,151.68755 192.28674,151.04819 188.8502,151.04819   C 184.69437,151.04819 181.09799,151.68755 178.06104,152.96626   C 175.02409,154.24498 172.58654,155.88333 170.74839,157.96124   C 168.87028,159.99919 167.43172,162.27691 166.39277,164.75442   C 164.63454,168.99016 163.79538,173.58554 163.79538,178.54056   C 163.79538,184.69437 164.83433,189.80923 166.95221,193.9251   C 169.03012,198.04096 172.10703,201.07791 176.14297,203.0759   C 180.17891,205.07389 184.45462,206.07289 188.97008,206.07289   C 192.88614,206.07289 196.76225,205.35361 200.47851,203.83514   C 204.23474,202.31666 207.07188,200.67831 209.02992,198.96004   L 209.02992,186.17289   z "
     style="fill:#ffffff;fill-rule:evenodd;fill-opacity:1;stroke:none;" />
  <path
     id="path19"
     d="  M 188.8502,186.17289   L 188.8502,178.14096   L 217.901,178.101   L 217.901,203.55542   C 213.46546,207.11184 208.83012,209.78915 204.11486,211.58735   C 199.35964,213.38554 194.48454,214.26466 189.48956,214.26466   C 182.73634,214.26466 176.62249,212.8261 171.10803,209.94899   C 165.59357,207.07188 161.43775,202.8761 158.64056,197.44156   C 155.80341,191.96707 154.40482,185.85321 154.40482,179.1   C 154.40482,172.4267 155.80341,166.19297 158.6006,160.39879   C 161.39779,154.60462 165.43373,150.32891 170.66847,147.49176   C 175.90321,144.69458 181.93715,143.29598 188.77028,143.29598   C 193.76526,143.29598 198.24076,144.09518 202.23674,145.69357   C 206.27269,147.33193 209.38956,149.56968 211.66727,152.40683   C 213.94498,155.28393 215.70321,159.04016 216.86205,163.6755   L 208.67028,165.91325   C 207.67128,162.39678 206.39257,159.67952 204.83413,157.68152   C 203.31566,155.68353 201.11787,154.08514 198.28072,152.88634   C 195.44357,151.68755 192.28674,151.04819 188.8502,151.04819   C 184.69437,151.04819 181.09799,151.68755 178.06104,152.96626   C 175.02409,154.24498 172.58654,155.88333 170.74839,157.96124   C 168.87028,159.99919 167.43172,162.27691 166.39277,164.75442   C 164.63454,168.99016 163.79538,173.58554 163.79538,178.54056   C 163.79538,184.69437 164.83433,189.80923 166.95221,193.9251   C 169.03012,198.04096 172.10703,201.07791 176.14297,203.0759   C 180.17891,205.07389 184.45462,206.07289 188.97008,206.07289   C 192.88614,206.07289 196.76225,205.35361 200.47851,203.83514   C 204.23474,202.31666 207.07188,200.67831 209.02992,198.96004   L 209.02992,186.17289   z "
     style="fill:none;stroke:#000000;stroke-width:0.95903611px;stroke-linecap:butt;stroke-linejoin:miter;stroke-miterlimit:10;stroke-dasharray:none;stroke-opacity:1;" />
</svg>
