<?xml version="1.0" encoding="UTF-8" standalone="no"?>
<svg
   xmlns:dc="http://purl.org/dc/elements/1.1/"
   xmlns:cc="http://creativecommons.org/ns#"
   xmlns:rdf="http://www.w3.org/1999/02/22-rdf-syntax-ns#"
   xmlns:svg="http://www.w3.org/2000/svg"
   xmlns="http://www.w3.org/2000/svg"
   id="svg21"
   height="107.94mm"
   width="95.75mm"
   version="1.0">
  <metadata
     id="metadata25">
    <rdf:RDF>
      <cc:Work
         rdf:about="">
        <dc:format>image/svg+xml</dc:format>
        <dc:type
           rdf:resource="http://purl.org/dc/dcmitype/StillImage" />
      </cc:Work>
    </rdf:RDF>
  </metadata>
  <defs
     id="defs3">
    <pattern
       y="0"
       x="0"
       height="6"
       width="6"
       patternUnits="userSpaceOnUse"
       id="EMFhbasepattern" />
  </defs>
  <path
     id="path5"
     d="  M 307.53092,54.345381   L 307.53092,236.56225   L 180.93815,353.56465   L 54.345381,236.56225   L 54.345381,54.345381   z "
     style="fill:#ff8080;fill-rule:evenodd;fill-opacity:1;stroke:none;" />
  <path
     id="path7"
     d="  M 307.53092,54.345381   L 307.53092,236.56225   L 180.93815,353.56465   L 54.345381,236.56225   L 54.345381,54.345381  "
     style="fill:none;stroke:#000000;stroke-width:9.5903616px;stroke-linecap:butt;stroke-linejoin:miter;stroke-miterlimit:10;stroke-dasharray:none;stroke-opacity:1;" />
  <path
     id="path9"
     d="  M 75.444176,188.61044   L 75.444176,188.61044   L 123.39598,140.65863   L 238.48032,140.65863   L 286.43212,188.61044   L 238.48032,236.56225   L 123.39598,236.56225   z "
     style="fill:#000000;fill-rule:evenodd;fill-opacity:1;stroke:none;" />
  <path
     id="path11"
     d="  M 75.444176,188.61044   L 75.444176,188.61044   L 123.39598,140.65863   L 238.48032,140.65863   L 286.43212,188.61044   L 238.48032,236.56225   L 123.39598,236.56225   z "
     style="fill:none;stroke:#000000;stroke-width:0.95903611px;stroke-linecap:butt;stroke-linejoin:miter;stroke-miterlimit:10;stroke-dasharray:none;stroke-opacity:1;" />
  <path
     id="path13"
     d="  M 123.39598,164.63454   L 123.39598,164.63454   L 123.39598,121.47791   L 238.48032,121.47791   L 238.48032,164.63454   z "
     style="fill:#000000;fill-rule:evenodd;fill-opacity:1;stroke:none;" />
  <path
     id="path15"
     d="  M 123.39598,164.63454   L 123.39598,164.63454   L 123.39598,121.47791   L 238.48032,121.47791   L 238.48032,164.63454   z "
     style="fill:none;stroke:#000000;stroke-width:0.95903611px;stroke-linecap:butt;stroke-linejoin:miter;stroke-miterlimit:10;stroke-dasharray:none;stroke-opacity:1;" />
  <path
     id="path17"
     d="  M 155.48373,213.10582   L 155.48373,144.45482   L 169.15,144.45482   L 185.37369,193.08594   C 186.89217,197.6014 187.97108,200.99799 188.6504,203.23574   C 189.4496,200.71827 190.64839,197.08192 192.3267,192.20682   L 208.7502,144.45482   L 220.97791,144.45482   L 220.97791,213.10582   L 212.2267,213.10582   L 212.2267,155.64357   L 192.28674,213.10582   L 184.09498,213.10582   L 164.23494,154.68454   L 164.23494,213.10582   z "
     style="fill:#ffffff;fill-rule:evenodd;fill-opacity:1;stroke:none;" />
  <path
     id="path19"
     d="  M 155.48373,213.10582   L 155.48373,144.45482   L 169.15,144.45482   L 185.37369,193.08594   C 186.89217,197.6014 187.97108,200.99799 188.6504,203.23574   C 189.4496,200.71827 190.64839,197.08192 192.3267,192.20682   L 208.7502,144.45482   L 220.97791,144.45482   L 220.97791,213.10582   L 212.2267,213.10582   L 212.2267,155.64357   L 192.28674,213.10582   L 184.09498,213.10582   L 164.23494,154.68454   L 164.23494,213.10582   z "
     style="fill:none;stroke:#000000;stroke-width:0.95903611px;stroke-linecap:butt;stroke-linejoin:miter;stroke-miterlimit:10;stroke-dasharray:none;stroke-opacity:1;" />
</svg>
