<?xml version="1.0" encoding="UTF-8" standalone="no"?>
<svg
   xmlns:dc="http://purl.org/dc/elements/1.1/"
   xmlns:cc="http://creativecommons.org/ns#"
   xmlns:rdf="http://www.w3.org/1999/02/22-rdf-syntax-ns#"
   xmlns:svg="http://www.w3.org/2000/svg"
   xmlns="http://www.w3.org/2000/svg"
   id="svg21"
   height="116.05mm"
   width="135.35001mm"
   version="1.0">
  <metadata
     id="metadata25">
    <rdf:RDF>
      <cc:Work
         rdf:about="">
        <dc:format>image/svg+xml</dc:format>
        <dc:type
           rdf:resource="http://purl.org/dc/dcmitype/StillImage" />
      </cc:Work>
    </rdf:RDF>
  </metadata>
  <defs
     id="defs3">
    <pattern
       y="0"
       x="0"
       height="6"
       width="6"
       patternUnits="userSpaceOnUse"
       id="EMFhbasepattern" />
  </defs>
  <path
     id="path5"
     d="  M 174.2249,54.345381   C 54.345381,54.345381 54.345381,250.94779 174.2249,250.94779   C 174.2249,384.25381 337.26104,384.25381 337.26104,250.94779   C 457.14056,250.94779 457.14056,54.345381 337.26104,54.345381   z "
     style="fill:#ffff80;fill-rule:evenodd;fill-opacity:1;stroke:none;" />
  <path
     id="path7"
     d="  M 174.2249,54.345381   C 54.345381,54.345381 54.345381,250.94779 174.2249,250.94779   C 174.2249,384.25381 337.26104,384.25381 337.26104,250.94779   C 457.14056,250.94779 457.14056,54.345381 337.26104,54.345381  "
     style="fill:none;stroke:#000000;stroke-width:9.5903616px;stroke-linecap:butt;stroke-linejoin:miter;stroke-miterlimit:10;stroke-dasharray:none;stroke-opacity:1;" />
  <path
     id="path9"
     d="  M 150.24899,188.61044   L 150.24899,188.61044   L 198.2008,140.65863   L 313.28514,140.65863   L 361.23694,188.61044   L 313.28514,236.56225   L 198.2008,236.56225   z "
     style="fill:#000000;fill-rule:evenodd;fill-opacity:1;stroke:none;" />
  <path
     id="path11"
     d="  M 150.24899,188.61044   L 150.24899,188.61044   L 198.2008,140.65863   L 313.28514,140.65863   L 361.23694,188.61044   L 313.28514,236.56225   L 198.2008,236.56225   z "
     style="fill:none;stroke:#000000;stroke-width:0.95903611px;stroke-linecap:butt;stroke-linejoin:miter;stroke-miterlimit:10;stroke-dasharray:none;stroke-opacity:1;" />
  <path
     id="path13"
     d="  M 198.2008,164.63454   L 198.2008,164.63454   L 198.2008,121.47791   L 313.28514,121.47791   L 313.28514,164.63454   z "
     style="fill:#000000;fill-rule:evenodd;fill-opacity:1;stroke:none;" />
  <path
     id="path15"
     d="  M 198.2008,164.63454   L 198.2008,164.63454   L 198.2008,121.47791   L 313.28514,121.47791   L 313.28514,164.63454   z "
     style="fill:none;stroke:#000000;stroke-width:0.95903611px;stroke-linecap:butt;stroke-linejoin:miter;stroke-miterlimit:10;stroke-dasharray:none;stroke-opacity:1;" />
  <path
     id="path17"
     d="  M 223.9749,213.10582   L 250.34839,144.45482   L 260.13855,144.45482   L 288.23032,213.10582   L 277.88072,213.10582   L 269.84879,192.3267   L 241.15763,192.3267   L 233.60522,213.10582   z  M 243.79498,184.93413   L 267.0516,184.93413   L 259.89879,165.91325   C 257.701,160.11907 256.06265,155.40381 255.02369,151.68755   C 254.14457,156.08313 252.90582,160.43875 251.30743,164.79438   z "
     style="fill:#ffffff;fill-rule:evenodd;fill-opacity:1;stroke:none;" />
  <path
     id="path19"
     d="  M 223.9749,213.10582   L 250.34839,144.45482   L 260.13855,144.45482   L 288.23032,213.10582   L 277.88072,213.10582   L 269.84879,192.3267   L 241.15763,192.3267   L 233.60522,213.10582   z  M 243.79498,184.93413   L 267.0516,184.93413   L 259.89879,165.91325   C 257.701,160.11907 256.06265,155.40381 255.02369,151.68755   C 254.14457,156.08313 252.90582,160.43875 251.30743,164.79438   z "
     style="fill:none;stroke:#000000;stroke-width:0.95903611px;stroke-linecap:butt;stroke-linejoin:miter;stroke-miterlimit:10;stroke-dasharray:none;stroke-opacity:1;" />
</svg>
