<?xml version="1.0" encoding="UTF-8" standalone="no"?>
<svg
   xmlns:dc="http://purl.org/dc/elements/1.1/"
   xmlns:cc="http://creativecommons.org/ns#"
   xmlns:rdf="http://www.w3.org/1999/02/22-rdf-syntax-ns#"
   xmlns:svg="http://www.w3.org/2000/svg"
   xmlns="http://www.w3.org/2000/svg"
   id="svg13"
   height="112.9mm"
   width="112.9mm"
   version="1.0">
  <metadata
     id="metadata17">
    <rdf:RDF>
      <cc:Work
         rdf:about="">
        <dc:format>image/svg+xml</dc:format>
        <dc:type
           rdf:resource="http://purl.org/dc/dcmitype/StillImage" />
      </cc:Work>
    </rdf:RDF>
  </metadata>
  <defs
     id="defs3">
    <pattern
       y="0"
       x="0"
       height="6"
       width="6"
       patternUnits="userSpaceOnUse"
       id="EMFhbasepattern" />
  </defs>
  <path
     id="path5"
     d="  M 1859.025,2199.3411   L 2231.2438,2199.3411  "
     style="fill:none;stroke:#000000;stroke-width:10.627287px;stroke-linecap:butt;stroke-linejoin:miter;stroke-miterlimit:282;stroke-dasharray:none;stroke-opacity:1;" />
  <path
     id="path7"
     d="  M 1885.5932,2199.3411   L 1938.7673,1960.0387   L 2151.5015,1960.0387   L 2204.6756,2199.3411  "
     style="fill:none;stroke:#000000;stroke-width:10.627287px;stroke-linecap:butt;stroke-linejoin:miter;stroke-miterlimit:282;stroke-dasharray:none;stroke-opacity:1;" />
  <path
     id="path9"
     d="  M 2092.9761,1906.8646   C 2092.9761,1933.282 2071.5707,1954.725 2045.1156,1954.725   C 2018.6981,1954.725 1997.2551,1933.282 1997.2551,1906.8646   C 1997.2551,1880.4094 2018.6981,1859.0041 2045.1156,1859.0041   C 2071.5707,1859.0041 2092.9761,1880.4094 2092.9761,1906.8646   z "
     style="fill:none;stroke:#000000;stroke-width:10.627287px;stroke-linecap:butt;stroke-linejoin:miter;stroke-miterlimit:282;stroke-dasharray:none;stroke-opacity:1;" />
  <path
     id="path11"
     d="  M 2077.0351,2199.3411   C 2077.0351,2216.9402 2062.7524,2231.2606 2045.1156,2231.2606   C 2027.5165,2231.2606 2013.2337,2216.9402 2013.2337,2199.3411   C 2013.2337,2181.7043 2027.5165,2167.4215 2045.1156,2167.4215   C 2062.7524,2167.4215 2077.0351,2181.7043 2077.0351,2199.3411   z "
     style="fill:#ffffff;fill-rule:nonzero;fill-opacity:1;stroke:#000000;stroke-width:10.627287px;stroke-linecap:butt;stroke-linejoin:miter;stroke-miterlimit:282;stroke-dasharray:none;stroke-opacity:1;" />
</svg>
