<?xml version="1.0" encoding="UTF-8" standalone="no"?>
<svg
   xmlns:dc="http://purl.org/dc/elements/1.1/"
   xmlns:cc="http://creativecommons.org/ns#"
   xmlns:rdf="http://www.w3.org/1999/02/22-rdf-syntax-ns#"
   xmlns:svg="http://www.w3.org/2000/svg"
   xmlns="http://www.w3.org/2000/svg"
   id="svg11"
   height="65.639999mm"
   width="82.230003mm"
   version="1.0">
  <metadata
     id="metadata15">
    <rdf:RDF>
      <cc:Work
         rdf:about="">
        <dc:format>image/svg+xml</dc:format>
        <dc:type
           rdf:resource="http://purl.org/dc/dcmitype/StillImage" />
      </cc:Work>
    </rdf:RDF>
  </metadata>
  <defs
     id="defs3">
    <pattern
       y="0"
       x="0"
       height="6"
       width="6"
       patternUnits="userSpaceOnUse"
       id="EMFhbasepattern" />
  </defs>
  <path
     id="path5"
     d="  M 93.026505,193.40562   L 93.026505,193.40562   L 54.665059,116.68273   L 102.61687,116.68273   L 102.61687,54.345381   L 208.11084,54.345381   L 208.11084,116.68273   L 256.06265,116.68273   L 217.7012,193.40562   z "
     style="fill:#aaffaa;fill-rule:evenodd;fill-opacity:1;stroke:none;" />
  <path
     id="path7"
     d="  M 93.026505,193.40562   L 93.026505,193.40562   L 54.665059,116.68273   L 102.61687,116.68273   L 102.61687,54.345381   L 208.11084,54.345381   L 208.11084,116.68273   L 256.06265,116.68273   L 217.7012,193.40562   z "
     style="fill:none;stroke:#000000;stroke-width:9.5903616px;stroke-linecap:butt;stroke-linejoin:miter;stroke-miterlimit:10;stroke-dasharray:none;stroke-opacity:1;" />
  <path
     id="path9"
     d="  M 115.00442,143.93534   C 115.00442,137.10221 116.84257,131.74759 120.51887,127.87148   C 124.19518,123.99538 128.91044,122.07731 134.74458,122.07731   C 138.54076,122.07731 141.97731,122.99638 145.01425,124.79458   C 148.0512,126.63273 150.40883,129.1502 152.00723,132.38695   C 153.60562,135.66365 154.40482,139.33996 154.40482,143.45582   C 154.40482,147.6516 153.56566,151.36787 151.88735,154.68454   C 150.16907,157.96124 147.81144,160.47871 144.69458,162.15703   C 141.61767,163.8753 138.301,164.71446 134.70462,164.71446   C 130.82851,164.71446 127.35201,163.75542 124.31506,161.87731   C 121.23815,160.03915 118.96044,157.48172 117.36205,154.20502   C 115.80361,150.96827 115.00442,147.57168 115.00442,143.93534   z  M 120.63875,144.01526   C 120.63875,148.97028 121.95743,152.88634 124.63474,155.76345   C 127.31205,158.6006 130.62871,160.03915 134.66466,160.03915   C 138.78052,160.03915 142.13715,158.6006 144.81446,155.72349   C 147.45181,152.84638 148.77048,148.73052 148.77048,143.41586   C 148.77048,140.09919 148.21104,137.14217 147.09217,134.66466   C 145.93333,132.14719 144.29498,130.22911 142.09719,128.83052   C 139.93936,127.47189 137.46185,126.75261 134.74458,126.75261   C 130.90843,126.75261 127.59177,128.11124 124.79458,130.74859   C 122.03735,133.38594 120.63875,137.82148 120.63875,144.01526   z  M 171.90723,163.99518   L 171.90723,127.67168   L 158.32088,127.67168   L 158.32088,122.79658   L 190.96807,122.79658   L 190.96807,127.67168   L 177.34176,127.67168   L 177.34176,163.99518   z "
     style="fill:#000000;fill-rule:evenodd;fill-opacity:1;stroke:none;" />
</svg>
