<?xml version="1.0" encoding="UTF-8" standalone="no"?>
<svg
   xmlns:dc="http://purl.org/dc/elements/1.1/"
   xmlns:cc="http://creativecommons.org/ns#"
   xmlns:rdf="http://www.w3.org/1999/02/22-rdf-syntax-ns#"
   xmlns:svg="http://www.w3.org/2000/svg"
   xmlns="http://www.w3.org/2000/svg"
   id="svg37"
   height="95.75mm"
   width="95.75mm"
   version="1.0">
  <metadata
     id="metadata41">
    <rdf:RDF>
      <cc:Work
         rdf:about="">
        <dc:format>image/svg+xml</dc:format>
        <dc:type
           rdf:resource="http://purl.org/dc/dcmitype/StillImage" />
      </cc:Work>
    </rdf:RDF>
  </metadata>
  <defs
     id="defs3">
    <pattern
       y="0"
       x="0"
       height="6"
       width="6"
       patternUnits="userSpaceOnUse"
       id="EMFhbasepattern" />
  </defs>
  <path
     id="path5"
     d="  M 132.98634,15.983936   L 132.98634,54.345381   L 228.88996,54.345381   L 228.88996,15.983936   L 132.98634,15.983936   z "
     style="fill:#000000;fill-rule:evenodd;fill-opacity:1;stroke:none;" />
  <path
     id="path7"
     d="  M 54.345381,54.345381   L 54.345381,307.53092   L 307.53092,307.53092   L 307.53092,54.345381   L 54.345381,54.345381   z "
     style="fill:#aaffaa;fill-rule:evenodd;fill-opacity:1;stroke:none;" />
  <path
     id="path9"
     d="  M 54.345381,54.345381   L 307.53092,54.345381   L 307.53092,307.53092   L 54.345381,307.53092   z "
     style="fill:none;stroke:#000000;stroke-width:9.5903616px;stroke-linecap:butt;stroke-linejoin:miter;stroke-miterlimit:10;stroke-dasharray:none;stroke-opacity:1;" />
  <path
     id="path11"
     d="  M 167.67148,180.89819   L 194.04498,181.09799   C 195.48353,181.09799 209.46947,159.7994 210.90803,157.12209   L 151.12811,157.08213   z "
     style="fill:#000000;fill-rule:evenodd;fill-opacity:1;stroke:none;" />
  <path
     id="path13"
     d="  M 136.02329,165.71345   L 136.02329,165.71345   L 151.96727,190.44859   L 154.56466,188.6504   L 139.06024,164.23494   z "
     style="fill:#000000;fill-rule:evenodd;fill-opacity:1;stroke:none;" />
  <path
     id="path15"
     d="  M 207.63132,188.97008   L 207.63132,188.97008   L 211.06787,190.24879   L 226.41245,165.55361   L 223.45542,164.31486   z "
     style="fill:#000000;fill-rule:evenodd;fill-opacity:1;stroke:none;" />
  <path
     id="path17"
     d="  M 164.31486,194.36466   L 164.31486,194.36466   L 197.6014,194.36466   L 197.6014,190.40863   L 164.31486,190.40863   z "
     style="fill:#000000;fill-rule:evenodd;fill-opacity:1;stroke:none;" />
  <path
     id="path19"
     d="  M 118.24116,168.27088   L 118.24116,168.27088   L 141.33795,205.15381   L 144.5747,203.55542   L 121.27811,166.39277   z "
     style="fill:#000000;fill-rule:evenodd;fill-opacity:1;stroke:none;" />
  <path
     id="path21"
     d="  M 218.42048,202.79618   C 218.42048,204.23474 219.97891,204.43454 221.01787,204.99397   L 244.0747,167.9512   L 241.03775,166.43273   C 239.71907,171.34779 218.42048,201.31767 218.42048,202.79618   z "
     style="fill:#000000;fill-rule:evenodd;fill-opacity:1;stroke:none;" />
  <path
     id="path23"
     d="  M 151.92731,209.46947   L 151.92731,209.46947   L 210.42851,209.46947   L 210.42851,205.47349   L 151.92731,205.47349   z "
     style="fill:#000000;fill-rule:evenodd;fill-opacity:1;stroke:none;" />
  <path
     id="path25"
     d="  M 100.2992,170.62851   L 100.2992,170.62851   L 130.62871,218.78012   L 133.98534,216.82209   L 103.49598,168.5506   z "
     style="fill:#000000;fill-rule:evenodd;fill-opacity:1;stroke:none;" />
  <path
     id="path27"
     d="  M 229.08976,216.54237   C 229.08976,216.94196 231.32751,218.5004 231.64719,218.7002   L 262.3763,170.62851   L 262.89578,170.66847   L 259.21947,168.67048   C 256.14257,174.46466 229.08976,215.02389 229.08976,216.54237   z "
     style="fill:#000000;fill-rule:evenodd;fill-opacity:1;stroke:none;" />
  <path
     id="path29"
     d="  M 139.4998,224.09478   L 139.4998,224.09478   L 223.29558,224.09478   L 223.29558,220.09879   L 139.4998,220.09879   z "
     style="fill:#000000;fill-rule:evenodd;fill-opacity:1;stroke:none;" />
  <path
     id="path31"
     d="  M 239.31947,230.32851   C 239.87891,230.60823 241.63715,231.64719 242.35642,231.64719   C 242.83594,231.64719 277.04156,177.86124 280.51807,172.58654   L 276.96164,171.30783   z "
     style="fill:#000000;fill-rule:evenodd;fill-opacity:1;stroke:none;" />
  <path
     id="path33"
     d="  M 82.756826,172.66646   L 82.756826,172.66646   L 120.43895,231.64719   L 123.03634,230.32851   L 85.394175,171.30783   z "
     style="fill:#000000;fill-rule:evenodd;fill-opacity:1;stroke:none;" />
  <path
     id="path35"
     d="  M 127.07229,239.15964   L 127.07229,239.15964   L 235.28353,239.15964   L 235.28353,235.64317   L 127.07229,235.64317   z "
     style="fill:#000000;fill-rule:evenodd;fill-opacity:1;stroke:none;" />
</svg>
