<?xml version="1.0" encoding="UTF-8" standalone="no"?>
<svg
   xmlns:dc="http://purl.org/dc/elements/1.1/"
   xmlns:cc="http://creativecommons.org/ns#"
   xmlns:rdf="http://www.w3.org/1999/02/22-rdf-syntax-ns#"
   xmlns:svg="http://www.w3.org/2000/svg"
   xmlns="http://www.w3.org/2000/svg"
   id="svg13"
   height="89.669998mm"
   width="120.11mm"
   version="1.0">
  <metadata
     id="metadata17">
    <rdf:RDF>
      <cc:Work
         rdf:about="">
        <dc:format>image/svg+xml</dc:format>
        <dc:type
           rdf:resource="http://purl.org/dc/dcmitype/StillImage" />
      </cc:Work>
    </rdf:RDF>
  </metadata>
  <defs
     id="defs3">
    <pattern
       y="0"
       x="0"
       height="6"
       width="6"
       patternUnits="userSpaceOnUse"
       id="EMFhbasepattern" />
  </defs>
  <path
     id="path5"
     d="  M 54.345381,54.345381   L 54.345381,284.51405   L 399.59839,284.51405   L 399.59839,54.345381   L 54.345381,54.345381   z "
     style="fill:#80e0ff;fill-rule:evenodd;fill-opacity:1;stroke:none;" />
  <path
     id="path7"
     d="  M 54.345381,54.345381   L 399.59839,54.345381   L 399.59839,284.51405   L 54.345381,284.51405   z "
     style="fill:none;stroke:#000000;stroke-width:9.5903616px;stroke-linecap:butt;stroke-linejoin:miter;stroke-miterlimit:10;stroke-dasharray:none;stroke-opacity:1;" />
  <path
     id="path9"
     d="  M 195.64337,256.86184   L 195.64337,201.23775   L 206.71225,201.23775   L 219.89899,240.59819   C 221.09779,244.27449 221.9769,247.03172 222.53634,248.82992   C 223.1757,246.83192 224.13474,243.83494 225.49337,239.91887   L 238.8,201.23775   L 248.71004,201.23775   L 248.71004,256.86184   L 241.59719,256.86184   L 241.59719,210.30863   L 225.45341,256.86184   L 218.82008,256.86184   L 202.71626,209.50943   L 202.71626,256.86184   z  M 261.81686,256.86184   L 261.81686,201.23775   L 269.16947,201.23775   L 269.16947,256.86184   z "
     style="fill:#000000;fill-rule:evenodd;fill-opacity:1;stroke:none;" />
  <path
     id="path11"
     d="  M 152.20703,124.2751   C 152.20703,115.04438 154.68454,107.81165 159.63956,102.57691   C 164.59458,97.382127 170.98815,94.744778 178.82028,94.744778   C 183.9751,94.744778 188.57048,95.983533 192.7263,98.421083   C 196.84217,100.89859 199.95903,104.29518 202.11686,108.69076   C 204.31466,113.08634 205.39357,118.04136 205.39357,123.63574   C 205.39357,129.27008 204.23474,134.30502 201.95703,138.74056   C 199.67931,143.21606 196.48253,146.57269 192.28674,148.8504   C 188.13092,151.16807 183.61546,152.28695 178.78032,152.28695   C 173.54558,152.28695 168.87028,151.04819 164.75442,148.49076   C 160.63855,145.97329 157.52168,142.53674 155.40381,138.14116   C 153.24598,133.78554 152.20703,129.1502 152.20703,124.2751   z  M 159.7994,124.39498   C 159.7994,131.06827 161.59759,136.38293 165.19397,140.21907   C 168.79036,144.09518 173.30582,146.01325 178.74036,146.01325   C 184.29478,146.01325 188.8502,144.05522 192.40662,140.17911   C 196.00301,136.26305 197.8012,130.74859 197.8012,123.59578   C 197.8012,119.04036 197.04197,115.1243 195.48353,111.72771   C 193.96506,108.37108 191.72731,105.73373 188.77028,103.89558   C 185.85321,102.01747 182.53654,101.09839 178.86024,101.09839   C 173.66546,101.09839 169.18996,102.89658 165.43373,106.45301   C 161.67751,110.0494 159.7994,116.00341 159.7994,124.39498   z  M 214.86405,151.36787   L 214.86405,95.743774   L 235.84297,95.743774   C 239.51927,95.743774 242.35642,95.903613 244.31445,96.263252   C 247.03172,96.74277 249.30943,97.581926 251.14759,98.860641   C 253.0257,100.13936 254.50421,101.93755 255.62309,104.25522   C 256.74196,106.53293 257.3014,109.0504 257.3014,111.80763   C 257.3014,116.56285 255.82289,120.55883 252.78594,123.83554   C 249.78895,127.11225 244.35441,128.7506 236.48233,128.7506   L 222.21666,128.7506   L 222.21666,151.36787   z  M 222.21666,122.19719   L 236.60221,122.19719   C 241.35743,122.19719 244.71405,121.31807 246.71204,119.51988   C 248.71004,117.76164 249.70903,115.28413 249.70903,112.04739   C 249.70903,109.72972 249.14959,107.73173 247.9508,106.09337   C 246.79196,104.41506 245.23353,103.33614 243.31546,102.81667   C 242.0767,102.45703 239.79899,102.29719 236.44237,102.29719   L 222.21666,102.29719   z  M 264.17449,133.46586   L 271.12751,132.86646   C 271.44718,135.66365 272.20642,137.94136 273.40522,139.73956   C 274.60401,141.49779 276.48212,142.93634 278.99959,144.05522   C 281.51706,145.13413 284.39417,145.69357 287.551,145.69357   C 290.34819,145.69357 292.8257,145.29397 294.98353,144.45482   C 297.14136,143.61566 298.73975,142.45683 299.77871,141.01827   C 300.81767,139.57972 301.33714,137.98132 301.33714,136.26305   C 301.33714,134.50482 300.85763,132.98634 299.81867,131.66767   C 298.81967,130.38895 297.14136,129.27008 294.82369,128.39096   C 293.34518,127.83152 290.02851,126.91245 284.91365,125.67369   C 279.79879,124.4749 276.24237,123.31606 274.20441,122.23715   C 271.5271,120.83855 269.56907,119.12028 268.2504,117.04237   C 266.93172,114.96446 266.29237,112.68675 266.29237,110.12932   C 266.29237,107.33213 267.09156,104.69478 268.68996,102.25723   C 270.28835,99.819677 272.60602,97.941565 275.68293,96.70281   C 278.71988,95.424095 282.11646,94.784738 285.87269,94.784738   C 289.98855,94.784738 293.6249,95.464055 296.78172,96.78273   C 299.93855,98.101404 302.33614,100.05944 304.05441,102.65683   C 305.73273,105.21426 306.6518,108.13132 306.77168,111.40803   L 299.69879,111.92751   C 299.33915,108.41104 298.06044,105.77369 295.86265,103.9755   C 293.66486,102.17731 290.42811,101.29819 286.15241,101.29819   C 281.71686,101.29819 278.48012,102.09739 276.44216,103.73574   C 274.40421,105.37409 273.40522,107.33213 273.40522,109.60984   C 273.40522,111.60783 274.12449,113.28614 275.56305,114.56486   C 276.96164,115.84357 280.67791,117.16225 286.63192,118.52088   C 292.6259,119.87952 296.74176,121.03835 298.93955,122.07731   C 302.1763,123.55582 304.57389,125.43393 306.13232,127.7516   C 307.6508,130.02932 308.45,132.66666 308.45,135.66365   C 308.45,138.62068 307.57088,141.37791 305.89257,144.01526   C 304.21425,146.61265 301.7767,148.6506 298.57992,150.12911   C 295.42309,151.56767 291.86666,152.28695 287.87068,152.28695   C 282.83574,152.28695 278.63996,151.56767 275.24337,150.08915   C 271.84678,148.6506 269.16947,146.41285 267.21144,143.49578   C 265.29337,140.53875 264.25441,137.22209 264.17449,133.46586   z "
     style="fill:#000000;fill-rule:evenodd;fill-opacity:1;stroke:none;" />
</svg>
