<?xml version="1.0" encoding="UTF-8" standalone="no"?>
<svg
   xmlns:dc="http://purl.org/dc/elements/1.1/"
   xmlns:cc="http://creativecommons.org/ns#"
   xmlns:rdf="http://www.w3.org/1999/02/22-rdf-syntax-ns#"
   xmlns:svg="http://www.w3.org/2000/svg"
   xmlns="http://www.w3.org/2000/svg"
   id="svg13"
   height="116.73mm"
   width="116.73mm"
   version="1.0">
  <metadata
     id="metadata17">
    <rdf:RDF>
      <cc:Work
         rdf:about="">
        <dc:format>image/svg+xml</dc:format>
        <dc:type
           rdf:resource="http://purl.org/dc/dcmitype/StillImage" />
      </cc:Work>
    </rdf:RDF>
  </metadata>
  <defs
     id="defs3">
    <pattern
       y="0"
       x="0"
       height="6"
       width="6"
       patternUnits="userSpaceOnUse"
       id="EMFhbasepattern" />
  </defs>
  <path
     id="path5"
     d="  M 220.57831,386.49156   L 220.57831,386.49156   L 386.49156,220.57831   L 220.57831,54.665059   L 54.665059,220.57831   L 220.57831,386.49156   z "
     style="fill:#ff8080;fill-rule:evenodd;fill-opacity:1;stroke:none;" />
  <path
     id="path7"
     d="  M 220.57831,386.49156   L 220.57831,386.49156   L 386.49156,220.57831   L 220.57831,54.665059   L 54.665059,220.57831   L 220.57831,386.49156  "
     style="fill:none;stroke:#000000;stroke-width:9.5903616px;stroke-linecap:butt;stroke-linejoin:miter;stroke-miterlimit:10;stroke-dasharray:none;stroke-opacity:1;" />
  <path
     id="path9"
     d="  M 189.2498,308.01044   L 189.2498,252.38634   L 200.31867,252.38634   L 213.50542,291.74678   C 214.70421,295.42309 215.58333,298.18032 216.14277,299.97851   C 216.78213,297.98052 217.74116,294.98353 219.0998,291.06747   L 232.40642,252.38634   L 242.31646,252.38634   L 242.31646,308.01044   L 235.20361,308.01044   L 235.20361,261.45723   L 219.05984,308.01044   L 212.4265,308.01044   L 196.32269,260.65803   L 196.32269,308.01044   z  M 255.42329,308.01044   L 255.42329,252.38634   L 262.7759,252.38634   L 262.7759,308.01044   z "
     style="fill:#000000;fill-rule:evenodd;fill-opacity:1;stroke:none;" />
  <path
     id="path11"
     d="  M 145.81345,175.42369   C 145.81345,166.19297 148.29096,158.96024 153.24598,153.7255   C 158.201,148.53072 164.59458,145.89337 172.4267,145.89337   C 177.58152,145.89337 182.1769,147.13213 186.33273,149.56968   C 190.44859,152.04719 193.56546,155.44377 195.72329,159.83936   C 197.92108,164.23494 199,169.18996 199,174.78433   C 199,180.41867 197.84116,185.45361 195.56345,189.88915   C 193.28574,194.36466 190.08895,197.72128 185.89317,199.99899   C 181.73735,202.31666 177.22188,203.43554 172.38674,203.43554   C 167.15201,203.43554 162.4767,202.19678 158.36084,199.63935   C 154.24498,197.12188 151.12811,193.68534 149.01024,189.28976   C 146.85241,184.93413 145.81345,180.29879 145.81345,175.42369   z  M 153.40582,175.54357   C 153.40582,182.21686 155.20401,187.53152 158.8004,191.36767   C 162.39678,195.24377 166.91225,197.16184 172.34678,197.16184   C 177.9012,197.16184 182.45662,195.20381 186.01305,191.32771   C 189.60944,187.41164 191.40763,181.89719 191.40763,174.74437   C 191.40763,170.18895 190.64839,166.27289 189.08996,162.8763   C 187.57148,159.51968 185.33373,156.88233 182.3767,155.04417   C 179.45964,153.16606 176.14297,152.24699 172.46666,152.24699   C 167.27189,152.24699 162.79638,154.04518 159.04016,157.6016   C 155.28393,161.19799 153.40582,167.15201 153.40582,175.54357   z  M 208.47048,202.51646   L 208.47048,146.89237   L 229.44939,146.89237   C 233.1257,146.89237 235.96285,147.05221 237.92088,147.41185   C 240.63815,147.89136 242.91586,148.73052 244.75401,150.00923   C 246.63212,151.28795 248.11064,153.08614 249.22951,155.40381   C 250.34839,157.68152 250.90783,160.19899 250.90783,162.95622   C 250.90783,167.71144 249.42931,171.70743 246.39237,174.98413   C 243.39538,178.26084 237.96084,179.89919 230.08875,179.89919   L 215.82309,179.89919   L 215.82309,202.51646   z  M 215.82309,173.34578   L 230.20863,173.34578   C 234.96385,173.34578 238.32048,172.46666 240.31847,170.66847   C 242.31646,168.91024 243.31546,166.43273 243.31546,163.19598   C 243.31546,160.87831 242.75602,158.88032 241.55723,157.24197   C 240.39839,155.56365 238.83996,154.48474 236.92188,153.96526   C 235.68313,153.60562 233.40542,153.44578 230.04879,153.44578   L 215.82309,153.44578   z  M 257.78092,184.61446   L 264.73393,184.01506   C 265.05361,186.81225 265.81285,189.08996 267.01164,190.88815   C 268.21044,192.64638 270.08855,194.08494 272.60602,195.20381   C 275.12349,196.28273 278.0006,196.84217 281.15743,196.84217   C 283.95461,196.84217 286.43212,196.44257 288.58996,195.60341   C 290.74779,194.76425 292.34618,193.60542 293.38514,192.16686   C 294.42409,190.72831 294.94357,189.12992 294.94357,187.41164   C 294.94357,185.65341 294.46405,184.13494 293.4251,182.81626   C 292.4261,181.53755 290.74779,180.41867 288.43012,179.53956   C 286.9516,178.98012 283.63494,178.06104 278.52008,176.82229   C 273.40522,175.62349 269.84879,174.46466 267.81084,173.38574   C 265.13353,171.98715 263.1755,170.26887 261.85682,168.19096   C 260.53815,166.11305 259.89879,163.83534 259.89879,161.27791   C 259.89879,158.48072 260.69799,155.84337 262.29638,153.40582   C 263.89478,150.96827 266.21245,149.09016 269.28935,147.8514   C 272.3263,146.57269 275.72289,145.93333 279.47911,145.93333   C 283.59498,145.93333 287.23132,146.61265 290.38815,147.93132   C 293.54498,149.25 295.94257,151.20803 297.66084,153.80542   C 299.33915,156.36285 300.25823,159.27992 300.37811,162.55662   L 293.30522,163.0761   C 292.94558,159.55964 291.66686,156.92229 289.46907,155.12409   C 287.27128,153.3259 284.03453,152.44678 279.75883,152.44678   C 275.32329,152.44678 272.08654,153.24598 270.04859,154.88434   C 268.01064,156.52269 267.01164,158.48072 267.01164,160.75843   C 267.01164,162.75642 267.73092,164.43474 269.16947,165.71345   C 270.56807,166.99217 274.28433,168.31084 280.23835,169.66948   C 286.23233,171.02811 290.34819,172.18695 292.54598,173.2259   C 295.78273,174.70442 298.18032,176.58253 299.73875,178.9002   C 301.25722,181.17791 302.05642,183.81526 302.05642,186.81225   C 302.05642,189.76927 301.1773,192.5265 299.49899,195.16385   C 297.82068,197.76124 295.38313,199.79919 292.18634,201.27771   C 289.02951,202.71626 285.47309,203.43554 281.4771,203.43554   C 276.44216,203.43554 272.24638,202.71626 268.8498,201.23775   C 265.45321,199.79919 262.7759,197.56144 260.81787,194.64437   C 258.8998,191.68735 257.86084,188.37068 257.78092,184.61446   z "
     style="fill:#000000;fill-rule:evenodd;fill-opacity:1;stroke:none;" />
</svg>
