<?xml version="1.0" encoding="UTF-8" standalone="no"?>
<svg
   xmlns:dc="http://purl.org/dc/elements/1.1/"
   xmlns:cc="http://creativecommons.org/ns#"
   xmlns:rdf="http://www.w3.org/1999/02/22-rdf-syntax-ns#"
   xmlns:svg="http://www.w3.org/2000/svg"
   xmlns="http://www.w3.org/2000/svg"
   id="svg13"
   height="130.27mm"
   width="130.27mm"
   version="1.0">
  <metadata
     id="metadata17">
    <rdf:RDF>
      <cc:Work
         rdf:about="">
        <dc:format>image/svg+xml</dc:format>
        <dc:type
           rdf:resource="http://purl.org/dc/dcmitype/StillImage" />
      </cc:Work>
    </rdf:RDF>
  </metadata>
  <defs
     id="defs3">
    <pattern
       y="0"
       x="0"
       height="6"
       width="6"
       patternUnits="userSpaceOnUse"
       id="EMFhbasepattern" />
  </defs>
  <path
     id="path5"
     d="  M 164.63454,327.67068   C 164.63454,437.95983 327.67068,437.95983 327.67068,327.67068   C 437.95983,327.67068 437.95983,164.63454 327.67068,164.63454   C 327.67068,54.345381 164.63454,54.345381 164.63454,164.63454   C 54.345381,164.63454 54.345381,327.67068 164.63454,327.67068   z "
     style="fill:#ffff80;fill-rule:evenodd;fill-opacity:1;stroke:none;" />
  <path
     id="path7"
     d="  M 164.63454,327.67068   C 164.63454,437.95983 327.67068,437.95983 327.67068,327.67068   C 437.95983,327.67068 437.95983,164.63454 327.67068,164.63454   C 327.67068,54.345381 164.63454,54.345381 164.63454,164.63454   C 54.345381,164.63454 54.345381,327.67068 164.63454,327.67068  "
     style="fill:none;stroke:#000000;stroke-width:9.5903616px;stroke-linecap:butt;stroke-linejoin:miter;stroke-miterlimit:10;stroke-dasharray:none;stroke-opacity:1;" />
  <path
     id="path9"
     d="  M 214.82409,333.58473   L 214.82409,277.96064   L 225.89297,277.96064   L 239.07972,317.32108   C 240.27851,320.99738 241.15763,323.75461 241.71706,325.55281   C 242.35642,323.55481 243.31546,320.55783 244.67409,316.64176   L 257.98072,277.96064   L 267.89076,277.96064   L 267.89076,333.58473   L 260.77791,333.58473   L 260.77791,287.03152   L 244.63413,333.58473   L 238.0008,333.58473   L 221.89698,286.23233   L 221.89698,333.58473   z  M 280.99759,333.58473   L 280.99759,277.96064   L 288.3502,277.96064   L 288.3502,333.58473   z "
     style="fill:#000000;fill-rule:evenodd;fill-opacity:1;stroke:none;" />
  <path
     id="path11"
     d="  M 171.38775,200.99799   C 171.38775,191.76727 173.86526,184.53454 178.82028,179.2998   C 183.7753,174.10502 190.16887,171.46767 198.001,171.46767   C 203.15582,171.46767 207.7512,172.70642 211.90703,175.14397   C 216.02289,177.62148 219.13976,181.01807 221.29759,185.41365   C 223.49538,189.80923 224.57429,194.76425 224.57429,200.35863   C 224.57429,205.99297 223.41546,211.02791 221.13775,215.46345   C 218.86004,219.93895 215.66325,223.29558 211.46747,225.57329   C 207.31164,227.89096 202.79618,229.00984 197.96104,229.00984   C 192.7263,229.00984 188.051,227.77108 183.93514,225.21365   C 179.81927,222.69618 176.70241,219.25964 174.58454,214.86405   C 172.4267,210.50843 171.38775,205.87309 171.38775,200.99799   z  M 178.98012,201.11787   C 178.98012,207.79116 180.77831,213.10582 184.3747,216.94196   C 187.97108,220.81807 192.48654,222.73614 197.92108,222.73614   C 203.4755,222.73614 208.03092,220.77811 211.58735,216.902   C 215.18373,212.98594 216.98192,207.47148 216.98192,200.31867   C 216.98192,195.76325 216.22269,191.84719 214.66425,188.4506   C 213.14578,185.09397 210.90803,182.45662 207.951,180.61847   C 205.03393,178.74036 201.71727,177.82128 198.04096,177.82128   C 192.84618,177.82128 188.37068,179.61948 184.61446,183.1759   C 180.85823,186.77229 178.98012,192.7263 178.98012,201.11787   z  M 234.04478,228.09076   L 234.04478,172.46666   L 255.02369,172.46666   C 258.7,172.46666 261.53714,172.6265 263.49518,172.98614   C 266.21245,173.46566 268.49016,174.30482 270.32831,175.58353   C 272.20642,176.86225 273.68494,178.66044 274.80381,180.97811   C 275.92269,183.25582 276.48212,185.77329 276.48212,188.53052   C 276.48212,193.28574 275.00361,197.28172 271.96666,200.55843   C 268.96967,203.83514 263.53514,205.47349 255.66305,205.47349   L 241.39739,205.47349   L 241.39739,228.09076   z  M 241.39739,198.92008   L 255.78293,198.92008   C 260.53815,198.92008 263.89478,198.04096 265.89277,196.24277   C 267.89076,194.48454 268.88976,192.00703 268.88976,188.77028   C 268.88976,186.45261 268.33032,184.45462 267.13152,182.81626   C 265.97269,181.13795 264.41425,180.05903 262.49618,179.53956   C 261.25743,179.17992 258.97972,179.02008 255.62309,179.02008   L 241.39739,179.02008   z  M 283.35522,210.18875   L 290.30823,209.58935   C 290.62791,212.38654 291.38714,214.66425 292.58594,216.46245   C 293.78473,218.22068 295.66285,219.65923 298.18032,220.77811   C 300.69779,221.85702 303.5749,222.41646 306.73172,222.41646   C 309.52891,222.41646 312.00642,222.01686 314.16425,221.17771   C 316.32208,220.33855 317.92048,219.17972 318.95943,217.74116   C 319.99839,216.30261 320.51787,214.70421 320.51787,212.98594   C 320.51787,211.22771 320.03835,209.70923 318.99939,208.39056   C 318.0004,207.11184 316.32208,205.99297 314.00441,205.11385   C 312.5259,204.55441 309.20923,203.63534 304.09437,202.39658   C 298.97951,201.19779 295.42309,200.03895 293.38514,198.96004   C 290.70783,197.56144 288.7498,195.84317 287.43112,193.76526   C 286.11245,191.68735 285.47309,189.40964 285.47309,186.85221   C 285.47309,184.05502 286.27229,181.41767 287.87068,178.98012   C 289.46907,176.54257 291.78674,174.66446 294.86365,173.4257   C 297.9006,172.14699 301.29718,171.50763 305.05341,171.50763   C 309.16927,171.50763 312.80562,172.18695 315.96245,173.50562   C 319.11927,174.82429 321.51686,176.78233 323.23514,179.37972   C 324.91345,181.93715 325.83253,184.85421 325.9524,188.13092   L 318.87951,188.6504   C 318.51987,185.13393 317.24116,182.49658 315.04337,180.69839   C 312.84558,178.9002 309.60883,178.02108 305.33313,178.02108   C 300.89759,178.02108 297.66084,178.82028 295.62289,180.45863   C 293.58494,182.09699 292.58594,184.05502 292.58594,186.33273   C 292.58594,188.33072 293.30522,190.00903 294.74377,191.28775   C 296.14237,192.56646 299.85863,193.88514 305.81265,195.24377   C 311.80662,196.60241 315.92249,197.76124 318.12028,198.8002   C 321.35702,200.27871 323.75461,202.15682 325.31305,204.4745   C 326.83152,206.75221 327.63072,209.38956 327.63072,212.38654   C 327.63072,215.34357 326.7516,218.1008 325.07329,220.73815   C 323.39498,223.33554 320.95743,225.37349 317.76064,226.852   C 314.60381,228.29056 311.04739,229.00984 307.0514,229.00984   C 302.01646,229.00984 297.82068,228.29056 294.42409,226.81204   C 291.02751,225.37349 288.3502,223.13574 286.39216,220.21867   C 284.47409,217.26164 283.43514,213.94498 283.35522,210.18875   z "
     style="fill:#000000;fill-rule:evenodd;fill-opacity:1;stroke:none;" />
</svg>
