<?xml version="1.0" encoding="UTF-8" standalone="no"?>
<svg
   xmlns:dc="http://purl.org/dc/elements/1.1/"
   xmlns:cc="http://creativecommons.org/ns#"
   xmlns:rdf="http://www.w3.org/1999/02/22-rdf-syntax-ns#"
   xmlns:svg="http://www.w3.org/2000/svg"
   xmlns="http://www.w3.org/2000/svg"
   id="svg15"
   height="112.9mm"
   width="112.9mm"
   version="1.0">
  <metadata
     id="metadata19">
    <rdf:RDF>
      <cc:Work
         rdf:about="">
        <dc:format>image/svg+xml</dc:format>
        <dc:type
           rdf:resource="http://purl.org/dc/dcmitype/StillImage" />
      </cc:Work>
    </rdf:RDF>
  </metadata>
  <defs
     id="defs3">
    <pattern
       y="0"
       x="0"
       height="6"
       width="6"
       patternUnits="userSpaceOnUse"
       id="EMFhbasepattern" />
  </defs>
  <path
     id="path5"
     d="  M 695.2261,695.60719   L 695.2261,1068.6781  "
     style="fill:none;stroke:#000000;stroke-width:10.651613px;stroke-linecap:butt;stroke-linejoin:miter;stroke-miterlimit:112;stroke-dasharray:none;stroke-opacity:1;" />
  <path
     id="path7"
     d="  M 908.44722,695.60719   L 908.44722,1068.6781  "
     style="fill:none;stroke:#000000;stroke-width:10.651613px;stroke-linecap:butt;stroke-linejoin:miter;stroke-miterlimit:112;stroke-dasharray:none;stroke-opacity:1;" />
  <path
     id="path9"
     d="  M 757.66268,890.20687   C 757.66268,880.87727 759.06023,873.05853 761.85534,866.75066   C 763.93278,862.06697 766.76566,857.87432 770.39174,854.17269   C 773.98005,850.47107 777.94607,847.71374 782.21427,845.93847   C 787.9178,843.52108 794.49007,842.31239 801.96886,842.31239   C 815.45335,842.31239 826.25605,846.50504 834.33919,854.85258   C 842.4601,863.2379 846.50167,874.87157 846.50167,889.79139   C 846.50167,904.56011 842.4601,916.11824 834.4525,924.46579   C 826.40714,932.81333 815.64221,937.00598 802.19549,937.00598   C 788.59769,937.00598 777.75721,932.8511 769.71185,924.54133   C 761.70425,916.23156 757.66268,904.78674 757.66268,890.20687   L 757.66268,890.20687   z  M 776.73738,889.60253   C 776.73738,899.95197 779.11699,907.80848 783.914,913.17205   C 788.711,918.53563 794.79224,921.21742 802.15772,921.21742   C 809.5232,921.21742 815.56666,918.53563 820.28812,913.2476   C 825.00958,907.92179 827.3892,899.95197 827.3892,889.33813   C 827.3892,878.8376 825.08513,871.01886 820.47698,865.88191   C 815.86884,860.70719 809.74983,858.10095 802.15772,858.10095   C 794.52784,858.10095 788.37106,860.74496 783.72514,865.95746   C 779.04145,871.16995 776.73738,879.06423 776.73738,889.60253   L 776.73738,889.60253   z "
     style="fill:#000000;fill-rule:nonzero;fill-opacity:1;stroke:#000000;stroke-width:1.0576069px;stroke-linecap:butt;stroke-linejoin:miter;stroke-miterlimit:112;stroke-dasharray:none;stroke-opacity:1;" />
  <path
     id="path11"
     d="  M 732.62006,1026.0716   L 732.62006,949.73504   L 765.02816,949.73504   C 773.18684,949.73504 779.11699,950.41493 782.81862,951.81248   C 786.52024,953.17226 789.46643,955.62742 791.69496,959.10241   C 793.92349,962.61518 795.01887,966.61898 795.01887,971.15158   C 795.01887,976.8551 793.31915,981.57656 789.95747,985.31596   C 786.59579,989.05536 781.57215,991.3972 774.88657,992.37926   C 778.21047,994.30562 780.96781,996.4586 783.12079,998.76268   C 785.27378,1001.1045 788.21997,1005.2216 791.88382,1011.1518   L 801.21343,1026.0716   L 782.78085,1026.0716   L 771.6382,1009.4521   C 767.67218,1003.5219 764.99039,999.78251 763.51729,998.23387   C 762.08197,996.68523 760.53333,995.62763 758.90915,995.06105   C 757.24719,994.49448 754.67872,994.1923 751.12818,994.1923   L 748.0309,994.1923   L 748.0309,1026.0716   L 732.62006,1026.0716   z  M 748.0309,982.02982   L 759.40018,982.02982   C 766.80343,982.02982 771.41157,981.68988 773.26238,981.08553   C 775.1132,980.44341 776.54852,979.38581 777.56836,977.83717   C 778.62596,976.3263 779.15477,974.43772 779.15477,972.13364   C 779.15477,969.56517 778.4371,967.48773 777.07732,965.90132   C 775.71754,964.31491 773.79119,963.33284 771.29826,962.91735   C 770.01402,962.7285 766.27462,962.65295 760.0423,962.65295   L 748.0309,962.65295   L 748.0309,982.02982   z "
     style="fill:#000000;fill-rule:nonzero;fill-opacity:1;stroke:none;" />
  <path
     id="path13"
     d="  M 858.39975,998.00724   L 873.35733,1002.7287   C 871.05326,1011.0762 867.23832,1017.233 861.91251,1021.2746   C 856.58671,1025.3162 849.82558,1027.3558 841.66689,1027.3558   C 831.50631,1027.3558 823.19654,1023.8808 816.66204,1016.9686   C 810.12754,1010.0564 806.87918,1000.5757 806.87918,988.56432   C 806.87918,975.87304 810.16531,966.01463 816.73759,958.9891   C 823.27209,951.96357 831.88403,948.4508 842.57341,948.4508   C 851.94079,948.4508 859.49513,951.20813 865.34974,956.7228   C 868.82473,959.97116 871.3932,964.65485 873.1307,970.77386   L 857.90871,974.43772   C 857.00219,970.47169 855.11361,967.33664 852.24296,965.03257   C 849.37232,962.76627 845.89732,961.63312 841.81798,961.63312   C 836.15223,961.63312 831.58186,963.63502 828.03132,967.71436   C 824.51855,971.75593 822.74328,978.3282 822.74328,987.43117   C 822.74328,997.06295 824.48078,1003.9374 827.95577,1008.0545   C 831.43077,1012.1339 835.96337,1014.1735 841.51581,1014.1735   C 845.59515,1014.1735 849.10791,1012.8893 852.0541,1010.283   C 855.0003,1007.6768 857.11551,1003.5975 858.39975,998.00724   L 858.39975,998.00724   z "
     style="fill:#000000;fill-rule:nonzero;fill-opacity:1;stroke:none;" />
</svg>
