<?xml version="1.0" encoding="UTF-8" standalone="no"?>
<svg
   xmlns:dc="http://purl.org/dc/elements/1.1/"
   xmlns:cc="http://creativecommons.org/ns#"
   xmlns:rdf="http://www.w3.org/1999/02/22-rdf-syntax-ns#"
   xmlns:svg="http://www.w3.org/2000/svg"
   xmlns="http://www.w3.org/2000/svg"
   id="svg15"
   height="112.9mm"
   width="112.9mm"
   version="1.0">
  <metadata
     id="metadata19">
    <rdf:RDF>
      <cc:Work
         rdf:about="">
        <dc:format>image/svg+xml</dc:format>
        <dc:type
           rdf:resource="http://purl.org/dc/dcmitype/StillImage" />
      </cc:Work>
    </rdf:RDF>
  </metadata>
  <defs
     id="defs3">
    <pattern
       y="0"
       x="0"
       height="6"
       width="6"
       patternUnits="userSpaceOnUse"
       id="EMFhbasepattern" />
  </defs>
  <path
     id="path5"
     d="  M 1817.3195,1817.1379   L 1817.3195,2190.121  "
     style="fill:none;stroke:#00ff00;stroke-width:10.649107px;stroke-linecap:butt;stroke-linejoin:miter;stroke-miterlimit:282;stroke-dasharray:none;stroke-opacity:1;" />
  <path
     id="path7"
     d="  M 2030.4905,1817.1379   L 2030.4905,2190.121  "
     style="fill:none;stroke:#00ff00;stroke-width:10.649107px;stroke-linecap:butt;stroke-linejoin:miter;stroke-miterlimit:282;stroke-dasharray:none;stroke-opacity:1;" />
  <path
     id="path9"
     d="  M 1879.7414,2011.6918   C 1879.7414,2002.3644 1881.1387,1994.5475 1883.9331,1988.2411   C 1886.0101,1983.5585 1888.8423,1979.3668 1892.4675,1975.6661   C 1896.055,1971.9653 1900.0201,1969.2086 1904.2873,1967.4338   C 1909.9894,1965.017 1916.5602,1963.8086 1924.0372,1963.8086   C 1937.5185,1963.8086 1948.3187,1968.0002 1956.3999,1976.3458   C 1964.5189,1984.7292 1968.5595,1996.3601 1968.5595,2011.2764   C 1968.5595,2026.0416 1964.5189,2037.5971 1956.5132,2045.9426   C 1948.4697,2054.2882 1937.7073,2058.4799 1924.2638,2058.4799   C 1910.6692,2058.4799 1899.8312,2054.326 1891.7878,2046.0182   C 1883.7821,2037.7103 1879.7414,2026.2682 1879.7414,2011.6918   z  M 1898.8116,2011.0876   C 1898.8116,2021.4346 1901.1907,2029.2892 1905.9866,2034.6516   C 1910.7825,2040.0139 1916.8623,2042.695 1924.226,2042.695   C 1931.5897,2042.695 1937.6318,2040.0139 1942.3521,2034.7271   C 1947.0725,2029.4025 1949.4515,2021.4346 1949.4515,2010.8232   C 1949.4515,2000.3252 1947.148,1992.5083 1942.541,1987.3725   C 1937.9339,1982.199 1931.8163,1979.5934 1924.226,1979.5934   C 1916.5979,1979.5934 1910.4426,1982.2368 1905.7978,1987.4481   C 1901.1152,1992.6593 1898.8116,2000.5518 1898.8116,2011.0876   z "
     style="fill:#00ff00;fill-rule:nonzero;fill-opacity:1;stroke:#00ff00;stroke-width:1.0573581px;stroke-linecap:butt;stroke-linejoin:miter;stroke-miterlimit:282;stroke-dasharray:none;stroke-opacity:1;" />
  <path
     id="path11"
     d="  M 1860.6335,2147.5245   L 1860.6335,2071.2059   L 1893.0339,2071.2059   C 1901.1907,2071.2059 1907.1195,2071.8857 1910.8202,2073.2829   C 1914.521,2074.6424 1917.4665,2077.0969 1919.6945,2080.5711   C 1921.9225,2084.0831 1923.0176,2088.0859 1923.0176,2092.6174   C 1923.0176,2098.3196 1921.3183,2103.04 1917.9574,2106.7785   C 1914.5965,2110.517 1909.574,2112.8583 1902.89,2113.8401   C 1906.2132,2115.766 1908.9698,2117.9185 1911.1223,2120.222   C 1913.3126,2122.5633 1916.2203,2126.6795 1919.8833,2132.6082   L 1929.2107,2147.5245   L 1910.7825,2147.5245   L 1899.6424,2130.9089   C 1895.7151,2124.9802 1892.9962,2121.2416 1891.5234,2119.6934   C 1890.0884,2118.1451 1888.5402,2117.0877 1886.9164,2116.5213   C 1885.2548,2115.9548 1882.6869,2115.6527 1879.1372,2115.6527   L 1876.0407,2115.6527   L 1876.0407,2147.5245   z  M 1876.0407,2103.4931   L 1887.4073,2103.4931   C 1894.8088,2103.4931 1899.4159,2103.1533 1901.2662,2102.5491   C 1903.1166,2101.9071 1904.5516,2100.8497 1905.5712,2099.3015   C 1906.6285,2097.7909 1907.1572,2095.9028 1907.1572,2093.5993   C 1907.1572,2091.0314 1906.4775,2088.9545 1905.0803,2087.3684   C 1903.7208,2085.7824 1901.7949,2084.8005 1899.3026,2084.3852   C 1898.0564,2084.1963 1894.2801,2084.1208 1888.0493,2084.1208   L 1876.0407,2084.1208   z "
     style="fill:#00ff00;fill-rule:nonzero;fill-opacity:1;stroke:none;" />
  <path
     id="path13"
     d="  M 1954.7761,2147.5245   L 1954.7761,2084.1208   L 1932.1184,2084.1208   L 1932.1184,2071.2059   L 1992.7655,2071.2059   L 1992.7655,2084.1208   L 1970.1833,2084.1208   L 1970.1833,2147.5245   z "
     style="fill:#00ff00;fill-rule:nonzero;fill-opacity:1;stroke:none;" />
</svg>
