<?xml version="1.0" encoding="UTF-8" standalone="no"?>
<svg
   xmlns:dc="http://purl.org/dc/elements/1.1/"
   xmlns:cc="http://creativecommons.org/ns#"
   xmlns:rdf="http://www.w3.org/1999/02/22-rdf-syntax-ns#"
   xmlns:svg="http://www.w3.org/2000/svg"
   xmlns="http://www.w3.org/2000/svg"
   id="svg15"
   height="112.9mm"
   width="112.9mm"
   version="1.0">
  <metadata
     id="metadata19">
    <rdf:RDF>
      <cc:Work
         rdf:about="">
        <dc:format>image/svg+xml</dc:format>
        <dc:type
           rdf:resource="http://purl.org/dc/dcmitype/StillImage" />
      </cc:Work>
    </rdf:RDF>
  </metadata>
  <defs
     id="defs3">
    <pattern
       y="0"
       x="0"
       height="6"
       width="6"
       patternUnits="userSpaceOnUse"
       id="EMFhbasepattern" />
  </defs>
  <path
     id="path5"
     d="  M 1817.3195,1817.1379   L 1817.3195,2190.121   z "
     style="fill:#ffff00;fill-rule:nonzero;fill-opacity:1;stroke:#ffff00;stroke-width:10.649107px;stroke-linecap:butt;stroke-linejoin:miter;stroke-miterlimit:282;stroke-dasharray:none;stroke-opacity:1;" />
  <path
     id="path7"
     d="  M 2030.4905,1817.1379   L 2030.4905,2190.121   z "
     style="fill:#ffff00;fill-rule:nonzero;fill-opacity:1;stroke:#ffff00;stroke-width:10.649107px;stroke-linecap:butt;stroke-linejoin:miter;stroke-miterlimit:282;stroke-dasharray:none;stroke-opacity:1;" />
  <path
     id="path9"
     d="  M 1879.7414,2011.6918   C 1879.7414,2002.3644 1881.1387,1994.5475 1883.9331,1988.2411   C 1886.0101,1983.5585 1888.8423,1979.3668 1892.4675,1975.6661   C 1896.055,1971.9653 1900.0201,1969.2086 1904.2873,1967.4338   C 1909.9894,1965.017 1916.5602,1963.8086 1924.0372,1963.8086   C 1937.5185,1963.8086 1948.3187,1968.0002 1956.3999,1976.3458   C 1964.5189,1984.7292 1968.5595,1996.3601 1968.5595,2011.2764   C 1968.5595,2026.0416 1964.5189,2037.5971 1956.5132,2045.9426   C 1948.4697,2054.2882 1937.7073,2058.4799 1924.2638,2058.4799   C 1910.6692,2058.4799 1899.8312,2054.326 1891.7878,2046.0182   C 1883.7821,2037.7103 1879.7414,2026.2682 1879.7414,2011.6918   z  M 1898.8116,2011.0876   C 1898.8116,2021.4346 1901.1907,2029.2892 1905.9866,2034.6516   C 1910.7825,2040.0139 1916.8623,2042.695 1924.226,2042.695   C 1931.5897,2042.695 1937.6318,2040.0139 1942.3521,2034.7271   C 1947.0725,2029.4025 1949.4515,2021.4346 1949.4515,2010.8232   C 1949.4515,2000.3252 1947.148,1992.5083 1942.541,1987.3725   C 1937.9339,1982.199 1931.8163,1979.5934 1924.226,1979.5934   C 1916.5979,1979.5934 1910.4426,1982.2368 1905.7978,1987.4481   C 1901.1152,1992.6593 1898.8116,2000.5518 1898.8116,2011.0876   z "
     style="fill:#ffff00;fill-rule:nonzero;fill-opacity:1;stroke:#ffff00;stroke-width:1.0573581px;stroke-linecap:butt;stroke-linejoin:miter;stroke-miterlimit:282;stroke-dasharray:none;stroke-opacity:1;" />
  <path
     id="path11"
     d="  M 1869.5077,2147.5245   L 1869.5077,2071.2059   L 1921.8092,2071.2059   L 1921.8092,2084.1208   L 1884.9149,2084.1208   L 1884.9149,2102.1714   L 1916.7867,2102.1714   L 1916.7867,2115.0863   L 1884.9149,2115.0863   L 1884.9149,2147.5245   z "
     style="fill:#ffff00;fill-rule:nonzero;fill-opacity:1;stroke:none;" />
  <path
     id="path13"
     d="  M 1943.9004,2106.3631   C 1940.0864,2104.7393 1937.3675,2102.5491 1935.6304,2099.7546   C 1933.931,2096.9602 1933.0625,2093.9014 1933.0625,2090.5783   C 1933.0625,2084.8761 1935.0639,2080.1935 1939.029,2076.4927   C 1942.9941,2072.7542 1948.6208,2070.9038 1955.9467,2070.9038   C 1963.1972,2070.9038 1968.8239,2072.7542 1972.8267,2076.4927   C 1976.8673,2080.1935 1978.8688,2084.8761 1978.8688,2090.5783   C 1978.8688,2094.128 1977.9247,2097.2623 1976.1121,2100.019   C 1974.2617,2102.7756 1971.6561,2104.8903 1968.3329,2106.3631   C 1972.5624,2108.0624 1975.81,2110.517 1978.0002,2113.8024   C 1980.1905,2117.05 1981.2856,2120.8262 1981.2856,2125.0934   C 1981.2856,2132.1173 1979.0576,2137.8573 1974.5638,2142.2377   C 1970.07,2146.656 1964.1035,2148.8462 1956.6265,2148.8462   C 1949.6781,2148.8462 1943.9382,2147.0336 1939.2934,2143.4084   C 1933.8555,2139.1034 1931.1366,2133.2124 1931.1366,2125.6976   C 1931.1366,2121.5815 1932.1562,2117.7675 1934.1954,2114.331   C 1936.2346,2110.8946 1939.4822,2108.2135 1943.9004,2106.3631   z  M 1946.9214,2091.6356   C 1946.9214,2094.5433 1947.7145,2096.8091 1949.376,2098.4329   C 1951.0376,2100.0567 1953.2278,2100.8875 1955.9467,2100.8875   C 1958.7412,2100.8875 1960.9692,2100.0567 1962.6308,2098.3952   C 1964.2923,2096.7714 1965.1231,2094.4678 1965.1231,2091.5601   C 1965.1231,2088.8412 1964.2923,2086.6132 1962.6308,2084.9894   C 1961.007,2083.3278 1958.8167,2082.497 1956.0978,2082.497   C 1953.3034,2082.497 1951.0753,2083.3278 1949.4138,2085.0271   C 1947.7522,2086.6887 1946.9214,2088.8789 1946.9214,2091.6356   z  M 1945.562,2124.3004   C 1945.562,2128.341 1946.5816,2131.4754 1948.6585,2133.7034   C 1950.6977,2135.9691 1953.3034,2137.102 1956.3621,2137.102   C 1959.3832,2137.102 1961.8755,2136.0069 1963.8769,2133.8544   C 1965.8406,2131.6642 1966.8224,2128.5299 1966.8224,2124.4515   C 1966.8224,2120.864 1965.8406,2117.994 1963.8014,2115.8416   C 1961.8,2113.6891 1959.2699,2112.594 1956.1733,2112.594   C 1952.5859,2112.594 1949.9425,2113.8401 1948.1676,2116.2947   C 1946.4305,2118.7493 1945.562,2121.4305 1945.562,2124.3004   z "
     style="fill:#ffff00;fill-rule:nonzero;fill-opacity:1;stroke:none;" />
</svg>
