<?xml version="1.0" encoding="UTF-8" standalone="no"?>
<svg
   xmlns:dc="http://purl.org/dc/elements/1.1/"
   xmlns:cc="http://creativecommons.org/ns#"
   xmlns:rdf="http://www.w3.org/1999/02/22-rdf-syntax-ns#"
   xmlns:svg="http://www.w3.org/2000/svg"
   xmlns="http://www.w3.org/2000/svg"
   id="svg15"
   height="112.9mm"
   width="112.9mm"
   version="1.0">
  <metadata
     id="metadata19">
    <rdf:RDF>
      <cc:Work
         rdf:about="">
        <dc:format>image/svg+xml</dc:format>
        <dc:type
           rdf:resource="http://purl.org/dc/dcmitype/StillImage" />
      </cc:Work>
    </rdf:RDF>
  </metadata>
  <defs
     id="defs3">
    <pattern
       y="0"
       x="0"
       height="6"
       width="6"
       patternUnits="userSpaceOnUse"
       id="EMFhbasepattern" />
  </defs>
  <path
     id="path5"
     d="  M 1817.3195,1817.1379   L 1817.3195,2190.121  "
     style="fill:none;stroke:#00ff00;stroke-width:10.649107px;stroke-linecap:butt;stroke-linejoin:miter;stroke-miterlimit:282;stroke-dasharray:none;stroke-opacity:1;" />
  <path
     id="path7"
     d="  M 2030.4905,1817.1379   L 2030.4905,2190.121  "
     style="fill:none;stroke:#00ff00;stroke-width:10.649107px;stroke-linecap:butt;stroke-linejoin:miter;stroke-miterlimit:282;stroke-dasharray:none;stroke-opacity:1;" />
  <path
     id="path9"
     d="  M 1879.7414,2011.6918   C 1879.7414,2002.3644 1881.1387,1994.5475 1883.9331,1988.2411   C 1886.0101,1983.5585 1888.8423,1979.3668 1892.4675,1975.6661   C 1896.055,1971.9653 1900.0201,1969.2086 1904.2873,1967.4338   C 1909.9894,1965.017 1916.5602,1963.8086 1924.0372,1963.8086   C 1937.5185,1963.8086 1948.3187,1968.0002 1956.3999,1976.3458   C 1964.5189,1984.7292 1968.5595,1996.3601 1968.5595,2011.2764   C 1968.5595,2026.0416 1964.5189,2037.5971 1956.5132,2045.9426   C 1948.4697,2054.2882 1937.7073,2058.4799 1924.2638,2058.4799   C 1910.6692,2058.4799 1899.8312,2054.326 1891.7878,2046.0182   C 1883.7821,2037.7103 1879.7414,2026.2682 1879.7414,2011.6918   z  M 1898.8116,2011.0876   C 1898.8116,2021.4346 1901.1907,2029.2892 1905.9866,2034.6516   C 1910.7825,2040.0139 1916.8623,2042.695 1924.226,2042.695   C 1931.5897,2042.695 1937.6318,2040.0139 1942.3521,2034.7271   C 1947.0725,2029.4025 1949.4515,2021.4346 1949.4515,2010.8232   C 1949.4515,2000.3252 1947.148,1992.5083 1942.541,1987.3725   C 1937.9339,1982.199 1931.8163,1979.5934 1924.226,1979.5934   C 1916.5979,1979.5934 1910.4426,1982.2368 1905.7978,1987.4481   C 1901.1152,1992.6593 1898.8116,2000.5518 1898.8116,2011.0876   z "
     style="fill:#00ff00;fill-rule:nonzero;fill-opacity:1;stroke:#00ff00;stroke-width:1.0573581px;stroke-linecap:butt;stroke-linejoin:miter;stroke-miterlimit:282;stroke-dasharray:none;stroke-opacity:1;" />
  <path
     id="path11"
     d="  M 1854.7047,2147.5245   L 1854.7047,2071.2059   L 1887.1052,2071.2059   C 1895.2619,2071.2059 1901.1907,2071.8857 1904.8915,2073.2829   C 1908.5922,2074.6424 1911.5377,2077.0969 1913.7657,2080.5711   C 1915.9937,2084.0831 1917.0888,2088.0859 1917.0888,2092.6174   C 1917.0888,2098.3196 1915.3895,2103.04 1912.0286,2106.7785   C 1908.6677,2110.517 1903.6453,2112.8583 1896.9613,2113.8401   C 1900.2844,2115.766 1903.0411,2117.9185 1905.1936,2120.222   C 1907.346,2122.5633 1910.2915,2126.6795 1913.9545,2132.6082   L 1923.2819,2147.5245   L 1904.8537,2147.5245   L 1893.7137,2130.9089   C 1889.7486,2124.9802 1887.0674,2121.2416 1885.5947,2119.6934   C 1884.1597,2118.1451 1882.6114,2117.0877 1880.9876,2116.5213   C 1879.326,2115.9548 1876.7582,2115.6527 1873.2085,2115.6527   L 1870.1119,2115.6527   L 1870.1119,2147.5245   z  M 1870.1119,2103.4931   L 1881.4785,2103.4931   C 1888.88,2103.4931 1893.4871,2103.1533 1895.3375,2102.5491   C 1897.1878,2101.9071 1898.6228,2100.8497 1899.6424,2099.3015   C 1900.6998,2097.7909 1901.2285,2095.9028 1901.2285,2093.5993   C 1901.2285,2091.0314 1900.511,2088.9545 1899.1515,2087.3684   C 1897.7921,2085.7824 1895.8661,2084.8005 1893.3738,2084.3852   C 1892.0899,2084.1963 1888.3514,2084.1208 1882.1205,2084.1208   L 1870.1119,2084.1208   z "
     style="fill:#00ff00;fill-rule:nonzero;fill-opacity:1;stroke:none;" />
  <path
     id="path13"
     d="  M 1980.4548,2119.4668   L 1995.4089,2124.1871   C 1993.1053,2132.5327 1989.2913,2138.688 1983.9667,2142.7287   C 1978.6422,2146.7693 1971.8826,2148.8085 1963.7259,2148.8085   C 1953.5677,2148.8085 1945.2599,2145.3343 1938.7269,2138.4237   C 1932.194,2131.5131 1928.9464,2122.0347 1928.9464,2110.0261   C 1928.9464,2097.3378 1932.2317,2087.4817 1938.8024,2080.4578   C 1945.3354,2073.4339 1953.9453,2069.922 1964.6322,2069.922   C 1973.9974,2069.922 1981.5499,2072.6787 1987.4032,2078.1921   C 1990.8773,2081.4397 1993.4452,2086.1222 1995.1823,2092.2398   L 1979.9639,2095.9028   C 1979.0576,2091.9377 1977.1694,2088.8034 1974.2995,2086.4999   C 1971.4295,2084.2341 1967.9553,2083.1012 1963.8769,2083.1012   C 1958.2125,2083.1012 1953.6432,2085.1026 1950.0935,2089.181   C 1946.5816,2093.2216 1944.8067,2099.7924 1944.8067,2108.8932   C 1944.8067,2118.5227 1946.5438,2125.3955 1950.018,2129.5117   C 1953.4922,2133.5901 1958.0237,2135.6293 1963.5748,2135.6293   C 1967.6532,2135.6293 1971.1652,2134.3453 1974.1106,2131.7397   C 1977.0561,2129.1341 1979.1709,2125.0557 1980.4548,2119.4668   z "
     style="fill:#00ff00;fill-rule:nonzero;fill-opacity:1;stroke:none;" />
</svg>
