<?xml version="1.0" encoding="UTF-8" standalone="no"?>
<svg
   xmlns:dc="http://purl.org/dc/elements/1.1/"
   xmlns:cc="http://creativecommons.org/ns#"
   xmlns:rdf="http://www.w3.org/1999/02/22-rdf-syntax-ns#"
   xmlns:svg="http://www.w3.org/2000/svg"
   xmlns="http://www.w3.org/2000/svg"
   id="svg11"
   height="112.9mm"
   width="112.9mm"
   version="1.0">
  <metadata
     id="metadata15">
    <rdf:RDF>
      <cc:Work
         rdf:about="">
        <dc:format>image/svg+xml</dc:format>
        <dc:type
           rdf:resource="http://purl.org/dc/dcmitype/StillImage" />
      </cc:Work>
    </rdf:RDF>
  </metadata>
  <defs
     id="defs3">
    <pattern
       y="0"
       x="0"
       height="6"
       width="6"
       patternUnits="userSpaceOnUse"
       id="EMFhbasepattern" />
  </defs>
  <path
     id="path5"
     d="  M 1817.3195,1817.1379   L 1817.3195,2190.121  "
     style="fill:none;stroke:#ff0000;stroke-width:10.649107px;stroke-linecap:butt;stroke-linejoin:miter;stroke-miterlimit:282;stroke-dasharray:none;stroke-opacity:1;" />
  <path
     id="path7"
     d="  M 2030.4905,1817.1379   L 2030.4905,2190.121  "
     style="fill:none;stroke:#ff0000;stroke-width:10.649107px;stroke-linecap:butt;stroke-linejoin:miter;stroke-miterlimit:282;stroke-dasharray:none;stroke-opacity:1;" />
  <path
     id="path9"
     d="  M 1879.7414,2011.6918   C 1879.7414,2002.3644 1881.1387,1994.5475 1883.9331,1988.2411   C 1886.0101,1983.5585 1888.8423,1979.3668 1892.4675,1975.6661   C 1896.055,1971.9653 1900.0201,1969.2086 1904.2873,1967.4338   C 1909.9894,1965.017 1916.5602,1963.8086 1924.0372,1963.8086   C 1937.5185,1963.8086 1948.3187,1968.0002 1956.3999,1976.3458   C 1964.5189,1984.7292 1968.5595,1996.3601 1968.5595,2011.2764   C 1968.5595,2026.0416 1964.5189,2037.5971 1956.5132,2045.9426   C 1948.4697,2054.2882 1937.7073,2058.4799 1924.2638,2058.4799   C 1910.6692,2058.4799 1899.8312,2054.326 1891.7878,2046.0182   C 1883.7821,2037.7103 1879.7414,2026.2682 1879.7414,2011.6918   z  M 1898.8116,2011.0876   C 1898.8116,2021.4346 1901.1907,2029.2892 1905.9866,2034.6516   C 1910.7825,2040.0139 1916.8623,2042.695 1924.226,2042.695   C 1931.5897,2042.695 1937.6318,2040.0139 1942.3521,2034.7271   C 1947.0725,2029.4025 1949.4515,2021.4346 1949.4515,2010.8232   C 1949.4515,2000.3252 1947.148,1992.5083 1942.541,1987.3725   C 1937.9339,1982.199 1931.8163,1979.5934 1924.226,1979.5934   C 1916.5979,1979.5934 1910.4426,1982.2368 1905.7978,1987.4481   C 1901.1152,1992.6593 1898.8116,2000.5518 1898.8116,2011.0876   z "
     style="fill:#ff0000;fill-rule:nonzero;fill-opacity:1;stroke:#ff0000;stroke-width:1.0573581px;stroke-linecap:butt;stroke-linejoin:miter;stroke-miterlimit:282;stroke-dasharray:none;stroke-opacity:1;" />
</svg>
