<?xml version="1.0" encoding="UTF-8" standalone="no"?>
<svg
   xmlns:dc="http://purl.org/dc/elements/1.1/"
   xmlns:cc="http://creativecommons.org/ns#"
   xmlns:rdf="http://www.w3.org/1999/02/22-rdf-syntax-ns#"
   xmlns:svg="http://www.w3.org/2000/svg"
   xmlns="http://www.w3.org/2000/svg"
   id="svg27"
   height="116.73mm"
   width="116.73mm"
   version="1.0">
  <metadata
     id="metadata31">
    <rdf:RDF>
      <cc:Work
         rdf:about="">
        <dc:format>image/svg+xml</dc:format>
        <dc:type
           rdf:resource="http://purl.org/dc/dcmitype/StillImage" />
      </cc:Work>
    </rdf:RDF>
  </metadata>
  <defs
     id="defs3">
    <pattern
       y="0"
       x="0"
       height="6"
       width="6"
       patternUnits="userSpaceOnUse"
       id="EMFhbasepattern" />
  </defs>
  <path
     id="path5"
     d="  M 220.57831,386.49156   L 220.57831,386.49156   L 386.49156,220.57831   L 220.57831,54.665059   L 54.665059,220.57831   L 220.57831,386.49156   z "
     style="fill:#ff8080;fill-rule:evenodd;fill-opacity:1;stroke:none;" />
  <path
     id="path7"
     d="  M 220.57831,386.49156   L 220.57831,386.49156   L 386.49156,220.57831   L 220.57831,54.665059   L 54.665059,220.57831   L 220.57831,386.49156  "
     style="fill:none;stroke:#000000;stroke-width:9.5903616px;stroke-linecap:butt;stroke-linejoin:miter;stroke-miterlimit:10;stroke-dasharray:none;stroke-opacity:1;" />
  <path
     id="path9"
     d="  M 225.81305,194.92409   C 211.46747,194.92409 201.07791,186.05301 201.07791,171.82731   L 201.07791,169.11004   C 201.07791,156.80241 224.21466,136.90241 224.21466,114.76466   C 231.36747,122.99638 229.96887,134.38494 235.28353,142.9763   C 238.32048,147.8514 248.9498,162.99618 248.9498,168.59056   L 248.9498,171.26787   C 248.9498,184.77429 239.43935,194.92409 225.81305,194.92409   z  M 197.84116,169.11004   L 197.84116,171.82731   C 197.84116,207.03192 252.18654,205.63333 252.18654,173.94518   L 252.18654,168.59056   C 252.18654,159.51968 240.59819,147.17209 236.96184,138.62068   C 231.32751,125.43393 234.20462,115.84357 220.97791,108.8506   C 220.97791,137.54177 197.84116,154.04518 197.84116,169.11004   z "
     style="fill:#000000;fill-rule:evenodd;fill-opacity:1;stroke:none;" />
  <path
     id="path11"
     d="  M 213.34558,174.34478   C 214.54437,179.13996 216.86205,182.5765 221.49739,183.65542   C 221.09779,185.21385 219.05984,186.89217 217.22168,186.89217   C 210.86807,186.89217 209.90903,180.97811 208.1508,177.34176   z  M 225.81305,194.92409   C 239.43935,194.92409 248.9498,184.81425 248.9498,171.26787   L 248.9498,168.59056   C 248.9498,162.99618 238.32048,147.8514 235.28353,142.9763   C 229.96887,134.38494 231.36747,122.99638 224.21466,114.76466   C 224.21466,136.90241 201.07791,156.80241 201.07791,169.11004   L 201.07791,171.82731   C 201.07791,186.05301 211.46747,194.92409 225.81305,194.92409   z "
     style="fill:#ffffff;fill-rule:evenodd;fill-opacity:1;stroke:none;" />
  <path
     id="path13"
     d="  M 215.90301,233.60522   L 209.30964,223.49538   L 207.59136,242.75602   L 194.60441,229.36947   L 198.92008,244.55421   L 181.49759,244.23453   L 197.32168,255.90281   L 170.94819,257.34136   C 174.82429,260.05863 215.30361,270.08855 223.73514,269.64899   L 260.81787,265.29337   L 239.91887,258.62008   L 263.49518,246.59217   L 241.83694,248.67008   L 251.50723,233.44538   L 231.56727,244.39437   L 237.92088,223.25562   L 224.01486,240.75803   L 221.21767,216.54237   z "
     style="fill:#ffffff;fill-rule:evenodd;fill-opacity:1;stroke:none;" />
  <path
     id="path15"
     d="  M 286.63192,276.16245   C 285.07349,275.12349 261.41727,266.57208 259.81887,266.652   C 250.02871,267.01164 238.68012,270.24839 226.37249,270.24839   L 221.49739,270.24839   C 211.10783,270.24839 169.22992,260.13855 163.95522,256.86184   L 168.79036,256.26245   L 172.02711,256.26245   L 171.98715,255.34337   L 166.63253,253.4253   L 189.76927,251.98674   C 186.61245,247.23152 171.54759,249.26947 163.95522,249.26947   C 154.28494,249.26947 144.5747,249.26947 134.90442,249.26947   C 136.54277,250.70803 192.9261,278.44016 197.64136,280.15843   C 201.75723,281.63694 274.64397,276.16245 286.63192,276.16245   z "
     style="fill:#ffffff;fill-rule:evenodd;fill-opacity:1;stroke:none;" />
  <path
     id="path17"
     d="  M 129.50984,262.1765   L 196.48253,299.85863   L 196.76225,299.29919   L 196.76225,284.23433   C 196.76225,281.55702 136.14317,254.78393 129.50984,250.34839   z "
     style="fill:#ffffff;fill-rule:evenodd;fill-opacity:1;stroke:none;" />
  <path
     id="path19"
     d="  M 201.07791,283.43514   L 201.07791,283.43514   L 199.43956,283.19538   L 199.47952,300.49799   L 293.6249,295.02349   L 293.6249,279.03955   z "
     style="fill:#ffffff;fill-rule:evenodd;fill-opacity:1;stroke:none;" />
  <path
     id="path21"
     d="  M 293.6249,279.03955   L 293.6249,295.02349   L 199.47952,300.49799   L 199.43956,283.19538   L 201.07791,283.43514   z  M 129.50984,250.34839   C 136.14317,254.78393 196.76225,281.55702 196.76225,284.23433   L 196.76225,299.29919   L 196.48253,299.85863   L 129.50984,262.1765   z  M 286.63192,276.16245   C 274.64397,276.16245 201.75723,281.63694 197.64136,280.15843   C 192.9261,278.44016 136.54277,250.70803 134.90442,249.26947   C 144.5747,249.26947 154.28494,249.26947 163.95522,249.26947   C 171.54759,249.26947 186.61245,247.23152 189.76927,251.98674   L 166.63253,253.4253   L 171.98715,255.34337   L 172.02711,256.26245   L 168.79036,256.26245   L 163.95522,256.86184   C 169.22992,260.13855 211.10783,270.24839 221.49739,270.24839   L 226.37249,270.24839   C 238.68012,270.24839 250.02871,267.01164 259.81887,266.652   C 261.41727,266.57208 285.07349,275.12349 286.63192,276.16245   z  M 221.21767,216.54237   L 224.01486,240.75803   L 237.92088,223.25562   L 231.56727,244.39437   L 251.50723,233.44538   L 241.83694,248.67008   L 263.49518,246.59217   L 239.91887,258.62008   L 260.81787,265.29337   L 223.73514,269.64899   C 215.30361,270.08855 174.82429,260.05863 170.94819,257.34136   L 197.32168,255.90281   L 181.49759,244.23453   L 198.92008,244.55421   L 194.60441,229.36947   L 207.59136,242.75602   L 209.30964,223.49538   L 215.90301,233.60522   z  M 222.9759,211.02791   L 222.5763,209.46947   L 221.81707,209.54939   L 217.22168,225.61325   L 216.30261,225.49337   L 210.22871,215.94297   L 210.06887,221.37751   L 208.27068,218.62028   L 206.75221,234.44437   L 194.08494,220.77811   L 195.60341,227.33152   L 191.68735,224.05482   L 196.24277,240.11867   L 189.76927,240.27851   L 179.41968,239.79899   L 183.33574,242.75602   L 177.22188,242.4763   L 181.17791,246.07269   L 126.27309,246.07269   C 125.99337,247.27148 125.75361,247.27148 125.75361,248.75   L 125.75361,261.65702   C 125.75361,265.73293 138.22108,271.20743 141.69759,273.1255   C 147.77148,276.48212 153.48574,279.39919 159.31988,282.95562   C 170.78835,289.98855 183.13594,295.74277 194.60441,302.53594   C 199.23976,305.29317 212.2267,303.89457 219.33956,303.05542   C 226.65221,302.1763 237.92088,302.53594 244.99377,301.25722   C 252.2265,299.93855 263.05562,300.21827 270.52811,299.33915   C 277.56104,298.53996 289.66887,297.86064 296.3022,297.7008   L 296.3022,277.24136   C 296.3022,274.88373 282.71586,271.00763 279.83875,270.04859   C 275.64297,268.68996 265.13353,265.17349 262.41626,263.29538   L 270.00863,262.49618   L 248.43032,256.82188   L 248.51024,255.94277   L 272.08654,243.79498   L 268.21044,244.23453   L 272.60602,241.47731   L 246.87188,243.95482   L 256.86184,226.97188   L 236.00281,239.03976   L 243.51526,213.18574   L 227.13172,234.72409   L 224.45441,206.15281   z "
     style="fill:#000000;fill-rule:evenodd;fill-opacity:1;stroke:none;" />
  <path
     id="path23"
     d="  M 237.84096,175.50361   C 237.84096,184.01506 230.56827,190.84819 221.53735,190.84819   C 212.54638,190.84819 205.23373,184.01506 205.23373,175.50361   C 205.23373,167.03213 212.54638,160.15903 221.53735,160.15903   C 230.56827,160.15903 237.84096,167.03213 237.84096,175.50361   z "
     style="fill:#ffffff;fill-rule:evenodd;fill-opacity:1;stroke:none;" />
  <path
     id="path25"
     d="  M 237.84096,175.50361   C 237.84096,184.01506 230.56827,190.84819 221.53735,190.84819   C 212.54638,190.84819 205.23373,184.01506 205.23373,175.50361   C 205.23373,167.03213 212.54638,160.15903 221.53735,160.15903   C 230.56827,160.15903 237.84096,167.03213 237.84096,175.50361  "
     style="fill:none;stroke:#ffffff;stroke-width:0.95903611px;stroke-linecap:butt;stroke-linejoin:miter;stroke-miterlimit:10;stroke-dasharray:none;stroke-opacity:1;" />
</svg>
