<?xml version="1.0" encoding="UTF-8" standalone="no"?>
<svg
   xmlns:dc="http://purl.org/dc/elements/1.1/"
   xmlns:cc="http://creativecommons.org/ns#"
   xmlns:rdf="http://www.w3.org/1999/02/22-rdf-syntax-ns#"
   xmlns:svg="http://www.w3.org/2000/svg"
   xmlns="http://www.w3.org/2000/svg"
   id="svg19"
   height="116.73mm"
   width="116.73mm"
   version="1.0">
  <metadata
     id="metadata23">
    <rdf:RDF>
      <cc:Work
         rdf:about="">
        <dc:format>image/svg+xml</dc:format>
        <dc:type
           rdf:resource="http://purl.org/dc/dcmitype/StillImage" />
      </cc:Work>
    </rdf:RDF>
  </metadata>
  <defs
     id="defs3">
    <pattern
       y="0"
       x="0"
       height="6"
       width="6"
       patternUnits="userSpaceOnUse"
       id="EMFhbasepattern" />
  </defs>
  <path
     id="path5"
     d="  M 220.57831,386.49156   L 220.57831,386.49156   L 386.49156,220.57831   L 220.57831,54.665059   L 54.665059,220.57831   L 220.57831,386.49156   z "
     style="fill:#ff8080;fill-rule:evenodd;fill-opacity:1;stroke:none;" />
  <path
     id="path7"
     d="  M 220.57831,386.49156   L 220.57831,386.49156   L 386.49156,220.57831   L 220.57831,54.665059   L 54.665059,220.57831   L 220.57831,386.49156  "
     style="fill:none;stroke:#000000;stroke-width:9.5903616px;stroke-linecap:butt;stroke-linejoin:miter;stroke-miterlimit:10;stroke-dasharray:none;stroke-opacity:1;" />
  <path
     id="path9"
     d="  M 210.10883,167.5516   C 210.10883,156.32289 219.0998,146.09317 219.0998,138.66064   L 219.0998,137.74156   C 219.0998,134.90442 219.01988,129.35 216.74217,128.7506   C 214.42449,138.66064 209.02992,146.41285 203.63534,153.48574   C 200.83815,157.08213 198.4006,160.71847 195.64337,164.43474   C 193.40562,167.39176 188.81024,172.06707 188.81024,176.54257   C 188.81024,179.73935 202.35662,215.82309 195.44357,215.82309   C 195.20381,215.82309 187.13193,210.22871 186.17289,209.50943   C 183.09598,207.19176 180.89819,204.43454 178.78032,201.23775   C 171.98715,191.08795 173.38574,191.44759 170.34879,178.42068   C 167.03213,179.33976 164.71446,189.4496 163.91526,193.76526   C 162.95622,199.03996 163.31586,208.51044 164.4747,213.66526   C 165.87329,219.97891 167.47168,224.77409 170.02911,229.88895   C 171.38775,232.56626 176.78233,242.03674 176.98213,244.23453   C 172.18695,243.11566 161.35783,234.08474 157.92128,230.64819   C 154.56466,227.2516 145.73353,212.26666 144.7745,211.58735   C 144.7745,233.44538 155.84337,262.05662 166.43273,272.76586   C 173.2259,279.63895 180.41867,286.87168 188.89016,291.94658   C 194.3247,295.22329 212.10682,301.49698 220.53835,301.49698   L 225.73313,301.49698   C 232.04678,301.49698 249.66907,294.78373 254.30441,292.18634   C 261.85682,288.03052 269.48915,281.71686 274.20441,274.72389   C 283.91465,260.33835 291.98654,241.55723 291.98654,217.74116   L 291.98654,214.90401   L 291.02751,202.0769   C 289.50903,202.91606 286.15241,211.74719 285.43313,213.54538   C 284.31425,216.46245 280.91767,221.09779 279.11947,223.7751   C 276.00261,228.49036 267.49116,237.68112 261.69698,239.03976   L 261.69698,236.64217   C 261.69698,226.93192 267.8508,217.18172 267.8508,209.18976   L 267.8508,204.95401   L 265.05361,177.98112   L 263.61506,177.98112   C 262.89578,186.57249 259.93875,195.48353 256.14257,201.23775   C 253.2255,205.67329 244.43433,213.6253 238.9998,214.90401   C 238.48032,213.94498 238.04076,213.50542 238.04076,212.0269   L 238.04076,206.83213   C 238.04076,195.60341 244.67409,187.17188 244.67409,178.42068   L 244.67409,176.54257   C 244.67409,173.18594 240.03875,167.99116 238.24056,164.99417   C 236.72208,162.51666 232.9259,155.40381 230.48835,154.76446   L 230.48835,157.6016   C 230.48835,171.22791 227.4514,181.09799 218.18072,185.53353   C 215.70321,181.85723 210.10883,178.66044 210.10883,171.82731   L 210.10883,167.5516   z "
     style="fill:#000000;fill-rule:evenodd;fill-opacity:1;stroke:none;" />
  <path
     id="path11"
     d="  M 246.67208,247.23152   C 246.67208,262.29638 234.44437,274.56405 219.33956,274.56405   C 204.23474,274.56405 192.00703,262.29638 192.00703,247.23152   C 192.00703,232.1267 204.23474,219.89899 219.33956,219.89899   C 234.44437,219.89899 246.67208,232.1267 246.67208,247.23152   z "
     style="fill:#ffffff;fill-rule:evenodd;fill-opacity:1;stroke:none;" />
  <path
     id="path13"
     d="  M 246.67208,247.23152   C 246.67208,262.29638 234.44437,274.56405 219.33956,274.56405   C 204.23474,274.56405 192.00703,262.29638 192.00703,247.23152   C 192.00703,232.1267 204.23474,219.89899 219.33956,219.89899   C 234.44437,219.89899 246.67208,232.1267 246.67208,247.23152  "
     style="fill:none;stroke:#000000;stroke-width:0.95903611px;stroke-linecap:butt;stroke-linejoin:miter;stroke-miterlimit:10;stroke-dasharray:none;stroke-opacity:1;" />
  <path
     id="path15"
     d="  M 203.31566,231.12771   L 235.76305,263.3753  "
     style="fill:none;stroke:#000000;stroke-width:5.5544176px;stroke-linecap:butt;stroke-linejoin:miter;stroke-miterlimit:10;stroke-dasharray:none;stroke-opacity:1;" />
  <path
     id="path17"
     d="  M 202.95602,264.33433   L 234.40441,230.16867  "
     style="fill:none;stroke:#000000;stroke-width:6.2736945px;stroke-linecap:butt;stroke-linejoin:miter;stroke-miterlimit:10;stroke-dasharray:none;stroke-opacity:1;" />
</svg>
