<?xml version="1.0" encoding="UTF-8" standalone="no"?>
<svg
   xmlns:dc="http://purl.org/dc/elements/1.1/"
   xmlns:cc="http://creativecommons.org/ns#"
   xmlns:rdf="http://www.w3.org/1999/02/22-rdf-syntax-ns#"
   xmlns:svg="http://www.w3.org/2000/svg"
   xmlns="http://www.w3.org/2000/svg"
   id="svg17"
   height="95.75mm"
   width="95.75mm"
   version="1.0">
  <metadata
     id="metadata21">
    <rdf:RDF>
      <cc:Work
         rdf:about="">
        <dc:format>image/svg+xml</dc:format>
        <dc:type
           rdf:resource="http://purl.org/dc/dcmitype/StillImage" />
      </cc:Work>
    </rdf:RDF>
  </metadata>
  <defs
     id="defs3">
    <pattern
       y="0"
       x="0"
       height="6"
       width="6"
       patternUnits="userSpaceOnUse"
       id="EMFhbasepattern" />
  </defs>
  <path
     id="path5"
     d="  M 54.345381,54.345381   L 54.345381,307.53092   L 307.53092,307.53092   L 307.53092,54.345381   L 54.345381,54.345381   z "
     style="fill:#aaffaa;fill-rule:evenodd;fill-opacity:1;stroke:none;" />
  <path
     id="path7"
     d="  M 54.345381,54.345381   L 307.53092,54.345381   L 307.53092,307.53092   L 54.345381,307.53092   z "
     style="fill:none;stroke:#000000;stroke-width:9.5903616px;stroke-linecap:butt;stroke-linejoin:miter;stroke-miterlimit:10;stroke-dasharray:none;stroke-opacity:1;" />
  <path
     id="path9"
     d="  M 180.93815,152.16707   L 180.93815,209.70923  "
     style="fill:none;stroke:#000000;stroke-width:9.5903616px;stroke-linecap:butt;stroke-linejoin:miter;stroke-miterlimit:10;stroke-dasharray:none;stroke-opacity:1;" />
  <path
     id="path11"
     d="  M 99.420079,180.93815   L 228.88996,180.93815  "
     style="fill:none;stroke:#000000;stroke-width:9.5903616px;stroke-linecap:butt;stroke-linejoin:miter;stroke-miterlimit:10;stroke-dasharray:none;stroke-opacity:1;" />
  <path
     id="path13"
     d="  M 272.04658,180.93815   C 272.04658,194.20482 261.33735,204.91405 248.07068,204.91405   C 234.84397,204.91405 224.09478,194.20482 224.09478,180.93815   C 224.09478,167.71144 234.84397,156.96225 248.07068,156.96225   C 261.33735,156.96225 272.04658,167.71144 272.04658,180.93815  "
     style="fill:none;stroke:#000000;stroke-width:9.5903616px;stroke-linecap:butt;stroke-linejoin:miter;stroke-miterlimit:10;stroke-dasharray:none;stroke-opacity:1;" />
  <path
     id="path15"
     d="  M 130.74859,104.81466   C 130.74859,98.540962 132.42691,93.665862 135.82349,90.109436   C 139.18012,86.553011 143.53574,84.794778 148.8504,84.794778   C 152.32691,84.794778 155.48373,85.633935 158.28092,87.272288   C 161.07811,88.950601 163.19598,91.268272 164.6745,94.26526   C 166.15301,97.222288 166.87229,100.61887 166.87229,104.3751   C 166.87229,108.21124 166.11305,111.64779 164.55462,114.64478   C 162.99618,117.68173 160.79839,119.95944 158.0012,121.51787   C 155.16405,123.0763 152.08715,123.8755 148.81044,123.8755   C 145.25401,123.8755 142.09719,122.99638 139.3,121.27811   C 136.50281,119.55984 134.38494,117.24217 132.90642,114.24518   C 131.46787,111.28815 130.74859,108.13132 130.74859,104.81466   z  M 135.90341,104.89458   C 135.90341,109.45 137.14217,113.04638 139.57972,115.64377   C 142.01727,118.28112 145.09417,119.5998 148.77048,119.5998   C 152.56666,119.5998 155.64357,118.28112 158.08112,115.60381   C 160.51867,112.96646 161.71747,109.21024 161.71747,104.3751   C 161.71747,101.29819 161.19799,98.620882 160.15903,96.303211   C 159.12008,94.025501 157.6016,92.227308 155.60361,90.988553   C 153.60562,89.709838 151.36787,89.070481 148.8504,89.070481   C 145.33393,89.070481 142.29699,90.309236 139.73956,92.746786   C 137.18213,95.144376 135.90341,99.22028 135.90341,104.89458   z  M 182.89618,123.19618   L 182.89618,89.909637   L 170.46867,89.909637   L 170.46867,85.474095   L 200.39859,85.474095   L 200.39859,89.909637   L 187.89116,89.909637   L 187.89116,123.19618   z  M 205.67329,123.19618   L 205.67329,85.474095   L 210.66827,85.474095   L 210.66827,100.97851   L 230.28855,100.97851   L 230.28855,85.474095   L 235.28353,85.474095   L 235.28353,123.19618   L 230.28855,123.19618   L 230.28855,105.41405   L 210.66827,105.41405   L 210.66827,123.19618   z "
     style="fill:#000000;fill-rule:evenodd;fill-opacity:1;stroke:none;" />
</svg>
