<?xml version="1.0" encoding="UTF-8" standalone="no"?>
<svg
   xmlns:dc="http://purl.org/dc/elements/1.1/"
   xmlns:cc="http://creativecommons.org/ns#"
   xmlns:rdf="http://www.w3.org/1999/02/22-rdf-syntax-ns#"
   xmlns:svg="http://www.w3.org/2000/svg"
   xmlns="http://www.w3.org/2000/svg"
   id="svg31"
   height="89.669998mm"
   width="120.11mm"
   version="1.0">
  <metadata
     id="metadata35">
    <rdf:RDF>
      <cc:Work
         rdf:about="">
        <dc:format>image/svg+xml</dc:format>
        <dc:type
           rdf:resource="http://purl.org/dc/dcmitype/StillImage" />
      </cc:Work>
    </rdf:RDF>
  </metadata>
  <defs
     id="defs3">
    <pattern
       y="0"
       x="0"
       height="6"
       width="6"
       patternUnits="userSpaceOnUse"
       id="EMFhbasepattern" />
  </defs>
  <path
     id="path5"
     d="  M 179.02008,15.983936   L 179.02008,54.345381   L 274.92369,54.345381   L 274.92369,15.983936   L 179.02008,15.983936   z "
     style="fill:#000000;fill-rule:evenodd;fill-opacity:1;stroke:none;" />
  <path
     id="path7"
     d="  M 54.345381,54.345381   L 54.345381,284.51405   L 399.59839,284.51405   L 399.59839,54.345381   L 54.345381,54.345381   z "
     style="fill:#80e0ff;fill-rule:evenodd;fill-opacity:1;stroke:none;" />
  <path
     id="path9"
     d="  M 54.345381,54.345381   L 399.59839,54.345381   L 399.59839,284.51405   L 54.345381,284.51405   z "
     style="fill:none;stroke:#000000;stroke-width:9.5903616px;stroke-linecap:butt;stroke-linejoin:miter;stroke-miterlimit:10;stroke-dasharray:none;stroke-opacity:1;" />
  <path
     id="path11"
     d="  M 175.14397,129.90944   L 175.14397,129.90944   L 186.25281,129.90944   L 186.25281,125.87349   L 175.14397,125.87349   z "
     style="fill:#000000;fill-rule:evenodd;fill-opacity:1;stroke:none;" />
  <path
     id="path13"
     d="  M 175.14397,140.53875   L 175.14397,140.53875   L 186.25281,140.53875   L 186.25281,135.98333   L 175.14397,135.98333   z "
     style="fill:#000000;fill-rule:evenodd;fill-opacity:1;stroke:none;" />
  <path
     id="path15"
     d="  M 262.1765,122.31707   L 262.1765,144.09518   L 268.76988,144.09518   L 268.76988,122.31707   C 268.76988,121.15823 268.41024,120.79859 267.2514,120.79859   L 263.69498,120.79859   C 262.53614,120.79859 262.1765,121.15823 262.1765,122.31707   z "
     style="fill:#ffffff;fill-rule:evenodd;fill-opacity:1;stroke:none;" />
  <path
     id="path17"
     d="  M 202.4765,145.09417   L 202.4765,145.09417   L 257.14156,140.53875   L 257.1016,124.99438   L 202.4765,119.28012   z "
     style="fill:#ffffff;fill-rule:evenodd;fill-opacity:1;stroke:none;" />
  <path
     id="path19"
     d="  M 175.14397,135.98333   L 186.25281,135.98333   L 186.25281,140.53875   L 175.14397,140.53875   L 175.14397,135.98333  z    M 175.14397,125.87349   L 186.25281,125.87349   L 186.25281,129.90944   L 175.14397,129.90944   L 175.14397,125.87349  z    M 173.10602,146.09317   L 188.81024,146.09317   L 188.81024,119.7996   L 173.10602,119.7996   L 173.10602,146.09317  z   "
     style="fill:#ffffff;fill-rule:evenodd;fill-opacity:1;stroke:none;" />
  <path
     id="path21"
     d="  M 194.36466,114.04538   L 194.36466,114.04538   L 192.84618,114.20522   L 192.84618,152.16707   L 197.92108,152.16707   L 197.92108,114.20522   z "
     style="fill:#ffffff;fill-rule:evenodd;fill-opacity:1;stroke:none;" />
  <path
     id="path23"
     d="  M 197.92108,114.20522   L 197.92108,152.16707   L 192.84618,152.16707   L 192.84618,114.20522   L 194.36466,114.04538   z  M 173.10602,119.7996   L 188.81024,119.7996   L 188.81024,146.09317   L 173.10602,146.09317   z  M 262.1765,122.31707   C 262.1765,121.15823 262.53614,120.79859 263.69498,120.79859   L 267.2514,120.79859   C 268.41024,120.79859 268.76988,121.15823 268.76988,122.31707   L 268.76988,144.09518   L 262.1765,144.09518   z  M 202.4765,119.28012   L 257.1016,124.99438   L 257.14156,140.53875   L 202.4765,145.09417   z  M 137.66164,147.61164   L 168.5506,147.61164   L 168.5506,150.16907   L 188.41064,150.32891   L 191.36767,156.12309   L 195.36365,156.72249   C 196.68233,156.96225 197.8012,156.24297 199.79919,156.04317   L 201.95703,154.7245   L 202.43654,148.97028   L 257.14156,145.09417   C 259.97871,151.08815 267.09156,148.97028 272.80582,147.61164   C 272.96566,146.05321 273.3253,145.81345 273.3253,144.09518   L 273.3253,121.31807   C 273.3253,117.60181 271.40722,116.24317 267.77088,116.24317   L 262.69598,116.24317   C 253.58514,116.24317 263.09558,122.27711 250.74799,120.07932   C 245.63313,119.2002 239.59919,119.12028 234.76405,118.401   C 226.89196,117.20221 209.82911,115.24418 202.4765,115.24418   C 202.2767,107.77169 189.01004,107.25221 188.81024,116.24317   L 168.5506,116.24317   L 168.5506,117.76164   L 137.50181,117.76164   L 137.66164,147.61164   z "
     style="fill:#000000;fill-rule:evenodd;fill-opacity:1;stroke:none;" />
  <path
     id="path25"
     d="  M 264.21445,226.09277   L 269.28935,223.05582   C 269.64899,227.61124 273.5251,232.64618 277.36124,233.68514   C 276.96164,235.16365 275.04357,236.72208 273.3253,236.72208   C 268.37028,236.72208 264.21445,231.76706 264.21445,226.09277   z  M 255.62309,218.5004   C 255.62309,233.00582 263.49518,244.35441 277.36124,244.83393   C 293.98453,245.39337 302.53594,240.75803 306.53192,226.89196   C 310.68775,212.38654 299.77871,202.15682 294.58393,193.16586   C 291.50702,187.8512 289.66887,182.93614 287.67088,176.30281   C 285.67289,169.58956 285.43313,162.63654 280.39819,159.27992   C 276.96164,174.0251 276.04257,178.38072 269.44919,190.32871   C 266.21245,196.20281 255.62309,211.58735 255.62309,218.5004   z "
     style="fill:#ffffff;fill-rule:evenodd;fill-opacity:1;stroke:none;" />
  <path
     id="path27"
     d="  M 264.21445,226.09277   C 264.21445,231.76706 268.37028,236.72208 273.3253,236.72208   C 275.04357,236.72208 276.96164,235.16365 277.36124,233.68514   C 273.5251,232.64618 269.64899,227.61124 269.28935,223.05582   z "
     style="fill:#000000;fill-rule:evenodd;fill-opacity:1;stroke:none;" />
  <path
     id="path29"
     d="  M 255.62309,218.5004   C 255.62309,211.58735 266.21245,196.20281 269.44919,190.32871   C 276.04257,178.38072 276.96164,174.0251 280.39819,159.27992   C 285.43313,162.63654 285.67289,169.58956 287.67088,176.30281   C 289.66887,182.93614 291.50702,187.8512 294.58393,193.16586   C 299.77871,202.15682 310.68775,212.38654 306.53192,226.89196   C 302.53594,240.75803 293.98453,245.39337 277.36124,244.83393   C 263.49518,244.35441 255.62309,233.00582 255.62309,218.5004   z  M 252.58614,217.46144   L 252.58614,218.97992   C 252.58614,236.92188 263.49518,248.3504 281.43714,248.3504   C 297.74076,248.3504 310.28815,237.24156 310.28815,222.01686   L 310.28815,218.97992   C 310.28815,206.99196 298.93955,195.04397 294.30421,185.85321   C 291.70682,180.69839 290.54799,172.74638 288.82971,166.55261   C 286.59196,158.68052 283.0755,157.00221 277.36124,153.20602   C 277.36124,185.77329 252.58614,201.31767 252.58614,217.46144   z "
     style="fill:#000000;fill-rule:evenodd;fill-opacity:1;stroke:none;" />
</svg>
