<?xml version="1.0" encoding="UTF-8" standalone="no"?>
<svg
   xmlns:dc="http://purl.org/dc/elements/1.1/"
   xmlns:cc="http://creativecommons.org/ns#"
   xmlns:rdf="http://www.w3.org/1999/02/22-rdf-syntax-ns#"
   xmlns:svg="http://www.w3.org/2000/svg"
   xmlns="http://www.w3.org/2000/svg"
   id="svg31"
   height="95.75mm"
   width="95.75mm"
   version="1.0">
  <metadata
     id="metadata35">
    <rdf:RDF>
      <cc:Work
         rdf:about="">
        <dc:format>image/svg+xml</dc:format>
        <dc:type
           rdf:resource="http://purl.org/dc/dcmitype/StillImage" />
      </cc:Work>
    </rdf:RDF>
  </metadata>
  <defs
     id="defs3">
    <pattern
       y="0"
       x="0"
       height="6"
       width="6"
       patternUnits="userSpaceOnUse"
       id="EMFhbasepattern" />
  </defs>
  <path
     id="path5"
     d="  M 132.98634,15.983936   L 132.98634,54.345381   L 228.88996,54.345381   L 228.88996,15.983936   L 132.98634,15.983936   z "
     style="fill:#000000;fill-rule:evenodd;fill-opacity:1;stroke:none;" />
  <path
     id="path7"
     d="  M 54.345381,54.345381   L 54.345381,307.53092   L 307.53092,307.53092   L 307.53092,54.345381   L 54.345381,54.345381   z "
     style="fill:#aaffaa;fill-rule:evenodd;fill-opacity:1;stroke:none;" />
  <path
     id="path9"
     d="  M 54.345381,54.345381   L 307.53092,54.345381   L 307.53092,307.53092   L 54.345381,307.53092   z "
     style="fill:none;stroke:#000000;stroke-width:9.5903616px;stroke-linecap:butt;stroke-linejoin:miter;stroke-miterlimit:10;stroke-dasharray:none;stroke-opacity:1;" />
  <path
     id="path11"
     d="  M 129.11024,141.41787   L 129.11024,141.41787   L 140.21907,141.41787   L 140.21907,137.38193   L 129.11024,137.38193   z "
     style="fill:#000000;fill-rule:evenodd;fill-opacity:1;stroke:none;" />
  <path
     id="path13"
     d="  M 129.11024,152.04719   L 129.11024,152.04719   L 140.21907,152.04719   L 140.21907,147.49176   L 129.11024,147.49176   z "
     style="fill:#000000;fill-rule:evenodd;fill-opacity:1;stroke:none;" />
  <path
     id="path15"
     d="  M 216.14277,133.8255   L 216.14277,155.60361   L 222.73614,155.60361   L 222.73614,133.8255   C 222.73614,132.66666 222.3765,132.30703 221.21767,132.30703   L 217.66124,132.30703   C 216.50241,132.30703 216.14277,132.66666 216.14277,133.8255   z "
     style="fill:#ffffff;fill-rule:evenodd;fill-opacity:1;stroke:none;" />
  <path
     id="path17"
     d="  M 156.44277,156.60261   L 156.44277,156.60261   L 211.10783,152.04719   L 211.06787,136.50281   L 156.44277,130.78855   z "
     style="fill:#ffffff;fill-rule:evenodd;fill-opacity:1;stroke:none;" />
  <path
     id="path19"
     d="  M 129.11024,147.49176   L 140.21907,147.49176   L 140.21907,152.04719   L 129.11024,152.04719   L 129.11024,147.49176  z    M 129.11024,137.38193   L 140.21907,137.38193   L 140.21907,141.41787   L 129.11024,141.41787   L 129.11024,137.38193  z    M 127.07229,157.6016   L 142.7765,157.6016   L 142.7765,131.30803   L 127.07229,131.30803   L 127.07229,157.6016  z   "
     style="fill:#ffffff;fill-rule:evenodd;fill-opacity:1;stroke:none;" />
  <path
     id="path21"
     d="  M 148.33092,125.55381   L 148.33092,125.55381   L 146.81245,125.71365   L 146.81245,163.6755   L 151.88735,163.6755   L 151.88735,125.71365   z "
     style="fill:#ffffff;fill-rule:evenodd;fill-opacity:1;stroke:none;" />
  <path
     id="path23"
     d="  M 151.88735,125.71365   L 151.88735,163.6755   L 146.81245,163.6755   L 146.81245,125.71365   L 148.33092,125.55381   z  M 127.07229,131.30803   L 142.7765,131.30803   L 142.7765,157.6016   L 127.07229,157.6016   z  M 216.14277,133.8255   C 216.14277,132.66666 216.50241,132.30703 217.66124,132.30703   L 221.21767,132.30703   C 222.3765,132.30703 222.73614,132.66666 222.73614,133.8255   L 222.73614,155.60361   L 216.14277,155.60361   z  M 156.44277,130.78855   L 211.06787,136.50281   L 211.10783,152.04719   L 156.44277,156.60261   z  M 91.62791,159.12008   L 122.51687,159.12008   L 122.51687,161.67751   L 142.37691,161.83735   L 145.33393,167.63152   L 149.32992,168.23092   C 150.64859,168.47068 151.76747,167.7514 153.76546,167.5516   L 155.92329,166.23293   L 156.40281,160.47871   L 211.10783,156.60261   C 213.94498,162.59658 221.05783,160.47871 226.77209,159.12008   C 226.93192,157.56164 227.29156,157.32189 227.29156,155.60361   L 227.29156,132.8265   C 227.29156,129.11024 225.37349,127.7516 221.73715,127.7516   L 216.66225,127.7516   C 207.5514,127.7516 217.06184,133.78554 204.71425,131.58775   C 199.59939,130.70863 193.56546,130.62871 188.73032,129.90944   C 180.85823,128.71064 163.79538,126.75261 156.44277,126.75261   C 156.24297,119.28012 142.9763,118.76064 142.7765,127.7516   L 122.51687,127.7516   L 122.51687,129.27008   L 91.468071,129.27008   L 91.62791,159.12008   z "
     style="fill:#000000;fill-rule:evenodd;fill-opacity:1;stroke:none;" />
  <path
     id="path25"
     d="  M 218.18072,237.6012   L 223.25562,234.56425   C 223.61526,239.11968 227.49136,244.15461 231.32751,245.19357   C 230.92791,246.67208 229.00984,248.23052 227.29156,248.23052   C 222.33654,248.23052 218.18072,243.2755 218.18072,237.6012   z  M 209.58935,230.00883   C 209.58935,244.51425 217.46144,255.86285 231.32751,256.34237   C 247.9508,256.9018 256.50221,252.26646 260.49819,238.4004   C 264.65401,223.89498 253.74498,213.66526 248.5502,204.67429   C 245.47329,199.35964 243.63514,194.44458 241.63715,187.81124   C 239.63915,181.09799 239.39939,174.14498 234.36445,170.78835   C 230.92791,185.53353 230.00883,189.88915 223.41546,201.83715   C 220.17871,207.71124 209.58935,223.09578 209.58935,230.00883   z "
     style="fill:#ffffff;fill-rule:evenodd;fill-opacity:1;stroke:none;" />
  <path
     id="path27"
     d="  M 218.18072,237.6012   C 218.18072,243.2755 222.33654,248.23052 227.29156,248.23052   C 229.00984,248.23052 230.92791,246.67208 231.32751,245.19357   C 227.49136,244.15461 223.61526,239.11968 223.25562,234.56425   z "
     style="fill:#000000;fill-rule:evenodd;fill-opacity:1;stroke:none;" />
  <path
     id="path29"
     d="  M 209.58935,230.00883   C 209.58935,223.09578 220.17871,207.71124 223.41546,201.83715   C 230.00883,189.88915 230.92791,185.53353 234.36445,170.78835   C 239.39939,174.14498 239.63915,181.09799 241.63715,187.81124   C 243.63514,194.44458 245.47329,199.35964 248.5502,204.67429   C 253.74498,213.66526 264.65401,223.89498 260.49819,238.4004   C 256.50221,252.26646 247.9508,256.9018 231.32751,256.34237   C 217.46144,255.86285 209.58935,244.51425 209.58935,230.00883   z  M 206.55241,228.96988   L 206.55241,230.48835   C 206.55241,248.43032 217.46144,259.85883 235.40341,259.85883   C 251.70702,259.85883 264.25441,248.75 264.25441,233.5253   L 264.25441,230.48835   C 264.25441,218.5004 252.90582,206.55241 248.27048,197.36164   C 245.67309,192.20682 244.51425,184.25482 242.79598,178.06104   C 240.55823,170.18895 237.04176,168.51064 231.32751,164.71446   C 231.32751,197.28172 206.55241,212.8261 206.55241,228.96988   z "
     style="fill:#000000;fill-rule:evenodd;fill-opacity:1;stroke:none;" />
</svg>
