<?xml version="1.0" encoding="UTF-8" standalone="no"?>
<svg
   xmlns:dc="http://purl.org/dc/elements/1.1/"
   xmlns:cc="http://creativecommons.org/ns#"
   xmlns:rdf="http://www.w3.org/1999/02/22-rdf-syntax-ns#"
   xmlns:svg="http://www.w3.org/2000/svg"
   xmlns="http://www.w3.org/2000/svg"
   id="svg15"
   height="130.27mm"
   width="130.27mm"
   version="1.0">
  <metadata
     id="metadata19">
    <rdf:RDF>
      <cc:Work
         rdf:about="">
        <dc:format>image/svg+xml</dc:format>
        <dc:type
           rdf:resource="http://purl.org/dc/dcmitype/StillImage" />
      </cc:Work>
    </rdf:RDF>
  </metadata>
  <defs
     id="defs3">
    <pattern
       y="0"
       x="0"
       height="6"
       width="6"
       patternUnits="userSpaceOnUse"
       id="EMFhbasepattern" />
  </defs>
  <path
     id="path5"
     d="  M 164.63454,327.67068   C 164.63454,437.95983 327.67068,437.95983 327.67068,327.67068   C 437.95983,327.67068 437.95983,164.63454 327.67068,164.63454   C 327.67068,54.345381 164.63454,54.345381 164.63454,164.63454   C 54.345381,164.63454 54.345381,327.67068 164.63454,327.67068   z "
     style="fill:#ffff80;fill-rule:evenodd;fill-opacity:1;stroke:none;" />
  <path
     id="path7"
     d="  M 164.63454,327.67068   C 164.63454,437.95983 327.67068,437.95983 327.67068,327.67068   C 437.95983,327.67068 437.95983,164.63454 327.67068,164.63454   C 327.67068,54.345381 164.63454,54.345381 164.63454,164.63454   C 54.345381,164.63454 54.345381,327.67068 164.63454,327.67068  "
     style="fill:none;stroke:#000000;stroke-width:9.5903616px;stroke-linecap:butt;stroke-linejoin:miter;stroke-miterlimit:10;stroke-dasharray:none;stroke-opacity:1;" />
  <path
     id="path9"
     d="  M 211.62731,276.32229   C 211.62731,293.26526 226.45241,309.48895 242.79598,309.48895   L 247.31144,309.48895   C 264.13453,309.48895 278.99959,293.38514 278.99959,276.32229   C 278.99959,258.3004 264.21445,242.63614 246.31245,242.63614   L 243.79498,242.63614   C 226.25261,242.63614 211.62731,258.62008 211.62731,276.32229   z "
     style="fill:#ffffff;fill-rule:evenodd;fill-opacity:1;stroke:none;" />
  <path
     id="path11"
     d="  M 211.62731,276.32229   C 211.62731,258.62008 226.25261,242.63614 243.79498,242.63614   L 246.31245,242.63614   C 264.21445,242.63614 278.99959,258.3004 278.99959,276.32229   C 278.99959,293.38514 264.13453,309.48895 247.31144,309.48895   L 242.79598,309.48895   C 226.45241,309.48895 211.62731,293.26526 211.62731,276.32229   z  M 242.2765,190.32871   C 240.55823,190.32871 237.28152,185.33373 236.72208,183.29578   C 235.92289,180.33875 235.76305,176.14297 236.64217,172.6265   C 237.88092,167.59156 243.2755,158.6006 243.2755,154.64458   C 243.2755,152.00723 242.91586,147.33193 240.27851,147.09217   C 237.801,157.76144 235.24357,158.88032 230.32851,166.31285   C 228.01084,169.78935 219.17972,180.13895 219.17972,183.81526   L 219.17972,184.81425   C 219.17972,190.48855 226.65221,204.35462 225.69317,209.94899   L 225.09377,213.94498   C 216.74217,211.98694 205.59337,196.44257 205.59337,185.29377   C 202.2767,185.57349 199.55943,195.88313 199.55943,199.87911   L 199.55943,206.91205   C 199.55943,220.65823 207.5514,226.81204 209.58935,235.60321   C 203.19578,232.20662 200.15883,230.44839 195.40361,225.17369   C 192.88614,222.3765 186.65241,211.70723 185.45361,210.94799   C 182.73634,216.62229 189.56948,235.52329 191.28775,239.79899   C 192.9261,243.95482 194.64437,248.31044 196.84217,251.86686   C 199.3996,256.14257 202.23674,258.22048 204.59437,261.73694   C 204.4745,265.69297 203.15582,267.53112 203.0759,272.80582   C 203.03594,277.28132 203.03594,279.03955 203.59538,283.83473   C 204.15482,288.82971 208.51044,298.46004 211.22771,301.33714   C 217.18172,307.53092 217.06184,308.0504 224.77409,312.9255   C 229.56927,315.92249 236.60221,318.04036 244.31445,318.04036   L 245.79297,318.04036   C 261.21747,318.04036 273.16546,309.68875 279.79879,300.73775   C 288.98955,288.39016 288.82971,277.04156 285.03353,260.73795   C 293.38514,244.91385 299.09939,238.36044 299.09939,213.46546   L 299.09939,212.46646   L 298.26024,202.8761   C 298.06044,202.91606 290.42811,217.66124 289.14939,219.57931   C 286.7518,223.21566 280.43815,231.16767 275.48313,231.56727   C 275.64297,223.85502 280.51807,216.82209 280.51807,208.95   L 280.51807,203.91506   L 278.04056,184.77429   C 275.64297,186.49257 274.56405,198.84016 270.80783,203.2757   C 269.72891,204.59437 257.38132,216.62229 257.38132,211.94698   L 257.38132,207.91104   C 257.38132,200.51847 262.41626,192.68634 262.41626,186.29277   L 262.41626,183.29578   C 262.41626,181.25783 253.0257,167.83132 251.34739,166.71245   C 251.34739,172.18695 250.82791,177.10201 249.50923,181.49759   C 248.75,184.01506 244.75401,190.32871 242.2765,190.32871   z "
     style="fill:#000000;fill-rule:evenodd;fill-opacity:1;stroke:none;" />
  <path
     id="path13"
     d="  M 196.52249,336.66164   L 196.52249,336.66164   L 294.06445,336.66164   L 294.06445,326.59176   L 196.52249,326.59176   z "
     style="fill:#000000;fill-rule:evenodd;fill-opacity:1;stroke:none;" />
</svg>
