<?xml version="1.0" encoding="UTF-8" standalone="no"?>
<svg
   xmlns:dc="http://purl.org/dc/elements/1.1/"
   xmlns:cc="http://creativecommons.org/ns#"
   xmlns:rdf="http://www.w3.org/1999/02/22-rdf-syntax-ns#"
   xmlns:svg="http://www.w3.org/2000/svg"
   xmlns="http://www.w3.org/2000/svg"
   id="svg15"
   height="89.669998mm"
   width="120.11mm"
   version="1.0">
  <metadata
     id="metadata19">
    <rdf:RDF>
      <cc:Work
         rdf:about="">
        <dc:format>image/svg+xml</dc:format>
        <dc:type
           rdf:resource="http://purl.org/dc/dcmitype/StillImage" />
      </cc:Work>
    </rdf:RDF>
  </metadata>
  <defs
     id="defs3">
    <pattern
       y="0"
       x="0"
       height="6"
       width="6"
       patternUnits="userSpaceOnUse"
       id="EMFhbasepattern" />
  </defs>
  <path
     id="path5"
     d="  M 54.345381,54.345381   L 54.345381,284.51405   L 399.59839,284.51405   L 399.59839,54.345381   L 54.345381,54.345381   z "
     style="fill:#80e0ff;fill-rule:evenodd;fill-opacity:1;stroke:none;" />
  <path
     id="path7"
     d="  M 54.345381,54.345381   L 399.59839,54.345381   L 399.59839,284.51405   L 54.345381,284.51405   z "
     style="fill:none;stroke:#000000;stroke-width:9.5903616px;stroke-linecap:butt;stroke-linejoin:miter;stroke-miterlimit:10;stroke-dasharray:none;stroke-opacity:1;" />
  <path
     id="path9"
     d="  M 192.44658,199.59939   C 192.44658,216.54237 207.27168,232.76606 223.61526,232.76606   L 228.13072,232.76606   C 244.95381,232.76606 259.81887,216.66225 259.81887,199.59939   C 259.81887,181.57751 245.03373,165.91325 227.13172,165.91325   L 224.61425,165.91325   C 207.07188,165.91325 192.44658,181.89719 192.44658,199.59939   z "
     style="fill:#ffffff;fill-rule:evenodd;fill-opacity:1;stroke:none;" />
  <path
     id="path11"
     d="  M 192.44658,199.59939   C 192.44658,181.89719 207.07188,165.91325 224.61425,165.91325   L 227.13172,165.91325   C 245.03373,165.91325 259.81887,181.57751 259.81887,199.59939   C 259.81887,216.66225 244.95381,232.76606 228.13072,232.76606   L 223.61526,232.76606   C 207.27168,232.76606 192.44658,216.54237 192.44658,199.59939   z  M 223.09578,113.60582   C 221.37751,113.60582 218.1008,108.61084 217.54136,106.57289   C 216.74217,103.61586 216.58233,99.420079 217.46144,95.903613   C 218.7002,90.868673 224.09478,81.87771 224.09478,77.921686   C 224.09478,75.284336 223.73514,70.609035 221.09779,70.369276   C 218.62028,81.038553 216.06285,82.157429 211.14779,89.589959   C 208.83012,93.066465 199.99899,103.41606 199.99899,107.09237   L 199.99899,108.09136   C 199.99899,113.76566 207.47148,127.63173 206.51245,133.2261   L 205.91305,137.22209   C 197.56144,135.26405 186.41265,119.71968 186.41265,108.57088   C 183.09598,108.8506 180.37871,119.16024 180.37871,123.15622   L 180.37871,130.18915   C 180.37871,143.93534 188.37068,150.08915 190.40863,158.88032   C 184.01506,155.48373 180.97811,153.7255 176.22289,148.4508   C 173.70542,145.65361 167.47168,134.98434 166.27289,134.2251   C 163.55562,139.8994 170.38875,158.8004 172.10703,163.0761   C 173.74538,167.23193 175.46365,171.58755 177.66144,175.14397   C 180.21887,179.41968 183.05602,181.49759 185.41365,185.01405   C 185.29377,188.97008 183.9751,190.80823 183.89518,196.08293   C 183.85522,200.55843 183.85522,202.31666 184.41466,207.11184   C 184.97409,212.10682 189.32972,221.73715 192.04699,224.61425   C 198.001,230.80803 197.88112,231.32751 205.59337,236.20261   C 210.38855,239.19959 217.42148,241.31747 225.13373,241.31747   L 226.61225,241.31747   C 242.03674,241.31747 253.98474,232.96586 260.61807,224.01486   C 269.80883,211.66727 269.64899,200.31867 265.85281,184.01506   C 274.20441,168.19096 279.91867,161.63755 279.91867,136.74257   L 279.91867,135.74357   L 279.07951,126.15321   C 278.87971,126.19317 271.24739,140.93835 269.96867,142.85642   C 267.57108,146.49277 261.25743,154.44478 256.30241,154.84438   C 256.46225,147.13213 261.33735,140.09919 261.33735,132.22711   L 261.33735,127.19217   L 258.85984,108.0514   C 256.46225,109.76968 255.38333,122.11727 251.6271,126.55281   C 250.54819,127.87148 238.2006,139.8994 238.2006,135.22409   L 238.2006,131.18815   C 238.2006,123.79558 243.23554,115.96345 243.23554,109.56988   L 243.23554,106.57289   C 243.23554,104.53494 233.84498,91.108432 232.16666,89.989557   C 232.16666,95.464055 231.64719,100.37912 230.32851,104.7747   C 229.56927,107.29217 225.57329,113.60582 223.09578,113.60582   z "
     style="fill:#000000;fill-rule:evenodd;fill-opacity:1;stroke:none;" />
  <path
     id="path13"
     d="  M 177.34176,259.93875   L 177.34176,259.93875   L 274.88373,259.93875   L 274.88373,249.86887   L 177.34176,249.86887   z "
     style="fill:#000000;fill-rule:evenodd;fill-opacity:1;stroke:none;" />
</svg>
