<?xml version="1.0" encoding="UTF-8" standalone="no"?>
<svg
   xmlns:dc="http://purl.org/dc/elements/1.1/"
   xmlns:cc="http://creativecommons.org/ns#"
   xmlns:rdf="http://www.w3.org/1999/02/22-rdf-syntax-ns#"
   xmlns:svg="http://www.w3.org/2000/svg"
   xmlns="http://www.w3.org/2000/svg"
   id="svg15"
   height="130.27mm"
   width="130.27mm"
   version="1.0">
  <metadata
     id="metadata19">
    <rdf:RDF>
      <cc:Work
         rdf:about="">
        <dc:format>image/svg+xml</dc:format>
        <dc:type
           rdf:resource="http://purl.org/dc/dcmitype/StillImage" />
      </cc:Work>
    </rdf:RDF>
  </metadata>
  <defs
     id="defs3">
    <pattern
       y="0"
       x="0"
       height="6"
       width="6"
       patternUnits="userSpaceOnUse"
       id="EMFhbasepattern" />
  </defs>
  <path
     id="path5"
     d="  M 164.63454,327.67068   C 164.63454,437.95983 327.67068,437.95983 327.67068,327.67068   C 437.95983,327.67068 437.95983,164.63454 327.67068,164.63454   C 327.67068,54.345381 164.63454,54.345381 164.63454,164.63454   C 54.345381,164.63454 54.345381,327.67068 164.63454,327.67068   z "
     style="fill:#ffff80;fill-rule:evenodd;fill-opacity:1;stroke:none;" />
  <path
     id="path7"
     d="  M 164.63454,327.67068   C 164.63454,437.95983 327.67068,437.95983 327.67068,327.67068   C 437.95983,327.67068 437.95983,164.63454 327.67068,164.63454   C 327.67068,54.345381 164.63454,54.345381 164.63454,164.63454   C 54.345381,164.63454 54.345381,327.67068 164.63454,327.67068  "
     style="fill:none;stroke:#000000;stroke-width:9.5903616px;stroke-linecap:butt;stroke-linejoin:miter;stroke-miterlimit:10;stroke-dasharray:none;stroke-opacity:1;" />
  <path
     id="path9"
     d="  M 183.81526,318.08032   L 183.81526,318.08032   L 145.45381,241.35743   L 193.40562,241.35743   L 193.40562,179.02008   L 298.89959,179.02008   L 298.89959,241.35743   L 346.8514,241.35743   L 308.48996,318.08032   z "
     style="fill:#ffffff;fill-rule:evenodd;fill-opacity:1;stroke:none;" />
  <path
     id="path11"
     d="  M 183.81526,318.08032   L 183.81526,318.08032   L 145.45381,241.35743   L 193.40562,241.35743   L 193.40562,179.02008   L 298.89959,179.02008   L 298.89959,241.35743   L 346.8514,241.35743   L 308.48996,318.08032   z "
     style="fill:none;stroke:#000000;stroke-width:9.5903616px;stroke-linecap:butt;stroke-linejoin:miter;stroke-miterlimit:10;stroke-dasharray:none;stroke-opacity:1;" />
  <path
     id="path13"
     d="  M 212.26666,288.66988   L 212.26666,247.47128   L 227.77108,247.47128   C 230.52831,247.47128 232.60622,247.63112 234.04478,247.87088   C 236.08273,248.23052 237.76104,248.86988 239.11968,249.78895   C 240.51827,250.74799 241.59719,252.06666 242.43634,253.78494   C 243.2755,255.46325 243.6751,257.34136 243.6751,259.37931   C 243.6751,262.89578 242.55622,265.85281 240.35843,268.29036   C 238.12068,270.72791 234.08474,271.9267 228.2506,271.9267   L 217.7012,271.9267   L 217.7012,288.66988   z  M 217.7012,267.0516   L 228.33052,267.0516   C 231.88694,267.0516 234.36445,266.41225 235.84297,265.09357   C 237.32148,263.7749 238.08072,261.93674 238.08072,259.57911   C 238.08072,257.86084 237.64116,256.38233 236.76204,255.14357   C 235.88293,253.90482 234.76405,253.10562 233.3255,252.70602   C 232.40642,252.46626 230.72811,252.34638 228.2506,252.34638   L 217.7012,252.34638   z  M 246.11265,288.66988   L 261.93674,247.47128   L 267.81084,247.47128   L 284.67389,288.66988   L 278.44016,288.66988   L 273.64498,276.20241   L 256.42229,276.20241   L 251.90682,288.66988   z  M 257.98072,271.76686   L 271.96666,271.76686   L 267.651,260.33835   C 266.33233,256.9018 265.37329,254.0247 264.73393,251.8269   C 264.21445,254.46425 263.45522,257.06164 262.49618,259.65903   z "
     style="fill:#000000;fill-rule:evenodd;fill-opacity:1;stroke:none;" />
</svg>
