<?xml version="1.0" encoding="UTF-8" standalone="no"?>
<svg
   xmlns:dc="http://purl.org/dc/elements/1.1/"
   xmlns:cc="http://creativecommons.org/ns#"
   xmlns:rdf="http://www.w3.org/1999/02/22-rdf-syntax-ns#"
   xmlns:svg="http://www.w3.org/2000/svg"
   xmlns="http://www.w3.org/2000/svg"
   id="svg15"
   height="101.85mm"
   width="101.85mm"
   version="1.0">
  <metadata
     id="metadata19">
    <rdf:RDF>
      <cc:Work
         rdf:about="">
        <dc:format>image/svg+xml</dc:format>
        <dc:type
           rdf:resource="http://purl.org/dc/dcmitype/StillImage" />
      </cc:Work>
    </rdf:RDF>
  </metadata>
  <defs
     id="defs3">
    <pattern
       y="0"
       x="0"
       height="6"
       width="6"
       patternUnits="userSpaceOnUse"
       id="EMFhbasepattern" />
  </defs>
  <path
     id="path5"
     d="  M 330.54779,192.44658   C 330.54779,268.72992 268.72992,330.54779 192.44658,330.54779   C 116.20321,330.54779 54.345381,268.72992 54.345381,192.44658   C 54.345381,116.20321 116.20321,54.345381 192.44658,54.345381   C 268.72992,54.345381 330.54779,116.20321 330.54779,192.44658   z "
     style="fill:#80e0ff;fill-rule:evenodd;fill-opacity:1;stroke:none;" />
  <path
     id="path7"
     d="  M 330.54779,192.44658   C 330.54779,268.72992 268.72992,330.54779 192.44658,330.54779   C 116.20321,330.54779 54.345381,268.72992 54.345381,192.44658   C 54.345381,116.20321 116.20321,54.345381 192.44658,54.345381   C 268.72992,54.345381 330.54779,116.20321 330.54779,192.44658  "
     style="fill:none;stroke:#000000;stroke-width:9.5903616px;stroke-linecap:butt;stroke-linejoin:miter;stroke-miterlimit:10;stroke-dasharray:none;stroke-opacity:1;" />
  <path
     id="path9"
     d="  M 130.10924,264.37429   L 130.10924,264.37429   L 91.74779,187.6514   L 139.6996,187.6514   L 139.6996,125.31405   L 245.19357,125.31405   L 245.19357,187.6514   L 293.14538,187.6514   L 254.78393,264.37429   z "
     style="fill:#ffffff;fill-rule:evenodd;fill-opacity:1;stroke:none;" />
  <path
     id="path11"
     d="  M 130.10924,264.37429   L 130.10924,264.37429   L 91.74779,187.6514   L 139.6996,187.6514   L 139.6996,125.31405   L 245.19357,125.31405   L 245.19357,187.6514   L 293.14538,187.6514   L 254.78393,264.37429   z "
     style="fill:none;stroke:#000000;stroke-width:9.5903616px;stroke-linecap:butt;stroke-linejoin:miter;stroke-miterlimit:10;stroke-dasharray:none;stroke-opacity:1;" />
  <path
     id="path13"
     d="  M 158.56064,234.96385   L 158.56064,193.76526   L 174.06506,193.76526   C 176.82229,193.76526 178.9002,193.9251 180.33875,194.16486   C 182.3767,194.5245 184.05502,195.16385 185.41365,196.08293   C 186.81225,197.04197 187.89116,198.36064 188.73032,200.07891   C 189.56948,201.75723 189.96907,203.63534 189.96907,205.67329   C 189.96907,209.18976 188.8502,212.14678 186.65241,214.58433   C 184.41466,217.02188 180.37871,218.22068 174.54458,218.22068   L 163.99518,218.22068   L 163.99518,234.96385   z  M 163.99518,213.34558   L 174.6245,213.34558   C 178.18092,213.34558 180.65843,212.70622 182.13695,211.38755   C 183.61546,210.06887 184.3747,208.23072 184.3747,205.87309   C 184.3747,204.15482 183.93514,202.6763 183.05602,201.43755   C 182.1769,200.19879 181.05803,199.3996 179.61948,199   C 178.7004,198.76024 177.02209,198.64036 174.54458,198.64036   L 163.99518,198.64036   z  M 192.40662,234.96385   L 208.23072,193.76526   L 214.10482,193.76526   L 230.96787,234.96385   L 224.73413,234.96385   L 219.93895,222.49638   L 202.71626,222.49638   L 198.2008,234.96385   z  M 204.2747,218.06084   L 218.26064,218.06084   L 213.94498,206.63233   C 212.6263,203.19578 211.66727,200.31867 211.02791,198.12088   C 210.50843,200.75823 209.74919,203.35562 208.79016,205.95301   z "
     style="fill:#000000;fill-rule:evenodd;fill-opacity:1;stroke:none;" />
</svg>
