<?xml version="1.0" encoding="UTF-8" standalone="no"?>
<svg
   xmlns:dc="http://purl.org/dc/elements/1.1/"
   xmlns:cc="http://creativecommons.org/ns#"
   xmlns:rdf="http://www.w3.org/1999/02/22-rdf-syntax-ns#"
   xmlns:svg="http://www.w3.org/2000/svg"
   xmlns="http://www.w3.org/2000/svg"
   id="svg11"
   height="65.639999mm"
   width="82.230003mm"
   version="1.0">
  <metadata
     id="metadata15">
    <rdf:RDF>
      <cc:Work
         rdf:about="">
        <dc:format>image/svg+xml</dc:format>
        <dc:type
           rdf:resource="http://purl.org/dc/dcmitype/StillImage" />
      </cc:Work>
    </rdf:RDF>
  </metadata>
  <defs
     id="defs3">
    <pattern
       y="0"
       x="0"
       height="6"
       width="6"
       patternUnits="userSpaceOnUse"
       id="EMFhbasepattern" />
  </defs>
  <path
     id="path5"
     d="  M 93.026505,193.40562   L 93.026505,193.40562   L 54.665059,116.68273   L 102.61687,116.68273   L 102.61687,54.345381   L 208.11084,54.345381   L 208.11084,116.68273   L 256.06265,116.68273   L 217.7012,193.40562   z "
     style="fill:#ffff80;fill-rule:evenodd;fill-opacity:1;stroke:none;" />
  <path
     id="path7"
     d="  M 93.026505,193.40562   L 93.026505,193.40562   L 54.665059,116.68273   L 102.61687,116.68273   L 102.61687,54.345381   L 208.11084,54.345381   L 208.11084,116.68273   L 256.06265,116.68273   L 217.7012,193.40562   z "
     style="fill:none;stroke:#000000;stroke-width:9.5903616px;stroke-linecap:butt;stroke-linejoin:miter;stroke-miterlimit:10;stroke-dasharray:none;stroke-opacity:1;" />
  <path
     id="path9"
     d="  M 121.47791,163.99518   L 121.47791,122.79658   L 136.98233,122.79658   C 139.73956,122.79658 141.81747,122.95642 143.25602,123.19618   C 145.29397,123.55582 146.97229,124.19518 148.33092,125.11426   C 149.72952,126.07329 150.80843,127.39197 151.64759,129.11024   C 152.48674,130.78855 152.88634,132.66666 152.88634,134.70462   C 152.88634,138.22108 151.76747,141.17811 149.56968,143.61566   C 147.33193,146.05321 143.29598,147.25201 137.46185,147.25201   L 126.91245,147.25201   L 126.91245,163.99518   z  M 126.91245,142.37691   L 137.54177,142.37691   C 141.09819,142.37691 143.5757,141.73755 145.05421,140.41887   C 146.53273,139.1002 147.29197,137.26205 147.29197,134.90442   C 147.29197,133.18614 146.85241,131.70763 145.97329,130.46887   C 145.09417,129.23012 143.9753,128.43092 142.53674,128.03132   C 141.61767,127.79156 139.93936,127.67168 137.46185,127.67168   L 126.91245,127.67168   z  M 155.32389,163.99518   L 171.14799,122.79658   L 177.02209,122.79658   L 193.88514,163.99518   L 187.6514,163.99518   L 182.85622,151.52771   L 165.63353,151.52771   L 161.11807,163.99518   z  M 167.19197,147.09217   L 181.17791,147.09217   L 176.86225,135.66365   C 175.54357,132.22711 174.58454,129.35 173.94518,127.15221   C 173.4257,129.78956 172.66646,132.38695 171.70743,134.98434   z "
     style="fill:#000000;fill-rule:evenodd;fill-opacity:1;stroke:none;" />
</svg>
