<?xml version="1.0" encoding="UTF-8" standalone="no"?>
<svg
   xmlns:dc="http://purl.org/dc/elements/1.1/"
   xmlns:cc="http://creativecommons.org/ns#"
   xmlns:rdf="http://www.w3.org/1999/02/22-rdf-syntax-ns#"
   xmlns:svg="http://www.w3.org/2000/svg"
   xmlns="http://www.w3.org/2000/svg"
   id="svg15"
   height="116.73mm"
   width="116.73mm"
   version="1.0">
  <metadata
     id="metadata19">
    <rdf:RDF>
      <cc:Work
         rdf:about="">
        <dc:format>image/svg+xml</dc:format>
        <dc:type
           rdf:resource="http://purl.org/dc/dcmitype/StillImage" />
      </cc:Work>
    </rdf:RDF>
  </metadata>
  <defs
     id="defs3">
    <pattern
       y="0"
       x="0"
       height="6"
       width="6"
       patternUnits="userSpaceOnUse"
       id="EMFhbasepattern" />
  </defs>
  <path
     id="path5"
     d="  M 220.57831,386.49156   L 220.57831,386.49156   L 386.49156,220.57831   L 220.57831,54.665059   L 54.665059,220.57831   z "
     style="fill:#ff8080;fill-rule:evenodd;fill-opacity:1;stroke:none;" />
  <path
     id="path7"
     d="  M 220.57831,386.49156   L 220.57831,386.49156   L 386.49156,220.57831   L 220.57831,54.665059   L 54.665059,220.57831   z "
     style="fill:none;stroke:#000000;stroke-width:9.5903616px;stroke-linecap:butt;stroke-linejoin:miter;stroke-miterlimit:10;stroke-dasharray:none;stroke-opacity:1;" />
  <path
     id="path9"
     d="  M 158.24096,292.50602   L 158.24096,292.50602   L 119.87952,215.78313   L 167.83132,215.78313   L 167.83132,153.44578   L 273.3253,153.44578   L 273.3253,215.78313   L 321.2771,215.78313   L 282.91566,292.50602   z "
     style="fill:#ffffff;fill-rule:evenodd;fill-opacity:1;stroke:none;" />
  <path
     id="path11"
     d="  M 158.24096,292.50602   L 158.24096,292.50602   L 119.87952,215.78313   L 167.83132,215.78313   L 167.83132,153.44578   L 273.3253,153.44578   L 273.3253,215.78313   L 321.2771,215.78313   L 282.91566,292.50602   z "
     style="fill:none;stroke:#000000;stroke-width:9.5903616px;stroke-linecap:butt;stroke-linejoin:miter;stroke-miterlimit:10;stroke-dasharray:none;stroke-opacity:1;" />
  <path
     id="path13"
     d="  M 186.69237,263.09558   L 186.69237,221.89698   L 202.19678,221.89698   C 204.95401,221.89698 207.03192,222.05682 208.47048,222.29658   C 210.50843,222.65622 212.18674,223.29558 213.54538,224.21466   C 214.94397,225.17369 216.02289,226.49237 216.86205,228.21064   C 217.7012,229.88895 218.1008,231.76706 218.1008,233.80502   C 218.1008,237.32148 216.98192,240.27851 214.78413,242.71606   C 212.54638,245.15361 208.51044,246.35241 202.6763,246.35241   L 192.1269,246.35241   L 192.1269,263.09558   z  M 192.1269,241.47731   L 202.75622,241.47731   C 206.31265,241.47731 208.79016,240.83795 210.26867,239.51927   C 211.74719,238.2006 212.50642,236.36245 212.50642,234.00482   C 212.50642,232.28654 212.06686,230.80803 211.18775,229.56927   C 210.30863,228.33052 209.18976,227.53132 207.7512,227.13172   C 206.83213,226.89196 205.15381,226.77209 202.6763,226.77209   L 192.1269,226.77209   z  M 220.53835,263.09558   L 236.36245,221.89698   L 242.23654,221.89698   L 259.09959,263.09558   L 252.86586,263.09558   L 248.07068,250.62811   L 230.84799,250.62811   L 226.33253,263.09558   z  M 232.40642,246.19257   L 246.39237,246.19257   L 242.0767,234.76405   C 240.75803,231.32751 239.79899,228.4504 239.15964,226.25261   C 238.64016,228.88996 237.88092,231.48735 236.92188,234.08474   z "
     style="fill:#000000;fill-rule:evenodd;fill-opacity:1;stroke:none;" />
</svg>
