<?xml version="1.0" encoding="UTF-8" standalone="no"?>
<svg
   xmlns:dc="http://purl.org/dc/elements/1.1/"
   xmlns:cc="http://creativecommons.org/ns#"
   xmlns:rdf="http://www.w3.org/1999/02/22-rdf-syntax-ns#"
   xmlns:svg="http://www.w3.org/2000/svg"
   xmlns="http://www.w3.org/2000/svg"
   id="svg11"
   height="95.75mm"
   width="95.75mm"
   version="1.0">
  <metadata
     id="metadata15">
    <rdf:RDF>
      <cc:Work
         rdf:about="">
        <dc:format>image/svg+xml</dc:format>
        <dc:type
           rdf:resource="http://purl.org/dc/dcmitype/StillImage" />
      </cc:Work>
    </rdf:RDF>
  </metadata>
  <defs
     id="defs3">
    <pattern
       y="0"
       x="0"
       height="6"
       width="6"
       patternUnits="userSpaceOnUse"
       id="EMFhbasepattern" />
  </defs>
  <path
     id="path5"
     d="  M 54.345381,54.345381   L 54.345381,307.53092   L 307.53092,307.53092   L 307.53092,54.345381   L 54.345381,54.345381   z "
     style="fill:#aaffaa;fill-rule:evenodd;fill-opacity:1;stroke:none;" />
  <path
     id="path7"
     d="  M 54.345381,54.345381   L 307.53092,54.345381   L 307.53092,307.53092   L 54.345381,307.53092   z "
     style="fill:none;stroke:#000000;stroke-width:9.5903616px;stroke-linecap:butt;stroke-linejoin:miter;stroke-miterlimit:10;stroke-dasharray:none;stroke-opacity:1;" />
  <path
     id="path9"
     d="  M 105.97349,216.18273   L 105.97349,120.07932   L 142.21707,120.07932   C 148.61064,120.07932 153.48574,120.39899 156.84237,120.99839   C 161.55763,121.79759 165.51365,123.2761 168.71044,125.47389   C 171.90723,127.71164 174.46466,130.78855 176.42269,134.78454   C 178.34076,138.74056 179.33976,143.13614 179.33976,147.89136   C 179.33976,156.04317 176.74237,162.95622 171.50763,168.63052   C 166.31285,174.30482 156.92229,177.10201 143.33594,177.10201   L 118.68072,177.10201   L 118.68072,216.18273   z  M 118.68072,165.79337   L 143.53574,165.79337   C 151.72751,165.79337 157.56164,164.23494 161.03815,161.19799   C 164.4747,158.12108 166.19297,153.84538 166.19297,148.251   C 166.19297,144.25502 165.19397,140.81847 163.15602,137.94136   C 161.11807,135.10421 158.44076,133.18614 155.12409,132.26707   C 153.00622,131.70763 149.0502,131.42791 143.25602,131.42791   L 118.68072,131.42791   z  M 264.09457,182.49658   L 276.8018,185.69337   C 274.16445,196.16285 269.32931,204.11486 262.41626,209.58935   C 255.50321,215.10381 247.03172,217.82108 237.0018,217.82108   C 226.65221,217.82108 218.22068,215.74317 211.74719,211.50743   C 205.23373,207.27168 200.31867,201.19779 196.92209,193.16586   C 193.5255,185.17389 191.84719,176.58253 191.84719,167.43172   C 191.84719,157.4018 193.76526,148.69056 197.56144,141.21807   C 201.39759,133.78554 206.83213,128.11124 213.90502,124.23514   C 220.97791,120.39899 228.73012,118.44096 237.2016,118.44096   C 246.83192,118.44096 254.90381,120.87851 261.45723,125.79357   C 268.01064,130.66867 272.60602,137.58172 275.16345,146.45281   L 262.65602,149.36988   C 260.41827,142.37691 257.18152,137.30201 252.94578,134.10522   C 248.71004,130.90843 243.35542,129.31004 236.96184,129.31004   C 229.56927,129.31004 223.3755,131.10823 218.42048,134.6247   C 213.46546,138.18112 209.98895,142.93634 207.951,148.89036   C 205.95301,154.84438 204.95401,160.99819 204.95401,167.3518   C 204.95401,175.54357 206.15281,182.65642 208.51044,188.77028   C 210.90803,194.84417 214.62429,199.3996 219.65923,202.43654   C 224.65421,205.43353 230.12871,206.95201 235.96285,206.95201   C 243.0757,206.95201 249.10963,204.91405 254.06465,200.79819   C 259.01967,196.68233 262.33634,190.56847 264.09457,182.49658   z "
     style="fill:#000000;fill-rule:evenodd;fill-opacity:1;stroke:none;" />
</svg>
