<?xml version="1.0" encoding="UTF-8" standalone="no"?>
<svg
   xmlns:dc="http://purl.org/dc/elements/1.1/"
   xmlns:cc="http://creativecommons.org/ns#"
   xmlns:rdf="http://www.w3.org/1999/02/22-rdf-syntax-ns#"
   xmlns:svg="http://www.w3.org/2000/svg"
   xmlns="http://www.w3.org/2000/svg"
   id="svg17"
   height="116.73mm"
   width="116.73mm"
   version="1.0">
  <metadata
     id="metadata21">
    <rdf:RDF>
      <cc:Work
         rdf:about="">
        <dc:format>image/svg+xml</dc:format>
        <dc:type
           rdf:resource="http://purl.org/dc/dcmitype/StillImage" />
      </cc:Work>
    </rdf:RDF>
  </metadata>
  <defs
     id="defs3">
    <pattern
       y="0"
       x="0"
       height="6"
       width="6"
       patternUnits="userSpaceOnUse"
       id="EMFhbasepattern" />
  </defs>
  <path
     id="path5"
     d="  M 220.57831,386.49156   L 220.57831,386.49156   L 386.49156,220.57831   L 220.57831,54.665059   L 54.665059,220.57831   L 220.57831,386.49156   z "
     style="fill:#ff8080;fill-rule:evenodd;fill-opacity:1;stroke:none;" />
  <path
     id="path7"
     d="  M 220.57831,386.49156   L 220.57831,386.49156   L 386.49156,220.57831   L 220.57831,54.665059   L 54.665059,220.57831   L 220.57831,386.49156  "
     style="fill:none;stroke:#000000;stroke-width:9.5903616px;stroke-linecap:butt;stroke-linejoin:miter;stroke-miterlimit:10;stroke-dasharray:none;stroke-opacity:1;" />
  <path
     id="path9"
     d="  M 191.80723,278.12048   L 191.80723,151.52771   C 191.80723,127.55181 249.34939,127.55181 249.34939,151.52771   L 249.34939,278.12048  "
     style="fill:none;stroke:#000000;stroke-width:9.5903616px;stroke-linecap:butt;stroke-linejoin:miter;stroke-miterlimit:10;stroke-dasharray:none;stroke-opacity:1;" />
  <path
     id="path11"
     d="  M 209.70923,191.16787   L 209.70923,149.96927   L 225.21365,149.96927   C 227.97088,149.96927 230.04879,150.12911 231.48735,150.36887   C 233.5253,150.72851 235.20361,151.36787 236.56225,152.28695   C 237.96084,153.24598 239.03976,154.56466 239.87891,156.28293   C 240.71807,157.96124 241.11767,159.83936 241.11767,161.87731   C 241.11767,165.39377 239.99879,168.3508 237.801,170.78835   C 235.56325,173.2259 231.52731,174.4247 225.69317,174.4247   L 215.14377,174.4247   L 215.14377,191.16787   z  M 215.14377,169.5496   L 225.77309,169.5496   C 229.32951,169.5496 231.80702,168.91024 233.28554,167.59156   C 234.76405,166.27289 235.52329,164.43474 235.52329,162.07711   C 235.52329,160.35883 235.08373,158.88032 234.20462,157.64156   C 233.3255,156.40281 232.20662,155.60361 230.76807,155.20401   C 229.84899,154.96425 228.17068,154.84438 225.69317,154.84438   L 215.14377,154.84438   z "
     style="fill:#000000;fill-rule:evenodd;fill-opacity:1;stroke:none;" />
  <path
     id="path13"
     d="  M 102.61687,268.53012   C 124.6747,201.39759 316.48192,201.39759 338.53975,268.53012   L 220.57831,386.49156   L 102.61687,268.53012   z "
     style="fill:#ff8080;fill-rule:evenodd;fill-opacity:1;stroke:none;" />
  <path
     id="path15"
     d="  M 102.61687,268.53012   C 124.6747,201.39759 316.48192,201.39759 338.53975,268.53012   L 220.57831,386.49156   L 102.61687,268.53012  "
     style="fill:none;stroke:#000000;stroke-width:9.5903616px;stroke-linecap:butt;stroke-linejoin:miter;stroke-miterlimit:10;stroke-dasharray:none;stroke-opacity:1;" />
</svg>
