<?xml version="1.0" encoding="UTF-8" standalone="no"?>
<svg
   xmlns:dc="http://purl.org/dc/elements/1.1/"
   xmlns:cc="http://creativecommons.org/ns#"
   xmlns:rdf="http://www.w3.org/1999/02/22-rdf-syntax-ns#"
   xmlns:svg="http://www.w3.org/2000/svg"
   xmlns="http://www.w3.org/2000/svg"
   id="svg19"
   height="167.14mm"
   width="133.31mm"
   version="1.0">
  <metadata
     id="metadata23">
    <rdf:RDF>
      <cc:Work
         rdf:about="">
        <dc:format>image/svg+xml</dc:format>
        <dc:type
           rdf:resource="http://purl.org/dc/dcmitype/StillImage" />
      </cc:Work>
    </rdf:RDF>
  </metadata>
  <defs
     id="defs3">
    <pattern
       y="0"
       x="0"
       height="6"
       width="6"
       patternUnits="userSpaceOnUse"
       id="EMFhbasepattern" />
  </defs>
  <path
     id="path5"
     d="  M 170.38875,390.32771   C 170.38875,500.61686 333.42489,500.61686 333.42489,390.32771   C 443.71405,390.32771 443.71405,227.29156 333.42489,227.29156   C 333.42489,117.00241 170.38875,117.00241 170.38875,227.29156   C 60.099598,227.29156 60.099598,390.32771 170.38875,390.32771   z "
     style="fill:#ffff80;fill-rule:evenodd;fill-opacity:1;stroke:none;" />
  <path
     id="path7"
     d="  M 170.38875,390.32771   C 170.38875,500.61686 333.42489,500.61686 333.42489,390.32771   C 443.71405,390.32771 443.71405,227.29156 333.42489,227.29156   C 333.42489,117.00241 170.38875,117.00241 170.38875,227.29156   C 60.099598,227.29156 60.099598,390.32771 170.38875,390.32771  "
     style="fill:none;stroke:#000000;stroke-width:9.5903616px;stroke-linecap:butt;stroke-linejoin:miter;stroke-miterlimit:10;stroke-dasharray:none;stroke-opacity:1;" />
  <path
     id="path9"
     d="  M 251.90682,419.09879   L 251.90682,419.09879   L 175.18393,337.58072   L 328.62971,337.58072   z "
     style="fill:#000000;fill-rule:evenodd;fill-opacity:1;stroke:none;" />
  <path
     id="path11"
     d="  M 251.90682,419.09879   L 251.90682,419.09879   L 175.18393,337.58072   L 328.62971,337.58072   z "
     style="fill:none;stroke:#000000;stroke-width:0.95903611px;stroke-linecap:butt;stroke-linejoin:miter;stroke-miterlimit:10;stroke-dasharray:none;stroke-opacity:1;" />
  <path
     id="path13"
     d="  M 246.15261,392.24578   L 150.24899,292.50602  "
     style="fill:none;stroke:#000000;stroke-width:28.771084px;stroke-linecap:butt;stroke-linejoin:miter;stroke-miterlimit:10;stroke-dasharray:none;stroke-opacity:1;" />
  <path
     id="path15"
     d="  M 257.66104,392.24578   L 353.56465,292.50602  "
     style="fill:none;stroke:#000000;stroke-width:28.771084px;stroke-linecap:butt;stroke-linejoin:miter;stroke-miterlimit:10;stroke-dasharray:none;stroke-opacity:1;" />
  <path
     id="path17"
     d="  M 251.90682,385.53252   L 251.90682,246.47229  "
     style="fill:none;stroke:#000000;stroke-width:47.951805px;stroke-linecap:butt;stroke-linejoin:miter;stroke-miterlimit:10;stroke-dasharray:none;stroke-opacity:1;" />
</svg>
