<?xml version="1.0" encoding="UTF-8" standalone="no"?>
<svg
   xmlns:dc="http://purl.org/dc/elements/1.1/"
   xmlns:cc="http://creativecommons.org/ns#"
   xmlns:rdf="http://www.w3.org/1999/02/22-rdf-syntax-ns#"
   xmlns:svg="http://www.w3.org/2000/svg"
   xmlns="http://www.w3.org/2000/svg"
   id="svg11"
   height="107.94mm"
   width="95.75mm"
   version="1.0">
  <metadata
     id="metadata15">
    <rdf:RDF>
      <cc:Work
         rdf:about="">
        <dc:format>image/svg+xml</dc:format>
        <dc:type
           rdf:resource="http://purl.org/dc/dcmitype/StillImage" />
      </cc:Work>
    </rdf:RDF>
  </metadata>
  <defs
     id="defs3">
    <pattern
       y="0"
       x="0"
       height="6"
       width="6"
       patternUnits="userSpaceOnUse"
       id="EMFhbasepattern" />
  </defs>
  <path
     id="path5"
     d="  M 54.345381,353.56465   L 54.345381,171.34779   L 180.93815,54.345381   L 307.53092,171.34779   L 307.53092,353.56465   z "
     style="fill:#ff8080;fill-rule:evenodd;fill-opacity:1;stroke:none;" />
  <path
     id="path7"
     d="  M 54.345381,353.56465   L 54.345381,171.34779   L 180.93815,54.345381   L 307.53092,171.34779   L 307.53092,353.56465  "
     style="fill:none;stroke:#000000;stroke-width:9.5903616px;stroke-linecap:butt;stroke-linejoin:miter;stroke-miterlimit:10;stroke-dasharray:none;stroke-opacity:1;" />
  <path
     id="path9"
     d="  M 90.509035,261.01767   L 90.509035,199.23976   L 102.81667,199.23976   L 117.44197,242.95582   C 118.76064,247.03172 119.75964,250.10863 120.39899,252.10662   C 121.07831,249.86887 122.19719,246.55221 123.6757,242.19658   L 138.46084,199.23976   L 149.4498,199.23976   L 149.4498,261.01767   L 141.57771,261.01767   L 141.57771,209.30964   L 123.63574,261.01767   L 116.24317,261.01767   L 98.381123,208.43052   L 98.381123,261.01767   z  M 206.75221,239.35943   L 214.90401,241.39739   C 213.18574,248.1506 210.10883,253.26546 205.67329,256.78192   C 201.19779,260.29839 195.76325,262.05662 189.32972,262.05662   C 182.65642,262.05662 177.26184,260.69799 173.06606,258.02068   C 168.91024,255.30341 165.75341,251.34739 163.55562,246.23253   C 161.39779,241.07771 160.27891,235.56325 160.27891,229.64919   C 160.27891,223.21566 161.51767,217.62128 163.99518,212.8261   C 166.43273,208.03092 169.94919,204.39458 174.46466,201.91707   C 179.02008,199.3996 184.01506,198.16084 189.4496,198.16084   C 195.64337,198.16084 200.83815,199.75923 205.03393,202.91606   C 209.26968,206.03293 212.18674,210.46847 213.86506,216.18273   L 205.79317,218.06084   C 204.39458,213.58534 202.31666,210.30863 199.55943,208.23072   C 196.84217,206.19277 193.40562,205.15381 189.28976,205.15381   C 184.53454,205.15381 180.57851,206.31265 177.38172,208.59036   C 174.18494,210.86807 171.94719,213.90502 170.66847,217.74116   C 169.3498,221.57731 168.71044,225.53333 168.71044,229.60923   C 168.71044,234.88393 169.46968,239.43935 171.02811,243.39538   C 172.54658,247.31144 174.94417,250.22851 178.18092,252.14658   C 181.37771,254.10461 184.89417,255.06365 188.6504,255.06365   C 193.24578,255.06365 197.12188,253.74498 200.27871,251.10763   C 203.4755,248.47028 205.63333,244.55421 206.75221,239.35943   z  M 224.73413,261.01767   L 224.73413,199.23976   L 237.04176,199.23976   L 251.66706,242.95582   C 253.0257,247.03172 253.98474,250.10863 254.62409,252.10662   C 255.30341,249.86887 256.42229,246.55221 257.9008,242.19658   L 272.68594,199.23976   L 283.6749,199.23976   L 283.6749,261.01767   L 275.80281,261.01767   L 275.80281,209.30964   L 257.86084,261.01767   L 250.46827,261.01767   L 232.60622,208.43052   L 232.60622,261.01767   z "
     style="fill:#000000;fill-rule:evenodd;fill-opacity:1;stroke:none;" />
</svg>
