<?xml version="1.0" encoding="UTF-8" standalone="no"?>
<svg
   xmlns:dc="http://purl.org/dc/elements/1.1/"
   xmlns:cc="http://creativecommons.org/ns#"
   xmlns:rdf="http://www.w3.org/1999/02/22-rdf-syntax-ns#"
   xmlns:svg="http://www.w3.org/2000/svg"
   xmlns="http://www.w3.org/2000/svg"
   id="svg11"
   height="130.27mm"
   width="130.27mm"
   version="1.0">
  <metadata
     id="metadata15">
    <rdf:RDF>
      <cc:Work
         rdf:about="">
        <dc:format>image/svg+xml</dc:format>
        <dc:type
           rdf:resource="http://purl.org/dc/dcmitype/StillImage" />
      </cc:Work>
    </rdf:RDF>
  </metadata>
  <defs
     id="defs3">
    <pattern
       y="0"
       x="0"
       height="6"
       width="6"
       patternUnits="userSpaceOnUse"
       id="EMFhbasepattern" />
  </defs>
  <path
     id="path5"
     d="  M 164.63454,327.67068   C 164.63454,437.95983 327.67068,437.95983 327.67068,327.67068   C 437.95983,327.67068 437.95983,164.63454 327.67068,164.63454   C 327.67068,54.345381 164.63454,54.345381 164.63454,164.63454   C 54.345381,164.63454 54.345381,327.67068 164.63454,327.67068   z "
     style="fill:#ffff80;fill-rule:evenodd;fill-opacity:1;stroke:none;" />
  <path
     id="path7"
     d="  M 164.63454,327.67068   C 164.63454,437.95983 327.67068,437.95983 327.67068,327.67068   C 437.95983,327.67068 437.95983,164.63454 327.67068,164.63454   C 327.67068,54.345381 164.63454,54.345381 164.63454,164.63454   C 54.345381,164.63454 54.345381,327.67068 164.63454,327.67068  "
     style="fill:none;stroke:#000000;stroke-width:9.5903616px;stroke-linecap:butt;stroke-linejoin:miter;stroke-miterlimit:10;stroke-dasharray:none;stroke-opacity:1;" />
  <path
     id="path9"
     d="  M 171.18795,281.39718   L 171.18795,185.29377   L 207.43152,185.29377   C 213.8251,185.29377 218.7002,185.61345 222.05682,186.21285   C 226.77209,187.01205 230.72811,188.49056 233.9249,190.68835   C 237.12168,192.9261 239.67911,196.00301 241.63715,199.99899   C 243.55522,203.95502 244.55421,208.3506 244.55421,213.10582   C 244.55421,221.25763 241.95682,228.17068 236.72208,233.84498   C 231.52731,239.51927 222.13674,242.31646 208.5504,242.31646   L 183.89518,242.31646   L 183.89518,281.39718   z  M 183.89518,231.00783   L 208.7502,231.00783   C 216.94196,231.00783 222.7761,229.44939 226.25261,226.41245   C 229.68915,223.33554 231.40743,219.05984 231.40743,213.46546   C 231.40743,209.46947 230.40843,206.03293 228.37048,203.15582   C 226.33253,200.31867 223.65522,198.4006 220.33855,197.48152   C 218.22068,196.92209 214.26466,196.64237 208.47048,196.64237   L 183.89518,196.64237   z  M 329.30903,247.71104   L 342.01626,250.90783   C 339.37891,261.37731 334.54377,269.32931 327.63072,274.80381   C 320.71767,280.31827 312.24618,283.03554 302.21626,283.03554   C 291.86666,283.03554 283.43514,280.95763 276.96164,276.72188   C 270.44819,272.48614 265.53313,266.41225 262.13654,258.38032   C 258.73996,250.38835 257.06164,241.79698 257.06164,232.64618   C 257.06164,222.61626 258.97972,213.90502 262.7759,206.43253   C 266.61204,199 272.04658,193.3257 279.11947,189.4496   C 286.19237,185.61345 293.94457,183.65542 302.41606,183.65542   C 312.04638,183.65542 320.11827,186.09297 326.67168,191.00803   C 333.2251,195.88313 337.82048,202.79618 340.37791,211.66727   L 327.87048,214.58433   C 325.63273,207.59136 322.39598,202.51646 318.16024,199.31968   C 313.92449,196.12289 308.56988,194.5245 302.1763,194.5245   C 294.78373,194.5245 288.58996,196.32269 283.63494,199.83915   C 278.67992,203.39558 275.20341,208.1508 273.16546,214.10482   C 271.16747,220.05883 270.16847,226.21265 270.16847,232.56626   C 270.16847,240.75803 271.36727,247.87088 273.7249,253.98474   C 276.12249,260.05863 279.83875,264.61405 284.87369,267.651   C 289.86867,270.64799 295.34317,272.16646 301.1773,272.16646   C 308.29016,272.16646 314.32409,270.12851 319.27911,266.01265   C 324.23413,261.89678 327.5508,255.78293 329.30903,247.71104   z "
     style="fill:#000000;fill-rule:evenodd;fill-opacity:1;stroke:none;" />
</svg>
