<?xml version="1.0" encoding="UTF-8" standalone="no"?>
<svg
   xmlns:dc="http://purl.org/dc/elements/1.1/"
   xmlns:cc="http://creativecommons.org/ns#"
   xmlns:rdf="http://www.w3.org/1999/02/22-rdf-syntax-ns#"
   xmlns:svg="http://www.w3.org/2000/svg"
   xmlns="http://www.w3.org/2000/svg"
   id="svg17"
   height="95.75mm"
   width="95.75mm"
   version="1.0">
  <metadata
     id="metadata21">
    <rdf:RDF>
      <cc:Work
         rdf:about="">
        <dc:format>image/svg+xml</dc:format>
        <dc:type
           rdf:resource="http://purl.org/dc/dcmitype/StillImage" />
      </cc:Work>
    </rdf:RDF>
  </metadata>
  <defs
     id="defs3">
    <pattern
       y="0"
       x="0"
       height="6"
       width="6"
       patternUnits="userSpaceOnUse"
       id="EMFhbasepattern" />
  </defs>
  <path
     id="path5"
     d="  M 54.345381,54.345381   L 54.345381,307.53092   L 307.53092,307.53092   L 307.53092,54.345381   L 54.345381,54.345381   z "
     style="fill:#aaffaa;fill-rule:evenodd;fill-opacity:1;stroke:none;" />
  <path
     id="path7"
     d="  M 54.345381,54.345381   L 307.53092,54.345381   L 307.53092,307.53092   L 54.345381,307.53092   z "
     style="fill:none;stroke:#000000;stroke-width:9.5903616px;stroke-linecap:butt;stroke-linejoin:miter;stroke-miterlimit:10;stroke-dasharray:none;stroke-opacity:1;" />
  <path
     id="path9"
     d="  M 152.16707,238.48032   L 152.16707,111.88755   C 152.16707,87.911645 209.70923,87.911645 209.70923,111.88755   L 209.70923,238.48032  "
     style="fill:none;stroke:#000000;stroke-width:9.5903616px;stroke-linecap:butt;stroke-linejoin:miter;stroke-miterlimit:10;stroke-dasharray:none;stroke-opacity:1;" />
  <path
     id="path11"
     d="  M 170.06907,151.52771   L 170.06907,110.32911   L 185.57349,110.32911   C 188.33072,110.32911 190.40863,110.48895 191.84719,110.72871   C 193.88514,111.08835 195.56345,111.72771 196.92209,112.64679   C 198.32068,113.60582 199.3996,114.9245 200.23875,116.64277   C 201.07791,118.32108 201.47751,120.1992 201.47751,122.23715   C 201.47751,125.75361 200.35863,128.71064 198.16084,131.14819   C 195.92309,133.58574 191.88715,134.78454 186.05301,134.78454   L 175.50361,134.78454   L 175.50361,151.52771   z  M 175.50361,129.90944   L 186.13293,129.90944   C 189.68935,129.90944 192.16686,129.27008 193.64538,127.9514   C 195.12389,126.63273 195.88313,124.79458 195.88313,122.43695   C 195.88313,120.71867 195.44357,119.24016 194.56446,118.0014   C 193.68534,116.76265 192.56646,115.96345 191.12791,115.56385   C 190.20883,115.32409 188.53052,115.20422 186.05301,115.20422   L 175.50361,115.20422   z "
     style="fill:#000000;fill-rule:evenodd;fill-opacity:1;stroke:none;" />
  <path
     id="path13"
     d="  M 56.263453,307.53092   C 85.034537,161.75743 276.84176,161.75743 305.61285,307.53092   z "
     style="fill:#aaffaa;fill-rule:evenodd;fill-opacity:1;stroke:none;" />
  <path
     id="path15"
     d="  M 56.263453,307.53092   C 85.034537,161.75743 276.84176,161.75743 305.61285,307.53092   z "
     style="fill:none;stroke:#000000;stroke-width:9.5903616px;stroke-linecap:butt;stroke-linejoin:miter;stroke-miterlimit:10;stroke-dasharray:none;stroke-opacity:1;" />
</svg>
