<?xml version="1.0" encoding="UTF-8" standalone="no"?>
<svg
   xmlns:dc="http://purl.org/dc/elements/1.1/"
   xmlns:cc="http://creativecommons.org/ns#"
   xmlns:rdf="http://www.w3.org/1999/02/22-rdf-syntax-ns#"
   xmlns:svg="http://www.w3.org/2000/svg"
   xmlns="http://www.w3.org/2000/svg"
   id="svg11"
   height="116.73mm"
   width="116.73mm"
   version="1.0">
  <metadata
     id="metadata15">
    <rdf:RDF>
      <cc:Work
         rdf:about="">
        <dc:format>image/svg+xml</dc:format>
        <dc:type
           rdf:resource="http://purl.org/dc/dcmitype/StillImage" />
      </cc:Work>
    </rdf:RDF>
  </metadata>
  <defs
     id="defs3">
    <pattern
       y="0"
       x="0"
       height="6"
       width="6"
       patternUnits="userSpaceOnUse"
       id="EMFhbasepattern" />
  </defs>
  <path
     id="path5"
     d="  M 220.57831,386.49156   L 220.57831,386.49156   L 386.49156,220.57831   L 220.57831,54.665059   L 54.665059,220.57831   z "
     style="fill:#ff8080;fill-rule:evenodd;fill-opacity:1;stroke:none;" />
  <path
     id="path7"
     d="  M 220.57831,386.49156   L 220.57831,386.49156   L 386.49156,220.57831   L 220.57831,54.665059   L 54.665059,220.57831   z "
     style="fill:none;stroke:#000000;stroke-width:9.5903616px;stroke-linecap:butt;stroke-linejoin:miter;stroke-miterlimit:10;stroke-dasharray:none;stroke-opacity:1;" />
  <path
     id="path9"
     d="  M 145.61365,255.82289   L 145.61365,159.71948   L 181.85723,159.71948   C 188.2508,159.71948 193.1259,160.03915 196.48253,160.63855   C 201.19779,161.43775 205.15381,162.91626 208.3506,165.11405   C 211.54739,167.3518 214.10482,170.42871 216.06285,174.4247   C 217.98092,178.38072 218.97992,182.7763 218.97992,187.53152   C 218.97992,195.68333 216.38253,202.59638 211.14779,208.27068   C 205.95301,213.94498 196.56245,216.74217 182.9761,216.74217   L 158.32088,216.74217   L 158.32088,255.82289   z  M 158.32088,205.43353   L 183.1759,205.43353   C 191.36767,205.43353 197.2018,203.8751 200.67831,200.83815   C 204.11486,197.76124 205.83313,193.48554 205.83313,187.89116   C 205.83313,183.89518 204.83413,180.45863 202.79618,177.58152   C 200.75823,174.74437 198.08092,172.8263 194.76425,171.90723   C 192.64638,171.34779 188.69036,171.06807 182.89618,171.06807   L 158.32088,171.06807   z  M 303.73473,222.13674   L 316.44196,225.33353   C 313.80461,235.80301 308.96947,243.75502 302.05642,249.22951   C 295.14337,254.74397 286.67188,257.46124 276.64196,257.46124   C 266.29237,257.46124 257.86084,255.38333 251.38735,251.14759   C 244.87389,246.91184 239.95883,240.83795 236.56225,232.80602   C 233.16566,224.81405 231.48735,216.22269 231.48735,207.07188   C 231.48735,197.04197 233.40542,188.33072 237.2016,180.85823   C 241.03775,173.4257 246.47229,167.7514 253.54518,163.8753   C 260.61807,160.03915 268.37028,158.08112 276.84176,158.08112   C 286.47208,158.08112 294.54397,160.51867 301.09739,165.43373   C 307.6508,170.30883 312.24618,177.22188 314.80361,186.09297   L 302.29618,189.01004   C 300.05843,182.01707 296.82168,176.94217 292.58594,173.74538   C 288.3502,170.54859 282.99558,168.9502 276.602,168.9502   C 269.20943,168.9502 263.01566,170.74839 258.06064,174.26486   C 253.10562,177.82128 249.62911,182.5765 247.59116,188.53052   C 245.59317,194.48454 244.59417,200.63835 244.59417,206.99196   C 244.59417,215.18373 245.79297,222.29658 248.1506,228.41044   C 250.54819,234.48433 254.26445,239.03976 259.29939,242.0767   C 264.29437,245.07369 269.76887,246.59217 275.60301,246.59217   C 282.71586,246.59217 288.7498,244.55421 293.70482,240.43835   C 298.65984,236.32249 301.9765,230.20863 303.73473,222.13674   z "
     style="fill:#000000;fill-rule:evenodd;fill-opacity:1;stroke:none;" />
</svg>
