<?xml version="1.0" encoding="UTF-8" standalone="no"?>
<svg
   xmlns:dc="http://purl.org/dc/elements/1.1/"
   xmlns:cc="http://creativecommons.org/ns#"
   xmlns:rdf="http://www.w3.org/1999/02/22-rdf-syntax-ns#"
   xmlns:svg="http://www.w3.org/2000/svg"
   xmlns="http://www.w3.org/2000/svg"
   id="svg11"
   height="101.85mm"
   width="101.85mm"
   version="1.0">
  <metadata
     id="metadata15">
    <rdf:RDF>
      <cc:Work
         rdf:about="">
        <dc:format>image/svg+xml</dc:format>
        <dc:type
           rdf:resource="http://purl.org/dc/dcmitype/StillImage" />
      </cc:Work>
    </rdf:RDF>
  </metadata>
  <defs
     id="defs3">
    <pattern
       y="0"
       x="0"
       height="6"
       width="6"
       patternUnits="userSpaceOnUse"
       id="EMFhbasepattern" />
  </defs>
  <path
     id="path5"
     d="  M 330.54779,192.44658   C 330.54779,268.72992 268.72992,330.54779 192.44658,330.54779   C 116.20321,330.54779 54.345381,268.72992 54.345381,192.44658   C 54.345381,116.20321 116.20321,54.345381 192.44658,54.345381   C 268.72992,54.345381 330.54779,116.20321 330.54779,192.44658   z "
     style="fill:#80e0ff;fill-rule:evenodd;fill-opacity:1;stroke:none;" />
  <path
     id="path7"
     d="  M 330.54779,192.44658   C 330.54779,268.72992 268.72992,330.54779 192.44658,330.54779   C 116.20321,330.54779 54.345381,268.72992 54.345381,192.44658   C 54.345381,116.20321 116.20321,54.345381 192.44658,54.345381   C 268.72992,54.345381 330.54779,116.20321 330.54779,192.44658  "
     style="fill:none;stroke:#000000;stroke-width:9.5903616px;stroke-linecap:butt;stroke-linejoin:miter;stroke-miterlimit:10;stroke-dasharray:none;stroke-opacity:1;" />
  <path
     id="path9"
     d="  M 117.48193,227.69116   L 117.48193,131.58775   L 153.7255,131.58775   C 160.11907,131.58775 164.99417,131.90743 168.3508,132.50683   C 173.06606,133.30602 177.02209,134.78454 180.21887,136.98233   C 183.41566,139.22008 185.97309,142.29699 187.93112,146.29297   C 189.84919,150.24899 190.84819,154.64458 190.84819,159.3998   C 190.84819,167.5516 188.2508,174.46466 183.01606,180.13895   C 177.82128,185.81325 168.43072,188.61044 154.84438,188.61044   L 130.18915,188.61044   L 130.18915,227.69116   z  M 130.18915,177.3018   L 155.04417,177.3018   C 163.23594,177.3018 169.07008,175.74337 172.54658,172.70642   C 175.98313,169.62952 177.7014,165.35381 177.7014,159.75944   C 177.7014,155.76345 176.70241,152.32691 174.66446,149.4498   C 172.6265,146.61265 169.94919,144.69458 166.63253,143.7755   C 164.51466,143.21606 160.55863,142.93634 154.76446,142.93634   L 130.18915,142.93634   z  M 275.60301,194.00502   L 288.31024,197.2018   C 285.67289,207.67128 280.83775,215.62329 273.92469,221.09779   C 267.01164,226.61225 258.54016,229.32951 248.51024,229.32951   C 238.16064,229.32951 229.72911,227.2516 223.25562,223.01586   C 216.74217,218.78012 211.82711,212.70622 208.43052,204.67429   C 205.03393,196.68233 203.35562,188.09096 203.35562,178.94016   C 203.35562,168.91024 205.27369,160.19899 209.06988,152.7265   C 212.90602,145.29397 218.34056,139.61968 225.41345,135.74357   C 232.48634,131.90743 240.23855,129.9494 248.71004,129.9494   C 258.34036,129.9494 266.41225,132.38695 272.96566,137.30201   C 279.51907,142.17711 284.11445,149.09016 286.67188,157.96124   L 274.16445,160.87831   C 271.9267,153.88534 268.68996,148.81044 264.45421,145.61365   C 260.21847,142.41687 254.86385,140.81847 248.47028,140.81847   C 241.07771,140.81847 234.88393,142.61666 229.92891,146.13313   C 224.97389,149.68956 221.49739,154.44478 219.45943,160.39879   C 217.46144,166.35281 216.46245,172.50662 216.46245,178.86024   C 216.46245,187.05201 217.66124,194.16486 220.01887,200.27871   C 222.41646,206.35261 226.13273,210.90803 231.16767,213.94498   C 236.16265,216.94196 241.63715,218.46044 247.47128,218.46044   C 254.58413,218.46044 260.61807,216.42249 265.57309,212.30662   C 270.52811,208.19076 273.84478,202.0769 275.60301,194.00502   z "
     style="fill:#000000;fill-rule:evenodd;fill-opacity:1;stroke:none;" />
</svg>
