<?xml version="1.0" encoding="UTF-8" standalone="no"?>
<svg
   xmlns:dc="http://purl.org/dc/elements/1.1/"
   xmlns:cc="http://creativecommons.org/ns#"
   xmlns:rdf="http://www.w3.org/1999/02/22-rdf-syntax-ns#"
   xmlns:svg="http://www.w3.org/2000/svg"
   xmlns="http://www.w3.org/2000/svg"
   id="svg9"
   height="112.9mm"
   width="112.9mm"
   version="1.0">
  <metadata
     id="metadata13">
    <rdf:RDF>
      <cc:Work
         rdf:about="">
        <dc:format>image/svg+xml</dc:format>
        <dc:type
           rdf:resource="http://purl.org/dc/dcmitype/StillImage" />
      </cc:Work>
    </rdf:RDF>
  </metadata>
  <defs
     id="defs3">
    <pattern
       y="0"
       x="0"
       height="6"
       width="6"
       patternUnits="userSpaceOnUse"
       id="EMFhbasepattern" />
  </defs>
  <path
     id="path5"
     d="  M 573.63894,493.41018   C 573.63894,519.76861 564.72693,541.93537 546.82736,559.87269   C 528.9278,577.77225 506.83657,586.72203 480.5159,586.72203   C 454.49734,586.72203 432.44387,577.69673 414.43102,559.64611   C 396.41817,541.5955 387.39286,519.50427 387.39286,493.41018   C 387.39286,467.05175 396.34265,444.80947 414.24221,426.75886   C 432.10401,408.70824 454.233,399.68294 480.5159,399.68294   C 506.57223,399.68294 528.6257,408.78377 546.63855,426.98543   C 564.6514,445.14934 573.63894,467.27833 573.63894,493.41018   z  M 566.46401,493.41018   C 566.46401,469.05318 558.19396,448.54799 541.72939,431.8946   C 525.22705,415.20344 504.83514,406.89563 480.5159,406.89563   C 456.23443,406.89563 435.84252,415.20344 419.34018,431.8946   C 402.87561,448.54799 394.60556,469.05318 394.60556,493.41018   C 394.60556,517.50284 402.91337,537.89475 419.529,554.54814   C 436.18239,571.20153 456.49877,579.5471 480.5159,579.5471   C 504.5708,579.5471 524.88718,571.20153 541.50281,554.54814   C 558.11844,537.89475 566.46401,517.50284 566.46401,493.41018   z  M 501.70083,224.65241   L 501.70083,338.28064   L 476.02213,306.06898   L 476.43752,399.30531   L 484.14113,399.68294   L 484.14113,329.82178   L 510.15969,359.39004   L 510.15969,224.65241   z "
     style="fill:#ff0000;fill-rule:nonzero;fill-opacity:1;stroke:none;" />
  <path
     id="path7"
     d="  M 449.73923,533.70308   L 449.73923,449.79416   L 481.38445,449.79416   C 486.97334,449.79416 491.24054,450.0585 494.14827,450.58718   C 498.26442,451.26691 501.73859,452.5886 504.53304,454.51451   C 507.28972,456.44041 509.55549,459.15933 511.25482,462.63351   C 512.95414,466.10768 513.78492,469.92173 513.78492,474.07563   C 513.78492,481.2128 511.51915,487.25485 506.98762,492.16401   C 502.45609,497.11093 494.2238,499.60328 482.36628,499.60328   L 460.84149,499.60328   L 460.84149,533.70308   z  M 460.84149,489.70943   L 482.5551,489.70943   C 489.73003,489.70943 494.828,488.34997 497.81126,485.66881   C 500.83229,483.02541 502.3428,479.24913 502.3428,474.4155   C 502.3428,470.90356 501.47425,467.88253 499.6994,465.39019   C 497.92455,462.89785 495.58326,461.23628 492.67552,460.44327   C 490.78738,459.95235 487.35097,459.68801 482.32852,459.68801   L 460.84149,459.68801   z "
     style="fill:#ff0000;fill-rule:nonzero;fill-opacity:1;stroke:#ff0000;stroke-width:1.0573581px;stroke-linecap:butt;stroke-linejoin:miter;stroke-miterlimit:282;stroke-dasharray:none;stroke-opacity:1;" />
</svg>
