<?xml version="1.0" encoding="UTF-8" standalone="no"?>
<svg
   xmlns:dc="http://purl.org/dc/elements/1.1/"
   xmlns:cc="http://creativecommons.org/ns#"
   xmlns:rdf="http://www.w3.org/1999/02/22-rdf-syntax-ns#"
   xmlns:svg="http://www.w3.org/2000/svg"
   xmlns="http://www.w3.org/2000/svg"
   id="svg9"
   height="112.9mm"
   width="112.9mm"
   version="1.0">
  <metadata
     id="metadata13">
    <rdf:RDF>
      <cc:Work
         rdf:about="">
        <dc:format>image/svg+xml</dc:format>
        <dc:type
           rdf:resource="http://purl.org/dc/dcmitype/StillImage" />
      </cc:Work>
    </rdf:RDF>
  </metadata>
  <defs
     id="defs3">
    <pattern
       y="0"
       x="0"
       height="6"
       width="6"
       patternUnits="userSpaceOnUse"
       id="EMFhbasepattern" />
  </defs>
  <path
     id="path5"
     d="  M 331.54581,268.86233   C 331.54581,295.22953 322.63083,317.40367 304.72531,335.34696   C 286.81979,353.25248 264.72121,362.20524 238.39178,362.20524   C 212.36456,362.20524 190.30375,353.17693 172.28491,335.12031   C 154.26606,317.06369 145.23775,294.9651 145.23775,268.86233   C 145.23775,242.49513 154.19051,220.24545 172.09603,202.18882   C 189.96377,184.1322 212.10013,175.10389 238.39178,175.10389   C 264.45678,175.10389 286.51759,184.20775 304.53643,202.41548   C 322.55528,220.58542 331.54581,242.72178 331.54581,268.86233   z  M 324.3685,268.86233   C 324.3685,244.49723 316.09569,223.98521 299.62564,207.32627   C 283.11781,190.62956 262.71911,182.31899 238.39178,182.31899   C 214.10223,182.31899 193.70353,190.62956 177.1957,207.32627   C 160.72565,223.98521 152.45284,244.49723 152.45284,268.86233   C 152.45284,292.96301 160.76342,313.3617 177.38458,330.02063   C 194.04351,346.67957 214.36666,355.02792 238.39178,355.02792   C 262.45469,355.02792 282.77783,346.67957 299.39899,330.02063   C 316.02014,313.3617 324.3685,292.96301 324.3685,268.86233   z  M 259.58376,0.015110143   L 259.58376,113.68116   L 233.89652,81.458781   L 234.31204,174.72614   L 242.01822,175.10389   L 242.01822,105.21948   L 268.04544,134.79759   L 268.04544,0.015110143   L 259.58376,0.015110143   z "
     style="fill:#000000;fill-rule:nonzero;fill-opacity:1;stroke:none;" />
  <path
     id="path7"
     d="  M 207.60487,309.16864   L 207.60487,225.23179   L 239.26062,225.23179   C 244.85137,225.23179 249.11998,225.49622 252.02869,226.02508   C 256.1462,226.70503 259.62153,228.02717 262.41691,229.95371   C 265.17451,231.88026 267.44103,234.60008 269.14092,238.07541   C 270.84082,241.55075 271.67187,245.36606 271.67187,249.52135   C 271.67187,256.66089 269.40535,262.70495 264.87231,267.61574   C 260.33927,272.56432 252.10424,275.05749 240.24278,275.05749   L 218.71082,275.05749   L 218.71082,309.16864   L 207.60487,309.16864   z  M 218.71082,265.16035   L 240.43165,265.16035   C 247.60897,265.16035 252.70864,263.80043 255.6929,261.11838   C 258.71493,258.47411 260.22594,254.69657 260.22594,249.86133   C 260.22594,246.34822 259.35711,243.32619 257.58166,240.83302   C 255.80622,238.33984 253.46415,236.67773 250.55545,235.88444   C 248.66668,235.39336 245.22912,235.12894 240.205,235.12894   L 218.71082,235.12894   L 218.71082,265.16035   z "
     style="fill:#000000;fill-rule:nonzero;fill-opacity:1;stroke:#000000;stroke-width:1.0577101px;stroke-linecap:butt;stroke-linejoin:miter;stroke-miterlimit:112;stroke-dasharray:none;stroke-opacity:1;" />
</svg>
