<?xml version="1.0" encoding="UTF-8" standalone="no"?>
<svg
   xmlns:dc="http://purl.org/dc/elements/1.1/"
   xmlns:cc="http://creativecommons.org/ns#"
   xmlns:rdf="http://www.w3.org/1999/02/22-rdf-syntax-ns#"
   xmlns:svg="http://www.w3.org/2000/svg"
   xmlns="http://www.w3.org/2000/svg"
   id="svg15"
   height="95.75mm"
   width="95.75mm"
   version="1.0">
  <metadata
     id="metadata19">
    <rdf:RDF>
      <cc:Work
         rdf:about="">
        <dc:format>image/svg+xml</dc:format>
        <dc:type
           rdf:resource="http://purl.org/dc/dcmitype/StillImage" />
      </cc:Work>
    </rdf:RDF>
  </metadata>
  <defs
     id="defs3">
    <pattern
       y="0"
       x="0"
       height="6"
       width="6"
       patternUnits="userSpaceOnUse"
       id="EMFhbasepattern" />
  </defs>
  <path
     id="path5"
     d="  M 54.345381,54.345381   L 54.345381,307.53092   L 307.53092,307.53092   L 307.53092,54.345381   L 54.345381,54.345381   z "
     style="fill:#aaffaa;fill-rule:evenodd;fill-opacity:1;stroke:none;" />
  <path
     id="path7"
     d="  M 54.345381,54.345381   L 307.53092,54.345381   L 307.53092,307.53092   L 54.345381,307.53092   z "
     style="fill:none;stroke:#000000;stroke-width:9.5903616px;stroke-linecap:butt;stroke-linejoin:miter;stroke-miterlimit:10;stroke-dasharray:none;stroke-opacity:1;" />
  <path
     id="path9"
     d="  M 135.82349,203.4755   L 135.82349,141.69759   L 159.12008,141.69759   C 163.23594,141.69759 166.35281,141.89739 168.5506,142.25703   C 171.54759,142.7765 174.10502,143.73554 176.14297,145.17409   C 178.22088,146.57269 179.85923,148.57068 181.09799,151.12811   C 182.3767,153.68554 182.9761,156.48273 182.9761,159.55964   C 182.9761,164.79438 181.33775,169.26988 177.98112,172.90622   C 174.6245,176.54257 168.59056,178.34076 159.83936,178.34076   L 144.01526,178.34076   L 144.01526,203.4755   z  M 144.01526,171.06807   L 159.95923,171.06807   C 165.27389,171.06807 169.03012,170.06907 171.22791,168.11104   C 173.46566,166.15301 174.54458,163.39578 174.54458,159.7994   C 174.54458,157.24197 173.90522,155.00421 172.58654,153.16606   C 171.30783,151.32791 169.58956,150.12911 167.43172,149.52972   C 166.07309,149.17008 163.51566,148.97028 159.7994,148.97028   L 144.01526,148.97028   z  M 190.60843,183.61546   L 198.32068,182.93614   C 198.68032,186.05301 199.55943,188.57048 200.87811,190.56847   C 202.19678,192.5265 204.2747,194.1249 207.11184,195.36365   C 209.90903,196.56245 213.06586,197.2018 216.58233,197.2018   C 219.69919,197.2018 222.45642,196.72229 224.85401,195.80321   C 227.21164,194.88413 229.00984,193.60542 230.16867,192.00703   C 231.32751,190.36867 231.9269,188.61044 231.9269,186.69237   C 231.9269,184.77429 231.36747,183.05602 230.24859,181.61747   C 229.12972,180.17891 227.2516,178.94016 224.65421,177.98112   C 223.01586,177.34176 219.33956,176.34277 213.66526,174.94417   C 207.99096,173.58554 204.03494,172.30682 201.75723,171.10803   C 198.8002,169.5496 196.60241,167.63152 195.16385,165.35381   C 193.68534,163.0761 192.96606,160.47871 192.96606,157.64156   C 192.96606,154.5247 193.84518,151.64759 195.64337,148.93032   C 197.4016,146.21305 199.99899,144.13514 203.39558,142.73654   C 206.79217,141.33795 210.54839,140.61867 214.70421,140.61867   C 219.2996,140.61867 223.33554,141.37791 226.852,142.85642   C 230.32851,144.33494 233.04578,146.49277 234.92389,149.36988   C 236.802,152.20703 237.801,155.48373 237.96084,159.08012   L 230.08875,159.67952   C 229.68915,155.76345 228.2506,152.84638 225.81305,150.84839   C 223.41546,148.8504 219.81907,147.8514 215.06385,147.8514   C 210.10883,147.8514 206.51245,148.73052 204.23474,150.56867   C 201.99699,152.36687 200.83815,154.56466 200.83815,157.12209   C 200.83815,159.31988 201.67731,161.15803 203.2757,162.59658   C 204.83413,164.03514 208.95,165.51365 215.58333,166.99217   C 222.21666,168.51064 226.81204,169.82931 229.2496,170.94819   C 232.84598,172.58654 235.52329,174.70442 237.24156,177.22188   C 238.95984,179.77931 239.79899,182.69638 239.79899,186.01305   C 239.79899,189.32972 238.83996,192.40662 236.96184,195.32369   C 235.08373,198.24076 232.40642,200.47851 228.85,202.11686   C 225.33353,203.71526 221.37751,204.51445 216.94196,204.51445   C 211.38755,204.51445 206.67229,203.71526 202.91606,202.0769   C 199.11988,200.43855 196.16285,198.001 194.00502,194.72429   C 191.84719,191.44759 190.72831,187.77128 190.60843,183.61546   z "
     style="fill:#000000;fill-rule:evenodd;fill-opacity:1;stroke:none;" />
  <path
     id="path11"
     d="  M 54.345381,54.345381   L 54.345381,54.345381   L 89.829718,180.93815   L 54.345381,307.53092  "
     style="fill:none;stroke:#000000;stroke-width:9.5903616px;stroke-linecap:butt;stroke-linejoin:miter;stroke-miterlimit:10;stroke-dasharray:none;stroke-opacity:1;" />
  <path
     id="path13"
     d="  M 307.53092,54.345381   L 307.53092,54.345381   L 272.04658,180.93815   L 307.53092,307.53092  "
     style="fill:none;stroke:#000000;stroke-width:9.5903616px;stroke-linecap:butt;stroke-linejoin:miter;stroke-miterlimit:10;stroke-dasharray:none;stroke-opacity:1;" />
</svg>
