<?xml version="1.0" encoding="UTF-8" standalone="no"?>
<svg
   xmlns:dc="http://purl.org/dc/elements/1.1/"
   xmlns:cc="http://creativecommons.org/ns#"
   xmlns:rdf="http://www.w3.org/1999/02/22-rdf-syntax-ns#"
   xmlns:svg="http://www.w3.org/2000/svg"
   xmlns="http://www.w3.org/2000/svg"
   id="svg15"
   height="130.27mm"
   width="130.27mm"
   version="1.0">
  <metadata
     id="metadata19">
    <rdf:RDF>
      <cc:Work
         rdf:about="">
        <dc:format>image/svg+xml</dc:format>
        <dc:type
           rdf:resource="http://purl.org/dc/dcmitype/StillImage" />
      </cc:Work>
    </rdf:RDF>
  </metadata>
  <defs
     id="defs3">
    <pattern
       y="0"
       x="0"
       height="6"
       width="6"
       patternUnits="userSpaceOnUse"
       id="EMFhbasepattern" />
  </defs>
  <path
     id="path5"
     d="  M 164.63454,327.67068   C 164.63454,437.95983 327.67068,437.95983 327.67068,327.67068   C 437.95983,327.67068 437.95983,164.63454 327.67068,164.63454   C 327.67068,54.345381 164.63454,54.345381 164.63454,164.63454   C 54.345381,164.63454 54.345381,327.67068 164.63454,327.67068   z "
     style="fill:#ffff80;fill-rule:evenodd;fill-opacity:1;stroke:none;" />
  <path
     id="path7"
     d="  M 164.63454,327.67068   C 164.63454,437.95983 327.67068,437.95983 327.67068,327.67068   C 437.95983,327.67068 437.95983,164.63454 327.67068,164.63454   C 327.67068,54.345381 164.63454,54.345381 164.63454,164.63454   C 54.345381,164.63454 54.345381,327.67068 164.63454,327.67068  "
     style="fill:none;stroke:#000000;stroke-width:9.5903616px;stroke-linecap:butt;stroke-linejoin:miter;stroke-miterlimit:10;stroke-dasharray:none;stroke-opacity:1;" />
  <path
     id="path9"
     d="  M 201.03795,268.68996   L 201.03795,206.91205   L 224.33453,206.91205   C 228.4504,206.91205 231.56727,207.11184 233.76506,207.47148   C 236.76204,207.99096 239.31947,208.95 241.35743,210.38855   C 243.43534,211.78715 245.07369,213.78514 246.31245,216.34257   C 247.59116,218.9 248.19056,221.69719 248.19056,224.77409   C 248.19056,230.00883 246.55221,234.48433 243.19558,238.12068   C 239.83895,241.75702 233.80502,243.55522 225.05381,243.55522   L 209.22972,243.55522   L 209.22972,268.68996   z  M 209.22972,236.28253   L 225.17369,236.28253   C 230.48835,236.28253 234.24457,235.28353 236.44237,233.3255   C 238.68012,231.36747 239.75903,228.61024 239.75903,225.01385   C 239.75903,222.45642 239.11968,220.21867 237.801,218.38052   C 236.52229,216.54237 234.80401,215.34357 232.64618,214.74417   C 231.28755,214.38454 228.73012,214.18474 225.01385,214.18474   L 209.22972,214.18474   z  M 255.82289,248.82992   L 263.53514,248.1506   C 263.89478,251.26747 264.77389,253.78494 266.09257,255.78293   C 267.41124,257.74096 269.48915,259.33935 272.3263,260.57811   C 275.12349,261.7769 278.28032,262.41626 281.79678,262.41626   C 284.91365,262.41626 287.67088,261.93674 290.06847,261.01767   C 292.4261,260.09859 294.22429,258.81988 295.38313,257.22148   C 296.54196,255.58313 297.14136,253.8249 297.14136,251.90682   C 297.14136,249.98875 296.58192,248.27048 295.46305,246.83192   C 294.34417,245.39337 292.46606,244.15461 289.86867,243.19558   C 288.23032,242.55622 284.55401,241.55723 278.87971,240.15863   C 273.20542,238.8 269.24939,237.52128 266.97168,236.32249   C 264.01465,234.76405 261.81686,232.84598 260.37831,230.56827   C 258.8998,228.29056 258.18052,225.69317 258.18052,222.85602   C 258.18052,219.73915 259.05963,216.86205 260.85783,214.14478   C 262.61606,211.42751 265.21345,209.3496 268.61004,207.951   C 272.00662,206.55241 275.76285,205.83313 279.91867,205.83313   C 284.51405,205.83313 288.55,206.59237 292.06646,208.07088   C 295.54297,209.54939 298.26024,211.70723 300.13835,214.58433   C 302.01646,217.42148 303.01546,220.69819 303.1753,224.29458   L 295.30321,224.89397   C 294.90361,220.97791 293.46506,218.06084 291.02751,216.06285   C 288.62992,214.06486 285.03353,213.06586 280.27831,213.06586   C 275.32329,213.06586 271.7269,213.94498 269.44919,215.78313   C 267.21144,217.58132 266.05261,219.77911 266.05261,222.33654   C 266.05261,224.53433 266.89176,226.37249 268.49016,227.81104   C 270.04859,229.2496 274.16445,230.72811 280.79779,232.20662   C 287.43112,233.7251 292.0265,235.04377 294.46405,236.16265   C 298.06044,237.801 300.73775,239.91887 302.45602,242.43634   C 304.17429,244.99377 305.01345,247.91084 305.01345,251.22751   C 305.01345,254.54417 304.05441,257.62108 302.1763,260.53815   C 300.29819,263.45522 297.62088,265.69297 294.06445,267.33132   C 290.54799,268.92971 286.59196,269.72891 282.15642,269.72891   C 276.602,269.72891 271.88674,268.92971 268.13052,267.29136   C 264.33433,265.65301 261.37731,263.21546 259.21947,259.93875   C 257.06164,256.66204 255.94277,252.98574 255.82289,248.82992   z "
     style="fill:#000000;fill-rule:evenodd;fill-opacity:1;stroke:none;" />
  <path
     id="path11"
     d="  M 102.29719,188.61044   L 102.29719,188.61044   L 140.65863,246.15261   L 102.29719,303.69477  "
     style="fill:none;stroke:#000000;stroke-width:9.5903616px;stroke-linecap:butt;stroke-linejoin:miter;stroke-miterlimit:10;stroke-dasharray:none;stroke-opacity:1;" />
  <path
     id="path13"
     d="  M 390.00803,188.61044   L 390.00803,188.61044   L 351.64658,246.15261   L 390.00803,303.69477  "
     style="fill:none;stroke:#000000;stroke-width:9.5903616px;stroke-linecap:butt;stroke-linejoin:miter;stroke-miterlimit:10;stroke-dasharray:none;stroke-opacity:1;" />
</svg>
