<?xml version="1.0" encoding="UTF-8" standalone="no"?>
<svg
   xmlns:dc="http://purl.org/dc/elements/1.1/"
   xmlns:cc="http://creativecommons.org/ns#"
   xmlns:rdf="http://www.w3.org/1999/02/22-rdf-syntax-ns#"
   xmlns:svg="http://www.w3.org/2000/svg"
   xmlns="http://www.w3.org/2000/svg"
   id="svg15"
   height="112.9mm"
   width="112.9mm"
   version="1.0">
  <metadata
     id="metadata19">
    <rdf:RDF>
      <cc:Work
         rdf:about="">
        <dc:format>image/svg+xml</dc:format>
        <dc:type
           rdf:resource="http://purl.org/dc/dcmitype/StillImage" />
      </cc:Work>
    </rdf:RDF>
  </metadata>
  <defs
     id="defs3">
    <pattern
       y="0"
       x="0"
       height="6"
       width="6"
       patternUnits="userSpaceOnUse"
       id="EMFhbasepattern" />
  </defs>
  <path
     id="path5"
     d="  M 1040.1485,1093.0681   L 1093.4443,1039.7723   L 1146.7402,1093.0681   L 1200.036,1039.7723   L 1253.3696,1093.0681   L 1306.6654,1039.7723   L 1359.9613,1093.0681  "
     style="fill:none;stroke:#000000;stroke-width:10.651613px;stroke-linecap:square;stroke-linejoin:miter;stroke-miterlimit:112;stroke-dasharray:none;stroke-opacity:1;" />
  <path
     id="path7"
     d="  M 1221.377,986.47647   L 1178.7328,986.47647   L 1148.591,956.2969   L 1148.591,913.65267   L 1178.7328,883.51087   L 1221.377,883.51087   L 1251.5188,913.65267   L 1251.5188,956.2969   L 1221.377,986.47647   z "
     style="fill:#000000;fill-rule:nonzero;fill-opacity:1;stroke:#000000;stroke-width:5.3258066px;stroke-linecap:butt;stroke-linejoin:miter;stroke-miterlimit:112;stroke-dasharray:none;stroke-opacity:1;" />
  <path
     id="path9"
     d="  M 1200.036,986.47647   L 1200.036,1039.7723  "
     style="fill:none;stroke:#000000;stroke-width:10.651613px;stroke-linecap:butt;stroke-linejoin:miter;stroke-miterlimit:112;stroke-dasharray:none;stroke-opacity:1;" />
  <path
     id="path11"
     d="  M 1066.8153,1066.4013   L 1040.1485,1039.7723   L 1040.1485,986.47647   L 1066.8153,986.47647   L 1066.8153,1029.0829   L 1084.9079,1047.2133   L 1066.8153,1066.4013   z "
     style="fill:#000000;fill-rule:nonzero;fill-opacity:1;stroke:#000000;stroke-width:5.3258066px;stroke-linecap:butt;stroke-linejoin:miter;stroke-miterlimit:112;stroke-dasharray:none;stroke-opacity:1;" />
  <path
     id="path13"
     d="  M 1333.2945,1066.4013   L 1359.9613,1039.7723   L 1359.9613,986.47647   L 1333.2945,986.47647   L 1333.2945,1029.0829   L 1315.1641,1047.2133   L 1333.2945,1066.4013   z "
     style="fill:#000000;fill-rule:nonzero;fill-opacity:1;stroke:#000000;stroke-width:5.3258066px;stroke-linecap:butt;stroke-linejoin:miter;stroke-miterlimit:112;stroke-dasharray:none;stroke-opacity:1;" />
</svg>
