<?xml version="1.0" encoding="UTF-8" standalone="no"?>
<svg
   xmlns:dc="http://purl.org/dc/elements/1.1/"
   xmlns:cc="http://creativecommons.org/ns#"
   xmlns:rdf="http://www.w3.org/1999/02/22-rdf-syntax-ns#"
   xmlns:svg="http://www.w3.org/2000/svg"
   xmlns="http://www.w3.org/2000/svg"
   id="svg13"
   height="89.669998mm"
   width="120.11mm"
   version="1.0">
  <metadata
     id="metadata17">
    <rdf:RDF>
      <cc:Work
         rdf:about="">
        <dc:format>image/svg+xml</dc:format>
        <dc:type
           rdf:resource="http://purl.org/dc/dcmitype/StillImage" />
      </cc:Work>
    </rdf:RDF>
  </metadata>
  <defs
     id="defs3">
    <pattern
       y="0"
       x="0"
       height="6"
       width="6"
       patternUnits="userSpaceOnUse"
       id="EMFhbasepattern" />
  </defs>
  <path
     id="path5"
     d="  M 54.345381,54.345381   L 54.345381,284.51405   L 399.59839,284.51405   L 399.59839,54.345381   L 54.345381,54.345381   z "
     style="fill:#80e0ff;fill-rule:evenodd;fill-opacity:1;stroke:none;" />
  <path
     id="path7"
     d="  M 54.345381,54.345381   L 399.59839,54.345381   L 399.59839,284.51405   L 54.345381,284.51405   z "
     style="fill:none;stroke:#000000;stroke-width:9.5903616px;stroke-linecap:butt;stroke-linejoin:miter;stroke-miterlimit:10;stroke-dasharray:none;stroke-opacity:1;" />
  <path
     id="path9"
     d="  M 181.85723,191.96707   L 181.85723,130.18915   L 205.15381,130.18915   C 209.26968,130.18915 212.38654,130.38895 214.58433,130.74859   C 217.58132,131.26807 220.13875,132.22711 222.1767,133.66566   C 224.25462,135.06426 225.89297,137.06225 227.13172,139.61968   C 228.41044,142.17711 229.00984,144.9743 229.00984,148.0512   C 229.00984,153.28594 227.37148,157.76144 224.01486,161.39779   C 220.65823,165.03413 214.62429,166.83233 205.87309,166.83233   L 190.04899,166.83233   L 190.04899,191.96707   z  M 190.04899,159.55964   L 205.99297,159.55964   C 211.30763,159.55964 215.06385,158.56064 217.26164,156.60261   C 219.49939,154.64458 220.57831,151.88735 220.57831,148.29096   C 220.57831,145.73353 219.93895,143.49578 218.62028,141.65763   C 217.34156,139.81948 215.62329,138.62068 213.46546,138.02128   C 212.10682,137.66164 209.54939,137.46185 205.83313,137.46185   L 190.04899,137.46185   z  M 236.64217,172.10703   L 244.35441,171.42771   C 244.71405,174.54458 245.59317,177.06205 246.91184,179.06004   C 248.23052,181.01807 250.30843,182.61646 253.14558,183.85522   C 255.94277,185.05401 259.09959,185.69337 262.61606,185.69337   C 265.73293,185.69337 268.49016,185.21385 270.88775,184.29478   C 273.24538,183.3757 275.04357,182.09699 276.20241,180.49859   C 277.36124,178.86024 277.96064,177.10201 277.96064,175.18393   C 277.96064,173.26586 277.4012,171.54759 276.28233,170.10903   C 275.16345,168.67048 273.28534,167.43172 270.68795,166.47269   C 269.04959,165.83333 265.37329,164.83433 259.69899,163.43574   C 254.0247,162.07711 250.06867,160.79839 247.79096,159.5996   C 244.83393,158.04116 242.63614,156.12309 241.19759,153.84538   C 239.71907,151.56767 238.9998,148.97028 238.9998,146.13313   C 238.9998,143.01626 239.87891,140.13915 241.6771,137.42189   C 243.43534,134.70462 246.03273,132.6267 249.42931,131.22811   C 252.8259,129.82952 256.58212,129.11024 260.73795,129.11024   C 265.33333,129.11024 269.36927,129.86948 272.88574,131.34799   C 276.36225,132.8265 279.07951,134.98434 280.95763,137.86144   C 282.83574,140.69859 283.83473,143.9753 283.99457,147.57168   L 276.12249,148.17108   C 275.72289,144.25502 274.28433,141.33795 271.84678,139.33996   C 269.44919,137.34197 265.85281,136.34297 261.09759,136.34297   C 256.14257,136.34297 252.54618,137.22209 250.26847,139.06024   C 248.03072,140.85843 246.87188,143.05622 246.87188,145.61365   C 246.87188,147.81144 247.71104,149.6496 249.30943,151.08815   C 250.86787,152.5267 254.98373,154.00522 261.61706,155.48373   C 268.2504,157.00221 272.84578,158.32088 275.28333,159.43976   C 278.87971,161.07811 281.55702,163.19598 283.2753,165.71345   C 284.99357,168.27088 285.83273,171.18795 285.83273,174.50462   C 285.83273,177.82128 284.87369,180.89819 282.99558,183.81526   C 281.11747,186.73233 278.44016,188.97008 274.88373,190.60843   C 271.36727,192.20682 267.41124,193.00602 262.9757,193.00602   C 257.42128,193.00602 252.70602,192.20682 248.9498,190.56847   C 245.15361,188.93012 242.19658,186.49257 240.03875,183.21586   C 237.88092,179.93915 236.76204,176.26285 236.64217,172.10703   z "
     style="fill:#000000;fill-rule:evenodd;fill-opacity:1;stroke:none;" />
  <path
     id="path11"
     d="  M 399.59839,54.345381   L 399.59839,54.345381   L 351.64658,169.42972   L 399.59839,284.51405  "
     style="fill:none;stroke:#000000;stroke-width:9.5903616px;stroke-linecap:butt;stroke-linejoin:miter;stroke-miterlimit:10;stroke-dasharray:none;stroke-opacity:1;" />
</svg>
