<?xml version="1.0" encoding="UTF-8" standalone="no"?>
<svg
   xmlns:dc="http://purl.org/dc/elements/1.1/"
   xmlns:cc="http://creativecommons.org/ns#"
   xmlns:rdf="http://www.w3.org/1999/02/22-rdf-syntax-ns#"
   xmlns:svg="http://www.w3.org/2000/svg"
   xmlns="http://www.w3.org/2000/svg"
   id="svg19"
   height="89.669998mm"
   width="120.11mm"
   version="1.0">
  <metadata
     id="metadata23">
    <rdf:RDF>
      <cc:Work
         rdf:about="">
        <dc:format>image/svg+xml</dc:format>
        <dc:type
           rdf:resource="http://purl.org/dc/dcmitype/StillImage" />
      </cc:Work>
    </rdf:RDF>
  </metadata>
  <defs
     id="defs3">
    <pattern
       y="0"
       x="0"
       height="6"
       width="6"
       patternUnits="userSpaceOnUse"
       id="EMFhbasepattern" />
  </defs>
  <path
     id="path5"
     d="  M 179.02008,15.983936   L 179.02008,54.345381   L 274.92369,54.345381   L 274.92369,15.983936   L 179.02008,15.983936   z "
     style="fill:#000000;fill-rule:evenodd;fill-opacity:1;stroke:none;" />
  <path
     id="path7"
     d="  M 54.345381,54.345381   L 54.345381,284.51405   L 399.59839,284.51405   L 399.59839,54.345381   L 54.345381,54.345381   z "
     style="fill:#80e0ff;fill-rule:evenodd;fill-opacity:1;stroke:none;" />
  <path
     id="path9"
     d="  M 54.345381,54.345381   L 399.59839,54.345381   L 399.59839,284.51405   L 54.345381,284.51405   z "
     style="fill:none;stroke:#000000;stroke-width:9.5903616px;stroke-linecap:butt;stroke-linejoin:miter;stroke-miterlimit:10;stroke-dasharray:none;stroke-opacity:1;" />
  <path
     id="path11"
     d="  M 202.8761,160.95823   L 220.69819,160.95823   C 223.65522,160.95823 229.40943,157.04217 229.40943,153.96526   L 229.40943,147.89136   C 229.40943,145.61365 224.09478,141.37791 221.13775,141.37791   L 202.8761,141.37791   z "
     style="fill:#ffffff;fill-rule:evenodd;fill-opacity:1;stroke:none;" />
  <path
     id="path13"
     d="  M 202.8761,141.37791   L 221.13775,141.37791   C 224.09478,141.37791 229.40943,145.61365 229.40943,147.89136   L 229.40943,153.96526   C 229.40943,157.04217 223.65522,160.95823 220.69819,160.95823   L 202.8761,160.95823   z  M 191.12791,204.91405   L 202.8761,204.91405   L 202.8761,173.58554   L 206.99196,173.74538   L 225.17369,197.6014   L 204.15482,224.05482   L 218.26064,224.21466   L 232.44638,207.51144   C 235.44337,208.31064 242.39638,221.69719 245.95281,224.05482   L 260.73795,224.05482   C 258.62008,220.01887 240.71807,199.1998 240.71807,197.52148   C 240.71807,196.72229 258.58012,174.2249 260.29839,172.70642   L 245.79297,172.54658   L 232.24658,187.33172   L 222.01686,173.58554   C 234.60421,170.62851 242.03674,165.55361 242.03674,150.04919   L 242.03674,148.77048   C 242.03674,143.9753 238.04076,137.46185 235.40341,134.94438   C 232.9259,132.54679 225.65321,129.19016 220.69819,129.19016   L 191.12791,129.19016   z "
     style="fill:#000000;fill-rule:evenodd;fill-opacity:1;stroke:none;" />
  <path
     id="path15"
     d="  M 191.12791,129.19016   L 220.69819,129.19016   C 225.65321,129.19016 232.9259,132.54679 235.40341,134.94438   C 238.04076,137.46185 242.03674,143.9753 242.03674,148.77048   L 242.03674,150.04919   C 242.03674,165.55361 234.60421,170.62851 222.01686,173.58554   L 232.24658,187.33172   L 245.79297,172.54658   L 260.29839,172.70642   C 258.58012,174.2249 240.71807,196.72229 240.71807,197.52148   C 240.71807,199.1998 258.62008,220.01887 260.73795,224.05482   L 245.95281,224.05482   C 242.39638,221.69719 235.44337,208.31064 232.44638,207.51144   L 218.26064,224.21466   L 204.15482,224.05482   L 225.17369,197.6014   L 206.99196,173.74538   L 202.8761,173.58554   L 202.8761,204.91405   L 191.12791,204.91405   z  M 238.56024,125.67369   L 144.09518,125.67369   L 144.09518,226.65221   L 308.21024,226.65221   L 308.21024,125.67369   L 289.90863,125.67369   L 289.90863,89.11044   L 277.72088,89.11044   L 277.72088,125.67369   L 250.74799,125.67369   L 250.74799,89.11044   L 238.56024,89.11044   z "
     style="fill:#ffffff;fill-rule:evenodd;fill-opacity:1;stroke:none;" />
  <path
     id="path17"
     d="  M 238.56024,89.11044   L 250.74799,89.11044   L 250.74799,125.67369   L 277.72088,125.67369   L 277.72088,89.11044   L 289.90863,89.11044   L 289.90863,125.67369   L 308.21024,125.67369   L 308.21024,226.65221   L 144.09518,226.65221   L 144.09518,125.67369   L 238.56024,125.67369   L 238.56024,89.11044  z    M 141.05823,230.16867   L 311.24718,230.16867   L 311.24718,122.63675   L 293.82469,122.63675   L 293.82469,85.633935   L 274.24437,85.633935   L 274.24437,122.63675   L 254.66405,122.63675   L 254.66405,85.633935   L 235.08373,85.633935   L 235.08373,122.63675   L 141.05823,122.63675   L 141.05823,230.16867  z   "
     style="fill:#000000;fill-rule:evenodd;fill-opacity:1;stroke:none;" />
</svg>
