<?xml version="1.0" encoding="UTF-8" standalone="no"?>
<svg
   xmlns:dc="http://purl.org/dc/elements/1.1/"
   xmlns:cc="http://creativecommons.org/ns#"
   xmlns:rdf="http://www.w3.org/1999/02/22-rdf-syntax-ns#"
   xmlns:svg="http://www.w3.org/2000/svg"
   xmlns="http://www.w3.org/2000/svg"
   id="svg13"
   height="89.669998mm"
   width="120.11mm"
   version="1.0">
  <metadata
     id="metadata17">
    <rdf:RDF>
      <cc:Work
         rdf:about="">
        <dc:format>image/svg+xml</dc:format>
        <dc:type
           rdf:resource="http://purl.org/dc/dcmitype/StillImage" />
      </cc:Work>
    </rdf:RDF>
  </metadata>
  <defs
     id="defs3">
    <pattern
       y="0"
       x="0"
       height="6"
       width="6"
       patternUnits="userSpaceOnUse"
       id="EMFhbasepattern" />
  </defs>
  <path
     id="path5"
     d="  M 179.02008,15.983936   L 179.02008,54.345381   L 274.92369,54.345381   L 274.92369,15.983936   L 179.02008,15.983936   z "
     style="fill:#000000;fill-rule:evenodd;fill-opacity:1;stroke:none;" />
  <path
     id="path7"
     d="  M 54.345381,54.345381   L 54.345381,284.51405   L 399.59839,284.51405   L 399.59839,54.345381   L 54.345381,54.345381   z "
     style="fill:#80e0ff;fill-rule:evenodd;fill-opacity:1;stroke:none;" />
  <path
     id="path9"
     d="  M 54.345381,54.345381   L 399.59839,54.345381   L 399.59839,284.51405   L 54.345381,284.51405   z "
     style="fill:none;stroke:#000000;stroke-width:9.5903616px;stroke-linecap:butt;stroke-linejoin:miter;stroke-miterlimit:10;stroke-dasharray:none;stroke-opacity:1;" />
  <path
     id="path11"
     d="  M 192.24678,106.69277   L 223.81506,106.69277   C 231.12771,106.69277 238.64016,115.76365 238.32048,124.0753   C 238.0008,132.70662 231.36747,139.97932 222.69618,139.97932   L 192.24678,139.97932   z  M 171.34779,216.70221   L 192.24678,216.70221   L 192.24678,163.11606   L 197.88112,163.11606   C 199.23976,163.11606 230.60823,201.71727 230.60823,204.2747   C 230.60823,205.75321 197.84116,244.19457 194.48454,250.54819   L 219.65923,250.34839   L 244.31445,221.05783   L 267.2514,250.54819   L 293.38514,250.38835   L 256.94176,204.11486   L 291.54698,161.39779   L 267.0516,161.19799   L 243.79498,187.05201   L 226.09277,163.11606   C 246.51225,158.32088 259.93875,146.73253 259.93875,121.91747   C 259.93875,102.57691 243.03574,85.234336 223.81506,85.234336   L 171.34779,85.234336   z "
     style="fill:#000000;fill-rule:evenodd;fill-opacity:1;stroke:none;" />
</svg>
