<?xml version="1.0" encoding="UTF-8" standalone="no"?>
<svg
   xmlns:dc="http://purl.org/dc/elements/1.1/"
   xmlns:cc="http://creativecommons.org/ns#"
   xmlns:rdf="http://www.w3.org/1999/02/22-rdf-syntax-ns#"
   xmlns:svg="http://www.w3.org/2000/svg"
   xmlns="http://www.w3.org/2000/svg"
   id="svg19"
   height="130.27mm"
   width="130.27mm"
   version="1.0">
  <metadata
     id="metadata23">
    <rdf:RDF>
      <cc:Work
         rdf:about="">
        <dc:format>image/svg+xml</dc:format>
        <dc:type
           rdf:resource="http://purl.org/dc/dcmitype/StillImage" />
      </cc:Work>
    </rdf:RDF>
  </metadata>
  <defs
     id="defs3">
    <pattern
       y="0"
       x="0"
       height="6"
       width="6"
       patternUnits="userSpaceOnUse"
       id="EMFhbasepattern" />
  </defs>
  <path
     id="path5"
     d="  M 198.2008,63.935742   L 198.2008,111.88755   L 294.10441,111.88755   L 294.10441,63.935742   L 198.2008,63.935742   z "
     style="fill:#000000;fill-rule:evenodd;fill-opacity:1;stroke:none;" />
  <path
     id="path7"
     d="  M 164.63454,327.67068   C 164.63454,437.95983 327.67068,437.95983 327.67068,327.67068   C 437.95983,327.67068 437.95983,164.63454 327.67068,164.63454   C 327.67068,54.345381 164.63454,54.345381 164.63454,164.63454   C 54.345381,164.63454 54.345381,327.67068 164.63454,327.67068   z "
     style="fill:#ffff80;fill-rule:evenodd;fill-opacity:1;stroke:none;" />
  <path
     id="path9"
     d="  M 164.63454,327.67068   C 164.63454,437.95983 327.67068,437.95983 327.67068,327.67068   C 437.95983,327.67068 437.95983,164.63454 327.67068,164.63454   C 327.67068,54.345381 164.63454,54.345381 164.63454,164.63454   C 54.345381,164.63454 54.345381,327.67068 164.63454,327.67068  "
     style="fill:none;stroke:#000000;stroke-width:9.5903616px;stroke-linecap:butt;stroke-linejoin:miter;stroke-miterlimit:10;stroke-dasharray:none;stroke-opacity:1;" />
  <path
     id="path11"
     d="  M 222.05682,237.68112   L 239.87891,237.68112   C 242.83594,237.68112 248.59016,233.76506 248.59016,230.68815   L 248.59016,224.61425   C 248.59016,222.33654 243.2755,218.1008 240.31847,218.1008   L 222.05682,218.1008   z "
     style="fill:#ffffff;fill-rule:evenodd;fill-opacity:1;stroke:none;" />
  <path
     id="path13"
     d="  M 222.05682,218.1008   L 240.31847,218.1008   C 243.2755,218.1008 248.59016,222.33654 248.59016,224.61425   L 248.59016,230.68815   C 248.59016,233.76506 242.83594,237.68112 239.87891,237.68112   L 222.05682,237.68112   z  M 210.30863,281.63694   L 222.05682,281.63694   L 222.05682,250.30843   L 226.17269,250.46827   L 244.35441,274.32429   L 223.33554,300.77771   L 237.44136,300.93755   L 251.6271,284.23433   C 254.62409,285.03353 261.5771,298.42008 265.13353,300.77771   L 279.91867,300.77771   C 277.8008,296.74176 259.89879,275.92269 259.89879,274.24437   C 259.89879,273.44518 277.76084,250.94779 279.47911,249.42931   L 264.97369,249.26947   L 251.42731,264.05461   L 241.19759,250.30843   C 253.78494,247.3514 261.21747,242.2765 261.21747,226.77209   L 261.21747,225.49337   C 261.21747,220.69819 257.22148,214.18474 254.58413,211.66727   C 252.10662,209.26968 244.83393,205.91305 239.87891,205.91305   L 210.30863,205.91305   z "
     style="fill:#000000;fill-rule:evenodd;fill-opacity:1;stroke:none;" />
  <path
     id="path15"
     d="  M 210.30863,205.91305   L 239.87891,205.91305   C 244.83393,205.91305 252.10662,209.26968 254.58413,211.66727   C 257.22148,214.18474 261.21747,220.69819 261.21747,225.49337   L 261.21747,226.77209   C 261.21747,242.2765 253.78494,247.3514 241.19759,250.30843   L 251.42731,264.05461   L 264.97369,249.26947   L 279.47911,249.42931   C 277.76084,250.94779 259.89879,273.44518 259.89879,274.24437   C 259.89879,275.92269 277.8008,296.74176 279.91867,300.77771   L 265.13353,300.77771   C 261.5771,298.42008 254.62409,285.03353 251.6271,284.23433   L 237.44136,300.93755   L 223.33554,300.77771   L 244.35441,274.32429   L 226.17269,250.46827   L 222.05682,250.30843   L 222.05682,281.63694   L 210.30863,281.63694   z  M 257.74096,202.39658   L 163.2759,202.39658   L 163.2759,303.3751   L 327.39096,303.3751   L 327.39096,202.39658   L 309.08935,202.39658   L 309.08935,165.83333   L 296.9016,165.83333   L 296.9016,202.39658   L 269.92871,202.39658   L 269.92871,165.83333   L 257.74096,165.83333   z "
     style="fill:#ffffff;fill-rule:evenodd;fill-opacity:1;stroke:none;" />
  <path
     id="path17"
     d="  M 257.74096,165.83333   L 269.92871,165.83333   L 269.92871,202.39658   L 296.9016,202.39658   L 296.9016,165.83333   L 309.08935,165.83333   L 309.08935,202.39658   L 327.39096,202.39658   L 327.39096,303.3751   L 163.2759,303.3751   L 163.2759,202.39658   L 257.74096,202.39658   L 257.74096,165.83333  z    M 160.23895,306.89156   L 330.42791,306.89156   L 330.42791,199.35964   L 313.00542,199.35964   L 313.00542,162.35682   L 293.4251,162.35682   L 293.4251,199.35964   L 273.84478,199.35964   L 273.84478,162.35682   L 254.26445,162.35682   L 254.26445,199.35964   L 160.23895,199.35964   L 160.23895,306.89156  z   "
     style="fill:#000000;fill-rule:evenodd;fill-opacity:1;stroke:none;" />
</svg>
