<?xml version="1.0" encoding="UTF-8" standalone="no"?>
<svg
   xmlns:dc="http://purl.org/dc/elements/1.1/"
   xmlns:cc="http://creativecommons.org/ns#"
   xmlns:rdf="http://www.w3.org/1999/02/22-rdf-syntax-ns#"
   xmlns:svg="http://www.w3.org/2000/svg"
   xmlns="http://www.w3.org/2000/svg"
   id="svg13"
   height="95.75mm"
   width="95.75mm"
   version="1.0">
  <metadata
     id="metadata17">
    <rdf:RDF>
      <cc:Work
         rdf:about="">
        <dc:format>image/svg+xml</dc:format>
        <dc:type
           rdf:resource="http://purl.org/dc/dcmitype/StillImage" />
      </cc:Work>
    </rdf:RDF>
  </metadata>
  <defs
     id="defs3">
    <pattern
       y="0"
       x="0"
       height="6"
       width="6"
       patternUnits="userSpaceOnUse"
       id="EMFhbasepattern" />
  </defs>
  <path
     id="path5"
     d="  M 132.98634,15.983936   L 132.98634,54.345381   L 228.88996,54.345381   L 228.88996,15.983936   L 132.98634,15.983936   z "
     style="fill:#000000;fill-rule:evenodd;fill-opacity:1;stroke:none;" />
  <path
     id="path7"
     d="  M 54.345381,54.345381   L 54.345381,307.53092   L 307.53092,307.53092   L 307.53092,54.345381   L 54.345381,54.345381   z "
     style="fill:#aaffaa;fill-rule:evenodd;fill-opacity:1;stroke:none;" />
  <path
     id="path9"
     d="  M 54.345381,54.345381   L 307.53092,54.345381   L 307.53092,307.53092   L 54.345381,307.53092   z "
     style="fill:none;stroke:#000000;stroke-width:9.5903616px;stroke-linecap:butt;stroke-linejoin:miter;stroke-miterlimit:10;stroke-dasharray:none;stroke-opacity:1;" />
  <path
     id="path11"
     d="  M 146.21305,118.2012   L 177.78132,118.2012   C 185.09397,118.2012 192.60642,127.27209 192.28674,135.58373   C 191.96707,144.21506 185.33373,151.48775 176.66245,151.48775   L 146.21305,151.48775   z  M 125.31405,228.21064   L 146.21305,228.21064   L 146.21305,174.6245   L 151.84739,174.6245   C 153.20602,174.6245 184.5745,213.2257 184.5745,215.78313   C 184.5745,217.26164 151.80743,255.70301 148.4508,262.05662   L 173.6255,261.85682   L 198.28072,232.56626   L 221.21767,262.05662   L 247.3514,261.89678   L 210.90803,215.62329   L 245.51325,172.90622   L 221.01787,172.70642   L 197.76124,198.56044   L 180.05903,174.6245   C 200.47851,169.82931 213.90502,158.24096 213.90502,133.4259   C 213.90502,114.08534 197.00201,96.74277 177.78132,96.74277   L 125.31405,96.74277   z "
     style="fill:#000000;fill-rule:evenodd;fill-opacity:1;stroke:none;" />
</svg>
