<?xml version="1.0" encoding="UTF-8" standalone="no"?>
<svg
   xmlns:dc="http://purl.org/dc/elements/1.1/"
   xmlns:cc="http://creativecommons.org/ns#"
   xmlns:rdf="http://www.w3.org/1999/02/22-rdf-syntax-ns#"
   xmlns:svg="http://www.w3.org/2000/svg"
   xmlns="http://www.w3.org/2000/svg"
   id="svg19"
   height="95.75mm"
   width="95.75mm"
   version="1.0">
  <metadata
     id="metadata23">
    <rdf:RDF>
      <cc:Work
         rdf:about="">
        <dc:format>image/svg+xml</dc:format>
        <dc:type
           rdf:resource="http://purl.org/dc/dcmitype/StillImage" />
      </cc:Work>
    </rdf:RDF>
  </metadata>
  <defs
     id="defs3">
    <pattern
       y="0"
       x="0"
       height="6"
       width="6"
       patternUnits="userSpaceOnUse"
       id="EMFhbasepattern" />
  </defs>
  <path
     id="path5"
     d="  M 132.98634,15.983936   L 132.98634,54.345381   L 228.88996,54.345381   L 228.88996,15.983936   L 132.98634,15.983936   z "
     style="fill:#000000;fill-rule:evenodd;fill-opacity:1;stroke:none;" />
  <path
     id="path7"
     d="  M 54.345381,54.345381   L 54.345381,307.53092   L 307.53092,307.53092   L 307.53092,54.345381   L 54.345381,54.345381   z "
     style="fill:#aaffaa;fill-rule:evenodd;fill-opacity:1;stroke:none;" />
  <path
     id="path9"
     d="  M 54.345381,54.345381   L 307.53092,54.345381   L 307.53092,307.53092   L 54.345381,307.53092   z "
     style="fill:none;stroke:#000000;stroke-width:9.5903616px;stroke-linecap:butt;stroke-linejoin:miter;stroke-miterlimit:10;stroke-dasharray:none;stroke-opacity:1;" />
  <path
     id="path11"
     d="  M 156.84237,172.46666   L 174.66446,172.46666   C 177.62148,172.46666 183.3757,168.5506 183.3757,165.47369   L 183.3757,159.3998   C 183.3757,157.12209 178.06104,152.88634 175.10401,152.88634   L 156.84237,152.88634   z "
     style="fill:#ffffff;fill-rule:evenodd;fill-opacity:1;stroke:none;" />
  <path
     id="path13"
     d="  M 156.84237,152.88634   L 175.10401,152.88634   C 178.06104,152.88634 183.3757,157.12209 183.3757,159.3998   L 183.3757,165.47369   C 183.3757,168.5506 177.62148,172.46666 174.66446,172.46666   L 156.84237,172.46666   z  M 145.09417,216.42249   L 156.84237,216.42249   L 156.84237,185.09397   L 160.95823,185.25381   L 179.13996,209.10984   L 158.12108,235.56325   L 172.22691,235.72309   L 186.41265,219.01988   C 189.40964,219.81907 196.36265,233.20562 199.91907,235.56325   L 214.70421,235.56325   C 212.58634,231.52731 194.68433,210.70823 194.68433,209.02992   C 194.68433,208.23072 212.54638,185.73333 214.26466,184.21486   L 199.75923,184.05502   L 186.21285,198.84016   L 175.98313,185.09397   C 188.57048,182.13695 196.00301,177.06205 196.00301,161.55763   L 196.00301,160.27891   C 196.00301,155.48373 192.00703,148.97028 189.36968,146.45281   C 186.89217,144.05522 179.61948,140.69859 174.66446,140.69859   L 145.09417,140.69859   z "
     style="fill:#000000;fill-rule:evenodd;fill-opacity:1;stroke:none;" />
  <path
     id="path15"
     d="  M 145.09417,140.69859   L 174.66446,140.69859   C 179.61948,140.69859 186.89217,144.05522 189.36968,146.45281   C 192.00703,148.97028 196.00301,155.48373 196.00301,160.27891   L 196.00301,161.55763   C 196.00301,177.06205 188.57048,182.13695 175.98313,185.09397   L 186.21285,198.84016   L 199.75923,184.05502   L 214.26466,184.21486   C 212.54638,185.73333 194.68433,208.23072 194.68433,209.02992   C 194.68433,210.70823 212.58634,231.52731 214.70421,235.56325   L 199.91907,235.56325   C 196.36265,233.20562 189.40964,219.81907 186.41265,219.01988   L 172.22691,235.72309   L 158.12108,235.56325   L 179.13996,209.10984   L 160.95823,185.25381   L 156.84237,185.09397   L 156.84237,216.42249   L 145.09417,216.42249   z  M 192.5265,137.18213   L 98.061444,137.18213   L 98.061444,238.16064   L 262.1765,238.16064   L 262.1765,137.18213   L 243.8749,137.18213   L 243.8749,100.61887   L 231.68715,100.61887   L 231.68715,137.18213   L 204.71425,137.18213   L 204.71425,100.61887   L 192.5265,100.61887   z "
     style="fill:#ffffff;fill-rule:evenodd;fill-opacity:1;stroke:none;" />
  <path
     id="path17"
     d="  M 192.5265,100.61887   L 204.71425,100.61887   L 204.71425,137.18213   L 231.68715,137.18213   L 231.68715,100.61887   L 243.8749,100.61887   L 243.8749,137.18213   L 262.1765,137.18213   L 262.1765,238.16064   L 98.061444,238.16064   L 98.061444,137.18213   L 192.5265,137.18213   L 192.5265,100.61887  z    M 95.024497,241.6771   L 265.21345,241.6771   L 265.21345,134.14518   L 247.79096,134.14518   L 247.79096,97.142368   L 228.21064,97.142368   L 228.21064,134.14518   L 208.63032,134.14518   L 208.63032,97.142368   L 189.05,97.142368   L 189.05,134.14518   L 95.024497,134.14518   L 95.024497,241.6771  z   "
     style="fill:#000000;fill-rule:evenodd;fill-opacity:1;stroke:none;" />
</svg>
