<?xml version="1.0" encoding="UTF-8" standalone="no"?>
<svg
   xmlns:dc="http://purl.org/dc/elements/1.1/"
   xmlns:cc="http://creativecommons.org/ns#"
   xmlns:rdf="http://www.w3.org/1999/02/22-rdf-syntax-ns#"
   xmlns:svg="http://www.w3.org/2000/svg"
   xmlns="http://www.w3.org/2000/svg"
   id="svg13"
   height="130.27mm"
   width="130.27mm"
   version="1.0">
  <metadata
     id="metadata17">
    <rdf:RDF>
      <cc:Work
         rdf:about="">
        <dc:format>image/svg+xml</dc:format>
        <dc:type
           rdf:resource="http://purl.org/dc/dcmitype/StillImage" />
      </cc:Work>
    </rdf:RDF>
  </metadata>
  <defs
     id="defs3">
    <pattern
       y="0"
       x="0"
       height="6"
       width="6"
       patternUnits="userSpaceOnUse"
       id="EMFhbasepattern" />
  </defs>
  <path
     id="path5"
     d="  M 198.2008,63.935742   L 198.2008,111.88755   L 294.10441,111.88755   L 294.10441,63.935742   L 198.2008,63.935742   z "
     style="fill:#000000;fill-rule:evenodd;fill-opacity:1;stroke:none;" />
  <path
     id="path7"
     d="  M 164.63454,327.67068   C 164.63454,437.95983 327.67068,437.95983 327.67068,327.67068   C 437.95983,327.67068 437.95983,164.63454 327.67068,164.63454   C 327.67068,54.345381 164.63454,54.345381 164.63454,164.63454   C 54.345381,164.63454 54.345381,327.67068 164.63454,327.67068   z "
     style="fill:#ffff80;fill-rule:evenodd;fill-opacity:1;stroke:none;" />
  <path
     id="path9"
     d="  M 164.63454,327.67068   C 164.63454,437.95983 327.67068,437.95983 327.67068,327.67068   C 437.95983,327.67068 437.95983,164.63454 327.67068,164.63454   C 327.67068,54.345381 164.63454,54.345381 164.63454,164.63454   C 54.345381,164.63454 54.345381,327.67068 164.63454,327.67068  "
     style="fill:none;stroke:#000000;stroke-width:9.5903616px;stroke-linecap:butt;stroke-linejoin:miter;stroke-miterlimit:10;stroke-dasharray:none;stroke-opacity:1;" />
  <path
     id="path11"
     d="  M 211.42751,183.41566   L 242.99578,183.41566   C 250.30843,183.41566 257.82088,192.48654 257.5012,200.79819   C 257.18152,209.42952 250.54819,216.70221 241.8769,216.70221   L 211.42751,216.70221   z  M 190.52851,293.4251   L 211.42751,293.4251   L 211.42751,239.83895   L 217.06184,239.83895   C 218.42048,239.83895 249.78895,278.44016 249.78895,280.99759   C 249.78895,282.4761 217.02188,320.91747 213.66526,327.27108   L 238.83996,327.07128   L 263.49518,297.78072   L 286.43212,327.27108   L 312.56586,327.11124   L 276.12249,280.83775   L 310.72771,238.12068   L 286.23233,237.92088   L 262.9757,263.7749   L 245.27349,239.83895   C 265.69297,235.04377 279.11947,223.45542 279.11947,198.64036   C 279.11947,179.2998 262.21646,161.95723 242.99578,161.95723   L 190.52851,161.95723   z "
     style="fill:#000000;fill-rule:evenodd;fill-opacity:1;stroke:none;" />
</svg>
