<?xml version="1.0" encoding="UTF-8" standalone="no"?>
<svg
   xmlns:dc="http://purl.org/dc/elements/1.1/"
   xmlns:cc="http://creativecommons.org/ns#"
   xmlns:rdf="http://www.w3.org/1999/02/22-rdf-syntax-ns#"
   xmlns:svg="http://www.w3.org/2000/svg"
   xmlns="http://www.w3.org/2000/svg"
   id="svg19"
   height="116.73mm"
   width="116.73mm"
   version="1.0">
  <metadata
     id="metadata23">
    <rdf:RDF>
      <cc:Work
         rdf:about="">
        <dc:format>image/svg+xml</dc:format>
        <dc:type
           rdf:resource="http://purl.org/dc/dcmitype/StillImage" />
      </cc:Work>
    </rdf:RDF>
  </metadata>
  <defs
     id="defs3">
    <pattern
       y="0"
       x="0"
       height="6"
       width="6"
       patternUnits="userSpaceOnUse"
       id="EMFhbasepattern" />
  </defs>
  <path
     id="path5"
     d="  M 172.6265,43.156626   L 172.6265,100.69879   L 268.53012,100.69879   L 268.53012,43.156626   L 172.6265,43.156626   z "
     style="fill:#000000;fill-rule:evenodd;fill-opacity:1;stroke:none;" />
  <path
     id="path7"
     d="  M 220.57831,386.49156   L 220.57831,386.49156   L 386.49156,220.57831   L 220.57831,54.665059   L 54.665059,220.57831   L 220.57831,386.49156   z "
     style="fill:#ff8080;fill-rule:evenodd;fill-opacity:1;stroke:none;" />
  <path
     id="path9"
     d="  M 220.57831,386.49156   L 220.57831,386.49156   L 386.49156,220.57831   L 220.57831,54.665059   L 54.665059,220.57831   L 220.57831,386.49156  "
     style="fill:none;stroke:#000000;stroke-width:9.5903616px;stroke-linecap:butt;stroke-linejoin:miter;stroke-miterlimit:10;stroke-dasharray:none;stroke-opacity:1;" />
  <path
     id="path11"
     d="  M 196.48253,212.10682   L 214.30462,212.10682   C 217.26164,212.10682 223.01586,208.19076 223.01586,205.11385   L 223.01586,199.03996   C 223.01586,196.76225 217.7012,192.5265 214.74417,192.5265   L 196.48253,192.5265   z "
     style="fill:#ffffff;fill-rule:evenodd;fill-opacity:1;stroke:none;" />
  <path
     id="path13"
     d="  M 196.48253,192.5265   L 214.74417,192.5265   C 217.7012,192.5265 223.01586,196.76225 223.01586,199.03996   L 223.01586,205.11385   C 223.01586,208.19076 217.26164,212.10682 214.30462,212.10682   L 196.48253,212.10682   z  M 184.73433,256.06265   L 196.48253,256.06265   L 196.48253,224.73413   L 200.59839,224.89397   L 218.78012,248.75   L 197.76124,275.20341   L 211.86707,275.36325   L 226.05281,258.66004   C 229.0498,259.45923 236.00281,272.84578 239.55923,275.20341   L 254.34437,275.20341   C 252.2265,271.16747 234.32449,250.34839 234.32449,248.67008   C 234.32449,247.87088 252.18654,225.37349 253.90482,223.85502   L 239.39939,223.69518   L 225.85301,238.48032   L 215.62329,224.73413   C 228.21064,221.77711 235.64317,216.70221 235.64317,201.19779   L 235.64317,199.91907   C 235.64317,195.12389 231.64719,188.61044 229.00984,186.09297   C 226.53233,183.69538 219.25964,180.33875 214.30462,180.33875   L 184.73433,180.33875   z "
     style="fill:#000000;fill-rule:evenodd;fill-opacity:1;stroke:none;" />
  <path
     id="path15"
     d="  M 184.73433,180.33875   L 214.30462,180.33875   C 219.25964,180.33875 226.53233,183.69538 229.00984,186.09297   C 231.64719,188.61044 235.64317,195.12389 235.64317,199.91907   L 235.64317,201.19779   C 235.64317,216.70221 228.21064,221.77711 215.62329,224.73413   L 225.85301,238.48032   L 239.39939,223.69518   L 253.90482,223.85502   C 252.18654,225.37349 234.32449,247.87088 234.32449,248.67008   C 234.32449,250.34839 252.2265,271.16747 254.34437,275.20341   L 239.55923,275.20341   C 236.00281,272.84578 229.0498,259.45923 226.05281,258.66004   L 211.86707,275.36325   L 197.76124,275.20341   L 218.78012,248.75   L 200.59839,224.89397   L 196.48253,224.73413   L 196.48253,256.06265   L 184.73433,256.06265   z  M 232.16666,176.82229   L 137.7016,176.82229   L 137.7016,277.8008   L 301.81666,277.8008   L 301.81666,176.82229   L 283.51506,176.82229   L 283.51506,140.25903   L 271.32731,140.25903   L 271.32731,176.82229   L 244.35441,176.82229   L 244.35441,140.25903   L 232.16666,140.25903   z "
     style="fill:#ffffff;fill-rule:evenodd;fill-opacity:1;stroke:none;" />
  <path
     id="path17"
     d="  M 232.16666,140.25903   L 244.35441,140.25903   L 244.35441,176.82229   L 271.32731,176.82229   L 271.32731,140.25903   L 283.51506,140.25903   L 283.51506,176.82229   L 301.81666,176.82229   L 301.81666,277.8008   L 137.7016,277.8008   L 137.7016,176.82229   L 232.16666,176.82229   L 232.16666,140.25903  z    M 134.66466,281.31727   L 304.85361,281.31727   L 304.85361,173.78534   L 287.43112,173.78534   L 287.43112,136.78253   L 267.8508,136.78253   L 267.8508,173.78534   L 248.27048,173.78534   L 248.27048,136.78253   L 228.69016,136.78253   L 228.69016,173.78534   L 134.66466,173.78534   L 134.66466,281.31727  z   "
     style="fill:#000000;fill-rule:evenodd;fill-opacity:1;stroke:none;" />
</svg>
