<?xml version="1.0" encoding="UTF-8" standalone="no"?>
<svg
   xmlns:dc="http://purl.org/dc/elements/1.1/"
   xmlns:cc="http://creativecommons.org/ns#"
   xmlns:rdf="http://www.w3.org/1999/02/22-rdf-syntax-ns#"
   xmlns:svg="http://www.w3.org/2000/svg"
   xmlns="http://www.w3.org/2000/svg"
   id="svg13"
   height="116.73mm"
   width="116.73mm"
   version="1.0">
  <metadata
     id="metadata17">
    <rdf:RDF>
      <cc:Work
         rdf:about="">
        <dc:format>image/svg+xml</dc:format>
        <dc:type
           rdf:resource="http://purl.org/dc/dcmitype/StillImage" />
      </cc:Work>
    </rdf:RDF>
  </metadata>
  <defs
     id="defs3">
    <pattern
       y="0"
       x="0"
       height="6"
       width="6"
       patternUnits="userSpaceOnUse"
       id="EMFhbasepattern" />
  </defs>
  <path
     id="path5"
     d="  M 172.6265,43.156626   L 172.6265,100.69879   L 268.53012,100.69879   L 268.53012,43.156626   L 172.6265,43.156626   z "
     style="fill:#000000;fill-rule:evenodd;fill-opacity:1;stroke:none;" />
  <path
     id="path7"
     d="  M 220.57831,386.49156   L 220.57831,386.49156   L 386.49156,220.57831   L 220.57831,54.665059   L 54.665059,220.57831   L 220.57831,386.49156   z "
     style="fill:#ff8080;fill-rule:evenodd;fill-opacity:1;stroke:none;" />
  <path
     id="path9"
     d="  M 220.57831,386.49156   L 220.57831,386.49156   L 386.49156,220.57831   L 220.57831,54.665059   L 54.665059,220.57831   L 220.57831,386.49156  "
     style="fill:none;stroke:#000000;stroke-width:9.5903616px;stroke-linecap:butt;stroke-linejoin:miter;stroke-miterlimit:10;stroke-dasharray:none;stroke-opacity:1;" />
  <path
     id="path11"
     d="  M 185.85321,157.84136   L 217.42148,157.84136   C 224.73413,157.84136 232.24658,166.91225 231.9269,175.22389   C 231.60723,183.85522 224.97389,191.12791 216.30261,191.12791   L 185.85321,191.12791   z  M 164.95421,267.8508   L 185.85321,267.8508   L 185.85321,214.26466   L 191.48755,214.26466   C 192.84618,214.26466 224.21466,252.86586 224.21466,255.42329   C 224.21466,256.9018 191.44759,295.34317 188.09096,301.69678   L 213.26566,301.49698   L 237.92088,272.20642   L 260.85783,301.69678   L 286.99156,301.53694   L 250.54819,255.26345   L 285.15341,212.54638   L 260.65803,212.34658   L 237.4014,238.2006   L 219.69919,214.26466   C 240.11867,209.46947 253.54518,197.88112 253.54518,173.06606   C 253.54518,153.7255 236.64217,136.38293 217.42148,136.38293   L 164.95421,136.38293   z "
     style="fill:#000000;fill-rule:evenodd;fill-opacity:1;stroke:none;" />
</svg>
