<?xml version="1.0" encoding="UTF-8" standalone="no"?>
<svg
   xmlns:dc="http://purl.org/dc/elements/1.1/"
   xmlns:cc="http://creativecommons.org/ns#"
   xmlns:rdf="http://www.w3.org/1999/02/22-rdf-syntax-ns#"
   xmlns:svg="http://www.w3.org/2000/svg"
   xmlns="http://www.w3.org/2000/svg"
   id="svg25"
   height="95.75mm"
   width="95.75mm"
   version="1.0">
  <metadata
     id="metadata29">
    <rdf:RDF>
      <cc:Work
         rdf:about="">
        <dc:format>image/svg+xml</dc:format>
        <dc:type
           rdf:resource="http://purl.org/dc/dcmitype/StillImage" />
      </cc:Work>
    </rdf:RDF>
  </metadata>
  <defs
     id="defs3">
    <pattern
       y="0"
       x="0"
       height="6"
       width="6"
       patternUnits="userSpaceOnUse"
       id="EMFhbasepattern" />
  </defs>
  <path
     id="path5"
     d="  M 54.345381,54.345381   L 54.345381,307.53092   L 307.53092,307.53092   L 307.53092,54.345381   L 54.345381,54.345381   z "
     style="fill:#aaffaa;fill-rule:evenodd;fill-opacity:1;stroke:none;" />
  <path
     id="path7"
     d="  M 54.345381,54.345381   L 307.53092,54.345381   L 307.53092,307.53092   L 54.345381,307.53092   z "
     style="fill:none;stroke:#000000;stroke-width:9.5903616px;stroke-linecap:butt;stroke-linejoin:miter;stroke-miterlimit:10;stroke-dasharray:none;stroke-opacity:1;" />
  <path
     id="path9"
     d="  M 109.01044,228.88996   L 109.01044,228.88996   L 109.01044,132.98634   L 156.96225,132.98634   L 156.96225,180.93815   L 252.86586,180.93815   L 252.86586,228.88996   z "
     style="fill:#ffffff;fill-rule:evenodd;fill-opacity:1;stroke:none;" />
  <path
     id="path11"
     d="  M 109.01044,228.88996   L 109.01044,228.88996   L 109.01044,132.98634   L 156.96225,132.98634   L 156.96225,180.93815   L 252.86586,180.93815   L 252.86586,228.88996   z "
     style="fill:none;stroke:#000000;stroke-width:9.5903616px;stroke-linecap:butt;stroke-linejoin:miter;stroke-miterlimit:10;stroke-dasharray:none;stroke-opacity:1;" />
  <path
     id="path13"
     d="  M 248.07068,233.68514   C 248.07068,244.31445 239.51927,252.86586 228.88996,252.86586   C 218.3006,252.86586 209.70923,244.31445 209.70923,233.68514   C 209.70923,223.09578 218.3006,214.50441 228.88996,214.50441   C 239.51927,214.50441 248.07068,223.09578 248.07068,233.68514   z "
     style="fill:#ffffff;fill-rule:evenodd;fill-opacity:1;stroke:none;" />
  <path
     id="path15"
     d="  M 248.07068,233.68514   C 248.07068,244.31445 239.51927,252.86586 228.88996,252.86586   C 218.3006,252.86586 209.70923,244.31445 209.70923,233.68514   C 209.70923,223.09578 218.3006,214.50441 228.88996,214.50441   C 239.51927,214.50441 248.07068,223.09578 248.07068,233.68514  "
     style="fill:none;stroke:#000000;stroke-width:9.5903616px;stroke-linecap:butt;stroke-linejoin:miter;stroke-miterlimit:10;stroke-dasharray:none;stroke-opacity:1;" />
  <path
     id="path17"
     d="  M 152.16707,233.68514   C 152.16707,244.31445 143.61566,252.86586 132.98634,252.86586   C 122.39699,252.86586 113.80562,244.31445 113.80562,233.68514   C 113.80562,223.09578 122.39699,214.50441 132.98634,214.50441   C 143.61566,214.50441 152.16707,223.09578 152.16707,233.68514   z "
     style="fill:#ffffff;fill-rule:evenodd;fill-opacity:1;stroke:none;" />
  <path
     id="path19"
     d="  M 152.16707,233.68514   C 152.16707,244.31445 143.61566,252.86586 132.98634,252.86586   C 122.39699,252.86586 113.80562,244.31445 113.80562,233.68514   C 113.80562,223.09578 122.39699,214.50441 132.98634,214.50441   C 143.61566,214.50441 152.16707,223.09578 152.16707,233.68514  "
     style="fill:none;stroke:#000000;stroke-width:9.5903616px;stroke-linecap:butt;stroke-linejoin:miter;stroke-miterlimit:10;stroke-dasharray:none;stroke-opacity:1;" />
  <path
     id="path21"
     d="  M 118.6008,142.5767   L 147.37189,142.5767   L 147.37189,183.81526   L 118.6008,183.81526   z "
     style="fill:none;stroke:#000000;stroke-width:4.7951808px;stroke-linecap:butt;stroke-linejoin:miter;stroke-miterlimit:10;stroke-dasharray:none;stroke-opacity:1;" />
  <path
     id="path23"
     d="  M 180.93815,182.85622   L 180.93815,227.93092  "
     style="fill:none;stroke:#000000;stroke-width:9.5903616px;stroke-linecap:butt;stroke-linejoin:miter;stroke-miterlimit:10;stroke-dasharray:none;stroke-opacity:1;" />
</svg>
