<?xml version="1.0" encoding="UTF-8" standalone="no"?>
<svg
   xmlns:dc="http://purl.org/dc/elements/1.1/"
   xmlns:cc="http://creativecommons.org/ns#"
   xmlns:rdf="http://www.w3.org/1999/02/22-rdf-syntax-ns#"
   xmlns:svg="http://www.w3.org/2000/svg"
   xmlns="http://www.w3.org/2000/svg"
   id="svg13"
   height="112.9mm"
   width="112.9mm"
   version="1.0">
  <metadata
     id="metadata17">
    <rdf:RDF>
      <cc:Work
         rdf:about="">
        <dc:format>image/svg+xml</dc:format>
        <dc:type
           rdf:resource="http://purl.org/dc/dcmitype/StillImage" />
      </cc:Work>
    </rdf:RDF>
  </metadata>
  <defs
     id="defs3">
    <pattern
       y="0"
       x="0"
       height="6"
       width="6"
       patternUnits="userSpaceOnUse"
       id="EMFhbasepattern" />
  </defs>
  <path
     id="path5"
     d="  M 1055.3824,1055.5085   L 1203.488,1055.5085   L 1203.488,1246.2484   L 1055.3824,1246.2484   z "
     style="fill:none;stroke:#ffff00;stroke-width:5.3245535px;stroke-linecap:butt;stroke-linejoin:miter;stroke-miterlimit:282;stroke-dasharray:none;stroke-opacity:1;" />
  <path
     id="path7"
     d="  M 1055.3824,1248.4386   L 1129.9639,1348.5855   L 1204.5832,1248.4386  "
     style="fill:none;stroke:#ffff00;stroke-width:5.3245535px;stroke-linecap:butt;stroke-linejoin:miter;stroke-miterlimit:282;stroke-dasharray:none;stroke-opacity:1;" />
  <path
     id="path9"
     d="  M 1091.2193,1119.4787   L 1091.2193,1073.7102   L 1108.4769,1073.7102   C 1111.5357,1073.7102 1113.8392,1073.8235 1115.463,1074.1256   C 1117.691,1074.5032 1119.5791,1075.2207 1121.0896,1076.2781   C 1122.6002,1077.3354 1123.8463,1078.8082 1124.7526,1080.6963   C 1125.6967,1082.5844 1126.1499,1084.6614 1126.1499,1086.9272   C 1126.1499,1090.8167 1124.9037,1094.1021 1122.4491,1096.821   C 1119.9568,1099.5022 1115.5007,1100.8616 1109.0055,1100.8616   L 1097.2613,1100.8616   L 1097.2613,1119.4787   z  M 1097.2613,1095.4616   L 1109.1188,1095.4616   C 1113.0084,1095.4616 1115.8028,1094.7441 1117.4644,1093.2713   C 1119.0882,1091.7986 1119.919,1089.7594 1119.919,1087.116   C 1119.919,1085.1901 1119.4281,1083.5663 1118.4462,1082.2068   C 1117.5022,1080.8474 1116.2182,1079.941 1114.6322,1079.4879   C 1113.6126,1079.2236 1111.7245,1079.1103 1108.9678,1079.1103   L 1097.2613,1079.1103   z "
     style="fill:#ffff00;fill-rule:nonzero;fill-opacity:1;stroke:#ffff00;stroke-width:1.0573581px;stroke-linecap:butt;stroke-linejoin:miter;stroke-miterlimit:282;stroke-dasharray:none;stroke-opacity:1;" />
  <path
     id="path11"
     d="  M 1133.929,1119.4787   L 1133.929,1073.7102   L 1149.7138,1073.7102   C 1153.2635,1073.7102 1155.9825,1073.899 1157.8328,1074.3522   C 1160.4762,1074.9564 1162.7042,1076.0515 1164.5546,1077.6375   C 1166.9714,1079.6767 1168.784,1082.2823 1169.9925,1085.4544   C 1171.1631,1088.6265 1171.7673,1092.2517 1171.7673,1096.3301   C 1171.7673,1099.8043 1171.3519,1102.9008 1170.5589,1105.582   C 1169.7281,1108.2631 1168.7085,1110.4911 1167.4246,1112.2282   C 1166.1784,1114.0031 1164.7812,1115.3625 1163.2707,1116.3821   C 1161.7602,1117.4017 1159.9475,1118.157 1157.7951,1118.6857   C 1155.6804,1119.2143 1153.2258,1119.4787 1150.4313,1119.4787   z  M 1139.971,1114.0786   L 1149.7516,1114.0786   C 1152.7726,1114.0786 1155.1517,1113.7765 1156.851,1113.2101   C 1158.5881,1112.6436 1159.9475,1111.8506 1160.9671,1110.831   C 1162.4021,1109.396 1163.535,1107.4701 1164.328,1105.0533   C 1165.1211,1102.6365 1165.5364,1099.691 1165.5364,1096.2546   C 1165.5364,1091.4587 1164.7434,1087.7579 1163.1574,1085.1901   C 1161.6091,1082.6222 1159.6832,1080.9229 1157.4552,1080.0166   C 1155.8314,1079.4124 1153.188,1079.1103 1149.6005,1079.1103   L 1139.971,1079.1103   z "
     style="fill:#ffff00;fill-rule:nonzero;fill-opacity:1;stroke:#ffff00;stroke-width:1.0573581px;stroke-linecap:butt;stroke-linejoin:miter;stroke-miterlimit:282;stroke-dasharray:none;stroke-opacity:1;" />
</svg>
