<?xml version="1.0" encoding="UTF-8" standalone="no"?>
<svg
   xmlns:dc="http://purl.org/dc/elements/1.1/"
   xmlns:cc="http://creativecommons.org/ns#"
   xmlns:rdf="http://www.w3.org/1999/02/22-rdf-syntax-ns#"
   xmlns:svg="http://www.w3.org/2000/svg"
   xmlns="http://www.w3.org/2000/svg"
   id="svg11"
   height="112.9mm"
   width="112.9mm"
   version="1.0">
  <metadata
     id="metadata15">
    <rdf:RDF>
      <cc:Work
         rdf:about="">
        <dc:format>image/svg+xml</dc:format>
        <dc:type
           rdf:resource="http://purl.org/dc/dcmitype/StillImage" />
      </cc:Work>
    </rdf:RDF>
  </metadata>
  <defs
     id="defs3">
    <pattern
       y="0"
       x="0"
       height="6"
       width="6"
       patternUnits="userSpaceOnUse"
       id="EMFhbasepattern" />
  </defs>
  <ellipse
     id="ellipse5"
     ry="58.060289"
     rx="58.060289"
     cy="1690.8091"
     cx="1690.8091"
     style="fill:#00ff00;fill-rule:nonzero;fill-opacity:1;stroke:#00ff00;stroke-width:1.0573581px;stroke-linecap:butt;stroke-linejoin:miter;stroke-miterlimit:282;stroke-dasharray:none;stroke-opacity:1;" />
  <path
     id="path7"
     d="  M 1504.884,1504.884   L 1876.7719,1504.884   L 1876.7719,1876.7719   L 1504.884,1876.7719   z "
     style="fill:none;stroke:#00ff00;stroke-width:8.4966278px;stroke-linecap:butt;stroke-linejoin:miter;stroke-miterlimit:282;stroke-dasharray:none;stroke-opacity:1;" />
  <path
     id="path9"
     d="  M 1658.5407,1856.5688   L 1658.5407,1765.0318   L 1693.0559,1765.0318   C 1699.1357,1765.0318 1703.7806,1765.2962 1706.9904,1765.9004   C 1711.4842,1766.6556 1715.2605,1768.0906 1718.2815,1770.1676   C 1721.3403,1772.2823 1723.7571,1775.2278 1725.6075,1779.004   C 1727.4956,1782.7803 1728.4019,1786.972 1728.4019,1791.5035   C 1728.4019,1799.2827 1725.9096,1805.8912 1720.9626,1811.2535   C 1716.0157,1816.6535 1707.0659,1819.3347 1694.1133,1819.3347   L 1670.6248,1819.3347   L 1670.6248,1856.5688   z  M 1670.6248,1808.5345   L 1694.3021,1808.5345   C 1702.119,1808.5345 1707.7079,1807.0996 1710.9933,1804.1918   C 1714.2786,1801.2463 1715.9024,1797.1679 1715.9024,1791.8812   C 1715.9024,1788.0294 1714.9584,1784.7818 1712.9947,1782.0251   C 1711.0688,1779.3061 1708.5387,1777.4935 1705.3666,1776.625   C 1703.3274,1776.0963 1699.5511,1775.832 1694.0755,1775.832   L 1670.6248,1775.832   z "
     style="fill:#00ff00;fill-rule:nonzero;fill-opacity:1;stroke:#00ff00;stroke-width:1.0573581px;stroke-linecap:butt;stroke-linejoin:miter;stroke-miterlimit:282;stroke-dasharray:none;stroke-opacity:1;" />
</svg>
