<?xml version="1.0" encoding="UTF-8" standalone="no"?>
<svg
   xmlns:dc="http://purl.org/dc/elements/1.1/"
   xmlns:cc="http://creativecommons.org/ns#"
   xmlns:rdf="http://www.w3.org/1999/02/22-rdf-syntax-ns#"
   xmlns:svg="http://www.w3.org/2000/svg"
   xmlns="http://www.w3.org/2000/svg"
   id="svg13"
   height="112.9mm"
   width="112.9mm"
   version="1.0">
  <metadata
     id="metadata17">
    <rdf:RDF>
      <cc:Work
         rdf:about="">
        <dc:format>image/svg+xml</dc:format>
        <dc:type
           rdf:resource="http://purl.org/dc/dcmitype/StillImage" />
      </cc:Work>
    </rdf:RDF>
  </metadata>
  <defs
     id="defs3">
    <pattern
       y="0"
       x="0"
       height="6"
       width="6"
       patternUnits="userSpaceOnUse"
       id="EMFhbasepattern" />
  </defs>
  <path
     id="path5"
     d="  M 451.74134,451.72623   L 600.99177,451.72623   L 600.99177,643.62504   L 451.74134,643.62504   L 451.74134,451.72623   z "
     style="fill:none;stroke:#000000;stroke-width:5.3263254px;stroke-linecap:butt;stroke-linejoin:miter;stroke-miterlimit:112;stroke-dasharray:none;stroke-opacity:1;" />
  <path
     id="path7"
     d="  M 451.74134,644.72053   L 526.34767,744.90078   L 600.99177,644.72053  "
     style="fill:none;stroke:#000000;stroke-width:5.3263254px;stroke-linecap:butt;stroke-linejoin:miter;stroke-miterlimit:112;stroke-dasharray:none;stroke-opacity:1;" />
  <path
     id="path9"
     d="  M 487.59015,515.71768   L 487.59015,469.93395   L 504.85349,469.93395   C 507.91329,469.93395 510.21759,470.04728 511.84193,470.34948   C 514.07068,470.72723 515.95944,471.44496 517.47046,472.50267   C 518.98147,473.56038 520.22806,475.03362 521.13467,476.92239   C 522.07905,478.81116 522.53236,480.8888 522.53236,483.15532   C 522.53236,487.04619 521.28577,490.33264 518.83037,493.05247   C 516.3372,495.73452 511.87971,497.09443 505.38234,497.09443   L 493.63421,497.09443   L 493.63421,515.71768   L 487.59015,515.71768   z  M 493.63421,491.69255   L 505.49567,491.69255   C 509.38653,491.69255 512.18191,490.97482 513.84402,489.50158   C 515.46837,488.02835 516.29942,485.98848 516.29942,483.3442   C 516.29942,481.41766 515.80834,479.79332 514.82618,478.4334   C 513.8818,477.07349 512.59744,476.16688 511.01087,475.71358   C 509.99094,475.44915 508.10217,475.33583 505.34457,475.33583   L 493.63421,475.33583   L 493.63421,491.69255   z "
     style="fill:#000000;fill-rule:nonzero;fill-opacity:1;stroke:#000000;stroke-width:1.0577101px;stroke-linecap:butt;stroke-linejoin:miter;stroke-miterlimit:112;stroke-dasharray:none;stroke-opacity:1;" />
  <path
     id="path11"
     d="  M 530.31408,515.71768   L 530.31408,469.93395   L 546.10418,469.93395   C 549.65506,469.93395 552.37489,470.12283 554.22588,470.57613   C 556.87016,471.18054 559.0989,472.27602 560.9499,473.86259   C 563.36752,475.90246 565.18074,478.50896 566.38955,481.68209   C 567.56058,484.85522 568.16499,488.48165 568.16499,492.56139   C 568.16499,496.03672 567.74946,499.1343 566.95618,501.81635   C 566.12512,504.4984 565.10519,506.72715 563.82082,508.46481   C 562.57424,510.24026 561.17655,511.60017 559.66553,512.6201   C 558.15452,513.64004 556.3413,514.39554 554.18811,514.9244   C 552.07269,515.45325 549.61729,515.71768 546.82191,515.71768   L 530.31408,515.71768   z  M 536.35814,510.31581   L 546.14196,510.31581   C 549.16398,510.31581 551.54383,510.0136 553.24372,509.44697   C 554.98139,508.88034 556.3413,508.08706 557.36124,507.06713   C 558.7967,505.63166 559.92996,503.70512 560.72324,501.2875   C 561.51653,498.86987 561.93206,495.9234 561.93206,492.48584   C 561.93206,487.68837 561.13877,483.98638 559.55221,481.41766   C 558.00342,478.84893 556.07687,477.14904 553.84813,476.24243   C 552.22379,475.63803 549.57951,475.33583 545.99085,475.33583   L 536.35814,475.33583   L 536.35814,510.31581   z "
     style="fill:#000000;fill-rule:nonzero;fill-opacity:1;stroke:#000000;stroke-width:1.0577101px;stroke-linecap:butt;stroke-linejoin:miter;stroke-miterlimit:112;stroke-dasharray:none;stroke-opacity:1;" />
</svg>
