<?xml version="1.0" encoding="UTF-8" standalone="no"?>
<svg
   xmlns:dc="http://purl.org/dc/elements/1.1/"
   xmlns:cc="http://creativecommons.org/ns#"
   xmlns:rdf="http://www.w3.org/1999/02/22-rdf-syntax-ns#"
   xmlns:svg="http://www.w3.org/2000/svg"
   xmlns="http://www.w3.org/2000/svg"
   id="svg13"
   height="112.9mm"
   width="112.9mm"
   version="1.0">
  <metadata
     id="metadata17">
    <rdf:RDF>
      <cc:Work
         rdf:about="">
        <dc:format>image/svg+xml</dc:format>
        <dc:type
           rdf:resource="http://purl.org/dc/dcmitype/StillImage" />
      </cc:Work>
    </rdf:RDF>
  </metadata>
  <defs
     id="defs3">
    <pattern
       y="0"
       x="0"
       height="6"
       width="6"
       patternUnits="userSpaceOnUse"
       id="EMFhbasepattern" />
  </defs>
  <path
     id="path5"
     d="  M 391.92062,391.38808   L 541.15652,391.38808   L 541.15652,583.2682   L 391.92062,583.2682   L 391.92062,391.38808   z "
     style="fill:none;stroke:#ff0000;stroke-width:5.3258066px;stroke-linecap:butt;stroke-linejoin:miter;stroke-miterlimit:112;stroke-dasharray:none;stroke-opacity:1;" />
  <path
     id="path7"
     d="  M 391.92062,584.36358   L 466.51969,684.53407   L 541.15652,584.36358  "
     style="fill:none;stroke:#ff0000;stroke-width:5.3258066px;stroke-linecap:butt;stroke-linejoin:miter;stroke-miterlimit:112;stroke-dasharray:none;stroke-opacity:1;" />
  <path
     id="path9"
     d="  M 427.76594,455.3733   L 427.76594,409.59403   L 445.0276,409.59403   C 448.08711,409.59403 450.39118,409.70734 452.01536,410.00951   C 454.24389,410.38723 456.13247,411.10489 457.64334,412.1625   C 459.15421,413.22011 460.40067,414.6932 461.30719,416.58179   C 462.25149,418.47037 462.70475,420.54781 462.70475,422.81411   C 462.70475,426.7046 461.45828,429.99073 459.00312,432.71029   C 456.51019,435.39208 452.05313,436.75186 445.5564,436.75186   L 433.80941,436.75186   L 433.80941,455.3733   L 427.76594,455.3733   z  M 433.80941,431.35051   L 445.66972,431.35051   C 449.5602,431.35051 452.35531,430.63285 454.01726,429.15975   C 455.64144,427.68666 456.47242,425.64699 456.47242,423.00297   C 456.47242,421.07662 455.98139,419.45243 454.99932,418.09265   C 454.05503,416.73287 452.77079,415.82635 451.18438,415.37309   C 450.16455,415.10869 448.27596,414.99538 445.51863,414.99538   L 433.80941,414.99538   L 433.80941,431.35051   z "
     style="fill:#ff0000;fill-rule:nonzero;fill-opacity:1;stroke:#ff0000;stroke-width:1.0576069px;stroke-linecap:butt;stroke-linejoin:miter;stroke-miterlimit:112;stroke-dasharray:none;stroke-opacity:1;" />
  <path
     id="path11"
     d="  M 470.48571,455.3733   L 470.48571,409.59403   L 486.27427,409.59403   C 489.82481,409.59403 492.54437,409.78288 494.39518,410.23614   C 497.0392,410.84049 499.26773,411.93587 501.11854,413.52228   C 503.53593,415.56195 505.34897,418.1682 506.55766,421.34102   C 507.72859,424.51384 508.33293,428.13992 508.33293,432.21926   C 508.33293,435.69426 507.91744,438.79153 507.12424,441.47332   C 506.29326,444.15511 505.27343,446.38364 503.98919,448.12114   C 502.74272,449.89641 501.34517,451.25619 499.83431,452.27602   C 498.32344,453.29586 496.5104,454.05129 494.35741,454.58009   C 492.2422,455.1089 489.78704,455.3733 486.99193,455.3733   L 470.48571,455.3733   z  M 476.52918,449.97195   L 486.31204,449.97195   C 489.33378,449.97195 491.71339,449.66978 493.41312,449.1032   C 495.15062,448.53663 496.5104,447.74342 497.53023,446.72359   C 498.96556,445.28826 500.09871,443.36191 500.89191,440.94452   C 501.68512,438.52713 502.10061,435.58094 502.10061,432.14372   C 502.10061,427.34671 501.3074,423.64509 499.72099,421.07662   C 498.17235,418.50814 496.246,416.80842 494.01747,415.9019   C 492.39328,415.29755 489.74927,414.99538 486.16096,414.99538   L 476.52918,414.99538   L 476.52918,449.97195   z "
     style="fill:#ff0000;fill-rule:nonzero;fill-opacity:1;stroke:#ff0000;stroke-width:1.0576069px;stroke-linecap:butt;stroke-linejoin:miter;stroke-miterlimit:112;stroke-dasharray:none;stroke-opacity:1;" />
</svg>
