<?xml version="1.0" encoding="UTF-8" standalone="no"?>
<svg
   xmlns:dc="http://purl.org/dc/elements/1.1/"
   xmlns:cc="http://creativecommons.org/ns#"
   xmlns:rdf="http://www.w3.org/1999/02/22-rdf-syntax-ns#"
   xmlns:svg="http://www.w3.org/2000/svg"
   xmlns="http://www.w3.org/2000/svg"
   id="svg11"
   height="112.9mm"
   width="112.9mm"
   version="1.0">
  <metadata
     id="metadata15">
    <rdf:RDF>
      <cc:Work
         rdf:about="">
        <dc:format>image/svg+xml</dc:format>
        <dc:type
           rdf:resource="http://purl.org/dc/dcmitype/StillImage" />
      </cc:Work>
    </rdf:RDF>
  </metadata>
  <defs
     id="defs3">
    <pattern
       y="0"
       x="0"
       height="6"
       width="6"
       patternUnits="userSpaceOnUse"
       id="EMFhbasepattern" />
  </defs>
  <path
     id="path5"
     d="  M 908.44722,801.72939   C 908.44722,860.57767 860.66605,908.32107 801.81777,908.32107   C 743.00727,908.32107 695.2261,860.57767 695.2261,801.72939   C 695.2261,742.88112 743.00727,695.13772 801.81777,695.13772   C 860.66605,695.13772 908.44722,742.88112 908.44722,801.72939   z "
     style="fill:none;stroke:#000000;stroke-width:10.651613px;stroke-linecap:butt;stroke-linejoin:miter;stroke-miterlimit:112;stroke-dasharray:none;stroke-opacity:1;" />
  <path
     id="path7"
     d="  M 709.54156,859.74669   L 801.81777,1063.7138  "
     style="fill:none;stroke:#000000;stroke-width:1.0576069px;stroke-linecap:butt;stroke-linejoin:miter;stroke-miterlimit:112;stroke-dasharray:none;stroke-opacity:1;" />
  <path
     id="path9"
     d="  M 790.7129,1036.216   C 770.88277,990.62556 719.13557,869.75619 719.13557,869.03853   C 719.13557,868.62304 721.74181,870.73825 724.95241,873.64667   C 738.39912,886.07355 750.52383,893.66566 765.14147,898.84038   C 776.92624,902.99526 788.03111,904.77053 801.93109,904.77053   C 831.27968,904.77053 857.11551,893.85452 879.47634,872.02249   C 883.17797,868.39641 886.1997,865.71462 886.1997,866.09233   C 886.1997,866.69668 804.65065,1053.5532 802.3088,1058.2746   C 801.32674,1060.2388 800.23136,1058.1235 790.7129,1036.216   L 790.7129,1036.216   z "
     style="fill:#000000;fill-rule:nonzero;fill-opacity:1;stroke:#000000;stroke-width:7.4410205px;stroke-linecap:butt;stroke-linejoin:miter;stroke-miterlimit:112;stroke-dasharray:none;stroke-opacity:1;" />
</svg>
