<?xml version="1.0" encoding="UTF-8" standalone="no"?>
<svg
   xmlns:dc="http://purl.org/dc/elements/1.1/"
   xmlns:cc="http://creativecommons.org/ns#"
   xmlns:rdf="http://www.w3.org/1999/02/22-rdf-syntax-ns#"
   xmlns:svg="http://www.w3.org/2000/svg"
   xmlns="http://www.w3.org/2000/svg"
   id="svg15"
   height="101.85mm"
   width="95.75mm"
   version="1.0">
  <metadata
     id="metadata19">
    <rdf:RDF>
      <cc:Work
         rdf:about="">
        <dc:format>image/svg+xml</dc:format>
        <dc:type
           rdf:resource="http://purl.org/dc/dcmitype/StillImage" />
      </cc:Work>
    </rdf:RDF>
  </metadata>
  <defs
     id="defs3">
    <pattern
       y="0"
       x="0"
       height="6"
       width="6"
       patternUnits="userSpaceOnUse"
       id="EMFhbasepattern" />
  </defs>
  <path
     id="path5"
     d="  M 54.345381,54.345381   L 54.345381,330.54779   L 307.53092,330.54779   L 307.53092,54.345381   L 54.345381,54.345381   z "
     style="fill:#aaffaa;fill-rule:evenodd;fill-opacity:1;stroke:none;" />
  <path
     id="path7"
     d="  M 307.53092,54.345381   L 307.53092,330.54779   L 54.345381,330.54779   L 54.345381,54.345381  "
     style="fill:none;stroke:#000000;stroke-width:9.5903616px;stroke-linecap:butt;stroke-linejoin:miter;stroke-miterlimit:10;stroke-dasharray:none;stroke-opacity:1;" />
  <path
     id="path9"
     d="  M 75.444176,150.24899   L 75.444176,150.24899   L 123.39598,102.29719   L 238.48032,102.29719   L 286.43212,150.24899   L 238.48032,198.2008   L 123.39598,198.2008   z "
     style="fill:#000000;fill-rule:evenodd;fill-opacity:1;stroke:none;" />
  <path
     id="path11"
     d="  M 75.444176,150.24899   L 75.444176,150.24899   L 123.39598,102.29719   L 238.48032,102.29719   L 286.43212,150.24899   L 238.48032,198.2008   L 123.39598,198.2008   z "
     style="fill:none;stroke:#000000;stroke-width:0.95903611px;stroke-linecap:butt;stroke-linejoin:miter;stroke-miterlimit:10;stroke-dasharray:none;stroke-opacity:1;" />
  <path
     id="path13"
     d="  M 147.17209,255.66305   L 147.17209,204.15482   L 166.59257,204.15482   C 170.02911,204.19478 172.6265,204.35462 174.4247,204.67429   C 176.98213,205.07389 179.1,205.87309 180.77831,207.07188   C 182.49658,208.27068 183.89518,209.90903 184.93413,212.0269   C 185.97309,214.18474 186.49257,216.50241 186.49257,219.05984   C 186.49257,223.45542 185.09397,227.17168 182.29678,230.16867   C 179.53956,233.20562 174.50462,234.72409 167.19197,234.72409   L 154.00522,234.72409   L 154.00522,255.66305   z  M 154.00522,228.6502   L 167.31184,228.6502   C 171.70743,228.6502 174.82429,227.851 176.70241,226.21265   C 178.54056,224.57429 179.45964,222.25662 179.45964,219.25964   C 179.45964,217.14176 178.9002,215.26365 177.82128,213.74518   C 176.74237,212.2267 175.30381,211.18775 173.54558,210.70823   C 172.38674,210.38855 170.26887,210.26867 167.15201,210.26867   L 154.00522,210.26867   z  M 192.64638,242.0767   L 198.96004,241.23755   C 199.67931,244.79397 200.91807,247.39136 202.6763,248.98976   C 204.39458,250.54819 206.51245,251.34739 209.02992,251.34739   C 212.0269,251.34739 214.50441,250.30843 216.58233,248.27048   C 218.62028,246.19257 219.65923,243.63514 219.65923,240.59819   C 219.65923,237.68112 218.7002,235.28353 216.78213,233.40542   C 214.90401,231.52731 212.50642,230.56827 209.54939,230.56827   C 208.3506,230.56827 206.87209,230.80803 205.11385,231.28755   L 205.79317,225.73313   C 206.23273,225.77309 206.55241,225.81305 206.83213,225.81305   C 209.50943,225.81305 211.94698,225.09377 214.10482,223.69518   C 216.26265,222.29658 217.34156,220.13875 217.34156,217.22168   C 217.34156,214.90401 216.54237,212.98594 214.98393,211.42751   C 213.38554,209.90903 211.38755,209.1498 208.91004,209.1498   C 206.43253,209.1498 204.39458,209.94899 202.75622,211.46747   C 201.11787,213.0259 200.03895,215.34357 199.59939,218.42048   L 193.24578,217.3016   C 194.04498,213.06586 195.80321,209.78915 198.52048,207.47148   C 201.27771,205.11385 204.67429,203.95502 208.7502,203.95502   C 211.54739,203.95502 214.14478,204.55441 216.50241,205.79317   C 218.9,206.99196 220.69819,208.63032 221.93694,210.70823   C 223.1757,212.78614 223.81506,215.02389 223.81506,217.34156   C 223.81506,219.57931 223.21566,221.57731 222.01686,223.41546   C 220.81807,225.25361 219.05984,226.69217 216.74217,227.77108   C 219.77911,228.49036 222.13674,229.92891 223.81506,232.16666   C 225.49337,234.36445 226.33253,237.12168 226.33253,240.43835   C 226.33253,244.95381 224.69417,248.75 221.41747,251.90682   C 218.14076,255.02369 214.0249,256.58212 208.98996,256.58212   C 204.4745,256.58212 200.71827,255.22349 197.76124,252.54618   C 194.76425,249.82891 193.04598,246.35241 192.64638,242.0767   z "
     style="fill:#000000;fill-rule:evenodd;fill-opacity:1;stroke:none;" />
</svg>
