<?xml version="1.0" encoding="UTF-8" standalone="no"?>
<svg
   xmlns:dc="http://purl.org/dc/elements/1.1/"
   xmlns:cc="http://creativecommons.org/ns#"
   xmlns:rdf="http://www.w3.org/1999/02/22-rdf-syntax-ns#"
   xmlns:svg="http://www.w3.org/2000/svg"
   xmlns="http://www.w3.org/2000/svg"
   id="svg15"
   height="116.05mm"
   width="135.35001mm"
   version="1.0">
  <metadata
     id="metadata19">
    <rdf:RDF>
      <cc:Work
         rdf:about="">
        <dc:format>image/svg+xml</dc:format>
        <dc:type
           rdf:resource="http://purl.org/dc/dcmitype/StillImage" />
      </cc:Work>
    </rdf:RDF>
  </metadata>
  <defs
     id="defs3">
    <pattern
       y="0"
       x="0"
       height="6"
       width="6"
       patternUnits="userSpaceOnUse"
       id="EMFhbasepattern" />
  </defs>
  <path
     id="path5"
     d="  M 174.2249,54.345381   C 54.345381,54.345381 54.345381,250.94779 174.2249,250.94779   C 174.2249,384.25381 337.26104,384.25381 337.26104,250.94779   C 457.14056,250.94779 457.14056,54.345381 337.26104,54.345381   z "
     style="fill:#ffff80;fill-rule:evenodd;fill-opacity:1;stroke:none;" />
  <path
     id="path7"
     d="  M 174.2249,54.345381   C 54.345381,54.345381 54.345381,250.94779 174.2249,250.94779   C 174.2249,384.25381 337.26104,384.25381 337.26104,250.94779   C 457.14056,250.94779 457.14056,54.345381 337.26104,54.345381  "
     style="fill:none;stroke:#000000;stroke-width:9.5903616px;stroke-linecap:butt;stroke-linejoin:miter;stroke-miterlimit:10;stroke-dasharray:none;stroke-opacity:1;" />
  <path
     id="path9"
     d="  M 150.24899,150.24899   L 150.24899,150.24899   L 198.2008,102.29719   L 313.28514,102.29719   L 361.23694,150.24899   L 313.28514,198.2008   L 198.2008,198.2008   z "
     style="fill:#000000;fill-rule:evenodd;fill-opacity:1;stroke:none;" />
  <path
     id="path11"
     d="  M 150.24899,150.24899   L 150.24899,150.24899   L 198.2008,102.29719   L 313.28514,102.29719   L 361.23694,150.24899   L 313.28514,198.2008   L 198.2008,198.2008   z "
     style="fill:none;stroke:#000000;stroke-width:0.95903611px;stroke-linecap:butt;stroke-linejoin:miter;stroke-miterlimit:10;stroke-dasharray:none;stroke-opacity:1;" />
  <path
     id="path13"
     d="  M 221.9769,255.66305   L 221.9769,204.15482   L 241.39739,204.15482   C 244.83393,204.19478 247.43132,204.35462 249.22951,204.67429   C 251.78694,205.07389 253.90482,205.87309 255.58313,207.07188   C 257.3014,208.27068 258.7,209.90903 259.73895,212.0269   C 260.77791,214.18474 261.29739,216.50241 261.29739,219.05984   C 261.29739,223.45542 259.89879,227.17168 257.1016,230.16867   C 254.34437,233.20562 249.30943,234.72409 241.99678,234.72409   L 228.81004,234.72409   L 228.81004,255.66305   z  M 228.81004,228.6502   L 242.11666,228.6502   C 246.51225,228.6502 249.62911,227.851 251.50723,226.21265   C 253.34538,224.57429 254.26445,222.25662 254.26445,219.25964   C 254.26445,217.14176 253.70502,215.26365 252.6261,213.74518   C 251.54719,212.2267 250.10863,211.18775 248.3504,210.70823   C 247.19156,210.38855 245.07369,210.26867 241.95682,210.26867   L 228.81004,210.26867   z  M 300.61787,249.58915   L 300.61787,255.66305   L 266.61204,255.66305   C 266.53212,254.14457 266.81184,252.66606 267.33132,251.26747   C 268.21044,248.9498 269.56907,246.67208 271.48714,244.43433   C 273.40522,242.19658 276.16245,239.55923 279.75883,236.64217   C 285.35321,232.04678 289.14939,228.41044 291.10743,225.73313   C 293.06546,223.05582 294.06445,220.49839 294.06445,218.1008   C 294.06445,215.62329 293.14538,213.50542 291.38714,211.78715   C 289.58895,210.06887 287.23132,209.18976 284.35421,209.18976   C 281.31727,209.18976 278.87971,210.10883 277.04156,211.94698   C 275.24337,213.74518 274.32429,216.30261 274.28433,219.53935   L 267.77088,218.86004   C 268.2504,214.0249 269.88875,210.30863 272.80582,207.79116   C 275.72289,205.23373 279.59899,203.95502 284.51405,203.95502   C 289.42911,203.95502 293.34518,205.35361 296.22228,208.07088   C 299.09939,210.82811 300.53795,214.2247 300.53795,218.26064   C 300.53795,220.33855 300.13835,222.33654 299.29919,224.33453   C 298.46004,226.33253 297.06144,228.41044 295.10341,230.60823   C 293.14538,232.80602 289.90863,235.84297 285.35321,239.67911   C 281.55702,242.8759 279.11947,245.03373 278.04056,246.15261   C 276.96164,247.31144 276.08253,248.43032 275.36325,249.58915   z "
     style="fill:#000000;fill-rule:evenodd;fill-opacity:1;stroke:none;" />
</svg>
