<?xml version="1.0" encoding="UTF-8" standalone="no"?>
<svg
   xmlns:dc="http://purl.org/dc/elements/1.1/"
   xmlns:cc="http://creativecommons.org/ns#"
   xmlns:rdf="http://www.w3.org/1999/02/22-rdf-syntax-ns#"
   xmlns:svg="http://www.w3.org/2000/svg"
   xmlns="http://www.w3.org/2000/svg"
   id="svg19"
   height="116.73mm"
   width="116.73mm"
   version="1.0">
  <metadata
     id="metadata23">
    <rdf:RDF>
      <cc:Work
         rdf:about="">
        <dc:format>image/svg+xml</dc:format>
        <dc:type
           rdf:resource="http://purl.org/dc/dcmitype/StillImage" />
      </cc:Work>
    </rdf:RDF>
  </metadata>
  <defs
     id="defs3">
    <pattern
       y="0"
       x="0"
       height="6"
       width="6"
       patternUnits="userSpaceOnUse"
       id="EMFhbasepattern" />
  </defs>
  <path
     id="path5"
     d="  M 172.6265,43.156626   L 172.6265,100.69879   L 268.53012,100.69879   L 268.53012,43.156626   L 172.6265,43.156626   z "
     style="fill:#000000;fill-rule:evenodd;fill-opacity:1;stroke:none;" />
  <path
     id="path7"
     d="  M 220.57831,386.49156   L 220.57831,386.49156   L 386.49156,220.57831   L 220.57831,54.665059   L 54.665059,220.57831   L 220.57831,386.49156   z "
     style="fill:#ff8080;fill-rule:evenodd;fill-opacity:1;stroke:none;" />
  <path
     id="path9"
     d="  M 220.57831,386.49156   L 220.57831,386.49156   L 386.49156,220.57831   L 220.57831,54.665059   L 54.665059,220.57831   L 220.57831,386.49156  "
     style="fill:none;stroke:#000000;stroke-width:9.5903616px;stroke-linecap:butt;stroke-linejoin:miter;stroke-miterlimit:10;stroke-dasharray:none;stroke-opacity:1;" />
  <path
     id="path11"
     d="  M 133.6257,183.81526   C 138.42088,184.93413 149.25,190.88815 154.80442,193.04598   C 161.71747,195.72329 168.67048,199.43956 175.90321,202.35662   C 180.81827,204.31466 217.34156,220.97791 218.54036,220.97791   C 220.77811,220.97791 256.62208,204.71425 261.85682,202.4765   C 269.24939,199.31968 276.04257,196.16285 283.43514,193.16586   C 289.06947,190.88815 300.01847,184.97409 304.93353,183.81526   L 304.93353,176.10301   L 133.6257,176.10301   L 133.6257,183.81526   z "
     style="fill:#ffffff;fill-rule:evenodd;fill-opacity:1;stroke:none;" />
  <path
     id="path13"
     d="  M 133.6257,188.6504   L 219.01988,225.77309   L 304.93353,188.6504   L 304.93353,264.89377   L 133.6257,264.89377   L 133.6257,188.6504   z  M 283.43514,193.16586   C 276.04257,196.16285 269.24939,199.31968 261.85682,202.4765   C 256.62208,204.71425 220.77811,220.97791 218.58032,220.97791   C 217.34156,220.97791 180.81827,204.31466 175.90321,202.35662   C 168.67048,199.43956 161.71747,195.72329 154.80442,193.04598   C 149.25,190.88815 138.42088,184.93413 133.6257,183.81526   L 133.6257,176.10301   L 304.93353,176.10301   L 304.93353,183.81526   C 300.01847,184.97409 289.06947,190.88815 283.43514,193.16586   z  M 129.7496,269.24939   L 308.80963,269.24939   L 308.80963,172.22691   L 129.7496,172.22691   z "
     style="fill:#000000;fill-rule:evenodd;fill-opacity:1;stroke:none;" />
  <path
     id="path15"
     d="  M 133.6257,264.89377   L 133.6257,264.89377   L 304.93353,264.89377   L 304.93353,188.6504   L 219.01988,225.77309   L 133.6257,188.6504   z "
     style="fill:#ffffff;fill-rule:evenodd;fill-opacity:1;stroke:none;" />
  <path
     id="path17"
     d="  M 169.78935,165.99317   L 169.78935,130.30903   L 182.05703,130.30903   C 184.85421,130.30903 186.97209,130.46887 188.4506,130.82851   C 190.48855,131.30803 192.20682,132.14719 193.68534,133.38594   C 195.56345,134.98434 196.96205,136.98233 197.88112,139.45984   C 198.84016,141.93735 199.27972,144.7745 199.27972,147.97128   C 199.27972,150.68855 198.96004,153.08614 198.36064,155.16405   C 197.72128,157.28193 196.88213,159.0002 195.92309,160.35883   C 194.92409,161.75743 193.84518,162.83634 192.64638,163.59558   C 191.48755,164.39478 190.04899,164.99417 188.41064,165.39377   C 186.73233,165.79337 184.81425,165.99317 182.65642,165.99317   z  M 174.50462,161.79739   L 182.13695,161.79739   C 184.49458,161.79739 186.33273,161.55763 187.6514,161.11807   C 189.01004,160.67851 190.08895,160.07911 190.84819,159.27992   C 191.96707,158.16104 192.84618,156.64257 193.48554,154.76446   C 194.1249,152.88634 194.40462,150.56867 194.40462,147.89136   C 194.40462,144.13514 193.80522,141.29799 192.56646,139.26004   C 191.36767,137.26205 189.84919,135.94337 188.13092,135.26405   C 186.85221,134.74458 184.81425,134.50482 182.01707,134.50482   L 174.50462,134.50482   z  M 206.59237,165.99317   L 206.59237,130.30903   L 211.30763,130.30903   L 211.30763,165.99317   z  M 218.06084,154.5247   L 222.49638,154.1251   C 222.69618,155.92329 223.21566,157.4018 223.9749,158.56064   C 224.73413,159.67952 225.93293,160.59859 227.57128,161.31787   C 229.16968,162.03715 231.00783,162.35682 233.04578,162.35682   C 234.84397,162.35682 236.44237,162.11707 237.801,161.55763   C 239.19959,161.03815 240.23855,160.31887 240.87791,159.35984   C 241.55723,158.44076 241.91686,157.4018 241.91686,156.32289   C 241.91686,155.20401 241.59719,154.20502 240.91787,153.36586   C 240.27851,152.5267 239.19959,151.84739 237.72108,151.28795   C 236.76204,150.88835 234.64417,150.32891 231.36747,149.52972   C 228.09076,148.73052 225.77309,148.01124 224.45441,147.29197   C 222.7761,146.41285 221.49739,145.29397 220.65823,143.9753   C 219.81907,142.65662 219.41947,141.17811 219.41947,139.53976   C 219.41947,137.74156 219.89899,136.06325 220.93795,134.46486   C 221.9769,132.90642 223.45542,131.74759 225.41345,130.90843   C 227.37148,130.10924 229.56927,129.70964 231.96686,129.70964   C 234.60421,129.70964 236.96184,130.10924 238.95984,130.98835   C 240.99779,131.82751 242.55622,133.06626 243.63514,134.74458   C 244.71405,136.38293 245.31345,138.26104 245.39337,140.37891   L 240.87791,140.69859   C 240.59819,138.46084 239.79899,136.74257 238.4004,135.58373   C 237.0018,134.4249 234.92389,133.86546 232.16666,133.86546   C 229.28955,133.86546 227.21164,134.38494 225.93293,135.42389   C 224.61425,136.46285 223.9749,137.74156 223.9749,139.22008   C 223.9749,140.49879 224.41445,141.53775 225.33353,142.37691   C 226.25261,143.21606 228.6502,144.05522 232.48634,144.93434   C 236.32249,145.81345 238.95984,146.57269 240.35843,147.21205   C 242.43634,148.17108 243.99478,149.36988 244.95381,150.84839   C 245.95281,152.32691 246.47229,154.00522 246.47229,155.92329   C 246.47229,157.84136 245.91285,159.5996 244.83393,161.27791   C 243.75502,162.95622 242.19658,164.2749 240.15863,165.19397   C 238.12068,166.15301 235.80301,166.59257 233.24558,166.59257   C 230.04879,166.59257 227.33152,166.15301 225.13373,165.19397   C 222.9759,164.2749 221.25763,162.83634 220.01887,160.95823   C 218.78012,159.08012 218.1008,156.92229 218.06084,154.5247   z  M 261.9767,165.99317   L 261.9767,134.50482   L 250.22851,134.50482   L 250.22851,130.30903   L 278.52008,130.30903   L 278.52008,134.50482   L 266.73192,134.50482   L 266.73192,165.99317   z "
     style="fill:#000000;fill-rule:evenodd;fill-opacity:1;stroke:none;" />
</svg>
