<?xml version="1.0" encoding="UTF-8" standalone="no"?>
<svg
   xmlns:dc="http://purl.org/dc/elements/1.1/"
   xmlns:cc="http://creativecommons.org/ns#"
   xmlns:rdf="http://www.w3.org/1999/02/22-rdf-syntax-ns#"
   xmlns:svg="http://www.w3.org/2000/svg"
   xmlns="http://www.w3.org/2000/svg"
   id="svg17"
   height="116.73mm"
   width="116.73mm"
   version="1.0">
  <metadata
     id="metadata21">
    <rdf:RDF>
      <cc:Work
         rdf:about="">
        <dc:format>image/svg+xml</dc:format>
        <dc:type
           rdf:resource="http://purl.org/dc/dcmitype/StillImage" />
      </cc:Work>
    </rdf:RDF>
  </metadata>
  <defs
     id="defs3">
    <pattern
       y="0"
       x="0"
       height="6"
       width="6"
       patternUnits="userSpaceOnUse"
       id="EMFhbasepattern" />
  </defs>
  <path
     id="path5"
     d="  M 172.6265,43.156626   L 172.6265,100.69879   L 268.53012,100.69879   L 268.53012,43.156626   L 172.6265,43.156626   z "
     style="fill:#000000;fill-rule:evenodd;fill-opacity:1;stroke:none;" />
  <path
     id="path7"
     d="  M 220.57831,386.49156   L 220.57831,386.49156   L 386.49156,220.57831   L 220.57831,54.665059   L 54.665059,220.57831   L 220.57831,386.49156   z "
     style="fill:#ff8080;fill-rule:evenodd;fill-opacity:1;stroke:none;" />
  <path
     id="path9"
     d="  M 220.57831,386.49156   L 220.57831,386.49156   L 386.49156,220.57831   L 220.57831,54.665059   L 54.665059,220.57831   L 220.57831,386.49156  "
     style="fill:none;stroke:#000000;stroke-width:9.5903616px;stroke-linecap:butt;stroke-linejoin:miter;stroke-miterlimit:10;stroke-dasharray:none;stroke-opacity:1;" />
  <path
     id="path11"
     d="  M 133.6257,183.81526   C 138.42088,184.93413 149.25,190.88815 154.80442,193.04598   C 161.71747,195.72329 168.67048,199.43956 175.90321,202.35662   C 180.81827,204.31466 217.34156,220.97791 218.54036,220.97791   C 220.77811,220.97791 256.62208,204.71425 261.85682,202.4765   C 269.24939,199.31968 276.04257,196.16285 283.43514,193.16586   C 289.06947,190.88815 300.01847,184.97409 304.93353,183.81526   L 304.93353,176.10301   L 133.6257,176.10301   L 133.6257,183.81526   z "
     style="fill:#ffffff;fill-rule:evenodd;fill-opacity:1;stroke:none;" />
  <path
     id="path13"
     d="  M 133.6257,188.6504   L 219.01988,225.77309   L 304.93353,188.6504   L 304.93353,264.89377   L 133.6257,264.89377   L 133.6257,188.6504   z  M 283.43514,193.16586   C 276.04257,196.16285 269.24939,199.31968 261.85682,202.4765   C 256.62208,204.71425 220.77811,220.97791 218.58032,220.97791   C 217.34156,220.97791 180.81827,204.31466 175.90321,202.35662   C 168.67048,199.43956 161.71747,195.72329 154.80442,193.04598   C 149.25,190.88815 138.42088,184.93413 133.6257,183.81526   L 133.6257,176.10301   L 304.93353,176.10301   L 304.93353,183.81526   C 300.01847,184.97409 289.06947,190.88815 283.43514,193.16586   z  M 129.7496,269.24939   L 308.80963,269.24939   L 308.80963,172.22691   L 129.7496,172.22691   z "
     style="fill:#000000;fill-rule:evenodd;fill-opacity:1;stroke:none;" />
  <path
     id="path15"
     d="  M 133.6257,264.89377   L 133.6257,264.89377   L 304.93353,264.89377   L 304.93353,188.6504   L 219.01988,225.77309   L 133.6257,188.6504   z "
     style="fill:#ffffff;fill-rule:evenodd;fill-opacity:1;stroke:none;" />
</svg>
