<?xml version="1.0" encoding="UTF-8" standalone="no"?>
<svg
   xmlns:dc="http://purl.org/dc/elements/1.1/"
   xmlns:cc="http://creativecommons.org/ns#"
   xmlns:rdf="http://www.w3.org/1999/02/22-rdf-syntax-ns#"
   xmlns:svg="http://www.w3.org/2000/svg"
   xmlns="http://www.w3.org/2000/svg"
   id="svg29"
   height="130.27mm"
   width="130.27mm"
   version="1.0">
  <metadata
     id="metadata33">
    <rdf:RDF>
      <cc:Work
         rdf:about="">
        <dc:format>image/svg+xml</dc:format>
        <dc:type
           rdf:resource="http://purl.org/dc/dcmitype/StillImage" />
      </cc:Work>
    </rdf:RDF>
  </metadata>
  <defs
     id="defs3">
    <pattern
       y="0"
       x="0"
       height="6"
       width="6"
       patternUnits="userSpaceOnUse"
       id="EMFhbasepattern" />
  </defs>
  <path
     id="path5"
     d="  M 198.2008,63.935742   L 198.2008,111.88755   L 294.10441,111.88755   L 294.10441,63.935742   L 198.2008,63.935742   z "
     style="fill:#000000;fill-rule:evenodd;fill-opacity:1;stroke:none;" />
  <path
     id="path7"
     d="  M 164.63454,327.67068   C 164.63454,437.95983 327.67068,437.95983 327.67068,327.67068   C 437.95983,327.67068 437.95983,164.63454 327.67068,164.63454   C 327.67068,54.345381 164.63454,54.345381 164.63454,164.63454   C 54.345381,164.63454 54.345381,327.67068 164.63454,327.67068   z "
     style="fill:#ffff80;fill-rule:evenodd;fill-opacity:1;stroke:none;" />
  <path
     id="path9"
     d="  M 164.63454,327.67068   C 164.63454,437.95983 327.67068,437.95983 327.67068,327.67068   C 437.95983,327.67068 437.95983,164.63454 327.67068,164.63454   C 327.67068,54.345381 164.63454,54.345381 164.63454,164.63454   C 54.345381,164.63454 54.345381,327.67068 164.63454,327.67068  "
     style="fill:none;stroke:#000000;stroke-width:9.5903616px;stroke-linecap:butt;stroke-linejoin:miter;stroke-miterlimit:10;stroke-dasharray:none;stroke-opacity:1;" />
  <path
     id="path11"
     d="  M 243.11566,259.97871   L 247.03172,259.97871   C 254.46425,259.97871 261.69698,248.03072 261.69698,239.91887   L 261.69698,236.48233   C 261.69698,227.73112 254.06465,216.42249 245.55321,216.42249   L 243.59518,216.42249   C 233.96486,216.42249 227.49136,228.29056 227.09176,238.0008   C 226.73213,247.63112 233.9249,259.97871 243.11566,259.97871   z "
     style="fill:#ffffff;fill-rule:evenodd;fill-opacity:1;stroke:none;" />
  <path
     id="path13"
     d="  M 192.7263,274.64397   L 192.7263,273.16546   C 192.7263,268.57008 189.08996,263.3753 184.41466,263.3753   C 176.70241,263.3753 174.26486,275.40321 178.22088,281.31727   C 183.13594,288.55 192.7263,283.79478 192.7263,274.64397   z "
     style="fill:#ffffff;fill-rule:evenodd;fill-opacity:1;stroke:none;" />
  <path
     id="path15"
     d="  M 298.38012,274.12449   L 298.69979,278.67992   L 303.25522,284.55401   L 309.60883,284.43413   C 311.76666,281.23735 314.52389,281.31727 314.52389,274.64397   L 314.52389,274.12449   C 314.52389,269.28935 311.28714,263.3753 306.69176,263.3753   C 301.93654,263.3753 297.7008,269.64899 298.38012,274.12449   z "
     style="fill:#ffffff;fill-rule:evenodd;fill-opacity:1;stroke:none;" />
  <path
     id="path17"
     d="  M 308.64979,288.82971   L 312.88554,287.3512   L 313.5249,301.53694   L 308.64979,301.53694   z  M 273.44518,269.24939   C 279.43915,272.44618 279.75883,274.64397 283.03554,280.67791   C 285.39317,284.91365 288.58996,289.86867 288.58996,296.14237   C 288.94959,296.7018 289.74879,298.1004 290.54799,298.1004   C 293.34518,298.1004 296.42208,287.67088 298.85963,285.87269   L 298.85963,286.87168   L 299.85863,286.87168   L 299.85863,301.53694   L 273.44518,301.53694   z  M 226.97188,267.77088   C 226.97188,264.81385 237.48132,265.33333 241.15763,265.33333   C 246.67208,265.33333 252.54618,263.85482 256.30241,263.85482   C 258.97972,263.85482 262.49618,265.69297 265.13353,266.33233   L 265.13353,301.53694   L 226.97188,301.53694   z  M 192.24678,285.87269   C 195.00401,286.87168 198.2008,299.09939 200.55843,299.09939   C 204.67429,299.09939 204.87409,287.19136 207.39156,282.95562   C 210.02891,278.52008 212.38654,271.56706 218.14076,270.24839   L 218.14076,301.53694   L 192.24678,301.53694   z  M 179.13996,287.83072   C 180.33875,288.1504 182.93614,288.7498 182.93614,290.26827   L 182.93614,301.53694   L 178.46064,301.53694   z  M 298.38012,274.12449   C 297.7008,269.64899 301.93654,263.3753 306.69176,263.3753   C 311.28714,263.3753 314.52389,269.28935 314.52389,274.12449   L 314.52389,274.64397   C 314.52389,281.31727 311.76666,281.23735 309.60883,284.43413   L 303.25522,284.55401   L 298.69979,278.67992   z  M 192.7263,274.64397   C 192.7263,283.79478 183.13594,288.55 178.22088,281.31727   C 174.26486,275.40321 176.70241,263.3753 184.41466,263.3753   C 189.08996,263.3753 192.7263,268.57008 192.7263,273.16546   z  M 192.24678,192.96606   L 218.14076,192.96606   L 218.14076,264.37429   C 218.14076,266.01265 213.30562,266.93172 211.42751,268.8498   C 209.86907,270.40823 208.07088,273.1255 206.79217,275.04357   C 204.59437,278.32028 200.67831,285.31325 200.55843,290.26827   L 195.60341,281.99658   C 196.28273,280.67791 197.12188,277.08152 197.12188,275.12349   L 197.12188,272.20642   C 197.12188,266.61204 192.24678,263.3753 192.24678,260.45823   z  M 273.44518,192.96606   L 299.85863,192.96606   L 299.85863,260.45823   C 299.85863,261.29739 295.02349,266.01265 294.14437,269.92871   C 292.74578,276.24237 294.30421,277.16144 295.42309,281.95662   L 291.78674,288.47008   C 290.66787,284.63393 286.552,277.92068 284.47409,274.84377   C 281.63694,270.60803 279.71887,265.85281 273.44518,265.33333   z  M 226.97188,254.58413   L 232.7261,261.05763   L 226.97188,262.41626   z  M 265.33333,248.3504   L 265.13353,261.41727   L 258.02068,260.09859   z  M 243.11566,259.97871   C 233.9249,259.97871 226.73213,247.63112 227.09176,238.0008   C 227.49136,228.29056 233.96486,216.42249 243.59518,216.42249   L 245.55321,216.42249   C 254.06465,216.42249 261.69698,227.73112 261.69698,236.48233   L 261.69698,239.91887   C 261.69698,248.03072 254.46425,259.97871 247.03172,259.97871   z  M 226.97188,192.96606   L 265.13353,192.96606   L 265.13353,228.6502   C 262.7759,225.97289 262.3763,222.21666 258.14056,218.02088   C 255.34337,215.22369 251.38735,212.50642 246.03273,212.50642   L 245.07369,212.50642   C 240.75803,212.50642 236.40241,213.70522 233.9249,215.58333   C 232.60622,216.58233 231.36747,217.46144 230.16867,218.66024   C 228.85,219.93895 228.41044,221.33755 226.97188,222.29658   z  M 167.79136,192.96606   L 182.93614,192.96606   L 182.93614,259.45923   C 176.62249,260.93775 171.70743,266.8518 171.70743,274.64397   C 171.70743,279.99859 174.4247,281.75682 174.6245,284.87369   C 174.90421,288.78975 174.14498,293.06546 174.14498,297.62088   L 174.14498,301.53694   L 167.79136,301.53694   L 167.79136,312.76566   L 320.87751,312.76566   L 320.87751,301.53694   L 317.88052,301.53694   L 316.96144,282.95562   C 322.55582,274.60401 317.48092,261.53714 308.64979,259.45923   L 308.64979,192.96606   L 320.87751,192.96606   L 320.87751,181.69739   L 167.79136,181.69739   z "
     style="fill:#000000;fill-rule:evenodd;fill-opacity:1;stroke:none;" />
  <path
     id="path19"
     d="  M 178.46064,301.53694   L 182.93614,301.53694   L 182.93614,290.26827   C 182.93614,288.7498 180.33875,288.1504 179.13996,287.83072   z "
     style="fill:#ffffff;fill-rule:evenodd;fill-opacity:1;stroke:none;" />
  <path
     id="path21"
     d="  M 192.24678,301.53694   L 218.14076,301.53694   L 218.14076,270.24839   C 212.38654,271.56706 210.02891,278.52008 207.39156,282.95562   C 204.87409,287.19136 204.67429,299.09939 200.55843,299.09939   C 198.2008,299.09939 195.00401,286.87168 192.24678,285.87269   z "
     style="fill:#ffffff;fill-rule:evenodd;fill-opacity:1;stroke:none;" />
  <path
     id="path23"
     d="  M 226.97188,301.53694   L 265.13353,301.53694   L 265.13353,266.33233   C 262.49618,265.69297 258.97972,263.85482 256.30241,263.85482   C 252.54618,263.85482 246.67208,265.33333 241.15763,265.33333   C 237.48132,265.33333 226.97188,264.81385 226.97188,267.77088   z "
     style="fill:#ffffff;fill-rule:evenodd;fill-opacity:1;stroke:none;" />
  <path
     id="path25"
     d="  M 273.44518,301.53694   L 299.85863,301.53694   L 299.85863,286.87168   L 298.85963,286.87168   L 298.85963,285.87269   C 296.42208,287.67088 293.34518,298.1004 290.54799,298.1004   C 289.74879,298.1004 288.94959,296.7018 288.58996,296.14237   C 288.58996,289.86867 285.39317,284.91365 283.03554,280.67791   C 279.75883,274.64397 279.43915,272.44618 273.44518,269.24939   z "
     style="fill:#ffffff;fill-rule:evenodd;fill-opacity:1;stroke:none;" />
  <path
     id="path27"
     d="  M 308.64979,301.53694   L 308.64979,301.53694   L 313.5249,301.53694   L 312.88554,287.3512   L 308.64979,288.82971   z "
     style="fill:#ffffff;fill-rule:evenodd;fill-opacity:1;stroke:none;" />
</svg>
