<?xml version="1.0" encoding="UTF-8" standalone="no"?>
<svg
   xmlns:dc="http://purl.org/dc/elements/1.1/"
   xmlns:cc="http://creativecommons.org/ns#"
   xmlns:rdf="http://www.w3.org/1999/02/22-rdf-syntax-ns#"
   xmlns:svg="http://www.w3.org/2000/svg"
   xmlns="http://www.w3.org/2000/svg"
   id="svg15"
   height="116.05mm"
   width="135.35001mm"
   version="1.0">
  <metadata
     id="metadata19">
    <rdf:RDF>
      <cc:Work
         rdf:about="">
        <dc:format>image/svg+xml</dc:format>
        <dc:type
           rdf:resource="http://purl.org/dc/dcmitype/StillImage" />
      </cc:Work>
    </rdf:RDF>
  </metadata>
  <defs
     id="defs3">
    <pattern
       y="0"
       x="0"
       height="6"
       width="6"
       patternUnits="userSpaceOnUse"
       id="EMFhbasepattern" />
  </defs>
  <path
     id="path5"
     d="  M 174.2249,54.345381   C 54.345381,54.345381 54.345381,250.94779 174.2249,250.94779   C 174.2249,384.25381 337.26104,384.25381 337.26104,250.94779   C 457.14056,250.94779 457.14056,54.345381 337.26104,54.345381   z "
     style="fill:#ffff80;fill-rule:evenodd;fill-opacity:1;stroke:none;" />
  <path
     id="path7"
     d="  M 174.2249,54.345381   C 54.345381,54.345381 54.345381,250.94779 174.2249,250.94779   C 174.2249,384.25381 337.26104,384.25381 337.26104,250.94779   C 457.14056,250.94779 457.14056,54.345381 337.26104,54.345381  "
     style="fill:none;stroke:#000000;stroke-width:9.5903616px;stroke-linecap:butt;stroke-linejoin:miter;stroke-miterlimit:10;stroke-dasharray:none;stroke-opacity:1;" />
  <path
     id="path9"
     d="  M 150.24899,150.24899   L 150.24899,150.24899   L 198.2008,102.29719   L 313.28514,102.29719   L 361.23694,150.24899   L 313.28514,198.2008   L 198.2008,198.2008   z "
     style="fill:#000000;fill-rule:evenodd;fill-opacity:1;stroke:none;" />
  <path
     id="path11"
     d="  M 150.24899,150.24899   L 150.24899,150.24899   L 198.2008,102.29719   L 313.28514,102.29719   L 361.23694,150.24899   L 313.28514,198.2008   L 198.2008,198.2008   z "
     style="fill:none;stroke:#000000;stroke-width:0.95903611px;stroke-linecap:butt;stroke-linejoin:miter;stroke-miterlimit:10;stroke-dasharray:none;stroke-opacity:1;" />
  <path
     id="path13"
     d="  M 218.14076,255.66305   L 218.14076,204.15482   L 237.56124,204.15482   C 240.99779,204.19478 243.59518,204.35462 245.39337,204.67429   C 247.9508,205.07389 250.06867,205.87309 251.74698,207.07188   C 253.46526,208.27068 254.86385,209.90903 255.90281,212.0269   C 256.94176,214.18474 257.46124,216.50241 257.46124,219.05984   C 257.46124,223.45542 256.06265,227.17168 253.26546,230.16867   C 250.50823,233.20562 245.47329,234.72409 238.16064,234.72409   L 224.97389,234.72409   L 224.97389,255.66305   z  M 224.97389,228.6502   L 238.28052,228.6502   C 242.6761,228.6502 245.79297,227.851 247.67108,226.21265   C 249.50923,224.57429 250.42831,222.25662 250.42831,219.25964   C 250.42831,217.14176 249.86887,215.26365 248.78996,213.74518   C 247.71104,212.2267 246.27249,211.18775 244.51425,210.70823   C 243.35542,210.38855 241.23755,210.26867 238.12068,210.26867   L 224.97389,210.26867   z  M 265.85281,255.66305   L 265.85281,204.15482   L 285.15341,204.15482   C 289.10943,204.19478 292.26626,204.71425 294.62389,205.75321   C 297.02148,206.79217 298.85963,208.39056 300.21827,210.54839   C 301.5769,212.70622 302.21626,214.98393 302.21626,217.34156   C 302.21626,219.53935 301.61686,221.61727 300.45803,223.5753   C 299.25923,225.49337 297.46104,227.09176 295.02349,228.2506   C 298.14036,229.16968 300.53795,230.72811 302.21626,232.9259   C 303.89457,235.12369 304.73373,237.72108 304.73373,240.71807   C 304.73373,243.15562 304.21425,245.39337 303.21526,247.47128   C 302.1763,249.54919 300.93755,251.14759 299.41907,252.26646   C 297.94056,253.38534 296.06245,254.22449 293.78473,254.78393   C 291.54698,255.38333 288.7498,255.66305 285.47309,255.66305   z  M 272.64598,225.81305   L 283.79478,225.81305   C 286.83172,225.81305 288.98955,225.61325 290.30823,225.21365   C 292.0265,224.69417 293.34518,223.85502 294.22429,222.65622   C 295.10341,221.45743 295.54297,219.93895 295.54297,218.14076   C 295.54297,216.46245 295.10341,214.94397 294.30421,213.6253   C 293.46506,212.34658 292.30622,211.46747 290.78775,210.98795   C 289.26927,210.50843 286.67188,210.26867 282.95562,210.26867   L 272.64598,210.26867   z  M 272.64598,249.58915   L 285.47309,249.58915   C 287.67088,249.58915 289.22931,249.50923 290.10843,249.34939   C 291.66686,249.06968 292.98554,248.59016 294.06445,247.9508   C 295.10341,247.27148 295.98253,246.31245 296.66184,245.07369   C 297.34116,243.83494 297.66084,242.39638 297.66084,240.71807   C 297.66084,238.8 297.18132,237.16164 296.18233,235.72309   C 295.22329,234.32449 293.86465,233.3255 292.10642,232.76606   C 290.34819,232.16666 287.83072,231.88694 284.55401,231.88694   L 272.64598,231.88694   z "
     style="fill:#000000;fill-rule:evenodd;fill-opacity:1;stroke:none;" />
</svg>
