<?xml version="1.0" encoding="UTF-8" standalone="no"?>
<svg
   xmlns:dc="http://purl.org/dc/elements/1.1/"
   xmlns:cc="http://creativecommons.org/ns#"
   xmlns:rdf="http://www.w3.org/1999/02/22-rdf-syntax-ns#"
   xmlns:svg="http://www.w3.org/2000/svg"
   xmlns="http://www.w3.org/2000/svg"
   id="svg15"
   height="101.85mm"
   width="95.75mm"
   version="1.0">
  <metadata
     id="metadata19">
    <rdf:RDF>
      <cc:Work
         rdf:about="">
        <dc:format>image/svg+xml</dc:format>
        <dc:type
           rdf:resource="http://purl.org/dc/dcmitype/StillImage" />
      </cc:Work>
    </rdf:RDF>
  </metadata>
  <defs
     id="defs3">
    <pattern
       y="0"
       x="0"
       height="6"
       width="6"
       patternUnits="userSpaceOnUse"
       id="EMFhbasepattern" />
  </defs>
  <path
     id="path5"
     d="  M 54.345381,54.345381   L 54.345381,330.54779   L 307.53092,330.54779   L 307.53092,54.345381   L 54.345381,54.345381   z "
     style="fill:#aaffaa;fill-rule:evenodd;fill-opacity:1;stroke:none;" />
  <path
     id="path7"
     d="  M 307.53092,54.345381   L 307.53092,330.54779   L 54.345381,330.54779   L 54.345381,54.345381  "
     style="fill:none;stroke:#000000;stroke-width:9.5903616px;stroke-linecap:butt;stroke-linejoin:miter;stroke-miterlimit:10;stroke-dasharray:none;stroke-opacity:1;" />
  <path
     id="path9"
     d="  M 75.444176,150.24899   L 75.444176,150.24899   L 123.39598,102.29719   L 238.48032,102.29719   L 286.43212,150.24899   L 238.48032,198.2008   L 123.39598,198.2008   z "
     style="fill:#000000;fill-rule:evenodd;fill-opacity:1;stroke:none;" />
  <path
     id="path11"
     d="  M 75.444176,150.24899   L 75.444176,150.24899   L 123.39598,102.29719   L 238.48032,102.29719   L 286.43212,150.24899   L 238.48032,198.2008   L 123.39598,198.2008   z "
     style="fill:none;stroke:#000000;stroke-width:0.95903611px;stroke-linecap:butt;stroke-linejoin:miter;stroke-miterlimit:10;stroke-dasharray:none;stroke-opacity:1;" />
  <path
     id="path13"
     d="  M 143.33594,255.66305   L 143.33594,204.15482   L 162.75642,204.15482   C 166.19297,204.19478 168.79036,204.35462 170.58855,204.67429   C 173.14598,205.07389 175.26385,205.87309 176.94217,207.07188   C 178.66044,208.27068 180.05903,209.90903 181.09799,212.0269   C 182.13695,214.18474 182.65642,216.50241 182.65642,219.05984   C 182.65642,223.45542 181.25783,227.17168 178.46064,230.16867   C 175.70341,233.20562 170.66847,234.72409 163.35582,234.72409   L 150.16907,234.72409   L 150.16907,255.66305   z  M 150.16907,228.6502   L 163.4757,228.6502   C 167.87128,228.6502 170.98815,227.851 172.86626,226.21265   C 174.70442,224.57429 175.62349,222.25662 175.62349,219.25964   C 175.62349,217.14176 175.06405,215.26365 173.98514,213.74518   C 172.90622,212.2267 171.46767,211.18775 169.70944,210.70823   C 168.5506,210.38855 166.43273,210.26867 163.31586,210.26867   L 150.16907,210.26867   z  M 191.04799,255.66305   L 191.04799,204.15482   L 210.34859,204.15482   C 214.30462,204.19478 217.46144,204.71425 219.81907,205.75321   C 222.21666,206.79217 224.05482,208.39056 225.41345,210.54839   C 226.77209,212.70622 227.41144,214.98393 227.41144,217.34156   C 227.41144,219.53935 226.81204,221.61727 225.65321,223.5753   C 224.45441,225.49337 222.65622,227.09176 220.21867,228.2506   C 223.33554,229.16968 225.73313,230.72811 227.41144,232.9259   C 229.08976,235.12369 229.92891,237.72108 229.92891,240.71807   C 229.92891,243.15562 229.40943,245.39337 228.41044,247.47128   C 227.37148,249.54919 226.13273,251.14759 224.61425,252.26646   C 223.13574,253.38534 221.25763,254.22449 218.97992,254.78393   C 216.74217,255.38333 213.94498,255.66305 210.66827,255.66305   z  M 197.84116,225.81305   L 208.98996,225.81305   C 212.0269,225.81305 214.18474,225.61325 215.50341,225.21365   C 217.22168,224.69417 218.54036,223.85502 219.41947,222.65622   C 220.29859,221.45743 220.73815,219.93895 220.73815,218.14076   C 220.73815,216.46245 220.29859,214.94397 219.49939,213.6253   C 218.66024,212.34658 217.5014,211.46747 215.98293,210.98795   C 214.46445,210.50843 211.86707,210.26867 208.1508,210.26867   L 197.84116,210.26867   z  M 197.84116,249.58915   L 210.66827,249.58915   C 212.86606,249.58915 214.42449,249.50923 215.30361,249.34939   C 216.86205,249.06968 218.18072,248.59016 219.25964,247.9508   C 220.29859,247.27148 221.17771,246.31245 221.85702,245.07369   C 222.53634,243.83494 222.85602,242.39638 222.85602,240.71807   C 222.85602,238.8 222.3765,237.16164 221.37751,235.72309   C 220.41847,234.32449 219.05984,233.3255 217.3016,232.76606   C 215.54337,232.16666 213.0259,231.88694 209.74919,231.88694   L 197.84116,231.88694   z "
     style="fill:#000000;fill-rule:evenodd;fill-opacity:1;stroke:none;" />
</svg>
