<?xml version="1.0" encoding="UTF-8" standalone="no"?>
<svg
   xmlns:dc="http://purl.org/dc/elements/1.1/"
   xmlns:cc="http://creativecommons.org/ns#"
   xmlns:rdf="http://www.w3.org/1999/02/22-rdf-syntax-ns#"
   xmlns:svg="http://www.w3.org/2000/svg"
   xmlns="http://www.w3.org/2000/svg"
   id="svg15"
   height="116.73mm"
   width="116.73mm"
   version="1.0">
  <metadata
     id="metadata19">
    <rdf:RDF>
      <cc:Work
         rdf:about="">
        <dc:format>image/svg+xml</dc:format>
        <dc:type
           rdf:resource="http://purl.org/dc/dcmitype/StillImage" />
      </cc:Work>
    </rdf:RDF>
  </metadata>
  <defs
     id="defs3">
    <pattern
       y="0"
       x="0"
       height="6"
       width="6"
       patternUnits="userSpaceOnUse"
       id="EMFhbasepattern" />
  </defs>
  <path
     id="path5"
     d="  M 172.6265,43.156626   L 172.6265,100.69879   L 268.53012,100.69879   L 268.53012,43.156626   L 172.6265,43.156626   z "
     style="fill:#000000;fill-rule:evenodd;fill-opacity:1;stroke:none;" />
  <path
     id="path7"
     d="  M 220.57831,386.49156   L 220.57831,386.49156   L 386.49156,220.57831   L 220.57831,54.665059   L 54.665059,220.57831   L 220.57831,386.49156   z "
     style="fill:#ff8080;fill-rule:evenodd;fill-opacity:1;stroke:none;" />
  <path
     id="path9"
     d="  M 220.57831,386.49156   L 220.57831,386.49156   L 386.49156,220.57831   L 220.57831,54.665059   L 54.665059,220.57831   L 220.57831,386.49156  "
     style="fill:none;stroke:#000000;stroke-width:9.5903616px;stroke-linecap:butt;stroke-linejoin:miter;stroke-miterlimit:10;stroke-dasharray:none;stroke-opacity:1;" />
  <path
     id="path11"
     d="  M 139.1002,190.72831   L 139.1002,146.09317   L 155.92329,146.09317   C 158.88032,146.09317 161.15803,146.25301 162.71646,146.53273   C 164.91425,146.89237 166.75241,147.57168 168.23092,148.61064   C 169.70944,149.6496 170.90823,151.08815 171.78735,152.9263   C 172.70642,154.76446 173.14598,156.80241 173.14598,159.0002   C 173.14598,162.79638 171.94719,165.99317 169.5496,168.63052   C 167.11205,171.26787 162.75642,172.58654 156.44277,172.58654   L 145.01425,172.58654   L 145.01425,190.72831   z  M 145.01425,167.31184   L 156.52269,167.31184   C 160.35883,167.31184 163.0761,166.59257 164.6745,165.19397   C 166.27289,163.75542 167.07209,161.75743 167.07209,159.2   C 167.07209,157.32189 166.59257,155.72349 165.63353,154.40482   C 164.71446,153.04618 163.4757,152.16707 161.91727,151.76747   C 160.91827,151.48775 159.08012,151.36787 156.40281,151.36787   L 145.01425,151.36787   z  M 180.77831,190.72831   L 180.77831,146.09317   L 200.55843,146.09317   C 204.51445,146.09317 207.5514,146.49277 209.62931,147.29197   C 211.70723,148.09116 213.34558,149.52972 214.58433,151.52771   C 215.82309,153.56566 216.42249,155.80341 216.42249,158.28092   C 216.42249,161.43775 215.42349,164.11506 213.34558,166.27289   C 211.30763,168.43072 208.1508,169.82931 203.8751,170.42871   C 205.43353,171.14799 206.63233,171.90723 207.43152,172.6265   C 209.1498,174.2249 210.78815,176.18293 212.34658,178.58052   L 220.09879,190.72831   L 212.66626,190.72831   L 206.75221,181.41767   C 205.03393,178.74036 203.59538,176.70241 202.4765,175.30381   C 201.39759,173.86526 200.39859,172.86626 199.47952,172.30682   C 198.6004,171.74739 197.72128,171.34779 196.80221,171.10803   C 196.12289,170.98815 195.04397,170.90823 193.5255,170.90823   L 186.65241,170.90823   L 186.65241,190.72831   z  M 186.65241,165.79337   L 199.35964,165.79337   C 202.0769,165.79337 204.15482,165.51365 205.67329,164.95421   C 207.23172,164.39478 208.3506,163.51566 209.1498,162.27691   C 209.94899,161.03815 210.34859,159.71948 210.34859,158.28092   C 210.34859,156.16305 209.58935,154.44478 208.03092,153.04618   C 206.51245,151.72751 204.11486,151.00823 200.79819,151.00823   L 186.65241,151.00823   z  M 223.89498,168.99016   C 223.89498,161.59759 225.89297,155.76345 229.84899,151.60763   C 233.84498,147.41185 238.95984,145.29397 245.27349,145.29397   C 249.38935,145.29397 253.10562,146.29297 256.38233,148.251   C 259.69899,150.20903 262.21646,152.96626 263.97469,156.48273   C 265.69297,159.99919 266.57208,163.99518 266.57208,168.47068   C 266.57208,172.98614 265.65301,177.02209 263.81486,180.61847   C 262.01666,184.1749 259.41927,186.89217 256.06265,188.73032   C 252.70602,190.56847 249.10963,191.48755 245.23353,191.48755   C 241.03775,191.48755 237.28152,190.44859 233.96486,188.4506   C 230.64819,186.41265 228.17068,183.65542 226.45241,180.13895   C 224.73413,176.62249 223.89498,172.90622 223.89498,168.99016   z  M 229.96887,169.07008   C 229.96887,174.46466 231.40743,178.7004 234.32449,181.77731   C 237.2016,184.89417 240.83795,186.41265 245.19357,186.41265   C 249.62911,186.41265 253.30542,184.85421 256.18253,181.73735   C 259.05963,178.62048 260.49819,174.18494 260.49819,168.43072   C 260.49819,164.79438 259.85883,161.63755 258.62008,158.92028   C 257.42128,156.20301 255.62309,154.1251 253.26546,152.60662   C 250.90783,151.12811 248.23052,150.36887 245.27349,150.36887   C 241.11767,150.36887 237.52128,151.80743 234.48433,154.68454   C 231.48735,157.56164 229.96887,162.35682 229.96887,169.07008   z  M 306.01245,175.06405   L 311.9265,176.54257   C 310.68775,181.41767 308.45,185.09397 305.25321,187.6514   C 302.01646,190.20883 298.1004,191.48755 293.4251,191.48755   C 288.62992,191.48755 284.71385,190.48855 281.71686,188.53052   C 278.67992,186.57249 276.4022,183.73534 274.84377,180.01907   C 273.24538,176.30281 272.48614,172.34678 272.48614,168.07108   C 272.48614,163.43574 273.36526,159.35984 275.12349,155.92329   C 276.92168,152.44678 279.43915,149.80944 282.71586,148.01124   C 285.99257,146.21305 289.58895,145.33393 293.54498,145.33393   C 298.02048,145.33393 301.73674,146.45281 304.81365,148.73052   C 307.8506,151.00823 309.96847,154.20502 311.16726,158.32088   L 305.33313,159.71948   C 304.29417,156.44277 302.81566,154.08514 300.85763,152.60662   C 298.85963,151.12811 296.38212,150.36887 293.4251,150.36887   C 289.98855,150.36887 287.11144,151.20803 284.83373,152.84638   C 282.51606,154.48474 280.87771,156.72249 279.95863,159.47972   C 279.03955,162.23695 278.56004,165.11405 278.56004,168.03112   C 278.56004,171.82731 279.11947,175.14397 280.23835,177.98112   C 281.31727,180.81827 283.03554,182.93614 285.39317,184.33474   C 287.71084,185.73333 290.22831,186.41265 292.94558,186.41265   C 296.26224,186.41265 299.05943,185.45361 301.3771,183.5755   C 303.65481,181.65743 305.21325,178.82028 306.01245,175.06405   z "
     style="fill:#000000;fill-rule:evenodd;fill-opacity:1;stroke:none;" />
  <path
     id="path13"
     d="  M 167.19197,291.4271   L 167.19197,246.79196   L 197.32168,246.79196   L 197.32168,252.06666   L 173.10602,252.06666   L 173.10602,265.89277   L 194.04498,265.89277   L 194.04498,271.12751   L 173.10602,271.12751   L 173.10602,291.4271   z  M 200.07891,291.4271   L 217.22168,246.79196   L 223.5753,246.79196   L 241.83694,291.4271   L 235.12369,291.4271   L 229.92891,277.88072   L 211.26767,277.88072   L 206.35261,291.4271   z  M 212.94598,273.08554   L 228.09076,273.08554   L 223.41546,260.73795   C 222.01686,256.98172 220.93795,253.90482 220.25863,251.46727   C 219.69919,254.34437 218.9,257.18152 217.86104,260.01867   z  M 278.4002,275.76285   L 284.31425,277.24136   C 283.0755,282.11646 280.83775,285.79277 277.64096,288.3502   C 274.40421,290.90763 270.48815,292.18634 265.81285,292.18634   C 261.01767,292.18634 257.1016,291.18735 254.10461,289.22931   C 251.06767,287.27128 248.78996,284.43413 247.23152,280.71787   C 245.63313,277.0016 244.87389,273.04558 244.87389,268.76988   C 244.87389,264.13453 245.75301,260.05863 247.51124,256.62208   C 249.30943,253.14558 251.8269,250.50823 255.10361,248.71004   C 258.38032,246.91184 261.9767,246.03273 265.93273,246.03273   C 270.36827,246.03273 274.12449,247.1516 277.2014,249.42931   C 280.23835,251.70702 282.35622,254.90381 283.55502,259.01967   L 277.72088,260.41827   C 276.68192,257.14156 275.20341,254.78393 273.24538,253.30542   C 271.24739,251.8269 268.76988,251.06767 265.81285,251.06767   C 262.3763,251.06767 259.49919,251.90682 257.18152,253.54518   C 254.90381,255.18353 253.26546,257.42128 252.34638,260.17851   C 251.42731,262.93574 250.94779,265.81285 250.94779,268.72992   C 250.94779,272.5261 251.50723,275.84277 252.58614,278.67992   C 253.70502,281.51706 255.42329,283.63494 257.78092,285.03353   C 260.09859,286.43212 262.61606,287.11144 265.33333,287.11144   C 268.65,287.11144 271.44718,286.15241 273.7249,284.27429   C 276.04257,282.35622 277.601,279.51907 278.4002,275.76285   z "
     style="fill:#000000;fill-rule:evenodd;fill-opacity:1;stroke:none;" />
</svg>
