<?xml version="1.0" encoding="UTF-8" standalone="no"?>
<svg
   xmlns:dc="http://purl.org/dc/elements/1.1/"
   xmlns:cc="http://creativecommons.org/ns#"
   xmlns:rdf="http://www.w3.org/1999/02/22-rdf-syntax-ns#"
   xmlns:svg="http://www.w3.org/2000/svg"
   xmlns="http://www.w3.org/2000/svg"
   id="svg15"
   height="95.75mm"
   width="95.75mm"
   version="1.0">
  <metadata
     id="metadata19">
    <rdf:RDF>
      <cc:Work
         rdf:about="">
        <dc:format>image/svg+xml</dc:format>
        <dc:type
           rdf:resource="http://purl.org/dc/dcmitype/StillImage" />
      </cc:Work>
    </rdf:RDF>
  </metadata>
  <defs
     id="defs3">
    <pattern
       y="0"
       x="0"
       height="6"
       width="6"
       patternUnits="userSpaceOnUse"
       id="EMFhbasepattern" />
  </defs>
  <path
     id="path5"
     d="  M 132.98634,15.983936   L 132.98634,54.345381   L 228.88996,54.345381   L 228.88996,15.983936   L 132.98634,15.983936   z "
     style="fill:#000000;fill-rule:evenodd;fill-opacity:1;stroke:none;" />
  <path
     id="path7"
     d="  M 54.345381,54.345381   L 54.345381,307.53092   L 307.53092,307.53092   L 307.53092,54.345381   L 54.345381,54.345381   z "
     style="fill:#aaffaa;fill-rule:evenodd;fill-opacity:1;stroke:none;" />
  <path
     id="path9"
     d="  M 54.345381,54.345381   L 307.53092,54.345381   L 307.53092,307.53092   L 54.345381,307.53092   z "
     style="fill:none;stroke:#000000;stroke-width:9.5903616px;stroke-linecap:butt;stroke-linejoin:miter;stroke-miterlimit:10;stroke-dasharray:none;stroke-opacity:1;" />
  <path
     id="path11"
     d="  M 99.460039,151.08815   L 99.460039,106.45301   L 116.28313,106.45301   C 119.24016,106.45301 121.51787,106.61285 123.0763,106.89257   C 125.27409,107.25221 127.11225,107.93152 128.59076,108.97048   C 130.06928,110.00944 131.26807,111.44799 132.14719,113.28614   C 133.06626,115.1243 133.50582,117.16225 133.50582,119.36004   C 133.50582,123.15622 132.30703,126.35301 129.90944,128.99036   C 127.47189,131.62771 123.11626,132.94638 116.80261,132.94638   L 105.37409,132.94638   L 105.37409,151.08815   z  M 105.37409,127.67168   L 116.88253,127.67168   C 120.71867,127.67168 123.43594,126.95241 125.03434,125.55381   C 126.63273,124.11526 127.43193,122.11727 127.43193,119.55984   C 127.43193,117.68173 126.95241,116.08333 125.99337,114.76466   C 125.0743,113.40602 123.83554,112.52691 122.27711,112.12731   C 121.27811,111.84759 119.43996,111.72771 116.76265,111.72771   L 105.37409,111.72771   z  M 141.13815,151.08815   L 141.13815,106.45301   L 160.91827,106.45301   C 164.87429,106.45301 167.91124,106.85261 169.98915,107.65181   C 172.06707,108.451 173.70542,109.88956 174.94417,111.88755   C 176.18293,113.9255 176.78233,116.16325 176.78233,118.64076   C 176.78233,121.79759 175.78333,124.4749 173.70542,126.63273   C 171.66747,128.79056 168.51064,130.18915 164.23494,130.78855   C 165.79337,131.50783 166.99217,132.26707 167.79136,132.98634   C 169.50964,134.58474 171.14799,136.54277 172.70642,138.94036   L 180.45863,151.08815   L 173.0261,151.08815   L 167.11205,141.77751   C 165.39377,139.1002 163.95522,137.06225 162.83634,135.66365   C 161.75743,134.2251 160.75843,133.2261 159.83936,132.66666   C 158.96024,132.10723 158.08112,131.70763 157.16205,131.46787   C 156.48273,131.34799 155.40381,131.26807 153.88534,131.26807   L 147.01225,131.26807   L 147.01225,151.08815   z  M 147.01225,126.15321   L 159.71948,126.15321   C 162.43674,126.15321 164.51466,125.87349 166.03313,125.31405   C 167.59156,124.75462 168.71044,123.8755 169.50964,122.63675   C 170.30883,121.39799 170.70843,120.07932 170.70843,118.64076   C 170.70843,116.52289 169.94919,114.80462 168.39076,113.40602   C 166.87229,112.08735 164.4747,111.36807 161.15803,111.36807   L 147.01225,111.36807   z  M 184.25482,129.35   C 184.25482,121.95743 186.25281,116.12329 190.20883,111.96747   C 194.20482,107.77169 199.31968,105.65381 205.63333,105.65381   C 209.74919,105.65381 213.46546,106.65281 216.74217,108.61084   C 220.05883,110.56887 222.5763,113.3261 224.33453,116.84257   C 226.05281,120.35903 226.93192,124.35502 226.93192,128.83052   C 226.93192,133.34598 226.01285,137.38193 224.1747,140.97831   C 222.3765,144.53474 219.77911,147.25201 216.42249,149.09016   C 213.06586,150.92831 209.46947,151.84739 205.59337,151.84739   C 201.39759,151.84739 197.64136,150.80843 194.3247,148.81044   C 191.00803,146.77249 188.53052,144.01526 186.81225,140.49879   C 185.09397,136.98233 184.25482,133.26606 184.25482,129.35   z  M 190.32871,129.42992   C 190.32871,134.8245 191.76727,139.06024 194.68433,142.13715   C 197.56144,145.25401 201.19779,146.77249 205.55341,146.77249   C 209.98895,146.77249 213.66526,145.21405 216.54237,142.09719   C 219.41947,138.98032 220.85803,134.54478 220.85803,128.79056   C 220.85803,125.15422 220.21867,121.99739 218.97992,119.28012   C 217.78112,116.56285 215.98293,114.48494 213.6253,112.96646   C 211.26767,111.48795 208.59036,110.72871 205.63333,110.72871   C 201.47751,110.72871 197.88112,112.16727 194.84417,115.04438   C 191.84719,117.92148 190.32871,122.71666 190.32871,129.42992   z  M 266.37229,135.42389   L 272.28634,136.90241   C 271.04759,141.77751 268.80984,145.45381 265.61305,148.01124   C 262.3763,150.56867 258.46024,151.84739 253.78494,151.84739   C 248.98976,151.84739 245.07369,150.84839 242.0767,148.89036   C 239.03976,146.93233 236.76204,144.09518 235.20361,140.37891   C 233.60522,136.66265 232.84598,132.70662 232.84598,128.43092   C 232.84598,123.79558 233.7251,119.71968 235.48333,116.28313   C 237.28152,112.80662 239.79899,110.16928 243.0757,108.37108   C 246.35241,106.57289 249.94879,105.69377 253.90482,105.69377   C 258.38032,105.69377 262.09658,106.81265 265.17349,109.09036   C 268.21044,111.36807 270.32831,114.56486 271.5271,118.68072   L 265.69297,120.07932   C 264.65401,116.80261 263.1755,114.44498 261.21747,112.96646   C 259.21947,111.48795 256.74196,110.72871 253.78494,110.72871   C 250.34839,110.72871 247.47128,111.56787 245.19357,113.20622   C 242.8759,114.84458 241.23755,117.08233 240.31847,119.83956   C 239.39939,122.59679 238.91988,125.47389 238.91988,128.39096   C 238.91988,132.18715 239.47931,135.50381 240.59819,138.34096   C 241.6771,141.17811 243.39538,143.29598 245.75301,144.69458   C 248.07068,146.09317 250.58815,146.77249 253.30542,146.77249   C 256.62208,146.77249 259.41927,145.81345 261.73694,143.93534   C 264.01465,142.01727 265.57309,139.18012 266.37229,135.42389   z "
     style="fill:#000000;fill-rule:evenodd;fill-opacity:1;stroke:none;" />
  <path
     id="path13"
     d="  M 127.55181,251.78694   L 127.55181,207.1518   L 157.68152,207.1518   L 157.68152,212.4265   L 133.46586,212.4265   L 133.46586,226.25261   L 154.40482,226.25261   L 154.40482,231.48735   L 133.46586,231.48735   L 133.46586,251.78694   z  M 160.43875,251.78694   L 177.58152,207.1518   L 183.93514,207.1518   L 202.19678,251.78694   L 195.48353,251.78694   L 190.28875,238.24056   L 171.62751,238.24056   L 166.71245,251.78694   z  M 173.30582,233.44538   L 188.4506,233.44538   L 183.7753,221.09779   C 182.3767,217.34156 181.29779,214.26466 180.61847,211.82711   C 180.05903,214.70421 179.25984,217.54136 178.22088,220.37851   z  M 238.76004,236.12269   L 244.67409,237.6012   C 243.43534,242.4763 241.19759,246.15261 238.0008,248.71004   C 234.76405,251.26747 230.84799,252.54618 226.17269,252.54618   C 221.37751,252.54618 217.46144,251.54719 214.46445,249.58915   C 211.42751,247.63112 209.1498,244.79397 207.59136,241.07771   C 205.99297,237.36144 205.23373,233.40542 205.23373,229.12972   C 205.23373,224.49437 206.11285,220.41847 207.87108,216.98192   C 209.66927,213.50542 212.18674,210.86807 215.46345,209.06988   C 218.74016,207.27168 222.33654,206.39257 226.29257,206.39257   C 230.72811,206.39257 234.48433,207.51144 237.56124,209.78915   C 240.59819,212.06686 242.71606,215.26365 243.91486,219.37951   L 238.08072,220.77811   C 237.04176,217.5014 235.56325,215.14377 233.60522,213.66526   C 231.60723,212.18674 229.12972,211.42751 226.17269,211.42751   C 222.73614,211.42751 219.85903,212.26666 217.54136,213.90502   C 215.26365,215.54337 213.6253,217.78112 212.70622,220.53835   C 211.78715,223.29558 211.30763,226.17269 211.30763,229.08976   C 211.30763,232.88594 211.86707,236.20261 212.94598,239.03976   C 214.06486,241.8769 215.78313,243.99478 218.14076,245.39337   C 220.45843,246.79196 222.9759,247.47128 225.69317,247.47128   C 229.00984,247.47128 231.80702,246.51225 234.08474,244.63413   C 236.40241,242.71606 237.96084,239.87891 238.76004,236.12269   z "
     style="fill:#000000;fill-rule:evenodd;fill-opacity:1;stroke:none;" />
</svg>
