<?xml version="1.0" encoding="UTF-8" standalone="no"?>
<svg
   xmlns:dc="http://purl.org/dc/elements/1.1/"
   xmlns:cc="http://creativecommons.org/ns#"
   xmlns:rdf="http://www.w3.org/1999/02/22-rdf-syntax-ns#"
   xmlns:svg="http://www.w3.org/2000/svg"
   xmlns="http://www.w3.org/2000/svg"
   id="svg15"
   height="130.27mm"
   width="130.27mm"
   version="1.0">
  <metadata
     id="metadata19">
    <rdf:RDF>
      <cc:Work
         rdf:about="">
        <dc:format>image/svg+xml</dc:format>
        <dc:type
           rdf:resource="http://purl.org/dc/dcmitype/StillImage" />
      </cc:Work>
    </rdf:RDF>
  </metadata>
  <defs
     id="defs3">
    <pattern
       y="0"
       x="0"
       height="6"
       width="6"
       patternUnits="userSpaceOnUse"
       id="EMFhbasepattern" />
  </defs>
  <path
     id="path5"
     d="  M 198.2008,63.935742   L 198.2008,111.88755   L 294.10441,111.88755   L 294.10441,63.935742   L 198.2008,63.935742   z "
     style="fill:#000000;fill-rule:evenodd;fill-opacity:1;stroke:none;" />
  <path
     id="path7"
     d="  M 164.63454,327.67068   C 164.63454,437.95983 327.67068,437.95983 327.67068,327.67068   C 437.95983,327.67068 437.95983,164.63454 327.67068,164.63454   C 327.67068,54.345381 164.63454,54.345381 164.63454,164.63454   C 54.345381,164.63454 54.345381,327.67068 164.63454,327.67068   z "
     style="fill:#ffff80;fill-rule:evenodd;fill-opacity:1;stroke:none;" />
  <path
     id="path9"
     d="  M 164.63454,327.67068   C 164.63454,437.95983 327.67068,437.95983 327.67068,327.67068   C 437.95983,327.67068 437.95983,164.63454 327.67068,164.63454   C 327.67068,54.345381 164.63454,54.345381 164.63454,164.63454   C 54.345381,164.63454 54.345381,327.67068 164.63454,327.67068  "
     style="fill:none;stroke:#000000;stroke-width:9.5903616px;stroke-linecap:butt;stroke-linejoin:miter;stroke-miterlimit:10;stroke-dasharray:none;stroke-opacity:1;" />
  <path
     id="path11"
     d="  M 164.6745,216.30261   L 164.6745,171.66747   L 181.49759,171.66747   C 184.45462,171.66747 186.73233,171.82731 188.29076,172.10703   C 190.48855,172.46666 192.3267,173.14598 193.80522,174.18494   C 195.28373,175.22389 196.48253,176.66245 197.36164,178.5006   C 198.28072,180.33875 198.72028,182.3767 198.72028,184.5745   C 198.72028,188.37068 197.52148,191.56747 195.12389,194.20482   C 192.68634,196.84217 188.33072,198.16084 182.01707,198.16084   L 170.58855,198.16084   L 170.58855,216.30261   z  M 170.58855,192.88614   L 182.09699,192.88614   C 185.93313,192.88614 188.6504,192.16686 190.24879,190.76827   C 191.84719,189.32972 192.64638,187.33172 192.64638,184.77429   C 192.64638,182.89618 192.16686,181.29779 191.20783,179.97911   C 190.28875,178.62048 189.05,177.74136 187.49156,177.34176   C 186.49257,177.06205 184.65442,176.94217 181.97711,176.94217   L 170.58855,176.94217   z  M 206.35261,216.30261   L 206.35261,171.66747   L 226.13273,171.66747   C 230.08875,171.66747 233.1257,172.06707 235.20361,172.86626   C 237.28152,173.66546 238.91988,175.10401 240.15863,177.10201   C 241.39739,179.13996 241.99678,181.37771 241.99678,183.85522   C 241.99678,187.01205 240.99779,189.68935 238.91988,191.84719   C 236.88192,194.00502 233.7251,195.40361 229.44939,196.00301   C 231.00783,196.72229 232.20662,197.48152 233.00582,198.2008   C 234.72409,199.79919 236.36245,201.75723 237.92088,204.15482   L 245.67309,216.30261   L 238.24056,216.30261   L 232.3265,206.99196   C 230.60823,204.31466 229.16968,202.2767 228.0508,200.87811   C 226.97188,199.43956 225.97289,198.44056 225.05381,197.88112   C 224.1747,197.32168 223.29558,196.92209 222.3765,196.68233   C 221.69719,196.56245 220.61827,196.48253 219.0998,196.48253   L 212.2267,196.48253   L 212.2267,216.30261   z  M 212.2267,191.36767   L 224.93393,191.36767   C 227.6512,191.36767 229.72911,191.08795 231.24759,190.52851   C 232.80602,189.96907 233.9249,189.08996 234.72409,187.8512   C 235.52329,186.61245 235.92289,185.29377 235.92289,183.85522   C 235.92289,181.73735 235.16365,180.01907 233.60522,178.62048   C 232.08674,177.3018 229.68915,176.58253 226.37249,176.58253   L 212.2267,176.58253   z  M 249.46927,194.56446   C 249.46927,187.17188 251.46727,181.33775 255.42329,177.18193   C 259.41927,172.98614 264.53413,170.86827 270.84779,170.86827   C 274.96365,170.86827 278.67992,171.86727 281.95662,173.8253   C 285.27329,175.78333 287.79076,178.54056 289.54899,182.05703   C 291.26726,185.57349 292.14638,189.56948 292.14638,194.04498   C 292.14638,198.56044 291.22731,202.59638 289.38915,206.19277   C 287.59096,209.74919 284.99357,212.46646 281.63694,214.30462   C 278.28032,216.14277 274.68393,217.06184 270.80783,217.06184   C 266.61204,217.06184 262.85582,216.02289 259.53915,214.0249   C 256.22249,211.98694 253.74498,209.22972 252.0267,205.71325   C 250.30843,202.19678 249.46927,198.48052 249.46927,194.56446   z  M 255.54317,194.64437   C 255.54317,200.03895 256.98172,204.2747 259.89879,207.3516   C 262.7759,210.46847 266.41225,211.98694 270.76787,211.98694   C 275.20341,211.98694 278.87971,210.42851 281.75682,207.31164   C 284.63393,204.19478 286.07249,199.75923 286.07249,194.00502   C 286.07249,190.36867 285.43313,187.21184 284.19437,184.49458   C 282.99558,181.77731 281.19739,179.69939 278.83976,178.18092   C 276.48212,176.70241 273.80482,175.94317 270.84779,175.94317   C 266.69196,175.94317 263.09558,177.38172 260.05863,180.25883   C 257.06164,183.13594 255.54317,187.93112 255.54317,194.64437   z  M 331.58674,200.63835   L 337.5008,202.11686   C 336.26204,206.99196 334.02429,210.66827 330.82751,213.2257   C 327.59076,215.78313 323.67469,217.06184 318.99939,217.06184   C 314.20421,217.06184 310.28815,216.06285 307.29116,214.10482   C 304.25421,212.14678 301.9765,209.30964 300.41807,205.59337   C 298.81967,201.87711 298.06044,197.92108 298.06044,193.64538   C 298.06044,189.01004 298.93955,184.93413 300.69779,181.49759   C 302.49598,178.02108 305.01345,175.38373 308.29016,173.58554   C 311.56686,171.78735 315.16325,170.90823 319.11927,170.90823   C 323.59477,170.90823 327.31104,172.02711 330.38795,174.30482   C 333.42489,176.58253 335.54277,179.77931 336.74156,183.89518   L 330.90742,185.29377   C 329.86847,182.01707 328.38996,179.65944 326.43192,178.18092   C 324.43393,176.70241 321.95642,175.94317 318.99939,175.94317   C 315.56285,175.94317 312.68574,176.78233 310.40803,178.42068   C 308.09036,180.05903 306.452,182.29678 305.53293,185.05401   C 304.61385,187.81124 304.13433,190.68835 304.13433,193.60542   C 304.13433,197.4016 304.69377,200.71827 305.81265,203.55542   C 306.89156,206.39257 308.60983,208.51044 310.96747,209.90903   C 313.28514,211.30763 315.80261,211.98694 318.51987,211.98694   C 321.83654,211.98694 324.63373,211.02791 326.9514,209.1498   C 329.22911,207.23172 330.78755,204.39458 331.58674,200.63835   z "
     style="fill:#000000;fill-rule:evenodd;fill-opacity:1;stroke:none;" />
  <path
     id="path13"
     d="  M 192.76626,317.0014   L 192.76626,272.36626   L 222.89598,272.36626   L 222.89598,277.64096   L 198.68032,277.64096   L 198.68032,291.46706   L 219.61927,291.46706   L 219.61927,296.7018   L 198.68032,296.7018   L 198.68032,317.0014   z  M 225.65321,317.0014   L 242.79598,272.36626   L 249.14959,272.36626   L 267.41124,317.0014   L 260.69799,317.0014   L 255.50321,303.45502   L 236.84196,303.45502   L 231.9269,317.0014   z  M 238.52028,298.65984   L 253.66506,298.65984   L 248.98976,286.31224   C 247.59116,282.55602 246.51225,279.47911 245.83293,277.04156   C 245.27349,279.91867 244.47429,282.75582 243.43534,285.59297   z  M 303.97449,301.33714   L 309.88855,302.81566   C 308.64979,307.69076 306.41204,311.36706 303.21526,313.92449   C 299.97851,316.48192 296.06245,317.76064 291.38714,317.76064   C 286.59196,317.76064 282.6759,316.76164 279.67891,314.80361   C 276.64196,312.84558 274.36425,310.00843 272.80582,306.29216   C 271.20743,302.5759 270.44819,298.61988 270.44819,294.34417   C 270.44819,289.70883 271.32731,285.63293 273.08554,282.19638   C 274.88373,278.71988 277.4012,276.08253 280.67791,274.28433   C 283.95461,272.48614 287.551,271.60702 291.50702,271.60702   C 295.94257,271.60702 299.69879,272.7259 302.7757,275.00361   C 305.81265,277.28132 307.93052,280.47811 309.12931,284.59397   L 303.29518,285.99257   C 302.25622,282.71586 300.77771,280.35823 298.81967,278.87971   C 296.82168,277.4012 294.34417,276.64196 291.38714,276.64196   C 287.9506,276.64196 285.07349,277.48112 282.75582,279.11947   C 280.47811,280.75783 278.83976,282.99558 277.92068,285.75281   C 277.0016,288.51004 276.52208,291.38714 276.52208,294.30421   C 276.52208,298.1004 277.08152,301.41706 278.16044,304.25421   C 279.27931,307.09136 280.99759,309.20923 283.35522,310.60783   C 285.67289,312.00642 288.19036,312.68574 290.90763,312.68574   C 294.22429,312.68574 297.02148,311.7267 299.29919,309.84859   C 301.61686,307.93052 303.1753,305.09337 303.97449,301.33714   z "
     style="fill:#000000;fill-rule:evenodd;fill-opacity:1;stroke:none;" />
</svg>
