<?xml version="1.0" encoding="UTF-8" standalone="no"?>
<svg
   xmlns:dc="http://purl.org/dc/elements/1.1/"
   xmlns:cc="http://creativecommons.org/ns#"
   xmlns:rdf="http://www.w3.org/1999/02/22-rdf-syntax-ns#"
   xmlns:svg="http://www.w3.org/2000/svg"
   xmlns="http://www.w3.org/2000/svg"
   id="svg29"
   height="130.27mm"
   width="130.27mm"
   version="1.0">
  <metadata
     id="metadata33">
    <rdf:RDF>
      <cc:Work
         rdf:about="">
        <dc:format>image/svg+xml</dc:format>
        <dc:type
           rdf:resource="http://purl.org/dc/dcmitype/StillImage" />
      </cc:Work>
    </rdf:RDF>
  </metadata>
  <defs
     id="defs3">
    <pattern
       y="0"
       x="0"
       height="6"
       width="6"
       patternUnits="userSpaceOnUse"
       id="EMFhbasepattern" />
  </defs>
  <path
     id="path5"
     d="  M 198.2008,63.935742   L 198.2008,111.88755   L 294.10441,111.88755   L 294.10441,63.935742   L 198.2008,63.935742   z "
     style="fill:#000000;fill-rule:evenodd;fill-opacity:1;stroke:none;" />
  <path
     id="path7"
     d="  M 164.63454,327.67068   C 164.63454,437.95983 327.67068,437.95983 327.67068,327.67068   C 437.95983,327.67068 437.95983,164.63454 327.67068,164.63454   C 327.67068,54.345381 164.63454,54.345381 164.63454,164.63454   C 54.345381,164.63454 54.345381,327.67068 164.63454,327.67068   z "
     style="fill:#ffff80;fill-rule:evenodd;fill-opacity:1;stroke:none;" />
  <path
     id="path9"
     d="  M 164.63454,327.67068   C 164.63454,437.95983 327.67068,437.95983 327.67068,327.67068   C 437.95983,327.67068 437.95983,164.63454 327.67068,164.63454   C 327.67068,54.345381 164.63454,54.345381 164.63454,164.63454   C 54.345381,164.63454 54.345381,327.67068 164.63454,327.67068  "
     style="fill:none;stroke:#000000;stroke-width:9.5903616px;stroke-linecap:butt;stroke-linejoin:miter;stroke-miterlimit:10;stroke-dasharray:none;stroke-opacity:1;" />
  <path
     id="path11"
     d="  M 243.59518,182.21686   L 243.59518,182.7763   C 243.59518,185.21385 244.83393,186.41265 247.27148,186.41265   C 248.51024,186.41265 249.90883,185.01405 249.90883,183.81526   C 249.90883,182.01707 249.50923,181.77731 249.34939,180.13895   C 248.19056,179.85923 248.1506,179.61948 246.752,179.61948   L 246.23253,179.61948   C 244.99377,179.61948 243.59518,181.01807 243.59518,182.21686   z "
     style="fill:#000000;fill-rule:evenodd;fill-opacity:1;stroke:none;" />
  <path
     id="path13"
     d="  M 249.34939,180.13895   C 249.50923,181.77731 249.90883,182.01707 249.90883,183.81526   C 249.90883,185.01405 248.51024,186.41265 247.27148,186.41265   C 244.83393,186.41265 243.59518,185.21385 243.59518,182.7763   L 243.59518,182.21686   C 243.59518,181.01807 244.99377,179.61948 246.23253,179.61948   L 246.752,179.61948   C 248.1506,179.61948 248.19056,179.85923 249.34939,180.13895   z  M 239.95883,182.21686   L 239.95883,183.81526   C 239.95883,186.73233 243.75502,189.56948 246.23253,189.56948   C 249.70903,189.56948 253.54518,187.2518 253.54518,183.81526   L 253.54518,181.17791   C 253.54518,178.7004 249.78895,176.46265 246.752,176.46265   C 243.2755,176.46265 239.95883,178.9002 239.95883,182.21686   z "
     style="fill:#ffffff;fill-rule:evenodd;fill-opacity:1;stroke:none;" />
  <path
     id="path15"
     d="  M 242.55622,194.80421   C 242.55622,196.08293 241.23755,196.76225 240.47831,197.92108   L 253.70502,197.76124   L 250.94779,195.84317   L 250.94779,191.64739   C 249.30943,191.80723 249.06968,192.16686 247.27148,192.16686   L 246.23253,192.16686   C 244.43433,192.16686 244.19457,191.80723 242.55622,191.64739   z "
     style="fill:#ffffff;fill-rule:evenodd;fill-opacity:1;stroke:none;" />
  <path
     id="path17"
     d="  M 214.82409,171.22791   L 220.05883,171.22791   L 220.05883,185.89317   C 220.05883,187.77128 214.50441,189.12992 212.74618,189.56948   L 212.74618,199.51948   L 224.77409,199.51948   L 224.77409,162.8763   L 214.82409,162.8763   z "
     style="fill:#ffffff;fill-rule:evenodd;fill-opacity:1;stroke:none;" />
  <path
     id="path19"
     d="  M 269.24939,199.51948   L 279.19939,199.51948   L 279.19939,190.60843   C 279.19939,188.81024 275.12349,187.61144 273.44518,187.4516   L 273.44518,171.22791   L 277.64096,171.22791   L 277.64096,162.8763   L 269.24939,162.8763   z "
     style="fill:#ffffff;fill-rule:evenodd;fill-opacity:1;stroke:none;" />
  <path
     id="path21"
     d="  M 188.6504,226.21265   L 188.6504,236.16265   L 304.85361,236.16265   L 304.85361,226.21265   C 304.85361,223.33554 287.51104,212.58634 284.43413,210.50843   C 278.52008,206.51245 266.49216,201.59739 256.702,201.59739   L 236.28253,201.59739   C 226.89196,201.59739 215.18373,206.99196 209.06988,210.50843   C 206.03293,212.26666 188.6504,223.5753 188.6504,226.21265   z "
     style="fill:#ffffff;fill-rule:evenodd;fill-opacity:1;stroke:none;" />
  <path
     id="path23"
     d="  M 188.6504,300.53795   C 188.6504,304.97349 210.34859,318.83955 212.74618,318.83955   L 281.27731,318.83955   C 283.71486,318.83955 304.85361,304.73373 304.85361,300.01847   L 304.85361,292.14638   L 188.6504,292.14638   L 188.6504,300.53795   z "
     style="fill:#ffffff;fill-rule:evenodd;fill-opacity:1;stroke:none;" />
  <path
     id="path25"
     d="  M 213.26566,330.34799   L 213.26566,330.34799   L 281.27731,330.34799   L 281.27731,322.51586   L 213.26566,322.51586   z "
     style="fill:#ffffff;fill-rule:evenodd;fill-opacity:1;stroke:none;" />
  <path
     id="path27"
     d="  M 213.26566,322.51586   L 281.27731,322.51586   L 281.27731,330.34799   L 213.26566,330.34799   z  M 188.6504,292.14638   L 304.85361,292.14638   L 304.85361,300.01847   C 304.85361,304.73373 283.71486,318.83955 281.27731,318.83955   L 212.74618,318.83955   C 210.34859,318.83955 188.6504,304.97349 188.6504,300.53795   L 188.6504,292.14638   z  M 188.6504,226.21265   C 188.6504,223.5753 206.03293,212.26666 209.06988,210.50843   C 215.18373,206.99196 226.89196,201.59739 236.28253,201.59739   L 256.702,201.59739   C 266.49216,201.59739 278.52008,206.51245 284.43413,210.50843   C 287.51104,212.58634 304.85361,223.33554 304.85361,226.21265   L 304.85361,236.16265   L 188.6504,236.16265   L 188.6504,226.21265   z  M 242.55622,191.64739   C 244.19457,191.80723 244.43433,192.16686 246.23253,192.16686   L 247.27148,192.16686   C 249.06968,192.16686 249.30943,191.80723 250.94779,191.64739   L 250.94779,195.84317   L 253.70502,197.76124   L 240.47831,197.92108   C 241.23755,196.76225 242.55622,196.08293 242.55622,194.80421   z  M 239.95883,182.21686   C 239.95883,178.9002 243.2755,176.46265 246.752,176.46265   C 249.78895,176.46265 253.54518,178.7004 253.54518,181.17791   L 253.54518,183.81526   C 253.54518,187.2518 249.70903,189.56948 246.23253,189.56948   C 243.75502,189.56948 239.95883,186.73233 239.95883,183.81526   z  M 269.24939,162.8763   L 277.64096,162.8763   L 277.64096,171.22791   L 273.44518,171.22791   L 273.44518,187.4516   C 275.12349,187.61144 279.19939,188.81024 279.19939,190.60843   L 279.19939,199.51948   L 269.24939,199.51948   z  M 214.82409,162.8763   L 224.77409,162.8763   L 224.77409,199.51948   L 212.74618,199.51948   L 212.74618,189.56948   C 214.50441,189.12992 220.05883,187.77128 220.05883,185.89317   L 220.05883,171.22791   L 214.82409,171.22791   z  M 228.4504,162.8763   L 265.61305,162.8763   L 265.61305,199.51948   C 261.69698,198.6004 254.06465,197.32168 254.06465,193.24578   L 254.06465,191.12791   C 254.06465,187.53152 256.18253,186.13293 256.18253,184.85421   L 256.18253,182.21686   C 256.18253,174.58454 249.02972,174.4247 248.31044,171.74739   L 258.26044,171.74739   L 258.26044,168.11104   L 235.24357,168.11104   L 235.24357,171.74739   L 245.19357,171.74739   L 245.19357,173.34578   C 240.55823,173.4257 237.84096,177.9012 237.84096,182.7763   L 237.84096,184.33474   C 237.84096,186.61245 239.95883,188.97008 239.95883,190.08895   L 239.95883,193.24578   C 239.95883,196.68233 231.9269,198.68032 228.4504,199.51948   z  M 211.14779,174.38474   L 216.38253,174.38474   L 216.38253,183.81526   C 216.38253,185.61345 211.42751,186.77229 209.58935,186.93213   L 209.58935,203.15582   L 216.902,203.15582   C 215.46345,204.19478 210.54839,206.15281 208.19076,207.51144   C 205.19377,209.26968 202.8761,210.78815 200.15883,212.58634   C 197.96104,214.06486 185.53353,223.9749 184.97409,224.09478   L 184.97409,300.01847   C 184.97409,304.53393 192.5265,310.60783 195.76325,312.76566   C 198.001,314.28413 209.58935,320.55783 209.58935,322.51586   L 209.58935,334.02429   L 284.43413,334.02429   L 284.43413,322.51586   C 284.43413,318.71967 308.52992,311.44698 308.52992,298.42008   L 308.52992,225.17369   C 308.52992,222.9759 296.46204,214.50441 294.06445,212.90602   C 291.22731,211.02791 288.98955,209.58935 286.11245,207.79116   C 283.87469,206.39257 278.52008,204.39458 277.12148,203.15582   L 282.8757,203.15582   L 282.8757,186.93213   C 281.19739,186.57249 276.602,185.65341 276.602,183.81526   L 276.602,174.38474   L 281.27731,174.38474   L 281.27731,159.2   L 211.14779,159.2   z "
     style="fill:#000000;fill-rule:evenodd;fill-opacity:1;stroke:none;" />
</svg>
