<?xml version="1.0" encoding="UTF-8" standalone="no"?>
<svg
   xmlns:dc="http://purl.org/dc/elements/1.1/"
   xmlns:cc="http://creativecommons.org/ns#"
   xmlns:rdf="http://www.w3.org/1999/02/22-rdf-syntax-ns#"
   xmlns:svg="http://www.w3.org/2000/svg"
   xmlns="http://www.w3.org/2000/svg"
   id="svg19"
   height="60.060001mm"
   width="83.57mm"
   version="1.0">
  <metadata
     id="metadata23">
    <rdf:RDF>
      <cc:Work
         rdf:about="">
        <dc:format>image/svg+xml</dc:format>
        <dc:type
           rdf:resource="http://purl.org/dc/dcmitype/StillImage" />
      </cc:Work>
    </rdf:RDF>
  </metadata>
  <defs
     id="defs3">
    <pattern
       y="0"
       x="0"
       height="6"
       width="6"
       patternUnits="userSpaceOnUse"
       id="EMFhbasepattern" />
  </defs>
  <path
     id="path5"
     d="  M 109.96948,54.665059   C 54.345381,54.665059 54.345381,143.85542 109.96948,143.85542   L 205.87309,143.85542   C 261.49718,143.85542 261.49718,54.665059 205.87309,54.665059   z "
     style="fill:none;stroke:#ffff80;stroke-width:9.5903616px;stroke-linecap:butt;stroke-linejoin:miter;stroke-miterlimit:10;stroke-dasharray:none;stroke-opacity:1;" />
  <path
     id="path7"
     d="  M 93.665862,160.15903   C 93.665862,167.07209 88.111445,172.6265 81.198392,172.6265   C 74.3253,172.6265 68.730923,167.07209 68.730923,160.15903   C 68.730923,153.28594 74.3253,147.69156 81.198392,147.69156   C 88.111445,147.69156 93.665862,153.28594 93.665862,160.15903  "
     style="fill:none;stroke:#ffff80;stroke-width:9.5903616px;stroke-linecap:butt;stroke-linejoin:miter;stroke-miterlimit:10;stroke-dasharray:none;stroke-opacity:1;" />
  <path
     id="path9"
     d="  M 247.11164,160.15903   C 247.11164,167.07209 241.55723,172.6265 234.64417,172.6265   C 227.77108,172.6265 222.1767,167.07209 222.1767,160.15903   C 222.1767,153.28594 227.77108,147.69156 234.64417,147.69156   C 241.55723,147.69156 247.11164,153.28594 247.11164,160.15903  "
     style="fill:none;stroke:#ffff80;stroke-width:9.5903616px;stroke-linecap:butt;stroke-linejoin:miter;stroke-miterlimit:10;stroke-dasharray:none;stroke-opacity:1;" />
  <path
     id="path11"
     d="  M 63.935742,143.85542   L 251.90682,143.85542  "
     style="fill:none;stroke:#ffff80;stroke-width:9.5903616px;stroke-linecap:butt;stroke-linejoin:miter;stroke-miterlimit:10;stroke-dasharray:none;stroke-opacity:1;" />
  <path
     id="path13"
     d="  M 90.548995,112.48695   L 90.548995,78.161445   L 97.382127,78.161445   L 105.49397,102.45703   C 106.25321,104.73474 106.77269,106.41305 107.13233,107.53193   C 107.53193,106.29317 108.13132,104.45502 108.97048,102.01747   L 117.16225,78.161445   L 123.2761,78.161445   L 123.2761,112.48695   L 118.92048,112.48695   L 118.92048,83.755822   L 108.93052,112.48695   L 104.85462,112.48695   L 94.904617,83.276304   L 94.904617,112.48695   z  M 129.07028,101.45803   L 133.34598,101.05843   C 133.54578,102.77671 134.0253,104.21526 134.78454,105.29418   C 135.50381,106.41305 136.66265,107.29217 138.22108,107.97148   C 139.77952,108.6508 141.53775,109.01044 143.49578,108.97048   C 145.21405,109.01044 146.77249,108.73072 148.09116,108.21124   C 149.40984,107.69177 150.40883,107.01245 151.04819,106.09337   C 151.68755,105.21426 152.00723,104.21526 152.00723,103.1763   C 152.00723,102.09739 151.68755,101.13835 151.08815,100.33916   C 150.44879,99.539958 149.40984,98.860641 147.97128,98.301203   C 147.05221,97.941565 145.01425,97.382127 141.85743,96.62289   C 138.74056,95.903613 136.50281,95.184336 135.26405,94.505019   C 133.6257,93.625902 132.38695,92.586946 131.58775,91.308232   C 130.78855,90.029517 130.38895,88.590963 130.38895,87.032529   C 130.38895,85.314256 130.86847,83.675902 131.86747,82.157429   C 132.8265,80.678914 134.26506,79.520079 136.18313,78.720882   C 138.06124,77.961645 140.13915,77.562047 142.45683,77.562047   C 145.01425,77.562047 147.25201,77.961645 149.21004,78.800802   C 151.12811,79.599999 152.64658,80.838754 153.68554,82.397188   C 154.7245,83.995581 155.28393,85.793774 155.36385,87.831726   L 151.00823,88.151404   C 150.76847,85.993573 149.96927,84.35522 148.6506,83.236344   C 147.29197,82.117469 145.29397,81.558031 142.65662,81.558031   C 139.8994,81.558031 137.9014,82.077509 136.66265,83.076505   C 135.38393,84.075501 134.74458,85.314256 134.74458,86.71285   C 134.74458,87.951605 135.18413,88.990561 136.10321,89.749798   C 136.98233,90.548995 139.26004,91.388151 142.93634,92.227308   C 146.65261,93.066465 149.17008,93.785742 150.52871,94.385139   C 152.5267,95.344175 154.00522,96.503011 154.96425,97.901605   C 155.92329,99.300199 156.40281,100.93855 156.40281,102.77671   C 156.40281,104.61486 155.88333,106.33313 154.84438,107.93152   C 153.76546,109.56988 152.28695,110.80863 150.32891,111.72771   C 148.37088,112.60683 146.17309,113.04638 143.69558,113.04638   C 140.57871,113.04638 137.98132,112.60683 135.90341,111.68775   C 133.78554,110.80863 132.14719,109.45 130.94839,107.61185   C 129.7496,105.81365 129.1502,103.73574 129.07028,101.45803   z  M 162.39678,112.48695   L 162.39678,78.161445   L 166.95221,78.161445   L 166.95221,108.41104   L 183.85522,108.41104   L 183.85522,112.48695   z "
     style="fill:#ffff80;fill-rule:evenodd;fill-opacity:1;stroke:none;" />
  <path
     id="path15"
     d="  M 186.69237,78.640963   L 186.69237,78.640963   L 225.05381,78.640963   L 205.87309,102.61687   z "
     style="fill:none;stroke:#ffff80;stroke-width:4.7951808px;stroke-linecap:butt;stroke-linejoin:miter;stroke-miterlimit:10;stroke-dasharray:none;stroke-opacity:1;" />
  <path
     id="path17"
     d="  M 205.87309,102.61687   L 205.87309,121.79759  "
     style="fill:none;stroke:#ffff80;stroke-width:4.7951808px;stroke-linecap:butt;stroke-linejoin:miter;stroke-miterlimit:10;stroke-dasharray:none;stroke-opacity:1;" />
</svg>
