<?xml version="1.0" encoding="UTF-8" standalone="no"?>
<svg
   xmlns:dc="http://purl.org/dc/elements/1.1/"
   xmlns:cc="http://creativecommons.org/ns#"
   xmlns:rdf="http://www.w3.org/1999/02/22-rdf-syntax-ns#"
   xmlns:svg="http://www.w3.org/2000/svg"
   xmlns="http://www.w3.org/2000/svg"
   id="svg29"
   height="89.669998mm"
   width="120.11mm"
   version="1.0">
  <metadata
     id="metadata33">
    <rdf:RDF>
      <cc:Work
         rdf:about="">
        <dc:format>image/svg+xml</dc:format>
        <dc:type
           rdf:resource="http://purl.org/dc/dcmitype/StillImage" />
      </cc:Work>
    </rdf:RDF>
  </metadata>
  <defs
     id="defs3">
    <pattern
       y="0"
       x="0"
       height="6"
       width="6"
       patternUnits="userSpaceOnUse"
       id="EMFhbasepattern" />
  </defs>
  <path
     id="path5"
     d="  M 179.02008,15.983936   L 179.02008,54.345381   L 274.92369,54.345381   L 274.92369,15.983936   L 179.02008,15.983936   z "
     style="fill:#000000;fill-rule:evenodd;fill-opacity:1;stroke:none;" />
  <path
     id="path7"
     d="  M 54.345381,54.345381   L 54.345381,284.51405   L 399.59839,284.51405   L 399.59839,54.345381   L 54.345381,54.345381   z "
     style="fill:#80e0ff;fill-rule:evenodd;fill-opacity:1;stroke:none;" />
  <path
     id="path9"
     d="  M 54.345381,54.345381   L 399.59839,54.345381   L 399.59839,284.51405   L 54.345381,284.51405   z "
     style="fill:none;stroke:#000000;stroke-width:9.5903616px;stroke-linecap:butt;stroke-linejoin:miter;stroke-miterlimit:10;stroke-dasharray:none;stroke-opacity:1;" />
  <path
     id="path11"
     d="  M 224.41445,105.49397   L 224.41445,106.05341   C 224.41445,108.49096 225.65321,109.68976 228.09076,109.68976   C 229.32951,109.68976 230.72811,108.29116 230.72811,107.09237   C 230.72811,105.29418 230.32851,105.05442 230.16867,103.41606   C 229.00984,103.13634 228.96988,102.89658 227.57128,102.89658   L 227.0518,102.89658   C 225.81305,102.89658 224.41445,104.29518 224.41445,105.49397   z "
     style="fill:#000000;fill-rule:evenodd;fill-opacity:1;stroke:none;" />
  <path
     id="path13"
     d="  M 230.16867,103.41606   C 230.32851,105.05442 230.72811,105.29418 230.72811,107.09237   C 230.72811,108.29116 229.32951,109.68976 228.09076,109.68976   C 225.65321,109.68976 224.41445,108.49096 224.41445,106.05341   L 224.41445,105.49397   C 224.41445,104.29518 225.81305,102.89658 227.0518,102.89658   L 227.57128,102.89658   C 228.96988,102.89658 229.00984,103.13634 230.16867,103.41606   z  M 220.77811,105.49397   L 220.77811,107.09237   C 220.77811,110.00944 224.57429,112.84658 227.0518,112.84658   C 230.52831,112.84658 234.36445,110.52891 234.36445,107.09237   L 234.36445,104.45502   C 234.36445,101.97751 230.60823,99.739758 227.57128,99.739758   C 224.09478,99.739758 220.77811,102.17731 220.77811,105.49397   z "
     style="fill:#ffffff;fill-rule:evenodd;fill-opacity:1;stroke:none;" />
  <path
     id="path15"
     d="  M 223.3755,118.08132   C 223.3755,119.36004 222.05682,120.03936 221.29759,121.19819   L 234.52429,121.03835   L 231.76706,119.12028   L 231.76706,114.9245   C 230.12871,115.08434 229.88895,115.44397 228.09076,115.44397   L 227.0518,115.44397   C 225.25361,115.44397 225.01385,115.08434 223.3755,114.9245   z "
     style="fill:#ffffff;fill-rule:evenodd;fill-opacity:1;stroke:none;" />
  <path
     id="path17"
     d="  M 195.64337,94.505019   L 200.87811,94.505019   L 200.87811,109.17028   C 200.87811,111.04839 195.32369,112.40703 193.56546,112.84658   L 193.56546,122.79658   L 205.59337,122.79658   L 205.59337,86.153412   L 195.64337,86.153412   z "
     style="fill:#ffffff;fill-rule:evenodd;fill-opacity:1;stroke:none;" />
  <path
     id="path19"
     d="  M 250.06867,122.79658   L 260.01867,122.79658   L 260.01867,113.88554   C 260.01867,112.08735 255.94277,110.88855 254.26445,110.72871   L 254.26445,94.505019   L 258.46024,94.505019   L 258.46024,86.153412   L 250.06867,86.153412   z "
     style="fill:#ffffff;fill-rule:evenodd;fill-opacity:1;stroke:none;" />
  <path
     id="path21"
     d="  M 169.46968,149.48976   L 169.46968,159.43976   L 285.67289,159.43976   L 285.67289,149.48976   C 285.67289,146.61265 268.33032,135.86345 265.25341,133.78554   C 259.33935,129.78956 247.31144,124.8745 237.52128,124.8745   L 217.1018,124.8745   C 207.71124,124.8745 196.00301,130.26907 189.88915,133.78554   C 186.85221,135.54377 169.46968,146.85241 169.46968,149.48976   z "
     style="fill:#ffffff;fill-rule:evenodd;fill-opacity:1;stroke:none;" />
  <path
     id="path23"
     d="  M 169.46968,223.81506   C 169.46968,228.2506 191.16787,242.11666 193.56546,242.11666   L 262.09658,242.11666   C 264.53413,242.11666 285.67289,228.01084 285.67289,223.29558   L 285.67289,215.42349   L 169.46968,215.42349   L 169.46968,223.81506   z "
     style="fill:#ffffff;fill-rule:evenodd;fill-opacity:1;stroke:none;" />
  <path
     id="path25"
     d="  M 194.08494,253.6251   L 194.08494,253.6251   L 262.09658,253.6251   L 262.09658,245.79297   L 194.08494,245.79297   z "
     style="fill:#ffffff;fill-rule:evenodd;fill-opacity:1;stroke:none;" />
  <path
     id="path27"
     d="  M 194.08494,245.79297   L 262.09658,245.79297   L 262.09658,253.6251   L 194.08494,253.6251   z  M 169.46968,215.42349   L 285.67289,215.42349   L 285.67289,223.29558   C 285.67289,228.01084 264.53413,242.11666 262.09658,242.11666   L 193.56546,242.11666   C 191.16787,242.11666 169.46968,228.2506 169.46968,223.81506   L 169.46968,215.42349   z  M 169.46968,149.48976   C 169.46968,146.85241 186.85221,135.54377 189.88915,133.78554   C 196.00301,130.26907 207.71124,124.8745 217.1018,124.8745   L 237.52128,124.8745   C 247.31144,124.8745 259.33935,129.78956 265.25341,133.78554   C 268.33032,135.86345 285.67289,146.61265 285.67289,149.48976   L 285.67289,159.43976   L 169.46968,159.43976   L 169.46968,149.48976   z  M 223.3755,114.9245   C 225.01385,115.08434 225.25361,115.44397 227.0518,115.44397   L 228.09076,115.44397   C 229.88895,115.44397 230.12871,115.08434 231.76706,114.9245   L 231.76706,119.12028   L 234.52429,121.03835   L 221.29759,121.19819   C 222.05682,120.03936 223.3755,119.36004 223.3755,118.08132   z  M 220.77811,105.49397   C 220.77811,102.17731 224.09478,99.739758 227.57128,99.739758   C 230.60823,99.739758 234.36445,101.97751 234.36445,104.45502   L 234.36445,107.09237   C 234.36445,110.52891 230.52831,112.84658 227.0518,112.84658   C 224.57429,112.84658 220.77811,110.00944 220.77811,107.09237   z  M 250.06867,86.153412   L 258.46024,86.153412   L 258.46024,94.505019   L 254.26445,94.505019   L 254.26445,110.72871   C 255.94277,110.88855 260.01867,112.08735 260.01867,113.88554   L 260.01867,122.79658   L 250.06867,122.79658   z  M 195.64337,86.153412   L 205.59337,86.153412   L 205.59337,122.79658   L 193.56546,122.79658   L 193.56546,112.84658   C 195.32369,112.40703 200.87811,111.04839 200.87811,109.17028   L 200.87811,94.505019   L 195.64337,94.505019   z  M 209.26968,86.153412   L 246.43233,86.153412   L 246.43233,122.79658   C 242.51626,121.87751 234.88393,120.59879 234.88393,116.52289   L 234.88393,114.40502   C 234.88393,110.80863 237.0018,109.41004 237.0018,108.13132   L 237.0018,105.49397   C 237.0018,97.861645 229.84899,97.701806 229.12972,95.024497   L 239.07972,95.024497   L 239.07972,91.388151   L 216.06285,91.388151   L 216.06285,95.024497   L 226.01285,95.024497   L 226.01285,96.62289   C 221.37751,96.70281 218.66024,101.17831 218.66024,106.05341   L 218.66024,107.61185   C 218.66024,109.88956 220.77811,112.24719 220.77811,113.36606   L 220.77811,116.52289   C 220.77811,119.95944 212.74618,121.95743 209.26968,122.79658   z  M 191.96707,97.661846   L 197.2018,97.661846   L 197.2018,107.09237   C 197.2018,108.89056 192.24678,110.0494 190.40863,110.20924   L 190.40863,126.43293   L 197.72128,126.43293   C 196.28273,127.47189 191.36767,129.42992 189.01004,130.78855   C 186.01305,132.54679 183.69538,134.06526 180.97811,135.86345   C 178.78032,137.34197 166.35281,147.25201 165.79337,147.37189   L 165.79337,223.29558   C 165.79337,227.81104 173.34578,233.88494 176.58253,236.04277   C 178.82028,237.56124 190.40863,243.83494 190.40863,245.79297   L 190.40863,257.3014   L 265.25341,257.3014   L 265.25341,245.79297   C 265.25341,241.99678 289.34919,234.72409 289.34919,221.69719   L 289.34919,148.4508   C 289.34919,146.25301 277.28132,137.78152 274.88373,136.18313   C 272.04658,134.30502 269.80883,132.86646 266.93172,131.06827   C 264.69397,129.66968 259.33935,127.67168 257.94076,126.43293   L 263.69498,126.43293   L 263.69498,110.20924   C 262.01666,109.8496 257.42128,108.93052 257.42128,107.09237   L 257.42128,97.661846   L 262.09658,97.661846   L 262.09658,82.477107   L 191.96707,82.477107   z "
     style="fill:#000000;fill-rule:evenodd;fill-opacity:1;stroke:none;" />
</svg>
