<?xml version="1.0" encoding="UTF-8" standalone="no"?>
<svg
   xmlns:dc="http://purl.org/dc/elements/1.1/"
   xmlns:cc="http://creativecommons.org/ns#"
   xmlns:rdf="http://www.w3.org/1999/02/22-rdf-syntax-ns#"
   xmlns:svg="http://www.w3.org/2000/svg"
   xmlns="http://www.w3.org/2000/svg"
   id="svg23"
   height="95.75mm"
   width="95.75mm"
   version="1.0">
  <metadata
     id="metadata27">
    <rdf:RDF>
      <cc:Work
         rdf:about="">
        <dc:format>image/svg+xml</dc:format>
        <dc:type
           rdf:resource="http://purl.org/dc/dcmitype/StillImage" />
      </cc:Work>
    </rdf:RDF>
  </metadata>
  <defs
     id="defs3">
    <pattern
       y="0"
       x="0"
       height="6"
       width="6"
       patternUnits="userSpaceOnUse"
       id="EMFhbasepattern" />
  </defs>
  <path
     id="path5"
     d="  M 54.345381,54.345381   L 54.345381,307.53092   L 307.53092,307.53092   L 307.53092,54.345381   L 54.345381,54.345381   z "
     style="fill:#aaffaa;fill-rule:evenodd;fill-opacity:1;stroke:none;" />
  <path
     id="path7"
     d="  M 54.345381,54.345381   L 307.53092,54.345381   L 307.53092,307.53092   L 54.345381,307.53092   z "
     style="fill:none;stroke:#000000;stroke-width:9.5903616px;stroke-linecap:butt;stroke-linejoin:miter;stroke-miterlimit:10;stroke-dasharray:none;stroke-opacity:1;" />
  <path
     id="path9"
     d="  M 132.98634,118.6008   C 77.362248,118.6008 77.362248,207.79116 132.98634,207.79116   L 228.88996,207.79116   C 284.51405,207.79116 284.51405,118.6008 228.88996,118.6008   z "
     style="fill:none;stroke:#000000;stroke-width:9.5903616px;stroke-linecap:butt;stroke-linejoin:miter;stroke-miterlimit:10;stroke-dasharray:none;stroke-opacity:1;" />
  <path
     id="path11"
     d="  M 116.68273,224.09478   C 116.68273,231.00783 111.12831,236.56225 104.21526,236.56225   C 97.342167,236.56225 91.74779,231.00783 91.74779,224.09478   C 91.74779,217.22168 97.342167,211.62731 104.21526,211.62731   C 111.12831,211.62731 116.68273,217.22168 116.68273,224.09478  "
     style="fill:none;stroke:#000000;stroke-width:9.5903616px;stroke-linecap:butt;stroke-linejoin:miter;stroke-miterlimit:10;stroke-dasharray:none;stroke-opacity:1;" />
  <path
     id="path13"
     d="  M 270.12851,224.09478   C 270.12851,231.00783 264.57409,236.56225 257.66104,236.56225   C 250.78795,236.56225 245.19357,231.00783 245.19357,224.09478   C 245.19357,217.22168 250.78795,211.62731 257.66104,211.62731   C 264.57409,211.62731 270.12851,217.22168 270.12851,224.09478  "
     style="fill:none;stroke:#000000;stroke-width:9.5903616px;stroke-linecap:butt;stroke-linejoin:miter;stroke-miterlimit:10;stroke-dasharray:none;stroke-opacity:1;" />
  <path
     id="path15"
     d="  M 86.952609,207.79116   L 274.92369,207.79116  "
     style="fill:none;stroke:#000000;stroke-width:9.5903616px;stroke-linecap:butt;stroke-linejoin:miter;stroke-miterlimit:10;stroke-dasharray:none;stroke-opacity:1;" />
  <path
     id="path17"
     d="  M 113.56586,176.42269   L 113.56586,142.09719   L 120.39899,142.09719   L 128.51084,166.39277   C 129.27008,168.67048 129.78956,170.34879 130.14919,171.46767   C 130.54879,170.22891 131.14819,168.39076 131.98735,165.95321   L 140.17911,142.09719   L 146.29297,142.09719   L 146.29297,176.42269   L 141.93735,176.42269   L 141.93735,147.69156   L 131.94739,176.42269   L 127.87148,176.42269   L 117.92148,147.21205   L 117.92148,176.42269   z  M 152.08715,165.39377   L 156.36285,164.99417   C 156.56265,166.71245 157.04217,168.151 157.8014,169.22992   C 158.52068,170.34879 159.67952,171.22791 161.23795,171.90723   C 162.79638,172.58654 164.55462,172.94618 166.51265,172.90622   C 168.23092,172.94618 169.78935,172.66646 171.10803,172.14699   C 172.4267,171.62751 173.4257,170.94819 174.06506,170.02911   C 174.70442,169.15 175.02409,168.151 175.02409,167.11205   C 175.02409,166.03313 174.70442,165.07409 174.10502,164.2749   C 173.46566,163.4757 172.4267,162.79638 170.98815,162.23695   C 170.06907,161.87731 168.03112,161.31787 164.87429,160.55863   C 161.75743,159.83936 159.51968,159.12008 158.28092,158.44076   C 156.64257,157.56164 155.40381,156.52269 154.60462,155.24397   C 153.80542,153.96526 153.40582,152.5267 153.40582,150.96827   C 153.40582,149.25 153.88534,147.61164 154.88434,146.09317   C 155.84337,144.61466 157.28193,143.45582 159.2,142.65662   C 161.07811,141.89739 163.15602,141.49779 165.47369,141.49779   C 168.03112,141.49779 170.26887,141.89739 172.22691,142.73654   C 174.14498,143.53574 175.66345,144.7745 176.70241,146.33293   C 177.74136,147.93132 178.3008,149.72952 178.38072,151.76747   L 174.0251,152.08715   C 173.78534,149.92932 172.98614,148.29096 171.66747,147.17209   C 170.30883,146.05321 168.31084,145.49377 165.67349,145.49377   C 162.91626,145.49377 160.91827,146.01325 159.67952,147.01225   C 158.4008,148.01124 157.76144,149.25 157.76144,150.64859   C 157.76144,151.88735 158.201,152.9263 159.12008,153.68554   C 159.99919,154.48474 162.27691,155.32389 165.95321,156.16305   C 169.66948,157.00221 172.18695,157.72148 173.54558,158.32088   C 175.54357,159.27992 177.02209,160.43875 177.98112,161.83735   C 178.94016,163.23594 179.41968,164.87429 179.41968,166.71245   C 179.41968,168.5506 178.9002,170.26887 177.86124,171.86727   C 176.78233,173.50562 175.30381,174.74437 173.34578,175.66345   C 171.38775,176.54257 169.18996,176.98213 166.71245,176.98213   C 163.59558,176.98213 160.99819,176.54257 158.92028,175.62349   C 156.80241,174.74437 155.16405,173.38574 153.96526,171.54759   C 152.76646,169.7494 152.16707,167.67148 152.08715,165.39377   z  M 185.41365,176.42269   L 185.41365,142.09719   L 189.96907,142.09719   L 189.96907,172.34678   L 206.87209,172.34678   L 206.87209,176.42269   z "
     style="fill:#000000;fill-rule:evenodd;fill-opacity:1;stroke:none;" />
  <path
     id="path19"
     d="  M 209.70923,142.5767   L 209.70923,142.5767   L 248.07068,142.5767   L 228.88996,166.55261   z "
     style="fill:none;stroke:#000000;stroke-width:4.7951808px;stroke-linecap:butt;stroke-linejoin:miter;stroke-miterlimit:10;stroke-dasharray:none;stroke-opacity:1;" />
  <path
     id="path21"
     d="  M 228.88996,166.55261   L 228.88996,185.73333  "
     style="fill:none;stroke:#000000;stroke-width:4.7951808px;stroke-linecap:butt;stroke-linejoin:miter;stroke-miterlimit:10;stroke-dasharray:none;stroke-opacity:1;" />
</svg>
