<?xml version="1.0" encoding="UTF-8" standalone="no"?>
<svg
   xmlns:dc="http://purl.org/dc/elements/1.1/"
   xmlns:cc="http://creativecommons.org/ns#"
   xmlns:rdf="http://www.w3.org/1999/02/22-rdf-syntax-ns#"
   xmlns:svg="http://www.w3.org/2000/svg"
   xmlns="http://www.w3.org/2000/svg"
   id="svg23"
   height="130.27mm"
   width="130.27mm"
   version="1.0">
  <metadata
     id="metadata27">
    <rdf:RDF>
      <cc:Work
         rdf:about="">
        <dc:format>image/svg+xml</dc:format>
        <dc:type
           rdf:resource="http://purl.org/dc/dcmitype/StillImage" />
      </cc:Work>
    </rdf:RDF>
  </metadata>
  <defs
     id="defs3">
    <pattern
       y="0"
       x="0"
       height="6"
       width="6"
       patternUnits="userSpaceOnUse"
       id="EMFhbasepattern" />
  </defs>
  <path
     id="path5"
     d="  M 164.63454,327.67068   C 164.63454,437.95983 327.67068,437.95983 327.67068,327.67068   C 437.95983,327.67068 437.95983,164.63454 327.67068,164.63454   C 327.67068,54.345381 164.63454,54.345381 164.63454,164.63454   C 54.345381,164.63454 54.345381,327.67068 164.63454,327.67068   z "
     style="fill:#ffff80;fill-rule:evenodd;fill-opacity:1;stroke:none;" />
  <path
     id="path7"
     d="  M 164.63454,327.67068   C 164.63454,437.95983 327.67068,437.95983 327.67068,327.67068   C 437.95983,327.67068 437.95983,164.63454 327.67068,164.63454   C 327.67068,54.345381 164.63454,54.345381 164.63454,164.63454   C 54.345381,164.63454 54.345381,327.67068 164.63454,327.67068  "
     style="fill:none;stroke:#000000;stroke-width:9.5903616px;stroke-linecap:butt;stroke-linejoin:miter;stroke-miterlimit:10;stroke-dasharray:none;stroke-opacity:1;" />
  <path
     id="path9"
     d="  M 198.2008,183.81526   C 142.5767,183.81526 142.5767,273.00562 198.2008,273.00562   L 294.10441,273.00562   C 349.72851,273.00562 349.72851,183.81526 294.10441,183.81526   z "
     style="fill:none;stroke:#000000;stroke-width:9.5903616px;stroke-linecap:butt;stroke-linejoin:miter;stroke-miterlimit:10;stroke-dasharray:none;stroke-opacity:1;" />
  <path
     id="path11"
     d="  M 181.89719,289.30923   C 181.89719,296.22228 176.34277,301.7767 169.42972,301.7767   C 162.55662,301.7767 156.96225,296.22228 156.96225,289.30923   C 156.96225,282.43614 162.55662,276.84176 169.42972,276.84176   C 176.34277,276.84176 181.89719,282.43614 181.89719,289.30923  "
     style="fill:none;stroke:#000000;stroke-width:9.5903616px;stroke-linecap:butt;stroke-linejoin:miter;stroke-miterlimit:10;stroke-dasharray:none;stroke-opacity:1;" />
  <path
     id="path13"
     d="  M 335.34297,289.30923   C 335.34297,296.22228 329.78855,301.7767 322.8755,301.7767   C 316.00241,301.7767 310.40803,296.22228 310.40803,289.30923   C 310.40803,282.43614 316.00241,276.84176 322.8755,276.84176   C 329.78855,276.84176 335.34297,282.43614 335.34297,289.30923  "
     style="fill:none;stroke:#000000;stroke-width:9.5903616px;stroke-linecap:butt;stroke-linejoin:miter;stroke-miterlimit:10;stroke-dasharray:none;stroke-opacity:1;" />
  <path
     id="path15"
     d="  M 152.16707,273.00562   L 340.13815,273.00562  "
     style="fill:none;stroke:#000000;stroke-width:9.5903616px;stroke-linecap:butt;stroke-linejoin:miter;stroke-miterlimit:10;stroke-dasharray:none;stroke-opacity:1;" />
  <path
     id="path17"
     d="  M 178.78032,241.63715   L 178.78032,207.31164   L 185.61345,207.31164   L 193.7253,231.60723   C 194.48454,233.88494 195.00401,235.56325 195.36365,236.68213   C 195.76325,235.44337 196.36265,233.60522 197.2018,231.16767   L 205.39357,207.31164   L 211.50743,207.31164   L 211.50743,241.63715   L 207.1518,241.63715   L 207.1518,212.90602   L 197.16184,241.63715   L 193.08594,241.63715   L 183.13594,212.4265   L 183.13594,241.63715   z  M 217.3016,230.60823   L 221.57731,230.20863   C 221.77711,231.9269 222.25662,233.36546 223.01586,234.44437   C 223.73514,235.56325 224.89397,236.44237 226.45241,237.12168   C 228.01084,237.801 229.76907,238.16064 231.72711,238.12068   C 233.44538,238.16064 235.00381,237.88092 236.32249,237.36144   C 237.64116,236.84196 238.64016,236.16265 239.27951,235.24357   C 239.91887,234.36445 240.23855,233.36546 240.23855,232.3265   C 240.23855,231.24759 239.91887,230.28855 239.31947,229.48935   C 238.68012,228.69016 237.64116,228.01084 236.20261,227.4514   C 235.28353,227.09176 233.24558,226.53233 230.08875,225.77309   C 226.97188,225.05381 224.73413,224.33453 223.49538,223.65522   C 221.85702,222.7761 220.61827,221.73715 219.81907,220.45843   C 219.01988,219.17972 218.62028,217.74116 218.62028,216.18273   C 218.62028,214.46445 219.0998,212.8261 220.09879,211.30763   C 221.05783,209.82911 222.49638,208.67028 224.41445,207.87108   C 226.29257,207.11184 228.37048,206.71225 230.68815,206.71225   C 233.24558,206.71225 235.48333,207.11184 237.44136,207.951   C 239.35943,208.7502 240.87791,209.98895 241.91686,211.54739   C 242.95582,213.14578 243.51526,214.94397 243.59518,216.98192   L 239.23955,217.3016   C 238.9998,215.14377 238.2006,213.50542 236.88192,212.38654   C 235.52329,211.26767 233.5253,210.70823 230.88795,210.70823   C 228.13072,210.70823 226.13273,211.22771 224.89397,212.2267   C 223.61526,213.2257 222.9759,214.46445 222.9759,215.86305   C 222.9759,217.1018 223.41546,218.14076 224.33453,218.9   C 225.21365,219.69919 227.49136,220.53835 231.16767,221.37751   C 234.88393,222.21666 237.4014,222.93594 238.76004,223.53534   C 240.75803,224.49437 242.23654,225.65321 243.19558,227.0518   C 244.15461,228.4504 244.63413,230.08875 244.63413,231.9269   C 244.63413,233.76506 244.11466,235.48333 243.0757,237.08172   C 241.99678,238.72008 240.51827,239.95883 238.56024,240.87791   C 236.60221,241.75702 234.40441,242.19658 231.9269,242.19658   C 228.81004,242.19658 226.21265,241.75702 224.13474,240.83795   C 222.01686,239.95883 220.37851,238.6002 219.17972,236.76204   C 217.98092,234.96385 217.38152,232.88594 217.3016,230.60823   z  M 250.62811,241.63715   L 250.62811,207.31164   L 255.18353,207.31164   L 255.18353,237.56124   L 272.08654,237.56124   L 272.08654,241.63715   z "
     style="fill:#000000;fill-rule:evenodd;fill-opacity:1;stroke:none;" />
  <path
     id="path19"
     d="  M 274.92369,207.79116   L 274.92369,207.79116   L 313.28514,207.79116   L 294.10441,231.76706   z "
     style="fill:none;stroke:#000000;stroke-width:4.7951808px;stroke-linecap:butt;stroke-linejoin:miter;stroke-miterlimit:10;stroke-dasharray:none;stroke-opacity:1;" />
  <path
     id="path21"
     d="  M 294.10441,231.76706   L 294.10441,250.94779  "
     style="fill:none;stroke:#000000;stroke-width:4.7951808px;stroke-linecap:butt;stroke-linejoin:miter;stroke-miterlimit:10;stroke-dasharray:none;stroke-opacity:1;" />
</svg>
