<?xml version="1.0" encoding="UTF-8" standalone="no"?>
<svg
   xmlns:dc="http://purl.org/dc/elements/1.1/"
   xmlns:cc="http://creativecommons.org/ns#"
   xmlns:rdf="http://www.w3.org/1999/02/22-rdf-syntax-ns#"
   xmlns:svg="http://www.w3.org/2000/svg"
   xmlns="http://www.w3.org/2000/svg"
   id="svg23"
   height="101.85mm"
   width="101.85mm"
   version="1.0">
  <metadata
     id="metadata27">
    <rdf:RDF>
      <cc:Work
         rdf:about="">
        <dc:format>image/svg+xml</dc:format>
        <dc:type
           rdf:resource="http://purl.org/dc/dcmitype/StillImage" />
      </cc:Work>
    </rdf:RDF>
  </metadata>
  <defs
     id="defs3">
    <pattern
       y="0"
       x="0"
       height="6"
       width="6"
       patternUnits="userSpaceOnUse"
       id="EMFhbasepattern" />
  </defs>
  <path
     id="path5"
     d="  M 330.54779,192.44658   C 330.54779,268.72992 268.72992,330.54779 192.44658,330.54779   C 116.20321,330.54779 54.345381,268.72992 54.345381,192.44658   C 54.345381,116.20321 116.20321,54.345381 192.44658,54.345381   C 268.72992,54.345381 330.54779,116.20321 330.54779,192.44658   z "
     style="fill:#80e0ff;fill-rule:evenodd;fill-opacity:1;stroke:none;" />
  <path
     id="path7"
     d="  M 330.54779,192.44658   C 330.54779,268.72992 268.72992,330.54779 192.44658,330.54779   C 116.20321,330.54779 54.345381,268.72992 54.345381,192.44658   C 54.345381,116.20321 116.20321,54.345381 192.44658,54.345381   C 268.72992,54.345381 330.54779,116.20321 330.54779,192.44658  "
     style="fill:none;stroke:#000000;stroke-width:9.5903616px;stroke-linecap:butt;stroke-linejoin:miter;stroke-miterlimit:10;stroke-dasharray:none;stroke-opacity:1;" />
  <path
     id="path9"
     d="  M 144.49478,130.10924   C 88.870681,130.10924 88.870681,219.2996 144.49478,219.2996   L 240.39839,219.2996   C 296.02249,219.2996 296.02249,130.10924 240.39839,130.10924   z "
     style="fill:none;stroke:#000000;stroke-width:9.5903616px;stroke-linecap:butt;stroke-linejoin:miter;stroke-miterlimit:10;stroke-dasharray:none;stroke-opacity:1;" />
  <path
     id="path11"
     d="  M 128.19116,235.60321   C 128.19116,242.51626 122.63675,248.07068 115.72369,248.07068   C 108.8506,248.07068 103.25622,242.51626 103.25622,235.60321   C 103.25622,228.73012 108.8506,223.13574 115.72369,223.13574   C 122.63675,223.13574 128.19116,228.73012 128.19116,235.60321  "
     style="fill:none;stroke:#000000;stroke-width:9.5903616px;stroke-linecap:butt;stroke-linejoin:miter;stroke-miterlimit:10;stroke-dasharray:none;stroke-opacity:1;" />
  <path
     id="path13"
     d="  M 281.63694,235.60321   C 281.63694,242.51626 276.08253,248.07068 269.16947,248.07068   C 262.29638,248.07068 256.702,242.51626 256.702,235.60321   C 256.702,228.73012 262.29638,223.13574 269.16947,223.13574   C 276.08253,223.13574 281.63694,228.73012 281.63694,235.60321  "
     style="fill:none;stroke:#000000;stroke-width:9.5903616px;stroke-linecap:butt;stroke-linejoin:miter;stroke-miterlimit:10;stroke-dasharray:none;stroke-opacity:1;" />
  <path
     id="path15"
     d="  M 98.461043,219.2996   L 286.43212,219.2996  "
     style="fill:none;stroke:#000000;stroke-width:9.5903616px;stroke-linecap:butt;stroke-linejoin:miter;stroke-miterlimit:10;stroke-dasharray:none;stroke-opacity:1;" />
  <path
     id="path17"
     d="  M 125.0743,187.93112   L 125.0743,153.60562   L 131.90743,153.60562   L 140.01928,177.9012   C 140.77851,180.17891 141.29799,181.85723 141.65763,182.9761   C 142.05723,181.73735 142.65662,179.89919 143.49578,177.46164   L 151.68755,153.60562   L 157.8014,153.60562   L 157.8014,187.93112   L 153.44578,187.93112   L 153.44578,159.2   L 143.45582,187.93112   L 139.37992,187.93112   L 129.42992,158.72048   L 129.42992,187.93112   z  M 163.59558,176.90221   L 167.87128,176.50261   C 168.07108,178.22088 168.5506,179.65944 169.30984,180.73835   C 170.02911,181.85723 171.18795,182.73634 172.74638,183.41566   C 174.30482,184.09498 176.06305,184.45462 178.02108,184.41466   C 179.73935,184.45462 181.29779,184.1749 182.61646,183.65542   C 183.93514,183.13594 184.93413,182.45662 185.57349,181.53755   C 186.21285,180.65843 186.53253,179.65944 186.53253,178.62048   C 186.53253,177.54156 186.21285,176.58253 185.61345,175.78333   C 184.97409,174.98413 183.93514,174.30482 182.49658,173.74538   C 181.57751,173.38574 179.53956,172.8263 176.38273,172.06707   C 173.26586,171.34779 171.02811,170.62851 169.78935,169.94919   C 168.151,169.07008 166.91225,168.03112 166.11305,166.75241   C 165.31385,165.47369 164.91425,164.03514 164.91425,162.4767   C 164.91425,160.75843 165.39377,159.12008 166.39277,157.6016   C 167.3518,156.12309 168.79036,154.96425 170.70843,154.16506   C 172.58654,153.40582 174.66446,153.00622 176.98213,153.00622   C 179.53956,153.00622 181.77731,153.40582 183.73534,154.24498   C 185.65341,155.04417 187.17188,156.28293 188.21084,157.84136   C 189.2498,159.43976 189.80923,161.23795 189.88915,163.2759   L 185.53353,163.59558   C 185.29377,161.43775 184.49458,159.7994 183.1759,158.68052   C 181.81727,157.56164 179.81927,157.00221 177.18193,157.00221   C 174.4247,157.00221 172.4267,157.52168 171.18795,158.52068   C 169.90923,159.51968 169.26988,160.75843 169.26988,162.15703   C 169.26988,163.39578 169.70944,164.43474 170.62851,165.19397   C 171.50763,165.99317 173.78534,166.83233 177.46164,167.67148   C 181.17791,168.51064 183.69538,169.22992 185.05401,169.82931   C 187.05201,170.78835 188.53052,171.94719 189.48956,173.34578   C 190.44859,174.74437 190.92811,176.38273 190.92811,178.22088   C 190.92811,180.05903 190.40863,181.77731 189.36968,183.3757   C 188.29076,185.01405 186.81225,186.25281 184.85421,187.17188   C 182.89618,188.051 180.69839,188.49056 178.22088,188.49056   C 175.10401,188.49056 172.50662,188.051 170.42871,187.13193   C 168.31084,186.25281 166.67249,184.89417 165.47369,183.05602   C 164.2749,181.25783 163.6755,179.17992 163.59558,176.90221   z  M 196.92209,187.93112   L 196.92209,153.60562   L 201.47751,153.60562   L 201.47751,183.85522   L 218.38052,183.85522   L 218.38052,187.93112   z "
     style="fill:#000000;fill-rule:evenodd;fill-opacity:1;stroke:none;" />
  <path
     id="path19"
     d="  M 221.21767,154.08514   L 221.21767,154.08514   L 259.57911,154.08514   L 240.39839,178.06104   z "
     style="fill:none;stroke:#000000;stroke-width:4.7951808px;stroke-linecap:butt;stroke-linejoin:miter;stroke-miterlimit:10;stroke-dasharray:none;stroke-opacity:1;" />
  <path
     id="path21"
     d="  M 240.39839,178.06104   L 240.39839,197.24176  "
     style="fill:none;stroke:#000000;stroke-width:4.7951808px;stroke-linecap:butt;stroke-linejoin:miter;stroke-miterlimit:10;stroke-dasharray:none;stroke-opacity:1;" />
</svg>
