<?xml version="1.0" encoding="UTF-8" standalone="no"?>
<svg
   xmlns:dc="http://purl.org/dc/elements/1.1/"
   xmlns:cc="http://creativecommons.org/ns#"
   xmlns:rdf="http://www.w3.org/1999/02/22-rdf-syntax-ns#"
   xmlns:svg="http://www.w3.org/2000/svg"
   xmlns="http://www.w3.org/2000/svg"
   id="svg23"
   height="116.73mm"
   width="116.73mm"
   version="1.0">
  <metadata
     id="metadata27">
    <rdf:RDF>
      <cc:Work
         rdf:about="">
        <dc:format>image/svg+xml</dc:format>
        <dc:type
           rdf:resource="http://purl.org/dc/dcmitype/StillImage" />
      </cc:Work>
    </rdf:RDF>
  </metadata>
  <defs
     id="defs3">
    <pattern
       y="0"
       x="0"
       height="6"
       width="6"
       patternUnits="userSpaceOnUse"
       id="EMFhbasepattern" />
  </defs>
  <path
     id="path5"
     d="  M 220.57831,386.49156   L 220.57831,386.49156   L 386.49156,220.57831   L 220.57831,54.665059   L 54.665059,220.57831   L 220.57831,386.49156   z "
     style="fill:#ff8080;fill-rule:evenodd;fill-opacity:1;stroke:none;" />
  <path
     id="path7"
     d="  M 220.57831,386.49156   L 220.57831,386.49156   L 386.49156,220.57831   L 220.57831,54.665059   L 54.665059,220.57831   L 220.57831,386.49156  "
     style="fill:none;stroke:#000000;stroke-width:9.5903616px;stroke-linecap:butt;stroke-linejoin:miter;stroke-miterlimit:10;stroke-dasharray:none;stroke-opacity:1;" />
  <path
     id="path9"
     d="  M 172.6265,158.24096   C 117.00241,158.24096 117.00241,247.43132 172.6265,247.43132   L 268.53012,247.43132   C 324.15421,247.43132 324.15421,158.24096 268.53012,158.24096   z "
     style="fill:none;stroke:#000000;stroke-width:9.5903616px;stroke-linecap:butt;stroke-linejoin:miter;stroke-miterlimit:10;stroke-dasharray:none;stroke-opacity:1;" />
  <path
     id="path11"
     d="  M 156.32289,263.73494   C 156.32289,270.64799 150.76847,276.20241 143.85542,276.20241   C 136.98233,276.20241 131.38795,270.64799 131.38795,263.73494   C 131.38795,256.86184 136.98233,251.26747 143.85542,251.26747   C 150.76847,251.26747 156.32289,256.86184 156.32289,263.73494  "
     style="fill:none;stroke:#000000;stroke-width:9.5903616px;stroke-linecap:butt;stroke-linejoin:miter;stroke-miterlimit:10;stroke-dasharray:none;stroke-opacity:1;" />
  <path
     id="path13"
     d="  M 309.76867,263.73494   C 309.76867,270.64799 304.21425,276.20241 297.3012,276.20241   C 290.42811,276.20241 284.83373,270.64799 284.83373,263.73494   C 284.83373,256.86184 290.42811,251.26747 297.3012,251.26747   C 304.21425,251.26747 309.76867,256.86184 309.76867,263.73494  "
     style="fill:none;stroke:#000000;stroke-width:9.5903616px;stroke-linecap:butt;stroke-linejoin:miter;stroke-miterlimit:10;stroke-dasharray:none;stroke-opacity:1;" />
  <path
     id="path15"
     d="  M 126.59277,247.43132   L 314.56385,247.43132  "
     style="fill:none;stroke:#000000;stroke-width:9.5903616px;stroke-linecap:butt;stroke-linejoin:miter;stroke-miterlimit:10;stroke-dasharray:none;stroke-opacity:1;" />
  <path
     id="path17"
     d="  M 153.20602,216.06285   L 153.20602,181.73735   L 160.03915,181.73735   L 168.151,206.03293   C 168.91024,208.31064 169.42972,209.98895 169.78935,211.10783   C 170.18895,209.86907 170.78835,208.03092 171.62751,205.59337   L 179.81927,181.73735   L 185.93313,181.73735   L 185.93313,216.06285   L 181.57751,216.06285   L 181.57751,187.33172   L 171.58755,216.06285   L 167.51164,216.06285   L 157.56164,186.85221   L 157.56164,216.06285   z  M 191.72731,205.03393   L 196.00301,204.63433   C 196.20281,206.35261 196.68233,207.79116 197.44156,208.87008   C 198.16084,209.98895 199.31968,210.86807 200.87811,211.54739   C 202.43654,212.2267 204.19478,212.58634 206.15281,212.54638   C 207.87108,212.58634 209.42952,212.30662 210.74819,211.78715   C 212.06686,211.26767 213.06586,210.58835 213.70522,209.66927   C 214.34458,208.79016 214.66425,207.79116 214.66425,206.75221   C 214.66425,205.67329 214.34458,204.71425 213.74518,203.91506   C 213.10582,203.11586 212.06686,202.43654 210.62831,201.87711   C 209.70923,201.51747 207.67128,200.95803 204.51445,200.19879   C 201.39759,199.47952 199.15984,198.76024 197.92108,198.08092   C 196.28273,197.2018 195.04397,196.16285 194.24478,194.88413   C 193.44558,193.60542 193.04598,192.16686 193.04598,190.60843   C 193.04598,188.89016 193.5255,187.2518 194.5245,185.73333   C 195.48353,184.25482 196.92209,183.09598 198.84016,182.29678   C 200.71827,181.53755 202.79618,181.13795 205.11385,181.13795   C 207.67128,181.13795 209.90903,181.53755 211.86707,182.3767   C 213.78514,183.1759 215.30361,184.41466 216.34257,185.97309   C 217.38152,187.57148 217.94096,189.36968 218.02088,191.40763   L 213.66526,191.72731   C 213.4255,189.56948 212.6263,187.93112 211.30763,186.81225   C 209.94899,185.69337 207.951,185.13393 205.31365,185.13393   C 202.55642,185.13393 200.55843,185.65341 199.31968,186.65241   C 198.04096,187.6514 197.4016,188.89016 197.4016,190.28875   C 197.4016,191.52751 197.84116,192.56646 198.76024,193.3257   C 199.63935,194.1249 201.91707,194.96405 205.59337,195.80321   C 209.30964,196.64237 211.82711,197.36164 213.18574,197.96104   C 215.18373,198.92008 216.66225,200.07891 217.62128,201.47751   C 218.58032,202.8761 219.05984,204.51445 219.05984,206.35261   C 219.05984,208.19076 218.54036,209.90903 217.5014,211.50743   C 216.42249,213.14578 214.94397,214.38454 212.98594,215.30361   C 211.02791,216.18273 208.83012,216.62229 206.35261,216.62229   C 203.23574,216.62229 200.63835,216.18273 198.56044,215.26365   C 196.44257,214.38454 194.80421,213.0259 193.60542,211.18775   C 192.40662,209.38956 191.80723,207.31164 191.72731,205.03393   z  M 225.05381,216.06285   L 225.05381,181.73735   L 229.60923,181.73735   L 229.60923,211.98694   L 246.51225,211.98694   L 246.51225,216.06285   z "
     style="fill:#000000;fill-rule:evenodd;fill-opacity:1;stroke:none;" />
  <path
     id="path19"
     d="  M 249.34939,182.21686   L 249.34939,182.21686   L 287.71084,182.21686   L 268.53012,206.19277   z "
     style="fill:none;stroke:#000000;stroke-width:4.7951808px;stroke-linecap:butt;stroke-linejoin:miter;stroke-miterlimit:10;stroke-dasharray:none;stroke-opacity:1;" />
  <path
     id="path21"
     d="  M 268.53012,206.19277   L 268.53012,225.37349  "
     style="fill:none;stroke:#000000;stroke-width:4.7951808px;stroke-linecap:butt;stroke-linejoin:miter;stroke-miterlimit:10;stroke-dasharray:none;stroke-opacity:1;" />
</svg>
