<?xml version="1.0" encoding="UTF-8" standalone="no"?>
<svg
   xmlns:dc="http://purl.org/dc/elements/1.1/"
   xmlns:cc="http://creativecommons.org/ns#"
   xmlns:rdf="http://www.w3.org/1999/02/22-rdf-syntax-ns#"
   xmlns:svg="http://www.w3.org/2000/svg"
   xmlns="http://www.w3.org/2000/svg"
   id="svg13"
   height="89.669998mm"
   width="120.11mm"
   version="1.0">
  <metadata
     id="metadata17">
    <rdf:RDF>
      <cc:Work
         rdf:about="">
        <dc:format>image/svg+xml</dc:format>
        <dc:type
           rdf:resource="http://purl.org/dc/dcmitype/StillImage" />
      </cc:Work>
    </rdf:RDF>
  </metadata>
  <defs
     id="defs3">
    <pattern
       y="0"
       x="0"
       height="6"
       width="6"
       patternUnits="userSpaceOnUse"
       id="EMFhbasepattern" />
  </defs>
  <path
     id="path5"
     d="  M 54.345381,54.345381   L 54.345381,284.51405   L 399.59839,284.51405   L 399.59839,54.345381   L 54.345381,54.345381   z "
     style="fill:#80e0ff;fill-rule:evenodd;fill-opacity:1;stroke:none;" />
  <path
     id="path7"
     d="  M 54.345381,54.345381   L 399.59839,54.345381   L 399.59839,284.51405   L 54.345381,284.51405   z "
     style="fill:none;stroke:#000000;stroke-width:9.5903616px;stroke-linecap:butt;stroke-linejoin:miter;stroke-miterlimit:10;stroke-dasharray:none;stroke-opacity:1;" />
  <path
     id="path9"
     d="  M 178.98012,191.96707   L 178.98012,130.18915   L 202.2767,130.18915   C 206.39257,130.18915 209.50943,130.38895 211.70723,130.74859   C 214.70421,131.26807 217.26164,132.22711 219.2996,133.66566   C 221.37751,135.06426 223.01586,137.06225 224.25462,139.61968   C 225.53333,142.17711 226.13273,144.9743 226.13273,148.0512   C 226.13273,153.28594 224.49437,157.76144 221.13775,161.39779   C 217.78112,165.03413 211.74719,166.83233 202.99598,166.83233   L 187.17188,166.83233   L 187.17188,191.96707   z  M 187.17188,159.55964   L 203.11586,159.55964   C 208.43052,159.55964 212.18674,158.56064 214.38454,156.60261   C 216.62229,154.64458 217.7012,151.88735 217.7012,148.29096   C 217.7012,145.73353 217.06184,143.49578 215.74317,141.65763   C 214.46445,139.81948 212.74618,138.62068 210.58835,138.02128   C 209.22972,137.66164 206.67229,137.46185 202.95602,137.46185   L 187.17188,137.46185   z  M 229.76907,191.96707   L 253.50522,130.18915   L 262.29638,130.18915   L 287.59096,191.96707   L 278.28032,191.96707   L 271.08755,173.26586   L 245.23353,173.26586   L 238.44036,191.96707   z  M 247.59116,166.59257   L 268.53012,166.59257   L 262.09658,149.48976   C 260.13855,144.29498 258.66004,140.01928 257.701,136.66265   C 256.94176,140.61867 255.82289,144.5747 254.38433,148.4508   z "
     style="fill:#000000;fill-rule:evenodd;fill-opacity:1;stroke:none;" />
  <path
     id="path11"
     d="  M 399.59839,54.345381   L 399.59839,54.345381   L 351.64658,169.42972   L 399.59839,284.51405  "
     style="fill:none;stroke:#000000;stroke-width:9.5903616px;stroke-linecap:butt;stroke-linejoin:miter;stroke-miterlimit:10;stroke-dasharray:none;stroke-opacity:1;" />
</svg>
