<?xml version="1.0" encoding="UTF-8" standalone="no"?>
<svg
   xmlns:dc="http://purl.org/dc/elements/1.1/"
   xmlns:cc="http://creativecommons.org/ns#"
   xmlns:rdf="http://www.w3.org/1999/02/22-rdf-syntax-ns#"
   xmlns:svg="http://www.w3.org/2000/svg"
   xmlns="http://www.w3.org/2000/svg"
   id="svg15"
   height="112.9mm"
   width="112.9mm"
   version="1.0">
  <metadata
     id="metadata19">
    <rdf:RDF>
      <cc:Work
         rdf:about="">
        <dc:format>image/svg+xml</dc:format>
        <dc:type
           rdf:resource="http://purl.org/dc/dcmitype/StillImage" />
      </cc:Work>
    </rdf:RDF>
  </metadata>
  <defs
     id="defs3">
    <pattern
       y="0"
       x="0"
       height="6"
       width="6"
       patternUnits="userSpaceOnUse"
       id="EMFhbasepattern" />
  </defs>
  <path
     id="path5"
     d="  M 718.25782,585.01658   C 718.25782,658.5652 658.53498,718.25026 584.98636,718.25026   C 511.43773,718.25026 451.71489,658.5652 451.71489,585.01658   C 451.71489,511.43018 511.43773,451.74511 584.98636,451.74511   C 658.53498,451.74511 718.25782,511.43018 718.25782,585.01658   z "
     style="fill:none;stroke:#000000;stroke-width:5.3263254px;stroke-linecap:butt;stroke-linejoin:miter;stroke-miterlimit:112;stroke-dasharray:none;stroke-opacity:1;" />
  <path
     id="path7"
     d="  M 515.70635,622.30085   L 515.70635,547.69452   L 664.95679,622.30085   L 664.95679,547.69452   L 515.70635,622.30085   z "
     style="fill:none;stroke:#000000;stroke-width:5.3263254px;stroke-linecap:butt;stroke-linejoin:miter;stroke-miterlimit:112;stroke-dasharray:none;stroke-opacity:1;" />
  <path
     id="path9"
     d="  M 734.91675,608.4373   L 734.91675,562.65356   L 752.18009,562.65356   C 755.23989,562.65356 757.54419,562.80467 759.16853,563.10687   C 761.39728,563.48462 763.28604,564.20235 764.79706,565.26006   C 766.30807,566.28 767.55466,567.75324 768.46127,569.67978   C 769.40565,571.56855 769.85896,573.64619 769.85896,575.91271   C 769.85896,579.80358 768.61237,583.09003 766.15697,585.80986   C 763.6638,588.49191 759.20631,589.85182 752.70894,589.85182   L 740.96081,589.85182   L 740.96081,608.4373   L 734.91675,608.4373   z  M 740.96081,584.44995   L 752.82227,584.44995   C 756.71313,584.44995 759.50851,583.69444 761.17062,582.25897   C 762.79496,580.78574 763.62602,578.74587 763.62602,576.10159   C 763.62602,574.17505 763.13494,572.55071 762.15278,571.1908   C 761.2084,569.83088 759.92404,568.92427 758.33747,568.47097   C 757.31754,568.20654 755.42877,568.05544 752.67117,568.05544   L 740.96081,568.05544   L 740.96081,584.44995   z "
     style="fill:#000000;fill-rule:nonzero;fill-opacity:1;stroke:#000000;stroke-width:1.0577101px;stroke-linecap:butt;stroke-linejoin:miter;stroke-miterlimit:112;stroke-dasharray:none;stroke-opacity:1;" />
  <path
     id="path11"
     d="  M 807.67209,562.65356   L 813.75392,562.65356   L 813.75392,589.13409   C 813.75392,593.70491 813.22507,597.36912 812.20513,600.08894   C 811.14742,602.80877 809.25865,604.99974 806.53883,606.69963   C 803.819,608.39952 800.26812,609.23058 795.8484,609.23058   C 791.57979,609.23058 788.06668,608.51285 785.30908,607.00183   C 782.58925,605.5286 780.66271,603.41318 779.49167,600.58002   C 778.32064,597.78465 777.75401,593.96934 777.75401,589.13409   L 777.75401,562.65356   L 783.79806,562.65356   L 783.79806,589.09631   C 783.79806,593.06273 784.17582,596.00921 784.89355,597.89797   C 785.64906,599.74897 786.89564,601.2222 788.70886,602.24214   C 790.52208,603.26207 792.71305,603.75315 795.31955,603.75315   C 799.77704,603.75315 802.95017,602.77099 804.83894,600.73112   C 806.72771,598.72903 807.67209,594.83817 807.67209,589.09631   L 807.67209,562.65356   z "
     style="fill:#000000;fill-rule:nonzero;fill-opacity:1;stroke:#000000;stroke-width:1.0577101px;stroke-linecap:butt;stroke-linejoin:miter;stroke-miterlimit:112;stroke-dasharray:none;stroke-opacity:1;" />
  <path
     id="path13"
     d="  M 823.87772,608.4373   L 823.87772,562.65356   L 841.14106,562.65356   C 844.16308,562.65356 846.50516,562.80467 848.09172,563.10687   C 850.35824,563.48462 852.24701,564.20235 853.75803,565.26006   C 855.26904,566.28 856.51563,567.75324 857.42224,569.67978   C 858.36662,571.56855 858.81992,573.64619 858.81992,575.91271   C 858.81992,579.80358 857.57334,583.09003 855.11794,585.80986   C 852.62476,588.49191 848.1295,589.85182 841.66991,589.85182   L 829.92177,589.85182   L 829.92177,608.4373   L 823.87772,608.4373   z  M 829.92177,584.44995   L 841.78324,584.44995   C 845.6741,584.44995 848.46948,583.69444 850.09382,582.25897   C 851.75593,580.78574 852.58699,578.74587 852.58699,576.10159   C 852.58699,574.17505 852.09591,572.55071 851.11375,571.1908   C 850.16937,569.83088 848.885,568.92427 847.29844,568.47097   C 846.2785,568.20654 844.38974,568.05544 841.63214,568.05544   L 829.92177,568.05544   L 829.92177,584.44995   z "
     style="fill:#000000;fill-rule:nonzero;fill-opacity:1;stroke:#000000;stroke-width:1.0577101px;stroke-linecap:butt;stroke-linejoin:miter;stroke-miterlimit:112;stroke-dasharray:none;stroke-opacity:1;" />
</svg>
