<?xml version="1.0" encoding="UTF-8" standalone="no"?>
<svg
   xmlns:dc="http://purl.org/dc/elements/1.1/"
   xmlns:cc="http://creativecommons.org/ns#"
   xmlns:rdf="http://www.w3.org/1999/02/22-rdf-syntax-ns#"
   xmlns:svg="http://www.w3.org/2000/svg"
   xmlns="http://www.w3.org/2000/svg"
   id="svg15"
   height="112.9mm"
   width="112.9mm"
   version="1.0">
  <metadata
     id="metadata19">
    <rdf:RDF>
      <cc:Work
         rdf:about="">
        <dc:format>image/svg+xml</dc:format>
        <dc:type
           rdf:resource="http://purl.org/dc/dcmitype/StillImage" />
      </cc:Work>
    </rdf:RDF>
  </metadata>
  <defs
     id="defs3">
    <pattern
       y="0"
       x="0"
       height="6"
       width="6"
       patternUnits="userSpaceOnUse"
       id="EMFhbasepattern" />
  </defs>
  <ellipse
     id="ellipse5"
     ry="132.66068"
     rx="132.67956"
     cy="1188.1212"
     cx="1188.3924"
     style="fill:none;stroke:#ff0000;stroke-width:5.3245535px;stroke-linecap:butt;stroke-linejoin:miter;stroke-miterlimit:282;stroke-dasharray:none;stroke-opacity:1;" />
  <path
     id="path7"
     d="  M 1119.683,1225.9596   L 1119.683,1151.378   L 1268.8838,1225.9596   L 1268.8838,1151.378   z "
     style="fill:none;stroke:#ff0000;stroke-width:5.3245535px;stroke-linecap:butt;stroke-linejoin:miter;stroke-miterlimit:282;stroke-dasharray:none;stroke-opacity:1;" />
  <path
     id="path9"
     d="  M 1338.8205,1212.1006   L 1338.8205,1166.3321   L 1356.0781,1166.3321   C 1359.1368,1166.3321 1361.4404,1166.4832 1363.0642,1166.7853   C 1365.2922,1167.1629 1367.1803,1167.8804 1368.6908,1168.9377   C 1370.2013,1169.9573 1371.4475,1171.4301 1372.3538,1173.356   C 1373.2979,1175.2441 1373.751,1177.3211 1373.751,1179.5868   C 1373.751,1183.4764 1372.5049,1186.7618 1370.0503,1189.4807   C 1367.558,1192.1619 1363.1019,1193.5213 1356.6067,1193.5213   L 1344.8625,1193.5213   L 1344.8625,1212.1006   z  M 1344.8625,1188.1212   L 1356.72,1188.1212   C 1360.6096,1188.1212 1363.404,1187.366 1365.0656,1185.931   C 1366.6894,1184.4582 1367.5202,1182.4191 1367.5202,1179.7757   C 1367.5202,1177.8498 1367.0293,1176.226 1366.0474,1174.8665   C 1365.1034,1173.507 1363.8194,1172.6007 1362.2334,1172.1476   C 1361.2138,1171.8832 1359.3257,1171.7322 1356.569,1171.7322   L 1344.8625,1171.7322   z "
     style="fill:#ff0000;fill-rule:nonzero;fill-opacity:1;stroke:#ff0000;stroke-width:1.0573581px;stroke-linecap:butt;stroke-linejoin:miter;stroke-miterlimit:282;stroke-dasharray:none;stroke-opacity:1;" />
  <path
     id="path11"
     d="  M 1411.5516,1166.3321   L 1417.6314,1166.3321   L 1417.6314,1192.8038   C 1417.6314,1197.3731 1417.1027,1201.0361 1416.0831,1203.755   C 1415.0258,1206.474 1413.1376,1208.6642 1410.4187,1210.3635   C 1407.6998,1212.0628 1404.1501,1212.8936 1399.7318,1212.8936   C 1395.4647,1212.8936 1391.9527,1212.1761 1389.196,1210.6656   C 1386.4771,1209.1929 1384.5512,1207.0782 1383.3806,1204.2459   C 1382.2099,1201.4515 1381.6435,1197.6375 1381.6435,1192.8038   L 1381.6435,1166.3321   L 1387.6855,1166.3321   L 1387.6855,1192.7661   C 1387.6855,1196.7312 1388.0631,1199.6767 1388.7806,1201.5648   C 1389.5359,1203.4152 1390.7821,1204.8879 1392.5947,1205.9075   C 1394.4073,1206.9271 1396.5975,1207.418 1399.2032,1207.418   C 1403.6592,1207.418 1406.8313,1206.4362 1408.7194,1204.397   C 1410.6075,1202.3956 1411.5516,1198.506 1411.5516,1192.7661   z "
     style="fill:#ff0000;fill-rule:nonzero;fill-opacity:1;stroke:#ff0000;stroke-width:1.0573581px;stroke-linecap:butt;stroke-linejoin:miter;stroke-miterlimit:282;stroke-dasharray:none;stroke-opacity:1;" />
  <path
     id="path13"
     d="  M 1427.7518,1212.1006   L 1427.7518,1166.3321   L 1445.0094,1166.3321   C 1448.0305,1166.3321 1450.3717,1166.4832 1451.9578,1166.7853   C 1454.2236,1167.1629 1456.1117,1167.8804 1457.6222,1168.9377   C 1459.1327,1169.9573 1460.3789,1171.4301 1461.2852,1173.356   C 1462.2293,1175.2441 1462.6824,1177.3211 1462.6824,1179.5868   C 1462.6824,1183.4764 1461.4362,1186.7618 1458.9817,1189.4807   C 1456.4893,1192.1619 1451.9955,1193.5213 1445.5381,1193.5213   L 1433.7939,1193.5213   L 1433.7939,1212.1006   z  M 1433.7939,1188.1212   L 1445.6514,1188.1212   C 1449.541,1188.1212 1452.3354,1187.366 1453.9592,1185.931   C 1455.6208,1184.4582 1456.4516,1182.4191 1456.4516,1179.7757   C 1456.4516,1177.8498 1455.9606,1176.226 1454.9788,1174.8665   C 1454.0347,1173.507 1452.7508,1172.6007 1451.1648,1172.1476   C 1450.1452,1171.8832 1448.257,1171.7322 1445.5003,1171.7322   L 1433.7939,1171.7322   z "
     style="fill:#ff0000;fill-rule:nonzero;fill-opacity:1;stroke:#ff0000;stroke-width:1.0573581px;stroke-linecap:butt;stroke-linejoin:miter;stroke-miterlimit:282;stroke-dasharray:none;stroke-opacity:1;" />
</svg>
