<?xml version="1.0" encoding="UTF-8" standalone="no"?>
<svg
   xmlns:dc="http://purl.org/dc/elements/1.1/"
   xmlns:cc="http://creativecommons.org/ns#"
   xmlns:rdf="http://www.w3.org/1999/02/22-rdf-syntax-ns#"
   xmlns:svg="http://www.w3.org/2000/svg"
   xmlns="http://www.w3.org/2000/svg"
   id="svg53"
   height="130.27mm"
   width="130.27mm"
   version="1.0">
  <metadata
     id="metadata57">
    <rdf:RDF>
      <cc:Work
         rdf:about="">
        <dc:format>image/svg+xml</dc:format>
        <dc:type
           rdf:resource="http://purl.org/dc/dcmitype/StillImage" />
      </cc:Work>
    </rdf:RDF>
  </metadata>
  <defs
     id="defs3">
    <pattern
       y="0"
       x="0"
       height="6"
       width="6"
       patternUnits="userSpaceOnUse"
       id="EMFhbasepattern" />
  </defs>
  <path
     id="path5"
     d="  M 198.2008,63.935742   L 198.2008,111.88755   L 294.10441,111.88755   L 294.10441,63.935742   L 198.2008,63.935742   z "
     style="fill:#000000;fill-rule:evenodd;fill-opacity:1;stroke:none;" />
  <path
     id="path7"
     d="  M 164.63454,327.67068   C 164.63454,437.95983 327.67068,437.95983 327.67068,327.67068   C 437.95983,327.67068 437.95983,164.63454 327.67068,164.63454   C 327.67068,54.345381 164.63454,54.345381 164.63454,164.63454   C 54.345381,164.63454 54.345381,327.67068 164.63454,327.67068   z "
     style="fill:#ffff80;fill-rule:evenodd;fill-opacity:1;stroke:none;" />
  <path
     id="path9"
     d="  M 164.63454,327.67068   C 164.63454,437.95983 327.67068,437.95983 327.67068,327.67068   C 437.95983,327.67068 437.95983,164.63454 327.67068,164.63454   C 327.67068,54.345381 164.63454,54.345381 164.63454,164.63454   C 54.345381,164.63454 54.345381,327.67068 164.63454,327.67068  "
     style="fill:none;stroke:#000000;stroke-width:9.5903616px;stroke-linecap:butt;stroke-linejoin:miter;stroke-miterlimit:10;stroke-dasharray:none;stroke-opacity:1;" />
  <path
     id="path11"
     d="  M 311.36706,226.97188   L 311.36706,274.92369   L 331.50682,274.92369   L 331.50682,226.97188   L 311.36706,226.97188   z "
     style="fill:#ffffff;fill-rule:evenodd;fill-opacity:1;stroke:none;" />
  <path
     id="path13"
     d="  M 283.55502,221.21767   L 283.55502,246.15261   L 329.58875,246.15261   L 329.58875,221.21767   L 283.55502,221.21767   z "
     style="fill:#ffffff;fill-rule:evenodd;fill-opacity:1;stroke:none;" />
  <path
     id="path15"
     d="  M 158.88032,227.93092   L 158.88032,274.92369   L 180.93815,274.92369   L 180.93815,227.93092   L 158.88032,227.93092   z "
     style="fill:#ffffff;fill-rule:evenodd;fill-opacity:1;stroke:none;" />
  <path
     id="path17"
     d="  M 161.75743,222.1767   L 161.75743,245.19357   L 207.79116,245.19357   L 207.79116,222.1767   L 161.75743,222.1767   z "
     style="fill:#ffffff;fill-rule:evenodd;fill-opacity:1;stroke:none;" />
  <path
     id="path19"
     d="  M 149.28996,275.88273   L 343.01526,275.88273  "
     style="fill:none;stroke:#000000;stroke-width:5.7542167px;stroke-linecap:butt;stroke-linejoin:miter;stroke-miterlimit:10;stroke-dasharray:none;stroke-opacity:1;" />
  <path
     id="path21"
     d="  M 208.7502,203.95502   L 208.7502,274.92369   L 283.55502,274.92369   L 283.55502,203.95502   L 208.7502,203.95502   z "
     style="fill:#ffffff;fill-rule:evenodd;fill-opacity:1;stroke:none;" />
  <path
     id="path23"
     d="  M 208.7502,203.95502   L 283.55502,203.95502   L 283.55502,274.92369   L 208.7502,274.92369   z "
     style="fill:none;stroke:#000000;stroke-width:5.7542167px;stroke-linecap:butt;stroke-linejoin:miter;stroke-miterlimit:10;stroke-dasharray:none;stroke-opacity:1;" />
  <path
     id="path25"
     d="  M 206.83213,220.25863   L 177.10201,220.25863  "
     style="fill:none;stroke:#000000;stroke-width:5.7542167px;stroke-linecap:butt;stroke-linejoin:miter;stroke-miterlimit:10;stroke-dasharray:none;stroke-opacity:1;" />
  <path
     id="path27"
     d="  M 208.7502,246.15261   L 182.85622,246.15261  "
     style="fill:none;stroke:#000000;stroke-width:5.7542167px;stroke-linecap:butt;stroke-linejoin:miter;stroke-miterlimit:10;stroke-dasharray:none;stroke-opacity:1;" />
  <path
     id="path29"
     d="  M 283.55502,246.15261   L 309.44899,246.15261  "
     style="fill:none;stroke:#000000;stroke-width:5.7542167px;stroke-linecap:butt;stroke-linejoin:miter;stroke-miterlimit:10;stroke-dasharray:none;stroke-opacity:1;" />
  <path
     id="path31"
     d="  M 283.55502,220.25863   L 315.20321,220.25863  "
     style="fill:none;stroke:#000000;stroke-width:5.7542167px;stroke-linecap:butt;stroke-linejoin:miter;stroke-miterlimit:10;stroke-dasharray:none;stroke-opacity:1;" />
  <path
     id="path33"
     d="  M 180.93815,273.96465   L 180.93815,251.90682  "
     style="fill:none;stroke:#000000;stroke-width:5.7542167px;stroke-linecap:butt;stroke-linejoin:miter;stroke-miterlimit:10;stroke-dasharray:none;stroke-opacity:1;" />
  <path
     id="path35"
     d="  M 311.36706,273.96465   L 311.36706,252.86586  "
     style="fill:none;stroke:#000000;stroke-width:5.7542167px;stroke-linecap:butt;stroke-linejoin:miter;stroke-miterlimit:10;stroke-dasharray:none;stroke-opacity:1;" />
  <path
     id="path37"
     d="  M 158.88032,273.96465   L 158.88032,235.60321  "
     style="fill:none;stroke:#000000;stroke-width:5.7542167px;stroke-linecap:butt;stroke-linejoin:miter;stroke-miterlimit:10;stroke-dasharray:none;stroke-opacity:1;" />
  <path
     id="path39"
     d="  M 333.42489,273.96465   L 333.42489,235.60321  "
     style="fill:none;stroke:#000000;stroke-width:5.7542167px;stroke-linecap:butt;stroke-linejoin:miter;stroke-miterlimit:10;stroke-dasharray:none;stroke-opacity:1;" />
  <path
     id="path41"
     d="  M 158.84036,239.11968   C 158.64056,222.81606 164.35482,220.17871 178.66044,220.17871  "
     style="fill:none;stroke:#000000;stroke-width:5.7542167px;stroke-linecap:butt;stroke-linejoin:miter;stroke-miterlimit:10;stroke-dasharray:none;stroke-opacity:1;" />
  <path
     id="path43"
     d="  M 187.61144,246.15261   C 180.13895,245.55321 181.01807,246.87188 181.01807,252.78594  "
     style="fill:none;stroke:#000000;stroke-width:5.7542167px;stroke-linecap:butt;stroke-linejoin:miter;stroke-miterlimit:10;stroke-dasharray:none;stroke-opacity:1;" />
  <path
     id="path45"
     d="  M 307.17128,246.19257   C 312.44598,245.23353 311.36706,248.51024 311.44698,253.90482  "
     style="fill:none;stroke:#000000;stroke-width:5.7542167px;stroke-linecap:butt;stroke-linejoin:miter;stroke-miterlimit:10;stroke-dasharray:none;stroke-opacity:1;" />
  <path
     id="path47"
     d="  M 333.46485,239.43935   C 333.82449,223.05582 329.82851,220.13875 313.56485,220.17871  "
     style="fill:none;stroke:#000000;stroke-width:5.7542167px;stroke-linecap:butt;stroke-linejoin:miter;stroke-miterlimit:10;stroke-dasharray:none;stroke-opacity:1;" />
  <path
     id="path49"
     d="  M 164.15502,222.81606   L 169.70944,221.09779  "
     style="fill:none;stroke:#000000;stroke-width:0.95903611px;stroke-linecap:butt;stroke-linejoin:miter;stroke-miterlimit:10;stroke-dasharray:none;stroke-opacity:1;" />
  <path
     id="path51"
     d="  M 310.96747,247.63112   L 312.16626,251.22751  "
     style="fill:none;stroke:#000000;stroke-width:0.95903611px;stroke-linecap:butt;stroke-linejoin:miter;stroke-miterlimit:10;stroke-dasharray:none;stroke-opacity:1;" />
</svg>
