<?xml version="1.0" encoding="UTF-8" standalone="no"?>
<svg
   xmlns:dc="http://purl.org/dc/elements/1.1/"
   xmlns:cc="http://creativecommons.org/ns#"
   xmlns:rdf="http://www.w3.org/1999/02/22-rdf-syntax-ns#"
   xmlns:svg="http://www.w3.org/2000/svg"
   xmlns="http://www.w3.org/2000/svg"
   id="svg21"
   height="130.27mm"
   width="130.27mm"
   version="1.0">
  <metadata
     id="metadata25">
    <rdf:RDF>
      <cc:Work
         rdf:about="">
        <dc:format>image/svg+xml</dc:format>
        <dc:type
           rdf:resource="http://purl.org/dc/dcmitype/StillImage" />
      </cc:Work>
    </rdf:RDF>
  </metadata>
  <defs
     id="defs3">
    <pattern
       y="0"
       x="0"
       height="6"
       width="6"
       patternUnits="userSpaceOnUse"
       id="EMFhbasepattern" />
  </defs>
  <path
     id="path5"
     d="  M 164.63454,327.67068   C 164.63454,437.95983 327.67068,437.95983 327.67068,327.67068   C 437.95983,327.67068 437.95983,164.63454 327.67068,164.63454   C 327.67068,54.345381 164.63454,54.345381 164.63454,164.63454   C 54.345381,164.63454 54.345381,327.67068 164.63454,327.67068   z "
     style="fill:#ffff80;fill-rule:evenodd;fill-opacity:1;stroke:none;" />
  <path
     id="path7"
     d="  M 164.63454,327.67068   C 164.63454,437.95983 327.67068,437.95983 327.67068,327.67068   C 437.95983,327.67068 437.95983,164.63454 327.67068,164.63454   C 327.67068,54.345381 164.63454,54.345381 164.63454,164.63454   C 54.345381,164.63454 54.345381,327.67068 164.63454,327.67068  "
     style="fill:none;stroke:#000000;stroke-width:9.5903616px;stroke-linecap:butt;stroke-linejoin:miter;stroke-miterlimit:10;stroke-dasharray:none;stroke-opacity:1;" />
  <path
     id="path9"
     d="  M 92.706826,289.30923   L 380.41767,289.30923  "
     style="fill:none;stroke:#000000;stroke-width:9.5903616px;stroke-linecap:butt;stroke-linejoin:miter;stroke-miterlimit:10;stroke-dasharray:none;stroke-opacity:1;" />
  <path
     id="path11"
     d="  M 390.00803,188.61044   L 390.00803,188.61044   L 351.64658,246.15261   L 390.00803,303.69477  "
     style="fill:none;stroke:#000000;stroke-width:9.5903616px;stroke-linecap:butt;stroke-linejoin:miter;stroke-miterlimit:10;stroke-dasharray:none;stroke-opacity:1;" />
  <path
     id="path13"
     d="  M 231.76706,179.02008   L 279.71887,179.02008  "
     style="fill:none;stroke:#000000;stroke-width:9.5903616px;stroke-linecap:butt;stroke-linejoin:miter;stroke-miterlimit:10;stroke-dasharray:none;stroke-opacity:1;" />
  <path
     id="path15"
     d="  M 255.74297,202.99598   L 255.74297,179.02008  "
     style="fill:none;stroke:#000000;stroke-width:9.5903616px;stroke-linecap:butt;stroke-linejoin:miter;stroke-miterlimit:10;stroke-dasharray:none;stroke-opacity:1;" />
  <path
     id="path17"
     d="  M 159.83936,202.99598   L 274.92369,202.99598   C 313.28514,202.99598 320.95743,246.15261 322.8755,274.92369  "
     style="fill:none;stroke:#000000;stroke-width:9.5903616px;stroke-linecap:butt;stroke-linejoin:miter;stroke-miterlimit:10;stroke-dasharray:none;stroke-opacity:1;" />
  <path
     id="path19"
     d="  M 199.55943,255.86285   L 199.55943,229.08976   L 209.66927,229.08976   C 211.46747,229.08976 212.78614,229.16968 213.74518,229.32951   C 215.06385,229.56927 216.14277,229.96887 217.06184,230.60823   C 217.94096,231.20763 218.66024,232.08674 219.17972,233.16566   C 219.73915,234.28453 220.01887,235.52329 220.01887,236.84196   C 220.01887,239.11968 219.2996,241.03775 217.82108,242.59618   C 216.38253,244.19457 213.78514,244.99377 209.98895,244.99377   L 203.11586,244.99377   L 203.11586,255.86285   z  M 203.11586,241.83694   L 210.02891,241.83694   C 212.30662,241.83694 213.94498,241.39739 214.90401,240.55823   C 215.86305,239.67911 216.34257,238.48032 216.34257,236.96184   C 216.34257,235.84297 216.06285,234.88393 215.50341,234.08474   C 214.94397,233.28554 214.18474,232.7261 213.26566,232.48634   C 212.66626,232.3265 211.58735,232.24658 209.94899,232.24658   L 203.11586,232.24658   z  M 242.0767,229.08976   L 245.63313,229.08976   L 245.63313,244.55421   C 245.63313,247.23152 245.31345,249.38935 244.71405,250.98775   C 244.11466,252.54618 242.99578,253.8249 241.43735,254.82389   C 239.83895,255.82289 237.76104,256.30241 235.16365,256.30241   C 232.64618,256.30241 230.60823,255.90281 229.00984,255.02369   C 227.41144,254.14457 226.29257,252.90582 225.61325,251.26747   C 224.89397,249.62911 224.57429,247.39136 224.57429,244.55421   L 224.57429,229.08976   L 228.13072,229.08976   L 228.13072,244.55421   C 228.13072,246.87188 228.33052,248.59016 228.77008,249.66907   C 229.20964,250.78795 229.92891,251.6271 231.00783,252.2265   C 232.04678,252.8259 233.3255,253.10562 234.84397,253.10562   C 237.44136,253.10562 239.31947,252.54618 240.43835,251.34739   C 241.51727,250.18855 242.0767,247.91084 242.0767,244.55421   z  M 251.58714,255.86285   L 251.58714,229.08976   L 263.45522,229.08976   C 265.85281,229.08976 267.651,229.32951 268.88976,229.80903   C 270.12851,230.28855 271.12751,231.12771 271.88674,232.36646   C 272.60602,233.56526 273.00562,234.92389 273.00562,236.40241   C 273.00562,238.28052 272.36626,239.87891 271.12751,241.19759   C 269.92871,242.51626 268.01064,243.31546 265.45321,243.6751   C 266.37229,244.11466 267.09156,244.59417 267.57108,245.03373   C 268.61004,245.95281 269.60903,247.1516 270.52811,248.59016   L 275.16345,255.86285   L 270.72791,255.86285   L 267.17148,250.30843   C 266.13253,248.67008 265.29337,247.47128 264.61405,246.59217   C 263.93474,245.75301 263.33534,245.15361 262.81586,244.83393   C 262.29638,244.47429 261.73694,244.23453 261.21747,244.11466   C 260.81787,244.03474 260.13855,243.99478 259.21947,243.95482   L 255.14357,243.95482   L 255.14357,255.86285   z  M 255.14357,240.91787   L 262.73594,240.91787   C 264.37429,240.91787 265.61305,240.75803 266.53212,240.39839   C 267.4512,240.07871 268.13052,239.51927 268.61004,238.8   C 269.08955,238.08072 269.32931,237.24156 269.32931,236.40241   C 269.32931,235.12369 268.88976,234.08474 267.97068,233.28554   C 267.0516,232.44638 265.57309,232.04678 263.61506,232.04678   L 255.14357,232.04678   z  M 278.6,255.86285   L 278.6,229.08976   L 297.98052,229.08976   L 297.98052,232.24658   L 282.15642,232.24658   L 282.15642,240.43835   L 296.98152,240.43835   L 296.98152,243.59518   L 282.15642,243.59518   L 282.15642,252.70602   L 298.57992,252.70602   L 298.57992,255.86285   z "
     style="fill:#000000;fill-rule:evenodd;fill-opacity:1;stroke:none;" />
</svg>
