<?xml version="1.0" encoding="UTF-8" standalone="no"?>
<svg
   xmlns:dc="http://purl.org/dc/elements/1.1/"
   xmlns:cc="http://creativecommons.org/ns#"
   xmlns:rdf="http://www.w3.org/1999/02/22-rdf-syntax-ns#"
   xmlns:svg="http://www.w3.org/2000/svg"
   xmlns="http://www.w3.org/2000/svg"
   id="svg21"
   height="89.669998mm"
   width="120.11mm"
   version="1.0">
  <metadata
     id="metadata25">
    <rdf:RDF>
      <cc:Work
         rdf:about="">
        <dc:format>image/svg+xml</dc:format>
        <dc:type
           rdf:resource="http://purl.org/dc/dcmitype/StillImage" />
      </cc:Work>
    </rdf:RDF>
  </metadata>
  <defs
     id="defs3">
    <pattern
       y="0"
       x="0"
       height="6"
       width="6"
       patternUnits="userSpaceOnUse"
       id="EMFhbasepattern" />
  </defs>
  <path
     id="path5"
     d="  M 54.345381,54.345381   L 54.345381,284.51405   L 399.59839,284.51405   L 399.59839,54.345381   L 54.345381,54.345381   z "
     style="fill:#80e0ff;fill-rule:evenodd;fill-opacity:1;stroke:none;" />
  <path
     id="path7"
     d="  M 54.345381,54.345381   L 399.59839,54.345381   L 399.59839,284.51405   L 54.345381,284.51405   z "
     style="fill:none;stroke:#000000;stroke-width:9.5903616px;stroke-linecap:butt;stroke-linejoin:miter;stroke-miterlimit:10;stroke-dasharray:none;stroke-opacity:1;" />
  <path
     id="path9"
     d="  M 54.345381,212.58634   L 370.8273,212.58634  "
     style="fill:none;stroke:#000000;stroke-width:9.5903616px;stroke-linecap:butt;stroke-linejoin:miter;stroke-miterlimit:10;stroke-dasharray:none;stroke-opacity:1;" />
  <path
     id="path11"
     d="  M 399.59839,54.345381   L 399.59839,54.345381   L 351.64658,169.42972   L 399.59839,284.51405  "
     style="fill:none;stroke:#000000;stroke-width:9.5903616px;stroke-linecap:butt;stroke-linejoin:miter;stroke-miterlimit:10;stroke-dasharray:none;stroke-opacity:1;" />
  <path
     id="path13"
     d="  M 212.58634,102.29719   L 260.53815,102.29719  "
     style="fill:none;stroke:#000000;stroke-width:9.5903616px;stroke-linecap:butt;stroke-linejoin:miter;stroke-miterlimit:10;stroke-dasharray:none;stroke-opacity:1;" />
  <path
     id="path15"
     d="  M 236.56225,126.27309   L 236.56225,102.29719  "
     style="fill:none;stroke:#000000;stroke-width:9.5903616px;stroke-linecap:butt;stroke-linejoin:miter;stroke-miterlimit:10;stroke-dasharray:none;stroke-opacity:1;" />
  <path
     id="path17"
     d="  M 140.65863,126.27309   L 255.74297,126.27309   C 294.10441,126.27309 301.7767,169.42972 303.69477,198.2008  "
     style="fill:none;stroke:#000000;stroke-width:9.5903616px;stroke-linecap:butt;stroke-linejoin:miter;stroke-miterlimit:10;stroke-dasharray:none;stroke-opacity:1;" />
  <path
     id="path19"
     d="  M 180.37871,179.13996   L 180.37871,152.36687   L 190.48855,152.36687   C 192.28674,152.36687 193.60542,152.44678 194.56446,152.60662   C 195.88313,152.84638 196.96205,153.24598 197.88112,153.88534   C 198.76024,154.48474 199.47952,155.36385 199.99899,156.44277   C 200.55843,157.56164 200.83815,158.8004 200.83815,160.11907   C 200.83815,162.39678 200.11887,164.31486 198.64036,165.87329   C 197.2018,167.47168 194.60441,168.27088 190.80823,168.27088   L 183.93514,168.27088   L 183.93514,179.13996   z  M 183.93514,165.11405   L 190.84819,165.11405   C 193.1259,165.11405 194.76425,164.6745 195.72329,163.83534   C 196.68233,162.95622 197.16184,161.75743 197.16184,160.23895   C 197.16184,159.12008 196.88213,158.16104 196.32269,157.36185   C 195.76325,156.56265 195.00401,156.00321 194.08494,155.76345   C 193.48554,155.60361 192.40662,155.52369 190.76827,155.52369   L 183.93514,155.52369   z  M 222.89598,152.36687   L 226.45241,152.36687   L 226.45241,167.83132   C 226.45241,170.50863 226.13273,172.66646 225.53333,174.26486   C 224.93393,175.82329 223.81506,177.10201 222.25662,178.101   C 220.65823,179.1 218.58032,179.57952 215.98293,179.57952   C 213.46546,179.57952 211.42751,179.17992 209.82911,178.3008   C 208.23072,177.42168 207.11184,176.18293 206.43253,174.54458   C 205.71325,172.90622 205.39357,170.66847 205.39357,167.83132   L 205.39357,152.36687   L 208.95,152.36687   L 208.95,167.83132   C 208.95,170.14899 209.1498,171.86727 209.58935,172.94618   C 210.02891,174.06506 210.74819,174.90421 211.82711,175.50361   C 212.86606,176.10301 214.14478,176.38273 215.66325,176.38273   C 218.26064,176.38273 220.13875,175.82329 221.25763,174.6245   C 222.33654,173.46566 222.89598,171.18795 222.89598,167.83132   z  M 232.40642,179.13996   L 232.40642,152.36687   L 244.27449,152.36687   C 246.67208,152.36687 248.47028,152.60662 249.70903,153.08614   C 250.94779,153.56566 251.94678,154.40482 252.70602,155.64357   C 253.4253,156.84237 253.8249,158.201 253.8249,159.67952   C 253.8249,161.55763 253.18554,163.15602 251.94678,164.4747   C 250.74799,165.79337 248.82992,166.59257 246.27249,166.95221   C 247.19156,167.39176 247.91084,167.87128 248.39036,168.31084   C 249.42931,169.22992 250.42831,170.42871 251.34739,171.86727   L 255.98273,179.13996   L 251.54719,179.13996   L 247.99076,173.58554   C 246.9518,171.94719 246.11265,170.74839 245.43333,169.86927   C 244.75401,169.03012 244.15461,168.43072 243.63514,168.11104   C 243.11566,167.7514 242.55622,167.51164 242.03674,167.39176   C 241.63715,167.31184 240.95783,167.27189 240.03875,167.23193   L 235.96285,167.23193   L 235.96285,179.13996   z  M 235.96285,164.19498   L 243.55522,164.19498   C 245.19357,164.19498 246.43233,164.03514 247.3514,163.6755   C 248.27048,163.35582 248.9498,162.79638 249.42931,162.07711   C 249.90883,161.35783 250.14859,160.51867 250.14859,159.67952   C 250.14859,158.4008 249.70903,157.36185 248.78996,156.56265   C 247.87088,155.72349 246.39237,155.32389 244.43433,155.32389   L 235.96285,155.32389   z  M 259.41927,179.13996   L 259.41927,152.36687   L 278.7998,152.36687   L 278.7998,155.52369   L 262.9757,155.52369   L 262.9757,163.71546   L 277.8008,163.71546   L 277.8008,166.87229   L 262.9757,166.87229   L 262.9757,175.98313   L 279.39919,175.98313   L 279.39919,179.13996   z "
     style="fill:#000000;fill-rule:evenodd;fill-opacity:1;stroke:none;" />
</svg>
