<?xml version="1.0" encoding="UTF-8" standalone="no"?>
<svg
   xmlns:dc="http://purl.org/dc/elements/1.1/"
   xmlns:cc="http://creativecommons.org/ns#"
   xmlns:rdf="http://www.w3.org/1999/02/22-rdf-syntax-ns#"
   xmlns:svg="http://www.w3.org/2000/svg"
   xmlns="http://www.w3.org/2000/svg"
   id="svg15"
   height="112.9mm"
   width="112.9mm"
   version="1.0">
  <metadata
     id="metadata19">
    <rdf:RDF>
      <cc:Work
         rdf:about="">
        <dc:format>image/svg+xml</dc:format>
        <dc:type
           rdf:resource="http://purl.org/dc/dcmitype/StillImage" />
      </cc:Work>
    </rdf:RDF>
  </metadata>
  <defs
     id="defs3">
    <pattern
       y="0"
       x="0"
       height="6"
       width="6"
       patternUnits="userSpaceOnUse"
       id="EMFhbasepattern" />
  </defs>
  <path
     id="path5"
     d="  M 2004.1343,2185.3266   C 2004.1343,2307.9346 2185.3266,2307.9346 2185.3266,2185.3266   C 2307.9346,2185.3266 2307.9346,2004.1343 2185.3266,2004.1343   C 2185.3266,1881.5263 2004.1343,1881.5263 2004.1343,2004.1343   C 1881.5263,2004.1343 1881.5263,2185.3266 2004.1343,2185.3266   z "
     style="fill:#ffff80;fill-rule:nonzero;fill-opacity:1;stroke:#000000;stroke-width:10.651708px;stroke-linecap:butt;stroke-linejoin:miter;stroke-miterlimit:282;stroke-dasharray:none;stroke-opacity:1;" />
  <ellipse
     id="ellipse7"
     ry="31.312998"
     rx="31.312998"
     cy="2094.0695"
     cx="2094.0695"
     style="fill:#000000;fill-rule:nonzero;fill-opacity:1;stroke:#000000;stroke-width:1.0576164px;stroke-linecap:butt;stroke-linejoin:miter;stroke-miterlimit:282;stroke-dasharray:none;stroke-opacity:1;" />
  <path
     id="path9"
     d="  M 2040.9242,2002.3212   C 2072.9171,1983.1331 2115.5617,1983.1331 2147.5169,2002.3212   L 2118.7346,2052.4069   C 2104.8723,2043.8705 2083.5688,2043.8705 2069.7065,2052.4069   z "
     style="fill:#000000;fill-rule:nonzero;fill-opacity:1;stroke:#000000;stroke-width:1.0576164px;stroke-linecap:butt;stroke-linejoin:miter;stroke-miterlimit:282;stroke-dasharray:none;stroke-opacity:1;" />
  <path
     id="path11"
     d="  M 2200.2466,2094.3339   C 2200.8887,2131.6148 2179.6231,2168.5559 2147.0258,2186.6864   L 2117.9791,2136.7141   C 2132.2947,2128.9708 2142.9464,2110.5003 2142.4554,2094.2205   z "
     style="fill:#000000;fill-rule:nonzero;fill-opacity:1;stroke:#000000;stroke-width:1.0576164px;stroke-linecap:butt;stroke-linejoin:miter;stroke-miterlimit:282;stroke-dasharray:none;stroke-opacity:1;" />
  <path
     id="path13"
     d="  M 2041.3397,2185.6666   C 2008.7803,2167.4982 1987.5146,2130.5194 1988.2323,2093.2385   L 2046.0235,2093.2385   C 2045.5324,2109.4804 2056.1464,2127.9887 2070.4242,2135.732   z "
     style="fill:#000000;fill-rule:nonzero;fill-opacity:1;stroke:#000000;stroke-width:1.0576164px;stroke-linecap:butt;stroke-linejoin:miter;stroke-miterlimit:282;stroke-dasharray:none;stroke-opacity:1;" />
</svg>
