<?xml version="1.0" encoding="UTF-8" standalone="no"?>
<svg
   xmlns:dc="http://purl.org/dc/elements/1.1/"
   xmlns:cc="http://creativecommons.org/ns#"
   xmlns:rdf="http://www.w3.org/1999/02/22-rdf-syntax-ns#"
   xmlns:svg="http://www.w3.org/2000/svg"
   xmlns="http://www.w3.org/2000/svg"
   id="svg11"
   height="112.9mm"
   width="112.9mm"
   version="1.0">
  <metadata
     id="metadata15">
    <rdf:RDF>
      <cc:Work
         rdf:about="">
        <dc:format>image/svg+xml</dc:format>
        <dc:type
           rdf:resource="http://purl.org/dc/dcmitype/StillImage" />
      </cc:Work>
    </rdf:RDF>
  </metadata>
  <defs
     id="defs3">
    <pattern
       y="0"
       x="0"
       height="6"
       width="6"
       patternUnits="userSpaceOnUse"
       id="EMFhbasepattern" />
  </defs>
  <path
     id="path5"
     d="  M 2960.0427,3191.9855   L 3144.0637,3007.4254   L 2960.0427,2822.8275   L 2776.0593,3007.4254   L 2960.0427,3191.9855   z "
     style="fill:#ff8080;fill-rule:nonzero;fill-opacity:1;stroke:#000000;stroke-width:10.62747px;stroke-linecap:square;stroke-linejoin:miter;stroke-miterlimit:282;stroke-dasharray:none;stroke-opacity:1;" />
  <path
     id="path7"
     d="  M 3055.3884,3040.3151   C 3054.1071,3040.0504 3048.8687,3042.0919 3039.711,3046.4393   C 3033.832,3049.01 3027.0485,3052.9417 3019.3982,3058.3099   C 2991.3221,3076.9851 2971.5369,3102.1627 2960.0804,3133.8427   C 2959.5528,3133.8427 2958.799,3133.2 2957.7815,3131.9146   C 2953.4099,3118.1161 2945.6466,3104.3176 2934.4161,3090.519   C 2922.6581,3075.6998 2909.1288,3063.4134 2893.8283,3053.7355   C 2886.6679,3049.1234 2876.8318,3044.5113 2864.3201,3039.937   C 2864.1316,3039.4078 2864.1316,3039.0297 2864.3201,3038.7651   C 2867.6364,3037.2529 2872.1211,3035.3249 2877.7363,3033.0188   C 2892.2831,3028.1421 2907.7721,3017.0277 2924.2409,2999.6755   C 2940.7097,2982.2856 2951.4879,2965.9542 2956.6132,2950.6057   C 2957.367,2948.5643 2958.5352,2946.485 2960.0427,2944.4436   C 2964.9042,2959.5653 2974.0996,2975.254 2987.6289,2991.6232   C 3001.9119,3009.24 3016.6095,3021.7532 3031.6462,3029.1628   C 3034.9626,3030.7128 3040.3517,3033.1323 3047.7381,3036.459   C 3050.037,3036.7237 3052.562,3038.009 3055.3884,3040.3151   z "
     style="fill:#000000;fill-rule:nonzero;fill-opacity:1;stroke:none;" />
  <path
     id="path9"
     d="  M 2944.1392,2938.0547   L 2944.1392,2898.3603   L 2960.9471,2898.3603   C 2965.168,2898.3603 2968.2582,2898.7005 2970.1802,2899.4188   C 2972.1022,2900.1371 2973.6097,2901.3846 2974.7779,2903.237   C 2975.9462,2905.0516 2976.5115,2907.1308 2976.5115,2909.4747   C 2976.5115,2912.4612 2975.6447,2914.9185 2973.8735,2916.8465   C 2972.1399,2918.8123 2969.5396,2920.0221 2966.0724,2920.5135   C 2967.7683,2921.5342 2969.2004,2922.6684 2970.331,2923.8781   C 2971.4616,2925.0878 2972.969,2927.2049 2974.891,2930.3048   L 2979.7148,2938.0547   L 2970.1425,2938.0547   L 2964.3766,2929.4353   C 2962.3415,2926.3354 2960.9095,2924.3696 2960.1557,2923.5757   C 2959.402,2922.7818 2958.6106,2922.2147 2957.7815,2921.9123   C 2956.9147,2921.6477 2955.558,2921.4964 2953.7491,2921.4964   L 2952.1286,2921.4964   L 2952.1286,2938.0547   z  M 2952.1286,2915.1453   L 2958.0453,2915.1453   C 2961.8516,2915.1453 2964.2635,2914.9941 2965.2057,2914.6539   C 2966.1855,2914.3136 2966.9015,2913.7844 2967.4668,2912.9905   C 2967.9944,2912.1966 2968.2582,2911.1759 2968.2582,2910.004   C 2968.2582,2908.643 2967.9191,2907.5845 2967.203,2906.7528   C 2966.487,2905.9211 2965.4695,2905.4297 2964.1881,2905.2028   C 2963.5475,2905.1272 2961.5878,2905.0516 2958.3468,2905.0516   L 2952.1286,2905.0516   z "
     style="fill:#000000;fill-rule:nonzero;fill-opacity:1;stroke:none;" />
</svg>
