<?xml version="1.0" encoding="UTF-8" standalone="no"?>
<svg
   xmlns:dc="http://purl.org/dc/elements/1.1/"
   xmlns:cc="http://creativecommons.org/ns#"
   xmlns:rdf="http://www.w3.org/1999/02/22-rdf-syntax-ns#"
   xmlns:svg="http://www.w3.org/2000/svg"
   xmlns="http://www.w3.org/2000/svg"
   id="svg21"
   height="130.27mm"
   width="130.27mm"
   version="1.0">
  <metadata
     id="metadata25">
    <rdf:RDF>
      <cc:Work
         rdf:about="">
        <dc:format>image/svg+xml</dc:format>
        <dc:type
           rdf:resource="http://purl.org/dc/dcmitype/StillImage" />
      </cc:Work>
    </rdf:RDF>
  </metadata>
  <defs
     id="defs3">
    <pattern
       y="0"
       x="0"
       height="6"
       width="6"
       patternUnits="userSpaceOnUse"
       id="EMFhbasepattern" />
  </defs>
  <path
     id="path5"
     d="  M 164.63454,327.67068   C 164.63454,437.95983 327.67068,437.95983 327.67068,327.67068   C 437.95983,327.67068 437.95983,164.63454 327.67068,164.63454   C 327.67068,54.345381 164.63454,54.345381 164.63454,164.63454   C 54.345381,164.63454 54.345381,327.67068 164.63454,327.67068   z "
     style="fill:#ffff80;fill-rule:evenodd;fill-opacity:1;stroke:none;" />
  <path
     id="path7"
     d="  M 164.63454,327.67068   C 164.63454,437.95983 327.67068,437.95983 327.67068,327.67068   C 437.95983,327.67068 437.95983,164.63454 327.67068,164.63454   C 327.67068,54.345381 164.63454,54.345381 164.63454,164.63454   C 54.345381,164.63454 54.345381,327.67068 164.63454,327.67068  "
     style="fill:none;stroke:#000000;stroke-width:9.5903616px;stroke-linecap:butt;stroke-linejoin:miter;stroke-miterlimit:10;stroke-dasharray:none;stroke-opacity:1;" />
  <path
     id="path9"
     d="  M 164.6745,234.44437   L 172.4267,233.76506   C 172.78634,236.88192 173.6255,239.39939 174.94417,241.39739   C 176.30281,243.35542 178.38072,244.95381 181.17791,246.19257   C 183.9751,247.39136 187.13193,248.03072 190.64839,248.03072   C 193.76526,248.03072 196.52249,247.5512 198.92008,246.63212   C 201.31767,245.71305 203.0759,244.43433 204.23474,242.83594   C 205.43353,241.19759 205.99297,239.43935 205.99297,237.52128   C 205.99297,235.60321 205.43353,233.88494 204.31466,232.44638   C 203.19578,231.00783 201.31767,229.76907 198.76024,228.81004   C 197.08192,228.17068 193.40562,227.17168 187.73132,225.77309   C 182.05703,224.41445 178.101,223.13574 175.82329,221.93694   C 172.86626,220.37851 170.66847,218.46044 169.22992,216.18273   C 167.79136,213.90502 167.07209,211.30763 167.07209,208.47048   C 167.07209,205.35361 167.9512,202.4765 169.70944,199.75923   C 171.46767,197.04197 174.06506,194.96405 177.46164,193.56546   C 180.85823,192.16686 184.65442,191.44759 188.81024,191.44759   C 193.36566,191.44759 197.4016,192.20682 200.91807,193.68534   C 204.43454,195.16385 207.11184,197.32168 208.98996,200.19879   C 210.86807,203.03594 211.86707,206.31265 212.0269,209.90903   L 204.19478,210.50843   C 203.75522,206.59237 202.35662,203.6753 199.91907,201.67731   C 197.48152,199.67931 193.88514,198.68032 189.12992,198.68032   C 184.1749,198.68032 180.57851,199.55943 178.34076,201.39759   C 176.06305,203.19578 174.94417,205.39357 174.94417,207.951   C 174.94417,210.14879 175.74337,211.98694 177.34176,213.4255   C 178.9002,214.86405 183.01606,216.34257 189.64939,217.82108   C 196.32269,219.33956 200.87811,220.65823 203.35562,221.77711   C 206.95201,223.41546 209.58935,225.53333 211.30763,228.0508   C 213.0259,230.60823 213.86506,233.5253 213.86506,236.84196   C 213.86506,240.15863 212.94598,243.23554 211.06787,246.15261   C 209.18976,249.06968 206.47249,251.30743 202.95602,252.94578   C 199.3996,254.54417 195.44357,255.34337 191.04799,255.34337   C 185.45361,255.34337 180.77831,254.54417 176.98213,252.90582   C 173.18594,251.26747 170.22891,248.82992 168.07108,245.55321   C 165.95321,242.2765 164.79438,238.6002 164.6745,234.44437   z  M 225.21365,254.30441   L 225.21365,192.5265   L 269.88875,192.5265   L 269.88875,199.79919   L 233.40542,199.79919   L 233.40542,218.74016   L 267.57108,218.74016   L 267.57108,225.97289   L 233.40542,225.97289   L 233.40542,246.99176   L 271.32731,246.99176   L 271.32731,254.30441   z  M 326.71164,232.64618   L 334.86345,234.68413   C 333.14518,241.43735 330.06827,246.55221 325.63273,250.06867   C 321.15722,253.58514 315.72269,255.34337 309.28915,255.34337   C 302.61586,255.34337 297.22128,253.98474 293.06546,251.30743   C 288.86967,248.59016 285.71285,244.63413 283.51506,239.51927   C 281.35722,234.36445 280.23835,228.85 280.23835,222.93594   C 280.23835,216.50241 281.4771,210.90803 283.95461,206.11285   C 286.39216,201.31767 289.90863,197.68132 294.42409,195.20381   C 298.97951,192.68634 303.97449,191.44759 309.40903,191.44759   C 315.60281,191.44759 320.79759,193.04598 325.03333,196.20281   C 329.22911,199.31968 332.14618,203.75522 333.82449,209.46947   L 325.79257,211.34759   C 324.35401,206.87209 322.2761,203.59538 319.51887,201.51747   C 316.8016,199.47952 313.36506,198.44056 309.24919,198.44056   C 304.49397,198.44056 300.53795,199.59939 297.34116,201.87711   C 294.14437,204.15482 291.90662,207.19176 290.62791,211.02791   C 289.34919,214.86405 288.66988,218.82008 288.66988,222.89598   C 288.66988,228.17068 289.46907,232.7261 290.98755,236.68213   C 292.50602,240.59819 294.90361,243.51526 298.14036,245.43333   C 301.3771,247.39136 304.85361,248.3504 308.60983,248.3504   C 313.20522,248.3504 317.08132,247.03172 320.23815,244.39437   C 323.43494,241.75702 325.59277,237.84096 326.71164,232.64618   z "
     style="fill:#000000;fill-rule:evenodd;fill-opacity:1;stroke:none;" />
  <path
     id="path11"
     d="  M 181.89719,289.30923   C 181.89719,296.22228 176.34277,301.7767 169.42972,301.7767   C 162.55662,301.7767 156.96225,296.22228 156.96225,289.30923   C 156.96225,282.43614 162.55662,276.84176 169.42972,276.84176   C 176.34277,276.84176 181.89719,282.43614 181.89719,289.30923  "
     style="fill:none;stroke:#000000;stroke-width:9.5903616px;stroke-linecap:butt;stroke-linejoin:miter;stroke-miterlimit:10;stroke-dasharray:none;stroke-opacity:1;" />
  <path
     id="path13"
     d="  M 216.42249,289.30923   C 216.42249,296.22228 210.86807,301.7767 203.95502,301.7767   C 197.08192,301.7767 191.48755,296.22228 191.48755,289.30923   C 191.48755,282.43614 197.08192,276.84176 203.95502,276.84176   C 210.86807,276.84176 216.42249,282.43614 216.42249,289.30923  "
     style="fill:none;stroke:#000000;stroke-width:9.5903616px;stroke-linecap:butt;stroke-linejoin:miter;stroke-miterlimit:10;stroke-dasharray:none;stroke-opacity:1;" />
  <path
     id="path15"
     d="  M 335.34297,289.30923   C 335.34297,296.22228 329.78855,301.7767 322.8755,301.7767   C 316.00241,301.7767 310.40803,296.22228 310.40803,289.30923   C 310.40803,282.43614 316.00241,276.84176 322.8755,276.84176   C 329.78855,276.84176 335.34297,282.43614 335.34297,289.30923  "
     style="fill:none;stroke:#000000;stroke-width:9.5903616px;stroke-linecap:butt;stroke-linejoin:miter;stroke-miterlimit:10;stroke-dasharray:none;stroke-opacity:1;" />
  <path
     id="path17"
     d="  M 300.81767,289.30923   C 300.81767,296.22228 295.26325,301.7767 288.3502,301.7767   C 281.4771,301.7767 275.88273,296.22228 275.88273,289.30923   C 275.88273,282.43614 281.4771,276.84176 288.3502,276.84176   C 295.26325,276.84176 300.81767,282.43614 300.81767,289.30923  "
     style="fill:none;stroke:#000000;stroke-width:9.5903616px;stroke-linecap:butt;stroke-linejoin:miter;stroke-miterlimit:10;stroke-dasharray:none;stroke-opacity:1;" />
  <path
     id="path19"
     d="  M 152.16707,273.00562   L 340.13815,273.00562  "
     style="fill:none;stroke:#000000;stroke-width:9.5903616px;stroke-linecap:butt;stroke-linejoin:miter;stroke-miterlimit:10;stroke-dasharray:none;stroke-opacity:1;" />
</svg>
