<?xml version="1.0" encoding="UTF-8" standalone="no"?>
<svg
   xmlns:dc="http://purl.org/dc/elements/1.1/"
   xmlns:cc="http://creativecommons.org/ns#"
   xmlns:rdf="http://www.w3.org/1999/02/22-rdf-syntax-ns#"
   xmlns:svg="http://www.w3.org/2000/svg"
   xmlns="http://www.w3.org/2000/svg"
   id="svg21"
   height="89.669998mm"
   width="120.11mm"
   version="1.0">
  <metadata
     id="metadata25">
    <rdf:RDF>
      <cc:Work
         rdf:about="">
        <dc:format>image/svg+xml</dc:format>
        <dc:type
           rdf:resource="http://purl.org/dc/dcmitype/StillImage" />
      </cc:Work>
    </rdf:RDF>
  </metadata>
  <defs
     id="defs3">
    <pattern
       y="0"
       x="0"
       height="6"
       width="6"
       patternUnits="userSpaceOnUse"
       id="EMFhbasepattern" />
  </defs>
  <path
     id="path5"
     d="  M 54.345381,54.345381   L 54.345381,284.51405   L 399.59839,284.51405   L 399.59839,54.345381   L 54.345381,54.345381   z "
     style="fill:#80e0ff;fill-rule:evenodd;fill-opacity:1;stroke:none;" />
  <path
     id="path7"
     d="  M 54.345381,54.345381   L 399.59839,54.345381   L 399.59839,284.51405   L 54.345381,284.51405   z "
     style="fill:none;stroke:#000000;stroke-width:9.5903616px;stroke-linecap:butt;stroke-linejoin:miter;stroke-miterlimit:10;stroke-dasharray:none;stroke-opacity:1;" />
  <path
     id="path9"
     d="  M 145.49377,157.72148   L 153.24598,157.04217   C 153.60562,160.15903 154.44478,162.6765 155.76345,164.6745   C 157.12209,166.63253 159.2,168.23092 161.99719,169.46968   C 164.79438,170.66847 167.9512,171.30783 171.46767,171.30783   C 174.58454,171.30783 177.34176,170.82831 179.73935,169.90923   C 182.13695,168.99016 183.89518,167.71144 185.05401,166.11305   C 186.25281,164.4747 186.81225,162.71646 186.81225,160.79839   C 186.81225,158.88032 186.25281,157.16205 185.13393,155.72349   C 184.01506,154.28494 182.13695,153.04618 179.57952,152.08715   C 177.9012,151.44779 174.2249,150.44879 168.5506,149.0502   C 162.8763,147.69156 158.92028,146.41285 156.64257,145.21405   C 153.68554,143.65562 151.48775,141.73755 150.04919,139.45984   C 148.61064,137.18213 147.89136,134.58474 147.89136,131.74759   C 147.89136,128.63072 148.77048,125.75361 150.52871,123.03634   C 152.28695,120.31907 154.88434,118.24116 158.28092,116.84257   C 161.67751,115.44397 165.47369,114.7247 169.62952,114.7247   C 174.18494,114.7247 178.22088,115.48393 181.73735,116.96245   C 185.25381,118.44096 187.93112,120.59879 189.80923,123.4759   C 191.68735,126.31305 192.68634,129.58976 192.84618,133.18614   L 185.01405,133.78554   C 184.5745,129.86948 183.1759,126.95241 180.73835,124.95442   C 178.3008,122.95642 174.70442,121.95743 169.94919,121.95743   C 164.99417,121.95743 161.39779,122.83654 159.16004,124.6747   C 156.88233,126.47289 155.76345,128.67068 155.76345,131.22811   C 155.76345,133.4259 156.56265,135.26405 158.16104,136.70261   C 159.71948,138.14116 163.83534,139.61968 170.46867,141.09819   C 177.14197,142.61666 181.69739,143.93534 184.1749,145.05421   C 187.77128,146.69257 190.40863,148.81044 192.1269,151.32791   C 193.84518,153.88534 194.68433,156.80241 194.68433,160.11907   C 194.68433,163.43574 193.76526,166.51265 191.88715,169.42972   C 190.00903,172.34678 187.29176,174.58454 183.7753,176.22289   C 180.21887,177.82128 176.26285,178.62048 171.86727,178.62048   C 166.27289,178.62048 161.59759,177.82128 157.8014,176.18293   C 154.00522,174.54458 151.04819,172.10703 148.89036,168.83032   C 146.77249,165.55361 145.61365,161.87731 145.49377,157.72148   z  M 206.03293,177.58152   L 206.03293,115.80361   L 250.70803,115.80361   L 250.70803,123.0763   L 214.2247,123.0763   L 214.2247,142.01727   L 248.39036,142.01727   L 248.39036,149.25   L 214.2247,149.25   L 214.2247,170.26887   L 252.14658,170.26887   L 252.14658,177.58152   z  M 307.53092,155.92329   L 315.68273,157.96124   C 313.96445,164.71446 310.88755,169.82931 306.452,173.34578   C 301.9765,176.86225 296.54196,178.62048 290.10843,178.62048   C 283.43514,178.62048 278.04056,177.26184 273.88473,174.58454   C 269.68895,171.86727 266.53212,167.91124 264.33433,162.79638   C 262.1765,157.64156 261.05763,152.12711 261.05763,146.21305   C 261.05763,139.77952 262.29638,134.18514 264.77389,129.38996   C 267.21144,124.59478 270.72791,120.95843 275.24337,118.48092   C 279.79879,115.96345 284.79377,114.7247 290.22831,114.7247   C 296.42208,114.7247 301.61686,116.32309 305.85261,119.47992   C 310.04839,122.59679 312.96546,127.03233 314.64377,132.74658   L 306.61184,134.6247   C 305.17329,130.14919 303.09538,126.87249 300.33815,124.79458   C 297.62088,122.75662 294.18433,121.71767 290.06847,121.71767   C 285.31325,121.71767 281.35722,122.8765 278.16044,125.15422   C 274.96365,127.43193 272.7259,130.46887 271.44718,134.30502   C 270.16847,138.14116 269.48915,142.09719 269.48915,146.17309   C 269.48915,151.44779 270.28835,156.00321 271.80682,159.95923   C 273.3253,163.8753 275.72289,166.79237 278.95963,168.71044   C 282.19638,170.66847 285.67289,171.62751 289.42911,171.62751   C 294.02449,171.62751 297.9006,170.30883 301.05743,167.67148   C 304.25421,165.03413 306.41204,161.11807 307.53092,155.92329   z "
     style="fill:#000000;fill-rule:evenodd;fill-opacity:1;stroke:none;" />
  <path
     id="path11"
     d="  M 162.71646,212.58634   C 162.71646,219.49939 157.16205,225.05381 150.24899,225.05381   C 143.3759,225.05381 137.78152,219.49939 137.78152,212.58634   C 137.78152,205.71325 143.3759,200.11887 150.24899,200.11887   C 157.16205,200.11887 162.71646,205.71325 162.71646,212.58634  "
     style="fill:none;stroke:#000000;stroke-width:9.5903616px;stroke-linecap:butt;stroke-linejoin:miter;stroke-miterlimit:10;stroke-dasharray:none;stroke-opacity:1;" />
  <path
     id="path13"
     d="  M 197.24176,212.58634   C 197.24176,219.49939 191.68735,225.05381 184.77429,225.05381   C 177.9012,225.05381 172.30682,219.49939 172.30682,212.58634   C 172.30682,205.71325 177.9012,200.11887 184.77429,200.11887   C 191.68735,200.11887 197.24176,205.71325 197.24176,212.58634  "
     style="fill:none;stroke:#000000;stroke-width:9.5903616px;stroke-linecap:butt;stroke-linejoin:miter;stroke-miterlimit:10;stroke-dasharray:none;stroke-opacity:1;" />
  <path
     id="path15"
     d="  M 316.16224,212.58634   C 316.16224,219.49939 310.60783,225.05381 303.69477,225.05381   C 296.82168,225.05381 291.22731,219.49939 291.22731,212.58634   C 291.22731,205.71325 296.82168,200.11887 303.69477,200.11887   C 310.60783,200.11887 316.16224,205.71325 316.16224,212.58634  "
     style="fill:none;stroke:#000000;stroke-width:9.5903616px;stroke-linecap:butt;stroke-linejoin:miter;stroke-miterlimit:10;stroke-dasharray:none;stroke-opacity:1;" />
  <path
     id="path17"
     d="  M 281.63694,212.58634   C 281.63694,219.49939 276.08253,225.05381 269.16947,225.05381   C 262.29638,225.05381 256.702,219.49939 256.702,212.58634   C 256.702,205.71325 262.29638,200.11887 269.16947,200.11887   C 276.08253,200.11887 281.63694,205.71325 281.63694,212.58634  "
     style="fill:none;stroke:#000000;stroke-width:9.5903616px;stroke-linecap:butt;stroke-linejoin:miter;stroke-miterlimit:10;stroke-dasharray:none;stroke-opacity:1;" />
  <path
     id="path19"
     d="  M 132.98634,196.28273   L 320.95743,196.28273  "
     style="fill:none;stroke:#000000;stroke-width:9.5903616px;stroke-linecap:butt;stroke-linejoin:miter;stroke-miterlimit:10;stroke-dasharray:none;stroke-opacity:1;" />
</svg>
