<?xml version="1.0" encoding="UTF-8" standalone="no"?>
<svg
   xmlns:dc="http://purl.org/dc/elements/1.1/"
   xmlns:cc="http://creativecommons.org/ns#"
   xmlns:rdf="http://www.w3.org/1999/02/22-rdf-syntax-ns#"
   xmlns:svg="http://www.w3.org/2000/svg"
   xmlns="http://www.w3.org/2000/svg"
   id="svg31"
   height="89.669998mm"
   width="120.11mm"
   version="1.0">
  <metadata
     id="metadata35">
    <rdf:RDF>
      <cc:Work
         rdf:about="">
        <dc:format>image/svg+xml</dc:format>
        <dc:type
           rdf:resource="http://purl.org/dc/dcmitype/StillImage" />
      </cc:Work>
    </rdf:RDF>
  </metadata>
  <defs
     id="defs3">
    <pattern
       y="0"
       x="0"
       height="6"
       width="6"
       patternUnits="userSpaceOnUse"
       id="EMFhbasepattern" />
  </defs>
  <path
     id="path5"
     d="  M 54.345381,54.345381   L 54.345381,284.51405   L 399.59839,284.51405   L 399.59839,54.345381   L 54.345381,54.345381   z "
     style="fill:#80e0ff;fill-rule:evenodd;fill-opacity:1;stroke:none;" />
  <path
     id="path7"
     d="  M 54.345381,54.345381   L 399.59839,54.345381   L 399.59839,284.51405   L 54.345381,284.51405   z "
     style="fill:none;stroke:#000000;stroke-width:9.5903616px;stroke-linecap:butt;stroke-linejoin:miter;stroke-miterlimit:10;stroke-dasharray:none;stroke-opacity:1;" />
  <path
     id="path9"
     d="  M 296.02249,198.2008   C 296.02249,236.36245 265.13353,267.2514 226.97188,267.2514   C 188.8502,267.2514 157.92128,236.36245 157.92128,198.2008   C 157.92128,160.07911 188.8502,129.1502 226.97188,129.1502   C 265.13353,129.1502 296.02249,160.07911 296.02249,198.2008  "
     style="fill:none;stroke:#000000;stroke-width:8.6313248px;stroke-linecap:butt;stroke-linejoin:miter;stroke-miterlimit:10;stroke-dasharray:none;stroke-opacity:1;" />
  <path
     id="path11"
     d="  M 171.74739,160.23895   L 282.23634,236.20261  "
     style="fill:none;stroke:#000000;stroke-width:8.6313248px;stroke-linecap:butt;stroke-linejoin:miter;stroke-miterlimit:10;stroke-dasharray:none;stroke-opacity:1;" />
  <path
     id="path13"
     d="  M 171.74739,236.20261   L 282.23634,160.23895  "
     style="fill:none;stroke:#000000;stroke-width:8.6313248px;stroke-linecap:butt;stroke-linejoin:miter;stroke-miterlimit:10;stroke-dasharray:none;stroke-opacity:1;" />
  <path
     id="path15"
     d="  M 226.97188,129.1502   L 226.97188,267.2514  "
     style="fill:none;stroke:#000000;stroke-width:8.6313248px;stroke-linecap:butt;stroke-linejoin:miter;stroke-miterlimit:10;stroke-dasharray:none;stroke-opacity:1;" />
  <path
     id="path17"
     d="  M 175.58353,113.3261   C 175.58353,118.16124 171.10803,122.07731 165.59357,122.07731   C 160.11907,122.07731 155.64357,118.16124 155.64357,113.3261   C 155.64357,108.53092 160.11907,104.61486 165.59357,104.61486   C 171.10803,104.61486 175.58353,108.53092 175.58353,113.3261  "
     style="fill:none;stroke:#000000;stroke-width:7.6722889px;stroke-linecap:butt;stroke-linejoin:miter;stroke-miterlimit:10;stroke-dasharray:none;stroke-opacity:1;" />
  <path
     id="path19"
     d="  M 203.19578,113.3261   C 203.19578,118.16124 198.76024,122.07731 193.24578,122.07731   C 187.73132,122.07731 183.25582,118.16124 183.25582,113.3261   C 183.25582,108.53092 187.73132,104.61486 193.24578,104.61486   C 198.76024,104.61486 203.19578,108.53092 203.19578,113.3261  "
     style="fill:none;stroke:#000000;stroke-width:7.6722889px;stroke-linecap:butt;stroke-linejoin:miter;stroke-miterlimit:10;stroke-dasharray:none;stroke-opacity:1;" />
  <path
     id="path21"
     d="  M 298.34016,113.3261   C 298.34016,118.16124 293.86465,122.07731 288.3502,122.07731   C 282.8757,122.07731 278.4002,118.16124 278.4002,113.3261   C 278.4002,108.53092 282.8757,104.61486 288.3502,104.61486   C 293.86465,104.61486 298.34016,108.53092 298.34016,113.3261  "
     style="fill:none;stroke:#000000;stroke-width:7.6722889px;stroke-linecap:butt;stroke-linejoin:miter;stroke-miterlimit:10;stroke-dasharray:none;stroke-opacity:1;" />
  <path
     id="path23"
     d="  M 270.72791,113.3261   C 270.72791,118.16124 266.25241,122.07731 260.73795,122.07731   C 255.22349,122.07731 250.78795,118.16124 250.78795,113.3261   C 250.78795,108.53092 255.22349,104.61486 260.73795,104.61486   C 266.25241,104.61486 270.72791,108.53092 270.72791,113.3261  "
     style="fill:none;stroke:#000000;stroke-width:7.6722889px;stroke-linecap:butt;stroke-linejoin:miter;stroke-miterlimit:10;stroke-dasharray:none;stroke-opacity:1;" />
  <path
     id="path25"
     d="  M 151.80743,101.93755   L 302.1763,101.93755  "
     style="fill:none;stroke:#000000;stroke-width:7.6722889px;stroke-linecap:butt;stroke-linejoin:miter;stroke-miterlimit:10;stroke-dasharray:none;stroke-opacity:1;" />
  <path
     id="path27"
     d="  M 54.345381,54.345381   L 54.345381,54.345381   L 102.29719,169.42972   L 54.345381,284.51405  "
     style="fill:none;stroke:#000000;stroke-width:9.5903616px;stroke-linecap:butt;stroke-linejoin:miter;stroke-miterlimit:10;stroke-dasharray:none;stroke-opacity:1;" />
  <path
     id="path29"
     d="  M 399.59839,54.345381   L 399.59839,54.345381   L 351.64658,169.42972   L 399.59839,284.51405  "
     style="fill:none;stroke:#000000;stroke-width:9.5903616px;stroke-linecap:butt;stroke-linejoin:miter;stroke-miterlimit:10;stroke-dasharray:none;stroke-opacity:1;" />
</svg>
