<?xml version="1.0" encoding="UTF-8" standalone="no"?>
<svg
   xmlns:dc="http://purl.org/dc/elements/1.1/"
   xmlns:cc="http://creativecommons.org/ns#"
   xmlns:rdf="http://www.w3.org/1999/02/22-rdf-syntax-ns#"
   xmlns:svg="http://www.w3.org/2000/svg"
   xmlns="http://www.w3.org/2000/svg"
   id="svg13"
   height="78.330002mm"
   width="54.150002mm"
   version="1.0">
  <metadata
     id="metadata17">
    <rdf:RDF>
      <cc:Work
         rdf:about="">
        <dc:format>image/svg+xml</dc:format>
        <dc:type
           rdf:resource="http://purl.org/dc/dcmitype/StillImage" />
      </cc:Work>
    </rdf:RDF>
  </metadata>
  <defs
     id="defs3">
    <pattern
       y="0"
       x="0"
       height="6"
       width="6"
       patternUnits="userSpaceOnUse"
       id="EMFhbasepattern" />
  </defs>
  <path
     id="path5"
     d="  M 54.345381,97.821685   L 54.345381,97.821685   L 150.24899,97.821685   L 102.29719,241.6771   z "
     style="fill:none;stroke:#008000;stroke-width:9.5903616px;stroke-linecap:butt;stroke-linejoin:miter;stroke-miterlimit:10;stroke-dasharray:none;stroke-opacity:1;" />
  <path
     id="path7"
     d="  M 63.935742,126.59277   L 140.65863,126.59277  "
     style="fill:none;stroke:#008000;stroke-width:9.5903616px;stroke-linecap:butt;stroke-linejoin:miter;stroke-miterlimit:10;stroke-dasharray:none;stroke-opacity:1;" />
  <path
     id="path9"
     d="  M 135.86345,43.156626   C 135.86345,61.697991 120.83855,76.72289 102.29719,76.72289   C 83.795782,76.72289 68.730923,61.697991 68.730923,43.156626   C 68.730923,24.655221 83.795782,9.5903613 102.29719,9.5903613   C 120.83855,9.5903613 135.86345,24.655221 135.86345,43.156626   z "
     style="fill:#008000;fill-rule:evenodd;fill-opacity:1;stroke:none;" />
  <path
     id="path11"
     d="  M 135.86345,43.156626   C 135.86345,61.697991 120.83855,76.72289 102.29719,76.72289   C 83.795782,76.72289 68.730923,61.697991 68.730923,43.156626   C 68.730923,24.655221 83.795782,9.5903613 102.29719,9.5903613   C 120.83855,9.5903613 135.86345,24.655221 135.86345,43.156626  "
     style="fill:none;stroke:#008000;stroke-width:0.67931724px;stroke-linecap:butt;stroke-linejoin:miter;stroke-miterlimit:10;stroke-dasharray:none;stroke-opacity:1;" />
</svg>
