<?xml version="1.0" encoding="UTF-8" standalone="no"?>
<svg
   xmlns:dc="http://purl.org/dc/elements/1.1/"
   xmlns:cc="http://creativecommons.org/ns#"
   xmlns:rdf="http://www.w3.org/1999/02/22-rdf-syntax-ns#"
   xmlns:svg="http://www.w3.org/2000/svg"
   xmlns="http://www.w3.org/2000/svg"
   id="svg13"
   height="31.469999mm"
   width="74.449997mm"
   version="1.0">
  <metadata
     id="metadata17">
    <rdf:RDF>
      <cc:Work
         rdf:about="">
        <dc:format>image/svg+xml</dc:format>
        <dc:type
           rdf:resource="http://purl.org/dc/dcmitype/StillImage" />
      </cc:Work>
    </rdf:RDF>
  </metadata>
  <defs
     id="defs3">
    <pattern
       y="0"
       x="0"
       height="6"
       width="6"
       patternUnits="userSpaceOnUse"
       id="EMFhbasepattern" />
  </defs>
  <path
     id="path5"
     d="  M 107.09237,59.46024   C 107.09237,85.953613 85.633935,107.41205 59.140561,107.41205   C 32.687148,107.41205 11.188755,85.953613 11.188755,59.46024   C 11.188755,33.006827 32.687148,11.508434 59.140561,11.508434   C 85.633935,11.508434 107.09237,33.006827 107.09237,59.46024   z "
     style="fill:#008000;fill-rule:evenodd;fill-opacity:1;stroke:none;" />
  <path
     id="path7"
     d="  M 107.09237,59.46024   C 107.09237,85.953613 85.633935,107.41205 59.140561,107.41205   C 32.687148,107.41205 11.188755,85.953613 11.188755,59.46024   C 11.188755,33.006827 32.687148,11.508434 59.140561,11.508434   C 85.633935,11.508434 107.09237,33.006827 107.09237,59.46024  "
     style="fill:none;stroke:#008000;stroke-width:0.95903611px;stroke-linecap:butt;stroke-linejoin:miter;stroke-miterlimit:10;stroke-dasharray:none;stroke-opacity:1;" />
  <path
     id="path9"
     d="  M 270.12851,59.46024   C 270.12851,85.953613 248.67008,107.41205 222.1767,107.41205   C 195.72329,107.41205 174.2249,85.953613 174.2249,59.46024   C 174.2249,33.006827 195.72329,11.508434 222.1767,11.508434   C 248.67008,11.508434 270.12851,33.006827 270.12851,59.46024   z "
     style="fill:#008000;fill-rule:evenodd;fill-opacity:1;stroke:none;" />
  <path
     id="path11"
     d="  M 270.12851,59.46024   C 270.12851,85.953613 248.67008,107.41205 222.1767,107.41205   C 195.72329,107.41205 174.2249,85.953613 174.2249,59.46024   C 174.2249,33.006827 195.72329,11.508434 222.1767,11.508434   C 248.67008,11.508434 270.12851,33.006827 270.12851,59.46024  "
     style="fill:none;stroke:#008000;stroke-width:0.95903611px;stroke-linecap:butt;stroke-linejoin:miter;stroke-miterlimit:10;stroke-dasharray:none;stroke-opacity:1;" />
</svg>
