<?xml version="1.0" encoding="UTF-8" standalone="no"?>
<svg
   xmlns:dc="http://purl.org/dc/elements/1.1/"
   xmlns:cc="http://creativecommons.org/ns#"
   xmlns:rdf="http://www.w3.org/1999/02/22-rdf-syntax-ns#"
   xmlns:svg="http://www.w3.org/2000/svg"
   xmlns="http://www.w3.org/2000/svg"
   id="svg15"
   height="112.9mm"
   width="112.9mm"
   version="1.0">
  <metadata
     id="metadata19">
    <rdf:RDF>
      <cc:Work
         rdf:about="">
        <dc:format>image/svg+xml</dc:format>
        <dc:type
           rdf:resource="http://purl.org/dc/dcmitype/StillImage" />
      </cc:Work>
    </rdf:RDF>
  </metadata>
  <defs
     id="defs3">
    <pattern
       y="0"
       x="0"
       height="6"
       width="6"
       patternUnits="userSpaceOnUse"
       id="EMFhbasepattern" />
  </defs>
  <path
     id="path5"
     d="  M 1055.3824,1055.5085   L 1203.488,1055.5085   L 1203.488,1246.2484   L 1055.3824,1246.2484   z "
     style="fill:none;stroke:#ff0000;stroke-width:5.3245535px;stroke-linecap:butt;stroke-linejoin:miter;stroke-miterlimit:282;stroke-dasharray:none;stroke-opacity:1;" />
  <path
     id="path7"
     d="  M 1055.3824,1248.4386   L 1129.9639,1348.5855   L 1204.5832,1248.4386  "
     style="fill:none;stroke:#ff0000;stroke-width:5.3245535px;stroke-linecap:butt;stroke-linejoin:miter;stroke-miterlimit:282;stroke-dasharray:none;stroke-opacity:1;" />
  <path
     id="path9"
     d="  M 1070.5253,1119.4787   L 1070.5253,1073.7102   L 1090.8039,1073.7102   C 1094.8823,1073.7102 1097.9788,1074.0878 1100.1313,1074.9186   C 1102.246,1075.7494 1103.9453,1077.1844 1105.1915,1079.2991   C 1106.4754,1081.376 1107.1174,1083.6796 1107.1174,1086.1719   C 1107.1174,1089.4195 1106.06,1092.1762 1103.9453,1094.4042   C 1101.8684,1096.6322 1098.6208,1098.0294 1094.2025,1098.6336   C 1095.8263,1099.4266 1097.0347,1100.1819 1097.8655,1100.9372   C 1099.6404,1102.561 1101.3019,1104.5624 1102.888,1107.017   L 1110.8559,1119.4787   L 1103.2278,1119.4787   L 1097.1858,1109.9247   C 1095.4109,1107.2058 1093.9382,1105.0911 1092.8053,1103.6183   C 1091.6724,1102.1833 1090.6528,1101.1637 1089.7465,1100.5595   C 1088.8402,1099.9931 1087.8961,1099.5777 1086.9521,1099.3511   C 1086.2723,1099.2001 1085.1772,1099.1245 1083.5912,1099.1245   L 1076.5673,1099.1245   L 1076.5673,1119.4787   z  M 1076.5673,1093.8755   L 1089.5955,1093.8755   C 1092.3522,1093.8755 1094.5424,1093.6112 1096.0907,1093.0447   C 1097.6389,1092.4783 1098.8474,1091.5342 1099.6404,1090.2881   C 1100.4712,1089.0419 1100.8488,1087.6447 1100.8488,1086.1719   C 1100.8488,1084.0194 1100.0935,1082.2446 1098.5075,1080.8474   C 1096.9215,1079.4501 1094.4669,1078.7326 1091.0682,1078.7326   L 1076.5673,1078.7326   z "
     style="fill:#ff0000;fill-rule:nonzero;fill-opacity:1;stroke:#ff0000;stroke-width:1.0573581px;stroke-linecap:butt;stroke-linejoin:miter;stroke-miterlimit:282;stroke-dasharray:none;stroke-opacity:1;" />
  <path
     id="path11"
     d="  M 1116.3693,1119.4787   L 1116.3693,1073.7102   L 1122.4491,1073.7102   L 1122.4491,1114.0786   L 1144.9935,1114.0786   L 1144.9935,1119.4787   z "
     style="fill:#ff0000;fill-rule:nonzero;fill-opacity:1;stroke:#ff0000;stroke-width:1.0573581px;stroke-linecap:butt;stroke-linejoin:miter;stroke-miterlimit:282;stroke-dasharray:none;stroke-opacity:1;" />
  <path
     id="path13"
     d="  M 1165.1211,1119.4787   L 1165.1211,1100.0686   L 1147.4858,1073.7102   L 1154.8496,1073.7102   L 1163.8749,1087.4936   C 1165.5364,1090.0615 1167.0847,1092.6671 1168.5197,1095.235   C 1169.9169,1092.8559 1171.5785,1090.137 1173.5044,1087.1537   L 1182.3786,1073.7102   L 1189.4403,1073.7102   L 1171.1631,1100.0686   L 1171.1631,1119.4787   z "
     style="fill:#ff0000;fill-rule:nonzero;fill-opacity:1;stroke:#ff0000;stroke-width:1.0573581px;stroke-linecap:butt;stroke-linejoin:miter;stroke-miterlimit:282;stroke-dasharray:none;stroke-opacity:1;" />
</svg>
