<?xml version="1.0" encoding="UTF-8" standalone="no"?>
<svg
   xmlns:dc="http://purl.org/dc/elements/1.1/"
   xmlns:cc="http://creativecommons.org/ns#"
   xmlns:rdf="http://www.w3.org/1999/02/22-rdf-syntax-ns#"
   xmlns:svg="http://www.w3.org/2000/svg"
   xmlns="http://www.w3.org/2000/svg"
   id="svg19"
   height="95.75mm"
   width="95.75mm"
   version="1.0">
  <metadata
     id="metadata23">
    <rdf:RDF>
      <cc:Work
         rdf:about="">
        <dc:format>image/svg+xml</dc:format>
        <dc:type
           rdf:resource="http://purl.org/dc/dcmitype/StillImage" />
      </cc:Work>
    </rdf:RDF>
  </metadata>
  <defs
     id="defs3">
    <pattern
       y="0"
       x="0"
       height="6"
       width="6"
       patternUnits="userSpaceOnUse"
       id="EMFhbasepattern" />
  </defs>
  <path
     id="path5"
     d="  M 54.345381,54.345381   L 54.345381,307.53092   L 307.53092,307.53092   L 307.53092,54.345381   L 54.345381,54.345381   z "
     style="fill:#aaffaa;fill-rule:evenodd;fill-opacity:1;stroke:none;" />
  <path
     id="path7"
     d="  M 54.345381,54.345381   L 307.53092,54.345381   L 307.53092,307.53092   L 54.345381,307.53092   z "
     style="fill:none;stroke:#000000;stroke-width:9.5903616px;stroke-linecap:butt;stroke-linejoin:miter;stroke-miterlimit:10;stroke-dasharray:none;stroke-opacity:1;" />
  <path
     id="path9"
     d="  M 307.53092,54.345381   L 54.345381,307.53092  "
     style="fill:none;stroke:#000000;stroke-width:9.5903616px;stroke-linecap:butt;stroke-linejoin:miter;stroke-miterlimit:10;stroke-dasharray:none;stroke-opacity:1;" />
  <path
     id="path11"
     d="  M 54.345381,54.345381   L 307.53092,307.53092  "
     style="fill:none;stroke:#000000;stroke-width:9.5903616px;stroke-linecap:butt;stroke-linejoin:miter;stroke-miterlimit:10;stroke-dasharray:none;stroke-opacity:1;" />
  <path
     id="path13"
     d="  M 157.04217,132.50683   L 157.04217,70.728915   L 184.45462,70.728915   C 189.96907,70.728915 194.1249,71.288352 197.00201,72.367268   C 199.87911,73.486144 202.15682,75.444176 203.8751,78.281324   C 205.59337,81.078513 206.43253,84.19538 206.43253,87.591967   C 206.43253,91.947589 205.03393,95.663854 202.19678,98.660842   C 199.35964,101.65783 194.96405,103.5759 189.05,104.3751   C 191.20783,105.41405 192.84618,106.45301 193.96506,107.45201   C 196.36265,109.6498 198.64036,112.40703 200.75823,115.68373   L 211.50743,132.50683   L 201.23775,132.50683   L 193.04598,119.63976   C 190.64839,115.92349 188.69036,113.08634 187.13193,111.12831   C 185.61345,109.17028 184.21486,107.81165 182.9761,107.01245   C 181.77731,106.21325 180.53855,105.65381 179.25984,105.37409   C 178.34076,105.1743 176.82229,105.05442 174.70442,105.05442   L 165.23393,105.05442   L 165.23393,132.50683   z  M 165.23393,97.981525   L 182.81626,97.981525   C 186.53253,97.981525 189.4496,97.621886 191.56747,96.822689   C 193.68534,96.063452 195.28373,94.824697 196.36265,93.106424   C 197.48152,91.428111 198.001,89.589959 198.001,87.591967   C 198.001,84.674898 196.96205,82.237348 194.84417,80.359236   C 192.7263,78.481123 189.36968,77.562047 184.77429,77.562047   L 165.23393,77.562047   z "
     style="fill:#000000;fill-rule:evenodd;fill-opacity:1;stroke:none;" />
  <path
     id="path15"
     d="  M 157.04217,132.50683   L 157.04217,70.728915   L 184.45462,70.728915   C 189.96907,70.728915 194.1249,71.288352 197.00201,72.367268   C 199.87911,73.486144 202.15682,75.444176 203.8751,78.281324   C 205.59337,81.078513 206.43253,84.19538 206.43253,87.591967   C 206.43253,91.947589 205.03393,95.663854 202.19678,98.660842   C 199.35964,101.65783 194.96405,103.5759 189.05,104.3751   C 191.20783,105.41405 192.84618,106.45301 193.96506,107.45201   C 196.36265,109.6498 198.64036,112.40703 200.75823,115.68373   L 211.50743,132.50683   L 201.23775,132.50683   L 193.04598,119.63976   C 190.64839,115.92349 188.69036,113.08634 187.13193,111.12831   C 185.61345,109.17028 184.21486,107.81165 182.9761,107.01245   C 181.77731,106.21325 180.53855,105.65381 179.25984,105.37409   C 178.34076,105.1743 176.82229,105.05442 174.70442,105.05442   L 165.23393,105.05442   L 165.23393,132.50683   z  M 165.23393,97.981525   L 182.81626,97.981525   C 186.53253,97.981525 189.4496,97.621886 191.56747,96.822689   C 193.68534,96.063452 195.28373,94.824697 196.36265,93.106424   C 197.48152,91.428111 198.001,89.589959 198.001,87.591967   C 198.001,84.674898 196.96205,82.237348 194.84417,80.359236   C 192.7263,78.481123 189.36968,77.562047 184.77429,77.562047   L 165.23393,77.562047   z "
     style="fill:none;stroke:#000000;stroke-width:0.95903611px;stroke-linecap:butt;stroke-linejoin:miter;stroke-miterlimit:10;stroke-dasharray:none;stroke-opacity:1;" />
  <path
     id="path17"
     d="  M 119.55984,273.00562   C 119.55984,242.31646 180.93815,242.31646 180.93815,273.00562   C 180.93815,242.31646 242.31646,242.31646 242.31646,273.00562  "
     style="fill:none;stroke:#000000;stroke-width:7.6722889px;stroke-linecap:butt;stroke-linejoin:miter;stroke-miterlimit:10;stroke-dasharray:none;stroke-opacity:1;" />
</svg>
