<?xml version="1.0" encoding="UTF-8" standalone="no"?>
<svg
   xmlns:dc="http://purl.org/dc/elements/1.1/"
   xmlns:cc="http://creativecommons.org/ns#"
   xmlns:rdf="http://www.w3.org/1999/02/22-rdf-syntax-ns#"
   xmlns:svg="http://www.w3.org/2000/svg"
   xmlns="http://www.w3.org/2000/svg"
   id="svg19"
   height="89.669998mm"
   width="120.11mm"
   version="1.0">
  <metadata
     id="metadata23">
    <rdf:RDF>
      <cc:Work
         rdf:about="">
        <dc:format>image/svg+xml</dc:format>
        <dc:type
           rdf:resource="http://purl.org/dc/dcmitype/StillImage" />
      </cc:Work>
    </rdf:RDF>
  </metadata>
  <defs
     id="defs3">
    <pattern
       y="0"
       x="0"
       height="6"
       width="6"
       patternUnits="userSpaceOnUse"
       id="EMFhbasepattern" />
  </defs>
  <path
     id="path5"
     d="  M 54.345381,54.345381   L 54.345381,284.51405   L 399.59839,284.51405   L 399.59839,54.345381   L 54.345381,54.345381   z "
     style="fill:#80e0ff;fill-rule:evenodd;fill-opacity:1;stroke:none;" />
  <path
     id="path7"
     d="  M 54.345381,54.345381   L 399.59839,54.345381   L 399.59839,284.51405   L 54.345381,284.51405   z "
     style="fill:none;stroke:#000000;stroke-width:9.5903616px;stroke-linecap:butt;stroke-linejoin:miter;stroke-miterlimit:10;stroke-dasharray:none;stroke-opacity:1;" />
  <path
     id="path9"
     d="  M 399.59839,54.345381   L 54.345381,284.51405  "
     style="fill:none;stroke:#000000;stroke-width:9.5903616px;stroke-linecap:butt;stroke-linejoin:miter;stroke-miterlimit:10;stroke-dasharray:none;stroke-opacity:1;" />
  <path
     id="path11"
     d="  M 54.345381,54.345381   L 399.59839,284.51405  "
     style="fill:none;stroke:#000000;stroke-width:9.5903616px;stroke-linecap:butt;stroke-linejoin:miter;stroke-miterlimit:10;stroke-dasharray:none;stroke-opacity:1;" />
  <path
     id="path13"
     d="  M 203.0759,120.99839   L 203.0759,59.220481   L 230.48835,59.220481   C 236.00281,59.220481 240.15863,59.779919 243.03574,60.858834   C 245.91285,61.97771 248.19056,63.935742 249.90883,66.772891   C 251.6271,69.570079 252.46626,72.686947 252.46626,76.083533   C 252.46626,80.439155 251.06767,84.15542 248.23052,87.152408   C 245.39337,90.149396 240.99779,92.067469 235.08373,92.866665   C 237.24156,93.905621 238.87992,94.944577 239.99879,95.943573   C 242.39638,98.141364 244.67409,100.89859 246.79196,104.1753   L 257.54116,120.99839   L 247.27148,120.99839   L 239.07972,108.13132   C 236.68213,104.41506 234.72409,101.57791 233.16566,99.619878   C 231.64719,97.661846 230.24859,96.303211 229.00984,95.504015   C 227.81104,94.704818 226.57229,94.14538 225.29357,93.865661   C 224.37449,93.665862 222.85602,93.545983 220.73815,93.545983   L 211.26767,93.545983   L 211.26767,120.99839   z  M 211.26767,86.473091   L 228.85,86.473091   C 232.56626,86.473091 235.48333,86.113453 237.6012,85.314256   C 239.71907,84.555019 241.31747,83.316264 242.39638,81.597991   C 243.51526,79.919678 244.03474,78.081525 244.03474,76.083533   C 244.03474,73.166465 242.99578,70.728915 240.87791,68.850802   C 238.76004,66.97269 235.40341,66.053614 230.80803,66.053614   L 211.26767,66.053614   z "
     style="fill:#000000;fill-rule:evenodd;fill-opacity:1;stroke:none;" />
  <path
     id="path15"
     d="  M 203.0759,120.99839   L 203.0759,59.220481   L 230.48835,59.220481   C 236.00281,59.220481 240.15863,59.779919 243.03574,60.858834   C 245.91285,61.97771 248.19056,63.935742 249.90883,66.772891   C 251.6271,69.570079 252.46626,72.686947 252.46626,76.083533   C 252.46626,80.439155 251.06767,84.15542 248.23052,87.152408   C 245.39337,90.149396 240.99779,92.067469 235.08373,92.866665   C 237.24156,93.905621 238.87992,94.944577 239.99879,95.943573   C 242.39638,98.141364 244.67409,100.89859 246.79196,104.1753   L 257.54116,120.99839   L 247.27148,120.99839   L 239.07972,108.13132   C 236.68213,104.41506 234.72409,101.57791 233.16566,99.619878   C 231.64719,97.661846 230.24859,96.303211 229.00984,95.504015   C 227.81104,94.704818 226.57229,94.14538 225.29357,93.865661   C 224.37449,93.665862 222.85602,93.545983 220.73815,93.545983   L 211.26767,93.545983   L 211.26767,120.99839   z  M 211.26767,86.473091   L 228.85,86.473091   C 232.56626,86.473091 235.48333,86.113453 237.6012,85.314256   C 239.71907,84.555019 241.31747,83.316264 242.39638,81.597991   C 243.51526,79.919678 244.03474,78.081525 244.03474,76.083533   C 244.03474,73.166465 242.99578,70.728915 240.87791,68.850802   C 238.76004,66.97269 235.40341,66.053614 230.80803,66.053614   L 211.26767,66.053614   z "
     style="fill:none;stroke:#000000;stroke-width:0.95903611px;stroke-linecap:butt;stroke-linejoin:miter;stroke-miterlimit:10;stroke-dasharray:none;stroke-opacity:1;" />
  <path
     id="path17"
     d="  M 165.59357,261.49718   C 165.59357,230.80803 226.97188,230.80803 226.97188,261.49718   C 226.97188,230.80803 288.3502,230.80803 288.3502,261.49718  "
     style="fill:none;stroke:#000000;stroke-width:7.6722889px;stroke-linecap:butt;stroke-linejoin:miter;stroke-miterlimit:10;stroke-dasharray:none;stroke-opacity:1;" />
</svg>
