<?xml version="1.0" encoding="UTF-8" standalone="no"?>
<svg
   xmlns:dc="http://purl.org/dc/elements/1.1/"
   xmlns:cc="http://creativecommons.org/ns#"
   xmlns:rdf="http://www.w3.org/1999/02/22-rdf-syntax-ns#"
   xmlns:svg="http://www.w3.org/2000/svg"
   xmlns="http://www.w3.org/2000/svg"
   id="svg9"
   height="112.9mm"
   width="112.9mm"
   version="1.0">
  <metadata
     id="metadata13">
    <rdf:RDF>
      <cc:Work
         rdf:about="">
        <dc:format>image/svg+xml</dc:format>
        <dc:type
           rdf:resource="http://purl.org/dc/dcmitype/StillImage" />
      </cc:Work>
    </rdf:RDF>
  </metadata>
  <defs
     id="defs3">
    <pattern
       y="0"
       x="0"
       height="6"
       width="6"
       patternUnits="userSpaceOnUse"
       id="EMFhbasepattern" />
  </defs>
  <path
     id="path5"
     d="  M 573.63894,493.41018   C 573.63894,519.76861 564.72693,541.93537 546.82736,559.87269   C 528.9278,577.77225 506.83657,586.72203 480.5159,586.72203   C 454.49734,586.72203 432.44387,577.69673 414.43102,559.64611   C 396.41817,541.5955 387.39286,519.50427 387.39286,493.41018   C 387.39286,467.05175 396.34265,444.80947 414.24221,426.75886   C 432.10401,408.70824 454.233,399.68294 480.5159,399.68294   C 506.57223,399.68294 528.6257,408.78377 546.63855,426.98543   C 564.6514,445.14934 573.63894,467.27833 573.63894,493.41018   z  M 566.46401,493.41018   C 566.46401,469.05318 558.19396,448.54799 541.72939,431.8946   C 525.22705,415.20344 504.83514,406.89563 480.5159,406.89563   C 456.23443,406.89563 435.84252,415.20344 419.34018,431.8946   C 402.87561,448.54799 394.60556,469.05318 394.60556,493.41018   C 394.60556,517.50284 402.91337,537.89475 419.529,554.54814   C 436.18239,571.20153 456.49877,579.5471 480.5159,579.5471   C 504.5708,579.5471 524.88718,571.20153 541.50281,554.54814   C 558.11844,537.89475 566.46401,517.50284 566.46401,493.41018   z  M 501.70083,224.65241   L 501.70083,338.28064   L 476.02213,306.06898   L 476.43752,399.30531   L 484.14113,399.68294   L 484.14113,329.82178   L 510.15969,359.39004   L 510.15969,224.65241   z "
     style="fill:#ffff00;fill-rule:nonzero;fill-opacity:1;stroke:none;" />
  <path
     id="path7"
     d="  M 449.92804,533.70308   L 449.92804,449.79416   L 487.12439,449.79416   C 494.60143,449.79416 500.30361,450.54941 504.19317,452.05993   C 508.08274,453.57044 511.17929,456.21383 513.52058,460.02787   C 515.82411,463.84192 516.99476,468.07135 516.99476,472.67841   C 516.99476,478.64493 515.06886,483.66738 511.21705,487.74576   C 507.36525,491.82414 501.39873,494.42978 493.35525,495.5249   C 496.30075,496.95988 498.52876,498.31934 500.03927,499.71657   C 503.28687,502.69983 506.38342,506.40058 509.29115,510.85659   L 523.86759,533.70308   L 509.89535,533.70308   L 498.79309,516.25667   C 495.54549,511.19645 492.86434,507.34465 490.78738,504.70125   C 488.67267,502.0201 486.82229,500.13196 485.16073,499.0746   C 483.49916,498.01724 481.79984,497.26199 480.06275,496.84659   C 478.81658,496.58226 476.77739,496.4312 473.90742,496.4312   L 461.0303,496.4312   L 461.0303,533.70308   z  M 461.0303,486.83946   L 484.89639,486.83946   C 489.9566,486.83946 493.92169,486.31078 496.79167,485.25342   C 499.66164,484.19606 501.81412,482.5345 503.32463,480.23097   C 504.79738,477.92744 505.55263,475.39733 505.55263,472.67841   C 505.55263,468.71332 504.11765,465.46572 501.24768,462.89785   C 498.33994,460.32998 493.80841,459.0838 487.57755,459.0838   L 461.0303,459.0838   z "
     style="fill:#ffff00;fill-rule:nonzero;fill-opacity:1;stroke:#ffff00;stroke-width:1.0573581px;stroke-linecap:butt;stroke-linejoin:miter;stroke-miterlimit:282;stroke-dasharray:none;stroke-opacity:1;" />
</svg>
