<?xml version="1.0" encoding="UTF-8" standalone="no"?>
<svg
   xmlns:dc="http://purl.org/dc/elements/1.1/"
   xmlns:cc="http://creativecommons.org/ns#"
   xmlns:rdf="http://www.w3.org/1999/02/22-rdf-syntax-ns#"
   xmlns:svg="http://www.w3.org/2000/svg"
   xmlns="http://www.w3.org/2000/svg"
   id="svg9"
   height="112.9mm"
   width="112.9mm"
   version="1.0">
  <metadata
     id="metadata13">
    <rdf:RDF>
      <cc:Work
         rdf:about="">
        <dc:format>image/svg+xml</dc:format>
        <dc:type
           rdf:resource="http://purl.org/dc/dcmitype/StillImage" />
      </cc:Work>
    </rdf:RDF>
  </metadata>
  <defs
     id="defs3">
    <pattern
       y="0"
       x="0"
       height="6"
       width="6"
       patternUnits="userSpaceOnUse"
       id="EMFhbasepattern" />
  </defs>
  <path
     id="path5"
     d="  M 331.54581,268.86233   C 331.54581,295.22953 322.63083,317.40367 304.72531,335.34696   C 286.81979,353.25248 264.72121,362.20524 238.39178,362.20524   C 212.36456,362.20524 190.30375,353.17693 172.28491,335.12031   C 154.26606,317.06369 145.23775,294.9651 145.23775,268.86233   C 145.23775,242.49513 154.19051,220.24545 172.09603,202.18882   C 189.96377,184.1322 212.10013,175.10389 238.39178,175.10389   C 264.45678,175.10389 286.51759,184.20775 304.53643,202.41548   C 322.55528,220.58542 331.54581,242.72178 331.54581,268.86233   z  M 324.3685,268.86233   C 324.3685,244.49723 316.09569,223.98521 299.62564,207.32627   C 283.11781,190.62956 262.71911,182.31899 238.39178,182.31899   C 214.10223,182.31899 193.70353,190.62956 177.1957,207.32627   C 160.72565,223.98521 152.45284,244.49723 152.45284,268.86233   C 152.45284,292.96301 160.76342,313.3617 177.38458,330.02063   C 194.04351,346.67957 214.36666,355.02792 238.39178,355.02792   C 262.45469,355.02792 282.77783,346.67957 299.39899,330.02063   C 316.02014,313.3617 324.3685,292.96301 324.3685,268.86233   z  M 259.58376,0.015110143   L 259.58376,113.68116   L 233.89652,81.458781   L 234.31204,174.72614   L 242.01822,175.10389   L 242.01822,105.21948   L 268.04544,134.79759   L 268.04544,0.015110143   L 259.58376,0.015110143   z "
     style="fill:#000000;fill-rule:nonzero;fill-opacity:1;stroke:none;" />
  <path
     id="path7"
     d="  M 207.79374,309.16864   L 207.79374,225.23179   L 245.00247,225.23179   C 252.48199,225.23179 258.18607,225.9873 262.07693,227.49831   C 265.96779,229.00933 269.06537,231.6536 271.40745,235.46891   C 273.71174,239.28423 274.88278,243.51507 274.88278,248.12366   C 274.88278,254.09217 272.95624,259.11629 269.10315,263.19603   C 265.25006,267.27577 259.28156,269.88227 251.2354,270.97775   C 254.18188,272.41321 256.41063,273.77313 257.92164,275.17082   C 261.17032,278.15507 264.2679,281.85705 267.17661,286.31455   L 281.75789,309.16864   L 267.78101,309.16864   L 256.67506,291.71642   C 253.42638,286.65452 250.74432,282.80144 248.66668,280.15716   C 246.55126,277.47511 244.70027,275.58634 243.03815,274.52863   C 241.37604,273.47092 239.67614,272.71542 237.93848,272.29989   C 236.69189,272.03546 234.65202,271.88436 231.7811,271.88436   L 218.8997,271.88436   L 218.8997,309.16864   L 207.79374,309.16864   z  M 218.8997,262.28942   L 242.77372,262.28942   C 247.83562,262.28942 251.80203,261.76056 254.67296,260.70285   C 257.54389,259.64514 259.69708,257.98303 261.2081,255.67873   C 262.68134,253.37443 263.43684,250.84349 263.43684,248.12366   C 263.43684,244.15725 262.00138,240.90857 259.13045,238.33984   C 256.22175,235.77112 251.68871,234.52453 245.45577,234.52453   L 218.8997,234.52453   L 218.8997,262.28942   z "
     style="fill:#000000;fill-rule:nonzero;fill-opacity:1;stroke:#000000;stroke-width:1.0577101px;stroke-linecap:butt;stroke-linejoin:miter;stroke-miterlimit:112;stroke-dasharray:none;stroke-opacity:1;" />
</svg>
