<?xml version="1.0" encoding="UTF-8" standalone="no"?>
<svg
   xmlns:dc="http://purl.org/dc/elements/1.1/"
   xmlns:cc="http://creativecommons.org/ns#"
   xmlns:rdf="http://www.w3.org/1999/02/22-rdf-syntax-ns#"
   xmlns:svg="http://www.w3.org/2000/svg"
   xmlns="http://www.w3.org/2000/svg"
   id="svg17"
   height="95.75mm"
   width="95.75mm"
   version="1.0">
  <metadata
     id="metadata21">
    <rdf:RDF>
      <cc:Work
         rdf:about="">
        <dc:format>image/svg+xml</dc:format>
        <dc:type
           rdf:resource="http://purl.org/dc/dcmitype/StillImage" />
      </cc:Work>
    </rdf:RDF>
  </metadata>
  <defs
     id="defs3">
    <pattern
       y="0"
       x="0"
       height="6"
       width="6"
       patternUnits="userSpaceOnUse"
       id="EMFhbasepattern" />
  </defs>
  <path
     id="path5"
     d="  M 54.345381,54.345381   L 54.345381,307.53092   L 307.53092,307.53092   L 307.53092,54.345381   L 54.345381,54.345381   z "
     style="fill:#aaffaa;fill-rule:evenodd;fill-opacity:1;stroke:none;" />
  <path
     id="path7"
     d="  M 54.345381,54.345381   L 307.53092,54.345381   L 307.53092,307.53092   L 54.345381,307.53092   z "
     style="fill:none;stroke:#000000;stroke-width:9.5903616px;stroke-linecap:butt;stroke-linejoin:miter;stroke-miterlimit:10;stroke-dasharray:none;stroke-opacity:1;" />
  <path
     id="path9"
     d="  M 200.11887,161.75743   C 200.11887,172.38674 191.56747,180.93815 180.93815,180.93815   C 170.34879,180.93815 161.75743,172.38674 161.75743,161.75743   C 161.75743,151.16807 170.34879,142.5767 180.93815,142.5767   C 191.56747,142.5767 200.11887,151.16807 200.11887,161.75743  "
     style="fill:none;stroke:#000000;stroke-width:9.5903616px;stroke-linecap:butt;stroke-linejoin:miter;stroke-miterlimit:10;stroke-dasharray:none;stroke-opacity:1;" />
  <path
     id="path11"
     d="  M 180.93815,180.93815   L 180.93815,286.43212  "
     style="fill:none;stroke:#000000;stroke-width:9.5903616px;stroke-linecap:butt;stroke-linejoin:miter;stroke-miterlimit:10;stroke-dasharray:none;stroke-opacity:1;" />
  <path
     id="path13"
     d="  M 152.16707,209.70923   L 209.70923,209.70923  "
     style="fill:none;stroke:#000000;stroke-width:9.5903616px;stroke-linecap:butt;stroke-linejoin:miter;stroke-miterlimit:10;stroke-dasharray:none;stroke-opacity:1;" />
  <path
     id="path15"
     d="  M 150.56867,123.19618   L 150.56867,85.474095   L 167.31184,85.474095   C 170.66847,85.474095 173.2259,85.793774 174.98413,86.473091   C 176.74237,87.152408 178.14096,88.351204 179.17992,90.069477   C 180.25883,91.78775 180.77831,93.665862 180.77831,95.743774   C 180.77831,98.421083 179.89919,100.69879 178.18092,102.53695   C 176.42269,104.3751 173.74538,105.53393 170.10903,106.05341   C 171.46767,106.65281 172.46666,107.29217 173.14598,107.93152   C 174.58454,109.2502 175.98313,110.92851 177.3018,112.9265   L 183.85522,123.19618   L 177.58152,123.19618   L 172.58654,115.36405   C 171.10803,113.08634 169.90923,111.36807 168.9502,110.16928   C 168.03112,108.97048 167.19197,108.13132 166.43273,107.65181   C 165.67349,107.17229 164.91425,106.81265 164.15502,106.61285   C 163.59558,106.49297 162.6765,106.45301 161.35783,106.45301   L 155.56365,106.45301   L 155.56365,123.19618   z  M 155.56365,102.13735   L 166.31285,102.13735   C 168.59056,102.13735 170.38875,101.89759 171.66747,101.41807   C 172.94618,100.93855 173.94518,100.17932 174.6245,99.14036   C 175.26385,98.101404 175.62349,96.982529 175.62349,95.743774   C 175.62349,93.985541 174.98413,92.507027 173.66546,91.348191   C 172.38674,90.189356 170.30883,89.629918 167.51164,89.629918   L 155.56365,89.629918   z  M 184.45462,123.19618   L 198.96004,85.474095   L 204.31466,85.474095   L 219.77911,123.19618   L 214.10482,123.19618   L 209.66927,111.76767   L 193.88514,111.76767   L 189.76927,123.19618   z  M 195.32369,107.69177   L 208.1508,107.69177   L 204.19478,97.262248   C 202.99598,94.06546 202.11686,91.468071 201.51747,89.430119   C 201.03795,91.82771 200.35863,94.26526 199.47952,96.62289   z "
     style="fill:#000000;fill-rule:evenodd;fill-opacity:1;stroke:none;" />
</svg>
