<?xml version="1.0" encoding="UTF-8" standalone="no"?>
<svg
   xmlns:dc="http://purl.org/dc/elements/1.1/"
   xmlns:cc="http://creativecommons.org/ns#"
   xmlns:rdf="http://www.w3.org/1999/02/22-rdf-syntax-ns#"
   xmlns:svg="http://www.w3.org/2000/svg"
   xmlns="http://www.w3.org/2000/svg"
   id="svg15"
   height="116.73mm"
   width="116.73mm"
   version="1.0">
  <metadata
     id="metadata19">
    <rdf:RDF>
      <cc:Work
         rdf:about="">
        <dc:format>image/svg+xml</dc:format>
        <dc:type
           rdf:resource="http://purl.org/dc/dcmitype/StillImage" />
      </cc:Work>
    </rdf:RDF>
  </metadata>
  <defs
     id="defs3">
    <pattern
       y="0"
       x="0"
       height="6"
       width="6"
       patternUnits="userSpaceOnUse"
       id="EMFhbasepattern" />
  </defs>
  <path
     id="path5"
     d="  M 172.6265,43.156626   L 172.6265,100.69879   L 268.53012,100.69879   L 268.53012,43.156626   L 172.6265,43.156626   z "
     style="fill:#000000;fill-rule:evenodd;fill-opacity:1;stroke:none;" />
  <path
     id="path7"
     d="  M 220.57831,386.49156   L 220.57831,386.49156   L 386.49156,220.57831   L 220.57831,54.665059   L 54.665059,220.57831   L 220.57831,386.49156   z "
     style="fill:#ff8080;fill-rule:evenodd;fill-opacity:1;stroke:none;" />
  <path
     id="path9"
     d="  M 220.57831,386.49156   L 220.57831,386.49156   L 386.49156,220.57831   L 220.57831,54.665059   L 54.665059,220.57831   L 220.57831,386.49156  "
     style="fill:none;stroke:#000000;stroke-width:9.5903616px;stroke-linecap:butt;stroke-linejoin:miter;stroke-miterlimit:10;stroke-dasharray:none;stroke-opacity:1;" />
  <path
     id="path11"
     d="  M 182.9761,189.80923   L 182.9761,138.301   L 202.39658,138.301   C 205.83313,138.34096 208.43052,138.5008 210.22871,138.82048   C 212.78614,139.22008 214.90401,140.01928 216.58233,141.21807   C 218.3006,142.41687 219.69919,144.05522 220.73815,146.17309   C 221.77711,148.33092 222.29658,150.64859 222.29658,153.20602   C 222.29658,157.6016 220.89799,161.31787 218.1008,164.31486   C 215.34357,167.3518 210.30863,168.87028 202.99598,168.87028   L 189.80923,168.87028   L 189.80923,189.80923   z  M 189.80923,162.79638   L 203.11586,162.79638   C 207.51144,162.79638 210.62831,161.99719 212.50642,160.35883   C 214.34458,158.72048 215.26365,156.40281 215.26365,153.40582   C 215.26365,151.28795 214.70421,149.40984 213.6253,147.89136   C 212.54638,146.37289 211.10783,145.33393 209.3496,144.85442   C 208.19076,144.53474 206.07289,144.41486 202.95602,144.41486   L 189.80923,144.41486   z  M 228.6502,173.26586   L 235.08373,172.70642   C 235.36345,175.26385 236.08273,177.38172 237.2016,179.06004   C 238.32048,180.69839 240.03875,182.01707 242.39638,183.05602   C 244.71405,184.05502 247.3514,184.5745 250.26847,184.5745   C 252.86586,184.5745 255.18353,184.1749 257.18152,183.41566   C 259.13955,182.65642 260.61807,181.57751 261.61706,180.25883   C 262.5761,178.9002 263.05562,177.42168 263.05562,175.82329   C 263.05562,174.2249 262.61606,172.8263 261.65702,171.58755   C 260.73795,170.38875 259.17951,169.38976 257.02168,168.5506   C 255.66305,168.03112 252.58614,167.19197 247.87088,166.03313   C 243.11566,164.91425 239.79899,163.83534 237.92088,162.83634   C 235.44337,161.55763 233.64518,159.95923 232.40642,158.04116   C 231.20763,156.12309 230.60823,154.00522 230.60823,151.64759   C 230.60823,149.0502 231.36747,146.61265 232.84598,144.33494   C 234.28453,142.09719 236.44237,140.37891 239.27951,139.22008   C 242.11666,138.02128 245.27349,137.46185 248.75,137.46185   C 252.54618,137.46185 255.90281,138.06124 258.81988,139.3   C 261.73694,140.49879 263.97469,142.33695 265.57309,144.73454   C 267.13152,147.09217 267.97068,149.80944 268.09056,152.80642   L 261.53714,153.3259   C 261.21747,150.04919 260.01867,147.61164 257.98072,145.93333   C 255.98273,144.29498 252.98574,143.45582 249.02972,143.45582   C 244.91385,143.45582 241.8769,144.21506 239.99879,145.73353   C 238.12068,147.21205 237.16164,149.0502 237.16164,151.16807   C 237.16164,153.04618 237.84096,154.56466 239.19959,155.72349   C 240.47831,156.92229 243.91486,158.16104 249.46927,159.3998   C 254.98373,160.67851 258.77992,161.75743 260.85783,162.6765   C 263.85482,164.0751 266.05261,165.83333 267.49116,167.9512   C 268.92971,170.06907 269.64899,172.50662 269.64899,175.26385   C 269.64899,178.02108 268.8498,180.57851 267.29136,183.01606   C 265.69297,185.45361 263.45522,187.33172 260.53815,188.6504   C 257.58112,190.00903 254.26445,190.68835 250.58815,190.68835   C 245.95281,190.68835 242.03674,190.00903 238.87992,188.6504   C 235.72309,187.29176 233.24558,185.25381 231.48735,182.53654   C 229.68915,179.77931 228.73012,176.70241 228.6502,173.26586   z "
     style="fill:#000000;fill-rule:evenodd;fill-opacity:1;stroke:none;" />
  <path
     id="path13"
     d="  M 175.42369,290.50803   L 175.42369,238.9998   L 198.24076,238.9998   C 202.83614,239.03976 206.31265,239.47931 208.71024,240.39839   C 211.10783,241.31747 213.0259,242.95582 214.42449,245.31345   C 215.86305,247.63112 216.58233,250.22851 216.58233,253.06566   C 216.58233,256.74196 215.38353,259.81887 213.0259,262.29638   C 210.66827,264.81385 207.03192,266.41225 202.0769,267.09156   C 203.8751,267.93072 205.23373,268.80984 206.19277,269.64899   C 208.19076,271.48714 210.06887,273.76486 211.82711,276.48212   L 220.81807,290.50803   L 212.2267,290.50803   L 205.43353,279.79879   C 203.43554,276.72188 201.79719,274.32429 200.51847,272.68594   C 199.1998,271.04759 198.04096,269.92871 197.04197,269.24939   C 196.00301,268.61004 195.00401,268.13052 193.9251,267.89076   C 193.16586,267.73092 191.88715,267.651 190.12891,267.651   L 182.21686,267.651   L 182.21686,290.50803   z  M 182.21686,261.73694   L 196.88213,261.73694   C 199.99899,261.73694 202.43654,261.41727 204.19478,260.77791   C 205.95301,260.13855 207.27168,259.09959 208.19076,257.701   C 209.10984,256.26245 209.54939,254.74397 209.54939,253.06566   C 209.54939,250.62811 208.67028,248.63012 206.91205,247.07168   C 205.15381,245.51325 202.35662,244.71405 198.52048,244.71405   L 182.21686,244.71405   z  M 227.0518,290.50803   L 227.0518,238.9998   L 237.32148,238.9998   L 249.50923,275.48313   C 250.62811,278.87971 251.42731,281.39718 251.94678,283.11546   C 252.54618,281.23735 253.46526,278.48012 254.70401,274.84377   L 267.01164,238.9998   L 276.20241,238.9998   L 276.20241,290.50803   L 269.60903,290.50803   L 269.60903,247.43132   L 254.66405,290.50803   L 248.51024,290.50803   L 233.60522,246.67208   L 233.60522,290.50803   z "
     style="fill:#000000;fill-rule:evenodd;fill-opacity:1;stroke:none;" />
</svg>
