<?xml version="1.0" encoding="UTF-8" standalone="no"?>
<svg
   xmlns:dc="http://purl.org/dc/elements/1.1/"
   xmlns:cc="http://creativecommons.org/ns#"
   xmlns:rdf="http://www.w3.org/1999/02/22-rdf-syntax-ns#"
   xmlns:svg="http://www.w3.org/2000/svg"
   xmlns="http://www.w3.org/2000/svg"
   id="svg25"
   height="116.73mm"
   width="116.73mm"
   version="1.0">
  <metadata
     id="metadata29">
    <rdf:RDF>
      <cc:Work
         rdf:about="">
        <dc:format>image/svg+xml</dc:format>
        <dc:type
           rdf:resource="http://purl.org/dc/dcmitype/StillImage" />
      </cc:Work>
    </rdf:RDF>
  </metadata>
  <defs
     id="defs3">
    <pattern
       y="0"
       x="0"
       height="6"
       width="6"
       patternUnits="userSpaceOnUse"
       id="EMFhbasepattern" />
  </defs>
  <path
     id="path5"
     d="  M 172.6265,43.156626   L 172.6265,100.69879   L 268.53012,100.69879   L 268.53012,43.156626   L 172.6265,43.156626   z "
     style="fill:#000000;fill-rule:evenodd;fill-opacity:1;stroke:none;" />
  <path
     id="path7"
     d="  M 220.57831,386.49156   L 220.57831,386.49156   L 386.49156,220.57831   L 220.57831,54.665059   L 54.665059,220.57831   L 220.57831,386.49156   z "
     style="fill:#ff8080;fill-rule:evenodd;fill-opacity:1;stroke:none;" />
  <path
     id="path9"
     d="  M 220.57831,386.49156   L 220.57831,386.49156   L 386.49156,220.57831   L 220.57831,54.665059   L 54.665059,220.57831   L 220.57831,386.49156  "
     style="fill:none;stroke:#000000;stroke-width:9.5903616px;stroke-linecap:butt;stroke-linejoin:miter;stroke-miterlimit:10;stroke-dasharray:none;stroke-opacity:1;" />
  <path
     id="path11"
     d="  M 170.70843,182.21686   C 170.70843,191.76727 162.99618,199.47952 153.44578,199.47952   C 143.93534,199.47952 136.18313,191.76727 136.18313,182.21686   C 136.18313,172.70642 143.93534,164.95421 153.44578,164.95421   C 162.99618,164.95421 170.70843,172.70642 170.70843,182.21686   z "
     style="fill:#000000;fill-rule:evenodd;fill-opacity:1;stroke:none;" />
  <path
     id="path13"
     d="  M 170.70843,182.21686   C 170.70843,191.76727 162.99618,199.47952 153.44578,199.47952   C 143.93534,199.47952 136.18313,191.76727 136.18313,182.21686   C 136.18313,172.70642 143.93534,164.95421 153.44578,164.95421   C 162.99618,164.95421 170.70843,172.70642 170.70843,182.21686  "
     style="fill:none;stroke:#000000;stroke-width:9.5903616px;stroke-linecap:butt;stroke-linejoin:miter;stroke-miterlimit:10;stroke-dasharray:none;stroke-opacity:1;" />
  <path
     id="path15"
     d="  M 304.97349,182.21686   C 304.97349,191.76727 297.26124,199.47952 287.71084,199.47952   C 278.2004,199.47952 270.44819,191.76727 270.44819,182.21686   C 270.44819,172.70642 278.2004,164.95421 287.71084,164.95421   C 297.26124,164.95421 304.97349,172.70642 304.97349,182.21686   z "
     style="fill:#000000;fill-rule:evenodd;fill-opacity:1;stroke:none;" />
  <path
     id="path17"
     d="  M 304.97349,182.21686   C 304.97349,191.76727 297.26124,199.47952 287.71084,199.47952   C 278.2004,199.47952 270.44819,191.76727 270.44819,182.21686   C 270.44819,172.70642 278.2004,164.95421 287.71084,164.95421   C 297.26124,164.95421 304.97349,172.70642 304.97349,182.21686  "
     style="fill:none;stroke:#000000;stroke-width:9.5903616px;stroke-linecap:butt;stroke-linejoin:miter;stroke-miterlimit:10;stroke-dasharray:none;stroke-opacity:1;" />
  <path
     id="path19"
     d="  M 163.03614,167.83132   C 220.57831,201.39759 230.16867,220.57831 254.14457,306.89156  "
     style="fill:none;stroke:#000000;stroke-width:9.5903616px;stroke-linecap:butt;stroke-linejoin:miter;stroke-miterlimit:10;stroke-dasharray:none;stroke-opacity:1;" />
  <path
     id="path21"
     d="  M 278.12048,167.83132   C 220.57831,201.39759 210.98795,220.57831 187.01205,306.89156  "
     style="fill:none;stroke:#000000;stroke-width:9.5903616px;stroke-linecap:butt;stroke-linejoin:miter;stroke-miterlimit:10;stroke-dasharray:none;stroke-opacity:1;" />
  <path
     id="path23"
     d="  M 240.35843,150.64859   L 247.1516,152.36687   C 245.71305,157.96124 243.15562,162.23695 239.43935,165.19397   C 235.72309,168.11104 231.20763,169.58956 225.85301,169.58956   C 220.29859,169.58956 215.78313,168.47068 212.30662,166.19297   C 208.83012,163.95522 206.19277,160.67851 204.35462,156.40281   C 202.55642,152.08715 201.63735,147.49176 201.63735,142.5767   C 201.63735,137.22209 202.6763,132.54679 204.71425,128.5508   C 206.75221,124.55482 209.66927,121.51787 213.46546,119.43996   C 217.26164,117.36205 221.41747,116.36305 225.93293,116.36305   C 231.08775,116.36305 235.44337,117.64177 238.95984,120.27911   C 242.43634,122.91646 244.91385,126.59277 246.27249,131.34799   L 239.55923,132.90642   C 238.36044,129.19016 236.64217,126.43293 234.36445,124.75462   C 232.08674,123.03634 229.2496,122.15723 225.81305,122.15723   C 221.85702,122.15723 218.54036,123.11626 215.90301,125.03434   C 213.2257,126.91245 211.34759,129.46988 210.26867,132.66666   C 209.18976,135.86345 208.67028,139.14016 208.67028,142.53674   C 208.67028,146.93233 209.30964,150.72851 210.58835,154.00522   C 211.86707,157.28193 213.8251,159.71948 216.54237,161.31787   C 219.21968,162.95622 222.13674,163.75542 225.29357,163.75542   C 229.08976,163.75542 232.3265,162.6765 234.96385,160.43875   C 237.6012,158.24096 239.39939,155.00421 240.35843,150.64859   z "
     style="fill:#000000;fill-rule:evenodd;fill-opacity:1;stroke:none;" />
</svg>
