<?xml version="1.0" encoding="UTF-8" standalone="no"?>
<svg
   xmlns:dc="http://purl.org/dc/elements/1.1/"
   xmlns:cc="http://creativecommons.org/ns#"
   xmlns:rdf="http://www.w3.org/1999/02/22-rdf-syntax-ns#"
   xmlns:svg="http://www.w3.org/2000/svg"
   xmlns="http://www.w3.org/2000/svg"
   id="svg15"
   height="89.669998mm"
   width="120.11mm"
   version="1.0">
  <metadata
     id="metadata19">
    <rdf:RDF>
      <cc:Work
         rdf:about="">
        <dc:format>image/svg+xml</dc:format>
        <dc:type
           rdf:resource="http://purl.org/dc/dcmitype/StillImage" />
      </cc:Work>
    </rdf:RDF>
  </metadata>
  <defs
     id="defs3">
    <pattern
       y="0"
       x="0"
       height="6"
       width="6"
       patternUnits="userSpaceOnUse"
       id="EMFhbasepattern" />
  </defs>
  <path
     id="path5"
     d="  M 179.02008,15.983936   L 179.02008,54.345381   L 274.92369,54.345381   L 274.92369,15.983936   L 179.02008,15.983936   z "
     style="fill:#000000;fill-rule:evenodd;fill-opacity:1;stroke:none;" />
  <path
     id="path7"
     d="  M 54.345381,54.345381   L 54.345381,284.51405   L 399.59839,284.51405   L 399.59839,54.345381   L 54.345381,54.345381   z "
     style="fill:#80e0ff;fill-rule:evenodd;fill-opacity:1;stroke:none;" />
  <path
     id="path9"
     d="  M 54.345381,54.345381   L 399.59839,54.345381   L 399.59839,284.51405   L 54.345381,284.51405   z "
     style="fill:none;stroke:#000000;stroke-width:9.5903616px;stroke-linecap:butt;stroke-linejoin:miter;stroke-miterlimit:10;stroke-dasharray:none;stroke-opacity:1;" />
  <path
     id="path11"
     d="  M 189.36968,138.66064   L 189.36968,87.152408   L 208.79016,87.152408   C 212.2267,87.192368 214.82409,87.352208 216.62229,87.671886   C 219.17972,88.071485 221.29759,88.870681 222.9759,90.069477   C 224.69417,91.268272 226.09277,92.906625 227.13172,95.024497   C 228.17068,97.182328 228.69016,99.499999 228.69016,102.05743   C 228.69016,106.45301 227.29156,110.16928 224.49437,113.16626   C 221.73715,116.20321 216.70221,117.72169 209.38956,117.72169   L 196.20281,117.72169   L 196.20281,138.66064   z  M 196.20281,111.64779   L 209.50943,111.64779   C 213.90502,111.64779 217.02188,110.84859 218.9,109.21024   C 220.73815,107.57189 221.65723,105.25422 221.65723,102.25723   C 221.65723,100.13936 221.09779,98.261244 220.01887,96.74277   C 218.93996,95.224296 217.5014,94.18534 215.74317,93.705822   C 214.58433,93.386143 212.46646,93.266264 209.3496,93.266264   L 196.20281,93.266264   z  M 235.04377,122.11727   L 241.47731,121.55783   C 241.75702,124.11526 242.4763,126.23313 243.59518,127.91144   C 244.71405,129.5498 246.43233,130.86847 248.78996,131.90743   C 251.10763,132.90642 253.74498,133.4259 256.66204,133.4259   C 259.25943,133.4259 261.5771,133.0263 263.5751,132.26707   C 265.53313,131.50783 267.01164,130.42891 268.01064,129.11024   C 268.96967,127.7516 269.44919,126.27309 269.44919,124.6747   C 269.44919,123.0763 269.00963,121.67771 268.0506,120.43895   C 267.13152,119.24016 265.57309,118.24116 263.41526,117.40201   C 262.05662,116.88253 258.97972,116.04337 254.26445,114.88454   C 249.50923,113.76566 246.19257,112.68675 244.31445,111.68775   C 241.83694,110.40903 240.03875,108.81064 238.8,106.89257   C 237.6012,104.9745 237.0018,102.85663 237.0018,100.49899   C 237.0018,97.901605 237.76104,95.464055 239.23955,93.186344   C 240.67811,90.948593 242.83594,89.23032 245.67309,88.071485   C 248.51024,86.87269 251.66706,86.313252 255.14357,86.313252   C 258.93976,86.313252 262.29638,86.912649 265.21345,88.151404   C 268.13052,89.3502 270.36827,91.188352 271.96666,93.585942   C 273.5251,95.943573 274.36425,98.660842 274.48413,101.65783   L 267.93072,102.17731   C 267.61104,98.900601 266.41225,96.463051 264.37429,94.784738   C 262.3763,93.146384 259.37931,92.307228 255.42329,92.307228   C 251.30743,92.307228 248.27048,93.066465 246.39237,94.584938   C 244.51425,96.063452 243.55522,97.901605 243.55522,100.01948   C 243.55522,101.89759 244.23453,103.41606 245.59317,104.5749   C 246.87188,105.77369 250.30843,107.01245 255.86285,108.2512   C 261.37731,109.52992 265.17349,110.60883 267.2514,111.52791   C 270.24839,112.9265 272.44618,114.68474 273.88473,116.80261   C 275.32329,118.92048 276.04257,121.35803 276.04257,124.11526   C 276.04257,126.87249 275.24337,129.42992 273.68494,131.86747   C 272.08654,134.30502 269.84879,136.18313 266.93172,137.50181   C 263.97469,138.86044 260.65803,139.53976 256.98172,139.53976   C 252.34638,139.53976 248.43032,138.86044 245.27349,137.50181   C 242.11666,136.14317 239.63915,134.10522 237.88092,131.38795   C 236.08273,128.63072 235.12369,125.55381 235.04377,122.11727   z "
     style="fill:#000000;fill-rule:evenodd;fill-opacity:1;stroke:none;" />
  <path
     id="path13"
     d="  M 181.81727,239.35943   L 181.81727,187.8512   L 204.63433,187.8512   C 209.22972,187.89116 212.70622,188.33072 215.10381,189.2498   C 217.5014,190.16887 219.41947,191.80723 220.81807,194.16486   C 222.25662,196.48253 222.9759,199.07992 222.9759,201.91707   C 222.9759,205.59337 221.77711,208.67028 219.41947,211.14779   C 217.06184,213.66526 213.4255,215.26365 208.47048,215.94297   C 210.26867,216.78213 211.62731,217.66124 212.58634,218.5004   C 214.58433,220.33855 216.46245,222.61626 218.22068,225.33353   L 227.21164,239.35943   L 218.62028,239.35943   L 211.82711,228.6502   C 209.82911,225.57329 208.19076,223.1757 206.91205,221.53735   C 205.59337,219.89899 204.43454,218.78012 203.43554,218.1008   C 202.39658,217.46144 201.39759,216.98192 200.31867,216.74217   C 199.55943,216.58233 198.28072,216.50241 196.52249,216.50241   L 188.61044,216.50241   L 188.61044,239.35943   z  M 188.61044,210.58835   L 203.2757,210.58835   C 206.39257,210.58835 208.83012,210.26867 210.58835,209.62931   C 212.34658,208.98996 213.66526,207.951 214.58433,206.55241   C 215.50341,205.11385 215.94297,203.59538 215.94297,201.91707   C 215.94297,199.47952 215.06385,197.48152 213.30562,195.92309   C 211.54739,194.36466 208.7502,193.56546 204.91405,193.56546   L 188.61044,193.56546   z  M 233.44538,239.35943   L 233.44538,187.8512   L 243.71506,187.8512   L 255.90281,224.33453   C 257.02168,227.73112 257.82088,230.24859 258.34036,231.96686   C 258.93976,230.08875 259.85883,227.33152 261.09759,223.69518   L 273.40522,187.8512   L 282.59598,187.8512   L 282.59598,239.35943   L 276.00261,239.35943   L 276.00261,196.28273   L 261.05763,239.35943   L 254.90381,239.35943   L 239.99879,195.52349   L 239.99879,239.35943   z "
     style="fill:#000000;fill-rule:evenodd;fill-opacity:1;stroke:none;" />
</svg>
