<?xml version="1.0" encoding="UTF-8" standalone="no"?>
<svg
   xmlns:dc="http://purl.org/dc/elements/1.1/"
   xmlns:cc="http://creativecommons.org/ns#"
   xmlns:rdf="http://www.w3.org/1999/02/22-rdf-syntax-ns#"
   xmlns:svg="http://www.w3.org/2000/svg"
   xmlns="http://www.w3.org/2000/svg"
   id="svg25"
   height="95.75mm"
   width="95.75mm"
   version="1.0">
  <metadata
     id="metadata29">
    <rdf:RDF>
      <cc:Work
         rdf:about="">
        <dc:format>image/svg+xml</dc:format>
        <dc:type
           rdf:resource="http://purl.org/dc/dcmitype/StillImage" />
      </cc:Work>
    </rdf:RDF>
  </metadata>
  <defs
     id="defs3">
    <pattern
       y="0"
       x="0"
       height="6"
       width="6"
       patternUnits="userSpaceOnUse"
       id="EMFhbasepattern" />
  </defs>
  <path
     id="path5"
     d="  M 132.98634,15.983936   L 132.98634,54.345381   L 228.88996,54.345381   L 228.88996,15.983936   L 132.98634,15.983936   z "
     style="fill:#000000;fill-rule:evenodd;fill-opacity:1;stroke:none;" />
  <path
     id="path7"
     d="  M 54.345381,54.345381   L 54.345381,307.53092   L 307.53092,307.53092   L 307.53092,54.345381   L 54.345381,54.345381   z "
     style="fill:#aaffaa;fill-rule:evenodd;fill-opacity:1;stroke:none;" />
  <path
     id="path9"
     d="  M 54.345381,54.345381   L 307.53092,54.345381   L 307.53092,307.53092   L 54.345381,307.53092   z "
     style="fill:none;stroke:#000000;stroke-width:9.5903616px;stroke-linecap:butt;stroke-linejoin:miter;stroke-miterlimit:10;stroke-dasharray:none;stroke-opacity:1;" />
  <path
     id="path11"
     d="  M 131.06827,142.5767   C 131.06827,152.12711 123.35602,159.83936 113.80562,159.83936   C 104.29518,159.83936 96.54297,152.12711 96.54297,142.5767   C 96.54297,133.06626 104.29518,125.31405 113.80562,125.31405   C 123.35602,125.31405 131.06827,133.06626 131.06827,142.5767   z "
     style="fill:#000000;fill-rule:evenodd;fill-opacity:1;stroke:none;" />
  <path
     id="path13"
     d="  M 131.06827,142.5767   C 131.06827,152.12711 123.35602,159.83936 113.80562,159.83936   C 104.29518,159.83936 96.54297,152.12711 96.54297,142.5767   C 96.54297,133.06626 104.29518,125.31405 113.80562,125.31405   C 123.35602,125.31405 131.06827,133.06626 131.06827,142.5767  "
     style="fill:none;stroke:#000000;stroke-width:9.5903616px;stroke-linecap:butt;stroke-linejoin:miter;stroke-miterlimit:10;stroke-dasharray:none;stroke-opacity:1;" />
  <path
     id="path15"
     d="  M 265.33333,142.5767   C 265.33333,152.12711 257.62108,159.83936 248.07068,159.83936   C 238.56024,159.83936 230.80803,152.12711 230.80803,142.5767   C 230.80803,133.06626 238.56024,125.31405 248.07068,125.31405   C 257.62108,125.31405 265.33333,133.06626 265.33333,142.5767   z "
     style="fill:#000000;fill-rule:evenodd;fill-opacity:1;stroke:none;" />
  <path
     id="path17"
     d="  M 265.33333,142.5767   C 265.33333,152.12711 257.62108,159.83936 248.07068,159.83936   C 238.56024,159.83936 230.80803,152.12711 230.80803,142.5767   C 230.80803,133.06626 238.56024,125.31405 248.07068,125.31405   C 257.62108,125.31405 265.33333,133.06626 265.33333,142.5767  "
     style="fill:none;stroke:#000000;stroke-width:9.5903616px;stroke-linecap:butt;stroke-linejoin:miter;stroke-miterlimit:10;stroke-dasharray:none;stroke-opacity:1;" />
  <path
     id="path19"
     d="  M 123.39598,128.19116   C 180.93815,161.75743 190.52851,180.93815 214.50441,267.2514  "
     style="fill:none;stroke:#000000;stroke-width:9.5903616px;stroke-linecap:butt;stroke-linejoin:miter;stroke-miterlimit:10;stroke-dasharray:none;stroke-opacity:1;" />
  <path
     id="path21"
     d="  M 238.48032,128.19116   C 180.93815,161.75743 171.34779,180.93815 147.37189,267.2514  "
     style="fill:none;stroke:#000000;stroke-width:9.5903616px;stroke-linecap:butt;stroke-linejoin:miter;stroke-miterlimit:10;stroke-dasharray:none;stroke-opacity:1;" />
  <path
     id="path23"
     d="  M 200.71827,111.00843   L 207.51144,112.72671   C 206.07289,118.32108 203.51546,122.59679 199.79919,125.55381   C 196.08293,128.47088 191.56747,129.9494 186.21285,129.9494   C 180.65843,129.9494 176.14297,128.83052 172.66646,126.55281   C 169.18996,124.31506 166.55261,121.03835 164.71446,116.76265   C 162.91626,112.44699 161.99719,107.8516 161.99719,102.93654   C 161.99719,97.581926 163.03614,92.906625 165.07409,88.910641   C 167.11205,84.914657 170.02911,81.87771 173.8253,79.799798   C 177.62148,77.721886 181.77731,76.72289 186.29277,76.72289   C 191.44759,76.72289 195.80321,78.001605 199.31968,80.638955   C 202.79618,83.276304 205.27369,86.952609 206.63233,91.70783   L 199.91907,93.266264   C 198.72028,89.549999 197.00201,86.79277 194.72429,85.114457   C 192.44658,83.396184 189.60944,82.517067 186.17289,82.517067   C 182.21686,82.517067 178.9002,83.476103 176.26285,85.394175   C 173.58554,87.272288 171.70743,89.829718 170.62851,93.026505   C 169.5496,96.223292 169.03012,99.499999 169.03012,102.89658   C 169.03012,107.29217 169.66948,111.08835 170.94819,114.36506   C 172.22691,117.64177 174.18494,120.07932 176.90221,121.67771   C 179.57952,123.31606 182.49658,124.11526 185.65341,124.11526   C 189.4496,124.11526 192.68634,123.03634 195.32369,120.79859   C 197.96104,118.6008 199.75923,115.36405 200.71827,111.00843   z "
     style="fill:#000000;fill-rule:evenodd;fill-opacity:1;stroke:none;" />
</svg>
