<?xml version="1.0" encoding="UTF-8" standalone="no"?>
<svg
   xmlns:dc="http://purl.org/dc/elements/1.1/"
   xmlns:cc="http://creativecommons.org/ns#"
   xmlns:rdf="http://www.w3.org/1999/02/22-rdf-syntax-ns#"
   xmlns:svg="http://www.w3.org/2000/svg"
   xmlns="http://www.w3.org/2000/svg"
   id="svg15"
   height="112.9mm"
   width="112.9mm"
   version="1.0">
  <metadata
     id="metadata19">
    <rdf:RDF>
      <cc:Work
         rdf:about="">
        <dc:format>image/svg+xml</dc:format>
        <dc:type
           rdf:resource="http://purl.org/dc/dcmitype/StillImage" />
      </cc:Work>
    </rdf:RDF>
  </metadata>
  <defs
     id="defs3">
    <pattern
       y="0"
       x="0"
       height="6"
       width="6"
       patternUnits="userSpaceOnUse"
       id="EMFhbasepattern" />
  </defs>
  <path
     id="path5"
     d="  M 391.92062,391.38808   L 541.15652,391.38808   L 541.15652,583.2682   L 391.92062,583.2682   L 391.92062,391.38808   z "
     style="fill:none;stroke:#ff0000;stroke-width:5.3258066px;stroke-linecap:butt;stroke-linejoin:miter;stroke-miterlimit:112;stroke-dasharray:none;stroke-opacity:1;" />
  <path
     id="path7"
     d="  M 391.92062,584.36358   L 466.51969,684.53407   L 541.15652,584.36358  "
     style="fill:none;stroke:#ff0000;stroke-width:5.3258066px;stroke-linecap:butt;stroke-linejoin:miter;stroke-miterlimit:112;stroke-dasharray:none;stroke-opacity:1;" />
  <path
     id="path9"
     d="  M 407.59587,455.3733   L 407.59587,409.59403   L 427.91703,409.59403   C 431.99637,409.59403 435.09365,409.97174 437.20886,410.80272   C 439.32408,411.6337 441.0238,413.06902 442.30804,415.18423   C 443.5545,417.26168 444.19662,419.56575 444.19662,422.05868   C 444.19662,425.30704 443.13902,428.06438 441.06157,430.29291   C 438.94636,432.52143 435.698,433.91899 431.31648,434.52333   C 432.90289,435.31654 434.11159,436.07197 434.98033,436.82741   C 436.71783,438.45159 438.41756,440.45349 440.00397,442.90865   L 447.93602,455.3733   L 440.34391,455.3733   L 434.26267,445.81706   C 432.4874,443.0975 431.05208,440.98229 429.91893,439.50919   C 428.74801,438.07387 427.72817,437.05404 426.82165,436.44969   C 425.91513,435.88311 425.00861,435.46763 424.06432,435.24099   C 423.38443,435.08991 422.25128,435.01436 420.70264,435.01436   L 413.67711,435.01436   L 413.67711,455.3733   L 407.59587,455.3733   z  M 413.67711,429.7641   L 426.67056,429.7641   C 429.46567,429.7641 431.61865,429.4997 433.16729,428.93312   C 434.7537,428.36655 435.92463,427.42226 436.7556,426.17579   C 437.54881,424.92933 437.9643,423.53177 437.9643,422.05868   C 437.9643,419.90569 437.17109,418.13042 435.58468,416.73287   C 434.03604,415.33532 431.54311,414.61766 428.14366,414.61766   L 413.67711,414.61766   L 413.67711,429.7641   z "
     style="fill:#ff0000;fill-rule:nonzero;fill-opacity:1;stroke:#ff0000;stroke-width:1.0576069px;stroke-linecap:butt;stroke-linejoin:miter;stroke-miterlimit:112;stroke-dasharray:none;stroke-opacity:1;" />
  <path
     id="path11"
     d="  M 451.48656,443.28636   L 457.11454,442.53093   C 457.75666,445.70375 458.85203,448.00782 460.40067,449.40537   C 461.94931,450.80293 463.8379,451.52059 466.06642,451.52059   C 468.71044,451.52059 470.93897,450.61407 472.75201,448.76326   C 474.60282,446.95022 475.50934,444.68391 475.50934,441.96435   C 475.50934,439.39588 474.6406,437.24289 472.97864,435.58094   C 471.27892,433.91899 469.12593,433.05024 466.51969,433.05024   C 465.46208,433.05024 464.14007,433.27687 462.55366,433.69236   L 463.19578,428.74427   C 463.57349,428.78204 463.87567,428.81981 464.1023,428.81981   C 466.48191,428.81981 468.6349,428.17769 470.56125,426.93123   C 472.48761,425.68476 473.4319,423.7584 473.4319,421.15216   C 473.4319,419.11249 472.75201,417.41276 471.35446,416.05298   C 469.95691,414.6932 468.14387,414.01331 465.95311,414.01331   C 463.76235,414.01331 461.94931,414.6932 460.47622,416.09075   C 459.00312,417.45053 458.0966,419.49021 457.68111,422.24754   L 452.05313,421.26547   C 452.73302,417.48831 454.28166,414.57989 456.73682,412.50244   C 459.15421,410.425 462.21371,409.40517 465.80202,409.40517   C 468.33273,409.40517 470.59903,409.93397 472.71424,410.99158   C 474.82945,412.08696 476.41586,413.52228 477.54902,415.37309   C 478.64439,417.2239 479.21097,419.18803 479.21097,421.30325   C 479.21097,423.26737 478.68217,425.08041 477.62456,426.7046   C 476.56695,428.32878 474.98054,429.61301 472.9031,430.55731   C 475.62266,431.19943 477.7001,432.48366 479.21097,434.44779   C 480.72184,436.41192 481.47727,438.86708 481.47727,441.85104   C 481.47727,445.81706 480.00417,449.21652 477.09575,452.01162   C 474.18734,454.76895 470.48571,456.1665 466.02865,456.1665   C 462.02486,456.1665 458.66318,454.95781 456.01916,452.5782   C 453.37514,450.19858 451.86427,447.1013 451.48656,443.28636   L 451.48656,443.28636   z "
     style="fill:#ff0000;fill-rule:nonzero;fill-opacity:1;stroke:#ff0000;stroke-width:1.0576069px;stroke-linecap:butt;stroke-linejoin:miter;stroke-miterlimit:112;stroke-dasharray:none;stroke-opacity:1;" />
  <path
     id="path13"
     d="  M 489.33378,455.3733   L 489.33378,409.59403   L 506.59544,409.59403   C 509.65494,409.59403 511.95901,409.70734 513.5832,410.00951   C 515.81173,410.38723 517.70031,411.10489 519.21118,412.1625   C 520.75982,413.22011 521.96851,414.6932 522.87503,416.58179   C 523.81932,418.47037 524.27258,420.54781 524.27258,422.81411   C 524.27258,426.7046 523.02612,429.99073 520.57096,432.71029   C 518.07803,435.39208 513.62097,436.75186 507.12424,436.75186   L 495.37725,436.75186   L 495.37725,455.3733   L 489.33378,455.3733   z  M 495.37725,431.35051   L 507.23755,431.35051   C 511.12804,431.35051 513.92314,430.63285 515.5851,429.15975   C 517.20928,427.68666 518.04025,425.64699 518.04025,423.00297   C 518.04025,421.07662 517.54922,419.45243 516.56716,418.09265   C 515.62287,416.73287 514.33863,415.82635 512.75222,415.37309   C 511.73238,415.10869 509.8438,414.99538 507.08647,414.99538   L 495.37725,414.99538   L 495.37725,431.35051   z "
     style="fill:#ff0000;fill-rule:nonzero;fill-opacity:1;stroke:#ff0000;stroke-width:1.0576069px;stroke-linecap:butt;stroke-linejoin:miter;stroke-miterlimit:112;stroke-dasharray:none;stroke-opacity:1;" />
</svg>
