<?xml version="1.0" encoding="UTF-8" standalone="no"?>
<svg
   xmlns:dc="http://purl.org/dc/elements/1.1/"
   xmlns:cc="http://creativecommons.org/ns#"
   xmlns:rdf="http://www.w3.org/1999/02/22-rdf-syntax-ns#"
   xmlns:svg="http://www.w3.org/2000/svg"
   xmlns="http://www.w3.org/2000/svg"
   id="svg15"
   height="112.9mm"
   width="112.9mm"
   version="1.0">
  <metadata
     id="metadata19">
    <rdf:RDF>
      <cc:Work
         rdf:about="">
        <dc:format>image/svg+xml</dc:format>
        <dc:type
           rdf:resource="http://purl.org/dc/dcmitype/StillImage" />
      </cc:Work>
    </rdf:RDF>
  </metadata>
  <defs
     id="defs3">
    <pattern
       y="0"
       x="0"
       height="6"
       width="6"
       patternUnits="userSpaceOnUse"
       id="EMFhbasepattern" />
  </defs>
  <path
     id="path5"
     d="  M 1055.3824,1055.5085   L 1203.488,1055.5085   L 1203.488,1246.2484   L 1055.3824,1246.2484   z "
     style="fill:none;stroke:#ffff00;stroke-width:5.3245535px;stroke-linecap:butt;stroke-linejoin:miter;stroke-miterlimit:282;stroke-dasharray:none;stroke-opacity:1;" />
  <path
     id="path7"
     d="  M 1055.3824,1248.4386   L 1129.9639,1348.5855   L 1204.5832,1248.4386  "
     style="fill:none;stroke:#ffff00;stroke-width:5.3245535px;stroke-linecap:butt;stroke-linejoin:miter;stroke-miterlimit:282;stroke-dasharray:none;stroke-opacity:1;" />
  <path
     id="path9"
     d="  M 1071.0539,1119.4787   L 1071.0539,1073.7102   L 1091.3703,1073.7102   C 1095.4487,1073.7102 1098.5453,1074.0878 1100.66,1074.9186   C 1102.7747,1075.7494 1104.474,1077.1844 1105.7579,1079.2991   C 1107.0041,1081.376 1107.6461,1083.6796 1107.6461,1086.1719   C 1107.6461,1089.4195 1106.5887,1092.1762 1104.5118,1094.4042   C 1102.3971,1096.6322 1099.1495,1098.0294 1094.769,1098.6336   C 1096.355,1099.4266 1097.5634,1100.1819 1098.432,1100.9372   C 1100.1691,1102.561 1101.8684,1104.5624 1103.4544,1107.017   L 1111.3846,1119.4787   L 1103.7943,1119.4787   L 1097.7145,1109.9247   C 1095.9396,1107.2058 1094.5046,1105.0911 1093.3718,1103.6183   C 1092.2011,1102.1833 1091.1815,1101.1637 1090.2752,1100.5595   C 1089.3689,1099.9931 1088.4626,1099.5777 1087.5185,1099.3511   C 1086.8388,1099.2001 1085.7059,1099.1245 1084.1576,1099.1245   L 1077.1338,1099.1245   L 1077.1338,1119.4787   z  M 1077.1338,1093.8755   L 1090.1242,1093.8755   C 1092.9186,1093.8755 1095.0711,1093.6112 1096.6194,1093.0447   C 1098.2054,1092.4783 1099.376,1091.5342 1100.2068,1090.2881   C 1100.9998,1089.0419 1101.4152,1087.6447 1101.4152,1086.1719   C 1101.4152,1084.0194 1100.6222,1082.2446 1099.0362,1080.8474   C 1097.4879,1079.4501 1094.9956,1078.7326 1091.5969,1078.7326   L 1077.1338,1078.7326   z "
     style="fill:#ffff00;fill-rule:nonzero;fill-opacity:1;stroke:#ffff00;stroke-width:1.0573581px;stroke-linecap:butt;stroke-linejoin:miter;stroke-miterlimit:282;stroke-dasharray:none;stroke-opacity:1;" />
  <path
     id="path11"
     d="  M 1114.9343,1107.3946   L 1120.561,1106.6393   C 1121.2029,1109.8114 1122.298,1112.1149 1123.8463,1113.5122   C 1125.3946,1114.9094 1127.2827,1115.6269 1129.5107,1115.6269   C 1132.1541,1115.6269 1134.3821,1114.7206 1136.1948,1112.8702   C 1138.0451,1111.0576 1138.9514,1108.7918 1138.9514,1106.0729   C 1138.9514,1103.505 1138.0829,1101.3525 1136.4213,1099.691   C 1134.722,1098.0294 1132.5695,1097.1609 1129.9639,1097.1609   C 1128.9065,1097.1609 1127.5848,1097.3875 1125.9988,1097.8028   L 1126.6408,1092.8559   C 1127.0184,1092.8937 1127.3205,1092.9314 1127.5471,1092.9314   C 1129.9261,1092.9314 1132.0786,1092.2895 1134.0045,1091.0433   C 1135.9304,1089.7971 1136.8745,1087.8712 1136.8745,1085.2656   C 1136.8745,1083.2264 1136.1948,1081.5271 1134.7975,1080.1676   C 1133.4003,1078.8082 1131.5877,1078.1284 1129.3975,1078.1284   C 1127.2072,1078.1284 1125.3946,1078.8082 1123.9218,1080.2054   C 1122.4491,1081.5648 1121.5428,1083.604 1121.1274,1086.3607   L 1115.5007,1085.3789   C 1116.1805,1081.6026 1117.7288,1078.6949 1120.1833,1076.6179   C 1122.6002,1074.541 1125.6589,1073.5214 1129.2464,1073.5214   C 1131.7765,1073.5214 1134.0423,1074.0501 1136.157,1075.1074   C 1138.2717,1076.2025 1139.8577,1077.6375 1140.9906,1079.4879   C 1142.0857,1081.3383 1142.6522,1083.3019 1142.6522,1085.4167   C 1142.6522,1087.3803 1142.1235,1089.1929 1141.0662,1090.8167   C 1140.0088,1092.4405 1138.4228,1093.7245 1136.3458,1094.6685   C 1139.0647,1095.3105 1141.1417,1096.5944 1142.6522,1098.5581   C 1144.1627,1100.5218 1144.918,1102.9763 1144.918,1105.9596   C 1144.918,1109.9247 1143.4452,1113.3234 1140.5375,1116.1178   C 1137.6297,1118.8745 1133.929,1120.2717 1129.473,1120.2717   C 1125.4701,1120.2717 1122.1092,1119.0633 1119.4658,1116.6842   C 1116.8224,1114.3052 1115.3119,1111.2086 1114.9343,1107.3946   z "
     style="fill:#ffff00;fill-rule:nonzero;fill-opacity:1;stroke:#ffff00;stroke-width:1.0573581px;stroke-linecap:butt;stroke-linejoin:miter;stroke-miterlimit:282;stroke-dasharray:none;stroke-opacity:1;" />
  <path
     id="path13"
     d="  M 1152.7726,1119.4787   L 1152.7726,1073.7102   L 1170.0302,1073.7102   C 1173.089,1073.7102 1175.3925,1073.8235 1177.0163,1074.1256   C 1179.2443,1074.5032 1181.1325,1075.2207 1182.643,1076.2781   C 1184.1913,1077.3354 1185.3997,1078.8082 1186.306,1080.6963   C 1187.25,1082.5844 1187.7032,1084.6614 1187.7032,1086.9272   C 1187.7032,1090.8167 1186.457,1094.1021 1184.0024,1096.821   C 1181.5101,1099.5022 1177.0541,1100.8616 1170.5589,1100.8616   L 1158.8147,1100.8616   L 1158.8147,1119.4787   z  M 1158.8147,1095.4616   L 1170.6722,1095.4616   C 1174.5617,1095.4616 1177.3562,1094.7441 1179.0178,1093.2713   C 1180.6416,1091.7986 1181.4723,1089.7594 1181.4723,1087.116   C 1181.4723,1085.1901 1180.9814,1083.5663 1179.9996,1082.2068   C 1179.0555,1080.8474 1177.7716,1079.941 1176.1855,1079.4879   C 1175.166,1079.2236 1173.2778,1079.1103 1170.5211,1079.1103   L 1158.8147,1079.1103   z "
     style="fill:#ffff00;fill-rule:nonzero;fill-opacity:1;stroke:#ffff00;stroke-width:1.0573581px;stroke-linecap:butt;stroke-linejoin:miter;stroke-miterlimit:282;stroke-dasharray:none;stroke-opacity:1;" />
</svg>
