<?xml version="1.0" encoding="UTF-8" standalone="no"?>
<svg
   xmlns:dc="http://purl.org/dc/elements/1.1/"
   xmlns:cc="http://creativecommons.org/ns#"
   xmlns:rdf="http://www.w3.org/1999/02/22-rdf-syntax-ns#"
   xmlns:svg="http://www.w3.org/2000/svg"
   xmlns="http://www.w3.org/2000/svg"
   id="svg15"
   height="112.9mm"
   width="112.9mm"
   version="1.0">
  <metadata
     id="metadata19">
    <rdf:RDF>
      <cc:Work
         rdf:about="">
        <dc:format>image/svg+xml</dc:format>
        <dc:type
           rdf:resource="http://purl.org/dc/dcmitype/StillImage" />
      </cc:Work>
    </rdf:RDF>
  </metadata>
  <defs
     id="defs3">
    <pattern
       y="0"
       x="0"
       height="6"
       width="6"
       patternUnits="userSpaceOnUse"
       id="EMFhbasepattern" />
  </defs>
  <path
     id="path5"
     d="  M 451.74134,451.72623   L 600.99177,451.72623   L 600.99177,643.62504   L 451.74134,643.62504   L 451.74134,451.72623   z "
     style="fill:none;stroke:#000000;stroke-width:5.3263254px;stroke-linecap:butt;stroke-linejoin:miter;stroke-miterlimit:112;stroke-dasharray:none;stroke-opacity:1;" />
  <path
     id="path7"
     d="  M 451.74134,644.72053   L 526.34767,744.90078   L 600.99177,644.72053  "
     style="fill:none;stroke:#000000;stroke-width:5.3263254px;stroke-linecap:butt;stroke-linejoin:miter;stroke-miterlimit:112;stroke-dasharray:none;stroke-opacity:1;" />
  <path
     id="path9"
     d="  M 467.41811,515.71768   L 467.41811,469.93395   L 487.74125,469.93395   C 491.82099,469.93395 494.91857,470.3117 497.03399,471.14276   C 499.14941,471.97382 500.8493,473.40928 502.13366,475.5247   C 503.38025,477.60235 504.02243,479.90664 504.02243,482.39982   C 504.02243,485.6485 502.96472,488.4061 500.88708,490.63484   C 498.77166,492.86359 495.52298,494.26128 491.14103,494.86568   C 492.7276,495.65897 493.93641,496.41447 494.80524,497.16998   C 496.54291,498.79432 498.2428,500.79642 499.82937,503.25181   L 507.76219,515.71768   L 500.16935,515.71768   L 494.08751,506.16052   C 492.31207,503.44069 490.87661,501.32527 489.74335,499.85203   C 488.57231,498.41657 487.55238,497.39663 486.64577,496.79223   C 485.73916,496.2256 484.83255,495.81007 483.88817,495.58342   C 483.20821,495.43232 482.07495,495.35676 480.52616,495.35676   L 473.49994,495.35676   L 473.49994,515.71768   L 467.41811,515.71768   z  M 473.49994,490.10599   L 486.49467,490.10599   C 489.29004,490.10599 491.44324,489.84156 492.99203,489.27493   C 494.57859,488.7083 495.74963,487.76392 496.58069,486.51733   C 497.37397,485.27074 497.7895,483.87306 497.7895,482.39982   C 497.7895,480.24662 496.99622,478.47118 495.40965,477.07349   C 493.86086,475.6758 491.36769,474.95807 487.9679,474.95807   L 473.49994,474.95807   L 473.49994,490.10599   z "
     style="fill:#000000;fill-rule:nonzero;fill-opacity:1;stroke:#000000;stroke-width:1.0577101px;stroke-linecap:butt;stroke-linejoin:miter;stroke-miterlimit:112;stroke-dasharray:none;stroke-opacity:1;" />
  <path
     id="path11"
     d="  M 511.31308,503.62957   L 516.9416,502.87406   C 517.58379,506.04719 518.67927,508.35149 520.22806,509.74918   C 521.77685,511.14686 523.66562,511.8646 525.89436,511.8646   C 528.53864,511.8646 530.76738,510.95799 532.5806,509.10699   C 534.43159,507.29378 535.3382,505.02726 535.3382,502.30743   C 535.3382,499.73871 534.46937,497.58551 532.80725,495.9234   C 531.10736,494.26128 528.95417,493.39245 526.34767,493.39245   C 525.28996,493.39245 523.96782,493.6191 522.38126,494.03463   L 523.02344,489.08606   C 523.40119,489.12383 523.70339,489.16161 523.93005,489.16161   C 526.30989,489.16161 528.46309,488.51942 530.38963,487.27284   C 532.31617,486.02625 533.26056,484.09971 533.26056,481.49321   C 533.26056,479.45334 532.5806,477.75345 531.18291,476.39354   C 529.78523,475.03362 527.97201,474.35367 525.78104,474.35367   C 523.59007,474.35367 521.77685,475.03362 520.30361,476.43131   C 518.83037,477.79122 517.92376,479.83109 517.50823,482.58869   L 511.87971,481.60653   C 512.55966,477.829 514.10845,474.9203 516.56385,472.84265   C 518.98147,470.76501 522.04128,469.74507 525.62994,469.74507   C 528.16089,469.74507 530.42741,470.27393 532.54283,471.33164   C 534.65825,472.42712 536.24481,473.86259 537.37807,475.71358   C 538.47356,477.56457 539.04019,479.52889 539.04019,481.64431   C 539.04019,483.60863 538.51133,485.42185 537.45362,487.04619   C 536.39591,488.67053 534.80935,489.95489 532.7317,490.89927   C 535.45153,491.54145 537.52917,492.82582 539.04019,494.79013   C 540.5512,496.75445 541.30671,499.20985 541.30671,502.1941   C 541.30671,506.16052 539.83347,509.5603 536.92477,512.35568   C 534.01607,515.11328 530.31408,516.51096 525.85659,516.51096   C 521.8524,516.51096 518.49039,515.30215 515.84612,512.92231   C 513.20184,510.54246 511.69083,507.44488 511.31308,503.62957   L 511.31308,503.62957   z "
     style="fill:#000000;fill-rule:nonzero;fill-opacity:1;stroke:#000000;stroke-width:1.0577101px;stroke-linecap:butt;stroke-linejoin:miter;stroke-miterlimit:112;stroke-dasharray:none;stroke-opacity:1;" />
  <path
     id="path13"
     d="  M 549.16398,515.71768   L 549.16398,469.93395   L 566.42732,469.93395   C 569.48713,469.93395 571.79142,470.04728 573.41576,470.34948   C 575.64451,470.72723 577.53328,471.44496 579.04429,472.50267   C 580.59308,473.56038 581.80189,475.03362 582.7085,476.92239   C 583.65289,478.81116 584.10619,480.8888 584.10619,483.15532   C 584.10619,487.04619 582.8596,490.33264 580.4042,493.05247   C 577.91103,495.73452 573.45354,497.09443 566.95618,497.09443   L 555.20804,497.09443   L 555.20804,515.71768   L 549.16398,515.71768   z  M 555.20804,491.69255   L 567.0695,491.69255   C 570.96037,491.69255 573.75574,490.97482 575.41786,489.50158   C 577.0422,488.02835 577.87326,485.98848 577.87326,483.3442   C 577.87326,481.41766 577.38218,479.79332 576.40002,478.4334   C 575.45563,477.07349 574.17127,476.16688 572.58471,475.71358   C 571.56477,475.44915 569.676,475.33583 566.9184,475.33583   L 555.20804,475.33583   L 555.20804,491.69255   z "
     style="fill:#000000;fill-rule:nonzero;fill-opacity:1;stroke:#000000;stroke-width:1.0577101px;stroke-linecap:butt;stroke-linejoin:miter;stroke-miterlimit:112;stroke-dasharray:none;stroke-opacity:1;" />
</svg>
