<?xml version="1.0" encoding="UTF-8" standalone="no"?>
<svg
   xmlns:dc="http://purl.org/dc/elements/1.1/"
   xmlns:cc="http://creativecommons.org/ns#"
   xmlns:rdf="http://www.w3.org/1999/02/22-rdf-syntax-ns#"
   xmlns:svg="http://www.w3.org/2000/svg"
   xmlns="http://www.w3.org/2000/svg"
   id="svg27"
   height="116.73mm"
   width="116.73mm"
   version="1.0">
  <metadata
     id="metadata31">
    <rdf:RDF>
      <cc:Work
         rdf:about="">
        <dc:format>image/svg+xml</dc:format>
        <dc:type
           rdf:resource="http://purl.org/dc/dcmitype/StillImage" />
      </cc:Work>
    </rdf:RDF>
  </metadata>
  <defs
     id="defs3">
    <pattern
       y="0"
       x="0"
       height="6"
       width="6"
       patternUnits="userSpaceOnUse"
       id="EMFhbasepattern" />
  </defs>
  <path
     id="path5"
     d="  M 220.57831,386.49156   L 220.57831,386.49156   L 386.49156,220.57831   L 220.57831,54.665059   L 54.665059,220.57831   L 220.57831,386.49156   z "
     style="fill:#ff8080;fill-rule:evenodd;fill-opacity:1;stroke:none;" />
  <path
     id="path7"
     d="  M 220.57831,386.49156   L 220.57831,386.49156   L 386.49156,220.57831   L 220.57831,54.665059   L 54.665059,220.57831   L 220.57831,386.49156  "
     style="fill:none;stroke:#000000;stroke-width:9.5903616px;stroke-linecap:butt;stroke-linejoin:miter;stroke-miterlimit:10;stroke-dasharray:none;stroke-opacity:1;" />
  <path
     id="path9"
     d="  M 170.70843,196.60241   C 170.70843,206.15281 162.99618,213.86506 153.44578,213.86506   C 143.93534,213.86506 136.18313,206.15281 136.18313,196.60241   C 136.18313,187.09197 143.93534,179.33976 153.44578,179.33976   C 162.99618,179.33976 170.70843,187.09197 170.70843,196.60241   z "
     style="fill:#000000;fill-rule:evenodd;fill-opacity:1;stroke:none;" />
  <path
     id="path11"
     d="  M 170.70843,196.60241   C 170.70843,206.15281 162.99618,213.86506 153.44578,213.86506   C 143.93534,213.86506 136.18313,206.15281 136.18313,196.60241   C 136.18313,187.09197 143.93534,179.33976 153.44578,179.33976   C 162.99618,179.33976 170.70843,187.09197 170.70843,196.60241  "
     style="fill:none;stroke:#000000;stroke-width:9.5903616px;stroke-linecap:butt;stroke-linejoin:miter;stroke-miterlimit:10;stroke-dasharray:none;stroke-opacity:1;" />
  <path
     id="path13"
     d="  M 304.97349,196.60241   C 304.97349,206.15281 297.26124,213.86506 287.71084,213.86506   C 278.2004,213.86506 270.44819,206.15281 270.44819,196.60241   C 270.44819,187.09197 278.2004,179.33976 287.71084,179.33976   C 297.26124,179.33976 304.97349,187.09197 304.97349,196.60241   z "
     style="fill:#000000;fill-rule:evenodd;fill-opacity:1;stroke:none;" />
  <path
     id="path15"
     d="  M 304.97349,196.60241   C 304.97349,206.15281 297.26124,213.86506 287.71084,213.86506   C 278.2004,213.86506 270.44819,206.15281 270.44819,196.60241   C 270.44819,187.09197 278.2004,179.33976 287.71084,179.33976   C 297.26124,179.33976 304.97349,187.09197 304.97349,196.60241  "
     style="fill:none;stroke:#000000;stroke-width:9.5903616px;stroke-linecap:butt;stroke-linejoin:miter;stroke-miterlimit:10;stroke-dasharray:none;stroke-opacity:1;" />
  <path
     id="path17"
     d="  M 163.03614,182.21686   C 220.57831,215.78313 230.16867,234.96385 254.14457,321.2771  "
     style="fill:none;stroke:#000000;stroke-width:9.5903616px;stroke-linecap:butt;stroke-linejoin:miter;stroke-miterlimit:10;stroke-dasharray:none;stroke-opacity:1;" />
  <path
     id="path19"
     d="  M 278.12048,182.21686   C 220.57831,215.78313 210.98795,234.96385 187.01205,321.2771  "
     style="fill:none;stroke:#000000;stroke-width:9.5903616px;stroke-linecap:butt;stroke-linejoin:miter;stroke-miterlimit:10;stroke-dasharray:none;stroke-opacity:1;" />
  <path
     id="path21"
     d="  M 169.7494,168.151   L 169.7494,126.95241   L 185.21385,126.95241   C 188.37068,126.95241 190.88815,127.39197 192.80622,128.23112   C 194.68433,129.03032 196.16285,130.34899 197.24176,132.06727   C 198.32068,133.78554 198.88012,135.62369 198.88012,137.50181   C 198.88012,139.26004 198.4006,140.93835 197.44156,142.45683   C 196.48253,144.01526 195.04397,145.29397 193.1259,146.25301   C 195.60341,146.97229 197.52148,148.21104 198.84016,149.96927   C 200.19879,151.72751 200.87811,153.80542 200.87811,156.20301   C 200.87811,158.16104 200.47851,159.91927 199.63935,161.59759   C 198.84016,163.23594 197.84116,164.51466 196.64237,165.43373   C 195.44357,166.31285 193.9251,166.99217 192.1269,167.47168   C 190.28875,167.91124 188.09096,168.151 185.45361,168.151   z  M 175.22389,144.25502   L 184.13494,144.25502   C 186.53253,144.25502 188.2508,144.09518 189.32972,143.7755   C 190.68835,143.3759 191.76727,142.69658 192.44658,141.73755   C 193.16586,140.77851 193.48554,139.57972 193.48554,138.14116   C 193.48554,136.78253 193.16586,135.58373 192.5265,134.54478   C 191.84719,133.50582 190.92811,132.78654 189.72931,132.38695   C 188.49056,132.02731 186.41265,131.82751 183.45562,131.82751   L 175.22389,131.82751   z  M 175.22389,163.2759   L 185.45361,163.2759   C 187.21184,163.2759 188.4506,163.23594 189.16988,163.0761   C 190.44859,162.8763 191.48755,162.51666 192.3267,161.95723   C 193.16586,161.43775 193.84518,160.67851 194.40462,159.67952   C 194.96405,158.68052 195.20381,157.52168 195.20381,156.20301   C 195.20381,154.68454 194.84417,153.3259 194.04498,152.20703   C 193.24578,151.08815 192.16686,150.28895 190.76827,149.80944   C 189.36968,149.36988 187.37168,149.13012 184.73433,149.13012   L 175.22389,149.13012   z "
     style="fill:#000000;fill-rule:evenodd;fill-opacity:1;stroke:none;" />
  <path
     id="path23"
     d="  M 320.31807,153.44578   L 120.83855,287.71084  "
     style="fill:none;stroke:#000000;stroke-width:9.5903616px;stroke-linecap:butt;stroke-linejoin:miter;stroke-miterlimit:10;stroke-dasharray:none;stroke-opacity:1;" />
  <path
     id="path25"
     d="  M 220.57831,57.542168   L 220.57831,383.61445  "
     style="fill:none;stroke:#000000;stroke-width:9.5903616px;stroke-linecap:butt;stroke-linejoin:miter;stroke-miterlimit:10;stroke-dasharray:none;stroke-opacity:1;" />
</svg>
