<?xml version="1.0" encoding="UTF-8" standalone="no"?>
<svg
   xmlns:dc="http://purl.org/dc/elements/1.1/"
   xmlns:cc="http://creativecommons.org/ns#"
   xmlns:rdf="http://www.w3.org/1999/02/22-rdf-syntax-ns#"
   xmlns:svg="http://www.w3.org/2000/svg"
   xmlns="http://www.w3.org/2000/svg"
   id="svg27"
   height="95.75mm"
   width="95.75mm"
   version="1.0">
  <metadata
     id="metadata31">
    <rdf:RDF>
      <cc:Work
         rdf:about="">
        <dc:format>image/svg+xml</dc:format>
        <dc:type
           rdf:resource="http://purl.org/dc/dcmitype/StillImage" />
      </cc:Work>
    </rdf:RDF>
  </metadata>
  <defs
     id="defs3">
    <pattern
       y="0"
       x="0"
       height="6"
       width="6"
       patternUnits="userSpaceOnUse"
       id="EMFhbasepattern" />
  </defs>
  <path
     id="path5"
     d="  M 54.345381,54.345381   L 54.345381,307.53092   L 307.53092,307.53092   L 307.53092,54.345381   L 54.345381,54.345381   z "
     style="fill:#aaffaa;fill-rule:evenodd;fill-opacity:1;stroke:none;" />
  <path
     id="path7"
     d="  M 54.345381,54.345381   L 307.53092,54.345381   L 307.53092,307.53092   L 54.345381,307.53092   z "
     style="fill:none;stroke:#000000;stroke-width:9.5903616px;stroke-linecap:butt;stroke-linejoin:miter;stroke-miterlimit:10;stroke-dasharray:none;stroke-opacity:1;" />
  <path
     id="path9"
     d="  M 131.06827,156.96225   C 131.06827,166.51265 123.35602,174.2249 113.80562,174.2249   C 104.29518,174.2249 96.54297,166.51265 96.54297,156.96225   C 96.54297,147.45181 104.29518,139.6996 113.80562,139.6996   C 123.35602,139.6996 131.06827,147.45181 131.06827,156.96225   z "
     style="fill:#000000;fill-rule:evenodd;fill-opacity:1;stroke:none;" />
  <path
     id="path11"
     d="  M 131.06827,156.96225   C 131.06827,166.51265 123.35602,174.2249 113.80562,174.2249   C 104.29518,174.2249 96.54297,166.51265 96.54297,156.96225   C 96.54297,147.45181 104.29518,139.6996 113.80562,139.6996   C 123.35602,139.6996 131.06827,147.45181 131.06827,156.96225  "
     style="fill:none;stroke:#000000;stroke-width:9.5903616px;stroke-linecap:butt;stroke-linejoin:miter;stroke-miterlimit:10;stroke-dasharray:none;stroke-opacity:1;" />
  <path
     id="path13"
     d="  M 265.33333,156.96225   C 265.33333,166.51265 257.62108,174.2249 248.07068,174.2249   C 238.56024,174.2249 230.80803,166.51265 230.80803,156.96225   C 230.80803,147.45181 238.56024,139.6996 248.07068,139.6996   C 257.62108,139.6996 265.33333,147.45181 265.33333,156.96225   z "
     style="fill:#000000;fill-rule:evenodd;fill-opacity:1;stroke:none;" />
  <path
     id="path15"
     d="  M 265.33333,156.96225   C 265.33333,166.51265 257.62108,174.2249 248.07068,174.2249   C 238.56024,174.2249 230.80803,166.51265 230.80803,156.96225   C 230.80803,147.45181 238.56024,139.6996 248.07068,139.6996   C 257.62108,139.6996 265.33333,147.45181 265.33333,156.96225  "
     style="fill:none;stroke:#000000;stroke-width:9.5903616px;stroke-linecap:butt;stroke-linejoin:miter;stroke-miterlimit:10;stroke-dasharray:none;stroke-opacity:1;" />
  <path
     id="path17"
     d="  M 123.39598,142.5767   C 180.93815,176.14297 190.52851,195.32369 214.50441,281.63694  "
     style="fill:none;stroke:#000000;stroke-width:9.5903616px;stroke-linecap:butt;stroke-linejoin:miter;stroke-miterlimit:10;stroke-dasharray:none;stroke-opacity:1;" />
  <path
     id="path19"
     d="  M 238.48032,142.5767   C 180.93815,176.14297 171.34779,195.32369 147.37189,281.63694  "
     style="fill:none;stroke:#000000;stroke-width:9.5903616px;stroke-linecap:butt;stroke-linejoin:miter;stroke-miterlimit:10;stroke-dasharray:none;stroke-opacity:1;" />
  <path
     id="path21"
     d="  M 130.10924,128.51084   L 130.10924,87.312248   L 145.57369,87.312248   C 148.73052,87.312248 151.24799,87.751806 153.16606,88.590963   C 155.04417,89.390159 156.52269,90.708834 157.6016,92.427107   C 158.68052,94.14538 159.23996,95.983533 159.23996,97.861645   C 159.23996,99.619878 158.76044,101.29819 157.8014,102.81667   C 156.84237,104.3751 155.40381,105.65381 153.48574,106.61285   C 155.96325,107.33213 157.88132,108.57088 159.2,110.32911   C 160.55863,112.08735 161.23795,114.16526 161.23795,116.56285   C 161.23795,118.52088 160.83835,120.27911 159.99919,121.95743   C 159.2,123.59578 158.201,124.8745 157.00221,125.79357   C 155.80341,126.67269 154.28494,127.35201 152.48674,127.83152   C 150.64859,128.27108 148.4508,128.51084 145.81345,128.51084   z  M 135.58373,104.61486   L 144.49478,104.61486   C 146.89237,104.61486 148.61064,104.45502 149.68956,104.13534   C 151.04819,103.73574 152.12711,103.05642 152.80642,102.09739   C 153.5257,101.13835 153.84538,99.939557 153.84538,98.501003   C 153.84538,97.142368 153.5257,95.943573 152.88634,94.904617   C 152.20703,93.865661 151.28795,93.146384 150.08915,92.746786   C 148.8504,92.387147 146.77249,92.187348 143.81546,92.187348   L 135.58373,92.187348   z  M 135.58373,123.63574   L 145.81345,123.63574   C 147.57168,123.63574 148.81044,123.59578 149.52972,123.43594   C 150.80843,123.23614 151.84739,122.8765 152.68654,122.31707   C 153.5257,121.79759 154.20502,121.03835 154.76446,120.03936   C 155.32389,119.04036 155.56365,117.88152 155.56365,116.56285   C 155.56365,115.04438 155.20401,113.68574 154.40482,112.56687   C 153.60562,111.44799 152.5267,110.64879 151.12811,110.16928   C 149.72952,109.72972 147.73152,109.48996 145.09417,109.48996   L 135.58373,109.48996   z "
     style="fill:#000000;fill-rule:evenodd;fill-opacity:1;stroke:none;" />
  <path
     id="path23"
     d="  M 307.53092,54.345381   L 54.345381,307.53092  "
     style="fill:none;stroke:#000000;stroke-width:9.5903616px;stroke-linecap:butt;stroke-linejoin:miter;stroke-miterlimit:10;stroke-dasharray:none;stroke-opacity:1;" />
  <path
     id="path25"
     d="  M 180.93815,54.345381   L 180.93815,307.53092  "
     style="fill:none;stroke:#000000;stroke-width:9.5903616px;stroke-linecap:butt;stroke-linejoin:miter;stroke-miterlimit:10;stroke-dasharray:none;stroke-opacity:1;" />
</svg>
