<?xml version="1.0" encoding="UTF-8" standalone="no"?>
<svg
   xmlns:dc="http://purl.org/dc/elements/1.1/"
   xmlns:cc="http://creativecommons.org/ns#"
   xmlns:rdf="http://www.w3.org/1999/02/22-rdf-syntax-ns#"
   xmlns:svg="http://www.w3.org/2000/svg"
   xmlns="http://www.w3.org/2000/svg"
   id="svg17"
   height="89.669998mm"
   width="120.11mm"
   version="1.0">
  <metadata
     id="metadata21">
    <rdf:RDF>
      <cc:Work
         rdf:about="">
        <dc:format>image/svg+xml</dc:format>
        <dc:type
           rdf:resource="http://purl.org/dc/dcmitype/StillImage" />
      </cc:Work>
    </rdf:RDF>
  </metadata>
  <defs
     id="defs3">
    <pattern
       y="0"
       x="0"
       height="6"
       width="6"
       patternUnits="userSpaceOnUse"
       id="EMFhbasepattern" />
  </defs>
  <path
     id="path5"
     d="  M 179.02008,15.983936   L 179.02008,54.345381   L 274.92369,54.345381   L 274.92369,15.983936   L 179.02008,15.983936   z "
     style="fill:#000000;fill-rule:evenodd;fill-opacity:1;stroke:none;" />
  <path
     id="path7"
     d="  M 54.345381,54.345381   L 54.345381,284.51405   L 399.59839,284.51405   L 399.59839,54.345381   L 54.345381,54.345381   z "
     style="fill:#80e0ff;fill-rule:evenodd;fill-opacity:1;stroke:none;" />
  <path
     id="path9"
     d="  M 54.345381,54.345381   L 399.59839,54.345381   L 399.59839,284.51405   L 54.345381,284.51405   z "
     style="fill:none;stroke:#000000;stroke-width:9.5903616px;stroke-linecap:butt;stroke-linejoin:miter;stroke-miterlimit:10;stroke-dasharray:none;stroke-opacity:1;" />
  <path
     id="path11"
     d="  M 134.58474,157.08213   L 134.58474,157.08213   L 170.46867,157.08213   L 170.46867,142.53674   L 134.58474,142.53674   z "
     style="fill:#000000;fill-rule:evenodd;fill-opacity:1;stroke:none;" />
  <path
     id="path13"
     d="  M 283.31526,157.08213   L 283.31526,157.08213   L 319.71867,157.08213   L 319.71867,142.53674   L 283.31526,142.53674   z "
     style="fill:#000000;fill-rule:evenodd;fill-opacity:1;stroke:none;" />
  <path
     id="path15"
     d="  M 218.62028,116.60281   L 238.08072,116.52289   C 240.35843,116.52289 243.79498,130.26907 243.79498,133.18614   L 247.31144,143.45582   C 247.43132,144.29498 252.14658,159.27992 252.14658,160.19899   L 252.14658,161.75743   L 205.59337,161.71747   z  M 170.98815,116.52289   L 197.72128,116.60281   L 189.20984,143.5757   C 189.20984,147.73152 184.53454,157.24197 184.53454,160.19899   L 184.53454,161.75743   L 134.58474,161.75743   L 134.58474,178.94016   L 179.06004,179.02008   L 176.18293,186.21285   L 175.98313,188.21084   L 169.82931,208.1508   L 161.11807,235.60321   C 163.91526,235.60321 183.3757,235.96285 184.33474,235.44337   C 184.81425,235.16365 189.12992,219.0998 189.88915,217.06184   C 190.96807,214.0249 200.63835,180.93815 200.63835,180.49859   L 200.63835,178.94016   L 256.94176,179.06004   L 272.9257,235.60321   L 296.58192,235.68313   L 293.10542,224.33453   L 291.4271,218.02088   L 285.67289,199.31968   L 283.59498,192.5265   L 279.67891,178.94016   L 317.64076,178.94016   L 317.64076,161.75743   L 274.04457,161.75743   L 267.21144,140.45883   L 266.8518,138.46084   L 264.49417,131.26807   L 260.45823,116.52289   L 285.91265,116.52289   L 285.91265,99.380119   L 170.98815,99.380119   L 170.98815,116.52289   L 170.98815,116.52289   z "
     style="fill:#000000;fill-rule:evenodd;fill-opacity:1;stroke:none;" />
</svg>
