<?xml version="1.0" encoding="UTF-8" standalone="no"?>
<svg
   xmlns:dc="http://purl.org/dc/elements/1.1/"
   xmlns:cc="http://creativecommons.org/ns#"
   xmlns:rdf="http://www.w3.org/1999/02/22-rdf-syntax-ns#"
   xmlns:svg="http://www.w3.org/2000/svg"
   xmlns="http://www.w3.org/2000/svg"
   id="svg17"
   height="116.73mm"
   width="116.73mm"
   version="1.0">
  <metadata
     id="metadata21">
    <rdf:RDF>
      <cc:Work
         rdf:about="">
        <dc:format>image/svg+xml</dc:format>
        <dc:type
           rdf:resource="http://purl.org/dc/dcmitype/StillImage" />
      </cc:Work>
    </rdf:RDF>
  </metadata>
  <defs
     id="defs3">
    <pattern
       y="0"
       x="0"
       height="6"
       width="6"
       patternUnits="userSpaceOnUse"
       id="EMFhbasepattern" />
  </defs>
  <path
     id="path5"
     d="  M 220.57831,386.49156   L 220.57831,386.49156   L 386.49156,220.57831   L 220.57831,54.665059   L 54.665059,220.57831   L 220.57831,386.49156   z "
     style="fill:#ff8080;fill-rule:evenodd;fill-opacity:1;stroke:none;" />
  <path
     id="path7"
     d="  M 220.57831,386.49156   L 220.57831,386.49156   L 386.49156,220.57831   L 220.57831,54.665059   L 54.665059,220.57831   L 220.57831,386.49156  "
     style="fill:none;stroke:#000000;stroke-width:9.5903616px;stroke-linecap:butt;stroke-linejoin:miter;stroke-miterlimit:10;stroke-dasharray:none;stroke-opacity:1;" />
  <path
     id="path9"
     d="  M 204.43454,166.75241   L 192.60642,122.11727   L 198.64036,122.11727   L 205.43353,151.36787   C 206.15281,154.44478 206.79217,157.48172 207.31164,160.51867   C 208.47048,155.72349 209.10984,152.96626 209.30964,152.24699   L 217.82108,122.11727   L 224.93393,122.11727   L 231.32751,144.69458   C 232.9259,150.28895 234.08474,155.56365 234.80401,160.51867   C 235.36345,157.68152 236.12269,154.44478 237.04176,150.80843   L 244.03474,122.11727   L 249.94879,122.11727   L 237.72108,166.75241   L 232.04678,166.75241   L 222.61626,132.74658   C 221.85702,129.90944 221.37751,128.1512 221.21767,127.51185   C 220.77811,129.5498 220.33855,131.30803 219.93895,132.74658   L 210.46847,166.75241   z "
     style="fill:#000000;fill-rule:evenodd;fill-opacity:1;stroke:none;" />
  <path
     id="path11"
     d="  M 239.75903,201.39759   C 239.75903,212.0269 231.20763,220.57831 220.57831,220.57831   C 209.98895,220.57831 201.39759,212.0269 201.39759,201.39759   C 201.39759,190.80823 209.98895,182.21686 220.57831,182.21686   C 231.20763,182.21686 239.75903,190.80823 239.75903,201.39759  "
     style="fill:none;stroke:#000000;stroke-width:9.5903616px;stroke-linecap:butt;stroke-linejoin:miter;stroke-miterlimit:10;stroke-dasharray:none;stroke-opacity:1;" />
  <path
     id="path13"
     d="  M 220.57831,220.57831   L 220.57831,326.07228  "
     style="fill:none;stroke:#000000;stroke-width:9.5903616px;stroke-linecap:butt;stroke-linejoin:miter;stroke-miterlimit:10;stroke-dasharray:none;stroke-opacity:1;" />
  <path
     id="path15"
     d="  M 191.80723,249.34939   L 249.34939,249.34939  "
     style="fill:none;stroke:#000000;stroke-width:9.5903616px;stroke-linecap:butt;stroke-linejoin:miter;stroke-miterlimit:10;stroke-dasharray:none;stroke-opacity:1;" />
</svg>
