<?xml version="1.0" encoding="UTF-8" standalone="no"?>
<svg
   xmlns:dc="http://purl.org/dc/elements/1.1/"
   xmlns:cc="http://creativecommons.org/ns#"
   xmlns:rdf="http://www.w3.org/1999/02/22-rdf-syntax-ns#"
   xmlns:svg="http://www.w3.org/2000/svg"
   xmlns="http://www.w3.org/2000/svg"
   id="svg17"
   height="130.27mm"
   width="130.27mm"
   version="1.0">
  <metadata
     id="metadata21">
    <rdf:RDF>
      <cc:Work
         rdf:about="">
        <dc:format>image/svg+xml</dc:format>
        <dc:type
           rdf:resource="http://purl.org/dc/dcmitype/StillImage" />
      </cc:Work>
    </rdf:RDF>
  </metadata>
  <defs
     id="defs3">
    <pattern
       y="0"
       x="0"
       height="6"
       width="6"
       patternUnits="userSpaceOnUse"
       id="EMFhbasepattern" />
  </defs>
  <path
     id="path5"
     d="  M 198.2008,63.935742   L 198.2008,111.88755   L 294.10441,111.88755   L 294.10441,63.935742   L 198.2008,63.935742   z "
     style="fill:#000000;fill-rule:evenodd;fill-opacity:1;stroke:none;" />
  <path
     id="path7"
     d="  M 164.63454,327.67068   C 164.63454,437.95983 327.67068,437.95983 327.67068,327.67068   C 437.95983,327.67068 437.95983,164.63454 327.67068,164.63454   C 327.67068,54.345381 164.63454,54.345381 164.63454,164.63454   C 54.345381,164.63454 54.345381,327.67068 164.63454,327.67068   z "
     style="fill:#ffff80;fill-rule:evenodd;fill-opacity:1;stroke:none;" />
  <path
     id="path9"
     d="  M 164.63454,327.67068   C 164.63454,437.95983 327.67068,437.95983 327.67068,327.67068   C 437.95983,327.67068 437.95983,164.63454 327.67068,164.63454   C 327.67068,54.345381 164.63454,54.345381 164.63454,164.63454   C 54.345381,164.63454 54.345381,327.67068 164.63454,327.67068  "
     style="fill:none;stroke:#000000;stroke-width:9.5903616px;stroke-linecap:butt;stroke-linejoin:miter;stroke-miterlimit:10;stroke-dasharray:none;stroke-opacity:1;" />
  <path
     id="path11"
     d="  M 153.76546,233.80502   L 153.76546,233.80502   L 189.64939,233.80502   L 189.64939,219.25964   L 153.76546,219.25964   z "
     style="fill:#000000;fill-rule:evenodd;fill-opacity:1;stroke:none;" />
  <path
     id="path13"
     d="  M 302.49598,233.80502   L 302.49598,233.80502   L 338.89939,233.80502   L 338.89939,219.25964   L 302.49598,219.25964   z "
     style="fill:#000000;fill-rule:evenodd;fill-opacity:1;stroke:none;" />
  <path
     id="path15"
     d="  M 237.801,193.3257   L 257.26144,193.24578   C 259.53915,193.24578 262.9757,206.99196 262.9757,209.90903   L 266.49216,220.17871   C 266.61204,221.01787 271.32731,236.00281 271.32731,236.92188   L 271.32731,238.48032   L 224.77409,238.44036   z  M 190.16887,193.24578   L 216.902,193.3257   L 208.39056,220.29859   C 208.39056,224.45441 203.71526,233.96486 203.71526,236.92188   L 203.71526,238.48032   L 153.76546,238.48032   L 153.76546,255.66305   L 198.24076,255.74297   L 195.36365,262.93574   L 195.16385,264.93373   L 189.01004,284.87369   L 180.29879,312.3261   C 183.09598,312.3261 202.55642,312.68574 203.51546,312.16626   C 203.99498,311.88654 208.31064,295.82269 209.06988,293.78473   C 210.14879,290.74779 219.81907,257.66104 219.81907,257.22148   L 219.81907,255.66305   L 276.12249,255.78293   L 292.10642,312.3261   L 315.76265,312.40602   L 312.28614,301.05743   L 310.60783,294.74377   L 304.85361,276.04257   L 302.7757,269.24939   L 298.85963,255.66305   L 336.82148,255.66305   L 336.82148,238.48032   L 293.2253,238.48032   L 286.39216,217.18172   L 286.03253,215.18373   L 283.6749,207.99096   L 279.63895,193.24578   L 305.09337,193.24578   L 305.09337,176.10301   L 190.16887,176.10301   L 190.16887,193.24578   L 190.16887,193.24578   z "
     style="fill:#000000;fill-rule:evenodd;fill-opacity:1;stroke:none;" />
</svg>
