<?xml version="1.0" encoding="UTF-8" standalone="no"?>
<svg
   xmlns:dc="http://purl.org/dc/elements/1.1/"
   xmlns:cc="http://creativecommons.org/ns#"
   xmlns:rdf="http://www.w3.org/1999/02/22-rdf-syntax-ns#"
   xmlns:svg="http://www.w3.org/2000/svg"
   xmlns="http://www.w3.org/2000/svg"
   id="svg17"
   height="89.669998mm"
   width="120.11mm"
   version="1.0">
  <metadata
     id="metadata21">
    <rdf:RDF>
      <cc:Work
         rdf:about="">
        <dc:format>image/svg+xml</dc:format>
        <dc:type
           rdf:resource="http://purl.org/dc/dcmitype/StillImage" />
      </cc:Work>
    </rdf:RDF>
  </metadata>
  <defs
     id="defs3">
    <pattern
       y="0"
       x="0"
       height="6"
       width="6"
       patternUnits="userSpaceOnUse"
       id="EMFhbasepattern" />
  </defs>
  <path
     id="path5"
     d="  M 54.345381,54.345381   L 54.345381,284.51405   L 399.59839,284.51405   L 399.59839,54.345381   L 54.345381,54.345381   z "
     style="fill:#80e0ff;fill-rule:evenodd;fill-opacity:1;stroke:none;" />
  <path
     id="path7"
     d="  M 54.345381,54.345381   L 399.59839,54.345381   L 399.59839,284.51405   L 54.345381,284.51405   z "
     style="fill:none;stroke:#000000;stroke-width:9.5903616px;stroke-linecap:butt;stroke-linejoin:miter;stroke-miterlimit:10;stroke-dasharray:none;stroke-opacity:1;" />
  <path
     id="path9"
     d="  M 210.82811,115.60381   L 199,70.968674   L 205.03393,70.968674   L 211.82711,100.21928   C 212.54638,103.29618 213.18574,106.33313 213.70522,109.37008   C 214.86405,104.5749 215.50341,101.81767 215.70321,101.09839   L 224.21466,70.968674   L 231.32751,70.968674   L 237.72108,93.545983   C 239.31947,99.14036 240.47831,104.41506 241.19759,109.37008   C 241.75702,106.53293 242.51626,103.29618 243.43534,99.659838   L 250.42831,70.968674   L 256.34237,70.968674   L 244.11466,115.60381   L 238.44036,115.60381   L 229.00984,81.597991   C 228.2506,78.760842 227.77108,77.002609 227.61124,76.363252   C 227.17168,78.401204 226.73213,80.159437 226.33253,81.597991   L 216.86205,115.60381   z "
     style="fill:#000000;fill-rule:evenodd;fill-opacity:1;stroke:none;" />
  <path
     id="path11"
     d="  M 246.15261,150.24899   C 246.15261,160.87831 237.6012,169.42972 226.97188,169.42972   C 216.38253,169.42972 207.79116,160.87831 207.79116,150.24899   C 207.79116,139.65964 216.38253,131.06827 226.97188,131.06827   C 237.6012,131.06827 246.15261,139.65964 246.15261,150.24899  "
     style="fill:none;stroke:#000000;stroke-width:9.5903616px;stroke-linecap:butt;stroke-linejoin:miter;stroke-miterlimit:10;stroke-dasharray:none;stroke-opacity:1;" />
  <path
     id="path13"
     d="  M 226.97188,169.42972   L 226.97188,274.92369  "
     style="fill:none;stroke:#000000;stroke-width:9.5903616px;stroke-linecap:butt;stroke-linejoin:miter;stroke-miterlimit:10;stroke-dasharray:none;stroke-opacity:1;" />
  <path
     id="path15"
     d="  M 198.2008,198.2008   L 255.74297,198.2008  "
     style="fill:none;stroke:#000000;stroke-width:9.5903616px;stroke-linecap:butt;stroke-linejoin:miter;stroke-miterlimit:10;stroke-dasharray:none;stroke-opacity:1;" />
</svg>
