<?xml version="1.0" encoding="UTF-8" standalone="no"?>
<svg
   xmlns:dc="http://purl.org/dc/elements/1.1/"
   xmlns:cc="http://creativecommons.org/ns#"
   xmlns:rdf="http://www.w3.org/1999/02/22-rdf-syntax-ns#"
   xmlns:svg="http://www.w3.org/2000/svg"
   xmlns="http://www.w3.org/2000/svg"
   id="svg11"
   height="112.9mm"
   width="112.9mm"
   version="1.0">
  <metadata
     id="metadata15">
    <rdf:RDF>
      <cc:Work
         rdf:about="">
        <dc:format>image/svg+xml</dc:format>
        <dc:type
           rdf:resource="http://purl.org/dc/dcmitype/StillImage" />
      </cc:Work>
    </rdf:RDF>
  </metadata>
  <defs
     id="defs3">
    <pattern
       y="0"
       x="0"
       height="6"
       width="6"
       patternUnits="userSpaceOnUse"
       id="EMFhbasepattern" />
  </defs>
  <ellipse
     id="ellipse5"
     ry="58.060289"
     rx="58.060289"
     cy="1690.8091"
     cx="1690.8091"
     style="fill:#ff0000;fill-rule:nonzero;fill-opacity:1;stroke:#ff0000;stroke-width:1.0573581px;stroke-linecap:butt;stroke-linejoin:miter;stroke-miterlimit:282;stroke-dasharray:none;stroke-opacity:1;" />
  <path
     id="path7"
     d="  M 1504.884,1504.884   L 1876.7719,1504.884   L 1876.7719,1876.7719   L 1504.884,1876.7719   z "
     style="fill:none;stroke:#ff0000;stroke-width:8.4966278px;stroke-linecap:butt;stroke-linejoin:miter;stroke-miterlimit:282;stroke-dasharray:none;stroke-opacity:1;" />
  <path
     id="path9"
     d="  M 1656.9169,1856.5688   L 1632.5977,1765.0318   L 1645.0217,1765.0318   L 1658.9561,1825.0369   C 1660.4666,1831.3055 1661.7506,1837.5741 1662.8457,1843.7672   C 1665.1492,1833.9867 1666.5465,1828.36 1666.9618,1826.8495   L 1684.3705,1765.0318   L 1698.9847,1765.0318   L 1712.0884,1811.3668   C 1715.4115,1822.8466 1717.7528,1833.6468 1719.2255,1843.7672   C 1720.3962,1837.9895 1721.9067,1831.3433 1723.7948,1823.8285   L 1738.1447,1765.0318   L 1750.3043,1765.0318   L 1725.2298,1856.5688   L 1713.5234,1856.5688   L 1694.2643,1786.8209   C 1692.6405,1781.0055 1691.6587,1777.418 1691.3566,1776.0585   C 1690.4125,1780.288 1689.5062,1783.8754 1688.6755,1786.8209   L 1669.2654,1856.5688   z "
     style="fill:#ff0000;fill-rule:nonzero;fill-opacity:1;stroke:#ff0000;stroke-width:1.0573581px;stroke-linecap:butt;stroke-linejoin:miter;stroke-miterlimit:282;stroke-dasharray:none;stroke-opacity:1;" />
</svg>
