<?xml version="1.0" encoding="UTF-8" standalone="no"?>
<svg
   xmlns:dc="http://purl.org/dc/elements/1.1/"
   xmlns:cc="http://creativecommons.org/ns#"
   xmlns:rdf="http://www.w3.org/1999/02/22-rdf-syntax-ns#"
   xmlns:svg="http://www.w3.org/2000/svg"
   xmlns="http://www.w3.org/2000/svg"
   id="svg11"
   height="112.9mm"
   width="112.9mm"
   version="1.0">
  <metadata
     id="metadata15">
    <rdf:RDF>
      <cc:Work
         rdf:about="">
        <dc:format>image/svg+xml</dc:format>
        <dc:type
           rdf:resource="http://purl.org/dc/dcmitype/StillImage" />
      </cc:Work>
    </rdf:RDF>
  </metadata>
  <defs
     id="defs3">
    <pattern
       y="0"
       x="0"
       height="6"
       width="6"
       patternUnits="userSpaceOnUse"
       id="EMFhbasepattern" />
  </defs>
  <ellipse
     id="ellipse5"
     ry="58.060289"
     rx="58.060289"
     cy="1690.8091"
     cx="1690.8091"
     style="fill:#00ff00;fill-rule:nonzero;fill-opacity:1;stroke:#00ff00;stroke-width:1.0573581px;stroke-linecap:butt;stroke-linejoin:miter;stroke-miterlimit:282;stroke-dasharray:none;stroke-opacity:1;" />
  <path
     id="path7"
     d="  M 1504.884,1504.884   L 1876.7719,1504.884   L 1876.7719,1876.7719   L 1504.884,1876.7719   z "
     style="fill:none;stroke:#00ff00;stroke-width:8.4966278px;stroke-linecap:butt;stroke-linejoin:miter;stroke-miterlimit:282;stroke-dasharray:none;stroke-opacity:1;" />
  <path
     id="path9"
     d="  M 1720.3584,1824.4704   L 1732.4803,1827.5292   C 1729.9124,1837.4986 1725.3431,1845.0512 1718.7724,1850.3002   C 1712.1639,1855.5115 1704.0827,1858.1171 1694.5664,1858.1171   C 1684.7104,1858.1171 1676.6669,1856.1157 1670.4738,1852.1128   C 1664.3185,1848.0722 1659.5981,1842.2567 1656.3883,1834.6664   C 1653.1407,1827.0383 1651.5169,1818.8438 1651.5169,1810.1206   C 1651.5169,1800.5666 1653.3672,1792.2588 1656.9925,1785.1594   C 1660.6555,1778.06 1665.829,1772.6599 1672.5507,1768.9969   C 1679.2725,1765.2962 1686.674,1763.4458 1694.7553,1763.4458   C 1703.8939,1763.4458 1711.5975,1765.7871 1717.8661,1770.4697   C 1724.0969,1775.1145 1728.4397,1781.6852 1730.8943,1790.1441   L 1718.9612,1792.9385   C 1716.8465,1786.2923 1713.7877,1781.4209 1709.7471,1778.3998   C 1705.7065,1775.3411 1700.6085,1773.8305 1694.4909,1773.8305   C 1687.467,1773.8305 1681.576,1775.5299 1676.8557,1778.8908   C 1672.1354,1782.2516 1668.8122,1786.7832 1666.8863,1792.4854   C 1664.9982,1798.1498 1664.0164,1804.003 1664.0164,1810.0451   C 1664.0164,1817.8242 1665.1492,1824.6215 1667.415,1830.437   C 1669.6808,1836.2524 1673.2305,1840.5952 1678.0263,1843.4651   C 1682.7845,1846.3351 1687.9957,1847.7701 1693.5469,1847.7701   C 1700.3442,1847.7701 1706.0841,1845.8064 1710.8044,1841.8791   C 1715.487,1837.9895 1718.6969,1832.1741 1720.3584,1824.4704   z "
     style="fill:#00ff00;fill-rule:nonzero;fill-opacity:1;stroke:#00ff00;stroke-width:1.0573581px;stroke-linecap:butt;stroke-linejoin:miter;stroke-miterlimit:282;stroke-dasharray:none;stroke-opacity:1;" />
</svg>
