<?xml version="1.0" encoding="UTF-8" standalone="no"?>
<svg
   xmlns:dc="http://purl.org/dc/elements/1.1/"
   xmlns:cc="http://creativecommons.org/ns#"
   xmlns:rdf="http://www.w3.org/1999/02/22-rdf-syntax-ns#"
   xmlns:svg="http://www.w3.org/2000/svg"
   xmlns="http://www.w3.org/2000/svg"
   id="svg15"
   height="112.9mm"
   width="112.9mm"
   version="1.0">
  <metadata
     id="metadata19">
    <rdf:RDF>
      <cc:Work
         rdf:about="">
        <dc:format>image/svg+xml</dc:format>
        <dc:type
           rdf:resource="http://purl.org/dc/dcmitype/StillImage" />
      </cc:Work>
    </rdf:RDF>
  </metadata>
  <defs
     id="defs3">
    <pattern
       y="0"
       x="0"
       height="6"
       width="6"
       patternUnits="userSpaceOnUse"
       id="EMFhbasepattern" />
  </defs>
  <path
     id="path5"
     d="  M 1055.3824,1055.5085   L 1203.488,1055.5085   L 1203.488,1246.2484   L 1055.3824,1246.2484   z "
     style="fill:none;stroke:#00ff00;stroke-width:5.3245535px;stroke-linecap:butt;stroke-linejoin:miter;stroke-miterlimit:282;stroke-dasharray:none;stroke-opacity:1;" />
  <path
     id="path7"
     d="  M 1055.3824,1248.4386   L 1129.9639,1348.5855   L 1204.5832,1248.4386  "
     style="fill:none;stroke:#00ff00;stroke-width:5.3245535px;stroke-linecap:butt;stroke-linejoin:miter;stroke-miterlimit:282;stroke-dasharray:none;stroke-opacity:1;" />
  <path
     id="path9"
     d="  M 1060.4048,1119.4787   L 1060.4048,1073.7102   L 1080.6835,1073.7102   C 1084.7618,1073.7102 1087.8961,1074.0878 1090.0109,1074.9186   C 1092.1256,1075.7494 1093.8249,1077.1844 1095.1088,1079.2991   C 1096.355,1081.376 1096.997,1083.6796 1096.997,1086.1719   C 1096.997,1089.4195 1095.9396,1092.1762 1093.8627,1094.4042   C 1091.748,1096.6322 1088.5004,1098.0294 1084.1199,1098.6336   C 1085.7059,1099.4266 1086.9143,1100.1819 1087.7451,1100.9372   C 1089.5199,1102.561 1091.2193,1104.5624 1092.7675,1107.017   L 1100.7355,1119.4787   L 1093.1452,1119.4787   L 1087.0654,1109.9247   C 1085.2905,1107.2058 1083.8555,1105.0911 1082.6849,1103.6183   C 1081.552,1102.1833 1080.5324,1101.1637 1079.6261,1100.5595   C 1078.7198,1099.9931 1077.8135,1099.5777 1076.8694,1099.3511   C 1076.1897,1099.2001 1075.0568,1099.1245 1073.4708,1099.1245   L 1066.4469,1099.1245   L 1066.4469,1119.4787   z  M 1066.4469,1093.8755   L 1079.475,1093.8755   C 1082.2695,1093.8755 1084.422,1093.6112 1085.9702,1093.0447   C 1087.5563,1092.4783 1088.7269,1091.5342 1089.5199,1090.2881   C 1090.3507,1089.0419 1090.7661,1087.6447 1090.7661,1086.1719   C 1090.7661,1084.0194 1089.9731,1082.2446 1088.3871,1080.8474   C 1086.8388,1079.4501 1084.3464,1078.7326 1080.9478,1078.7326   L 1066.4469,1078.7326   z "
     style="fill:#00ff00;fill-rule:nonzero;fill-opacity:1;stroke:#00ff00;stroke-width:1.0573581px;stroke-linecap:butt;stroke-linejoin:miter;stroke-miterlimit:282;stroke-dasharray:none;stroke-opacity:1;" />
  <path
     id="path11"
     d="  M 1104.6628,1097.1609   C 1104.6628,1089.5706 1106.702,1083.6418 1110.7804,1079.3368   C 1114.8965,1075.0319 1120.1456,1072.8794 1126.603,1072.8794   C 1130.8324,1072.8794 1134.6465,1073.899 1138.0074,1075.9004   C 1141.406,1077.9396 1144.0117,1080.7341 1145.7865,1084.3593   C 1147.5614,1087.9845 1148.4677,1092.0629 1148.4677,1096.6322   C 1148.4677,1101.277 1147.5236,1105.4309 1145.6355,1109.0939   C 1143.7851,1112.7569 1141.1039,1115.5514 1137.6675,1117.4395   C 1134.2311,1119.2899 1130.5303,1120.2339 1126.5652,1120.2339   C 1122.2603,1120.2339 1118.4085,1119.2143 1115.0098,1117.1374   C 1111.6112,1115.0604 1109.0433,1112.1905 1107.3062,1108.603   C 1105.5691,1105.0155 1104.6628,1101.2015 1104.6628,1097.1609   z  M 1110.9314,1097.2742   C 1110.9314,1102.7875 1112.4042,1107.1303 1115.3875,1110.3023   C 1118.333,1113.4744 1122.0715,1115.0604 1126.5275,1115.0604   C 1131.0968,1115.0604 1134.8353,1113.4744 1137.7808,1110.2646   C 1140.7263,1107.0547 1142.199,1102.4854 1142.199,1096.5944   C 1142.199,1092.8937 1141.5948,1089.6461 1140.3109,1086.8516   C 1139.0647,1084.0572 1137.2143,1081.9047 1134.7975,1080.3942   C 1132.3807,1078.8459 1129.6618,1078.0907 1126.6408,1078.0907   C 1122.3358,1078.0907 1118.6351,1079.5634 1115.5763,1082.5089   C 1112.4797,1085.4544 1110.9314,1090.3636 1110.9314,1097.2742   z "
     style="fill:#00ff00;fill-rule:nonzero;fill-opacity:1;stroke:#00ff00;stroke-width:1.0573581px;stroke-linecap:butt;stroke-linejoin:miter;stroke-miterlimit:282;stroke-dasharray:none;stroke-opacity:1;" />
  <path
     id="path13"
     d="  M 1156.058,1119.4787   L 1156.058,1073.7102   L 1165.1588,1073.7102   L 1175.9967,1106.1107   C 1176.9786,1109.1317 1177.7338,1111.3975 1178.187,1112.8702   C 1178.7157,1111.2086 1179.5087,1108.7541 1180.6038,1105.5442   L 1191.555,1073.7102   L 1199.7118,1073.7102   L 1199.7118,1119.4787   L 1193.8963,1119.4787   L 1193.8963,1081.1495   L 1180.566,1119.4787   L 1175.1282,1119.4787   L 1161.8735,1080.5075   L 1161.8735,1119.4787   z "
     style="fill:#00ff00;fill-rule:nonzero;fill-opacity:1;stroke:#00ff00;stroke-width:1.0573581px;stroke-linecap:butt;stroke-linejoin:miter;stroke-miterlimit:282;stroke-dasharray:none;stroke-opacity:1;" />
</svg>
