<?xml version="1.0" encoding="UTF-8" standalone="no"?>
<svg
   xmlns:dc="http://purl.org/dc/elements/1.1/"
   xmlns:cc="http://creativecommons.org/ns#"
   xmlns:rdf="http://www.w3.org/1999/02/22-rdf-syntax-ns#"
   xmlns:svg="http://www.w3.org/2000/svg"
   xmlns="http://www.w3.org/2000/svg"
   id="svg15"
   height="112.9mm"
   width="112.9mm"
   version="1.0">
  <metadata
     id="metadata19">
    <rdf:RDF>
      <cc:Work
         rdf:about="">
        <dc:format>image/svg+xml</dc:format>
        <dc:type
           rdf:resource="http://purl.org/dc/dcmitype/StillImage" />
      </cc:Work>
    </rdf:RDF>
  </metadata>
  <defs
     id="defs3">
    <pattern
       y="0"
       x="0"
       height="6"
       width="6"
       patternUnits="userSpaceOnUse"
       id="EMFhbasepattern" />
  </defs>
  <path
     id="path5"
     d="  M 391.92062,391.38808   L 541.15652,391.38808   L 541.15652,583.2682   L 391.92062,583.2682   L 391.92062,391.38808   z "
     style="fill:none;stroke:#ff0000;stroke-width:5.3258066px;stroke-linecap:butt;stroke-linejoin:miter;stroke-miterlimit:112;stroke-dasharray:none;stroke-opacity:1;" />
  <path
     id="path7"
     d="  M 391.92062,584.36358   L 466.51969,684.53407   L 541.15652,584.36358  "
     style="fill:none;stroke:#ff0000;stroke-width:5.3258066px;stroke-linecap:butt;stroke-linejoin:miter;stroke-miterlimit:112;stroke-dasharray:none;stroke-opacity:1;" />
  <path
     id="path9"
     d="  M 396.94425,455.3733   L 396.94425,409.59403   L 417.22764,409.59403   C 421.30699,409.59403 424.44204,409.97174 426.55725,410.80272   C 428.67246,411.6337 430.37219,413.06902 431.65643,415.18423   C 432.90289,417.26168 433.54501,419.56575 433.54501,422.05868   C 433.54501,425.30704 432.4874,428.06438 430.40996,430.29291   C 428.29475,432.52143 425.04638,433.91899 420.66487,434.52333   C 422.25128,435.31654 423.45997,436.07197 424.29095,436.82741   C 426.06622,438.45159 427.76594,440.45349 429.31458,442.90865   L 437.28441,455.3733   L 429.6923,455.3733   L 423.61106,445.81706   C 421.83579,443.0975 420.40047,440.98229 419.22954,439.50919   C 418.09639,438.07387 417.07656,437.05404 416.17004,436.44969   C 415.26352,435.88311 414.357,435.46763 413.41271,435.24099   C 412.73282,435.08991 411.59966,435.01436 410.01325,435.01436   L 402.98772,435.01436   L 402.98772,455.3733   L 396.94425,455.3733   z  M 402.98772,429.7641   L 416.01895,429.7641   C 418.81406,429.7641 420.96704,429.4997 422.51568,428.93312   C 424.10209,428.36655 425.27301,427.42226 426.06622,426.17579   C 426.89719,424.92933 427.31268,423.53177 427.31268,422.05868   C 427.31268,419.90569 426.51948,418.13042 424.93307,416.73287   C 423.38443,415.33532 420.8915,414.61766 417.49205,414.61766   L 402.98772,414.61766   L 402.98772,429.7641   z "
     style="fill:#ff0000;fill-rule:nonzero;fill-opacity:1;stroke:#ff0000;stroke-width:1.0576069px;stroke-linecap:butt;stroke-linejoin:miter;stroke-miterlimit:112;stroke-dasharray:none;stroke-opacity:1;" />
  <path
     id="path11"
     d="  M 441.21266,433.05024   C 441.21266,425.45813 443.25233,419.52798 447.33167,415.22201   C 451.44879,410.91603 456.69905,408.76305 463.15801,408.76305   C 467.38843,408.76305 471.20337,409.78288 474.56505,411.78478   C 477.9645,413.82445 480.57075,416.61956 482.34602,420.24564   C 484.12129,423.87172 485.02781,427.95106 485.02781,432.52143   C 485.02781,437.16735 484.08352,441.32224 482.19493,444.98609   C 480.34412,448.64994 477.66233,451.44504 474.22511,453.33363   C 470.78788,455.18444 467.08626,456.12873 463.12023,456.12873   C 458.81426,456.12873 454.96155,455.1089 451.5621,453.03146   C 448.16265,450.95401 445.59418,448.08337 443.85668,444.49506   C 442.11918,440.90675 441.21266,437.09181 441.21266,433.05024   L 441.21266,433.05024   z  M 447.48276,433.16355   C 447.48276,438.67822 448.95585,443.02196 451.93982,446.19478   C 454.88601,449.3676 458.6254,450.95401 463.08246,450.95401   C 467.65284,450.95401 471.39223,449.3676 474.33842,446.15701   C 477.28461,442.94642 478.75771,438.37604 478.75771,432.48366   C 478.75771,428.78204 478.15336,425.53367 476.86912,422.73857   C 475.62266,419.94347 473.77185,417.79048 471.35446,416.27961   C 468.93707,414.73097 466.21751,413.97554 463.19578,413.97554   C 458.88981,413.97554 455.18818,415.44864 452.12868,418.39483   C 449.0314,421.34102 447.48276,426.25134 447.48276,433.16355   L 447.48276,433.16355   z "
     style="fill:#ff0000;fill-rule:nonzero;fill-opacity:1;stroke:#ff0000;stroke-width:1.0576069px;stroke-linecap:butt;stroke-linejoin:miter;stroke-miterlimit:112;stroke-dasharray:none;stroke-opacity:1;" />
  <path
     id="path13"
     d="  M 492.61991,455.3733   L 492.61991,409.59403   L 501.72289,409.59403   L 512.56336,442.00213   C 513.54542,445.02386 514.30086,447.29016 514.75412,448.76326   C 515.28292,447.1013 516.07613,444.64614 517.17151,441.43555   L 528.12529,409.59403   L 536.28397,409.59403   L 536.28397,455.3733   L 530.46714,455.3733   L 530.46714,417.03505   L 517.13373,455.3733   L 511.69461,455.3733   L 498.43675,416.39293   L 498.43675,455.3733   L 492.61991,455.3733   z "
     style="fill:#ff0000;fill-rule:nonzero;fill-opacity:1;stroke:#ff0000;stroke-width:1.0576069px;stroke-linecap:butt;stroke-linejoin:miter;stroke-miterlimit:112;stroke-dasharray:none;stroke-opacity:1;" />
</svg>
