<?xml version="1.0" encoding="UTF-8" standalone="no"?>
<svg
   xmlns:dc="http://purl.org/dc/elements/1.1/"
   xmlns:cc="http://creativecommons.org/ns#"
   xmlns:rdf="http://www.w3.org/1999/02/22-rdf-syntax-ns#"
   xmlns:svg="http://www.w3.org/2000/svg"
   xmlns="http://www.w3.org/2000/svg"
   id="svg15"
   height="112.9mm"
   width="112.9mm"
   version="1.0">
  <metadata
     id="metadata19">
    <rdf:RDF>
      <cc:Work
         rdf:about="">
        <dc:format>image/svg+xml</dc:format>
        <dc:type
           rdf:resource="http://purl.org/dc/dcmitype/StillImage" />
      </cc:Work>
    </rdf:RDF>
  </metadata>
  <defs
     id="defs3">
    <pattern
       y="0"
       x="0"
       height="6"
       width="6"
       patternUnits="userSpaceOnUse"
       id="EMFhbasepattern" />
  </defs>
  <path
     id="path5"
     d="  M 451.74134,451.72623   L 600.99177,451.72623   L 600.99177,643.62504   L 451.74134,643.62504   L 451.74134,451.72623   z "
     style="fill:none;stroke:#000000;stroke-width:5.3263254px;stroke-linecap:butt;stroke-linejoin:miter;stroke-miterlimit:112;stroke-dasharray:none;stroke-opacity:1;" />
  <path
     id="path7"
     d="  M 451.74134,644.72053   L 526.34767,744.90078   L 600.99177,644.72053  "
     style="fill:none;stroke:#000000;stroke-width:5.3263254px;stroke-linecap:butt;stroke-linejoin:miter;stroke-miterlimit:112;stroke-dasharray:none;stroke-opacity:1;" />
  <path
     id="path9"
     d="  M 456.76546,515.71768   L 456.76546,469.93395   L 477.05083,469.93395   C 481.13056,469.93395 484.26592,470.3117 486.38134,471.14276   C 488.49676,471.97382 490.19665,473.40928 491.48101,475.5247   C 492.7276,477.60235 493.36978,479.90664 493.36978,482.39982   C 493.36978,485.6485 492.31207,488.4061 490.23443,490.63484   C 488.11901,492.86359 484.87033,494.26128 480.48838,494.86568   C 482.07495,495.65897 483.28376,496.41447 484.11482,497.16998   C 485.89026,498.79432 487.59015,500.79642 489.13894,503.25181   L 497.10954,515.71768   L 489.51669,515.71768   L 483.43486,506.16052   C 481.65942,503.44069 480.22396,501.32527 479.05292,499.85203   C 477.91966,498.41657 476.89972,497.39663 475.99312,496.79223   C 475.08651,496.2256 474.1799,495.81007 473.23552,495.58342   C 472.55556,495.43232 471.4223,495.35676 469.83573,495.35676   L 462.80952,495.35676   L 462.80952,515.71768   L 456.76546,515.71768   z  M 462.80952,490.10599   L 475.84201,490.10599   C 478.63739,490.10599 480.79059,489.84156 482.33938,489.27493   C 483.92594,488.7083 485.09698,487.76392 485.89026,486.51733   C 486.72132,485.27074 487.13685,483.87306 487.13685,482.39982   C 487.13685,480.24662 486.34356,478.47118 484.757,477.07349   C 483.20821,475.6758 480.71504,474.95807 477.31525,474.95807   L 462.80952,474.95807   L 462.80952,490.10599   z "
     style="fill:#000000;fill-rule:nonzero;fill-opacity:1;stroke:#000000;stroke-width:1.0577101px;stroke-linecap:butt;stroke-linejoin:miter;stroke-miterlimit:112;stroke-dasharray:none;stroke-opacity:1;" />
  <path
     id="path11"
     d="  M 501.03818,493.39245   C 501.03818,485.7996 503.07805,479.86887 507.15779,475.56248   C 511.2753,471.25609 516.52608,469.10289 522.98566,469.10289   C 527.2165,469.10289 531.03181,470.12283 534.39382,472.12492   C 537.7936,474.16479 540.4001,476.96017 542.17554,480.5866   C 543.95098,484.21303 544.85759,488.29277 544.85759,492.86359   C 544.85759,497.50996 543.91321,501.66525 542.02444,505.32946   C 540.17345,508.99367 537.4914,511.78905 534.05384,513.67781   C 530.61628,515.52881 526.9143,516.47319 522.94789,516.47319   C 518.6415,516.47319 514.78841,515.45325 511.38863,513.37561   C 507.98884,511.29797 505.42012,508.42704 503.68245,504.83838   C 501.94479,501.24972 501.03818,497.43441 501.03818,493.39245   L 501.03818,493.39245   z  M 507.30889,493.50577   C 507.30889,499.02097 508.78213,503.36514 511.76638,506.53827   C 514.71286,509.7114 518.45262,511.29797 522.91011,511.29797   C 527.48093,511.29797 531.22069,509.7114 534.16717,506.5005   C 537.11365,503.28959 538.58688,498.71877 538.58688,492.82582   C 538.58688,489.12383 537.98248,485.87515 536.69812,483.07977   C 535.45153,480.2844 533.60054,478.1312 531.18291,476.62019   C 528.76529,475.0714 526.04547,474.31589 523.02344,474.31589   C 518.71705,474.31589 515.01506,475.78913 511.95526,478.73561   C 508.85768,481.68209 507.30889,486.59288 507.30889,493.50577   L 507.30889,493.50577   z "
     style="fill:#000000;fill-rule:nonzero;fill-opacity:1;stroke:#000000;stroke-width:1.0577101px;stroke-linecap:butt;stroke-linejoin:miter;stroke-miterlimit:112;stroke-dasharray:none;stroke-opacity:1;" />
  <path
     id="path13"
     d="  M 552.45044,515.71768   L 552.45044,469.93395   L 561.5543,469.93395   L 572.39583,502.34521   C 573.37799,505.36723 574.1335,507.63376 574.5868,509.10699   C 575.11565,507.44488 575.90894,504.98948 577.00442,501.77858   L 587.95928,469.93395   L 596.11875,469.93395   L 596.11875,515.71768   L 590.30135,515.71768   L 590.30135,477.37569   L 576.96665,515.71768   L 571.527,515.71768   L 558.26785,476.73351   L 558.26785,515.71768   L 552.45044,515.71768   z "
     style="fill:#000000;fill-rule:nonzero;fill-opacity:1;stroke:#000000;stroke-width:1.0577101px;stroke-linecap:butt;stroke-linejoin:miter;stroke-miterlimit:112;stroke-dasharray:none;stroke-opacity:1;" />
</svg>
