<?xml version="1.0" encoding="UTF-8" standalone="no"?>
<svg
   xmlns:dc="http://purl.org/dc/elements/1.1/"
   xmlns:cc="http://creativecommons.org/ns#"
   xmlns:rdf="http://www.w3.org/1999/02/22-rdf-syntax-ns#"
   xmlns:svg="http://www.w3.org/2000/svg"
   xmlns="http://www.w3.org/2000/svg"
   id="svg13"
   height="112.9mm"
   width="112.9mm"
   version="1.0">
  <metadata
     id="metadata17">
    <rdf:RDF>
      <cc:Work
         rdf:about="">
        <dc:format>image/svg+xml</dc:format>
        <dc:type
           rdf:resource="http://purl.org/dc/dcmitype/StillImage" />
      </cc:Work>
    </rdf:RDF>
  </metadata>
  <defs
     id="defs3">
    <pattern
       y="0"
       x="0"
       height="6"
       width="6"
       patternUnits="userSpaceOnUse"
       id="EMFhbasepattern" />
  </defs>
  <path
     id="path5"
     d="  M 1055.3824,1055.5085   L 1203.488,1055.5085   L 1203.488,1246.2484   L 1055.3824,1246.2484   z "
     style="fill:none;stroke:#ffff00;stroke-width:5.3245535px;stroke-linecap:butt;stroke-linejoin:miter;stroke-miterlimit:282;stroke-dasharray:none;stroke-opacity:1;" />
  <path
     id="path7"
     d="  M 1055.3824,1248.4386   L 1129.9639,1348.5855   L 1204.5832,1248.4386  "
     style="fill:none;stroke:#ffff00;stroke-width:5.3245535px;stroke-linecap:butt;stroke-linejoin:miter;stroke-miterlimit:282;stroke-dasharray:none;stroke-opacity:1;" />
  <path
     id="path9"
     d="  M 1090.2374,1119.4787   L 1090.2374,1073.7102   L 1110.5538,1073.7102   C 1114.6322,1073.7102 1117.7288,1074.0878 1119.8435,1074.9186   C 1121.9582,1075.7494 1123.6575,1077.1844 1124.9414,1079.2991   C 1126.1876,1081.376 1126.8296,1083.6796 1126.8296,1086.1719   C 1126.8296,1089.4195 1125.7722,1092.1762 1123.6953,1094.4042   C 1121.5806,1096.6322 1118.333,1098.0294 1113.9525,1098.6336   C 1115.5385,1099.4266 1116.7469,1100.1819 1117.6155,1100.9372   C 1119.3526,1102.561 1121.0519,1104.5624 1122.6379,1107.017   L 1130.5681,1119.4787   L 1122.9778,1119.4787   L 1116.898,1109.9247   C 1115.1231,1107.2058 1113.6881,1105.0911 1112.5552,1103.6183   C 1111.3846,1102.1833 1110.365,1101.1637 1109.4587,1100.5595   C 1108.5524,1099.9931 1107.6461,1099.5777 1106.702,1099.3511   C 1106.0223,1099.2001 1104.8894,1099.1245 1103.3411,1099.1245   L 1096.3172,1099.1245   L 1096.3172,1119.4787   z  M 1096.3172,1093.8755   L 1109.3076,1093.8755   C 1112.1021,1093.8755 1114.2546,1093.6112 1115.8028,1093.0447   C 1117.3889,1092.4783 1118.5595,1091.5342 1119.3903,1090.2881   C 1120.1833,1089.0419 1120.5987,1087.6447 1120.5987,1086.1719   C 1120.5987,1084.0194 1119.8057,1082.2446 1118.2197,1080.8474   C 1116.6714,1079.4501 1114.179,1078.7326 1110.7804,1078.7326   L 1096.3172,1078.7326   z "
     style="fill:#ffff00;fill-rule:nonzero;fill-opacity:1;stroke:#ffff00;stroke-width:1.0573581px;stroke-linecap:butt;stroke-linejoin:miter;stroke-miterlimit:282;stroke-dasharray:none;stroke-opacity:1;" />
  <path
     id="path11"
     d="  M 1136.3458,1119.4787   L 1136.3458,1073.7102   L 1153.6412,1073.7102   C 1156.6622,1073.7102 1159.0035,1073.8235 1160.5895,1074.1256   C 1162.8553,1074.5032 1164.7057,1075.2207 1166.2539,1076.2781   C 1167.7644,1077.3354 1168.9729,1078.8082 1169.9169,1080.6963   C 1170.8232,1082.5844 1171.3141,1084.6614 1171.3141,1086.9272   C 1171.3141,1090.8167 1170.068,1094.1021 1167.5756,1096.821   C 1165.1211,1099.5022 1160.6273,1100.8616 1154.1698,1100.8616   L 1142.4256,1100.8616   L 1142.4256,1119.4787   z  M 1142.4256,1095.4616   L 1154.2454,1095.4616   C 1158.1727,1095.4616 1160.9294,1094.7441 1162.5909,1093.2713   C 1164.2525,1091.7986 1165.0455,1089.7594 1165.0455,1087.116   C 1165.0455,1085.1901 1164.5546,1083.5663 1163.6105,1082.2068   C 1162.6287,1080.8474 1161.3448,1079.941 1159.7965,1079.4879   C 1158.7769,1079.2236 1156.8888,1079.1103 1154.1321,1079.1103   L 1142.4256,1079.1103   z "
     style="fill:#ffff00;fill-rule:nonzero;fill-opacity:1;stroke:#ffff00;stroke-width:1.0573581px;stroke-linecap:butt;stroke-linejoin:miter;stroke-miterlimit:282;stroke-dasharray:none;stroke-opacity:1;" />
</svg>
