<?xml version="1.0" encoding="UTF-8" standalone="no"?>
<svg
   xmlns:dc="http://purl.org/dc/elements/1.1/"
   xmlns:cc="http://creativecommons.org/ns#"
   xmlns:rdf="http://www.w3.org/1999/02/22-rdf-syntax-ns#"
   xmlns:svg="http://www.w3.org/2000/svg"
   xmlns="http://www.w3.org/2000/svg"
   id="svg13"
   height="112.9mm"
   width="112.9mm"
   version="1.0">
  <metadata
     id="metadata17">
    <rdf:RDF>
      <cc:Work
         rdf:about="">
        <dc:format>image/svg+xml</dc:format>
        <dc:type
           rdf:resource="http://purl.org/dc/dcmitype/StillImage" />
      </cc:Work>
    </rdf:RDF>
  </metadata>
  <defs
     id="defs3">
    <pattern
       y="0"
       x="0"
       height="6"
       width="6"
       patternUnits="userSpaceOnUse"
       id="EMFhbasepattern" />
  </defs>
  <path
     id="path5"
     d="  M 451.74134,451.72623   L 600.99177,451.72623   L 600.99177,643.62504   L 451.74134,643.62504   L 451.74134,451.72623   z "
     style="fill:none;stroke:#000000;stroke-width:5.3263254px;stroke-linecap:butt;stroke-linejoin:miter;stroke-miterlimit:112;stroke-dasharray:none;stroke-opacity:1;" />
  <path
     id="path7"
     d="  M 451.74134,644.72053   L 526.34767,744.90078   L 600.99177,644.72053  "
     style="fill:none;stroke:#000000;stroke-width:5.3263254px;stroke-linecap:butt;stroke-linejoin:miter;stroke-miterlimit:112;stroke-dasharray:none;stroke-opacity:1;" />
  <path
     id="path9"
     d="  M 486.60799,515.71768   L 486.60799,469.93395   L 506.93113,469.93395   C 511.01087,469.93395 514.10845,470.3117 516.22387,471.14276   C 518.33929,471.97382 520.03918,473.40928 521.32355,475.5247   C 522.57013,477.60235 523.21231,479.90664 523.21231,482.39982   C 523.21231,485.6485 522.1546,488.4061 520.07696,490.63484   C 517.96154,492.86359 514.71286,494.26128 510.33092,494.86568   C 511.91748,495.65897 513.12629,496.41447 513.99513,497.16998   C 515.73279,498.79432 517.43268,500.79642 519.01925,503.25181   L 526.95207,515.71768   L 519.35923,515.71768   L 513.27739,506.16052   C 511.50195,503.44069 510.06649,501.32527 508.93323,499.85203   C 507.76219,498.41657 506.74226,497.39663 505.83565,496.79223   C 504.92904,496.2256 504.02243,495.81007 503.07805,495.58342   C 502.39809,495.43232 501.26483,495.35676 499.71604,495.35676   L 492.68982,495.35676   L 492.68982,515.71768   L 486.60799,515.71768   z  M 492.68982,490.10599   L 505.68455,490.10599   C 508.47992,490.10599 510.63312,489.84156 512.18191,489.27493   C 513.76847,488.7083 514.93951,487.76392 515.77057,486.51733   C 516.56385,485.27074 516.97938,483.87306 516.97938,482.39982   C 516.97938,480.24662 516.1861,478.47118 514.59953,477.07349   C 513.05074,475.6758 510.55757,474.95807 507.15779,474.95807   L 492.68982,474.95807   L 492.68982,490.10599   z "
     style="fill:#000000;fill-rule:nonzero;fill-opacity:1;stroke:#000000;stroke-width:1.0577101px;stroke-linecap:butt;stroke-linejoin:miter;stroke-miterlimit:112;stroke-dasharray:none;stroke-opacity:1;" />
  <path
     id="path11"
     d="  M 532.7317,515.71768   L 532.7317,469.93395   L 550.03282,469.93395   C 553.05485,469.93395 555.39692,470.04728 556.98348,470.34948   C 559.25,470.72723 561.101,471.44496 562.64979,472.50267   C 564.1608,473.56038 565.36961,475.03362 566.314,476.92239   C 567.22061,478.81116 567.71168,480.8888 567.71168,483.15532   C 567.71168,487.04619 566.4651,490.33264 563.97192,493.05247   C 561.51653,495.73452 557.02126,497.09443 550.56167,497.09443   L 538.81354,497.09443   L 538.81354,515.71768   L 532.7317,515.71768   z  M 538.81354,491.69255   L 550.63722,491.69255   C 554.56586,491.69255 557.32346,490.97482 558.98558,489.50158   C 560.64769,488.02835 561.44098,485.98848 561.44098,483.3442   C 561.44098,481.41766 560.9499,479.79332 560.00551,478.4334   C 559.02335,477.07349 557.73899,476.16688 556.1902,475.71358   C 555.17027,475.44915 553.2815,475.33583 550.5239,475.33583   L 538.81354,475.33583   L 538.81354,491.69255   z "
     style="fill:#000000;fill-rule:nonzero;fill-opacity:1;stroke:#000000;stroke-width:1.0577101px;stroke-linecap:butt;stroke-linejoin:miter;stroke-miterlimit:112;stroke-dasharray:none;stroke-opacity:1;" />
</svg>
