<?xml version="1.0" encoding="UTF-8" standalone="no"?>
<svg
   xmlns:dc="http://purl.org/dc/elements/1.1/"
   xmlns:cc="http://creativecommons.org/ns#"
   xmlns:rdf="http://www.w3.org/1999/02/22-rdf-syntax-ns#"
   xmlns:svg="http://www.w3.org/2000/svg"
   xmlns="http://www.w3.org/2000/svg"
   id="svg15"
   height="116.73mm"
   width="116.73mm"
   version="1.0">
  <metadata
     id="metadata19">
    <rdf:RDF>
      <cc:Work
         rdf:about="">
        <dc:format>image/svg+xml</dc:format>
        <dc:type
           rdf:resource="http://purl.org/dc/dcmitype/StillImage" />
      </cc:Work>
    </rdf:RDF>
  </metadata>
  <defs
     id="defs3">
    <pattern
       y="0"
       x="0"
       height="6"
       width="6"
       patternUnits="userSpaceOnUse"
       id="EMFhbasepattern" />
  </defs>
  <path
     id="path5"
     d="  M 220.57831,386.49156   L 220.57831,386.49156   L 386.49156,220.57831   L 220.57831,54.665059   L 54.665059,220.57831   L 220.57831,386.49156   z "
     style="fill:#ff8080;fill-rule:evenodd;fill-opacity:1;stroke:none;" />
  <path
     id="path7"
     d="  M 220.57831,386.49156   L 220.57831,386.49156   L 386.49156,220.57831   L 220.57831,54.665059   L 54.665059,220.57831   L 220.57831,386.49156  "
     style="fill:none;stroke:#000000;stroke-width:9.5903616px;stroke-linecap:butt;stroke-linejoin:miter;stroke-miterlimit:10;stroke-dasharray:none;stroke-opacity:1;" />
  <path
     id="path9"
     d="  M 148.73052,243.11566   L 148.73052,181.33775   L 176.14297,181.33775   C 181.65743,181.33775 185.81325,181.89719 188.69036,182.9761   C 191.56747,184.09498 193.84518,186.05301 195.56345,188.89016   C 197.28172,191.68735 198.12088,194.80421 198.12088,198.2008   C 198.12088,202.55642 196.72229,206.27269 193.88514,209.26968   C 191.04799,212.26666 186.65241,214.18474 180.73835,214.98393   C 182.89618,216.02289 184.53454,217.06184 185.65341,218.06084   C 188.051,220.25863 190.32871,223.01586 192.44658,226.29257   L 203.19578,243.11566   L 192.9261,243.11566   L 184.73433,230.24859   C 182.33674,226.53233 180.37871,223.69518 178.82028,221.73715   C 177.3018,219.77911 175.90321,218.42048 174.66446,217.62128   C 173.46566,216.82209 172.22691,216.26265 170.94819,215.98293   C 170.02911,215.78313 168.51064,215.66325 166.39277,215.66325   L 156.92229,215.66325   L 156.92229,243.11566   z  M 156.92229,208.59036   L 174.50462,208.59036   C 178.22088,208.59036 181.13795,208.23072 183.25582,207.43152   C 185.37369,206.67229 186.97209,205.43353 188.051,203.71526   C 189.16988,202.03694 189.68935,200.19879 189.68935,198.2008   C 189.68935,195.28373 188.6504,192.84618 186.53253,190.96807   C 184.41466,189.08996 181.05803,188.17088 176.46265,188.17088   L 156.92229,188.17088   z  M 211.10783,243.11566   L 211.10783,181.33775   L 255.78293,181.33775   L 255.78293,188.61044   L 219.2996,188.61044   L 219.2996,207.5514   L 253.46526,207.5514   L 253.46526,214.78413   L 219.2996,214.78413   L 219.2996,235.80301   L 257.22148,235.80301   L 257.22148,243.11566   z  M 268.17048,243.11566   L 268.17048,181.33775   L 276.36225,181.33775   L 276.36225,235.80301   L 306.77168,235.80301   L 306.77168,243.11566   z "
     style="fill:#000000;fill-rule:evenodd;fill-opacity:1;stroke:none;" />
  <path
     id="path11"
     d="  M 95.903613,177.42168   L 95.903613,177.42168   L 124.6747,220.57831   L 95.903613,263.73494  "
     style="fill:none;stroke:#000000;stroke-width:9.5903616px;stroke-linecap:butt;stroke-linejoin:miter;stroke-miterlimit:10;stroke-dasharray:none;stroke-opacity:1;" />
  <path
     id="path13"
     d="  M 345.25301,177.42168   L 345.25301,177.42168   L 316.48192,220.57831   L 345.25301,263.73494  "
     style="fill:none;stroke:#000000;stroke-width:9.5903616px;stroke-linecap:butt;stroke-linejoin:miter;stroke-miterlimit:10;stroke-dasharray:none;stroke-opacity:1;" />
</svg>
