<?xml version="1.0" encoding="UTF-8" standalone="no"?>
<svg
   xmlns:dc="http://purl.org/dc/elements/1.1/"
   xmlns:cc="http://creativecommons.org/ns#"
   xmlns:rdf="http://www.w3.org/1999/02/22-rdf-syntax-ns#"
   xmlns:svg="http://www.w3.org/2000/svg"
   xmlns="http://www.w3.org/2000/svg"
   id="svg29"
   height="116.73mm"
   width="116.73mm"
   version="1.0">
  <metadata
     id="metadata33">
    <rdf:RDF>
      <cc:Work
         rdf:about="">
        <dc:format>image/svg+xml</dc:format>
        <dc:type
           rdf:resource="http://purl.org/dc/dcmitype/StillImage" />
      </cc:Work>
    </rdf:RDF>
  </metadata>
  <defs
     id="defs3">
    <pattern
       y="0"
       x="0"
       height="6"
       width="6"
       patternUnits="userSpaceOnUse"
       id="EMFhbasepattern" />
  </defs>
  <path
     id="path5"
     d="  M 220.57831,386.49156   L 220.57831,386.49156   L 386.49156,220.57831   L 220.57831,54.665059   L 54.665059,220.57831   L 220.57831,386.49156   z "
     style="fill:#ff8080;fill-rule:evenodd;fill-opacity:1;stroke:none;" />
  <path
     id="path7"
     d="  M 220.57831,386.49156   L 220.57831,386.49156   L 386.49156,220.57831   L 220.57831,54.665059   L 54.665059,220.57831   L 220.57831,386.49156  "
     style="fill:none;stroke:#000000;stroke-width:9.5903616px;stroke-linecap:butt;stroke-linejoin:miter;stroke-miterlimit:10;stroke-dasharray:none;stroke-opacity:1;" />
  <path
     id="path9"
     d="  M 239.75903,215.78313   C 239.75903,226.41245 231.20763,234.96385 220.57831,234.96385   C 209.98895,234.96385 201.39759,226.41245 201.39759,215.78313   C 201.39759,205.19377 209.98895,196.60241 220.57831,196.60241   C 231.20763,196.60241 239.75903,205.19377 239.75903,215.78313  "
     style="fill:none;stroke:#000000;stroke-width:9.5903616px;stroke-linecap:butt;stroke-linejoin:miter;stroke-miterlimit:10;stroke-dasharray:none;stroke-opacity:1;" />
  <path
     id="path11"
     d="  M 220.57831,234.96385   L 220.57831,326.07228  "
     style="fill:none;stroke:#000000;stroke-width:9.5903616px;stroke-linecap:butt;stroke-linejoin:miter;stroke-miterlimit:10;stroke-dasharray:none;stroke-opacity:1;" />
  <path
     id="path13"
     d="  M 196.60241,258.93976   L 244.55421,258.93976  "
     style="fill:none;stroke:#000000;stroke-width:9.5903616px;stroke-linecap:butt;stroke-linejoin:miter;stroke-miterlimit:10;stroke-dasharray:none;stroke-opacity:1;" />
  <path
     id="path15"
     d="  M 182.21686,196.60241   C 182.21686,207.23172 173.66546,215.78313 163.03614,215.78313   C 152.44678,215.78313 143.85542,207.23172 143.85542,196.60241   C 143.85542,186.01305 152.44678,177.42168 163.03614,177.42168   C 173.66546,177.42168 182.21686,186.01305 182.21686,196.60241  "
     style="fill:none;stroke:#000000;stroke-width:9.5903616px;stroke-linecap:butt;stroke-linejoin:miter;stroke-miterlimit:10;stroke-dasharray:none;stroke-opacity:1;" />
  <path
     id="path17"
     d="  M 163.03614,215.78313   L 163.03614,306.89156  "
     style="fill:none;stroke:#000000;stroke-width:9.5903616px;stroke-linecap:butt;stroke-linejoin:miter;stroke-miterlimit:10;stroke-dasharray:none;stroke-opacity:1;" />
  <path
     id="path19"
     d="  M 139.06024,239.75903   L 187.01205,239.75903  "
     style="fill:none;stroke:#000000;stroke-width:9.5903616px;stroke-linecap:butt;stroke-linejoin:miter;stroke-miterlimit:10;stroke-dasharray:none;stroke-opacity:1;" />
  <path
     id="path21"
     d="  M 297.3012,196.60241   C 297.3012,207.23172 288.7498,215.78313 278.12048,215.78313   C 267.53112,215.78313 258.93976,207.23172 258.93976,196.60241   C 258.93976,186.01305 267.53112,177.42168 278.12048,177.42168   C 288.7498,177.42168 297.3012,186.01305 297.3012,196.60241  "
     style="fill:none;stroke:#000000;stroke-width:9.5903616px;stroke-linecap:butt;stroke-linejoin:miter;stroke-miterlimit:10;stroke-dasharray:none;stroke-opacity:1;" />
  <path
     id="path23"
     d="  M 278.12048,215.78313   L 278.12048,306.89156  "
     style="fill:none;stroke:#000000;stroke-width:9.5903616px;stroke-linecap:butt;stroke-linejoin:miter;stroke-miterlimit:10;stroke-dasharray:none;stroke-opacity:1;" />
  <path
     id="path25"
     d="  M 254.14457,239.75903   L 302.09638,239.75903  "
     style="fill:none;stroke:#000000;stroke-width:9.5903616px;stroke-linecap:butt;stroke-linejoin:miter;stroke-miterlimit:10;stroke-dasharray:none;stroke-opacity:1;" />
  <path
     id="path27"
     d="  M 176.78233,162.83634   L 176.78233,125.11426   L 193.5255,125.11426   C 196.88213,125.11426 199.43956,125.43393 201.19779,126.11325   C 202.95602,126.79257 204.35462,127.99136 205.39357,129.70964   C 206.47249,131.42791 206.99196,133.30602 206.99196,135.38393   C 206.99196,138.06124 206.11285,140.33895 204.39458,142.17711   C 202.63634,144.01526 199.95903,145.17409 196.32269,145.69357   C 197.68132,146.29297 198.68032,146.93233 199.35964,147.57168   C 200.79819,148.89036 202.19678,150.56867 203.51546,152.56666   L 210.06887,162.83634   L 203.79518,162.83634   L 198.8002,155.00421   C 197.32168,152.7265 196.12289,151.00823 195.16385,149.80944   C 194.24478,148.61064 193.40562,147.77148 192.64638,147.29197   C 191.88715,146.81245 191.12791,146.45281 190.36867,146.25301   C 189.80923,146.13313 188.89016,146.09317 187.57148,146.09317   L 181.77731,146.09317   L 181.77731,162.83634   z  M 181.77731,141.77751   L 192.5265,141.77751   C 194.80421,141.77751 196.60241,141.53775 197.88112,141.05823   C 199.15984,140.57871 200.15883,139.81948 200.83815,138.78052   C 201.47751,137.74156 201.83715,136.62269 201.83715,135.38393   C 201.83715,133.6257 201.19779,132.14719 199.87911,130.98835   C 198.6004,129.82952 196.52249,129.27008 193.7253,129.27008   L 181.77731,129.27008   z  M 214.90401,162.83634   L 214.90401,125.11426   L 242.19658,125.11426   L 242.19658,129.5498   L 219.89899,129.5498   L 219.89899,141.09819   L 240.79799,141.09819   L 240.79799,145.53373   L 219.89899,145.53373   L 219.89899,158.4008   L 243.0757,158.4008   L 243.0757,162.83634   z  M 249.78895,162.83634   L 249.78895,125.11426   L 254.78393,125.11426   L 254.78393,158.4008   L 273.36526,158.4008   L 273.36526,162.83634   z "
     style="fill:#000000;fill-rule:evenodd;fill-opacity:1;stroke:none;" />
</svg>
