<?xml version="1.0" encoding="UTF-8" standalone="no"?>
<svg
   xmlns:dc="http://purl.org/dc/elements/1.1/"
   xmlns:cc="http://creativecommons.org/ns#"
   xmlns:rdf="http://www.w3.org/1999/02/22-rdf-syntax-ns#"
   xmlns:svg="http://www.w3.org/2000/svg"
   xmlns="http://www.w3.org/2000/svg"
   id="svg21"
   height="116.73mm"
   width="116.73mm"
   version="1.0">
  <metadata
     id="metadata25">
    <rdf:RDF>
      <cc:Work
         rdf:about="">
        <dc:format>image/svg+xml</dc:format>
        <dc:type
           rdf:resource="http://purl.org/dc/dcmitype/StillImage" />
      </cc:Work>
    </rdf:RDF>
  </metadata>
  <defs
     id="defs3">
    <pattern
       y="0"
       x="0"
       height="6"
       width="6"
       patternUnits="userSpaceOnUse"
       id="EMFhbasepattern" />
  </defs>
  <path
     id="path5"
     d="  M 172.6265,43.156626   L 172.6265,100.69879   L 268.53012,100.69879   L 268.53012,43.156626   L 172.6265,43.156626   z "
     style="fill:#000000;fill-rule:evenodd;fill-opacity:1;stroke:none;" />
  <path
     id="path7"
     d="  M 220.57831,386.49156   L 220.57831,386.49156   L 386.49156,220.57831   L 220.57831,54.665059   L 54.665059,220.57831   L 220.57831,386.49156   z "
     style="fill:#ff8080;fill-rule:evenodd;fill-opacity:1;stroke:none;" />
  <path
     id="path9"
     d="  M 220.57831,386.49156   L 220.57831,386.49156   L 386.49156,220.57831   L 220.57831,54.665059   L 54.665059,220.57831   L 220.57831,386.49156  "
     style="fill:none;stroke:#000000;stroke-width:9.5903616px;stroke-linecap:butt;stroke-linejoin:miter;stroke-miterlimit:10;stroke-dasharray:none;stroke-opacity:1;" />
  <path
     id="path11"
     d="  M 205.71325,235.28353   L 204.67429,235.28353   C 203.4755,235.28353 202.0769,233.88494 202.0769,232.64618   L 202.0769,202.75622   C 202.0769,201.51747 202.91606,200.63835 204.15482,200.63835   L 205.71325,200.63835   C 206.95201,200.63835 207.83112,201.51747 207.83112,202.75622   L 207.83112,231.08775   C 207.83112,232.96586 207.59136,235.28353 205.71325,235.28353   z  M 148.57068,199.59939   L 148.57068,285.11345   L 217.26164,285.11345   L 217.26164,131.94739   C 198.72028,131.94739 176.50261,140.45883 167.03213,149.88936   C 156.76245,160.19899 148.57068,179.37972 148.57068,199.59939   z "
     style="fill:#ffffff;fill-rule:evenodd;fill-opacity:1;stroke:none;" />
  <path
     id="path13"
     d="  M 205.71325,235.28353   C 207.59136,235.28353 207.83112,232.96586 207.83112,231.08775   L 207.83112,202.75622   C 207.83112,201.51747 206.95201,200.63835 205.71325,200.63835   L 204.15482,200.63835   C 202.91606,200.63835 202.0769,201.51747 202.0769,202.75622   L 202.0769,232.64618   C 202.0769,233.88494 203.4755,235.28353 204.67429,235.28353   z "
     style="fill:#000000;fill-rule:evenodd;fill-opacity:1;stroke:none;" />
  <path
     id="path15"
     d="  M 232.48634,202.75622   L 232.48634,232.64618   C 232.48634,233.88494 233.88494,235.28353 235.12369,235.28353   L 236.16265,235.28353   C 237.84096,235.28353 238.76004,233.36546 238.76004,231.60723   L 238.76004,203.2757   C 238.76004,202.03694 237.36144,200.63835 236.16265,200.63835   L 234.56425,200.63835   C 233.36546,200.63835 232.48634,201.51747 232.48634,202.75622   z "
     style="fill:#000000;fill-rule:evenodd;fill-opacity:1;stroke:none;" />
  <path
     id="path17"
     d="  M 232.48634,202.75622   C 232.48634,201.51747 233.36546,200.63835 234.56425,200.63835   L 236.16265,200.63835   C 237.36144,200.63835 238.76004,202.03694 238.76004,203.2757   L 238.76004,231.60723   C 238.76004,233.36546 237.84096,235.28353 236.16265,235.28353   L 235.12369,235.28353   C 233.88494,235.28353 232.48634,233.88494 232.48634,232.64618   z  M 223.05582,285.11345   L 291.74678,285.11345   L 291.74678,205.91305   C 291.74678,180.77831 287.07148,164.75442 275.12349,151.20803   C 266.21245,141.09819 241.95682,131.94739 223.05582,131.94739   z "
     style="fill:#ffffff;fill-rule:evenodd;fill-opacity:1;stroke:none;" />
  <path
     id="path19"
     d="  M 223.05582,131.94739   C 241.95682,131.94739 266.21245,141.09819 275.12349,151.20803   C 287.07148,164.75442 291.74678,180.77831 291.74678,205.91305   L 291.74678,285.11345   L 223.05582,285.11345   z  M 148.57068,199.59939   C 148.57068,179.37972 156.76245,160.19899 167.03213,149.88936   C 176.50261,140.45883 198.72028,131.94739 217.26164,131.94739   L 217.26164,285.11345   L 148.57068,285.11345   z  M 142.25703,291.38714   L 298.06044,291.38714   L 298.06044,206.95201   C 298.06044,180.97811 291.94658,159.67952 278.75984,146.49277   C 267.17148,134.90442 242.79598,125.63373 219.89899,125.63373   C 199.95903,125.63373 173.26586,134.66466 163.35582,144.65462   C 155.64357,152.44678 153.04618,156.64257 148.4508,167.51164   C 146.09317,173.10602 142.25703,191.40763 142.25703,199.07992   L 142.25703,291.38714   z "
     style="fill:#000000;fill-rule:evenodd;fill-opacity:1;stroke:none;" />
</svg>
