<?xml version="1.0" encoding="UTF-8" standalone="no"?>
<svg
   xmlns:dc="http://purl.org/dc/elements/1.1/"
   xmlns:cc="http://creativecommons.org/ns#"
   xmlns:rdf="http://www.w3.org/1999/02/22-rdf-syntax-ns#"
   xmlns:svg="http://www.w3.org/2000/svg"
   xmlns="http://www.w3.org/2000/svg"
   id="svg21"
   height="130.27mm"
   width="130.27mm"
   version="1.0">
  <metadata
     id="metadata25">
    <rdf:RDF>
      <cc:Work
         rdf:about="">
        <dc:format>image/svg+xml</dc:format>
        <dc:type
           rdf:resource="http://purl.org/dc/dcmitype/StillImage" />
      </cc:Work>
    </rdf:RDF>
  </metadata>
  <defs
     id="defs3">
    <pattern
       y="0"
       x="0"
       height="6"
       width="6"
       patternUnits="userSpaceOnUse"
       id="EMFhbasepattern" />
  </defs>
  <path
     id="path5"
     d="  M 198.2008,63.935742   L 198.2008,111.88755   L 294.10441,111.88755   L 294.10441,63.935742   L 198.2008,63.935742   z "
     style="fill:#000000;fill-rule:evenodd;fill-opacity:1;stroke:none;" />
  <path
     id="path7"
     d="  M 164.63454,327.67068   C 164.63454,437.95983 327.67068,437.95983 327.67068,327.67068   C 437.95983,327.67068 437.95983,164.63454 327.67068,164.63454   C 327.67068,54.345381 164.63454,54.345381 164.63454,164.63454   C 54.345381,164.63454 54.345381,327.67068 164.63454,327.67068   z "
     style="fill:#ffff80;fill-rule:evenodd;fill-opacity:1;stroke:none;" />
  <path
     id="path9"
     d="  M 164.63454,327.67068   C 164.63454,437.95983 327.67068,437.95983 327.67068,327.67068   C 437.95983,327.67068 437.95983,164.63454 327.67068,164.63454   C 327.67068,54.345381 164.63454,54.345381 164.63454,164.63454   C 54.345381,164.63454 54.345381,327.67068 164.63454,327.67068  "
     style="fill:none;stroke:#000000;stroke-width:9.5903616px;stroke-linecap:butt;stroke-linejoin:miter;stroke-miterlimit:10;stroke-dasharray:none;stroke-opacity:1;" />
  <path
     id="path11"
     d="  M 231.28755,260.85783   L 230.24859,260.85783   C 229.0498,260.85783 227.6512,259.45923 227.6512,258.22048   L 227.6512,228.33052   C 227.6512,227.09176 228.49036,226.21265 229.72911,226.21265   L 231.28755,226.21265   C 232.5263,226.21265 233.40542,227.09176 233.40542,228.33052   L 233.40542,256.66204   C 233.40542,258.54016 233.16566,260.85783 231.28755,260.85783   z  M 174.14498,225.17369   L 174.14498,310.68775   L 242.83594,310.68775   L 242.83594,157.52168   C 224.29458,157.52168 202.0769,166.03313 192.60642,175.46365   C 182.33674,185.77329 174.14498,204.95401 174.14498,225.17369   z "
     style="fill:#ffffff;fill-rule:evenodd;fill-opacity:1;stroke:none;" />
  <path
     id="path13"
     d="  M 231.28755,260.85783   C 233.16566,260.85783 233.40542,258.54016 233.40542,256.66204   L 233.40542,228.33052   C 233.40542,227.09176 232.5263,226.21265 231.28755,226.21265   L 229.72911,226.21265   C 228.49036,226.21265 227.6512,227.09176 227.6512,228.33052   L 227.6512,258.22048   C 227.6512,259.45923 229.0498,260.85783 230.24859,260.85783   z "
     style="fill:#000000;fill-rule:evenodd;fill-opacity:1;stroke:none;" />
  <path
     id="path15"
     d="  M 258.06064,228.33052   L 258.06064,258.22048   C 258.06064,259.45923 259.45923,260.85783 260.69799,260.85783   L 261.73694,260.85783   C 263.41526,260.85783 264.33433,258.93976 264.33433,257.18152   L 264.33433,228.85   C 264.33433,227.61124 262.93574,226.21265 261.73694,226.21265   L 260.13855,226.21265   C 258.93976,226.21265 258.06064,227.09176 258.06064,228.33052   z "
     style="fill:#000000;fill-rule:evenodd;fill-opacity:1;stroke:none;" />
  <path
     id="path17"
     d="  M 258.06064,228.33052   C 258.06064,227.09176 258.93976,226.21265 260.13855,226.21265   L 261.73694,226.21265   C 262.93574,226.21265 264.33433,227.61124 264.33433,228.85   L 264.33433,257.18152   C 264.33433,258.93976 263.41526,260.85783 261.73694,260.85783   L 260.69799,260.85783   C 259.45923,260.85783 258.06064,259.45923 258.06064,258.22048   z  M 248.63012,310.68775   L 317.32108,310.68775   L 317.32108,231.48735   C 317.32108,206.35261 312.64578,190.32871 300.69779,176.78233   C 291.78674,166.67249 267.53112,157.52168 248.63012,157.52168   z "
     style="fill:#ffffff;fill-rule:evenodd;fill-opacity:1;stroke:none;" />
  <path
     id="path19"
     d="  M 248.63012,157.52168   C 267.53112,157.52168 291.78674,166.67249 300.69779,176.78233   C 312.64578,190.32871 317.32108,206.35261 317.32108,231.48735   L 317.32108,310.68775   L 248.63012,310.68775   z  M 174.14498,225.17369   C 174.14498,204.95401 182.33674,185.77329 192.60642,175.46365   C 202.0769,166.03313 224.29458,157.52168 242.83594,157.52168   L 242.83594,310.68775   L 174.14498,310.68775   z  M 167.83132,316.96144   L 323.63473,316.96144   L 323.63473,232.5263   C 323.63473,206.55241 317.52088,185.25381 304.33413,172.06707   C 292.74578,160.47871 268.37028,151.20803 245.47329,151.20803   C 225.53333,151.20803 198.84016,160.23895 188.93012,170.22891   C 181.21787,178.02108 178.62048,182.21686 174.0251,193.08594   C 171.66747,198.68032 167.83132,216.98192 167.83132,224.65421   L 167.83132,316.96144   z "
     style="fill:#000000;fill-rule:evenodd;fill-opacity:1;stroke:none;" />
</svg>
