<?xml version="1.0" encoding="UTF-8" standalone="no"?>
<svg
   xmlns:dc="http://purl.org/dc/elements/1.1/"
   xmlns:cc="http://creativecommons.org/ns#"
   xmlns:rdf="http://www.w3.org/1999/02/22-rdf-syntax-ns#"
   xmlns:svg="http://www.w3.org/2000/svg"
   xmlns="http://www.w3.org/2000/svg"
   id="svg15"
   height="112.9mm"
   width="112.9mm"
   version="1.0">
  <metadata
     id="metadata19">
    <rdf:RDF>
      <cc:Work
         rdf:about="">
        <dc:format>image/svg+xml</dc:format>
        <dc:type
           rdf:resource="http://purl.org/dc/dcmitype/StillImage" />
      </cc:Work>
    </rdf:RDF>
  </metadata>
  <defs
     id="defs3">
    <pattern
       y="0"
       x="0"
       height="6"
       width="6"
       patternUnits="userSpaceOnUse"
       id="EMFhbasepattern" />
  </defs>
  <path
     id="path5"
     d="  M 466.2093,522.63057   L 466.2093,476.80906   L 485.66361,476.80906   C 490.5744,476.80906 494.12529,477.22459 496.35403,478.05565   C 498.545,478.88671 500.32045,480.35995 501.68036,482.43759   C 503.0025,484.55301 503.68245,486.97064 503.68245,489.65269   C 503.68245,493.09024 502.66252,495.9234 500.62265,498.18992   C 498.62056,500.41866 495.59853,501.81635 491.59434,502.42076   C 493.59643,503.55402 495.22077,504.83838 496.54291,506.23607   C 497.82727,507.63376 499.60271,510.12693 501.79369,513.67781   L 507.38444,522.63057   L 496.31626,522.63057   L 489.63002,512.65788   C 487.28795,509.10699 485.66361,506.84047 484.757,505.93386   C 483.88817,504.98948 482.98156,504.3473 481.9994,504.00732   C 481.01724,503.66734 479.46845,503.51624 477.35303,503.51624   L 475.46426,503.51624   L 475.46426,522.63057   L 466.2093,522.63057   z  M 475.46426,496.18782   L 482.3016,496.18782   C 486.72132,496.18782 489.51669,495.99895 490.61218,495.62119   C 491.70767,495.24344 492.5765,494.60126 493.21868,493.69465   C 493.82309,492.78804 494.12529,491.617 494.12529,490.25709   C 494.12529,488.7083 493.74753,487.46171 492.91648,486.51733   C 492.08542,485.57295 490.91438,484.96854 489.44114,484.74189   C 488.68564,484.62856 486.41912,484.55301 482.67935,484.55301   L 475.46426,484.55301   L 475.46426,496.18782   z "
     style="fill:#000000;fill-rule:nonzero;fill-opacity:1;stroke:none;" />
  <path
     id="path7"
     d="  M 512.67299,522.63057   L 512.67299,477.18682   L 521.89018,477.18682   L 521.89018,514.88662   L 544.89537,514.88662   L 544.89537,522.63057   L 512.67299,522.63057   z "
     style="fill:#000000;fill-rule:nonzero;fill-opacity:1;stroke:none;" />
  <path
     id="path9"
     d="  M 551.50606,522.63057   L 551.50606,476.80906   L 566.35177,476.80906   C 571.9803,476.80906 575.64451,477.03572 577.3444,477.5268   C 579.98868,478.20675 582.17965,479.67999 583.95509,481.98429   C 585.69275,484.28858 586.59936,487.27284 586.59936,490.89927   C 586.59936,493.73242 586.07051,496.0745 585.05057,498.00104   C 584.03064,499.92758 582.74628,501.4386 581.15971,502.49631   C 579.61092,503.59179 577.98658,504.3473 576.36224,504.68728   C 574.17127,505.14058 570.96037,505.32946 566.80508,505.32946   L 560.76102,505.32946   L 560.76102,522.63057   L 551.50606,522.63057   z  M 560.76102,484.55301   L 560.76102,497.54774   L 565.82292,497.54774   C 569.44935,497.54774 571.90475,497.32108 573.11356,496.83   C 574.36015,496.3767 575.34231,495.62119 576.02226,494.60126   C 576.70222,493.58132 577.07997,492.37251 577.07997,491.05037   C 577.07997,489.38826 576.58889,487.99057 575.60673,486.89508   C 574.62458,485.83737 573.37799,485.15742 571.86697,484.89299   C 570.77149,484.66634 568.54274,484.55301 565.21851,484.55301   L 560.76102,484.55301   z "
     style="fill:#000000;fill-rule:nonzero;fill-opacity:1;stroke:none;" />
  <path
     id="path11"
     d="  M 451.74134,451.72623   L 600.99177,451.72623   L 600.99177,643.62504   L 451.74134,643.62504   L 451.74134,451.72623   z "
     style="fill:none;stroke:#000000;stroke-width:5.3263254px;stroke-linecap:butt;stroke-linejoin:miter;stroke-miterlimit:112;stroke-dasharray:none;stroke-opacity:1;" />
  <path
     id="path13"
     d="  M 451.74134,644.72053   L 526.34767,744.90078   L 600.99177,644.72053  "
     style="fill:none;stroke:#000000;stroke-width:5.3263254px;stroke-linecap:butt;stroke-linejoin:miter;stroke-miterlimit:112;stroke-dasharray:none;stroke-opacity:1;" />
</svg>
