<?xml version="1.0" encoding="UTF-8" standalone="no"?>
<svg
   xmlns:dc="http://purl.org/dc/elements/1.1/"
   xmlns:cc="http://creativecommons.org/ns#"
   xmlns:rdf="http://www.w3.org/1999/02/22-rdf-syntax-ns#"
   xmlns:svg="http://www.w3.org/2000/svg"
   xmlns="http://www.w3.org/2000/svg"
   id="svg15"
   height="112.9mm"
   width="112.9mm"
   version="1.0">
  <metadata
     id="metadata19">
    <rdf:RDF>
      <cc:Work
         rdf:about="">
        <dc:format>image/svg+xml</dc:format>
        <dc:type
           rdf:resource="http://purl.org/dc/dcmitype/StillImage" />
      </cc:Work>
    </rdf:RDF>
  </metadata>
  <defs
     id="defs3">
    <pattern
       y="0"
       x="0"
       height="6"
       width="6"
       patternUnits="userSpaceOnUse"
       id="EMFhbasepattern" />
  </defs>
  <path
     id="path5"
     d="  M 1069.8455,1126.3893   L 1069.8455,1080.583   L 1089.2934,1080.583   C 1094.2025,1080.583 1097.7522,1080.9984 1099.9802,1081.8292   C 1102.1705,1082.66 1103.9453,1084.1327 1105.3048,1086.2097   C 1106.6265,1088.3244 1107.3062,1090.7412 1107.3062,1093.4224   C 1107.3062,1096.8588 1106.2866,1099.691 1104.2474,1101.9568   C 1102.246,1104.1848 1099.225,1105.582 1095.2221,1106.1862   C 1097.2236,1107.3191 1098.8474,1108.603 1100.1691,1110.0002   C 1101.453,1111.3975 1103.2278,1113.8898 1105.4181,1117.4395   L 1111.007,1126.3893   L 1099.9425,1126.3893   L 1093.2585,1116.4199   C 1090.9172,1112.8702 1089.2934,1110.6044 1088.3871,1109.6981   C 1087.5185,1108.7541 1086.6122,1108.1121 1085.6304,1107.7722   C 1084.6485,1107.4324 1083.1003,1107.2813 1080.9856,1107.2813   L 1079.0974,1107.2813   L 1079.0974,1126.3893   z  M 1079.0974,1099.9553   L 1085.9325,1099.9553   C 1090.3507,1099.9553 1093.1452,1099.7665 1094.2403,1099.3889   C 1095.3354,1099.0113 1096.204,1098.3693 1096.8459,1097.463   C 1097.4501,1096.5567 1097.7522,1095.386 1097.7522,1094.0266   C 1097.7522,1092.4783 1097.3746,1091.2321 1096.5438,1090.2881   C 1095.713,1089.344 1094.5424,1088.7398 1093.0696,1088.5132   C 1092.3144,1088.3999 1090.0486,1088.3244 1086.3101,1088.3244   L 1079.0974,1088.3244   z "
     style="fill:#ff0000;fill-rule:nonzero;fill-opacity:1;stroke:none;" />
  <path
     id="path7"
     d="  M 1116.2938,1126.3893   L 1116.2938,1080.9606   L 1125.5079,1080.9606   L 1125.5079,1118.6479   L 1148.5054,1118.6479   L 1148.5054,1126.3893   z "
     style="fill:#ff0000;fill-rule:nonzero;fill-opacity:1;stroke:none;" />
  <path
     id="path9"
     d="  M 1155.1139,1126.3893   L 1155.1139,1080.583   L 1169.9547,1080.583   C 1175.5813,1080.583 1179.2443,1080.8096 1180.9437,1081.3005   C 1183.5871,1081.9802 1185.7773,1083.453 1187.5521,1085.7565   C 1189.2892,1088.06 1190.1955,1091.0433 1190.1955,1094.6685   C 1190.1955,1097.5007 1189.6669,1099.842 1188.6473,1101.7679   C 1187.6277,1103.6938 1186.3437,1105.2044 1184.7577,1106.2617   C 1183.2094,1107.3568 1181.5856,1108.1121 1179.9618,1108.452   C 1177.7716,1108.9051 1174.5617,1109.0939 1170.4078,1109.0939   L 1164.3658,1109.0939   L 1164.3658,1126.3893   z  M 1164.3658,1088.3244   L 1164.3658,1101.3148   L 1169.426,1101.3148   C 1173.0512,1101.3148 1175.5058,1101.0882 1176.7142,1100.5973   C 1177.9604,1100.1441 1178.9422,1099.3889 1179.622,1098.3693   C 1180.3017,1097.3497 1180.6793,1096.1413 1180.6793,1094.8196   C 1180.6793,1093.158 1180.1884,1091.7608 1179.2066,1090.6657   C 1178.2247,1089.6083 1176.9786,1088.9286 1175.4681,1088.6643   C 1174.3729,1088.4377 1172.1449,1088.3244 1168.8218,1088.3244   z "
     style="fill:#ff0000;fill-rule:nonzero;fill-opacity:1;stroke:none;" />
  <path
     id="path11"
     d="  M 1055.3824,1055.5085   L 1203.488,1055.5085   L 1203.488,1246.2484   L 1055.3824,1246.2484   z "
     style="fill:none;stroke:#ff0000;stroke-width:5.3245535px;stroke-linecap:butt;stroke-linejoin:miter;stroke-miterlimit:282;stroke-dasharray:none;stroke-opacity:1;" />
  <path
     id="path13"
     d="  M 1055.3824,1248.4386   L 1129.9639,1348.5855   L 1204.5832,1248.4386  "
     style="fill:none;stroke:#ff0000;stroke-width:5.3245535px;stroke-linecap:butt;stroke-linejoin:miter;stroke-miterlimit:282;stroke-dasharray:none;stroke-opacity:1;" />
</svg>
