<?xml version="1.0" encoding="UTF-8" standalone="no"?>
<svg
   xmlns:dc="http://purl.org/dc/elements/1.1/"
   xmlns:cc="http://creativecommons.org/ns#"
   xmlns:rdf="http://www.w3.org/1999/02/22-rdf-syntax-ns#"
   xmlns:svg="http://www.w3.org/2000/svg"
   xmlns="http://www.w3.org/2000/svg"
   id="svg11"
   height="79.510002mm"
   width="127.91mm"
   version="1.0">
  <metadata
     id="metadata15">
    <rdf:RDF>
      <cc:Work
         rdf:about="">
        <dc:format>image/svg+xml</dc:format>
        <dc:type
           rdf:resource="http://purl.org/dc/dcmitype/StillImage" />
      </cc:Work>
    </rdf:RDF>
  </metadata>
  <defs
     id="defs3">
    <pattern
       y="0"
       x="0"
       height="6"
       width="6"
       patternUnits="userSpaceOnUse"
       id="EMFhbasepattern" />
  </defs>
  <path
     id="path5"
     d="  M 54.665059,54.345381   L 428.68915,54.345381  "
     style="fill:none;stroke:#000000;stroke-width:9.5903616px;stroke-linecap:butt;stroke-linejoin:miter;stroke-miterlimit:10;stroke-dasharray:none;stroke-opacity:1;" />
  <path
     id="path7"
     d="  M 54.665059,246.15261   L 428.68915,246.15261  "
     style="fill:none;stroke:#000000;stroke-width:9.5903616px;stroke-linecap:butt;stroke-linejoin:miter;stroke-miterlimit:10;stroke-dasharray:none;stroke-opacity:1;" />
  <path
     id="path9"
     d="  M 174.78433,186.41265   L 174.78433,97.182328   L 214.34458,97.182328   C 222.29658,97.182328 228.33052,97.981525 232.48634,99.579918   C 236.64217,101.17831 239.91887,104.01546 242.39638,108.0514   C 244.87389,112.12731 246.11265,116.60281 246.11265,121.51787   C 246.11265,127.83152 244.0747,133.18614 239.95883,137.54177   C 235.88293,141.85743 229.52931,144.61466 220.97791,145.81345   C 224.09478,147.29197 226.49237,148.81044 228.09076,150.24899   C 231.56727,153.40582 234.80401,157.36185 237.92088,162.11707   L 253.4253,186.41265   L 238.56024,186.41265   L 226.77209,167.83132   C 223.29558,162.4767 220.45843,158.4008 218.22068,155.56365   C 216.02289,152.7265 214.0249,150.72851 212.2267,149.56968   C 210.46847,148.4508 208.67028,147.6516 206.87209,147.21205   C 205.51345,146.93233 203.31566,146.77249 200.27871,146.77249   L 186.57249,146.77249   L 186.57249,186.41265   z  M 186.57249,136.54277   L 211.98694,136.54277   C 217.38152,136.54277 221.57731,135.98333 224.61425,134.86446   C 227.69116,133.78554 229.96887,131.98735 231.56727,129.50984   C 233.16566,127.07229 233.96486,124.39498 233.96486,121.51787   C 233.96486,117.28213 232.40642,113.84558 229.36947,111.12831   C 226.29257,108.41104 221.45743,107.01245 214.82409,107.01245   L 186.57249,107.01245   z  M 257.5012,186.41265   L 257.5012,175.46365   L 303.21526,118.28112   C 306.49196,114.24518 309.56887,110.68875 312.48594,107.69177   L 262.69598,107.69177   L 262.69598,97.182328   L 326.59176,97.182328   L 326.59176,107.69177   L 276.48212,169.58956   L 271.08755,175.86325   L 328.07028,175.86325   L 328.07028,186.41265   z "
     style="fill:#000000;fill-rule:evenodd;fill-opacity:1;stroke:none;" />
</svg>
