<?xml version="1.0" encoding="UTF-8" standalone="no"?>
<svg
   xmlns:dc="http://purl.org/dc/elements/1.1/"
   xmlns:cc="http://creativecommons.org/ns#"
   xmlns:rdf="http://www.w3.org/1999/02/22-rdf-syntax-ns#"
   xmlns:svg="http://www.w3.org/2000/svg"
   xmlns="http://www.w3.org/2000/svg"
   id="svg11"
   height="95.75mm"
   width="95.75mm"
   version="1.0">
  <metadata
     id="metadata15">
    <rdf:RDF>
      <cc:Work
         rdf:about="">
        <dc:format>image/svg+xml</dc:format>
        <dc:type
           rdf:resource="http://purl.org/dc/dcmitype/StillImage" />
      </cc:Work>
    </rdf:RDF>
  </metadata>
  <defs
     id="defs3">
    <pattern
       y="0"
       x="0"
       height="6"
       width="6"
       patternUnits="userSpaceOnUse"
       id="EMFhbasepattern" />
  </defs>
  <path
     id="path5"
     d="  M 54.345381,54.345381   L 54.345381,307.53092   L 307.53092,307.53092   L 307.53092,54.345381   L 54.345381,54.345381   z "
     style="fill:#aaffaa;fill-rule:evenodd;fill-opacity:1;stroke:none;" />
  <path
     id="path7"
     d="  M 54.345381,54.345381   L 307.53092,54.345381   L 307.53092,307.53092   L 54.345381,307.53092   z "
     style="fill:none;stroke:#000000;stroke-width:9.5903616px;stroke-linecap:butt;stroke-linejoin:miter;stroke-miterlimit:10;stroke-dasharray:none;stroke-opacity:1;" />
  <path
     id="path9"
     d="  M 101.41807,203.4755   L 101.41807,141.69759   L 128.83052,141.69759   C 134.34498,141.69759 138.5008,142.25703 141.37791,143.33594   C 144.25502,144.45482 146.53273,146.41285 148.251,149.25   C 149.96927,152.04719 150.80843,155.16405 150.80843,158.56064   C 150.80843,162.91626 149.40984,166.63253 146.57269,169.62952   C 143.73554,172.6265 139.33996,174.54458 133.4259,175.34377   C 135.58373,176.38273 137.22209,177.42168 138.34096,178.42068   C 140.73855,180.61847 143.01626,183.3757 145.13413,186.65241   L 155.88333,203.4755   L 145.61365,203.4755   L 137.42189,190.60843   C 135.0243,186.89217 133.06626,184.05502 131.50783,182.09699   C 129.98936,180.13895 128.59076,178.78032 127.35201,177.98112   C 126.15321,177.18193 124.91446,176.62249 123.63574,176.34277   C 122.71666,176.14297 121.19819,176.02309 119.08032,176.02309   L 109.60984,176.02309   L 109.60984,203.4755   z  M 109.60984,168.9502   L 127.19217,168.9502   C 130.90843,168.9502 133.8255,168.59056 135.94337,167.79136   C 138.06124,167.03213 139.65964,165.79337 140.73855,164.0751   C 141.85743,162.39678 142.37691,160.55863 142.37691,158.56064   C 142.37691,155.64357 141.33795,153.20602 139.22008,151.32791   C 137.10221,149.4498 133.74558,148.53072 129.1502,148.53072   L 109.60984,148.53072   z  M 163.8753,203.4755   L 163.8753,141.69759   L 172.06707,141.69759   L 172.06707,167.07209   L 204.19478,167.07209   L 204.19478,141.69759   L 212.34658,141.69759   L 212.34658,203.4755   L 204.19478,203.4755   L 204.19478,174.34478   L 172.06707,174.34478   L 172.06707,203.4755   z  M 266.49216,141.69759   L 274.68393,141.69759   L 274.68393,177.38172   C 274.68393,183.5755 274.00461,188.53052 272.56606,192.16686   C 271.16747,195.84317 268.65,198.8002 264.97369,201.07791   C 261.29739,203.39558 256.50221,204.51445 250.54819,204.51445   C 244.75401,204.51445 239.99879,203.51546 236.32249,201.51747   C 232.64618,199.55943 230.04879,196.64237 228.4504,192.88614   C 226.89196,189.08996 226.09277,183.93514 226.09277,177.38172   L 226.09277,141.69759   L 234.28453,141.69759   L 234.28453,177.34176   C 234.28453,182.69638 234.76405,186.65241 235.76305,189.20984   C 236.76204,191.76727 238.48032,193.7253 240.91787,195.08393   C 243.35542,196.48253 246.31245,197.16184 249.82891,197.16184   C 255.82289,197.16184 260.13855,195.80321 262.69598,193.04598   C 265.25341,190.32871 266.49216,185.09397 266.49216,177.34176   z "
     style="fill:#000000;fill-rule:evenodd;fill-opacity:1;stroke:none;" />
</svg>
