<?xml version="1.0" encoding="UTF-8" standalone="no"?>
<svg
   xmlns:dc="http://purl.org/dc/elements/1.1/"
   xmlns:cc="http://creativecommons.org/ns#"
   xmlns:rdf="http://www.w3.org/1999/02/22-rdf-syntax-ns#"
   xmlns:svg="http://www.w3.org/2000/svg"
   xmlns="http://www.w3.org/2000/svg"
   id="svg13"
   height="112.9mm"
   width="112.9mm"
   version="1.0">
  <metadata
     id="metadata17">
    <rdf:RDF>
      <cc:Work
         rdf:about="">
        <dc:format>image/svg+xml</dc:format>
        <dc:type
           rdf:resource="http://purl.org/dc/dcmitype/StillImage" />
      </cc:Work>
    </rdf:RDF>
  </metadata>
  <defs
     id="defs3">
    <pattern
       y="0"
       x="0"
       height="6"
       width="6"
       patternUnits="userSpaceOnUse"
       id="EMFhbasepattern" />
  </defs>
  <path
     id="path5"
     d="  M 1816.8403,1817.3195   L 2232.4953,1817.3195  "
     style="fill:none;stroke:#ff0000;stroke-width:10.649107px;stroke-linecap:butt;stroke-linejoin:miter;stroke-miterlimit:282;stroke-dasharray:none;stroke-opacity:1;" />
  <path
     id="path7"
     d="  M 1816.8403,2030.4905   L 2232.4953,2030.4905  "
     style="fill:none;stroke:#ff0000;stroke-width:10.649107px;stroke-linecap:butt;stroke-linejoin:miter;stroke-miterlimit:282;stroke-dasharray:none;stroke-opacity:1;" />
  <path
     id="path9"
     d="  M 1938.4742,1977.2072   L 1938.4742,1878.0043   L 1980.6175,1878.0043   C 1991.2289,1878.0043 1998.9325,1878.9107 2003.7283,1880.6855   C 2008.5242,1882.4604 2012.376,1885.6324 2015.246,1890.2017   C 2018.1537,1894.7333 2019.5887,1899.9445 2019.5887,1905.8355   C 2019.5887,1913.2748 2017.3985,1919.3924 2013.018,1924.2638   C 2008.6375,1929.0974 2002.1045,1932.1562 1993.4191,1933.4401   C 1997.7241,1935.9325 2001.3115,1938.7269 2004.1437,1941.7479   C 2006.9382,1944.769 2010.7522,1950.1313 2015.5481,1957.8349   L 2027.6322,1977.2072   L 2003.6906,1977.2072   L 1989.2274,1955.6069   C 1984.0917,1947.9033 1980.542,1943.0319 1978.6539,1941.0304   C 1976.7657,1939.029 1974.7643,1937.6696 1972.6496,1936.9143   C 1970.5349,1936.159 1967.174,1935.7814 1962.5669,1935.7814   L 1958.4885,1935.7814   L 1958.4885,1977.2072   z  M 1958.4885,1919.9588   L 1973.3293,1919.9588   C 1982.9211,1919.9588 1988.9253,1919.5434 1991.3044,1918.7504   C 1993.7212,1917.9196 1995.5716,1916.5224 1996.931,1914.5587   C 1998.2905,1912.5573 1998.9702,1910.1027 1998.9702,1907.1195   C 1998.9702,1903.7586 1998.0639,1901.0774 1996.2891,1899.0382   C 1994.5142,1896.9613 1991.9841,1895.6773 1988.7365,1895.1487   C 1987.1127,1894.9221 1982.2413,1894.8088 1974.1223,1894.8088   L 1958.4885,1894.8088   z "
     style="fill:#ff0000;fill-rule:nonzero;fill-opacity:1;stroke:none;" />
  <path
     id="path11"
     d="  M 2038.5456,1977.2072   L 2038.5456,1878.0043   L 2070.6818,1878.0043   C 2082.8414,1878.0043 2090.7716,1878.533 2094.4723,1879.5149   C 2100.1745,1880.9876 2104.9326,1884.2352 2108.7467,1889.2199   C 2112.5985,1894.2046 2114.4866,1900.6243 2114.4866,1908.5167   C 2114.4866,1914.6343 2113.3915,1919.7322 2111.2012,1923.8861   C 2108.9732,1928.04 2106.1788,1931.2876 2102.7801,1933.6667   C 2099.3815,1936.0458 2095.9073,1937.594 2092.3954,1938.3493   C 2087.5995,1939.2934 2080.6889,1939.7843 2071.6258,1939.7843   L 2058.5599,1939.7843   L 2058.5599,1977.2072   z  M 2058.5599,1894.8088   L 2058.5599,1922.9421   L 2069.5111,1922.9421   C 2077.4036,1922.9421 2082.6903,1922.4134 2085.3337,1921.3938   C 2088.0149,1920.3364 2090.0918,1918.7126 2091.6024,1916.5224   C 2093.1129,1914.2944 2093.8681,1911.7265 2093.8681,1908.8188   C 2093.8681,1905.1936 2092.8108,1902.2103 2090.6961,1899.869   C 2088.5813,1897.5277 2085.9002,1896.055 2082.6526,1895.4885   C 2080.2358,1895.0354 2075.4399,1894.8088 2068.2272,1894.8088   z "
     style="fill:#ff0000;fill-rule:nonzero;fill-opacity:1;stroke:none;" />
</svg>
