<?xml version="1.0" encoding="UTF-8" standalone="no"?>
<svg
   xmlns:dc="http://purl.org/dc/elements/1.1/"
   xmlns:cc="http://creativecommons.org/ns#"
   xmlns:rdf="http://www.w3.org/1999/02/22-rdf-syntax-ns#"
   xmlns:svg="http://www.w3.org/2000/svg"
   xmlns="http://www.w3.org/2000/svg"
   id="svg13"
   height="112.9mm"
   width="112.9mm"
   version="1.0">
  <metadata
     id="metadata17">
    <rdf:RDF>
      <cc:Work
         rdf:about="">
        <dc:format>image/svg+xml</dc:format>
        <dc:type
           rdf:resource="http://purl.org/dc/dcmitype/StillImage" />
      </cc:Work>
    </rdf:RDF>
  </metadata>
  <defs
     id="defs3">
    <pattern
       y="0"
       x="0"
       height="6"
       width="6"
       patternUnits="userSpaceOnUse"
       id="EMFhbasepattern" />
  </defs>
  <path
     id="path5"
     d="  M 1817.3195,1817.1379   L 1817.3195,2190.121  "
     style="fill:none;stroke:#ffff00;stroke-width:10.649107px;stroke-linecap:butt;stroke-linejoin:miter;stroke-miterlimit:282;stroke-dasharray:none;stroke-opacity:1;" />
  <path
     id="path7"
     d="  M 2030.4905,1817.1379   L 2030.4905,2190.121  "
     style="fill:none;stroke:#ffff00;stroke-width:10.649107px;stroke-linecap:butt;stroke-linejoin:miter;stroke-miterlimit:282;stroke-dasharray:none;stroke-opacity:1;" />
  <path
     id="path9"
     d="  M 1845.0374,2056.9316   L 1845.0374,1965.3568   L 1885.6324,1965.3568   C 1893.7892,1965.3568 1899.9823,1966.1876 1904.2495,1967.8492   C 1908.4789,1969.473 1911.8776,1972.3807 1914.4077,1976.5346   C 1916.9378,1980.7263 1918.2217,1985.2956 1918.2217,1990.3558   C 1918.2217,1996.851 1916.107,2002.3266 1911.9153,2006.7826   C 1907.7237,2011.2386 1901.2285,2014.0708 1892.4297,2015.2792   C 1895.6396,2016.7898 1898.0564,2018.338 1899.718,2019.8108   C 1903.2677,2023.0584 1906.6285,2027.1368 1909.8006,2032.0082   L 1925.6988,2056.9316   L 1910.4803,2056.9316   L 1898.3585,2037.8614   C 1894.8088,2032.3858 1891.9011,2028.1564 1889.6353,2025.2486   C 1887.3318,2022.3409 1885.2926,2020.3017 1883.48,2019.1311   C 1881.6673,2017.9604 1879.817,2017.1674 1877.9288,2016.7142   C 1876.5694,2016.4121 1874.3036,2016.2611 1871.207,2016.2611   L 1857.1593,2016.2611   L 1857.1593,2056.9316   z  M 1857.1593,2005.763   L 1883.1779,2005.763   C 1888.729,2005.763 1893.0717,2005.1966 1896.1683,2004.0637   C 1899.3026,2002.9308 1901.6816,2001.0804 1903.3054,1998.5503   C 1904.9292,1996.058 1905.7222,1993.3013 1905.7222,1990.3558   C 1905.7222,1986.0131 1904.174,1982.4634 1901.0019,1979.6689   C 1897.8676,1976.8745 1892.9207,1975.4773 1886.1233,1975.4773   L 1857.1593,1975.4773   z "
     style="fill:#ffff00;fill-rule:nonzero;fill-opacity:1;stroke:#ffff00;stroke-width:1.0573581px;stroke-linecap:butt;stroke-linejoin:miter;stroke-miterlimit:282;stroke-dasharray:none;stroke-opacity:1;" />
  <path
     id="path11"
     d="  M 1937.2542,2056.9316   L 1937.2542,1965.3568   L 1971.8071,1965.3568   C 1977.8869,1965.3568 1982.5318,1965.6589 1985.7416,1966.2631   C 1990.2354,1966.9806 1993.9739,1968.4156 1997.0327,1970.5303   C 2000.0537,1972.6451 2002.5083,1975.5906 2004.3586,1979.3668   C 2006.209,1983.1431 2007.1531,1987.297 2007.1531,1991.8663   C 2007.1531,1999.6455 2004.6607,2006.2162 1999.7138,2011.6163   C 1994.7669,2017.0163 1985.8171,2019.6975 1972.8645,2019.6975   L 1949.376,2019.6975   L 1949.376,2056.9316   z  M 1949.376,2008.8973   L 1973.0533,2008.8973   C 1980.8702,2008.8973 1986.4213,2007.4246 1989.7067,2004.5169   C 1992.992,2001.6091 1994.6536,1997.493 1994.6536,1992.2062   C 1994.6536,1988.3921 1993.6718,1985.1068 1991.7459,1982.3879   C 1989.82,1979.6689 1987.2521,1977.8563 1984.1178,1976.9878   C 1982.0786,1976.4591 1978.3023,1976.1948 1972.789,1976.1948   L 1949.376,1976.1948   z "
     style="fill:#ffff00;fill-rule:nonzero;fill-opacity:1;stroke:#ffff00;stroke-width:1.0573581px;stroke-linecap:butt;stroke-linejoin:miter;stroke-miterlimit:282;stroke-dasharray:none;stroke-opacity:1;" />
</svg>
