<?xml version="1.0" encoding="UTF-8" standalone="no"?>
<svg
   xmlns:dc="http://purl.org/dc/elements/1.1/"
   xmlns:cc="http://creativecommons.org/ns#"
   xmlns:rdf="http://www.w3.org/1999/02/22-rdf-syntax-ns#"
   xmlns:svg="http://www.w3.org/2000/svg"
   xmlns="http://www.w3.org/2000/svg"
   id="svg13"
   height="130.27mm"
   width="130.27mm"
   version="1.0">
  <metadata
     id="metadata17">
    <rdf:RDF>
      <cc:Work
         rdf:about="">
        <dc:format>image/svg+xml</dc:format>
        <dc:type
           rdf:resource="http://purl.org/dc/dcmitype/StillImage" />
      </cc:Work>
    </rdf:RDF>
  </metadata>
  <defs
     id="defs3">
    <pattern
       y="0"
       x="0"
       height="6"
       width="6"
       patternUnits="userSpaceOnUse"
       id="EMFhbasepattern" />
  </defs>
  <path
     id="path5"
     d="  M 164.63454,327.67068   C 164.63454,437.95983 327.67068,437.95983 327.67068,327.67068   C 437.95983,327.67068 437.95983,164.63454 327.67068,164.63454   C 327.67068,54.345381 164.63454,54.345381 164.63454,164.63454   C 54.345381,164.63454 54.345381,327.67068 164.63454,327.67068   z "
     style="fill:#ffff80;fill-rule:evenodd;fill-opacity:1;stroke:none;" />
  <path
     id="path7"
     d="  M 164.63454,327.67068   C 164.63454,437.95983 327.67068,437.95983 327.67068,327.67068   C 437.95983,327.67068 437.95983,164.63454 327.67068,164.63454   C 327.67068,54.345381 164.63454,54.345381 164.63454,164.63454   C 54.345381,164.63454 54.345381,327.67068 164.63454,327.67068  "
     style="fill:none;stroke:#000000;stroke-width:9.5903616px;stroke-linecap:butt;stroke-linejoin:miter;stroke-miterlimit:10;stroke-dasharray:none;stroke-opacity:1;" />
  <path
     id="path9"
     d="  M 182.53654,264.17449   L 182.53654,214.74417   L 204.4745,214.74417   C 208.87008,214.74417 212.2267,215.18373 214.50441,216.10281   C 216.82209,216.98192 218.62028,218.54036 220.01887,220.77811   C 221.37751,223.05582 222.05682,225.53333 222.05682,228.2506   C 222.05682,231.76706 220.93795,234.72409 218.66024,237.12168   C 216.38253,239.51927 212.86606,241.03775 208.1508,241.6771   C 209.86907,242.51626 211.18775,243.35542 212.06686,244.15461   C 213.98494,245.91285 215.82309,248.11064 217.5014,250.74799   L 226.09277,264.17449   L 217.901,264.17449   L 211.34759,253.90482   C 209.42952,250.94779 207.87108,248.67008 206.63233,247.07168   C 205.39357,245.51325 204.2747,244.43433 203.31566,243.79498   C 202.31666,243.15562 201.31767,242.71606 200.31867,242.4763   C 199.55943,242.31646 198.36064,242.23654 196.68233,242.23654   L 189.08996,242.23654   L 189.08996,264.17449   z  M 189.08996,236.56225   L 203.15582,236.56225   C 206.15281,236.56225 208.47048,236.28253 210.14879,235.64317   C 211.86707,235.04377 213.14578,234.04478 214.0249,232.68614   C 214.86405,231.32751 215.30361,229.84899 215.30361,228.2506   C 215.30361,225.89297 214.46445,223.9749 212.78614,222.49638   C 211.06787,220.97791 208.39056,220.21867 204.71425,220.21867   L 189.08996,220.21867   z  M 232.5263,264.17449   L 232.5263,214.74417   L 239.03976,214.74417   L 239.03976,235.04377   L 264.73393,235.04377   L 264.73393,214.74417   L 271.28735,214.74417   L 271.28735,264.17449   L 264.73393,264.17449   L 264.73393,240.87791   L 239.03976,240.87791   L 239.03976,264.17449   z  M 314.60381,214.74417   L 321.15722,214.74417   L 321.15722,243.31546   C 321.15722,248.27048 320.59779,252.2265 319.47891,255.14357   C 318.36004,258.06064 316.32208,260.45823 313.36506,262.29638   C 310.44799,264.09457 306.61184,265.01365 301.81666,265.01365   C 297.22128,265.01365 293.4251,264.21445 290.46807,262.61606   C 287.51104,261.05763 285.43313,258.73996 284.15441,255.70301   C 282.91566,252.66606 282.2763,248.5502 282.2763,243.31546   L 282.2763,214.74417   L 288.82971,214.74417   L 288.82971,243.2755   C 288.82971,247.59116 289.22931,250.74799 290.02851,252.78594   C 290.82771,254.82389 292.18634,256.38233 294.14437,257.46124   C 296.06245,258.58012 298.46004,259.13955 301.25722,259.13955   C 306.09237,259.13955 309.48895,258.02068 311.5269,255.86285   C 313.60481,253.66506 314.60381,249.46927 314.60381,243.2755   z "
     style="fill:#000000;fill-rule:evenodd;fill-opacity:1;stroke:none;" />
  <path
     id="path11"
     d="  M 390.00803,188.61044   L 390.00803,188.61044   L 351.64658,246.15261   L 390.00803,303.69477  "
     style="fill:none;stroke:#000000;stroke-width:9.5903616px;stroke-linecap:butt;stroke-linejoin:miter;stroke-miterlimit:10;stroke-dasharray:none;stroke-opacity:1;" />
</svg>
