<?xml version="1.0" encoding="UTF-8" standalone="no"?>
<svg
   xmlns:dc="http://purl.org/dc/elements/1.1/"
   xmlns:cc="http://creativecommons.org/ns#"
   xmlns:rdf="http://www.w3.org/1999/02/22-rdf-syntax-ns#"
   xmlns:svg="http://www.w3.org/2000/svg"
   xmlns="http://www.w3.org/2000/svg"
   id="svg15"
   height="89.669998mm"
   width="120.11mm"
   version="1.0">
  <metadata
     id="metadata19">
    <rdf:RDF>
      <cc:Work
         rdf:about="">
        <dc:format>image/svg+xml</dc:format>
        <dc:type
           rdf:resource="http://purl.org/dc/dcmitype/StillImage" />
      </cc:Work>
    </rdf:RDF>
  </metadata>
  <defs
     id="defs3">
    <pattern
       y="0"
       x="0"
       height="6"
       width="6"
       patternUnits="userSpaceOnUse"
       id="EMFhbasepattern" />
  </defs>
  <path
     id="path5"
     d="  M 54.345381,54.345381   L 54.345381,284.51405   L 399.59839,284.51405   L 399.59839,54.345381   L 54.345381,54.345381   z "
     style="fill:#80e0ff;fill-rule:evenodd;fill-opacity:1;stroke:none;" />
  <path
     id="path7"
     d="  M 54.345381,54.345381   L 399.59839,54.345381   L 399.59839,284.51405   L 54.345381,284.51405   z "
     style="fill:none;stroke:#000000;stroke-width:9.5903616px;stroke-linecap:butt;stroke-linejoin:miter;stroke-miterlimit:10;stroke-dasharray:none;stroke-opacity:1;" />
  <path
     id="path9"
     d="  M 163.35582,187.4516   L 163.35582,138.02128   L 185.29377,138.02128   C 189.68935,138.02128 193.04598,138.46084 195.32369,139.37992   C 197.64136,140.25903 199.43956,141.81747 200.83815,144.05522   C 202.19678,146.33293 202.8761,148.81044 202.8761,151.52771   C 202.8761,155.04417 201.75723,158.0012 199.47952,160.39879   C 197.2018,162.79638 193.68534,164.31486 188.97008,164.95421   C 190.68835,165.79337 192.00703,166.63253 192.88614,167.43172   C 194.80421,169.18996 196.64237,171.38775 198.32068,174.0251   L 206.91205,187.4516   L 198.72028,187.4516   L 192.16686,177.18193   C 190.24879,174.2249 188.69036,171.94719 187.4516,170.34879   C 186.21285,168.79036 185.09397,167.71144 184.13494,167.07209   C 183.13594,166.43273 182.13695,165.99317 181.13795,165.75341   C 180.37871,165.59357 179.17992,165.51365 177.5016,165.51365   L 169.90923,165.51365   L 169.90923,187.4516   z  M 169.90923,159.83936   L 183.9751,159.83936   C 186.97209,159.83936 189.28976,159.55964 190.96807,158.92028   C 192.68634,158.32088 193.96506,157.32189 194.84417,155.96325   C 195.68333,154.60462 196.12289,153.1261 196.12289,151.52771   C 196.12289,149.17008 195.28373,147.25201 193.60542,145.77349   C 191.88715,144.25502 189.20984,143.49578 185.53353,143.49578   L 169.90923,143.49578   z  M 213.34558,187.4516   L 213.34558,138.02128   L 219.85903,138.02128   L 219.85903,158.32088   L 245.55321,158.32088   L 245.55321,138.02128   L 252.10662,138.02128   L 252.10662,187.4516   L 245.55321,187.4516   L 245.55321,164.15502   L 219.85903,164.15502   L 219.85903,187.4516   z  M 295.42309,138.02128   L 301.9765,138.02128   L 301.9765,166.59257   C 301.9765,171.54759 301.41706,175.50361 300.29819,178.42068   C 299.17931,181.33775 297.14136,183.73534 294.18433,185.57349   C 291.26726,187.37168 287.43112,188.29076 282.63594,188.29076   C 278.04056,188.29076 274.24437,187.49156 271.28735,185.89317   C 268.33032,184.33474 266.25241,182.01707 264.97369,178.98012   C 263.73494,175.94317 263.09558,171.82731 263.09558,166.59257   L 263.09558,138.02128   L 269.64899,138.02128   L 269.64899,166.55261   C 269.64899,170.86827 270.04859,174.0251 270.84779,176.06305   C 271.64698,178.101 273.00562,179.65944 274.96365,180.73835   C 276.88172,181.85723 279.27931,182.41666 282.0765,182.41666   C 286.91164,182.41666 290.30823,181.29779 292.34618,179.13996   C 294.42409,176.94217 295.42309,172.74638 295.42309,166.55261   z "
     style="fill:#000000;fill-rule:evenodd;fill-opacity:1;stroke:none;" />
  <path
     id="path11"
     d="  M 54.345381,54.345381   L 54.345381,54.345381   L 102.29719,169.42972   L 54.345381,284.51405  "
     style="fill:none;stroke:#000000;stroke-width:9.5903616px;stroke-linecap:butt;stroke-linejoin:miter;stroke-miterlimit:10;stroke-dasharray:none;stroke-opacity:1;" />
  <path
     id="path13"
     d="  M 399.59839,54.345381   L 399.59839,54.345381   L 351.64658,169.42972   L 399.59839,284.51405  "
     style="fill:none;stroke:#000000;stroke-width:9.5903616px;stroke-linecap:butt;stroke-linejoin:miter;stroke-miterlimit:10;stroke-dasharray:none;stroke-opacity:1;" />
</svg>
