<?xml version="1.0" encoding="UTF-8" standalone="no"?>
<svg
   xmlns:dc="http://purl.org/dc/elements/1.1/"
   xmlns:cc="http://creativecommons.org/ns#"
   xmlns:rdf="http://www.w3.org/1999/02/22-rdf-syntax-ns#"
   xmlns:svg="http://www.w3.org/2000/svg"
   xmlns="http://www.w3.org/2000/svg"
   id="svg11"
   height="130.27mm"
   width="130.27mm"
   version="1.0">
  <metadata
     id="metadata15">
    <rdf:RDF>
      <cc:Work
         rdf:about="">
        <dc:format>image/svg+xml</dc:format>
        <dc:type
           rdf:resource="http://purl.org/dc/dcmitype/StillImage" />
      </cc:Work>
    </rdf:RDF>
  </metadata>
  <defs
     id="defs3">
    <pattern
       y="0"
       x="0"
       height="6"
       width="6"
       patternUnits="userSpaceOnUse"
       id="EMFhbasepattern" />
  </defs>
  <path
     id="path5"
     d="  M 164.63454,327.67068   C 164.63454,437.95983 327.67068,437.95983 327.67068,327.67068   C 437.95983,327.67068 437.95983,164.63454 327.67068,164.63454   C 327.67068,54.345381 164.63454,54.345381 164.63454,164.63454   C 54.345381,164.63454 54.345381,327.67068 164.63454,327.67068   z "
     style="fill:#ffff80;fill-rule:evenodd;fill-opacity:1;stroke:none;" />
  <path
     id="path7"
     d="  M 164.63454,327.67068   C 164.63454,437.95983 327.67068,437.95983 327.67068,327.67068   C 437.95983,327.67068 437.95983,164.63454 327.67068,164.63454   C 327.67068,54.345381 164.63454,54.345381 164.63454,164.63454   C 54.345381,164.63454 54.345381,327.67068 164.63454,327.67068  "
     style="fill:none;stroke:#000000;stroke-width:9.5903616px;stroke-linecap:butt;stroke-linejoin:miter;stroke-miterlimit:10;stroke-dasharray:none;stroke-opacity:1;" />
  <path
     id="path9"
     d="  M 166.63253,268.68996   L 166.63253,206.91205   L 194.04498,206.91205   C 199.55943,206.91205 203.71526,207.47148 206.59237,208.5504   C 209.46947,209.66927 211.74719,211.62731 213.46546,214.46445   C 215.18373,217.26164 216.02289,220.37851 216.02289,223.7751   C 216.02289,228.13072 214.62429,231.84698 211.78715,234.84397   C 208.95,237.84096 204.55441,239.75903 198.64036,240.55823   C 200.79819,241.59719 202.43654,242.63614 203.55542,243.63514   C 205.95301,245.83293 208.23072,248.59016 210.34859,251.86686   L 221.09779,268.68996   L 210.82811,268.68996   L 202.63634,255.82289   C 200.23875,252.10662 198.28072,249.26947 196.72229,247.31144   C 195.20381,245.35341 193.80522,243.99478 192.56646,243.19558   C 191.36767,242.39638 190.12891,241.83694 188.8502,241.55723   C 187.93112,241.35743 186.41265,241.23755 184.29478,241.23755   L 174.82429,241.23755   L 174.82429,268.68996   z  M 174.82429,234.16466   L 192.40662,234.16466   C 196.12289,234.16466 199.03996,233.80502 201.15783,233.00582   C 203.2757,232.24658 204.87409,231.00783 205.95301,229.28955   C 207.07188,227.61124 207.59136,225.77309 207.59136,223.7751   C 207.59136,220.85803 206.55241,218.42048 204.43454,216.54237   C 202.31666,214.66425 198.96004,213.74518 194.36466,213.74518   L 174.82429,213.74518   z  M 229.08976,268.68996   L 229.08976,206.91205   L 237.28152,206.91205   L 237.28152,232.28654   L 269.40923,232.28654   L 269.40923,206.91205   L 277.56104,206.91205   L 277.56104,268.68996   L 269.40923,268.68996   L 269.40923,239.55923   L 237.28152,239.55923   L 237.28152,268.68996   z  M 331.70662,206.91205   L 339.89839,206.91205   L 339.89839,242.59618   C 339.89839,248.78996 339.21907,253.74498 337.78052,257.38132   C 336.38192,261.05763 333.86445,264.01465 330.18815,266.29237   C 326.51184,268.61004 321.71666,269.72891 315.76265,269.72891   C 309.96847,269.72891 305.21325,268.72992 301.53694,266.73192   C 297.86064,264.77389 295.26325,261.85682 293.66486,258.1006   C 292.10642,254.30441 291.30722,249.14959 291.30722,242.59618   L 291.30722,206.91205   L 299.49899,206.91205   L 299.49899,242.55622   C 299.49899,247.91084 299.97851,251.86686 300.97751,254.42429   C 301.9765,256.98172 303.69477,258.93976 306.13232,260.29839   C 308.56988,261.69698 311.5269,262.3763 315.04337,262.3763   C 321.03734,262.3763 325.35301,261.01767 327.91044,258.26044   C 330.46787,255.54317 331.70662,250.30843 331.70662,242.55622   z "
     style="fill:#000000;fill-rule:evenodd;fill-opacity:1;stroke:none;" />
</svg>
