<?xml version="1.0" encoding="UTF-8" standalone="no"?>
<svg
   xmlns:dc="http://purl.org/dc/elements/1.1/"
   xmlns:cc="http://creativecommons.org/ns#"
   xmlns:rdf="http://www.w3.org/1999/02/22-rdf-syntax-ns#"
   xmlns:svg="http://www.w3.org/2000/svg"
   xmlns="http://www.w3.org/2000/svg"
   id="svg13"
   height="95.75mm"
   width="95.75mm"
   version="1.0">
  <metadata
     id="metadata17">
    <rdf:RDF>
      <cc:Work
         rdf:about="">
        <dc:format>image/svg+xml</dc:format>
        <dc:type
           rdf:resource="http://purl.org/dc/dcmitype/StillImage" />
      </cc:Work>
    </rdf:RDF>
  </metadata>
  <defs
     id="defs3">
    <pattern
       y="0"
       x="0"
       height="6"
       width="6"
       patternUnits="userSpaceOnUse"
       id="EMFhbasepattern" />
  </defs>
  <path
     id="path5"
     d="  M 54.345381,54.345381   L 54.345381,307.53092   L 307.53092,307.53092   L 307.53092,54.345381   L 54.345381,54.345381   z "
     style="fill:#aaffaa;fill-rule:evenodd;fill-opacity:1;stroke:none;" />
  <path
     id="path7"
     d="  M 54.345381,54.345381   L 307.53092,54.345381   L 307.53092,307.53092   L 54.345381,307.53092   z "
     style="fill:none;stroke:#000000;stroke-width:9.5903616px;stroke-linecap:butt;stroke-linejoin:miter;stroke-miterlimit:10;stroke-dasharray:none;stroke-opacity:1;" />
  <path
     id="path9"
     d="  M 117.32209,198.96004   L 117.32209,149.52972   L 139.26004,149.52972   C 143.65562,149.52972 147.01225,149.96927 149.28996,150.88835   C 151.60763,151.76747 153.40582,153.3259 154.80442,155.56365   C 156.16305,157.84136 156.84237,160.31887 156.84237,163.03614   C 156.84237,166.55261 155.72349,169.50964 153.44578,171.90723   C 151.16807,174.30482 147.6516,175.82329 142.93634,176.46265   C 144.65462,177.3018 145.97329,178.14096 146.85241,178.94016   C 148.77048,180.69839 150.60863,182.89618 152.28695,185.53353   L 160.87831,198.96004   L 152.68654,198.96004   L 146.13313,188.69036   C 144.21506,185.73333 142.65662,183.45562 141.41787,181.85723   C 140.17911,180.29879 139.06024,179.21988 138.1012,178.58052   C 137.10221,177.94116 136.10321,177.5016 135.10421,177.26184   C 134.34498,177.10201 133.14618,177.02209 131.46787,177.02209   L 123.8755,177.02209   L 123.8755,198.96004   z  M 123.8755,171.34779   L 137.94136,171.34779   C 140.93835,171.34779 143.25602,171.06807 144.93434,170.42871   C 146.65261,169.82931 147.93132,168.83032 148.81044,167.47168   C 149.6496,166.11305 150.08915,164.63454 150.08915,163.03614   C 150.08915,160.67851 149.25,158.76044 147.57168,157.28193   C 145.85341,155.76345 143.1761,155.00421 139.4998,155.00421   L 123.8755,155.00421   z  M 167.31184,198.96004   L 167.31184,149.52972   L 173.8253,149.52972   L 173.8253,169.82931   L 199.51948,169.82931   L 199.51948,149.52972   L 206.07289,149.52972   L 206.07289,198.96004   L 199.51948,198.96004   L 199.51948,175.66345   L 173.8253,175.66345   L 173.8253,198.96004   z  M 249.38935,149.52972   L 255.94277,149.52972   L 255.94277,178.101   C 255.94277,183.05602 255.38333,187.01205 254.26445,189.92911   C 253.14558,192.84618 251.10763,195.24377 248.1506,197.08192   C 245.23353,198.88012 241.39739,199.79919 236.60221,199.79919   C 232.00682,199.79919 228.21064,199 225.25361,197.4016   C 222.29658,195.84317 220.21867,193.5255 218.93996,190.48855   C 217.7012,187.4516 217.06184,183.33574 217.06184,178.101   L 217.06184,149.52972   L 223.61526,149.52972   L 223.61526,178.06104   C 223.61526,182.3767 224.01486,185.53353 224.81405,187.57148   C 225.61325,189.60944 226.97188,191.16787 228.92992,192.24678   C 230.84799,193.36566 233.24558,193.9251 236.04277,193.9251   C 240.87791,193.9251 244.27449,192.80622 246.31245,190.64839   C 248.39036,188.4506 249.38935,184.25482 249.38935,178.06104   z "
     style="fill:#000000;fill-rule:evenodd;fill-opacity:1;stroke:none;" />
  <path
     id="path11"
     d="  M 307.53092,54.345381   L 307.53092,54.345381   L 272.04658,180.93815   L 307.53092,307.53092  "
     style="fill:none;stroke:#000000;stroke-width:9.5903616px;stroke-linecap:butt;stroke-linejoin:miter;stroke-miterlimit:10;stroke-dasharray:none;stroke-opacity:1;" />
</svg>
