<?xml version="1.0" encoding="UTF-8" standalone="no"?>
<svg
   xmlns:dc="http://purl.org/dc/elements/1.1/"
   xmlns:cc="http://creativecommons.org/ns#"
   xmlns:rdf="http://www.w3.org/1999/02/22-rdf-syntax-ns#"
   xmlns:svg="http://www.w3.org/2000/svg"
   xmlns="http://www.w3.org/2000/svg"
   id="svg13"
   height="117.75mm"
   width="79.510002mm"
   version="1.0">
  <metadata
     id="metadata17">
    <rdf:RDF>
      <cc:Work
         rdf:about="">
        <dc:format>image/svg+xml</dc:format>
        <dc:type
           rdf:resource="http://purl.org/dc/dcmitype/StillImage" />
      </cc:Work>
    </rdf:RDF>
  </metadata>
  <defs
     id="defs3">
    <pattern
       y="0"
       x="0"
       height="6"
       width="6"
       patternUnits="userSpaceOnUse"
       id="EMFhbasepattern" />
  </defs>
  <path
     id="path5"
     d="  M 54.345381,54.665059   L 54.345381,390.32771  "
     style="fill:none;stroke:#000000;stroke-width:9.5903616px;stroke-linecap:butt;stroke-linejoin:miter;stroke-miterlimit:10;stroke-dasharray:none;stroke-opacity:1;" />
  <path
     id="path7"
     d="  M 246.15261,54.665059   L 246.15261,390.32771  "
     style="fill:none;stroke:#000000;stroke-width:9.5903616px;stroke-linecap:butt;stroke-linejoin:miter;stroke-miterlimit:10;stroke-dasharray:none;stroke-opacity:1;" />
  <path
     id="path9"
     d="  M 86.433131,259.57911   L 86.433131,177.18193   L 122.95642,177.18193   C 130.30903,177.18193 135.86345,177.94116 139.6996,179.41968   C 143.53574,180.89819 146.57269,183.49558 148.8504,187.2518   C 151.12811,191.00803 152.28695,195.12389 152.28695,199.67931   C 152.28695,205.51345 150.40883,210.42851 146.61265,214.46445   C 142.81646,218.46044 136.98233,221.01787 129.07028,222.09678   C 131.94739,223.45542 134.14518,224.85401 135.66365,226.17269   C 138.82048,229.12972 141.85743,232.76606 144.69458,237.16164   L 159.04016,259.57911   L 145.33393,259.57911   L 134.4249,242.43634   C 131.22811,237.48132 128.63072,233.68514 126.55281,231.08775   C 124.4749,228.4504 122.63675,226.61225 120.99839,225.57329   C 119.4,224.53433 117.72169,223.7751 116.04337,223.3755   C 114.80462,223.13574 112.76667,222.9759 109.96948,222.9759   L 97.342167,222.9759   L 97.342167,259.57911   z  M 97.342167,213.54538   L 120.75863,213.54538   C 125.75361,213.54538 129.62972,213.0259 132.46687,211.98694   C 135.26405,210.98795 137.38193,209.30964 138.86044,207.07188   C 140.29899,204.79417 141.05823,202.31666 141.05823,199.67931   C 141.05823,195.76325 139.61968,192.56646 136.82249,190.04899   C 133.98534,187.53152 129.50984,186.29277 123.39598,186.29277   L 97.342167,186.29277   z  M 169.3498,259.57911   L 169.3498,177.18193   L 200.43855,177.18193   C 205.91305,177.18193 210.10883,177.46164 212.98594,177.98112   C 217.02188,178.66044 220.41847,179.93915 223.13574,181.81727   C 225.89297,183.73534 228.09076,186.37269 229.76907,189.76927   C 231.40743,193.20582 232.24658,196.92209 232.24658,200.99799   C 232.24658,208.03092 230.00883,213.94498 225.57329,218.82008   C 221.09779,223.65522 213.06586,226.09277 201.39759,226.09277   L 180.25883,226.09277   L 180.25883,259.57911   z  M 180.25883,216.34257   L 201.55743,216.34257   C 208.63032,216.34257 213.6253,215.06385 216.58233,212.4265   C 219.53935,209.78915 221.01787,206.11285 221.01787,201.35763   C 221.01787,197.92108 220.13875,194.96405 218.38052,192.48654   C 216.66225,190.04899 214.34458,188.41064 211.50743,187.6514   C 209.66927,187.17188 206.27269,186.89217 201.35763,186.89217   L 180.25883,186.89217   z "
     style="fill:#000000;fill-rule:evenodd;fill-opacity:1;stroke:none;" />
  <path
     id="path11"
     d="  M 86.433131,259.57911   L 86.433131,177.18193   L 122.95642,177.18193   C 130.30903,177.18193 135.86345,177.94116 139.6996,179.41968   C 143.53574,180.89819 146.57269,183.49558 148.8504,187.2518   C 151.12811,191.00803 152.28695,195.12389 152.28695,199.67931   C 152.28695,205.51345 150.40883,210.42851 146.61265,214.46445   C 142.81646,218.46044 136.98233,221.01787 129.07028,222.09678   C 131.94739,223.45542 134.14518,224.85401 135.66365,226.17269   C 138.82048,229.12972 141.85743,232.76606 144.69458,237.16164   L 159.04016,259.57911   L 145.33393,259.57911   L 134.4249,242.43634   C 131.22811,237.48132 128.63072,233.68514 126.55281,231.08775   C 124.4749,228.4504 122.63675,226.61225 120.99839,225.57329   C 119.4,224.53433 117.72169,223.7751 116.04337,223.3755   C 114.80462,223.13574 112.76667,222.9759 109.96948,222.9759   L 97.342167,222.9759   L 97.342167,259.57911   z  M 97.342167,213.54538   L 120.75863,213.54538   C 125.75361,213.54538 129.62972,213.0259 132.46687,211.98694   C 135.26405,210.98795 137.38193,209.30964 138.86044,207.07188   C 140.29899,204.79417 141.05823,202.31666 141.05823,199.67931   C 141.05823,195.76325 139.61968,192.56646 136.82249,190.04899   C 133.98534,187.53152 129.50984,186.29277 123.39598,186.29277   L 97.342167,186.29277   z  M 169.3498,259.57911   L 169.3498,177.18193   L 200.43855,177.18193   C 205.91305,177.18193 210.10883,177.46164 212.98594,177.98112   C 217.02188,178.66044 220.41847,179.93915 223.13574,181.81727   C 225.89297,183.73534 228.09076,186.37269 229.76907,189.76927   C 231.40743,193.20582 232.24658,196.92209 232.24658,200.99799   C 232.24658,208.03092 230.00883,213.94498 225.57329,218.82008   C 221.09779,223.65522 213.06586,226.09277 201.39759,226.09277   L 180.25883,226.09277   L 180.25883,259.57911   z  M 180.25883,216.34257   L 201.55743,216.34257   C 208.63032,216.34257 213.6253,215.06385 216.58233,212.4265   C 219.53935,209.78915 221.01787,206.11285 221.01787,201.35763   C 221.01787,197.92108 220.13875,194.96405 218.38052,192.48654   C 216.66225,190.04899 214.34458,188.41064 211.50743,187.6514   C 209.66927,187.17188 206.27269,186.89217 201.35763,186.89217   L 180.25883,186.89217   z "
     style="fill:none;stroke:#000000;stroke-width:0.95903611px;stroke-linecap:butt;stroke-linejoin:miter;stroke-miterlimit:10;stroke-dasharray:none;stroke-opacity:1;" />
</svg>
