<?xml version="1.0" encoding="UTF-8" standalone="no"?>
<svg
   xmlns:dc="http://purl.org/dc/elements/1.1/"
   xmlns:cc="http://creativecommons.org/ns#"
   xmlns:rdf="http://www.w3.org/1999/02/22-rdf-syntax-ns#"
   xmlns:svg="http://www.w3.org/2000/svg"
   xmlns="http://www.w3.org/2000/svg"
   id="svg11"
   height="89.669998mm"
   width="120.11mm"
   version="1.0">
  <metadata
     id="metadata15">
    <rdf:RDF>
      <cc:Work
         rdf:about="">
        <dc:format>image/svg+xml</dc:format>
        <dc:type
           rdf:resource="http://purl.org/dc/dcmitype/StillImage" />
      </cc:Work>
    </rdf:RDF>
  </metadata>
  <defs
     id="defs3">
    <pattern
       y="0"
       x="0"
       height="6"
       width="6"
       patternUnits="userSpaceOnUse"
       id="EMFhbasepattern" />
  </defs>
  <path
     id="path5"
     d="  M 54.345381,54.345381   L 54.345381,284.51405   L 399.59839,284.51405   L 399.59839,54.345381   L 54.345381,54.345381   z "
     style="fill:#80e0ff;fill-rule:evenodd;fill-opacity:1;stroke:none;" />
  <path
     id="path7"
     d="  M 54.345381,54.345381   L 399.59839,54.345381   L 399.59839,284.51405   L 54.345381,284.51405   z "
     style="fill:none;stroke:#000000;stroke-width:9.5903616px;stroke-linecap:butt;stroke-linejoin:miter;stroke-miterlimit:10;stroke-dasharray:none;stroke-opacity:1;" />
  <path
     id="path9"
     d="  M 147.45181,191.96707   L 147.45181,130.18915   L 174.86425,130.18915   C 180.37871,130.18915 184.53454,130.74859 187.41164,131.82751   C 190.28875,132.94638 192.56646,134.90442 194.28474,137.74156   C 196.00301,140.53875 196.84217,143.65562 196.84217,147.05221   C 196.84217,151.40783 195.44357,155.12409 192.60642,158.12108   C 189.76927,161.11807 185.37369,163.03614 179.45964,163.83534   C 181.61747,164.87429 183.25582,165.91325 184.3747,166.91225   C 186.77229,169.11004 189.05,171.86727 191.16787,175.14397   L 201.91707,191.96707   L 191.64739,191.96707   L 183.45562,179.1   C 181.05803,175.38373 179.1,172.54658 177.54156,170.58855   C 176.02309,168.63052 174.6245,167.27189 173.38574,166.47269   C 172.18695,165.67349 170.94819,165.11405 169.66948,164.83433   C 168.7504,164.63454 167.23193,164.51466 165.11405,164.51466   L 155.64357,164.51466   L 155.64357,191.96707   z  M 155.64357,157.44176   L 173.2259,157.44176   C 176.94217,157.44176 179.85923,157.08213 181.97711,156.28293   C 184.09498,155.52369 185.69337,154.28494 186.77229,152.56666   C 187.89116,150.88835 188.41064,149.0502 188.41064,147.05221   C 188.41064,144.13514 187.37168,141.69759 185.25381,139.81948   C 183.13594,137.94136 179.77931,137.02229 175.18393,137.02229   L 155.64357,137.02229   z  M 209.90903,191.96707   L 209.90903,130.18915   L 218.1008,130.18915   L 218.1008,155.56365   L 250.22851,155.56365   L 250.22851,130.18915   L 258.38032,130.18915   L 258.38032,191.96707   L 250.22851,191.96707   L 250.22851,162.83634   L 218.1008,162.83634   L 218.1008,191.96707   z  M 312.5259,130.18915   L 320.71767,130.18915   L 320.71767,165.87329   C 320.71767,172.06707 320.03835,177.02209 318.59979,180.65843   C 317.2012,184.33474 314.68373,187.29176 311.00743,189.56948   C 307.33112,191.88715 302.53594,193.00602 296.58192,193.00602   C 290.78775,193.00602 286.03253,192.00703 282.35622,190.00903   C 278.67992,188.051 276.08253,185.13393 274.48413,181.37771   C 272.9257,177.58152 272.1265,172.4267 272.1265,165.87329   L 272.1265,130.18915   L 280.31827,130.18915   L 280.31827,165.83333   C 280.31827,171.18795 280.79779,175.14397 281.79678,177.7014   C 282.79578,180.25883 284.51405,182.21686 286.9516,183.5755   C 289.38915,184.97409 292.34618,185.65341 295.86265,185.65341   C 301.85662,185.65341 306.17228,184.29478 308.72971,181.53755   C 311.28714,178.82028 312.5259,173.58554 312.5259,165.83333   z "
     style="fill:#000000;fill-rule:evenodd;fill-opacity:1;stroke:none;" />
</svg>
