<?xml version="1.0" encoding="UTF-8" standalone="no"?>
<svg
   xmlns:dc="http://purl.org/dc/elements/1.1/"
   xmlns:cc="http://creativecommons.org/ns#"
   xmlns:rdf="http://www.w3.org/1999/02/22-rdf-syntax-ns#"
   xmlns:svg="http://www.w3.org/2000/svg"
   xmlns="http://www.w3.org/2000/svg"
   id="svg7"
   height="50.93mm"
   width="83.919998mm"
   version="1.0">
  <metadata
     id="metadata11">
    <rdf:RDF>
      <cc:Work
         rdf:about="">
        <dc:format>image/svg+xml</dc:format>
        <dc:type
           rdf:resource="http://purl.org/dc/dcmitype/StillImage" />
      </cc:Work>
    </rdf:RDF>
  </metadata>
  <defs
     id="defs3">
    <pattern
       y="0"
       x="0"
       height="6"
       width="6"
       patternUnits="userSpaceOnUse"
       id="EMFhbasepattern" />
  </defs>
  <path
     id="path5"
     d="  M 133.10622,24.974899   C 133.10622,16.783132 140.09919,14.225703 140.09919,7.9120481   C 140.09919,3.7961847 137.9014,1.7981927 135.46385,0.11987952   C 124.63474,1.0389558 110.00944,2.5973895 106.49297,10.709237   C 104.45502,15.344578 104.5749,20.419478 101.85763,26.253614   C 99.939557,30.289558 97.462047,35.843975 97.462047,41.238554   C 97.462047,44.63514 98.980521,44.075702 98.980521,47.472288   L 98.980521,50.549196   C 98.980521,59.020682 89.709838,64.215461 96.66285,74.605019   C 95.903613,75.723894 88.750802,80.878714 87.392167,81.597991   C 80.559035,85.274296 80.159437,79.24036 77.282328,79.24036   L 74.165461,79.24036   L 73.206425,74.644979   C 71.088553,73.366264 69.33032,71.488152 66.413252,71.488152   C 63.456224,71.488152 63.216465,73.526103 64.095581,75.364256   L 55.584136,77.042569   L 52.307429,86.153412   L 56.343373,86.233332   C 59.819879,86.233332 61.777911,88.071485 62.537148,90.868673   L 56.623092,95.104416   L 56.343373,97.102408   C 67.492168,98.021485 74.724899,94.704818 84.874698,92.267268   C 90.748794,90.828714 111.60783,89.669878 113.7257,88.551003   L 114.08534,79.999597   C 117.76164,80.878714 121.87751,84.714858 126.03333,86.353212   C 130.50883,88.071485 132.66666,89.510039 138.42088,91.028513   C 147.97128,93.625902 156.20301,95.543975 168.79036,95.543975   L 171.14799,95.543975   L 195.20381,93.386143   C 195.16385,103.81566 204.19478,103.1763 206.03293,111.04839   C 200.43855,109.76968 196.64237,103.29618 192.08695,103.29618   C 191.84719,103.29618 190.64839,103.81566 189.72931,104.05542   L 190.68835,108.69076   L 184.33474,109.52992   L 184.29478,112.60683   L 187.01205,114.5249   L 183.29578,116.96245   L 187.09197,120.75863   C 186.41265,124.11526 184.29478,122.95642 184.29478,125.79357   C 184.29478,127.59177 184.85421,128.11124 186.65241,128.11124   C 189.20984,128.11124 193.04598,124.23514 197.48152,124.23514   C 204.71425,124.23514 230.08875,127.47189 230.08875,121.11827   L 230.08875,120.35903   C 230.08875,114.40502 216.54237,114.04538 216.902,98.660842   C 236.802,109.17028 253.8249,128.11124 234.88393,152.28695   C 228.77008,160.07911 218.74016,166.43273 208.47048,170.10903   C 202.95602,172.06707 179.06004,177.3018 171.42771,175.90321   C 154.88434,172.90622 150.16907,172.74638 136.74257,166.35281   C 126.51285,161.51767 118.2012,156.52269 108.93052,150.76847   C 93.625902,141.25803 69.4502,126.55281 45.474297,126.55281   C 25.654216,126.55281 0.47951807,139.06024 0.47951807,157.6016   C 5.1148594,155.12409 5.4345381,152.5267 8.7911645,148.8504   C 10.789156,146.65261 15.744176,143.81546 18.341566,142.05723   C 24.335542,138.02128 33.766064,135.10421 43.915863,135.10421   L 47.791967,135.10421   C 65.014658,135.10421 93.825701,153.88534 105.21426,161.47771   C 123.0763,173.38574 137.22209,182.89618 163.03614,187.37168   C 190.92811,192.24678 213.30562,187.13193 231.88694,176.46265   C 239.43935,172.10703 248.90984,163.4757 253.66506,156.36285   C 257.701,150.40883 265.41325,135.22409 264.21445,124.99438   L 263.01566,114.96446   C 264.01465,115.36405 274.16445,129.70964 277.28132,132.86646   C 280.43815,136.02329 292.34618,142.85642 298.34016,142.85642   C 302.13634,142.85642 315.40301,134.10522 316.96144,131.22811   L 311.60682,128.67068   L 316.402,124.51486   C 310.52791,120.47891 313.40502,121.91747 306.8516,121.91747   L 302.9755,121.91747   C 302.9755,116.36305 301.81666,114.80462 297.54096,115.72369   L 298.42008,116.12329   L 291.8267,129.50984   C 286.15241,129.66968 280.07851,126.15321 277.68092,122.39699   C 277.56104,122.23715 272.44618,107.61185 272.24638,106.85261   C 270.16847,99.300199 269.92871,98.181324 265.21345,92.986545   C 260.37831,87.711846 257.82088,88.351204 251.78694,85.474095   L 251.42731,87.871685   C 249.14959,80.798794 227.09176,62.417268 219.73915,58.541164   C 211.22771,54.065662 207.19176,53.706023 196.24277,51.787951   C 187.89116,50.349397 175.06405,52.786947 168.79036,49.789959   C 170.38875,43.795983 175.02409,47.592168 175.02409,41.238554   C 175.02409,39.320481 172.30682,39.68012 170.34879,39.68012   C 172.54658,35.084738 169.3498,35.804016 164.91425,35.804016   C 165.43373,34.844979 166.47269,33.246586 166.47269,31.927911   C 166.47269,30.848996 165.43373,30.369477 164.15502,30.369477   C 162.31687,30.369477 164.11506,32.607228 158.72048,32.727108   C 157.76144,28.691164 158.04116,27.37249 153.28594,27.29257   L 153.28594,33.486345   L 147.8514,33.486345   L 147.8514,35.804016   C 147.8514,38.920883 150.48875,41.957831 151.72751,44.355421   C 150.32891,47.272489 150.64859,52.10763 146.29297,52.10763   C 144.09518,52.10763 139.14016,46.153614 134.2251,44.755019   C 128.83052,43.276505 122.27711,46.912851 122.27711,38.920883   C 122.27711,35.204618 130.46887,28.890963 133.10622,24.974899   z "
     style="fill:#1f1a17;fill-rule:evenodd;fill-opacity:1;stroke:none;" />
</svg>
