<?xml version="1.0" encoding="UTF-8" standalone="no"?>
<svg
   xmlns:dc="http://purl.org/dc/elements/1.1/"
   xmlns:cc="http://creativecommons.org/ns#"
   xmlns:rdf="http://www.w3.org/1999/02/22-rdf-syntax-ns#"
   xmlns:svg="http://www.w3.org/2000/svg"
   xmlns="http://www.w3.org/2000/svg"
   id="svg13"
   height="112.9mm"
   width="112.9mm"
   version="1.0">
  <metadata
     id="metadata17">
    <rdf:RDF>
      <cc:Work
         rdf:about="">
        <dc:format>image/svg+xml</dc:format>
        <dc:type
           rdf:resource="http://purl.org/dc/dcmitype/StillImage" />
      </cc:Work>
    </rdf:RDF>
  </metadata>
  <defs
     id="defs3">
    <pattern
       y="0"
       x="0"
       height="6"
       width="6"
       patternUnits="userSpaceOnUse"
       id="EMFhbasepattern" />
  </defs>
  <path
     id="path5"
     d="  M 1816.8403,1817.3195   L 2232.4953,1817.3195  "
     style="fill:none;stroke:#00ff00;stroke-width:10.649107px;stroke-linecap:butt;stroke-linejoin:miter;stroke-miterlimit:282;stroke-dasharray:none;stroke-opacity:1;" />
  <path
     id="path7"
     d="  M 1816.8403,2030.4905   L 2232.4953,2030.4905  "
     style="fill:none;stroke:#00ff00;stroke-width:10.649107px;stroke-linecap:butt;stroke-linejoin:miter;stroke-miterlimit:282;stroke-dasharray:none;stroke-opacity:1;" />
  <path
     id="path9"
     d="  M 1938.4742,1977.2072   L 1938.4742,1878.0043   L 1980.6175,1878.0043   C 1991.2289,1878.0043 1998.9325,1878.9107 2003.7283,1880.6855   C 2008.5242,1882.4604 2012.376,1885.6324 2015.246,1890.2017   C 2018.1537,1894.7333 2019.5887,1899.9445 2019.5887,1905.8355   C 2019.5887,1913.2748 2017.3985,1919.3924 2013.018,1924.2638   C 2008.6375,1929.0974 2002.1045,1932.1562 1993.4191,1933.4401   C 1997.7241,1935.9325 2001.3115,1938.7269 2004.1437,1941.7479   C 2006.9382,1944.769 2010.7522,1950.1313 2015.5481,1957.8349   L 2027.6322,1977.2072   L 2003.6906,1977.2072   L 1989.2274,1955.6069   C 1984.0917,1947.9033 1980.542,1943.0319 1978.6539,1941.0304   C 1976.7657,1939.029 1974.7643,1937.6696 1972.6496,1936.9143   C 1970.5349,1936.159 1967.174,1935.7814 1962.5669,1935.7814   L 1958.4885,1935.7814   L 1958.4885,1977.2072   z  M 1958.4885,1919.9588   L 1973.3293,1919.9588   C 1982.9211,1919.9588 1988.9253,1919.5434 1991.3044,1918.7504   C 1993.7212,1917.9196 1995.5716,1916.5224 1996.931,1914.5587   C 1998.2905,1912.5573 1998.9702,1910.1027 1998.9702,1907.1195   C 1998.9702,1903.7586 1998.0639,1901.0774 1996.2891,1899.0382   C 1994.5142,1896.9613 1991.9841,1895.6773 1988.7365,1895.1487   C 1987.1127,1894.9221 1982.2413,1894.8088 1974.1223,1894.8088   L 1958.4885,1894.8088   z "
     style="fill:#00ff00;fill-rule:nonzero;fill-opacity:1;stroke:none;" />
  <path
     id="path11"
     d="  M 2033.4477,1944.92   L 2052.9333,1943.0319   C 2054.1039,1949.5648 2056.483,1954.3607 2060.0704,1957.4573   C 2063.6579,1960.516 2068.4915,1962.0266 2074.6091,1962.0266   C 2081.0288,1962.0266 2085.9002,1960.6671 2089.1855,1957.9482   C 2092.4331,1955.2293 2094.0569,1952.0194 2094.0569,1948.3942   C 2094.0569,1946.0151 2093.3772,1944.0515 2092.0178,1942.3899   C 2090.6205,1940.7283 2088.2415,1939.2934 2084.8051,1938.0849   C 2082.4638,1937.2919 2077.1014,1935.8192 2068.7559,1933.78   C 2058.0312,1931.0988 2050.5164,1927.8512 2046.1737,1923.9617   C 2040.0939,1918.4861 2037.0351,1911.8398 2037.0351,1903.9851   C 2037.0351,1898.9627 2038.4701,1894.2046 2041.3401,1889.8241   C 2044.2101,1885.4436 2048.3262,1882.0827 2053.7263,1879.7792   C 2059.1264,1877.4757 2065.6216,1876.3428 2073.2496,1876.3428   C 2085.6736,1876.3428 2095.0388,1879.0617 2101.3452,1884.4995   C 2107.6515,1889.9752 2110.9369,1897.2634 2111.2768,1906.3642   L 2091.2247,1907.2327   C 2090.394,1902.1348 2088.5436,1898.4718 2085.7114,1896.2438   C 2082.9169,1894.0158 2078.6875,1892.9207 2073.0231,1892.9207   C 2067.2076,1892.9207 2062.6761,1894.0913 2059.3529,1896.4704   C 2057.2382,1898.0186 2056.1809,1900.0578 2056.1809,1902.6257   C 2056.1809,1905.0047 2057.2005,1907.0062 2059.1641,1908.6677   C 2061.6942,1910.7825 2067.8118,1913.0105 2077.5546,1915.2762   C 2087.2974,1917.5798 2094.5101,1919.9588 2099.1927,1922.4134   C 2103.8375,1924.9057 2107.5005,1928.2666 2110.1439,1932.4961   C 2112.7873,1936.7632 2114.109,1942.05 2114.109,1948.3187   C 2114.109,1953.9831 2112.5229,1959.3076 2109.3509,1964.2546   C 2106.2166,1969.2392 2101.7606,1972.94 2095.9828,1975.3191   C 2090.2051,1977.7359 2082.9924,1978.9443 2074.3825,1978.9443   C 2061.8453,1978.9443 2052.2158,1976.0743 2045.494,1970.2588   C 2038.7722,1964.4811 2034.7694,1956.0223 2033.4477,1944.92   z "
     style="fill:#00ff00;fill-rule:nonzero;fill-opacity:1;stroke:none;" />
</svg>
