<?xml version="1.0" encoding="UTF-8" standalone="no"?>
<svg
   xmlns:dc="http://purl.org/dc/elements/1.1/"
   xmlns:cc="http://creativecommons.org/ns#"
   xmlns:rdf="http://www.w3.org/1999/02/22-rdf-syntax-ns#"
   xmlns:svg="http://www.w3.org/2000/svg"
   xmlns="http://www.w3.org/2000/svg"
   id="svg13"
   height="112.9mm"
   width="112.9mm"
   version="1.0">
  <metadata
     id="metadata17">
    <rdf:RDF>
      <cc:Work
         rdf:about="">
        <dc:format>image/svg+xml</dc:format>
        <dc:type
           rdf:resource="http://purl.org/dc/dcmitype/StillImage" />
      </cc:Work>
    </rdf:RDF>
  </metadata>
  <defs
     id="defs3">
    <pattern
       y="0"
       x="0"
       height="6"
       width="6"
       patternUnits="userSpaceOnUse"
       id="EMFhbasepattern" />
  </defs>
  <path
     id="path5"
     d="  M 1817.3195,1817.1379   L 1817.3195,2190.121  "
     style="fill:none;stroke:#ffff00;stroke-width:10.649107px;stroke-linecap:butt;stroke-linejoin:miter;stroke-miterlimit:282;stroke-dasharray:none;stroke-opacity:1;" />
  <path
     id="path7"
     d="  M 2030.4905,1817.1379   L 2030.4905,2190.121  "
     style="fill:none;stroke:#ffff00;stroke-width:10.649107px;stroke-linecap:butt;stroke-linejoin:miter;stroke-miterlimit:282;stroke-dasharray:none;stroke-opacity:1;" />
  <path
     id="path9"
     d="  M 1845.0374,2056.9316   L 1845.0374,1965.3568   L 1885.6324,1965.3568   C 1893.7892,1965.3568 1899.9823,1966.1876 1904.2495,1967.8492   C 1908.4789,1969.473 1911.8776,1972.3807 1914.4077,1976.5346   C 1916.9378,1980.7263 1918.2217,1985.2956 1918.2217,1990.3558   C 1918.2217,1996.851 1916.107,2002.3266 1911.9153,2006.7826   C 1907.7237,2011.2386 1901.2285,2014.0708 1892.4297,2015.2792   C 1895.6396,2016.7898 1898.0564,2018.338 1899.718,2019.8108   C 1903.2677,2023.0584 1906.6285,2027.1368 1909.8006,2032.0082   L 1925.6988,2056.9316   L 1910.4803,2056.9316   L 1898.3585,2037.8614   C 1894.8088,2032.3858 1891.9011,2028.1564 1889.6353,2025.2486   C 1887.3318,2022.3409 1885.2926,2020.3017 1883.48,2019.1311   C 1881.6673,2017.9604 1879.817,2017.1674 1877.9288,2016.7142   C 1876.5694,2016.4121 1874.3036,2016.2611 1871.207,2016.2611   L 1857.1593,2016.2611   L 1857.1593,2056.9316   z  M 1857.1593,2005.763   L 1883.1779,2005.763   C 1888.729,2005.763 1893.0717,2005.1966 1896.1683,2004.0637   C 1899.3026,2002.9308 1901.6816,2001.0804 1903.3054,1998.5503   C 1904.9292,1996.058 1905.7222,1993.3013 1905.7222,1990.3558   C 1905.7222,1986.0131 1904.174,1982.4634 1901.0019,1979.6689   C 1897.8676,1976.8745 1892.9207,1975.4773 1886.1233,1975.4773   L 1857.1593,1975.4773   z "
     style="fill:#ffff00;fill-rule:nonzero;fill-opacity:1;stroke:#ffff00;stroke-width:1.0573581px;stroke-linecap:butt;stroke-linejoin:miter;stroke-miterlimit:282;stroke-dasharray:none;stroke-opacity:1;" />
  <path
     id="path11"
     d="  M 1933.138,2027.5144   L 1944.5801,2026.4948   C 1945.1088,2031.1019 1946.355,2034.8404 1948.3564,2037.7859   C 1950.3201,2040.7314 1953.4166,2043.0727 1957.5705,2044.8853   C 1961.7245,2046.6979 1966.407,2047.6042 1971.6183,2047.6042   C 1976.2254,2047.6042 1980.3037,2046.9245 1983.8534,2045.565   C 1987.4032,2044.1678 1990.0088,2042.2796 1991.7459,2039.9006   C 1993.483,2037.5215 1994.3515,2034.8781 1994.3515,2032.0837   C 1994.3515,2029.176 1993.5207,2026.6836 1991.8592,2024.5311   C 1990.1976,2022.3787 1987.4409,2020.6038 1983.5891,2019.1311   C 1981.1345,2018.187 1975.6967,2016.6765 1967.3133,2014.675   C 1958.8922,2012.6736 1953.0012,2010.7477 1949.6404,2008.9729   C 1945.2599,2006.6693 1942.0123,2003.8371 1939.8598,2000.4385   C 1937.7073,1997.0398 1936.65,1993.2635 1936.65,1989.0341   C 1936.65,1984.4271 1937.9717,1980.0843 1940.5773,1976.0815   C 1943.1829,1972.0786 1947.0347,1969.0198 1952.0572,1966.9429   C 1957.1174,1964.8659 1962.7063,1963.8086 1968.8616,1963.8086   C 1975.6589,1963.8086 1981.6254,1964.9037 1986.7989,1967.0939   C 1992.0102,1969.2842 1995.9753,1972.494 1998.7698,1976.7234   C 2001.5642,1980.9906 2003.0747,1985.7865 2003.2635,1991.1488   L 1991.6703,1992.0551   C 1991.0284,1986.2397 1988.9137,1981.8969 1985.3262,1978.9137   C 1981.701,1975.9682 1976.4142,1974.4954 1969.3525,1974.4954   C 1962.0266,1974.4954 1956.702,1975.8171 1953.3411,1978.5361   C 1949.9802,1981.2172 1948.3187,1984.4271 1948.3187,1988.2411   C 1948.3187,1991.5265 1949.4893,1994.2076 1951.8684,1996.3601   C 1954.2097,1998.4748 1960.2895,2000.6273 1970.1456,2002.8553   C 1980.0016,2005.0833 1986.7612,2007.047 1990.4242,2008.7085   C 1995.7487,2011.1631 1999.6761,2014.2974 2002.2062,2018.0359   C 2004.7363,2021.8122 2006.0202,2026.1549 2006.0202,2031.0641   C 2006.0202,2035.9355 2004.623,2040.5426 2001.8285,2044.8475   C 1999.0341,2049.1525 1995.0312,2052.5134 1989.82,2054.8924   C 1984.6087,2057.2715 1978.7177,2058.4799 1972.1847,2058.4799   C 1963.8769,2058.4799 1956.9286,2057.2715 1951.3397,2054.8547   C 1945.7508,2052.4378 1941.3703,2048.8126 1938.1605,2043.979   C 1934.9884,2039.1076 1933.3268,2033.632 1933.138,2027.5144   z "
     style="fill:#ffff00;fill-rule:nonzero;fill-opacity:1;stroke:#ffff00;stroke-width:1.0573581px;stroke-linecap:butt;stroke-linejoin:miter;stroke-miterlimit:282;stroke-dasharray:none;stroke-opacity:1;" />
</svg>
