<?xml version="1.0" encoding="UTF-8" standalone="no"?>
<svg
   xmlns:dc="http://purl.org/dc/elements/1.1/"
   xmlns:cc="http://creativecommons.org/ns#"
   xmlns:rdf="http://www.w3.org/1999/02/22-rdf-syntax-ns#"
   xmlns:svg="http://www.w3.org/2000/svg"
   xmlns="http://www.w3.org/2000/svg"
   id="svg11"
   height="79.510002mm"
   width="127.91mm"
   version="1.0">
  <metadata
     id="metadata15">
    <rdf:RDF>
      <cc:Work
         rdf:about="">
        <dc:format>image/svg+xml</dc:format>
        <dc:type
           rdf:resource="http://purl.org/dc/dcmitype/StillImage" />
      </cc:Work>
    </rdf:RDF>
  </metadata>
  <defs
     id="defs3">
    <pattern
       y="0"
       x="0"
       height="6"
       width="6"
       patternUnits="userSpaceOnUse"
       id="EMFhbasepattern" />
  </defs>
  <path
     id="path5"
     d="  M 54.665059,54.345381   L 428.68915,54.345381  "
     style="fill:none;stroke:#000000;stroke-width:9.5903616px;stroke-linecap:butt;stroke-linejoin:miter;stroke-miterlimit:10;stroke-dasharray:none;stroke-opacity:1;" />
  <path
     id="path7"
     d="  M 54.665059,246.15261   L 428.68915,246.15261  "
     style="fill:none;stroke:#000000;stroke-width:9.5903616px;stroke-linecap:butt;stroke-linejoin:miter;stroke-miterlimit:10;stroke-dasharray:none;stroke-opacity:1;" />
  <path
     id="path9"
     d="  M 172.86626,186.41265   L 172.86626,97.182328   L 212.4265,97.182328   C 220.37851,97.182328 226.41245,97.981525 230.56827,99.579918   C 234.72409,101.17831 238.0008,104.01546 240.47831,108.0514   C 242.95582,112.12731 244.19457,116.60281 244.19457,121.51787   C 244.19457,127.83152 242.15662,133.18614 238.04076,137.54177   C 233.96486,141.85743 227.61124,144.61466 219.05984,145.81345   C 222.1767,147.29197 224.57429,148.81044 226.17269,150.24899   C 229.64919,153.40582 232.88594,157.36185 236.00281,162.11707   L 251.50723,186.41265   L 236.64217,186.41265   L 224.85401,167.83132   C 221.37751,162.4767 218.54036,158.4008 216.30261,155.56365   C 214.10482,152.7265 212.10682,150.72851 210.30863,149.56968   C 208.5504,148.4508 206.75221,147.6516 204.95401,147.21205   C 203.59538,146.93233 201.39759,146.77249 198.36064,146.77249   L 184.65442,146.77249   L 184.65442,186.41265   z  M 184.65442,136.54277   L 210.06887,136.54277   C 215.46345,136.54277 219.65923,135.98333 222.69618,134.86446   C 225.77309,133.78554 228.0508,131.98735 229.64919,129.50984   C 231.24759,127.07229 232.04678,124.39498 232.04678,121.51787   C 232.04678,117.28213 230.48835,113.84558 227.4514,111.12831   C 224.37449,108.41104 219.53935,107.01245 212.90602,107.01245   L 184.65442,107.01245   z  M 258.7,157.72148   L 269.84879,156.76245   C 270.36827,161.23795 271.60702,164.87429 273.5251,167.7514   C 275.44317,170.62851 278.44016,172.94618 282.4761,174.70442   C 286.552,176.46265 291.10743,177.34176 296.18233,177.34176   C 300.69779,177.34176 304.69377,176.66245 308.13032,175.34377   C 311.56686,173.98514 314.12429,172.14699 315.84257,169.82931   C 317.52088,167.51164 318.36004,164.95421 318.36004,162.19699   C 318.36004,159.3998 317.52088,156.92229 315.92249,154.84438   C 314.28413,152.76646 311.60682,151.00823 307.89056,149.56968   C 305.49297,148.6506 300.17831,147.21205 291.98654,145.21405   C 283.79478,143.25602 278.04056,141.41787 274.76385,139.65964   C 270.48815,137.42189 267.33132,134.66466 265.25341,131.34799   C 263.13554,128.03132 262.09658,124.35502 262.09658,120.23915   C 262.09658,115.72369 263.3753,111.52791 265.93273,107.61185   C 268.49016,103.69578 272.24638,100.73875 277.12148,98.700802   C 282.03654,96.66285 287.51104,95.663854 293.50502,95.623894   C 300.13835,95.663854 305.97249,96.70281 311.00743,98.860641   C 316.08232,100.97851 319.95843,104.09538 322.6757,108.2512   C 325.39297,112.40703 326.87148,117.08233 327.07128,122.31707   L 315.72269,123.15622   C 315.12329,117.52189 313.08534,113.24618 309.56887,110.36907   C 306.05241,107.49197 300.85763,106.05341 293.98453,106.05341   C 286.87168,106.05341 281.63694,107.37209 278.4002,109.96948   C 275.12349,112.60683 273.48514,115.76365 273.48514,119.43996   C 273.48514,122.67671 274.64397,125.27409 276.96164,127.35201   C 279.23935,129.42992 285.15341,131.54779 294.74377,133.70562   C 304.37409,135.90341 310.92751,137.78152 314.52389,139.41988   C 319.71867,141.81747 323.55481,144.85442 326.03232,148.53072   C 328.50983,152.20703 329.74859,156.40281 329.74859,161.19799   C 329.74859,165.95321 328.38996,170.42871 325.67269,174.6245   C 322.95542,178.82028 319.03935,182.09699 313.92449,184.45462   C 308.84959,186.77229 303.09538,187.93112 296.74176,187.93112   C 288.66988,187.93112 281.91666,186.77229 276.44216,184.41466   C 270.96767,182.05703 266.69196,178.5006 263.5751,173.78534   C 260.49819,169.07008 258.85984,163.71546 258.7,157.72148   z "
     style="fill:#000000;fill-rule:evenodd;fill-opacity:1;stroke:none;" />
</svg>
