<?xml version="1.0" encoding="UTF-8" standalone="no"?>
<svg
   xmlns:dc="http://purl.org/dc/elements/1.1/"
   xmlns:cc="http://creativecommons.org/ns#"
   xmlns:rdf="http://www.w3.org/1999/02/22-rdf-syntax-ns#"
   xmlns:svg="http://www.w3.org/2000/svg"
   xmlns="http://www.w3.org/2000/svg"
   id="svg13"
   height="117.75mm"
   width="79.510002mm"
   version="1.0">
  <metadata
     id="metadata17">
    <rdf:RDF>
      <cc:Work
         rdf:about="">
        <dc:format>image/svg+xml</dc:format>
        <dc:type
           rdf:resource="http://purl.org/dc/dcmitype/StillImage" />
      </cc:Work>
    </rdf:RDF>
  </metadata>
  <defs
     id="defs3">
    <pattern
       y="0"
       x="0"
       height="6"
       width="6"
       patternUnits="userSpaceOnUse"
       id="EMFhbasepattern" />
  </defs>
  <path
     id="path5"
     d="  M 54.345381,54.665059   L 54.345381,390.32771  "
     style="fill:none;stroke:#000000;stroke-width:9.5903616px;stroke-linecap:butt;stroke-linejoin:miter;stroke-miterlimit:10;stroke-dasharray:none;stroke-opacity:1;" />
  <path
     id="path7"
     d="  M 246.15261,54.665059   L 246.15261,390.32771  "
     style="fill:none;stroke:#000000;stroke-width:9.5903616px;stroke-linecap:butt;stroke-linejoin:miter;stroke-miterlimit:10;stroke-dasharray:none;stroke-opacity:1;" />
  <path
     id="path9"
     d="  M 87.392167,259.57911   L 87.392167,177.18193   L 123.91546,177.18193   C 131.26807,177.18193 136.82249,177.94116 140.65863,179.41968   C 144.49478,180.89819 147.53172,183.49558 149.80944,187.2518   C 152.08715,191.00803 153.24598,195.12389 153.24598,199.67931   C 153.24598,205.51345 151.36787,210.42851 147.57168,214.46445   C 143.7755,218.46044 137.94136,221.01787 130.02932,222.09678   C 132.90642,223.45542 135.10421,224.85401 136.62269,226.17269   C 139.77952,229.12972 142.81646,232.76606 145.65361,237.16164   L 159.99919,259.57911   L 146.29297,259.57911   L 135.38393,242.43634   C 132.18715,237.48132 129.58976,233.68514 127.51185,231.08775   C 125.43393,228.4504 123.59578,226.61225 121.95743,225.57329   C 120.35903,224.53433 118.68072,223.7751 117.00241,223.3755   C 115.76365,223.13574 113.7257,222.9759 110.92851,222.9759   L 98.301203,222.9759   L 98.301203,259.57911   z  M 98.301203,213.54538   L 121.71767,213.54538   C 126.71265,213.54538 130.58875,213.0259 133.4259,211.98694   C 136.22309,210.98795 138.34096,209.30964 139.81948,207.07188   C 141.25803,204.79417 142.01727,202.31666 142.01727,199.67931   C 142.01727,195.76325 140.57871,192.56646 137.78152,190.04899   C 134.94438,187.53152 130.46887,186.29277 124.35502,186.29277   L 98.301203,186.29277   z  M 166.63253,233.08574   L 176.90221,232.20662   C 177.38172,236.32249 178.54056,239.71907 180.29879,242.35642   C 182.09699,244.99377 184.85421,247.11164 188.61044,248.75   C 192.3267,250.38835 196.56245,251.18755 201.23775,251.18755   C 205.39357,251.18755 209.06988,250.58815 212.26666,249.34939   C 215.42349,248.11064 217.82108,246.43233 219.33956,244.27449   C 220.89799,242.11666 221.69719,239.75903 221.69719,237.2016   C 221.69719,234.60421 220.93795,232.36646 219.45943,230.44839   C 217.94096,228.49036 215.46345,226.89196 212.0269,225.57329   C 209.82911,224.69417 204.91405,223.3755 197.36164,221.53735   C 189.80923,219.73915 184.49458,218.02088 181.45763,216.42249   C 177.5016,214.34458 174.58454,211.78715 172.66646,208.7502   C 170.74839,205.67329 169.7494,202.2767 169.7494,198.48052   C 169.7494,194.3247 170.94819,190.44859 173.30582,186.81225   C 175.66345,183.21586 179.1,180.45863 183.65542,178.58052   C 188.17088,176.70241 193.20582,175.78333 198.76024,175.78333   C 204.87409,175.78333 210.26867,176.78233 214.90401,178.74036   C 219.57931,180.69839 223.1757,183.5755 225.69317,187.41164   C 228.17068,191.24779 229.52931,195.56345 229.72911,200.39859   L 219.25964,201.19779   C 218.7002,195.96305 216.82209,192.04699 213.58534,189.36968   C 210.34859,186.73233 205.55341,185.37369 199.1998,185.37369   C 192.60642,185.37369 187.81124,186.61245 184.81425,189.01004   C 181.77731,191.44759 180.25883,194.36466 180.25883,197.76124   C 180.25883,200.71827 181.33775,203.15582 183.49558,205.07389   C 185.57349,206.95201 191.04799,208.95 199.91907,210.94799   C 208.79016,212.94598 214.86405,214.70421 218.14076,216.18273   C 222.93594,218.38052 226.49237,221.21767 228.77008,224.57429   C 231.04779,227.97088 232.20662,231.88694 232.20662,236.28253   C 232.20662,240.67811 230.92791,244.83393 228.4504,248.71004   C 225.93293,252.58614 222.33654,255.58313 217.62128,257.74096   C 212.90602,259.89879 207.63132,260.97771 201.75723,260.97771   C 194.28474,260.97771 188.051,259.89879 183.01606,257.701   C 177.98112,255.54317 174.0251,252.26646 171.14799,247.91084   C 168.27088,243.55522 166.75241,238.6002 166.63253,233.08574   z "
     style="fill:#000000;fill-rule:evenodd;fill-opacity:1;stroke:none;" />
  <path
     id="path11"
     d="  M 87.392167,259.57911   L 87.392167,177.18193   L 123.91546,177.18193   C 131.26807,177.18193 136.82249,177.94116 140.65863,179.41968   C 144.49478,180.89819 147.53172,183.49558 149.80944,187.2518   C 152.08715,191.00803 153.24598,195.12389 153.24598,199.67931   C 153.24598,205.51345 151.36787,210.42851 147.57168,214.46445   C 143.7755,218.46044 137.94136,221.01787 130.02932,222.09678   C 132.90642,223.45542 135.10421,224.85401 136.62269,226.17269   C 139.77952,229.12972 142.81646,232.76606 145.65361,237.16164   L 159.99919,259.57911   L 146.29297,259.57911   L 135.38393,242.43634   C 132.18715,237.48132 129.58976,233.68514 127.51185,231.08775   C 125.43393,228.4504 123.59578,226.61225 121.95743,225.57329   C 120.35903,224.53433 118.68072,223.7751 117.00241,223.3755   C 115.76365,223.13574 113.7257,222.9759 110.92851,222.9759   L 98.301203,222.9759   L 98.301203,259.57911   z  M 98.301203,213.54538   L 121.71767,213.54538   C 126.71265,213.54538 130.58875,213.0259 133.4259,211.98694   C 136.22309,210.98795 138.34096,209.30964 139.81948,207.07188   C 141.25803,204.79417 142.01727,202.31666 142.01727,199.67931   C 142.01727,195.76325 140.57871,192.56646 137.78152,190.04899   C 134.94438,187.53152 130.46887,186.29277 124.35502,186.29277   L 98.301203,186.29277   z  M 166.63253,233.08574   L 176.90221,232.20662   C 177.38172,236.32249 178.54056,239.71907 180.29879,242.35642   C 182.09699,244.99377 184.85421,247.11164 188.61044,248.75   C 192.3267,250.38835 196.56245,251.18755 201.23775,251.18755   C 205.39357,251.18755 209.06988,250.58815 212.26666,249.34939   C 215.42349,248.11064 217.82108,246.43233 219.33956,244.27449   C 220.89799,242.11666 221.69719,239.75903 221.69719,237.2016   C 221.69719,234.60421 220.93795,232.36646 219.45943,230.44839   C 217.94096,228.49036 215.46345,226.89196 212.0269,225.57329   C 209.82911,224.69417 204.91405,223.3755 197.36164,221.53735   C 189.80923,219.73915 184.49458,218.02088 181.45763,216.42249   C 177.5016,214.34458 174.58454,211.78715 172.66646,208.7502   C 170.74839,205.67329 169.7494,202.2767 169.7494,198.48052   C 169.7494,194.3247 170.94819,190.44859 173.30582,186.81225   C 175.66345,183.21586 179.1,180.45863 183.65542,178.58052   C 188.17088,176.70241 193.20582,175.78333 198.76024,175.78333   C 204.87409,175.78333 210.26867,176.78233 214.90401,178.74036   C 219.57931,180.69839 223.1757,183.5755 225.69317,187.41164   C 228.17068,191.24779 229.52931,195.56345 229.72911,200.39859   L 219.25964,201.19779   C 218.7002,195.96305 216.82209,192.04699 213.58534,189.36968   C 210.34859,186.73233 205.55341,185.37369 199.1998,185.37369   C 192.60642,185.37369 187.81124,186.61245 184.81425,189.01004   C 181.77731,191.44759 180.25883,194.36466 180.25883,197.76124   C 180.25883,200.71827 181.33775,203.15582 183.49558,205.07389   C 185.57349,206.95201 191.04799,208.95 199.91907,210.94799   C 208.79016,212.94598 214.86405,214.70421 218.14076,216.18273   C 222.93594,218.38052 226.49237,221.21767 228.77008,224.57429   C 231.04779,227.97088 232.20662,231.88694 232.20662,236.28253   C 232.20662,240.67811 230.92791,244.83393 228.4504,248.71004   C 225.93293,252.58614 222.33654,255.58313 217.62128,257.74096   C 212.90602,259.89879 207.63132,260.97771 201.75723,260.97771   C 194.28474,260.97771 188.051,259.89879 183.01606,257.701   C 177.98112,255.54317 174.0251,252.26646 171.14799,247.91084   C 168.27088,243.55522 166.75241,238.6002 166.63253,233.08574   z "
     style="fill:none;stroke:#000000;stroke-width:0.95903611px;stroke-linecap:butt;stroke-linejoin:miter;stroke-miterlimit:10;stroke-dasharray:none;stroke-opacity:1;" />
</svg>
