<?xml version="1.0" encoding="UTF-8" standalone="no"?>
<svg
   xmlns:dc="http://purl.org/dc/elements/1.1/"
   xmlns:cc="http://creativecommons.org/ns#"
   xmlns:rdf="http://www.w3.org/1999/02/22-rdf-syntax-ns#"
   xmlns:svg="http://www.w3.org/2000/svg"
   xmlns="http://www.w3.org/2000/svg"
   id="svg25"
   height="116.73mm"
   width="116.73mm"
   version="1.0">
  <metadata
     id="metadata29">
    <rdf:RDF>
      <cc:Work
         rdf:about="">
        <dc:format>image/svg+xml</dc:format>
        <dc:type
           rdf:resource="http://purl.org/dc/dcmitype/StillImage" />
      </cc:Work>
    </rdf:RDF>
  </metadata>
  <defs
     id="defs3">
    <pattern
       y="0"
       x="0"
       height="6"
       width="6"
       patternUnits="userSpaceOnUse"
       id="EMFhbasepattern" />
  </defs>
  <path
     id="path5"
     d="  M 172.6265,43.156626   L 172.6265,100.69879   L 268.53012,100.69879   L 268.53012,43.156626   L 172.6265,43.156626   z "
     style="fill:#000000;fill-rule:evenodd;fill-opacity:1;stroke:none;" />
  <path
     id="path7"
     d="  M 220.57831,386.49156   L 220.57831,386.49156   L 386.49156,220.57831   L 220.57831,54.665059   L 54.665059,220.57831   L 220.57831,386.49156   z "
     style="fill:#ff8080;fill-rule:evenodd;fill-opacity:1;stroke:none;" />
  <path
     id="path9"
     d="  M 220.57831,386.49156   L 220.57831,386.49156   L 386.49156,220.57831   L 220.57831,54.665059   L 54.665059,220.57831   L 220.57831,386.49156  "
     style="fill:none;stroke:#000000;stroke-width:9.5903616px;stroke-linecap:butt;stroke-linejoin:miter;stroke-miterlimit:10;stroke-dasharray:none;stroke-opacity:1;" />
  <path
     id="path11"
     d="  M 187.97108,280.03855   L 187.97108,304.01445   L 220.57831,304.01445   L 220.57831,280.03855   L 187.97108,280.03855   z "
     style="fill:#ffffff;fill-rule:evenodd;fill-opacity:1;stroke:none;" />
  <path
     id="path13"
     d="  M 139.53976,261.13755   C 112.20723,231.28755 165.11405,226.25261 181.73735,220.85803   C 195.04397,216.58233 194.76425,205.27369 204.2747,198.32068   C 216.74217,189.28976 237.84096,196.60241 251.26747,188.73032   C 262.09658,182.41666 273.80482,162.35682 286.27229,160.91827   C 308.60983,158.36084 319.83855,192.9261 310.24819,208.87008   C 302.89558,221.17771 281.35722,216.14277 273.3253,226.13273   C 261.69698,240.71807 276.56204,259.61907 252.70602,266.41225   z "
     style="fill:#ffffff;fill-rule:evenodd;fill-opacity:1;stroke:none;" />
  <path
     id="path15"
     d="  M 139.53976,261.13755   C 112.20723,231.28755 165.11405,226.25261 181.73735,220.85803   C 195.04397,216.58233 194.76425,205.27369 204.2747,198.32068   C 216.74217,189.28976 237.84096,196.60241 251.26747,188.73032   C 262.09658,182.41666 273.80482,162.35682 286.27229,160.91827   C 308.60983,158.36084 319.83855,192.9261 310.24819,208.87008   C 302.89558,221.17771 281.35722,216.14277 273.3253,226.13273   C 261.69698,240.71807 276.56204,259.61907 252.70602,266.41225  "
     style="fill:none;stroke:#000000;stroke-width:3.8361444px;stroke-linecap:butt;stroke-linejoin:miter;stroke-miterlimit:10;stroke-dasharray:none;stroke-opacity:1;" />
  <path
     id="path17"
     d="  M 139.06024,259.89879   L 139.06024,280.99759   L 263.73494,280.99759   L 263.73494,259.89879   L 139.06024,259.89879   z "
     style="fill:#000000;fill-rule:evenodd;fill-opacity:1;stroke:none;" />
  <path
     id="path19"
     d="  M 139.06024,259.89879   L 263.73494,259.89879   L 263.73494,280.99759   L 139.06024,280.99759   z "
     style="fill:none;stroke:#000000;stroke-width:0.95903611px;stroke-linecap:butt;stroke-linejoin:miter;stroke-miterlimit:10;stroke-dasharray:none;stroke-opacity:1;" />
  <path
     id="path21"
     d="  M 187.97108,275.24337   L 187.97108,304.01445  "
     style="fill:none;stroke:#000000;stroke-width:5.7542167px;stroke-linecap:butt;stroke-linejoin:miter;stroke-miterlimit:10;stroke-dasharray:none;stroke-opacity:1;" />
  <path
     id="path23"
     d="  M 220.57831,276.20241   L 220.57831,304.01445  "
     style="fill:none;stroke:#000000;stroke-width:5.7542167px;stroke-linecap:butt;stroke-linejoin:miter;stroke-miterlimit:10;stroke-dasharray:none;stroke-opacity:1;" />
</svg>
