<?xml version="1.0" encoding="UTF-8" standalone="no"?>
<svg
   xmlns:dc="http://purl.org/dc/elements/1.1/"
   xmlns:cc="http://creativecommons.org/ns#"
   xmlns:rdf="http://www.w3.org/1999/02/22-rdf-syntax-ns#"
   xmlns:svg="http://www.w3.org/2000/svg"
   xmlns="http://www.w3.org/2000/svg"
   id="svg25"
   height="95.75mm"
   width="95.75mm"
   version="1.0">
  <metadata
     id="metadata29">
    <rdf:RDF>
      <cc:Work
         rdf:about="">
        <dc:format>image/svg+xml</dc:format>
        <dc:type
           rdf:resource="http://purl.org/dc/dcmitype/StillImage" />
      </cc:Work>
    </rdf:RDF>
  </metadata>
  <defs
     id="defs3">
    <pattern
       y="0"
       x="0"
       height="6"
       width="6"
       patternUnits="userSpaceOnUse"
       id="EMFhbasepattern" />
  </defs>
  <path
     id="path5"
     d="  M 132.98634,15.983936   L 132.98634,54.345381   L 228.88996,54.345381   L 228.88996,15.983936   L 132.98634,15.983936   z "
     style="fill:#000000;fill-rule:evenodd;fill-opacity:1;stroke:none;" />
  <path
     id="path7"
     d="  M 54.345381,54.345381   L 54.345381,307.53092   L 307.53092,307.53092   L 307.53092,54.345381   L 54.345381,54.345381   z "
     style="fill:#aaffaa;fill-rule:evenodd;fill-opacity:1;stroke:none;" />
  <path
     id="path9"
     d="  M 54.345381,54.345381   L 307.53092,54.345381   L 307.53092,307.53092   L 54.345381,307.53092   z "
     style="fill:none;stroke:#000000;stroke-width:9.5903616px;stroke-linecap:butt;stroke-linejoin:miter;stroke-miterlimit:10;stroke-dasharray:none;stroke-opacity:1;" />
  <path
     id="path11"
     d="  M 148.33092,240.39839   L 148.33092,264.37429   L 180.93815,264.37429   L 180.93815,240.39839   L 148.33092,240.39839   z "
     style="fill:#ffffff;fill-rule:evenodd;fill-opacity:1;stroke:none;" />
  <path
     id="path13"
     d="  M 99.899597,221.49739   C 72.567067,191.64739 125.47389,186.61245 142.09719,181.21787   C 155.40381,176.94217 155.12409,165.63353 164.63454,158.68052   C 177.10201,149.6496 198.2008,156.96225 211.62731,149.09016   C 222.45642,142.7765 234.16466,122.71666 246.63212,121.27811   C 268.96967,118.72068 280.19839,153.28594 270.60803,169.22992   C 263.25542,181.53755 241.71706,176.50261 233.68514,186.49257   C 222.05682,201.07791 236.92188,219.97891 213.06586,226.77209   z "
     style="fill:#ffffff;fill-rule:evenodd;fill-opacity:1;stroke:none;" />
  <path
     id="path15"
     d="  M 99.899597,221.49739   C 72.567067,191.64739 125.47389,186.61245 142.09719,181.21787   C 155.40381,176.94217 155.12409,165.63353 164.63454,158.68052   C 177.10201,149.6496 198.2008,156.96225 211.62731,149.09016   C 222.45642,142.7765 234.16466,122.71666 246.63212,121.27811   C 268.96967,118.72068 280.19839,153.28594 270.60803,169.22992   C 263.25542,181.53755 241.71706,176.50261 233.68514,186.49257   C 222.05682,201.07791 236.92188,219.97891 213.06586,226.77209  "
     style="fill:none;stroke:#000000;stroke-width:3.8361444px;stroke-linecap:butt;stroke-linejoin:miter;stroke-miterlimit:10;stroke-dasharray:none;stroke-opacity:1;" />
  <path
     id="path17"
     d="  M 99.420079,220.25863   L 99.420079,241.35743   L 224.09478,241.35743   L 224.09478,220.25863   L 99.420079,220.25863   z "
     style="fill:#000000;fill-rule:evenodd;fill-opacity:1;stroke:none;" />
  <path
     id="path19"
     d="  M 99.420079,220.25863   L 224.09478,220.25863   L 224.09478,241.35743   L 99.420079,241.35743   z "
     style="fill:none;stroke:#000000;stroke-width:0.95903611px;stroke-linecap:butt;stroke-linejoin:miter;stroke-miterlimit:10;stroke-dasharray:none;stroke-opacity:1;" />
  <path
     id="path21"
     d="  M 148.33092,235.60321   L 148.33092,264.37429  "
     style="fill:none;stroke:#000000;stroke-width:5.7542167px;stroke-linecap:butt;stroke-linejoin:miter;stroke-miterlimit:10;stroke-dasharray:none;stroke-opacity:1;" />
  <path
     id="path23"
     d="  M 180.93815,236.56225   L 180.93815,264.37429  "
     style="fill:none;stroke:#000000;stroke-width:5.7542167px;stroke-linecap:butt;stroke-linejoin:miter;stroke-miterlimit:10;stroke-dasharray:none;stroke-opacity:1;" />
</svg>
