<?xml version="1.0" encoding="UTF-8" standalone="no"?>
<svg
   xmlns:dc="http://purl.org/dc/elements/1.1/"
   xmlns:cc="http://creativecommons.org/ns#"
   xmlns:rdf="http://www.w3.org/1999/02/22-rdf-syntax-ns#"
   xmlns:svg="http://www.w3.org/2000/svg"
   xmlns="http://www.w3.org/2000/svg"
   id="svg25"
   height="89.669998mm"
   width="120.11mm"
   version="1.0">
  <metadata
     id="metadata29">
    <rdf:RDF>
      <cc:Work
         rdf:about="">
        <dc:format>image/svg+xml</dc:format>
        <dc:type
           rdf:resource="http://purl.org/dc/dcmitype/StillImage" />
      </cc:Work>
    </rdf:RDF>
  </metadata>
  <defs
     id="defs3">
    <pattern
       y="0"
       x="0"
       height="6"
       width="6"
       patternUnits="userSpaceOnUse"
       id="EMFhbasepattern" />
  </defs>
  <path
     id="path5"
     d="  M 179.02008,15.983936   L 179.02008,54.345381   L 274.92369,54.345381   L 274.92369,15.983936   L 179.02008,15.983936   z "
     style="fill:#000000;fill-rule:evenodd;fill-opacity:1;stroke:none;" />
  <path
     id="path7"
     d="  M 54.345381,54.345381   L 54.345381,284.51405   L 399.59839,284.51405   L 399.59839,54.345381   L 54.345381,54.345381   z "
     style="fill:#80e0ff;fill-rule:evenodd;fill-opacity:1;stroke:none;" />
  <path
     id="path9"
     d="  M 54.345381,54.345381   L 399.59839,54.345381   L 399.59839,284.51405   L 54.345381,284.51405   z "
     style="fill:none;stroke:#000000;stroke-width:9.5903616px;stroke-linecap:butt;stroke-linejoin:miter;stroke-miterlimit:10;stroke-dasharray:none;stroke-opacity:1;" />
  <path
     id="path11"
     d="  M 194.36466,228.88996   L 194.36466,252.86586   L 226.97188,252.86586   L 226.97188,228.88996   L 194.36466,228.88996   z "
     style="fill:#ffffff;fill-rule:evenodd;fill-opacity:1;stroke:none;" />
  <path
     id="path13"
     d="  M 145.93333,209.98895   C 118.6008,180.13895 171.50763,175.10401 188.13092,169.70944   C 201.43755,165.43373 201.15783,154.1251 210.66827,147.17209   C 223.13574,138.14116 244.23453,145.45381 257.66104,137.58172   C 268.49016,131.26807 280.19839,111.20823 292.66586,109.76968   C 315.00341,107.21225 326.23212,141.77751 316.64176,157.72148   C 309.28915,170.02911 287.7508,164.99417 279.71887,174.98413   C 268.09056,189.56948 282.95562,208.47048 259.09959,215.26365   z "
     style="fill:#ffffff;fill-rule:evenodd;fill-opacity:1;stroke:none;" />
  <path
     id="path15"
     d="  M 145.93333,209.98895   C 118.6008,180.13895 171.50763,175.10401 188.13092,169.70944   C 201.43755,165.43373 201.15783,154.1251 210.66827,147.17209   C 223.13574,138.14116 244.23453,145.45381 257.66104,137.58172   C 268.49016,131.26807 280.19839,111.20823 292.66586,109.76968   C 315.00341,107.21225 326.23212,141.77751 316.64176,157.72148   C 309.28915,170.02911 287.7508,164.99417 279.71887,174.98413   C 268.09056,189.56948 282.95562,208.47048 259.09959,215.26365  "
     style="fill:none;stroke:#000000;stroke-width:3.8361444px;stroke-linecap:butt;stroke-linejoin:miter;stroke-miterlimit:10;stroke-dasharray:none;stroke-opacity:1;" />
  <path
     id="path17"
     d="  M 145.45381,208.7502   L 145.45381,229.84899   L 270.12851,229.84899   L 270.12851,208.7502   L 145.45381,208.7502   z "
     style="fill:#000000;fill-rule:evenodd;fill-opacity:1;stroke:none;" />
  <path
     id="path19"
     d="  M 145.45381,208.7502   L 270.12851,208.7502   L 270.12851,229.84899   L 145.45381,229.84899   z "
     style="fill:none;stroke:#000000;stroke-width:0.95903611px;stroke-linecap:butt;stroke-linejoin:miter;stroke-miterlimit:10;stroke-dasharray:none;stroke-opacity:1;" />
  <path
     id="path21"
     d="  M 194.36466,224.09478   L 194.36466,252.86586  "
     style="fill:none;stroke:#000000;stroke-width:5.7542167px;stroke-linecap:butt;stroke-linejoin:miter;stroke-miterlimit:10;stroke-dasharray:none;stroke-opacity:1;" />
  <path
     id="path23"
     d="  M 226.97188,225.05381   L 226.97188,252.86586  "
     style="fill:none;stroke:#000000;stroke-width:5.7542167px;stroke-linecap:butt;stroke-linejoin:miter;stroke-miterlimit:10;stroke-dasharray:none;stroke-opacity:1;" />
</svg>
