<?xml version="1.0" encoding="UTF-8" standalone="no"?>
<svg
   xmlns:dc="http://purl.org/dc/elements/1.1/"
   xmlns:cc="http://creativecommons.org/ns#"
   xmlns:rdf="http://www.w3.org/1999/02/22-rdf-syntax-ns#"
   xmlns:svg="http://www.w3.org/2000/svg"
   xmlns="http://www.w3.org/2000/svg"
   id="svg17"
   height="116.73mm"
   width="116.73mm"
   version="1.0">
  <metadata
     id="metadata21">
    <rdf:RDF>
      <cc:Work
         rdf:about="">
        <dc:format>image/svg+xml</dc:format>
        <dc:type
           rdf:resource="http://purl.org/dc/dcmitype/StillImage" />
      </cc:Work>
    </rdf:RDF>
  </metadata>
  <defs
     id="defs3">
    <pattern
       y="0"
       x="0"
       height="6"
       width="6"
       patternUnits="userSpaceOnUse"
       id="EMFhbasepattern" />
  </defs>
  <path
     id="path5"
     d="  M 220.57831,386.49156   L 220.57831,386.49156   L 386.49156,220.57831   L 220.57831,54.665059   L 54.665059,220.57831   L 220.57831,386.49156   z "
     style="fill:#ff8080;fill-rule:evenodd;fill-opacity:1;stroke:none;" />
  <path
     id="path7"
     d="  M 220.57831,386.49156   L 220.57831,386.49156   L 386.49156,220.57831   L 220.57831,54.665059   L 54.665059,220.57831   L 220.57831,386.49156  "
     style="fill:none;stroke:#000000;stroke-width:9.5903616px;stroke-linecap:butt;stroke-linejoin:miter;stroke-miterlimit:10;stroke-dasharray:none;stroke-opacity:1;" />
  <path
     id="path9"
     d="  M 226.21265,167.07209   C 226.21265,169.11004 231.00783,179.13996 231.9269,182.85622   C 232.9259,186.97209 235.36345,196.84217 235.36345,200.91807   C 219.17972,197.12188 219.45943,178.14096 211.74719,172.98614   C 207.7512,190.04899 213.46546,207.5514 220.21867,217.66124   C 225.81305,226.01285 226.09277,225.53333 233.84498,231.40743   C 234.88393,232.20662 251.94678,241.19759 252.0267,241.19759   C 256.702,241.19759 273.84478,225.01385 277.4012,221.45743   C 281.4771,217.34156 290.14839,196.76225 290.14839,188.53052   L 290.14839,174.58454   C 290.14839,170.30883 289.54899,167.19197 286.91164,165.47369   C 286.83172,170.06907 282.71586,181.41767 281.03755,184.81425   C 278.99959,188.77028 271.24739,194.44458 266.49216,195.52349   L 266.49216,191.76727   C 266.49216,181.61747 271.88674,176.10301 271.88674,168.67048   C 271.88674,164.15502 262.61606,152.12711 260.05863,150.40883   C 260.05863,162.6765 258.38032,168.7504 250.38835,172.98614   C 247.83092,171.22791 243.39538,166.83233 243.39538,162.75642   L 243.39538,160.63855   C 243.39538,157.16205 247.67108,148.33092 249.14959,145.41385   C 253.70502,136.46285 250.22851,136.82249 248.23052,129.46988   L 247.19156,129.46988   C 244.23453,142.05723 245.43333,140.61867 238.6002,149.88936   C 236.28253,153.00622 226.21265,163.39578 226.21265,167.07209   z "
     style="fill:#000000;fill-rule:evenodd;fill-opacity:1;stroke:none;" />
  <path
     id="path11"
     d="  M 181.13795,269.08955   L 181.13795,269.08955   L 200.99799,269.08955   L 200.99799,250.30843   L 181.13795,250.30843   z "
     style="fill:#000000;fill-rule:evenodd;fill-opacity:1;stroke:none;" />
  <path
     id="path13"
     d="  M 243.95482,269.08955   L 243.95482,269.08955   L 262.73594,269.08955   L 262.73594,249.78895   L 243.95482,249.78895   z "
     style="fill:#000000;fill-rule:evenodd;fill-opacity:1;stroke:none;" />
  <path
     id="path15"
     d="  M 199.71927,185.65341   L 198.2008,178.9002   L 129.31004,236.60221   L 164.99417,236.88192   L 164.99417,295.42309   L 280.47811,295.42309   L 280.47811,236.88192   L 308.92951,236.88192   C 308.09036,235.72309 291.46706,223.45542 290.66787,223.45542   C 290.02851,223.45542 287.91064,227.09176 287.47108,227.77108   L 290.66787,230.96787   L 285.31325,230.96787   C 283.6749,232.08674 274.04457,238.0008 274.04457,239.55923   L 274.04457,290.58795   L 232.1267,290.58795   L 232.1267,261.05763   L 212.26666,261.05763   L 212.26666,290.58795   L 170.90823,290.58795   L 170.90823,236.88192   L 222.45642,236.88192   L 217.46144,230.56827   L 147.17209,230.32851   z "
     style="fill:#000000;fill-rule:evenodd;fill-opacity:1;stroke:none;" />
</svg>
