<?xml version="1.0" encoding="UTF-8" standalone="no"?>
<svg
   xmlns:dc="http://purl.org/dc/elements/1.1/"
   xmlns:cc="http://creativecommons.org/ns#"
   xmlns:rdf="http://www.w3.org/1999/02/22-rdf-syntax-ns#"
   xmlns:svg="http://www.w3.org/2000/svg"
   xmlns="http://www.w3.org/2000/svg"
   id="svg17"
   height="89.669998mm"
   width="120.11mm"
   version="1.0">
  <metadata
     id="metadata21">
    <rdf:RDF>
      <cc:Work
         rdf:about="">
        <dc:format>image/svg+xml</dc:format>
        <dc:type
           rdf:resource="http://purl.org/dc/dcmitype/StillImage" />
      </cc:Work>
    </rdf:RDF>
  </metadata>
  <defs
     id="defs3">
    <pattern
       y="0"
       x="0"
       height="6"
       width="6"
       patternUnits="userSpaceOnUse"
       id="EMFhbasepattern" />
  </defs>
  <path
     id="path5"
     d="  M 54.345381,54.345381   L 54.345381,284.51405   L 399.59839,284.51405   L 399.59839,54.345381   L 54.345381,54.345381   z "
     style="fill:#80e0ff;fill-rule:evenodd;fill-opacity:1;stroke:none;" />
  <path
     id="path7"
     d="  M 54.345381,54.345381   L 399.59839,54.345381   L 399.59839,284.51405   L 54.345381,284.51405   z "
     style="fill:none;stroke:#000000;stroke-width:9.5903616px;stroke-linecap:butt;stroke-linejoin:miter;stroke-miterlimit:10;stroke-dasharray:none;stroke-opacity:1;" />
  <path
     id="path9"
     d="  M 232.60622,115.92349   C 232.60622,117.96144 237.4014,127.99136 238.32048,131.70763   C 239.31947,135.82349 241.75702,145.69357 241.75702,149.76948   C 225.57329,145.97329 225.85301,126.99237 218.14076,121.83755   C 214.14478,138.9004 219.85903,156.40281 226.61225,166.51265   C 232.20662,174.86425 232.48634,174.38474 240.23855,180.25883   C 241.27751,181.05803 258.34036,190.04899 258.42028,190.04899   C 263.09558,190.04899 280.23835,173.86526 283.79478,170.30883   C 287.87068,166.19297 296.54196,145.61365 296.54196,137.38193   L 296.54196,123.43594   C 296.54196,119.16024 295.94257,116.04337 293.30522,114.3251   C 293.2253,118.92048 289.10943,130.26907 287.43112,133.66566   C 285.39317,137.62168 277.64096,143.29598 272.88574,144.3749   L 272.88574,140.61867   C 272.88574,130.46887 278.28032,124.95442 278.28032,117.52189   C 278.28032,113.00642 269.00963,100.97851 266.4522,99.26024   C 266.4522,111.52791 264.77389,117.60181 256.78192,121.83755   C 254.22449,120.07932 249.78895,115.68373 249.78895,111.60783   L 249.78895,109.48996   C 249.78895,106.01345 254.06465,97.182328 255.54317,94.26526   C 260.09859,85.314256 256.62208,85.673894 254.62409,78.321284   L 253.58514,78.321284   C 250.62811,90.908633 251.8269,89.470079 244.99377,98.740762   C 242.6761,101.85763 232.60622,112.24719 232.60622,115.92349   z "
     style="fill:#000000;fill-rule:evenodd;fill-opacity:1;stroke:none;" />
  <path
     id="path11"
     d="  M 187.53152,217.94096   L 187.53152,217.94096   L 207.39156,217.94096   L 207.39156,199.15984   L 187.53152,199.15984   z "
     style="fill:#000000;fill-rule:evenodd;fill-opacity:1;stroke:none;" />
  <path
     id="path13"
     d="  M 250.34839,217.94096   L 250.34839,217.94096   L 269.12951,217.94096   L 269.12951,198.64036   L 250.34839,198.64036   z "
     style="fill:#000000;fill-rule:evenodd;fill-opacity:1;stroke:none;" />
  <path
     id="path15"
     d="  M 206.11285,134.50482   L 204.59437,127.7516   L 135.70361,185.45361   L 171.38775,185.73333   L 171.38775,244.27449   L 286.87168,244.27449   L 286.87168,185.73333   L 315.32309,185.73333   C 314.48393,184.5745 297.86064,172.30682 297.06144,172.30682   C 296.42208,172.30682 294.30421,175.94317 293.86465,176.62249   L 297.06144,179.81927   L 291.70682,179.81927   C 290.06847,180.93815 280.43815,186.85221 280.43815,188.41064   L 280.43815,239.43935   L 238.52028,239.43935   L 238.52028,209.90903   L 218.66024,209.90903   L 218.66024,239.43935   L 177.3018,239.43935   L 177.3018,185.73333   L 228.85,185.73333   L 223.85502,179.41968   L 153.56566,179.17992   z "
     style="fill:#000000;fill-rule:evenodd;fill-opacity:1;stroke:none;" />
</svg>
