<?xml version="1.0" encoding="UTF-8" standalone="no"?>
<svg
   xmlns:dc="http://purl.org/dc/elements/1.1/"
   xmlns:cc="http://creativecommons.org/ns#"
   xmlns:rdf="http://www.w3.org/1999/02/22-rdf-syntax-ns#"
   xmlns:svg="http://www.w3.org/2000/svg"
   xmlns="http://www.w3.org/2000/svg"
   id="svg23"
   height="130.27mm"
   width="130.27mm"
   version="1.0">
  <metadata
     id="metadata27">
    <rdf:RDF>
      <cc:Work
         rdf:about="">
        <dc:format>image/svg+xml</dc:format>
        <dc:type
           rdf:resource="http://purl.org/dc/dcmitype/StillImage" />
      </cc:Work>
    </rdf:RDF>
  </metadata>
  <defs
     id="defs3">
    <pattern
       y="0"
       x="0"
       height="6"
       width="6"
       patternUnits="userSpaceOnUse"
       id="EMFhbasepattern" />
  </defs>
  <path
     id="path5"
     d="  M 198.2008,63.935742   L 198.2008,111.88755   L 294.10441,111.88755   L 294.10441,63.935742   L 198.2008,63.935742   z "
     style="fill:#000000;fill-rule:evenodd;fill-opacity:1;stroke:none;" />
  <path
     id="path7"
     d="  M 164.63454,327.67068   C 164.63454,437.95983 327.67068,437.95983 327.67068,327.67068   C 437.95983,327.67068 437.95983,164.63454 327.67068,164.63454   C 327.67068,54.345381 164.63454,54.345381 164.63454,164.63454   C 54.345381,164.63454 54.345381,327.67068 164.63454,327.67068   z "
     style="fill:#ffff80;fill-rule:evenodd;fill-opacity:1;stroke:none;" />
  <path
     id="path9"
     d="  M 164.63454,327.67068   C 164.63454,437.95983 327.67068,437.95983 327.67068,327.67068   C 437.95983,327.67068 437.95983,164.63454 327.67068,164.63454   C 327.67068,54.345381 164.63454,54.345381 164.63454,164.63454   C 54.345381,164.63454 54.345381,327.67068 164.63454,327.67068  "
     style="fill:none;stroke:#000000;stroke-width:9.5903616px;stroke-linecap:butt;stroke-linejoin:miter;stroke-miterlimit:10;stroke-dasharray:none;stroke-opacity:1;" />
  <path
     id="path11"
     d="  M 189.12992,182.93614   C 189.12992,187.69136 195.80321,193.48554 201.19779,193.48554   L 201.67731,193.48554   C 211.74719,193.48554 212.06686,185.33373 214.26466,184.45462   L 214.26466,177.42168   C 214.26466,173.10602 207.43152,167.87128 201.67731,167.87128   C 196.12289,167.87128 189.12992,173.0261 189.12992,177.42168   z "
     style="fill:#000000;fill-rule:evenodd;fill-opacity:1;stroke:none;" />
  <path
     id="path13"
     d="  M 277.04156,180.41867   C 277.04156,186.85221 282.6759,193.48554 289.10943,193.48554   L 289.58895,193.48554   C 293.4251,193.48554 296.18233,192.00703 298.3002,190.08895   C 299.37911,189.08996 302.65582,184.29478 302.65582,182.93614   L 302.65582,178.9002   C 302.65582,173.18594 296.02249,167.87128 289.58895,167.87128   C 282.51606,167.87128 277.04156,173.54558 277.04156,180.41867   z "
     style="fill:#000000;fill-rule:evenodd;fill-opacity:1;stroke:none;" />
  <path
     id="path15"
     d="  M 178.58052,218.62028   L 184.09498,218.62028   L 184.09498,323.11526   L 198.68032,323.11526   L 198.68032,261.81686   L 205.19377,261.81686   L 205.19377,323.11526   L 219.25964,323.11526   L 219.25964,218.62028   L 224.81405,218.62028   L 224.81405,257.78092   L 235.84297,257.78092   L 235.84297,212.58634   L 235.28353,207.07188   L 234.36445,207.03192   C 234.36445,201.51747 230.36847,196.48253 224.81405,196.48253   L 178.58052,196.48253   C 171.46767,196.48253 168.03112,204.75421 168.03112,212.06686   L 168.03112,257.78092   L 178.58052,257.78092   z "
     style="fill:#000000;fill-rule:evenodd;fill-opacity:1;stroke:none;" />
  <path
     id="path17"
     d="  M 307.69076,221.61727   L 307.69076,221.61727   L 308.21024,220.61827   L 308.01044,219.73915   L 306.61184,218.14076   z "
     style="fill:#ffffff;fill-rule:evenodd;fill-opacity:1;stroke:none;" />
  <path
     id="path19"
     d="  M 271.5271,220.61827   L 271.5271,220.61827   L 272.00662,221.61727   L 272.9257,218.02088   L 271.5271,219.61927   z "
     style="fill:#ffffff;fill-rule:evenodd;fill-opacity:1;stroke:none;" />
  <path
     id="path21"
     d="  M 271.5271,220.61827   L 271.5271,219.61927   L 272.9257,218.02088   L 272.00662,221.61727   L 262.89578,253.90482   L 262.49618,255.78293   L 261.41727,257.22148   L 261.45723,259.29939   L 256.66204,275.28333   L 274.04457,275.36325   L 274.04457,322.59578   L 286.59196,322.59578   L 286.59196,275.36325   L 293.10542,275.36325   L 293.10542,322.59578   L 305.69277,322.59578   L 305.69277,275.36325   L 322.75562,275.36325   L 319.59879,262.69598   L 319.23915,260.81787   L 307.69076,221.61727   L 306.61184,218.14076   L 308.01044,219.73915   L 308.21024,220.61827   C 313.20522,226.37249 321.23714,254.78393 328.78955,254.78393   L 329.78855,254.78393   C 332.74558,254.78393 334.82349,252.10662 334.82349,249.22951   L 334.82349,247.751   C 334.82349,246.55221 323.43494,223.7751 322.0763,219.77911   C 320.39799,214.90401 317.88052,209.78915 315.72269,205.55341   C 313.20522,200.55843 312.7257,196.48253 304.69377,196.48253   L 275.04357,196.48253   C 266.89176,196.48253 266.4522,200.83815 263.7749,205.83313   C 261.65702,209.78915 259.33935,215.46345 257.74096,219.89899   C 256.38233,223.73514 245.39337,246.47229 245.39337,247.751   L 245.39337,249.22951   C 245.39337,252.38634 246.83192,254.78393 249.90883,254.78393   L 251.94678,254.78393   C 257.58112,254.78393 267.21144,225.57329 271.5271,220.61827   z "
     style="fill:#000000;fill-rule:evenodd;fill-opacity:1;stroke:none;" />
</svg>
