<?xml version="1.0" encoding="UTF-8" standalone="no"?>
<svg
   xmlns:dc="http://purl.org/dc/elements/1.1/"
   xmlns:cc="http://creativecommons.org/ns#"
   xmlns:rdf="http://www.w3.org/1999/02/22-rdf-syntax-ns#"
   xmlns:svg="http://www.w3.org/2000/svg"
   xmlns="http://www.w3.org/2000/svg"
   id="svg23"
   height="89.669998mm"
   width="120.11mm"
   version="1.0">
  <metadata
     id="metadata27">
    <rdf:RDF>
      <cc:Work
         rdf:about="">
        <dc:format>image/svg+xml</dc:format>
        <dc:type
           rdf:resource="http://purl.org/dc/dcmitype/StillImage" />
      </cc:Work>
    </rdf:RDF>
  </metadata>
  <defs
     id="defs3">
    <pattern
       y="0"
       x="0"
       height="6"
       width="6"
       patternUnits="userSpaceOnUse"
       id="EMFhbasepattern" />
  </defs>
  <path
     id="path5"
     d="  M 179.02008,15.983936   L 179.02008,54.345381   L 274.92369,54.345381   L 274.92369,15.983936   L 179.02008,15.983936   z "
     style="fill:#000000;fill-rule:evenodd;fill-opacity:1;stroke:none;" />
  <path
     id="path7"
     d="  M 54.345381,54.345381   L 54.345381,284.51405   L 399.59839,284.51405   L 399.59839,54.345381   L 54.345381,54.345381   z "
     style="fill:#80e0ff;fill-rule:evenodd;fill-opacity:1;stroke:none;" />
  <path
     id="path9"
     d="  M 54.345381,54.345381   L 399.59839,54.345381   L 399.59839,284.51405   L 54.345381,284.51405   z "
     style="fill:none;stroke:#000000;stroke-width:9.5903616px;stroke-linecap:butt;stroke-linejoin:miter;stroke-miterlimit:10;stroke-dasharray:none;stroke-opacity:1;" />
  <path
     id="path11"
     d="  M 169.94919,106.21325   C 169.94919,110.96847 176.62249,116.76265 182.01707,116.76265   L 182.49658,116.76265   C 192.56646,116.76265 192.88614,108.61084 195.08393,107.73173   L 195.08393,100.69879   C 195.08393,96.383131 188.2508,91.148392 182.49658,91.148392   C 176.94217,91.148392 169.94919,96.303211 169.94919,100.69879   z "
     style="fill:#000000;fill-rule:evenodd;fill-opacity:1;stroke:none;" />
  <path
     id="path13"
     d="  M 257.86084,103.69578   C 257.86084,110.12932 263.49518,116.76265 269.92871,116.76265   L 270.40823,116.76265   C 274.24437,116.76265 277.0016,115.28413 279.11947,113.36606   C 280.19839,112.36707 283.4751,107.57189 283.4751,106.21325   L 283.4751,102.17731   C 283.4751,96.463051 276.84176,91.148392 270.40823,91.148392   C 263.33534,91.148392 257.86084,96.822689 257.86084,103.69578   z "
     style="fill:#000000;fill-rule:evenodd;fill-opacity:1;stroke:none;" />
  <path
     id="path15"
     d="  M 159.3998,141.89739   L 164.91425,141.89739   L 164.91425,246.39237   L 179.4996,246.39237   L 179.4996,185.09397   L 186.01305,185.09397   L 186.01305,246.39237   L 200.07891,246.39237   L 200.07891,141.89739   L 205.63333,141.89739   L 205.63333,181.05803   L 216.66225,181.05803   L 216.66225,135.86345   L 216.10281,130.34899   L 215.18373,130.30903   C 215.18373,124.79458 211.18775,119.75964 205.63333,119.75964   L 159.3998,119.75964   C 152.28695,119.75964 148.8504,128.03132 148.8504,135.34397   L 148.8504,181.05803   L 159.3998,181.05803   z "
     style="fill:#000000;fill-rule:evenodd;fill-opacity:1;stroke:none;" />
  <path
     id="path17"
     d="  M 288.51004,144.89438   L 288.51004,144.89438   L 289.02951,143.89538   L 288.82971,143.01626   L 287.43112,141.41787   z "
     style="fill:#ffffff;fill-rule:evenodd;fill-opacity:1;stroke:none;" />
  <path
     id="path19"
     d="  M 252.34638,143.89538   L 252.34638,143.89538   L 252.8259,144.89438   L 253.74498,141.29799   L 252.34638,142.89638   z "
     style="fill:#ffffff;fill-rule:evenodd;fill-opacity:1;stroke:none;" />
  <path
     id="path21"
     d="  M 252.34638,143.89538   L 252.34638,142.89638   L 253.74498,141.29799   L 252.8259,144.89438   L 243.71506,177.18193   L 243.31546,179.06004   L 242.23654,180.49859   L 242.2765,182.5765   L 237.48132,198.56044   L 254.86385,198.64036   L 254.86385,245.87289   L 267.41124,245.87289   L 267.41124,198.64036   L 273.92469,198.64036   L 273.92469,245.87289   L 286.51204,245.87289   L 286.51204,198.64036   L 303.5749,198.64036   L 300.41807,185.97309   L 300.05843,184.09498   L 288.51004,144.89438   L 287.43112,141.41787   L 288.82971,143.01626   L 289.02951,143.89538   C 294.02449,149.6496 302.05642,178.06104 309.60883,178.06104   L 310.60783,178.06104   C 313.56485,178.06104 315.64277,175.38373 315.64277,172.50662   L 315.64277,171.02811   C 315.64277,169.82931 304.25421,147.05221 302.89558,143.05622   C 301.21726,138.18112 298.69979,133.06626 296.54196,128.83052   C 294.02449,123.83554 293.54498,119.75964 285.51305,119.75964   L 255.86285,119.75964   C 247.71104,119.75964 247.27148,124.11526 244.59417,129.11024   C 242.4763,133.06626 240.15863,138.74056 238.56024,143.1761   C 237.2016,147.01225 226.21265,169.7494 226.21265,171.02811   L 226.21265,172.50662   C 226.21265,175.66345 227.6512,178.06104 230.72811,178.06104   L 232.76606,178.06104   C 238.4004,178.06104 248.03072,148.8504 252.34638,143.89538   z "
     style="fill:#000000;fill-rule:evenodd;fill-opacity:1;stroke:none;" />
</svg>
