<?xml version="1.0" encoding="UTF-8" standalone="no"?>
<svg
   xmlns:dc="http://purl.org/dc/elements/1.1/"
   xmlns:cc="http://creativecommons.org/ns#"
   xmlns:rdf="http://www.w3.org/1999/02/22-rdf-syntax-ns#"
   xmlns:svg="http://www.w3.org/2000/svg"
   xmlns="http://www.w3.org/2000/svg"
   id="svg15"
   height="101.85mm"
   width="101.85mm"
   version="1.0">
  <metadata
     id="metadata19">
    <rdf:RDF>
      <cc:Work
         rdf:about="">
        <dc:format>image/svg+xml</dc:format>
        <dc:type
           rdf:resource="http://purl.org/dc/dcmitype/StillImage" />
      </cc:Work>
    </rdf:RDF>
  </metadata>
  <defs
     id="defs3">
    <pattern
       y="0"
       x="0"
       height="6"
       width="6"
       patternUnits="userSpaceOnUse"
       id="EMFhbasepattern" />
  </defs>
  <path
     id="path5"
     d="  M 330.54779,192.44658   C 330.54779,268.72992 268.72992,330.54779 192.44658,330.54779   C 116.20321,330.54779 54.345381,268.72992 54.345381,192.44658   C 54.345381,116.20321 116.20321,54.345381 192.44658,54.345381   C 268.72992,54.345381 330.54779,116.20321 330.54779,192.44658   z "
     style="fill:#80e0ff;fill-rule:evenodd;fill-opacity:1;stroke:none;" />
  <path
     id="path7"
     d="  M 330.54779,192.44658   C 330.54779,268.72992 268.72992,330.54779 192.44658,330.54779   C 116.20321,330.54779 54.345381,268.72992 54.345381,192.44658   C 54.345381,116.20321 116.20321,54.345381 192.44658,54.345381   C 268.72992,54.345381 330.54779,116.20321 330.54779,192.44658  "
     style="fill:none;stroke:#000000;stroke-width:9.5903616px;stroke-linecap:butt;stroke-linejoin:miter;stroke-miterlimit:10;stroke-dasharray:none;stroke-opacity:1;" />
  <path
     id="path9"
     d="  M 130.10924,264.37429   L 130.10924,264.37429   L 91.74779,187.6514   L 110.92851,187.6514   L 139.6996,125.31405   L 168.47068,125.31405   L 139.6996,187.6514   L 293.14538,187.6514   L 254.78393,264.37429   L 130.10924,264.37429   z "
     style="fill:#ffffff;fill-rule:evenodd;fill-opacity:1;stroke:none;" />
  <path
     id="path11"
     d="  M 130.10924,264.37429   L 130.10924,264.37429   L 91.74779,187.6514   L 110.92851,187.6514   L 139.6996,125.31405   L 168.47068,125.31405   L 139.6996,187.6514   L 293.14538,187.6514   L 254.78393,264.37429   L 130.10924,264.37429   z "
     style="fill:none;stroke:#000000;stroke-width:9.5903616px;stroke-linecap:butt;stroke-linejoin:miter;stroke-miterlimit:10;stroke-dasharray:none;stroke-opacity:1;" />
  <path
     id="path13"
     d="  M 154.7245,243.4753   L 154.7245,194.04498   L 176.66245,194.04498   C 181.05803,194.04498 184.41466,194.48454 186.69237,195.36365   C 189.01004,196.24277 190.80823,197.84116 192.20682,200.07891   C 193.56546,202.31666 194.24478,204.79417 194.24478,207.51144   C 194.24478,211.02791 193.1259,213.98494 190.84819,216.38253   C 188.57048,218.82008 185.05401,220.33855 180.33875,220.97791   C 182.05703,221.81707 183.3757,222.61626 184.25482,223.45542   C 186.17289,225.21365 188.01104,227.37148 189.68935,230.00883   L 198.28072,243.4753   L 190.08895,243.4753   L 183.53554,233.16566   C 181.61747,230.20863 180.05903,227.93092 178.82028,226.37249   C 177.58152,224.81405 176.46265,223.69518 175.50361,223.05582   C 174.50462,222.45642 173.50562,222.01686 172.50662,221.73715   C 171.74739,221.61727 170.54859,221.53735 168.87028,221.49739   L 161.27791,221.49739   L 161.27791,243.4753   z  M 161.27791,215.86305   L 175.34377,215.86305   C 178.34076,215.86305 180.65843,215.54337 182.33674,214.94397   C 184.05502,214.30462 185.33373,213.30562 186.21285,211.94698   C 187.05201,210.58835 187.49156,209.10984 187.49156,207.51144   C 187.49156,205.19377 186.65241,203.2757 184.97409,201.75723   C 183.25582,200.23875 180.57851,199.51948 176.90221,199.51948   L 161.27791,199.51948   z  M 204.23474,243.4753   L 204.23474,194.04498   L 222.7761,194.04498   C 226.53233,194.04498 229.56927,194.5245 231.84698,195.52349   C 234.16466,196.52249 235.92289,198.08092 237.24156,200.15883   C 238.52028,202.23674 239.15964,204.43454 239.15964,206.67229   C 239.15964,208.79016 238.6002,210.78815 237.44136,212.66626   C 236.28253,214.50441 234.56425,216.02289 232.24658,217.18172   C 235.24357,218.06084 237.52128,219.53935 239.15964,221.65723   C 240.75803,223.7751 241.55723,226.25261 241.55723,229.12972   C 241.55723,231.44739 241.07771,233.60522 240.07871,235.60321   C 239.11968,237.6012 237.92088,239.11968 236.48233,240.19859   C 235.04377,241.27751 233.20562,242.0767 231.04779,242.63614   C 228.88996,243.19558 226.21265,243.4753 223.09578,243.4753   z  M 210.78815,214.82409   L 221.45743,214.82409   C 224.37449,214.82409 226.45241,214.62429 227.69116,214.2247   C 229.36947,213.74518 230.60823,212.90602 231.44739,211.78715   C 232.28654,210.62831 232.7261,209.18976 232.7261,207.47148   C 232.7261,205.83313 232.3265,204.39458 231.52731,203.11586   C 230.76807,201.87711 229.64919,201.03795 228.17068,200.55843   C 226.69217,200.11887 224.21466,199.87911 220.65823,199.87911   L 210.78815,199.87911   z  M 210.78815,237.64116   L 223.09578,237.64116   C 225.17369,237.64116 226.69217,237.56124 227.53132,237.4014   C 229.0498,237.12168 230.28855,236.68213 231.28755,236.04277   C 232.3265,235.40341 233.16566,234.52429 233.80502,233.28554   C 234.44437,232.08674 234.76405,230.72811 234.76405,229.12972   C 234.76405,227.29156 234.32449,225.69317 233.36546,224.33453   C 232.40642,222.9759 231.12771,222.01686 229.44939,221.45743   C 227.77108,220.93795 225.33353,220.65823 222.21666,220.65823   L 210.78815,220.65823   z "
     style="fill:#000000;fill-rule:evenodd;fill-opacity:1;stroke:none;" />
</svg>
