<?xml version="1.0" encoding="UTF-8" standalone="no"?>
<svg
   xmlns:dc="http://purl.org/dc/elements/1.1/"
   xmlns:cc="http://creativecommons.org/ns#"
   xmlns:rdf="http://www.w3.org/1999/02/22-rdf-syntax-ns#"
   xmlns:svg="http://www.w3.org/2000/svg"
   xmlns="http://www.w3.org/2000/svg"
   id="svg15"
   height="116.73mm"
   width="116.73mm"
   version="1.0">
  <metadata
     id="metadata19">
    <rdf:RDF>
      <cc:Work
         rdf:about="">
        <dc:format>image/svg+xml</dc:format>
        <dc:type
           rdf:resource="http://purl.org/dc/dcmitype/StillImage" />
      </cc:Work>
    </rdf:RDF>
  </metadata>
  <defs
     id="defs3">
    <pattern
       y="0"
       x="0"
       height="6"
       width="6"
       patternUnits="userSpaceOnUse"
       id="EMFhbasepattern" />
  </defs>
  <path
     id="path5"
     d="  M 220.57831,386.49156   L 220.57831,386.49156   L 386.49156,220.57831   L 220.57831,54.665059   L 54.665059,220.57831   z "
     style="fill:#ff8080;fill-rule:evenodd;fill-opacity:1;stroke:none;" />
  <path
     id="path7"
     d="  M 220.57831,386.49156   L 220.57831,386.49156   L 386.49156,220.57831   L 220.57831,54.665059   L 54.665059,220.57831   z "
     style="fill:none;stroke:#000000;stroke-width:9.5903616px;stroke-linecap:butt;stroke-linejoin:miter;stroke-miterlimit:10;stroke-dasharray:none;stroke-opacity:1;" />
  <path
     id="path9"
     d="  M 158.24096,292.50602   L 158.24096,292.50602   L 119.87952,215.78313   L 139.06024,215.78313   L 167.83132,153.44578   L 196.60241,153.44578   L 167.83132,215.78313   L 321.2771,215.78313   L 282.91566,292.50602   L 158.24096,292.50602   z "
     style="fill:#ffffff;fill-rule:evenodd;fill-opacity:1;stroke:none;" />
  <path
     id="path11"
     d="  M 158.24096,292.50602   L 158.24096,292.50602   L 119.87952,215.78313   L 139.06024,215.78313   L 167.83132,153.44578   L 196.60241,153.44578   L 167.83132,215.78313   L 321.2771,215.78313   L 282.91566,292.50602   L 158.24096,292.50602   z "
     style="fill:none;stroke:#000000;stroke-width:9.5903616px;stroke-linecap:butt;stroke-linejoin:miter;stroke-miterlimit:10;stroke-dasharray:none;stroke-opacity:1;" />
  <path
     id="path13"
     d="  M 182.85622,271.60702   L 182.85622,222.1767   L 204.79417,222.1767   C 209.18976,222.1767 212.54638,222.61626 214.82409,223.49538   C 217.14176,224.37449 218.93996,225.97289 220.33855,228.21064   C 221.69719,230.44839 222.3765,232.9259 222.3765,235.64317   C 222.3765,239.15964 221.25763,242.11666 218.97992,244.51425   C 216.70221,246.9518 213.18574,248.47028 208.47048,249.10963   C 210.18875,249.94879 211.50743,250.74799 212.38654,251.58714   C 214.30462,253.34538 216.14277,255.50321 217.82108,258.14056   L 226.41245,271.60702   L 218.22068,271.60702   L 211.66727,261.29739   C 209.74919,258.34036 208.19076,256.06265 206.95201,254.50421   C 205.71325,252.94578 204.59437,251.8269 203.63534,251.18755   C 202.63634,250.58815 201.63735,250.14859 200.63835,249.86887   C 199.87911,249.74899 198.68032,249.66907 197.00201,249.62911   L 189.40964,249.62911   L 189.40964,271.60702   z  M 189.40964,243.99478   L 203.4755,243.99478   C 206.47249,243.99478 208.79016,243.6751 210.46847,243.0757   C 212.18674,242.43634 213.46546,241.43735 214.34458,240.07871   C 215.18373,238.72008 215.62329,237.24156 215.62329,235.64317   C 215.62329,233.3255 214.78413,231.40743 213.10582,229.88895   C 211.38755,228.37048 208.71024,227.6512 205.03393,227.6512   L 189.40964,227.6512   z  M 232.36646,271.60702   L 232.36646,222.1767   L 250.90783,222.1767   C 254.66405,222.1767 257.701,222.65622 259.97871,223.65522   C 262.29638,224.65421 264.05461,226.21265 265.37329,228.29056   C 266.652,230.36847 267.29136,232.56626 267.29136,234.80401   C 267.29136,236.92188 266.73192,238.91988 265.57309,240.79799   C 264.41425,242.63614 262.69598,244.15461 260.37831,245.31345   C 263.3753,246.19257 265.65301,247.67108 267.29136,249.78895   C 268.88976,251.90682 269.68895,254.38433 269.68895,257.26144   C 269.68895,259.57911 269.20943,261.73694 268.21044,263.73494   C 267.2514,265.73293 266.05261,267.2514 264.61405,268.33032   C 263.1755,269.40923 261.33735,270.20843 259.17951,270.76787   C 257.02168,271.32731 254.34437,271.60702 251.22751,271.60702   z  M 238.91988,242.95582   L 249.58915,242.95582   C 252.50622,242.95582 254.58413,242.75602 255.82289,242.35642   C 257.5012,241.8769 258.73996,241.03775 259.57911,239.91887   C 260.41827,238.76004 260.85783,237.32148 260.85783,235.60321   C 260.85783,233.96486 260.45823,232.5263 259.65903,231.24759   C 258.8998,230.00883 257.78092,229.16968 256.30241,228.69016   C 254.82389,228.2506 252.34638,228.01084 248.78996,228.01084   L 238.91988,228.01084   z  M 238.91988,265.77289   L 251.22751,265.77289   C 253.30542,265.77289 254.82389,265.69297 255.66305,265.53313   C 257.18152,265.25341 258.42028,264.81385 259.41927,264.17449   C 260.45823,263.53514 261.29739,262.65602 261.93674,261.41727   C 262.5761,260.21847 262.89578,258.85984 262.89578,257.26144   C 262.89578,255.42329 262.45622,253.8249 261.49718,252.46626   C 260.53815,251.10763 259.25943,250.14859 257.58112,249.58915   C 255.90281,249.06968 253.46526,248.78996 250.34839,248.78996   L 238.91988,248.78996   z "
     style="fill:#000000;fill-rule:evenodd;fill-opacity:1;stroke:none;" />
</svg>
