<?xml version="1.0" encoding="UTF-8" standalone="no"?>
<svg
   xmlns:dc="http://purl.org/dc/elements/1.1/"
   xmlns:cc="http://creativecommons.org/ns#"
   xmlns:rdf="http://www.w3.org/1999/02/22-rdf-syntax-ns#"
   xmlns:svg="http://www.w3.org/2000/svg"
   xmlns="http://www.w3.org/2000/svg"
   id="svg13"
   height="95.75mm"
   width="95.75mm"
   version="1.0">
  <metadata
     id="metadata17">
    <rdf:RDF>
      <cc:Work
         rdf:about="">
        <dc:format>image/svg+xml</dc:format>
        <dc:type
           rdf:resource="http://purl.org/dc/dcmitype/StillImage" />
      </cc:Work>
    </rdf:RDF>
  </metadata>
  <defs
     id="defs3">
    <pattern
       y="0"
       x="0"
       height="6"
       width="6"
       patternUnits="userSpaceOnUse"
       id="EMFhbasepattern" />
  </defs>
  <path
     id="path5"
     d="  M 54.345381,54.345381   L 54.345381,307.53092   L 307.53092,307.53092   L 307.53092,54.345381   L 54.345381,54.345381   z "
     style="fill:#aaffaa;fill-rule:evenodd;fill-opacity:1;stroke:none;" />
  <path
     id="path7"
     d="  M 54.345381,54.345381   L 307.53092,54.345381   L 307.53092,307.53092   L 54.345381,307.53092   z "
     style="fill:none;stroke:#000000;stroke-width:9.5903616px;stroke-linecap:butt;stroke-linejoin:miter;stroke-miterlimit:10;stroke-dasharray:none;stroke-opacity:1;" />
  <path
     id="path9"
     d="  M 108.57088,164.15502   L 115.52389,163.55562   C 115.84357,166.35281 116.64277,168.63052 117.84156,170.42871   C 119.04036,172.18695 120.87851,173.6255 123.43594,174.74437   C 125.95341,175.82329 128.79056,176.38273 131.94739,176.38273   C 134.74458,176.38273 137.22209,175.98313 139.37992,175.14397   C 141.53775,174.30482 143.13614,173.14598 144.1751,171.70743   C 145.25401,170.26887 145.77349,168.67048 145.77349,166.95221   C 145.77349,165.19397 145.25401,163.6755 144.25502,162.35682   C 143.21606,161.07811 141.57771,159.95923 139.22008,159.08012   C 137.74156,158.52068 134.4249,157.6016 129.35,156.36285   C 124.23514,155.16405 120.63875,154.00522 118.6008,152.9263   C 115.96345,151.52771 113.96546,149.80944 112.64679,147.73152   C 111.36807,145.65361 110.72871,143.3759 110.72871,140.81847   C 110.72871,138.02128 111.48795,135.38393 113.08634,132.94638   C 114.68474,130.50883 117.00241,128.63072 120.07932,127.39197   C 123.15622,126.11325 126.55281,125.47389 130.26907,125.47389   C 134.4249,125.47389 138.02128,126.15321 141.17811,127.47189   C 144.33494,128.79056 146.77249,130.74859 148.4508,133.34598   C 150.12911,135.90341 151.04819,138.82048 151.16807,142.09719   L 144.13514,142.61666   C 143.73554,139.1002 142.45683,136.46285 140.25903,134.66466   C 138.1012,132.86646 134.86446,131.98735 130.58875,131.98735   C 126.15321,131.98735 122.8765,132.78654 120.83855,134.4249   C 118.84056,136.06325 117.8016,138.02128 117.8016,140.29899   C 117.8016,142.29699 118.52088,143.9753 119.95944,145.25401   C 121.39799,146.53273 125.0743,147.8514 131.06827,149.21004   C 137.02229,150.56867 141.13815,151.72751 143.3759,152.76646   C 146.61265,154.24498 149.01024,156.12309 150.52871,158.44076   C 152.08715,160.71847 152.84638,163.35582 152.84638,166.35281   C 152.84638,169.30984 152.00723,172.06707 150.32891,174.70442   C 148.61064,177.3018 146.17309,179.33976 143.01626,180.81827   C 139.81948,182.25682 136.26305,182.9761 132.30703,182.9761   C 127.27209,182.9761 123.03634,182.25682 119.63976,180.77831   C 116.24317,179.33976 113.56586,177.10201 111.64779,174.18494   C 109.68976,171.22791 108.69076,167.91124 108.57088,164.15502   z  M 163.03614,182.05703   L 163.03614,126.43293   L 203.2757,126.43293   L 203.2757,132.98634   L 170.42871,132.98634   L 170.42871,150.00923   L 201.15783,150.00923   L 201.15783,156.56265   L 170.42871,156.56265   L 170.42871,175.46365   L 204.55441,175.46365   L 204.55441,182.05703   z  M 254.38433,162.55662   L 261.73694,164.39478   C 260.21847,170.42871 257.42128,175.06405 253.4253,178.22088   C 249.42931,181.41767 244.51425,182.9761 238.72008,182.9761   C 232.7261,182.9761 227.851,181.77731 224.09478,179.33976   C 220.33855,176.90221 217.5014,173.34578 215.54337,168.71044   C 213.58534,164.11506 212.58634,159.12008 212.58634,153.80542   C 212.58634,148.01124 213.70522,142.9763 215.90301,138.66064   C 218.14076,134.34498 221.25763,131.06827 225.37349,128.83052   C 229.44939,126.59277 233.9249,125.47389 238.83996,125.47389   C 244.39437,125.47389 249.06968,126.91245 252.86586,129.7496   C 256.66204,132.58675 259.29939,136.54277 260.81787,141.69759   L 253.54518,143.3759   C 252.26646,139.33996 250.38835,136.38293 247.9508,134.54478   C 245.47329,132.70662 242.39638,131.78755 238.68012,131.78755   C 234.40441,131.78755 230.84799,132.78654 227.97088,134.86446   C 225.09377,136.90241 223.09578,139.65964 221.93694,143.09618   C 220.77811,146.57269 220.17871,150.12911 220.17871,153.76546   C 220.17871,158.52068 220.85803,162.63654 222.25662,166.15301   C 223.61526,169.70944 225.77309,172.34678 228.69016,174.06506   C 231.56727,175.82329 234.72409,176.70241 238.12068,176.70241   C 242.23654,176.70241 245.71305,175.50361 248.59016,173.14598   C 251.46727,170.74839 253.38534,167.23193 254.38433,162.55662   z "
     style="fill:#000000;fill-rule:evenodd;fill-opacity:1;stroke:none;" />
  <path
     id="path11"
     d="  M 54.345381,218.34056   C 54.345381,217.38152 80.239356,212.58634 80.239356,238.48032   C 80.239356,267.2514 120.51887,267.2514 120.51887,238.48032   C 120.51887,209.70923 160.79839,209.70923 160.79839,238.48032   C 160.79839,267.2514 201.07791,267.2514 201.07791,238.48032   C 201.07791,209.70923 241.35743,209.70923 241.35743,238.48032   C 241.35743,267.2514 281.63694,266.8518 281.63694,238.48032   C 281.63694,212.58634 307.53092,217.38152 307.53092,218.34056  "
     style="fill:none;stroke:#000000;stroke-width:9.5903616px;stroke-linecap:butt;stroke-linejoin:miter;stroke-miterlimit:10;stroke-dasharray:none;stroke-opacity:1;" />
</svg>
