<?xml version="1.0" encoding="UTF-8" standalone="no"?>
<svg
   xmlns:dc="http://purl.org/dc/elements/1.1/"
   xmlns:cc="http://creativecommons.org/ns#"
   xmlns:rdf="http://www.w3.org/1999/02/22-rdf-syntax-ns#"
   xmlns:svg="http://www.w3.org/2000/svg"
   xmlns="http://www.w3.org/2000/svg"
   id="svg13"
   height="130.27mm"
   width="130.27mm"
   version="1.0">
  <metadata
     id="metadata17">
    <rdf:RDF>
      <cc:Work
         rdf:about="">
        <dc:format>image/svg+xml</dc:format>
        <dc:type
           rdf:resource="http://purl.org/dc/dcmitype/StillImage" />
      </cc:Work>
    </rdf:RDF>
  </metadata>
  <defs
     id="defs3">
    <pattern
       y="0"
       x="0"
       height="6"
       width="6"
       patternUnits="userSpaceOnUse"
       id="EMFhbasepattern" />
  </defs>
  <path
     id="path5"
     d="  M 164.63454,327.67068   C 164.63454,437.95983 327.67068,437.95983 327.67068,327.67068   C 437.95983,327.67068 437.95983,164.63454 327.67068,164.63454   C 327.67068,54.345381 164.63454,54.345381 164.63454,164.63454   C 54.345381,164.63454 54.345381,327.67068 164.63454,327.67068   z "
     style="fill:#ffff80;fill-rule:evenodd;fill-opacity:1;stroke:none;" />
  <path
     id="path7"
     d="  M 164.63454,327.67068   C 164.63454,437.95983 327.67068,437.95983 327.67068,327.67068   C 437.95983,327.67068 437.95983,164.63454 327.67068,164.63454   C 327.67068,54.345381 164.63454,54.345381 164.63454,164.63454   C 54.345381,164.63454 54.345381,327.67068 164.63454,327.67068  "
     style="fill:none;stroke:#000000;stroke-width:9.5903616px;stroke-linecap:butt;stroke-linejoin:miter;stroke-miterlimit:10;stroke-dasharray:none;stroke-opacity:1;" />
  <path
     id="path9"
     d="  M 173.78534,229.36947   L 180.73835,228.77008   C 181.05803,231.56727 181.85723,233.84498 183.05602,235.64317   C 184.25482,237.4014 186.09297,238.83996 188.6504,239.95883   C 191.16787,241.03775 194.00502,241.59719 197.16184,241.59719   C 199.95903,241.59719 202.43654,241.19759 204.59437,240.35843   C 206.75221,239.51927 208.3506,238.36044 209.38956,236.92188   C 210.46847,235.48333 210.98795,233.88494 210.98795,232.16666   C 210.98795,230.40843 210.46847,228.88996 209.46947,227.57128   C 208.43052,226.29257 206.79217,225.17369 204.43454,224.29458   C 202.95602,223.73514 199.63935,222.81606 194.56446,221.57731   C 189.4496,220.37851 185.85321,219.21968 183.81526,218.14076   C 181.17791,216.74217 179.17992,215.02389 177.86124,212.94598   C 176.58253,210.86807 175.94317,208.59036 175.94317,206.03293   C 175.94317,203.23574 176.70241,200.59839 178.3008,198.16084   C 179.89919,195.72329 182.21686,193.84518 185.29377,192.60642   C 188.37068,191.32771 191.76727,190.68835 195.48353,190.68835   C 199.63935,190.68835 203.23574,191.36767 206.39257,192.68634   C 209.54939,194.00502 211.98694,195.96305 213.66526,198.56044   C 215.34357,201.11787 216.26265,204.03494 216.38253,207.31164   L 209.3496,207.83112   C 208.95,204.31466 207.67128,201.67731 205.47349,199.87911   C 203.31566,198.08092 200.07891,197.2018 195.80321,197.2018   C 191.36767,197.2018 188.09096,198.001 186.05301,199.63935   C 184.05502,201.27771 183.01606,203.23574 183.01606,205.51345   C 183.01606,207.51144 183.73534,209.18976 185.17389,210.46847   C 186.61245,211.74719 190.28875,213.06586 196.28273,214.42449   C 202.23674,215.78313 206.35261,216.94196 208.59036,217.98092   C 211.82711,219.45943 214.2247,221.33755 215.74317,223.65522   C 217.3016,225.93293 218.06084,228.57028 218.06084,231.56727   C 218.06084,234.52429 217.22168,237.28152 215.54337,239.91887   C 213.8251,242.51626 211.38755,244.55421 208.23072,246.03273   C 205.03393,247.47128 201.47751,248.19056 197.52148,248.19056   C 192.48654,248.19056 188.2508,247.47128 184.85421,245.99277   C 181.45763,244.55421 178.78032,242.31646 176.86225,239.39939   C 174.90421,236.44237 173.90522,233.1257 173.78534,229.36947   z  M 228.2506,247.27148   L 228.2506,191.64739   L 268.49016,191.64739   L 268.49016,198.2008   L 235.64317,198.2008   L 235.64317,215.22369   L 266.37229,215.22369   L 266.37229,221.77711   L 235.64317,221.77711   L 235.64317,240.67811   L 269.76887,240.67811   L 269.76887,247.27148   z  M 319.59879,227.77108   L 326.9514,229.60923   C 325.43293,235.64317 322.63574,240.27851 318.63975,243.43534   C 314.64377,246.63212 309.72871,248.19056 303.93453,248.19056   C 297.94056,248.19056 293.06546,246.99176 289.30923,244.55421   C 285.55301,242.11666 282.71586,238.56024 280.75783,233.9249   C 278.7998,229.32951 277.8008,224.33453 277.8008,219.01988   C 277.8008,213.2257 278.91967,208.19076 281.11747,203.8751   C 283.35522,199.55943 286.47208,196.28273 290.58795,194.04498   C 294.66385,191.80723 299.13935,190.68835 304.05441,190.68835   C 309.60883,190.68835 314.28413,192.1269 318.08032,194.96405   C 321.8765,197.8012 324.51385,201.75723 326.03232,206.91205   L 318.75963,208.59036   C 317.48092,204.55441 315.60281,201.59739 313.16526,199.75923   C 310.68775,197.92108 307.61084,197.00201 303.89457,197.00201   C 299.61887,197.00201 296.06245,198.001 293.18534,200.07891   C 290.30823,202.11686 288.31024,204.87409 287.1514,208.31064   C 285.99257,211.78715 285.39317,215.34357 285.39317,218.97992   C 285.39317,223.73514 286.07249,227.851 287.47108,231.36747   C 288.82971,234.92389 290.98755,237.56124 293.90461,239.27951   C 296.78172,241.03775 299.93855,241.91686 303.33514,241.91686   C 307.451,241.91686 310.92751,240.71807 313.80461,238.36044   C 316.68172,235.96285 318.59979,232.44638 319.59879,227.77108   z "
     style="fill:#000000;fill-rule:evenodd;fill-opacity:1;stroke:none;" />
  <path
     id="path11"
     d="  M 101.17831,303.53494   C 116.68273,303.53494 119.28012,289.70883 119.28012,284.51405   C 119.28012,258.62008 155.52369,258.62008 155.52369,284.51405   C 155.52369,310.40803 191.80723,310.40803 191.80723,284.51405   C 191.80723,258.62008 228.0508,258.62008 228.0508,284.51405   C 228.0508,310.40803 264.29437,310.40803 264.29437,284.51405   C 264.29437,258.62008 300.53795,258.62008 300.53795,284.51405   C 300.53795,310.40803 336.78152,310.40803 336.78152,284.51405   C 336.78152,258.62008 373.06505,258.62008 373.06505,284.51405   C 373.06505,289.70883 375.62248,303.53494 391.16686,303.53494  "
     style="fill:none;stroke:#000000;stroke-width:8.6313248px;stroke-linecap:butt;stroke-linejoin:miter;stroke-miterlimit:10;stroke-dasharray:none;stroke-opacity:1;" />
</svg>
