<?xml version="1.0" encoding="UTF-8" standalone="no"?>
<svg
   xmlns:dc="http://purl.org/dc/elements/1.1/"
   xmlns:cc="http://creativecommons.org/ns#"
   xmlns:rdf="http://www.w3.org/1999/02/22-rdf-syntax-ns#"
   xmlns:svg="http://www.w3.org/2000/svg"
   xmlns="http://www.w3.org/2000/svg"
   id="svg13"
   height="89.669998mm"
   width="120.11mm"
   version="1.0">
  <metadata
     id="metadata17">
    <rdf:RDF>
      <cc:Work
         rdf:about="">
        <dc:format>image/svg+xml</dc:format>
        <dc:type
           rdf:resource="http://purl.org/dc/dcmitype/StillImage" />
      </cc:Work>
    </rdf:RDF>
  </metadata>
  <defs
     id="defs3">
    <pattern
       y="0"
       x="0"
       height="6"
       width="6"
       patternUnits="userSpaceOnUse"
       id="EMFhbasepattern" />
  </defs>
  <path
     id="path5"
     d="  M 54.345381,54.345381   L 54.345381,284.51405   L 399.59839,284.51405   L 399.59839,54.345381   L 54.345381,54.345381   z "
     style="fill:#80e0ff;fill-rule:evenodd;fill-opacity:1;stroke:none;" />
  <path
     id="path7"
     d="  M 54.345381,54.345381   L 399.59839,54.345381   L 399.59839,284.51405   L 54.345381,284.51405   z "
     style="fill:none;stroke:#000000;stroke-width:9.5903616px;stroke-linecap:butt;stroke-linejoin:miter;stroke-miterlimit:10;stroke-dasharray:none;stroke-opacity:1;" />
  <path
     id="path9"
     d="  M 154.60462,152.64658   L 161.55763,152.04719   C 161.87731,154.84438 162.6765,157.12209 163.8753,158.92028   C 165.07409,160.67851 166.91225,162.11707 169.46968,163.23594   C 171.98715,164.31486 174.82429,164.87429 177.98112,164.87429   C 180.77831,164.87429 183.25582,164.4747 185.41365,163.63554   C 187.57148,162.79638 189.16988,161.63755 190.20883,160.19899   C 191.28775,158.76044 191.80723,157.16205 191.80723,155.44377   C 191.80723,153.68554 191.28775,152.16707 190.28875,150.84839   C 189.2498,149.56968 187.61144,148.4508 185.25381,147.57168   C 183.7753,147.01225 180.45863,146.09317 175.38373,144.85442   C 170.26887,143.65562 166.67249,142.49679 164.63454,141.41787   C 161.99719,140.01928 159.99919,138.301 158.68052,136.22309   C 157.4018,134.14518 156.76245,131.86747 156.76245,129.31004   C 156.76245,126.51285 157.52168,123.8755 159.12008,121.43795   C 160.71847,119.0004 163.03614,117.12229 166.11305,115.88353   C 169.18996,114.60482 172.58654,113.96546 176.30281,113.96546   C 180.45863,113.96546 184.05502,114.64478 187.21184,115.96345   C 190.36867,117.28213 192.80622,119.24016 194.48454,121.83755   C 196.16285,124.39498 197.08192,127.31205 197.2018,130.58875   L 190.16887,131.10823   C 189.76927,127.59177 188.49056,124.95442 186.29277,123.15622   C 184.13494,121.35803 180.89819,120.47891 176.62249,120.47891   C 172.18695,120.47891 168.91024,121.27811 166.87229,122.91646   C 164.87429,124.55482 163.83534,126.51285 163.83534,128.79056   C 163.83534,130.78855 164.55462,132.46687 165.99317,133.74558   C 167.43172,135.0243 171.10803,136.34297 177.10201,137.7016   C 183.05602,139.06024 187.17188,140.21907 189.40964,141.25803   C 192.64638,142.73654 195.04397,144.61466 196.56245,146.93233   C 198.12088,149.21004 198.88012,151.84739 198.88012,154.84438   C 198.88012,157.8014 198.04096,160.55863 196.36265,163.19598   C 194.64437,165.79337 192.20682,167.83132 189.05,169.30984   C 185.85321,170.74839 182.29678,171.46767 178.34076,171.46767   C 173.30582,171.46767 169.07008,170.74839 165.67349,169.26988   C 162.27691,167.83132 159.5996,165.59357 157.68152,162.6765   C 155.72349,159.71948 154.7245,156.40281 154.60462,152.64658   z  M 209.06988,170.54859   L 209.06988,114.9245   L 249.30943,114.9245   L 249.30943,121.47791   L 216.46245,121.47791   L 216.46245,138.5008   L 247.19156,138.5008   L 247.19156,145.05421   L 216.46245,145.05421   L 216.46245,163.95522   L 250.58815,163.95522   L 250.58815,170.54859   z  M 300.41807,151.04819   L 307.77068,152.88634   C 306.2522,158.92028 303.45502,163.55562 299.45903,166.71245   C 295.46305,169.90923 290.54799,171.46767 284.75381,171.46767   C 278.75984,171.46767 273.88473,170.26887 270.12851,167.83132   C 266.37229,165.39377 263.53514,161.83735 261.5771,157.20201   C 259.61907,152.60662 258.62008,147.61164 258.62008,142.29699   C 258.62008,136.50281 259.73895,131.46787 261.93674,127.15221   C 264.17449,122.83654 267.29136,119.55984 271.40722,117.32209   C 275.48313,115.08434 279.95863,113.96546 284.87369,113.96546   C 290.42811,113.96546 295.10341,115.40401 298.89959,118.24116   C 302.69578,121.07831 305.33313,125.03434 306.8516,130.18915   L 299.57891,131.86747   C 298.3002,127.83152 296.42208,124.8745 293.98453,123.03634   C 291.50702,121.19819 288.43012,120.27911 284.71385,120.27911   C 280.43815,120.27911 276.88172,121.27811 274.00461,123.35602   C 271.12751,125.39397 269.12951,128.1512 267.97068,131.58775   C 266.81184,135.06426 266.21245,138.62068 266.21245,142.25703   C 266.21245,147.01225 266.89176,151.12811 268.29036,154.64458   C 269.64899,158.201 271.80682,160.83835 274.72389,162.55662   C 277.601,164.31486 280.75783,165.19397 284.15441,165.19397   C 288.27028,165.19397 291.74678,163.99518 294.62389,161.63755   C 297.501,159.23996 299.41907,155.72349 300.41807,151.04819   z "
     style="fill:#000000;fill-rule:evenodd;fill-opacity:1;stroke:none;" />
  <path
     id="path11"
     d="  M 54.345381,245.19357   C 54.345381,248.07068 85.993573,255.74297 85.993573,226.97188   C 85.993573,198.2008 126.27309,198.2008 126.27309,226.97188   C 126.27309,255.74297 166.55261,255.74297 166.55261,226.97188   C 166.55261,198.2008 206.83213,198.2008 206.83213,226.97188   C 206.83213,255.74297 247.11164,255.74297 247.11164,226.97188   C 247.11164,198.2008 287.39116,198.2008 287.39116,226.97188   C 287.39116,255.74297 327.67068,255.74297 327.67068,226.97188   C 327.67068,198.2008 367.9502,198.2008 367.9502,226.97188   C 367.9502,255.74297 399.59839,248.07068 399.59839,245.19357  "
     style="fill:none;stroke:#000000;stroke-width:9.5903616px;stroke-linecap:butt;stroke-linejoin:miter;stroke-miterlimit:10;stroke-dasharray:none;stroke-opacity:1;" />
</svg>
