<?xml version="1.0" encoding="UTF-8" standalone="no"?>
<svg
   xmlns:dc="http://purl.org/dc/elements/1.1/"
   xmlns:cc="http://creativecommons.org/ns#"
   xmlns:rdf="http://www.w3.org/1999/02/22-rdf-syntax-ns#"
   xmlns:svg="http://www.w3.org/2000/svg"
   xmlns="http://www.w3.org/2000/svg"
   id="svg15"
   height="116.73mm"
   width="116.73mm"
   version="1.0">
  <metadata
     id="metadata19">
    <rdf:RDF>
      <cc:Work
         rdf:about="">
        <dc:format>image/svg+xml</dc:format>
        <dc:type
           rdf:resource="http://purl.org/dc/dcmitype/StillImage" />
      </cc:Work>
    </rdf:RDF>
  </metadata>
  <defs
     id="defs3">
    <pattern
       y="0"
       x="0"
       height="6"
       width="6"
       patternUnits="userSpaceOnUse"
       id="EMFhbasepattern" />
  </defs>
  <path
     id="path5"
     d="  M 220.57831,386.49156   L 220.57831,386.49156   L 386.49156,220.57831   L 220.57831,54.665059   L 54.665059,220.57831   z "
     style="fill:#ff8080;fill-rule:evenodd;fill-opacity:1;stroke:none;" />
  <path
     id="path7"
     d="  M 220.57831,386.49156   L 220.57831,386.49156   L 386.49156,220.57831   L 220.57831,54.665059   L 54.665059,220.57831   z "
     style="fill:none;stroke:#000000;stroke-width:9.5903616px;stroke-linecap:butt;stroke-linejoin:miter;stroke-miterlimit:10;stroke-dasharray:none;stroke-opacity:1;" />
  <path
     id="path9"
     d="  M 158.24096,292.50602   L 158.24096,292.50602   L 119.87952,215.78313   L 167.83132,215.78313   L 167.83132,153.44578   L 273.3253,153.44578   L 273.3253,215.78313   L 321.2771,215.78313   L 282.91566,292.50602   z "
     style="fill:#ffffff;fill-rule:evenodd;fill-opacity:1;stroke:none;" />
  <path
     id="path11"
     d="  M 158.24096,292.50602   L 158.24096,292.50602   L 119.87952,215.78313   L 167.83132,215.78313   L 167.83132,153.44578   L 273.3253,153.44578   L 273.3253,215.78313   L 321.2771,215.78313   L 282.91566,292.50602   z "
     style="fill:none;stroke:#000000;stroke-width:9.5903616px;stroke-linecap:butt;stroke-linejoin:miter;stroke-miterlimit:10;stroke-dasharray:none;stroke-opacity:1;" />
  <path
     id="path13"
     d="  M 181.97711,263.09558   L 181.97711,221.89698   L 200.23875,221.89698   C 203.91506,221.89698 206.67229,222.29658 208.59036,223.01586   C 210.50843,223.7751 212.0269,225.05381 213.18574,226.93192   C 214.30462,228.81004 214.90401,230.88795 214.90401,233.16566   C 214.90401,236.08273 213.94498,238.52028 212.06686,240.51827   C 210.14879,242.55622 207.23172,243.83494 203.2757,244.35441   C 204.71425,245.03373 205.83313,245.75301 206.59237,246.39237   C 208.1508,247.87088 209.66927,249.70903 211.10783,251.90682   L 218.26064,263.09558   L 211.42751,263.09558   L 205.95301,254.54417   C 204.35462,252.06666 203.03594,250.14859 202.03694,248.86988   C 200.99799,247.5512 200.07891,246.63212 199.23976,246.11265   C 198.44056,245.59317 197.6014,245.19357 196.76225,244.99377   C 196.16285,244.87389 195.12389,244.79397 193.7253,244.79397   L 187.41164,244.79397   L 187.41164,263.09558   z  M 187.41164,240.07871   L 199.11988,240.07871   C 201.63735,240.07871 203.55542,239.83895 204.99397,239.31947   C 206.39257,238.8 207.43152,237.96084 208.19076,236.84196   C 208.91004,235.72309 209.26968,234.48433 209.26968,233.16566   C 209.26968,231.20763 208.5504,229.60923 207.1518,228.33052   C 205.75321,227.09176 203.51546,226.45241 200.43855,226.45241   L 187.41164,226.45241   z  M 221.77711,243.03574   C 221.77711,236.20261 223.61526,230.84799 227.29156,226.97188   C 230.96787,223.09578 235.68313,221.17771 241.51727,221.17771   C 245.31345,221.17771 248.75,222.09678 251.78694,223.89498   C 254.82389,225.73313 257.18152,228.2506 258.77992,231.48735   C 260.37831,234.76405 261.17751,238.44036 261.17751,242.55622   C 261.17751,246.752 260.33835,250.46827 258.62008,253.78494   C 256.94176,257.06164 254.58413,259.57911 251.46727,261.25743   C 248.39036,262.9757 245.03373,263.81486 241.47731,263.81486   C 237.6012,263.81486 234.1247,262.85582 231.08775,260.97771   C 228.01084,259.13955 225.69317,256.58212 224.13474,253.30542   C 222.5763,250.06867 221.77711,246.67208 221.77711,243.03574   z  M 227.41144,243.11566   C 227.41144,248.07068 228.73012,251.98674 231.40743,254.86385   C 234.08474,257.701 237.4014,259.13955 241.43735,259.13955   C 245.55321,259.13955 248.90984,257.701 251.58714,254.82389   C 254.22449,251.94678 255.54317,247.83092 255.54317,242.51626   C 255.54317,239.19959 254.98373,236.24257 253.86486,233.76506   C 252.70602,231.24759 251.06767,229.32951 248.86988,227.93092   C 246.71204,226.57229 244.23453,225.85301 241.51727,225.85301   C 237.68112,225.85301 234.36445,227.21164 231.56727,229.84899   C 228.77008,232.48634 227.41144,236.92188 227.41144,243.11566   z "
     style="fill:#000000;fill-rule:evenodd;fill-opacity:1;stroke:none;" />
</svg>
