<?xml version="1.0" encoding="UTF-8" standalone="no"?>
<svg
   xmlns:dc="http://purl.org/dc/elements/1.1/"
   xmlns:cc="http://creativecommons.org/ns#"
   xmlns:rdf="http://www.w3.org/1999/02/22-rdf-syntax-ns#"
   xmlns:svg="http://www.w3.org/2000/svg"
   xmlns="http://www.w3.org/2000/svg"
   id="svg11"
   height="65.639999mm"
   width="82.230003mm"
   version="1.0">
  <metadata
     id="metadata15">
    <rdf:RDF>
      <cc:Work
         rdf:about="">
        <dc:format>image/svg+xml</dc:format>
        <dc:type
           rdf:resource="http://purl.org/dc/dcmitype/StillImage" />
      </cc:Work>
    </rdf:RDF>
  </metadata>
  <defs
     id="defs3">
    <pattern
       y="0"
       x="0"
       height="6"
       width="6"
       patternUnits="userSpaceOnUse"
       id="EMFhbasepattern" />
  </defs>
  <path
     id="path5"
     d="  M 93.026505,193.40562   L 93.026505,193.40562   L 54.665059,116.68273   L 102.61687,116.68273   L 102.61687,54.345381   L 208.11084,54.345381   L 208.11084,116.68273   L 256.06265,116.68273   L 217.7012,193.40562   z "
     style="fill:#aaffaa;fill-rule:evenodd;fill-opacity:1;stroke:none;" />
  <path
     id="path7"
     d="  M 93.026505,193.40562   L 93.026505,193.40562   L 54.665059,116.68273   L 102.61687,116.68273   L 102.61687,54.345381   L 208.11084,54.345381   L 208.11084,116.68273   L 256.06265,116.68273   L 217.7012,193.40562   z "
     style="fill:none;stroke:#000000;stroke-width:9.5903616px;stroke-linecap:butt;stroke-linejoin:miter;stroke-miterlimit:10;stroke-dasharray:none;stroke-opacity:1;" />
  <path
     id="path9"
     d="  M 116.76265,163.99518   L 116.76265,122.79658   L 135.0243,122.79658   C 138.7006,122.79658 141.45783,123.19618 143.3759,123.91546   C 145.29397,124.6747 146.81245,125.95341 147.97128,127.83152   C 149.09016,129.70964 149.68956,131.78755 149.68956,134.06526   C 149.68956,136.98233 148.73052,139.41988 146.85241,141.41787   C 144.93434,143.45582 142.01727,144.73454 138.06124,145.25401   C 139.4998,145.93333 140.61867,146.65261 141.37791,147.29197   C 142.93634,148.77048 144.45482,150.60863 145.89337,152.80642   L 153.04618,163.99518   L 146.21305,163.99518   L 140.73855,155.44377   C 139.14016,152.96626 137.82148,151.04819 136.82249,149.76948   C 135.78353,148.4508 134.86446,147.53172 134.0253,147.01225   C 133.2261,146.49277 132.38695,146.09317 131.54779,145.89337   C 130.94839,145.77349 129.90944,145.69357 128.51084,145.69357   L 122.19719,145.69357   L 122.19719,163.99518   z  M 122.19719,140.97831   L 133.90542,140.97831   C 136.42289,140.97831 138.34096,140.73855 139.77952,140.21907   C 141.17811,139.6996 142.21707,138.86044 142.9763,137.74156   C 143.69558,136.62269 144.05522,135.38393 144.05522,134.06526   C 144.05522,132.10723 143.33594,130.50883 141.93735,129.23012   C 140.53875,127.99136 138.301,127.35201 135.22409,127.35201   L 122.19719,127.35201   z  M 156.56265,143.93534   C 156.56265,137.10221 158.4008,131.74759 162.07711,127.87148   C 165.75341,123.99538 170.46867,122.07731 176.30281,122.07731   C 180.09899,122.07731 183.53554,122.99638 186.57249,124.79458   C 189.60944,126.63273 191.96707,129.1502 193.56546,132.38695   C 195.16385,135.66365 195.96305,139.33996 195.96305,143.45582   C 195.96305,147.6516 195.12389,151.36787 193.40562,154.68454   C 191.72731,157.96124 189.36968,160.47871 186.25281,162.15703   C 183.1759,163.8753 179.81927,164.71446 176.26285,164.71446   C 172.38674,164.71446 168.91024,163.75542 165.87329,161.87731   C 162.79638,160.03915 160.47871,157.48172 158.92028,154.20502   C 157.36185,150.96827 156.56265,147.57168 156.56265,143.93534   z  M 162.19699,144.01526   C 162.19699,148.97028 163.51566,152.88634 166.19297,155.76345   C 168.87028,158.6006 172.18695,160.03915 176.22289,160.03915   C 180.33875,160.03915 183.69538,158.6006 186.37269,155.72349   C 189.01004,152.84638 190.32871,148.73052 190.32871,143.41586   C 190.32871,140.09919 189.76927,137.14217 188.6504,134.66466   C 187.49156,132.14719 185.85321,130.22911 183.65542,128.83052   C 181.49759,127.47189 179.02008,126.75261 176.30281,126.75261   C 172.46666,126.75261 169.15,128.11124 166.35281,130.74859   C 163.55562,133.38594 162.19699,137.82148 162.19699,144.01526   z "
     style="fill:#000000;fill-rule:evenodd;fill-opacity:1;stroke:none;" />
</svg>
