<?xml version="1.0" encoding="UTF-8" standalone="no"?>
<svg
   xmlns:dc="http://purl.org/dc/elements/1.1/"
   xmlns:cc="http://creativecommons.org/ns#"
   xmlns:rdf="http://www.w3.org/1999/02/22-rdf-syntax-ns#"
   xmlns:svg="http://www.w3.org/2000/svg"
   xmlns="http://www.w3.org/2000/svg"
   id="svg15"
   height="125.53mm"
   width="95.75mm"
   version="1.0">
  <metadata
     id="metadata19">
    <rdf:RDF>
      <cc:Work
         rdf:about="">
        <dc:format>image/svg+xml</dc:format>
        <dc:type
           rdf:resource="http://purl.org/dc/dcmitype/StillImage" />
      </cc:Work>
    </rdf:RDF>
  </metadata>
  <defs
     id="defs3">
    <pattern
       y="0"
       x="0"
       height="6"
       width="6"
       patternUnits="userSpaceOnUse"
       id="EMFhbasepattern" />
  </defs>
  <path
     id="path5"
     d="  M 307.53092,420.05783   C 307.53092,54.665059 54.345381,54.665059 54.345381,420.05783   z "
     style="fill:#80e0ff;fill-rule:evenodd;fill-opacity:1;stroke:none;" />
  <path
     id="path7"
     d="  M 307.53092,420.05783   C 307.53092,54.665059 54.345381,54.665059 54.345381,420.05783  "
     style="fill:none;stroke:#000000;stroke-width:9.5903616px;stroke-linecap:butt;stroke-linejoin:miter;stroke-miterlimit:10;stroke-dasharray:none;stroke-opacity:1;" />
  <path
     id="path9"
     d="  M 180.93815,304.97349   L 180.93815,304.97349   L 94.624898,257.02168   L 94.624898,352.9253   L 180.93815,304.97349   L 267.2514,257.02168   L 267.2514,352.9253   L 180.93815,304.97349   z "
     style="fill:#000000;fill-rule:evenodd;fill-opacity:1;stroke:none;" />
  <path
     id="path11"
     d="  M 122.15723,235.48333   L 127.31205,235.04377   C 127.55181,237.08172 128.11124,238.8 128.99036,240.11867   C 129.90944,241.43735 131.26807,242.4763 133.14618,243.31546   C 135.0243,244.11466 137.14217,244.51425 139.45984,244.51425   C 141.53775,244.51425 143.3759,244.23453 144.9743,243.59518   C 146.57269,242.99578 147.77148,242.11666 148.53072,241.07771   C 149.32992,239.99879 149.68956,238.8 149.68956,237.52128   C 149.68956,236.24257 149.32992,235.12369 148.57068,234.16466   C 147.81144,233.16566 146.57269,232.36646 144.85442,231.72711   C 143.7755,231.28755 141.29799,230.60823 137.54177,229.68915   C 133.74558,228.81004 131.10823,227.93092 129.58976,227.13172   C 127.63173,226.09277 126.15321,224.81405 125.19417,223.29558   C 124.23514,221.77711 123.75562,220.05883 123.75562,218.18072   C 123.75562,216.10281 124.31506,214.14478 125.51385,212.34658   C 126.67269,210.54839 128.43092,209.1498 130.66867,208.23072   C 132.94638,207.27168 135.46385,206.83213 138.22108,206.83213   C 141.29799,206.83213 143.9753,207.31164 146.29297,208.31064   C 148.6506,209.26968 150.44879,210.70823 151.68755,212.6263   C 152.96626,214.54437 153.60562,216.70221 153.7255,219.13976   L 148.49076,219.53935   C 148.21104,216.902 147.25201,214.94397 145.65361,213.6253   C 144.01526,212.30662 141.61767,211.62731 138.46084,211.62731   C 135.14417,211.62731 132.74658,212.2267 131.26807,213.4255   C 129.7496,214.66425 128.99036,216.10281 128.99036,217.82108   C 128.99036,219.2996 129.50984,220.49839 130.58875,221.45743   C 131.62771,222.41646 134.38494,223.41546 138.82048,224.41445   C 143.25602,225.41345 146.29297,226.29257 147.93132,227.01184   C 150.32891,228.13072 152.08715,229.52931 153.24598,231.20763   C 154.36486,232.9259 154.96425,234.88393 154.96425,237.08172   C 154.96425,239.27951 154.3249,241.35743 153.08614,243.2755   C 151.80743,245.23353 150.00923,246.71204 147.6516,247.79096   C 145.29397,248.86988 142.65662,249.42931 139.73956,249.42931   C 135.98333,249.42931 132.86646,248.86988 130.34899,247.79096   C 127.83152,246.71204 125.87349,245.07369 124.43494,242.8759   C 122.99638,240.71807 122.23715,238.24056 122.15723,235.48333   z  M 160.75843,228.6502   C 160.75843,221.81707 162.59658,216.46245 166.23293,212.58634   C 169.90923,208.71024 174.66446,206.79217 180.45863,206.79217   C 184.25482,206.79217 187.69136,207.71124 190.72831,209.50943   C 193.80522,211.34759 196.12289,213.86506 197.72128,217.1018   C 199.31968,220.37851 200.11887,224.05482 200.11887,228.17068   C 200.11887,232.36646 199.27972,236.08273 197.6014,239.39939   C 195.92309,242.6761 193.5255,245.19357 190.44859,246.87188   C 187.33172,248.59016 184.01506,249.42931 180.41867,249.42931   C 176.54257,249.42931 173.10602,248.47028 170.02911,246.59217   C 166.99217,244.75401 164.6745,242.19658 163.11606,238.91988   C 161.51767,235.68313 160.75843,232.28654 160.75843,228.6502   z  M 166.35281,228.73012   C 166.35281,233.68514 167.71144,237.6012 170.34879,240.47831   C 173.0261,243.31546 176.38273,244.75401 180.41867,244.75401   C 184.49458,244.75401 187.89116,243.31546 190.52851,240.43835   C 193.20582,237.56124 194.5245,233.44538 194.5245,228.13072   C 194.5245,224.81405 193.96506,221.85702 192.80622,219.37951   C 191.68735,216.86205 190.00903,214.94397 187.8512,213.54538   C 185.65341,212.18674 183.21586,211.46747 180.49859,211.46747   C 176.62249,211.46747 173.30582,212.8261 170.54859,215.46345   C 167.7514,218.1008 166.35281,222.53634 166.35281,228.73012   z  M 207.43152,248.71004   L 207.43152,207.51144   L 235.24357,207.51144   L 235.24357,212.38654   L 212.90602,212.38654   L 212.90602,225.13373   L 232.20662,225.13373   L 232.20662,230.00883   L 212.90602,230.00883   L 212.90602,248.71004   z "
     style="fill:#000000;fill-rule:evenodd;fill-opacity:1;stroke:none;" />
  <path
     id="path13"
     d="  M 122.15723,235.48333   L 127.31205,235.04377   C 127.55181,237.08172 128.11124,238.8 128.99036,240.11867   C 129.90944,241.43735 131.26807,242.4763 133.14618,243.31546   C 135.0243,244.11466 137.14217,244.51425 139.45984,244.51425   C 141.53775,244.51425 143.3759,244.23453 144.9743,243.59518   C 146.57269,242.99578 147.77148,242.11666 148.53072,241.07771   C 149.32992,239.99879 149.68956,238.8 149.68956,237.52128   C 149.68956,236.24257 149.32992,235.12369 148.57068,234.16466   C 147.81144,233.16566 146.57269,232.36646 144.85442,231.72711   C 143.7755,231.28755 141.29799,230.60823 137.54177,229.68915   C 133.74558,228.81004 131.10823,227.93092 129.58976,227.13172   C 127.63173,226.09277 126.15321,224.81405 125.19417,223.29558   C 124.23514,221.77711 123.75562,220.05883 123.75562,218.18072   C 123.75562,216.10281 124.31506,214.14478 125.51385,212.34658   C 126.67269,210.54839 128.43092,209.1498 130.66867,208.23072   C 132.94638,207.27168 135.46385,206.83213 138.22108,206.83213   C 141.29799,206.83213 143.9753,207.31164 146.29297,208.31064   C 148.6506,209.26968 150.44879,210.70823 151.68755,212.6263   C 152.96626,214.54437 153.60562,216.70221 153.7255,219.13976   L 148.49076,219.53935   C 148.21104,216.902 147.25201,214.94397 145.65361,213.6253   C 144.01526,212.30662 141.61767,211.62731 138.46084,211.62731   C 135.14417,211.62731 132.74658,212.2267 131.26807,213.4255   C 129.7496,214.66425 128.99036,216.10281 128.99036,217.82108   C 128.99036,219.2996 129.50984,220.49839 130.58875,221.45743   C 131.62771,222.41646 134.38494,223.41546 138.82048,224.41445   C 143.25602,225.41345 146.29297,226.29257 147.93132,227.01184   C 150.32891,228.13072 152.08715,229.52931 153.24598,231.20763   C 154.36486,232.9259 154.96425,234.88393 154.96425,237.08172   C 154.96425,239.27951 154.3249,241.35743 153.08614,243.2755   C 151.80743,245.23353 150.00923,246.71204 147.6516,247.79096   C 145.29397,248.86988 142.65662,249.42931 139.73956,249.42931   C 135.98333,249.42931 132.86646,248.86988 130.34899,247.79096   C 127.83152,246.71204 125.87349,245.07369 124.43494,242.8759   C 122.99638,240.71807 122.23715,238.24056 122.15723,235.48333   z  M 160.75843,228.6502   C 160.75843,221.81707 162.59658,216.46245 166.23293,212.58634   C 169.90923,208.71024 174.66446,206.79217 180.45863,206.79217   C 184.25482,206.79217 187.69136,207.71124 190.72831,209.50943   C 193.80522,211.34759 196.12289,213.86506 197.72128,217.1018   C 199.31968,220.37851 200.11887,224.05482 200.11887,228.17068   C 200.11887,232.36646 199.27972,236.08273 197.6014,239.39939   C 195.92309,242.6761 193.5255,245.19357 190.44859,246.87188   C 187.33172,248.59016 184.01506,249.42931 180.41867,249.42931   C 176.54257,249.42931 173.10602,248.47028 170.02911,246.59217   C 166.99217,244.75401 164.6745,242.19658 163.11606,238.91988   C 161.51767,235.68313 160.75843,232.28654 160.75843,228.6502   z  M 166.35281,228.73012   C 166.35281,233.68514 167.71144,237.6012 170.34879,240.47831   C 173.0261,243.31546 176.38273,244.75401 180.41867,244.75401   C 184.49458,244.75401 187.89116,243.31546 190.52851,240.43835   C 193.20582,237.56124 194.5245,233.44538 194.5245,228.13072   C 194.5245,224.81405 193.96506,221.85702 192.80622,219.37951   C 191.68735,216.86205 190.00903,214.94397 187.8512,213.54538   C 185.65341,212.18674 183.21586,211.46747 180.49859,211.46747   C 176.62249,211.46747 173.30582,212.8261 170.54859,215.46345   C 167.7514,218.1008 166.35281,222.53634 166.35281,228.73012   z  M 207.43152,248.71004   L 207.43152,207.51144   L 235.24357,207.51144   L 235.24357,212.38654   L 212.90602,212.38654   L 212.90602,225.13373   L 232.20662,225.13373   L 232.20662,230.00883   L 212.90602,230.00883   L 212.90602,248.71004   z "
     style="fill:none;stroke:#000000;stroke-width:0.95903611px;stroke-linecap:butt;stroke-linejoin:miter;stroke-miterlimit:10;stroke-dasharray:none;stroke-opacity:1;" />
</svg>
