<?xml version="1.0" encoding="UTF-8" standalone="no"?>
<svg
   xmlns:dc="http://purl.org/dc/elements/1.1/"
   xmlns:cc="http://creativecommons.org/ns#"
   xmlns:rdf="http://www.w3.org/1999/02/22-rdf-syntax-ns#"
   xmlns:svg="http://www.w3.org/2000/svg"
   xmlns="http://www.w3.org/2000/svg"
   id="svg13"
   height="130.27mm"
   width="130.27mm"
   version="1.0">
  <metadata
     id="metadata17">
    <rdf:RDF>
      <cc:Work
         rdf:about="">
        <dc:format>image/svg+xml</dc:format>
        <dc:type
           rdf:resource="http://purl.org/dc/dcmitype/StillImage" />
      </cc:Work>
    </rdf:RDF>
  </metadata>
  <defs
     id="defs3">
    <pattern
       y="0"
       x="0"
       height="6"
       width="6"
       patternUnits="userSpaceOnUse"
       id="EMFhbasepattern" />
  </defs>
  <path
     id="path5"
     d="  M 164.63454,327.67068   C 164.63454,437.95983 327.67068,437.95983 327.67068,327.67068   C 437.95983,327.67068 437.95983,164.63454 327.67068,164.63454   C 327.67068,54.345381 164.63454,54.345381 164.63454,164.63454   C 54.345381,164.63454 54.345381,327.67068 164.63454,327.67068   z "
     style="fill:#ffff80;fill-rule:evenodd;fill-opacity:1;stroke:none;" />
  <path
     id="path7"
     d="  M 164.63454,327.67068   C 164.63454,437.95983 327.67068,437.95983 327.67068,327.67068   C 437.95983,327.67068 437.95983,164.63454 327.67068,164.63454   C 327.67068,54.345381 164.63454,54.345381 164.63454,164.63454   C 54.345381,164.63454 54.345381,327.67068 164.63454,327.67068  "
     style="fill:none;stroke:#000000;stroke-width:9.5903616px;stroke-linecap:butt;stroke-linejoin:miter;stroke-miterlimit:10;stroke-dasharray:none;stroke-opacity:1;" />
  <path
     id="path9"
     d="  M 246.15261,246.15261   L 246.15261,246.15261   L 159.83936,198.2008   L 159.83936,294.10441   L 246.15261,246.15261   L 332.46586,198.2008   L 332.46586,294.10441   L 246.15261,246.15261   z "
     style="fill:#000000;fill-rule:evenodd;fill-opacity:1;stroke:none;" />
  <path
     id="path11"
     d="  M 232.04678,186.61245   L 232.04678,135.10421   L 251.46727,135.10421   C 254.90381,135.14417 257.5012,135.30401 259.29939,135.62369   C 261.85682,136.02329 263.97469,136.82249 265.65301,138.02128   C 267.37128,139.22008 268.76988,140.85843 269.80883,142.9763   C 270.84779,145.13413 271.36727,147.45181 271.36727,150.00923   C 271.36727,154.40482 269.96867,158.12108 267.17148,161.11807   C 264.41425,164.15502 259.37931,165.67349 252.06666,165.67349   L 238.87992,165.67349   L 238.87992,186.61245   z  M 238.87992,159.5996   L 252.18654,159.5996   C 256.58212,159.5996 259.69899,158.8004 261.5771,157.16205   C 263.41526,155.52369 264.33433,153.20602 264.33433,150.20903   C 264.33433,148.09116 263.7749,146.21305 262.69598,144.69458   C 261.61706,143.1761 260.17851,142.13715 258.42028,141.65763   C 257.26144,141.33795 255.14357,141.21807 252.0267,141.21807   L 238.87992,141.21807   z "
     style="fill:#000000;fill-rule:evenodd;fill-opacity:1;stroke:none;" />
</svg>
