<?xml version="1.0" encoding="UTF-8" standalone="no"?>
<svg
   xmlns:dc="http://purl.org/dc/elements/1.1/"
   xmlns:cc="http://creativecommons.org/ns#"
   xmlns:rdf="http://www.w3.org/1999/02/22-rdf-syntax-ns#"
   xmlns:svg="http://www.w3.org/2000/svg"
   xmlns="http://www.w3.org/2000/svg"
   id="svg13"
   height="101.85mm"
   width="95.75mm"
   version="1.0">
  <metadata
     id="metadata17">
    <rdf:RDF>
      <cc:Work
         rdf:about="">
        <dc:format>image/svg+xml</dc:format>
        <dc:type
           rdf:resource="http://purl.org/dc/dcmitype/StillImage" />
      </cc:Work>
    </rdf:RDF>
  </metadata>
  <defs
     id="defs3">
    <pattern
       y="0"
       x="0"
       height="6"
       width="6"
       patternUnits="userSpaceOnUse"
       id="EMFhbasepattern" />
  </defs>
  <path
     id="path5"
     d="  M 54.345381,54.345381   L 54.345381,330.54779   L 307.53092,330.54779   L 307.53092,54.345381   L 54.345381,54.345381   z "
     style="fill:#aaffaa;fill-rule:evenodd;fill-opacity:1;stroke:none;" />
  <path
     id="path7"
     d="  M 54.345381,330.54779   L 54.345381,54.345381   L 307.53092,54.345381   L 307.53092,330.54779  "
     style="fill:none;stroke:#000000;stroke-width:9.5903616px;stroke-linecap:butt;stroke-linejoin:miter;stroke-miterlimit:10;stroke-dasharray:none;stroke-opacity:1;" />
  <path
     id="path9"
     d="  M 180.93815,215.46345   L 180.93815,215.46345   L 94.624898,167.51164   L 94.624898,263.41526   L 180.93815,215.46345   L 267.2514,167.51164   L 267.2514,263.41526   L 180.93815,215.46345   z "
     style="fill:#000000;fill-rule:evenodd;fill-opacity:1;stroke:none;" />
  <path
     id="path11"
     d="  M 163.55562,148.97028   L 169.98915,148.41084   C 170.30883,150.96827 171.02811,153.08614 172.10703,154.76446   C 173.2259,156.40281 174.94417,157.72148 177.3018,158.76044   C 179.65944,159.75944 182.29678,160.27891 185.21385,160.27891   C 187.81124,160.27891 190.08895,159.87931 192.08695,159.12008   C 194.08494,158.36084 195.56345,157.28193 196.52249,155.96325   C 197.52148,154.60462 198.001,153.1261 198.001,151.52771   C 198.001,149.92932 197.52148,148.53072 196.56245,147.29197   C 195.64337,146.09317 194.08494,145.09417 191.92711,144.25502   C 190.56847,143.73554 187.49156,142.89638 182.7763,141.73755   C 178.06104,140.61867 174.74437,139.53976 172.8263,138.54076   C 170.38875,137.26205 168.5506,135.66365 167.3518,133.74558   C 166.15301,131.82751 165.55361,129.70964 165.55361,127.35201   C 165.55361,124.75462 166.27289,122.31707 167.7514,120.03936   C 169.22992,117.8016 171.38775,116.08333 174.2249,114.9245   C 177.06205,113.7257 180.17891,113.16626 183.65542,113.16626   C 187.49156,113.16626 190.84819,113.76566 193.76526,115.00442   C 196.68233,116.20321 198.92008,118.04136 200.47851,120.43895   C 202.03694,122.79658 202.8761,125.51385 202.99598,128.51084   L 196.48253,129.03032   C 196.12289,125.75361 194.92409,123.31606 192.9261,121.63775   C 190.88815,119.9994 187.89116,119.16024 183.93514,119.16024   C 179.81927,119.16024 176.82229,119.91948 174.94417,121.43795   C 173.06606,122.91646 172.10703,124.75462 172.10703,126.87249   C 172.10703,128.7506 172.78634,130.26907 174.10502,131.42791   C 175.42369,132.6267 178.86024,133.86546 184.3747,135.10421   C 189.92911,136.38293 193.7253,137.46185 195.76325,138.38092   C 198.76024,139.77952 200.99799,141.53775 202.39658,143.65562   C 203.83514,145.77349 204.55441,148.21104 204.55441,150.96827   C 204.55441,153.7255 203.75522,156.28293 202.19678,158.72048   C 200.63835,161.15803 198.36064,163.03614 195.44357,164.35482   C 192.48654,165.71345 189.20984,166.39277 185.53353,166.39277   C 180.85823,166.39277 176.94217,165.71345 173.8253,164.35482   C 170.66847,162.99618 168.19096,160.95823 166.39277,158.24096   C 164.59458,155.48373 163.6755,152.40683 163.55562,148.97028   z "
     style="fill:#000000;fill-rule:evenodd;fill-opacity:1;stroke:none;" />
</svg>
