<?xml version="1.0" encoding="UTF-8" standalone="no"?>
<svg
   xmlns:dc="http://purl.org/dc/elements/1.1/"
   xmlns:cc="http://creativecommons.org/ns#"
   xmlns:rdf="http://www.w3.org/1999/02/22-rdf-syntax-ns#"
   xmlns:svg="http://www.w3.org/2000/svg"
   xmlns="http://www.w3.org/2000/svg"
   id="svg15"
   height="125.53mm"
   width="95.75mm"
   version="1.0">
  <metadata
     id="metadata19">
    <rdf:RDF>
      <cc:Work
         rdf:about="">
        <dc:format>image/svg+xml</dc:format>
        <dc:type
           rdf:resource="http://purl.org/dc/dcmitype/StillImage" />
      </cc:Work>
    </rdf:RDF>
  </metadata>
  <defs
     id="defs3">
    <pattern
       y="0"
       x="0"
       height="6"
       width="6"
       patternUnits="userSpaceOnUse"
       id="EMFhbasepattern" />
  </defs>
  <path
     id="path5"
     d="  M 307.53092,420.05783   C 307.53092,54.665059 54.345381,54.665059 54.345381,420.05783   z "
     style="fill:#80e0ff;fill-rule:evenodd;fill-opacity:1;stroke:none;" />
  <path
     id="path7"
     d="  M 307.53092,420.05783   C 307.53092,54.665059 54.345381,54.665059 54.345381,420.05783  "
     style="fill:none;stroke:#000000;stroke-width:9.5903616px;stroke-linecap:butt;stroke-linejoin:miter;stroke-miterlimit:10;stroke-dasharray:none;stroke-opacity:1;" />
  <path
     id="path9"
     d="  M 180.93815,304.97349   L 180.93815,304.97349   L 94.624898,257.02168   L 94.624898,352.9253   L 180.93815,304.97349   L 267.2514,257.02168   L 267.2514,352.9253   L 180.93815,304.97349   z "
     style="fill:#000000;fill-rule:evenodd;fill-opacity:1;stroke:none;" />
  <path
     id="path11"
     d="  M 168.67048,401.71626   L 168.67048,357.08112   L 174.58454,357.08112   L 174.58454,375.42269   L 197.8012,375.42269   L 197.8012,357.08112   L 203.6753,357.08112   L 203.6753,401.71626   L 197.8012,401.71626   L 197.8012,380.65742   L 174.58454,380.65742   L 174.58454,401.71626   z "
     style="fill:#000000;fill-rule:evenodd;fill-opacity:1;stroke:none;" />
  <path
     id="path13"
     d="  M 200.15883,193.9251   L 206.95201,193.9251   L 206.95201,223.69518   C 206.95201,228.85 206.39257,232.96586 205.19377,236.00281   C 204.03494,239.07972 201.91707,241.55723 198.88012,243.43534   C 195.80321,245.35341 191.80723,246.31245 186.85221,246.31245   C 182.01707,246.31245 178.06104,245.47329 175.02409,243.83494   C 171.94719,242.15662 169.7494,239.75903 168.43072,236.60221   C 167.11205,233.44538 166.47269,229.12972 166.47269,223.69518   L 166.47269,193.9251   L 173.26586,193.9251   L 173.26586,223.65522   C 173.26586,228.13072 173.70542,231.40743 174.54458,233.56526   C 175.38373,235.68313 176.78233,237.28152 178.82028,238.44036   C 180.85823,239.59919 183.33574,240.15863 186.25281,240.15863   C 191.24779,240.15863 194.84417,239.03976 196.96205,236.76204   C 199.07992,234.48433 200.15883,230.12871 200.15883,223.65522   z "
     style="fill:#000000;fill-rule:evenodd;fill-opacity:1;stroke:none;" />
</svg>
