<?xml version="1.0" encoding="UTF-8" standalone="no"?>
<svg
   xmlns:dc="http://purl.org/dc/elements/1.1/"
   xmlns:cc="http://creativecommons.org/ns#"
   xmlns:rdf="http://www.w3.org/1999/02/22-rdf-syntax-ns#"
   xmlns:svg="http://www.w3.org/2000/svg"
   xmlns="http://www.w3.org/2000/svg"
   id="svg13"
   height="116.06mm"
   width="135.35001mm"
   version="1.0">
  <metadata
     id="metadata17">
    <rdf:RDF>
      <cc:Work
         rdf:about="">
        <dc:format>image/svg+xml</dc:format>
        <dc:type
           rdf:resource="http://purl.org/dc/dcmitype/StillImage" />
      </cc:Work>
    </rdf:RDF>
  </metadata>
  <defs
     id="defs3">
    <pattern
       y="0"
       x="0"
       height="6"
       width="6"
       patternUnits="userSpaceOnUse"
       id="EMFhbasepattern" />
  </defs>
  <path
     id="path5"
     d="  M 337.26104,384.25381   C 457.14056,384.25381 457.14056,187.6514 337.26104,187.6514   C 337.26104,54.345381 174.2249,54.345381 174.2249,187.6514   C 54.345381,187.6514 54.345381,384.25381 174.2249,384.25381   z "
     style="fill:#ffff80;fill-rule:evenodd;fill-opacity:1;stroke:none;" />
  <path
     id="path7"
     d="  M 337.26104,384.25381   C 457.14056,384.25381 457.14056,187.6514 337.26104,187.6514   C 337.26104,54.345381 174.2249,54.345381 174.2249,187.6514   C 54.345381,187.6514 54.345381,384.25381 174.2249,384.25381  "
     style="fill:none;stroke:#000000;stroke-width:9.5903616px;stroke-linecap:butt;stroke-linejoin:miter;stroke-miterlimit:10;stroke-dasharray:none;stroke-opacity:1;" />
  <path
     id="path9"
     d="  M 255.74297,269.16947   L 255.74297,269.16947   L 169.42972,221.21767   L 169.42972,317.12128   L 255.74297,269.16947   L 342.05622,221.21767   L 342.05622,317.12128   L 255.74297,269.16947   z "
     style="fill:#000000;fill-rule:evenodd;fill-opacity:1;stroke:none;" />
  <path
     id="path11"
     d="  M 238.87992,209.62931   L 238.87992,158.12108   L 261.69698,158.12108   C 266.29237,158.16104 269.76887,158.6006 272.16646,159.51968   C 274.56405,160.43875 276.48212,162.07711 277.88072,164.43474   C 279.31927,166.75241 280.03855,169.3498 280.03855,172.18695   C 280.03855,175.86325 278.83976,178.94016 276.48212,181.41767   C 274.12449,183.93514 270.48815,185.53353 265.53313,186.21285   C 267.33132,187.05201 268.68996,187.93112 269.64899,188.77028   C 271.64698,190.60843 273.5251,192.88614 275.28333,195.60341   L 284.27429,209.62931   L 275.68293,209.62931   L 268.88976,198.92008   C 266.89176,195.84317 265.25341,193.44558 263.97469,191.80723   C 262.65602,190.16887 261.49718,189.05 260.49819,188.37068   C 259.45923,187.73132 258.46024,187.2518 257.38132,187.01205   C 256.62208,186.85221 255.34337,186.77229 253.58514,186.77229   L 245.67309,186.77229   L 245.67309,209.62931   z  M 245.67309,180.85823   L 260.33835,180.85823   C 263.45522,180.85823 265.89277,180.53855 267.651,179.89919   C 269.40923,179.25984 270.72791,178.22088 271.64698,176.82229   C 272.56606,175.38373 273.00562,173.86526 273.00562,172.18695   C 273.00562,169.7494 272.1265,167.7514 270.36827,166.19297   C 268.61004,164.63454 265.81285,163.83534 261.9767,163.83534   L 245.67309,163.83534   z "
     style="fill:#000000;fill-rule:evenodd;fill-opacity:1;stroke:none;" />
</svg>
