<?xml version="1.0" encoding="UTF-8" standalone="no"?>
<svg
   xmlns:dc="http://purl.org/dc/elements/1.1/"
   xmlns:cc="http://creativecommons.org/ns#"
   xmlns:rdf="http://www.w3.org/1999/02/22-rdf-syntax-ns#"
   xmlns:svg="http://www.w3.org/2000/svg"
   xmlns="http://www.w3.org/2000/svg"
   id="svg13"
   height="116.06mm"
   width="135.35001mm"
   version="1.0">
  <metadata
     id="metadata17">
    <rdf:RDF>
      <cc:Work
         rdf:about="">
        <dc:format>image/svg+xml</dc:format>
        <dc:type
           rdf:resource="http://purl.org/dc/dcmitype/StillImage" />
      </cc:Work>
    </rdf:RDF>
  </metadata>
  <defs
     id="defs3">
    <pattern
       y="0"
       x="0"
       height="6"
       width="6"
       patternUnits="userSpaceOnUse"
       id="EMFhbasepattern" />
  </defs>
  <path
     id="path5"
     d="  M 337.26104,384.25381   C 457.14056,384.25381 457.14056,187.6514 337.26104,187.6514   C 337.26104,54.345381 174.2249,54.345381 174.2249,187.6514   C 54.345381,187.6514 54.345381,384.25381 174.2249,384.25381   z "
     style="fill:#ffff80;fill-rule:evenodd;fill-opacity:1;stroke:none;" />
  <path
     id="path7"
     d="  M 337.26104,384.25381   C 457.14056,384.25381 457.14056,187.6514 337.26104,187.6514   C 337.26104,54.345381 174.2249,54.345381 174.2249,187.6514   C 54.345381,187.6514 54.345381,384.25381 174.2249,384.25381  "
     style="fill:none;stroke:#000000;stroke-width:9.5903616px;stroke-linecap:butt;stroke-linejoin:miter;stroke-miterlimit:10;stroke-dasharray:none;stroke-opacity:1;" />
  <path
     id="path9"
     d="  M 255.74297,269.16947   L 255.74297,269.16947   L 169.42972,221.21767   L 169.42972,317.12128   L 255.74297,269.16947   L 342.05622,221.21767   L 342.05622,317.12128   L 255.74297,269.16947   z "
     style="fill:#000000;fill-rule:evenodd;fill-opacity:1;stroke:none;" />
  <path
     id="path11"
     d="  M 243.43534,204.59437   L 249.58915,203.75522   C 249.74899,207.71124 250.50823,210.38855 251.8269,211.82711   C 253.10562,213.30562 254.94377,214.0249 257.26144,214.0249   C 258.97972,214.0249 260.41827,213.6253 261.65702,212.8261   C 262.93574,212.06686 263.7749,210.98795 264.25441,209.66927   C 264.69397,208.31064 264.93373,206.15281 264.93373,203.19578   L 264.93373,167.71144   L 271.76686,167.71144   L 271.76686,202.83614   C 271.76686,207.11184 271.24739,210.46847 270.20843,212.8261   C 269.16947,215.18373 267.49116,216.98192 265.25341,218.22068   C 262.9757,219.45943 260.33835,220.09879 257.3014,220.09879   C 252.78594,220.09879 249.30943,218.78012 246.91184,216.18273   C 244.51425,213.58534 243.35542,209.74919 243.43534,204.59437   z "
     style="fill:#000000;fill-rule:evenodd;fill-opacity:1;stroke:none;" />
</svg>
