<?xml version="1.0" encoding="UTF-8" standalone="no"?>
<svg
   xmlns:dc="http://purl.org/dc/elements/1.1/"
   xmlns:cc="http://creativecommons.org/ns#"
   xmlns:rdf="http://www.w3.org/1999/02/22-rdf-syntax-ns#"
   xmlns:svg="http://www.w3.org/2000/svg"
   xmlns="http://www.w3.org/2000/svg"
   id="svg15"
   height="107.94mm"
   width="95.75mm"
   version="1.0">
  <metadata
     id="metadata19">
    <rdf:RDF>
      <cc:Work
         rdf:about="">
        <dc:format>image/svg+xml</dc:format>
        <dc:type
           rdf:resource="http://purl.org/dc/dcmitype/StillImage" />
      </cc:Work>
    </rdf:RDF>
  </metadata>
  <defs
     id="defs3">
    <pattern
       y="0"
       x="0"
       height="6"
       width="6"
       patternUnits="userSpaceOnUse"
       id="EMFhbasepattern" />
  </defs>
  <path
     id="path5"
     d="  M 54.345381,353.56465   L 54.345381,171.34779   L 180.93815,54.345381   L 307.53092,171.34779   L 307.53092,353.56465   z "
     style="fill:#ff8080;fill-rule:evenodd;fill-opacity:1;stroke:none;" />
  <path
     id="path7"
     d="  M 54.345381,353.56465   L 54.345381,171.34779   L 180.93815,54.345381   L 307.53092,171.34779   L 307.53092,353.56465  "
     style="fill:none;stroke:#000000;stroke-width:9.5903616px;stroke-linecap:butt;stroke-linejoin:miter;stroke-miterlimit:10;stroke-dasharray:none;stroke-opacity:1;" />
  <path
     id="path9"
     d="  M 180.93815,238.48032   L 180.93815,238.48032   L 94.624898,190.52851   L 94.624898,286.43212   L 180.93815,238.48032   L 267.2514,190.52851   L 267.2514,286.43212   L 180.93815,238.48032   z "
     style="fill:#000000;fill-rule:evenodd;fill-opacity:1;stroke:none;" />
  <path
     id="path11"
     d="  M 168.67048,335.22309   L 168.67048,290.58795   L 174.58454,290.58795   L 174.58454,308.92951   L 197.8012,308.92951   L 197.8012,290.58795   L 203.6753,290.58795   L 203.6753,335.22309   L 197.8012,335.22309   L 197.8012,314.16425   L 174.58454,314.16425   L 174.58454,335.22309   z "
     style="fill:#000000;fill-rule:evenodd;fill-opacity:1;stroke:none;" />
  <path
     id="path13"
     d="  M 200.15883,127.43193   L 206.95201,127.43193   L 206.95201,157.20201   C 206.95201,162.35682 206.39257,166.47269 205.19377,169.50964   C 204.03494,172.58654 201.91707,175.06405 198.88012,176.94217   C 195.80321,178.86024 191.80723,179.81927 186.85221,179.81927   C 182.01707,179.81927 178.06104,178.98012 175.02409,177.34176   C 171.94719,175.66345 169.7494,173.26586 168.43072,170.10903   C 167.11205,166.95221 166.47269,162.63654 166.47269,157.20201   L 166.47269,127.43193   L 173.26586,127.43193   L 173.26586,157.16205   C 173.26586,161.63755 173.70542,164.91425 174.54458,167.07209   C 175.38373,169.18996 176.78233,170.78835 178.82028,171.94719   C 180.85823,173.10602 183.33574,173.66546 186.25281,173.66546   C 191.24779,173.66546 194.84417,172.54658 196.96205,170.26887   C 199.07992,167.99116 200.15883,163.63554 200.15883,157.16205   z "
     style="fill:#000000;fill-rule:evenodd;fill-opacity:1;stroke:none;" />
</svg>
