<?xml version="1.0" encoding="UTF-8" standalone="no"?>
<svg
   xmlns:dc="http://purl.org/dc/elements/1.1/"
   xmlns:cc="http://creativecommons.org/ns#"
   xmlns:rdf="http://www.w3.org/1999/02/22-rdf-syntax-ns#"
   xmlns:svg="http://www.w3.org/2000/svg"
   xmlns="http://www.w3.org/2000/svg"
   id="svg13"
   height="125.53mm"
   width="95.75mm"
   version="1.0">
  <metadata
     id="metadata17">
    <rdf:RDF>
      <cc:Work
         rdf:about="">
        <dc:format>image/svg+xml</dc:format>
        <dc:type
           rdf:resource="http://purl.org/dc/dcmitype/StillImage" />
      </cc:Work>
    </rdf:RDF>
  </metadata>
  <defs
     id="defs3">
    <pattern
       y="0"
       x="0"
       height="6"
       width="6"
       patternUnits="userSpaceOnUse"
       id="EMFhbasepattern" />
  </defs>
  <path
     id="path5"
     d="  M 307.53092,420.05783   C 307.53092,54.665059 54.345381,54.665059 54.345381,420.05783   z "
     style="fill:#80e0ff;fill-rule:evenodd;fill-opacity:1;stroke:none;" />
  <path
     id="path7"
     d="  M 307.53092,420.05783   C 307.53092,54.665059 54.345381,54.665059 54.345381,420.05783  "
     style="fill:none;stroke:#000000;stroke-width:9.5903616px;stroke-linecap:butt;stroke-linejoin:miter;stroke-miterlimit:10;stroke-dasharray:none;stroke-opacity:1;" />
  <path
     id="path9"
     d="  M 180.93815,304.97349   L 180.93815,304.97349   L 94.624898,257.02168   L 94.624898,352.9253   L 180.93815,304.97349   L 267.2514,257.02168   L 267.2514,352.9253   L 180.93815,304.97349   z "
     style="fill:#000000;fill-rule:evenodd;fill-opacity:1;stroke:none;" />
  <path
     id="path11"
     d="  M 165.39377,255.02369   L 165.39377,203.51546   L 183.13594,203.51546   C 187.13193,203.55542 190.20883,203.79518 192.3267,204.2747   C 195.24377,204.95401 197.76124,206.19277 199.87911,207.951   C 202.59638,210.26867 204.59437,213.18574 205.95301,216.74217   C 207.31164,220.33855 207.99096,224.41445 207.99096,229.00984   C 207.99096,232.9259 207.51144,236.36245 206.59237,239.39939   C 205.67329,242.39638 204.51445,244.91385 203.0759,246.91184   C 201.67731,248.86988 200.11887,250.42831 198.4006,251.54719   C 196.72229,252.70602 194.64437,253.54518 192.24678,254.14457   C 189.84919,254.74397 187.09197,255.02369 183.9751,255.02369   z  M 172.22691,248.9498   L 183.21586,248.9498   C 186.61245,248.9498 189.28976,248.63012 191.20783,247.99076   C 193.1259,247.3514 194.68433,246.47229 195.80321,245.31345   C 197.44156,243.71506 198.68032,241.55723 199.59939,238.8   C 200.51847,236.08273 200.95803,232.76606 200.95803,228.88996   C 200.95803,223.49538 200.07891,219.37951 198.28072,216.46245   C 196.52249,213.58534 194.36466,211.66727 191.84719,210.66827   C 190.00903,209.94899 187.09197,209.62931 183.05602,209.62931   L 172.22691,209.62931   z "
     style="fill:#000000;fill-rule:evenodd;fill-opacity:1;stroke:none;" />
</svg>
