<?xml version="1.0" encoding="UTF-8" standalone="no"?>
<svg
   xmlns:dc="http://purl.org/dc/elements/1.1/"
   xmlns:cc="http://creativecommons.org/ns#"
   xmlns:rdf="http://www.w3.org/1999/02/22-rdf-syntax-ns#"
   xmlns:svg="http://www.w3.org/2000/svg"
   xmlns="http://www.w3.org/2000/svg"
   id="svg13"
   height="107.94mm"
   width="95.75mm"
   version="1.0">
  <metadata
     id="metadata17">
    <rdf:RDF>
      <cc:Work
         rdf:about="">
        <dc:format>image/svg+xml</dc:format>
        <dc:type
           rdf:resource="http://purl.org/dc/dcmitype/StillImage" />
      </cc:Work>
    </rdf:RDF>
  </metadata>
  <defs
     id="defs3">
    <pattern
       y="0"
       x="0"
       height="6"
       width="6"
       patternUnits="userSpaceOnUse"
       id="EMFhbasepattern" />
  </defs>
  <path
     id="path5"
     d="  M 54.345381,353.56465   L 54.345381,171.34779   L 180.93815,54.345381   L 307.53092,171.34779   L 307.53092,353.56465   z "
     style="fill:#ff8080;fill-rule:evenodd;fill-opacity:1;stroke:none;" />
  <path
     id="path7"
     d="  M 54.345381,353.56465   L 54.345381,171.34779   L 180.93815,54.345381   L 307.53092,171.34779   L 307.53092,353.56465  "
     style="fill:none;stroke:#000000;stroke-width:9.5903616px;stroke-linecap:butt;stroke-linejoin:miter;stroke-miterlimit:10;stroke-dasharray:none;stroke-opacity:1;" />
  <path
     id="path9"
     d="  M 180.93815,238.48032   L 180.93815,238.48032   L 94.624898,190.52851   L 94.624898,286.43212   L 180.93815,238.48032   L 267.2514,190.52851   L 267.2514,286.43212   L 180.93815,238.48032   z "
     style="fill:#000000;fill-rule:evenodd;fill-opacity:1;stroke:none;" />
  <path
     id="path11"
     d="  M 165.39377,188.53052   L 165.39377,137.02229   L 183.13594,137.02229   C 187.13193,137.06225 190.20883,137.30201 192.3267,137.78152   C 195.24377,138.46084 197.76124,139.6996 199.87911,141.45783   C 202.59638,143.7755 204.59437,146.69257 205.95301,150.24899   C 207.31164,153.84538 207.99096,157.92128 207.99096,162.51666   C 207.99096,166.43273 207.51144,169.86927 206.59237,172.90622   C 205.67329,175.90321 204.51445,178.42068 203.0759,180.41867   C 201.67731,182.3767 200.11887,183.93514 198.4006,185.05401   C 196.72229,186.21285 194.64437,187.05201 192.24678,187.6514   C 189.84919,188.2508 187.09197,188.53052 183.9751,188.53052   z  M 172.22691,182.45662   L 183.21586,182.45662   C 186.61245,182.45662 189.28976,182.13695 191.20783,181.49759   C 193.1259,180.85823 194.68433,179.97911 195.80321,178.82028   C 197.44156,177.22188 198.68032,175.06405 199.59939,172.30682   C 200.51847,169.58956 200.95803,166.27289 200.95803,162.39678   C 200.95803,157.00221 200.07891,152.88634 198.28072,149.96927   C 196.52249,147.09217 194.36466,145.17409 191.84719,144.1751   C 190.00903,143.45582 187.09197,143.13614 183.05602,143.13614   L 172.22691,143.13614   z "
     style="fill:#000000;fill-rule:evenodd;fill-opacity:1;stroke:none;" />
</svg>
