<?xml version="1.0" encoding="UTF-8" standalone="no"?>
<svg
   xmlns:dc="http://purl.org/dc/elements/1.1/"
   xmlns:cc="http://creativecommons.org/ns#"
   xmlns:rdf="http://www.w3.org/1999/02/22-rdf-syntax-ns#"
   xmlns:svg="http://www.w3.org/2000/svg"
   xmlns="http://www.w3.org/2000/svg"
   id="svg13"
   height="116.06mm"
   width="135.35001mm"
   version="1.0">
  <metadata
     id="metadata17">
    <rdf:RDF>
      <cc:Work
         rdf:about="">
        <dc:format>image/svg+xml</dc:format>
        <dc:type
           rdf:resource="http://purl.org/dc/dcmitype/StillImage" />
      </cc:Work>
    </rdf:RDF>
  </metadata>
  <defs
     id="defs3">
    <pattern
       y="0"
       x="0"
       height="6"
       width="6"
       patternUnits="userSpaceOnUse"
       id="EMFhbasepattern" />
  </defs>
  <path
     id="path5"
     d="  M 337.26104,384.25381   C 457.14056,384.25381 457.14056,187.6514 337.26104,187.6514   C 337.26104,54.345381 174.2249,54.345381 174.2249,187.6514   C 54.345381,187.6514 54.345381,384.25381 174.2249,384.25381   z "
     style="fill:#ffff80;fill-rule:evenodd;fill-opacity:1;stroke:none;" />
  <path
     id="path7"
     d="  M 337.26104,384.25381   C 457.14056,384.25381 457.14056,187.6514 337.26104,187.6514   C 337.26104,54.345381 174.2249,54.345381 174.2249,187.6514   C 54.345381,187.6514 54.345381,384.25381 174.2249,384.25381  "
     style="fill:none;stroke:#000000;stroke-width:9.5903616px;stroke-linecap:butt;stroke-linejoin:miter;stroke-miterlimit:10;stroke-dasharray:none;stroke-opacity:1;" />
  <path
     id="path9"
     d="  M 255.74297,269.16947   L 255.74297,269.16947   L 169.42972,221.21767   L 169.42972,317.12128   L 255.74297,269.16947   L 342.05622,221.21767   L 342.05622,317.12128   L 255.74297,269.16947   z "
     style="fill:#000000;fill-rule:evenodd;fill-opacity:1;stroke:none;" />
  <path
     id="path11"
     d="  M 240.19859,219.21968   L 240.19859,167.71144   L 257.94076,167.71144   C 261.93674,167.7514 265.01365,167.99116 267.13152,168.47068   C 270.04859,169.15 272.56606,170.38875 274.68393,172.14699   C 277.4012,174.46466 279.39919,177.38172 280.75783,180.93815   C 282.11646,184.53454 282.79578,188.61044 282.79578,193.20582   C 282.79578,197.12188 282.31626,200.55843 281.39718,203.59538   C 280.47811,206.59237 279.31927,209.10984 277.88072,211.10783   C 276.48212,213.06586 274.92369,214.62429 273.20542,215.74317   C 271.5271,216.902 269.44919,217.74116 267.0516,218.34056   C 264.65401,218.93996 261.89678,219.21968 258.77992,219.21968   z  M 247.03172,213.14578   L 258.02068,213.14578   C 261.41727,213.14578 264.09457,212.8261 266.01265,212.18674   C 267.93072,211.54739 269.48915,210.66827 270.60803,209.50943   C 272.24638,207.91104 273.48514,205.75321 274.40421,202.99598   C 275.32329,200.27871 275.76285,196.96205 275.76285,193.08594   C 275.76285,187.69136 274.88373,183.5755 273.08554,180.65843   C 271.32731,177.78132 269.16947,175.86325 266.652,174.86425   C 264.81385,174.14498 261.89678,173.8253 257.86084,173.8253   L 247.03172,173.8253   z "
     style="fill:#000000;fill-rule:evenodd;fill-opacity:1;stroke:none;" />
</svg>
