<?xml version="1.0" encoding="UTF-8" standalone="no"?>
<svg
   xmlns:dc="http://purl.org/dc/elements/1.1/"
   xmlns:cc="http://creativecommons.org/ns#"
   xmlns:rdf="http://www.w3.org/1999/02/22-rdf-syntax-ns#"
   xmlns:svg="http://www.w3.org/2000/svg"
   xmlns="http://www.w3.org/2000/svg"
   id="svg13"
   height="101.85mm"
   width="95.75mm"
   version="1.0">
  <metadata
     id="metadata17">
    <rdf:RDF>
      <cc:Work
         rdf:about="">
        <dc:format>image/svg+xml</dc:format>
        <dc:type
           rdf:resource="http://purl.org/dc/dcmitype/StillImage" />
      </cc:Work>
    </rdf:RDF>
  </metadata>
  <defs
     id="defs3">
    <pattern
       y="0"
       x="0"
       height="6"
       width="6"
       patternUnits="userSpaceOnUse"
       id="EMFhbasepattern" />
  </defs>
  <path
     id="path5"
     d="  M 54.345381,54.345381   L 54.345381,330.54779   L 307.53092,330.54779   L 307.53092,54.345381   L 54.345381,54.345381   z "
     style="fill:#aaffaa;fill-rule:evenodd;fill-opacity:1;stroke:none;" />
  <path
     id="path7"
     d="  M 54.345381,330.54779   L 54.345381,54.345381   L 307.53092,54.345381   L 307.53092,330.54779  "
     style="fill:none;stroke:#000000;stroke-width:9.5903616px;stroke-linecap:butt;stroke-linejoin:miter;stroke-miterlimit:10;stroke-dasharray:none;stroke-opacity:1;" />
  <path
     id="path9"
     d="  M 180.93815,215.46345   L 180.93815,215.46345   L 94.624898,167.51164   L 94.624898,263.41526   L 180.93815,215.46345   L 267.2514,167.51164   L 267.2514,263.41526   L 180.93815,215.46345   z "
     style="fill:#000000;fill-rule:evenodd;fill-opacity:1;stroke:none;" />
  <path
     id="path11"
     d="  M 164.0751,155.92329   L 164.0751,104.41506   L 186.89217,104.41506   C 191.48755,104.45502 194.96405,104.89458 197.36164,105.81365   C 199.75923,106.73273 201.67731,108.37108 203.0759,110.72871   C 204.51445,113.04638 205.23373,115.64377 205.23373,118.48092   C 205.23373,122.15723 204.03494,125.23413 201.67731,127.71164   C 199.31968,130.22911 195.68333,131.82751 190.72831,132.50683   C 192.5265,133.34598 193.88514,134.2251 194.84417,135.06426   C 196.84217,136.90241 198.72028,139.18012 200.47851,141.89739   L 209.46947,155.92329   L 200.87811,155.92329   L 194.08494,145.21405   C 192.08695,142.13715 190.44859,139.73956 189.16988,138.1012   C 187.8512,136.46285 186.69237,135.34397 185.69337,134.66466   C 184.65442,134.0253 183.65542,133.54578 182.5765,133.30602   C 181.81727,133.14618 180.53855,133.06626 178.78032,133.06626   L 170.86827,133.06626   L 170.86827,155.92329   z  M 170.86827,127.15221   L 185.53353,127.15221   C 188.6504,127.15221 191.08795,126.83253 192.84618,126.19317   C 194.60441,125.55381 195.92309,124.51486 196.84217,123.11626   C 197.76124,121.67771 198.2008,120.15924 198.2008,118.48092   C 198.2008,116.04337 197.32168,114.04538 195.56345,112.48695   C 193.80522,110.92851 191.00803,110.12932 187.17188,110.12932   L 170.86827,110.12932   z "
     style="fill:#000000;fill-rule:evenodd;fill-opacity:1;stroke:none;" />
</svg>
