<?xml version="1.0" encoding="UTF-8" standalone="no"?>
<svg
   xmlns:dc="http://purl.org/dc/elements/1.1/"
   xmlns:cc="http://creativecommons.org/ns#"
   xmlns:rdf="http://www.w3.org/1999/02/22-rdf-syntax-ns#"
   xmlns:svg="http://www.w3.org/2000/svg"
   xmlns="http://www.w3.org/2000/svg"
   id="svg13"
   height="107.94mm"
   width="95.75mm"
   version="1.0">
  <metadata
     id="metadata17">
    <rdf:RDF>
      <cc:Work
         rdf:about="">
        <dc:format>image/svg+xml</dc:format>
        <dc:type
           rdf:resource="http://purl.org/dc/dcmitype/StillImage" />
      </cc:Work>
    </rdf:RDF>
  </metadata>
  <defs
     id="defs3">
    <pattern
       y="0"
       x="0"
       height="6"
       width="6"
       patternUnits="userSpaceOnUse"
       id="EMFhbasepattern" />
  </defs>
  <path
     id="path5"
     d="  M 54.345381,353.56465   L 54.345381,171.34779   L 180.93815,54.345381   L 307.53092,171.34779   L 307.53092,353.56465   z "
     style="fill:#ff8080;fill-rule:evenodd;fill-opacity:1;stroke:none;" />
  <path
     id="path7"
     d="  M 54.345381,353.56465   L 54.345381,171.34779   L 180.93815,54.345381   L 307.53092,171.34779   L 307.53092,353.56465  "
     style="fill:none;stroke:#000000;stroke-width:9.5903616px;stroke-linecap:butt;stroke-linejoin:miter;stroke-miterlimit:10;stroke-dasharray:none;stroke-opacity:1;" />
  <path
     id="path9"
     d="  M 180.93815,238.48032   L 180.93815,238.48032   L 94.624898,190.52851   L 94.624898,286.43212   L 180.93815,238.48032   L 267.2514,190.52851   L 267.2514,286.43212   L 180.93815,238.48032   z "
     style="fill:#000000;fill-rule:evenodd;fill-opacity:1;stroke:none;" />
  <path
     id="path11"
     d="  M 168.63052,173.90522   L 174.78433,173.06606   C 174.94417,177.02209 175.70341,179.69939 177.02209,181.13795   C 178.3008,182.61646 180.13895,183.33574 182.45662,183.33574   C 184.1749,183.33574 185.61345,182.93614 186.85221,182.13695   C 188.13092,181.37771 188.97008,180.29879 189.4496,178.98012   C 189.88915,177.62148 190.12891,175.46365 190.12891,172.50662   L 190.12891,137.02229   L 196.96205,137.02229   L 196.96205,172.14699   C 196.96205,176.42269 196.44257,179.77931 195.40361,182.13695   C 194.36466,184.49458 192.68634,186.29277 190.44859,187.53152   C 188.17088,188.77028 185.53353,189.40964 182.49658,189.40964   C 177.98112,189.40964 174.50462,188.09096 172.10703,185.49357   C 169.70944,182.89618 168.5506,179.06004 168.63052,173.90522   z "
     style="fill:#000000;fill-rule:evenodd;fill-opacity:1;stroke:none;" />
</svg>
