<?xml version="1.0" encoding="UTF-8" standalone="no"?>
<svg
   xmlns:dc="http://purl.org/dc/elements/1.1/"
   xmlns:cc="http://creativecommons.org/ns#"
   xmlns:rdf="http://www.w3.org/1999/02/22-rdf-syntax-ns#"
   xmlns:svg="http://www.w3.org/2000/svg"
   xmlns="http://www.w3.org/2000/svg"
   id="svg13"
   height="107.94mm"
   width="95.75mm"
   version="1.0">
  <metadata
     id="metadata17">
    <rdf:RDF>
      <cc:Work
         rdf:about="">
        <dc:format>image/svg+xml</dc:format>
        <dc:type
           rdf:resource="http://purl.org/dc/dcmitype/StillImage" />
      </cc:Work>
    </rdf:RDF>
  </metadata>
  <defs
     id="defs3">
    <pattern
       y="0"
       x="0"
       height="6"
       width="6"
       patternUnits="userSpaceOnUse"
       id="EMFhbasepattern" />
  </defs>
  <path
     id="path5"
     d="  M 54.345381,353.56465   L 54.345381,171.34779   L 180.93815,54.345381   L 307.53092,171.34779   L 307.53092,353.56465   z "
     style="fill:#ff8080;fill-rule:evenodd;fill-opacity:1;stroke:none;" />
  <path
     id="path7"
     d="  M 54.345381,353.56465   L 54.345381,171.34779   L 180.93815,54.345381   L 307.53092,171.34779   L 307.53092,353.56465  "
     style="fill:none;stroke:#000000;stroke-width:9.5903616px;stroke-linecap:butt;stroke-linejoin:miter;stroke-miterlimit:10;stroke-dasharray:none;stroke-opacity:1;" />
  <path
     id="path9"
     d="  M 180.93815,238.48032   L 180.93815,238.48032   L 94.624898,190.52851   L 94.624898,286.43212   L 180.93815,238.48032   L 267.2514,190.52851   L 267.2514,286.43212   L 180.93815,238.48032   z "
     style="fill:#000000;fill-rule:evenodd;fill-opacity:1;stroke:none;" />
  <path
     id="path11"
     d="  M 163.55562,171.98715   L 169.98915,171.42771   C 170.30883,173.98514 171.02811,176.10301 172.10703,177.78132   C 173.2259,179.41968 174.94417,180.73835 177.3018,181.77731   C 179.65944,182.7763 182.29678,183.29578 185.21385,183.29578   C 187.81124,183.29578 190.08895,182.89618 192.08695,182.13695   C 194.08494,181.37771 195.56345,180.29879 196.52249,178.98012   C 197.52148,177.62148 198.001,176.14297 198.001,174.54458   C 198.001,172.94618 197.52148,171.54759 196.56245,170.30883   C 195.64337,169.11004 194.08494,168.11104 191.92711,167.27189   C 190.56847,166.75241 187.49156,165.91325 182.7763,164.75442   C 178.06104,163.63554 174.74437,162.55662 172.8263,161.55763   C 170.38875,160.27891 168.5506,158.68052 167.3518,156.76245   C 166.15301,154.84438 165.55361,152.7265 165.55361,150.36887   C 165.55361,147.77148 166.27289,145.33393 167.7514,143.05622   C 169.22992,140.81847 171.38775,139.1002 174.2249,137.94136   C 177.06205,136.74257 180.17891,136.18313 183.65542,136.18313   C 187.49156,136.18313 190.84819,136.78253 193.76526,138.02128   C 196.68233,139.22008 198.92008,141.05823 200.47851,143.45582   C 202.03694,145.81345 202.8761,148.53072 202.99598,151.52771   L 196.48253,152.04719   C 196.12289,148.77048 194.92409,146.33293 192.9261,144.65462   C 190.88815,143.01626 187.89116,142.17711 183.93514,142.17711   C 179.81927,142.17711 176.82229,142.93634 174.94417,144.45482   C 173.06606,145.93333 172.10703,147.77148 172.10703,149.88936   C 172.10703,151.76747 172.78634,153.28594 174.10502,154.44478   C 175.42369,155.64357 178.86024,156.88233 184.3747,158.12108   C 189.92911,159.3998 193.7253,160.47871 195.76325,161.39779   C 198.76024,162.79638 200.99799,164.55462 202.39658,166.67249   C 203.83514,168.79036 204.55441,171.22791 204.55441,173.98514   C 204.55441,176.74237 203.75522,179.2998 202.19678,181.73735   C 200.63835,184.1749 198.36064,186.05301 195.44357,187.37168   C 192.48654,188.73032 189.20984,189.40964 185.53353,189.40964   C 180.85823,189.40964 176.94217,188.73032 173.8253,187.37168   C 170.66847,186.01305 168.19096,183.9751 166.39277,181.25783   C 164.59458,178.5006 163.6755,175.42369 163.55562,171.98715   z "
     style="fill:#000000;fill-rule:evenodd;fill-opacity:1;stroke:none;" />
</svg>
