<?xml version="1.0" encoding="UTF-8" standalone="no"?>
<svg
   xmlns:dc="http://purl.org/dc/elements/1.1/"
   xmlns:cc="http://creativecommons.org/ns#"
   xmlns:rdf="http://www.w3.org/1999/02/22-rdf-syntax-ns#"
   xmlns:svg="http://www.w3.org/2000/svg"
   xmlns="http://www.w3.org/2000/svg"
   id="svg13"
   height="116.73mm"
   width="116.73mm"
   version="1.0">
  <metadata
     id="metadata17">
    <rdf:RDF>
      <cc:Work
         rdf:about="">
        <dc:format>image/svg+xml</dc:format>
        <dc:type
           rdf:resource="http://purl.org/dc/dcmitype/StillImage" />
      </cc:Work>
    </rdf:RDF>
  </metadata>
  <defs
     id="defs3">
    <pattern
       y="0"
       x="0"
       height="6"
       width="6"
       patternUnits="userSpaceOnUse"
       id="EMFhbasepattern" />
  </defs>
  <path
     id="path5"
     d="  M 220.57831,386.49156   L 220.57831,386.49156   L 386.49156,220.57831   L 220.57831,54.665059   L 54.665059,220.57831   L 220.57831,386.49156   z "
     style="fill:#ff8080;fill-rule:evenodd;fill-opacity:1;stroke:none;" />
  <path
     id="path7"
     d="  M 220.57831,386.49156   L 220.57831,386.49156   L 386.49156,220.57831   L 220.57831,54.665059   L 54.665059,220.57831   L 220.57831,386.49156  "
     style="fill:none;stroke:#000000;stroke-width:9.5903616px;stroke-linecap:butt;stroke-linejoin:miter;stroke-miterlimit:10;stroke-dasharray:none;stroke-opacity:1;" />
  <path
     id="path9"
     d="  M 220.57831,220.57831   L 220.57831,220.57831   L 134.26506,172.6265   L 134.26506,268.53012   L 220.57831,220.57831   L 306.89156,172.6265   L 306.89156,268.53012   L 220.57831,220.57831   z "
     style="fill:#000000;fill-rule:evenodd;fill-opacity:1;stroke:none;" />
  <path
     id="path11"
     d="  M 206.47249,161.03815   L 206.47249,109.52992   L 225.89297,109.52992   C 229.32951,109.56988 231.9269,109.72972 233.7251,110.0494   C 236.28253,110.44899 238.4004,111.24819 240.07871,112.44699   C 241.79698,113.64578 243.19558,115.28413 244.23453,117.40201   C 245.27349,119.55984 245.79297,121.87751 245.79297,124.43494   C 245.79297,128.83052 244.39437,132.54679 241.59719,135.54377   C 238.83996,138.58072 233.80502,140.09919 226.49237,140.09919   L 213.30562,140.09919   L 213.30562,161.03815   z  M 213.30562,134.0253   L 226.61225,134.0253   C 231.00783,134.0253 234.1247,133.2261 236.00281,131.58775   C 237.84096,129.9494 238.76004,127.63173 238.76004,124.63474   C 238.76004,122.51687 238.2006,120.63875 237.12168,119.12028   C 236.04277,117.60181 234.60421,116.56285 232.84598,116.08333   C 231.68715,115.76365 229.56927,115.64377 226.45241,115.64377   L 213.30562,115.64377   z "
     style="fill:#000000;fill-rule:evenodd;fill-opacity:1;stroke:none;" />
</svg>
