<?xml version="1.0" encoding="UTF-8" standalone="no"?>
<svg
   xmlns:dc="http://purl.org/dc/elements/1.1/"
   xmlns:cc="http://creativecommons.org/ns#"
   xmlns:rdf="http://www.w3.org/1999/02/22-rdf-syntax-ns#"
   xmlns:svg="http://www.w3.org/2000/svg"
   xmlns="http://www.w3.org/2000/svg"
   id="svg15"
   height="101.85mm"
   width="95.75mm"
   version="1.0">
  <metadata
     id="metadata19">
    <rdf:RDF>
      <cc:Work
         rdf:about="">
        <dc:format>image/svg+xml</dc:format>
        <dc:type
           rdf:resource="http://purl.org/dc/dcmitype/StillImage" />
      </cc:Work>
    </rdf:RDF>
  </metadata>
  <defs
     id="defs3">
    <pattern
       y="0"
       x="0"
       height="6"
       width="6"
       patternUnits="userSpaceOnUse"
       id="EMFhbasepattern" />
  </defs>
  <path
     id="path5"
     d="  M 54.345381,54.345381   L 54.345381,330.54779   L 307.53092,330.54779   L 307.53092,54.345381   L 54.345381,54.345381   z "
     style="fill:#aaffaa;fill-rule:evenodd;fill-opacity:1;stroke:none;" />
  <path
     id="path7"
     d="  M 54.345381,330.54779   L 54.345381,54.345381   L 307.53092,54.345381   L 307.53092,330.54779  "
     style="fill:none;stroke:#000000;stroke-width:9.5903616px;stroke-linecap:butt;stroke-linejoin:miter;stroke-miterlimit:10;stroke-dasharray:none;stroke-opacity:1;" />
  <path
     id="path9"
     d="  M 180.93815,215.46345   L 180.93815,215.46345   L 94.624898,167.51164   L 94.624898,263.41526   L 180.93815,215.46345   L 267.2514,167.51164   L 267.2514,263.41526   L 180.93815,215.46345   z "
     style="fill:#000000;fill-rule:evenodd;fill-opacity:1;stroke:none;" />
  <path
     id="path11"
     d="  M 168.67048,312.20622   L 168.67048,267.57108   L 174.58454,267.57108   L 174.58454,285.91265   L 197.8012,285.91265   L 197.8012,267.57108   L 203.6753,267.57108   L 203.6753,312.20622   L 197.8012,312.20622   L 197.8012,291.14739   L 174.58454,291.14739   L 174.58454,312.20622   z "
     style="fill:#000000;fill-rule:evenodd;fill-opacity:1;stroke:none;" />
  <path
     id="path13"
     d="  M 200.71827,147.45181   L 207.51144,149.17008   C 206.07289,154.76446 203.51546,159.04016 199.79919,161.99719   C 196.08293,164.91425 191.56747,166.39277 186.21285,166.39277   C 180.65843,166.39277 176.14297,165.27389 172.66646,162.99618   C 169.18996,160.75843 166.55261,157.48172 164.71446,153.20602   C 162.91626,148.89036 161.99719,144.29498 161.99719,139.37992   C 161.99719,134.0253 163.03614,129.35 165.07409,125.35401   C 167.11205,121.35803 170.02911,118.32108 173.8253,116.24317   C 177.62148,114.16526 181.77731,113.16626 186.29277,113.16626   C 191.44759,113.16626 195.80321,114.44498 199.31968,117.08233   C 202.79618,119.71968 205.27369,123.39598 206.63233,128.1512   L 199.91907,129.70964   C 198.72028,125.99337 197.00201,123.23614 194.72429,121.55783   C 192.44658,119.83956 189.60944,118.96044 186.17289,118.96044   C 182.21686,118.96044 178.9002,119.91948 176.26285,121.83755   C 173.58554,123.71566 171.70743,126.27309 170.62851,129.46988   C 169.5496,132.66666 169.03012,135.94337 169.03012,139.33996   C 169.03012,143.73554 169.66948,147.53172 170.94819,150.80843   C 172.22691,154.08514 174.18494,156.52269 176.90221,158.12108   C 179.57952,159.75944 182.49658,160.55863 185.65341,160.55863   C 189.4496,160.55863 192.68634,159.47972 195.32369,157.24197   C 197.96104,155.04417 199.75923,151.80743 200.71827,147.45181   z "
     style="fill:#000000;fill-rule:evenodd;fill-opacity:1;stroke:none;" />
</svg>
