<?xml version="1.0" encoding="UTF-8" standalone="no"?>
<svg
   xmlns:dc="http://purl.org/dc/elements/1.1/"
   xmlns:cc="http://creativecommons.org/ns#"
   xmlns:rdf="http://www.w3.org/1999/02/22-rdf-syntax-ns#"
   xmlns:svg="http://www.w3.org/2000/svg"
   xmlns="http://www.w3.org/2000/svg"
   id="svg15"
   height="116.06mm"
   width="135.35001mm"
   version="1.0">
  <metadata
     id="metadata19">
    <rdf:RDF>
      <cc:Work
         rdf:about="">
        <dc:format>image/svg+xml</dc:format>
        <dc:type
           rdf:resource="http://purl.org/dc/dcmitype/StillImage" />
      </cc:Work>
    </rdf:RDF>
  </metadata>
  <defs
     id="defs3">
    <pattern
       y="0"
       x="0"
       height="6"
       width="6"
       patternUnits="userSpaceOnUse"
       id="EMFhbasepattern" />
  </defs>
  <path
     id="path5"
     d="  M 337.26104,384.25381   C 457.14056,384.25381 457.14056,187.6514 337.26104,187.6514   C 337.26104,54.345381 174.2249,54.345381 174.2249,187.6514   C 54.345381,187.6514 54.345381,384.25381 174.2249,384.25381   z "
     style="fill:#ffff80;fill-rule:evenodd;fill-opacity:1;stroke:none;" />
  <path
     id="path7"
     d="  M 337.26104,384.25381   C 457.14056,384.25381 457.14056,187.6514 337.26104,187.6514   C 337.26104,54.345381 174.2249,54.345381 174.2249,187.6514   C 54.345381,187.6514 54.345381,384.25381 174.2249,384.25381  "
     style="fill:none;stroke:#000000;stroke-width:9.5903616px;stroke-linecap:butt;stroke-linejoin:miter;stroke-miterlimit:10;stroke-dasharray:none;stroke-opacity:1;" />
  <path
     id="path9"
     d="  M 255.74297,269.16947   L 255.74297,269.16947   L 169.42972,221.21767   L 169.42972,317.12128   L 255.74297,269.16947   L 342.05622,221.21767   L 342.05622,317.12128   L 255.74297,269.16947   z "
     style="fill:#000000;fill-rule:evenodd;fill-opacity:1;stroke:none;" />
  <path
     id="path11"
     d="  M 243.4753,365.91224   L 243.4753,321.2771   L 249.38935,321.2771   L 249.38935,339.61867   L 272.60602,339.61867   L 272.60602,321.2771   L 278.48012,321.2771   L 278.48012,365.91224   L 272.60602,365.91224   L 272.60602,344.85341   L 249.38935,344.85341   L 249.38935,365.91224   z "
     style="fill:#000000;fill-rule:evenodd;fill-opacity:1;stroke:none;" />
  <path
     id="path13"
     d="  M 274.96365,158.12108   L 281.75682,158.12108   L 281.75682,187.89116   C 281.75682,193.04598 281.19739,197.16184 279.99859,200.19879   C 278.83976,203.2757 276.72188,205.75321 273.68494,207.63132   C 270.60803,209.54939 266.61204,210.50843 261.65702,210.50843   C 256.82188,210.50843 252.86586,209.66927 249.82891,208.03092   C 246.752,206.35261 244.55421,203.95502 243.23554,200.79819   C 241.91686,197.64136 241.27751,193.3257 241.27751,187.89116   L 241.27751,158.12108   L 248.07068,158.12108   L 248.07068,187.8512   C 248.07068,192.3267 248.51024,195.60341 249.34939,197.76124   C 250.18855,199.87911 251.58714,201.47751 253.6251,202.63634   C 255.66305,203.79518 258.14056,204.35462 261.05763,204.35462   C 266.05261,204.35462 269.64899,203.23574 271.76686,200.95803   C 273.88473,198.68032 274.96365,194.3247 274.96365,187.8512   z "
     style="fill:#000000;fill-rule:evenodd;fill-opacity:1;stroke:none;" />
</svg>
