<?xml version="1.0" encoding="UTF-8" standalone="no"?>
<svg
   xmlns:dc="http://purl.org/dc/elements/1.1/"
   xmlns:cc="http://creativecommons.org/ns#"
   xmlns:rdf="http://www.w3.org/1999/02/22-rdf-syntax-ns#"
   xmlns:svg="http://www.w3.org/2000/svg"
   xmlns="http://www.w3.org/2000/svg"
   id="svg13"
   height="125.53mm"
   width="95.75mm"
   version="1.0">
  <metadata
     id="metadata17">
    <rdf:RDF>
      <cc:Work
         rdf:about="">
        <dc:format>image/svg+xml</dc:format>
        <dc:type
           rdf:resource="http://purl.org/dc/dcmitype/StillImage" />
      </cc:Work>
    </rdf:RDF>
  </metadata>
  <defs
     id="defs3">
    <pattern
       y="0"
       x="0"
       height="6"
       width="6"
       patternUnits="userSpaceOnUse"
       id="EMFhbasepattern" />
  </defs>
  <path
     id="path5"
     d="  M 307.53092,420.05783   C 307.53092,54.665059 54.345381,54.665059 54.345381,420.05783   z "
     style="fill:#80e0ff;fill-rule:evenodd;fill-opacity:1;stroke:none;" />
  <path
     id="path7"
     d="  M 307.53092,420.05783   C 307.53092,54.665059 54.345381,54.665059 54.345381,420.05783  "
     style="fill:none;stroke:#000000;stroke-width:9.5903616px;stroke-linecap:butt;stroke-linejoin:miter;stroke-miterlimit:10;stroke-dasharray:none;stroke-opacity:1;" />
  <path
     id="path9"
     d="  M 180.93815,304.97349   L 180.93815,304.97349   L 94.624898,257.02168   L 94.624898,352.9253   L 180.93815,304.97349   L 267.2514,257.02168   L 267.2514,352.9253   L 180.93815,304.97349   z "
     style="fill:#000000;fill-rule:evenodd;fill-opacity:1;stroke:none;" />
  <path
     id="path11"
     d="  M 164.0751,245.43333   L 164.0751,193.9251   L 186.89217,193.9251   C 191.48755,193.96506 194.96405,194.40462 197.36164,195.32369   C 199.75923,196.24277 201.67731,197.88112 203.0759,200.23875   C 204.51445,202.55642 205.23373,205.15381 205.23373,207.99096   C 205.23373,211.66727 204.03494,214.74417 201.67731,217.22168   C 199.31968,219.73915 195.68333,221.33755 190.72831,222.01686   C 192.5265,222.85602 193.88514,223.73514 194.84417,224.57429   C 196.84217,226.41245 198.72028,228.69016 200.47851,231.40743   L 209.46947,245.43333   L 200.87811,245.43333   L 194.08494,234.72409   C 192.08695,231.64719 190.44859,229.2496 189.16988,227.61124   C 187.8512,225.97289 186.69237,224.85401 185.69337,224.1747   C 184.65442,223.53534 183.65542,223.05582 182.5765,222.81606   C 181.81727,222.65622 180.53855,222.5763 178.78032,222.5763   L 170.86827,222.5763   L 170.86827,245.43333   z  M 170.86827,216.66225   L 185.53353,216.66225   C 188.6504,216.66225 191.08795,216.34257 192.84618,215.70321   C 194.60441,215.06385 195.92309,214.0249 196.84217,212.6263   C 197.76124,211.18775 198.2008,209.66927 198.2008,207.99096   C 198.2008,205.55341 197.32168,203.55542 195.56345,201.99699   C 193.80522,200.43855 191.00803,199.63935 187.17188,199.63935   L 170.86827,199.63935   z "
     style="fill:#000000;fill-rule:evenodd;fill-opacity:1;stroke:none;" />
</svg>
