<?xml version="1.0" encoding="UTF-8" standalone="no"?>
<svg
   xmlns:dc="http://purl.org/dc/elements/1.1/"
   xmlns:cc="http://creativecommons.org/ns#"
   xmlns:rdf="http://www.w3.org/1999/02/22-rdf-syntax-ns#"
   xmlns:svg="http://www.w3.org/2000/svg"
   xmlns="http://www.w3.org/2000/svg"
   id="svg13"
   height="125.53mm"
   width="95.75mm"
   version="1.0">
  <metadata
     id="metadata17">
    <rdf:RDF>
      <cc:Work
         rdf:about="">
        <dc:format>image/svg+xml</dc:format>
        <dc:type
           rdf:resource="http://purl.org/dc/dcmitype/StillImage" />
      </cc:Work>
    </rdf:RDF>
  </metadata>
  <defs
     id="defs3">
    <pattern
       y="0"
       x="0"
       height="6"
       width="6"
       patternUnits="userSpaceOnUse"
       id="EMFhbasepattern" />
  </defs>
  <path
     id="path5"
     d="  M 307.53092,420.05783   C 307.53092,54.665059 54.345381,54.665059 54.345381,420.05783   z "
     style="fill:#80e0ff;fill-rule:evenodd;fill-opacity:1;stroke:none;" />
  <path
     id="path7"
     d="  M 307.53092,420.05783   C 307.53092,54.665059 54.345381,54.665059 54.345381,420.05783  "
     style="fill:none;stroke:#000000;stroke-width:9.5903616px;stroke-linecap:butt;stroke-linejoin:miter;stroke-miterlimit:10;stroke-dasharray:none;stroke-opacity:1;" />
  <path
     id="path9"
     d="  M 180.93815,304.97349   L 180.93815,304.97349   L 94.624898,257.02168   L 94.624898,352.9253   L 180.93815,304.97349   L 267.2514,257.02168   L 267.2514,352.9253   L 180.93815,304.97349   z "
     style="fill:#000000;fill-rule:evenodd;fill-opacity:1;stroke:none;" />
  <path
     id="path11"
     d="  M 163.55562,238.48032   L 169.98915,237.92088   C 170.30883,240.47831 171.02811,242.59618 172.10703,244.27449   C 173.2259,245.91285 174.94417,247.23152 177.3018,248.27048   C 179.65944,249.26947 182.29678,249.78895 185.21385,249.78895   C 187.81124,249.78895 190.08895,249.38935 192.08695,248.63012   C 194.08494,247.87088 195.56345,246.79196 196.52249,245.47329   C 197.52148,244.11466 198.001,242.63614 198.001,241.03775   C 198.001,239.43935 197.52148,238.04076 196.56245,236.802   C 195.64337,235.60321 194.08494,234.60421 191.92711,233.76506   C 190.56847,233.24558 187.49156,232.40642 182.7763,231.24759   C 178.06104,230.12871 174.74437,229.0498 172.8263,228.0508   C 170.38875,226.77209 168.5506,225.17369 167.3518,223.25562   C 166.15301,221.33755 165.55361,219.21968 165.55361,216.86205   C 165.55361,214.26466 166.27289,211.82711 167.7514,209.54939   C 169.22992,207.31164 171.38775,205.59337 174.2249,204.43454   C 177.06205,203.23574 180.17891,202.6763 183.65542,202.6763   C 187.49156,202.6763 190.84819,203.2757 193.76526,204.51445   C 196.68233,205.71325 198.92008,207.5514 200.47851,209.94899   C 202.03694,212.30662 202.8761,215.02389 202.99598,218.02088   L 196.48253,218.54036   C 196.12289,215.26365 194.92409,212.8261 192.9261,211.14779   C 190.88815,209.50943 187.89116,208.67028 183.93514,208.67028   C 179.81927,208.67028 176.82229,209.42952 174.94417,210.94799   C 173.06606,212.4265 172.10703,214.26466 172.10703,216.38253   C 172.10703,218.26064 172.78634,219.77911 174.10502,220.93795   C 175.42369,222.13674 178.86024,223.3755 184.3747,224.61425   C 189.92911,225.89297 193.7253,226.97188 195.76325,227.89096   C 198.76024,229.28955 200.99799,231.04779 202.39658,233.16566   C 203.83514,235.28353 204.55441,237.72108 204.55441,240.47831   C 204.55441,243.23554 203.75522,245.79297 202.19678,248.23052   C 200.63835,250.66807 198.36064,252.54618 195.44357,253.86486   C 192.48654,255.22349 189.20984,255.90281 185.53353,255.90281   C 180.85823,255.90281 176.94217,255.22349 173.8253,253.86486   C 170.66847,252.50622 168.19096,250.46827 166.39277,247.751   C 164.59458,244.99377 163.6755,241.91686 163.55562,238.48032   z "
     style="fill:#000000;fill-rule:evenodd;fill-opacity:1;stroke:none;" />
</svg>
