<?xml version="1.0" encoding="UTF-8" standalone="no"?>
<svg
   xmlns:dc="http://purl.org/dc/elements/1.1/"
   xmlns:cc="http://creativecommons.org/ns#"
   xmlns:rdf="http://www.w3.org/1999/02/22-rdf-syntax-ns#"
   xmlns:svg="http://www.w3.org/2000/svg"
   xmlns="http://www.w3.org/2000/svg"
   id="svg13"
   height="116.06mm"
   width="135.35001mm"
   version="1.0">
  <metadata
     id="metadata17">
    <rdf:RDF>
      <cc:Work
         rdf:about="">
        <dc:format>image/svg+xml</dc:format>
        <dc:type
           rdf:resource="http://purl.org/dc/dcmitype/StillImage" />
      </cc:Work>
    </rdf:RDF>
  </metadata>
  <defs
     id="defs3">
    <pattern
       y="0"
       x="0"
       height="6"
       width="6"
       patternUnits="userSpaceOnUse"
       id="EMFhbasepattern" />
  </defs>
  <path
     id="path5"
     d="  M 337.26104,384.25381   C 457.14056,384.25381 457.14056,187.6514 337.26104,187.6514   C 337.26104,54.345381 174.2249,54.345381 174.2249,187.6514   C 54.345381,187.6514 54.345381,384.25381 174.2249,384.25381   z "
     style="fill:#ffff80;fill-rule:evenodd;fill-opacity:1;stroke:none;" />
  <path
     id="path7"
     d="  M 337.26104,384.25381   C 457.14056,384.25381 457.14056,187.6514 337.26104,187.6514   C 337.26104,54.345381 174.2249,54.345381 174.2249,187.6514   C 54.345381,187.6514 54.345381,384.25381 174.2249,384.25381  "
     style="fill:none;stroke:#000000;stroke-width:9.5903616px;stroke-linecap:butt;stroke-linejoin:miter;stroke-miterlimit:10;stroke-dasharray:none;stroke-opacity:1;" />
  <path
     id="path9"
     d="  M 255.74297,269.16947   L 255.74297,269.16947   L 169.42972,221.21767   L 169.42972,317.12128   L 255.74297,269.16947   L 342.05622,221.21767   L 342.05622,317.12128   L 255.74297,269.16947   z "
     style="fill:#000000;fill-rule:evenodd;fill-opacity:1;stroke:none;" />
  <path
     id="path11"
     d="  M 238.36044,202.6763   L 244.79397,202.11686   C 245.11365,204.67429 245.83293,206.79217 246.91184,208.47048   C 248.03072,210.10883 249.74899,211.42751 252.10662,212.46646   C 254.46425,213.46546 257.1016,213.98494 260.01867,213.98494   C 262.61606,213.98494 264.89377,213.58534 266.89176,212.8261   C 268.88976,212.06686 270.36827,210.98795 271.32731,209.66927   C 272.3263,208.31064 272.80582,206.83213 272.80582,205.23373   C 272.80582,203.63534 272.3263,202.23674 271.36727,200.99799   C 270.44819,199.79919 268.88976,198.8002 266.73192,197.96104   C 265.37329,197.44156 262.29638,196.60241 257.58112,195.44357   C 252.86586,194.3247 249.54919,193.24578 247.63112,192.24678   C 245.19357,190.96807 243.35542,189.36968 242.15662,187.4516   C 240.95783,185.53353 240.35843,183.41566 240.35843,181.05803   C 240.35843,178.46064 241.07771,176.02309 242.55622,173.74538   C 244.03474,171.50763 246.19257,169.78935 249.02972,168.63052   C 251.86686,167.43172 254.98373,166.87229 258.46024,166.87229   C 262.29638,166.87229 265.65301,167.47168 268.57008,168.71044   C 271.48714,169.90923 273.7249,171.74739 275.28333,174.14498   C 276.84176,176.50261 277.68092,179.21988 277.8008,182.21686   L 271.28735,182.73634   C 270.92771,179.45964 269.72891,177.02209 267.73092,175.34377   C 265.69297,173.70542 262.69598,172.86626 258.73996,172.86626   C 254.62409,172.86626 251.6271,173.6255 249.74899,175.14397   C 247.87088,176.62249 246.91184,178.46064 246.91184,180.57851   C 246.91184,182.45662 247.59116,183.9751 248.90984,185.13393   C 250.22851,186.33273 253.66506,187.57148 259.17951,188.81024   C 264.73393,190.08895 268.53012,191.16787 270.56807,192.08695   C 273.56506,193.48554 275.80281,195.24377 277.2014,197.36164   C 278.63996,199.47952 279.35923,201.91707 279.35923,204.67429   C 279.35923,207.43152 278.56004,209.98895 277.0016,212.4265   C 275.44317,214.86405 273.16546,216.74217 270.24839,218.06084   C 267.29136,219.41947 264.01465,220.09879 260.33835,220.09879   C 255.66305,220.09879 251.74698,219.41947 248.63012,218.06084   C 245.47329,216.70221 242.99578,214.66425 241.19759,211.94698   C 239.39939,209.18976 238.48032,206.11285 238.36044,202.6763   z "
     style="fill:#000000;fill-rule:evenodd;fill-opacity:1;stroke:none;" />
</svg>
