<?xml version="1.0" encoding="UTF-8" standalone="no"?>
<svg
   xmlns:dc="http://purl.org/dc/elements/1.1/"
   xmlns:cc="http://creativecommons.org/ns#"
   xmlns:rdf="http://www.w3.org/1999/02/22-rdf-syntax-ns#"
   xmlns:svg="http://www.w3.org/2000/svg"
   xmlns="http://www.w3.org/2000/svg"
   id="svg13"
   height="101.85mm"
   width="95.75mm"
   version="1.0">
  <metadata
     id="metadata17">
    <rdf:RDF>
      <cc:Work
         rdf:about="">
        <dc:format>image/svg+xml</dc:format>
        <dc:type
           rdf:resource="http://purl.org/dc/dcmitype/StillImage" />
      </cc:Work>
    </rdf:RDF>
  </metadata>
  <defs
     id="defs3">
    <pattern
       y="0"
       x="0"
       height="6"
       width="6"
       patternUnits="userSpaceOnUse"
       id="EMFhbasepattern" />
  </defs>
  <path
     id="path5"
     d="  M 54.345381,54.345381   L 54.345381,330.54779   L 307.53092,330.54779   L 307.53092,54.345381   L 54.345381,54.345381   z "
     style="fill:#aaffaa;fill-rule:evenodd;fill-opacity:1;stroke:none;" />
  <path
     id="path7"
     d="  M 54.345381,330.54779   L 54.345381,54.345381   L 307.53092,54.345381   L 307.53092,330.54779  "
     style="fill:none;stroke:#000000;stroke-width:9.5903616px;stroke-linecap:butt;stroke-linejoin:miter;stroke-miterlimit:10;stroke-dasharray:none;stroke-opacity:1;" />
  <path
     id="path9"
     d="  M 180.93815,215.46345   L 180.93815,215.46345   L 94.624898,167.51164   L 94.624898,263.41526   L 180.93815,215.46345   L 267.2514,167.51164   L 267.2514,263.41526   L 180.93815,215.46345   z "
     style="fill:#000000;fill-rule:evenodd;fill-opacity:1;stroke:none;" />
  <path
     id="path11"
     d="  M 165.39377,165.51365   L 165.39377,114.00542   L 183.13594,114.00542   C 187.13193,114.04538 190.20883,114.28514 192.3267,114.76466   C 195.24377,115.44397 197.76124,116.68273 199.87911,118.44096   C 202.59638,120.75863 204.59437,123.6757 205.95301,127.23213   C 207.31164,130.82851 207.99096,134.90442 207.99096,139.4998   C 207.99096,143.41586 207.51144,146.85241 206.59237,149.88936   C 205.67329,152.88634 204.51445,155.40381 203.0759,157.4018   C 201.67731,159.35984 200.11887,160.91827 198.4006,162.03715   C 196.72229,163.19598 194.64437,164.03514 192.24678,164.63454   C 189.84919,165.23393 187.09197,165.51365 183.9751,165.51365   z  M 172.22691,159.43976   L 183.21586,159.43976   C 186.61245,159.43976 189.28976,159.12008 191.20783,158.48072   C 193.1259,157.84136 194.68433,156.96225 195.80321,155.80341   C 197.44156,154.20502 198.68032,152.04719 199.59939,149.28996   C 200.51847,146.57269 200.95803,143.25602 200.95803,139.37992   C 200.95803,133.98534 200.07891,129.86948 198.28072,126.95241   C 196.52249,124.0753 194.36466,122.15723 191.84719,121.15823   C 190.00903,120.43895 187.09197,120.11928 183.05602,120.11928   L 172.22691,120.11928   z "
     style="fill:#000000;fill-rule:evenodd;fill-opacity:1;stroke:none;" />
</svg>
