<?xml version="1.0" encoding="UTF-8" standalone="no"?>
<svg
   xmlns:dc="http://purl.org/dc/elements/1.1/"
   xmlns:cc="http://creativecommons.org/ns#"
   xmlns:rdf="http://www.w3.org/1999/02/22-rdf-syntax-ns#"
   xmlns:svg="http://www.w3.org/2000/svg"
   xmlns="http://www.w3.org/2000/svg"
   id="svg15"
   height="125.53mm"
   width="95.75mm"
   version="1.0">
  <metadata
     id="metadata19">
    <rdf:RDF>
      <cc:Work
         rdf:about="">
        <dc:format>image/svg+xml</dc:format>
        <dc:type
           rdf:resource="http://purl.org/dc/dcmitype/StillImage" />
      </cc:Work>
    </rdf:RDF>
  </metadata>
  <defs
     id="defs3">
    <pattern
       y="0"
       x="0"
       height="6"
       width="6"
       patternUnits="userSpaceOnUse"
       id="EMFhbasepattern" />
  </defs>
  <path
     id="path5"
     d="  M 307.53092,420.05783   C 307.53092,54.665059 54.345381,54.665059 54.345381,420.05783   z "
     style="fill:#80e0ff;fill-rule:evenodd;fill-opacity:1;stroke:none;" />
  <path
     id="path7"
     d="  M 307.53092,420.05783   C 307.53092,54.665059 54.345381,54.665059 54.345381,420.05783  "
     style="fill:none;stroke:#000000;stroke-width:9.5903616px;stroke-linecap:butt;stroke-linejoin:miter;stroke-miterlimit:10;stroke-dasharray:none;stroke-opacity:1;" />
  <path
     id="path9"
     d="  M 180.93815,304.97349   L 180.93815,304.97349   L 94.624898,257.02168   L 94.624898,352.9253   L 180.93815,304.97349   L 267.2514,257.02168   L 267.2514,352.9253   L 180.93815,304.97349   z "
     style="fill:#000000;fill-rule:evenodd;fill-opacity:1;stroke:none;" />
  <path
     id="path11"
     d="  M 168.67048,401.71626   L 168.67048,357.08112   L 174.58454,357.08112   L 174.58454,375.42269   L 197.8012,375.42269   L 197.8012,357.08112   L 203.6753,357.08112   L 203.6753,401.71626   L 197.8012,401.71626   L 197.8012,380.65742   L 174.58454,380.65742   L 174.58454,401.71626   z "
     style="fill:#000000;fill-rule:evenodd;fill-opacity:1;stroke:none;" />
  <path
     id="path13"
     d="  M 200.71827,236.96184   L 207.51144,238.68012   C 206.07289,244.27449 203.51546,248.5502 199.79919,251.50723   C 196.08293,254.42429 191.56747,255.90281 186.21285,255.90281   C 180.65843,255.90281 176.14297,254.78393 172.66646,252.50622   C 169.18996,250.26847 166.55261,246.99176 164.71446,242.71606   C 162.91626,238.4004 161.99719,233.80502 161.99719,228.88996   C 161.99719,223.53534 163.03614,218.86004 165.07409,214.86405   C 167.11205,210.86807 170.02911,207.83112 173.8253,205.75321   C 177.62148,203.6753 181.77731,202.6763 186.29277,202.6763   C 191.44759,202.6763 195.80321,203.95502 199.31968,206.59237   C 202.79618,209.22972 205.27369,212.90602 206.63233,217.66124   L 199.91907,219.21968   C 198.72028,215.50341 197.00201,212.74618 194.72429,211.06787   C 192.44658,209.3496 189.60944,208.47048 186.17289,208.47048   C 182.21686,208.47048 178.9002,209.42952 176.26285,211.34759   C 173.58554,213.2257 171.70743,215.78313 170.62851,218.97992   C 169.5496,222.1767 169.03012,225.45341 169.03012,228.85   C 169.03012,233.24558 169.66948,237.04176 170.94819,240.31847   C 172.22691,243.59518 174.18494,246.03273 176.90221,247.63112   C 179.57952,249.26947 182.49658,250.06867 185.65341,250.06867   C 189.4496,250.06867 192.68634,248.98976 195.32369,246.752   C 197.96104,244.55421 199.75923,241.31747 200.71827,236.96184   z "
     style="fill:#000000;fill-rule:evenodd;fill-opacity:1;stroke:none;" />
</svg>
