<?xml version="1.0" encoding="UTF-8" standalone="no"?>
<svg
   xmlns:dc="http://purl.org/dc/elements/1.1/"
   xmlns:cc="http://creativecommons.org/ns#"
   xmlns:rdf="http://www.w3.org/1999/02/22-rdf-syntax-ns#"
   xmlns:svg="http://www.w3.org/2000/svg"
   xmlns="http://www.w3.org/2000/svg"
   id="svg13"
   height="95.75mm"
   width="95.75mm"
   version="1.0">
  <metadata
     id="metadata17">
    <rdf:RDF>
      <cc:Work
         rdf:about="">
        <dc:format>image/svg+xml</dc:format>
        <dc:type
           rdf:resource="http://purl.org/dc/dcmitype/StillImage" />
      </cc:Work>
    </rdf:RDF>
  </metadata>
  <defs
     id="defs3">
    <pattern
       y="0"
       x="0"
       height="6"
       width="6"
       patternUnits="userSpaceOnUse"
       id="EMFhbasepattern" />
  </defs>
  <path
     id="path5"
     d="  M 54.345381,54.345381   L 54.345381,307.53092   L 307.53092,307.53092   L 307.53092,54.345381   L 54.345381,54.345381   z "
     style="fill:#aaffaa;fill-rule:evenodd;fill-opacity:1;stroke:none;" />
  <path
     id="path7"
     d="  M 54.345381,54.345381   L 307.53092,54.345381   L 307.53092,307.53092   L 54.345381,307.53092   z "
     style="fill:none;stroke:#000000;stroke-width:9.5903616px;stroke-linecap:butt;stroke-linejoin:miter;stroke-miterlimit:10;stroke-dasharray:none;stroke-opacity:1;" />
  <path
     id="path9"
     d="  M 180.93815,180.93815   L 180.93815,180.93815   L 94.624898,132.98634   L 94.624898,228.88996   L 180.93815,180.93815   L 267.2514,132.98634   L 267.2514,228.88996   L 180.93815,180.93815   z "
     style="fill:#000000;fill-rule:evenodd;fill-opacity:1;stroke:none;" />
  <path
     id="path11"
     d="  M 166.83233,121.39799   L 166.83233,69.889758   L 186.25281,69.889758   C 189.68935,69.929718 192.28674,70.089557 194.08494,70.409236   C 196.64237,70.808834 198.76024,71.608031 200.43855,72.806826   C 202.15682,74.005621 203.55542,75.643975 204.59437,77.761846   C 205.63333,79.919678 206.15281,82.237348 206.15281,84.794778   C 206.15281,89.19036 204.75421,92.906625 201.95703,95.903613   C 199.1998,98.940561 194.16486,100.45903 186.85221,100.45903   L 173.66546,100.45903   L 173.66546,121.39799   z  M 173.66546,94.385139   L 186.97209,94.385139   C 191.36767,94.385139 194.48454,93.585942 196.36265,91.947589   C 198.2008,90.309236 199.11988,87.991565 199.11988,84.994577   C 199.11988,82.876706 198.56044,80.998593 197.48152,79.480119   C 196.40261,77.961645 194.96405,76.92269 193.20582,76.443172   C 192.04699,76.123493 189.92911,76.003613 186.81225,76.003613   L 173.66546,76.003613   z "
     style="fill:#000000;fill-rule:evenodd;fill-opacity:1;stroke:none;" />
</svg>
