<?xml version="1.0" encoding="UTF-8" standalone="no"?>
<svg
   xmlns:dc="http://purl.org/dc/elements/1.1/"
   xmlns:cc="http://creativecommons.org/ns#"
   xmlns:rdf="http://www.w3.org/1999/02/22-rdf-syntax-ns#"
   xmlns:svg="http://www.w3.org/2000/svg"
   xmlns="http://www.w3.org/2000/svg"
   id="svg13"
   height="107.94mm"
   width="95.75mm"
   version="1.0">
  <metadata
     id="metadata17">
    <rdf:RDF>
      <cc:Work
         rdf:about="">
        <dc:format>image/svg+xml</dc:format>
        <dc:type
           rdf:resource="http://purl.org/dc/dcmitype/StillImage" />
      </cc:Work>
    </rdf:RDF>
  </metadata>
  <defs
     id="defs3">
    <pattern
       y="0"
       x="0"
       height="6"
       width="6"
       patternUnits="userSpaceOnUse"
       id="EMFhbasepattern" />
  </defs>
  <path
     id="path5"
     d="  M 54.345381,353.56465   L 54.345381,171.34779   L 180.93815,54.345381   L 307.53092,171.34779   L 307.53092,353.56465   z "
     style="fill:#ff8080;fill-rule:evenodd;fill-opacity:1;stroke:none;" />
  <path
     id="path7"
     d="  M 54.345381,353.56465   L 54.345381,171.34779   L 180.93815,54.345381   L 307.53092,171.34779   L 307.53092,353.56465  "
     style="fill:none;stroke:#000000;stroke-width:9.5903616px;stroke-linecap:butt;stroke-linejoin:miter;stroke-miterlimit:10;stroke-dasharray:none;stroke-opacity:1;" />
  <path
     id="path9"
     d="  M 180.93815,238.48032   L 180.93815,238.48032   L 94.624898,190.52851   L 94.624898,286.43212   L 180.93815,238.48032   L 267.2514,190.52851   L 267.2514,286.43212   L 180.93815,238.48032   z "
     style="fill:#000000;fill-rule:evenodd;fill-opacity:1;stroke:none;" />
  <path
     id="path11"
     d="  M 164.0751,178.94016   L 164.0751,127.43193   L 186.89217,127.43193   C 191.48755,127.47189 194.96405,127.91144 197.36164,128.83052   C 199.75923,129.7496 201.67731,131.38795 203.0759,133.74558   C 204.51445,136.06325 205.23373,138.66064 205.23373,141.49779   C 205.23373,145.17409 204.03494,148.251 201.67731,150.72851   C 199.31968,153.24598 195.68333,154.84438 190.72831,155.52369   C 192.5265,156.36285 193.88514,157.24197 194.84417,158.08112   C 196.84217,159.91927 198.72028,162.19699 200.47851,164.91425   L 209.46947,178.94016   L 200.87811,178.94016   L 194.08494,168.23092   C 192.08695,165.15401 190.44859,162.75642 189.16988,161.11807   C 187.8512,159.47972 186.69237,158.36084 185.69337,157.68152   C 184.65442,157.04217 183.65542,156.56265 182.5765,156.32289   C 181.81727,156.16305 180.53855,156.08313 178.78032,156.08313   L 170.86827,156.08313   L 170.86827,178.94016   z  M 170.86827,150.16907   L 185.53353,150.16907   C 188.6504,150.16907 191.08795,149.8494 192.84618,149.21004   C 194.60441,148.57068 195.92309,147.53172 196.84217,146.13313   C 197.76124,144.69458 198.2008,143.1761 198.2008,141.49779   C 198.2008,139.06024 197.32168,137.06225 195.56345,135.50381   C 193.80522,133.94538 191.00803,133.14618 187.17188,133.14618   L 170.86827,133.14618   z "
     style="fill:#000000;fill-rule:evenodd;fill-opacity:1;stroke:none;" />
</svg>
