<?xml version="1.0" encoding="UTF-8" standalone="no"?>
<svg
   xmlns:dc="http://purl.org/dc/elements/1.1/"
   xmlns:cc="http://creativecommons.org/ns#"
   xmlns:rdf="http://www.w3.org/1999/02/22-rdf-syntax-ns#"
   xmlns:svg="http://www.w3.org/2000/svg"
   xmlns="http://www.w3.org/2000/svg"
   id="svg15"
   height="107.94mm"
   width="95.75mm"
   version="1.0">
  <metadata
     id="metadata19">
    <rdf:RDF>
      <cc:Work
         rdf:about="">
        <dc:format>image/svg+xml</dc:format>
        <dc:type
           rdf:resource="http://purl.org/dc/dcmitype/StillImage" />
      </cc:Work>
    </rdf:RDF>
  </metadata>
  <defs
     id="defs3">
    <pattern
       y="0"
       x="0"
       height="6"
       width="6"
       patternUnits="userSpaceOnUse"
       id="EMFhbasepattern" />
  </defs>
  <path
     id="path5"
     d="  M 54.345381,353.56465   L 54.345381,171.34779   L 180.93815,54.345381   L 307.53092,171.34779   L 307.53092,353.56465   z "
     style="fill:#ff8080;fill-rule:evenodd;fill-opacity:1;stroke:none;" />
  <path
     id="path7"
     d="  M 54.345381,353.56465   L 54.345381,171.34779   L 180.93815,54.345381   L 307.53092,171.34779   L 307.53092,353.56465  "
     style="fill:none;stroke:#000000;stroke-width:9.5903616px;stroke-linecap:butt;stroke-linejoin:miter;stroke-miterlimit:10;stroke-dasharray:none;stroke-opacity:1;" />
  <path
     id="path9"
     d="  M 180.93815,238.48032   L 180.93815,238.48032   L 94.624898,190.52851   L 94.624898,286.43212   L 180.93815,238.48032   L 267.2514,190.52851   L 267.2514,286.43212   L 180.93815,238.48032   z "
     style="fill:#000000;fill-rule:evenodd;fill-opacity:1;stroke:none;" />
  <path
     id="path11"
     d="  M 171.14799,335.22309   L 171.14799,290.58795   L 177.02209,290.58795   L 177.02209,329.94839   L 199,329.94839   L 199,335.22309   z "
     style="fill:#000000;fill-rule:evenodd;fill-opacity:1;stroke:none;" />
  <path
     id="path13"
     d="  M 200.71827,160.87831   L 207.51144,162.59658   C 206.07289,168.19096 203.51546,172.46666 199.79919,175.42369   C 196.08293,178.34076 191.56747,179.81927 186.21285,179.81927   C 180.65843,179.81927 176.14297,178.7004 172.66646,176.42269   C 169.18996,174.18494 166.55261,170.90823 164.71446,166.63253   C 162.91626,162.31687 161.99719,157.72148 161.99719,152.80642   C 161.99719,147.45181 163.03614,142.7765 165.07409,138.78052   C 167.11205,134.78454 170.02911,131.74759 173.8253,129.66968   C 177.62148,127.59177 181.77731,126.59277 186.29277,126.59277   C 191.44759,126.59277 195.80321,127.87148 199.31968,130.50883   C 202.79618,133.14618 205.27369,136.82249 206.63233,141.57771   L 199.91907,143.13614   C 198.72028,139.41988 197.00201,136.66265 194.72429,134.98434   C 192.44658,133.26606 189.60944,132.38695 186.17289,132.38695   C 182.21686,132.38695 178.9002,133.34598 176.26285,135.26405   C 173.58554,137.14217 171.70743,139.6996 170.62851,142.89638   C 169.5496,146.09317 169.03012,149.36988 169.03012,152.76646   C 169.03012,157.16205 169.66948,160.95823 170.94819,164.23494   C 172.22691,167.51164 174.18494,169.94919 176.90221,171.54759   C 179.57952,173.18594 182.49658,173.98514 185.65341,173.98514   C 189.4496,173.98514 192.68634,172.90622 195.32369,170.66847   C 197.96104,168.47068 199.75923,165.23393 200.71827,160.87831   z "
     style="fill:#000000;fill-rule:evenodd;fill-opacity:1;stroke:none;" />
</svg>
