<?xml version="1.0" encoding="UTF-8" standalone="no"?>
<svg
   xmlns:dc="http://purl.org/dc/elements/1.1/"
   xmlns:cc="http://creativecommons.org/ns#"
   xmlns:rdf="http://www.w3.org/1999/02/22-rdf-syntax-ns#"
   xmlns:svg="http://www.w3.org/2000/svg"
   xmlns="http://www.w3.org/2000/svg"
   id="svg13"
   height="112.9mm"
   width="112.9mm"
   version="1.0">
  <metadata
     id="metadata17">
    <rdf:RDF>
      <cc:Work
         rdf:about="">
        <dc:format>image/svg+xml</dc:format>
        <dc:type
           rdf:resource="http://purl.org/dc/dcmitype/StillImage" />
      </cc:Work>
    </rdf:RDF>
  </metadata>
  <defs
     id="defs3">
    <pattern
       y="0"
       x="0"
       height="6"
       width="6"
       patternUnits="userSpaceOnUse"
       id="EMFhbasepattern" />
  </defs>
  <path
     id="path5"
     d="  M 2559.0178,2558.3973   L 2932.0009,2558.3973  "
     style="fill:none;stroke:#ffff00;stroke-width:15.97366px;stroke-linecap:butt;stroke-linejoin:miter;stroke-miterlimit:282;stroke-dasharray:none;stroke-opacity:1;" />
  <path
     id="path7"
     d="  M 2559.0178,2478.4535   C 2569.6669,2435.8193 2622.9502,2435.8193 2633.5993,2478.4535   C 2644.2484,2521.0877 2697.5317,2521.0877 2708.2186,2478.4535   C 2718.8677,2435.8193 2772.151,2435.8193 2782.8001,2478.4535   C 2793.4492,2521.0877 2846.7703,2521.0877 2857.4194,2478.4535   C 2868.0685,2435.8193 2921.3518,2435.8193 2932.0009,2478.4535  "
     style="fill:none;stroke:#ffff00;stroke-width:10.649107px;stroke-linecap:butt;stroke-linejoin:miter;stroke-miterlimit:282;stroke-dasharray:none;stroke-opacity:1;" />
  <path
     id="path9"
     d="  M 2559.0178,2638.3034   C 2569.6669,2595.6692 2622.9502,2595.6692 2633.5993,2638.3034   C 2644.2484,2680.9376 2697.5317,2680.9376 2708.2186,2638.3034   C 2718.8677,2595.6692 2772.151,2595.6692 2782.8001,2638.3034   C 2793.4492,2680.9376 2846.7703,2680.9376 2857.4194,2638.3034   C 2868.0685,2595.6692 2921.3518,2595.6692 2932.0009,2638.3034  "
     style="fill:none;stroke:#ffff00;stroke-width:10.649107px;stroke-linecap:butt;stroke-linejoin:miter;stroke-miterlimit:282;stroke-dasharray:none;stroke-opacity:1;" />
  <path
     id="path11"
     d="  M 2720.9447,2755.5569   L 2720.9447,2686.8663   L 2746.8499,2686.8663   C 2751.3815,2686.8663 2754.8556,2687.0929 2757.2725,2687.5461   C 2760.6333,2688.1125 2763.4656,2689.1699 2765.7691,2690.7559   C 2768.0349,2692.3419 2769.8852,2694.5322 2771.2447,2697.3644   C 2772.6419,2700.2344 2773.3594,2703.3309 2773.3594,2706.7296   C 2773.3594,2712.5828 2771.4713,2717.5297 2767.7705,2721.5703   C 2764.0698,2725.611 2757.348,2727.6124 2747.6429,2727.6124   L 2730.0077,2727.6124   L 2730.0077,2755.5569   z  M 2730.0077,2719.5312   L 2747.7562,2719.5312   C 2753.6472,2719.5312 2757.8011,2718.436 2760.2935,2716.2458   C 2762.7481,2714.0555 2763.9942,2710.9968 2763.9942,2707.0317   C 2763.9942,2704.1617 2763.239,2701.7071 2761.804,2699.6302   C 2760.3312,2697.591 2758.4431,2696.2693 2756.0641,2695.5895   C 2754.5158,2695.1742 2751.7213,2694.9853 2747.5674,2694.9853   L 2730.0077,2694.9853   z "
     style="fill:#ffff00;fill-rule:nonzero;fill-opacity:1;stroke:#ffff00;stroke-width:1.0573581px;stroke-linecap:butt;stroke-linejoin:miter;stroke-miterlimit:282;stroke-dasharray:none;stroke-opacity:1;" />
</svg>
