<?xml version="1.0" encoding="UTF-8" standalone="no"?>
<svg
   xmlns:dc="http://purl.org/dc/elements/1.1/"
   xmlns:cc="http://creativecommons.org/ns#"
   xmlns:rdf="http://www.w3.org/1999/02/22-rdf-syntax-ns#"
   xmlns:svg="http://www.w3.org/2000/svg"
   xmlns="http://www.w3.org/2000/svg"
   id="svg15"
   height="91.870003mm"
   width="130.27mm"
   version="1.0">
  <metadata
     id="metadata19">
    <rdf:RDF>
      <cc:Work
         rdf:about="">
        <dc:format>image/svg+xml</dc:format>
        <dc:type
           rdf:resource="http://purl.org/dc/dcmitype/StillImage" />
      </cc:Work>
    </rdf:RDF>
  </metadata>
  <defs
     id="defs3">
    <pattern
       y="0"
       x="0"
       height="6"
       width="6"
       patternUnits="userSpaceOnUse"
       id="EMFhbasepattern" />
  </defs>
  <path
     id="path5"
     d="  M 78.321284,164.95421   L 413.98393,164.95421  "
     style="fill:none;stroke:#000000;stroke-width:14.385542px;stroke-linecap:butt;stroke-linejoin:miter;stroke-miterlimit:10;stroke-dasharray:none;stroke-opacity:1;" />
  <path
     id="path7"
     d="  M 78.321284,93.026505   C 87.911645,54.665059 135.86345,54.665059 145.45381,93.026505   C 155.04417,131.38795 202.99598,131.38795 212.58634,93.026505   C 222.1767,54.665059 270.12851,54.665059 279.71887,93.026505   C 289.30923,131.38795 337.26104,131.38795 346.8514,93.026505   C 356.44176,54.665059 404.39357,54.665059 413.98393,93.026505  "
     style="fill:none;stroke:#000000;stroke-width:9.5903616px;stroke-linecap:butt;stroke-linejoin:miter;stroke-miterlimit:10;stroke-dasharray:none;stroke-opacity:1;" />
  <path
     id="path9"
     d="  M 78.321284,236.88192   C 87.911645,198.52048 135.86345,198.52048 145.45381,236.88192   C 155.04417,275.24337 202.99598,275.24337 212.58634,236.88192   C 222.1767,198.52048 270.12851,198.52048 279.71887,236.88192   C 289.30923,275.24337 337.26104,275.24337 346.8514,236.88192   C 356.44176,198.52048 404.39357,198.52048 413.98393,236.88192  "
     style="fill:none;stroke:#000000;stroke-width:9.5903616px;stroke-linecap:butt;stroke-linejoin:miter;stroke-miterlimit:10;stroke-dasharray:none;stroke-opacity:1;" />
  <path
     id="path11"
     d="  M 224.29458,273.88473   L 243.91486,273.88473   C 264.89377,273.88473 275.40321,284.07449 275.40321,304.41405   C 275.40321,325.23313 264.89377,335.66265 243.91486,335.66265   L 224.29458,335.66265   z  M 232.48634,328.31004   L 243.75502,328.31004   C 252.70602,328.31004 258.81988,326.23212 262.05662,322.0763   C 265.33333,317.88052 266.97168,312.00642 266.97168,304.41405   C 266.97168,297.02148 265.33333,291.30722 262.09658,287.27128   C 258.85984,283.23534 252.74598,281.19739 243.75502,281.19739   L 232.48634,281.19739   z "
     style="fill:#000000;fill-rule:evenodd;fill-opacity:1;stroke:none;" />
  <path
     id="path13"
     d="  M 224.29458,273.88473   L 243.91486,273.88473   C 264.89377,273.88473 275.40321,284.07449 275.40321,304.41405   C 275.40321,325.23313 264.89377,335.66265 243.91486,335.66265   L 224.29458,335.66265   z  M 232.48634,328.31004   L 243.75502,328.31004   C 252.70602,328.31004 258.81988,326.23212 262.05662,322.0763   C 265.33333,317.88052 266.97168,312.00642 266.97168,304.41405   C 266.97168,297.02148 265.33333,291.30722 262.09658,287.27128   C 258.85984,283.23534 252.74598,281.19739 243.75502,281.19739   L 232.48634,281.19739   z "
     style="fill:none;stroke:#000000;stroke-width:0.95903611px;stroke-linecap:butt;stroke-linejoin:miter;stroke-miterlimit:10;stroke-dasharray:none;stroke-opacity:1;" />
</svg>
