<?xml version="1.0" encoding="UTF-8" standalone="no"?>
<svg
   xmlns:dc="http://purl.org/dc/elements/1.1/"
   xmlns:cc="http://creativecommons.org/ns#"
   xmlns:rdf="http://www.w3.org/1999/02/22-rdf-syntax-ns#"
   xmlns:svg="http://www.w3.org/2000/svg"
   xmlns="http://www.w3.org/2000/svg"
   id="svg13"
   height="112.9mm"
   width="112.9mm"
   version="1.0">
  <metadata
     id="metadata17">
    <rdf:RDF>
      <cc:Work
         rdf:about="">
        <dc:format>image/svg+xml</dc:format>
        <dc:type
           rdf:resource="http://purl.org/dc/dcmitype/StillImage" />
      </cc:Work>
    </rdf:RDF>
  </metadata>
  <defs
     id="defs3">
    <pattern
       y="0"
       x="0"
       height="6"
       width="6"
       patternUnits="userSpaceOnUse"
       id="EMFhbasepattern" />
  </defs>
  <path
     id="path5"
     d="  M 2559.0178,2558.3973   L 2932.0009,2558.3973  "
     style="fill:none;stroke:#00ff00;stroke-width:15.97366px;stroke-linecap:butt;stroke-linejoin:miter;stroke-miterlimit:282;stroke-dasharray:none;stroke-opacity:1;" />
  <path
     id="path7"
     d="  M 2559.0178,2478.4535   C 2569.6669,2435.8193 2622.9502,2435.8193 2633.5993,2478.4535   C 2644.2484,2521.0877 2697.5317,2521.0877 2708.2186,2478.4535   C 2718.8677,2435.8193 2772.151,2435.8193 2782.8001,2478.4535   C 2793.4492,2521.0877 2846.7703,2521.0877 2857.4194,2478.4535   C 2868.0685,2435.8193 2921.3518,2435.8193 2932.0009,2478.4535  "
     style="fill:none;stroke:#00ff00;stroke-width:10.649107px;stroke-linecap:butt;stroke-linejoin:miter;stroke-miterlimit:282;stroke-dasharray:none;stroke-opacity:1;" />
  <path
     id="path9"
     d="  M 2559.0178,2638.3034   C 2569.6669,2595.6692 2622.9502,2595.6692 2633.5993,2638.3034   C 2644.2484,2680.9376 2697.5317,2680.9376 2708.2186,2638.3034   C 2718.8677,2595.6692 2772.151,2595.6692 2782.8001,2638.3034   C 2793.4492,2680.9376 2846.7703,2680.9376 2857.4194,2638.3034   C 2868.0685,2595.6692 2921.3518,2595.6692 2932.0009,2638.3034  "
     style="fill:none;stroke:#00ff00;stroke-width:10.649107px;stroke-linecap:butt;stroke-linejoin:miter;stroke-miterlimit:282;stroke-dasharray:none;stroke-opacity:1;" />
  <path
     id="path11"
     d="  M 2720.9447,2755.5569   L 2720.9447,2686.8663   L 2744.5842,2686.8663   C 2749.9087,2686.8663 2753.9871,2687.2062 2756.8193,2687.8859   C 2760.7466,2688.7922 2764.1075,2690.416 2766.8642,2692.7951   C 2770.4894,2695.8539 2773.2084,2699.7434 2775.021,2704.5016   C 2776.7958,2709.2974 2777.7021,2714.7353 2777.7021,2720.8528   C 2777.7021,2726.0641 2777.0979,2730.6712 2775.8895,2734.7118   C 2774.6433,2738.7146 2773.0951,2742.0755 2771.2069,2744.7189   C 2769.281,2747.3246 2767.2041,2749.4015 2764.9383,2750.9498   C 2762.6725,2752.4603 2759.9536,2753.5932 2756.7438,2754.3862   C 2753.5339,2755.1415 2749.871,2755.5569 2745.717,2755.5569   z  M 2730.0077,2747.4379   L 2744.6975,2747.4379   C 2749.1912,2747.4379 2752.7409,2747.0225 2755.3466,2746.1917   C 2757.9144,2745.3231 2759.9536,2744.1525 2761.5019,2742.6042   C 2763.6544,2740.4517 2765.3159,2737.5818 2766.5243,2733.9188   C 2767.7328,2730.2935 2768.337,2725.8753 2768.337,2720.7018   C 2768.337,2713.5269 2767.1663,2708.0135 2764.7873,2704.1617   C 2762.446,2700.2721 2759.576,2697.7043 2756.2151,2696.3826   C 2753.7605,2695.4385 2749.8332,2694.9853 2744.4331,2694.9853   L 2730.0077,2694.9853   z "
     style="fill:#00ff00;fill-rule:nonzero;fill-opacity:1;stroke:#00ff00;stroke-width:1.0573581px;stroke-linecap:butt;stroke-linejoin:miter;stroke-miterlimit:282;stroke-dasharray:none;stroke-opacity:1;" />
</svg>
