<?xml version="1.0" encoding="UTF-8" standalone="no"?>
<svg
   xmlns:dc="http://purl.org/dc/elements/1.1/"
   xmlns:cc="http://creativecommons.org/ns#"
   xmlns:rdf="http://www.w3.org/1999/02/22-rdf-syntax-ns#"
   xmlns:svg="http://www.w3.org/2000/svg"
   xmlns="http://www.w3.org/2000/svg"
   id="svg15"
   height="91.870003mm"
   width="130.27mm"
   version="1.0">
  <metadata
     id="metadata19">
    <rdf:RDF>
      <cc:Work
         rdf:about="">
        <dc:format>image/svg+xml</dc:format>
        <dc:type
           rdf:resource="http://purl.org/dc/dcmitype/StillImage" />
      </cc:Work>
    </rdf:RDF>
  </metadata>
  <defs
     id="defs3">
    <pattern
       y="0"
       x="0"
       height="6"
       width="6"
       patternUnits="userSpaceOnUse"
       id="EMFhbasepattern" />
  </defs>
  <path
     id="path5"
     d="  M 78.321284,164.95421   L 413.98393,164.95421  "
     style="fill:none;stroke:#000000;stroke-width:14.385542px;stroke-linecap:butt;stroke-linejoin:miter;stroke-miterlimit:10;stroke-dasharray:none;stroke-opacity:1;" />
  <path
     id="path7"
     d="  M 78.321284,93.026505   C 87.911645,54.665059 135.86345,54.665059 145.45381,93.026505   C 155.04417,131.38795 202.99598,131.38795 212.58634,93.026505   C 222.1767,54.665059 270.12851,54.665059 279.71887,93.026505   C 289.30923,131.38795 337.26104,131.38795 346.8514,93.026505   C 356.44176,54.665059 404.39357,54.665059 413.98393,93.026505  "
     style="fill:none;stroke:#000000;stroke-width:9.5903616px;stroke-linecap:butt;stroke-linejoin:miter;stroke-miterlimit:10;stroke-dasharray:none;stroke-opacity:1;" />
  <path
     id="path9"
     d="  M 78.321284,236.88192   C 87.911645,198.52048 135.86345,198.52048 145.45381,236.88192   C 155.04417,275.24337 202.99598,275.24337 212.58634,236.88192   C 222.1767,198.52048 270.12851,198.52048 279.71887,236.88192   C 289.30923,275.24337 337.26104,275.24337 346.8514,236.88192   C 356.44176,198.52048 404.39357,198.52048 413.98393,236.88192  "
     style="fill:none;stroke:#000000;stroke-width:9.5903616px;stroke-linecap:butt;stroke-linejoin:miter;stroke-miterlimit:10;stroke-dasharray:none;stroke-opacity:1;" />
  <path
     id="path11"
     d="  M 275.80281,335.66265   L 266.97168,335.66265   L 261.13755,319.15923   C 260.09859,316.24216 258.38032,313.88453 255.98273,312.00642   C 253.54518,310.16827 250.74799,309.20923 247.63112,309.20923   L 232.48634,309.20923   L 232.48634,335.66265   L 224.29458,335.66265   L 224.29458,273.88473   L 251.66706,273.88473   C 256.46225,273.88473 260.33835,274.32429 263.3753,275.24337   C 266.41225,276.20241 268.88976,278.16044 270.80783,281.11747   C 272.7259,284.11445 273.64498,287.47108 273.64498,291.18735   C 273.64498,295.46305 272.44618,299.01947 269.96867,301.89658   C 267.49116,304.77369 264.09457,306.61184 259.77891,307.49096   L 259.77891,307.6508   C 264.09457,309.04939 267.37128,312.76566 269.60903,318.83955   z  M 232.48634,301.89658   L 250.74799,301.89658   C 255.82289,301.89658 259.49919,301.09739 261.81686,299.49899   C 264.09457,297.9006 265.25341,295.14337 265.25341,291.18735   C 265.25341,284.15441 260.81787,280.63795 251.98674,280.63795   L 232.48634,280.63795   z "
     style="fill:#000000;fill-rule:evenodd;fill-opacity:1;stroke:none;" />
  <path
     id="path13"
     d="  M 275.80281,335.66265   L 266.97168,335.66265   L 261.13755,319.15923   C 260.09859,316.24216 258.38032,313.88453 255.98273,312.00642   C 253.54518,310.16827 250.74799,309.20923 247.63112,309.20923   L 232.48634,309.20923   L 232.48634,335.66265   L 224.29458,335.66265   L 224.29458,273.88473   L 251.66706,273.88473   C 256.46225,273.88473 260.33835,274.32429 263.3753,275.24337   C 266.41225,276.20241 268.88976,278.16044 270.80783,281.11747   C 272.7259,284.11445 273.64498,287.47108 273.64498,291.18735   C 273.64498,295.46305 272.44618,299.01947 269.96867,301.89658   C 267.49116,304.77369 264.09457,306.61184 259.77891,307.49096   L 259.77891,307.6508   C 264.09457,309.04939 267.37128,312.76566 269.60903,318.83955   z  M 232.48634,301.89658   L 250.74799,301.89658   C 255.82289,301.89658 259.49919,301.09739 261.81686,299.49899   C 264.09457,297.9006 265.25341,295.14337 265.25341,291.18735   C 265.25341,284.15441 260.81787,280.63795 251.98674,280.63795   L 232.48634,280.63795   z "
     style="fill:none;stroke:#000000;stroke-width:0.95903611px;stroke-linecap:butt;stroke-linejoin:miter;stroke-miterlimit:10;stroke-dasharray:none;stroke-opacity:1;" />
</svg>
