<?xml version="1.0" encoding="UTF-8" standalone="no"?>
<svg
   xmlns:dc="http://purl.org/dc/elements/1.1/"
   xmlns:cc="http://creativecommons.org/ns#"
   xmlns:rdf="http://www.w3.org/1999/02/22-rdf-syntax-ns#"
   xmlns:svg="http://www.w3.org/2000/svg"
   xmlns="http://www.w3.org/2000/svg"
   id="svg11"
   height="87.300003mm"
   width="130.27mm"
   version="1.0">
  <metadata
     id="metadata15">
    <rdf:RDF>
      <cc:Work
         rdf:about="">
        <dc:format>image/svg+xml</dc:format>
        <dc:type
           rdf:resource="http://purl.org/dc/dcmitype/StillImage" />
      </cc:Work>
    </rdf:RDF>
  </metadata>
  <defs
     id="defs3">
    <pattern
       y="0"
       x="0"
       height="6"
       width="6"
       patternUnits="userSpaceOnUse"
       id="EMFhbasepattern" />
  </defs>
  <path
     id="path5"
     d="  M 78.321284,164.95421   L 413.98393,164.95421  "
     style="fill:none;stroke:#000000;stroke-width:14.385542px;stroke-linecap:butt;stroke-linejoin:miter;stroke-miterlimit:10;stroke-dasharray:none;stroke-opacity:1;" />
  <path
     id="path7"
     d="  M 78.321284,93.026505   C 87.911645,54.665059 135.86345,54.665059 145.45381,93.026505   C 155.04417,131.38795 202.99598,131.38795 212.58634,93.026505   C 222.1767,54.665059 270.12851,54.665059 279.71887,93.026505   C 289.30923,131.38795 337.26104,131.38795 346.8514,93.026505   C 356.44176,54.665059 404.39357,54.665059 413.98393,93.026505  "
     style="fill:none;stroke:#000000;stroke-width:9.5903616px;stroke-linecap:butt;stroke-linejoin:miter;stroke-miterlimit:10;stroke-dasharray:none;stroke-opacity:1;" />
  <path
     id="path9"
     d="  M 78.321284,236.88192   C 87.911645,198.52048 135.86345,198.52048 145.45381,236.88192   C 155.04417,275.24337 202.99598,275.24337 212.58634,236.88192   C 222.1767,198.52048 270.12851,198.52048 279.71887,236.88192   C 289.30923,275.24337 337.26104,275.24337 346.8514,236.88192   C 356.44176,198.52048 404.39357,198.52048 413.98393,236.88192  "
     style="fill:none;stroke:#000000;stroke-width:9.5903616px;stroke-linecap:butt;stroke-linejoin:miter;stroke-miterlimit:10;stroke-dasharray:none;stroke-opacity:1;" />
</svg>
