<?xml version="1.0" encoding="UTF-8" standalone="no"?>
<svg
   xmlns:dc="http://purl.org/dc/elements/1.1/"
   xmlns:cc="http://creativecommons.org/ns#"
   xmlns:rdf="http://www.w3.org/1999/02/22-rdf-syntax-ns#"
   xmlns:svg="http://www.w3.org/2000/svg"
   xmlns="http://www.w3.org/2000/svg"
   id="svg9"
   height="41.279999mm"
   width="28.43mm"
   version="1.0">
  <metadata
     id="metadata13">
    <rdf:RDF>
      <cc:Work
         rdf:about="">
        <dc:format>image/svg+xml</dc:format>
        <dc:type
           rdf:resource="http://purl.org/dc/dcmitype/StillImage" />
      </cc:Work>
    </rdf:RDF>
  </metadata>
  <defs
     id="defs3">
    <pattern
       y="0"
       x="0"
       height="6"
       width="6"
       patternUnits="userSpaceOnUse"
       id="EMFhbasepattern" />
  </defs>
  <path
     id="path5"
     d="  M 87.631926,11.628313   L 87.631926,55.544176   L 84.19538,55.544176   C 83.036545,47.11265 81.038553,40.439357 78.121485,35.404417   C 75.244376,30.449397 71.088553,26.453413 65.733935,23.536345   C 60.339357,20.579317 54.784939,19.140763 49.070682,19.140763   C 42.557228,19.140763 37.20261,21.098795 32.926907,25.094779   C 28.691164,29.050803 26.573293,33.566265 26.573293,38.601204   C 26.573293,42.477309 27.931927,45.993774 30.609237,49.190562   C 34.485341,53.865863 43.676104,60.139557 58.221485,67.931726   C 70.089557,74.28534 78.201404,79.160441 82.557027,82.596987   C 86.87269,85.993573 90.229316,89.989557 92.546987,94.624898   C 94.904617,99.22028 96.063452,104.05542 96.063452,109.13032   C 96.063452,118.76064 92.347187,127.03233 84.874698,133.98534   C 77.402208,140.97831 67.811846,144.41486 56.063654,144.41486   C 52.387349,144.41486 48.950803,144.13514 45.674096,143.5757   C 43.756023,143.29598 39.72008,142.13715 33.646184,140.17911   C 27.572289,138.22108 23.696184,137.22209 22.097791,137.22209   C 20.539357,137.22209 19.300602,137.7016 18.381526,138.62068   C 17.46245,139.57972 16.823092,141.49779 16.383534,144.41486   L 12.907028,144.41486   L 12.907028,100.89859   L 16.383534,100.89859   C 17.981927,110.00944 20.179719,116.84257 22.936947,121.35803   C 25.694176,125.87349 29.889959,129.62972 35.524297,132.6267   C 41.158634,135.62369 47.352409,137.14217 54.105622,137.14217   C 61.93775,137.14217 68.091565,135.06426 72.607027,130.94839   C 77.122489,126.83253 79.4002,121.95743 79.4002,116.32309   C 79.4002,113.20622 78.561043,110.0494 76.84277,106.89257   C 75.124497,103.69578 72.447188,100.73875 68.810842,97.981525   C 66.373292,96.103412 59.739959,92.147388 48.870883,86.033533   C 38.001807,79.959637 30.289558,75.124497 25.694176,71.488152   C 21.098795,67.851806 17.622289,63.855822 15.264658,59.5002   C 12.867068,55.144578 11.668273,50.309437 11.668273,45.074698   C 11.668273,35.963855 15.184739,28.091767 22.177711,21.498393   C 29.170682,14.94498 38.081726,11.628313 48.870883,11.628313   C 55.624096,11.628313 62.776907,13.306626 70.329316,16.583333   C 73.805822,18.181727 76.283332,18.940964 77.721886,18.940964   C 79.36024,18.940964 80.678914,18.461446 81.67791,17.502409   C 82.716866,16.503413 83.556023,14.585341 84.19538,11.628313   z "
     style="fill:#000000;fill-rule:evenodd;fill-opacity:1;stroke:none;" />
  <path
     id="path7"
     d="  M 87.631926,11.628313   L 87.631926,55.544176   L 84.19538,55.544176   C 83.036545,47.11265 81.038553,40.439357 78.121485,35.404417   C 75.244376,30.449397 71.088553,26.453413 65.733935,23.536345   C 60.339357,20.579317 54.784939,19.140763 49.070682,19.140763   C 42.557228,19.140763 37.20261,21.098795 32.926907,25.094779   C 28.691164,29.050803 26.573293,33.566265 26.573293,38.601204   C 26.573293,42.477309 27.931927,45.993774 30.609237,49.190562   C 34.485341,53.865863 43.676104,60.139557 58.221485,67.931726   C 70.089557,74.28534 78.201404,79.160441 82.557027,82.596987   C 86.87269,85.993573 90.229316,89.989557 92.546987,94.624898   C 94.904617,99.22028 96.063452,104.05542 96.063452,109.13032   C 96.063452,118.76064 92.347187,127.03233 84.874698,133.98534   C 77.402208,140.97831 67.811846,144.41486 56.063654,144.41486   C 52.387349,144.41486 48.950803,144.13514 45.674096,143.5757   C 43.756023,143.29598 39.72008,142.13715 33.646184,140.17911   C 27.572289,138.22108 23.696184,137.22209 22.097791,137.22209   C 20.539357,137.22209 19.300602,137.7016 18.381526,138.62068   C 17.46245,139.57972 16.823092,141.49779 16.383534,144.41486   L 12.907028,144.41486   L 12.907028,100.89859   L 16.383534,100.89859   C 17.981927,110.00944 20.179719,116.84257 22.936947,121.35803   C 25.694176,125.87349 29.889959,129.62972 35.524297,132.6267   C 41.158634,135.62369 47.352409,137.14217 54.105622,137.14217   C 61.93775,137.14217 68.091565,135.06426 72.607027,130.94839   C 77.122489,126.83253 79.4002,121.95743 79.4002,116.32309   C 79.4002,113.20622 78.561043,110.0494 76.84277,106.89257   C 75.124497,103.69578 72.447188,100.73875 68.810842,97.981525   C 66.373292,96.103412 59.739959,92.147388 48.870883,86.033533   C 38.001807,79.959637 30.289558,75.124497 25.694176,71.488152   C 21.098795,67.851806 17.622289,63.855822 15.264658,59.5002   C 12.867068,55.144578 11.668273,50.309437 11.668273,45.074698   C 11.668273,35.963855 15.184739,28.091767 22.177711,21.498393   C 29.170682,14.94498 38.081726,11.628313 48.870883,11.628313   C 55.624096,11.628313 62.776907,13.306626 70.329316,16.583333   C 73.805822,18.181727 76.283332,18.940964 77.721886,18.940964   C 79.36024,18.940964 80.678914,18.461446 81.67791,17.502409   C 82.716866,16.503413 83.556023,14.585341 84.19538,11.628313   z "
     style="fill:none;stroke:#000000;stroke-width:0.95903611px;stroke-linecap:butt;stroke-linejoin:miter;stroke-miterlimit:10;stroke-dasharray:none;stroke-opacity:1;" />
</svg>
