<?xml version="1.0" encoding="UTF-8" standalone="no"?>
<svg
   xmlns:dc="http://purl.org/dc/elements/1.1/"
   xmlns:cc="http://creativecommons.org/ns#"
   xmlns:rdf="http://www.w3.org/1999/02/22-rdf-syntax-ns#"
   xmlns:svg="http://www.w3.org/2000/svg"
   xmlns="http://www.w3.org/2000/svg"
   id="svg13"
   height="95.75mm"
   width="95.75mm"
   version="1.0">
  <metadata
     id="metadata17">
    <rdf:RDF>
      <cc:Work
         rdf:about="">
        <dc:format>image/svg+xml</dc:format>
        <dc:type
           rdf:resource="http://purl.org/dc/dcmitype/StillImage" />
      </cc:Work>
    </rdf:RDF>
  </metadata>
  <defs
     id="defs3">
    <pattern
       y="0"
       x="0"
       height="6"
       width="6"
       patternUnits="userSpaceOnUse"
       id="EMFhbasepattern" />
  </defs>
  <path
     id="path5"
     d="  M 54.345381,54.345381   L 54.345381,307.53092   L 307.53092,307.53092   L 307.53092,54.345381   L 54.345381,54.345381   z "
     style="fill:#aaffaa;fill-rule:evenodd;fill-opacity:1;stroke:none;" />
  <path
     id="path7"
     d="  M 54.345381,54.345381   L 307.53092,54.345381   L 307.53092,307.53092   L 54.345381,307.53092   z "
     style="fill:none;stroke:#000000;stroke-width:9.5903616px;stroke-linecap:butt;stroke-linejoin:miter;stroke-miterlimit:10;stroke-dasharray:none;stroke-opacity:1;" />
  <path
     id="path9"
     d="  M 136.46285,148.251   C 136.46285,142.09719 143.81546,132.10723 143.81546,128.11124   C 143.81546,124.43494 142.13715,120.23915 139.8994,118.76064   C 139.18012,120.23915 139.14016,125.87349 138.02128,128.67068   C 137.42189,130.10924 134.4249,134.06526 133.30602,135.78353   C 130.18915,140.45883 126.47289,144.21506 123.0763,148.6506   C 118.76064,154.36486 123.03634,158.68052 125.35401,165.27389   C 126.91245,169.82931 128.11124,181.17791 129.5498,184.1749   C 116.00341,183.85522 113.28614,162.51666 107.45201,158.6006   L 106.25321,173.8253   L 106.45301,174.34478   C 106.45301,184.49458 113.64578,199.11988 118.36104,204.71425   C 120.63875,207.3516 127.03233,211.98694 130.26907,213.98494   C 132.50683,215.38353 135.34397,216.02289 137.78152,217.26164   C 138.54076,217.66124 144.29498,221.05783 144.33494,221.05783   C 148.61064,221.05783 164.31486,206.19277 167.5516,202.99598   C 171.26787,199.31968 179.25984,180.89819 179.25984,173.8253   L 179.25984,161.03815   C 179.25984,156.84237 178.46064,155.68353 177.78132,152.68654   L 176.30281,152.68654   C 175.98313,156.56265 171.90723,167.07209 170.22891,170.22891   C 168.87028,172.86626 157.6016,181.81727 157.6016,177.78132   L 157.6016,175.30381   C 157.6016,167.63152 162.51666,160.83835 162.51666,155.16405   L 162.51666,153.68554   C 162.51666,150.60863 153.80542,139.81948 151.68755,138.42088   C 151.68755,143.53574 151.92731,148.09116 150.08915,151.56767   C 149.13012,153.3259 145.05421,158.6006 142.85642,158.6006   C 140.69859,158.6006 136.46285,151.60763 136.46285,148.251   z "
     style="fill:#000000;fill-rule:evenodd;fill-opacity:1;stroke:none;" />
  <path
     id="path11"
     d="  M 235.92289,124.39498   C 227.77108,122.27711 201.55743,109.88956 195.96305,109.88956   L 191.04799,109.88956   L 191.04799,170.86827   L 189.56948,170.86827   C 189.56948,182.1769 182.01707,201.79719 177.06205,208.5504   C 173.10602,214.0249 169.5496,216.86205 164.39478,220.97791   C 162.71646,222.29658 150.20903,230.96787 150.20903,231.88694   L 150.20903,248.11064   L 239.23955,248.11064   L 239.23955,170.86827   L 197.92108,170.86827   L 198.001,141.01827   z "
     style="fill:#000000;fill-rule:evenodd;fill-opacity:1;stroke:none;" />
</svg>
