<?xml version="1.0" encoding="UTF-8" standalone="no"?>
<svg
   xmlns:dc="http://purl.org/dc/elements/1.1/"
   xmlns:cc="http://creativecommons.org/ns#"
   xmlns:rdf="http://www.w3.org/1999/02/22-rdf-syntax-ns#"
   xmlns:svg="http://www.w3.org/2000/svg"
   xmlns="http://www.w3.org/2000/svg"
   id="svg13"
   height="116.73mm"
   width="116.73mm"
   version="1.0">
  <metadata
     id="metadata17">
    <rdf:RDF>
      <cc:Work
         rdf:about="">
        <dc:format>image/svg+xml</dc:format>
        <dc:type
           rdf:resource="http://purl.org/dc/dcmitype/StillImage" />
      </cc:Work>
    </rdf:RDF>
  </metadata>
  <defs
     id="defs3">
    <pattern
       y="0"
       x="0"
       height="6"
       width="6"
       patternUnits="userSpaceOnUse"
       id="EMFhbasepattern" />
  </defs>
  <path
     id="path5"
     d="  M 220.57831,386.49156   L 220.57831,386.49156   L 386.49156,220.57831   L 220.57831,54.665059   L 54.665059,220.57831   L 220.57831,386.49156   z "
     style="fill:#ff8080;fill-rule:evenodd;fill-opacity:1;stroke:none;" />
  <path
     id="path7"
     d="  M 220.57831,386.49156   L 220.57831,386.49156   L 386.49156,220.57831   L 220.57831,54.665059   L 54.665059,220.57831   L 220.57831,386.49156  "
     style="fill:none;stroke:#000000;stroke-width:9.5903616px;stroke-linecap:butt;stroke-linejoin:miter;stroke-miterlimit:10;stroke-dasharray:none;stroke-opacity:1;" />
  <path
     id="path9"
     d="  M 220.57831,220.57831   L 220.57831,220.57831   L 134.26506,172.6265   L 134.26506,268.53012   L 220.57831,220.57831   L 306.89156,172.6265   L 306.89156,268.53012   L 220.57831,220.57831   z "
     style="fill:#000000;fill-rule:evenodd;fill-opacity:1;stroke:none;" />
  <path
     id="path11"
     d="  M 203.71526,161.03815   L 203.71526,109.52992   L 226.53233,109.52992   C 231.12771,109.56988 234.60421,110.00944 237.0018,110.92851   C 239.39939,111.84759 241.31747,113.48594 242.71606,115.84357   C 244.15461,118.16124 244.87389,120.75863 244.87389,123.59578   C 244.87389,127.27209 243.6751,130.34899 241.31747,132.8265   C 238.95984,135.34397 235.32349,136.94237 230.36847,137.62168   C 232.16666,138.46084 233.5253,139.33996 234.48433,140.17911   C 236.48233,142.01727 238.36044,144.29498 240.11867,147.01225   L 249.10963,161.03815   L 240.51827,161.03815   L 233.7251,150.32891   C 231.72711,147.25201 230.08875,144.85442 228.81004,143.21606   C 227.49136,141.57771 226.33253,140.45883 225.33353,139.77952   C 224.29458,139.14016 223.29558,138.66064 222.21666,138.42088   C 221.45743,138.26104 220.17871,138.18112 218.42048,138.18112   L 210.50843,138.18112   L 210.50843,161.03815   z  M 210.50843,132.26707   L 225.17369,132.26707   C 228.29056,132.26707 230.72811,131.94739 232.48634,131.30803   C 234.24457,130.66867 235.56325,129.62972 236.48233,128.23112   C 237.4014,126.79257 237.84096,125.27409 237.84096,123.59578   C 237.84096,121.15823 236.96184,119.16024 235.20361,117.60181   C 233.44538,116.04337 230.64819,115.24418 226.81204,115.24418   L 210.50843,115.24418   z "
     style="fill:#000000;fill-rule:evenodd;fill-opacity:1;stroke:none;" />
</svg>
