<?xml version="1.0" encoding="UTF-8" standalone="no"?>
<svg
   xmlns:dc="http://purl.org/dc/elements/1.1/"
   xmlns:cc="http://creativecommons.org/ns#"
   xmlns:rdf="http://www.w3.org/1999/02/22-rdf-syntax-ns#"
   xmlns:svg="http://www.w3.org/2000/svg"
   xmlns="http://www.w3.org/2000/svg"
   id="svg13"
   height="89.669998mm"
   width="120.11mm"
   version="1.0">
  <metadata
     id="metadata17">
    <rdf:RDF>
      <cc:Work
         rdf:about="">
        <dc:format>image/svg+xml</dc:format>
        <dc:type
           rdf:resource="http://purl.org/dc/dcmitype/StillImage" />
      </cc:Work>
    </rdf:RDF>
  </metadata>
  <defs
     id="defs3">
    <pattern
       y="0"
       x="0"
       height="6"
       width="6"
       patternUnits="userSpaceOnUse"
       id="EMFhbasepattern" />
  </defs>
  <path
     id="path5"
     d="  M 54.345381,54.345381   L 54.345381,284.51405   L 399.59839,284.51405   L 399.59839,54.345381   L 54.345381,54.345381   z "
     style="fill:#80e0ff;fill-rule:evenodd;fill-opacity:1;stroke:none;" />
  <path
     id="path7"
     d="  M 54.345381,54.345381   L 399.59839,54.345381   L 399.59839,284.51405   L 54.345381,284.51405   z "
     style="fill:none;stroke:#000000;stroke-width:9.5903616px;stroke-linecap:butt;stroke-linejoin:miter;stroke-miterlimit:10;stroke-dasharray:none;stroke-opacity:1;" />
  <path
     id="path9"
     d="  M 226.97188,169.42972   L 226.97188,169.42972   L 140.65863,121.47791   L 140.65863,217.38152   L 226.97188,169.42972   L 313.28514,121.47791   L 313.28514,217.38152   L 226.97188,169.42972   z "
     style="fill:#000000;fill-rule:evenodd;fill-opacity:1;stroke:none;" />
  <path
     id="path11"
     d="  M 210.10883,109.88956   L 210.10883,58.381324   L 232.9259,58.381324   C 237.52128,58.421284 240.99779,58.860843 243.39538,59.779919   C 245.79297,60.698995 247.71104,62.337348 249.10963,64.694979   C 250.54819,67.01265 251.26747,69.610039 251.26747,72.447188   C 251.26747,76.123493 250.06867,79.2004 247.71104,81.67791   C 245.35341,84.19538 241.71706,85.793774 236.76204,86.473091   C 238.56024,87.312248 239.91887,88.191364 240.87791,89.030521   C 242.8759,90.868673 244.75401,93.146384 246.51225,95.863653   L 255.50321,109.88956   L 246.91184,109.88956   L 240.11867,99.18032   C 238.12068,96.103412 236.48233,93.705822 235.20361,92.067469   C 233.88494,90.429115 232.7261,89.31024 231.72711,88.630922   C 230.68815,87.991565 229.68915,87.512047 228.61024,87.272288   C 227.851,87.112449 226.57229,87.032529 224.81405,87.032529   L 216.902,87.032529   L 216.902,109.88956   z  M 216.902,81.118473   L 231.56727,81.118473   C 234.68413,81.118473 237.12168,80.798794 238.87992,80.159437   C 240.63815,79.520079 241.95682,78.481123 242.8759,77.082529   C 243.79498,75.643975 244.23453,74.125501 244.23453,72.447188   C 244.23453,70.009638 243.35542,68.011646 241.59719,66.453212   C 239.83895,64.894778 237.04176,64.095581 233.20562,64.095581   L 216.902,64.095581   z "
     style="fill:#000000;fill-rule:evenodd;fill-opacity:1;stroke:none;" />
</svg>
