<?xml version="1.0" encoding="UTF-8" standalone="no"?>
<svg
   xmlns:dc="http://purl.org/dc/elements/1.1/"
   xmlns:cc="http://creativecommons.org/ns#"
   xmlns:rdf="http://www.w3.org/1999/02/22-rdf-syntax-ns#"
   xmlns:svg="http://www.w3.org/2000/svg"
   xmlns="http://www.w3.org/2000/svg"
   id="svg13"
   height="95.75mm"
   width="95.75mm"
   version="1.0">
  <metadata
     id="metadata17">
    <rdf:RDF>
      <cc:Work
         rdf:about="">
        <dc:format>image/svg+xml</dc:format>
        <dc:type
           rdf:resource="http://purl.org/dc/dcmitype/StillImage" />
      </cc:Work>
    </rdf:RDF>
  </metadata>
  <defs
     id="defs3">
    <pattern
       y="0"
       x="0"
       height="6"
       width="6"
       patternUnits="userSpaceOnUse"
       id="EMFhbasepattern" />
  </defs>
  <path
     id="path5"
     d="  M 54.345381,54.345381   L 54.345381,307.53092   L 307.53092,307.53092   L 307.53092,54.345381   L 54.345381,54.345381   z "
     style="fill:#aaffaa;fill-rule:evenodd;fill-opacity:1;stroke:none;" />
  <path
     id="path7"
     d="  M 54.345381,54.345381   L 307.53092,54.345381   L 307.53092,307.53092   L 54.345381,307.53092   z "
     style="fill:none;stroke:#000000;stroke-width:9.5903616px;stroke-linecap:butt;stroke-linejoin:miter;stroke-miterlimit:10;stroke-dasharray:none;stroke-opacity:1;" />
  <path
     id="path9"
     d="  M 180.93815,180.93815   L 180.93815,180.93815   L 94.624898,132.98634   L 94.624898,228.88996   L 180.93815,180.93815   L 267.2514,132.98634   L 267.2514,228.88996   L 180.93815,180.93815   z "
     style="fill:#000000;fill-rule:evenodd;fill-opacity:1;stroke:none;" />
  <path
     id="path11"
     d="  M 164.0751,121.39799   L 164.0751,69.889758   L 186.89217,69.889758   C 191.48755,69.929718 194.96405,70.369276 197.36164,71.288352   C 199.75923,72.207429 201.67731,73.845782 203.0759,76.203413   C 204.51445,78.521083 205.23373,81.118473 205.23373,83.955621   C 205.23373,87.631926 204.03494,90.708834 201.67731,93.186344   C 199.31968,95.703814 195.68333,97.302207 190.72831,97.981525   C 192.5265,98.820681 193.88514,99.699798 194.84417,100.53895   C 196.84217,102.37711 198.72028,104.65482 200.47851,107.37209   L 209.46947,121.39799   L 200.87811,121.39799   L 194.08494,110.68875   C 192.08695,107.61185 190.44859,105.21426 189.16988,103.5759   C 187.8512,101.93755 186.69237,100.81867 185.69337,100.13936   C 184.65442,99.499999 183.65542,99.02048 182.5765,98.780721   C 181.81727,98.620882 180.53855,98.540962 178.78032,98.540962   L 170.86827,98.540962   L 170.86827,121.39799   z  M 170.86827,92.626906   L 185.53353,92.626906   C 188.6504,92.626906 191.08795,92.307228 192.84618,91.66787   C 194.60441,91.028513 195.92309,89.989557 196.84217,88.590963   C 197.76124,87.152408 198.2008,85.633935 198.2008,83.955621   C 198.2008,81.518071 197.32168,79.520079 195.56345,77.961645   C 193.80522,76.403212 191.00803,75.604015 187.17188,75.604015   L 170.86827,75.604015   z "
     style="fill:#000000;fill-rule:evenodd;fill-opacity:1;stroke:none;" />
</svg>
