<?xml version="1.0" encoding="UTF-8" standalone="no"?>
<svg
   xmlns:dc="http://purl.org/dc/elements/1.1/"
   xmlns:cc="http://creativecommons.org/ns#"
   xmlns:rdf="http://www.w3.org/1999/02/22-rdf-syntax-ns#"
   xmlns:svg="http://www.w3.org/2000/svg"
   xmlns="http://www.w3.org/2000/svg"
   id="svg13"
   height="130.27mm"
   width="130.27mm"
   version="1.0">
  <metadata
     id="metadata17">
    <rdf:RDF>
      <cc:Work
         rdf:about="">
        <dc:format>image/svg+xml</dc:format>
        <dc:type
           rdf:resource="http://purl.org/dc/dcmitype/StillImage" />
      </cc:Work>
    </rdf:RDF>
  </metadata>
  <defs
     id="defs3">
    <pattern
       y="0"
       x="0"
       height="6"
       width="6"
       patternUnits="userSpaceOnUse"
       id="EMFhbasepattern" />
  </defs>
  <path
     id="path5"
     d="  M 164.63454,327.67068   C 164.63454,437.95983 327.67068,437.95983 327.67068,327.67068   C 437.95983,327.67068 437.95983,164.63454 327.67068,164.63454   C 327.67068,54.345381 164.63454,54.345381 164.63454,164.63454   C 54.345381,164.63454 54.345381,327.67068 164.63454,327.67068   z "
     style="fill:#ffff80;fill-rule:evenodd;fill-opacity:1;stroke:none;" />
  <path
     id="path7"
     d="  M 164.63454,327.67068   C 164.63454,437.95983 327.67068,437.95983 327.67068,327.67068   C 437.95983,327.67068 437.95983,164.63454 327.67068,164.63454   C 327.67068,54.345381 164.63454,54.345381 164.63454,164.63454   C 54.345381,164.63454 54.345381,327.67068 164.63454,327.67068  "
     style="fill:none;stroke:#000000;stroke-width:9.5903616px;stroke-linecap:butt;stroke-linejoin:miter;stroke-miterlimit:10;stroke-dasharray:none;stroke-opacity:1;" />
  <path
     id="path9"
     d="  M 246.15261,246.15261   L 246.15261,246.15261   L 159.83936,198.2008   L 159.83936,294.10441   L 246.15261,246.15261   L 332.46586,198.2008   L 332.46586,294.10441   L 246.15261,246.15261   z "
     style="fill:#000000;fill-rule:evenodd;fill-opacity:1;stroke:none;" />
  <path
     id="path11"
     d="  M 229.28955,186.61245   L 229.28955,135.10421   L 252.10662,135.10421   C 256.702,135.14417 260.17851,135.58373 262.5761,136.50281   C 264.97369,137.42189 266.89176,139.06024 268.29036,141.41787   C 269.72891,143.73554 270.44819,146.33293 270.44819,149.17008   C 270.44819,152.84638 269.24939,155.92329 266.89176,158.4008   C 264.53413,160.91827 260.89779,162.51666 255.94277,163.19598   C 257.74096,164.03514 259.09959,164.91425 260.05863,165.75341   C 262.05662,167.59156 263.93474,169.86927 265.69297,172.58654   L 274.68393,186.61245   L 266.09257,186.61245   L 259.29939,175.90321   C 257.3014,172.8263 255.66305,170.42871 254.38433,168.79036   C 253.06566,167.15201 251.90682,166.03313 250.90783,165.35381   C 249.86887,164.71446 248.86988,164.23494 247.79096,163.99518   C 247.03172,163.83534 245.75301,163.75542 243.99478,163.75542   L 236.08273,163.75542   L 236.08273,186.61245   z  M 236.08273,157.84136   L 250.74799,157.84136   C 253.86486,157.84136 256.30241,157.52168 258.06064,156.88233   C 259.81887,156.24297 261.13755,155.20401 262.05662,153.80542   C 262.9757,152.36687 263.41526,150.84839 263.41526,149.17008   C 263.41526,146.73253 262.53614,144.73454 260.77791,143.1761   C 259.01967,141.61767 256.22249,140.81847 252.38634,140.81847   L 236.08273,140.81847   z "
     style="fill:#000000;fill-rule:evenodd;fill-opacity:1;stroke:none;" />
</svg>
