<?xml version="1.0" encoding="UTF-8" standalone="no"?>
<svg
   xmlns:dc="http://purl.org/dc/elements/1.1/"
   xmlns:cc="http://creativecommons.org/ns#"
   xmlns:rdf="http://www.w3.org/1999/02/22-rdf-syntax-ns#"
   xmlns:svg="http://www.w3.org/2000/svg"
   xmlns="http://www.w3.org/2000/svg"
   id="svg25"
   height="116.73mm"
   width="116.73mm"
   version="1.0">
  <metadata
     id="metadata29">
    <rdf:RDF>
      <cc:Work
         rdf:about="">
        <dc:format>image/svg+xml</dc:format>
        <dc:type
           rdf:resource="http://purl.org/dc/dcmitype/StillImage" />
      </cc:Work>
    </rdf:RDF>
  </metadata>
  <defs
     id="defs3">
    <pattern
       y="0"
       x="0"
       height="6"
       width="6"
       patternUnits="userSpaceOnUse"
       id="EMFhbasepattern" />
  </defs>
  <path
     id="path5"
     d="  M 220.57831,386.49156   L 220.57831,386.49156   L 386.49156,220.57831   L 220.57831,54.665059   L 54.665059,220.57831   z "
     style="fill:#ff8080;fill-rule:evenodd;fill-opacity:1;stroke:none;" />
  <path
     id="path7"
     d="  M 220.57831,386.49156   L 220.57831,386.49156   L 386.49156,220.57831   L 220.57831,54.665059   L 54.665059,220.57831   z "
     style="fill:none;stroke:#000000;stroke-width:9.5903616px;stroke-linecap:butt;stroke-linejoin:miter;stroke-miterlimit:10;stroke-dasharray:none;stroke-opacity:1;" />
  <path
     id="path9"
     d="  M 194.68433,321.2771   L 245.51325,321.2771  "
     style="fill:none;stroke:#000000;stroke-width:9.5903616px;stroke-linecap:butt;stroke-linejoin:miter;stroke-miterlimit:10;stroke-dasharray:none;stroke-opacity:1;" />
  <path
     id="path11"
     d="  M 220.57831,321.2771   L 220.57831,201.39759  "
     style="fill:none;stroke:#000000;stroke-width:9.5903616px;stroke-linecap:butt;stroke-linejoin:miter;stroke-miterlimit:10;stroke-dasharray:none;stroke-opacity:1;" />
  <path
     id="path13"
     d="  M 210.98795,183.1759   L 174.54458,170.70843   L 185.09397,154.40482   L 151.52771,143.85542  "
     style="fill:none;stroke:#000000;stroke-width:9.5903616px;stroke-linecap:butt;stroke-linejoin:miter;stroke-miterlimit:10;stroke-dasharray:none;stroke-opacity:1;" />
  <path
     id="path15"
     d="  M 230.16867,183.1759   L 266.61204,170.70843   L 256.06265,154.40482   L 289.62891,143.85542  "
     style="fill:none;stroke:#000000;stroke-width:9.5903616px;stroke-linecap:butt;stroke-linejoin:miter;stroke-miterlimit:10;stroke-dasharray:none;stroke-opacity:1;" />
  <path
     id="path17"
     d="  M 210.98795,196.60241   L 174.54458,210.02891   L 185.09397,225.37349   L 151.52771,236.88192  "
     style="fill:none;stroke:#000000;stroke-width:9.5903616px;stroke-linecap:butt;stroke-linejoin:miter;stroke-miterlimit:10;stroke-dasharray:none;stroke-opacity:1;" />
  <path
     id="path19"
     d="  M 230.16867,196.60241   L 266.61204,210.02891   L 256.06265,225.37349   L 289.62891,236.88192  "
     style="fill:none;stroke:#000000;stroke-width:9.5903616px;stroke-linecap:butt;stroke-linejoin:miter;stroke-miterlimit:10;stroke-dasharray:none;stroke-opacity:1;" />
  <path
     id="path21"
     d="  M 165.63353,278.63996   L 170.78835,278.2004   C 171.02811,280.23835 171.58755,281.95662 172.46666,283.2753   C 173.38574,284.59397 174.74437,285.63293 176.62249,286.47208   C 178.5006,287.27128 180.61847,287.67088 182.93614,287.67088   C 185.01405,287.67088 186.85221,287.39116 188.4506,286.7518   C 190.04899,286.15241 191.24779,285.27329 192.00703,284.23433   C 192.80622,283.15542 193.16586,281.95662 193.16586,280.67791   C 193.16586,279.39919 192.80622,278.28032 192.04699,277.32128   C 191.28775,276.32229 190.04899,275.52309 188.33072,274.88373   C 187.2518,274.44417 184.77429,273.76486 181.01807,272.84578   C 177.22188,271.96666 174.58454,271.08755 173.06606,270.28835   C 171.10803,269.24939 169.62952,267.97068 168.67048,266.4522   C 167.71144,264.93373 167.23193,263.21546 167.23193,261.33735   C 167.23193,259.25943 167.79136,257.3014 168.99016,255.50321   C 170.14899,253.70502 171.90723,252.30642 174.14498,251.38735   C 176.42269,250.42831 178.94016,249.98875 181.69739,249.98875   C 184.77429,249.98875 187.4516,250.46827 189.76927,251.46727   C 192.1269,252.4263 193.9251,253.86486 195.16385,255.78293   C 196.44257,257.701 197.08192,259.85883 197.2018,262.29638   L 191.96707,262.69598   C 191.68735,260.05863 190.72831,258.1006 189.12992,256.78192   C 187.49156,255.46325 185.09397,254.78393 181.93715,254.78393   C 178.62048,254.78393 176.22289,255.38333 174.74437,256.58212   C 173.2259,257.82088 172.46666,259.25943 172.46666,260.97771   C 172.46666,262.45622 172.98614,263.65502 174.06506,264.61405   C 175.10401,265.57309 177.86124,266.57208 182.29678,267.57108   C 186.73233,268.57008 189.76927,269.44919 191.40763,270.16847   C 193.80522,271.28735 195.56345,272.68594 196.72229,274.36425   C 197.84116,276.08253 198.44056,278.04056 198.44056,280.23835   C 198.44056,282.43614 197.8012,284.51405 196.56245,286.43212   C 195.28373,288.39016 193.48554,289.86867 191.12791,290.94759   C 188.77028,292.0265 186.13293,292.58594 183.21586,292.58594   C 179.45964,292.58594 176.34277,292.0265 173.8253,290.94759   C 171.30783,289.86867 169.3498,288.23032 167.91124,286.03253   C 166.47269,283.87469 165.71345,281.39718 165.63353,278.63996   z "
     style="fill:#000000;fill-rule:evenodd;fill-opacity:1;stroke:none;" />
  <path
     id="path23"
     d="  M 271.24739,250.66807   L 276.68192,250.66807   L 276.68192,274.48413   C 276.68192,278.6 276.24237,281.91666 275.28333,284.35421   C 274.36425,286.79176 272.64598,288.7498 270.20843,290.26827   C 267.77088,291.8267 264.57409,292.58594 260.57811,292.58594   C 256.74196,292.58594 253.58514,291.90662 251.14759,290.58795   C 248.67008,289.22931 246.91184,287.31124 245.87289,284.79377   C 244.83393,282.2763 244.31445,278.83976 244.31445,274.48413   L 244.31445,250.66807   L 249.74899,250.66807   L 249.74899,274.44417   C 249.74899,278.04056 250.06867,280.67791 250.74799,282.35622   C 251.42731,284.07449 252.54618,285.35321 254.18453,286.27229   C 255.78293,287.19136 257.78092,287.67088 260.13855,287.67088   C 264.13453,287.67088 266.97168,286.7518 268.68996,284.91365   C 270.40823,283.11546 271.24739,279.63895 271.24739,274.44417   z "
     style="fill:#000000;fill-rule:evenodd;fill-opacity:1;stroke:none;" />
</svg>
