<?xml version="1.0" encoding="UTF-8" standalone="no"?>
<svg
   xmlns:dc="http://purl.org/dc/elements/1.1/"
   xmlns:cc="http://creativecommons.org/ns#"
   xmlns:rdf="http://www.w3.org/1999/02/22-rdf-syntax-ns#"
   xmlns:svg="http://www.w3.org/2000/svg"
   xmlns="http://www.w3.org/2000/svg"
   id="svg17"
   height="95.75mm"
   width="95.75mm"
   version="1.0">
  <metadata
     id="metadata21">
    <rdf:RDF>
      <cc:Work
         rdf:about="">
        <dc:format>image/svg+xml</dc:format>
        <dc:type
           rdf:resource="http://purl.org/dc/dcmitype/StillImage" />
      </cc:Work>
    </rdf:RDF>
  </metadata>
  <defs
     id="defs3">
    <pattern
       y="0"
       x="0"
       height="6"
       width="6"
       patternUnits="userSpaceOnUse"
       id="EMFhbasepattern" />
  </defs>
  <path
     id="path5"
     d="  M 54.345381,54.345381   L 54.345381,307.53092   L 307.53092,307.53092   L 307.53092,54.345381   L 54.345381,54.345381   z "
     style="fill:#aaffaa;fill-rule:evenodd;fill-opacity:1;stroke:none;" />
  <path
     id="path7"
     d="  M 54.345381,54.345381   L 307.53092,54.345381   L 307.53092,307.53092   L 54.345381,307.53092   z "
     style="fill:none;stroke:#000000;stroke-width:9.5903616px;stroke-linecap:butt;stroke-linejoin:miter;stroke-miterlimit:10;stroke-dasharray:none;stroke-opacity:1;" />
  <path
     id="path9"
     d="  M 124.35502,143.53574   C 124.35502,201.75723 156.08313,222.93594 209.02992,217.62128  "
     style="fill:none;stroke:#000000;stroke-width:10.589357px;stroke-linecap:butt;stroke-linejoin:miter;stroke-miterlimit:10;stroke-dasharray:none;stroke-opacity:1;" />
  <path
     id="path11"
     d="  M 129.62972,180.57851   L 129.62972,180.57851   L 187.8512,138.22108   L 187.8512,180.57851   L 246.11265,138.22108  "
     style="fill:none;stroke:#000000;stroke-width:10.589357px;stroke-linecap:butt;stroke-linejoin:miter;stroke-miterlimit:10;stroke-dasharray:none;stroke-opacity:1;" />
  <path
     id="path13"
     d="  M 79.999597,195.64337   L 79.999597,154.44478   L 109.80964,154.44478   L 109.80964,159.31988   L 85.474095,159.31988   L 85.474095,171.94719   L 108.2512,171.94719   L 108.2512,176.78233   L 85.474095,176.78233   L 85.474095,190.76827   L 110.76867,190.76827   L 110.76867,195.64337   z "
     style="fill:#000000;fill-rule:evenodd;fill-opacity:1;stroke:none;" />
  <path
     id="path15"
     d="  M 240.55823,195.64337   L 229.60923,154.44478   L 235.20361,154.44478   L 241.47731,181.45763   C 242.15662,184.29478 242.71606,187.09197 243.19558,189.88915   C 244.27449,185.49357 244.87389,182.93614 245.07369,182.25682   L 252.90582,154.44478   L 259.45923,154.44478   L 265.37329,175.30381   C 266.8518,180.45863 267.93072,185.33373 268.57008,189.88915   C 269.08955,187.29176 269.80883,184.29478 270.64799,180.93815   L 277.08152,154.44478   L 282.55602,154.44478   L 271.28735,195.64337   L 266.01265,195.64337   L 257.34136,164.2749   C 256.62208,161.63755 256.18253,160.03915 256.06265,159.43976   C 255.62309,161.31787 255.22349,162.91626 254.82389,164.2749   L 246.11265,195.64337   z "
     style="fill:#000000;fill-rule:evenodd;fill-opacity:1;stroke:none;" />
</svg>
