<?xml version="1.0" encoding="UTF-8" standalone="no"?>
<svg
   xmlns:dc="http://purl.org/dc/elements/1.1/"
   xmlns:cc="http://creativecommons.org/ns#"
   xmlns:rdf="http://www.w3.org/1999/02/22-rdf-syntax-ns#"
   xmlns:svg="http://www.w3.org/2000/svg"
   xmlns="http://www.w3.org/2000/svg"
   id="svg17"
   height="101.85mm"
   width="101.85mm"
   version="1.0">
  <metadata
     id="metadata21">
    <rdf:RDF>
      <cc:Work
         rdf:about="">
        <dc:format>image/svg+xml</dc:format>
        <dc:type
           rdf:resource="http://purl.org/dc/dcmitype/StillImage" />
      </cc:Work>
    </rdf:RDF>
  </metadata>
  <defs
     id="defs3">
    <pattern
       y="0"
       x="0"
       height="6"
       width="6"
       patternUnits="userSpaceOnUse"
       id="EMFhbasepattern" />
  </defs>
  <path
     id="path5"
     d="  M 330.54779,192.44658   C 330.54779,268.72992 268.72992,330.54779 192.44658,330.54779   C 116.20321,330.54779 54.345381,268.72992 54.345381,192.44658   C 54.345381,116.20321 116.20321,54.345381 192.44658,54.345381   C 268.72992,54.345381 330.54779,116.20321 330.54779,192.44658   z "
     style="fill:#80e0ff;fill-rule:evenodd;fill-opacity:1;stroke:none;" />
  <path
     id="path7"
     d="  M 330.54779,192.44658   C 330.54779,268.72992 268.72992,330.54779 192.44658,330.54779   C 116.20321,330.54779 54.345381,268.72992 54.345381,192.44658   C 54.345381,116.20321 116.20321,54.345381 192.44658,54.345381   C 268.72992,54.345381 330.54779,116.20321 330.54779,192.44658  "
     style="fill:none;stroke:#000000;stroke-width:9.5903616px;stroke-linecap:butt;stroke-linejoin:miter;stroke-miterlimit:10;stroke-dasharray:none;stroke-opacity:1;" />
  <path
     id="path9"
     d="  M 135.86345,155.04417   C 135.86345,213.26566 167.59156,234.44437 220.53835,229.12972  "
     style="fill:none;stroke:#000000;stroke-width:10.589357px;stroke-linecap:butt;stroke-linejoin:miter;stroke-miterlimit:10;stroke-dasharray:none;stroke-opacity:1;" />
  <path
     id="path11"
     d="  M 141.13815,192.08695   L 141.13815,192.08695   L 199.35964,149.72952   L 199.35964,192.08695   L 257.62108,149.72952  "
     style="fill:none;stroke:#000000;stroke-width:10.589357px;stroke-linecap:butt;stroke-linejoin:miter;stroke-miterlimit:10;stroke-dasharray:none;stroke-opacity:1;" />
  <path
     id="path13"
     d="  M 91.508031,207.1518   L 91.508031,165.95321   L 121.31807,165.95321   L 121.31807,170.82831   L 96.982529,170.82831   L 96.982529,183.45562   L 119.75964,183.45562   L 119.75964,188.29076   L 96.982529,188.29076   L 96.982529,202.2767   L 122.27711,202.2767   L 122.27711,207.1518   z "
     style="fill:#000000;fill-rule:evenodd;fill-opacity:1;stroke:none;" />
  <path
     id="path15"
     d="  M 252.06666,207.1518   L 241.11767,165.95321   L 246.71204,165.95321   L 252.98574,192.96606   C 253.66506,195.80321 254.22449,198.6004 254.70401,201.39759   C 255.78293,197.00201 256.38233,194.44458 256.58212,193.76526   L 264.41425,165.95321   L 270.96767,165.95321   L 276.88172,186.81225   C 278.36024,191.96707 279.43915,196.84217 280.07851,201.39759   C 280.59799,198.8002 281.31727,195.80321 282.15642,192.44658   L 288.58996,165.95321   L 294.06445,165.95321   L 282.79578,207.1518   L 277.52108,207.1518   L 268.8498,175.78333   C 268.13052,173.14598 267.69096,171.54759 267.57108,170.94819   C 267.13152,172.8263 266.73192,174.4247 266.33233,175.78333   L 257.62108,207.1518   z "
     style="fill:#000000;fill-rule:evenodd;fill-opacity:1;stroke:none;" />
</svg>
