<?xml version="1.0" encoding="UTF-8" standalone="no"?>
<svg
   xmlns:dc="http://purl.org/dc/elements/1.1/"
   xmlns:cc="http://creativecommons.org/ns#"
   xmlns:rdf="http://www.w3.org/1999/02/22-rdf-syntax-ns#"
   xmlns:svg="http://www.w3.org/2000/svg"
   xmlns="http://www.w3.org/2000/svg"
   id="svg17"
   height="101.85mm"
   width="101.85mm"
   version="1.0">
  <metadata
     id="metadata21">
    <rdf:RDF>
      <cc:Work
         rdf:about="">
        <dc:format>image/svg+xml</dc:format>
        <dc:type
           rdf:resource="http://purl.org/dc/dcmitype/StillImage" />
      </cc:Work>
    </rdf:RDF>
  </metadata>
  <defs
     id="defs3">
    <pattern
       y="0"
       x="0"
       height="6"
       width="6"
       patternUnits="userSpaceOnUse"
       id="EMFhbasepattern" />
  </defs>
  <path
     id="path5"
     d="  M 330.54779,192.44658   C 330.54779,268.72992 268.72992,330.54779 192.44658,330.54779   C 116.20321,330.54779 54.345381,268.72992 54.345381,192.44658   C 54.345381,116.20321 116.20321,54.345381 192.44658,54.345381   C 268.72992,54.345381 330.54779,116.20321 330.54779,192.44658   z "
     style="fill:#80e0ff;fill-rule:evenodd;fill-opacity:1;stroke:none;" />
  <path
     id="path7"
     d="  M 330.54779,192.44658   C 330.54779,268.72992 268.72992,330.54779 192.44658,330.54779   C 116.20321,330.54779 54.345381,268.72992 54.345381,192.44658   C 54.345381,116.20321 116.20321,54.345381 192.44658,54.345381   C 268.72992,54.345381 330.54779,116.20321 330.54779,192.44658  "
     style="fill:none;stroke:#000000;stroke-width:9.5903616px;stroke-linecap:butt;stroke-linejoin:miter;stroke-miterlimit:10;stroke-dasharray:none;stroke-opacity:1;" />
  <path
     id="path9"
     d="  M 135.86345,155.04417   C 135.86345,213.26566 167.59156,234.44437 220.53835,229.12972  "
     style="fill:none;stroke:#000000;stroke-width:10.589357px;stroke-linecap:butt;stroke-linejoin:miter;stroke-miterlimit:10;stroke-dasharray:none;stroke-opacity:1;" />
  <path
     id="path11"
     d="  M 141.13815,192.08695   L 141.13815,192.08695   L 199.35964,149.72952   L 199.35964,192.08695   L 257.62108,149.72952  "
     style="fill:none;stroke:#000000;stroke-width:10.589357px;stroke-linecap:butt;stroke-linejoin:miter;stroke-miterlimit:10;stroke-dasharray:none;stroke-opacity:1;" />
  <path
     id="path13"
     d="  M 96.503011,207.1518   L 96.503011,165.95321   L 124.2751,165.95321   L 124.2751,170.82831   L 101.93755,170.82831   L 101.93755,183.5755   L 121.27811,183.5755   L 121.27811,188.4506   L 101.93755,188.4506   L 101.93755,207.1518   z "
     style="fill:#000000;fill-rule:evenodd;fill-opacity:1;stroke:none;" />
  <path
     id="path15"
     d="  M 283.83473,192.7263   L 289.26927,194.08494   C 288.1504,198.56044 286.07249,201.99699 283.11546,204.31466   C 280.15843,206.67229 276.52208,207.87108 272.24638,207.87108   C 267.81084,207.87108 264.17449,206.95201 261.41727,205.15381   C 258.62008,203.35562 256.50221,200.71827 255.06365,197.28172   C 253.58514,193.88514 252.86586,190.16887 252.86586,186.25281   C 252.86586,181.97711 253.70502,178.22088 255.34337,175.02409   C 256.98172,171.82731 259.29939,169.38976 262.33634,167.7514   C 265.37329,166.07309 268.68996,165.27389 272.3263,165.27389   C 276.44216,165.27389 279.91867,166.31285 282.71586,168.39076   C 285.51305,170.50863 287.47108,173.46566 288.58996,177.26184   L 283.23534,178.54056   C 282.2763,175.54357 280.87771,173.34578 279.03955,171.98715   C 277.24136,170.62851 274.96365,169.90923 272.20642,169.90923   C 269.04959,169.90923 266.41225,170.66847 264.25441,172.18695   C 262.13654,173.70542 260.65803,175.74337 259.77891,178.3008   C 258.93976,180.85823 258.5002,183.49558 258.5002,186.21285   C 258.5002,189.72931 259.01967,192.76626 260.01867,195.40361   C 261.05763,198.001 262.61606,199.95903 264.77389,201.23775   C 266.93172,202.55642 269.28935,203.19578 271.76686,203.19578   C 274.84377,203.19578 277.4012,202.31666 279.51907,200.55843   C 281.63694,198.8002 283.0755,196.16285 283.83473,192.7263   z "
     style="fill:#000000;fill-rule:evenodd;fill-opacity:1;stroke:none;" />
</svg>
