<?xml version="1.0" encoding="UTF-8" standalone="no"?>
<svg
   xmlns:dc="http://purl.org/dc/elements/1.1/"
   xmlns:cc="http://creativecommons.org/ns#"
   xmlns:rdf="http://www.w3.org/1999/02/22-rdf-syntax-ns#"
   xmlns:svg="http://www.w3.org/2000/svg"
   xmlns="http://www.w3.org/2000/svg"
   id="svg17"
   height="95.75mm"
   width="95.75mm"
   version="1.0">
  <metadata
     id="metadata21">
    <rdf:RDF>
      <cc:Work
         rdf:about="">
        <dc:format>image/svg+xml</dc:format>
        <dc:type
           rdf:resource="http://purl.org/dc/dcmitype/StillImage" />
      </cc:Work>
    </rdf:RDF>
  </metadata>
  <defs
     id="defs3">
    <pattern
       y="0"
       x="0"
       height="6"
       width="6"
       patternUnits="userSpaceOnUse"
       id="EMFhbasepattern" />
  </defs>
  <path
     id="path5"
     d="  M 54.345381,54.345381   L 54.345381,307.53092   L 307.53092,307.53092   L 307.53092,54.345381   L 54.345381,54.345381   z "
     style="fill:#aaffaa;fill-rule:evenodd;fill-opacity:1;stroke:none;" />
  <path
     id="path7"
     d="  M 54.345381,54.345381   L 307.53092,54.345381   L 307.53092,307.53092   L 54.345381,307.53092   z "
     style="fill:none;stroke:#000000;stroke-width:9.5903616px;stroke-linecap:butt;stroke-linejoin:miter;stroke-miterlimit:10;stroke-dasharray:none;stroke-opacity:1;" />
  <path
     id="path9"
     d="  M 124.35502,143.53574   C 124.35502,201.75723 156.08313,222.93594 209.02992,217.62128  "
     style="fill:none;stroke:#000000;stroke-width:10.589357px;stroke-linecap:butt;stroke-linejoin:miter;stroke-miterlimit:10;stroke-dasharray:none;stroke-opacity:1;" />
  <path
     id="path11"
     d="  M 129.62972,180.57851   L 129.62972,180.57851   L 187.8512,138.22108   L 187.8512,180.57851   L 246.11265,138.22108  "
     style="fill:none;stroke:#000000;stroke-width:10.589357px;stroke-linecap:butt;stroke-linejoin:miter;stroke-miterlimit:10;stroke-dasharray:none;stroke-opacity:1;" />
  <path
     id="path13"
     d="  M 111.72771,154.44478   L 117.16225,154.44478   L 117.16225,178.26084   C 117.16225,182.3767 116.72269,185.69337 115.76365,188.13092   C 114.84458,190.56847 113.1263,192.5265 110.68875,194.04498   C 108.2512,195.60341 105.05442,196.36265 101.05843,196.36265   C 97.222288,196.36265 94.06546,195.68333 91.62791,194.36466   C 89.1504,193.00602 87.392167,191.08795 86.353212,188.57048   C 85.314256,186.05301 84.794778,182.61646 84.794778,178.26084   L 84.794778,154.44478   L 90.229316,154.44478   L 90.229316,178.22088   C 90.229316,181.81727 90.548995,184.45462 91.228312,186.13293   C 91.907629,187.8512 93.026505,189.12992 94.664858,190.04899   C 96.263252,190.96807 98.261244,191.44759 100.61887,191.44759   C 104.61486,191.44759 107.45201,190.52851 109.17028,188.69036   C 110.88855,186.89217 111.72771,183.41566 111.72771,178.22088   z "
     style="fill:#000000;fill-rule:evenodd;fill-opacity:1;stroke:none;" />
  <path
     id="path15"
     d="  M 247.67108,195.64337   L 247.67108,154.44478   L 253.26546,154.44478   L 274.88373,186.81225   L 274.88373,154.44478   L 280.11847,154.44478   L 280.11847,195.64337   L 274.52409,195.64337   L 252.90582,163.2759   L 252.90582,195.64337   z "
     style="fill:#000000;fill-rule:evenodd;fill-opacity:1;stroke:none;" />
</svg>
