<?xml version="1.0" encoding="UTF-8" standalone="no"?>
<svg
   xmlns:dc="http://purl.org/dc/elements/1.1/"
   xmlns:cc="http://creativecommons.org/ns#"
   xmlns:rdf="http://www.w3.org/1999/02/22-rdf-syntax-ns#"
   xmlns:svg="http://www.w3.org/2000/svg"
   xmlns="http://www.w3.org/2000/svg"
   id="svg17"
   height="95.75mm"
   width="95.75mm"
   version="1.0">
  <metadata
     id="metadata21">
    <rdf:RDF>
      <cc:Work
         rdf:about="">
        <dc:format>image/svg+xml</dc:format>
        <dc:type
           rdf:resource="http://purl.org/dc/dcmitype/StillImage" />
      </cc:Work>
    </rdf:RDF>
  </metadata>
  <defs
     id="defs3">
    <pattern
       y="0"
       x="0"
       height="6"
       width="6"
       patternUnits="userSpaceOnUse"
       id="EMFhbasepattern" />
  </defs>
  <path
     id="path5"
     d="  M 54.345381,54.345381   L 54.345381,307.53092   L 307.53092,307.53092   L 307.53092,54.345381   L 54.345381,54.345381   z "
     style="fill:#aaffaa;fill-rule:evenodd;fill-opacity:1;stroke:none;" />
  <path
     id="path7"
     d="  M 54.345381,54.345381   L 307.53092,54.345381   L 307.53092,307.53092   L 54.345381,307.53092   z "
     style="fill:none;stroke:#000000;stroke-width:9.5903616px;stroke-linecap:butt;stroke-linejoin:miter;stroke-miterlimit:10;stroke-dasharray:none;stroke-opacity:1;" />
  <path
     id="path9"
     d="  M 124.35502,143.53574   C 124.35502,201.75723 156.08313,222.93594 209.02992,217.62128  "
     style="fill:none;stroke:#000000;stroke-width:10.589357px;stroke-linecap:butt;stroke-linejoin:miter;stroke-miterlimit:10;stroke-dasharray:none;stroke-opacity:1;" />
  <path
     id="path11"
     d="  M 129.62972,180.57851   L 129.62972,180.57851   L 187.8512,138.22108   L 187.8512,180.57851   L 246.11265,138.22108  "
     style="fill:none;stroke:#000000;stroke-width:10.589357px;stroke-linecap:butt;stroke-linejoin:miter;stroke-miterlimit:10;stroke-dasharray:none;stroke-opacity:1;" />
  <path
     id="path13"
     d="  M 104.49498,181.21787   L 109.92952,182.5765   C 108.81064,187.05201 106.73273,190.48855 103.7757,192.80622   C 100.81867,195.16385 97.182328,196.36265 92.906625,196.36265   C 88.471083,196.36265 84.834738,195.44357 82.077509,193.64538   C 79.28032,191.84719 77.162449,189.20984 75.723894,185.77329   C 74.24538,182.3767 73.526103,178.66044 73.526103,174.74437   C 73.526103,170.46867 74.36526,166.71245 76.003613,163.51566   C 77.641967,160.31887 79.959637,157.88132 82.996585,156.24297   C 86.033533,154.56466 89.3502,153.76546 92.986545,153.76546   C 97.102408,153.76546 100.57891,154.80442 103.3761,156.88233   C 106.17329,159.0002 108.13132,161.95723 109.2502,165.75341   L 103.89558,167.03213   C 102.93654,164.03514 101.53795,161.83735 99.699798,160.47871   C 97.901605,159.12008 95.623894,158.4008 92.866665,158.4008   C 89.709838,158.4008 87.072489,159.16004 84.914657,160.67851   C 82.796786,162.19699 81.318272,164.23494 80.439155,166.79237   C 79.599999,169.3498 79.160441,171.98715 79.160441,174.70442   C 79.160441,178.22088 79.679919,181.25783 80.678914,183.89518   C 81.71787,186.49257 83.276304,188.4506 85.434135,189.72931   C 87.591967,191.04799 89.949597,191.68735 92.427107,191.68735   C 95.504015,191.68735 98.061444,190.80823 100.17932,189.05   C 102.29719,187.29176 103.73574,184.65442 104.49498,181.21787   z "
     style="fill:#000000;fill-rule:evenodd;fill-opacity:1;stroke:none;" />
  <path
     id="path15"
     d="  M 247.99076,195.64337   L 263.81486,154.44478   L 269.68895,154.44478   L 286.552,195.64337   L 280.35823,195.64337   L 275.52309,183.1759   L 258.3004,183.1759   L 253.78494,195.64337   z  M 259.89879,178.74036   L 273.84478,178.74036   L 269.56907,167.31184   C 268.2504,163.8753 267.2514,160.99819 266.652,158.8004   C 266.09257,161.43775 265.37329,164.03514 264.41425,166.63253   z "
     style="fill:#000000;fill-rule:evenodd;fill-opacity:1;stroke:none;" />
</svg>
