<?xml version="1.0" encoding="UTF-8" standalone="no"?>
<svg
   xmlns:dc="http://purl.org/dc/elements/1.1/"
   xmlns:cc="http://creativecommons.org/ns#"
   xmlns:rdf="http://www.w3.org/1999/02/22-rdf-syntax-ns#"
   xmlns:svg="http://www.w3.org/2000/svg"
   xmlns="http://www.w3.org/2000/svg"
   id="svg17"
   height="95.75mm"
   width="95.75mm"
   version="1.0">
  <metadata
     id="metadata21">
    <rdf:RDF>
      <cc:Work
         rdf:about="">
        <dc:format>image/svg+xml</dc:format>
        <dc:type
           rdf:resource="http://purl.org/dc/dcmitype/StillImage" />
      </cc:Work>
    </rdf:RDF>
  </metadata>
  <defs
     id="defs3">
    <pattern
       y="0"
       x="0"
       height="6"
       width="6"
       patternUnits="userSpaceOnUse"
       id="EMFhbasepattern" />
  </defs>
  <path
     id="path5"
     d="  M 54.345381,54.345381   L 54.345381,307.53092   L 307.53092,307.53092   L 307.53092,54.345381   L 54.345381,54.345381   z "
     style="fill:#aaffaa;fill-rule:evenodd;fill-opacity:1;stroke:none;" />
  <path
     id="path7"
     d="  M 54.345381,54.345381   L 307.53092,54.345381   L 307.53092,307.53092   L 54.345381,307.53092   z "
     style="fill:none;stroke:#000000;stroke-width:9.5903616px;stroke-linecap:butt;stroke-linejoin:miter;stroke-miterlimit:10;stroke-dasharray:none;stroke-opacity:1;" />
  <path
     id="path9"
     d="  M 124.35502,143.53574   C 124.35502,201.75723 156.08313,222.93594 209.02992,217.62128  "
     style="fill:none;stroke:#000000;stroke-width:10.589357px;stroke-linecap:butt;stroke-linejoin:miter;stroke-miterlimit:10;stroke-dasharray:none;stroke-opacity:1;" />
  <path
     id="path11"
     d="  M 129.62972,180.57851   L 129.62972,180.57851   L 187.8512,138.22108   L 187.8512,180.57851   L 246.11265,138.22108  "
     style="fill:none;stroke:#000000;stroke-width:10.589357px;stroke-linecap:butt;stroke-linejoin:miter;stroke-miterlimit:10;stroke-dasharray:none;stroke-opacity:1;" />
  <path
     id="path13"
     d="  M 109.29016,181.21787   L 114.7247,182.5765   C 113.60582,187.05201 111.52791,190.48855 108.57088,192.80622   C 105.61385,195.16385 101.97751,196.36265 97.701806,196.36265   C 93.266264,196.36265 89.629918,195.44357 86.87269,193.64538   C 84.075501,191.84719 81.957629,189.20984 80.519075,185.77329   C 79.040561,182.3767 78.321284,178.66044 78.321284,174.74437   C 78.321284,170.46867 79.160441,166.71245 80.798794,163.51566   C 82.437147,160.31887 84.754818,157.88132 87.791766,156.24297   C 90.828714,154.56466 94.14538,153.76546 97.781725,153.76546   C 101.89759,153.76546 105.37409,154.80442 108.17128,156.88233   C 110.96847,159.0002 112.9265,161.95723 114.04538,165.75341   L 108.69076,167.03213   C 107.73173,164.03514 106.33313,161.83735 104.49498,160.47871   C 102.69679,159.12008 100.41907,158.4008 97.661846,158.4008   C 94.505019,158.4008 91.867669,159.16004 89.709838,160.67851   C 87.591967,162.19699 86.113453,164.23494 85.234336,166.79237   C 84.39518,169.3498 83.955621,171.98715 83.955621,174.70442   C 83.955621,178.22088 84.475099,181.25783 85.474095,183.89518   C 86.513051,186.49257 88.071485,188.4506 90.229316,189.72931   C 92.387147,191.04799 94.744778,191.68735 97.222288,191.68735   C 100.2992,191.68735 102.85663,190.80823 104.9745,189.05   C 107.09237,187.29176 108.53092,184.65442 109.29016,181.21787   z "
     style="fill:#000000;fill-rule:evenodd;fill-opacity:1;stroke:none;" />
  <path
     id="path15"
     d="  M 253.46526,154.44478   L 253.46526,195.64337   L 258.8998,195.64337   L 258.8998,154.44478   L 253.46526,154.44478   z "
     style="fill:#000000;fill-rule:evenodd;fill-opacity:1;stroke:none;" />
</svg>
