<?xml version="1.0" encoding="UTF-8" standalone="no"?>
<svg
   xmlns:dc="http://purl.org/dc/elements/1.1/"
   xmlns:cc="http://creativecommons.org/ns#"
   xmlns:rdf="http://www.w3.org/1999/02/22-rdf-syntax-ns#"
   xmlns:svg="http://www.w3.org/2000/svg"
   xmlns="http://www.w3.org/2000/svg"
   id="svg17"
   height="130.27mm"
   width="130.27mm"
   version="1.0">
  <metadata
     id="metadata21">
    <rdf:RDF>
      <cc:Work
         rdf:about="">
        <dc:format>image/svg+xml</dc:format>
        <dc:type
           rdf:resource="http://purl.org/dc/dcmitype/StillImage" />
      </cc:Work>
    </rdf:RDF>
  </metadata>
  <defs
     id="defs3">
    <pattern
       y="0"
       x="0"
       height="6"
       width="6"
       patternUnits="userSpaceOnUse"
       id="EMFhbasepattern" />
  </defs>
  <path
     id="path5"
     d="  M 164.63454,327.67068   C 164.63454,437.95983 327.67068,437.95983 327.67068,327.67068   C 437.95983,327.67068 437.95983,164.63454 327.67068,164.63454   C 327.67068,54.345381 164.63454,54.345381 164.63454,164.63454   C 54.345381,164.63454 54.345381,327.67068 164.63454,327.67068   z "
     style="fill:#ffff80;fill-rule:evenodd;fill-opacity:1;stroke:none;" />
  <path
     id="path7"
     d="  M 164.63454,327.67068   C 164.63454,437.95983 327.67068,437.95983 327.67068,327.67068   C 437.95983,327.67068 437.95983,164.63454 327.67068,164.63454   C 327.67068,54.345381 164.63454,54.345381 164.63454,164.63454   C 54.345381,164.63454 54.345381,327.67068 164.63454,327.67068  "
     style="fill:none;stroke:#000000;stroke-width:9.5903616px;stroke-linecap:butt;stroke-linejoin:miter;stroke-miterlimit:10;stroke-dasharray:none;stroke-opacity:1;" />
  <path
     id="path9"
     d="  M 189.56948,208.7502   C 189.56948,266.97168 221.29759,288.1504 274.24437,282.83574  "
     style="fill:none;stroke:#000000;stroke-width:10.589357px;stroke-linecap:butt;stroke-linejoin:miter;stroke-miterlimit:10;stroke-dasharray:none;stroke-opacity:1;" />
  <path
     id="path11"
     d="  M 194.84417,245.79297   L 194.84417,245.79297   L 253.06566,203.43554   L 253.06566,245.79297   L 311.3271,203.43554  "
     style="fill:none;stroke:#000000;stroke-width:10.589357px;stroke-linecap:butt;stroke-linejoin:miter;stroke-miterlimit:10;stroke-dasharray:none;stroke-opacity:1;" />
  <path
     id="path13"
     d="  M 150.20903,260.85783   L 150.20903,219.65923   L 177.98112,219.65923   L 177.98112,224.53433   L 155.64357,224.53433   L 155.64357,237.28152   L 174.98413,237.28152   L 174.98413,242.15662   L 155.64357,242.15662   L 155.64357,260.85783   z "
     style="fill:#000000;fill-rule:evenodd;fill-opacity:1;stroke:none;" />
  <path
     id="path15"
     d="  M 337.54076,246.43233   L 342.9753,247.79096   C 341.85642,252.26646 339.77851,255.70301 336.82148,258.02068   C 333.86445,260.37831 330.22811,261.5771 325.9524,261.5771   C 321.51686,261.5771 317.88052,260.65803 315.12329,258.85984   C 312.3261,257.06164 310.20823,254.42429 308.76967,250.98775   C 307.29116,247.59116 306.57188,243.8749 306.57188,239.95883   C 306.57188,235.68313 307.41104,231.9269 309.04939,228.73012   C 310.68775,225.53333 313.00542,223.09578 316.04236,221.45743   C 319.07931,219.77911 322.39598,218.97992 326.03232,218.97992   C 330.14819,218.97992 333.62469,220.01887 336.42188,222.09678   C 339.21907,224.21466 341.1771,227.17168 342.29598,230.96787   L 336.94136,232.24658   C 335.98232,229.2496 334.58373,227.0518 332.74558,225.69317   C 330.94738,224.33453 328.66967,223.61526 325.91245,223.61526   C 322.75562,223.61526 320.11827,224.37449 317.96044,225.89297   C 315.84257,227.41144 314.36405,229.44939 313.48494,232.00682   C 312.64578,234.56425 312.20622,237.2016 312.20622,239.91887   C 312.20622,243.43534 312.7257,246.47229 313.72469,249.10963   C 314.76365,251.70702 316.32208,253.66506 318.47992,254.94377   C 320.63775,256.26245 322.99538,256.9018 325.47289,256.9018   C 328.54979,256.9018 331.10722,256.02269 333.2251,254.26445   C 335.34297,252.50622 336.78152,249.86887 337.54076,246.43233   z "
     style="fill:#000000;fill-rule:evenodd;fill-opacity:1;stroke:none;" />
</svg>
