<?xml version="1.0" encoding="UTF-8" standalone="no"?>
<svg
   xmlns:dc="http://purl.org/dc/elements/1.1/"
   xmlns:cc="http://creativecommons.org/ns#"
   xmlns:rdf="http://www.w3.org/1999/02/22-rdf-syntax-ns#"
   xmlns:svg="http://www.w3.org/2000/svg"
   xmlns="http://www.w3.org/2000/svg"
   id="svg31"
   height="125.53mm"
   width="95.75mm"
   version="1.0">
  <metadata
     id="metadata35">
    <rdf:RDF>
      <cc:Work
         rdf:about="">
        <dc:format>image/svg+xml</dc:format>
        <dc:type
           rdf:resource="http://purl.org/dc/dcmitype/StillImage" />
      </cc:Work>
    </rdf:RDF>
  </metadata>
  <defs
     id="defs3">
    <pattern
       y="0"
       x="0"
       height="6"
       width="6"
       patternUnits="userSpaceOnUse"
       id="EMFhbasepattern" />
  </defs>
  <path
     id="path5"
     d="  M 54.345381,54.345381   C 54.345381,419.73815 307.53092,419.73815 307.53092,54.345381  "
     style="fill:none;stroke:#00ffff;stroke-width:9.5903616px;stroke-linecap:butt;stroke-linejoin:miter;stroke-miterlimit:10;stroke-dasharray:none;stroke-opacity:1;" />
  <path
     id="path7"
     d="  M 161.75743,102.29719   L 161.75743,102.29719   L 161.75743,68.730923   L 200.11887,68.730923   L 200.11887,102.29719   z "
     style="fill:#00ff00;fill-rule:evenodd;fill-opacity:1;stroke:none;" />
  <path
     id="path9"
     d="  M 161.75743,102.29719   L 161.75743,102.29719   L 161.75743,68.730923   L 200.11887,68.730923   L 200.11887,102.29719   z "
     style="fill:none;stroke:#000000;stroke-width:9.5903616px;stroke-linecap:butt;stroke-linejoin:miter;stroke-miterlimit:10;stroke-dasharray:none;stroke-opacity:1;" />
  <path
     id="path11"
     d="  M 126.07329,133.10622   L 126.07329,133.10622   L 102.33715,109.37008   L 129.46988,82.237348   L 153.20602,105.97349   z "
     style="fill:#00ff00;fill-rule:evenodd;fill-opacity:1;stroke:none;" />
  <path
     id="path13"
     d="  M 126.07329,133.10622   L 126.07329,133.10622   L 102.33715,109.37008   L 129.46988,82.237348   L 153.20602,105.97349   z "
     style="fill:none;stroke:#000000;stroke-width:9.5903616px;stroke-linecap:butt;stroke-linejoin:miter;stroke-miterlimit:10;stroke-dasharray:none;stroke-opacity:1;" />
  <path
     id="path15"
     d="  M 208.07088,105.93353   L 208.07088,105.93353   L 231.76706,82.157429   L 258.93976,109.2502   L 235.24357,133.0263   z "
     style="fill:#00ff00;fill-rule:evenodd;fill-opacity:1;stroke:none;" />
  <path
     id="path17"
     d="  M 208.07088,105.93353   L 208.07088,105.93353   L 231.76706,82.157429   L 258.93976,109.2502   L 235.24357,133.0263   z "
     style="fill:none;stroke:#000000;stroke-width:9.5903616px;stroke-linecap:butt;stroke-linejoin:miter;stroke-miterlimit:10;stroke-dasharray:none;stroke-opacity:1;" />
  <path
     id="path19"
     d="  M 248.07068,159.83936   C 248.07068,196.92209 218.02088,226.97188 180.93815,226.97188   C 143.89538,226.97188 113.80562,196.92209 113.80562,159.83936   C 113.80562,122.79658 143.89538,92.706826 180.93815,92.706826   C 218.02088,92.706826 248.07068,122.79658 248.07068,159.83936   z "
     style="fill:#00ff00;fill-rule:evenodd;fill-opacity:1;stroke:none;" />
  <path
     id="path21"
     d="  M 248.07068,159.83936   C 248.07068,196.92209 218.02088,226.97188 180.93815,226.97188   C 143.89538,226.97188 113.80562,196.92209 113.80562,159.83936   C 113.80562,122.79658 143.89538,92.706826 180.93815,92.706826   C 218.02088,92.706826 248.07068,122.79658 248.07068,159.83936  "
     style="fill:none;stroke:#000000;stroke-width:9.5903616px;stroke-linecap:butt;stroke-linejoin:miter;stroke-miterlimit:10;stroke-dasharray:none;stroke-opacity:1;" />
  <path
     id="path23"
     d="  M 248.07068,159.83936   L 276.84176,159.83936  "
     style="fill:none;stroke:#000000;stroke-width:9.5903616px;stroke-linecap:butt;stroke-linejoin:miter;stroke-miterlimit:10;stroke-dasharray:none;stroke-opacity:1;" />
  <path
     id="path25"
     d="  M 113.80562,159.83936   L 85.034537,159.83936  "
     style="fill:none;stroke:#000000;stroke-width:9.5903616px;stroke-linecap:butt;stroke-linejoin:miter;stroke-miterlimit:10;stroke-dasharray:none;stroke-opacity:1;" />
  <path
     id="path27"
     d="  M 94.624898,73.526103   L 267.2514,246.15261  "
     style="fill:none;stroke:#000000;stroke-width:9.5903616px;stroke-linecap:butt;stroke-linejoin:miter;stroke-miterlimit:10;stroke-dasharray:none;stroke-opacity:1;" />
  <path
     id="path29"
     d="  M 94.624898,246.15261   L 267.2514,73.526103  "
     style="fill:none;stroke:#000000;stroke-width:9.5903616px;stroke-linecap:butt;stroke-linejoin:miter;stroke-miterlimit:10;stroke-dasharray:none;stroke-opacity:1;" />
</svg>
