<?xml version="1.0" encoding="UTF-8" standalone="no"?>
<svg
   xmlns:dc="http://purl.org/dc/elements/1.1/"
   xmlns:cc="http://creativecommons.org/ns#"
   xmlns:rdf="http://www.w3.org/1999/02/22-rdf-syntax-ns#"
   xmlns:svg="http://www.w3.org/2000/svg"
   xmlns="http://www.w3.org/2000/svg"
   id="svg25"
   height="116.73mm"
   width="116.73mm"
   version="1.0">
  <metadata
     id="metadata29">
    <rdf:RDF>
      <cc:Work
         rdf:about="">
        <dc:format>image/svg+xml</dc:format>
        <dc:type
           rdf:resource="http://purl.org/dc/dcmitype/StillImage" />
      </cc:Work>
    </rdf:RDF>
  </metadata>
  <defs
     id="defs3">
    <pattern
       y="0"
       x="0"
       height="6"
       width="6"
       patternUnits="userSpaceOnUse"
       id="EMFhbasepattern" />
  </defs>
  <path
     id="path5"
     d="  M 220.57831,386.49156   L 220.57831,386.49156   L 386.49156,220.57831   L 220.57831,54.665059   L 54.665059,220.57831   z "
     style="fill:#ff8080;fill-rule:evenodd;fill-opacity:1;stroke:none;" />
  <path
     id="path7"
     d="  M 220.57831,386.49156   L 220.57831,386.49156   L 386.49156,220.57831   L 220.57831,54.665059   L 54.665059,220.57831   z "
     style="fill:none;stroke:#000000;stroke-width:9.5903616px;stroke-linecap:butt;stroke-linejoin:miter;stroke-miterlimit:10;stroke-dasharray:none;stroke-opacity:1;" />
  <path
     id="path9"
     d="  M 194.68433,321.2771   L 245.51325,321.2771  "
     style="fill:none;stroke:#000000;stroke-width:9.5903616px;stroke-linecap:butt;stroke-linejoin:miter;stroke-miterlimit:10;stroke-dasharray:none;stroke-opacity:1;" />
  <path
     id="path11"
     d="  M 220.57831,321.2771   L 220.57831,201.39759  "
     style="fill:none;stroke:#000000;stroke-width:9.5903616px;stroke-linecap:butt;stroke-linejoin:miter;stroke-miterlimit:10;stroke-dasharray:none;stroke-opacity:1;" />
  <path
     id="path13"
     d="  M 210.98795,183.1759   L 174.54458,170.70843   L 185.09397,154.40482   L 151.52771,143.85542  "
     style="fill:none;stroke:#000000;stroke-width:9.5903616px;stroke-linecap:butt;stroke-linejoin:miter;stroke-miterlimit:10;stroke-dasharray:none;stroke-opacity:1;" />
  <path
     id="path15"
     d="  M 230.16867,183.1759   L 266.61204,170.70843   L 256.06265,154.40482   L 289.62891,143.85542  "
     style="fill:none;stroke:#000000;stroke-width:9.5903616px;stroke-linecap:butt;stroke-linejoin:miter;stroke-miterlimit:10;stroke-dasharray:none;stroke-opacity:1;" />
  <path
     id="path17"
     d="  M 210.98795,196.60241   L 174.54458,210.02891   L 185.09397,225.37349   L 151.52771,236.88192  "
     style="fill:none;stroke:#000000;stroke-width:9.5903616px;stroke-linecap:butt;stroke-linejoin:miter;stroke-miterlimit:10;stroke-dasharray:none;stroke-opacity:1;" />
  <path
     id="path19"
     d="  M 230.16867,196.60241   L 266.61204,210.02891   L 256.06265,225.37349   L 289.62891,236.88192  "
     style="fill:none;stroke:#000000;stroke-width:9.5903616px;stroke-linecap:butt;stroke-linejoin:miter;stroke-miterlimit:10;stroke-dasharray:none;stroke-opacity:1;" />
  <path
     id="path21"
     d="  M 165.83333,271.80682   C 165.83333,264.97369 167.67148,259.61907 171.34779,255.74297   C 175.02409,251.86686 179.73935,249.94879 185.57349,249.94879   C 189.36968,249.94879 192.80622,250.86787 195.84317,252.66606   C 198.88012,254.50421 201.23775,257.02168 202.83614,260.25843   C 204.43454,263.53514 205.23373,267.21144 205.23373,271.32731   C 205.23373,275.52309 204.39458,279.23935 202.71626,282.55602   C 200.99799,285.83273 198.64036,288.3502 195.52349,290.02851   C 192.44658,291.74678 189.12992,292.58594 185.53353,292.58594   C 181.65743,292.58594 178.18092,291.6269 175.14397,289.74879   C 172.06707,287.91064 169.78935,285.35321 168.19096,282.0765   C 166.63253,278.83976 165.83333,275.44317 165.83333,271.80682   z  M 171.46767,271.88674   C 171.46767,276.84176 172.78634,280.75783 175.46365,283.63494   C 178.14096,286.47208 181.45763,287.91064 185.49357,287.91064   C 189.60944,287.91064 192.96606,286.47208 195.64337,283.59498   C 198.28072,280.71787 199.59939,276.602 199.59939,271.28735   C 199.59939,267.97068 199.03996,265.01365 197.92108,262.53614   C 196.76225,260.01867 195.12389,258.1006 192.9261,256.702   C 190.76827,255.34337 188.29076,254.62409 185.57349,254.62409   C 181.73735,254.62409 178.42068,255.98273 175.62349,258.62008   C 172.86626,261.25743 171.46767,265.69297 171.46767,271.88674   z "
     style="fill:#000000;fill-rule:evenodd;fill-opacity:1;stroke:none;" />
  <path
     id="path23"
     d="  M 243.99478,291.86666   L 243.99478,250.66807   L 249.42931,250.66807   L 249.42931,286.99156   L 269.72891,286.99156   L 269.72891,291.86666   z "
     style="fill:#000000;fill-rule:evenodd;fill-opacity:1;stroke:none;" />
</svg>
