<?xml version="1.0" encoding="UTF-8" standalone="no"?>
<svg
   xmlns:dc="http://purl.org/dc/elements/1.1/"
   xmlns:cc="http://creativecommons.org/ns#"
   xmlns:rdf="http://www.w3.org/1999/02/22-rdf-syntax-ns#"
   xmlns:svg="http://www.w3.org/2000/svg"
   xmlns="http://www.w3.org/2000/svg"
   id="svg17"
   height="116.73mm"
   width="116.73mm"
   version="1.0">
  <metadata
     id="metadata21">
    <rdf:RDF>
      <cc:Work
         rdf:about="">
        <dc:format>image/svg+xml</dc:format>
        <dc:type
           rdf:resource="http://purl.org/dc/dcmitype/StillImage" />
      </cc:Work>
    </rdf:RDF>
  </metadata>
  <defs
     id="defs3">
    <pattern
       y="0"
       x="0"
       height="6"
       width="6"
       patternUnits="userSpaceOnUse"
       id="EMFhbasepattern" />
  </defs>
  <path
     id="path5"
     d="  M 220.57831,386.49156   L 220.57831,386.49156   L 386.49156,220.57831   L 220.57831,54.665059   L 54.665059,220.57831   z "
     style="fill:#ff8080;fill-rule:evenodd;fill-opacity:1;stroke:none;" />
  <path
     id="path7"
     d="  M 220.57831,386.49156   L 220.57831,386.49156   L 386.49156,220.57831   L 220.57831,54.665059   L 54.665059,220.57831   z "
     style="fill:none;stroke:#000000;stroke-width:9.5903616px;stroke-linecap:butt;stroke-linejoin:miter;stroke-miterlimit:10;stroke-dasharray:none;stroke-opacity:1;" />
  <path
     id="path9"
     d="  M 163.99518,183.1759   C 163.99518,241.39739 195.72329,262.5761 248.67008,257.26144  "
     style="fill:none;stroke:#000000;stroke-width:10.589357px;stroke-linecap:butt;stroke-linejoin:miter;stroke-miterlimit:10;stroke-dasharray:none;stroke-opacity:1;" />
  <path
     id="path11"
     d="  M 169.26988,220.21867   L 169.26988,220.21867   L 227.49136,177.86124   L 227.49136,220.21867   L 285.75281,177.86124  "
     style="fill:none;stroke:#000000;stroke-width:10.589357px;stroke-linecap:butt;stroke-linejoin:miter;stroke-miterlimit:10;stroke-dasharray:none;stroke-opacity:1;" />
  <path
     id="path13"
     d="  M 112.88654,222.05682   L 118.04136,221.61727   C 118.28112,223.65522 118.84056,225.37349 119.71968,226.69217   C 120.63875,228.01084 121.99739,229.0498 123.8755,229.88895   C 125.75361,230.68815 127.87148,231.08775 130.18915,231.08775   C 132.26707,231.08775 134.10522,230.80803 135.70361,230.16867   C 137.30201,229.56927 138.5008,228.69016 139.26004,227.6512   C 140.05923,226.57229 140.41887,225.37349 140.41887,224.09478   C 140.41887,222.81606 140.05923,221.69719 139.3,220.73815   C 138.54076,219.73915 137.30201,218.93996 135.58373,218.3006   C 134.50482,217.86104 132.02731,217.18172 128.27108,216.26265   C 124.4749,215.38353 121.83755,214.50441 120.31907,213.70522   C 118.36104,212.66626 116.88253,211.38755 115.92349,209.86907   C 114.96446,208.3506 114.48494,206.63233 114.48494,204.75421   C 114.48494,202.6763 115.04438,200.71827 116.24317,198.92008   C 117.40201,197.12188 119.16024,195.72329 121.39799,194.80421   C 123.6757,193.84518 126.19317,193.40562 128.9504,193.40562   C 132.02731,193.40562 134.70462,193.88514 137.02229,194.88413   C 139.37992,195.84317 141.17811,197.28172 142.41687,199.1998   C 143.69558,201.11787 144.33494,203.2757 144.45482,205.71325   L 139.22008,206.11285   C 138.94036,203.4755 137.98132,201.51747 136.38293,200.19879   C 134.74458,198.88012 132.34699,198.2008 129.19016,198.2008   C 125.87349,198.2008 123.4759,198.8002 121.99739,199.99899   C 120.47891,201.23775 119.71968,202.6763 119.71968,204.39458   C 119.71968,205.87309 120.23915,207.07188 121.31807,208.03092   C 122.35703,208.98996 125.11426,209.98895 129.5498,210.98795   C 133.98534,211.98694 137.02229,212.86606 138.66064,213.58534   C 141.05823,214.70421 142.81646,216.10281 143.9753,217.78112   C 145.09417,219.49939 145.69357,221.45743 145.69357,223.65522   C 145.69357,225.85301 145.05421,227.93092 143.81546,229.84899   C 142.53674,231.80702 140.73855,233.28554 138.38092,234.36445   C 136.02329,235.44337 133.38594,236.00281 130.46887,236.00281   C 126.71265,236.00281 123.59578,235.44337 121.07831,234.36445   C 118.56084,233.28554 116.60281,231.64719 115.16426,229.44939   C 113.7257,227.29156 112.96646,224.81405 112.88654,222.05682   z "
     style="fill:#000000;fill-rule:evenodd;fill-opacity:1;stroke:none;" />
  <path
     id="path15"
     d="  M 290.30823,222.05682   L 295.46305,221.61727   C 295.70281,223.65522 296.26224,225.37349 297.14136,226.69217   C 298.06044,228.01084 299.41907,229.0498 301.29718,229.88895   C 303.1753,230.68815 305.29317,231.08775 307.61084,231.08775   C 309.68875,231.08775 311.5269,230.80803 313.1253,230.16867   C 314.72369,229.56927 315.92249,228.69016 316.68172,227.6512   C 317.48092,226.57229 317.84056,225.37349 317.84056,224.09478   C 317.84056,222.81606 317.48092,221.69719 316.72168,220.73815   C 315.96245,219.73915 314.72369,218.93996 313.00542,218.3006   C 311.9265,217.86104 309.44899,217.18172 305.69277,216.26265   C 301.89658,215.38353 299.25923,214.50441 297.74076,213.70522   C 295.78273,212.66626 294.30421,211.38755 293.34518,209.86907   C 292.38614,208.3506 291.90662,206.63233 291.90662,204.75421   C 291.90662,202.6763 292.46606,200.71827 293.66486,198.92008   C 294.82369,197.12188 296.58192,195.72329 298.81967,194.80421   C 301.09739,193.84518 303.61486,193.40562 306.37208,193.40562   C 309.44899,193.40562 312.1263,193.88514 314.44397,194.88413   C 316.8016,195.84317 318.59979,197.28172 319.83855,199.1998   C 321.11726,201.11787 321.75662,203.2757 321.8765,205.71325   L 316.64176,206.11285   C 316.36204,203.4755 315.40301,201.51747 313.80461,200.19879   C 312.16626,198.88012 309.76867,198.2008 306.61184,198.2008   C 303.29518,198.2008 300.89759,198.8002 299.41907,199.99899   C 297.9006,201.23775 297.14136,202.6763 297.14136,204.39458   C 297.14136,205.87309 297.66084,207.07188 298.73975,208.03092   C 299.77871,208.98996 302.53594,209.98895 306.97148,210.98795   C 311.40702,211.98694 314.44397,212.86606 316.08232,213.58534   C 318.47992,214.70421 320.23815,216.10281 321.39698,217.78112   C 322.51586,219.49939 323.11526,221.45743 323.11526,223.65522   C 323.11526,225.85301 322.4759,227.93092 321.23714,229.84899   C 319.95843,231.80702 318.16024,233.28554 315.80261,234.36445   C 313.44498,235.44337 310.80763,236.00281 307.89056,236.00281   C 304.13433,236.00281 301.01747,235.44337 298.5,234.36445   C 295.98253,233.28554 294.02449,231.64719 292.58594,229.44939   C 291.14739,227.29156 290.38815,224.81405 290.30823,222.05682   z "
     style="fill:#000000;fill-rule:evenodd;fill-opacity:1;stroke:none;" />
</svg>
