<?xml version="1.0" encoding="UTF-8" standalone="no"?>
<svg
   xmlns:dc="http://purl.org/dc/elements/1.1/"
   xmlns:cc="http://creativecommons.org/ns#"
   xmlns:rdf="http://www.w3.org/1999/02/22-rdf-syntax-ns#"
   xmlns:svg="http://www.w3.org/2000/svg"
   xmlns="http://www.w3.org/2000/svg"
   id="svg17"
   height="95.75mm"
   width="95.75mm"
   version="1.0">
  <metadata
     id="metadata21">
    <rdf:RDF>
      <cc:Work
         rdf:about="">
        <dc:format>image/svg+xml</dc:format>
        <dc:type
           rdf:resource="http://purl.org/dc/dcmitype/StillImage" />
      </cc:Work>
    </rdf:RDF>
  </metadata>
  <defs
     id="defs3">
    <pattern
       y="0"
       x="0"
       height="6"
       width="6"
       patternUnits="userSpaceOnUse"
       id="EMFhbasepattern" />
  </defs>
  <path
     id="path5"
     d="  M 54.345381,54.345381   L 54.345381,307.53092   L 307.53092,307.53092   L 307.53092,54.345381   L 54.345381,54.345381   z "
     style="fill:#aaffaa;fill-rule:evenodd;fill-opacity:1;stroke:none;" />
  <path
     id="path7"
     d="  M 54.345381,54.345381   L 307.53092,54.345381   L 307.53092,307.53092   L 54.345381,307.53092   z "
     style="fill:none;stroke:#000000;stroke-width:9.5903616px;stroke-linecap:butt;stroke-linejoin:miter;stroke-miterlimit:10;stroke-dasharray:none;stroke-opacity:1;" />
  <path
     id="path9"
     d="  M 124.35502,143.53574   C 124.35502,201.75723 156.08313,222.93594 209.02992,217.62128  "
     style="fill:none;stroke:#000000;stroke-width:10.589357px;stroke-linecap:butt;stroke-linejoin:miter;stroke-miterlimit:10;stroke-dasharray:none;stroke-opacity:1;" />
  <path
     id="path11"
     d="  M 129.62972,180.57851   L 129.62972,180.57851   L 187.8512,138.22108   L 187.8512,180.57851   L 246.11265,138.22108  "
     style="fill:none;stroke:#000000;stroke-width:10.589357px;stroke-linecap:butt;stroke-linejoin:miter;stroke-miterlimit:10;stroke-dasharray:none;stroke-opacity:1;" />
  <path
     id="path13"
     d="  M 73.246384,182.41666   L 78.401204,181.97711   C 78.640963,184.01506 79.2004,185.73333 80.079517,187.05201   C 80.998593,188.37068 82.357228,189.40964 84.23534,190.24879   C 86.113453,191.04799 88.231324,191.44759 90.548995,191.44759   C 92.626906,191.44759 94.465059,191.16787 96.063452,190.52851   C 97.661846,189.92911 98.860641,189.05 99.619878,188.01104   C 100.41907,186.93213 100.77871,185.73333 100.77871,184.45462   C 100.77871,183.1759 100.41907,182.05703 99.659838,181.09799   C 98.900601,180.09899 97.661846,179.2998 95.943573,178.66044   C 94.864657,178.22088 92.387147,177.54156 88.630922,176.62249   C 84.834738,175.74337 82.197388,174.86425 80.678914,174.06506   C 78.720882,173.0261 77.242368,171.74739 76.283332,170.22891   C 75.324296,168.71044 74.844778,166.99217 74.844778,165.11405   C 74.844778,163.03614 75.404216,161.07811 76.603011,159.27992   C 77.761846,157.48172 79.520079,156.08313 81.75783,155.16405   C 84.035541,154.20502 86.553011,153.76546 89.31024,153.76546   C 92.387147,153.76546 95.064456,154.24498 97.382127,155.24397   C 99.739758,156.20301 101.53795,157.64156 102.77671,159.55964   C 104.05542,161.47771 104.69478,163.63554 104.81466,166.07309   L 99.579918,166.47269   C 99.300199,163.83534 98.341163,161.87731 96.74277,160.55863   C 95.104416,159.23996 92.706826,158.56064 89.549999,158.56064   C 86.233332,158.56064 83.835742,159.16004 82.357228,160.35883   C 80.838754,161.59759 80.079517,163.03614 80.079517,164.75442   C 80.079517,166.23293 80.598995,167.43172 81.67791,168.39076   C 82.716866,169.3498 85.474095,170.34879 89.909637,171.34779   C 94.345179,172.34678 97.382127,173.2259 99.02048,173.94518   C 101.41807,175.06405 103.1763,176.46265 104.33514,178.14096   C 105.45401,179.85923 106.05341,181.81727 106.05341,184.01506   C 106.05341,186.21285 105.41405,188.29076 104.1753,190.20883   C 102.89658,192.16686 101.09839,193.64538 98.740762,194.72429   C 96.383131,195.80321 93.745782,196.36265 90.828714,196.36265   C 87.072489,196.36265 83.955621,195.80321 81.438151,194.72429   C 78.920682,193.64538 76.962649,192.00703 75.524095,189.80923   C 74.085541,187.6514 73.326304,185.17389 73.246384,182.41666   z "
     style="fill:#000000;fill-rule:evenodd;fill-opacity:1;stroke:none;" />
  <path
     id="path15"
     d="  M 250.66807,182.41666   L 255.82289,181.97711   C 256.06265,184.01506 256.62208,185.73333 257.5012,187.05201   C 258.42028,188.37068 259.77891,189.40964 261.65702,190.24879   C 263.53514,191.04799 265.65301,191.44759 267.97068,191.44759   C 270.04859,191.44759 271.88674,191.16787 273.48514,190.52851   C 275.08353,189.92911 276.28233,189.05 277.04156,188.01104   C 277.84076,186.93213 278.2004,185.73333 278.2004,184.45462   C 278.2004,183.1759 277.84076,182.05703 277.08152,181.09799   C 276.32229,180.09899 275.08353,179.2998 273.36526,178.66044   C 272.28634,178.22088 269.80883,177.54156 266.05261,176.62249   C 262.25642,175.74337 259.61907,174.86425 258.1006,174.06506   C 256.14257,173.0261 254.66405,171.74739 253.70502,170.22891   C 252.74598,168.71044 252.26646,166.99217 252.26646,165.11405   C 252.26646,163.03614 252.8259,161.07811 254.0247,159.27992   C 255.18353,157.48172 256.94176,156.08313 259.17951,155.16405   C 261.45723,154.20502 263.97469,153.76546 266.73192,153.76546   C 269.80883,153.76546 272.48614,154.24498 274.80381,155.24397   C 277.16144,156.20301 278.95963,157.64156 280.19839,159.55964   C 281.4771,161.47771 282.11646,163.63554 282.23634,166.07309   L 277.0016,166.47269   C 276.72188,163.83534 275.76285,161.87731 274.16445,160.55863   C 272.5261,159.23996 270.12851,158.56064 266.97168,158.56064   C 263.65502,158.56064 261.25743,159.16004 259.77891,160.35883   C 258.26044,161.59759 257.5012,163.03614 257.5012,164.75442   C 257.5012,166.23293 258.02068,167.43172 259.09959,168.39076   C 260.13855,169.3498 262.89578,170.34879 267.33132,171.34779   C 271.76686,172.34678 274.80381,173.2259 276.44216,173.94518   C 278.83976,175.06405 280.59799,176.46265 281.75682,178.14096   C 282.8757,179.85923 283.4751,181.81727 283.4751,184.01506   C 283.4751,186.21285 282.83574,188.29076 281.59698,190.20883   C 280.31827,192.16686 278.52008,193.64538 276.16245,194.72429   C 273.80482,195.80321 271.16747,196.36265 268.2504,196.36265   C 264.49417,196.36265 261.37731,195.80321 258.85984,194.72429   C 256.34237,193.64538 254.38433,192.00703 252.94578,189.80923   C 251.50723,187.6514 250.74799,185.17389 250.66807,182.41666   z "
     style="fill:#000000;fill-rule:evenodd;fill-opacity:1;stroke:none;" />
</svg>
