<?xml version="1.0" encoding="UTF-8" standalone="no"?>
<svg
   xmlns:dc="http://purl.org/dc/elements/1.1/"
   xmlns:cc="http://creativecommons.org/ns#"
   xmlns:rdf="http://www.w3.org/1999/02/22-rdf-syntax-ns#"
   xmlns:svg="http://www.w3.org/2000/svg"
   xmlns="http://www.w3.org/2000/svg"
   id="svg17"
   height="101.85mm"
   width="101.85mm"
   version="1.0">
  <metadata
     id="metadata21">
    <rdf:RDF>
      <cc:Work
         rdf:about="">
        <dc:format>image/svg+xml</dc:format>
        <dc:type
           rdf:resource="http://purl.org/dc/dcmitype/StillImage" />
      </cc:Work>
    </rdf:RDF>
  </metadata>
  <defs
     id="defs3">
    <pattern
       y="0"
       x="0"
       height="6"
       width="6"
       patternUnits="userSpaceOnUse"
       id="EMFhbasepattern" />
  </defs>
  <path
     id="path5"
     d="  M 330.54779,192.44658   C 330.54779,268.72992 268.72992,330.54779 192.44658,330.54779   C 116.20321,330.54779 54.345381,268.72992 54.345381,192.44658   C 54.345381,116.20321 116.20321,54.345381 192.44658,54.345381   C 268.72992,54.345381 330.54779,116.20321 330.54779,192.44658   z "
     style="fill:#80e0ff;fill-rule:evenodd;fill-opacity:1;stroke:none;" />
  <path
     id="path7"
     d="  M 330.54779,192.44658   C 330.54779,268.72992 268.72992,330.54779 192.44658,330.54779   C 116.20321,330.54779 54.345381,268.72992 54.345381,192.44658   C 54.345381,116.20321 116.20321,54.345381 192.44658,54.345381   C 268.72992,54.345381 330.54779,116.20321 330.54779,192.44658  "
     style="fill:none;stroke:#000000;stroke-width:9.5903616px;stroke-linecap:butt;stroke-linejoin:miter;stroke-miterlimit:10;stroke-dasharray:none;stroke-opacity:1;" />
  <path
     id="path9"
     d="  M 135.86345,155.04417   C 135.86345,213.26566 167.59156,234.44437 220.53835,229.12972  "
     style="fill:none;stroke:#000000;stroke-width:10.589357px;stroke-linecap:butt;stroke-linejoin:miter;stroke-miterlimit:10;stroke-dasharray:none;stroke-opacity:1;" />
  <path
     id="path11"
     d="  M 141.13815,192.08695   L 141.13815,192.08695   L 199.35964,149.72952   L 199.35964,192.08695   L 257.62108,149.72952  "
     style="fill:none;stroke:#000000;stroke-width:10.589357px;stroke-linecap:butt;stroke-linejoin:miter;stroke-miterlimit:10;stroke-dasharray:none;stroke-opacity:1;" />
  <path
     id="path13"
     d="  M 116.00341,192.7263   L 121.43795,194.08494   C 120.31907,198.56044 118.24116,201.99699 115.28413,204.31466   C 112.32711,206.67229 108.69076,207.87108 104.41506,207.87108   C 99.979517,207.87108 96.343171,206.95201 93.585942,205.15381   C 90.788754,203.35562 88.670882,200.71827 87.232328,197.28172   C 85.753814,193.88514 85.034537,190.16887 85.034537,186.25281   C 85.034537,181.97711 85.873694,178.22088 87.512047,175.02409   C 89.1504,171.82731 91.468071,169.38976 94.505019,167.7514   C 97.541966,166.07309 100.85863,165.27389 104.49498,165.27389   C 108.61084,165.27389 112.08735,166.31285 114.88454,168.39076   C 117.68173,170.50863 119.63976,173.46566 120.75863,177.26184   L 115.40401,178.54056   C 114.44498,175.54357 113.04638,173.34578 111.20823,171.98715   C 109.41004,170.62851 107.13233,169.90923 104.3751,169.90923   C 101.21827,169.90923 98.580922,170.66847 96.423091,172.18695   C 94.30522,173.70542 92.826705,175.74337 91.947589,178.3008   C 91.108432,180.85823 90.668874,183.49558 90.668874,186.21285   C 90.668874,189.72931 91.188352,192.76626 92.187348,195.40361   C 93.226304,198.001 94.784738,199.95903 96.942569,201.23775   C 99.1004,202.55642 101.45803,203.19578 103.93554,203.19578   C 107.01245,203.19578 109.56988,202.31666 111.68775,200.55843   C 113.80562,198.8002 115.24418,196.16285 116.00341,192.7263   z "
     style="fill:#000000;fill-rule:evenodd;fill-opacity:1;stroke:none;" />
  <path
     id="path15"
     d="  M 259.49919,207.1518   L 275.32329,165.95321   L 281.19739,165.95321   L 298.06044,207.1518   L 291.86666,207.1518   L 287.03152,194.68433   L 269.80883,194.68433   L 265.29337,207.1518   z  M 271.40722,190.24879   L 285.35321,190.24879   L 281.07751,178.82028   C 279.75883,175.38373 278.75984,172.50662 278.16044,170.30883   C 277.601,172.94618 276.88172,175.54357 275.92269,178.14096   z "
     style="fill:#000000;fill-rule:evenodd;fill-opacity:1;stroke:none;" />
</svg>
