<?xml version="1.0" encoding="UTF-8" standalone="no"?>
<svg
   xmlns:dc="http://purl.org/dc/elements/1.1/"
   xmlns:cc="http://creativecommons.org/ns#"
   xmlns:rdf="http://www.w3.org/1999/02/22-rdf-syntax-ns#"
   xmlns:svg="http://www.w3.org/2000/svg"
   xmlns="http://www.w3.org/2000/svg"
   id="svg17"
   height="130.27mm"
   width="130.27mm"
   version="1.0">
  <metadata
     id="metadata21">
    <rdf:RDF>
      <cc:Work
         rdf:about="">
        <dc:format>image/svg+xml</dc:format>
        <dc:type
           rdf:resource="http://purl.org/dc/dcmitype/StillImage" />
      </cc:Work>
    </rdf:RDF>
  </metadata>
  <defs
     id="defs3">
    <pattern
       y="0"
       x="0"
       height="6"
       width="6"
       patternUnits="userSpaceOnUse"
       id="EMFhbasepattern" />
  </defs>
  <path
     id="path5"
     d="  M 164.63454,327.67068   C 164.63454,437.95983 327.67068,437.95983 327.67068,327.67068   C 437.95983,327.67068 437.95983,164.63454 327.67068,164.63454   C 327.67068,54.345381 164.63454,54.345381 164.63454,164.63454   C 54.345381,164.63454 54.345381,327.67068 164.63454,327.67068   z "
     style="fill:#ffff80;fill-rule:evenodd;fill-opacity:1;stroke:none;" />
  <path
     id="path7"
     d="  M 164.63454,327.67068   C 164.63454,437.95983 327.67068,437.95983 327.67068,327.67068   C 437.95983,327.67068 437.95983,164.63454 327.67068,164.63454   C 327.67068,54.345381 164.63454,54.345381 164.63454,164.63454   C 54.345381,164.63454 54.345381,327.67068 164.63454,327.67068  "
     style="fill:none;stroke:#000000;stroke-width:9.5903616px;stroke-linecap:butt;stroke-linejoin:miter;stroke-miterlimit:10;stroke-dasharray:none;stroke-opacity:1;" />
  <path
     id="path9"
     d="  M 189.56948,208.7502   C 189.56948,266.97168 221.29759,288.1504 274.24437,282.83574  "
     style="fill:none;stroke:#000000;stroke-width:10.589357px;stroke-linecap:butt;stroke-linejoin:miter;stroke-miterlimit:10;stroke-dasharray:none;stroke-opacity:1;" />
  <path
     id="path11"
     d="  M 194.84417,245.79297   L 194.84417,245.79297   L 253.06566,203.43554   L 253.06566,245.79297   L 311.3271,203.43554  "
     style="fill:none;stroke:#000000;stroke-width:10.589357px;stroke-linecap:butt;stroke-linejoin:miter;stroke-miterlimit:10;stroke-dasharray:none;stroke-opacity:1;" />
  <path
     id="path13"
     d="  M 144.93434,260.85783   L 144.93434,219.65923   L 153.16606,219.65923   L 162.91626,248.82992   C 163.79538,251.54719 164.4747,253.58514 164.87429,254.94377   C 165.35381,253.4253 166.07309,251.22751 167.07209,248.31044   L 176.90221,219.65923   L 184.25482,219.65923   L 184.25482,260.85783   L 179.02008,260.85783   L 179.02008,226.37249   L 167.03213,260.85783   L 162.11707,260.85783   L 150.20903,225.81305   L 150.20903,260.85783   z "
     style="fill:#000000;fill-rule:evenodd;fill-opacity:1;stroke:none;" />
  <path
     id="path15"
     d="  M 332.2261,244.71405   L 332.2261,239.87891   L 349.68855,239.83895   L 349.68855,255.14357   C 347.01124,257.26144 344.21405,258.85984 341.3769,259.93875   C 338.53975,261.01767 335.62269,261.5771 332.6257,261.5771   C 328.54979,261.5771 324.91345,260.69799 321.59678,258.97972   C 318.28012,257.22148 315.80261,254.74397 314.08433,251.46727   C 312.40602,248.19056 311.56686,244.51425 311.56686,240.47831   C 311.56686,236.44237 312.40602,232.7261 314.08433,229.2496   C 315.76265,225.77309 318.16024,223.1757 321.31706,221.49739   C 324.47389,219.81907 328.11024,218.97992 332.18614,218.97992   C 335.18313,218.97992 337.86044,219.45943 340.25803,220.41847   C 342.69558,221.37751 344.57369,222.73614 345.93232,224.45441   C 347.29096,226.17269 348.32991,228.41044 349.04919,231.20763   L 344.13413,232.5263   C 343.53473,230.44839 342.73554,228.81004 341.81646,227.61124   C 340.89738,226.41245 339.61867,225.45341 337.9004,224.73413   C 336.18212,224.01486 334.30401,223.61526 332.2261,223.61526   C 329.74859,223.61526 327.59076,224.01486 325.75261,224.77409   C 323.95441,225.53333 322.4759,226.53233 321.35702,227.77108   C 320.23815,229.00984 319.39899,230.36847 318.75963,231.84698   C 317.72068,234.40441 317.2012,237.16164 317.2012,240.11867   C 317.2012,243.79498 317.84056,246.87188 319.07931,249.34939   C 320.35803,251.8269 322.19618,253.66506 324.59377,254.86385   C 327.03132,256.06265 329.58875,256.66204 332.30602,256.66204   C 334.66365,256.66204 336.98132,256.18253 339.21907,255.30341   C 341.45682,254.38433 343.1751,253.4253 344.33393,252.38634   L 344.33393,244.71405   z "
     style="fill:#000000;fill-rule:evenodd;fill-opacity:1;stroke:none;" />
</svg>
