<?xml version="1.0" encoding="UTF-8" standalone="no"?>
<svg
   xmlns:dc="http://purl.org/dc/elements/1.1/"
   xmlns:cc="http://creativecommons.org/ns#"
   xmlns:rdf="http://www.w3.org/1999/02/22-rdf-syntax-ns#"
   xmlns:svg="http://www.w3.org/2000/svg"
   xmlns="http://www.w3.org/2000/svg"
   id="svg17"
   height="116.73mm"
   width="116.73mm"
   version="1.0">
  <metadata
     id="metadata21">
    <rdf:RDF>
      <cc:Work
         rdf:about="">
        <dc:format>image/svg+xml</dc:format>
        <dc:type
           rdf:resource="http://purl.org/dc/dcmitype/StillImage" />
      </cc:Work>
    </rdf:RDF>
  </metadata>
  <defs
     id="defs3">
    <pattern
       y="0"
       x="0"
       height="6"
       width="6"
       patternUnits="userSpaceOnUse"
       id="EMFhbasepattern" />
  </defs>
  <path
     id="path5"
     d="  M 220.57831,386.49156   L 220.57831,386.49156   L 386.49156,220.57831   L 220.57831,54.665059   L 54.665059,220.57831   z "
     style="fill:#ff8080;fill-rule:evenodd;fill-opacity:1;stroke:none;" />
  <path
     id="path7"
     d="  M 220.57831,386.49156   L 220.57831,386.49156   L 386.49156,220.57831   L 220.57831,54.665059   L 54.665059,220.57831   z "
     style="fill:none;stroke:#000000;stroke-width:9.5903616px;stroke-linecap:butt;stroke-linejoin:miter;stroke-miterlimit:10;stroke-dasharray:none;stroke-opacity:1;" />
  <path
     id="path9"
     d="  M 163.99518,183.1759   C 163.99518,241.39739 195.72329,262.5761 248.67008,257.26144  "
     style="fill:none;stroke:#000000;stroke-width:10.589357px;stroke-linecap:butt;stroke-linejoin:miter;stroke-miterlimit:10;stroke-dasharray:none;stroke-opacity:1;" />
  <path
     id="path11"
     d="  M 169.26988,220.21867   L 169.26988,220.21867   L 227.49136,177.86124   L 227.49136,220.21867   L 285.75281,177.86124  "
     style="fill:none;stroke:#000000;stroke-width:10.589357px;stroke-linecap:butt;stroke-linejoin:miter;stroke-miterlimit:10;stroke-dasharray:none;stroke-opacity:1;" />
  <path
     id="path13"
     d="  M 119.36004,235.28353   L 119.36004,194.08494   L 127.59177,194.08494   L 137.34197,223.25562   C 138.22108,225.97289 138.9004,228.01084 139.3,229.36947   C 139.77952,227.851 140.49879,225.65321 141.49779,222.73614   L 151.32791,194.08494   L 158.68052,194.08494   L 158.68052,235.28353   L 153.44578,235.28353   L 153.44578,200.79819   L 141.45783,235.28353   L 136.54277,235.28353   L 124.63474,200.23875   L 124.63474,235.28353   z "
     style="fill:#000000;fill-rule:evenodd;fill-opacity:1;stroke:none;" />
  <path
     id="path15"
     d="  M 282.83574,235.28353   L 298.65984,194.08494   L 304.53393,194.08494   L 321.39698,235.28353   L 315.20321,235.28353   L 310.36807,222.81606   L 293.14538,222.81606   L 288.62992,235.28353   z  M 294.74377,218.38052   L 308.68975,218.38052   L 304.41405,206.95201   C 303.09538,203.51546 302.09638,200.63835 301.49698,198.44056   C 300.93755,201.07791 300.21827,203.6753 299.25923,206.27269   z "
     style="fill:#000000;fill-rule:evenodd;fill-opacity:1;stroke:none;" />
</svg>
