<?xml version="1.0" encoding="UTF-8" standalone="no"?>
<svg
   xmlns:dc="http://purl.org/dc/elements/1.1/"
   xmlns:cc="http://creativecommons.org/ns#"
   xmlns:rdf="http://www.w3.org/1999/02/22-rdf-syntax-ns#"
   xmlns:svg="http://www.w3.org/2000/svg"
   xmlns="http://www.w3.org/2000/svg"
   id="svg17"
   height="101.85mm"
   width="101.85mm"
   version="1.0">
  <metadata
     id="metadata21">
    <rdf:RDF>
      <cc:Work
         rdf:about="">
        <dc:format>image/svg+xml</dc:format>
        <dc:type
           rdf:resource="http://purl.org/dc/dcmitype/StillImage" />
      </cc:Work>
    </rdf:RDF>
  </metadata>
  <defs
     id="defs3">
    <pattern
       y="0"
       x="0"
       height="6"
       width="6"
       patternUnits="userSpaceOnUse"
       id="EMFhbasepattern" />
  </defs>
  <path
     id="path5"
     d="  M 330.54779,192.44658   C 330.54779,268.72992 268.72992,330.54779 192.44658,330.54779   C 116.20321,330.54779 54.345381,268.72992 54.345381,192.44658   C 54.345381,116.20321 116.20321,54.345381 192.44658,54.345381   C 268.72992,54.345381 330.54779,116.20321 330.54779,192.44658   z "
     style="fill:#80e0ff;fill-rule:evenodd;fill-opacity:1;stroke:none;" />
  <path
     id="path7"
     d="  M 330.54779,192.44658   C 330.54779,268.72992 268.72992,330.54779 192.44658,330.54779   C 116.20321,330.54779 54.345381,268.72992 54.345381,192.44658   C 54.345381,116.20321 116.20321,54.345381 192.44658,54.345381   C 268.72992,54.345381 330.54779,116.20321 330.54779,192.44658  "
     style="fill:none;stroke:#000000;stroke-width:9.5903616px;stroke-linecap:butt;stroke-linejoin:miter;stroke-miterlimit:10;stroke-dasharray:none;stroke-opacity:1;" />
  <path
     id="path9"
     d="  M 135.86345,155.04417   C 135.86345,213.26566 167.59156,234.44437 220.53835,229.12972  "
     style="fill:none;stroke:#000000;stroke-width:10.589357px;stroke-linecap:butt;stroke-linejoin:miter;stroke-miterlimit:10;stroke-dasharray:none;stroke-opacity:1;" />
  <path
     id="path11"
     d="  M 141.13815,192.08695   L 141.13815,192.08695   L 199.35964,149.72952   L 199.35964,192.08695   L 257.62108,149.72952  "
     style="fill:none;stroke:#000000;stroke-width:10.589357px;stroke-linecap:butt;stroke-linejoin:miter;stroke-miterlimit:10;stroke-dasharray:none;stroke-opacity:1;" />
  <path
     id="path13"
     d="  M 91.228312,207.1518   L 91.228312,165.95321   L 99.460039,165.95321   L 109.21024,195.12389   C 110.08936,197.84116 110.76867,199.87911 111.16827,201.23775   C 111.64779,199.71927 112.36707,197.52148 113.36606,194.60441   L 123.19618,165.95321   L 130.54879,165.95321   L 130.54879,207.1518   L 125.31405,207.1518   L 125.31405,172.66646   L 113.3261,207.1518   L 108.41104,207.1518   L 96.503011,172.10703   L 96.503011,207.1518   z "
     style="fill:#000000;fill-rule:evenodd;fill-opacity:1;stroke:none;" />
  <path
     id="path15"
     d="  M 278.52008,191.00803   L 278.52008,186.17289   L 295.98253,186.13293   L 295.98253,201.43755   C 293.30522,203.55542 290.50803,205.15381 287.67088,206.23273   C 284.83373,207.31164 281.91666,207.87108 278.91967,207.87108   C 274.84377,207.87108 271.20743,206.99196 267.89076,205.27369   C 264.57409,203.51546 262.09658,201.03795 260.37831,197.76124   C 258.7,194.48454 257.86084,190.80823 257.86084,186.77229   C 257.86084,182.73634 258.7,179.02008 260.37831,175.54357   C 262.05662,172.06707 264.45421,169.46968 267.61104,167.79136   C 270.76787,166.11305 274.40421,165.27389 278.48012,165.27389   C 281.4771,165.27389 284.15441,165.75341 286.552,166.71245   C 288.98955,167.67148 290.86767,169.03012 292.2263,170.74839   C 293.58494,172.46666 294.62389,174.70442 295.34317,177.5016   L 290.42811,178.82028   C 289.82871,176.74237 289.02951,175.10401 288.11044,173.90522   C 287.19136,172.70642 285.91265,171.74739 284.19437,171.02811   C 282.4761,170.30883 280.59799,169.90923 278.52008,169.90923   C 276.04257,169.90923 273.88473,170.30883 272.04658,171.06807   C 270.24839,171.82731 268.76988,172.8263 267.651,174.06506   C 266.53212,175.30381 265.69297,176.66245 265.05361,178.14096   C 264.01465,180.69839 263.49518,183.45562 263.49518,186.41265   C 263.49518,190.08895 264.13453,193.16586 265.37329,195.64337   C 266.652,198.12088 268.49016,199.95903 270.88775,201.15783   C 273.3253,202.35662 275.88273,202.95602 278.6,202.95602   C 280.95763,202.95602 283.2753,202.4765 285.51305,201.59739   C 287.7508,200.67831 289.46907,199.71927 290.62791,198.68032   L 290.62791,191.00803   z "
     style="fill:#000000;fill-rule:evenodd;fill-opacity:1;stroke:none;" />
</svg>
