<?xml version="1.0" encoding="UTF-8" standalone="no"?>
<svg
   xmlns:dc="http://purl.org/dc/elements/1.1/"
   xmlns:cc="http://creativecommons.org/ns#"
   xmlns:rdf="http://www.w3.org/1999/02/22-rdf-syntax-ns#"
   xmlns:svg="http://www.w3.org/2000/svg"
   xmlns="http://www.w3.org/2000/svg"
   id="svg17"
   height="116.73mm"
   width="116.73mm"
   version="1.0">
  <metadata
     id="metadata21">
    <rdf:RDF>
      <cc:Work
         rdf:about="">
        <dc:format>image/svg+xml</dc:format>
        <dc:type
           rdf:resource="http://purl.org/dc/dcmitype/StillImage" />
      </cc:Work>
    </rdf:RDF>
  </metadata>
  <defs
     id="defs3">
    <pattern
       y="0"
       x="0"
       height="6"
       width="6"
       patternUnits="userSpaceOnUse"
       id="EMFhbasepattern" />
  </defs>
  <path
     id="path5"
     d="  M 220.57831,386.49156   L 220.57831,386.49156   L 386.49156,220.57831   L 220.57831,54.665059   L 54.665059,220.57831   z "
     style="fill:#ff8080;fill-rule:evenodd;fill-opacity:1;stroke:none;" />
  <path
     id="path7"
     d="  M 220.57831,386.49156   L 220.57831,386.49156   L 386.49156,220.57831   L 220.57831,54.665059   L 54.665059,220.57831   z "
     style="fill:none;stroke:#000000;stroke-width:9.5903616px;stroke-linecap:butt;stroke-linejoin:miter;stroke-miterlimit:10;stroke-dasharray:none;stroke-opacity:1;" />
  <path
     id="path9"
     d="  M 163.99518,183.1759   C 163.99518,241.39739 195.72329,262.5761 248.67008,257.26144  "
     style="fill:none;stroke:#000000;stroke-width:10.589357px;stroke-linecap:butt;stroke-linejoin:miter;stroke-miterlimit:10;stroke-dasharray:none;stroke-opacity:1;" />
  <path
     id="path11"
     d="  M 169.26988,220.21867   L 169.26988,220.21867   L 227.49136,177.86124   L 227.49136,220.21867   L 285.75281,177.86124  "
     style="fill:none;stroke:#000000;stroke-width:10.589357px;stroke-linecap:butt;stroke-linejoin:miter;stroke-miterlimit:10;stroke-dasharray:none;stroke-opacity:1;" />
  <path
     id="path13"
     d="  M 151.36787,194.08494   L 156.80241,194.08494   L 156.80241,217.901   C 156.80241,222.01686 156.36285,225.33353 155.40381,227.77108   C 154.48474,230.20863 152.76646,232.16666 150.32891,233.68514   C 147.89136,235.24357 144.69458,236.00281 140.69859,236.00281   C 136.86245,236.00281 133.70562,235.32349 131.26807,234.00482   C 128.79056,232.64618 127.03233,230.72811 125.99337,228.21064   C 124.95442,225.69317 124.43494,222.25662 124.43494,217.901   L 124.43494,194.08494   L 129.86948,194.08494   L 129.86948,217.86104   C 129.86948,221.45743 130.18915,224.09478 130.86847,225.77309   C 131.54779,227.49136 132.66666,228.77008 134.30502,229.68915   C 135.90341,230.60823 137.9014,231.08775 140.25903,231.08775   C 144.25502,231.08775 147.09217,230.16867 148.81044,228.33052   C 150.52871,226.53233 151.36787,223.05582 151.36787,217.86104   z "
     style="fill:#000000;fill-rule:evenodd;fill-opacity:1;stroke:none;" />
  <path
     id="path15"
     d="  M 287.31124,235.28353   L 287.31124,194.08494   L 292.90562,194.08494   L 314.52389,226.45241   L 314.52389,194.08494   L 319.75863,194.08494   L 319.75863,235.28353   L 314.16425,235.28353   L 292.54598,202.91606   L 292.54598,235.28353   z "
     style="fill:#000000;fill-rule:evenodd;fill-opacity:1;stroke:none;" />
</svg>
