<?xml version="1.0" encoding="UTF-8" standalone="no"?>
<svg
   xmlns:dc="http://purl.org/dc/elements/1.1/"
   xmlns:cc="http://creativecommons.org/ns#"
   xmlns:rdf="http://www.w3.org/1999/02/22-rdf-syntax-ns#"
   xmlns:svg="http://www.w3.org/2000/svg"
   xmlns="http://www.w3.org/2000/svg"
   id="svg17"
   height="130.27mm"
   width="130.27mm"
   version="1.0">
  <metadata
     id="metadata21">
    <rdf:RDF>
      <cc:Work
         rdf:about="">
        <dc:format>image/svg+xml</dc:format>
        <dc:type
           rdf:resource="http://purl.org/dc/dcmitype/StillImage" />
      </cc:Work>
    </rdf:RDF>
  </metadata>
  <defs
     id="defs3">
    <pattern
       y="0"
       x="0"
       height="6"
       width="6"
       patternUnits="userSpaceOnUse"
       id="EMFhbasepattern" />
  </defs>
  <path
     id="path5"
     d="  M 164.63454,327.67068   C 164.63454,437.95983 327.67068,437.95983 327.67068,327.67068   C 437.95983,327.67068 437.95983,164.63454 327.67068,164.63454   C 327.67068,54.345381 164.63454,54.345381 164.63454,164.63454   C 54.345381,164.63454 54.345381,327.67068 164.63454,327.67068   z "
     style="fill:#ffff80;fill-rule:evenodd;fill-opacity:1;stroke:none;" />
  <path
     id="path7"
     d="  M 164.63454,327.67068   C 164.63454,437.95983 327.67068,437.95983 327.67068,327.67068   C 437.95983,327.67068 437.95983,164.63454 327.67068,164.63454   C 327.67068,54.345381 164.63454,54.345381 164.63454,164.63454   C 54.345381,164.63454 54.345381,327.67068 164.63454,327.67068  "
     style="fill:none;stroke:#000000;stroke-width:9.5903616px;stroke-linecap:butt;stroke-linejoin:miter;stroke-miterlimit:10;stroke-dasharray:none;stroke-opacity:1;" />
  <path
     id="path9"
     d="  M 189.56948,208.7502   C 189.56948,266.97168 221.29759,288.1504 274.24437,282.83574  "
     style="fill:none;stroke:#000000;stroke-width:10.589357px;stroke-linecap:butt;stroke-linejoin:miter;stroke-miterlimit:10;stroke-dasharray:none;stroke-opacity:1;" />
  <path
     id="path11"
     d="  M 194.84417,245.79297   L 194.84417,245.79297   L 253.06566,203.43554   L 253.06566,245.79297   L 311.3271,203.43554  "
     style="fill:none;stroke:#000000;stroke-width:10.589357px;stroke-linecap:butt;stroke-linejoin:miter;stroke-miterlimit:10;stroke-dasharray:none;stroke-opacity:1;" />
  <path
     id="path13"
     d="  M 138.46084,247.63112   L 143.61566,247.19156   C 143.85542,249.22951 144.41486,250.94779 145.29397,252.26646   C 146.21305,253.58514 147.57168,254.62409 149.4498,255.46325   C 151.32791,256.26245 153.44578,256.66204 155.76345,256.66204   C 157.84136,256.66204 159.67952,256.38233 161.27791,255.74297   C 162.8763,255.14357 164.0751,254.26445 164.83433,253.2255   C 165.63353,252.14658 165.99317,250.94779 165.99317,249.66907   C 165.99317,248.39036 165.63353,247.27148 164.87429,246.31245   C 164.11506,245.31345 162.8763,244.51425 161.15803,243.8749   C 160.07911,243.43534 157.6016,242.75602 153.84538,241.83694   C 150.04919,240.95783 147.41185,240.07871 145.89337,239.27951   C 143.93534,238.24056 142.45683,236.96184 141.49779,235.44337   C 140.53875,233.9249 140.05923,232.20662 140.05923,230.32851   C 140.05923,228.2506 140.61867,226.29257 141.81747,224.49437   C 142.9763,222.69618 144.73454,221.29759 146.97229,220.37851   C 149.25,219.41947 151.76747,218.97992 154.5247,218.97992   C 157.6016,218.97992 160.27891,219.45943 162.59658,220.45843   C 164.95421,221.41747 166.75241,222.85602 167.99116,224.77409   C 169.26988,226.69217 169.90923,228.85 170.02911,231.28755   L 164.79438,231.68715   C 164.51466,229.0498 163.55562,227.09176 161.95723,225.77309   C 160.31887,224.45441 157.92128,223.7751 154.76446,223.7751   C 151.44779,223.7751 149.0502,224.37449 147.57168,225.57329   C 146.05321,226.81204 145.29397,228.2506 145.29397,229.96887   C 145.29397,231.44739 145.81345,232.64618 146.89237,233.60522   C 147.93132,234.56425 150.68855,235.56325 155.12409,236.56225   C 159.55964,237.56124 162.59658,238.44036 164.23494,239.15964   C 166.63253,240.27851 168.39076,241.6771 169.5496,243.35542   C 170.66847,245.07369 171.26787,247.03172 171.26787,249.22951   C 171.26787,251.42731 170.62851,253.50522 169.38976,255.42329   C 168.11104,257.38132 166.31285,258.85984 163.95522,259.93875   C 161.59759,261.01767 158.96024,261.5771 156.04317,261.5771   C 152.28695,261.5771 149.17008,261.01767 146.65261,259.93875   C 144.13514,258.85984 142.17711,257.22148 140.73855,255.02369   C 139.3,252.86586 138.54076,250.38835 138.46084,247.63112   z "
     style="fill:#000000;fill-rule:evenodd;fill-opacity:1;stroke:none;" />
  <path
     id="path15"
     d="  M 315.88253,247.63112   L 321.03734,247.19156   C 321.2771,249.22951 321.83654,250.94779 322.71566,252.26646   C 323.63473,253.58514 324.99337,254.62409 326.87148,255.46325   C 328.74959,256.26245 330.86747,256.66204 333.18514,256.66204   C 335.26305,256.66204 337.1012,256.38233 338.69959,255.74297   C 340.29799,255.14357 341.49678,254.26445 342.25602,253.2255   C 343.05522,252.14658 343.41485,250.94779 343.41485,249.66907   C 343.41485,248.39036 343.05522,247.27148 342.29598,246.31245   C 341.53674,245.31345 340.29799,244.51425 338.57971,243.8749   C 337.5008,243.43534 335.02329,242.75602 331.26706,241.83694   C 327.47088,240.95783 324.83353,240.07871 323.31506,239.27951   C 321.35702,238.24056 319.87851,236.96184 318.91947,235.44337   C 317.96044,233.9249 317.48092,232.20662 317.48092,230.32851   C 317.48092,228.2506 318.04036,226.29257 319.23915,224.49437   C 320.39799,222.69618 322.15622,221.29759 324.39397,220.37851   C 326.67168,219.41947 329.18915,218.97992 331.94638,218.97992   C 335.02329,218.97992 337.7006,219.45943 340.01827,220.45843   C 342.3759,221.41747 344.17409,222.85602 345.41285,224.77409   C 346.69156,226.69217 347.33092,228.85 347.4508,231.28755   L 342.21606,231.68715   C 341.93634,229.0498 340.9773,227.09176 339.37891,225.77309   C 337.74056,224.45441 335.34297,223.7751 332.18614,223.7751   C 328.86947,223.7751 326.47188,224.37449 324.99337,225.57329   C 323.47489,226.81204 322.71566,228.2506 322.71566,229.96887   C 322.71566,231.44739 323.23514,232.64618 324.31405,233.60522   C 325.35301,234.56425 328.11024,235.56325 332.54578,236.56225   C 336.98132,237.56124 340.01827,238.44036 341.65662,239.15964   C 344.05421,240.27851 345.81244,241.6771 346.97128,243.35542   C 348.09016,245.07369 348.68955,247.03172 348.68955,249.22951   C 348.68955,251.42731 348.0502,253.50522 346.81144,255.42329   C 345.53273,257.38132 343.73453,258.85984 341.3769,259.93875   C 339.01927,261.01767 336.38192,261.5771 333.46485,261.5771   C 329.70863,261.5771 326.59176,261.01767 324.07429,259.93875   C 321.55682,258.85984 319.59879,257.22148 318.16024,255.02369   C 316.72168,252.86586 315.96245,250.38835 315.88253,247.63112   z "
     style="fill:#000000;fill-rule:evenodd;fill-opacity:1;stroke:none;" />
</svg>
