<?xml version="1.0" encoding="UTF-8" standalone="no"?>
<svg
   xmlns:dc="http://purl.org/dc/elements/1.1/"
   xmlns:cc="http://creativecommons.org/ns#"
   xmlns:rdf="http://www.w3.org/1999/02/22-rdf-syntax-ns#"
   xmlns:svg="http://www.w3.org/2000/svg"
   xmlns="http://www.w3.org/2000/svg"
   id="svg25"
   height="101.85mm"
   width="101.85mm"
   version="1.0">
  <metadata
     id="metadata29">
    <rdf:RDF>
      <cc:Work
         rdf:about="">
        <dc:format>image/svg+xml</dc:format>
        <dc:type
           rdf:resource="http://purl.org/dc/dcmitype/StillImage" />
      </cc:Work>
    </rdf:RDF>
  </metadata>
  <defs
     id="defs3">
    <pattern
       y="0"
       x="0"
       height="6"
       width="6"
       patternUnits="userSpaceOnUse"
       id="EMFhbasepattern" />
  </defs>
  <path
     id="path5"
     d="  M 330.54779,192.44658   C 330.54779,268.72992 268.72992,330.54779 192.44658,330.54779   C 116.20321,330.54779 54.345381,268.72992 54.345381,192.44658   C 54.345381,116.20321 116.20321,54.345381 192.44658,54.345381   C 268.72992,54.345381 330.54779,116.20321 330.54779,192.44658   z "
     style="fill:#80e0ff;fill-rule:evenodd;fill-opacity:1;stroke:none;" />
  <path
     id="path7"
     d="  M 330.54779,192.44658   C 330.54779,268.72992 268.72992,330.54779 192.44658,330.54779   C 116.20321,330.54779 54.345381,268.72992 54.345381,192.44658   C 54.345381,116.20321 116.20321,54.345381 192.44658,54.345381   C 268.72992,54.345381 330.54779,116.20321 330.54779,192.44658  "
     style="fill:none;stroke:#000000;stroke-width:9.5903616px;stroke-linecap:butt;stroke-linejoin:miter;stroke-miterlimit:10;stroke-dasharray:none;stroke-opacity:1;" />
  <path
     id="path9"
     d="  M 166.55261,293.14538   L 217.38152,293.14538  "
     style="fill:none;stroke:#000000;stroke-width:9.5903616px;stroke-linecap:butt;stroke-linejoin:miter;stroke-miterlimit:10;stroke-dasharray:none;stroke-opacity:1;" />
  <path
     id="path11"
     d="  M 192.44658,293.14538   L 192.44658,173.26586  "
     style="fill:none;stroke:#000000;stroke-width:9.5903616px;stroke-linecap:butt;stroke-linejoin:miter;stroke-miterlimit:10;stroke-dasharray:none;stroke-opacity:1;" />
  <path
     id="path13"
     d="  M 182.85622,155.04417   L 146.41285,142.5767   L 156.96225,126.27309   L 123.39598,115.72369  "
     style="fill:none;stroke:#000000;stroke-width:9.5903616px;stroke-linecap:butt;stroke-linejoin:miter;stroke-miterlimit:10;stroke-dasharray:none;stroke-opacity:1;" />
  <path
     id="path15"
     d="  M 202.03694,155.04417   L 238.48032,142.5767   L 227.93092,126.27309   L 261.49718,115.72369  "
     style="fill:none;stroke:#000000;stroke-width:9.5903616px;stroke-linecap:butt;stroke-linejoin:miter;stroke-miterlimit:10;stroke-dasharray:none;stroke-opacity:1;" />
  <path
     id="path17"
     d="  M 182.85622,168.47068   L 146.41285,181.89719   L 156.96225,197.24176   L 123.39598,208.7502  "
     style="fill:none;stroke:#000000;stroke-width:9.5903616px;stroke-linecap:butt;stroke-linejoin:miter;stroke-miterlimit:10;stroke-dasharray:none;stroke-opacity:1;" />
  <path
     id="path19"
     d="  M 202.03694,168.47068   L 238.48032,181.89719   L 227.93092,197.24176   L 261.49718,208.7502  "
     style="fill:none;stroke:#000000;stroke-width:9.5903616px;stroke-linecap:butt;stroke-linejoin:miter;stroke-miterlimit:10;stroke-dasharray:none;stroke-opacity:1;" />
  <path
     id="path21"
     d="  M 137.50181,250.50823   L 142.65662,250.06867   C 142.89638,252.10662 143.45582,253.8249 144.33494,255.14357   C 145.25401,256.46225 146.61265,257.5012 148.49076,258.34036   C 150.36887,259.13955 152.48674,259.53915 154.80442,259.53915   C 156.88233,259.53915 158.72048,259.25943 160.31887,258.62008   C 161.91727,258.02068 163.11606,257.14156 163.8753,256.10261   C 164.6745,255.02369 165.03413,253.8249 165.03413,252.54618   C 165.03413,251.26747 164.6745,250.14859 163.91526,249.18955   C 163.15602,248.19056 161.91727,247.39136 160.19899,246.752   C 159.12008,246.31245 156.64257,245.63313 152.88634,244.71405   C 149.09016,243.83494 146.45281,242.95582 144.93434,242.15662   C 142.9763,241.11767 141.49779,239.83895 140.53875,238.32048   C 139.57972,236.802 139.1002,235.08373 139.1002,233.20562   C 139.1002,231.12771 139.65964,229.16968 140.85843,227.37148   C 142.01727,225.57329 143.7755,224.1747 146.01325,223.25562   C 148.29096,222.29658 150.80843,221.85702 153.56566,221.85702   C 156.64257,221.85702 159.31988,222.33654 161.63755,223.33554   C 163.99518,224.29458 165.79337,225.73313 167.03213,227.6512   C 168.31084,229.56927 168.9502,231.72711 169.07008,234.16466   L 163.83534,234.56425   C 163.55562,231.9269 162.59658,229.96887 160.99819,228.6502   C 159.35984,227.33152 156.96225,226.65221 153.80542,226.65221   C 150.48875,226.65221 148.09116,227.2516 146.61265,228.4504   C 145.09417,229.68915 144.33494,231.12771 144.33494,232.84598   C 144.33494,234.32449 144.85442,235.52329 145.93333,236.48233   C 146.97229,237.44136 149.72952,238.44036 154.16506,239.43935   C 158.6006,240.43835 161.63755,241.31747 163.2759,242.03674   C 165.67349,243.15562 167.43172,244.55421 168.59056,246.23253   C 169.70944,247.9508 170.30883,249.90883 170.30883,252.10662   C 170.30883,254.30441 169.66948,256.38233 168.43072,258.3004   C 167.15201,260.25843 165.35381,261.73694 162.99618,262.81586   C 160.63855,263.89478 158.0012,264.45421 155.08413,264.45421   C 151.32791,264.45421 148.21104,263.89478 145.69357,262.81586   C 143.1761,261.73694 141.21807,260.09859 139.77952,257.9008   C 138.34096,255.74297 137.58172,253.26546 137.50181,250.50823   z "
     style="fill:#000000;fill-rule:evenodd;fill-opacity:1;stroke:none;" />
  <path
     id="path23"
     d="  M 243.11566,222.53634   L 248.5502,222.53634   L 248.5502,246.35241   C 248.5502,250.46827 248.11064,253.78494 247.1516,256.22249   C 246.23253,258.66004 244.51425,260.61807 242.0767,262.13654   C 239.63915,263.69498 236.44237,264.45421 232.44638,264.45421   C 228.61024,264.45421 225.45341,263.7749 223.01586,262.45622   C 220.53835,261.09759 218.78012,259.17951 217.74116,256.66204   C 216.70221,254.14457 216.18273,250.70803 216.18273,246.35241   L 216.18273,222.53634   L 221.61727,222.53634   L 221.61727,246.31245   C 221.61727,249.90883 221.93694,252.54618 222.61626,254.22449   C 223.29558,255.94277 224.41445,257.22148 226.05281,258.14056   C 227.6512,259.05963 229.64919,259.53915 232.00682,259.53915   C 236.00281,259.53915 238.83996,258.62008 240.55823,256.78192   C 242.2765,254.98373 243.11566,251.50723 243.11566,246.31245   z "
     style="fill:#000000;fill-rule:evenodd;fill-opacity:1;stroke:none;" />
</svg>
