<?xml version="1.0" encoding="UTF-8" standalone="no"?>
<svg
   xmlns:dc="http://purl.org/dc/elements/1.1/"
   xmlns:cc="http://creativecommons.org/ns#"
   xmlns:rdf="http://www.w3.org/1999/02/22-rdf-syntax-ns#"
   xmlns:svg="http://www.w3.org/2000/svg"
   xmlns="http://www.w3.org/2000/svg"
   id="svg25"
   height="116.73mm"
   width="116.73mm"
   version="1.0">
  <metadata
     id="metadata29">
    <rdf:RDF>
      <cc:Work
         rdf:about="">
        <dc:format>image/svg+xml</dc:format>
        <dc:type
           rdf:resource="http://purl.org/dc/dcmitype/StillImage" />
      </cc:Work>
    </rdf:RDF>
  </metadata>
  <defs
     id="defs3">
    <pattern
       y="0"
       x="0"
       height="6"
       width="6"
       patternUnits="userSpaceOnUse"
       id="EMFhbasepattern" />
  </defs>
  <path
     id="path5"
     d="  M 220.57831,386.49156   L 220.57831,386.49156   L 386.49156,220.57831   L 220.57831,54.665059   L 54.665059,220.57831   z "
     style="fill:#ff8080;fill-rule:evenodd;fill-opacity:1;stroke:none;" />
  <path
     id="path7"
     d="  M 220.57831,386.49156   L 220.57831,386.49156   L 386.49156,220.57831   L 220.57831,54.665059   L 54.665059,220.57831   z "
     style="fill:none;stroke:#000000;stroke-width:9.5903616px;stroke-linecap:butt;stroke-linejoin:miter;stroke-miterlimit:10;stroke-dasharray:none;stroke-opacity:1;" />
  <path
     id="path9"
     d="  M 194.68433,321.2771   L 245.51325,321.2771  "
     style="fill:none;stroke:#000000;stroke-width:9.5903616px;stroke-linecap:butt;stroke-linejoin:miter;stroke-miterlimit:10;stroke-dasharray:none;stroke-opacity:1;" />
  <path
     id="path11"
     d="  M 220.57831,321.2771   L 220.57831,201.39759  "
     style="fill:none;stroke:#000000;stroke-width:9.5903616px;stroke-linecap:butt;stroke-linejoin:miter;stroke-miterlimit:10;stroke-dasharray:none;stroke-opacity:1;" />
  <path
     id="path13"
     d="  M 210.98795,183.1759   L 174.54458,170.70843   L 185.09397,154.40482   L 151.52771,143.85542  "
     style="fill:none;stroke:#000000;stroke-width:9.5903616px;stroke-linecap:butt;stroke-linejoin:miter;stroke-miterlimit:10;stroke-dasharray:none;stroke-opacity:1;" />
  <path
     id="path15"
     d="  M 230.16867,183.1759   L 266.61204,170.70843   L 256.06265,154.40482   L 289.62891,143.85542  "
     style="fill:none;stroke:#000000;stroke-width:9.5903616px;stroke-linecap:butt;stroke-linejoin:miter;stroke-miterlimit:10;stroke-dasharray:none;stroke-opacity:1;" />
  <path
     id="path17"
     d="  M 210.98795,196.60241   L 174.54458,210.02891   L 185.09397,225.37349   L 151.52771,236.88192  "
     style="fill:none;stroke:#000000;stroke-width:9.5903616px;stroke-linecap:butt;stroke-linejoin:miter;stroke-miterlimit:10;stroke-dasharray:none;stroke-opacity:1;" />
  <path
     id="path19"
     d="  M 230.16867,196.60241   L 266.61204,210.02891   L 256.06265,225.37349   L 289.62891,236.88192  "
     style="fill:none;stroke:#000000;stroke-width:9.5903616px;stroke-linecap:butt;stroke-linejoin:miter;stroke-miterlimit:10;stroke-dasharray:none;stroke-opacity:1;" />
  <path
     id="path21"
     d="  M 167.51164,291.86666   L 167.51164,250.66807   L 183.01606,250.66807   C 185.77329,250.66807 187.8512,250.82791 189.28976,251.06767   C 191.32771,251.42731 193.00602,252.06666 194.36466,252.98574   C 195.76325,253.94478 196.84217,255.26345 197.68132,256.98172   C 198.52048,258.66004 198.92008,260.53815 198.92008,262.5761   C 198.92008,266.09257 197.8012,269.04959 195.60341,271.48714   C 193.36566,273.92469 189.32972,275.12349 183.49558,275.12349   L 172.94618,275.12349   L 172.94618,291.86666   z  M 172.94618,270.24839   L 183.5755,270.24839   C 187.13193,270.24839 189.60944,269.60903 191.08795,268.29036   C 192.56646,266.97168 193.3257,265.13353 193.3257,262.7759   C 193.3257,261.05763 192.88614,259.57911 192.00703,258.34036   C 191.12791,257.1016 190.00903,256.30241 188.57048,255.90281   C 187.6514,255.66305 185.97309,255.54317 183.49558,255.54317   L 172.94618,255.54317   z "
     style="fill:#000000;fill-rule:evenodd;fill-opacity:1;stroke:none;" />
  <path
     id="path23"
     d="  M 244.23453,291.86666   L 244.23453,250.66807   L 259.73895,250.66807   C 262.49618,250.66807 264.57409,250.82791 266.01265,251.06767   C 268.0506,251.42731 269.72891,252.06666 271.08755,252.98574   C 272.48614,253.94478 273.56506,255.26345 274.40421,256.98172   C 275.24337,258.66004 275.64297,260.53815 275.64297,262.5761   C 275.64297,266.09257 274.52409,269.04959 272.3263,271.48714   C 270.08855,273.92469 266.05261,275.12349 260.21847,275.12349   L 249.66907,275.12349   L 249.66907,291.86666   z  M 249.66907,270.24839   L 260.29839,270.24839   C 263.85482,270.24839 266.33233,269.60903 267.81084,268.29036   C 269.28935,266.97168 270.04859,265.13353 270.04859,262.7759   C 270.04859,261.05763 269.60903,259.57911 268.72992,258.34036   C 267.8508,257.1016 266.73192,256.30241 265.29337,255.90281   C 264.37429,255.66305 262.69598,255.54317 260.21847,255.54317   L 249.66907,255.54317   z "
     style="fill:#000000;fill-rule:evenodd;fill-opacity:1;stroke:none;" />
</svg>
