<?xml version="1.0" encoding="UTF-8" standalone="no"?>
<svg
   xmlns:dc="http://purl.org/dc/elements/1.1/"
   xmlns:cc="http://creativecommons.org/ns#"
   xmlns:rdf="http://www.w3.org/1999/02/22-rdf-syntax-ns#"
   xmlns:svg="http://www.w3.org/2000/svg"
   xmlns="http://www.w3.org/2000/svg"
   id="svg25"
   height="130.27mm"
   width="130.27mm"
   version="1.0">
  <metadata
     id="metadata29">
    <rdf:RDF>
      <cc:Work
         rdf:about="">
        <dc:format>image/svg+xml</dc:format>
        <dc:type
           rdf:resource="http://purl.org/dc/dcmitype/StillImage" />
      </cc:Work>
    </rdf:RDF>
  </metadata>
  <defs
     id="defs3">
    <pattern
       y="0"
       x="0"
       height="6"
       width="6"
       patternUnits="userSpaceOnUse"
       id="EMFhbasepattern" />
  </defs>
  <path
     id="path5"
     d="  M 164.63454,327.67068   C 164.63454,437.95983 327.67068,437.95983 327.67068,327.67068   C 437.95983,327.67068 437.95983,164.63454 327.67068,164.63454   C 327.67068,54.345381 164.63454,54.345381 164.63454,164.63454   C 54.345381,164.63454 54.345381,327.67068 164.63454,327.67068   z "
     style="fill:#ffff80;fill-rule:evenodd;fill-opacity:1;stroke:none;" />
  <path
     id="path7"
     d="  M 164.63454,327.67068   C 164.63454,437.95983 327.67068,437.95983 327.67068,327.67068   C 437.95983,327.67068 437.95983,164.63454 327.67068,164.63454   C 327.67068,54.345381 164.63454,54.345381 164.63454,164.63454   C 54.345381,164.63454 54.345381,327.67068 164.63454,327.67068  "
     style="fill:none;stroke:#000000;stroke-width:9.5903616px;stroke-linecap:butt;stroke-linejoin:miter;stroke-miterlimit:10;stroke-dasharray:none;stroke-opacity:1;" />
  <path
     id="path9"
     d="  M 220.25863,346.8514   L 271.08755,346.8514  "
     style="fill:none;stroke:#000000;stroke-width:9.5903616px;stroke-linecap:butt;stroke-linejoin:miter;stroke-miterlimit:10;stroke-dasharray:none;stroke-opacity:1;" />
  <path
     id="path11"
     d="  M 246.15261,346.8514   L 246.15261,226.97188  "
     style="fill:none;stroke:#000000;stroke-width:9.5903616px;stroke-linecap:butt;stroke-linejoin:miter;stroke-miterlimit:10;stroke-dasharray:none;stroke-opacity:1;" />
  <path
     id="path13"
     d="  M 236.56225,208.7502   L 200.11887,196.28273   L 210.66827,179.97911   L 177.10201,169.42972  "
     style="fill:none;stroke:#000000;stroke-width:9.5903616px;stroke-linecap:butt;stroke-linejoin:miter;stroke-miterlimit:10;stroke-dasharray:none;stroke-opacity:1;" />
  <path
     id="path15"
     d="  M 255.74297,208.7502   L 292.18634,196.28273   L 281.63694,179.97911   L 315.20321,169.42972  "
     style="fill:none;stroke:#000000;stroke-width:9.5903616px;stroke-linecap:butt;stroke-linejoin:miter;stroke-miterlimit:10;stroke-dasharray:none;stroke-opacity:1;" />
  <path
     id="path17"
     d="  M 236.56225,222.1767   L 200.11887,235.60321   L 210.66827,250.94779   L 177.10201,262.45622  "
     style="fill:none;stroke:#000000;stroke-width:9.5903616px;stroke-linecap:butt;stroke-linejoin:miter;stroke-miterlimit:10;stroke-dasharray:none;stroke-opacity:1;" />
  <path
     id="path19"
     d="  M 255.74297,222.1767   L 292.18634,235.60321   L 281.63694,250.94779   L 315.20321,262.45622  "
     style="fill:none;stroke:#000000;stroke-width:9.5903616px;stroke-linecap:butt;stroke-linejoin:miter;stroke-miterlimit:10;stroke-dasharray:none;stroke-opacity:1;" />
  <path
     id="path21"
     d="  M 191.20783,304.21425   L 196.36265,303.77469   C 196.60241,305.81265 197.16184,307.53092 198.04096,308.84959   C 198.96004,310.16827 200.31867,311.20722 202.19678,312.04638   C 204.0749,312.84558 206.19277,313.24518 208.51044,313.24518   C 210.58835,313.24518 212.4265,312.96546 214.0249,312.3261   C 215.62329,311.7267 216.82209,310.84759 217.58132,309.80863   C 218.38052,308.72971 218.74016,307.53092 218.74016,306.2522   C 218.74016,304.97349 218.38052,303.85461 217.62128,302.89558   C 216.86205,301.89658 215.62329,301.09739 213.90502,300.45803   C 212.8261,300.01847 210.34859,299.33915 206.59237,298.42008   C 202.79618,297.54096 200.15883,296.66184 198.64036,295.86265   C 196.68233,294.82369 195.20381,293.54498 194.24478,292.0265   C 193.28574,290.50803 192.80622,288.78975 192.80622,286.91164   C 192.80622,284.83373 193.36566,282.8757 194.56446,281.07751   C 195.72329,279.27931 197.48152,277.88072 199.71927,276.96164   C 201.99699,276.00261 204.51445,275.56305 207.27168,275.56305   C 210.34859,275.56305 213.0259,276.04257 215.34357,277.04156   C 217.7012,278.0006 219.49939,279.43915 220.73815,281.35722   C 222.01686,283.2753 222.65622,285.43313 222.7761,287.87068   L 217.54136,288.27028   C 217.26164,285.63293 216.30261,283.6749 214.70421,282.35622   C 213.06586,281.03755 210.66827,280.35823 207.51144,280.35823   C 204.19478,280.35823 201.79719,280.95763 200.31867,282.15642   C 198.8002,283.39518 198.04096,284.83373 198.04096,286.552   C 198.04096,288.03052 198.56044,289.22931 199.63935,290.18835   C 200.67831,291.14739 203.43554,292.14638 207.87108,293.14538   C 212.30662,294.14437 215.34357,295.02349 216.98192,295.74277   C 219.37951,296.86164 221.13775,298.26024 222.29658,299.93855   C 223.41546,301.65682 224.01486,303.61486 224.01486,305.81265   C 224.01486,308.01044 223.3755,310.08835 222.13674,312.00642   C 220.85803,313.96445 219.05984,315.44297 216.70221,316.52188   C 214.34458,317.6008 211.70723,318.16024 208.79016,318.16024   C 205.03393,318.16024 201.91707,317.6008 199.3996,316.52188   C 196.88213,315.44297 194.92409,313.80461 193.48554,311.60682   C 192.04699,309.44899 191.28775,306.97148 191.20783,304.21425   z "
     style="fill:#000000;fill-rule:evenodd;fill-opacity:1;stroke:none;" />
  <path
     id="path23"
     d="  M 296.82168,276.24237   L 302.25622,276.24237   L 302.25622,300.05843   C 302.25622,304.17429 301.81666,307.49096 300.85763,309.92851   C 299.93855,312.36606 298.22028,314.32409 295.78273,315.84257   C 293.34518,317.401 290.14839,318.16024 286.15241,318.16024   C 282.31626,318.16024 279.15943,317.48092 276.72188,316.16224   C 274.24437,314.80361 272.48614,312.88554 271.44718,310.36807   C 270.40823,307.8506 269.88875,304.41405 269.88875,300.05843   L 269.88875,276.24237   L 275.32329,276.24237   L 275.32329,300.01847   C 275.32329,303.61486 275.64297,306.2522 276.32229,307.93052   C 277.0016,309.64879 278.12048,310.92751 279.75883,311.84658   C 281.35722,312.76566 283.35522,313.24518 285.71285,313.24518   C 289.70883,313.24518 292.54598,312.3261 294.26425,310.48795   C 295.98253,308.68975 296.82168,305.21325 296.82168,300.01847   z "
     style="fill:#000000;fill-rule:evenodd;fill-opacity:1;stroke:none;" />
</svg>
