<?xml version="1.0" encoding="UTF-8" standalone="no"?>
<svg
   xmlns:dc="http://purl.org/dc/elements/1.1/"
   xmlns:cc="http://creativecommons.org/ns#"
   xmlns:rdf="http://www.w3.org/1999/02/22-rdf-syntax-ns#"
   xmlns:svg="http://www.w3.org/2000/svg"
   xmlns="http://www.w3.org/2000/svg"
   id="svg17"
   height="116.73mm"
   width="116.73mm"
   version="1.0">
  <metadata
     id="metadata21">
    <rdf:RDF>
      <cc:Work
         rdf:about="">
        <dc:format>image/svg+xml</dc:format>
        <dc:type
           rdf:resource="http://purl.org/dc/dcmitype/StillImage" />
      </cc:Work>
    </rdf:RDF>
  </metadata>
  <defs
     id="defs3">
    <pattern
       y="0"
       x="0"
       height="6"
       width="6"
       patternUnits="userSpaceOnUse"
       id="EMFhbasepattern" />
  </defs>
  <path
     id="path5"
     d="  M 220.57831,386.49156   L 220.57831,386.49156   L 386.49156,220.57831   L 220.57831,54.665059   L 54.665059,220.57831   z "
     style="fill:#ff8080;fill-rule:evenodd;fill-opacity:1;stroke:none;" />
  <path
     id="path7"
     d="  M 220.57831,386.49156   L 220.57831,386.49156   L 386.49156,220.57831   L 220.57831,54.665059   L 54.665059,220.57831   z "
     style="fill:none;stroke:#000000;stroke-width:9.5903616px;stroke-linecap:butt;stroke-linejoin:miter;stroke-miterlimit:10;stroke-dasharray:none;stroke-opacity:1;" />
  <path
     id="path9"
     d="  M 163.99518,183.1759   C 163.99518,241.39739 195.72329,262.5761 248.67008,257.26144  "
     style="fill:none;stroke:#000000;stroke-width:10.589357px;stroke-linecap:butt;stroke-linejoin:miter;stroke-miterlimit:10;stroke-dasharray:none;stroke-opacity:1;" />
  <path
     id="path11"
     d="  M 169.26988,220.21867   L 169.26988,220.21867   L 227.49136,177.86124   L 227.49136,220.21867   L 285.75281,177.86124  "
     style="fill:none;stroke:#000000;stroke-width:10.589357px;stroke-linecap:butt;stroke-linejoin:miter;stroke-miterlimit:10;stroke-dasharray:none;stroke-opacity:1;" />
  <path
     id="path13"
     d="  M 144.13514,220.85803   L 149.56968,222.21666   C 148.4508,226.69217 146.37289,230.12871 143.41586,232.44638   C 140.45883,234.80401 136.82249,236.00281 132.54679,236.00281   C 128.11124,236.00281 124.4749,235.08373 121.71767,233.28554   C 118.92048,231.48735 116.80261,228.85 115.36405,225.41345   C 113.88554,222.01686 113.16626,218.3006 113.16626,214.38454   C 113.16626,210.10883 114.00542,206.35261 115.64377,203.15582   C 117.28213,199.95903 119.5998,197.52148 122.63675,195.88313   C 125.67369,194.20482 128.99036,193.40562 132.6267,193.40562   C 136.74257,193.40562 140.21907,194.44458 143.01626,196.52249   C 145.81345,198.64036 147.77148,201.59739 148.89036,205.39357   L 143.53574,206.67229   C 142.5767,203.6753 141.17811,201.47751 139.33996,200.11887   C 137.54177,198.76024 135.26405,198.04096 132.50683,198.04096   C 129.35,198.04096 126.71265,198.8002 124.55482,200.31867   C 122.43695,201.83715 120.95843,203.8751 120.07932,206.43253   C 119.24016,208.98996 118.8006,211.62731 118.8006,214.34458   C 118.8006,217.86104 119.32008,220.89799 120.31907,223.53534   C 121.35803,226.13273 122.91646,228.09076 125.0743,229.36947   C 127.23213,230.68815 129.58976,231.32751 132.06727,231.32751   C 135.14417,231.32751 137.7016,230.44839 139.81948,228.69016   C 141.93735,226.93192 143.3759,224.29458 144.13514,220.85803   z "
     style="fill:#000000;fill-rule:evenodd;fill-opacity:1;stroke:none;" />
  <path
     id="path15"
     d="  M 287.63092,235.28353   L 303.45502,194.08494   L 309.32911,194.08494   L 326.19216,235.28353   L 319.99839,235.28353   L 315.16325,222.81606   L 297.94056,222.81606   L 293.4251,235.28353   z  M 299.53895,218.38052   L 313.48494,218.38052   L 309.20923,206.95201   C 307.89056,203.51546 306.89156,200.63835 306.29216,198.44056   C 305.73273,201.07791 305.01345,203.6753 304.05441,206.27269   z "
     style="fill:#000000;fill-rule:evenodd;fill-opacity:1;stroke:none;" />
</svg>
