<?xml version="1.0" encoding="UTF-8" standalone="no"?>
<svg
   xmlns:dc="http://purl.org/dc/elements/1.1/"
   xmlns:cc="http://creativecommons.org/ns#"
   xmlns:rdf="http://www.w3.org/1999/02/22-rdf-syntax-ns#"
   xmlns:svg="http://www.w3.org/2000/svg"
   xmlns="http://www.w3.org/2000/svg"
   id="svg13"
   height="95.75mm"
   width="95.75mm"
   version="1.0">
  <metadata
     id="metadata17">
    <rdf:RDF>
      <cc:Work
         rdf:about="">
        <dc:format>image/svg+xml</dc:format>
        <dc:type
           rdf:resource="http://purl.org/dc/dcmitype/StillImage" />
      </cc:Work>
    </rdf:RDF>
  </metadata>
  <defs
     id="defs3">
    <pattern
       y="0"
       x="0"
       height="6"
       width="6"
       patternUnits="userSpaceOnUse"
       id="EMFhbasepattern" />
  </defs>
  <path
     id="path5"
     d="  M 54.345381,54.345381   L 54.345381,307.53092   L 307.53092,307.53092   L 307.53092,54.345381   L 54.345381,54.345381   z "
     style="fill:#aaffaa;fill-rule:evenodd;fill-opacity:1;stroke:none;" />
  <path
     id="path7"
     d="  M 54.345381,54.345381   L 307.53092,54.345381   L 307.53092,307.53092   L 54.345381,307.53092   z "
     style="fill:none;stroke:#000000;stroke-width:9.5903616px;stroke-linecap:butt;stroke-linejoin:miter;stroke-miterlimit:10;stroke-dasharray:none;stroke-opacity:1;" />
  <path
     id="path9"
     d="  M 91.148392,184.45462   L 97.581926,183.89518   C 97.901605,186.45261 98.620882,188.57048 99.699798,190.24879   C 100.81867,191.88715 102.53695,193.20582 104.89458,194.24478   C 107.25221,195.24377 109.88956,195.76325 112.80662,195.76325   C 115.40401,195.76325 117.68173,195.36365 119.67972,194.60441   C 121.67771,193.84518 123.15622,192.76626 124.11526,191.44759   C 125.11426,190.08895 125.59377,188.61044 125.59377,187.01205   C 125.59377,185.41365 125.11426,184.01506 124.15522,182.7763   C 123.23614,181.57751 121.67771,180.57851 119.51988,179.73935   C 118.16124,179.21988 115.08434,178.38072 110.36907,177.22188   C 105.65381,176.10301 102.33715,175.02409 100.41907,174.0251   C 97.981525,172.74638 96.143372,171.14799 94.944577,169.22992   C 93.745782,167.31184 93.146384,165.19397 93.146384,162.83634   C 93.146384,160.23895 93.865661,157.8014 95.344175,155.52369   C 96.822689,153.28594 98.980521,151.56767 101.81767,150.40883   C 104.65482,149.21004 107.77169,148.6506 111.24819,148.6506   C 115.08434,148.6506 118.44096,149.25 121.35803,150.48875   C 124.2751,151.68755 126.51285,153.5257 128.07128,155.88333   C 129.62972,158.28092 130.46887,160.99819 130.58875,163.99518   L 124.0753,164.51466   C 123.71566,161.23795 122.51687,158.8004 120.51887,157.12209   C 118.48092,155.48373 115.48393,154.64458 111.52791,154.64458   C 107.41205,154.64458 104.41506,155.40381 102.53695,156.92229   C 100.65883,158.4008 99.699798,160.23895 99.699798,162.35682   C 99.699798,164.23494 100.37912,165.75341 101.69779,166.91225   C 103.01646,168.11104 106.45301,169.3498 111.96747,170.58855   C 117.52189,171.86727 121.31807,172.94618 123.35602,173.86526   C 126.35301,175.26385 128.59076,177.02209 129.98936,179.13996   C 131.42791,181.25783 132.14719,183.69538 132.14719,186.45261   C 132.14719,189.20984 131.34799,191.76727 129.78956,194.20482   C 128.23112,196.64237 125.95341,198.52048 123.03634,199.83915   C 120.07932,201.19779 116.80261,201.87711 113.1263,201.87711   C 108.451,201.87711 104.53494,201.19779 101.41807,199.83915   C 98.261244,198.48052 95.783734,196.44257 93.985541,193.7253   C 92.187348,190.96807 91.268272,187.89116 91.148392,184.45462   z  M 141.57771,200.99799   L 141.57771,149.48976   L 178.82028,149.48976   L 178.82028,155.60361   L 148.41084,155.60361   L 148.41084,171.34779   L 176.90221,171.34779   L 176.90221,177.38172   L 148.41084,177.38172   L 148.41084,194.92409   L 180.01907,194.92409   L 180.01907,200.99799   z  M 183.7753,200.99799   L 203.55542,149.48976   L 210.90803,149.48976   L 231.96686,200.99799   L 224.21466,200.99799   L 218.18072,185.41365   L 196.68233,185.41365   L 191.00803,200.99799   z  M 198.64036,179.85923   L 216.10281,179.85923   L 210.70823,165.59357   C 209.06988,161.27791 207.87108,157.72148 207.07188,154.92429   C 206.39257,158.24096 205.47349,161.51767 204.2747,164.75442   z  M 237.12168,200.99799   L 237.12168,149.48976   L 243.95482,149.48976   L 243.95482,194.92409   L 269.28935,194.92409   L 269.28935,200.99799   z "
     style="fill:#000000;fill-rule:evenodd;fill-opacity:1;stroke:none;" />
  <path
     id="path11"
     d="  M 91.148392,184.45462   L 97.581926,183.89518   C 97.901605,186.45261 98.620882,188.57048 99.699798,190.24879   C 100.81867,191.88715 102.53695,193.20582 104.89458,194.24478   C 107.25221,195.24377 109.88956,195.76325 112.80662,195.76325   C 115.40401,195.76325 117.68173,195.36365 119.67972,194.60441   C 121.67771,193.84518 123.15622,192.76626 124.11526,191.44759   C 125.11426,190.08895 125.59377,188.61044 125.59377,187.01205   C 125.59377,185.41365 125.11426,184.01506 124.15522,182.7763   C 123.23614,181.57751 121.67771,180.57851 119.51988,179.73935   C 118.16124,179.21988 115.08434,178.38072 110.36907,177.22188   C 105.65381,176.10301 102.33715,175.02409 100.41907,174.0251   C 97.981525,172.74638 96.143372,171.14799 94.944577,169.22992   C 93.745782,167.31184 93.146384,165.19397 93.146384,162.83634   C 93.146384,160.23895 93.865661,157.8014 95.344175,155.52369   C 96.822689,153.28594 98.980521,151.56767 101.81767,150.40883   C 104.65482,149.21004 107.77169,148.6506 111.24819,148.6506   C 115.08434,148.6506 118.44096,149.25 121.35803,150.48875   C 124.2751,151.68755 126.51285,153.5257 128.07128,155.88333   C 129.62972,158.28092 130.46887,160.99819 130.58875,163.99518   L 124.0753,164.51466   C 123.71566,161.23795 122.51687,158.8004 120.51887,157.12209   C 118.48092,155.48373 115.48393,154.64458 111.52791,154.64458   C 107.41205,154.64458 104.41506,155.40381 102.53695,156.92229   C 100.65883,158.4008 99.699798,160.23895 99.699798,162.35682   C 99.699798,164.23494 100.37912,165.75341 101.69779,166.91225   C 103.01646,168.11104 106.45301,169.3498 111.96747,170.58855   C 117.52189,171.86727 121.31807,172.94618 123.35602,173.86526   C 126.35301,175.26385 128.59076,177.02209 129.98936,179.13996   C 131.42791,181.25783 132.14719,183.69538 132.14719,186.45261   C 132.14719,189.20984 131.34799,191.76727 129.78956,194.20482   C 128.23112,196.64237 125.95341,198.52048 123.03634,199.83915   C 120.07932,201.19779 116.80261,201.87711 113.1263,201.87711   C 108.451,201.87711 104.53494,201.19779 101.41807,199.83915   C 98.261244,198.48052 95.783734,196.44257 93.985541,193.7253   C 92.187348,190.96807 91.268272,187.89116 91.148392,184.45462   z  M 141.57771,200.99799   L 141.57771,149.48976   L 178.82028,149.48976   L 178.82028,155.60361   L 148.41084,155.60361   L 148.41084,171.34779   L 176.90221,171.34779   L 176.90221,177.38172   L 148.41084,177.38172   L 148.41084,194.92409   L 180.01907,194.92409   L 180.01907,200.99799   z  M 183.7753,200.99799   L 203.55542,149.48976   L 210.90803,149.48976   L 231.96686,200.99799   L 224.21466,200.99799   L 218.18072,185.41365   L 196.68233,185.41365   L 191.00803,200.99799   z  M 198.64036,179.85923   L 216.10281,179.85923   L 210.70823,165.59357   C 209.06988,161.27791 207.87108,157.72148 207.07188,154.92429   C 206.39257,158.24096 205.47349,161.51767 204.2747,164.75442   z  M 237.12168,200.99799   L 237.12168,149.48976   L 243.95482,149.48976   L 243.95482,194.92409   L 269.28935,194.92409   L 269.28935,200.99799   z "
     style="fill:none;stroke:#000000;stroke-width:0.95903611px;stroke-linecap:butt;stroke-linejoin:miter;stroke-miterlimit:10;stroke-dasharray:none;stroke-opacity:1;" />
</svg>
