<?xml version="1.0" encoding="UTF-8" standalone="no"?>
<svg
   xmlns:dc="http://purl.org/dc/elements/1.1/"
   xmlns:cc="http://creativecommons.org/ns#"
   xmlns:rdf="http://www.w3.org/1999/02/22-rdf-syntax-ns#"
   xmlns:svg="http://www.w3.org/2000/svg"
   xmlns="http://www.w3.org/2000/svg"
   id="svg17"
   height="112.9mm"
   width="112.9mm"
   version="1.0">
  <metadata
     id="metadata21">
    <rdf:RDF>
      <cc:Work
         rdf:about="">
        <dc:format>image/svg+xml</dc:format>
        <dc:type
           rdf:resource="http://purl.org/dc/dcmitype/StillImage" />
      </cc:Work>
    </rdf:RDF>
  </metadata>
  <defs
     id="defs3">
    <pattern
       y="0"
       x="0"
       height="6"
       width="6"
       patternUnits="userSpaceOnUse"
       id="EMFhbasepattern" />
  </defs>
  <path
     id="path5"
     d="  M 1817.1379,2190.121   L 2190.121,1817.1379  "
     style="fill:none;stroke:#00ff00;stroke-width:10.649107px;stroke-linecap:butt;stroke-linejoin:miter;stroke-miterlimit:282;stroke-dasharray:none;stroke-opacity:1;" />
  <path
     id="path7"
     d="  M 1817.1379,1817.1379   L 2190.121,2190.121  "
     style="fill:none;stroke:#00ff00;stroke-width:10.649107px;stroke-linecap:butt;stroke-linejoin:miter;stroke-miterlimit:282;stroke-dasharray:none;stroke-opacity:1;" />
  <path
     id="path9"
     d="  M 2003.6105,2003.6483   L 1929.029,1929.029   L 2078.2298,1929.029   z "
     style="fill:#00ff00;fill-rule:nonzero;fill-opacity:1;stroke:#00ff00;stroke-width:10.649107px;stroke-linecap:butt;stroke-linejoin:miter;stroke-miterlimit:282;stroke-dasharray:none;stroke-opacity:1;" />
  <path
     id="path11"
     d="  M 2003.6105,2003.6483   L 2078.2298,2078.2298   L 1929.029,2078.2298   z "
     style="fill:#00ff00;fill-rule:nonzero;fill-opacity:1;stroke:#00ff00;stroke-width:10.649107px;stroke-linecap:butt;stroke-linejoin:miter;stroke-miterlimit:282;stroke-dasharray:none;stroke-opacity:1;" />
  <path
     id="path13"
     d="  M 1826.994,2051.6071   L 1826.994,1960.0323   L 1858.5259,1960.0323   C 1865.6253,1960.0323 1871.0632,1960.4854 1874.8394,1961.354   C 1880.0507,1962.5624 1884.5445,1964.7526 1888.2452,1967.9247   C 1893.0789,1972.0031 1896.7041,1977.2144 1899.0831,1983.5585   C 1901.4622,1989.9027 1902.6706,1997.1531 1902.6706,2005.3099   C 1902.6706,2012.2582 1901.8776,2018.4136 1900.2538,2023.8136   C 1898.63,2029.176 1896.5153,2033.632 1893.9852,2037.1439   C 1891.4551,2040.6558 1888.6606,2043.4125 1885.6396,2045.4517   C 1882.6563,2047.4531 1878.9933,2049.0014 1874.7261,2050.021   C 1870.459,2051.0784 1865.5498,2051.6071 1860.0364,2051.6071   z  M 1839.1158,2040.7691   L 1858.6392,2040.7691   C 1864.6812,2040.7691 1869.4016,2040.2405 1872.838,2039.1076   C 1876.2744,2037.9747 1879.0311,2036.3886 1881.0703,2034.3495   C 1883.9403,2031.4795 1886.1683,2027.6277 1887.7921,2022.7563   C 1889.3781,2017.9226 1890.1711,2012.0316 1890.1711,2005.1211   C 1890.1711,1995.5671 1888.6229,1988.2033 1885.4508,1983.0676   C 1882.3165,1977.9319 1878.5024,1974.4577 1874.0087,1972.7206   C 1870.7611,1971.4744 1865.5498,1970.8324 1858.3371,1970.8324   L 1839.1158,1970.8324   z "
     style="fill:#00ff00;fill-rule:nonzero;fill-opacity:1;stroke:#00ff00;stroke-width:1.0573581px;stroke-linecap:butt;stroke-linejoin:miter;stroke-miterlimit:282;stroke-dasharray:none;stroke-opacity:1;" />
  <path
     id="path15"
     d="  M 2104.0973,2051.6071   L 2104.0973,1960.0323   L 2138.6125,1960.0323   C 2144.6923,1960.0323 2149.3372,1960.3344 2152.547,1960.9008   C 2157.0408,1961.6561 2160.817,1963.0911 2163.8381,1965.2058   C 2166.8969,1967.2827 2169.3137,1970.2282 2171.164,1974.0423   C 2173.0522,1977.8186 2173.9585,1981.9725 2173.9585,1986.504   C 2173.9585,1994.3209 2171.4661,2000.8916 2166.5192,2006.2917   C 2161.5723,2011.6918 2152.6225,2014.3729 2139.6699,2014.3729   L 2116.1814,2014.3729   L 2116.1814,2051.6071   z  M 2116.1814,2003.5728   L 2139.8587,2003.5728   C 2147.6756,2003.5728 2153.2645,2002.1 2156.5498,1999.1923   C 2159.8352,1996.2846 2161.459,1992.1684 2161.459,1986.8816   C 2161.459,1983.0676 2160.5149,1979.7822 2158.5513,1977.0633   C 2156.6254,1974.3444 2154.0953,1972.5318 2150.9232,1971.6632   C 2148.884,1971.1345 2145.1077,1970.8324 2139.6321,1970.8324   L 2116.1814,1970.8324   z "
     style="fill:#00ff00;fill-rule:nonzero;fill-opacity:1;stroke:#00ff00;stroke-width:1.0573581px;stroke-linecap:butt;stroke-linejoin:miter;stroke-miterlimit:282;stroke-dasharray:none;stroke-opacity:1;" />
</svg>
