<?xml version="1.0" encoding="UTF-8" standalone="no"?>
<svg
   xmlns:dc="http://purl.org/dc/elements/1.1/"
   xmlns:cc="http://creativecommons.org/ns#"
   xmlns:rdf="http://www.w3.org/1999/02/22-rdf-syntax-ns#"
   xmlns:svg="http://www.w3.org/2000/svg"
   xmlns="http://www.w3.org/2000/svg"
   id="svg25"
   height="117.75mm"
   width="117.75mm"
   version="1.0">
  <metadata
     id="metadata29">
    <rdf:RDF>
      <cc:Work
         rdf:about="">
        <dc:format>image/svg+xml</dc:format>
        <dc:type
           rdf:resource="http://purl.org/dc/dcmitype/StillImage" />
      </cc:Work>
    </rdf:RDF>
  </metadata>
  <defs
     id="defs3">
    <pattern
       y="0"
       x="0"
       height="6"
       width="6"
       patternUnits="userSpaceOnUse"
       id="EMFhbasepattern" />
  </defs>
  <path
     id="path5"
     d="  M 54.665059,390.32771   L 390.32771,54.665059  "
     style="fill:none;stroke:#000000;stroke-width:9.5903616px;stroke-linecap:butt;stroke-linejoin:miter;stroke-miterlimit:10;stroke-dasharray:none;stroke-opacity:1;" />
  <path
     id="path7"
     d="  M 54.665059,54.665059   L 390.32771,390.32771  "
     style="fill:none;stroke:#000000;stroke-width:9.5903616px;stroke-linecap:butt;stroke-linejoin:miter;stroke-miterlimit:10;stroke-dasharray:none;stroke-opacity:1;" />
  <path
     id="path9"
     d="  M 222.49638,222.49638   L 222.49638,222.49638   L 155.36385,155.36385   L 289.62891,155.36385   z "
     style="fill:#000000;fill-rule:evenodd;fill-opacity:1;stroke:none;" />
  <path
     id="path11"
     d="  M 222.49638,222.49638   L 222.49638,222.49638   L 155.36385,155.36385   L 289.62891,155.36385   z "
     style="fill:none;stroke:#000000;stroke-width:9.5903616px;stroke-linecap:butt;stroke-linejoin:miter;stroke-miterlimit:10;stroke-dasharray:none;stroke-opacity:1;" />
  <path
     id="path13"
     d="  M 222.49638,222.49638   L 222.49638,222.49638   L 289.62891,289.62891   L 155.36385,289.62891   z "
     style="fill:#000000;fill-rule:evenodd;fill-opacity:1;stroke:none;" />
  <path
     id="path15"
     d="  M 222.49638,222.49638   L 222.49638,222.49638   L 289.62891,289.62891   L 155.36385,289.62891   z "
     style="fill:none;stroke:#000000;stroke-width:9.5903616px;stroke-linecap:butt;stroke-linejoin:miter;stroke-miterlimit:10;stroke-dasharray:none;stroke-opacity:1;" />
  <path
     id="path17"
     d="  M 63.895782,174.30482   L 90.029517,174.30482   C 118.0014,174.30482 131.98735,187.89116 131.98735,215.02389   C 131.98735,242.79598 118.0014,256.66204 90.029517,256.66204   L 63.895782,256.66204   z  M 74.804818,246.91184   L 89.789758,246.91184   C 101.73775,246.91184 109.88956,244.11466 114.24518,238.56024   C 118.6008,233.00582 120.75863,225.17369 120.75863,215.02389   C 120.75863,205.19377 118.6008,197.56144 114.28514,192.16686   C 109.96948,186.77229 101.77771,184.09498 89.789758,184.09498   L 74.804818,184.09498   z "
     style="fill:#000000;fill-rule:evenodd;fill-opacity:1;stroke:none;" />
  <path
     id="path19"
     d="  M 63.895782,174.30482   L 90.029517,174.30482   C 118.0014,174.30482 131.98735,187.89116 131.98735,215.02389   C 131.98735,242.79598 118.0014,256.66204 90.029517,256.66204   L 63.895782,256.66204   z  M 74.804818,246.91184   L 89.789758,246.91184   C 101.73775,246.91184 109.88956,244.11466 114.24518,238.56024   C 118.6008,233.00582 120.75863,225.17369 120.75863,215.02389   C 120.75863,205.19377 118.6008,197.56144 114.28514,192.16686   C 109.96948,186.77229 101.77771,184.09498 89.789758,184.09498   L 74.804818,184.09498   z "
     style="fill:none;stroke:#000000;stroke-width:0.95903611px;stroke-linecap:butt;stroke-linejoin:miter;stroke-miterlimit:10;stroke-dasharray:none;stroke-opacity:1;" />
  <path
     id="path21"
     d="  M 313.24518,174.30482   L 343.97429,174.30482   C 350.7275,174.30482 356.36184,174.94417 360.91726,176.18293   C 365.47269,177.46164 369.06907,180.17891 371.74638,184.33474   C 374.42369,188.53052 375.74236,193.16586 375.74236,198.36064   C 375.74236,206.67229 373.10501,212.98594 367.83032,217.3016   C 362.51566,221.61727 354.88333,223.73514 344.89337,223.73514   L 324.15421,223.73514   L 324.15421,256.66204   L 313.24518,256.66204   z  M 324.15421,213.98494   L 345.01325,213.98494   C 352.00622,213.98494 357.0012,212.66626 359.95823,210.02891   C 362.95522,207.43152 364.43373,203.63534 364.43373,198.68032   C 364.43373,195.40361 363.63453,192.48654 361.95622,189.92911   C 360.31787,187.37168 358.23995,185.77329 355.72248,185.09397   C 353.16506,184.41466 349.52871,184.09498 344.77349,184.09498   L 324.15421,184.09498   z "
     style="fill:#000000;fill-rule:evenodd;fill-opacity:1;stroke:none;" />
  <path
     id="path23"
     d="  M 313.24518,174.30482   L 343.97429,174.30482   C 350.7275,174.30482 356.36184,174.94417 360.91726,176.18293   C 365.47269,177.46164 369.06907,180.17891 371.74638,184.33474   C 374.42369,188.53052 375.74236,193.16586 375.74236,198.36064   C 375.74236,206.67229 373.10501,212.98594 367.83032,217.3016   C 362.51566,221.61727 354.88333,223.73514 344.89337,223.73514   L 324.15421,223.73514   L 324.15421,256.66204   L 313.24518,256.66204   z  M 324.15421,213.98494   L 345.01325,213.98494   C 352.00622,213.98494 357.0012,212.66626 359.95823,210.02891   C 362.95522,207.43152 364.43373,203.63534 364.43373,198.68032   C 364.43373,195.40361 363.63453,192.48654 361.95622,189.92911   C 360.31787,187.37168 358.23995,185.77329 355.72248,185.09397   C 353.16506,184.41466 349.52871,184.09498 344.77349,184.09498   L 324.15421,184.09498   z "
     style="fill:none;stroke:#000000;stroke-width:0.95903611px;stroke-linecap:butt;stroke-linejoin:miter;stroke-miterlimit:10;stroke-dasharray:none;stroke-opacity:1;" />
</svg>
