<?xml version="1.0" encoding="UTF-8" standalone="no"?>
<svg
   xmlns:dc="http://purl.org/dc/elements/1.1/"
   xmlns:cc="http://creativecommons.org/ns#"
   xmlns:rdf="http://www.w3.org/1999/02/22-rdf-syntax-ns#"
   xmlns:svg="http://www.w3.org/2000/svg"
   xmlns="http://www.w3.org/2000/svg"
   id="svg11"
   height="130.27mm"
   width="130.27mm"
   version="1.0">
  <metadata
     id="metadata15">
    <rdf:RDF>
      <cc:Work
         rdf:about="">
        <dc:format>image/svg+xml</dc:format>
        <dc:type
           rdf:resource="http://purl.org/dc/dcmitype/StillImage" />
      </cc:Work>
    </rdf:RDF>
  </metadata>
  <defs
     id="defs3">
    <pattern
       y="0"
       x="0"
       height="6"
       width="6"
       patternUnits="userSpaceOnUse"
       id="EMFhbasepattern" />
  </defs>
  <path
     id="path5"
     d="  M 164.63454,327.67068   C 164.63454,437.95983 327.67068,437.95983 327.67068,327.67068   C 437.95983,327.67068 437.95983,164.63454 327.67068,164.63454   C 327.67068,54.345381 164.63454,54.345381 164.63454,164.63454   C 54.345381,164.63454 54.345381,327.67068 164.63454,327.67068   z "
     style="fill:#ffff80;fill-rule:evenodd;fill-opacity:1;stroke:none;" />
  <path
     id="path7"
     d="  M 164.63454,327.67068   C 164.63454,437.95983 327.67068,437.95983 327.67068,327.67068   C 437.95983,327.67068 437.95983,164.63454 327.67068,164.63454   C 327.67068,54.345381 164.63454,54.345381 164.63454,164.63454   C 54.345381,164.63454 54.345381,327.67068 164.63454,327.67068  "
     style="fill:none;stroke:#000000;stroke-width:9.5903616px;stroke-linecap:butt;stroke-linejoin:miter;stroke-miterlimit:10;stroke-dasharray:none;stroke-opacity:1;" />
  <path
     id="path9"
     d="  M 192.48654,216.62229   L 199.27972,216.62229   L 199.27972,246.39237   C 199.27972,251.54719 198.72028,255.66305 197.52148,258.7   C 196.36265,261.7769 194.24478,264.25441 191.20783,266.13253   C 188.13092,268.0506 184.13494,269.00963 179.17992,269.00963   C 174.34478,269.00963 170.38875,268.17048 167.3518,266.53212   C 164.2749,264.85381 162.07711,262.45622 160.75843,259.29939   C 159.43976,256.14257 158.8004,251.8269 158.8004,246.39237   L 158.8004,216.62229   L 165.59357,216.62229   L 165.59357,246.35241   C 165.59357,250.82791 166.03313,254.10461 166.87229,256.26245   C 167.71144,258.38032 169.11004,259.97871 171.14799,261.13755   C 173.18594,262.29638 175.66345,262.85582 178.58052,262.85582   C 183.5755,262.85582 187.17188,261.73694 189.28976,259.45923   C 191.40763,257.18152 192.48654,252.8259 192.48654,246.35241   z  M 208.31064,251.58714   L 214.74417,251.02771   C 215.06385,253.58514 215.74317,255.70301 216.86205,257.38132   C 217.98092,259.01967 219.69919,260.33835 222.05682,261.37731   C 224.37449,262.3763 227.01184,262.89578 229.96887,262.89578   C 232.56626,262.89578 234.84397,262.49618 236.84196,261.73694   C 238.83996,260.97771 240.31847,259.89879 241.27751,258.58012   C 242.23654,257.22148 242.75602,255.74297 242.75602,254.14457   C 242.75602,252.54618 242.2765,251.14759 241.31747,249.90883   C 240.39839,248.71004 238.83996,247.71104 236.68213,246.87188   C 235.32349,246.35241 232.24658,245.51325 227.53132,244.35441   C 222.81606,243.23554 219.49939,242.15662 217.58132,241.15763   C 215.14377,239.87891 213.30562,238.28052 212.10682,236.36245   C 210.90803,234.44437 210.26867,232.3265 210.26867,229.96887   C 210.26867,227.37148 211.02791,224.93393 212.50642,222.65622   C 213.98494,220.41847 216.14277,218.7002 218.97992,217.54136   C 221.77711,216.34257 224.93393,215.78313 228.41044,215.78313   C 232.20662,215.78313 235.60321,216.38253 238.52028,217.62128   C 241.43735,218.82008 243.6751,220.65823 245.23353,223.01586   C 246.79196,225.41345 247.63112,228.13072 247.751,231.12771   L 241.23755,231.64719   C 240.87791,228.37048 239.67911,225.93293 237.68112,224.25462   C 235.64317,222.61626 232.64618,221.77711 228.69016,221.77711   C 224.57429,221.77711 221.57731,222.53634 219.69919,224.05482   C 217.78112,225.53333 216.86205,227.37148 216.86205,229.48935   C 216.86205,231.36747 217.54136,232.88594 218.86004,234.04478   C 220.17871,235.24357 223.5753,236.48233 229.12972,237.72108   C 234.68413,238.9998 238.48032,240.07871 240.51827,240.99779   C 243.51526,242.39638 245.75301,244.15461 247.1516,246.27249   C 248.59016,248.39036 249.30943,250.82791 249.30943,253.58514   C 249.30943,256.34237 248.51024,258.8998 246.9518,261.33735   C 245.39337,263.7749 243.11566,265.65301 240.19859,266.97168   C 237.24156,268.33032 233.96486,269.00963 230.28855,269.00963   C 225.61325,269.00963 221.69719,268.33032 218.54036,266.97168   C 215.42349,265.61305 212.94598,263.5751 211.14779,260.85783   C 209.3496,258.1006 208.43052,255.02369 208.31064,251.58714   z  M 256.30241,251.58714   L 262.73594,251.02771   C 263.01566,253.58514 263.73494,255.70301 264.85381,257.38132   C 265.97269,259.01967 267.69096,260.33835 270.00863,261.37731   C 272.36626,262.3763 275.00361,262.89578 277.92068,262.89578   C 280.51807,262.89578 282.83574,262.49618 284.79377,261.73694   C 286.79176,260.97771 288.27028,259.89879 289.26927,258.58012   C 290.22831,257.22148 290.70783,255.74297 290.70783,254.14457   C 290.70783,252.54618 290.22831,251.14759 289.30923,249.90883   C 288.39016,248.71004 286.83172,247.71104 284.67389,246.87188   C 283.2753,246.35241 280.23835,245.51325 275.52309,244.35441   C 270.76787,243.23554 267.4512,242.15662 265.57309,241.15763   C 263.09558,239.87891 261.29739,238.28052 260.05863,236.36245   C 258.85984,234.44437 258.26044,232.3265 258.26044,229.96887   C 258.26044,227.37148 258.97972,224.93393 260.45823,222.65622   C 261.93674,220.41847 264.09457,218.7002 266.93172,217.54136   C 269.76887,216.34257 272.9257,215.78313 276.4022,215.78313   C 280.19839,215.78313 283.55502,216.38253 286.47208,217.62128   C 289.38915,218.82008 291.6269,220.65823 293.2253,223.01586   C 294.78373,225.41345 295.62289,228.13072 295.74277,231.12771   L 289.18935,231.64719   C 288.86967,228.37048 287.67088,225.93293 285.63293,224.25462   C 283.59498,222.61626 280.63795,221.77711 276.68192,221.77711   C 272.5261,221.77711 269.52911,222.53634 267.651,224.05482   C 265.77289,225.53333 264.81385,227.37148 264.81385,229.48935   C 264.81385,231.36747 265.49317,232.88594 266.81184,234.04478   C 268.13052,235.24357 271.56706,236.48233 277.12148,237.72108   C 282.63594,238.9998 286.43212,240.07871 288.51004,240.99779   C 291.50702,242.39638 293.70482,244.15461 295.14337,246.27249   C 296.58192,248.39036 297.26124,250.82791 297.26124,253.58514   C 297.26124,256.34237 296.502,258.8998 294.94357,261.33735   C 293.34518,263.7749 291.10743,265.65301 288.1504,266.97168   C 285.23333,268.33032 281.91666,269.00963 278.24036,269.00963   C 273.60502,269.00963 269.68895,268.33032 266.53212,266.97168   C 263.3753,265.61305 260.89779,263.5751 259.13955,260.85783   C 257.34136,258.1006 256.38233,255.02369 256.30241,251.58714   z  M 304.25421,251.58714   L 310.68775,251.02771   C 311.00743,253.58514 311.7267,255.70301 312.80562,257.38132   C 313.92449,259.01967 315.64277,260.33835 318.0004,261.37731   C 320.35803,262.3763 322.99538,262.89578 325.91245,262.89578   C 328.50983,262.89578 330.78755,262.49618 332.78554,261.73694   C 334.78353,260.97771 336.26204,259.89879 337.22108,258.58012   C 338.22008,257.22148 338.69959,255.74297 338.69959,254.14457   C 338.69959,252.54618 338.22008,251.14759 337.301,249.90883   C 336.34196,248.71004 334.82349,247.71104 332.66566,246.87188   C 331.26706,246.35241 328.23012,245.51325 323.47489,244.35441   C 318.75963,243.23554 315.44297,242.15662 313.5249,241.15763   C 311.08734,239.87891 309.24919,238.28052 308.0504,236.36245   C 306.8516,234.44437 306.2522,232.3265 306.2522,229.96887   C 306.2522,227.37148 306.97148,224.93393 308.45,222.65622   C 309.92851,220.41847 312.08634,218.7002 314.92349,217.54136   C 317.76064,216.34257 320.87751,215.78313 324.35401,215.78313   C 328.19016,215.78313 331.54678,216.38253 334.46385,217.62128   C 337.38092,218.82008 339.61867,220.65823 341.1771,223.01586   C 342.73554,225.41345 343.61465,228.13072 343.69457,231.12771   L 337.18112,231.64719   C 336.82148,228.37048 335.62269,225.93293 333.62469,224.25462   C 331.58674,222.61626 328.58975,221.77711 324.63373,221.77711   C 320.51787,221.77711 317.52088,222.53634 315.64277,224.05482   C 313.76465,225.53333 312.80562,227.37148 312.80562,229.48935   C 312.80562,231.36747 313.48494,232.88594 314.80361,234.04478   C 316.12228,235.24357 319.55883,236.48233 325.07329,237.72108   C 330.62771,238.9998 334.42389,240.07871 336.46184,240.99779   C 339.45883,242.39638 341.69658,244.15461 343.09518,246.27249   C 344.53373,248.39036 345.25301,250.82791 345.25301,253.58514   C 345.25301,256.34237 344.45381,258.8998 342.89538,261.33735   C 341.33694,263.7749 339.09919,265.65301 336.14216,266.97168   C 333.2251,268.33032 329.90843,269.00963 326.23212,269.00963   C 321.55682,269.00963 317.64076,268.33032 314.52389,266.97168   C 311.36706,265.61305 308.88955,263.5751 307.09136,260.85783   C 305.29317,258.1006 304.37409,255.02369 304.25421,251.58714   z "
     style="fill:#000000;fill-rule:evenodd;fill-opacity:1;stroke:none;" />
</svg>
