<?xml version="1.0" encoding="UTF-8" standalone="no"?>
<svg
   xmlns:dc="http://purl.org/dc/elements/1.1/"
   xmlns:cc="http://creativecommons.org/ns#"
   xmlns:rdf="http://www.w3.org/1999/02/22-rdf-syntax-ns#"
   xmlns:svg="http://www.w3.org/2000/svg"
   xmlns="http://www.w3.org/2000/svg"
   id="svg11"
   height="95.75mm"
   width="95.75mm"
   version="1.0">
  <metadata
     id="metadata15">
    <rdf:RDF>
      <cc:Work
         rdf:about="">
        <dc:format>image/svg+xml</dc:format>
        <dc:type
           rdf:resource="http://purl.org/dc/dcmitype/StillImage" />
      </cc:Work>
    </rdf:RDF>
  </metadata>
  <defs
     id="defs3">
    <pattern
       y="0"
       x="0"
       height="6"
       width="6"
       patternUnits="userSpaceOnUse"
       id="EMFhbasepattern" />
  </defs>
  <path
     id="path5"
     d="  M 54.345381,54.345381   L 54.345381,307.53092   L 307.53092,307.53092   L 307.53092,54.345381   L 54.345381,54.345381   z "
     style="fill:#aaffaa;fill-rule:evenodd;fill-opacity:1;stroke:none;" />
  <path
     id="path7"
     d="  M 54.345381,54.345381   L 307.53092,54.345381   L 307.53092,307.53092   L 54.345381,307.53092   z "
     style="fill:none;stroke:#000000;stroke-width:9.5903616px;stroke-linecap:butt;stroke-linejoin:miter;stroke-miterlimit:10;stroke-dasharray:none;stroke-opacity:1;" />
  <path
     id="path9"
     d="  M 127.27209,151.40783   L 134.06526,151.40783   L 134.06526,181.17791   C 134.06526,186.33273 133.50582,190.44859 132.30703,193.48554   C 131.14819,196.56245 129.03032,199.03996 125.99337,200.91807   C 122.91646,202.83614 118.92048,203.79518 113.96546,203.79518   C 109.13032,203.79518 105.1743,202.95602 102.13735,201.31767   C 99.06044,199.63935 96.862649,197.24176 95.543975,194.08494   C 94.2253,190.92811 93.585942,186.61245 93.585942,181.17791   L 93.585942,151.40783   L 100.37912,151.40783   L 100.37912,181.13795   C 100.37912,185.61345 100.81867,188.89016 101.65783,191.04799   C 102.49699,193.16586 103.89558,194.76425 105.93353,195.92309   C 107.97148,197.08192 110.44899,197.64136 113.36606,197.64136   C 118.36104,197.64136 121.95743,196.52249 124.0753,194.24478   C 126.19317,191.96707 127.27209,187.61144 127.27209,181.13795   z  M 143.09618,186.37269   L 149.52972,185.81325   C 149.8494,188.37068 150.52871,190.48855 151.64759,192.16686   C 152.76646,193.80522 154.48474,195.12389 156.84237,196.16285   C 159.16004,197.16184 161.79739,197.68132 164.75442,197.68132   C 167.3518,197.68132 169.62952,197.28172 171.62751,196.52249   C 173.6255,195.76325 175.10401,194.68433 176.06305,193.36566   C 177.02209,192.00703 177.54156,190.52851 177.54156,188.93012   C 177.54156,187.33172 177.06205,185.93313 176.10301,184.69437   C 175.18393,183.49558 173.6255,182.49658 171.46767,181.65743   C 170.10903,181.13795 167.03213,180.29879 162.31687,179.13996   C 157.6016,178.02108 154.28494,176.94217 152.36687,175.94317   C 149.92932,174.66446 148.09116,173.06606 146.89237,171.14799   C 145.69357,169.22992 145.05421,167.11205 145.05421,164.75442   C 145.05421,162.15703 145.81345,159.71948 147.29197,157.44176   C 148.77048,155.20401 150.92831,153.48574 153.76546,152.32691   C 156.56265,151.12811 159.71948,150.56867 163.19598,150.56867   C 166.99217,150.56867 170.38875,151.16807 173.30582,152.40683   C 176.22289,153.60562 178.46064,155.44377 180.01907,157.8014   C 181.57751,160.19899 182.41666,162.91626 182.53654,165.91325   L 176.02309,166.43273   C 175.66345,163.15602 174.46466,160.71847 172.46666,159.04016   C 170.42871,157.4018 167.43172,156.56265 163.4757,156.56265   C 159.35984,156.56265 156.36285,157.32189 154.48474,158.84036   C 152.56666,160.31887 151.64759,162.15703 151.64759,164.2749   C 151.64759,166.15301 152.32691,167.67148 153.64558,168.83032   C 154.96425,170.02911 158.36084,171.26787 163.91526,172.50662   C 169.46968,173.78534 173.26586,174.86425 175.30381,175.78333   C 178.3008,177.18193 180.53855,178.94016 181.93715,181.05803   C 183.3757,183.1759 184.09498,185.61345 184.09498,188.37068   C 184.09498,191.12791 183.29578,193.68534 181.73735,196.12289   C 180.17891,198.56044 177.9012,200.43855 174.98413,201.75723   C 172.02711,203.11586 168.7504,203.79518 165.07409,203.79518   C 160.39879,203.79518 156.48273,203.11586 153.3259,201.75723   C 150.20903,200.39859 147.73152,198.36064 145.93333,195.64337   C 144.13514,192.88614 143.21606,189.80923 143.09618,186.37269   z  M 191.08795,186.37269   L 197.52148,185.81325   C 197.8012,188.37068 198.52048,190.48855 199.63935,192.16686   C 200.75823,193.80522 202.4765,195.12389 204.79417,196.16285   C 207.1518,197.16184 209.78915,197.68132 212.70622,197.68132   C 215.30361,197.68132 217.62128,197.28172 219.57931,196.52249   C 221.57731,195.76325 223.05582,194.68433 224.05482,193.36566   C 225.01385,192.00703 225.49337,190.52851 225.49337,188.93012   C 225.49337,187.33172 225.01385,185.93313 224.09478,184.69437   C 223.1757,183.49558 221.61727,182.49658 219.45943,181.65743   C 218.06084,181.13795 215.02389,180.29879 210.30863,179.13996   C 205.55341,178.02108 202.23674,176.94217 200.35863,175.94317   C 197.88112,174.66446 196.08293,173.06606 194.84417,171.14799   C 193.64538,169.22992 193.04598,167.11205 193.04598,164.75442   C 193.04598,162.15703 193.76526,159.71948 195.24377,157.44176   C 196.72229,155.20401 198.88012,153.48574 201.71727,152.32691   C 204.55441,151.12811 207.71124,150.56867 211.18775,150.56867   C 214.98393,150.56867 218.34056,151.16807 221.25763,152.40683   C 224.1747,153.60562 226.41245,155.44377 228.01084,157.8014   C 229.56927,160.19899 230.40843,162.91626 230.52831,165.91325   L 223.9749,166.43273   C 223.65522,163.15602 222.45642,160.71847 220.41847,159.04016   C 218.38052,157.4018 215.42349,156.56265 211.46747,156.56265   C 207.31164,156.56265 204.31466,157.32189 202.43654,158.84036   C 200.55843,160.31887 199.59939,162.15703 199.59939,164.2749   C 199.59939,166.15301 200.27871,167.67148 201.59739,168.83032   C 202.91606,170.02911 206.35261,171.26787 211.90703,172.50662   C 217.42148,173.78534 221.21767,174.86425 223.29558,175.78333   C 226.29257,177.18193 228.49036,178.94016 229.92891,181.05803   C 231.36747,183.1759 232.04678,185.61345 232.04678,188.37068   C 232.04678,191.12791 231.28755,193.68534 229.72911,196.12289   C 228.13072,198.56044 225.89297,200.43855 222.93594,201.75723   C 220.01887,203.11586 216.70221,203.79518 213.0259,203.79518   C 208.39056,203.79518 204.4745,203.11586 201.31767,201.75723   C 198.16084,200.39859 195.68333,198.36064 193.9251,195.64337   C 192.1269,192.88614 191.16787,189.80923 191.08795,186.37269   z  M 239.03976,186.37269   L 245.47329,185.81325   C 245.79297,188.37068 246.51225,190.48855 247.59116,192.16686   C 248.71004,193.80522 250.42831,195.12389 252.78594,196.16285   C 255.14357,197.16184 257.78092,197.68132 260.69799,197.68132   C 263.29538,197.68132 265.57309,197.28172 267.57108,196.52249   C 269.56907,195.76325 271.04759,194.68433 272.00662,193.36566   C 273.00562,192.00703 273.48514,190.52851 273.48514,188.93012   C 273.48514,187.33172 273.00562,185.93313 272.08654,184.69437   C 271.12751,183.49558 269.60903,182.49658 267.4512,181.65743   C 266.05261,181.13795 263.01566,180.29879 258.26044,179.13996   C 253.54518,178.02108 250.22851,176.94217 248.31044,175.94317   C 245.87289,174.66446 244.03474,173.06606 242.83594,171.14799   C 241.63715,169.22992 241.03775,167.11205 241.03775,164.75442   C 241.03775,162.15703 241.75702,159.71948 243.23554,157.44176   C 244.71405,155.20401 246.87188,153.48574 249.70903,152.32691   C 252.54618,151.12811 255.66305,150.56867 259.13955,150.56867   C 262.9757,150.56867 266.33233,151.16807 269.24939,152.40683   C 272.16646,153.60562 274.40421,155.44377 275.96265,157.8014   C 277.52108,160.19899 278.4002,162.91626 278.48012,165.91325   L 271.96666,166.43273   C 271.60702,163.15602 270.40823,160.71847 268.41024,159.04016   C 266.37229,157.4018 263.3753,156.56265 259.41927,156.56265   C 255.30341,156.56265 252.30642,157.32189 250.42831,158.84036   C 248.5502,160.31887 247.59116,162.15703 247.59116,164.2749   C 247.59116,166.15301 248.27048,167.67148 249.58915,168.83032   C 250.90783,170.02911 254.34437,171.26787 259.85883,172.50662   C 265.41325,173.78534 269.20943,174.86425 271.24739,175.78333   C 274.24437,177.18193 276.48212,178.94016 277.88072,181.05803   C 279.31927,183.1759 280.03855,185.61345 280.03855,188.37068   C 280.03855,191.12791 279.23935,193.68534 277.68092,196.12289   C 276.12249,198.56044 273.88473,200.43855 270.92771,201.75723   C 268.01064,203.11586 264.69397,203.79518 261.01767,203.79518   C 256.34237,203.79518 252.4263,203.11586 249.30943,201.75723   C 246.15261,200.39859 243.6751,198.36064 241.8769,195.64337   C 240.07871,192.88614 239.15964,189.80923 239.03976,186.37269   z "
     style="fill:#000000;fill-rule:evenodd;fill-opacity:1;stroke:none;" />
</svg>
