<?xml version="1.0" encoding="UTF-8" standalone="no"?>
<svg
   xmlns:dc="http://purl.org/dc/elements/1.1/"
   xmlns:cc="http://creativecommons.org/ns#"
   xmlns:rdf="http://www.w3.org/1999/02/22-rdf-syntax-ns#"
   xmlns:svg="http://www.w3.org/2000/svg"
   xmlns="http://www.w3.org/2000/svg"
   id="svg13"
   height="116.73mm"
   width="116.73mm"
   version="1.0">
  <metadata
     id="metadata17">
    <rdf:RDF>
      <cc:Work
         rdf:about="">
        <dc:format>image/svg+xml</dc:format>
        <dc:type
           rdf:resource="http://purl.org/dc/dcmitype/StillImage" />
      </cc:Work>
    </rdf:RDF>
  </metadata>
  <defs
     id="defs3">
    <pattern
       y="0"
       x="0"
       height="6"
       width="6"
       patternUnits="userSpaceOnUse"
       id="EMFhbasepattern" />
  </defs>
  <path
     id="path5"
     d="  M 172.6265,43.156626   L 172.6265,100.69879   L 268.53012,100.69879   L 268.53012,43.156626   L 172.6265,43.156626   z "
     style="fill:#000000;fill-rule:evenodd;fill-opacity:1;stroke:none;" />
  <path
     id="path7"
     d="  M 220.57831,386.49156   L 220.57831,386.49156   L 386.49156,220.57831   L 220.57831,54.665059   L 54.665059,220.57831   L 220.57831,386.49156   z "
     style="fill:#ff8080;fill-rule:evenodd;fill-opacity:1;stroke:none;" />
  <path
     id="path9"
     d="  M 220.57831,386.49156   L 220.57831,386.49156   L 386.49156,220.57831   L 220.57831,54.665059   L 54.665059,220.57831   L 220.57831,386.49156  "
     style="fill:none;stroke:#000000;stroke-width:9.5903616px;stroke-linecap:butt;stroke-linejoin:miter;stroke-miterlimit:10;stroke-dasharray:none;stroke-opacity:1;" />
  <path
     id="path11"
     d="  M 166.91225,191.04799   L 173.70542,191.04799   L 173.70542,220.81807   C 173.70542,225.97289 173.14598,230.08875 171.94719,233.1257   C 170.78835,236.20261 168.67048,238.68012 165.63353,240.55823   C 162.55662,242.4763 158.56064,243.43534 153.60562,243.43534   C 148.77048,243.43534 144.81446,242.59618 141.77751,240.95783   C 138.7006,239.27951 136.50281,236.88192 135.18413,233.7251   C 133.86546,230.56827 133.2261,226.25261 133.2261,220.81807   L 133.2261,191.04799   L 140.01928,191.04799   L 140.01928,220.77811   C 140.01928,225.25361 140.45883,228.53032 141.29799,230.68815   C 142.13715,232.80602 143.53574,234.40441 145.57369,235.56325   C 147.61164,236.72208 150.08915,237.28152 153.00622,237.28152   C 158.0012,237.28152 161.59759,236.16265 163.71546,233.88494   C 165.83333,231.60723 166.91225,227.2516 166.91225,220.77811   z  M 182.73634,226.01285   L 189.16988,225.45341   C 189.48956,228.01084 190.16887,230.12871 191.28775,231.80702   C 192.40662,233.44538 194.1249,234.76405 196.48253,235.80301   C 198.8002,236.802 201.43755,237.32148 204.39458,237.32148   C 206.99196,237.32148 209.26968,236.92188 211.26767,236.16265   C 213.26566,235.40341 214.74417,234.32449 215.70321,233.00582   C 216.66225,231.64719 217.18172,230.16867 217.18172,228.57028   C 217.18172,226.97188 216.70221,225.57329 215.74317,224.33453   C 214.82409,223.13574 213.26566,222.13674 211.10783,221.29759   C 209.74919,220.77811 206.67229,219.93895 201.95703,218.78012   C 197.24176,217.66124 193.9251,216.58233 192.00703,215.58333   C 189.56948,214.30462 187.73132,212.70622 186.53253,210.78815   C 185.33373,208.87008 184.69437,206.75221 184.69437,204.39458   C 184.69437,201.79719 185.45361,199.35964 186.93213,197.08192   C 188.41064,194.84417 190.56847,193.1259 193.40562,191.96707   C 196.20281,190.76827 199.35964,190.20883 202.83614,190.20883   C 206.63233,190.20883 210.02891,190.80823 212.94598,192.04699   C 215.86305,193.24578 218.1008,195.08393 219.65923,197.44156   C 221.21767,199.83915 222.05682,202.55642 222.1767,205.55341   L 215.66325,206.07289   C 215.30361,202.79618 214.10482,200.35863 212.10682,198.68032   C 210.06887,197.04197 207.07188,196.20281 203.11586,196.20281   C 199,196.20281 196.00301,196.96205 194.1249,198.48052   C 192.20682,199.95903 191.28775,201.79719 191.28775,203.91506   C 191.28775,205.79317 191.96707,207.31164 193.28574,208.47048   C 194.60441,209.66927 198.001,210.90803 203.55542,212.14678   C 209.10984,213.4255 212.90602,214.50441 214.94397,215.42349   C 217.94096,216.82209 220.17871,218.58032 221.57731,220.69819   C 223.01586,222.81606 223.73514,225.25361 223.73514,228.01084   C 223.73514,230.76807 222.93594,233.3255 221.37751,235.76305   C 219.81907,238.2006 217.54136,240.07871 214.62429,241.39739   C 211.66727,242.75602 208.39056,243.43534 204.71425,243.43534   C 200.03895,243.43534 196.12289,242.75602 192.96606,241.39739   C 189.84919,240.03875 187.37168,238.0008 185.57349,235.28353   C 183.7753,232.5263 182.85622,229.44939 182.73634,226.01285   z  M 230.72811,226.01285   L 237.16164,225.45341   C 237.44136,228.01084 238.16064,230.12871 239.27951,231.80702   C 240.39839,233.44538 242.11666,234.76405 244.43433,235.80301   C 246.79196,236.802 249.42931,237.32148 252.34638,237.32148   C 254.94377,237.32148 257.26144,236.92188 259.21947,236.16265   C 261.21747,235.40341 262.69598,234.32449 263.69498,233.00582   C 264.65401,231.64719 265.13353,230.16867 265.13353,228.57028   C 265.13353,226.97188 264.65401,225.57329 263.73494,224.33453   C 262.81586,223.13574 261.25743,222.13674 259.09959,221.29759   C 257.701,220.77811 254.66405,219.93895 249.94879,218.78012   C 245.19357,217.66124 241.8769,216.58233 239.99879,215.58333   C 237.52128,214.30462 235.72309,212.70622 234.48433,210.78815   C 233.28554,208.87008 232.68614,206.75221 232.68614,204.39458   C 232.68614,201.79719 233.40542,199.35964 234.88393,197.08192   C 236.36245,194.84417 238.52028,193.1259 241.35743,191.96707   C 244.19457,190.76827 247.3514,190.20883 250.82791,190.20883   C 254.62409,190.20883 257.98072,190.80823 260.89779,192.04699   C 263.81486,193.24578 266.05261,195.08393 267.651,197.44156   C 269.20943,199.83915 270.04859,202.55642 270.16847,205.55341   L 263.61506,206.07289   C 263.29538,202.79618 262.09658,200.35863 260.05863,198.68032   C 258.02068,197.04197 255.06365,196.20281 251.10763,196.20281   C 246.9518,196.20281 243.95482,196.96205 242.0767,198.48052   C 240.19859,199.95903 239.23955,201.79719 239.23955,203.91506   C 239.23955,205.79317 239.91887,207.31164 241.23755,208.47048   C 242.55622,209.66927 245.99277,210.90803 251.54719,212.14678   C 257.06164,213.4255 260.85783,214.50441 262.93574,215.42349   C 265.93273,216.82209 268.13052,218.58032 269.56907,220.69819   C 271.00763,222.81606 271.68694,225.25361 271.68694,228.01084   C 271.68694,230.76807 270.92771,233.3255 269.36927,235.76305   C 267.77088,238.2006 265.53313,240.07871 262.5761,241.39739   C 259.65903,242.75602 256.34237,243.43534 252.66606,243.43534   C 248.03072,243.43534 244.11466,242.75602 240.95783,241.39739   C 237.801,240.03875 235.32349,238.0008 233.56526,235.28353   C 231.76706,232.5263 230.80803,229.44939 230.72811,226.01285   z  M 278.67992,226.01285   L 285.11345,225.45341   C 285.43313,228.01084 286.15241,230.12871 287.23132,231.80702   C 288.3502,233.44538 290.06847,234.76405 292.4261,235.80301   C 294.78373,236.802 297.42108,237.32148 300.33815,237.32148   C 302.93554,237.32148 305.21325,236.92188 307.21124,236.16265   C 309.20923,235.40341 310.68775,234.32449 311.64678,233.00582   C 312.64578,231.64719 313.1253,230.16867 313.1253,228.57028   C 313.1253,226.97188 312.64578,225.57329 311.7267,224.33453   C 310.76767,223.13574 309.24919,222.13674 307.09136,221.29759   C 305.69277,220.77811 302.65582,219.93895 297.9006,218.78012   C 293.18534,217.66124 289.86867,216.58233 287.9506,215.58333   C 285.51305,214.30462 283.6749,212.70622 282.4761,210.78815   C 281.27731,208.87008 280.67791,206.75221 280.67791,204.39458   C 280.67791,201.79719 281.39718,199.35964 282.8757,197.08192   C 284.35421,194.84417 286.51204,193.1259 289.34919,191.96707   C 292.18634,190.76827 295.30321,190.20883 298.77971,190.20883   C 302.61586,190.20883 305.97249,190.80823 308.88955,192.04699   C 311.80662,193.24578 314.04437,195.08393 315.60281,197.44156   C 317.16124,199.83915 318.04036,202.55642 318.12028,205.55341   L 311.60682,206.07289   C 311.24718,202.79618 310.04839,200.35863 308.0504,198.68032   C 306.01245,197.04197 303.01546,196.20281 299.05943,196.20281   C 294.94357,196.20281 291.94658,196.96205 290.06847,198.48052   C 288.19036,199.95903 287.23132,201.79719 287.23132,203.91506   C 287.23132,205.79317 287.91064,207.31164 289.22931,208.47048   C 290.54799,209.66927 293.98453,210.90803 299.49899,212.14678   C 305.05341,213.4255 308.84959,214.50441 310.88755,215.42349   C 313.88453,216.82209 316.12228,218.58032 317.52088,220.69819   C 318.95943,222.81606 319.67871,225.25361 319.67871,228.01084   C 319.67871,230.76807 318.87951,233.3255 317.32108,235.76305   C 315.76265,238.2006 313.5249,240.07871 310.56787,241.39739   C 307.6508,242.75602 304.33413,243.43534 300.65783,243.43534   C 295.98253,243.43534 292.06646,242.75602 288.94959,241.39739   C 285.79277,240.03875 283.31526,238.0008 281.51706,235.28353   C 279.71887,232.5263 278.7998,229.44939 278.67992,226.01285   z "
     style="fill:#000000;fill-rule:evenodd;fill-opacity:1;stroke:none;" />
</svg>
