<?xml version="1.0" encoding="UTF-8" standalone="no"?>
<svg
   xmlns:dc="http://purl.org/dc/elements/1.1/"
   xmlns:cc="http://creativecommons.org/ns#"
   xmlns:rdf="http://www.w3.org/1999/02/22-rdf-syntax-ns#"
   xmlns:svg="http://www.w3.org/2000/svg"
   xmlns="http://www.w3.org/2000/svg"
   id="svg17"
   height="112.9mm"
   width="112.9mm"
   version="1.0">
  <metadata
     id="metadata21">
    <rdf:RDF>
      <cc:Work
         rdf:about="">
        <dc:format>image/svg+xml</dc:format>
        <dc:type
           rdf:resource="http://purl.org/dc/dcmitype/StillImage" />
      </cc:Work>
    </rdf:RDF>
  </metadata>
  <defs
     id="defs3">
    <pattern
       y="0"
       x="0"
       height="6"
       width="6"
       patternUnits="userSpaceOnUse"
       id="EMFhbasepattern" />
  </defs>
  <path
     id="path5"
     d="  M 855.32058,706.08468   L 961.95003,706.08468   L 961.95003,759.38052   L 855.32058,759.38052   L 855.32058,706.08468   z "
     style="fill:#000000;fill-rule:nonzero;fill-opacity:1;stroke:none;" />
  <path
     id="path7"
     d="  M 818.03994,999.23068   C 818.03994,1121.8375 999.23068,1121.8375 999.23068,999.23068   C 1121.8375,999.23068 1121.8375,818.03994 999.23068,818.03994   C 999.23068,695.43307 818.03994,695.43307 818.03994,818.03994   C 695.43307,818.03994 695.43307,999.23068 818.03994,999.23068   z "
     style="fill:#ffff80;fill-rule:nonzero;fill-opacity:1;stroke:#000000;stroke-width:10.651613px;stroke-linecap:butt;stroke-linejoin:miter;stroke-miterlimit:112;stroke-dasharray:none;stroke-opacity:1;" />
  <path
     id="path9"
     d="  M 808.89919,874.05534   L 822.7614,874.05534   L 822.7614,911.26044   C 822.7614,917.15282 822.95026,921.00553 823.2902,922.74303   C 823.85678,925.57591 825.2921,927.80444 827.52063,929.50416   C 829.74916,931.20389 832.80866,932.07264 836.66138,932.07264   C 840.6274,932.07264 843.57359,931.27943 845.57549,929.65525   C 847.57739,928.03107 848.78608,926.06694 849.20157,923.72509   C 849.57929,921.38325 849.80592,917.49277 849.80592,912.05365   L 849.80592,874.05534   L 863.66813,874.05534   L 863.66813,910.12729   C 863.66813,918.39929 863.29041,924.21613 862.53498,927.61558   C 861.77954,931.01503 860.41976,933.88568 858.38009,936.22752   C 856.37819,938.56936 853.6964,940.45795 850.29695,941.81773   C 846.93527,943.21528 842.51599,943.93294 837.11464,943.93294   C 830.54236,943.93294 825.5565,943.17751 822.19482,941.66664   C 818.79537,940.118 816.11358,938.15388 814.14946,935.73649   C 812.18533,933.3191 810.86332,930.7884 810.25897,928.14438   C 809.35245,924.21613 808.89919,918.39929 808.89919,910.69387   L 808.89919,874.05534   z "
     style="fill:#000000;fill-rule:nonzero;fill-opacity:1;stroke:none;" />
  <path
     id="path11"
     d="  M 893.77215,942.76202   L 893.77215,885.68901   L 873.41322,885.68901   L 873.41322,874.05534   L 927.99329,874.05534   L 927.99329,885.68901   L 907.63436,885.68901   L 907.63436,942.76202   L 893.77215,942.76202   z "
     style="fill:#000000;fill-rule:nonzero;fill-opacity:1;stroke:none;" />
  <path
     id="path13"
     d="  M 936.56746,942.76202   L 936.56746,874.05534   L 950.42967,874.05534   L 950.42967,942.76202   L 936.56746,942.76202   z "
     style="fill:#000000;fill-rule:nonzero;fill-opacity:1;stroke:none;" />
  <path
     id="path15"
     d="  M 963.95193,942.76202   L 963.95193,874.62191   L 977.81414,874.62191   L 977.81414,931.16611   L 1012.2997,931.16611   L 1012.2997,942.76202   L 963.95193,942.76202   z "
     style="fill:#000000;fill-rule:nonzero;fill-opacity:1;stroke:none;" />
</svg>
