<?xml version="1.0" encoding="UTF-8" standalone="no"?>
<svg
   xmlns:dc="http://purl.org/dc/elements/1.1/"
   xmlns:cc="http://creativecommons.org/ns#"
   xmlns:rdf="http://www.w3.org/1999/02/22-rdf-syntax-ns#"
   xmlns:svg="http://www.w3.org/2000/svg"
   xmlns="http://www.w3.org/2000/svg"
   id="svg17"
   height="112.9mm"
   width="112.9mm"
   version="1.0">
  <metadata
     id="metadata21">
    <rdf:RDF>
      <cc:Work
         rdf:about="">
        <dc:format>image/svg+xml</dc:format>
        <dc:type
           rdf:resource="http://purl.org/dc/dcmitype/StillImage" />
      </cc:Work>
    </rdf:RDF>
  </metadata>
  <defs
     id="defs3">
    <pattern
       y="0"
       x="0"
       height="6"
       width="6"
       patternUnits="userSpaceOnUse"
       id="EMFhbasepattern" />
  </defs>
  <path
     id="path5"
     d="  M 782.46569,652.4178   L 889.09514,652.4178   L 889.09514,695.06203   L 782.46569,695.06203   L 782.46569,652.4178   z "
     style="fill:#000000;fill-rule:nonzero;fill-opacity:1;stroke:none;" />
  <path
     id="path7"
     d="  M 695.06203,695.06203   L 976.4988,695.06203   L 976.4988,976.4988   L 695.06203,976.4988   L 695.06203,695.06203   z "
     style="fill:#aaffaa;fill-rule:nonzero;fill-opacity:1;stroke:#000000;stroke-width:10.651613px;stroke-linecap:butt;stroke-linejoin:miter;stroke-miterlimit:112;stroke-dasharray:none;stroke-opacity:1;" />
  <path
     id="path9"
     d="  M 736.0443,801.20044   L 749.90651,801.20044   L 749.90651,838.40555   C 749.90651,844.29793 750.09536,848.15064 750.43531,849.88814   C 751.00188,852.72101 752.43721,854.94954 754.66574,856.64927   C 756.89427,858.34899 759.95377,859.21774 763.80648,859.21774   C 767.77251,859.21774 770.7187,858.42454 772.7206,856.80035   C 774.7225,855.17617 775.93119,853.21205 776.34668,850.8702   C 776.7244,848.52836 776.95103,844.63787 776.95103,839.19875   L 776.95103,801.20044   L 790.81323,801.20044   L 790.81323,837.2724   C 790.81323,845.54439 790.43552,851.36123 789.68008,854.76068   C 788.92465,858.16014 787.56487,861.03078 785.5252,863.37263   C 783.5233,865.71447 780.84151,867.60305 777.44206,868.96283   C 774.08038,870.36039 769.66109,871.07805 764.25974,871.07805   C 757.68747,871.07805 752.70161,870.32262 749.33993,868.81175   C 745.94048,867.26311 743.25869,865.29898 741.29456,862.88159   C 739.33044,860.46421 738.00843,857.9335 737.40408,855.28949   C 736.49756,851.36123 736.0443,845.54439 736.0443,837.83897   L 736.0443,801.20044   z "
     style="fill:#000000;fill-rule:nonzero;fill-opacity:1;stroke:none;" />
  <path
     id="path11"
     d="  M 820.91726,869.90713   L 820.91726,812.83412   L 800.55833,812.83412   L 800.55833,801.20044   L 855.1384,801.20044   L 855.1384,812.83412   L 834.77947,812.83412   L 834.77947,869.90713   L 820.91726,869.90713   z "
     style="fill:#000000;fill-rule:nonzero;fill-opacity:1;stroke:none;" />
  <path
     id="path13"
     d="  M 863.71257,869.90713   L 863.71257,801.20044   L 877.57478,801.20044   L 877.57478,869.90713   L 863.71257,869.90713   z "
     style="fill:#000000;fill-rule:nonzero;fill-opacity:1;stroke:none;" />
  <path
     id="path15"
     d="  M 891.09704,869.90713   L 891.09704,801.76702   L 904.95924,801.76702   L 904.95924,858.31122   L 939.44479,858.31122   L 939.44479,869.90713   L 891.09704,869.90713   z "
     style="fill:#000000;fill-rule:nonzero;fill-opacity:1;stroke:none;" />
</svg>
