<?xml version="1.0" encoding="UTF-8" standalone="no"?>
<svg
   xmlns:dc="http://purl.org/dc/elements/1.1/"
   xmlns:cc="http://creativecommons.org/ns#"
   xmlns:rdf="http://www.w3.org/1999/02/22-rdf-syntax-ns#"
   xmlns:svg="http://www.w3.org/2000/svg"
   xmlns="http://www.w3.org/2000/svg"
   id="svg31"
   height="95.75mm"
   width="95.75mm"
   version="1.0">
  <metadata
     id="metadata35">
    <rdf:RDF>
      <cc:Work
         rdf:about="">
        <dc:format>image/svg+xml</dc:format>
        <dc:type
           rdf:resource="http://purl.org/dc/dcmitype/StillImage" />
      </cc:Work>
    </rdf:RDF>
  </metadata>
  <defs
     id="defs3">
    <pattern
       y="0"
       x="0"
       height="6"
       width="6"
       patternUnits="userSpaceOnUse"
       id="EMFhbasepattern" />
  </defs>
  <path
     id="path5"
     d="  M 132.98634,15.983936   L 132.98634,54.345381   L 228.88996,54.345381   L 228.88996,15.983936   L 132.98634,15.983936   z "
     style="fill:#000000;fill-rule:evenodd;fill-opacity:1;stroke:none;" />
  <path
     id="path7"
     d="  M 54.345381,54.345381   L 54.345381,307.53092   L 307.53092,307.53092   L 307.53092,54.345381   L 54.345381,54.345381   z "
     style="fill:#aaffaa;fill-rule:evenodd;fill-opacity:1;stroke:none;" />
  <path
     id="path9"
     d="  M 54.345381,54.345381   L 307.53092,54.345381   L 307.53092,307.53092   L 54.345381,307.53092   z "
     style="fill:none;stroke:#000000;stroke-width:9.5903616px;stroke-linecap:butt;stroke-linejoin:miter;stroke-miterlimit:10;stroke-dasharray:none;stroke-opacity:1;" />
  <path
     id="path11"
     d="  M 192.44658,87.911645   C 192.44658,94.30522 187.33172,99.420079 180.93815,99.420079   C 174.58454,99.420079 169.42972,94.30522 169.42972,87.911645   C 169.42972,81.558031 174.58454,76.403212 180.93815,76.403212   C 187.33172,76.403212 192.44658,81.558031 192.44658,87.911645  "
     style="fill:none;stroke:#000000;stroke-width:7.192771px;stroke-linecap:butt;stroke-linejoin:miter;stroke-miterlimit:10;stroke-dasharray:none;stroke-opacity:1;" />
  <path
     id="path13"
     d="  M 180.93815,99.420079   L 180.93815,214.50441  "
     style="fill:none;stroke:#000000;stroke-width:7.192771px;stroke-linecap:butt;stroke-linejoin:miter;stroke-miterlimit:10;stroke-dasharray:none;stroke-opacity:1;" />
  <path
     id="path15"
     d="  M 123.39598,106.61285   L 238.48032,106.61285  "
     style="fill:none;stroke:#000000;stroke-width:7.192771px;stroke-linecap:butt;stroke-linejoin:miter;stroke-miterlimit:10;stroke-dasharray:none;stroke-opacity:1;" />
  <path
     id="path17"
     d="  M 109.01044,156.96225   C 144.9743,228.88996 216.902,228.88996 252.86586,156.96225   C 216.902,239.67911 144.9743,239.67911 109.01044,156.96225   z "
     style="fill:#000000;fill-rule:evenodd;fill-opacity:1;stroke:none;" />
  <path
     id="path19"
     d="  M 109.01044,156.96225   C 144.9743,228.88996 216.902,228.88996 252.86586,156.96225   C 216.902,239.67911 144.9743,239.67911 109.01044,156.96225  "
     style="fill:none;stroke:#000000;stroke-width:7.192771px;stroke-linecap:butt;stroke-linejoin:miter;stroke-miterlimit:10;stroke-dasharray:none;stroke-opacity:1;" />
  <path
     id="path21"
     d="  M 109.01044,156.96225   C 114.76466,189.32972 118.36104,189.32972 118.36104,189.32972   L 129.1502,174.94417   C 119.7996,171.34779 116.20321,164.15502 111.16827,159.12008   z "
     style="fill:#000000;fill-rule:evenodd;fill-opacity:1;stroke:none;" />
  <path
     id="path23"
     d="  M 109.01044,156.96225   C 114.76466,189.32972 118.36104,189.32972 118.36104,189.32972   L 129.1502,174.94417   C 119.7996,171.34779 116.20321,164.15502 111.16827,159.12008  "
     style="fill:none;stroke:#000000;stroke-width:7.192771px;stroke-linecap:butt;stroke-linejoin:miter;stroke-miterlimit:10;stroke-dasharray:none;stroke-opacity:1;" />
  <path
     id="path25"
     d="  M 252.86586,156.96225   C 247.11164,189.32972 243.51526,189.32972 243.51526,189.32972   L 232.7261,174.94417   C 242.0767,171.34779 245.67309,164.15502 250.70803,159.12008   z "
     style="fill:#000000;fill-rule:evenodd;fill-opacity:1;stroke:none;" />
  <path
     id="path27"
     d="  M 252.86586,156.96225   C 247.11164,189.32972 243.51526,189.32972 243.51526,189.32972   L 232.7261,174.94417   C 242.0767,171.34779 245.67309,164.15502 250.70803,159.12008  "
     style="fill:none;stroke:#000000;stroke-width:7.192771px;stroke-linecap:butt;stroke-linejoin:miter;stroke-miterlimit:10;stroke-dasharray:none;stroke-opacity:1;" />
  <path
     id="path29"
     d="  M 134.06526,266.17249   L 134.06526,247.27148   L 116.88253,221.53735   L 124.0753,221.53735   L 132.86646,235.00381   C 134.50482,237.52128 135.98333,240.03875 137.38193,242.55622   C 138.74056,240.19859 140.37891,237.56124 142.25703,234.64417   L 150.92831,221.53735   L 157.8014,221.53735   L 139.97932,247.27148   L 139.97932,266.17249   z  M 163.19598,266.17249   L 163.19598,221.53735   L 182.9761,221.53735   C 186.93213,221.53735 189.96907,221.93694 192.04699,222.73614   C 194.1249,223.53534 195.76325,224.97389 197.00201,226.97188   C 198.24076,229.00984 198.84016,231.24759 198.84016,233.7251   C 198.84016,236.88192 197.84116,239.55923 195.76325,241.71706   C 193.7253,243.8749 190.56847,245.27349 186.29277,245.87289   C 187.8512,246.59217 189.05,247.3514 189.84919,248.07068   C 191.56747,249.66907 193.20582,251.6271 194.76425,254.0247   L 202.51646,266.17249   L 195.08393,266.17249   L 189.16988,256.86184   C 187.4516,254.18453 186.01305,252.14658 184.89417,250.74799   C 183.81526,249.30943 182.81626,248.31044 181.89719,247.751   C 181.01807,247.19156 180.13895,246.79196 179.21988,246.55221   C 178.54056,246.43233 177.46164,246.35241 175.94317,246.35241   L 169.07008,246.35241   L 169.07008,266.17249   z  M 169.07008,241.23755   L 181.77731,241.23755   C 184.49458,241.23755 186.57249,240.95783 188.09096,240.39839   C 189.64939,239.83895 190.76827,238.95984 191.56747,237.72108   C 192.36666,236.48233 192.76626,235.16365 192.76626,233.7251   C 192.76626,231.60723 192.00703,229.88895 190.44859,228.49036   C 188.93012,227.17168 186.53253,226.45241 183.21586,226.45241   L 169.07008,226.45241   z  M 208.11084,266.17249   L 208.11084,221.53735   L 223.49538,221.53735   C 226.93192,221.53735 229.60923,221.73715 231.40743,222.1767   C 233.96486,222.7761 236.16265,223.81506 237.96084,225.37349   C 240.31847,227.37148 242.0767,229.88895 243.23554,233.00582   C 244.43433,236.08273 244.99377,239.63915 244.99377,243.59518   C 244.99377,246.99176 244.59417,249.98875 243.79498,252.6261   C 243.03574,255.22349 241.99678,257.42128 240.75803,259.09959   C 239.51927,260.81787 238.16064,262.1765 236.72208,263.1755   C 235.24357,264.13453 233.44538,264.89377 231.36747,265.41325   C 229.28955,265.89277 226.89196,266.17249 224.21466,266.17249   z  M 214.0249,260.89779   L 223.53534,260.89779   C 226.49237,260.89779 228.77008,260.61807 230.44839,260.05863   C 232.1267,259.53915 233.48534,258.73996 234.48433,257.74096   C 235.88293,256.34237 236.96184,254.46425 237.72108,252.10662   C 238.52028,249.74899 238.91988,246.87188 238.91988,243.51526   C 238.91988,238.83996 238.16064,235.28353 236.60221,232.76606   C 235.08373,230.24859 233.20562,228.57028 231.00783,227.73112   C 229.44939,227.09176 226.89196,226.81204 223.3755,226.81204   L 214.0249,226.81204   z "
     style="fill:#000000;fill-rule:evenodd;fill-opacity:1;stroke:none;" />
</svg>
