<?xml version="1.0" encoding="UTF-8" standalone="no"?>
<svg
   xmlns:dc="http://purl.org/dc/elements/1.1/"
   xmlns:cc="http://creativecommons.org/ns#"
   xmlns:rdf="http://www.w3.org/1999/02/22-rdf-syntax-ns#"
   xmlns:svg="http://www.w3.org/2000/svg"
   xmlns="http://www.w3.org/2000/svg"
   id="svg11"
   height="89.669998mm"
   width="120.11mm"
   version="1.0">
  <metadata
     id="metadata15">
    <rdf:RDF>
      <cc:Work
         rdf:about="">
        <dc:format>image/svg+xml</dc:format>
        <dc:type
           rdf:resource="http://purl.org/dc/dcmitype/StillImage" />
      </cc:Work>
    </rdf:RDF>
  </metadata>
  <defs
     id="defs3">
    <pattern
       y="0"
       x="0"
       height="6"
       width="6"
       patternUnits="userSpaceOnUse"
       id="EMFhbasepattern" />
  </defs>
  <path
     id="path5"
     d="  M 54.345381,54.345381   L 54.345381,284.51405   L 399.59839,284.51405   L 399.59839,54.345381   L 54.345381,54.345381   z "
     style="fill:#80e0ff;fill-rule:evenodd;fill-opacity:1;stroke:none;" />
  <path
     id="path7"
     d="  M 54.345381,54.345381   L 399.59839,54.345381   L 399.59839,284.51405   L 54.345381,284.51405   z "
     style="fill:none;stroke:#000000;stroke-width:9.5903616px;stroke-linecap:butt;stroke-linejoin:miter;stroke-miterlimit:10;stroke-dasharray:none;stroke-opacity:1;" />
  <path
     id="path9"
     d="  M 209.02992,150.64859   L 249.30943,150.64859   L 249.30943,172.94618   C 243.15562,172.94618 231.72711,176.74237 227.69116,175.38373   C 222.09678,173.50562 214.78413,170.58855 209.02992,169.22992   z  M 137.18213,150.64859   L 199.75923,150.64859   L 199.75923,173.58554   C 199.75923,175.70341 209.50943,178.38072 211.58735,179.06004   C 216.14277,180.57851 220.13875,182.29678 224.73413,183.89518   C 229.56927,185.49357 232.80602,184.81425 238.9998,183.73534   C 242.79598,183.09598 252.6261,182.69638 254.86385,181.61747   C 256.34237,188.01104 266.01265,215.10381 266.01265,218.18072   C 266.01265,222.05682 263.01566,227.6512 262.93574,231.80702   L 314.52389,231.72711   L 294.98353,169.70944   L 313.72469,151.28795   C 311.84658,147.37189 303.85461,119.08032 301.33714,119.08032   L 137.18213,119.08032   L 137.18213,150.64859   z "
     style="fill:#000000;fill-rule:evenodd;fill-opacity:1;stroke:none;" />
</svg>
