<?xml version="1.0" encoding="UTF-8" standalone="no"?>
<svg
   xmlns:dc="http://purl.org/dc/elements/1.1/"
   xmlns:cc="http://creativecommons.org/ns#"
   xmlns:rdf="http://www.w3.org/1999/02/22-rdf-syntax-ns#"
   xmlns:svg="http://www.w3.org/2000/svg"
   xmlns="http://www.w3.org/2000/svg"
   id="svg11"
   height="130.27mm"
   width="130.27mm"
   version="1.0">
  <metadata
     id="metadata15">
    <rdf:RDF>
      <cc:Work
         rdf:about="">
        <dc:format>image/svg+xml</dc:format>
        <dc:type
           rdf:resource="http://purl.org/dc/dcmitype/StillImage" />
      </cc:Work>
    </rdf:RDF>
  </metadata>
  <defs
     id="defs3">
    <pattern
       y="0"
       x="0"
       height="6"
       width="6"
       patternUnits="userSpaceOnUse"
       id="EMFhbasepattern" />
  </defs>
  <path
     id="path5"
     d="  M 164.63454,327.67068   C 164.63454,437.95983 327.67068,437.95983 327.67068,327.67068   C 437.95983,327.67068 437.95983,164.63454 327.67068,164.63454   C 327.67068,54.345381 164.63454,54.345381 164.63454,164.63454   C 54.345381,164.63454 54.345381,327.67068 164.63454,327.67068   z "
     style="fill:#ffff80;fill-rule:evenodd;fill-opacity:1;stroke:none;" />
  <path
     id="path7"
     d="  M 164.63454,327.67068   C 164.63454,437.95983 327.67068,437.95983 327.67068,327.67068   C 437.95983,327.67068 437.95983,164.63454 327.67068,164.63454   C 327.67068,54.345381 164.63454,54.345381 164.63454,164.63454   C 54.345381,164.63454 54.345381,327.67068 164.63454,327.67068  "
     style="fill:none;stroke:#000000;stroke-width:9.5903616px;stroke-linecap:butt;stroke-linejoin:miter;stroke-miterlimit:10;stroke-dasharray:none;stroke-opacity:1;" />
  <path
     id="path9"
     d="  M 228.21064,227.37148   L 268.49016,227.37148   L 268.49016,249.66907   C 262.33634,249.66907 250.90783,253.46526 246.87188,252.10662   C 241.27751,250.22851 233.96486,247.31144 228.21064,245.95281   z  M 156.36285,227.37148   L 218.93996,227.37148   L 218.93996,250.30843   C 218.93996,252.4263 228.69016,255.10361 230.76807,255.78293   C 235.32349,257.3014 239.31947,259.01967 243.91486,260.61807   C 248.75,262.21646 251.98674,261.53714 258.18052,260.45823   C 261.9767,259.81887 271.80682,259.41927 274.04457,258.34036   C 275.52309,264.73393 285.19337,291.8267 285.19337,294.90361   C 285.19337,298.77971 282.19638,304.37409 282.11646,308.52992   L 333.70461,308.45   L 314.16425,246.43233   L 332.90542,228.01084   C 331.0273,224.09478 323.03534,195.80321 320.51787,195.80321   L 156.36285,195.80321   L 156.36285,227.37148   z "
     style="fill:#000000;fill-rule:evenodd;fill-opacity:1;stroke:none;" />
</svg>
