<?xml version="1.0" encoding="UTF-8" standalone="no"?>
<svg
   xmlns:dc="http://purl.org/dc/elements/1.1/"
   xmlns:cc="http://creativecommons.org/ns#"
   xmlns:rdf="http://www.w3.org/1999/02/22-rdf-syntax-ns#"
   xmlns:svg="http://www.w3.org/2000/svg"
   xmlns="http://www.w3.org/2000/svg"
   id="svg11"
   height="95.75mm"
   width="95.75mm"
   version="1.0">
  <metadata
     id="metadata15">
    <rdf:RDF>
      <cc:Work
         rdf:about="">
        <dc:format>image/svg+xml</dc:format>
        <dc:type
           rdf:resource="http://purl.org/dc/dcmitype/StillImage" />
      </cc:Work>
    </rdf:RDF>
  </metadata>
  <defs
     id="defs3">
    <pattern
       y="0"
       x="0"
       height="6"
       width="6"
       patternUnits="userSpaceOnUse"
       id="EMFhbasepattern" />
  </defs>
  <path
     id="path5"
     d="  M 54.345381,54.345381   L 54.345381,307.53092   L 307.53092,307.53092   L 307.53092,54.345381   L 54.345381,54.345381   z "
     style="fill:#aaffaa;fill-rule:evenodd;fill-opacity:1;stroke:none;" />
  <path
     id="path7"
     d="  M 54.345381,54.345381   L 307.53092,54.345381   L 307.53092,307.53092   L 54.345381,307.53092   z "
     style="fill:none;stroke:#000000;stroke-width:9.5903616px;stroke-linecap:butt;stroke-linejoin:miter;stroke-miterlimit:10;stroke-dasharray:none;stroke-opacity:1;" />
  <path
     id="path9"
     d="  M 131.10823,183.61546   L 138.86044,182.93614   C 139.22008,186.05301 140.05923,188.57048 141.37791,190.56847   C 142.73654,192.5265 144.81446,194.1249 147.61164,195.36365   C 150.40883,196.56245 153.56566,197.2018 157.08213,197.2018   C 160.19899,197.2018 162.95622,196.72229 165.35381,195.80321   C 167.7514,194.88413 169.50964,193.60542 170.66847,192.00703   C 171.86727,190.36867 172.4267,188.61044 172.4267,186.69237   C 172.4267,184.77429 171.86727,183.05602 170.74839,181.61747   C 169.62952,180.17891 167.7514,178.94016 165.19397,177.98112   C 163.51566,177.34176 159.83936,176.34277 154.16506,174.94417   C 148.49076,173.58554 144.53474,172.30682 142.25703,171.10803   C 139.3,169.5496 137.10221,167.63152 135.66365,165.35381   C 134.2251,163.0761 133.50582,160.47871 133.50582,157.64156   C 133.50582,154.5247 134.38494,151.64759 136.14317,148.93032   C 137.9014,146.21305 140.49879,144.13514 143.89538,142.73654   C 147.29197,141.33795 151.08815,140.61867 155.24397,140.61867   C 159.7994,140.61867 163.83534,141.37791 167.3518,142.85642   C 170.86827,144.33494 173.54558,146.49277 175.42369,149.36988   C 177.3018,152.20703 178.3008,155.48373 178.46064,159.08012   L 170.62851,159.67952   C 170.18895,155.76345 168.79036,152.84638 166.35281,150.84839   C 163.91526,148.8504 160.31887,147.8514 155.56365,147.8514   C 150.60863,147.8514 147.01225,148.73052 144.7745,150.56867   C 142.49679,152.36687 141.37791,154.56466 141.37791,157.12209   C 141.37791,159.31988 142.17711,161.15803 143.7755,162.59658   C 145.33393,164.03514 149.4498,165.51365 156.08313,166.99217   C 162.75642,168.51064 167.31184,169.82931 169.78935,170.94819   C 173.38574,172.58654 176.02309,174.70442 177.74136,177.22188   C 179.45964,179.77931 180.29879,182.69638 180.29879,186.01305   C 180.29879,189.32972 179.37972,192.40662 177.5016,195.32369   C 175.62349,198.24076 172.90622,200.47851 169.38976,202.11686   C 165.83333,203.71526 161.87731,204.51445 157.48172,204.51445   C 151.88735,204.51445 147.21205,203.71526 143.41586,202.0769   C 139.61968,200.43855 136.66265,198.001 134.50482,194.72429   C 132.38695,191.44759 131.22811,187.77128 131.10823,183.61546   z  M 191.48755,203.4755   L 191.48755,141.69759   L 214.78413,141.69759   C 218.9,141.69759 222.01686,141.89739 224.1747,142.25703   C 227.21164,142.7765 229.76907,143.73554 231.80702,145.17409   C 233.84498,146.57269 235.52329,148.57068 236.76204,151.12811   C 238.0008,153.68554 238.64016,156.48273 238.64016,159.55964   C 238.64016,164.79438 236.96184,169.26988 233.60522,172.90622   C 230.28855,176.54257 224.25462,178.34076 215.50341,178.34076   L 199.63935,178.34076   L 199.63935,203.4755   z  M 199.63935,171.06807   L 215.62329,171.06807   C 220.89799,171.06807 224.65421,170.06907 226.89196,168.11104   C 229.08976,166.15301 230.20863,163.39578 230.20863,159.7994   C 230.20863,157.24197 229.56927,155.00421 228.2506,153.16606   C 226.93192,151.32791 225.21365,150.12911 223.09578,149.52972   C 221.69719,149.17008 219.17972,148.97028 215.46345,148.97028   L 199.63935,148.97028   z "
     style="fill:#000000;fill-rule:evenodd;fill-opacity:1;stroke:none;" />
</svg>
