<?xml version="1.0" encoding="UTF-8" standalone="no"?>
<svg
   xmlns:dc="http://purl.org/dc/elements/1.1/"
   xmlns:cc="http://creativecommons.org/ns#"
   xmlns:rdf="http://www.w3.org/1999/02/22-rdf-syntax-ns#"
   xmlns:svg="http://www.w3.org/2000/svg"
   xmlns="http://www.w3.org/2000/svg"
   id="svg11"
   height="130.27mm"
   width="130.27mm"
   version="1.0">
  <metadata
     id="metadata15">
    <rdf:RDF>
      <cc:Work
         rdf:about="">
        <dc:format>image/svg+xml</dc:format>
        <dc:type
           rdf:resource="http://purl.org/dc/dcmitype/StillImage" />
      </cc:Work>
    </rdf:RDF>
  </metadata>
  <defs
     id="defs3">
    <pattern
       y="0"
       x="0"
       height="6"
       width="6"
       patternUnits="userSpaceOnUse"
       id="EMFhbasepattern" />
  </defs>
  <path
     id="path5"
     d="  M 164.63454,327.67068   C 164.63454,437.95983 327.67068,437.95983 327.67068,327.67068   C 437.95983,327.67068 437.95983,164.63454 327.67068,164.63454   C 327.67068,54.345381 164.63454,54.345381 164.63454,164.63454   C 54.345381,164.63454 54.345381,327.67068 164.63454,327.67068   z "
     style="fill:#ffff80;fill-rule:evenodd;fill-opacity:1;stroke:none;" />
  <path
     id="path7"
     d="  M 164.63454,327.67068   C 164.63454,437.95983 327.67068,437.95983 327.67068,327.67068   C 437.95983,327.67068 437.95983,164.63454 327.67068,164.63454   C 327.67068,54.345381 164.63454,54.345381 164.63454,164.63454   C 54.345381,164.63454 54.345381,327.67068 164.63454,327.67068  "
     style="fill:none;stroke:#000000;stroke-width:9.5903616px;stroke-linecap:butt;stroke-linejoin:miter;stroke-miterlimit:10;stroke-dasharray:none;stroke-opacity:1;" />
  <path
     id="path9"
     d="  M 196.32269,248.82992   L 204.0749,248.1506   C 204.43454,251.26747 205.27369,253.78494 206.59237,255.78293   C 207.951,257.74096 210.02891,259.33935 212.8261,260.57811   C 215.62329,261.7769 218.78012,262.41626 222.29658,262.41626   C 225.41345,262.41626 228.17068,261.93674 230.56827,261.01767   C 232.96586,260.09859 234.72409,258.81988 235.88293,257.22148   C 237.08172,255.58313 237.64116,253.8249 237.64116,251.90682   C 237.64116,249.98875 237.08172,248.27048 235.96285,246.83192   C 234.84397,245.39337 232.96586,244.15461 230.40843,243.19558   C 228.73012,242.55622 225.05381,241.55723 219.37951,240.15863   C 213.70522,238.8 209.74919,237.52128 207.47148,236.32249   C 204.51445,234.76405 202.31666,232.84598 200.87811,230.56827   C 199.43956,228.29056 198.72028,225.69317 198.72028,222.85602   C 198.72028,219.73915 199.59939,216.86205 201.35763,214.14478   C 203.11586,211.42751 205.71325,209.3496 209.10984,207.951   C 212.50642,206.55241 216.30261,205.83313 220.45843,205.83313   C 225.01385,205.83313 229.0498,206.59237 232.56626,208.07088   C 236.08273,209.54939 238.76004,211.70723 240.63815,214.58433   C 242.51626,217.42148 243.51526,220.69819 243.6751,224.29458   L 235.84297,224.89397   C 235.40341,220.97791 234.00482,218.06084 231.56727,216.06285   C 229.12972,214.06486 225.53333,213.06586 220.77811,213.06586   C 215.82309,213.06586 212.2267,213.94498 209.98895,215.78313   C 207.71124,217.58132 206.59237,219.77911 206.59237,222.33654   C 206.59237,224.53433 207.39156,226.37249 208.98996,227.81104   C 210.54839,229.2496 214.66425,230.72811 221.29759,232.20662   C 227.97088,233.7251 232.5263,235.04377 235.00381,236.16265   C 238.6002,237.801 241.23755,239.91887 242.95582,242.43634   C 244.67409,244.99377 245.51325,247.91084 245.51325,251.22751   C 245.51325,254.54417 244.59417,257.62108 242.71606,260.53815   C 240.83795,263.45522 238.12068,265.69297 234.60421,267.33132   C 231.04779,268.92971 227.09176,269.72891 222.69618,269.72891   C 217.1018,269.72891 212.4265,268.92971 208.63032,267.29136   C 204.83413,265.65301 201.87711,263.21546 199.71927,259.93875   C 197.6014,256.66204 196.44257,252.98574 196.32269,248.82992   z  M 256.702,268.68996   L 256.702,206.91205   L 279.99859,206.91205   C 284.11445,206.91205 287.23132,207.11184 289.38915,207.47148   C 292.4261,207.99096 294.98353,208.95 297.02148,210.38855   C 299.05943,211.78715 300.73775,213.78514 301.9765,216.34257   C 303.21526,218.9 303.85461,221.69719 303.85461,224.77409   C 303.85461,230.00883 302.1763,234.48433 298.81967,238.12068   C 295.50301,241.75702 289.46907,243.55522 280.71787,243.55522   L 264.85381,243.55522   L 264.85381,268.68996   z  M 264.85381,236.28253   L 280.83775,236.28253   C 286.11245,236.28253 289.86867,235.28353 292.10642,233.3255   C 294.30421,231.36747 295.42309,228.61024 295.42309,225.01385   C 295.42309,222.45642 294.78373,220.21867 293.46506,218.38052   C 292.14638,216.54237 290.42811,215.34357 288.31024,214.74417   C 286.91164,214.38454 284.39417,214.18474 280.67791,214.18474   L 264.85381,214.18474   z "
     style="fill:#000000;fill-rule:evenodd;fill-opacity:1;stroke:none;" />
</svg>
