<?xml version="1.0" encoding="UTF-8" standalone="no"?>
<svg
   xmlns:dc="http://purl.org/dc/elements/1.1/"
   xmlns:cc="http://creativecommons.org/ns#"
   xmlns:rdf="http://www.w3.org/1999/02/22-rdf-syntax-ns#"
   xmlns:svg="http://www.w3.org/2000/svg"
   xmlns="http://www.w3.org/2000/svg"
   id="svg11"
   height="89.669998mm"
   width="120.11mm"
   version="1.0">
  <metadata
     id="metadata15">
    <rdf:RDF>
      <cc:Work
         rdf:about="">
        <dc:format>image/svg+xml</dc:format>
        <dc:type
           rdf:resource="http://purl.org/dc/dcmitype/StillImage" />
      </cc:Work>
    </rdf:RDF>
  </metadata>
  <defs
     id="defs3">
    <pattern
       y="0"
       x="0"
       height="6"
       width="6"
       patternUnits="userSpaceOnUse"
       id="EMFhbasepattern" />
  </defs>
  <path
     id="path5"
     d="  M 54.345381,54.345381   L 54.345381,284.51405   L 399.59839,284.51405   L 399.59839,54.345381   L 54.345381,54.345381   z "
     style="fill:#80e0ff;fill-rule:evenodd;fill-opacity:1;stroke:none;" />
  <path
     id="path7"
     d="  M 54.345381,54.345381   L 399.59839,54.345381   L 399.59839,284.51405   L 54.345381,284.51405   z "
     style="fill:none;stroke:#000000;stroke-width:9.5903616px;stroke-linecap:butt;stroke-linejoin:miter;stroke-miterlimit:10;stroke-dasharray:none;stroke-opacity:1;" />
  <path
     id="path9"
     d="  M 177.14197,172.10703   L 184.89417,171.42771   C 185.25381,174.54458 186.09297,177.06205 187.41164,179.06004   C 188.77028,181.01807 190.84819,182.61646 193.64538,183.85522   C 196.44257,185.05401 199.59939,185.69337 203.11586,185.69337   C 206.23273,185.69337 208.98996,185.21385 211.38755,184.29478   C 213.78514,183.3757 215.54337,182.09699 216.70221,180.49859   C 217.901,178.86024 218.46044,177.10201 218.46044,175.18393   C 218.46044,173.26586 217.901,171.54759 216.78213,170.10903   C 215.66325,168.67048 213.78514,167.43172 211.22771,166.47269   C 209.54939,165.83333 205.87309,164.83433 200.19879,163.43574   C 194.5245,162.07711 190.56847,160.79839 188.29076,159.5996   C 185.33373,158.04116 183.13594,156.12309 181.69739,153.84538   C 180.25883,151.56767 179.53956,148.97028 179.53956,146.13313   C 179.53956,143.01626 180.41867,140.13915 182.1769,137.42189   C 183.93514,134.70462 186.53253,132.6267 189.92911,131.22811   C 193.3257,129.82952 197.12188,129.11024 201.27771,129.11024   C 205.83313,129.11024 209.86907,129.86948 213.38554,131.34799   C 216.902,132.8265 219.57931,134.98434 221.45743,137.86144   C 223.33554,140.69859 224.33453,143.9753 224.49437,147.57168   L 216.66225,148.17108   C 216.22269,144.25502 214.82409,141.33795 212.38654,139.33996   C 209.94899,137.34197 206.35261,136.34297 201.59739,136.34297   C 196.64237,136.34297 193.04598,137.22209 190.80823,139.06024   C 188.53052,140.85843 187.41164,143.05622 187.41164,145.61365   C 187.41164,147.81144 188.21084,149.6496 189.80923,151.08815   C 191.36767,152.5267 195.48353,154.00522 202.11686,155.48373   C 208.79016,157.00221 213.34558,158.32088 215.82309,159.43976   C 219.41947,161.07811 222.05682,163.19598 223.7751,165.71345   C 225.49337,168.27088 226.33253,171.18795 226.33253,174.50462   C 226.33253,177.82128 225.41345,180.89819 223.53534,183.81526   C 221.65723,186.73233 218.93996,188.97008 215.42349,190.60843   C 211.86707,192.20682 207.91104,193.00602 203.51546,193.00602   C 197.92108,193.00602 193.24578,192.20682 189.4496,190.56847   C 185.65341,188.93012 182.69638,186.49257 180.53855,183.21586   C 178.42068,179.93915 177.26184,176.26285 177.14197,172.10703   z  M 237.52128,191.96707   L 237.52128,130.18915   L 260.81787,130.18915   C 264.93373,130.18915 268.0506,130.38895 270.20843,130.74859   C 273.24538,131.26807 275.80281,132.22711 277.84076,133.66566   C 279.87871,135.06426 281.55702,137.06225 282.79578,139.61968   C 284.03453,142.17711 284.67389,144.9743 284.67389,148.0512   C 284.67389,153.28594 282.99558,157.76144 279.63895,161.39779   C 276.32229,165.03413 270.28835,166.83233 261.53714,166.83233   L 245.67309,166.83233   L 245.67309,191.96707   z  M 245.67309,159.55964   L 261.65702,159.55964   C 266.93172,159.55964 270.68795,158.56064 272.9257,156.60261   C 275.12349,154.64458 276.24237,151.88735 276.24237,148.29096   C 276.24237,145.73353 275.60301,143.49578 274.28433,141.65763   C 272.96566,139.81948 271.24739,138.62068 269.12951,138.02128   C 267.73092,137.66164 265.21345,137.46185 261.49718,137.46185   L 245.67309,137.46185   z "
     style="fill:#000000;fill-rule:evenodd;fill-opacity:1;stroke:none;" />
</svg>
