<?xml version="1.0" encoding="UTF-8" standalone="no"?>
<svg
   xmlns:dc="http://purl.org/dc/elements/1.1/"
   xmlns:cc="http://creativecommons.org/ns#"
   xmlns:rdf="http://www.w3.org/1999/02/22-rdf-syntax-ns#"
   xmlns:svg="http://www.w3.org/2000/svg"
   xmlns="http://www.w3.org/2000/svg"
   id="svg11"
   height="116.73mm"
   width="116.73mm"
   version="1.0">
  <metadata
     id="metadata15">
    <rdf:RDF>
      <cc:Work
         rdf:about="">
        <dc:format>image/svg+xml</dc:format>
        <dc:type
           rdf:resource="http://purl.org/dc/dcmitype/StillImage" />
      </cc:Work>
    </rdf:RDF>
  </metadata>
  <defs
     id="defs3">
    <pattern
       y="0"
       x="0"
       height="6"
       width="6"
       patternUnits="userSpaceOnUse"
       id="EMFhbasepattern" />
  </defs>
  <path
     id="path5"
     d="  M 220.57831,386.49156   L 220.57831,386.49156   L 386.49156,220.57831   L 220.57831,54.665059   L 54.665059,220.57831   L 220.57831,386.49156   z "
     style="fill:#ff8080;fill-rule:evenodd;fill-opacity:1;stroke:none;" />
  <path
     id="path7"
     d="  M 220.57831,386.49156   L 220.57831,386.49156   L 386.49156,220.57831   L 220.57831,54.665059   L 54.665059,220.57831   L 220.57831,386.49156  "
     style="fill:none;stroke:#000000;stroke-width:9.5903616px;stroke-linecap:butt;stroke-linejoin:miter;stroke-miterlimit:10;stroke-dasharray:none;stroke-opacity:1;" />
  <path
     id="path9"
     d="  M 170.74839,223.25562   L 178.5006,222.5763   C 178.86024,225.69317 179.69939,228.21064 181.01807,230.20863   C 182.3767,232.16666 184.45462,233.76506 187.2518,235.00381   C 190.04899,236.20261 193.20582,236.84196 196.72229,236.84196   C 199.83915,236.84196 202.59638,236.36245 204.99397,235.44337   C 207.39156,234.52429 209.1498,233.24558 210.30863,231.64719   C 211.50743,230.00883 212.06686,228.2506 212.06686,226.33253   C 212.06686,224.41445 211.50743,222.69618 210.38855,221.25763   C 209.26968,219.81907 207.39156,218.58032 204.83413,217.62128   C 203.15582,216.98192 199.47952,215.98293 193.80522,214.58433   C 188.13092,213.2257 184.1749,211.94698 181.89719,210.74819   C 178.94016,209.18976 176.74237,207.27168 175.30381,204.99397   C 173.86526,202.71626 173.14598,200.11887 173.14598,197.28172   C 173.14598,194.16486 174.0251,191.28775 175.78333,188.57048   C 177.54156,185.85321 180.13895,183.7753 183.53554,182.3767   C 186.93213,180.97811 190.72831,180.25883 194.88413,180.25883   C 199.43956,180.25883 203.4755,181.01807 206.99196,182.49658   C 210.50843,183.9751 213.18574,186.13293 215.06385,189.01004   C 216.94196,191.84719 217.94096,195.12389 218.1008,198.72028   L 210.26867,199.31968   C 209.82911,195.40361 208.43052,192.48654 205.99297,190.48855   C 203.55542,188.49056 199.95903,187.49156 195.20381,187.49156   C 190.24879,187.49156 186.65241,188.37068 184.41466,190.20883   C 182.13695,192.00703 181.01807,194.20482 181.01807,196.76225   C 181.01807,198.96004 181.81727,200.79819 183.41566,202.23674   C 184.97409,203.6753 189.08996,205.15381 195.72329,206.63233   C 202.39658,208.1508 206.95201,209.46947 209.42952,210.58835   C 213.0259,212.2267 215.66325,214.34458 217.38152,216.86205   C 219.0998,219.41947 219.93895,222.33654 219.93895,225.65321   C 219.93895,228.96988 219.01988,232.04678 217.14176,234.96385   C 215.26365,237.88092 212.54638,240.11867 209.02992,241.75702   C 205.47349,243.35542 201.51747,244.15461 197.12188,244.15461   C 191.52751,244.15461 186.85221,243.35542 183.05602,241.71706   C 179.25984,240.07871 176.30281,237.64116 174.14498,234.36445   C 172.02711,231.08775 170.86827,227.41144 170.74839,223.25562   z  M 231.12771,243.11566   L 231.12771,181.33775   L 254.42429,181.33775   C 258.54016,181.33775 261.65702,181.53755 263.81486,181.89719   C 266.8518,182.41666 269.40923,183.3757 271.44718,184.81425   C 273.48514,186.21285 275.16345,188.21084 276.4022,190.76827   C 277.64096,193.3257 278.28032,196.12289 278.28032,199.1998   C 278.28032,204.43454 276.602,208.91004 273.24538,212.54638   C 269.92871,216.18273 263.89478,217.98092 255.14357,217.98092   L 239.27951,217.98092   L 239.27951,243.11566   z  M 239.27951,210.70823   L 255.26345,210.70823   C 260.53815,210.70823 264.29437,209.70923 266.53212,207.7512   C 268.72992,205.79317 269.84879,203.03594 269.84879,199.43956   C 269.84879,196.88213 269.20943,194.64437 267.89076,192.80622   C 266.57208,190.96807 264.85381,189.76927 262.73594,189.16988   C 261.33735,188.81024 258.81988,188.61044 255.10361,188.61044   L 239.27951,188.61044   z "
     style="fill:#000000;fill-rule:evenodd;fill-opacity:1;stroke:none;" />
</svg>
