<?xml version="1.0" encoding="UTF-8" standalone="no"?>
<svg
   xmlns:dc="http://purl.org/dc/elements/1.1/"
   xmlns:cc="http://creativecommons.org/ns#"
   xmlns:rdf="http://www.w3.org/1999/02/22-rdf-syntax-ns#"
   xmlns:svg="http://www.w3.org/2000/svg"
   xmlns="http://www.w3.org/2000/svg"
   id="svg13"
   height="89.669998mm"
   width="120.11mm"
   version="1.0">
  <metadata
     id="metadata17">
    <rdf:RDF>
      <cc:Work
         rdf:about="">
        <dc:format>image/svg+xml</dc:format>
        <dc:type
           rdf:resource="http://purl.org/dc/dcmitype/StillImage" />
      </cc:Work>
    </rdf:RDF>
  </metadata>
  <defs
     id="defs3">
    <pattern
       y="0"
       x="0"
       height="6"
       width="6"
       patternUnits="userSpaceOnUse"
       id="EMFhbasepattern" />
  </defs>
  <path
     id="path5"
     d="  M 54.345381,54.345381   L 54.345381,284.51405   L 399.59839,284.51405   L 399.59839,54.345381   L 54.345381,54.345381   z "
     style="fill:#80e0ff;fill-rule:evenodd;fill-opacity:1;stroke:none;" />
  <path
     id="path7"
     d="  M 54.345381,54.345381   L 399.59839,54.345381   L 399.59839,284.51405   L 54.345381,284.51405   z "
     style="fill:none;stroke:#000000;stroke-width:9.5903616px;stroke-linecap:butt;stroke-linejoin:miter;stroke-miterlimit:10;stroke-dasharray:none;stroke-opacity:1;" />
  <path
     id="path9"
     d="  M 54.345381,54.345381   L 54.345381,54.345381   L 226.97188,188.61044   L 226.97188,150.24899   L 399.59839,284.51405  "
     style="fill:none;stroke:#000000;stroke-width:9.5903616px;stroke-linecap:butt;stroke-linejoin:miter;stroke-miterlimit:10;stroke-dasharray:none;stroke-opacity:1;" />
  <path
     id="path11"
     d="  M 206.39257,120.27911   L 210.86807,119.87952   C 211.06787,121.67771 211.54739,123.11626 212.34658,124.2751   C 213.10582,125.43393 214.30462,126.35301 215.94297,127.03233   C 217.54136,127.7516 219.37951,128.11124 221.41747,128.11124   C 223.21566,128.11124 224.81405,127.83152 226.17269,127.31205   C 227.57128,126.75261 228.57028,126.03333 229.2496,125.11426   C 229.92891,124.15522 230.28855,123.15622 230.28855,122.03735   C 230.28855,120.91847 229.92891,119.95944 229.28955,119.12028   C 228.6502,118.28112 227.57128,117.56185 226.09277,117.00241   C 225.13373,116.64277 223.01586,116.04337 219.73915,115.24418   C 216.46245,114.48494 214.14478,113.7257 212.8261,113.04638   C 211.14779,112.12731 209.86907,111.04839 209.02992,109.72972   C 208.19076,108.37108 207.7512,106.89257 207.7512,105.25422   C 207.7512,103.45602 208.27068,101.77771 209.30964,100.21928   C 210.30863,98.660842 211.82711,97.462047 213.78514,96.66285   C 215.74317,95.823693 217.94096,95.424095 220.33855,95.424095   C 222.9759,95.424095 225.33353,95.863653 227.33152,96.70281   C 229.36947,97.541966 230.92791,98.820681 232.00682,100.45903   C 233.08574,102.13735 233.68514,104.01546 233.76506,106.09337   L 229.20964,106.45301   C 228.96988,104.1753 228.17068,102.45703 226.73213,101.33815   C 225.33353,100.17932 223.25562,99.579918 220.53835,99.579918   C 217.66124,99.579918 215.58333,100.0994 214.26466,101.17831   C 212.98594,102.21727 212.30662,103.45602 212.30662,104.93454   C 212.30662,106.21325 212.78614,107.29217 213.70522,108.13132   C 214.62429,108.93052 216.98192,109.80964 220.81807,110.64879   C 224.65421,111.52791 227.29156,112.28715 228.73012,112.9265   C 230.80803,113.88554 232.36646,115.1243 233.3255,116.56285   C 234.32449,118.04136 234.80401,119.71968 234.80401,121.63775   C 234.80401,123.55582 234.28453,125.35401 233.20562,127.03233   C 232.08674,128.71064 230.52831,130.02932 228.49036,130.94839   C 226.45241,131.86747 224.1747,132.34699 221.61727,132.34699   C 218.38052,132.34699 215.70321,131.86747 213.50542,130.94839   C 211.30763,129.98936 209.58935,128.59076 208.3506,126.67269   C 207.11184,124.79458 206.47249,122.63675 206.39257,120.27911   z  M 241.27751,131.74759   L 241.27751,96.023493   L 254.74397,96.023493   C 257.1016,96.023493 258.93976,96.143372 260.17851,96.383131   C 261.93674,96.66285 263.3753,97.222288 264.57409,98.061444   C 265.77289,98.860641 266.73192,100.01948 267.4512,101.49799   C 268.17048,102.9765 268.53012,104.5749 268.53012,106.37309   C 268.53012,109.41004 267.57108,111.96747 265.61305,114.08534   C 263.69498,116.16325 260.21847,117.20221 255.14357,117.20221   L 245.99277,117.20221   L 245.99277,131.74759   z  M 245.99277,113.00642   L 255.22349,113.00642   C 258.3004,113.00642 260.45823,112.44699 261.73694,111.28815   C 263.01566,110.16928 263.65502,108.57088 263.65502,106.49297   C 263.65502,105.01446 263.29538,103.73574 262.53614,102.65683   C 261.7769,101.61787 260.77791,100.89859 259.53915,100.57891   C 258.73996,100.33916 257.26144,100.25924 255.14357,100.25924   L 245.99277,100.25924   z  M 283.63494,131.74759   L 283.63494,100.25924   L 271.84678,100.25924   L 271.84678,96.023493   L 300.13835,96.023493   L 300.13835,100.25924   L 288.3502,100.25924   L 288.3502,131.74759   z "
     style="fill:#000000;fill-rule:evenodd;fill-opacity:1;stroke:none;" />
</svg>
