<?xml version="1.0" encoding="UTF-8" standalone="no"?>
<svg
   xmlns:dc="http://purl.org/dc/elements/1.1/"
   xmlns:cc="http://creativecommons.org/ns#"
   xmlns:rdf="http://www.w3.org/1999/02/22-rdf-syntax-ns#"
   xmlns:svg="http://www.w3.org/2000/svg"
   xmlns="http://www.w3.org/2000/svg"
   id="svg13"
   height="116.73mm"
   width="116.73mm"
   version="1.0">
  <metadata
     id="metadata17">
    <rdf:RDF>
      <cc:Work
         rdf:about="">
        <dc:format>image/svg+xml</dc:format>
        <dc:type
           rdf:resource="http://purl.org/dc/dcmitype/StillImage" />
      </cc:Work>
    </rdf:RDF>
  </metadata>
  <defs
     id="defs3">
    <pattern
       y="0"
       x="0"
       height="6"
       width="6"
       patternUnits="userSpaceOnUse"
       id="EMFhbasepattern" />
  </defs>
  <path
     id="path5"
     d="  M 220.57831,386.49156   L 220.57831,386.49156   L 386.49156,220.57831   L 220.57831,54.665059   L 54.665059,220.57831   L 220.57831,386.49156   z "
     style="fill:#ff8080;fill-rule:evenodd;fill-opacity:1;stroke:none;" />
  <path
     id="path7"
     d="  M 220.57831,386.49156   L 220.57831,386.49156   L 386.49156,220.57831   L 220.57831,54.665059   L 54.665059,220.57831   L 220.57831,386.49156  "
     style="fill:none;stroke:#000000;stroke-width:9.5903616px;stroke-linecap:butt;stroke-linejoin:miter;stroke-miterlimit:10;stroke-dasharray:none;stroke-opacity:1;" />
  <path
     id="path9"
     d="  M 120.83855,153.44578   L 120.83855,153.44578   L 220.57831,239.75903   L 220.57831,201.39759   L 320.31807,287.71084  "
     style="fill:none;stroke:#000000;stroke-width:9.5903616px;stroke-linecap:butt;stroke-linejoin:miter;stroke-miterlimit:10;stroke-dasharray:none;stroke-opacity:1;" />
  <path
     id="path11"
     d="  M 199.99899,171.42771   L 204.4745,171.02811   C 204.67429,172.8263 205.15381,174.26486 205.95301,175.42369   C 206.71225,176.58253 207.91104,177.5016 209.54939,178.18092   C 211.14779,178.9002 212.98594,179.25984 215.02389,179.25984   C 216.82209,179.25984 218.42048,178.98012 219.77911,178.46064   C 221.17771,177.9012 222.1767,177.18193 222.85602,176.26285   C 223.53534,175.30381 223.89498,174.30482 223.89498,173.18594   C 223.89498,172.06707 223.53534,171.10803 222.89598,170.26887   C 222.25662,169.42972 221.17771,168.71044 219.69919,168.151   C 218.74016,167.79136 216.62229,167.19197 213.34558,166.39277   C 210.06887,165.63353 207.7512,164.87429 206.43253,164.19498   C 204.75421,163.2759 203.4755,162.19699 202.63634,160.87831   C 201.79719,159.51968 201.35763,158.04116 201.35763,156.40281   C 201.35763,154.60462 201.87711,152.9263 202.91606,151.36787   C 203.91506,149.80944 205.43353,148.61064 207.39156,147.81144   C 209.3496,146.97229 211.54739,146.57269 213.94498,146.57269   C 216.58233,146.57269 218.93996,147.01225 220.93795,147.8514   C 222.9759,148.69056 224.53433,149.96927 225.61325,151.60763   C 226.69217,153.28594 227.29156,155.16405 227.37148,157.24197   L 222.81606,157.6016   C 222.5763,155.32389 221.77711,153.60562 220.33855,152.48674   C 218.93996,151.32791 216.86205,150.72851 214.14478,150.72851   C 211.26767,150.72851 209.18976,151.24799 207.87108,152.32691   C 206.59237,153.36586 205.91305,154.60462 205.91305,156.08313   C 205.91305,157.36185 206.39257,158.44076 207.31164,159.27992   C 208.23072,160.07911 210.58835,160.95823 214.42449,161.79739   C 218.26064,162.6765 220.89799,163.43574 222.33654,164.0751   C 224.41445,165.03413 225.97289,166.27289 226.93192,167.71144   C 227.93092,169.18996 228.41044,170.86827 228.41044,172.78634   C 228.41044,174.70442 227.89096,176.50261 226.81204,178.18092   C 225.69317,179.85923 224.13474,181.17791 222.09678,182.09699   C 220.05883,183.01606 217.78112,183.49558 215.22369,183.49558   C 211.98694,183.49558 209.30964,183.01606 207.11184,182.09699   C 204.91405,181.13795 203.19578,179.73935 201.95703,177.82128   C 200.71827,175.94317 200.07891,173.78534 199.99899,171.42771   z  M 234.88393,182.89618   L 234.88393,147.17209   L 248.3504,147.17209   C 250.70803,147.17209 252.54618,147.29197 253.78494,147.53172   C 255.54317,147.81144 256.98172,148.37088 258.18052,149.21004   C 259.37931,150.00923 260.33835,151.16807 261.05763,152.64658   C 261.7769,154.1251 262.13654,155.72349 262.13654,157.52168   C 262.13654,160.55863 261.17751,163.11606 259.21947,165.23393   C 257.3014,167.31184 253.8249,168.3508 248.75,168.3508   L 239.59919,168.3508   L 239.59919,182.89618   z  M 239.59919,164.15502   L 248.82992,164.15502   C 251.90682,164.15502 254.06465,163.59558 255.34337,162.43674   C 256.62208,161.31787 257.26144,159.71948 257.26144,157.64156   C 257.26144,156.16305 256.9018,154.88434 256.14257,153.80542   C 255.38333,152.76646 254.38433,152.04719 253.14558,151.72751   C 252.34638,151.48775 250.86787,151.40783 248.75,151.40783   L 239.59919,151.40783   z  M 277.24136,182.89618   L 277.24136,151.40783   L 265.45321,151.40783   L 265.45321,147.17209   L 293.74477,147.17209   L 293.74477,151.40783   L 281.95662,151.40783   L 281.95662,182.89618   z "
     style="fill:#000000;fill-rule:evenodd;fill-opacity:1;stroke:none;" />
</svg>
