<?xml version="1.0" encoding="UTF-8" standalone="no"?>
<svg
   xmlns:dc="http://purl.org/dc/elements/1.1/"
   xmlns:cc="http://creativecommons.org/ns#"
   xmlns:rdf="http://www.w3.org/1999/02/22-rdf-syntax-ns#"
   xmlns:svg="http://www.w3.org/2000/svg"
   xmlns="http://www.w3.org/2000/svg"
   id="svg13"
   height="130.27mm"
   width="130.27mm"
   version="1.0">
  <metadata
     id="metadata17">
    <rdf:RDF>
      <cc:Work
         rdf:about="">
        <dc:format>image/svg+xml</dc:format>
        <dc:type
           rdf:resource="http://purl.org/dc/dcmitype/StillImage" />
      </cc:Work>
    </rdf:RDF>
  </metadata>
  <defs
     id="defs3">
    <pattern
       y="0"
       x="0"
       height="6"
       width="6"
       patternUnits="userSpaceOnUse"
       id="EMFhbasepattern" />
  </defs>
  <path
     id="path5"
     d="  M 164.63454,327.67068   C 164.63454,437.95983 327.67068,437.95983 327.67068,327.67068   C 437.95983,327.67068 437.95983,164.63454 327.67068,164.63454   C 327.67068,54.345381 164.63454,54.345381 164.63454,164.63454   C 54.345381,164.63454 54.345381,327.67068 164.63454,327.67068   z "
     style="fill:#ffff80;fill-rule:evenodd;fill-opacity:1;stroke:none;" />
  <path
     id="path7"
     d="  M 164.63454,327.67068   C 164.63454,437.95983 327.67068,437.95983 327.67068,327.67068   C 437.95983,327.67068 437.95983,164.63454 327.67068,164.63454   C 327.67068,54.345381 164.63454,54.345381 164.63454,164.63454   C 54.345381,164.63454 54.345381,327.67068 164.63454,327.67068  "
     style="fill:none;stroke:#000000;stroke-width:9.5903616px;stroke-linecap:butt;stroke-linejoin:miter;stroke-miterlimit:10;stroke-dasharray:none;stroke-opacity:1;" />
  <path
     id="path9"
     d="  M 131.06827,170.38875   L 131.06827,170.38875   L 246.15261,265.33333   L 246.15261,226.97188   L 361.23694,321.91646  "
     style="fill:none;stroke:#000000;stroke-width:9.5903616px;stroke-linecap:butt;stroke-linejoin:miter;stroke-miterlimit:10;stroke-dasharray:none;stroke-opacity:1;" />
  <path
     id="path11"
     d="  M 225.57329,197.00201   L 230.04879,196.60241   C 230.24859,198.4006 230.72811,199.83915 231.52731,200.99799   C 232.28654,202.15682 233.48534,203.0759 235.12369,203.75522   C 236.72208,204.4745 238.56024,204.83413 240.59819,204.83413   C 242.39638,204.83413 243.99478,204.55441 245.35341,204.03494   C 246.752,203.4755 247.751,202.75622 248.43032,201.83715   C 249.10963,200.87811 249.46927,199.87911 249.46927,198.76024   C 249.46927,197.64136 249.10963,196.68233 248.47028,195.84317   C 247.83092,195.00401 246.752,194.28474 245.27349,193.7253   C 244.31445,193.36566 242.19658,192.76626 238.91988,191.96707   C 235.64317,191.20783 233.3255,190.44859 232.00682,189.76927   C 230.32851,188.8502 229.0498,187.77128 228.21064,186.45261   C 227.37148,185.09397 226.93192,183.61546 226.93192,181.97711   C 226.93192,180.17891 227.4514,178.5006 228.49036,176.94217   C 229.48935,175.38373 231.00783,174.18494 232.96586,173.38574   C 234.92389,172.54658 237.12168,172.14699 239.51927,172.14699   C 242.15662,172.14699 244.51425,172.58654 246.51225,173.4257   C 248.5502,174.26486 250.10863,175.54357 251.18755,177.18193   C 252.26646,178.86024 252.86586,180.73835 252.94578,182.81626   L 248.39036,183.1759   C 248.1506,180.89819 247.3514,179.17992 245.91285,178.06104   C 244.51425,176.90221 242.43634,176.30281 239.71907,176.30281   C 236.84196,176.30281 234.76405,176.82229 233.44538,177.9012   C 232.16666,178.94016 231.48735,180.17891 231.48735,181.65743   C 231.48735,182.93614 231.96686,184.01506 232.88594,184.85421   C 233.80502,185.65341 236.16265,186.53253 239.99879,187.37168   C 243.83494,188.2508 246.47229,189.01004 247.91084,189.64939   C 249.98875,190.60843 251.54719,191.84719 252.50622,193.28574   C 253.50522,194.76425 253.98474,196.44257 253.98474,198.36064   C 253.98474,200.27871 253.46526,202.0769 252.38634,203.75522   C 251.26747,205.43353 249.70903,206.75221 247.67108,207.67128   C 245.63313,208.59036 243.35542,209.06988 240.79799,209.06988   C 237.56124,209.06988 234.88393,208.59036 232.68614,207.67128   C 230.48835,206.71225 228.77008,205.31365 227.53132,203.39558   C 226.29257,201.51747 225.65321,199.35964 225.57329,197.00201   z  M 260.45823,208.47048   L 260.45823,172.74638   L 273.92469,172.74638   C 276.28233,172.74638 278.12048,172.86626 279.35923,173.10602   C 281.11747,173.38574 282.55602,173.94518 283.75482,174.78433   C 284.95361,175.58353 285.91265,176.74237 286.63192,178.22088   C 287.3512,179.69939 287.71084,181.29779 287.71084,183.09598   C 287.71084,186.13293 286.7518,188.69036 284.79377,190.80823   C 282.8757,192.88614 279.39919,193.9251 274.32429,193.9251   L 265.17349,193.9251   L 265.17349,208.47048   z  M 265.17349,189.72931   L 274.40421,189.72931   C 277.48112,189.72931 279.63895,189.16988 280.91767,188.01104   C 282.19638,186.89217 282.83574,185.29377 282.83574,183.21586   C 282.83574,181.73735 282.4761,180.45863 281.71686,179.37972   C 280.95763,178.34076 279.95863,177.62148 278.71988,177.3018   C 277.92068,177.06205 276.44216,176.98213 274.32429,176.98213   L 265.17349,176.98213   z  M 302.81566,208.47048   L 302.81566,176.98213   L 291.02751,176.98213   L 291.02751,172.74638   L 319.31907,172.74638   L 319.31907,176.98213   L 307.53092,176.98213   L 307.53092,208.47048   z "
     style="fill:#000000;fill-rule:evenodd;fill-opacity:1;stroke:none;" />
</svg>
