<?xml version="1.0" encoding="UTF-8" standalone="no"?>
<svg
   xmlns:dc="http://purl.org/dc/elements/1.1/"
   xmlns:cc="http://creativecommons.org/ns#"
   xmlns:rdf="http://www.w3.org/1999/02/22-rdf-syntax-ns#"
   xmlns:svg="http://www.w3.org/2000/svg"
   xmlns="http://www.w3.org/2000/svg"
   id="svg9"
   height="41.959999mm"
   width="43.990002mm"
   version="1.0">
  <metadata
     id="metadata13">
    <rdf:RDF>
      <cc:Work
         rdf:about="">
        <dc:format>image/svg+xml</dc:format>
        <dc:type
           rdf:resource="http://purl.org/dc/dcmitype/StillImage" />
      </cc:Work>
    </rdf:RDF>
  </metadata>
  <defs
     id="defs3">
    <pattern
       y="0"
       x="0"
       height="6"
       width="6"
       patternUnits="userSpaceOnUse"
       id="EMFhbasepattern" />
  </defs>
  <path
     id="path5"
     d="  M 87.312248,14.505421   L 87.312248,58.421284   L 83.875702,58.421284   C 82.716866,49.989758 80.718874,43.316465 77.801806,38.281526   C 74.924698,33.326506 70.768874,29.330522 65.414256,26.413453   C 60.019678,23.456425 54.46526,22.017871 48.751003,22.017871   C 42.23755,22.017871 36.882931,23.975903 32.607228,27.971887   C 28.371486,31.927911 26.253614,36.443373 26.253614,41.478313   C 26.253614,45.354417 27.612249,48.870883 30.289558,52.06767   C 34.165662,56.742971 43.356425,63.016666 57.901806,70.808834   C 69.769879,77.162449 77.881726,82.037549 82.237348,85.474095   C 86.553011,88.870681 89.909637,92.866665 92.227308,97.502007   C 94.584938,102.09739 95.743774,106.93253 95.743774,112.00743   C 95.743774,121.63775 92.027509,129.90944 84.555019,136.86245   C 77.082529,143.85542 67.492168,147.29197 55.743975,147.29197   C 52.06767,147.29197 48.631124,147.01225 45.354417,146.45281   C 43.436345,146.17309 39.400401,145.01425 33.326506,143.05622   C 27.25261,141.09819 23.376506,140.09919 21.778112,140.09919   C 20.219678,140.09919 18.980923,140.57871 18.061847,141.49779   C 17.142771,142.45683 16.503413,144.3749 16.063855,147.29197   L 12.587349,147.29197   L 12.587349,103.7757   L 16.063855,103.7757   C 17.662249,112.88654 19.86004,119.71968 22.617269,124.23514   C 25.374498,128.7506 29.570281,132.50683 35.204618,135.50381   C 40.838955,138.5008 47.03273,140.01928 53.785943,140.01928   C 61.618071,140.01928 67.771887,137.94136 72.287348,133.8255   C 76.80281,129.70964 79.080521,124.83454 79.080521,119.2002   C 79.080521,116.08333 78.241364,112.9265 76.523091,109.76968   C 74.804818,106.57289 72.127509,103.61586 68.491164,100.85863   C 66.053614,98.980521 59.42028,95.024497 48.551204,88.910641   C 37.682128,82.836746 29.969879,78.001605 25.374498,74.36526   C 20.779116,70.728915 17.30261,66.732931 14.94498,62.377308   C 12.547389,58.021686 11.348594,53.186545 11.348594,47.951807   C 11.348594,38.840963 14.86506,30.968875 21.858032,24.375502   C 28.851004,17.822088 37.762048,14.505421 48.551204,14.505421   C 55.304417,14.505421 62.457228,16.183735 70.009638,19.460441   C 73.486144,21.058835 75.963654,21.818072 77.402208,21.818072   C 79.040561,21.818072 80.359236,21.338554 81.358232,20.379518   C 82.397188,19.380522 83.236344,17.46245 83.875702,14.505421   z  M 133.86546,11.228715   C 136.50281,11.228715 138.74056,12.147791 140.57871,13.985944   C 142.41687,15.824096 143.33594,18.061847 143.33594,20.699196   C 143.33594,23.296586 142.41687,25.574297 140.57871,27.452409   C 138.74056,29.290562 136.50281,30.249598 133.86546,30.249598   C 131.22811,30.249598 128.99036,29.290562 127.11225,27.452409   C 125.23413,25.574297 124.31506,23.296586 124.31506,20.699196   C 124.31506,18.061847 125.23413,15.824096 127.07229,13.985944   C 128.91044,12.147791 131.18815,11.228715 133.86546,11.228715   z  M 141.65763,56.103614   L 141.65763,125.03434   C 141.65763,130.38895 142.01727,133.98534 142.81646,135.74357   C 143.61566,137.54177 144.73454,138.86044 146.29297,139.73956   C 147.81144,140.61867 150.60863,141.05823 154.64458,141.01827   L 154.64458,144.41486   L 112.96646,144.41486   L 112.96646,141.01827   C 117.16225,141.05823 119.95944,140.61867 121.39799,139.81948   C 122.83654,139.02028 123.99538,137.66164 124.83454,135.78353   C 125.67369,133.90542 126.11325,130.34899 126.11325,125.03434   L 126.11325,91.947589   C 126.11325,82.676906 125.83353,76.642971 125.23413,73.885742   C 124.83454,71.88775 124.11526,70.489156 123.19618,69.729919   C 122.23715,68.930722 120.99839,68.571083 119.36004,68.531124   C 117.60181,68.571083 115.48393,69.010642 112.96646,69.969678   L 111.68775,66.573091   L 137.50181,56.103614   z "
     style="fill:#000000;fill-rule:evenodd;fill-opacity:1;stroke:none;" />
  <path
     id="path7"
     d="  M 87.312248,14.505421   L 87.312248,58.421284   L 83.875702,58.421284   C 82.716866,49.989758 80.718874,43.316465 77.801806,38.281526   C 74.924698,33.326506 70.768874,29.330522 65.414256,26.413453   C 60.019678,23.456425 54.46526,22.017871 48.751003,22.017871   C 42.23755,22.017871 36.882931,23.975903 32.607228,27.971887   C 28.371486,31.927911 26.253614,36.443373 26.253614,41.478313   C 26.253614,45.354417 27.612249,48.870883 30.289558,52.06767   C 34.165662,56.742971 43.356425,63.016666 57.901806,70.808834   C 69.769879,77.162449 77.881726,82.037549 82.237348,85.474095   C 86.553011,88.870681 89.909637,92.866665 92.227308,97.502007   C 94.584938,102.09739 95.743774,106.93253 95.743774,112.00743   C 95.743774,121.63775 92.027509,129.90944 84.555019,136.86245   C 77.082529,143.85542 67.492168,147.29197 55.743975,147.29197   C 52.06767,147.29197 48.631124,147.01225 45.354417,146.45281   C 43.436345,146.17309 39.400401,145.01425 33.326506,143.05622   C 27.25261,141.09819 23.376506,140.09919 21.778112,140.09919   C 20.219678,140.09919 18.980923,140.57871 18.061847,141.49779   C 17.142771,142.45683 16.503413,144.3749 16.063855,147.29197   L 12.587349,147.29197   L 12.587349,103.7757   L 16.063855,103.7757   C 17.662249,112.88654 19.86004,119.71968 22.617269,124.23514   C 25.374498,128.7506 29.570281,132.50683 35.204618,135.50381   C 40.838955,138.5008 47.03273,140.01928 53.785943,140.01928   C 61.618071,140.01928 67.771887,137.94136 72.287348,133.8255   C 76.80281,129.70964 79.080521,124.83454 79.080521,119.2002   C 79.080521,116.08333 78.241364,112.9265 76.523091,109.76968   C 74.804818,106.57289 72.127509,103.61586 68.491164,100.85863   C 66.053614,98.980521 59.42028,95.024497 48.551204,88.910641   C 37.682128,82.836746 29.969879,78.001605 25.374498,74.36526   C 20.779116,70.728915 17.30261,66.732931 14.94498,62.377308   C 12.547389,58.021686 11.348594,53.186545 11.348594,47.951807   C 11.348594,38.840963 14.86506,30.968875 21.858032,24.375502   C 28.851004,17.822088 37.762048,14.505421 48.551204,14.505421   C 55.304417,14.505421 62.457228,16.183735 70.009638,19.460441   C 73.486144,21.058835 75.963654,21.818072 77.402208,21.818072   C 79.040561,21.818072 80.359236,21.338554 81.358232,20.379518   C 82.397188,19.380522 83.236344,17.46245 83.875702,14.505421   z  M 133.86546,11.228715   C 136.50281,11.228715 138.74056,12.147791 140.57871,13.985944   C 142.41687,15.824096 143.33594,18.061847 143.33594,20.699196   C 143.33594,23.296586 142.41687,25.574297 140.57871,27.452409   C 138.74056,29.290562 136.50281,30.249598 133.86546,30.249598   C 131.22811,30.249598 128.99036,29.290562 127.11225,27.452409   C 125.23413,25.574297 124.31506,23.296586 124.31506,20.699196   C 124.31506,18.061847 125.23413,15.824096 127.07229,13.985944   C 128.91044,12.147791 131.18815,11.228715 133.86546,11.228715   z  M 141.65763,56.103614   L 141.65763,125.03434   C 141.65763,130.38895 142.01727,133.98534 142.81646,135.74357   C 143.61566,137.54177 144.73454,138.86044 146.29297,139.73956   C 147.81144,140.61867 150.60863,141.05823 154.64458,141.01827   L 154.64458,144.41486   L 112.96646,144.41486   L 112.96646,141.01827   C 117.16225,141.05823 119.95944,140.61867 121.39799,139.81948   C 122.83654,139.02028 123.99538,137.66164 124.83454,135.78353   C 125.67369,133.90542 126.11325,130.34899 126.11325,125.03434   L 126.11325,91.947589   C 126.11325,82.676906 125.83353,76.642971 125.23413,73.885742   C 124.83454,71.88775 124.11526,70.489156 123.19618,69.729919   C 122.23715,68.930722 120.99839,68.571083 119.36004,68.531124   C 117.60181,68.571083 115.48393,69.010642 112.96646,69.969678   L 111.68775,66.573091   L 137.50181,56.103614   z "
     style="fill:none;stroke:#000000;stroke-width:0.95903611px;stroke-linecap:butt;stroke-linejoin:miter;stroke-miterlimit:10;stroke-dasharray:none;stroke-opacity:1;" />
</svg>
