<?xml version="1.0" encoding="UTF-8" standalone="no"?>
<svg
   xmlns:dc="http://purl.org/dc/elements/1.1/"
   xmlns:cc="http://creativecommons.org/ns#"
   xmlns:rdf="http://www.w3.org/1999/02/22-rdf-syntax-ns#"
   xmlns:svg="http://www.w3.org/2000/svg"
   xmlns="http://www.w3.org/2000/svg"
   id="svg11"
   height="130.27mm"
   width="130.27mm"
   version="1.0">
  <metadata
     id="metadata15">
    <rdf:RDF>
      <cc:Work
         rdf:about="">
        <dc:format>image/svg+xml</dc:format>
        <dc:type
           rdf:resource="http://purl.org/dc/dcmitype/StillImage" />
      </cc:Work>
    </rdf:RDF>
  </metadata>
  <defs
     id="defs3">
    <pattern
       y="0"
       x="0"
       height="6"
       width="6"
       patternUnits="userSpaceOnUse"
       id="EMFhbasepattern" />
  </defs>
  <path
     id="path5"
     d="  M 164.63454,327.67068   C 164.63454,437.95983 327.67068,437.95983 327.67068,327.67068   C 437.95983,327.67068 437.95983,164.63454 327.67068,164.63454   C 327.67068,54.345381 164.63454,54.345381 164.63454,164.63454   C 54.345381,164.63454 54.345381,327.67068 164.63454,327.67068   z "
     style="fill:#ffff80;fill-rule:evenodd;fill-opacity:1;stroke:none;" />
  <path
     id="path7"
     d="  M 164.63454,327.67068   C 164.63454,437.95983 327.67068,437.95983 327.67068,327.67068   C 437.95983,327.67068 437.95983,164.63454 327.67068,164.63454   C 327.67068,54.345381 164.63454,54.345381 164.63454,164.63454   C 54.345381,164.63454 54.345381,327.67068 164.63454,327.67068  "
     style="fill:none;stroke:#000000;stroke-width:9.5903616px;stroke-linecap:butt;stroke-linejoin:miter;stroke-miterlimit:10;stroke-dasharray:none;stroke-opacity:1;" />
  <path
     id="path9"
     d="  M 215.74317,183.5755   L 205.87309,176.38273   L 246.27249,141.61767   L 285.07349,175.02409   L 276.52208,183.33574   L 246.11265,157.76144   L 215.74317,183.5755  z    M 280.67791,200.15883   L 272.48614,208.11084   L 251.06767,190.24879   L 251.06767,349.96827   L 239.39939,349.96827   L 239.39939,191.76727   L 220.89799,208.59036   L 211.82711,200.99799   L 246.31245,171.42771   L 280.67791,200.15883  z    M 239.39939,288.03052   L 239.39939,277.44116   L 213.54538,277.44116   L 213.54538,288.03052   L 239.39939,288.03052  z    M 239.39939,238.56024   L 239.39939,228.01084   L 214.42449,228.01084   L 214.42449,238.56024   L 239.39939,238.56024  z    M 239.39939,262.93574   L 239.39939,251.74698   L 214.42449,251.74698   L 214.42449,262.93574   L 239.39939,262.93574  z    M 275.44317,238.56024   L 275.44317,228.37048   L 251.06767,228.37048   L 251.06767,238.56024   L 275.44317,238.56024  z    M 275.44317,262.93574   L 275.44317,251.74698   L 251.06767,251.74698   L 251.06767,262.93574   L 275.44317,262.93574  z    M 274.56405,288.39016   L 274.56405,277.44116   L 251.06767,277.44116   L 251.06767,288.39016   L 274.56405,288.39016  z   "
     style="fill:#000000;fill-rule:evenodd;fill-opacity:1;stroke:none;" />
</svg>
