<?xml version="1.0" encoding="UTF-8" standalone="no"?>
<svg
   xmlns:dc="http://purl.org/dc/elements/1.1/"
   xmlns:cc="http://creativecommons.org/ns#"
   xmlns:rdf="http://www.w3.org/1999/02/22-rdf-syntax-ns#"
   xmlns:svg="http://www.w3.org/2000/svg"
   xmlns="http://www.w3.org/2000/svg"
   id="svg23"
   height="116.73mm"
   width="116.73mm"
   version="1.0">
  <metadata
     id="metadata27">
    <rdf:RDF>
      <cc:Work
         rdf:about="">
        <dc:format>image/svg+xml</dc:format>
        <dc:type
           rdf:resource="http://purl.org/dc/dcmitype/StillImage" />
      </cc:Work>
    </rdf:RDF>
  </metadata>
  <defs
     id="defs3">
    <pattern
       y="0"
       x="0"
       height="6"
       width="6"
       patternUnits="userSpaceOnUse"
       id="EMFhbasepattern" />
  </defs>
  <path
     id="path5"
     d="  M 220.57831,386.49156   L 220.57831,386.49156   L 386.49156,220.57831   L 220.57831,54.665059   L 54.665059,220.57831   L 220.57831,386.49156   z "
     style="fill:#ff8080;fill-rule:evenodd;fill-opacity:1;stroke:none;" />
  <path
     id="path7"
     d="  M 220.57831,386.49156   L 220.57831,386.49156   L 386.49156,220.57831   L 220.57831,54.665059   L 54.665059,220.57831   L 220.57831,386.49156  "
     style="fill:none;stroke:#000000;stroke-width:9.5903616px;stroke-linecap:butt;stroke-linejoin:miter;stroke-miterlimit:10;stroke-dasharray:none;stroke-opacity:1;" />
  <path
     id="path9"
     d="  M 237.84096,220.57831   C 237.84096,230.12871 230.12871,237.84096 220.57831,237.84096   C 211.06787,237.84096 203.31566,230.12871 203.31566,220.57831   C 203.31566,211.06787 211.06787,203.31566 220.57831,203.31566   C 230.12871,203.31566 237.84096,211.06787 237.84096,220.57831   z "
     style="fill:#000000;fill-rule:evenodd;fill-opacity:1;stroke:none;" />
  <path
     id="path11"
     d="  M 237.84096,220.57831   C 237.84096,230.12871 230.12871,237.84096 220.57831,237.84096   C 211.06787,237.84096 203.31566,230.12871 203.31566,220.57831   C 203.31566,211.06787 211.06787,203.31566 220.57831,203.31566   C 230.12871,203.31566 237.84096,211.06787 237.84096,220.57831  "
     style="fill:none;stroke:#000000;stroke-width:9.5903616px;stroke-linecap:butt;stroke-linejoin:miter;stroke-miterlimit:10;stroke-dasharray:none;stroke-opacity:1;" />
  <path
     id="path13"
     d="  M 222.49638,134.26506   L 172.6265,191.80723  "
     style="fill:none;stroke:#000000;stroke-width:9.5903616px;stroke-linecap:butt;stroke-linejoin:miter;stroke-miterlimit:10;stroke-dasharray:none;stroke-opacity:1;" />
  <path
     id="path15"
     d="  M 218.66024,134.26506   L 268.53012,191.80723  "
     style="fill:none;stroke:#000000;stroke-width:9.5903616px;stroke-linecap:butt;stroke-linejoin:miter;stroke-miterlimit:10;stroke-dasharray:none;stroke-opacity:1;" />
  <path
     id="path17"
     d="  M 156.32289,263.73494   C 156.32289,270.64799 150.76847,276.20241 143.85542,276.20241   C 136.98233,276.20241 131.38795,270.64799 131.38795,263.73494   C 131.38795,256.86184 136.98233,251.26747 143.85542,251.26747   C 150.76847,251.26747 156.32289,256.86184 156.32289,263.73494  "
     style="fill:none;stroke:#000000;stroke-width:9.5903616px;stroke-linecap:butt;stroke-linejoin:miter;stroke-miterlimit:10;stroke-dasharray:none;stroke-opacity:1;" />
  <path
     id="path19"
     d="  M 309.76867,263.73494   C 309.76867,270.64799 304.21425,276.20241 297.3012,276.20241   C 290.42811,276.20241 284.83373,270.64799 284.83373,263.73494   C 284.83373,256.86184 290.42811,251.26747 297.3012,251.26747   C 304.21425,251.26747 309.76867,256.86184 309.76867,263.73494  "
     style="fill:none;stroke:#000000;stroke-width:9.5903616px;stroke-linecap:butt;stroke-linejoin:miter;stroke-miterlimit:10;stroke-dasharray:none;stroke-opacity:1;" />
  <path
     id="path21"
     d="  M 126.59277,247.43132   L 314.56385,247.43132  "
     style="fill:none;stroke:#000000;stroke-width:9.5903616px;stroke-linecap:butt;stroke-linejoin:miter;stroke-miterlimit:10;stroke-dasharray:none;stroke-opacity:1;" />
</svg>
