<?xml version="1.0" encoding="UTF-8" standalone="no"?>
<svg
   xmlns:dc="http://purl.org/dc/elements/1.1/"
   xmlns:cc="http://creativecommons.org/ns#"
   xmlns:rdf="http://www.w3.org/1999/02/22-rdf-syntax-ns#"
   xmlns:svg="http://www.w3.org/2000/svg"
   xmlns="http://www.w3.org/2000/svg"
   id="svg11"
   height="95.75mm"
   width="95.75mm"
   version="1.0">
  <metadata
     id="metadata15">
    <rdf:RDF>
      <cc:Work
         rdf:about="">
        <dc:format>image/svg+xml</dc:format>
        <dc:type
           rdf:resource="http://purl.org/dc/dcmitype/StillImage" />
      </cc:Work>
    </rdf:RDF>
  </metadata>
  <defs
     id="defs3">
    <pattern
       y="0"
       x="0"
       height="6"
       width="6"
       patternUnits="userSpaceOnUse"
       id="EMFhbasepattern" />
  </defs>
  <path
     id="path5"
     d="  M 54.345381,54.345381   L 54.345381,307.53092   L 307.53092,307.53092   L 307.53092,54.345381   L 54.345381,54.345381   z "
     style="fill:#aaffaa;fill-rule:evenodd;fill-opacity:1;stroke:none;" />
  <path
     id="path7"
     d="  M 54.345381,54.345381   L 307.53092,54.345381   L 307.53092,307.53092   L 54.345381,307.53092   z "
     style="fill:none;stroke:#000000;stroke-width:9.5903616px;stroke-linecap:butt;stroke-linejoin:miter;stroke-miterlimit:10;stroke-dasharray:none;stroke-opacity:1;" />
  <path
     id="path9"
     d="  M 150.52871,118.36104   L 140.65863,111.16827   L 181.05803,76.403212   L 219.85903,109.80964   L 211.30763,118.12128   L 180.89819,92.546987   L 150.52871,118.36104  z    M 215.46345,134.94438   L 207.27168,142.89638   L 185.85321,125.03434   L 185.85321,284.75381   L 174.18494,284.75381   L 174.18494,126.55281   L 155.68353,143.3759   L 146.61265,135.78353   L 181.09799,106.21325   L 215.46345,134.94438  z    M 174.18494,183.89518   L 174.18494,173.4257   L 149.21004,173.4257   L 149.21004,183.89518   L 174.18494,183.89518  z    M 174.18494,207.99096   L 174.18494,197.08192   L 149.21004,197.08192   L 149.21004,207.99096   L 174.18494,207.99096  z    M 210.22871,183.89518   L 210.22871,173.8253   L 185.85321,173.8253   L 185.85321,183.89518   L 210.22871,183.89518  z    M 210.22871,207.99096   L 210.22871,197.08192   L 185.85321,197.08192   L 185.85321,208.39056   L 210.22871,207.99096  z   "
     style="fill:#000000;fill-rule:evenodd;fill-opacity:1;stroke:none;" />
</svg>
