<?xml version="1.0" encoding="UTF-8" standalone="no"?>
<svg
   xmlns:dc="http://purl.org/dc/elements/1.1/"
   xmlns:cc="http://creativecommons.org/ns#"
   xmlns:rdf="http://www.w3.org/1999/02/22-rdf-syntax-ns#"
   xmlns:svg="http://www.w3.org/2000/svg"
   xmlns="http://www.w3.org/2000/svg"
   id="svg23"
   height="89.669998mm"
   width="120.11mm"
   version="1.0">
  <metadata
     id="metadata27">
    <rdf:RDF>
      <cc:Work
         rdf:about="">
        <dc:format>image/svg+xml</dc:format>
        <dc:type
           rdf:resource="http://purl.org/dc/dcmitype/StillImage" />
      </cc:Work>
    </rdf:RDF>
  </metadata>
  <defs
     id="defs3">
    <pattern
       y="0"
       x="0"
       height="6"
       width="6"
       patternUnits="userSpaceOnUse"
       id="EMFhbasepattern" />
  </defs>
  <path
     id="path5"
     d="  M 54.345381,54.345381   L 54.345381,284.51405   L 399.59839,284.51405   L 399.59839,54.345381   L 54.345381,54.345381   z "
     style="fill:#80e0ff;fill-rule:evenodd;fill-opacity:1;stroke:none;" />
  <path
     id="path7"
     d="  M 54.345381,54.345381   L 399.59839,54.345381   L 399.59839,284.51405   L 54.345381,284.51405   z "
     style="fill:none;stroke:#000000;stroke-width:9.5903616px;stroke-linecap:butt;stroke-linejoin:miter;stroke-miterlimit:10;stroke-dasharray:none;stroke-opacity:1;" />
  <path
     id="path9"
     d="  M 244.23453,169.42972   C 244.23453,178.98012 236.52229,186.69237 226.97188,186.69237   C 217.46144,186.69237 209.70923,178.98012 209.70923,169.42972   C 209.70923,159.91927 217.46144,152.16707 226.97188,152.16707   C 236.52229,152.16707 244.23453,159.91927 244.23453,169.42972   z "
     style="fill:#000000;fill-rule:evenodd;fill-opacity:1;stroke:none;" />
  <path
     id="path11"
     d="  M 244.23453,169.42972   C 244.23453,178.98012 236.52229,186.69237 226.97188,186.69237   C 217.46144,186.69237 209.70923,178.98012 209.70923,169.42972   C 209.70923,159.91927 217.46144,152.16707 226.97188,152.16707   C 236.52229,152.16707 244.23453,159.91927 244.23453,169.42972  "
     style="fill:none;stroke:#000000;stroke-width:9.5903616px;stroke-linecap:butt;stroke-linejoin:miter;stroke-miterlimit:10;stroke-dasharray:none;stroke-opacity:1;" />
  <path
     id="path13"
     d="  M 228.88996,83.116465   L 179.02008,140.65863  "
     style="fill:none;stroke:#000000;stroke-width:9.5903616px;stroke-linecap:butt;stroke-linejoin:miter;stroke-miterlimit:10;stroke-dasharray:none;stroke-opacity:1;" />
  <path
     id="path15"
     d="  M 225.05381,83.116465   L 274.92369,140.65863  "
     style="fill:none;stroke:#000000;stroke-width:9.5903616px;stroke-linecap:butt;stroke-linejoin:miter;stroke-miterlimit:10;stroke-dasharray:none;stroke-opacity:1;" />
  <path
     id="path17"
     d="  M 162.71646,212.58634   C 162.71646,219.49939 157.16205,225.05381 150.24899,225.05381   C 143.3759,225.05381 137.78152,219.49939 137.78152,212.58634   C 137.78152,205.71325 143.3759,200.11887 150.24899,200.11887   C 157.16205,200.11887 162.71646,205.71325 162.71646,212.58634  "
     style="fill:none;stroke:#000000;stroke-width:9.5903616px;stroke-linecap:butt;stroke-linejoin:miter;stroke-miterlimit:10;stroke-dasharray:none;stroke-opacity:1;" />
  <path
     id="path19"
     d="  M 316.16224,212.58634   C 316.16224,219.49939 310.60783,225.05381 303.69477,225.05381   C 296.82168,225.05381 291.22731,219.49939 291.22731,212.58634   C 291.22731,205.71325 296.82168,200.11887 303.69477,200.11887   C 310.60783,200.11887 316.16224,205.71325 316.16224,212.58634  "
     style="fill:none;stroke:#000000;stroke-width:9.5903616px;stroke-linecap:butt;stroke-linejoin:miter;stroke-miterlimit:10;stroke-dasharray:none;stroke-opacity:1;" />
  <path
     id="path21"
     d="  M 132.98634,196.28273   L 320.95743,196.28273  "
     style="fill:none;stroke:#000000;stroke-width:9.5903616px;stroke-linecap:butt;stroke-linejoin:miter;stroke-miterlimit:10;stroke-dasharray:none;stroke-opacity:1;" />
</svg>
