<?xml version="1.0" encoding="UTF-8" standalone="no"?>
<svg
   xmlns:dc="http://purl.org/dc/elements/1.1/"
   xmlns:cc="http://creativecommons.org/ns#"
   xmlns:rdf="http://www.w3.org/1999/02/22-rdf-syntax-ns#"
   xmlns:svg="http://www.w3.org/2000/svg"
   xmlns="http://www.w3.org/2000/svg"
   id="svg23"
   height="95.75mm"
   width="95.75mm"
   version="1.0">
  <metadata
     id="metadata27">
    <rdf:RDF>
      <cc:Work
         rdf:about="">
        <dc:format>image/svg+xml</dc:format>
        <dc:type
           rdf:resource="http://purl.org/dc/dcmitype/StillImage" />
      </cc:Work>
    </rdf:RDF>
  </metadata>
  <defs
     id="defs3">
    <pattern
       y="0"
       x="0"
       height="6"
       width="6"
       patternUnits="userSpaceOnUse"
       id="EMFhbasepattern" />
  </defs>
  <path
     id="path5"
     d="  M 54.345381,54.345381   L 54.345381,307.53092   L 307.53092,307.53092   L 307.53092,54.345381   L 54.345381,54.345381   z "
     style="fill:#aaffaa;fill-rule:evenodd;fill-opacity:1;stroke:none;" />
  <path
     id="path7"
     d="  M 54.345381,54.345381   L 307.53092,54.345381   L 307.53092,307.53092   L 54.345381,307.53092   z "
     style="fill:none;stroke:#000000;stroke-width:9.5903616px;stroke-linecap:butt;stroke-linejoin:miter;stroke-miterlimit:10;stroke-dasharray:none;stroke-opacity:1;" />
  <path
     id="path9"
     d="  M 198.2008,180.93815   C 198.2008,190.48855 190.48855,198.2008 180.93815,198.2008   C 171.42771,198.2008 163.6755,190.48855 163.6755,180.93815   C 163.6755,171.42771 171.42771,163.6755 180.93815,163.6755   C 190.48855,163.6755 198.2008,171.42771 198.2008,180.93815   z "
     style="fill:#000000;fill-rule:evenodd;fill-opacity:1;stroke:none;" />
  <path
     id="path11"
     d="  M 198.2008,180.93815   C 198.2008,190.48855 190.48855,198.2008 180.93815,198.2008   C 171.42771,198.2008 163.6755,190.48855 163.6755,180.93815   C 163.6755,171.42771 171.42771,163.6755 180.93815,163.6755   C 190.48855,163.6755 198.2008,171.42771 198.2008,180.93815  "
     style="fill:none;stroke:#000000;stroke-width:9.5903616px;stroke-linecap:butt;stroke-linejoin:miter;stroke-miterlimit:10;stroke-dasharray:none;stroke-opacity:1;" />
  <path
     id="path13"
     d="  M 182.85622,94.624898   L 132.98634,152.16707  "
     style="fill:none;stroke:#000000;stroke-width:9.5903616px;stroke-linecap:butt;stroke-linejoin:miter;stroke-miterlimit:10;stroke-dasharray:none;stroke-opacity:1;" />
  <path
     id="path15"
     d="  M 179.02008,94.624898   L 228.88996,152.16707  "
     style="fill:none;stroke:#000000;stroke-width:9.5903616px;stroke-linecap:butt;stroke-linejoin:miter;stroke-miterlimit:10;stroke-dasharray:none;stroke-opacity:1;" />
  <path
     id="path17"
     d="  M 116.68273,224.09478   C 116.68273,231.00783 111.12831,236.56225 104.21526,236.56225   C 97.342167,236.56225 91.74779,231.00783 91.74779,224.09478   C 91.74779,217.22168 97.342167,211.62731 104.21526,211.62731   C 111.12831,211.62731 116.68273,217.22168 116.68273,224.09478  "
     style="fill:none;stroke:#000000;stroke-width:9.5903616px;stroke-linecap:butt;stroke-linejoin:miter;stroke-miterlimit:10;stroke-dasharray:none;stroke-opacity:1;" />
  <path
     id="path19"
     d="  M 270.12851,224.09478   C 270.12851,231.00783 264.57409,236.56225 257.66104,236.56225   C 250.78795,236.56225 245.19357,231.00783 245.19357,224.09478   C 245.19357,217.22168 250.78795,211.62731 257.66104,211.62731   C 264.57409,211.62731 270.12851,217.22168 270.12851,224.09478  "
     style="fill:none;stroke:#000000;stroke-width:9.5903616px;stroke-linecap:butt;stroke-linejoin:miter;stroke-miterlimit:10;stroke-dasharray:none;stroke-opacity:1;" />
  <path
     id="path21"
     d="  M 86.952609,207.79116   L 274.92369,207.79116  "
     style="fill:none;stroke:#000000;stroke-width:9.5903616px;stroke-linecap:butt;stroke-linejoin:miter;stroke-miterlimit:10;stroke-dasharray:none;stroke-opacity:1;" />
</svg>
