<?xml version="1.0" encoding="UTF-8" standalone="no"?>
<svg
   xmlns:dc="http://purl.org/dc/elements/1.1/"
   xmlns:cc="http://creativecommons.org/ns#"
   xmlns:rdf="http://www.w3.org/1999/02/22-rdf-syntax-ns#"
   xmlns:svg="http://www.w3.org/2000/svg"
   xmlns="http://www.w3.org/2000/svg"
   id="svg13"
   height="130.27mm"
   width="130.27mm"
   version="1.0">
  <metadata
     id="metadata17">
    <rdf:RDF>
      <cc:Work
         rdf:about="">
        <dc:format>image/svg+xml</dc:format>
        <dc:type
           rdf:resource="http://purl.org/dc/dcmitype/StillImage" />
      </cc:Work>
    </rdf:RDF>
  </metadata>
  <defs
     id="defs3">
    <pattern
       y="0"
       x="0"
       height="6"
       width="6"
       patternUnits="userSpaceOnUse"
       id="EMFhbasepattern" />
  </defs>
  <path
     id="path5"
     d="  M 164.63454,327.67068   C 164.63454,437.95983 327.67068,437.95983 327.67068,327.67068   C 437.95983,327.67068 437.95983,164.63454 327.67068,164.63454   C 327.67068,54.345381 164.63454,54.345381 164.63454,164.63454   C 54.345381,164.63454 54.345381,327.67068 164.63454,327.67068   z "
     style="fill:#ffff80;fill-rule:evenodd;fill-opacity:1;stroke:none;" />
  <path
     id="path7"
     d="  M 164.63454,327.67068   C 164.63454,437.95983 327.67068,437.95983 327.67068,327.67068   C 437.95983,327.67068 437.95983,164.63454 327.67068,164.63454   C 327.67068,54.345381 164.63454,54.345381 164.63454,164.63454   C 54.345381,164.63454 54.345381,327.67068 164.63454,327.67068  "
     style="fill:none;stroke:#000000;stroke-width:9.5903616px;stroke-linecap:butt;stroke-linejoin:miter;stroke-miterlimit:10;stroke-dasharray:none;stroke-opacity:1;" />
  <path
     id="path9"
     d="  M 131.06827,170.38875   L 131.06827,170.38875   L 246.15261,265.33333   L 246.15261,226.97188   L 361.23694,321.91646  "
     style="fill:none;stroke:#000000;stroke-width:9.5903616px;stroke-linecap:butt;stroke-linejoin:miter;stroke-miterlimit:10;stroke-dasharray:none;stroke-opacity:1;" />
  <path
     id="path11"
     d="  M 222.13674,190.08895   L 226.57229,189.68935   C 226.81204,191.48755 227.29156,192.9261 228.0508,194.08494   C 228.85,195.24377 230.04879,196.16285 231.64719,196.88213   C 233.28554,197.56144 235.12369,197.92108 237.12168,197.92108   C 238.91988,197.92108 240.51827,197.64136 241.91686,197.12188   C 243.2755,196.60241 244.31445,195.84317 244.99377,194.92409   C 245.67309,193.96506 245.99277,192.96606 245.99277,191.84719   C 245.99277,190.72831 245.67309,189.76927 245.03373,188.93012   C 244.39437,188.09096 243.31546,187.37168 241.79698,186.81225   C 240.83795,186.45261 238.72008,185.85321 235.44337,185.09397   C 232.16666,184.29478 229.88895,183.53554 228.57028,182.85622   C 226.852,181.97711 225.57329,180.85823 224.73413,179.53956   C 223.93494,178.22088 223.49538,176.74237 223.49538,175.06405   C 223.49538,173.26586 224.01486,171.58755 225.01385,170.02911   C 226.05281,168.47068 227.53132,167.27189 229.52931,166.47269   C 231.48735,165.63353 233.64518,165.23393 236.04277,165.23393   C 238.72008,165.23393 241.03775,165.67349 243.0757,166.51265   C 245.07369,167.39176 246.63212,168.63052 247.71104,170.26887   C 248.82992,171.94719 249.38935,173.8253 249.46927,175.90321   L 244.95381,176.26285   C 244.71405,173.98514 243.8749,172.30682 242.4763,171.14799   C 241.07771,169.98915 238.9998,169.42972 236.24257,169.38976   C 233.40542,169.42972 231.32751,169.94919 230.00883,170.98815   C 228.69016,172.02711 228.0508,173.30582 228.0508,174.78433   C 228.0508,176.06305 228.53032,177.10201 229.44939,177.94116   C 230.36847,178.78032 232.7261,179.61948 236.56225,180.45863   C 240.39839,181.33775 243.03574,182.09699 244.47429,182.73634   C 246.55221,183.69538 248.07068,184.93413 249.06968,186.41265   C 250.06867,187.8512 250.54819,189.56948 250.54819,191.48755   C 250.54819,193.36566 249.98875,195.16385 248.90984,196.84217   C 247.83092,198.52048 246.27249,199.83915 244.23453,200.75823   C 242.19658,201.67731 239.91887,202.15682 237.36144,202.15682   C 234.1247,202.15682 231.40743,201.67731 229.2496,200.75823   C 227.0518,199.79919 225.33353,198.4006 224.09478,196.48253   C 222.85602,194.60441 222.21666,192.48654 222.13674,190.08895   z  M 257.1016,201.55743   L 257.1016,165.87329   L 282.91566,165.87329   L 282.91566,170.06907   L 261.81686,170.06907   L 261.81686,181.01807   L 281.55702,181.01807   L 281.55702,185.17389   L 261.81686,185.17389   L 261.81686,197.32168   L 283.75482,197.32168   L 283.75482,201.55743   z  M 290.22831,201.55743   L 290.22831,165.87329   L 295.06345,165.87329   L 313.80461,193.88514   L 313.80461,165.87329   L 318.36004,165.87329   L 318.36004,201.55743   L 313.48494,201.55743   L 294.74377,173.50562   L 294.74377,201.55743   z "
     style="fill:#000000;fill-rule:evenodd;fill-opacity:1;stroke:none;" />
</svg>
