<?xml version="1.0" encoding="UTF-8" standalone="no"?>
<svg
   xmlns:dc="http://purl.org/dc/elements/1.1/"
   xmlns:cc="http://creativecommons.org/ns#"
   xmlns:rdf="http://www.w3.org/1999/02/22-rdf-syntax-ns#"
   xmlns:svg="http://www.w3.org/2000/svg"
   xmlns="http://www.w3.org/2000/svg"
   id="svg25"
   height="95.75mm"
   width="95.75mm"
   version="1.0">
  <metadata
     id="metadata29">
    <rdf:RDF>
      <cc:Work
         rdf:about="">
        <dc:format>image/svg+xml</dc:format>
        <dc:type
           rdf:resource="http://purl.org/dc/dcmitype/StillImage" />
      </cc:Work>
    </rdf:RDF>
  </metadata>
  <defs
     id="defs3">
    <pattern
       y="0"
       x="0"
       height="6"
       width="6"
       patternUnits="userSpaceOnUse"
       id="EMFhbasepattern" />
  </defs>
  <path
     id="path5"
     d="  M 54.345381,54.345381   L 54.345381,307.53092   L 307.53092,307.53092   L 307.53092,54.345381   L 54.345381,54.345381   z "
     style="fill:#aaffaa;fill-rule:evenodd;fill-opacity:1;stroke:none;" />
  <path
     id="path7"
     d="  M 54.345381,54.345381   L 307.53092,54.345381   L 307.53092,307.53092   L 54.345381,307.53092   z "
     style="fill:none;stroke:#000000;stroke-width:9.5903616px;stroke-linecap:butt;stroke-linejoin:miter;stroke-miterlimit:10;stroke-dasharray:none;stroke-opacity:1;" />
  <path
     id="path9"
     d="  M 136.06325,156.00321   C 136.06325,164.59458 129.11024,171.54759 120.51887,171.54759   C 111.96747,171.54759 105.01446,164.59458 105.01446,156.00321   C 105.01446,147.45181 111.96747,140.49879 120.51887,140.49879   C 129.11024,140.49879 136.06325,147.45181 136.06325,156.00321   z "
     style="fill:#000000;fill-rule:evenodd;fill-opacity:1;stroke:none;" />
  <path
     id="path11"
     d="  M 136.06325,156.00321   C 136.06325,164.59458 129.11024,171.54759 120.51887,171.54759   C 111.96747,171.54759 105.01446,164.59458 105.01446,156.00321   C 105.01446,147.45181 111.96747,140.49879 120.51887,140.49879   C 129.11024,140.49879 136.06325,147.45181 136.06325,156.00321  "
     style="fill:none;stroke:#000000;stroke-width:8.6313248px;stroke-linecap:butt;stroke-linejoin:miter;stroke-miterlimit:10;stroke-dasharray:none;stroke-opacity:1;" />
  <path
     id="path13"
     d="  M 256.9018,156.00321   C 256.9018,164.59458 249.94879,171.54759 241.35743,171.54759   C 232.80602,171.54759 225.85301,164.59458 225.85301,156.00321   C 225.85301,147.45181 232.80602,140.49879 241.35743,140.49879   C 249.94879,140.49879 256.9018,147.45181 256.9018,156.00321   z "
     style="fill:#000000;fill-rule:evenodd;fill-opacity:1;stroke:none;" />
  <path
     id="path15"
     d="  M 256.9018,156.00321   C 256.9018,164.59458 249.94879,171.54759 241.35743,171.54759   C 232.80602,171.54759 225.85301,164.59458 225.85301,156.00321   C 225.85301,147.45181 232.80602,140.49879 241.35743,140.49879   C 249.94879,140.49879 256.9018,147.45181 256.9018,156.00321  "
     style="fill:none;stroke:#000000;stroke-width:8.6313248px;stroke-linecap:butt;stroke-linejoin:miter;stroke-miterlimit:10;stroke-dasharray:none;stroke-opacity:1;" />
  <path
     id="path17"
     d="  M 129.1502,143.05622   C 180.93815,173.26586 189.56948,190.52851 211.14779,268.21044  "
     style="fill:none;stroke:#000000;stroke-width:8.6313248px;stroke-linecap:butt;stroke-linejoin:miter;stroke-miterlimit:10;stroke-dasharray:none;stroke-opacity:1;" />
  <path
     id="path19"
     d="  M 232.7261,143.05622   C 180.93815,173.26586 172.30682,190.52851 150.72851,268.21044  "
     style="fill:none;stroke:#000000;stroke-width:8.6313248px;stroke-linecap:butt;stroke-linejoin:miter;stroke-miterlimit:10;stroke-dasharray:none;stroke-opacity:1;" />
  <path
     id="path21"
     d="  M 155.96325,96.942569   L 159.7994,96.58293   C 159.99919,98.141364 160.39879,99.420079 161.07811,100.41907   C 161.75743,101.37811 162.79638,102.17731 164.19498,102.81667   C 165.59357,103.41606 167.15201,103.73574 168.91024,103.73574   C 170.46867,103.73574 171.86727,103.49598 173.06606,103.01646   C 174.26486,102.57691 175.14397,101.93755 175.70341,101.09839   C 176.30281,100.2992 176.58253,99.420079 176.58253,98.461043   C 176.58253,97.502007 176.30281,96.66285 175.74337,95.943573   C 175.18393,95.224296 174.26486,94.584938 172.98614,94.10542   C 172.14699,93.785742 170.30883,93.306224 167.47168,92.586946   C 164.63454,91.907629 162.63654,91.268272 161.51767,90.668874   C 160.03915,89.909637 158.92028,88.950601 158.201,87.791766   C 157.48172,86.67289 157.12209,85.354216 157.12209,83.955621   C 157.12209,82.397188 157.56164,80.918674 158.44076,79.599999   C 159.31988,78.241364 160.63855,77.202409 162.31687,76.483131   C 164.03514,75.803814 165.91325,75.444176 167.99116,75.444176   C 170.30883,75.444176 172.30682,75.803814 174.06506,76.563051   C 175.82329,77.282328 177.14197,78.361244 178.101,79.799798   C 179.02008,81.238352 179.53956,82.876706 179.61948,84.674898   L 175.70341,84.954617   C 175.46365,82.996585 174.78433,81.558031 173.54558,80.559035   C 172.34678,79.560039 170.54859,79.040561 168.151,79.040561   C 165.71345,79.040561 163.8753,79.480119 162.75642,80.399196   C 161.63755,81.318272 161.07811,82.397188 161.07811,83.675902   C 161.07811,84.794778 161.47771,85.713854 162.27691,86.433131   C 163.03614,87.152408 165.11405,87.871685 168.43072,88.630922   C 171.74739,89.390159 174.0251,90.029517 175.26385,90.588955   C 177.06205,91.428111 178.38072,92.467067 179.25984,93.745782   C 180.09899,95.024497 180.53855,96.463051 180.53855,98.141364   C 180.53855,99.779717 180.05903,101.33815 179.13996,102.77671   C 178.18092,104.25522 176.82229,105.37409 175.06405,106.17329   C 173.30582,106.97249 171.30783,107.37209 169.11004,107.37209   C 166.31285,107.37209 163.99518,106.97249 162.07711,106.17329   C 160.19899,105.33414 158.72048,104.13534 157.64156,102.49699   C 156.56265,100.85863 156.00321,98.980521 155.96325,96.942569   z  M 186.13293,106.85261   L 186.13293,75.963654   L 196.76225,75.963654   C 199.15984,75.963654 200.99799,76.123493 202.2767,76.403212   C 204.03494,76.80281 205.55341,77.562047 206.79217,78.640963   C 208.43052,79.999597 209.62931,81.75783 210.46847,83.915661   C 211.26767,86.033533 211.66727,88.511043 211.66727,91.228312   C 211.66727,93.585942 211.38755,95.663854 210.82811,97.502007   C 210.30863,99.300199 209.58935,100.77871 208.7502,101.97751   C 207.87108,103.1763 206.95201,104.09538 205.91305,104.7747   C 204.91405,105.45401 203.6753,105.97349 202.23674,106.33313   C 200.79819,106.69277 199.11988,106.85261 197.28172,106.85261   z  M 190.20883,103.21626   L 196.80221,103.21626   C 198.84016,103.21626 200.43855,103.01646 201.59739,102.65683   C 202.75622,102.25723 203.6753,101.73775 204.35462,101.05843   C 205.35361,100.05944 206.11285,98.780721 206.63233,97.142368   C 207.19176,95.504015 207.43152,93.506023 207.43152,91.188352   C 207.43152,87.951605 206.91205,85.474095 205.87309,83.715862   C 204.79417,81.997589 203.51546,80.838754 201.99699,80.239356   C 200.87811,79.839758 199.11988,79.599999 196.68233,79.599999   L 190.20883,79.599999   z "
     style="fill:#000000;fill-rule:evenodd;fill-opacity:1;stroke:none;" />
  <path
     id="path23"
     d="  M 123.39598,123.39598   C 65.853814,123.39598 65.853814,238.48032 123.39598,238.48032   L 238.48032,238.48032   C 296.02249,238.48032 296.02249,123.39598 238.48032,123.39598   z "
     style="fill:none;stroke:#000000;stroke-width:9.5903616px;stroke-linecap:butt;stroke-linejoin:miter;stroke-miterlimit:10;stroke-dasharray:none;stroke-opacity:1;" />
</svg>
