<?xml version="1.0" encoding="UTF-8" standalone="no"?>
<svg
   xmlns:dc="http://purl.org/dc/elements/1.1/"
   xmlns:cc="http://creativecommons.org/ns#"
   xmlns:rdf="http://www.w3.org/1999/02/22-rdf-syntax-ns#"
   xmlns:svg="http://www.w3.org/2000/svg"
   xmlns="http://www.w3.org/2000/svg"
   id="svg23"
   height="116.73mm"
   width="116.73mm"
   version="1.0">
  <metadata
     id="metadata27">
    <rdf:RDF>
      <cc:Work
         rdf:about="">
        <dc:format>image/svg+xml</dc:format>
        <dc:type
           rdf:resource="http://purl.org/dc/dcmitype/StillImage" />
      </cc:Work>
    </rdf:RDF>
  </metadata>
  <defs
     id="defs3">
    <pattern
       y="0"
       x="0"
       height="6"
       width="6"
       patternUnits="userSpaceOnUse"
       id="EMFhbasepattern" />
  </defs>
  <path
     id="path5"
     d="  M 220.57831,386.49156   L 220.57831,386.49156   L 386.49156,220.57831   L 220.57831,54.665059   L 54.665059,220.57831   L 220.57831,386.49156   z "
     style="fill:#ff8080;fill-rule:evenodd;fill-opacity:1;stroke:none;" />
  <path
     id="path7"
     d="  M 220.57831,386.49156   L 220.57831,386.49156   L 386.49156,220.57831   L 220.57831,54.665059   L 54.665059,220.57831   L 220.57831,386.49156  "
     style="fill:none;stroke:#000000;stroke-width:9.5903616px;stroke-linecap:butt;stroke-linejoin:miter;stroke-miterlimit:10;stroke-dasharray:none;stroke-opacity:1;" />
  <path
     id="path9"
     d="  M 170.70843,182.21686   C 170.70843,191.76727 162.99618,199.47952 153.44578,199.47952   C 143.93534,199.47952 136.18313,191.76727 136.18313,182.21686   C 136.18313,172.70642 143.93534,164.95421 153.44578,164.95421   C 162.99618,164.95421 170.70843,172.70642 170.70843,182.21686   z "
     style="fill:#000000;fill-rule:evenodd;fill-opacity:1;stroke:none;" />
  <path
     id="path11"
     d="  M 170.70843,182.21686   C 170.70843,191.76727 162.99618,199.47952 153.44578,199.47952   C 143.93534,199.47952 136.18313,191.76727 136.18313,182.21686   C 136.18313,172.70642 143.93534,164.95421 153.44578,164.95421   C 162.99618,164.95421 170.70843,172.70642 170.70843,182.21686  "
     style="fill:none;stroke:#000000;stroke-width:9.5903616px;stroke-linecap:butt;stroke-linejoin:miter;stroke-miterlimit:10;stroke-dasharray:none;stroke-opacity:1;" />
  <path
     id="path13"
     d="  M 304.97349,182.21686   C 304.97349,191.76727 297.26124,199.47952 287.71084,199.47952   C 278.2004,199.47952 270.44819,191.76727 270.44819,182.21686   C 270.44819,172.70642 278.2004,164.95421 287.71084,164.95421   C 297.26124,164.95421 304.97349,172.70642 304.97349,182.21686   z "
     style="fill:#000000;fill-rule:evenodd;fill-opacity:1;stroke:none;" />
  <path
     id="path15"
     d="  M 304.97349,182.21686   C 304.97349,191.76727 297.26124,199.47952 287.71084,199.47952   C 278.2004,199.47952 270.44819,191.76727 270.44819,182.21686   C 270.44819,172.70642 278.2004,164.95421 287.71084,164.95421   C 297.26124,164.95421 304.97349,172.70642 304.97349,182.21686  "
     style="fill:none;stroke:#000000;stroke-width:9.5903616px;stroke-linecap:butt;stroke-linejoin:miter;stroke-miterlimit:10;stroke-dasharray:none;stroke-opacity:1;" />
  <path
     id="path17"
     d="  M 163.03614,167.83132   C 220.57831,201.39759 230.16867,220.57831 254.14457,306.89156  "
     style="fill:none;stroke:#000000;stroke-width:9.5903616px;stroke-linecap:butt;stroke-linejoin:miter;stroke-miterlimit:10;stroke-dasharray:none;stroke-opacity:1;" />
  <path
     id="path19"
     d="  M 278.12048,167.83132   C 220.57831,201.39759 210.98795,220.57831 187.01205,306.89156  "
     style="fill:none;stroke:#000000;stroke-width:9.5903616px;stroke-linecap:butt;stroke-linejoin:miter;stroke-miterlimit:10;stroke-dasharray:none;stroke-opacity:1;" />
  <path
     id="path21"
     d="  M 179.21988,146.41285   L 185.65341,145.85341   C 185.97309,148.41084 186.69237,150.52871 187.77128,152.20703   C 188.89016,153.84538 190.60843,155.16405 192.96606,156.20301   C 195.32369,157.20201 197.96104,157.72148 200.87811,157.72148   C 203.4755,157.72148 205.75321,157.32189 207.7512,156.56265   C 209.74919,155.80341 211.22771,154.7245 212.18674,153.40582   C 213.18574,152.04719 213.66526,150.56867 213.66526,148.97028   C 213.66526,147.37189 213.18574,145.97329 212.2267,144.73454   C 211.30763,143.53574 209.74919,142.53674 207.59136,141.69759   C 206.23273,141.17811 203.15582,140.33895 198.44056,139.18012   C 193.7253,138.06124 190.40863,136.98233 188.49056,135.98333   C 186.05301,134.70462 184.21486,133.10622 183.01606,131.18815   C 181.81727,129.27008 181.21787,127.15221 181.21787,124.79458   C 181.21787,122.19719 181.93715,119.75964 183.41566,117.48193   C 184.89417,115.24418 187.05201,113.5259 189.88915,112.36707   C 192.7263,111.16827 195.84317,110.60883 199.31968,110.60883   C 203.15582,110.60883 206.51245,111.20823 209.42952,112.44699   C 212.34658,113.64578 214.58433,115.48393 216.14277,117.88152   C 217.7012,120.23915 218.54036,122.95642 218.66024,125.95341   L 212.14678,126.47289   C 211.78715,123.19618 210.58835,120.75863 208.59036,119.08032   C 206.55241,117.44197 203.55542,116.60281 199.59939,116.60281   C 195.48353,116.60281 192.48654,117.36205 190.60843,118.88052   C 188.73032,120.35903 187.77128,122.19719 187.77128,124.31506   C 187.77128,126.19317 188.4506,127.71164 189.76927,128.87048   C 191.08795,130.06928 194.5245,131.30803 200.03895,132.54679   C 205.59337,133.8255 209.38956,134.90442 211.42751,135.82349   C 214.42449,137.22209 216.66225,138.98032 218.06084,141.09819   C 219.49939,143.21606 220.21867,145.65361 220.21867,148.41084   C 220.21867,151.16807 219.41947,153.7255 217.86104,156.16305   C 216.30261,158.6006 214.0249,160.47871 211.10783,161.79739   C 208.1508,163.15602 204.87409,163.83534 201.19779,163.83534   C 196.52249,163.83534 192.60642,163.15602 189.48956,161.79739   C 186.33273,160.43875 183.85522,158.4008 182.05703,155.68353   C 180.25883,152.9263 179.33976,149.8494 179.21988,146.41285   z  M 229.52931,162.95622   L 229.52931,111.44799   L 247.27148,111.44799   C 251.26747,111.48795 254.30441,111.72771 256.42229,112.20723   C 259.37931,112.88654 261.89678,114.1253 263.97469,115.88353   C 266.69196,118.2012 268.72992,121.11827 270.08855,124.6747   C 271.40722,128.27108 272.08654,132.34699 272.08654,136.94237   C 272.08654,140.85843 271.64698,144.29498 270.72791,147.33193   C 269.80883,150.32891 268.65,152.84638 267.21144,154.84438   C 265.77289,156.80241 264.21445,158.36084 262.53614,159.47972   C 260.81787,160.63855 258.77992,161.47771 256.38233,162.07711   C 253.98474,162.6765 251.22751,162.95622 248.11064,162.95622   z  M 236.32249,156.88233   L 247.3514,156.88233   C 250.74799,156.88233 253.38534,156.56265 255.30341,155.92329   C 257.26144,155.28393 258.77992,154.40482 259.93875,153.24598   C 261.53714,151.64759 262.81586,149.48976 263.73494,146.73253   C 264.61405,144.01526 265.05361,140.69859 265.05361,136.82249   C 265.05361,131.42791 264.17449,127.31205 262.41626,124.39498   C 260.65803,121.51787 258.5002,119.5998 255.98273,118.6008   C 254.14457,117.88152 251.22751,117.56185 247.1516,117.56185   L 236.32249,117.56185   z "
     style="fill:#000000;fill-rule:evenodd;fill-opacity:1;stroke:none;" />
</svg>
