<?xml version="1.0" encoding="UTF-8" standalone="no"?>
<svg
   xmlns:dc="http://purl.org/dc/elements/1.1/"
   xmlns:cc="http://creativecommons.org/ns#"
   xmlns:rdf="http://www.w3.org/1999/02/22-rdf-syntax-ns#"
   xmlns:svg="http://www.w3.org/2000/svg"
   xmlns="http://www.w3.org/2000/svg"
   id="svg25"
   height="89.669998mm"
   width="120.11mm"
   version="1.0">
  <metadata
     id="metadata29">
    <rdf:RDF>
      <cc:Work
         rdf:about="">
        <dc:format>image/svg+xml</dc:format>
        <dc:type
           rdf:resource="http://purl.org/dc/dcmitype/StillImage" />
      </cc:Work>
    </rdf:RDF>
  </metadata>
  <defs
     id="defs3">
    <pattern
       y="0"
       x="0"
       height="6"
       width="6"
       patternUnits="userSpaceOnUse"
       id="EMFhbasepattern" />
  </defs>
  <path
     id="path5"
     d="  M 54.345381,54.345381   L 54.345381,284.51405   L 399.59839,284.51405   L 399.59839,54.345381   L 54.345381,54.345381   z "
     style="fill:#80e0ff;fill-rule:evenodd;fill-opacity:1;stroke:none;" />
  <path
     id="path7"
     d="  M 54.345381,54.345381   L 399.59839,54.345381   L 399.59839,284.51405   L 54.345381,284.51405   z "
     style="fill:none;stroke:#000000;stroke-width:9.5903616px;stroke-linecap:butt;stroke-linejoin:miter;stroke-miterlimit:10;stroke-dasharray:none;stroke-opacity:1;" />
  <path
     id="path9"
     d="  M 177.10201,140.65863   C 177.10201,150.20903 169.38976,157.92128 159.83936,157.92128   C 150.32891,157.92128 142.5767,150.20903 142.5767,140.65863   C 142.5767,131.14819 150.32891,123.39598 159.83936,123.39598   C 169.38976,123.39598 177.10201,131.14819 177.10201,140.65863   z "
     style="fill:#000000;fill-rule:evenodd;fill-opacity:1;stroke:none;" />
  <path
     id="path11"
     d="  M 177.10201,140.65863   C 177.10201,150.20903 169.38976,157.92128 159.83936,157.92128   C 150.32891,157.92128 142.5767,150.20903 142.5767,140.65863   C 142.5767,131.14819 150.32891,123.39598 159.83936,123.39598   C 169.38976,123.39598 177.10201,131.14819 177.10201,140.65863  "
     style="fill:none;stroke:#000000;stroke-width:9.5903616px;stroke-linecap:butt;stroke-linejoin:miter;stroke-miterlimit:10;stroke-dasharray:none;stroke-opacity:1;" />
  <path
     id="path13"
     d="  M 311.36706,140.65863   C 311.36706,150.20903 303.65481,157.92128 294.10441,157.92128   C 284.59397,157.92128 276.84176,150.20903 276.84176,140.65863   C 276.84176,131.14819 284.59397,123.39598 294.10441,123.39598   C 303.65481,123.39598 311.36706,131.14819 311.36706,140.65863   z "
     style="fill:#000000;fill-rule:evenodd;fill-opacity:1;stroke:none;" />
  <path
     id="path15"
     d="  M 311.36706,140.65863   C 311.36706,150.20903 303.65481,157.92128 294.10441,157.92128   C 284.59397,157.92128 276.84176,150.20903 276.84176,140.65863   C 276.84176,131.14819 284.59397,123.39598 294.10441,123.39598   C 303.65481,123.39598 311.36706,131.14819 311.36706,140.65863  "
     style="fill:none;stroke:#000000;stroke-width:9.5903616px;stroke-linecap:butt;stroke-linejoin:miter;stroke-miterlimit:10;stroke-dasharray:none;stroke-opacity:1;" />
  <path
     id="path17"
     d="  M 169.42972,126.27309   C 226.97188,159.83936 236.56225,179.02008 260.53815,265.33333  "
     style="fill:none;stroke:#000000;stroke-width:9.5903616px;stroke-linecap:butt;stroke-linejoin:miter;stroke-miterlimit:10;stroke-dasharray:none;stroke-opacity:1;" />
  <path
     id="path19"
     d="  M 284.51405,126.27309   C 226.97188,159.83936 217.38152,179.02008 193.40562,265.33333  "
     style="fill:none;stroke:#000000;stroke-width:9.5903616px;stroke-linecap:butt;stroke-linejoin:miter;stroke-miterlimit:10;stroke-dasharray:none;stroke-opacity:1;" />
  <path
     id="path21"
     d="  M 162.6765,101.73775   L 166.51265,101.37811   C 166.71245,102.93654 167.11205,104.21526 167.79136,105.21426   C 168.47068,106.17329 169.50964,106.97249 170.90823,107.61185   C 172.30682,108.21124 173.86526,108.53092 175.62349,108.53092   C 177.18193,108.53092 178.58052,108.29116 179.77931,107.81165   C 180.97811,107.37209 181.85723,106.73273 182.41666,105.89357   C 183.01606,105.09438 183.29578,104.21526 183.29578,103.25622   C 183.29578,102.29719 183.01606,101.45803 182.45662,100.73875   C 181.89719,100.01948 180.97811,99.380119 179.69939,98.900601   C 178.86024,98.580922 177.02209,98.101404 174.18494,97.382127   C 171.34779,96.70281 169.3498,96.063452 168.23092,95.464055   C 166.75241,94.704818 165.63353,93.745782 164.91425,92.586946   C 164.19498,91.468071 163.83534,90.149396 163.83534,88.750802   C 163.83534,87.192368 164.2749,85.713854 165.15401,84.39518   C 166.03313,83.036545 167.3518,81.997589 169.03012,81.278312   C 170.74839,80.598995 172.6265,80.239356 174.70442,80.239356   C 177.02209,80.239356 179.02008,80.598995 180.77831,81.358232   C 182.53654,82.077509 183.85522,83.156425 184.81425,84.594979   C 185.73333,86.033533 186.25281,87.671886 186.33273,89.470079   L 182.41666,89.749798   C 182.1769,87.791766 181.49759,86.353212 180.25883,85.354216   C 179.06004,84.35522 177.26184,83.835742 174.86425,83.835742   C 172.4267,83.835742 170.58855,84.2753 169.46968,85.194376   C 168.3508,86.113453 167.79136,87.192368 167.79136,88.471083   C 167.79136,89.589959 168.19096,90.509035 168.99016,91.228312   C 169.7494,91.947589 171.82731,92.666866 175.14397,93.426103   C 178.46064,94.18534 180.73835,94.824697 181.97711,95.384135   C 183.7753,96.223292 185.09397,97.262248 185.97309,98.540962   C 186.81225,99.819677 187.2518,101.25823 187.2518,102.93654   C 187.2518,104.5749 186.77229,106.13333 185.85321,107.57189   C 184.89417,109.0504 183.53554,110.16928 181.77731,110.96847   C 180.01907,111.76767 178.02108,112.16727 175.82329,112.16727   C 173.0261,112.16727 170.70843,111.76767 168.79036,110.96847   C 166.91225,110.12932 165.43373,108.93052 164.35482,107.29217   C 163.2759,105.65381 162.71646,103.7757 162.6765,101.73775   z  M 192.84618,111.64779   L 192.84618,80.758834   L 203.4755,80.758834   C 205.87309,80.758834 207.71124,80.918674 208.98996,81.198392   C 210.74819,81.597991 212.26666,82.357228 213.50542,83.436143   C 215.14377,84.794778 216.34257,86.553011 217.18172,88.710842   C 217.98092,90.828714 218.38052,93.306224 218.38052,96.023493   C 218.38052,98.381123 218.1008,100.45903 217.54136,102.29719   C 217.02188,104.09538 216.30261,105.57389 215.46345,106.77269   C 214.58433,107.97148 213.66526,108.89056 212.6263,109.56988   C 211.62731,110.2492 210.38855,110.76867 208.95,111.12831   C 207.51144,111.48795 205.83313,111.64779 203.99498,111.64779   z  M 196.92209,108.01144   L 203.51546,108.01144   C 205.55341,108.01144 207.1518,107.81165 208.31064,107.45201   C 209.46947,107.05241 210.38855,106.53293 211.06787,105.85361   C 212.06686,104.85462 212.8261,103.5759 213.34558,101.93755   C 213.90502,100.2992 214.14478,98.301203 214.14478,95.983533   C 214.14478,92.746786 213.6253,90.269276 212.58634,88.511043   C 211.50743,86.79277 210.22871,85.633935 208.71024,85.034537   C 207.59136,84.634939 205.83313,84.39518 203.39558,84.39518   L 196.92209,84.39518   z "
     style="fill:#000000;fill-rule:evenodd;fill-opacity:1;stroke:none;" />
  <path
     id="path23"
     d="  M 226.97188,54.345381   L 226.97188,284.51405  "
     style="fill:none;stroke:#000000;stroke-width:9.5903616px;stroke-linecap:butt;stroke-linejoin:miter;stroke-miterlimit:10;stroke-dasharray:none;stroke-opacity:1;" />
</svg>
