<?xml version="1.0" encoding="UTF-8" standalone="no"?>
<svg
   xmlns:dc="http://purl.org/dc/elements/1.1/"
   xmlns:cc="http://creativecommons.org/ns#"
   xmlns:rdf="http://www.w3.org/1999/02/22-rdf-syntax-ns#"
   xmlns:svg="http://www.w3.org/2000/svg"
   xmlns="http://www.w3.org/2000/svg"
   id="svg25"
   height="116.73mm"
   width="116.73mm"
   version="1.0">
  <metadata
     id="metadata29">
    <rdf:RDF>
      <cc:Work
         rdf:about="">
        <dc:format>image/svg+xml</dc:format>
        <dc:type
           rdf:resource="http://purl.org/dc/dcmitype/StillImage" />
      </cc:Work>
    </rdf:RDF>
  </metadata>
  <defs
     id="defs3">
    <pattern
       y="0"
       x="0"
       height="6"
       width="6"
       patternUnits="userSpaceOnUse"
       id="EMFhbasepattern" />
  </defs>
  <path
     id="path5"
     d="  M 220.57831,386.49156   L 220.57831,386.49156   L 386.49156,220.57831   L 220.57831,54.665059   L 54.665059,220.57831   L 220.57831,386.49156   z "
     style="fill:#ff8080;fill-rule:evenodd;fill-opacity:1;stroke:none;" />
  <path
     id="path7"
     d="  M 220.57831,386.49156   L 220.57831,386.49156   L 386.49156,220.57831   L 220.57831,54.665059   L 54.665059,220.57831   L 220.57831,386.49156  "
     style="fill:none;stroke:#000000;stroke-width:9.5903616px;stroke-linecap:butt;stroke-linejoin:miter;stroke-miterlimit:10;stroke-dasharray:none;stroke-opacity:1;" />
  <path
     id="path9"
     d="  M 175.70341,195.64337   C 175.70341,204.23474 168.7504,211.18775 160.15903,211.18775   C 151.60763,211.18775 144.65462,204.23474 144.65462,195.64337   C 144.65462,187.09197 151.60763,180.13895 160.15903,180.13895   C 168.7504,180.13895 175.70341,187.09197 175.70341,195.64337   z "
     style="fill:#000000;fill-rule:evenodd;fill-opacity:1;stroke:none;" />
  <path
     id="path11"
     d="  M 175.70341,195.64337   C 175.70341,204.23474 168.7504,211.18775 160.15903,211.18775   C 151.60763,211.18775 144.65462,204.23474 144.65462,195.64337   C 144.65462,187.09197 151.60763,180.13895 160.15903,180.13895   C 168.7504,180.13895 175.70341,187.09197 175.70341,195.64337  "
     style="fill:none;stroke:#000000;stroke-width:8.6313248px;stroke-linecap:butt;stroke-linejoin:miter;stroke-miterlimit:10;stroke-dasharray:none;stroke-opacity:1;" />
  <path
     id="path13"
     d="  M 296.54196,195.64337   C 296.54196,204.23474 289.58895,211.18775 280.99759,211.18775   C 272.44618,211.18775 265.49317,204.23474 265.49317,195.64337   C 265.49317,187.09197 272.44618,180.13895 280.99759,180.13895   C 289.58895,180.13895 296.54196,187.09197 296.54196,195.64337   z "
     style="fill:#000000;fill-rule:evenodd;fill-opacity:1;stroke:none;" />
  <path
     id="path15"
     d="  M 296.54196,195.64337   C 296.54196,204.23474 289.58895,211.18775 280.99759,211.18775   C 272.44618,211.18775 265.49317,204.23474 265.49317,195.64337   C 265.49317,187.09197 272.44618,180.13895 280.99759,180.13895   C 289.58895,180.13895 296.54196,187.09197 296.54196,195.64337  "
     style="fill:none;stroke:#000000;stroke-width:8.6313248px;stroke-linecap:butt;stroke-linejoin:miter;stroke-miterlimit:10;stroke-dasharray:none;stroke-opacity:1;" />
  <path
     id="path17"
     d="  M 168.79036,182.69638   C 220.57831,212.90602 229.20964,230.16867 250.78795,307.8506  "
     style="fill:none;stroke:#000000;stroke-width:8.6313248px;stroke-linecap:butt;stroke-linejoin:miter;stroke-miterlimit:10;stroke-dasharray:none;stroke-opacity:1;" />
  <path
     id="path19"
     d="  M 272.36626,182.69638   C 220.57831,212.90602 211.94698,230.16867 190.36867,307.8506  "
     style="fill:none;stroke:#000000;stroke-width:8.6313248px;stroke-linecap:butt;stroke-linejoin:miter;stroke-miterlimit:10;stroke-dasharray:none;stroke-opacity:1;" />
  <path
     id="path21"
     d="  M 206.67229,135.74357   L 211.82711,135.30401   C 212.06686,137.34197 212.6263,139.06024 213.54538,140.37891   C 214.42449,141.69759 215.78313,142.73654 217.66124,143.5757   C 219.53935,144.3749 221.65723,144.7745 223.9749,144.7745   C 226.09277,144.7745 227.89096,144.49478 229.48935,143.85542   C 231.08775,143.25602 232.28654,142.37691 233.04578,141.33795   C 233.84498,140.25903 234.20462,139.06024 234.20462,137.78152   C 234.20462,136.50281 233.84498,135.38393 233.08574,134.4249   C 232.36646,133.4259 231.12771,132.6267 229.36947,131.98735   C 228.29056,131.54779 225.85301,130.86847 222.05682,129.9494   C 218.26064,129.07028 215.62329,128.19116 214.10482,127.39197   C 212.14678,126.35301 210.66827,125.0743 209.70923,123.55582   C 208.7502,122.03735 208.27068,120.31907 208.27068,118.44096   C 208.27068,116.36305 208.83012,114.40502 210.02891,112.60683   C 211.22771,110.80863 212.94598,109.41004 215.18373,108.49096   C 217.46144,107.53193 219.97891,107.09237 222.7761,107.09237   C 225.81305,107.09237 228.49036,107.57189 230.84799,108.57088   C 233.16566,109.52992 234.96385,110.96847 236.20261,112.88654   C 237.48132,114.80462 238.16064,116.96245 238.24056,119.4   L 233.00582,119.7996   C 232.7261,117.16225 231.76706,115.20422 230.16867,113.88554   C 228.53032,112.56687 226.13273,111.88755 222.9759,111.88755   C 219.69919,111.88755 217.3016,112.48695 215.78313,113.68574   C 214.26466,114.9245 213.50542,116.36305 213.50542,118.08132   C 213.50542,119.55984 214.06486,120.75863 215.10381,121.71767   C 216.18273,122.67671 218.9,123.6757 223.33554,124.6747   C 227.77108,125.67369 230.80803,126.55281 232.44638,127.27209   C 234.84397,128.39096 236.60221,129.78956 237.76104,131.46787   C 238.91988,133.18614 239.47931,135.14417 239.47931,137.34197   C 239.47931,139.53976 238.83996,141.61767 237.6012,143.53574   C 236.32249,145.49377 234.52429,146.97229 232.16666,148.0512   C 229.84899,149.13012 227.17168,149.68956 224.25462,149.68956   C 220.53835,149.68956 217.38152,149.13012 214.86405,148.0512   C 212.34658,146.97229 210.38855,145.33393 208.95,143.13614   C 207.51144,140.97831 206.75221,138.5008 206.67229,135.74357   z "
     style="fill:#000000;fill-rule:evenodd;fill-opacity:1;stroke:none;" />
  <path
     id="path23"
     d="  M 163.03614,163.03614   C 105.49397,163.03614 105.49397,278.12048 163.03614,278.12048   L 278.12048,278.12048   C 335.66265,278.12048 335.66265,163.03614 278.12048,163.03614   z "
     style="fill:none;stroke:#000000;stroke-width:9.5903616px;stroke-linecap:butt;stroke-linejoin:miter;stroke-miterlimit:10;stroke-dasharray:none;stroke-opacity:1;" />
</svg>
