<?xml version="1.0" encoding="UTF-8" standalone="no"?>
<svg
   xmlns:dc="http://purl.org/dc/elements/1.1/"
   xmlns:cc="http://creativecommons.org/ns#"
   xmlns:rdf="http://www.w3.org/1999/02/22-rdf-syntax-ns#"
   xmlns:svg="http://www.w3.org/2000/svg"
   xmlns="http://www.w3.org/2000/svg"
   id="svg23"
   height="95.75mm"
   width="95.75mm"
   version="1.0">
  <metadata
     id="metadata27">
    <rdf:RDF>
      <cc:Work
         rdf:about="">
        <dc:format>image/svg+xml</dc:format>
        <dc:type
           rdf:resource="http://purl.org/dc/dcmitype/StillImage" />
      </cc:Work>
    </rdf:RDF>
  </metadata>
  <defs
     id="defs3">
    <pattern
       y="0"
       x="0"
       height="6"
       width="6"
       patternUnits="userSpaceOnUse"
       id="EMFhbasepattern" />
  </defs>
  <path
     id="path5"
     d="  M 54.345381,54.345381   L 54.345381,307.53092   L 307.53092,307.53092   L 307.53092,54.345381   L 54.345381,54.345381   z "
     style="fill:#aaffaa;fill-rule:evenodd;fill-opacity:1;stroke:none;" />
  <path
     id="path7"
     d="  M 54.345381,54.345381   L 307.53092,54.345381   L 307.53092,307.53092   L 54.345381,307.53092   z "
     style="fill:none;stroke:#000000;stroke-width:9.5903616px;stroke-linecap:butt;stroke-linejoin:miter;stroke-miterlimit:10;stroke-dasharray:none;stroke-opacity:1;" />
  <path
     id="path9"
     d="  M 131.06827,142.5767   C 131.06827,152.12711 123.35602,159.83936 113.80562,159.83936   C 104.29518,159.83936 96.54297,152.12711 96.54297,142.5767   C 96.54297,133.06626 104.29518,125.31405 113.80562,125.31405   C 123.35602,125.31405 131.06827,133.06626 131.06827,142.5767   z "
     style="fill:#000000;fill-rule:evenodd;fill-opacity:1;stroke:none;" />
  <path
     id="path11"
     d="  M 131.06827,142.5767   C 131.06827,152.12711 123.35602,159.83936 113.80562,159.83936   C 104.29518,159.83936 96.54297,152.12711 96.54297,142.5767   C 96.54297,133.06626 104.29518,125.31405 113.80562,125.31405   C 123.35602,125.31405 131.06827,133.06626 131.06827,142.5767  "
     style="fill:none;stroke:#000000;stroke-width:9.5903616px;stroke-linecap:butt;stroke-linejoin:miter;stroke-miterlimit:10;stroke-dasharray:none;stroke-opacity:1;" />
  <path
     id="path13"
     d="  M 265.33333,142.5767   C 265.33333,152.12711 257.62108,159.83936 248.07068,159.83936   C 238.56024,159.83936 230.80803,152.12711 230.80803,142.5767   C 230.80803,133.06626 238.56024,125.31405 248.07068,125.31405   C 257.62108,125.31405 265.33333,133.06626 265.33333,142.5767   z "
     style="fill:#000000;fill-rule:evenodd;fill-opacity:1;stroke:none;" />
  <path
     id="path15"
     d="  M 265.33333,142.5767   C 265.33333,152.12711 257.62108,159.83936 248.07068,159.83936   C 238.56024,159.83936 230.80803,152.12711 230.80803,142.5767   C 230.80803,133.06626 238.56024,125.31405 248.07068,125.31405   C 257.62108,125.31405 265.33333,133.06626 265.33333,142.5767  "
     style="fill:none;stroke:#000000;stroke-width:9.5903616px;stroke-linecap:butt;stroke-linejoin:miter;stroke-miterlimit:10;stroke-dasharray:none;stroke-opacity:1;" />
  <path
     id="path17"
     d="  M 123.39598,128.19116   C 180.93815,161.75743 190.52851,180.93815 214.50441,267.2514  "
     style="fill:none;stroke:#000000;stroke-width:9.5903616px;stroke-linecap:butt;stroke-linejoin:miter;stroke-miterlimit:10;stroke-dasharray:none;stroke-opacity:1;" />
  <path
     id="path19"
     d="  M 238.48032,128.19116   C 180.93815,161.75743 171.34779,180.93815 147.37189,267.2514  "
     style="fill:none;stroke:#000000;stroke-width:9.5903616px;stroke-linecap:butt;stroke-linejoin:miter;stroke-miterlimit:10;stroke-dasharray:none;stroke-opacity:1;" />
  <path
     id="path21"
     d="  M 139.57972,106.77269   L 146.01325,106.21325   C 146.33293,108.77068 147.05221,110.88855 148.13112,112.56687   C 149.25,114.20522 150.96827,115.52389 153.3259,116.56285   C 155.68353,117.56185 158.32088,118.08132 161.23795,118.08132   C 163.83534,118.08132 166.11305,117.68173 168.11104,116.92249   C 170.10903,116.16325 171.58755,115.08434 172.54658,113.76566   C 173.54558,112.40703 174.0251,110.92851 174.0251,109.33012   C 174.0251,107.73173 173.54558,106.33313 172.58654,105.09438   C 171.66747,103.89558 170.10903,102.89658 167.9512,102.05743   C 166.59257,101.53795 163.51566,100.69879 158.8004,99.539958   C 154.08514,98.421083 150.76847,97.342167 148.8504,96.343171   C 146.41285,95.064456 144.5747,93.466063 143.3759,91.547991   C 142.17711,89.629918 141.57771,87.512047 141.57771,85.154416   C 141.57771,82.557027 142.29699,80.119477 143.7755,77.841766   C 145.25401,75.604015 147.41185,73.885742 150.24899,72.726907   C 153.08614,71.528111 156.20301,70.968674 159.67952,70.968674   C 163.51566,70.968674 166.87229,71.568071 169.78935,72.806826   C 172.70642,74.005621 174.94417,75.843774 176.50261,78.241364   C 178.06104,80.598995 178.9002,83.316264 179.02008,86.313252   L 172.50662,86.83273   C 172.14699,83.556023 170.94819,81.118473 168.9502,79.440159   C 166.91225,77.801806 163.91526,76.962649 159.95923,76.962649   C 155.84337,76.962649 152.84638,77.721886 150.96827,79.24036   C 149.09016,80.718874 148.13112,82.557027 148.13112,84.674898   C 148.13112,86.553011 148.81044,88.071485 150.12911,89.23032   C 151.44779,90.429115 154.88434,91.66787 160.39879,92.906625   C 165.95321,94.18534 169.7494,95.264256 171.78735,96.183332   C 174.78433,97.581926 177.02209,99.340159 178.42068,101.45803   C 179.85923,103.5759 180.57851,106.01345 180.57851,108.77068   C 180.57851,111.52791 179.77931,114.08534 178.22088,116.52289   C 176.66245,118.96044 174.38474,120.83855 171.46767,122.15723   C 168.51064,123.51586 165.23393,124.19518 161.55763,124.19518   C 156.88233,124.19518 152.96626,123.51586 149.8494,122.15723   C 146.69257,120.79859 144.21506,118.76064 142.41687,116.04337   C 140.61867,113.28614 139.6996,110.20924 139.57972,106.77269   z  M 189.88915,123.31606   L 189.88915,71.80783   L 207.63132,71.80783   C 211.62731,71.84779 214.66425,72.087549 216.78213,72.567067   C 219.73915,73.246384 222.25662,74.485139 224.33453,76.243372   C 227.0518,78.561043 229.08976,81.478111 230.44839,85.034537   C 231.76706,88.630922 232.44638,92.706826 232.44638,97.302207   C 232.44638,101.21827 232.00682,104.65482 231.08775,107.69177   C 230.16867,110.68875 229.00984,113.20622 227.57128,115.20422   C 226.13273,117.16225 224.57429,118.72068 222.89598,119.83956   C 221.17771,120.99839 219.13976,121.83755 216.74217,122.43695   C 214.34458,123.03634 211.58735,123.31606 208.47048,123.31606   z  M 196.68233,117.24217   L 207.71124,117.24217   C 211.10783,117.24217 213.74518,116.92249 215.66325,116.28313   C 217.62128,115.64377 219.13976,114.76466 220.29859,113.60582   C 221.89698,112.00743 223.1757,109.8496 224.09478,107.09237   C 224.97389,104.3751 225.41345,101.05843 225.41345,97.182328   C 225.41345,91.78775 224.53433,87.671886 222.7761,84.754818   C 221.01787,81.87771 218.86004,79.959637 216.34257,78.960641   C 214.50441,78.241364 211.58735,77.921686 207.51144,77.921686   L 196.68233,77.921686   z "
     style="fill:#000000;fill-rule:evenodd;fill-opacity:1;stroke:none;" />
</svg>
