<?xml version="1.0" encoding="UTF-8" standalone="no"?>
<svg
   xmlns:dc="http://purl.org/dc/elements/1.1/"
   xmlns:cc="http://creativecommons.org/ns#"
   xmlns:rdf="http://www.w3.org/1999/02/22-rdf-syntax-ns#"
   xmlns:svg="http://www.w3.org/2000/svg"
   xmlns="http://www.w3.org/2000/svg"
   id="svg17"
   height="95.75mm"
   width="95.75mm"
   version="1.0">
  <metadata
     id="metadata21">
    <rdf:RDF>
      <cc:Work
         rdf:about="">
        <dc:format>image/svg+xml</dc:format>
        <dc:type
           rdf:resource="http://purl.org/dc/dcmitype/StillImage" />
      </cc:Work>
    </rdf:RDF>
  </metadata>
  <defs
     id="defs3">
    <pattern
       y="0"
       x="0"
       height="6"
       width="6"
       patternUnits="userSpaceOnUse"
       id="EMFhbasepattern" />
  </defs>
  <path
     id="path5"
     d="  M 54.345381,54.345381   L 54.345381,307.53092   L 307.53092,307.53092   L 307.53092,54.345381   L 54.345381,54.345381   z "
     style="fill:#aaffaa;fill-rule:evenodd;fill-opacity:1;stroke:none;" />
  <path
     id="path7"
     d="  M 54.345381,54.345381   L 307.53092,54.345381   L 307.53092,307.53092   L 54.345381,307.53092   z "
     style="fill:none;stroke:#000000;stroke-width:9.5903616px;stroke-linecap:butt;stroke-linejoin:miter;stroke-miterlimit:10;stroke-dasharray:none;stroke-opacity:1;" />
  <path
     id="path9"
     d="  M 176.34277,134.38494   L 177.74136,135.78353   C 181.29779,133.86546 185.33373,130.66867 190.68835,130.66867   L 193.00602,130.66867   C 205.15381,130.66867 215.26365,140.33895 215.26365,152.00723   L 215.26365,153.40582   C 211.98694,153.3259 209.46947,151.56767 205.07389,151.56767   L 202.75622,151.56767   C 199.3996,151.56767 193.76526,152.12711 193.48554,155.24397   C 194.72429,155.56365 194.36466,155.72349 195.32369,155.72349   C 197.24176,155.72349 198.56044,154.3249 201.83715,154.3249   L 206.95201,154.3249   C 211.82711,154.3249 219.21968,158.4008 221.41747,161.19799   C 225.89297,166.91225 225.53333,169.30984 227.33152,177.06205   C 228.37048,177.02209 229.64919,177.18193 229.64919,176.14297   C 229.64919,167.27189 223.81506,158.32088 218.06084,155.24397   C 218.06084,140.09919 208.23072,127.91144 193.48554,127.91144   L 190.68835,127.91144   C 185.53353,127.91144 178.38072,131.34799 176.34277,134.38494   z "
     style="fill:#000000;fill-rule:evenodd;fill-opacity:1;stroke:none;" />
  <path
     id="path11"
     d="  M 134.14518,169.15   L 134.14518,172.86626   C 134.14518,176.06305 135.54377,177.7014 135.54377,179.81927   C 135.54377,179.85923 127.55181,187.2518 127.23213,191.80723   L 128.59076,192.36666   C 130.62871,190.96807 132.02731,186.65241 135.18413,183.65542   C 137.26205,181.65743 141.93735,178.9002 145.73353,178.9002   L 147.13213,178.9002   C 149.88936,178.9002 155.00421,181.09799 155.00421,178.46064   C 155.00421,176.42269 149.28996,176.14297 147.13213,176.14297   L 146.65261,176.14297   C 143.13614,176.14297 139.97932,177.46164 137.86144,178.9002   C 137.66164,176.62249 136.46285,174.66446 136.46285,171.94719   C 136.46285,161.87731 144.65462,152.9263 155.00421,152.9263   L 157.32189,152.9263   C 159.51968,152.9263 160.67851,153.44578 162.43674,153.88534   C 162.6765,153.48574 163.35582,152.7265 163.35582,152.48674   C 163.35582,150.88835 159.47972,150.16907 157.8014,150.16907   L 154.5247,150.16907   C 144.53474,150.16907 134.14518,159.75944 134.14518,169.15   z "
     style="fill:#000000;fill-rule:evenodd;fill-opacity:1;stroke:none;" />
  <path
     id="path13"
     d="  M 210.18875,197.00201   C 211.18775,196.96205 212.50642,197.12188 212.50642,196.08293   C 212.50642,189.20984 203.35562,181.21787 195.80321,181.21787   L 191.64739,181.21787   C 190.20883,181.21787 189.4496,182.85622 190.36867,183.3757   C 191.20783,183.81526 193.84518,183.53554 194.88413,183.53554   C 197.64136,183.53554 200.71827,184.5745 202.39658,185.77329   C 207.11184,189.2498 208.63032,190.36867 210.18875,197.00201   z "
     style="fill:#000000;fill-rule:evenodd;fill-opacity:1;stroke:none;" />
  <path
     id="path15"
     d="  M 176.34277,116.32309   C 176.82229,110.56887 185.97309,104.1753 192.28674,103.05642   C 201.67731,101.37811 207.51144,105.57389 212.38654,110.40903   C 214.82409,112.80662 216.58233,116.28313 217.66124,119.95944   C 219.0998,124.79458 221.77711,122.75662 226.57229,125.39397   C 232.00682,128.39096 237.4014,135.18413 238.91988,141.81747   C 250.54819,141.81747 261.65702,152.32691 261.65702,163.59558   L 261.65702,166.39277   C 261.65702,172.98614 258.8998,177.26184 255.50321,180.65843   C 253.14558,182.9761 252.86586,183.3757 249.86887,185.21385   C 246.99176,186.97209 244.39437,186.45261 243.95482,189.48956   C 242.51626,199.79919 234.76405,209.50943 223.1757,209.50943   C 230.48835,220.45843 228.21064,228.69016 221.77711,238.24056   C 221.77711,248.98976 221.21767,251.98674 215.62329,257.62108   C 210.18875,263.09558 205.67329,262.81586 196.72229,262.81586   C 198.28072,260.49819 199.43956,260.49819 201.07791,257.42128   C 202.31666,255.02369 202.8761,253.70502 203.99498,251.10763   C 206.11285,246.15261 207.87108,242.8759 207.87108,235.92289   L 207.87108,231.28755   C 207.87108,228.29056 207.39156,225.97289 205.99297,224.33453   C 203.31566,235.92289 202.79618,238.44036 193.48554,243.35542   C 193.48554,225.09377 201.99699,228.2506 189.32972,213.66526   C 189.32972,222.1767 188.93012,226.01285 183.29578,228.96988   C 181.61747,227.851 178.66044,225.17369 178.66044,222.49638   L 178.66044,221.57731   C 178.66044,217.18172 184.21486,209.98895 184.21486,206.71225   L 184.21486,205.79317   C 184.21486,203.35562 183.3757,201.23775 181.89719,200.23875   C 181.89719,206.67229 174.46466,217.02188 171.10803,220.53835   C 167.51164,224.29458 168.67048,226.65221 170.62851,231.44739   C 172.14699,235.16365 173.06606,239.23955 173.06606,244.27449   L 173.06606,246.59217   C 166.03313,246.03273 163.35582,232.80602 159.63956,228.53032   C 159.63956,236.00281 157.8014,242.39638 160.55863,249.38935   C 162.23695,253.66506 165.99317,261.69698 170.30883,262.81586   L 170.30883,263.7749   L 162.91626,264.89377   L 162.43674,264.69397   C 155.00421,264.69397 148.37088,259.37931 145.25401,254.98373   C 143.53574,252.54618 141.97731,249.02972 141.53775,245.23353   C 140.93835,240.11867 142.93634,237.2016 142.93634,234.08474   C 142.93634,234.04478 131.66767,223.69518 133.2261,214.14478   L 133.66566,210.42851   C 132.90642,209.26968 130.54879,207.43152 129.23012,205.63333   C 127.91144,203.8751 126.79257,201.63735 125.79357,199.75923   C 122.79658,199.83915 121.51787,201.15783 118.84056,201.15783   L 117.44197,201.15783   C 105.49397,201.15783 94.26526,189.80923 94.26526,177.98112   L 94.26526,176.14297   C 94.26526,165.35381 103.3761,155.72349 114.20522,155.72349   L 118.84056,155.72349   C 120.51887,148.57068 131.50783,140.49879 141.09819,142.73654   C 140.29899,139.37992 138.78052,136.70261 138.78052,132.06727   L 138.78052,131.14819   C 138.78052,122.67671 145.93333,114.04538 152.16707,111.60783   C 156.28293,109.96948 160.83835,109.48996 165.67349,110.72871   C 170.82831,112.04739 173.8253,115.64377 176.34277,116.32309   z  M 175.42369,112.12731   C 172.54658,111.88755 169.11004,107.49197 162.43674,107.49197   L 158.24096,107.49197   C 147.17209,107.49197 134.86446,120.39899 136.30301,132.54679   L 137.38193,139.93936   L 135.98333,139.93936   C 126.51285,139.93936 120.31907,147.09217 116.96245,153.40582   C 111.80763,150.92831 101.97751,156.08313 99.460039,158.6006   C 95.903613,162.19699 91.468071,167.91124 91.468071,174.74437   L 91.468071,177.98112   C 91.468071,186.01305 96.74277,194.08494 101.49799,197.64136   C 105.33414,200.51847 106.01345,201.07791 111.12831,202.83614   C 116.96245,204.83413 119.32008,203.03594 124.11526,203.23574   L 130.90843,211.34759   C 129.50984,214.2247 131.86747,222.1767 132.86646,224.65421   C 133.94538,227.37148 134.46486,227.81104 135.90341,230.00883   C 136.46285,230.88795 139.6996,234.48433 139.6996,234.56425   C 139.6996,237.04176 138.78052,237.76104 138.78052,240.59819   L 138.78052,241.03775   C 138.78052,254.94377 149.25,267.49116 162.43674,267.49116   C 167.11205,267.49116 170.38875,266.652 173.54558,265.17349   C 179.33976,268.21044 189.28976,271.64698 193.9251,264.93373   L 201.35763,266.09257   C 207.31164,267.09156 216.42249,261.21747 218.82008,258.02068   C 221.13775,254.94377 227.01184,244.83393 224.09478,238.72008   C 226.53233,237.08172 229.76907,230.48835 230.12871,226.65221   C 230.44839,222.81606 230.64819,222.53634 229.92891,218.5004   C 229.40943,215.38353 228.01084,213.66526 227.81104,211.34759   C 236.68213,210.62831 246.35241,199.87911 246.35241,190.04899   C 251.78694,186.37269 253.74498,187.49156 258.73996,181.57751   C 261.53714,178.3008 264.41425,171.82731 264.41425,165.91325   C 264.41425,151.96727 254.10461,139.4998 240.79799,139.4998   C 238.76004,130.86847 230.12871,121.27811 220.37851,120.47891   C 219.57931,110.76867 207.79116,99.619878 196.72229,99.619878   C 187.57148,99.619878 177.14197,105.65381 175.42369,112.12731   z "
     style="fill:#000000;fill-rule:evenodd;fill-opacity:1;stroke:none;" />
</svg>
