<?xml version="1.0" encoding="UTF-8" standalone="no"?>
<svg
   xmlns:dc="http://purl.org/dc/elements/1.1/"
   xmlns:cc="http://creativecommons.org/ns#"
   xmlns:rdf="http://www.w3.org/1999/02/22-rdf-syntax-ns#"
   xmlns:svg="http://www.w3.org/2000/svg"
   xmlns="http://www.w3.org/2000/svg"
   id="svg25"
   height="95.75mm"
   width="95.75mm"
   version="1.0">
  <metadata
     id="metadata29">
    <rdf:RDF>
      <cc:Work
         rdf:about="">
        <dc:format>image/svg+xml</dc:format>
        <dc:type
           rdf:resource="http://purl.org/dc/dcmitype/StillImage" />
      </cc:Work>
    </rdf:RDF>
  </metadata>
  <defs
     id="defs3">
    <pattern
       y="0"
       x="0"
       height="6"
       width="6"
       patternUnits="userSpaceOnUse"
       id="EMFhbasepattern" />
  </defs>
  <path
     id="path5"
     d="  M 54.345381,54.345381   L 54.345381,307.53092   L 307.53092,307.53092   L 307.53092,54.345381   L 54.345381,54.345381   z "
     style="fill:#aaffaa;fill-rule:evenodd;fill-opacity:1;stroke:none;" />
  <path
     id="path7"
     d="  M 54.345381,54.345381   L 307.53092,54.345381   L 307.53092,307.53092   L 54.345381,307.53092   z "
     style="fill:none;stroke:#000000;stroke-width:9.5903616px;stroke-linecap:butt;stroke-linejoin:miter;stroke-miterlimit:10;stroke-dasharray:none;stroke-opacity:1;" />
  <path
     id="path9"
     d="  M 131.06827,152.16707   C 131.06827,161.71747 123.35602,169.42972 113.80562,169.42972   C 104.29518,169.42972 96.54297,161.71747 96.54297,152.16707   C 96.54297,142.65662 104.29518,134.90442 113.80562,134.90442   C 123.35602,134.90442 131.06827,142.65662 131.06827,152.16707   z "
     style="fill:#000000;fill-rule:evenodd;fill-opacity:1;stroke:none;" />
  <path
     id="path11"
     d="  M 131.06827,152.16707   C 131.06827,161.71747 123.35602,169.42972 113.80562,169.42972   C 104.29518,169.42972 96.54297,161.71747 96.54297,152.16707   C 96.54297,142.65662 104.29518,134.90442 113.80562,134.90442   C 123.35602,134.90442 131.06827,142.65662 131.06827,152.16707  "
     style="fill:none;stroke:#000000;stroke-width:9.5903616px;stroke-linecap:butt;stroke-linejoin:miter;stroke-miterlimit:10;stroke-dasharray:none;stroke-opacity:1;" />
  <path
     id="path13"
     d="  M 265.33333,152.16707   C 265.33333,161.71747 257.62108,169.42972 248.07068,169.42972   C 238.56024,169.42972 230.80803,161.71747 230.80803,152.16707   C 230.80803,142.65662 238.56024,134.90442 248.07068,134.90442   C 257.62108,134.90442 265.33333,142.65662 265.33333,152.16707   z "
     style="fill:#000000;fill-rule:evenodd;fill-opacity:1;stroke:none;" />
  <path
     id="path15"
     d="  M 265.33333,152.16707   C 265.33333,161.71747 257.62108,169.42972 248.07068,169.42972   C 238.56024,169.42972 230.80803,161.71747 230.80803,152.16707   C 230.80803,142.65662 238.56024,134.90442 248.07068,134.90442   C 257.62108,134.90442 265.33333,142.65662 265.33333,152.16707  "
     style="fill:none;stroke:#000000;stroke-width:9.5903616px;stroke-linecap:butt;stroke-linejoin:miter;stroke-miterlimit:10;stroke-dasharray:none;stroke-opacity:1;" />
  <path
     id="path17"
     d="  M 123.39598,137.78152   C 180.93815,171.34779 190.52851,190.52851 214.50441,276.84176  "
     style="fill:none;stroke:#000000;stroke-width:9.5903616px;stroke-linecap:butt;stroke-linejoin:miter;stroke-miterlimit:10;stroke-dasharray:none;stroke-opacity:1;" />
  <path
     id="path19"
     d="  M 238.48032,137.78152   C 180.93815,171.34779 171.34779,190.52851 147.37189,276.84176  "
     style="fill:none;stroke:#000000;stroke-width:9.5903616px;stroke-linecap:butt;stroke-linejoin:miter;stroke-miterlimit:10;stroke-dasharray:none;stroke-opacity:1;" />
  <path
     id="path21"
     d="  M 116.64277,113.24618   L 120.47891,112.88654   C 120.67871,114.44498 121.07831,115.72369 121.75763,116.72269   C 122.43695,117.68173 123.4759,118.48092 124.8745,119.12028   C 126.27309,119.71968 127.83152,120.03936 129.58976,120.03936   C 131.14819,120.03936 132.54679,119.7996 133.74558,119.32008   C 134.94438,118.88052 135.82349,118.24116 136.38293,117.40201   C 136.98233,116.60281 137.26205,115.72369 137.26205,114.76466   C 137.26205,113.80562 136.98233,112.96646 136.42289,112.24719   C 135.86345,111.52791 134.94438,110.88855 133.66566,110.40903   C 132.8265,110.08936 130.98835,109.60984 128.1512,108.89056   C 125.31405,108.21124 123.31606,107.57189 122.19719,106.97249   C 120.71867,106.21325 119.5998,105.25422 118.88052,104.09538   C 118.16124,102.9765 117.8016,101.65783 117.8016,100.25924   C 117.8016,98.700802 118.24116,97.222288 119.12028,95.903613   C 119.9994,94.544979 121.31807,93.506023 122.99638,92.786746   C 124.71466,92.107428 126.59277,91.74779 128.67068,91.74779   C 130.98835,91.74779 132.98634,92.107428 134.74458,92.866665   C 136.50281,93.585942 137.82148,94.664858 138.78052,96.103412   C 139.6996,97.541966 140.21907,99.18032 140.29899,100.97851   L 136.38293,101.25823   C 136.14317,99.300199 135.46385,97.861645 134.2251,96.862649   C 133.0263,95.863653 131.22811,95.344175 128.83052,95.344175   C 126.39297,95.344175 124.55482,95.783734 123.43594,96.70281   C 122.31707,97.621886 121.75763,98.700802 121.75763,99.979517   C 121.75763,101.09839 122.15723,102.01747 122.95642,102.73675   C 123.71566,103.45602 125.79357,104.1753 129.11024,104.93454   C 132.42691,105.69377 134.70462,106.33313 135.94337,106.89257   C 137.74156,107.73173 139.06024,108.77068 139.93936,110.0494   C 140.77851,111.32811 141.21807,112.76667 141.21807,114.44498   C 141.21807,116.08333 140.73855,117.64177 139.81948,119.08032   C 138.86044,120.55883 137.50181,121.67771 135.74357,122.47691   C 133.98534,123.2761 131.98735,123.6757 129.78956,123.6757   C 126.99237,123.6757 124.6747,123.2761 122.75662,122.47691   C 120.87851,121.63775 119.4,120.43895 118.32108,118.8006   C 117.24217,117.16225 116.68273,115.28413 116.64277,113.24618   z  M 146.81245,123.15622   L 146.81245,92.267268   L 157.44176,92.267268   C 159.83936,92.267268 161.67751,92.427107 162.95622,92.706826   C 164.71446,93.106424 166.23293,93.865661 167.47168,94.944577   C 169.11004,96.303211 170.30883,98.061444 171.14799,100.21928   C 171.94719,102.33715 172.34678,104.81466 172.34678,107.53193   C 172.34678,109.88956 172.06707,111.96747 171.50763,113.80562   C 170.98815,115.60381 170.26887,117.08233 169.42972,118.28112   C 168.5506,119.47992 167.63152,120.39899 166.59257,121.07831   C 165.59357,121.75763 164.35482,122.27711 162.91626,122.63675   C 161.47771,122.99638 159.7994,123.15622 157.96124,123.15622   z  M 150.88835,119.51988   L 157.48172,119.51988   C 159.51968,119.51988 161.11807,119.32008 162.27691,118.96044   C 163.43574,118.56084 164.35482,118.04136 165.03413,117.36205   C 166.03313,116.36305 166.79237,115.08434 167.31184,113.44598   C 167.87128,111.80763 168.11104,109.80964 168.11104,107.49197   C 168.11104,104.25522 167.59156,101.77771 166.55261,100.01948   C 165.47369,98.301203 164.19498,97.142368 162.6765,96.54297   C 161.55763,96.143372 159.7994,95.903613 157.36185,95.903613   L 150.88835,95.903613   z "
     style="fill:#000000;fill-rule:evenodd;fill-opacity:1;stroke:none;" />
  <path
     id="path23"
     d="  M 180.93815,54.345381   L 180.93815,307.53092  "
     style="fill:none;stroke:#000000;stroke-width:9.5903616px;stroke-linecap:butt;stroke-linejoin:miter;stroke-miterlimit:10;stroke-dasharray:none;stroke-opacity:1;" />
</svg>
