<?xml version="1.0" encoding="UTF-8" standalone="no"?>
<svg
   xmlns:dc="http://purl.org/dc/elements/1.1/"
   xmlns:cc="http://creativecommons.org/ns#"
   xmlns:rdf="http://www.w3.org/1999/02/22-rdf-syntax-ns#"
   xmlns:svg="http://www.w3.org/2000/svg"
   xmlns="http://www.w3.org/2000/svg"
   id="svg25"
   height="116.73mm"
   width="116.73mm"
   version="1.0">
  <metadata
     id="metadata29">
    <rdf:RDF>
      <cc:Work
         rdf:about="">
        <dc:format>image/svg+xml</dc:format>
        <dc:type
           rdf:resource="http://purl.org/dc/dcmitype/StillImage" />
      </cc:Work>
    </rdf:RDF>
  </metadata>
  <defs
     id="defs3">
    <pattern
       y="0"
       x="0"
       height="6"
       width="6"
       patternUnits="userSpaceOnUse"
       id="EMFhbasepattern" />
  </defs>
  <path
     id="path5"
     d="  M 220.57831,386.49156   L 220.57831,386.49156   L 386.49156,220.57831   L 220.57831,54.665059   L 54.665059,220.57831   L 220.57831,386.49156   z "
     style="fill:#ff8080;fill-rule:evenodd;fill-opacity:1;stroke:none;" />
  <path
     id="path7"
     d="  M 220.57831,386.49156   L 220.57831,386.49156   L 386.49156,220.57831   L 220.57831,54.665059   L 54.665059,220.57831   L 220.57831,386.49156  "
     style="fill:none;stroke:#000000;stroke-width:9.5903616px;stroke-linecap:butt;stroke-linejoin:miter;stroke-miterlimit:10;stroke-dasharray:none;stroke-opacity:1;" />
  <path
     id="path9"
     d="  M 170.70843,182.21686   C 170.70843,191.76727 162.99618,199.47952 153.44578,199.47952   C 143.93534,199.47952 136.18313,191.76727 136.18313,182.21686   C 136.18313,172.70642 143.93534,164.95421 153.44578,164.95421   C 162.99618,164.95421 170.70843,172.70642 170.70843,182.21686   z "
     style="fill:#000000;fill-rule:evenodd;fill-opacity:1;stroke:none;" />
  <path
     id="path11"
     d="  M 170.70843,182.21686   C 170.70843,191.76727 162.99618,199.47952 153.44578,199.47952   C 143.93534,199.47952 136.18313,191.76727 136.18313,182.21686   C 136.18313,172.70642 143.93534,164.95421 153.44578,164.95421   C 162.99618,164.95421 170.70843,172.70642 170.70843,182.21686  "
     style="fill:none;stroke:#000000;stroke-width:9.5903616px;stroke-linecap:butt;stroke-linejoin:miter;stroke-miterlimit:10;stroke-dasharray:none;stroke-opacity:1;" />
  <path
     id="path13"
     d="  M 304.97349,182.21686   C 304.97349,191.76727 297.26124,199.47952 287.71084,199.47952   C 278.2004,199.47952 270.44819,191.76727 270.44819,182.21686   C 270.44819,172.70642 278.2004,164.95421 287.71084,164.95421   C 297.26124,164.95421 304.97349,172.70642 304.97349,182.21686   z "
     style="fill:#000000;fill-rule:evenodd;fill-opacity:1;stroke:none;" />
  <path
     id="path15"
     d="  M 304.97349,182.21686   C 304.97349,191.76727 297.26124,199.47952 287.71084,199.47952   C 278.2004,199.47952 270.44819,191.76727 270.44819,182.21686   C 270.44819,172.70642 278.2004,164.95421 287.71084,164.95421   C 297.26124,164.95421 304.97349,172.70642 304.97349,182.21686  "
     style="fill:none;stroke:#000000;stroke-width:9.5903616px;stroke-linecap:butt;stroke-linejoin:miter;stroke-miterlimit:10;stroke-dasharray:none;stroke-opacity:1;" />
  <path
     id="path17"
     d="  M 163.03614,167.83132   C 220.57831,201.39759 230.16867,220.57831 254.14457,306.89156  "
     style="fill:none;stroke:#000000;stroke-width:9.5903616px;stroke-linecap:butt;stroke-linejoin:miter;stroke-miterlimit:10;stroke-dasharray:none;stroke-opacity:1;" />
  <path
     id="path19"
     d="  M 278.12048,167.83132   C 220.57831,201.39759 210.98795,220.57831 187.01205,306.89156  "
     style="fill:none;stroke:#000000;stroke-width:9.5903616px;stroke-linecap:butt;stroke-linejoin:miter;stroke-miterlimit:10;stroke-dasharray:none;stroke-opacity:1;" />
  <path
     id="path21"
     d="  M 203.19578,152.16707   L 209.62931,151.60763   C 209.94899,154.16506 210.66827,156.28293 211.74719,157.96124   C 212.86606,159.5996 214.58433,160.91827 216.94196,161.95723   C 219.2996,162.95622 221.93694,163.4757 224.85401,163.4757   C 227.4514,163.4757 229.72911,163.0761 231.72711,162.31687   C 233.7251,161.55763 235.20361,160.47871 236.16265,159.16004   C 237.16164,157.8014 237.64116,156.32289 237.64116,154.7245   C 237.64116,153.1261 237.16164,151.72751 236.20261,150.48875   C 235.28353,149.28996 233.7251,148.29096 231.56727,147.45181   C 230.20863,146.93233 227.13172,146.09317 222.41646,144.93434   C 217.7012,143.81546 214.38454,142.73654 212.46646,141.73755   C 210.02891,140.45883 208.19076,138.86044 206.99196,136.94237   C 205.79317,135.0243 205.19377,132.90642 205.19377,130.54879   C 205.19377,127.9514 205.91305,125.51385 207.39156,123.23614   C 208.87008,120.99839 211.02791,119.28012 213.86506,118.12128   C 216.70221,116.92249 219.81907,116.36305 223.29558,116.36305   C 227.13172,116.36305 230.48835,116.96245 233.40542,118.2012   C 236.32249,119.4 238.56024,121.23815 240.11867,123.63574   C 241.6771,125.99337 242.51626,128.71064 242.63614,131.70763   L 236.12269,132.22711   C 235.76305,128.9504 234.56425,126.51285 232.56626,124.83454   C 230.52831,123.19618 227.53132,122.35703 223.5753,122.35703   C 219.45943,122.35703 216.46245,123.11626 214.58433,124.63474   C 212.70622,126.11325 211.74719,127.9514 211.74719,130.06928   C 211.74719,131.94739 212.4265,133.46586 213.74518,134.6247   C 215.06385,135.82349 218.5004,137.06225 224.01486,138.301   C 229.56927,139.57972 233.36546,140.65863 235.40341,141.57771   C 238.4004,142.9763 240.63815,144.73454 242.03674,146.85241   C 243.4753,148.97028 244.19457,151.40783 244.19457,154.16506   C 244.19457,156.92229 243.39538,159.47972 241.83694,161.91727   C 240.27851,164.35482 238.0008,166.23293 235.08373,167.5516   C 232.1267,168.91024 228.85,169.58956 225.17369,169.58956   C 220.49839,169.58956 216.58233,168.91024 213.46546,167.5516   C 210.30863,166.19297 207.83112,164.15502 206.03293,161.43775   C 204.23474,158.68052 203.31566,155.60361 203.19578,152.16707   z "
     style="fill:#000000;fill-rule:evenodd;fill-opacity:1;stroke:none;" />
  <path
     id="path23"
     d="  M 220.57831,57.542168   L 220.57831,383.61445  "
     style="fill:none;stroke:#000000;stroke-width:9.5903616px;stroke-linecap:butt;stroke-linejoin:miter;stroke-miterlimit:10;stroke-dasharray:none;stroke-opacity:1;" />
</svg>
