<?xml version="1.0" encoding="UTF-8" standalone="no"?>
<svg
   xmlns:dc="http://purl.org/dc/elements/1.1/"
   xmlns:cc="http://creativecommons.org/ns#"
   xmlns:rdf="http://www.w3.org/1999/02/22-rdf-syntax-ns#"
   xmlns:svg="http://www.w3.org/2000/svg"
   xmlns="http://www.w3.org/2000/svg"
   id="svg17"
   height="130.27mm"
   width="130.27mm"
   version="1.0">
  <metadata
     id="metadata21">
    <rdf:RDF>
      <cc:Work
         rdf:about="">
        <dc:format>image/svg+xml</dc:format>
        <dc:type
           rdf:resource="http://purl.org/dc/dcmitype/StillImage" />
      </cc:Work>
    </rdf:RDF>
  </metadata>
  <defs
     id="defs3">
    <pattern
       y="0"
       x="0"
       height="6"
       width="6"
       patternUnits="userSpaceOnUse"
       id="EMFhbasepattern" />
  </defs>
  <path
     id="path5"
     d="  M 164.63454,327.67068   C 164.63454,437.95983 327.67068,437.95983 327.67068,327.67068   C 437.95983,327.67068 437.95983,164.63454 327.67068,164.63454   C 327.67068,54.345381 164.63454,54.345381 164.63454,164.63454   C 54.345381,164.63454 54.345381,327.67068 164.63454,327.67068   z "
     style="fill:#ffff80;fill-rule:evenodd;fill-opacity:1;stroke:none;" />
  <path
     id="path7"
     d="  M 164.63454,327.67068   C 164.63454,437.95983 327.67068,437.95983 327.67068,327.67068   C 437.95983,327.67068 437.95983,164.63454 327.67068,164.63454   C 327.67068,54.345381 164.63454,54.345381 164.63454,164.63454   C 54.345381,164.63454 54.345381,327.67068 164.63454,327.67068  "
     style="fill:none;stroke:#000000;stroke-width:9.5903616px;stroke-linecap:butt;stroke-linejoin:miter;stroke-miterlimit:10;stroke-dasharray:none;stroke-opacity:1;" />
  <path
     id="path9"
     d="  M 241.55723,199.59939   L 242.95582,200.99799   C 246.51225,199.07992 250.54819,195.88313 255.90281,195.88313   L 258.22048,195.88313   C 270.36827,195.88313 280.47811,205.55341 280.47811,217.22168   L 280.47811,218.62028   C 277.2014,218.54036 274.68393,216.78213 270.28835,216.78213   L 267.97068,216.78213   C 264.61405,216.78213 258.97972,217.34156 258.7,220.45843   C 259.93875,220.77811 259.57911,220.93795 260.53815,220.93795   C 262.45622,220.93795 263.7749,219.53935 267.0516,219.53935   L 272.16646,219.53935   C 277.04156,219.53935 284.43413,223.61526 286.63192,226.41245   C 291.10743,232.1267 290.74779,234.52429 292.54598,242.2765   C 293.58494,242.23654 294.86365,242.39638 294.86365,241.35743   C 294.86365,232.48634 289.02951,223.53534 283.2753,220.45843   C 283.2753,205.31365 273.44518,193.1259 258.7,193.1259   L 255.90281,193.1259   C 250.74799,193.1259 243.59518,196.56245 241.55723,199.59939   z "
     style="fill:#000000;fill-rule:evenodd;fill-opacity:1;stroke:none;" />
  <path
     id="path11"
     d="  M 199.35964,234.36445   L 199.35964,238.08072   C 199.35964,241.27751 200.75823,242.91586 200.75823,245.03373   C 200.75823,245.07369 192.76626,252.46626 192.44658,257.02168   L 193.80522,257.58112   C 195.84317,256.18253 197.24176,251.86686 200.39859,248.86988   C 202.4765,246.87188 207.1518,244.11466 210.94799,244.11466   L 212.34658,244.11466   C 215.10381,244.11466 220.21867,246.31245 220.21867,243.6751   C 220.21867,241.63715 214.50441,241.35743 212.34658,241.35743   L 211.86707,241.35743   C 208.3506,241.35743 205.19377,242.6761 203.0759,244.11466   C 202.8761,241.83694 201.67731,239.87891 201.67731,237.16164   C 201.67731,227.09176 209.86907,218.14076 220.21867,218.14076   L 222.53634,218.14076   C 224.73413,218.14076 225.89297,218.66024 227.6512,219.0998   C 227.89096,218.7002 228.57028,217.94096 228.57028,217.7012   C 228.57028,216.10281 224.69417,215.38353 223.01586,215.38353   L 219.73915,215.38353   C 209.74919,215.38353 199.35964,224.97389 199.35964,234.36445   z "
     style="fill:#000000;fill-rule:evenodd;fill-opacity:1;stroke:none;" />
  <path
     id="path13"
     d="  M 275.40321,262.21646   C 276.4022,262.1765 277.72088,262.33634 277.72088,261.29739   C 277.72088,254.42429 268.57008,246.43233 261.01767,246.43233   L 256.86184,246.43233   C 255.42329,246.43233 254.66405,248.07068 255.58313,248.59016   C 256.42229,249.02972 259.05963,248.75 260.09859,248.75   C 262.85582,248.75 265.93273,249.78895 267.61104,250.98775   C 272.3263,254.46425 273.84478,255.58313 275.40321,262.21646   z "
     style="fill:#000000;fill-rule:evenodd;fill-opacity:1;stroke:none;" />
  <path
     id="path15"
     d="  M 241.55723,181.53755   C 242.03674,175.78333 251.18755,169.38976 257.5012,168.27088   C 266.89176,166.59257 272.7259,170.78835 277.601,175.62349   C 280.03855,178.02108 281.79678,181.49759 282.8757,185.17389   C 284.31425,190.00903 286.99156,187.97108 291.78674,190.60843   C 297.22128,193.60542 302.61586,200.39859 304.13433,207.03192   C 315.76265,207.03192 326.87148,217.54136 326.87148,228.81004   L 326.87148,231.60723   C 326.87148,238.2006 324.11425,242.4763 320.71767,245.87289   C 318.36004,248.19056 318.08032,248.59016 315.08333,250.42831   C 312.20622,252.18654 309.60883,251.66706 309.16927,254.70401   C 307.73072,265.01365 299.97851,274.72389 288.39016,274.72389   C 295.70281,285.67289 293.4251,293.90461 286.99156,303.45502   C 286.99156,314.20421 286.43212,317.2012 280.83775,322.83554   C 275.40321,328.31004 270.88775,328.03032 261.93674,328.03032   C 263.49518,325.71265 264.65401,325.71265 266.29237,322.63574   C 267.53112,320.23815 268.09056,318.91947 269.20943,316.32208   C 271.32731,311.36706 273.08554,308.09036 273.08554,301.13735   L 273.08554,296.502   C 273.08554,293.50502 272.60602,291.18735 271.20743,289.54899   C 268.53012,301.13735 268.01064,303.65481 258.7,308.56988   C 258.7,290.30823 267.21144,293.46506 254.54417,278.87971   C 254.54417,287.39116 254.14457,291.22731 248.51024,294.18433   C 246.83192,293.06546 243.8749,290.38815 243.8749,287.71084   L 243.8749,286.79176   C 243.8749,282.39618 249.42931,275.20341 249.42931,271.9267   L 249.42931,271.00763   C 249.42931,268.57008 248.59016,266.4522 247.11164,265.45321   C 247.11164,271.88674 239.67911,282.23634 236.32249,285.75281   C 232.7261,289.50903 233.88494,291.86666 235.84297,296.66184   C 237.36144,300.37811 238.28052,304.45401 238.28052,309.48895   L 238.28052,311.80662   C 231.24759,311.24718 228.57028,298.02048 224.85401,293.74477   C 224.85401,301.21726 223.01586,307.61084 225.77309,314.60381   C 227.4514,318.87951 231.20763,326.91144 235.52329,328.03032   L 235.52329,328.98935   L 228.13072,330.10823   L 227.6512,329.90843   C 220.21867,329.90843 213.58534,324.59377 210.46847,320.19819   C 208.7502,317.76064 207.19176,314.24417 206.75221,310.44799   C 206.15281,305.33313 208.1508,302.41606 208.1508,299.29919   C 208.1508,299.25923 196.88213,288.90963 198.44056,279.35923   L 198.88012,275.64297   C 198.12088,274.48413 195.76325,272.64598 194.44458,270.84779   C 193.1259,269.08955 192.00703,266.8518 191.00803,264.97369   C 188.01104,265.05361 186.73233,266.37229 184.05502,266.37229   L 182.65642,266.37229   C 170.70843,266.37229 159.47972,255.02369 159.47972,243.19558   L 159.47972,241.35743   C 159.47972,230.56827 168.59056,220.93795 179.41968,220.93795   L 184.05502,220.93795   C 185.73333,213.78514 196.72229,205.71325 206.31265,207.951   C 205.51345,204.59437 203.99498,201.91707 203.99498,197.28172   L 203.99498,196.36265   C 203.99498,187.89116 211.14779,179.25984 217.38152,176.82229   C 221.49739,175.18393 226.05281,174.70442 230.88795,175.94317   C 236.04277,177.26184 239.03976,180.85823 241.55723,181.53755   z  M 240.63815,177.34176   C 237.76104,177.10201 234.32449,172.70642 227.6512,172.70642   L 223.45542,172.70642   C 212.38654,172.70642 200.07891,185.61345 201.51747,197.76124   L 202.59638,205.15381   L 201.19779,205.15381   C 191.72731,205.15381 185.53353,212.30662 182.1769,218.62028   C 177.02209,216.14277 167.19197,221.29759 164.6745,223.81506   C 161.11807,227.41144 156.68253,233.1257 156.68253,239.95883   L 156.68253,243.19558   C 156.68253,251.22751 161.95723,259.29939 166.71245,262.85582   C 170.54859,265.73293 171.22791,266.29237 176.34277,268.0506   C 182.1769,270.04859 184.53454,268.2504 189.32972,268.4502   L 196.12289,276.56204   C 194.72429,279.43915 197.08192,287.39116 198.08092,289.86867   C 199.15984,292.58594 199.67931,293.0255 201.11787,295.22329   C 201.67731,296.10241 204.91405,299.69879 204.91405,299.77871   C 204.91405,302.25622 203.99498,302.9755 203.99498,305.81265   L 203.99498,306.2522   C 203.99498,320.15823 214.46445,332.70562 227.6512,332.70562   C 232.3265,332.70562 235.60321,331.86646 238.76004,330.38795   C 244.55421,333.42489 254.50421,336.86144 259.13955,330.14819   L 266.57208,331.30702   C 272.5261,332.30602 281.63694,326.43192 284.03453,323.23514   C 286.3522,320.15823 292.2263,310.04839 289.30923,303.93453   C 291.74678,302.29618 294.98353,295.70281 295.34317,291.86666   C 295.66285,288.03052 295.86265,287.7508 295.14337,283.71486   C 294.62389,280.59799 293.2253,278.87971 293.0255,276.56204   C 301.89658,275.84277 311.56686,265.09357 311.56686,255.26345   C 317.0014,251.58714 318.95943,252.70602 323.95441,246.79196   C 326.7516,243.51526 329.62871,237.04176 329.62871,231.12771   C 329.62871,217.18172 319.31907,204.71425 306.01245,204.71425   C 303.97449,196.08293 295.34317,186.49257 285.59297,185.69337   C 284.79377,175.98313 273.00562,164.83433 261.93674,164.83433   C 252.78594,164.83433 242.35642,170.86827 240.63815,177.34176   z "
     style="fill:#000000;fill-rule:evenodd;fill-opacity:1;stroke:none;" />
</svg>
