<?xml version="1.0" encoding="UTF-8" standalone="no"?>
<svg
   xmlns:dc="http://purl.org/dc/elements/1.1/"
   xmlns:cc="http://creativecommons.org/ns#"
   xmlns:rdf="http://www.w3.org/1999/02/22-rdf-syntax-ns#"
   xmlns:svg="http://www.w3.org/2000/svg"
   xmlns="http://www.w3.org/2000/svg"
   id="svg25"
   height="130.27mm"
   width="130.27mm"
   version="1.0">
  <metadata
     id="metadata29">
    <rdf:RDF>
      <cc:Work
         rdf:about="">
        <dc:format>image/svg+xml</dc:format>
        <dc:type
           rdf:resource="http://purl.org/dc/dcmitype/StillImage" />
      </cc:Work>
    </rdf:RDF>
  </metadata>
  <defs
     id="defs3">
    <pattern
       y="0"
       x="0"
       height="6"
       width="6"
       patternUnits="userSpaceOnUse"
       id="EMFhbasepattern" />
  </defs>
  <path
     id="path5"
     d="  M 164.63454,327.67068   C 164.63454,437.95983 327.67068,437.95983 327.67068,327.67068   C 437.95983,327.67068 437.95983,164.63454 327.67068,164.63454   C 327.67068,54.345381 164.63454,54.345381 164.63454,164.63454   C 54.345381,164.63454 54.345381,327.67068 164.63454,327.67068   z "
     style="fill:#ffff80;fill-rule:evenodd;fill-opacity:1;stroke:none;" />
  <path
     id="path7"
     d="  M 164.63454,327.67068   C 164.63454,437.95983 327.67068,437.95983 327.67068,327.67068   C 437.95983,327.67068 437.95983,164.63454 327.67068,164.63454   C 327.67068,54.345381 164.63454,54.345381 164.63454,164.63454   C 54.345381,164.63454 54.345381,327.67068 164.63454,327.67068  "
     style="fill:none;stroke:#000000;stroke-width:9.5903616px;stroke-linecap:butt;stroke-linejoin:miter;stroke-miterlimit:10;stroke-dasharray:none;stroke-opacity:1;" />
  <path
     id="path9"
     d="  M 201.27771,221.21767   C 201.27771,229.80903 194.3247,236.76204 185.73333,236.76204   C 177.18193,236.76204 170.22891,229.80903 170.22891,221.21767   C 170.22891,212.66626 177.18193,205.71325 185.73333,205.71325   C 194.3247,205.71325 201.27771,212.66626 201.27771,221.21767   z "
     style="fill:#000000;fill-rule:evenodd;fill-opacity:1;stroke:none;" />
  <path
     id="path11"
     d="  M 201.27771,221.21767   C 201.27771,229.80903 194.3247,236.76204 185.73333,236.76204   C 177.18193,236.76204 170.22891,229.80903 170.22891,221.21767   C 170.22891,212.66626 177.18193,205.71325 185.73333,205.71325   C 194.3247,205.71325 201.27771,212.66626 201.27771,221.21767  "
     style="fill:none;stroke:#000000;stroke-width:8.6313248px;stroke-linecap:butt;stroke-linejoin:miter;stroke-miterlimit:10;stroke-dasharray:none;stroke-opacity:1;" />
  <path
     id="path13"
     d="  M 322.11626,221.21767   C 322.11626,229.80903 315.16325,236.76204 306.57188,236.76204   C 298.02048,236.76204 291.06747,229.80903 291.06747,221.21767   C 291.06747,212.66626 298.02048,205.71325 306.57188,205.71325   C 315.16325,205.71325 322.11626,212.66626 322.11626,221.21767   z "
     style="fill:#000000;fill-rule:evenodd;fill-opacity:1;stroke:none;" />
  <path
     id="path15"
     d="  M 322.11626,221.21767   C 322.11626,229.80903 315.16325,236.76204 306.57188,236.76204   C 298.02048,236.76204 291.06747,229.80903 291.06747,221.21767   C 291.06747,212.66626 298.02048,205.71325 306.57188,205.71325   C 315.16325,205.71325 322.11626,212.66626 322.11626,221.21767  "
     style="fill:none;stroke:#000000;stroke-width:8.6313248px;stroke-linecap:butt;stroke-linejoin:miter;stroke-miterlimit:10;stroke-dasharray:none;stroke-opacity:1;" />
  <path
     id="path17"
     d="  M 194.36466,208.27068   C 246.15261,238.48032 254.78393,255.74297 276.36225,333.42489  "
     style="fill:none;stroke:#000000;stroke-width:8.6313248px;stroke-linecap:butt;stroke-linejoin:miter;stroke-miterlimit:10;stroke-dasharray:none;stroke-opacity:1;" />
  <path
     id="path19"
     d="  M 297.94056,208.27068   C 246.15261,238.48032 237.52128,255.74297 215.94297,333.42489  "
     style="fill:none;stroke:#000000;stroke-width:8.6313248px;stroke-linecap:butt;stroke-linejoin:miter;stroke-miterlimit:10;stroke-dasharray:none;stroke-opacity:1;" />
  <path
     id="path21"
     d="  M 232.24658,161.31787   L 237.4014,160.87831   C 237.64116,162.91626 238.2006,164.63454 239.11968,165.95321   C 239.99879,167.27189 241.35743,168.31084 243.23554,169.15   C 245.11365,169.94919 247.23152,170.34879 249.54919,170.34879   C 251.66706,170.34879 253.46526,170.06907 255.06365,169.42972   C 256.66204,168.83032 257.86084,167.9512 258.62008,166.91225   C 259.41927,165.83333 259.77891,164.63454 259.77891,163.35582   C 259.77891,162.07711 259.41927,160.95823 258.66004,159.99919   C 257.94076,159.0002 256.702,158.201 254.94377,157.56164   C 253.86486,157.12209 251.42731,156.44277 247.63112,155.52369   C 243.83494,154.64458 241.19759,153.76546 239.67911,152.96626   C 237.72108,151.92731 236.24257,150.64859 235.28353,149.13012   C 234.32449,147.61164 233.84498,145.89337 233.84498,144.01526   C 233.84498,141.93735 234.40441,139.97932 235.60321,138.18112   C 236.802,136.38293 238.52028,134.98434 240.75803,134.06526   C 243.03574,133.10622 245.55321,132.66666 248.3504,132.66666   C 251.38735,132.66666 254.06465,133.14618 256.42229,134.14518   C 258.73996,135.10421 260.53815,136.54277 261.7769,138.46084   C 263.05562,140.37891 263.73494,142.53674 263.81486,144.9743   L 258.58012,145.37389   C 258.3004,142.73654 257.34136,140.77851 255.74297,139.45984   C 254.10461,138.14116 251.70702,137.46185 248.5502,137.46185   C 245.27349,137.46185 242.8759,138.06124 241.35743,139.26004   C 239.83895,140.49879 239.07972,141.93735 239.07972,143.65562   C 239.07972,145.13413 239.63915,146.33293 240.67811,147.29197   C 241.75702,148.251 244.47429,149.25 248.90984,150.24899   C 253.34538,151.24799 256.38233,152.12711 258.02068,152.84638   C 260.41827,153.96526 262.1765,155.36385 263.33534,157.04217   C 264.49417,158.76044 265.05361,160.71847 265.05361,162.91626   C 265.05361,165.11405 264.41425,167.19197 263.1755,169.11004   C 261.89678,171.06807 260.09859,172.54658 257.74096,173.6255   C 255.42329,174.70442 252.74598,175.26385 249.82891,175.26385   C 246.11265,175.26385 242.95582,174.70442 240.43835,173.6255   C 237.92088,172.54658 235.96285,170.90823 234.52429,168.71044   C 233.08574,166.55261 232.3265,164.0751 232.24658,161.31787   z "
     style="fill:#000000;fill-rule:evenodd;fill-opacity:1;stroke:none;" />
  <path
     id="path23"
     d="  M 188.61044,188.61044   C 131.06827,188.61044 131.06827,303.69477 188.61044,303.69477   L 303.69477,303.69477   C 361.23694,303.69477 361.23694,188.61044 303.69477,188.61044   z "
     style="fill:none;stroke:#000000;stroke-width:9.5903616px;stroke-linecap:butt;stroke-linejoin:miter;stroke-miterlimit:10;stroke-dasharray:none;stroke-opacity:1;" />
</svg>
