<?xml version="1.0" encoding="UTF-8" standalone="no"?>
<svg
   xmlns:dc="http://purl.org/dc/elements/1.1/"
   xmlns:cc="http://creativecommons.org/ns#"
   xmlns:rdf="http://www.w3.org/1999/02/22-rdf-syntax-ns#"
   xmlns:svg="http://www.w3.org/2000/svg"
   xmlns="http://www.w3.org/2000/svg"
   id="svg25"
   height="116.73mm"
   width="116.73mm"
   version="1.0">
  <metadata
     id="metadata29">
    <rdf:RDF>
      <cc:Work
         rdf:about="">
        <dc:format>image/svg+xml</dc:format>
        <dc:type
           rdf:resource="http://purl.org/dc/dcmitype/StillImage" />
      </cc:Work>
    </rdf:RDF>
  </metadata>
  <defs
     id="defs3">
    <pattern
       y="0"
       x="0"
       height="6"
       width="6"
       patternUnits="userSpaceOnUse"
       id="EMFhbasepattern" />
  </defs>
  <path
     id="path5"
     d="  M 220.57831,386.49156   L 220.57831,386.49156   L 386.49156,220.57831   L 220.57831,54.665059   L 54.665059,220.57831   L 220.57831,386.49156   z "
     style="fill:#ff8080;fill-rule:evenodd;fill-opacity:1;stroke:none;" />
  <path
     id="path7"
     d="  M 220.57831,386.49156   L 220.57831,386.49156   L 386.49156,220.57831   L 220.57831,54.665059   L 54.665059,220.57831   L 220.57831,386.49156  "
     style="fill:none;stroke:#000000;stroke-width:9.5903616px;stroke-linecap:butt;stroke-linejoin:miter;stroke-miterlimit:10;stroke-dasharray:none;stroke-opacity:1;" />
  <path
     id="path9"
     d="  M 175.70341,195.64337   C 175.70341,204.23474 168.7504,211.18775 160.15903,211.18775   C 151.60763,211.18775 144.65462,204.23474 144.65462,195.64337   C 144.65462,187.09197 151.60763,180.13895 160.15903,180.13895   C 168.7504,180.13895 175.70341,187.09197 175.70341,195.64337   z "
     style="fill:#000000;fill-rule:evenodd;fill-opacity:1;stroke:none;" />
  <path
     id="path11"
     d="  M 175.70341,195.64337   C 175.70341,204.23474 168.7504,211.18775 160.15903,211.18775   C 151.60763,211.18775 144.65462,204.23474 144.65462,195.64337   C 144.65462,187.09197 151.60763,180.13895 160.15903,180.13895   C 168.7504,180.13895 175.70341,187.09197 175.70341,195.64337  "
     style="fill:none;stroke:#000000;stroke-width:8.6313248px;stroke-linecap:butt;stroke-linejoin:miter;stroke-miterlimit:10;stroke-dasharray:none;stroke-opacity:1;" />
  <path
     id="path13"
     d="  M 296.54196,195.64337   C 296.54196,204.23474 289.58895,211.18775 280.99759,211.18775   C 272.44618,211.18775 265.49317,204.23474 265.49317,195.64337   C 265.49317,187.09197 272.44618,180.13895 280.99759,180.13895   C 289.58895,180.13895 296.54196,187.09197 296.54196,195.64337   z "
     style="fill:#000000;fill-rule:evenodd;fill-opacity:1;stroke:none;" />
  <path
     id="path15"
     d="  M 296.54196,195.64337   C 296.54196,204.23474 289.58895,211.18775 280.99759,211.18775   C 272.44618,211.18775 265.49317,204.23474 265.49317,195.64337   C 265.49317,187.09197 272.44618,180.13895 280.99759,180.13895   C 289.58895,180.13895 296.54196,187.09197 296.54196,195.64337  "
     style="fill:none;stroke:#000000;stroke-width:8.6313248px;stroke-linecap:butt;stroke-linejoin:miter;stroke-miterlimit:10;stroke-dasharray:none;stroke-opacity:1;" />
  <path
     id="path17"
     d="  M 168.79036,182.69638   C 220.57831,212.90602 229.20964,230.16867 250.78795,307.8506  "
     style="fill:none;stroke:#000000;stroke-width:8.6313248px;stroke-linecap:butt;stroke-linejoin:miter;stroke-miterlimit:10;stroke-dasharray:none;stroke-opacity:1;" />
  <path
     id="path19"
     d="  M 272.36626,182.69638   C 220.57831,212.90602 211.94698,230.16867 190.36867,307.8506  "
     style="fill:none;stroke:#000000;stroke-width:8.6313248px;stroke-linecap:butt;stroke-linejoin:miter;stroke-miterlimit:10;stroke-dasharray:none;stroke-opacity:1;" />
  <path
     id="path21"
     d="  M 195.60341,136.58273   L 199.43956,136.22309   C 199.63935,137.78152 200.03895,139.06024 200.71827,140.05923   C 201.39759,141.01827 202.43654,141.81747 203.83514,142.45683   C 205.23373,143.05622 206.79217,143.3759 208.5504,143.3759   C 210.10883,143.3759 211.50743,143.13614 212.70622,142.65662   C 213.90502,142.21707 214.78413,141.57771 215.34357,140.73855   C 215.94297,139.93936 216.22269,139.06024 216.22269,138.1012   C 216.22269,137.14217 215.94297,136.30301 215.38353,135.58373   C 214.82409,134.86446 213.90502,134.2251 212.6263,133.74558   C 211.78715,133.4259 209.94899,132.94638 207.11184,132.22711   C 204.2747,131.54779 202.2767,130.90843 201.15783,130.30903   C 199.67931,129.5498 198.56044,128.59076 197.84116,127.43193   C 197.12188,126.31305 196.76225,124.99438 196.76225,123.59578   C 196.76225,122.03735 197.2018,120.55883 198.08092,119.24016   C 198.96004,117.88152 200.27871,116.84257 201.95703,116.12329   C 203.6753,115.44397 205.55341,115.08434 207.63132,115.08434   C 209.94899,115.08434 211.94698,115.44397 213.70522,116.20321   C 215.46345,116.92249 216.78213,118.0014 217.74116,119.43996   C 218.66024,120.87851 219.17972,122.51687 219.25964,124.31506   L 215.34357,124.59478   C 215.10381,122.63675 214.42449,121.19819 213.18574,120.1992   C 211.98694,119.2002 210.18875,118.68072 207.79116,118.68072   C 205.35361,118.68072 203.51546,119.12028 202.39658,120.03936   C 201.27771,120.95843 200.71827,122.03735 200.71827,123.31606   C 200.71827,124.43494 201.11787,125.35401 201.91707,126.07329   C 202.6763,126.79257 204.75421,127.51185 208.07088,128.27108   C 211.38755,129.03032 213.66526,129.66968 214.90401,130.22911   C 216.70221,131.06827 218.02088,132.10723 218.9,133.38594   C 219.73915,134.66466 220.17871,136.10321 220.17871,137.78152   C 220.17871,139.41988 219.69919,140.97831 218.78012,142.41687   C 217.82108,143.89538 216.46245,145.01425 214.70421,145.81345   C 212.94598,146.61265 210.94799,147.01225 208.7502,147.01225   C 205.95301,147.01225 203.63534,146.61265 201.71727,145.81345   C 199.83915,144.9743 198.36064,143.7755 197.28172,142.13715   C 196.20281,140.49879 195.64337,138.62068 195.60341,136.58273   z  M 225.77309,146.49277   L 225.77309,115.60381   L 236.40241,115.60381   C 238.8,115.60381 240.63815,115.76365 241.91686,116.04337   C 243.6751,116.44297 245.19357,117.20221 246.43233,118.28112   C 248.07068,119.63976 249.26947,121.39799 250.10863,123.55582   C 250.90783,125.67369 251.30743,128.1512 251.30743,130.86847   C 251.30743,133.2261 251.02771,135.30401 250.46827,137.14217   C 249.94879,138.94036 249.22951,140.41887 248.39036,141.61767   C 247.51124,142.81646 246.59217,143.73554 245.55321,144.41486   C 244.55421,145.09417 243.31546,145.61365 241.8769,145.97329   C 240.43835,146.33293 238.76004,146.49277 236.92188,146.49277   z  M 229.84899,142.85642   L 236.44237,142.85642   C 238.48032,142.85642 240.07871,142.65662 241.23755,142.29699   C 242.39638,141.89739 243.31546,141.37791 243.99478,140.69859   C 244.99377,139.6996 245.75301,138.42088 246.27249,136.78253   C 246.83192,135.14417 247.07168,133.14618 247.07168,130.82851   C 247.07168,127.59177 246.55221,125.11426 245.51325,123.35602   C 244.43433,121.63775 243.15562,120.47891 241.63715,119.87952   C 240.51827,119.47992 238.76004,119.24016 236.32249,119.24016   L 229.84899,119.24016   z "
     style="fill:#000000;fill-rule:evenodd;fill-opacity:1;stroke:none;" />
  <path
     id="path23"
     d="  M 163.03614,163.03614   C 105.49397,163.03614 105.49397,278.12048 163.03614,278.12048   L 278.12048,278.12048   C 335.66265,278.12048 335.66265,163.03614 278.12048,163.03614   z "
     style="fill:none;stroke:#000000;stroke-width:9.5903616px;stroke-linecap:butt;stroke-linejoin:miter;stroke-miterlimit:10;stroke-dasharray:none;stroke-opacity:1;" />
</svg>
