<?xml version="1.0" encoding="UTF-8" standalone="no"?>
<svg
   xmlns:dc="http://purl.org/dc/elements/1.1/"
   xmlns:cc="http://creativecommons.org/ns#"
   xmlns:rdf="http://www.w3.org/1999/02/22-rdf-syntax-ns#"
   xmlns:svg="http://www.w3.org/2000/svg"
   xmlns="http://www.w3.org/2000/svg"
   id="svg23"
   height="130.27mm"
   width="130.27mm"
   version="1.0">
  <metadata
     id="metadata27">
    <rdf:RDF>
      <cc:Work
         rdf:about="">
        <dc:format>image/svg+xml</dc:format>
        <dc:type
           rdf:resource="http://purl.org/dc/dcmitype/StillImage" />
      </cc:Work>
    </rdf:RDF>
  </metadata>
  <defs
     id="defs3">
    <pattern
       y="0"
       x="0"
       height="6"
       width="6"
       patternUnits="userSpaceOnUse"
       id="EMFhbasepattern" />
  </defs>
  <path
     id="path5"
     d="  M 164.63454,327.67068   C 164.63454,437.95983 327.67068,437.95983 327.67068,327.67068   C 437.95983,327.67068 437.95983,164.63454 327.67068,164.63454   C 327.67068,54.345381 164.63454,54.345381 164.63454,164.63454   C 54.345381,164.63454 54.345381,327.67068 164.63454,327.67068   z "
     style="fill:#ffff80;fill-rule:evenodd;fill-opacity:1;stroke:none;" />
  <path
     id="path7"
     d="  M 164.63454,327.67068   C 164.63454,437.95983 327.67068,437.95983 327.67068,327.67068   C 437.95983,327.67068 437.95983,164.63454 327.67068,164.63454   C 327.67068,54.345381 164.63454,54.345381 164.63454,164.63454   C 54.345381,164.63454 54.345381,327.67068 164.63454,327.67068  "
     style="fill:none;stroke:#000000;stroke-width:9.5903616px;stroke-linecap:butt;stroke-linejoin:miter;stroke-miterlimit:10;stroke-dasharray:none;stroke-opacity:1;" />
  <path
     id="path9"
     d="  M 196.28273,207.79116   C 196.28273,217.34156 188.57048,225.05381 179.02008,225.05381   C 169.50964,225.05381 161.75743,217.34156 161.75743,207.79116   C 161.75743,198.28072 169.50964,190.52851 179.02008,190.52851   C 188.57048,190.52851 196.28273,198.28072 196.28273,207.79116   z "
     style="fill:#000000;fill-rule:evenodd;fill-opacity:1;stroke:none;" />
  <path
     id="path11"
     d="  M 196.28273,207.79116   C 196.28273,217.34156 188.57048,225.05381 179.02008,225.05381   C 169.50964,225.05381 161.75743,217.34156 161.75743,207.79116   C 161.75743,198.28072 169.50964,190.52851 179.02008,190.52851   C 188.57048,190.52851 196.28273,198.28072 196.28273,207.79116  "
     style="fill:none;stroke:#000000;stroke-width:9.5903616px;stroke-linecap:butt;stroke-linejoin:miter;stroke-miterlimit:10;stroke-dasharray:none;stroke-opacity:1;" />
  <path
     id="path13"
     d="  M 330.54779,207.79116   C 330.54779,217.34156 322.83554,225.05381 313.28514,225.05381   C 303.77469,225.05381 296.02249,217.34156 296.02249,207.79116   C 296.02249,198.28072 303.77469,190.52851 313.28514,190.52851   C 322.83554,190.52851 330.54779,198.28072 330.54779,207.79116   z "
     style="fill:#000000;fill-rule:evenodd;fill-opacity:1;stroke:none;" />
  <path
     id="path15"
     d="  M 330.54779,207.79116   C 330.54779,217.34156 322.83554,225.05381 313.28514,225.05381   C 303.77469,225.05381 296.02249,217.34156 296.02249,207.79116   C 296.02249,198.28072 303.77469,190.52851 313.28514,190.52851   C 322.83554,190.52851 330.54779,198.28072 330.54779,207.79116  "
     style="fill:none;stroke:#000000;stroke-width:9.5903616px;stroke-linecap:butt;stroke-linejoin:miter;stroke-miterlimit:10;stroke-dasharray:none;stroke-opacity:1;" />
  <path
     id="path17"
     d="  M 188.61044,193.40562   C 246.15261,226.97188 255.74297,246.15261 279.71887,332.46586  "
     style="fill:none;stroke:#000000;stroke-width:9.5903616px;stroke-linecap:butt;stroke-linejoin:miter;stroke-miterlimit:10;stroke-dasharray:none;stroke-opacity:1;" />
  <path
     id="path19"
     d="  M 303.69477,193.40562   C 246.15261,226.97188 236.56225,246.15261 212.58634,332.46586  "
     style="fill:none;stroke:#000000;stroke-width:9.5903616px;stroke-linecap:butt;stroke-linejoin:miter;stroke-miterlimit:10;stroke-dasharray:none;stroke-opacity:1;" />
  <path
     id="path21"
     d="  M 204.79417,171.98715   L 211.22771,171.42771   C 211.54739,173.98514 212.26666,176.10301 213.34558,177.78132   C 214.46445,179.41968 216.18273,180.73835 218.54036,181.77731   C 220.89799,182.7763 223.53534,183.29578 226.45241,183.29578   C 229.0498,183.29578 231.32751,182.89618 233.3255,182.13695   C 235.32349,181.37771 236.802,180.29879 237.76104,178.98012   C 238.76004,177.62148 239.23955,176.14297 239.23955,174.54458   C 239.23955,172.94618 238.76004,171.54759 237.801,170.30883   C 236.88192,169.11004 235.32349,168.11104 233.16566,167.27189   C 231.80702,166.75241 228.73012,165.91325 224.01486,164.75442   C 219.2996,163.63554 215.98293,162.55662 214.06486,161.55763   C 211.62731,160.27891 209.78915,158.68052 208.59036,156.76245   C 207.39156,154.84438 206.79217,152.7265 206.79217,150.36887   C 206.79217,147.77148 207.51144,145.33393 208.98996,143.05622   C 210.46847,140.81847 212.6263,139.1002 215.46345,137.94136   C 218.3006,136.74257 221.41747,136.18313 224.89397,136.18313   C 228.73012,136.18313 232.08674,136.78253 235.00381,138.02128   C 237.92088,139.22008 240.15863,141.05823 241.71706,143.45582   C 243.2755,145.81345 244.11466,148.53072 244.23453,151.52771   L 237.72108,152.04719   C 237.36144,148.77048 236.16265,146.33293 234.16466,144.65462   C 232.1267,143.01626 229.12972,142.17711 225.17369,142.17711   C 221.05783,142.17711 218.06084,142.93634 216.18273,144.45482   C 214.30462,145.93333 213.34558,147.77148 213.34558,149.88936   C 213.34558,151.76747 214.0249,153.28594 215.34357,154.44478   C 216.66225,155.64357 220.09879,156.88233 225.61325,158.12108   C 231.16767,159.3998 234.96385,160.47871 237.0018,161.39779   C 239.99879,162.79638 242.23654,164.55462 243.63514,166.67249   C 245.07369,168.79036 245.79297,171.22791 245.79297,173.98514   C 245.79297,176.74237 244.99377,179.2998 243.43534,181.73735   C 241.8769,184.1749 239.59919,186.05301 236.68213,187.37168   C 233.7251,188.73032 230.44839,189.40964 226.77209,189.40964   C 222.09678,189.40964 218.18072,188.73032 215.06385,187.37168   C 211.90703,186.01305 209.42952,183.9751 207.63132,181.25783   C 205.83313,178.5006 204.91405,175.42369 204.79417,171.98715   z  M 255.10361,188.53052   L 255.10361,137.02229   L 272.84578,137.02229   C 276.84176,137.06225 279.87871,137.30201 281.99658,137.78152   C 284.95361,138.46084 287.47108,139.6996 289.54899,141.45783   C 292.26626,143.7755 294.30421,146.69257 295.66285,150.24899   C 296.98152,153.84538 297.66084,157.92128 297.66084,162.51666   C 297.66084,166.43273 297.22128,169.86927 296.3022,172.90622   C 295.38313,175.90321 294.22429,178.42068 292.78574,180.41867   C 291.34718,182.3767 289.78875,183.93514 288.11044,185.05401   C 286.39216,186.21285 284.35421,187.05201 281.95662,187.6514   C 279.55903,188.2508 276.8018,188.53052 273.68494,188.53052   z  M 261.89678,182.45662   L 272.9257,182.45662   C 276.32229,182.45662 278.95963,182.13695 280.87771,181.49759   C 282.83574,180.85823 284.35421,179.97911 285.51305,178.82028   C 287.11144,177.22188 288.39016,175.06405 289.30923,172.30682   C 290.18835,169.58956 290.62791,166.27289 290.62791,162.39678   C 290.62791,157.00221 289.74879,152.88634 287.99056,149.96927   C 286.23233,147.09217 284.07449,145.17409 281.55702,144.1751   C 279.71887,143.45582 276.8018,143.13614 272.7259,143.13614   L 261.89678,143.13614   z "
     style="fill:#000000;fill-rule:evenodd;fill-opacity:1;stroke:none;" />
</svg>
