<?xml version="1.0" encoding="UTF-8" standalone="no"?>
<svg
   xmlns:dc="http://purl.org/dc/elements/1.1/"
   xmlns:cc="http://creativecommons.org/ns#"
   xmlns:rdf="http://www.w3.org/1999/02/22-rdf-syntax-ns#"
   xmlns:svg="http://www.w3.org/2000/svg"
   xmlns="http://www.w3.org/2000/svg"
   id="svg25"
   height="130.27mm"
   width="130.27mm"
   version="1.0">
  <metadata
     id="metadata29">
    <rdf:RDF>
      <cc:Work
         rdf:about="">
        <dc:format>image/svg+xml</dc:format>
        <dc:type
           rdf:resource="http://purl.org/dc/dcmitype/StillImage" />
      </cc:Work>
    </rdf:RDF>
  </metadata>
  <defs
     id="defs3">
    <pattern
       y="0"
       x="0"
       height="6"
       width="6"
       patternUnits="userSpaceOnUse"
       id="EMFhbasepattern" />
  </defs>
  <path
     id="path5"
     d="  M 164.63454,327.67068   C 164.63454,437.95983 327.67068,437.95983 327.67068,327.67068   C 437.95983,327.67068 437.95983,164.63454 327.67068,164.63454   C 327.67068,54.345381 164.63454,54.345381 164.63454,164.63454   C 54.345381,164.63454 54.345381,327.67068 164.63454,327.67068   z "
     style="fill:#ffff80;fill-rule:evenodd;fill-opacity:1;stroke:none;" />
  <path
     id="path7"
     d="  M 164.63454,327.67068   C 164.63454,437.95983 327.67068,437.95983 327.67068,327.67068   C 437.95983,327.67068 437.95983,164.63454 327.67068,164.63454   C 327.67068,54.345381 164.63454,54.345381 164.63454,164.63454   C 54.345381,164.63454 54.345381,327.67068 164.63454,327.67068  "
     style="fill:none;stroke:#000000;stroke-width:9.5903616px;stroke-linecap:butt;stroke-linejoin:miter;stroke-miterlimit:10;stroke-dasharray:none;stroke-opacity:1;" />
  <path
     id="path9"
     d="  M 196.28273,217.38152   C 196.28273,226.93192 188.57048,234.64417 179.02008,234.64417   C 169.50964,234.64417 161.75743,226.93192 161.75743,217.38152   C 161.75743,207.87108 169.50964,200.11887 179.02008,200.11887   C 188.57048,200.11887 196.28273,207.87108 196.28273,217.38152   z "
     style="fill:#000000;fill-rule:evenodd;fill-opacity:1;stroke:none;" />
  <path
     id="path11"
     d="  M 196.28273,217.38152   C 196.28273,226.93192 188.57048,234.64417 179.02008,234.64417   C 169.50964,234.64417 161.75743,226.93192 161.75743,217.38152   C 161.75743,207.87108 169.50964,200.11887 179.02008,200.11887   C 188.57048,200.11887 196.28273,207.87108 196.28273,217.38152  "
     style="fill:none;stroke:#000000;stroke-width:9.5903616px;stroke-linecap:butt;stroke-linejoin:miter;stroke-miterlimit:10;stroke-dasharray:none;stroke-opacity:1;" />
  <path
     id="path13"
     d="  M 330.54779,217.38152   C 330.54779,226.93192 322.83554,234.64417 313.28514,234.64417   C 303.77469,234.64417 296.02249,226.93192 296.02249,217.38152   C 296.02249,207.87108 303.77469,200.11887 313.28514,200.11887   C 322.83554,200.11887 330.54779,207.87108 330.54779,217.38152   z "
     style="fill:#000000;fill-rule:evenodd;fill-opacity:1;stroke:none;" />
  <path
     id="path15"
     d="  M 330.54779,217.38152   C 330.54779,226.93192 322.83554,234.64417 313.28514,234.64417   C 303.77469,234.64417 296.02249,226.93192 296.02249,217.38152   C 296.02249,207.87108 303.77469,200.11887 313.28514,200.11887   C 322.83554,200.11887 330.54779,207.87108 330.54779,217.38152  "
     style="fill:none;stroke:#000000;stroke-width:9.5903616px;stroke-linecap:butt;stroke-linejoin:miter;stroke-miterlimit:10;stroke-dasharray:none;stroke-opacity:1;" />
  <path
     id="path17"
     d="  M 188.61044,202.99598   C 246.15261,236.56225 255.74297,255.74297 279.71887,342.05622  "
     style="fill:none;stroke:#000000;stroke-width:9.5903616px;stroke-linecap:butt;stroke-linejoin:miter;stroke-miterlimit:10;stroke-dasharray:none;stroke-opacity:1;" />
  <path
     id="path19"
     d="  M 303.69477,202.99598   C 246.15261,236.56225 236.56225,255.74297 212.58634,342.05622  "
     style="fill:none;stroke:#000000;stroke-width:9.5903616px;stroke-linecap:butt;stroke-linejoin:miter;stroke-miterlimit:10;stroke-dasharray:none;stroke-opacity:1;" />
  <path
     id="path21"
     d="  M 181.85723,178.46064   L 185.69337,178.101   C 185.89317,179.65944 186.29277,180.93815 186.97209,181.93715   C 187.6514,182.89618 188.69036,183.69538 190.08895,184.33474   C 191.48755,184.93413 193.04598,185.25381 194.80421,185.25381   C 196.36265,185.25381 197.76124,185.01405 198.96004,184.53454   C 200.15883,184.09498 201.03795,183.45562 201.59739,182.61646   C 202.19678,181.81727 202.4765,180.93815 202.4765,179.97911   C 202.4765,179.02008 202.19678,178.18092 201.63735,177.46164   C 201.07791,176.74237 200.15883,176.10301 198.88012,175.62349   C 198.04096,175.30381 196.20281,174.82429 193.36566,174.10502   C 190.52851,173.4257 188.53052,172.78634 187.41164,172.18695   C 185.93313,171.42771 184.81425,170.46867 184.09498,169.30984   C 183.3757,168.19096 183.01606,166.87229 183.01606,165.47369   C 183.01606,163.91526 183.45562,162.43674 184.33474,161.11807   C 185.21385,159.75944 186.53253,158.72048 188.21084,158.0012   C 189.92911,157.32189 191.80723,156.96225 193.88514,156.96225   C 196.20281,156.96225 198.2008,157.32189 199.95903,158.08112   C 201.71727,158.8004 203.03594,159.87931 203.99498,161.31787   C 204.91405,162.75642 205.43353,164.39478 205.51345,166.19297   L 201.59739,166.47269   C 201.35763,164.51466 200.67831,163.0761 199.43956,162.07711   C 198.24076,161.07811 196.44257,160.55863 194.04498,160.55863   C 191.60743,160.55863 189.76927,160.99819 188.6504,161.91727   C 187.53152,162.83634 186.97209,163.91526 186.97209,165.19397   C 186.97209,166.31285 187.37168,167.23193 188.17088,167.9512   C 188.93012,168.67048 191.00803,169.38976 194.3247,170.14899   C 197.64136,170.90823 199.91907,171.54759 201.15783,172.10703   C 202.95602,172.94618 204.2747,173.98514 205.15381,175.26385   C 205.99297,176.54257 206.43253,177.98112 206.43253,179.65944   C 206.43253,181.29779 205.95301,182.85622 205.03393,184.29478   C 204.0749,185.77329 202.71626,186.89217 200.95803,187.69136   C 199.1998,188.49056 197.2018,188.89016 195.00401,188.89016   C 192.20682,188.89016 189.88915,188.49056 187.97108,187.69136   C 186.09297,186.85221 184.61446,185.65341 183.53554,184.01506   C 182.45662,182.3767 181.89719,180.49859 181.85723,178.46064   z  M 212.0269,188.37068   L 212.0269,157.48172   L 222.65622,157.48172   C 225.05381,157.48172 226.89196,157.64156 228.17068,157.92128   C 229.92891,158.32088 231.44739,159.08012 232.68614,160.15903   C 234.32449,161.51767 235.52329,163.2759 236.36245,165.43373   C 237.16164,167.5516 237.56124,170.02911 237.56124,172.74638   C 237.56124,175.10401 237.28152,177.18193 236.72208,179.02008   C 236.20261,180.81827 235.48333,182.29678 234.64417,183.49558   C 233.76506,184.69437 232.84598,185.61345 231.80702,186.29277   C 230.80803,186.97209 229.56927,187.49156 228.13072,187.8512   C 226.69217,188.21084 225.01385,188.37068 223.1757,188.37068   z  M 216.10281,184.73433   L 222.69618,184.73433   C 224.73413,184.73433 226.33253,184.53454 227.49136,184.1749   C 228.6502,183.7753 229.56927,183.25582 230.24859,182.5765   C 231.24759,181.57751 232.00682,180.29879 232.5263,178.66044   C 233.08574,177.02209 233.3255,175.02409 233.3255,172.70642   C 233.3255,169.46968 232.80602,166.99217 231.76706,165.23393   C 230.68815,163.51566 229.40943,162.35682 227.89096,161.75743   C 226.77209,161.35783 225.01385,161.11807 222.5763,161.11807   L 216.10281,161.11807   z "
     style="fill:#000000;fill-rule:evenodd;fill-opacity:1;stroke:none;" />
  <path
     id="path23"
     d="  M 246.15261,83.116465   L 246.15261,409.18875  "
     style="fill:none;stroke:#000000;stroke-width:9.5903616px;stroke-linecap:butt;stroke-linejoin:miter;stroke-miterlimit:10;stroke-dasharray:none;stroke-opacity:1;" />
</svg>
