<?xml version="1.0" encoding="UTF-8" standalone="no"?>
<svg
   xmlns:dc="http://purl.org/dc/elements/1.1/"
   xmlns:cc="http://creativecommons.org/ns#"
   xmlns:rdf="http://www.w3.org/1999/02/22-rdf-syntax-ns#"
   xmlns:svg="http://www.w3.org/2000/svg"
   xmlns="http://www.w3.org/2000/svg"
   id="svg15"
   height="95.75mm"
   width="95.75mm"
   version="1.0">
  <metadata
     id="metadata19">
    <rdf:RDF>
      <cc:Work
         rdf:about="">
        <dc:format>image/svg+xml</dc:format>
        <dc:type
           rdf:resource="http://purl.org/dc/dcmitype/StillImage" />
      </cc:Work>
    </rdf:RDF>
  </metadata>
  <defs
     id="defs3">
    <pattern
       y="0"
       x="0"
       height="6"
       width="6"
       patternUnits="userSpaceOnUse"
       id="EMFhbasepattern" />
  </defs>
  <path
     id="path5"
     d="  M 54.345381,54.345381   L 54.345381,307.53092   L 307.53092,307.53092   L 307.53092,54.345381   L 54.345381,54.345381   z "
     style="fill:#aaffaa;fill-rule:evenodd;fill-opacity:1;stroke:none;" />
  <path
     id="path7"
     d="  M 54.345381,54.345381   L 307.53092,54.345381   L 307.53092,307.53092   L 54.345381,307.53092   z "
     style="fill:none;stroke:#000000;stroke-width:9.5903616px;stroke-linecap:butt;stroke-linejoin:miter;stroke-miterlimit:10;stroke-dasharray:none;stroke-opacity:1;" />
  <path
     id="path9"
     d="  M 180.93815,142.5767   L 180.93815,286.43212  "
     style="fill:none;stroke:#000000;stroke-width:9.5903616px;stroke-linecap:butt;stroke-linejoin:miter;stroke-miterlimit:10;stroke-dasharray:none;stroke-opacity:1;" />
  <path
     id="path11"
     d="  M 165.55361,103.1763   L 171.10803,102.69679   C 171.38775,104.93454 171.98715,106.73273 172.94618,108.17128   C 173.90522,109.60984 175.42369,110.76867 177.42168,111.64779   C 179.45964,112.52691 181.73735,112.96646 184.29478,112.96646   C 186.53253,112.96646 188.53052,112.64679 190.24879,111.96747   C 191.96707,111.28815 193.24578,110.36907 194.08494,109.21024   C 194.96405,108.0514 195.36365,106.77269 195.36365,105.41405   C 195.36365,104.01546 194.96405,102.77671 194.16486,101.73775   C 193.3257,100.69879 192.00703,99.819677 190.12891,99.1004   C 188.93012,98.620882 186.29277,97.901605 182.1769,96.902609   C 178.101,95.943573 175.22389,95.024497 173.58554,94.14538   C 171.42771,93.026505 169.86927,91.62791 168.79036,89.989557   C 167.7514,88.311244 167.23193,86.473091 167.23193,84.435139   C 167.23193,82.157429 167.87128,80.079517 169.15,78.121485   C 170.42871,76.163453 172.30682,74.684939 174.74437,73.645983   C 177.22188,72.646987 179.93915,72.127509 182.93614,72.127509   C 186.25281,72.127509 189.16988,72.646987 191.68735,73.725903   C 194.20482,74.804818 196.16285,76.363252 197.52148,78.441164   C 198.88012,80.479115 199.59939,82.836746 199.71927,85.474095   L 194.04498,85.873694   C 193.76526,83.076505 192.7263,80.918674 190.96807,79.480119   C 189.20984,78.041565 186.61245,77.322288 183.1759,77.322288   C 179.61948,77.322288 177.02209,78.001605 175.38373,79.28032   C 173.74538,80.598995 172.94618,82.197388 172.94618,84.035541   C 172.94618,85.633935 173.50562,86.952609 174.66446,87.991565   C 175.82329,89.030521 178.78032,90.069477 183.5755,91.148392   C 188.37068,92.267268 191.64739,93.186344 193.44558,94.025501   C 196.04297,95.224296 197.96104,96.74277 199.1998,98.580922   C 200.43855,100.41907 201.03795,102.49699 201.03795,104.89458   C 201.03795,107.29217 200.35863,109.52992 199,111.60783   C 197.64136,113.7257 195.72329,115.36405 193.16586,116.52289   C 190.60843,117.68173 187.73132,118.28112 184.5745,118.28112   C 180.53855,118.28112 177.14197,117.68173 174.4247,116.52289   C 171.66747,115.32409 169.5496,113.56586 167.99116,111.20823   C 166.43273,108.8506 165.63353,106.17329 165.55361,103.1763   z "
     style="fill:#000000;fill-rule:evenodd;fill-opacity:1;stroke:none;" />
  <path
     id="path13"
     d="  M 156.96225,166.55261   L 156.96225,166.55261   L 180.93815,142.5767   L 204.91405,166.55261  "
     style="fill:none;stroke:#000000;stroke-width:9.5903616px;stroke-linecap:butt;stroke-linejoin:miter;stroke-miterlimit:10;stroke-dasharray:none;stroke-opacity:1;" />
</svg>
