<?xml version="1.0" encoding="UTF-8" standalone="no"?>
<svg
   xmlns:dc="http://purl.org/dc/elements/1.1/"
   xmlns:cc="http://creativecommons.org/ns#"
   xmlns:rdf="http://www.w3.org/1999/02/22-rdf-syntax-ns#"
   xmlns:svg="http://www.w3.org/2000/svg"
   xmlns="http://www.w3.org/2000/svg"
   id="svg15"
   height="130.27mm"
   width="130.27mm"
   version="1.0">
  <metadata
     id="metadata19">
    <rdf:RDF>
      <cc:Work
         rdf:about="">
        <dc:format>image/svg+xml</dc:format>
        <dc:type
           rdf:resource="http://purl.org/dc/dcmitype/StillImage" />
      </cc:Work>
    </rdf:RDF>
  </metadata>
  <defs
     id="defs3">
    <pattern
       y="0"
       x="0"
       height="6"
       width="6"
       patternUnits="userSpaceOnUse"
       id="EMFhbasepattern" />
  </defs>
  <path
     id="path5"
     d="  M 164.63454,327.67068   C 164.63454,437.95983 327.67068,437.95983 327.67068,327.67068   C 437.95983,327.67068 437.95983,164.63454 327.67068,164.63454   C 327.67068,54.345381 164.63454,54.345381 164.63454,164.63454   C 54.345381,164.63454 54.345381,327.67068 164.63454,327.67068   z "
     style="fill:#ffff80;fill-rule:evenodd;fill-opacity:1;stroke:none;" />
  <path
     id="path7"
     d="  M 164.63454,327.67068   C 164.63454,437.95983 327.67068,437.95983 327.67068,327.67068   C 437.95983,327.67068 437.95983,164.63454 327.67068,164.63454   C 327.67068,54.345381 164.63454,54.345381 164.63454,164.63454   C 54.345381,164.63454 54.345381,327.67068 164.63454,327.67068  "
     style="fill:none;stroke:#000000;stroke-width:9.5903616px;stroke-linecap:butt;stroke-linejoin:miter;stroke-miterlimit:10;stroke-dasharray:none;stroke-opacity:1;" />
  <path
     id="path9"
     d="  M 187.37168,176.66245   L 192.5265,176.22289   C 192.76626,178.26084 193.3257,179.97911 194.20482,181.29779   C 195.12389,182.61646 196.48253,183.65542 198.36064,184.49458   C 200.23875,185.29377 202.35662,185.69337 204.67429,185.69337   C 206.75221,185.69337 208.59036,185.41365 210.18875,184.77429   C 211.78715,184.1749 212.98594,183.29578 213.74518,182.25682   C 214.54437,181.17791 214.90401,179.97911 214.90401,178.7004   C 214.90401,177.42168 214.54437,176.30281 213.78514,175.34377   C 213.0259,174.34478 211.78715,173.54558 210.06887,172.90622   C 208.98996,172.46666 206.51245,171.78735 202.75622,170.86827   C 198.96004,169.98915 196.32269,169.11004 194.80421,168.31084   C 192.84618,167.27189 191.36767,165.99317 190.40863,164.4747   C 189.4496,162.95622 188.97008,161.23795 188.97008,159.35984   C 188.97008,157.28193 189.52952,155.32389 190.72831,153.5257   C 191.88715,151.72751 193.64538,150.32891 195.88313,149.40984   C 198.16084,148.4508 200.67831,148.01124 203.43554,148.01124   C 206.51245,148.01124 209.18976,148.49076 211.50743,149.48976   C 213.86506,150.44879 215.66325,151.88735 216.902,153.80542   C 218.18072,155.72349 218.82008,157.88132 218.93996,160.31887   L 213.70522,160.71847   C 213.4255,158.08112 212.46646,156.12309 210.86807,154.80442   C 209.22972,153.48574 206.83213,152.80642 203.6753,152.80642   C 200.35863,152.80642 197.96104,153.40582 196.48253,154.60462   C 194.96405,155.84337 194.20482,157.28193 194.20482,159.0002   C 194.20482,160.47871 194.72429,161.67751 195.80321,162.63654   C 196.84217,163.59558 199.59939,164.59458 204.03494,165.59357   C 208.47048,166.59257 211.50743,167.47168 213.14578,168.19096   C 215.54337,169.30984 217.3016,170.70843 218.46044,172.38674   C 219.57931,174.10502 220.17871,176.06305 220.17871,178.26084   C 220.17871,180.45863 219.53935,182.53654 218.3006,184.45462   C 217.02188,186.41265 215.22369,187.89116 212.86606,188.97008   C 210.50843,190.04899 207.87108,190.60843 204.95401,190.60843   C 201.19779,190.60843 198.08092,190.04899 195.56345,188.97008   C 193.04598,187.89116 191.08795,186.25281 189.64939,184.05502   C 188.21084,181.89719 187.4516,179.41968 187.37168,176.66245   z  M 225.97289,169.82931   C 225.97289,162.99618 227.81104,157.64156 231.44739,153.76546   C 235.12369,149.88936 239.87891,147.97128 245.67309,147.97128   C 249.46927,147.97128 252.90582,148.89036 255.94277,150.68855   C 259.01967,152.5267 261.33735,155.04417 262.93574,158.28092   C 264.53413,161.55763 265.33333,165.23393 265.33333,169.3498   C 265.33333,173.54558 264.49417,177.26184 262.81586,180.57851   C 261.13755,183.85522 258.73996,186.37269 255.66305,188.051   C 252.54618,189.76927 249.22951,190.60843 245.63313,190.60843   C 241.75702,190.60843 238.32048,189.64939 235.24357,187.77128   C 232.20662,185.93313 229.88895,183.3757 228.33052,180.09899   C 226.73213,176.86225 225.97289,173.46566 225.97289,169.82931   z  M 231.56727,169.90923   C 231.56727,174.86425 232.9259,178.78032 235.56325,181.65743   C 238.24056,184.49458 241.59719,185.93313 245.63313,185.93313   C 249.70903,185.93313 253.10562,184.49458 255.74297,181.61747   C 258.42028,178.74036 259.73895,174.6245 259.73895,169.30984   C 259.73895,165.99317 259.17951,163.03614 258.02068,160.55863   C 256.9018,158.04116 255.22349,156.12309 253.06566,154.7245   C 250.86787,153.36586 248.43032,152.64658 245.71305,152.64658   C 241.83694,152.64658 238.52028,154.00522 235.76305,156.64257   C 232.96586,159.27992 231.56727,163.71546 231.56727,169.90923   z  M 272.64598,189.88915   L 272.64598,148.69056   L 300.45803,148.69056   L 300.45803,153.56566   L 278.12048,153.56566   L 278.12048,166.31285   L 297.42108,166.31285   L 297.42108,171.18795   L 278.12048,171.18795   L 278.12048,189.88915   z "
     style="fill:#000000;fill-rule:evenodd;fill-opacity:1;stroke:none;" />
  <path
     id="path11"
     d="  M 187.37168,176.66245   L 192.5265,176.22289   C 192.76626,178.26084 193.3257,179.97911 194.20482,181.29779   C 195.12389,182.61646 196.48253,183.65542 198.36064,184.49458   C 200.23875,185.29377 202.35662,185.69337 204.67429,185.69337   C 206.75221,185.69337 208.59036,185.41365 210.18875,184.77429   C 211.78715,184.1749 212.98594,183.29578 213.74518,182.25682   C 214.54437,181.17791 214.90401,179.97911 214.90401,178.7004   C 214.90401,177.42168 214.54437,176.30281 213.78514,175.34377   C 213.0259,174.34478 211.78715,173.54558 210.06887,172.90622   C 208.98996,172.46666 206.51245,171.78735 202.75622,170.86827   C 198.96004,169.98915 196.32269,169.11004 194.80421,168.31084   C 192.84618,167.27189 191.36767,165.99317 190.40863,164.4747   C 189.4496,162.95622 188.97008,161.23795 188.97008,159.35984   C 188.97008,157.28193 189.52952,155.32389 190.72831,153.5257   C 191.88715,151.72751 193.64538,150.32891 195.88313,149.40984   C 198.16084,148.4508 200.67831,148.01124 203.43554,148.01124   C 206.51245,148.01124 209.18976,148.49076 211.50743,149.48976   C 213.86506,150.44879 215.66325,151.88735 216.902,153.80542   C 218.18072,155.72349 218.82008,157.88132 218.93996,160.31887   L 213.70522,160.71847   C 213.4255,158.08112 212.46646,156.12309 210.86807,154.80442   C 209.22972,153.48574 206.83213,152.80642 203.6753,152.80642   C 200.35863,152.80642 197.96104,153.40582 196.48253,154.60462   C 194.96405,155.84337 194.20482,157.28193 194.20482,159.0002   C 194.20482,160.47871 194.72429,161.67751 195.80321,162.63654   C 196.84217,163.59558 199.59939,164.59458 204.03494,165.59357   C 208.47048,166.59257 211.50743,167.47168 213.14578,168.19096   C 215.54337,169.30984 217.3016,170.70843 218.46044,172.38674   C 219.57931,174.10502 220.17871,176.06305 220.17871,178.26084   C 220.17871,180.45863 219.53935,182.53654 218.3006,184.45462   C 217.02188,186.41265 215.22369,187.89116 212.86606,188.97008   C 210.50843,190.04899 207.87108,190.60843 204.95401,190.60843   C 201.19779,190.60843 198.08092,190.04899 195.56345,188.97008   C 193.04598,187.89116 191.08795,186.25281 189.64939,184.05502   C 188.21084,181.89719 187.4516,179.41968 187.37168,176.66245   z  M 225.97289,169.82931   C 225.97289,162.99618 227.81104,157.64156 231.44739,153.76546   C 235.12369,149.88936 239.87891,147.97128 245.67309,147.97128   C 249.46927,147.97128 252.90582,148.89036 255.94277,150.68855   C 259.01967,152.5267 261.33735,155.04417 262.93574,158.28092   C 264.53413,161.55763 265.33333,165.23393 265.33333,169.3498   C 265.33333,173.54558 264.49417,177.26184 262.81586,180.57851   C 261.13755,183.85522 258.73996,186.37269 255.66305,188.051   C 252.54618,189.76927 249.22951,190.60843 245.63313,190.60843   C 241.75702,190.60843 238.32048,189.64939 235.24357,187.77128   C 232.20662,185.93313 229.88895,183.3757 228.33052,180.09899   C 226.73213,176.86225 225.97289,173.46566 225.97289,169.82931   z  M 231.56727,169.90923   C 231.56727,174.86425 232.9259,178.78032 235.56325,181.65743   C 238.24056,184.49458 241.59719,185.93313 245.63313,185.93313   C 249.70903,185.93313 253.10562,184.49458 255.74297,181.61747   C 258.42028,178.74036 259.73895,174.6245 259.73895,169.30984   C 259.73895,165.99317 259.17951,163.03614 258.02068,160.55863   C 256.9018,158.04116 255.22349,156.12309 253.06566,154.7245   C 250.86787,153.36586 248.43032,152.64658 245.71305,152.64658   C 241.83694,152.64658 238.52028,154.00522 235.76305,156.64257   C 232.96586,159.27992 231.56727,163.71546 231.56727,169.90923   z  M 272.64598,189.88915   L 272.64598,148.69056   L 300.45803,148.69056   L 300.45803,153.56566   L 278.12048,153.56566   L 278.12048,166.31285   L 297.42108,166.31285   L 297.42108,171.18795   L 278.12048,171.18795   L 278.12048,189.88915   z "
     style="fill:none;stroke:#000000;stroke-width:0.95903611px;stroke-linecap:butt;stroke-linejoin:miter;stroke-miterlimit:10;stroke-dasharray:none;stroke-opacity:1;" />
  <path
     id="path13"
     d="  M 246.15261,246.15261   L 193.40562,222.1767   C 140.65863,198.2008 140.65863,294.10441 193.40562,270.12851   L 246.15261,246.15261   L 298.89959,222.1767   C 351.64658,198.2008 351.64658,294.10441 298.89959,270.12851   L 246.15261,246.15261   z "
     style="fill:#000000;fill-rule:evenodd;fill-opacity:1;stroke:none;" />
</svg>
