<?xml version="1.0" encoding="UTF-8" standalone="no"?>
<svg
   xmlns:dc="http://purl.org/dc/elements/1.1/"
   xmlns:cc="http://creativecommons.org/ns#"
   xmlns:rdf="http://www.w3.org/1999/02/22-rdf-syntax-ns#"
   xmlns:svg="http://www.w3.org/2000/svg"
   xmlns="http://www.w3.org/2000/svg"
   id="svg13"
   height="95.75mm"
   width="95.75mm"
   version="1.0">
  <metadata
     id="metadata17">
    <rdf:RDF>
      <cc:Work
         rdf:about="">
        <dc:format>image/svg+xml</dc:format>
        <dc:type
           rdf:resource="http://purl.org/dc/dcmitype/StillImage" />
      </cc:Work>
    </rdf:RDF>
  </metadata>
  <defs
     id="defs3">
    <pattern
       y="0"
       x="0"
       height="6"
       width="6"
       patternUnits="userSpaceOnUse"
       id="EMFhbasepattern" />
  </defs>
  <path
     id="path5"
     d="  M 54.345381,54.345381   L 54.345381,307.53092   L 307.53092,307.53092   L 307.53092,54.345381   L 54.345381,54.345381   z "
     style="fill:#aaffaa;fill-rule:evenodd;fill-opacity:1;stroke:none;" />
  <path
     id="path7"
     d="  M 54.345381,54.345381   L 307.53092,54.345381   L 307.53092,307.53092   L 54.345381,307.53092   z "
     style="fill:none;stroke:#000000;stroke-width:9.5903616px;stroke-linecap:butt;stroke-linejoin:miter;stroke-miterlimit:10;stroke-dasharray:none;stroke-opacity:1;" />
  <path
     id="path9"
     d="  M 96.58293,184.5745   L 104.33514,183.89518   C 104.69478,187.01205 105.53393,189.52952 106.85261,191.52751   C 108.21124,193.48554 110.28916,195.08393 113.08634,196.32269   C 115.88353,197.52148 119.04036,198.16084 122.55683,198.16084   C 125.67369,198.16084 128.43092,197.68132 130.82851,196.76225   C 133.2261,195.84317 134.98434,194.56446 136.14317,192.96606   C 137.34197,191.32771 137.9014,189.56948 137.9014,187.6514   C 137.9014,185.73333 137.34197,184.01506 136.22309,182.5765   C 135.10421,181.13795 133.2261,179.89919 130.66867,178.94016   C 128.99036,178.3008 125.31405,177.3018 119.63976,175.90321   C 113.96546,174.54458 110.00944,173.26586 107.73173,172.06707   C 104.7747,170.50863 102.57691,168.59056 101.13835,166.31285   C 99.699798,164.03514 98.980521,161.43775 98.980521,158.6006   C 98.980521,155.48373 99.859637,152.60662 101.61787,149.88936   C 103.3761,147.17209 105.97349,145.09417 109.37008,143.69558   C 112.76667,142.29699 116.56285,141.57771 120.71867,141.57771   C 125.27409,141.57771 129.31004,142.33695 132.8265,143.81546   C 136.34297,145.29397 139.02028,147.45181 140.89839,150.32891   C 142.7765,153.16606 143.7755,156.44277 143.93534,160.03915   L 136.10321,160.63855   C 135.66365,156.72249 134.26506,153.80542 131.82751,151.80743   C 129.38996,149.80944 125.79357,148.81044 121.03835,148.81044   C 116.08333,148.81044 112.48695,149.68956 110.2492,151.52771   C 107.97148,153.3259 106.85261,155.52369 106.85261,158.08112   C 106.85261,160.27891 107.65181,162.11707 109.2502,163.55562   C 110.80863,164.99417 114.9245,166.47269 121.55783,167.9512   C 128.23112,169.46968 132.78654,170.78835 135.26405,171.90723   C 138.86044,173.54558 141.49779,175.66345 143.21606,178.18092   C 144.93434,180.73835 145.77349,183.65542 145.77349,186.97209   C 145.77349,190.28875 144.85442,193.36566 142.9763,196.28273   C 141.09819,199.1998 138.38092,201.43755 134.86446,203.0759   C 131.30803,204.67429 127.35201,205.47349 122.95642,205.47349   C 117.36205,205.47349 112.68675,204.67429 108.89056,203.03594   C 105.09438,201.39759 102.13735,198.96004 99.979517,195.68333   C 97.861645,192.40662 96.70281,188.73032 96.58293,184.5745   z  M 154.48474,174.34478   C 154.48474,164.0751 157.24197,156.04317 162.71646,150.24899   C 168.23092,144.45482 175.34377,141.53775 184.05502,141.53775   C 189.76927,141.53775 194.88413,142.89638 199.47952,145.65361   C 204.0749,148.37088 207.5514,152.16707 209.94899,157.04217   C 212.34658,161.91727 213.54538,167.43172 213.54538,173.6255   C 213.54538,179.89919 212.30662,185.49357 209.74919,190.44859   C 207.23172,195.40361 203.63534,199.11988 199,201.67731   C 194.36466,204.23474 189.36968,205.47349 184.01506,205.47349   C 178.18092,205.47349 172.98614,204.0749 168.43072,201.27771   C 163.83534,198.48052 160.35883,194.64437 158.0012,189.76927   C 155.64357,184.89417 154.48474,179.77931 154.48474,174.34478   z  M 162.91626,174.46466   C 162.91626,181.89719 164.91425,187.77128 168.91024,192.04699   C 172.90622,196.36265 177.94116,198.48052 183.9751,198.48052   C 190.12891,198.48052 195.20381,196.32269 199.15984,192.00703   C 203.15582,187.69136 205.11385,181.53755 205.11385,173.58554   C 205.11385,168.5506 204.2747,164.15502 202.59638,160.39879   C 200.87811,156.64257 198.4006,153.76546 195.12389,151.68755   C 191.84719,149.60964 188.17088,148.57068 184.09498,148.57068   C 178.3008,148.57068 173.34578,150.56867 169.15,154.56466   C 164.99417,158.52068 162.91626,165.15401 162.91626,174.46466   z  M 224.49437,204.43454   L 224.49437,142.65662   L 266.21245,142.65662   L 266.21245,149.92932   L 232.68614,149.92932   L 232.68614,169.07008   L 261.69698,169.07008   L 261.69698,176.34277   L 232.68614,176.34277   L 232.68614,204.43454   z "
     style="fill:#000000;fill-rule:evenodd;fill-opacity:1;stroke:none;" />
  <path
     id="path11"
     d="  M 96.58293,184.5745   L 104.33514,183.89518   C 104.69478,187.01205 105.53393,189.52952 106.85261,191.52751   C 108.21124,193.48554 110.28916,195.08393 113.08634,196.32269   C 115.88353,197.52148 119.04036,198.16084 122.55683,198.16084   C 125.67369,198.16084 128.43092,197.68132 130.82851,196.76225   C 133.2261,195.84317 134.98434,194.56446 136.14317,192.96606   C 137.34197,191.32771 137.9014,189.56948 137.9014,187.6514   C 137.9014,185.73333 137.34197,184.01506 136.22309,182.5765   C 135.10421,181.13795 133.2261,179.89919 130.66867,178.94016   C 128.99036,178.3008 125.31405,177.3018 119.63976,175.90321   C 113.96546,174.54458 110.00944,173.26586 107.73173,172.06707   C 104.7747,170.50863 102.57691,168.59056 101.13835,166.31285   C 99.699798,164.03514 98.980521,161.43775 98.980521,158.6006   C 98.980521,155.48373 99.859637,152.60662 101.61787,149.88936   C 103.3761,147.17209 105.97349,145.09417 109.37008,143.69558   C 112.76667,142.29699 116.56285,141.57771 120.71867,141.57771   C 125.27409,141.57771 129.31004,142.33695 132.8265,143.81546   C 136.34297,145.29397 139.02028,147.45181 140.89839,150.32891   C 142.7765,153.16606 143.7755,156.44277 143.93534,160.03915   L 136.10321,160.63855   C 135.66365,156.72249 134.26506,153.80542 131.82751,151.80743   C 129.38996,149.80944 125.79357,148.81044 121.03835,148.81044   C 116.08333,148.81044 112.48695,149.68956 110.2492,151.52771   C 107.97148,153.3259 106.85261,155.52369 106.85261,158.08112   C 106.85261,160.27891 107.65181,162.11707 109.2502,163.55562   C 110.80863,164.99417 114.9245,166.47269 121.55783,167.9512   C 128.23112,169.46968 132.78654,170.78835 135.26405,171.90723   C 138.86044,173.54558 141.49779,175.66345 143.21606,178.18092   C 144.93434,180.73835 145.77349,183.65542 145.77349,186.97209   C 145.77349,190.28875 144.85442,193.36566 142.9763,196.28273   C 141.09819,199.1998 138.38092,201.43755 134.86446,203.0759   C 131.30803,204.67429 127.35201,205.47349 122.95642,205.47349   C 117.36205,205.47349 112.68675,204.67429 108.89056,203.03594   C 105.09438,201.39759 102.13735,198.96004 99.979517,195.68333   C 97.861645,192.40662 96.70281,188.73032 96.58293,184.5745   z  M 154.48474,174.34478   C 154.48474,164.0751 157.24197,156.04317 162.71646,150.24899   C 168.23092,144.45482 175.34377,141.53775 184.05502,141.53775   C 189.76927,141.53775 194.88413,142.89638 199.47952,145.65361   C 204.0749,148.37088 207.5514,152.16707 209.94899,157.04217   C 212.34658,161.91727 213.54538,167.43172 213.54538,173.6255   C 213.54538,179.89919 212.30662,185.49357 209.74919,190.44859   C 207.23172,195.40361 203.63534,199.11988 199,201.67731   C 194.36466,204.23474 189.36968,205.47349 184.01506,205.47349   C 178.18092,205.47349 172.98614,204.0749 168.43072,201.27771   C 163.83534,198.48052 160.35883,194.64437 158.0012,189.76927   C 155.64357,184.89417 154.48474,179.77931 154.48474,174.34478   z  M 162.91626,174.46466   C 162.91626,181.89719 164.91425,187.77128 168.91024,192.04699   C 172.90622,196.36265 177.94116,198.48052 183.9751,198.48052   C 190.12891,198.48052 195.20381,196.32269 199.15984,192.00703   C 203.15582,187.69136 205.11385,181.53755 205.11385,173.58554   C 205.11385,168.5506 204.2747,164.15502 202.59638,160.39879   C 200.87811,156.64257 198.4006,153.76546 195.12389,151.68755   C 191.84719,149.60964 188.17088,148.57068 184.09498,148.57068   C 178.3008,148.57068 173.34578,150.56867 169.15,154.56466   C 164.99417,158.52068 162.91626,165.15401 162.91626,174.46466   z  M 224.49437,204.43454   L 224.49437,142.65662   L 266.21245,142.65662   L 266.21245,149.92932   L 232.68614,149.92932   L 232.68614,169.07008   L 261.69698,169.07008   L 261.69698,176.34277   L 232.68614,176.34277   L 232.68614,204.43454   z "
     style="fill:none;stroke:#000000;stroke-width:0.95903611px;stroke-linecap:butt;stroke-linejoin:miter;stroke-miterlimit:10;stroke-dasharray:none;stroke-opacity:1;" />
</svg>
