<?xml version="1.0" encoding="UTF-8" standalone="no"?>
<svg
   xmlns:dc="http://purl.org/dc/elements/1.1/"
   xmlns:cc="http://creativecommons.org/ns#"
   xmlns:rdf="http://www.w3.org/1999/02/22-rdf-syntax-ns#"
   xmlns:svg="http://www.w3.org/2000/svg"
   xmlns="http://www.w3.org/2000/svg"
   id="svg13"
   height="130.27mm"
   width="130.27mm"
   version="1.0">
  <metadata
     id="metadata17">
    <rdf:RDF>
      <cc:Work
         rdf:about="">
        <dc:format>image/svg+xml</dc:format>
        <dc:type
           rdf:resource="http://purl.org/dc/dcmitype/StillImage" />
      </cc:Work>
    </rdf:RDF>
  </metadata>
  <defs
     id="defs3">
    <pattern
       y="0"
       x="0"
       height="6"
       width="6"
       patternUnits="userSpaceOnUse"
       id="EMFhbasepattern" />
  </defs>
  <path
     id="path5"
     d="  M 164.63454,327.67068   C 164.63454,437.95983 327.67068,437.95983 327.67068,327.67068   C 437.95983,327.67068 437.95983,164.63454 327.67068,164.63454   C 327.67068,54.345381 164.63454,54.345381 164.63454,164.63454   C 54.345381,164.63454 54.345381,327.67068 164.63454,327.67068   z "
     style="fill:#ffff80;fill-rule:evenodd;fill-opacity:1;stroke:none;" />
  <path
     id="path7"
     d="  M 164.63454,327.67068   C 164.63454,437.95983 327.67068,437.95983 327.67068,327.67068   C 437.95983,327.67068 437.95983,164.63454 327.67068,164.63454   C 327.67068,54.345381 164.63454,54.345381 164.63454,164.63454   C 54.345381,164.63454 54.345381,327.67068 164.63454,327.67068  "
     style="fill:none;stroke:#000000;stroke-width:9.5903616px;stroke-linecap:butt;stroke-linejoin:miter;stroke-miterlimit:10;stroke-dasharray:none;stroke-opacity:1;" />
  <path
     id="path9"
     d="  M 161.79739,249.78895   L 169.5496,249.10963   C 169.90923,252.2265 170.74839,254.74397 172.06707,256.74196   C 173.4257,258.7 175.50361,260.29839 178.3008,261.53714   C 181.09799,262.73594 184.25482,263.3753 187.77128,263.3753   C 190.88815,263.3753 193.64538,262.89578 196.04297,261.9767   C 198.44056,261.05763 200.19879,259.77891 201.35763,258.18052   C 202.55642,256.54216 203.11586,254.78393 203.11586,252.86586   C 203.11586,250.94779 202.55642,249.22951 201.43755,247.79096   C 200.31867,246.35241 198.44056,245.11365 195.88313,244.15461   C 194.20482,243.51526 190.52851,242.51626 184.85421,241.11767   C 179.17992,239.75903 175.22389,238.48032 172.94618,237.28152   C 169.98915,235.72309 167.79136,233.80502 166.35281,231.52731   C 164.91425,229.2496 164.19498,226.65221 164.19498,223.81506   C 164.19498,220.69819 165.07409,217.82108 166.83233,215.10381   C 168.59056,212.38654 171.18795,210.30863 174.58454,208.91004   C 177.98112,207.51144 181.77731,206.79217 185.93313,206.79217   C 190.48855,206.79217 194.5245,207.5514 198.04096,209.02992   C 201.55743,210.50843 204.23474,212.66626 206.11285,215.54337   C 207.99096,218.38052 208.98996,221.65723 209.1498,225.25361   L 201.31767,225.85301   C 200.87811,221.93694 199.47952,219.01988 197.04197,217.02188   C 194.60441,215.02389 191.00803,214.0249 186.25281,214.0249   C 181.29779,214.0249 177.7014,214.90401 175.46365,216.74217   C 173.18594,218.54036 172.06707,220.73815 172.06707,223.29558   C 172.06707,225.49337 172.86626,227.33152 174.46466,228.77008   C 176.02309,230.20863 180.13895,231.68715 186.77229,233.16566   C 193.44558,234.68413 198.001,236.00281 200.47851,237.12168   C 204.0749,238.76004 206.71225,240.87791 208.43052,243.39538   C 210.14879,245.95281 210.98795,248.86988 210.98795,252.18654   C 210.98795,255.50321 210.06887,258.58012 208.19076,261.49718   C 206.31265,264.41425 203.59538,266.652 200.07891,268.29036   C 196.52249,269.88875 192.56646,270.68795 188.17088,270.68795   C 182.5765,270.68795 177.9012,269.88875 174.10502,268.2504   C 170.30883,266.61204 167.3518,264.17449 165.19397,260.89779   C 163.0761,257.62108 161.91727,253.94478 161.79739,249.78895   z  M 219.69919,239.55923   C 219.69919,229.28955 222.45642,221.25763 227.93092,215.46345   C 233.44538,209.66927 240.55823,206.75221 249.26947,206.75221   C 254.98373,206.75221 260.09859,208.11084 264.69397,210.86807   C 269.28935,213.58534 272.76586,217.38152 275.16345,222.25662   C 277.56104,227.13172 278.75984,232.64618 278.75984,238.83996   C 278.75984,245.11365 277.52108,250.70803 274.96365,255.66305   C 272.44618,260.61807 268.8498,264.33433 264.21445,266.89176   C 259.57911,269.44919 254.58413,270.68795 249.22951,270.68795   C 243.39538,270.68795 238.2006,269.28935 233.64518,266.49216   C 229.0498,263.69498 225.57329,259.85883 223.21566,254.98373   C 220.85803,250.10863 219.69919,244.99377 219.69919,239.55923   z  M 228.13072,239.67911   C 228.13072,247.11164 230.12871,252.98574 234.1247,257.26144   C 238.12068,261.5771 243.15562,263.69498 249.18955,263.69498   C 255.34337,263.69498 260.41827,261.53714 264.37429,257.22148   C 268.37028,252.90582 270.32831,246.752 270.32831,238.8   C 270.32831,233.76506 269.48915,229.36947 267.81084,225.61325   C 266.09257,221.85702 263.61506,218.97992 260.33835,216.902   C 257.06164,214.82409 253.38534,213.78514 249.30943,213.78514   C 243.51526,213.78514 238.56024,215.78313 234.36445,219.77911   C 230.20863,223.73514 228.13072,230.36847 228.13072,239.67911   z  M 289.70883,269.64899   L 289.70883,207.87108   L 331.4269,207.87108   L 331.4269,215.14377   L 297.9006,215.14377   L 297.9006,234.28453   L 326.91144,234.28453   L 326.91144,241.55723   L 297.9006,241.55723   L 297.9006,269.64899   z "
     style="fill:#000000;fill-rule:evenodd;fill-opacity:1;stroke:none;" />
  <path
     id="path11"
     d="  M 161.79739,249.78895   L 169.5496,249.10963   C 169.90923,252.2265 170.74839,254.74397 172.06707,256.74196   C 173.4257,258.7 175.50361,260.29839 178.3008,261.53714   C 181.09799,262.73594 184.25482,263.3753 187.77128,263.3753   C 190.88815,263.3753 193.64538,262.89578 196.04297,261.9767   C 198.44056,261.05763 200.19879,259.77891 201.35763,258.18052   C 202.55642,256.54216 203.11586,254.78393 203.11586,252.86586   C 203.11586,250.94779 202.55642,249.22951 201.43755,247.79096   C 200.31867,246.35241 198.44056,245.11365 195.88313,244.15461   C 194.20482,243.51526 190.52851,242.51626 184.85421,241.11767   C 179.17992,239.75903 175.22389,238.48032 172.94618,237.28152   C 169.98915,235.72309 167.79136,233.80502 166.35281,231.52731   C 164.91425,229.2496 164.19498,226.65221 164.19498,223.81506   C 164.19498,220.69819 165.07409,217.82108 166.83233,215.10381   C 168.59056,212.38654 171.18795,210.30863 174.58454,208.91004   C 177.98112,207.51144 181.77731,206.79217 185.93313,206.79217   C 190.48855,206.79217 194.5245,207.5514 198.04096,209.02992   C 201.55743,210.50843 204.23474,212.66626 206.11285,215.54337   C 207.99096,218.38052 208.98996,221.65723 209.1498,225.25361   L 201.31767,225.85301   C 200.87811,221.93694 199.47952,219.01988 197.04197,217.02188   C 194.60441,215.02389 191.00803,214.0249 186.25281,214.0249   C 181.29779,214.0249 177.7014,214.90401 175.46365,216.74217   C 173.18594,218.54036 172.06707,220.73815 172.06707,223.29558   C 172.06707,225.49337 172.86626,227.33152 174.46466,228.77008   C 176.02309,230.20863 180.13895,231.68715 186.77229,233.16566   C 193.44558,234.68413 198.001,236.00281 200.47851,237.12168   C 204.0749,238.76004 206.71225,240.87791 208.43052,243.39538   C 210.14879,245.95281 210.98795,248.86988 210.98795,252.18654   C 210.98795,255.50321 210.06887,258.58012 208.19076,261.49718   C 206.31265,264.41425 203.59538,266.652 200.07891,268.29036   C 196.52249,269.88875 192.56646,270.68795 188.17088,270.68795   C 182.5765,270.68795 177.9012,269.88875 174.10502,268.2504   C 170.30883,266.61204 167.3518,264.17449 165.19397,260.89779   C 163.0761,257.62108 161.91727,253.94478 161.79739,249.78895   z  M 219.69919,239.55923   C 219.69919,229.28955 222.45642,221.25763 227.93092,215.46345   C 233.44538,209.66927 240.55823,206.75221 249.26947,206.75221   C 254.98373,206.75221 260.09859,208.11084 264.69397,210.86807   C 269.28935,213.58534 272.76586,217.38152 275.16345,222.25662   C 277.56104,227.13172 278.75984,232.64618 278.75984,238.83996   C 278.75984,245.11365 277.52108,250.70803 274.96365,255.66305   C 272.44618,260.61807 268.8498,264.33433 264.21445,266.89176   C 259.57911,269.44919 254.58413,270.68795 249.22951,270.68795   C 243.39538,270.68795 238.2006,269.28935 233.64518,266.49216   C 229.0498,263.69498 225.57329,259.85883 223.21566,254.98373   C 220.85803,250.10863 219.69919,244.99377 219.69919,239.55923   z  M 228.13072,239.67911   C 228.13072,247.11164 230.12871,252.98574 234.1247,257.26144   C 238.12068,261.5771 243.15562,263.69498 249.18955,263.69498   C 255.34337,263.69498 260.41827,261.53714 264.37429,257.22148   C 268.37028,252.90582 270.32831,246.752 270.32831,238.8   C 270.32831,233.76506 269.48915,229.36947 267.81084,225.61325   C 266.09257,221.85702 263.61506,218.97992 260.33835,216.902   C 257.06164,214.82409 253.38534,213.78514 249.30943,213.78514   C 243.51526,213.78514 238.56024,215.78313 234.36445,219.77911   C 230.20863,223.73514 228.13072,230.36847 228.13072,239.67911   z  M 289.70883,269.64899   L 289.70883,207.87108   L 331.4269,207.87108   L 331.4269,215.14377   L 297.9006,215.14377   L 297.9006,234.28453   L 326.91144,234.28453   L 326.91144,241.55723   L 297.9006,241.55723   L 297.9006,269.64899   z "
     style="fill:none;stroke:#000000;stroke-width:0.95903611px;stroke-linecap:butt;stroke-linejoin:miter;stroke-miterlimit:10;stroke-dasharray:none;stroke-opacity:1;" />
</svg>
