<?xml version="1.0" encoding="UTF-8" standalone="no"?>
<svg
   xmlns:dc="http://purl.org/dc/elements/1.1/"
   xmlns:cc="http://creativecommons.org/ns#"
   xmlns:rdf="http://www.w3.org/1999/02/22-rdf-syntax-ns#"
   xmlns:svg="http://www.w3.org/2000/svg"
   xmlns="http://www.w3.org/2000/svg"
   id="svg19"
   height="89.669998mm"
   width="120.11mm"
   version="1.0">
  <metadata
     id="metadata23">
    <rdf:RDF>
      <cc:Work
         rdf:about="">
        <dc:format>image/svg+xml</dc:format>
        <dc:type
           rdf:resource="http://purl.org/dc/dcmitype/StillImage" />
      </cc:Work>
    </rdf:RDF>
  </metadata>
  <defs
     id="defs3">
    <pattern
       y="0"
       x="0"
       height="6"
       width="6"
       patternUnits="userSpaceOnUse"
       id="EMFhbasepattern" />
  </defs>
  <path
     id="path5"
     d="  M 54.345381,54.345381   L 54.345381,284.51405   L 399.59839,284.51405   L 399.59839,54.345381   L 54.345381,54.345381   z "
     style="fill:#80e0ff;fill-rule:evenodd;fill-opacity:1;stroke:none;" />
  <path
     id="path7"
     d="  M 54.345381,54.345381   L 399.59839,54.345381   L 399.59839,284.51405   L 54.345381,284.51405   z "
     style="fill:none;stroke:#000000;stroke-width:9.5903616px;stroke-linecap:butt;stroke-linejoin:miter;stroke-miterlimit:10;stroke-dasharray:none;stroke-opacity:1;" />
  <path
     id="path9"
     d="  M 168.19096,99.939557   L 173.34578,99.499999   C 173.58554,101.53795 174.14498,103.25622 175.02409,104.5749   C 175.94317,105.89357 177.3018,106.93253 179.17992,107.77169   C 181.05803,108.57088 183.1759,108.97048 185.49357,108.97048   C 187.57148,108.97048 189.40964,108.69076 191.00803,108.0514   C 192.60642,107.45201 193.80522,106.57289 194.56446,105.53393   C 195.36365,104.45502 195.72329,103.25622 195.72329,101.97751   C 195.72329,100.69879 195.36365,99.579918 194.60441,98.620882   C 193.84518,97.621886 192.60642,96.822689 190.88815,96.183332   C 189.80923,95.743774 187.33172,95.064456 183.5755,94.14538   C 179.77931,93.266264 177.14197,92.387147 175.62349,91.58795   C 173.66546,90.548995 172.18695,89.27028 171.22791,87.751806   C 170.26887,86.233332 169.78935,84.515059 169.78935,82.636947   C 169.78935,80.559035 170.34879,78.601003 171.54759,76.80281   C 172.70642,75.004617 174.46466,73.606023 176.70241,72.686947   C 178.98012,71.727911 181.49759,71.288352 184.25482,71.288352   C 187.33172,71.288352 190.00903,71.76787 192.3267,72.766866   C 194.68433,73.725903 196.48253,75.164457 197.72128,77.082529   C 199,79.000601 199.63935,81.158433 199.75923,83.595983   L 194.5245,83.995581   C 194.24478,81.358232 193.28574,79.4002 191.68735,78.081525   C 190.04899,76.76285 187.6514,76.083533 184.49458,76.083533   C 181.17791,76.083533 178.78032,76.682931 177.3018,77.881726   C 175.78333,79.120481 175.02409,80.559035 175.02409,82.277308   C 175.02409,83.755822 175.54357,84.954617 176.62249,85.913653   C 177.66144,86.87269 180.41867,87.871685 184.85421,88.870681   C 189.28976,89.869677 192.3267,90.748794 193.96506,91.468071   C 196.36265,92.586946 198.12088,93.985541 199.27972,95.663854   C 200.39859,97.382127 200.99799,99.340159 200.99799,101.53795   C 200.99799,103.73574 200.35863,105.81365 199.11988,107.73173   C 197.84116,109.68976 196.04297,111.16827 193.68534,112.24719   C 191.32771,113.3261 188.69036,113.88554 185.77329,113.88554   C 182.01707,113.88554 178.9002,113.3261 176.38273,112.24719   C 173.86526,111.16827 171.90723,109.52992 170.46867,107.33213   C 169.03012,105.1743 168.27088,102.69679 168.19096,99.939557   z  M 206.79217,93.106424   C 206.79217,86.273292 208.63032,80.918674 212.26666,77.042569   C 215.94297,73.166465 220.69819,71.248393 226.49237,71.248393   C 230.28855,71.248393 233.7251,72.167469 236.76204,73.965662   C 239.83895,75.803814 242.15662,78.321284 243.75502,81.558031   C 245.35341,84.834738 246.15261,88.511043 246.15261,92.626906   C 246.15261,96.822689 245.31345,100.53895 243.63514,103.85562   C 241.95682,107.13233 239.55923,109.6498 236.48233,111.32811   C 233.36546,113.04638 230.04879,113.88554 226.45241,113.88554   C 222.5763,113.88554 219.13976,112.9265 216.06285,111.04839   C 213.0259,109.21024 210.70823,106.65281 209.1498,103.3761   C 207.5514,100.13936 206.79217,96.74277 206.79217,93.106424   z  M 212.38654,93.186344   C 212.38654,98.141364 213.74518,102.05743 216.38253,104.93454   C 219.05984,107.77169 222.41646,109.21024 226.45241,109.21024   C 230.52831,109.21024 233.9249,107.77169 236.56225,104.89458   C 239.23955,102.01747 240.55823,97.901605 240.55823,92.586946   C 240.55823,89.27028 239.99879,86.313252 238.83996,83.835742   C 237.72108,81.318272 236.04277,79.4002 233.88494,78.001605   C 231.68715,76.642971 229.2496,75.923694 226.53233,75.923694   C 222.65622,75.923694 219.33956,77.282328 216.58233,79.919678   C 213.78514,82.557027 212.38654,86.992569 212.38654,93.186344   z  M 253.46526,113.16626   L 253.46526,71.96767   L 281.27731,71.96767   L 281.27731,76.84277   L 258.93976,76.84277   L 258.93976,89.589959   L 278.24036,89.589959   L 278.24036,94.465059   L 258.93976,94.465059   L 258.93976,113.16626   z "
     style="fill:#000000;fill-rule:evenodd;fill-opacity:1;stroke:none;" />
  <path
     id="path11"
     d="  M 168.19096,99.939557   L 173.34578,99.499999   C 173.58554,101.53795 174.14498,103.25622 175.02409,104.5749   C 175.94317,105.89357 177.3018,106.93253 179.17992,107.77169   C 181.05803,108.57088 183.1759,108.97048 185.49357,108.97048   C 187.57148,108.97048 189.40964,108.69076 191.00803,108.0514   C 192.60642,107.45201 193.80522,106.57289 194.56446,105.53393   C 195.36365,104.45502 195.72329,103.25622 195.72329,101.97751   C 195.72329,100.69879 195.36365,99.579918 194.60441,98.620882   C 193.84518,97.621886 192.60642,96.822689 190.88815,96.183332   C 189.80923,95.743774 187.33172,95.064456 183.5755,94.14538   C 179.77931,93.266264 177.14197,92.387147 175.62349,91.58795   C 173.66546,90.548995 172.18695,89.27028 171.22791,87.751806   C 170.26887,86.233332 169.78935,84.515059 169.78935,82.636947   C 169.78935,80.559035 170.34879,78.601003 171.54759,76.80281   C 172.70642,75.004617 174.46466,73.606023 176.70241,72.686947   C 178.98012,71.727911 181.49759,71.288352 184.25482,71.288352   C 187.33172,71.288352 190.00903,71.76787 192.3267,72.766866   C 194.68433,73.725903 196.48253,75.164457 197.72128,77.082529   C 199,79.000601 199.63935,81.158433 199.75923,83.595983   L 194.5245,83.995581   C 194.24478,81.358232 193.28574,79.4002 191.68735,78.081525   C 190.04899,76.76285 187.6514,76.083533 184.49458,76.083533   C 181.17791,76.083533 178.78032,76.682931 177.3018,77.881726   C 175.78333,79.120481 175.02409,80.559035 175.02409,82.277308   C 175.02409,83.755822 175.54357,84.954617 176.62249,85.913653   C 177.66144,86.87269 180.41867,87.871685 184.85421,88.870681   C 189.28976,89.869677 192.3267,90.748794 193.96506,91.468071   C 196.36265,92.586946 198.12088,93.985541 199.27972,95.663854   C 200.39859,97.382127 200.99799,99.340159 200.99799,101.53795   C 200.99799,103.73574 200.35863,105.81365 199.11988,107.73173   C 197.84116,109.68976 196.04297,111.16827 193.68534,112.24719   C 191.32771,113.3261 188.69036,113.88554 185.77329,113.88554   C 182.01707,113.88554 178.9002,113.3261 176.38273,112.24719   C 173.86526,111.16827 171.90723,109.52992 170.46867,107.33213   C 169.03012,105.1743 168.27088,102.69679 168.19096,99.939557   z  M 206.79217,93.106424   C 206.79217,86.273292 208.63032,80.918674 212.26666,77.042569   C 215.94297,73.166465 220.69819,71.248393 226.49237,71.248393   C 230.28855,71.248393 233.7251,72.167469 236.76204,73.965662   C 239.83895,75.803814 242.15662,78.321284 243.75502,81.558031   C 245.35341,84.834738 246.15261,88.511043 246.15261,92.626906   C 246.15261,96.822689 245.31345,100.53895 243.63514,103.85562   C 241.95682,107.13233 239.55923,109.6498 236.48233,111.32811   C 233.36546,113.04638 230.04879,113.88554 226.45241,113.88554   C 222.5763,113.88554 219.13976,112.9265 216.06285,111.04839   C 213.0259,109.21024 210.70823,106.65281 209.1498,103.3761   C 207.5514,100.13936 206.79217,96.74277 206.79217,93.106424   z  M 212.38654,93.186344   C 212.38654,98.141364 213.74518,102.05743 216.38253,104.93454   C 219.05984,107.77169 222.41646,109.21024 226.45241,109.21024   C 230.52831,109.21024 233.9249,107.77169 236.56225,104.89458   C 239.23955,102.01747 240.55823,97.901605 240.55823,92.586946   C 240.55823,89.27028 239.99879,86.313252 238.83996,83.835742   C 237.72108,81.318272 236.04277,79.4002 233.88494,78.001605   C 231.68715,76.642971 229.2496,75.923694 226.53233,75.923694   C 222.65622,75.923694 219.33956,77.282328 216.58233,79.919678   C 213.78514,82.557027 212.38654,86.992569 212.38654,93.186344   z  M 253.46526,113.16626   L 253.46526,71.96767   L 281.27731,71.96767   L 281.27731,76.84277   L 258.93976,76.84277   L 258.93976,89.589959   L 278.24036,89.589959   L 278.24036,94.465059   L 258.93976,94.465059   L 258.93976,113.16626   z "
     style="fill:none;stroke:#000000;stroke-width:0.95903611px;stroke-linecap:butt;stroke-linejoin:miter;stroke-miterlimit:10;stroke-dasharray:none;stroke-opacity:1;" />
  <path
     id="path13"
     d="  M 226.97188,169.42972   L 174.2249,145.45381   C 121.47791,121.47791 121.47791,217.38152 174.2249,193.40562   L 226.97188,169.42972   L 279.71887,145.45381   C 332.46586,121.47791 332.46586,217.38152 279.71887,193.40562   L 226.97188,169.42972   z "
     style="fill:#000000;fill-rule:evenodd;fill-opacity:1;stroke:none;" />
  <path
     id="path15"
     d="  M 207.71124,259.89879   L 223.53534,218.7002   L 229.40943,218.7002   L 246.27249,259.89879   L 240.07871,259.89879   L 235.24357,247.43132   L 218.02088,247.43132   L 213.50542,259.89879   z  M 219.61927,242.99578   L 233.56526,242.99578   L 229.28955,231.56727   C 227.97088,228.13072 226.97188,225.25361 226.37249,223.05582   C 225.81305,225.69317 225.09377,228.29056 224.13474,230.88795   z "
     style="fill:#000000;fill-rule:evenodd;fill-opacity:1;stroke:none;" />
  <path
     id="path17"
     d="  M 207.71124,259.89879   L 223.53534,218.7002   L 229.40943,218.7002   L 246.27249,259.89879   L 240.07871,259.89879   L 235.24357,247.43132   L 218.02088,247.43132   L 213.50542,259.89879   z  M 219.61927,242.99578   L 233.56526,242.99578   L 229.28955,231.56727   C 227.97088,228.13072 226.97188,225.25361 226.37249,223.05582   C 225.81305,225.69317 225.09377,228.29056 224.13474,230.88795   z "
     style="fill:none;stroke:#000000;stroke-width:0.95903611px;stroke-linecap:butt;stroke-linejoin:miter;stroke-miterlimit:10;stroke-dasharray:none;stroke-opacity:1;" />
</svg>
