<?xml version="1.0" encoding="UTF-8" standalone="no"?>
<svg
   xmlns:dc="http://purl.org/dc/elements/1.1/"
   xmlns:cc="http://creativecommons.org/ns#"
   xmlns:rdf="http://www.w3.org/1999/02/22-rdf-syntax-ns#"
   xmlns:svg="http://www.w3.org/2000/svg"
   xmlns="http://www.w3.org/2000/svg"
   id="svg19"
   height="130.27mm"
   width="130.27mm"
   version="1.0">
  <metadata
     id="metadata23">
    <rdf:RDF>
      <cc:Work
         rdf:about="">
        <dc:format>image/svg+xml</dc:format>
        <dc:type
           rdf:resource="http://purl.org/dc/dcmitype/StillImage" />
      </cc:Work>
    </rdf:RDF>
  </metadata>
  <defs
     id="defs3">
    <pattern
       y="0"
       x="0"
       height="6"
       width="6"
       patternUnits="userSpaceOnUse"
       id="EMFhbasepattern" />
  </defs>
  <path
     id="path5"
     d="  M 164.63454,327.67068   C 164.63454,437.95983 327.67068,437.95983 327.67068,327.67068   C 437.95983,327.67068 437.95983,164.63454 327.67068,164.63454   C 327.67068,54.345381 164.63454,54.345381 164.63454,164.63454   C 54.345381,164.63454 54.345381,327.67068 164.63454,327.67068   z "
     style="fill:#ffff80;fill-rule:evenodd;fill-opacity:1;stroke:none;" />
  <path
     id="path7"
     d="  M 164.63454,327.67068   C 164.63454,437.95983 327.67068,437.95983 327.67068,327.67068   C 437.95983,327.67068 437.95983,164.63454 327.67068,164.63454   C 327.67068,54.345381 164.63454,54.345381 164.63454,164.63454   C 54.345381,164.63454 54.345381,327.67068 164.63454,327.67068  "
     style="fill:none;stroke:#000000;stroke-width:9.5903616px;stroke-linecap:butt;stroke-linejoin:miter;stroke-miterlimit:10;stroke-dasharray:none;stroke-opacity:1;" />
  <path
     id="path9"
     d="  M 187.37168,176.66245   L 192.5265,176.22289   C 192.76626,178.26084 193.3257,179.97911 194.20482,181.29779   C 195.12389,182.61646 196.48253,183.65542 198.36064,184.49458   C 200.23875,185.29377 202.35662,185.69337 204.67429,185.69337   C 206.75221,185.69337 208.59036,185.41365 210.18875,184.77429   C 211.78715,184.1749 212.98594,183.29578 213.74518,182.25682   C 214.54437,181.17791 214.90401,179.97911 214.90401,178.7004   C 214.90401,177.42168 214.54437,176.30281 213.78514,175.34377   C 213.0259,174.34478 211.78715,173.54558 210.06887,172.90622   C 208.98996,172.46666 206.51245,171.78735 202.75622,170.86827   C 198.96004,169.98915 196.32269,169.11004 194.80421,168.31084   C 192.84618,167.27189 191.36767,165.99317 190.40863,164.4747   C 189.4496,162.95622 188.97008,161.23795 188.97008,159.35984   C 188.97008,157.28193 189.52952,155.32389 190.72831,153.5257   C 191.88715,151.72751 193.64538,150.32891 195.88313,149.40984   C 198.16084,148.4508 200.67831,148.01124 203.43554,148.01124   C 206.51245,148.01124 209.18976,148.49076 211.50743,149.48976   C 213.86506,150.44879 215.66325,151.88735 216.902,153.80542   C 218.18072,155.72349 218.82008,157.88132 218.93996,160.31887   L 213.70522,160.71847   C 213.4255,158.08112 212.46646,156.12309 210.86807,154.80442   C 209.22972,153.48574 206.83213,152.80642 203.6753,152.80642   C 200.35863,152.80642 197.96104,153.40582 196.48253,154.60462   C 194.96405,155.84337 194.20482,157.28193 194.20482,159.0002   C 194.20482,160.47871 194.72429,161.67751 195.80321,162.63654   C 196.84217,163.59558 199.59939,164.59458 204.03494,165.59357   C 208.47048,166.59257 211.50743,167.47168 213.14578,168.19096   C 215.54337,169.30984 217.3016,170.70843 218.46044,172.38674   C 219.57931,174.10502 220.17871,176.06305 220.17871,178.26084   C 220.17871,180.45863 219.53935,182.53654 218.3006,184.45462   C 217.02188,186.41265 215.22369,187.89116 212.86606,188.97008   C 210.50843,190.04899 207.87108,190.60843 204.95401,190.60843   C 201.19779,190.60843 198.08092,190.04899 195.56345,188.97008   C 193.04598,187.89116 191.08795,186.25281 189.64939,184.05502   C 188.21084,181.89719 187.4516,179.41968 187.37168,176.66245   z  M 225.97289,169.82931   C 225.97289,162.99618 227.81104,157.64156 231.44739,153.76546   C 235.12369,149.88936 239.87891,147.97128 245.67309,147.97128   C 249.46927,147.97128 252.90582,148.89036 255.94277,150.68855   C 259.01967,152.5267 261.33735,155.04417 262.93574,158.28092   C 264.53413,161.55763 265.33333,165.23393 265.33333,169.3498   C 265.33333,173.54558 264.49417,177.26184 262.81586,180.57851   C 261.13755,183.85522 258.73996,186.37269 255.66305,188.051   C 252.54618,189.76927 249.22951,190.60843 245.63313,190.60843   C 241.75702,190.60843 238.32048,189.64939 235.24357,187.77128   C 232.20662,185.93313 229.88895,183.3757 228.33052,180.09899   C 226.73213,176.86225 225.97289,173.46566 225.97289,169.82931   z  M 231.56727,169.90923   C 231.56727,174.86425 232.9259,178.78032 235.56325,181.65743   C 238.24056,184.49458 241.59719,185.93313 245.63313,185.93313   C 249.70903,185.93313 253.10562,184.49458 255.74297,181.61747   C 258.42028,178.74036 259.73895,174.6245 259.73895,169.30984   C 259.73895,165.99317 259.17951,163.03614 258.02068,160.55863   C 256.9018,158.04116 255.22349,156.12309 253.06566,154.7245   C 250.86787,153.36586 248.43032,152.64658 245.71305,152.64658   C 241.83694,152.64658 238.52028,154.00522 235.76305,156.64257   C 232.96586,159.27992 231.56727,163.71546 231.56727,169.90923   z  M 272.64598,189.88915   L 272.64598,148.69056   L 300.45803,148.69056   L 300.45803,153.56566   L 278.12048,153.56566   L 278.12048,166.31285   L 297.42108,166.31285   L 297.42108,171.18795   L 278.12048,171.18795   L 278.12048,189.88915   z "
     style="fill:#000000;fill-rule:evenodd;fill-opacity:1;stroke:none;" />
  <path
     id="path11"
     d="  M 187.37168,176.66245   L 192.5265,176.22289   C 192.76626,178.26084 193.3257,179.97911 194.20482,181.29779   C 195.12389,182.61646 196.48253,183.65542 198.36064,184.49458   C 200.23875,185.29377 202.35662,185.69337 204.67429,185.69337   C 206.75221,185.69337 208.59036,185.41365 210.18875,184.77429   C 211.78715,184.1749 212.98594,183.29578 213.74518,182.25682   C 214.54437,181.17791 214.90401,179.97911 214.90401,178.7004   C 214.90401,177.42168 214.54437,176.30281 213.78514,175.34377   C 213.0259,174.34478 211.78715,173.54558 210.06887,172.90622   C 208.98996,172.46666 206.51245,171.78735 202.75622,170.86827   C 198.96004,169.98915 196.32269,169.11004 194.80421,168.31084   C 192.84618,167.27189 191.36767,165.99317 190.40863,164.4747   C 189.4496,162.95622 188.97008,161.23795 188.97008,159.35984   C 188.97008,157.28193 189.52952,155.32389 190.72831,153.5257   C 191.88715,151.72751 193.64538,150.32891 195.88313,149.40984   C 198.16084,148.4508 200.67831,148.01124 203.43554,148.01124   C 206.51245,148.01124 209.18976,148.49076 211.50743,149.48976   C 213.86506,150.44879 215.66325,151.88735 216.902,153.80542   C 218.18072,155.72349 218.82008,157.88132 218.93996,160.31887   L 213.70522,160.71847   C 213.4255,158.08112 212.46646,156.12309 210.86807,154.80442   C 209.22972,153.48574 206.83213,152.80642 203.6753,152.80642   C 200.35863,152.80642 197.96104,153.40582 196.48253,154.60462   C 194.96405,155.84337 194.20482,157.28193 194.20482,159.0002   C 194.20482,160.47871 194.72429,161.67751 195.80321,162.63654   C 196.84217,163.59558 199.59939,164.59458 204.03494,165.59357   C 208.47048,166.59257 211.50743,167.47168 213.14578,168.19096   C 215.54337,169.30984 217.3016,170.70843 218.46044,172.38674   C 219.57931,174.10502 220.17871,176.06305 220.17871,178.26084   C 220.17871,180.45863 219.53935,182.53654 218.3006,184.45462   C 217.02188,186.41265 215.22369,187.89116 212.86606,188.97008   C 210.50843,190.04899 207.87108,190.60843 204.95401,190.60843   C 201.19779,190.60843 198.08092,190.04899 195.56345,188.97008   C 193.04598,187.89116 191.08795,186.25281 189.64939,184.05502   C 188.21084,181.89719 187.4516,179.41968 187.37168,176.66245   z  M 225.97289,169.82931   C 225.97289,162.99618 227.81104,157.64156 231.44739,153.76546   C 235.12369,149.88936 239.87891,147.97128 245.67309,147.97128   C 249.46927,147.97128 252.90582,148.89036 255.94277,150.68855   C 259.01967,152.5267 261.33735,155.04417 262.93574,158.28092   C 264.53413,161.55763 265.33333,165.23393 265.33333,169.3498   C 265.33333,173.54558 264.49417,177.26184 262.81586,180.57851   C 261.13755,183.85522 258.73996,186.37269 255.66305,188.051   C 252.54618,189.76927 249.22951,190.60843 245.63313,190.60843   C 241.75702,190.60843 238.32048,189.64939 235.24357,187.77128   C 232.20662,185.93313 229.88895,183.3757 228.33052,180.09899   C 226.73213,176.86225 225.97289,173.46566 225.97289,169.82931   z  M 231.56727,169.90923   C 231.56727,174.86425 232.9259,178.78032 235.56325,181.65743   C 238.24056,184.49458 241.59719,185.93313 245.63313,185.93313   C 249.70903,185.93313 253.10562,184.49458 255.74297,181.61747   C 258.42028,178.74036 259.73895,174.6245 259.73895,169.30984   C 259.73895,165.99317 259.17951,163.03614 258.02068,160.55863   C 256.9018,158.04116 255.22349,156.12309 253.06566,154.7245   C 250.86787,153.36586 248.43032,152.64658 245.71305,152.64658   C 241.83694,152.64658 238.52028,154.00522 235.76305,156.64257   C 232.96586,159.27992 231.56727,163.71546 231.56727,169.90923   z  M 272.64598,189.88915   L 272.64598,148.69056   L 300.45803,148.69056   L 300.45803,153.56566   L 278.12048,153.56566   L 278.12048,166.31285   L 297.42108,166.31285   L 297.42108,171.18795   L 278.12048,171.18795   L 278.12048,189.88915   z "
     style="fill:none;stroke:#000000;stroke-width:0.95903611px;stroke-linecap:butt;stroke-linejoin:miter;stroke-miterlimit:10;stroke-dasharray:none;stroke-opacity:1;" />
  <path
     id="path13"
     d="  M 246.15261,246.15261   L 246.15261,246.15261   L 159.83936,198.2008   L 159.83936,294.10441   L 246.15261,246.15261   L 332.46586,198.2008   L 332.46586,294.10441   L 246.15261,246.15261   z "
     style="fill:#000000;fill-rule:evenodd;fill-opacity:1;stroke:none;" />
  <path
     id="path15"
     d="  M 209.18976,322.35602   L 213.30562,323.39498   C 212.4265,326.7516 210.90803,329.30903 208.67028,331.06726   C 206.43253,332.8255 203.71526,333.70461 200.51847,333.70461   C 197.16184,333.70461 194.48454,333.0253 192.36666,331.66666   C 190.28875,330.34799 188.69036,328.35 187.61144,325.79257   C 186.53253,323.23514 185.97309,320.47791 185.97309,317.52088   C 185.97309,314.28413 186.61245,311.48694 187.81124,309.08935   C 189.05,306.69176 190.80823,304.89357 193.08594,303.65481   C 195.32369,302.3761 197.84116,301.7767 200.55843,301.7767   C 203.6753,301.7767 206.27269,302.5759 208.3506,304.13433   C 210.46847,305.69277 211.94698,307.93052 212.78614,310.76767   L 208.7502,311.7267   C 208.03092,309.48895 206.99196,307.8506 205.63333,306.81164   C 204.2747,305.77269 202.55642,305.25321 200.47851,305.25321   C 198.12088,305.25321 196.12289,305.85261 194.5245,306.97148   C 192.9261,308.13032 191.80723,309.64879 191.16787,311.56686   C 190.52851,313.48494 190.20883,315.44297 190.20883,317.48092   C 190.20883,320.11827 190.56847,322.39598 191.32771,324.39397   C 192.1269,326.352 193.28574,327.79056 194.92409,328.74959   C 196.52249,329.74859 198.28072,330.22811 200.15883,330.22811   C 202.43654,330.22811 204.39458,329.54879 205.99297,328.23012   C 207.5514,326.91144 208.63032,324.95341 209.18976,322.35602   z  M 216.94196,323.2751   L 220.77811,322.91546   C 220.97791,324.47389 221.41747,325.75261 222.05682,326.7516   C 222.73614,327.71064 223.7751,328.50983 225.17369,329.14919   C 226.57229,329.74859 228.17068,330.06827 229.92891,330.06827   C 231.48735,330.06827 232.84598,329.82851 234.04478,329.34899   C 235.24357,328.90943 236.12269,328.27008 236.72208,327.43092   C 237.28152,326.63172 237.6012,325.75261 237.6012,324.79357   C 237.6012,323.83453 237.32148,322.99538 236.76204,322.2761   C 236.20261,321.55682 235.24357,320.91747 233.96486,320.43795   C 233.1257,320.11827 231.28755,319.63875 228.4504,318.91947   C 225.61325,318.24016 223.65522,317.6008 222.49638,317.0014   C 221.01787,316.24216 219.93895,315.28313 219.21968,314.12429   C 218.5004,313.00542 218.1008,311.68674 218.1008,310.28815   C 218.1008,308.72971 218.58032,307.2512 219.45943,305.93253   C 220.33855,304.57389 221.61727,303.53494 223.33554,302.81566   C 225.01385,302.13634 226.93192,301.7767 229.00984,301.7767   C 231.28755,301.7767 233.28554,302.13634 235.04377,302.89558   C 236.802,303.61486 238.16064,304.69377 239.07972,306.13232   C 240.03875,307.57088 240.51827,309.20923 240.59819,311.00743   L 236.68213,311.28714   C 236.48233,309.32911 235.76305,307.89056 234.56425,306.89156   C 233.3255,305.89257 231.52731,305.37309 229.16968,305.37309   C 226.69217,305.37309 224.89397,305.81265 223.7751,306.73172   C 222.61626,307.6508 222.05682,308.72971 222.05682,310.00843   C 222.05682,311.1273 222.45642,312.04638 223.25562,312.76566   C 224.05482,313.48494 226.09277,314.20421 229.40943,314.96345   C 232.76606,315.72269 235.04377,316.36204 236.24257,316.92148   C 238.08072,317.76064 239.39939,318.79959 240.23855,320.07831   C 241.11767,321.35702 241.51727,322.79558 241.51727,324.47389   C 241.51727,326.11224 241.07771,327.67068 240.11867,329.10923   C 239.15964,330.58775 237.84096,331.70662 236.04277,332.50582   C 234.28453,333.30502 232.3265,333.70461 230.12871,333.70461   C 227.33152,333.70461 224.97389,333.30502 223.09578,332.50582   C 221.17771,331.66666 219.69919,330.46787 218.62028,328.82951   C 217.54136,327.19116 216.98192,325.31305 216.94196,323.2751   z  M 243.71506,333.18514   L 255.58313,302.29618   L 259.97871,302.29618   L 272.64598,333.18514   L 267.97068,333.18514   L 264.37429,323.83453   L 251.46727,323.83453   L 248.07068,333.18514   z  M 252.6261,320.51787   L 263.09558,320.51787   L 259.89879,311.96646   C 258.8998,309.36907 258.18052,307.21124 257.701,305.53293   C 257.3014,307.53092 256.74196,309.48895 256.02269,311.44698   z  M 275.96265,333.18514   L 275.96265,302.29618   L 289.66887,302.29618   C 292.4261,302.29618 294.50401,302.5759 295.94257,303.13534   C 297.38112,303.69477 298.5,304.65381 299.37911,306.09237   C 300.21827,307.49096 300.65783,309.00943 300.65783,310.72771   C 300.65783,312.9255 299.93855,314.76365 298.53996,316.28212   C 297.1014,317.76064 294.90361,318.71967 291.94658,319.11927   C 293.0255,319.63875 293.86465,320.15823 294.42409,320.67771   C 295.62289,321.75662 296.74176,323.15522 297.82068,324.79357   L 303.1753,333.18514   L 298.06044,333.18514   L 293.94457,326.7516   C 292.78574,324.91345 291.78674,323.47489 291.02751,322.51586   C 290.22831,321.51686 289.54899,320.83755 288.94959,320.43795   C 288.31024,320.03835 287.71084,319.75863 287.07148,319.63875   C 286.59196,319.51887 285.83273,319.47891 284.79377,319.47891   L 280.03855,319.47891   L 280.03855,333.18514   z  M 280.03855,315.92249   L 288.82971,315.92249   C 290.70783,315.92249 292.18634,315.72269 293.2253,315.36305   C 294.26425,314.96345 295.06345,314.36405 295.62289,313.48494   C 296.18233,312.64578 296.46204,311.7267 296.46204,310.72771   C 296.46204,309.24919 295.90261,308.0504 294.86365,307.13132   C 293.78473,306.17228 292.10642,305.73273 289.82871,305.73273   L 280.03855,305.73273   z "
     style="fill:#000000;fill-rule:evenodd;fill-opacity:1;stroke:none;" />
  <path
     id="path17"
     d="  M 209.18976,322.35602   L 213.30562,323.39498   C 212.4265,326.7516 210.90803,329.30903 208.67028,331.06726   C 206.43253,332.8255 203.71526,333.70461 200.51847,333.70461   C 197.16184,333.70461 194.48454,333.0253 192.36666,331.66666   C 190.28875,330.34799 188.69036,328.35 187.61144,325.79257   C 186.53253,323.23514 185.97309,320.47791 185.97309,317.52088   C 185.97309,314.28413 186.61245,311.48694 187.81124,309.08935   C 189.05,306.69176 190.80823,304.89357 193.08594,303.65481   C 195.32369,302.3761 197.84116,301.7767 200.55843,301.7767   C 203.6753,301.7767 206.27269,302.5759 208.3506,304.13433   C 210.46847,305.69277 211.94698,307.93052 212.78614,310.76767   L 208.7502,311.7267   C 208.03092,309.48895 206.99196,307.8506 205.63333,306.81164   C 204.2747,305.77269 202.55642,305.25321 200.47851,305.25321   C 198.12088,305.25321 196.12289,305.85261 194.5245,306.97148   C 192.9261,308.13032 191.80723,309.64879 191.16787,311.56686   C 190.52851,313.48494 190.20883,315.44297 190.20883,317.48092   C 190.20883,320.11827 190.56847,322.39598 191.32771,324.39397   C 192.1269,326.352 193.28574,327.79056 194.92409,328.74959   C 196.52249,329.74859 198.28072,330.22811 200.15883,330.22811   C 202.43654,330.22811 204.39458,329.54879 205.99297,328.23012   C 207.5514,326.91144 208.63032,324.95341 209.18976,322.35602   z  M 216.94196,323.2751   L 220.77811,322.91546   C 220.97791,324.47389 221.41747,325.75261 222.05682,326.7516   C 222.73614,327.71064 223.7751,328.50983 225.17369,329.14919   C 226.57229,329.74859 228.17068,330.06827 229.92891,330.06827   C 231.48735,330.06827 232.84598,329.82851 234.04478,329.34899   C 235.24357,328.90943 236.12269,328.27008 236.72208,327.43092   C 237.28152,326.63172 237.6012,325.75261 237.6012,324.79357   C 237.6012,323.83453 237.32148,322.99538 236.76204,322.2761   C 236.20261,321.55682 235.24357,320.91747 233.96486,320.43795   C 233.1257,320.11827 231.28755,319.63875 228.4504,318.91947   C 225.61325,318.24016 223.65522,317.6008 222.49638,317.0014   C 221.01787,316.24216 219.93895,315.28313 219.21968,314.12429   C 218.5004,313.00542 218.1008,311.68674 218.1008,310.28815   C 218.1008,308.72971 218.58032,307.2512 219.45943,305.93253   C 220.33855,304.57389 221.61727,303.53494 223.33554,302.81566   C 225.01385,302.13634 226.93192,301.7767 229.00984,301.7767   C 231.28755,301.7767 233.28554,302.13634 235.04377,302.89558   C 236.802,303.61486 238.16064,304.69377 239.07972,306.13232   C 240.03875,307.57088 240.51827,309.20923 240.59819,311.00743   L 236.68213,311.28714   C 236.48233,309.32911 235.76305,307.89056 234.56425,306.89156   C 233.3255,305.89257 231.52731,305.37309 229.16968,305.37309   C 226.69217,305.37309 224.89397,305.81265 223.7751,306.73172   C 222.61626,307.6508 222.05682,308.72971 222.05682,310.00843   C 222.05682,311.1273 222.45642,312.04638 223.25562,312.76566   C 224.05482,313.48494 226.09277,314.20421 229.40943,314.96345   C 232.76606,315.72269 235.04377,316.36204 236.24257,316.92148   C 238.08072,317.76064 239.39939,318.79959 240.23855,320.07831   C 241.11767,321.35702 241.51727,322.79558 241.51727,324.47389   C 241.51727,326.11224 241.07771,327.67068 240.11867,329.10923   C 239.15964,330.58775 237.84096,331.70662 236.04277,332.50582   C 234.28453,333.30502 232.3265,333.70461 230.12871,333.70461   C 227.33152,333.70461 224.97389,333.30502 223.09578,332.50582   C 221.17771,331.66666 219.69919,330.46787 218.62028,328.82951   C 217.54136,327.19116 216.98192,325.31305 216.94196,323.2751   z  M 243.71506,333.18514   L 255.58313,302.29618   L 259.97871,302.29618   L 272.64598,333.18514   L 267.97068,333.18514   L 264.37429,323.83453   L 251.46727,323.83453   L 248.07068,333.18514   z  M 252.6261,320.51787   L 263.09558,320.51787   L 259.89879,311.96646   C 258.8998,309.36907 258.18052,307.21124 257.701,305.53293   C 257.3014,307.53092 256.74196,309.48895 256.02269,311.44698   z  M 275.96265,333.18514   L 275.96265,302.29618   L 289.66887,302.29618   C 292.4261,302.29618 294.50401,302.5759 295.94257,303.13534   C 297.38112,303.69477 298.5,304.65381 299.37911,306.09237   C 300.21827,307.49096 300.65783,309.00943 300.65783,310.72771   C 300.65783,312.9255 299.93855,314.76365 298.53996,316.28212   C 297.1014,317.76064 294.90361,318.71967 291.94658,319.11927   C 293.0255,319.63875 293.86465,320.15823 294.42409,320.67771   C 295.62289,321.75662 296.74176,323.15522 297.82068,324.79357   L 303.1753,333.18514   L 298.06044,333.18514   L 293.94457,326.7516   C 292.78574,324.91345 291.78674,323.47489 291.02751,322.51586   C 290.22831,321.51686 289.54899,320.83755 288.94959,320.43795   C 288.31024,320.03835 287.71084,319.75863 287.07148,319.63875   C 286.59196,319.51887 285.83273,319.47891 284.79377,319.47891   L 280.03855,319.47891   L 280.03855,333.18514   z  M 280.03855,315.92249   L 288.82971,315.92249   C 290.70783,315.92249 292.18634,315.72269 293.2253,315.36305   C 294.26425,314.96345 295.06345,314.36405 295.62289,313.48494   C 296.18233,312.64578 296.46204,311.7267 296.46204,310.72771   C 296.46204,309.24919 295.90261,308.0504 294.86365,307.13132   C 293.78473,306.17228 292.10642,305.73273 289.82871,305.73273   L 280.03855,305.73273   z "
     style="fill:none;stroke:#000000;stroke-width:0.95903611px;stroke-linecap:butt;stroke-linejoin:miter;stroke-miterlimit:10;stroke-dasharray:none;stroke-opacity:1;" />
</svg>
