<?xml version="1.0" encoding="UTF-8" standalone="no"?>
<svg
   xmlns:dc="http://purl.org/dc/elements/1.1/"
   xmlns:cc="http://creativecommons.org/ns#"
   xmlns:rdf="http://www.w3.org/1999/02/22-rdf-syntax-ns#"
   xmlns:svg="http://www.w3.org/2000/svg"
   xmlns="http://www.w3.org/2000/svg"
   id="svg19"
   height="116.73mm"
   width="116.73mm"
   version="1.0">
  <metadata
     id="metadata23">
    <rdf:RDF>
      <cc:Work
         rdf:about="">
        <dc:format>image/svg+xml</dc:format>
        <dc:type
           rdf:resource="http://purl.org/dc/dcmitype/StillImage" />
      </cc:Work>
    </rdf:RDF>
  </metadata>
  <defs
     id="defs3">
    <pattern
       y="0"
       x="0"
       height="6"
       width="6"
       patternUnits="userSpaceOnUse"
       id="EMFhbasepattern" />
  </defs>
  <path
     id="path5"
     d="  M 220.57831,386.49156   L 220.57831,386.49156   L 386.49156,220.57831   L 220.57831,54.665059   L 54.665059,220.57831   L 220.57831,386.49156   z "
     style="fill:#ff8080;fill-rule:evenodd;fill-opacity:1;stroke:none;" />
  <path
     id="path7"
     d="  M 220.57831,386.49156   L 220.57831,386.49156   L 386.49156,220.57831   L 220.57831,54.665059   L 54.665059,220.57831   L 220.57831,386.49156  "
     style="fill:none;stroke:#000000;stroke-width:9.5903616px;stroke-linecap:butt;stroke-linejoin:miter;stroke-miterlimit:10;stroke-dasharray:none;stroke-opacity:1;" />
  <path
     id="path9"
     d="  M 161.79739,151.08815   L 166.95221,150.64859   C 167.19197,152.68654 167.7514,154.40482 168.63052,155.72349   C 169.5496,157.04217 170.90823,158.08112 172.78634,158.92028   C 174.66446,159.71948 176.78233,160.11907 179.1,160.11907   C 181.17791,160.11907 183.01606,159.83936 184.61446,159.2   C 186.21285,158.6006 187.41164,157.72148 188.17088,156.68253   C 188.97008,155.60361 189.32972,154.40482 189.32972,153.1261   C 189.32972,151.84739 188.97008,150.72851 188.21084,149.76948   C 187.4516,148.77048 186.21285,147.97128 184.49458,147.33193   C 183.41566,146.89237 180.93815,146.21305 177.18193,145.29397   C 173.38574,144.41486 170.74839,143.53574 169.22992,142.73654   C 167.27189,141.69759 165.79337,140.41887 164.83433,138.9004   C 163.8753,137.38193 163.39578,135.66365 163.39578,133.78554   C 163.39578,131.70763 163.95522,129.7496 165.15401,127.9514   C 166.31285,126.15321 168.07108,124.75462 170.30883,123.83554   C 172.58654,122.8765 175.10401,122.43695 177.86124,122.43695   C 180.93815,122.43695 183.61546,122.91646 185.93313,123.91546   C 188.29076,124.8745 190.08895,126.31305 191.32771,128.23112   C 192.60642,130.14919 193.24578,132.30703 193.36566,134.74458   L 188.13092,135.14417   C 187.8512,132.50683 186.89217,130.54879 185.29377,129.23012   C 183.65542,127.91144 181.25783,127.23213 178.101,127.23213   C 174.78433,127.23213 172.38674,127.83152 170.90823,129.03032   C 169.38976,130.26907 168.63052,131.70763 168.63052,133.4259   C 168.63052,134.90442 169.15,136.10321 170.22891,137.06225   C 171.26787,138.02128 174.0251,139.02028 178.46064,140.01928   C 182.89618,141.01827 185.93313,141.89739 187.57148,142.61666   C 189.96907,143.73554 191.72731,145.13413 192.88614,146.81245   C 194.00502,148.53072 194.60441,150.48875 194.60441,152.68654   C 194.60441,154.88434 193.96506,156.96225 192.7263,158.88032   C 191.44759,160.83835 189.64939,162.31687 187.29176,163.39578   C 184.93413,164.4747 182.29678,165.03413 179.37972,165.03413   C 175.62349,165.03413 172.50662,164.4747 169.98915,163.39578   C 167.47168,162.31687 165.51365,160.67851 164.0751,158.48072   C 162.63654,156.32289 161.87731,153.84538 161.79739,151.08815   z  M 200.39859,144.25502   C 200.39859,137.42189 202.23674,132.06727 205.87309,128.19116   C 209.54939,124.31506 214.30462,122.39699 220.09879,122.39699   C 223.89498,122.39699 227.33152,123.31606 230.36847,125.11426   C 233.44538,126.95241 235.76305,129.46988 237.36144,132.70662   C 238.95984,135.98333 239.75903,139.65964 239.75903,143.7755   C 239.75903,147.97128 238.91988,151.68755 237.24156,155.00421   C 235.56325,158.28092 233.16566,160.79839 230.08875,162.4767   C 226.97188,164.19498 223.65522,165.03413 220.05883,165.03413   C 216.18273,165.03413 212.74618,164.0751 209.66927,162.19699   C 206.63233,160.35883 204.31466,157.8014 202.75622,154.5247   C 201.15783,151.28795 200.39859,147.89136 200.39859,144.25502   z  M 205.99297,144.33494   C 205.99297,149.28996 207.3516,153.20602 209.98895,156.08313   C 212.66626,158.92028 216.02289,160.35883 220.05883,160.35883   C 224.13474,160.35883 227.53132,158.92028 230.16867,156.04317   C 232.84598,153.16606 234.16466,149.0502 234.16466,143.73554   C 234.16466,140.41887 233.60522,137.46185 232.44638,134.98434   C 231.32751,132.46687 229.64919,130.54879 227.49136,129.1502   C 225.29357,127.79156 222.85602,127.07229 220.13875,127.07229   C 216.26265,127.07229 212.94598,128.43092 210.18875,131.06827   C 207.39156,133.70562 205.99297,138.14116 205.99297,144.33494   z  M 247.07168,164.31486   L 247.07168,123.11626   L 274.88373,123.11626   L 274.88373,127.99136   L 252.54618,127.99136   L 252.54618,140.73855   L 271.84678,140.73855   L 271.84678,145.61365   L 252.54618,145.61365   L 252.54618,164.31486   z "
     style="fill:#000000;fill-rule:evenodd;fill-opacity:1;stroke:none;" />
  <path
     id="path11"
     d="  M 161.79739,151.08815   L 166.95221,150.64859   C 167.19197,152.68654 167.7514,154.40482 168.63052,155.72349   C 169.5496,157.04217 170.90823,158.08112 172.78634,158.92028   C 174.66446,159.71948 176.78233,160.11907 179.1,160.11907   C 181.17791,160.11907 183.01606,159.83936 184.61446,159.2   C 186.21285,158.6006 187.41164,157.72148 188.17088,156.68253   C 188.97008,155.60361 189.32972,154.40482 189.32972,153.1261   C 189.32972,151.84739 188.97008,150.72851 188.21084,149.76948   C 187.4516,148.77048 186.21285,147.97128 184.49458,147.33193   C 183.41566,146.89237 180.93815,146.21305 177.18193,145.29397   C 173.38574,144.41486 170.74839,143.53574 169.22992,142.73654   C 167.27189,141.69759 165.79337,140.41887 164.83433,138.9004   C 163.8753,137.38193 163.39578,135.66365 163.39578,133.78554   C 163.39578,131.70763 163.95522,129.7496 165.15401,127.9514   C 166.31285,126.15321 168.07108,124.75462 170.30883,123.83554   C 172.58654,122.8765 175.10401,122.43695 177.86124,122.43695   C 180.93815,122.43695 183.61546,122.91646 185.93313,123.91546   C 188.29076,124.8745 190.08895,126.31305 191.32771,128.23112   C 192.60642,130.14919 193.24578,132.30703 193.36566,134.74458   L 188.13092,135.14417   C 187.8512,132.50683 186.89217,130.54879 185.29377,129.23012   C 183.65542,127.91144 181.25783,127.23213 178.101,127.23213   C 174.78433,127.23213 172.38674,127.83152 170.90823,129.03032   C 169.38976,130.26907 168.63052,131.70763 168.63052,133.4259   C 168.63052,134.90442 169.15,136.10321 170.22891,137.06225   C 171.26787,138.02128 174.0251,139.02028 178.46064,140.01928   C 182.89618,141.01827 185.93313,141.89739 187.57148,142.61666   C 189.96907,143.73554 191.72731,145.13413 192.88614,146.81245   C 194.00502,148.53072 194.60441,150.48875 194.60441,152.68654   C 194.60441,154.88434 193.96506,156.96225 192.7263,158.88032   C 191.44759,160.83835 189.64939,162.31687 187.29176,163.39578   C 184.93413,164.4747 182.29678,165.03413 179.37972,165.03413   C 175.62349,165.03413 172.50662,164.4747 169.98915,163.39578   C 167.47168,162.31687 165.51365,160.67851 164.0751,158.48072   C 162.63654,156.32289 161.87731,153.84538 161.79739,151.08815   z  M 200.39859,144.25502   C 200.39859,137.42189 202.23674,132.06727 205.87309,128.19116   C 209.54939,124.31506 214.30462,122.39699 220.09879,122.39699   C 223.89498,122.39699 227.33152,123.31606 230.36847,125.11426   C 233.44538,126.95241 235.76305,129.46988 237.36144,132.70662   C 238.95984,135.98333 239.75903,139.65964 239.75903,143.7755   C 239.75903,147.97128 238.91988,151.68755 237.24156,155.00421   C 235.56325,158.28092 233.16566,160.79839 230.08875,162.4767   C 226.97188,164.19498 223.65522,165.03413 220.05883,165.03413   C 216.18273,165.03413 212.74618,164.0751 209.66927,162.19699   C 206.63233,160.35883 204.31466,157.8014 202.75622,154.5247   C 201.15783,151.28795 200.39859,147.89136 200.39859,144.25502   z  M 205.99297,144.33494   C 205.99297,149.28996 207.3516,153.20602 209.98895,156.08313   C 212.66626,158.92028 216.02289,160.35883 220.05883,160.35883   C 224.13474,160.35883 227.53132,158.92028 230.16867,156.04317   C 232.84598,153.16606 234.16466,149.0502 234.16466,143.73554   C 234.16466,140.41887 233.60522,137.46185 232.44638,134.98434   C 231.32751,132.46687 229.64919,130.54879 227.49136,129.1502   C 225.29357,127.79156 222.85602,127.07229 220.13875,127.07229   C 216.26265,127.07229 212.94598,128.43092 210.18875,131.06827   C 207.39156,133.70562 205.99297,138.14116 205.99297,144.33494   z  M 247.07168,164.31486   L 247.07168,123.11626   L 274.88373,123.11626   L 274.88373,127.99136   L 252.54618,127.99136   L 252.54618,140.73855   L 271.84678,140.73855   L 271.84678,145.61365   L 252.54618,145.61365   L 252.54618,164.31486   z "
     style="fill:none;stroke:#000000;stroke-width:0.95903611px;stroke-linecap:butt;stroke-linejoin:miter;stroke-miterlimit:10;stroke-dasharray:none;stroke-opacity:1;" />
  <path
     id="path13"
     d="  M 220.57831,220.57831   L 220.57831,220.57831   L 134.26506,172.6265   L 134.26506,268.53012   L 220.57831,220.57831   L 306.89156,172.6265   L 306.89156,268.53012   L 220.57831,220.57831   z "
     style="fill:#000000;fill-rule:evenodd;fill-opacity:1;stroke:none;" />
  <path
     id="path15"
     d="  M 232.88594,269.84879   L 238.32048,269.84879   L 238.32048,293.66486   C 238.32048,297.78072 237.88092,301.09739 236.92188,303.53494   C 236.00281,305.97249 234.28453,307.93052 231.84698,309.44899   C 229.40943,311.00743 226.21265,311.76666 222.21666,311.76666   C 218.38052,311.76666 215.22369,311.08734 212.78614,309.76867   C 210.30863,308.41004 208.5504,306.49196 207.51144,303.97449   C 206.47249,301.45702 205.95301,298.02048 205.95301,293.66486   L 205.95301,269.84879   L 211.38755,269.84879   L 211.38755,293.6249   C 211.38755,297.22128 211.70723,299.85863 212.38654,301.53694   C 213.06586,303.25522 214.18474,304.53393 215.82309,305.45301   C 217.42148,306.37208 219.41947,306.8516 221.77711,306.8516   C 225.77309,306.8516 228.61024,305.93253 230.32851,304.09437   C 232.04678,302.29618 232.88594,298.81967 232.88594,293.6249   z "
     style="fill:#000000;fill-rule:evenodd;fill-opacity:1;stroke:none;" />
  <path
     id="path17"
     d="  M 232.88594,269.84879   L 238.32048,269.84879   L 238.32048,293.66486   C 238.32048,297.78072 237.88092,301.09739 236.92188,303.53494   C 236.00281,305.97249 234.28453,307.93052 231.84698,309.44899   C 229.40943,311.00743 226.21265,311.76666 222.21666,311.76666   C 218.38052,311.76666 215.22369,311.08734 212.78614,309.76867   C 210.30863,308.41004 208.5504,306.49196 207.51144,303.97449   C 206.47249,301.45702 205.95301,298.02048 205.95301,293.66486   L 205.95301,269.84879   L 211.38755,269.84879   L 211.38755,293.6249   C 211.38755,297.22128 211.70723,299.85863 212.38654,301.53694   C 213.06586,303.25522 214.18474,304.53393 215.82309,305.45301   C 217.42148,306.37208 219.41947,306.8516 221.77711,306.8516   C 225.77309,306.8516 228.61024,305.93253 230.32851,304.09437   C 232.04678,302.29618 232.88594,298.81967 232.88594,293.6249   z "
     style="fill:none;stroke:#000000;stroke-width:0.95903611px;stroke-linecap:butt;stroke-linejoin:miter;stroke-miterlimit:10;stroke-dasharray:none;stroke-opacity:1;" />
</svg>
