<?xml version="1.0" encoding="UTF-8" standalone="no"?>
<svg
   xmlns:dc="http://purl.org/dc/elements/1.1/"
   xmlns:cc="http://creativecommons.org/ns#"
   xmlns:rdf="http://www.w3.org/1999/02/22-rdf-syntax-ns#"
   xmlns:svg="http://www.w3.org/2000/svg"
   xmlns="http://www.w3.org/2000/svg"
   id="svg19"
   height="95.75mm"
   width="95.75mm"
   version="1.0">
  <metadata
     id="metadata23">
    <rdf:RDF>
      <cc:Work
         rdf:about="">
        <dc:format>image/svg+xml</dc:format>
        <dc:type
           rdf:resource="http://purl.org/dc/dcmitype/StillImage" />
      </cc:Work>
    </rdf:RDF>
  </metadata>
  <defs
     id="defs3">
    <pattern
       y="0"
       x="0"
       height="6"
       width="6"
       patternUnits="userSpaceOnUse"
       id="EMFhbasepattern" />
  </defs>
  <path
     id="path5"
     d="  M 54.345381,54.345381   L 54.345381,307.53092   L 307.53092,307.53092   L 307.53092,54.345381   L 54.345381,54.345381   z "
     style="fill:#aaffaa;fill-rule:evenodd;fill-opacity:1;stroke:none;" />
  <path
     id="path7"
     d="  M 54.345381,54.345381   L 307.53092,54.345381   L 307.53092,307.53092   L 54.345381,307.53092   z "
     style="fill:none;stroke:#000000;stroke-width:9.5903616px;stroke-linecap:butt;stroke-linejoin:miter;stroke-miterlimit:10;stroke-dasharray:none;stroke-opacity:1;" />
  <path
     id="path9"
     d="  M 122.15723,111.44799   L 127.31205,111.00843   C 127.55181,113.04638 128.11124,114.76466 128.99036,116.08333   C 129.90944,117.40201 131.26807,118.44096 133.14618,119.28012   C 135.0243,120.07932 137.14217,120.47891 139.45984,120.47891   C 141.53775,120.47891 143.3759,120.1992 144.9743,119.55984   C 146.57269,118.96044 147.77148,118.08132 148.53072,117.04237   C 149.32992,115.96345 149.68956,114.76466 149.68956,113.48594   C 149.68956,112.20723 149.32992,111.08835 148.57068,110.12932   C 147.81144,109.13032 146.57269,108.33112 144.85442,107.69177   C 143.7755,107.25221 141.29799,106.57289 137.54177,105.65381   C 133.74558,104.7747 131.10823,103.89558 129.58976,103.09638   C 127.63173,102.05743 126.15321,100.77871 125.19417,99.26024   C 124.23514,97.741766 123.75562,96.023493 123.75562,94.14538   C 123.75562,92.067469 124.31506,90.109436 125.51385,88.311244   C 126.67269,86.513051 128.43092,85.114457 130.66867,84.19538   C 132.94638,83.236344 135.46385,82.796786 138.22108,82.796786   C 141.29799,82.796786 143.9753,83.276304 146.29297,84.2753   C 148.6506,85.234336 150.44879,86.67289 151.68755,88.590963   C 152.96626,90.509035 153.60562,92.666866 153.7255,95.104416   L 148.49076,95.504015   C 148.21104,92.866665 147.25201,90.908633 145.65361,89.589959   C 144.01526,88.271284 141.61767,87.591967 138.46084,87.591967   C 135.14417,87.591967 132.74658,88.191364 131.26807,89.390159   C 129.7496,90.628914 128.99036,92.067469 128.99036,93.785742   C 128.99036,95.264256 129.50984,96.463051 130.58875,97.422087   C 131.62771,98.381123 134.38494,99.380119 138.82048,100.37912   C 143.25602,101.37811 146.29297,102.25723 147.93132,102.9765   C 150.32891,104.09538 152.08715,105.49397 153.24598,107.17229   C 154.36486,108.89056 154.96425,110.84859 154.96425,113.04638   C 154.96425,115.24418 154.3249,117.32209 153.08614,119.24016   C 151.80743,121.19819 150.00923,122.67671 147.6516,123.75562   C 145.29397,124.83454 142.65662,125.39397 139.73956,125.39397   C 135.98333,125.39397 132.86646,124.83454 130.34899,123.75562   C 127.83152,122.67671 125.87349,121.03835 124.43494,118.84056   C 122.99638,116.68273 122.23715,114.20522 122.15723,111.44799   z  M 160.75843,104.61486   C 160.75843,97.781725 162.59658,92.427107 166.23293,88.551003   C 169.90923,84.674898 174.66446,82.756826 180.45863,82.756826   C 184.25482,82.756826 187.69136,83.675902 190.72831,85.474095   C 193.80522,87.312248 196.12289,89.829718 197.72128,93.066465   C 199.31968,96.343171 200.11887,100.01948 200.11887,104.13534   C 200.11887,108.33112 199.27972,112.04739 197.6014,115.36405   C 195.92309,118.64076 193.5255,121.15823 190.44859,122.83654   C 187.33172,124.55482 184.01506,125.39397 180.41867,125.39397   C 176.54257,125.39397 173.10602,124.43494 170.02911,122.55683   C 166.99217,120.71867 164.6745,118.16124 163.11606,114.88454   C 161.51767,111.64779 160.75843,108.2512 160.75843,104.61486   z  M 166.35281,104.69478   C 166.35281,109.6498 167.71144,113.56586 170.34879,116.44297   C 173.0261,119.28012 176.38273,120.71867 180.41867,120.71867   C 184.49458,120.71867 187.89116,119.28012 190.52851,116.40301   C 193.20582,113.5259 194.5245,109.41004 194.5245,104.09538   C 194.5245,100.77871 193.96506,97.821685 192.80622,95.344175   C 191.68735,92.826705 190.00903,90.908633 187.8512,89.510039   C 185.65341,88.151404 183.21586,87.432127 180.49859,87.432127   C 176.62249,87.432127 173.30582,88.790762 170.54859,91.428111   C 167.7514,94.06546 166.35281,98.501003 166.35281,104.69478   z  M 207.43152,124.6747   L 207.43152,83.476103   L 235.24357,83.476103   L 235.24357,88.351204   L 212.90602,88.351204   L 212.90602,101.09839   L 232.20662,101.09839   L 232.20662,105.97349   L 212.90602,105.97349   L 212.90602,124.6747   z "
     style="fill:#000000;fill-rule:evenodd;fill-opacity:1;stroke:none;" />
  <path
     id="path11"
     d="  M 122.15723,111.44799   L 127.31205,111.00843   C 127.55181,113.04638 128.11124,114.76466 128.99036,116.08333   C 129.90944,117.40201 131.26807,118.44096 133.14618,119.28012   C 135.0243,120.07932 137.14217,120.47891 139.45984,120.47891   C 141.53775,120.47891 143.3759,120.1992 144.9743,119.55984   C 146.57269,118.96044 147.77148,118.08132 148.53072,117.04237   C 149.32992,115.96345 149.68956,114.76466 149.68956,113.48594   C 149.68956,112.20723 149.32992,111.08835 148.57068,110.12932   C 147.81144,109.13032 146.57269,108.33112 144.85442,107.69177   C 143.7755,107.25221 141.29799,106.57289 137.54177,105.65381   C 133.74558,104.7747 131.10823,103.89558 129.58976,103.09638   C 127.63173,102.05743 126.15321,100.77871 125.19417,99.26024   C 124.23514,97.741766 123.75562,96.023493 123.75562,94.14538   C 123.75562,92.067469 124.31506,90.109436 125.51385,88.311244   C 126.67269,86.513051 128.43092,85.114457 130.66867,84.19538   C 132.94638,83.236344 135.46385,82.796786 138.22108,82.796786   C 141.29799,82.796786 143.9753,83.276304 146.29297,84.2753   C 148.6506,85.234336 150.44879,86.67289 151.68755,88.590963   C 152.96626,90.509035 153.60562,92.666866 153.7255,95.104416   L 148.49076,95.504015   C 148.21104,92.866665 147.25201,90.908633 145.65361,89.589959   C 144.01526,88.271284 141.61767,87.591967 138.46084,87.591967   C 135.14417,87.591967 132.74658,88.191364 131.26807,89.390159   C 129.7496,90.628914 128.99036,92.067469 128.99036,93.785742   C 128.99036,95.264256 129.50984,96.463051 130.58875,97.422087   C 131.62771,98.381123 134.38494,99.380119 138.82048,100.37912   C 143.25602,101.37811 146.29297,102.25723 147.93132,102.9765   C 150.32891,104.09538 152.08715,105.49397 153.24598,107.17229   C 154.36486,108.89056 154.96425,110.84859 154.96425,113.04638   C 154.96425,115.24418 154.3249,117.32209 153.08614,119.24016   C 151.80743,121.19819 150.00923,122.67671 147.6516,123.75562   C 145.29397,124.83454 142.65662,125.39397 139.73956,125.39397   C 135.98333,125.39397 132.86646,124.83454 130.34899,123.75562   C 127.83152,122.67671 125.87349,121.03835 124.43494,118.84056   C 122.99638,116.68273 122.23715,114.20522 122.15723,111.44799   z  M 160.75843,104.61486   C 160.75843,97.781725 162.59658,92.427107 166.23293,88.551003   C 169.90923,84.674898 174.66446,82.756826 180.45863,82.756826   C 184.25482,82.756826 187.69136,83.675902 190.72831,85.474095   C 193.80522,87.312248 196.12289,89.829718 197.72128,93.066465   C 199.31968,96.343171 200.11887,100.01948 200.11887,104.13534   C 200.11887,108.33112 199.27972,112.04739 197.6014,115.36405   C 195.92309,118.64076 193.5255,121.15823 190.44859,122.83654   C 187.33172,124.55482 184.01506,125.39397 180.41867,125.39397   C 176.54257,125.39397 173.10602,124.43494 170.02911,122.55683   C 166.99217,120.71867 164.6745,118.16124 163.11606,114.88454   C 161.51767,111.64779 160.75843,108.2512 160.75843,104.61486   z  M 166.35281,104.69478   C 166.35281,109.6498 167.71144,113.56586 170.34879,116.44297   C 173.0261,119.28012 176.38273,120.71867 180.41867,120.71867   C 184.49458,120.71867 187.89116,119.28012 190.52851,116.40301   C 193.20582,113.5259 194.5245,109.41004 194.5245,104.09538   C 194.5245,100.77871 193.96506,97.821685 192.80622,95.344175   C 191.68735,92.826705 190.00903,90.908633 187.8512,89.510039   C 185.65341,88.151404 183.21586,87.432127 180.49859,87.432127   C 176.62249,87.432127 173.30582,88.790762 170.54859,91.428111   C 167.7514,94.06546 166.35281,98.501003 166.35281,104.69478   z  M 207.43152,124.6747   L 207.43152,83.476103   L 235.24357,83.476103   L 235.24357,88.351204   L 212.90602,88.351204   L 212.90602,101.09839   L 232.20662,101.09839   L 232.20662,105.97349   L 212.90602,105.97349   L 212.90602,124.6747   z "
     style="fill:none;stroke:#000000;stroke-width:0.95903611px;stroke-linecap:butt;stroke-linejoin:miter;stroke-miterlimit:10;stroke-dasharray:none;stroke-opacity:1;" />
  <path
     id="path13"
     d="  M 180.93815,180.93815   L 128.19116,156.96225   C 75.444176,132.98634 75.444176,228.88996 128.19116,204.91405   L 180.93815,180.93815   L 233.68514,156.96225   C 286.43212,132.98634 286.43212,228.88996 233.68514,204.91405   L 180.93815,180.93815   z "
     style="fill:#000000;fill-rule:evenodd;fill-opacity:1;stroke:none;" />
  <path
     id="path15"
     d="  M 193.24578,230.20863   L 198.68032,230.20863   L 198.68032,254.0247   C 198.68032,258.14056 198.24076,261.45723 197.28172,263.89478   C 196.36265,266.33233 194.64437,268.29036 192.20682,269.80883   C 189.76927,271.36727 186.57249,272.1265 182.5765,272.1265   C 178.74036,272.1265 175.58353,271.44718 173.14598,270.12851   C 170.66847,268.76988 168.91024,266.8518 167.87128,264.33433   C 166.83233,261.81686 166.31285,258.38032 166.31285,254.0247   L 166.31285,230.20863   L 171.74739,230.20863   L 171.74739,253.98474   C 171.74739,257.58112 172.06707,260.21847 172.74638,261.89678   C 173.4257,263.61506 174.54458,264.89377 176.18293,265.81285   C 177.78132,266.73192 179.77931,267.21144 182.13695,267.21144   C 186.13293,267.21144 188.97008,266.29237 190.68835,264.45421   C 192.40662,262.65602 193.24578,259.17951 193.24578,253.98474   z "
     style="fill:#000000;fill-rule:evenodd;fill-opacity:1;stroke:none;" />
  <path
     id="path17"
     d="  M 193.24578,230.20863   L 198.68032,230.20863   L 198.68032,254.0247   C 198.68032,258.14056 198.24076,261.45723 197.28172,263.89478   C 196.36265,266.33233 194.64437,268.29036 192.20682,269.80883   C 189.76927,271.36727 186.57249,272.1265 182.5765,272.1265   C 178.74036,272.1265 175.58353,271.44718 173.14598,270.12851   C 170.66847,268.76988 168.91024,266.8518 167.87128,264.33433   C 166.83233,261.81686 166.31285,258.38032 166.31285,254.0247   L 166.31285,230.20863   L 171.74739,230.20863   L 171.74739,253.98474   C 171.74739,257.58112 172.06707,260.21847 172.74638,261.89678   C 173.4257,263.61506 174.54458,264.89377 176.18293,265.81285   C 177.78132,266.73192 179.77931,267.21144 182.13695,267.21144   C 186.13293,267.21144 188.97008,266.29237 190.68835,264.45421   C 192.40662,262.65602 193.24578,259.17951 193.24578,253.98474   z "
     style="fill:none;stroke:#000000;stroke-width:0.95903611px;stroke-linecap:butt;stroke-linejoin:miter;stroke-miterlimit:10;stroke-dasharray:none;stroke-opacity:1;" />
</svg>
