<?xml version="1.0" encoding="UTF-8" standalone="no"?>
<svg
   xmlns:dc="http://purl.org/dc/elements/1.1/"
   xmlns:cc="http://creativecommons.org/ns#"
   xmlns:rdf="http://www.w3.org/1999/02/22-rdf-syntax-ns#"
   xmlns:svg="http://www.w3.org/2000/svg"
   xmlns="http://www.w3.org/2000/svg"
   id="svg11"
   height="112.9mm"
   width="112.9mm"
   version="1.0">
  <metadata
     id="metadata15">
    <rdf:RDF>
      <cc:Work
         rdf:about="">
        <dc:format>image/svg+xml</dc:format>
        <dc:type
           rdf:resource="http://purl.org/dc/dcmitype/StillImage" />
      </cc:Work>
    </rdf:RDF>
  </metadata>
  <defs
     id="defs3">
    <pattern
       y="0"
       x="0"
       height="6"
       width="6"
       patternUnits="userSpaceOnUse"
       id="EMFhbasepattern" />
  </defs>
  <path
     id="path5"
     d="  M 1445.071,1298.4053   C 1445.071,1324.7637 1436.159,1346.9304 1418.2594,1364.8678   C 1400.3599,1382.7673 1378.2687,1391.7171 1351.948,1391.7171   C 1325.9294,1391.7171 1303.876,1382.6918 1285.8631,1364.6412   C 1267.8503,1346.5906 1258.825,1324.4993 1258.825,1298.4053   C 1258.825,1272.0468 1267.7747,1249.8045 1285.6743,1231.7539   C 1303.5361,1213.7033 1325.6651,1204.678 1351.948,1204.678   C 1378.0043,1204.678 1400.0578,1213.7788 1418.0706,1231.9805   C 1436.0835,1250.1444 1445.071,1272.2734 1445.071,1298.4053   z  M 1437.8961,1298.4053   C 1437.8961,1274.0483 1429.626,1253.5431 1413.1615,1236.8897   C 1396.6591,1220.1985 1376.2672,1211.8907 1351.948,1211.8907   C 1327.6665,1211.8907 1307.2746,1220.1985 1290.7723,1236.8897   C 1274.3077,1253.5431 1266.0376,1274.0483 1266.0376,1298.4053   C 1266.0376,1322.4979 1274.3455,1342.8898 1290.9611,1359.5432   C 1307.6145,1376.1966 1327.9309,1384.5422 1351.948,1384.5422   C 1376.0029,1384.5422 1396.3193,1376.1966 1412.9349,1359.5432   C 1429.5505,1342.8898 1437.8961,1322.4979 1437.8961,1298.4053   z  M 1373.1329,1029.6475   L 1373.1329,1143.2757   L 1347.4542,1111.0641   L 1347.8696,1204.3004   L 1355.5732,1204.678   L 1355.5732,1134.8169   L 1381.5918,1164.3851   L 1381.5918,1029.6475   z "
     style="fill:#00ff00;fill-rule:nonzero;fill-opacity:1;stroke:none;" />
  <path
     id="path7"
     d="  M 1210.8662,1210.8333   L 1498.6187,1391.9815  "
     style="fill:none;stroke:#00ff00;stroke-width:6.3819113px;stroke-linecap:butt;stroke-linejoin:miter;stroke-miterlimit:282;stroke-dasharray:none;stroke-opacity:1;" />
  <path
     id="path9"
     d="  M 1210.8662,1391.9815   L 1498.6187,1210.8333   z "
     style="fill:#ffff00;fill-rule:nonzero;fill-opacity:1;stroke:#00ff00;stroke-width:6.3819113px;stroke-linecap:butt;stroke-linejoin:miter;stroke-miterlimit:282;stroke-dasharray:none;stroke-opacity:1;" />
</svg>
