<?xml version="1.0" encoding="UTF-8" standalone="no"?>
<svg
   xmlns:dc="http://purl.org/dc/elements/1.1/"
   xmlns:cc="http://creativecommons.org/ns#"
   xmlns:rdf="http://www.w3.org/1999/02/22-rdf-syntax-ns#"
   xmlns:svg="http://www.w3.org/2000/svg"
   xmlns="http://www.w3.org/2000/svg"
   id="svg11"
   height="112.9mm"
   width="112.9mm"
   version="1.0">
  <metadata
     id="metadata15">
    <rdf:RDF>
      <cc:Work
         rdf:about="">
        <dc:format>image/svg+xml</dc:format>
        <dc:type
           rdf:resource="http://purl.org/dc/dcmitype/StillImage" />
      </cc:Work>
    </rdf:RDF>
  </metadata>
  <defs
     id="defs3">
    <pattern
       y="0"
       x="0"
       height="6"
       width="6"
       patternUnits="userSpaceOnUse"
       id="EMFhbasepattern" />
  </defs>
  <path
     id="path5"
     d="  M 741.96374,595.33114   C 741.96374,621.69834 733.04876,643.87247 715.14324,661.81577   C 697.23772,679.72129 675.13914,688.67405 648.80971,688.67405   C 622.78249,688.67405 600.72168,679.64574 582.70284,661.58911   C 564.68399,643.53249 555.65568,621.43391 555.65568,595.33114   C 555.65568,568.96394 564.60844,546.71425 582.51396,528.65763   C 600.3817,510.60101 622.51806,501.5727 648.80971,501.5727   C 674.87471,501.5727 696.93552,510.67656 714.95436,528.88428   C 732.97321,547.05423 741.96374,569.19059 741.96374,595.33114   z  M 734.78643,595.33114   C 734.78643,570.96603 726.51362,550.45401 710.04357,533.79508   C 693.53573,517.09837 673.13704,508.78779 648.80971,508.78779   C 624.52016,508.78779 604.12146,517.09837 587.61363,533.79508   C 571.14358,550.45401 562.87077,570.96603 562.87077,595.33114   C 562.87077,619.43182 571.18135,639.83051 587.80251,656.48944   C 604.46144,673.14837 624.78458,681.49673 648.80971,681.49673   C 672.87261,681.49673 693.19576,673.14837 709.81691,656.48944   C 726.43807,639.83051 734.78643,619.43182 734.78643,595.33114   z  M 670.00169,326.48392   L 670.00169,440.14997   L 644.31444,407.92759   L 644.72997,501.19495   L 652.43615,501.5727   L 652.43615,431.68829   L 678.46337,461.26639   L 678.46337,326.48392   L 670.00169,326.48392   z "
     style="fill:#000000;fill-rule:nonzero;fill-opacity:1;stroke:none;" />
  <path
     id="path7"
     d="  M 507.68098,507.73008   L 795.5292,688.93847  "
     style="fill:none;stroke:#000000;stroke-width:6.3840356px;stroke-linecap:butt;stroke-linejoin:miter;stroke-miterlimit:112;stroke-dasharray:none;stroke-opacity:1;" />
  <path
     id="path9"
     d="  M 507.68098,688.93847   L 795.5292,507.73008  "
     style="fill:none;stroke:#000000;stroke-width:6.3840356px;stroke-linecap:butt;stroke-linejoin:miter;stroke-miterlimit:112;stroke-dasharray:none;stroke-opacity:1;" />
</svg>
