<?xml version="1.0" encoding="UTF-8" standalone="no"?>
<svg
   xmlns:dc="http://purl.org/dc/elements/1.1/"
   xmlns:cc="http://creativecommons.org/ns#"
   xmlns:rdf="http://www.w3.org/1999/02/22-rdf-syntax-ns#"
   xmlns:svg="http://www.w3.org/2000/svg"
   xmlns="http://www.w3.org/2000/svg"
   id="svg9"
   height="112.9mm"
   width="112.9mm"
   version="1.0">
  <metadata
     id="metadata13">
    <rdf:RDF>
      <cc:Work
         rdf:about="">
        <dc:format>image/svg+xml</dc:format>
        <dc:type
           rdf:resource="http://purl.org/dc/dcmitype/StillImage" />
      </cc:Work>
    </rdf:RDF>
  </metadata>
  <defs
     id="defs3">
    <pattern
       y="0"
       x="0"
       height="6"
       width="6"
       patternUnits="userSpaceOnUse"
       id="EMFhbasepattern" />
  </defs>
  <path
     id="path5"
     d="  M 332.87834,268.86233   C 332.87834,295.22953 323.96336,317.40367 306.05784,335.34696   C 288.15232,353.25248 266.05373,362.20524 239.72431,362.20524   C 213.69709,362.20524 191.63628,353.17693 173.61743,335.12031   C 155.59859,317.06369 146.57028,294.9651 146.57028,268.86233   C 146.57028,242.49513 155.52304,220.24545 173.42856,202.18882   C 191.2963,184.1322 213.43266,175.10389 239.72431,175.10389   C 265.78931,175.10389 287.85011,184.20775 305.86896,202.41548   C 323.88781,220.58542 332.87834,242.72178 332.87834,268.86233   z  M 325.70102,268.86233   C 325.70102,244.49723 317.42822,223.98521 300.95816,207.32627   C 284.45033,190.62956 264.05164,182.31899 239.72431,182.31899   C 215.43475,182.31899 195.03606,190.62956 178.52823,207.32627   C 162.05817,223.98521 153.78537,244.49723 153.78537,268.86233   C 153.78537,292.96301 162.09595,313.3617 178.71711,330.02063   C 195.37604,346.67957 215.69918,355.02792 239.72431,355.02792   C 263.78721,355.02792 284.11035,346.67957 300.73151,330.02063   C 317.35267,313.3617 325.70102,292.96301 325.70102,268.86233   z  M 260.91628,0.015110143   L 260.91628,113.68116   L 235.22904,81.458781   L 235.64457,174.72614   L 243.35074,175.10389   L 243.35074,105.21948   L 269.37796,134.79759   L 269.37796,0.015110143   L 260.91628,0.015110143   z "
     style="fill:#000000;fill-rule:nonzero;fill-opacity:1;stroke:none;" />
  <path
     id="path7"
     d="  M 208.48409,309.16864   L 208.48409,225.23179   L 219.59004,225.23179   L 219.59004,266.86024   L 261.29404,225.23179   L 276.32863,225.23179   L 241.122,259.22961   L 277.87742,309.16864   L 263.22058,309.16864   L 233.34027,266.67136   L 219.59004,280.08161   L 219.59004,309.16864   L 208.48409,309.16864   z "
     style="fill:#000000;fill-rule:nonzero;fill-opacity:1;stroke:#000000;stroke-width:1.0577101px;stroke-linecap:butt;stroke-linejoin:miter;stroke-miterlimit:112;stroke-dasharray:none;stroke-opacity:1;" />
</svg>
