<?xml version="1.0" encoding="UTF-8" standalone="no"?>
<svg
   xmlns:dc="http://purl.org/dc/elements/1.1/"
   xmlns:cc="http://creativecommons.org/ns#"
   xmlns:rdf="http://www.w3.org/1999/02/22-rdf-syntax-ns#"
   xmlns:svg="http://www.w3.org/2000/svg"
   xmlns="http://www.w3.org/2000/svg"
   id="svg7"
   height="112.9mm"
   width="112.9mm"
   version="1.0">
  <metadata
     id="metadata11">
    <rdf:RDF>
      <cc:Work
         rdf:about="">
        <dc:format>image/svg+xml</dc:format>
        <dc:type
           rdf:resource="http://purl.org/dc/dcmitype/StillImage" />
      </cc:Work>
    </rdf:RDF>
  </metadata>
  <defs
     id="defs3">
    <pattern
       y="0"
       x="0"
       height="6"
       width="6"
       patternUnits="userSpaceOnUse"
       id="EMFhbasepattern" />
  </defs>
  <path
     id="path5"
     d="  M 186.30051,268.86233   C 186.30051,295.22953 177.38552,317.40367 159.48001,335.34696   C 141.57449,353.25248 119.4759,362.20524 93.146477,362.20524   C 67.119256,362.20524 45.058447,353.17693 27.039601,335.12031   C 9.0207554,317.06369 -0.0075550715,294.9651 -0.0075550715,268.86233   C -0.0075550715,242.49513 8.9452047,220.24545 26.850724,202.18882   C 44.718468,184.1322 66.854828,175.10389 93.146477,175.10389   C 119.21147,175.10389 141.27228,184.20775 159.29113,202.41548   C 177.30997,220.58542 186.30051,242.72178 186.30051,268.86233   z  M 179.12319,268.86233   C 179.12319,244.49723 170.85039,223.98521 154.38033,207.32627   C 137.8725,190.62956 117.47381,182.31899 93.146477,182.31899   C 68.856922,182.31899 48.458229,190.62956 31.950398,207.32627   C 15.480342,223.98521 7.2075382,244.49723 7.2075382,268.86233   C 7.2075382,292.96301 15.518117,313.3617 32.139274,330.02063   C 48.798207,346.67957 69.121349,355.02792 93.146477,355.02792   C 117.20938,355.02792 137.53252,346.67957 154.15368,330.02063   C 170.77484,313.3617 179.12319,292.96301 179.12319,268.86233   z  M 114.33845,0.015110143   L 114.33845,113.68116   L 88.651209,81.458781   L 89.066738,174.72614   L 96.772911,175.10389   L 96.772911,105.21948   L 122.80013,134.79759   L 122.80013,0.015110143   L 114.33845,0.015110143   z "
     style="fill:#000000;fill-rule:nonzero;fill-opacity:1;stroke:none;" />
</svg>
