<?xml version="1.0" encoding="UTF-8" standalone="no"?>
<svg
   xmlns:dc="http://purl.org/dc/elements/1.1/"
   xmlns:cc="http://creativecommons.org/ns#"
   xmlns:rdf="http://www.w3.org/1999/02/22-rdf-syntax-ns#"
   xmlns:svg="http://www.w3.org/2000/svg"
   xmlns="http://www.w3.org/2000/svg"
   id="svg21"
   height="89.669998mm"
   width="120.11mm"
   version="1.0">
  <metadata
     id="metadata25">
    <rdf:RDF>
      <cc:Work
         rdf:about="">
        <dc:format>image/svg+xml</dc:format>
        <dc:type
           rdf:resource="http://purl.org/dc/dcmitype/StillImage" />
      </cc:Work>
    </rdf:RDF>
  </metadata>
  <defs
     id="defs3">
    <pattern
       y="0"
       x="0"
       height="6"
       width="6"
       patternUnits="userSpaceOnUse"
       id="EMFhbasepattern" />
  </defs>
  <path
     id="path5"
     d="  M 54.345381,54.345381   L 54.345381,284.51405   L 399.59839,284.51405   L 399.59839,54.345381   L 54.345381,54.345381   z "
     style="fill:#80e0ff;fill-rule:evenodd;fill-opacity:1;stroke:none;" />
  <path
     id="path7"
     d="  M 54.345381,54.345381   L 399.59839,54.345381   L 399.59839,284.51405   L 54.345381,284.51405   z "
     style="fill:none;stroke:#000000;stroke-width:9.5903616px;stroke-linecap:butt;stroke-linejoin:miter;stroke-miterlimit:10;stroke-dasharray:none;stroke-opacity:1;" />
  <path
     id="path9"
     d="  M 244.23453,236.56225   C 244.23453,246.11265 236.52229,253.8249 226.97188,253.8249   C 217.46144,253.8249 209.70923,246.11265 209.70923,236.56225   C 209.70923,227.0518 217.46144,219.2996 226.97188,219.2996   C 236.52229,219.2996 244.23453,227.0518 244.23453,236.56225   z "
     style="fill:#000000;fill-rule:evenodd;fill-opacity:1;stroke:none;" />
  <path
     id="path11"
     d="  M 244.23453,236.56225   C 244.23453,246.11265 236.52229,253.8249 226.97188,253.8249   C 217.46144,253.8249 209.70923,246.11265 209.70923,236.56225   C 209.70923,227.0518 217.46144,219.2996 226.97188,219.2996   C 236.52229,219.2996 244.23453,227.0518 244.23453,236.56225  "
     style="fill:none;stroke:#000000;stroke-width:9.5903616px;stroke-linecap:butt;stroke-linejoin:miter;stroke-miterlimit:10;stroke-dasharray:none;stroke-opacity:1;" />
  <path
     id="path13"
     d="  M 54.345381,169.42972   L 399.59839,169.42972  "
     style="fill:none;stroke:#000000;stroke-width:9.5903616px;stroke-linecap:butt;stroke-linejoin:miter;stroke-miterlimit:10;stroke-dasharray:none;stroke-opacity:1;" />
  <path
     id="path15"
     d="  M 140.65863,135.86345   L 313.28514,135.86345   L 274.92369,202.99598   L 179.02008,202.99598   z "
     style="fill:#ffffff;fill-rule:evenodd;fill-opacity:1;stroke:none;" />
  <path
     id="path17"
     d="  M 140.65863,135.86345   L 313.28514,135.86345   L 274.92369,202.99598   L 179.02008,202.99598   z "
     style="fill:none;stroke:#000000;stroke-width:9.5903616px;stroke-linecap:butt;stroke-linejoin:miter;stroke-miterlimit:10;stroke-dasharray:none;stroke-opacity:1;" />
  <path
     id="path19"
     d="  M 211.58735,171.26787   L 217.14176,170.78835   C 217.42148,173.0261 218.02088,174.82429 218.97992,176.26285   C 219.93895,177.7014 221.45743,178.86024 223.45542,179.73935   C 225.49337,180.61847 227.77108,181.05803 230.32851,181.05803   C 232.56626,181.05803 234.56425,180.73835 236.28253,180.05903   C 238.0008,179.37972 239.27951,178.46064 240.11867,177.3018   C 240.99779,176.14297 241.39739,174.86425 241.39739,173.50562   C 241.39739,172.10703 240.99779,170.86827 240.19859,169.82931   C 239.35943,168.79036 238.04076,167.91124 236.16265,167.19197   C 234.96385,166.71245 232.3265,165.99317 228.21064,164.99417   C 224.13474,164.03514 221.25763,163.11606 219.61927,162.23695   C 217.46144,161.11807 215.90301,159.71948 214.82409,158.08112   C 213.78514,156.40281 213.26566,154.56466 213.26566,152.5267   C 213.26566,150.24899 213.90502,148.17108 215.18373,146.21305   C 216.46245,144.25502 218.34056,142.7765 220.77811,141.73755   C 223.25562,140.73855 225.97289,140.21907 228.96988,140.21907   C 232.28654,140.21907 235.20361,140.73855 237.72108,141.81747   C 240.23855,142.89638 242.19658,144.45482 243.55522,146.53273   C 244.91385,148.57068 245.63313,150.92831 245.75301,153.56566   L 240.07871,153.96526   C 239.79899,151.16807 238.76004,149.01024 237.0018,147.57168   C 235.24357,146.13313 232.64618,145.41385 229.20964,145.41385   C 225.65321,145.41385 223.05582,146.09317 221.41747,147.37189   C 219.77911,148.69056 218.97992,150.28895 218.97992,152.12711   C 218.97992,153.7255 219.53935,155.04417 220.69819,156.08313   C 221.85702,157.12209 224.81405,158.16104 229.60923,159.23996   C 234.40441,160.35883 237.68112,161.27791 239.47931,162.11707   C 242.0767,163.31586 243.99478,164.83433 245.23353,166.67249   C 246.47229,168.51064 247.07168,170.58855 247.07168,172.98614   C 247.07168,175.38373 246.39237,177.62148 245.03373,179.69939   C 243.6751,181.81727 241.75702,183.45562 239.19959,184.61446   C 236.64217,185.77329 233.76506,186.37269 230.60823,186.37269   C 226.57229,186.37269 223.1757,185.77329 220.45843,184.61446   C 217.7012,183.41566 215.58333,181.65743 214.0249,179.2998   C 212.46646,176.94217 211.66727,174.26486 211.58735,171.26787   z "
     style="fill:#000000;fill-rule:evenodd;fill-opacity:1;stroke:none;" />
</svg>
