<?xml version="1.0" encoding="UTF-8" standalone="no"?>
<svg
   xmlns:dc="http://purl.org/dc/elements/1.1/"
   xmlns:cc="http://creativecommons.org/ns#"
   xmlns:rdf="http://www.w3.org/1999/02/22-rdf-syntax-ns#"
   xmlns:svg="http://www.w3.org/2000/svg"
   xmlns="http://www.w3.org/2000/svg"
   id="svg21"
   height="130.27mm"
   width="130.27mm"
   version="1.0">
  <metadata
     id="metadata25">
    <rdf:RDF>
      <cc:Work
         rdf:about="">
        <dc:format>image/svg+xml</dc:format>
        <dc:type
           rdf:resource="http://purl.org/dc/dcmitype/StillImage" />
      </cc:Work>
    </rdf:RDF>
  </metadata>
  <defs
     id="defs3">
    <pattern
       y="0"
       x="0"
       height="6"
       width="6"
       patternUnits="userSpaceOnUse"
       id="EMFhbasepattern" />
  </defs>
  <path
     id="path5"
     d="  M 164.63454,327.67068   C 164.63454,437.95983 327.67068,437.95983 327.67068,327.67068   C 437.95983,327.67068 437.95983,164.63454 327.67068,164.63454   C 327.67068,54.345381 164.63454,54.345381 164.63454,164.63454   C 54.345381,164.63454 54.345381,327.67068 164.63454,327.67068   z "
     style="fill:#ffff80;fill-rule:evenodd;fill-opacity:1;stroke:none;" />
  <path
     id="path7"
     d="  M 164.63454,327.67068   C 164.63454,437.95983 327.67068,437.95983 327.67068,327.67068   C 437.95983,327.67068 437.95983,164.63454 327.67068,164.63454   C 327.67068,54.345381 164.63454,54.345381 164.63454,164.63454   C 54.345381,164.63454 54.345381,327.67068 164.63454,327.67068  "
     style="fill:none;stroke:#000000;stroke-width:9.5903616px;stroke-linecap:butt;stroke-linejoin:miter;stroke-miterlimit:10;stroke-dasharray:none;stroke-opacity:1;" />
  <path
     id="path9"
     d="  M 263.41526,313.28514   C 263.41526,322.83554 255.70301,330.54779 246.15261,330.54779   C 236.64217,330.54779 228.88996,322.83554 228.88996,313.28514   C 228.88996,303.77469 236.64217,296.02249 246.15261,296.02249   C 255.70301,296.02249 263.41526,303.77469 263.41526,313.28514   z "
     style="fill:#000000;fill-rule:evenodd;fill-opacity:1;stroke:none;" />
  <path
     id="path11"
     d="  M 263.41526,313.28514   C 263.41526,322.83554 255.70301,330.54779 246.15261,330.54779   C 236.64217,330.54779 228.88996,322.83554 228.88996,313.28514   C 228.88996,303.77469 236.64217,296.02249 246.15261,296.02249   C 255.70301,296.02249 263.41526,303.77469 263.41526,313.28514  "
     style="fill:none;stroke:#000000;stroke-width:9.5903616px;stroke-linecap:butt;stroke-linejoin:miter;stroke-miterlimit:10;stroke-dasharray:none;stroke-opacity:1;" />
  <path
     id="path13"
     d="  M 83.116465,246.15261   L 409.18875,246.15261  "
     style="fill:none;stroke:#000000;stroke-width:9.5903616px;stroke-linecap:butt;stroke-linejoin:miter;stroke-miterlimit:10;stroke-dasharray:none;stroke-opacity:1;" />
  <path
     id="path15"
     d="  M 159.83936,212.58634   L 332.46586,212.58634   L 294.10441,279.71887   L 198.2008,279.71887   z "
     style="fill:#ffffff;fill-rule:evenodd;fill-opacity:1;stroke:none;" />
  <path
     id="path17"
     d="  M 159.83936,212.58634   L 332.46586,212.58634   L 294.10441,279.71887   L 198.2008,279.71887   z "
     style="fill:none;stroke:#000000;stroke-width:9.5903616px;stroke-linecap:butt;stroke-linejoin:miter;stroke-miterlimit:10;stroke-dasharray:none;stroke-opacity:1;" />
  <path
     id="path19"
     d="  M 230.76807,247.99076   L 236.32249,247.51124   C 236.60221,249.74899 237.2016,251.54719 238.16064,252.98574   C 239.11968,254.42429 240.63815,255.58313 242.63614,256.46225   C 244.67409,257.34136 246.9518,257.78092 249.50923,257.78092   C 251.74698,257.78092 253.74498,257.46124 255.46325,256.78192   C 257.18152,256.10261 258.46024,255.18353 259.29939,254.0247   C 260.17851,252.86586 260.57811,251.58714 260.57811,250.22851   C 260.57811,248.82992 260.17851,247.59116 259.37931,246.55221   C 258.54016,245.51325 257.22148,244.63413 255.34337,243.91486   C 254.14457,243.43534 251.50723,242.71606 247.39136,241.71706   C 243.31546,240.75803 240.43835,239.83895 238.8,238.95984   C 236.64217,237.84096 235.08373,236.44237 234.00482,234.80401   C 232.96586,233.1257 232.44638,231.28755 232.44638,229.2496   C 232.44638,226.97188 233.08574,224.89397 234.36445,222.93594   C 235.64317,220.97791 237.52128,219.49939 239.95883,218.46044   C 242.43634,217.46144 245.15361,216.94196 248.1506,216.94196   C 251.46727,216.94196 254.38433,217.46144 256.9018,218.54036   C 259.41927,219.61927 261.37731,221.17771 262.73594,223.25562   C 264.09457,225.29357 264.81385,227.6512 264.93373,230.28855   L 259.25943,230.68815   C 258.97972,227.89096 257.94076,225.73313 256.18253,224.29458   C 254.42429,222.85602 251.8269,222.13674 248.39036,222.13674   C 244.83393,222.13674 242.23654,222.81606 240.59819,224.09478   C 238.95984,225.41345 238.16064,227.01184 238.16064,228.85   C 238.16064,230.44839 238.72008,231.76706 239.87891,232.80602   C 241.03775,233.84498 243.99478,234.88393 248.78996,235.96285   C 253.58514,237.08172 256.86184,238.0008 258.66004,238.83996   C 261.25743,240.03875 263.1755,241.55723 264.41425,243.39538   C 265.65301,245.23353 266.25241,247.31144 266.25241,249.70903   C 266.25241,252.10662 265.57309,254.34437 264.21445,256.42229   C 262.85582,258.54016 260.93775,260.17851 258.38032,261.33735   C 255.82289,262.49618 252.94578,263.09558 249.78895,263.09558   C 245.75301,263.09558 242.35642,262.49618 239.63915,261.33735   C 236.88192,260.13855 234.76405,258.38032 233.20562,256.02269   C 231.64719,253.66506 230.84799,250.98775 230.76807,247.99076   z "
     style="fill:#000000;fill-rule:evenodd;fill-opacity:1;stroke:none;" />
</svg>
