<?xml version="1.0" encoding="UTF-8" standalone="no"?>
<svg
   xmlns:dc="http://purl.org/dc/elements/1.1/"
   xmlns:cc="http://creativecommons.org/ns#"
   xmlns:rdf="http://www.w3.org/1999/02/22-rdf-syntax-ns#"
   xmlns:svg="http://www.w3.org/2000/svg"
   xmlns="http://www.w3.org/2000/svg"
   id="svg15"
   height="125.53mm"
   width="95.75mm"
   version="1.0">
  <metadata
     id="metadata19">
    <rdf:RDF>
      <cc:Work
         rdf:about="">
        <dc:format>image/svg+xml</dc:format>
        <dc:type
           rdf:resource="http://purl.org/dc/dcmitype/StillImage" />
      </cc:Work>
    </rdf:RDF>
  </metadata>
  <defs
     id="defs3">
    <pattern
       y="0"
       x="0"
       height="6"
       width="6"
       patternUnits="userSpaceOnUse"
       id="EMFhbasepattern" />
  </defs>
  <path
     id="path5"
     d="  M 307.53092,420.05783   C 307.53092,54.665059 54.345381,54.665059 54.345381,420.05783   z "
     style="fill:#80e0ff;fill-rule:evenodd;fill-opacity:1;stroke:none;" />
  <path
     id="path7"
     d="  M 307.53092,420.05783   C 307.53092,54.665059 54.345381,54.665059 54.345381,420.05783  "
     style="fill:none;stroke:#000000;stroke-width:9.5903616px;stroke-linecap:butt;stroke-linejoin:miter;stroke-miterlimit:10;stroke-dasharray:none;stroke-opacity:1;" />
  <path
     id="path9"
     d="  M 109.01044,189.88915   C 142.5767,127.55181 219.2996,127.55181 252.86586,189.88915   z "
     style="fill:#000000;fill-rule:evenodd;fill-opacity:1;stroke:none;" />
  <path
     id="path11"
     d="  M 109.01044,189.88915   C 142.5767,127.55181 219.2996,127.55181 252.86586,189.88915  "
     style="fill:none;stroke:#000000;stroke-width:0.95903611px;stroke-linecap:butt;stroke-linejoin:miter;stroke-miterlimit:10;stroke-dasharray:none;stroke-opacity:1;" />
  <path
     id="path13"
     d="  M 96.063452,307.41104   L 104.65482,306.6518   C 105.05442,310.08835 106.01345,312.9255 107.49197,315.12329   C 108.97048,317.32108 111.24819,319.11927 114.36506,320.47791   C 117.52189,321.83654 121.03835,322.51586 124.91446,322.51586   C 128.39096,322.51586 131.42791,321.99638 134.10522,320.95743   C 136.74257,319.91847 138.74056,318.51987 140.01928,316.72168   C 141.33795,314.92349 141.97731,312.96546 141.97731,310.84759   C 141.97731,308.68975 141.33795,306.81164 140.09919,305.21325   C 138.86044,303.5749 136.78253,302.25622 133.90542,301.13735   C 132.06727,300.41807 127.99136,299.29919 121.67771,297.78072   C 115.40401,296.3022 110.96847,294.86365 108.451,293.50502   C 105.1743,291.78674 102.73675,289.66887 101.09839,287.11144   C 99.499999,284.59397 98.700802,281.71686 98.700802,278.56004   C 98.700802,275.12349 99.699798,271.88674 101.65783,268.8498   C 103.61586,265.85281 106.49297,263.5751 110.2492,262.01666   C 114.04538,260.41827 118.24116,259.65903 122.8765,259.65903   C 127.9514,259.65903 132.42691,260.45823 136.34297,262.09658   C 140.21907,263.73494 143.21606,266.17249 145.29397,269.36927   C 147.37189,272.5261 148.49076,276.12249 148.6506,280.15843   L 139.93936,280.83775   C 139.4998,276.48212 137.9014,273.20542 135.18413,271.00763   C 132.50683,268.76988 128.51084,267.651 123.23614,267.651   C 117.72169,267.651 113.7257,268.68996 111.20823,270.68795   C 108.73072,272.68594 107.45201,275.12349 107.45201,277.96064   C 107.45201,280.43815 108.33112,282.4761 110.12932,284.03453   C 111.88755,285.63293 116.44297,287.27128 123.83554,288.94959   C 131.18815,290.62791 136.26305,292.06646 139.02028,293.30522   C 143.01626,295.18333 145.97329,297.501 147.8514,300.33815   C 149.76948,303.13534 150.72851,306.41204 150.72851,310.08835   C 150.72851,313.72469 149.68956,317.2012 147.57168,320.39799   C 145.49377,323.63473 142.49679,326.1522 138.58072,327.9504   C 134.66466,329.74859 130.22911,330.62771 125.35401,330.62771   C 119.12028,330.62771 113.9255,329.74859 109.72972,327.9504   C 105.53393,326.11224 102.21727,323.39498 99.859637,319.75863   C 97.462047,316.12228 96.183332,312.00642 96.063452,307.41104   z  M 162.75642,329.46887   L 162.75642,260.81787   L 171.82731,260.81787   L 171.82731,321.35702   L 205.63333,321.35702   L 205.63333,329.46887   z  M 236.08273,329.46887   L 209.50943,260.81787   L 219.33956,260.81787   L 237.16164,310.68775   C 238.6002,314.68373 239.79899,318.43996 240.75803,321.91646   C 241.83694,318.2002 243.0757,314.44397 244.47429,310.68775   L 263.01566,260.81787   L 272.28634,260.81787   L 245.39337,329.46887   z "
     style="fill:#000000;fill-rule:evenodd;fill-opacity:1;stroke:none;" />
</svg>
