<?xml version="1.0" encoding="UTF-8" standalone="no"?>
<svg
   xmlns:dc="http://purl.org/dc/elements/1.1/"
   xmlns:cc="http://creativecommons.org/ns#"
   xmlns:rdf="http://www.w3.org/1999/02/22-rdf-syntax-ns#"
   xmlns:svg="http://www.w3.org/2000/svg"
   xmlns="http://www.w3.org/2000/svg"
   id="svg23"
   height="125.53mm"
   width="95.75mm"
   version="1.0">
  <metadata
     id="metadata27">
    <rdf:RDF>
      <cc:Work
         rdf:about="">
        <dc:format>image/svg+xml</dc:format>
        <dc:type
           rdf:resource="http://purl.org/dc/dcmitype/StillImage" />
      </cc:Work>
    </rdf:RDF>
  </metadata>
  <defs
     id="defs3">
    <pattern
       y="0"
       x="0"
       height="6"
       width="6"
       patternUnits="userSpaceOnUse"
       id="EMFhbasepattern" />
  </defs>
  <path
     id="path5"
     d="  M 307.53092,420.05783   C 307.53092,54.665059 54.345381,54.665059 54.345381,420.05783   z "
     style="fill:#80e0ff;fill-rule:evenodd;fill-opacity:1;stroke:none;" />
  <path
     id="path7"
     d="  M 307.53092,420.05783   C 307.53092,54.665059 54.345381,54.665059 54.345381,420.05783  "
     style="fill:none;stroke:#000000;stroke-width:9.5903616px;stroke-linecap:butt;stroke-linejoin:miter;stroke-miterlimit:10;stroke-dasharray:none;stroke-opacity:1;" />
  <path
     id="path9"
     d="  M 109.01044,189.88915   C 142.5767,127.55181 219.2996,127.55181 252.86586,189.88915   z "
     style="fill:#000000;fill-rule:evenodd;fill-opacity:1;stroke:none;" />
  <path
     id="path11"
     d="  M 109.01044,189.88915   C 142.5767,127.55181 219.2996,127.55181 252.86586,189.88915  "
     style="fill:none;stroke:#000000;stroke-width:0.95903611px;stroke-linecap:butt;stroke-linejoin:miter;stroke-miterlimit:10;stroke-dasharray:none;stroke-opacity:1;" />
  <path
     id="path13"
     d="  M 164.35482,214.38454   L 169.50964,213.94498   C 169.7494,215.98293 170.30883,217.7012 171.18795,219.01988   C 172.10703,220.33855 173.46566,221.37751 175.34377,222.21666   C 177.22188,223.01586 179.33976,223.41546 181.65743,223.41546   C 183.73534,223.41546 185.57349,223.13574 187.17188,222.49638   C 188.77028,221.89698 189.96907,221.01787 190.72831,219.97891   C 191.52751,218.9 191.88715,217.7012 191.88715,216.42249   C 191.88715,215.14377 191.52751,214.0249 190.76827,213.06586   C 190.00903,212.06686 188.77028,211.26767 187.05201,210.62831   C 185.97309,210.18875 183.49558,209.50943 179.73935,208.59036   C 175.94317,207.71124 173.30582,206.83213 171.78735,206.03293   C 169.82931,204.99397 168.3508,203.71526 167.39176,202.19678   C 166.43273,200.67831 165.95321,198.96004 165.95321,197.08192   C 165.95321,195.00401 166.51265,193.04598 167.71144,191.24779   C 168.87028,189.4496 170.62851,188.051 172.86626,187.13193   C 175.14397,186.17289 177.66144,185.73333 180.41867,185.73333   C 183.49558,185.73333 186.17289,186.21285 188.49056,187.21184   C 190.84819,188.17088 192.64638,189.60944 193.88514,191.52751   C 195.16385,193.44558 195.80321,195.60341 195.92309,198.04096   L 190.68835,198.44056   C 190.40863,195.80321 189.4496,193.84518 187.8512,192.5265   C 186.21285,191.20783 183.81526,190.52851 180.65843,190.52851   C 177.34176,190.52851 174.94417,191.12791 173.46566,192.3267   C 171.94719,193.56546 171.18795,195.00401 171.18795,196.72229   C 171.18795,198.2008 171.70743,199.3996 172.78634,200.35863   C 173.8253,201.31767 176.58253,202.31666 181.01807,203.31566   C 185.45361,204.31466 188.49056,205.19377 190.12891,205.91305   C 192.5265,207.03192 194.28474,208.43052 195.44357,210.10883   C 196.56245,211.82711 197.16184,213.78514 197.16184,215.98293   C 197.16184,218.18072 196.52249,220.25863 195.28373,222.1767   C 194.00502,224.13474 192.20682,225.61325 189.84919,226.69217   C 187.49156,227.77108 184.85421,228.33052 181.93715,228.33052   C 178.18092,228.33052 175.06405,227.77108 172.54658,226.69217   C 170.02911,225.61325 168.07108,223.9749 166.63253,221.77711   C 165.19397,219.61927 164.43474,217.14176 164.35482,214.38454   z "
     style="fill:#000000;fill-rule:evenodd;fill-opacity:1;stroke:none;" />
  <path
     id="path15"
     d="  M 124.35502,267.57108   C 124.35502,325.79257 156.08313,346.97128 209.02992,341.65662  "
     style="fill:none;stroke:#000000;stroke-width:10.589357px;stroke-linecap:butt;stroke-linejoin:miter;stroke-miterlimit:10;stroke-dasharray:none;stroke-opacity:1;" />
  <path
     id="path17"
     d="  M 129.62972,304.61385   L 129.62972,304.61385   L 187.8512,262.25642   L 187.8512,304.61385   L 246.11265,262.25642  "
     style="fill:none;stroke:#000000;stroke-width:10.589357px;stroke-linecap:butt;stroke-linejoin:miter;stroke-miterlimit:10;stroke-dasharray:none;stroke-opacity:1;" />
  <path
     id="path19"
     d="  M 75.204417,319.67871   L 75.204417,278.48012   L 105.01446,278.48012   L 105.01446,283.35522   L 80.678914,283.35522   L 80.678914,295.98253   L 103.45602,295.98253   L 103.45602,300.81767   L 80.678914,300.81767   L 80.678914,314.80361   L 105.97349,314.80361   L 105.97349,319.67871   z "
     style="fill:#000000;fill-rule:evenodd;fill-opacity:1;stroke:none;" />
  <path
     id="path21"
     d="  M 255.46325,306.452   L 260.61807,306.01245   C 260.85783,308.0504 261.41727,309.76867 262.29638,311.08734   C 263.21546,312.40602 264.57409,313.44498 266.4522,314.28413   C 268.33032,315.08333 270.44819,315.48293 272.76586,315.48293   C 274.84377,315.48293 276.68192,315.20321 278.28032,314.56385   C 279.87871,313.96445 281.07751,313.08534 281.83674,312.04638   C 282.63594,310.96747 282.99558,309.76867 282.99558,308.48996   C 282.99558,307.21124 282.63594,306.09237 281.8767,305.13333   C 281.11747,304.13433 279.87871,303.33514 278.16044,302.69578   C 277.08152,302.25622 274.60401,301.5769 270.84779,300.65783   C 267.0516,299.77871 264.41425,298.89959 262.89578,298.1004   C 260.93775,297.06144 259.45923,295.78273 258.5002,294.26425   C 257.54116,292.74578 257.06164,291.02751 257.06164,289.14939   C 257.06164,287.07148 257.62108,285.11345 258.81988,283.31526   C 259.97871,281.51706 261.73694,280.11847 263.97469,279.19939   C 266.25241,278.24036 268.76988,277.8008 271.5271,277.8008   C 274.60401,277.8008 277.28132,278.28032 279.59899,279.27931   C 281.95662,280.23835 283.75482,281.6769 284.99357,283.59498   C 286.27229,285.51305 286.91164,287.67088 287.03152,290.10843   L 281.79678,290.50803   C 281.51706,287.87068 280.55803,285.91265 278.95963,284.59397   C 277.32128,283.2753 274.92369,282.59598 271.76686,282.59598   C 268.4502,282.59598 266.05261,283.19538 264.57409,284.39417   C 263.05562,285.63293 262.29638,287.07148 262.29638,288.78975   C 262.29638,290.26827 262.81586,291.46706 263.89478,292.4261   C 264.93373,293.38514 267.69096,294.38413 272.1265,295.38313   C 276.56204,296.38212 279.59899,297.26124 281.23735,297.98052   C 283.63494,299.09939 285.39317,300.49799 286.552,302.1763   C 287.67088,303.89457 288.27028,305.85261 288.27028,308.0504   C 288.27028,310.24819 287.63092,312.3261 286.39216,314.24417   C 285.11345,316.2022 283.31526,317.68072 280.95763,318.75963   C 278.6,319.83855 275.96265,320.39799 273.04558,320.39799   C 269.28935,320.39799 266.17249,319.83855 263.65502,318.75963   C 261.13755,317.68072 259.17951,316.04236 257.74096,313.84457   C 256.30241,311.68674 255.54317,309.20923 255.46325,306.452   z "
     style="fill:#000000;fill-rule:evenodd;fill-opacity:1;stroke:none;" />
</svg>
