<?xml version="1.0" encoding="UTF-8" standalone="no"?>
<svg
   xmlns:dc="http://purl.org/dc/elements/1.1/"
   xmlns:cc="http://creativecommons.org/ns#"
   xmlns:rdf="http://www.w3.org/1999/02/22-rdf-syntax-ns#"
   xmlns:svg="http://www.w3.org/2000/svg"
   xmlns="http://www.w3.org/2000/svg"
   id="svg31"
   height="101.85mm"
   width="95.75mm"
   version="1.0">
  <metadata
     id="metadata35">
    <rdf:RDF>
      <cc:Work
         rdf:about="">
        <dc:format>image/svg+xml</dc:format>
        <dc:type
           rdf:resource="http://purl.org/dc/dcmitype/StillImage" />
      </cc:Work>
    </rdf:RDF>
  </metadata>
  <defs
     id="defs3">
    <pattern
       y="0"
       x="0"
       height="6"
       width="6"
       patternUnits="userSpaceOnUse"
       id="EMFhbasepattern" />
  </defs>
  <path
     id="path5"
     d="  M 54.345381,54.345381   L 54.345381,330.54779   L 307.53092,330.54779   L 307.53092,54.345381   L 54.345381,54.345381   z "
     style="fill:#aaffaa;fill-rule:evenodd;fill-opacity:1;stroke:none;" />
  <path
     id="path7"
     d="  M 54.345381,330.54779   L 54.345381,54.345381   L 307.53092,54.345381   L 307.53092,330.54779  "
     style="fill:none;stroke:#000000;stroke-width:9.5903616px;stroke-linecap:butt;stroke-linejoin:miter;stroke-miterlimit:10;stroke-dasharray:none;stroke-opacity:1;" />
  <path
     id="path9"
     d="  M 53.386345,54.345381   L 53.386345,100.37912   L 306.57188,100.37912   L 306.57188,54.345381   L 53.386345,54.345381   z "
     style="fill:#000000;fill-rule:evenodd;fill-opacity:1;stroke:none;" />
  <path
     id="path11"
     d="  M 53.386345,54.345381   L 306.57188,54.345381   L 306.57188,100.37912   L 53.386345,100.37912   z "
     style="fill:none;stroke:#000000;stroke-width:0.95903611px;stroke-linecap:butt;stroke-linejoin:miter;stroke-miterlimit:10;stroke-dasharray:none;stroke-opacity:1;" />
  <path
     id="path13"
     d="  M 164.35482,124.8745   L 169.50964,124.43494   C 169.7494,126.47289 170.30883,128.19116 171.18795,129.50984   C 172.10703,130.82851 173.46566,131.86747 175.34377,132.70662   C 177.22188,133.50582 179.33976,133.90542 181.65743,133.90542   C 183.73534,133.90542 185.57349,133.6257 187.17188,132.98634   C 188.77028,132.38695 189.96907,131.50783 190.72831,130.46887   C 191.52751,129.38996 191.88715,128.19116 191.88715,126.91245   C 191.88715,125.63373 191.52751,124.51486 190.76827,123.55582   C 190.00903,122.55683 188.77028,121.75763 187.05201,121.11827   C 185.97309,120.67871 183.49558,119.9994 179.73935,119.08032   C 175.94317,118.2012 173.30582,117.32209 171.78735,116.52289   C 169.82931,115.48393 168.3508,114.20522 167.39176,112.68675   C 166.43273,111.16827 165.95321,109.45 165.95321,107.57189   C 165.95321,105.49397 166.51265,103.53594 167.71144,101.73775   C 168.87028,99.939557 170.62851,98.540962 172.86626,97.621886   C 175.14397,96.66285 177.66144,96.223292 180.41867,96.223292   C 183.49558,96.223292 186.17289,96.70281 188.49056,97.701806   C 190.84819,98.660842 192.64638,100.0994 193.88514,102.01747   C 195.16385,103.93554 195.80321,106.09337 195.92309,108.53092   L 190.68835,108.93052   C 190.40863,106.29317 189.4496,104.33514 187.8512,103.01646   C 186.21285,101.69779 183.81526,101.01847 180.65843,101.01847   C 177.34176,101.01847 174.94417,101.61787 173.46566,102.81667   C 171.94719,104.05542 171.18795,105.49397 171.18795,107.21225   C 171.18795,108.69076 171.70743,109.88956 172.78634,110.84859   C 173.8253,111.80763 176.58253,112.80662 181.01807,113.80562   C 185.45361,114.80462 188.49056,115.68373 190.12891,116.40301   C 192.5265,117.52189 194.28474,118.92048 195.44357,120.59879   C 196.56245,122.31707 197.16184,124.2751 197.16184,126.47289   C 197.16184,128.67068 196.52249,130.74859 195.28373,132.66666   C 194.00502,134.6247 192.20682,136.10321 189.84919,137.18213   C 187.49156,138.26104 184.85421,138.82048 181.93715,138.82048   C 178.18092,138.82048 175.06405,138.26104 172.54658,137.18213   C 170.02911,136.10321 168.07108,134.46486 166.63253,132.26707   C 165.19397,130.10924 164.43474,127.63173 164.35482,124.8745   z "
     style="fill:#000000;fill-rule:evenodd;fill-opacity:1;stroke:none;" />
  <path
     id="path15"
     d="  M 155.04417,316.16224   L 205.87309,316.16224  "
     style="fill:none;stroke:#000000;stroke-width:9.5903616px;stroke-linecap:butt;stroke-linejoin:miter;stroke-miterlimit:10;stroke-dasharray:none;stroke-opacity:1;" />
  <path
     id="path17"
     d="  M 180.93815,316.16224   L 180.93815,196.28273  "
     style="fill:none;stroke:#000000;stroke-width:9.5903616px;stroke-linecap:butt;stroke-linejoin:miter;stroke-miterlimit:10;stroke-dasharray:none;stroke-opacity:1;" />
  <path
     id="path19"
     d="  M 171.34779,178.06104   L 134.90442,165.59357   L 145.45381,149.28996   L 111.88755,138.74056  "
     style="fill:none;stroke:#000000;stroke-width:9.5903616px;stroke-linecap:butt;stroke-linejoin:miter;stroke-miterlimit:10;stroke-dasharray:none;stroke-opacity:1;" />
  <path
     id="path21"
     d="  M 190.52851,178.06104   L 226.97188,165.59357   L 216.42249,149.28996   L 249.98875,138.74056  "
     style="fill:none;stroke:#000000;stroke-width:9.5903616px;stroke-linecap:butt;stroke-linejoin:miter;stroke-miterlimit:10;stroke-dasharray:none;stroke-opacity:1;" />
  <path
     id="path23"
     d="  M 171.34779,191.48755   L 134.90442,204.91405   L 145.45381,220.25863   L 111.88755,231.76706  "
     style="fill:none;stroke:#000000;stroke-width:9.5903616px;stroke-linecap:butt;stroke-linejoin:miter;stroke-miterlimit:10;stroke-dasharray:none;stroke-opacity:1;" />
  <path
     id="path25"
     d="  M 190.52851,191.48755   L 226.97188,204.91405   L 216.42249,220.25863   L 249.98875,231.76706  "
     style="fill:none;stroke:#000000;stroke-width:9.5903616px;stroke-linecap:butt;stroke-linejoin:miter;stroke-miterlimit:10;stroke-dasharray:none;stroke-opacity:1;" />
  <path
     id="path27"
     d="  M 125.99337,273.5251   L 131.14819,273.08554   C 131.38795,275.12349 131.94739,276.84176 132.8265,278.16044   C 133.74558,279.47911 135.10421,280.51807 136.98233,281.35722   C 138.86044,282.15642 140.97831,282.55602 143.29598,282.55602   C 145.37389,282.55602 147.21205,282.2763 148.81044,281.63694   C 150.40883,281.03755 151.60763,280.15843 152.36687,279.11947   C 153.16606,278.04056 153.5257,276.84176 153.5257,275.56305   C 153.5257,274.28433 153.16606,273.16546 152.40683,272.20642   C 151.64759,271.20743 150.40883,270.40823 148.69056,269.76887   C 147.61164,269.32931 145.13413,268.65 141.37791,267.73092   C 137.58172,266.8518 134.94438,265.97269 133.4259,265.17349   C 131.46787,264.13453 129.98936,262.85582 129.03032,261.33735   C 128.07128,259.81887 127.59177,258.1006 127.59177,256.22249   C 127.59177,254.14457 128.1512,252.18654 129.35,250.38835   C 130.50883,248.59016 132.26707,247.19156 134.50482,246.27249   C 136.78253,245.31345 139.3,244.87389 142.05723,244.87389   C 145.13413,244.87389 147.81144,245.35341 150.12911,246.35241   C 152.48674,247.31144 154.28494,248.75 155.52369,250.66807   C 156.80241,252.58614 157.44176,254.74397 157.56164,257.18152   L 152.32691,257.58112   C 152.04719,254.94377 151.08815,252.98574 149.48976,251.66706   C 147.8514,250.34839 145.45381,249.66907 142.29699,249.66907   C 138.98032,249.66907 136.58273,250.26847 135.10421,251.46727   C 133.58574,252.70602 132.8265,254.14457 132.8265,255.86285   C 132.8265,257.34136 133.34598,258.54016 134.4249,259.49919   C 135.46385,260.45823 138.22108,261.45723 142.65662,262.45622   C 147.09217,263.45522 150.12911,264.33433 151.76747,265.05361   C 154.16506,266.17249 155.92329,267.57108 157.08213,269.24939   C 158.201,270.96767 158.8004,272.9257 158.8004,275.12349   C 158.8004,277.32128 158.16104,279.39919 156.92229,281.31727   C 155.64357,283.2753 153.84538,284.75381 151.48775,285.83273   C 149.13012,286.91164 146.49277,287.47108 143.5757,287.47108   C 139.81948,287.47108 136.70261,286.91164 134.18514,285.83273   C 131.66767,284.75381 129.70964,283.11546 128.27108,280.91767   C 126.83253,278.75984 126.07329,276.28233 125.99337,273.5251   z "
     style="fill:#000000;fill-rule:evenodd;fill-opacity:1;stroke:none;" />
  <path
     id="path29"
     d="  M 204.59437,286.7518   L 204.59437,245.55321   L 218.78012,245.55321   C 221.9769,245.55321 224.41445,245.75301 226.09277,246.15261   C 228.4504,246.71204 230.48835,247.67108 232.1267,249.10963   C 234.32449,250.94779 235.92289,253.30542 237.0018,256.14257   C 238.08072,259.01967 238.64016,262.25642 238.64016,265.93273   C 238.64016,269.04959 238.28052,271.84678 237.52128,274.24437   C 236.802,276.68192 235.88293,278.67992 234.72409,280.23835   C 233.56526,281.83674 232.3265,283.0755 230.96787,283.99457   C 229.60923,284.91365 227.97088,285.59297 226.05281,286.07249   C 224.13474,286.51204 221.93694,286.7518 219.45943,286.7518   z  M 210.02891,281.8767   L 218.82008,281.8767   C 221.53735,281.8767 223.65522,281.63694 225.21365,281.11747   C 226.77209,280.63795 228.01084,279.91867 228.88996,278.99959   C 230.20863,277.72088 231.20763,275.96265 231.9269,273.80482   C 232.64618,271.60702 233.00582,268.96967 233.00582,265.85281   C 233.00582,261.53714 232.28654,258.22048 230.88795,255.90281   C 229.48935,253.6251 227.77108,252.06666 225.73313,251.26747   C 224.25462,250.70803 221.93694,250.42831 218.7002,250.42831   L 210.02891,250.42831   z "
     style="fill:#000000;fill-rule:evenodd;fill-opacity:1;stroke:none;" />
</svg>
