<?xml version="1.0" encoding="UTF-8" standalone="no"?>
<svg
   xmlns:dc="http://purl.org/dc/elements/1.1/"
   xmlns:cc="http://creativecommons.org/ns#"
   xmlns:rdf="http://www.w3.org/1999/02/22-rdf-syntax-ns#"
   xmlns:svg="http://www.w3.org/2000/svg"
   xmlns="http://www.w3.org/2000/svg"
   id="svg23"
   height="125.53mm"
   width="95.75mm"
   version="1.0">
  <metadata
     id="metadata27">
    <rdf:RDF>
      <cc:Work
         rdf:about="">
        <dc:format>image/svg+xml</dc:format>
        <dc:type
           rdf:resource="http://purl.org/dc/dcmitype/StillImage" />
      </cc:Work>
    </rdf:RDF>
  </metadata>
  <defs
     id="defs3">
    <pattern
       y="0"
       x="0"
       height="6"
       width="6"
       patternUnits="userSpaceOnUse"
       id="EMFhbasepattern" />
  </defs>
  <path
     id="path5"
     d="  M 307.53092,420.05783   C 307.53092,54.665059 54.345381,54.665059 54.345381,420.05783   z "
     style="fill:#80e0ff;fill-rule:evenodd;fill-opacity:1;stroke:none;" />
  <path
     id="path7"
     d="  M 307.53092,420.05783   C 307.53092,54.665059 54.345381,54.665059 54.345381,420.05783  "
     style="fill:none;stroke:#000000;stroke-width:9.5903616px;stroke-linecap:butt;stroke-linejoin:miter;stroke-miterlimit:10;stroke-dasharray:none;stroke-opacity:1;" />
  <path
     id="path9"
     d="  M 109.01044,189.88915   C 142.5767,127.55181 219.2996,127.55181 252.86586,189.88915   z "
     style="fill:#000000;fill-rule:evenodd;fill-opacity:1;stroke:none;" />
  <path
     id="path11"
     d="  M 109.01044,189.88915   C 142.5767,127.55181 219.2996,127.55181 252.86586,189.88915  "
     style="fill:none;stroke:#000000;stroke-width:0.95903611px;stroke-linecap:butt;stroke-linejoin:miter;stroke-miterlimit:10;stroke-dasharray:none;stroke-opacity:1;" />
  <path
     id="path13"
     d="  M 164.35482,214.38454   L 169.50964,213.94498   C 169.7494,215.98293 170.30883,217.7012 171.18795,219.01988   C 172.10703,220.33855 173.46566,221.37751 175.34377,222.21666   C 177.22188,223.01586 179.33976,223.41546 181.65743,223.41546   C 183.73534,223.41546 185.57349,223.13574 187.17188,222.49638   C 188.77028,221.89698 189.96907,221.01787 190.72831,219.97891   C 191.52751,218.9 191.88715,217.7012 191.88715,216.42249   C 191.88715,215.14377 191.52751,214.0249 190.76827,213.06586   C 190.00903,212.06686 188.77028,211.26767 187.05201,210.62831   C 185.97309,210.18875 183.49558,209.50943 179.73935,208.59036   C 175.94317,207.71124 173.30582,206.83213 171.78735,206.03293   C 169.82931,204.99397 168.3508,203.71526 167.39176,202.19678   C 166.43273,200.67831 165.95321,198.96004 165.95321,197.08192   C 165.95321,195.00401 166.51265,193.04598 167.71144,191.24779   C 168.87028,189.4496 170.62851,188.051 172.86626,187.13193   C 175.14397,186.17289 177.66144,185.73333 180.41867,185.73333   C 183.49558,185.73333 186.17289,186.21285 188.49056,187.21184   C 190.84819,188.17088 192.64638,189.60944 193.88514,191.52751   C 195.16385,193.44558 195.80321,195.60341 195.92309,198.04096   L 190.68835,198.44056   C 190.40863,195.80321 189.4496,193.84518 187.8512,192.5265   C 186.21285,191.20783 183.81526,190.52851 180.65843,190.52851   C 177.34176,190.52851 174.94417,191.12791 173.46566,192.3267   C 171.94719,193.56546 171.18795,195.00401 171.18795,196.72229   C 171.18795,198.2008 171.70743,199.3996 172.78634,200.35863   C 173.8253,201.31767 176.58253,202.31666 181.01807,203.31566   C 185.45361,204.31466 188.49056,205.19377 190.12891,205.91305   C 192.5265,207.03192 194.28474,208.43052 195.44357,210.10883   C 196.56245,211.82711 197.16184,213.78514 197.16184,215.98293   C 197.16184,218.18072 196.52249,220.25863 195.28373,222.1767   C 194.00502,224.13474 192.20682,225.61325 189.84919,226.69217   C 187.49156,227.77108 184.85421,228.33052 181.93715,228.33052   C 178.18092,228.33052 175.06405,227.77108 172.54658,226.69217   C 170.02911,225.61325 168.07108,223.9749 166.63253,221.77711   C 165.19397,219.61927 164.43474,217.14176 164.35482,214.38454   z "
     style="fill:#000000;fill-rule:evenodd;fill-opacity:1;stroke:none;" />
  <path
     id="path15"
     d="  M 124.35502,267.57108   C 124.35502,325.79257 156.08313,346.97128 209.02992,341.65662  "
     style="fill:none;stroke:#000000;stroke-width:10.589357px;stroke-linecap:butt;stroke-linejoin:miter;stroke-miterlimit:10;stroke-dasharray:none;stroke-opacity:1;" />
  <path
     id="path17"
     d="  M 129.62972,304.61385   L 129.62972,304.61385   L 187.8512,262.25642   L 187.8512,304.61385   L 246.11265,262.25642  "
     style="fill:none;stroke:#000000;stroke-width:10.589357px;stroke-linecap:butt;stroke-linejoin:miter;stroke-miterlimit:10;stroke-dasharray:none;stroke-opacity:1;" />
  <path
     id="path19"
     d="  M 79.919678,319.67871   L 79.919678,278.48012   L 94.10542,278.48012   C 97.302207,278.48012 99.739758,278.67992 101.41807,279.07951   C 103.7757,279.63895 105.81365,280.59799 107.45201,282.03654   C 109.6498,283.87469 111.24819,286.23233 112.32711,289.06947   C 113.40602,291.94658 113.96546,295.18333 113.96546,298.85963   C 113.96546,301.9765 113.60582,304.77369 112.84658,307.17128   C 112.12731,309.60883 111.20823,311.60682 110.0494,313.16526   C 108.89056,314.76365 107.65181,316.00241 106.29317,316.92148   C 104.93454,317.84056 103.29618,318.51987 101.37811,318.99939   C 99.460039,319.43895 97.262248,319.67871 94.784738,319.67871   z  M 85.354216,314.80361   L 94.14538,314.80361   C 96.862649,314.80361 98.980521,314.56385 100.53895,314.04437   C 102.09739,313.56485 103.33614,312.84558 104.21526,311.9265   C 105.53393,310.64779 106.53293,308.88955 107.25221,306.73172   C 107.97148,304.53393 108.33112,301.89658 108.33112,298.77971   C 108.33112,294.46405 107.61185,291.14739 106.21325,288.82971   C 104.81466,286.552 103.09638,284.99357 101.05843,284.19437   C 99.579918,283.63494 97.262248,283.35522 94.025501,283.35522   L 85.354216,283.35522   z "
     style="fill:#000000;fill-rule:evenodd;fill-opacity:1;stroke:none;" />
  <path
     id="path21"
     d="  M 263.01566,319.67871   L 263.01566,283.35522   L 249.42931,283.35522   L 249.42931,278.48012   L 282.0765,278.48012   L 282.0765,283.35522   L 268.4502,283.35522   L 268.4502,319.67871   z "
     style="fill:#000000;fill-rule:evenodd;fill-opacity:1;stroke:none;" />
</svg>
