<?xml version="1.0" encoding="UTF-8" standalone="no"?>
<svg
   xmlns:dc="http://purl.org/dc/elements/1.1/"
   xmlns:cc="http://creativecommons.org/ns#"
   xmlns:rdf="http://www.w3.org/1999/02/22-rdf-syntax-ns#"
   xmlns:svg="http://www.w3.org/2000/svg"
   xmlns="http://www.w3.org/2000/svg"
   id="svg23"
   height="116.06mm"
   width="135.35001mm"
   version="1.0">
  <metadata
     id="metadata27">
    <rdf:RDF>
      <cc:Work
         rdf:about="">
        <dc:format>image/svg+xml</dc:format>
        <dc:type
           rdf:resource="http://purl.org/dc/dcmitype/StillImage" />
      </cc:Work>
    </rdf:RDF>
  </metadata>
  <defs
     id="defs3">
    <pattern
       y="0"
       x="0"
       height="6"
       width="6"
       patternUnits="userSpaceOnUse"
       id="EMFhbasepattern" />
  </defs>
  <path
     id="path5"
     d="  M 337.26104,384.25381   C 457.14056,384.25381 457.14056,187.6514 337.26104,187.6514   C 337.26104,54.345381 174.2249,54.345381 174.2249,187.6514   C 54.345381,187.6514 54.345381,384.25381 174.2249,384.25381   z "
     style="fill:#ffff80;fill-rule:evenodd;fill-opacity:1;stroke:none;" />
  <path
     id="path7"
     d="  M 337.26104,384.25381   C 457.14056,384.25381 457.14056,187.6514 337.26104,187.6514   C 337.26104,54.345381 174.2249,54.345381 174.2249,187.6514   C 54.345381,187.6514 54.345381,384.25381 174.2249,384.25381  "
     style="fill:none;stroke:#000000;stroke-width:9.5903616px;stroke-linecap:butt;stroke-linejoin:miter;stroke-miterlimit:10;stroke-dasharray:none;stroke-opacity:1;" />
  <path
     id="path9"
     d="  M 179.02008,154.08514   C 207.79116,62.976706 303.69477,62.976706 332.46586,154.08514   z "
     style="fill:#000000;fill-rule:evenodd;fill-opacity:1;stroke:none;" />
  <path
     id="path11"
     d="  M 179.02008,154.08514   C 207.79116,62.976706 303.69477,62.976706 332.46586,154.08514  "
     style="fill:none;stroke:#000000;stroke-width:0.95903611px;stroke-linecap:butt;stroke-linejoin:miter;stroke-miterlimit:10;stroke-dasharray:none;stroke-opacity:1;" />
  <path
     id="path13"
     d="  M 255.74297,245.19357   C 150.24899,264.37429 150.24899,278.75984 255.74297,310.40803   C 370.8273,269.16947 370.8273,278.75984 255.74297,245.19357  "
     style="fill:none;stroke:#ffffff;stroke-width:19.180723px;stroke-linecap:butt;stroke-linejoin:miter;stroke-miterlimit:10;stroke-dasharray:none;stroke-opacity:1;" />
  <path
     id="path15"
     d="  M 159.83936,273.96465   C 255.74297,249.98875 255.74297,249.98875 332.46586,259.57911  "
     style="fill:none;stroke:#ffffff;stroke-width:14.385542px;stroke-linecap:butt;stroke-linejoin:miter;stroke-miterlimit:10;stroke-dasharray:none;stroke-opacity:1;" />
  <path
     id="path17"
     d="  M 164.63454,293.14538   C 236.56225,333.42489 255.74297,333.42489 349.72851,297.94056  "
     style="fill:none;stroke:#ffffff;stroke-width:19.180723px;stroke-linecap:butt;stroke-linejoin:miter;stroke-miterlimit:10;stroke-dasharray:none;stroke-opacity:1;" />
  <path
     id="path19"
     d="  M 262.61606,217.34156   C 262.61606,218.14076 262.61606,219.13976 262.61606,220.21867   L 255.54317,223.53534   C 257.74096,226.852 259.97871,231.12771 262.1765,236.36245   C 275.44317,237.2016 288.70984,238.72008 301.9765,240.91787   C 330.66767,245.35341 347.251,254.62409 351.68654,268.68996   C 351.96626,269.24939 352.08614,274.76385 352.08614,285.27329   C 352.08614,285.55301 352.08614,286.43212 352.08614,287.9506   C 352.08614,289.46907 352.08614,290.94759 352.08614,292.30622   C 352.36586,296.74176 352.20602,300.05843 351.68654,302.25622   C 350.84738,306.41204 347.97028,310.28815 342.9753,313.88453   C 336.06224,319.39899 329.42891,322.99538 323.0753,324.63373   C 319.75863,325.47289 307.33112,327.9504 285.79277,332.10622   C 279.43915,333.18514 269.64899,333.74457 256.38233,333.74457   C 242.03674,333.74457 224.05482,331.8265 202.55642,327.9504   C 199.75923,327.39096 195.48353,326.31204 189.68935,324.63373   C 172.54658,318.83955 162.75642,311.08734 160.27891,301.45702   C 159.99919,299.77871 159.83936,296.74176 159.83936,292.30622   C 159.83936,291.22731 159.99919,289.82871 160.27891,288.19036   C 160.27891,286.51204 160.27891,285.63293 160.27891,285.47309   C 160.27891,285.35321 160.27891,284.43413 160.27891,282.79578   C 159.99919,281.15743 159.83936,279.75883 159.83936,278.63996   C 159.55964,274.24437 159.83936,271.20743 160.67851,269.52911   C 164.83433,257.1016 177.10201,248.5502 197.56144,243.83494   C 200.03895,243.31546 203.63534,242.59618 208.3506,241.75702   C 226.29257,238.48032 238.28052,236.802 244.39437,236.802   C 247.1516,231.28755 248.67008,226.61225 248.90984,222.69618   L 212.86606,238.04076   C 208.19076,237.2016 204.03494,234.72409 200.43855,230.56827   L 244.39437,212.34658   C 245.19357,212.10682 245.91285,211.66727 246.43233,211.10783   L 248.11064,209.86907   C 247.5512,209.30964 246.87188,208.79016 246.03273,208.19076   L 246.03273,204.0749   L 249.74899,204.0749   C 250.02871,202.71626 250.18855,199.3996 250.18855,194.1249   C 251.8269,194.68433 254.18453,195.52349 257.22148,196.60241   C 257.22148,196.88213 257.22148,200.07891 257.22148,206.15281   L 292.4261,192.44658   C 294.90361,193.56546 298.89959,195.64337 304.45401,198.68032   C 301.65682,200.07891 287.7508,206.27269 262.61606,217.34156   z  M 347.97028,284.87369   C 333.0253,302.25622 302.3761,310.96747 255.98273,310.96747   C 210.10883,310.96747 179.45964,302.13634 163.99518,284.43413   C 163.99518,286.39216 163.8753,288.94959 163.59558,292.10642   C 163.31586,295.30321 163.19598,297.14136 163.19598,297.7008   C 163.19598,299.09939 164.91425,301.7767 168.3508,305.77269   C 171.78735,309.76867 174.34478,312.36606 176.02309,313.44498   C 182.3767,317.04136 187.61144,319.51887 191.76727,320.91747   C 194.80421,321.75662 199.07992,322.83554 204.59437,324.23413   L 237.32148,330.02831   C 237.88092,330.02831 244.23453,330.02831 256.38233,330.02831   C 267.17148,330.02831 272.00662,330.02831 270.88775,330.02831   C 274.76385,329.74859 281.95662,328.62971 292.4261,326.71164   C 299.05943,325.59277 308.60983,323.67469 321.03734,320.91747   C 327.67068,318.95943 333.94437,315.60281 339.89839,310.76767   C 345.81244,305.93253 348.80943,301.5769 348.80943,297.7008   C 348.80943,296.06245 348.64959,293.82469 348.36987,291.06747   C 348.09016,288.31024 347.97028,286.23233 347.97028,284.87369   z  M 312.7257,247.5512   C 308.84959,246.752 301.25722,245.35341 289.94859,243.43534   C 276.4022,241.23755 267.97068,240.11867 264.65401,240.11867   L 264.25441,240.11867   C 265.61305,242.8759 266.4522,244.79397 266.73192,245.91285   C 268.13052,246.19257 273.48514,247.1516 282.91566,248.82992   C 291.46706,249.90883 298.38012,251.30743 303.61486,252.94578   C 316.88152,257.38132 323.51485,263.73494 323.51485,272.00662   C 323.51485,282.79578 312.84558,290.26827 291.58694,294.38413   C 280.55803,296.62188 268.80984,297.7008 256.38233,297.7008   C 249.22951,297.7008 242.8759,297.38112 237.32148,296.66184   C 231.80702,295.98253 224.21466,294.66385 214.54437,292.74578   C 212.6263,291.6269 209.78915,290.46807 206.03293,289.22931   C 202.31666,287.99056 198.72028,285.51305 195.28373,281.75682   C 191.80723,278.04056 190.08895,274.76385 190.08895,272.00662   C 190.08895,264.29437 197.12188,257.94076 211.22771,252.94578   C 220.33855,249.66907 230.84799,247.43132 242.71606,246.35241   C 242.99578,244.95381 243.39538,243.15562 243.95482,240.95783   L 236.52229,240.95783   C 238.44036,240.95783 234.00482,241.75702 223.25562,243.43534   C 212.46646,245.07369 204.51445,246.39237 199.3996,247.3514   C 194.28474,248.3504 187.73132,251.14759 179.73935,255.86285   C 169.22992,261.93674 163.99518,268.01064 163.99518,274.08453   C 163.99518,281.83674 171.74739,288.86967 187.21184,295.22329   C 197.96104,299.93855 205.71325,302.41606 210.38855,302.69578   C 211.50743,302.9755 218.14076,303.93453 230.28855,305.57289   C 238.28052,306.69176 246.87188,307.2512 255.98273,307.2512   C 273.92469,307.2512 291.46706,305.29317 308.60983,301.45702   C 314.68373,300.05843 321.71666,297.3012 329.70863,293.14538   C 342.13614,287.07148 348.36987,280.59799 348.36987,273.68494   C 348.36987,268.4502 343.93433,262.89578 335.10321,257.1016   C 327.63072,252.14658 320.19819,248.9498 312.7257,247.5512   z  M 193.84518,272.00662   C 193.84518,272.56606 194.64437,273.80482 196.32269,275.72289   C 202.39658,270.48815 216.18273,265.65301 237.76104,261.25743   C 238.56024,258.46024 239.79899,254.46425 241.47731,249.22951   L 242.31646,250.02871   C 209.98895,255.58313 193.84518,262.89578 193.84518,272.00662   z  M 233.60522,265.81285   C 230.84799,265.81285 223.65522,267.73092 212.06686,271.60702   C 206.79217,273.24538 202.39658,275.88273 198.8002,279.47911   C 205.95301,284.99357 216.18273,288.98955 229.44939,291.50702   L 236.52229,265.81285   z  M 244.79397,216.902   L 208.3506,231.80702   C 210.82811,233.48534 212.18674,234.32449 212.46646,234.32449   C 213.0259,234.32449 224.89397,228.92992 248.11064,218.14076   z  M 271.28735,266.21245   C 263.5751,265.09357 256.10261,264.57409 248.90984,264.57409   C 241.75702,264.57409 239.11968,264.69397 241.03775,264.97369   L 233.60522,292.70582   C 233.84498,292.70582 236.92188,293.14538 242.71606,293.98453   C 243.55522,293.98453 248.11064,293.98453 256.38233,293.98453   C 265.49317,293.98453 274.60401,293.14538 283.71486,291.46706   C 280.95763,285.43313 276.8018,277.0016 271.28735,266.21245   z  M 253.90482,255.02369   C 253.90482,252.54618 253.90482,250.74799 253.90482,249.62911   L 248.11064,250.02871   C 246.99176,250.02871 246.15261,250.02871 245.63313,250.02871   C 244.79397,253.6251 243.79498,257.22148 242.71606,260.81787   C 246.83192,260.53815 250.58815,260.69799 253.90482,261.25743   C 253.90482,259.57911 253.90482,257.54116 253.90482,255.02369   z  M 251.8269,240.11867   L 248.51024,240.11867   C 248.23052,241.19759 247.9508,242.31646 247.67108,243.43534   L 246.83192,245.91285   C 249.34939,245.63313 251.26747,245.51325 252.66606,245.51325   C 252.38634,243.31546 252.10662,241.47731 251.8269,240.11867   z  M 250.98775,231.40743   C 250.70803,232.80602 250.18855,234.44437 249.34939,236.40241   L 251.42731,236.40241   L 251.8269,235.96285   C 251.54719,235.12369 251.26747,233.60522 250.98775,231.40743   z  M 254.74397,214.0249   C 253.90482,214.30462 253.06566,214.70421 252.2265,215.26365   L 252.66606,215.26365   L 253.90482,216.10281   C 254.70401,216.66225 255.54317,217.34156 256.38233,218.14076   L 256.78192,218.14076   C 255.98273,216.50241 255.26345,215.14377 254.74397,214.0249   z  M 255.54317,233.48534   C 255.02369,232.1267 254.18453,230.16867 253.06566,227.69116   L 254.74397,227.29156   C 254.74397,227.57128 254.78393,227.97088 254.94377,228.53032   C 255.06365,229.08976 255.26345,230.44839 255.54317,232.64618   L 255.54317,233.48534   z  M 255.54317,233.48534   C 255.82289,234.60421 255.82289,235.56325 255.54317,236.40241   L 256.82188,236.40241   z  M 259.29939,240.51827   L 256.38233,240.51827   C 256.66204,241.63715 256.78192,243.15562 256.78192,245.07369   L 261.7769,245.07369   C 260.65803,243.71506 259.81887,242.19658 259.29939,240.51827   z  M 294.90361,198.28072   C 293.82469,197.72128 292.98554,197.44156 292.4261,197.44156   C 291.06747,197.44156 279.59899,202.15682 258.02068,211.50743   L 258.85984,212.78614   L 259.29939,213.58534   L 259.69899,214.0249   L 295.74277,198.28072   z  M 261.7769,249.22951   L 258.46024,249.22951   C 257.9008,254.18453 257.9008,258.22048 258.46024,261.25743   C 262.5761,261.25743 266.17249,261.37731 269.24939,261.65702   C 265.89277,253.38534 263.41526,249.22951 261.7769,249.22951   z  M 301.13735,257.1016   C 300.57791,256.82188 293.94457,255.30341 281.23735,252.54618   L 270.48815,250.02871   L 268.41024,250.02871   L 274.60401,262.05662   C 294.50401,263.45522 309.00943,268.01064 318.12028,275.72289   C 319.23915,274.08453 319.79859,272.84578 319.79859,272.00662   C 319.75863,266.21245 313.56485,261.25743 301.13735,257.1016   z  M 276.28233,266.21245   C 277.36124,267.89076 281.39718,275.88273 288.31024,290.22831   C 297.66084,289.98855 306.81164,286.39216 315.64277,279.47911   C 308.72971,273.1255 295.58293,268.68996 276.28233,266.21245   z "
     style="fill:#ffffff;fill-rule:evenodd;fill-opacity:1;stroke:none;" />
  <path
     id="path21"
     d="  M 262.61606,217.34156   C 262.61606,218.14076 262.61606,219.13976 262.61606,220.21867   L 255.54317,223.53534   C 257.74096,226.852 259.97871,231.12771 262.1765,236.36245   C 275.44317,237.2016 288.70984,238.72008 301.9765,240.91787   C 330.66767,245.35341 347.251,254.62409 351.68654,268.68996   C 351.96626,269.24939 352.08614,274.76385 352.08614,285.27329   C 352.08614,285.55301 352.08614,286.43212 352.08614,287.9506   C 352.08614,289.46907 352.08614,290.94759 352.08614,292.30622   C 352.36586,296.74176 352.20602,300.05843 351.68654,302.25622   C 350.84738,306.41204 347.97028,310.28815 342.9753,313.88453   C 336.06224,319.39899 329.42891,322.99538 323.0753,324.63373   C 319.75863,325.47289 307.33112,327.9504 285.79277,332.10622   C 279.43915,333.18514 269.64899,333.74457 256.38233,333.74457   C 242.03674,333.74457 224.05482,331.8265 202.55642,327.9504   C 199.75923,327.39096 195.48353,326.31204 189.68935,324.63373   C 172.54658,318.83955 162.75642,311.08734 160.27891,301.45702   C 159.99919,299.77871 159.83936,296.74176 159.83936,292.30622   C 159.83936,291.22731 159.99919,289.82871 160.27891,288.19036   C 160.27891,286.51204 160.27891,285.63293 160.27891,285.47309   C 160.27891,285.35321 160.27891,284.43413 160.27891,282.79578   C 159.99919,281.15743 159.83936,279.75883 159.83936,278.63996   C 159.55964,274.24437 159.83936,271.20743 160.67851,269.52911   C 164.83433,257.1016 177.10201,248.5502 197.56144,243.83494   C 200.03895,243.31546 203.63534,242.59618 208.3506,241.75702   C 226.29257,238.48032 238.28052,236.802 244.39437,236.802   C 247.1516,231.28755 248.67008,226.61225 248.90984,222.69618   L 212.86606,238.04076   C 208.19076,237.2016 204.03494,234.72409 200.43855,230.56827   L 244.39437,212.34658   C 245.19357,212.10682 245.91285,211.66727 246.43233,211.10783   L 248.11064,209.86907   C 247.5512,209.30964 246.87188,208.79016 246.03273,208.19076   L 246.03273,204.0749   L 249.74899,204.0749   C 250.02871,202.71626 250.18855,199.3996 250.18855,194.1249   C 251.8269,194.68433 254.18453,195.52349 257.22148,196.60241   C 257.22148,196.88213 257.22148,200.07891 257.22148,206.15281   L 292.4261,192.44658   C 294.90361,193.56546 298.89959,195.64337 304.45401,198.68032   C 301.65682,200.07891 287.7508,206.27269 262.61606,217.34156   z  M 347.97028,284.87369   C 333.0253,302.25622 302.3761,310.96747 255.98273,310.96747   C 210.10883,310.96747 179.45964,302.13634 163.99518,284.43413   C 163.99518,286.39216 163.8753,288.94959 163.59558,292.10642   C 163.31586,295.30321 163.19598,297.14136 163.19598,297.7008   C 163.19598,299.09939 164.91425,301.7767 168.3508,305.77269   C 171.78735,309.76867 174.34478,312.36606 176.02309,313.44498   C 182.3767,317.04136 187.61144,319.51887 191.76727,320.91747   C 194.80421,321.75662 199.07992,322.83554 204.59437,324.23413   L 237.32148,330.02831   C 237.88092,330.02831 244.23453,330.02831 256.38233,330.02831   C 267.17148,330.02831 272.00662,330.02831 270.88775,330.02831   C 274.76385,329.74859 281.95662,328.62971 292.4261,326.71164   C 299.05943,325.59277 308.60983,323.67469 321.03734,320.91747   C 327.67068,318.95943 333.94437,315.60281 339.89839,310.76767   C 345.81244,305.93253 348.80943,301.5769 348.80943,297.7008   C 348.80943,296.06245 348.64959,293.82469 348.36987,291.06747   C 348.09016,288.31024 347.97028,286.23233 347.97028,284.87369   z  M 312.7257,247.5512   C 308.84959,246.752 301.25722,245.35341 289.94859,243.43534   C 276.4022,241.23755 267.97068,240.11867 264.65401,240.11867   L 264.25441,240.11867   C 265.61305,242.8759 266.4522,244.79397 266.73192,245.91285   C 268.13052,246.19257 273.48514,247.1516 282.91566,248.82992   C 291.46706,249.90883 298.38012,251.30743 303.61486,252.94578   C 316.88152,257.38132 323.51485,263.73494 323.51485,272.00662   C 323.51485,282.79578 312.84558,290.26827 291.58694,294.38413   C 280.55803,296.62188 268.80984,297.7008 256.38233,297.7008   C 249.22951,297.7008 242.8759,297.38112 237.32148,296.66184   C 231.80702,295.98253 224.21466,294.66385 214.54437,292.74578   C 212.6263,291.6269 209.78915,290.46807 206.03293,289.22931   C 202.31666,287.99056 198.72028,285.51305 195.28373,281.75682   C 191.80723,278.04056 190.08895,274.76385 190.08895,272.00662   C 190.08895,264.29437 197.12188,257.94076 211.22771,252.94578   C 220.33855,249.66907 230.84799,247.43132 242.71606,246.35241   C 242.99578,244.95381 243.39538,243.15562 243.95482,240.95783   L 236.52229,240.95783   C 238.44036,240.95783 234.00482,241.75702 223.25562,243.43534   C 212.46646,245.07369 204.51445,246.39237 199.3996,247.3514   C 194.28474,248.3504 187.73132,251.14759 179.73935,255.86285   C 169.22992,261.93674 163.99518,268.01064 163.99518,274.08453   C 163.99518,281.83674 171.74739,288.86967 187.21184,295.22329   C 197.96104,299.93855 205.71325,302.41606 210.38855,302.69578   C 211.50743,302.9755 218.14076,303.93453 230.28855,305.57289   C 238.28052,306.69176 246.87188,307.2512 255.98273,307.2512   C 273.92469,307.2512 291.46706,305.29317 308.60983,301.45702   C 314.68373,300.05843 321.71666,297.3012 329.70863,293.14538   C 342.13614,287.07148 348.36987,280.59799 348.36987,273.68494   C 348.36987,268.4502 343.93433,262.89578 335.10321,257.1016   C 327.63072,252.14658 320.19819,248.9498 312.7257,247.5512   z  M 193.84518,272.00662   C 193.84518,272.56606 194.64437,273.80482 196.32269,275.72289   C 202.39658,270.48815 216.18273,265.65301 237.76104,261.25743   C 238.56024,258.46024 239.79899,254.46425 241.47731,249.22951   L 242.31646,250.02871   C 209.98895,255.58313 193.84518,262.89578 193.84518,272.00662   z  M 233.60522,265.81285   C 230.84799,265.81285 223.65522,267.73092 212.06686,271.60702   C 206.79217,273.24538 202.39658,275.88273 198.8002,279.47911   C 205.95301,284.99357 216.18273,288.98955 229.44939,291.50702   L 236.52229,265.81285   z  M 244.79397,216.902   L 208.3506,231.80702   C 210.82811,233.48534 212.18674,234.32449 212.46646,234.32449   C 213.0259,234.32449 224.89397,228.92992 248.11064,218.14076   z  M 271.28735,266.21245   C 263.5751,265.09357 256.10261,264.57409 248.90984,264.57409   C 241.75702,264.57409 239.11968,264.69397 241.03775,264.97369   L 233.60522,292.70582   C 233.84498,292.70582 236.92188,293.14538 242.71606,293.98453   C 243.55522,293.98453 248.11064,293.98453 256.38233,293.98453   C 265.49317,293.98453 274.60401,293.14538 283.71486,291.46706   C 280.95763,285.43313 276.8018,277.0016 271.28735,266.21245   z  M 253.90482,255.02369   C 253.90482,252.54618 253.90482,250.74799 253.90482,249.62911   L 248.11064,250.02871   C 246.99176,250.02871 246.15261,250.02871 245.63313,250.02871   C 244.79397,253.6251 243.79498,257.22148 242.71606,260.81787   C 246.83192,260.53815 250.58815,260.69799 253.90482,261.25743   C 253.90482,259.57911 253.90482,257.54116 253.90482,255.02369   z  M 251.8269,240.11867   L 248.51024,240.11867   C 248.23052,241.19759 247.9508,242.31646 247.67108,243.43534   L 246.83192,245.91285   C 249.34939,245.63313 251.26747,245.51325 252.66606,245.51325   C 252.38634,243.31546 252.10662,241.47731 251.8269,240.11867   z  M 250.98775,231.40743   C 250.70803,232.80602 250.18855,234.44437 249.34939,236.40241   L 251.42731,236.40241   L 251.8269,235.96285   C 251.54719,235.12369 251.26747,233.60522 250.98775,231.40743   z  M 254.74397,214.0249   C 253.90482,214.30462 253.06566,214.70421 252.2265,215.26365   L 252.66606,215.26365   L 253.90482,216.10281   C 254.70401,216.66225 255.54317,217.34156 256.38233,218.14076   L 256.78192,218.14076   C 255.98273,216.50241 255.26345,215.14377 254.74397,214.0249   z  M 255.54317,233.48534   C 255.02369,232.1267 254.18453,230.16867 253.06566,227.69116   L 254.74397,227.29156   C 254.74397,227.57128 254.78393,227.97088 254.94377,228.53032   C 255.06365,229.08976 255.26345,230.44839 255.54317,232.64618   L 255.54317,233.48534   z  M 255.54317,233.48534   C 255.82289,234.60421 255.82289,235.56325 255.54317,236.40241   L 256.82188,236.40241   z  M 259.29939,240.51827   L 256.38233,240.51827   C 256.66204,241.63715 256.78192,243.15562 256.78192,245.07369   L 261.7769,245.07369   C 260.65803,243.71506 259.81887,242.19658 259.29939,240.51827   z  M 294.90361,198.28072   C 293.82469,197.72128 292.98554,197.44156 292.4261,197.44156   C 291.06747,197.44156 279.59899,202.15682 258.02068,211.50743   L 258.85984,212.78614   L 259.29939,213.58534   L 259.69899,214.0249   L 295.74277,198.28072   z  M 261.7769,249.22951   L 258.46024,249.22951   C 257.9008,254.18453 257.9008,258.22048 258.46024,261.25743   C 262.5761,261.25743 266.17249,261.37731 269.24939,261.65702   C 265.89277,253.38534 263.41526,249.22951 261.7769,249.22951   z  M 301.13735,257.1016   C 300.57791,256.82188 293.94457,255.30341 281.23735,252.54618   L 270.48815,250.02871   L 268.41024,250.02871   L 274.60401,262.05662   C 294.50401,263.45522 309.00943,268.01064 318.12028,275.72289   C 319.23915,274.08453 319.79859,272.84578 319.79859,272.00662   C 319.75863,266.21245 313.56485,261.25743 301.13735,257.1016   z  M 276.28233,266.21245   C 277.36124,267.89076 281.39718,275.88273 288.31024,290.22831   C 297.66084,289.98855 306.81164,286.39216 315.64277,279.47911   C 308.72971,273.1255 295.58293,268.68996 276.28233,266.21245   z "
     style="fill:none;stroke:#000000;stroke-width:5.7542167px;stroke-linecap:butt;stroke-linejoin:miter;stroke-miterlimit:10;stroke-dasharray:none;stroke-opacity:1;" />
</svg>
