<?xml version="1.0" encoding="UTF-8" standalone="no"?>
<svg
   xmlns:dc="http://purl.org/dc/elements/1.1/"
   xmlns:cc="http://creativecommons.org/ns#"
   xmlns:rdf="http://www.w3.org/1999/02/22-rdf-syntax-ns#"
   xmlns:svg="http://www.w3.org/2000/svg"
   xmlns="http://www.w3.org/2000/svg"
   id="svg23"
   height="107.94mm"
   width="112.51mm"
   version="1.0">
  <metadata
     id="metadata27">
    <rdf:RDF>
      <cc:Work
         rdf:about="">
        <dc:format>image/svg+xml</dc:format>
        <dc:type
           rdf:resource="http://purl.org/dc/dcmitype/StillImage" />
      </cc:Work>
    </rdf:RDF>
  </metadata>
  <defs
     id="defs3">
    <pattern
       y="0"
       x="0"
       height="6"
       width="6"
       patternUnits="userSpaceOnUse"
       id="EMFhbasepattern" />
  </defs>
  <path
     id="path5"
     d="  M 81.198392,353.56465   L 81.198392,171.34779   L 207.79116,54.345381   L 334.38393,171.34779   L 334.38393,353.56465   z "
     style="fill:#ff8080;fill-rule:evenodd;fill-opacity:1;stroke:none;" />
  <path
     id="path7"
     d="  M 81.198392,353.56465   L 81.198392,171.34779   L 207.79116,54.345381   L 334.38393,171.34779   L 334.38393,353.56465  "
     style="fill:none;stroke:#000000;stroke-width:9.5903616px;stroke-linecap:butt;stroke-linejoin:miter;stroke-miterlimit:10;stroke-dasharray:none;stroke-opacity:1;" />
  <path
     id="path9"
     d="  M 133.94538,123.39598   L 133.94538,123.39598   L 207.79116,56.263453   L 281.63694,123.39598   z "
     style="fill:#000000;fill-rule:evenodd;fill-opacity:1;stroke:none;" />
  <path
     id="path11"
     d="  M 133.94538,123.39598   L 133.94538,123.39598   L 207.79116,56.263453   L 281.63694,123.39598   z "
     style="fill:none;stroke:#000000;stroke-width:0.95903611px;stroke-linecap:butt;stroke-linejoin:miter;stroke-miterlimit:10;stroke-dasharray:none;stroke-opacity:1;" />
  <path
     id="path13"
     d="  M 207.79116,214.50441   C 102.29719,233.68514 102.29719,248.07068 207.79116,279.71887   C 322.8755,238.48032 322.8755,248.07068 207.79116,214.50441  "
     style="fill:none;stroke:#ffffff;stroke-width:19.180723px;stroke-linecap:butt;stroke-linejoin:miter;stroke-miterlimit:10;stroke-dasharray:none;stroke-opacity:1;" />
  <path
     id="path15"
     d="  M 111.88755,243.2755   C 207.79116,219.2996 207.79116,219.2996 284.51405,228.88996  "
     style="fill:none;stroke:#ffffff;stroke-width:14.385542px;stroke-linecap:butt;stroke-linejoin:miter;stroke-miterlimit:10;stroke-dasharray:none;stroke-opacity:1;" />
  <path
     id="path17"
     d="  M 116.68273,262.45622   C 188.61044,302.73574 207.79116,302.73574 301.7767,267.2514  "
     style="fill:none;stroke:#ffffff;stroke-width:19.180723px;stroke-linecap:butt;stroke-linejoin:miter;stroke-miterlimit:10;stroke-dasharray:none;stroke-opacity:1;" />
  <path
     id="path19"
     d="  M 214.66425,186.65241   C 214.66425,187.4516 214.66425,188.4506 214.66425,189.52952   L 207.59136,192.84618   C 209.78915,196.16285 212.0269,200.43855 214.2247,205.67329   C 227.49136,206.51245 240.75803,208.03092 254.0247,210.22871   C 282.71586,214.66425 299.29919,223.93494 303.73473,238.0008   C 304.01445,238.56024 304.13433,244.0747 304.13433,254.58413   C 304.13433,254.86385 304.13433,255.74297 304.13433,257.26144   C 304.13433,258.77992 304.13433,260.25843 304.13433,261.61706   C 304.41405,266.05261 304.25421,269.36927 303.73473,271.56706   C 302.89558,275.72289 300.01847,279.59899 295.02349,283.19538   C 288.11044,288.70984 281.4771,292.30622 275.12349,293.94457   C 271.80682,294.78373 259.37931,297.26124 237.84096,301.41706   C 231.48735,302.49598 221.69719,303.05542 208.43052,303.05542   C 194.08494,303.05542 176.10301,301.13735 154.60462,297.26124   C 151.80743,296.7018 147.53172,295.62289 141.73755,293.94457   C 124.59478,288.1504 114.80462,280.39819 112.32711,270.76787   C 112.04739,269.08955 111.88755,266.05261 111.88755,261.61706   C 111.88755,260.53815 112.04739,259.13955 112.32711,257.5012   C 112.32711,255.82289 112.32711,254.94377 112.32711,254.78393   C 112.32711,254.66405 112.32711,253.74498 112.32711,252.10662   C 112.04739,250.46827 111.88755,249.06968 111.88755,247.9508   C 111.60783,243.55522 111.88755,240.51827 112.72671,238.83996   C 116.88253,226.41245 129.1502,217.86104 149.60964,213.14578   C 152.08715,212.6263 155.68353,211.90703 160.39879,211.06787   C 178.34076,207.79116 190.32871,206.11285 196.44257,206.11285   C 199.1998,200.59839 200.71827,195.92309 200.95803,192.00703   L 164.91425,207.3516   C 160.23895,206.51245 156.08313,204.03494 152.48674,199.87911   L 196.44257,181.65743   C 197.24176,181.41767 197.96104,180.97811 198.48052,180.41867   L 200.15883,179.17992   C 199.59939,178.62048 198.92008,178.101 198.08092,177.5016   L 198.08092,173.38574   L 201.79719,173.38574   C 202.0769,172.02711 202.23674,168.71044 202.23674,163.43574   C 203.8751,163.99518 206.23273,164.83433 209.26968,165.91325   C 209.26968,166.19297 209.26968,169.38976 209.26968,175.46365   L 244.47429,161.75743   C 246.9518,162.8763 250.94779,164.95421 256.50221,167.99116   C 253.70502,169.38976 239.79899,175.58353 214.66425,186.65241   z  M 300.01847,254.18453   C 285.07349,271.56706 254.42429,280.27831 208.03092,280.27831   C 162.15703,280.27831 131.50783,271.44718 116.04337,253.74498   C 116.04337,255.70301 115.92349,258.26044 115.64377,261.41727   C 115.36405,264.61405 115.24418,266.4522 115.24418,267.01164   C 115.24418,268.41024 116.96245,271.08755 120.39899,275.08353   C 123.83554,279.07951 126.39297,281.6769 128.07128,282.75582   C 134.4249,286.3522 139.65964,288.82971 143.81546,290.22831   C 146.85241,291.06747 151.12811,292.14638 156.64257,293.54498   L 189.36968,299.33915   C 189.92911,299.33915 196.28273,299.33915 208.43052,299.33915   C 219.21968,299.33915 224.05482,299.33915 222.93594,299.33915   C 226.81204,299.05943 234.00482,297.94056 244.47429,296.02249   C 251.10763,294.90361 260.65803,292.98554 273.08554,290.22831   C 279.71887,288.27028 285.99257,284.91365 291.94658,280.07851   C 297.86064,275.24337 300.85763,270.88775 300.85763,267.01164   C 300.85763,265.37329 300.69779,263.13554 300.41807,260.37831   C 300.13835,257.62108 300.01847,255.54317 300.01847,254.18453   z  M 264.77389,216.86205   C 260.89779,216.06285 253.30542,214.66425 241.99678,212.74618   C 228.4504,210.54839 220.01887,209.42952 216.70221,209.42952   L 216.30261,209.42952   C 217.66124,212.18674 218.5004,214.10482 218.78012,215.22369   C 220.17871,215.50341 225.53333,216.46245 234.96385,218.14076   C 243.51526,219.21968 250.42831,220.61827 255.66305,222.25662   C 268.92971,226.69217 275.56305,233.04578 275.56305,241.31747   C 275.56305,252.10662 264.89377,259.57911 243.63514,263.69498   C 232.60622,265.93273 220.85803,267.01164 208.43052,267.01164   C 201.27771,267.01164 194.92409,266.69196 189.36968,265.97269   C 183.85522,265.29337 176.26285,263.97469 166.59257,262.05662   C 164.6745,260.93775 161.83735,259.77891 158.08112,258.54016   C 154.36486,257.3014 150.76847,254.82389 147.33193,251.06767   C 143.85542,247.3514 142.13715,244.0747 142.13715,241.31747   C 142.13715,233.60522 149.17008,227.2516 163.2759,222.25662   C 172.38674,218.97992 182.89618,216.74217 194.76425,215.66325   C 195.04397,214.26466 195.44357,212.46646 196.00301,210.26867   L 188.57048,210.26867   C 190.48855,210.26867 186.05301,211.06787 175.30381,212.74618   C 164.51466,214.38454 156.56265,215.70321 151.44779,216.66225   C 146.33293,217.66124 139.77952,220.45843 131.78755,225.17369   C 121.27811,231.24759 116.04337,237.32148 116.04337,243.39538   C 116.04337,251.14759 123.79558,258.18052 139.26004,264.53413   C 150.00923,269.24939 157.76144,271.7269 162.43674,272.00662   C 163.55562,272.28634 170.18895,273.24538 182.33674,274.88373   C 190.32871,276.00261 198.92008,276.56204 208.03092,276.56204   C 225.97289,276.56204 243.51526,274.60401 260.65803,270.76787   C 266.73192,269.36927 273.76486,266.61204 281.75682,262.45622   C 294.18433,256.38233 300.41807,249.90883 300.41807,242.99578   C 300.41807,237.76104 295.98253,232.20662 287.1514,226.41245   C 279.67891,221.45743 272.24638,218.26064 264.77389,216.86205   z  M 145.89337,241.31747   C 145.89337,241.8769 146.69257,243.11566 148.37088,245.03373   C 154.44478,239.79899 168.23092,234.96385 189.80923,230.56827   C 190.60843,227.77108 191.84719,223.7751 193.5255,218.54036   L 194.36466,219.33956   C 162.03715,224.89397 145.89337,232.20662 145.89337,241.31747   z  M 185.65341,235.12369   C 182.89618,235.12369 175.70341,237.04176 164.11506,240.91787   C 158.84036,242.55622 154.44478,245.19357 150.84839,248.78996   C 158.0012,254.30441 168.23092,258.3004 181.49759,260.81787   L 188.57048,235.12369   z  M 196.84217,186.21285   L 160.39879,201.11787   C 162.8763,202.79618 164.23494,203.63534 164.51466,203.63534   C 165.07409,203.63534 176.94217,198.24076 200.15883,187.4516   z  M 223.33554,235.52329   C 215.62329,234.40441 208.1508,233.88494 200.95803,233.88494   C 193.80522,233.88494 191.16787,234.00482 193.08594,234.28453   L 185.65341,262.01666   C 185.89317,262.01666 188.97008,262.45622 194.76425,263.29538   C 195.60341,263.29538 200.15883,263.29538 208.43052,263.29538   C 217.54136,263.29538 226.65221,262.45622 235.76305,260.77791   C 233.00582,254.74397 228.85,246.31245 223.33554,235.52329   z  M 205.95301,224.33453   C 205.95301,221.85702 205.95301,220.05883 205.95301,218.93996   L 200.15883,219.33956   C 199.03996,219.33956 198.2008,219.33956 197.68132,219.33956   C 196.84217,222.93594 195.84317,226.53233 194.76425,230.12871   C 198.88012,229.84899 202.63634,230.00883 205.95301,230.56827   C 205.95301,228.88996 205.95301,226.852 205.95301,224.33453   z  M 203.8751,209.42952   L 200.55843,209.42952   C 200.27871,210.50843 199.99899,211.62731 199.71927,212.74618   L 198.88012,215.22369   C 201.39759,214.94397 203.31566,214.82409 204.71425,214.82409   C 204.43454,212.6263 204.15482,210.78815 203.8751,209.42952   z  M 203.03594,200.71827   C 202.75622,202.11686 202.23674,203.75522 201.39759,205.71325   L 203.4755,205.71325   L 203.8751,205.27369   C 203.59538,204.43454 203.31566,202.91606 203.03594,200.71827   z  M 206.79217,183.33574   C 205.95301,183.61546 205.11385,184.01506 204.2747,184.5745   L 204.71425,184.5745   L 205.95301,185.41365   C 206.75221,185.97309 207.59136,186.65241 208.43052,187.4516   L 208.83012,187.4516   C 208.03092,185.81325 207.31164,184.45462 206.79217,183.33574   z  M 207.59136,202.79618   C 207.07188,201.43755 206.23273,199.47952 205.11385,197.00201   L 206.79217,196.60241   C 206.79217,196.88213 206.83213,197.28172 206.99196,197.84116   C 207.11184,198.4006 207.31164,199.75923 207.59136,201.95703   L 207.59136,202.79618   z  M 207.59136,202.79618   C 207.87108,203.91506 207.87108,204.87409 207.59136,205.71325   L 208.87008,205.71325   z  M 211.34759,209.82911   L 208.43052,209.82911   C 208.71024,210.94799 208.83012,212.46646 208.83012,214.38454   L 213.8251,214.38454   C 212.70622,213.0259 211.86707,211.50743 211.34759,209.82911   z  M 246.9518,167.59156   C 245.87289,167.03213 245.03373,166.75241 244.47429,166.75241   C 243.11566,166.75241 231.64719,171.46767 210.06887,180.81827   L 210.90803,182.09699   L 211.34759,182.89618   L 211.74719,183.33574   L 247.79096,167.59156   z  M 213.8251,218.54036   L 210.50843,218.54036   C 209.94899,223.49538 209.94899,227.53132 210.50843,230.56827   C 214.62429,230.56827 218.22068,230.68815 221.29759,230.96787   C 217.94096,222.69618 215.46345,218.54036 213.8251,218.54036   z  M 253.18554,226.41245   C 252.6261,226.13273 245.99277,224.61425 233.28554,221.85702   L 222.53634,219.33956   L 220.45843,219.33956   L 226.65221,231.36747   C 246.55221,232.76606 261.05763,237.32148 270.16847,245.03373   C 271.28735,243.39538 271.84678,242.15662 271.84678,241.31747   C 271.80682,235.52329 265.61305,230.56827 253.18554,226.41245   z  M 228.33052,235.52329   C 229.40943,237.2016 233.44538,245.19357 240.35843,259.53915   C 249.70903,259.29939 258.85984,255.70301 267.69096,248.78996   C 260.77791,242.43634 247.63112,238.0008 228.33052,235.52329   z "
     style="fill:#ffffff;fill-rule:evenodd;fill-opacity:1;stroke:none;" />
  <path
     id="path21"
     d="  M 214.66425,186.65241   C 214.66425,187.4516 214.66425,188.4506 214.66425,189.52952   L 207.59136,192.84618   C 209.78915,196.16285 212.0269,200.43855 214.2247,205.67329   C 227.49136,206.51245 240.75803,208.03092 254.0247,210.22871   C 282.71586,214.66425 299.29919,223.93494 303.73473,238.0008   C 304.01445,238.56024 304.13433,244.0747 304.13433,254.58413   C 304.13433,254.86385 304.13433,255.74297 304.13433,257.26144   C 304.13433,258.77992 304.13433,260.25843 304.13433,261.61706   C 304.41405,266.05261 304.25421,269.36927 303.73473,271.56706   C 302.89558,275.72289 300.01847,279.59899 295.02349,283.19538   C 288.11044,288.70984 281.4771,292.30622 275.12349,293.94457   C 271.80682,294.78373 259.37931,297.26124 237.84096,301.41706   C 231.48735,302.49598 221.69719,303.05542 208.43052,303.05542   C 194.08494,303.05542 176.10301,301.13735 154.60462,297.26124   C 151.80743,296.7018 147.53172,295.62289 141.73755,293.94457   C 124.59478,288.1504 114.80462,280.39819 112.32711,270.76787   C 112.04739,269.08955 111.88755,266.05261 111.88755,261.61706   C 111.88755,260.53815 112.04739,259.13955 112.32711,257.5012   C 112.32711,255.82289 112.32711,254.94377 112.32711,254.78393   C 112.32711,254.66405 112.32711,253.74498 112.32711,252.10662   C 112.04739,250.46827 111.88755,249.06968 111.88755,247.9508   C 111.60783,243.55522 111.88755,240.51827 112.72671,238.83996   C 116.88253,226.41245 129.1502,217.86104 149.60964,213.14578   C 152.08715,212.6263 155.68353,211.90703 160.39879,211.06787   C 178.34076,207.79116 190.32871,206.11285 196.44257,206.11285   C 199.1998,200.59839 200.71827,195.92309 200.95803,192.00703   L 164.91425,207.3516   C 160.23895,206.51245 156.08313,204.03494 152.48674,199.87911   L 196.44257,181.65743   C 197.24176,181.41767 197.96104,180.97811 198.48052,180.41867   L 200.15883,179.17992   C 199.59939,178.62048 198.92008,178.101 198.08092,177.5016   L 198.08092,173.38574   L 201.79719,173.38574   C 202.0769,172.02711 202.23674,168.71044 202.23674,163.43574   C 203.8751,163.99518 206.23273,164.83433 209.26968,165.91325   C 209.26968,166.19297 209.26968,169.38976 209.26968,175.46365   L 244.47429,161.75743   C 246.9518,162.8763 250.94779,164.95421 256.50221,167.99116   C 253.70502,169.38976 239.79899,175.58353 214.66425,186.65241   z  M 300.01847,254.18453   C 285.07349,271.56706 254.42429,280.27831 208.03092,280.27831   C 162.15703,280.27831 131.50783,271.44718 116.04337,253.74498   C 116.04337,255.70301 115.92349,258.26044 115.64377,261.41727   C 115.36405,264.61405 115.24418,266.4522 115.24418,267.01164   C 115.24418,268.41024 116.96245,271.08755 120.39899,275.08353   C 123.83554,279.07951 126.39297,281.6769 128.07128,282.75582   C 134.4249,286.3522 139.65964,288.82971 143.81546,290.22831   C 146.85241,291.06747 151.12811,292.14638 156.64257,293.54498   L 189.36968,299.33915   C 189.92911,299.33915 196.28273,299.33915 208.43052,299.33915   C 219.21968,299.33915 224.05482,299.33915 222.93594,299.33915   C 226.81204,299.05943 234.00482,297.94056 244.47429,296.02249   C 251.10763,294.90361 260.65803,292.98554 273.08554,290.22831   C 279.71887,288.27028 285.99257,284.91365 291.94658,280.07851   C 297.86064,275.24337 300.85763,270.88775 300.85763,267.01164   C 300.85763,265.37329 300.69779,263.13554 300.41807,260.37831   C 300.13835,257.62108 300.01847,255.54317 300.01847,254.18453   z  M 264.77389,216.86205   C 260.89779,216.06285 253.30542,214.66425 241.99678,212.74618   C 228.4504,210.54839 220.01887,209.42952 216.70221,209.42952   L 216.30261,209.42952   C 217.66124,212.18674 218.5004,214.10482 218.78012,215.22369   C 220.17871,215.50341 225.53333,216.46245 234.96385,218.14076   C 243.51526,219.21968 250.42831,220.61827 255.66305,222.25662   C 268.92971,226.69217 275.56305,233.04578 275.56305,241.31747   C 275.56305,252.10662 264.89377,259.57911 243.63514,263.69498   C 232.60622,265.93273 220.85803,267.01164 208.43052,267.01164   C 201.27771,267.01164 194.92409,266.69196 189.36968,265.97269   C 183.85522,265.29337 176.26285,263.97469 166.59257,262.05662   C 164.6745,260.93775 161.83735,259.77891 158.08112,258.54016   C 154.36486,257.3014 150.76847,254.82389 147.33193,251.06767   C 143.85542,247.3514 142.13715,244.0747 142.13715,241.31747   C 142.13715,233.60522 149.17008,227.2516 163.2759,222.25662   C 172.38674,218.97992 182.89618,216.74217 194.76425,215.66325   C 195.04397,214.26466 195.44357,212.46646 196.00301,210.26867   L 188.57048,210.26867   C 190.48855,210.26867 186.05301,211.06787 175.30381,212.74618   C 164.51466,214.38454 156.56265,215.70321 151.44779,216.66225   C 146.33293,217.66124 139.77952,220.45843 131.78755,225.17369   C 121.27811,231.24759 116.04337,237.32148 116.04337,243.39538   C 116.04337,251.14759 123.79558,258.18052 139.26004,264.53413   C 150.00923,269.24939 157.76144,271.7269 162.43674,272.00662   C 163.55562,272.28634 170.18895,273.24538 182.33674,274.88373   C 190.32871,276.00261 198.92008,276.56204 208.03092,276.56204   C 225.97289,276.56204 243.51526,274.60401 260.65803,270.76787   C 266.73192,269.36927 273.76486,266.61204 281.75682,262.45622   C 294.18433,256.38233 300.41807,249.90883 300.41807,242.99578   C 300.41807,237.76104 295.98253,232.20662 287.1514,226.41245   C 279.67891,221.45743 272.24638,218.26064 264.77389,216.86205   z  M 145.89337,241.31747   C 145.89337,241.8769 146.69257,243.11566 148.37088,245.03373   C 154.44478,239.79899 168.23092,234.96385 189.80923,230.56827   C 190.60843,227.77108 191.84719,223.7751 193.5255,218.54036   L 194.36466,219.33956   C 162.03715,224.89397 145.89337,232.20662 145.89337,241.31747   z  M 185.65341,235.12369   C 182.89618,235.12369 175.70341,237.04176 164.11506,240.91787   C 158.84036,242.55622 154.44478,245.19357 150.84839,248.78996   C 158.0012,254.30441 168.23092,258.3004 181.49759,260.81787   L 188.57048,235.12369   z  M 196.84217,186.21285   L 160.39879,201.11787   C 162.8763,202.79618 164.23494,203.63534 164.51466,203.63534   C 165.07409,203.63534 176.94217,198.24076 200.15883,187.4516   z  M 223.33554,235.52329   C 215.62329,234.40441 208.1508,233.88494 200.95803,233.88494   C 193.80522,233.88494 191.16787,234.00482 193.08594,234.28453   L 185.65341,262.01666   C 185.89317,262.01666 188.97008,262.45622 194.76425,263.29538   C 195.60341,263.29538 200.15883,263.29538 208.43052,263.29538   C 217.54136,263.29538 226.65221,262.45622 235.76305,260.77791   C 233.00582,254.74397 228.85,246.31245 223.33554,235.52329   z  M 205.95301,224.33453   C 205.95301,221.85702 205.95301,220.05883 205.95301,218.93996   L 200.15883,219.33956   C 199.03996,219.33956 198.2008,219.33956 197.68132,219.33956   C 196.84217,222.93594 195.84317,226.53233 194.76425,230.12871   C 198.88012,229.84899 202.63634,230.00883 205.95301,230.56827   C 205.95301,228.88996 205.95301,226.852 205.95301,224.33453   z  M 203.8751,209.42952   L 200.55843,209.42952   C 200.27871,210.50843 199.99899,211.62731 199.71927,212.74618   L 198.88012,215.22369   C 201.39759,214.94397 203.31566,214.82409 204.71425,214.82409   C 204.43454,212.6263 204.15482,210.78815 203.8751,209.42952   z  M 203.03594,200.71827   C 202.75622,202.11686 202.23674,203.75522 201.39759,205.71325   L 203.4755,205.71325   L 203.8751,205.27369   C 203.59538,204.43454 203.31566,202.91606 203.03594,200.71827   z  M 206.79217,183.33574   C 205.95301,183.61546 205.11385,184.01506 204.2747,184.5745   L 204.71425,184.5745   L 205.95301,185.41365   C 206.75221,185.97309 207.59136,186.65241 208.43052,187.4516   L 208.83012,187.4516   C 208.03092,185.81325 207.31164,184.45462 206.79217,183.33574   z  M 207.59136,202.79618   C 207.07188,201.43755 206.23273,199.47952 205.11385,197.00201   L 206.79217,196.60241   C 206.79217,196.88213 206.83213,197.28172 206.99196,197.84116   C 207.11184,198.4006 207.31164,199.75923 207.59136,201.95703   L 207.59136,202.79618   z  M 207.59136,202.79618   C 207.87108,203.91506 207.87108,204.87409 207.59136,205.71325   L 208.87008,205.71325   z  M 211.34759,209.82911   L 208.43052,209.82911   C 208.71024,210.94799 208.83012,212.46646 208.83012,214.38454   L 213.8251,214.38454   C 212.70622,213.0259 211.86707,211.50743 211.34759,209.82911   z  M 246.9518,167.59156   C 245.87289,167.03213 245.03373,166.75241 244.47429,166.75241   C 243.11566,166.75241 231.64719,171.46767 210.06887,180.81827   L 210.90803,182.09699   L 211.34759,182.89618   L 211.74719,183.33574   L 247.79096,167.59156   z  M 213.8251,218.54036   L 210.50843,218.54036   C 209.94899,223.49538 209.94899,227.53132 210.50843,230.56827   C 214.62429,230.56827 218.22068,230.68815 221.29759,230.96787   C 217.94096,222.69618 215.46345,218.54036 213.8251,218.54036   z  M 253.18554,226.41245   C 252.6261,226.13273 245.99277,224.61425 233.28554,221.85702   L 222.53634,219.33956   L 220.45843,219.33956   L 226.65221,231.36747   C 246.55221,232.76606 261.05763,237.32148 270.16847,245.03373   C 271.28735,243.39538 271.84678,242.15662 271.84678,241.31747   C 271.80682,235.52329 265.61305,230.56827 253.18554,226.41245   z  M 228.33052,235.52329   C 229.40943,237.2016 233.44538,245.19357 240.35843,259.53915   C 249.70903,259.29939 258.85984,255.70301 267.69096,248.78996   C 260.77791,242.43634 247.63112,238.0008 228.33052,235.52329   z "
     style="fill:none;stroke:#000000;stroke-width:5.7542167px;stroke-linecap:butt;stroke-linejoin:miter;stroke-miterlimit:10;stroke-dasharray:none;stroke-opacity:1;" />
</svg>
