<?xml version="1.0" encoding="UTF-8" standalone="no"?>
<svg
   xmlns:dc="http://purl.org/dc/elements/1.1/"
   xmlns:cc="http://creativecommons.org/ns#"
   xmlns:rdf="http://www.w3.org/1999/02/22-rdf-syntax-ns#"
   xmlns:svg="http://www.w3.org/2000/svg"
   xmlns="http://www.w3.org/2000/svg"
   id="svg23"
   height="116.06mm"
   width="135.35001mm"
   version="1.0">
  <metadata
     id="metadata27">
    <rdf:RDF>
      <cc:Work
         rdf:about="">
        <dc:format>image/svg+xml</dc:format>
        <dc:type
           rdf:resource="http://purl.org/dc/dcmitype/StillImage" />
      </cc:Work>
    </rdf:RDF>
  </metadata>
  <defs
     id="defs3">
    <pattern
       y="0"
       x="0"
       height="6"
       width="6"
       patternUnits="userSpaceOnUse"
       id="EMFhbasepattern" />
  </defs>
  <path
     id="path5"
     d="  M 337.26104,384.25381   C 457.14056,384.25381 457.14056,187.6514 337.26104,187.6514   C 337.26104,54.345381 174.2249,54.345381 174.2249,187.6514   C 54.345381,187.6514 54.345381,384.25381 174.2249,384.25381   z "
     style="fill:#ffff80;fill-rule:evenodd;fill-opacity:1;stroke:none;" />
  <path
     id="path7"
     d="  M 337.26104,384.25381   C 457.14056,384.25381 457.14056,187.6514 337.26104,187.6514   C 337.26104,54.345381 174.2249,54.345381 174.2249,187.6514   C 54.345381,187.6514 54.345381,384.25381 174.2249,384.25381  "
     style="fill:none;stroke:#000000;stroke-width:9.5903616px;stroke-linecap:butt;stroke-linejoin:miter;stroke-miterlimit:10;stroke-dasharray:none;stroke-opacity:1;" />
  <path
     id="path9"
     d="  M 179.02008,154.08514   C 207.79116,62.976706 303.69477,62.976706 332.46586,154.08514   z "
     style="fill:#000000;fill-rule:evenodd;fill-opacity:1;stroke:none;" />
  <path
     id="path11"
     d="  M 179.02008,154.08514   C 207.79116,62.976706 303.69477,62.976706 332.46586,154.08514  "
     style="fill:none;stroke:#000000;stroke-width:0.95903611px;stroke-linecap:butt;stroke-linejoin:miter;stroke-miterlimit:10;stroke-dasharray:none;stroke-opacity:1;" />
  <path
     id="path13"
     d="  M 239.15964,178.58052   L 244.31445,178.14096   C 244.55421,180.17891 245.11365,181.89719 245.99277,183.21586   C 246.91184,184.53454 248.27048,185.57349 250.14859,186.41265   C 252.0267,187.21184 254.14457,187.61144 256.46225,187.61144   C 258.54016,187.61144 260.37831,187.33172 261.9767,186.69237   C 263.5751,186.09297 264.77389,185.21385 265.53313,184.1749   C 266.33233,183.09598 266.69196,181.89719 266.69196,180.61847   C 266.69196,179.33976 266.33233,178.22088 265.57309,177.26184   C 264.81385,176.26285 263.5751,175.46365 261.85682,174.82429   C 260.77791,174.38474 258.3004,173.70542 254.54417,172.78634   C 250.74799,171.90723 248.11064,171.02811 246.59217,170.22891   C 244.63413,169.18996 243.15562,167.91124 242.19658,166.39277   C 241.23755,164.87429 240.75803,163.15602 240.75803,161.27791   C 240.75803,159.2 241.31747,157.24197 242.51626,155.44377   C 243.6751,153.64558 245.43333,152.24699 247.67108,151.32791   C 249.94879,150.36887 252.46626,149.92932 255.22349,149.92932   C 258.3004,149.92932 260.97771,150.40883 263.29538,151.40783   C 265.65301,152.36687 267.4512,153.80542 268.68996,155.72349   C 269.96867,157.64156 270.60803,159.7994 270.72791,162.23695   L 265.49317,162.63654   C 265.21345,159.99919 264.25441,158.04116 262.65602,156.72249   C 261.01767,155.40381 258.62008,154.7245 255.46325,154.7245   C 252.14658,154.7245 249.74899,155.32389 248.27048,156.52269   C 246.752,157.76144 245.99277,159.2 245.99277,160.91827   C 245.99277,162.39678 246.51225,163.59558 247.59116,164.55462   C 248.63012,165.51365 251.38735,166.51265 255.82289,167.51164   C 260.25843,168.51064 263.29538,169.38976 264.93373,170.10903   C 267.33132,171.22791 269.08955,172.6265 270.24839,174.30482   C 271.36727,176.02309 271.96666,177.98112 271.96666,180.17891   C 271.96666,182.3767 271.32731,184.45462 270.08855,186.37269   C 268.80984,188.33072 267.01164,189.80923 264.65401,190.88815   C 262.29638,191.96707 259.65903,192.5265 256.74196,192.5265   C 252.98574,192.5265 249.86887,191.96707 247.3514,190.88815   C 244.83393,189.80923 242.8759,188.17088 241.43735,185.97309   C 239.99879,183.81526 239.23955,181.33775 239.15964,178.58052   z "
     style="fill:#000000;fill-rule:evenodd;fill-opacity:1;stroke:none;" />
  <path
     id="path15"
     d="  M 199.15984,231.76706   C 199.15984,289.98855 230.88795,311.16726 283.83473,305.85261  "
     style="fill:none;stroke:#000000;stroke-width:10.589357px;stroke-linecap:butt;stroke-linejoin:miter;stroke-miterlimit:10;stroke-dasharray:none;stroke-opacity:1;" />
  <path
     id="path17"
     d="  M 204.43454,268.80984   L 204.43454,268.80984   L 262.65602,226.45241   L 262.65602,268.80984   L 320.91747,226.45241  "
     style="fill:none;stroke:#000000;stroke-width:10.589357px;stroke-linecap:butt;stroke-linejoin:miter;stroke-miterlimit:10;stroke-dasharray:none;stroke-opacity:1;" />
  <path
     id="path19"
     d="  M 148.0512,270.64799   L 153.20602,270.20843   C 153.44578,272.24638 154.00522,273.96465 154.88434,275.28333   C 155.80341,276.602 157.16205,277.64096 159.04016,278.48012   C 160.91827,279.27931 163.03614,279.67891 165.35381,279.67891   C 167.43172,279.67891 169.26988,279.39919 170.86827,278.75984   C 172.46666,278.16044 173.66546,277.28132 174.4247,276.24237   C 175.22389,275.16345 175.58353,273.96465 175.58353,272.68594   C 175.58353,271.40722 175.22389,270.28835 174.46466,269.32931   C 173.70542,268.33032 172.46666,267.53112 170.74839,266.89176   C 169.66948,266.4522 167.19197,265.77289 163.43574,264.85381   C 159.63956,263.97469 157.00221,263.09558 155.48373,262.29638   C 153.5257,261.25743 152.04719,259.97871 151.08815,258.46024   C 150.12911,256.94176 149.6496,255.22349 149.6496,253.34538   C 149.6496,251.26747 150.20903,249.30943 151.40783,247.51124   C 152.56666,245.71305 154.3249,244.31445 156.56265,243.39538   C 158.84036,242.43634 161.35783,241.99678 164.11506,241.99678   C 167.19197,241.99678 169.86927,242.4763 172.18695,243.4753   C 174.54458,244.43433 176.34277,245.87289 177.58152,247.79096   C 178.86024,249.70903 179.4996,251.86686 179.61948,254.30441   L 174.38474,254.70401   C 174.10502,252.06666 173.14598,250.10863 171.54759,248.78996   C 169.90923,247.47128 167.51164,246.79196 164.35482,246.79196   C 161.03815,246.79196 158.64056,247.39136 157.16205,248.59016   C 155.64357,249.82891 154.88434,251.26747 154.88434,252.98574   C 154.88434,254.46425 155.40381,255.66305 156.48273,256.62208   C 157.52168,257.58112 160.27891,258.58012 164.71446,259.57911   C 169.15,260.57811 172.18695,261.45723 173.8253,262.1765   C 176.22289,263.29538 177.98112,264.69397 179.13996,266.37229   C 180.25883,268.09056 180.85823,270.04859 180.85823,272.24638   C 180.85823,274.44417 180.21887,276.52208 178.98012,278.44016   C 177.7014,280.39819 175.90321,281.8767 173.54558,282.95562   C 171.18795,284.03453 168.5506,284.59397 165.63353,284.59397   C 161.87731,284.59397 158.76044,284.03453 156.24297,282.95562   C 153.7255,281.8767 151.76747,280.23835 150.32891,278.04056   C 148.89036,275.88273 148.13112,273.40522 148.0512,270.64799   z "
     style="fill:#000000;fill-rule:evenodd;fill-opacity:1;stroke:none;" />
  <path
     id="path21"
     d="  M 332.14618,283.87469   L 332.14618,242.6761   L 347.6506,242.6761   C 350.40783,242.6761 352.48574,242.83594 353.92429,243.0757   C 355.96224,243.43534 357.64056,244.0747 358.99919,244.99377   C 360.39779,245.95281 361.4767,247.27148 362.31586,248.98976   C 363.15501,250.66807 363.55461,252.54618 363.55461,254.58413   C 363.55461,258.1006 362.43574,261.05763 360.23795,263.49518   C 358.0002,265.93273 353.96425,267.13152 348.13012,267.13152   L 337.58072,267.13152   L 337.58072,283.87469   z  M 337.58072,262.25642   L 348.21004,262.25642   C 351.76646,262.25642 354.24397,261.61706 355.72248,260.29839   C 357.201,258.97972 357.96024,257.14156 357.96024,254.78393   C 357.96024,253.06566 357.52068,251.58714 356.64156,250.34839   C 355.76244,249.10963 354.64357,248.31044 353.20501,247.91084   C 352.28594,247.67108 350.60763,247.5512 348.13012,247.5512   L 337.58072,247.5512   z "
     style="fill:#000000;fill-rule:evenodd;fill-opacity:1;stroke:none;" />
</svg>
