<?xml version="1.0" encoding="UTF-8" standalone="no"?>
<svg
   xmlns:dc="http://purl.org/dc/elements/1.1/"
   xmlns:cc="http://creativecommons.org/ns#"
   xmlns:rdf="http://www.w3.org/1999/02/22-rdf-syntax-ns#"
   xmlns:svg="http://www.w3.org/2000/svg"
   xmlns="http://www.w3.org/2000/svg"
   id="svg23"
   height="125.53mm"
   width="95.75mm"
   version="1.0">
  <metadata
     id="metadata27">
    <rdf:RDF>
      <cc:Work
         rdf:about="">
        <dc:format>image/svg+xml</dc:format>
        <dc:type
           rdf:resource="http://purl.org/dc/dcmitype/StillImage" />
      </cc:Work>
    </rdf:RDF>
  </metadata>
  <defs
     id="defs3">
    <pattern
       y="0"
       x="0"
       height="6"
       width="6"
       patternUnits="userSpaceOnUse"
       id="EMFhbasepattern" />
  </defs>
  <path
     id="path5"
     d="  M 307.53092,420.05783   C 307.53092,54.665059 54.345381,54.665059 54.345381,420.05783   z "
     style="fill:#80e0ff;fill-rule:evenodd;fill-opacity:1;stroke:none;" />
  <path
     id="path7"
     d="  M 307.53092,420.05783   C 307.53092,54.665059 54.345381,54.665059 54.345381,420.05783  "
     style="fill:none;stroke:#000000;stroke-width:9.5903616px;stroke-linecap:butt;stroke-linejoin:miter;stroke-miterlimit:10;stroke-dasharray:none;stroke-opacity:1;" />
  <path
     id="path9"
     d="  M 109.01044,189.88915   C 142.5767,127.55181 219.2996,127.55181 252.86586,189.88915   z "
     style="fill:#000000;fill-rule:evenodd;fill-opacity:1;stroke:none;" />
  <path
     id="path11"
     d="  M 109.01044,189.88915   C 142.5767,127.55181 219.2996,127.55181 252.86586,189.88915  "
     style="fill:none;stroke:#000000;stroke-width:0.95903611px;stroke-linecap:butt;stroke-linejoin:miter;stroke-miterlimit:10;stroke-dasharray:none;stroke-opacity:1;" />
  <path
     id="path13"
     d="  M 164.35482,214.38454   L 169.50964,213.94498   C 169.7494,215.98293 170.30883,217.7012 171.18795,219.01988   C 172.10703,220.33855 173.46566,221.37751 175.34377,222.21666   C 177.22188,223.01586 179.33976,223.41546 181.65743,223.41546   C 183.73534,223.41546 185.57349,223.13574 187.17188,222.49638   C 188.77028,221.89698 189.96907,221.01787 190.72831,219.97891   C 191.52751,218.9 191.88715,217.7012 191.88715,216.42249   C 191.88715,215.14377 191.52751,214.0249 190.76827,213.06586   C 190.00903,212.06686 188.77028,211.26767 187.05201,210.62831   C 185.97309,210.18875 183.49558,209.50943 179.73935,208.59036   C 175.94317,207.71124 173.30582,206.83213 171.78735,206.03293   C 169.82931,204.99397 168.3508,203.71526 167.39176,202.19678   C 166.43273,200.67831 165.95321,198.96004 165.95321,197.08192   C 165.95321,195.00401 166.51265,193.04598 167.71144,191.24779   C 168.87028,189.4496 170.62851,188.051 172.86626,187.13193   C 175.14397,186.17289 177.66144,185.73333 180.41867,185.73333   C 183.49558,185.73333 186.17289,186.21285 188.49056,187.21184   C 190.84819,188.17088 192.64638,189.60944 193.88514,191.52751   C 195.16385,193.44558 195.80321,195.60341 195.92309,198.04096   L 190.68835,198.44056   C 190.40863,195.80321 189.4496,193.84518 187.8512,192.5265   C 186.21285,191.20783 183.81526,190.52851 180.65843,190.52851   C 177.34176,190.52851 174.94417,191.12791 173.46566,192.3267   C 171.94719,193.56546 171.18795,195.00401 171.18795,196.72229   C 171.18795,198.2008 171.70743,199.3996 172.78634,200.35863   C 173.8253,201.31767 176.58253,202.31666 181.01807,203.31566   C 185.45361,204.31466 188.49056,205.19377 190.12891,205.91305   C 192.5265,207.03192 194.28474,208.43052 195.44357,210.10883   C 196.56245,211.82711 197.16184,213.78514 197.16184,215.98293   C 197.16184,218.18072 196.52249,220.25863 195.28373,222.1767   C 194.00502,224.13474 192.20682,225.61325 189.84919,226.69217   C 187.49156,227.77108 184.85421,228.33052 181.93715,228.33052   C 178.18092,228.33052 175.06405,227.77108 172.54658,226.69217   C 170.02911,225.61325 168.07108,223.9749 166.63253,221.77711   C 165.19397,219.61927 164.43474,217.14176 164.35482,214.38454   z "
     style="fill:#000000;fill-rule:evenodd;fill-opacity:1;stroke:none;" />
  <path
     id="path15"
     d="  M 124.35502,267.57108   C 124.35502,325.79257 156.08313,346.97128 209.02992,341.65662  "
     style="fill:none;stroke:#000000;stroke-width:10.589357px;stroke-linecap:butt;stroke-linejoin:miter;stroke-miterlimit:10;stroke-dasharray:none;stroke-opacity:1;" />
  <path
     id="path17"
     d="  M 129.62972,304.61385   L 129.62972,304.61385   L 187.8512,262.25642   L 187.8512,304.61385   L 246.11265,262.25642  "
     style="fill:none;stroke:#000000;stroke-width:10.589357px;stroke-linecap:butt;stroke-linejoin:miter;stroke-miterlimit:10;stroke-dasharray:none;stroke-opacity:1;" />
  <path
     id="path19"
     d="  M 73.246384,306.452   L 78.401204,306.01245   C 78.640963,308.0504 79.2004,309.76867 80.079517,311.08734   C 80.998593,312.40602 82.357228,313.44498 84.23534,314.28413   C 86.113453,315.08333 88.231324,315.48293 90.548995,315.48293   C 92.626906,315.48293 94.465059,315.20321 96.063452,314.56385   C 97.661846,313.96445 98.860641,313.08534 99.619878,312.04638   C 100.41907,310.96747 100.77871,309.76867 100.77871,308.48996   C 100.77871,307.21124 100.41907,306.09237 99.659838,305.13333   C 98.900601,304.13433 97.661846,303.33514 95.943573,302.69578   C 94.864657,302.25622 92.387147,301.5769 88.630922,300.65783   C 84.834738,299.77871 82.197388,298.89959 80.678914,298.1004   C 78.720882,297.06144 77.242368,295.78273 76.283332,294.26425   C 75.324296,292.74578 74.844778,291.02751 74.844778,289.14939   C 74.844778,287.07148 75.404216,285.11345 76.603011,283.31526   C 77.761846,281.51706 79.520079,280.11847 81.75783,279.19939   C 84.035541,278.24036 86.553011,277.8008 89.31024,277.8008   C 92.387147,277.8008 95.064456,278.28032 97.382127,279.27931   C 99.739758,280.23835 101.53795,281.6769 102.77671,283.59498   C 104.05542,285.51305 104.69478,287.67088 104.81466,290.10843   L 99.579918,290.50803   C 99.300199,287.87068 98.341163,285.91265 96.74277,284.59397   C 95.104416,283.2753 92.706826,282.59598 89.549999,282.59598   C 86.233332,282.59598 83.835742,283.19538 82.357228,284.39417   C 80.838754,285.63293 80.079517,287.07148 80.079517,288.78975   C 80.079517,290.26827 80.598995,291.46706 81.67791,292.4261   C 82.716866,293.38514 85.474095,294.38413 89.909637,295.38313   C 94.345179,296.38212 97.382127,297.26124 99.02048,297.98052   C 101.41807,299.09939 103.1763,300.49799 104.33514,302.1763   C 105.45401,303.89457 106.05341,305.85261 106.05341,308.0504   C 106.05341,310.24819 105.41405,312.3261 104.1753,314.24417   C 102.89658,316.2022 101.09839,317.68072 98.740762,318.75963   C 96.383131,319.83855 93.745782,320.39799 90.828714,320.39799   C 87.072489,320.39799 83.955621,319.83855 81.438151,318.75963   C 78.920682,317.68072 76.962649,316.04236 75.524095,313.84457   C 74.085541,311.68674 73.326304,309.20923 73.246384,306.452   z "
     style="fill:#000000;fill-rule:evenodd;fill-opacity:1;stroke:none;" />
  <path
     id="path21"
     d="  M 257.34136,319.67871   L 257.34136,278.48012   L 272.84578,278.48012   C 275.60301,278.48012 277.68092,278.63996 279.11947,278.87971   C 281.15743,279.23935 282.83574,279.87871 284.19437,280.79779   C 285.59297,281.75682 286.67188,283.0755 287.51104,284.79377   C 288.3502,286.47208 288.7498,288.3502 288.7498,290.38815   C 288.7498,293.90461 287.63092,296.86164 285.43313,299.29919   C 283.19538,301.73674 279.15943,302.93554 273.3253,302.93554   L 262.7759,302.93554   L 262.7759,319.67871   z  M 262.7759,298.06044   L 273.40522,298.06044   C 276.96164,298.06044 279.43915,297.42108 280.91767,296.10241   C 282.39618,294.78373 283.15542,292.94558 283.15542,290.58795   C 283.15542,288.86967 282.71586,287.39116 281.83674,286.15241   C 280.95763,284.91365 279.83875,284.11445 278.4002,283.71486   C 277.48112,283.4751 275.80281,283.35522 273.3253,283.35522   L 262.7759,283.35522   z "
     style="fill:#000000;fill-rule:evenodd;fill-opacity:1;stroke:none;" />
</svg>
