<?xml version="1.0" encoding="UTF-8" standalone="no"?>
<svg
   xmlns:dc="http://purl.org/dc/elements/1.1/"
   xmlns:cc="http://creativecommons.org/ns#"
   xmlns:rdf="http://www.w3.org/1999/02/22-rdf-syntax-ns#"
   xmlns:svg="http://www.w3.org/2000/svg"
   xmlns="http://www.w3.org/2000/svg"
   id="svg23"
   height="116.06mm"
   width="135.35001mm"
   version="1.0">
  <metadata
     id="metadata27">
    <rdf:RDF>
      <cc:Work
         rdf:about="">
        <dc:format>image/svg+xml</dc:format>
        <dc:type
           rdf:resource="http://purl.org/dc/dcmitype/StillImage" />
      </cc:Work>
    </rdf:RDF>
  </metadata>
  <defs
     id="defs3">
    <pattern
       y="0"
       x="0"
       height="6"
       width="6"
       patternUnits="userSpaceOnUse"
       id="EMFhbasepattern" />
  </defs>
  <path
     id="path5"
     d="  M 337.26104,384.25381   C 457.14056,384.25381 457.14056,187.6514 337.26104,187.6514   C 337.26104,54.345381 174.2249,54.345381 174.2249,187.6514   C 54.345381,187.6514 54.345381,384.25381 174.2249,384.25381   z "
     style="fill:#ffff80;fill-rule:evenodd;fill-opacity:1;stroke:none;" />
  <path
     id="path7"
     d="  M 337.26104,384.25381   C 457.14056,384.25381 457.14056,187.6514 337.26104,187.6514   C 337.26104,54.345381 174.2249,54.345381 174.2249,187.6514   C 54.345381,187.6514 54.345381,384.25381 174.2249,384.25381  "
     style="fill:none;stroke:#000000;stroke-width:9.5903616px;stroke-linecap:butt;stroke-linejoin:miter;stroke-miterlimit:10;stroke-dasharray:none;stroke-opacity:1;" />
  <path
     id="path9"
     d="  M 179.02008,154.08514   C 207.79116,62.976706 303.69477,62.976706 332.46586,154.08514   z "
     style="fill:#000000;fill-rule:evenodd;fill-opacity:1;stroke:none;" />
  <path
     id="path11"
     d="  M 179.02008,154.08514   C 207.79116,62.976706 303.69477,62.976706 332.46586,154.08514  "
     style="fill:none;stroke:#000000;stroke-width:0.95903611px;stroke-linecap:butt;stroke-linejoin:miter;stroke-miterlimit:10;stroke-dasharray:none;stroke-opacity:1;" />
  <path
     id="path13"
     d="  M 239.15964,178.58052   L 244.31445,178.14096   C 244.55421,180.17891 245.11365,181.89719 245.99277,183.21586   C 246.91184,184.53454 248.27048,185.57349 250.14859,186.41265   C 252.0267,187.21184 254.14457,187.61144 256.46225,187.61144   C 258.54016,187.61144 260.37831,187.33172 261.9767,186.69237   C 263.5751,186.09297 264.77389,185.21385 265.53313,184.1749   C 266.33233,183.09598 266.69196,181.89719 266.69196,180.61847   C 266.69196,179.33976 266.33233,178.22088 265.57309,177.26184   C 264.81385,176.26285 263.5751,175.46365 261.85682,174.82429   C 260.77791,174.38474 258.3004,173.70542 254.54417,172.78634   C 250.74799,171.90723 248.11064,171.02811 246.59217,170.22891   C 244.63413,169.18996 243.15562,167.91124 242.19658,166.39277   C 241.23755,164.87429 240.75803,163.15602 240.75803,161.27791   C 240.75803,159.2 241.31747,157.24197 242.51626,155.44377   C 243.6751,153.64558 245.43333,152.24699 247.67108,151.32791   C 249.94879,150.36887 252.46626,149.92932 255.22349,149.92932   C 258.3004,149.92932 260.97771,150.40883 263.29538,151.40783   C 265.65301,152.36687 267.4512,153.80542 268.68996,155.72349   C 269.96867,157.64156 270.60803,159.7994 270.72791,162.23695   L 265.49317,162.63654   C 265.21345,159.99919 264.25441,158.04116 262.65602,156.72249   C 261.01767,155.40381 258.62008,154.7245 255.46325,154.7245   C 252.14658,154.7245 249.74899,155.32389 248.27048,156.52269   C 246.752,157.76144 245.99277,159.2 245.99277,160.91827   C 245.99277,162.39678 246.51225,163.59558 247.59116,164.55462   C 248.63012,165.51365 251.38735,166.51265 255.82289,167.51164   C 260.25843,168.51064 263.29538,169.38976 264.93373,170.10903   C 267.33132,171.22791 269.08955,172.6265 270.24839,174.30482   C 271.36727,176.02309 271.96666,177.98112 271.96666,180.17891   C 271.96666,182.3767 271.32731,184.45462 270.08855,186.37269   C 268.80984,188.33072 267.01164,189.80923 264.65401,190.88815   C 262.29638,191.96707 259.65903,192.5265 256.74196,192.5265   C 252.98574,192.5265 249.86887,191.96707 247.3514,190.88815   C 244.83393,189.80923 242.8759,188.17088 241.43735,185.97309   C 239.99879,183.81526 239.23955,181.33775 239.15964,178.58052   z "
     style="fill:#000000;fill-rule:evenodd;fill-opacity:1;stroke:none;" />
  <path
     id="path15"
     d="  M 199.15984,231.76706   C 199.15984,289.98855 230.88795,311.16726 283.83473,305.85261  "
     style="fill:none;stroke:#000000;stroke-width:10.589357px;stroke-linecap:butt;stroke-linejoin:miter;stroke-miterlimit:10;stroke-dasharray:none;stroke-opacity:1;" />
  <path
     id="path17"
     d="  M 204.43454,268.80984   L 204.43454,268.80984   L 262.65602,226.45241   L 262.65602,268.80984   L 320.91747,226.45241  "
     style="fill:none;stroke:#000000;stroke-width:10.589357px;stroke-linecap:butt;stroke-linejoin:miter;stroke-miterlimit:10;stroke-dasharray:none;stroke-opacity:1;" />
  <path
     id="path19"
     d="  M 150.00923,283.87469   L 150.00923,242.6761   L 179.81927,242.6761   L 179.81927,247.5512   L 155.48373,247.5512   L 155.48373,260.17851   L 178.26084,260.17851   L 178.26084,265.01365   L 155.48373,265.01365   L 155.48373,278.99959   L 180.77831,278.99959   L 180.77831,283.87469   z "
     style="fill:#000000;fill-rule:evenodd;fill-opacity:1;stroke:none;" />
  <path
     id="path21"
     d="  M 330.26807,270.64799   L 335.42289,270.20843   C 335.66265,272.24638 336.22208,273.96465 337.1012,275.28333   C 338.02028,276.602 339.37891,277.64096 341.25702,278.48012   C 343.13514,279.27931 345.25301,279.67891 347.57068,279.67891   C 349.64859,279.67891 351.48674,279.39919 353.08514,278.75984   C 354.68353,278.16044 355.88232,277.28132 356.64156,276.24237   C 357.44076,275.16345 357.8004,273.96465 357.8004,272.68594   C 357.8004,271.40722 357.44076,270.28835 356.68152,269.32931   C 355.92228,268.33032 354.68353,267.53112 352.96526,266.89176   C 351.88634,266.4522 349.40883,265.77289 345.65261,264.85381   C 341.85642,263.97469 339.21907,263.09558 337.7006,262.29638   C 335.74257,261.25743 334.26405,259.97871 333.30502,258.46024   C 332.34598,256.94176 331.86646,255.22349 331.86646,253.34538   C 331.86646,251.26747 332.4259,249.30943 333.62469,247.51124   C 334.78353,245.71305 336.54176,244.31445 338.77951,243.39538   C 341.05722,242.43634 343.57469,241.99678 346.33192,241.99678   C 349.40883,241.99678 352.08614,242.4763 354.40381,243.4753   C 356.76144,244.43433 358.55963,245.87289 359.79839,247.79096   C 361.0771,249.70903 361.71646,251.86686 361.83634,254.30441   L 356.6016,254.70401   C 356.32188,252.06666 355.36285,250.10863 353.76445,248.78996   C 352.1261,247.47128 349.72851,246.79196 346.57168,246.79196   C 343.25502,246.79196 340.85742,247.39136 339.37891,248.59016   C 337.86044,249.82891 337.1012,251.26747 337.1012,252.98574   C 337.1012,254.46425 337.62068,255.66305 338.69959,256.62208   C 339.73855,257.58112 342.49578,258.58012 346.93132,259.57911   C 351.36686,260.57811 354.40381,261.45723 356.04216,262.1765   C 358.43975,263.29538 360.19799,264.69397 361.35682,266.37229   C 362.4757,268.09056 363.0751,270.04859 363.0751,272.24638   C 363.0751,274.44417 362.43574,276.52208 361.19698,278.44016   C 359.91827,280.39819 358.12008,281.8767 355.76244,282.95562   C 353.40481,284.03453 350.76746,284.59397 347.8504,284.59397   C 344.09417,284.59397 340.9773,284.03453 338.45983,282.95562   C 335.94236,281.8767 333.98433,280.23835 332.54578,278.04056   C 331.10722,275.88273 330.34799,273.40522 330.26807,270.64799   z "
     style="fill:#000000;fill-rule:evenodd;fill-opacity:1;stroke:none;" />
</svg>
