<?xml version="1.0" encoding="UTF-8" standalone="no"?>
<svg
   xmlns:dc="http://purl.org/dc/elements/1.1/"
   xmlns:cc="http://creativecommons.org/ns#"
   xmlns:rdf="http://www.w3.org/1999/02/22-rdf-syntax-ns#"
   xmlns:svg="http://www.w3.org/2000/svg"
   xmlns="http://www.w3.org/2000/svg"
   id="svg23"
   height="130.27mm"
   width="130.27mm"
   version="1.0">
  <metadata
     id="metadata27">
    <rdf:RDF>
      <cc:Work
         rdf:about="">
        <dc:format>image/svg+xml</dc:format>
        <dc:type
           rdf:resource="http://purl.org/dc/dcmitype/StillImage" />
      </cc:Work>
    </rdf:RDF>
  </metadata>
  <defs
     id="defs3">
    <pattern
       y="0"
       x="0"
       height="6"
       width="6"
       patternUnits="userSpaceOnUse"
       id="EMFhbasepattern" />
  </defs>
  <path
     id="path5"
     d="  M 164.63454,327.67068   C 164.63454,437.95983 327.67068,437.95983 327.67068,327.67068   C 437.95983,327.67068 437.95983,164.63454 327.67068,164.63454   C 327.67068,54.345381 164.63454,54.345381 164.63454,164.63454   C 54.345381,164.63454 54.345381,327.67068 164.63454,327.67068   z "
     style="fill:#ffff80;fill-rule:evenodd;fill-opacity:1;stroke:none;" />
  <path
     id="path7"
     d="  M 164.63454,327.67068   C 164.63454,437.95983 327.67068,437.95983 327.67068,327.67068   C 437.95983,327.67068 437.95983,164.63454 327.67068,164.63454   C 327.67068,54.345381 164.63454,54.345381 164.63454,164.63454   C 54.345381,164.63454 54.345381,327.67068 164.63454,327.67068  "
     style="fill:none;stroke:#000000;stroke-width:9.5903616px;stroke-linecap:butt;stroke-linejoin:miter;stroke-miterlimit:10;stroke-dasharray:none;stroke-opacity:1;" />
  <path
     id="path9"
     d="  M 187.37168,176.66245   L 192.5265,176.22289   C 192.76626,178.26084 193.3257,179.97911 194.20482,181.29779   C 195.12389,182.61646 196.48253,183.65542 198.36064,184.49458   C 200.23875,185.29377 202.35662,185.69337 204.67429,185.69337   C 206.75221,185.69337 208.59036,185.41365 210.18875,184.77429   C 211.78715,184.1749 212.98594,183.29578 213.74518,182.25682   C 214.54437,181.17791 214.90401,179.97911 214.90401,178.7004   C 214.90401,177.42168 214.54437,176.30281 213.78514,175.34377   C 213.0259,174.34478 211.78715,173.54558 210.06887,172.90622   C 208.98996,172.46666 206.51245,171.78735 202.75622,170.86827   C 198.96004,169.98915 196.32269,169.11004 194.80421,168.31084   C 192.84618,167.27189 191.36767,165.99317 190.40863,164.4747   C 189.4496,162.95622 188.97008,161.23795 188.97008,159.35984   C 188.97008,157.28193 189.52952,155.32389 190.72831,153.5257   C 191.88715,151.72751 193.64538,150.32891 195.88313,149.40984   C 198.16084,148.4508 200.67831,148.01124 203.43554,148.01124   C 206.51245,148.01124 209.18976,148.49076 211.50743,149.48976   C 213.86506,150.44879 215.66325,151.88735 216.902,153.80542   C 218.18072,155.72349 218.82008,157.88132 218.93996,160.31887   L 213.70522,160.71847   C 213.4255,158.08112 212.46646,156.12309 210.86807,154.80442   C 209.22972,153.48574 206.83213,152.80642 203.6753,152.80642   C 200.35863,152.80642 197.96104,153.40582 196.48253,154.60462   C 194.96405,155.84337 194.20482,157.28193 194.20482,159.0002   C 194.20482,160.47871 194.72429,161.67751 195.80321,162.63654   C 196.84217,163.59558 199.59939,164.59458 204.03494,165.59357   C 208.47048,166.59257 211.50743,167.47168 213.14578,168.19096   C 215.54337,169.30984 217.3016,170.70843 218.46044,172.38674   C 219.57931,174.10502 220.17871,176.06305 220.17871,178.26084   C 220.17871,180.45863 219.53935,182.53654 218.3006,184.45462   C 217.02188,186.41265 215.22369,187.89116 212.86606,188.97008   C 210.50843,190.04899 207.87108,190.60843 204.95401,190.60843   C 201.19779,190.60843 198.08092,190.04899 195.56345,188.97008   C 193.04598,187.89116 191.08795,186.25281 189.64939,184.05502   C 188.21084,181.89719 187.4516,179.41968 187.37168,176.66245   z  M 225.97289,169.82931   C 225.97289,162.99618 227.81104,157.64156 231.44739,153.76546   C 235.12369,149.88936 239.87891,147.97128 245.67309,147.97128   C 249.46927,147.97128 252.90582,148.89036 255.94277,150.68855   C 259.01967,152.5267 261.33735,155.04417 262.93574,158.28092   C 264.53413,161.55763 265.33333,165.23393 265.33333,169.3498   C 265.33333,173.54558 264.49417,177.26184 262.81586,180.57851   C 261.13755,183.85522 258.73996,186.37269 255.66305,188.051   C 252.54618,189.76927 249.22951,190.60843 245.63313,190.60843   C 241.75702,190.60843 238.32048,189.64939 235.24357,187.77128   C 232.20662,185.93313 229.88895,183.3757 228.33052,180.09899   C 226.73213,176.86225 225.97289,173.46566 225.97289,169.82931   z  M 231.56727,169.90923   C 231.56727,174.86425 232.9259,178.78032 235.56325,181.65743   C 238.24056,184.49458 241.59719,185.93313 245.63313,185.93313   C 249.70903,185.93313 253.10562,184.49458 255.74297,181.61747   C 258.42028,178.74036 259.73895,174.6245 259.73895,169.30984   C 259.73895,165.99317 259.17951,163.03614 258.02068,160.55863   C 256.9018,158.04116 255.22349,156.12309 253.06566,154.7245   C 250.86787,153.36586 248.43032,152.64658 245.71305,152.64658   C 241.83694,152.64658 238.52028,154.00522 235.76305,156.64257   C 232.96586,159.27992 231.56727,163.71546 231.56727,169.90923   z  M 272.64598,189.88915   L 272.64598,148.69056   L 300.45803,148.69056   L 300.45803,153.56566   L 278.12048,153.56566   L 278.12048,166.31285   L 297.42108,166.31285   L 297.42108,171.18795   L 278.12048,171.18795   L 278.12048,189.88915   z "
     style="fill:#000000;fill-rule:evenodd;fill-opacity:1;stroke:none;" />
  <path
     id="path11"
     d="  M 187.37168,176.66245   L 192.5265,176.22289   C 192.76626,178.26084 193.3257,179.97911 194.20482,181.29779   C 195.12389,182.61646 196.48253,183.65542 198.36064,184.49458   C 200.23875,185.29377 202.35662,185.69337 204.67429,185.69337   C 206.75221,185.69337 208.59036,185.41365 210.18875,184.77429   C 211.78715,184.1749 212.98594,183.29578 213.74518,182.25682   C 214.54437,181.17791 214.90401,179.97911 214.90401,178.7004   C 214.90401,177.42168 214.54437,176.30281 213.78514,175.34377   C 213.0259,174.34478 211.78715,173.54558 210.06887,172.90622   C 208.98996,172.46666 206.51245,171.78735 202.75622,170.86827   C 198.96004,169.98915 196.32269,169.11004 194.80421,168.31084   C 192.84618,167.27189 191.36767,165.99317 190.40863,164.4747   C 189.4496,162.95622 188.97008,161.23795 188.97008,159.35984   C 188.97008,157.28193 189.52952,155.32389 190.72831,153.5257   C 191.88715,151.72751 193.64538,150.32891 195.88313,149.40984   C 198.16084,148.4508 200.67831,148.01124 203.43554,148.01124   C 206.51245,148.01124 209.18976,148.49076 211.50743,149.48976   C 213.86506,150.44879 215.66325,151.88735 216.902,153.80542   C 218.18072,155.72349 218.82008,157.88132 218.93996,160.31887   L 213.70522,160.71847   C 213.4255,158.08112 212.46646,156.12309 210.86807,154.80442   C 209.22972,153.48574 206.83213,152.80642 203.6753,152.80642   C 200.35863,152.80642 197.96104,153.40582 196.48253,154.60462   C 194.96405,155.84337 194.20482,157.28193 194.20482,159.0002   C 194.20482,160.47871 194.72429,161.67751 195.80321,162.63654   C 196.84217,163.59558 199.59939,164.59458 204.03494,165.59357   C 208.47048,166.59257 211.50743,167.47168 213.14578,168.19096   C 215.54337,169.30984 217.3016,170.70843 218.46044,172.38674   C 219.57931,174.10502 220.17871,176.06305 220.17871,178.26084   C 220.17871,180.45863 219.53935,182.53654 218.3006,184.45462   C 217.02188,186.41265 215.22369,187.89116 212.86606,188.97008   C 210.50843,190.04899 207.87108,190.60843 204.95401,190.60843   C 201.19779,190.60843 198.08092,190.04899 195.56345,188.97008   C 193.04598,187.89116 191.08795,186.25281 189.64939,184.05502   C 188.21084,181.89719 187.4516,179.41968 187.37168,176.66245   z  M 225.97289,169.82931   C 225.97289,162.99618 227.81104,157.64156 231.44739,153.76546   C 235.12369,149.88936 239.87891,147.97128 245.67309,147.97128   C 249.46927,147.97128 252.90582,148.89036 255.94277,150.68855   C 259.01967,152.5267 261.33735,155.04417 262.93574,158.28092   C 264.53413,161.55763 265.33333,165.23393 265.33333,169.3498   C 265.33333,173.54558 264.49417,177.26184 262.81586,180.57851   C 261.13755,183.85522 258.73996,186.37269 255.66305,188.051   C 252.54618,189.76927 249.22951,190.60843 245.63313,190.60843   C 241.75702,190.60843 238.32048,189.64939 235.24357,187.77128   C 232.20662,185.93313 229.88895,183.3757 228.33052,180.09899   C 226.73213,176.86225 225.97289,173.46566 225.97289,169.82931   z  M 231.56727,169.90923   C 231.56727,174.86425 232.9259,178.78032 235.56325,181.65743   C 238.24056,184.49458 241.59719,185.93313 245.63313,185.93313   C 249.70903,185.93313 253.10562,184.49458 255.74297,181.61747   C 258.42028,178.74036 259.73895,174.6245 259.73895,169.30984   C 259.73895,165.99317 259.17951,163.03614 258.02068,160.55863   C 256.9018,158.04116 255.22349,156.12309 253.06566,154.7245   C 250.86787,153.36586 248.43032,152.64658 245.71305,152.64658   C 241.83694,152.64658 238.52028,154.00522 235.76305,156.64257   C 232.96586,159.27992 231.56727,163.71546 231.56727,169.90923   z  M 272.64598,189.88915   L 272.64598,148.69056   L 300.45803,148.69056   L 300.45803,153.56566   L 278.12048,153.56566   L 278.12048,166.31285   L 297.42108,166.31285   L 297.42108,171.18795   L 278.12048,171.18795   L 278.12048,189.88915   z "
     style="fill:none;stroke:#000000;stroke-width:0.95903611px;stroke-linecap:butt;stroke-linejoin:miter;stroke-miterlimit:10;stroke-dasharray:none;stroke-opacity:1;" />
  <path
     id="path13"
     d="  M 311.68674,320.99738   L 311.68674,320.99738   L 289.18935,308.37008   L 279.63895,308.37008   L 244.51425,276.32229   L 229.16968,257.9008   L 222.69618,239.83895   L 222.01686,214.26466   L 232.9259,239.83895   L 248.27048,264.73393   L 266.652,285.87269   L 291.54698,304.29417   L 313.04538,316.92148   z "
     style="fill:#ffffff;fill-rule:evenodd;fill-opacity:1;stroke:none;" />
  <path
     id="path15"
     d="  M 317.8006,319.47891   L 317.8006,319.47891   L 308.96947,330.02831   L 297.02148,331.38694   L 288.82971,328.66967   L 281.99658,320.47791   L 281.31727,313.00542   L 284.75381,303.45502   L 289.18935,307.53092   L 287.83072,314.68373   L 288.51004,319.79859   L 292.58594,324.59377   L 297.7008,326.9514   L 306.21224,325.59277   L 312.00642,317.44096   z "
     style="fill:#ffffff;fill-rule:evenodd;fill-opacity:1;stroke:none;" />
  <path
     id="path17"
     d="  M 174.26486,320.47791   L 174.26486,320.47791   L 181.77731,330.02831   L 195.04397,331.74658   L 203.59538,328.35   L 210.38855,320.83755   L 210.38855,311.60682   L 205.27369,303.09538   L 200.87811,306.8516   L 204.59437,314.00441   L 205.63333,318.43996   L 201.19779,322.8755   L 190.28875,326.27208   L 182.7763,322.55582   L 179.37972,319.47891   z "
     style="fill:#ffffff;fill-rule:evenodd;fill-opacity:1;stroke:none;" />
  <path
     id="path19"
     d="  M 173.90522,319.27911   L 173.90522,319.27911   L 223.01586,286.552   L 251.30743,251.42731   L 269.40923,211.86707   L 268.72992,243.2755   L 255.06365,266.4522   L 242.79598,281.43714   L 212.78614,309.04939   L 204.59437,306.69176   L 181.41767,320.31807   z "
     style="fill:#ffffff;fill-rule:evenodd;fill-opacity:1;stroke:none;" />
  <path
     id="path21"
     d="  M 299.13935,332.98534   C 296.14237,332.98534 294.42409,332.86546 294.02449,332.66566   C 288.47008,331.58674 284.39417,328.58975 281.83674,323.67469   C 279.67891,319.39899 278.83976,315.04337 279.27931,310.52791   C 271.56706,305.21325 260.45823,295.26325 245.95281,280.75783   C 232.7261,293.34518 221.49739,303.49498 212.30662,311.20722   C 214.2247,325.71265 207.39156,332.98534 191.80723,332.98534   C 180.25883,332.98534 173.6255,328.07028 171.94719,318.24016   C 200.99799,302.65582 222.53634,286.51204 236.64217,269.84879   C 224.89397,253.6251 219.01988,238.12068 219.01988,223.41546   C 219.01988,221.89698 219.45943,216.02289 220.29859,205.79317   C 222.01686,205.79317 223.41546,206.63233 224.49437,208.3506   C 228.53032,225.85301 235.56325,242.0767 245.63313,257.06164   C 255.86285,243.39538 263.89478,225.33353 269.64899,202.91606   C 272.00662,210.14879 273.16546,216.58233 273.16546,222.09678   C 273.16546,239.83895 267.09156,255.54317 254.90381,269.20943   C 268.17048,286.07249 289.70883,302.45602 319.63875,318.24016   C 317.48092,328.07028 310.64779,332.98534 299.13935,332.98534   z  M 202.99598,305.09337   L 202.6763,305.41305   C 205.23373,307.37108 206.51245,309.92851 206.51245,313.1253   C 206.75221,323.15522 201.71727,328.1502 191.48755,328.1502   C 185.93313,328.1502 181.41767,325.31305 178.02108,319.51887   C 177.58152,319.75863 177.18193,319.95843 176.74237,320.15823   L 176.74237,321.11726   C 179.4996,326.91144 184.85421,329.78855 192.76626,329.78855   C 195.96305,329.78855 199.43956,328.50983 203.15582,325.9524   C 206.91205,323.39498 208.79016,320.15823 208.79016,316.32208   C 208.79016,310.52791 206.87209,306.81164 202.99598,305.09337   z  M 199.15984,307.33112   L 181.53755,316.96144   L 181.53755,317.28112   C 185.61345,315.56285 191.48755,312.24618 199.15984,307.33112   z  M 202.6763,313.44498   L 201.71727,310.88755   L 183.45562,321.11726   C 185.61345,323.67469 188.57048,324.95341 192.44658,324.95341   C 193.48554,324.95341 195.60341,323.99437 198.68032,322.0763   C 201.75723,320.15823 203.31566,318.36004 203.31566,316.64176   C 203.35562,316.2022 203.11586,315.16325 202.6763,313.44498   z  M 238.91988,273.40522   C 224.81405,288.55 214.2247,298.26024 207.19176,302.53594   C 208.03092,303.41506 209.42952,304.77369 211.34759,306.73172   C 218.38052,301.5769 229.08976,291.86666 243.39538,277.56104   C 242.11666,276.04257 240.59819,274.68393 238.91988,273.40522   z  M 222.85602,218.26064   L 222.21666,223.09578   C 222.21666,250.22851 241.99678,278.0006 281.51706,306.37208   C 282.15642,305.53293 283.19538,304.25421 284.71385,302.53594   C 254.58413,281.59698 233.96486,253.54518 222.85602,218.26064   z  M 269.00963,219.85903   C 264.53413,234.20462 257.58112,247.87088 248.19056,260.89779   C 250.10863,263.45522 251.58714,265.25341 252.66606,266.33233   C 263.7749,251.58714 269.32931,237.28152 269.32931,223.41546   C 269.32931,222.9759 269.20943,221.81707 269.00963,219.85903   z  M 287.91064,304.77369   C 286.83172,306.29216 285.71285,307.89056 284.55401,309.56887   C 283.35522,311.28714 282.79578,313.00542 282.79578,314.72369   C 282.79578,318.79959 284.55401,322.31606 288.07048,325.27309   C 291.58694,328.27008 295.18333,329.78855 298.81967,329.78855   C 301.3771,329.78855 304.45401,329.02931 308.09036,327.5508   C 313.00542,325.59277 315.48293,323.2751 315.48293,320.47791   C 315.48293,320.03835 314.92349,319.83855 313.88453,319.83855   C 313.20522,322.39598 310.76767,324.87349 306.49196,327.19116   C 305.65281,327.87048 303.49498,328.1502 300.09839,328.1502   C 290.06847,328.1502 285.03353,323.59477 285.03353,314.40401   C 285.03353,311.20722 286.19237,308.21024 288.55,305.41305   z  M 289.50903,311.20722   C 288.66988,312.68574 288.23032,313.84457 288.23032,314.72369   C 288.23032,316.64176 289.46907,318.83955 291.90662,321.2771   C 294.38413,323.75461 296.78172,324.95341 299.13935,324.95341   C 302.9755,324.95341 305.97249,323.67469 308.09036,321.11726   z  M 310.32811,317.6008   L 292.4261,307.33112   L 292.4261,307.6508   L 309.68875,317.92048   L 310.00843,317.92048   z "
     style="fill:#000000;fill-rule:evenodd;fill-opacity:1;stroke:none;" />
</svg>
