<?xml version="1.0" encoding="UTF-8" standalone="no"?>
<svg
   xmlns:dc="http://purl.org/dc/elements/1.1/"
   xmlns:cc="http://creativecommons.org/ns#"
   xmlns:rdf="http://www.w3.org/1999/02/22-rdf-syntax-ns#"
   xmlns:svg="http://www.w3.org/2000/svg"
   xmlns="http://www.w3.org/2000/svg"
   id="svg17"
   height="130.27mm"
   width="130.27mm"
   version="1.0">
  <metadata
     id="metadata21">
    <rdf:RDF>
      <cc:Work
         rdf:about="">
        <dc:format>image/svg+xml</dc:format>
        <dc:type
           rdf:resource="http://purl.org/dc/dcmitype/StillImage" />
      </cc:Work>
    </rdf:RDF>
  </metadata>
  <defs
     id="defs3">
    <pattern
       y="0"
       x="0"
       height="6"
       width="6"
       patternUnits="userSpaceOnUse"
       id="EMFhbasepattern" />
  </defs>
  <path
     id="path5"
     d="  M 198.2008,63.935742   L 198.2008,111.88755   L 294.10441,111.88755   L 294.10441,63.935742   L 198.2008,63.935742   z "
     style="fill:#000000;fill-rule:evenodd;fill-opacity:1;stroke:none;" />
  <path
     id="path7"
     d="  M 164.63454,327.67068   C 164.63454,437.95983 327.67068,437.95983 327.67068,327.67068   C 437.95983,327.67068 437.95983,164.63454 327.67068,164.63454   C 327.67068,54.345381 164.63454,54.345381 164.63454,164.63454   C 54.345381,164.63454 54.345381,327.67068 164.63454,327.67068   z "
     style="fill:#ffff80;fill-rule:evenodd;fill-opacity:1;stroke:none;" />
  <path
     id="path9"
     d="  M 164.63454,327.67068   C 164.63454,437.95983 327.67068,437.95983 327.67068,327.67068   C 437.95983,327.67068 437.95983,164.63454 327.67068,164.63454   C 327.67068,54.345381 164.63454,54.345381 164.63454,164.63454   C 54.345381,164.63454 54.345381,327.67068 164.63454,327.67068  "
     style="fill:none;stroke:#000000;stroke-width:9.5903616px;stroke-linecap:butt;stroke-linejoin:miter;stroke-miterlimit:10;stroke-dasharray:none;stroke-opacity:1;" />
  <path
     id="path11"
     d="  M 205.87309,188.77028   C 205.87309,186.21285 205.91305,180.33875 204.67429,179.25984   C 204.67429,181.85723 204.63433,187.73132 205.87309,188.77028   z "
     style="fill:#ffffff;fill-rule:evenodd;fill-opacity:1;stroke:none;" />
  <path
     id="path13"
     d="  M 204.67429,179.25984   C 205.91305,180.33875 205.87309,186.21285 205.87309,188.77028   L 211.78715,259.45923   L 272.76586,259.57911   L 296.74176,314.72369   C 300.37811,314.40401 309.84859,311.04739 313.76465,309.72871   C 316.64176,308.76967 329.42891,306.41204 329.42891,303.41506   L 329.42891,302.81566   C 329.42891,301.09739 324.95341,291.34718 324.55381,287.71084   L 306.49196,294.06445   L 284.87369,242.23654   L 227.6512,242.2765   L 226.65221,227.97088   L 268.2504,227.97088   L 268.2504,214.90401   L 225.73313,214.90401   L 223.09578,184.01506   C 229.32951,183.49558 235.56325,174.70442 235.56325,167.99116   L 235.56325,162.63654   L 234.36445,162.63654   L 234.36445,160.87831   C 234.36445,159.04016 229.44939,153.5257 227.97088,152.40683   C 225.65321,150.64859 220.13875,148.61064 216.30261,149.32992   C 211.14779,150.24899 208.67028,151.16807 205.71325,154.16506   C 204.11486,155.72349 200.51847,161.75743 200.51847,164.43474   L 200.51847,167.39176   C 200.51847,173.10602 202.43654,175.90321 204.67429,179.25984   z "
     style="fill:#000000;fill-rule:evenodd;fill-opacity:1;stroke:none;" />
  <path
     id="path15"
     d="  M 183.29578,270.16847   C 183.29578,260.93775 185.61345,256.30241 188.81024,250.14859   C 192.3267,243.43534 196.72229,241.07771 199.91907,236.32249   L 197.36164,216.74217   C 190.96807,218.46044 178.78032,232.36646 175.30381,238.44036   C 169.7494,248.19056 166.07309,257.34136 166.07309,272.5261   L 166.07309,280.27831   C 166.07309,285.47309 171.22791,299.57891 173.4257,303.1753   C 178.101,310.84759 180.61847,314.04437 186.69237,320.19819   C 195.32369,328.94939 212.30662,337.301 229.60923,337.301   L 232.00682,337.301   C 243.8749,337.301 255.70301,333.34498 263.25542,328.74959   C 267.29136,326.27208 283.6749,313.88453 283.6749,309.96847   C 283.6749,307.21124 276.36225,294.02449 275.36325,289.74879   C 272.7259,293.54498 271.56706,297.06144 268.41024,301.21726   C 265.61305,304.85361 262.85582,307.73072 259.21947,310.44799   C 252.86586,315.20321 242.8759,320.07831 232.00682,320.07831   L 229.00984,320.07831   C 204.4745,320.07831 183.29578,298.57992 183.29578,273.7249   z "
     style="fill:#000000;fill-rule:evenodd;fill-opacity:1;stroke:none;" />
</svg>
