<?xml version="1.0" encoding="UTF-8" standalone="no"?>
<svg
   xmlns:dc="http://purl.org/dc/elements/1.1/"
   xmlns:cc="http://creativecommons.org/ns#"
   xmlns:rdf="http://www.w3.org/1999/02/22-rdf-syntax-ns#"
   xmlns:svg="http://www.w3.org/2000/svg"
   xmlns="http://www.w3.org/2000/svg"
   id="svg17"
   height="89.669998mm"
   width="120.11mm"
   version="1.0">
  <metadata
     id="metadata21">
    <rdf:RDF>
      <cc:Work
         rdf:about="">
        <dc:format>image/svg+xml</dc:format>
        <dc:type
           rdf:resource="http://purl.org/dc/dcmitype/StillImage" />
      </cc:Work>
    </rdf:RDF>
  </metadata>
  <defs
     id="defs3">
    <pattern
       y="0"
       x="0"
       height="6"
       width="6"
       patternUnits="userSpaceOnUse"
       id="EMFhbasepattern" />
  </defs>
  <path
     id="path5"
     d="  M 179.02008,15.983936   L 179.02008,54.345381   L 274.92369,54.345381   L 274.92369,15.983936   L 179.02008,15.983936   z "
     style="fill:#000000;fill-rule:evenodd;fill-opacity:1;stroke:none;" />
  <path
     id="path7"
     d="  M 54.345381,54.345381   L 54.345381,284.51405   L 399.59839,284.51405   L 399.59839,54.345381   L 54.345381,54.345381   z "
     style="fill:#80e0ff;fill-rule:evenodd;fill-opacity:1;stroke:none;" />
  <path
     id="path9"
     d="  M 54.345381,54.345381   L 399.59839,54.345381   L 399.59839,284.51405   L 54.345381,284.51405   z "
     style="fill:none;stroke:#000000;stroke-width:9.5903616px;stroke-linecap:butt;stroke-linejoin:miter;stroke-miterlimit:10;stroke-dasharray:none;stroke-opacity:1;" />
  <path
     id="path11"
     d="  M 186.69237,112.04739   C 186.69237,109.48996 186.73233,103.61586 185.49357,102.53695   C 185.49357,105.13434 185.45361,111.00843 186.69237,112.04739   z "
     style="fill:#ffffff;fill-rule:evenodd;fill-opacity:1;stroke:none;" />
  <path
     id="path13"
     d="  M 185.49357,102.53695   C 186.73233,103.61586 186.69237,109.48996 186.69237,112.04739   L 192.60642,182.73634   L 253.58514,182.85622   L 277.56104,238.0008   C 281.19739,237.68112 290.66787,234.32449 294.58393,233.00582   C 297.46104,232.04678 310.24819,229.68915 310.24819,226.69217   L 310.24819,226.09277   C 310.24819,224.37449 305.77269,214.62429 305.37309,210.98795   L 287.31124,217.34156   L 265.69297,165.51365   L 208.47048,165.55361   L 207.47148,151.24799   L 249.06968,151.24799   L 249.06968,138.18112   L 206.55241,138.18112   L 203.91506,107.29217   C 210.14879,106.77269 216.38253,97.981525 216.38253,91.268272   L 216.38253,85.913653   L 215.18373,85.913653   L 215.18373,84.15542   C 215.18373,82.317268 210.26867,76.80281 208.79016,75.683935   C 206.47249,73.925702 200.95803,71.88775 197.12188,72.607027   C 191.96707,73.526103 189.48956,74.44518 186.53253,77.442168   C 184.93413,79.000601 181.33775,85.034537 181.33775,87.711846   L 181.33775,90.668874   C 181.33775,96.383131 183.25582,99.18032 185.49357,102.53695   z "
     style="fill:#000000;fill-rule:evenodd;fill-opacity:1;stroke:none;" />
  <path
     id="path15"
     d="  M 164.11506,193.44558   C 164.11506,184.21486 166.43273,179.57952 169.62952,173.4257   C 173.14598,166.71245 177.54156,164.35482 180.73835,159.5996   L 178.18092,140.01928   C 171.78735,141.73755 159.5996,155.64357 156.12309,161.71747   C 150.56867,171.46767 146.89237,180.61847 146.89237,195.80321   L 146.89237,203.55542   C 146.89237,208.7502 152.04719,222.85602 154.24498,226.45241   C 158.92028,234.1247 161.43775,237.32148 167.51164,243.4753   C 176.14297,252.2265 193.1259,260.57811 210.42851,260.57811   L 212.8261,260.57811   C 224.69417,260.57811 236.52229,256.62208 244.0747,252.0267   C 248.11064,249.54919 264.49417,237.16164 264.49417,233.24558   C 264.49417,230.48835 257.18152,217.3016 256.18253,213.0259   C 253.54518,216.82209 252.38634,220.33855 249.22951,224.49437   C 246.43233,228.13072 243.6751,231.00783 240.03875,233.7251   C 233.68514,238.48032 223.69518,243.35542 212.8261,243.35542   L 209.82911,243.35542   C 185.29377,243.35542 164.11506,221.85702 164.11506,197.00201   z "
     style="fill:#000000;fill-rule:evenodd;fill-opacity:1;stroke:none;" />
</svg>
