<?xml version="1.0" encoding="UTF-8" standalone="no"?>
<svg
   xmlns:dc="http://purl.org/dc/elements/1.1/"
   xmlns:cc="http://creativecommons.org/ns#"
   xmlns:rdf="http://www.w3.org/1999/02/22-rdf-syntax-ns#"
   xmlns:svg="http://www.w3.org/2000/svg"
   xmlns="http://www.w3.org/2000/svg"
   id="svg13"
   height="95.75mm"
   width="95.75mm"
   version="1.0">
  <metadata
     id="metadata17">
    <rdf:RDF>
      <cc:Work
         rdf:about="">
        <dc:format>image/svg+xml</dc:format>
        <dc:type
           rdf:resource="http://purl.org/dc/dcmitype/StillImage" />
      </cc:Work>
    </rdf:RDF>
  </metadata>
  <defs
     id="defs3">
    <pattern
       y="0"
       x="0"
       height="6"
       width="6"
       patternUnits="userSpaceOnUse"
       id="EMFhbasepattern" />
  </defs>
  <path
     id="path5"
     d="  M 54.345381,54.345381   L 54.345381,307.53092   L 307.53092,307.53092   L 307.53092,54.345381   L 54.345381,54.345381   z "
     style="fill:#aaffaa;fill-rule:evenodd;fill-opacity:1;stroke:none;" />
  <path
     id="path7"
     d="  M 54.345381,54.345381   L 307.53092,54.345381   L 307.53092,307.53092   L 54.345381,307.53092   z "
     style="fill:none;stroke:#000000;stroke-width:9.5903616px;stroke-linecap:butt;stroke-linejoin:miter;stroke-miterlimit:10;stroke-dasharray:none;stroke-opacity:1;" />
  <path
     id="path9"
     d="  M 132.06727,184.5745   L 139.81948,183.89518   C 140.17911,187.01205 141.01827,189.52952 142.33695,191.52751   C 143.69558,193.48554 145.77349,195.08393 148.57068,196.32269   C 151.36787,197.52148 154.5247,198.16084 158.04116,198.16084   C 161.15803,198.16084 163.91526,197.68132 166.31285,196.76225   C 168.71044,195.84317 170.46867,194.56446 171.62751,192.96606   C 172.8263,191.32771 173.38574,189.56948 173.38574,187.6514   C 173.38574,185.73333 172.8263,184.01506 171.70743,182.5765   C 170.58855,181.13795 168.71044,179.89919 166.15301,178.94016   C 164.4747,178.3008 160.79839,177.3018 155.12409,175.90321   C 149.4498,174.54458 145.49377,173.26586 143.21606,172.06707   C 140.25903,170.50863 138.06124,168.59056 136.62269,166.31285   C 135.18413,164.03514 134.46486,161.43775 134.46486,158.6006   C 134.46486,155.48373 135.34397,152.60662 137.10221,149.88936   C 138.86044,147.17209 141.45783,145.09417 144.85442,143.69558   C 148.251,142.29699 152.04719,141.57771 156.20301,141.57771   C 160.75843,141.57771 164.79438,142.33695 168.31084,143.81546   C 171.82731,145.29397 174.50462,147.45181 176.38273,150.32891   C 178.26084,153.16606 179.25984,156.44277 179.41968,160.03915   L 171.58755,160.63855   C 171.14799,156.72249 169.7494,153.80542 167.31184,151.80743   C 164.87429,149.80944 161.27791,148.81044 156.52269,148.81044   C 151.56767,148.81044 147.97128,149.68956 145.73353,151.52771   C 143.45582,153.3259 142.33695,155.52369 142.33695,158.08112   C 142.33695,160.27891 143.13614,162.11707 144.73454,163.55562   C 146.29297,164.99417 150.40883,166.47269 157.04217,167.9512   C 163.71546,169.46968 168.27088,170.78835 170.74839,171.90723   C 174.34478,173.54558 176.98213,175.66345 178.7004,178.18092   C 180.41867,180.73835 181.25783,183.65542 181.25783,186.97209   C 181.25783,190.28875 180.33875,193.36566 178.46064,196.28273   C 176.58253,199.1998 173.86526,201.43755 170.34879,203.0759   C 166.79237,204.67429 162.83634,205.47349 158.44076,205.47349   C 152.84638,205.47349 148.17108,204.67429 144.3749,203.03594   C 140.57871,201.39759 137.62168,198.96004 135.46385,195.68333   C 133.34598,192.40662 132.18715,188.73032 132.06727,184.5745   z  M 192.84618,204.43454   L 192.84618,142.65662   L 234.52429,142.65662   L 234.52429,149.92932   L 201.03795,149.92932   L 201.03795,169.07008   L 230.04879,169.07008   L 230.04879,176.34277   L 201.03795,176.34277   L 201.03795,204.43454   z "
     style="fill:#000000;fill-rule:evenodd;fill-opacity:1;stroke:none;" />
  <path
     id="path11"
     d="  M 132.06727,184.5745   L 139.81948,183.89518   C 140.17911,187.01205 141.01827,189.52952 142.33695,191.52751   C 143.69558,193.48554 145.77349,195.08393 148.57068,196.32269   C 151.36787,197.52148 154.5247,198.16084 158.04116,198.16084   C 161.15803,198.16084 163.91526,197.68132 166.31285,196.76225   C 168.71044,195.84317 170.46867,194.56446 171.62751,192.96606   C 172.8263,191.32771 173.38574,189.56948 173.38574,187.6514   C 173.38574,185.73333 172.8263,184.01506 171.70743,182.5765   C 170.58855,181.13795 168.71044,179.89919 166.15301,178.94016   C 164.4747,178.3008 160.79839,177.3018 155.12409,175.90321   C 149.4498,174.54458 145.49377,173.26586 143.21606,172.06707   C 140.25903,170.50863 138.06124,168.59056 136.62269,166.31285   C 135.18413,164.03514 134.46486,161.43775 134.46486,158.6006   C 134.46486,155.48373 135.34397,152.60662 137.10221,149.88936   C 138.86044,147.17209 141.45783,145.09417 144.85442,143.69558   C 148.251,142.29699 152.04719,141.57771 156.20301,141.57771   C 160.75843,141.57771 164.79438,142.33695 168.31084,143.81546   C 171.82731,145.29397 174.50462,147.45181 176.38273,150.32891   C 178.26084,153.16606 179.25984,156.44277 179.41968,160.03915   L 171.58755,160.63855   C 171.14799,156.72249 169.7494,153.80542 167.31184,151.80743   C 164.87429,149.80944 161.27791,148.81044 156.52269,148.81044   C 151.56767,148.81044 147.97128,149.68956 145.73353,151.52771   C 143.45582,153.3259 142.33695,155.52369 142.33695,158.08112   C 142.33695,160.27891 143.13614,162.11707 144.73454,163.55562   C 146.29297,164.99417 150.40883,166.47269 157.04217,167.9512   C 163.71546,169.46968 168.27088,170.78835 170.74839,171.90723   C 174.34478,173.54558 176.98213,175.66345 178.7004,178.18092   C 180.41867,180.73835 181.25783,183.65542 181.25783,186.97209   C 181.25783,190.28875 180.33875,193.36566 178.46064,196.28273   C 176.58253,199.1998 173.86526,201.43755 170.34879,203.0759   C 166.79237,204.67429 162.83634,205.47349 158.44076,205.47349   C 152.84638,205.47349 148.17108,204.67429 144.3749,203.03594   C 140.57871,201.39759 137.62168,198.96004 135.46385,195.68333   C 133.34598,192.40662 132.18715,188.73032 132.06727,184.5745   z  M 192.84618,204.43454   L 192.84618,142.65662   L 234.52429,142.65662   L 234.52429,149.92932   L 201.03795,149.92932   L 201.03795,169.07008   L 230.04879,169.07008   L 230.04879,176.34277   L 201.03795,176.34277   L 201.03795,204.43454   z "
     style="fill:none;stroke:#000000;stroke-width:0.95903611px;stroke-linecap:butt;stroke-linejoin:miter;stroke-miterlimit:10;stroke-dasharray:none;stroke-opacity:1;" />
</svg>
