<?xml version="1.0" encoding="UTF-8" standalone="no"?>
<svg
   xmlns:dc="http://purl.org/dc/elements/1.1/"
   xmlns:cc="http://creativecommons.org/ns#"
   xmlns:rdf="http://www.w3.org/1999/02/22-rdf-syntax-ns#"
   xmlns:svg="http://www.w3.org/2000/svg"
   xmlns="http://www.w3.org/2000/svg"
   id="svg21"
   height="95.75mm"
   width="95.75mm"
   version="1.0">
  <metadata
     id="metadata25">
    <rdf:RDF>
      <cc:Work
         rdf:about="">
        <dc:format>image/svg+xml</dc:format>
        <dc:type
           rdf:resource="http://purl.org/dc/dcmitype/StillImage" />
      </cc:Work>
    </rdf:RDF>
  </metadata>
  <defs
     id="defs3">
    <pattern
       y="0"
       x="0"
       height="6"
       width="6"
       patternUnits="userSpaceOnUse"
       id="EMFhbasepattern" />
  </defs>
  <path
     id="path5"
     d="  M 54.345381,54.345381   L 54.345381,307.53092   L 307.53092,307.53092   L 307.53092,54.345381   L 54.345381,54.345381   z "
     style="fill:#aaffaa;fill-rule:evenodd;fill-opacity:1;stroke:none;" />
  <path
     id="path7"
     d="  M 54.345381,54.345381   L 307.53092,54.345381   L 307.53092,307.53092   L 54.345381,307.53092   z "
     style="fill:none;stroke:#000000;stroke-width:9.5903616px;stroke-linecap:butt;stroke-linejoin:miter;stroke-miterlimit:10;stroke-dasharray:none;stroke-opacity:1;" />
  <path
     id="path9"
     d="  M 103.73574,178.66044   L 106.05341,182.85622   C 117.40201,176.82229 130.74859,167.31184 142.01727,160.19899   C 148.01124,156.36285 153.60562,152.64658 159.51968,148.6506   C 162.63654,146.57269 165.27389,144.9743 168.3508,142.93634   C 172.34678,140.25903 172.66646,138.66064 173.8253,133.34598   z "
     style="fill:#000000;fill-rule:evenodd;fill-opacity:1;stroke:none;" />
  <path
     id="path11"
     d="  M 242.11666,178.46064   L 242.11666,178.46064   L 249.94879,182.85622   L 252.2265,178.7004   L 244.79397,174.2249   z "
     style="fill:#000000;fill-rule:evenodd;fill-opacity:1;stroke:none;" />
  <path
     id="path13"
     d="  M 197.6014,155.72349   L 197.6014,158.08112   L 196.64237,158.64056   C 189.40964,153.76546 180.17891,145.77349 180.17891,133.90542   C 177.22188,135.90341 175.34377,142.9763 175.34377,147.97128   L 175.34377,150.40883   C 175.34377,160.51867 182.1769,174.4247 186.61245,180.29879   C 192.88614,188.69036 203.23574,190.96807 212.6263,195.92309   C 216.22269,194.04498 233.60522,183.89518 235.20361,181.69739   C 238.04076,177.86124 244.59417,159.83936 244.59417,153.76546   C 244.59417,149.48976 243.8749,135.50381 241.71706,133.90542   C 240.27851,140.13915 240.03875,144.53474 236.56225,149.13012   C 234.20462,152.32691 229.2496,157.08213 225.29357,158.12108   L 224.73413,152.80642   L 224.73413,152.32691   C 224.73413,145.69357 229.08976,140.29899 229.08976,132.46687   C 229.08976,130.22911 221.49739,118.84056 219.89899,118.401   C 219.89899,122.47691 219.33956,127.55181 218.58032,130.62871   C 217.98092,132.98634 214.34458,138.26104 212.14678,138.26104   L 210.70823,138.26104   C 209.90903,135.26405 206.35261,134.46486 206.35261,127.63173   L 206.35261,125.19417   C 206.35261,120.03936 212.14678,112.9265 212.14678,107.77169   L 212.26666,106.29317   L 211.66727,100.97851   C 209.42952,101.57791 209.3496,105.33414 208.43052,107.45201   C 207.43152,109.76968 206.19277,112.04739 204.75421,113.9255   C 201.75723,117.84156 198.92008,121.47791 195.96305,125.47389   C 191.44759,131.62771 191.20783,131.42791 193.80522,139.18012   C 195.24377,143.53574 197.6014,150.00923 197.6014,155.72349   z "
     style="fill:#000000;fill-rule:evenodd;fill-opacity:1;stroke:none;" />
  <path
     id="path15"
     d="  M 153.04618,172.18695   L 153.04618,173.14598   C 153.04618,174.98413 154.24498,176.38273 154.88434,177.54156   L 157.88132,210.46847   L 183.25582,210.58835   L 192.84618,233.44538   L 206.75221,228.88996   L 204.4745,222.29658   L 196.64237,224.53433   C 196.00301,221.73715 188.6504,203.19578 186.97209,203.19578   L 164.6745,203.19578   C 164.55462,201.67731 164.19498,201.47751 164.19498,199.79919   L 164.19498,197.4016   L 181.13795,197.4016   L 181.13795,192.04699   L 163.31586,192.04699   L 162.71646,183.81526   L 162.71646,178.98012   C 170.46867,177.18193 168.83032,164.91425 160.31887,164.91425   C 156.16305,164.91425 153.04618,168.07108 153.04618,172.18695   z "
     style="fill:#000000;fill-rule:evenodd;fill-opacity:1;stroke:none;" />
  <path
     id="path17"
     d="  M 162.23695,242.43634   L 166.59257,242.43634   C 176.14297,242.43634 183.61546,237.0018 187.4516,231.28755   L 184.53454,223.53534   C 181.81727,224.25462 179.85923,235.16365 165.15401,235.16365   L 163.23594,235.16365   C 155.68353,235.16365 149.13012,227.81104 147.05221,221.81707   C 145.73353,217.98092 145.69357,213.66526 147.05221,209.78915   C 148.97028,204.23474 150.60863,204.39458 152.84638,200.79819   L 152.08715,193.00602   C 144.93434,194.92409 136.26305,210.90803 139.26004,221.81707   C 141.85743,231.08775 151.32791,242.43634 162.23695,242.43634   z "
     style="fill:#000000;fill-rule:evenodd;fill-opacity:1;stroke:none;" />
  <path
     id="path19"
     d="  M 122.51687,253.10562   L 233.48534,253.10562   L 233.48534,188.17088   C 232.16666,189.05 228.13072,190.96807 228.13072,192.5265   L 228.13072,248.27048   L 127.35201,248.27048   L 127.35201,180.89819   L 122.51687,180.89819   L 122.51687,253.10562   z "
     style="fill:#000000;fill-rule:evenodd;fill-opacity:1;stroke:none;" />
</svg>
