<?xml version="1.0" encoding="UTF-8" standalone="no"?>
<svg
   xmlns:dc="http://purl.org/dc/elements/1.1/"
   xmlns:cc="http://creativecommons.org/ns#"
   xmlns:rdf="http://www.w3.org/1999/02/22-rdf-syntax-ns#"
   xmlns:svg="http://www.w3.org/2000/svg"
   xmlns="http://www.w3.org/2000/svg"
   id="svg11"
   height="65.639999mm"
   width="82.230003mm"
   version="1.0">
  <metadata
     id="metadata15">
    <rdf:RDF>
      <cc:Work
         rdf:about="">
        <dc:format>image/svg+xml</dc:format>
        <dc:type
           rdf:resource="http://purl.org/dc/dcmitype/StillImage" />
      </cc:Work>
    </rdf:RDF>
  </metadata>
  <defs
     id="defs3">
    <pattern
       y="0"
       x="0"
       height="6"
       width="6"
       patternUnits="userSpaceOnUse"
       id="EMFhbasepattern" />
  </defs>
  <path
     id="path5"
     d="  M 93.026505,193.40562   L 93.026505,193.40562   L 54.665059,116.68273   L 73.845782,116.68273   L 102.61687,54.345381   L 131.38795,54.345381   L 102.61687,116.68273   L 256.06265,116.68273   L 217.7012,193.40562   L 93.026505,193.40562   z "
     style="fill:#ffff80;fill-rule:evenodd;fill-opacity:1;stroke:none;" />
  <path
     id="path7"
     d="  M 93.026505,193.40562   L 93.026505,193.40562   L 54.665059,116.68273   L 73.845782,116.68273   L 102.61687,54.345381   L 131.38795,54.345381   L 102.61687,116.68273   L 256.06265,116.68273   L 217.7012,193.40562   L 93.026505,193.40562   z "
     style="fill:none;stroke:#000000;stroke-width:9.5903616px;stroke-linecap:butt;stroke-linejoin:miter;stroke-miterlimit:10;stroke-dasharray:none;stroke-opacity:1;" />
  <path
     id="path9"
     d="  M 115.32409,156.60261   L 121.47791,156.08313   C 121.79759,158.56064 122.47691,160.59859 123.55582,162.15703   C 124.59478,163.75542 126.27309,165.03413 128.51084,165.99317   C 130.74859,166.99217 133.30602,167.47168 136.10321,167.47168   C 138.58072,167.47168 140.77851,167.11205 142.69658,166.35281   C 144.61466,165.63353 146.05321,164.59458 146.97229,163.31586   C 147.89136,162.03715 148.37088,160.59859 148.37088,159.08012   C 148.37088,157.52168 147.93132,156.16305 147.01225,155.00421   C 146.13313,153.84538 144.65462,152.88634 142.5767,152.08715   C 141.25803,151.56767 138.301,150.76847 133.78554,149.68956   C 129.23012,148.61064 126.03333,147.57168 124.23514,146.61265   C 121.87751,145.37389 120.11928,143.85542 118.96044,142.01727   C 117.8016,140.17911 117.20221,138.1012 117.20221,135.86345   C 117.20221,133.34598 117.92148,131.02831 119.32008,128.87048   C 120.75863,126.67269 122.83654,125.03434 125.55381,123.91546   C 128.27108,122.79658 131.30803,122.23715 134.6247,122.23715   C 138.26104,122.23715 141.49779,122.83654 144.29498,123.99538   C 147.09217,125.19417 149.25,126.91245 150.76847,129.19016   C 152.28695,131.50783 153.08614,134.10522 153.20602,136.98233   L 146.93233,137.46185   C 146.57269,134.34498 145.45381,131.98735 143.49578,130.38895   C 141.53775,128.79056 138.7006,127.99136 134.86446,127.99136   C 130.90843,127.99136 128.03132,128.71064 126.23313,130.18915   C 124.43494,131.62771 123.51586,133.38594 123.51586,135.42389   C 123.51586,137.18213 124.15522,138.66064 125.43393,139.77952   C 126.71265,140.93835 129.98936,142.13715 135.30401,143.33594   C 140.61867,144.53474 144.25502,145.57369 146.25301,146.45281   C 149.13012,147.81144 151.24799,149.48976 152.60662,151.52771   C 154.00522,153.56566 154.68454,155.88333 154.68454,158.52068   C 154.68454,161.15803 153.9253,163.63554 152.40683,165.99317   C 150.92831,168.31084 148.73052,170.10903 145.93333,171.38775   C 143.09618,172.70642 139.93936,173.34578 136.38293,173.34578   C 131.94739,173.34578 128.19116,172.70642 125.15422,171.38775   C 122.11727,170.06907 119.75964,168.11104 118.04136,165.51365   C 116.32309,162.8763 115.40401,159.91927 115.32409,156.60261   z  M 163.59558,172.50662   L 163.59558,123.0763   L 182.25682,123.0763   C 185.53353,123.0763 188.051,123.23614 189.76927,123.55582   C 192.20682,123.95542 194.24478,124.71466 195.88313,125.87349   C 197.52148,126.99237 198.84016,128.59076 199.83915,130.62871   C 200.83815,132.66666 201.31767,134.90442 201.31767,137.38193   C 201.31767,141.57771 199.99899,145.13413 197.32168,148.0512   C 194.64437,150.96827 189.80923,152.40683 182.81626,152.40683   L 170.14899,152.40683   L 170.14899,172.50662   z  M 170.14899,146.57269   L 182.93614,146.57269   C 187.17188,146.57269 190.16887,145.77349 191.92711,144.21506   C 193.7253,142.65662 194.60441,140.41887 194.60441,137.58172   C 194.60441,135.50381 194.08494,133.74558 193.04598,132.26707   C 191.96707,130.78855 190.60843,129.82952 188.89016,129.35   C 187.81124,129.07028 185.77329,128.91044 182.7763,128.91044   L 170.14899,128.91044   z "
     style="fill:#000000;fill-rule:evenodd;fill-opacity:1;stroke:none;" />
</svg>
