<?xml version="1.0" encoding="UTF-8" standalone="no"?>
<svg
   xmlns:dc="http://purl.org/dc/elements/1.1/"
   xmlns:cc="http://creativecommons.org/ns#"
   xmlns:rdf="http://www.w3.org/1999/02/22-rdf-syntax-ns#"
   xmlns:svg="http://www.w3.org/2000/svg"
   xmlns="http://www.w3.org/2000/svg"
   id="svg15"
   height="101.85mm"
   width="101.85mm"
   version="1.0">
  <metadata
     id="metadata19">
    <rdf:RDF>
      <cc:Work
         rdf:about="">
        <dc:format>image/svg+xml</dc:format>
        <dc:type
           rdf:resource="http://purl.org/dc/dcmitype/StillImage" />
      </cc:Work>
    </rdf:RDF>
  </metadata>
  <defs
     id="defs3">
    <pattern
       y="0"
       x="0"
       height="6"
       width="6"
       patternUnits="userSpaceOnUse"
       id="EMFhbasepattern" />
  </defs>
  <path
     id="path5"
     d="  M 330.54779,192.44658   C 330.54779,268.72992 268.72992,330.54779 192.44658,330.54779   C 116.20321,330.54779 54.345381,268.72992 54.345381,192.44658   C 54.345381,116.20321 116.20321,54.345381 192.44658,54.345381   C 268.72992,54.345381 330.54779,116.20321 330.54779,192.44658   z "
     style="fill:#80e0ff;fill-rule:evenodd;fill-opacity:1;stroke:none;" />
  <path
     id="path7"
     d="  M 330.54779,192.44658   C 330.54779,268.72992 268.72992,330.54779 192.44658,330.54779   C 116.20321,330.54779 54.345381,268.72992 54.345381,192.44658   C 54.345381,116.20321 116.20321,54.345381 192.44658,54.345381   C 268.72992,54.345381 330.54779,116.20321 330.54779,192.44658  "
     style="fill:none;stroke:#000000;stroke-width:9.5903616px;stroke-linecap:butt;stroke-linejoin:miter;stroke-miterlimit:10;stroke-dasharray:none;stroke-opacity:1;" />
  <path
     id="path9"
     d="  M 130.10924,264.37429   L 130.10924,264.37429   L 91.74779,187.6514   L 110.92851,187.6514   L 139.6996,125.31405   L 168.47068,125.31405   L 139.6996,187.6514   L 293.14538,187.6514   L 254.78393,264.37429   L 130.10924,264.37429   z "
     style="fill:#ffffff;fill-rule:evenodd;fill-opacity:1;stroke:none;" />
  <path
     id="path11"
     d="  M 130.10924,264.37429   L 130.10924,264.37429   L 91.74779,187.6514   L 110.92851,187.6514   L 139.6996,125.31405   L 168.47068,125.31405   L 139.6996,187.6514   L 293.14538,187.6514   L 254.78393,264.37429   L 130.10924,264.37429   z "
     style="fill:none;stroke:#000000;stroke-width:9.5903616px;stroke-linecap:butt;stroke-linejoin:miter;stroke-miterlimit:10;stroke-dasharray:none;stroke-opacity:1;" />
  <path
     id="path13"
     d="  M 152.40683,227.57128   L 158.56064,227.0518   C 158.88032,229.52931 159.55964,231.56727 160.63855,233.1257   C 161.67751,234.72409 163.35582,236.00281 165.59357,236.96184   C 167.83132,237.96084 170.38875,238.44036 173.18594,238.44036   C 175.66345,238.44036 177.86124,238.08072 179.77931,237.32148   C 181.69739,236.60221 183.13594,235.56325 184.05502,234.28453   C 184.97409,233.00582 185.45361,231.56727 185.45361,230.04879   C 185.45361,228.49036 185.01405,227.13172 184.09498,225.97289   C 183.21586,224.81405 181.73735,223.85502 179.65944,223.05582   C 178.34076,222.53634 175.38373,221.73715 170.86827,220.65823   C 166.31285,219.57931 163.11606,218.54036 161.31787,217.58132   C 158.96024,216.34257 157.20201,214.82409 156.04317,212.98594   C 154.88434,211.14779 154.28494,209.06988 154.28494,206.83213   C 154.28494,204.31466 155.00421,201.99699 156.40281,199.83915   C 157.84136,197.64136 159.91927,196.00301 162.63654,194.88413   C 165.35381,193.76526 168.39076,193.20582 171.70743,193.20582   C 175.34377,193.20582 178.58052,193.80522 181.37771,194.96405   C 184.1749,196.16285 186.33273,197.88112 187.8512,200.15883   C 189.36968,202.4765 190.16887,205.07389 190.28875,207.951   L 184.01506,208.43052   C 183.65542,205.31365 182.53654,202.95602 180.57851,201.35763   C 178.62048,199.75923 175.78333,198.96004 171.94719,198.96004   C 167.99116,198.96004 165.11405,199.67931 163.31586,201.15783   C 161.51767,202.59638 160.59859,204.35462 160.59859,206.39257   C 160.59859,208.1508 161.23795,209.62931 162.51666,210.74819   C 163.79538,211.90703 167.07209,213.10582 172.38674,214.30462   C 177.7014,215.50341 181.33775,216.54237 183.33574,217.42148   C 186.21285,218.78012 188.33072,220.45843 189.68935,222.49638   C 191.08795,224.53433 191.76727,226.852 191.76727,229.48935   C 191.76727,232.1267 191.00803,234.60421 189.48956,236.96184   C 188.01104,239.27951 185.81325,241.07771 183.01606,242.35642   C 180.17891,243.6751 177.02209,244.31445 173.46566,244.31445   C 169.03012,244.31445 165.27389,243.6751 162.23695,242.35642   C 159.2,241.03775 156.84237,239.07972 155.12409,236.48233   C 153.40582,233.84498 152.48674,230.88795 152.40683,227.57128   z  M 200.67831,243.4753   L 200.67831,194.04498   L 219.33956,194.04498   C 222.61626,194.04498 225.13373,194.20482 226.852,194.5245   C 229.28955,194.92409 231.32751,195.68333 232.96586,196.84217   C 234.60421,197.96104 235.92289,199.55943 236.92188,201.59739   C 237.92088,203.63534 238.4004,205.87309 238.4004,208.3506   C 238.4004,212.54638 237.08172,216.10281 234.40441,219.01988   C 231.72711,221.93694 226.89196,223.3755 219.89899,223.3755   L 207.23172,223.3755   L 207.23172,243.4753   z  M 207.23172,217.54136   L 220.01887,217.54136   C 224.25462,217.54136 227.2516,216.74217 229.00984,215.18373   C 230.80803,213.6253 231.68715,211.38755 231.68715,208.5504   C 231.68715,206.47249 231.16767,204.71425 230.12871,203.23574   C 229.0498,201.75723 227.69116,200.79819 225.97289,200.31867   C 224.89397,200.03895 222.85602,199.87911 219.85903,199.87911   L 207.23172,199.87911   z "
     style="fill:#000000;fill-rule:evenodd;fill-opacity:1;stroke:none;" />
</svg>
