<?xml version="1.0" encoding="UTF-8" standalone="no"?>
<svg
   xmlns:dc="http://purl.org/dc/elements/1.1/"
   xmlns:cc="http://creativecommons.org/ns#"
   xmlns:rdf="http://www.w3.org/1999/02/22-rdf-syntax-ns#"
   xmlns:svg="http://www.w3.org/2000/svg"
   xmlns="http://www.w3.org/2000/svg"
   id="svg15"
   height="130.27mm"
   width="130.27mm"
   version="1.0">
  <metadata
     id="metadata19">
    <rdf:RDF>
      <cc:Work
         rdf:about="">
        <dc:format>image/svg+xml</dc:format>
        <dc:type
           rdf:resource="http://purl.org/dc/dcmitype/StillImage" />
      </cc:Work>
    </rdf:RDF>
  </metadata>
  <defs
     id="defs3">
    <pattern
       y="0"
       x="0"
       height="6"
       width="6"
       patternUnits="userSpaceOnUse"
       id="EMFhbasepattern" />
  </defs>
  <path
     id="path5"
     d="  M 164.63454,327.67068   C 164.63454,437.95983 327.67068,437.95983 327.67068,327.67068   C 437.95983,327.67068 437.95983,164.63454 327.67068,164.63454   C 327.67068,54.345381 164.63454,54.345381 164.63454,164.63454   C 54.345381,164.63454 54.345381,327.67068 164.63454,327.67068   z "
     style="fill:#ffff80;fill-rule:evenodd;fill-opacity:1;stroke:none;" />
  <path
     id="path7"
     d="  M 164.63454,327.67068   C 164.63454,437.95983 327.67068,437.95983 327.67068,327.67068   C 437.95983,327.67068 437.95983,164.63454 327.67068,164.63454   C 327.67068,54.345381 164.63454,54.345381 164.63454,164.63454   C 54.345381,164.63454 54.345381,327.67068 164.63454,327.67068  "
     style="fill:none;stroke:#000000;stroke-width:9.5903616px;stroke-linecap:butt;stroke-linejoin:miter;stroke-miterlimit:10;stroke-dasharray:none;stroke-opacity:1;" />
  <path
     id="path9"
     d="  M 183.81526,318.08032   L 183.81526,318.08032   L 145.45381,241.35743   L 164.63454,241.35743   L 193.40562,179.02008   L 222.1767,179.02008   L 193.40562,241.35743   L 346.8514,241.35743   L 308.48996,318.08032   L 183.81526,318.08032   z "
     style="fill:#ffffff;fill-rule:evenodd;fill-opacity:1;stroke:none;" />
  <path
     id="path11"
     d="  M 183.81526,318.08032   L 183.81526,318.08032   L 145.45381,241.35743   L 164.63454,241.35743   L 193.40562,179.02008   L 222.1767,179.02008   L 193.40562,241.35743   L 346.8514,241.35743   L 308.48996,318.08032   L 183.81526,318.08032   z "
     style="fill:none;stroke:#000000;stroke-width:9.5903616px;stroke-linecap:butt;stroke-linejoin:miter;stroke-miterlimit:10;stroke-dasharray:none;stroke-opacity:1;" />
  <path
     id="path13"
     d="  M 206.11285,281.27731   L 212.26666,280.75783   C 212.58634,283.23534 213.26566,285.27329 214.34458,286.83172   C 215.38353,288.43012 217.06184,289.70883 219.2996,290.66787   C 221.53735,291.66686 224.09478,292.14638 226.89196,292.14638   C 229.36947,292.14638 231.56727,291.78674 233.48534,291.02751   C 235.40341,290.30823 236.84196,289.26927 237.76104,287.99056   C 238.68012,286.71184 239.15964,285.27329 239.15964,283.75482   C 239.15964,282.19638 238.72008,280.83775 237.801,279.67891   C 236.92188,278.52008 235.44337,277.56104 233.36546,276.76184   C 232.04678,276.24237 229.08976,275.44317 224.57429,274.36425   C 220.01887,273.28534 216.82209,272.24638 215.02389,271.28735   C 212.66626,270.04859 210.90803,268.53012 209.74919,266.69196   C 208.59036,264.85381 207.99096,262.7759 207.99096,260.53815   C 207.99096,258.02068 208.71024,255.70301 210.10883,253.54518   C 211.54739,251.34739 213.6253,249.70903 216.34257,248.59016   C 219.05984,247.47128 222.09678,246.91184 225.41345,246.91184   C 229.0498,246.91184 232.28654,247.51124 235.08373,248.67008   C 237.88092,249.86887 240.03875,251.58714 241.55723,253.86486   C 243.0757,256.18253 243.8749,258.77992 243.99478,261.65702   L 237.72108,262.13654   C 237.36144,259.01967 236.24257,256.66204 234.28453,255.06365   C 232.3265,253.46526 229.48935,252.66606 225.65321,252.66606   C 221.69719,252.66606 218.82008,253.38534 217.02188,254.86385   C 215.22369,256.30241 214.30462,258.06064 214.30462,260.09859   C 214.30462,261.85682 214.94397,263.33534 216.22269,264.45421   C 217.5014,265.61305 220.77811,266.81184 226.09277,268.01064   C 231.40743,269.20943 235.04377,270.24839 237.04176,271.12751   C 239.91887,272.48614 242.03674,274.16445 243.39538,276.20241   C 244.79397,278.24036 245.47329,280.55803 245.47329,283.19538   C 245.47329,285.83273 244.71405,288.31024 243.19558,290.66787   C 241.71706,292.98554 239.51927,294.78373 236.72208,296.06245   C 233.88494,297.38112 230.72811,298.02048 227.17168,298.02048   C 222.73614,298.02048 218.97992,297.38112 215.94297,296.06245   C 212.90602,294.74377 210.54839,292.78574 208.83012,290.18835   C 207.11184,287.551 206.19277,284.59397 206.11285,281.27731   z  M 254.38433,297.18132   L 254.38433,247.751   L 273.04558,247.751   C 276.32229,247.751 278.83976,247.91084 280.55803,248.23052   C 282.99558,248.63012 285.03353,249.38935 286.67188,250.54819   C 288.31024,251.66706 289.62891,253.26546 290.62791,255.30341   C 291.6269,257.34136 292.10642,259.57911 292.10642,262.05662   C 292.10642,266.25241 290.78775,269.80883 288.11044,272.7259   C 285.43313,275.64297 280.59799,277.08152 273.60502,277.08152   L 260.93775,277.08152   L 260.93775,297.18132   z  M 260.93775,271.24739   L 273.7249,271.24739   C 277.96064,271.24739 280.95763,270.44819 282.71586,268.88976   C 284.51405,267.33132 285.39317,265.09357 285.39317,262.25642   C 285.39317,260.17851 284.87369,258.42028 283.83473,256.94176   C 282.75582,255.46325 281.39718,254.50421 279.67891,254.0247   C 278.6,253.74498 276.56204,253.58514 273.56506,253.58514   L 260.93775,253.58514   z "
     style="fill:#000000;fill-rule:evenodd;fill-opacity:1;stroke:none;" />
</svg>
