<?xml version="1.0" encoding="UTF-8" standalone="no"?>
<svg
   xmlns:dc="http://purl.org/dc/elements/1.1/"
   xmlns:cc="http://creativecommons.org/ns#"
   xmlns:rdf="http://www.w3.org/1999/02/22-rdf-syntax-ns#"
   xmlns:svg="http://www.w3.org/2000/svg"
   xmlns="http://www.w3.org/2000/svg"
   id="svg43"
   height="130.27mm"
   width="130.27mm"
   version="1.0">
  <metadata
     id="metadata47">
    <rdf:RDF>
      <cc:Work
         rdf:about="">
        <dc:format>image/svg+xml</dc:format>
        <dc:type
           rdf:resource="http://purl.org/dc/dcmitype/StillImage" />
      </cc:Work>
    </rdf:RDF>
  </metadata>
  <defs
     id="defs3">
    <pattern
       y="0"
       x="0"
       height="6"
       width="6"
       patternUnits="userSpaceOnUse"
       id="EMFhbasepattern" />
  </defs>
  <path
     id="path5"
     d="  M 164.63454,327.67068   C 164.63454,437.95983 327.67068,437.95983 327.67068,327.67068   C 437.95983,327.67068 437.95983,164.63454 327.67068,164.63454   C 327.67068,54.345381 164.63454,54.345381 164.63454,164.63454   C 54.345381,164.63454 54.345381,327.67068 164.63454,327.67068   z "
     style="fill:#ffff80;fill-rule:evenodd;fill-opacity:1;stroke:none;" />
  <path
     id="path7"
     d="  M 164.63454,327.67068   C 164.63454,437.95983 327.67068,437.95983 327.67068,327.67068   C 437.95983,327.67068 437.95983,164.63454 327.67068,164.63454   C 327.67068,54.345381 164.63454,54.345381 164.63454,164.63454   C 54.345381,164.63454 54.345381,327.67068 164.63454,327.67068  "
     style="fill:none;stroke:#000000;stroke-width:9.5903616px;stroke-linecap:butt;stroke-linejoin:miter;stroke-miterlimit:10;stroke-dasharray:none;stroke-opacity:1;" />
  <path
     id="path9"
     d="  M 242.59618,166.55261   L 242.59618,166.55261   L 247.63112,166.55261   L 247.63112,143.33594   L 242.59618,143.33594   z "
     style="fill:#000000;fill-rule:evenodd;fill-opacity:1;stroke:none;" />
  <path
     id="path11"
     d="  M 178.98012,185.17389   L 178.98012,185.17389   L 200.83815,207.03192   L 204.15482,203.4755   L 181.93715,181.33775   L 181.81727,181.93715   z "
     style="fill:#000000;fill-rule:evenodd;fill-opacity:1;stroke:none;" />
  <path
     id="path13"
     d="  M 286.59196,202.99598   L 286.59196,202.99598   L 290.14839,206.51245   L 311.3271,185.09397   L 308.13032,182.13695   z "
     style="fill:#000000;fill-rule:evenodd;fill-opacity:1;stroke:none;" />
  <path
     id="path15"
     d="  M 153.3259,250.30843   L 153.3259,250.30843   L 184.01506,250.26847   L 184.5745,245.75301   L 153.3259,245.75301   z "
     style="fill:#000000;fill-rule:evenodd;fill-opacity:1;stroke:none;" />
  <path
     id="path17"
     d="  M 307.17128,250.30843   L 307.17128,250.30843   L 336.42188,250.30843   L 336.42188,245.75301   L 307.17128,245.75301   z "
     style="fill:#000000;fill-rule:evenodd;fill-opacity:1;stroke:none;" />
  <path
     id="path19"
     d="  M 224.93393,212.94598   L 224.93393,214.46445   C 224.93393,215.66325 228.33052,224.89397 228.92992,226.65221   C 230.64819,231.88694 230.60823,234.72409 230.48835,240.19859   C 227.61124,239.95883 220.05883,233.08574 218.38052,230.60823   C 214.34458,224.57429 214.18474,222.41646 212.34658,214.46445   C 210.14879,216.06285 207.79116,223.61526 207.79116,227.61124   L 207.79116,233.1257   C 207.79116,246.43233 216.34257,253.4253 216.86205,259.85883   C 214.74417,259.37931 205.23373,252.26646 203.8751,250.66807   C 202.19678,248.67008 196.08293,238.04076 194.68433,237.68112   C 194.68433,247.1516 197.16184,254.22449 199.67931,260.93775   C 200.99799,264.57409 202.43654,267.77088 203.6753,271.04759   C 205.71325,276.20241 207.11184,275.92269 209.90903,279.43915   C 216.78213,288.23032 232.40642,299.21927 247.63112,299.21927   L 249.66907,299.21927   C 254.82389,299.21927 265.05361,295.10341 268.65,292.98554   C 274.20441,289.78875 279.31927,286.51204 282.95562,281.55702   C 289.70883,272.3263 295.54297,259.25943 295.54297,243.23554   L 295.66285,236.64217   L 295.06345,231.12771   L 294.06445,231.12771   C 291.4271,242.35642 284.07449,251.46727 274.88373,256.34237   C 274.88373,247.63112 278.12048,243.6751 279.31927,236.08273   C 280.19839,230.28855 277.04156,219.53935 276.88172,213.98494   C 275.84277,214.74417 273.96465,226.89196 270.92771,230.72811   C 270.08855,231.76706 258.73996,243.23554 258.73996,238.2006   L 258.73996,233.1257   C 258.73996,225.97289 263.29538,221.65723 263.29538,213.46546   C 263.29538,211.54739 255.02369,199.23976 253.46526,198.32068   L 253.70502,200.35863   C 253.70502,203.11586 252.74598,210.14879 251.98674,212.26666   C 251.50723,213.58534 246.55221,219.53935 245.63313,219.53935   C 242.75602,219.53935 239.55923,212.54638 239.55923,208.91004   L 239.55923,206.39257   C 239.55923,199.55943 246.27249,191.84719 245.79297,187.21184   L 244.63413,180.17891   C 243.2755,181.17791 241.63715,187.4516 240.79799,189.4496   C 239.39939,192.7263 237.48132,194.68433 235.44337,197.24176   C 233.7251,199.3996 224.93393,210.78815 224.93393,212.94598   z "
     style="fill:#000000;fill-rule:evenodd;fill-opacity:1;stroke:none;" />
  <path
     id="path21"
     d="  M 178.9002,311.20722   L 178.9002,311.20722   L 182.1769,314.48393   L 203.35562,293.06546   L 200.11887,290.02851   z "
     style="fill:#000000;fill-rule:evenodd;fill-opacity:1;stroke:none;" />
  <path
     id="path23"
     d="  M 287.39116,293.54498   L 287.39116,293.54498   L 308.29016,314.48393   L 311.3271,311.20722   L 290.38815,290.50803   z "
     style="fill:#000000;fill-rule:evenodd;fill-opacity:1;stroke:none;" />
  <path
     id="path25"
     d="  M 242.59618,340.05823   L 242.59618,340.05823   L 247.63112,340.05823   L 247.63112,309.80863   L 242.59618,309.80863   z "
     style="fill:#000000;fill-rule:evenodd;fill-opacity:1;stroke:none;" />
  <path
     id="path27"
     d="  M 245.19357,167.51164   L 245.19357,140.65863  "
     style="fill:none;stroke:#000000;stroke-width:7.6722889px;stroke-linecap:butt;stroke-linejoin:miter;stroke-miterlimit:10;stroke-dasharray:none;stroke-opacity:1;" />
  <path
     id="path29"
     d="  M 202.99598,205.87309   L 178.06104,181.89719  "
     style="fill:none;stroke:#000000;stroke-width:7.6722889px;stroke-linecap:butt;stroke-linejoin:miter;stroke-miterlimit:10;stroke-dasharray:none;stroke-opacity:1;" />
  <path
     id="path31"
     d="  M 287.39116,205.87309   L 310.40803,182.85622  "
     style="fill:none;stroke:#000000;stroke-width:7.6722889px;stroke-linecap:butt;stroke-linejoin:miter;stroke-miterlimit:10;stroke-dasharray:none;stroke-opacity:1;" />
  <path
     id="path33"
     d="  M 184.77429,248.07068   L 151.20803,248.07068  "
     style="fill:none;stroke:#000000;stroke-width:7.6722889px;stroke-linecap:butt;stroke-linejoin:miter;stroke-miterlimit:10;stroke-dasharray:none;stroke-opacity:1;" />
  <path
     id="path35"
     d="  M 202.03694,290.26827   L 179.97911,314.24417  "
     style="fill:none;stroke:#000000;stroke-width:7.6722889px;stroke-linecap:butt;stroke-linejoin:miter;stroke-miterlimit:10;stroke-dasharray:none;stroke-opacity:1;" />
  <path
     id="path37"
     d="  M 245.19357,309.44899   L 245.19357,341.09718  "
     style="fill:none;stroke:#000000;stroke-width:7.6722889px;stroke-linecap:butt;stroke-linejoin:miter;stroke-miterlimit:10;stroke-dasharray:none;stroke-opacity:1;" />
  <path
     id="path39"
     d="  M 288.3502,291.22731   L 311.36706,314.24417  "
     style="fill:none;stroke:#000000;stroke-width:7.6722889px;stroke-linecap:butt;stroke-linejoin:miter;stroke-miterlimit:10;stroke-dasharray:none;stroke-opacity:1;" />
  <path
     id="path41"
     d="  M 306.57188,248.07068   L 337.26104,248.07068  "
     style="fill:none;stroke:#000000;stroke-width:7.6722889px;stroke-linecap:butt;stroke-linejoin:miter;stroke-miterlimit:10;stroke-dasharray:none;stroke-opacity:1;" />
</svg>
