<?xml version="1.0" encoding="UTF-8" standalone="no"?>
<svg
   xmlns:dc="http://purl.org/dc/elements/1.1/"
   xmlns:cc="http://creativecommons.org/ns#"
   xmlns:rdf="http://www.w3.org/1999/02/22-rdf-syntax-ns#"
   xmlns:svg="http://www.w3.org/2000/svg"
   xmlns="http://www.w3.org/2000/svg"
   id="svg11"
   height="95.75mm"
   width="95.75mm"
   version="1.0">
  <metadata
     id="metadata15">
    <rdf:RDF>
      <cc:Work
         rdf:about="">
        <dc:format>image/svg+xml</dc:format>
        <dc:type
           rdf:resource="http://purl.org/dc/dcmitype/StillImage" />
      </cc:Work>
    </rdf:RDF>
  </metadata>
  <defs
     id="defs3">
    <pattern
       y="0"
       x="0"
       height="6"
       width="6"
       patternUnits="userSpaceOnUse"
       id="EMFhbasepattern" />
  </defs>
  <path
     id="path5"
     d="  M 54.345381,54.345381   L 54.345381,307.53092   L 307.53092,307.53092   L 307.53092,54.345381   L 54.345381,54.345381   z "
     style="fill:#aaffaa;fill-rule:evenodd;fill-opacity:1;stroke:none;" />
  <path
     id="path7"
     d="  M 54.345381,54.345381   L 307.53092,54.345381   L 307.53092,307.53092   L 54.345381,307.53092   z "
     style="fill:none;stroke:#000000;stroke-width:9.5903616px;stroke-linecap:butt;stroke-linejoin:miter;stroke-miterlimit:10;stroke-dasharray:none;stroke-opacity:1;" />
  <path
     id="path9"
     d="  M 100.41907,183.61546   L 108.17128,182.93614   C 108.53092,186.05301 109.37008,188.57048 110.68875,190.56847   C 112.04739,192.5265 114.1253,194.1249 116.92249,195.36365   C 119.71968,196.56245 122.8765,197.2018 126.39297,197.2018   C 129.50984,197.2018 132.26707,196.72229 134.66466,195.80321   C 137.06225,194.88413 138.82048,193.60542 139.97932,192.00703   C 141.17811,190.36867 141.73755,188.61044 141.73755,186.69237   C 141.73755,184.77429 141.17811,183.05602 140.05923,181.61747   C 138.94036,180.17891 137.06225,178.94016 134.50482,177.98112   C 132.8265,177.34176 129.1502,176.34277 123.4759,174.94417   C 117.8016,173.58554 113.84558,172.30682 111.56787,171.10803   C 108.61084,169.5496 106.41305,167.63152 104.9745,165.35381   C 103.53594,163.0761 102.81667,160.47871 102.81667,157.64156   C 102.81667,154.5247 103.69578,151.64759 105.45401,148.93032   C 107.21225,146.21305 109.80964,144.13514 113.20622,142.73654   C 116.60281,141.33795 120.39899,140.61867 124.55482,140.61867   C 129.11024,140.61867 133.14618,141.37791 136.66265,142.85642   C 140.17911,144.33494 142.85642,146.49277 144.73454,149.36988   C 146.61265,152.20703 147.61164,155.48373 147.77148,159.08012   L 139.93936,159.67952   C 139.4998,155.76345 138.1012,152.84638 135.66365,150.84839   C 133.2261,148.8504 129.62972,147.8514 124.8745,147.8514   C 119.91948,147.8514 116.32309,148.73052 114.08534,150.56867   C 111.80763,152.36687 110.68875,154.56466 110.68875,157.12209   C 110.68875,159.31988 111.48795,161.15803 113.08634,162.59658   C 114.64478,164.03514 118.76064,165.51365 125.39397,166.99217   C 132.06727,168.51064 136.62269,169.82931 139.1002,170.94819   C 142.69658,172.58654 145.33393,174.70442 147.05221,177.22188   C 148.77048,179.77931 149.60964,182.69638 149.60964,186.01305   C 149.60964,189.32972 148.69056,192.40662 146.81245,195.32369   C 144.93434,198.24076 142.21707,200.47851 138.7006,202.11686   C 135.14417,203.71526 131.18815,204.51445 126.79257,204.51445   C 121.19819,204.51445 116.52289,203.71526 112.72671,202.0769   C 108.93052,200.43855 105.97349,198.001 103.81566,194.72429   C 101.69779,191.44759 100.53895,187.77128 100.41907,183.61546   z  M 160.79839,203.4755   L 160.79839,141.69759   L 184.09498,141.69759   C 188.21084,141.69759 191.32771,141.89739 193.48554,142.25703   C 196.52249,142.7765 199.07992,143.73554 201.11787,145.17409   C 203.15582,146.57269 204.83413,148.57068 206.07289,151.12811   C 207.31164,153.68554 207.951,156.48273 207.951,159.55964   C 207.951,164.79438 206.27269,169.26988 202.91606,172.90622   C 199.59939,176.54257 193.56546,178.34076 184.81425,178.34076   L 168.9502,178.34076   L 168.9502,203.4755   z  M 168.9502,171.06807   L 184.93413,171.06807   C 190.20883,171.06807 193.96506,170.06907 196.20281,168.11104   C 198.4006,166.15301 199.51948,163.39578 199.51948,159.7994   C 199.51948,157.24197 198.88012,155.00421 197.56144,153.16606   C 196.24277,151.32791 194.5245,150.12911 192.40662,149.52972   C 191.00803,149.17008 188.49056,148.97028 184.77429,148.97028   L 168.9502,148.97028   z  M 235.76305,203.4755   L 235.76305,177.3018   L 211.94698,141.69759   L 221.89698,141.69759   L 234.08474,160.31887   C 236.32249,163.79538 238.44036,167.27189 240.35843,170.74839   C 242.19658,167.5516 244.47429,163.91526 247.11164,159.83936   L 259.05963,141.69759   L 268.61004,141.69759   L 243.95482,177.3018   L 243.95482,203.4755   z "
     style="fill:#000000;fill-rule:evenodd;fill-opacity:1;stroke:none;" />
</svg>
