<?xml version="1.0" encoding="UTF-8" standalone="no"?>
<svg
   xmlns:dc="http://purl.org/dc/elements/1.1/"
   xmlns:cc="http://creativecommons.org/ns#"
   xmlns:rdf="http://www.w3.org/1999/02/22-rdf-syntax-ns#"
   xmlns:svg="http://www.w3.org/2000/svg"
   xmlns="http://www.w3.org/2000/svg"
   id="svg13"
   height="112.9mm"
   width="112.9mm"
   version="1.0">
  <metadata
     id="metadata17">
    <rdf:RDF>
      <cc:Work
         rdf:about="">
        <dc:format>image/svg+xml</dc:format>
        <dc:type
           rdf:resource="http://purl.org/dc/dcmitype/StillImage" />
      </cc:Work>
    </rdf:RDF>
  </metadata>
  <defs
     id="defs3">
    <pattern
       y="0"
       x="0"
       height="6"
       width="6"
       patternUnits="userSpaceOnUse"
       id="EMFhbasepattern" />
  </defs>
  <path
     id="path5"
     d="  M 1055.3824,1055.5085   L 1203.488,1055.5085   L 1203.488,1246.2484   L 1055.3824,1246.2484   z "
     style="fill:none;stroke:#ffff00;stroke-width:5.3245535px;stroke-linecap:butt;stroke-linejoin:miter;stroke-miterlimit:282;stroke-dasharray:none;stroke-opacity:1;" />
  <path
     id="path7"
     d="  M 1055.3824,1248.4386   L 1129.9639,1348.5855   L 1204.5832,1248.4386  "
     style="fill:none;stroke:#ffff00;stroke-width:5.3245535px;stroke-linecap:butt;stroke-linejoin:miter;stroke-miterlimit:282;stroke-dasharray:none;stroke-opacity:1;" />
  <path
     id="path9"
     d="  M 1090.2374,1104.7512   L 1095.9396,1104.2603   C 1096.204,1106.5638 1096.8459,1108.4142 1097.8278,1109.8869   C 1098.8096,1111.3597 1100.3579,1112.5681 1102.4348,1113.4744   C 1104.5118,1114.3429 1106.8531,1114.7961 1109.4587,1114.7961   C 1111.7622,1114.7961 1113.8014,1114.4562 1115.5763,1113.7765   C 1117.3511,1113.0968 1118.6728,1112.1527 1119.5414,1110.9443   C 1120.3721,1109.7737 1120.8253,1108.452 1120.8253,1107.0547   C 1120.8253,1105.6197 1120.4099,1104.3358 1119.5791,1103.2785   C 1118.7483,1102.2211 1117.3511,1101.3148 1115.463,1100.5595   C 1114.2168,1100.1064 1111.4979,1099.3511 1107.3062,1098.3315   C 1103.1146,1097.3497 1100.1691,1096.3679 1098.4697,1095.4993   C 1096.2795,1094.3287 1094.6557,1092.9314 1093.5983,1091.2321   C 1092.5032,1089.5328 1091.9745,1087.6447 1091.9745,1085.5299   C 1091.9745,1083.2264 1092.6165,1081.0739 1093.9382,1079.0347   C 1095.2599,1077.0333 1097.148,1075.5228 1099.6781,1074.4654   C 1102.2082,1073.4458 1105.0027,1072.9172 1108.0992,1072.9172   C 1111.4601,1072.9172 1114.4812,1073.4458 1117.049,1074.541   C 1119.6547,1075.6361 1121.6561,1077.2599 1123.0533,1079.3746   C 1124.4505,1081.4893 1125.168,1083.9061 1125.2813,1086.5873   L 1119.4658,1087.0405   C 1119.1637,1084.1327 1118.1064,1081.9425 1116.2938,1080.4697   C 1114.5189,1078.997 1111.8378,1078.2417 1108.3258,1078.2417   C 1104.6628,1078.2417 1101.9817,1078.9215 1100.3201,1080.2809   C 1098.6585,1081.6026 1097.8278,1083.2264 1097.8278,1085.1145   C 1097.8278,1086.7761 1098.3942,1088.1356 1099.6026,1089.1929   C 1100.7733,1090.2503 1103.7943,1091.3454 1108.7412,1092.4405   C 1113.6504,1093.5734 1117.0113,1094.5175 1118.8616,1095.3483   C 1121.505,1096.5944 1123.4687,1098.1427 1124.7526,1100.0309   C 1126.0366,1101.919 1126.6785,1104.0715 1126.6785,1106.5261   C 1126.6785,1108.9806 1125.961,1111.2842 1124.5638,1113.4366   C 1123.1666,1115.5891 1121.1652,1117.2507 1118.5595,1118.4591   C 1115.9539,1119.6297 1113.0084,1120.2339 1109.723,1120.2339   C 1105.6069,1120.2339 1102.1327,1119.6297 1099.3383,1118.4213   C 1096.5438,1117.2129 1094.3158,1115.4003 1092.7298,1112.9835   C 1091.1437,1110.5667 1090.313,1107.81 1090.2374,1104.7512   z "
     style="fill:#ffff00;fill-rule:nonzero;fill-opacity:1;stroke:#ffff00;stroke-width:1.0573581px;stroke-linecap:butt;stroke-linejoin:miter;stroke-miterlimit:282;stroke-dasharray:none;stroke-opacity:1;" />
  <path
     id="path11"
     d="  M 1134.9863,1119.4787   L 1134.9863,1073.7102   L 1152.2817,1073.7102   C 1155.3027,1073.7102 1157.6063,1073.8235 1159.2301,1074.1256   C 1161.4581,1074.5032 1163.3462,1075.2207 1164.8945,1076.2781   C 1166.405,1077.3354 1167.6134,1078.8082 1168.5575,1080.6963   C 1169.4638,1082.5844 1169.9547,1084.6614 1169.9547,1086.9272   C 1169.9547,1090.8167 1168.7085,1094.1021 1166.2162,1096.821   C 1163.7616,1099.5022 1159.2678,1100.8616 1152.8104,1100.8616   L 1141.0662,1100.8616   L 1141.0662,1119.4787   z  M 1141.0662,1095.4616   L 1152.8859,1095.4616   C 1156.8132,1095.4616 1159.5699,1094.7441 1161.2315,1093.2713   C 1162.8553,1091.7986 1163.6861,1089.7594 1163.6861,1087.116   C 1163.6861,1085.1901 1163.1951,1083.5663 1162.2511,1082.2068   C 1161.2692,1080.8474 1159.9853,1079.941 1158.3993,1079.4879   C 1157.3797,1079.2236 1155.5293,1079.1103 1152.7726,1079.1103   L 1141.0662,1079.1103   z "
     style="fill:#ffff00;fill-rule:nonzero;fill-opacity:1;stroke:#ffff00;stroke-width:1.0573581px;stroke-linecap:butt;stroke-linejoin:miter;stroke-miterlimit:282;stroke-dasharray:none;stroke-opacity:1;" />
</svg>
