<?xml version="1.0" encoding="UTF-8" standalone="no"?>
<svg
   xmlns:dc="http://purl.org/dc/elements/1.1/"
   xmlns:cc="http://creativecommons.org/ns#"
   xmlns:rdf="http://www.w3.org/1999/02/22-rdf-syntax-ns#"
   xmlns:svg="http://www.w3.org/2000/svg"
   xmlns="http://www.w3.org/2000/svg"
   id="svg13"
   height="112.9mm"
   width="112.9mm"
   version="1.0">
  <metadata
     id="metadata17">
    <rdf:RDF>
      <cc:Work
         rdf:about="">
        <dc:format>image/svg+xml</dc:format>
        <dc:type
           rdf:resource="http://purl.org/dc/dcmitype/StillImage" />
      </cc:Work>
    </rdf:RDF>
  </metadata>
  <defs
     id="defs3">
    <pattern
       y="0"
       x="0"
       height="6"
       width="6"
       patternUnits="userSpaceOnUse"
       id="EMFhbasepattern" />
  </defs>
  <path
     id="path5"
     d="  M 451.74134,451.72623   L 600.99177,451.72623   L 600.99177,643.62504   L 451.74134,643.62504   L 451.74134,451.72623   z "
     style="fill:none;stroke:#000000;stroke-width:5.3263254px;stroke-linecap:butt;stroke-linejoin:miter;stroke-miterlimit:112;stroke-dasharray:none;stroke-opacity:1;" />
  <path
     id="path7"
     d="  M 451.74134,644.72053   L 526.34767,744.90078   L 600.99177,644.72053  "
     style="fill:none;stroke:#000000;stroke-width:5.3263254px;stroke-linecap:butt;stroke-linejoin:miter;stroke-miterlimit:112;stroke-dasharray:none;stroke-opacity:1;" />
  <path
     id="path9"
     d="  M 486.60799,500.98529   L 492.31207,500.49421   C 492.5765,502.79851 493.21868,504.6495 494.20084,506.12274   C 495.183,507.59598 496.73179,508.80479 498.80943,509.7114   C 500.88708,510.58023 503.22915,511.03354 505.83565,511.03354   C 508.13995,511.03354 510.17981,510.69356 511.95526,510.0136   C 513.7307,509.33365 515.05284,508.38926 515.92167,507.18045   C 516.75273,506.00942 517.20603,504.68728 517.20603,503.28959   C 517.20603,501.85413 516.7905,500.56976 515.95944,499.51205   C 515.12839,498.45434 513.7307,497.54774 511.84193,496.79223   C 510.59534,496.33892 507.87552,495.58342 503.68245,494.56348   C 499.48939,493.58132 496.54291,492.59916 494.84302,491.73033   C 492.65205,490.55929 491.02771,489.16161 489.97,487.46171   C 488.87451,485.76182 488.34566,483.87306 488.34566,481.75764   C 488.34566,479.45334 488.98784,477.30014 490.30998,475.26027   C 491.63211,473.25818 493.52088,471.74717 496.05183,470.68946   C 498.58278,469.66952 501.37816,469.14067 504.47574,469.14067   C 507.83774,469.14067 510.85977,469.66952 513.4285,470.76501   C 516.035,471.86049 518.03709,473.48483 519.43478,475.60025   C 520.83247,477.71567 521.5502,480.1333 521.66352,482.81535   L 515.84612,483.26865   C 515.54392,480.35995 514.48621,478.16898 512.67299,476.69574   C 510.89755,475.2225 508.2155,474.46699 504.70239,474.46699   C 501.03818,474.46699 498.35613,475.14695 496.69401,476.50686   C 495.0319,477.829 494.20084,479.45334 494.20084,481.34211   C 494.20084,483.00422 494.76747,484.36414 495.97628,485.42185   C 497.14732,486.47956 500.16935,487.57504 505.11792,488.67053   C 510.02871,489.80379 513.39072,490.74817 515.24171,491.57923   C 517.88599,492.82582 519.85031,494.37461 521.13467,496.26337   C 522.41903,498.15214 523.06121,500.30534 523.06121,502.76073   C 523.06121,505.21613 522.34348,507.52043 520.94579,509.67363   C 519.5481,511.82682 517.54601,513.48894 514.93951,514.69775   C 512.33301,515.86878 509.38653,516.47319 506.10008,516.47319   C 501.98256,516.47319 498.50723,515.86878 495.71185,514.65997   C 492.91648,513.45116 490.68773,511.63794 489.10117,509.22032   C 487.5146,506.8027 486.68354,504.0451 486.60799,500.98529   L 486.60799,500.98529   z "
     style="fill:#000000;fill-rule:nonzero;fill-opacity:1;stroke:#000000;stroke-width:1.0577101px;stroke-linecap:butt;stroke-linejoin:miter;stroke-miterlimit:112;stroke-dasharray:none;stroke-opacity:1;" />
  <path
     id="path11"
     d="  M 531.37179,515.71768   L 531.37179,469.93395   L 548.6729,469.93395   C 551.69493,469.93395 553.99923,470.04728 555.62357,470.34948   C 557.85232,470.72723 559.74108,471.44496 561.28987,472.50267   C 562.80089,473.56038 564.0097,475.03362 564.95408,476.92239   C 565.86069,478.81116 566.35177,480.8888 566.35177,483.15532   C 566.35177,487.04619 565.10519,490.33264 562.61201,493.05247   C 560.15661,495.73452 555.66135,497.09443 549.20176,497.09443   L 537.45362,497.09443   L 537.45362,515.71768   L 531.37179,515.71768   z  M 537.45362,491.69255   L 549.27731,491.69255   C 553.20595,491.69255 555.96355,490.97482 557.62566,489.50158   C 559.25,488.02835 560.08106,485.98848 560.08106,483.3442   C 560.08106,481.41766 559.58998,479.79332 558.6456,478.4334   C 557.66344,477.07349 556.37908,476.16688 554.79251,475.71358   C 553.77258,475.44915 551.92159,475.33583 549.16398,475.33583   L 537.45362,475.33583   L 537.45362,491.69255   z "
     style="fill:#000000;fill-rule:nonzero;fill-opacity:1;stroke:#000000;stroke-width:1.0577101px;stroke-linecap:butt;stroke-linejoin:miter;stroke-miterlimit:112;stroke-dasharray:none;stroke-opacity:1;" />
</svg>
