<?xml version="1.0" encoding="UTF-8" standalone="no"?>
<svg
   xmlns:dc="http://purl.org/dc/elements/1.1/"
   xmlns:cc="http://creativecommons.org/ns#"
   xmlns:rdf="http://www.w3.org/1999/02/22-rdf-syntax-ns#"
   xmlns:svg="http://www.w3.org/2000/svg"
   xmlns="http://www.w3.org/2000/svg"
   id="svg15"
   height="112.9mm"
   width="112.9mm"
   version="1.0">
  <metadata
     id="metadata19">
    <rdf:RDF>
      <cc:Work
         rdf:about="">
        <dc:format>image/svg+xml</dc:format>
        <dc:type
           rdf:resource="http://purl.org/dc/dcmitype/StillImage" />
      </cc:Work>
    </rdf:RDF>
  </metadata>
  <defs
     id="defs3">
    <pattern
       y="0"
       x="0"
       height="6"
       width="6"
       patternUnits="userSpaceOnUse"
       id="EMFhbasepattern" />
  </defs>
  <path
     id="path5"
     d="  M 2001.396,2185.7917   L 2185.7917,2001.4337   L 2001.396,1817.038   L 1817.038,2001.4337   z "
     style="fill:#ff8080;fill-rule:nonzero;fill-opacity:1;stroke:#000000;stroke-width:10.649107px;stroke-linecap:butt;stroke-linejoin:miter;stroke-miterlimit:282;stroke-dasharray:none;stroke-opacity:1;" />
  <path
     id="path7"
     d="  M 1929.4956,1925.6438   L 2072.2012,1925.6438   L 2072.2012,2021.4103   L 1929.4956,2021.4103   z "
     style="fill:none;stroke:#000000;stroke-width:6.3819113px;stroke-linecap:round;stroke-linejoin:miter;stroke-miterlimit:282;stroke-dasharray:none;stroke-opacity:1;" />
  <path
     id="path9"
     d="  M 2001.6603,1908.6883   L 2001.1316,2039.4609  "
     style="fill:none;stroke:#000000;stroke-width:6.3819113px;stroke-linecap:butt;stroke-linejoin:miter;stroke-miterlimit:282;stroke-dasharray:none;stroke-opacity:1;" />
  <path
     id="path11"
     d="  M 1965.3703,2092.933   L 1965.3703,2047.1645   L 1982.6656,2047.1645   C 1985.6867,2047.1645 1987.9902,2047.3155 1989.614,2047.5799   C 1991.842,2047.9575 1993.7301,2048.675 1995.2784,2049.7324   C 1996.7889,2050.7897 1997.9973,2052.2625 1998.9414,2054.1506   C 1999.8477,2056.0387 2000.3386,2058.1157 2000.3386,2060.3815   C 2000.3386,2064.271 1999.0925,2067.5942 1996.6001,2070.2753   C 1994.1455,2072.9565 1989.6518,2074.3159 1983.1943,2074.3159   L 1971.4501,2074.3159   L 1971.4501,2092.933   z  M 1971.4501,2068.9158   L 1983.2698,2068.9158   C 1987.1972,2068.9158 1989.9539,2068.1984 1991.6154,2066.7256   C 1993.2392,2065.2906 1994.07,2063.2137 1994.07,2060.5703   C 1994.07,2058.6821 1993.5791,2057.0206 1992.635,2055.6611   C 1991.6532,2054.3016 1990.3692,2053.3953 1988.7832,2052.98   C 1987.7636,2052.6778 1985.9132,2052.5646 1983.1566,2052.5646   L 1971.4501,2052.5646   z "
     style="fill:#000000;fill-rule:nonzero;fill-opacity:1;stroke:none;" />
  <path
     id="path13"
     d="  M 2007.8534,2092.933   L 2007.8534,2047.1645   L 2013.8955,2047.1645   L 2013.8955,2069.8599   L 2036.6287,2047.1645   L 2044.861,2047.1645   L 2025.6397,2065.706   L 2045.6917,2092.933   L 2037.686,2092.933   L 2021.4103,2069.7466   L 2013.8955,2077.0726   L 2013.8955,2092.933   z "
     style="fill:#000000;fill-rule:nonzero;fill-opacity:1;stroke:none;" />
</svg>
