<?xml version="1.0" encoding="UTF-8" standalone="no"?>
<svg
   xmlns:dc="http://purl.org/dc/elements/1.1/"
   xmlns:cc="http://creativecommons.org/ns#"
   xmlns:rdf="http://www.w3.org/1999/02/22-rdf-syntax-ns#"
   xmlns:svg="http://www.w3.org/2000/svg"
   xmlns="http://www.w3.org/2000/svg"
   id="svg15"
   height="112.9mm"
   width="112.9mm"
   version="1.0">
  <metadata
     id="metadata19">
    <rdf:RDF>
      <cc:Work
         rdf:about="">
        <dc:format>image/svg+xml</dc:format>
        <dc:type
           rdf:resource="http://purl.org/dc/dcmitype/StillImage" />
      </cc:Work>
    </rdf:RDF>
  </metadata>
  <defs
     id="defs3">
    <pattern
       y="0"
       x="0"
       height="6"
       width="6"
       patternUnits="userSpaceOnUse"
       id="EMFhbasepattern" />
  </defs>
  <path
     id="path5"
     d="  M 1817.5455,1817.5455   L 2097.821,1817.5455   L 2097.821,2097.821   L 1817.5455,2097.821   z "
     style="fill:#aaffaa;fill-rule:nonzero;fill-opacity:1;stroke:#000000;stroke-width:10.649107px;stroke-linecap:butt;stroke-linejoin:miter;stroke-miterlimit:282;stroke-dasharray:none;stroke-opacity:1;" />
  <path
     id="path7"
     d="  M 1886.3116,1884.2346   L 2029.0172,1884.2346   L 2029.0172,1980.0388   L 1886.3116,1980.0388   z "
     style="fill:none;stroke:#000000;stroke-width:6.3819113px;stroke-linecap:round;stroke-linejoin:miter;stroke-miterlimit:282;stroke-dasharray:none;stroke-opacity:1;" />
  <path
     id="path9"
     d="  M 1958.4763,1867.3169   L 1957.9476,1998.0894  "
     style="fill:none;stroke:#000000;stroke-width:6.3819113px;stroke-linecap:butt;stroke-linejoin:miter;stroke-miterlimit:282;stroke-dasharray:none;stroke-opacity:1;" />
  <path
     id="path11"
     d="  M 1917.1638,2051.5615   L 1934.7612,2005.793   L 1941.2564,2005.793   L 1960.0245,2051.5615   L 1953.1139,2051.5615   L 1947.7516,2037.7026   L 1928.6437,2037.7026   L 1923.5834,2051.5615   z  M 1930.3807,2032.7557   L 1945.9013,2032.7557   L 1941.1054,2020.0674   C 1939.6704,2016.2156 1938.5753,2013.0813 1937.8578,2010.5889   C 1937.2913,2013.5344 1936.4606,2016.4421 1935.4032,2019.3499   z "
     style="fill:#000000;fill-rule:nonzero;fill-opacity:1;stroke:none;" />
  <path
     id="path13"
     d="  M 1962.8567,2036.8341   L 1968.5589,2036.3431   C 1968.8233,2038.6467 1969.4652,2040.5348 1970.4471,2041.9698   C 1971.4289,2043.4425 1972.9772,2044.651 1975.0541,2045.5573   C 1977.1311,2046.4636 1979.4724,2046.9167 1982.078,2046.9167   C 1984.3815,2046.9167 1986.4207,2046.5391 1988.1956,2045.8594   C 1989.9704,2045.1796 1991.2921,2044.2356 1992.1607,2043.0272   C 1993.0292,2041.8565 1993.4446,2040.5348 1993.4446,2039.1376   C 1993.4446,2037.7026 1993.0292,2036.4187 1992.1984,2035.3613   C 1991.3677,2034.3039 1990.0082,2033.3976 1988.0823,2032.6801   C 1986.8361,2032.1892 1984.1172,2031.434 1979.9255,2030.4144   C 1975.7339,2029.4325 1972.7884,2028.4507 1971.089,2027.5822   C 1968.8988,2026.4115 1967.275,2025.0143 1966.2176,2023.315   C 1965.1225,2021.6156 1964.5938,2019.7275 1964.5938,2017.6128   C 1964.5938,2015.3093 1965.2358,2013.1568 1966.5575,2011.1176   C 1967.8792,2009.1162 1969.8051,2007.6057 1972.2974,2006.5483   C 1974.8276,2005.5287 1977.622,2005 1980.7185,2005   C 1984.1172,2005 1987.1005,2005.5287 1989.6683,2006.6238   C 1992.274,2007.7189 1994.2754,2009.3427 1995.6726,2011.4575   C 1997.0698,2013.5722 1997.8251,2015.989 1997.9006,2018.6702   L 1992.1229,2019.1233   C 1991.783,2016.2156 1990.7257,2014.0253 1988.9508,2012.5526   C 1987.1382,2011.0798 1984.4948,2010.3246 1980.9451,2010.3246   C 1977.2821,2010.3246 1974.6387,2011.0043 1972.9394,2012.3638   C 1971.2779,2013.6855 1970.4471,2015.3093 1970.4471,2017.1974   C 1970.4471,2018.859 1971.0135,2020.2184 1972.2219,2021.2758   C 1973.3926,2022.3331 1976.4136,2023.4283 1981.3605,2024.5234   C 1986.2697,2025.6563 1989.6683,2026.6003 1991.4809,2027.4311   C 1994.1621,2028.6773 1996.1258,2030.2256 1997.3719,2032.1137   C 1998.6559,2034.0018 1999.2978,2036.1543 1999.2978,2038.6089   C 1999.2978,2041.0635 1998.5803,2043.367 1997.1831,2045.5195   C 1995.7859,2047.672 1993.7845,2049.3335 1991.1788,2050.5419   C 1988.5732,2051.7504 1985.6277,2052.3168 1982.3801,2052.3168   C 1978.2262,2052.3168 1974.752,2051.7126 1971.9576,2050.5042   C 1969.1631,2049.3335 1966.9729,2047.4832 1965.3491,2045.0663   C 1963.7631,2042.6495 1962.9323,2039.8928 1962.8567,2036.8341   z "
     style="fill:#000000;fill-rule:nonzero;fill-opacity:1;stroke:none;" />
</svg>
