<?xml version="1.0" encoding="UTF-8" standalone="no"?>
<svg
   xmlns:dc="http://purl.org/dc/elements/1.1/"
   xmlns:cc="http://creativecommons.org/ns#"
   xmlns:rdf="http://www.w3.org/1999/02/22-rdf-syntax-ns#"
   xmlns:svg="http://www.w3.org/2000/svg"
   xmlns="http://www.w3.org/2000/svg"
   id="svg15"
   height="112.9mm"
   width="112.9mm"
   version="1.0">
  <metadata
     id="metadata19">
    <rdf:RDF>
      <cc:Work
         rdf:about="">
        <dc:format>image/svg+xml</dc:format>
        <dc:type
           rdf:resource="http://purl.org/dc/dcmitype/StillImage" />
      </cc:Work>
    </rdf:RDF>
  </metadata>
  <defs
     id="defs3">
    <pattern
       y="0"
       x="0"
       height="6"
       width="6"
       patternUnits="userSpaceOnUse"
       id="EMFhbasepattern" />
  </defs>
  <ellipse
     id="ellipse5"
     ry="152.90154"
     rx="152.90154"
     cy="1969.9011"
     cx="1969.8256"
     style="fill:#80e0ff;fill-rule:nonzero;fill-opacity:1;stroke:#000000;stroke-width:10.649107px;stroke-linecap:butt;stroke-linejoin:miter;stroke-miterlimit:282;stroke-dasharray:none;stroke-opacity:1;" />
  <path
     id="path7"
     d="  M 1898.4917,1896.4147   L 2041.1973,1896.4147   L 2041.1973,1992.2189   L 1898.4917,1992.2189   z "
     style="fill:none;stroke:#000000;stroke-width:6.3819113px;stroke-linecap:round;stroke-linejoin:miter;stroke-miterlimit:282;stroke-dasharray:none;stroke-opacity:1;" />
  <path
     id="path9"
     d="  M 1970.6564,1879.497   L 1970.1277,2010.2695  "
     style="fill:none;stroke:#000000;stroke-width:6.3819113px;stroke-linecap:butt;stroke-linejoin:miter;stroke-miterlimit:282;stroke-dasharray:none;stroke-opacity:1;" />
  <path
     id="path11"
     d="  M 1930.1747,2063.7417   L 1930.1747,2017.9732   L 1950.4533,2017.9732   C 1954.5317,2017.9732 1957.6282,2018.3885 1959.7429,2019.1816   C 1961.8954,2020.0123 1963.5947,2021.4851 1964.8409,2023.5621   C 1966.1248,2025.639 1966.7668,2027.9425 1966.7668,2030.4349   C 1966.7668,2033.6825 1965.7095,2036.4392 1963.5947,2038.6672   C 1961.5178,2040.8952 1958.2702,2042.2924 1953.8519,2042.8966   C 1955.4757,2043.6896 1956.6842,2044.4449 1957.5149,2045.2001   C 1959.2898,2046.8239 1960.9513,2048.8254 1962.5374,2051.2799   L 1970.5053,2063.7417   L 1962.8772,2063.7417   L 1956.8352,2054.2254   C 1955.0604,2051.4688 1953.5876,2049.354 1952.4547,2047.9191   C 1951.3218,2046.4463 1950.3022,2045.4267 1949.3959,2044.8603   C 1948.4896,2044.2561 1947.5456,2043.8407 1946.6015,2043.6141   C 1945.9218,2043.463 1944.7889,2043.4253 1943.2406,2043.4253   L 1936.2167,2043.4253   L 1936.2167,2063.7417   z  M 1936.2167,2038.1763   L 1949.2449,2038.1763   C 1952.0016,2038.1763 1954.154,2037.8741 1955.7401,2037.3077   C 1957.2884,2036.7413 1958.4968,2035.7972 1959.2898,2034.551   C 1960.1206,2033.3049 1960.4982,2031.9454 1960.4982,2030.4349   C 1960.4982,2028.2824 1959.7429,2026.5075 1958.1569,2025.1103   C 1956.5709,2023.7131 1954.1163,2023.0334 1950.7176,2023.0334   L 1936.2167,2023.0334   z "
     style="fill:#000000;fill-rule:nonzero;fill-opacity:1;stroke:none;" />
  <path
     id="path13"
     d="  M 1974.2061,2049.0142   L 1979.946,2048.5233   C 1980.2104,2050.8268 1980.8146,2052.7149 1981.8342,2054.1499   C 1982.816,2055.6227 1984.3265,2056.8311 1986.4412,2057.7374   C 1988.5182,2058.6437 1990.8595,2059.0968 1993.4651,2059.0968   C 1995.7686,2059.0968 1997.8078,2058.7192 1999.5827,2058.0395   C 2001.3575,2057.3597 2002.6415,2056.4157 2003.51,2055.2073   C 2004.3786,2054.0366 2004.8317,2052.7149 2004.8317,2051.3177   C 2004.8317,2049.8827 2004.4163,2048.5988 2003.5855,2047.5414   C 2002.717,2046.4841 2001.3575,2045.5778 1999.4316,2044.8603   C 1998.2232,2044.3693 1995.5043,2043.6141 1991.3126,2042.5945   C 1987.0832,2041.6127 1984.1377,2040.6308 1982.4761,2039.7623   C 1980.2859,2038.5916 1978.6621,2037.1944 1977.567,2035.4951   C 1976.5096,2033.7958 1975.9809,2031.9076 1975.9809,2029.7929   C 1975.9809,2027.4894 1976.6229,2025.3369 1977.9446,2023.2977   C 1979.2285,2021.2963 1981.1544,2019.7858 1983.6845,2018.7284   C 1986.2147,2017.7088 1989.0091,2017.1801 1992.0679,2017.1801   C 1995.4665,2017.1801 1998.4498,2017.7088 2001.0554,2018.8039   C 2003.6611,2019.8991 2005.6247,2021.5229 2007.0219,2023.6376   C 2008.4192,2025.7523 2009.1744,2028.1691 2009.2877,2030.8503   L 2003.4722,2031.3034   C 2003.1701,2028.3957 2002.1128,2026.2054 2000.3002,2024.7327   C 1998.4876,2023.2599 1995.8442,2022.5047 1992.3322,2022.5047   C 1988.6692,2022.5047 1985.9881,2023.1844 1984.3265,2024.5439   C 1982.6272,2025.8656 1981.7964,2027.4894 1981.7964,2029.3775   C 1981.7964,2031.0391 1982.4006,2032.3985 1983.5713,2033.4559   C 1984.7419,2034.5133 1987.8007,2035.6084 1992.7099,2036.7035   C 1997.6568,2037.8364 2001.0177,2038.7805 2002.868,2039.6112   C 2005.5114,2040.8574 2007.4751,2042.4057 2008.759,2044.2938   C 2010.0052,2046.182 2010.6472,2048.3344 2010.6472,2050.789   C 2010.6472,2053.2436 2009.9674,2055.5471 2008.5702,2057.6996   C 2007.173,2059.8521 2005.1716,2061.5137 2002.5659,2062.7221   C 1999.9225,2063.9305 1997.0148,2064.4969 1993.7294,2064.4969   C 1989.5755,2064.4969 1986.1014,2063.8927 1983.3069,2062.6843   C 1980.5125,2061.5137 1978.3222,2059.6633 1976.7362,2057.2465   C 1975.1502,2054.8296 1974.3194,2052.073 1974.2061,2049.0142   z "
     style="fill:#000000;fill-rule:nonzero;fill-opacity:1;stroke:none;" />
</svg>
