<?xml version="1.0" encoding="UTF-8" standalone="no"?>
<svg
   xmlns:dc="http://purl.org/dc/elements/1.1/"
   xmlns:cc="http://creativecommons.org/ns#"
   xmlns:rdf="http://www.w3.org/1999/02/22-rdf-syntax-ns#"
   xmlns:svg="http://www.w3.org/2000/svg"
   xmlns="http://www.w3.org/2000/svg"
   id="svg15"
   height="112.9mm"
   width="112.9mm"
   version="1.0">
  <metadata
     id="metadata19">
    <rdf:RDF>
      <cc:Work
         rdf:about="">
        <dc:format>image/svg+xml</dc:format>
        <dc:type
           rdf:resource="http://purl.org/dc/dcmitype/StillImage" />
      </cc:Work>
    </rdf:RDF>
  </metadata>
  <defs
     id="defs3">
    <pattern
       y="0"
       x="0"
       height="6"
       width="6"
       patternUnits="userSpaceOnUse"
       id="EMFhbasepattern" />
  </defs>
  <path
     id="path5"
     d="  M 1939.6302,2120.7783   C 1939.6302,2243.3563 2120.7783,2243.3563 2120.7783,2120.7783   C 2243.3563,2120.7783 2243.3563,1939.6302 2120.7783,1939.6302   C 2120.7783,1817.0522 1939.6302,1817.0522 1939.6302,1939.6302   C 1817.0522,1939.6302 1817.0522,2120.7783 1939.6302,2120.7783   z "
     style="fill:#ffff80;fill-rule:nonzero;fill-opacity:1;stroke:#000000;stroke-width:10.649107px;stroke-linecap:butt;stroke-linejoin:miter;stroke-miterlimit:282;stroke-dasharray:none;stroke-opacity:1;" />
  <path
     id="path7"
     d="  M 1958.285,1958.7004   L 2100.9906,1958.7004   L 2100.9906,2054.5801   L 1958.285,2054.5801   z "
     style="fill:none;stroke:#000000;stroke-width:6.3819113px;stroke-linecap:round;stroke-linejoin:miter;stroke-miterlimit:282;stroke-dasharray:none;stroke-opacity:1;" />
  <path
     id="path9"
     d="  M 2030.4497,1941.8204   L 2029.921,2072.5552  "
     style="fill:none;stroke:#000000;stroke-width:6.3819113px;stroke-linecap:butt;stroke-linejoin:miter;stroke-miterlimit:282;stroke-dasharray:none;stroke-opacity:1;" />
  <path
     id="path11"
     d="  M 1989.968,2126.0273   L 1989.968,2080.2588   L 2010.2466,2080.2588   C 2014.325,2080.2588 2017.4215,2080.6742 2019.5362,2081.505   C 2021.6887,2082.298 2023.388,2083.7707 2024.6342,2085.8477   C 2025.9182,2087.9247 2026.5601,2090.2282 2026.5601,2092.7583   C 2026.5601,2096.0059 2025.5028,2098.7248 2023.388,2100.9528   C 2021.3111,2103.1808 2018.0635,2104.6158 2013.6452,2105.22   C 2015.269,2105.9753 2016.4775,2106.7305 2017.3082,2107.4858   C 2019.0831,2109.1096 2020.7447,2111.1488 2022.3307,2113.5656   L 2030.2986,2126.0273   L 2022.6706,2126.0273   L 2016.6285,2116.5111   C 2014.8537,2113.7544 2013.3809,2111.6397 2012.248,2110.2047   C 2011.1151,2108.732 2010.0955,2107.7124 2009.1892,2107.1459   C 2008.2829,2106.5417 2007.3389,2106.1641 2006.3948,2105.9375   C 2005.7151,2105.7865 2004.5822,2105.7109 2003.0339,2105.7109   L 1996.01,2105.7109   L 1996.01,2126.0273   z  M 1996.01,2100.4619   L 2009.0382,2100.4619   C 2011.7949,2100.4619 2013.9474,2100.1598 2015.5334,2099.5934   C 2017.0817,2099.0269 2018.2901,2098.1206 2019.0831,2096.8367   C 2019.9139,2095.5905 2020.2915,2094.231 2020.2915,2092.7583   C 2020.2915,2090.5681 2019.5362,2088.7932 2017.9502,2087.396   C 2016.3642,2085.9988 2013.9096,2085.319 2010.5109,2085.319   L 1996.01,2085.319   z "
     style="fill:#000000;fill-rule:nonzero;fill-opacity:1;stroke:none;" />
  <path
     id="path13"
     d="  M 2033.9994,2111.3376   L 2039.7393,2110.8089   C 2040.0037,2113.1124 2040.6079,2115.0006 2041.6275,2116.4733   C 2042.6093,2117.9461 2044.1198,2119.1167 2046.2345,2120.023   C 2048.3115,2120.9293 2050.6528,2121.3825 2053.2584,2121.3825   C 2055.5619,2121.3825 2057.6011,2121.0426 2059.376,2120.3629   C 2061.1508,2119.6454 2062.4348,2118.7013 2063.3033,2117.5307   C 2064.1719,2116.3223 2064.625,2115.0006 2064.625,2113.6034   C 2064.625,2112.1684 2064.2096,2110.9222 2063.3788,2109.8271   C 2062.5103,2108.7697 2061.1508,2107.8634 2059.2249,2107.1459   C 2058.0165,2106.655 2055.2976,2105.8997 2051.1059,2104.9179   C 2046.8765,2103.8983 2043.931,2102.9542 2042.2694,2102.0479   C 2040.0792,2100.9151 2038.4554,2099.4801 2037.3603,2097.7807   C 2036.3029,2096.0814 2035.7742,2094.1933 2035.7742,2092.0786   C 2035.7742,2089.775 2036.4162,2087.6226 2037.7379,2085.6211   C 2039.0218,2083.6197 2040.9477,2082.0714 2043.4779,2081.0518   C 2046.008,2079.9945 2048.8024,2079.4658 2051.8612,2079.4658   C 2055.2598,2079.4658 2058.2431,2080.0322 2060.8487,2081.1274   C 2063.4544,2082.2225 2065.418,2083.8085 2066.8153,2085.9232   C 2068.2125,2088.0757 2068.9677,2090.4548 2069.081,2093.1359   L 2063.2656,2093.5891   C 2062.9635,2090.6813 2061.9061,2088.5289 2060.0935,2087.0183   C 2058.2809,2085.5456 2055.6375,2084.8281 2052.1255,2084.8281   C 2048.4625,2084.8281 2045.7814,2085.4701 2044.1198,2086.8295   C 2042.4205,2088.189 2041.5897,2089.775 2041.5897,2091.7009   C 2041.5897,2093.3247 2042.1939,2094.6842 2043.3646,2095.7416   C 2044.5352,2096.7989 2047.594,2097.894 2052.5032,2098.9892   C 2057.4501,2100.122 2060.811,2101.1039 2062.6614,2101.9347   C 2065.3047,2103.1431 2067.2684,2104.6913 2068.5523,2106.5795   C 2069.7985,2108.4676 2070.4405,2110.6579 2070.4405,2113.1124   C 2070.4405,2115.5293 2069.7608,2117.8328 2068.3635,2119.9853   C 2066.9663,2122.1377 2064.9649,2123.8371 2062.3592,2125.0077   C 2059.7159,2126.2161 2056.8081,2126.8203 2053.5228,2126.8203   C 2049.3688,2126.8203 2045.8947,2126.2161 2043.1002,2125.0077   C 2040.3058,2123.7993 2038.1155,2121.9867 2036.5295,2119.5699   C 2034.9435,2117.1153 2034.1127,2114.3964 2033.9994,2111.3376   z "
     style="fill:#000000;fill-rule:nonzero;fill-opacity:1;stroke:none;" />
</svg>
