<?xml version="1.0" encoding="UTF-8" standalone="no"?>
<svg
   xmlns:dc="http://purl.org/dc/elements/1.1/"
   xmlns:cc="http://creativecommons.org/ns#"
   xmlns:rdf="http://www.w3.org/1999/02/22-rdf-syntax-ns#"
   xmlns:svg="http://www.w3.org/2000/svg"
   xmlns="http://www.w3.org/2000/svg"
   id="svg15"
   height="112.9mm"
   width="112.9mm"
   version="1.0">
  <metadata
     id="metadata19">
    <rdf:RDF>
      <cc:Work
         rdf:about="">
        <dc:format>image/svg+xml</dc:format>
        <dc:type
           rdf:resource="http://purl.org/dc/dcmitype/StillImage" />
      </cc:Work>
    </rdf:RDF>
  </metadata>
  <defs
     id="defs3">
    <pattern
       y="0"
       x="0"
       height="6"
       width="6"
       patternUnits="userSpaceOnUse"
       id="EMFhbasepattern" />
  </defs>
  <path
     id="path5"
     d="  M 1939.6302,2120.7783   C 1939.6302,2243.3563 2120.7783,2243.3563 2120.7783,2120.7783   C 2243.3563,2120.7783 2243.3563,1939.6302 2120.7783,1939.6302   C 2120.7783,1817.0522 1939.6302,1817.0522 1939.6302,1939.6302   C 1817.0522,1939.6302 1817.0522,2120.7783 1939.6302,2120.7783   z "
     style="fill:#ffff80;fill-rule:nonzero;fill-opacity:1;stroke:#000000;stroke-width:10.649107px;stroke-linecap:butt;stroke-linejoin:miter;stroke-miterlimit:282;stroke-dasharray:none;stroke-opacity:1;" />
  <path
     id="path7"
     d="  M 1958.285,1958.7004   L 2100.9906,1958.7004   L 2100.9906,2054.5801   L 1958.285,2054.5801   z "
     style="fill:none;stroke:#000000;stroke-width:6.3819113px;stroke-linecap:round;stroke-linejoin:miter;stroke-miterlimit:282;stroke-dasharray:none;stroke-opacity:1;" />
  <path
     id="path9"
     d="  M 2030.4497,1941.8204   L 2029.921,2072.5552  "
     style="fill:none;stroke:#000000;stroke-width:6.3819113px;stroke-linecap:butt;stroke-linejoin:miter;stroke-miterlimit:282;stroke-dasharray:none;stroke-opacity:1;" />
  <path
     id="path11"
     d="  M 1994.1596,2126.0273   L 1994.1596,2080.2588   L 2011.455,2080.2588   C 2014.476,2080.2588 2016.7796,2080.4099 2018.4034,2080.712   C 2020.6314,2081.0518 2022.5195,2081.7693 2024.0678,2082.8267   C 2025.5783,2083.884 2026.7867,2085.3568 2027.7308,2087.2449   C 2028.6371,2089.1331 2029.128,2091.21 2029.128,2093.5135   C 2029.128,2097.4031 2027.8818,2100.6885 2025.3895,2103.3696   C 2022.9349,2106.0886 2018.4411,2107.4103 2011.9837,2107.4103   L 2000.2395,2107.4103   L 2000.2395,2126.0273   z  M 2000.2395,2102.0102   L 2012.0592,2102.0102   C 2015.9865,2102.0102 2018.7432,2101.2927 2020.4048,2099.8199   C 2022.0286,2098.3849 2022.8594,2096.308 2022.8594,2093.6646   C 2022.8594,2091.7765 2022.3685,2090.1149 2021.4244,2088.7554   C 2020.4426,2087.396 2019.1586,2086.4897 2017.5726,2086.0743   C 2016.553,2085.8099 2014.7026,2085.6589 2011.9459,2085.6589   L 2000.2395,2085.6589   z "
     style="fill:#000000;fill-rule:nonzero;fill-opacity:1;stroke:none;" />
  <path
     id="path13"
     d="  M 2036.6428,2126.0273   L 2036.6428,2080.2588   L 2042.6848,2080.2588   L 2042.6848,2102.9542   L 2065.418,2080.2588   L 2073.6503,2080.2588   L 2054.4291,2098.8003   L 2074.4811,2126.0273   L 2066.4754,2126.0273   L 2050.1996,2102.8787   L 2042.6848,2110.1669   L 2042.6848,2126.0273   z "
     style="fill:#000000;fill-rule:nonzero;fill-opacity:1;stroke:none;" />
</svg>
