<?xml version="1.0" encoding="UTF-8" standalone="no"?>
<svg
   xmlns:dc="http://purl.org/dc/elements/1.1/"
   xmlns:cc="http://creativecommons.org/ns#"
   xmlns:rdf="http://www.w3.org/1999/02/22-rdf-syntax-ns#"
   xmlns:svg="http://www.w3.org/2000/svg"
   xmlns="http://www.w3.org/2000/svg"
   id="svg15"
   height="112.9mm"
   width="112.9mm"
   version="1.0">
  <metadata
     id="metadata19">
    <rdf:RDF>
      <cc:Work
         rdf:about="">
        <dc:format>image/svg+xml</dc:format>
        <dc:type
           rdf:resource="http://purl.org/dc/dcmitype/StillImage" />
      </cc:Work>
    </rdf:RDF>
  </metadata>
  <defs
     id="defs3">
    <pattern
       y="0"
       x="0"
       height="6"
       width="6"
       patternUnits="userSpaceOnUse"
       id="EMFhbasepattern" />
  </defs>
  <path
     id="path5"
     d="  M 1939.6302,2120.7783   C 1939.6302,2243.3563 2120.7783,2243.3563 2120.7783,2120.7783   C 2243.3563,2120.7783 2243.3563,1939.6302 2120.7783,1939.6302   C 2120.7783,1817.0522 1939.6302,1817.0522 1939.6302,1939.6302   C 1817.0522,1939.6302 1817.0522,2120.7783 1939.6302,2120.7783   z "
     style="fill:#ffff80;fill-rule:nonzero;fill-opacity:1;stroke:#000000;stroke-width:10.649107px;stroke-linecap:butt;stroke-linejoin:miter;stroke-miterlimit:282;stroke-dasharray:none;stroke-opacity:1;" />
  <path
     id="path7"
     d="  M 1958.285,1958.7004   L 2100.9906,1958.7004   L 2100.9906,2054.5801   L 1958.285,2054.5801   z "
     style="fill:none;stroke:#000000;stroke-width:6.3819113px;stroke-linecap:round;stroke-linejoin:miter;stroke-miterlimit:282;stroke-dasharray:none;stroke-opacity:1;" />
  <path
     id="path9"
     d="  M 2030.4497,1941.8204   L 2029.921,2072.5552  "
     style="fill:none;stroke:#000000;stroke-width:6.3819113px;stroke-linecap:butt;stroke-linejoin:miter;stroke-miterlimit:282;stroke-dasharray:none;stroke-opacity:1;" />
  <path
     id="path11"
     d="  M 1989.1372,2126.0273   L 2006.7347,2080.2588   L 2013.2299,2080.2588   L 2031.998,2126.0273   L 2025.0874,2126.0273   L 2019.7251,2112.1684   L 2000.6171,2112.1684   L 1995.5569,2126.0273   z  M 2002.3542,2107.2214   L 2017.8747,2107.2214   L 2013.0788,2094.5709   C 2011.6438,2090.7191 2010.5487,2087.547 2009.8312,2085.0547   C 2009.2648,2088.0002 2008.434,2090.9079 2007.3766,2093.8157   z "
     style="fill:#000000;fill-rule:nonzero;fill-opacity:1;stroke:none;" />
  <path
     id="path13"
     d="  M 2034.8302,2111.3376   L 2040.5324,2110.8089   C 2040.7967,2113.1124 2041.4387,2115.0006 2042.4205,2116.4733   C 2043.4023,2117.9461 2044.9506,2119.1167 2047.0276,2120.023   C 2049.1045,2120.9293 2051.4458,2121.3825 2054.0514,2121.3825   C 2056.355,2121.3825 2058.3942,2121.0426 2060.169,2120.3629   C 2061.9439,2119.6454 2063.2656,2118.7013 2064.1341,2117.5307   C 2065.0026,2116.3223 2065.418,2115.0006 2065.418,2113.6034   C 2065.418,2112.1684 2065.0026,2110.9222 2064.1719,2109.8271   C 2063.3411,2108.7697 2061.9816,2107.8634 2060.0557,2107.1459   C 2058.8095,2106.655 2056.0906,2105.8997 2051.899,2104.9179   C 2047.7073,2103.8983 2044.7618,2102.9542 2043.0625,2102.0479   C 2040.8722,2100.9151 2039.2484,2099.4801 2038.1911,2097.7807   C 2037.0959,2096.0814 2036.5673,2094.1933 2036.5673,2092.0786   C 2036.5673,2089.775 2037.2092,2087.6226 2038.5309,2085.6211   C 2039.8526,2083.6197 2041.7785,2082.0714 2044.2709,2081.0518   C 2046.801,2079.9945 2049.5954,2079.4658 2052.692,2079.4658   C 2056.0906,2079.4658 2059.0739,2080.0322 2061.6418,2081.1274   C 2064.2474,2082.2225 2066.2488,2083.8085 2067.646,2085.9232   C 2069.0433,2088.0757 2069.7985,2090.4548 2069.874,2093.1359   L 2064.0963,2093.5891   C 2063.7565,2090.6813 2062.6991,2088.5289 2060.9243,2087.0183   C 2059.1116,2085.5456 2056.4683,2084.8281 2052.9186,2084.8281   C 2049.2556,2084.8281 2046.6122,2085.4701 2044.9128,2086.8295   C 2043.2513,2088.189 2042.4205,2089.775 2042.4205,2091.7009   C 2042.4205,2093.3247 2042.9869,2094.6842 2044.1953,2095.7416   C 2045.366,2096.7989 2048.387,2097.894 2053.3339,2098.9892   C 2058.2431,2100.122 2061.6418,2101.1039 2063.4544,2101.9347   C 2066.1355,2103.1431 2068.0992,2104.6913 2069.3454,2106.5795   C 2070.6293,2108.4676 2071.2713,2110.6579 2071.2713,2113.1124   C 2071.2713,2115.5293 2070.5538,2117.8328 2069.1565,2119.9853   C 2067.7593,2122.1377 2065.7579,2123.8371 2063.1523,2125.0077   C 2060.5466,2126.2161 2057.6011,2126.8203 2054.3535,2126.8203   C 2050.1996,2126.8203 2046.7255,2126.2161 2043.931,2125.0077   C 2041.1366,2123.7993 2038.9463,2121.9867 2037.3225,2119.5699   C 2035.7365,2117.1153 2034.9057,2114.3964 2034.8302,2111.3376   z "
     style="fill:#000000;fill-rule:nonzero;fill-opacity:1;stroke:none;" />
</svg>
