<?xml version="1.0" encoding="UTF-8" standalone="no"?>
<svg
   xmlns:dc="http://purl.org/dc/elements/1.1/"
   xmlns:cc="http://creativecommons.org/ns#"
   xmlns:rdf="http://www.w3.org/1999/02/22-rdf-syntax-ns#"
   xmlns:svg="http://www.w3.org/2000/svg"
   xmlns="http://www.w3.org/2000/svg"
   id="svg15"
   height="112.9mm"
   width="112.9mm"
   version="1.0">
  <metadata
     id="metadata19">
    <rdf:RDF>
      <cc:Work
         rdf:about="">
        <dc:format>image/svg+xml</dc:format>
        <dc:type
           rdf:resource="http://purl.org/dc/dcmitype/StillImage" />
      </cc:Work>
    </rdf:RDF>
  </metadata>
  <defs
     id="defs3">
    <pattern
       y="0"
       x="0"
       height="6"
       width="6"
       patternUnits="userSpaceOnUse"
       id="EMFhbasepattern" />
  </defs>
  <path
     id="path5"
     d="  M 2001.396,2185.7917   L 2185.7917,2001.4337   L 2001.396,1817.038   L 1817.038,2001.4337   z "
     style="fill:#ff8080;fill-rule:nonzero;fill-opacity:1;stroke:#000000;stroke-width:10.649107px;stroke-linecap:butt;stroke-linejoin:miter;stroke-miterlimit:282;stroke-dasharray:none;stroke-opacity:1;" />
  <path
     id="path7"
     d="  M 1929.4956,1925.6438   L 2072.2012,1925.6438   L 2072.2012,2021.4103   L 1929.4956,2021.4103   z "
     style="fill:none;stroke:#000000;stroke-width:6.3819113px;stroke-linecap:round;stroke-linejoin:miter;stroke-miterlimit:282;stroke-dasharray:none;stroke-opacity:1;" />
  <path
     id="path9"
     d="  M 2001.6603,1908.6883   L 2001.1316,2039.4609  "
     style="fill:none;stroke:#000000;stroke-width:6.3819113px;stroke-linecap:butt;stroke-linejoin:miter;stroke-miterlimit:282;stroke-dasharray:none;stroke-opacity:1;" />
  <path
     id="path11"
     d="  M 1961.1786,2092.933   L 1961.1786,2047.1645   L 1981.4572,2047.1645   C 1985.5356,2047.1645 1988.6322,2047.5799 1990.7469,2048.3729   C 1992.8994,2049.2037 1994.5987,2050.6764 1995.8449,2052.7534   C 1997.1288,2054.8303 1997.7708,2057.1339 1997.7708,2059.664   C 1997.7708,2062.9116 1996.7134,2065.6305 1994.5987,2067.8585   C 1992.5217,2070.0865 1989.2741,2071.4837 1984.8559,2072.0879   C 1986.4797,2072.8809 1987.6881,2073.6362 1988.5189,2074.3915   C 1990.2937,2076.0153 1991.9553,2078.0544 1993.5413,2080.4713   L 2001.5093,2092.933   L 1993.8812,2092.933   L 1987.8391,2083.4168   C 1986.0643,2080.6601 1984.5915,2078.5454 1983.4587,2077.1104   C 1982.3258,2075.6376 1981.3062,2074.618 1980.3999,2074.0516   C 1979.4936,2073.4474 1978.5495,2073.0698 1977.6054,2072.8054   C 1976.9257,2072.6921 1975.7928,2072.6166 1974.2445,2072.6166   L 1967.2207,2072.6166   L 1967.2207,2092.933   z  M 1967.2207,2067.3676   L 1980.2488,2067.3676   C 1983.0055,2067.3676 1985.158,2067.0655 1986.744,2066.499   C 1988.2923,2065.9326 1989.5007,2065.0263 1990.2937,2063.7423   C 1991.1245,2062.4962 1991.5021,2061.1367 1991.5021,2059.664   C 1991.5021,2057.4737 1990.7469,2055.6989 1989.1608,2054.3016   C 1987.5748,2052.9044 1985.1202,2052.2247 1981.7216,2052.2247   L 1967.2207,2052.2247   z "
     style="fill:#000000;fill-rule:nonzero;fill-opacity:1;stroke:none;" />
  <path
     id="path13"
     d="  M 2005.21,2078.2433   L 2010.95,2077.7146   C 2011.2143,2080.0181 2011.8185,2081.9062 2012.8381,2083.379   C 2013.8199,2084.814 2015.3305,2086.0224 2017.4452,2086.9287   C 2019.5221,2087.835 2021.8634,2088.2882 2024.469,2088.2882   C 2026.7726,2088.2882 2028.8118,2087.9483 2030.5866,2087.2308   C 2032.3615,2086.5511 2033.6454,2085.607 2034.5139,2084.4364   C 2035.3825,2083.2279 2035.8356,2081.9062 2035.8356,2080.509   C 2035.8356,2079.074 2035.4203,2077.8279 2034.5895,2076.7327   C 2033.7209,2075.6754 2032.3615,2074.7691 2030.4356,2074.0516   C 2029.2272,2073.5607 2026.5082,2072.8054 2022.3166,2071.8236   C 2018.0871,2070.804 2015.1416,2069.8599 2013.4801,2068.9536   C 2011.2898,2067.8207 2009.666,2066.3857 2008.5709,2064.6864   C 2007.5136,2062.9871 2006.9849,2061.099 2006.9849,2058.9842   C 2006.9849,2056.6807 2007.6268,2054.5282 2008.9485,2052.5268   C 2010.2325,2050.4876 2012.1584,2048.9771 2014.6885,2047.9197   C 2017.2186,2046.9001 2020.013,2046.3715 2023.0718,2046.3715   C 2026.4705,2046.3715 2029.4537,2046.9379 2032.0594,2048.033   C 2034.665,2049.1281 2036.6287,2050.7142 2038.0259,2052.8289   C 2039.4231,2054.9814 2040.1784,2057.3604 2040.2917,2060.0416   L 2034.4762,2060.4947   C 2034.1741,2057.587 2033.1167,2055.3968 2031.3041,2053.924   C 2029.4915,2052.4513 2026.8481,2051.7338 2023.3362,2051.7338   C 2019.6732,2051.7338 2016.992,2052.3757 2015.3305,2053.7352   C 2013.6311,2055.0569 2012.8003,2056.6807 2012.8003,2058.5688   C 2012.8003,2060.2304 2013.4045,2061.5899 2014.5752,2062.6472   C 2015.7458,2063.7046 2018.8046,2064.7997 2023.7138,2065.8948   C 2028.6607,2067.0277 2032.0216,2068.0095 2033.872,2068.8403   C 2036.5154,2070.0487 2038.479,2071.597 2039.763,2073.4851   C 2041.0091,2075.3733 2041.6511,2077.5635 2041.6511,2080.0181   C 2041.6511,2082.4349 2040.9714,2084.7385 2039.5742,2086.8909   C 2038.1769,2089.0434 2036.1755,2090.705 2033.5699,2091.9134   C 2030.9265,2093.1218 2028.0187,2093.726 2024.7334,2093.726   C 2020.5795,2093.726 2017.1053,2093.1218 2014.3109,2091.9134   C 2011.5164,2090.705 2009.3262,2088.8924 2007.7401,2086.4378   C 2006.1541,2084.021 2005.3233,2081.302 2005.21,2078.2433   z "
     style="fill:#000000;fill-rule:nonzero;fill-opacity:1;stroke:none;" />
</svg>
