<?xml version="1.0" encoding="UTF-8" standalone="no"?>
<svg
   xmlns:dc="http://purl.org/dc/elements/1.1/"
   xmlns:cc="http://creativecommons.org/ns#"
   xmlns:rdf="http://www.w3.org/1999/02/22-rdf-syntax-ns#"
   xmlns:svg="http://www.w3.org/2000/svg"
   xmlns="http://www.w3.org/2000/svg"
   id="svg15"
   height="112.9mm"
   width="112.9mm"
   version="1.0">
  <metadata
     id="metadata19">
    <rdf:RDF>
      <cc:Work
         rdf:about="">
        <dc:format>image/svg+xml</dc:format>
        <dc:type
           rdf:resource="http://purl.org/dc/dcmitype/StillImage" />
      </cc:Work>
    </rdf:RDF>
  </metadata>
  <defs
     id="defs3">
    <pattern
       y="0"
       x="0"
       height="6"
       width="6"
       patternUnits="userSpaceOnUse"
       id="EMFhbasepattern" />
  </defs>
  <ellipse
     id="ellipse5"
     ry="152.90154"
     rx="152.90154"
     cy="1969.9011"
     cx="1969.8256"
     style="fill:#80e0ff;fill-rule:nonzero;fill-opacity:1;stroke:#000000;stroke-width:10.649107px;stroke-linecap:butt;stroke-linejoin:miter;stroke-miterlimit:282;stroke-dasharray:none;stroke-opacity:1;" />
  <path
     id="path7"
     d="  M 1898.4917,1896.4147   L 2041.1973,1896.4147   L 2041.1973,1992.2189   L 1898.4917,1992.2189   z "
     style="fill:none;stroke:#000000;stroke-width:6.3819113px;stroke-linecap:round;stroke-linejoin:miter;stroke-miterlimit:282;stroke-dasharray:none;stroke-opacity:1;" />
  <path
     id="path9"
     d="  M 1970.6564,1879.497   L 1970.1277,2010.2695  "
     style="fill:none;stroke:#000000;stroke-width:6.3819113px;stroke-linecap:butt;stroke-linejoin:miter;stroke-miterlimit:282;stroke-dasharray:none;stroke-opacity:1;" />
  <path
     id="path11"
     d="  M 1929.3439,2063.7417   L 1946.9414,2017.9732   L 1953.4366,2017.9732   L 1972.2047,2063.7417   L 1965.2941,2063.7417   L 1959.9318,2049.8827   L 1940.8238,2049.8827   L 1935.7636,2063.7417   z  M 1942.5609,2044.9358   L 1958.0814,2044.9358   L 1953.2855,2032.2475   C 1951.8505,2028.3957 1950.7554,2025.2614 1950.0379,2022.769   C 1949.4715,2025.7145 1948.6407,2028.6223 1947.5833,2031.53   z "
     style="fill:#000000;fill-rule:nonzero;fill-opacity:1;stroke:none;" />
  <path
     id="path13"
     d="  M 1975.0369,2049.0142   L 1980.739,2048.5233   C 1981.0034,2050.8268 1981.6454,2052.7149 1982.6272,2054.1499   C 1983.609,2055.6227 1985.1573,2056.8311 1987.2342,2057.7374   C 1989.3112,2058.6437 1991.6525,2059.0968 1994.2581,2059.0968   C 1996.5617,2059.0968 1998.6008,2058.7192 2000.3757,2058.0395   C 2002.1506,2057.3597 2003.4722,2056.4157 2004.3408,2055.2073   C 2005.2093,2054.0366 2005.6247,2052.7149 2005.6247,2051.3177   C 2005.6247,2049.8827 2005.2093,2048.5988 2004.3786,2047.5414   C 2003.5478,2046.4841 2002.1883,2045.5778 2000.2624,2044.8603   C 1999.0162,2044.3693 1996.2973,2043.6141 1992.1056,2042.5945   C 1987.914,2041.6127 1984.9685,2040.6308 1983.2692,2039.7623   C 1981.0789,2038.5916 1979.4551,2037.1944 1978.3978,2035.4951   C 1977.3026,2033.7958 1976.774,2031.9076 1976.774,2029.7929   C 1976.774,2027.4894 1977.4159,2025.3369 1978.7376,2023.2977   C 1980.0593,2021.2963 1981.9852,2019.7858 1984.4776,2018.7284   C 1987.0077,2017.7088 1989.8021,2017.1801 1992.8987,2017.1801   C 1996.2973,2017.1801 1999.2806,2017.7088 2001.8484,2018.8039   C 2004.4541,2019.8991 2006.4555,2021.5229 2007.8527,2023.6376   C 2009.25,2025.7523 2010.0052,2028.1691 2010.0807,2030.8503   L 2004.303,2031.3034   C 2003.9632,2028.3957 2002.9058,2026.2054 2001.131,2024.7327   C 1999.3183,2023.2599 1996.6749,2022.5047 1993.1252,2022.5047   C 1989.4623,2022.5047 1986.8189,2023.1844 1985.1195,2024.5439   C 1983.458,2025.8656 1982.6272,2027.4894 1982.6272,2029.3775   C 1982.6272,2031.0391 1983.1936,2032.3985 1984.402,2033.4559   C 1985.5727,2034.5133 1988.5937,2035.6084 1993.5406,2036.7035   C 1998.4498,2037.8364 2001.8484,2038.7805 2003.6611,2039.6112   C 2006.3422,2040.8574 2008.3059,2042.4057 2009.5521,2044.2938   C 2010.836,2046.182 2011.478,2048.3344 2011.478,2050.789   C 2011.478,2053.2436 2010.7605,2055.5471 2009.3632,2057.6996   C 2007.966,2059.8521 2005.9646,2061.5137 2003.359,2062.7221   C 2000.7533,2063.9305 1997.8078,2064.4969 1994.5602,2064.4969   C 1990.4063,2064.4969 1986.9321,2063.8927 1984.1377,2062.6843   C 1981.3433,2061.5137 1979.153,2059.6633 1977.5292,2057.2465   C 1975.9432,2054.8296 1975.1124,2052.073 1975.0369,2049.0142   z "
     style="fill:#000000;fill-rule:nonzero;fill-opacity:1;stroke:none;" />
</svg>
