<?xml version="1.0" encoding="UTF-8" standalone="no"?>
<svg
   xmlns:dc="http://purl.org/dc/elements/1.1/"
   xmlns:cc="http://creativecommons.org/ns#"
   xmlns:rdf="http://www.w3.org/1999/02/22-rdf-syntax-ns#"
   xmlns:svg="http://www.w3.org/2000/svg"
   xmlns="http://www.w3.org/2000/svg"
   id="svg15"
   height="112.9mm"
   width="112.9mm"
   version="1.0">
  <metadata
     id="metadata19">
    <rdf:RDF>
      <cc:Work
         rdf:about="">
        <dc:format>image/svg+xml</dc:format>
        <dc:type
           rdf:resource="http://purl.org/dc/dcmitype/StillImage" />
      </cc:Work>
    </rdf:RDF>
  </metadata>
  <defs
     id="defs3">
    <pattern
       y="0"
       x="0"
       height="6"
       width="6"
       patternUnits="userSpaceOnUse"
       id="EMFhbasepattern" />
  </defs>
  <path
     id="path5"
     d="  M 2001.396,2185.7917   L 2185.7917,2001.4337   L 2001.396,1817.038   L 1817.038,2001.4337   z "
     style="fill:#ff8080;fill-rule:nonzero;fill-opacity:1;stroke:#000000;stroke-width:10.649107px;stroke-linecap:butt;stroke-linejoin:miter;stroke-miterlimit:282;stroke-dasharray:none;stroke-opacity:1;" />
  <path
     id="path7"
     d="  M 1929.4956,1925.6438   L 2072.2012,1925.6438   L 2072.2012,2021.4103   L 1929.4956,2021.4103   z "
     style="fill:none;stroke:#000000;stroke-width:6.3819113px;stroke-linecap:round;stroke-linejoin:miter;stroke-miterlimit:282;stroke-dasharray:none;stroke-opacity:1;" />
  <path
     id="path9"
     d="  M 2001.6603,1908.6883   L 2001.1316,2039.4609  "
     style="fill:none;stroke:#000000;stroke-width:6.3819113px;stroke-linecap:butt;stroke-linejoin:miter;stroke-miterlimit:282;stroke-dasharray:none;stroke-opacity:1;" />
  <path
     id="path11"
     d="  M 1960.3478,2092.933   L 1977.9453,2047.1645   L 1984.4405,2047.1645   L 2003.2086,2092.933   L 1996.298,2092.933   L 1990.9357,2079.074   L 1971.8277,2079.074   L 1966.7675,2092.933   z  M 1973.5648,2074.1271   L 1989.0853,2074.1271   L 1984.2894,2061.4766   C 1982.8545,2057.6248 1981.7593,2054.4527 1981.0418,2051.9604   C 1980.4754,2054.9059 1979.6446,2057.8136 1978.5873,2060.7213   z "
     style="fill:#000000;fill-rule:nonzero;fill-opacity:1;stroke:none;" />
  <path
     id="path13"
     d="  M 2006.0408,2078.2433   L 2011.743,2077.7146   C 2012.0073,2080.0181 2012.6493,2081.9062 2013.6311,2083.379   C 2014.613,2084.814 2016.1612,2086.0224 2018.2382,2086.9287   C 2020.3151,2087.835 2022.6564,2088.2882 2025.2621,2088.2882   C 2027.5656,2088.2882 2029.6048,2087.9483 2031.3796,2087.2308   C 2033.1545,2086.5511 2034.4762,2085.607 2035.3447,2084.4364   C 2036.2133,2083.2279 2036.6287,2081.9062 2036.6287,2080.509   C 2036.6287,2079.074 2036.2133,2077.8279 2035.3825,2076.7327   C 2034.5517,2075.6754 2033.1922,2074.7691 2031.2663,2074.0516   C 2030.0202,2073.5607 2027.3013,2072.8054 2023.1096,2071.8236   C 2018.9179,2070.804 2015.9724,2069.8599 2014.2731,2068.9536   C 2012.0829,2067.8207 2010.4591,2066.3857 2009.4017,2064.6864   C 2008.3066,2062.9871 2007.7779,2061.099 2007.7779,2058.9842   C 2007.7779,2056.6807 2008.4199,2054.5282 2009.7416,2052.5268   C 2011.0633,2050.4876 2012.9892,2048.9771 2015.4815,2047.9197   C 2018.0116,2046.9001 2020.8061,2046.3715 2023.9026,2046.3715   C 2027.3013,2046.3715 2030.2845,2046.9379 2032.8524,2048.033   C 2035.458,2049.1281 2037.4594,2050.7142 2038.8567,2052.8289   C 2040.2539,2054.9814 2041.0091,2057.3604 2041.0847,2060.0416   L 2035.307,2060.4947   C 2034.9671,2057.587 2033.9097,2055.3968 2032.1349,2053.924   C 2030.3223,2052.4513 2027.6789,2051.7338 2024.1292,2051.7338   C 2020.4662,2051.7338 2017.8228,2052.3757 2016.1235,2053.7352   C 2014.4619,2055.0569 2013.6311,2056.6807 2013.6311,2058.5688   C 2013.6311,2060.2304 2014.1976,2061.5899 2015.406,2062.6472   C 2016.5766,2063.7046 2019.5976,2064.7997 2024.5446,2065.8948   C 2029.4537,2067.0277 2032.8524,2068.0095 2034.665,2068.8403   C 2037.3462,2070.0487 2039.3098,2071.597 2040.556,2073.4851   C 2041.8399,2075.3733 2042.4819,2077.5635 2042.4819,2080.0181   C 2042.4819,2082.4349 2041.7644,2084.7385 2040.3672,2086.8909   C 2038.97,2089.0434 2036.9685,2090.705 2034.3629,2091.9134   C 2031.7573,2093.1218 2028.8118,2093.726 2025.5642,2093.726   C 2021.4103,2093.726 2017.9361,2093.1218 2015.1416,2091.9134   C 2012.3472,2090.705 2010.1569,2088.8924 2008.5331,2086.4378   C 2006.9471,2084.021 2006.1163,2081.302 2006.0408,2078.2433   z "
     style="fill:#000000;fill-rule:nonzero;fill-opacity:1;stroke:none;" />
</svg>
