<?xml version="1.0" encoding="UTF-8" standalone="no"?>
<svg
   xmlns:dc="http://purl.org/dc/elements/1.1/"
   xmlns:cc="http://creativecommons.org/ns#"
   xmlns:rdf="http://www.w3.org/1999/02/22-rdf-syntax-ns#"
   xmlns:svg="http://www.w3.org/2000/svg"
   xmlns="http://www.w3.org/2000/svg"
   id="svg15"
   height="112.9mm"
   width="112.9mm"
   version="1.0">
  <metadata
     id="metadata19">
    <rdf:RDF>
      <cc:Work
         rdf:about="">
        <dc:format>image/svg+xml</dc:format>
        <dc:type
           rdf:resource="http://purl.org/dc/dcmitype/StillImage" />
      </cc:Work>
    </rdf:RDF>
  </metadata>
  <defs
     id="defs3">
    <pattern
       y="0"
       x="0"
       height="6"
       width="6"
       patternUnits="userSpaceOnUse"
       id="EMFhbasepattern" />
  </defs>
  <ellipse
     id="ellipse5"
     ry="152.90154"
     rx="152.90154"
     cy="1969.9011"
     cx="1969.8256"
     style="fill:#80e0ff;fill-rule:nonzero;fill-opacity:1;stroke:#000000;stroke-width:10.649107px;stroke-linecap:butt;stroke-linejoin:miter;stroke-miterlimit:282;stroke-dasharray:none;stroke-opacity:1;" />
  <path
     id="path7"
     d="  M 1898.4917,1896.4147   L 2041.1973,1896.4147   L 2041.1973,1992.2189   L 1898.4917,1992.2189   z "
     style="fill:none;stroke:#000000;stroke-width:6.3819113px;stroke-linecap:round;stroke-linejoin:miter;stroke-miterlimit:282;stroke-dasharray:none;stroke-opacity:1;" />
  <path
     id="path9"
     d="  M 1970.6564,1879.497   L 1970.1277,2010.2695  "
     style="fill:none;stroke:#000000;stroke-width:6.3819113px;stroke-linecap:butt;stroke-linejoin:miter;stroke-miterlimit:282;stroke-dasharray:none;stroke-opacity:1;" />
  <path
     id="path11"
     d="  M 1934.3663,2063.7417   L 1934.3663,2017.9732   L 1951.6617,2017.9732   C 1954.6827,2017.9732 1956.9863,2018.1242 1958.6101,2018.3885   C 1960.8381,2018.7662 1962.7262,2019.4837 1964.2745,2020.541   C 1965.785,2021.5984 1966.9934,2023.0711 1967.9375,2024.9593   C 1968.8438,2026.8474 1969.3347,2028.9244 1969.3347,2031.1901   C 1969.3347,2035.0797 1968.0885,2038.4028 1965.5962,2041.084   C 1963.1416,2043.7651 1958.6478,2045.1246 1952.1904,2045.1246   L 1940.4462,2045.1246   L 1940.4462,2063.7417   z  M 1940.4462,2039.7245   L 1952.2659,2039.7245   C 1956.1932,2039.7245 1958.9499,2039.007 1960.6115,2037.5343   C 1962.2353,2036.0615 1963.0661,2034.0223 1963.0661,2031.3789   C 1963.0661,2029.453 1962.5751,2027.8292 1961.6311,2026.4698   C 1960.6492,2025.1103 1959.3653,2024.204 1957.7793,2023.7509   C 1956.7597,2023.4865 1954.9093,2023.3732 1952.1526,2023.3732   L 1940.4462,2023.3732   z "
     style="fill:#000000;fill-rule:nonzero;fill-opacity:1;stroke:none;" />
  <path
     id="path13"
     d="  M 1976.8495,2063.7417   L 1976.8495,2017.9732   L 1982.8915,2017.9732   L 1982.8915,2040.6686   L 2005.6247,2017.9732   L 2013.857,2017.9732   L 1994.6358,2036.5147   L 2014.6878,2063.7417   L 2006.6821,2063.7417   L 1990.4063,2040.5553   L 1982.8915,2047.8813   L 1982.8915,2063.7417   z "
     style="fill:#000000;fill-rule:nonzero;fill-opacity:1;stroke:none;" />
</svg>
