<?xml version="1.0" encoding="UTF-8" standalone="no"?>
<svg
   xmlns:dc="http://purl.org/dc/elements/1.1/"
   xmlns:cc="http://creativecommons.org/ns#"
   xmlns:rdf="http://www.w3.org/1999/02/22-rdf-syntax-ns#"
   xmlns:svg="http://www.w3.org/2000/svg"
   xmlns="http://www.w3.org/2000/svg"
   id="svg15"
   height="112.9mm"
   width="112.9mm"
   version="1.0">
  <metadata
     id="metadata19">
    <rdf:RDF>
      <cc:Work
         rdf:about="">
        <dc:format>image/svg+xml</dc:format>
        <dc:type
           rdf:resource="http://purl.org/dc/dcmitype/StillImage" />
      </cc:Work>
    </rdf:RDF>
  </metadata>
  <defs
     id="defs3">
    <pattern
       y="0"
       x="0"
       height="6"
       width="6"
       patternUnits="userSpaceOnUse"
       id="EMFhbasepattern" />
  </defs>
  <path
     id="path5"
     d="  M 1817.5455,1817.5455   L 2097.821,1817.5455   L 2097.821,2097.821   L 1817.5455,2097.821   z "
     style="fill:#aaffaa;fill-rule:nonzero;fill-opacity:1;stroke:#000000;stroke-width:10.649107px;stroke-linecap:butt;stroke-linejoin:miter;stroke-miterlimit:282;stroke-dasharray:none;stroke-opacity:1;" />
  <path
     id="path7"
     d="  M 1886.3116,1884.2346   L 2029.0172,1884.2346   L 2029.0172,1980.0388   L 1886.3116,1980.0388   z "
     style="fill:none;stroke:#000000;stroke-width:6.3819113px;stroke-linecap:round;stroke-linejoin:miter;stroke-miterlimit:282;stroke-dasharray:none;stroke-opacity:1;" />
  <path
     id="path9"
     d="  M 1958.4763,1867.3169   L 1957.9476,1998.0894  "
     style="fill:none;stroke:#000000;stroke-width:6.3819113px;stroke-linecap:butt;stroke-linejoin:miter;stroke-miterlimit:282;stroke-dasharray:none;stroke-opacity:1;" />
  <path
     id="path11"
     d="  M 1917.9946,2051.5615   L 1917.9946,2005.793   L 1938.2732,2005.793   C 1942.3516,2005.793 1945.4481,2006.2084 1947.5628,2007.0015   C 1949.7153,2007.8322 1951.4146,2009.305 1952.6608,2011.3819   C 1953.9447,2013.4589 1954.5867,2015.7624 1954.5867,2018.2548   C 1954.5867,2021.5024 1953.5293,2024.259 1951.4146,2026.487   C 1949.3377,2028.7151 1946.0901,2030.1123 1941.6718,2030.7165   C 1943.2956,2031.5095 1944.504,2032.2648 1945.3348,2033.02   C 1947.1097,2034.6438 1948.7712,2036.6452 1950.3573,2039.0998   L 1958.3252,2051.5615   L 1950.6971,2051.5615   L 1944.6551,2042.0453   C 1942.8802,2039.2886 1941.4075,2037.1739 1940.2746,2035.7389   C 1939.1417,2034.2662 1938.1221,2033.2466 1937.2158,2032.6801   C 1936.3095,2032.0759 1935.3654,2031.6606 1934.4214,2031.434   C 1933.7416,2031.2829 1932.6088,2031.2452 1931.0605,2031.2452   L 1924.0366,2031.2452   L 1924.0366,2051.5615   z  M 1924.0366,2025.9961   L 1937.0648,2025.9961   C 1939.8214,2025.9961 1941.9739,2025.694 1943.56,2025.1276   C 1945.1082,2024.5611 1946.3166,2023.6171 1947.1097,2022.3709   C 1947.9404,2021.1247 1948.3181,2019.7653 1948.3181,2018.2548   C 1948.3181,2016.1023 1947.5628,2014.3274 1945.9768,2012.9302   C 1944.3907,2011.533 1941.9362,2010.8533 1938.5375,2010.8533   L 1924.0366,2010.8533   z "
     style="fill:#000000;fill-rule:nonzero;fill-opacity:1;stroke:none;" />
  <path
     id="path13"
     d="  M 1962.026,2036.8341   L 1967.7659,2036.3431   C 1968.0303,2038.6467 1968.6345,2040.5348 1969.6541,2041.9698   C 1970.6359,2043.4425 1972.1464,2044.651 1974.2611,2045.5573   C 1976.3381,2046.4636 1978.6794,2046.9167 1981.285,2046.9167   C 1983.5885,2046.9167 1985.6277,2046.5391 1987.4026,2045.8594   C 1989.1774,2045.1796 1990.4613,2044.2356 1991.3299,2043.0272   C 1992.1984,2041.8565 1992.6516,2040.5348 1992.6516,2039.1376   C 1992.6516,2037.7026 1992.2362,2036.4187 1991.4054,2035.3613   C 1990.5369,2034.3039 1989.1774,2033.3976 1987.2515,2032.6801   C 1986.0431,2032.1892 1983.3242,2031.434 1979.1325,2030.4144   C 1974.9031,2029.4325 1971.9576,2028.4507 1970.296,2027.5822   C 1968.1058,2026.4115 1966.482,2025.0143 1965.3869,2023.315   C 1964.3295,2021.6156 1963.8008,2019.7275 1963.8008,2017.6128   C 1963.8008,2015.3093 1964.4428,2013.1568 1965.7645,2011.1176   C 1967.0484,2009.1162 1968.9743,2007.6057 1971.5044,2006.5483   C 1974.0345,2005.5287 1976.829,2005 1979.8878,2005   C 1983.2864,2005 1986.2697,2005.5287 1988.8753,2006.6238   C 1991.4809,2007.7189 1993.4446,2009.3427 1994.8418,2011.4575   C 1996.2391,2013.5722 1996.9943,2015.989 1997.1076,2018.6702   L 1991.2921,2019.1233   C 1990.99,2016.2156 1989.9327,2014.0253 1988.1201,2012.5526   C 1986.3074,2011.0798 1983.664,2010.3246 1980.1521,2010.3246   C 1976.4891,2010.3246 1973.808,2011.0043 1972.1464,2012.3638   C 1970.4471,2013.6855 1969.6163,2015.3093 1969.6163,2017.1974   C 1969.6163,2018.859 1970.2205,2020.2184 1971.3911,2021.2758   C 1972.5618,2022.3331 1975.6206,2023.4283 1980.5297,2024.5234   C 1985.4767,2025.6563 1988.8375,2026.6003 1990.6879,2027.4311   C 1993.3313,2028.6773 1995.295,2030.2256 1996.5789,2032.1137   C 1997.8251,2034.0018 1998.4671,2036.1543 1998.4671,2038.6089   C 1998.4671,2041.0635 1997.7873,2043.367 1996.3901,2045.5195   C 1994.9929,2047.672 1992.9915,2049.3335 1990.3858,2050.5419   C 1987.7424,2051.7504 1984.8347,2052.3168 1981.5493,2052.3168   C 1977.3954,2052.3168 1973.9212,2051.7126 1971.1268,2050.5042   C 1968.3324,2049.3335 1966.1421,2047.4832 1964.5561,2045.0663   C 1962.97,2042.6495 1962.1393,2039.8928 1962.026,2036.8341   z "
     style="fill:#000000;fill-rule:nonzero;fill-opacity:1;stroke:none;" />
</svg>
