<?xml version="1.0" encoding="UTF-8" standalone="no"?>
<svg
   xmlns:dc="http://purl.org/dc/elements/1.1/"
   xmlns:cc="http://creativecommons.org/ns#"
   xmlns:rdf="http://www.w3.org/1999/02/22-rdf-syntax-ns#"
   xmlns:svg="http://www.w3.org/2000/svg"
   xmlns="http://www.w3.org/2000/svg"
   id="svg15"
   height="112.9mm"
   width="112.9mm"
   version="1.0">
  <metadata
     id="metadata19">
    <rdf:RDF>
      <cc:Work
         rdf:about="">
        <dc:format>image/svg+xml</dc:format>
        <dc:type
           rdf:resource="http://purl.org/dc/dcmitype/StillImage" />
      </cc:Work>
    </rdf:RDF>
  </metadata>
  <defs
     id="defs3">
    <pattern
       y="0"
       x="0"
       height="6"
       width="6"
       patternUnits="userSpaceOnUse"
       id="EMFhbasepattern" />
  </defs>
  <path
     id="path5"
     d="  M 1817.5455,1817.5455   L 2097.821,1817.5455   L 2097.821,2097.821   L 1817.5455,2097.821   z "
     style="fill:#aaffaa;fill-rule:nonzero;fill-opacity:1;stroke:#000000;stroke-width:10.649107px;stroke-linecap:butt;stroke-linejoin:miter;stroke-miterlimit:282;stroke-dasharray:none;stroke-opacity:1;" />
  <path
     id="path7"
     d="  M 1886.3116,1884.2346   L 2029.0172,1884.2346   L 2029.0172,1980.0388   L 1886.3116,1980.0388   z "
     style="fill:none;stroke:#000000;stroke-width:6.3819113px;stroke-linecap:round;stroke-linejoin:miter;stroke-miterlimit:282;stroke-dasharray:none;stroke-opacity:1;" />
  <path
     id="path9"
     d="  M 1958.4763,1867.3169   L 1957.9476,1998.0894  "
     style="fill:none;stroke:#000000;stroke-width:6.3819113px;stroke-linecap:butt;stroke-linejoin:miter;stroke-miterlimit:282;stroke-dasharray:none;stroke-opacity:1;" />
  <path
     id="path11"
     d="  M 1922.1862,2051.5615   L 1922.1862,2005.793   L 1939.4816,2005.793   C 1942.5026,2005.793 1944.8061,2005.9441 1946.4299,2006.2084   C 1948.6579,2006.5861 1950.5461,2007.3036 1952.0944,2008.3609   C 1953.6049,2009.4183 1954.8133,2010.891 1955.7573,2012.7792   C 1956.6637,2014.6673 1957.1546,2016.7442 1957.1546,2019.01   C 1957.1546,2022.8996 1955.9084,2026.2227 1953.4161,2028.9039   C 1950.9615,2031.585 1946.4677,2032.9445 1940.0103,2032.9445   L 1928.266,2032.9445   L 1928.266,2051.5615   z  M 1928.266,2027.5444   L 1940.0858,2027.5444   C 1944.0131,2027.5444 1946.7698,2026.8269 1948.4314,2025.3542   C 1950.0552,2023.8814 1950.8859,2021.8422 1950.8859,2019.1988   C 1950.8859,2017.2729 1950.395,2015.6491 1949.451,2014.2897   C 1948.4691,2012.9302 1947.1852,2012.0239 1945.5992,2011.5707   C 1944.5796,2011.3064 1942.7292,2011.1931 1939.9725,2011.1931   L 1928.266,2011.1931   z "
     style="fill:#000000;fill-rule:nonzero;fill-opacity:1;stroke:none;" />
  <path
     id="path13"
     d="  M 1964.6694,2051.5615   L 1964.6694,2005.793   L 1970.7114,2005.793   L 1970.7114,2028.4885   L 1993.4446,2005.793   L 2001.6769,2005.793   L 1982.4556,2024.3346   L 2002.5077,2051.5615   L 1994.502,2051.5615   L 1978.2262,2028.3752   L 1970.7114,2035.7012   L 1970.7114,2051.5615   z "
     style="fill:#000000;fill-rule:nonzero;fill-opacity:1;stroke:none;" />
</svg>
