<?xml version="1.0" encoding="UTF-8" standalone="no"?>
<svg
   xmlns:dc="http://purl.org/dc/elements/1.1/"
   xmlns:cc="http://creativecommons.org/ns#"
   xmlns:rdf="http://www.w3.org/1999/02/22-rdf-syntax-ns#"
   xmlns:svg="http://www.w3.org/2000/svg"
   xmlns="http://www.w3.org/2000/svg"
   id="svg19"
   height="116.73mm"
   width="116.73mm"
   version="1.0">
  <metadata
     id="metadata23">
    <rdf:RDF>
      <cc:Work
         rdf:about="">
        <dc:format>image/svg+xml</dc:format>
        <dc:type
           rdf:resource="http://purl.org/dc/dcmitype/StillImage" />
      </cc:Work>
    </rdf:RDF>
  </metadata>
  <defs
     id="defs3">
    <pattern
       y="0"
       x="0"
       height="6"
       width="6"
       patternUnits="userSpaceOnUse"
       id="EMFhbasepattern" />
  </defs>
  <path
     id="path5"
     d="  M 220.57831,386.49156   L 220.57831,386.49156   L 386.49156,220.57831   L 220.57831,54.665059   L 54.665059,220.57831   L 220.57831,386.49156   z "
     style="fill:#ff8080;fill-rule:evenodd;fill-opacity:1;stroke:none;" />
  <path
     id="path7"
     d="  M 220.57831,386.49156   L 220.57831,386.49156   L 386.49156,220.57831   L 220.57831,54.665059   L 54.665059,220.57831   L 220.57831,386.49156  "
     style="fill:none;stroke:#000000;stroke-width:9.5903616px;stroke-linecap:butt;stroke-linejoin:miter;stroke-miterlimit:10;stroke-dasharray:none;stroke-opacity:1;" />
  <path
     id="path9"
     d="  M 191.80723,278.12048   L 191.80723,151.52771   C 191.80723,127.55181 249.34939,127.55181 249.34939,151.52771   L 249.34939,278.12048  "
     style="fill:none;stroke:#000000;stroke-width:9.5903616px;stroke-linecap:butt;stroke-linejoin:miter;stroke-miterlimit:10;stroke-dasharray:none;stroke-opacity:1;" />
  <path
     id="path11"
     d="  M 268.53012,133.30602   C 302.09638,133.30602 302.09638,196.60241 268.53012,196.60241   L 172.6265,196.60241   C 139.06024,196.60241 139.06024,133.30602 172.6265,133.30602   z "
     style="fill:none;stroke:#000000;stroke-width:9.5903616px;stroke-linecap:butt;stroke-linejoin:miter;stroke-miterlimit:10;stroke-dasharray:none;stroke-opacity:1;" />
  <path
     id="path13"
     d="  M 206.87209,168.3508   L 212.0269,167.91124   C 212.26666,169.94919 212.8261,171.66747 213.70522,172.98614   C 214.62429,174.30482 215.98293,175.34377 217.86104,176.18293   C 219.73915,176.98213 221.85702,177.38172 224.1747,177.38172   C 226.25261,177.38172 228.09076,177.10201 229.68915,176.46265   C 231.28755,175.86325 232.48634,174.98413 233.24558,173.94518   C 234.04478,172.86626 234.40441,171.66747 234.40441,170.38875   C 234.40441,169.11004 234.04478,167.99116 233.28554,167.03213   C 232.5263,166.03313 231.28755,165.23393 229.56927,164.59458   C 228.49036,164.15502 226.01285,163.4757 222.25662,162.55662   C 218.46044,161.67751 215.82309,160.79839 214.30462,159.99919   C 212.34658,158.96024 210.86807,157.68152 209.90903,156.16305   C 208.95,154.64458 208.47048,152.9263 208.47048,151.04819   C 208.47048,148.97028 209.02992,147.01225 210.22871,145.21405   C 211.38755,143.41586 213.14578,142.01727 215.38353,141.09819   C 217.66124,140.13915 220.17871,139.6996 222.93594,139.6996   C 226.01285,139.6996 228.69016,140.17911 231.00783,141.17811   C 233.36546,142.13715 235.16365,143.5757 236.40241,145.49377   C 237.68112,147.41185 238.32048,149.56968 238.44036,152.00723   L 233.20562,152.40683   C 232.9259,149.76948 231.96686,147.81144 230.36847,146.49277   C 228.73012,145.17409 226.33253,144.49478 223.1757,144.49478   C 219.85903,144.49478 217.46144,145.09417 215.98293,146.29297   C 214.46445,147.53172 213.70522,148.97028 213.70522,150.68855   C 213.70522,152.16707 214.2247,153.36586 215.30361,154.3249   C 216.34257,155.28393 219.0998,156.28293 223.53534,157.28193   C 227.97088,158.28092 231.00783,159.16004 232.64618,159.87931   C 235.04377,160.99819 236.802,162.39678 237.96084,164.0751   C 239.07972,165.79337 239.67911,167.7514 239.67911,169.94919   C 239.67911,172.14699 239.03976,174.2249 237.801,176.14297   C 236.52229,178.101 234.72409,179.57952 232.36646,180.65843   C 230.00883,181.73735 227.37148,182.29678 224.45441,182.29678   C 220.69819,182.29678 217.58132,181.73735 215.06385,180.65843   C 212.54638,179.57952 210.58835,177.94116 209.1498,175.74337   C 207.71124,173.58554 206.95201,171.10803 206.87209,168.3508   z "
     style="fill:#000000;fill-rule:evenodd;fill-opacity:1;stroke:none;" />
  <path
     id="path15"
     d="  M 102.61687,268.53012   C 124.6747,201.39759 316.48192,201.39759 338.53975,268.53012   L 220.57831,386.49156   L 102.61687,268.53012   z "
     style="fill:#ff8080;fill-rule:evenodd;fill-opacity:1;stroke:none;" />
  <path
     id="path17"
     d="  M 102.61687,268.53012   C 124.6747,201.39759 316.48192,201.39759 338.53975,268.53012   L 220.57831,386.49156   L 102.61687,268.53012  "
     style="fill:none;stroke:#000000;stroke-width:9.5903616px;stroke-linecap:butt;stroke-linejoin:miter;stroke-miterlimit:10;stroke-dasharray:none;stroke-opacity:1;" />
</svg>
