<?xml version="1.0" encoding="UTF-8" standalone="no"?>
<svg
   xmlns:dc="http://purl.org/dc/elements/1.1/"
   xmlns:cc="http://creativecommons.org/ns#"
   xmlns:rdf="http://www.w3.org/1999/02/22-rdf-syntax-ns#"
   xmlns:svg="http://www.w3.org/2000/svg"
   xmlns="http://www.w3.org/2000/svg"
   id="svg17"
   height="89.669998mm"
   width="120.11mm"
   version="1.0">
  <metadata
     id="metadata21">
    <rdf:RDF>
      <cc:Work
         rdf:about="">
        <dc:format>image/svg+xml</dc:format>
        <dc:type
           rdf:resource="http://purl.org/dc/dcmitype/StillImage" />
      </cc:Work>
    </rdf:RDF>
  </metadata>
  <defs
     id="defs3">
    <pattern
       y="0"
       x="0"
       height="6"
       width="6"
       patternUnits="userSpaceOnUse"
       id="EMFhbasepattern" />
  </defs>
  <path
     id="path5"
     d="  M 179.02008,15.983936   L 179.02008,54.345381   L 274.92369,54.345381   L 274.92369,15.983936   L 179.02008,15.983936   z "
     style="fill:#000000;fill-rule:evenodd;fill-opacity:1;stroke:none;" />
  <path
     id="path7"
     d="  M 54.345381,54.345381   L 54.345381,284.51405   L 399.59839,284.51405   L 399.59839,54.345381   L 54.345381,54.345381   z "
     style="fill:#80e0ff;fill-rule:evenodd;fill-opacity:1;stroke:none;" />
  <path
     id="path9"
     d="  M 54.345381,54.345381   L 399.59839,54.345381   L 399.59839,284.51405   L 54.345381,284.51405   z "
     style="fill:none;stroke:#000000;stroke-width:9.5903616px;stroke-linecap:butt;stroke-linejoin:miter;stroke-miterlimit:10;stroke-dasharray:none;stroke-opacity:1;" />
  <path
     id="path11"
     d="  M 225.85301,124.51486   C 243.6751,124.51486 281.11747,113.88554 287.51104,104.33514   C 280.83775,100.77871 227.37148,66.053614 226.93192,66.053614   C 225.93293,66.053614 167.19197,102.93654 165.79337,104.85462   C 171.94719,113.24618 205.55341,124.51486 221.61727,124.51486   z "
     style="fill:#000000;fill-rule:evenodd;fill-opacity:1;stroke:none;" />
  <path
     id="path13"
     d="  M 270.52811,210.62831   L 271.56706,223.41546   L 273.20542,254.22449   L 280.07851,254.22449   C 280.07851,239.67911 277.36124,224.05482 277.44116,209.58935   C 277.44116,201.47751 276.48212,194.60441 276.36225,186.69237   C 276.20241,173.74538 276.96164,179.41968 282.75582,170.78835   L 282.0765,163.35582   L 282.19638,160.67851   L 272.1265,160.67851   L 272.1265,121.87751   C 266.17249,123.23614 259.45923,126.19317 252.2265,128.03132   C 246.11265,129.58976 236.72208,131.42791 229.56927,131.42791   L 223.73514,131.42791   C 205.63333,131.42791 194.5245,125.0743 180.65843,121.87751   L 180.65843,160.67851   L 170.58855,160.67851   L 170.58855,162.27691   L 169.94919,171.30783   L 177.62148,180.25883   L 172.78634,254.22449   L 180.13895,254.22449   L 180.13895,246.27249   L 183.49558,194.16486   C 184.77429,195.12389 188.57048,200.71827 190.64839,202.79618   C 192.80622,204.95401 196.48253,208.03092 199.07992,209.78915   C 204.35462,213.38554 212.34658,219.01988 220.01887,219.65923   L 220.01887,254.22449   L 233.28554,254.22449   L 233.28554,219.65923   C 242.19658,217.58132 248.11064,214.26466 254.42429,209.42952   C 257.74096,206.87209 259.73895,205.19377 262.65602,202.2767   C 264.29437,200.63835 268.57008,194.68433 269.96867,194.16486   L 269.96867,201.59739   z "
     style="fill:#000000;fill-rule:evenodd;fill-opacity:1;stroke:none;" />
  <path
     id="path15"
     d="  M 221.61727,124.51486   C 211.26767,124.51486 193.60542,119.83956 180.73835,114.24518   L 180.65843,121.87751   C 194.5245,125.0743 205.63333,131.42791 223.73514,131.42791   L 229.56927,131.42791   C 236.72208,131.42791 246.11265,129.58976 252.2265,128.03132   C 259.45923,126.19317 266.17249,123.23614 272.1265,121.87751   L 272.08654,114.04538   C 257.82088,119.91948 237.6012,124.51486 225.85301,124.51486   z "
     style="fill:#ffffff;fill-rule:evenodd;fill-opacity:1;stroke:none;" />
</svg>
