<?xml version="1.0" encoding="UTF-8" standalone="no"?>
<svg
   xmlns:dc="http://purl.org/dc/elements/1.1/"
   xmlns:cc="http://creativecommons.org/ns#"
   xmlns:rdf="http://www.w3.org/1999/02/22-rdf-syntax-ns#"
   xmlns:svg="http://www.w3.org/2000/svg"
   xmlns="http://www.w3.org/2000/svg"
   id="svg17"
   height="116.73mm"
   width="116.73mm"
   version="1.0">
  <metadata
     id="metadata21">
    <rdf:RDF>
      <cc:Work
         rdf:about="">
        <dc:format>image/svg+xml</dc:format>
        <dc:type
           rdf:resource="http://purl.org/dc/dcmitype/StillImage" />
      </cc:Work>
    </rdf:RDF>
  </metadata>
  <defs
     id="defs3">
    <pattern
       y="0"
       x="0"
       height="6"
       width="6"
       patternUnits="userSpaceOnUse"
       id="EMFhbasepattern" />
  </defs>
  <path
     id="path5"
     d="  M 172.6265,43.156626   L 172.6265,100.69879   L 268.53012,100.69879   L 268.53012,43.156626   L 172.6265,43.156626   z "
     style="fill:#000000;fill-rule:evenodd;fill-opacity:1;stroke:none;" />
  <path
     id="path7"
     d="  M 220.57831,386.49156   L 220.57831,386.49156   L 386.49156,220.57831   L 220.57831,54.665059   L 54.665059,220.57831   L 220.57831,386.49156   z "
     style="fill:#ff8080;fill-rule:evenodd;fill-opacity:1;stroke:none;" />
  <path
     id="path9"
     d="  M 220.57831,386.49156   L 220.57831,386.49156   L 386.49156,220.57831   L 220.57831,54.665059   L 54.665059,220.57831   L 220.57831,386.49156  "
     style="fill:none;stroke:#000000;stroke-width:9.5903616px;stroke-linecap:butt;stroke-linejoin:miter;stroke-miterlimit:10;stroke-dasharray:none;stroke-opacity:1;" />
  <path
     id="path11"
     d="  M 219.45943,175.66345   C 237.28152,175.66345 274.72389,165.03413 281.11747,155.48373   C 274.44417,151.92731 220.97791,117.20221 220.53835,117.20221   C 219.53935,117.20221 160.79839,154.08514 159.3998,156.00321   C 165.55361,164.39478 199.15984,175.66345 215.22369,175.66345   z "
     style="fill:#000000;fill-rule:evenodd;fill-opacity:1;stroke:none;" />
  <path
     id="path13"
     d="  M 264.13453,261.7769   L 265.17349,274.56405   L 266.81184,305.37309   L 273.68494,305.37309   C 273.68494,290.82771 270.96767,275.20341 271.04759,260.73795   C 271.04759,252.6261 270.08855,245.75301 269.96867,237.84096   C 269.80883,224.89397 270.56807,230.56827 276.36225,221.93694   L 275.68293,214.50441   L 275.80281,211.82711   L 265.73293,211.82711   L 265.73293,173.0261   C 259.77891,174.38474 253.06566,177.34176 245.83293,179.17992   C 239.71907,180.73835 230.32851,182.5765 223.1757,182.5765   L 217.34156,182.5765   C 199.23976,182.5765 188.13092,176.22289 174.26486,173.0261   L 174.26486,211.82711   L 164.19498,211.82711   L 164.19498,213.4255   L 163.55562,222.45642   L 171.22791,231.40743   L 166.39277,305.37309   L 173.74538,305.37309   L 173.74538,297.42108   L 177.10201,245.31345   C 178.38072,246.27249 182.1769,251.86686 184.25482,253.94478   C 186.41265,256.10261 190.08895,259.17951 192.68634,260.93775   C 197.96104,264.53413 205.95301,270.16847 213.6253,270.80783   L 213.6253,305.37309   L 226.89196,305.37309   L 226.89196,270.80783   C 235.80301,268.72992 241.71706,265.41325 248.03072,260.57811   C 251.34739,258.02068 253.34538,256.34237 256.26245,253.4253   C 257.9008,251.78694 262.1765,245.83293 263.5751,245.31345   L 263.5751,252.74598   z "
     style="fill:#000000;fill-rule:evenodd;fill-opacity:1;stroke:none;" />
  <path
     id="path15"
     d="  M 215.22369,175.66345   C 204.87409,175.66345 187.21184,170.98815 174.34478,165.39377   L 174.26486,173.0261   C 188.13092,176.22289 199.23976,182.5765 217.34156,182.5765   L 223.1757,182.5765   C 230.32851,182.5765 239.71907,180.73835 245.83293,179.17992   C 253.06566,177.34176 259.77891,174.38474 265.73293,173.0261   L 265.69297,165.19397   C 251.42731,171.06807 231.20763,175.66345 219.45943,175.66345   z "
     style="fill:#ffffff;fill-rule:evenodd;fill-opacity:1;stroke:none;" />
</svg>
