<?xml version="1.0" encoding="UTF-8" standalone="no"?>
<svg
   xmlns:dc="http://purl.org/dc/elements/1.1/"
   xmlns:cc="http://creativecommons.org/ns#"
   xmlns:rdf="http://www.w3.org/1999/02/22-rdf-syntax-ns#"
   xmlns:svg="http://www.w3.org/2000/svg"
   xmlns="http://www.w3.org/2000/svg"
   id="svg17"
   height="130.27mm"
   width="130.27mm"
   version="1.0">
  <metadata
     id="metadata21">
    <rdf:RDF>
      <cc:Work
         rdf:about="">
        <dc:format>image/svg+xml</dc:format>
        <dc:type
           rdf:resource="http://purl.org/dc/dcmitype/StillImage" />
      </cc:Work>
    </rdf:RDF>
  </metadata>
  <defs
     id="defs3">
    <pattern
       y="0"
       x="0"
       height="6"
       width="6"
       patternUnits="userSpaceOnUse"
       id="EMFhbasepattern" />
  </defs>
  <path
     id="path5"
     d="  M 198.2008,63.935742   L 198.2008,111.88755   L 294.10441,111.88755   L 294.10441,63.935742   L 198.2008,63.935742   z "
     style="fill:#000000;fill-rule:evenodd;fill-opacity:1;stroke:none;" />
  <path
     id="path7"
     d="  M 164.63454,327.67068   C 164.63454,437.95983 327.67068,437.95983 327.67068,327.67068   C 437.95983,327.67068 437.95983,164.63454 327.67068,164.63454   C 327.67068,54.345381 164.63454,54.345381 164.63454,164.63454   C 54.345381,164.63454 54.345381,327.67068 164.63454,327.67068   z "
     style="fill:#ffff80;fill-rule:evenodd;fill-opacity:1;stroke:none;" />
  <path
     id="path9"
     d="  M 164.63454,327.67068   C 164.63454,437.95983 327.67068,437.95983 327.67068,327.67068   C 437.95983,327.67068 437.95983,164.63454 327.67068,164.63454   C 327.67068,54.345381 164.63454,54.345381 164.63454,164.63454   C 54.345381,164.63454 54.345381,327.67068 164.63454,327.67068  "
     style="fill:none;stroke:#000000;stroke-width:9.5903616px;stroke-linecap:butt;stroke-linejoin:miter;stroke-miterlimit:10;stroke-dasharray:none;stroke-opacity:1;" />
  <path
     id="path11"
     d="  M 245.03373,201.23775   C 262.85582,201.23775 300.29819,190.60843 306.69176,181.05803   C 300.01847,177.5016 246.55221,142.7765 246.11265,142.7765   C 245.11365,142.7765 186.37269,179.65944 184.97409,181.57751   C 191.12791,189.96907 224.73413,201.23775 240.79799,201.23775   z "
     style="fill:#000000;fill-rule:evenodd;fill-opacity:1;stroke:none;" />
  <path
     id="path13"
     d="  M 289.70883,287.3512   L 290.74779,300.13835   L 292.38614,330.94738   L 299.25923,330.94738   C 299.25923,316.402 296.54196,300.77771 296.62188,286.31224   C 296.62188,278.2004 295.66285,271.32731 295.54297,263.41526   C 295.38313,250.46827 296.14237,256.14257 301.93654,247.51124   L 301.25722,240.07871   L 301.3771,237.4014   L 291.30722,237.4014   L 291.30722,198.6004   C 285.35321,199.95903 278.63996,202.91606 271.40722,204.75421   C 265.29337,206.31265 255.90281,208.1508 248.75,208.1508   L 242.91586,208.1508   C 224.81405,208.1508 213.70522,201.79719 199.83915,198.6004   L 199.83915,237.4014   L 189.76927,237.4014   L 189.76927,238.9998   L 189.12992,248.03072   L 196.80221,256.98172   L 191.96707,330.94738   L 199.31968,330.94738   L 199.31968,322.99538   L 202.6763,270.88775   C 203.95502,271.84678 207.7512,277.44116 209.82911,279.51907   C 211.98694,281.6769 215.66325,284.75381 218.26064,286.51204   C 223.53534,290.10843 231.52731,295.74277 239.19959,296.38212   L 239.19959,330.94738   L 252.46626,330.94738   L 252.46626,296.38212   C 261.37731,294.30421 267.29136,290.98755 273.60502,286.15241   C 276.92168,283.59498 278.91967,281.91666 281.83674,278.99959   C 283.4751,277.36124 287.7508,271.40722 289.14939,270.88775   L 289.14939,278.32028   z "
     style="fill:#000000;fill-rule:evenodd;fill-opacity:1;stroke:none;" />
  <path
     id="path15"
     d="  M 240.79799,201.23775   C 230.44839,201.23775 212.78614,196.56245 199.91907,190.96807   L 199.83915,198.6004   C 213.70522,201.79719 224.81405,208.1508 242.91586,208.1508   L 248.75,208.1508   C 255.90281,208.1508 265.29337,206.31265 271.40722,204.75421   C 278.63996,202.91606 285.35321,199.95903 291.30722,198.6004   L 291.26726,190.76827   C 277.0016,196.64237 256.78192,201.23775 245.03373,201.23775   z "
     style="fill:#ffffff;fill-rule:evenodd;fill-opacity:1;stroke:none;" />
</svg>
