<?xml version="1.0" encoding="UTF-8" standalone="no"?>
<svg
   xmlns:dc="http://purl.org/dc/elements/1.1/"
   xmlns:cc="http://creativecommons.org/ns#"
   xmlns:rdf="http://www.w3.org/1999/02/22-rdf-syntax-ns#"
   xmlns:svg="http://www.w3.org/2000/svg"
   xmlns="http://www.w3.org/2000/svg"
   id="svg15"
   height="130.27mm"
   width="130.27mm"
   version="1.0">
  <metadata
     id="metadata19">
    <rdf:RDF>
      <cc:Work
         rdf:about="">
        <dc:format>image/svg+xml</dc:format>
        <dc:type
           rdf:resource="http://purl.org/dc/dcmitype/StillImage" />
      </cc:Work>
    </rdf:RDF>
  </metadata>
  <defs
     id="defs3">
    <pattern
       y="0"
       x="0"
       height="6"
       width="6"
       patternUnits="userSpaceOnUse"
       id="EMFhbasepattern" />
  </defs>
  <path
     id="path5"
     d="  M 164.63454,327.67068   C 164.63454,437.95983 327.67068,437.95983 327.67068,327.67068   C 437.95983,327.67068 437.95983,164.63454 327.67068,164.63454   C 327.67068,54.345381 164.63454,54.345381 164.63454,164.63454   C 54.345381,164.63454 54.345381,327.67068 164.63454,327.67068   z "
     style="fill:#ffff80;fill-rule:evenodd;fill-opacity:1;stroke:none;" />
  <path
     id="path7"
     d="  M 164.63454,327.67068   C 164.63454,437.95983 327.67068,437.95983 327.67068,327.67068   C 437.95983,327.67068 437.95983,164.63454 327.67068,164.63454   C 327.67068,54.345381 164.63454,54.345381 164.63454,164.63454   C 54.345381,164.63454 54.345381,327.67068 164.63454,327.67068  "
     style="fill:none;stroke:#000000;stroke-width:9.5903616px;stroke-linecap:butt;stroke-linejoin:miter;stroke-miterlimit:10;stroke-dasharray:none;stroke-opacity:1;" />
  <path
     id="path9"
     d="  M 220.25863,278.2004   L 220.25863,164.2749   C 220.25863,142.69658 272.04658,142.69658 272.04658,164.2749   L 272.04658,278.2004  "
     style="fill:none;stroke:#000000;stroke-width:8.6313248px;stroke-linecap:butt;stroke-linejoin:miter;stroke-miterlimit:10;stroke-dasharray:none;stroke-opacity:1;" />
  <path
     id="path11"
     d="  M 246.15261,278.2004   L 246.15261,147.01225  "
     style="fill:none;stroke:#000000;stroke-width:8.6313248px;stroke-linecap:butt;stroke-linejoin:miter;stroke-miterlimit:10;stroke-dasharray:none;stroke-opacity:1;" />
  <path
     id="path13"
     d="  M 225.29357,321.71666   L 233.00582,321.03734   C 233.36546,324.15421 234.24457,326.67168 235.56325,328.66967   C 236.92188,330.62771 238.95984,332.2261 241.79698,333.46485   C 244.59417,334.66365 247.751,335.30301 251.26747,335.30301   C 254.38433,335.30301 257.14156,334.82349 259.53915,333.90441   C 261.89678,332.98534 263.69498,331.70662 264.85381,330.10823   C 266.01265,328.46987 266.61204,326.71164 266.61204,324.79357   C 266.61204,322.8755 266.05261,321.15722 264.93373,319.71867   C 263.81486,318.28012 261.93674,317.04136 259.33935,316.08232   C 257.701,315.44297 254.0247,314.44397 248.3504,313.04538   C 242.6761,311.68674 238.72008,310.40803 236.44237,309.20923   C 233.48534,307.6508 231.28755,305.73273 229.84899,303.45502   C 228.37048,301.1773 227.6512,298.57992 227.6512,295.74277   C 227.6512,292.6259 228.57028,289.74879 230.32851,287.03152   C 232.08674,284.31425 234.68413,282.23634 238.08072,280.83775   C 241.47731,279.43915 245.27349,278.71988 249.42931,278.71988   C 253.98474,278.71988 258.02068,279.47911 261.53714,280.95763   C 265.01365,282.43614 267.73092,284.59397 269.60903,287.47108   C 271.48714,290.30823 272.48614,293.58494 272.64598,297.18132   L 264.81385,297.78072   C 264.37429,293.86465 262.93574,290.94759 260.49819,288.94959   C 258.1006,286.9516 254.50421,285.95261 249.74899,285.95261   C 244.79397,285.95261 241.19759,286.83172 238.91988,288.66988   C 236.68213,290.46807 235.56325,292.66586 235.56325,295.22329   C 235.56325,297.42108 236.36245,299.25923 237.96084,300.69779   C 239.51927,302.13634 243.63514,303.61486 250.26847,305.09337   C 256.94176,306.61184 261.49718,307.93052 263.93474,309.04939   C 267.53112,310.68775 270.20843,312.80562 271.9267,315.32309   C 273.64498,317.88052 274.48413,320.79759 274.48413,324.11425   C 274.48413,327.43092 273.56506,330.50783 271.64698,333.42489   C 269.76887,336.34196 267.09156,338.57971 263.53514,340.21807   C 260.01867,341.81646 256.06265,342.61566 251.6271,342.61566   C 246.07269,342.61566 241.35743,341.81646 237.6012,340.17811   C 233.80502,338.53975 230.84799,336.1022 228.69016,332.8255   C 226.53233,329.54879 225.41345,325.87249 225.29357,321.71666   z "
     style="fill:#000000;fill-rule:evenodd;fill-opacity:1;stroke:none;" />
</svg>
