<?xml version="1.0" encoding="UTF-8" standalone="no"?>
<svg
   xmlns:dc="http://purl.org/dc/elements/1.1/"
   xmlns:cc="http://creativecommons.org/ns#"
   xmlns:rdf="http://www.w3.org/1999/02/22-rdf-syntax-ns#"
   xmlns:svg="http://www.w3.org/2000/svg"
   xmlns="http://www.w3.org/2000/svg"
   id="svg15"
   height="116.73mm"
   width="116.73mm"
   version="1.0">
  <metadata
     id="metadata19">
    <rdf:RDF>
      <cc:Work
         rdf:about="">
        <dc:format>image/svg+xml</dc:format>
        <dc:type
           rdf:resource="http://purl.org/dc/dcmitype/StillImage" />
      </cc:Work>
    </rdf:RDF>
  </metadata>
  <defs
     id="defs3">
    <pattern
       y="0"
       x="0"
       height="6"
       width="6"
       patternUnits="userSpaceOnUse"
       id="EMFhbasepattern" />
  </defs>
  <path
     id="path5"
     d="  M 220.57831,386.49156   L 220.57831,386.49156   L 386.49156,220.57831   L 220.57831,54.665059   L 54.665059,220.57831   L 220.57831,386.49156   z "
     style="fill:#ff8080;fill-rule:evenodd;fill-opacity:1;stroke:none;" />
  <path
     id="path7"
     d="  M 220.57831,386.49156   L 220.57831,386.49156   L 386.49156,220.57831   L 220.57831,54.665059   L 54.665059,220.57831   L 220.57831,386.49156  "
     style="fill:none;stroke:#000000;stroke-width:9.5903616px;stroke-linecap:butt;stroke-linejoin:miter;stroke-miterlimit:10;stroke-dasharray:none;stroke-opacity:1;" />
  <path
     id="path9"
     d="  M 194.68433,252.6261   L 194.68433,138.7006   C 194.68433,117.12229 246.47229,117.12229 246.47229,138.7006   L 246.47229,252.6261  "
     style="fill:none;stroke:#000000;stroke-width:8.6313248px;stroke-linecap:butt;stroke-linejoin:miter;stroke-miterlimit:10;stroke-dasharray:none;stroke-opacity:1;" />
  <path
     id="path11"
     d="  M 220.57831,252.6261   L 220.57831,121.43795  "
     style="fill:none;stroke:#000000;stroke-width:8.6313248px;stroke-linecap:butt;stroke-linejoin:miter;stroke-miterlimit:10;stroke-dasharray:none;stroke-opacity:1;" />
  <path
     id="path13"
     d="  M 199.71927,296.14237   L 207.43152,295.46305   C 207.79116,298.57992 208.67028,301.09739 209.98895,303.09538   C 211.34759,305.05341 213.38554,306.6518 216.22269,307.89056   C 219.01988,309.08935 222.1767,309.72871 225.69317,309.72871   C 228.81004,309.72871 231.56727,309.24919 233.96486,308.33012   C 236.32249,307.41104 238.12068,306.13232 239.27951,304.53393   C 240.43835,302.89558 241.03775,301.13735 241.03775,299.21927   C 241.03775,297.3012 240.47831,295.58293 239.35943,294.14437   C 238.24056,292.70582 236.36245,291.46706 233.76506,290.50803   C 232.1267,289.86867 228.4504,288.86967 222.7761,287.47108   C 217.1018,286.11245 213.14578,284.83373 210.86807,283.63494   C 207.91104,282.0765 205.71325,280.15843 204.2747,277.88072   C 202.79618,275.60301 202.0769,273.00562 202.0769,270.16847   C 202.0769,267.0516 202.99598,264.17449 204.75421,261.45723   C 206.51245,258.73996 209.10984,256.66204 212.50642,255.26345   C 215.90301,253.86486 219.69919,253.14558 223.85502,253.14558   C 228.41044,253.14558 232.44638,253.90482 235.96285,255.38333   C 239.43935,256.86184 242.15662,259.01967 244.03474,261.89678   C 245.91285,264.73393 246.91184,268.01064 247.07168,271.60702   L 239.23955,272.20642   C 238.8,268.29036 237.36144,265.37329 234.92389,263.3753   C 232.5263,261.37731 228.92992,260.37831 224.1747,260.37831   C 219.21968,260.37831 215.62329,261.25743 213.34558,263.09558   C 211.10783,264.89377 209.98895,267.09156 209.98895,269.64899   C 209.98895,271.84678 210.78815,273.68494 212.38654,275.12349   C 213.94498,276.56204 218.06084,278.04056 224.69417,279.51907   C 231.36747,281.03755 235.92289,282.35622 238.36044,283.4751   C 241.95682,285.11345 244.63413,287.23132 246.35241,289.74879   C 248.07068,292.30622 248.90984,295.22329 248.90984,298.53996   C 248.90984,301.85662 247.99076,304.93353 246.07269,307.8506   C 244.19457,310.76767 241.51727,313.00542 237.96084,314.64377   C 234.44437,316.24216 230.48835,317.04136 226.05281,317.04136   C 220.49839,317.04136 215.78313,316.24216 212.0269,314.60381   C 208.23072,312.96546 205.27369,310.52791 203.11586,307.2512   C 200.95803,303.97449 199.83915,300.29819 199.71927,296.14237   z "
     style="fill:#000000;fill-rule:evenodd;fill-opacity:1;stroke:none;" />
</svg>
