<?xml version="1.0" encoding="UTF-8" standalone="no"?>
<svg
   xmlns:dc="http://purl.org/dc/elements/1.1/"
   xmlns:cc="http://creativecommons.org/ns#"
   xmlns:rdf="http://www.w3.org/1999/02/22-rdf-syntax-ns#"
   xmlns:svg="http://www.w3.org/2000/svg"
   xmlns="http://www.w3.org/2000/svg"
   id="svg11"
   height="112.9mm"
   width="112.9mm"
   version="1.0">
  <metadata
     id="metadata15">
    <rdf:RDF>
      <cc:Work
         rdf:about="">
        <dc:format>image/svg+xml</dc:format>
        <dc:type
           rdf:resource="http://purl.org/dc/dcmitype/StillImage" />
      </cc:Work>
    </rdf:RDF>
  </metadata>
  <defs
     id="defs3">
    <pattern
       y="0"
       x="0"
       height="6"
       width="6"
       patternUnits="userSpaceOnUse"
       id="EMFhbasepattern" />
  </defs>
  <path
     id="path5"
     d="  M 1817.3195,1817.1379   L 1817.3195,2190.121  "
     style="fill:none;stroke:#ffff00;stroke-width:10.649107px;stroke-linecap:butt;stroke-linejoin:miter;stroke-miterlimit:282;stroke-dasharray:none;stroke-opacity:1;" />
  <path
     id="path7"
     d="  M 2030.4905,1817.1379   L 2030.4905,2190.121  "
     style="fill:none;stroke:#ffff00;stroke-width:10.649107px;stroke-linecap:butt;stroke-linejoin:miter;stroke-miterlimit:282;stroke-dasharray:none;stroke-opacity:1;" />
  <path
     id="path9"
     d="  M 1886.9164,2027.5144   L 1898.3585,2026.4948   C 1898.8872,2031.1019 1900.1711,2034.8404 1902.1348,2037.7859   C 1904.1362,2040.7314 1907.195,2043.0727 1911.3489,2044.8853   C 1915.5028,2046.6979 1920.1854,2047.6042 1925.3966,2047.6042   C 1930.0415,2047.6042 1934.1199,2046.9245 1937.6318,2045.565   C 1941.1815,2044.1678 1943.8249,2042.2796 1945.5242,2039.9006   C 1947.2613,2037.5215 1948.1298,2034.8781 1948.1298,2032.0837   C 1948.1298,2029.176 1947.2991,2026.6836 1945.6375,2024.5311   C 1943.9759,2022.3787 1941.2193,2020.6038 1937.4052,2019.1311   C 1934.9506,2018.187 1929.5128,2016.6765 1921.0917,2014.675   C 1912.6706,2012.6736 1906.7796,2010.7477 1903.4187,2008.9729   C 1899.0382,2006.6693 1895.7906,2003.8371 1893.6381,2000.4385   C 1891.4857,1997.0398 1890.4283,1993.2635 1890.4283,1989.0341   C 1890.4283,1984.4271 1891.75,1980.0843 1894.3556,1976.0815   C 1896.999,1972.0786 1900.8131,1969.0198 1905.8733,1966.9429   C 1910.8957,1964.8659 1916.4846,1963.8086 1922.64,1963.8086   C 1929.4373,1963.8086 1935.4416,1964.9037 1940.6151,1967.0939   C 1945.7886,1969.2842 1949.7914,1972.494 1952.5481,1976.7234   C 1955.3425,1980.9906 1956.8531,1985.7865 1957.0796,1991.1488   L 1945.4487,1992.0551   C 1944.8067,1986.2397 1942.692,1981.8969 1939.1045,1978.9137   C 1935.5171,1975.9682 1930.1925,1974.4954 1923.1686,1974.4954   C 1915.8427,1974.4954 1910.4803,1975.8171 1907.1195,1978.5361   C 1903.7963,1981.2172 1902.097,1984.4271 1902.097,1988.2411   C 1902.097,1991.5265 1903.3054,1994.2076 1905.6845,1996.3601   C 1907.988,1998.4748 1914.1056,2000.6273 1923.9239,2002.8553   C 1933.78,2005.0833 1940.5395,2007.047 1944.2025,2008.7085   C 1949.5271,2011.1631 1953.4544,2014.2974 1955.9845,2018.0359   C 1958.5524,2021.8122 1959.7986,2026.1549 1959.7986,2031.0641   C 1959.7986,2035.9355 1958.4013,2040.5426 1955.6069,2044.8475   C 1952.8502,2049.1525 1948.8473,2052.5134 1943.5983,2054.8924   C 1938.387,2057.2715 1932.4961,2058.4799 1925.9631,2058.4799   C 1917.693,2058.4799 1910.7447,2057.2715 1905.1558,2054.8547   C 1899.5291,2052.4378 1895.1487,2048.8126 1891.9766,2043.979   C 1888.7667,2039.1076 1887.1052,2033.632 1886.9164,2027.5144   z "
     style="fill:#ffff00;fill-rule:nonzero;fill-opacity:1;stroke:#ffff00;stroke-width:1.0573581px;stroke-linecap:butt;stroke-linejoin:miter;stroke-miterlimit:282;stroke-dasharray:none;stroke-opacity:1;" />
</svg>
