<?xml version="1.0" encoding="UTF-8" standalone="no"?>
<svg
   xmlns:dc="http://purl.org/dc/elements/1.1/"
   xmlns:cc="http://creativecommons.org/ns#"
   xmlns:rdf="http://www.w3.org/1999/02/22-rdf-syntax-ns#"
   xmlns:svg="http://www.w3.org/2000/svg"
   xmlns="http://www.w3.org/2000/svg"
   id="svg17"
   height="112.9mm"
   width="112.9mm"
   version="1.0">
  <metadata
     id="metadata21">
    <rdf:RDF>
      <cc:Work
         rdf:about="">
        <dc:format>image/svg+xml</dc:format>
        <dc:type
           rdf:resource="http://purl.org/dc/dcmitype/StillImage" />
      </cc:Work>
    </rdf:RDF>
  </metadata>
  <defs
     id="defs3">
    <pattern
       y="0"
       x="0"
       height="6"
       width="6"
       patternUnits="userSpaceOnUse"
       id="EMFhbasepattern" />
  </defs>
  <path
     id="path5"
     d="  M 2996.923,2714.6167   L 2996.923,3021.5526   L 2715.5524,3021.5526   L 2715.5524,2714.6167   z "
     style="fill:#aaffaa;fill-rule:nonzero;fill-opacity:1;stroke:#000000;stroke-width:10.649107px;stroke-linecap:square;stroke-linejoin:miter;stroke-miterlimit:282;stroke-dasharray:none;stroke-opacity:1;" />
  <path
     id="path7"
     d="  M 2720.877,2707.7061   L 2990.5033,2707.7061   L 2990.5033,2731.5344   L 2720.877,2731.5344   z "
     style="fill:#aaffaa;fill-rule:nonzero;fill-opacity:1;stroke:none;" />
  <path
     id="path9"
     d="  M 2784.3185,2793.3143   L 2927.024,2793.3143   L 2927.024,2889.1185   L 2784.3185,2889.1185   z "
     style="fill:#000000;fill-rule:nonzero;fill-opacity:1;stroke:#000000;stroke-width:6.3819113px;stroke-linecap:round;stroke-linejoin:miter;stroke-miterlimit:282;stroke-dasharray:none;stroke-opacity:1;" />
  <path
     id="path11"
     d="  M 2856.4832,2776.3966   L 2855.9545,2907.1692  "
     style="fill:none;stroke:#000000;stroke-width:12.763823px;stroke-linecap:butt;stroke-linejoin:miter;stroke-miterlimit:282;stroke-dasharray:none;stroke-opacity:1;" />
  <path
     id="path13"
     d="  M 2816.6434,2945.9138   L 2822.3834,2945.4229   C 2822.6477,2947.7264 2823.2897,2949.6145 2824.2715,2951.0495   C 2825.2533,2952.5223 2826.8016,2953.7307 2828.8786,2954.637   C 2830.9555,2955.5433 2833.2968,2955.9964 2835.9024,2955.9964   C 2838.206,2955.9964 2840.2452,2955.6188 2842.02,2954.9391   C 2843.7949,2954.2594 2845.1166,2953.3153 2845.9473,2952.1069   C 2846.8159,2950.9362 2847.269,2949.6145 2847.269,2948.2173   C 2847.269,2946.7823 2846.8536,2945.4984 2846.0229,2944.441   C 2845.1921,2943.3837 2843.7949,2942.4774 2841.9067,2941.7599   C 2840.6605,2941.269 2837.9416,2940.5137 2833.75,2939.4941   C 2829.5205,2938.5123 2826.575,2937.5304 2824.9135,2936.6619   C 2822.7232,2935.4912 2821.0994,2934.094 2820.0043,2932.3947   C 2818.9469,2930.6954 2818.4183,2928.8072 2818.4183,2926.6925   C 2818.4183,2924.389 2819.0602,2922.2365 2820.3819,2920.1973   C 2821.7036,2918.1959 2823.5918,2916.6854 2826.1219,2915.628   C 2828.652,2914.6084 2831.4464,2914.0797 2834.5052,2914.0797   C 2837.9039,2914.0797 2840.8871,2914.6084 2843.4928,2915.7035   C 2846.0984,2916.7987 2848.0998,2918.4225 2849.4593,2920.5372   C 2850.8565,2922.6519 2851.6118,2925.0687 2851.725,2927.7499   L 2845.9096,2928.203   C 2845.6075,2925.2953 2844.5501,2923.1051 2842.7375,2921.6323   C 2840.9626,2920.1596 2838.2815,2919.4043 2834.7696,2919.4043   C 2831.1066,2919.4043 2828.4254,2920.084 2826.7638,2921.4435   C 2825.1023,2922.7652 2824.2337,2924.389 2824.2337,2926.2771   C 2824.2337,2927.9387 2824.8379,2929.2982 2826.0086,2930.3555   C 2827.1792,2931.4129 2830.238,2932.508 2835.1472,2933.6031   C 2840.0941,2934.736 2843.455,2935.6801 2845.3054,2936.5108   C 2847.9488,2937.757 2849.9124,2939.3053 2851.1964,2941.1934   C 2852.4803,2943.0816 2853.0845,2945.234 2853.0845,2947.6886   C 2853.0845,2950.1432 2852.4048,2952.4467 2851.0076,2954.5992   C 2849.6103,2956.7517 2847.6089,2958.4133 2845.0033,2959.6217   C 2842.3976,2960.8301 2839.4521,2961.3965 2836.1668,2961.3965   C 2832.0506,2961.3965 2828.5765,2960.7923 2825.7442,2959.5839   C 2822.9498,2958.4133 2820.7596,2956.5629 2819.1735,2954.1461   C 2817.5875,2951.7292 2816.7567,2948.9726 2816.6434,2945.9138   z "
     style="fill:#000000;fill-rule:nonzero;fill-opacity:1;stroke:none;" />
  <path
     id="path15"
     d="  M 2859.3909,2945.9138   L 2865.0931,2945.4229   C 2865.3574,2947.7264 2865.9994,2949.6145 2866.9812,2951.0495   C 2867.963,2952.5223 2869.5113,2953.7307 2871.5883,2954.637   C 2873.6652,2955.5433 2876.0065,2955.9964 2878.6121,2955.9964   C 2880.9157,2955.9964 2882.9549,2955.6188 2884.7297,2954.9391   C 2886.5046,2954.2594 2887.8263,2953.3153 2888.6948,2952.1069   C 2889.5256,2950.9362 2889.9787,2949.6145 2889.9787,2948.2173   C 2889.9787,2946.7823 2889.5634,2945.4984 2888.7326,2944.441   C 2887.9018,2943.3837 2886.5046,2942.4774 2884.6164,2941.7599   C 2883.3703,2941.269 2880.6513,2940.5137 2876.4597,2939.4941   C 2872.2302,2938.5123 2869.2847,2937.5304 2867.6232,2936.6619   C 2865.4329,2935.4912 2863.8091,2934.094 2862.714,2932.3947   C 2861.6567,2930.6954 2861.128,2928.8072 2861.128,2926.6925   C 2861.128,2924.389 2861.7699,2922.2365 2863.0916,2920.1973   C 2864.4133,2918.1959 2866.3015,2916.6854 2868.8316,2915.628   C 2871.3617,2914.6084 2874.1561,2914.0797 2877.2149,2914.0797   C 2880.6136,2914.0797 2883.6346,2914.6084 2886.2025,2915.7035   C 2888.8081,2916.7987 2890.8095,2918.4225 2892.2068,2920.5372   C 2893.5662,2922.6519 2894.3215,2925.0687 2894.4348,2927.7499   L 2888.6193,2928.203   C 2888.3172,2925.2953 2887.2598,2923.1051 2885.4472,2921.6323   C 2883.6724,2920.1596 2880.9912,2919.4043 2877.4793,2919.4043   C 2873.8163,2919.4043 2871.1351,2920.084 2869.4736,2921.4435   C 2867.812,2922.7652 2866.9434,2924.389 2866.9434,2926.2771   C 2866.9434,2927.9387 2867.5477,2929.2982 2868.7561,2930.3555   C 2869.8889,2931.4129 2872.9477,2932.508 2877.8569,2933.6031   C 2882.8038,2934.736 2886.1647,2935.6801 2888.0151,2936.5108   C 2890.6585,2937.757 2892.6221,2939.3053 2893.9061,2941.1934   C 2895.19,2943.0816 2895.7942,2945.234 2895.7942,2947.6886   C 2895.7942,2950.1432 2895.1145,2952.4467 2893.7173,2954.5992   C 2892.32,2956.7517 2890.3186,2958.4133 2887.713,2959.6217   C 2885.1073,2960.8301 2882.1619,2961.3965 2878.8765,2961.3965   C 2874.7603,2961.3965 2871.2862,2960.7923 2868.4917,2959.5839   C 2865.6595,2958.4133 2863.4693,2956.5629 2861.8832,2954.1461   C 2860.2972,2951.7292 2859.4664,2948.9726 2859.3909,2945.9138   z "
     style="fill:#000000;fill-rule:nonzero;fill-opacity:1;stroke:none;" />
</svg>
