<?xml version="1.0" encoding="UTF-8" standalone="no"?>
<svg
   xmlns:dc="http://purl.org/dc/elements/1.1/"
   xmlns:cc="http://creativecommons.org/ns#"
   xmlns:rdf="http://www.w3.org/1999/02/22-rdf-syntax-ns#"
   xmlns:svg="http://www.w3.org/2000/svg"
   xmlns="http://www.w3.org/2000/svg"
   id="svg17"
   height="112.9mm"
   width="112.9mm"
   version="1.0">
  <metadata
     id="metadata21">
    <rdf:RDF>
      <cc:Work
         rdf:about="">
        <dc:format>image/svg+xml</dc:format>
        <dc:type
           rdf:resource="http://purl.org/dc/dcmitype/StillImage" />
      </cc:Work>
    </rdf:RDF>
  </metadata>
  <defs
     id="defs3">
    <pattern
       y="0"
       x="0"
       height="6"
       width="6"
       patternUnits="userSpaceOnUse"
       id="EMFhbasepattern" />
  </defs>
  <path
     id="path5"
     d="  M 2996.923,2715.0666   L 2996.923,2917.5507   L 2856.2188,3047.568   L 2715.5524,2917.5507   L 2715.5524,2715.0666   z "
     style="fill:#ff8080;fill-rule:nonzero;fill-opacity:1;stroke:#000000;stroke-width:10.649107px;stroke-linecap:square;stroke-linejoin:miter;stroke-miterlimit:282;stroke-dasharray:none;stroke-opacity:1;" />
  <path
     id="path7"
     d="  M 2720.877,2709.44   L 2990.5033,2709.44   L 2990.5033,2721.4108   L 2720.877,2721.4108   z "
     style="fill:#ff8080;fill-rule:nonzero;fill-opacity:1;stroke:none;" />
  <path
     id="path9"
     d="  M 2784.3185,2771.8241   L 2927.024,2771.8241   L 2927.024,2867.666   L 2784.3185,2867.666   z "
     style="fill:#000000;fill-rule:nonzero;fill-opacity:1;stroke:#000000;stroke-width:6.3819113px;stroke-linecap:round;stroke-linejoin:miter;stroke-miterlimit:282;stroke-dasharray:none;stroke-opacity:1;" />
  <path
     id="path11"
     d="  M 2856.4832,2754.9064   L 2855.9545,2885.6789  "
     style="fill:none;stroke:#000000;stroke-width:10.649107px;stroke-linecap:butt;stroke-linejoin:miter;stroke-miterlimit:282;stroke-dasharray:none;stroke-opacity:1;" />
  <path
     id="path13"
     d="  M 2816.6434,2924.4235   L 2822.3834,2923.9326   C 2822.6477,2926.2361 2823.2897,2928.1243 2824.2715,2929.5593   C 2825.2533,2931.032 2826.8016,2932.2404 2828.8786,2933.1467   C 2830.9555,2934.053 2833.2968,2934.5062 2835.9024,2934.5062   C 2838.206,2934.5062 2840.2452,2934.1663 2842.02,2933.4488   C 2843.7949,2932.7691 2845.1166,2931.825 2845.9473,2930.6544   C 2846.8159,2929.446 2847.269,2928.1243 2847.269,2926.727   C 2847.269,2925.2921 2846.8536,2924.0459 2846.0229,2922.9508   C 2845.1921,2921.8934 2843.7949,2920.9871 2841.9067,2920.2696   C 2840.6605,2919.7787 2837.9416,2919.0234 2833.75,2918.0038   C 2829.5205,2917.022 2826.575,2916.0779 2824.9135,2915.1716   C 2822.7232,2914.0387 2821.0994,2912.6038 2820.0043,2910.9044   C 2818.9469,2909.2051 2818.4183,2907.317 2818.4183,2905.2023   C 2818.4183,2902.8987 2819.0602,2900.7462 2820.3819,2898.7448   C 2821.7036,2896.7056 2823.5918,2895.1951 2826.1219,2894.1378   C 2828.652,2893.1182 2831.4464,2892.5895 2834.5052,2892.5895   C 2837.9039,2892.5895 2840.8871,2893.1559 2843.4928,2894.2133   C 2846.0984,2895.3084 2848.0998,2896.9322 2849.4593,2899.0469   C 2850.8565,2901.1616 2851.6118,2903.5785 2851.725,2906.2596   L 2845.9096,2906.7128   C 2845.6075,2903.805 2844.5501,2901.6148 2842.7375,2900.142   C 2840.9626,2898.6693 2838.2815,2897.914 2834.7696,2897.914   C 2831.1066,2897.914 2828.4254,2898.5938 2826.7638,2899.9532   C 2825.1023,2901.2749 2824.2337,2902.8987 2824.2337,2904.7869   C 2824.2337,2906.4484 2824.8379,2907.8079 2826.0086,2908.8652   C 2827.1792,2909.9226 2830.238,2911.0177 2835.1472,2912.1128   C 2840.0941,2913.2457 2843.455,2914.1898 2845.3054,2915.0583   C 2847.9488,2916.2668 2849.9124,2917.815 2851.1964,2919.7032   C 2852.4803,2921.5913 2853.0845,2923.7438 2853.0845,2926.2361   C 2853.0845,2928.6529 2852.4048,2930.9565 2851.0076,2933.109   C 2849.6103,2935.2614 2847.6089,2936.923 2845.0033,2938.1314   C 2842.3976,2939.3398 2839.4521,2939.944 2836.1668,2939.944   C 2832.0506,2939.944 2828.5765,2939.3398 2825.7442,2938.1314   C 2822.9498,2936.923 2820.7596,2935.0726 2819.1735,2932.6558   C 2817.5875,2930.239 2816.7567,2927.4823 2816.6434,2924.4235   z "
     style="fill:#000000;fill-rule:nonzero;fill-opacity:1;stroke:none;" />
  <path
     id="path15"
     d="  M 2859.3909,2924.4235   L 2865.0931,2923.9326   C 2865.3574,2926.2361 2865.9994,2928.1243 2866.9812,2929.5593   C 2867.963,2931.032 2869.5113,2932.2404 2871.5883,2933.1467   C 2873.6652,2934.053 2876.0065,2934.5062 2878.6121,2934.5062   C 2880.9157,2934.5062 2882.9549,2934.1663 2884.7297,2933.4488   C 2886.5046,2932.7691 2887.8263,2931.825 2888.6948,2930.6544   C 2889.5256,2929.446 2889.9787,2928.1243 2889.9787,2926.727   C 2889.9787,2925.2921 2889.5634,2924.0459 2888.7326,2922.9508   C 2887.9018,2921.8934 2886.5046,2920.9871 2884.6164,2920.2696   C 2883.3703,2919.7787 2880.6513,2919.0234 2876.4597,2918.0038   C 2872.2302,2917.022 2869.2847,2916.0779 2867.6232,2915.1716   C 2865.4329,2914.0387 2863.8091,2912.6038 2862.714,2910.9044   C 2861.6567,2909.2051 2861.128,2907.317 2861.128,2905.2023   C 2861.128,2902.8987 2861.7699,2900.7462 2863.0916,2898.7448   C 2864.4133,2896.7056 2866.3015,2895.1951 2868.8316,2894.1378   C 2871.3617,2893.1182 2874.1561,2892.5895 2877.2149,2892.5895   C 2880.6136,2892.5895 2883.6346,2893.1559 2886.2025,2894.2133   C 2888.8081,2895.3084 2890.8095,2896.9322 2892.2068,2899.0469   C 2893.5662,2901.1616 2894.3215,2903.5785 2894.4348,2906.2596   L 2888.6193,2906.7128   C 2888.3172,2903.805 2887.2598,2901.6148 2885.4472,2900.142   C 2883.6724,2898.6693 2880.9912,2897.914 2877.4793,2897.914   C 2873.8163,2897.914 2871.1351,2898.5938 2869.4736,2899.9532   C 2867.812,2901.2749 2866.9434,2902.8987 2866.9434,2904.7869   C 2866.9434,2906.4484 2867.5477,2907.8079 2868.7561,2908.8652   C 2869.8889,2909.9226 2872.9477,2911.0177 2877.8569,2912.1128   C 2882.8038,2913.2457 2886.1647,2914.1898 2888.0151,2915.0583   C 2890.6585,2916.2668 2892.6221,2917.815 2893.9061,2919.7032   C 2895.19,2921.5913 2895.7942,2923.7438 2895.7942,2926.2361   C 2895.7942,2928.6529 2895.1145,2930.9565 2893.7173,2933.109   C 2892.32,2935.2614 2890.3186,2936.923 2887.713,2938.1314   C 2885.1073,2939.3398 2882.1619,2939.944 2878.8765,2939.944   C 2874.7603,2939.944 2871.2862,2939.3398 2868.4917,2938.1314   C 2865.6595,2936.923 2863.4693,2935.0726 2861.8832,2932.6558   C 2860.2972,2930.239 2859.4664,2927.4823 2859.3909,2924.4235   z "
     style="fill:#000000;fill-rule:nonzero;fill-opacity:1;stroke:none;" />
</svg>
