<?xml version="1.0" encoding="UTF-8" standalone="no"?>
<svg
   xmlns:dc="http://purl.org/dc/elements/1.1/"
   xmlns:cc="http://creativecommons.org/ns#"
   xmlns:rdf="http://www.w3.org/1999/02/22-rdf-syntax-ns#"
   xmlns:svg="http://www.w3.org/2000/svg"
   xmlns="http://www.w3.org/2000/svg"
   id="svg17"
   height="112.9mm"
   width="112.9mm"
   version="1.0">
  <metadata
     id="metadata21">
    <rdf:RDF>
      <cc:Work
         rdf:about="">
        <dc:format>image/svg+xml</dc:format>
        <dc:type
           rdf:resource="http://purl.org/dc/dcmitype/StillImage" />
      </cc:Work>
    </rdf:RDF>
  </metadata>
  <defs
     id="defs3">
    <pattern
       y="0"
       x="0"
       height="6"
       width="6"
       patternUnits="userSpaceOnUse"
       id="EMFhbasepattern" />
  </defs>
  <path
     id="path5"
     d="  M 2018.2473,2071.7349   C 1885.0202,2071.7349 1885.0202,2290.1927 2018.2473,2290.1927   C 2018.2473,2438.3361 2199.3954,2438.3361 2199.3954,2290.1927   C 2332.6225,2290.1927 2332.6225,2071.7349 2199.3954,2071.7349   z "
     style="fill:#ffff80;fill-rule:nonzero;fill-opacity:1;stroke:#000000;stroke-width:10.649107px;stroke-linecap:butt;stroke-linejoin:miter;stroke-miterlimit:282;stroke-dasharray:none;stroke-opacity:1;" />
  <path
     id="path7"
     d="  M 2017.6053,2064.8621   L 2198.3003,2064.8621   L 2198.3003,2076.2287   L 2017.6053,2076.2287   z "
     style="fill:#ffff80;fill-rule:nonzero;fill-opacity:1;stroke:none;" />
  <path
     id="path9"
     d="  M 2037.7329,2126.7553   L 2180.363,2126.7553   L 2180.363,2222.5217   L 2037.7329,2222.5217   z "
     style="fill:#000000;fill-rule:nonzero;fill-opacity:1;stroke:#000000;stroke-width:6.3819113px;stroke-linecap:round;stroke-linejoin:miter;stroke-miterlimit:282;stroke-dasharray:none;stroke-opacity:1;" />
  <path
     id="path11"
     d="  M 2109.8598,2109.7998   L 2109.3312,2240.5346  "
     style="fill:none;stroke:#000000;stroke-width:12.763823px;stroke-linecap:butt;stroke-linejoin:miter;stroke-miterlimit:282;stroke-dasharray:none;stroke-opacity:1;" />
  <path
     id="path13"
     d="  M 2070.0201,2279.317   L 2075.7223,2278.7883   C 2076.0244,2281.0918 2076.6286,2282.98 2077.6104,2284.4527   C 2078.63,2285.8877 2080.1405,2287.0961 2082.2175,2288.0024   C 2084.2944,2288.9087 2086.6357,2289.3619 2089.2414,2289.3619   C 2091.5826,2289.3619 2093.6218,2289.022 2095.3589,2288.3423   C 2097.1338,2287.6248 2098.4555,2286.6807 2099.324,2285.5101   C 2100.1926,2284.3017 2100.608,2282.98 2100.608,2281.5827   C 2100.608,2280.1478 2100.1926,2278.9016 2099.3618,2277.8065   C 2098.531,2276.7491 2097.1715,2275.8428 2095.2456,2275.1253   C 2094.0372,2274.6344 2091.3183,2273.8791 2087.0889,2272.8973   C 2082.8972,2271.8777 2079.9517,2270.9336 2078.2524,2270.0273   C 2076.0621,2268.8944 2074.4383,2267.4595 2073.381,2265.7601   C 2072.3236,2264.0608 2071.7572,2262.1727 2071.7572,2260.0579   C 2071.7572,2257.7544 2072.4369,2255.6019 2073.7208,2253.6005   C 2075.0425,2251.5613 2076.9684,2250.0508 2079.4986,2249.0312   C 2081.9909,2247.9739 2084.7853,2247.4452 2087.8819,2247.4452   C 2091.2805,2247.4452 2094.2638,2248.0116 2096.8694,2249.1067   C 2099.4373,2250.2019 2101.4387,2251.7879 2102.836,2253.9026   C 2104.2332,2256.0551 2104.9884,2258.4341 2105.1017,2261.1153   L 2099.2863,2261.5685   C 2098.9842,2258.6607 2097.9268,2256.4705 2096.1142,2254.9977   C 2094.3016,2253.525 2091.6582,2252.8075 2088.1462,2252.8075   C 2084.4832,2252.8075 2081.8021,2253.4495 2080.1405,2254.8089   C 2078.4412,2256.1306 2077.6104,2257.7544 2077.6104,2259.6426   C 2077.6104,2261.3041 2078.2146,2262.6636 2079.3853,2263.7209   C 2080.5559,2264.7783 2083.6147,2265.8734 2088.5239,2266.9685   C 2093.433,2268.1014 2096.8317,2269.0833 2098.6443,2269.914   C 2101.3254,2271.1224 2103.2891,2272.6707 2104.573,2274.5589   C 2105.8192,2276.447 2106.4612,2278.6372 2106.4612,2281.0918   C 2106.4612,2283.5086 2105.7437,2285.8122 2104.3842,2287.9646   C 2102.987,2290.1171 2100.9856,2291.7787 2098.3422,2292.9871   C 2095.7366,2294.1955 2092.7911,2294.7997 2089.5435,2294.7997   C 2085.3895,2294.7997 2081.9154,2294.1955 2079.1209,2292.9871   C 2076.3265,2291.7787 2074.1362,2289.9661 2072.5502,2287.5115   C 2070.9264,2285.0947 2070.0956,2282.3758 2070.0201,2279.317   z "
     style="fill:#000000;fill-rule:nonzero;fill-opacity:1;stroke:none;" />
  <path
     id="path15"
     d="  M 2112.7298,2279.317   L 2118.432,2278.7883   C 2118.7341,2281.0918 2119.3383,2282.98 2120.3201,2284.4527   C 2121.3397,2285.8877 2122.8502,2287.0961 2124.9272,2288.0024   C 2127.0419,2288.9087 2129.3832,2289.3619 2131.9511,2289.3619   C 2134.2924,2289.3619 2136.3316,2289.022 2138.1064,2288.3423   C 2139.8435,2287.6248 2141.1652,2286.6807 2142.0337,2285.5101   C 2142.9023,2284.3017 2143.3177,2282.98 2143.3177,2281.5827   C 2143.3177,2280.1478 2142.9023,2278.9016 2142.0715,2277.8065   C 2141.2407,2276.7491 2139.8813,2275.8428 2137.9554,2275.1253   C 2136.7469,2274.6344 2134.028,2273.8791 2129.7986,2272.8973   C 2125.6069,2271.8777 2122.6614,2270.9336 2120.9621,2270.0273   C 2118.8096,2268.8944 2117.1481,2267.4595 2116.0907,2265.7601   C 2115.0333,2264.0608 2114.4669,2262.1727 2114.4669,2260.0579   C 2114.4669,2257.7544 2115.1466,2255.6019 2116.4683,2253.6005   C 2117.7523,2251.5613 2119.6782,2250.0508 2122.2083,2249.0312   C 2124.7006,2247.9739 2127.4951,2247.4452 2130.5916,2247.4452   C 2133.9903,2247.4452 2136.9735,2248.0116 2139.5792,2249.1067   C 2142.147,2250.2019 2144.1484,2251.7879 2145.5457,2253.9026   C 2146.9429,2256.0551 2147.6982,2258.4341 2147.8114,2261.1153   L 2141.996,2261.5685   C 2141.6939,2258.6607 2140.6365,2256.4705 2138.8239,2254.9977   C 2137.0113,2253.525 2134.3679,2252.8075 2130.8559,2252.8075   C 2127.193,2252.8075 2124.5118,2253.4495 2122.8502,2254.8089   C 2121.1509,2256.1306 2120.3201,2257.7544 2120.3201,2259.6426   C 2120.3201,2261.3041 2120.9243,2262.6636 2122.095,2263.7209   C 2123.2656,2264.7783 2126.3244,2265.8734 2131.2336,2266.9685   C 2136.1427,2268.1014 2139.5414,2269.0833 2141.354,2269.914   C 2144.0352,2271.1224 2145.9988,2272.6707 2147.2828,2274.5589   C 2148.5289,2276.447 2149.1709,2278.6372 2149.1709,2281.0918   C 2149.1709,2283.5086 2148.4912,2285.8122 2147.0939,2287.9646   C 2145.6967,2290.1171 2143.6953,2291.7787 2141.0519,2292.9871   C 2138.4463,2294.1955 2135.5008,2294.7997 2132.2532,2294.7997   C 2128.0993,2294.7997 2124.6251,2294.1955 2121.8306,2292.9871   C 2119.0362,2291.7787 2116.846,2289.9661 2115.2599,2287.5115   C 2113.6739,2285.0947 2112.8053,2282.3758 2112.7298,2279.317   z "
     style="fill:#000000;fill-rule:nonzero;fill-opacity:1;stroke:none;" />
</svg>
