<?xml version="1.0" encoding="UTF-8" standalone="no"?>
<svg
   xmlns:dc="http://purl.org/dc/elements/1.1/"
   xmlns:cc="http://creativecommons.org/ns#"
   xmlns:rdf="http://www.w3.org/1999/02/22-rdf-syntax-ns#"
   xmlns:svg="http://www.w3.org/2000/svg"
   xmlns="http://www.w3.org/2000/svg"
   id="svg17"
   height="112.9mm"
   width="112.9mm"
   version="1.0">
  <metadata
     id="metadata21">
    <rdf:RDF>
      <cc:Work
         rdf:about="">
        <dc:format>image/svg+xml</dc:format>
        <dc:type
           rdf:resource="http://purl.org/dc/dcmitype/StillImage" />
      </cc:Work>
    </rdf:RDF>
  </metadata>
  <defs
     id="defs3">
    <pattern
       y="0"
       x="0"
       height="6"
       width="6"
       patternUnits="userSpaceOnUse"
       id="EMFhbasepattern" />
  </defs>
  <path
     id="path5"
     d="  M 2715.5524,2715.0666   C 2715.5524,3121.1299 2996.923,3121.1299 2996.923,2715.0666   z "
     style="fill:#80e0ff;fill-rule:nonzero;fill-opacity:1;stroke:#000000;stroke-width:10.649107px;stroke-linecap:square;stroke-linejoin:miter;stroke-miterlimit:282;stroke-dasharray:none;stroke-opacity:1;" />
  <path
     id="path7"
     d="  M 2720.877,2709.44   L 2990.5033,2709.44   L 2990.5033,2723.2234   L 2720.877,2723.2234   z "
     style="fill:#80e0ff;fill-rule:nonzero;fill-opacity:1;stroke:none;" />
  <path
     id="path9"
     d="  M 2784.3185,2766.424   L 2927.024,2766.424   L 2927.024,2862.1904   L 2784.3185,2862.1904   z "
     style="fill:#000000;fill-rule:nonzero;fill-opacity:1;stroke:#000000;stroke-width:6.3819113px;stroke-linecap:round;stroke-linejoin:miter;stroke-miterlimit:282;stroke-dasharray:none;stroke-opacity:1;" />
  <path
     id="path11"
     d="  M 2856.5209,2742.5579   L 2855.9545,2879.9767  "
     style="fill:none;stroke:#000000;stroke-width:12.763823px;stroke-linecap:butt;stroke-linejoin:miter;stroke-miterlimit:282;stroke-dasharray:none;stroke-opacity:1;" />
  <path
     id="path13"
     d="  M 2816.6434,2919.0234   L 2822.3834,2918.5325   C 2822.6477,2920.7983 2823.2897,2922.6864 2824.2715,2924.1592   C 2825.2533,2925.6319 2826.8016,2926.8026 2828.8786,2927.7089   C 2830.9555,2928.6152 2833.2968,2929.0683 2835.9024,2929.0683   C 2838.206,2929.0683 2840.2452,2928.7285 2842.02,2928.0487   C 2843.7949,2927.369 2845.1166,2926.4249 2845.9473,2925.2165   C 2846.8159,2924.0081 2847.269,2922.7242 2847.269,2921.2892   C 2847.269,2919.8542 2846.8536,2918.608 2846.0229,2917.5507   C 2845.1921,2916.4556 2843.7949,2915.5493 2841.9067,2914.8318   C 2840.6605,2914.3408 2837.9416,2913.6234 2833.75,2912.6038   C 2829.5205,2911.5842 2826.575,2910.6401 2824.9135,2909.7338   C 2822.7232,2908.6009 2821.0994,2907.1659 2820.0043,2905.4666   C 2818.9469,2903.805 2818.4183,2901.8791 2818.4183,2899.8022   C 2818.4183,2897.4609 2819.0602,2895.3084 2820.3819,2893.307   C 2821.7036,2891.3055 2823.5918,2889.7573 2826.1219,2888.7377   C 2828.652,2887.6803 2831.4464,2887.1894 2834.5052,2887.1894   C 2837.9039,2887.1894 2840.8871,2887.7181 2843.4928,2888.8132   C 2846.0984,2889.9083 2848.0998,2891.4944 2849.4593,2893.6468   C 2850.8565,2895.7616 2851.6118,2898.1784 2851.725,2900.8595   L 2845.9096,2901.2749   C 2845.6075,2898.405 2844.5501,2896.2147 2842.7375,2894.742   C 2840.9626,2893.2314 2838.2815,2892.514 2834.7696,2892.514   C 2831.1066,2892.514 2828.4254,2893.1937 2826.7638,2894.5154   C 2825.1023,2895.8748 2824.2337,2897.4986 2824.2337,2899.3868   C 2824.2337,2901.0106 2824.8379,2902.37 2826.0086,2903.4274   C 2827.1792,2904.4848 2830.238,2905.5799 2835.1472,2906.7128   C 2840.0941,2907.8079 2843.455,2908.7897 2845.3054,2909.6205   C 2847.9488,2910.8667 2849.9124,2912.4149 2851.1964,2914.3031   C 2852.4803,2916.1912 2853.0845,2918.3437 2853.0845,2920.7983   C 2853.0845,2923.2529 2852.4048,2925.5186 2851.0076,2927.6711   C 2849.6103,2929.8236 2847.6089,2931.5229 2845.0033,2932.6936   C 2842.3976,2933.902 2839.4521,2934.5062 2836.1668,2934.5062   C 2832.0506,2934.5062 2828.5765,2933.902 2825.7442,2932.6936   C 2822.9498,2931.4852 2820.7596,2929.6725 2819.1735,2927.2557   C 2817.5875,2924.8389 2816.7567,2922.0822 2816.6434,2919.0234   z "
     style="fill:#000000;fill-rule:nonzero;fill-opacity:1;stroke:none;" />
  <path
     id="path15"
     d="  M 2859.3909,2919.0234   L 2865.0931,2918.5325   C 2865.3574,2920.7983 2865.9994,2922.6864 2866.9812,2924.1592   C 2867.963,2925.6319 2869.5113,2926.8026 2871.5883,2927.7089   C 2873.6652,2928.6152 2876.0065,2929.0683 2878.6121,2929.0683   C 2880.9157,2929.0683 2882.9549,2928.7285 2884.7297,2928.0487   C 2886.5046,2927.369 2887.8263,2926.4249 2888.6948,2925.2165   C 2889.5256,2924.0081 2889.9787,2922.7242 2889.9787,2921.2892   C 2889.9787,2919.8542 2889.5634,2918.608 2888.7326,2917.5507   C 2887.9018,2916.4556 2886.5046,2915.5493 2884.6164,2914.8318   C 2883.3703,2914.3408 2880.6513,2913.6234 2876.4597,2912.6038   C 2872.2302,2911.5842 2869.2847,2910.6401 2867.6232,2909.7338   C 2865.4329,2908.6009 2863.8091,2907.1659 2862.714,2905.4666   C 2861.6567,2903.805 2861.128,2901.8791 2861.128,2899.8022   C 2861.128,2897.4609 2861.7699,2895.3084 2863.0916,2893.307   C 2864.4133,2891.3055 2866.3015,2889.7573 2868.8316,2888.7377   C 2871.3617,2887.6803 2874.1561,2887.1894 2877.2149,2887.1894   C 2880.6136,2887.1894 2883.6346,2887.7181 2886.2025,2888.8132   C 2888.8081,2889.9083 2890.8095,2891.4944 2892.2068,2893.6468   C 2893.5662,2895.7616 2894.3215,2898.1784 2894.4348,2900.8595   L 2888.6193,2901.2749   C 2888.3172,2898.405 2887.2598,2896.2147 2885.4472,2894.742   C 2883.6724,2893.2314 2880.9912,2892.514 2877.4793,2892.514   C 2873.8163,2892.514 2871.1351,2893.1937 2869.4736,2894.5154   C 2867.812,2895.8748 2866.9434,2897.4986 2866.9434,2899.3868   C 2866.9434,2901.0106 2867.5477,2902.37 2868.7561,2903.4274   C 2869.8889,2904.4848 2872.9477,2905.5799 2877.8569,2906.7128   C 2882.8038,2907.8079 2886.1647,2908.7897 2888.0151,2909.6205   C 2890.6585,2910.8667 2892.6221,2912.4149 2893.9061,2914.3031   C 2895.19,2916.1912 2895.7942,2918.3437 2895.7942,2920.7983   C 2895.7942,2923.2529 2895.1145,2925.5186 2893.7173,2927.6711   C 2892.32,2929.8236 2890.3186,2931.5229 2887.713,2932.6936   C 2885.1073,2933.902 2882.1619,2934.5062 2878.8765,2934.5062   C 2874.7603,2934.5062 2871.2862,2933.902 2868.4917,2932.6936   C 2865.6595,2931.4852 2863.4693,2929.6725 2861.8832,2927.2557   C 2860.2972,2924.8389 2859.4664,2922.0822 2859.3909,2919.0234   z "
     style="fill:#000000;fill-rule:nonzero;fill-opacity:1;stroke:none;" />
</svg>
