<?xml version="1.0" encoding="UTF-8" standalone="no"?>
<svg
   xmlns:dc="http://purl.org/dc/elements/1.1/"
   xmlns:cc="http://creativecommons.org/ns#"
   xmlns:rdf="http://www.w3.org/1999/02/22-rdf-syntax-ns#"
   xmlns:svg="http://www.w3.org/2000/svg"
   xmlns="http://www.w3.org/2000/svg"
   id="svg17"
   height="112.9mm"
   width="112.9mm"
   version="1.0">
  <metadata
     id="metadata21">
    <rdf:RDF>
      <cc:Work
         rdf:about="">
        <dc:format>image/svg+xml</dc:format>
        <dc:type
           rdf:resource="http://purl.org/dc/dcmitype/StillImage" />
      </cc:Work>
    </rdf:RDF>
  </metadata>
  <defs
     id="defs3">
    <pattern
       y="0"
       x="0"
       height="6"
       width="6"
       patternUnits="userSpaceOnUse"
       id="EMFhbasepattern" />
  </defs>
  <path
     id="path5"
     d="  M 1816.8403,1817.3195   L 2232.4953,1817.3195  "
     style="fill:none;stroke:#ff0000;stroke-width:10.649107px;stroke-linecap:butt;stroke-linejoin:miter;stroke-miterlimit:282;stroke-dasharray:37.271874,26.622767;stroke-dashoffset:0;stroke-opacity:1;" />
  <path
     id="path7"
     d="  M 1816.8403,2030.4905   L 2232.4953,2030.4905  "
     style="fill:none;stroke:#ff0000;stroke-width:10.649107px;stroke-linecap:butt;stroke-linejoin:miter;stroke-miterlimit:282;stroke-dasharray:none;stroke-opacity:1;" />
  <path
     id="path9"
     d="  M 1955.392,1853.1942   L 2092.8485,1853.1942   L 2092.8485,1927.4358   L 1955.392,1927.4358   z "
     style="fill:#ff0000;fill-rule:nonzero;fill-opacity:1;stroke:#ff0000;stroke-width:9.5539856px;stroke-linecap:butt;stroke-linejoin:miter;stroke-miterlimit:282;stroke-dasharray:none;stroke-opacity:1;" />
  <path
     id="path11"
     d="  M 2024.6489,1832.2358   L 2024.6489,1949.4893   z "
     style="fill:#ff0000;fill-rule:nonzero;fill-opacity:1;stroke:#ff0000;stroke-width:9.5539856px;stroke-linecap:butt;stroke-linejoin:miter;stroke-miterlimit:282;stroke-dasharray:none;stroke-opacity:1;" />
  <path
     id="path13"
     d="  M 1977.521,1994.9935   L 1988.019,1993.9739   C 1988.661,1997.4858 1989.9449,2000.0914 1991.8708,2001.7152   C 1993.7967,2003.3768 1996.4024,2004.2076 1999.6877,2004.2076   C 2003.1619,2004.2076 2005.7675,2003.4523 2007.5424,2002.0174   C 2009.2795,2000.5446 2010.1858,1998.8075 2010.1858,1996.8438   C 2010.1858,1995.5977 2009.8082,1994.5026 2009.0529,1993.634   C 2008.2976,1992.7277 2007.0137,1991.9724 2005.1633,1991.2927   C 2003.9172,1990.8773 2001.0472,1990.0843 1996.5534,1988.9892   C 1990.7757,1987.5542 1986.6973,1985.7794 1984.3938,1983.7024   C 1981.1084,1980.7569 1979.4469,1977.1694 1979.4469,1972.94   C 1979.4469,1970.2211 1980.2399,1967.691 1981.7882,1965.3119   C 1983.2987,1962.9329 1985.5267,1961.158 1988.4344,1959.9118   C 1991.3422,1958.6657 1994.8541,1958.0615 1998.9325,1958.0615   C 2005.6543,1958.0615 2010.7145,1959.5342 2014.0754,1962.4419   C 2017.474,1965.3874 2019.2489,1969.3148 2019.4377,1974.2239   L 2008.6375,1974.7149   C 2008.1844,1971.9582 2007.2025,1969.9945 2005.6543,1968.7861   C 2004.1437,1967.5777 2001.878,1966.9735 1998.8569,1966.9735   C 1995.7226,1966.9735 1993.2681,1967.6154 1991.4932,1968.8994   C 1990.3226,1969.7302 1989.7561,1970.8253 1989.7561,1972.2225   C 1989.7561,1973.4687 1990.2848,1974.5638 1991.3799,1975.4701   C 1992.7394,1976.603 1996.0247,1977.8114 2001.2738,1979.0198   C 2006.5228,1980.266 2010.4124,1981.5499 2012.9047,1982.8716   C 2015.4348,1984.1933 2017.3985,1986.0059 2018.8335,1988.3095   C 2020.2307,1990.613 2020.9482,1993.4452 2020.9482,1996.8061   C 2020.9482,1999.8649 2020.1174,2002.7348 2018.4181,2005.416   C 2016.7187,2008.0594 2014.3019,2010.0608 2011.2054,2011.3448   C 2008.0711,2012.6665 2004.2193,2013.3084 1999.5744,2013.3084   C 1992.8149,2013.3084 1987.6414,2011.7602 1984.0162,2008.6258   C 1980.3909,2005.4915 1978.2385,2000.96 1977.521,1994.9935   z "
     style="fill:#ff0000;fill-rule:nonzero;fill-opacity:1;stroke:none;" />
  <path
     id="path15"
     d="  M 2027.3679,1994.9935   L 2037.8659,1993.9739   C 2038.4701,1997.4858 2039.754,2000.0914 2041.68,2001.7152   C 2043.6436,2003.3768 2046.2492,2004.2076 2049.4968,2004.2076   C 2052.971,2004.2076 2055.6144,2003.4523 2057.3515,2002.0174   C 2059.1264,2000.5446 2059.9949,1998.8075 2059.9949,1996.8438   C 2059.9949,1995.5977 2059.6173,1994.5026 2058.8998,1993.634   C 2058.1445,1992.7277 2056.8606,1991.9724 2055.0102,1991.2927   C 2053.764,1990.8773 2050.8563,1990.0843 2046.3625,1988.9892   C 2040.5848,1987.5542 2036.5442,1985.7794 2034.2029,1983.7024   C 2030.9176,1980.7569 2029.2938,1977.1694 2029.2938,1972.94   C 2029.2938,1970.2211 2030.049,1967.691 2031.5973,1965.3119   C 2033.1456,1962.9329 2035.3736,1961.158 2038.2813,1959.9118   C 2041.189,1958.6657 2044.6632,1958.0615 2048.7794,1958.0615   C 2055.5011,1958.0615 2060.5236,1959.5342 2063.9222,1962.4419   C 2067.3209,1965.3874 2069.0957,1969.3148 2069.2468,1974.2239   L 2058.4844,1974.7149   C 2057.9935,1971.9582 2057.0116,1969.9945 2055.5011,1968.7861   C 2053.9906,1967.5777 2051.7249,1966.9735 2048.6661,1966.9735   C 2045.5318,1966.9735 2043.0772,1967.6154 2041.3023,1968.8994   C 2040.1694,1969.7302 2039.603,1970.8253 2039.603,1972.2225   C 2039.603,1973.4687 2040.1317,1974.5638 2041.189,1975.4701   C 2042.5485,1976.603 2045.8716,1977.8114 2051.1206,1979.0198   C 2056.3697,1980.266 2060.2215,1981.5499 2062.7516,1982.8716   C 2065.2817,1984.1933 2067.2454,1986.0059 2068.6426,1988.3095   C 2070.0776,1990.613 2070.7951,1993.4452 2070.7951,1996.8061   C 2070.7951,1999.8649 2069.9265,2002.7348 2068.2272,2005.416   C 2066.5279,2008.0594 2064.111,2010.0608 2061.0145,2011.3448   C 2057.918,2012.6665 2054.0284,2013.3084 2049.3836,2013.3084   C 2042.6618,2013.3084 2037.4505,2011.7602 2033.8631,2008.6258   C 2030.2378,2005.4915 2028.0476,2000.96 2027.3679,1994.9935   z "
     style="fill:#ff0000;fill-rule:nonzero;fill-opacity:1;stroke:none;" />
</svg>
