<?xml version="1.0" encoding="UTF-8" standalone="no"?>
<svg
   xmlns:dc="http://purl.org/dc/elements/1.1/"
   xmlns:cc="http://creativecommons.org/ns#"
   xmlns:rdf="http://www.w3.org/1999/02/22-rdf-syntax-ns#"
   xmlns:svg="http://www.w3.org/2000/svg"
   xmlns="http://www.w3.org/2000/svg"
   id="svg17"
   height="125.53mm"
   width="95.75mm"
   version="1.0">
  <metadata
     id="metadata21">
    <rdf:RDF>
      <cc:Work
         rdf:about="">
        <dc:format>image/svg+xml</dc:format>
        <dc:type
           rdf:resource="http://purl.org/dc/dcmitype/StillImage" />
      </cc:Work>
    </rdf:RDF>
  </metadata>
  <defs
     id="defs3">
    <pattern
       y="0"
       x="0"
       height="6"
       width="6"
       patternUnits="userSpaceOnUse"
       id="EMFhbasepattern" />
  </defs>
  <path
     id="path5"
     d="  M 54.345381,54.345381   C 54.345381,419.73815 307.53092,419.73815 307.53092,54.345381   z "
     style="fill:#80e0ff;fill-rule:evenodd;fill-opacity:1;stroke:none;" />
  <path
     id="path7"
     d="  M 54.345381,54.345381   C 54.345381,419.73815 307.53092,419.73815 307.53092,54.345381  "
     style="fill:none;stroke:#000000;stroke-width:9.5903616px;stroke-linecap:butt;stroke-linejoin:miter;stroke-miterlimit:10;stroke-dasharray:none;stroke-opacity:1;" />
  <path
     id="path9"
     d="  M 124.35502,132.02731   C 124.35502,190.24879 156.08313,211.42751 209.02992,206.11285  "
     style="fill:none;stroke:#000000;stroke-width:10.589357px;stroke-linecap:butt;stroke-linejoin:miter;stroke-miterlimit:10;stroke-dasharray:none;stroke-opacity:1;" />
  <path
     id="path11"
     d="  M 129.62972,169.07008   L 129.62972,169.07008   L 187.8512,126.71265   L 187.8512,169.07008   L 246.11265,126.71265  "
     style="fill:none;stroke:#000000;stroke-width:10.589357px;stroke-linecap:butt;stroke-linejoin:miter;stroke-miterlimit:10;stroke-dasharray:none;stroke-opacity:1;" />
  <path
     id="path13"
     d="  M 73.246384,170.90823   L 78.401204,170.46867   C 78.640963,172.50662 79.2004,174.2249 80.079517,175.54357   C 80.998593,176.86225 82.357228,177.9012 84.23534,178.74036   C 86.113453,179.53956 88.231324,179.93915 90.548995,179.93915   C 92.626906,179.93915 94.465059,179.65944 96.063452,179.02008   C 97.661846,178.42068 98.860641,177.54156 99.619878,176.50261   C 100.41907,175.42369 100.77871,174.2249 100.77871,172.94618   C 100.77871,171.66747 100.41907,170.54859 99.659838,169.58956   C 98.900601,168.59056 97.661846,167.79136 95.943573,167.15201   C 94.864657,166.71245 92.387147,166.03313 88.630922,165.11405   C 84.834738,164.23494 82.197388,163.35582 80.678914,162.55662   C 78.720882,161.51767 77.242368,160.23895 76.283332,158.72048   C 75.324296,157.20201 74.844778,155.48373 74.844778,153.60562   C 74.844778,151.52771 75.404216,149.56968 76.603011,147.77148   C 77.761846,145.97329 79.520079,144.5747 81.75783,143.65562   C 84.035541,142.69658 86.553011,142.25703 89.31024,142.25703   C 92.387147,142.25703 95.064456,142.73654 97.382127,143.73554   C 99.739758,144.69458 101.53795,146.13313 102.77671,148.0512   C 104.05542,149.96927 104.69478,152.12711 104.81466,154.56466   L 99.579918,154.96425   C 99.300199,152.32691 98.341163,150.36887 96.74277,149.0502   C 95.104416,147.73152 92.706826,147.05221 89.549999,147.05221   C 86.233332,147.05221 83.835742,147.6516 82.357228,148.8504   C 80.838754,150.08915 80.079517,151.52771 80.079517,153.24598   C 80.079517,154.7245 80.598995,155.92329 81.67791,156.88233   C 82.716866,157.84136 85.474095,158.84036 89.909637,159.83936   C 94.345179,160.83835 97.382127,161.71747 99.02048,162.43674   C 101.41807,163.55562 103.1763,164.95421 104.33514,166.63253   C 105.45401,168.3508 106.05341,170.30883 106.05341,172.50662   C 106.05341,174.70442 105.41405,176.78233 104.1753,178.7004   C 102.89658,180.65843 101.09839,182.13695 98.740762,183.21586   C 96.383131,184.29478 93.745782,184.85421 90.828714,184.85421   C 87.072489,184.85421 83.955621,184.29478 81.438151,183.21586   C 78.920682,182.13695 76.962649,180.49859 75.524095,178.3008   C 74.085541,176.14297 73.326304,173.66546 73.246384,170.90823   z "
     style="fill:#000000;fill-rule:evenodd;fill-opacity:1;stroke:none;" />
  <path
     id="path15"
     d="  M 250.66807,170.90823   L 255.82289,170.46867   C 256.06265,172.50662 256.62208,174.2249 257.5012,175.54357   C 258.42028,176.86225 259.77891,177.9012 261.65702,178.74036   C 263.53514,179.53956 265.65301,179.93915 267.97068,179.93915   C 270.04859,179.93915 271.88674,179.65944 273.48514,179.02008   C 275.08353,178.42068 276.28233,177.54156 277.04156,176.50261   C 277.84076,175.42369 278.2004,174.2249 278.2004,172.94618   C 278.2004,171.66747 277.84076,170.54859 277.08152,169.58956   C 276.32229,168.59056 275.08353,167.79136 273.36526,167.15201   C 272.28634,166.71245 269.80883,166.03313 266.05261,165.11405   C 262.25642,164.23494 259.61907,163.35582 258.1006,162.55662   C 256.14257,161.51767 254.66405,160.23895 253.70502,158.72048   C 252.74598,157.20201 252.26646,155.48373 252.26646,153.60562   C 252.26646,151.52771 252.8259,149.56968 254.0247,147.77148   C 255.18353,145.97329 256.94176,144.5747 259.17951,143.65562   C 261.45723,142.69658 263.97469,142.25703 266.73192,142.25703   C 269.80883,142.25703 272.48614,142.73654 274.80381,143.73554   C 277.16144,144.69458 278.95963,146.13313 280.19839,148.0512   C 281.4771,149.96927 282.11646,152.12711 282.23634,154.56466   L 277.0016,154.96425   C 276.72188,152.32691 275.76285,150.36887 274.16445,149.0502   C 272.5261,147.73152 270.12851,147.05221 266.97168,147.05221   C 263.65502,147.05221 261.25743,147.6516 259.77891,148.8504   C 258.26044,150.08915 257.5012,151.52771 257.5012,153.24598   C 257.5012,154.7245 258.02068,155.92329 259.09959,156.88233   C 260.13855,157.84136 262.89578,158.84036 267.33132,159.83936   C 271.76686,160.83835 274.80381,161.71747 276.44216,162.43674   C 278.83976,163.55562 280.59799,164.95421 281.75682,166.63253   C 282.8757,168.3508 283.4751,170.30883 283.4751,172.50662   C 283.4751,174.70442 282.83574,176.78233 281.59698,178.7004   C 280.31827,180.65843 278.52008,182.13695 276.16245,183.21586   C 273.80482,184.29478 271.16747,184.85421 268.2504,184.85421   C 264.49417,184.85421 261.37731,184.29478 258.85984,183.21586   C 256.34237,182.13695 254.38433,180.49859 252.94578,178.3008   C 251.50723,176.14297 250.74799,173.66546 250.66807,170.90823   z "
     style="fill:#000000;fill-rule:evenodd;fill-opacity:1;stroke:none;" />
</svg>
