<?xml version="1.0" encoding="UTF-8" standalone="no"?>
<svg
   xmlns:dc="http://purl.org/dc/elements/1.1/"
   xmlns:cc="http://creativecommons.org/ns#"
   xmlns:rdf="http://www.w3.org/1999/02/22-rdf-syntax-ns#"
   xmlns:svg="http://www.w3.org/2000/svg"
   xmlns="http://www.w3.org/2000/svg"
   id="svg19"
   height="125.53mm"
   width="95.75mm"
   version="1.0">
  <metadata
     id="metadata23">
    <rdf:RDF>
      <cc:Work
         rdf:about="">
        <dc:format>image/svg+xml</dc:format>
        <dc:type
           rdf:resource="http://purl.org/dc/dcmitype/StillImage" />
      </cc:Work>
    </rdf:RDF>
  </metadata>
  <defs
     id="defs3">
    <pattern
       y="0"
       x="0"
       height="6"
       width="6"
       patternUnits="userSpaceOnUse"
       id="EMFhbasepattern" />
  </defs>
  <path
     id="path5"
     d="  M 307.53092,420.05783   C 307.53092,54.665059 54.345381,54.665059 54.345381,420.05783   z "
     style="fill:#80e0ff;fill-rule:evenodd;fill-opacity:1;stroke:none;" />
  <path
     id="path7"
     d="  M 307.53092,420.05783   C 307.53092,54.665059 54.345381,54.665059 54.345381,420.05783  "
     style="fill:none;stroke:#000000;stroke-width:9.5903616px;stroke-linecap:butt;stroke-linejoin:miter;stroke-miterlimit:10;stroke-dasharray:none;stroke-opacity:1;" />
  <path
     id="path9"
     d="  M 166.55261,271.40722   L 166.55261,271.40722   L 166.55261,218.66024   L 180.93815,194.68433   L 195.32369,218.66024   L 195.32369,271.40722   z "
     style="fill:#ffff80;fill-rule:evenodd;fill-opacity:1;stroke:none;" />
  <path
     id="path11"
     d="  M 166.55261,271.40722   L 166.55261,271.40722   L 166.55261,218.66024   L 180.93815,194.68433   L 195.32369,218.66024   L 195.32369,271.40722  "
     style="fill:none;stroke:#000000;stroke-width:9.5903616px;stroke-linecap:butt;stroke-linejoin:miter;stroke-miterlimit:10;stroke-dasharray:none;stroke-opacity:1;" />
  <path
     id="path13"
     d="  M 195.32369,343.33493   L 195.32369,343.33493   L 195.32369,357.72048   L 209.70923,372.10602   L 209.70923,400.8771   L 180.93815,372.10602   L 152.16707,400.8771   L 152.16707,372.10602   L 166.55261,357.72048   L 166.55261,343.33493   z "
     style="fill:#ffff80;fill-rule:evenodd;fill-opacity:1;stroke:none;" />
  <path
     id="path15"
     d="  M 195.32369,343.33493   L 195.32369,343.33493   L 195.32369,357.72048   L 209.70923,372.10602   L 209.70923,400.8771   L 180.93815,372.10602   L 152.16707,400.8771   L 152.16707,372.10602   L 166.55261,357.72048   L 166.55261,343.33493  "
     style="fill:none;stroke:#000000;stroke-width:9.5903616px;stroke-linecap:butt;stroke-linejoin:miter;stroke-miterlimit:10;stroke-dasharray:none;stroke-opacity:1;" />
  <path
     id="path17"
     d="  M 100.41907,307.6508   L 108.17128,306.97148   C 108.53092,310.08835 109.37008,312.60582 110.68875,314.60381   C 112.04739,316.56184 114.1253,318.16024 116.92249,319.39899   C 119.71968,320.59779 122.8765,321.23714 126.39297,321.23714   C 129.50984,321.23714 132.26707,320.75763 134.66466,319.83855   C 137.06225,318.91947 138.82048,317.64076 139.97932,316.04236   C 141.17811,314.40401 141.73755,312.64578 141.73755,310.72771   C 141.73755,308.80963 141.17811,307.09136 140.05923,305.65281   C 138.94036,304.21425 137.06225,302.9755 134.50482,302.01646   C 132.8265,301.3771 129.1502,300.37811 123.4759,298.97951   C 117.8016,297.62088 113.84558,296.34216 111.56787,295.14337   C 108.61084,293.58494 106.41305,291.66686 104.9745,289.38915   C 103.53594,287.11144 102.81667,284.51405 102.81667,281.6769   C 102.81667,278.56004 103.69578,275.68293 105.45401,272.96566   C 107.21225,270.24839 109.80964,268.17048 113.20622,266.77188   C 116.60281,265.37329 120.39899,264.65401 124.55482,264.65401   C 129.11024,264.65401 133.14618,265.41325 136.66265,266.89176   C 140.17911,268.37028 142.85642,270.52811 144.73454,273.40522   C 146.61265,276.24237 147.61164,279.51907 147.77148,283.11546   L 139.93936,283.71486   C 139.4998,279.79879 138.1012,276.88172 135.66365,274.88373   C 133.2261,272.88574 129.62972,271.88674 124.8745,271.88674   C 119.91948,271.88674 116.32309,272.76586 114.08534,274.60401   C 111.80763,276.4022 110.68875,278.6 110.68875,281.15743   C 110.68875,283.35522 111.48795,285.19337 113.08634,286.63192   C 114.64478,288.07048 118.76064,289.54899 125.39397,291.02751   C 132.06727,292.54598 136.62269,293.86465 139.1002,294.98353   C 142.69658,296.62188 145.33393,298.73975 147.05221,301.25722   C 148.77048,303.81465 149.60964,306.73172 149.60964,310.04839   C 149.60964,313.36506 148.69056,316.44196 146.81245,319.35903   C 144.93434,322.2761 142.21707,324.51385 138.7006,326.1522   C 135.14417,327.7506 131.18815,328.54979 126.79257,328.54979   C 121.19819,328.54979 116.52289,327.7506 112.72671,326.11224   C 108.93052,324.47389 105.97349,322.03634 103.81566,318.75963   C 101.69779,315.48293 100.53895,311.80662 100.41907,307.6508   z  M 201.31767,265.73293   L 209.50943,265.73293   L 209.50943,301.41706   C 209.50943,307.61084 208.79016,312.56586 207.39156,316.2022   C 205.99297,319.87851 203.4755,322.83554 199.79919,325.11325   C 196.12289,327.43092 191.32771,328.54979 185.37369,328.54979   C 179.57952,328.54979 174.82429,327.5508 171.14799,325.55281   C 167.47168,323.59477 164.83433,320.67771 163.2759,316.92148   C 161.71747,313.1253 160.91827,307.97048 160.91827,301.41706   L 160.91827,265.73293   L 169.11004,265.73293   L 169.11004,301.3771   C 169.11004,306.73172 169.58956,310.68775 170.58855,313.24518   C 171.58755,315.80261 173.30582,317.76064 175.74337,319.11927   C 178.18092,320.51787 181.13795,321.19718 184.65442,321.19718   C 190.64839,321.19718 194.96405,319.83855 197.48152,317.08132   C 200.03895,314.36405 201.31767,309.12931 201.31767,301.3771   z  M 220.33855,307.6508   L 228.0508,306.97148   C 228.41044,310.08835 229.28955,312.60582 230.60823,314.60381   C 231.9269,316.56184 234.00482,318.16024 236.802,319.39899   C 239.63915,320.59779 242.79598,321.23714 246.31245,321.23714   C 249.42931,321.23714 252.18654,320.75763 254.54417,319.83855   C 256.94176,318.91947 258.73996,317.64076 259.89879,316.04236   C 261.05763,314.40401 261.65702,312.64578 261.65702,310.72771   C 261.65702,308.80963 261.09759,307.09136 259.93875,305.65281   C 258.81988,304.21425 256.98172,302.9755 254.38433,302.01646   C 252.74598,301.3771 249.06968,300.37811 243.39538,298.97951   C 237.72108,297.62088 233.7251,296.34216 231.48735,295.14337   C 228.53032,293.58494 226.33253,291.66686 224.85401,289.38915   C 223.41546,287.11144 222.69618,284.51405 222.69618,281.6769   C 222.69618,278.56004 223.5753,275.68293 225.37349,272.96566   C 227.13172,270.24839 229.72911,268.17048 233.1257,266.77188   C 236.52229,265.37329 240.27851,264.65401 244.43433,264.65401   C 249.02972,264.65401 253.06566,265.41325 256.58212,266.89176   C 260.05863,268.37028 262.73594,270.52811 264.65401,273.40522   C 266.53212,276.24237 267.53112,279.51907 267.651,283.11546   L 259.81887,283.71486   C 259.41927,279.79879 257.98072,276.88172 255.54317,274.88373   C 253.14558,272.88574 249.54919,271.88674 244.79397,271.88674   C 239.83895,271.88674 236.24257,272.76586 233.96486,274.60401   C 231.72711,276.4022 230.56827,278.6 230.56827,281.15743   C 230.56827,283.35522 231.36747,285.19337 232.96586,286.63192   C 234.56425,288.07048 238.68012,289.54899 245.31345,291.02751   C 251.94678,292.54598 256.50221,293.86465 258.97972,294.98353   C 262.5761,296.62188 265.25341,298.73975 266.97168,301.25722   C 268.65,303.81465 269.52911,306.73172 269.52911,310.04839   C 269.52911,313.36506 268.57008,316.44196 266.69196,319.35903   C 264.81385,322.2761 262.09658,324.51385 258.58012,326.1522   C 255.06365,327.7506 251.10763,328.54979 246.67208,328.54979   C 241.07771,328.54979 236.40241,327.7506 232.64618,326.11224   C 228.85,324.47389 225.89297,322.03634 223.73514,318.75963   C 221.57731,315.48293 220.45843,311.80662 220.33855,307.6508   z "
     style="fill:#000000;fill-rule:evenodd;fill-opacity:1;stroke:none;" />
</svg>
