<?xml version="1.0" encoding="UTF-8" standalone="no"?>
<svg
   xmlns:dc="http://purl.org/dc/elements/1.1/"
   xmlns:cc="http://creativecommons.org/ns#"
   xmlns:rdf="http://www.w3.org/1999/02/22-rdf-syntax-ns#"
   xmlns:svg="http://www.w3.org/2000/svg"
   xmlns="http://www.w3.org/2000/svg"
   id="svg25"
   height="116.05mm"
   width="135.35001mm"
   version="1.0">
  <metadata
     id="metadata29">
    <rdf:RDF>
      <cc:Work
         rdf:about="">
        <dc:format>image/svg+xml</dc:format>
        <dc:type
           rdf:resource="http://purl.org/dc/dcmitype/StillImage" />
      </cc:Work>
    </rdf:RDF>
  </metadata>
  <defs
     id="defs3">
    <pattern
       y="0"
       x="0"
       height="6"
       width="6"
       patternUnits="userSpaceOnUse"
       id="EMFhbasepattern" />
  </defs>
  <path
     id="path5"
     d="  M 174.2249,54.345381   C 54.345381,54.345381 54.345381,250.94779 174.2249,250.94779   C 174.2249,384.25381 337.26104,384.25381 337.26104,250.94779   C 457.14056,250.94779 457.14056,54.345381 337.26104,54.345381   z "
     style="fill:#ffff80;fill-rule:evenodd;fill-opacity:1;stroke:none;" />
  <path
     id="path7"
     d="  M 174.2249,54.345381   C 54.345381,54.345381 54.345381,250.94779 174.2249,250.94779   C 174.2249,384.25381 337.26104,384.25381 337.26104,250.94779   C 457.14056,250.94779 457.14056,54.345381 337.26104,54.345381  "
     style="fill:none;stroke:#000000;stroke-width:9.5903616px;stroke-linecap:butt;stroke-linejoin:miter;stroke-miterlimit:10;stroke-dasharray:none;stroke-opacity:1;" />
  <path
     id="path9"
     d="  M 229.84899,270.12851   L 280.67791,270.12851  "
     style="fill:none;stroke:#000000;stroke-width:9.5903616px;stroke-linecap:butt;stroke-linejoin:miter;stroke-miterlimit:10;stroke-dasharray:none;stroke-opacity:1;" />
  <path
     id="path11"
     d="  M 255.74297,270.12851   L 255.74297,150.24899  "
     style="fill:none;stroke:#000000;stroke-width:9.5903616px;stroke-linecap:butt;stroke-linejoin:miter;stroke-miterlimit:10;stroke-dasharray:none;stroke-opacity:1;" />
  <path
     id="path13"
     d="  M 246.15261,132.02731   L 209.70923,119.55984   L 220.25863,103.25622   L 186.69237,92.706826  "
     style="fill:none;stroke:#000000;stroke-width:9.5903616px;stroke-linecap:butt;stroke-linejoin:miter;stroke-miterlimit:10;stroke-dasharray:none;stroke-opacity:1;" />
  <path
     id="path15"
     d="  M 265.33333,132.02731   L 301.7767,119.55984   L 291.22731,103.25622   L 324.79357,92.706826  "
     style="fill:none;stroke:#000000;stroke-width:9.5903616px;stroke-linecap:butt;stroke-linejoin:miter;stroke-miterlimit:10;stroke-dasharray:none;stroke-opacity:1;" />
  <path
     id="path17"
     d="  M 246.15261,145.45381   L 209.70923,158.88032   L 220.25863,174.2249   L 186.69237,185.73333  "
     style="fill:none;stroke:#000000;stroke-width:9.5903616px;stroke-linecap:butt;stroke-linejoin:miter;stroke-miterlimit:10;stroke-dasharray:none;stroke-opacity:1;" />
  <path
     id="path19"
     d="  M 265.33333,145.45381   L 301.7767,158.88032   L 291.22731,174.2249   L 324.79357,185.73333  "
     style="fill:none;stroke:#000000;stroke-width:9.5903616px;stroke-linecap:butt;stroke-linejoin:miter;stroke-miterlimit:10;stroke-dasharray:none;stroke-opacity:1;" />
  <path
     id="path21"
     d="  M 200.79819,227.49136   L 205.95301,227.0518   C 206.19277,229.08976 206.75221,230.80803 207.63132,232.1267   C 208.5504,233.44538 209.90903,234.48433 211.78715,235.32349   C 213.66526,236.12269 215.78313,236.52229 218.1008,236.52229   C 220.17871,236.52229 222.01686,236.24257 223.61526,235.60321   C 225.21365,235.00381 226.41245,234.1247 227.17168,233.08574   C 227.97088,232.00682 228.33052,230.80803 228.33052,229.52931   C 228.33052,228.2506 227.97088,227.13172 227.21164,226.17269   C 226.45241,225.17369 225.21365,224.37449 223.49538,223.73514   C 222.41646,223.29558 219.93895,222.61626 216.18273,221.69719   C 212.38654,220.81807 209.74919,219.93895 208.23072,219.13976   C 206.27269,218.1008 204.79417,216.82209 203.83514,215.30361   C 202.8761,213.78514 202.39658,212.06686 202.39658,210.18875   C 202.39658,208.11084 202.95602,206.15281 204.15482,204.35462   C 205.31365,202.55642 207.07188,201.15783 209.30964,200.23875   C 211.58735,199.27972 214.10482,198.84016 216.86205,198.84016   C 219.93895,198.84016 222.61626,199.31968 224.93393,200.31867   C 227.29156,201.27771 229.08976,202.71626 230.32851,204.63433   C 231.60723,206.55241 232.24658,208.71024 232.36646,211.14779   L 227.13172,211.54739   C 226.852,208.91004 225.89297,206.95201 224.29458,205.63333   C 222.65622,204.31466 220.25863,203.63534 217.1018,203.63534   C 213.78514,203.63534 211.38755,204.23474 209.90903,205.43353   C 208.39056,206.67229 207.63132,208.11084 207.63132,209.82911   C 207.63132,211.30763 208.1508,212.50642 209.22972,213.46546   C 210.26867,214.42449 213.0259,215.42349 217.46144,216.42249   C 221.89698,217.42148 224.93393,218.3006 226.57229,219.01988   C 228.96988,220.13875 230.72811,221.53735 231.88694,223.21566   C 233.00582,224.93393 233.60522,226.89196 233.60522,229.08976   C 233.60522,231.28755 232.96586,233.36546 231.72711,235.28353   C 230.44839,237.24156 228.6502,238.72008 226.29257,239.79899   C 223.93494,240.87791 221.29759,241.43735 218.38052,241.43735   C 214.62429,241.43735 211.50743,240.87791 208.98996,239.79899   C 206.47249,238.72008 204.51445,237.08172 203.0759,234.88393   C 201.63735,232.7261 200.87811,230.24859 200.79819,227.49136   z "
     style="fill:#000000;fill-rule:evenodd;fill-opacity:1;stroke:none;" />
  <path
     id="path23"
     d="  M 306.41204,199.51948   L 311.84658,199.51948   L 311.84658,223.33554   C 311.84658,227.4514 311.40702,230.76807 310.44799,233.20562   C 309.52891,235.64317 307.81064,237.6012 305.37309,239.11968   C 302.93554,240.67811 299.73875,241.43735 295.74277,241.43735   C 291.90662,241.43735 288.7498,240.75803 286.31224,239.43935   C 283.83473,238.08072 282.0765,236.16265 281.03755,233.64518   C 279.99859,231.12771 279.47911,227.69116 279.47911,223.33554   L 279.47911,199.51948   L 284.91365,199.51948   L 284.91365,223.29558   C 284.91365,226.89196 285.23333,229.52931 285.91265,231.20763   C 286.59196,232.9259 287.71084,234.20462 289.34919,235.12369   C 290.94759,236.04277 292.94558,236.52229 295.30321,236.52229   C 299.29919,236.52229 302.13634,235.60321 303.85461,233.76506   C 305.57289,231.96686 306.41204,228.49036 306.41204,223.29558   z "
     style="fill:#000000;fill-rule:evenodd;fill-opacity:1;stroke:none;" />
</svg>
