<?xml version="1.0" encoding="UTF-8" standalone="no"?>
<svg
   xmlns:dc="http://purl.org/dc/elements/1.1/"
   xmlns:cc="http://creativecommons.org/ns#"
   xmlns:rdf="http://www.w3.org/1999/02/22-rdf-syntax-ns#"
   xmlns:svg="http://www.w3.org/2000/svg"
   xmlns="http://www.w3.org/2000/svg"
   id="svg25"
   height="101.85mm"
   width="95.75mm"
   version="1.0">
  <metadata
     id="metadata29">
    <rdf:RDF>
      <cc:Work
         rdf:about="">
        <dc:format>image/svg+xml</dc:format>
        <dc:type
           rdf:resource="http://purl.org/dc/dcmitype/StillImage" />
      </cc:Work>
    </rdf:RDF>
  </metadata>
  <defs
     id="defs3">
    <pattern
       y="0"
       x="0"
       height="6"
       width="6"
       patternUnits="userSpaceOnUse"
       id="EMFhbasepattern" />
  </defs>
  <path
     id="path5"
     d="  M 54.345381,54.345381   L 54.345381,330.54779   L 307.53092,330.54779   L 307.53092,54.345381   L 54.345381,54.345381   z "
     style="fill:#aaffaa;fill-rule:evenodd;fill-opacity:1;stroke:none;" />
  <path
     id="path7"
     d="  M 307.53092,54.345381   L 307.53092,330.54779   L 54.345381,330.54779   L 54.345381,54.345381  "
     style="fill:none;stroke:#000000;stroke-width:9.5903616px;stroke-linecap:butt;stroke-linejoin:miter;stroke-miterlimit:10;stroke-dasharray:none;stroke-opacity:1;" />
  <path
     id="path9"
     d="  M 155.04417,270.12851   L 205.87309,270.12851  "
     style="fill:none;stroke:#000000;stroke-width:9.5903616px;stroke-linecap:butt;stroke-linejoin:miter;stroke-miterlimit:10;stroke-dasharray:none;stroke-opacity:1;" />
  <path
     id="path11"
     d="  M 180.93815,270.12851   L 180.93815,150.24899  "
     style="fill:none;stroke:#000000;stroke-width:9.5903616px;stroke-linecap:butt;stroke-linejoin:miter;stroke-miterlimit:10;stroke-dasharray:none;stroke-opacity:1;" />
  <path
     id="path13"
     d="  M 171.34779,132.02731   L 134.90442,119.55984   L 145.45381,103.25622   L 111.88755,92.706826  "
     style="fill:none;stroke:#000000;stroke-width:9.5903616px;stroke-linecap:butt;stroke-linejoin:miter;stroke-miterlimit:10;stroke-dasharray:none;stroke-opacity:1;" />
  <path
     id="path15"
     d="  M 190.52851,132.02731   L 226.97188,119.55984   L 216.42249,103.25622   L 249.98875,92.706826  "
     style="fill:none;stroke:#000000;stroke-width:9.5903616px;stroke-linecap:butt;stroke-linejoin:miter;stroke-miterlimit:10;stroke-dasharray:none;stroke-opacity:1;" />
  <path
     id="path17"
     d="  M 171.34779,145.45381   L 134.90442,158.88032   L 145.45381,174.2249   L 111.88755,185.73333  "
     style="fill:none;stroke:#000000;stroke-width:9.5903616px;stroke-linecap:butt;stroke-linejoin:miter;stroke-miterlimit:10;stroke-dasharray:none;stroke-opacity:1;" />
  <path
     id="path19"
     d="  M 190.52851,145.45381   L 226.97188,158.88032   L 216.42249,174.2249   L 249.98875,185.73333  "
     style="fill:none;stroke:#000000;stroke-width:9.5903616px;stroke-linecap:butt;stroke-linejoin:miter;stroke-miterlimit:10;stroke-dasharray:none;stroke-opacity:1;" />
  <path
     id="path21"
     d="  M 125.99337,227.49136   L 131.14819,227.0518   C 131.38795,229.08976 131.94739,230.80803 132.8265,232.1267   C 133.74558,233.44538 135.10421,234.48433 136.98233,235.32349   C 138.86044,236.12269 140.97831,236.52229 143.29598,236.52229   C 145.37389,236.52229 147.21205,236.24257 148.81044,235.60321   C 150.40883,235.00381 151.60763,234.1247 152.36687,233.08574   C 153.16606,232.00682 153.5257,230.80803 153.5257,229.52931   C 153.5257,228.2506 153.16606,227.13172 152.40683,226.17269   C 151.64759,225.17369 150.40883,224.37449 148.69056,223.73514   C 147.61164,223.29558 145.13413,222.61626 141.37791,221.69719   C 137.58172,220.81807 134.94438,219.93895 133.4259,219.13976   C 131.46787,218.1008 129.98936,216.82209 129.03032,215.30361   C 128.07128,213.78514 127.59177,212.06686 127.59177,210.18875   C 127.59177,208.11084 128.1512,206.15281 129.35,204.35462   C 130.50883,202.55642 132.26707,201.15783 134.50482,200.23875   C 136.78253,199.27972 139.3,198.84016 142.05723,198.84016   C 145.13413,198.84016 147.81144,199.31968 150.12911,200.31867   C 152.48674,201.27771 154.28494,202.71626 155.52369,204.63433   C 156.80241,206.55241 157.44176,208.71024 157.56164,211.14779   L 152.32691,211.54739   C 152.04719,208.91004 151.08815,206.95201 149.48976,205.63333   C 147.8514,204.31466 145.45381,203.63534 142.29699,203.63534   C 138.98032,203.63534 136.58273,204.23474 135.10421,205.43353   C 133.58574,206.67229 132.8265,208.11084 132.8265,209.82911   C 132.8265,211.30763 133.34598,212.50642 134.4249,213.46546   C 135.46385,214.42449 138.22108,215.42349 142.65662,216.42249   C 147.09217,217.42148 150.12911,218.3006 151.76747,219.01988   C 154.16506,220.13875 155.92329,221.53735 157.08213,223.21566   C 158.201,224.93393 158.8004,226.89196 158.8004,229.08976   C 158.8004,231.28755 158.16104,233.36546 156.92229,235.28353   C 155.64357,237.24156 153.84538,238.72008 151.48775,239.79899   C 149.13012,240.87791 146.49277,241.43735 143.5757,241.43735   C 139.81948,241.43735 136.70261,240.87791 134.18514,239.79899   C 131.66767,238.72008 129.70964,237.08172 128.27108,234.88393   C 126.83253,232.7261 126.07329,230.24859 125.99337,227.49136   z "
     style="fill:#000000;fill-rule:evenodd;fill-opacity:1;stroke:none;" />
  <path
     id="path23"
     d="  M 231.60723,199.51948   L 237.04176,199.51948   L 237.04176,223.33554   C 237.04176,227.4514 236.60221,230.76807 235.64317,233.20562   C 234.72409,235.64317 233.00582,237.6012 230.56827,239.11968   C 228.13072,240.67811 224.93393,241.43735 220.93795,241.43735   C 217.1018,241.43735 213.94498,240.75803 211.50743,239.43935   C 209.02992,238.08072 207.27168,236.16265 206.23273,233.64518   C 205.19377,231.12771 204.67429,227.69116 204.67429,223.33554   L 204.67429,199.51948   L 210.10883,199.51948   L 210.10883,223.29558   C 210.10883,226.89196 210.42851,229.52931 211.10783,231.20763   C 211.78715,232.9259 212.90602,234.20462 214.54437,235.12369   C 216.14277,236.04277 218.14076,236.52229 220.49839,236.52229   C 224.49437,236.52229 227.33152,235.60321 229.0498,233.76506   C 230.76807,231.96686 231.60723,228.49036 231.60723,223.29558   z "
     style="fill:#000000;fill-rule:evenodd;fill-opacity:1;stroke:none;" />
</svg>
