<?xml version="1.0" encoding="UTF-8" standalone="no"?>
<svg
   xmlns:dc="http://purl.org/dc/elements/1.1/"
   xmlns:cc="http://creativecommons.org/ns#"
   xmlns:rdf="http://www.w3.org/1999/02/22-rdf-syntax-ns#"
   xmlns:svg="http://www.w3.org/2000/svg"
   xmlns="http://www.w3.org/2000/svg"
   id="svg9"
   height="34.349998mm"
   width="85.949997mm"
   version="1.0">
  <metadata
     id="metadata13">
    <rdf:RDF>
      <cc:Work
         rdf:about="">
        <dc:format>image/svg+xml</dc:format>
        <dc:type
           rdf:resource="http://purl.org/dc/dcmitype/StillImage" />
      </cc:Work>
    </rdf:RDF>
  </metadata>
  <defs
     id="defs3">
    <pattern
       y="0"
       x="0"
       height="6"
       width="6"
       patternUnits="userSpaceOnUse"
       id="EMFhbasepattern" />
  </defs>
  <path
     id="path5"
     d="  M 85.913653,12.187751   L 312.20622,12.187751   L 163.11606,12.187751   L 163.11606,17.582329   C 163.11606,22.577309 158.12108,23.016867 155.84337,26.413453   C 153.5257,29.81004 154.40482,36.443373 156.92229,39.240562   C 166.23293,49.5502 153.04618,54.305421 153.04618,61.218473   C 153.04618,64.33534 157.08213,70.848794 157.08213,74.644979   C 157.08213,78.840762 150.36887,79.560039 150.36887,82.676906   L 150.36887,84.714858   C 150.36887,90.189356 155.08413,93.386143 155.08413,95.464055   C 155.08413,100.77871 150.52871,101.05843 149.28996,108.451   C 147.93132,116.44297 149.25,117.60181 138.94036,117.60181   L 138.301,117.60181   C 132.54679,117.60181 133.14618,111.12831 131.54779,106.89257   C 129.9494,102.73675 123.51586,103.69578 123.51586,96.78273   L 123.51586,95.464055   C 123.51586,93.865661 125.51385,92.786746 125.51385,89.390159   C 125.51385,84.994577 114.76466,85.833734 114.76466,80.678914   C 114.76466,76.76285 116.12329,74.764858 116.12329,71.288352   C 116.12329,64.974698 102.77671,63.695983 103.21626,57.182529   L 104.05542,47.11265   C 101.97751,44.035742 95.304215,39.200602 95.304215,37.042771   L 95.304215,35.684136   C 95.304215,33.646184 95.943573,32.966867 96.183332,31.927911   L 85.913653,12.187751   L 12.027911,12.107831   L 85.913653,12.187751   z "
     style="fill:#1f1a17;fill-rule:evenodd;fill-opacity:1;stroke:none;" />
  <path
     id="path7"
     d="  M 85.913653,12.187751   L 312.20622,12.187751   L 163.11606,12.187751   L 163.11606,17.582329   C 163.11606,22.577309 158.12108,23.016867 155.84337,26.413453   C 153.5257,29.81004 154.40482,36.443373 156.92229,39.240562   C 166.23293,49.5502 153.04618,54.305421 153.04618,61.218473   C 153.04618,64.33534 157.08213,70.848794 157.08213,74.644979   C 157.08213,78.840762 150.36887,79.560039 150.36887,82.676906   L 150.36887,84.714858   C 150.36887,90.189356 155.08413,93.386143 155.08413,95.464055   C 155.08413,100.77871 150.52871,101.05843 149.28996,108.451   C 147.93132,116.44297 149.25,117.60181 138.94036,117.60181   L 138.301,117.60181   C 132.54679,117.60181 133.14618,111.12831 131.54779,106.89257   C 129.9494,102.73675 123.51586,103.69578 123.51586,96.78273   L 123.51586,95.464055   C 123.51586,93.865661 125.51385,92.786746 125.51385,89.390159   C 125.51385,84.994577 114.76466,85.833734 114.76466,80.678914   C 114.76466,76.76285 116.12329,74.764858 116.12329,71.288352   C 116.12329,64.974698 102.77671,63.695983 103.21626,57.182529   L 104.05542,47.11265   C 101.97751,44.035742 95.304215,39.200602 95.304215,37.042771   L 95.304215,35.684136   C 95.304215,33.646184 95.943573,32.966867 96.183332,31.927911   L 85.913653,12.187751   L 12.027911,12.107831   L 85.913653,12.187751   z "
     style="fill:none;stroke:#000000;stroke-width:1.1188755px;stroke-linecap:butt;stroke-linejoin:miter;stroke-miterlimit:10;stroke-dasharray:none;stroke-opacity:1;" />
</svg>
