<?xml version="1.0" encoding="UTF-8" standalone="no"?>
<svg
   xmlns:dc="http://purl.org/dc/elements/1.1/"
   xmlns:cc="http://creativecommons.org/ns#"
   xmlns:rdf="http://www.w3.org/1999/02/22-rdf-syntax-ns#"
   xmlns:svg="http://www.w3.org/2000/svg"
   xmlns="http://www.w3.org/2000/svg"
   id="svg19"
   height="101.85mm"
   width="95.75mm"
   version="1.0">
  <metadata
     id="metadata23">
    <rdf:RDF>
      <cc:Work
         rdf:about="">
        <dc:format>image/svg+xml</dc:format>
        <dc:type
           rdf:resource="http://purl.org/dc/dcmitype/StillImage" />
      </cc:Work>
    </rdf:RDF>
  </metadata>
  <defs
     id="defs3">
    <pattern
       y="0"
       x="0"
       height="6"
       width="6"
       patternUnits="userSpaceOnUse"
       id="EMFhbasepattern" />
  </defs>
  <path
     id="path5"
     d="  M 54.345381,54.345381   L 54.345381,330.54779   L 307.53092,330.54779   L 307.53092,54.345381   L 54.345381,54.345381   z "
     style="fill:#aaffaa;fill-rule:evenodd;fill-opacity:1;stroke:none;" />
  <path
     id="path7"
     d="  M 54.345381,330.54779   L 54.345381,54.345381   L 307.53092,54.345381   L 307.53092,330.54779  "
     style="fill:none;stroke:#000000;stroke-width:9.5903616px;stroke-linecap:butt;stroke-linejoin:miter;stroke-miterlimit:10;stroke-dasharray:none;stroke-opacity:1;" />
  <path
     id="path9"
     d="  M 166.55261,181.89719   L 166.55261,181.89719   L 166.55261,129.1502   L 180.93815,105.1743   L 195.32369,129.1502   L 195.32369,181.89719   z "
     style="fill:#ffff80;fill-rule:evenodd;fill-opacity:1;stroke:none;" />
  <path
     id="path11"
     d="  M 166.55261,181.89719   L 166.55261,181.89719   L 166.55261,129.1502   L 180.93815,105.1743   L 195.32369,129.1502   L 195.32369,181.89719  "
     style="fill:none;stroke:#000000;stroke-width:9.5903616px;stroke-linecap:butt;stroke-linejoin:miter;stroke-miterlimit:10;stroke-dasharray:none;stroke-opacity:1;" />
  <path
     id="path13"
     d="  M 195.32369,253.8249   L 195.32369,253.8249   L 195.32369,268.21044   L 209.70923,282.59598   L 209.70923,311.36706   L 180.93815,282.59598   L 152.16707,311.36706   L 152.16707,282.59598   L 166.55261,268.21044   L 166.55261,253.8249   z "
     style="fill:#ffff80;fill-rule:evenodd;fill-opacity:1;stroke:none;" />
  <path
     id="path15"
     d="  M 195.32369,253.8249   L 195.32369,253.8249   L 195.32369,268.21044   L 209.70923,282.59598   L 209.70923,311.36706   L 180.93815,282.59598   L 152.16707,311.36706   L 152.16707,282.59598   L 166.55261,268.21044   L 166.55261,253.8249  "
     style="fill:none;stroke:#000000;stroke-width:9.5903616px;stroke-linecap:butt;stroke-linejoin:miter;stroke-miterlimit:10;stroke-dasharray:none;stroke-opacity:1;" />
  <path
     id="path17"
     d="  M 100.41907,218.14076   L 108.17128,217.46144   C 108.53092,220.57831 109.37008,223.09578 110.68875,225.09377   C 112.04739,227.0518 114.1253,228.6502 116.92249,229.88895   C 119.71968,231.08775 122.8765,231.72711 126.39297,231.72711   C 129.50984,231.72711 132.26707,231.24759 134.66466,230.32851   C 137.06225,229.40943 138.82048,228.13072 139.97932,226.53233   C 141.17811,224.89397 141.73755,223.13574 141.73755,221.21767   C 141.73755,219.2996 141.17811,217.58132 140.05923,216.14277   C 138.94036,214.70421 137.06225,213.46546 134.50482,212.50642   C 132.8265,211.86707 129.1502,210.86807 123.4759,209.46947   C 117.8016,208.11084 113.84558,206.83213 111.56787,205.63333   C 108.61084,204.0749 106.41305,202.15682 104.9745,199.87911   C 103.53594,197.6014 102.81667,195.00401 102.81667,192.16686   C 102.81667,189.05 103.69578,186.17289 105.45401,183.45562   C 107.21225,180.73835 109.80964,178.66044 113.20622,177.26184   C 116.60281,175.86325 120.39899,175.14397 124.55482,175.14397   C 129.11024,175.14397 133.14618,175.90321 136.66265,177.38172   C 140.17911,178.86024 142.85642,181.01807 144.73454,183.89518   C 146.61265,186.73233 147.61164,190.00903 147.77148,193.60542   L 139.93936,194.20482   C 139.4998,190.28875 138.1012,187.37168 135.66365,185.37369   C 133.2261,183.3757 129.62972,182.3767 124.8745,182.3767   C 119.91948,182.3767 116.32309,183.25582 114.08534,185.09397   C 111.80763,186.89217 110.68875,189.08996 110.68875,191.64739   C 110.68875,193.84518 111.48795,195.68333 113.08634,197.12188   C 114.64478,198.56044 118.76064,200.03895 125.39397,201.51747   C 132.06727,203.03594 136.62269,204.35462 139.1002,205.47349   C 142.69658,207.11184 145.33393,209.22972 147.05221,211.74719   C 148.77048,214.30462 149.60964,217.22168 149.60964,220.53835   C 149.60964,223.85502 148.69056,226.93192 146.81245,229.84899   C 144.93434,232.76606 142.21707,235.00381 138.7006,236.64217   C 135.14417,238.24056 131.18815,239.03976 126.79257,239.03976   C 121.19819,239.03976 116.52289,238.24056 112.72671,236.60221   C 108.93052,234.96385 105.97349,232.5263 103.81566,229.2496   C 101.69779,225.97289 100.53895,222.29658 100.41907,218.14076   z  M 201.31767,176.22289   L 209.50943,176.22289   L 209.50943,211.90703   C 209.50943,218.1008 208.79016,223.05582 207.39156,226.69217   C 205.99297,230.36847 203.4755,233.3255 199.79919,235.60321   C 196.12289,237.92088 191.32771,239.03976 185.37369,239.03976   C 179.57952,239.03976 174.82429,238.04076 171.14799,236.04277   C 167.47168,234.08474 164.83433,231.16767 163.2759,227.41144   C 161.71747,223.61526 160.91827,218.46044 160.91827,211.90703   L 160.91827,176.22289   L 169.11004,176.22289   L 169.11004,211.86707   C 169.11004,217.22168 169.58956,221.17771 170.58855,223.73514   C 171.58755,226.29257 173.30582,228.2506 175.74337,229.60923   C 178.18092,231.00783 181.13795,231.68715 184.65442,231.68715   C 190.64839,231.68715 194.96405,230.32851 197.48152,227.57128   C 200.03895,224.85401 201.31767,219.61927 201.31767,211.86707   z  M 220.33855,218.14076   L 228.0508,217.46144   C 228.41044,220.57831 229.28955,223.09578 230.60823,225.09377   C 231.9269,227.0518 234.00482,228.6502 236.802,229.88895   C 239.63915,231.08775 242.79598,231.72711 246.31245,231.72711   C 249.42931,231.72711 252.18654,231.24759 254.54417,230.32851   C 256.94176,229.40943 258.73996,228.13072 259.89879,226.53233   C 261.05763,224.89397 261.65702,223.13574 261.65702,221.21767   C 261.65702,219.2996 261.09759,217.58132 259.93875,216.14277   C 258.81988,214.70421 256.98172,213.46546 254.38433,212.50642   C 252.74598,211.86707 249.06968,210.86807 243.39538,209.46947   C 237.72108,208.11084 233.7251,206.83213 231.48735,205.63333   C 228.53032,204.0749 226.33253,202.15682 224.85401,199.87911   C 223.41546,197.6014 222.69618,195.00401 222.69618,192.16686   C 222.69618,189.05 223.5753,186.17289 225.37349,183.45562   C 227.13172,180.73835 229.72911,178.66044 233.1257,177.26184   C 236.52229,175.86325 240.27851,175.14397 244.43433,175.14397   C 249.02972,175.14397 253.06566,175.90321 256.58212,177.38172   C 260.05863,178.86024 262.73594,181.01807 264.65401,183.89518   C 266.53212,186.73233 267.53112,190.00903 267.651,193.60542   L 259.81887,194.20482   C 259.41927,190.28875 257.98072,187.37168 255.54317,185.37369   C 253.14558,183.3757 249.54919,182.3767 244.79397,182.3767   C 239.83895,182.3767 236.24257,183.25582 233.96486,185.09397   C 231.72711,186.89217 230.56827,189.08996 230.56827,191.64739   C 230.56827,193.84518 231.36747,195.68333 232.96586,197.12188   C 234.56425,198.56044 238.68012,200.03895 245.31345,201.51747   C 251.94678,203.03594 256.50221,204.35462 258.97972,205.47349   C 262.5761,207.11184 265.25341,209.22972 266.97168,211.74719   C 268.65,214.30462 269.52911,217.22168 269.52911,220.53835   C 269.52911,223.85502 268.57008,226.93192 266.69196,229.84899   C 264.81385,232.76606 262.09658,235.00381 258.58012,236.64217   C 255.06365,238.24056 251.10763,239.03976 246.67208,239.03976   C 241.07771,239.03976 236.40241,238.24056 232.64618,236.60221   C 228.85,234.96385 225.89297,232.5263 223.73514,229.2496   C 221.57731,225.97289 220.45843,222.29658 220.33855,218.14076   z "
     style="fill:#000000;fill-rule:evenodd;fill-opacity:1;stroke:none;" />
</svg>
