<?xml version="1.0" encoding="UTF-8" standalone="no"?>
<svg
   xmlns:dc="http://purl.org/dc/elements/1.1/"
   xmlns:cc="http://creativecommons.org/ns#"
   xmlns:rdf="http://www.w3.org/1999/02/22-rdf-syntax-ns#"
   xmlns:svg="http://www.w3.org/2000/svg"
   xmlns="http://www.w3.org/2000/svg"
   id="svg17"
   height="112.9mm"
   width="112.9mm"
   version="1.0">
  <metadata
     id="metadata21">
    <rdf:RDF>
      <cc:Work
         rdf:about="">
        <dc:format>image/svg+xml</dc:format>
        <dc:type
           rdf:resource="http://purl.org/dc/dcmitype/StillImage" />
      </cc:Work>
    </rdf:RDF>
  </metadata>
  <defs
     id="defs3">
    <pattern
       y="0"
       x="0"
       height="6"
       width="6"
       patternUnits="userSpaceOnUse"
       id="EMFhbasepattern" />
  </defs>
  <path
     id="path5"
     d="  M 1817.3195,1817.1379   L 1817.3195,2190.121  "
     style="fill:none;stroke:#ffff00;stroke-width:10.649107px;stroke-linecap:butt;stroke-linejoin:miter;stroke-miterlimit:282;stroke-dasharray:none;stroke-opacity:1;" />
  <path
     id="path7"
     d="  M 2030.4905,1817.1379   L 2030.4905,2190.121  "
     style="fill:none;stroke:#ffff00;stroke-width:10.649107px;stroke-linecap:butt;stroke-linejoin:miter;stroke-miterlimit:282;stroke-dasharray:none;stroke-opacity:1;" />
  <path
     id="path9"
     d="  M 1851.6082,1935.4487   L 1860.5957,1934.5802   C 1861.1244,1937.6012 1862.2195,1939.8292 1863.8811,1941.2264   C 1865.5426,1942.6236 1867.7706,1943.3411 1870.5651,1943.3411   C 1873.5483,1943.3411 1875.7763,1942.7369 1877.2869,1941.453   C 1878.7974,1940.2068 1879.5526,1938.7341 1879.5526,1937.0347   C 1879.5526,1935.9774 1879.2505,1935.0333 1878.6086,1934.2781   C 1877.9666,1933.5228 1876.8715,1932.8431 1875.2854,1932.3144   C 1874.1903,1931.9368 1871.7357,1931.257 1867.8839,1930.313   C 1862.937,1929.0668 1859.4628,1927.5563 1857.4614,1925.7814   C 1854.6669,1923.2513 1853.232,1920.1925 1853.232,1916.5673   C 1853.232,1914.226 1853.9117,1912.0358 1855.2334,1910.0344   C 1856.5551,1907.9952 1858.4432,1906.4469 1860.9356,1905.3895   C 1863.4279,1904.3322 1866.4489,1903.8035 1869.9609,1903.8035   C 1875.7008,1903.8035 1880.0058,1905.0497 1882.9135,1907.5798   C 1885.8212,1910.0721 1887.3695,1913.433 1887.4828,1917.6624   L 1878.2687,1918.0778   C 1877.8533,1915.6988 1877.0225,1913.9994 1875.7008,1912.9799   C 1874.4169,1911.9603 1872.4532,1911.4316 1869.8476,1911.4316   C 1867.1664,1911.4316 1865.0517,1911.998 1863.5412,1913.0931   C 1862.5594,1913.8106 1862.0685,1914.7547 1862.0685,1915.9253   C 1862.0685,1917.0205 1862.5216,1917.9268 1863.4657,1918.7198   C 1864.6363,1919.7016 1867.4685,1920.7212 1871.9623,1921.7786   C 1876.4561,1922.8359 1879.7792,1923.9311 1881.9317,1925.0639   C 1884.0842,1926.1968 1885.7457,1927.7451 1886.9919,1929.7088   C 1888.2003,1931.6724 1888.8045,1934.127 1888.8045,1936.997   C 1888.8045,1939.6404 1888.087,1942.095 1886.6143,1944.3985   C 1885.1793,1946.6643 1883.1023,1948.3636 1880.4589,1949.4965   C 1877.7778,1950.5916 1874.4546,1951.158 1870.4896,1951.158   C 1864.7118,1951.158 1860.2558,1949.8363 1857.1593,1947.1552   C 1854.0627,1944.474 1852.2124,1940.5845 1851.6082,1935.4487   z "
     style="fill:#ffff00;fill-rule:nonzero;fill-opacity:1;stroke:#ffff00;stroke-width:1.0573581px;stroke-linecap:butt;stroke-linejoin:miter;stroke-miterlimit:282;stroke-dasharray:none;stroke-opacity:1;" />
  <path
     id="path11"
     d="  M 1896.5836,1904.5588   L 1905.8355,1904.5588   L 1905.8355,1929.3689   C 1905.8355,1933.2962 1905.9488,1935.8641 1906.1754,1936.997   C 1906.553,1938.8851 1907.4971,1940.3956 1909.0076,1941.5285   C 1910.4803,1942.6614 1912.5195,1943.2278 1915.0874,1943.2278   C 1917.7308,1943.2278 1919.6945,1942.6992 1921.0162,1941.604   C 1922.3756,1940.5467 1923.1686,1939.225 1923.433,1937.6767   C 1923.6973,1936.0907 1923.8484,1933.5228 1923.8484,1929.8976   L 1923.8484,1904.5588   L 1933.1003,1904.5588   L 1933.1003,1928.6136   C 1933.1003,1934.0893 1932.8359,1937.9788 1932.345,1940.2446   C 1931.8163,1942.5104 1930.91,1944.4363 1929.5883,1946.0223   C 1928.2289,1947.5706 1926.4162,1948.8167 1924.1882,1949.723   C 1921.9225,1950.6671 1919.0147,1951.1203 1915.3895,1951.1203   C 1911.009,1951.1203 1907.6859,1950.6294 1905.4201,1949.6098   C 1903.1921,1948.5902 1901.3795,1947.3062 1900.0956,1945.6824   C 1898.7739,1944.0586 1897.9053,1942.3593 1897.4899,1940.5845   C 1896.8857,1937.9788 1896.5836,1934.0893 1896.5836,1928.9913   z "
     style="fill:#ffff00;fill-rule:nonzero;fill-opacity:1;stroke:#ffff00;stroke-width:1.0573581px;stroke-linecap:butt;stroke-linejoin:miter;stroke-miterlimit:282;stroke-dasharray:none;stroke-opacity:1;" />
  <path
     id="path13"
     d="  M 1949.3383,1950.3273   L 1938.4248,1904.5588   L 1947.8655,1904.5588   L 1954.7761,1936.0152   L 1963.1594,1904.5588   L 1974.1484,1904.5588   L 1982.1541,1936.5438   L 1989.178,1904.5588   L 1998.5054,1904.5588   L 1987.3654,1950.3273   L 1977.5848,1950.3273   L 1968.4462,1916.1142   L 1959.3832,1950.3273   z "
     style="fill:#ffff00;fill-rule:nonzero;fill-opacity:1;stroke:#ffff00;stroke-width:1.0573581px;stroke-linecap:butt;stroke-linejoin:miter;stroke-miterlimit:282;stroke-dasharray:none;stroke-opacity:1;" />
  <path
     id="path15"
     d="  M 1929.0596,1969.4352   C 1929.8904,1971.1345 1930.5324,1972.5318 1930.9855,1973.5891   L 1930.9855,2008.4442   L 2006.0202,2086.16   L 2006.0202,2097.6777   L 1930.9855,2048.8126   L 1930.9855,2111.4233   L 1948.5452,2129.2851   L 1948.5452,2137.9328   L 1928.0778,2129.2851   L 1923.9617,2137.9328   L 1919.4679,2129.2851   L 1899.3403,2137.9328   L 1899.3403,2129.2851   L 1916.5979,2111.4233   L 1916.5979,2048.8126   L 1841.8654,2097.6777   L 1841.8654,2086.16   L 1916.5979,2008.4442   L 1916.5979,1973.5891   L 1917.5798,1970.7192   C 1919.4679,1966.8674 1921.5826,1964.9415 1923.9617,1964.9415   C 1925.661,1964.9415 1927.3603,1966.452 1929.0596,1969.4352   z "
     style="fill:#ffff00;fill-rule:nonzero;fill-opacity:1;stroke:none;" />
</svg>
