<?xml version="1.0" encoding="UTF-8" standalone="no"?>
<svg
   xmlns:dc="http://purl.org/dc/elements/1.1/"
   xmlns:cc="http://creativecommons.org/ns#"
   xmlns:rdf="http://www.w3.org/1999/02/22-rdf-syntax-ns#"
   xmlns:svg="http://www.w3.org/2000/svg"
   xmlns="http://www.w3.org/2000/svg"
   id="svg17"
   height="112.9mm"
   width="112.9mm"
   version="1.0">
  <metadata
     id="metadata21">
    <rdf:RDF>
      <cc:Work
         rdf:about="">
        <dc:format>image/svg+xml</dc:format>
        <dc:type
           rdf:resource="http://purl.org/dc/dcmitype/StillImage" />
      </cc:Work>
    </rdf:RDF>
  </metadata>
  <defs
     id="defs3">
    <pattern
       y="0"
       x="0"
       height="6"
       width="6"
       patternUnits="userSpaceOnUse"
       id="EMFhbasepattern" />
  </defs>
  <path
     id="path5"
     d="  M 531.00723,478.31721   L 680.24314,478.31721   L 680.24314,670.19734   L 531.00723,670.19734   L 531.00723,478.31721   z "
     style="fill:none;stroke:#ff0000;stroke-width:5.3258066px;stroke-linecap:butt;stroke-linejoin:miter;stroke-miterlimit:112;stroke-dasharray:none;stroke-opacity:1;" />
  <path
     id="path7"
     d="  M 531.00723,671.29271   L 605.6063,771.46321   L 680.24314,671.29271  "
     style="fill:none;stroke:#ff0000;stroke-width:5.3258066px;stroke-linecap:butt;stroke-linejoin:miter;stroke-miterlimit:112;stroke-dasharray:none;stroke-opacity:1;" />
  <path
     id="path9"
     d="  M 531.00723,638.2425   L 680.24314,638.2425  "
     style="fill:none;stroke:#ff0000;stroke-width:5.3258066px;stroke-linecap:butt;stroke-linejoin:miter;stroke-miterlimit:112;stroke-dasharray:none;stroke-opacity:1;" />
  <path
     id="path11"
     d="  M 572.59385,558.27985   C 572.59385,566.21191 566.1349,572.67086 558.20284,572.67086   C 550.23302,572.67086 543.81183,566.21191 543.81183,558.27985   C 543.81183,550.3478 550.23302,543.88884 558.20284,543.88884   C 566.1349,543.88884 572.59385,550.3478 572.59385,558.27985   z "
     style="fill:#ff0000;fill-rule:nonzero;fill-opacity:1;stroke:#ff0000;stroke-width:7.9698243px;stroke-linecap:butt;stroke-linejoin:miter;stroke-miterlimit:112;stroke-dasharray:none;stroke-opacity:1;" />
  <path
     id="path13"
     d="  M 668.53392,558.27985   C 668.53392,566.21191 662.07496,572.67086 654.14291,572.67086   C 646.17308,572.67086 639.7519,566.21191 639.7519,558.27985   C 639.7519,550.3478 646.17308,543.88884 654.14291,543.88884   C 662.07496,543.88884 668.53392,550.3478 668.53392,558.27985   z "
     style="fill:#ff0000;fill-rule:nonzero;fill-opacity:1;stroke:#ff0000;stroke-width:7.9698243px;stroke-linecap:butt;stroke-linejoin:miter;stroke-miterlimit:112;stroke-dasharray:none;stroke-opacity:1;" />
  <path
     id="path15"
     d="  M 562.16887,550.27226   C 590.15768,526.28724 622.15029,526.28724 650.13911,550.27226  "
     style="fill:none;stroke:#ff0000;stroke-width:3.9660263px;stroke-linecap:butt;stroke-linejoin:miter;stroke-miterlimit:112;stroke-dasharray:none;stroke-opacity:1;" />
</svg>
