<?xml version="1.0" encoding="UTF-8" standalone="no"?>
<svg
   xmlns:dc="http://purl.org/dc/elements/1.1/"
   xmlns:cc="http://creativecommons.org/ns#"
   xmlns:rdf="http://www.w3.org/1999/02/22-rdf-syntax-ns#"
   xmlns:svg="http://www.w3.org/2000/svg"
   xmlns="http://www.w3.org/2000/svg"
   id="svg17"
   height="112.9mm"
   width="112.9mm"
   version="1.0">
  <metadata
     id="metadata21">
    <rdf:RDF>
      <cc:Work
         rdf:about="">
        <dc:format>image/svg+xml</dc:format>
        <dc:type
           rdf:resource="http://purl.org/dc/dcmitype/StillImage" />
      </cc:Work>
    </rdf:RDF>
  </metadata>
  <defs
     id="defs3">
    <pattern
       y="0"
       x="0"
       height="6"
       width="6"
       patternUnits="userSpaceOnUse"
       id="EMFhbasepattern" />
  </defs>
  <path
     id="path5"
     d="  M 588.99149,537.00787   L 738.24193,537.00787   L 738.24193,728.90669   L 588.99149,728.90669   L 588.99149,537.00787   z "
     style="fill:none;stroke:#000000;stroke-width:5.3263254px;stroke-linecap:butt;stroke-linejoin:miter;stroke-miterlimit:112;stroke-dasharray:none;stroke-opacity:1;" />
  <path
     id="path7"
     d="  M 588.99149,730.00218   L 663.59782,830.18242   L 738.24193,730.00218  "
     style="fill:none;stroke:#000000;stroke-width:5.3263254px;stroke-linecap:butt;stroke-linejoin:miter;stroke-miterlimit:112;stroke-dasharray:none;stroke-opacity:1;" />
  <path
     id="path9"
     d="  M 588.99149,696.94874   L 738.24193,696.94874  "
     style="fill:none;stroke:#000000;stroke-width:5.3263254px;stroke-linecap:butt;stroke-linejoin:miter;stroke-miterlimit:112;stroke-dasharray:none;stroke-opacity:1;" />
  <path
     id="path11"
     d="  M 630.58216,616.97831   C 630.58216,624.91113 624.12257,631.37072 616.18975,631.37072   C 608.21915,631.37072 601.79733,624.91113 601.79733,616.97831   C 601.79733,609.04548 608.21915,602.58589 616.18975,602.58589   C 624.12257,602.58589 630.58216,609.04548 630.58216,616.97831   z "
     style="fill:#000000;fill-rule:nonzero;fill-opacity:1;stroke:#000000;stroke-width:7.9706006px;stroke-linecap:butt;stroke-linejoin:miter;stroke-miterlimit:112;stroke-dasharray:none;stroke-opacity:1;" />
  <path
     id="path13"
     d="  M 726.53157,616.97831   C 726.53157,624.91113 720.07198,631.37072 712.13915,631.37072   C 704.16855,631.37072 697.74674,624.91113 697.74674,616.97831   C 697.74674,609.04548 704.16855,602.58589 712.13915,602.58589   C 720.07198,602.58589 726.53157,609.04548 726.53157,616.97831   z "
     style="fill:#000000;fill-rule:nonzero;fill-opacity:1;stroke:#000000;stroke-width:7.9706006px;stroke-linecap:butt;stroke-linejoin:miter;stroke-miterlimit:112;stroke-dasharray:none;stroke-opacity:1;" />
  <path
     id="path15"
     d="  M 620.15616,608.96993   C 648.1477,584.98258 680.14343,584.98258 708.13497,608.96993  "
     style="fill:none;stroke:#000000;stroke-width:3.9664125px;stroke-linecap:butt;stroke-linejoin:miter;stroke-miterlimit:112;stroke-dasharray:none;stroke-opacity:1;" />
</svg>
