<?xml version="1.0" encoding="UTF-8" standalone="no"?>
<svg
   xmlns:dc="http://purl.org/dc/elements/1.1/"
   xmlns:cc="http://creativecommons.org/ns#"
   xmlns:rdf="http://www.w3.org/1999/02/22-rdf-syntax-ns#"
   xmlns:svg="http://www.w3.org/2000/svg"
   xmlns="http://www.w3.org/2000/svg"
   id="svg15"
   height="112.9mm"
   width="112.9mm"
   version="1.0">
  <metadata
     id="metadata19">
    <rdf:RDF>
      <cc:Work
         rdf:about="">
        <dc:format>image/svg+xml</dc:format>
        <dc:type
           rdf:resource="http://purl.org/dc/dcmitype/StillImage" />
      </cc:Work>
    </rdf:RDF>
  </metadata>
  <defs
     id="defs3">
    <pattern
       y="0"
       x="0"
       height="6"
       width="6"
       patternUnits="userSpaceOnUse"
       id="EMFhbasepattern" />
  </defs>
  <path
     id="path5"
     d="  M 391.92062,391.38808   L 541.15652,391.38808   L 541.15652,583.2682   L 391.92062,583.2682   L 391.92062,391.38808   z "
     style="fill:none;stroke:#ff0000;stroke-width:5.3258066px;stroke-linecap:butt;stroke-linejoin:miter;stroke-miterlimit:112;stroke-dasharray:none;stroke-opacity:1;" />
  <path
     id="path7"
     d="  M 391.92062,584.36358   L 466.51969,684.53407   L 541.15652,584.36358  "
     style="fill:none;stroke:#ff0000;stroke-width:5.3258066px;stroke-linecap:butt;stroke-linejoin:miter;stroke-miterlimit:112;stroke-dasharray:none;stroke-opacity:1;" />
  <path
     id="path9"
     d="  M 391.92062,551.31336   L 541.15652,551.31336  "
     style="fill:none;stroke:#ff0000;stroke-width:5.3258066px;stroke-linecap:butt;stroke-linejoin:miter;stroke-miterlimit:112;stroke-dasharray:none;stroke-opacity:1;" />
  <path
     id="path11"
     d="  M 453.63954,479.245   L 462.74252,481.54907   C 460.81616,489.02786 457.41671,494.69362 452.46862,498.62187   C 447.52053,502.55013 441.43929,504.51425 434.30044,504.51425   C 426.89719,504.51425 420.8915,503.00339 416.24558,499.98165   C 411.59966,496.95992 408.0869,492.61617 405.66951,486.87488   C 403.25212,481.17136 402.04343,475.05234 402.04343,468.48007   C 402.04343,461.34122 403.40321,455.07113 406.12277,449.74532   C 408.84233,444.41951 412.73282,440.37794 417.79422,437.62061   C 422.81785,434.86328 428.37029,433.46573 434.45153,433.46573   C 441.32598,433.46573 447.10504,435.24099 451.78873,438.71599   C 456.47242,442.22876 459.72078,447.13907 461.5716,453.48472   L 452.61971,455.59993   C 451.0333,450.61407 448.72922,446.95022 445.66972,444.68391   C 442.64798,442.41761 438.83304,441.24669 434.26267,441.24669   C 428.97464,441.24669 424.55535,442.53093 421.00481,445.06163   C 417.49205,447.59233 414.99912,450.99178 413.56379,455.25998   C 412.12847,459.49041 411.41081,463.9097 411.41081,468.4423   C 411.41081,474.25914 412.24178,479.35832 413.94151,483.73983   C 415.64123,488.08357 418.28525,491.33194 421.87356,493.48492   C 425.46187,495.63791 429.35235,496.73329 433.54501,496.73329   C 438.64419,496.73329 442.95016,495.26019 446.46292,492.314   C 450.01346,489.36781 452.39308,485.02407 453.63954,479.245   L 453.63954,479.245   z "
     style="fill:#ff0000;fill-rule:nonzero;fill-opacity:1;stroke:#ff0000;stroke-width:1.0576069px;stroke-linecap:butt;stroke-linejoin:miter;stroke-miterlimit:112;stroke-dasharray:none;stroke-opacity:1;" />
  <path
     id="path13"
     d="  M 466.44414,503.34333   L 492.80877,434.63665   L 502.59164,434.63665   L 530.69377,503.34333   L 520.34433,503.34333   L 512.33673,482.53114   L 483.63026,482.53114   L 476.07592,503.34333   L 466.44414,503.34333   z  M 486.2365,475.12789   L 509.54163,475.12789   L 502.36501,456.12873   C 500.17425,450.34967 498.55007,445.59043 497.49246,441.85104   C 496.62371,446.27032 495.37725,450.65184 493.79084,454.99558   L 486.2365,475.12789   z "
     style="fill:#ff0000;fill-rule:nonzero;fill-opacity:1;stroke:#ff0000;stroke-width:1.0576069px;stroke-linecap:butt;stroke-linejoin:miter;stroke-miterlimit:112;stroke-dasharray:none;stroke-opacity:1;" />
</svg>
