<?xml version="1.0" encoding="UTF-8" standalone="no"?>
<svg
   xmlns:dc="http://purl.org/dc/elements/1.1/"
   xmlns:cc="http://creativecommons.org/ns#"
   xmlns:rdf="http://www.w3.org/1999/02/22-rdf-syntax-ns#"
   xmlns:svg="http://www.w3.org/2000/svg"
   xmlns="http://www.w3.org/2000/svg"
   id="svg17"
   height="95.75mm"
   width="95.75mm"
   version="1.0">
  <metadata
     id="metadata21">
    <rdf:RDF>
      <cc:Work
         rdf:about="">
        <dc:format>image/svg+xml</dc:format>
        <dc:type
           rdf:resource="http://purl.org/dc/dcmitype/StillImage" />
      </cc:Work>
    </rdf:RDF>
  </metadata>
  <defs
     id="defs3">
    <pattern
       y="0"
       x="0"
       height="6"
       width="6"
       patternUnits="userSpaceOnUse"
       id="EMFhbasepattern" />
  </defs>
  <path
     id="path5"
     d="  M 54.345381,54.345381   L 54.345381,307.53092   L 307.53092,307.53092   L 307.53092,54.345381   L 54.345381,54.345381   z "
     style="fill:#aaffaa;fill-rule:evenodd;fill-opacity:1;stroke:none;" />
  <path
     id="path7"
     d="  M 54.345381,54.345381   L 307.53092,54.345381   L 307.53092,307.53092   L 54.345381,307.53092   z "
     style="fill:none;stroke:#000000;stroke-width:9.5903616px;stroke-linecap:butt;stroke-linejoin:miter;stroke-miterlimit:10;stroke-dasharray:none;stroke-opacity:1;" />
  <path
     id="path9"
     d="  M 122.15723,149.80944   L 127.31205,149.36988   C 127.55181,151.40783 128.11124,153.1261 128.99036,154.44478   C 129.90944,155.76345 131.26807,156.80241 133.14618,157.64156   C 135.0243,158.44076 137.14217,158.84036 139.45984,158.84036   C 141.53775,158.84036 143.3759,158.56064 144.9743,157.92128   C 146.57269,157.32189 147.77148,156.44277 148.53072,155.40381   C 149.32992,154.3249 149.68956,153.1261 149.68956,151.84739   C 149.68956,150.56867 149.32992,149.4498 148.57068,148.49076   C 147.81144,147.49176 146.57269,146.69257 144.85442,146.05321   C 143.7755,145.61365 141.29799,144.93434 137.54177,144.01526   C 133.74558,143.13614 131.10823,142.25703 129.58976,141.45783   C 127.63173,140.41887 126.15321,139.14016 125.19417,137.62168   C 124.23514,136.10321 123.75562,134.38494 123.75562,132.50683   C 123.75562,130.42891 124.31506,128.47088 125.51385,126.67269   C 126.67269,124.8745 128.43092,123.4759 130.66867,122.55683   C 132.94638,121.59779 135.46385,121.15823 138.22108,121.15823   C 141.29799,121.15823 143.9753,121.63775 146.29297,122.63675   C 148.6506,123.59578 150.44879,125.03434 151.68755,126.95241   C 152.96626,128.87048 153.60562,131.02831 153.7255,133.46586   L 148.49076,133.86546   C 148.21104,131.22811 147.25201,129.27008 145.65361,127.9514   C 144.01526,126.63273 141.61767,125.95341 138.46084,125.95341   C 135.14417,125.95341 132.74658,126.55281 131.26807,127.7516   C 129.7496,128.99036 128.99036,130.42891 128.99036,132.14719   C 128.99036,133.6257 129.50984,134.8245 130.58875,135.78353   C 131.62771,136.74257 134.38494,137.74156 138.82048,138.74056   C 143.25602,139.73956 146.29297,140.61867 147.93132,141.33795   C 150.32891,142.45683 152.08715,143.85542 153.24598,145.53373   C 154.36486,147.25201 154.96425,149.21004 154.96425,151.40783   C 154.96425,153.60562 154.3249,155.68353 153.08614,157.6016   C 151.80743,159.55964 150.00923,161.03815 147.6516,162.11707   C 145.29397,163.19598 142.65662,163.75542 139.73956,163.75542   C 135.98333,163.75542 132.86646,163.19598 130.34899,162.11707   C 127.83152,161.03815 125.87349,159.3998 124.43494,157.20201   C 122.99638,155.04417 122.23715,152.56666 122.15723,149.80944   z  M 160.75843,142.9763   C 160.75843,136.14317 162.59658,130.78855 166.23293,126.91245   C 169.90923,123.03634 174.66446,121.11827 180.45863,121.11827   C 184.25482,121.11827 187.69136,122.03735 190.72831,123.83554   C 193.80522,125.67369 196.12289,128.19116 197.72128,131.42791   C 199.31968,134.70462 200.11887,138.38092 200.11887,142.49679   C 200.11887,146.69257 199.27972,150.40883 197.6014,153.7255   C 195.92309,157.00221 193.5255,159.51968 190.44859,161.19799   C 187.33172,162.91626 184.01506,163.75542 180.41867,163.75542   C 176.54257,163.75542 173.10602,162.79638 170.02911,160.91827   C 166.99217,159.08012 164.6745,156.52269 163.11606,153.24598   C 161.51767,150.00923 160.75843,146.61265 160.75843,142.9763   z  M 166.35281,143.05622   C 166.35281,148.01124 167.71144,151.92731 170.34879,154.80442   C 173.0261,157.64156 176.38273,159.08012 180.41867,159.08012   C 184.49458,159.08012 187.89116,157.64156 190.52851,154.76446   C 193.20582,151.88735 194.5245,147.77148 194.5245,142.45683   C 194.5245,139.14016 193.96506,136.18313 192.80622,133.70562   C 191.68735,131.18815 190.00903,129.27008 187.8512,127.87148   C 185.65341,126.51285 183.21586,125.79357 180.49859,125.79357   C 176.62249,125.79357 173.30582,127.15221 170.54859,129.78956   C 167.7514,132.42691 166.35281,136.86245 166.35281,143.05622   z  M 207.43152,163.03614   L 207.43152,121.83755   L 235.24357,121.83755   L 235.24357,126.71265   L 212.90602,126.71265   L 212.90602,139.45984   L 232.20662,139.45984   L 232.20662,144.33494   L 212.90602,144.33494   L 212.90602,163.03614   z "
     style="fill:#000000;fill-rule:evenodd;fill-opacity:1;stroke:none;" />
  <path
     id="path11"
     d="  M 122.15723,149.80944   L 127.31205,149.36988   C 127.55181,151.40783 128.11124,153.1261 128.99036,154.44478   C 129.90944,155.76345 131.26807,156.80241 133.14618,157.64156   C 135.0243,158.44076 137.14217,158.84036 139.45984,158.84036   C 141.53775,158.84036 143.3759,158.56064 144.9743,157.92128   C 146.57269,157.32189 147.77148,156.44277 148.53072,155.40381   C 149.32992,154.3249 149.68956,153.1261 149.68956,151.84739   C 149.68956,150.56867 149.32992,149.4498 148.57068,148.49076   C 147.81144,147.49176 146.57269,146.69257 144.85442,146.05321   C 143.7755,145.61365 141.29799,144.93434 137.54177,144.01526   C 133.74558,143.13614 131.10823,142.25703 129.58976,141.45783   C 127.63173,140.41887 126.15321,139.14016 125.19417,137.62168   C 124.23514,136.10321 123.75562,134.38494 123.75562,132.50683   C 123.75562,130.42891 124.31506,128.47088 125.51385,126.67269   C 126.67269,124.8745 128.43092,123.4759 130.66867,122.55683   C 132.94638,121.59779 135.46385,121.15823 138.22108,121.15823   C 141.29799,121.15823 143.9753,121.63775 146.29297,122.63675   C 148.6506,123.59578 150.44879,125.03434 151.68755,126.95241   C 152.96626,128.87048 153.60562,131.02831 153.7255,133.46586   L 148.49076,133.86546   C 148.21104,131.22811 147.25201,129.27008 145.65361,127.9514   C 144.01526,126.63273 141.61767,125.95341 138.46084,125.95341   C 135.14417,125.95341 132.74658,126.55281 131.26807,127.7516   C 129.7496,128.99036 128.99036,130.42891 128.99036,132.14719   C 128.99036,133.6257 129.50984,134.8245 130.58875,135.78353   C 131.62771,136.74257 134.38494,137.74156 138.82048,138.74056   C 143.25602,139.73956 146.29297,140.61867 147.93132,141.33795   C 150.32891,142.45683 152.08715,143.85542 153.24598,145.53373   C 154.36486,147.25201 154.96425,149.21004 154.96425,151.40783   C 154.96425,153.60562 154.3249,155.68353 153.08614,157.6016   C 151.80743,159.55964 150.00923,161.03815 147.6516,162.11707   C 145.29397,163.19598 142.65662,163.75542 139.73956,163.75542   C 135.98333,163.75542 132.86646,163.19598 130.34899,162.11707   C 127.83152,161.03815 125.87349,159.3998 124.43494,157.20201   C 122.99638,155.04417 122.23715,152.56666 122.15723,149.80944   z  M 160.75843,142.9763   C 160.75843,136.14317 162.59658,130.78855 166.23293,126.91245   C 169.90923,123.03634 174.66446,121.11827 180.45863,121.11827   C 184.25482,121.11827 187.69136,122.03735 190.72831,123.83554   C 193.80522,125.67369 196.12289,128.19116 197.72128,131.42791   C 199.31968,134.70462 200.11887,138.38092 200.11887,142.49679   C 200.11887,146.69257 199.27972,150.40883 197.6014,153.7255   C 195.92309,157.00221 193.5255,159.51968 190.44859,161.19799   C 187.33172,162.91626 184.01506,163.75542 180.41867,163.75542   C 176.54257,163.75542 173.10602,162.79638 170.02911,160.91827   C 166.99217,159.08012 164.6745,156.52269 163.11606,153.24598   C 161.51767,150.00923 160.75843,146.61265 160.75843,142.9763   z  M 166.35281,143.05622   C 166.35281,148.01124 167.71144,151.92731 170.34879,154.80442   C 173.0261,157.64156 176.38273,159.08012 180.41867,159.08012   C 184.49458,159.08012 187.89116,157.64156 190.52851,154.76446   C 193.20582,151.88735 194.5245,147.77148 194.5245,142.45683   C 194.5245,139.14016 193.96506,136.18313 192.80622,133.70562   C 191.68735,131.18815 190.00903,129.27008 187.8512,127.87148   C 185.65341,126.51285 183.21586,125.79357 180.49859,125.79357   C 176.62249,125.79357 173.30582,127.15221 170.54859,129.78956   C 167.7514,132.42691 166.35281,136.86245 166.35281,143.05622   z  M 207.43152,163.03614   L 207.43152,121.83755   L 235.24357,121.83755   L 235.24357,126.71265   L 212.90602,126.71265   L 212.90602,139.45984   L 232.20662,139.45984   L 232.20662,144.33494   L 212.90602,144.33494   L 212.90602,163.03614   z "
     style="fill:none;stroke:#000000;stroke-width:0.95903611px;stroke-linecap:butt;stroke-linejoin:miter;stroke-miterlimit:10;stroke-dasharray:none;stroke-opacity:1;" />
  <path
     id="path13"
     d="  M 121.19819,215.02389   L 126.35301,214.58433   C 126.59277,216.62229 127.15221,218.34056 128.03132,219.65923   C 128.9504,220.97791 130.30903,222.01686 132.18715,222.85602   C 134.06526,223.65522 136.18313,224.05482 138.5008,224.05482   C 140.57871,224.05482 142.41687,223.7751 144.01526,223.13574   C 145.61365,222.53634 146.81245,221.65723 147.57168,220.61827   C 148.37088,219.53935 148.73052,218.34056 148.73052,217.06184   C 148.73052,215.78313 148.37088,214.66425 147.61164,213.70522   C 146.85241,212.70622 145.61365,211.90703 143.89538,211.26767   C 142.81646,210.82811 140.33895,210.14879 136.58273,209.22972   C 132.78654,208.3506 130.14919,207.47148 128.63072,206.67229   C 126.67269,205.63333 125.19417,204.35462 124.23514,202.83614   C 123.2761,201.31767 122.79658,199.59939 122.79658,197.72128   C 122.79658,195.64337 123.35602,193.68534 124.55482,191.88715   C 125.71365,190.08895 127.47189,188.69036 129.70964,187.77128   C 131.98735,186.81225 134.50482,186.37269 137.26205,186.37269   C 140.33895,186.37269 143.01626,186.85221 145.33393,187.8512   C 147.69156,188.81024 149.48976,190.24879 150.72851,192.16686   C 152.00723,194.08494 152.64658,196.24277 152.76646,198.68032   L 147.53172,199.07992   C 147.25201,196.44257 146.29297,194.48454 144.69458,193.16586   C 143.05622,191.84719 140.65863,191.16787 137.50181,191.16787   C 134.18514,191.16787 131.78755,191.76727 130.30903,192.96606   C 128.79056,194.20482 128.03132,195.64337 128.03132,197.36164   C 128.03132,198.84016 128.5508,200.03895 129.62972,200.99799   C 130.66867,201.95703 133.4259,202.95602 137.86144,203.95502   C 142.29699,204.95401 145.33393,205.83313 146.97229,206.55241   C 149.36988,207.67128 151.12811,209.06988 152.28695,210.74819   C 153.40582,212.46646 154.00522,214.42449 154.00522,216.62229   C 154.00522,218.82008 153.36586,220.89799 152.12711,222.81606   C 150.84839,224.77409 149.0502,226.25261 146.69257,227.33152   C 144.33494,228.41044 141.69759,228.96988 138.78052,228.96988   C 135.0243,228.96988 131.90743,228.41044 129.38996,227.33152   C 126.87249,226.25261 124.91446,224.61425 123.4759,222.41646   C 122.03735,220.25863 121.27811,217.78112 121.19819,215.02389   z  M 161.43775,228.2506   L 161.43775,187.05201   L 176.98213,187.05201   C 179.69939,187.05201 181.81727,187.21184 183.25582,187.4516   C 185.25381,187.81124 186.97209,188.4506 188.33072,189.36968   C 189.68935,190.32871 190.80823,191.64739 191.64739,193.36566   C 192.44658,195.04397 192.88614,196.92209 192.88614,198.96004   C 192.88614,202.4765 191.76727,205.43353 189.52952,207.87108   C 187.29176,210.30863 183.29578,211.50743 177.46164,211.50743   L 166.87229,211.50743   L 166.87229,228.2506   z  M 166.87229,206.63233   L 177.54156,206.63233   C 181.05803,206.63233 183.5755,205.99297 185.05401,204.67429   C 186.53253,203.35562 187.2518,201.51747 187.2518,199.15984   C 187.2518,197.44156 186.81225,195.96305 185.97309,194.72429   C 185.09397,193.48554 183.93514,192.68634 182.49658,192.28674   C 181.57751,192.04699 179.89919,191.92711 177.42168,191.92711   L 166.87229,191.92711   z  M 210.30863,228.2506   L 210.30863,191.92711   L 196.72229,191.92711   L 196.72229,187.05201   L 229.36947,187.05201   L 229.36947,191.92711   L 215.74317,191.92711   L 215.74317,228.2506   z "
     style="fill:#000000;fill-rule:evenodd;fill-opacity:1;stroke:none;" />
  <path
     id="path15"
     d="  M 121.19819,215.02389   L 126.35301,214.58433   C 126.59277,216.62229 127.15221,218.34056 128.03132,219.65923   C 128.9504,220.97791 130.30903,222.01686 132.18715,222.85602   C 134.06526,223.65522 136.18313,224.05482 138.5008,224.05482   C 140.57871,224.05482 142.41687,223.7751 144.01526,223.13574   C 145.61365,222.53634 146.81245,221.65723 147.57168,220.61827   C 148.37088,219.53935 148.73052,218.34056 148.73052,217.06184   C 148.73052,215.78313 148.37088,214.66425 147.61164,213.70522   C 146.85241,212.70622 145.61365,211.90703 143.89538,211.26767   C 142.81646,210.82811 140.33895,210.14879 136.58273,209.22972   C 132.78654,208.3506 130.14919,207.47148 128.63072,206.67229   C 126.67269,205.63333 125.19417,204.35462 124.23514,202.83614   C 123.2761,201.31767 122.79658,199.59939 122.79658,197.72128   C 122.79658,195.64337 123.35602,193.68534 124.55482,191.88715   C 125.71365,190.08895 127.47189,188.69036 129.70964,187.77128   C 131.98735,186.81225 134.50482,186.37269 137.26205,186.37269   C 140.33895,186.37269 143.01626,186.85221 145.33393,187.8512   C 147.69156,188.81024 149.48976,190.24879 150.72851,192.16686   C 152.00723,194.08494 152.64658,196.24277 152.76646,198.68032   L 147.53172,199.07992   C 147.25201,196.44257 146.29297,194.48454 144.69458,193.16586   C 143.05622,191.84719 140.65863,191.16787 137.50181,191.16787   C 134.18514,191.16787 131.78755,191.76727 130.30903,192.96606   C 128.79056,194.20482 128.03132,195.64337 128.03132,197.36164   C 128.03132,198.84016 128.5508,200.03895 129.62972,200.99799   C 130.66867,201.95703 133.4259,202.95602 137.86144,203.95502   C 142.29699,204.95401 145.33393,205.83313 146.97229,206.55241   C 149.36988,207.67128 151.12811,209.06988 152.28695,210.74819   C 153.40582,212.46646 154.00522,214.42449 154.00522,216.62229   C 154.00522,218.82008 153.36586,220.89799 152.12711,222.81606   C 150.84839,224.77409 149.0502,226.25261 146.69257,227.33152   C 144.33494,228.41044 141.69759,228.96988 138.78052,228.96988   C 135.0243,228.96988 131.90743,228.41044 129.38996,227.33152   C 126.87249,226.25261 124.91446,224.61425 123.4759,222.41646   C 122.03735,220.25863 121.27811,217.78112 121.19819,215.02389   z  M 161.43775,228.2506   L 161.43775,187.05201   L 176.98213,187.05201   C 179.69939,187.05201 181.81727,187.21184 183.25582,187.4516   C 185.25381,187.81124 186.97209,188.4506 188.33072,189.36968   C 189.68935,190.32871 190.80823,191.64739 191.64739,193.36566   C 192.44658,195.04397 192.88614,196.92209 192.88614,198.96004   C 192.88614,202.4765 191.76727,205.43353 189.52952,207.87108   C 187.29176,210.30863 183.29578,211.50743 177.46164,211.50743   L 166.87229,211.50743   L 166.87229,228.2506   z  M 166.87229,206.63233   L 177.54156,206.63233   C 181.05803,206.63233 183.5755,205.99297 185.05401,204.67429   C 186.53253,203.35562 187.2518,201.51747 187.2518,199.15984   C 187.2518,197.44156 186.81225,195.96305 185.97309,194.72429   C 185.09397,193.48554 183.93514,192.68634 182.49658,192.28674   C 181.57751,192.04699 179.89919,191.92711 177.42168,191.92711   L 166.87229,191.92711   z  M 210.30863,228.2506   L 210.30863,191.92711   L 196.72229,191.92711   L 196.72229,187.05201   L 229.36947,187.05201   L 229.36947,191.92711   L 215.74317,191.92711   L 215.74317,228.2506   z "
     style="fill:none;stroke:#000000;stroke-width:0.95903611px;stroke-linecap:butt;stroke-linejoin:miter;stroke-miterlimit:10;stroke-dasharray:none;stroke-opacity:1;" />
</svg>
