<?xml version="1.0" encoding="UTF-8" standalone="no"?>
<svg
   xmlns:dc="http://purl.org/dc/elements/1.1/"
   xmlns:cc="http://creativecommons.org/ns#"
   xmlns:rdf="http://www.w3.org/1999/02/22-rdf-syntax-ns#"
   xmlns:svg="http://www.w3.org/2000/svg"
   xmlns="http://www.w3.org/2000/svg"
   id="svg19"
   height="116.06mm"
   width="135.35001mm"
   version="1.0">
  <metadata
     id="metadata23">
    <rdf:RDF>
      <cc:Work
         rdf:about="">
        <dc:format>image/svg+xml</dc:format>
        <dc:type
           rdf:resource="http://purl.org/dc/dcmitype/StillImage" />
      </cc:Work>
    </rdf:RDF>
  </metadata>
  <defs
     id="defs3">
    <pattern
       y="0"
       x="0"
       height="6"
       width="6"
       patternUnits="userSpaceOnUse"
       id="EMFhbasepattern" />
  </defs>
  <path
     id="path5"
     d="  M 337.26104,384.25381   C 457.14056,384.25381 457.14056,187.6514 337.26104,187.6514   C 337.26104,54.345381 174.2249,54.345381 174.2249,187.6514   C 54.345381,187.6514 54.345381,384.25381 174.2249,384.25381   z "
     style="fill:#ffff80;fill-rule:evenodd;fill-opacity:1;stroke:none;" />
  <path
     id="path7"
     d="  M 337.26104,384.25381   C 457.14056,384.25381 457.14056,187.6514 337.26104,187.6514   C 337.26104,54.345381 174.2249,54.345381 174.2249,187.6514   C 54.345381,187.6514 54.345381,384.25381 174.2249,384.25381  "
     style="fill:none;stroke:#000000;stroke-width:9.5903616px;stroke-linecap:butt;stroke-linejoin:miter;stroke-miterlimit:10;stroke-dasharray:none;stroke-opacity:1;" />
  <path
     id="path9"
     d="  M 241.35743,235.60321   L 241.35743,235.60321   L 241.35743,182.85622   L 255.74297,158.88032   L 270.12851,182.85622   L 270.12851,235.60321   z "
     style="fill:#ffff80;fill-rule:evenodd;fill-opacity:1;stroke:none;" />
  <path
     id="path11"
     d="  M 241.35743,235.60321   L 241.35743,235.60321   L 241.35743,182.85622   L 255.74297,158.88032   L 270.12851,182.85622   L 270.12851,235.60321  "
     style="fill:none;stroke:#000000;stroke-width:9.5903616px;stroke-linecap:butt;stroke-linejoin:miter;stroke-miterlimit:10;stroke-dasharray:none;stroke-opacity:1;" />
  <path
     id="path13"
     d="  M 270.12851,307.53092   L 270.12851,307.53092   L 270.12851,321.91646   L 284.51405,336.302   L 284.51405,365.07309   L 255.74297,336.302   L 226.97188,365.07309   L 226.97188,336.302   L 241.35743,321.91646   L 241.35743,307.53092   z "
     style="fill:#ffff80;fill-rule:evenodd;fill-opacity:1;stroke:none;" />
  <path
     id="path15"
     d="  M 270.12851,307.53092   L 270.12851,307.53092   L 270.12851,321.91646   L 284.51405,336.302   L 284.51405,365.07309   L 255.74297,336.302   L 226.97188,365.07309   L 226.97188,336.302   L 241.35743,321.91646   L 241.35743,307.53092  "
     style="fill:none;stroke:#000000;stroke-width:9.5903616px;stroke-linecap:butt;stroke-linejoin:miter;stroke-miterlimit:10;stroke-dasharray:none;stroke-opacity:1;" />
  <path
     id="path17"
     d="  M 176.18293,271.84678   L 183.93514,271.16747   C 184.29478,274.28433 185.13393,276.8018 186.45261,278.7998   C 187.81124,280.75783 189.88915,282.35622 192.68634,283.59498   C 195.48353,284.79377 198.64036,285.43313 202.15682,285.43313   C 205.27369,285.43313 208.03092,284.95361 210.42851,284.03453   C 212.8261,283.11546 214.58433,281.83674 215.74317,280.23835   C 216.94196,278.6 217.5014,276.84176 217.5014,274.92369   C 217.5014,273.00562 216.94196,271.28735 215.82309,269.84879   C 214.70421,268.41024 212.8261,267.17148 210.26867,266.21245   C 208.59036,265.57309 204.91405,264.57409 199.23976,263.1755   C 193.56546,261.81686 189.60944,260.53815 187.33172,259.33935   C 184.3747,257.78092 182.1769,255.86285 180.73835,253.58514   C 179.2998,251.30743 178.58052,248.71004 178.58052,245.87289   C 178.58052,242.75602 179.45964,239.87891 181.21787,237.16164   C 182.9761,234.44437 185.57349,232.36646 188.97008,230.96787   C 192.36666,229.56927 196.16285,228.85 200.31867,228.85   C 204.87409,228.85 208.91004,229.60923 212.4265,231.08775   C 215.94297,232.56626 218.62028,234.72409 220.49839,237.6012   C 222.3765,240.43835 223.3755,243.71506 223.53534,247.31144   L 215.70321,247.91084   C 215.26365,243.99478 213.86506,241.07771 211.42751,239.07972   C 208.98996,237.08172 205.39357,236.08273 200.63835,236.08273   C 195.68333,236.08273 192.08695,236.96184 189.84919,238.8   C 187.57148,240.59819 186.45261,242.79598 186.45261,245.35341   C 186.45261,247.5512 187.2518,249.38935 188.8502,250.82791   C 190.40863,252.26646 194.5245,253.74498 201.15783,255.22349   C 207.83112,256.74196 212.38654,258.06064 214.86405,259.17951   C 218.46044,260.81787 221.09779,262.93574 222.81606,265.45321   C 224.53433,268.01064 225.37349,270.92771 225.37349,274.24437   C 225.37349,277.56104 224.45441,280.63795 222.5763,283.55502   C 220.69819,286.47208 217.98092,288.70984 214.46445,290.34819   C 210.90803,291.94658 206.95201,292.74578 202.55642,292.74578   C 196.96205,292.74578 192.28674,291.94658 188.49056,290.30823   C 184.69437,288.66988 181.73735,286.23233 179.57952,282.95562   C 177.46164,279.67891 176.30281,276.00261 176.18293,271.84678   z  M 233.76506,271.84678   L 241.47731,271.16747   C 241.83694,274.28433 242.71606,276.8018 244.03474,278.7998   C 245.35341,280.75783 247.43132,282.35622 250.26847,283.59498   C 253.06566,284.79377 256.22249,285.43313 259.73895,285.43313   C 262.85582,285.43313 265.61305,284.95361 268.01064,284.03453   C 270.36827,283.11546 272.16646,281.83674 273.3253,280.23835   C 274.48413,278.6 275.08353,276.84176 275.08353,274.92369   C 275.08353,273.00562 274.52409,271.28735 273.40522,269.84879   C 272.28634,268.41024 270.40823,267.17148 267.81084,266.21245   C 266.17249,265.57309 262.49618,264.57409 256.82188,263.1755   C 251.14759,261.81686 247.19156,260.53815 244.91385,259.33935   C 241.95682,257.78092 239.75903,255.86285 238.32048,253.58514   C 236.84196,251.30743 236.12269,248.71004 236.12269,245.87289   C 236.12269,242.75602 237.0018,239.87891 238.8,237.16164   C 240.55823,234.44437 243.15562,232.36646 246.55221,230.96787   C 249.94879,229.56927 253.70502,228.85 257.86084,228.85   C 262.45622,228.85 266.49216,229.60923 270.00863,231.08775   C 273.48514,232.56626 276.20241,234.72409 278.08052,237.6012   C 279.95863,240.43835 280.95763,243.71506 281.11747,247.31144   L 273.24538,247.91084   C 272.84578,243.99478 271.40722,241.07771 268.96967,239.07972   C 266.57208,237.08172 262.9757,236.08273 258.22048,236.08273   C 253.26546,236.08273 249.66907,236.96184 247.39136,238.8   C 245.15361,240.59819 243.99478,242.79598 243.99478,245.35341   C 243.99478,247.5512 244.83393,249.38935 246.43233,250.82791   C 247.99076,252.26646 252.10662,253.74498 258.73996,255.22349   C 265.37329,256.74196 269.96867,258.06064 272.40622,259.17951   C 276.00261,260.81787 278.67992,262.93574 280.39819,265.45321   C 282.11646,268.01064 282.95562,270.92771 282.95562,274.24437   C 282.95562,277.56104 281.99658,280.63795 280.11847,283.55502   C 278.24036,286.47208 275.56305,288.70984 272.00662,290.34819   C 268.49016,291.94658 264.53413,292.74578 260.09859,292.74578   C 254.54417,292.74578 249.82891,291.94658 246.07269,290.30823   C 242.2765,288.66988 239.31947,286.23233 237.16164,282.95562   C 235.00381,279.67891 233.88494,276.00261 233.76506,271.84678   z  M 334.66365,229.92891   L 342.85542,229.92891   L 342.85542,265.61305   C 342.85542,271.80682 342.13614,276.76184 340.73755,280.39819   C 339.33895,284.07449 336.78152,287.03152 333.14518,289.30923   C 329.46887,291.6269 324.67369,292.74578 318.67971,292.74578   C 312.9255,292.74578 308.17028,291.74678 304.49397,289.74879   C 300.81767,287.79076 298.18032,284.87369 296.62188,281.11747   C 295.02349,277.32128 294.26425,272.16646 294.26425,265.61305   L 294.26425,229.92891   L 302.41606,229.92891   L 302.41606,265.57309   C 302.41606,270.92771 302.93554,274.88373 303.93453,277.44116   C 304.93353,279.99859 306.6518,281.95662 309.04939,283.31526   C 311.48694,284.71385 314.48393,285.39317 317.96044,285.39317   C 323.99437,285.39317 328.27008,284.03453 330.82751,281.27731   C 333.38493,278.56004 334.66365,273.3253 334.66365,265.57309   z "
     style="fill:#000000;fill-rule:evenodd;fill-opacity:1;stroke:none;" />
</svg>
