<?xml version="1.0" encoding="UTF-8" standalone="no"?>
<svg
   xmlns:dc="http://purl.org/dc/elements/1.1/"
   xmlns:cc="http://creativecommons.org/ns#"
   xmlns:rdf="http://www.w3.org/1999/02/22-rdf-syntax-ns#"
   xmlns:svg="http://www.w3.org/2000/svg"
   xmlns="http://www.w3.org/2000/svg"
   id="svg13"
   height="95.75mm"
   width="95.75mm"
   version="1.0">
  <metadata
     id="metadata17">
    <rdf:RDF>
      <cc:Work
         rdf:about="">
        <dc:format>image/svg+xml</dc:format>
        <dc:type
           rdf:resource="http://purl.org/dc/dcmitype/StillImage" />
      </cc:Work>
    </rdf:RDF>
  </metadata>
  <defs
     id="defs3">
    <pattern
       y="0"
       x="0"
       height="6"
       width="6"
       patternUnits="userSpaceOnUse"
       id="EMFhbasepattern" />
  </defs>
  <path
     id="path5"
     d="  M 54.345381,54.345381   L 54.345381,307.53092   L 307.53092,307.53092   L 307.53092,54.345381   L 54.345381,54.345381   z "
     style="fill:#aaffaa;fill-rule:evenodd;fill-opacity:1;stroke:none;" />
  <path
     id="path7"
     d="  M 54.345381,54.345381   L 307.53092,54.345381   L 307.53092,307.53092   L 54.345381,307.53092   z "
     style="fill:none;stroke:#000000;stroke-width:9.5903616px;stroke-linecap:butt;stroke-linejoin:miter;stroke-miterlimit:10;stroke-dasharray:none;stroke-opacity:1;" />
  <path
     id="path9"
     d="  M 123.6757,187.41164   L 123.6757,91.308232   L 136.38293,91.308232   L 136.38293,176.06305   L 183.69538,176.06305   L 183.69538,187.41164   L 123.6757,187.41164  z    M 198.32068,187.41164   L 198.32068,91.308232   L 211.06787,91.308232   L 211.06787,176.06305   L 258.38032,176.06305   L 258.38032,187.41164   L 198.32068,187.41164  z   "
     style="fill:#000000;fill-rule:evenodd;fill-opacity:1;stroke:none;" />
  <path
     id="path11"
     d="  M 112.80662,234.56425   L 118.36104,234.08474   C 118.64076,236.32249 119.24016,238.12068 120.1992,239.55923   C 121.15823,240.99779 122.67671,242.15662 124.6747,243.03574   C 126.71265,243.91486 128.99036,244.35441 131.54779,244.35441   C 133.78554,244.35441 135.78353,244.03474 137.50181,243.35542   C 139.22008,242.6761 140.49879,241.75702 141.33795,240.59819   C 142.21707,239.43935 142.61666,238.16064 142.61666,236.802   C 142.61666,235.40341 142.21707,234.16466 141.41787,233.1257   C 140.57871,232.08674 139.26004,231.20763 137.38193,230.48835   C 136.18313,230.00883 133.54578,229.28955 129.42992,228.29056   C 125.35401,227.33152 122.47691,226.41245 120.83855,225.53333   C 118.68072,224.41445 117.12229,223.01586 116.04337,221.37751   C 115.00442,219.69919 114.48494,217.86104 114.48494,215.82309   C 114.48494,213.54538 115.1243,211.46747 116.40301,209.50943   C 117.68173,207.5514 119.55984,206.07289 121.99739,205.03393   C 124.4749,204.03494 127.19217,203.51546 130.18915,203.51546   C 133.50582,203.51546 136.42289,204.03494 138.94036,205.11385   C 141.45783,206.19277 143.41586,207.7512 144.7745,209.82911   C 146.13313,211.86707 146.85241,214.2247 146.97229,216.86205   L 141.29799,217.26164   C 141.01827,214.46445 139.97932,212.30662 138.22108,210.86807   C 136.46285,209.42952 133.86546,208.71024 130.42891,208.71024   C 126.87249,208.71024 124.2751,209.38956 122.63675,210.66827   C 120.99839,211.98694 120.1992,213.58534 120.1992,215.42349   C 120.1992,217.02188 120.75863,218.34056 121.91747,219.37951   C 123.0763,220.41847 126.03333,221.45743 130.82851,222.53634   C 135.62369,223.65522 138.9004,224.57429 140.69859,225.41345   C 143.29598,226.61225 145.21405,228.13072 146.45281,229.96887   C 147.69156,231.80702 148.29096,233.88494 148.29096,236.28253   C 148.29096,238.68012 147.61164,240.91787 146.25301,242.99578   C 144.89438,245.11365 142.9763,246.752 140.41887,247.91084   C 137.86144,249.06968 134.98434,249.66907 131.82751,249.66907   C 127.79156,249.66907 124.39498,249.06968 121.67771,247.91084   C 118.92048,246.71204 116.80261,244.95381 115.24418,242.59618   C 113.68574,240.23855 112.88654,237.56124 112.80662,234.56425   z  M 185.65341,204.2747   L 191.56747,204.2747   L 191.56747,230.04879   C 191.56747,234.52429 191.04799,238.12068 190.04899,240.75803   C 189.01004,243.39538 187.21184,245.51325 184.53454,247.19156   C 181.89719,248.82992 178.42068,249.66907 174.10502,249.66907   C 169.94919,249.66907 166.51265,248.9498 163.8753,247.51124   C 161.19799,246.07269 159.31988,243.95482 158.16104,241.23755   C 157.04217,238.52028 156.48273,234.80401 156.48273,230.04879   L 156.48273,204.2747   L 162.35682,204.2747   L 162.35682,230.00883   C 162.35682,233.88494 162.71646,236.76204 163.43574,238.6002   C 164.15502,240.43835 165.39377,241.83694 167.15201,242.83594   C 168.91024,243.83494 171.06807,244.31445 173.58554,244.31445   C 177.94116,244.31445 181.05803,243.35542 182.89618,241.39739   C 184.73433,239.39939 185.65341,235.64317 185.65341,230.00883   z  M 209.18976,248.90984   L 197.36164,204.2747   L 203.39558,204.2747   L 210.18875,233.5253   C 210.90803,236.60221 211.54739,239.63915 212.06686,242.6761   C 213.2257,237.88092 213.90502,235.12369 214.10482,234.40441   L 222.5763,204.2747   L 229.68915,204.2747   L 236.08273,226.852   C 237.68112,232.44638 238.83996,237.72108 239.55923,242.6761   C 240.11867,239.83895 240.87791,236.60221 241.79698,232.96586   L 248.78996,204.2747   L 254.70401,204.2747   L 242.4763,248.90984   L 236.802,248.90984   L 227.37148,214.90401   C 226.61225,212.06686 226.13273,210.30863 225.97289,209.66927   C 225.53333,211.70723 225.09377,213.46546 224.69417,214.90401   L 215.22369,248.90984   z "
     style="fill:#000000;fill-rule:evenodd;fill-opacity:1;stroke:none;" />
</svg>
