<?xml version="1.0" encoding="UTF-8" standalone="no"?>
<svg
   xmlns:dc="http://purl.org/dc/elements/1.1/"
   xmlns:cc="http://creativecommons.org/ns#"
   xmlns:rdf="http://www.w3.org/1999/02/22-rdf-syntax-ns#"
   xmlns:svg="http://www.w3.org/2000/svg"
   xmlns="http://www.w3.org/2000/svg"
   id="svg19"
   height="125.53mm"
   width="95.75mm"
   version="1.0">
  <metadata
     id="metadata23">
    <rdf:RDF>
      <cc:Work
         rdf:about="">
        <dc:format>image/svg+xml</dc:format>
        <dc:type
           rdf:resource="http://purl.org/dc/dcmitype/StillImage" />
      </cc:Work>
    </rdf:RDF>
  </metadata>
  <defs
     id="defs3">
    <pattern
       y="0"
       x="0"
       height="6"
       width="6"
       patternUnits="userSpaceOnUse"
       id="EMFhbasepattern" />
  </defs>
  <path
     id="path5"
     d="  M 307.53092,420.05783   C 307.53092,54.665059 54.345381,54.665059 54.345381,420.05783   z "
     style="fill:#80e0ff;fill-rule:evenodd;fill-opacity:1;stroke:none;" />
  <path
     id="path7"
     d="  M 307.53092,420.05783   C 307.53092,54.665059 54.345381,54.665059 54.345381,420.05783  "
     style="fill:none;stroke:#000000;stroke-width:9.5903616px;stroke-linecap:butt;stroke-linejoin:miter;stroke-miterlimit:10;stroke-dasharray:none;stroke-opacity:1;" />
  <path
     id="path9"
     d="  M 166.55261,271.40722   L 166.55261,271.40722   L 166.55261,218.66024   L 180.93815,194.68433   L 195.32369,218.66024   L 195.32369,271.40722   z "
     style="fill:#ffff80;fill-rule:evenodd;fill-opacity:1;stroke:none;" />
  <path
     id="path11"
     d="  M 166.55261,271.40722   L 166.55261,271.40722   L 166.55261,218.66024   L 180.93815,194.68433   L 195.32369,218.66024   L 195.32369,271.40722  "
     style="fill:none;stroke:#000000;stroke-width:9.5903616px;stroke-linecap:butt;stroke-linejoin:miter;stroke-miterlimit:10;stroke-dasharray:none;stroke-opacity:1;" />
  <path
     id="path13"
     d="  M 195.32369,343.33493   L 195.32369,343.33493   L 195.32369,357.72048   L 209.70923,372.10602   L 209.70923,400.8771   L 180.93815,372.10602   L 152.16707,400.8771   L 152.16707,372.10602   L 166.55261,357.72048   L 166.55261,343.33493   z "
     style="fill:#ffff80;fill-rule:evenodd;fill-opacity:1;stroke:none;" />
  <path
     id="path15"
     d="  M 195.32369,343.33493   L 195.32369,343.33493   L 195.32369,357.72048   L 209.70923,372.10602   L 209.70923,400.8771   L 180.93815,372.10602   L 152.16707,400.8771   L 152.16707,372.10602   L 166.55261,357.72048   L 166.55261,343.33493  "
     style="fill:none;stroke:#000000;stroke-width:9.5903616px;stroke-linecap:butt;stroke-linejoin:miter;stroke-miterlimit:10;stroke-dasharray:none;stroke-opacity:1;" />
  <path
     id="path17"
     d="  M 101.37811,307.6508   L 109.13032,306.97148   C 109.48996,310.08835 110.32911,312.60582 111.64779,314.60381   C 113.00642,316.56184 115.08434,318.16024 117.88152,319.39899   C 120.67871,320.59779 123.83554,321.23714 127.35201,321.23714   C 130.46887,321.23714 133.2261,320.75763 135.62369,319.83855   C 138.02128,318.91947 139.77952,317.64076 140.93835,316.04236   C 142.13715,314.40401 142.69658,312.64578 142.69658,310.72771   C 142.69658,308.80963 142.13715,307.09136 141.01827,305.65281   C 139.8994,304.21425 138.02128,302.9755 135.46385,302.01646   C 133.78554,301.3771 130.10924,300.37811 124.43494,298.97951   C 118.76064,297.62088 114.80462,296.34216 112.52691,295.14337   C 109.56988,293.58494 107.37209,291.66686 105.93353,289.38915   C 104.49498,287.11144 103.7757,284.51405 103.7757,281.6769   C 103.7757,278.56004 104.65482,275.68293 106.41305,272.96566   C 108.17128,270.24839 110.76867,268.17048 114.16526,266.77188   C 117.56185,265.37329 121.35803,264.65401 125.51385,264.65401   C 130.06928,264.65401 134.10522,265.41325 137.62168,266.89176   C 141.13815,268.37028 143.81546,270.52811 145.69357,273.40522   C 147.57168,276.24237 148.57068,279.51907 148.73052,283.11546   L 140.89839,283.71486   C 140.45883,279.79879 139.06024,276.88172 136.62269,274.88373   C 134.18514,272.88574 130.58875,271.88674 125.83353,271.88674   C 120.87851,271.88674 117.28213,272.76586 115.04438,274.60401   C 112.76667,276.4022 111.64779,278.6 111.64779,281.15743   C 111.64779,283.35522 112.44699,285.19337 114.04538,286.63192   C 115.60381,288.07048 119.71968,289.54899 126.35301,291.02751   C 133.0263,292.54598 137.58172,293.86465 140.05923,294.98353   C 143.65562,296.62188 146.29297,298.73975 148.01124,301.25722   C 149.72952,303.81465 150.56867,306.73172 150.56867,310.04839   C 150.56867,313.36506 149.6496,316.44196 147.77148,319.35903   C 145.89337,322.2761 143.1761,324.51385 139.65964,326.1522   C 136.10321,327.7506 132.14719,328.54979 127.7516,328.54979   C 122.15723,328.54979 117.48193,327.7506 113.68574,326.11224   C 109.88956,324.47389 106.93253,322.03634 104.7747,318.75963   C 102.65683,315.48293 101.49799,311.80662 101.37811,307.6508   z  M 158.96024,307.6508   L 166.67249,306.97148   C 167.03213,310.08835 167.91124,312.60582 169.22992,314.60381   C 170.54859,316.56184 172.6265,318.16024 175.46365,319.39899   C 178.26084,320.59779 181.41767,321.23714 184.93413,321.23714   C 188.051,321.23714 190.80823,320.75763 193.20582,319.83855   C 195.56345,318.91947 197.36164,317.64076 198.52048,316.04236   C 199.67931,314.40401 200.27871,312.64578 200.27871,310.72771   C 200.27871,308.80963 199.71927,307.09136 198.6004,305.65281   C 197.48152,304.21425 195.60341,302.9755 193.00602,302.01646   C 191.36767,301.3771 187.69136,300.37811 182.01707,298.97951   C 176.34277,297.62088 172.38674,296.34216 170.10903,295.14337   C 167.15201,293.58494 164.95421,291.66686 163.51566,289.38915   C 162.03715,287.11144 161.31787,284.51405 161.31787,281.6769   C 161.31787,278.56004 162.19699,275.68293 163.99518,272.96566   C 165.75341,270.24839 168.3508,268.17048 171.74739,266.77188   C 175.14397,265.37329 178.9002,264.65401 183.05602,264.65401   C 187.6514,264.65401 191.68735,265.41325 195.20381,266.89176   C 198.68032,268.37028 201.39759,270.52811 203.2757,273.40522   C 205.15381,276.24237 206.15281,279.51907 206.31265,283.11546   L 198.44056,283.71486   C 198.04096,279.79879 196.60241,276.88172 194.16486,274.88373   C 191.76727,272.88574 188.17088,271.88674 183.41566,271.88674   C 178.46064,271.88674 174.86425,272.76586 172.58654,274.60401   C 170.34879,276.4022 169.18996,278.6 169.18996,281.15743   C 169.18996,283.35522 170.02911,285.19337 171.62751,286.63192   C 173.18594,288.07048 177.3018,289.54899 183.93514,291.02751   C 190.56847,292.54598 195.16385,293.86465 197.6014,294.98353   C 201.19779,296.62188 203.8751,298.73975 205.59337,301.25722   C 207.31164,303.81465 208.1508,306.73172 208.1508,310.04839   C 208.1508,313.36506 207.19176,316.44196 205.31365,319.35903   C 203.43554,322.2761 200.75823,324.51385 197.2018,326.1522   C 193.68534,327.7506 189.72931,328.54979 185.29377,328.54979   C 179.73935,328.54979 175.02409,327.7506 171.26787,326.11224   C 167.47168,324.47389 164.51466,322.03634 162.35682,318.75963   C 160.19899,315.48293 159.08012,311.80662 158.96024,307.6508   z  M 259.85883,265.73293   L 268.0506,265.73293   L 268.0506,301.41706   C 268.0506,307.61084 267.33132,312.56586 265.93273,316.2022   C 264.53413,319.87851 261.9767,322.83554 258.34036,325.11325   C 254.66405,327.43092 249.86887,328.54979 243.8749,328.54979   C 238.12068,328.54979 233.36546,327.5508 229.68915,325.55281   C 226.01285,323.59477 223.3755,320.67771 221.81707,316.92148   C 220.21867,313.1253 219.45943,307.97048 219.45943,301.41706   L 219.45943,265.73293   L 227.61124,265.73293   L 227.61124,301.3771   C 227.61124,306.73172 228.13072,310.68775 229.12972,313.24518   C 230.12871,315.80261 231.84698,317.76064 234.24457,319.11927   C 236.68213,320.51787 239.67911,321.19718 243.15562,321.19718   C 249.18955,321.19718 253.46526,319.83855 256.02269,317.08132   C 258.58012,314.36405 259.85883,309.12931 259.85883,301.3771   z "
     style="fill:#000000;fill-rule:evenodd;fill-opacity:1;stroke:none;" />
</svg>
