<?xml version="1.0" encoding="UTF-8" standalone="no"?>
<svg
   xmlns:dc="http://purl.org/dc/elements/1.1/"
   xmlns:cc="http://creativecommons.org/ns#"
   xmlns:rdf="http://www.w3.org/1999/02/22-rdf-syntax-ns#"
   xmlns:svg="http://www.w3.org/2000/svg"
   xmlns="http://www.w3.org/2000/svg"
   id="svg25"
   height="130.27mm"
   width="130.27mm"
   version="1.0">
  <metadata
     id="metadata29">
    <rdf:RDF>
      <cc:Work
         rdf:about="">
        <dc:format>image/svg+xml</dc:format>
        <dc:type
           rdf:resource="http://purl.org/dc/dcmitype/StillImage" />
      </cc:Work>
    </rdf:RDF>
  </metadata>
  <defs
     id="defs3">
    <pattern
       y="0"
       x="0"
       height="6"
       width="6"
       patternUnits="userSpaceOnUse"
       id="EMFhbasepattern" />
  </defs>
  <path
     id="path5"
     d="  M 164.63454,327.67068   C 164.63454,437.95983 327.67068,437.95983 327.67068,327.67068   C 437.95983,327.67068 437.95983,164.63454 327.67068,164.63454   C 327.67068,54.345381 164.63454,54.345381 164.63454,164.63454   C 54.345381,164.63454 54.345381,327.67068 164.63454,327.67068   z "
     style="fill:#ffff80;fill-rule:evenodd;fill-opacity:1;stroke:none;" />
  <path
     id="path7"
     d="  M 164.63454,327.67068   C 164.63454,437.95983 327.67068,437.95983 327.67068,327.67068   C 437.95983,327.67068 437.95983,164.63454 327.67068,164.63454   C 327.67068,54.345381 164.63454,54.345381 164.63454,164.63454   C 54.345381,164.63454 54.345381,327.67068 164.63454,327.67068  "
     style="fill:none;stroke:#000000;stroke-width:9.5903616px;stroke-linecap:butt;stroke-linejoin:miter;stroke-miterlimit:10;stroke-dasharray:none;stroke-opacity:1;" />
  <path
     id="path9"
     d="  M 169.42972,226.97188   L 169.42972,226.97188   L 207.79116,183.81526   L 207.79116,270.12851   z "
     style="fill:#000000;fill-rule:evenodd;fill-opacity:1;stroke:none;" />
  <path
     id="path11"
     d="  M 169.42972,226.97188   L 169.42972,226.97188   L 207.79116,183.81526   L 207.79116,270.12851   z "
     style="fill:none;stroke:#000000;stroke-width:9.5903616px;stroke-linecap:butt;stroke-linejoin:miter;stroke-miterlimit:10;stroke-dasharray:none;stroke-opacity:1;" />
  <path
     id="path13"
     d="  M 226.97188,226.97188   L 226.97188,226.97188   L 265.33333,183.81526   L 265.33333,270.12851   z "
     style="fill:#000000;fill-rule:evenodd;fill-opacity:1;stroke:none;" />
  <path
     id="path15"
     d="  M 226.97188,226.97188   L 226.97188,226.97188   L 265.33333,183.81526   L 265.33333,270.12851   z "
     style="fill:none;stroke:#000000;stroke-width:9.5903616px;stroke-linecap:butt;stroke-linejoin:miter;stroke-miterlimit:10;stroke-dasharray:none;stroke-opacity:1;" />
  <path
     id="path17"
     d="  M 284.51405,226.97188   L 284.51405,226.97188   L 322.8755,183.81526   L 322.8755,270.12851   z "
     style="fill:#000000;fill-rule:evenodd;fill-opacity:1;stroke:none;" />
  <path
     id="path19"
     d="  M 284.51405,226.97188   L 284.51405,226.97188   L 322.8755,183.81526   L 322.8755,270.12851   z "
     style="fill:none;stroke:#000000;stroke-width:9.5903616px;stroke-linecap:butt;stroke-linejoin:miter;stroke-miterlimit:10;stroke-dasharray:none;stroke-opacity:1;" />
  <path
     id="path21"
     d="  M 169.42972,294.10441   L 169.42972,313.28514   L 322.8755,313.28514   L 322.8755,294.10441   L 169.42972,294.10441   z "
     style="fill:#000000;fill-rule:evenodd;fill-opacity:1;stroke:none;" />
  <path
     id="path23"
     d="  M 169.42972,294.10441   L 322.8755,294.10441   L 322.8755,313.28514   L 169.42972,313.28514   z "
     style="fill:none;stroke:#000000;stroke-width:9.5903616px;stroke-linecap:butt;stroke-linejoin:miter;stroke-miterlimit:10;stroke-dasharray:none;stroke-opacity:1;" />
</svg>
