<?xml version="1.0" encoding="UTF-8" standalone="no"?>
<svg
   xmlns:dc="http://purl.org/dc/elements/1.1/"
   xmlns:cc="http://creativecommons.org/ns#"
   xmlns:rdf="http://www.w3.org/1999/02/22-rdf-syntax-ns#"
   xmlns:svg="http://www.w3.org/2000/svg"
   xmlns="http://www.w3.org/2000/svg"
   id="svg13"
   height="101.85mm"
   width="101.85mm"
   version="1.0">
  <metadata
     id="metadata17">
    <rdf:RDF>
      <cc:Work
         rdf:about="">
        <dc:format>image/svg+xml</dc:format>
        <dc:type
           rdf:resource="http://purl.org/dc/dcmitype/StillImage" />
      </cc:Work>
    </rdf:RDF>
  </metadata>
  <defs
     id="defs3">
    <pattern
       y="0"
       x="0"
       height="6"
       width="6"
       patternUnits="userSpaceOnUse"
       id="EMFhbasepattern" />
  </defs>
  <path
     id="path5"
     d="  M 330.54779,192.44658   C 330.54779,268.72992 268.72992,330.54779 192.44658,330.54779   C 116.20321,330.54779 54.345381,268.72992 54.345381,192.44658   C 54.345381,116.20321 116.20321,54.345381 192.44658,54.345381   C 268.72992,54.345381 330.54779,116.20321 330.54779,192.44658   z "
     style="fill:#80e0ff;fill-rule:evenodd;fill-opacity:1;stroke:none;" />
  <path
     id="path7"
     d="  M 330.54779,192.44658   C 330.54779,268.72992 268.72992,330.54779 192.44658,330.54779   C 116.20321,330.54779 54.345381,268.72992 54.345381,192.44658   C 54.345381,116.20321 116.20321,54.345381 192.44658,54.345381   C 268.72992,54.345381 330.54779,116.20321 330.54779,192.44658  "
     style="fill:none;stroke:#000000;stroke-width:9.5903616px;stroke-linecap:butt;stroke-linejoin:miter;stroke-miterlimit:10;stroke-dasharray:none;stroke-opacity:1;" />
  <path
     id="path9"
     d="  M 135.18413,198.92008   L 135.18413,102.81667   L 147.89136,102.81667   L 147.89136,187.57148   L 195.20381,187.57148   L 195.20381,198.92008   L 135.18413,198.92008  z    M 209.82911,198.92008   L 209.82911,102.81667   L 222.5763,102.81667   L 222.5763,187.57148   L 269.88875,187.57148   L 269.88875,198.92008   L 209.82911,198.92008  z   "
     style="fill:#000000;fill-rule:evenodd;fill-opacity:1;stroke:none;" />
  <path
     id="path11"
     d="  M 124.31506,246.07269   L 129.86948,245.59317   C 130.14919,247.83092 130.74859,249.62911 131.70763,251.06767   C 132.66666,252.50622 134.18514,253.66506 136.18313,254.54417   C 138.22108,255.42329 140.49879,255.86285 143.05622,255.86285   C 145.29397,255.86285 147.29197,255.54317 149.01024,254.86385   C 150.72851,254.18453 152.00723,253.26546 152.84638,252.10662   C 153.7255,250.94779 154.1251,249.66907 154.1251,248.31044   C 154.1251,246.91184 153.7255,245.67309 152.9263,244.63413   C 152.08715,243.59518 150.76847,242.71606 148.89036,241.99678   C 147.69156,241.51727 145.05421,240.79799 140.93835,239.79899   C 136.86245,238.83996 133.98534,237.92088 132.34699,237.04176   C 130.18915,235.92289 128.63072,234.52429 127.55181,232.88594   C 126.51285,231.20763 125.99337,229.36947 125.99337,227.33152   C 125.99337,225.05381 126.63273,222.9759 127.91144,221.01787   C 129.19016,219.05984 131.06827,217.58132 133.50582,216.54237   C 135.98333,215.54337 138.7006,215.02389 141.69759,215.02389   C 145.01425,215.02389 147.93132,215.54337 150.44879,216.62229   C 152.96626,217.7012 154.92429,219.25964 156.28293,221.33755   C 157.64156,223.3755 158.36084,225.73313 158.48072,228.37048   L 152.80642,228.77008   C 152.5267,225.97289 151.48775,223.81506 149.72952,222.3765   C 147.97128,220.93795 145.37389,220.21867 141.93735,220.21867   C 138.38092,220.21867 135.78353,220.89799 134.14518,222.1767   C 132.50683,223.49538 131.70763,225.09377 131.70763,226.93192   C 131.70763,228.53032 132.26707,229.84899 133.4259,230.88795   C 134.58474,231.9269 137.54177,232.96586 142.33695,234.04478   C 147.13213,235.16365 150.40883,236.08273 152.20703,236.92188   C 154.80442,238.12068 156.72249,239.63915 157.96124,241.47731   C 159.2,243.31546 159.7994,245.39337 159.7994,247.79096   C 159.7994,250.18855 159.12008,252.4263 157.76144,254.50421   C 156.40281,256.62208 154.48474,258.26044 151.92731,259.41927   C 149.36988,260.57811 146.49277,261.17751 143.33594,261.17751   C 139.3,261.17751 135.90341,260.57811 133.18614,259.41927   C 130.42891,258.22048 128.31104,256.46225 126.75261,254.10461   C 125.19417,251.74698 124.39498,249.06968 124.31506,246.07269   z  M 197.16184,215.78313   L 203.0759,215.78313   L 203.0759,241.55723   C 203.0759,246.03273 202.55642,249.62911 201.55743,252.26646   C 200.51847,254.90381 198.72028,257.02168 196.04297,258.7   C 193.40562,260.33835 189.92911,261.17751 185.61345,261.17751   C 181.45763,261.17751 178.02108,260.45823 175.38373,259.01967   C 172.70642,257.58112 170.82831,255.46325 169.66948,252.74598   C 168.5506,250.02871 167.99116,246.31245 167.99116,241.55723   L 167.99116,215.78313   L 173.86526,215.78313   L 173.86526,241.51727   C 173.86526,245.39337 174.2249,248.27048 174.94417,250.10863   C 175.66345,251.94678 176.90221,253.34538 178.66044,254.34437   C 180.41867,255.34337 182.5765,255.82289 185.09397,255.82289   C 189.4496,255.82289 192.56646,254.86385 194.40462,252.90582   C 196.24277,250.90783 197.16184,247.1516 197.16184,241.51727   z  M 220.69819,260.41827   L 208.87008,215.78313   L 214.90401,215.78313   L 221.69719,245.03373   C 222.41646,248.11064 223.05582,251.14759 223.5753,254.18453   C 224.73413,249.38935 225.41345,246.63212 225.61325,245.91285   L 234.08474,215.78313   L 241.19759,215.78313   L 247.59116,238.36044   C 249.18955,243.95482 250.34839,249.22951 251.06767,254.18453   C 251.6271,251.34739 252.38634,248.11064 253.30542,244.47429   L 260.29839,215.78313   L 266.21245,215.78313   L 253.98474,260.41827   L 248.31044,260.41827   L 238.87992,226.41245   C 238.12068,223.5753 237.64116,221.81707 237.48132,221.17771   C 237.04176,223.21566 236.60221,224.97389 236.20261,226.41245   L 226.73213,260.41827   z "
     style="fill:#000000;fill-rule:evenodd;fill-opacity:1;stroke:none;" />
</svg>
