<?xml version="1.0" encoding="UTF-8" standalone="no"?>
<svg
   xmlns:dc="http://purl.org/dc/elements/1.1/"
   xmlns:cc="http://creativecommons.org/ns#"
   xmlns:rdf="http://www.w3.org/1999/02/22-rdf-syntax-ns#"
   xmlns:svg="http://www.w3.org/2000/svg"
   xmlns="http://www.w3.org/2000/svg"
   id="svg11"
   height="112.9mm"
   width="112.9mm"
   version="1.0">
  <metadata
     id="metadata15">
    <rdf:RDF>
      <cc:Work
         rdf:about="">
        <dc:format>image/svg+xml</dc:format>
        <dc:type
           rdf:resource="http://purl.org/dc/dcmitype/StillImage" />
      </cc:Work>
    </rdf:RDF>
  </metadata>
  <defs
     id="defs3">
    <pattern
       y="0"
       x="0"
       height="6"
       width="6"
       patternUnits="userSpaceOnUse"
       id="EMFhbasepattern" />
  </defs>
  <path
     id="path5"
     d="  M 2611.1343,2611.1343   L 2611.1343,2951.4713   L 2951.4713,2951.4713   L 2951.4713,2611.1343   z "
     style="fill:none;stroke:#000000;stroke-width:15.94093px;stroke-linecap:butt;stroke-linejoin:miter;stroke-miterlimit:282;stroke-dasharray:none;stroke-opacity:1;" />
  <path
     id="path7"
     d="  M 2813.2035,2738.7748   C 2813.2035,2756.3739 2798.9207,2770.6567 2781.2839,2770.6567   C 2763.6849,2770.6567 2749.4021,2756.3739 2749.4021,2738.7748   C 2749.4021,2721.138 2763.6849,2706.8553 2781.2839,2706.8553   C 2798.9207,2706.8553 2813.2035,2721.138 2813.2035,2738.7748   z "
     style="fill:#000000;fill-rule:nonzero;fill-opacity:1;stroke:none;" />
  <path
     id="path9"
     d="  M 2813.2035,2823.8308   C 2813.2035,2841.4676 2798.9207,2855.7503 2781.2839,2855.7503   C 2763.6849,2855.7503 2749.4021,2841.4676 2749.4021,2823.8308   C 2749.4021,2806.2317 2763.6849,2791.9489 2781.2839,2791.9489   C 2798.9207,2791.9489 2813.2035,2806.2317 2813.2035,2823.8308   z "
     style="fill:#000000;fill-rule:nonzero;fill-opacity:1;stroke:none;" />
</svg>
