<?xml version="1.0" encoding="UTF-8" standalone="no"?>
<svg
   xmlns:dc="http://purl.org/dc/elements/1.1/"
   xmlns:cc="http://creativecommons.org/ns#"
   xmlns:rdf="http://www.w3.org/1999/02/22-rdf-syntax-ns#"
   xmlns:svg="http://www.w3.org/2000/svg"
   xmlns="http://www.w3.org/2000/svg"
   id="svg13"
   height="116.73mm"
   width="116.73mm"
   version="1.0">
  <metadata
     id="metadata17">
    <rdf:RDF>
      <cc:Work
         rdf:about="">
        <dc:format>image/svg+xml</dc:format>
        <dc:type
           rdf:resource="http://purl.org/dc/dcmitype/StillImage" />
      </cc:Work>
    </rdf:RDF>
  </metadata>
  <defs
     id="defs3">
    <pattern
       y="0"
       x="0"
       height="6"
       width="6"
       patternUnits="userSpaceOnUse"
       id="EMFhbasepattern" />
  </defs>
  <path
     id="path5"
     d="  M 220.57831,386.49156   L 220.57831,386.49156   L 386.49156,220.57831   L 220.57831,54.665059   L 54.665059,220.57831   z "
     style="fill:#ff8080;fill-rule:evenodd;fill-opacity:1;stroke:none;" />
  <path
     id="path7"
     d="  M 220.57831,386.49156   L 220.57831,386.49156   L 386.49156,220.57831   L 220.57831,54.665059   L 54.665059,220.57831   z "
     style="fill:none;stroke:#000000;stroke-width:9.5903616px;stroke-linecap:butt;stroke-linejoin:miter;stroke-miterlimit:10;stroke-dasharray:none;stroke-opacity:1;" />
  <path
     id="path9"
     d="  M 163.31586,227.0518   L 163.31586,130.94839   L 176.02309,130.94839   L 176.02309,215.70321   L 223.33554,215.70321   L 223.33554,227.0518   L 163.31586,227.0518  z    M 237.96084,227.0518   L 237.96084,130.94839   L 250.70803,130.94839   L 250.70803,215.70321   L 298.02048,215.70321   L 298.02048,227.0518   L 237.96084,227.0518  z   "
     style="fill:#000000;fill-rule:evenodd;fill-opacity:1;stroke:none;" />
  <path
     id="path11"
     d="  M 152.44678,274.20441   L 158.0012,273.7249   C 158.28092,275.96265 158.88032,277.76084 159.83936,279.19939   C 160.79839,280.63795 162.31687,281.79678 164.31486,282.6759   C 166.35281,283.55502 168.63052,283.99457 171.18795,283.99457   C 173.4257,283.99457 175.42369,283.6749 177.14197,282.99558   C 178.86024,282.31626 180.13895,281.39718 180.97811,280.23835   C 181.85723,279.07951 182.25682,277.8008 182.25682,276.44216   C 182.25682,275.04357 181.85723,273.80482 181.05803,272.76586   C 180.21887,271.7269 178.9002,270.84779 177.02209,270.12851   C 175.82329,269.64899 173.18594,268.92971 169.07008,267.93072   C 164.99417,266.97168 162.11707,266.05261 160.47871,265.17349   C 158.32088,264.05461 156.76245,262.65602 155.68353,261.01767   C 154.64458,259.33935 154.1251,257.5012 154.1251,255.46325   C 154.1251,253.18554 154.76446,251.10763 156.04317,249.14959   C 157.32189,247.19156 159.2,245.71305 161.63755,244.67409   C 164.11506,243.6751 166.83233,243.15562 169.82931,243.15562   C 173.14598,243.15562 176.06305,243.6751 178.58052,244.75401   C 181.09799,245.83293 183.05602,247.39136 184.41466,249.46927   C 185.77329,251.50723 186.49257,253.86486 186.61245,256.50221   L 180.93815,256.9018   C 180.65843,254.10461 179.61948,251.94678 177.86124,250.50823   C 176.10301,249.06968 173.50562,248.3504 170.06907,248.3504   C 166.51265,248.3504 163.91526,249.02972 162.27691,250.30843   C 160.63855,251.6271 159.83936,253.2255 159.83936,255.06365   C 159.83936,256.66204 160.39879,257.98072 161.55763,259.01967   C 162.71646,260.05863 165.67349,261.09759 170.46867,262.1765   C 175.26385,263.29538 178.54056,264.21445 180.33875,265.05361   C 182.93614,266.25241 184.85421,267.77088 186.09297,269.60903   C 187.33172,271.44718 187.93112,273.5251 187.93112,275.92269   C 187.93112,278.32028 187.2518,280.55803 185.89317,282.63594   C 184.53454,284.75381 182.61646,286.39216 180.05903,287.551   C 177.5016,288.70984 174.6245,289.30923 171.46767,289.30923   C 167.43172,289.30923 164.03514,288.70984 161.31787,287.551   C 158.56064,286.3522 156.44277,284.59397 154.88434,282.23634   C 153.3259,279.87871 152.5267,277.2014 152.44678,274.20441   z  M 225.29357,243.91486   L 231.20763,243.91486   L 231.20763,269.68895   C 231.20763,274.16445 230.68815,277.76084 229.68915,280.39819   C 228.6502,283.03554 226.852,285.15341 224.1747,286.83172   C 221.53735,288.47008 218.06084,289.30923 213.74518,289.30923   C 209.58935,289.30923 206.15281,288.58996 203.51546,287.1514   C 200.83815,285.71285 198.96004,283.59498 197.8012,280.87771   C 196.68233,278.16044 196.12289,274.44417 196.12289,269.68895   L 196.12289,243.91486   L 201.99699,243.91486   L 201.99699,269.64899   C 201.99699,273.5251 202.35662,276.4022 203.0759,278.24036   C 203.79518,280.07851 205.03393,281.4771 206.79217,282.4761   C 208.5504,283.4751 210.70823,283.95461 213.2257,283.95461   C 217.58132,283.95461 220.69819,282.99558 222.53634,281.03755   C 224.37449,279.03955 225.29357,275.28333 225.29357,269.64899   z  M 248.82992,288.55   L 237.0018,243.91486   L 243.03574,243.91486   L 249.82891,273.16546   C 250.54819,276.24237 251.18755,279.27931 251.70702,282.31626   C 252.86586,277.52108 253.54518,274.76385 253.74498,274.04457   L 262.21646,243.91486   L 269.32931,243.91486   L 275.72289,266.49216   C 277.32128,272.08654 278.48012,277.36124 279.19939,282.31626   C 279.75883,279.47911 280.51807,276.24237 281.43714,272.60602   L 288.43012,243.91486   L 294.34417,243.91486   L 282.11646,288.55   L 276.44216,288.55   L 267.01164,254.54417   C 266.25241,251.70702 265.77289,249.94879 265.61305,249.30943   C 265.17349,251.34739 264.73393,253.10562 264.33433,254.54417   L 254.86385,288.55   z "
     style="fill:#000000;fill-rule:evenodd;fill-opacity:1;stroke:none;" />
</svg>
