<?xml version="1.0" encoding="UTF-8" standalone="no"?>
<svg
   xmlns:dc="http://purl.org/dc/elements/1.1/"
   xmlns:cc="http://creativecommons.org/ns#"
   xmlns:rdf="http://www.w3.org/1999/02/22-rdf-syntax-ns#"
   xmlns:svg="http://www.w3.org/2000/svg"
   xmlns="http://www.w3.org/2000/svg"
   id="svg13"
   height="130.27mm"
   width="130.27mm"
   version="1.0">
  <metadata
     id="metadata17">
    <rdf:RDF>
      <cc:Work
         rdf:about="">
        <dc:format>image/svg+xml</dc:format>
        <dc:type
           rdf:resource="http://purl.org/dc/dcmitype/StillImage" />
      </cc:Work>
    </rdf:RDF>
  </metadata>
  <defs
     id="defs3">
    <pattern
       y="0"
       x="0"
       height="6"
       width="6"
       patternUnits="userSpaceOnUse"
       id="EMFhbasepattern" />
  </defs>
  <path
     id="path5"
     d="  M 164.63454,327.67068   C 164.63454,437.95983 327.67068,437.95983 327.67068,327.67068   C 437.95983,327.67068 437.95983,164.63454 327.67068,164.63454   C 327.67068,54.345381 164.63454,54.345381 164.63454,164.63454   C 54.345381,164.63454 54.345381,327.67068 164.63454,327.67068   z "
     style="fill:#ffff80;fill-rule:evenodd;fill-opacity:1;stroke:none;" />
  <path
     id="path7"
     d="  M 164.63454,327.67068   C 164.63454,437.95983 327.67068,437.95983 327.67068,327.67068   C 437.95983,327.67068 437.95983,164.63454 327.67068,164.63454   C 327.67068,54.345381 164.63454,54.345381 164.63454,164.63454   C 54.345381,164.63454 54.345381,327.67068 164.63454,327.67068  "
     style="fill:none;stroke:#000000;stroke-width:9.5903616px;stroke-linecap:butt;stroke-linejoin:miter;stroke-miterlimit:10;stroke-dasharray:none;stroke-opacity:1;" />
  <path
     id="path9"
     d="  M 188.89016,252.6261   L 188.89016,156.52269   L 201.59739,156.52269   L 201.59739,241.27751   L 248.90984,241.27751   L 248.90984,252.6261   L 188.89016,252.6261  z    M 263.53514,252.6261   L 263.53514,156.52269   L 276.28233,156.52269   L 276.28233,241.27751   L 323.59477,241.27751   L 323.59477,252.6261   L 263.53514,252.6261  z   "
     style="fill:#000000;fill-rule:evenodd;fill-opacity:1;stroke:none;" />
  <path
     id="path11"
     d="  M 178.02108,299.77871   L 183.5755,299.29919   C 183.85522,301.53694 184.45462,303.33514 185.41365,304.77369   C 186.37269,306.21224 187.89116,307.37108 189.88915,308.2502   C 191.92711,309.12931 194.20482,309.56887 196.76225,309.56887   C 199,309.56887 200.99799,309.24919 202.71626,308.56988   C 204.43454,307.89056 205.71325,306.97148 206.55241,305.81265   C 207.43152,304.65381 207.83112,303.3751 207.83112,302.01646   C 207.83112,300.61787 207.43152,299.37911 206.63233,298.34016   C 205.79317,297.3012 204.4745,296.42208 202.59638,295.70281   C 201.39759,295.22329 198.76024,294.50401 194.64437,293.50502   C 190.56847,292.54598 187.69136,291.6269 186.05301,290.74779   C 183.89518,289.62891 182.33674,288.23032 181.25783,286.59196   C 180.21887,284.91365 179.69939,283.0755 179.69939,281.03755   C 179.69939,278.75984 180.33875,276.68192 181.61747,274.72389   C 182.89618,272.76586 184.77429,271.28735 187.21184,270.24839   C 189.68935,269.24939 192.40662,268.72992 195.40361,268.72992   C 198.72028,268.72992 201.63735,269.24939 204.15482,270.32831   C 206.67229,271.40722 208.63032,272.96566 209.98895,275.04357   C 211.34759,277.08152 212.06686,279.43915 212.18674,282.0765   L 206.51245,282.4761   C 206.23273,279.67891 205.19377,277.52108 203.43554,276.08253   C 201.67731,274.64397 199.07992,273.92469 195.64337,273.92469   C 192.08695,273.92469 189.48956,274.60401 187.8512,275.88273   C 186.21285,277.2014 185.41365,278.7998 185.41365,280.63795   C 185.41365,282.23634 185.97309,283.55502 187.13193,284.59397   C 188.29076,285.63293 191.24779,286.67188 196.04297,287.7508   C 200.83815,288.86967 204.11486,289.78875 205.91305,290.62791   C 208.51044,291.8267 210.42851,293.34518 211.66727,295.18333   C 212.90602,297.02148 213.50542,299.09939 213.50542,301.49698   C 213.50542,303.89457 212.8261,306.13232 211.46747,308.21024   C 210.10883,310.32811 208.19076,311.96646 205.63333,313.1253   C 203.0759,314.28413 200.19879,314.88353 197.04197,314.88353   C 193.00602,314.88353 189.60944,314.28413 186.89217,313.1253   C 184.13494,311.9265 182.01707,310.16827 180.45863,307.81064   C 178.9002,305.45301 178.101,302.7757 178.02108,299.77871   z  M 250.86787,269.48915   L 256.78192,269.48915   L 256.78192,295.26325   C 256.78192,299.73875 256.26245,303.33514 255.26345,305.97249   C 254.22449,308.60983 252.4263,310.72771 249.74899,312.40602   C 247.11164,314.04437 243.63514,314.88353 239.31947,314.88353   C 235.16365,314.88353 231.72711,314.16425 229.08976,312.7257   C 226.41245,311.28714 224.53433,309.16927 223.3755,306.452   C 222.25662,303.73473 221.69719,300.01847 221.69719,295.26325   L 221.69719,269.48915   L 227.57128,269.48915   L 227.57128,295.22329   C 227.57128,299.09939 227.93092,301.9765 228.6502,303.81465   C 229.36947,305.65281 230.60823,307.0514 232.36646,308.0504   C 234.1247,309.04939 236.28253,309.52891 238.8,309.52891   C 243.15562,309.52891 246.27249,308.56988 248.11064,306.61184   C 249.94879,304.61385 250.86787,300.85763 250.86787,295.22329   z  M 274.40421,314.12429   L 262.5761,269.48915   L 268.61004,269.48915   L 275.40321,298.73975   C 276.12249,301.81666 276.76184,304.85361 277.28132,307.89056   C 278.44016,303.09538 279.11947,300.33815 279.31927,299.61887   L 287.79076,269.48915   L 294.90361,269.48915   L 301.29718,292.06646   C 302.89558,297.66084 304.05441,302.93554 304.77369,307.89056   C 305.33313,305.05341 306.09237,301.81666 307.01144,298.18032   L 314.00441,269.48915   L 319.91847,269.48915   L 307.69076,314.12429   L 302.01646,314.12429   L 292.58594,280.11847   C 291.8267,277.28132 291.34718,275.52309 291.18735,274.88373   C 290.74779,276.92168 290.30823,278.67992 289.90863,280.11847   L 280.43815,314.12429   z "
     style="fill:#000000;fill-rule:evenodd;fill-opacity:1;stroke:none;" />
</svg>
