<?xml version="1.0" encoding="UTF-8" standalone="no"?>
<svg
   xmlns:dc="http://purl.org/dc/elements/1.1/"
   xmlns:cc="http://creativecommons.org/ns#"
   xmlns:rdf="http://www.w3.org/1999/02/22-rdf-syntax-ns#"
   xmlns:svg="http://www.w3.org/2000/svg"
   xmlns="http://www.w3.org/2000/svg"
   id="svg15"
   height="112.9mm"
   width="112.9mm"
   version="1.0">
  <metadata
     id="metadata19">
    <rdf:RDF>
      <cc:Work
         rdf:about="">
        <dc:format>image/svg+xml</dc:format>
        <dc:type
           rdf:resource="http://purl.org/dc/dcmitype/StillImage" />
      </cc:Work>
    </rdf:RDF>
  </metadata>
  <defs
     id="defs3">
    <pattern
       y="0"
       x="0"
       height="6"
       width="6"
       patternUnits="userSpaceOnUse"
       id="EMFhbasepattern" />
  </defs>
  <path
     id="path5"
     d="  M 1066.9,1111.473   L 1075.8876,1110.6044   C 1076.454,1113.6255 1077.5491,1115.8535 1079.2107,1117.2507   C 1080.8345,1118.6857 1083.0625,1119.3654 1085.8947,1119.3654   C 1088.878,1119.3654 1091.106,1118.7612 1092.6165,1117.4773   C 1094.127,1116.2311 1094.8823,1114.7583 1094.8823,1113.059   C 1094.8823,1112.0017 1094.5802,1111.0576 1093.9382,1110.3023   C 1093.2962,1109.5471 1092.2011,1108.9051 1090.6151,1108.3387   C 1089.5199,1107.961 1087.0654,1107.2813 1083.2136,1106.3372   C 1078.2666,1105.0911 1074.7925,1103.5806 1072.791,1101.8057   C 1069.9588,1099.2756 1068.5616,1096.2168 1068.5616,1092.5916   C 1068.5616,1090.2503 1069.2413,1088.06 1070.563,1086.0586   C 1071.8847,1084.0194 1073.7729,1082.4712 1076.2652,1081.4138   C 1078.7576,1080.3564 1081.7408,1079.8278 1085.2528,1079.8278   C 1091.0305,1079.8278 1095.3354,1081.0739 1098.2432,1083.604   C 1101.1509,1086.0964 1102.6614,1089.495 1102.8124,1093.6867   L 1093.5606,1094.1021   C 1093.1829,1091.723 1092.3144,1090.0615 1091.0305,1089.0041   C 1089.7088,1087.9845 1087.7829,1087.4558 1085.1772,1087.4558   C 1082.4961,1087.4558 1080.3814,1088.0223 1078.8708,1089.1174   C 1077.889,1089.8349 1077.3981,1090.779 1077.3981,1091.9496   C 1077.3981,1093.0447 1077.8512,1093.9888 1078.7576,1094.7441   C 1079.9282,1095.7259 1082.7604,1096.7455 1087.2542,1097.8028   C 1091.748,1098.8602 1095.0711,1099.9553 1097.2236,1101.0882   C 1099.4138,1102.2211 1101.0754,1103.7694 1102.2838,1105.733   C 1103.5299,1107.7345 1104.1341,1110.1513 1104.1341,1113.0213   C 1104.1341,1115.6646 1103.3789,1118.1192 1101.9439,1120.4228   C 1100.4712,1122.6885 1098.432,1124.3879 1095.7508,1125.5207   C 1093.1074,1126.6159 1089.7843,1127.1823 1085.7814,1127.1823   C 1080.0037,1127.1823 1075.5855,1125.8606 1072.4512,1123.1794   C 1069.3546,1120.4983 1067.5042,1116.6087 1066.9,1111.473   z "
     style="fill:#00ff00;fill-rule:nonzero;fill-opacity:1;stroke:none;" />
  <path
     id="path7"
     d="  M 1141.255,1109.5471   L 1150.2047,1112.3793   C 1148.8453,1117.364 1146.5418,1121.1025 1143.3697,1123.5193   C 1140.1598,1125.9361 1136.1192,1127.1445 1131.2101,1127.1445   C 1125.1303,1127.1445 1120.1078,1125.0676 1116.2182,1120.9137   C 1112.2909,1116.7598 1110.3272,1111.0953 1110.3272,1103.8827   C 1110.3272,1096.2546 1112.2909,1090.3636 1116.256,1086.1341   C 1120.1833,1081.9425 1125.3568,1079.8278 1131.7765,1079.8278   C 1137.3654,1079.8278 1141.8969,1081.4893 1145.4089,1084.7747   C 1147.4858,1086.7383 1149.0341,1089.5328 1150.0915,1093.1958   L 1140.9529,1095.386   C 1140.3864,1093.0447 1139.2535,1091.1566 1137.5542,1089.7971   C 1135.8171,1088.3999 1133.7402,1087.7202 1131.2856,1087.7202   C 1127.8869,1087.7202 1125.1303,1088.9286 1123.0155,1091.3832   C 1120.9008,1093.8 1119.8435,1097.7651 1119.8435,1103.2029   C 1119.8435,1108.9806 1120.9008,1113.0968 1122.9778,1115.5514   C 1125.0547,1118.0437 1127.7737,1119.2521 1131.0968,1119.2521   C 1133.5514,1119.2521 1135.6661,1118.4591 1137.4409,1116.9108   C 1139.2158,1115.3625 1140.4619,1112.908 1141.255,1109.5471   z "
     style="fill:#00ff00;fill-rule:nonzero;fill-opacity:1;stroke:none;" />
  <path
     id="path9"
     d="  M 1158.1727,1126.3893   L 1158.1727,1080.583   L 1173.0135,1080.583   C 1178.6401,1080.583 1182.3031,1080.8096 1184.0024,1081.3005   C 1186.6081,1081.9802 1188.7983,1083.453 1190.5732,1085.7565   C 1192.348,1088.06 1193.2543,1091.0433 1193.2543,1094.6685   C 1193.2543,1097.5007 1192.7257,1099.842 1191.7061,1101.7679   C 1190.6865,1103.6938 1189.4025,1105.2044 1187.8165,1106.2617   C 1186.2305,1107.3568 1184.6444,1108.1121 1183.0206,1108.452   C 1180.8304,1108.9051 1177.6205,1109.0939 1173.4289,1109.0939   L 1167.4246,1109.0939   L 1167.4246,1126.3893   z  M 1167.4246,1088.3244   L 1167.4246,1101.3148   L 1172.4848,1101.3148   C 1176.11,1101.3148 1178.5646,1101.0882 1179.773,1100.5973   C 1181.0192,1100.1441 1181.9633,1099.3889 1182.6807,1098.3693   C 1183.3605,1097.3497 1183.7003,1096.1413 1183.7003,1094.8196   C 1183.7003,1093.158 1183.2094,1091.7608 1182.2276,1090.6657   C 1181.2835,1089.6083 1180.0374,1088.9286 1178.5268,1088.6643   C 1177.4317,1088.4377 1175.2037,1088.3244 1171.8806,1088.3244   z "
     style="fill:#00ff00;fill-rule:nonzero;fill-opacity:1;stroke:none;" />
  <path
     id="path11"
     d="  M 1055.3824,1055.5085   L 1203.488,1055.5085   L 1203.488,1246.2484   L 1055.3824,1246.2484   z "
     style="fill:none;stroke:#00ff00;stroke-width:5.3245535px;stroke-linecap:butt;stroke-linejoin:miter;stroke-miterlimit:282;stroke-dasharray:none;stroke-opacity:1;" />
  <path
     id="path13"
     d="  M 1055.3824,1248.4386   L 1129.9639,1348.5855   L 1204.5832,1248.4386  "
     style="fill:none;stroke:#00ff00;stroke-width:5.3245535px;stroke-linecap:butt;stroke-linejoin:miter;stroke-miterlimit:282;stroke-dasharray:none;stroke-opacity:1;" />
</svg>
