<?xml version="1.0" encoding="UTF-8" standalone="no"?>
<svg
   xmlns:dc="http://purl.org/dc/elements/1.1/"
   xmlns:cc="http://creativecommons.org/ns#"
   xmlns:rdf="http://www.w3.org/1999/02/22-rdf-syntax-ns#"
   xmlns:svg="http://www.w3.org/2000/svg"
   xmlns="http://www.w3.org/2000/svg"
   id="svg15"
   height="112.9mm"
   width="112.9mm"
   version="1.0">
  <metadata
     id="metadata19">
    <rdf:RDF>
      <cc:Work
         rdf:about="">
        <dc:format>image/svg+xml</dc:format>
        <dc:type
           rdf:resource="http://purl.org/dc/dcmitype/StillImage" />
      </cc:Work>
    </rdf:RDF>
  </metadata>
  <defs
     id="defs3">
    <pattern
       y="0"
       x="0"
       height="6"
       width="6"
       patternUnits="userSpaceOnUse"
       id="EMFhbasepattern" />
  </defs>
  <path
     id="path5"
     d="  M 463.26282,507.70931   L 472.25336,506.84047   C 472.81999,509.8625 473.91547,512.09125 475.57759,513.48894   C 477.20193,514.9244 479.43067,515.60436 482.26383,515.60436   C 485.24808,515.60436 487.47683,514.99995 488.98784,513.71559   C 490.49885,512.469 491.25436,510.99576 491.25436,509.29587   C 491.25436,508.23816 490.95216,507.29378 490.30998,506.53827   C 489.6678,505.78276 488.57231,505.14058 486.98575,504.57395   C 485.89026,504.1962 483.43486,503.51624 479.58178,502.57186   C 474.6332,501.32527 471.15787,499.81426 469.15578,498.03882   C 466.32262,495.50787 464.92494,492.44806 464.92494,488.82163   C 464.92494,486.47956 465.60489,484.28858 466.92703,482.28649   C 468.24917,480.24662 470.13794,478.69783 472.63111,477.64012   C 475.12428,476.58241 478.10854,476.05356 481.62164,476.05356   C 487.40127,476.05356 491.70767,477.30014 494.61637,479.83109   C 497.52507,482.32427 499.03608,485.72405 499.18719,489.91711   L 489.93222,490.33264   C 489.55447,487.95279 488.68564,486.29068 487.40127,485.23297   C 486.07914,484.21303 484.15259,483.68418 481.54609,483.68418   C 478.86404,483.68418 476.74862,484.25081 475.23761,485.34629   C 474.25545,486.06403 473.76437,487.00841 473.76437,488.17945   C 473.76437,489.27493 474.21767,490.21932 475.12428,490.97482   C 476.29532,491.95698 479.12847,492.97692 483.62374,494.03463   C 488.11901,495.09234 491.44324,496.18782 493.59643,497.32108   C 495.7874,498.45434 497.44952,500.00313 498.65833,501.96745   C 499.90492,503.96955 500.50932,506.38717 500.50932,509.2581   C 500.50932,511.90237 499.75382,514.35777 498.31835,516.66207   C 496.84511,518.92859 494.80524,520.62848 492.12319,521.76174   C 489.47892,522.85723 486.15469,523.42386 482.1505,523.42386   C 476.37087,523.42386 471.95115,522.10172 468.8158,519.41967   C 465.71822,516.73762 463.86723,512.84676 463.26282,507.70931   L 463.26282,507.70931   z "
     style="fill:#000000;fill-rule:nonzero;fill-opacity:1;stroke:none;" />
  <path
     id="path7"
     d="  M 537.6425,505.78276   L 546.59526,508.61592   C 545.23535,513.60226 542.93105,517.34202 539.75792,519.75965   C 536.54701,522.17727 532.50505,523.38608 527.59425,523.38608   C 521.51242,523.38608 516.4883,521.30844 512.59744,517.15315   C 508.6688,512.99786 506.70448,507.33155 506.70448,500.11646   C 506.70448,492.48584 508.6688,486.59288 512.63521,482.36204   C 516.56385,478.16898 521.73907,476.05356 528.16089,476.05356   C 533.75164,476.05356 538.28468,477.71567 541.79779,481.00213   C 543.87543,482.96645 545.42422,485.76182 546.48193,489.42603   L 537.3403,491.617   C 536.77367,489.27493 535.64041,487.38616 533.94051,486.02625   C 532.20285,484.62856 530.1252,483.94861 527.66981,483.94861   C 524.27002,483.94861 521.51242,485.15742 519.397,487.61282   C 517.28158,490.03044 516.22387,493.99685 516.22387,499.4365   C 516.22387,505.21613 517.28158,509.33365 519.35923,511.78905   C 521.43687,514.28222 524.1567,515.49103 527.48093,515.49103   C 529.93633,515.49103 532.05175,514.69775 533.82719,513.14896   C 535.60263,511.60017 536.84922,509.14477 537.6425,505.78276   L 537.6425,505.78276   z "
     style="fill:#000000;fill-rule:nonzero;fill-opacity:1;stroke:none;" />
  <path
     id="path9"
     d="  M 554.56586,522.63057   L 554.56586,476.80906   L 569.41158,476.80906   C 575.0401,476.80906 578.70431,477.03572 580.4042,477.5268   C 583.0107,478.20675 585.20168,479.67999 586.97712,481.98429   C 588.75256,484.28858 589.65917,487.27284 589.65917,490.89927   C 589.65917,493.73242 589.13031,496.0745 588.11038,498.00104   C 587.09044,499.92758 585.80608,501.4386 584.21952,502.49631   C 582.63295,503.59179 581.04639,504.3473 579.42205,504.68728   C 577.23107,505.14058 574.02017,505.32946 569.8271,505.32946   L 563.82082,505.32946   L 563.82082,522.63057   L 554.56586,522.63057   z  M 563.82082,484.55301   L 563.82082,497.54774   L 568.88272,497.54774   C 572.50916,497.54774 574.96455,497.32108 576.17336,496.83   C 577.41995,496.3767 578.36434,495.62119 579.08207,494.60126   C 579.76202,493.58132 580.102,492.37251 580.102,491.05037   C 580.102,489.38826 579.61092,487.99057 578.62876,486.89508   C 577.68438,485.83737 576.43779,485.15742 574.92678,484.89299   C 573.83129,484.66634 571.60255,484.55301 568.27832,484.55301   L 563.82082,484.55301   z "
     style="fill:#000000;fill-rule:nonzero;fill-opacity:1;stroke:none;" />
  <path
     id="path11"
     d="  M 451.74134,451.72623   L 600.99177,451.72623   L 600.99177,643.62504   L 451.74134,643.62504   L 451.74134,451.72623   z "
     style="fill:none;stroke:#000000;stroke-width:5.3263254px;stroke-linecap:butt;stroke-linejoin:miter;stroke-miterlimit:112;stroke-dasharray:none;stroke-opacity:1;" />
  <path
     id="path13"
     d="  M 451.74134,644.72053   L 526.34767,744.90078   L 600.99177,644.72053  "
     style="fill:none;stroke:#000000;stroke-width:5.3263254px;stroke-linecap:butt;stroke-linejoin:miter;stroke-miterlimit:112;stroke-dasharray:none;stroke-opacity:1;" />
</svg>
