<?xml version="1.0" encoding="UTF-8" standalone="no"?>
<svg
   xmlns:dc="http://purl.org/dc/elements/1.1/"
   xmlns:cc="http://creativecommons.org/ns#"
   xmlns:rdf="http://www.w3.org/1999/02/22-rdf-syntax-ns#"
   xmlns:svg="http://www.w3.org/2000/svg"
   xmlns="http://www.w3.org/2000/svg"
   id="svg13"
   height="95.75mm"
   width="95.75mm"
   version="1.0">
  <metadata
     id="metadata17">
    <rdf:RDF>
      <cc:Work
         rdf:about="">
        <dc:format>image/svg+xml</dc:format>
        <dc:type
           rdf:resource="http://purl.org/dc/dcmitype/StillImage" />
      </cc:Work>
    </rdf:RDF>
  </metadata>
  <defs
     id="defs3">
    <pattern
       y="0"
       x="0"
       height="6"
       width="6"
       patternUnits="userSpaceOnUse"
       id="EMFhbasepattern" />
  </defs>
  <path
     id="path5"
     d="  M 54.345381,54.345381   L 54.345381,307.53092   L 307.53092,307.53092   L 307.53092,54.345381   L 54.345381,54.345381   z "
     style="fill:#aaffaa;fill-rule:evenodd;fill-opacity:1;stroke:none;" />
  <path
     id="path7"
     d="  M 54.345381,54.345381   L 307.53092,54.345381   L 307.53092,307.53092   L 54.345381,307.53092   z "
     style="fill:none;stroke:#000000;stroke-width:9.5903616px;stroke-linecap:butt;stroke-linejoin:miter;stroke-miterlimit:10;stroke-dasharray:none;stroke-opacity:1;" />
  <path
     id="path9"
     d="  M 149.60964,268.37028   L 149.60964,212.74618   L 160.67851,212.74618   L 173.86526,252.10662   C 175.06405,255.78293 175.94317,258.54016 176.50261,260.33835   C 177.14197,258.34036 178.101,255.34337 179.45964,251.42731   L 192.76626,212.74618   L 202.6763,212.74618   L 202.6763,268.37028   L 195.56345,268.37028   L 195.56345,221.81707   L 179.41968,268.37028   L 172.78634,268.37028   L 156.68253,221.01787   L 156.68253,268.37028   z  M 215.78313,268.37028   L 215.78313,212.74618   L 223.13574,212.74618   L 223.13574,268.37028   z "
     style="fill:#000000;fill-rule:evenodd;fill-opacity:1;stroke:none;" />
  <path
     id="path11"
     d="  M 104.33514,162.8763   L 104.33514,107.25221   L 115.40401,107.25221   L 128.59076,146.61265   C 129.78956,150.28895 130.66867,153.04618 131.22811,154.84438   C 131.86747,152.84638 132.86646,149.8494 134.18514,145.93333   L 147.49176,107.25221   L 157.4018,107.25221   L 157.4018,162.8763   L 150.32891,162.8763   L 150.32891,116.32309   L 134.14518,162.8763   L 127.51185,162.8763   L 111.44799,115.52389   L 111.44799,162.8763   z  M 169.42972,162.8763   L 169.42972,107.25221   L 209.62931,107.25221   L 209.62931,113.80562   L 176.78233,113.80562   L 176.78233,130.82851   L 207.5514,130.82851   L 207.5514,137.38193   L 176.78233,137.38193   L 176.78233,156.28293   L 210.90803,156.28293   L 210.90803,162.8763   z  M 235.24357,162.8763   L 235.24357,113.80562   L 216.902,113.80562   L 216.902,107.25221   L 260.97771,107.25221   L 260.97771,113.80562   L 242.59618,113.80562   L 242.59618,162.8763   z "
     style="fill:#000000;fill-rule:evenodd;fill-opacity:1;stroke:none;" />
</svg>
