<?xml version="1.0" encoding="UTF-8" standalone="no"?>
<svg
   xmlns:dc="http://purl.org/dc/elements/1.1/"
   xmlns:cc="http://creativecommons.org/ns#"
   xmlns:rdf="http://www.w3.org/1999/02/22-rdf-syntax-ns#"
   xmlns:svg="http://www.w3.org/2000/svg"
   xmlns="http://www.w3.org/2000/svg"
   id="svg15"
   height="112.9mm"
   width="112.9mm"
   version="1.0">
  <metadata
     id="metadata19">
    <rdf:RDF>
      <cc:Work
         rdf:about="">
        <dc:format>image/svg+xml</dc:format>
        <dc:type
           rdf:resource="http://purl.org/dc/dcmitype/StillImage" />
      </cc:Work>
    </rdf:RDF>
  </metadata>
  <defs
     id="defs3">
    <pattern
       y="0"
       x="0"
       height="6"
       width="6"
       patternUnits="userSpaceOnUse"
       id="EMFhbasepattern" />
  </defs>
  <path
     id="path5"
     d="  M 1816.8403,1817.3195   L 2232.4953,1817.3195  "
     style="fill:none;stroke:#00ff00;stroke-width:10.649107px;stroke-linecap:butt;stroke-linejoin:miter;stroke-miterlimit:282;stroke-dasharray:none;stroke-opacity:1;" />
  <path
     id="path7"
     d="  M 1816.8403,2030.4905   L 2232.4953,2030.4905  "
     style="fill:none;stroke:#00ff00;stroke-width:10.649107px;stroke-linecap:butt;stroke-linejoin:miter;stroke-miterlimit:282;stroke-dasharray:none;stroke-opacity:1;" />
  <path
     id="path9"
     d="  M 1867.9711,1944.92   L 1887.4567,1943.0319   C 1888.6274,1949.5648 1891.0064,1954.3607 1894.5939,1957.4573   C 1898.1814,1960.516 1903.015,1962.0266 1909.1326,1962.0266   C 1915.5522,1962.0266 1920.4236,1960.6671 1923.709,1957.9482   C 1926.9566,1955.2293 1928.6182,1952.0194 1928.6182,1948.3942   C 1928.6182,1946.0151 1927.9007,1944.0515 1926.5412,1942.3899   C 1925.1817,1940.7283 1922.7649,1939.2934 1919.3285,1938.0849   C 1916.9872,1937.2919 1911.6627,1935.8192 1903.3171,1933.78   C 1892.5547,1931.0988 1885.0399,1927.8512 1880.6972,1923.9617   C 1874.6174,1918.4861 1871.5586,1911.8398 1871.5586,1903.9851   C 1871.5586,1898.9627 1872.9936,1894.2046 1875.8635,1889.8241   C 1878.7335,1885.4436 1882.8497,1882.0827 1888.2497,1879.7792   C 1893.6498,1877.4757 1900.145,1876.3428 1907.7731,1876.3428   C 1920.1971,1876.3428 1929.6,1879.0617 1935.8686,1884.4995   C 1942.175,1889.9752 1945.4604,1897.2634 1945.8002,1906.3642   L 1925.7482,1907.2327   C 1924.9174,1902.1348 1923.067,1898.4718 1920.2348,1896.2438   C 1917.4404,1894.0158 1913.2109,1892.9207 1907.5465,1892.9207   C 1901.7311,1892.9207 1897.1995,1894.0913 1893.9142,1896.4704   C 1891.7617,1898.0186 1890.7043,1900.0578 1890.7043,1902.6257   C 1890.7043,1905.0047 1891.7239,1907.0062 1893.6876,1908.6677   C 1896.2177,1910.7825 1902.373,1913.0105 1912.0781,1915.2762   C 1921.8209,1917.5798 1929.0335,1919.9588 1933.7161,1922.4134   C 1938.361,1924.9057 1942.0239,1928.2666 1944.6673,1932.4961   C 1947.3107,1936.7632 1948.6324,1942.05 1948.6324,1948.3187   C 1948.6324,1953.9831 1947.0464,1959.3076 1943.8743,1964.2546   C 1940.74,1969.2392 1936.284,1972.94 1930.5063,1975.3191   C 1924.7286,1977.7359 1917.5159,1978.9443 1908.906,1978.9443   C 1896.3687,1978.9443 1886.7392,1976.0743 1880.0174,1970.2588   C 1873.2957,1964.4811 1869.2928,1956.0223 1867.9711,1944.92   z "
     style="fill:#00ff00;fill-rule:nonzero;fill-opacity:1;stroke:none;" />
  <path
     id="path11"
     d="  M 1965.4746,1878.0043   L 1985.4889,1878.0043   L 1985.4889,1931.7408   C 1985.4889,1940.2752 1985.7533,1945.7886 1986.2442,1948.3187   C 1987.1127,1952.3593 1989.1519,1955.6069 1992.3617,1958.0992   C 1995.5716,1960.5538 1999.9898,1961.7622 2005.5787,1961.7622   C 2011.2809,1961.7622 2015.5481,1960.5916 2018.4558,1958.288   C 2021.3258,1955.9467 2023.0629,1953.1145 2023.6671,1949.7159   C 2024.2335,1946.355 2024.5356,1940.7283 2024.5356,1932.8737   L 2024.5356,1878.0043   L 2044.5499,1878.0043   L 2044.5499,1930.117   C 2044.5499,1942.0123 2044.0212,1950.4334 2042.9261,1955.3425   C 2041.831,1960.2517 2039.8673,1964.4056 2036.9596,1967.8043   C 2034.0519,1971.1652 2030.1623,1973.8841 2025.2909,1975.8855   C 2020.4195,1977.8869 2014.0376,1978.8688 2006.1829,1978.8688   C 1996.7422,1978.8688 1989.5295,1977.7736 1984.6581,1975.6212   C 1979.749,1973.4309 1975.8972,1970.5609 1973.065,1967.0868   C 1970.195,1963.5748 1968.3446,1959.9118 1967.4383,1956.0978   C 1966.1166,1950.3956 1965.4746,1942.0123 1965.4746,1930.91   z "
     style="fill:#00ff00;fill-rule:nonzero;fill-opacity:1;stroke:none;" />
  <path
     id="path13"
     d="  M 2079.7826,1977.2072   L 2056.1053,1878.0043   L 2076.6105,1878.0043   L 2091.5646,1946.1284   L 2109.6907,1878.0043   L 2133.5191,1878.0043   L 2150.8899,1947.2991   L 2166.1083,1878.0043   L 2186.2737,1878.0043   L 2162.181,1977.2072   L 2140.9583,1977.2072   L 2121.2084,1903.0411   L 2101.534,1977.2072   z "
     style="fill:#00ff00;fill-rule:nonzero;fill-opacity:1;stroke:none;" />
</svg>
