<?xml version="1.0" encoding="UTF-8" standalone="no"?>
<svg
   xmlns:dc="http://purl.org/dc/elements/1.1/"
   xmlns:cc="http://creativecommons.org/ns#"
   xmlns:rdf="http://www.w3.org/1999/02/22-rdf-syntax-ns#"
   xmlns:svg="http://www.w3.org/2000/svg"
   xmlns="http://www.w3.org/2000/svg"
   id="svg17"
   height="95.75mm"
   width="95.75mm"
   version="1.0">
  <metadata
     id="metadata21">
    <rdf:RDF>
      <cc:Work
         rdf:about="">
        <dc:format>image/svg+xml</dc:format>
        <dc:type
           rdf:resource="http://purl.org/dc/dcmitype/StillImage" />
      </cc:Work>
    </rdf:RDF>
  </metadata>
  <defs
     id="defs3">
    <pattern
       y="0"
       x="0"
       height="6"
       width="6"
       patternUnits="userSpaceOnUse"
       id="EMFhbasepattern" />
  </defs>
  <path
     id="path5"
     d="  M 54.345381,54.345381   L 54.345381,307.53092   L 307.53092,307.53092   L 307.53092,54.345381   L 54.345381,54.345381   z "
     style="fill:#aaffaa;fill-rule:evenodd;fill-opacity:1;stroke:none;" />
  <path
     id="path7"
     d="  M 54.345381,54.345381   L 307.53092,54.345381   L 307.53092,307.53092   L 54.345381,307.53092   z "
     style="fill:none;stroke:#000000;stroke-width:9.5903616px;stroke-linecap:butt;stroke-linejoin:miter;stroke-miterlimit:10;stroke-dasharray:none;stroke-opacity:1;" />
  <path
     id="path9"
     d="  M 200.11887,161.75743   C 200.11887,172.38674 191.56747,180.93815 180.93815,180.93815   C 170.34879,180.93815 161.75743,172.38674 161.75743,161.75743   C 161.75743,151.16807 170.34879,142.5767 180.93815,142.5767   C 191.56747,142.5767 200.11887,151.16807 200.11887,161.75743  "
     style="fill:none;stroke:#000000;stroke-width:9.5903616px;stroke-linecap:butt;stroke-linejoin:miter;stroke-miterlimit:10;stroke-dasharray:none;stroke-opacity:1;" />
  <path
     id="path11"
     d="  M 180.93815,180.93815   L 180.93815,286.43212  "
     style="fill:none;stroke:#000000;stroke-width:9.5903616px;stroke-linecap:butt;stroke-linejoin:miter;stroke-miterlimit:10;stroke-dasharray:none;stroke-opacity:1;" />
  <path
     id="path13"
     d="  M 152.16707,209.70923   L 209.70923,209.70923  "
     style="fill:none;stroke:#000000;stroke-width:9.5903616px;stroke-linecap:butt;stroke-linejoin:miter;stroke-miterlimit:10;stroke-dasharray:none;stroke-opacity:1;" />
  <path
     id="path15"
     d="  M 142.85642,123.19618   L 142.85642,89.909637   L 130.38895,89.909637   L 130.38895,85.474095   L 160.31887,85.474095   L 160.31887,89.909637   L 147.8514,89.909637   L 147.8514,123.19618   z  M 183.13594,108.41104   L 183.13594,103.9755   L 199.11988,103.93554   L 199.11988,117.96144   C 196.68233,119.91948 194.1249,121.39799 191.52751,122.39699   C 188.93012,123.35602 186.25281,123.8755 183.49558,123.8755   C 179.77931,123.8755 176.42269,123.0763 173.38574,121.47791   C 170.34879,119.87952 168.07108,117.60181 166.51265,114.60482   C 164.95421,111.56787 164.19498,108.21124 164.19498,104.49498   C 164.19498,100.85863 164.95421,97.422087 166.51265,94.2253   C 168.03112,91.028513 170.22891,88.670882 173.14598,87.112449   C 176.02309,85.593975 179.33976,84.794778 183.09598,84.794778   C 185.81325,84.794778 188.29076,85.274296 190.48855,86.153412   C 192.7263,87.032529 194.44458,88.271284 195.68333,89.829718   C 196.96205,91.428111 197.92108,93.466063 198.56044,96.023493   L 194.04498,97.262248   C 193.48554,95.344175 192.76626,93.825701 191.92711,92.706826   C 191.08795,91.62791 189.88915,90.748794 188.33072,90.069477   C 186.77229,89.430119 185.01405,89.070481 183.13594,89.070481   C 180.85823,89.070481 178.86024,89.430119 177.22188,90.149396   C 175.54357,90.828714 174.18494,91.74779 173.18594,92.866665   C 172.14699,94.025501 171.34779,95.264256 170.78835,96.62289   C 169.82931,98.940561 169.3498,101.45803 169.3498,104.21526   C 169.3498,107.57189 169.90923,110.36907 171.06807,112.64679   C 172.22691,114.9245 173.94518,116.60281 176.14297,117.72169   C 178.38072,118.8006 180.69839,119.36004 183.21586,119.36004   C 185.37369,119.36004 187.49156,118.92048 189.52952,118.12128   C 191.60743,117.28213 193.16586,116.36305 194.24478,115.44397   L 194.24478,108.41104   z  M 216.10281,123.19618   L 216.10281,89.909637   L 203.63534,89.909637   L 203.63534,85.474095   L 233.56526,85.474095   L 233.56526,89.909637   L 221.09779,89.909637   L 221.09779,123.19618   z "
     style="fill:#000000;fill-rule:evenodd;fill-opacity:1;stroke:none;" />
</svg>
