<?xml version="1.0" encoding="UTF-8" standalone="no"?>
<svg
   xmlns:dc="http://purl.org/dc/elements/1.1/"
   xmlns:cc="http://creativecommons.org/ns#"
   xmlns:rdf="http://www.w3.org/1999/02/22-rdf-syntax-ns#"
   xmlns:svg="http://www.w3.org/2000/svg"
   xmlns="http://www.w3.org/2000/svg"
   id="svg15"
   height="116.73mm"
   width="116.73mm"
   version="1.0">
  <metadata
     id="metadata19">
    <rdf:RDF>
      <cc:Work
         rdf:about="">
        <dc:format>image/svg+xml</dc:format>
        <dc:type
           rdf:resource="http://purl.org/dc/dcmitype/StillImage" />
      </cc:Work>
    </rdf:RDF>
  </metadata>
  <defs
     id="defs3">
    <pattern
       y="0"
       x="0"
       height="6"
       width="6"
       patternUnits="userSpaceOnUse"
       id="EMFhbasepattern" />
  </defs>
  <path
     id="path5"
     d="  M 220.57831,386.49156   L 220.57831,386.49156   L 386.49156,220.57831   L 220.57831,54.665059   L 54.665059,220.57831   L 220.57831,386.49156   z "
     style="fill:#ff8080;fill-rule:evenodd;fill-opacity:1;stroke:none;" />
  <path
     id="path7"
     d="  M 220.57831,386.49156   L 220.57831,386.49156   L 386.49156,220.57831   L 220.57831,54.665059   L 54.665059,220.57831   L 220.57831,386.49156  "
     style="fill:none;stroke:#000000;stroke-width:9.5903616px;stroke-linecap:butt;stroke-linejoin:miter;stroke-miterlimit:10;stroke-dasharray:none;stroke-opacity:1;" />
  <path
     id="path9"
     d="  M 237.84096,220.57831   C 237.84096,230.12871 230.12871,237.84096 220.57831,237.84096   C 211.06787,237.84096 203.31566,230.12871 203.31566,220.57831   C 203.31566,211.06787 211.06787,203.31566 220.57831,203.31566   C 230.12871,203.31566 237.84096,211.06787 237.84096,220.57831   z "
     style="fill:#000000;fill-rule:evenodd;fill-opacity:1;stroke:none;" />
  <path
     id="path11"
     d="  M 237.84096,220.57831   C 237.84096,230.12871 230.12871,237.84096 220.57831,237.84096   C 211.06787,237.84096 203.31566,230.12871 203.31566,220.57831   C 203.31566,211.06787 211.06787,203.31566 220.57831,203.31566   C 230.12871,203.31566 237.84096,211.06787 237.84096,220.57831  "
     style="fill:none;stroke:#000000;stroke-width:9.5903616px;stroke-linecap:butt;stroke-linejoin:miter;stroke-miterlimit:10;stroke-dasharray:none;stroke-opacity:1;" />
  <path
     id="path13"
     d="  M 196.48253,310.60783   L 196.48253,271.24739   L 181.77731,271.24739   L 181.77731,265.97269   L 217.14176,265.97269   L 217.14176,271.24739   L 202.39658,271.24739   L 202.39658,310.60783   z  M 218.3006,310.60783   L 235.44337,265.97269   L 241.79698,265.97269   L 260.05863,310.60783   L 253.34538,310.60783   L 248.1506,297.06144   L 229.48935,297.06144   L 224.57429,310.60783   z  M 231.16767,292.26626   L 246.31245,292.26626   L 241.63715,279.91867   C 240.23855,276.16245 239.15964,273.08554 238.48032,270.64799   C 237.92088,273.5251 237.12168,276.36225 236.08273,279.19939   z "
     style="fill:#000000;fill-rule:evenodd;fill-opacity:1;stroke:none;" />
</svg>
