<?xml version="1.0" encoding="UTF-8" standalone="no"?>
<svg
   xmlns:dc="http://purl.org/dc/elements/1.1/"
   xmlns:cc="http://creativecommons.org/ns#"
   xmlns:rdf="http://www.w3.org/1999/02/22-rdf-syntax-ns#"
   xmlns:svg="http://www.w3.org/2000/svg"
   xmlns="http://www.w3.org/2000/svg"
   id="svg17"
   height="130.27mm"
   width="130.27mm"
   version="1.0">
  <metadata
     id="metadata21">
    <rdf:RDF>
      <cc:Work
         rdf:about="">
        <dc:format>image/svg+xml</dc:format>
        <dc:type
           rdf:resource="http://purl.org/dc/dcmitype/StillImage" />
      </cc:Work>
    </rdf:RDF>
  </metadata>
  <defs
     id="defs3">
    <pattern
       y="0"
       x="0"
       height="6"
       width="6"
       patternUnits="userSpaceOnUse"
       id="EMFhbasepattern" />
  </defs>
  <path
     id="path5"
     d="  M 164.63454,327.67068   C 164.63454,437.95983 327.67068,437.95983 327.67068,327.67068   C 437.95983,327.67068 437.95983,164.63454 327.67068,164.63454   C 327.67068,54.345381 164.63454,54.345381 164.63454,164.63454   C 54.345381,164.63454 54.345381,327.67068 164.63454,327.67068   z "
     style="fill:#ffff80;fill-rule:evenodd;fill-opacity:1;stroke:none;" />
  <path
     id="path7"
     d="  M 164.63454,327.67068   C 164.63454,437.95983 327.67068,437.95983 327.67068,327.67068   C 437.95983,327.67068 437.95983,164.63454 327.67068,164.63454   C 327.67068,54.345381 164.63454,54.345381 164.63454,164.63454   C 54.345381,164.63454 54.345381,327.67068 164.63454,327.67068  "
     style="fill:none;stroke:#000000;stroke-width:9.5903616px;stroke-linecap:butt;stroke-linejoin:miter;stroke-miterlimit:10;stroke-dasharray:none;stroke-opacity:1;" />
  <path
     id="path9"
     d="  M 265.33333,226.97188   C 265.33333,237.6012 256.78192,246.15261 246.15261,246.15261   C 235.56325,246.15261 226.97188,237.6012 226.97188,226.97188   C 226.97188,216.38253 235.56325,207.79116 246.15261,207.79116   C 256.78192,207.79116 265.33333,216.38253 265.33333,226.97188  "
     style="fill:none;stroke:#000000;stroke-width:9.5903616px;stroke-linecap:butt;stroke-linejoin:miter;stroke-miterlimit:10;stroke-dasharray:none;stroke-opacity:1;" />
  <path
     id="path11"
     d="  M 246.15261,246.15261   L 246.15261,351.64658  "
     style="fill:none;stroke:#000000;stroke-width:9.5903616px;stroke-linecap:butt;stroke-linejoin:miter;stroke-miterlimit:10;stroke-dasharray:none;stroke-opacity:1;" />
  <path
     id="path13"
     d="  M 217.38152,274.92369   L 274.92369,274.92369  "
     style="fill:none;stroke:#000000;stroke-width:9.5903616px;stroke-linecap:butt;stroke-linejoin:miter;stroke-miterlimit:10;stroke-dasharray:none;stroke-opacity:1;" />
  <path
     id="path15"
     d="  M 208.07088,188.41064   L 208.07088,155.12409   L 195.60341,155.12409   L 195.60341,150.68855   L 225.53333,150.68855   L 225.53333,155.12409   L 213.06586,155.12409   L 213.06586,188.41064   z  M 248.3504,173.6255   L 248.3504,169.18996   L 264.33433,169.15   L 264.33433,183.1759   C 261.89678,185.13393 259.33935,186.61245 256.74196,187.61144   C 254.14457,188.57048 251.46727,189.08996 248.71004,189.08996   C 244.99377,189.08996 241.63715,188.29076 238.6002,186.69237   C 235.56325,185.09397 233.28554,182.81626 231.72711,179.81927   C 230.16867,176.78233 229.40943,173.4257 229.40943,169.70944   C 229.40943,166.07309 230.16867,162.63654 231.72711,159.43976   C 233.24558,156.24297 235.44337,153.88534 238.36044,152.32691   C 241.23755,150.80843 244.55421,150.00923 248.31044,150.00923   C 251.02771,150.00923 253.50522,150.48875 255.70301,151.36787   C 257.94076,152.24699 259.65903,153.48574 260.89779,155.04417   C 262.1765,156.64257 263.13554,158.68052 263.7749,161.23795   L 259.25943,162.4767   C 258.7,160.55863 257.98072,159.04016 257.14156,157.92128   C 256.30241,156.84237 255.10361,155.96325 253.54518,155.28393   C 251.98674,154.64458 250.22851,154.28494 248.3504,154.28494   C 246.07269,154.28494 244.0747,154.64458 242.43634,155.36385   C 240.75803,156.04317 239.39939,156.96225 238.4004,158.08112   C 237.36144,159.23996 236.56225,160.47871 236.00281,161.83735   C 235.04377,164.15502 234.56425,166.67249 234.56425,169.42972   C 234.56425,172.78634 235.12369,175.58353 236.28253,177.86124   C 237.44136,180.13895 239.15964,181.81727 241.35743,182.93614   C 243.59518,184.01506 245.91285,184.5745 248.43032,184.5745   C 250.58815,184.5745 252.70602,184.13494 254.74397,183.33574   C 256.82188,182.49658 258.38032,181.57751 259.45923,180.65843   L 259.45923,173.6255   z  M 281.31727,188.41064   L 281.31727,155.12409   L 268.8498,155.12409   L 268.8498,150.68855   L 298.77971,150.68855   L 298.77971,155.12409   L 286.31224,155.12409   L 286.31224,188.41064   z "
     style="fill:#000000;fill-rule:evenodd;fill-opacity:1;stroke:none;" />
</svg>
