<?xml version="1.0" encoding="UTF-8" standalone="no"?>
<svg
   xmlns:dc="http://purl.org/dc/elements/1.1/"
   xmlns:cc="http://creativecommons.org/ns#"
   xmlns:rdf="http://www.w3.org/1999/02/22-rdf-syntax-ns#"
   xmlns:svg="http://www.w3.org/2000/svg"
   xmlns="http://www.w3.org/2000/svg"
   id="svg15"
   height="112.9mm"
   width="112.9mm"
   version="1.0">
  <metadata
     id="metadata19">
    <rdf:RDF>
      <cc:Work
         rdf:about="">
        <dc:format>image/svg+xml</dc:format>
        <dc:type
           rdf:resource="http://purl.org/dc/dcmitype/StillImage" />
      </cc:Work>
    </rdf:RDF>
  </metadata>
  <defs
     id="defs3">
    <pattern
       y="0"
       x="0"
       height="6"
       width="6"
       patternUnits="userSpaceOnUse"
       id="EMFhbasepattern" />
  </defs>
  <path
     id="path5"
     d="  M 1170.7492,1026.8391   L 1277.3786,1026.8391   L 1277.3786,1090.8243   L 1170.7492,1090.8243   L 1170.7492,1026.8391   z "
     style="fill:#000000;fill-rule:nonzero;fill-opacity:1;stroke:none;" />
  <path
     id="path7"
     d="  M 1224.045,1408.4841   L 1408.4841,1224.0828   L 1224.045,1039.6437   L 1039.6437,1224.0828   L 1224.045,1408.4841   z "
     style="fill:#ff8080;fill-rule:nonzero;fill-opacity:1;stroke:#000000;stroke-width:10.651613px;stroke-linecap:square;stroke-linejoin:miter;stroke-miterlimit:112;stroke-dasharray:none;stroke-opacity:1;" />
  <path
     id="path9"
     d="  M 1127.0851,1258.1906   L 1127.0851,1189.4839   L 1156.2826,1189.4839   C 1163.6103,1189.4839 1168.9361,1190.126 1172.26,1191.3347   C 1175.5839,1192.5812 1178.2657,1194.7719 1180.2676,1197.9448   C 1182.2695,1201.0798 1183.2516,1204.7059 1183.2516,1208.7475   C 1183.2516,1213.9222 1181.7407,1218.1526 1178.719,1221.5143   C 1175.6972,1224.876 1171.1646,1226.9912 1165.1212,1227.8599   C 1168.1429,1229.6352 1170.5981,1231.5238 1172.5622,1233.639   C 1174.4886,1235.7164 1177.1326,1239.4558 1180.4565,1244.7816   L 1188.8418,1258.1906   L 1172.26,1258.1906   L 1162.2128,1243.233   C 1158.6622,1237.9072 1156.2448,1234.5455 1154.9228,1233.148   C 1153.6008,1231.7504 1152.2033,1230.8061 1150.7302,1230.2773   C 1149.2948,1229.7485 1146.953,1229.5219 1143.7802,1229.5219   L 1140.9473,1229.5219   L 1140.9473,1258.1906   L 1127.0851,1258.1906   z  M 1140.9473,1218.5303   L 1151.2212,1218.5303   C 1157.869,1218.5303 1162.0239,1218.2659 1163.6859,1217.6994   C 1165.3478,1217.1328 1166.632,1216.1885 1167.5763,1214.7909   C 1168.5206,1213.4312 1168.9739,1211.6937 1168.9739,1209.654   C 1168.9739,1207.3499 1168.3695,1205.4613 1167.1231,1204.0638   C 1165.8766,1202.6285 1164.1391,1201.7219 1161.9106,1201.3442   C 1160.7774,1201.1931 1157.4158,1201.1176 1151.7878,1201.1176   L 1140.9473,1201.1176   L 1140.9473,1218.5303   z "
     style="fill:#000000;fill-rule:nonzero;fill-opacity:1;stroke:none;" />
  <path
     id="path11"
     d="  M 1257.133,1249.8053   L 1249.1632,1259.9659   C 1245.2727,1258.0395 1241.5333,1255.4333 1237.945,1252.0716   C 1235.1499,1254.6023 1232.2037,1256.4153 1229.0686,1257.624   C 1225.9336,1258.7949 1222.232,1259.3993 1217.926,1259.3993   C 1209.3518,1259.3993 1202.9306,1256.9819 1198.6247,1252.1849   C 1195.3007,1248.4833 1193.601,1244.1773 1193.601,1239.3425   C 1193.601,1234.961 1194.923,1230.995 1197.5293,1227.4822   C 1200.1733,1223.9695 1204.1015,1220.9099 1209.314,1218.3037   C 1206.9722,1215.5464 1205.1969,1212.9023 1204.026,1210.3716   C 1202.8173,1207.8409 1202.213,1205.4613 1202.213,1203.2328   C 1202.213,1199.0779 1203.9127,1195.5651 1207.2366,1192.6567   C 1210.5605,1189.7861 1215.282,1188.313 1221.4387,1188.313   C 1227.3689,1188.313 1232.0148,1189.8616 1235.3387,1192.8834   C 1238.7004,1195.9051 1240.3624,1199.6067 1240.3624,1203.9882   C 1240.3624,1206.7456 1239.5314,1209.3896 1237.8694,1211.8825   C 1236.2075,1214.3754 1232.8836,1217.2083 1227.8599,1220.3811   L 1237.4162,1232.9591   C 1238.5493,1230.995 1239.4936,1228.351 1240.3246,1225.1404   L 1252.2227,1227.8599   C 1251.014,1232.0904 1249.9941,1235.1876 1249.1254,1237.114   C 1248.2566,1239.0781 1247.3123,1240.7023 1246.3303,1242.0243   C 1247.7656,1243.3841 1249.692,1244.895 1251.996,1246.5191   C 1254.3379,1248.1811 1256.0376,1249.2765 1257.133,1249.8053   L 1257.133,1249.8053   z  M 1221.2877,1212.4491   L 1224.876,1209.7295   C 1227.4822,1207.7276 1228.8042,1205.688 1228.8042,1203.6861   C 1228.8042,1202.0241 1228.1621,1200.5888 1226.8779,1199.3801   C 1225.6314,1198.2092 1223.9317,1197.6048 1221.7787,1197.6048   C 1219.6635,1197.6048 1218.0393,1198.1336 1216.8306,1199.1912   C 1215.6597,1200.2111 1215.0553,1201.4198 1215.0553,1202.8173   C 1215.0553,1204.4415 1216.0752,1206.4056 1218.0771,1208.7097   L 1221.2877,1212.4491   z  M 1216.1507,1226.7268   C 1213.129,1228.2754 1210.8627,1230.1262 1209.3518,1232.2792   C 1207.8409,1234.4322 1207.0855,1236.623 1207.0855,1238.8893   C 1207.0855,1241.7221 1208.0298,1244.0262 1209.8806,1245.8393   C 1211.7314,1247.6145 1214.2244,1248.521 1217.3594,1248.521   C 1219.4368,1248.521 1221.401,1248.1056 1223.3273,1247.3123   C 1225.2159,1246.4814 1227.2934,1245.1594 1229.5597,1243.2708   L 1216.1507,1226.7268   z "
     style="fill:#000000;fill-rule:nonzero;fill-opacity:1;stroke:none;" />
  <path
     id="path13"
     d="  M 1265.6694,1189.4839   L 1291.0142,1189.4839   C 1296.7177,1189.4839 1301.0614,1189.9372 1304.0832,1190.8059   C 1308.087,1192.0146 1311.562,1194.0921 1314.4326,1197.1516   C 1317.3033,1200.1733 1319.494,1203.8749 1320.9671,1208.2564   C 1322.478,1212.6379 1323.2334,1218.0771 1323.2334,1224.4983   C 1323.2334,1230.164 1322.5158,1235.0366 1321.1182,1239.1159   C 1319.4185,1244.1018 1316.9633,1248.1433 1313.7527,1251.2406   C 1311.3731,1253.5824 1308.1248,1255.3955 1304.0454,1256.7175   C 1300.9481,1257.6996 1296.8688,1258.1906 1291.7696,1258.1906   L 1265.6694,1258.1906   L 1265.6694,1189.4839   z  M 1279.5316,1201.1176   L 1279.5316,1246.5947   L 1289.881,1246.5947   C 1293.7337,1246.5947 1296.5288,1246.4058 1298.2663,1245.9526   C 1300.5326,1245.386 1302.3835,1244.4417 1303.8566,1243.0819   C 1305.3296,1241.7599 1306.5383,1239.5314 1307.4826,1236.4719   C 1308.4269,1233.3746 1308.918,1229.1819 1308.918,1223.8939   C 1308.918,1218.5681 1308.4269,1214.4888 1307.4826,1211.6559   C 1306.5383,1208.823 1305.2541,1206.5945 1303.5544,1205.0081   C 1301.8547,1203.4217 1299.7394,1202.3263 1297.1332,1201.7597   C 1295.2068,1201.3442 1291.3919,1201.1176 1285.7639,1201.1176   L 1279.5316,1201.1176   z "
     style="fill:#000000;fill-rule:nonzero;fill-opacity:1;stroke:none;" />
</svg>
