<?xml version="1.0" encoding="UTF-8" standalone="no"?>
<svg
   xmlns:dc="http://purl.org/dc/elements/1.1/"
   xmlns:cc="http://creativecommons.org/ns#"
   xmlns:rdf="http://www.w3.org/1999/02/22-rdf-syntax-ns#"
   xmlns:svg="http://www.w3.org/2000/svg"
   xmlns="http://www.w3.org/2000/svg"
   id="svg15"
   height="112.9mm"
   width="112.9mm"
   version="1.0">
  <metadata
     id="metadata19">
    <rdf:RDF>
      <cc:Work
         rdf:about="">
        <dc:format>image/svg+xml</dc:format>
        <dc:type
           rdf:resource="http://purl.org/dc/dcmitype/StillImage" />
      </cc:Work>
    </rdf:RDF>
  </metadata>
  <defs
     id="defs3">
    <pattern
       y="0"
       x="0"
       height="6"
       width="6"
       patternUnits="userSpaceOnUse"
       id="EMFhbasepattern" />
  </defs>
  <path
     id="path5"
     d="  M 855.32058,706.08468   L 961.95003,706.08468   L 961.95003,759.38052   L 855.32058,759.38052   L 855.32058,706.08468   z "
     style="fill:#000000;fill-rule:nonzero;fill-opacity:1;stroke:none;" />
  <path
     id="path7"
     d="  M 818.03994,999.23068   C 818.03994,1121.8375 999.23068,1121.8375 999.23068,999.23068   C 1121.8375,999.23068 1121.8375,818.03994 999.23068,818.03994   C 999.23068,695.43307 818.03994,695.43307 818.03994,818.03994   C 695.43307,818.03994 695.43307,999.23068 818.03994,999.23068   z "
     style="fill:#ffff80;fill-rule:nonzero;fill-opacity:1;stroke:#000000;stroke-width:10.651613px;stroke-linecap:butt;stroke-linejoin:miter;stroke-miterlimit:112;stroke-dasharray:none;stroke-opacity:1;" />
  <path
     id="path9"
     d="  M 811.65652,942.76202   L 811.65652,874.05534   L 840.85403,874.05534   C 848.18174,874.05534 853.50754,874.69746 856.83145,875.90615   C 860.15536,877.15261 862.83715,879.34337 864.83905,882.51619   C 866.84095,885.65124 867.82301,889.27732 867.82301,893.31889   C 867.82301,898.49361 866.31214,902.72404 863.29041,906.08572   C 860.26867,909.4474 855.73607,911.56261 849.6926,912.43136   C 852.71434,914.20663 855.1695,916.09522 857.13363,918.21043   C 859.05998,920.28787 861.704,924.02727 865.02791,929.35307   L 873.41322,942.76202   L 856.83145,942.76202   L 846.78419,927.80444   C 843.23365,922.47863 840.81626,919.11695 839.49425,917.7194   C 838.17224,916.32185 836.77469,915.37755 835.3016,914.84875   C 833.86627,914.31995 831.52443,914.09332 828.35161,914.09332   L 825.51873,914.09332   L 825.51873,942.76202   L 811.65652,942.76202   z  M 825.51873,903.10176   L 835.79263,903.10176   C 842.44044,903.10176 846.59533,902.83736 848.25728,902.27078   C 849.91923,901.70421 851.20347,900.75991 852.14776,899.36236   C 853.09206,898.00258 853.54532,896.26508 853.54532,894.22541   C 853.54532,891.92134 852.94097,890.03276 851.6945,888.63521   C 850.44804,887.19988 848.71054,886.29336 846.48201,885.91564   C 845.34886,885.76456 841.98718,885.68901 836.3592,885.68901   L 825.51873,885.68901   L 825.51873,903.10176   z "
     style="fill:#000000;fill-rule:nonzero;fill-opacity:1;stroke:none;" />
  <path
     id="path11"
     d="  M 941.70441,934.37671   L 933.73459,944.53729   C 929.84411,942.61093 926.10471,940.00469 922.5164,936.64301   C 919.7213,939.17371 916.77511,940.98675 913.64006,942.19544   C 910.50501,943.36637 906.80338,943.97071 902.49741,943.97071   C 893.92324,943.97071 887.50205,941.55333 883.19608,936.75632   C 879.87218,933.0547 878.17245,928.74873 878.17245,923.91395   C 878.17245,919.53244 879.49446,915.56641 882.1007,912.05365   C 884.74472,908.54088 888.67298,905.48137 893.88547,902.87513   C 891.54362,900.1178 889.76836,897.47378 888.59743,894.94308   C 887.38874,892.41237 886.78439,890.03276 886.78439,887.80423   C 886.78439,883.64934 888.48412,880.13658 891.80803,877.22816   C 895.13193,874.35751 899.85339,872.88442 906.01018,872.88442   C 911.94033,872.88442 916.58625,874.43305 919.91015,877.45479   C 923.27183,880.47652 924.93379,884.17815 924.93379,888.55966   C 924.93379,891.31699 924.10281,893.96101 922.44086,896.45394   C 920.7789,898.94687 917.455,901.77975 912.43136,904.95257   L 921.9876,917.53054   C 923.12075,915.56641 924.06504,912.92239 924.89602,909.7118   L 936.79409,912.43136   C 935.5854,916.66179 934.56557,919.75907 933.69682,921.68542   C 932.82807,923.64955 931.88378,925.27373 930.90171,926.59574   C 932.33704,927.95552 934.26339,929.46639 936.56746,931.09057   C 938.90931,932.75253 940.60903,933.8479 941.70441,934.37671   L 941.70441,934.37671   z  M 905.85909,897.02052   L 909.4474,894.30096   C 912.05365,892.29906 913.37565,890.25939 913.37565,888.25749   C 913.37565,886.59553 912.73354,885.16021 911.4493,883.95152   C 910.20283,882.7806 908.50311,882.17625 906.35012,882.17625   C 904.23491,882.17625 902.61073,882.70505 901.40203,883.76266   C 900.23111,884.78249 899.62676,885.99119 899.62676,887.38874   C 899.62676,889.01292 900.6466,890.97705 902.6485,893.28112   L 905.85909,897.02052   z  M 900.72214,911.29821   C 897.70041,912.84685 895.43411,914.69766 893.92324,916.85065   C 892.41237,919.00363 891.65694,921.19439 891.65694,923.46069   C 891.65694,926.29357 892.60123,928.59764 894.45204,930.41068   C 896.30286,932.18595 898.79579,933.09247 901.93084,933.09247   C 904.00828,933.09247 905.97241,932.67698 907.89876,931.88378   C 909.78734,931.0528 911.86479,929.73079 914.13109,927.84221   L 900.72214,911.29821   z "
     style="fill:#000000;fill-rule:nonzero;fill-opacity:1;stroke:none;" />
  <path
     id="path13"
     d="  M 950.24081,874.05534   L 975.58561,874.05534   C 981.28913,874.05534 985.63287,874.5086 988.65461,875.37735   C 992.65841,876.58604 996.1334,878.66348 999.00405,881.72299   C 1001.8747,884.74472 1004.0655,888.44635 1005.5385,892.82786   C 1007.0494,897.20938 1007.8049,902.6485 1007.8049,909.06968   C 1007.8049,914.73543 1007.0872,919.60798 1005.6896,923.68732   C 1003.9899,928.67318 1001.5348,932.71475 998.32416,935.81203   C 995.94454,938.15388 992.69618,939.96692 988.61684,941.28892   C 985.51956,942.27099 981.44022,942.76202 976.34104,942.76202   L 950.24081,942.76202   L 950.24081,874.05534   z  M 964.10302,885.68901   L 964.10302,931.16611   L 974.45246,931.16611   C 978.30517,931.16611 981.10027,930.97726 982.83777,930.524   C 985.10407,929.95742 986.95488,929.01313 988.42798,927.65335   C 989.90107,926.33134 991.10977,924.10281 992.05406,921.04331   C 992.99835,917.94603 993.48938,913.75337 993.48938,908.46534   C 993.48938,903.13953 992.99835,899.06019 992.05406,896.22731   C 991.10977,893.39444 989.82553,891.16591 988.12581,889.5795   C 986.42608,887.99309 984.31087,886.89771 981.70462,886.33113   C 979.77826,885.91564 975.96333,885.68901 970.33535,885.68901   L 964.10302,885.68901   z "
     style="fill:#000000;fill-rule:nonzero;fill-opacity:1;stroke:none;" />
</svg>
