<?xml version="1.0" encoding="UTF-8" standalone="no"?>
<svg
   xmlns:dc="http://purl.org/dc/elements/1.1/"
   xmlns:cc="http://creativecommons.org/ns#"
   xmlns:rdf="http://www.w3.org/1999/02/22-rdf-syntax-ns#"
   xmlns:svg="http://www.w3.org/2000/svg"
   xmlns="http://www.w3.org/2000/svg"
   id="svg15"
   height="112.9mm"
   width="112.9mm"
   version="1.0">
  <metadata
     id="metadata19">
    <rdf:RDF>
      <cc:Work
         rdf:about="">
        <dc:format>image/svg+xml</dc:format>
        <dc:type
           rdf:resource="http://purl.org/dc/dcmitype/StillImage" />
      </cc:Work>
    </rdf:RDF>
  </metadata>
  <defs
     id="defs3">
    <pattern
       y="0"
       x="0"
       height="6"
       width="6"
       patternUnits="userSpaceOnUse"
       id="EMFhbasepattern" />
  </defs>
  <path
     id="path5"
     d="  M 782.46569,652.4178   L 889.09514,652.4178   L 889.09514,695.06203   L 782.46569,695.06203   L 782.46569,652.4178   z "
     style="fill:#000000;fill-rule:nonzero;fill-opacity:1;stroke:none;" />
  <path
     id="path7"
     d="  M 695.06203,695.06203   L 976.4988,695.06203   L 976.4988,976.4988   L 695.06203,976.4988   L 695.06203,695.06203   z "
     style="fill:#aaffaa;fill-rule:nonzero;fill-opacity:1;stroke:#000000;stroke-width:10.651613px;stroke-linecap:butt;stroke-linejoin:miter;stroke-miterlimit:112;stroke-dasharray:none;stroke-opacity:1;" />
  <path
     id="path9"
     d="  M 738.80163,869.90713   L 738.80163,801.20044   L 767.99914,801.20044   C 775.32684,801.20044 780.65265,801.84256 783.97656,803.05126   C 787.30047,804.29772 789.98226,806.48848 791.98415,809.6613   C 793.98605,812.79635 794.96812,816.42243 794.96812,820.464   C 794.96812,825.63872 793.45725,829.86915 790.43552,833.23083   C 787.41378,836.59251 782.88118,838.70772 776.83771,839.57647   C 779.85945,841.35174 782.31461,843.24032 784.27873,845.35554   C 786.20509,847.43298 788.84911,851.17237 792.17301,856.49818   L 800.55833,869.90713   L 783.97656,869.90713   L 773.92929,854.94954   C 770.37875,849.62374 767.96137,846.26206 766.63936,844.8645   C 765.31735,843.46695 763.9198,842.52266 762.4467,841.99386   C 761.01138,841.46505 758.66953,841.23842 755.49671,841.23842   L 752.66384,841.23842   L 752.66384,869.90713   L 738.80163,869.90713   z  M 752.66384,830.24686   L 762.93773,830.24686   C 769.58555,830.24686 773.74043,829.98246 775.40239,829.41589   C 777.06434,828.84931 778.34858,827.90502 779.29287,826.50747   C 780.23716,825.14769 780.69042,823.41019 780.69042,821.37052   C 780.69042,819.06645 780.08608,817.17786 778.83961,815.78031   C 777.59315,814.34499 775.85565,813.43847 773.62712,813.06075   C 772.49397,812.90966 769.13229,812.83412 763.50431,812.83412   L 752.66384,812.83412   L 752.66384,830.24686   z "
     style="fill:#000000;fill-rule:nonzero;fill-opacity:1;stroke:none;" />
  <path
     id="path11"
     d="  M 868.84952,861.52181   L 860.8797,871.6824   C 856.98921,869.75604 853.24982,867.14979 849.66151,863.78812   C 846.8664,866.31882 843.92021,868.13186 840.78516,869.34055   C 837.65011,870.51147 833.94849,871.11582 829.64252,871.11582   C 821.06835,871.11582 814.64716,868.69843 810.34119,863.90143   C 807.01728,860.19981 805.31756,855.89383 805.31756,851.05906   C 805.31756,846.67754 806.63957,842.71152 809.24581,839.19875   C 811.88983,835.68599 815.81808,832.62648 821.03058,830.02023   C 818.68873,827.2629 816.91346,824.61888 815.74254,822.08818   C 814.53385,819.55748 813.9295,817.17786 813.9295,814.94934   C 813.9295,810.79445 815.62923,807.28168 818.95313,804.37327   C 822.27704,801.50262 826.9985,800.02952 833.15528,800.02952   C 839.08544,800.02952 843.73135,801.57816 847.05526,804.5999   C 850.41694,807.62163 852.07889,811.32325 852.07889,815.70477   C 852.07889,818.4621 851.24792,821.10612 849.58596,823.59905   C 847.92401,826.09198 844.6001,828.92486 839.57647,832.09768   L 849.1327,844.67565   C 850.26585,842.71152 851.21015,840.0675 852.04112,836.85691   L 863.9392,839.57647   C 862.73051,843.8069 861.71067,846.90417 860.84192,848.83053   C 859.97318,850.79466 859.02888,852.41884 858.04682,853.74085   C 859.48214,855.10063 861.4085,856.6115 863.71257,858.23568   C 866.05442,859.89763 867.75414,860.99301 868.84952,861.52181   L 868.84952,861.52181   z  M 833.0042,824.16562   L 836.59251,821.44606   C 839.19875,819.44416 840.52076,817.40449 840.52076,815.4026   C 840.52076,813.74064 839.87864,812.30532 838.59441,811.09662   C 837.34794,809.9257 835.64821,809.32136 833.49523,809.32136   C 831.38002,809.32136 829.75583,809.85016 828.54714,810.90777   C 827.37622,811.9276 826.77187,813.13629 826.77187,814.53385   C 826.77187,816.15803 827.79171,818.12216 829.7936,820.42623   L 833.0042,824.16562   z  M 827.86725,838.44332   C 824.84551,839.99196 822.57921,841.84277 821.06835,843.99576   C 819.55748,846.14874 818.80205,848.3395 818.80205,850.6058   C 818.80205,853.43868 819.74634,855.74275 821.59715,857.55579   C 823.44796,859.33106 825.94089,860.23758 829.07594,860.23758   C 831.15339,860.23758 833.11751,859.82209 835.04387,859.02888   C 836.93245,858.19791 839.00989,856.8759 841.27619,854.98731   L 827.86725,838.44332   z "
     style="fill:#000000;fill-rule:nonzero;fill-opacity:1;stroke:none;" />
  <path
     id="path13"
     d="  M 877.38592,801.20044   L 902.73072,801.20044   C 908.43424,801.20044 912.77798,801.6537 915.79972,802.52245   C 919.80351,803.73115 923.27851,805.80859 926.14916,808.86809   C 929.0198,811.88983 931.21056,815.59145 932.68366,819.97297   C 934.19452,824.35448 934.94996,829.7936 934.94996,836.21479   C 934.94996,841.88054 934.2323,846.75309 932.83474,850.83243   C 931.13502,855.81829 928.67986,859.85986 925.46927,862.95714   C 923.08965,865.29898 919.84129,867.11202 915.76194,868.43403   C 912.66467,869.4161 908.58533,869.90713 903.48615,869.90713   L 877.38592,869.90713   L 877.38592,801.20044   z  M 891.24813,812.83412   L 891.24813,858.31122   L 901.59757,858.31122   C 905.45028,858.31122 908.24538,858.12236 909.98288,857.6691   C 912.24918,857.10253 914.09999,856.15824 915.57309,854.79846   C 917.04618,853.47645 918.25488,851.24792 919.19917,848.18841   C 920.14346,845.09113 920.63449,840.89848 920.63449,835.61044   C 920.63449,830.28464 920.14346,826.2053 919.19917,823.37242   C 918.25488,820.53954 916.97064,818.31101 915.27091,816.7246   C 913.57119,815.13819 911.45597,814.04281 908.84973,813.47624   C 906.92337,813.06075 903.10843,812.83412 897.48045,812.83412   L 891.24813,812.83412   z "
     style="fill:#000000;fill-rule:nonzero;fill-opacity:1;stroke:none;" />
</svg>
