<?xml version="1.0" encoding="UTF-8" standalone="no"?>
<svg
   xmlns:dc="http://purl.org/dc/elements/1.1/"
   xmlns:cc="http://creativecommons.org/ns#"
   xmlns:rdf="http://www.w3.org/1999/02/22-rdf-syntax-ns#"
   xmlns:svg="http://www.w3.org/2000/svg"
   xmlns="http://www.w3.org/2000/svg"
   id="svg15"
   height="112.9mm"
   width="112.9mm"
   version="1.0">
  <metadata
     id="metadata19">
    <rdf:RDF>
      <cc:Work
         rdf:about="">
        <dc:format>image/svg+xml</dc:format>
        <dc:type
           rdf:resource="http://purl.org/dc/dcmitype/StillImage" />
      </cc:Work>
    </rdf:RDF>
  </metadata>
  <defs
     id="defs3">
    <pattern
       y="0"
       x="0"
       height="6"
       width="6"
       patternUnits="userSpaceOnUse"
       id="EMFhbasepattern" />
  </defs>
  <path
     id="path5"
     d="  M 833.79528,652.80395   L 940.42472,652.80395   L 940.42472,695.44818   L 833.79528,695.44818   L 833.79528,652.80395   z "
     style="fill:#000000;fill-rule:nonzero;fill-opacity:1;stroke:none;" />
  <path
     id="path7"
     d="  M 695.21099,695.44818   L 1078.9712,695.44818   L 1078.9712,951.27576   L 695.21099,951.27576   L 695.21099,695.44818   z "
     style="fill:#80e0ff;fill-rule:nonzero;fill-opacity:1;stroke:#000000;stroke-width:10.651613px;stroke-linecap:butt;stroke-linejoin:miter;stroke-miterlimit:112;stroke-dasharray:none;stroke-opacity:1;" />
  <path
     id="path9"
     d="  M 790.13122,857.48868   L 790.13122,788.782   L 819.32872,788.782   C 826.65643,788.782 831.98224,789.42412 835.30614,790.63281   C 838.63005,791.87927 841.31184,794.07003 843.31374,797.24285   C 845.31564,800.3779 846.2977,804.00398 846.2977,808.04555   C 846.2977,813.22027 844.78683,817.4507 841.7651,820.81238   C 838.74337,824.17406 834.21076,826.28927 828.1673,827.15802   C 831.18903,828.93329 833.64419,830.82187 835.60832,832.93709   C 837.53467,835.01453 840.17869,838.75393 843.5026,844.07973   L 851.88791,857.48868   L 835.30614,857.48868   L 825.25888,842.53109   C 821.70834,837.20529 819.29095,833.84361 817.96894,832.44606   C 816.64693,831.0485 815.24938,830.10421 813.77629,829.57541   C 812.34096,829.04661 809.99912,828.81998 806.8263,828.81998   L 803.99342,828.81998   L 803.99342,857.48868   L 790.13122,857.48868   z  M 803.99342,817.82842   L 814.26732,817.82842   C 820.91513,817.82842 825.07002,817.56402 826.73197,816.99744   C 828.39393,816.43086 829.67816,815.48657 830.62245,814.08902   C 831.56675,812.72924 832.02001,810.99174 832.02001,808.95207   C 832.02001,806.648 831.41566,804.75942 830.16919,803.36186   C 828.92273,801.92654 827.18523,801.02002 824.9567,800.6423   C 823.82355,800.49122 820.46187,800.41567 814.83389,800.41567   L 803.99342,800.41567   L 803.99342,817.82842   z "
     style="fill:#000000;fill-rule:nonzero;fill-opacity:1;stroke:none;" />
  <path
     id="path11"
     d="  M 920.1791,849.10337   L 912.20928,859.26395   C 908.3188,857.33759 904.5794,854.73135 900.99109,851.36967   C 898.19599,853.90037 895.2498,855.71341 892.11475,856.9221   C 888.9797,858.09303 885.27807,858.69737 880.9721,858.69737   C 872.39793,858.69737 865.97675,856.27999 861.67077,851.48298   C 858.34687,847.78136 856.64714,843.47539 856.64714,838.64061   C 856.64714,834.2591 857.96915,830.29307 860.5754,826.7803   C 863.21941,823.26754 867.14767,820.20803 872.36016,817.60179   C 870.01832,814.84445 868.24305,812.20044 867.07212,809.66973   C 865.86343,807.13903 865.25908,804.75942 865.25908,802.53089   C 865.25908,798.376 866.95881,794.86324 870.28272,791.95482   C 873.60662,789.08417 878.32808,787.61107 884.48487,787.61107   C 890.41502,787.61107 895.06094,789.15971 898.38485,792.18145   C 901.74652,795.20318 903.40848,798.90481 903.40848,803.28632   C 903.40848,806.04365 902.5775,808.68767 900.91555,811.1806   C 899.25359,813.67353 895.92969,816.50641 890.90605,819.67923   L 900.46229,832.2572   C 901.59544,830.29307 902.53973,827.64905 903.37071,824.43846   L 915.26879,827.15802   C 914.06009,831.38845 913.04026,834.48573 912.17151,836.41208   C 911.30276,838.37621 910.35847,840.00039 909.3764,841.3224   C 910.81173,842.68218 912.73808,844.19305 915.04216,845.81723   C 917.384,847.47918 919.08373,848.57456 920.1791,849.10337   L 920.1791,849.10337   z  M 884.33378,811.74718   L 887.92209,809.02762   C 890.52834,807.02572 891.85035,804.98605 891.85035,802.98415   C 891.85035,801.32219 891.20823,799.88687 889.92399,798.67818   C 888.67752,797.50725 886.9778,796.90291 884.82481,796.90291   C 882.7096,796.90291 881.08542,797.43171 879.87672,798.48932   C 878.7058,799.50915 878.10145,800.71785 878.10145,802.1154   C 878.10145,803.73958 879.12129,805.70371 881.12319,808.00778   L 884.33378,811.74718   z  M 879.19683,826.02487   C 876.1751,827.57351 873.9088,829.42432 872.39793,831.57731   C 870.88706,833.73029 870.13163,835.92105 870.13163,838.18735   C 870.13163,841.02023 871.07592,843.3243 872.92673,845.13734   C 874.77755,846.91261 877.27048,847.81913 880.40553,847.81913   C 882.48297,847.81913 884.4471,847.40364 886.37345,846.61044   C 888.26204,845.77946 890.33948,844.45745 892.60578,842.56887   L 879.19683,826.02487   z "
     style="fill:#000000;fill-rule:nonzero;fill-opacity:1;stroke:none;" />
  <path
     id="path13"
     d="  M 928.7155,788.782   L 954.0603,788.782   C 959.76382,788.782 964.10757,789.23526 967.1293,790.10401   C 971.1331,791.3127 974.60809,793.39014 977.47874,796.44965   C 980.34939,799.47138 982.54014,803.17301 984.01324,807.55452   C 985.52411,811.93604 986.27954,817.37516 986.27954,823.79634   C 986.27954,829.46209 985.56188,834.33464 984.16433,838.41398   C 982.4646,843.39984 980.00944,847.44141 976.79885,850.53869   C 974.41923,852.88053 971.17087,854.69358 967.09153,856.01558   C 963.99425,856.99765 959.91491,857.48868 954.81573,857.48868   L 928.7155,857.48868   L 928.7155,788.782   z  M 942.57771,800.41567   L 942.57771,845.89277   L 952.92715,845.89277   C 956.77986,845.89277 959.57496,845.70392 961.31246,845.25066   C 963.57876,844.68408 965.42957,843.73979 966.90267,842.38001   C 968.37577,841.058 969.58446,838.82947 970.52875,835.76996   C 971.47304,832.67269 971.96407,828.48003 971.96407,823.192   C 971.96407,817.86619 971.47304,813.78685 970.52875,810.95397   C 969.58446,808.1211 968.30022,805.89257 966.6005,804.30616   C 964.90077,802.71975 962.78556,801.62437 960.17931,801.05779   C 958.25296,800.6423 954.43802,800.41567 948.81004,800.41567   L 942.57771,800.41567   z "
     style="fill:#000000;fill-rule:nonzero;fill-opacity:1;stroke:none;" />
</svg>
