<?xml version="1.0" encoding="UTF-8" standalone="no"?>
<svg
   xmlns:dc="http://purl.org/dc/elements/1.1/"
   xmlns:cc="http://creativecommons.org/ns#"
   xmlns:rdf="http://www.w3.org/1999/02/22-rdf-syntax-ns#"
   xmlns:svg="http://www.w3.org/2000/svg"
   xmlns="http://www.w3.org/2000/svg"
   id="svg21"
   height="89.669998mm"
   width="120.11mm"
   version="1.0">
  <metadata
     id="metadata25">
    <rdf:RDF>
      <cc:Work
         rdf:about="">
        <dc:format>image/svg+xml</dc:format>
        <dc:type
           rdf:resource="http://purl.org/dc/dcmitype/StillImage" />
      </cc:Work>
    </rdf:RDF>
  </metadata>
  <defs
     id="defs3">
    <pattern
       y="0"
       x="0"
       height="6"
       width="6"
       patternUnits="userSpaceOnUse"
       id="EMFhbasepattern" />
  </defs>
  <path
     id="path5"
     d="  M 179.02008,15.983936   L 179.02008,54.345381   L 274.92369,54.345381   L 274.92369,15.983936   L 179.02008,15.983936   z "
     style="fill:#000000;fill-rule:evenodd;fill-opacity:1;stroke:none;" />
  <path
     id="path7"
     d="  M 54.345381,54.345381   L 54.345381,284.51405   L 399.59839,284.51405   L 399.59839,54.345381   L 54.345381,54.345381   z "
     style="fill:#80e0ff;fill-rule:evenodd;fill-opacity:1;stroke:none;" />
  <path
     id="path9"
     d="  M 54.345381,54.345381   L 399.59839,54.345381   L 399.59839,284.51405   L 54.345381,284.51405   z "
     style="fill:none;stroke:#000000;stroke-width:9.5903616px;stroke-linecap:butt;stroke-linejoin:miter;stroke-miterlimit:10;stroke-dasharray:none;stroke-opacity:1;" />
  <path
     id="path11"
     d="  M 177.66144,161.19799   L 177.66144,168.31084   C 177.66144,172.94618 178.22088,175.74337 179.69939,179.1   C 180.13895,180.01907 183.33574,188.6504 183.33574,188.73032   L 184.13494,188.6504   L 187.61144,181.61747   C 185.57349,178.54056 184.29478,171.70743 184.29478,166.43273   L 184.29478,162.15703   C 184.29478,153.1261 189.84919,142.29699 194.36466,137.58172   C 198.52048,133.2261 208.43052,124.35502 216.22269,124.15522   L 215.14377,117.52189   C 198.28072,118.96044 177.66144,142.13715 177.66144,161.19799   z "
     style="fill:#000000;fill-rule:evenodd;fill-opacity:1;stroke:none;" />
  <path
     id="path13"
     d="  M 152.00723,161.19799   L 152.00723,173.54558   C 152.00723,183.73534 164.87429,212.74618 170.98815,214.34458   C 171.34779,213.06586 173.38574,209.10984 173.38574,208.19076   C 173.38574,208.19076 168.47068,201.15783 167.83132,199.95903   C 166.19297,196.80221 164.6745,194.28474 163.19598,190.84819   C 160.59859,184.61446 158.68052,176.46265 158.68052,167.83132   L 158.68052,162.15703   C 158.68052,142.93634 166.71245,131.14819 175.18393,120.27911   C 178.46064,116.08333 186.37269,109.76968 191.24779,106.93253   C 194.64437,104.9745 197.2018,103.5759 201.03795,102.01747   C 202.31666,101.49799 211.90703,98.980521 211.94698,98.061444   L 211.34759,91.907629   C 205.71325,92.027509 192.3267,98.141364 188.29076,100.61887   C 180.69839,105.25422 176.66245,109.29016 170.62851,115.28413   C 161.99719,123.8755 152.00723,143.93534 152.00723,161.19799   z "
     style="fill:#000000;fill-rule:evenodd;fill-opacity:1;stroke:none;" />
  <path
     id="path15"
     d="  M 237.32148,124.15522   C 251.8269,125.39397 269.24939,146.05321 269.24939,162.63654   L 269.24939,167.83132   C 269.24939,171.42771 265.93273,181.01807 265.93273,181.13795   C 265.93273,181.65743 268.8498,187.97108 269.24939,188.73032   L 269.68895,188.93012   L 273.5251,180.65843   L 273.88473,179.2998   L 275.40321,164.99417   L 275.80281,163.99518   L 273.5251,149.80944   C 271.80682,149.13012 272.04658,146.41285 270.88775,144.3749   C 269.76887,142.45683 268.92971,140.53875 267.8508,138.9004   C 265.25341,134.94438 263.41526,132.8265 260.09859,129.50984   C 254.94377,124.31506 246.27249,119.47992 238.0008,117.56185   z "
     style="fill:#000000;fill-rule:evenodd;fill-opacity:1;stroke:none;" />
  <path
     id="path17"
     d="  M 241.11767,98.540962   C 257.78092,102.41707 267.2514,109.48996 277.44116,119.7996   C 284.63393,127.07229 294.86365,146.17309 294.86365,160.23895   L 294.86365,169.7494   C 294.86365,174.66446 291.38714,188.09096 289.46907,191.36767   C 287.79076,194.24478 286.63192,197.16184 284.91365,200.11887   C 284.31425,201.11787 279.19939,208.03092 279.19939,208.19076   C 279.19939,209.74919 281.51706,212.06686 282.0765,214.34458   C 286.07249,213.30562 293.46506,199.11988 295.62289,194.68433   C 298.53996,188.73032 302.01646,175.94317 302.01646,167.39176   L 302.01646,158.84036   C 302.01646,158.64056 299.81867,147.01225 299.53895,145.65361   C 299.05943,143.53574 296.26224,136.86245 295.26325,134.26506   C 293.18534,129.03032 286.51204,118.92048 282.6759,115.04438   C 274.12449,106.41305 257.42128,93.186344 242.19658,91.907629   z "
     style="fill:#000000;fill-rule:evenodd;fill-opacity:1;stroke:none;" />
  <path
     id="path19"
     d="  M 250.22851,212.4265   L 260.09859,244.63413   L 259.57911,244.95381   L 230.40843,224.93393   z  M 203.0759,212.54638   L 222.21666,224.85401   L 193.1259,245.15361   z  M 226.49237,189.16988   L 247.67108,208.87008   C 243.55522,210.02891 228.33052,222.41646 226.53233,222.41646   C 226.09277,222.41646 206.75221,209.54939 205.99297,208.51044   z  M 239.11968,177.54156   L 246.59217,201.03795   L 230.16867,185.69337   z  M 213.90502,177.86124   L 222.93594,185.65341   L 206.39257,200.99799   z  M 218.82008,175.54357   L 234.1247,175.42369   L 226.41245,183.13594   z  M 225.09377,136.06325   C 224.97389,137.54177 224.65421,137.74156 224.65421,139.37992   L 224.65421,144.13514   L 217.5014,144.13514   C 216.42249,144.13514 215.62329,144.89438 215.62329,146.01325   C 215.62329,147.29197 215.86305,147.33193 216.10281,148.37088   C 217.14176,148.6506 217.18172,148.8504 218.46044,148.8504   L 224.65421,148.8504   L 224.65421,155.52369   L 213.70522,155.52369   C 212.26666,155.52369 210.86807,155.96325 210.86807,157.4018   C 210.86807,158.52068 211.66727,159.31988 212.78614,159.31988   L 224.65421,159.31988   L 224.65421,171.18795   L 213.70522,171.18795   C 212.4265,171.18795 212.4265,171.38775 211.58735,171.70743   L 205.55341,190.76827   L 203.19578,198.36064   L 193.20582,230.12871   L 190.44859,237.6012   C 190.44859,242.4763 187.13193,245.95281 187.13193,250.90783   C 187.13193,251.98674 187.29176,251.46727 187.61144,252.78594   L 189.05,252.78594   C 190.40863,252.78594 225.17369,228.13072 226.05281,228.13072   C 227.57128,228.13072 260.05863,250.62811 264.01465,253.26546   C 265.05361,252.74598 266.41225,252.46626 266.41225,250.90783   L 266.41225,249.46927   C 266.41225,249.34939 262.7759,238.8 262.29638,237.44136   C 261.41727,234.80401 258.81988,227.21164 258.58012,224.89397   L 256.06265,217.34156   L 246.19257,185.49357   L 244.11466,177.34176   C 241.79698,176.42269 243.4753,171.18795 240.31847,171.18795   L 228.88996,171.18795   L 228.88996,159.31988   L 240.31847,159.31988   C 241.39739,159.31988 242.19658,158.52068 242.19658,157.4018   C 242.19658,156.28293 241.39739,155.52369 240.31847,155.52369   L 228.88996,155.52369   L 228.88996,148.8504   L 234.60421,148.8504   C 236.20261,148.8504 237.92088,148.01124 237.92088,146.49277   L 237.92088,146.01325   C 237.92088,144.89438 237.12168,144.13514 236.04277,144.13514   L 228.88996,144.13514   L 228.88996,137.94136   C 228.88996,136.98233 227.53132,135.58373 227.01184,135.58373   C 226.89196,135.58373 225.25361,135.98333 225.09377,136.06325   z "
     style="fill:#000000;fill-rule:evenodd;fill-opacity:1;stroke:none;" />
</svg>
