<?xml version="1.0" encoding="UTF-8" standalone="no"?>
<svg
   xmlns:dc="http://purl.org/dc/elements/1.1/"
   xmlns:cc="http://creativecommons.org/ns#"
   xmlns:rdf="http://www.w3.org/1999/02/22-rdf-syntax-ns#"
   xmlns:svg="http://www.w3.org/2000/svg"
   xmlns="http://www.w3.org/2000/svg"
   id="svg21"
   height="116.73mm"
   width="116.73mm"
   version="1.0">
  <metadata
     id="metadata25">
    <rdf:RDF>
      <cc:Work
         rdf:about="">
        <dc:format>image/svg+xml</dc:format>
        <dc:type
           rdf:resource="http://purl.org/dc/dcmitype/StillImage" />
      </cc:Work>
    </rdf:RDF>
  </metadata>
  <defs
     id="defs3">
    <pattern
       y="0"
       x="0"
       height="6"
       width="6"
       patternUnits="userSpaceOnUse"
       id="EMFhbasepattern" />
  </defs>
  <path
     id="path5"
     d="  M 172.6265,43.156626   L 172.6265,100.69879   L 268.53012,100.69879   L 268.53012,43.156626   L 172.6265,43.156626   z "
     style="fill:#000000;fill-rule:evenodd;fill-opacity:1;stroke:none;" />
  <path
     id="path7"
     d="  M 220.57831,386.49156   L 220.57831,386.49156   L 386.49156,220.57831   L 220.57831,54.665059   L 54.665059,220.57831   L 220.57831,386.49156   z "
     style="fill:#ff8080;fill-rule:evenodd;fill-opacity:1;stroke:none;" />
  <path
     id="path9"
     d="  M 220.57831,386.49156   L 220.57831,386.49156   L 386.49156,220.57831   L 220.57831,54.665059   L 54.665059,220.57831   L 220.57831,386.49156  "
     style="fill:none;stroke:#000000;stroke-width:9.5903616px;stroke-linecap:butt;stroke-linejoin:miter;stroke-miterlimit:10;stroke-dasharray:none;stroke-opacity:1;" />
  <path
     id="path11"
     d="  M 171.26787,212.34658   L 171.26787,219.45943   C 171.26787,224.09478 171.82731,226.89196 173.30582,230.24859   C 173.74538,231.16767 176.94217,239.79899 176.94217,239.87891   L 177.74136,239.79899   L 181.21787,232.76606   C 179.17992,229.68915 177.9012,222.85602 177.9012,217.58132   L 177.9012,213.30562   C 177.9012,204.2747 183.45562,193.44558 187.97108,188.73032   C 192.1269,184.3747 202.03694,175.50361 209.82911,175.30381   L 208.7502,168.67048   C 191.88715,170.10903 171.26787,193.28574 171.26787,212.34658   z "
     style="fill:#000000;fill-rule:evenodd;fill-opacity:1;stroke:none;" />
  <path
     id="path13"
     d="  M 145.61365,212.34658   L 145.61365,224.69417   C 145.61365,234.88393 158.48072,263.89478 164.59458,265.49317   C 164.95421,264.21445 166.99217,260.25843 166.99217,259.33935   C 166.99217,259.33935 162.07711,252.30642 161.43775,251.10763   C 159.7994,247.9508 158.28092,245.43333 156.80241,241.99678   C 154.20502,235.76305 152.28695,227.61124 152.28695,218.97992   L 152.28695,213.30562   C 152.28695,194.08494 160.31887,182.29678 168.79036,171.42771   C 172.06707,167.23193 179.97911,160.91827 184.85421,158.08112   C 188.2508,156.12309 190.80823,154.7245 194.64437,153.16606   C 195.92309,152.64658 205.51345,150.12911 205.55341,149.21004   L 204.95401,143.05622   C 199.31968,143.1761 185.93313,149.28996 181.89719,151.76747   C 174.30482,156.40281 170.26887,160.43875 164.23494,166.43273   C 155.60361,175.02409 145.61365,195.08393 145.61365,212.34658   z "
     style="fill:#000000;fill-rule:evenodd;fill-opacity:1;stroke:none;" />
  <path
     id="path15"
     d="  M 230.92791,175.30381   C 245.43333,176.54257 262.85582,197.2018 262.85582,213.78514   L 262.85582,218.97992   C 262.85582,222.5763 259.53915,232.16666 259.53915,232.28654   C 259.53915,232.80602 262.45622,239.11968 262.85582,239.87891   L 263.29538,240.07871   L 267.13152,231.80702   L 267.49116,230.44839   L 269.00963,216.14277   L 269.40923,215.14377   L 267.13152,200.95803   C 265.41325,200.27871 265.65301,197.56144 264.49417,195.52349   C 263.3753,193.60542 262.53614,191.68735 261.45723,190.04899   C 258.85984,186.09297 257.02168,183.9751 253.70502,180.65843   C 248.5502,175.46365 239.87891,170.62851 231.60723,168.71044   z "
     style="fill:#000000;fill-rule:evenodd;fill-opacity:1;stroke:none;" />
  <path
     id="path17"
     d="  M 234.72409,149.68956   C 251.38735,153.56566 260.85783,160.63855 271.04759,170.94819   C 278.24036,178.22088 288.47008,197.32168 288.47008,211.38755   L 288.47008,220.89799   C 288.47008,225.81305 284.99357,239.23955 283.0755,242.51626   C 281.39718,245.39337 280.23835,248.31044 278.52008,251.26747   C 277.92068,252.26646 272.80582,259.17951 272.80582,259.33935   C 272.80582,260.89779 275.12349,263.21546 275.68293,265.49317   C 279.67891,264.45421 287.07148,250.26847 289.22931,245.83293   C 292.14638,239.87891 295.62289,227.09176 295.62289,218.54036   L 295.62289,209.98895   C 295.62289,209.78915 293.4251,198.16084 293.14538,196.80221   C 292.66586,194.68433 289.86867,188.01104 288.86967,185.41365   C 286.79176,180.17891 280.11847,170.06907 276.28233,166.19297   C 267.73092,157.56164 251.02771,144.33494 235.80301,143.05622   z "
     style="fill:#000000;fill-rule:evenodd;fill-opacity:1;stroke:none;" />
  <path
     id="path19"
     d="  M 243.83494,263.5751   L 253.70502,295.78273   L 253.18554,296.10241   L 224.01486,276.08253   z  M 196.68233,263.69498   L 215.82309,276.00261   L 186.73233,296.3022   z  M 220.09879,240.31847   L 241.27751,260.01867   C 237.16164,261.17751 221.93694,273.56506 220.13875,273.56506   C 219.69919,273.56506 200.35863,260.69799 199.59939,259.65903   z  M 232.7261,228.69016   L 240.19859,252.18654   L 223.7751,236.84196   z  M 207.51144,229.00984   L 216.54237,236.802   L 199.99899,252.14658   z  M 212.4265,226.69217   L 227.73112,226.57229   L 220.01887,234.28453   z  M 218.7002,187.21184   C 218.58032,188.69036 218.26064,188.89016 218.26064,190.52851   L 218.26064,195.28373   L 211.10783,195.28373   C 210.02891,195.28373 209.22972,196.04297 209.22972,197.16184   C 209.22972,198.44056 209.46947,198.48052 209.70923,199.51948   C 210.74819,199.79919 210.78815,199.99899 212.06686,199.99899   L 218.26064,199.99899   L 218.26064,206.67229   L 207.31164,206.67229   C 205.87309,206.67229 204.4745,207.11184 204.4745,208.5504   C 204.4745,209.66927 205.27369,210.46847 206.39257,210.46847   L 218.26064,210.46847   L 218.26064,222.33654   L 207.31164,222.33654   C 206.03293,222.33654 206.03293,222.53634 205.19377,222.85602   L 199.15984,241.91686   L 196.80221,249.50923   L 186.81225,281.27731   L 184.05502,288.7498   C 184.05502,293.6249 180.73835,297.1014 180.73835,302.05642   C 180.73835,303.13534 180.89819,302.61586 181.21787,303.93453   L 182.65642,303.93453   C 184.01506,303.93453 218.78012,279.27931 219.65923,279.27931   C 221.17771,279.27931 253.66506,301.7767 257.62108,304.41405   C 258.66004,303.89457 260.01867,303.61486 260.01867,302.05642   L 260.01867,300.61787   C 260.01867,300.49799 256.38233,289.94859 255.90281,288.58996   C 255.02369,285.95261 252.4263,278.36024 252.18654,276.04257   L 249.66907,268.49016   L 239.79899,236.64217   L 237.72108,228.49036   C 235.40341,227.57128 237.08172,222.33654 233.9249,222.33654   L 222.49638,222.33654   L 222.49638,210.46847   L 233.9249,210.46847   C 235.00381,210.46847 235.80301,209.66927 235.80301,208.5504   C 235.80301,207.43152 235.00381,206.67229 233.9249,206.67229   L 222.49638,206.67229   L 222.49638,199.99899   L 228.21064,199.99899   C 229.80903,199.99899 231.52731,199.15984 231.52731,197.64136   L 231.52731,197.16184   C 231.52731,196.04297 230.72811,195.28373 229.64919,195.28373   L 222.49638,195.28373   L 222.49638,189.08996   C 222.49638,188.13092 221.13775,186.73233 220.61827,186.73233   C 220.49839,186.73233 218.86004,187.13193 218.7002,187.21184   z "
     style="fill:#000000;fill-rule:evenodd;fill-opacity:1;stroke:none;" />
</svg>
