<?xml version="1.0" encoding="UTF-8" standalone="no"?>
<svg
   xmlns:dc="http://purl.org/dc/elements/1.1/"
   xmlns:cc="http://creativecommons.org/ns#"
   xmlns:rdf="http://www.w3.org/1999/02/22-rdf-syntax-ns#"
   xmlns:svg="http://www.w3.org/2000/svg"
   xmlns="http://www.w3.org/2000/svg"
   id="svg19"
   height="95.75mm"
   width="95.75mm"
   version="1.0">
  <metadata
     id="metadata23">
    <rdf:RDF>
      <cc:Work
         rdf:about="">
        <dc:format>image/svg+xml</dc:format>
        <dc:type
           rdf:resource="http://purl.org/dc/dcmitype/StillImage" />
      </cc:Work>
    </rdf:RDF>
  </metadata>
  <defs
     id="defs3">
    <pattern
       y="0"
       x="0"
       height="6"
       width="6"
       patternUnits="userSpaceOnUse"
       id="EMFhbasepattern" />
  </defs>
  <path
     id="path5"
     d="  M 54.345381,54.345381   L 54.345381,307.53092   L 307.53092,307.53092   L 307.53092,54.345381   L 54.345381,54.345381   z "
     style="fill:#aaffaa;fill-rule:evenodd;fill-opacity:1;stroke:none;" />
  <path
     id="path7"
     d="  M 54.345381,54.345381   L 307.53092,54.345381   L 307.53092,307.53092   L 54.345381,307.53092   z "
     style="fill:none;stroke:#000000;stroke-width:9.5903616px;stroke-linecap:butt;stroke-linejoin:miter;stroke-miterlimit:10;stroke-dasharray:none;stroke-opacity:1;" />
  <path
     id="path9"
     d="  M 54.345381,54.345381   L 54.345381,54.345381   L 180.93815,200.11887   L 180.93815,161.75743   L 307.53092,307.53092  "
     style="fill:none;stroke:#000000;stroke-width:9.5903616px;stroke-linecap:butt;stroke-linejoin:miter;stroke-miterlimit:10;stroke-dasharray:none;stroke-opacity:1;" />
  <path
     id="path11"
     d="  M 180.93815,94.624898   L 180.93815,281.63694  "
     style="fill:none;stroke:#000000;stroke-width:9.5903616px;stroke-linecap:butt;stroke-linejoin:miter;stroke-miterlimit:10;stroke-dasharray:none;stroke-opacity:1;" />
  <path
     id="path13"
     d="  M 118.6008,99.420079   L 243.2755,99.420079  "
     style="fill:none;stroke:#000000;stroke-width:9.5903616px;stroke-linecap:butt;stroke-linejoin:miter;stroke-miterlimit:10;stroke-dasharray:none;stroke-opacity:1;" />
  <path
     id="path15"
     d="  M 137.78152,123.39598   L 224.09478,123.39598  "
     style="fill:none;stroke:#000000;stroke-width:9.5903616px;stroke-linecap:butt;stroke-linejoin:miter;stroke-miterlimit:10;stroke-dasharray:none;stroke-opacity:1;" />
  <path
     id="path17"
     d="  M 204.67429,245.11365   L 212.8261,247.1516   C 211.10783,253.90482 208.03092,259.01967 203.59538,262.53614   C 199.11988,266.05261 193.68534,267.81084 187.2518,267.81084   C 180.57851,267.81084 175.18393,266.4522 170.98815,263.7749   C 166.83233,261.05763 163.63554,257.1016 161.47771,251.98674   C 159.31988,246.83192 158.201,241.31747 158.201,235.40341   C 158.201,228.96988 159.43976,223.3755 161.91727,218.58032   C 164.35482,213.78514 167.87128,210.14879 172.38674,207.67128   C 176.94217,205.15381 181.93715,203.91506 187.37168,203.91506   C 193.56546,203.91506 198.76024,205.51345 202.95602,208.67028   C 207.19176,211.78715 210.10883,216.22269 211.78715,221.93694   L 203.71526,223.81506   C 202.2767,219.33956 200.19879,216.06285 197.48152,213.98494   C 194.76425,211.94698 191.32771,210.90803 187.21184,210.90803   C 182.45662,210.90803 178.5006,212.06686 175.30381,214.34458   C 172.10703,216.62229 169.86927,219.65923 168.59056,223.49538   C 167.27189,227.33152 166.63253,231.28755 166.63253,235.36345   C 166.63253,240.63815 167.39176,245.19357 168.9502,249.14959   C 170.46867,253.06566 172.86626,255.98273 176.06305,257.9008   C 179.2998,259.85883 182.81626,260.81787 186.57249,260.81787   C 191.16787,260.81787 195.04397,259.49919 198.2008,256.86184   C 201.39759,254.22449 203.51546,250.30843 204.67429,245.11365   z "
     style="fill:#000000;fill-rule:evenodd;fill-opacity:1;stroke:none;" />
</svg>
