<?xml version="1.0" encoding="UTF-8" standalone="no"?>
<svg
   xmlns:dc="http://purl.org/dc/elements/1.1/"
   xmlns:cc="http://creativecommons.org/ns#"
   xmlns:rdf="http://www.w3.org/1999/02/22-rdf-syntax-ns#"
   xmlns:svg="http://www.w3.org/2000/svg"
   xmlns="http://www.w3.org/2000/svg"
   id="svg29"
   height="130.27mm"
   width="130.27mm"
   version="1.0">
  <metadata
     id="metadata33">
    <rdf:RDF>
      <cc:Work
         rdf:about="">
        <dc:format>image/svg+xml</dc:format>
        <dc:type
           rdf:resource="http://purl.org/dc/dcmitype/StillImage" />
      </cc:Work>
    </rdf:RDF>
  </metadata>
  <defs
     id="defs3">
    <pattern
       y="0"
       x="0"
       height="6"
       width="6"
       patternUnits="userSpaceOnUse"
       id="EMFhbasepattern" />
  </defs>
  <path
     id="path5"
     d="  M 164.63454,327.67068   C 164.63454,437.95983 327.67068,437.95983 327.67068,327.67068   C 437.95983,327.67068 437.95983,164.63454 327.67068,164.63454   C 327.67068,54.345381 164.63454,54.345381 164.63454,164.63454   C 54.345381,164.63454 54.345381,327.67068 164.63454,327.67068   z "
     style="fill:#ffff80;fill-rule:evenodd;fill-opacity:1;stroke:none;" />
  <path
     id="path7"
     d="  M 164.63454,327.67068   C 164.63454,437.95983 327.67068,437.95983 327.67068,327.67068   C 437.95983,327.67068 437.95983,164.63454 327.67068,164.63454   C 327.67068,54.345381 164.63454,54.345381 164.63454,164.63454   C 54.345381,164.63454 54.345381,327.67068 164.63454,327.67068  "
     style="fill:none;stroke:#000000;stroke-width:9.5903616px;stroke-linecap:butt;stroke-linejoin:miter;stroke-miterlimit:10;stroke-dasharray:none;stroke-opacity:1;" />
  <path
     id="path9"
     d="  M 265.33333,241.35743   C 265.33333,251.98674 256.78192,260.53815 246.15261,260.53815   C 235.56325,260.53815 226.97188,251.98674 226.97188,241.35743   C 226.97188,230.76807 235.56325,222.1767 246.15261,222.1767   C 256.78192,222.1767 265.33333,230.76807 265.33333,241.35743  "
     style="fill:none;stroke:#000000;stroke-width:9.5903616px;stroke-linecap:butt;stroke-linejoin:miter;stroke-miterlimit:10;stroke-dasharray:none;stroke-opacity:1;" />
  <path
     id="path11"
     d="  M 246.15261,260.53815   L 246.15261,351.64658  "
     style="fill:none;stroke:#000000;stroke-width:9.5903616px;stroke-linecap:butt;stroke-linejoin:miter;stroke-miterlimit:10;stroke-dasharray:none;stroke-opacity:1;" />
  <path
     id="path13"
     d="  M 222.1767,284.51405   L 270.12851,284.51405  "
     style="fill:none;stroke:#000000;stroke-width:9.5903616px;stroke-linecap:butt;stroke-linejoin:miter;stroke-miterlimit:10;stroke-dasharray:none;stroke-opacity:1;" />
  <path
     id="path15"
     d="  M 207.79116,222.1767   C 207.79116,232.80602 199.23976,241.35743 188.61044,241.35743   C 178.02108,241.35743 169.42972,232.80602 169.42972,222.1767   C 169.42972,211.58735 178.02108,202.99598 188.61044,202.99598   C 199.23976,202.99598 207.79116,211.58735 207.79116,222.1767  "
     style="fill:none;stroke:#000000;stroke-width:9.5903616px;stroke-linecap:butt;stroke-linejoin:miter;stroke-miterlimit:10;stroke-dasharray:none;stroke-opacity:1;" />
  <path
     id="path17"
     d="  M 188.61044,241.35743   L 188.61044,332.46586  "
     style="fill:none;stroke:#000000;stroke-width:9.5903616px;stroke-linecap:butt;stroke-linejoin:miter;stroke-miterlimit:10;stroke-dasharray:none;stroke-opacity:1;" />
  <path
     id="path19"
     d="  M 164.63454,265.33333   L 212.58634,265.33333  "
     style="fill:none;stroke:#000000;stroke-width:9.5903616px;stroke-linecap:butt;stroke-linejoin:miter;stroke-miterlimit:10;stroke-dasharray:none;stroke-opacity:1;" />
  <path
     id="path21"
     d="  M 322.8755,222.1767   C 322.8755,232.80602 314.32409,241.35743 303.69477,241.35743   C 293.10542,241.35743 284.51405,232.80602 284.51405,222.1767   C 284.51405,211.58735 293.10542,202.99598 303.69477,202.99598   C 314.32409,202.99598 322.8755,211.58735 322.8755,222.1767  "
     style="fill:none;stroke:#000000;stroke-width:9.5903616px;stroke-linecap:butt;stroke-linejoin:miter;stroke-miterlimit:10;stroke-dasharray:none;stroke-opacity:1;" />
  <path
     id="path23"
     d="  M 303.69477,241.35743   L 303.69477,332.46586  "
     style="fill:none;stroke:#000000;stroke-width:9.5903616px;stroke-linecap:butt;stroke-linejoin:miter;stroke-miterlimit:10;stroke-dasharray:none;stroke-opacity:1;" />
  <path
     id="path25"
     d="  M 279.71887,265.33333   L 327.67068,265.33333  "
     style="fill:none;stroke:#000000;stroke-width:9.5903616px;stroke-linecap:butt;stroke-linejoin:miter;stroke-miterlimit:10;stroke-dasharray:none;stroke-opacity:1;" />
  <path
     id="path27"
     d="  M 208.07088,188.41064   L 208.07088,155.12409   L 195.60341,155.12409   L 195.60341,150.68855   L 225.53333,150.68855   L 225.53333,155.12409   L 213.06586,155.12409   L 213.06586,188.41064   z  M 230.76807,188.41064   L 230.76807,150.68855   L 258.06064,150.68855   L 258.06064,155.12409   L 235.76305,155.12409   L 235.76305,166.67249   L 256.66204,166.67249   L 256.66204,171.10803   L 235.76305,171.10803   L 235.76305,183.9751   L 258.93976,183.9751   L 258.93976,188.41064   z  M 265.93273,188.41064   L 265.93273,150.68855   L 282.6759,150.68855   C 286.03253,150.68855 288.58996,151.00823 290.34819,151.68755   C 292.10642,152.36687 293.50502,153.56566 294.54397,155.28393   C 295.58293,157.00221 296.10241,158.88032 296.10241,160.95823   C 296.10241,163.63554 295.26325,165.91325 293.50502,167.7514   C 291.78674,169.58956 289.10943,170.74839 285.47309,171.26787   C 286.79176,171.86727 287.79076,172.50662 288.51004,173.14598   C 289.94859,174.46466 291.34718,176.14297 292.6259,178.14096   L 299.21927,188.41064   L 292.90562,188.41064   L 287.91064,180.57851   C 286.47208,178.3008 285.27329,176.58253 284.31425,175.38373   C 283.39518,174.18494 282.51606,173.34578 281.79678,172.86626   C 281.03755,172.38674 280.27831,172.02711 279.51907,171.82731   C 278.91967,171.70743 278.0006,171.66747 276.72188,171.66747   L 270.92771,171.66747   L 270.92771,188.41064   z  M 270.92771,167.3518   L 281.6769,167.3518   C 283.95461,167.3518 285.75281,167.11205 287.03152,166.63253   C 288.31024,166.15301 289.30923,165.39377 289.94859,164.35482   C 290.62791,163.31586 290.94759,162.19699 290.94759,160.95823   C 290.94759,159.2 290.30823,157.72148 289.02951,156.56265   C 287.71084,155.40381 285.67289,154.84438 282.8757,154.84438   L 270.92771,154.84438   z "
     style="fill:#000000;fill-rule:evenodd;fill-opacity:1;stroke:none;" />
</svg>
