<?xml version="1.0" encoding="UTF-8" standalone="no"?>
<svg
   xmlns:dc="http://purl.org/dc/elements/1.1/"
   xmlns:cc="http://creativecommons.org/ns#"
   xmlns:rdf="http://www.w3.org/1999/02/22-rdf-syntax-ns#"
   xmlns:svg="http://www.w3.org/2000/svg"
   xmlns="http://www.w3.org/2000/svg"
   id="svg15"
   height="89.669998mm"
   width="120.11mm"
   version="1.0">
  <metadata
     id="metadata19">
    <rdf:RDF>
      <cc:Work
         rdf:about="">
        <dc:format>image/svg+xml</dc:format>
        <dc:type
           rdf:resource="http://purl.org/dc/dcmitype/StillImage" />
      </cc:Work>
    </rdf:RDF>
  </metadata>
  <defs
     id="defs3">
    <pattern
       y="0"
       x="0"
       height="6"
       width="6"
       patternUnits="userSpaceOnUse"
       id="EMFhbasepattern" />
  </defs>
  <path
     id="path5"
     d="  M 54.345381,54.345381   L 54.345381,284.51405   L 399.59839,284.51405   L 399.59839,54.345381   L 54.345381,54.345381   z "
     style="fill:#80e0ff;fill-rule:evenodd;fill-opacity:1;stroke:none;" />
  <path
     id="path7"
     d="  M 54.345381,54.345381   L 399.59839,54.345381   L 399.59839,284.51405   L 54.345381,284.51405   z "
     style="fill:none;stroke:#000000;stroke-width:9.5903616px;stroke-linecap:butt;stroke-linejoin:miter;stroke-miterlimit:10;stroke-dasharray:none;stroke-opacity:1;" />
  <path
     id="path9"
     d="  M 159.23996,163.19598   L 159.23996,108.69076   L 138.86044,108.69076   L 138.86044,101.41807   L 187.8512,101.41807   L 187.8512,108.69076   L 167.39176,108.69076   L 167.39176,163.19598   z  M 195.96305,163.19598   L 195.96305,101.41807   L 208.27068,101.41807   L 222.89598,145.13413   C 224.25462,149.21004 225.25361,152.28695 225.85301,154.28494   C 226.57229,152.04719 227.6512,148.73052 229.12972,144.3749   L 243.91486,101.41807   L 254.94377,101.41807   L 254.94377,163.19598   L 247.03172,163.19598   L 247.03172,111.48795   L 229.08976,163.19598   L 221.73715,163.19598   L 203.83514,110.60883   L 203.83514,163.19598   z  M 268.13052,163.19598   L 268.13052,101.41807   L 289.38915,101.41807   C 294.22429,101.41807 297.86064,101.69779 300.41807,102.29719   C 303.93453,103.09638 306.97148,104.5749 309.44899,106.73273   C 312.7257,109.48996 315.16325,113.00642 316.76164,117.28213   C 318.4,121.55783 319.19919,126.47289 319.19919,131.94739   C 319.19919,136.66265 318.63975,140.81847 317.56084,144.45482   C 316.48192,148.0512 315.04337,151.04819 313.3251,153.44578   C 311.64678,155.80341 309.76867,157.68152 307.73072,159.04016   C 305.69277,160.39879 303.21526,161.43775 300.33815,162.15703   C 297.46104,162.83634 294.14437,163.19598 290.42811,163.19598   z  M 276.28233,155.88333   L 289.50903,155.88333   C 293.58494,155.88333 296.74176,155.52369 299.05943,154.76446   C 301.3771,154.00522 303.25522,152.9263 304.61385,151.56767   C 306.57188,149.60964 308.09036,147.01225 309.16927,143.73554   C 310.24819,140.45883 310.76767,136.50281 310.76767,131.82751   C 310.76767,125.39397 309.72871,120.39899 307.61084,116.92249   C 305.45301,113.48594 302.89558,111.12831 299.85863,109.96948   C 297.66084,109.13032 294.14437,108.69076 289.26927,108.69076   L 276.28233,108.69076   z "
     style="fill:#000000;fill-rule:evenodd;fill-opacity:1;stroke:none;" />
  <path
     id="path11"
     d="  M 58.181525,284.51405   C 131.06827,150.24899 322.8755,150.24899 395.76224,284.51405   z "
     style="fill:#80e0ff;fill-rule:evenodd;fill-opacity:1;stroke:none;" />
  <path
     id="path13"
     d="  M 58.181525,284.51405   C 131.06827,150.24899 322.8755,150.24899 395.76224,284.51405   z "
     style="fill:none;stroke:#000000;stroke-width:9.5903616px;stroke-linecap:butt;stroke-linejoin:miter;stroke-miterlimit:10;stroke-dasharray:none;stroke-opacity:1;" />
</svg>
