<?xml version="1.0" encoding="UTF-8" standalone="no"?>
<svg
   xmlns:dc="http://purl.org/dc/elements/1.1/"
   xmlns:cc="http://creativecommons.org/ns#"
   xmlns:rdf="http://www.w3.org/1999/02/22-rdf-syntax-ns#"
   xmlns:svg="http://www.w3.org/2000/svg"
   xmlns="http://www.w3.org/2000/svg"
   id="svg11"
   height="112.9mm"
   width="112.9mm"
   version="1.0">
  <metadata
     id="metadata15">
    <rdf:RDF>
      <cc:Work
         rdf:about="">
        <dc:format>image/svg+xml</dc:format>
        <dc:type
           rdf:resource="http://purl.org/dc/dcmitype/StillImage" />
      </cc:Work>
    </rdf:RDF>
  </metadata>
  <defs
     id="defs3">
    <pattern
       y="0"
       x="0"
       height="6"
       width="6"
       patternUnits="userSpaceOnUse"
       id="EMFhbasepattern" />
  </defs>
  <path
     id="path5"
     d="  M 1858.8786,1858.7449   L 2156.7065,1858.7449   L 2156.7065,2050.1868   L 1858.8786,2050.1868   z "
     style="fill:none;stroke:#d2b06a;stroke-width:10.627287px;stroke-linecap:butt;stroke-linejoin:miter;stroke-miterlimit:282;stroke-dasharray:none;stroke-opacity:1;" />
  <path
     id="path7"
     d="  M 1875.8748,1982.0893   L 1894.9059,1980.4311   C 1895.8103,1988.0436 1897.883,1994.2993 1901.1994,1999.1984   C 1904.478,2004.0599 1909.5655,2008.0168 1916.4996,2011.0317   C 1923.4337,2014.0465 1931.2346,2015.5539 1939.8646,2015.5539   C 1947.5524,2015.5539 1954.3358,2014.4233 1960.2147,2012.1245   C 1966.1313,2009.8257 1970.5028,2006.6978 1973.3669,2002.7409   C 1976.231,1998.7462 1977.6631,1994.4124 1977.6631,1989.7017   C 1977.6631,1984.9157 1976.3064,1980.7326 1973.5177,1977.1902   C 1970.7666,1973.61 1966.169,1970.5952 1959.8002,1968.1833   C 1955.7301,1966.6006 1946.6856,1964.1133 1932.7044,1960.7593   C 1918.7231,1957.4053 1908.9249,1954.2397 1903.3097,1951.2626   C 1896.0365,1947.4564 1890.6098,1942.708 1887.0673,1937.0929   C 1883.4872,1931.4401 1881.716,1925.1089 1881.716,1918.1371   C 1881.716,1910.4493 1883.9017,1903.2514 1888.2356,1896.5811   C 1892.6071,1889.9107 1898.9759,1884.8232 1907.3798,1881.3562   C 1915.7459,1877.8891 1925.0542,1876.1556 1935.3047,1876.1556   C 1946.5726,1876.1556 1956.5592,1877.9645 1965.1515,1881.6199   C 1973.7815,1885.2377 1980.4141,1890.5891 1985.0494,1897.6739   C 1989.6847,1904.7211 1992.1719,1912.7104 1992.5488,1921.6419   L 1973.2162,1923.1116   C 1972.161,1913.5018 1968.6562,1906.2285 1962.6643,1901.2917   C 1956.6723,1896.3926 1947.8162,1893.9431 1936.1337,1893.9431   C 1923.9613,1893.9431 1915.0676,1896.1665 1909.4901,1900.6134   C 1903.9127,1905.098 1901.124,1910.487 1901.124,1916.7804   C 1901.124,1922.2448 1903.1213,1926.7294 1907.0406,1930.2718   C 1910.9222,1933.8142 1921.0596,1937.432 1937.415,1941.1252   C 1953.8082,1944.8184 1965.0384,1948.0593 1971.1435,1950.8481   C 1979.9996,1954.9181 1986.5568,1960.1187 1990.7776,1966.3744   C 1994.9983,1972.6302 1997.1087,1979.8658 1997.1087,1988.0436   C 1997.1087,1996.1459 1994.7722,2003.7584 1990.1369,2010.9186   C 1985.5016,2018.0788 1978.8313,2023.6563 1970.1637,2027.6509   C 1961.4583,2031.6456 1951.6601,2033.6052 1940.8067,2033.6052   C 1927.0139,2033.6052 1915.4821,2031.6079 1906.1738,2027.6132   C 1896.8655,2023.5809 1889.5546,2017.5512 1884.2409,2009.4866   C 1878.965,2001.4219 1876.1762,1992.302 1875.8748,1982.0893   z "
     style="fill:#ff00ff;fill-rule:nonzero;fill-opacity:1;stroke:#ff00ff;stroke-width:1.0551916px;stroke-linecap:butt;stroke-linejoin:miter;stroke-miterlimit:282;stroke-dasharray:none;stroke-opacity:1;" />
  <path
     id="path9"
     d="  M 2017.9864,1982.0893   L 2036.9799,1980.4311   C 2037.8843,1988.0436 2039.9947,1994.2993 2043.2734,1999.1984   C 2046.552,2004.0599 2051.6772,2008.0168 2058.5736,2011.0317   C 2065.5078,2014.0465 2073.3086,2015.5539 2081.9763,2015.5539   C 2089.6264,2015.5539 2096.4475,2014.4233 2102.3264,2012.1245   C 2108.2053,2009.8257 2112.5768,2006.6978 2115.4409,2002.7409   C 2118.3427,1998.7462 2119.7748,1994.4124 2119.7748,1989.7017   C 2119.7748,1984.9157 2118.3804,1980.7326 2115.5917,1977.1902   C 2112.8406,1973.61 2108.2807,1970.5952 2101.9119,1968.1833   C 2097.8042,1966.6006 2088.7597,1964.1133 2074.7784,1960.7593   C 2060.7971,1957.4053 2050.9989,1954.2397 2045.3837,1951.2626   C 2038.1105,1947.4564 2032.7214,1942.708 2029.1413,1937.0929   C 2025.5612,1931.4401 2023.79,1925.1089 2023.79,1918.1371   C 2023.79,1910.4493 2025.9758,1903.2514 2030.3473,1896.5811   C 2034.6811,1889.9107 2041.0876,1884.8232 2049.4538,1881.3562   C 2057.8199,1877.8891 2067.1282,1876.1556 2077.3787,1876.1556   C 2088.6843,1876.1556 2098.6332,1877.9645 2107.2632,1881.6199   C 2115.8555,1885.2377 2122.4881,1890.5891 2127.1234,1897.6739   C 2131.7587,1904.7211 2134.2836,1912.7104 2134.6228,1921.6419   L 2115.2902,1923.1116   C 2114.2727,1913.5018 2110.7303,1906.2285 2104.7383,1901.2917   C 2098.784,1896.3926 2089.9279,1893.9431 2078.2077,1893.9431   C 2066.0354,1893.9431 2057.1416,1896.1665 2051.5642,1900.6134   C 2045.9867,1905.098 2043.198,1910.487 2043.198,1916.7804   C 2043.198,1922.2448 2045.1953,1926.7294 2049.1523,1930.2718   C 2052.9962,1933.8142 2063.1336,1937.432 2079.5267,1941.1252   C 2095.8822,1944.8184 2107.1125,1948.0593 2113.2175,1950.8481   C 2122.0736,1954.9181 2128.6308,1960.1187 2132.8516,1966.3744   C 2137.0724,1972.6302 2139.1827,1979.8658 2139.1827,1988.0436   C 2139.1827,1996.1459 2136.8839,2003.7584 2132.2109,2010.9186   C 2127.5756,2018.0788 2120.9053,2023.6563 2112.2377,2027.6509   C 2103.5323,2031.6456 2093.7718,2033.6052 2082.8807,2033.6052   C 2069.1256,2033.6052 2057.5561,2031.6079 2048.2478,2027.6132   C 2038.9395,2023.5809 2031.6286,2017.5512 2026.3526,2009.4866   C 2021.039,2001.4219 2018.2502,1992.302 2017.9864,1982.0893   z "
     style="fill:#ff00ff;fill-rule:nonzero;fill-opacity:1;stroke:#ff00ff;stroke-width:1.0551916px;stroke-linecap:butt;stroke-linejoin:miter;stroke-miterlimit:282;stroke-dasharray:none;stroke-opacity:1;" />
</svg>
