<?xml version="1.0" encoding="UTF-8" standalone="no"?>
<svg
   xmlns:dc="http://purl.org/dc/elements/1.1/"
   xmlns:cc="http://creativecommons.org/ns#"
   xmlns:rdf="http://www.w3.org/1999/02/22-rdf-syntax-ns#"
   xmlns:svg="http://www.w3.org/2000/svg"
   xmlns="http://www.w3.org/2000/svg"
   id="svg55"
   height="116.73mm"
   width="116.73mm"
   version="1.0">
  <metadata
     id="metadata59">
    <rdf:RDF>
      <cc:Work
         rdf:about="">
        <dc:format>image/svg+xml</dc:format>
        <dc:type
           rdf:resource="http://purl.org/dc/dcmitype/StillImage" />
      </cc:Work>
    </rdf:RDF>
  </metadata>
  <defs
     id="defs3">
    <pattern
       y="0"
       x="0"
       height="6"
       width="6"
       patternUnits="userSpaceOnUse"
       id="EMFhbasepattern" />
  </defs>
  <path
     id="path5"
     d="  M 172.6265,43.156626   L 172.6265,100.69879   L 268.53012,100.69879   L 268.53012,43.156626   L 172.6265,43.156626   z "
     style="fill:#000000;fill-rule:evenodd;fill-opacity:1;stroke:none;" />
  <path
     id="path7"
     d="  M 220.57831,386.49156   L 220.57831,386.49156   L 386.49156,220.57831   L 220.57831,54.665059   L 54.665059,220.57831   L 220.57831,386.49156   z "
     style="fill:#ff8080;fill-rule:evenodd;fill-opacity:1;stroke:none;" />
  <path
     id="path9"
     d="  M 220.57831,386.49156   L 220.57831,386.49156   L 386.49156,220.57831   L 220.57831,54.665059   L 54.665059,220.57831   L 220.57831,386.49156  "
     style="fill:none;stroke:#000000;stroke-width:9.5903616px;stroke-linecap:butt;stroke-linejoin:miter;stroke-miterlimit:10;stroke-dasharray:none;stroke-opacity:1;" />
  <path
     id="path11"
     d="  M 200.63835,212.14678   L 195.92309,205.35361   L 190.36867,205.43353   z  M 129.9494,254.78393   C 129.9494,253.50522 131.98735,252.54618 133.26606,252.54618   L 208.83012,252.54618   C 210.82811,252.54618 212.0269,253.98474 212.14678,255.86285   C 210.78815,256.18253 209.86907,256.62208 208.11084,256.62208   L 134.38494,256.62208   C 132.8265,256.62208 129.9494,256.62208 129.9494,255.14357   z  M 152.44678,230.32851   L 188.57048,230.44839   L 208.11084,230.88795   C 209.26968,232.96586 212.78614,238.2006 212.54638,241.11767   L 212.10682,247.39136   C 210.86807,247.71104 210.90803,248.1506 209.58935,248.1506   L 132.14719,248.1506   C 130.82851,248.1506 130.86847,247.71104 129.58976,247.39136   C 129.42992,245.59317 128.83052,245.07369 128.83052,242.95582   L 128.83052,241.47731   C 128.83052,238.91988 132.50683,233.16566 133.6257,230.88795   z  M 138.42088,225.65321   C 138.66064,223.05582 146.69257,208.67028 148.77048,208.67028   L 193.00602,208.67028   C 195.40361,208.67028 202.51646,222.5763 203.31566,225.65321   z  M 190.36867,205.43353   L 195.92309,205.35361   L 200.63835,212.14678   z  M 296.58192,272.08654   L 296.58192,146.73253   C 294.22429,147.29197 271.88674,161.11807 267.97068,163.4757   C 264.85381,165.39377 240.19859,179.13996 240.19859,180.65843   C 240.19859,180.65843 243.23554,185.77329 243.51526,186.21285   L 255.26345,179.4996   L 255.30341,225.65321   L 254.50421,226.29257   C 247.51124,221.65723 174.4247,173.66546 173.8253,173.66546   C 173.50562,173.66546 164.55462,187.09197 164.23494,188.41064   L 190.12891,205.23373   L 146.17309,205.35361   C 143.93534,208.71024 141.65763,210.94799 139.53976,214.58433   C 139.06024,215.38353 134.74458,225.21365 134.74458,225.65321   L 134.74458,227.49136   L 131.78755,227.49136   C 131.62771,229.52931 125.51385,238.56024 125.51385,240.39839   L 125.51385,242.23654   C 125.51385,245.79297 126.47289,249.10963 128.83052,250.34839   C 128.351,251.06767 126.63273,252.94578 126.63273,254.0247   L 126.63273,256.26245   C 126.63273,258.8998 130.30903,259.85883 132.90642,259.93875   L 132.90642,265.45321   L 133.30602,270.24839   C 134.58474,270.72791 134.10522,271.36727 136.26305,271.68694   C 137.74156,271.9267 138.54076,272.08654 140.25903,272.08654   L 142.85642,272.08654   L 146.89237,271.68694   L 147.57168,270.92771   L 148.09116,266.21245   L 148.01124,260.29839   L 193.7253,260.29839   L 193.7253,267.69096   C 193.7253,269.64899 194.5245,270.44819 195.20381,271.7269   L 198.52048,272.16646   L 201.47751,272.08654   C 205.47349,272.08654 208.83012,271.80682 208.83012,267.69096   L 208.83012,260.29839   C 210.82811,259.81887 215.10381,259.13955 215.10381,256.98172   L 215.10381,252.90582   C 215.10381,251.66706 213.94498,251.30743 212.90602,251.06767   C 213.2257,249.78895 215.86305,248.51024 215.86305,245.19357   L 215.86305,240.39839   C 215.86305,236.802 210.74819,230.48835 209.94899,227.49136   L 206.99196,227.49136   L 206.99196,226.37249   C 206.99196,223.73514 201.79719,214.98393 201.11787,212.38654   L 246.63212,242.31646   C 245.63313,246.03273 241.6771,251.74698 241.6771,254.78393   L 241.6771,272.08654   L 296.58192,272.08654   L 296.58192,272.08654   z "
     style="fill:#1f1a17;fill-rule:evenodd;fill-opacity:1;stroke:none;" />
  <path
     id="path13"
     d="  M 138.42088,225.65321   L 203.31566,225.65321   C 202.51646,222.5763 195.40361,208.67028 193.00602,208.67028   L 148.77048,208.67028   C 146.69257,208.67028 138.66064,223.05582 138.42088,225.65321   z "
     style="fill:#ffffff;fill-rule:evenodd;fill-opacity:1;stroke:none;" />
  <path
     id="path15"
     d="  M 201.11787,244.43433   L 200.71827,244.43433   C 198.16084,244.43433 196.32269,242.79598 196.32269,240.39839   L 196.32269,239.27951   C 196.32269,236.92188 197.68132,234.84397 199.99899,234.84397   L 201.11787,234.84397   C 203.43554,234.84397 204.79417,237.4014 204.79417,239.63915   C 204.79417,242.23654 203.63534,244.43433 201.11787,244.43433   z  M 193.7253,238.56024   L 193.7253,241.11767   C 193.7253,243.63514 197.48152,247.03172 200.71827,247.03172   C 204.19478,247.03172 206.99196,243.8749 206.99196,240.39839   L 206.99196,238.56024   C 206.99196,235.76305 203.95502,232.28654 201.11787,232.28654   L 200.71827,232.28654   C 197.36164,232.28654 193.7253,235.56325 193.7253,238.56024   z "
     style="fill:#000000;fill-rule:evenodd;fill-opacity:1;stroke:none;" />
  <path
     id="path17"
     d="  M 136.94237,238.91988   L 136.94237,241.11767   C 136.94237,242.59618 139.22008,244.43433 141.01827,244.43433   L 141.37791,244.43433   C 142.89638,244.43433 145.05421,242.63614 145.05421,241.47731   L 145.05421,238.56024   C 145.05421,236.68213 143.21606,234.84397 141.37791,234.84397   L 140.25903,234.84397   C 138.86044,234.84397 136.94237,237.28152 136.94237,238.91988   z "
     style="fill:#ffffff;fill-rule:evenodd;fill-opacity:1;stroke:none;" />
  <path
     id="path19"
     d="  M 201.11787,244.43433   C 203.63534,244.43433 204.79417,242.23654 204.79417,239.63915   C 204.79417,237.4014 203.43554,234.84397 201.11787,234.84397   L 199.99899,234.84397   C 197.68132,234.84397 196.32269,236.92188 196.32269,239.27951   L 196.32269,240.39839   C 196.32269,242.79598 198.16084,244.43433 200.71827,244.43433   z "
     style="fill:#ffffff;fill-rule:evenodd;fill-opacity:1;stroke:none;" />
  <path
     id="path21"
     d="  M 136.94237,238.91988   C 136.94237,237.28152 138.86044,234.84397 140.25903,234.84397   L 141.37791,234.84397   C 143.21606,234.84397 145.05421,236.68213 145.05421,238.56024   L 145.05421,241.47731   C 145.05421,242.63614 142.89638,244.43433 141.37791,244.43433   L 141.01827,244.43433   C 139.22008,244.43433 136.94237,242.59618 136.94237,241.11767   z  M 134.38494,240.03875   L 134.38494,240.75803   C 134.38494,243.71506 138.02128,247.03172 141.37791,247.03172   C 144.5747,247.03172 148.01124,243.39538 148.01124,241.11767   L 148.01124,238.56024   C 148.01124,235.80301 144.53474,232.28654 141.37791,232.28654   C 137.38193,232.28654 134.38494,236.16265 134.38494,240.03875   z "
     style="fill:#000000;fill-rule:evenodd;fill-opacity:1;stroke:none;" />
  <path
     id="path23"
     d="  M 193.7253,238.56024   C 193.7253,235.56325 197.36164,232.28654 200.71827,232.28654   L 201.11787,232.28654   C 203.95502,232.28654 206.99196,235.76305 206.99196,238.56024   L 206.99196,240.39839   C 206.99196,243.8749 204.19478,247.03172 200.71827,247.03172   C 197.48152,247.03172 193.7253,243.63514 193.7253,241.11767   z  M 134.38494,240.03875   C 134.38494,236.16265 137.38193,232.28654 141.37791,232.28654   C 144.53474,232.28654 148.01124,235.80301 148.01124,238.56024   L 148.01124,241.11767   C 148.01124,243.39538 144.5747,247.03172 141.37791,247.03172   C 138.02128,247.03172 134.38494,243.71506 134.38494,240.75803   z  M 133.6257,230.88795   C 132.50683,233.16566 128.83052,238.91988 128.83052,241.47731   L 128.83052,242.95582   C 128.83052,245.07369 129.42992,245.59317 129.58976,247.39136   C 130.86847,247.71104 130.82851,248.1506 132.14719,248.1506   L 209.58935,248.1506   C 210.90803,248.1506 210.86807,247.71104 212.10682,247.39136   L 212.54638,241.11767   C 212.78614,238.2006 209.26968,232.96586 208.11084,230.88795   L 188.57048,230.44839   L 152.44678,230.32851   z "
     style="fill:#ffffff;fill-rule:evenodd;fill-opacity:1;stroke:none;" />
  <path
     id="path25"
     d="  M 129.9494,254.78393   L 129.9494,255.14357   C 129.9494,256.62208 132.8265,256.62208 134.38494,256.62208   L 208.11084,256.62208   C 209.86907,256.62208 210.78815,256.18253 212.14678,255.86285   C 212.0269,253.98474 210.82811,252.54618 208.83012,252.54618   L 133.26606,252.54618   C 131.98735,252.54618 129.9494,253.50522 129.9494,254.78393   z "
     style="fill:#ffffff;fill-rule:evenodd;fill-opacity:1;stroke:none;" />
  <path
     id="path27"
     d="  M 263.89478,191.36767   L 263.89478,230.00883   L 289.86867,230.00883   L 289.86867,191.36767   L 263.89478,191.36767   z "
     style="fill:#ffffff;fill-rule:evenodd;fill-opacity:1;stroke:none;" />
  <path
     id="path29"
     d="  M 263.89478,191.36767   L 289.86867,191.36767   L 289.86867,230.00883   L 263.89478,230.00883   z "
     style="fill:none;stroke:#1f1a17;stroke-width:0.27971888px;stroke-linecap:butt;stroke-linejoin:miter;stroke-miterlimit:10;stroke-dasharray:none;stroke-opacity:1;" />
  <path
     id="path31"
     d="  M 178.58052,185.01405   C 178.58052,187.13193 176.66245,188.81024 174.26486,188.81024   C 171.86727,188.81024 169.94919,187.13193 169.94919,185.01405   C 169.94919,182.93614 171.86727,181.21787 174.26486,181.21787   C 176.66245,181.21787 178.58052,182.93614 178.58052,185.01405   z "
     style="fill:#ffffff;fill-rule:evenodd;fill-opacity:1;stroke:none;" />
  <path
     id="path33"
     d="  M 178.58052,185.01405   C 178.58052,187.13193 176.66245,188.81024 174.26486,188.81024   C 171.86727,188.81024 169.94919,187.13193 169.94919,185.01405   C 169.94919,182.93614 171.86727,181.21787 174.26486,181.21787   C 176.66245,181.21787 178.58052,182.93614 178.58052,185.01405  "
     style="fill:none;stroke:#1f1a17;stroke-width:0.27971888px;stroke-linecap:butt;stroke-linejoin:miter;stroke-miterlimit:10;stroke-dasharray:none;stroke-opacity:1;" />
  <path
     id="path35"
     d="  M 192.5265,193.88514   C 192.5265,196.00301 190.56847,197.68132 188.21084,197.68132   C 185.81325,197.68132 183.89518,196.00301 183.89518,193.88514   C 183.89518,191.80723 185.81325,190.08895 188.21084,190.08895   C 190.56847,190.08895 192.5265,191.80723 192.5265,193.88514   z "
     style="fill:#ffffff;fill-rule:evenodd;fill-opacity:1;stroke:none;" />
  <path
     id="path37"
     d="  M 192.5265,193.88514   C 192.5265,196.00301 190.56847,197.68132 188.21084,197.68132   C 185.81325,197.68132 183.89518,196.00301 183.89518,193.88514   C 183.89518,191.80723 185.81325,190.08895 188.21084,190.08895   C 190.56847,190.08895 192.5265,191.80723 192.5265,193.88514  "
     style="fill:none;stroke:#1f1a17;stroke-width:0.27971888px;stroke-linecap:butt;stroke-linejoin:miter;stroke-miterlimit:10;stroke-dasharray:none;stroke-opacity:1;" />
  <path
     id="path39"
     d="  M 232.44638,220.17871   C 232.44638,222.29658 230.48835,223.9749 228.13072,223.9749   C 225.73313,223.9749 223.7751,222.29658 223.7751,220.17871   C 223.7751,218.1008 225.73313,216.38253 228.13072,216.38253   C 230.48835,216.38253 232.44638,218.1008 232.44638,220.17871   z "
     style="fill:#ffffff;fill-rule:evenodd;fill-opacity:1;stroke:none;" />
  <path
     id="path41"
     d="  M 232.44638,220.17871   C 232.44638,222.29658 230.48835,223.9749 228.13072,223.9749   C 225.73313,223.9749 223.7751,222.29658 223.7751,220.17871   C 223.7751,218.1008 225.73313,216.38253 228.13072,216.38253   C 230.48835,216.38253 232.44638,218.1008 232.44638,220.17871  "
     style="fill:none;stroke:#1f1a17;stroke-width:0.27971888px;stroke-linecap:butt;stroke-linejoin:miter;stroke-miterlimit:10;stroke-dasharray:none;stroke-opacity:1;" />
  <path
     id="path43"
     d="  M 205.51345,202.43654   C 205.51345,204.55441 203.55542,206.23273 201.19779,206.23273   C 198.8002,206.23273 196.88213,204.55441 196.88213,202.43654   C 196.88213,200.35863 198.8002,198.64036 201.19779,198.64036   C 203.55542,198.64036 205.51345,200.35863 205.51345,202.43654   z "
     style="fill:#ffffff;fill-rule:evenodd;fill-opacity:1;stroke:none;" />
  <path
     id="path45"
     d="  M 205.51345,202.43654   C 205.51345,204.55441 203.55542,206.23273 201.19779,206.23273   C 198.8002,206.23273 196.88213,204.55441 196.88213,202.43654   C 196.88213,200.35863 198.8002,198.64036 201.19779,198.64036   C 203.55542,198.64036 205.51345,200.35863 205.51345,202.43654  "
     style="fill:none;stroke:#1f1a17;stroke-width:0.27971888px;stroke-linecap:butt;stroke-linejoin:miter;stroke-miterlimit:10;stroke-dasharray:none;stroke-opacity:1;" />
  <path
     id="path47"
     d="  M 218.82008,211.30763   C 218.82008,213.4255 216.86205,215.10381 214.50441,215.10381   C 212.10682,215.10381 210.18875,213.4255 210.18875,211.30763   C 210.18875,209.22972 212.10682,207.51144 214.50441,207.51144   C 216.86205,207.51144 218.82008,209.22972 218.82008,211.30763   z "
     style="fill:#ffffff;fill-rule:evenodd;fill-opacity:1;stroke:none;" />
  <path
     id="path49"
     d="  M 218.82008,211.30763   C 218.82008,213.4255 216.86205,215.10381 214.50441,215.10381   C 212.10682,215.10381 210.18875,213.4255 210.18875,211.30763   C 210.18875,209.22972 212.10682,207.51144 214.50441,207.51144   C 216.86205,207.51144 218.82008,209.22972 218.82008,211.30763  "
     style="fill:none;stroke:#1f1a17;stroke-width:0.27971888px;stroke-linecap:butt;stroke-linejoin:miter;stroke-miterlimit:10;stroke-dasharray:none;stroke-opacity:1;" />
  <path
     id="path51"
     d="  M 245.75301,228.41044   C 245.75301,230.52831 243.79498,232.20662 241.43735,232.20662   C 239.03976,232.20662 237.08172,230.52831 237.08172,228.41044   C 237.08172,226.33253 239.03976,224.61425 241.43735,224.61425   C 243.79498,224.61425 245.75301,226.33253 245.75301,228.41044   z "
     style="fill:#ffffff;fill-rule:evenodd;fill-opacity:1;stroke:none;" />
  <path
     id="path53"
     d="  M 245.75301,228.41044   C 245.75301,230.52831 243.79498,232.20662 241.43735,232.20662   C 239.03976,232.20662 237.08172,230.52831 237.08172,228.41044   C 237.08172,226.33253 239.03976,224.61425 241.43735,224.61425   C 243.79498,224.61425 245.75301,226.33253 245.75301,228.41044  "
     style="fill:none;stroke:#1f1a17;stroke-width:0.27971888px;stroke-linecap:butt;stroke-linejoin:miter;stroke-miterlimit:10;stroke-dasharray:none;stroke-opacity:1;" />
</svg>
