<?xml version="1.0" encoding="UTF-8" standalone="no"?>
<svg
   xmlns:dc="http://purl.org/dc/elements/1.1/"
   xmlns:cc="http://creativecommons.org/ns#"
   xmlns:rdf="http://www.w3.org/1999/02/22-rdf-syntax-ns#"
   xmlns:svg="http://www.w3.org/2000/svg"
   xmlns="http://www.w3.org/2000/svg"
   id="svg55"
   height="95.75mm"
   width="95.75mm"
   version="1.0">
  <metadata
     id="metadata59">
    <rdf:RDF>
      <cc:Work
         rdf:about="">
        <dc:format>image/svg+xml</dc:format>
        <dc:type
           rdf:resource="http://purl.org/dc/dcmitype/StillImage" />
      </cc:Work>
    </rdf:RDF>
  </metadata>
  <defs
     id="defs3">
    <pattern
       y="0"
       x="0"
       height="6"
       width="6"
       patternUnits="userSpaceOnUse"
       id="EMFhbasepattern" />
  </defs>
  <path
     id="path5"
     d="  M 132.98634,15.983936   L 132.98634,54.345381   L 228.88996,54.345381   L 228.88996,15.983936   L 132.98634,15.983936   z "
     style="fill:#000000;fill-rule:evenodd;fill-opacity:1;stroke:none;" />
  <path
     id="path7"
     d="  M 54.345381,54.345381   L 54.345381,307.53092   L 307.53092,307.53092   L 307.53092,54.345381   L 54.345381,54.345381   z "
     style="fill:#aaffaa;fill-rule:evenodd;fill-opacity:1;stroke:none;" />
  <path
     id="path9"
     d="  M 54.345381,54.345381   L 307.53092,54.345381   L 307.53092,307.53092   L 54.345381,307.53092   z "
     style="fill:none;stroke:#000000;stroke-width:9.5903616px;stroke-linecap:butt;stroke-linejoin:miter;stroke-miterlimit:10;stroke-dasharray:none;stroke-opacity:1;" />
  <path
     id="path11"
     d="  M 160.99819,172.50662   L 156.28293,165.71345   L 150.72851,165.79337   z  M 90.309236,215.14377   C 90.309236,213.86506 92.347187,212.90602 93.625902,212.90602   L 169.18996,212.90602   C 171.18795,212.90602 172.38674,214.34458 172.50662,216.22269   C 171.14799,216.54237 170.22891,216.98192 168.47068,216.98192   L 94.744778,216.98192   C 93.186344,216.98192 90.309236,216.98192 90.309236,215.50341   z  M 112.80662,190.68835   L 148.93032,190.80823   L 168.47068,191.24779   C 169.62952,193.3257 173.14598,198.56044 172.90622,201.47751   L 172.46666,207.7512   C 171.22791,208.07088 171.26787,208.51044 169.94919,208.51044   L 92.507027,208.51044   C 91.188352,208.51044 91.228312,208.07088 89.949597,207.7512   C 89.789758,205.95301 89.19036,205.43353 89.19036,203.31566   L 89.19036,201.83715   C 89.19036,199.27972 92.866665,193.5255 93.985541,191.24779   z  M 98.780721,186.01305   C 99.02048,183.41566 107.05241,169.03012 109.13032,169.03012   L 153.36586,169.03012   C 155.76345,169.03012 162.8763,182.93614 163.6755,186.01305   z  M 150.72851,165.79337   L 156.28293,165.71345   L 160.99819,172.50662   z  M 256.94176,232.44638   L 256.94176,107.09237   C 254.58413,107.65181 232.24658,121.47791 228.33052,123.83554   C 225.21365,125.75361 200.55843,139.4998 200.55843,141.01827   C 200.55843,141.01827 203.59538,146.13313 203.8751,146.57269   L 215.62329,139.85944   L 215.66325,186.01305   L 214.86405,186.65241   C 207.87108,182.01707 134.78454,134.0253 134.18514,134.0253   C 133.86546,134.0253 124.91446,147.45181 124.59478,148.77048   L 150.48875,165.59357   L 106.53293,165.71345   C 104.29518,169.07008 102.01747,171.30783 99.899597,174.94417   C 99.420079,175.74337 95.104416,185.57349 95.104416,186.01305   L 95.104416,187.8512   L 92.147388,187.8512   C 91.987549,189.88915 85.873694,198.92008 85.873694,200.75823   L 85.873694,202.59638   C 85.873694,206.15281 86.83273,209.46947 89.19036,210.70823   C 88.710842,211.42751 86.992569,213.30562 86.992569,214.38454   L 86.992569,216.62229   C 86.992569,219.25964 90.668874,220.21867 93.266264,220.29859   L 93.266264,225.81305   L 93.665862,230.60823   C 94.944577,231.08775 94.465059,231.72711 96.62289,232.04678   C 98.101404,232.28654 98.900601,232.44638 100.61887,232.44638   L 103.21626,232.44638   L 107.25221,232.04678   L 107.93152,231.28755   L 108.451,226.57229   L 108.37108,220.65823   L 154.08514,220.65823   L 154.08514,228.0508   C 154.08514,230.00883 154.88434,230.80803 155.56365,232.08674   L 158.88032,232.5263   L 161.83735,232.44638   C 165.83333,232.44638 169.18996,232.16666 169.18996,228.0508   L 169.18996,220.65823   C 171.18795,220.17871 175.46365,219.49939 175.46365,217.34156   L 175.46365,213.26566   C 175.46365,212.0269 174.30482,211.66727 173.26586,211.42751   C 173.58554,210.14879 176.22289,208.87008 176.22289,205.55341   L 176.22289,200.75823   C 176.22289,197.16184 171.10803,190.84819 170.30883,187.8512   L 167.3518,187.8512   L 167.3518,186.73233   C 167.3518,184.09498 162.15703,175.34377 161.47771,172.74638   L 206.99196,202.6763   C 205.99297,206.39257 202.03694,212.10682 202.03694,215.14377   L 202.03694,232.44638   L 256.94176,232.44638   L 256.94176,232.44638   z "
     style="fill:#1f1a17;fill-rule:evenodd;fill-opacity:1;stroke:none;" />
  <path
     id="path13"
     d="  M 98.780721,186.01305   L 163.6755,186.01305   C 162.8763,182.93614 155.76345,169.03012 153.36586,169.03012   L 109.13032,169.03012   C 107.05241,169.03012 99.02048,183.41566 98.780721,186.01305   z "
     style="fill:#ffffff;fill-rule:evenodd;fill-opacity:1;stroke:none;" />
  <path
     id="path15"
     d="  M 161.47771,204.79417   L 161.07811,204.79417   C 158.52068,204.79417 156.68253,203.15582 156.68253,200.75823   L 156.68253,199.63935   C 156.68253,197.28172 158.04116,195.20381 160.35883,195.20381   L 161.47771,195.20381   C 163.79538,195.20381 165.15401,197.76124 165.15401,199.99899   C 165.15401,202.59638 163.99518,204.79417 161.47771,204.79417   z  M 154.08514,198.92008   L 154.08514,201.47751   C 154.08514,203.99498 157.84136,207.39156 161.07811,207.39156   C 164.55462,207.39156 167.3518,204.23474 167.3518,200.75823   L 167.3518,198.92008   C 167.3518,196.12289 164.31486,192.64638 161.47771,192.64638   L 161.07811,192.64638   C 157.72148,192.64638 154.08514,195.92309 154.08514,198.92008   z "
     style="fill:#000000;fill-rule:evenodd;fill-opacity:1;stroke:none;" />
  <path
     id="path17"
     d="  M 97.302207,199.27972   L 97.302207,201.47751   C 97.302207,202.95602 99.579918,204.79417 101.37811,204.79417   L 101.73775,204.79417   C 103.25622,204.79417 105.41405,202.99598 105.41405,201.83715   L 105.41405,198.92008   C 105.41405,197.04197 103.5759,195.20381 101.73775,195.20381   L 100.61887,195.20381   C 99.22028,195.20381 97.302207,197.64136 97.302207,199.27972   z "
     style="fill:#ffffff;fill-rule:evenodd;fill-opacity:1;stroke:none;" />
  <path
     id="path19"
     d="  M 161.47771,204.79417   C 163.99518,204.79417 165.15401,202.59638 165.15401,199.99899   C 165.15401,197.76124 163.79538,195.20381 161.47771,195.20381   L 160.35883,195.20381   C 158.04116,195.20381 156.68253,197.28172 156.68253,199.63935   L 156.68253,200.75823   C 156.68253,203.15582 158.52068,204.79417 161.07811,204.79417   z "
     style="fill:#ffffff;fill-rule:evenodd;fill-opacity:1;stroke:none;" />
  <path
     id="path21"
     d="  M 97.302207,199.27972   C 97.302207,197.64136 99.22028,195.20381 100.61887,195.20381   L 101.73775,195.20381   C 103.5759,195.20381 105.41405,197.04197 105.41405,198.92008   L 105.41405,201.83715   C 105.41405,202.99598 103.25622,204.79417 101.73775,204.79417   L 101.37811,204.79417   C 99.579918,204.79417 97.302207,202.95602 97.302207,201.47751   z  M 94.744778,200.39859   L 94.744778,201.11787   C 94.744778,204.0749 98.381123,207.39156 101.73775,207.39156   C 104.93454,207.39156 108.37108,203.75522 108.37108,201.47751   L 108.37108,198.92008   C 108.37108,196.16285 104.89458,192.64638 101.73775,192.64638   C 97.741766,192.64638 94.744778,196.52249 94.744778,200.39859   z "
     style="fill:#000000;fill-rule:evenodd;fill-opacity:1;stroke:none;" />
  <path
     id="path23"
     d="  M 154.08514,198.92008   C 154.08514,195.92309 157.72148,192.64638 161.07811,192.64638   L 161.47771,192.64638   C 164.31486,192.64638 167.3518,196.12289 167.3518,198.92008   L 167.3518,200.75823   C 167.3518,204.23474 164.55462,207.39156 161.07811,207.39156   C 157.84136,207.39156 154.08514,203.99498 154.08514,201.47751   z  M 94.744778,200.39859   C 94.744778,196.52249 97.741766,192.64638 101.73775,192.64638   C 104.89458,192.64638 108.37108,196.16285 108.37108,198.92008   L 108.37108,201.47751   C 108.37108,203.75522 104.93454,207.39156 101.73775,207.39156   C 98.381123,207.39156 94.744778,204.0749 94.744778,201.11787   z  M 93.985541,191.24779   C 92.866665,193.5255 89.19036,199.27972 89.19036,201.83715   L 89.19036,203.31566   C 89.19036,205.43353 89.789758,205.95301 89.949597,207.7512   C 91.228312,208.07088 91.188352,208.51044 92.507027,208.51044   L 169.94919,208.51044   C 171.26787,208.51044 171.22791,208.07088 172.46666,207.7512   L 172.90622,201.47751   C 173.14598,198.56044 169.62952,193.3257 168.47068,191.24779   L 148.93032,190.80823   L 112.80662,190.68835   z "
     style="fill:#ffffff;fill-rule:evenodd;fill-opacity:1;stroke:none;" />
  <path
     id="path25"
     d="  M 90.309236,215.14377   L 90.309236,215.50341   C 90.309236,216.98192 93.186344,216.98192 94.744778,216.98192   L 168.47068,216.98192   C 170.22891,216.98192 171.14799,216.54237 172.50662,216.22269   C 172.38674,214.34458 171.18795,212.90602 169.18996,212.90602   L 93.625902,212.90602   C 92.347187,212.90602 90.309236,213.86506 90.309236,215.14377   z "
     style="fill:#ffffff;fill-rule:evenodd;fill-opacity:1;stroke:none;" />
  <path
     id="path27"
     d="  M 224.25462,151.72751   L 224.25462,190.36867   L 250.22851,190.36867   L 250.22851,151.72751   L 224.25462,151.72751   z "
     style="fill:#ffffff;fill-rule:evenodd;fill-opacity:1;stroke:none;" />
  <path
     id="path29"
     d="  M 224.25462,151.72751   L 250.22851,151.72751   L 250.22851,190.36867   L 224.25462,190.36867   z "
     style="fill:none;stroke:#1f1a17;stroke-width:0.27971888px;stroke-linecap:butt;stroke-linejoin:miter;stroke-miterlimit:10;stroke-dasharray:none;stroke-opacity:1;" />
  <path
     id="path31"
     d="  M 138.94036,145.37389   C 138.94036,147.49176 137.02229,149.17008 134.6247,149.17008   C 132.22711,149.17008 130.30903,147.49176 130.30903,145.37389   C 130.30903,143.29598 132.22711,141.57771 134.6247,141.57771   C 137.02229,141.57771 138.94036,143.29598 138.94036,145.37389   z "
     style="fill:#ffffff;fill-rule:evenodd;fill-opacity:1;stroke:none;" />
  <path
     id="path33"
     d="  M 138.94036,145.37389   C 138.94036,147.49176 137.02229,149.17008 134.6247,149.17008   C 132.22711,149.17008 130.30903,147.49176 130.30903,145.37389   C 130.30903,143.29598 132.22711,141.57771 134.6247,141.57771   C 137.02229,141.57771 138.94036,143.29598 138.94036,145.37389  "
     style="fill:none;stroke:#1f1a17;stroke-width:0.27971888px;stroke-linecap:butt;stroke-linejoin:miter;stroke-miterlimit:10;stroke-dasharray:none;stroke-opacity:1;" />
  <path
     id="path35"
     d="  M 152.88634,154.24498   C 152.88634,156.36285 150.92831,158.04116 148.57068,158.04116   C 146.17309,158.04116 144.25502,156.36285 144.25502,154.24498   C 144.25502,152.16707 146.17309,150.44879 148.57068,150.44879   C 150.92831,150.44879 152.88634,152.16707 152.88634,154.24498   z "
     style="fill:#ffffff;fill-rule:evenodd;fill-opacity:1;stroke:none;" />
  <path
     id="path37"
     d="  M 152.88634,154.24498   C 152.88634,156.36285 150.92831,158.04116 148.57068,158.04116   C 146.17309,158.04116 144.25502,156.36285 144.25502,154.24498   C 144.25502,152.16707 146.17309,150.44879 148.57068,150.44879   C 150.92831,150.44879 152.88634,152.16707 152.88634,154.24498  "
     style="fill:none;stroke:#1f1a17;stroke-width:0.27971888px;stroke-linecap:butt;stroke-linejoin:miter;stroke-miterlimit:10;stroke-dasharray:none;stroke-opacity:1;" />
  <path
     id="path39"
     d="  M 192.80622,180.53855   C 192.80622,182.65642 190.84819,184.33474 188.49056,184.33474   C 186.09297,184.33474 184.13494,182.65642 184.13494,180.53855   C 184.13494,178.46064 186.09297,176.74237 188.49056,176.74237   C 190.84819,176.74237 192.80622,178.46064 192.80622,180.53855   z "
     style="fill:#ffffff;fill-rule:evenodd;fill-opacity:1;stroke:none;" />
  <path
     id="path41"
     d="  M 192.80622,180.53855   C 192.80622,182.65642 190.84819,184.33474 188.49056,184.33474   C 186.09297,184.33474 184.13494,182.65642 184.13494,180.53855   C 184.13494,178.46064 186.09297,176.74237 188.49056,176.74237   C 190.84819,176.74237 192.80622,178.46064 192.80622,180.53855  "
     style="fill:none;stroke:#1f1a17;stroke-width:0.27971888px;stroke-linecap:butt;stroke-linejoin:miter;stroke-miterlimit:10;stroke-dasharray:none;stroke-opacity:1;" />
  <path
     id="path43"
     d="  M 165.87329,162.79638   C 165.87329,164.91425 163.91526,166.59257 161.55763,166.59257   C 159.16004,166.59257 157.24197,164.91425 157.24197,162.79638   C 157.24197,160.71847 159.16004,159.0002 161.55763,159.0002   C 163.91526,159.0002 165.87329,160.71847 165.87329,162.79638   z "
     style="fill:#ffffff;fill-rule:evenodd;fill-opacity:1;stroke:none;" />
  <path
     id="path45"
     d="  M 165.87329,162.79638   C 165.87329,164.91425 163.91526,166.59257 161.55763,166.59257   C 159.16004,166.59257 157.24197,164.91425 157.24197,162.79638   C 157.24197,160.71847 159.16004,159.0002 161.55763,159.0002   C 163.91526,159.0002 165.87329,160.71847 165.87329,162.79638  "
     style="fill:none;stroke:#1f1a17;stroke-width:0.27971888px;stroke-linecap:butt;stroke-linejoin:miter;stroke-miterlimit:10;stroke-dasharray:none;stroke-opacity:1;" />
  <path
     id="path47"
     d="  M 179.17992,171.66747   C 179.17992,173.78534 177.22188,175.46365 174.86425,175.46365   C 172.46666,175.46365 170.54859,173.78534 170.54859,171.66747   C 170.54859,169.58956 172.46666,167.87128 174.86425,167.87128   C 177.22188,167.87128 179.17992,169.58956 179.17992,171.66747   z "
     style="fill:#ffffff;fill-rule:evenodd;fill-opacity:1;stroke:none;" />
  <path
     id="path49"
     d="  M 179.17992,171.66747   C 179.17992,173.78534 177.22188,175.46365 174.86425,175.46365   C 172.46666,175.46365 170.54859,173.78534 170.54859,171.66747   C 170.54859,169.58956 172.46666,167.87128 174.86425,167.87128   C 177.22188,167.87128 179.17992,169.58956 179.17992,171.66747  "
     style="fill:none;stroke:#1f1a17;stroke-width:0.27971888px;stroke-linecap:butt;stroke-linejoin:miter;stroke-miterlimit:10;stroke-dasharray:none;stroke-opacity:1;" />
  <path
     id="path51"
     d="  M 206.11285,188.77028   C 206.11285,190.88815 204.15482,192.56646 201.79719,192.56646   C 199.3996,192.56646 197.44156,190.88815 197.44156,188.77028   C 197.44156,186.69237 199.3996,184.97409 201.79719,184.97409   C 204.15482,184.97409 206.11285,186.69237 206.11285,188.77028   z "
     style="fill:#ffffff;fill-rule:evenodd;fill-opacity:1;stroke:none;" />
  <path
     id="path53"
     d="  M 206.11285,188.77028   C 206.11285,190.88815 204.15482,192.56646 201.79719,192.56646   C 199.3996,192.56646 197.44156,190.88815 197.44156,188.77028   C 197.44156,186.69237 199.3996,184.97409 201.79719,184.97409   C 204.15482,184.97409 206.11285,186.69237 206.11285,188.77028  "
     style="fill:none;stroke:#1f1a17;stroke-width:0.27971888px;stroke-linecap:butt;stroke-linejoin:miter;stroke-miterlimit:10;stroke-dasharray:none;stroke-opacity:1;" />
</svg>
