<?xml version="1.0" encoding="UTF-8" standalone="no"?>
<svg
   xmlns:dc="http://purl.org/dc/elements/1.1/"
   xmlns:cc="http://creativecommons.org/ns#"
   xmlns:rdf="http://www.w3.org/1999/02/22-rdf-syntax-ns#"
   xmlns:svg="http://www.w3.org/2000/svg"
   xmlns="http://www.w3.org/2000/svg"
   id="svg55"
   height="89.669998mm"
   width="120.11mm"
   version="1.0">
  <metadata
     id="metadata59">
    <rdf:RDF>
      <cc:Work
         rdf:about="">
        <dc:format>image/svg+xml</dc:format>
        <dc:type
           rdf:resource="http://purl.org/dc/dcmitype/StillImage" />
      </cc:Work>
    </rdf:RDF>
  </metadata>
  <defs
     id="defs3">
    <pattern
       y="0"
       x="0"
       height="6"
       width="6"
       patternUnits="userSpaceOnUse"
       id="EMFhbasepattern" />
  </defs>
  <path
     id="path5"
     d="  M 179.02008,15.983936   L 179.02008,54.345381   L 274.92369,54.345381   L 274.92369,15.983936   L 179.02008,15.983936   z "
     style="fill:#000000;fill-rule:evenodd;fill-opacity:1;stroke:none;" />
  <path
     id="path7"
     d="  M 54.345381,54.345381   L 54.345381,284.51405   L 399.59839,284.51405   L 399.59839,54.345381   L 54.345381,54.345381   z "
     style="fill:#80e0ff;fill-rule:evenodd;fill-opacity:1;stroke:none;" />
  <path
     id="path9"
     d="  M 54.345381,54.345381   L 399.59839,54.345381   L 399.59839,284.51405   L 54.345381,284.51405   z "
     style="fill:none;stroke:#000000;stroke-width:9.5903616px;stroke-linecap:butt;stroke-linejoin:miter;stroke-miterlimit:10;stroke-dasharray:none;stroke-opacity:1;" />
  <path
     id="path11"
     d="  M 207.03192,160.99819   L 202.31666,154.20502   L 196.76225,154.28494   z  M 136.34297,203.63534   C 136.34297,202.35662 138.38092,201.39759 139.65964,201.39759   L 215.22369,201.39759   C 217.22168,201.39759 218.42048,202.83614 218.54036,204.71425   C 217.18172,205.03393 216.26265,205.47349 214.50441,205.47349   L 140.77851,205.47349   C 139.22008,205.47349 136.34297,205.47349 136.34297,203.99498   z  M 158.84036,179.17992   L 194.96405,179.2998   L 214.50441,179.73935   C 215.66325,181.81727 219.17972,187.05201 218.93996,189.96907   L 218.5004,196.24277   C 217.26164,196.56245 217.3016,197.00201 215.98293,197.00201   L 138.54076,197.00201   C 137.22209,197.00201 137.26205,196.56245 135.98333,196.24277   C 135.82349,194.44458 135.22409,193.9251 135.22409,191.80723   L 135.22409,190.32871   C 135.22409,187.77128 138.9004,182.01707 140.01928,179.73935   z  M 144.81446,174.50462   C 145.05421,171.90723 153.08614,157.52168 155.16405,157.52168   L 199.3996,157.52168   C 201.79719,157.52168 208.91004,171.42771 209.70923,174.50462   z  M 196.76225,154.28494   L 202.31666,154.20502   L 207.03192,160.99819   z  M 302.9755,220.93795   L 302.9755,95.583934   C 300.61787,96.143372 278.28032,109.96948 274.36425,112.32711   C 271.24739,114.24518 246.59217,127.99136 246.59217,129.50984   C 246.59217,129.50984 249.62911,134.6247 249.90883,135.06426   L 261.65702,128.351   L 261.69698,174.50462   L 260.89779,175.14397   C 253.90482,170.50863 180.81827,122.51687 180.21887,122.51687   C 179.89919,122.51687 170.94819,135.94337 170.62851,137.26205   L 196.52249,154.08514   L 152.56666,154.20502   C 150.32891,157.56164 148.0512,159.7994 145.93333,163.43574   C 145.45381,164.23494 141.13815,174.06506 141.13815,174.50462   L 141.13815,176.34277   L 138.18112,176.34277   C 138.02128,178.38072 131.90743,187.41164 131.90743,189.2498   L 131.90743,191.08795   C 131.90743,194.64437 132.86646,197.96104 135.22409,199.1998   C 134.74458,199.91907 133.0263,201.79719 133.0263,202.8761   L 133.0263,205.11385   C 133.0263,207.7512 136.70261,208.71024 139.3,208.79016   L 139.3,214.30462   L 139.6996,219.0998   C 140.97831,219.57931 140.49879,220.21867 142.65662,220.53835   C 144.13514,220.77811 144.93434,220.93795 146.65261,220.93795   L 149.25,220.93795   L 153.28594,220.53835   L 153.96526,219.77911   L 154.48474,215.06385   L 154.40482,209.1498   L 200.11887,209.1498   L 200.11887,216.54237   C 200.11887,218.5004 200.91807,219.2996 201.59739,220.57831   L 204.91405,221.01787   L 207.87108,220.93795   C 211.86707,220.93795 215.22369,220.65823 215.22369,216.54237   L 215.22369,209.1498   C 217.22168,208.67028 221.49739,207.99096 221.49739,205.83313   L 221.49739,201.75723   C 221.49739,200.51847 220.33855,200.15883 219.2996,199.91907   C 219.61927,198.64036 222.25662,197.36164 222.25662,194.04498   L 222.25662,189.2498   C 222.25662,185.65341 217.14176,179.33976 216.34257,176.34277   L 213.38554,176.34277   L 213.38554,175.22389   C 213.38554,172.58654 208.19076,163.83534 207.51144,161.23795   L 253.0257,191.16787   C 252.0267,194.88413 248.07068,200.59839 248.07068,203.63534   L 248.07068,220.93795   L 302.9755,220.93795   L 302.9755,220.93795   z "
     style="fill:#1f1a17;fill-rule:evenodd;fill-opacity:1;stroke:none;" />
  <path
     id="path13"
     d="  M 144.81446,174.50462   L 209.70923,174.50462   C 208.91004,171.42771 201.79719,157.52168 199.3996,157.52168   L 155.16405,157.52168   C 153.08614,157.52168 145.05421,171.90723 144.81446,174.50462   z "
     style="fill:#ffffff;fill-rule:evenodd;fill-opacity:1;stroke:none;" />
  <path
     id="path15"
     d="  M 207.51144,193.28574   L 207.11184,193.28574   C 204.55441,193.28574 202.71626,191.64739 202.71626,189.2498   L 202.71626,188.13092   C 202.71626,185.77329 204.0749,183.69538 206.39257,183.69538   L 207.51144,183.69538   C 209.82911,183.69538 211.18775,186.25281 211.18775,188.49056   C 211.18775,191.08795 210.02891,193.28574 207.51144,193.28574   z  M 200.11887,187.41164   L 200.11887,189.96907   C 200.11887,192.48654 203.8751,195.88313 207.11184,195.88313   C 210.58835,195.88313 213.38554,192.7263 213.38554,189.2498   L 213.38554,187.41164   C 213.38554,184.61446 210.34859,181.13795 207.51144,181.13795   L 207.11184,181.13795   C 203.75522,181.13795 200.11887,184.41466 200.11887,187.41164   z "
     style="fill:#000000;fill-rule:evenodd;fill-opacity:1;stroke:none;" />
  <path
     id="path17"
     d="  M 143.33594,187.77128   L 143.33594,189.96907   C 143.33594,191.44759 145.61365,193.28574 147.41185,193.28574   L 147.77148,193.28574   C 149.28996,193.28574 151.44779,191.48755 151.44779,190.32871   L 151.44779,187.41164   C 151.44779,185.53353 149.60964,183.69538 147.77148,183.69538   L 146.65261,183.69538   C 145.25401,183.69538 143.33594,186.13293 143.33594,187.77128   z "
     style="fill:#ffffff;fill-rule:evenodd;fill-opacity:1;stroke:none;" />
  <path
     id="path19"
     d="  M 207.51144,193.28574   C 210.02891,193.28574 211.18775,191.08795 211.18775,188.49056   C 211.18775,186.25281 209.82911,183.69538 207.51144,183.69538   L 206.39257,183.69538   C 204.0749,183.69538 202.71626,185.77329 202.71626,188.13092   L 202.71626,189.2498   C 202.71626,191.64739 204.55441,193.28574 207.11184,193.28574   z "
     style="fill:#ffffff;fill-rule:evenodd;fill-opacity:1;stroke:none;" />
  <path
     id="path21"
     d="  M 143.33594,187.77128   C 143.33594,186.13293 145.25401,183.69538 146.65261,183.69538   L 147.77148,183.69538   C 149.60964,183.69538 151.44779,185.53353 151.44779,187.41164   L 151.44779,190.32871   C 151.44779,191.48755 149.28996,193.28574 147.77148,193.28574   L 147.41185,193.28574   C 145.61365,193.28574 143.33594,191.44759 143.33594,189.96907   z  M 140.77851,188.89016   L 140.77851,189.60944   C 140.77851,192.56646 144.41486,195.88313 147.77148,195.88313   C 150.96827,195.88313 154.40482,192.24678 154.40482,189.96907   L 154.40482,187.41164   C 154.40482,184.65442 150.92831,181.13795 147.77148,181.13795   C 143.7755,181.13795 140.77851,185.01405 140.77851,188.89016   z "
     style="fill:#000000;fill-rule:evenodd;fill-opacity:1;stroke:none;" />
  <path
     id="path23"
     d="  M 200.11887,187.41164   C 200.11887,184.41466 203.75522,181.13795 207.11184,181.13795   L 207.51144,181.13795   C 210.34859,181.13795 213.38554,184.61446 213.38554,187.41164   L 213.38554,189.2498   C 213.38554,192.7263 210.58835,195.88313 207.11184,195.88313   C 203.8751,195.88313 200.11887,192.48654 200.11887,189.96907   z  M 140.77851,188.89016   C 140.77851,185.01405 143.7755,181.13795 147.77148,181.13795   C 150.92831,181.13795 154.40482,184.65442 154.40482,187.41164   L 154.40482,189.96907   C 154.40482,192.24678 150.96827,195.88313 147.77148,195.88313   C 144.41486,195.88313 140.77851,192.56646 140.77851,189.60944   z  M 140.01928,179.73935   C 138.9004,182.01707 135.22409,187.77128 135.22409,190.32871   L 135.22409,191.80723   C 135.22409,193.9251 135.82349,194.44458 135.98333,196.24277   C 137.26205,196.56245 137.22209,197.00201 138.54076,197.00201   L 215.98293,197.00201   C 217.3016,197.00201 217.26164,196.56245 218.5004,196.24277   L 218.93996,189.96907   C 219.17972,187.05201 215.66325,181.81727 214.50441,179.73935   L 194.96405,179.2998   L 158.84036,179.17992   z "
     style="fill:#ffffff;fill-rule:evenodd;fill-opacity:1;stroke:none;" />
  <path
     id="path25"
     d="  M 136.34297,203.63534   L 136.34297,203.99498   C 136.34297,205.47349 139.22008,205.47349 140.77851,205.47349   L 214.50441,205.47349   C 216.26265,205.47349 217.18172,205.03393 218.54036,204.71425   C 218.42048,202.83614 217.22168,201.39759 215.22369,201.39759   L 139.65964,201.39759   C 138.38092,201.39759 136.34297,202.35662 136.34297,203.63534   z "
     style="fill:#ffffff;fill-rule:evenodd;fill-opacity:1;stroke:none;" />
  <path
     id="path27"
     d="  M 270.28835,140.21907   L 270.28835,178.86024   L 296.26224,178.86024   L 296.26224,140.21907   L 270.28835,140.21907   z "
     style="fill:#ffffff;fill-rule:evenodd;fill-opacity:1;stroke:none;" />
  <path
     id="path29"
     d="  M 270.28835,140.21907   L 296.26224,140.21907   L 296.26224,178.86024   L 270.28835,178.86024   z "
     style="fill:none;stroke:#1f1a17;stroke-width:0.27971888px;stroke-linecap:butt;stroke-linejoin:miter;stroke-miterlimit:10;stroke-dasharray:none;stroke-opacity:1;" />
  <path
     id="path31"
     d="  M 184.97409,133.86546   C 184.97409,135.98333 183.05602,137.66164 180.65843,137.66164   C 178.26084,137.66164 176.34277,135.98333 176.34277,133.86546   C 176.34277,131.78755 178.26084,130.06928 180.65843,130.06928   C 183.05602,130.06928 184.97409,131.78755 184.97409,133.86546   z "
     style="fill:#ffffff;fill-rule:evenodd;fill-opacity:1;stroke:none;" />
  <path
     id="path33"
     d="  M 184.97409,133.86546   C 184.97409,135.98333 183.05602,137.66164 180.65843,137.66164   C 178.26084,137.66164 176.34277,135.98333 176.34277,133.86546   C 176.34277,131.78755 178.26084,130.06928 180.65843,130.06928   C 183.05602,130.06928 184.97409,131.78755 184.97409,133.86546  "
     style="fill:none;stroke:#1f1a17;stroke-width:0.27971888px;stroke-linecap:butt;stroke-linejoin:miter;stroke-miterlimit:10;stroke-dasharray:none;stroke-opacity:1;" />
  <path
     id="path35"
     d="  M 198.92008,142.73654   C 198.92008,144.85442 196.96205,146.53273 194.60441,146.53273   C 192.20682,146.53273 190.28875,144.85442 190.28875,142.73654   C 190.28875,140.65863 192.20682,138.94036 194.60441,138.94036   C 196.96205,138.94036 198.92008,140.65863 198.92008,142.73654   z "
     style="fill:#ffffff;fill-rule:evenodd;fill-opacity:1;stroke:none;" />
  <path
     id="path37"
     d="  M 198.92008,142.73654   C 198.92008,144.85442 196.96205,146.53273 194.60441,146.53273   C 192.20682,146.53273 190.28875,144.85442 190.28875,142.73654   C 190.28875,140.65863 192.20682,138.94036 194.60441,138.94036   C 196.96205,138.94036 198.92008,140.65863 198.92008,142.73654  "
     style="fill:none;stroke:#1f1a17;stroke-width:0.27971888px;stroke-linecap:butt;stroke-linejoin:miter;stroke-miterlimit:10;stroke-dasharray:none;stroke-opacity:1;" />
  <path
     id="path39"
     d="  M 238.83996,169.03012   C 238.83996,171.14799 236.88192,172.8263 234.52429,172.8263   C 232.1267,172.8263 230.16867,171.14799 230.16867,169.03012   C 230.16867,166.95221 232.1267,165.23393 234.52429,165.23393   C 236.88192,165.23393 238.83996,166.95221 238.83996,169.03012   z "
     style="fill:#ffffff;fill-rule:evenodd;fill-opacity:1;stroke:none;" />
  <path
     id="path41"
     d="  M 238.83996,169.03012   C 238.83996,171.14799 236.88192,172.8263 234.52429,172.8263   C 232.1267,172.8263 230.16867,171.14799 230.16867,169.03012   C 230.16867,166.95221 232.1267,165.23393 234.52429,165.23393   C 236.88192,165.23393 238.83996,166.95221 238.83996,169.03012  "
     style="fill:none;stroke:#1f1a17;stroke-width:0.27971888px;stroke-linecap:butt;stroke-linejoin:miter;stroke-miterlimit:10;stroke-dasharray:none;stroke-opacity:1;" />
  <path
     id="path43"
     d="  M 211.90703,151.28795   C 211.90703,153.40582 209.94899,155.08413 207.59136,155.08413   C 205.19377,155.08413 203.2757,153.40582 203.2757,151.28795   C 203.2757,149.21004 205.19377,147.49176 207.59136,147.49176   C 209.94899,147.49176 211.90703,149.21004 211.90703,151.28795   z "
     style="fill:#ffffff;fill-rule:evenodd;fill-opacity:1;stroke:none;" />
  <path
     id="path45"
     d="  M 211.90703,151.28795   C 211.90703,153.40582 209.94899,155.08413 207.59136,155.08413   C 205.19377,155.08413 203.2757,153.40582 203.2757,151.28795   C 203.2757,149.21004 205.19377,147.49176 207.59136,147.49176   C 209.94899,147.49176 211.90703,149.21004 211.90703,151.28795  "
     style="fill:none;stroke:#1f1a17;stroke-width:0.27971888px;stroke-linecap:butt;stroke-linejoin:miter;stroke-miterlimit:10;stroke-dasharray:none;stroke-opacity:1;" />
  <path
     id="path47"
     d="  M 225.21365,160.15903   C 225.21365,162.27691 223.25562,163.95522 220.89799,163.95522   C 218.5004,163.95522 216.58233,162.27691 216.58233,160.15903   C 216.58233,158.08112 218.5004,156.36285 220.89799,156.36285   C 223.25562,156.36285 225.21365,158.08112 225.21365,160.15903   z "
     style="fill:#ffffff;fill-rule:evenodd;fill-opacity:1;stroke:none;" />
  <path
     id="path49"
     d="  M 225.21365,160.15903   C 225.21365,162.27691 223.25562,163.95522 220.89799,163.95522   C 218.5004,163.95522 216.58233,162.27691 216.58233,160.15903   C 216.58233,158.08112 218.5004,156.36285 220.89799,156.36285   C 223.25562,156.36285 225.21365,158.08112 225.21365,160.15903  "
     style="fill:none;stroke:#1f1a17;stroke-width:0.27971888px;stroke-linecap:butt;stroke-linejoin:miter;stroke-miterlimit:10;stroke-dasharray:none;stroke-opacity:1;" />
  <path
     id="path51"
     d="  M 252.14658,177.26184   C 252.14658,179.37972 250.18855,181.05803 247.83092,181.05803   C 245.43333,181.05803 243.4753,179.37972 243.4753,177.26184   C 243.4753,175.18393 245.43333,173.46566 247.83092,173.46566   C 250.18855,173.46566 252.14658,175.18393 252.14658,177.26184   z "
     style="fill:#ffffff;fill-rule:evenodd;fill-opacity:1;stroke:none;" />
  <path
     id="path53"
     d="  M 252.14658,177.26184   C 252.14658,179.37972 250.18855,181.05803 247.83092,181.05803   C 245.43333,181.05803 243.4753,179.37972 243.4753,177.26184   C 243.4753,175.18393 245.43333,173.46566 247.83092,173.46566   C 250.18855,173.46566 252.14658,175.18393 252.14658,177.26184  "
     style="fill:none;stroke:#1f1a17;stroke-width:0.27971888px;stroke-linecap:butt;stroke-linejoin:miter;stroke-miterlimit:10;stroke-dasharray:none;stroke-opacity:1;" />
</svg>
