<?xml version="1.0" encoding="UTF-8" standalone="no"?>
<svg
   xmlns:dc="http://purl.org/dc/elements/1.1/"
   xmlns:cc="http://creativecommons.org/ns#"
   xmlns:rdf="http://www.w3.org/1999/02/22-rdf-syntax-ns#"
   xmlns:svg="http://www.w3.org/2000/svg"
   xmlns="http://www.w3.org/2000/svg"
   id="svg13"
   height="112.9mm"
   width="112.9mm"
   version="1.0">
  <metadata
     id="metadata17">
    <rdf:RDF>
      <cc:Work
         rdf:about="">
        <dc:format>image/svg+xml</dc:format>
        <dc:type
           rdf:resource="http://purl.org/dc/dcmitype/StillImage" />
      </cc:Work>
    </rdf:RDF>
  </metadata>
  <defs
     id="defs3">
    <pattern
       y="0"
       x="0"
       height="6"
       width="6"
       patternUnits="userSpaceOnUse"
       id="EMFhbasepattern" />
  </defs>
  <path
     id="path5"
     d="  M 1817.3195,1817.1379   L 1817.3195,2190.121  "
     style="fill:none;stroke:#ff0000;stroke-width:10.649107px;stroke-linecap:butt;stroke-linejoin:miter;stroke-miterlimit:282;stroke-dasharray:none;stroke-opacity:1;" />
  <path
     id="path7"
     d="  M 2030.4905,1817.1379   L 2030.4905,2190.121  "
     style="fill:none;stroke:#ff0000;stroke-width:10.649107px;stroke-linecap:butt;stroke-linejoin:miter;stroke-miterlimit:282;stroke-dasharray:none;stroke-opacity:1;" />
  <path
     id="path9"
     d="  M 1871.7735,2056.9316   L 1871.7735,1976.1948   L 1841.601,1976.1948   L 1841.601,1965.3568   L 1914.1433,1965.3568   L 1914.1433,1976.1948   L 1883.8576,1976.1948   L 1883.8576,2056.9316   z "
     style="fill:#ff0000;fill-rule:nonzero;fill-opacity:1;stroke:#ff0000;stroke-width:1.0573581px;stroke-linecap:butt;stroke-linejoin:miter;stroke-miterlimit:282;stroke-dasharray:none;stroke-opacity:1;" />
  <path
     id="path11"
     d="  M 1991.9724,2024.8332   L 2004.0943,2027.892   C 2001.5264,2037.8236 1996.9571,2045.414 1990.3864,2050.6252   C 1983.7779,2055.8742 1975.6967,2058.4799 1966.1805,2058.4799   C 1956.3244,2058.4799 1948.2809,2056.4785 1942.0878,2052.4378   C 1935.9325,2048.435 1931.2121,2042.6195 1928.0023,2034.9914   C 1924.7547,2027.3633 1923.1686,2019.2066 1923.1686,2010.4456   C 1923.1686,2000.9294 1924.9813,1992.6216 1928.6065,1985.5222   C 1932.2695,1978.4228 1937.443,1973.0227 1944.1648,1969.3219   C 1950.8865,1965.6589 1958.288,1963.8086 1966.3693,1963.8086   C 1975.5079,1963.8086 1983.2115,1966.1499 1989.4801,1970.7947   C 1995.711,1975.4773 2000.0537,1982.0102 2002.5083,1990.4691   L 1990.613,1993.3013   C 1988.4605,1986.6173 1985.4017,1981.7837 1981.3611,1978.7249   C 1977.3205,1975.7038 1972.2225,1974.1933 1966.1049,1974.1933   C 1959.0811,1974.1933 1953.1901,1975.8549 1948.4697,1979.2535   C 1943.7494,1982.6144 1940.4262,1987.146 1938.5003,1992.8104   C 1936.6122,1998.5126 1935.6304,2004.3658 1935.6304,2010.4078   C 1935.6304,2018.187 1936.7632,2024.9843 1939.029,2030.7998   C 1941.3325,2036.5775 1944.8445,2040.9202 1949.6404,2043.7902   C 1954.4362,2046.6601 1959.6097,2048.1329 1965.1986,2048.1329   C 1971.9582,2048.1329 1977.6981,2046.1692 1982.4185,2042.2419   C 1987.101,2038.3146 1990.3109,2032.5368 1991.9724,2024.8332   z "
     style="fill:#ff0000;fill-rule:nonzero;fill-opacity:1;stroke:#ff0000;stroke-width:1.0573581px;stroke-linecap:butt;stroke-linejoin:miter;stroke-miterlimit:282;stroke-dasharray:none;stroke-opacity:1;" />
</svg>
