<?xml version="1.0" encoding="UTF-8" standalone="no"?>
<svg
   xmlns:dc="http://purl.org/dc/elements/1.1/"
   xmlns:cc="http://creativecommons.org/ns#"
   xmlns:rdf="http://www.w3.org/1999/02/22-rdf-syntax-ns#"
   xmlns:svg="http://www.w3.org/2000/svg"
   xmlns="http://www.w3.org/2000/svg"
   id="svg25"
   height="89.669998mm"
   width="120.11mm"
   version="1.0">
  <metadata
     id="metadata29">
    <rdf:RDF>
      <cc:Work
         rdf:about="">
        <dc:format>image/svg+xml</dc:format>
        <dc:type
           rdf:resource="http://purl.org/dc/dcmitype/StillImage" />
      </cc:Work>
    </rdf:RDF>
  </metadata>
  <defs
     id="defs3">
    <pattern
       y="0"
       x="0"
       height="6"
       width="6"
       patternUnits="userSpaceOnUse"
       id="EMFhbasepattern" />
  </defs>
  <path
     id="path5"
     d="  M 54.345381,54.345381   L 54.345381,284.51405   L 399.59839,284.51405   L 399.59839,54.345381   L 54.345381,54.345381   z "
     style="fill:#80e0ff;fill-rule:evenodd;fill-opacity:1;stroke:none;" />
  <path
     id="path7"
     d="  M 54.345381,54.345381   L 399.59839,54.345381   L 399.59839,284.51405   L 54.345381,284.51405   z "
     style="fill:none;stroke:#000000;stroke-width:9.5903616px;stroke-linecap:butt;stroke-linejoin:miter;stroke-miterlimit:10;stroke-dasharray:none;stroke-opacity:1;" />
  <path
     id="path9"
     d="  M 221.21767,107.33213   L 226.97188,95.583934   L 232.7261,107.33213   z "
     style="fill:none;stroke:#000000;stroke-width:5.7542167px;stroke-linecap:butt;stroke-linejoin:miter;stroke-miterlimit:10;stroke-dasharray:none;stroke-opacity:1;" />
  <path
     id="path11"
     d="  M 226.97188,95.583934   L 226.97188,176.74237  "
     style="fill:none;stroke:#000000;stroke-width:5.7542167px;stroke-linecap:butt;stroke-linejoin:miter;stroke-miterlimit:10;stroke-dasharray:none;stroke-opacity:1;" />
  <path
     id="path13"
     d="  M 234.48433,183.49558   C 234.48433,186.73233 231.12771,189.36968 226.97188,189.36968   C 222.85602,189.36968 219.49939,186.73233 219.49939,183.49558   C 219.49939,180.25883 222.85602,177.62148 226.97188,177.62148   C 231.12771,177.62148 234.48433,180.25883 234.48433,183.49558  "
     style="fill:none;stroke:#000000;stroke-width:5.7542167px;stroke-linecap:butt;stroke-linejoin:miter;stroke-miterlimit:10;stroke-dasharray:none;stroke-opacity:1;" />
  <path
     id="path15"
     d="  M 162.71646,196.28273   C 162.71646,203.19578 157.16205,208.7502 150.24899,208.7502   C 143.3759,208.7502 137.78152,203.19578 137.78152,196.28273   C 137.78152,189.40964 143.3759,183.81526 150.24899,183.81526   C 157.16205,183.81526 162.71646,189.40964 162.71646,196.28273  "
     style="fill:none;stroke:#000000;stroke-width:9.5903616px;stroke-linecap:butt;stroke-linejoin:miter;stroke-miterlimit:10;stroke-dasharray:none;stroke-opacity:1;" />
  <path
     id="path17"
     d="  M 316.16224,196.28273   C 316.16224,203.19578 310.60783,208.7502 303.69477,208.7502   C 296.82168,208.7502 291.22731,203.19578 291.22731,196.28273   C 291.22731,189.40964 296.82168,183.81526 303.69477,183.81526   C 310.60783,183.81526 316.16224,189.40964 316.16224,196.28273  "
     style="fill:none;stroke:#000000;stroke-width:9.5903616px;stroke-linecap:butt;stroke-linejoin:miter;stroke-miterlimit:10;stroke-dasharray:none;stroke-opacity:1;" />
  <path
     id="path19"
     d="  M 162.71646,196.28273   L 291.22731,196.28273  "
     style="fill:none;stroke:#000000;stroke-width:9.5903616px;stroke-linecap:butt;stroke-linejoin:miter;stroke-miterlimit:10;stroke-dasharray:none;stroke-opacity:1;" />
  <path
     id="path21"
     d="  M 207.79116,63.935742   L 226.97188,90.788754  "
     style="fill:none;stroke:#000000;stroke-width:3.8361444px;stroke-linecap:butt;stroke-linejoin:miter;stroke-miterlimit:10;stroke-dasharray:none;stroke-opacity:1;" />
  <path
     id="path23"
     d="  M 246.15261,63.935742   L 226.97188,90.788754  "
     style="fill:none;stroke:#000000;stroke-width:3.8361444px;stroke-linecap:butt;stroke-linejoin:miter;stroke-miterlimit:10;stroke-dasharray:none;stroke-opacity:1;" />
</svg>
