<?xml version="1.0" encoding="UTF-8" standalone="no"?>
<svg
   xmlns:dc="http://purl.org/dc/elements/1.1/"
   xmlns:cc="http://creativecommons.org/ns#"
   xmlns:rdf="http://www.w3.org/1999/02/22-rdf-syntax-ns#"
   xmlns:svg="http://www.w3.org/2000/svg"
   xmlns="http://www.w3.org/2000/svg"
   id="svg15"
   height="101.85mm"
   width="101.85mm"
   version="1.0">
  <metadata
     id="metadata19">
    <rdf:RDF>
      <cc:Work
         rdf:about="">
        <dc:format>image/svg+xml</dc:format>
        <dc:type
           rdf:resource="http://purl.org/dc/dcmitype/StillImage" />
      </cc:Work>
    </rdf:RDF>
  </metadata>
  <defs
     id="defs3">
    <pattern
       y="0"
       x="0"
       height="6"
       width="6"
       patternUnits="userSpaceOnUse"
       id="EMFhbasepattern" />
  </defs>
  <path
     id="path5"
     d="  M 330.54779,192.44658   C 330.54779,268.72992 268.72992,330.54779 192.44658,330.54779   C 116.20321,330.54779 54.345381,268.72992 54.345381,192.44658   C 54.345381,116.20321 116.20321,54.345381 192.44658,54.345381   C 268.72992,54.345381 330.54779,116.20321 330.54779,192.44658   z "
     style="fill:#80e0ff;fill-rule:evenodd;fill-opacity:1;stroke:none;" />
  <path
     id="path7"
     d="  M 330.54779,192.44658   C 330.54779,268.72992 268.72992,330.54779 192.44658,330.54779   C 116.20321,330.54779 54.345381,268.72992 54.345381,192.44658   C 54.345381,116.20321 116.20321,54.345381 192.44658,54.345381   C 268.72992,54.345381 330.54779,116.20321 330.54779,192.44658  "
     style="fill:none;stroke:#000000;stroke-width:9.5903616px;stroke-linecap:butt;stroke-linejoin:miter;stroke-miterlimit:10;stroke-dasharray:none;stroke-opacity:1;" />
  <path
     id="path9"
     d="  M 130.10924,264.37429   L 130.10924,264.37429   L 91.74779,187.6514   L 139.6996,187.6514   L 139.6996,125.31405   L 245.19357,125.31405   L 245.19357,187.6514   L 293.14538,187.6514   L 254.78393,264.37429   z "
     style="fill:#ffffff;fill-rule:evenodd;fill-opacity:1;stroke:none;" />
  <path
     id="path11"
     d="  M 130.10924,264.37429   L 130.10924,264.37429   L 91.74779,187.6514   L 139.6996,187.6514   L 139.6996,125.31405   L 245.19357,125.31405   L 245.19357,187.6514   L 293.14538,187.6514   L 254.78393,264.37429   z "
     style="fill:none;stroke:#000000;stroke-width:9.5903616px;stroke-linecap:butt;stroke-linejoin:miter;stroke-miterlimit:10;stroke-dasharray:none;stroke-opacity:1;" />
  <path
     id="path13"
     d="  M 164.23494,234.96385   L 164.23494,198.64036   L 150.64859,198.64036   L 150.64859,193.76526   L 183.29578,193.76526   L 183.29578,198.64036   L 169.66948,198.64036   L 169.66948,234.96385   z  M 196.08293,234.96385   L 185.17389,193.76526   L 190.76827,193.76526   L 197.00201,220.77811   C 197.68132,223.61526 198.28072,226.41245 198.76024,229.20964   C 199.79919,224.81405 200.43855,222.25662 200.59839,221.57731   L 208.47048,193.76526   L 215.02389,193.76526   L 220.93795,214.62429   C 222.41646,219.77911 223.45542,224.65421 224.13474,229.20964   C 224.65421,226.61225 225.33353,223.61526 226.17269,220.25863   L 232.64618,193.76526   L 238.12068,193.76526   L 226.81204,234.96385   L 221.57731,234.96385   L 212.90602,203.59538   C 212.14678,200.95803 211.74719,199.35964 211.58735,198.76024   C 211.18775,200.63835 210.74819,202.23674 210.38855,203.59538   L 201.63735,234.96385   z "
     style="fill:#000000;fill-rule:evenodd;fill-opacity:1;stroke:none;" />
</svg>
