<?xml version="1.0" encoding="UTF-8" standalone="no"?>
<svg
   xmlns:dc="http://purl.org/dc/elements/1.1/"
   xmlns:cc="http://creativecommons.org/ns#"
   xmlns:rdf="http://www.w3.org/1999/02/22-rdf-syntax-ns#"
   xmlns:svg="http://www.w3.org/2000/svg"
   xmlns="http://www.w3.org/2000/svg"
   id="svg15"
   height="95.75mm"
   width="95.75mm"
   version="1.0">
  <metadata
     id="metadata19">
    <rdf:RDF>
      <cc:Work
         rdf:about="">
        <dc:format>image/svg+xml</dc:format>
        <dc:type
           rdf:resource="http://purl.org/dc/dcmitype/StillImage" />
      </cc:Work>
    </rdf:RDF>
  </metadata>
  <defs
     id="defs3">
    <pattern
       y="0"
       x="0"
       height="6"
       width="6"
       patternUnits="userSpaceOnUse"
       id="EMFhbasepattern" />
  </defs>
  <path
     id="path5"
     d="  M 54.345381,54.345381   L 54.345381,307.53092   L 307.53092,307.53092   L 307.53092,54.345381   L 54.345381,54.345381   z "
     style="fill:#aaffaa;fill-rule:evenodd;fill-opacity:1;stroke:none;" />
  <path
     id="path7"
     d="  M 54.345381,54.345381   L 307.53092,54.345381   L 307.53092,307.53092   L 54.345381,307.53092   z "
     style="fill:none;stroke:#000000;stroke-width:9.5903616px;stroke-linecap:butt;stroke-linejoin:miter;stroke-miterlimit:10;stroke-dasharray:none;stroke-opacity:1;" />
  <path
     id="path9"
     d="  M 118.6008,252.86586   L 118.6008,252.86586   L 80.239356,176.14297   L 128.19116,176.14297   L 128.19116,113.80562   L 233.68514,113.80562   L 233.68514,176.14297   L 281.63694,176.14297   L 243.2755,252.86586   z "
     style="fill:#ffffff;fill-rule:evenodd;fill-opacity:1;stroke:none;" />
  <path
     id="path11"
     d="  M 118.6008,252.86586   L 118.6008,252.86586   L 80.239356,176.14297   L 128.19116,176.14297   L 128.19116,113.80562   L 233.68514,113.80562   L 233.68514,176.14297   L 281.63694,176.14297   L 243.2755,252.86586   z "
     style="fill:none;stroke:#000000;stroke-width:9.5903616px;stroke-linecap:butt;stroke-linejoin:miter;stroke-miterlimit:10;stroke-dasharray:none;stroke-opacity:1;" />
  <path
     id="path13"
     d="  M 152.7265,223.45542   L 152.7265,187.13193   L 139.14016,187.13193   L 139.14016,182.25682   L 171.78735,182.25682   L 171.78735,187.13193   L 158.16104,187.13193   L 158.16104,223.45542   z  M 184.5745,223.45542   L 173.66546,182.25682   L 179.25984,182.25682   L 185.49357,209.26968   C 186.17289,212.10682 186.77229,214.90401 187.2518,217.7012   C 188.29076,213.30562 188.93012,210.74819 189.08996,210.06887   L 196.96205,182.25682   L 203.51546,182.25682   L 209.42952,203.11586   C 210.90803,208.27068 211.94698,213.14578 212.6263,217.7012   C 213.14578,215.10381 213.8251,212.10682 214.66425,208.7502   L 221.13775,182.25682   L 226.61225,182.25682   L 215.30361,223.45542   L 210.06887,223.45542   L 201.39759,192.08695   C 200.63835,189.4496 200.23875,187.8512 200.07891,187.2518   C 199.67931,189.12992 199.23976,190.72831 198.88012,192.08695   L 190.12891,223.45542   z "
     style="fill:#000000;fill-rule:evenodd;fill-opacity:1;stroke:none;" />
</svg>
