<?xml version="1.0" encoding="UTF-8" standalone="no"?>
<svg
   xmlns:dc="http://purl.org/dc/elements/1.1/"
   xmlns:cc="http://creativecommons.org/ns#"
   xmlns:rdf="http://www.w3.org/1999/02/22-rdf-syntax-ns#"
   xmlns:svg="http://www.w3.org/2000/svg"
   xmlns="http://www.w3.org/2000/svg"
   id="svg21"
   height="130.27mm"
   width="130.27mm"
   version="1.0">
  <metadata
     id="metadata25">
    <rdf:RDF>
      <cc:Work
         rdf:about="">
        <dc:format>image/svg+xml</dc:format>
        <dc:type
           rdf:resource="http://purl.org/dc/dcmitype/StillImage" />
      </cc:Work>
    </rdf:RDF>
  </metadata>
  <defs
     id="defs3">
    <pattern
       y="0"
       x="0"
       height="6"
       width="6"
       patternUnits="userSpaceOnUse"
       id="EMFhbasepattern" />
  </defs>
  <path
     id="path5"
     d="  M 164.63454,327.67068   C 164.63454,437.95983 327.67068,437.95983 327.67068,327.67068   C 437.95983,327.67068 437.95983,164.63454 327.67068,164.63454   C 327.67068,54.345381 164.63454,54.345381 164.63454,164.63454   C 54.345381,164.63454 54.345381,327.67068 164.63454,327.67068   z "
     style="fill:#ffff80;fill-rule:evenodd;fill-opacity:1;stroke:none;" />
  <path
     id="path7"
     d="  M 164.63454,327.67068   C 164.63454,437.95983 327.67068,437.95983 327.67068,327.67068   C 437.95983,327.67068 437.95983,164.63454 327.67068,164.63454   C 327.67068,54.345381 164.63454,54.345381 164.63454,164.63454   C 54.345381,164.63454 54.345381,327.67068 164.63454,327.67068  "
     style="fill:none;stroke:#000000;stroke-width:9.5903616px;stroke-linecap:butt;stroke-linejoin:miter;stroke-miterlimit:10;stroke-dasharray:none;stroke-opacity:1;" />
  <path
     id="path9"
     d="  M 215.50341,200.67831   L 222.09678,212.10682   C 229.16968,208.39056 233.7251,204.31466 244.95381,204.31466   L 246.15261,204.31466   C 260.01867,204.31466 262.73594,210.50843 269.32931,211.94698   L 275.64297,200.67831   C 252.98574,188.73032 238.16064,188.69036 215.50341,200.67831   z "
     style="fill:#000000;fill-rule:evenodd;fill-opacity:1;stroke:none;" />
  <path
     id="path11"
     d="  M 253.38534,146.57269   C 253.38534,148.09116 263.33534,151.52771 265.41325,152.56666   C 268.41024,154.08514 273.76486,158.4008 275.64297,160.99819   C 280.71787,167.91124 285.87269,175.50361 285.87269,187.4516   C 285.87269,206.99196 268.01064,226.57229 248.5502,226.57229   L 248.5502,233.76506   C 254.10461,234.24457 259.17951,241.79698 256.38233,247.59116   C 257.9008,247.9508 262.33634,250.62811 262.41626,250.62811   C 264.13453,250.62811 274.24437,233.76506 296.66184,233.76506   L 297.3012,233.76506   C 308.01044,233.76506 318.83955,239.91887 323.91445,245.63313   C 327.91044,250.10863 336.58172,263.93474 335.42289,272.88574   L 333.42489,285.95261   L 336.38192,287.31124   C 336.54176,285.15341 338.33995,281.75682 339.05923,278.56004   C 339.69859,275.60301 339.97831,271.36727 339.97831,268.0506   L 339.97831,260.21847   C 339.97831,239.95883 320.03835,215.26365 303.89457,211.50743   C 303.89457,199.47952 304.93353,196.24277 301.73674,185.41365   C 299.73875,178.66044 295.58293,170.06907 291.4271,165.67349   C 279.27931,152.84638 273.44518,148.81044 253.38534,144.13514   L 253.38534,146.57269   z "
     style="fill:#000000;fill-rule:evenodd;fill-opacity:1;stroke:none;" />
  <path
     id="path13"
     d="  M 187.21184,207.31164   L 187.21184,209.70923   C 187.21184,210.90803 175.34377,217.34156 173.38574,218.74016   C 169.58956,221.37751 165.03413,226.49237 162.11707,230.32851   C 155.60361,238.87992 150.52871,249.66907 150.52871,264.45421   C 150.52871,274.92369 152.9263,278.91967 154.80442,286.87168   L 157.76144,285.51305   C 157.44176,281.91666 155.92329,279.91867 155.92329,275.88273   L 155.92329,271.04759   C 155.92329,252.38634 174.86425,233.76506 194.44458,233.76506   L 198.64036,233.76506   C 204.79417,233.76506 212.86606,236.84196 216.70221,239.19959   C 221.77711,242.2765 225.21365,247.87088 229.32951,250.58815   L 234.72409,248.19056   L 234.72409,243.99478   C 234.72409,239.11968 238.72008,234.68413 242.55622,233.76506   L 242.55622,226.57229   C 224.45441,226.13273 205.87309,207.83112 205.87309,189.2498   L 205.87309,185.65341   C 205.87309,175.78333 210.94799,165.15401 215.94297,160.23895   C 218.97992,157.24197 221.85702,154.76446 225.57329,152.44678   C 227.57128,151.16807 237.72108,148.93032 237.72108,146.57269   L 237.72108,144.13514   C 221.77711,147.89136 209.66927,153.36586 200.91807,164.4747   C 190.60843,177.66144 187.21184,186.09297 187.21184,207.31164   z "
     style="fill:#000000;fill-rule:evenodd;fill-opacity:1;stroke:none;" />
  <path
     id="path15"
     d="  M 193.24578,248.19056   C 193.24578,265.93273 209.58935,288.31024 223.25562,291.46706   L 228.73012,280.67791   C 213.14578,272.44618 205.87309,261.65702 205.87309,239.79899   L 193.24578,239.79899   z "
     style="fill:#000000;fill-rule:evenodd;fill-opacity:1;stroke:none;" />
  <path
     id="path17"
     d="  M 261.7769,281.27731   L 267.81084,291.50702   C 275.60301,289.70883 286.3522,279.03955 290.06847,272.88574   C 295.46305,263.93474 298.5,254.10461 298.5,239.79899   L 285.27329,239.79899   C 285.55301,252.30642 285.03353,256.94176 279.23935,265.65301   C 276.28233,270.04859 275.12349,270.68795 271.56706,274.24437   C 269.04959,276.72188 263.01566,279.63895 261.7769,281.27731   z "
     style="fill:#000000;fill-rule:evenodd;fill-opacity:1;stroke:none;" />
  <path
     id="path19"
     d="  M 256.38233,272.88574   C 256.38233,264.17449 258.5002,261.81686 259.97871,255.42329   L 253.98474,252.38634   C 248.11064,257.5012 243.39538,256.22249 237.72108,252.4263   L 231.80702,255.62309   C 232.28654,261.9767 236.76204,264.93373 235.36345,276.48212   C 234.44437,283.95461 232.60622,290.38815 228.96988,295.38313   C 222.05682,304.77369 212.18674,313.16526 196.24277,313.16526   L 193.84518,313.16526   C 182.65642,313.16526 169.38976,305.37309 164.95421,298.73975   L 162.03715,300.09839   C 169.90923,311.80662 189.40964,323.99437 209.46947,323.99437   L 210.06887,323.99437   C 225.49337,323.99437 236.24257,317.6008 245.55321,311.36706   C 254.42429,317.32108 263.85482,323.39498 278.63996,323.39498   L 285.87269,323.39498   C 295.02349,323.39498 305.61285,319.47891 311.24718,315.68273   C 315.64277,312.7257 327.27108,304.81365 328.54979,299.93855   C 325.99236,299.25923 327.51084,298.73975 325.55281,298.73975   C 324.31405,298.73975 321.4769,303.29518 320.27811,304.25421   C 318.51987,305.65281 316.00241,306.93152 314.00441,308.2502   C 310.72771,310.40803 302.7757,312.56586 297.3012,312.56586   L 293.06546,312.56586   C 274.12449,312.56586 256.38233,294.02449 256.38233,274.68393   z "
     style="fill:#000000;fill-rule:evenodd;fill-opacity:1;stroke:none;" />
</svg>
