<?xml version="1.0" encoding="UTF-8" standalone="no"?>
<svg
   xmlns:dc="http://purl.org/dc/elements/1.1/"
   xmlns:cc="http://creativecommons.org/ns#"
   xmlns:rdf="http://www.w3.org/1999/02/22-rdf-syntax-ns#"
   xmlns:svg="http://www.w3.org/2000/svg"
   xmlns="http://www.w3.org/2000/svg"
   id="svg21"
   height="116.73mm"
   width="116.73mm"
   version="1.0">
  <metadata
     id="metadata25">
    <rdf:RDF>
      <cc:Work
         rdf:about="">
        <dc:format>image/svg+xml</dc:format>
        <dc:type
           rdf:resource="http://purl.org/dc/dcmitype/StillImage" />
      </cc:Work>
    </rdf:RDF>
  </metadata>
  <defs
     id="defs3">
    <pattern
       y="0"
       x="0"
       height="6"
       width="6"
       patternUnits="userSpaceOnUse"
       id="EMFhbasepattern" />
  </defs>
  <path
     id="path5"
     d="  M 220.57831,386.49156   L 220.57831,386.49156   L 386.49156,220.57831   L 220.57831,54.665059   L 54.665059,220.57831   L 220.57831,386.49156   z "
     style="fill:#ff8080;fill-rule:evenodd;fill-opacity:1;stroke:none;" />
  <path
     id="path7"
     d="  M 220.57831,386.49156   L 220.57831,386.49156   L 386.49156,220.57831   L 220.57831,54.665059   L 54.665059,220.57831   L 220.57831,386.49156  "
     style="fill:none;stroke:#000000;stroke-width:9.5903616px;stroke-linecap:butt;stroke-linejoin:miter;stroke-miterlimit:10;stroke-dasharray:none;stroke-opacity:1;" />
  <path
     id="path9"
     d="  M 189.92911,175.10401   L 196.52249,186.53253   C 203.59538,182.81626 208.1508,178.74036 219.37951,178.74036   L 220.57831,178.74036   C 234.44437,178.74036 237.16164,184.93413 243.75502,186.37269   L 250.06867,175.10401   C 227.41144,163.15602 212.58634,163.11606 189.92911,175.10401   z "
     style="fill:#000000;fill-rule:evenodd;fill-opacity:1;stroke:none;" />
  <path
     id="path11"
     d="  M 227.81104,120.99839   C 227.81104,122.51687 237.76104,125.95341 239.83895,126.99237   C 242.83594,128.51084 248.19056,132.8265 250.06867,135.42389   C 255.14357,142.33695 260.29839,149.92932 260.29839,161.87731   C 260.29839,181.41767 242.43634,200.99799 222.9759,200.99799   L 222.9759,208.19076   C 228.53032,208.67028 233.60522,216.22269 230.80803,222.01686   C 232.3265,222.3765 236.76204,225.05381 236.84196,225.05381   C 238.56024,225.05381 248.67008,208.19076 271.08755,208.19076   L 271.7269,208.19076   C 282.43614,208.19076 293.26526,214.34458 298.34016,220.05883   C 302.33614,224.53433 311.00743,238.36044 309.84859,247.31144   L 307.8506,260.37831   L 310.80763,261.73694   C 310.96747,259.57911 312.76566,256.18253 313.48494,252.98574   C 314.12429,250.02871 314.40401,245.79297 314.40401,242.4763   L 314.40401,234.64417   C 314.40401,214.38454 294.46405,189.68935 278.32028,185.93313   C 278.32028,173.90522 279.35923,170.66847 276.16245,159.83936   C 274.16445,153.08614 270.00863,144.49478 265.85281,140.09919   C 253.70502,127.27209 247.87088,123.23614 227.81104,118.56084   L 227.81104,120.99839   z "
     style="fill:#000000;fill-rule:evenodd;fill-opacity:1;stroke:none;" />
  <path
     id="path13"
     d="  M 161.63755,181.73735   L 161.63755,184.13494   C 161.63755,185.33373 149.76948,191.76727 147.81144,193.16586   C 144.01526,195.80321 139.45984,200.91807 136.54277,204.75421   C 130.02932,213.30562 124.95442,224.09478 124.95442,238.87992   C 124.95442,249.34939 127.35201,253.34538 129.23012,261.29739   L 132.18715,259.93875   C 131.86747,256.34237 130.34899,254.34437 130.34899,250.30843   L 130.34899,245.47329   C 130.34899,226.81204 149.28996,208.19076 168.87028,208.19076   L 173.06606,208.19076   C 179.21988,208.19076 187.29176,211.26767 191.12791,213.6253   C 196.20281,216.70221 199.63935,222.29658 203.75522,225.01385   L 209.1498,222.61626   L 209.1498,218.42048   C 209.1498,213.54538 213.14578,209.10984 216.98192,208.19076   L 216.98192,200.99799   C 198.88012,200.55843 180.29879,182.25682 180.29879,163.6755   L 180.29879,160.07911   C 180.29879,150.20903 185.37369,139.57972 190.36867,134.66466   C 193.40562,131.66767 196.28273,129.19016 199.99899,126.87249   C 201.99699,125.59377 212.14678,123.35602 212.14678,120.99839   L 212.14678,118.56084   C 196.20281,122.31707 184.09498,127.79156 175.34377,138.9004   C 165.03413,152.08715 161.63755,160.51867 161.63755,181.73735   z "
     style="fill:#000000;fill-rule:evenodd;fill-opacity:1;stroke:none;" />
  <path
     id="path15"
     d="  M 167.67148,222.61626   C 167.67148,240.35843 184.01506,262.73594 197.68132,265.89277   L 203.15582,255.10361   C 187.57148,246.87188 180.29879,236.08273 180.29879,214.2247   L 167.67148,214.2247   z "
     style="fill:#000000;fill-rule:evenodd;fill-opacity:1;stroke:none;" />
  <path
     id="path17"
     d="  M 236.20261,255.70301   L 242.23654,265.93273   C 250.02871,264.13453 260.77791,253.46526 264.49417,247.31144   C 269.88875,238.36044 272.9257,228.53032 272.9257,214.2247   L 259.69899,214.2247   C 259.97871,226.73213 259.45923,231.36747 253.66506,240.07871   C 250.70803,244.47429 249.54919,245.11365 245.99277,248.67008   C 243.4753,251.14759 237.44136,254.06465 236.20261,255.70301   z "
     style="fill:#000000;fill-rule:evenodd;fill-opacity:1;stroke:none;" />
  <path
     id="path19"
     d="  M 230.80803,247.31144   C 230.80803,238.6002 232.9259,236.24257 234.40441,229.84899   L 228.41044,226.81204   C 222.53634,231.9269 217.82108,230.64819 212.14678,226.852   L 206.23273,230.04879   C 206.71225,236.40241 211.18775,239.35943 209.78915,250.90783   C 208.87008,258.38032 207.03192,264.81385 203.39558,269.80883   C 196.48253,279.19939 186.61245,287.59096 170.66847,287.59096   L 168.27088,287.59096   C 157.08213,287.59096 143.81546,279.79879 139.37992,273.16546   L 136.46285,274.52409   C 144.33494,286.23233 163.83534,298.42008 183.89518,298.42008   L 184.49458,298.42008   C 199.91907,298.42008 210.66827,292.0265 219.97891,285.79277   C 228.85,291.74678 238.28052,297.82068 253.06566,297.82068   L 260.29839,297.82068   C 269.44919,297.82068 280.03855,293.90461 285.67289,290.10843   C 290.06847,287.1514 301.69678,279.23935 302.9755,274.36425   C 300.41807,273.68494 301.93654,273.16546 299.97851,273.16546   C 298.73975,273.16546 295.90261,277.72088 294.70381,278.67992   C 292.94558,280.07851 290.42811,281.35722 288.43012,282.6759   C 285.15341,284.83373 277.2014,286.99156 271.7269,286.99156   L 267.49116,286.99156   C 248.5502,286.99156 230.80803,268.4502 230.80803,249.10963   z "
     style="fill:#000000;fill-rule:evenodd;fill-opacity:1;stroke:none;" />
</svg>
