<?xml version="1.0" encoding="UTF-8" standalone="no"?>
<svg
   xmlns:dc="http://purl.org/dc/elements/1.1/"
   xmlns:cc="http://creativecommons.org/ns#"
   xmlns:rdf="http://www.w3.org/1999/02/22-rdf-syntax-ns#"
   xmlns:svg="http://www.w3.org/2000/svg"
   xmlns="http://www.w3.org/2000/svg"
   id="svg45"
   height="95.75mm"
   width="95.75mm"
   version="1.0">
  <metadata
     id="metadata49">
    <rdf:RDF>
      <cc:Work
         rdf:about="">
        <dc:format>image/svg+xml</dc:format>
        <dc:type
           rdf:resource="http://purl.org/dc/dcmitype/StillImage" />
      </cc:Work>
    </rdf:RDF>
  </metadata>
  <defs
     id="defs3">
    <pattern
       y="0"
       x="0"
       height="6"
       width="6"
       patternUnits="userSpaceOnUse"
       id="EMFhbasepattern" />
  </defs>
  <path
     id="path5"
     d="  M 132.98634,15.983936   L 132.98634,54.345381   L 228.88996,54.345381   L 228.88996,15.983936   L 132.98634,15.983936   z "
     style="fill:#000000;fill-rule:evenodd;fill-opacity:1;stroke:none;" />
  <path
     id="path7"
     d="  M 54.345381,54.345381   L 54.345381,307.53092   L 307.53092,307.53092   L 307.53092,54.345381   L 54.345381,54.345381   z "
     style="fill:#aaffaa;fill-rule:evenodd;fill-opacity:1;stroke:none;" />
  <path
     id="path9"
     d="  M 54.345381,54.345381   L 307.53092,54.345381   L 307.53092,307.53092   L 54.345381,307.53092   z "
     style="fill:none;stroke:#000000;stroke-width:9.5903616px;stroke-linecap:butt;stroke-linejoin:miter;stroke-miterlimit:10;stroke-dasharray:none;stroke-opacity:1;" />
  <path
     id="path11"
     d="  M 138.86044,118.68072   L 138.86044,82.996585   L 154.68454,82.996585   C 157.84136,82.996585 160.27891,83.316264 161.91727,83.955621   C 163.59558,84.594979 164.91425,85.713854 165.91325,87.352208   C 166.87229,88.990561 167.39176,90.788754 167.39176,92.746786   C 167.39176,95.264256 166.55261,97.422087 164.91425,99.14036   C 163.2759,100.85863 160.75843,101.97751 157.32189,102.45703   C 158.56064,103.05642 159.51968,103.65582 160.15903,104.21526   C 161.55763,105.49397 162.8763,107.09237 164.0751,108.97048   L 170.30883,118.68072   L 164.35482,118.68072   L 159.63956,111.24819   C 158.24096,109.13032 157.12209,107.49197 156.24297,106.33313   C 155.32389,105.21426 154.5247,104.41506 153.84538,103.9755   C 153.1261,103.49598 152.40683,103.1763 151.68755,103.01646   C 151.12811,102.89658 150.24899,102.85663 149.0502,102.85663   L 143.5757,102.85663   L 143.5757,118.68072   z  M 143.5757,98.740762   L 153.7255,98.740762   C 155.88333,98.740762 157.56164,98.540962 158.8004,98.061444   C 159.99919,97.621886 160.91827,96.902609 161.55763,95.943573   C 162.19699,94.944577 162.51666,93.905621 162.51666,92.746786   C 162.51666,91.028513 161.91727,89.669878 160.67851,88.551003   C 159.43976,87.472087 157.52168,86.952609 154.88434,86.952609   L 143.5757,86.952609   z  M 174.86425,118.68072   L 174.86425,82.996585   L 200.67831,82.996585   L 200.67831,87.192368   L 179.61948,87.192368   L 179.61948,98.141364   L 199.35964,98.141364   L 199.35964,102.33715   L 179.61948,102.33715   L 179.61948,114.48494   L 201.51747,114.48494   L 201.51747,118.68072   z  M 207.87108,118.68072   L 207.87108,82.996585   L 212.58634,82.996585   L 212.58634,114.48494   L 230.16867,114.48494   L 230.16867,118.68072   z "
     style="fill:#000000;fill-rule:evenodd;fill-opacity:1;stroke:none;" />
  <path
     id="path13"
     d="  M 140.49879,212.10682   C 136.58273,213.06586 111.40803,209.70923 109.96948,212.10682   C 106.61285,217.74116 122.07731,221.53735 121.47791,228.09076   C 120.91847,234.60421 95.823693,232.88594 95.264256,236.40241   C 93.625902,247.19156 147.09217,253.86486 152.80642,255.58313   C 163.39578,258.73996 166.71245,268.37028 178.38072,271.56706   C 190.88815,274.96365 207.99096,259.49919 222.49638,260.69799   C 225.61325,260.93775 245.31345,267.49116 248.71004,264.53413   C 261.69698,253.26546 226.93192,244.43433 222.49638,238.32048   C 216.34257,229.76907 256.18253,228.69016 218.42048,220.85803   z "
     style="fill:#ffffff;fill-rule:evenodd;fill-opacity:1;stroke:none;" />
  <path
     id="path15"
     d="  M 140.49879,212.10682   C 136.58273,213.06586 111.40803,209.70923 109.96948,212.10682   C 106.61285,217.74116 122.07731,221.53735 121.47791,228.09076   C 120.91847,234.60421 95.823693,232.88594 95.264256,236.40241   C 93.625902,247.19156 147.09217,253.86486 152.80642,255.58313   C 163.39578,258.73996 166.71245,268.37028 178.38072,271.56706   C 190.88815,274.96365 207.99096,259.49919 222.49638,260.69799   C 225.61325,260.93775 245.31345,267.49116 248.71004,264.53413   C 261.69698,253.26546 226.93192,244.43433 222.49638,238.32048   C 216.34257,229.76907 256.18253,228.69016 218.42048,220.85803  "
     style="fill:none;stroke:#000000;stroke-width:3.8361444px;stroke-linecap:butt;stroke-linejoin:miter;stroke-miterlimit:10;stroke-dasharray:none;stroke-opacity:1;" />
  <path
     id="path17"
     d="  M 216.66225,137.38193   L 216.66225,238.08072   L 141.85743,238.08072   L 141.85743,137.38193   z "
     style="fill:#ffffff;fill-rule:evenodd;fill-opacity:1;stroke:none;" />
  <path
     id="path19"
     d="  M 216.66225,137.38193   L 216.66225,238.08072   L 141.85743,238.08072   L 141.85743,137.38193   z "
     style="fill:none;stroke:#000000;stroke-width:2.8771083px;stroke-linecap:butt;stroke-linejoin:miter;stroke-miterlimit:10;stroke-dasharray:none;stroke-opacity:1;" />
  <path
     id="path21"
     d="  M 179.25984,146.97229   C 158.64056,146.97229 141.85743,142.69658 141.85743,137.38193   C 141.85743,132.10723 158.64056,127.79156 179.25984,127.79156   C 199.91907,127.79156 216.66225,132.10723 216.66225,137.38193   C 216.66225,142.69658 199.91907,146.97229 179.25984,146.97229   z "
     style="fill:#ffffff;fill-rule:evenodd;fill-opacity:1;stroke:none;" />
  <path
     id="path23"
     d="  M 179.25984,146.97229   C 158.64056,146.97229 141.85743,142.69658 141.85743,137.38193   C 141.85743,132.10723 158.64056,127.79156 179.25984,127.79156   C 199.91907,127.79156 216.66225,132.10723 216.66225,137.38193   C 216.66225,142.69658 199.91907,146.97229 179.25984,146.97229  "
     style="fill:none;stroke:#000000;stroke-width:2.8771083px;stroke-linecap:butt;stroke-linejoin:miter;stroke-miterlimit:10;stroke-dasharray:none;stroke-opacity:1;" />
  <path
     id="path25"
     d="  M 179.73935,247.67108   C 159.12008,247.67108 142.33695,243.39538 142.33695,238.08072   C 142.33695,232.80602 159.12008,228.49036 179.73935,228.49036   C 200.39859,228.49036 217.14176,232.80602 217.14176,238.08072   C 217.14176,243.39538 200.39859,247.67108 179.73935,247.67108   z "
     style="fill:#ffffff;fill-rule:evenodd;fill-opacity:1;stroke:none;" />
  <path
     id="path27"
     d="  M 179.73935,247.67108   C 159.12008,247.67108 142.33695,243.39538 142.33695,238.08072   C 142.33695,232.80602 159.12008,228.49036 179.73935,228.49036   C 200.39859,228.49036 217.14176,232.80602 217.14176,238.08072   C 217.14176,243.39538 200.39859,247.67108 179.73935,247.67108  "
     style="fill:none;stroke:#000000;stroke-width:2.8771083px;stroke-linecap:butt;stroke-linejoin:miter;stroke-miterlimit:10;stroke-dasharray:none;stroke-opacity:1;" />
  <path
     id="path29"
     d="  M 215.34357,223.69518   L 215.34357,238.28052   L 143.7755,238.28052   L 143.7755,223.69518   z "
     style="fill:#ffffff;fill-rule:evenodd;fill-opacity:1;stroke:none;" />
  <path
     id="path31"
     d="  M 153.64558,182.69638   L 153.64558,190.00903   L 159.71948,190.00903   L 159.71948,176.58253   C 158.92028,177.14197 153.64558,181.93715 153.64558,182.69638   z "
     style="fill:#ffffff;fill-rule:evenodd;fill-opacity:1;stroke:none;" />
  <path
     id="path33"
     d="  M 167.27189,169.15   L 167.27189,169.15   L 167.07209,190.00903   L 174.38474,190.00903   L 174.34478,162.19699   z "
     style="fill:#ffffff;fill-rule:evenodd;fill-opacity:1;stroke:none;" />
  <path
     id="path35"
     d="  M 182.93614,190.00903   L 190.24879,190.00903   L 190.24879,169.58956   C 190.24879,168.83032 183.81526,162.83634 182.93614,162.23695   z "
     style="fill:#ffffff;fill-rule:evenodd;fill-opacity:1;stroke:none;" />
  <path
     id="path37"
     d="  M 197.6014,190.00903   L 203.71526,190.00903   L 203.71526,183.29578   C 203.71526,182.13695 203.59538,183.21586 203.95502,182.45662   L 197.6014,176.58253   z "
     style="fill:#ffffff;fill-rule:evenodd;fill-opacity:1;stroke:none;" />
  <path
     id="path39"
     d="  M 178.58052,222.7761   L 178.58052,222.7761   L 211.62731,190.92811   L 145.65361,190.96807   z "
     style="fill:#ffffff;fill-rule:evenodd;fill-opacity:1;stroke:none;" />
  <path
     id="path41"
     d="  M 145.65361,190.96807   L 211.62731,190.92811   L 178.58052,222.7761   z  M 182.93614,162.23695   C 183.81526,162.83634 190.24879,168.83032 190.24879,169.58956   L 190.24879,190.00903   L 182.93614,190.00903   z  M 174.34478,162.19699   L 174.38474,190.00903   L 167.07209,190.00903   L 167.27189,169.15   L 174.34478,162.19699   z  M 153.64558,182.69638   C 153.64558,181.93715 158.92028,177.14197 159.71948,176.58253   L 159.71948,190.00903   L 153.64558,190.00903   z  M 197.6014,176.58253   L 203.95502,182.45662   C 203.59538,183.21586 203.71526,182.13695 203.71526,183.29578   L 203.71526,190.00903   L 197.6014,190.00903   z  M 213.74518,190.60843   L 178.7004,156.40281   L 143.73554,190.52851   L 178.7004,224.57429   z "
     style="fill:#000000;fill-rule:evenodd;fill-opacity:1;stroke:none;" />
  <path
     id="path43"
     d="  M 229.56927,223.73514   L 225.21365,222.3765  "
     style="fill:none;stroke:#000000;stroke-width:0.95903611px;stroke-linecap:butt;stroke-linejoin:miter;stroke-miterlimit:10;stroke-dasharray:none;stroke-opacity:1;" />
</svg>
