<?xml version="1.0" encoding="UTF-8" standalone="no"?>
<svg
   xmlns:dc="http://purl.org/dc/elements/1.1/"
   xmlns:cc="http://creativecommons.org/ns#"
   xmlns:rdf="http://www.w3.org/1999/02/22-rdf-syntax-ns#"
   xmlns:svg="http://www.w3.org/2000/svg"
   xmlns="http://www.w3.org/2000/svg"
   id="svg21"
   height="89.669998mm"
   width="120.11mm"
   version="1.0">
  <metadata
     id="metadata25">
    <rdf:RDF>
      <cc:Work
         rdf:about="">
        <dc:format>image/svg+xml</dc:format>
        <dc:type
           rdf:resource="http://purl.org/dc/dcmitype/StillImage" />
      </cc:Work>
    </rdf:RDF>
  </metadata>
  <defs
     id="defs3">
    <pattern
       y="0"
       x="0"
       height="6"
       width="6"
       patternUnits="userSpaceOnUse"
       id="EMFhbasepattern" />
  </defs>
  <path
     id="path5"
     d="  M 54.345381,54.345381   L 54.345381,284.51405   L 399.59839,284.51405   L 399.59839,54.345381   L 54.345381,54.345381   z "
     style="fill:#80e0ff;fill-rule:evenodd;fill-opacity:1;stroke:none;" />
  <path
     id="path7"
     d="  M 54.345381,54.345381   L 399.59839,54.345381   L 399.59839,284.51405   L 54.345381,284.51405   z "
     style="fill:none;stroke:#000000;stroke-width:9.5903616px;stroke-linecap:butt;stroke-linejoin:miter;stroke-miterlimit:10;stroke-dasharray:none;stroke-opacity:1;" />
  <path
     id="path9"
     d="  M 196.32269,123.95542   L 202.91606,135.38393   C 209.98895,131.66767 214.54437,127.59177 225.77309,127.59177   L 226.97188,127.59177   C 240.83795,127.59177 243.55522,133.78554 250.14859,135.22409   L 256.46225,123.95542   C 233.80502,112.00743 218.97992,111.96747 196.32269,123.95542   z "
     style="fill:#000000;fill-rule:evenodd;fill-opacity:1;stroke:none;" />
  <path
     id="path11"
     d="  M 234.20462,69.849798   C 234.20462,71.368272 244.15461,74.804818 246.23253,75.843774   C 249.22951,77.362248 254.58413,81.67791 256.46225,84.2753   C 261.53714,91.188352 266.69196,98.780721 266.69196,110.72871   C 266.69196,130.26907 248.82992,149.8494 229.36947,149.8494   L 229.36947,157.04217   C 234.92389,157.52168 239.99879,165.07409 237.2016,170.86827   C 238.72008,171.22791 243.15562,173.90522 243.23554,173.90522   C 244.95381,173.90522 255.06365,157.04217 277.48112,157.04217   L 278.12048,157.04217   C 288.82971,157.04217 299.65883,163.19598 304.73373,168.91024   C 308.72971,173.38574 317.401,187.21184 316.24216,196.16285   L 314.24417,209.22972   L 317.2012,210.58835   C 317.36104,208.43052 319.15923,205.03393 319.87851,201.83715   C 320.51787,198.88012 320.79759,194.64437 320.79759,191.32771   L 320.79759,183.49558   C 320.79759,163.23594 300.85763,138.54076 284.71385,134.78454   C 284.71385,122.75662 285.75281,119.51988 282.55602,108.69076   C 280.55803,101.93755 276.4022,93.346183 272.24638,88.950601   C 260.09859,76.123493 254.26445,72.087549 234.20462,67.412248   L 234.20462,69.849798   z "
     style="fill:#000000;fill-rule:evenodd;fill-opacity:1;stroke:none;" />
  <path
     id="path13"
     d="  M 168.03112,130.58875   L 168.03112,132.98634   C 168.03112,134.18514 156.16305,140.61867 154.20502,142.01727   C 150.40883,144.65462 145.85341,149.76948 142.93634,153.60562   C 136.42289,162.15703 131.34799,172.94618 131.34799,187.73132   C 131.34799,198.2008 133.74558,202.19678 135.62369,210.14879   L 138.58072,208.79016   C 138.26104,205.19377 136.74257,203.19578 136.74257,199.15984   L 136.74257,194.3247   C 136.74257,175.66345 155.68353,157.04217 175.26385,157.04217   L 179.45964,157.04217   C 185.61345,157.04217 193.68534,160.11907 197.52148,162.4767   C 202.59638,165.55361 206.03293,171.14799 210.14879,173.86526   L 215.54337,171.46767   L 215.54337,167.27189   C 215.54337,162.39678 219.53935,157.96124 223.3755,157.04217   L 223.3755,149.8494   C 205.27369,149.40984 186.69237,131.10823 186.69237,112.52691   L 186.69237,108.93052   C 186.69237,99.06044 191.76727,88.431123 196.76225,83.516063   C 199.79919,80.519075 202.6763,78.041565 206.39257,75.723894   C 208.39056,74.44518 218.54036,72.207429 218.54036,69.849798   L 218.54036,67.412248   C 202.59638,71.168473 190.48855,76.642971 181.73735,87.751806   C 171.42771,100.93855 168.03112,109.37008 168.03112,130.58875   z "
     style="fill:#000000;fill-rule:evenodd;fill-opacity:1;stroke:none;" />
  <path
     id="path15"
     d="  M 174.06506,171.46767   C 174.06506,189.20984 190.40863,211.58735 204.0749,214.74417   L 209.54939,203.95502   C 193.96506,195.72329 186.69237,184.93413 186.69237,163.0761   L 174.06506,163.0761   z "
     style="fill:#000000;fill-rule:evenodd;fill-opacity:1;stroke:none;" />
  <path
     id="path17"
     d="  M 242.59618,204.55441   L 248.63012,214.78413   C 256.42229,212.98594 267.17148,202.31666 270.88775,196.16285   C 276.28233,187.21184 279.31927,177.38172 279.31927,163.0761   L 266.09257,163.0761   C 266.37229,175.58353 265.85281,180.21887 260.05863,188.93012   C 257.1016,193.3257 255.94277,193.96506 252.38634,197.52148   C 249.86887,199.99899 243.83494,202.91606 242.59618,204.55441   z "
     style="fill:#000000;fill-rule:evenodd;fill-opacity:1;stroke:none;" />
  <path
     id="path19"
     d="  M 237.2016,196.16285   C 237.2016,187.4516 239.31947,185.09397 240.79799,178.7004   L 234.80401,175.66345   C 228.92992,180.77831 224.21466,179.4996 218.54036,175.70341   L 212.6263,178.9002   C 213.10582,185.25381 217.58132,188.21084 216.18273,199.75923   C 215.26365,207.23172 213.4255,213.66526 209.78915,218.66024   C 202.8761,228.0508 193.00602,236.44237 177.06205,236.44237   L 174.66446,236.44237   C 163.4757,236.44237 150.20903,228.6502 145.77349,222.01686   L 142.85642,223.3755   C 150.72851,235.08373 170.22891,247.27148 190.28875,247.27148   L 190.88815,247.27148   C 206.31265,247.27148 217.06184,240.87791 226.37249,234.64417   C 235.24357,240.59819 244.67409,246.67208 259.45923,246.67208   L 266.69196,246.67208   C 275.84277,246.67208 286.43212,242.75602 292.06646,238.95984   C 296.46204,236.00281 308.09036,228.09076 309.36907,223.21566   C 306.81164,222.53634 308.33012,222.01686 306.37208,222.01686   C 305.13333,222.01686 302.29618,226.57229 301.09739,227.53132   C 299.33915,228.92992 296.82168,230.20863 294.82369,231.52731   C 291.54698,233.68514 283.59498,235.84297 278.12048,235.84297   L 273.88473,235.84297   C 254.94377,235.84297 237.2016,217.3016 237.2016,197.96104   z "
     style="fill:#000000;fill-rule:evenodd;fill-opacity:1;stroke:none;" />
</svg>
