<?xml version="1.0" encoding="UTF-8" standalone="no"?>
<svg
   xmlns:dc="http://purl.org/dc/elements/1.1/"
   xmlns:cc="http://creativecommons.org/ns#"
   xmlns:rdf="http://www.w3.org/1999/02/22-rdf-syntax-ns#"
   xmlns:svg="http://www.w3.org/2000/svg"
   xmlns="http://www.w3.org/2000/svg"
   id="svg45"
   height="89.669998mm"
   width="120.11mm"
   version="1.0">
  <metadata
     id="metadata49">
    <rdf:RDF>
      <cc:Work
         rdf:about="">
        <dc:format>image/svg+xml</dc:format>
        <dc:type
           rdf:resource="http://purl.org/dc/dcmitype/StillImage" />
      </cc:Work>
    </rdf:RDF>
  </metadata>
  <defs
     id="defs3">
    <pattern
       y="0"
       x="0"
       height="6"
       width="6"
       patternUnits="userSpaceOnUse"
       id="EMFhbasepattern" />
  </defs>
  <path
     id="path5"
     d="  M 179.02008,15.983936   L 179.02008,54.345381   L 274.92369,54.345381   L 274.92369,15.983936   L 179.02008,15.983936   z "
     style="fill:#000000;fill-rule:evenodd;fill-opacity:1;stroke:none;" />
  <path
     id="path7"
     d="  M 54.345381,54.345381   L 54.345381,284.51405   L 399.59839,284.51405   L 399.59839,54.345381   L 54.345381,54.345381   z "
     style="fill:#80e0ff;fill-rule:evenodd;fill-opacity:1;stroke:none;" />
  <path
     id="path9"
     d="  M 54.345381,54.345381   L 399.59839,54.345381   L 399.59839,284.51405   L 54.345381,284.51405   z "
     style="fill:none;stroke:#000000;stroke-width:9.5903616px;stroke-linecap:butt;stroke-linejoin:miter;stroke-miterlimit:10;stroke-dasharray:none;stroke-opacity:1;" />
  <path
     id="path11"
     d="  M 184.89417,107.17229   L 184.89417,71.488152   L 200.71827,71.488152   C 203.8751,71.488152 206.31265,71.80783 207.951,72.447188   C 209.62931,73.086545 210.94799,74.205421 211.94698,75.843774   C 212.90602,77.482127 213.4255,79.28032 213.4255,81.238352   C 213.4255,83.755822 212.58634,85.913653 210.94799,87.631926   C 209.30964,89.3502 206.79217,90.469075 203.35562,90.948593   C 204.59437,91.547991 205.55341,92.147388 206.19277,92.706826   C 207.59136,93.985541 208.91004,95.583934 210.10883,97.462047   L 216.34257,107.17229   L 210.38855,107.17229   L 205.67329,99.739758   C 204.2747,97.621886 203.15582,95.983533 202.2767,94.824697   C 201.35763,93.705822 200.55843,92.906625 199.87911,92.467067   C 199.15984,91.987549 198.44056,91.66787 197.72128,91.508031   C 197.16184,91.388151 196.28273,91.348191 195.08393,91.348191   L 189.60944,91.348191   L 189.60944,107.17229   z  M 189.60944,87.232328   L 199.75923,87.232328   C 201.91707,87.232328 203.59538,87.032529 204.83413,86.553011   C 206.03293,86.113453 206.95201,85.394175 207.59136,84.435139   C 208.23072,83.436143 208.5504,82.397188 208.5504,81.238352   C 208.5504,79.520079 207.951,78.161445 206.71225,77.042569   C 205.47349,75.963654 203.55542,75.444176 200.91807,75.444176   L 189.60944,75.444176   z  M 220.89799,107.17229   L 220.89799,71.488152   L 246.71204,71.488152   L 246.71204,75.683935   L 225.65321,75.683935   L 225.65321,86.63293   L 245.39337,86.63293   L 245.39337,90.828714   L 225.65321,90.828714   L 225.65321,102.9765   L 247.5512,102.9765   L 247.5512,107.17229   z  M 253.90482,107.17229   L 253.90482,71.488152   L 258.62008,71.488152   L 258.62008,102.9765   L 276.20241,102.9765   L 276.20241,107.17229   z "
     style="fill:#000000;fill-rule:evenodd;fill-opacity:1;stroke:none;" />
  <path
     id="path13"
     d="  M 186.53253,200.59839   C 182.61646,201.55743 157.44176,198.2008 156.00321,200.59839   C 152.64658,206.23273 168.11104,210.02891 167.51164,216.58233   C 166.95221,223.09578 141.85743,221.37751 141.29799,224.89397   C 139.65964,235.68313 193.1259,242.35642 198.84016,244.0747   C 209.42952,247.23152 212.74618,256.86184 224.41445,260.05863   C 236.92188,263.45522 254.0247,247.99076 268.53012,249.18955   C 271.64698,249.42931 291.34718,255.98273 294.74377,253.0257   C 307.73072,241.75702 272.96566,232.9259 268.53012,226.81204   C 262.3763,218.26064 302.21626,217.18172 264.45421,209.3496   z "
     style="fill:#ffffff;fill-rule:evenodd;fill-opacity:1;stroke:none;" />
  <path
     id="path15"
     d="  M 186.53253,200.59839   C 182.61646,201.55743 157.44176,198.2008 156.00321,200.59839   C 152.64658,206.23273 168.11104,210.02891 167.51164,216.58233   C 166.95221,223.09578 141.85743,221.37751 141.29799,224.89397   C 139.65964,235.68313 193.1259,242.35642 198.84016,244.0747   C 209.42952,247.23152 212.74618,256.86184 224.41445,260.05863   C 236.92188,263.45522 254.0247,247.99076 268.53012,249.18955   C 271.64698,249.42931 291.34718,255.98273 294.74377,253.0257   C 307.73072,241.75702 272.96566,232.9259 268.53012,226.81204   C 262.3763,218.26064 302.21626,217.18172 264.45421,209.3496  "
     style="fill:none;stroke:#000000;stroke-width:3.8361444px;stroke-linecap:butt;stroke-linejoin:miter;stroke-miterlimit:10;stroke-dasharray:none;stroke-opacity:1;" />
  <path
     id="path17"
     d="  M 262.69598,125.87349   L 262.69598,226.57229   L 187.89116,226.57229   L 187.89116,125.87349   z "
     style="fill:#ffffff;fill-rule:evenodd;fill-opacity:1;stroke:none;" />
  <path
     id="path19"
     d="  M 262.69598,125.87349   L 262.69598,226.57229   L 187.89116,226.57229   L 187.89116,125.87349   z "
     style="fill:none;stroke:#000000;stroke-width:2.8771083px;stroke-linecap:butt;stroke-linejoin:miter;stroke-miterlimit:10;stroke-dasharray:none;stroke-opacity:1;" />
  <path
     id="path21"
     d="  M 225.29357,135.46385   C 204.67429,135.46385 187.89116,131.18815 187.89116,125.87349   C 187.89116,120.59879 204.67429,116.28313 225.29357,116.28313   C 245.95281,116.28313 262.69598,120.59879 262.69598,125.87349   C 262.69598,131.18815 245.95281,135.46385 225.29357,135.46385   z "
     style="fill:#ffffff;fill-rule:evenodd;fill-opacity:1;stroke:none;" />
  <path
     id="path23"
     d="  M 225.29357,135.46385   C 204.67429,135.46385 187.89116,131.18815 187.89116,125.87349   C 187.89116,120.59879 204.67429,116.28313 225.29357,116.28313   C 245.95281,116.28313 262.69598,120.59879 262.69598,125.87349   C 262.69598,131.18815 245.95281,135.46385 225.29357,135.46385  "
     style="fill:none;stroke:#000000;stroke-width:2.8771083px;stroke-linecap:butt;stroke-linejoin:miter;stroke-miterlimit:10;stroke-dasharray:none;stroke-opacity:1;" />
  <path
     id="path25"
     d="  M 225.77309,236.16265   C 205.15381,236.16265 188.37068,231.88694 188.37068,226.57229   C 188.37068,221.29759 205.15381,216.98192 225.77309,216.98192   C 246.43233,216.98192 263.1755,221.29759 263.1755,226.57229   C 263.1755,231.88694 246.43233,236.16265 225.77309,236.16265   z "
     style="fill:#ffffff;fill-rule:evenodd;fill-opacity:1;stroke:none;" />
  <path
     id="path27"
     d="  M 225.77309,236.16265   C 205.15381,236.16265 188.37068,231.88694 188.37068,226.57229   C 188.37068,221.29759 205.15381,216.98192 225.77309,216.98192   C 246.43233,216.98192 263.1755,221.29759 263.1755,226.57229   C 263.1755,231.88694 246.43233,236.16265 225.77309,236.16265  "
     style="fill:none;stroke:#000000;stroke-width:2.8771083px;stroke-linecap:butt;stroke-linejoin:miter;stroke-miterlimit:10;stroke-dasharray:none;stroke-opacity:1;" />
  <path
     id="path29"
     d="  M 261.37731,212.18674   L 261.37731,226.77209   L 189.80923,226.77209   L 189.80923,212.18674   z "
     style="fill:#ffffff;fill-rule:evenodd;fill-opacity:1;stroke:none;" />
  <path
     id="path31"
     d="  M 199.67931,171.18795   L 199.67931,178.5006   L 205.75321,178.5006   L 205.75321,165.07409   C 204.95401,165.63353 199.67931,170.42871 199.67931,171.18795   z "
     style="fill:#ffffff;fill-rule:evenodd;fill-opacity:1;stroke:none;" />
  <path
     id="path33"
     d="  M 213.30562,157.64156   L 213.30562,157.64156   L 213.10582,178.5006   L 220.41847,178.5006   L 220.37851,150.68855   z "
     style="fill:#ffffff;fill-rule:evenodd;fill-opacity:1;stroke:none;" />
  <path
     id="path35"
     d="  M 228.96988,178.5006   L 236.28253,178.5006   L 236.28253,158.08112   C 236.28253,157.32189 229.84899,151.32791 228.96988,150.72851   z "
     style="fill:#ffffff;fill-rule:evenodd;fill-opacity:1;stroke:none;" />
  <path
     id="path37"
     d="  M 243.63514,178.5006   L 249.74899,178.5006   L 249.74899,171.78735   C 249.74899,170.62851 249.62911,171.70743 249.98875,170.94819   L 243.63514,165.07409   z "
     style="fill:#ffffff;fill-rule:evenodd;fill-opacity:1;stroke:none;" />
  <path
     id="path39"
     d="  M 224.61425,211.26767   L 224.61425,211.26767   L 257.66104,179.41968   L 191.68735,179.45964   z "
     style="fill:#ffffff;fill-rule:evenodd;fill-opacity:1;stroke:none;" />
  <path
     id="path41"
     d="  M 191.68735,179.45964   L 257.66104,179.41968   L 224.61425,211.26767   z  M 228.96988,150.72851   C 229.84899,151.32791 236.28253,157.32189 236.28253,158.08112   L 236.28253,178.5006   L 228.96988,178.5006   z  M 220.37851,150.68855   L 220.41847,178.5006   L 213.10582,178.5006   L 213.30562,157.64156   L 220.37851,150.68855   z  M 199.67931,171.18795   C 199.67931,170.42871 204.95401,165.63353 205.75321,165.07409   L 205.75321,178.5006   L 199.67931,178.5006   z  M 243.63514,165.07409   L 249.98875,170.94819   C 249.62911,171.70743 249.74899,170.62851 249.74899,171.78735   L 249.74899,178.5006   L 243.63514,178.5006   z  M 259.77891,179.1   L 224.73413,144.89438   L 189.76927,179.02008   L 224.73413,213.06586   z "
     style="fill:#000000;fill-rule:evenodd;fill-opacity:1;stroke:none;" />
  <path
     id="path43"
     d="  M 275.60301,212.2267   L 271.24739,210.86807  "
     style="fill:none;stroke:#000000;stroke-width:0.95903611px;stroke-linecap:butt;stroke-linejoin:miter;stroke-miterlimit:10;stroke-dasharray:none;stroke-opacity:1;" />
</svg>
