<?xml version="1.0" encoding="UTF-8" standalone="no"?>
<svg
   xmlns:dc="http://purl.org/dc/elements/1.1/"
   xmlns:cc="http://creativecommons.org/ns#"
   xmlns:rdf="http://www.w3.org/1999/02/22-rdf-syntax-ns#"
   xmlns:svg="http://www.w3.org/2000/svg"
   xmlns="http://www.w3.org/2000/svg"
   id="svg21"
   height="95.75mm"
   width="95.75mm"
   version="1.0">
  <metadata
     id="metadata25">
    <rdf:RDF>
      <cc:Work
         rdf:about="">
        <dc:format>image/svg+xml</dc:format>
        <dc:type
           rdf:resource="http://purl.org/dc/dcmitype/StillImage" />
      </cc:Work>
    </rdf:RDF>
  </metadata>
  <defs
     id="defs3">
    <pattern
       y="0"
       x="0"
       height="6"
       width="6"
       patternUnits="userSpaceOnUse"
       id="EMFhbasepattern" />
  </defs>
  <path
     id="path5"
     d="  M 54.345381,54.345381   L 54.345381,307.53092   L 307.53092,307.53092   L 307.53092,54.345381   L 54.345381,54.345381   z "
     style="fill:#aaffaa;fill-rule:evenodd;fill-opacity:1;stroke:none;" />
  <path
     id="path7"
     d="  M 54.345381,54.345381   L 307.53092,54.345381   L 307.53092,307.53092   L 54.345381,307.53092   z "
     style="fill:none;stroke:#000000;stroke-width:9.5903616px;stroke-linecap:butt;stroke-linejoin:miter;stroke-miterlimit:10;stroke-dasharray:none;stroke-opacity:1;" />
  <path
     id="path9"
     d="  M 150.28895,135.46385   L 156.88233,146.89237   C 163.95522,143.1761 168.51064,139.1002 179.73935,139.1002   L 180.93815,139.1002   C 194.80421,139.1002 197.52148,145.29397 204.11486,146.73253   L 210.42851,135.46385   C 187.77128,123.51586 172.94618,123.4759 150.28895,135.46385   z "
     style="fill:#000000;fill-rule:evenodd;fill-opacity:1;stroke:none;" />
  <path
     id="path11"
     d="  M 188.17088,81.358232   C 188.17088,82.876706 198.12088,86.313252 200.19879,87.352208   C 203.19578,88.870681 208.5504,93.186344 210.42851,95.783734   C 215.50341,102.69679 220.65823,110.28916 220.65823,122.23715   C 220.65823,141.77751 202.79618,161.35783 183.33574,161.35783   L 183.33574,168.5506   C 188.89016,169.03012 193.96506,176.58253 191.16787,182.3767   C 192.68634,182.73634 197.12188,185.41365 197.2018,185.41365   C 198.92008,185.41365 209.02992,168.5506 231.44739,168.5506   L 232.08674,168.5506   C 242.79598,168.5506 253.6251,174.70442 258.7,180.41867   C 262.69598,184.89417 271.36727,198.72028 270.20843,207.67128   L 268.21044,220.73815   L 271.16747,222.09678   C 271.32731,219.93895 273.1255,216.54237 273.84478,213.34558   C 274.48413,210.38855 274.76385,206.15281 274.76385,202.83614   L 274.76385,195.00401   C 274.76385,174.74437 254.82389,150.04919 238.68012,146.29297   C 238.68012,134.26506 239.71907,131.02831 236.52229,120.1992   C 234.52429,113.44598 230.36847,104.85462 226.21265,100.45903   C 214.06486,87.631926 208.23072,83.595983 188.17088,78.920682   L 188.17088,81.358232   z "
     style="fill:#000000;fill-rule:evenodd;fill-opacity:1;stroke:none;" />
  <path
     id="path13"
     d="  M 121.99739,142.09719   L 121.99739,144.49478   C 121.99739,145.69357 110.12932,152.12711 108.17128,153.5257   C 104.3751,156.16305 99.819677,161.27791 96.902609,165.11405   C 90.389155,173.66546 85.314256,184.45462 85.314256,199.23976   C 85.314256,209.70923 87.711846,213.70522 89.589959,221.65723   L 92.546987,220.29859   C 92.227308,216.70221 90.708834,214.70421 90.708834,210.66827   L 90.708834,205.83313   C 90.708834,187.17188 109.6498,168.5506 129.23012,168.5506   L 133.4259,168.5506   C 139.57972,168.5506 147.6516,171.62751 151.48775,173.98514   C 156.56265,177.06205 159.99919,182.65642 164.11506,185.37369   L 169.50964,182.9761   L 169.50964,178.78032   C 169.50964,173.90522 173.50562,169.46968 177.34176,168.5506   L 177.34176,161.35783   C 159.23996,160.91827 140.65863,142.61666 140.65863,124.03534   L 140.65863,120.43895   C 140.65863,110.56887 145.73353,99.939557 150.72851,95.024497   C 153.76546,92.027509 156.64257,89.549999 160.35883,87.232328   C 162.35682,85.953613 172.50662,83.715862 172.50662,81.358232   L 172.50662,78.920682   C 156.56265,82.676906 144.45482,88.151404 135.70361,99.26024   C 125.39397,112.44699 121.99739,120.87851 121.99739,142.09719   z "
     style="fill:#000000;fill-rule:evenodd;fill-opacity:1;stroke:none;" />
  <path
     id="path15"
     d="  M 128.03132,182.9761   C 128.03132,200.71827 144.3749,223.09578 158.04116,226.25261   L 163.51566,215.46345   C 147.93132,207.23172 140.65863,196.44257 140.65863,174.58454   L 128.03132,174.58454   z "
     style="fill:#000000;fill-rule:evenodd;fill-opacity:1;stroke:none;" />
  <path
     id="path17"
     d="  M 196.56245,216.06285   L 202.59638,226.29257   C 210.38855,224.49437 221.13775,213.8251 224.85401,207.67128   C 230.24859,198.72028 233.28554,188.89016 233.28554,174.58454   L 220.05883,174.58454   C 220.33855,187.09197 219.81907,191.72731 214.0249,200.43855   C 211.06787,204.83413 209.90903,205.47349 206.35261,209.02992   C 203.83514,211.50743 197.8012,214.42449 196.56245,216.06285   z "
     style="fill:#000000;fill-rule:evenodd;fill-opacity:1;stroke:none;" />
  <path
     id="path19"
     d="  M 191.16787,207.67128   C 191.16787,198.96004 193.28574,196.60241 194.76425,190.20883   L 188.77028,187.17188   C 182.89618,192.28674 178.18092,191.00803 172.50662,187.21184   L 166.59257,190.40863   C 167.07209,196.76225 171.54759,199.71927 170.14899,211.26767   C 169.22992,218.74016 167.39176,225.17369 163.75542,230.16867   C 156.84237,239.55923 146.97229,247.9508 131.02831,247.9508   L 128.63072,247.9508   C 117.44197,247.9508 104.1753,240.15863 99.739758,233.5253   L 96.822689,234.88393   C 104.69478,246.59217 124.19518,258.77992 144.25502,258.77992   L 144.85442,258.77992   C 160.27891,258.77992 171.02811,252.38634 180.33875,246.15261   C 189.20984,252.10662 198.64036,258.18052 213.4255,258.18052   L 220.65823,258.18052   C 229.80903,258.18052 240.39839,254.26445 246.03273,250.46827   C 250.42831,247.51124 262.05662,239.59919 263.33534,234.72409   C 260.77791,234.04478 262.29638,233.5253 260.33835,233.5253   C 259.09959,233.5253 256.26245,238.08072 255.06365,239.03976   C 253.30542,240.43835 250.78795,241.71706 248.78996,243.03574   C 245.51325,245.19357 237.56124,247.3514 232.08674,247.3514   L 227.851,247.3514   C 208.91004,247.3514 191.16787,228.81004 191.16787,209.46947   z "
     style="fill:#000000;fill-rule:evenodd;fill-opacity:1;stroke:none;" />
</svg>
