<?xml version="1.0" encoding="UTF-8" standalone="no"?>
<svg
   xmlns:dc="http://purl.org/dc/elements/1.1/"
   xmlns:cc="http://creativecommons.org/ns#"
   xmlns:rdf="http://www.w3.org/1999/02/22-rdf-syntax-ns#"
   xmlns:svg="http://www.w3.org/2000/svg"
   xmlns="http://www.w3.org/2000/svg"
   id="svg45"
   height="130.27mm"
   width="130.27mm"
   version="1.0">
  <metadata
     id="metadata49">
    <rdf:RDF>
      <cc:Work
         rdf:about="">
        <dc:format>image/svg+xml</dc:format>
        <dc:type
           rdf:resource="http://purl.org/dc/dcmitype/StillImage" />
      </cc:Work>
    </rdf:RDF>
  </metadata>
  <defs
     id="defs3">
    <pattern
       y="0"
       x="0"
       height="6"
       width="6"
       patternUnits="userSpaceOnUse"
       id="EMFhbasepattern" />
  </defs>
  <path
     id="path5"
     d="  M 198.2008,63.935742   L 198.2008,111.88755   L 294.10441,111.88755   L 294.10441,63.935742   L 198.2008,63.935742   z "
     style="fill:#000000;fill-rule:evenodd;fill-opacity:1;stroke:none;" />
  <path
     id="path7"
     d="  M 164.63454,327.67068   C 164.63454,437.95983 327.67068,437.95983 327.67068,327.67068   C 437.95983,327.67068 437.95983,164.63454 327.67068,164.63454   C 327.67068,54.345381 164.63454,54.345381 164.63454,164.63454   C 54.345381,164.63454 54.345381,327.67068 164.63454,327.67068   z "
     style="fill:#ffff80;fill-rule:evenodd;fill-opacity:1;stroke:none;" />
  <path
     id="path9"
     d="  M 164.63454,327.67068   C 164.63454,437.95983 327.67068,437.95983 327.67068,327.67068   C 437.95983,327.67068 437.95983,164.63454 327.67068,164.63454   C 327.67068,54.345381 164.63454,54.345381 164.63454,164.63454   C 54.345381,164.63454 54.345381,327.67068 164.63454,327.67068  "
     style="fill:none;stroke:#000000;stroke-width:9.5903616px;stroke-linecap:butt;stroke-linejoin:miter;stroke-miterlimit:10;stroke-dasharray:none;stroke-opacity:1;" />
  <path
     id="path11"
     d="  M 204.0749,183.89518   L 204.0749,148.21104   L 219.89899,148.21104   C 223.05582,148.21104 225.49337,148.53072 227.13172,149.17008   C 228.81004,149.80944 230.12871,150.92831 231.12771,152.56666   C 232.08674,154.20502 232.60622,156.00321 232.60622,157.96124   C 232.60622,160.47871 231.76706,162.63654 230.12871,164.35482   C 228.49036,166.07309 225.97289,167.19197 222.53634,167.67148   C 223.7751,168.27088 224.73413,168.87028 225.37349,169.42972   C 226.77209,170.70843 228.09076,172.30682 229.28955,174.18494   L 235.52329,183.89518   L 229.56927,183.89518   L 224.85401,176.46265   C 223.45542,174.34478 222.33654,172.70642 221.45743,171.54759   C 220.53835,170.42871 219.73915,169.62952 219.05984,169.18996   C 218.34056,168.71044 217.62128,168.39076 216.902,168.23092   C 216.34257,168.11104 215.46345,168.07108 214.26466,168.07108   L 208.79016,168.07108   L 208.79016,183.89518   z  M 208.79016,163.95522   L 218.93996,163.95522   C 221.09779,163.95522 222.7761,163.75542 224.01486,163.2759   C 225.21365,162.83634 226.13273,162.11707 226.77209,161.15803   C 227.41144,160.15903 227.73112,159.12008 227.73112,157.96124   C 227.73112,156.24297 227.13172,154.88434 225.89297,153.76546   C 224.65421,152.68654 222.73614,152.16707 220.09879,152.16707   L 208.79016,152.16707   z  M 240.07871,183.89518   L 240.07871,148.21104   L 265.89277,148.21104   L 265.89277,152.40683   L 244.83393,152.40683   L 244.83393,163.35582   L 264.57409,163.35582   L 264.57409,167.5516   L 244.83393,167.5516   L 244.83393,179.69939   L 266.73192,179.69939   L 266.73192,183.89518   z  M 273.08554,183.89518   L 273.08554,148.21104   L 277.8008,148.21104   L 277.8008,179.69939   L 295.38313,179.69939   L 295.38313,183.89518   z "
     style="fill:#000000;fill-rule:evenodd;fill-opacity:1;stroke:none;" />
  <path
     id="path13"
     d="  M 205.71325,277.32128   C 201.79719,278.28032 176.62249,274.92369 175.18393,277.32128   C 171.82731,282.95562 187.29176,286.7518 186.69237,293.30522   C 186.13293,299.81867 161.03815,298.1004 160.47871,301.61686   C 158.84036,312.40602 212.30662,319.07931 218.02088,320.79759   C 228.61024,323.95441 231.9269,333.58473 243.59518,336.78152   C 256.10261,340.17811 273.20542,324.71365 287.71084,325.91245   C 290.82771,326.1522 310.52791,332.70562 313.92449,329.74859   C 326.91144,318.47992 292.14638,309.64879 287.71084,303.53494   C 281.55702,294.98353 321.39698,293.90461 283.63494,286.07249   z "
     style="fill:#ffffff;fill-rule:evenodd;fill-opacity:1;stroke:none;" />
  <path
     id="path15"
     d="  M 205.71325,277.32128   C 201.79719,278.28032 176.62249,274.92369 175.18393,277.32128   C 171.82731,282.95562 187.29176,286.7518 186.69237,293.30522   C 186.13293,299.81867 161.03815,298.1004 160.47871,301.61686   C 158.84036,312.40602 212.30662,319.07931 218.02088,320.79759   C 228.61024,323.95441 231.9269,333.58473 243.59518,336.78152   C 256.10261,340.17811 273.20542,324.71365 287.71084,325.91245   C 290.82771,326.1522 310.52791,332.70562 313.92449,329.74859   C 326.91144,318.47992 292.14638,309.64879 287.71084,303.53494   C 281.55702,294.98353 321.39698,293.90461 283.63494,286.07249  "
     style="fill:none;stroke:#000000;stroke-width:3.8361444px;stroke-linecap:butt;stroke-linejoin:miter;stroke-miterlimit:10;stroke-dasharray:none;stroke-opacity:1;" />
  <path
     id="path17"
     d="  M 281.8767,202.59638   L 281.8767,303.29518   L 207.07188,303.29518   L 207.07188,202.59638   z "
     style="fill:#ffffff;fill-rule:evenodd;fill-opacity:1;stroke:none;" />
  <path
     id="path19"
     d="  M 281.8767,202.59638   L 281.8767,303.29518   L 207.07188,303.29518   L 207.07188,202.59638   z "
     style="fill:none;stroke:#000000;stroke-width:2.8771083px;stroke-linecap:butt;stroke-linejoin:miter;stroke-miterlimit:10;stroke-dasharray:none;stroke-opacity:1;" />
  <path
     id="path21"
     d="  M 244.47429,212.18674   C 223.85502,212.18674 207.07188,207.91104 207.07188,202.59638   C 207.07188,197.32168 223.85502,193.00602 244.47429,193.00602   C 265.13353,193.00602 281.8767,197.32168 281.8767,202.59638   C 281.8767,207.91104 265.13353,212.18674 244.47429,212.18674   z "
     style="fill:#ffffff;fill-rule:evenodd;fill-opacity:1;stroke:none;" />
  <path
     id="path23"
     d="  M 244.47429,212.18674   C 223.85502,212.18674 207.07188,207.91104 207.07188,202.59638   C 207.07188,197.32168 223.85502,193.00602 244.47429,193.00602   C 265.13353,193.00602 281.8767,197.32168 281.8767,202.59638   C 281.8767,207.91104 265.13353,212.18674 244.47429,212.18674  "
     style="fill:none;stroke:#000000;stroke-width:2.8771083px;stroke-linecap:butt;stroke-linejoin:miter;stroke-miterlimit:10;stroke-dasharray:none;stroke-opacity:1;" />
  <path
     id="path25"
     d="  M 244.95381,312.88554   C 224.33453,312.88554 207.5514,308.60983 207.5514,303.29518   C 207.5514,298.02048 224.33453,293.70482 244.95381,293.70482   C 265.61305,293.70482 282.35622,298.02048 282.35622,303.29518   C 282.35622,308.60983 265.61305,312.88554 244.95381,312.88554   z "
     style="fill:#ffffff;fill-rule:evenodd;fill-opacity:1;stroke:none;" />
  <path
     id="path27"
     d="  M 244.95381,312.88554   C 224.33453,312.88554 207.5514,308.60983 207.5514,303.29518   C 207.5514,298.02048 224.33453,293.70482 244.95381,293.70482   C 265.61305,293.70482 282.35622,298.02048 282.35622,303.29518   C 282.35622,308.60983 265.61305,312.88554 244.95381,312.88554  "
     style="fill:none;stroke:#000000;stroke-width:2.8771083px;stroke-linecap:butt;stroke-linejoin:miter;stroke-miterlimit:10;stroke-dasharray:none;stroke-opacity:1;" />
  <path
     id="path29"
     d="  M 280.55803,288.90963   L 280.55803,303.49498   L 208.98996,303.49498   L 208.98996,288.90963   z "
     style="fill:#ffffff;fill-rule:evenodd;fill-opacity:1;stroke:none;" />
  <path
     id="path31"
     d="  M 218.86004,247.91084   L 218.86004,255.22349   L 224.93393,255.22349   L 224.93393,241.79698   C 224.13474,242.35642 218.86004,247.1516 218.86004,247.91084   z "
     style="fill:#ffffff;fill-rule:evenodd;fill-opacity:1;stroke:none;" />
  <path
     id="path33"
     d="  M 232.48634,234.36445   L 232.48634,234.36445   L 232.28654,255.22349   L 239.59919,255.22349   L 239.55923,227.41144   z "
     style="fill:#ffffff;fill-rule:evenodd;fill-opacity:1;stroke:none;" />
  <path
     id="path35"
     d="  M 248.1506,255.22349   L 255.46325,255.22349   L 255.46325,234.80401   C 255.46325,234.04478 249.02972,228.0508 248.1506,227.4514   z "
     style="fill:#ffffff;fill-rule:evenodd;fill-opacity:1;stroke:none;" />
  <path
     id="path37"
     d="  M 262.81586,255.22349   L 268.92971,255.22349   L 268.92971,248.51024   C 268.92971,247.3514 268.80984,248.43032 269.16947,247.67108   L 262.81586,241.79698   z "
     style="fill:#ffffff;fill-rule:evenodd;fill-opacity:1;stroke:none;" />
  <path
     id="path39"
     d="  M 243.79498,287.99056   L 243.79498,287.99056   L 276.84176,256.14257   L 210.86807,256.18253   z "
     style="fill:#ffffff;fill-rule:evenodd;fill-opacity:1;stroke:none;" />
  <path
     id="path41"
     d="  M 210.86807,256.18253   L 276.84176,256.14257   L 243.79498,287.99056   z  M 248.1506,227.4514   C 249.02972,228.0508 255.46325,234.04478 255.46325,234.80401   L 255.46325,255.22349   L 248.1506,255.22349   z  M 239.55923,227.41144   L 239.59919,255.22349   L 232.28654,255.22349   L 232.48634,234.36445   L 239.55923,227.41144   z  M 218.86004,247.91084   C 218.86004,247.1516 224.13474,242.35642 224.93393,241.79698   L 224.93393,255.22349   L 218.86004,255.22349   z  M 262.81586,241.79698   L 269.16947,247.67108   C 268.80984,248.43032 268.92971,247.3514 268.92971,248.51024   L 268.92971,255.22349   L 262.81586,255.22349   z  M 278.95963,255.82289   L 243.91486,221.61727   L 208.95,255.74297   L 243.91486,289.78875   z "
     style="fill:#000000;fill-rule:evenodd;fill-opacity:1;stroke:none;" />
  <path
     id="path43"
     d="  M 294.78373,288.94959   L 290.42811,287.59096  "
     style="fill:none;stroke:#000000;stroke-width:0.95903611px;stroke-linecap:butt;stroke-linejoin:miter;stroke-miterlimit:10;stroke-dasharray:none;stroke-opacity:1;" />
</svg>
