<?xml version="1.0" encoding="UTF-8" standalone="no"?>
<svg
   xmlns:dc="http://purl.org/dc/elements/1.1/"
   xmlns:cc="http://creativecommons.org/ns#"
   xmlns:rdf="http://www.w3.org/1999/02/22-rdf-syntax-ns#"
   xmlns:svg="http://www.w3.org/2000/svg"
   xmlns="http://www.w3.org/2000/svg"
   id="svg71"
   height="95.75mm"
   width="95.75mm"
   version="1.0">
  <metadata
     id="metadata75">
    <rdf:RDF>
      <cc:Work
         rdf:about="">
        <dc:format>image/svg+xml</dc:format>
        <dc:type
           rdf:resource="http://purl.org/dc/dcmitype/StillImage" />
      </cc:Work>
    </rdf:RDF>
  </metadata>
  <defs
     id="defs3">
    <pattern
       y="0"
       x="0"
       height="6"
       width="6"
       patternUnits="userSpaceOnUse"
       id="EMFhbasepattern" />
  </defs>
  <path
     id="path5"
     d="  M 54.345381,54.345381   L 54.345381,307.53092   L 307.53092,307.53092   L 307.53092,54.345381   L 54.345381,54.345381   z "
     style="fill:#aaffaa;fill-rule:evenodd;fill-opacity:1;stroke:none;" />
  <path
     id="path7"
     d="  M 54.345381,54.345381   L 307.53092,54.345381   L 307.53092,307.53092   L 54.345381,307.53092   z "
     style="fill:none;stroke:#000000;stroke-width:9.5903616px;stroke-linecap:butt;stroke-linejoin:miter;stroke-miterlimit:10;stroke-dasharray:none;stroke-opacity:1;" />
  <path
     id="path9"
     d="  M 234.1247,150.76847   C 228.69016,174.78433 216.34257,192.48654 206.59237,190.28875   C 196.84217,188.09096 193.3257,166.79237 198.8002,142.73654   C 204.23474,118.68072 216.54237,100.97851 226.33253,103.21626   C 236.08273,105.41405 239.59919,126.71265 234.1247,150.76847   z "
     style="fill:#000000;fill-rule:evenodd;fill-opacity:1;stroke:none;" />
  <path
     id="path11"
     d="  M 234.1247,150.76847   C 228.69016,174.78433 216.34257,192.48654 206.59237,190.28875   C 196.84217,188.09096 193.3257,166.79237 198.8002,142.73654   C 204.23474,118.68072 216.54237,100.97851 226.33253,103.21626   C 236.08273,105.41405 239.59919,126.71265 234.1247,150.76847  "
     style="fill:none;stroke:#000000;stroke-width:0.67931724px;stroke-linecap:butt;stroke-linejoin:miter;stroke-miterlimit:10;stroke-dasharray:none;stroke-opacity:1;" />
  <path
     id="path13"
     d="  M 199.55943,133.46586   C 199.55943,148.33092 189.32972,160.31887 176.74237,160.31887   C 164.11506,160.31887 153.9253,148.33092 153.9253,133.46586   C 153.9253,118.64076 164.11506,106.61285 176.74237,106.61285   C 189.32972,106.61285 199.55943,118.64076 199.55943,133.46586   z "
     style="fill:#000000;fill-rule:evenodd;fill-opacity:1;stroke:none;" />
  <path
     id="path15"
     d="  M 199.55943,133.46586   C 199.55943,148.33092 189.32972,160.31887 176.74237,160.31887   C 164.11506,160.31887 153.9253,148.33092 153.9253,133.46586   C 153.9253,118.64076 164.11506,106.61285 176.74237,106.61285   C 189.32972,106.61285 199.55943,118.64076 199.55943,133.46586  "
     style="fill:none;stroke:#000000;stroke-width:0.67931724px;stroke-linecap:butt;stroke-linejoin:miter;stroke-miterlimit:10;stroke-dasharray:none;stroke-opacity:1;" />
  <path
     id="path17"
     d="  M 140.93835,192.80622   L 209.94899,218.38052   L 195.04397,258.54016   L 126.03333,232.96586   z "
     style="fill:#000000;fill-rule:evenodd;fill-opacity:1;stroke:none;" />
  <path
     id="path19"
     d="  M 140.93835,192.80622   L 209.94899,218.38052   L 195.04397,258.54016   L 126.03333,232.96586   z "
     style="fill:none;stroke:#000000;stroke-width:0.67931724px;stroke-linecap:butt;stroke-linejoin:miter;stroke-miterlimit:10;stroke-dasharray:none;stroke-opacity:1;" />
  <path
     id="path21"
     d="  M 196.72229,256.9018   C 194.20482,263.85482 176.34277,263.85482 156.80241,256.9018   C 137.22209,249.90883 123.39598,238.6002 125.87349,231.60723   C 128.39096,224.65421 146.25301,224.61425 165.79337,231.60723   C 185.37369,238.6002 199.1998,249.90883 196.72229,256.9018   z "
     style="fill:#ffffff;fill-rule:evenodd;fill-opacity:1;stroke:none;" />
  <path
     id="path23"
     d="  M 196.72229,256.9018   C 194.20482,263.85482 176.34277,263.85482 156.80241,256.9018   C 137.22209,249.90883 123.39598,238.6002 125.87349,231.60723   C 128.39096,224.65421 146.25301,224.61425 165.79337,231.60723   C 185.37369,238.6002 199.1998,249.90883 196.72229,256.9018  "
     style="fill:none;stroke:#ffffff;stroke-width:0.67931724px;stroke-linecap:butt;stroke-linejoin:miter;stroke-miterlimit:10;stroke-dasharray:none;stroke-opacity:1;" />
  <path
     id="path25"
     d="  M 194.00502,260.89779   C 191.52751,267.89076 173.66546,267.89076 154.08514,260.93775   C 134.54478,253.94478 120.71867,242.63614 123.19618,235.64317   C 125.67369,228.6502 143.5757,228.6502 163.11606,235.64317   C 182.69638,242.59618 196.52249,253.94478 194.00502,260.89779   z "
     style="fill:#000000;fill-rule:evenodd;fill-opacity:1;stroke:none;" />
  <path
     id="path27"
     d="  M 194.00502,260.89779   C 191.52751,267.89076 173.66546,267.89076 154.08514,260.93775   C 134.54478,253.94478 120.71867,242.63614 123.19618,235.64317   C 125.67369,228.6502 143.5757,228.6502 163.11606,235.64317   C 182.69638,242.59618 196.52249,253.94478 194.00502,260.89779  "
     style="fill:none;stroke:#000000;stroke-width:0.67931724px;stroke-linecap:butt;stroke-linejoin:miter;stroke-miterlimit:10;stroke-dasharray:none;stroke-opacity:1;" />
  <path
     id="path29"
     d="  M 172.30682,253.86486   C 171.42771,256.30241 164.19498,255.98273 156.16305,253.10562   C 148.13112,250.26847 142.33695,245.95281 143.21606,243.51526   C 144.09518,241.03775 151.28795,241.39739 159.31988,244.27449   C 167.3518,247.11164 173.18594,251.42731 172.30682,253.86486   z "
     style="fill:#ffffff;fill-rule:evenodd;fill-opacity:1;stroke:none;" />
  <path
     id="path31"
     d="  M 172.30682,253.86486   C 171.42771,256.30241 164.19498,255.98273 156.16305,253.10562   C 148.13112,250.26847 142.33695,245.95281 143.21606,243.51526   C 144.09518,241.03775 151.28795,241.39739 159.31988,244.27449   C 167.3518,247.11164 173.18594,251.42731 172.30682,253.86486  "
     style="fill:none;stroke:#000000;stroke-width:0.67931724px;stroke-linecap:butt;stroke-linejoin:miter;stroke-miterlimit:10;stroke-dasharray:none;stroke-opacity:1;" />
  <path
     id="path33"
     d="  M 158.84036,183.13594   L 153.5257,197.96104  "
     style="fill:none;stroke:#ffffff;stroke-width:2.3576305px;stroke-linecap:butt;stroke-linejoin:miter;stroke-miterlimit:10;stroke-dasharray:none;stroke-opacity:1;" />
  <path
     id="path35"
     d="  M 203.59538,200.03895   L 200.23875,210.10883  "
     style="fill:none;stroke:#ffffff;stroke-width:4.0359435px;stroke-linecap:butt;stroke-linejoin:miter;stroke-miterlimit:10;stroke-dasharray:none;stroke-opacity:1;" />
  <path
     id="path37"
     d="  M 176.02309,130.26907   L 223.65522,146.53273   L 204.99397,201.15783   L 157.36185,184.89417   z "
     style="fill:#000000;fill-rule:evenodd;fill-opacity:1;stroke:none;" />
  <path
     id="path39"
     d="  M 176.02309,130.26907   L 223.65522,146.53273   L 204.99397,201.15783   L 157.36185,184.89417   z "
     style="fill:none;stroke:#000000;stroke-width:0.67931724px;stroke-linecap:butt;stroke-linejoin:miter;stroke-miterlimit:10;stroke-dasharray:none;stroke-opacity:1;" />
  <path
     id="path41"
     d="  M 217.02188,118.04136   C 217.02188,123.99538 210.10883,128.79056 201.55743,128.79056   C 193.04598,128.79056 186.13293,123.99538 186.13293,118.04136   C 186.13293,112.12731 193.04598,107.29217 201.55743,107.29217   C 210.10883,107.29217 217.02188,112.12731 217.02188,118.04136   z "
     style="fill:#000000;fill-rule:evenodd;fill-opacity:1;stroke:none;" />
  <path
     id="path43"
     d="  M 217.02188,118.04136   C 217.02188,123.99538 210.10883,128.79056 201.55743,128.79056   C 193.04598,128.79056 186.13293,123.99538 186.13293,118.04136   C 186.13293,112.12731 193.04598,107.29217 201.55743,107.29217   C 210.10883,107.29217 217.02188,112.12731 217.02188,118.04136  "
     style="fill:none;stroke:#000000;stroke-width:0.67931724px;stroke-linecap:butt;stroke-linejoin:miter;stroke-miterlimit:10;stroke-dasharray:none;stroke-opacity:1;" />
  <path
     id="path45"
     d="  M 215.54337,138.06124   C 215.54337,147.77148 208.79016,155.64357 200.43855,155.64357   C 192.08695,155.64357 185.33373,147.77148 185.33373,138.06124   C 185.33373,128.351 192.08695,120.47891 200.43855,120.47891   C 208.79016,120.47891 215.54337,128.351 215.54337,138.06124   z "
     style="fill:#ffffff;fill-rule:evenodd;fill-opacity:1;stroke:none;" />
  <path
     id="path47"
     d="  M 215.54337,138.06124   C 215.54337,147.77148 208.79016,155.64357 200.43855,155.64357   C 192.08695,155.64357 185.33373,147.77148 185.33373,138.06124   C 185.33373,128.351 192.08695,120.47891 200.43855,120.47891   C 208.79016,120.47891 215.54337,128.351 215.54337,138.06124  "
     style="fill:none;stroke:#000000;stroke-width:0.67931724px;stroke-linecap:butt;stroke-linejoin:miter;stroke-miterlimit:10;stroke-dasharray:none;stroke-opacity:1;" />
  <path
     id="path49"
     d="  M 174.70442,132.66666   C 174.70442,141.49779 170.66847,148.6506 165.67349,148.6506   C 160.63855,148.6506 156.60261,141.49779 156.60261,132.66666   C 156.60261,123.83554 160.63855,116.68273 165.67349,116.68273   C 170.66847,116.68273 174.70442,123.83554 174.70442,132.66666   z "
     style="fill:#ffffff;fill-rule:evenodd;fill-opacity:1;stroke:none;" />
  <path
     id="path51"
     d="  M 174.70442,132.66666   C 174.70442,141.49779 170.66847,148.6506 165.67349,148.6506   C 160.63855,148.6506 156.60261,141.49779 156.60261,132.66666   C 156.60261,123.83554 160.63855,116.68273 165.67349,116.68273   C 170.66847,116.68273 174.70442,123.83554 174.70442,132.66666  "
     style="fill:none;stroke:#000000;stroke-width:0.5993976px;stroke-linecap:butt;stroke-linejoin:miter;stroke-miterlimit:10;stroke-dasharray:none;stroke-opacity:1;" />
  <path
     id="path53"
     d="  M 158.76044,149.92932   C 160.83835,156.24297 162.23695,160.79839 162.23695,167.39176   L 161.15803,176.22289   C 179.41968,189.60944 176.50261,159.83936 161.95723,149.6496   z "
     style="fill:#000000;fill-rule:evenodd;fill-opacity:1;stroke:none;" />
  <path
     id="path55"
     d="  M 158.76044,149.92932   C 160.83835,156.24297 162.23695,160.79839 162.23695,167.39176   L 161.15803,176.22289   C 179.41968,189.60944 176.50261,159.83936 161.95723,149.6496  "
     style="fill:none;stroke:#000000;stroke-width:0.67931724px;stroke-linecap:butt;stroke-linejoin:miter;stroke-miterlimit:10;stroke-dasharray:none;stroke-opacity:1;" />
  <path
     id="path57"
     d="  M 163.6755,112.84658   C 228.17068,74.125501 243.6751,120.95843 220.69819,115.64377   z "
     style="fill:#000000;fill-rule:evenodd;fill-opacity:1;stroke:none;" />
  <path
     id="path59"
     d="  M 163.6755,112.84658   C 228.17068,74.125501 243.6751,120.95843 220.69819,115.64377  "
     style="fill:none;stroke:#000000;stroke-width:0.67931724px;stroke-linecap:butt;stroke-linejoin:miter;stroke-miterlimit:10;stroke-dasharray:none;stroke-opacity:1;" />
  <path
     id="path61"
     d="  M 161.27791,113.88554   C 178.9002,93.346183 207.67128,85.274296 226.29257,110.64879   z "
     style="fill:#000000;fill-rule:evenodd;fill-opacity:1;stroke:none;" />
  <path
     id="path63"
     d="  M 161.27791,113.88554   C 178.9002,93.346183 207.67128,85.274296 226.29257,110.64879  "
     style="fill:none;stroke:#000000;stroke-width:0.67931724px;stroke-linecap:butt;stroke-linejoin:miter;stroke-miterlimit:10;stroke-dasharray:none;stroke-opacity:1;" />
  <path
     id="path65"
     d="  M 204.91405,202.2767   C 203.39558,206.79217 191.24779,206.83213 177.82128,202.31666   C 164.39478,197.8012 154.7245,190.48855 156.24297,185.97309   C 157.76144,181.45763 169.86927,181.45763 183.29578,185.93313   C 196.76225,190.44859 206.43253,197.76124 204.91405,202.2767   z "
     style="fill:#ffffff;fill-rule:evenodd;fill-opacity:1;stroke:none;" />
  <path
     id="path67"
     d="  M 210.14879,220.61827   C 207.63132,227.61124 189.76927,227.61124 170.22891,220.65823   C 150.64859,213.66526 136.82249,202.35662 139.3,195.36365   C 141.81747,188.37068 159.67952,188.37068 179.21988,195.36365   C 198.8002,202.31666 212.6263,213.66526 210.14879,220.61827   z "
     style="fill:#000000;fill-rule:evenodd;fill-opacity:1;stroke:none;" />
  <path
     id="path69"
     d="  M 210.14879,220.61827   C 207.63132,227.61124 189.76927,227.61124 170.22891,220.65823   C 150.64859,213.66526 136.82249,202.35662 139.3,195.36365   C 141.81747,188.37068 159.67952,188.37068 179.21988,195.36365   C 198.8002,202.31666 212.6263,213.66526 210.14879,220.61827  "
     style="fill:none;stroke:#000000;stroke-width:0.67931724px;stroke-linecap:butt;stroke-linejoin:miter;stroke-miterlimit:10;stroke-dasharray:none;stroke-opacity:1;" />
</svg>
