<?xml version="1.0" encoding="UTF-8" standalone="no"?>
<svg
   xmlns:dc="http://purl.org/dc/elements/1.1/"
   xmlns:cc="http://creativecommons.org/ns#"
   xmlns:rdf="http://www.w3.org/1999/02/22-rdf-syntax-ns#"
   xmlns:svg="http://www.w3.org/2000/svg"
   xmlns="http://www.w3.org/2000/svg"
   id="svg45"
   height="116.73mm"
   width="116.73mm"
   version="1.0">
  <metadata
     id="metadata49">
    <rdf:RDF>
      <cc:Work
         rdf:about="">
        <dc:format>image/svg+xml</dc:format>
        <dc:type
           rdf:resource="http://purl.org/dc/dcmitype/StillImage" />
      </cc:Work>
    </rdf:RDF>
  </metadata>
  <defs
     id="defs3">
    <pattern
       y="0"
       x="0"
       height="6"
       width="6"
       patternUnits="userSpaceOnUse"
       id="EMFhbasepattern" />
  </defs>
  <path
     id="path5"
     d="  M 172.6265,43.156626   L 172.6265,100.69879   L 268.53012,100.69879   L 268.53012,43.156626   L 172.6265,43.156626   z "
     style="fill:#000000;fill-rule:evenodd;fill-opacity:1;stroke:none;" />
  <path
     id="path7"
     d="  M 220.57831,386.49156   L 220.57831,386.49156   L 386.49156,220.57831   L 220.57831,54.665059   L 54.665059,220.57831   L 220.57831,386.49156   z "
     style="fill:#ff8080;fill-rule:evenodd;fill-opacity:1;stroke:none;" />
  <path
     id="path9"
     d="  M 220.57831,386.49156   L 220.57831,386.49156   L 386.49156,220.57831   L 220.57831,54.665059   L 54.665059,220.57831   L 220.57831,386.49156  "
     style="fill:none;stroke:#000000;stroke-width:9.5903616px;stroke-linecap:butt;stroke-linejoin:miter;stroke-miterlimit:10;stroke-dasharray:none;stroke-opacity:1;" />
  <path
     id="path11"
     d="  M 178.5006,158.32088   L 178.5006,122.63675   L 194.3247,122.63675   C 197.48152,122.63675 199.91907,122.95642 201.55743,123.59578   C 203.23574,124.23514 204.55441,125.35401 205.55341,126.99237   C 206.51245,128.63072 207.03192,130.42891 207.03192,132.38695   C 207.03192,134.90442 206.19277,137.06225 204.55441,138.78052   C 202.91606,140.49879 200.39859,141.61767 196.96205,142.09719   C 198.2008,142.69658 199.15984,143.29598 199.79919,143.85542   C 201.19779,145.13413 202.51646,146.73253 203.71526,148.61064   L 209.94899,158.32088   L 203.99498,158.32088   L 199.27972,150.88835   C 197.88112,148.77048 196.76225,147.13213 195.88313,145.97329   C 194.96405,144.85442 194.16486,144.05522 193.48554,143.61566   C 192.76626,143.13614 192.04699,142.81646 191.32771,142.65662   C 190.76827,142.53674 189.88915,142.49679 188.69036,142.49679   L 183.21586,142.49679   L 183.21586,158.32088   z  M 183.21586,138.38092   L 193.36566,138.38092   C 195.52349,138.38092 197.2018,138.18112 198.44056,137.7016   C 199.63935,137.26205 200.55843,136.54277 201.19779,135.58373   C 201.83715,134.58474 202.15682,133.54578 202.15682,132.38695   C 202.15682,130.66867 201.55743,129.31004 200.31867,128.19116   C 199.07992,127.11225 197.16184,126.59277 194.5245,126.59277   L 183.21586,126.59277   z  M 214.50441,158.32088   L 214.50441,122.63675   L 240.31847,122.63675   L 240.31847,126.83253   L 219.25964,126.83253   L 219.25964,137.78152   L 238.9998,137.78152   L 238.9998,141.97731   L 219.25964,141.97731   L 219.25964,154.1251   L 241.15763,154.1251   L 241.15763,158.32088   z  M 247.51124,158.32088   L 247.51124,122.63675   L 252.2265,122.63675   L 252.2265,154.1251   L 269.80883,154.1251   L 269.80883,158.32088   z "
     style="fill:#000000;fill-rule:evenodd;fill-opacity:1;stroke:none;" />
  <path
     id="path13"
     d="  M 180.13895,251.74698   C 176.22289,252.70602 151.04819,249.34939 149.60964,251.74698   C 146.25301,257.38132 161.71747,261.17751 161.11807,267.73092   C 160.55863,274.24437 135.46385,272.5261 134.90442,276.04257   C 133.26606,286.83172 186.73233,293.50502 192.44658,295.22329   C 203.03594,298.38012 206.35261,308.01044 218.02088,311.20722   C 230.52831,314.60381 247.63112,299.13935 262.13654,300.33815   C 265.25341,300.57791 284.95361,307.13132 288.3502,304.17429   C 301.33714,292.90562 266.57208,284.07449 262.13654,277.96064   C 255.98273,269.40923 295.82269,268.33032 258.06064,260.49819   z "
     style="fill:#ffffff;fill-rule:evenodd;fill-opacity:1;stroke:none;" />
  <path
     id="path15"
     d="  M 180.13895,251.74698   C 176.22289,252.70602 151.04819,249.34939 149.60964,251.74698   C 146.25301,257.38132 161.71747,261.17751 161.11807,267.73092   C 160.55863,274.24437 135.46385,272.5261 134.90442,276.04257   C 133.26606,286.83172 186.73233,293.50502 192.44658,295.22329   C 203.03594,298.38012 206.35261,308.01044 218.02088,311.20722   C 230.52831,314.60381 247.63112,299.13935 262.13654,300.33815   C 265.25341,300.57791 284.95361,307.13132 288.3502,304.17429   C 301.33714,292.90562 266.57208,284.07449 262.13654,277.96064   C 255.98273,269.40923 295.82269,268.33032 258.06064,260.49819  "
     style="fill:none;stroke:#000000;stroke-width:3.8361444px;stroke-linecap:butt;stroke-linejoin:miter;stroke-miterlimit:10;stroke-dasharray:none;stroke-opacity:1;" />
  <path
     id="path17"
     d="  M 256.30241,177.02209   L 256.30241,277.72088   L 181.49759,277.72088   L 181.49759,177.02209   z "
     style="fill:#ffffff;fill-rule:evenodd;fill-opacity:1;stroke:none;" />
  <path
     id="path19"
     d="  M 256.30241,177.02209   L 256.30241,277.72088   L 181.49759,277.72088   L 181.49759,177.02209   z "
     style="fill:none;stroke:#000000;stroke-width:2.8771083px;stroke-linecap:butt;stroke-linejoin:miter;stroke-miterlimit:10;stroke-dasharray:none;stroke-opacity:1;" />
  <path
     id="path21"
     d="  M 218.9,186.61245   C 198.28072,186.61245 181.49759,182.33674 181.49759,177.02209   C 181.49759,171.74739 198.28072,167.43172 218.9,167.43172   C 239.55923,167.43172 256.30241,171.74739 256.30241,177.02209   C 256.30241,182.33674 239.55923,186.61245 218.9,186.61245   z "
     style="fill:#ffffff;fill-rule:evenodd;fill-opacity:1;stroke:none;" />
  <path
     id="path23"
     d="  M 218.9,186.61245   C 198.28072,186.61245 181.49759,182.33674 181.49759,177.02209   C 181.49759,171.74739 198.28072,167.43172 218.9,167.43172   C 239.55923,167.43172 256.30241,171.74739 256.30241,177.02209   C 256.30241,182.33674 239.55923,186.61245 218.9,186.61245  "
     style="fill:none;stroke:#000000;stroke-width:2.8771083px;stroke-linecap:butt;stroke-linejoin:miter;stroke-miterlimit:10;stroke-dasharray:none;stroke-opacity:1;" />
  <path
     id="path25"
     d="  M 219.37951,287.31124   C 198.76024,287.31124 181.97711,283.03554 181.97711,277.72088   C 181.97711,272.44618 198.76024,268.13052 219.37951,268.13052   C 240.03875,268.13052 256.78192,272.44618 256.78192,277.72088   C 256.78192,283.03554 240.03875,287.31124 219.37951,287.31124   z "
     style="fill:#ffffff;fill-rule:evenodd;fill-opacity:1;stroke:none;" />
  <path
     id="path27"
     d="  M 219.37951,287.31124   C 198.76024,287.31124 181.97711,283.03554 181.97711,277.72088   C 181.97711,272.44618 198.76024,268.13052 219.37951,268.13052   C 240.03875,268.13052 256.78192,272.44618 256.78192,277.72088   C 256.78192,283.03554 240.03875,287.31124 219.37951,287.31124  "
     style="fill:none;stroke:#000000;stroke-width:2.8771083px;stroke-linecap:butt;stroke-linejoin:miter;stroke-miterlimit:10;stroke-dasharray:none;stroke-opacity:1;" />
  <path
     id="path29"
     d="  M 254.98373,263.33534   L 254.98373,277.92068   L 183.41566,277.92068   L 183.41566,263.33534   z "
     style="fill:#ffffff;fill-rule:evenodd;fill-opacity:1;stroke:none;" />
  <path
     id="path31"
     d="  M 193.28574,222.33654   L 193.28574,229.64919   L 199.35964,229.64919   L 199.35964,216.22269   C 198.56044,216.78213 193.28574,221.57731 193.28574,222.33654   z "
     style="fill:#ffffff;fill-rule:evenodd;fill-opacity:1;stroke:none;" />
  <path
     id="path33"
     d="  M 206.91205,208.79016   L 206.91205,208.79016   L 206.71225,229.64919   L 214.0249,229.64919   L 213.98494,201.83715   z "
     style="fill:#ffffff;fill-rule:evenodd;fill-opacity:1;stroke:none;" />
  <path
     id="path35"
     d="  M 222.5763,229.64919   L 229.88895,229.64919   L 229.88895,209.22972   C 229.88895,208.47048 223.45542,202.4765 222.5763,201.87711   z "
     style="fill:#ffffff;fill-rule:evenodd;fill-opacity:1;stroke:none;" />
  <path
     id="path37"
     d="  M 237.24156,229.64919   L 243.35542,229.64919   L 243.35542,222.93594   C 243.35542,221.77711 243.23554,222.85602 243.59518,222.09678   L 237.24156,216.22269   z "
     style="fill:#ffffff;fill-rule:evenodd;fill-opacity:1;stroke:none;" />
  <path
     id="path39"
     d="  M 218.22068,262.41626   L 218.22068,262.41626   L 251.26747,230.56827   L 185.29377,230.60823   z "
     style="fill:#ffffff;fill-rule:evenodd;fill-opacity:1;stroke:none;" />
  <path
     id="path41"
     d="  M 185.29377,230.60823   L 251.26747,230.56827   L 218.22068,262.41626   z  M 222.5763,201.87711   C 223.45542,202.4765 229.88895,208.47048 229.88895,209.22972   L 229.88895,229.64919   L 222.5763,229.64919   z  M 213.98494,201.83715   L 214.0249,229.64919   L 206.71225,229.64919   L 206.91205,208.79016   L 213.98494,201.83715   z  M 193.28574,222.33654   C 193.28574,221.57731 198.56044,216.78213 199.35964,216.22269   L 199.35964,229.64919   L 193.28574,229.64919   z  M 237.24156,216.22269   L 243.59518,222.09678   C 243.23554,222.85602 243.35542,221.77711 243.35542,222.93594   L 243.35542,229.64919   L 237.24156,229.64919   z  M 253.38534,230.24859   L 218.34056,196.04297   L 183.3757,230.16867   L 218.34056,264.21445   z "
     style="fill:#000000;fill-rule:evenodd;fill-opacity:1;stroke:none;" />
  <path
     id="path43"
     d="  M 269.20943,263.3753   L 264.85381,262.01666  "
     style="fill:none;stroke:#000000;stroke-width:0.95903611px;stroke-linecap:butt;stroke-linejoin:miter;stroke-miterlimit:10;stroke-dasharray:none;stroke-opacity:1;" />
</svg>
