<?xml version="1.0" encoding="UTF-8" standalone="no"?>
<svg
   xmlns:dc="http://purl.org/dc/elements/1.1/"
   xmlns:cc="http://creativecommons.org/ns#"
   xmlns:rdf="http://www.w3.org/1999/02/22-rdf-syntax-ns#"
   xmlns:svg="http://www.w3.org/2000/svg"
   xmlns="http://www.w3.org/2000/svg"
   id="svg27"
   height="130.27mm"
   width="130.27mm"
   version="1.0">
  <metadata
     id="metadata31">
    <rdf:RDF>
      <cc:Work
         rdf:about="">
        <dc:format>image/svg+xml</dc:format>
        <dc:type
           rdf:resource="http://purl.org/dc/dcmitype/StillImage" />
      </cc:Work>
    </rdf:RDF>
  </metadata>
  <defs
     id="defs3">
    <pattern
       y="0"
       x="0"
       height="6"
       width="6"
       patternUnits="userSpaceOnUse"
       id="EMFhbasepattern" />
  </defs>
  <path
     id="path5"
     d="  M 164.63454,327.67068   C 164.63454,437.95983 327.67068,437.95983 327.67068,327.67068   C 437.95983,327.67068 437.95983,164.63454 327.67068,164.63454   C 327.67068,54.345381 164.63454,54.345381 164.63454,164.63454   C 54.345381,164.63454 54.345381,327.67068 164.63454,327.67068   z "
     style="fill:#ffff80;fill-rule:evenodd;fill-opacity:1;stroke:none;" />
  <path
     id="path7"
     d="  M 164.63454,327.67068   C 164.63454,437.95983 327.67068,437.95983 327.67068,327.67068   C 437.95983,327.67068 437.95983,164.63454 327.67068,164.63454   C 327.67068,54.345381 164.63454,54.345381 164.63454,164.63454   C 54.345381,164.63454 54.345381,327.67068 164.63454,327.67068  "
     style="fill:none;stroke:#000000;stroke-width:9.5903616px;stroke-linecap:butt;stroke-linejoin:miter;stroke-miterlimit:10;stroke-dasharray:none;stroke-opacity:1;" />
  <path
     id="path9"
     d="  M 318.08032,265.33333   L 342.05622,265.33333  "
     style="fill:none;stroke:#000000;stroke-width:9.5903616px;stroke-linecap:butt;stroke-linejoin:miter;stroke-miterlimit:10;stroke-dasharray:none;stroke-opacity:1;" />
  <path
     id="path11"
     d="  M 342.05622,289.30923   L 342.05622,241.35743  "
     style="fill:none;stroke:#000000;stroke-width:9.5903616px;stroke-linecap:butt;stroke-linejoin:miter;stroke-miterlimit:10;stroke-dasharray:none;stroke-opacity:1;" />
  <path
     id="path13"
     d="  M 174.2249,294.10441   L 174.2249,294.10441   L 174.2249,198.2008   L 222.1767,198.2008   L 222.1767,246.15261   L 318.08032,246.15261   L 318.08032,294.10441   z "
     style="fill:#ffffff;fill-rule:evenodd;fill-opacity:1;stroke:none;" />
  <path
     id="path15"
     d="  M 174.2249,294.10441   L 174.2249,294.10441   L 174.2249,198.2008   L 222.1767,198.2008   L 222.1767,246.15261   L 318.08032,246.15261   L 318.08032,294.10441   z "
     style="fill:none;stroke:#000000;stroke-width:9.5903616px;stroke-linecap:butt;stroke-linejoin:miter;stroke-miterlimit:10;stroke-dasharray:none;stroke-opacity:1;" />
  <path
     id="path17"
     d="  M 313.28514,298.89959   C 313.28514,309.52891 304.73373,318.08032 294.10441,318.08032   C 283.51506,318.08032 274.92369,309.52891 274.92369,298.89959   C 274.92369,288.31024 283.51506,279.71887 294.10441,279.71887   C 304.73373,279.71887 313.28514,288.31024 313.28514,298.89959   z "
     style="fill:#ffffff;fill-rule:evenodd;fill-opacity:1;stroke:none;" />
  <path
     id="path19"
     d="  M 313.28514,298.89959   C 313.28514,309.52891 304.73373,318.08032 294.10441,318.08032   C 283.51506,318.08032 274.92369,309.52891 274.92369,298.89959   C 274.92369,288.31024 283.51506,279.71887 294.10441,279.71887   C 304.73373,279.71887 313.28514,288.31024 313.28514,298.89959  "
     style="fill:none;stroke:#000000;stroke-width:9.5903616px;stroke-linecap:butt;stroke-linejoin:miter;stroke-miterlimit:10;stroke-dasharray:none;stroke-opacity:1;" />
  <path
     id="path21"
     d="  M 217.38152,298.89959   C 217.38152,309.52891 208.83012,318.08032 198.2008,318.08032   C 187.61144,318.08032 179.02008,309.52891 179.02008,298.89959   C 179.02008,288.31024 187.61144,279.71887 198.2008,279.71887   C 208.83012,279.71887 217.38152,288.31024 217.38152,298.89959   z "
     style="fill:#ffffff;fill-rule:evenodd;fill-opacity:1;stroke:none;" />
  <path
     id="path23"
     d="  M 217.38152,298.89959   C 217.38152,309.52891 208.83012,318.08032 198.2008,318.08032   C 187.61144,318.08032 179.02008,309.52891 179.02008,298.89959   C 179.02008,288.31024 187.61144,279.71887 198.2008,279.71887   C 208.83012,279.71887 217.38152,288.31024 217.38152,298.89959  "
     style="fill:none;stroke:#000000;stroke-width:9.5903616px;stroke-linecap:butt;stroke-linejoin:miter;stroke-miterlimit:10;stroke-dasharray:none;stroke-opacity:1;" />
  <path
     id="path25"
     d="  M 183.81526,207.79116   L 212.58634,207.79116   L 212.58634,249.02972   L 183.81526,249.02972   z "
     style="fill:none;stroke:#000000;stroke-width:4.7951808px;stroke-linecap:butt;stroke-linejoin:miter;stroke-miterlimit:10;stroke-dasharray:none;stroke-opacity:1;" />
</svg>
