<?xml version="1.0" encoding="UTF-8" standalone="no"?>
<svg
   xmlns:dc="http://purl.org/dc/elements/1.1/"
   xmlns:cc="http://creativecommons.org/ns#"
   xmlns:rdf="http://www.w3.org/1999/02/22-rdf-syntax-ns#"
   xmlns:svg="http://www.w3.org/2000/svg"
   xmlns="http://www.w3.org/2000/svg"
   id="svg31"
   height="116.73mm"
   width="116.73mm"
   version="1.0">
  <metadata
     id="metadata35">
    <rdf:RDF>
      <cc:Work
         rdf:about="">
        <dc:format>image/svg+xml</dc:format>
        <dc:type
           rdf:resource="http://purl.org/dc/dcmitype/StillImage" />
      </cc:Work>
    </rdf:RDF>
  </metadata>
  <defs
     id="defs3">
    <pattern
       y="0"
       x="0"
       height="6"
       width="6"
       patternUnits="userSpaceOnUse"
       id="EMFhbasepattern" />
  </defs>
  <path
     id="path5"
     d="  M 172.6265,43.156626   L 172.6265,100.69879   L 268.53012,100.69879   L 268.53012,43.156626   L 172.6265,43.156626   z "
     style="fill:#000000;fill-rule:evenodd;fill-opacity:1;stroke:none;" />
  <path
     id="path7"
     d="  M 220.57831,386.49156   L 220.57831,386.49156   L 386.49156,220.57831   L 220.57831,54.665059   L 54.665059,220.57831   L 220.57831,386.49156   z "
     style="fill:#ff8080;fill-rule:evenodd;fill-opacity:1;stroke:none;" />
  <path
     id="path9"
     d="  M 220.57831,386.49156   L 220.57831,386.49156   L 386.49156,220.57831   L 220.57831,54.665059   L 54.665059,220.57831   L 220.57831,386.49156  "
     style="fill:none;stroke:#000000;stroke-width:9.5903616px;stroke-linecap:butt;stroke-linejoin:miter;stroke-miterlimit:10;stroke-dasharray:none;stroke-opacity:1;" />
  <path
     id="path11"
     d="  M 268.80984,166.11305   L 268.80984,166.11305   L 287.71084,166.19297   L 287.71084,161.31787   L 266.57208,161.27791   z "
     style="fill:#000000;fill-rule:evenodd;fill-opacity:1;stroke:none;" />
  <path
     id="path13"
     d="  M 266.41225,171.78735   L 269.04959,171.78735   L 269.04959,173.26586   C 269.04959,174.70442 270.96767,178.22088 271.9267,178.94016   C 273.1255,179.81927 276.44216,181.09799 278.36024,181.09799   C 284.63393,181.09799 287.71084,176.62249 287.71084,170.26887   L 287.71084,169.15   L 269.76887,169.15   C 268.68996,169.15 266.93172,171.02811 266.41225,171.78735   z "
     style="fill:#000000;fill-rule:evenodd;fill-opacity:1;stroke:none;" />
  <path
     id="path15"
     d="  M 150.00923,211.30763   L 218.66024,211.30763   C 218.66024,210.22871 215.02389,200.59839 214.42449,199.51948   C 211.98694,195.24377 213.54538,190.80823 206.71225,190.80823   L 162.31687,190.80823   C 156.68253,190.80823 156.04317,195.40361 154.48474,199.35964   C 153.80542,201.11787 150.08915,210.22871 150.00923,211.30763   z "
     style="fill:#ffffff;fill-rule:evenodd;fill-opacity:1;stroke:none;" />
  <path
     id="path17"
     d="  M 236.20261,188.21084   C 236.68213,186.09297 238.52028,184.53454 241.03775,184.45462   L 241.03775,189.68935   L 236.20261,189.68935   C 236.28253,193.04598 238.08072,194.84417 241.43735,194.92409   L 241.43735,190.04899   L 246.27249,190.04899   C 246.19257,193.16586 244.43433,193.60542 242.91586,194.92409   L 261.5771,194.92409   L 261.69698,219.25964   L 285.83273,184.93413   L 261.5771,184.45462   L 246.27249,184.45462   L 246.27249,166.19297   C 246.27249,163.39578 244.47429,160.95823 241.79698,160.95823   L 240.67811,160.95823   C 235.36345,160.95823 235.84297,166.67249 235.84297,172.14699   C 235.84297,175.46365 234.92389,186.17289 236.20261,188.21084   z  M 236.20261,188.21084   L 236.20261,189.68935   L 241.03775,189.68935   L 241.03775,184.45462   C 238.52028,184.53454 236.68213,186.09297 236.20261,188.21084   z  M 241.43735,194.92409   L 242.91586,194.92409   C 244.43433,193.60542 246.19257,193.16586 246.27249,190.04899   L 241.43735,190.04899   z "
     style="fill:#000000;fill-rule:evenodd;fill-opacity:1;stroke:none;" />
  <path
     id="path19"
     d="  M 141.05823,228.13072   L 141.05823,229.96887   C 141.05823,233.44538 144.65462,236.32249 148.13112,236.32249   C 152.40683,236.32249 156.36285,233.16566 156.36285,229.2496   L 156.36285,228.49036   C 156.36285,224.53433 152.64658,221.01787 148.53072,221.01787   C 144.21506,221.01787 141.05823,223.81506 141.05823,228.13072   z "
     style="fill:#ffffff;fill-rule:evenodd;fill-opacity:1;stroke:none;" />
  <path
     id="path21"
     d="  M 212.30662,228.13072   L 212.30662,229.2496   C 212.30662,233.24558 216.38253,236.32249 220.53835,236.32249   C 223.85502,236.32249 228.01084,233.04578 228.01084,229.96887   L 228.01084,228.49036   C 228.01084,224.45441 224.57429,221.01787 220.53835,221.01787   C 216.38253,221.01787 212.30662,224.05482 212.30662,228.13072   z "
     style="fill:#ffffff;fill-rule:evenodd;fill-opacity:1;stroke:none;" />
  <path
     id="path23"
     d="  M 276.52208,262.05662   L 277.24136,254.22449   L 278.36024,239.31947   L 282.4761,239.31947   L 284.35421,270.28835   L 298.14036,270.28835   L 298.14036,188.93012   C 298.14036,187.61144 295.18333,184.45462 293.30522,184.45462   L 291.98654,184.5745   L 268.29036,219.53935   L 288.43012,219.53935   L 288.43012,228.13072   L 261.5771,228.13072   L 261.5771,270.28835   L 276.12249,270.28835   L 276.04257,268.41024   z "
     style="fill:#000000;fill-rule:evenodd;fill-opacity:1;stroke:none;" />
  <path
     id="path25"
     d="  M 212.30662,228.13072   C 212.30662,224.05482 216.38253,221.01787 220.53835,221.01787   C 224.57429,221.01787 228.01084,224.45441 228.01084,228.49036   L 228.01084,229.96887   C 228.01084,233.04578 223.85502,236.32249 220.53835,236.32249   C 216.38253,236.32249 212.30662,233.24558 212.30662,229.2496   z  M 141.05823,228.13072   C 141.05823,223.81506 144.21506,221.01787 148.53072,221.01787   C 152.64658,221.01787 156.36285,224.53433 156.36285,228.49036   L 156.36285,229.2496   C 156.36285,233.16566 152.40683,236.32249 148.13112,236.32249   C 144.65462,236.32249 141.05823,233.44538 141.05823,229.96887   z  M 150.00923,211.30763   C 150.08915,210.22871 153.80542,201.11787 154.48474,199.35964   C 156.04317,195.40361 156.68253,190.80823 162.31687,190.80823   L 206.71225,190.80823   C 213.54538,190.80823 211.98694,195.24377 214.42449,199.51948   C 215.02389,200.59839 218.66024,210.22871 218.66024,211.30763   z  M 141.05823,213.54538   C 136.02329,213.54538 132.10723,217.1018 132.10723,222.13674   L 132.10723,244.15461   C 132.10723,246.63212 136.18313,249.74899 139.57972,249.74899   L 139.57972,262.45622   C 139.57972,266.77188 142.7765,270.28835 147.41185,270.28835   C 150.80843,270.28835 154.88434,266.49216 154.88434,263.93474   L 154.88434,249.74899   L 214.18474,249.74899   L 214.18474,264.69397   C 214.18474,266.97168 218.18072,270.28835 221.29759,270.28835   L 221.65723,270.28835   C 225.05381,270.28835 229.12972,267.13152 229.12972,263.93474   L 229.12972,249.74899   C 233.68514,249.74899 236.96184,246.51225 236.96184,241.91686   L 236.96184,222.53634   C 236.96184,217.62128 233.7251,214.54437 229.32951,213.70522   C 226.37249,213.14578 226.93192,211.66727 225.69317,209.1498   C 224.77409,207.31164 224.01486,205.19377 223.21566,203.43554   C 220.21867,197.08192 218.02088,183.69538 209.70923,183.69538   L 158.96024,183.69538   C 151.96727,183.69538 150.48875,191.64739 148.21104,196.84217   C 146.69257,200.31867 141.73755,210.70823 141.05823,213.54538   z "
     style="fill:#000000;fill-rule:evenodd;fill-opacity:1;stroke:none;" />
  <path
     id="path27"
     d="  M 288.43012,219.53935   L 288.43012,219.53935   L 268.29036,219.53935   L 291.98654,184.5745   L 293.30522,184.45462   L 285.83273,184.93413   L 261.69698,219.25964   L 261.5771,228.13072   L 288.43012,228.13072   z "
     style="fill:#ffffff;fill-rule:evenodd;fill-opacity:1;stroke:none;" />
  <path
     id="path29"
     d="  M 287.71084,169.15   L 287.71084,169.15   L 287.71084,166.19297   L 268.80984,166.11305   L 269.76887,169.15   z "
     style="fill:#ffffff;fill-rule:evenodd;fill-opacity:1;stroke:none;" />
</svg>
