<?xml version="1.0" encoding="UTF-8" standalone="no"?>
<svg
   xmlns:dc="http://purl.org/dc/elements/1.1/"
   xmlns:cc="http://creativecommons.org/ns#"
   xmlns:rdf="http://www.w3.org/1999/02/22-rdf-syntax-ns#"
   xmlns:svg="http://www.w3.org/2000/svg"
   xmlns="http://www.w3.org/2000/svg"
   id="svg15"
   height="112.9mm"
   width="112.9mm"
   version="1.0">
  <metadata
     id="metadata19">
    <rdf:RDF>
      <cc:Work
         rdf:about="">
        <dc:format>image/svg+xml</dc:format>
        <dc:type
           rdf:resource="http://purl.org/dc/dcmitype/StillImage" />
      </cc:Work>
    </rdf:RDF>
  </metadata>
  <defs
     id="defs3">
    <pattern
       y="0"
       x="0"
       height="6"
       width="6"
       patternUnits="userSpaceOnUse"
       id="EMFhbasepattern" />
  </defs>
  <path
     id="path5"
     d="  M 391.92062,391.38808   L 541.15652,391.38808   L 541.15652,583.2682   L 391.92062,583.2682   L 391.92062,391.38808   z "
     style="fill:none;stroke:#ff0000;stroke-width:5.3258066px;stroke-linecap:butt;stroke-linejoin:miter;stroke-miterlimit:112;stroke-dasharray:none;stroke-opacity:1;" />
  <path
     id="path7"
     d="  M 391.92062,584.36358   L 466.51969,684.53407   L 541.15652,584.36358  "
     style="fill:none;stroke:#ff0000;stroke-width:5.3258066px;stroke-linecap:butt;stroke-linejoin:miter;stroke-miterlimit:112;stroke-dasharray:none;stroke-opacity:1;" />
  <path
     id="path9"
     d="  M 419.154,455.3733   L 419.154,414.99538   L 404.0831,414.99538   L 404.0831,409.59403   L 440.38168,409.59403   L 440.38168,414.99538   L 425.23524,414.99538   L 425.23524,455.3733   L 419.154,455.3733   z "
     style="fill:#ff0000;fill-rule:nonzero;fill-opacity:1;stroke:#ff0000;stroke-width:1.0576069px;stroke-linecap:butt;stroke-linejoin:miter;stroke-miterlimit:112;stroke-dasharray:none;stroke-opacity:1;" />
  <path
     id="path11"
     d="  M 479.28651,439.32034   L 485.32998,440.8312   C 484.08352,445.81706 481.77944,449.59423 478.49331,452.23825   C 475.1694,454.8445 471.1656,456.12873 466.3686,456.12873   C 461.45828,456.12873 457.41671,455.14667 454.3572,453.14477   C 451.25993,451.1051 448.88031,448.19668 447.2939,444.38174   C 445.66972,440.60457 444.87651,436.48746 444.87651,432.14372   C 444.87651,427.34671 445.78303,423.19183 447.59607,419.64129   C 449.40911,416.09075 452.01536,413.40896 455.37704,411.55815   C 458.73872,409.70734 462.44034,408.80082 466.48191,408.80082   C 471.05229,408.80082 474.905,409.97174 478.04005,412.27581   C 481.13732,414.61766 483.32808,417.90379 484.57455,422.13422   L 478.60662,423.53177   C 477.51124,420.20787 476.00038,417.79048 473.96071,416.24184   C 471.95881,414.73097 469.4281,413.97554 466.33083,413.97554   C 462.81806,413.97554 459.87187,414.80652 457.53003,416.50624   C 455.15041,418.20597 453.48846,420.47227 452.54416,423.30514   C 451.59987,426.13802 451.10884,429.08421 451.10884,432.10595   C 451.10884,435.99643 451.67542,439.39588 452.80857,442.3043   C 453.94172,445.21272 455.71699,447.3657 458.0966,448.80103   C 460.51399,450.23635 463.08246,450.95401 465.87757,450.95401   C 469.27702,450.95401 472.14767,449.97195 474.48951,448.00782   C 476.86912,446.08147 478.45554,443.17305 479.28651,439.32034   L 479.28651,439.32034   z "
     style="fill:#ff0000;fill-rule:nonzero;fill-opacity:1;stroke:#ff0000;stroke-width:1.0576069px;stroke-linecap:butt;stroke-linejoin:miter;stroke-miterlimit:112;stroke-dasharray:none;stroke-opacity:1;" />
  <path
     id="path13"
     d="  M 492.84654,455.3733   L 492.84654,409.59403   L 510.1082,409.59403   C 513.12994,409.59403 515.47178,409.70734 517.05819,410.00951   C 519.32449,410.38723 521.21308,411.10489 522.72394,412.1625   C 524.23481,413.22011 525.48127,414.6932 526.3878,416.58179   C 527.33209,418.47037 527.78535,420.54781 527.78535,422.81411   C 527.78535,426.7046 526.53888,429.99073 524.04595,432.71029   C 521.59079,435.39208 517.09596,436.75186 510.63701,436.75186   L 498.89001,436.75186   L 498.89001,455.3733   L 492.84654,455.3733   z  M 498.89001,431.35051   L 510.71255,431.35051   C 514.6408,431.35051 517.43591,430.63285 519.06009,429.15975   C 520.72204,427.68666 521.51525,425.64699 521.51525,423.00297   C 521.51525,421.07662 521.06199,419.45243 520.07992,418.09265   C 519.09786,416.73287 517.8514,415.82635 516.26499,415.37309   C 515.24515,415.10869 513.35657,414.99538 510.59923,414.99538   L 498.89001,414.99538   L 498.89001,431.35051   z "
     style="fill:#ff0000;fill-rule:nonzero;fill-opacity:1;stroke:#ff0000;stroke-width:1.0576069px;stroke-linecap:butt;stroke-linejoin:miter;stroke-miterlimit:112;stroke-dasharray:none;stroke-opacity:1;" />
</svg>
