<?xml version="1.0" encoding="UTF-8" standalone="no"?>
<svg
   xmlns:dc="http://purl.org/dc/elements/1.1/"
   xmlns:cc="http://creativecommons.org/ns#"
   xmlns:rdf="http://www.w3.org/1999/02/22-rdf-syntax-ns#"
   xmlns:svg="http://www.w3.org/2000/svg"
   xmlns="http://www.w3.org/2000/svg"
   id="svg31"
   height="95.75mm"
   width="95.75mm"
   version="1.0">
  <metadata
     id="metadata35">
    <rdf:RDF>
      <cc:Work
         rdf:about="">
        <dc:format>image/svg+xml</dc:format>
        <dc:type
           rdf:resource="http://purl.org/dc/dcmitype/StillImage" />
      </cc:Work>
    </rdf:RDF>
  </metadata>
  <defs
     id="defs3">
    <pattern
       y="0"
       x="0"
       height="6"
       width="6"
       patternUnits="userSpaceOnUse"
       id="EMFhbasepattern" />
  </defs>
  <path
     id="path5"
     d="  M 132.98634,15.983936   L 132.98634,54.345381   L 228.88996,54.345381   L 228.88996,15.983936   L 132.98634,15.983936   z "
     style="fill:#000000;fill-rule:evenodd;fill-opacity:1;stroke:none;" />
  <path
     id="path7"
     d="  M 54.345381,54.345381   L 54.345381,307.53092   L 307.53092,307.53092   L 307.53092,54.345381   L 54.345381,54.345381   z "
     style="fill:#aaffaa;fill-rule:evenodd;fill-opacity:1;stroke:none;" />
  <path
     id="path9"
     d="  M 54.345381,54.345381   L 307.53092,54.345381   L 307.53092,307.53092   L 54.345381,307.53092   z "
     style="fill:none;stroke:#000000;stroke-width:9.5903616px;stroke-linecap:butt;stroke-linejoin:miter;stroke-miterlimit:10;stroke-dasharray:none;stroke-opacity:1;" />
  <path
     id="path11"
     d="  M 229.16968,126.47289   L 229.16968,126.47289   L 248.07068,126.55281   L 248.07068,121.67771   L 226.93192,121.63775   z "
     style="fill:#000000;fill-rule:evenodd;fill-opacity:1;stroke:none;" />
  <path
     id="path13"
     d="  M 226.77209,132.14719   L 229.40943,132.14719   L 229.40943,133.6257   C 229.40943,135.06426 231.32751,138.58072 232.28654,139.3   C 233.48534,140.17911 236.802,141.45783 238.72008,141.45783   C 244.99377,141.45783 248.07068,136.98233 248.07068,130.62871   L 248.07068,129.50984   L 230.12871,129.50984   C 229.0498,129.50984 227.29156,131.38795 226.77209,132.14719   z "
     style="fill:#000000;fill-rule:evenodd;fill-opacity:1;stroke:none;" />
  <path
     id="path15"
     d="  M 110.36907,171.66747   L 179.02008,171.66747   C 179.02008,170.58855 175.38373,160.95823 174.78433,159.87931   C 172.34678,155.60361 173.90522,151.16807 167.07209,151.16807   L 122.67671,151.16807   C 117.04237,151.16807 116.40301,155.76345 114.84458,159.71948   C 114.16526,161.47771 110.44899,170.58855 110.36907,171.66747   z "
     style="fill:#ffffff;fill-rule:evenodd;fill-opacity:1;stroke:none;" />
  <path
     id="path17"
     d="  M 196.56245,148.57068   C 197.04197,146.45281 198.88012,144.89438 201.39759,144.81446   L 201.39759,150.04919   L 196.56245,150.04919   C 196.64237,153.40582 198.44056,155.20401 201.79719,155.28393   L 201.79719,150.40883   L 206.63233,150.40883   C 206.55241,153.5257 204.79417,153.96526 203.2757,155.28393   L 221.93694,155.28393   L 222.05682,179.61948   L 246.19257,145.29397   L 221.93694,144.81446   L 206.63233,144.81446   L 206.63233,126.55281   C 206.63233,123.75562 204.83413,121.31807 202.15682,121.31807   L 201.03795,121.31807   C 195.72329,121.31807 196.20281,127.03233 196.20281,132.50683   C 196.20281,135.82349 195.28373,146.53273 196.56245,148.57068   z  M 196.56245,148.57068   L 196.56245,150.04919   L 201.39759,150.04919   L 201.39759,144.81446   C 198.88012,144.89438 197.04197,146.45281 196.56245,148.57068   z  M 201.79719,155.28393   L 203.2757,155.28393   C 204.79417,153.96526 206.55241,153.5257 206.63233,150.40883   L 201.79719,150.40883   z "
     style="fill:#000000;fill-rule:evenodd;fill-opacity:1;stroke:none;" />
  <path
     id="path19"
     d="  M 101.41807,188.49056   L 101.41807,190.32871   C 101.41807,193.80522 105.01446,196.68233 108.49096,196.68233   C 112.76667,196.68233 116.72269,193.5255 116.72269,189.60944   L 116.72269,188.8502   C 116.72269,184.89417 113.00642,181.37771 108.89056,181.37771   C 104.5749,181.37771 101.41807,184.1749 101.41807,188.49056   z "
     style="fill:#ffffff;fill-rule:evenodd;fill-opacity:1;stroke:none;" />
  <path
     id="path21"
     d="  M 172.66646,188.49056   L 172.66646,189.60944   C 172.66646,193.60542 176.74237,196.68233 180.89819,196.68233   C 184.21486,196.68233 188.37068,193.40562 188.37068,190.32871   L 188.37068,188.8502   C 188.37068,184.81425 184.93413,181.37771 180.89819,181.37771   C 176.74237,181.37771 172.66646,184.41466 172.66646,188.49056   z "
     style="fill:#ffffff;fill-rule:evenodd;fill-opacity:1;stroke:none;" />
  <path
     id="path23"
     d="  M 236.88192,222.41646   L 237.6012,214.58433   L 238.72008,199.67931   L 242.83594,199.67931   L 244.71405,230.64819   L 258.5002,230.64819   L 258.5002,149.28996   C 258.5002,147.97128 255.54317,144.81446 253.66506,144.81446   L 252.34638,144.93434   L 228.6502,179.89919   L 248.78996,179.89919   L 248.78996,188.49056   L 221.93694,188.49056   L 221.93694,230.64819   L 236.48233,230.64819   L 236.40241,228.77008   z "
     style="fill:#000000;fill-rule:evenodd;fill-opacity:1;stroke:none;" />
  <path
     id="path25"
     d="  M 172.66646,188.49056   C 172.66646,184.41466 176.74237,181.37771 180.89819,181.37771   C 184.93413,181.37771 188.37068,184.81425 188.37068,188.8502   L 188.37068,190.32871   C 188.37068,193.40562 184.21486,196.68233 180.89819,196.68233   C 176.74237,196.68233 172.66646,193.60542 172.66646,189.60944   z  M 101.41807,188.49056   C 101.41807,184.1749 104.5749,181.37771 108.89056,181.37771   C 113.00642,181.37771 116.72269,184.89417 116.72269,188.8502   L 116.72269,189.60944   C 116.72269,193.5255 112.76667,196.68233 108.49096,196.68233   C 105.01446,196.68233 101.41807,193.80522 101.41807,190.32871   z  M 110.36907,171.66747   C 110.44899,170.58855 114.16526,161.47771 114.84458,159.71948   C 116.40301,155.76345 117.04237,151.16807 122.67671,151.16807   L 167.07209,151.16807   C 173.90522,151.16807 172.34678,155.60361 174.78433,159.87931   C 175.38373,160.95823 179.02008,170.58855 179.02008,171.66747   z  M 101.41807,173.90522   C 96.383131,173.90522 92.467067,177.46164 92.467067,182.49658   L 92.467067,204.51445   C 92.467067,206.99196 96.54297,210.10883 99.939557,210.10883   L 99.939557,222.81606   C 99.939557,227.13172 103.13634,230.64819 107.77169,230.64819   C 111.16827,230.64819 115.24418,226.852 115.24418,224.29458   L 115.24418,210.10883   L 174.54458,210.10883   L 174.54458,225.05381   C 174.54458,227.33152 178.54056,230.64819 181.65743,230.64819   L 182.01707,230.64819   C 185.41365,230.64819 189.48956,227.49136 189.48956,224.29458   L 189.48956,210.10883   C 194.04498,210.10883 197.32168,206.87209 197.32168,202.2767   L 197.32168,182.89618   C 197.32168,177.98112 194.08494,174.90421 189.68935,174.06506   C 186.73233,173.50562 187.29176,172.02711 186.05301,169.50964   C 185.13393,167.67148 184.3747,165.55361 183.5755,163.79538   C 180.57851,157.44176 178.38072,144.05522 170.06907,144.05522   L 119.32008,144.05522   C 112.32711,144.05522 110.84859,152.00723 108.57088,157.20201   C 107.05241,160.67851 102.09739,171.06807 101.41807,173.90522   z "
     style="fill:#000000;fill-rule:evenodd;fill-opacity:1;stroke:none;" />
  <path
     id="path27"
     d="  M 248.78996,179.89919   L 248.78996,179.89919   L 228.6502,179.89919   L 252.34638,144.93434   L 253.66506,144.81446   L 246.19257,145.29397   L 222.05682,179.61948   L 221.93694,188.49056   L 248.78996,188.49056   z "
     style="fill:#ffffff;fill-rule:evenodd;fill-opacity:1;stroke:none;" />
  <path
     id="path29"
     d="  M 248.07068,129.50984   L 248.07068,129.50984   L 248.07068,126.55281   L 229.16968,126.47289   L 230.12871,129.50984   z "
     style="fill:#ffffff;fill-rule:evenodd;fill-opacity:1;stroke:none;" />
</svg>
