<?xml version="1.0" encoding="UTF-8" standalone="no"?>
<svg
   xmlns:dc="http://purl.org/dc/elements/1.1/"
   xmlns:cc="http://creativecommons.org/ns#"
   xmlns:rdf="http://www.w3.org/1999/02/22-rdf-syntax-ns#"
   xmlns:svg="http://www.w3.org/2000/svg"
   xmlns="http://www.w3.org/2000/svg"
   id="svg15"
   height="112.9mm"
   width="112.9mm"
   version="1.0">
  <metadata
     id="metadata19">
    <rdf:RDF>
      <cc:Work
         rdf:about="">
        <dc:format>image/svg+xml</dc:format>
        <dc:type
           rdf:resource="http://purl.org/dc/dcmitype/StillImage" />
      </cc:Work>
    </rdf:RDF>
  </metadata>
  <defs
     id="defs3">
    <pattern
       y="0"
       x="0"
       height="6"
       width="6"
       patternUnits="userSpaceOnUse"
       id="EMFhbasepattern" />
  </defs>
  <path
     id="path5"
     d="  M 451.74134,451.72623   L 600.99177,451.72623   L 600.99177,643.62504   L 451.74134,643.62504   L 451.74134,451.72623   z "
     style="fill:none;stroke:#000000;stroke-width:5.3263254px;stroke-linecap:butt;stroke-linejoin:miter;stroke-miterlimit:112;stroke-dasharray:none;stroke-opacity:1;" />
  <path
     id="path7"
     d="  M 451.74134,644.72053   L 526.34767,744.90078   L 600.99177,644.72053  "
     style="fill:none;stroke:#000000;stroke-width:5.3263254px;stroke-linecap:butt;stroke-linejoin:miter;stroke-miterlimit:112;stroke-dasharray:none;stroke-opacity:1;" />
  <path
     id="path9"
     d="  M 478.97737,515.71768   L 478.97737,475.33583   L 463.905,475.33583   L 463.905,469.93395   L 500.20712,469.93395   L 500.20712,475.33583   L 485.0592,475.33583   L 485.0592,515.71768   L 478.97737,515.71768   z "
     style="fill:#000000;fill-rule:nonzero;fill-opacity:1;stroke:#000000;stroke-width:1.0577101px;stroke-linecap:butt;stroke-linejoin:miter;stroke-miterlimit:112;stroke-dasharray:none;stroke-opacity:1;" />
  <path
     id="path11"
     d="  M 539.11574,499.66316   L 545.1598,501.17417   C 543.91321,506.16052 541.60891,509.93805 538.32246,512.58233   C 534.99822,515.18883 530.99404,516.47319 526.19657,516.47319   C 521.28577,516.47319 517.24381,515.49103 514.184,513.48894   C 511.08642,511.44907 508.70658,508.54036 507.12001,504.72505   C 505.49567,500.94752 504.70239,496.83 504.70239,492.48584   C 504.70239,487.68837 505.609,483.53308 507.42221,479.98219   C 509.23543,476.43131 511.84193,473.74926 515.20394,471.89827   C 518.56594,470.04728 522.26793,469.14067 526.30989,469.14067   C 530.88071,469.14067 534.7338,470.3117 537.86915,472.616   C 540.96673,474.95807 543.1577,478.24453 544.40429,482.47537   L 538.43578,483.87306   C 537.3403,480.54882 535.82928,478.1312 533.78941,476.58241   C 531.78732,475.0714 529.25637,474.31589 526.15879,474.31589   C 522.64568,474.31589 519.69921,475.14695 517.35713,476.84684   C 514.97729,478.54673 513.31517,480.81325 512.37079,483.6464   C 511.4264,486.47956 510.93532,489.42603 510.93532,492.44806   C 510.93532,496.33892 511.50195,499.73871 512.63521,502.64741   C 513.76847,505.55611 515.54392,507.70931 517.92376,509.14477   C 520.34139,510.58023 522.91011,511.29797 525.70549,511.29797   C 529.10527,511.29797 531.9762,510.31581 534.31827,508.35149   C 536.69812,506.42494 538.28468,503.51624 539.11574,499.66316   L 539.11574,499.66316   z "
     style="fill:#000000;fill-rule:nonzero;fill-opacity:1;stroke:#000000;stroke-width:1.0577101px;stroke-linecap:butt;stroke-linejoin:miter;stroke-miterlimit:112;stroke-dasharray:none;stroke-opacity:1;" />
  <path
     id="path13"
     d="  M 552.67709,515.71768   L 552.67709,469.93395   L 569.94043,469.93395   C 572.96246,469.93395 575.30453,470.04728 576.8911,470.34948   C 579.15762,470.72723 581.04639,471.44496 582.5574,472.50267   C 584.06841,473.56038 585.315,475.03362 586.22161,476.92239   C 587.16599,478.81116 587.6193,480.8888 587.6193,483.15532   C 587.6193,487.04619 586.37271,490.33264 583.87954,493.05247   C 581.42414,495.73452 576.92887,497.09443 570.46929,497.09443   L 558.72115,497.09443   L 558.72115,515.71768   L 552.67709,515.71768   z  M 558.72115,491.69255   L 570.54484,491.69255   C 574.47347,491.69255 577.26885,490.97482 578.89319,489.50158   C 580.55531,488.02835 581.34859,485.98848 581.34859,483.3442   C 581.34859,481.41766 580.89528,479.79332 579.91313,478.4334   C 578.93097,477.07349 577.68438,476.16688 576.09781,475.71358   C 575.07788,475.44915 573.18911,475.33583 570.43151,475.33583   L 558.72115,475.33583   L 558.72115,491.69255   z "
     style="fill:#000000;fill-rule:nonzero;fill-opacity:1;stroke:#000000;stroke-width:1.0577101px;stroke-linecap:butt;stroke-linejoin:miter;stroke-miterlimit:112;stroke-dasharray:none;stroke-opacity:1;" />
</svg>
