<?xml version="1.0" encoding="UTF-8" standalone="no"?>
<svg
   xmlns:dc="http://purl.org/dc/elements/1.1/"
   xmlns:cc="http://creativecommons.org/ns#"
   xmlns:rdf="http://www.w3.org/1999/02/22-rdf-syntax-ns#"
   xmlns:svg="http://www.w3.org/2000/svg"
   xmlns="http://www.w3.org/2000/svg"
   id="svg15"
   height="112.9mm"
   width="112.9mm"
   version="1.0">
  <metadata
     id="metadata19">
    <rdf:RDF>
      <cc:Work
         rdf:about="">
        <dc:format>image/svg+xml</dc:format>
        <dc:type
           rdf:resource="http://purl.org/dc/dcmitype/StillImage" />
      </cc:Work>
    </rdf:RDF>
  </metadata>
  <defs
     id="defs3">
    <pattern
       y="0"
       x="0"
       height="6"
       width="6"
       patternUnits="userSpaceOnUse"
       id="EMFhbasepattern" />
  </defs>
  <path
     id="path5"
     d="  M 1055.3824,1055.5085   L 1203.488,1055.5085   L 1203.488,1246.2484   L 1055.3824,1246.2484   z "
     style="fill:none;stroke:#00ff00;stroke-width:5.3245535px;stroke-linecap:butt;stroke-linejoin:miter;stroke-miterlimit:282;stroke-dasharray:none;stroke-opacity:1;" />
  <path
     id="path7"
     d="  M 1055.3824,1248.4386   L 1129.9639,1348.5855   L 1204.5832,1248.4386  "
     style="fill:none;stroke:#00ff00;stroke-width:5.3245535px;stroke-linecap:butt;stroke-linejoin:miter;stroke-miterlimit:282;stroke-dasharray:none;stroke-opacity:1;" />
  <path
     id="path9"
     d="  M 1082.6094,1119.4787   L 1082.6094,1079.1103   L 1067.542,1079.1103   L 1067.542,1073.7102   L 1103.832,1073.7102   L 1103.832,1079.1103   L 1088.6892,1079.1103   L 1088.6892,1119.4787   z "
     style="fill:#00ff00;fill-rule:nonzero;fill-opacity:1;stroke:#00ff00;stroke-width:1.0573581px;stroke-linecap:butt;stroke-linejoin:miter;stroke-miterlimit:282;stroke-dasharray:none;stroke-opacity:1;" />
  <path
     id="path11"
     d="  M 1142.7277,1103.4295   L 1148.7698,1104.94   C 1147.5236,1109.9247 1145.2201,1113.701 1141.9347,1116.3444   C 1138.6116,1118.95 1134.6087,1120.2339 1129.8128,1120.2339   C 1124.9037,1120.2339 1120.8631,1119.2521 1117.8043,1117.2507   C 1114.7077,1115.2115 1112.3287,1112.3038 1110.7426,1108.4897   C 1109.1188,1104.7134 1108.3258,1100.5973 1108.3258,1096.2546   C 1108.3258,1091.4587 1109.2321,1087.3048 1111.0447,1083.7551   C 1112.8574,1080.2054 1115.463,1077.5242 1118.8239,1075.6739   C 1122.1848,1073.8235 1125.8855,1072.9172 1129.9261,1072.9172   C 1134.4954,1072.9172 1138.3472,1074.0878 1141.4815,1076.3913   C 1144.5781,1078.7326 1146.7683,1082.018 1148.0145,1086.2474   L 1142.048,1087.6447   C 1140.9529,1084.3215 1139.4424,1081.9047 1137.4032,1080.3564   C 1135.4017,1078.8459 1132.8716,1078.0907 1129.7751,1078.0907   C 1126.2631,1078.0907 1123.3176,1078.9215 1120.9764,1080.6208   C 1118.5973,1082.3201 1116.9357,1084.5859 1115.9917,1087.4181   C 1115.0476,1090.2503 1114.5567,1093.1958 1114.5567,1096.2168   C 1114.5567,1100.1064 1115.1231,1103.505 1116.256,1106.4128   C 1117.3889,1109.3205 1119.1637,1111.473 1121.5428,1112.908   C 1123.9596,1114.3429 1126.5275,1115.0604 1129.3219,1115.0604   C 1132.7206,1115.0604 1135.5905,1114.0786 1137.9318,1112.1149   C 1140.3109,1110.189 1141.8969,1107.2813 1142.7277,1103.4295   z "
     style="fill:#00ff00;fill-rule:nonzero;fill-opacity:1;stroke:#00ff00;stroke-width:1.0573581px;stroke-linecap:butt;stroke-linejoin:miter;stroke-miterlimit:282;stroke-dasharray:none;stroke-opacity:1;" />
  <path
     id="path13"
     d="  M 1156.2846,1119.4787   L 1156.2846,1073.7102   L 1173.5422,1073.7102   C 1176.5632,1073.7102 1178.9045,1073.8235 1180.4905,1074.1256   C 1182.7563,1074.5032 1184.6444,1075.2207 1186.1549,1076.2781   C 1187.6654,1077.3354 1188.9116,1078.8082 1189.8179,1080.6963   C 1190.762,1082.5844 1191.2151,1084.6614 1191.2151,1086.9272   C 1191.2151,1090.8167 1189.969,1094.1021 1187.4766,1096.821   C 1185.022,1099.5022 1180.5283,1100.8616 1174.0708,1100.8616   L 1162.3266,1100.8616   L 1162.3266,1119.4787   z  M 1162.3266,1095.4616   L 1174.1464,1095.4616   C 1178.0737,1095.4616 1180.8681,1094.7441 1182.4919,1093.2713   C 1184.1535,1091.7986 1184.9465,1089.7594 1184.9465,1087.116   C 1184.9465,1085.1901 1184.4934,1083.5663 1183.5115,1082.2068   C 1182.5297,1080.8474 1181.2835,1079.941 1179.6975,1079.4879   C 1178.6779,1079.2236 1176.7898,1079.1103 1174.0331,1079.1103   L 1162.3266,1079.1103   z "
     style="fill:#00ff00;fill-rule:nonzero;fill-opacity:1;stroke:#00ff00;stroke-width:1.0573581px;stroke-linecap:butt;stroke-linejoin:miter;stroke-miterlimit:282;stroke-dasharray:none;stroke-opacity:1;" />
</svg>
