<?xml version="1.0" encoding="UTF-8" standalone="no"?>
<svg
   xmlns:dc="http://purl.org/dc/elements/1.1/"
   xmlns:cc="http://creativecommons.org/ns#"
   xmlns:rdf="http://www.w3.org/1999/02/22-rdf-syntax-ns#"
   xmlns:svg="http://www.w3.org/2000/svg"
   xmlns="http://www.w3.org/2000/svg"
   id="svg15"
   height="112.9mm"
   width="112.9mm"
   version="1.0">
  <metadata
     id="metadata19">
    <rdf:RDF>
      <cc:Work
         rdf:about="">
        <dc:format>image/svg+xml</dc:format>
        <dc:type
           rdf:resource="http://purl.org/dc/dcmitype/StillImage" />
      </cc:Work>
    </rdf:RDF>
  </metadata>
  <defs
     id="defs3">
    <pattern
       y="0"
       x="0"
       height="6"
       width="6"
       patternUnits="userSpaceOnUse"
       id="EMFhbasepattern" />
  </defs>
  <path
     id="path5"
     d="  M 451.74134,451.72623   L 600.99177,451.72623   L 600.99177,643.62504   L 451.74134,643.62504   L 451.74134,451.72623   z "
     style="fill:none;stroke:#000000;stroke-width:5.3263254px;stroke-linecap:butt;stroke-linejoin:miter;stroke-miterlimit:112;stroke-dasharray:none;stroke-opacity:1;" />
  <path
     id="path7"
     d="  M 451.74134,644.72053   L 526.34767,744.90078   L 600.99177,644.72053  "
     style="fill:none;stroke:#000000;stroke-width:5.3263254px;stroke-linecap:butt;stroke-linejoin:miter;stroke-miterlimit:112;stroke-dasharray:none;stroke-opacity:1;" />
  <path
     id="path9"
     d="  M 483.24598,515.71768   L 483.24598,475.33583   L 468.17362,475.33583   L 468.17362,469.93395   L 504.43796,469.93395   L 504.43796,475.33583   L 489.29004,475.33583   L 489.29004,515.71768   L 483.24598,515.71768   z "
     style="fill:#000000;fill-rule:nonzero;fill-opacity:1;stroke:#000000;stroke-width:1.0577101px;stroke-linecap:butt;stroke-linejoin:miter;stroke-miterlimit:112;stroke-dasharray:none;stroke-opacity:1;" />
  <path
     id="path11"
     d="  M 522.34348,515.71768   L 522.34348,475.33583   L 507.27111,475.33583   L 507.27111,469.93395   L 543.57323,469.93395   L 543.57323,475.33583   L 528.42531,475.33583   L 528.42531,515.71768   L 522.34348,515.71768   z "
     style="fill:#000000;fill-rule:nonzero;fill-opacity:1;stroke:#000000;stroke-width:1.0577101px;stroke-linecap:butt;stroke-linejoin:miter;stroke-miterlimit:112;stroke-dasharray:none;stroke-opacity:1;" />
  <path
     id="path13"
     d="  M 549.80617,515.71768   L 549.80617,469.93395   L 567.0695,469.93395   C 570.12931,469.93395 572.4336,470.04728 574.05794,470.34948   C 576.28669,470.72723 578.17546,471.44496 579.68647,472.50267   C 581.23526,473.56038 582.44407,475.03362 583.35068,476.92239   C 584.29507,478.81116 584.74837,480.8888 584.74837,483.15532   C 584.74837,487.04619 583.50178,490.33264 581.04639,493.05247   C 578.55321,495.73452 574.09572,497.09443 567.59836,497.09443   L 555.85022,497.09443   L 555.85022,515.71768   L 549.80617,515.71768   z  M 555.85022,491.69255   L 567.71168,491.69255   C 571.60255,491.69255 574.39792,490.97482 576.06004,489.50158   C 577.68438,488.02835 578.51544,485.98848 578.51544,483.3442   C 578.51544,481.41766 578.02436,479.79332 577.0422,478.4334   C 576.09781,477.07349 574.81345,476.16688 573.22689,475.71358   C 572.20695,475.44915 570.31818,475.33583 567.56058,475.33583   L 555.85022,475.33583   L 555.85022,491.69255   z "
     style="fill:#000000;fill-rule:nonzero;fill-opacity:1;stroke:#000000;stroke-width:1.0577101px;stroke-linecap:butt;stroke-linejoin:miter;stroke-miterlimit:112;stroke-dasharray:none;stroke-opacity:1;" />
</svg>
