<?xml version="1.0" encoding="UTF-8" standalone="no"?>
<svg
   xmlns:dc="http://purl.org/dc/elements/1.1/"
   xmlns:cc="http://creativecommons.org/ns#"
   xmlns:rdf="http://www.w3.org/1999/02/22-rdf-syntax-ns#"
   xmlns:svg="http://www.w3.org/2000/svg"
   xmlns="http://www.w3.org/2000/svg"
   id="svg19"
   height="130.27mm"
   width="130.27mm"
   version="1.0">
  <metadata
     id="metadata23">
    <rdf:RDF>
      <cc:Work
         rdf:about="">
        <dc:format>image/svg+xml</dc:format>
        <dc:type
           rdf:resource="http://purl.org/dc/dcmitype/StillImage" />
      </cc:Work>
    </rdf:RDF>
  </metadata>
  <defs
     id="defs3">
    <pattern
       y="0"
       x="0"
       height="6"
       width="6"
       patternUnits="userSpaceOnUse"
       id="EMFhbasepattern" />
  </defs>
  <path
     id="path5"
     d="  M 164.63454,327.67068   C 164.63454,437.95983 327.67068,437.95983 327.67068,327.67068   C 437.95983,327.67068 437.95983,164.63454 327.67068,164.63454   C 327.67068,54.345381 164.63454,54.345381 164.63454,164.63454   C 54.345381,164.63454 54.345381,327.67068 164.63454,327.67068   z "
     style="fill:#ffff80;fill-rule:evenodd;fill-opacity:1;stroke:none;" />
  <path
     id="path7"
     d="  M 164.63454,327.67068   C 164.63454,437.95983 327.67068,437.95983 327.67068,327.67068   C 437.95983,327.67068 437.95983,164.63454 327.67068,164.63454   C 327.67068,54.345381 164.63454,54.345381 164.63454,164.63454   C 54.345381,164.63454 54.345381,327.67068 164.63454,327.67068  "
     style="fill:none;stroke:#000000;stroke-width:9.5903616px;stroke-linecap:butt;stroke-linejoin:miter;stroke-miterlimit:10;stroke-dasharray:none;stroke-opacity:1;" />
  <path
     id="path9"
     d="  M 183.81526,318.08032   L 183.81526,318.08032   L 145.45381,241.35743   L 179.02008,241.35743   L 179.02008,207.79116   L 236.56225,207.79116   L 236.56225,241.35743   L 346.8514,241.35743   L 308.48996,318.08032   z "
     style="fill:#ffffff;fill-rule:evenodd;fill-opacity:1;stroke:none;" />
  <path
     id="path11"
     d="  M 183.81526,318.08032   L 183.81526,318.08032   L 145.45381,241.35743   L 179.02008,241.35743   L 179.02008,207.79116   L 236.56225,207.79116   L 236.56225,241.35743   L 346.8514,241.35743   L 308.48996,318.08032   z "
     style="fill:none;stroke:#000000;stroke-width:9.5903616px;stroke-linecap:butt;stroke-linejoin:miter;stroke-miterlimit:10;stroke-dasharray:none;stroke-opacity:1;" />
  <path
     id="path13"
     d="  M 259.57911,242.31646   L 259.57911,141.61767  "
     style="fill:none;stroke:#000000;stroke-width:9.5903616px;stroke-linecap:butt;stroke-linejoin:miter;stroke-miterlimit:10;stroke-dasharray:none;stroke-opacity:1;" />
  <path
     id="path15"
     d="  M 259.57911,241.35743   L 336.302,164.63454  "
     style="fill:none;stroke:#000000;stroke-width:9.5903616px;stroke-linecap:butt;stroke-linejoin:miter;stroke-miterlimit:10;stroke-dasharray:none;stroke-opacity:1;" />
  <path
     id="path17"
     d="  M 222.73614,298.26024   L 222.73614,261.93674   L 209.1498,261.93674   L 209.1498,257.06164   L 241.79698,257.06164   L 241.79698,261.93674   L 228.17068,261.93674   L 228.17068,298.26024   z  M 247.47128,298.26024   L 247.47128,257.06164   L 265.73293,257.06164   C 269.40923,257.06164 272.20642,257.46124 274.12449,258.18052   C 276.04257,258.93976 277.56104,260.21847 278.67992,262.09658   C 279.83875,263.97469 280.39819,266.05261 280.39819,268.33032   C 280.39819,271.24739 279.47911,273.68494 277.56104,275.68293   C 275.68293,277.72088 272.76586,278.99959 268.80984,279.51907   C 270.24839,280.19839 271.32731,280.91767 272.08654,281.55702   C 273.68494,283.03554 275.20341,284.87369 276.602,287.07148   L 283.79478,298.26024   L 276.92168,298.26024   L 271.48714,289.70883   C 269.88875,287.23132 268.57008,285.31325 267.53112,284.03453   C 266.53212,282.71586 265.57309,281.79678 264.77389,281.27731   C 263.97469,280.75783 263.13554,280.35823 262.29638,280.15843   C 261.65702,280.03855 260.65803,279.95863 259.25943,279.95863   L 252.94578,279.95863   L 252.94578,298.26024   z  M 252.94578,275.24337   L 264.65401,275.24337   C 267.13152,275.24337 269.08955,275.00361 270.48815,274.48413   C 271.88674,273.96465 272.96566,273.1255 273.68494,272.00662   C 274.44417,270.88775 274.80381,269.64899 274.80381,268.33032   C 274.80381,266.37229 274.08453,264.77389 272.68594,263.49518   C 271.24739,262.25642 269.00963,261.61706 265.97269,261.61706   L 252.94578,261.61706   z "
     style="fill:#000000;fill-rule:evenodd;fill-opacity:1;stroke:none;" />
</svg>
