<?xml version="1.0" encoding="UTF-8" standalone="no"?>
<svg
   xmlns:dc="http://purl.org/dc/elements/1.1/"
   xmlns:cc="http://creativecommons.org/ns#"
   xmlns:rdf="http://www.w3.org/1999/02/22-rdf-syntax-ns#"
   xmlns:svg="http://www.w3.org/2000/svg"
   xmlns="http://www.w3.org/2000/svg"
   id="svg19"
   height="101.85mm"
   width="101.85mm"
   version="1.0">
  <metadata
     id="metadata23">
    <rdf:RDF>
      <cc:Work
         rdf:about="">
        <dc:format>image/svg+xml</dc:format>
        <dc:type
           rdf:resource="http://purl.org/dc/dcmitype/StillImage" />
      </cc:Work>
    </rdf:RDF>
  </metadata>
  <defs
     id="defs3">
    <pattern
       y="0"
       x="0"
       height="6"
       width="6"
       patternUnits="userSpaceOnUse"
       id="EMFhbasepattern" />
  </defs>
  <path
     id="path5"
     d="  M 330.54779,192.44658   C 330.54779,268.72992 268.72992,330.54779 192.44658,330.54779   C 116.20321,330.54779 54.345381,268.72992 54.345381,192.44658   C 54.345381,116.20321 116.20321,54.345381 192.44658,54.345381   C 268.72992,54.345381 330.54779,116.20321 330.54779,192.44658   z "
     style="fill:#80e0ff;fill-rule:evenodd;fill-opacity:1;stroke:none;" />
  <path
     id="path7"
     d="  M 330.54779,192.44658   C 330.54779,268.72992 268.72992,330.54779 192.44658,330.54779   C 116.20321,330.54779 54.345381,268.72992 54.345381,192.44658   C 54.345381,116.20321 116.20321,54.345381 192.44658,54.345381   C 268.72992,54.345381 330.54779,116.20321 330.54779,192.44658  "
     style="fill:none;stroke:#000000;stroke-width:9.5903616px;stroke-linecap:butt;stroke-linejoin:miter;stroke-miterlimit:10;stroke-dasharray:none;stroke-opacity:1;" />
  <path
     id="path9"
     d="  M 130.10924,264.37429   L 130.10924,264.37429   L 91.74779,187.6514   L 125.31405,187.6514   L 125.31405,154.08514   L 182.85622,154.08514   L 182.85622,187.6514   L 293.14538,187.6514   L 254.78393,264.37429   z "
     style="fill:#ffffff;fill-rule:evenodd;fill-opacity:1;stroke:none;" />
  <path
     id="path11"
     d="  M 130.10924,264.37429   L 130.10924,264.37429   L 91.74779,187.6514   L 125.31405,187.6514   L 125.31405,154.08514   L 182.85622,154.08514   L 182.85622,187.6514   L 293.14538,187.6514   L 254.78393,264.37429   z "
     style="fill:none;stroke:#000000;stroke-width:9.5903616px;stroke-linecap:butt;stroke-linejoin:miter;stroke-miterlimit:10;stroke-dasharray:none;stroke-opacity:1;" />
  <path
     id="path13"
     d="  M 205.87309,188.61044   L 205.87309,87.911645  "
     style="fill:none;stroke:#000000;stroke-width:9.5903616px;stroke-linecap:butt;stroke-linejoin:miter;stroke-miterlimit:10;stroke-dasharray:none;stroke-opacity:1;" />
  <path
     id="path15"
     d="  M 205.87309,187.6514   L 282.59598,110.92851  "
     style="fill:none;stroke:#000000;stroke-width:9.5903616px;stroke-linecap:butt;stroke-linejoin:miter;stroke-miterlimit:10;stroke-dasharray:none;stroke-opacity:1;" />
  <path
     id="path17"
     d="  M 169.03012,244.55421   L 169.03012,208.23072   L 155.44377,208.23072   L 155.44377,203.35562   L 188.09096,203.35562   L 188.09096,208.23072   L 174.46466,208.23072   L 174.46466,244.55421   z  M 193.76526,244.55421   L 193.76526,203.35562   L 212.0269,203.35562   C 215.70321,203.35562 218.5004,203.75522 220.41847,204.4745   C 222.33654,205.23373 223.85502,206.51245 224.97389,208.39056   C 226.13273,210.26867 226.69217,212.34658 226.69217,214.62429   C 226.69217,217.54136 225.77309,219.97891 223.85502,221.9769   C 221.9769,224.01486 219.05984,225.29357 215.10381,225.81305   C 216.54237,226.49237 217.62128,227.21164 218.38052,227.851   C 219.97891,229.32951 221.49739,231.16767 222.89598,233.36546   L 230.08875,244.55421   L 223.21566,244.55421   L 217.78112,236.00281   C 216.18273,233.5253 214.86405,231.60723 213.8251,230.32851   C 212.8261,229.00984 211.86707,228.09076 211.06787,227.57128   C 210.26867,227.0518 209.42952,226.65221 208.59036,226.45241   C 207.951,226.33253 206.95201,226.25261 205.55341,226.25261   L 199.23976,226.25261   L 199.23976,244.55421   z  M 199.23976,221.53735   L 210.94799,221.53735   C 213.4255,221.53735 215.38353,221.29759 216.78213,220.77811   C 218.18072,220.25863 219.25964,219.41947 219.97891,218.3006   C 220.73815,217.18172 221.09779,215.94297 221.09779,214.62429   C 221.09779,212.66626 220.37851,211.06787 218.97992,209.78915   C 217.54136,208.5504 215.30361,207.91104 212.26666,207.91104   L 199.23976,207.91104   z "
     style="fill:#000000;fill-rule:evenodd;fill-opacity:1;stroke:none;" />
</svg>
