<?xml version="1.0" encoding="UTF-8" standalone="no"?>
<svg
   xmlns:dc="http://purl.org/dc/elements/1.1/"
   xmlns:cc="http://creativecommons.org/ns#"
   xmlns:rdf="http://www.w3.org/1999/02/22-rdf-syntax-ns#"
   xmlns:svg="http://www.w3.org/2000/svg"
   xmlns="http://www.w3.org/2000/svg"
   id="svg19"
   height="116.73mm"
   width="116.73mm"
   version="1.0">
  <metadata
     id="metadata23">
    <rdf:RDF>
      <cc:Work
         rdf:about="">
        <dc:format>image/svg+xml</dc:format>
        <dc:type
           rdf:resource="http://purl.org/dc/dcmitype/StillImage" />
      </cc:Work>
    </rdf:RDF>
  </metadata>
  <defs
     id="defs3">
    <pattern
       y="0"
       x="0"
       height="6"
       width="6"
       patternUnits="userSpaceOnUse"
       id="EMFhbasepattern" />
  </defs>
  <path
     id="path5"
     d="  M 220.57831,386.49156   L 220.57831,386.49156   L 386.49156,220.57831   L 220.57831,54.665059   L 54.665059,220.57831   z "
     style="fill:#ff8080;fill-rule:evenodd;fill-opacity:1;stroke:none;" />
  <path
     id="path7"
     d="  M 220.57831,386.49156   L 220.57831,386.49156   L 386.49156,220.57831   L 220.57831,54.665059   L 54.665059,220.57831   z "
     style="fill:none;stroke:#000000;stroke-width:9.5903616px;stroke-linecap:butt;stroke-linejoin:miter;stroke-miterlimit:10;stroke-dasharray:none;stroke-opacity:1;" />
  <path
     id="path9"
     d="  M 158.24096,292.50602   L 158.24096,292.50602   L 119.87952,215.78313   L 153.44578,215.78313   L 153.44578,182.21686   L 210.98795,182.21686   L 210.98795,215.78313   L 321.2771,215.78313   L 282.91566,292.50602   z "
     style="fill:#ffffff;fill-rule:evenodd;fill-opacity:1;stroke:none;" />
  <path
     id="path11"
     d="  M 158.24096,292.50602   L 158.24096,292.50602   L 119.87952,215.78313   L 153.44578,215.78313   L 153.44578,182.21686   L 210.98795,182.21686   L 210.98795,215.78313   L 321.2771,215.78313   L 282.91566,292.50602   z "
     style="fill:none;stroke:#000000;stroke-width:9.5903616px;stroke-linecap:butt;stroke-linejoin:miter;stroke-miterlimit:10;stroke-dasharray:none;stroke-opacity:1;" />
  <path
     id="path13"
     d="  M 234.00482,216.74217   L 234.00482,116.04337  "
     style="fill:none;stroke:#000000;stroke-width:9.5903616px;stroke-linecap:butt;stroke-linejoin:miter;stroke-miterlimit:10;stroke-dasharray:none;stroke-opacity:1;" />
  <path
     id="path15"
     d="  M 234.00482,215.78313   L 310.72771,139.06024  "
     style="fill:none;stroke:#000000;stroke-width:9.5903616px;stroke-linecap:butt;stroke-linejoin:miter;stroke-miterlimit:10;stroke-dasharray:none;stroke-opacity:1;" />
  <path
     id="path17"
     d="  M 197.16184,272.68594   L 197.16184,236.36245   L 183.5755,236.36245   L 183.5755,231.48735   L 216.22269,231.48735   L 216.22269,236.36245   L 202.59638,236.36245   L 202.59638,272.68594   z  M 221.89698,272.68594   L 221.89698,231.48735   L 240.15863,231.48735   C 243.83494,231.48735 246.63212,231.88694 248.5502,232.60622   C 250.46827,233.36546 251.98674,234.64417 253.10562,236.52229   C 254.26445,238.4004 254.82389,240.47831 254.82389,242.75602   C 254.82389,245.67309 253.90482,248.11064 251.98674,250.10863   C 250.10863,252.14658 247.19156,253.4253 243.23554,253.94478   C 244.67409,254.62409 245.75301,255.34337 246.51225,255.98273   C 248.11064,257.46124 249.62911,259.29939 251.02771,261.49718   L 258.22048,272.68594   L 251.34739,272.68594   L 245.91285,264.13453   C 244.31445,261.65702 242.99578,259.73895 241.95682,258.46024   C 240.95783,257.14156 239.99879,256.22249 239.19959,255.70301   C 238.4004,255.18353 237.56124,254.78393 236.72208,254.58413   C 236.08273,254.46425 235.08373,254.38433 233.68514,254.38433   L 227.37148,254.38433   L 227.37148,272.68594   z  M 227.37148,249.66907   L 239.07972,249.66907   C 241.55723,249.66907 243.51526,249.42931 244.91385,248.90984   C 246.31245,248.39036 247.39136,247.5512 248.11064,246.43233   C 248.86988,245.31345 249.22951,244.0747 249.22951,242.75602   C 249.22951,240.79799 248.51024,239.19959 247.11164,237.92088   C 245.67309,236.68213 243.43534,236.04277 240.39839,236.04277   L 227.37148,236.04277   z "
     style="fill:#000000;fill-rule:evenodd;fill-opacity:1;stroke:none;" />
</svg>
