<?xml version="1.0" encoding="UTF-8" standalone="no"?>
<svg
   xmlns:dc="http://purl.org/dc/elements/1.1/"
   xmlns:cc="http://creativecommons.org/ns#"
   xmlns:rdf="http://www.w3.org/1999/02/22-rdf-syntax-ns#"
   xmlns:svg="http://www.w3.org/2000/svg"
   xmlns="http://www.w3.org/2000/svg"
   id="svg19"
   height="116.73mm"
   width="116.73mm"
   version="1.0">
  <metadata
     id="metadata23">
    <rdf:RDF>
      <cc:Work
         rdf:about="">
        <dc:format>image/svg+xml</dc:format>
        <dc:type
           rdf:resource="http://purl.org/dc/dcmitype/StillImage" />
      </cc:Work>
    </rdf:RDF>
  </metadata>
  <defs
     id="defs3">
    <pattern
       y="0"
       x="0"
       height="6"
       width="6"
       patternUnits="userSpaceOnUse"
       id="EMFhbasepattern" />
  </defs>
  <path
     id="path5"
     d="  M 172.6265,43.156626   L 172.6265,100.69879   L 268.53012,100.69879   L 268.53012,43.156626   L 172.6265,43.156626   z "
     style="fill:#000000;fill-rule:evenodd;fill-opacity:1;stroke:none;" />
  <path
     id="path7"
     d="  M 220.57831,386.49156   L 220.57831,386.49156   L 386.49156,220.57831   L 220.57831,54.665059   L 54.665059,220.57831   L 220.57831,386.49156   z "
     style="fill:#ff8080;fill-rule:evenodd;fill-opacity:1;stroke:none;" />
  <path
     id="path9"
     d="  M 220.57831,386.49156   L 220.57831,386.49156   L 386.49156,220.57831   L 220.57831,54.665059   L 54.665059,220.57831   L 220.57831,386.49156  "
     style="fill:none;stroke:#000000;stroke-width:9.5903616px;stroke-linecap:butt;stroke-linejoin:miter;stroke-miterlimit:10;stroke-dasharray:none;stroke-opacity:1;" />
  <path
     id="path11"
     d="  M 212.70622,173.46566   L 220.97791,167.87128   C 221.9769,168.71044 228.01084,172.4267 228.01084,173.38574   C 228.01084,176.06305 226.09277,177.98112 225.49337,180.45863   L 225.89297,180.05903   L 227.93092,182.05703   L 227.53132,182.49658   L 224.01486,182.9761   L 224.01486,184.97409   C 229.64919,184.49458 240.11867,177.42168 246.15261,177.42168   L 248.67008,177.42168   C 252.30642,177.42168 259.37931,181.49759 262.25642,182.9761   C 265.33333,184.49458 273.76486,186.25281 273.84478,190.52851   L 232.04678,190.52851   C 228.37048,190.52851 226.81204,189.64939 224.01486,189.01004   L 224.01486,217.7012   C 227.49136,217.42148 231.76706,216.06285 234.76405,214.90401   C 238.64016,213.38554 242.11666,213.38554 242.11666,208.1508   C 242.11666,206.83213 240.31847,205.63333 239.59919,205.63333   C 235.80301,205.63333 233.04578,208.91004 229.36947,204.75421   C 226.49237,201.51747 229.40943,197.04197 233.04578,197.04197   L 238.08072,197.04197   C 245.15361,197.04197 252.18654,199.1998 252.18654,206.11285   L 252.18654,206.63233   C 252.18654,215.22369 239.47931,221.21767 231.04779,221.21767   L 231.04779,222.21666   C 235.12369,223.1757 241.11767,227.13172 241.11767,231.80702   C 241.11767,242.0767 229.72911,242.19658 227.01184,245.91285   C 228.2506,246.19257 238.87992,251.74698 240.31847,252.74598   C 243.99478,255.22349 248.1506,259.61907 248.1506,265.53313   C 245.59317,264.85381 245.87289,261.61706 244.23453,259.93875   C 242.99578,258.66004 239.87891,256.94176 237.92088,256.14257   C 233.1257,254.10461 228.49036,252.10662 224.01486,249.90883   L 224.01486,266.05261   L 216.42249,266.05261   L 216.42249,250.42831   C 213.70522,251.06767 206.75221,254.66405 203.8751,255.98273   C 200.11887,257.66104 195.20381,260.69799 194.80421,265.53313   C 194.04498,265.37329 193.28574,265.41325 193.28574,264.53413   C 193.28574,251.98674 212.90602,248.67008 213.90502,244.87389   C 208.98996,243.75502 199.83915,238.68012 199.83915,232.80602   C 199.83915,227.01184 205.07389,223.33554 209.90903,222.21666   L 209.90903,221.21767   C 202.19678,221.21767 189.2498,215.34357 189.2498,208.1508   L 189.2498,204.59437   C 189.2498,199 197.68132,197.04197 203.83514,197.04197   L 207.87108,197.04197   C 210.42851,197.04197 212.90602,199.23976 212.90602,201.59739   C 212.90602,209.50943 204.63433,205.63333 202.35662,205.63333   C 200.23875,205.63333 199.51948,207.31164 199,208.63032   L 199.31968,211.66727   C 203.79518,214.62429 210.50843,216.30261 216.42249,217.7012   L 216.50241,189.28976   L 207.87108,190.52851   L 168.11104,190.52851   C 166.59257,190.52851 166.71245,189.92911 166.59257,188.49056   C 172.14699,187.21184 186.73233,177.42168 191.76727,177.42168   L 194.28474,177.42168   C 199.31968,177.42168 210.86807,183.65542 216.42249,184.97409   L 216.42249,182.9761   L 214.94397,182.9761   C 214.10482,182.9761 213.4255,182.65642 213.4255,181.93715   C 213.4255,180.37871 214.34458,180.53855 215.30361,179.97911   z  M 196.28273,142.65662   L 244.63413,142.65662   L 244.63413,160.31887   L 196.28273,160.31887   z  M 181.17791,141.17811   L 181.17791,160.31887   L 173.6255,160.31887   C 158.04116,160.31887 157.20201,171.70743 151.48775,179.93915   C 146.85241,186.65241 131.86747,186.85221 131.86747,202.59638   L 131.86747,274.60401   L 309.08935,274.60401   L 309.08935,206.63233   C 309.08935,199.11988 307.29116,193.9251 303.69477,189.88915   C 300.05843,185.81325 294.22429,184.93413 290.34819,181.05803   C 282.71586,173.46566 285.03353,160.31887 266.29237,160.31887   L 259.25943,160.31887   L 259.25943,141.65763   C 259.25943,131.50783 251.18755,126.07329 240.59819,126.07329   L 200.31867,126.07329   C 190.12891,126.07329 181.17791,131.98735 181.17791,141.17811   L 181.17791,141.17811   z "
     style="fill:#000000;fill-rule:evenodd;fill-opacity:1;stroke:none;" />
  <path
     id="path13"
     d="  M 163.99518,166.87229   L 163.99518,268.53012   L 277.16144,268.53012   L 277.16144,166.87229   L 163.99518,166.87229   z "
     style="fill:#000000;fill-rule:evenodd;fill-opacity:1;stroke:none;" />
  <path
     id="path15"
     d="  M 163.99518,166.87229   L 277.16144,166.87229   L 277.16144,268.53012   L 163.99518,268.53012   z "
     style="fill:none;stroke:#000000;stroke-width:0.95903611px;stroke-linecap:butt;stroke-linejoin:miter;stroke-miterlimit:10;stroke-dasharray:none;stroke-opacity:1;" />
  <path
     id="path17"
     d="  M 198.08092,217.86104   L 198.08092,217.86104   L 179.73935,228.6502   L 190.64839,247.63112   L 209.1498,236.96184   L 209.18976,258.18052   L 231.04779,258.18052   L 231.04779,237.08172   L 249.54919,247.67108   L 260.65803,228.85   L 242.31646,217.901   L 260.73795,207.19176   L 249.58915,188.21084   L 231.08775,198.84016   L 231.04779,177.42168   L 209.18976,177.42168   L 209.18976,198.76024   L 190.68835,188.17088   L 179.77931,207.1518   z "
     style="fill:#ffffff;fill-rule:evenodd;fill-opacity:1;stroke:none;" />
</svg>
