<?xml version="1.0" encoding="UTF-8" standalone="no"?>
<svg
   xmlns:dc="http://purl.org/dc/elements/1.1/"
   xmlns:cc="http://creativecommons.org/ns#"
   xmlns:rdf="http://www.w3.org/1999/02/22-rdf-syntax-ns#"
   xmlns:svg="http://www.w3.org/2000/svg"
   xmlns="http://www.w3.org/2000/svg"
   id="svg19"
   height="95.75mm"
   width="95.75mm"
   version="1.0">
  <metadata
     id="metadata23">
    <rdf:RDF>
      <cc:Work
         rdf:about="">
        <dc:format>image/svg+xml</dc:format>
        <dc:type
           rdf:resource="http://purl.org/dc/dcmitype/StillImage" />
      </cc:Work>
    </rdf:RDF>
  </metadata>
  <defs
     id="defs3">
    <pattern
       y="0"
       x="0"
       height="6"
       width="6"
       patternUnits="userSpaceOnUse"
       id="EMFhbasepattern" />
  </defs>
  <path
     id="path5"
     d="  M 132.98634,15.983936   L 132.98634,54.345381   L 228.88996,54.345381   L 228.88996,15.983936   L 132.98634,15.983936   z "
     style="fill:#000000;fill-rule:evenodd;fill-opacity:1;stroke:none;" />
  <path
     id="path7"
     d="  M 54.345381,54.345381   L 54.345381,307.53092   L 307.53092,307.53092   L 307.53092,54.345381   L 54.345381,54.345381   z "
     style="fill:#aaffaa;fill-rule:evenodd;fill-opacity:1;stroke:none;" />
  <path
     id="path9"
     d="  M 54.345381,54.345381   L 307.53092,54.345381   L 307.53092,307.53092   L 54.345381,307.53092   z "
     style="fill:none;stroke:#000000;stroke-width:9.5903616px;stroke-linecap:butt;stroke-linejoin:miter;stroke-miterlimit:10;stroke-dasharray:none;stroke-opacity:1;" />
  <path
     id="path11"
     d="  M 173.06606,133.8255   L 181.33775,128.23112   C 182.33674,129.07028 188.37068,132.78654 188.37068,133.74558   C 188.37068,136.42289 186.45261,138.34096 185.85321,140.81847   L 186.25281,140.41887   L 188.29076,142.41687   L 187.89116,142.85642   L 184.3747,143.33594   L 184.3747,145.33393   C 190.00903,144.85442 200.47851,137.78152 206.51245,137.78152   L 209.02992,137.78152   C 212.66626,137.78152 219.73915,141.85743 222.61626,143.33594   C 225.69317,144.85442 234.1247,146.61265 234.20462,150.88835   L 192.40662,150.88835   C 188.73032,150.88835 187.17188,150.00923 184.3747,149.36988   L 184.3747,178.06104   C 187.8512,177.78132 192.1269,176.42269 195.12389,175.26385   C 199,173.74538 202.4765,173.74538 202.4765,168.51064   C 202.4765,167.19197 200.67831,165.99317 199.95903,165.99317   C 196.16285,165.99317 193.40562,169.26988 189.72931,165.11405   C 186.85221,161.87731 189.76927,157.4018 193.40562,157.4018   L 198.44056,157.4018   C 205.51345,157.4018 212.54638,159.55964 212.54638,166.47269   L 212.54638,166.99217   C 212.54638,175.58353 199.83915,181.57751 191.40763,181.57751   L 191.40763,182.5765   C 195.48353,183.53554 201.47751,187.49156 201.47751,192.16686   C 201.47751,202.43654 190.08895,202.55642 187.37168,206.27269   C 188.61044,206.55241 199.23976,212.10682 200.67831,213.10582   C 204.35462,215.58333 208.51044,219.97891 208.51044,225.89297   C 205.95301,225.21365 206.23273,221.9769 204.59437,220.29859   C 203.35562,219.01988 200.23875,217.3016 198.28072,216.50241   C 193.48554,214.46445 188.8502,212.46646 184.3747,210.26867   L 184.3747,226.41245   L 176.78233,226.41245   L 176.78233,210.78815   C 174.06506,211.42751 167.11205,215.02389 164.23494,216.34257   C 160.47871,218.02088 155.56365,221.05783 155.16405,225.89297   C 154.40482,225.73313 153.64558,225.77309 153.64558,224.89397   C 153.64558,212.34658 173.26586,209.02992 174.26486,205.23373   C 169.3498,204.11486 160.19899,199.03996 160.19899,193.16586   C 160.19899,187.37168 165.43373,183.69538 170.26887,182.5765   L 170.26887,181.57751   C 162.55662,181.57751 149.60964,175.70341 149.60964,168.51064   L 149.60964,164.95421   C 149.60964,159.35984 158.04116,157.4018 164.19498,157.4018   L 168.23092,157.4018   C 170.78835,157.4018 173.26586,159.5996 173.26586,161.95723   C 173.26586,169.86927 164.99417,165.99317 162.71646,165.99317   C 160.59859,165.99317 159.87931,167.67148 159.35984,168.99016   L 159.67952,172.02711   C 164.15502,174.98413 170.86827,176.66245 176.78233,178.06104   L 176.86225,149.6496   L 168.23092,150.88835   L 128.47088,150.88835   C 126.95241,150.88835 127.07229,150.28895 126.95241,148.8504   C 132.50683,147.57168 147.09217,137.78152 152.12711,137.78152   L 154.64458,137.78152   C 159.67952,137.78152 171.22791,144.01526 176.78233,145.33393   L 176.78233,143.33594   L 175.30381,143.33594   C 174.46466,143.33594 173.78534,143.01626 173.78534,142.29699   C 173.78534,140.73855 174.70442,140.89839 175.66345,140.33895   z  M 156.64257,103.01646   L 204.99397,103.01646   L 204.99397,120.67871   L 156.64257,120.67871   z  M 141.53775,101.53795   L 141.53775,120.67871   L 133.98534,120.67871   C 118.401,120.67871 117.56185,132.06727 111.84759,140.29899   C 107.21225,147.01225 92.227308,147.21205 92.227308,162.95622   L 92.227308,234.96385   L 269.44919,234.96385   L 269.44919,166.99217   C 269.44919,159.47972 267.651,154.28494 264.05461,150.24899   C 260.41827,146.17309 254.58413,145.29397 250.70803,141.41787   C 243.0757,133.8255 245.39337,120.67871 226.65221,120.67871   L 219.61927,120.67871   L 219.61927,102.01747   C 219.61927,91.867669 211.54739,86.433131 200.95803,86.433131   L 160.67851,86.433131   C 150.48875,86.433131 141.53775,92.347187 141.53775,101.53795   L 141.53775,101.53795   z "
     style="fill:#000000;fill-rule:evenodd;fill-opacity:1;stroke:none;" />
  <path
     id="path13"
     d="  M 124.35502,127.23213   L 124.35502,228.88996   L 237.52128,228.88996   L 237.52128,127.23213   L 124.35502,127.23213   z "
     style="fill:#000000;fill-rule:evenodd;fill-opacity:1;stroke:none;" />
  <path
     id="path15"
     d="  M 124.35502,127.23213   L 237.52128,127.23213   L 237.52128,228.88996   L 124.35502,228.88996   z "
     style="fill:none;stroke:#000000;stroke-width:0.95903611px;stroke-linecap:butt;stroke-linejoin:miter;stroke-miterlimit:10;stroke-dasharray:none;stroke-opacity:1;" />
  <path
     id="path17"
     d="  M 158.44076,178.22088   L 158.44076,178.22088   L 140.09919,189.01004   L 151.00823,207.99096   L 169.50964,197.32168   L 169.5496,218.54036   L 191.40763,218.54036   L 191.40763,197.44156   L 209.90903,208.03092   L 221.01787,189.20984   L 202.6763,178.26084   L 221.09779,167.5516   L 209.94899,148.57068   L 191.44759,159.2   L 191.40763,137.78152   L 169.5496,137.78152   L 169.5496,159.12008   L 151.04819,148.53072   L 140.13915,167.51164   z "
     style="fill:#ffffff;fill-rule:evenodd;fill-opacity:1;stroke:none;" />
</svg>
