<?xml version="1.0" encoding="UTF-8" standalone="no"?>
<svg
   xmlns:dc="http://purl.org/dc/elements/1.1/"
   xmlns:cc="http://creativecommons.org/ns#"
   xmlns:rdf="http://www.w3.org/1999/02/22-rdf-syntax-ns#"
   xmlns:svg="http://www.w3.org/2000/svg"
   xmlns="http://www.w3.org/2000/svg"
   id="svg17"
   height="111.99mm"
   width="74.110001mm"
   version="1.0">
  <metadata
     id="metadata21">
    <rdf:RDF>
      <cc:Work
         rdf:about="">
        <dc:format>image/svg+xml</dc:format>
        <dc:type
           rdf:resource="http://purl.org/dc/dcmitype/StillImage" />
      </cc:Work>
    </rdf:RDF>
  </metadata>
  <defs
     id="defs3">
    <pattern
       y="0"
       x="0"
       height="6"
       width="6"
       patternUnits="userSpaceOnUse"
       id="EMFhbasepattern" />
  </defs>
  <path
     id="path5"
     d="  M 77.362248,239.55923   C 30.968875,155.56365 121.67771,52.10763 188.49056,30.729116   C 188.49056,30.729116 139.93936,102.73675 139.6996,143.61566   z "
     style="fill:#c61021;fill-rule:evenodd;fill-opacity:1;stroke:none;" />
  <path
     id="path7"
     d="  M 77.362248,239.55923   C 30.968875,155.56365 121.67771,52.10763 188.49056,30.729116   C 188.49056,30.729116 139.93936,102.73675 139.6996,143.61566  "
     style="fill:none;stroke:#c61021;stroke-width:4.7951808px;stroke-linecap:butt;stroke-linejoin:miter;stroke-miterlimit:10;stroke-dasharray:none;stroke-opacity:1;" />
  <path
     id="path9"
     d="  M 202.71626,183.73534   C 249.10963,267.73092 158.4008,371.18694 91.58795,392.56546   C 91.58795,392.56546 140.13915,320.55783 140.37891,279.67891   z "
     style="fill:#c61021;fill-rule:evenodd;fill-opacity:1;stroke:none;" />
  <path
     id="path11"
     d="  M 202.71626,183.73534   C 249.10963,267.73092 158.4008,371.18694 91.58795,392.56546   C 91.58795,392.56546 140.13915,320.55783 140.37891,279.67891  "
     style="fill:none;stroke:#c61021;stroke-width:4.7951808px;stroke-linecap:butt;stroke-linejoin:miter;stroke-miterlimit:10;stroke-dasharray:none;stroke-opacity:1;" />
  <path
     id="path13"
     d="  M 207.1518,211.62731   C 207.1518,248.71004 177.10201,278.75984 140.01928,278.75984   C 102.9765,278.75984 72.886746,248.71004 72.886746,211.62731   C 72.886746,174.58454 102.9765,144.49478 140.01928,144.49478   C 177.10201,144.49478 207.1518,174.58454 207.1518,211.62731   z "
     style="fill:#ffffff;fill-rule:evenodd;fill-opacity:1;stroke:none;" />
  <path
     id="path15"
     d="  M 207.1518,211.62731   C 207.1518,248.71004 177.10201,278.75984 140.01928,278.75984   C 102.9765,278.75984 72.886746,248.71004 72.886746,211.62731   C 72.886746,174.58454 102.9765,144.49478 140.01928,144.49478   C 177.10201,144.49478 207.1518,174.58454 207.1518,211.62731  "
     style="fill:none;stroke:#c61021;stroke-width:9.5903616px;stroke-linecap:butt;stroke-linejoin:miter;stroke-miterlimit:10;stroke-dasharray:none;stroke-opacity:1;" />
</svg>
