<?xml version="1.0" encoding="UTF-8" standalone="no"?>
<svg
   xmlns:dc="http://purl.org/dc/elements/1.1/"
   xmlns:cc="http://creativecommons.org/ns#"
   xmlns:rdf="http://www.w3.org/1999/02/22-rdf-syntax-ns#"
   xmlns:svg="http://www.w3.org/2000/svg"
   xmlns="http://www.w3.org/2000/svg"
   id="svg11"
   height="89.669998mm"
   width="120.11mm"
   version="1.0">
  <metadata
     id="metadata15">
    <rdf:RDF>
      <cc:Work
         rdf:about="">
        <dc:format>image/svg+xml</dc:format>
        <dc:type
           rdf:resource="http://purl.org/dc/dcmitype/StillImage" />
      </cc:Work>
    </rdf:RDF>
  </metadata>
  <defs
     id="defs3">
    <pattern
       y="0"
       x="0"
       height="6"
       width="6"
       patternUnits="userSpaceOnUse"
       id="EMFhbasepattern" />
  </defs>
  <path
     id="path5"
     d="  M 54.345381,54.345381   L 54.345381,284.51405   L 399.59839,284.51405   L 399.59839,54.345381   L 54.345381,54.345381   z "
     style="fill:#80e0ff;fill-rule:evenodd;fill-opacity:1;stroke:none;" />
  <path
     id="path7"
     d="  M 54.345381,54.345381   L 399.59839,54.345381   L 399.59839,284.51405   L 54.345381,284.51405   z "
     style="fill:none;stroke:#000000;stroke-width:9.5903616px;stroke-linecap:butt;stroke-linejoin:miter;stroke-miterlimit:10;stroke-dasharray:none;stroke-opacity:1;" />
  <path
     id="path9"
     d="  M 163.35582,194.36466   L 163.35582,136.86245   L 141.85743,136.86245   L 141.85743,129.1502   L 193.56546,129.1502   L 193.56546,136.86245   L 171.98715,136.86245   L 171.98715,194.36466   z  M 199.47952,173.4257   L 207.59136,172.70642   C 207.99096,175.98313 208.87008,178.66044 210.30863,180.73835   C 211.70723,182.85622 213.90502,184.53454 216.86205,185.81325   C 219.81907,187.13193 223.1757,187.77128 226.852,187.77128   C 230.16867,187.77128 233.08574,187.2518 235.60321,186.29277   C 238.12068,185.29377 239.99879,183.9751 241.19759,182.25682   C 242.43634,180.57851 243.0757,178.7004 243.0757,176.66245   C 243.0757,174.6245 242.4763,172.86626 241.27751,171.30783   C 240.07871,169.78935 238.12068,168.51064 235.40341,167.47168   C 233.64518,166.79237 229.80903,165.71345 223.81506,164.2749   C 217.82108,162.83634 213.6253,161.47771 211.22771,160.19899   C 208.11084,158.6006 205.79317,156.56265 204.23474,154.16506   C 202.71626,151.72751 201.95703,149.01024 201.95703,146.01325   C 201.95703,142.73654 202.8761,139.65964 204.75421,136.78253   C 206.63233,133.94538 209.3496,131.74759 212.94598,130.26907   C 216.54237,128.79056 220.53835,128.07128 224.89397,128.07128   C 229.72911,128.07128 234.00482,128.83052 237.68112,130.38895   C 241.39739,131.94739 244.23453,134.2251 246.23253,137.26205   C 248.19056,140.29899 249.26947,143.73554 249.42931,147.53172   L 241.15763,148.17108   C 240.71807,144.05522 239.19959,140.93835 236.64217,138.82048   C 234.08474,136.70261 230.28855,135.66365 225.25361,135.66365   C 220.05883,135.66365 216.26265,136.62269 213.86506,138.54076   C 211.46747,140.45883 210.26867,142.73654 210.26867,145.45381   C 210.26867,147.81144 211.10783,149.72952 212.8261,151.24799   C 214.46445,152.76646 218.82008,154.28494 225.81305,155.88333   C 232.84598,157.48172 237.64116,158.84036 240.23855,160.03915   C 244.0747,161.79739 246.87188,163.99518 248.67008,166.71245   C 250.46827,169.38976 251.38735,172.46666 251.38735,175.98313   C 251.38735,179.41968 250.38835,182.69638 248.39036,185.77329   C 246.43233,188.8502 243.55522,191.24779 239.83895,192.9261   C 236.12269,194.64437 231.9269,195.48353 227.2516,195.48353   C 221.37751,195.48353 216.42249,194.64437 212.4265,192.9261   C 208.43052,191.20783 205.31365,188.61044 203.03594,185.17389   C 200.75823,181.69739 199.59939,177.78132 199.47952,173.4257   z  M 256.02269,194.36466   L 281.03755,129.1502   L 290.34819,129.1502   L 317.04136,194.36466   L 307.21124,194.36466   L 299.61887,174.6245   L 272.3263,174.6245   L 265.17349,194.36466   z  M 274.84377,167.59156   L 296.94156,167.59156   L 290.10843,149.52972   C 288.07048,144.05522 286.51204,139.53976 285.51305,136.02329   C 284.67389,140.21907 283.51506,144.33494 281.99658,148.49076   z "
     style="fill:#000000;fill-rule:evenodd;fill-opacity:1;stroke:none;" />
</svg>
