<?xml version="1.0" encoding="UTF-8" standalone="no"?>
<svg
   xmlns:dc="http://purl.org/dc/elements/1.1/"
   xmlns:cc="http://creativecommons.org/ns#"
   xmlns:rdf="http://www.w3.org/1999/02/22-rdf-syntax-ns#"
   xmlns:svg="http://www.w3.org/2000/svg"
   xmlns="http://www.w3.org/2000/svg"
   id="svg11"
   height="95.75mm"
   width="95.75mm"
   version="1.0">
  <metadata
     id="metadata15">
    <rdf:RDF>
      <cc:Work
         rdf:about="">
        <dc:format>image/svg+xml</dc:format>
        <dc:type
           rdf:resource="http://purl.org/dc/dcmitype/StillImage" />
      </cc:Work>
    </rdf:RDF>
  </metadata>
  <defs
     id="defs3">
    <pattern
       y="0"
       x="0"
       height="6"
       width="6"
       patternUnits="userSpaceOnUse"
       id="EMFhbasepattern" />
  </defs>
  <path
     id="path5"
     d="  M 54.345381,54.345381   L 54.345381,307.53092   L 307.53092,307.53092   L 307.53092,54.345381   L 54.345381,54.345381   z "
     style="fill:#aaffaa;fill-rule:evenodd;fill-opacity:1;stroke:none;" />
  <path
     id="path7"
     d="  M 54.345381,54.345381   L 307.53092,54.345381   L 307.53092,307.53092   L 54.345381,307.53092   z "
     style="fill:none;stroke:#000000;stroke-width:9.5903616px;stroke-linecap:butt;stroke-linejoin:miter;stroke-miterlimit:10;stroke-dasharray:none;stroke-opacity:1;" />
  <path
     id="path9"
     d="  M 117.32209,205.87309   L 117.32209,148.37088   L 95.823693,148.37088   L 95.823693,140.65863   L 147.53172,140.65863   L 147.53172,148.37088   L 125.95341,148.37088   L 125.95341,205.87309   z  M 153.44578,184.93413   L 161.55763,184.21486   C 161.95723,187.49156 162.83634,190.16887 164.2749,192.24678   C 165.67349,194.36466 167.87128,196.04297 170.82831,197.32168   C 173.78534,198.64036 177.14197,199.27972 180.81827,199.27972   C 184.13494,199.27972 187.05201,198.76024 189.56948,197.8012   C 192.08695,196.80221 193.96506,195.48353 195.16385,193.76526   C 196.40261,192.08695 197.04197,190.20883 197.04197,188.17088   C 197.04197,186.13293 196.44257,184.3747 195.24377,182.81626   C 194.04498,181.29779 192.08695,180.01907 189.36968,178.98012   C 187.61144,178.3008 183.7753,177.22188 177.78132,175.78333   C 171.78735,174.34478 167.59156,172.98614 165.19397,171.70743   C 162.07711,170.10903 159.75944,168.07108 158.201,165.67349   C 156.68253,163.23594 155.92329,160.51867 155.92329,157.52168   C 155.92329,154.24498 156.84237,151.16807 158.72048,148.29096   C 160.59859,145.45381 163.31586,143.25602 166.91225,141.77751   C 170.50863,140.29899 174.50462,139.57972 178.86024,139.57972   C 183.69538,139.57972 187.97108,140.33895 191.64739,141.89739   C 195.36365,143.45582 198.2008,145.73353 200.19879,148.77048   C 202.15682,151.80743 203.23574,155.24397 203.39558,159.04016   L 195.12389,159.67952   C 194.68433,155.56365 193.16586,152.44678 190.60843,150.32891   C 188.051,148.21104 184.25482,147.17209 179.21988,147.17209   C 174.0251,147.17209 170.22891,148.13112 167.83132,150.04919   C 165.43373,151.96727 164.23494,154.24498 164.23494,156.96225   C 164.23494,159.31988 165.07409,161.23795 166.79237,162.75642   C 168.43072,164.2749 172.78634,165.79337 179.77931,167.39176   C 186.81225,168.99016 191.60743,170.34879 194.20482,171.54759   C 198.04096,173.30582 200.83815,175.50361 202.63634,178.22088   C 204.43454,180.89819 205.35361,183.9751 205.35361,187.49156   C 205.35361,190.92811 204.35462,194.20482 202.35662,197.28172   C 200.39859,200.35863 197.52148,202.75622 193.80522,204.43454   C 190.08895,206.15281 185.89317,206.99196 181.21787,206.99196   C 175.34377,206.99196 170.38875,206.15281 166.39277,204.43454   C 162.39678,202.71626 159.27992,200.11887 157.00221,196.68233   C 154.7245,193.20582 153.56566,189.28976 153.44578,184.93413   z  M 209.98895,205.87309   L 235.00381,140.65863   L 244.31445,140.65863   L 271.00763,205.87309   L 261.17751,205.87309   L 253.58514,186.13293   L 226.29257,186.13293   L 219.13976,205.87309   z  M 228.81004,179.1   L 250.90783,179.1   L 244.0747,161.03815   C 242.03674,155.56365 240.47831,151.04819 239.47931,147.53172   C 238.64016,151.72751 237.48132,155.84337 235.96285,159.99919   z "
     style="fill:#000000;fill-rule:evenodd;fill-opacity:1;stroke:none;" />
</svg>
