<?xml version="1.0" encoding="UTF-8" standalone="no"?>
<svg
   xmlns:dc="http://purl.org/dc/elements/1.1/"
   xmlns:cc="http://creativecommons.org/ns#"
   xmlns:rdf="http://www.w3.org/1999/02/22-rdf-syntax-ns#"
   xmlns:svg="http://www.w3.org/2000/svg"
   xmlns="http://www.w3.org/2000/svg"
   id="svg11"
   height="116.73mm"
   width="116.73mm"
   version="1.0">
  <metadata
     id="metadata15">
    <rdf:RDF>
      <cc:Work
         rdf:about="">
        <dc:format>image/svg+xml</dc:format>
        <dc:type
           rdf:resource="http://purl.org/dc/dcmitype/StillImage" />
      </cc:Work>
    </rdf:RDF>
  </metadata>
  <defs
     id="defs3">
    <pattern
       y="0"
       x="0"
       height="6"
       width="6"
       patternUnits="userSpaceOnUse"
       id="EMFhbasepattern" />
  </defs>
  <path
     id="path5"
     d="  M 220.57831,386.49156   L 220.57831,386.49156   L 386.49156,220.57831   L 220.57831,54.665059   L 54.665059,220.57831   L 220.57831,386.49156   z "
     style="fill:#ff8080;fill-rule:evenodd;fill-opacity:1;stroke:none;" />
  <path
     id="path7"
     d="  M 220.57831,386.49156   L 220.57831,386.49156   L 386.49156,220.57831   L 220.57831,54.665059   L 54.665059,220.57831   L 220.57831,386.49156  "
     style="fill:none;stroke:#000000;stroke-width:9.5903616px;stroke-linecap:butt;stroke-linejoin:miter;stroke-miterlimit:10;stroke-dasharray:none;stroke-opacity:1;" />
  <path
     id="path9"
     d="  M 156.96225,245.51325   L 156.96225,188.01104   L 135.46385,188.01104   L 135.46385,180.29879   L 187.17188,180.29879   L 187.17188,188.01104   L 165.59357,188.01104   L 165.59357,245.51325   z  M 193.08594,224.57429   L 201.19779,223.85502   C 201.59739,227.13172 202.4765,229.80903 203.91506,231.88694   C 205.31365,234.00482 207.51144,235.68313 210.46847,236.96184   C 213.4255,238.28052 216.78213,238.91988 220.45843,238.91988   C 223.7751,238.91988 226.69217,238.4004 229.20964,237.44136   C 231.72711,236.44237 233.60522,235.12369 234.80401,233.40542   C 236.04277,231.72711 236.68213,229.84899 236.68213,227.81104   C 236.68213,225.77309 236.08273,224.01486 234.88393,222.45642   C 233.68514,220.93795 231.72711,219.65923 229.00984,218.62028   C 227.2516,217.94096 223.41546,216.86205 217.42148,215.42349   C 211.42751,213.98494 207.23172,212.6263 204.83413,211.34759   C 201.71727,209.74919 199.3996,207.71124 197.84116,205.31365   C 196.32269,202.8761 195.56345,200.15883 195.56345,197.16184   C 195.56345,193.88514 196.48253,190.80823 198.36064,187.93112   C 200.23875,185.09397 202.95602,182.89618 206.55241,181.41767   C 210.14879,179.93915 214.14478,179.21988 218.5004,179.21988   C 223.33554,179.21988 227.61124,179.97911 231.28755,181.53755   C 235.00381,183.09598 237.84096,185.37369 239.83895,188.41064   C 241.79698,191.44759 242.8759,194.88413 243.03574,198.68032   L 234.76405,199.31968   C 234.32449,195.20381 232.80602,192.08695 230.24859,189.96907   C 227.69116,187.8512 223.89498,186.81225 218.86004,186.81225   C 213.66526,186.81225 209.86907,187.77128 207.47148,189.68935   C 205.07389,191.60743 203.8751,193.88514 203.8751,196.60241   C 203.8751,198.96004 204.71425,200.87811 206.43253,202.39658   C 208.07088,203.91506 212.4265,205.43353 219.41947,207.03192   C 226.45241,208.63032 231.24759,209.98895 233.84498,211.18775   C 237.68112,212.94598 240.47831,215.14377 242.2765,217.86104   C 244.0747,220.53835 244.99377,223.61526 244.99377,227.13172   C 244.99377,230.56827 243.99478,233.84498 241.99678,236.92188   C 240.03875,239.99879 237.16164,242.39638 233.44538,244.0747   C 229.72911,245.79297 225.53333,246.63212 220.85803,246.63212   C 214.98393,246.63212 210.02891,245.79297 206.03293,244.0747   C 202.03694,242.35642 198.92008,239.75903 196.64237,236.32249   C 194.36466,232.84598 193.20582,228.92992 193.08594,224.57429   z  M 249.62911,245.51325   L 274.64397,180.29879   L 283.95461,180.29879   L 310.64779,245.51325   L 300.81767,245.51325   L 293.2253,225.77309   L 265.93273,225.77309   L 258.77992,245.51325   z  M 268.4502,218.74016   L 290.54799,218.74016   L 283.71486,200.67831   C 281.6769,195.20381 280.11847,190.68835 279.11947,187.17188   C 278.28032,191.36767 277.12148,195.48353 275.60301,199.63935   z "
     style="fill:#000000;fill-rule:evenodd;fill-opacity:1;stroke:none;" />
</svg>
