<?xml version="1.0" encoding="UTF-8" standalone="no"?>
<svg
   xmlns:dc="http://purl.org/dc/elements/1.1/"
   xmlns:cc="http://creativecommons.org/ns#"
   xmlns:rdf="http://www.w3.org/1999/02/22-rdf-syntax-ns#"
   xmlns:svg="http://www.w3.org/2000/svg"
   xmlns="http://www.w3.org/2000/svg"
   id="svg15"
   height="130.27mm"
   width="130.27mm"
   version="1.0">
  <metadata
     id="metadata19">
    <rdf:RDF>
      <cc:Work
         rdf:about="">
        <dc:format>image/svg+xml</dc:format>
        <dc:type
           rdf:resource="http://purl.org/dc/dcmitype/StillImage" />
      </cc:Work>
    </rdf:RDF>
  </metadata>
  <defs
     id="defs3">
    <pattern
       y="0"
       x="0"
       height="6"
       width="6"
       patternUnits="userSpaceOnUse"
       id="EMFhbasepattern" />
  </defs>
  <path
     id="path5"
     d="  M 164.63454,327.67068   C 164.63454,437.95983 327.67068,437.95983 327.67068,327.67068   C 437.95983,327.67068 437.95983,164.63454 327.67068,164.63454   C 327.67068,54.345381 164.63454,54.345381 164.63454,164.63454   C 54.345381,164.63454 54.345381,327.67068 164.63454,327.67068   z "
     style="fill:#ffff80;fill-rule:evenodd;fill-opacity:1;stroke:none;" />
  <path
     id="path7"
     d="  M 164.63454,327.67068   C 164.63454,437.95983 327.67068,437.95983 327.67068,327.67068   C 437.95983,327.67068 437.95983,164.63454 327.67068,164.63454   C 327.67068,54.345381 164.63454,54.345381 164.63454,164.63454   C 54.345381,164.63454 54.345381,327.67068 164.63454,327.67068  "
     style="fill:none;stroke:#000000;stroke-width:9.5903616px;stroke-linecap:butt;stroke-linejoin:miter;stroke-miterlimit:10;stroke-dasharray:none;stroke-opacity:1;" />
  <path
     id="path9"
     d="  M 183.81526,318.08032   L 183.81526,318.08032   L 145.45381,241.35743   L 193.40562,241.35743   L 193.40562,179.02008   L 298.89959,179.02008   L 298.89959,241.35743   L 346.8514,241.35743   L 308.48996,318.08032   z "
     style="fill:#ffffff;fill-rule:evenodd;fill-opacity:1;stroke:none;" />
  <path
     id="path11"
     d="  M 183.81526,318.08032   L 183.81526,318.08032   L 145.45381,241.35743   L 193.40562,241.35743   L 193.40562,179.02008   L 298.89959,179.02008   L 298.89959,241.35743   L 346.8514,241.35743   L 308.48996,318.08032   z "
     style="fill:none;stroke:#000000;stroke-width:9.5903616px;stroke-linecap:butt;stroke-linejoin:miter;stroke-miterlimit:10;stroke-dasharray:none;stroke-opacity:1;" />
  <path
     id="path13"
     d="  M 217.94096,288.66988   L 217.94096,252.34638   L 204.35462,252.34638   L 204.35462,247.47128   L 237.0018,247.47128   L 237.0018,252.34638   L 223.3755,252.34638   L 223.3755,288.66988   z  M 269.64899,247.47128   L 275.08353,247.47128   L 275.08353,271.28735   C 275.08353,275.40321 274.60401,278.71988 273.68494,281.15743   C 272.7259,283.59498 271.04759,285.55301 268.61004,287.07148   C 266.17249,288.62992 262.93574,289.38915 258.97972,289.38915   C 255.14357,289.38915 251.98674,288.70984 249.50923,287.39116   C 247.07168,286.03253 245.31345,284.11445 244.27449,281.59698   C 243.19558,279.07951 242.6761,275.64297 242.6761,271.28735   L 242.6761,247.47128   L 248.1506,247.47128   L 248.1506,271.24739   C 248.1506,274.84377 248.47028,277.48112 249.14959,279.15943   C 249.78895,280.87771 250.94779,282.15642 252.54618,283.0755   C 254.18453,283.99457 256.18253,284.47409 258.5002,284.47409   C 262.49618,284.47409 265.37329,283.55502 267.09156,281.71686   C 268.76988,279.91867 269.64899,276.44216 269.64899,271.24739   z "
     style="fill:#000000;fill-rule:evenodd;fill-opacity:1;stroke:none;" />
</svg>
