<?xml version="1.0" encoding="UTF-8" standalone="no"?>
<svg
   xmlns:dc="http://purl.org/dc/elements/1.1/"
   xmlns:cc="http://creativecommons.org/ns#"
   xmlns:rdf="http://www.w3.org/1999/02/22-rdf-syntax-ns#"
   xmlns:svg="http://www.w3.org/2000/svg"
   xmlns="http://www.w3.org/2000/svg"
   id="svg29"
   height="95.75mm"
   width="95.75mm"
   version="1.0">
  <metadata
     id="metadata33">
    <rdf:RDF>
      <cc:Work
         rdf:about="">
        <dc:format>image/svg+xml</dc:format>
        <dc:type
           rdf:resource="http://purl.org/dc/dcmitype/StillImage" />
      </cc:Work>
    </rdf:RDF>
  </metadata>
  <defs
     id="defs3">
    <pattern
       y="0"
       x="0"
       height="6"
       width="6"
       patternUnits="userSpaceOnUse"
       id="EMFhbasepattern" />
  </defs>
  <path
     id="path5"
     d="  M 132.98634,15.983936   L 132.98634,54.345381   L 228.88996,54.345381   L 228.88996,15.983936   L 132.98634,15.983936   z "
     style="fill:#000000;fill-rule:evenodd;fill-opacity:1;stroke:none;" />
  <path
     id="path7"
     d="  M 54.345381,54.345381   L 54.345381,307.53092   L 307.53092,307.53092   L 307.53092,54.345381   L 54.345381,54.345381   z "
     style="fill:#aaffaa;fill-rule:evenodd;fill-opacity:1;stroke:none;" />
  <path
     id="path9"
     d="  M 54.345381,54.345381   L 307.53092,54.345381   L 307.53092,307.53092   L 54.345381,307.53092   z "
     style="fill:none;stroke:#000000;stroke-width:9.5903616px;stroke-linecap:butt;stroke-linejoin:miter;stroke-miterlimit:10;stroke-dasharray:none;stroke-opacity:1;" />
  <path
     id="path11"
     d="  M 162.23695,113.80562   L 170.70843,132.70662   L 181.61747,131.18815   L 184.05502,131.18815   C 187.09197,131.18815 190.12891,131.86747 192.76626,132.54679   C 196.92209,133.6257 196.60241,132.30703 197.96104,128.91044   C 199.03996,126.15321 203.39558,116.16325 203.43554,113.80562   C 196.76225,112.24719 193.68534,109.37008 184.05502,109.37008   L 180.81827,109.37008   C 172.02711,109.37008 168.3508,112.36707 162.23695,113.80562   z "
     style="fill:#ffffff;fill-rule:evenodd;fill-opacity:1;stroke:none;" />
  <path
     id="path13"
     d="  M 127.47189,140.05923   L 145.65361,150.96827   C 148.77048,146.33293 161.59759,135.86345 167.83132,134.4249   L 158.6006,115.40401   C 151.24799,117.12229 131.30803,134.34498 127.47189,140.05923   z "
     style="fill:#ffffff;fill-rule:evenodd;fill-opacity:1;stroke:none;" />
  <path
     id="path15"
     d="  M 199.35964,135.46385   C 204.39458,136.70261 217.66124,148.77048 218.93996,153.16606   L 234.1247,138.46084   C 230.40843,132.86646 213.78514,117.40201 206.95201,115.76365   L 199.35964,135.46385   z "
     style="fill:#ffffff;fill-rule:evenodd;fill-opacity:1;stroke:none;" />
  <path
     id="path17"
     d="  M 166.67249,196.24277   C 166.67249,187.89116 172.8263,178.86024 180.81827,178.86024   C 188.33072,178.86024 194.1249,188.33072 194.1249,195.80321   L 194.1249,197.84116   L 166.67249,197.84116   z  M 231.88694,184.89417   L 253.54518,174.82429   C 253.86486,178.86024 255.34337,182.53654 256.06265,187.2518   C 256.702,191.60743 257.58112,195.24377 257.58112,200.67831   L 257.58112,201.87711   L 233.60522,201.83715   z  M 127.63173,196.60241   L 127.87148,201.87711   L 103.21626,201.87711   C 103.29618,198.04096 103.93554,192.68634 104.53494,189.05   C 104.81466,187.4516 105.09438,184.89417 105.65381,183.29578   C 105.85361,182.73634 107.25221,177.94116 107.33213,177.42168   L 129.50984,184.93413   z  M 221.21767,156.24297   L 236.16265,141.25803   C 237.68112,143.53574 239.19959,145.45381 240.83795,147.89136   C 242.63614,150.56867 243.55522,152.56666 245.19357,155.24397   C 246.752,157.8014 251.90682,168.67048 251.8269,171.74739   L 230.92791,181.69739   C 230.76807,175.74337 223.85502,160.15903 221.21767,156.24297   z  M 130.30903,181.25783   L 108.49096,173.98514   C 108.73072,171.18795 114.16526,159.83936 115.64377,157.32189   C 118.48092,152.36687 122.75662,147.21205 125.0743,142.81646   L 143.21606,153.40582   C 142.89638,154.56466 137.14217,163.63554 135.94337,166.31285   C 134.14518,170.38875 132.02731,177.98112 130.30903,181.25783   z  M 206.95201,115.76365   C 213.78514,117.40201 230.40843,132.86646 234.1247,138.46084   L 218.93996,153.16606   C 217.66124,148.77048 204.39458,136.70261 199.35964,135.46385   z  M 127.47189,140.05923   C 131.30803,134.34498 151.24799,117.12229 158.6006,115.40401   L 167.83132,134.4249   C 161.59759,135.86345 148.77048,146.33293 145.65361,150.96827   z  M 162.23695,113.80562   C 168.3508,112.36707 172.02711,109.37008 180.81827,109.37008   L 184.05502,109.37008   C 193.68534,109.37008 196.76225,112.24719 203.43554,113.80562   C 203.39558,116.16325 199.03996,126.15321 197.96104,128.91044   C 196.60241,132.30703 196.92209,133.6257 192.76626,132.54679   C 190.12891,131.86747 187.09197,131.18815 184.05502,131.18815   L 181.61747,131.18815   L 170.70843,132.70662   z  M 99.579918,203.51546   L 85.034537,203.51546   C 84.115461,203.51546 83.835742,203.79518 83.835742,204.71425   L 83.835742,205.11385   C 83.835742,206.03293 84.115461,206.31265 85.034537,206.31265   L 274.56405,206.31265   C 275.32329,206.31265 276.16245,205.59337 276.16245,205.11385   C 276.16245,204.15482 275.48313,203.51546 274.56405,203.51546   L 260.81787,203.51546   L 260.81787,199.87911   C 260.81787,175.62349 249.10963,150.96827 238.08072,137.74156   C 227.37148,124.95442 207.87108,105.73373 185.25381,105.73373   L 180.41867,105.73373   C 157.20201,105.73373 135.42389,125.91345 123.95542,138.54076   C 111.92751,151.80743 99.579918,178.22088 99.579918,203.51546   z "
     style="fill:#000000;fill-rule:evenodd;fill-opacity:1;stroke:none;" />
  <path
     id="path19"
     d="  M 130.30903,181.25783   C 132.02731,177.98112 134.14518,170.38875 135.94337,166.31285   C 137.14217,163.63554 142.89638,154.56466 143.21606,153.40582   L 125.0743,142.81646   C 122.75662,147.21205 118.48092,152.36687 115.64377,157.32189   C 114.16526,159.83936 108.73072,171.14799 108.49096,173.98514   z "
     style="fill:#ffffff;fill-rule:evenodd;fill-opacity:1;stroke:none;" />
  <path
     id="path21"
     d="  M 221.21767,156.24297   C 223.85502,160.15903 230.76807,175.74337 230.88795,181.69739   L 251.78694,171.74739   C 251.90682,168.67048 246.752,157.8014 245.19357,155.24397   C 243.55522,152.56666 242.63614,150.56867 240.83795,147.89136   C 239.19959,145.45381 237.68112,143.53574 236.16265,141.25803   z "
     style="fill:#ffffff;fill-rule:evenodd;fill-opacity:1;stroke:none;" />
  <path
     id="path23"
     d="  M 233.60522,201.83715   L 257.58112,201.87711   L 257.58112,200.67831   C 257.58112,195.24377 256.702,191.60743 256.06265,187.2518   C 255.34337,182.53654 253.86486,178.86024 253.54518,174.82429   L 231.88694,184.89417   z "
     style="fill:#ffffff;fill-rule:evenodd;fill-opacity:1;stroke:none;" />
  <path
     id="path25"
     d="  M 166.67249,197.84116   L 194.1249,197.84116   L 194.1249,195.80321   C 194.1249,188.33072 188.33072,178.86024 180.81827,178.86024   C 172.8263,178.86024 166.67249,187.89116 166.67249,196.24277   z "
     style="fill:#ffffff;fill-rule:evenodd;fill-opacity:1;stroke:none;" />
  <path
     id="path27"
     d="  M 129.50984,184.93413   L 107.33213,177.42168   C 107.25221,177.94116 105.85361,182.73634 105.65381,183.29578   C 105.09438,184.89417 104.81466,187.4516 104.53494,189.05   C 103.93554,192.68634 103.29618,198.04096 103.21626,201.87711   L 127.87148,201.87711   L 127.63173,196.60241   z "
     style="fill:#ffffff;fill-rule:evenodd;fill-opacity:1;stroke:none;" />
</svg>
