<?xml version="1.0" encoding="UTF-8" standalone="no"?>
<svg
   xmlns:dc="http://purl.org/dc/elements/1.1/"
   xmlns:cc="http://creativecommons.org/ns#"
   xmlns:rdf="http://www.w3.org/1999/02/22-rdf-syntax-ns#"
   xmlns:svg="http://www.w3.org/2000/svg"
   xmlns="http://www.w3.org/2000/svg"
   id="svg29"
   height="130.27mm"
   width="130.27mm"
   version="1.0">
  <metadata
     id="metadata33">
    <rdf:RDF>
      <cc:Work
         rdf:about="">
        <dc:format>image/svg+xml</dc:format>
        <dc:type
           rdf:resource="http://purl.org/dc/dcmitype/StillImage" />
      </cc:Work>
    </rdf:RDF>
  </metadata>
  <defs
     id="defs3">
    <pattern
       y="0"
       x="0"
       height="6"
       width="6"
       patternUnits="userSpaceOnUse"
       id="EMFhbasepattern" />
  </defs>
  <path
     id="path5"
     d="  M 198.2008,63.935742   L 198.2008,111.88755   L 294.10441,111.88755   L 294.10441,63.935742   L 198.2008,63.935742   z "
     style="fill:#000000;fill-rule:evenodd;fill-opacity:1;stroke:none;" />
  <path
     id="path7"
     d="  M 164.63454,327.67068   C 164.63454,437.95983 327.67068,437.95983 327.67068,327.67068   C 437.95983,327.67068 437.95983,164.63454 327.67068,164.63454   C 327.67068,54.345381 164.63454,54.345381 164.63454,164.63454   C 54.345381,164.63454 54.345381,327.67068 164.63454,327.67068   z "
     style="fill:#ffff80;fill-rule:evenodd;fill-opacity:1;stroke:none;" />
  <path
     id="path9"
     d="  M 164.63454,327.67068   C 164.63454,437.95983 327.67068,437.95983 327.67068,327.67068   C 437.95983,327.67068 437.95983,164.63454 327.67068,164.63454   C 327.67068,54.345381 164.63454,54.345381 164.63454,164.63454   C 54.345381,164.63454 54.345381,327.67068 164.63454,327.67068  "
     style="fill:none;stroke:#000000;stroke-width:9.5903616px;stroke-linecap:butt;stroke-linejoin:miter;stroke-miterlimit:10;stroke-dasharray:none;stroke-opacity:1;" />
  <path
     id="path11"
     d="  M 227.4514,179.02008   L 235.92289,197.92108   L 246.83192,196.40261   L 249.26947,196.40261   C 252.30642,196.40261 255.34337,197.08192 257.98072,197.76124   C 262.13654,198.84016 261.81686,197.52148 263.1755,194.1249   C 264.25441,191.36767 268.61004,181.37771 268.65,179.02008   C 261.9767,177.46164 258.8998,174.58454 249.26947,174.58454   L 246.03273,174.58454   C 237.24156,174.58454 233.56526,177.58152 227.4514,179.02008   z "
     style="fill:#ffffff;fill-rule:evenodd;fill-opacity:1;stroke:none;" />
  <path
     id="path13"
     d="  M 192.68634,205.27369   L 210.86807,216.18273   C 213.98494,211.54739 226.81204,201.07791 233.04578,199.63935   L 223.81506,180.61847   C 216.46245,182.33674 196.52249,199.55943 192.68634,205.27369   z "
     style="fill:#ffffff;fill-rule:evenodd;fill-opacity:1;stroke:none;" />
  <path
     id="path15"
     d="  M 264.57409,200.67831   C 269.60903,201.91707 282.8757,213.98494 284.15441,218.38052   L 299.33915,203.6753   C 295.62289,198.08092 278.99959,182.61646 272.16646,180.97811   L 264.57409,200.67831   z "
     style="fill:#ffffff;fill-rule:evenodd;fill-opacity:1;stroke:none;" />
  <path
     id="path17"
     d="  M 231.88694,261.45723   C 231.88694,253.10562 238.04076,244.0747 246.03273,244.0747   C 253.54518,244.0747 259.33935,253.54518 259.33935,261.01767   L 259.33935,263.05562   L 231.88694,263.05562   z  M 297.1014,250.10863   L 318.75963,240.03875   C 319.07931,244.0747 320.55783,247.751 321.2771,252.46626   C 321.91646,256.82188 322.79558,260.45823 322.79558,265.89277   L 322.79558,267.09156   L 298.81967,267.0516   z  M 192.84618,261.81686   L 193.08594,267.09156   L 168.43072,267.09156   C 168.51064,263.25542 169.15,257.9008 169.7494,254.26445   C 170.02911,252.66606 170.30883,250.10863 170.86827,248.51024   C 171.06807,247.9508 172.46666,243.15562 172.54658,242.63614   L 194.72429,250.14859   z  M 286.43212,221.45743   L 301.3771,206.47249   C 302.89558,208.7502 304.41405,210.66827 306.05241,213.10582   C 307.8506,215.78313 308.76967,217.78112 310.40803,220.45843   C 311.96646,223.01586 317.12128,233.88494 317.04136,236.96184   L 296.14237,246.91184   C 295.98253,240.95783 289.06947,225.37349 286.43212,221.45743   z  M 195.52349,246.47229   L 173.70542,239.19959   C 173.94518,236.40241 179.37972,225.05381 180.85823,222.53634   C 183.69538,217.58132 187.97108,212.4265 190.28875,208.03092   L 208.43052,218.62028   C 208.11084,219.77911 202.35662,228.85 201.15783,231.52731   C 199.35964,235.60321 197.24176,243.19558 195.52349,246.47229   z  M 272.16646,180.97811   C 278.99959,182.61646 295.62289,198.08092 299.33915,203.6753   L 284.15441,218.38052   C 282.8757,213.98494 269.60903,201.91707 264.57409,200.67831   z  M 192.68634,205.27369   C 196.52249,199.55943 216.46245,182.33674 223.81506,180.61847   L 233.04578,199.63935   C 226.81204,201.07791 213.98494,211.54739 210.86807,216.18273   z  M 227.4514,179.02008   C 233.56526,177.58152 237.24156,174.58454 246.03273,174.58454   L 249.26947,174.58454   C 258.8998,174.58454 261.9767,177.46164 268.65,179.02008   C 268.61004,181.37771 264.25441,191.36767 263.1755,194.1249   C 261.81686,197.52148 262.13654,198.84016 257.98072,197.76124   C 255.34337,197.08192 252.30642,196.40261 249.26947,196.40261   L 246.83192,196.40261   L 235.92289,197.92108   z  M 164.79438,268.72992   L 150.24899,268.72992   C 149.32992,268.72992 149.0502,269.00963 149.0502,269.92871   L 149.0502,270.32831   C 149.0502,271.24739 149.32992,271.5271 150.24899,271.5271   L 339.77851,271.5271   C 340.53775,271.5271 341.3769,270.80783 341.3769,270.32831   C 341.3769,269.36927 340.69759,268.72992 339.77851,268.72992   L 326.03232,268.72992   L 326.03232,265.09357   C 326.03232,240.83795 314.32409,216.18273 303.29518,202.95602   C 292.58594,190.16887 273.08554,170.94819 250.46827,170.94819   L 245.63313,170.94819   C 222.41646,170.94819 200.63835,191.12791 189.16988,203.75522   C 177.14197,217.02188 164.79438,243.43534 164.79438,268.72992   z "
     style="fill:#000000;fill-rule:evenodd;fill-opacity:1;stroke:none;" />
  <path
     id="path19"
     d="  M 195.52349,246.47229   C 197.24176,243.19558 199.35964,235.60321 201.15783,231.52731   C 202.35662,228.85 208.11084,219.77911 208.43052,218.62028   L 190.28875,208.03092   C 187.97108,212.4265 183.69538,217.58132 180.85823,222.53634   C 179.37972,225.05381 173.94518,236.36245 173.70542,239.19959   z "
     style="fill:#ffffff;fill-rule:evenodd;fill-opacity:1;stroke:none;" />
  <path
     id="path21"
     d="  M 286.43212,221.45743   C 289.06947,225.37349 295.98253,240.95783 296.10241,246.91184   L 317.0014,236.96184   C 317.12128,233.88494 311.96646,223.01586 310.40803,220.45843   C 308.76967,217.78112 307.8506,215.78313 306.05241,213.10582   C 304.41405,210.66827 302.89558,208.7502 301.3771,206.47249   z "
     style="fill:#ffffff;fill-rule:evenodd;fill-opacity:1;stroke:none;" />
  <path
     id="path23"
     d="  M 298.81967,267.0516   L 322.79558,267.09156   L 322.79558,265.89277   C 322.79558,260.45823 321.91646,256.82188 321.2771,252.46626   C 320.55783,247.751 319.07931,244.0747 318.75963,240.03875   L 297.1014,250.10863   z "
     style="fill:#ffffff;fill-rule:evenodd;fill-opacity:1;stroke:none;" />
  <path
     id="path25"
     d="  M 231.88694,263.05562   L 259.33935,263.05562   L 259.33935,261.01767   C 259.33935,253.54518 253.54518,244.0747 246.03273,244.0747   C 238.04076,244.0747 231.88694,253.10562 231.88694,261.45723   z "
     style="fill:#ffffff;fill-rule:evenodd;fill-opacity:1;stroke:none;" />
  <path
     id="path27"
     d="  M 194.72429,250.14859   L 172.54658,242.63614   C 172.46666,243.15562 171.06807,247.9508 170.86827,248.51024   C 170.30883,250.10863 170.02911,252.66606 169.7494,254.26445   C 169.15,257.9008 168.51064,263.25542 168.43072,267.09156   L 193.08594,267.09156   L 192.84618,261.81686   z "
     style="fill:#ffffff;fill-rule:evenodd;fill-opacity:1;stroke:none;" />
</svg>
