<?xml version="1.0" encoding="UTF-8" standalone="no"?>
<svg
   xmlns:dc="http://purl.org/dc/elements/1.1/"
   xmlns:cc="http://creativecommons.org/ns#"
   xmlns:rdf="http://www.w3.org/1999/02/22-rdf-syntax-ns#"
   xmlns:svg="http://www.w3.org/2000/svg"
   xmlns="http://www.w3.org/2000/svg"
   id="svg11"
   height="112.9mm"
   width="112.9mm"
   version="1.0">
  <metadata
     id="metadata15">
    <rdf:RDF>
      <cc:Work
         rdf:about="">
        <dc:format>image/svg+xml</dc:format>
        <dc:type
           rdf:resource="http://purl.org/dc/dcmitype/StillImage" />
      </cc:Work>
    </rdf:RDF>
  </metadata>
  <defs
     id="defs3">
    <pattern
       y="0"
       x="0"
       height="6"
       width="6"
       patternUnits="userSpaceOnUse"
       id="EMFhbasepattern" />
  </defs>
  <path
     id="path5"
     d="  M 1859.4259,1883.6585   L 2140.2247,1883.6585   L 2140.2247,2165.3376   L 1859.4259,2165.3376   z "
     style="fill:#aaffaa;fill-rule:nonzero;fill-opacity:1;stroke:#000000;stroke-width:10.62747px;stroke-linecap:butt;stroke-linejoin:miter;stroke-miterlimit:282;stroke-dasharray:none;stroke-opacity:1;" />
  <path
     id="path7"
     d="  M 1999.1658,2077.8587   L 1975.7627,2077.8587   L 1966.4543,2053.5506   L 1923.8313,2053.5506   L 1915.0505,2077.8587   L 1892.2127,2077.8587   L 1933.7428,1970.9106   L 1956.5052,1970.9106   z  M 1959.5577,2035.5558   L 1944.8602,1995.8613   L 1930.4641,2035.5558   z "
     style="fill:#000000;fill-rule:nonzero;fill-opacity:1;stroke:none;" />
  <path
     id="path9"
     d="  M 2010.7354,2077.8587   L 2010.7354,1970.9106   L 2056.0341,1970.9106   C 2067.4153,1970.9106 2075.7062,1971.8935 2080.8692,1973.8215   C 2086.0322,1975.7117 2090.14,1979.1519 2093.2679,1984.0664   C 2096.3582,1988.981 2097.9033,1994.576 2097.9033,2000.8893   C 2097.9033,2008.9416 2095.5667,2015.5573 2090.856,2020.7743   C 2086.1452,2025.9913 2079.1356,2029.2803 2069.7518,2030.6412   C 2074.4249,2033.3631 2078.2688,2036.3875 2081.2837,2039.6386   C 2084.3363,2042.8898 2088.4064,2048.6738 2093.5317,2056.9907   L 2106.5711,2077.8587   L 2080.8315,2077.8587   L 2065.2671,2054.5713   C 2059.7273,2046.2544 2055.9587,2041.0374 2053.9236,2038.8447   C 2051.8886,2036.6899 2049.7405,2035.2155 2047.4416,2034.4216   C 2045.1805,2033.6277 2041.5626,2033.2119 2036.6257,2033.2119   L 2032.2542,2033.2119   L 2032.2542,2077.8587   z  M 2032.2542,2016.1622   L 2048.1577,2016.1622   C 2058.4837,2016.1622 2064.928,2015.7086 2067.5283,2014.8391   C 2070.091,2013.9696 2072.0883,2012.4574 2073.5581,2010.3026   C 2074.9902,2008.1855 2075.7439,2005.5014 2075.7439,2002.2881   C 2075.7439,1998.6967 2074.764,1995.7857 2072.842,1993.5553   C 2070.9577,1991.3626 2068.2443,1989.9639 2064.7395,1989.359   C 2063.006,1989.1322 2057.7676,1989.0188 2049.0621,1989.0188   L 2032.2542,1989.0188   z "
     style="fill:#000000;fill-rule:nonzero;fill-opacity:1;stroke:none;" />
</svg>
