<?xml version="1.0" encoding="UTF-8" standalone="no"?>
<svg
   xmlns:dc="http://purl.org/dc/elements/1.1/"
   xmlns:cc="http://creativecommons.org/ns#"
   xmlns:rdf="http://www.w3.org/1999/02/22-rdf-syntax-ns#"
   xmlns:svg="http://www.w3.org/2000/svg"
   xmlns="http://www.w3.org/2000/svg"
   id="svg25"
   height="116.05mm"
   width="135.35001mm"
   version="1.0">
  <metadata
     id="metadata29">
    <rdf:RDF>
      <cc:Work
         rdf:about="">
        <dc:format>image/svg+xml</dc:format>
        <dc:type
           rdf:resource="http://purl.org/dc/dcmitype/StillImage" />
      </cc:Work>
    </rdf:RDF>
  </metadata>
  <defs
     id="defs3">
    <pattern
       y="0"
       x="0"
       height="6"
       width="6"
       patternUnits="userSpaceOnUse"
       id="EMFhbasepattern" />
  </defs>
  <path
     id="path5"
     d="  M 174.2249,54.345381   C 54.345381,54.345381 54.345381,250.94779 174.2249,250.94779   C 174.2249,384.25381 337.26104,384.25381 337.26104,250.94779   C 457.14056,250.94779 457.14056,54.345381 337.26104,54.345381   z "
     style="fill:#ffff80;fill-rule:evenodd;fill-opacity:1;stroke:none;" />
  <path
     id="path7"
     d="  M 174.2249,54.345381   C 54.345381,54.345381 54.345381,250.94779 174.2249,250.94779   C 174.2249,384.25381 337.26104,384.25381 337.26104,250.94779   C 457.14056,250.94779 457.14056,54.345381 337.26104,54.345381  "
     style="fill:none;stroke:#000000;stroke-width:9.5903616px;stroke-linecap:butt;stroke-linejoin:miter;stroke-miterlimit:10;stroke-dasharray:none;stroke-opacity:1;" />
  <path
     id="path9"
     d="  M 179.02008,150.24899   L 179.02008,150.24899   L 217.38152,107.09237   L 217.38152,193.40562   z "
     style="fill:#000000;fill-rule:evenodd;fill-opacity:1;stroke:none;" />
  <path
     id="path11"
     d="  M 179.02008,150.24899   L 179.02008,150.24899   L 217.38152,107.09237   L 217.38152,193.40562   z "
     style="fill:none;stroke:#000000;stroke-width:9.5903616px;stroke-linecap:butt;stroke-linejoin:miter;stroke-miterlimit:10;stroke-dasharray:none;stroke-opacity:1;" />
  <path
     id="path13"
     d="  M 236.56225,150.24899   L 236.56225,150.24899   L 274.92369,107.09237   L 274.92369,193.40562   z "
     style="fill:#000000;fill-rule:evenodd;fill-opacity:1;stroke:none;" />
  <path
     id="path15"
     d="  M 236.56225,150.24899   L 236.56225,150.24899   L 274.92369,107.09237   L 274.92369,193.40562   z "
     style="fill:none;stroke:#000000;stroke-width:9.5903616px;stroke-linecap:butt;stroke-linejoin:miter;stroke-miterlimit:10;stroke-dasharray:none;stroke-opacity:1;" />
  <path
     id="path17"
     d="  M 294.10441,150.24899   L 294.10441,150.24899   L 332.46586,107.09237   L 332.46586,193.40562   z "
     style="fill:#000000;fill-rule:evenodd;fill-opacity:1;stroke:none;" />
  <path
     id="path19"
     d="  M 294.10441,150.24899   L 294.10441,150.24899   L 332.46586,107.09237   L 332.46586,193.40562   z "
     style="fill:none;stroke:#000000;stroke-width:9.5903616px;stroke-linecap:butt;stroke-linejoin:miter;stroke-miterlimit:10;stroke-dasharray:none;stroke-opacity:1;" />
  <path
     id="path21"
     d="  M 179.02008,217.38152   L 179.02008,236.56225   L 332.46586,236.56225   L 332.46586,217.38152   L 179.02008,217.38152   z "
     style="fill:#000000;fill-rule:evenodd;fill-opacity:1;stroke:none;" />
  <path
     id="path23"
     d="  M 179.02008,217.38152   L 332.46586,217.38152   L 332.46586,236.56225   L 179.02008,236.56225   z "
     style="fill:none;stroke:#000000;stroke-width:9.5903616px;stroke-linecap:butt;stroke-linejoin:miter;stroke-miterlimit:10;stroke-dasharray:none;stroke-opacity:1;" />
</svg>
