<?xml version="1.0" encoding="UTF-8" standalone="no"?>
<svg
   xmlns:dc="http://purl.org/dc/elements/1.1/"
   xmlns:cc="http://creativecommons.org/ns#"
   xmlns:rdf="http://www.w3.org/1999/02/22-rdf-syntax-ns#"
   xmlns:svg="http://www.w3.org/2000/svg"
   xmlns="http://www.w3.org/2000/svg"
   id="svg11"
   height="112.9mm"
   width="112.9mm"
   version="1.0">
  <metadata
     id="metadata15">
    <rdf:RDF>
      <cc:Work
         rdf:about="">
        <dc:format>image/svg+xml</dc:format>
        <dc:type
           rdf:resource="http://purl.org/dc/dcmitype/StillImage" />
      </cc:Work>
    </rdf:RDF>
  </metadata>
  <defs
     id="defs3">
    <pattern
       y="0"
       x="0"
       height="6"
       width="6"
       patternUnits="userSpaceOnUse"
       id="EMFhbasepattern" />
  </defs>
  <path
     id="path5"
     d="  M 2042.4836,2251.7542   L 2226.5047,2067.1941   L 2042.4836,1882.5962   L 1858.5002,2067.1941   z "
     style="fill:#ff8080;fill-rule:nonzero;fill-opacity:1;stroke:#000000;stroke-width:10.62747px;stroke-linecap:butt;stroke-linejoin:miter;stroke-miterlimit:282;stroke-dasharray:none;stroke-opacity:1;" />
  <path
     id="path7"
     d="  M 2041.843,2120.5358   L 2018.4399,2120.5358   L 2009.1314,2096.2277   L 1966.5085,2096.2277   L 1957.7277,2120.5358   L 1934.8899,2120.5358   L 1976.4199,2013.5877   L 1999.1823,2013.5877   z  M 2002.2349,2078.2329   L 1987.5373,2038.5385   L 1973.1413,2078.2329   z "
     style="fill:#000000;fill-rule:nonzero;fill-opacity:1;stroke:none;" />
  <path
     id="path9"
     d="  M 2053.4126,2120.5358   L 2053.4126,2013.5877   L 2098.7112,2013.5877   C 2110.0924,2013.5877 2118.3834,2014.5706 2123.5463,2016.4987   C 2128.7093,2018.3889 2132.8171,2021.8291 2135.9451,2026.7436   C 2139.0353,2031.6581 2140.5804,2037.2532 2140.5804,2043.5665   C 2140.5804,2051.6188 2138.2439,2058.2345 2133.5332,2063.4515   C 2128.8224,2068.6685 2121.8128,2071.9574 2112.429,2073.3184   C 2117.102,2076.0403 2120.946,2079.0646 2123.9609,2082.3158   C 2127.0135,2085.5669 2131.0836,2091.351 2136.2089,2099.6679   L 2149.2482,2120.5358   L 2123.5087,2120.5358   L 2107.9443,2097.2484   C 2102.4045,2088.9315 2098.6359,2083.7145 2096.6008,2081.5219   C 2094.5658,2079.3671 2092.4177,2077.8927 2090.1188,2077.0988   C 2087.8576,2076.3049 2084.2398,2075.8891 2079.3029,2075.8891   L 2074.9313,2075.8891   L 2074.9313,2120.5358   z  M 2074.9313,2058.8394   L 2090.8348,2058.8394   C 2101.1608,2058.8394 2107.6051,2058.3857 2110.2055,2057.5162   C 2112.7681,2056.6467 2114.7655,2055.1346 2116.2352,2052.9797   C 2117.6673,2050.8627 2118.421,2048.1786 2118.421,2044.9652   C 2118.421,2041.3738 2117.4412,2038.4629 2115.5192,2036.2325   C 2113.6349,2034.0398 2110.9215,2032.6411 2107.4167,2032.0362   C 2105.6831,2031.8094 2100.4448,2031.696 2091.7393,2031.696   L 2074.9313,2031.696   z "
     style="fill:#000000;fill-rule:nonzero;fill-opacity:1;stroke:none;" />
</svg>
