<?xml version="1.0" encoding="UTF-8" standalone="no"?>
<svg
   xmlns:dc="http://purl.org/dc/elements/1.1/"
   xmlns:cc="http://creativecommons.org/ns#"
   xmlns:rdf="http://www.w3.org/1999/02/22-rdf-syntax-ns#"
   xmlns:svg="http://www.w3.org/2000/svg"
   xmlns="http://www.w3.org/2000/svg"
   id="svg13"
   height="125.53mm"
   width="95.75mm"
   version="1.0">
  <metadata
     id="metadata17">
    <rdf:RDF>
      <cc:Work
         rdf:about="">
        <dc:format>image/svg+xml</dc:format>
        <dc:type
           rdf:resource="http://purl.org/dc/dcmitype/StillImage" />
      </cc:Work>
    </rdf:RDF>
  </metadata>
  <defs
     id="defs3">
    <pattern
       y="0"
       x="0"
       height="6"
       width="6"
       patternUnits="userSpaceOnUse"
       id="EMFhbasepattern" />
  </defs>
  <path
     id="path5"
     d="  M 54.345381,54.345381   C 54.345381,419.73815 307.53092,419.73815 307.53092,54.345381   z "
     style="fill:#80e0ff;fill-rule:evenodd;fill-opacity:1;stroke:none;" />
  <path
     id="path7"
     d="  M 54.345381,54.345381   C 54.345381,419.73815 307.53092,419.73815 307.53092,54.345381  "
     style="fill:none;stroke:#000000;stroke-width:9.5903616px;stroke-linecap:butt;stroke-linejoin:miter;stroke-miterlimit:10;stroke-dasharray:none;stroke-opacity:1;" />
  <path
     id="path9"
     d="  M 101.53795,191.96707   L 85.154416,130.18915   L 93.545983,130.18915   L 102.93654,170.66847   C 103.93554,174.94417 104.81466,179.13996 105.53393,183.33574   C 107.13233,176.70241 108.0514,172.90622 108.33112,171.90723   L 120.07932,130.18915   L 129.9494,130.18915   L 138.78052,161.43775   C 141.01827,169.18996 142.61666,176.50261 143.61566,183.33574   C 144.3749,179.41968 145.41385,174.94417 146.69257,169.86927   L 156.36285,130.18915   L 164.59458,130.18915   L 147.6516,191.96707   L 139.77952,191.96707   L 126.75261,144.89438   C 125.63373,140.93835 124.99438,138.54076 124.79458,137.62168   C 124.15522,140.45883 123.55582,142.89638 122.99638,144.89438   L 109.88956,191.96707   z  M 172.22691,191.96707   L 172.22691,130.18915   L 195.52349,130.18915   C 199.63935,130.18915 202.75622,130.38895 204.91405,130.74859   C 207.951,131.26807 210.50843,132.22711 212.54638,133.66566   C 214.62429,135.06426 216.26265,137.06225 217.5014,139.61968   C 218.74016,142.17711 219.37951,144.9743 219.37951,148.0512   C 219.37951,153.28594 217.7012,157.76144 214.38454,161.39779   C 211.02791,165.03413 204.99397,166.83233 196.24277,166.83233   L 180.37871,166.83233   L 180.37871,191.96707   z  M 180.37871,159.55964   L 196.36265,159.55964   C 201.63735,159.55964 205.39357,158.56064 207.63132,156.60261   C 209.82911,154.64458 210.94799,151.88735 210.94799,148.29096   C 210.94799,145.73353 210.30863,143.49578 208.98996,141.65763   C 207.67128,139.81948 205.95301,138.62068 203.83514,138.02128   C 202.43654,137.66164 199.91907,137.46185 196.20281,137.46185   L 180.37871,137.46185   z  M 229.68915,191.96707   L 229.68915,130.18915   L 238.08072,130.18915   L 270.52811,178.7004   L 270.52811,130.18915   L 278.4002,130.18915   L 278.4002,191.96707   L 270.00863,191.96707   L 237.56124,143.41586   L 237.56124,191.96707   z "
     style="fill:#000000;fill-rule:evenodd;fill-opacity:1;stroke:none;" />
  <path
     id="path11"
     d="  M 101.53795,191.96707   L 85.154416,130.18915   L 93.545983,130.18915   L 102.93654,170.66847   C 103.93554,174.94417 104.81466,179.13996 105.53393,183.33574   C 107.13233,176.70241 108.0514,172.90622 108.33112,171.90723   L 120.07932,130.18915   L 129.9494,130.18915   L 138.78052,161.43775   C 141.01827,169.18996 142.61666,176.50261 143.61566,183.33574   C 144.3749,179.41968 145.41385,174.94417 146.69257,169.86927   L 156.36285,130.18915   L 164.59458,130.18915   L 147.6516,191.96707   L 139.77952,191.96707   L 126.75261,144.89438   C 125.63373,140.93835 124.99438,138.54076 124.79458,137.62168   C 124.15522,140.45883 123.55582,142.89638 122.99638,144.89438   L 109.88956,191.96707   z  M 172.22691,191.96707   L 172.22691,130.18915   L 195.52349,130.18915   C 199.63935,130.18915 202.75622,130.38895 204.91405,130.74859   C 207.951,131.26807 210.50843,132.22711 212.54638,133.66566   C 214.62429,135.06426 216.26265,137.06225 217.5014,139.61968   C 218.74016,142.17711 219.37951,144.9743 219.37951,148.0512   C 219.37951,153.28594 217.7012,157.76144 214.38454,161.39779   C 211.02791,165.03413 204.99397,166.83233 196.24277,166.83233   L 180.37871,166.83233   L 180.37871,191.96707   z  M 180.37871,159.55964   L 196.36265,159.55964   C 201.63735,159.55964 205.39357,158.56064 207.63132,156.60261   C 209.82911,154.64458 210.94799,151.88735 210.94799,148.29096   C 210.94799,145.73353 210.30863,143.49578 208.98996,141.65763   C 207.67128,139.81948 205.95301,138.62068 203.83514,138.02128   C 202.43654,137.66164 199.91907,137.46185 196.20281,137.46185   L 180.37871,137.46185   z  M 229.68915,191.96707   L 229.68915,130.18915   L 238.08072,130.18915   L 270.52811,178.7004   L 270.52811,130.18915   L 278.4002,130.18915   L 278.4002,191.96707   L 270.00863,191.96707   L 237.56124,143.41586   L 237.56124,191.96707   z "
     style="fill:none;stroke:#000000;stroke-width:0.95903611px;stroke-linecap:butt;stroke-linejoin:miter;stroke-miterlimit:10;stroke-dasharray:none;stroke-opacity:1;" />
</svg>
