<?xml version="1.0" encoding="UTF-8" standalone="no"?>
<svg
   xmlns:dc="http://purl.org/dc/elements/1.1/"
   xmlns:cc="http://creativecommons.org/ns#"
   xmlns:rdf="http://www.w3.org/1999/02/22-rdf-syntax-ns#"
   xmlns:svg="http://www.w3.org/2000/svg"
   xmlns="http://www.w3.org/2000/svg"
   id="svg11"
   height="112.9mm"
   width="112.9mm"
   version="1.0">
  <metadata
     id="metadata15">
    <rdf:RDF>
      <cc:Work
         rdf:about="">
        <dc:format>image/svg+xml</dc:format>
        <dc:type
           rdf:resource="http://purl.org/dc/dcmitype/StillImage" />
      </cc:Work>
    </rdf:RDF>
  </metadata>
  <defs
     id="defs3">
    <pattern
       y="0"
       x="0"
       height="6"
       width="6"
       patternUnits="userSpaceOnUse"
       id="EMFhbasepattern" />
  </defs>
  <ellipse
     id="ellipse5"
     ry="152.47782"
     rx="152.49666"
     cy="2035.8394"
     cx="2011.1122"
     style="fill:#80e0ff;fill-rule:nonzero;fill-opacity:1;stroke:#000000;stroke-width:10.62747px;stroke-linecap:butt;stroke-linejoin:miter;stroke-miterlimit:282;stroke-dasharray:none;stroke-opacity:1;" />
  <path
     id="path7"
     d="  M 2011.1687,2089.8616   L 1987.7657,2089.8616   L 1978.4572,2065.5535   L 1935.8343,2065.5535   L 1927.0534,2089.8616   L 1904.2157,2089.8616   L 1945.7457,1982.9135   L 1968.5081,1982.9135   z  M 1971.5607,2047.5587   L 1956.8631,2007.8643   L 1942.467,2047.5587   z "
     style="fill:#000000;fill-rule:nonzero;fill-opacity:1;stroke:none;" />
  <path
     id="path9"
     d="  M 2022.7384,2089.8616   L 2022.7384,1982.9135   L 2068.037,1982.9135   C 2079.4182,1982.9135 2087.7091,1983.8964 2092.8721,1985.8244   C 2098.0351,1987.7147 2102.1429,1991.1548 2105.2708,1996.0694   C 2108.3611,2000.9839 2109.9062,2006.579 2109.9062,2012.8923   C 2109.9062,2020.9446 2107.5697,2027.5603 2102.8589,2032.7773   C 2098.1482,2037.9943 2091.1386,2041.2832 2081.7547,2042.6442   C 2086.4278,2045.3661 2090.2718,2048.3904 2093.2867,2051.6416   C 2096.3392,2054.8927 2100.4093,2060.6768 2105.5346,2068.9937   L 2118.574,2089.8616   L 2092.8344,2089.8616   L 2077.2701,2066.5742   C 2071.7302,2058.2573 2067.9616,2053.0403 2065.9266,2050.8477   C 2063.8915,2048.6928 2061.7434,2047.2185 2059.4446,2046.4246   C 2057.1834,2045.6307 2053.5656,2045.2149 2048.6287,2045.2149   L 2044.2571,2045.2149   L 2044.2571,2089.8616   z  M 2044.2571,2028.1652   L 2060.1606,2028.1652   C 2070.4866,2028.1652 2076.9309,2027.7115 2079.5313,2026.842   C 2082.0939,2025.9725 2084.0913,2024.4603 2085.561,2022.3055   C 2086.9931,2020.1885 2087.7468,2017.5044 2087.7468,2014.291   C 2087.7468,2010.6996 2086.767,2007.7887 2084.845,2005.5582   C 2082.9607,2003.3656 2080.2473,2001.9668 2076.7425,2001.362   C 2075.0089,2001.1352 2069.7706,2001.0217 2061.0651,2001.0217   L 2044.2571,2001.0217   z "
     style="fill:#000000;fill-rule:nonzero;fill-opacity:1;stroke:none;" />
</svg>
