<?xml version="1.0" encoding="UTF-8" standalone="no"?>
<svg
   xmlns:dc="http://purl.org/dc/elements/1.1/"
   xmlns:cc="http://creativecommons.org/ns#"
   xmlns:rdf="http://www.w3.org/1999/02/22-rdf-syntax-ns#"
   xmlns:svg="http://www.w3.org/2000/svg"
   xmlns="http://www.w3.org/2000/svg"
   id="svg11"
   height="112.9mm"
   width="112.9mm"
   version="1.0">
  <metadata
     id="metadata15">
    <rdf:RDF>
      <cc:Work
         rdf:about="">
        <dc:format>image/svg+xml</dc:format>
        <dc:type
           rdf:resource="http://purl.org/dc/dcmitype/StillImage" />
      </cc:Work>
    </rdf:RDF>
  </metadata>
  <defs
     id="defs3">
    <pattern
       y="0"
       x="0"
       height="6"
       width="6"
       patternUnits="userSpaceOnUse"
       id="EMFhbasepattern" />
  </defs>
  <path
     id="path5"
     d="  M 1981.453,2187.1891   C 1981.453,2309.9016 2162.233,2309.9016 2162.233,2187.1891   C 2284.562,2187.1891 2284.562,2005.8424 2162.233,2005.8424   C 2162.233,1883.1299 1981.453,1883.1299 1981.453,2005.8424   C 1859.124,2005.8424 1859.124,2187.1891 1981.453,2187.1891   z "
     style="fill:#ffff80;fill-rule:nonzero;fill-opacity:1;stroke:#000000;stroke-width:10.62747px;stroke-linecap:butt;stroke-linejoin:miter;stroke-miterlimit:282;stroke-dasharray:none;stroke-opacity:1;" />
  <path
     id="path7"
     d="  M 2071.1835,2149.8764   L 2047.7805,2149.8764   L 2038.472,2125.5683   L 1995.8491,2125.5683   L 1987.0682,2149.8764   L 1964.2305,2149.8764   L 2005.7605,2042.9283   L 2028.5229,2042.9283   z  M 2031.5755,2107.5735   L 2016.8779,2067.8791   L 2002.4818,2107.5735   z "
     style="fill:#000000;fill-rule:nonzero;fill-opacity:1;stroke:none;" />
  <path
     id="path9"
     d="  M 2082.7531,2149.8764   L 2082.7531,2042.9283   L 2128.0518,2042.9283   C 2139.433,2042.9283 2147.7239,2043.9112 2152.8869,2045.8392   C 2158.0499,2047.7294 2162.1577,2051.1696 2165.2856,2056.0842   C 2168.3759,2060.9987 2169.921,2066.5937 2169.921,2072.907   C 2169.921,2080.9593 2167.5845,2087.5751 2162.8737,2092.792   C 2158.1629,2098.009 2151.1533,2101.298 2141.7695,2102.6589   C 2146.4426,2105.3808 2150.2866,2108.4052 2153.3014,2111.6563   C 2156.354,2114.9075 2160.4241,2120.6915 2165.5494,2129.0085   L 2178.5888,2149.8764   L 2152.8492,2149.8764   L 2137.2849,2126.589   C 2131.745,2118.2721 2127.9764,2113.0551 2125.9414,2110.8624   C 2123.9063,2108.7076 2121.7582,2107.2332 2119.4594,2106.4394   C 2117.1982,2105.6455 2113.5803,2105.2296 2108.6435,2105.2296   L 2104.2719,2105.2296   L 2104.2719,2149.8764   z  M 2104.2719,2088.1799   L 2120.1754,2088.1799   C 2130.5014,2088.1799 2136.9457,2087.7263 2139.546,2086.8568   C 2142.1087,2085.9873 2144.106,2084.4751 2145.5758,2082.3203   C 2147.0079,2080.2032 2147.7616,2077.5191 2147.7616,2074.3058   C 2147.7616,2070.7144 2146.7818,2067.8035 2144.8598,2065.573   C 2142.9755,2063.3804 2140.2621,2061.9816 2136.7573,2061.3767   C 2135.0237,2061.1499 2129.7853,2061.0365 2121.0799,2061.0365   L 2104.2719,2061.0365   z "
     style="fill:#000000;fill-rule:nonzero;fill-opacity:1;stroke:none;" />
</svg>
