<?xml version="1.0" encoding="UTF-8" standalone="no"?>
<svg
   xmlns:dc="http://purl.org/dc/elements/1.1/"
   xmlns:cc="http://creativecommons.org/ns#"
   xmlns:rdf="http://www.w3.org/1999/02/22-rdf-syntax-ns#"
   xmlns:svg="http://www.w3.org/2000/svg"
   xmlns="http://www.w3.org/2000/svg"
   id="svg11"
   height="116.05mm"
   width="135.35001mm"
   version="1.0">
  <metadata
     id="metadata15">
    <rdf:RDF>
      <cc:Work
         rdf:about="">
        <dc:format>image/svg+xml</dc:format>
        <dc:type
           rdf:resource="http://purl.org/dc/dcmitype/StillImage" />
      </cc:Work>
    </rdf:RDF>
  </metadata>
  <defs
     id="defs3">
    <pattern
       y="0"
       x="0"
       height="6"
       width="6"
       patternUnits="userSpaceOnUse"
       id="EMFhbasepattern" />
  </defs>
  <path
     id="path5"
     d="  M 174.2249,54.345381   C 54.345381,54.345381 54.345381,250.94779 174.2249,250.94779   C 174.2249,384.25381 337.26104,384.25381 337.26104,250.94779   C 457.14056,250.94779 457.14056,54.345381 337.26104,54.345381  "
     style="fill:none;stroke:#ffff00;stroke-width:9.5903616px;stroke-linecap:butt;stroke-linejoin:miter;stroke-miterlimit:10;stroke-dasharray:none;stroke-opacity:1;" />
  <path
     id="path7"
     d="  M 188.93012,128.99036   L 209.06988,108.8506   L 216.54237,116.32309   L 196.40261,136.46285   L 188.93012,128.99036  z    M 217.26164,100.65883   L 225.85301,92.067469   L 233.3255,99.539958   L 224.73413,108.09136   L 217.26164,100.65883  z    M 229.56927,90.509035   L 245.95281,90.509035   L 245.95281,101.05843   L 229.56927,101.05843   L 229.56927,90.509035  z    M 257.54116,90.509035   L 284.51405,90.509035   L 288.66988,94.664858   L 281.19739,102.13735   L 278.6,99.539958   L 282.31626,101.05843   L 257.54116,101.05843   L 257.54116,90.509035  z    M 296.86164,102.89658   L 317.0014,123.03634   L 309.56887,130.46887   L 289.42911,110.32911   L 296.86164,102.89658  z    M 324.51385,135.90341   L 324.51385,164.35482   L 313.96445,164.35482   L 313.96445,135.90341   L 324.51385,135.90341  z    M 324.51385,175.98313   L 324.51385,187.6514   L 309.52891,202.63634   L 302.09638,195.16385   L 315.52289,181.73735   L 313.96445,185.45361   L 313.96445,175.98313   L 324.51385,175.98313  z    M 301.33714,210.82811   L 284.51405,227.6512   L 275.44317,227.6512   L 275.44317,217.1018   L 282.31626,217.1018   L 278.6,218.66024   L 293.86465,203.35562   L 301.33714,210.82811  z    M 263.85482,227.6512   L 235.36345,227.6512   L 235.36345,217.1018   L 263.85482,217.1018   L 263.85482,227.6512  z    M 221.73715,222.01686   L 201.59739,201.87711   L 209.06988,194.40462   L 229.20964,214.54437   L 221.73715,222.01686  z    M 193.40562,193.64538   L 187.37168,187.6514   L 187.37168,163.31586   L 197.92108,163.31586   L 197.92108,185.45361   L 196.40261,181.73735   L 200.83815,186.21285   L 193.40562,193.64538  z    M 187.37168,151.68755   L 187.37168,132.70662   L 197.92108,132.70662   L 197.92108,151.68755   L 187.37168,151.68755  z   "
     style="fill:#ff0000;fill-rule:nonzero;fill-opacity:1;stroke:#ff0000;stroke-width:1.0389558px;stroke-linecap:butt;stroke-linejoin:bevel;stroke-miterlimit:10;stroke-dasharray:none;stroke-opacity:1;" />
  <path
     id="path9"
     d="  M 232.20662,138.62068   L 236.92188,138.62068   L 236.92188,159.23996   C 236.92188,162.83634 236.52229,165.67349 235.72309,167.79136   C 234.88393,169.90923 233.44538,171.62751 231.32751,172.94618   C 229.20964,174.26486 226.41245,174.90421 222.9759,174.90421   C 219.61927,174.90421 216.902,174.34478 214.78413,173.18594   C 212.6263,172.02711 211.10783,170.38875 210.22871,168.19096   C 209.30964,165.99317 208.87008,163.03614 208.87008,159.23996   L 208.87008,138.62068   L 213.58534,138.62068   L 213.58534,159.2   C 213.58534,162.31687 213.86506,164.59458 214.42449,166.07309   C 215.02389,167.5516 216.02289,168.67048 217.42148,169.46968   C 218.82008,170.26887 220.53835,170.66847 222.5763,170.66847   C 226.05281,170.66847 228.53032,169.86927 230.00883,168.31084   C 231.44739,166.71245 232.20662,163.71546 232.20662,159.2   z  M 241.15763,174.30482   L 254.98373,155.72349   L 242.79598,138.62068   L 248.43032,138.62068   L 254.90381,147.77148   C 256.26245,149.68956 257.22148,151.12811 257.78092,152.16707   C 258.58012,150.84839 259.49919,149.48976 260.57811,148.09116   L 267.77088,138.62068   L 272.9257,138.62068   L 260.37831,155.44377   L 273.88473,174.30482   L 268.0506,174.30482   L 259.05963,161.59759   C 258.58012,160.83835 258.06064,160.03915 257.5012,159.2   C 256.702,160.47871 256.14257,161.39779 255.78293,161.87731   L 246.83192,174.30482   z  M 276.602,156.92229   C 276.602,151.00823 278.2004,146.37289 281.39718,143.01626   C 284.59397,139.65964 288.66988,137.98132 293.70482,137.98132   C 297.02148,137.98132 299.97851,138.78052 302.61586,140.33895   C 305.29317,141.93735 307.29116,144.13514 308.68975,146.93233   C 310.04839,149.76948 310.76767,152.9263 310.76767,156.52269   C 310.76767,160.11907 310.04839,163.35582 308.56988,166.23293   C 307.09136,169.11004 305.05341,171.26787 302.3761,172.70642   C 299.69879,174.18494 296.78172,174.90421 293.70482,174.90421   C 290.34819,174.90421 287.31124,174.10502 284.67389,172.50662   C 282.03654,170.86827 280.03855,168.67048 278.67992,165.83333   C 277.32128,163.03614 276.602,160.07911 276.602,156.92229   z  M 281.4771,157.00221   C 281.4771,161.31787 282.63594,164.71446 284.95361,167.15201   C 287.27128,169.62952 290.18835,170.86827 293.66486,170.86827   C 297.22128,170.86827 300.13835,169.62952 302.45602,167.15201   C 304.73373,164.63454 305.89257,161.07811 305.89257,156.48273   C 305.89257,153.60562 305.41305,151.04819 304.41405,148.89036   C 303.45502,146.73253 302.01646,145.05421 300.09839,143.85542   C 298.22028,142.65662 296.10241,142.05723 293.74477,142.05723   C 290.38815,142.05723 287.51104,143.21606 285.11345,145.49377   C 282.71586,147.81144 281.4771,151.64759 281.4771,157.00221   z "
     style="fill:#ff0000;fill-rule:evenodd;fill-opacity:1;stroke:none;" />
</svg>
