<?xml version="1.0" encoding="UTF-8" standalone="no"?>
<svg
   xmlns:dc="http://purl.org/dc/elements/1.1/"
   xmlns:cc="http://creativecommons.org/ns#"
   xmlns:rdf="http://www.w3.org/1999/02/22-rdf-syntax-ns#"
   xmlns:svg="http://www.w3.org/2000/svg"
   xmlns="http://www.w3.org/2000/svg"
   id="svg11"
   height="95.75mm"
   width="95.75mm"
   version="1.0">
  <metadata
     id="metadata15">
    <rdf:RDF>
      <cc:Work
         rdf:about="">
        <dc:format>image/svg+xml</dc:format>
        <dc:type
           rdf:resource="http://purl.org/dc/dcmitype/StillImage" />
      </cc:Work>
    </rdf:RDF>
  </metadata>
  <defs
     id="defs3">
    <pattern
       y="0"
       x="0"
       height="6"
       width="6"
       patternUnits="userSpaceOnUse"
       id="EMFhbasepattern" />
  </defs>
  <path
     id="path5"
     d="  M 54.345381,54.345381   L 54.345381,307.53092   L 307.53092,307.53092   L 307.53092,54.345381   L 54.345381,54.345381   z "
     style="fill:#aaffaa;fill-rule:evenodd;fill-opacity:1;stroke:none;" />
  <path
     id="path7"
     d="  M 54.345381,54.345381   L 307.53092,54.345381   L 307.53092,307.53092   L 54.345381,307.53092   z "
     style="fill:none;stroke:#000000;stroke-width:9.5903616px;stroke-linecap:butt;stroke-linejoin:miter;stroke-miterlimit:10;stroke-dasharray:none;stroke-opacity:1;" />
  <path
     id="path9"
     d="  M 142.09719,143.65562   L 149.80944,143.65562   L 149.80944,177.38172   C 149.80944,183.21586 149.17008,187.89116 147.8514,191.32771   C 146.49277,194.80421 144.09518,197.6014 140.65863,199.75923   C 137.18213,201.91707 132.6267,202.99598 127.03233,202.99598   C 121.55783,202.99598 117.08233,202.0769 113.60582,200.15883   C 110.12932,198.28072 107.65181,195.56345 106.17329,192.00703   C 104.65482,188.41064 103.93554,183.53554 103.93554,177.38172   L 103.93554,143.65562   L 111.64779,143.65562   L 111.64779,177.34176   C 111.64779,182.41666 112.12731,186.13293 113.04638,188.53052   C 114.00542,190.92811 115.64377,192.80622 117.92148,194.08494   C 120.1992,195.40361 123.03634,196.04297 126.35301,196.04297   C 132.02731,196.04297 136.06325,194.76425 138.46084,192.16686   C 140.89839,189.60944 142.09719,184.65442 142.09719,177.34176   z  M 156.76245,201.99699   L 179.2998,171.58755   L 159.3998,143.65562   L 168.59056,143.65562   L 179.17992,158.6006   C 181.41767,161.71747 182.9761,164.11506 183.89518,165.79337   C 185.21385,163.6755 186.73233,161.43775 188.53052,159.12008   L 200.23875,143.65562   L 208.67028,143.65562   L 188.17088,171.14799   L 210.22871,201.99699   L 200.67831,201.99699   L 186.01305,181.17791   C 185.17389,179.97911 184.33474,178.7004 183.45562,177.3018   C 182.1769,179.41968 181.21787,180.85823 180.65843,181.65743   L 166.03313,201.99699   z  M 214.70421,173.58554   C 214.70421,163.91526 217.3016,156.32289 222.49638,150.84839   C 227.69116,145.37389 234.40441,142.61666 242.63614,142.61666   C 248.03072,142.61666 252.90582,143.89538 257.22148,146.49277   C 261.53714,149.0502 264.85381,152.64658 267.09156,157.24197   C 269.36927,161.83735 270.48815,167.07209 270.48815,172.90622   C 270.48815,178.82028 269.32931,184.13494 266.93172,188.81024   C 264.53413,193.48554 261.13755,197.00201 256.78192,199.3996   C 252.38634,201.79719 247.67108,202.99598 242.59618,202.99598   C 237.12168,202.99598 232.20662,201.67731 227.89096,199.03996   C 223.53534,196.36265 220.25863,192.76626 218.06084,188.17088   C 215.82309,183.5755 214.70421,178.7004 214.70421,173.58554   z  M 222.65622,173.70542   C 222.65622,180.73835 224.57429,186.29277 228.33052,190.32871   C 232.1267,194.36466 236.84196,196.40261 242.55622,196.40261   C 248.39036,196.40261 253.14558,194.36466 256.9018,190.24879   C 260.65803,186.17289 262.53614,180.37871 262.53614,172.86626   C 262.53614,168.11104 261.73694,163.99518 260.13855,160.43875   C 258.54016,156.88233 256.18253,154.1251 253.10562,152.20703   C 249.98875,150.24899 246.55221,149.25 242.6761,149.25   C 237.2016,149.25 232.5263,151.12811 228.57028,154.88434   C 224.61425,158.64056 222.65622,164.91425 222.65622,173.70542   z "
     style="fill:#000000;fill-rule:evenodd;fill-opacity:1;stroke:none;" />
</svg>
