<?xml version="1.0" encoding="UTF-8" standalone="no"?>
<svg
   xmlns:dc="http://purl.org/dc/elements/1.1/"
   xmlns:cc="http://creativecommons.org/ns#"
   xmlns:rdf="http://www.w3.org/1999/02/22-rdf-syntax-ns#"
   xmlns:svg="http://www.w3.org/2000/svg"
   xmlns="http://www.w3.org/2000/svg"
   id="svg11"
   height="116.73mm"
   width="116.73mm"
   version="1.0">
  <metadata
     id="metadata15">
    <rdf:RDF>
      <cc:Work
         rdf:about="">
        <dc:format>image/svg+xml</dc:format>
        <dc:type
           rdf:resource="http://purl.org/dc/dcmitype/StillImage" />
      </cc:Work>
    </rdf:RDF>
  </metadata>
  <defs
     id="defs3">
    <pattern
       y="0"
       x="0"
       height="6"
       width="6"
       patternUnits="userSpaceOnUse"
       id="EMFhbasepattern" />
  </defs>
  <path
     id="path5"
     d="  M 220.57831,386.49156   L 220.57831,386.49156   L 386.49156,220.57831   L 220.57831,54.665059   L 54.665059,220.57831   L 220.57831,386.49156   z "
     style="fill:#ff8080;fill-rule:evenodd;fill-opacity:1;stroke:none;" />
  <path
     id="path7"
     d="  M 220.57831,386.49156   L 220.57831,386.49156   L 386.49156,220.57831   L 220.57831,54.665059   L 54.665059,220.57831   L 220.57831,386.49156  "
     style="fill:none;stroke:#000000;stroke-width:9.5903616px;stroke-linecap:butt;stroke-linejoin:miter;stroke-miterlimit:10;stroke-dasharray:none;stroke-opacity:1;" />
  <path
     id="path9"
     d="  M 181.73735,183.29578   L 189.4496,183.29578   L 189.4496,217.02188   C 189.4496,222.85602 188.81024,227.53132 187.49156,230.96787   C 186.13293,234.44437 183.73534,237.24156 180.29879,239.39939   C 176.82229,241.55723 172.26686,242.63614 166.67249,242.63614   C 161.19799,242.63614 156.72249,241.71706 153.24598,239.79899   C 149.76948,237.92088 147.29197,235.20361 145.81345,231.64719   C 144.29498,228.0508 143.5757,223.1757 143.5757,217.02188   L 143.5757,183.29578   L 151.28795,183.29578   L 151.28795,216.98192   C 151.28795,222.05682 151.76747,225.77309 152.68654,228.17068   C 153.64558,230.56827 155.28393,232.44638 157.56164,233.7251   C 159.83936,235.04377 162.6765,235.68313 165.99317,235.68313   C 171.66747,235.68313 175.70341,234.40441 178.101,231.80702   C 180.53855,229.2496 181.73735,224.29458 181.73735,216.98192   z  M 196.40261,241.63715   L 218.93996,211.22771   L 199.03996,183.29578   L 208.23072,183.29578   L 218.82008,198.24076   C 221.05783,201.35763 222.61626,203.75522 223.53534,205.43353   C 224.85401,203.31566 226.37249,201.07791 228.17068,198.76024   L 239.87891,183.29578   L 248.31044,183.29578   L 227.81104,210.78815   L 249.86887,241.63715   L 240.31847,241.63715   L 225.65321,220.81807   C 224.81405,219.61927 223.9749,218.34056 223.09578,216.94196   C 221.81707,219.05984 220.85803,220.49839 220.29859,221.29759   L 205.67329,241.63715   z  M 254.34437,213.2257   C 254.34437,203.55542 256.94176,195.96305 262.13654,190.48855   C 267.33132,185.01405 274.04457,182.25682 282.2763,182.25682   C 287.67088,182.25682 292.54598,183.53554 296.86164,186.13293   C 301.1773,188.69036 304.49397,192.28674 306.73172,196.88213   C 309.00943,201.47751 310.12831,206.71225 310.12831,212.54638   C 310.12831,218.46044 308.96947,223.7751 306.57188,228.4504   C 304.17429,233.1257 300.77771,236.64217 296.42208,239.03976   C 292.0265,241.43735 287.31124,242.63614 282.23634,242.63614   C 276.76184,242.63614 271.84678,241.31747 267.53112,238.68012   C 263.1755,236.00281 259.89879,232.40642 257.701,227.81104   C 255.46325,223.21566 254.34437,218.34056 254.34437,213.2257   z  M 262.29638,213.34558   C 262.29638,220.37851 264.21445,225.93293 267.97068,229.96887   C 271.76686,234.00482 276.48212,236.04277 282.19638,236.04277   C 288.03052,236.04277 292.78574,234.00482 296.54196,229.88895   C 300.29819,225.81305 302.1763,220.01887 302.1763,212.50642   C 302.1763,207.7512 301.3771,203.63534 299.77871,200.07891   C 298.18032,196.52249 295.82269,193.76526 292.74578,191.84719   C 289.62891,189.88915 286.19237,188.89016 282.31626,188.89016   C 276.84176,188.89016 272.16646,190.76827 268.21044,194.5245   C 264.25441,198.28072 262.29638,204.55441 262.29638,213.34558   z "
     style="fill:#000000;fill-rule:evenodd;fill-opacity:1;stroke:none;" />
</svg>
