<?xml version="1.0" encoding="UTF-8" standalone="no"?>
<svg
   xmlns:dc="http://purl.org/dc/elements/1.1/"
   xmlns:cc="http://creativecommons.org/ns#"
   xmlns:rdf="http://www.w3.org/1999/02/22-rdf-syntax-ns#"
   xmlns:svg="http://www.w3.org/2000/svg"
   xmlns="http://www.w3.org/2000/svg"
   id="svg11"
   height="89.669998mm"
   width="120.11mm"
   version="1.0">
  <metadata
     id="metadata15">
    <rdf:RDF>
      <cc:Work
         rdf:about="">
        <dc:format>image/svg+xml</dc:format>
        <dc:type
           rdf:resource="http://purl.org/dc/dcmitype/StillImage" />
      </cc:Work>
    </rdf:RDF>
  </metadata>
  <defs
     id="defs3">
    <pattern
       y="0"
       x="0"
       height="6"
       width="6"
       patternUnits="userSpaceOnUse"
       id="EMFhbasepattern" />
  </defs>
  <path
     id="path5"
     d="  M 54.345381,54.345381   L 54.345381,284.51405   L 399.59839,284.51405   L 399.59839,54.345381   L 54.345381,54.345381   z "
     style="fill:#80e0ff;fill-rule:evenodd;fill-opacity:1;stroke:none;" />
  <path
     id="path7"
     d="  M 54.345381,54.345381   L 399.59839,54.345381   L 399.59839,284.51405   L 54.345381,284.51405   z "
     style="fill:none;stroke:#000000;stroke-width:9.5903616px;stroke-linecap:butt;stroke-linejoin:miter;stroke-miterlimit:10;stroke-dasharray:none;stroke-opacity:1;" />
  <path
     id="path9"
     d="  M 188.13092,132.14719   L 195.84317,132.14719   L 195.84317,165.87329   C 195.84317,171.70743 195.20381,176.38273 193.88514,179.81927   C 192.5265,183.29578 190.12891,186.09297 186.69237,188.2508   C 183.21586,190.40863 178.66044,191.48755 173.06606,191.48755   C 167.59156,191.48755 163.11606,190.56847 159.63956,188.6504   C 156.16305,186.77229 153.68554,184.05502 152.20703,180.49859   C 150.68855,176.90221 149.96927,172.02711 149.96927,165.87329   L 149.96927,132.14719   L 157.68152,132.14719   L 157.68152,165.83333   C 157.68152,170.90823 158.16104,174.6245 159.08012,177.02209   C 160.03915,179.41968 161.67751,181.29779 163.95522,182.5765   C 166.23293,183.89518 169.07008,184.53454 172.38674,184.53454   C 178.06104,184.53454 182.09699,183.25582 184.49458,180.65843   C 186.93213,178.101 188.13092,173.14598 188.13092,165.83333   z  M 202.79618,190.48855   L 225.33353,160.07911   L 205.43353,132.14719   L 214.62429,132.14719   L 225.21365,147.09217   C 227.4514,150.20903 229.00984,152.60662 229.92891,154.28494   C 231.24759,152.16707 232.76606,149.92932 234.56425,147.61164   L 246.27249,132.14719   L 254.70401,132.14719   L 234.20462,159.63956   L 256.26245,190.48855   L 246.71204,190.48855   L 232.04678,169.66948   C 231.20763,168.47068 230.36847,167.19197 229.48935,165.79337   C 228.21064,167.91124 227.2516,169.3498 226.69217,170.14899   L 212.06686,190.48855   z  M 260.73795,162.07711   C 260.73795,152.40683 263.33534,144.81446 268.53012,139.33996   C 273.7249,133.86546 280.43815,131.10823 288.66988,131.10823   C 294.06445,131.10823 298.93955,132.38695 303.25522,134.98434   C 307.57088,137.54177 310.88755,141.13815 313.1253,145.73353   C 315.40301,150.32891 316.52188,155.56365 316.52188,161.39779   C 316.52188,167.31184 315.36305,172.6265 312.96546,177.3018   C 310.56787,181.97711 307.17128,185.49357 302.81566,187.89116   C 298.42008,190.28875 293.70482,191.48755 288.62992,191.48755   C 283.15542,191.48755 278.24036,190.16887 273.92469,187.53152   C 269.56907,184.85421 266.29237,181.25783 264.09457,176.66245   C 261.85682,172.06707 260.73795,167.19197 260.73795,162.07711   z  M 268.68996,162.19699   C 268.68996,169.22992 270.60803,174.78433 274.36425,178.82028   C 278.16044,182.85622 282.8757,184.89417 288.58996,184.89417   C 294.42409,184.89417 299.17931,182.85622 302.93554,178.74036   C 306.69176,174.66446 308.56988,168.87028 308.56988,161.35783   C 308.56988,156.60261 307.77068,152.48674 306.17228,148.93032   C 304.57389,145.37389 302.21626,142.61666 299.13935,140.69859   C 296.02249,138.74056 292.58594,137.74156 288.70984,137.74156   C 283.23534,137.74156 278.56004,139.61968 274.60401,143.3759   C 270.64799,147.13213 268.68996,153.40582 268.68996,162.19699   z "
     style="fill:#000000;fill-rule:evenodd;fill-opacity:1;stroke:none;" />
</svg>
