<?xml version="1.0" encoding="UTF-8" standalone="no"?>
<svg
   xmlns:dc="http://purl.org/dc/elements/1.1/"
   xmlns:cc="http://creativecommons.org/ns#"
   xmlns:rdf="http://www.w3.org/1999/02/22-rdf-syntax-ns#"
   xmlns:svg="http://www.w3.org/2000/svg"
   xmlns="http://www.w3.org/2000/svg"
   id="svg17"
   height="112.9mm"
   width="112.9mm"
   version="1.0">
  <metadata
     id="metadata21">
    <rdf:RDF>
      <cc:Work
         rdf:about="">
        <dc:format>image/svg+xml</dc:format>
        <dc:type
           rdf:resource="http://purl.org/dc/dcmitype/StillImage" />
      </cc:Work>
    </rdf:RDF>
  </metadata>
  <defs
     id="defs3">
    <pattern
       y="0"
       x="0"
       height="6"
       width="6"
       patternUnits="userSpaceOnUse"
       id="EMFhbasepattern" />
  </defs>
  <path
     id="path5"
     d="  M 391.92062,391.38808   L 541.15652,391.38808   L 541.15652,583.2682   L 391.92062,583.2682   L 391.92062,391.38808   z "
     style="fill:none;stroke:#ff0000;stroke-width:5.3258066px;stroke-linecap:butt;stroke-linejoin:miter;stroke-miterlimit:112;stroke-dasharray:none;stroke-opacity:1;" />
  <path
     id="path7"
     d="  M 391.92062,584.36358   L 466.51969,684.53407   L 541.15652,584.36358  "
     style="fill:none;stroke:#ff0000;stroke-width:5.3258066px;stroke-linecap:butt;stroke-linejoin:miter;stroke-miterlimit:112;stroke-dasharray:none;stroke-opacity:1;" />
  <path
     id="path9"
     d="  M 422.40236,410.34946   L 426.97274,410.34946   L 426.97274,430.21736   C 426.97274,433.65458 426.55725,436.41192 425.80182,438.41382   C 425.00861,440.45349 423.61106,442.11544 421.57139,443.36191   C 419.53172,444.64614 416.84993,445.28826 413.52602,445.28826   C 410.31543,445.28826 407.67141,444.72169 405.63174,443.62631   C 403.59207,442.53093 402.11897,440.90675 401.25023,438.79153   C 400.38148,436.71409 399.96599,433.84344 399.96599,430.21736   L 399.96599,410.34946   L 404.49859,410.34946   L 404.49859,430.17959   C 404.49859,433.16355 404.76299,435.35431 405.32957,436.78963   C 405.89614,438.18719 406.84043,439.28256 408.20021,440.038   C 409.52222,440.79343 411.18418,441.17115 413.1483,441.17115   C 416.47221,441.17115 418.85183,440.41571 420.28715,438.90485   C 421.6847,437.39398 422.40236,434.48556 422.40236,430.17959   L 422.40236,410.34946   z "
     style="fill:#ff0000;fill-rule:nonzero;fill-opacity:1;stroke:#ff0000;stroke-width:1.0576069px;stroke-linecap:butt;stroke-linejoin:miter;stroke-miterlimit:112;stroke-dasharray:none;stroke-opacity:1;" />
  <path
     id="path11"
     d="  M 434.41376,444.68391   L 434.41376,410.34946   L 441.25043,410.34946   L 449.37134,434.67442   C 450.12678,436.94072 450.65558,438.64045 450.99553,439.7736   C 451.41101,438.52713 452.01536,436.67632 452.84634,434.25893   L 461.08056,410.34946   L 467.1618,410.34946   L 467.1618,444.68391   L 462.78029,444.68391   L 462.78029,415.97744   L 452.80857,444.68391   L 448.72922,444.68391   L 438.79527,415.48641   L 438.79527,444.68391   L 434.41376,444.68391   z "
     style="fill:#ff0000;fill-rule:nonzero;fill-opacity:1;stroke:#ff0000;stroke-width:1.0576069px;stroke-linecap:butt;stroke-linejoin:miter;stroke-miterlimit:112;stroke-dasharray:none;stroke-opacity:1;" />
  <path
     id="path13"
     d="  M 499.0411,432.67252   L 503.61147,433.80567   C 502.62941,437.54507 500.92968,440.37794 498.47452,442.34207   C 495.98159,444.3062 492.95986,445.28826 489.37155,445.28826   C 485.66993,445.28826 482.68596,444.53283 480.34412,443.02196   C 478.04005,441.51109 476.26478,439.32034 475.05608,436.48746   C 473.84739,433.61681 473.24304,430.55731 473.24304,427.27117   C 473.24304,423.68286 473.92293,420.58558 475.28271,417.90379   C 476.64249,415.25978 478.60662,413.22011 481.13732,411.86033   C 483.63026,410.46277 486.42536,409.78288 489.44709,409.78288   C 492.88432,409.78288 495.79274,410.65163 498.13458,412.38913   C 500.47642,414.1644 502.10061,416.61956 503.00713,419.79238   L 498.55007,420.84999   C 497.75686,418.31928 496.58594,416.50624 495.07507,415.37309   C 493.56421,414.23994 491.63785,413.67337 489.37155,413.67337   C 486.72753,413.67337 484.499,414.31549 482.72374,415.56195   C 480.94847,416.84619 479.73977,418.50814 479.02211,420.66113   C 478.26668,422.77634 477.92673,425.00487 477.92673,427.2334   C 477.92673,430.17959 478.34222,432.71029 479.21097,434.90105   C 480.04195,437.09181 481.36395,438.71599 483.177,439.7736   C 484.95226,440.86898 486.91639,441.39778 488.99383,441.39778   C 491.56231,441.39778 493.71529,440.68012 495.45279,439.20702   C 497.22806,437.73393 498.43675,435.54317 499.0411,432.67252   L 499.0411,432.67252   z "
     style="fill:#ff0000;fill-rule:nonzero;fill-opacity:1;stroke:#ff0000;stroke-width:1.0576069px;stroke-linecap:butt;stroke-linejoin:miter;stroke-miterlimit:112;stroke-dasharray:none;stroke-opacity:1;" />
  <path
     id="path15"
     d="  M 509.20168,444.68391   L 509.20168,410.34946   L 522.15737,410.34946   C 524.46144,410.34946 526.19894,410.46277 527.40763,410.6894   C 529.06958,410.95381 530.50491,411.52038 531.63806,412.31359   C 532.77121,413.06902 533.67773,414.20217 534.39539,415.59972   C 535.07528,417.03505 535.41523,418.58368 535.41523,420.28341   C 535.41523,423.2296 534.50871,425.68476 532.65789,427.72443   C 530.76931,429.72633 527.4454,430.74617 522.57286,430.74617   L 513.77205,430.74617   L 513.77205,444.68391   L 509.20168,444.68391   z  M 513.77205,426.7046   L 522.6484,426.7046   C 525.59459,426.7046 527.67203,426.13802 528.88073,425.04264   C 530.12719,423.94726 530.73154,422.4364 530.73154,420.4345   C 530.73154,418.99917 530.39159,417.75271 529.67393,416.73287   C 528.9185,415.71304 527.97421,415.03315 526.80328,414.73097   C 526.01008,414.50434 524.61253,414.4288 522.53508,414.4288   L 513.77205,414.4288   L 513.77205,426.7046   z "
     style="fill:#ff0000;fill-rule:nonzero;fill-opacity:1;stroke:#ff0000;stroke-width:1.0576069px;stroke-linecap:butt;stroke-linejoin:miter;stroke-miterlimit:112;stroke-dasharray:none;stroke-opacity:1;" />
</svg>
