<?xml version="1.0" encoding="UTF-8" standalone="no"?>
<svg
   xmlns:dc="http://purl.org/dc/elements/1.1/"
   xmlns:cc="http://creativecommons.org/ns#"
   xmlns:rdf="http://www.w3.org/1999/02/22-rdf-syntax-ns#"
   xmlns:svg="http://www.w3.org/2000/svg"
   xmlns="http://www.w3.org/2000/svg"
   id="svg11"
   height="95.75mm"
   width="95.75mm"
   version="1.0">
  <metadata
     id="metadata15">
    <rdf:RDF>
      <cc:Work
         rdf:about="">
        <dc:format>image/svg+xml</dc:format>
        <dc:type
           rdf:resource="http://purl.org/dc/dcmitype/StillImage" />
      </cc:Work>
    </rdf:RDF>
  </metadata>
  <defs
     id="defs3">
    <pattern
       y="0"
       x="0"
       height="6"
       width="6"
       patternUnits="userSpaceOnUse"
       id="EMFhbasepattern" />
  </defs>
  <path
     id="path5"
     d="  M 54.345381,54.345381   L 54.345381,307.53092   L 307.53092,307.53092   L 307.53092,54.345381   L 54.345381,54.345381   z "
     style="fill:#aaffaa;fill-rule:evenodd;fill-opacity:1;stroke:none;" />
  <path
     id="path7"
     d="  M 54.345381,54.345381   L 307.53092,54.345381   L 307.53092,307.53092   L 54.345381,307.53092   z "
     style="fill:none;stroke:#000000;stroke-width:9.5903616px;stroke-linecap:butt;stroke-linejoin:miter;stroke-miterlimit:10;stroke-dasharray:none;stroke-opacity:1;" />
  <path
     id="path9"
     d="  M 148.251,181.81727   L 156.44277,183.85522   C 154.7245,190.60843 151.64759,195.72329 147.17209,199.23976   C 142.73654,202.75622 137.30201,204.51445 130.86847,204.51445   C 124.19518,204.51445 118.8006,203.15582 114.60482,200.47851   C 110.44899,197.76124 107.25221,193.80522 105.09438,188.69036   C 102.89658,183.53554 101.81767,178.02108 101.81767,172.10703   C 101.81767,165.67349 103.05642,160.07911 105.49397,155.28393   C 107.97148,150.48875 111.44799,146.85241 116.00341,144.3749   C 120.55883,141.85743 125.55381,140.61867 130.98835,140.61867   C 137.18213,140.61867 142.37691,142.21707 146.57269,145.37389   C 150.80843,148.49076 153.7255,152.9263 155.40381,158.64056   L 147.33193,160.51867   C 145.89337,156.04317 143.81546,152.76646 141.09819,150.68855   C 138.38092,148.6506 134.94438,147.61164 130.82851,147.61164   C 126.07329,147.61164 122.11727,148.77048 118.92048,151.04819   C 115.72369,153.3259 113.48594,156.36285 112.16727,160.19899   C 110.88855,164.03514 110.2492,167.99116 110.2492,172.06707   C 110.2492,177.34176 111.00843,181.89719 112.52691,185.85321   C 114.08534,189.76927 116.44297,192.68634 119.67972,194.60441   C 122.91646,196.56245 126.43293,197.52148 130.18915,197.52148   C 134.74458,197.52148 138.66064,196.20281 141.81747,193.56546   C 144.9743,190.92811 147.13213,187.01205 148.251,181.81727   z  M 166.19297,203.4755   L 166.19297,141.69759   L 189.36968,141.69759   C 194.08494,141.69759 197.88112,142.29699 200.71827,143.5757   C 203.55542,144.81446 205.79317,146.73253 207.43152,149.32992   C 209.02992,151.92731 209.82911,154.64458 209.82911,157.48172   C 209.82911,160.11907 209.10984,162.63654 207.67128,164.95421   C 206.27269,167.27189 204.0749,169.15 201.19779,170.58855   C 204.95401,171.70743 207.79116,173.54558 209.82911,176.22289   C 211.82711,178.86024 212.8261,181.97711 212.8261,185.57349   C 212.8261,188.4506 212.2267,191.12791 210.98795,193.64538   C 209.78915,196.12289 208.27068,198.04096 206.47249,199.3996   C 204.67429,200.71827 202.39658,201.75723 199.71927,202.43654   C 197.00201,203.11586 193.68534,203.4755 189.72931,203.4755   z  M 174.34478,167.63152   L 187.69136,167.63152   C 191.32771,167.63152 193.9251,167.39176 195.52349,166.91225   C 197.6014,166.31285 199.15984,165.27389 200.19879,163.8753   C 201.27771,162.43674 201.79719,160.63855 201.79719,158.44076   C 201.79719,156.40281 201.31767,154.60462 200.31867,153.04618   C 199.31968,151.48775 197.92108,150.40883 196.08293,149.8494   C 194.28474,149.25 191.12791,148.97028 186.69237,148.97028   L 174.34478,148.97028   z  M 174.34478,196.16285   L 189.72931,196.16285   C 192.36666,196.16285 194.24478,196.08293 195.28373,195.88313   C 197.16184,195.56345 198.76024,195.00401 199.99899,194.20482   C 201.27771,193.40562 202.31666,192.28674 203.15582,190.76827   C 203.95502,189.2498 204.35462,187.53152 204.35462,185.57349   C 204.35462,183.25582 203.75522,181.25783 202.59638,179.53956   C 201.39759,177.86124 199.75923,176.66245 197.68132,175.98313   C 195.60341,175.30381 192.56646,174.94417 188.6504,174.94417   L 174.34478,174.94417   z  M 239.79899,203.4755   L 239.79899,148.97028   L 219.45943,148.97028   L 219.45943,141.69759   L 268.41024,141.69759   L 268.41024,148.97028   L 247.99076,148.97028   L 247.99076,203.4755   z "
     style="fill:#000000;fill-rule:evenodd;fill-opacity:1;stroke:none;" />
</svg>
