<?xml version="1.0" encoding="UTF-8" standalone="no"?>
<svg
   xmlns:dc="http://purl.org/dc/elements/1.1/"
   xmlns:cc="http://creativecommons.org/ns#"
   xmlns:rdf="http://www.w3.org/1999/02/22-rdf-syntax-ns#"
   xmlns:svg="http://www.w3.org/2000/svg"
   xmlns="http://www.w3.org/2000/svg"
   id="svg17"
   height="112.9mm"
   width="112.9mm"
   version="1.0">
  <metadata
     id="metadata21">
    <rdf:RDF>
      <cc:Work
         rdf:about="">
        <dc:format>image/svg+xml</dc:format>
        <dc:type
           rdf:resource="http://purl.org/dc/dcmitype/StillImage" />
      </cc:Work>
    </rdf:RDF>
  </metadata>
  <defs
     id="defs3">
    <pattern
       y="0"
       x="0"
       height="6"
       width="6"
       patternUnits="userSpaceOnUse"
       id="EMFhbasepattern" />
  </defs>
  <path
     id="path5"
     d="  M 1055.3824,1055.5085   L 1203.488,1055.5085   L 1203.488,1246.2484   L 1055.3824,1246.2484   z "
     style="fill:none;stroke:#ffff00;stroke-width:5.3245535px;stroke-linecap:butt;stroke-linejoin:miter;stroke-miterlimit:282;stroke-dasharray:none;stroke-opacity:1;" />
  <path
     id="path7"
     d="  M 1055.3824,1248.4386   L 1129.9639,1348.5855   L 1204.5832,1248.4386  "
     style="fill:none;stroke:#ffff00;stroke-width:5.3245535px;stroke-linecap:butt;stroke-linejoin:miter;stroke-miterlimit:282;stroke-dasharray:none;stroke-opacity:1;" />
  <path
     id="path9"
     d="  M 1085.857,1074.4654   L 1090.4263,1074.4654   L 1090.4263,1094.3287   C 1090.4263,1097.7651 1090.0109,1100.5218 1089.2556,1102.5232   C 1088.4626,1104.5624 1087.0654,1106.2239 1085.0262,1107.4701   C 1082.987,1108.7541 1080.3058,1109.396 1076.9827,1109.396   C 1073.7729,1109.396 1071.1295,1108.8296 1069.0903,1107.7345   C 1067.0511,1106.6393 1065.5783,1105.0155 1064.7098,1102.9008   C 1063.8412,1100.8239 1063.4259,1097.9539 1063.4259,1094.3287   L 1063.4259,1074.4654   L 1067.9574,1074.4654   L 1067.9574,1094.2909   C 1067.9574,1097.2742 1068.2217,1099.4644 1068.7882,1100.8994   C 1069.3546,1102.2966 1070.2987,1103.3917 1071.6581,1104.147   C 1072.9798,1104.9023 1074.6414,1105.2799 1076.6051,1105.2799   C 1079.9282,1105.2799 1082.3073,1104.5246 1083.7422,1103.0141   C 1085.1395,1101.5036 1085.857,1098.5959 1085.857,1094.2909   z "
     style="fill:#ffff00;fill-rule:nonzero;fill-opacity:1;stroke:#ffff00;stroke-width:1.0573581px;stroke-linecap:butt;stroke-linejoin:miter;stroke-miterlimit:282;stroke-dasharray:none;stroke-opacity:1;" />
  <path
     id="path11"
     d="  M 1097.8655,1108.7918   L 1097.8655,1074.4654   L 1104.7006,1074.4654   L 1112.8196,1098.7847   C 1113.5748,1101.0504 1114.1035,1102.7498 1114.4434,1103.8827   C 1114.8588,1102.6365 1115.463,1100.7861 1116.2938,1098.3693   L 1124.5261,1074.4654   L 1130.6059,1074.4654   L 1130.6059,1108.7918   L 1126.2254,1108.7918   L 1126.2254,1080.0921   L 1116.256,1108.7918   L 1112.1776,1108.7918   L 1102.246,1079.6012   L 1102.246,1108.7918   z "
     style="fill:#ffff00;fill-rule:nonzero;fill-opacity:1;stroke:#ffff00;stroke-width:1.0573581px;stroke-linecap:butt;stroke-linejoin:miter;stroke-miterlimit:282;stroke-dasharray:none;stroke-opacity:1;" />
  <path
     id="path13"
     d="  M 1162.4777,1096.7833   L 1167.047,1097.9161   C 1166.0651,1101.6547 1164.3658,1104.4869 1161.9112,1106.4505   C 1159.4189,1108.4142 1156.3978,1109.396 1152.8104,1109.396   C 1149.1096,1109.396 1146.1264,1108.6408 1143.7851,1107.1303   C 1141.4815,1105.6197 1139.7067,1103.4295 1138.4983,1100.5973   C 1137.2899,1097.7273 1136.6857,1094.6685 1136.6857,1091.3832   C 1136.6857,1087.7957 1137.3654,1084.6992 1138.7249,1082.018   C 1140.0843,1079.3746 1142.048,1077.3354 1144.5781,1075.976   C 1147.0704,1074.5787 1149.8649,1073.899 1152.8859,1073.899   C 1156.3223,1073.899 1159.2301,1074.7675 1161.5713,1076.5046   C 1163.9126,1078.2795 1165.5364,1080.7341 1166.4427,1083.9061   L 1161.9867,1084.9635   C 1161.1937,1082.4334 1160.0231,1080.6208 1158.5126,1079.4879   C 1157.0021,1078.355 1155.0761,1077.7886 1152.8104,1077.7886   C 1150.167,1077.7886 1147.939,1078.4305 1146.1641,1079.6767   C 1144.3893,1080.9606 1143.1809,1082.6222 1142.4634,1084.7747   C 1141.7081,1086.8894 1141.3683,1089.1174 1141.3683,1091.3454   C 1141.3683,1094.2909 1141.7836,1096.821 1142.6522,1099.0113   C 1143.483,1101.2015 1144.8047,1102.8253 1146.6173,1103.8827   C 1148.3921,1104.9778 1150.3558,1105.5065 1152.4328,1105.5065   C 1155.0006,1105.5065 1157.1531,1104.789 1158.8902,1103.3162   C 1160.665,1101.8435 1161.8735,1099.6532 1162.4777,1096.7833   z "
     style="fill:#ffff00;fill-rule:nonzero;fill-opacity:1;stroke:#ffff00;stroke-width:1.0573581px;stroke-linecap:butt;stroke-linejoin:miter;stroke-miterlimit:282;stroke-dasharray:none;stroke-opacity:1;" />
  <path
     id="path15"
     d="  M 1172.6358,1108.7918   L 1172.6358,1074.4654   L 1185.5885,1074.4654   C 1187.892,1074.4654 1189.6291,1074.5787 1190.8375,1074.8053   C 1192.4991,1075.0696 1193.9341,1075.6361 1195.0669,1076.4291   C 1196.1998,1077.1844 1197.1061,1078.3172 1197.8236,1079.7145   C 1198.5034,1081.1495 1198.8432,1082.6977 1198.8432,1084.3971   C 1198.8432,1087.3426 1197.9369,1089.7971 1196.0865,1091.8363   C 1194.1984,1093.8378 1190.8753,1094.8573 1186.0039,1094.8573   L 1177.2051,1094.8573   L 1177.2051,1108.7918   z  M 1177.2051,1090.8167   L 1186.0794,1090.8167   C 1189.0249,1090.8167 1191.1019,1090.2503 1192.3103,1089.1552   C 1193.5564,1088.06 1194.1606,1086.5495 1194.1606,1084.5481   C 1194.1606,1083.1131 1193.8208,1081.8669 1193.1033,1080.8474   C 1192.348,1079.8278 1191.404,1079.148 1190.2333,1078.8459   C 1189.4403,1078.6193 1188.0431,1078.5438 1185.9661,1078.5438   L 1177.2051,1078.5438   z "
     style="fill:#ffff00;fill-rule:nonzero;fill-opacity:1;stroke:#ffff00;stroke-width:1.0573581px;stroke-linecap:butt;stroke-linejoin:miter;stroke-miterlimit:282;stroke-dasharray:none;stroke-opacity:1;" />
</svg>
