<?xml version="1.0" encoding="UTF-8" standalone="no"?>
<svg
   xmlns:dc="http://purl.org/dc/elements/1.1/"
   xmlns:cc="http://creativecommons.org/ns#"
   xmlns:rdf="http://www.w3.org/1999/02/22-rdf-syntax-ns#"
   xmlns:svg="http://www.w3.org/2000/svg"
   xmlns="http://www.w3.org/2000/svg"
   id="svg11"
   height="116.73mm"
   width="116.73mm"
   version="1.0">
  <metadata
     id="metadata15">
    <rdf:RDF>
      <cc:Work
         rdf:about="">
        <dc:format>image/svg+xml</dc:format>
        <dc:type
           rdf:resource="http://purl.org/dc/dcmitype/StillImage" />
      </cc:Work>
    </rdf:RDF>
  </metadata>
  <defs
     id="defs3">
    <pattern
       y="0"
       x="0"
       height="6"
       width="6"
       patternUnits="userSpaceOnUse"
       id="EMFhbasepattern" />
  </defs>
  <path
     id="path5"
     d="  M 220.57831,386.49156   L 220.57831,386.49156   L 386.49156,220.57831   L 220.57831,54.665059   L 54.665059,220.57831   L 220.57831,386.49156   z "
     style="fill:#ff8080;fill-rule:evenodd;fill-opacity:1;stroke:none;" />
  <path
     id="path7"
     d="  M 220.57831,386.49156   L 220.57831,386.49156   L 386.49156,220.57831   L 220.57831,54.665059   L 54.665059,220.57831   L 220.57831,386.49156  "
     style="fill:none;stroke:#000000;stroke-width:9.5903616px;stroke-linecap:butt;stroke-linejoin:miter;stroke-miterlimit:10;stroke-dasharray:none;stroke-opacity:1;" />
  <path
     id="path9"
     d="  M 187.89116,221.45743   L 196.08293,223.49538   C 194.36466,230.24859 191.28775,235.36345 186.81225,238.87992   C 182.3767,242.39638 176.94217,244.15461 170.50863,244.15461   C 163.83534,244.15461 158.44076,242.79598 154.24498,240.11867   C 150.08915,237.4014 146.89237,233.44538 144.73454,228.33052   C 142.53674,223.1757 141.45783,217.66124 141.45783,211.74719   C 141.45783,205.31365 142.69658,199.71927 145.13413,194.92409   C 147.61164,190.12891 151.08815,186.49257 155.64357,184.01506   C 160.19899,181.49759 165.19397,180.25883 170.62851,180.25883   C 176.82229,180.25883 182.01707,181.85723 186.21285,185.01405   C 190.44859,188.13092 193.36566,192.56646 195.04397,198.28072   L 186.97209,200.15883   C 185.53353,195.68333 183.45562,192.40662 180.73835,190.32871   C 178.02108,188.29076 174.58454,187.2518 170.46867,187.2518   C 165.71345,187.2518 161.75743,188.41064 158.56064,190.68835   C 155.36385,192.96606 153.1261,196.00301 151.80743,199.83915   C 150.52871,203.6753 149.88936,207.63132 149.88936,211.70723   C 149.88936,216.98192 150.64859,221.53735 152.16707,225.49337   C 153.7255,229.40943 156.08313,232.3265 159.31988,234.24457   C 162.55662,236.20261 166.07309,237.16164 169.82931,237.16164   C 174.38474,237.16164 178.3008,235.84297 181.45763,233.20562   C 184.61446,230.56827 186.77229,226.65221 187.89116,221.45743   z  M 205.83313,243.11566   L 205.83313,181.33775   L 229.00984,181.33775   C 233.7251,181.33775 237.52128,181.93715 240.35843,183.21586   C 243.19558,184.45462 245.43333,186.37269 247.07168,188.97008   C 248.67008,191.56747 249.46927,194.28474 249.46927,197.12188   C 249.46927,199.75923 248.75,202.2767 247.31144,204.59437   C 245.91285,206.91205 243.71506,208.79016 240.83795,210.22871   C 244.59417,211.34759 247.43132,213.18574 249.46927,215.86305   C 251.46727,218.5004 252.46626,221.61727 252.46626,225.21365   C 252.46626,228.09076 251.86686,230.76807 250.62811,233.28554   C 249.42931,235.76305 247.91084,237.68112 246.11265,239.03976   C 244.31445,240.35843 242.03674,241.39739 239.35943,242.0767   C 236.64217,242.75602 233.3255,243.11566 229.36947,243.11566   z  M 213.98494,207.27168   L 227.33152,207.27168   C 230.96787,207.27168 233.56526,207.03192 235.16365,206.55241   C 237.24156,205.95301 238.8,204.91405 239.83895,203.51546   C 240.91787,202.0769 241.43735,200.27871 241.43735,198.08092   C 241.43735,196.04297 240.95783,194.24478 239.95883,192.68634   C 238.95984,191.12791 237.56124,190.04899 235.72309,189.48956   C 233.9249,188.89016 230.76807,188.61044 226.33253,188.61044   L 213.98494,188.61044   z  M 213.98494,235.80301   L 229.36947,235.80301   C 232.00682,235.80301 233.88494,235.72309 234.92389,235.52329   C 236.802,235.20361 238.4004,234.64417 239.63915,233.84498   C 240.91787,233.04578 241.95682,231.9269 242.79598,230.40843   C 243.59518,228.88996 243.99478,227.17168 243.99478,225.21365   C 243.99478,222.89598 243.39538,220.89799 242.23654,219.17972   C 241.03775,217.5014 239.39939,216.30261 237.32148,215.62329   C 235.24357,214.94397 232.20662,214.58433 228.29056,214.58433   L 213.98494,214.58433   z  M 279.43915,243.11566   L 279.43915,188.61044   L 259.09959,188.61044   L 259.09959,181.33775   L 308.0504,181.33775   L 308.0504,188.61044   L 287.63092,188.61044   L 287.63092,243.11566   z "
     style="fill:#000000;fill-rule:evenodd;fill-opacity:1;stroke:none;" />
</svg>
