<?xml version="1.0" encoding="UTF-8" standalone="no"?>
<svg
   xmlns:dc="http://purl.org/dc/elements/1.1/"
   xmlns:cc="http://creativecommons.org/ns#"
   xmlns:rdf="http://www.w3.org/1999/02/22-rdf-syntax-ns#"
   xmlns:svg="http://www.w3.org/2000/svg"
   xmlns="http://www.w3.org/2000/svg"
   id="svg17"
   height="112.9mm"
   width="112.9mm"
   version="1.0">
  <metadata
     id="metadata21">
    <rdf:RDF>
      <cc:Work
         rdf:about="">
        <dc:format>image/svg+xml</dc:format>
        <dc:type
           rdf:resource="http://purl.org/dc/dcmitype/StillImage" />
      </cc:Work>
    </rdf:RDF>
  </metadata>
  <defs
     id="defs3">
    <pattern
       y="0"
       x="0"
       height="6"
       width="6"
       patternUnits="userSpaceOnUse"
       id="EMFhbasepattern" />
  </defs>
  <path
     id="path5"
     d="  M 451.74134,451.72623   L 600.99177,451.72623   L 600.99177,643.62504   L 451.74134,643.62504   L 451.74134,451.72623   z "
     style="fill:none;stroke:#000000;stroke-width:5.3263254px;stroke-linecap:butt;stroke-linejoin:miter;stroke-miterlimit:112;stroke-dasharray:none;stroke-opacity:1;" />
  <path
     id="path7"
     d="  M 451.74134,644.72053   L 526.34767,744.90078   L 600.99177,644.72053  "
     style="fill:none;stroke:#000000;stroke-width:5.3263254px;stroke-linecap:butt;stroke-linejoin:miter;stroke-miterlimit:112;stroke-dasharray:none;stroke-opacity:1;" />
  <path
     id="path9"
     d="  M 482.22605,470.68946   L 486.79687,470.68946   L 486.79687,490.55929   C 486.79687,493.99685 486.38134,496.75445 485.62583,498.75655   C 484.83255,500.79642 483.43486,502.45853 481.39499,503.70512   C 479.35512,504.98948 476.67307,505.63166 473.34884,505.63166   C 470.13794,505.63166 467.49366,505.06503 465.45379,503.96955   C 463.41392,502.87406 461.94068,501.24972 461.07185,499.1343   C 460.20302,497.05666 459.78749,494.18573 459.78749,490.55929   L 459.78749,470.68946   L 464.32053,470.68946   L 464.32053,490.52152   C 464.32053,493.50577 464.58496,495.69674 465.15159,497.13221   C 465.71822,498.52989 466.6626,499.62538 468.02252,500.38089   C 469.34465,501.13639 471.00677,501.51415 472.97109,501.51415   C 476.29532,501.51415 478.67517,500.75864 480.11063,499.24763   C 481.50832,497.73661 482.22605,494.82791 482.22605,490.52152   L 482.22605,470.68946   z "
     style="fill:#000000;fill-rule:nonzero;fill-opacity:1;stroke:#000000;stroke-width:1.0577101px;stroke-linecap:butt;stroke-linejoin:miter;stroke-miterlimit:112;stroke-dasharray:none;stroke-opacity:1;" />
  <path
     id="path11"
     d="  M 494.23861,505.02726   L 494.23861,470.68946   L 501.07595,470.68946   L 509.19766,495.01679   C 509.95316,497.28331 510.48202,498.9832 510.822,500.11646   C 511.23753,498.86987 511.84193,497.01888 512.67299,494.60126   L 520.90802,470.68946   L 526.98985,470.68946   L 526.98985,505.02726   L 522.60791,505.02726   L 522.60791,476.31798   L 512.63521,505.02726   L 508.55547,505.02726   L 498.62056,475.8269   L 498.62056,505.02726   L 494.23861,505.02726   z "
     style="fill:#000000;fill-rule:nonzero;fill-opacity:1;stroke:#000000;stroke-width:1.0577101px;stroke-linecap:butt;stroke-linejoin:miter;stroke-miterlimit:112;stroke-dasharray:none;stroke-opacity:1;" />
  <path
     id="path13"
     d="  M 558.87225,493.01469   L 563.44307,494.14795   C 562.46091,497.88771 560.76102,500.72087 558.30562,502.68518   C 555.81245,504.6495 552.79042,505.63166 549.20176,505.63166   C 545.49977,505.63166 542.51552,504.87615 540.17345,503.36514   C 537.86915,501.85413 536.09371,499.66316 534.8849,496.83   C 533.67609,493.95908 533.07168,490.89927 533.07168,487.61282   C 533.07168,484.02416 533.75164,480.92658 535.11155,478.24453   C 536.47146,475.60025 538.43578,473.56038 540.96673,472.20047   C 543.45991,470.80278 546.25528,470.12283 549.27731,470.12283   C 552.71487,470.12283 555.62357,470.99166 557.96564,472.72933   C 560.30771,474.50477 561.93206,476.96017 562.83866,480.1333   L 558.38117,481.19101   C 557.58789,478.66006 556.41685,476.84684 554.90584,475.71358   C 553.39482,474.58032 551.46828,474.01369 549.20176,474.01369   C 546.55748,474.01369 544.32874,474.65587 542.5533,475.90246   C 540.77785,477.18682 539.56904,478.84893 538.85131,481.00213   C 538.0958,483.11755 537.75583,485.34629 537.75583,487.57504   C 537.75583,490.52152 538.17136,493.05247 539.04019,495.24344   C 539.87125,497.43441 541.19338,499.05875 543.0066,500.11646   C 544.78204,501.21195 546.74636,501.7408 548.82401,501.7408   C 551.39273,501.7408 553.54593,501.02307 555.28359,499.54983   C 557.05903,498.07659 558.26785,495.88562 558.87225,493.01469   L 558.87225,493.01469   z "
     style="fill:#000000;fill-rule:nonzero;fill-opacity:1;stroke:#000000;stroke-width:1.0577101px;stroke-linecap:butt;stroke-linejoin:miter;stroke-miterlimit:112;stroke-dasharray:none;stroke-opacity:1;" />
  <path
     id="path15"
     d="  M 569.03382,505.02726   L 569.03382,470.68946   L 581.99077,470.68946   C 584.29507,470.68946 586.03273,470.80278 587.24154,471.02943   C 588.90366,471.29386 590.33912,471.86049 591.47238,472.65377   C 592.60565,473.40928 593.51225,474.54254 594.22999,475.94023   C 594.90994,477.37569 595.24992,478.92448 595.24992,480.62438   C 595.24992,483.57085 594.34331,486.02625 592.49232,488.06612   C 590.60355,490.06821 587.27932,491.08815 582.4063,491.08815   L 573.60464,491.08815   L 573.60464,505.02726   L 569.03382,505.02726   z  M 573.60464,487.04619   L 582.48185,487.04619   C 585.42833,487.04619 587.50597,486.47956 588.71478,485.38407   C 589.96137,484.28858 590.56578,482.77757 590.56578,480.77548   C 590.56578,479.34001 590.2258,478.09343 589.50807,477.07349   C 588.75256,476.05356 587.80818,475.3736 586.63714,475.0714   C 585.84386,474.84475 584.44617,474.76919 582.36852,474.76919   L 573.60464,474.76919   L 573.60464,487.04619   z "
     style="fill:#000000;fill-rule:nonzero;fill-opacity:1;stroke:#000000;stroke-width:1.0577101px;stroke-linecap:butt;stroke-linejoin:miter;stroke-miterlimit:112;stroke-dasharray:none;stroke-opacity:1;" />
</svg>
