<?xml version="1.0" encoding="UTF-8" standalone="no"?>
<svg
   xmlns:dc="http://purl.org/dc/elements/1.1/"
   xmlns:cc="http://creativecommons.org/ns#"
   xmlns:rdf="http://www.w3.org/1999/02/22-rdf-syntax-ns#"
   xmlns:svg="http://www.w3.org/2000/svg"
   xmlns="http://www.w3.org/2000/svg"
   id="svg9"
   height="112.9mm"
   width="112.9mm"
   version="1.0">
  <metadata
     id="metadata13">
    <rdf:RDF>
      <cc:Work
         rdf:about="">
        <dc:format>image/svg+xml</dc:format>
        <dc:type
           rdf:resource="http://purl.org/dc/dcmitype/StillImage" />
      </cc:Work>
    </rdf:RDF>
  </metadata>
  <defs
     id="defs3">
    <pattern
       y="0"
       x="0"
       height="6"
       width="6"
       patternUnits="userSpaceOnUse"
       id="EMFhbasepattern" />
  </defs>
  <path
     id="path5"
     d="  M 878.16091,1059.3693   C 752.33119,1059.3693 752.33119,878.16091 878.16091,878.16091   C 878.16091,752.33119 1059.3693,752.33119 1059.3693,878.16091   C 1185.199,878.16091 1185.199,1059.3693 1059.3693,1059.3693   C 1059.3693,1185.199 878.16091,1185.199 878.16091,1059.3693   z "
     style="fill:#ffff80;fill-rule:nonzero;fill-opacity:1;stroke:#000000;stroke-width:10.652651px;stroke-linecap:butt;stroke-linejoin:miter;stroke-miterlimit:112;stroke-dasharray:none;stroke-opacity:1;" />
  <path
     id="path7"
     d="  M 986.0851,1013.3967   L 952.91834,1013.3967   C 952.84279,1008.637 952.76724,1005.7283 952.76724,1004.6706   C 952.76724,993.9046 954.54268,985.06517 958.13134,978.1145   C 961.68222,971.20161 968.78399,963.38211 979.47442,954.69378   C 990.12707,946.00545 996.5111,940.33915 998.58875,937.6571   C 1001.7997,933.38848 1003.3862,928.70434 1003.424,923.60466   C 1003.3862,916.46512 1000.5531,910.38329 994.88676,905.32139   C 989.18268,900.22172 981.55206,897.69077 971.91934,897.69077   C 962.62661,897.69077 954.84488,900.33504 948.61195,905.62359   C 942.37901,910.91214 938.07262,918.99607 935.73055,929.8376   L 902.14826,925.68231   C 903.09264,910.15663 909.74111,896.97303 922.0181,886.13151   C 934.29509,875.2522 950.38739,869.85033 970.33278,869.85033   C 991.33588,869.85033 1008.0326,875.32775 1020.4607,886.32038   C 1032.851,897.27524 1039.0462,910.04331 1039.0462,924.6246   C 1039.0462,932.70852 1036.7796,940.33915 1032.2466,947.55424   C 1027.6758,954.73156 1017.9297,964.55315 1003.0085,976.94347   C 995.30229,983.36528 990.50482,988.5405 988.61605,992.43136   C 986.76506,996.36 985.934,1003.3107 986.0851,1013.3967   L 986.0851,1013.3967   z  M 952.91834,1062.5802   L 952.91834,1026.0137   L 989.48489,1026.0137   L 989.48489,1062.5802   L 952.91834,1062.5802   z "
     style="fill:#000000;fill-rule:nonzero;fill-opacity:1;stroke:none;" />
</svg>
