<?xml version="1.0" encoding="UTF-8" standalone="no"?>
<svg
   xmlns:dc="http://purl.org/dc/elements/1.1/"
   xmlns:cc="http://creativecommons.org/ns#"
   xmlns:rdf="http://www.w3.org/1999/02/22-rdf-syntax-ns#"
   xmlns:svg="http://www.w3.org/2000/svg"
   xmlns="http://www.w3.org/2000/svg"
   id="svg15"
   height="116.73mm"
   width="116.73mm"
   version="1.0">
  <metadata
     id="metadata19">
    <rdf:RDF>
      <cc:Work
         rdf:about="">
        <dc:format>image/svg+xml</dc:format>
        <dc:type
           rdf:resource="http://purl.org/dc/dcmitype/StillImage" />
      </cc:Work>
    </rdf:RDF>
  </metadata>
  <defs
     id="defs3">
    <pattern
       y="0"
       x="0"
       height="6"
       width="6"
       patternUnits="userSpaceOnUse"
       id="EMFhbasepattern" />
  </defs>
  <path
     id="path5"
     d="  M 220.57831,386.49156   L 220.57831,386.49156   L 386.49156,220.57831   L 220.57831,54.665059   L 54.665059,220.57831   z "
     style="fill:#ff8080;fill-rule:evenodd;fill-opacity:1;stroke:none;" />
  <path
     id="path7"
     d="  M 220.57831,386.49156   L 220.57831,386.49156   L 386.49156,220.57831   L 220.57831,54.665059   L 54.665059,220.57831   z "
     style="fill:none;stroke:#000000;stroke-width:9.5903616px;stroke-linecap:butt;stroke-linejoin:miter;stroke-miterlimit:10;stroke-dasharray:none;stroke-opacity:1;" />
  <path
     id="path9"
     d="  M 124.6747,182.21686   L 124.6747,182.21686   L 124.6747,220.57831   L 220.57831,278.12048   L 316.48192,220.57831   L 316.48192,182.21686   L 220.57831,239.75903   z "
     style="fill:#000000;fill-rule:evenodd;fill-opacity:1;stroke:none;" />
  <path
     id="path11"
     d="  M 155.28393,167.19197   L 171.10803,125.99337   L 176.98213,125.99337   L 193.84518,167.19197   L 187.6514,167.19197   L 182.81626,154.7245   L 165.59357,154.7245   L 161.07811,167.19197   z  M 167.19197,150.28895   L 181.13795,150.28895   L 176.86225,138.86044   C 175.54357,135.42389 174.54458,132.54679 173.94518,130.34899   C 173.38574,132.98634 172.66646,135.58373 171.70743,138.18112   z  M 196.36265,153.96526   L 201.47751,153.5257   C 201.71727,155.56365 202.31666,157.28193 203.19578,158.6006   C 204.0749,159.91927 205.47349,160.95823 207.3516,161.79739   C 209.18976,162.59658 211.30763,162.99618 213.66526,162.99618   C 215.74317,162.99618 217.58132,162.71646 219.17972,162.07711   C 220.73815,161.47771 221.93694,160.59859 222.73614,159.55964   C 223.49538,158.48072 223.89498,157.28193 223.89498,156.00321   C 223.89498,154.7245 223.49538,153.60562 222.7761,152.64658   C 222.01686,151.64759 220.77811,150.84839 219.05984,150.20903   C 217.94096,149.76948 215.50341,149.09016 211.70723,148.17108   C 207.951,147.29197 205.27369,146.41285 203.75522,145.61365   C 201.79719,144.5747 200.31867,143.29598 199.35964,141.77751   C 198.4006,140.25903 197.92108,138.54076 197.92108,136.66265   C 197.92108,134.58474 198.52048,132.6267 199.67931,130.82851   C 200.87811,129.03032 202.59638,127.63173 204.87409,126.71265   C 207.11184,125.75361 209.62931,125.31405 212.4265,125.31405   C 215.46345,125.31405 218.18072,125.79357 220.49839,126.79257   C 222.81606,127.7516 224.61425,129.19016 225.89297,131.10823   C 227.13172,133.0263 227.81104,135.18413 227.89096,137.62168   L 222.65622,138.02128   C 222.3765,135.38393 221.45743,133.4259 219.81907,132.10723   C 218.22068,130.78855 215.82309,130.10924 212.6263,130.10924   C 209.3496,130.10924 206.95201,130.70863 205.43353,131.90743   C 203.91506,133.14618 203.15582,134.58474 203.15582,136.30301   C 203.15582,137.78152 203.71526,138.98032 204.79417,139.93936   C 205.83313,140.89839 208.5504,141.89739 212.98594,142.89638   C 217.42148,143.89538 220.45843,144.7745 222.09678,145.49377   C 224.49437,146.61265 226.29257,148.01124 227.41144,149.68956   C 228.57028,151.40783 229.12972,153.36586 229.12972,155.56365   C 229.12972,157.76144 228.49036,159.83936 227.2516,161.75743   C 226.01285,163.71546 224.21466,165.19397 221.85702,166.27289   C 219.49939,167.3518 216.86205,167.91124 213.90502,167.91124   C 210.18875,167.91124 207.07188,167.3518 204.55441,166.27289   C 202.03694,165.19397 200.03895,163.55562 198.6004,161.35783   C 197.16184,159.2 196.44257,156.72249 196.36265,153.96526   z  M 243.75502,167.19197   L 232.84598,125.99337   L 238.44036,125.99337   L 244.71405,153.00622   C 245.39337,155.84337 245.95281,158.64056 246.43233,161.43775   C 247.51124,157.04217 248.11064,154.48474 248.31044,153.80542   L 256.14257,125.99337   L 262.69598,125.99337   L 268.61004,146.85241   C 270.08855,152.00723 271.16747,156.88233 271.80682,161.43775   C 272.3263,158.84036 273.00562,155.84337 273.88473,152.48674   L 280.31827,125.99337   L 285.79277,125.99337   L 274.52409,167.19197   L 269.24939,167.19197   L 260.57811,135.82349   C 259.85883,133.18614 259.41927,131.58775 259.29939,130.98835   C 258.85984,132.86646 258.46024,134.46486 258.06064,135.82349   L 249.34939,167.19197   z "
     style="fill:#000000;fill-rule:evenodd;fill-opacity:1;stroke:none;" />
  <path
     id="path13"
     d="  M 155.28393,167.19197   L 171.10803,125.99337   L 176.98213,125.99337   L 193.84518,167.19197   L 187.6514,167.19197   L 182.81626,154.7245   L 165.59357,154.7245   L 161.07811,167.19197   z  M 167.19197,150.28895   L 181.13795,150.28895   L 176.86225,138.86044   C 175.54357,135.42389 174.54458,132.54679 173.94518,130.34899   C 173.38574,132.98634 172.66646,135.58373 171.70743,138.18112   z  M 196.36265,153.96526   L 201.47751,153.5257   C 201.71727,155.56365 202.31666,157.28193 203.19578,158.6006   C 204.0749,159.91927 205.47349,160.95823 207.3516,161.79739   C 209.18976,162.59658 211.30763,162.99618 213.66526,162.99618   C 215.74317,162.99618 217.58132,162.71646 219.17972,162.07711   C 220.73815,161.47771 221.93694,160.59859 222.73614,159.55964   C 223.49538,158.48072 223.89498,157.28193 223.89498,156.00321   C 223.89498,154.7245 223.49538,153.60562 222.7761,152.64658   C 222.01686,151.64759 220.77811,150.84839 219.05984,150.20903   C 217.94096,149.76948 215.50341,149.09016 211.70723,148.17108   C 207.951,147.29197 205.27369,146.41285 203.75522,145.61365   C 201.79719,144.5747 200.31867,143.29598 199.35964,141.77751   C 198.4006,140.25903 197.92108,138.54076 197.92108,136.66265   C 197.92108,134.58474 198.52048,132.6267 199.67931,130.82851   C 200.87811,129.03032 202.59638,127.63173 204.87409,126.71265   C 207.11184,125.75361 209.62931,125.31405 212.4265,125.31405   C 215.46345,125.31405 218.18072,125.79357 220.49839,126.79257   C 222.81606,127.7516 224.61425,129.19016 225.89297,131.10823   C 227.13172,133.0263 227.81104,135.18413 227.89096,137.62168   L 222.65622,138.02128   C 222.3765,135.38393 221.45743,133.4259 219.81907,132.10723   C 218.22068,130.78855 215.82309,130.10924 212.6263,130.10924   C 209.3496,130.10924 206.95201,130.70863 205.43353,131.90743   C 203.91506,133.14618 203.15582,134.58474 203.15582,136.30301   C 203.15582,137.78152 203.71526,138.98032 204.79417,139.93936   C 205.83313,140.89839 208.5504,141.89739 212.98594,142.89638   C 217.42148,143.89538 220.45843,144.7745 222.09678,145.49377   C 224.49437,146.61265 226.29257,148.01124 227.41144,149.68956   C 228.57028,151.40783 229.12972,153.36586 229.12972,155.56365   C 229.12972,157.76144 228.49036,159.83936 227.2516,161.75743   C 226.01285,163.71546 224.21466,165.19397 221.85702,166.27289   C 219.49939,167.3518 216.86205,167.91124 213.90502,167.91124   C 210.18875,167.91124 207.07188,167.3518 204.55441,166.27289   C 202.03694,165.19397 200.03895,163.55562 198.6004,161.35783   C 197.16184,159.2 196.44257,156.72249 196.36265,153.96526   z  M 243.75502,167.19197   L 232.84598,125.99337   L 238.44036,125.99337   L 244.71405,153.00622   C 245.39337,155.84337 245.95281,158.64056 246.43233,161.43775   C 247.51124,157.04217 248.11064,154.48474 248.31044,153.80542   L 256.14257,125.99337   L 262.69598,125.99337   L 268.61004,146.85241   C 270.08855,152.00723 271.16747,156.88233 271.80682,161.43775   C 272.3263,158.84036 273.00562,155.84337 273.88473,152.48674   L 280.31827,125.99337   L 285.79277,125.99337   L 274.52409,167.19197   L 269.24939,167.19197   L 260.57811,135.82349   C 259.85883,133.18614 259.41927,131.58775 259.29939,130.98835   C 258.85984,132.86646 258.46024,134.46486 258.06064,135.82349   L 249.34939,167.19197   z "
     style="fill:none;stroke:#000000;stroke-width:0.95903611px;stroke-linecap:butt;stroke-linejoin:miter;stroke-miterlimit:10;stroke-dasharray:none;stroke-opacity:1;" />
</svg>
