<?xml version="1.0" encoding="UTF-8" standalone="no"?>
<svg
   xmlns:dc="http://purl.org/dc/elements/1.1/"
   xmlns:cc="http://creativecommons.org/ns#"
   xmlns:rdf="http://www.w3.org/1999/02/22-rdf-syntax-ns#"
   xmlns:svg="http://www.w3.org/2000/svg"
   xmlns="http://www.w3.org/2000/svg"
   id="svg15"
   height="101.85mm"
   width="101.85mm"
   version="1.0">
  <metadata
     id="metadata19">
    <rdf:RDF>
      <cc:Work
         rdf:about="">
        <dc:format>image/svg+xml</dc:format>
        <dc:type
           rdf:resource="http://purl.org/dc/dcmitype/StillImage" />
      </cc:Work>
    </rdf:RDF>
  </metadata>
  <defs
     id="defs3">
    <pattern
       y="0"
       x="0"
       height="6"
       width="6"
       patternUnits="userSpaceOnUse"
       id="EMFhbasepattern" />
  </defs>
  <path
     id="path5"
     d="  M 330.54779,192.44658   C 330.54779,268.72992 268.72992,330.54779 192.44658,330.54779   C 116.20321,330.54779 54.345381,268.72992 54.345381,192.44658   C 54.345381,116.20321 116.20321,54.345381 192.44658,54.345381   C 268.72992,54.345381 330.54779,116.20321 330.54779,192.44658   z "
     style="fill:#80e0ff;fill-rule:evenodd;fill-opacity:1;stroke:none;" />
  <path
     id="path7"
     d="  M 330.54779,192.44658   C 330.54779,268.72992 268.72992,330.54779 192.44658,330.54779   C 116.20321,330.54779 54.345381,268.72992 54.345381,192.44658   C 54.345381,116.20321 116.20321,54.345381 192.44658,54.345381   C 268.72992,54.345381 330.54779,116.20321 330.54779,192.44658  "
     style="fill:none;stroke:#000000;stroke-width:9.5903616px;stroke-linecap:butt;stroke-linejoin:miter;stroke-miterlimit:10;stroke-dasharray:none;stroke-opacity:1;" />
  <path
     id="path9"
     d="  M 96.54297,154.08514   L 96.54297,154.08514   L 96.54297,192.44658   L 192.44658,249.98875   L 288.3502,192.44658   L 288.3502,154.08514   L 192.44658,211.62731   z "
     style="fill:#000000;fill-rule:evenodd;fill-opacity:1;stroke:none;" />
  <path
     id="path11"
     d="  M 127.15221,139.06024   L 142.9763,97.861645   L 148.8504,97.861645   L 165.71345,139.06024   L 159.51968,139.06024   L 154.68454,126.59277   L 137.46185,126.59277   L 132.94638,139.06024   z  M 139.06024,122.15723   L 153.00622,122.15723   L 148.73052,110.72871   C 147.41185,107.29217 146.41285,104.41506 145.81345,102.21727   C 145.25401,104.85462 144.53474,107.45201 143.5757,110.0494   z  M 168.23092,125.83353   L 173.34578,125.39397   C 173.58554,127.43193 174.18494,129.1502 175.06405,130.46887   C 175.94317,131.78755 177.34176,132.8265 179.21988,133.66566   C 181.05803,134.46486 183.1759,134.86446 185.53353,134.86446   C 187.61144,134.86446 189.4496,134.58474 191.04799,133.94538   C 192.60642,133.34598 193.80522,132.46687 194.60441,131.42791   C 195.36365,130.34899 195.76325,129.1502 195.76325,127.87148   C 195.76325,126.59277 195.36365,125.47389 194.64437,124.51486   C 193.88514,123.51586 192.64638,122.71666 190.92811,122.07731   C 189.80923,121.63775 187.37168,120.95843 183.5755,120.03936   C 179.81927,119.16024 177.14197,118.28112 175.62349,117.48193   C 173.66546,116.44297 172.18695,115.16426 171.22791,113.64578   C 170.26887,112.12731 169.78935,110.40903 169.78935,108.53092   C 169.78935,106.45301 170.38875,104.49498 171.54759,102.69679   C 172.74638,100.89859 174.46466,99.499999 176.74237,98.580922   C 178.98012,97.621886 181.49759,97.182328 184.29478,97.182328   C 187.33172,97.182328 190.04899,97.661846 192.36666,98.660842   C 194.68433,99.619878 196.48253,101.05843 197.76124,102.9765   C 199,104.89458 199.67931,107.05241 199.75923,109.48996   L 194.5245,109.88956   C 194.24478,107.25221 193.3257,105.29418 191.68735,103.9755   C 190.08895,102.65683 187.69136,101.97751 184.49458,101.97751   C 181.21787,101.97751 178.82028,102.57691 177.3018,103.7757   C 175.78333,105.01446 175.02409,106.45301 175.02409,108.17128   C 175.02409,109.6498 175.58353,110.84859 176.66245,111.80763   C 177.7014,112.76667 180.41867,113.76566 184.85421,114.76466   C 189.28976,115.76365 192.3267,116.64277 193.96506,117.36205   C 196.36265,118.48092 198.16084,119.87952 199.27972,121.55783   C 200.43855,123.2761 200.99799,125.23413 200.99799,127.43193   C 200.99799,129.62972 200.35863,131.70763 199.11988,133.6257   C 197.88112,135.58373 196.08293,137.06225 193.7253,138.14116   C 191.36767,139.22008 188.73032,139.77952 185.77329,139.77952   C 182.05703,139.77952 178.94016,139.22008 176.42269,138.14116   C 173.90522,137.06225 171.90723,135.42389 170.46867,133.2261   C 169.03012,131.06827 168.31084,128.59076 168.23092,125.83353   z  M 215.62329,139.06024   L 204.71425,97.861645   L 210.30863,97.861645   L 216.58233,124.8745   C 217.26164,127.71164 217.82108,130.50883 218.3006,133.30602   C 219.37951,128.91044 219.97891,126.35301 220.17871,125.67369   L 228.01084,97.861645   L 234.56425,97.861645   L 240.47831,118.72068   C 241.95682,123.8755 243.03574,128.7506 243.6751,133.30602   C 244.19457,130.70863 244.87389,127.71164 245.75301,124.35502   L 252.18654,97.861645   L 257.66104,97.861645   L 246.39237,139.06024   L 241.11767,139.06024   L 232.44638,107.69177   C 231.72711,105.05442 231.28755,103.45602 231.16767,102.85663   C 230.72811,104.73474 230.32851,106.33313 229.92891,107.69177   L 221.21767,139.06024   z "
     style="fill:#000000;fill-rule:evenodd;fill-opacity:1;stroke:none;" />
  <path
     id="path13"
     d="  M 127.15221,139.06024   L 142.9763,97.861645   L 148.8504,97.861645   L 165.71345,139.06024   L 159.51968,139.06024   L 154.68454,126.59277   L 137.46185,126.59277   L 132.94638,139.06024   z  M 139.06024,122.15723   L 153.00622,122.15723   L 148.73052,110.72871   C 147.41185,107.29217 146.41285,104.41506 145.81345,102.21727   C 145.25401,104.85462 144.53474,107.45201 143.5757,110.0494   z  M 168.23092,125.83353   L 173.34578,125.39397   C 173.58554,127.43193 174.18494,129.1502 175.06405,130.46887   C 175.94317,131.78755 177.34176,132.8265 179.21988,133.66566   C 181.05803,134.46486 183.1759,134.86446 185.53353,134.86446   C 187.61144,134.86446 189.4496,134.58474 191.04799,133.94538   C 192.60642,133.34598 193.80522,132.46687 194.60441,131.42791   C 195.36365,130.34899 195.76325,129.1502 195.76325,127.87148   C 195.76325,126.59277 195.36365,125.47389 194.64437,124.51486   C 193.88514,123.51586 192.64638,122.71666 190.92811,122.07731   C 189.80923,121.63775 187.37168,120.95843 183.5755,120.03936   C 179.81927,119.16024 177.14197,118.28112 175.62349,117.48193   C 173.66546,116.44297 172.18695,115.16426 171.22791,113.64578   C 170.26887,112.12731 169.78935,110.40903 169.78935,108.53092   C 169.78935,106.45301 170.38875,104.49498 171.54759,102.69679   C 172.74638,100.89859 174.46466,99.499999 176.74237,98.580922   C 178.98012,97.621886 181.49759,97.182328 184.29478,97.182328   C 187.33172,97.182328 190.04899,97.661846 192.36666,98.660842   C 194.68433,99.619878 196.48253,101.05843 197.76124,102.9765   C 199,104.89458 199.67931,107.05241 199.75923,109.48996   L 194.5245,109.88956   C 194.24478,107.25221 193.3257,105.29418 191.68735,103.9755   C 190.08895,102.65683 187.69136,101.97751 184.49458,101.97751   C 181.21787,101.97751 178.82028,102.57691 177.3018,103.7757   C 175.78333,105.01446 175.02409,106.45301 175.02409,108.17128   C 175.02409,109.6498 175.58353,110.84859 176.66245,111.80763   C 177.7014,112.76667 180.41867,113.76566 184.85421,114.76466   C 189.28976,115.76365 192.3267,116.64277 193.96506,117.36205   C 196.36265,118.48092 198.16084,119.87952 199.27972,121.55783   C 200.43855,123.2761 200.99799,125.23413 200.99799,127.43193   C 200.99799,129.62972 200.35863,131.70763 199.11988,133.6257   C 197.88112,135.58373 196.08293,137.06225 193.7253,138.14116   C 191.36767,139.22008 188.73032,139.77952 185.77329,139.77952   C 182.05703,139.77952 178.94016,139.22008 176.42269,138.14116   C 173.90522,137.06225 171.90723,135.42389 170.46867,133.2261   C 169.03012,131.06827 168.31084,128.59076 168.23092,125.83353   z  M 215.62329,139.06024   L 204.71425,97.861645   L 210.30863,97.861645   L 216.58233,124.8745   C 217.26164,127.71164 217.82108,130.50883 218.3006,133.30602   C 219.37951,128.91044 219.97891,126.35301 220.17871,125.67369   L 228.01084,97.861645   L 234.56425,97.861645   L 240.47831,118.72068   C 241.95682,123.8755 243.03574,128.7506 243.6751,133.30602   C 244.19457,130.70863 244.87389,127.71164 245.75301,124.35502   L 252.18654,97.861645   L 257.66104,97.861645   L 246.39237,139.06024   L 241.11767,139.06024   L 232.44638,107.69177   C 231.72711,105.05442 231.28755,103.45602 231.16767,102.85663   C 230.72811,104.73474 230.32851,106.33313 229.92891,107.69177   L 221.21767,139.06024   z "
     style="fill:none;stroke:#000000;stroke-width:0.95903611px;stroke-linecap:butt;stroke-linejoin:miter;stroke-miterlimit:10;stroke-dasharray:none;stroke-opacity:1;" />
</svg>
