<?xml version="1.0" encoding="UTF-8" standalone="no"?>
<svg
   xmlns:dc="http://purl.org/dc/elements/1.1/"
   xmlns:cc="http://creativecommons.org/ns#"
   xmlns:rdf="http://www.w3.org/1999/02/22-rdf-syntax-ns#"
   xmlns:svg="http://www.w3.org/2000/svg"
   xmlns="http://www.w3.org/2000/svg"
   id="svg15"
   height="130.27mm"
   width="130.27mm"
   version="1.0">
  <metadata
     id="metadata19">
    <rdf:RDF>
      <cc:Work
         rdf:about="">
        <dc:format>image/svg+xml</dc:format>
        <dc:type
           rdf:resource="http://purl.org/dc/dcmitype/StillImage" />
      </cc:Work>
    </rdf:RDF>
  </metadata>
  <defs
     id="defs3">
    <pattern
       y="0"
       x="0"
       height="6"
       width="6"
       patternUnits="userSpaceOnUse"
       id="EMFhbasepattern" />
  </defs>
  <path
     id="path5"
     d="  M 164.63454,327.67068   C 164.63454,437.95983 327.67068,437.95983 327.67068,327.67068   C 437.95983,327.67068 437.95983,164.63454 327.67068,164.63454   C 327.67068,54.345381 164.63454,54.345381 164.63454,164.63454   C 54.345381,164.63454 54.345381,327.67068 164.63454,327.67068   z "
     style="fill:#ffff80;fill-rule:evenodd;fill-opacity:1;stroke:none;" />
  <path
     id="path7"
     d="  M 164.63454,327.67068   C 164.63454,437.95983 327.67068,437.95983 327.67068,327.67068   C 437.95983,327.67068 437.95983,164.63454 327.67068,164.63454   C 327.67068,54.345381 164.63454,54.345381 164.63454,164.63454   C 54.345381,164.63454 54.345381,327.67068 164.63454,327.67068  "
     style="fill:none;stroke:#000000;stroke-width:9.5903616px;stroke-linecap:butt;stroke-linejoin:miter;stroke-miterlimit:10;stroke-dasharray:none;stroke-opacity:1;" />
  <path
     id="path9"
     d="  M 150.24899,207.79116   L 150.24899,207.79116   L 150.24899,246.15261   L 246.15261,303.69477   L 342.05622,246.15261   L 342.05622,207.79116   L 246.15261,265.33333   z "
     style="fill:#000000;fill-rule:evenodd;fill-opacity:1;stroke:none;" />
  <path
     id="path11"
     d="  M 183.53554,179.53956   L 188.69036,179.1   C 188.93012,181.13795 189.48956,182.85622 190.36867,184.1749   C 191.28775,185.49357 192.64638,186.53253 194.5245,187.37168   C 196.40261,188.17088 198.52048,188.57048 200.83815,188.57048   C 202.91606,188.57048 204.75421,188.29076 206.35261,187.6514   C 207.951,187.05201 209.1498,186.17289 209.90903,185.13393   C 210.70823,184.05502 211.06787,182.85622 211.06787,181.57751   C 211.06787,180.29879 210.70823,179.17992 209.94899,178.22088   C 209.18976,177.22188 207.951,176.42269 206.23273,175.78333   C 205.15381,175.34377 202.6763,174.66446 198.92008,173.74538   C 195.12389,172.86626 192.48654,171.98715 190.96807,171.18795   C 189.01004,170.14899 187.53152,168.87028 186.57249,167.3518   C 185.61345,165.83333 185.13393,164.11506 185.13393,162.23695   C 185.13393,160.15903 185.69337,158.201 186.89217,156.40281   C 188.051,154.60462 189.80923,153.20602 192.04699,152.28695   C 194.3247,151.32791 196.84217,150.88835 199.59939,150.88835   C 202.6763,150.88835 205.35361,151.36787 207.67128,152.36687   C 210.02891,153.3259 211.82711,154.76446 213.06586,156.68253   C 214.34458,158.6006 214.98393,160.75843 215.10381,163.19598   L 209.86907,163.59558   C 209.58935,160.95823 208.63032,159.0002 207.03192,157.68152   C 205.39357,156.36285 202.99598,155.68353 199.83915,155.68353   C 196.52249,155.68353 194.1249,156.28293 192.64638,157.48172   C 191.12791,158.72048 190.36867,160.15903 190.36867,161.87731   C 190.36867,163.35582 190.88815,164.55462 191.96707,165.51365   C 193.00602,166.47269 195.76325,167.47168 200.19879,168.47068   C 204.63433,169.46968 207.67128,170.34879 209.30964,171.06807   C 211.70723,172.18695 213.46546,173.58554 214.62429,175.26385   C 215.74317,176.98213 216.34257,178.94016 216.34257,181.13795   C 216.34257,183.33574 215.70321,185.41365 214.46445,187.33172   C 213.18574,189.28976 211.38755,190.76827 209.02992,191.84719   C 206.67229,192.9261 204.03494,193.48554 201.11787,193.48554   C 197.36164,193.48554 194.24478,192.9261 191.72731,191.84719   C 189.20984,190.76827 187.2518,189.12992 185.81325,186.93213   C 184.3747,184.77429 183.61546,182.29678 183.53554,179.53956   z  M 250.78795,151.56767   L 256.26245,151.56767   L 256.26245,175.38373   C 256.26245,179.4996 255.78293,182.81626 254.86385,185.25381   C 253.90482,187.69136 252.2265,189.64939 249.78895,191.16787   C 247.3514,192.7263 244.11466,193.48554 240.15863,193.48554   C 236.28253,193.48554 233.1257,192.80622 230.68815,191.48755   C 228.2506,190.12891 226.49237,188.21084 225.45341,185.69337   C 224.37449,183.1759 223.85502,179.73935 223.85502,175.38373   L 223.85502,151.56767   L 229.32951,151.56767   L 229.32951,175.34377   C 229.32951,178.94016 229.64919,181.57751 230.32851,183.25582   C 230.96787,184.97409 232.1267,186.25281 233.7251,187.17188   C 235.36345,188.09096 237.32148,188.57048 239.67911,188.57048   C 243.6751,188.57048 246.55221,187.6514 248.23052,185.81325   C 249.94879,184.01506 250.78795,180.53855 250.78795,175.34377   z  M 272.5261,192.76626   L 261.5771,151.56767   L 267.17148,151.56767   L 273.44518,178.58052   C 274.12449,181.41767 274.72389,184.21486 275.20341,187.01205   C 276.24237,182.61646 276.84176,180.05903 277.04156,179.37972   L 284.87369,151.56767   L 291.46706,151.56767   L 297.38112,172.4267   C 298.85963,177.58152 299.89859,182.45662 300.57791,187.01205   C 301.09739,184.41466 301.7767,181.41767 302.61586,178.06104   L 309.08935,151.56767   L 314.56385,151.56767   L 303.25522,192.76626   L 298.02048,192.76626   L 289.30923,161.39779   C 288.58996,158.76044 288.1504,157.16205 288.03052,156.56265   C 287.59096,158.44076 287.19136,160.03915 286.83172,161.39779   L 278.08052,192.76626   z "
     style="fill:#000000;fill-rule:evenodd;fill-opacity:1;stroke:none;" />
  <path
     id="path13"
     d="  M 183.53554,179.53956   L 188.69036,179.1   C 188.93012,181.13795 189.48956,182.85622 190.36867,184.1749   C 191.28775,185.49357 192.64638,186.53253 194.5245,187.37168   C 196.40261,188.17088 198.52048,188.57048 200.83815,188.57048   C 202.91606,188.57048 204.75421,188.29076 206.35261,187.6514   C 207.951,187.05201 209.1498,186.17289 209.90903,185.13393   C 210.70823,184.05502 211.06787,182.85622 211.06787,181.57751   C 211.06787,180.29879 210.70823,179.17992 209.94899,178.22088   C 209.18976,177.22188 207.951,176.42269 206.23273,175.78333   C 205.15381,175.34377 202.6763,174.66446 198.92008,173.74538   C 195.12389,172.86626 192.48654,171.98715 190.96807,171.18795   C 189.01004,170.14899 187.53152,168.87028 186.57249,167.3518   C 185.61345,165.83333 185.13393,164.11506 185.13393,162.23695   C 185.13393,160.15903 185.69337,158.201 186.89217,156.40281   C 188.051,154.60462 189.80923,153.20602 192.04699,152.28695   C 194.3247,151.32791 196.84217,150.88835 199.59939,150.88835   C 202.6763,150.88835 205.35361,151.36787 207.67128,152.36687   C 210.02891,153.3259 211.82711,154.76446 213.06586,156.68253   C 214.34458,158.6006 214.98393,160.75843 215.10381,163.19598   L 209.86907,163.59558   C 209.58935,160.95823 208.63032,159.0002 207.03192,157.68152   C 205.39357,156.36285 202.99598,155.68353 199.83915,155.68353   C 196.52249,155.68353 194.1249,156.28293 192.64638,157.48172   C 191.12791,158.72048 190.36867,160.15903 190.36867,161.87731   C 190.36867,163.35582 190.88815,164.55462 191.96707,165.51365   C 193.00602,166.47269 195.76325,167.47168 200.19879,168.47068   C 204.63433,169.46968 207.67128,170.34879 209.30964,171.06807   C 211.70723,172.18695 213.46546,173.58554 214.62429,175.26385   C 215.74317,176.98213 216.34257,178.94016 216.34257,181.13795   C 216.34257,183.33574 215.70321,185.41365 214.46445,187.33172   C 213.18574,189.28976 211.38755,190.76827 209.02992,191.84719   C 206.67229,192.9261 204.03494,193.48554 201.11787,193.48554   C 197.36164,193.48554 194.24478,192.9261 191.72731,191.84719   C 189.20984,190.76827 187.2518,189.12992 185.81325,186.93213   C 184.3747,184.77429 183.61546,182.29678 183.53554,179.53956   z  M 250.78795,151.56767   L 256.26245,151.56767   L 256.26245,175.38373   C 256.26245,179.4996 255.78293,182.81626 254.86385,185.25381   C 253.90482,187.69136 252.2265,189.64939 249.78895,191.16787   C 247.3514,192.7263 244.11466,193.48554 240.15863,193.48554   C 236.28253,193.48554 233.1257,192.80622 230.68815,191.48755   C 228.2506,190.12891 226.49237,188.21084 225.45341,185.69337   C 224.37449,183.1759 223.85502,179.73935 223.85502,175.38373   L 223.85502,151.56767   L 229.32951,151.56767   L 229.32951,175.34377   C 229.32951,178.94016 229.64919,181.57751 230.32851,183.25582   C 230.96787,184.97409 232.1267,186.25281 233.7251,187.17188   C 235.36345,188.09096 237.32148,188.57048 239.67911,188.57048   C 243.6751,188.57048 246.55221,187.6514 248.23052,185.81325   C 249.94879,184.01506 250.78795,180.53855 250.78795,175.34377   z  M 272.5261,192.76626   L 261.5771,151.56767   L 267.17148,151.56767   L 273.44518,178.58052   C 274.12449,181.41767 274.72389,184.21486 275.20341,187.01205   C 276.24237,182.61646 276.84176,180.05903 277.04156,179.37972   L 284.87369,151.56767   L 291.46706,151.56767   L 297.38112,172.4267   C 298.85963,177.58152 299.89859,182.45662 300.57791,187.01205   C 301.09739,184.41466 301.7767,181.41767 302.61586,178.06104   L 309.08935,151.56767   L 314.56385,151.56767   L 303.25522,192.76626   L 298.02048,192.76626   L 289.30923,161.39779   C 288.58996,158.76044 288.1504,157.16205 288.03052,156.56265   C 287.59096,158.44076 287.19136,160.03915 286.83172,161.39779   L 278.08052,192.76626   z "
     style="fill:none;stroke:#000000;stroke-width:0.95903611px;stroke-linecap:butt;stroke-linejoin:miter;stroke-miterlimit:10;stroke-dasharray:none;stroke-opacity:1;" />
</svg>
