<?xml version="1.0" encoding="UTF-8" standalone="no"?>
<svg
   xmlns:dc="http://purl.org/dc/elements/1.1/"
   xmlns:cc="http://creativecommons.org/ns#"
   xmlns:rdf="http://www.w3.org/1999/02/22-rdf-syntax-ns#"
   xmlns:svg="http://www.w3.org/2000/svg"
   xmlns="http://www.w3.org/2000/svg"
   id="svg15"
   height="130.27mm"
   width="130.27mm"
   version="1.0">
  <metadata
     id="metadata19">
    <rdf:RDF>
      <cc:Work
         rdf:about="">
        <dc:format>image/svg+xml</dc:format>
        <dc:type
           rdf:resource="http://purl.org/dc/dcmitype/StillImage" />
      </cc:Work>
    </rdf:RDF>
  </metadata>
  <defs
     id="defs3">
    <pattern
       y="0"
       x="0"
       height="6"
       width="6"
       patternUnits="userSpaceOnUse"
       id="EMFhbasepattern" />
  </defs>
  <path
     id="path5"
     d="  M 164.63454,327.67068   C 164.63454,437.95983 327.67068,437.95983 327.67068,327.67068   C 437.95983,327.67068 437.95983,164.63454 327.67068,164.63454   C 327.67068,54.345381 164.63454,54.345381 164.63454,164.63454   C 54.345381,164.63454 54.345381,327.67068 164.63454,327.67068   z "
     style="fill:#ffff80;fill-rule:evenodd;fill-opacity:1;stroke:none;" />
  <path
     id="path7"
     d="  M 164.63454,327.67068   C 164.63454,437.95983 327.67068,437.95983 327.67068,327.67068   C 437.95983,327.67068 437.95983,164.63454 327.67068,164.63454   C 327.67068,54.345381 164.63454,54.345381 164.63454,164.63454   C 54.345381,164.63454 54.345381,327.67068 164.63454,327.67068  "
     style="fill:none;stroke:#000000;stroke-width:9.5903616px;stroke-linecap:butt;stroke-linejoin:miter;stroke-miterlimit:10;stroke-dasharray:none;stroke-opacity:1;" />
  <path
     id="path9"
     d="  M 150.24899,207.79116   L 150.24899,207.79116   L 150.24899,246.15261   L 246.15261,303.69477   L 342.05622,246.15261   L 342.05622,207.79116   L 246.15261,265.33333   z "
     style="fill:#000000;fill-rule:evenodd;fill-opacity:1;stroke:none;" />
  <path
     id="path11"
     d="  M 180.85823,192.76626   L 196.68233,151.56767   L 202.55642,151.56767   L 219.41947,192.76626   L 213.2257,192.76626   L 208.39056,180.29879   L 191.16787,180.29879   L 186.65241,192.76626   z  M 192.76626,175.86325   L 206.71225,175.86325   L 202.43654,164.43474   C 201.11787,160.99819 200.11887,158.12108 199.51948,155.92329   C 198.96004,158.56064 198.24076,161.15803 197.28172,163.75542   z  M 221.93694,179.53956   L 227.0518,179.1   C 227.29156,181.13795 227.89096,182.85622 228.77008,184.1749   C 229.64919,185.49357 231.04779,186.53253 232.9259,187.37168   C 234.76405,188.17088 236.88192,188.57048 239.23955,188.57048   C 241.31747,188.57048 243.15562,188.29076 244.75401,187.6514   C 246.31245,187.05201 247.51124,186.17289 248.31044,185.13393   C 249.06968,184.05502 249.46927,182.85622 249.46927,181.57751   C 249.46927,180.29879 249.06968,179.17992 248.3504,178.22088   C 247.59116,177.22188 246.35241,176.42269 244.63413,175.78333   C 243.51526,175.34377 241.07771,174.66446 237.28152,173.74538   C 233.5253,172.86626 230.84799,171.98715 229.32951,171.18795   C 227.37148,170.14899 225.89297,168.87028 224.93393,167.3518   C 223.9749,165.83333 223.49538,164.11506 223.49538,162.23695   C 223.49538,160.15903 224.09478,158.201 225.25361,156.40281   C 226.45241,154.60462 228.17068,153.20602 230.44839,152.28695   C 232.68614,151.32791 235.20361,150.88835 238.0008,150.88835   C 241.03775,150.88835 243.75502,151.36787 246.07269,152.36687   C 248.39036,153.3259 250.18855,154.76446 251.46727,156.68253   C 252.70602,158.6006 253.38534,160.75843 253.46526,163.19598   L 248.23052,163.59558   C 247.9508,160.95823 247.03172,159.0002 245.39337,157.68152   C 243.79498,156.36285 241.39739,155.68353 238.2006,155.68353   C 234.92389,155.68353 232.5263,156.28293 231.00783,157.48172   C 229.48935,158.72048 228.73012,160.15903 228.73012,161.87731   C 228.73012,163.35582 229.28955,164.55462 230.36847,165.51365   C 231.40743,166.47269 234.1247,167.47168 238.56024,168.47068   C 242.99578,169.46968 246.03273,170.34879 247.67108,171.06807   C 250.06867,172.18695 251.86686,173.58554 252.98574,175.26385   C 254.14457,176.98213 254.70401,178.94016 254.70401,181.13795   C 254.70401,183.33574 254.06465,185.41365 252.8259,187.33172   C 251.58714,189.28976 249.78895,190.76827 247.43132,191.84719   C 245.07369,192.9261 242.43634,193.48554 239.47931,193.48554   C 235.76305,193.48554 232.64618,192.9261 230.12871,191.84719   C 227.61124,190.76827 225.61325,189.12992 224.1747,186.93213   C 222.73614,184.77429 222.01686,182.29678 221.93694,179.53956   z  M 269.32931,192.76626   L 258.42028,151.56767   L 264.01465,151.56767   L 270.28835,178.58052   C 270.96767,181.41767 271.5271,184.21486 272.00662,187.01205   C 273.08554,182.61646 273.68494,180.05903 273.88473,179.37972   L 281.71686,151.56767   L 288.27028,151.56767   L 294.18433,172.4267   C 295.66285,177.58152 296.74176,182.45662 297.38112,187.01205   C 297.9006,184.41466 298.57992,181.41767 299.45903,178.06104   L 305.89257,151.56767   L 311.36706,151.56767   L 300.09839,192.76626   L 294.82369,192.76626   L 286.15241,161.39779   C 285.43313,158.76044 284.99357,157.16205 284.87369,156.56265   C 284.43413,158.44076 284.03453,160.03915 283.63494,161.39779   L 274.92369,192.76626   z "
     style="fill:#000000;fill-rule:evenodd;fill-opacity:1;stroke:none;" />
  <path
     id="path13"
     d="  M 180.85823,192.76626   L 196.68233,151.56767   L 202.55642,151.56767   L 219.41947,192.76626   L 213.2257,192.76626   L 208.39056,180.29879   L 191.16787,180.29879   L 186.65241,192.76626   z  M 192.76626,175.86325   L 206.71225,175.86325   L 202.43654,164.43474   C 201.11787,160.99819 200.11887,158.12108 199.51948,155.92329   C 198.96004,158.56064 198.24076,161.15803 197.28172,163.75542   z  M 221.93694,179.53956   L 227.0518,179.1   C 227.29156,181.13795 227.89096,182.85622 228.77008,184.1749   C 229.64919,185.49357 231.04779,186.53253 232.9259,187.37168   C 234.76405,188.17088 236.88192,188.57048 239.23955,188.57048   C 241.31747,188.57048 243.15562,188.29076 244.75401,187.6514   C 246.31245,187.05201 247.51124,186.17289 248.31044,185.13393   C 249.06968,184.05502 249.46927,182.85622 249.46927,181.57751   C 249.46927,180.29879 249.06968,179.17992 248.3504,178.22088   C 247.59116,177.22188 246.35241,176.42269 244.63413,175.78333   C 243.51526,175.34377 241.07771,174.66446 237.28152,173.74538   C 233.5253,172.86626 230.84799,171.98715 229.32951,171.18795   C 227.37148,170.14899 225.89297,168.87028 224.93393,167.3518   C 223.9749,165.83333 223.49538,164.11506 223.49538,162.23695   C 223.49538,160.15903 224.09478,158.201 225.25361,156.40281   C 226.45241,154.60462 228.17068,153.20602 230.44839,152.28695   C 232.68614,151.32791 235.20361,150.88835 238.0008,150.88835   C 241.03775,150.88835 243.75502,151.36787 246.07269,152.36687   C 248.39036,153.3259 250.18855,154.76446 251.46727,156.68253   C 252.70602,158.6006 253.38534,160.75843 253.46526,163.19598   L 248.23052,163.59558   C 247.9508,160.95823 247.03172,159.0002 245.39337,157.68152   C 243.79498,156.36285 241.39739,155.68353 238.2006,155.68353   C 234.92389,155.68353 232.5263,156.28293 231.00783,157.48172   C 229.48935,158.72048 228.73012,160.15903 228.73012,161.87731   C 228.73012,163.35582 229.28955,164.55462 230.36847,165.51365   C 231.40743,166.47269 234.1247,167.47168 238.56024,168.47068   C 242.99578,169.46968 246.03273,170.34879 247.67108,171.06807   C 250.06867,172.18695 251.86686,173.58554 252.98574,175.26385   C 254.14457,176.98213 254.70401,178.94016 254.70401,181.13795   C 254.70401,183.33574 254.06465,185.41365 252.8259,187.33172   C 251.58714,189.28976 249.78895,190.76827 247.43132,191.84719   C 245.07369,192.9261 242.43634,193.48554 239.47931,193.48554   C 235.76305,193.48554 232.64618,192.9261 230.12871,191.84719   C 227.61124,190.76827 225.61325,189.12992 224.1747,186.93213   C 222.73614,184.77429 222.01686,182.29678 221.93694,179.53956   z  M 269.32931,192.76626   L 258.42028,151.56767   L 264.01465,151.56767   L 270.28835,178.58052   C 270.96767,181.41767 271.5271,184.21486 272.00662,187.01205   C 273.08554,182.61646 273.68494,180.05903 273.88473,179.37972   L 281.71686,151.56767   L 288.27028,151.56767   L 294.18433,172.4267   C 295.66285,177.58152 296.74176,182.45662 297.38112,187.01205   C 297.9006,184.41466 298.57992,181.41767 299.45903,178.06104   L 305.89257,151.56767   L 311.36706,151.56767   L 300.09839,192.76626   L 294.82369,192.76626   L 286.15241,161.39779   C 285.43313,158.76044 284.99357,157.16205 284.87369,156.56265   C 284.43413,158.44076 284.03453,160.03915 283.63494,161.39779   L 274.92369,192.76626   z "
     style="fill:none;stroke:#000000;stroke-width:0.95903611px;stroke-linecap:butt;stroke-linejoin:miter;stroke-miterlimit:10;stroke-dasharray:none;stroke-opacity:1;" />
</svg>
