<?xml version="1.0" encoding="UTF-8" standalone="no"?>
<svg
   xmlns:dc="http://purl.org/dc/elements/1.1/"
   xmlns:cc="http://creativecommons.org/ns#"
   xmlns:rdf="http://www.w3.org/1999/02/22-rdf-syntax-ns#"
   xmlns:svg="http://www.w3.org/2000/svg"
   xmlns="http://www.w3.org/2000/svg"
   id="svg15"
   height="101.85mm"
   width="101.85mm"
   version="1.0">
  <metadata
     id="metadata19">
    <rdf:RDF>
      <cc:Work
         rdf:about="">
        <dc:format>image/svg+xml</dc:format>
        <dc:type
           rdf:resource="http://purl.org/dc/dcmitype/StillImage" />
      </cc:Work>
    </rdf:RDF>
  </metadata>
  <defs
     id="defs3">
    <pattern
       y="0"
       x="0"
       height="6"
       width="6"
       patternUnits="userSpaceOnUse"
       id="EMFhbasepattern" />
  </defs>
  <path
     id="path5"
     d="  M 330.54779,192.44658   C 330.54779,268.72992 268.72992,330.54779 192.44658,330.54779   C 116.20321,330.54779 54.345381,268.72992 54.345381,192.44658   C 54.345381,116.20321 116.20321,54.345381 192.44658,54.345381   C 268.72992,54.345381 330.54779,116.20321 330.54779,192.44658   z "
     style="fill:#80e0ff;fill-rule:evenodd;fill-opacity:1;stroke:none;" />
  <path
     id="path7"
     d="  M 330.54779,192.44658   C 330.54779,268.72992 268.72992,330.54779 192.44658,330.54779   C 116.20321,330.54779 54.345381,268.72992 54.345381,192.44658   C 54.345381,116.20321 116.20321,54.345381 192.44658,54.345381   C 268.72992,54.345381 330.54779,116.20321 330.54779,192.44658  "
     style="fill:none;stroke:#000000;stroke-width:9.5903616px;stroke-linecap:butt;stroke-linejoin:miter;stroke-miterlimit:10;stroke-dasharray:none;stroke-opacity:1;" />
  <path
     id="path9"
     d="  M 96.54297,154.08514   L 96.54297,154.08514   L 96.54297,192.44658   L 192.44658,249.98875   L 288.3502,192.44658   L 288.3502,154.08514   L 192.44658,211.62731   z "
     style="fill:#000000;fill-rule:evenodd;fill-opacity:1;stroke:none;" />
  <path
     id="path11"
     d="  M 129.82952,125.83353   L 134.98434,125.39397   C 135.22409,127.43193 135.78353,129.1502 136.66265,130.46887   C 137.58172,131.78755 138.94036,132.8265 140.81847,133.66566   C 142.69658,134.46486 144.81446,134.86446 147.13213,134.86446   C 149.21004,134.86446 151.04819,134.58474 152.64658,133.94538   C 154.24498,133.34598 155.44377,132.46687 156.20301,131.42791   C 157.00221,130.34899 157.36185,129.1502 157.36185,127.87148   C 157.36185,126.59277 157.00221,125.47389 156.24297,124.51486   C 155.48373,123.51586 154.24498,122.71666 152.5267,122.07731   C 151.44779,121.63775 148.97028,120.95843 145.21405,120.03936   C 141.41787,119.16024 138.78052,118.28112 137.26205,117.48193   C 135.30401,116.44297 133.8255,115.16426 132.86646,113.64578   C 131.90743,112.12731 131.42791,110.40903 131.42791,108.53092   C 131.42791,106.45301 131.98735,104.49498 133.18614,102.69679   C 134.34498,100.89859 136.10321,99.499999 138.34096,98.580922   C 140.61867,97.621886 143.13614,97.182328 145.89337,97.182328   C 148.97028,97.182328 151.64759,97.661846 153.96526,98.660842   C 156.32289,99.619878 158.12108,101.05843 159.35984,102.9765   C 160.63855,104.89458 161.27791,107.05241 161.39779,109.48996   L 156.16305,109.88956   C 155.88333,107.25221 154.92429,105.29418 153.3259,103.9755   C 151.68755,102.65683 149.28996,101.97751 146.13313,101.97751   C 142.81646,101.97751 140.41887,102.57691 138.94036,103.7757   C 137.42189,105.01446 136.66265,106.45301 136.66265,108.17128   C 136.66265,109.6498 137.18213,110.84859 138.26104,111.80763   C 139.3,112.76667 142.05723,113.76566 146.49277,114.76466   C 150.92831,115.76365 153.96526,116.64277 155.60361,117.36205   C 158.0012,118.48092 159.75944,119.87952 160.91827,121.55783   C 162.03715,123.2761 162.63654,125.23413 162.63654,127.43193   C 162.63654,129.62972 161.99719,131.70763 160.75843,133.6257   C 159.47972,135.58373 157.68152,137.06225 155.32389,138.14116   C 152.96626,139.22008 150.32891,139.77952 147.41185,139.77952   C 143.65562,139.77952 140.53875,139.22008 138.02128,138.14116   C 135.50381,137.06225 133.54578,135.42389 132.10723,133.2261   C 130.66867,131.06827 129.90944,128.59076 129.82952,125.83353   z  M 197.08192,97.861645   L 202.55642,97.861645   L 202.55642,121.67771   C 202.55642,125.79357 202.0769,129.11024 201.15783,131.54779   C 200.19879,133.98534 198.52048,135.94337 196.08293,137.46185   C 193.64538,139.02028 190.40863,139.77952 186.45261,139.77952   C 182.5765,139.77952 179.41968,139.1002 176.98213,137.78152   C 174.54458,136.42289 172.78634,134.50482 171.74739,131.98735   C 170.66847,129.46988 170.14899,126.03333 170.14899,121.67771   L 170.14899,97.861645   L 175.62349,97.861645   L 175.62349,121.63775   C 175.62349,125.23413 175.94317,127.87148 176.62249,129.5498   C 177.26184,131.26807 178.42068,132.54679 180.01907,133.46586   C 181.65743,134.38494 183.61546,134.86446 185.97309,134.86446   C 189.96907,134.86446 192.84618,133.94538 194.5245,132.10723   C 196.24277,130.30903 197.08192,126.83253 197.08192,121.63775   z  M 218.82008,139.06024   L 207.87108,97.861645   L 213.46546,97.861645   L 219.73915,124.8745   C 220.41847,127.71164 221.01787,130.50883 221.49739,133.30602   C 222.53634,128.91044 223.13574,126.35301 223.33554,125.67369   L 231.16767,97.861645   L 237.76104,97.861645   L 243.6751,118.72068   C 245.15361,123.8755 246.19257,128.7506 246.87188,133.30602   C 247.39136,130.70863 248.07068,127.71164 248.90984,124.35502   L 255.38333,97.861645   L 260.85783,97.861645   L 249.54919,139.06024   L 244.31445,139.06024   L 235.60321,107.69177   C 234.88393,105.05442 234.44437,103.45602 234.32449,102.85663   C 233.88494,104.73474 233.48534,106.33313 233.1257,107.69177   L 224.37449,139.06024   z "
     style="fill:#000000;fill-rule:evenodd;fill-opacity:1;stroke:none;" />
  <path
     id="path13"
     d="  M 129.82952,125.83353   L 134.98434,125.39397   C 135.22409,127.43193 135.78353,129.1502 136.66265,130.46887   C 137.58172,131.78755 138.94036,132.8265 140.81847,133.66566   C 142.69658,134.46486 144.81446,134.86446 147.13213,134.86446   C 149.21004,134.86446 151.04819,134.58474 152.64658,133.94538   C 154.24498,133.34598 155.44377,132.46687 156.20301,131.42791   C 157.00221,130.34899 157.36185,129.1502 157.36185,127.87148   C 157.36185,126.59277 157.00221,125.47389 156.24297,124.51486   C 155.48373,123.51586 154.24498,122.71666 152.5267,122.07731   C 151.44779,121.63775 148.97028,120.95843 145.21405,120.03936   C 141.41787,119.16024 138.78052,118.28112 137.26205,117.48193   C 135.30401,116.44297 133.8255,115.16426 132.86646,113.64578   C 131.90743,112.12731 131.42791,110.40903 131.42791,108.53092   C 131.42791,106.45301 131.98735,104.49498 133.18614,102.69679   C 134.34498,100.89859 136.10321,99.499999 138.34096,98.580922   C 140.61867,97.621886 143.13614,97.182328 145.89337,97.182328   C 148.97028,97.182328 151.64759,97.661846 153.96526,98.660842   C 156.32289,99.619878 158.12108,101.05843 159.35984,102.9765   C 160.63855,104.89458 161.27791,107.05241 161.39779,109.48996   L 156.16305,109.88956   C 155.88333,107.25221 154.92429,105.29418 153.3259,103.9755   C 151.68755,102.65683 149.28996,101.97751 146.13313,101.97751   C 142.81646,101.97751 140.41887,102.57691 138.94036,103.7757   C 137.42189,105.01446 136.66265,106.45301 136.66265,108.17128   C 136.66265,109.6498 137.18213,110.84859 138.26104,111.80763   C 139.3,112.76667 142.05723,113.76566 146.49277,114.76466   C 150.92831,115.76365 153.96526,116.64277 155.60361,117.36205   C 158.0012,118.48092 159.75944,119.87952 160.91827,121.55783   C 162.03715,123.2761 162.63654,125.23413 162.63654,127.43193   C 162.63654,129.62972 161.99719,131.70763 160.75843,133.6257   C 159.47972,135.58373 157.68152,137.06225 155.32389,138.14116   C 152.96626,139.22008 150.32891,139.77952 147.41185,139.77952   C 143.65562,139.77952 140.53875,139.22008 138.02128,138.14116   C 135.50381,137.06225 133.54578,135.42389 132.10723,133.2261   C 130.66867,131.06827 129.90944,128.59076 129.82952,125.83353   z  M 197.08192,97.861645   L 202.55642,97.861645   L 202.55642,121.67771   C 202.55642,125.79357 202.0769,129.11024 201.15783,131.54779   C 200.19879,133.98534 198.52048,135.94337 196.08293,137.46185   C 193.64538,139.02028 190.40863,139.77952 186.45261,139.77952   C 182.5765,139.77952 179.41968,139.1002 176.98213,137.78152   C 174.54458,136.42289 172.78634,134.50482 171.74739,131.98735   C 170.66847,129.46988 170.14899,126.03333 170.14899,121.67771   L 170.14899,97.861645   L 175.62349,97.861645   L 175.62349,121.63775   C 175.62349,125.23413 175.94317,127.87148 176.62249,129.5498   C 177.26184,131.26807 178.42068,132.54679 180.01907,133.46586   C 181.65743,134.38494 183.61546,134.86446 185.97309,134.86446   C 189.96907,134.86446 192.84618,133.94538 194.5245,132.10723   C 196.24277,130.30903 197.08192,126.83253 197.08192,121.63775   z  M 218.82008,139.06024   L 207.87108,97.861645   L 213.46546,97.861645   L 219.73915,124.8745   C 220.41847,127.71164 221.01787,130.50883 221.49739,133.30602   C 222.53634,128.91044 223.13574,126.35301 223.33554,125.67369   L 231.16767,97.861645   L 237.76104,97.861645   L 243.6751,118.72068   C 245.15361,123.8755 246.19257,128.7506 246.87188,133.30602   C 247.39136,130.70863 248.07068,127.71164 248.90984,124.35502   L 255.38333,97.861645   L 260.85783,97.861645   L 249.54919,139.06024   L 244.31445,139.06024   L 235.60321,107.69177   C 234.88393,105.05442 234.44437,103.45602 234.32449,102.85663   C 233.88494,104.73474 233.48534,106.33313 233.1257,107.69177   L 224.37449,139.06024   z "
     style="fill:none;stroke:#000000;stroke-width:0.95903611px;stroke-linecap:butt;stroke-linejoin:miter;stroke-miterlimit:10;stroke-dasharray:none;stroke-opacity:1;" />
</svg>
