<?xml version="1.0" encoding="UTF-8" standalone="no"?>
<svg
   xmlns:dc="http://purl.org/dc/elements/1.1/"
   xmlns:cc="http://creativecommons.org/ns#"
   xmlns:rdf="http://www.w3.org/1999/02/22-rdf-syntax-ns#"
   xmlns:svg="http://www.w3.org/2000/svg"
   xmlns="http://www.w3.org/2000/svg"
   id="svg15"
   height="116.05mm"
   width="135.35001mm"
   version="1.0">
  <metadata
     id="metadata19">
    <rdf:RDF>
      <cc:Work
         rdf:about="">
        <dc:format>image/svg+xml</dc:format>
        <dc:type
           rdf:resource="http://purl.org/dc/dcmitype/StillImage" />
      </cc:Work>
    </rdf:RDF>
  </metadata>
  <defs
     id="defs3">
    <pattern
       y="0"
       x="0"
       height="6"
       width="6"
       patternUnits="userSpaceOnUse"
       id="EMFhbasepattern" />
  </defs>
  <path
     id="path5"
     d="  M 174.2249,54.345381   C 54.345381,54.345381 54.345381,250.94779 174.2249,250.94779   C 174.2249,384.25381 337.26104,384.25381 337.26104,250.94779   C 457.14056,250.94779 457.14056,54.345381 337.26104,54.345381   z "
     style="fill:#ffff80;fill-rule:evenodd;fill-opacity:1;stroke:none;" />
  <path
     id="path7"
     d="  M 174.2249,54.345381   C 54.345381,54.345381 54.345381,250.94779 174.2249,250.94779   C 174.2249,384.25381 337.26104,384.25381 337.26104,250.94779   C 457.14056,250.94779 457.14056,54.345381 337.26104,54.345381  "
     style="fill:none;stroke:#000000;stroke-width:9.5903616px;stroke-linecap:butt;stroke-linejoin:miter;stroke-miterlimit:10;stroke-dasharray:none;stroke-opacity:1;" />
  <path
     id="path9"
     d="  M 159.83936,131.06827   L 159.83936,131.06827   L 159.83936,169.42972   L 255.74297,226.97188   L 351.64658,169.42972   L 351.64658,131.06827   L 255.74297,188.61044   z "
     style="fill:#000000;fill-rule:evenodd;fill-opacity:1;stroke:none;" />
  <path
     id="path11"
     d="  M 190.44859,116.04337   L 206.27269,74.844778   L 212.14678,74.844778   L 229.00984,116.04337   L 222.81606,116.04337   L 217.98092,103.5759   L 200.75823,103.5759   L 196.24277,116.04337   z  M 202.35662,99.14036   L 216.30261,99.14036   L 212.0269,87.711846   C 210.70823,84.2753 209.70923,81.398192 209.10984,79.2004   C 208.5504,81.83775 207.83112,84.435139 206.87209,87.032529   z  M 231.52731,102.81667   L 236.64217,102.37711   C 236.88192,104.41506 237.48132,106.13333 238.36044,107.45201   C 239.23955,108.77068 240.63815,109.80964 242.51626,110.64879   C 244.35441,111.44799 246.47229,111.84759 248.82992,111.84759   C 250.90783,111.84759 252.74598,111.56787 254.34437,110.92851   C 255.90281,110.32911 257.1016,109.45 257.9008,108.41104   C 258.66004,107.33213 259.05963,106.13333 259.05963,104.85462   C 259.05963,103.5759 258.66004,102.45703 257.94076,101.49799   C 257.18152,100.49899 255.94277,99.699798 254.22449,99.06044   C 253.10562,98.620882 250.66807,97.941565 246.87188,97.022489   C 243.11566,96.143372 240.43835,95.264256 238.91988,94.465059   C 236.96184,93.426103 235.48333,92.147388 234.52429,90.628914   C 233.56526,89.11044 233.08574,87.392167 233.08574,85.514055   C 233.08574,83.436143 233.68514,81.478111 234.84397,79.679919   C 236.04277,77.881726 237.76104,76.483131 240.03875,75.564055   C 242.2765,74.605019 244.79397,74.165461 247.59116,74.165461   C 250.62811,74.165461 253.34538,74.644979 255.66305,75.643975   C 257.98072,76.603011 259.77891,78.041565 261.05763,79.959637   C 262.29638,81.87771 262.9757,84.035541 263.05562,86.473091   L 257.82088,86.87269   C 257.54116,84.23534 256.62208,82.277308 254.98373,80.958633   C 253.38534,79.639959 250.98775,78.960641 247.79096,78.960641   C 244.51425,78.960641 242.11666,79.560039 240.59819,80.758834   C 239.07972,81.997589 238.32048,83.436143 238.32048,85.154416   C 238.32048,86.63293 238.87992,87.831726 239.95883,88.790762   C 240.99779,89.749798 243.71506,90.748794 248.1506,91.74779   C 252.58614,92.746786 255.62309,93.625902 257.26144,94.345179   C 259.65903,95.464055 261.45723,96.862649 262.5761,98.540962   C 263.73494,100.25924 264.29437,102.21727 264.29437,104.41506   C 264.29437,106.61285 263.65502,108.69076 262.41626,110.60883   C 261.17751,112.56687 259.37931,114.04538 257.02168,115.1243   C 254.66405,116.20321 252.0267,116.76265 249.06968,116.76265   C 245.35341,116.76265 242.23654,116.20321 239.71907,115.1243   C 237.2016,114.04538 235.20361,112.40703 233.76506,110.20924   C 232.3265,108.0514 231.60723,105.57389 231.52731,102.81667   z  M 278.91967,116.04337   L 268.01064,74.844778   L 273.60502,74.844778   L 279.87871,101.85763   C 280.55803,104.69478 281.11747,107.49197 281.59698,110.28916   C 282.6759,105.89357 283.2753,103.33614 283.4751,102.65683   L 291.30722,74.844778   L 297.86064,74.844778   L 303.77469,95.703814   C 305.25321,100.85863 306.33212,105.73373 306.97148,110.28916   C 307.49096,107.69177 308.17028,104.69478 309.04939,101.33815   L 315.48293,74.844778   L 320.95743,74.844778   L 309.68875,116.04337   L 304.41405,116.04337   L 295.74277,84.674898   C 295.02349,82.037549 294.58393,80.439155 294.46405,79.839758   C 294.02449,81.71787 293.6249,83.316264 293.2253,84.674898   L 284.51405,116.04337   z "
     style="fill:#000000;fill-rule:evenodd;fill-opacity:1;stroke:none;" />
  <path
     id="path13"
     d="  M 190.44859,116.04337   L 206.27269,74.844778   L 212.14678,74.844778   L 229.00984,116.04337   L 222.81606,116.04337   L 217.98092,103.5759   L 200.75823,103.5759   L 196.24277,116.04337   z  M 202.35662,99.14036   L 216.30261,99.14036   L 212.0269,87.711846   C 210.70823,84.2753 209.70923,81.398192 209.10984,79.2004   C 208.5504,81.83775 207.83112,84.435139 206.87209,87.032529   z  M 231.52731,102.81667   L 236.64217,102.37711   C 236.88192,104.41506 237.48132,106.13333 238.36044,107.45201   C 239.23955,108.77068 240.63815,109.80964 242.51626,110.64879   C 244.35441,111.44799 246.47229,111.84759 248.82992,111.84759   C 250.90783,111.84759 252.74598,111.56787 254.34437,110.92851   C 255.90281,110.32911 257.1016,109.45 257.9008,108.41104   C 258.66004,107.33213 259.05963,106.13333 259.05963,104.85462   C 259.05963,103.5759 258.66004,102.45703 257.94076,101.49799   C 257.18152,100.49899 255.94277,99.699798 254.22449,99.06044   C 253.10562,98.620882 250.66807,97.941565 246.87188,97.022489   C 243.11566,96.143372 240.43835,95.264256 238.91988,94.465059   C 236.96184,93.426103 235.48333,92.147388 234.52429,90.628914   C 233.56526,89.11044 233.08574,87.392167 233.08574,85.514055   C 233.08574,83.436143 233.68514,81.478111 234.84397,79.679919   C 236.04277,77.881726 237.76104,76.483131 240.03875,75.564055   C 242.2765,74.605019 244.79397,74.165461 247.59116,74.165461   C 250.62811,74.165461 253.34538,74.644979 255.66305,75.643975   C 257.98072,76.603011 259.77891,78.041565 261.05763,79.959637   C 262.29638,81.87771 262.9757,84.035541 263.05562,86.473091   L 257.82088,86.87269   C 257.54116,84.23534 256.62208,82.277308 254.98373,80.958633   C 253.38534,79.639959 250.98775,78.960641 247.79096,78.960641   C 244.51425,78.960641 242.11666,79.560039 240.59819,80.758834   C 239.07972,81.997589 238.32048,83.436143 238.32048,85.154416   C 238.32048,86.63293 238.87992,87.831726 239.95883,88.790762   C 240.99779,89.749798 243.71506,90.748794 248.1506,91.74779   C 252.58614,92.746786 255.62309,93.625902 257.26144,94.345179   C 259.65903,95.464055 261.45723,96.862649 262.5761,98.540962   C 263.73494,100.25924 264.29437,102.21727 264.29437,104.41506   C 264.29437,106.61285 263.65502,108.69076 262.41626,110.60883   C 261.17751,112.56687 259.37931,114.04538 257.02168,115.1243   C 254.66405,116.20321 252.0267,116.76265 249.06968,116.76265   C 245.35341,116.76265 242.23654,116.20321 239.71907,115.1243   C 237.2016,114.04538 235.20361,112.40703 233.76506,110.20924   C 232.3265,108.0514 231.60723,105.57389 231.52731,102.81667   z  M 278.91967,116.04337   L 268.01064,74.844778   L 273.60502,74.844778   L 279.87871,101.85763   C 280.55803,104.69478 281.11747,107.49197 281.59698,110.28916   C 282.6759,105.89357 283.2753,103.33614 283.4751,102.65683   L 291.30722,74.844778   L 297.86064,74.844778   L 303.77469,95.703814   C 305.25321,100.85863 306.33212,105.73373 306.97148,110.28916   C 307.49096,107.69177 308.17028,104.69478 309.04939,101.33815   L 315.48293,74.844778   L 320.95743,74.844778   L 309.68875,116.04337   L 304.41405,116.04337   L 295.74277,84.674898   C 295.02349,82.037549 294.58393,80.439155 294.46405,79.839758   C 294.02449,81.71787 293.6249,83.316264 293.2253,84.674898   L 284.51405,116.04337   z "
     style="fill:none;stroke:#000000;stroke-width:0.95903611px;stroke-linecap:butt;stroke-linejoin:miter;stroke-miterlimit:10;stroke-dasharray:none;stroke-opacity:1;" />
</svg>
