<?xml version="1.0" encoding="UTF-8" standalone="no"?>
<svg
   xmlns:dc="http://purl.org/dc/elements/1.1/"
   xmlns:cc="http://creativecommons.org/ns#"
   xmlns:rdf="http://www.w3.org/1999/02/22-rdf-syntax-ns#"
   xmlns:svg="http://www.w3.org/2000/svg"
   xmlns="http://www.w3.org/2000/svg"
   id="svg15"
   height="101.85mm"
   width="95.75mm"
   version="1.0">
  <metadata
     id="metadata19">
    <rdf:RDF>
      <cc:Work
         rdf:about="">
        <dc:format>image/svg+xml</dc:format>
        <dc:type
           rdf:resource="http://purl.org/dc/dcmitype/StillImage" />
      </cc:Work>
    </rdf:RDF>
  </metadata>
  <defs
     id="defs3">
    <pattern
       y="0"
       x="0"
       height="6"
       width="6"
       patternUnits="userSpaceOnUse"
       id="EMFhbasepattern" />
  </defs>
  <path
     id="path5"
     d="  M 54.345381,54.345381   L 54.345381,330.54779   L 307.53092,330.54779   L 307.53092,54.345381   L 54.345381,54.345381   z "
     style="fill:#aaffaa;fill-rule:evenodd;fill-opacity:1;stroke:none;" />
  <path
     id="path7"
     d="  M 307.53092,54.345381   L 307.53092,330.54779   L 54.345381,330.54779   L 54.345381,54.345381  "
     style="fill:none;stroke:#000000;stroke-width:9.5903616px;stroke-linecap:butt;stroke-linejoin:miter;stroke-miterlimit:10;stroke-dasharray:none;stroke-opacity:1;" />
  <path
     id="path9"
     d="  M 85.034537,131.06827   L 85.034537,131.06827   L 85.034537,169.42972   L 180.93815,226.97188   L 276.84176,169.42972   L 276.84176,131.06827   L 180.93815,188.61044   z "
     style="fill:#000000;fill-rule:evenodd;fill-opacity:1;stroke:none;" />
  <path
     id="path11"
     d="  M 115.64377,116.04337   L 131.46787,74.844778   L 137.34197,74.844778   L 154.20502,116.04337   L 148.01124,116.04337   L 143.1761,103.5759   L 125.95341,103.5759   L 121.43795,116.04337   z  M 127.55181,99.14036   L 141.49779,99.14036   L 137.22209,87.711846   C 135.90341,84.2753 134.90442,81.398192 134.30502,79.2004   C 133.74558,81.83775 133.0263,84.435139 132.06727,87.032529   z  M 156.72249,102.81667   L 161.83735,102.37711   C 162.07711,104.41506 162.6765,106.13333 163.55562,107.45201   C 164.43474,108.77068 165.83333,109.80964 167.71144,110.64879   C 169.5496,111.44799 171.66747,111.84759 174.0251,111.84759   C 176.10301,111.84759 177.94116,111.56787 179.53956,110.92851   C 181.09799,110.32911 182.29678,109.45 183.09598,108.41104   C 183.85522,107.33213 184.25482,106.13333 184.25482,104.85462   C 184.25482,103.5759 183.85522,102.45703 183.13594,101.49799   C 182.3767,100.49899 181.13795,99.699798 179.41968,99.06044   C 178.3008,98.620882 175.86325,97.941565 172.06707,97.022489   C 168.31084,96.143372 165.63353,95.264256 164.11506,94.465059   C 162.15703,93.426103 160.67851,92.147388 159.71948,90.628914   C 158.76044,89.11044 158.28092,87.392167 158.28092,85.514055   C 158.28092,83.436143 158.88032,81.478111 160.03915,79.679919   C 161.23795,77.881726 162.95622,76.483131 165.23393,75.564055   C 167.47168,74.605019 169.98915,74.165461 172.78634,74.165461   C 175.82329,74.165461 178.54056,74.644979 180.85823,75.643975   C 183.1759,76.603011 184.97409,78.041565 186.25281,79.959637   C 187.49156,81.87771 188.17088,84.035541 188.2508,86.473091   L 183.01606,86.87269   C 182.73634,84.23534 181.81727,82.277308 180.17891,80.958633   C 178.58052,79.639959 176.18293,78.960641 172.98614,78.960641   C 169.70944,78.960641 167.31184,79.560039 165.79337,80.758834   C 164.2749,81.997589 163.51566,83.436143 163.51566,85.154416   C 163.51566,86.63293 164.0751,87.831726 165.15401,88.790762   C 166.19297,89.749798 168.91024,90.748794 173.34578,91.74779   C 177.78132,92.746786 180.81827,93.625902 182.45662,94.345179   C 184.85421,95.464055 186.65241,96.862649 187.77128,98.540962   C 188.93012,100.25924 189.48956,102.21727 189.48956,104.41506   C 189.48956,106.61285 188.8502,108.69076 187.61144,110.60883   C 186.37269,112.56687 184.5745,114.04538 182.21686,115.1243   C 179.85923,116.20321 177.22188,116.76265 174.26486,116.76265   C 170.54859,116.76265 167.43172,116.20321 164.91425,115.1243   C 162.39678,114.04538 160.39879,112.40703 158.96024,110.20924   C 157.52168,108.0514 156.80241,105.57389 156.72249,102.81667   z  M 204.11486,116.04337   L 193.20582,74.844778   L 198.8002,74.844778   L 205.07389,101.85763   C 205.75321,104.69478 206.31265,107.49197 206.79217,110.28916   C 207.87108,105.89357 208.47048,103.33614 208.67028,102.65683   L 216.50241,74.844778   L 223.05582,74.844778   L 228.96988,95.703814   C 230.44839,100.85863 231.52731,105.73373 232.16666,110.28916   C 232.68614,107.69177 233.36546,104.69478 234.24457,101.33815   L 240.67811,74.844778   L 246.15261,74.844778   L 234.88393,116.04337   L 229.60923,116.04337   L 220.93795,84.674898   C 220.21867,82.037549 219.77911,80.439155 219.65923,79.839758   C 219.21968,81.71787 218.82008,83.316264 218.42048,84.674898   L 209.70923,116.04337   z "
     style="fill:#000000;fill-rule:evenodd;fill-opacity:1;stroke:none;" />
  <path
     id="path13"
     d="  M 115.64377,116.04337   L 131.46787,74.844778   L 137.34197,74.844778   L 154.20502,116.04337   L 148.01124,116.04337   L 143.1761,103.5759   L 125.95341,103.5759   L 121.43795,116.04337   z  M 127.55181,99.14036   L 141.49779,99.14036   L 137.22209,87.711846   C 135.90341,84.2753 134.90442,81.398192 134.30502,79.2004   C 133.74558,81.83775 133.0263,84.435139 132.06727,87.032529   z  M 156.72249,102.81667   L 161.83735,102.37711   C 162.07711,104.41506 162.6765,106.13333 163.55562,107.45201   C 164.43474,108.77068 165.83333,109.80964 167.71144,110.64879   C 169.5496,111.44799 171.66747,111.84759 174.0251,111.84759   C 176.10301,111.84759 177.94116,111.56787 179.53956,110.92851   C 181.09799,110.32911 182.29678,109.45 183.09598,108.41104   C 183.85522,107.33213 184.25482,106.13333 184.25482,104.85462   C 184.25482,103.5759 183.85522,102.45703 183.13594,101.49799   C 182.3767,100.49899 181.13795,99.699798 179.41968,99.06044   C 178.3008,98.620882 175.86325,97.941565 172.06707,97.022489   C 168.31084,96.143372 165.63353,95.264256 164.11506,94.465059   C 162.15703,93.426103 160.67851,92.147388 159.71948,90.628914   C 158.76044,89.11044 158.28092,87.392167 158.28092,85.514055   C 158.28092,83.436143 158.88032,81.478111 160.03915,79.679919   C 161.23795,77.881726 162.95622,76.483131 165.23393,75.564055   C 167.47168,74.605019 169.98915,74.165461 172.78634,74.165461   C 175.82329,74.165461 178.54056,74.644979 180.85823,75.643975   C 183.1759,76.603011 184.97409,78.041565 186.25281,79.959637   C 187.49156,81.87771 188.17088,84.035541 188.2508,86.473091   L 183.01606,86.87269   C 182.73634,84.23534 181.81727,82.277308 180.17891,80.958633   C 178.58052,79.639959 176.18293,78.960641 172.98614,78.960641   C 169.70944,78.960641 167.31184,79.560039 165.79337,80.758834   C 164.2749,81.997589 163.51566,83.436143 163.51566,85.154416   C 163.51566,86.63293 164.0751,87.831726 165.15401,88.790762   C 166.19297,89.749798 168.91024,90.748794 173.34578,91.74779   C 177.78132,92.746786 180.81827,93.625902 182.45662,94.345179   C 184.85421,95.464055 186.65241,96.862649 187.77128,98.540962   C 188.93012,100.25924 189.48956,102.21727 189.48956,104.41506   C 189.48956,106.61285 188.8502,108.69076 187.61144,110.60883   C 186.37269,112.56687 184.5745,114.04538 182.21686,115.1243   C 179.85923,116.20321 177.22188,116.76265 174.26486,116.76265   C 170.54859,116.76265 167.43172,116.20321 164.91425,115.1243   C 162.39678,114.04538 160.39879,112.40703 158.96024,110.20924   C 157.52168,108.0514 156.80241,105.57389 156.72249,102.81667   z  M 204.11486,116.04337   L 193.20582,74.844778   L 198.8002,74.844778   L 205.07389,101.85763   C 205.75321,104.69478 206.31265,107.49197 206.79217,110.28916   C 207.87108,105.89357 208.47048,103.33614 208.67028,102.65683   L 216.50241,74.844778   L 223.05582,74.844778   L 228.96988,95.703814   C 230.44839,100.85863 231.52731,105.73373 232.16666,110.28916   C 232.68614,107.69177 233.36546,104.69478 234.24457,101.33815   L 240.67811,74.844778   L 246.15261,74.844778   L 234.88393,116.04337   L 229.60923,116.04337   L 220.93795,84.674898   C 220.21867,82.037549 219.77911,80.439155 219.65923,79.839758   C 219.21968,81.71787 218.82008,83.316264 218.42048,84.674898   L 209.70923,116.04337   z "
     style="fill:none;stroke:#000000;stroke-width:0.95903611px;stroke-linecap:butt;stroke-linejoin:miter;stroke-miterlimit:10;stroke-dasharray:none;stroke-opacity:1;" />
</svg>
