<?xml version="1.0" encoding="UTF-8" standalone="no"?>
<svg
   xmlns:dc="http://purl.org/dc/elements/1.1/"
   xmlns:cc="http://creativecommons.org/ns#"
   xmlns:rdf="http://www.w3.org/1999/02/22-rdf-syntax-ns#"
   xmlns:svg="http://www.w3.org/2000/svg"
   xmlns="http://www.w3.org/2000/svg"
   id="svg15"
   height="125.53mm"
   width="95.75mm"
   version="1.0">
  <metadata
     id="metadata19">
    <rdf:RDF>
      <cc:Work
         rdf:about="">
        <dc:format>image/svg+xml</dc:format>
        <dc:type
           rdf:resource="http://purl.org/dc/dcmitype/StillImage" />
      </cc:Work>
    </rdf:RDF>
  </metadata>
  <defs
     id="defs3">
    <pattern
       y="0"
       x="0"
       height="6"
       width="6"
       patternUnits="userSpaceOnUse"
       id="EMFhbasepattern" />
  </defs>
  <path
     id="path5"
     d="  M 54.345381,54.345381   C 54.345381,419.73815 307.53092,419.73815 307.53092,54.345381   z "
     style="fill:#80e0ff;fill-rule:evenodd;fill-opacity:1;stroke:none;" />
  <path
     id="path7"
     d="  M 54.345381,54.345381   C 54.345381,419.73815 307.53092,419.73815 307.53092,54.345381  "
     style="fill:none;stroke:#000000;stroke-width:9.5903616px;stroke-linecap:butt;stroke-linejoin:miter;stroke-miterlimit:10;stroke-dasharray:none;stroke-opacity:1;" />
  <path
     id="path9"
     d="  M 85.034537,131.06827   L 85.034537,131.06827   L 85.034537,169.42972   L 180.93815,226.97188   L 276.84176,169.42972   L 276.84176,131.06827   L 180.93815,188.61044   z "
     style="fill:#000000;fill-rule:evenodd;fill-opacity:1;stroke:none;" />
  <path
     id="path11"
     d="  M 118.32108,102.81667   L 123.4759,102.37711   C 123.71566,104.41506 124.2751,106.13333 125.15422,107.45201   C 126.07329,108.77068 127.43193,109.80964 129.31004,110.64879   C 131.18815,111.44799 133.30602,111.84759 135.62369,111.84759   C 137.7016,111.84759 139.53976,111.56787 141.13815,110.92851   C 142.73654,110.32911 143.93534,109.45 144.69458,108.41104   C 145.49377,107.33213 145.85341,106.13333 145.85341,104.85462   C 145.85341,103.5759 145.49377,102.45703 144.73454,101.49799   C 143.9753,100.49899 142.73654,99.699798 141.01827,99.06044   C 139.93936,98.620882 137.46185,97.941565 133.70562,97.022489   C 129.90944,96.143372 127.27209,95.264256 125.75361,94.465059   C 123.79558,93.426103 122.31707,92.147388 121.35803,90.628914   C 120.39899,89.11044 119.91948,87.392167 119.91948,85.514055   C 119.91948,83.436143 120.47891,81.478111 121.67771,79.679919   C 122.83654,77.881726 124.59478,76.483131 126.83253,75.564055   C 129.11024,74.605019 131.62771,74.165461 134.38494,74.165461   C 137.46185,74.165461 140.13915,74.644979 142.45683,75.643975   C 144.81446,76.603011 146.61265,78.041565 147.8514,79.959637   C 149.13012,81.87771 149.76948,84.035541 149.88936,86.473091   L 144.65462,86.87269   C 144.3749,84.23534 143.41586,82.277308 141.81747,80.958633   C 140.17911,79.639959 137.78152,78.960641 134.6247,78.960641   C 131.30803,78.960641 128.91044,79.560039 127.43193,80.758834   C 125.91345,81.997589 125.15422,83.436143 125.15422,85.154416   C 125.15422,86.63293 125.67369,87.831726 126.75261,88.790762   C 127.79156,89.749798 130.54879,90.748794 134.98434,91.74779   C 139.41988,92.746786 142.45683,93.625902 144.09518,94.345179   C 146.49277,95.464055 148.251,96.862649 149.40984,98.540962   C 150.52871,100.25924 151.12811,102.21727 151.12811,104.41506   C 151.12811,106.61285 150.48875,108.69076 149.25,110.60883   C 147.97128,112.56687 146.17309,114.04538 143.81546,115.1243   C 141.45783,116.20321 138.82048,116.76265 135.90341,116.76265   C 132.14719,116.76265 129.03032,116.20321 126.51285,115.1243   C 123.99538,114.04538 122.03735,112.40703 120.59879,110.20924   C 119.16024,108.0514 118.401,105.57389 118.32108,102.81667   z  M 185.57349,74.844778   L 191.04799,74.844778   L 191.04799,98.660842   C 191.04799,102.77671 190.56847,106.09337 189.64939,108.53092   C 188.69036,110.96847 187.01205,112.9265 184.5745,114.44498   C 182.13695,116.00341 178.9002,116.76265 174.94417,116.76265   C 171.06807,116.76265 167.91124,116.08333 165.47369,114.76466   C 163.03614,113.40602 161.27791,111.48795 160.23895,108.97048   C 159.16004,106.45301 158.64056,103.01646 158.64056,98.660842   L 158.64056,74.844778   L 164.11506,74.844778   L 164.11506,98.620882   C 164.11506,102.21727 164.43474,104.85462 165.11405,106.53293   C 165.75341,108.2512 166.91225,109.52992 168.51064,110.44899   C 170.14899,111.36807 172.10703,111.84759 174.46466,111.84759   C 178.46064,111.84759 181.33775,110.92851 183.01606,109.09036   C 184.73433,107.29217 185.57349,103.81566 185.57349,98.620882   z  M 207.31164,116.04337   L 196.36265,74.844778   L 201.95703,74.844778   L 208.23072,101.85763   C 208.91004,104.69478 209.50943,107.49197 209.98895,110.28916   C 211.02791,105.89357 211.62731,103.33614 211.82711,102.65683   L 219.65923,74.844778   L 226.25261,74.844778   L 232.16666,95.703814   C 233.64518,100.85863 234.68413,105.73373 235.36345,110.28916   C 235.88293,107.69177 236.56225,104.69478 237.4014,101.33815   L 243.8749,74.844778   L 249.34939,74.844778   L 238.04076,116.04337   L 232.80602,116.04337   L 224.09478,84.674898   C 223.3755,82.037549 222.93594,80.439155 222.81606,79.839758   C 222.3765,81.71787 221.9769,83.316264 221.61727,84.674898   L 212.86606,116.04337   z "
     style="fill:#000000;fill-rule:evenodd;fill-opacity:1;stroke:none;" />
  <path
     id="path13"
     d="  M 118.32108,102.81667   L 123.4759,102.37711   C 123.71566,104.41506 124.2751,106.13333 125.15422,107.45201   C 126.07329,108.77068 127.43193,109.80964 129.31004,110.64879   C 131.18815,111.44799 133.30602,111.84759 135.62369,111.84759   C 137.7016,111.84759 139.53976,111.56787 141.13815,110.92851   C 142.73654,110.32911 143.93534,109.45 144.69458,108.41104   C 145.49377,107.33213 145.85341,106.13333 145.85341,104.85462   C 145.85341,103.5759 145.49377,102.45703 144.73454,101.49799   C 143.9753,100.49899 142.73654,99.699798 141.01827,99.06044   C 139.93936,98.620882 137.46185,97.941565 133.70562,97.022489   C 129.90944,96.143372 127.27209,95.264256 125.75361,94.465059   C 123.79558,93.426103 122.31707,92.147388 121.35803,90.628914   C 120.39899,89.11044 119.91948,87.392167 119.91948,85.514055   C 119.91948,83.436143 120.47891,81.478111 121.67771,79.679919   C 122.83654,77.881726 124.59478,76.483131 126.83253,75.564055   C 129.11024,74.605019 131.62771,74.165461 134.38494,74.165461   C 137.46185,74.165461 140.13915,74.644979 142.45683,75.643975   C 144.81446,76.603011 146.61265,78.041565 147.8514,79.959637   C 149.13012,81.87771 149.76948,84.035541 149.88936,86.473091   L 144.65462,86.87269   C 144.3749,84.23534 143.41586,82.277308 141.81747,80.958633   C 140.17911,79.639959 137.78152,78.960641 134.6247,78.960641   C 131.30803,78.960641 128.91044,79.560039 127.43193,80.758834   C 125.91345,81.997589 125.15422,83.436143 125.15422,85.154416   C 125.15422,86.63293 125.67369,87.831726 126.75261,88.790762   C 127.79156,89.749798 130.54879,90.748794 134.98434,91.74779   C 139.41988,92.746786 142.45683,93.625902 144.09518,94.345179   C 146.49277,95.464055 148.251,96.862649 149.40984,98.540962   C 150.52871,100.25924 151.12811,102.21727 151.12811,104.41506   C 151.12811,106.61285 150.48875,108.69076 149.25,110.60883   C 147.97128,112.56687 146.17309,114.04538 143.81546,115.1243   C 141.45783,116.20321 138.82048,116.76265 135.90341,116.76265   C 132.14719,116.76265 129.03032,116.20321 126.51285,115.1243   C 123.99538,114.04538 122.03735,112.40703 120.59879,110.20924   C 119.16024,108.0514 118.401,105.57389 118.32108,102.81667   z  M 185.57349,74.844778   L 191.04799,74.844778   L 191.04799,98.660842   C 191.04799,102.77671 190.56847,106.09337 189.64939,108.53092   C 188.69036,110.96847 187.01205,112.9265 184.5745,114.44498   C 182.13695,116.00341 178.9002,116.76265 174.94417,116.76265   C 171.06807,116.76265 167.91124,116.08333 165.47369,114.76466   C 163.03614,113.40602 161.27791,111.48795 160.23895,108.97048   C 159.16004,106.45301 158.64056,103.01646 158.64056,98.660842   L 158.64056,74.844778   L 164.11506,74.844778   L 164.11506,98.620882   C 164.11506,102.21727 164.43474,104.85462 165.11405,106.53293   C 165.75341,108.2512 166.91225,109.52992 168.51064,110.44899   C 170.14899,111.36807 172.10703,111.84759 174.46466,111.84759   C 178.46064,111.84759 181.33775,110.92851 183.01606,109.09036   C 184.73433,107.29217 185.57349,103.81566 185.57349,98.620882   z  M 207.31164,116.04337   L 196.36265,74.844778   L 201.95703,74.844778   L 208.23072,101.85763   C 208.91004,104.69478 209.50943,107.49197 209.98895,110.28916   C 211.02791,105.89357 211.62731,103.33614 211.82711,102.65683   L 219.65923,74.844778   L 226.25261,74.844778   L 232.16666,95.703814   C 233.64518,100.85863 234.68413,105.73373 235.36345,110.28916   C 235.88293,107.69177 236.56225,104.69478 237.4014,101.33815   L 243.8749,74.844778   L 249.34939,74.844778   L 238.04076,116.04337   L 232.80602,116.04337   L 224.09478,84.674898   C 223.3755,82.037549 222.93594,80.439155 222.81606,79.839758   C 222.3765,81.71787 221.9769,83.316264 221.61727,84.674898   L 212.86606,116.04337   z "
     style="fill:none;stroke:#000000;stroke-width:0.95903611px;stroke-linecap:butt;stroke-linejoin:miter;stroke-miterlimit:10;stroke-dasharray:none;stroke-opacity:1;" />
</svg>
