<?xml version="1.0" encoding="UTF-8" standalone="no"?>
<svg
   xmlns:dc="http://purl.org/dc/elements/1.1/"
   xmlns:cc="http://creativecommons.org/ns#"
   xmlns:rdf="http://www.w3.org/1999/02/22-rdf-syntax-ns#"
   xmlns:svg="http://www.w3.org/2000/svg"
   xmlns="http://www.w3.org/2000/svg"
   id="svg15"
   height="95.75mm"
   width="95.75mm"
   version="1.0">
  <metadata
     id="metadata19">
    <rdf:RDF>
      <cc:Work
         rdf:about="">
        <dc:format>image/svg+xml</dc:format>
        <dc:type
           rdf:resource="http://purl.org/dc/dcmitype/StillImage" />
      </cc:Work>
    </rdf:RDF>
  </metadata>
  <defs
     id="defs3">
    <pattern
       y="0"
       x="0"
       height="6"
       width="6"
       patternUnits="userSpaceOnUse"
       id="EMFhbasepattern" />
  </defs>
  <path
     id="path5"
     d="  M 54.345381,54.345381   L 54.345381,307.53092   L 307.53092,307.53092   L 307.53092,54.345381   L 54.345381,54.345381   z "
     style="fill:#aaffaa;fill-rule:evenodd;fill-opacity:1;stroke:none;" />
  <path
     id="path7"
     d="  M 54.345381,54.345381   L 307.53092,54.345381   L 307.53092,307.53092   L 54.345381,307.53092   z "
     style="fill:none;stroke:#000000;stroke-width:9.5903616px;stroke-linecap:butt;stroke-linejoin:miter;stroke-miterlimit:10;stroke-dasharray:none;stroke-opacity:1;" />
  <path
     id="path9"
     d="  M 85.034537,142.5767   L 85.034537,142.5767   L 85.034537,180.93815   L 180.93815,238.48032   L 276.84176,180.93815   L 276.84176,142.5767   L 180.93815,200.11887   z "
     style="fill:#000000;fill-rule:evenodd;fill-opacity:1;stroke:none;" />
  <path
     id="path11"
     d="  M 118.32108,114.3251   L 123.4759,113.88554   C 123.71566,115.92349 124.2751,117.64177 125.15422,118.96044   C 126.07329,120.27911 127.43193,121.31807 129.31004,122.15723   C 131.18815,122.95642 133.30602,123.35602 135.62369,123.35602   C 137.7016,123.35602 139.53976,123.0763 141.13815,122.43695   C 142.73654,121.83755 143.93534,120.95843 144.69458,119.91948   C 145.49377,118.84056 145.85341,117.64177 145.85341,116.36305   C 145.85341,115.08434 145.49377,113.96546 144.73454,113.00642   C 143.9753,112.00743 142.73654,111.20823 141.01827,110.56887   C 139.93936,110.12932 137.46185,109.45 133.70562,108.53092   C 129.90944,107.65181 127.27209,106.77269 125.75361,105.97349   C 123.79558,104.93454 122.31707,103.65582 121.35803,102.13735   C 120.39899,100.61887 119.91948,98.900601 119.91948,97.022489   C 119.91948,94.944577 120.47891,92.986545 121.67771,91.188352   C 122.83654,89.390159 124.59478,87.991565 126.83253,87.072489   C 129.11024,86.113453 131.62771,85.673894 134.38494,85.673894   C 137.46185,85.673894 140.13915,86.153412 142.45683,87.152408   C 144.81446,88.111445 146.61265,89.549999 147.8514,91.468071   C 149.13012,93.386143 149.76948,95.543975 149.88936,97.981525   L 144.65462,98.381123   C 144.3749,95.743774 143.41586,93.785742 141.81747,92.467067   C 140.17911,91.148392 137.78152,90.469075 134.6247,90.469075   C 131.30803,90.469075 128.91044,91.068473 127.43193,92.267268   C 125.91345,93.506023 125.15422,94.944577 125.15422,96.66285   C 125.15422,98.141364 125.67369,99.340159 126.75261,100.2992   C 127.79156,101.25823 130.54879,102.25723 134.98434,103.25622   C 139.41988,104.25522 142.45683,105.13434 144.09518,105.85361   C 146.49277,106.97249 148.251,108.37108 149.40984,110.0494   C 150.52871,111.76767 151.12811,113.7257 151.12811,115.92349   C 151.12811,118.12128 150.48875,120.1992 149.25,122.11727   C 147.97128,124.0753 146.17309,125.55381 143.81546,126.63273   C 141.45783,127.71164 138.82048,128.27108 135.90341,128.27108   C 132.14719,128.27108 129.03032,127.71164 126.51285,126.63273   C 123.99538,125.55381 122.03735,123.91546 120.59879,121.71767   C 119.16024,119.55984 118.401,117.08233 118.32108,114.3251   z  M 185.57349,86.353212   L 191.04799,86.353212   L 191.04799,110.16928   C 191.04799,114.28514 190.56847,117.60181 189.64939,120.03936   C 188.69036,122.47691 187.01205,124.43494 184.5745,125.95341   C 182.13695,127.51185 178.9002,128.27108 174.94417,128.27108   C 171.06807,128.27108 167.91124,127.59177 165.47369,126.27309   C 163.03614,124.91446 161.27791,122.99638 160.23895,120.47891   C 159.16004,117.96144 158.64056,114.5249 158.64056,110.16928   L 158.64056,86.353212   L 164.11506,86.353212   L 164.11506,110.12932   C 164.11506,113.7257 164.43474,116.36305 165.11405,118.04136   C 165.75341,119.75964 166.91225,121.03835 168.51064,121.95743   C 170.14899,122.8765 172.10703,123.35602 174.46466,123.35602   C 178.46064,123.35602 181.33775,122.43695 183.01606,120.59879   C 184.73433,118.8006 185.57349,115.32409 185.57349,110.12932   z  M 207.31164,127.55181   L 196.36265,86.353212   L 201.95703,86.353212   L 208.23072,113.36606   C 208.91004,116.20321 209.50943,119.0004 209.98895,121.79759   C 211.02791,117.40201 211.62731,114.84458 211.82711,114.16526   L 219.65923,86.353212   L 226.25261,86.353212   L 232.16666,107.21225   C 233.64518,112.36707 234.68413,117.24217 235.36345,121.79759   C 235.88293,119.2002 236.56225,116.20321 237.4014,112.84658   L 243.8749,86.353212   L 249.34939,86.353212   L 238.04076,127.55181   L 232.80602,127.55181   L 224.09478,96.183332   C 223.3755,93.545983 222.93594,91.947589 222.81606,91.348191   C 222.3765,93.226304 221.9769,94.824697 221.61727,96.183332   L 212.86606,127.55181   z "
     style="fill:#000000;fill-rule:evenodd;fill-opacity:1;stroke:none;" />
  <path
     id="path13"
     d="  M 118.32108,114.3251   L 123.4759,113.88554   C 123.71566,115.92349 124.2751,117.64177 125.15422,118.96044   C 126.07329,120.27911 127.43193,121.31807 129.31004,122.15723   C 131.18815,122.95642 133.30602,123.35602 135.62369,123.35602   C 137.7016,123.35602 139.53976,123.0763 141.13815,122.43695   C 142.73654,121.83755 143.93534,120.95843 144.69458,119.91948   C 145.49377,118.84056 145.85341,117.64177 145.85341,116.36305   C 145.85341,115.08434 145.49377,113.96546 144.73454,113.00642   C 143.9753,112.00743 142.73654,111.20823 141.01827,110.56887   C 139.93936,110.12932 137.46185,109.45 133.70562,108.53092   C 129.90944,107.65181 127.27209,106.77269 125.75361,105.97349   C 123.79558,104.93454 122.31707,103.65582 121.35803,102.13735   C 120.39899,100.61887 119.91948,98.900601 119.91948,97.022489   C 119.91948,94.944577 120.47891,92.986545 121.67771,91.188352   C 122.83654,89.390159 124.59478,87.991565 126.83253,87.072489   C 129.11024,86.113453 131.62771,85.673894 134.38494,85.673894   C 137.46185,85.673894 140.13915,86.153412 142.45683,87.152408   C 144.81446,88.111445 146.61265,89.549999 147.8514,91.468071   C 149.13012,93.386143 149.76948,95.543975 149.88936,97.981525   L 144.65462,98.381123   C 144.3749,95.743774 143.41586,93.785742 141.81747,92.467067   C 140.17911,91.148392 137.78152,90.469075 134.6247,90.469075   C 131.30803,90.469075 128.91044,91.068473 127.43193,92.267268   C 125.91345,93.506023 125.15422,94.944577 125.15422,96.66285   C 125.15422,98.141364 125.67369,99.340159 126.75261,100.2992   C 127.79156,101.25823 130.54879,102.25723 134.98434,103.25622   C 139.41988,104.25522 142.45683,105.13434 144.09518,105.85361   C 146.49277,106.97249 148.251,108.37108 149.40984,110.0494   C 150.52871,111.76767 151.12811,113.7257 151.12811,115.92349   C 151.12811,118.12128 150.48875,120.1992 149.25,122.11727   C 147.97128,124.0753 146.17309,125.55381 143.81546,126.63273   C 141.45783,127.71164 138.82048,128.27108 135.90341,128.27108   C 132.14719,128.27108 129.03032,127.71164 126.51285,126.63273   C 123.99538,125.55381 122.03735,123.91546 120.59879,121.71767   C 119.16024,119.55984 118.401,117.08233 118.32108,114.3251   z  M 185.57349,86.353212   L 191.04799,86.353212   L 191.04799,110.16928   C 191.04799,114.28514 190.56847,117.60181 189.64939,120.03936   C 188.69036,122.47691 187.01205,124.43494 184.5745,125.95341   C 182.13695,127.51185 178.9002,128.27108 174.94417,128.27108   C 171.06807,128.27108 167.91124,127.59177 165.47369,126.27309   C 163.03614,124.91446 161.27791,122.99638 160.23895,120.47891   C 159.16004,117.96144 158.64056,114.5249 158.64056,110.16928   L 158.64056,86.353212   L 164.11506,86.353212   L 164.11506,110.12932   C 164.11506,113.7257 164.43474,116.36305 165.11405,118.04136   C 165.75341,119.75964 166.91225,121.03835 168.51064,121.95743   C 170.14899,122.8765 172.10703,123.35602 174.46466,123.35602   C 178.46064,123.35602 181.33775,122.43695 183.01606,120.59879   C 184.73433,118.8006 185.57349,115.32409 185.57349,110.12932   z  M 207.31164,127.55181   L 196.36265,86.353212   L 201.95703,86.353212   L 208.23072,113.36606   C 208.91004,116.20321 209.50943,119.0004 209.98895,121.79759   C 211.02791,117.40201 211.62731,114.84458 211.82711,114.16526   L 219.65923,86.353212   L 226.25261,86.353212   L 232.16666,107.21225   C 233.64518,112.36707 234.68413,117.24217 235.36345,121.79759   C 235.88293,119.2002 236.56225,116.20321 237.4014,112.84658   L 243.8749,86.353212   L 249.34939,86.353212   L 238.04076,127.55181   L 232.80602,127.55181   L 224.09478,96.183332   C 223.3755,93.545983 222.93594,91.947589 222.81606,91.348191   C 222.3765,93.226304 221.9769,94.824697 221.61727,96.183332   L 212.86606,127.55181   z "
     style="fill:none;stroke:#000000;stroke-width:0.95903611px;stroke-linecap:butt;stroke-linejoin:miter;stroke-miterlimit:10;stroke-dasharray:none;stroke-opacity:1;" />
</svg>
