<?xml version="1.0" encoding="UTF-8" standalone="no"?>
<svg
   xmlns:dc="http://purl.org/dc/elements/1.1/"
   xmlns:cc="http://creativecommons.org/ns#"
   xmlns:rdf="http://www.w3.org/1999/02/22-rdf-syntax-ns#"
   xmlns:svg="http://www.w3.org/2000/svg"
   xmlns="http://www.w3.org/2000/svg"
   id="svg15"
   height="101.85mm"
   width="101.85mm"
   version="1.0">
  <metadata
     id="metadata19">
    <rdf:RDF>
      <cc:Work
         rdf:about="">
        <dc:format>image/svg+xml</dc:format>
        <dc:type
           rdf:resource="http://purl.org/dc/dcmitype/StillImage" />
      </cc:Work>
    </rdf:RDF>
  </metadata>
  <defs
     id="defs3">
    <pattern
       y="0"
       x="0"
       height="6"
       width="6"
       patternUnits="userSpaceOnUse"
       id="EMFhbasepattern" />
  </defs>
  <path
     id="path5"
     d="  M 330.54779,192.44658   C 330.54779,268.72992 268.72992,330.54779 192.44658,330.54779   C 116.20321,330.54779 54.345381,268.72992 54.345381,192.44658   C 54.345381,116.20321 116.20321,54.345381 192.44658,54.345381   C 268.72992,54.345381 330.54779,116.20321 330.54779,192.44658   z "
     style="fill:#80e0ff;fill-rule:evenodd;fill-opacity:1;stroke:none;" />
  <path
     id="path7"
     d="  M 330.54779,192.44658   C 330.54779,268.72992 268.72992,330.54779 192.44658,330.54779   C 116.20321,330.54779 54.345381,268.72992 54.345381,192.44658   C 54.345381,116.20321 116.20321,54.345381 192.44658,54.345381   C 268.72992,54.345381 330.54779,116.20321 330.54779,192.44658  "
     style="fill:none;stroke:#000000;stroke-width:9.5903616px;stroke-linecap:butt;stroke-linejoin:miter;stroke-miterlimit:10;stroke-dasharray:none;stroke-opacity:1;" />
  <path
     id="path9"
     d="  M 96.54297,154.08514   L 96.54297,154.08514   L 96.54297,192.44658   L 192.44658,249.98875   L 288.3502,192.44658   L 288.3502,154.08514   L 192.44658,211.62731   z "
     style="fill:#000000;fill-rule:evenodd;fill-opacity:1;stroke:none;" />
  <path
     id="path11"
     d="  M 132.46687,139.06024   L 132.46687,97.861645   L 140.69859,97.861645   L 150.44879,127.03233   C 151.32791,129.7496 152.00723,131.78755 152.40683,133.14618   C 152.88634,131.62771 153.60562,129.42992 154.60462,126.51285   L 164.43474,97.861645   L 171.78735,97.861645   L 171.78735,139.06024   L 166.55261,139.06024   L 166.55261,104.5749   L 154.56466,139.06024   L 149.6496,139.06024   L 137.74156,104.01546   L 137.74156,139.06024   z  M 209.98895,124.63474   L 215.42349,125.99337   C 214.26466,130.46887 212.2267,133.90542 209.26968,136.22309   C 206.27269,138.58072 202.6763,139.77952 198.36064,139.77952   C 193.9251,139.77952 190.32871,138.86044 187.53152,137.06225   C 184.77429,135.26405 182.65642,132.6267 181.17791,129.19016   C 179.73935,125.79357 179.02008,122.07731 179.02008,118.16124   C 179.02008,113.88554 179.81927,110.12932 181.45763,106.93253   C 183.09598,103.73574 185.45361,101.29819 188.4506,99.659838   C 191.48755,97.981525 194.80421,97.182328 198.44056,97.182328   C 202.55642,97.182328 206.03293,98.221284 208.83012,100.2992   C 211.66727,102.41707 213.6253,105.37409 214.70421,109.17028   L 209.3496,110.44899   C 208.39056,107.45201 207.03192,105.25422 205.19377,103.89558   C 203.39558,102.53695 201.07791,101.81767 198.32068,101.81767   C 195.16385,101.81767 192.5265,102.57691 190.40863,104.09538   C 188.29076,105.61385 186.77229,107.65181 185.93313,110.20924   C 185.05401,112.76667 184.61446,115.40401 184.61446,118.12128   C 184.61446,121.63775 185.13393,124.6747 186.17289,127.31205   C 187.17188,129.90944 188.77028,131.86747 190.92811,133.14618   C 193.08594,134.46486 195.40361,135.10421 197.92108,135.10421   C 200.95803,135.10421 203.55542,134.2251 205.67329,132.46687   C 207.79116,130.70863 209.22972,128.07128 209.98895,124.63474   z  M 221.9769,139.06024   L 221.9769,97.861645   L 230.16867,97.861645   L 239.91887,127.03233   C 240.83795,129.7496 241.47731,131.78755 241.8769,133.14618   C 242.35642,131.62771 243.0757,129.42992 244.0747,126.51285   L 253.94478,97.861645   L 261.25743,97.861645   L 261.25743,139.06024   L 256.02269,139.06024   L 256.02269,104.5749   L 244.03474,139.06024   L 239.11968,139.06024   L 227.21164,104.01546   L 227.21164,139.06024   z "
     style="fill:#000000;fill-rule:evenodd;fill-opacity:1;stroke:none;" />
  <path
     id="path13"
     d="  M 132.46687,139.06024   L 132.46687,97.861645   L 140.69859,97.861645   L 150.44879,127.03233   C 151.32791,129.7496 152.00723,131.78755 152.40683,133.14618   C 152.88634,131.62771 153.60562,129.42992 154.60462,126.51285   L 164.43474,97.861645   L 171.78735,97.861645   L 171.78735,139.06024   L 166.55261,139.06024   L 166.55261,104.5749   L 154.56466,139.06024   L 149.6496,139.06024   L 137.74156,104.01546   L 137.74156,139.06024   z  M 209.98895,124.63474   L 215.42349,125.99337   C 214.26466,130.46887 212.2267,133.90542 209.26968,136.22309   C 206.27269,138.58072 202.6763,139.77952 198.36064,139.77952   C 193.9251,139.77952 190.32871,138.86044 187.53152,137.06225   C 184.77429,135.26405 182.65642,132.6267 181.17791,129.19016   C 179.73935,125.79357 179.02008,122.07731 179.02008,118.16124   C 179.02008,113.88554 179.81927,110.12932 181.45763,106.93253   C 183.09598,103.73574 185.45361,101.29819 188.4506,99.659838   C 191.48755,97.981525 194.80421,97.182328 198.44056,97.182328   C 202.55642,97.182328 206.03293,98.221284 208.83012,100.2992   C 211.66727,102.41707 213.6253,105.37409 214.70421,109.17028   L 209.3496,110.44899   C 208.39056,107.45201 207.03192,105.25422 205.19377,103.89558   C 203.39558,102.53695 201.07791,101.81767 198.32068,101.81767   C 195.16385,101.81767 192.5265,102.57691 190.40863,104.09538   C 188.29076,105.61385 186.77229,107.65181 185.93313,110.20924   C 185.05401,112.76667 184.61446,115.40401 184.61446,118.12128   C 184.61446,121.63775 185.13393,124.6747 186.17289,127.31205   C 187.17188,129.90944 188.77028,131.86747 190.92811,133.14618   C 193.08594,134.46486 195.40361,135.10421 197.92108,135.10421   C 200.95803,135.10421 203.55542,134.2251 205.67329,132.46687   C 207.79116,130.70863 209.22972,128.07128 209.98895,124.63474   z  M 221.9769,139.06024   L 221.9769,97.861645   L 230.16867,97.861645   L 239.91887,127.03233   C 240.83795,129.7496 241.47731,131.78755 241.8769,133.14618   C 242.35642,131.62771 243.0757,129.42992 244.0747,126.51285   L 253.94478,97.861645   L 261.25743,97.861645   L 261.25743,139.06024   L 256.02269,139.06024   L 256.02269,104.5749   L 244.03474,139.06024   L 239.11968,139.06024   L 227.21164,104.01546   L 227.21164,139.06024   z "
     style="fill:none;stroke:#000000;stroke-width:0.95903611px;stroke-linecap:butt;stroke-linejoin:miter;stroke-miterlimit:10;stroke-dasharray:none;stroke-opacity:1;" />
</svg>
