<?xml version="1.0" encoding="UTF-8" standalone="no"?>
<svg
   xmlns:dc="http://purl.org/dc/elements/1.1/"
   xmlns:cc="http://creativecommons.org/ns#"
   xmlns:rdf="http://www.w3.org/1999/02/22-rdf-syntax-ns#"
   xmlns:svg="http://www.w3.org/2000/svg"
   xmlns="http://www.w3.org/2000/svg"
   id="svg15"
   height="116.73mm"
   width="116.73mm"
   version="1.0">
  <metadata
     id="metadata19">
    <rdf:RDF>
      <cc:Work
         rdf:about="">
        <dc:format>image/svg+xml</dc:format>
        <dc:type
           rdf:resource="http://purl.org/dc/dcmitype/StillImage" />
      </cc:Work>
    </rdf:RDF>
  </metadata>
  <defs
     id="defs3">
    <pattern
       y="0"
       x="0"
       height="6"
       width="6"
       patternUnits="userSpaceOnUse"
       id="EMFhbasepattern" />
  </defs>
  <path
     id="path5"
     d="  M 220.57831,386.49156   L 220.57831,386.49156   L 386.49156,220.57831   L 220.57831,54.665059   L 54.665059,220.57831   z "
     style="fill:#ff8080;fill-rule:evenodd;fill-opacity:1;stroke:none;" />
  <path
     id="path7"
     d="  M 220.57831,386.49156   L 220.57831,386.49156   L 386.49156,220.57831   L 220.57831,54.665059   L 54.665059,220.57831   z "
     style="fill:none;stroke:#000000;stroke-width:9.5903616px;stroke-linecap:butt;stroke-linejoin:miter;stroke-miterlimit:10;stroke-dasharray:none;stroke-opacity:1;" />
  <path
     id="path9"
     d="  M 124.6747,182.21686   L 124.6747,182.21686   L 124.6747,220.57831   L 220.57831,278.12048   L 316.48192,220.57831   L 316.48192,182.21686   L 220.57831,239.75903   z "
     style="fill:#000000;fill-rule:evenodd;fill-opacity:1;stroke:none;" />
  <path
     id="path11"
     d="  M 157.96124,153.96526   L 163.11606,153.5257   C 163.35582,155.56365 163.91526,157.28193 164.79438,158.6006   C 165.71345,159.91927 167.07209,160.95823 168.9502,161.79739   C 170.82831,162.59658 172.94618,162.99618 175.26385,162.99618   C 177.34176,162.99618 179.17992,162.71646 180.77831,162.07711   C 182.3767,161.47771 183.5755,160.59859 184.33474,159.55964   C 185.13393,158.48072 185.49357,157.28193 185.49357,156.00321   C 185.49357,154.7245 185.13393,153.60562 184.3747,152.64658   C 183.61546,151.64759 182.3767,150.84839 180.65843,150.20903   C 179.57952,149.76948 177.10201,149.09016 173.34578,148.17108   C 169.5496,147.29197 166.91225,146.41285 165.39377,145.61365   C 163.43574,144.5747 161.95723,143.29598 160.99819,141.77751   C 160.03915,140.25903 159.55964,138.54076 159.55964,136.66265   C 159.55964,134.58474 160.11907,132.6267 161.31787,130.82851   C 162.4767,129.03032 164.23494,127.63173 166.47269,126.71265   C 168.7504,125.75361 171.26787,125.31405 174.0251,125.31405   C 177.10201,125.31405 179.77931,125.79357 182.09699,126.79257   C 184.45462,127.7516 186.25281,129.19016 187.49156,131.10823   C 188.77028,133.0263 189.40964,135.18413 189.52952,137.62168   L 184.29478,138.02128   C 184.01506,135.38393 183.05602,133.4259 181.45763,132.10723   C 179.81927,130.78855 177.42168,130.10924 174.26486,130.10924   C 170.94819,130.10924 168.5506,130.70863 167.07209,131.90743   C 165.55361,133.14618 164.79438,134.58474 164.79438,136.30301   C 164.79438,137.78152 165.31385,138.98032 166.39277,139.93936   C 167.43172,140.89839 170.18895,141.89739 174.6245,142.89638   C 179.06004,143.89538 182.09699,144.7745 183.73534,145.49377   C 186.13293,146.61265 187.89116,148.01124 189.05,149.68956   C 190.16887,151.40783 190.76827,153.36586 190.76827,155.56365   C 190.76827,157.76144 190.12891,159.83936 188.89016,161.75743   C 187.61144,163.71546 185.81325,165.19397 183.45562,166.27289   C 181.09799,167.3518 178.46064,167.91124 175.54357,167.91124   C 171.78735,167.91124 168.67048,167.3518 166.15301,166.27289   C 163.63554,165.19397 161.67751,163.55562 160.23895,161.35783   C 158.8004,159.2 158.04116,156.72249 157.96124,153.96526   z  M 225.21365,125.99337   L 230.68815,125.99337   L 230.68815,149.80944   C 230.68815,153.9253 230.20863,157.24197 229.28955,159.67952   C 228.33052,162.11707 226.65221,164.0751 224.21466,165.59357   C 221.77711,167.15201 218.54036,167.91124 214.58433,167.91124   C 210.70823,167.91124 207.5514,167.23193 205.11385,165.91325   C 202.6763,164.55462 200.91807,162.63654 199.87911,160.11907   C 198.8002,157.6016 198.28072,154.16506 198.28072,149.80944   L 198.28072,125.99337   L 203.75522,125.99337   L 203.75522,149.76948   C 203.75522,153.36586 204.0749,156.00321 204.75421,157.68152   C 205.39357,159.3998 206.55241,160.67851 208.1508,161.59759   C 209.78915,162.51666 211.74719,162.99618 214.10482,162.99618   C 218.1008,162.99618 220.97791,162.07711 222.65622,160.23895   C 224.37449,158.44076 225.21365,154.96425 225.21365,149.76948   z  M 246.9518,167.19197   L 236.00281,125.99337   L 241.59719,125.99337   L 247.87088,153.00622   C 248.5502,155.84337 249.14959,158.64056 249.62911,161.43775   C 250.66807,157.04217 251.26747,154.48474 251.46727,153.80542   L 259.29939,125.99337   L 265.89277,125.99337   L 271.80682,146.85241   C 273.28534,152.00723 274.32429,156.88233 275.00361,161.43775   C 275.52309,158.84036 276.20241,155.84337 277.04156,152.48674   L 283.51506,125.99337   L 288.98955,125.99337   L 277.68092,167.19197   L 272.44618,167.19197   L 263.73494,135.82349   C 263.01566,133.18614 262.5761,131.58775 262.45622,130.98835   C 262.01666,132.86646 261.61706,134.46486 261.25743,135.82349   L 252.50622,167.19197   z "
     style="fill:#000000;fill-rule:evenodd;fill-opacity:1;stroke:none;" />
  <path
     id="path13"
     d="  M 157.96124,153.96526   L 163.11606,153.5257   C 163.35582,155.56365 163.91526,157.28193 164.79438,158.6006   C 165.71345,159.91927 167.07209,160.95823 168.9502,161.79739   C 170.82831,162.59658 172.94618,162.99618 175.26385,162.99618   C 177.34176,162.99618 179.17992,162.71646 180.77831,162.07711   C 182.3767,161.47771 183.5755,160.59859 184.33474,159.55964   C 185.13393,158.48072 185.49357,157.28193 185.49357,156.00321   C 185.49357,154.7245 185.13393,153.60562 184.3747,152.64658   C 183.61546,151.64759 182.3767,150.84839 180.65843,150.20903   C 179.57952,149.76948 177.10201,149.09016 173.34578,148.17108   C 169.5496,147.29197 166.91225,146.41285 165.39377,145.61365   C 163.43574,144.5747 161.95723,143.29598 160.99819,141.77751   C 160.03915,140.25903 159.55964,138.54076 159.55964,136.66265   C 159.55964,134.58474 160.11907,132.6267 161.31787,130.82851   C 162.4767,129.03032 164.23494,127.63173 166.47269,126.71265   C 168.7504,125.75361 171.26787,125.31405 174.0251,125.31405   C 177.10201,125.31405 179.77931,125.79357 182.09699,126.79257   C 184.45462,127.7516 186.25281,129.19016 187.49156,131.10823   C 188.77028,133.0263 189.40964,135.18413 189.52952,137.62168   L 184.29478,138.02128   C 184.01506,135.38393 183.05602,133.4259 181.45763,132.10723   C 179.81927,130.78855 177.42168,130.10924 174.26486,130.10924   C 170.94819,130.10924 168.5506,130.70863 167.07209,131.90743   C 165.55361,133.14618 164.79438,134.58474 164.79438,136.30301   C 164.79438,137.78152 165.31385,138.98032 166.39277,139.93936   C 167.43172,140.89839 170.18895,141.89739 174.6245,142.89638   C 179.06004,143.89538 182.09699,144.7745 183.73534,145.49377   C 186.13293,146.61265 187.89116,148.01124 189.05,149.68956   C 190.16887,151.40783 190.76827,153.36586 190.76827,155.56365   C 190.76827,157.76144 190.12891,159.83936 188.89016,161.75743   C 187.61144,163.71546 185.81325,165.19397 183.45562,166.27289   C 181.09799,167.3518 178.46064,167.91124 175.54357,167.91124   C 171.78735,167.91124 168.67048,167.3518 166.15301,166.27289   C 163.63554,165.19397 161.67751,163.55562 160.23895,161.35783   C 158.8004,159.2 158.04116,156.72249 157.96124,153.96526   z  M 225.21365,125.99337   L 230.68815,125.99337   L 230.68815,149.80944   C 230.68815,153.9253 230.20863,157.24197 229.28955,159.67952   C 228.33052,162.11707 226.65221,164.0751 224.21466,165.59357   C 221.77711,167.15201 218.54036,167.91124 214.58433,167.91124   C 210.70823,167.91124 207.5514,167.23193 205.11385,165.91325   C 202.6763,164.55462 200.91807,162.63654 199.87911,160.11907   C 198.8002,157.6016 198.28072,154.16506 198.28072,149.80944   L 198.28072,125.99337   L 203.75522,125.99337   L 203.75522,149.76948   C 203.75522,153.36586 204.0749,156.00321 204.75421,157.68152   C 205.39357,159.3998 206.55241,160.67851 208.1508,161.59759   C 209.78915,162.51666 211.74719,162.99618 214.10482,162.99618   C 218.1008,162.99618 220.97791,162.07711 222.65622,160.23895   C 224.37449,158.44076 225.21365,154.96425 225.21365,149.76948   z  M 246.9518,167.19197   L 236.00281,125.99337   L 241.59719,125.99337   L 247.87088,153.00622   C 248.5502,155.84337 249.14959,158.64056 249.62911,161.43775   C 250.66807,157.04217 251.26747,154.48474 251.46727,153.80542   L 259.29939,125.99337   L 265.89277,125.99337   L 271.80682,146.85241   C 273.28534,152.00723 274.32429,156.88233 275.00361,161.43775   C 275.52309,158.84036 276.20241,155.84337 277.04156,152.48674   L 283.51506,125.99337   L 288.98955,125.99337   L 277.68092,167.19197   L 272.44618,167.19197   L 263.73494,135.82349   C 263.01566,133.18614 262.5761,131.58775 262.45622,130.98835   C 262.01666,132.86646 261.61706,134.46486 261.25743,135.82349   L 252.50622,167.19197   z "
     style="fill:none;stroke:#000000;stroke-width:0.95903611px;stroke-linecap:butt;stroke-linejoin:miter;stroke-miterlimit:10;stroke-dasharray:none;stroke-opacity:1;" />
</svg>
