<?xml version="1.0" encoding="UTF-8" standalone="no"?>
<svg
   xmlns:dc="http://purl.org/dc/elements/1.1/"
   xmlns:cc="http://creativecommons.org/ns#"
   xmlns:rdf="http://www.w3.org/1999/02/22-rdf-syntax-ns#"
   xmlns:svg="http://www.w3.org/2000/svg"
   xmlns="http://www.w3.org/2000/svg"
   id="svg15"
   height="95.75mm"
   width="95.75mm"
   version="1.0">
  <metadata
     id="metadata19">
    <rdf:RDF>
      <cc:Work
         rdf:about="">
        <dc:format>image/svg+xml</dc:format>
        <dc:type
           rdf:resource="http://purl.org/dc/dcmitype/StillImage" />
      </cc:Work>
    </rdf:RDF>
  </metadata>
  <defs
     id="defs3">
    <pattern
       y="0"
       x="0"
       height="6"
       width="6"
       patternUnits="userSpaceOnUse"
       id="EMFhbasepattern" />
  </defs>
  <path
     id="path5"
     d="  M 54.345381,54.345381   L 54.345381,307.53092   L 307.53092,307.53092   L 307.53092,54.345381   L 54.345381,54.345381   z "
     style="fill:#aaffaa;fill-rule:evenodd;fill-opacity:1;stroke:none;" />
  <path
     id="path7"
     d="  M 54.345381,54.345381   L 307.53092,54.345381   L 307.53092,307.53092   L 54.345381,307.53092   z "
     style="fill:none;stroke:#000000;stroke-width:9.5903616px;stroke-linecap:butt;stroke-linejoin:miter;stroke-miterlimit:10;stroke-dasharray:none;stroke-opacity:1;" />
  <path
     id="path9"
     d="  M 85.034537,142.5767   L 85.034537,142.5767   L 85.034537,180.93815   L 180.93815,238.48032   L 276.84176,180.93815   L 276.84176,142.5767   L 180.93815,200.11887   z "
     style="fill:#000000;fill-rule:evenodd;fill-opacity:1;stroke:none;" />
  <path
     id="path11"
     d="  M 115.64377,127.55181   L 131.46787,86.353212   L 137.34197,86.353212   L 154.20502,127.55181   L 148.01124,127.55181   L 143.1761,115.08434   L 125.95341,115.08434   L 121.43795,127.55181   z  M 127.55181,110.64879   L 141.49779,110.64879   L 137.22209,99.22028   C 135.90341,95.783734 134.90442,92.906625 134.30502,90.708834   C 133.74558,93.346183 133.0263,95.943573 132.06727,98.540962   z  M 156.72249,114.3251   L 161.83735,113.88554   C 162.07711,115.92349 162.6765,117.64177 163.55562,118.96044   C 164.43474,120.27911 165.83333,121.31807 167.71144,122.15723   C 169.5496,122.95642 171.66747,123.35602 174.0251,123.35602   C 176.10301,123.35602 177.94116,123.0763 179.53956,122.43695   C 181.09799,121.83755 182.29678,120.95843 183.09598,119.91948   C 183.85522,118.84056 184.25482,117.64177 184.25482,116.36305   C 184.25482,115.08434 183.85522,113.96546 183.13594,113.00642   C 182.3767,112.00743 181.13795,111.20823 179.41968,110.56887   C 178.3008,110.12932 175.86325,109.45 172.06707,108.53092   C 168.31084,107.65181 165.63353,106.77269 164.11506,105.97349   C 162.15703,104.93454 160.67851,103.65582 159.71948,102.13735   C 158.76044,100.61887 158.28092,98.900601 158.28092,97.022489   C 158.28092,94.944577 158.88032,92.986545 160.03915,91.188352   C 161.23795,89.390159 162.95622,87.991565 165.23393,87.072489   C 167.47168,86.113453 169.98915,85.673894 172.78634,85.673894   C 175.82329,85.673894 178.54056,86.153412 180.85823,87.152408   C 183.1759,88.111445 184.97409,89.549999 186.25281,91.468071   C 187.49156,93.386143 188.17088,95.543975 188.2508,97.981525   L 183.01606,98.381123   C 182.73634,95.743774 181.81727,93.785742 180.17891,92.467067   C 178.58052,91.148392 176.18293,90.469075 172.98614,90.469075   C 169.70944,90.469075 167.31184,91.068473 165.79337,92.267268   C 164.2749,93.506023 163.51566,94.944577 163.51566,96.66285   C 163.51566,98.141364 164.0751,99.340159 165.15401,100.2992   C 166.19297,101.25823 168.91024,102.25723 173.34578,103.25622   C 177.78132,104.25522 180.81827,105.13434 182.45662,105.85361   C 184.85421,106.97249 186.65241,108.37108 187.77128,110.0494   C 188.93012,111.76767 189.48956,113.7257 189.48956,115.92349   C 189.48956,118.12128 188.8502,120.1992 187.61144,122.11727   C 186.37269,124.0753 184.5745,125.55381 182.21686,126.63273   C 179.85923,127.71164 177.22188,128.27108 174.26486,128.27108   C 170.54859,128.27108 167.43172,127.71164 164.91425,126.63273   C 162.39678,125.55381 160.39879,123.91546 158.96024,121.71767   C 157.52168,119.55984 156.80241,117.08233 156.72249,114.3251   z  M 204.11486,127.55181   L 193.20582,86.353212   L 198.8002,86.353212   L 205.07389,113.36606   C 205.75321,116.20321 206.31265,119.0004 206.79217,121.79759   C 207.87108,117.40201 208.47048,114.84458 208.67028,114.16526   L 216.50241,86.353212   L 223.05582,86.353212   L 228.96988,107.21225   C 230.44839,112.36707 231.52731,117.24217 232.16666,121.79759   C 232.68614,119.2002 233.36546,116.20321 234.24457,112.84658   L 240.67811,86.353212   L 246.15261,86.353212   L 234.88393,127.55181   L 229.60923,127.55181   L 220.93795,96.183332   C 220.21867,93.545983 219.77911,91.947589 219.65923,91.348191   C 219.21968,93.226304 218.82008,94.824697 218.42048,96.183332   L 209.70923,127.55181   z "
     style="fill:#000000;fill-rule:evenodd;fill-opacity:1;stroke:none;" />
  <path
     id="path13"
     d="  M 115.64377,127.55181   L 131.46787,86.353212   L 137.34197,86.353212   L 154.20502,127.55181   L 148.01124,127.55181   L 143.1761,115.08434   L 125.95341,115.08434   L 121.43795,127.55181   z  M 127.55181,110.64879   L 141.49779,110.64879   L 137.22209,99.22028   C 135.90341,95.783734 134.90442,92.906625 134.30502,90.708834   C 133.74558,93.346183 133.0263,95.943573 132.06727,98.540962   z  M 156.72249,114.3251   L 161.83735,113.88554   C 162.07711,115.92349 162.6765,117.64177 163.55562,118.96044   C 164.43474,120.27911 165.83333,121.31807 167.71144,122.15723   C 169.5496,122.95642 171.66747,123.35602 174.0251,123.35602   C 176.10301,123.35602 177.94116,123.0763 179.53956,122.43695   C 181.09799,121.83755 182.29678,120.95843 183.09598,119.91948   C 183.85522,118.84056 184.25482,117.64177 184.25482,116.36305   C 184.25482,115.08434 183.85522,113.96546 183.13594,113.00642   C 182.3767,112.00743 181.13795,111.20823 179.41968,110.56887   C 178.3008,110.12932 175.86325,109.45 172.06707,108.53092   C 168.31084,107.65181 165.63353,106.77269 164.11506,105.97349   C 162.15703,104.93454 160.67851,103.65582 159.71948,102.13735   C 158.76044,100.61887 158.28092,98.900601 158.28092,97.022489   C 158.28092,94.944577 158.88032,92.986545 160.03915,91.188352   C 161.23795,89.390159 162.95622,87.991565 165.23393,87.072489   C 167.47168,86.113453 169.98915,85.673894 172.78634,85.673894   C 175.82329,85.673894 178.54056,86.153412 180.85823,87.152408   C 183.1759,88.111445 184.97409,89.549999 186.25281,91.468071   C 187.49156,93.386143 188.17088,95.543975 188.2508,97.981525   L 183.01606,98.381123   C 182.73634,95.743774 181.81727,93.785742 180.17891,92.467067   C 178.58052,91.148392 176.18293,90.469075 172.98614,90.469075   C 169.70944,90.469075 167.31184,91.068473 165.79337,92.267268   C 164.2749,93.506023 163.51566,94.944577 163.51566,96.66285   C 163.51566,98.141364 164.0751,99.340159 165.15401,100.2992   C 166.19297,101.25823 168.91024,102.25723 173.34578,103.25622   C 177.78132,104.25522 180.81827,105.13434 182.45662,105.85361   C 184.85421,106.97249 186.65241,108.37108 187.77128,110.0494   C 188.93012,111.76767 189.48956,113.7257 189.48956,115.92349   C 189.48956,118.12128 188.8502,120.1992 187.61144,122.11727   C 186.37269,124.0753 184.5745,125.55381 182.21686,126.63273   C 179.85923,127.71164 177.22188,128.27108 174.26486,128.27108   C 170.54859,128.27108 167.43172,127.71164 164.91425,126.63273   C 162.39678,125.55381 160.39879,123.91546 158.96024,121.71767   C 157.52168,119.55984 156.80241,117.08233 156.72249,114.3251   z  M 204.11486,127.55181   L 193.20582,86.353212   L 198.8002,86.353212   L 205.07389,113.36606   C 205.75321,116.20321 206.31265,119.0004 206.79217,121.79759   C 207.87108,117.40201 208.47048,114.84458 208.67028,114.16526   L 216.50241,86.353212   L 223.05582,86.353212   L 228.96988,107.21225   C 230.44839,112.36707 231.52731,117.24217 232.16666,121.79759   C 232.68614,119.2002 233.36546,116.20321 234.24457,112.84658   L 240.67811,86.353212   L 246.15261,86.353212   L 234.88393,127.55181   L 229.60923,127.55181   L 220.93795,96.183332   C 220.21867,93.545983 219.77911,91.947589 219.65923,91.348191   C 219.21968,93.226304 218.82008,94.824697 218.42048,96.183332   L 209.70923,127.55181   z "
     style="fill:none;stroke:#000000;stroke-width:0.95903611px;stroke-linecap:butt;stroke-linejoin:miter;stroke-miterlimit:10;stroke-dasharray:none;stroke-opacity:1;" />
</svg>
