<?xml version="1.0" encoding="UTF-8" standalone="no"?>
<svg
   xmlns:dc="http://purl.org/dc/elements/1.1/"
   xmlns:cc="http://creativecommons.org/ns#"
   xmlns:rdf="http://www.w3.org/1999/02/22-rdf-syntax-ns#"
   xmlns:svg="http://www.w3.org/2000/svg"
   xmlns="http://www.w3.org/2000/svg"
   id="svg15"
   height="116.05mm"
   width="135.35001mm"
   version="1.0">
  <metadata
     id="metadata19">
    <rdf:RDF>
      <cc:Work
         rdf:about="">
        <dc:format>image/svg+xml</dc:format>
        <dc:type
           rdf:resource="http://purl.org/dc/dcmitype/StillImage" />
      </cc:Work>
    </rdf:RDF>
  </metadata>
  <defs
     id="defs3">
    <pattern
       y="0"
       x="0"
       height="6"
       width="6"
       patternUnits="userSpaceOnUse"
       id="EMFhbasepattern" />
  </defs>
  <path
     id="path5"
     d="  M 174.2249,54.345381   C 54.345381,54.345381 54.345381,250.94779 174.2249,250.94779   C 174.2249,384.25381 337.26104,384.25381 337.26104,250.94779   C 457.14056,250.94779 457.14056,54.345381 337.26104,54.345381   z "
     style="fill:#ffff80;fill-rule:evenodd;fill-opacity:1;stroke:none;" />
  <path
     id="path7"
     d="  M 174.2249,54.345381   C 54.345381,54.345381 54.345381,250.94779 174.2249,250.94779   C 174.2249,384.25381 337.26104,384.25381 337.26104,250.94779   C 457.14056,250.94779 457.14056,54.345381 337.26104,54.345381  "
     style="fill:none;stroke:#000000;stroke-width:9.5903616px;stroke-linecap:butt;stroke-linejoin:miter;stroke-miterlimit:10;stroke-dasharray:none;stroke-opacity:1;" />
  <path
     id="path9"
     d="  M 159.83936,131.06827   L 159.83936,131.06827   L 159.83936,169.42972   L 255.74297,226.97188   L 351.64658,169.42972   L 351.64658,131.06827   L 255.74297,188.61044   z "
     style="fill:#000000;fill-rule:evenodd;fill-opacity:1;stroke:none;" />
  <path
     id="path11"
     d="  M 193.1259,102.81667   L 198.28072,102.37711   C 198.52048,104.41506 199.07992,106.13333 199.95903,107.45201   C 200.87811,108.77068 202.23674,109.80964 204.11486,110.64879   C 205.99297,111.44799 208.11084,111.84759 210.42851,111.84759   C 212.50642,111.84759 214.34458,111.56787 215.94297,110.92851   C 217.54136,110.32911 218.74016,109.45 219.49939,108.41104   C 220.29859,107.33213 220.65823,106.13333 220.65823,104.85462   C 220.65823,103.5759 220.29859,102.45703 219.53935,101.49799   C 218.78012,100.49899 217.54136,99.699798 215.82309,99.06044   C 214.74417,98.620882 212.26666,97.941565 208.51044,97.022489   C 204.71425,96.143372 202.0769,95.264256 200.55843,94.465059   C 198.6004,93.426103 197.12188,92.147388 196.16285,90.628914   C 195.20381,89.11044 194.72429,87.392167 194.72429,85.514055   C 194.72429,83.436143 195.28373,81.478111 196.48253,79.679919   C 197.64136,77.881726 199.3996,76.483131 201.63735,75.564055   C 203.91506,74.605019 206.43253,74.165461 209.18976,74.165461   C 212.26666,74.165461 214.94397,74.644979 217.26164,75.643975   C 219.61927,76.603011 221.41747,78.041565 222.65622,79.959637   C 223.93494,81.87771 224.57429,84.035541 224.69417,86.473091   L 219.45943,86.87269   C 219.17972,84.23534 218.22068,82.277308 216.62229,80.958633   C 214.98393,79.639959 212.58634,78.960641 209.42952,78.960641   C 206.11285,78.960641 203.71526,79.560039 202.23674,80.758834   C 200.71827,81.997589 199.95903,83.436143 199.95903,85.154416   C 199.95903,86.63293 200.47851,87.831726 201.55743,88.790762   C 202.59638,89.749798 205.35361,90.748794 209.78915,91.74779   C 214.2247,92.746786 217.26164,93.625902 218.9,94.345179   C 221.29759,95.464055 223.05582,96.862649 224.21466,98.540962   C 225.33353,100.25924 225.93293,102.21727 225.93293,104.41506   C 225.93293,106.61285 225.29357,108.69076 224.05482,110.60883   C 222.7761,112.56687 220.97791,114.04538 218.62028,115.1243   C 216.26265,116.20321 213.6253,116.76265 210.70823,116.76265   C 206.95201,116.76265 203.83514,116.20321 201.31767,115.1243   C 198.8002,114.04538 196.84217,112.40703 195.40361,110.20924   C 193.96506,108.0514 193.20582,105.57389 193.1259,102.81667   z  M 260.37831,74.844778   L 265.85281,74.844778   L 265.85281,98.660842   C 265.85281,102.77671 265.37329,106.09337 264.45421,108.53092   C 263.49518,110.96847 261.81686,112.9265 259.37931,114.44498   C 256.94176,116.00341 253.70502,116.76265 249.74899,116.76265   C 245.87289,116.76265 242.71606,116.08333 240.27851,114.76466   C 237.84096,113.40602 236.08273,111.48795 235.04377,108.97048   C 233.96486,106.45301 233.44538,103.01646 233.44538,98.660842   L 233.44538,74.844778   L 238.91988,74.844778   L 238.91988,98.620882   C 238.91988,102.21727 239.23955,104.85462 239.91887,106.53293   C 240.55823,108.2512 241.71706,109.52992 243.31546,110.44899   C 244.95381,111.36807 246.91184,111.84759 249.26947,111.84759   C 253.26546,111.84759 256.14257,110.92851 257.82088,109.09036   C 259.53915,107.29217 260.37831,103.81566 260.37831,98.620882   z  M 282.11646,116.04337   L 271.16747,74.844778   L 276.76184,74.844778   L 283.03554,101.85763   C 283.71486,104.69478 284.31425,107.49197 284.79377,110.28916   C 285.83273,105.89357 286.43212,103.33614 286.63192,102.65683   L 294.46405,74.844778   L 301.05743,74.844778   L 306.97148,95.703814   C 308.45,100.85863 309.48895,105.73373 310.16827,110.28916   C 310.68775,107.69177 311.36706,104.69478 312.20622,101.33815   L 318.67971,74.844778   L 324.15421,74.844778   L 312.84558,116.04337   L 307.61084,116.04337   L 298.89959,84.674898   C 298.18032,82.037549 297.74076,80.439155 297.62088,79.839758   C 297.18132,81.71787 296.78172,83.316264 296.42208,84.674898   L 287.67088,116.04337   z "
     style="fill:#000000;fill-rule:evenodd;fill-opacity:1;stroke:none;" />
  <path
     id="path13"
     d="  M 193.1259,102.81667   L 198.28072,102.37711   C 198.52048,104.41506 199.07992,106.13333 199.95903,107.45201   C 200.87811,108.77068 202.23674,109.80964 204.11486,110.64879   C 205.99297,111.44799 208.11084,111.84759 210.42851,111.84759   C 212.50642,111.84759 214.34458,111.56787 215.94297,110.92851   C 217.54136,110.32911 218.74016,109.45 219.49939,108.41104   C 220.29859,107.33213 220.65823,106.13333 220.65823,104.85462   C 220.65823,103.5759 220.29859,102.45703 219.53935,101.49799   C 218.78012,100.49899 217.54136,99.699798 215.82309,99.06044   C 214.74417,98.620882 212.26666,97.941565 208.51044,97.022489   C 204.71425,96.143372 202.0769,95.264256 200.55843,94.465059   C 198.6004,93.426103 197.12188,92.147388 196.16285,90.628914   C 195.20381,89.11044 194.72429,87.392167 194.72429,85.514055   C 194.72429,83.436143 195.28373,81.478111 196.48253,79.679919   C 197.64136,77.881726 199.3996,76.483131 201.63735,75.564055   C 203.91506,74.605019 206.43253,74.165461 209.18976,74.165461   C 212.26666,74.165461 214.94397,74.644979 217.26164,75.643975   C 219.61927,76.603011 221.41747,78.041565 222.65622,79.959637   C 223.93494,81.87771 224.57429,84.035541 224.69417,86.473091   L 219.45943,86.87269   C 219.17972,84.23534 218.22068,82.277308 216.62229,80.958633   C 214.98393,79.639959 212.58634,78.960641 209.42952,78.960641   C 206.11285,78.960641 203.71526,79.560039 202.23674,80.758834   C 200.71827,81.997589 199.95903,83.436143 199.95903,85.154416   C 199.95903,86.63293 200.47851,87.831726 201.55743,88.790762   C 202.59638,89.749798 205.35361,90.748794 209.78915,91.74779   C 214.2247,92.746786 217.26164,93.625902 218.9,94.345179   C 221.29759,95.464055 223.05582,96.862649 224.21466,98.540962   C 225.33353,100.25924 225.93293,102.21727 225.93293,104.41506   C 225.93293,106.61285 225.29357,108.69076 224.05482,110.60883   C 222.7761,112.56687 220.97791,114.04538 218.62028,115.1243   C 216.26265,116.20321 213.6253,116.76265 210.70823,116.76265   C 206.95201,116.76265 203.83514,116.20321 201.31767,115.1243   C 198.8002,114.04538 196.84217,112.40703 195.40361,110.20924   C 193.96506,108.0514 193.20582,105.57389 193.1259,102.81667   z  M 260.37831,74.844778   L 265.85281,74.844778   L 265.85281,98.660842   C 265.85281,102.77671 265.37329,106.09337 264.45421,108.53092   C 263.49518,110.96847 261.81686,112.9265 259.37931,114.44498   C 256.94176,116.00341 253.70502,116.76265 249.74899,116.76265   C 245.87289,116.76265 242.71606,116.08333 240.27851,114.76466   C 237.84096,113.40602 236.08273,111.48795 235.04377,108.97048   C 233.96486,106.45301 233.44538,103.01646 233.44538,98.660842   L 233.44538,74.844778   L 238.91988,74.844778   L 238.91988,98.620882   C 238.91988,102.21727 239.23955,104.85462 239.91887,106.53293   C 240.55823,108.2512 241.71706,109.52992 243.31546,110.44899   C 244.95381,111.36807 246.91184,111.84759 249.26947,111.84759   C 253.26546,111.84759 256.14257,110.92851 257.82088,109.09036   C 259.53915,107.29217 260.37831,103.81566 260.37831,98.620882   z  M 282.11646,116.04337   L 271.16747,74.844778   L 276.76184,74.844778   L 283.03554,101.85763   C 283.71486,104.69478 284.31425,107.49197 284.79377,110.28916   C 285.83273,105.89357 286.43212,103.33614 286.63192,102.65683   L 294.46405,74.844778   L 301.05743,74.844778   L 306.97148,95.703814   C 308.45,100.85863 309.48895,105.73373 310.16827,110.28916   C 310.68775,107.69177 311.36706,104.69478 312.20622,101.33815   L 318.67971,74.844778   L 324.15421,74.844778   L 312.84558,116.04337   L 307.61084,116.04337   L 298.89959,84.674898   C 298.18032,82.037549 297.74076,80.439155 297.62088,79.839758   C 297.18132,81.71787 296.78172,83.316264 296.42208,84.674898   L 287.67088,116.04337   z "
     style="fill:none;stroke:#000000;stroke-width:0.95903611px;stroke-linecap:butt;stroke-linejoin:miter;stroke-miterlimit:10;stroke-dasharray:none;stroke-opacity:1;" />
</svg>
