<?xml version="1.0" encoding="UTF-8" standalone="no"?>
<svg
   xmlns:dc="http://purl.org/dc/elements/1.1/"
   xmlns:cc="http://creativecommons.org/ns#"
   xmlns:rdf="http://www.w3.org/1999/02/22-rdf-syntax-ns#"
   xmlns:svg="http://www.w3.org/2000/svg"
   xmlns="http://www.w3.org/2000/svg"
   id="svg29"
   height="95.75mm"
   width="95.75mm"
   version="1.0">
  <metadata
     id="metadata33">
    <rdf:RDF>
      <cc:Work
         rdf:about="">
        <dc:format>image/svg+xml</dc:format>
        <dc:type
           rdf:resource="http://purl.org/dc/dcmitype/StillImage" />
      </cc:Work>
    </rdf:RDF>
  </metadata>
  <defs
     id="defs3">
    <pattern
       y="0"
       x="0"
       height="6"
       width="6"
       patternUnits="userSpaceOnUse"
       id="EMFhbasepattern" />
  </defs>
  <path
     id="path5"
     d="  M 54.345381,54.345381   L 54.345381,307.53092   L 307.53092,307.53092   L 307.53092,54.345381   L 54.345381,54.345381   z "
     style="fill:#aaffaa;fill-rule:evenodd;fill-opacity:1;stroke:none;" />
  <path
     id="path7"
     d="  M 54.345381,54.345381   L 307.53092,54.345381   L 307.53092,307.53092   L 54.345381,307.53092   z "
     style="fill:none;stroke:#000000;stroke-width:9.5903616px;stroke-linecap:butt;stroke-linejoin:miter;stroke-miterlimit:10;stroke-dasharray:none;stroke-opacity:1;" />
  <path
     id="path9"
     d="  M 182.01707,212.58634   L 225.09377,245.63313   C 223.53534,247.71104 210.70823,252.94578 206.71225,254.58413   C 200.79819,256.98172 191.36767,258.5002 183.1759,258.5002   L 181.13795,258.5002   C 172.02711,258.5002 163.71546,256.94176 157.20201,254.50421   C 153.00622,252.94578 140.89839,247.91084 139.06024,245.43333   z  M 256.18253,155.68353   C 257.98072,162.99618 260.37831,167.7514 260.37831,177.18193   L 260.37831,184.29478   C 260.37831,196.44257 255.82289,208.1508 251.74698,216.30261   C 249.18955,221.45743 238.44036,237.32148 233.44538,238.68012   L 215.86305,186.57249   z  M 107.17229,155.32389   L 147.53172,186.41265   L 129.90944,238.52028   C 123.91546,234.36445 115.64377,222.53634 111.84759,214.98393   C 108.97048,209.18976 102.57691,190.44859 103.3761,181.17791   z  M 253.26546,148.251   L 203.4755,148.251   C 201.67731,148.251 195.44357,128.5508 194.40462,125.83353   C 192.88614,121.79759 187.01205,105.85361 186.73233,102.49699   C 202.11686,102.49699 219.33956,110.60883 228.29056,117.32209   C 236.40241,123.43594 250.74799,137.46185 253.26546,148.251   z  M 111.00843,148.251   C 111.92751,144.41486 119.12028,133.98534 121.59779,130.86847   C 125.79357,125.55381 130.86847,121.75763 136.06325,117.40201   C 142.9763,111.52791 163.95522,102.49699 176.54257,102.49699   L 160.59859,148.17108   z  M 187.73132,272.20642   C 211.02791,272.20642 238.2006,256.702 248.82992,243.8749   C 257.14156,233.88494 260.73795,229.88895 266.8518,217.18172   C 270.64799,209.22972 274.92369,191.96707 274.48413,180.33875   C 273.36526,152.68654 263.45522,131.06827 248.82992,116.60281   C 235.92289,103.85562 212.90602,88.271284 187.73132,88.271284   L 176.06305,88.271284   C 151.52771,88.271284 127.79156,104.3751 115.20422,116.88253   C 102.01747,129.9494 89.629918,154.5247 89.629918,180.73835   C 89.629918,209.46947 101.81767,228.88996 115.72369,244.15461   C 127.19217,256.74196 152.80642,272.20642 176.54257,272.20642   z "
     style="fill:#000000;fill-rule:evenodd;fill-opacity:1;stroke:none;" />
  <path
     id="path11"
     d="  M 129.90944,238.52028   L 147.53172,186.41265   L 107.17229,155.32389   L 103.3761,181.17791   C 102.57691,190.44859 108.97048,209.18976 111.84759,214.98393   C 115.64377,222.53634 123.91546,234.36445 129.90944,238.52028   z "
     style="fill:#000000;fill-rule:evenodd;fill-opacity:1;stroke:none;" />
  <path
     id="path13"
     d="  M 182.01707,212.58634   L 139.06024,245.43333   C 140.89839,247.91084 153.00622,252.94578 157.20201,254.50421   C 163.71546,256.94176 172.02711,258.5002 181.13795,258.5002   L 183.1759,258.5002   C 191.36767,258.5002 200.79819,256.98172 206.71225,254.58413   C 210.70823,252.94578 223.53534,247.71104 225.09377,245.63313   z "
     style="fill:#000000;fill-rule:evenodd;fill-opacity:1;stroke:none;" />
  <path
     id="path15"
     d="  M 215.86305,186.57249   L 233.44538,238.68012   C 238.44036,237.32148 249.18955,221.45743 251.74698,216.30261   C 255.82289,208.1508 260.37831,196.44257 260.37831,184.29478   L 260.37831,177.18193   C 260.37831,167.7514 257.98072,162.99618 256.18253,155.68353   z "
     style="fill:#000000;fill-rule:evenodd;fill-opacity:1;stroke:none;" />
  <path
     id="path17"
     d="  M 203.4755,148.251   L 253.26546,148.251   C 250.74799,137.46185 236.40241,123.43594 228.29056,117.32209   C 219.33956,110.60883 202.11686,102.49699 186.73233,102.49699   C 187.01205,105.85361 192.88614,121.79759 194.40462,125.83353   C 195.44357,128.5508 201.67731,148.251 203.4755,148.251   z "
     style="fill:#000000;fill-rule:evenodd;fill-opacity:1;stroke:none;" />
  <path
     id="path19"
     d="  M 160.59859,148.17108   L 176.54257,102.49699   C 163.95522,102.49699 142.9763,111.52791 136.06325,117.40201   C 130.86847,121.75763 125.79357,125.55381 121.59779,130.86847   C 119.12028,133.98534 111.92751,144.41486 111.00843,148.251   z "
     style="fill:#ffffff;fill-rule:evenodd;fill-opacity:1;stroke:none;" />
  <path
     id="path21"
     d="  M 194.40462,125.83353   C 195.44357,128.5508 201.67731,148.251 203.4755,148.251   L 253.26546,148.251   C 250.74799,137.46185 236.40241,123.43594 228.29056,117.32209   C 219.33956,110.60883 202.11686,102.49699 186.73233,102.49699   C 187.01205,105.85361 192.88614,121.79759 194.40462,125.83353   z "
     style="fill:#ffffff;fill-rule:evenodd;fill-opacity:1;stroke:none;" />
  <path
     id="path23"
     d="  M 256.18253,155.68353   L 215.86305,186.57249   L 233.44538,238.68012   C 238.44036,237.36144 249.18955,221.45743 251.74698,216.30261   C 255.82289,208.1508 260.37831,196.44257 260.37831,184.29478   L 260.37831,177.18193   C 260.37831,167.7514 257.98072,162.99618 256.18253,155.68353   z "
     style="fill:#ffffff;fill-rule:evenodd;fill-opacity:1;stroke:none;" />
  <path
     id="path25"
     d="  M 225.09377,245.63313   L 182.01707,212.58634   L 139.06024,245.43333   C 140.89839,247.91084 153.00622,252.94578 157.20201,254.50421   C 163.71546,256.94176 172.02711,258.5002 181.13795,258.5002   L 183.1759,258.5002   C 191.36767,258.5002 200.79819,256.98172 206.71225,254.58413   C 210.70823,252.94578 223.53534,247.71104 225.09377,245.63313   z "
     style="fill:#ffffff;fill-rule:evenodd;fill-opacity:1;stroke:none;" />
  <path
     id="path27"
     d="  M 129.90944,238.52028   L 147.53172,186.41265   L 107.17229,155.32389   L 103.3761,181.17791   C 102.57691,190.44859 108.97048,209.18976 111.84759,214.98393   C 115.64377,222.53634 123.91546,234.36445 129.90944,238.52028   z "
     style="fill:#ffffff;fill-rule:evenodd;fill-opacity:1;stroke:none;" />
</svg>
