<?xml version="1.0" encoding="UTF-8" standalone="no"?>
<svg
   xmlns:dc="http://purl.org/dc/elements/1.1/"
   xmlns:cc="http://creativecommons.org/ns#"
   xmlns:rdf="http://www.w3.org/1999/02/22-rdf-syntax-ns#"
   xmlns:svg="http://www.w3.org/2000/svg"
   xmlns="http://www.w3.org/2000/svg"
   id="svg31"
   height="89.669998mm"
   width="120.11mm"
   version="1.0">
  <metadata
     id="metadata35">
    <rdf:RDF>
      <cc:Work
         rdf:about="">
        <dc:format>image/svg+xml</dc:format>
        <dc:type
           rdf:resource="http://purl.org/dc/dcmitype/StillImage" />
      </cc:Work>
    </rdf:RDF>
  </metadata>
  <defs
     id="defs3">
    <pattern
       y="0"
       x="0"
       height="6"
       width="6"
       patternUnits="userSpaceOnUse"
       id="EMFhbasepattern" />
  </defs>
  <path
     id="path5"
     d="  M 179.02008,15.983936   L 179.02008,54.345381   L 274.92369,54.345381   L 274.92369,15.983936   L 179.02008,15.983936   z "
     style="fill:#000000;fill-rule:evenodd;fill-opacity:1;stroke:none;" />
  <path
     id="path7"
     d="  M 54.345381,54.345381   L 54.345381,284.51405   L 399.59839,284.51405   L 399.59839,54.345381   L 54.345381,54.345381   z "
     style="fill:#80e0ff;fill-rule:evenodd;fill-opacity:1;stroke:none;" />
  <path
     id="path9"
     d="  M 54.345381,54.345381   L 399.59839,54.345381   L 399.59839,284.51405   L 54.345381,284.51405   z "
     style="fill:none;stroke:#000000;stroke-width:9.5903616px;stroke-linecap:butt;stroke-linejoin:miter;stroke-miterlimit:10;stroke-dasharray:none;stroke-opacity:1;" />
  <path
     id="path11"
     d="  M 228.0508,201.07791   L 271.12751,234.1247   C 269.56907,236.20261 256.74196,241.43735 252.74598,243.0757   C 246.83192,245.47329 237.4014,246.99176 229.20964,246.99176   L 227.17168,246.99176   C 218.06084,246.99176 209.74919,245.43333 203.23574,242.99578   C 199.03996,241.43735 186.93213,236.40241 185.09397,233.9249   z  M 302.21626,144.1751   C 304.01445,151.48775 306.41204,156.24297 306.41204,165.67349   L 306.41204,172.78634   C 306.41204,184.93413 301.85662,196.64237 297.78072,204.79417   C 295.22329,209.94899 284.47409,225.81305 279.47911,227.17168   L 261.89678,175.06405   z  M 153.20602,143.81546   L 193.56546,174.90421   L 175.94317,227.01184   C 169.94919,222.85602 161.67751,211.02791 157.88132,203.4755   C 155.00421,197.68132 148.61064,178.94016 149.40984,169.66948   z  M 299.29919,136.74257   L 249.50923,136.74257   C 247.71104,136.74257 241.47731,117.04237 240.43835,114.3251   C 238.91988,110.28916 233.04578,94.345179 232.76606,90.988553   C 248.1506,90.988553 265.37329,99.1004 274.32429,105.81365   C 282.43614,111.92751 296.78172,125.95341 299.29919,136.74257   z  M 157.04217,136.74257   C 157.96124,132.90642 165.15401,122.47691 167.63152,119.36004   C 171.82731,114.04538 176.90221,110.2492 182.09699,105.89357   C 189.01004,100.01948 209.98895,90.988553 222.5763,90.988553   L 206.63233,136.66265   z  M 233.76506,260.69799   C 257.06164,260.69799 284.23433,245.19357 294.86365,232.36646   C 303.1753,222.3765 306.77168,218.38052 312.88554,205.67329   C 316.68172,197.72128 320.95743,180.45863 320.51787,168.83032   C 319.39899,141.17811 309.48895,119.55984 294.86365,105.09438   C 281.95662,92.347187 258.93976,76.76285 233.76506,76.76285   L 222.09678,76.76285   C 197.56144,76.76285 173.8253,92.866665 161.23795,105.37409   C 148.0512,118.44096 135.66365,143.01626 135.66365,169.22992   C 135.66365,197.96104 147.8514,217.38152 161.75743,232.64618   C 173.2259,245.23353 198.84016,260.69799 222.5763,260.69799   z "
     style="fill:#000000;fill-rule:evenodd;fill-opacity:1;stroke:none;" />
  <path
     id="path13"
     d="  M 175.94317,227.01184   L 193.56546,174.90421   L 153.20602,143.81546   L 149.40984,169.66948   C 148.61064,178.94016 155.00421,197.68132 157.88132,203.4755   C 161.67751,211.02791 169.94919,222.85602 175.94317,227.01184   z "
     style="fill:#000000;fill-rule:evenodd;fill-opacity:1;stroke:none;" />
  <path
     id="path15"
     d="  M 228.0508,201.07791   L 185.09397,233.9249   C 186.93213,236.40241 199.03996,241.43735 203.23574,242.99578   C 209.74919,245.43333 218.06084,246.99176 227.17168,246.99176   L 229.20964,246.99176   C 237.4014,246.99176 246.83192,245.47329 252.74598,243.0757   C 256.74196,241.43735 269.56907,236.20261 271.12751,234.1247   z "
     style="fill:#000000;fill-rule:evenodd;fill-opacity:1;stroke:none;" />
  <path
     id="path17"
     d="  M 261.89678,175.06405   L 279.47911,227.17168   C 284.47409,225.81305 295.22329,209.94899 297.78072,204.79417   C 301.85662,196.64237 306.41204,184.93413 306.41204,172.78634   L 306.41204,165.67349   C 306.41204,156.24297 304.01445,151.48775 302.21626,144.1751   z "
     style="fill:#000000;fill-rule:evenodd;fill-opacity:1;stroke:none;" />
  <path
     id="path19"
     d="  M 249.50923,136.74257   L 299.29919,136.74257   C 296.78172,125.95341 282.43614,111.92751 274.32429,105.81365   C 265.37329,99.1004 248.1506,90.988553 232.76606,90.988553   C 233.04578,94.345179 238.91988,110.28916 240.43835,114.3251   C 241.47731,117.04237 247.71104,136.74257 249.50923,136.74257   z "
     style="fill:#000000;fill-rule:evenodd;fill-opacity:1;stroke:none;" />
  <path
     id="path21"
     d="  M 206.63233,136.66265   L 222.5763,90.988553   C 209.98895,90.988553 189.01004,100.01948 182.09699,105.89357   C 176.90221,110.2492 171.82731,114.04538 167.63152,119.36004   C 165.15401,122.47691 157.96124,132.90642 157.04217,136.74257   z "
     style="fill:#ffffff;fill-rule:evenodd;fill-opacity:1;stroke:none;" />
  <path
     id="path23"
     d="  M 240.43835,114.3251   C 241.47731,117.04237 247.71104,136.74257 249.50923,136.74257   L 299.29919,136.74257   C 296.78172,125.95341 282.43614,111.92751 274.32429,105.81365   C 265.37329,99.1004 248.1506,90.988553 232.76606,90.988553   C 233.04578,94.345179 238.91988,110.28916 240.43835,114.3251   z "
     style="fill:#ffffff;fill-rule:evenodd;fill-opacity:1;stroke:none;" />
  <path
     id="path25"
     d="  M 302.21626,144.1751   L 261.89678,175.06405   L 279.47911,227.17168   C 284.47409,225.85301 295.22329,209.94899 297.78072,204.79417   C 301.85662,196.64237 306.41204,184.93413 306.41204,172.78634   L 306.41204,165.67349   C 306.41204,156.24297 304.01445,151.48775 302.21626,144.1751   z "
     style="fill:#ffffff;fill-rule:evenodd;fill-opacity:1;stroke:none;" />
  <path
     id="path27"
     d="  M 271.12751,234.1247   L 228.0508,201.07791   L 185.09397,233.9249   C 186.93213,236.40241 199.03996,241.43735 203.23574,242.99578   C 209.74919,245.43333 218.06084,246.99176 227.17168,246.99176   L 229.20964,246.99176   C 237.4014,246.99176 246.83192,245.47329 252.74598,243.0757   C 256.74196,241.43735 269.56907,236.20261 271.12751,234.1247   z "
     style="fill:#ffffff;fill-rule:evenodd;fill-opacity:1;stroke:none;" />
  <path
     id="path29"
     d="  M 175.94317,227.01184   L 193.56546,174.90421   L 153.20602,143.81546   L 149.40984,169.66948   C 148.61064,178.94016 155.00421,197.68132 157.88132,203.4755   C 161.67751,211.02791 169.94919,222.85602 175.94317,227.01184   z "
     style="fill:#ffffff;fill-rule:evenodd;fill-opacity:1;stroke:none;" />
</svg>
