<?xml version="1.0" encoding="UTF-8" standalone="no"?>
<svg
   xmlns:dc="http://purl.org/dc/elements/1.1/"
   xmlns:cc="http://creativecommons.org/ns#"
   xmlns:rdf="http://www.w3.org/1999/02/22-rdf-syntax-ns#"
   xmlns:svg="http://www.w3.org/2000/svg"
   xmlns="http://www.w3.org/2000/svg"
   id="svg29"
   height="116.73mm"
   width="116.73mm"
   version="1.0">
  <metadata
     id="metadata33">
    <rdf:RDF>
      <cc:Work
         rdf:about="">
        <dc:format>image/svg+xml</dc:format>
        <dc:type
           rdf:resource="http://purl.org/dc/dcmitype/StillImage" />
      </cc:Work>
    </rdf:RDF>
  </metadata>
  <defs
     id="defs3">
    <pattern
       y="0"
       x="0"
       height="6"
       width="6"
       patternUnits="userSpaceOnUse"
       id="EMFhbasepattern" />
  </defs>
  <path
     id="path5"
     d="  M 220.57831,386.49156   L 220.57831,386.49156   L 386.49156,220.57831   L 220.57831,54.665059   L 54.665059,220.57831   L 220.57831,386.49156   z "
     style="fill:#ff8080;fill-rule:evenodd;fill-opacity:1;stroke:none;" />
  <path
     id="path7"
     d="  M 220.57831,386.49156   L 220.57831,386.49156   L 386.49156,220.57831   L 220.57831,54.665059   L 54.665059,220.57831   L 220.57831,386.49156  "
     style="fill:none;stroke:#000000;stroke-width:9.5903616px;stroke-linecap:butt;stroke-linejoin:miter;stroke-miterlimit:10;stroke-dasharray:none;stroke-opacity:1;" />
  <path
     id="path9"
     d="  M 221.65723,252.2265   L 264.73393,285.27329   C 263.1755,287.3512 250.34839,292.58594 246.35241,294.22429   C 240.43835,296.62188 231.00783,298.14036 222.81606,298.14036   L 220.77811,298.14036   C 211.66727,298.14036 203.35562,296.58192 196.84217,294.14437   C 192.64638,292.58594 180.53855,287.551 178.7004,285.07349   z  M 295.82269,195.32369   C 297.62088,202.63634 300.01847,207.39156 300.01847,216.82209   L 300.01847,223.93494   C 300.01847,236.08273 295.46305,247.79096 291.38714,255.94277   C 288.82971,261.09759 278.08052,276.96164 273.08554,278.32028   L 255.50321,226.21265   z  M 146.81245,194.96405   L 187.17188,226.05281   L 169.5496,278.16044   C 163.55562,274.00461 155.28393,262.1765 151.48775,254.62409   C 148.61064,248.82992 142.21707,230.08875 143.01626,220.81807   z  M 292.90562,187.89116   L 243.11566,187.89116   C 241.31747,187.89116 235.08373,168.19096 234.04478,165.47369   C 232.5263,161.43775 226.65221,145.49377 226.37249,142.13715   C 241.75702,142.13715 258.97972,150.24899 267.93072,156.96225   C 276.04257,163.0761 290.38815,177.10201 292.90562,187.89116   z  M 150.64859,187.89116   C 151.56767,184.05502 158.76044,173.6255 161.23795,170.50863   C 165.43373,165.19397 170.50863,161.39779 175.70341,157.04217   C 182.61646,151.16807 203.59538,142.13715 216.18273,142.13715   L 200.23875,187.81124   z  M 227.37148,311.84658   C 250.66807,311.84658 277.84076,296.34216 288.47008,283.51506   C 296.78172,273.5251 300.37811,269.52911 306.49196,256.82188   C 310.28815,248.86988 314.56385,231.60723 314.12429,219.97891   C 313.00542,192.3267 303.09538,170.70843 288.47008,156.24297   C 275.56305,143.49578 252.54618,127.91144 227.37148,127.91144   L 215.70321,127.91144   C 191.16787,127.91144 167.43172,144.01526 154.84438,156.52269   C 141.65763,169.58956 129.27008,194.16486 129.27008,220.37851   C 129.27008,249.10963 141.45783,268.53012 155.36385,283.79478   C 166.83233,296.38212 192.44658,311.84658 216.18273,311.84658   z "
     style="fill:#000000;fill-rule:evenodd;fill-opacity:1;stroke:none;" />
  <path
     id="path11"
     d="  M 169.5496,278.16044   L 187.17188,226.05281   L 146.81245,194.96405   L 143.01626,220.81807   C 142.21707,230.08875 148.61064,248.82992 151.48775,254.62409   C 155.28393,262.1765 163.55562,274.00461 169.5496,278.16044   z "
     style="fill:#000000;fill-rule:evenodd;fill-opacity:1;stroke:none;" />
  <path
     id="path13"
     d="  M 221.65723,252.2265   L 178.7004,285.07349   C 180.53855,287.551 192.64638,292.58594 196.84217,294.14437   C 203.35562,296.58192 211.66727,298.14036 220.77811,298.14036   L 222.81606,298.14036   C 231.00783,298.14036 240.43835,296.62188 246.35241,294.22429   C 250.34839,292.58594 263.1755,287.3512 264.73393,285.27329   z "
     style="fill:#000000;fill-rule:evenodd;fill-opacity:1;stroke:none;" />
  <path
     id="path15"
     d="  M 255.50321,226.21265   L 273.08554,278.32028   C 278.08052,276.96164 288.82971,261.09759 291.38714,255.94277   C 295.46305,247.79096 300.01847,236.08273 300.01847,223.93494   L 300.01847,216.82209   C 300.01847,207.39156 297.62088,202.63634 295.82269,195.32369   z "
     style="fill:#000000;fill-rule:evenodd;fill-opacity:1;stroke:none;" />
  <path
     id="path17"
     d="  M 243.11566,187.89116   L 292.90562,187.89116   C 290.38815,177.10201 276.04257,163.0761 267.93072,156.96225   C 258.97972,150.24899 241.75702,142.13715 226.37249,142.13715   C 226.65221,145.49377 232.5263,161.43775 234.04478,165.47369   C 235.08373,168.19096 241.31747,187.89116 243.11566,187.89116   z "
     style="fill:#000000;fill-rule:evenodd;fill-opacity:1;stroke:none;" />
  <path
     id="path19"
     d="  M 200.23875,187.81124   L 216.18273,142.13715   C 203.59538,142.13715 182.61646,151.16807 175.70341,157.04217   C 170.50863,161.39779 165.43373,165.19397 161.23795,170.50863   C 158.76044,173.6255 151.56767,184.05502 150.64859,187.89116   z "
     style="fill:#ffffff;fill-rule:evenodd;fill-opacity:1;stroke:none;" />
  <path
     id="path21"
     d="  M 234.04478,165.47369   C 235.08373,168.19096 241.31747,187.89116 243.11566,187.89116   L 292.90562,187.89116   C 290.38815,177.10201 276.04257,163.0761 267.93072,156.96225   C 258.97972,150.24899 241.75702,142.13715 226.37249,142.13715   C 226.65221,145.49377 232.5263,161.43775 234.04478,165.47369   z "
     style="fill:#ffffff;fill-rule:evenodd;fill-opacity:1;stroke:none;" />
  <path
     id="path23"
     d="  M 295.82269,195.32369   L 255.50321,226.21265   L 273.08554,278.32028   C 278.08052,277.0016 288.82971,261.09759 291.38714,255.94277   C 295.46305,247.79096 300.01847,236.08273 300.01847,223.93494   L 300.01847,216.82209   C 300.01847,207.39156 297.62088,202.63634 295.82269,195.32369   z "
     style="fill:#ffffff;fill-rule:evenodd;fill-opacity:1;stroke:none;" />
  <path
     id="path25"
     d="  M 264.73393,285.27329   L 221.65723,252.2265   L 178.7004,285.07349   C 180.53855,287.551 192.64638,292.58594 196.84217,294.14437   C 203.35562,296.58192 211.66727,298.14036 220.77811,298.14036   L 222.81606,298.14036   C 231.00783,298.14036 240.43835,296.62188 246.35241,294.22429   C 250.34839,292.58594 263.1755,287.3512 264.73393,285.27329   z "
     style="fill:#ffffff;fill-rule:evenodd;fill-opacity:1;stroke:none;" />
  <path
     id="path27"
     d="  M 169.5496,278.16044   L 187.17188,226.05281   L 146.81245,194.96405   L 143.01626,220.81807   C 142.21707,230.08875 148.61064,248.82992 151.48775,254.62409   C 155.28393,262.1765 163.55562,274.00461 169.5496,278.16044   z "
     style="fill:#ffffff;fill-rule:evenodd;fill-opacity:1;stroke:none;" />
</svg>
