<?xml version="1.0" encoding="UTF-8" standalone="no"?>
<svg
   xmlns:dc="http://purl.org/dc/elements/1.1/"
   xmlns:cc="http://creativecommons.org/ns#"
   xmlns:rdf="http://www.w3.org/1999/02/22-rdf-syntax-ns#"
   xmlns:svg="http://www.w3.org/2000/svg"
   xmlns="http://www.w3.org/2000/svg"
   id="svg17"
   height="112.9mm"
   width="112.9mm"
   version="1.0">
  <metadata
     id="metadata21">
    <rdf:RDF>
      <cc:Work
         rdf:about="">
        <dc:format>image/svg+xml</dc:format>
        <dc:type
           rdf:resource="http://purl.org/dc/dcmitype/StillImage" />
      </cc:Work>
    </rdf:RDF>
  </metadata>
  <defs
     id="defs3">
    <pattern
       y="0"
       x="0"
       height="6"
       width="6"
       patternUnits="userSpaceOnUse"
       id="EMFhbasepattern" />
  </defs>
  <path
     id="path5"
     d="  M 173.38833,172.81395   L 589.10436,172.81395  "
     style="fill:none;stroke:#ff0000;stroke-width:10.612902px;stroke-linecap:butt;stroke-linejoin:miter;stroke-miterlimit:28;stroke-dasharray:none;stroke-opacity:1;" />
  <path
     id="path7"
     d="  M 173.38833,386.01619   L 589.10436,386.01619  "
     style="fill:none;stroke:#ff0000;stroke-width:10.612902px;stroke-linecap:butt;stroke-linejoin:miter;stroke-miterlimit:28;stroke-dasharray:none;stroke-opacity:1;" />
  <path
     id="path9"
     d="  M 274.64523,271.95583   L 274.64523,314.59627   L 381.22746,378.53806   L 487.84746,314.59627   L 487.84746,271.95583   L 381.22746,335.89761   z "
     style="fill:#ff0000;fill-rule:nonzero;fill-opacity:1;stroke:none;" />
  <path
     id="path11"
     d="  M 333.41275,263.42018   L 316.64361,263.42018   L 309.99639,246.08452   L 279.47957,246.08452   L 273.21003,263.42018   L 256.85634,263.42018   L 286.58002,187.12815   L 302.85817,187.12815   L 333.41275,263.42018   z  M 305.04873,233.24329   L 294.54914,204.91704   L 284.23838,233.24329   L 305.04873,233.24329   z "
     style="fill:#ff0000;fill-rule:nonzero;fill-opacity:1;stroke:none;" />
  <path
     id="path13"
     d="  M 337.71834,238.60639   L 352.71237,237.13343   C 353.61881,242.19438 355.46946,245.85791 358.22655,248.23731   C 360.98363,250.57895 364.68493,251.78754 369.3682,251.78754   C 374.35362,251.78754 378.09269,250.73002 380.5854,248.615   C 383.11588,246.53774 384.36223,244.0828 384.36223,241.25017   C 384.36223,239.43729 383.83347,237.92656 382.77596,236.64244   C 381.71845,235.39608 379.8678,234.3008 377.22402,233.35659   C 375.44891,232.71453 371.33216,231.61925 364.91154,230.03298   C 356.64028,227.95572 350.86172,225.46301 347.50034,222.47931   C 342.81707,218.28703 340.47543,213.15053 340.47543,207.1076   C 340.47543,203.21746 341.60848,199.5917 343.79904,196.19255   C 345.98961,192.83117 349.16215,190.26292 353.31666,188.48781   C 357.47118,186.7127 362.4566,185.84403 368.34846,185.84403   C 377.90385,185.84403 385.1176,187.92129 389.95194,192.11357   C 394.78629,196.30586 397.35454,201.93334 397.58115,208.92048   L 382.17167,209.60031   C 381.52961,205.71017 380.09441,202.87755 377.94162,201.1402   C 375.78882,199.44063 372.50298,198.57196 368.19739,198.57196   C 363.70295,198.57196 360.1905,199.51617 357.66002,201.32905   C 356.03598,202.49986 355.20508,204.08613 355.20508,206.08786   C 355.20508,207.86297 355.99821,209.41147 357.50895,210.69559   C 359.4729,212.31963 364.15617,214.01921 371.67207,215.79432   C 379.1502,217.56943 384.70215,219.42008 388.29014,221.30849   C 391.87813,223.19691 394.71075,225.76516 396.71248,229.051   C 398.75197,232.33685 399.77171,236.37806 399.77171,241.2124   C 399.77171,245.59353 398.56312,249.67251 396.14595,253.48711   C 393.69101,257.30171 390.25409,260.13434 385.8352,261.98499   C 381.37853,263.83564 375.86436,264.77984 369.21713,264.77984   C 359.58621,264.77984 352.18361,262.55151 347.00935,258.09485   C 341.83509,253.63819 338.73809,247.14203 337.71834,238.60639   L 337.71834,238.60639   z "
     style="fill:#ff0000;fill-rule:nonzero;fill-opacity:1;stroke:none;" />
  <path
     id="path15"
     d="  M 423.67907,263.42018   L 405.43696,187.12815   L 421.22412,187.12815   L 432.7057,239.5506   L 446.67998,187.12815   L 464.99762,187.12815   L 478.36761,240.41927   L 490.07579,187.12815   L 505.59858,187.12815   L 487.05433,263.42018   L 470.70064,263.42018   L 455.51777,206.39   L 440.37267,263.42018   L 423.67907,263.42018   z "
     style="fill:#ff0000;fill-rule:nonzero;fill-opacity:1;stroke:none;" />
</svg>
