<?xml version="1.0" encoding="UTF-8" standalone="no"?>
<svg
   xmlns:dc="http://purl.org/dc/elements/1.1/"
   xmlns:cc="http://creativecommons.org/ns#"
   xmlns:rdf="http://www.w3.org/1999/02/22-rdf-syntax-ns#"
   xmlns:svg="http://www.w3.org/2000/svg"
   xmlns="http://www.w3.org/2000/svg"
   id="svg17"
   height="112.9mm"
   width="112.9mm"
   version="1.0">
  <metadata
     id="metadata21">
    <rdf:RDF>
      <cc:Work
         rdf:about="">
        <dc:format>image/svg+xml</dc:format>
        <dc:type
           rdf:resource="http://purl.org/dc/dcmitype/StillImage" />
      </cc:Work>
    </rdf:RDF>
  </metadata>
  <defs
     id="defs3">
    <pattern
       y="0"
       x="0"
       height="6"
       width="6"
       patternUnits="userSpaceOnUse"
       id="EMFhbasepattern" />
  </defs>
  <path
     id="path5"
     d="  M 1816.8403,1817.3195   L 2232.4953,1817.3195  "
     style="fill:none;stroke:#ff0000;stroke-width:10.649107px;stroke-linecap:butt;stroke-linejoin:miter;stroke-miterlimit:282;stroke-dasharray:none;stroke-opacity:1;" />
  <path
     id="path7"
     d="  M 1816.8403,2030.4905   L 2232.4953,2030.4905  "
     style="fill:none;stroke:#ff0000;stroke-width:10.649107px;stroke-linecap:butt;stroke-linejoin:miter;stroke-miterlimit:282;stroke-dasharray:none;stroke-opacity:1;" />
  <path
     id="path9"
     d="  M 1918.0823,1916.4469   L 1918.0823,1959.0811   L 2024.6489,2023.0135   L 2131.2533,1959.0811   L 2131.2533,1916.4469   L 2024.6489,1980.3793   z "
     style="fill:#ff0000;fill-rule:nonzero;fill-opacity:1;stroke:none;" />
  <path
     id="path11"
     d="  M 1904.1479,1883.1023   L 1919.1397,1881.6296   C 1920.046,1886.6898 1921.8586,1890.3528 1924.6153,1892.7318   C 1927.372,1895.0731 1931.1105,1896.2815 1935.7931,1896.2815   C 1940.74,1896.2815 1944.4785,1895.2242 1947.0086,1893.1095   C 1949.501,1891.0325 1950.7849,1888.5779 1950.7849,1885.7457   C 1950.7849,1883.9331 1950.2562,1882.4226 1949.1989,1881.1387   C 1948.1415,1879.8925 1946.2911,1878.7974 1943.6477,1877.8533   C 1941.8351,1877.2113 1937.719,1876.1162 1931.2993,1874.5302   C 1923.067,1872.4532 1917.2516,1869.9609 1913.9284,1866.9776   C 1909.2458,1862.7859 1906.9046,1857.6502 1906.9046,1851.6082   C 1906.9046,1847.7186 1907.9997,1844.0934 1910.1899,1840.6947   C 1912.4179,1837.3338 1915.59,1834.766 1919.7439,1832.9911   C 1923.86,1831.2163 1928.8825,1830.3477 1934.7357,1830.3477   C 1944.3275,1830.3477 1951.5402,1832.4247 1956.3738,1836.6163   C 1961.2074,1840.808 1963.7376,1846.4347 1964.0019,1853.4208   L 1948.5947,1854.1005   C 1947.9149,1850.2109 1946.5177,1847.3787 1944.3275,1845.6416   C 1942.175,1843.9423 1938.9274,1843.0738 1934.5847,1843.0738   C 1930.1287,1843.0738 1926.6167,1844.0178 1924.0866,1845.8305   C 1922.4628,1847.0011 1921.632,1848.5871 1921.632,1850.5886   C 1921.632,1852.3634 1922.3873,1853.9117 1923.9356,1855.1956   C 1925.8615,1856.8194 1930.5818,1858.5187 1938.0589,1860.2936   C 1945.5737,1862.0685 1951.1248,1863.9188 1954.7122,1865.807   C 1958.2997,1867.6951 1961.0942,1870.263 1963.1333,1873.5483   C 1965.1725,1876.8337 1966.1921,1880.8743 1966.1921,1885.708   C 1966.1921,1890.0884 1964.946,1894.1668 1962.5291,1897.9809   C 1960.1123,1901.7949 1956.6759,1904.6271 1952.2199,1906.4775   C 1947.8017,1908.3279 1942.2505,1909.2719 1935.642,1909.2719   C 1925.9748,1909.2719 1918.5733,1907.0439 1913.3998,1902.5879   C 1908.2263,1898.1319 1905.1675,1891.6367 1904.1479,1883.1023   z "
     style="fill:#ff0000;fill-rule:nonzero;fill-opacity:1;stroke:none;" />
  <path
     id="path13"
     d="  M 1979.1448,1831.6316   L 1994.552,1831.6316   L 1994.552,1872.9441   C 1994.552,1879.5149 1994.7408,1883.7443 1995.1184,1885.708   C 1995.7604,1888.8045 1997.3464,1891.3346 1999.801,1893.2228   C 2002.2934,1895.1109 2005.692,1896.055 2009.997,1896.055   C 2014.3775,1896.055 2017.6628,1895.1487 2019.8908,1893.3738   C 2022.0811,1891.599 2023.4405,1889.4087 2023.8937,1886.8031   C 2024.3468,1884.1974 2024.5734,1879.8547 2024.5734,1873.8504   L 2024.5734,1831.6316   L 2039.9806,1831.6316   L 2039.9806,1871.698   C 2039.9806,1880.8743 2039.5652,1887.3318 2038.7345,1891.108   C 2037.8659,1894.8843 2036.3554,1898.0942 2034.1274,1900.6998   C 2031.8616,1903.3054 2028.8784,1905.3446 2025.1398,1906.8929   C 2021.4013,1908.4412 2016.4922,1909.2342 2010.4501,1909.2342   C 2003.1619,1909.2342 1997.6485,1908.3656 1993.8723,1906.7041   C 1990.1337,1905.0047 1987.1505,1902.8145 1984.9602,1900.1333   C 1982.77,1897.4522 1981.335,1894.62 1980.6553,1891.6745   C 1979.6357,1887.3318 1979.1448,1880.8743 1979.1448,1872.3399   z "
     style="fill:#ff0000;fill-rule:nonzero;fill-opacity:1;stroke:none;" />
  <path
     id="path15"
     d="  M 2067.0943,1907.9125   L 2048.8549,1831.6316   L 2064.6397,1831.6316   L 2076.1196,1884.0464   L 2090.0918,1831.6316   L 2108.4068,1831.6316   L 2121.7748,1884.9149   L 2133.4813,1831.6316   L 2149.0018,1831.6316   L 2130.4603,1907.9125   L 2114.109,1907.9125   L 2098.9283,1850.8907   L 2083.7855,1907.9125   z "
     style="fill:#ff0000;fill-rule:nonzero;fill-opacity:1;stroke:none;" />
</svg>
