<?xml version="1.0" encoding="UTF-8" standalone="no"?>
<svg
   xmlns:dc="http://purl.org/dc/elements/1.1/"
   xmlns:cc="http://creativecommons.org/ns#"
   xmlns:rdf="http://www.w3.org/1999/02/22-rdf-syntax-ns#"
   xmlns:svg="http://www.w3.org/2000/svg"
   xmlns="http://www.w3.org/2000/svg"
   id="svg17"
   height="112.9mm"
   width="112.9mm"
   version="1.0">
  <metadata
     id="metadata21">
    <rdf:RDF>
      <cc:Work
         rdf:about="">
        <dc:format>image/svg+xml</dc:format>
        <dc:type
           rdf:resource="http://purl.org/dc/dcmitype/StillImage" />
      </cc:Work>
    </rdf:RDF>
  </metadata>
  <defs
     id="defs3">
    <pattern
       y="0"
       x="0"
       height="6"
       width="6"
       patternUnits="userSpaceOnUse"
       id="EMFhbasepattern" />
  </defs>
  <path
     id="path5"
     d="  M 695.7915,695.2261   L 1111.5444,695.2261  "
     style="fill:none;stroke:#000000;stroke-width:10.651613px;stroke-linecap:butt;stroke-linejoin:miter;stroke-miterlimit:112;stroke-dasharray:none;stroke-opacity:1;" />
  <path
     id="path7"
     d="  M 695.7915,908.44722   L 1111.5444,908.44722  "
     style="fill:none;stroke:#000000;stroke-width:10.651613px;stroke-linecap:butt;stroke-linejoin:miter;stroke-miterlimit:112;stroke-dasharray:none;stroke-opacity:1;" />
  <path
     id="path9"
     d="  M 797.05737,794.37675   L 797.05737,837.02098   L 903.64904,900.96843   L 1010.2785,837.02098   L 1010.2785,794.37675   L 903.64904,858.3242   z "
     style="fill:#000000;fill-rule:nonzero;fill-opacity:1;stroke:none;" />
  <path
     id="path11"
     d="  M 792.90248,785.84035   L 792.90248,709.54156   L 825.31058,709.54156   C 833.46927,709.54156 839.39942,710.22145 843.10104,711.58123   C 846.80267,712.97879 849.74886,715.39617 851.97739,718.90894   C 854.20592,722.42171 855.3013,726.4255 855.3013,730.92033   C 855.3013,736.66163 853.63934,741.38309 850.27766,745.12248   C 846.87821,748.86188 841.85458,751.20372 835.16899,752.18579   C 838.4929,754.11214 841.25023,756.26513 843.40322,758.5692   C 845.59397,760.91105 848.50239,765.02816 852.20402,770.95831   L 861.49585,785.84035   L 843.06327,785.84035   L 831.9584,769.25859   C 827.99237,763.32843 825.27281,759.58904 823.83749,758.0404   C 822.36439,756.49176 820.81575,755.43415 819.19157,754.86758   C 817.56739,754.26323 814.96114,753.99883 811.44838,753.99883   L 808.31333,753.99883   L 808.31333,785.84035   L 792.90248,785.84035   z  M 808.31333,741.79858   L 819.72037,741.79858   C 827.08585,741.79858 831.73177,741.4964 833.54481,740.89206   C 835.39562,740.24994 836.83095,739.19233 837.88855,737.64369   C 838.90839,736.13282 839.43719,734.20647 839.43719,731.94017   C 839.43719,729.37169 838.7573,727.29425 837.39752,725.70784   C 835.99997,724.12143 834.07361,723.13937 831.58068,722.72388   C 830.33422,722.53502 826.59482,722.45948 820.32472,722.45948   L 808.31333,722.45948   L 808.31333,741.79858   z "
     style="fill:#000000;fill-rule:nonzero;fill-opacity:1;stroke:none;" />
  <path
     id="path13"
     d="  M 869.69231,785.84035   L 869.69231,709.54156   L 892.73303,709.54156   L 906.59523,761.59094   L 920.26858,709.54156   L 943.38485,709.54156   L 943.38485,785.84035   L 929.06938,785.84035   L 929.06938,725.78338   L 913.92294,785.84035   L 899.07867,785.84035   L 884.00777,725.78338   L 884.00777,785.84035   L 869.69231,785.84035   z "
     style="fill:#000000;fill-rule:nonzero;fill-opacity:1;stroke:none;" />
  <path
     id="path15"
     d="  M 978.24811,785.84035   L 950.97696,709.54156   L 967.67204,709.54156   L 987.01114,766.01022   L 1005.6703,709.54156   L 1022.0255,709.54156   L 994.71656,785.84035   L 978.24811,785.84035   z "
     style="fill:#000000;fill-rule:nonzero;fill-opacity:1;stroke:none;" />
</svg>
