<?xml version="1.0" encoding="UTF-8" standalone="no"?>
<svg
   xmlns:dc="http://purl.org/dc/elements/1.1/"
   xmlns:cc="http://creativecommons.org/ns#"
   xmlns:rdf="http://www.w3.org/1999/02/22-rdf-syntax-ns#"
   xmlns:svg="http://www.w3.org/2000/svg"
   xmlns="http://www.w3.org/2000/svg"
   id="svg17"
   height="112.9mm"
   width="112.9mm"
   version="1.0">
  <metadata
     id="metadata21">
    <rdf:RDF>
      <cc:Work
         rdf:about="">
        <dc:format>image/svg+xml</dc:format>
        <dc:type
           rdf:resource="http://purl.org/dc/dcmitype/StillImage" />
      </cc:Work>
    </rdf:RDF>
  </metadata>
  <defs
     id="defs3">
    <pattern
       y="0"
       x="0"
       height="6"
       width="6"
       patternUnits="userSpaceOnUse"
       id="EMFhbasepattern" />
  </defs>
  <path
     id="path5"
     d="  M 173.38833,172.81395   L 589.10436,172.81395  "
     style="fill:none;stroke:#ff0000;stroke-width:10.612902px;stroke-linecap:butt;stroke-linejoin:miter;stroke-miterlimit:28;stroke-dasharray:none;stroke-opacity:1;" />
  <path
     id="path7"
     d="  M 173.38833,386.01619   L 589.10436,386.01619  "
     style="fill:none;stroke:#ff0000;stroke-width:10.612902px;stroke-linecap:butt;stroke-linejoin:miter;stroke-miterlimit:28;stroke-dasharray:none;stroke-opacity:1;" />
  <path
     id="path9"
     d="  M 274.64523,271.95583   L 274.64523,314.59627   L 381.22746,378.53806   L 487.84746,314.59627   L 487.84746,271.95583   L 381.22746,335.89761   z "
     style="fill:#ff0000;fill-rule:nonzero;fill-opacity:1;stroke:none;" />
  <path
     id="path11"
     d="  M 270.49071,263.42018   L 270.49071,187.12815   L 302.89594,187.12815   C 311.0539,187.12815 316.98353,187.80798 320.68482,189.16764   C 324.38612,190.56507 327.33205,192.98224 329.56038,196.4947   C 331.78871,200.00715 332.88399,204.0106 332.88399,208.50503   C 332.88399,214.24582 331.22219,218.96686 327.86081,222.70592   C 324.46166,226.44499 319.43847,228.78662 312.75347,229.7686   C 316.07709,231.69479 318.83417,233.84758 320.98697,236.15145   C 323.17753,238.49308 326.08569,242.60983 329.78699,248.53946   L 339.078,263.42018   L 320.64705,263.42018   L 309.54317,246.83989   C 305.57749,240.91026 302.85817,237.17119 301.42297,235.62269   C 299.95001,234.07419 298.40151,233.01668 296.77747,232.45015   C 295.15343,231.84586 292.54742,231.58148 289.03496,231.58148   L 285.90019,231.58148   L 285.90019,263.42018   L 270.49071,263.42018   z  M 285.90019,219.38231   L 297.30623,219.38231   C 304.67105,219.38231 309.31656,219.08016 311.12944,218.47587   C 312.98008,217.83381 314.41528,216.77629 315.47279,215.22779   C 316.49254,213.71706 317.0213,211.79087 317.0213,209.52477   C 317.0213,206.95653 316.34147,204.87927 314.98181,203.293   C 313.58438,201.70673 311.65819,200.72475 309.16548,200.3093   C 307.91913,200.12046 304.18006,200.04492 297.91052,200.04492   L 285.90019,200.04492   L 285.90019,219.38231   z "
     style="fill:#ff0000;fill-rule:nonzero;fill-opacity:1;stroke:none;" />
  <path
     id="path13"
     d="  M 347.27373,263.42018   L 347.27373,187.12815   L 370.31241,187.12815   L 384.17339,239.17291   L 397.84553,187.12815   L 420.95975,187.12815   L 420.95975,263.42018   L 406.64555,263.42018   L 406.64555,203.36854   L 391.50045,263.42018   L 376.65749,263.42018   L 361.58793,203.36854   L 361.58793,263.42018   L 347.27373,263.42018   z "
     style="fill:#ff0000;fill-rule:nonzero;fill-opacity:1;stroke:none;" />
  <path
     id="path15"
     d="  M 455.81992,263.42018   L 428.55118,187.12815   L 445.24478,187.12815   L 464.58217,243.59181   L 483.23973,187.12815   L 499.59341,187.12815   L 472.28691,263.42018   L 455.81992,263.42018   z "
     style="fill:#ff0000;fill-rule:nonzero;fill-opacity:1;stroke:none;" />
</svg>
