<?xml version="1.0" encoding="UTF-8" standalone="no"?>
<svg
   xmlns:dc="http://purl.org/dc/elements/1.1/"
   xmlns:cc="http://creativecommons.org/ns#"
   xmlns:rdf="http://www.w3.org/1999/02/22-rdf-syntax-ns#"
   xmlns:svg="http://www.w3.org/2000/svg"
   xmlns="http://www.w3.org/2000/svg"
   id="svg17"
   height="112.9mm"
   width="112.9mm"
   version="1.0">
  <metadata
     id="metadata21">
    <rdf:RDF>
      <cc:Work
         rdf:about="">
        <dc:format>image/svg+xml</dc:format>
        <dc:type
           rdf:resource="http://purl.org/dc/dcmitype/StillImage" />
      </cc:Work>
    </rdf:RDF>
  </metadata>
  <defs
     id="defs3">
    <pattern
       y="0"
       x="0"
       height="6"
       width="6"
       patternUnits="userSpaceOnUse"
       id="EMFhbasepattern" />
  </defs>
  <path
     id="path5"
     d="  M 695.7915,695.2261   L 1111.5444,695.2261  "
     style="fill:none;stroke:#000000;stroke-width:10.651613px;stroke-linecap:butt;stroke-linejoin:miter;stroke-miterlimit:112;stroke-dasharray:none;stroke-opacity:1;" />
  <path
     id="path7"
     d="  M 695.7915,908.44722   L 1111.5444,908.44722  "
     style="fill:none;stroke:#000000;stroke-width:10.651613px;stroke-linecap:butt;stroke-linejoin:miter;stroke-miterlimit:112;stroke-dasharray:none;stroke-opacity:1;" />
  <path
     id="path9"
     d="  M 797.05737,794.37675   L 797.05737,837.02098   L 903.64904,900.96843   L 1010.2785,837.02098   L 1010.2785,794.37675   L 903.64904,858.3242   z "
     style="fill:#000000;fill-rule:nonzero;fill-opacity:1;stroke:none;" />
  <path
     id="path11"
     d="  M 801.70328,785.84035   L 801.70328,709.54156   L 824.74401,709.54156   L 838.60621,761.59094   L 852.27956,709.54156   L 875.39583,709.54156   L 875.39583,785.84035   L 861.08036,785.84035   L 861.08036,725.78338   L 845.93392,785.84035   L 831.08965,785.84035   L 816.01875,725.78338   L 816.01875,785.84035   L 801.70328,785.84035   z "
     style="fill:#000000;fill-rule:nonzero;fill-opacity:1;stroke:none;" />
  <path
     id="path13"
     d="  M 890.35341,785.84035   L 890.35341,709.54156   L 905.76426,709.54156   L 905.76426,785.84035   L 890.35341,785.84035   z "
     style="fill:#000000;fill-rule:nonzero;fill-opacity:1;stroke:none;" />
  <path
     id="path15"
     d="  M 931.1846,785.84035   L 912.97865,709.54156   L 928.76721,709.54156   L 940.2498,761.96865   L 954.22532,709.54156   L 972.54459,709.54156   L 985.91576,762.8374   L 997.62498,709.54156   L 1013.1114,709.54156   L 994.60325,785.84035   L 978.24811,785.84035   L 963.06389,728.80512   L 947.91745,785.84035   L 931.1846,785.84035   z "
     style="fill:#000000;fill-rule:nonzero;fill-opacity:1;stroke:none;" />
</svg>
