<?xml version="1.0" encoding="UTF-8" standalone="no"?>
<svg
   xmlns:dc="http://purl.org/dc/elements/1.1/"
   xmlns:cc="http://creativecommons.org/ns#"
   xmlns:rdf="http://www.w3.org/1999/02/22-rdf-syntax-ns#"
   xmlns:svg="http://www.w3.org/2000/svg"
   xmlns="http://www.w3.org/2000/svg"
   id="svg17"
   height="112.9mm"
   width="112.9mm"
   version="1.0">
  <metadata
     id="metadata21">
    <rdf:RDF>
      <cc:Work
         rdf:about="">
        <dc:format>image/svg+xml</dc:format>
        <dc:type
           rdf:resource="http://purl.org/dc/dcmitype/StillImage" />
      </cc:Work>
    </rdf:RDF>
  </metadata>
  <defs
     id="defs3">
    <pattern
       y="0"
       x="0"
       height="6"
       width="6"
       patternUnits="userSpaceOnUse"
       id="EMFhbasepattern" />
  </defs>
  <path
     id="path5"
     d="  M 1816.8403,1817.3195   L 2232.4953,1817.3195  "
     style="fill:none;stroke:#ffff00;stroke-width:10.649107px;stroke-linecap:butt;stroke-linejoin:miter;stroke-miterlimit:282;stroke-dasharray:none;stroke-opacity:1;" />
  <path
     id="path7"
     d="  M 1816.8403,2030.4905   L 2232.4953,2030.4905  "
     style="fill:none;stroke:#ffff00;stroke-width:10.649107px;stroke-linecap:butt;stroke-linejoin:miter;stroke-miterlimit:282;stroke-dasharray:none;stroke-opacity:1;" />
  <path
     id="path9"
     d="  M 1918.0823,1916.4469   L 1918.0823,1959.0811   L 2024.6489,2023.0135   L 2131.2533,1959.0811   L 2131.2533,1916.4469   L 2024.6489,1980.3793   z "
     style="fill:#ffff00;fill-rule:nonzero;fill-opacity:1;stroke:none;" />
  <path
     id="path11"
     d="  M 1976.8412,1907.9125   L 1960.0746,1907.9125   L 1953.4283,1890.5794   L 1922.916,1890.5794   L 1916.6474,1907.9125   L 1900.2961,1907.9125   L 1930.0154,1831.6316   L 1946.2911,1831.6316   z  M 1948.4814,1877.74   L 1937.9833,1849.4179   L 1927.6741,1877.74   z "
     style="fill:#ffff00;fill-rule:nonzero;fill-opacity:1;stroke:none;" />
  <path
     id="path13"
     d="  M 1981.1462,1883.1023   L 1996.138,1881.6296   C 1997.0443,1886.6898 1998.8947,1890.3528 2001.6514,1892.7318   C 2004.4081,1895.0731 2008.1088,1896.2815 2012.7914,1896.2815   C 2017.7761,1896.2815 2021.5146,1895.2242 2024.007,1893.1095   C 2026.5371,1891.0325 2027.7832,1888.5779 2027.7832,1885.7457   C 2027.7832,1883.9331 2027.2546,1882.4226 2026.1972,1881.1387   C 2025.1398,1879.8925 2023.2895,1878.7974 2020.6461,1877.8533   C 2018.8712,1877.2113 2014.7551,1876.1162 2008.3354,1874.5302   C 2000.0654,1872.4532 1994.2877,1869.9609 1990.9268,1866.9776   C 1986.2442,1862.7859 1983.9029,1857.6502 1983.9029,1851.6082   C 1983.9029,1847.7186 1985.0358,1844.0934 1987.226,1840.6947   C 1989.4163,1837.3338 1992.5883,1834.766 1996.7422,1832.9911   C 2000.8961,1831.2163 2005.8808,1830.3477 2011.7718,1830.3477   C 2021.3258,1830.3477 2028.5385,1832.4247 2033.3721,1836.6163   C 2038.2058,1840.808 2040.7736,1846.4347 2041.0002,1853.4208   L 2025.593,1854.1005   C 2024.951,1850.2109 2023.516,1847.3787 2021.3636,1845.6416   C 2019.2111,1843.9423 2015.9257,1843.0738 2011.6208,1843.0738   C 2007.127,1843.0738 2003.6151,1844.0178 2001.085,1845.8305   C 1999.4612,1847.0011 1998.6304,1848.5871 1998.6304,1850.5886   C 1998.6304,1852.3634 1999.4234,1853.9117 2000.9339,1855.1956   C 2002.8976,1856.8194 2007.5802,1858.5187 2015.0949,1860.2936   C 2022.572,1862.0685 2028.1231,1863.9188 2031.7106,1865.807   C 2035.298,1867.6951 2038.1302,1870.263 2040.1317,1873.5483   C 2042.1709,1876.8337 2043.1905,1880.8743 2043.1905,1885.708   C 2043.1905,1890.0884 2041.9821,1894.1668 2039.5652,1897.9809   C 2037.1107,1901.7949 2033.6742,1904.6271 2029.256,1906.4775   C 2024.8,1908.3279 2019.2866,1909.2719 2012.6404,1909.2719   C 2003.0109,1909.2719 1995.6093,1907.0439 1990.4358,1902.5879   C 1985.2623,1898.1319 1982.1658,1891.6367 1981.1462,1883.1023   z "
     style="fill:#ffff00;fill-rule:nonzero;fill-opacity:1;stroke:none;" />
  <path
     id="path15"
     d="  M 2067.0943,1907.9125   L 2048.8549,1831.6316   L 2064.6397,1831.6316   L 2076.1196,1884.0464   L 2090.0918,1831.6316   L 2108.4068,1831.6316   L 2121.7748,1884.9149   L 2133.4813,1831.6316   L 2149.0018,1831.6316   L 2130.4603,1907.9125   L 2114.109,1907.9125   L 2098.9283,1850.8907   L 2083.7855,1907.9125   z "
     style="fill:#ffff00;fill-rule:nonzero;fill-opacity:1;stroke:none;" />
</svg>
