<?xml version="1.0" encoding="UTF-8" standalone="no"?>
<svg
   xmlns:dc="http://purl.org/dc/elements/1.1/"
   xmlns:cc="http://creativecommons.org/ns#"
   xmlns:rdf="http://www.w3.org/1999/02/22-rdf-syntax-ns#"
   xmlns:svg="http://www.w3.org/2000/svg"
   xmlns="http://www.w3.org/2000/svg"
   id="svg17"
   height="112.9mm"
   width="112.9mm"
   version="1.0">
  <metadata
     id="metadata21">
    <rdf:RDF>
      <cc:Work
         rdf:about="">
        <dc:format>image/svg+xml</dc:format>
        <dc:type
           rdf:resource="http://purl.org/dc/dcmitype/StillImage" />
      </cc:Work>
    </rdf:RDF>
  </metadata>
  <defs
     id="defs3">
    <pattern
       y="0"
       x="0"
       height="6"
       width="6"
       patternUnits="userSpaceOnUse"
       id="EMFhbasepattern" />
  </defs>
  <path
     id="path5"
     d="  M 695.7915,695.2261   L 1111.5444,695.2261  "
     style="fill:none;stroke:#000000;stroke-width:10.651613px;stroke-linecap:butt;stroke-linejoin:miter;stroke-miterlimit:112;stroke-dasharray:37.280646,26.629033;stroke-dashoffset:0;stroke-opacity:1;" />
  <path
     id="path7"
     d="  M 695.7915,908.44722   L 1111.5444,908.44722  "
     style="fill:none;stroke:#000000;stroke-width:10.651613px;stroke-linecap:butt;stroke-linejoin:miter;stroke-miterlimit:112;stroke-dasharray:none;stroke-opacity:1;" />
  <path
     id="path9"
     d="  M 797.05737,794.37675   L 797.05737,837.02098   L 903.64904,900.96843   L 1010.2785,837.02098   L 1010.2785,794.37675   L 903.64904,858.3242   z "
     style="fill:#000000;fill-rule:nonzero;fill-opacity:1;stroke:none;" />
  <path
     id="path11"
     d="  M 783.11962,761.02436   L 798.11497,759.55126   C 799.0215,764.61267 800.83454,768.27652 803.59187,770.65614   C 806.3492,772.99798 810.0886,774.20668 814.77228,774.20668   C 819.72037,774.20668 823.45977,773.14907 825.99047,771.03385   C 828.4834,768.95641 829.76764,766.50125 829.76764,763.66838   C 829.76764,761.85534 829.23884,760.34447 828.18123,759.06023   C 827.12362,757.81377 825.27281,756.71839 822.62879,755.7741   C 820.81575,755.13198 816.69864,754.0366 810.27746,752.45019   C 802.04323,750.37275 796.22639,747.87982 792.90248,744.89585   C 788.2188,740.7032 785.87695,735.56625 785.87695,729.52278   C 785.87695,725.6323 786.97233,722.00622 789.16309,718.60677   C 791.39162,715.24509 794.56444,712.67661 798.71932,710.90134   C 802.83643,709.12607 807.86007,708.25733 813.71468,708.25733   C 823.30868,708.25733 830.52307,710.33477 835.35785,714.52742   C 840.19262,718.72008 842.72333,724.34806 842.98773,731.33582   L 827.57688,732.01571   C 826.89699,728.12523 825.49944,725.29235 823.30868,723.55486   C 821.1557,721.85513 817.90733,720.98638 813.56359,720.98638   C 809.10653,720.98638 805.59377,721.93067 803.06306,723.74371   C 801.43888,724.91464 800.60791,726.50105 800.60791,728.50295   C 800.60791,730.27821 801.36334,731.82685 802.91198,733.11109   C 804.83833,734.73527 809.55979,736.435 817.03859,738.21027   C 824.55515,739.98554 830.10759,741.83635 833.6959,743.72493   C 837.28421,745.61352 840.07931,748.18199 842.11898,751.46813   C 844.15865,754.75426 845.17849,758.79583 845.17849,763.63061   C 845.17849,768.01212 843.93202,772.09146 841.51463,775.9064   C 839.09725,779.72134 835.66002,782.55422 831.20296,784.40503   C 826.78368,786.25584 821.23124,787.20013 814.6212,787.20013   C 804.95165,787.20013 797.5484,784.9716 792.37368,780.51455   C 787.19896,776.05749 784.13945,769.56076 783.11962,761.02436   L 783.11962,761.02436   z "
     style="fill:#000000;fill-rule:nonzero;fill-opacity:1;stroke:none;" />
  <path
     id="path13"
     d="  M 858.13417,709.54156   L 873.54502,709.54156   L 873.54502,750.86378   C 873.54502,757.43605 873.73387,761.66648 874.11159,763.63061   C 874.75371,766.72788 876.34012,769.25859 878.79528,771.14717   C 881.28821,773.03575 884.68766,773.98005 888.99363,773.98005   C 893.37515,773.98005 896.66128,773.07353 898.88981,771.29826   C 901.08057,769.52299 902.44035,767.33223 902.89361,764.72598   C 903.34687,762.11974 903.5735,757.776 903.5735,751.7703   L 903.5735,709.54156   L 918.98435,709.54156   L 918.98435,749.61731   C 918.98435,758.79583 918.56886,765.25479 917.73788,769.03196   C 916.86913,772.80912 915.35826,776.01972 913.12974,778.62596   C 910.86343,781.23221 907.87947,783.27188 904.14008,784.82052   C 900.40068,786.36916 895.49036,787.16236 889.44689,787.16236   C 882.15696,787.16236 876.64229,786.29361 872.86513,784.63166   C 869.12573,782.93193 866.14177,780.74118 863.95101,778.05939   C 861.76025,775.3776 860.32493,772.54472 859.64504,769.59853   C 858.6252,765.25479 858.13417,758.79583 858.13417,750.25943   L 858.13417,709.54156   z "
     style="fill:#000000;fill-rule:nonzero;fill-opacity:1;stroke:none;" />
  <path
     id="path15"
     d="  M 946.10441,785.84035   L 927.86069,709.54156   L 943.64925,709.54156   L 955.13184,761.96865   L 969.10736,709.54156   L 987.42663,709.54156   L 1000.7978,762.8374   L 1012.507,709.54156   L 1028.0312,709.54156   L 1009.4853,785.84035   L 993.13015,785.84035   L 977.94594,728.80512   L 962.79949,785.84035   L 946.10441,785.84035   z "
     style="fill:#000000;fill-rule:nonzero;fill-opacity:1;stroke:none;" />
</svg>
