<?xml version="1.0" encoding="UTF-8" standalone="no"?>
<svg
   xmlns:dc="http://purl.org/dc/elements/1.1/"
   xmlns:cc="http://creativecommons.org/ns#"
   xmlns:rdf="http://www.w3.org/1999/02/22-rdf-syntax-ns#"
   xmlns:svg="http://www.w3.org/2000/svg"
   xmlns="http://www.w3.org/2000/svg"
   id="svg17"
   height="112.9mm"
   width="112.9mm"
   version="1.0">
  <metadata
     id="metadata21">
    <rdf:RDF>
      <cc:Work
         rdf:about="">
        <dc:format>image/svg+xml</dc:format>
        <dc:type
           rdf:resource="http://purl.org/dc/dcmitype/StillImage" />
      </cc:Work>
    </rdf:RDF>
  </metadata>
  <defs
     id="defs3">
    <pattern
       y="0"
       x="0"
       height="6"
       width="6"
       patternUnits="userSpaceOnUse"
       id="EMFhbasepattern" />
  </defs>
  <path
     id="path5"
     d="  M 173.38833,172.81395   L 589.10436,172.81395  "
     style="fill:none;stroke:#ff0000;stroke-width:10.612902px;stroke-linecap:butt;stroke-linejoin:miter;stroke-miterlimit:28;stroke-dasharray:37.277344,26.626674;stroke-dashoffset:0;stroke-opacity:1;" />
  <path
     id="path7"
     d="  M 173.38833,386.01619   L 589.10436,386.01619  "
     style="fill:none;stroke:#ff0000;stroke-width:10.612902px;stroke-linecap:butt;stroke-linejoin:miter;stroke-miterlimit:28;stroke-dasharray:none;stroke-opacity:1;" />
  <path
     id="path9"
     d="  M 274.64523,271.95583   L 274.64523,314.59627   L 381.22746,378.53806   L 487.84746,314.59627   L 487.84746,271.95583   L 381.22746,335.89761   z "
     style="fill:#ff0000;fill-rule:nonzero;fill-opacity:1;stroke:none;" />
  <path
     id="path11"
     d="  M 260.70871,238.60639   L 275.70274,237.13343   C 276.60918,242.19438 278.42206,245.85791 281.17915,248.23731   C 283.93624,250.57895 287.6753,251.78754 292.35857,251.78754   C 297.30623,251.78754 301.04529,250.73002 303.57577,248.615   C 306.06848,246.53774 307.3526,244.0828 307.3526,241.25017   C 307.3526,239.43729 306.82385,237.92656 305.76633,236.64244   C 304.70882,235.39608 302.85817,234.3008 300.21439,233.35659   C 298.40151,232.71453 294.28476,231.61925 287.86414,230.03298   C 279.63065,227.95572 273.81432,225.46301 270.49071,222.47931   C 265.80744,218.28703 263.4658,213.15053 263.4658,207.1076   C 263.4658,203.21746 264.56108,199.5917 266.75164,196.19255   C 268.97998,192.83117 272.15252,190.26292 276.30703,188.48781   C 280.42378,186.7127 285.44697,185.84403 291.30106,185.84403   C 300.89422,185.84403 308.10797,187.92129 312.94232,192.11357   C 317.77666,196.30586 320.30714,201.93334 320.57152,208.92048   L 305.16204,209.60031   C 304.48221,205.71017 303.08478,202.87755 300.89422,201.1402   C 298.74142,199.44063 295.49335,198.57196 291.14999,198.57196   C 286.69332,198.57196 283.18087,199.51617 280.65039,201.32905   C 279.02635,202.49986 278.19545,204.08613 278.19545,206.08786   C 278.19545,207.86297 278.95082,209.41147 280.49932,210.69559   C 282.4255,212.31963 287.14654,214.01921 294.62467,215.79432   C 302.14057,217.56943 307.69252,219.42008 311.28051,221.30849   C 314.8685,223.19691 317.66336,225.76516 319.70285,229.051   C 321.74234,232.33685 322.76208,236.37806 322.76208,241.2124   C 322.76208,245.59353 321.51573,249.67251 319.09855,253.48711   C 316.68138,257.30171 313.24446,260.13434 308.7878,261.98499   C 304.3689,263.83564 298.81696,264.77984 292.2075,264.77984   C 282.53881,264.77984 275.13621,262.55151 269.96195,258.09485   C 264.78769,253.63819 261.72846,247.14203 260.70871,238.60639   L 260.70871,238.60639   z "
     style="fill:#ff0000;fill-rule:nonzero;fill-opacity:1;stroke:none;" />
  <path
     id="path13"
     d="  M 335.71662,187.12815   L 351.1261,187.12815   L 351.1261,228.44671   C 351.1261,235.0184 351.31494,239.24845 351.69262,241.2124   C 352.33469,244.30941 353.92096,246.83989 356.3759,248.7283   C 358.86861,250.61672 362.26776,251.56093 366.57335,251.56093   C 370.95447,251.56093 374.24032,250.65449 376.46865,248.87938   C 378.65921,247.10426 380.01887,244.9137 380.47209,242.30769   C 380.92531,239.70167 381.15192,235.35831 381.15192,229.35315   L 381.15192,187.12815   L 396.5614,187.12815   L 396.5614,227.20035   C 396.5614,236.37806 396.14595,242.83644 395.31505,246.61328   C 394.44638,250.39011 392.93564,253.60042 390.70731,256.20643   C 388.44121,258.81245 385.45751,260.85194 381.71845,262.40044   C 377.97938,263.94894 373.0695,264.74208 367.02657,264.74208   C 359.73728,264.74208 354.2231,263.8734 350.44627,262.2116   C 346.7072,260.51202 343.72351,258.32146 341.53294,255.63991   C 339.34238,252.95836 337.90718,250.12573 337.22735,247.1798   C 336.20761,242.83644 335.71662,236.37806 335.71662,227.84242   L 335.71662,187.12815   z "
     style="fill:#ff0000;fill-rule:nonzero;fill-opacity:1;stroke:none;" />
  <path
     id="path15"
     d="  M 423.67907,263.42018   L 405.43696,187.12815   L 421.22412,187.12815   L 432.7057,239.5506   L 446.67998,187.12815   L 464.99762,187.12815   L 478.36761,240.41927   L 490.07579,187.12815   L 505.59858,187.12815   L 487.05433,263.42018   L 470.70064,263.42018   L 455.51777,206.39   L 440.37267,263.42018   L 423.67907,263.42018   z "
     style="fill:#ff0000;fill-rule:nonzero;fill-opacity:1;stroke:none;" />
</svg>
