<?xml version="1.0" encoding="UTF-8" standalone="no"?>
<svg
   xmlns:dc="http://purl.org/dc/elements/1.1/"
   xmlns:cc="http://creativecommons.org/ns#"
   xmlns:rdf="http://www.w3.org/1999/02/22-rdf-syntax-ns#"
   xmlns:svg="http://www.w3.org/2000/svg"
   xmlns="http://www.w3.org/2000/svg"
   id="svg17"
   height="112.9mm"
   width="112.9mm"
   version="1.0">
  <metadata
     id="metadata21">
    <rdf:RDF>
      <cc:Work
         rdf:about="">
        <dc:format>image/svg+xml</dc:format>
        <dc:type
           rdf:resource="http://purl.org/dc/dcmitype/StillImage" />
      </cc:Work>
    </rdf:RDF>
  </metadata>
  <defs
     id="defs3">
    <pattern
       y="0"
       x="0"
       height="6"
       width="6"
       patternUnits="userSpaceOnUse"
       id="EMFhbasepattern" />
  </defs>
  <path
     id="path5"
     d="  M 695.7915,695.2261   L 1111.5444,695.2261  "
     style="fill:none;stroke:#000000;stroke-width:10.651613px;stroke-linecap:butt;stroke-linejoin:miter;stroke-miterlimit:112;stroke-dasharray:37.280646,26.629033;stroke-dashoffset:0;stroke-opacity:1;" />
  <path
     id="path7"
     d="  M 695.7915,908.44722   L 1111.5444,908.44722  "
     style="fill:none;stroke:#000000;stroke-width:10.651613px;stroke-linecap:butt;stroke-linejoin:miter;stroke-miterlimit:112;stroke-dasharray:none;stroke-opacity:1;" />
  <path
     id="path9"
     d="  M 797.05737,794.37675   L 797.05737,837.02098   L 903.64904,900.96843   L 1010.2785,837.02098   L 1010.2785,794.37675   L 903.64904,858.3242   z "
     style="fill:#000000;fill-rule:nonzero;fill-opacity:1;stroke:none;" />
  <path
     id="path11"
     d="  M 855.8301,785.84035   L 839.05947,785.84035   L 832.41166,768.50315   L 801.89214,768.50315   L 795.62204,785.84035   L 779.26691,785.84035   L 808.99322,709.54156   L 825.27281,709.54156   L 855.8301,785.84035   z  M 827.46357,755.66078   L 816.96304,727.33202   L 806.65137,755.66078   L 827.46357,755.66078   z "
     style="fill:#000000;fill-rule:nonzero;fill-opacity:1;stroke:none;" />
  <path
     id="path13"
     d="  M 860.13607,761.02436   L 875.13143,759.55126   C 876.03795,764.61267 877.88876,768.27652 880.64609,770.65614   C 883.40342,772.99798 887.10505,774.20668 891.78874,774.20668   C 896.7746,774.20668 900.51399,773.14907 903.00693,771.03385   C 905.53763,768.95641 906.78409,766.50125 906.78409,763.66838   C 906.78409,761.85534 906.25529,760.34447 905.19768,759.06023   C 904.14008,757.81377 902.28926,756.71839 899.64525,755.7741   C 897.86998,755.13198 893.75286,754.0366 887.33168,752.45019   C 879.05968,750.37275 873.28061,747.87982 869.91894,744.89585   C 865.23525,740.7032 862.8934,735.56625 862.8934,729.52278   C 862.8934,725.6323 864.02655,722.00622 866.21731,718.60677   C 868.40807,715.24509 871.58089,712.67661 875.73577,710.90134   C 879.89066,709.12607 884.87652,708.25733 890.7689,708.25733   C 900.32514,708.25733 907.53953,710.33477 912.3743,714.52742   C 917.20908,718.72008 919.77755,724.34806 920.00418,731.33582   L 904.59334,732.01571   C 903.95122,728.12523 902.51589,725.29235 900.36291,723.55486   C 898.20992,721.85513 894.92379,720.98638 890.61781,720.98638   C 886.12299,720.98638 882.61022,721.93067 880.07952,723.74371   C 878.45533,724.91464 877.62436,726.50105 877.62436,728.50295   C 877.62436,730.27821 878.41756,731.82685 879.92843,733.11109   C 881.89256,734.73527 886.57625,736.435 894.09281,738.21027   C 901.5716,739.98554 907.12404,741.83635 910.71235,743.72493   C 914.30066,745.61352 917.13353,748.18199 919.13543,751.46813   C 921.1751,754.75426 922.19494,758.79583 922.19494,763.63061   C 922.19494,768.01212 920.98624,772.09146 918.56886,775.9064   C 916.1137,779.72134 912.67647,782.55422 908.25719,784.40503   C 903.80013,786.25584 898.28547,787.20013 891.63765,787.20013   C 882.00587,787.20013 874.60262,784.9716 869.4279,780.51455   C 864.25318,776.05749 861.15591,769.56076 860.13607,761.02436   L 860.13607,761.02436   z "
     style="fill:#000000;fill-rule:nonzero;fill-opacity:1;stroke:none;" />
  <path
     id="path15"
     d="  M 946.10441,785.84035   L 927.86069,709.54156   L 943.64925,709.54156   L 955.13184,761.96865   L 969.10736,709.54156   L 987.42663,709.54156   L 1000.7978,762.8374   L 1012.507,709.54156   L 1028.0312,709.54156   L 1009.4853,785.84035   L 993.13015,785.84035   L 977.94594,728.80512   L 962.79949,785.84035   L 946.10441,785.84035   z "
     style="fill:#000000;fill-rule:nonzero;fill-opacity:1;stroke:none;" />
</svg>
