<?xml version="1.0" encoding="UTF-8" standalone="no"?>
<svg
   xmlns:dc="http://purl.org/dc/elements/1.1/"
   xmlns:cc="http://creativecommons.org/ns#"
   xmlns:rdf="http://www.w3.org/1999/02/22-rdf-syntax-ns#"
   xmlns:svg="http://www.w3.org/2000/svg"
   xmlns="http://www.w3.org/2000/svg"
   id="svg17"
   height="112.9mm"
   width="112.9mm"
   version="1.0">
  <metadata
     id="metadata21">
    <rdf:RDF>
      <cc:Work
         rdf:about="">
        <dc:format>image/svg+xml</dc:format>
        <dc:type
           rdf:resource="http://purl.org/dc/dcmitype/StillImage" />
      </cc:Work>
    </rdf:RDF>
  </metadata>
  <defs
     id="defs3">
    <pattern
       y="0"
       x="0"
       height="6"
       width="6"
       patternUnits="userSpaceOnUse"
       id="EMFhbasepattern" />
  </defs>
  <path
     id="path5"
     d="  M 1816.8403,1817.3195   L 2232.4953,1817.3195  "
     style="fill:none;stroke:#ffff00;stroke-width:10.649107px;stroke-linecap:butt;stroke-linejoin:miter;stroke-miterlimit:282;stroke-dasharray:37.271874,26.622767;stroke-dashoffset:0;stroke-opacity:1;" />
  <path
     id="path7"
     d="  M 1816.8403,2030.4905   L 2232.4953,2030.4905  "
     style="fill:none;stroke:#ffff00;stroke-width:10.649107px;stroke-linecap:butt;stroke-linejoin:miter;stroke-miterlimit:282;stroke-dasharray:none;stroke-opacity:1;" />
  <path
     id="path9"
     d="  M 1918.0823,1916.4469   L 1918.0823,1959.0811   L 2024.6489,2023.0135   L 2131.2533,1959.0811   L 2131.2533,1916.4469   L 2024.6489,1980.3793   z "
     style="fill:#ffff00;fill-rule:nonzero;fill-opacity:1;stroke:none;" />
  <path
     id="path11"
     d="  M 1922.7272,1907.9125   L 1922.7272,1831.6316   L 1945.7625,1831.6316   L 1959.6214,1883.6688   L 1973.2915,1831.6316   L 1996.4024,1831.6316   L 1996.4024,1907.9125   L 1982.0903,1907.9125   L 1982.0903,1847.8696   L 1966.9474,1907.9125   L 1952.1066,1907.9125   L 1937.0393,1847.8696   L 1937.0393,1907.9125   z "
     style="fill:#ffff00;fill-rule:nonzero;fill-opacity:1;stroke:none;" />
  <path
     id="path13"
     d="  M 2011.3564,1907.9125   L 2011.3564,1831.6316   L 2026.7636,1831.6316   L 2026.7636,1907.9125   z "
     style="fill:#ffff00;fill-rule:nonzero;fill-opacity:1;stroke:none;" />
  <path
     id="path15"
     d="  M 2052.178,1907.9125   L 2033.9763,1831.6316   L 2049.7612,1831.6316   L 2061.2411,1884.0464   L 2075.2133,1831.6316   L 2093.5283,1831.6316   L 2106.8963,1884.9149   L 2118.6028,1831.6316   L 2134.0855,1831.6316   L 2115.5817,1907.9125   L 2099.2304,1907.9125   L 2084.0498,1850.8907   L 2068.9069,1907.9125   z "
     style="fill:#ffff00;fill-rule:nonzero;fill-opacity:1;stroke:none;" />
</svg>
