<?xml version="1.0" encoding="UTF-8" standalone="no"?>
<svg
   xmlns:dc="http://purl.org/dc/elements/1.1/"
   xmlns:cc="http://creativecommons.org/ns#"
   xmlns:rdf="http://www.w3.org/1999/02/22-rdf-syntax-ns#"
   xmlns:svg="http://www.w3.org/2000/svg"
   xmlns="http://www.w3.org/2000/svg"
   id="svg13"
   height="116.73mm"
   width="116.73mm"
   version="1.0">
  <metadata
     id="metadata17">
    <rdf:RDF>
      <cc:Work
         rdf:about="">
        <dc:format>image/svg+xml</dc:format>
        <dc:type
           rdf:resource="http://purl.org/dc/dcmitype/StillImage" />
      </cc:Work>
    </rdf:RDF>
  </metadata>
  <defs
     id="defs3">
    <pattern
       y="0"
       x="0"
       height="6"
       width="6"
       patternUnits="userSpaceOnUse"
       id="EMFhbasepattern" />
  </defs>
  <path
     id="path5"
     d="  M 220.57831,386.49156   L 220.57831,386.49156   L 386.49156,220.57831   L 220.57831,54.665059   L 54.665059,220.57831   L 220.57831,386.49156   z "
     style="fill:#ff8080;fill-rule:evenodd;fill-opacity:1;stroke:none;" />
  <path
     id="path7"
     d="  M 220.57831,386.49156   L 220.57831,386.49156   L 386.49156,220.57831   L 220.57831,54.665059   L 54.665059,220.57831   L 220.57831,386.49156  "
     style="fill:none;stroke:#000000;stroke-width:9.5903616px;stroke-linecap:butt;stroke-linejoin:miter;stroke-miterlimit:10;stroke-dasharray:none;stroke-opacity:1;" />
  <path
     id="path9"
     d="  M 220.57831,191.80723   L 173.10602,170.22891   C 125.63373,148.6506 125.63373,234.96385 173.10602,213.38554   L 220.57831,191.80723   L 268.0506,170.22891   C 315.52289,148.6506 315.52289,234.96385 268.0506,213.38554   L 220.57831,191.80723   z "
     style="fill:#000000;fill-rule:evenodd;fill-opacity:1;stroke:none;" />
  <path
     id="path11"
     d="  M 143.7755,263.09558   L 127.83152,221.89698   L 133.70562,221.89698   L 144.41486,251.8269   C 145.29397,254.22449 146.01325,256.46225 146.57269,258.58012   C 147.21205,256.34237 147.97128,254.06465 148.81044,251.8269   L 159.91927,221.89698   L 165.51365,221.89698   L 149.36988,263.09558   z  M 168.5506,249.86887   L 173.66546,249.42931   C 173.90522,251.46727 174.50462,253.18554 175.38373,254.50421   C 176.26285,255.82289 177.66144,256.86184 179.53956,257.701   C 181.37771,258.5002 183.49558,258.8998 185.85321,258.8998   C 187.93112,258.8998 189.76927,258.62008 191.36767,257.98072   C 192.9261,257.38132 194.1249,256.50221 194.92409,255.46325   C 195.68333,254.38433 196.08293,253.18554 196.08293,251.90682   C 196.08293,250.62811 195.68333,249.50923 194.96405,248.5502   C 194.20482,247.5512 192.96606,246.752 191.24779,246.11265   C 190.12891,245.67309 187.69136,244.99377 183.89518,244.0747   C 180.13895,243.19558 177.46164,242.31646 175.94317,241.51727   C 173.98514,240.47831 172.50662,239.19959 171.54759,237.68112   C 170.58855,236.16265 170.10903,234.44437 170.10903,232.56626   C 170.10903,230.48835 170.70843,228.53032 171.86727,226.73213   C 173.06606,224.93393 174.78433,223.53534 177.06205,222.61626   C 179.2998,221.65723 181.81727,221.21767 184.61446,221.21767   C 187.6514,221.21767 190.36867,221.69719 192.68634,222.69618   C 195.00401,223.65522 196.80221,225.09377 198.08092,227.01184   C 199.31968,228.92992 199.99899,231.08775 200.07891,233.5253   L 194.84417,233.9249   C 194.56446,231.28755 193.64538,229.32951 192.00703,228.01084   C 190.40863,226.69217 188.01104,226.01285 184.81425,226.01285   C 181.53755,226.01285 179.13996,226.61225 177.62148,227.81104   C 176.10301,229.0498 175.34377,230.48835 175.34377,232.20662   C 175.34377,233.68514 175.90321,234.88393 176.98213,235.84297   C 178.02108,236.802 180.73835,237.801 185.17389,238.8   C 189.60944,239.79899 192.64638,240.67811 194.28474,241.39739   C 196.68233,242.51626 198.48052,243.91486 199.59939,245.59317   C 200.75823,247.31144 201.31767,249.26947 201.31767,251.46727   C 201.31767,253.66506 200.67831,255.74297 199.43956,257.66104   C 198.2008,259.61907 196.40261,261.09759 194.04498,262.1765   C 191.68735,263.25542 189.05,263.81486 186.09297,263.81486   C 182.3767,263.81486 179.25984,263.25542 176.74237,262.1765   C 174.2249,261.09759 172.22691,259.45923 170.78835,257.26144   C 169.3498,255.10361 168.63052,252.6261 168.5506,249.86887   z  M 219.25964,263.09558   L 219.25964,226.77209   L 205.67329,226.77209   L 205.67329,221.89698   L 238.32048,221.89698   L 238.32048,226.77209   L 224.69417,226.77209   L 224.69417,263.09558   z  M 242.2765,243.03574   C 242.2765,236.20261 244.11466,230.84799 247.751,226.97188   C 251.42731,223.09578 256.18253,221.17771 261.9767,221.17771   C 265.77289,221.17771 269.20943,222.09678 272.28634,223.89498   C 275.32329,225.73313 277.64096,228.2506 279.23935,231.48735   C 280.83775,234.76405 281.63694,238.44036 281.63694,242.55622   C 281.63694,246.752 280.79779,250.46827 279.11947,253.78494   C 277.44116,257.06164 275.04357,259.57911 271.96666,261.25743   C 268.8498,262.9757 265.53313,263.81486 261.9767,263.81486   C 258.06064,263.81486 254.62409,262.85582 251.54719,260.97771   C 248.51024,259.13955 246.19257,256.58212 244.63413,253.30542   C 243.03574,250.06867 242.2765,246.67208 242.2765,243.03574   z  M 247.87088,243.11566   C 247.87088,248.07068 249.22951,251.98674 251.86686,254.86385   C 254.54417,257.701 257.9008,259.13955 261.93674,259.13955   C 266.01265,259.13955 269.40923,257.701 272.04658,254.82389   C 274.72389,251.94678 276.04257,247.83092 276.04257,242.51626   C 276.04257,239.19959 275.48313,236.24257 274.32429,233.76506   C 273.20542,231.24759 271.5271,229.32951 269.36927,227.93092   C 267.17148,226.57229 264.73393,225.85301 262.01666,225.85301   C 258.14056,225.85301 254.82389,227.21164 252.06666,229.84899   C 249.26947,232.48634 247.87088,236.92188 247.87088,243.11566   z  M 288.47008,263.09558   L 288.47008,221.89698   L 293.90461,221.89698   L 293.90461,258.22048   L 314.20421,258.22048   L 314.20421,263.09558   z "
     style="fill:#000000;fill-rule:evenodd;fill-opacity:1;stroke:none;" />
</svg>
