<?xml version="1.0" encoding="UTF-8" standalone="no"?>
<svg
   xmlns:dc="http://purl.org/dc/elements/1.1/"
   xmlns:cc="http://creativecommons.org/ns#"
   xmlns:rdf="http://www.w3.org/1999/02/22-rdf-syntax-ns#"
   xmlns:svg="http://www.w3.org/2000/svg"
   xmlns="http://www.w3.org/2000/svg"
   id="svg13"
   height="95.75mm"
   width="95.75mm"
   version="1.0">
  <metadata
     id="metadata17">
    <rdf:RDF>
      <cc:Work
         rdf:about="">
        <dc:format>image/svg+xml</dc:format>
        <dc:type
           rdf:resource="http://purl.org/dc/dcmitype/StillImage" />
      </cc:Work>
    </rdf:RDF>
  </metadata>
  <defs
     id="defs3">
    <pattern
       y="0"
       x="0"
       height="6"
       width="6"
       patternUnits="userSpaceOnUse"
       id="EMFhbasepattern" />
  </defs>
  <path
     id="path5"
     d="  M 54.345381,54.345381   L 54.345381,307.53092   L 307.53092,307.53092   L 307.53092,54.345381   L 54.345381,54.345381   z "
     style="fill:#aaffaa;fill-rule:evenodd;fill-opacity:1;stroke:none;" />
  <path
     id="path7"
     d="  M 54.345381,54.345381   L 307.53092,54.345381   L 307.53092,307.53092   L 54.345381,307.53092   z "
     style="fill:none;stroke:#000000;stroke-width:9.5903616px;stroke-linecap:butt;stroke-linejoin:miter;stroke-miterlimit:10;stroke-dasharray:none;stroke-opacity:1;" />
  <path
     id="path9"
     d="  M 180.93815,152.16707   L 133.46586,130.58875   C 85.993573,109.01044 85.993573,195.32369 133.46586,173.74538   L 180.93815,152.16707   L 228.41044,130.58875   C 275.88273,109.01044 275.88273,195.32369 228.41044,173.74538   L 180.93815,152.16707   z "
     style="fill:#000000;fill-rule:evenodd;fill-opacity:1;stroke:none;" />
  <path
     id="path11"
     d="  M 104.13534,223.45542   L 88.191364,182.25682   L 94.06546,182.25682   L 104.7747,212.18674   C 105.65381,214.58433 106.37309,216.82209 106.93253,218.93996   C 107.57189,216.70221 108.33112,214.42449 109.17028,212.18674   L 120.27911,182.25682   L 125.87349,182.25682   L 109.72972,223.45542   z  M 128.91044,210.22871   L 134.0253,209.78915   C 134.26506,211.82711 134.86446,213.54538 135.74357,214.86405   C 136.62269,216.18273 138.02128,217.22168 139.8994,218.06084   C 141.73755,218.86004 143.85542,219.25964 146.21305,219.25964   C 148.29096,219.25964 150.12911,218.97992 151.72751,218.34056   C 153.28594,217.74116 154.48474,216.86205 155.28393,215.82309   C 156.04317,214.74417 156.44277,213.54538 156.44277,212.26666   C 156.44277,210.98795 156.04317,209.86907 155.32389,208.91004   C 154.56466,207.91104 153.3259,207.11184 151.60763,206.47249   C 150.48875,206.03293 148.0512,205.35361 144.25502,204.43454   C 140.49879,203.55542 137.82148,202.6763 136.30301,201.87711   C 134.34498,200.83815 132.86646,199.55943 131.90743,198.04096   C 130.94839,196.52249 130.46887,194.80421 130.46887,192.9261   C 130.46887,190.84819 131.06827,188.89016 132.22711,187.09197   C 133.4259,185.29377 135.14417,183.89518 137.42189,182.9761   C 139.65964,182.01707 142.17711,181.57751 144.9743,181.57751   C 148.01124,181.57751 150.72851,182.05703 153.04618,183.05602   C 155.36385,184.01506 157.16205,185.45361 158.44076,187.37168   C 159.67952,189.28976 160.35883,191.44759 160.43875,193.88514   L 155.20401,194.28474   C 154.92429,191.64739 154.00522,189.68935 152.36687,188.37068   C 150.76847,187.05201 148.37088,186.37269 145.17409,186.37269   C 141.89739,186.37269 139.4998,186.97209 137.98132,188.17088   C 136.46285,189.40964 135.70361,190.84819 135.70361,192.56646   C 135.70361,194.04498 136.26305,195.24377 137.34197,196.20281   C 138.38092,197.16184 141.09819,198.16084 145.53373,199.15984   C 149.96927,200.15883 153.00622,201.03795 154.64458,201.75723   C 157.04217,202.8761 158.84036,204.2747 159.95923,205.95301   C 161.11807,207.67128 161.67751,209.62931 161.67751,211.82711   C 161.67751,214.0249 161.03815,216.10281 159.7994,218.02088   C 158.56064,219.97891 156.76245,221.45743 154.40482,222.53634   C 152.04719,223.61526 149.40984,224.1747 146.45281,224.1747   C 142.73654,224.1747 139.61968,223.61526 137.10221,222.53634   C 134.58474,221.45743 132.58675,219.81907 131.14819,217.62128   C 129.70964,215.46345 128.99036,212.98594 128.91044,210.22871   z  M 179.61948,223.45542   L 179.61948,187.13193   L 166.03313,187.13193   L 166.03313,182.25682   L 198.68032,182.25682   L 198.68032,187.13193   L 185.05401,187.13193   L 185.05401,223.45542   z  M 202.63634,203.39558   C 202.63634,196.56245 204.4745,191.20783 208.11084,187.33172   C 211.78715,183.45562 216.54237,181.53755 222.33654,181.53755   C 226.13273,181.53755 229.56927,182.45662 232.64618,184.25482   C 235.68313,186.09297 238.0008,188.61044 239.59919,191.84719   C 241.19759,195.12389 241.99678,198.8002 241.99678,202.91606   C 241.99678,207.11184 241.15763,210.82811 239.47931,214.14478   C 237.801,217.42148 235.40341,219.93895 232.3265,221.61727   C 229.20964,223.33554 225.89297,224.1747 222.33654,224.1747   C 218.42048,224.1747 214.98393,223.21566 211.90703,221.33755   C 208.87008,219.49939 206.55241,216.94196 204.99397,213.66526   C 203.39558,210.42851 202.63634,207.03192 202.63634,203.39558   z  M 208.23072,203.4755   C 208.23072,208.43052 209.58935,212.34658 212.2267,215.22369   C 214.90401,218.06084 218.26064,219.49939 222.29658,219.49939   C 226.37249,219.49939 229.76907,218.06084 232.40642,215.18373   C 235.08373,212.30662 236.40241,208.19076 236.40241,202.8761   C 236.40241,199.55943 235.84297,196.60241 234.68413,194.1249   C 233.56526,191.60743 231.88694,189.68935 229.72911,188.29076   C 227.53132,186.93213 225.09377,186.21285 222.3765,186.21285   C 218.5004,186.21285 215.18373,187.57148 212.4265,190.20883   C 209.62931,192.84618 208.23072,197.28172 208.23072,203.4755   z  M 248.82992,223.45542   L 248.82992,182.25682   L 254.26445,182.25682   L 254.26445,218.58032   L 274.56405,218.58032   L 274.56405,223.45542   z "
     style="fill:#000000;fill-rule:evenodd;fill-opacity:1;stroke:none;" />
</svg>
