<?xml version="1.0" encoding="UTF-8" standalone="no"?>
<svg
   xmlns:dc="http://purl.org/dc/elements/1.1/"
   xmlns:cc="http://creativecommons.org/ns#"
   xmlns:rdf="http://www.w3.org/1999/02/22-rdf-syntax-ns#"
   xmlns:svg="http://www.w3.org/2000/svg"
   xmlns="http://www.w3.org/2000/svg"
   id="svg13"
   height="89.669998mm"
   width="120.11mm"
   version="1.0">
  <metadata
     id="metadata17">
    <rdf:RDF>
      <cc:Work
         rdf:about="">
        <dc:format>image/svg+xml</dc:format>
        <dc:type
           rdf:resource="http://purl.org/dc/dcmitype/StillImage" />
      </cc:Work>
    </rdf:RDF>
  </metadata>
  <defs
     id="defs3">
    <pattern
       y="0"
       x="0"
       height="6"
       width="6"
       patternUnits="userSpaceOnUse"
       id="EMFhbasepattern" />
  </defs>
  <path
     id="path5"
     d="  M 54.345381,54.345381   L 54.345381,284.51405   L 399.59839,284.51405   L 399.59839,54.345381   L 54.345381,54.345381   z "
     style="fill:#80e0ff;fill-rule:evenodd;fill-opacity:1;stroke:none;" />
  <path
     id="path7"
     d="  M 54.345381,54.345381   L 399.59839,54.345381   L 399.59839,284.51405   L 54.345381,284.51405   z "
     style="fill:none;stroke:#000000;stroke-width:9.5903616px;stroke-linecap:butt;stroke-linejoin:miter;stroke-miterlimit:10;stroke-dasharray:none;stroke-opacity:1;" />
  <path
     id="path9"
     d="  M 226.97188,140.65863   L 179.4996,119.08032   C 132.02731,97.502007 132.02731,183.81526 179.4996,162.23695   L 226.97188,140.65863   L 274.44417,119.08032   C 321.91646,97.502007 321.91646,183.81526 274.44417,162.23695   L 226.97188,140.65863   z "
     style="fill:#000000;fill-rule:evenodd;fill-opacity:1;stroke:none;" />
  <path
     id="path11"
     d="  M 150.16907,211.94698   L 134.2251,170.74839   L 140.09919,170.74839   L 150.80843,200.67831   C 151.68755,203.0759 152.40683,205.31365 152.96626,207.43152   C 153.60562,205.19377 154.36486,202.91606 155.20401,200.67831   L 166.31285,170.74839   L 171.90723,170.74839   L 155.76345,211.94698   z  M 174.94417,198.72028   L 180.05903,198.28072   C 180.29879,200.31867 180.89819,202.03694 181.77731,203.35562   C 182.65642,204.67429 184.05502,205.71325 185.93313,206.55241   C 187.77128,207.3516 189.88915,207.7512 192.24678,207.7512   C 194.3247,207.7512 196.16285,207.47148 197.76124,206.83213   C 199.31968,206.23273 200.51847,205.35361 201.31767,204.31466   C 202.0769,203.23574 202.4765,202.03694 202.4765,200.75823   C 202.4765,199.47952 202.0769,198.36064 201.35763,197.4016   C 200.59839,196.40261 199.35964,195.60341 197.64136,194.96405   C 196.52249,194.5245 194.08494,193.84518 190.28875,192.9261   C 186.53253,192.04699 183.85522,191.16787 182.33674,190.36867   C 180.37871,189.32972 178.9002,188.051 177.94116,186.53253   C 176.98213,185.01405 176.50261,183.29578 176.50261,181.41767   C 176.50261,179.33976 177.10201,177.38172 178.26084,175.58353   C 179.45964,173.78534 181.17791,172.38674 183.45562,171.46767   C 185.69337,170.50863 188.21084,170.06907 191.00803,170.06907   C 194.04498,170.06907 196.76225,170.54859 199.07992,171.54759   C 201.39759,172.50662 203.19578,173.94518 204.4745,175.86325   C 205.71325,177.78132 206.39257,179.93915 206.47249,182.3767   L 201.23775,182.7763   C 200.95803,180.13895 200.03895,178.18092 198.4006,176.86225   C 196.80221,175.54357 194.40462,174.86425 191.20783,174.86425   C 187.93112,174.86425 185.53353,175.46365 184.01506,176.66245   C 182.49658,177.9012 181.73735,179.33976 181.73735,181.05803   C 181.73735,182.53654 182.29678,183.73534 183.3757,184.69437   C 184.41466,185.65341 187.13193,186.65241 191.56747,187.6514   C 196.00301,188.6504 199.03996,189.52952 200.67831,190.24879   C 203.0759,191.36767 204.87409,192.76626 205.99297,194.44458   C 207.1518,196.16285 207.71124,198.12088 207.71124,200.31867   C 207.71124,202.51646 207.07188,204.59437 205.83313,206.51245   C 204.59437,208.47048 202.79618,209.94899 200.43855,211.02791   C 198.08092,212.10682 195.44357,212.66626 192.48654,212.66626   C 188.77028,212.66626 185.65341,212.10682 183.13594,211.02791   C 180.61847,209.94899 178.62048,208.31064 177.18193,206.11285   C 175.74337,203.95502 175.02409,201.47751 174.94417,198.72028   z  M 225.65321,211.94698   L 225.65321,175.62349   L 212.06686,175.62349   L 212.06686,170.74839   L 244.71405,170.74839   L 244.71405,175.62349   L 231.08775,175.62349   L 231.08775,211.94698   z  M 248.67008,191.88715   C 248.67008,185.05401 250.50823,179.69939 254.14457,175.82329   C 257.82088,171.94719 262.5761,170.02911 268.37028,170.02911   C 272.16646,170.02911 275.60301,170.94819 278.67992,172.74638   C 281.71686,174.58454 284.03453,177.10201 285.63293,180.33875   C 287.23132,183.61546 288.03052,187.29176 288.03052,191.40763   C 288.03052,195.60341 287.19136,199.31968 285.51305,202.63634   C 283.83473,205.91305 281.43714,208.43052 278.36024,210.10883   C 275.24337,211.82711 271.9267,212.66626 268.37028,212.66626   C 264.45421,212.66626 261.01767,211.70723 257.94076,209.82911   C 254.90381,207.99096 252.58614,205.43353 251.02771,202.15682   C 249.42931,198.92008 248.67008,195.52349 248.67008,191.88715   z  M 254.26445,191.96707   C 254.26445,196.92209 255.62309,200.83815 258.26044,203.71526   C 260.93775,206.55241 264.29437,207.99096 268.33032,207.99096   C 272.40622,207.99096 275.80281,206.55241 278.44016,203.6753   C 281.11747,200.79819 282.43614,196.68233 282.43614,191.36767   C 282.43614,188.051 281.8767,185.09397 280.71787,182.61646   C 279.59899,180.09899 277.92068,178.18092 275.76285,176.78233   C 273.56506,175.42369 271.12751,174.70442 268.41024,174.70442   C 264.53413,174.70442 261.21747,176.06305 258.46024,178.7004   C 255.66305,181.33775 254.26445,185.77329 254.26445,191.96707   z  M 294.86365,211.94698   L 294.86365,170.74839   L 300.29819,170.74839   L 300.29819,207.07188   L 320.59779,207.07188   L 320.59779,211.94698   z "
     style="fill:#000000;fill-rule:evenodd;fill-opacity:1;stroke:none;" />
</svg>
