<?xml version="1.0" encoding="UTF-8" standalone="no"?>
<svg
   xmlns:dc="http://purl.org/dc/elements/1.1/"
   xmlns:cc="http://creativecommons.org/ns#"
   xmlns:rdf="http://www.w3.org/1999/02/22-rdf-syntax-ns#"
   xmlns:svg="http://www.w3.org/2000/svg"
   xmlns="http://www.w3.org/2000/svg"
   id="svg13"
   height="130.27mm"
   width="130.27mm"
   version="1.0">
  <metadata
     id="metadata17">
    <rdf:RDF>
      <cc:Work
         rdf:about="">
        <dc:format>image/svg+xml</dc:format>
        <dc:type
           rdf:resource="http://purl.org/dc/dcmitype/StillImage" />
      </cc:Work>
    </rdf:RDF>
  </metadata>
  <defs
     id="defs3">
    <pattern
       y="0"
       x="0"
       height="6"
       width="6"
       patternUnits="userSpaceOnUse"
       id="EMFhbasepattern" />
  </defs>
  <path
     id="path5"
     d="  M 164.63454,327.67068   C 164.63454,437.95983 327.67068,437.95983 327.67068,327.67068   C 437.95983,327.67068 437.95983,164.63454 327.67068,164.63454   C 327.67068,54.345381 164.63454,54.345381 164.63454,164.63454   C 54.345381,164.63454 54.345381,327.67068 164.63454,327.67068   z "
     style="fill:#ffff80;fill-rule:evenodd;fill-opacity:1;stroke:none;" />
  <path
     id="path7"
     d="  M 164.63454,327.67068   C 164.63454,437.95983 327.67068,437.95983 327.67068,327.67068   C 437.95983,327.67068 437.95983,164.63454 327.67068,164.63454   C 327.67068,54.345381 164.63454,54.345381 164.63454,164.63454   C 54.345381,164.63454 54.345381,327.67068 164.63454,327.67068  "
     style="fill:none;stroke:#000000;stroke-width:9.5903616px;stroke-linecap:butt;stroke-linejoin:miter;stroke-miterlimit:10;stroke-dasharray:none;stroke-opacity:1;" />
  <path
     id="path9"
     d="  M 246.15261,217.38152   L 198.68032,195.80321   C 151.20803,174.2249 151.20803,260.53815 198.68032,238.95984   L 246.15261,217.38152   L 293.6249,195.80321   C 341.09718,174.2249 341.09718,260.53815 293.6249,238.95984   L 246.15261,217.38152   z "
     style="fill:#000000;fill-rule:evenodd;fill-opacity:1;stroke:none;" />
  <path
     id="path11"
     d="  M 169.3498,288.66988   L 153.40582,247.47128   L 159.27992,247.47128   L 169.98915,277.4012   C 170.86827,279.79879 171.58755,282.03654 172.14699,284.15441   C 172.78634,281.91666 173.54558,279.63895 174.38474,277.4012   L 185.49357,247.47128   L 191.08795,247.47128   L 174.94417,288.66988   z  M 194.1249,275.44317   L 199.23976,275.00361   C 199.47952,277.04156 200.07891,278.75984 200.95803,280.07851   C 201.83715,281.39718 203.23574,282.43614 205.11385,283.2753   C 206.95201,284.07449 209.06988,284.47409 211.42751,284.47409   C 213.50542,284.47409 215.34357,284.19437 216.94196,283.55502   C 218.5004,282.95562 219.69919,282.0765 220.49839,281.03755   C 221.25763,279.95863 221.65723,278.75984 221.65723,277.48112   C 221.65723,276.20241 221.25763,275.08353 220.53835,274.12449   C 219.77911,273.1255 218.54036,272.3263 216.82209,271.68694   C 215.70321,271.24739 213.26566,270.56807 209.46947,269.64899   C 205.71325,268.76988 203.03594,267.89076 201.51747,267.09156   C 199.55943,266.05261 198.08092,264.77389 197.12188,263.25542   C 196.16285,261.73694 195.68333,260.01867 195.68333,258.14056   C 195.68333,256.06265 196.28273,254.10461 197.44156,252.30642   C 198.64036,250.50823 200.35863,249.10963 202.63634,248.19056   C 204.87409,247.23152 207.39156,246.79196 210.18875,246.79196   C 213.2257,246.79196 215.94297,247.27148 218.26064,248.27048   C 220.57831,249.22951 222.3765,250.66807 223.65522,252.58614   C 224.89397,254.50421 225.57329,256.66204 225.65321,259.09959   L 220.41847,259.49919   C 220.13875,256.86184 219.21968,254.90381 217.58132,253.58514   C 215.98293,252.26646 213.58534,251.58714 210.38855,251.58714   C 207.11184,251.58714 204.71425,252.18654 203.19578,253.38534   C 201.67731,254.62409 200.91807,256.06265 200.91807,257.78092   C 200.91807,259.25943 201.47751,260.45823 202.55642,261.41727   C 203.59538,262.3763 206.31265,263.3753 210.74819,264.37429   C 215.18373,265.37329 218.22068,266.25241 219.85903,266.97168   C 222.25662,268.09056 224.05482,269.48915 225.17369,271.16747   C 226.33253,272.88574 226.89196,274.84377 226.89196,277.04156   C 226.89196,279.23935 226.25261,281.31727 225.01385,283.23534   C 223.7751,285.19337 221.9769,286.67188 219.61927,287.7508   C 217.26164,288.82971 214.62429,289.38915 211.66727,289.38915   C 207.951,289.38915 204.83413,288.82971 202.31666,287.7508   C 199.79919,286.67188 197.8012,285.03353 196.36265,282.83574   C 194.92409,280.67791 194.20482,278.2004 194.1249,275.44317   z  M 244.83393,288.66988   L 244.83393,252.34638   L 231.24759,252.34638   L 231.24759,247.47128   L 263.89478,247.47128   L 263.89478,252.34638   L 250.26847,252.34638   L 250.26847,288.66988   z  M 267.8508,268.61004   C 267.8508,261.7769 269.68895,256.42229 273.3253,252.54618   C 277.0016,248.67008 281.75682,246.752 287.551,246.752   C 291.34718,246.752 294.78373,247.67108 297.86064,249.46927   C 300.89759,251.30743 303.21526,253.8249 304.81365,257.06164   C 306.41204,260.33835 307.21124,264.01465 307.21124,268.13052   C 307.21124,272.3263 306.37208,276.04257 304.69377,279.35923   C 303.01546,282.63594 300.61787,285.15341 297.54096,286.83172   C 294.42409,288.55 291.10743,289.38915 287.551,289.38915   C 283.63494,289.38915 280.19839,288.43012 277.12148,286.552   C 274.08453,284.71385 271.76686,282.15642 270.20843,278.87971   C 268.61004,275.64297 267.8508,272.24638 267.8508,268.61004   z  M 273.44518,268.68996   C 273.44518,273.64498 274.80381,277.56104 277.44116,280.43815   C 280.11847,283.2753 283.4751,284.71385 287.51104,284.71385   C 291.58694,284.71385 294.98353,283.2753 297.62088,280.39819   C 300.29819,277.52108 301.61686,273.40522 301.61686,268.09056   C 301.61686,264.77389 301.05743,261.81686 299.89859,259.33935   C 298.77971,256.82188 297.1014,254.90381 294.94357,253.50522   C 292.74578,252.14658 290.30823,251.42731 287.59096,251.42731   C 283.71486,251.42731 280.39819,252.78594 277.64096,255.42329   C 274.84377,258.06064 273.44518,262.49618 273.44518,268.68996   z  M 314.04437,288.66988   L 314.04437,247.47128   L 319.47891,247.47128   L 319.47891,283.79478   L 339.77851,283.79478   L 339.77851,288.66988   z "
     style="fill:#000000;fill-rule:evenodd;fill-opacity:1;stroke:none;" />
</svg>
