<?xml version="1.0" encoding="UTF-8" standalone="no"?>
<svg
   xmlns:dc="http://purl.org/dc/elements/1.1/"
   xmlns:cc="http://creativecommons.org/ns#"
   xmlns:rdf="http://www.w3.org/1999/02/22-rdf-syntax-ns#"
   xmlns:svg="http://www.w3.org/2000/svg"
   xmlns="http://www.w3.org/2000/svg"
   id="svg11"
   height="107.94mm"
   width="95.75mm"
   version="1.0">
  <metadata
     id="metadata15">
    <rdf:RDF>
      <cc:Work
         rdf:about="">
        <dc:format>image/svg+xml</dc:format>
        <dc:type
           rdf:resource="http://purl.org/dc/dcmitype/StillImage" />
      </cc:Work>
    </rdf:RDF>
  </metadata>
  <defs
     id="defs3">
    <pattern
       y="0"
       x="0"
       height="6"
       width="6"
       patternUnits="userSpaceOnUse"
       id="EMFhbasepattern" />
  </defs>
  <path
     id="path5"
     d="  M 54.345381,353.56465   L 54.345381,171.34779   L 180.93815,54.345381   L 307.53092,171.34779   L 307.53092,353.56465   z "
     style="fill:#ff8080;fill-rule:evenodd;fill-opacity:1;stroke:none;" />
  <path
     id="path7"
     d="  M 54.345381,353.56465   L 54.345381,171.34779   L 180.93815,54.345381   L 307.53092,171.34779   L 307.53092,353.56465  "
     style="fill:none;stroke:#000000;stroke-width:9.5903616px;stroke-linecap:butt;stroke-linejoin:miter;stroke-miterlimit:10;stroke-dasharray:none;stroke-opacity:1;" />
  <path
     id="path9"
     d="  M 135.66365,263.41526   L 110.36907,198.2008   L 119.71968,198.2008   L 136.66265,245.59317   C 138.06124,249.38935 139.18012,252.94578 140.09919,256.26245   C 141.09819,252.70602 142.29699,249.14959 143.61566,245.59317   L 161.23795,198.2008   L 170.02911,198.2008   L 144.49478,263.41526   z  M 179.25984,263.41526   L 179.25984,198.2008   L 187.89116,198.2008   L 187.89116,263.41526   z  M 203.11586,263.41526   L 203.11586,198.2008   L 227.69116,198.2008   C 232.04678,198.2008 235.32349,198.44056 237.6012,198.84016   C 240.83795,199.35964 243.51526,200.39859 245.67309,201.87711   C 247.83092,203.39558 249.58915,205.47349 250.90783,208.19076   C 252.2265,210.86807 252.86586,213.86506 252.86586,217.06184   C 252.86586,222.61626 251.10763,227.33152 247.59116,231.16767   C 244.0747,235.00381 237.68112,236.92188 228.4504,236.92188   L 211.74719,236.92188   L 211.74719,263.41526   z  M 211.74719,229.20964   L 228.57028,229.20964   C 234.16466,229.20964 238.12068,228.17068 240.47831,226.13273   C 242.79598,224.05482 243.99478,221.09779 243.99478,217.34156   C 243.99478,214.62429 243.2755,212.26666 241.91686,210.34859   C 240.51827,208.39056 238.72008,207.11184 236.48233,206.47249   C 235.00381,206.11285 232.3265,205.91305 228.41044,205.91305   L 211.74719,205.91305   z "
     style="fill:#000000;fill-rule:evenodd;fill-opacity:1;stroke:none;" />
</svg>
