<?xml version="1.0" encoding="UTF-8" standalone="no"?>
<svg
   xmlns:dc="http://purl.org/dc/elements/1.1/"
   xmlns:cc="http://creativecommons.org/ns#"
   xmlns:rdf="http://www.w3.org/1999/02/22-rdf-syntax-ns#"
   xmlns:svg="http://www.w3.org/2000/svg"
   xmlns="http://www.w3.org/2000/svg"
   id="svg11"
   height="125.53mm"
   width="95.75mm"
   version="1.0">
  <metadata
     id="metadata15">
    <rdf:RDF>
      <cc:Work
         rdf:about="">
        <dc:format>image/svg+xml</dc:format>
        <dc:type
           rdf:resource="http://purl.org/dc/dcmitype/StillImage" />
      </cc:Work>
    </rdf:RDF>
  </metadata>
  <defs
     id="defs3">
    <pattern
       y="0"
       x="0"
       height="6"
       width="6"
       patternUnits="userSpaceOnUse"
       id="EMFhbasepattern" />
  </defs>
  <path
     id="path5"
     d="  M 307.53092,420.05783   C 307.53092,54.665059 54.345381,54.665059 54.345381,420.05783   z "
     style="fill:#80e0ff;fill-rule:evenodd;fill-opacity:1;stroke:none;" />
  <path
     id="path7"
     d="  M 307.53092,420.05783   C 307.53092,54.665059 54.345381,54.665059 54.345381,420.05783  "
     style="fill:none;stroke:#000000;stroke-width:9.5903616px;stroke-linecap:butt;stroke-linejoin:miter;stroke-miterlimit:10;stroke-dasharray:none;stroke-opacity:1;" />
  <path
     id="path9"
     d="  M 135.66365,329.90843   L 110.36907,264.69397   L 119.71968,264.69397   L 136.66265,312.08634   C 138.06124,315.88253 139.18012,319.43895 140.09919,322.75562   C 141.09819,319.19919 142.29699,315.64277 143.61566,312.08634   L 161.23795,264.69397   L 170.02911,264.69397   L 144.49478,329.90843   z  M 179.25984,329.90843   L 179.25984,264.69397   L 187.89116,264.69397   L 187.89116,329.90843   z  M 203.11586,329.90843   L 203.11586,264.69397   L 227.69116,264.69397   C 232.04678,264.69397 235.32349,264.93373 237.6012,265.33333   C 240.83795,265.85281 243.51526,266.89176 245.67309,268.37028   C 247.83092,269.88875 249.58915,271.96666 250.90783,274.68393   C 252.2265,277.36124 252.86586,280.35823 252.86586,283.55502   C 252.86586,289.10943 251.10763,293.82469 247.59116,297.66084   C 244.0747,301.49698 237.68112,303.41506 228.4504,303.41506   L 211.74719,303.41506   L 211.74719,329.90843   z  M 211.74719,295.70281   L 228.57028,295.70281   C 234.16466,295.70281 238.12068,294.66385 240.47831,292.6259   C 242.79598,290.54799 243.99478,287.59096 243.99478,283.83473   C 243.99478,281.11747 243.2755,278.75984 241.91686,276.84176   C 240.51827,274.88373 238.72008,273.60502 236.48233,272.96566   C 235.00381,272.60602 232.3265,272.40622 228.41044,272.40622   L 211.74719,272.40622   z "
     style="fill:#000000;fill-rule:evenodd;fill-opacity:1;stroke:none;" />
</svg>
