<?xml version="1.0" encoding="UTF-8" standalone="no"?>
<svg
   xmlns:dc="http://purl.org/dc/elements/1.1/"
   xmlns:cc="http://creativecommons.org/ns#"
   xmlns:rdf="http://www.w3.org/1999/02/22-rdf-syntax-ns#"
   xmlns:svg="http://www.w3.org/2000/svg"
   xmlns="http://www.w3.org/2000/svg"
   id="svg11"
   height="101.85mm"
   width="95.75mm"
   version="1.0">
  <metadata
     id="metadata15">
    <rdf:RDF>
      <cc:Work
         rdf:about="">
        <dc:format>image/svg+xml</dc:format>
        <dc:type
           rdf:resource="http://purl.org/dc/dcmitype/StillImage" />
      </cc:Work>
    </rdf:RDF>
  </metadata>
  <defs
     id="defs3">
    <pattern
       y="0"
       x="0"
       height="6"
       width="6"
       patternUnits="userSpaceOnUse"
       id="EMFhbasepattern" />
  </defs>
  <path
     id="path5"
     d="  M 54.345381,54.345381   L 54.345381,330.54779   L 307.53092,330.54779   L 307.53092,54.345381   L 54.345381,54.345381   z "
     style="fill:#aaffaa;fill-rule:evenodd;fill-opacity:1;stroke:none;" />
  <path
     id="path7"
     d="  M 54.345381,330.54779   L 54.345381,54.345381   L 307.53092,54.345381   L 307.53092,330.54779  "
     style="fill:none;stroke:#000000;stroke-width:9.5903616px;stroke-linecap:butt;stroke-linejoin:miter;stroke-miterlimit:10;stroke-dasharray:none;stroke-opacity:1;" />
  <path
     id="path9"
     d="  M 135.66365,240.39839   L 110.36907,175.18393   L 119.71968,175.18393   L 136.66265,222.5763   C 138.06124,226.37249 139.18012,229.92891 140.09919,233.24558   C 141.09819,229.68915 142.29699,226.13273 143.61566,222.5763   L 161.23795,175.18393   L 170.02911,175.18393   L 144.49478,240.39839   z  M 179.25984,240.39839   L 179.25984,175.18393   L 187.89116,175.18393   L 187.89116,240.39839   z  M 203.11586,240.39839   L 203.11586,175.18393   L 227.69116,175.18393   C 232.04678,175.18393 235.32349,175.42369 237.6012,175.82329   C 240.83795,176.34277 243.51526,177.38172 245.67309,178.86024   C 247.83092,180.37871 249.58915,182.45662 250.90783,185.17389   C 252.2265,187.8512 252.86586,190.84819 252.86586,194.04498   C 252.86586,199.59939 251.10763,204.31466 247.59116,208.1508   C 244.0747,211.98694 237.68112,213.90502 228.4504,213.90502   L 211.74719,213.90502   L 211.74719,240.39839   z  M 211.74719,206.19277   L 228.57028,206.19277   C 234.16466,206.19277 238.12068,205.15381 240.47831,203.11586   C 242.79598,201.03795 243.99478,198.08092 243.99478,194.3247   C 243.99478,191.60743 243.2755,189.2498 241.91686,187.33172   C 240.51827,185.37369 238.72008,184.09498 236.48233,183.45562   C 235.00381,183.09598 232.3265,182.89618 228.41044,182.89618   L 211.74719,182.89618   z "
     style="fill:#000000;fill-rule:evenodd;fill-opacity:1;stroke:none;" />
</svg>
