<?xml version="1.0" encoding="UTF-8" standalone="no"?>
<svg
   xmlns:dc="http://purl.org/dc/elements/1.1/"
   xmlns:cc="http://creativecommons.org/ns#"
   xmlns:rdf="http://www.w3.org/1999/02/22-rdf-syntax-ns#"
   xmlns:svg="http://www.w3.org/2000/svg"
   xmlns="http://www.w3.org/2000/svg"
   id="svg11"
   height="116.06mm"
   width="135.35001mm"
   version="1.0">
  <metadata
     id="metadata15">
    <rdf:RDF>
      <cc:Work
         rdf:about="">
        <dc:format>image/svg+xml</dc:format>
        <dc:type
           rdf:resource="http://purl.org/dc/dcmitype/StillImage" />
      </cc:Work>
    </rdf:RDF>
  </metadata>
  <defs
     id="defs3">
    <pattern
       y="0"
       x="0"
       height="6"
       width="6"
       patternUnits="userSpaceOnUse"
       id="EMFhbasepattern" />
  </defs>
  <path
     id="path5"
     d="  M 337.26104,384.25381   C 457.14056,384.25381 457.14056,187.6514 337.26104,187.6514   C 337.26104,54.345381 174.2249,54.345381 174.2249,187.6514   C 54.345381,187.6514 54.345381,384.25381 174.2249,384.25381   z "
     style="fill:#ffff80;fill-rule:evenodd;fill-opacity:1;stroke:none;" />
  <path
     id="path7"
     d="  M 337.26104,384.25381   C 457.14056,384.25381 457.14056,187.6514 337.26104,187.6514   C 337.26104,54.345381 174.2249,54.345381 174.2249,187.6514   C 54.345381,187.6514 54.345381,384.25381 174.2249,384.25381  "
     style="fill:none;stroke:#000000;stroke-width:9.5903616px;stroke-linecap:butt;stroke-linejoin:miter;stroke-miterlimit:10;stroke-dasharray:none;stroke-opacity:1;" />
  <path
     id="path9"
     d="  M 210.46847,294.10441   L 185.17389,228.88996   L 194.5245,228.88996   L 211.46747,276.28233   C 212.86606,280.07851 213.98494,283.63494 214.90401,286.9516   C 215.90301,283.39518 217.1018,279.83875 218.42048,276.28233   L 236.04277,228.88996   L 244.83393,228.88996   L 219.2996,294.10441   z  M 254.06465,294.10441   L 254.06465,228.88996   L 262.69598,228.88996   L 262.69598,294.10441   z  M 277.92068,294.10441   L 277.92068,228.88996   L 302.49598,228.88996   C 306.8516,228.88996 310.12831,229.12972 312.40602,229.52931   C 315.64277,230.04879 318.32008,231.08775 320.47791,232.56626   C 322.63574,234.08474 324.39397,236.16265 325.71265,238.87992   C 327.03132,241.55723 327.67068,244.55421 327.67068,247.751   C 327.67068,253.30542 325.91245,258.02068 322.39598,261.85682   C 318.87951,265.69297 312.48594,267.61104 303.25522,267.61104   L 286.552,267.61104   L 286.552,294.10441   z  M 286.552,259.89879   L 303.3751,259.89879   C 308.96947,259.89879 312.9255,258.85984 315.28313,256.82188   C 317.6008,254.74397 318.79959,251.78694 318.79959,248.03072   C 318.79959,245.31345 318.08032,242.95582 316.72168,241.03775   C 315.32309,239.07972 313.5249,237.801 311.28714,237.16164   C 309.80863,236.802 307.13132,236.60221 303.21526,236.60221   L 286.552,236.60221   z "
     style="fill:#000000;fill-rule:evenodd;fill-opacity:1;stroke:none;" />
</svg>
