<?xml version="1.0" encoding="UTF-8" standalone="no"?>
<svg
   xmlns:dc="http://purl.org/dc/elements/1.1/"
   xmlns:cc="http://creativecommons.org/ns#"
   xmlns:rdf="http://www.w3.org/1999/02/22-rdf-syntax-ns#"
   xmlns:svg="http://www.w3.org/2000/svg"
   xmlns="http://www.w3.org/2000/svg"
   id="svg13"
   height="69.699997mm"
   width="63.279999mm"
   version="1.0">
  <metadata
     id="metadata17">
    <rdf:RDF>
      <cc:Work
         rdf:about="">
        <dc:format>image/svg+xml</dc:format>
        <dc:type
           rdf:resource="http://purl.org/dc/dcmitype/StillImage" />
      </cc:Work>
    </rdf:RDF>
  </metadata>
  <defs
     id="defs3">
    <pattern
       y="0"
       x="0"
       height="6"
       width="6"
       patternUnits="userSpaceOnUse"
       id="EMFhbasepattern" />
  </defs>
  <path
     id="path5"
     d="  M 0.59939758,239.11968   L 72.007629,241.27751   L 72.007629,234.80401   L 11.428514,232.64618   L 52.547188,105.01446   L 186.65241,105.01446   L 227.77108,232.64618   L 167.19197,234.80401   L 167.19197,241.27751   L 238.56024,239.11968   C 234.24457,217.5014 221.25763,189.36968 214.78413,165.59357   C 210.42851,154.76446 197.48152,96.343171 186.65241,96.343171   L 52.547188,96.343171   C 41.718072,96.343171 28.731124,154.76446 24.415461,165.59357   C 17.941968,189.36968 4.95502,217.5014 0.59939758,239.11968   z "
     style="fill:#000000;fill-rule:evenodd;fill-opacity:1;stroke:none;" />
  <path
     id="path7"
     d="  M 95.783734,234.80401   L 95.783734,241.27751   C 95.783734,252.10662 106.61285,262.93574 117.44197,262.93574   L 121.75763,262.93574   C 132.58675,262.93574 143.3759,252.10662 143.3759,241.27751   L 143.3759,234.80401   C 143.3759,223.9749 132.58675,213.18574 121.75763,213.18574   L 117.44197,213.18574   C 106.61285,213.18574 95.783734,223.9749 95.783734,234.80401   z "
     style="fill:#000000;fill-rule:evenodd;fill-opacity:1;stroke:none;" />
  <path
     id="path9"
     d="  M 98.900601,5.4345381   L 98.900601,15.824096   C 102.9765,15.704217 109.41004,10.349598 116.92249,10.349598   L 118.56084,10.349598   C 125.35401,10.349598 129.62972,11.348594 132.66666,15.344578   C 135.42389,18.980923 135.94337,25.574297 133.90542,30.089759   C 129.9494,39.000803 113.64578,46.792971 113.64578,48.551204   L 113.64578,65.454216   L 124.55482,65.454216   L 124.55482,52.906827   C 124.55482,50.788955 147.49176,40.519277 147.49176,25.614257   L 147.49176,19.620281   C 147.49176,9.3506023 134.86446,0.5194779 124.03534,0.5194779   L 118.0014,0.5194779   C 114.20522,0.5194779 98.900601,2.9170682 98.900601,5.4345381   z "
     style="fill:#1f1a17;fill-rule:evenodd;fill-opacity:1;stroke:none;" />
  <path
     id="path11"
     d="  M 113.08634,88.391163   L 113.08634,88.391163   L 125.11426,88.391163   L 125.11426,75.843774   L 113.08634,75.843774   z "
     style="fill:#1f1a17;fill-rule:evenodd;fill-opacity:1;stroke:none;" />
</svg>
