<?xml version="1.0" encoding="UTF-8" standalone="no"?>
<svg
   xmlns:dc="http://purl.org/dc/elements/1.1/"
   xmlns:cc="http://creativecommons.org/ns#"
   xmlns:rdf="http://www.w3.org/1999/02/22-rdf-syntax-ns#"
   xmlns:svg="http://www.w3.org/2000/svg"
   xmlns="http://www.w3.org/2000/svg"
   id="svg21"
   height="101.85mm"
   width="101.85mm"
   version="1.0">
  <metadata
     id="metadata25">
    <rdf:RDF>
      <cc:Work
         rdf:about="">
        <dc:format>image/svg+xml</dc:format>
        <dc:type
           rdf:resource="http://purl.org/dc/dcmitype/StillImage" />
      </cc:Work>
    </rdf:RDF>
  </metadata>
  <defs
     id="defs3">
    <pattern
       y="0"
       x="0"
       height="6"
       width="6"
       patternUnits="userSpaceOnUse"
       id="EMFhbasepattern" />
  </defs>
  <path
     id="path5"
     d="  M 330.54779,192.44658   C 330.54779,268.72992 268.72992,330.54779 192.44658,330.54779   C 116.20321,330.54779 54.345381,268.72992 54.345381,192.44658   C 54.345381,116.20321 116.20321,54.345381 192.44658,54.345381   C 268.72992,54.345381 330.54779,116.20321 330.54779,192.44658   z "
     style="fill:#80e0ff;fill-rule:evenodd;fill-opacity:1;stroke:none;" />
  <path
     id="path7"
     d="  M 330.54779,192.44658   C 330.54779,268.72992 268.72992,330.54779 192.44658,330.54779   C 116.20321,330.54779 54.345381,268.72992 54.345381,192.44658   C 54.345381,116.20321 116.20321,54.345381 192.44658,54.345381   C 268.72992,54.345381 330.54779,116.20321 330.54779,192.44658  "
     style="fill:none;stroke:#000000;stroke-width:9.5903616px;stroke-linecap:butt;stroke-linejoin:miter;stroke-miterlimit:10;stroke-dasharray:none;stroke-opacity:1;" />
  <path
     id="path9"
     d="  M 144.49478,130.10924   C 88.870681,130.10924 88.870681,219.2996 144.49478,219.2996   L 240.39839,219.2996   C 296.02249,219.2996 296.02249,130.10924 240.39839,130.10924   z "
     style="fill:none;stroke:#000000;stroke-width:9.5903616px;stroke-linecap:butt;stroke-linejoin:miter;stroke-miterlimit:10;stroke-dasharray:none;stroke-opacity:1;" />
  <path
     id="path11"
     d="  M 128.19116,235.60321   C 128.19116,242.51626 122.63675,248.07068 115.72369,248.07068   C 108.8506,248.07068 103.25622,242.51626 103.25622,235.60321   C 103.25622,228.73012 108.8506,223.13574 115.72369,223.13574   C 122.63675,223.13574 128.19116,228.73012 128.19116,235.60321  "
     style="fill:none;stroke:#000000;stroke-width:9.5903616px;stroke-linecap:butt;stroke-linejoin:miter;stroke-miterlimit:10;stroke-dasharray:none;stroke-opacity:1;" />
  <path
     id="path13"
     d="  M 281.63694,235.60321   C 281.63694,242.51626 276.08253,248.07068 269.16947,248.07068   C 262.29638,248.07068 256.702,242.51626 256.702,235.60321   C 256.702,228.73012 262.29638,223.13574 269.16947,223.13574   C 276.08253,223.13574 281.63694,228.73012 281.63694,235.60321  "
     style="fill:none;stroke:#000000;stroke-width:9.5903616px;stroke-linecap:butt;stroke-linejoin:miter;stroke-miterlimit:10;stroke-dasharray:none;stroke-opacity:1;" />
  <path
     id="path15"
     d="  M 98.461043,219.2996   L 286.43212,219.2996  "
     style="fill:none;stroke:#000000;stroke-width:9.5903616px;stroke-linecap:butt;stroke-linejoin:miter;stroke-miterlimit:10;stroke-dasharray:none;stroke-opacity:1;" />
  <path
     id="path17"
     d="  M 150.80843,166.99217   L 150.80843,134.06526   L 157.36185,134.06526   L 165.15401,157.4018   C 165.87329,159.55964 166.43273,161.19799 166.75241,162.27691   C 167.11205,161.07811 167.71144,159.31988 168.51064,156.96225   L 176.38273,134.06526   L 182.25682,134.06526   L 182.25682,166.99217   L 178.06104,166.99217   L 178.06104,139.41988   L 168.47068,166.99217   L 164.55462,166.99217   L 155.00421,138.94036   L 155.00421,166.99217   z  M 187.81124,156.40281   L 191.92711,156.04317   C 192.1269,157.72148 192.56646,159.08012 193.28574,160.11907   C 194.00502,161.15803 195.08393,162.03715 196.60241,162.6765   C 198.08092,163.31586 199.75923,163.6755 201.63735,163.6755   C 203.31566,163.6755 204.79417,163.39578 206.07289,162.91626   C 207.31164,162.43674 208.27068,161.75743 208.91004,160.87831   C 209.50943,160.03915 209.82911,159.08012 209.82911,158.04116   C 209.82911,157.04217 209.54939,156.12309 208.95,155.36385   C 208.3506,154.56466 207.3516,153.9253 205.95301,153.40582   C 205.07389,153.04618 203.11586,152.5267 200.11887,151.80743   C 197.08192,151.08815 194.96405,150.40883 193.7253,149.72952   C 192.16686,148.93032 191.00803,147.89136 190.20883,146.69257   C 189.4496,145.45381 189.05,144.09518 189.05,142.5767   C 189.05,140.89839 189.52952,139.33996 190.48855,137.9014   C 191.40763,136.46285 192.80622,135.38393 194.60441,134.6247   C 196.44257,133.86546 198.44056,133.50582 200.67831,133.50582   C 203.11586,133.50582 205.27369,133.90542 207.11184,134.66466   C 208.98996,135.46385 210.42851,136.62269 211.42751,138.14116   C 212.4265,139.65964 212.98594,141.41787 213.06586,143.33594   L 208.87008,143.65562   C 208.63032,141.57771 207.87108,139.97932 206.59237,138.94036   C 205.27369,137.86144 203.35562,137.34197 200.83815,137.34197   C 198.2008,137.34197 196.28273,137.82148 195.08393,138.78052   C 193.88514,139.73956 193.28574,140.89839 193.28574,142.29699   C 193.28574,143.45582 193.68534,144.45482 194.56446,145.21405   C 195.40361,145.97329 197.56144,146.73253 201.11787,147.57168   C 204.67429,148.37088 207.11184,149.0502 208.43052,149.6496   C 210.34859,150.52871 211.74719,151.64759 212.66626,153.00622   C 213.58534,154.36486 214.0249,155.92329 214.0249,157.68152   C 214.0249,159.43976 213.54538,161.11807 212.54638,162.6765   C 211.50743,164.19498 210.06887,165.43373 208.19076,166.27289   C 206.31265,167.15201 204.19478,167.5516 201.83715,167.5516   C 198.88012,167.5516 196.36265,167.15201 194.36466,166.27289   C 192.3267,165.39377 190.76827,164.0751 189.60944,162.35682   C 188.4506,160.59859 187.8512,158.64056 187.81124,156.40281   z  M 219.81907,166.99217   L 219.81907,134.06526   L 224.1747,134.06526   L 224.1747,163.11606   L 240.39839,163.11606   L 240.39839,166.99217   z "
     style="fill:#000000;fill-rule:evenodd;fill-opacity:1;stroke:none;" />
  <path
     id="path19"
     d="  M 148.0512,205.35361   L 139.33996,172.4267   L 143.7755,172.4267   L 148.81044,194.00502   C 149.32992,196.28273 149.80944,198.52048 150.20903,200.75823   C 151.04819,197.24176 151.52771,195.20381 151.68755,194.68433   L 157.96124,172.4267   L 163.19598,172.4267   L 167.9512,189.08996   C 169.11004,193.24578 169.98915,197.12188 170.50863,200.75823   C 170.90823,198.68032 171.46767,196.28273 172.14699,193.60542   L 177.3018,172.4267   L 181.69739,172.4267   L 172.66646,205.35361   L 168.47068,205.35361   L 161.51767,180.25883   C 160.91827,178.18092 160.55863,176.86225 160.47871,176.38273   C 160.11907,177.9012 159.7994,179.17992 159.51968,180.25883   L 152.5267,205.35361   z  M 185.89317,205.35361   L 185.89317,172.4267   L 190.24879,172.4267   L 190.24879,185.93313   L 207.39156,185.93313   L 207.39156,172.4267   L 211.74719,172.4267   L 211.74719,205.35361   L 207.39156,205.35361   L 207.39156,189.84919   L 190.24879,189.84919   L 190.24879,205.35361   z  M 219.01988,205.35361   L 219.01988,172.4267   L 230.36847,172.4267   C 232.9259,172.4267 234.88393,172.58654 236.20261,172.90622   C 238.12068,173.30582 239.71907,174.10502 241.03775,175.26385   C 242.79598,176.70241 244.0747,178.58052 244.95381,180.89819   C 245.83293,183.1759 246.23253,185.77329 246.23253,188.73032   C 246.23253,191.20783 245.95281,193.44558 245.35341,195.36365   C 244.79397,197.28172 244.03474,198.88012 243.11566,200.15883   C 242.19658,201.43755 241.19759,202.43654 240.11867,203.15582   C 239.03976,203.8751 237.72108,204.43454 236.20261,204.79417   C 234.64417,205.19377 232.88594,205.35361 230.88795,205.35361   z  M 223.3755,201.47751   L 230.40843,201.47751   C 232.56626,201.47751 234.28453,201.27771 235.52329,200.87811   C 236.76204,200.47851 237.72108,199.91907 238.48032,199.15984   C 239.51927,198.12088 240.31847,196.72229 240.87791,195.00401   C 241.47731,193.24578 241.75702,191.12791 241.75702,188.6504   C 241.75702,185.21385 241.19759,182.53654 240.03875,180.69839   C 238.91988,178.86024 237.56124,177.62148 235.92289,176.98213   C 234.76405,176.54257 232.88594,176.30281 230.28855,176.30281   L 223.3755,176.30281   z "
     style="fill:#000000;fill-rule:evenodd;fill-opacity:1;stroke:none;" />
</svg>
