<?xml version="1.0" encoding="UTF-8" standalone="no"?>
<svg
   xmlns:dc="http://purl.org/dc/elements/1.1/"
   xmlns:cc="http://creativecommons.org/ns#"
   xmlns:rdf="http://www.w3.org/1999/02/22-rdf-syntax-ns#"
   xmlns:svg="http://www.w3.org/2000/svg"
   xmlns="http://www.w3.org/2000/svg"
   id="svg21"
   height="95.75mm"
   width="95.75mm"
   version="1.0">
  <metadata
     id="metadata25">
    <rdf:RDF>
      <cc:Work
         rdf:about="">
        <dc:format>image/svg+xml</dc:format>
        <dc:type
           rdf:resource="http://purl.org/dc/dcmitype/StillImage" />
      </cc:Work>
    </rdf:RDF>
  </metadata>
  <defs
     id="defs3">
    <pattern
       y="0"
       x="0"
       height="6"
       width="6"
       patternUnits="userSpaceOnUse"
       id="EMFhbasepattern" />
  </defs>
  <path
     id="path5"
     d="  M 54.345381,54.345381   L 54.345381,307.53092   L 307.53092,307.53092   L 307.53092,54.345381   L 54.345381,54.345381   z "
     style="fill:#aaffaa;fill-rule:evenodd;fill-opacity:1;stroke:none;" />
  <path
     id="path7"
     d="  M 54.345381,54.345381   L 307.53092,54.345381   L 307.53092,307.53092   L 54.345381,307.53092   z "
     style="fill:none;stroke:#000000;stroke-width:9.5903616px;stroke-linecap:butt;stroke-linejoin:miter;stroke-miterlimit:10;stroke-dasharray:none;stroke-opacity:1;" />
  <path
     id="path9"
     d="  M 132.98634,118.6008   C 77.362248,118.6008 77.362248,207.79116 132.98634,207.79116   L 228.88996,207.79116   C 284.51405,207.79116 284.51405,118.6008 228.88996,118.6008   z "
     style="fill:none;stroke:#000000;stroke-width:9.5903616px;stroke-linecap:butt;stroke-linejoin:miter;stroke-miterlimit:10;stroke-dasharray:none;stroke-opacity:1;" />
  <path
     id="path11"
     d="  M 116.68273,224.09478   C 116.68273,231.00783 111.12831,236.56225 104.21526,236.56225   C 97.342167,236.56225 91.74779,231.00783 91.74779,224.09478   C 91.74779,217.22168 97.342167,211.62731 104.21526,211.62731   C 111.12831,211.62731 116.68273,217.22168 116.68273,224.09478  "
     style="fill:none;stroke:#000000;stroke-width:9.5903616px;stroke-linecap:butt;stroke-linejoin:miter;stroke-miterlimit:10;stroke-dasharray:none;stroke-opacity:1;" />
  <path
     id="path13"
     d="  M 270.12851,224.09478   C 270.12851,231.00783 264.57409,236.56225 257.66104,236.56225   C 250.78795,236.56225 245.19357,231.00783 245.19357,224.09478   C 245.19357,217.22168 250.78795,211.62731 257.66104,211.62731   C 264.57409,211.62731 270.12851,217.22168 270.12851,224.09478  "
     style="fill:none;stroke:#000000;stroke-width:9.5903616px;stroke-linecap:butt;stroke-linejoin:miter;stroke-miterlimit:10;stroke-dasharray:none;stroke-opacity:1;" />
  <path
     id="path15"
     d="  M 86.952609,207.79116   L 274.92369,207.79116  "
     style="fill:none;stroke:#000000;stroke-width:9.5903616px;stroke-linecap:butt;stroke-linejoin:miter;stroke-miterlimit:10;stroke-dasharray:none;stroke-opacity:1;" />
  <path
     id="path17"
     d="  M 139.3,155.48373   L 139.3,122.55683   L 145.85341,122.55683   L 153.64558,145.89337   C 154.36486,148.0512 154.92429,149.68956 155.24397,150.76847   C 155.60361,149.56968 156.20301,147.81144 157.00221,145.45381   L 164.87429,122.55683   L 170.74839,122.55683   L 170.74839,155.48373   L 166.55261,155.48373   L 166.55261,127.91144   L 156.96225,155.48373   L 153.04618,155.48373   L 143.49578,127.43193   L 143.49578,155.48373   z  M 176.30281,144.89438   L 180.41867,144.53474   C 180.61847,146.21305 181.05803,147.57168 181.77731,148.61064   C 182.49658,149.6496 183.5755,150.52871 185.09397,151.16807   C 186.57249,151.80743 188.2508,152.16707 190.12891,152.16707   C 191.80723,152.16707 193.28574,151.88735 194.56446,151.40783   C 195.80321,150.92831 196.76225,150.24899 197.4016,149.36988   C 198.001,148.53072 198.32068,147.57168 198.32068,146.53273   C 198.32068,145.53373 198.04096,144.61466 197.44156,143.85542   C 196.84217,143.05622 195.84317,142.41687 194.44458,141.89739   C 193.56546,141.53775 191.60743,141.01827 188.61044,140.29899   C 185.57349,139.57972 183.45562,138.9004 182.21686,138.22108   C 180.65843,137.42189 179.4996,136.38293 178.7004,135.18413   C 177.94116,133.94538 177.54156,132.58675 177.54156,131.06827   C 177.54156,129.38996 178.02108,127.83152 178.98012,126.39297   C 179.89919,124.95442 181.29779,123.8755 183.09598,123.11626   C 184.93413,122.35703 186.93213,121.99739 189.16988,121.99739   C 191.60743,121.99739 193.76526,122.39699 195.60341,123.15622   C 197.48152,123.95542 198.92008,125.11426 199.91907,126.63273   C 200.91807,128.1512 201.47751,129.90944 201.55743,131.82751   L 197.36164,132.14719   C 197.12188,130.06928 196.36265,128.47088 195.08393,127.43193   C 193.76526,126.35301 191.84719,125.83353 189.32972,125.83353   C 186.69237,125.83353 184.77429,126.31305 183.5755,127.27209   C 182.3767,128.23112 181.77731,129.38996 181.77731,130.78855   C 181.77731,131.94739 182.1769,132.94638 183.05602,133.70562   C 183.89518,134.46486 186.05301,135.22409 189.60944,136.06325   C 193.16586,136.86245 195.60341,137.54177 196.92209,138.14116   C 198.84016,139.02028 200.23875,140.13915 201.15783,141.49779   C 202.0769,142.85642 202.51646,144.41486 202.51646,146.17309   C 202.51646,147.93132 202.03694,149.60964 201.03795,151.16807   C 199.99899,152.68654 198.56044,153.9253 196.68233,154.76446   C 194.80421,155.64357 192.68634,156.04317 190.32871,156.04317   C 187.37168,156.04317 184.85421,155.64357 182.85622,154.76446   C 180.81827,153.88534 179.25984,152.56666 178.101,150.84839   C 176.94217,149.09016 176.34277,147.13213 176.30281,144.89438   z  M 208.31064,155.48373   L 208.31064,122.55683   L 212.66626,122.55683   L 212.66626,151.60763   L 228.88996,151.60763   L 228.88996,155.48373   z "
     style="fill:#000000;fill-rule:evenodd;fill-opacity:1;stroke:none;" />
  <path
     id="path19"
     d="  M 136.54277,193.84518   L 127.83152,160.91827   L 132.26707,160.91827   L 137.30201,182.49658   C 137.82148,184.77429 138.301,187.01205 138.7006,189.2498   C 139.53976,185.73333 140.01928,183.69538 140.17911,183.1759   L 146.45281,160.91827   L 151.68755,160.91827   L 156.44277,177.58152   C 157.6016,181.73735 158.48072,185.61345 159.0002,189.2498   C 159.3998,187.17188 159.95923,184.77429 160.63855,182.09699   L 165.79337,160.91827   L 170.18895,160.91827   L 161.15803,193.84518   L 156.96225,193.84518   L 150.00923,168.7504   C 149.40984,166.67249 149.0502,165.35381 148.97028,164.87429   C 148.61064,166.39277 148.29096,167.67148 148.01124,168.7504   L 141.01827,193.84518   z  M 174.38474,193.84518   L 174.38474,160.91827   L 178.74036,160.91827   L 178.74036,174.4247   L 195.88313,174.4247   L 195.88313,160.91827   L 200.23875,160.91827   L 200.23875,193.84518   L 195.88313,193.84518   L 195.88313,178.34076   L 178.74036,178.34076   L 178.74036,193.84518   z  M 207.51144,193.84518   L 207.51144,160.91827   L 218.86004,160.91827   C 221.41747,160.91827 223.3755,161.07811 224.69417,161.39779   C 226.61225,161.79739 228.21064,162.59658 229.52931,163.75542   C 231.28755,165.19397 232.56626,167.07209 233.44538,169.38976   C 234.32449,171.66747 234.72409,174.26486 234.72409,177.22188   C 234.72409,179.69939 234.44437,181.93715 233.84498,183.85522   C 233.28554,185.77329 232.5263,187.37168 231.60723,188.6504   C 230.68815,189.92911 229.68915,190.92811 228.61024,191.64739   C 227.53132,192.36666 226.21265,192.9261 224.69417,193.28574   C 223.13574,193.68534 221.37751,193.84518 219.37951,193.84518   z  M 211.86707,189.96907   L 218.9,189.96907   C 221.05783,189.96907 222.7761,189.76927 224.01486,189.36968   C 225.25361,188.97008 226.21265,188.41064 226.97188,187.6514   C 228.01084,186.61245 228.81004,185.21385 229.36947,183.49558   C 229.96887,181.73735 230.24859,179.61948 230.24859,177.14197   C 230.24859,173.70542 229.68915,171.02811 228.53032,169.18996   C 227.41144,167.3518 226.05281,166.11305 224.41445,165.47369   C 223.25562,165.03413 221.37751,164.79438 218.78012,164.79438   L 211.86707,164.79438   z "
     style="fill:#000000;fill-rule:evenodd;fill-opacity:1;stroke:none;" />
</svg>
