<?xml version="1.0" encoding="UTF-8" standalone="no"?>
<svg
   xmlns:dc="http://purl.org/dc/elements/1.1/"
   xmlns:cc="http://creativecommons.org/ns#"
   xmlns:rdf="http://www.w3.org/1999/02/22-rdf-syntax-ns#"
   xmlns:svg="http://www.w3.org/2000/svg"
   xmlns="http://www.w3.org/2000/svg"
   id="svg17"
   height="60.060001mm"
   width="83.57mm"
   version="1.0">
  <metadata
     id="metadata21">
    <rdf:RDF>
      <cc:Work
         rdf:about="">
        <dc:format>image/svg+xml</dc:format>
        <dc:type
           rdf:resource="http://purl.org/dc/dcmitype/StillImage" />
      </cc:Work>
    </rdf:RDF>
  </metadata>
  <defs
     id="defs3">
    <pattern
       y="0"
       x="0"
       height="6"
       width="6"
       patternUnits="userSpaceOnUse"
       id="EMFhbasepattern" />
  </defs>
  <path
     id="path5"
     d="  M 109.96948,54.665059   C 54.345381,54.665059 54.345381,143.85542 109.96948,143.85542   L 205.87309,143.85542   C 261.49718,143.85542 261.49718,54.665059 205.87309,54.665059   z "
     style="fill:none;stroke:#ffff80;stroke-width:9.5903616px;stroke-linecap:butt;stroke-linejoin:miter;stroke-miterlimit:10;stroke-dasharray:none;stroke-opacity:1;" />
  <path
     id="path7"
     d="  M 93.665862,160.15903   C 93.665862,167.07209 88.111445,172.6265 81.198392,172.6265   C 74.3253,172.6265 68.730923,167.07209 68.730923,160.15903   C 68.730923,153.28594 74.3253,147.69156 81.198392,147.69156   C 88.111445,147.69156 93.665862,153.28594 93.665862,160.15903  "
     style="fill:none;stroke:#ffff80;stroke-width:9.5903616px;stroke-linecap:butt;stroke-linejoin:miter;stroke-miterlimit:10;stroke-dasharray:none;stroke-opacity:1;" />
  <path
     id="path9"
     d="  M 247.11164,160.15903   C 247.11164,167.07209 241.55723,172.6265 234.64417,172.6265   C 227.77108,172.6265 222.1767,167.07209 222.1767,160.15903   C 222.1767,153.28594 227.77108,147.69156 234.64417,147.69156   C 241.55723,147.69156 247.11164,153.28594 247.11164,160.15903  "
     style="fill:none;stroke:#ffff80;stroke-width:9.5903616px;stroke-linecap:butt;stroke-linejoin:miter;stroke-miterlimit:10;stroke-dasharray:none;stroke-opacity:1;" />
  <path
     id="path11"
     d="  M 63.935742,143.85542   L 251.90682,143.85542  "
     style="fill:none;stroke:#ffff80;stroke-width:9.5903616px;stroke-linecap:butt;stroke-linejoin:miter;stroke-miterlimit:10;stroke-dasharray:none;stroke-opacity:1;" />
  <path
     id="path13"
     d="  M 116.28313,91.547991   L 116.28313,58.621083   L 122.83654,58.621083   L 130.62871,81.957629   C 131.34799,84.115461 131.90743,85.753814 132.22711,86.83273   C 132.58675,85.633935 133.18614,83.875702 133.98534,81.518071   L 141.85743,58.621083   L 147.73152,58.621083   L 147.73152,91.547991   L 143.53574,91.547991   L 143.53574,63.975702   L 133.94538,91.547991   L 130.02932,91.547991   L 120.47891,63.496184   L 120.47891,91.547991   z  M 153.28594,80.958633   L 157.4018,80.598995   C 157.6016,82.277308 158.04116,83.635943 158.76044,84.674898   C 159.47972,85.713854 160.55863,86.592971 162.07711,87.232328   C 163.55562,87.871685 165.23393,88.231324 167.11205,88.231324   C 168.79036,88.231324 170.26887,87.951605 171.54759,87.472087   C 172.78634,86.992569 173.74538,86.313252 174.38474,85.434135   C 174.98413,84.594979 175.30381,83.635943 175.30381,82.596987   C 175.30381,81.597991 175.02409,80.678914 174.4247,79.919678   C 173.8253,79.120481 172.8263,78.481123 171.42771,77.961645   C 170.54859,77.602007 168.59056,77.082529 165.59357,76.363252   C 162.55662,75.643975 160.43875,74.964658 159.2,74.28534   C 157.64156,73.486144 156.48273,72.447188 155.68353,71.248393   C 154.92429,70.009638 154.5247,68.651003 154.5247,67.132529   C 154.5247,65.454216 155.00421,63.895782 155.96325,62.457228   C 156.88233,61.018674 158.28092,59.939758 160.07911,59.180521   C 161.91727,58.421284 163.91526,58.061646 166.15301,58.061646   C 168.59056,58.061646 170.74839,58.461244 172.58654,59.220481   C 174.46466,60.019678 175.90321,61.178513 176.90221,62.696987   C 177.9012,64.215461 178.46064,65.973694 178.54056,67.891766   L 174.34478,68.211445   C 174.10502,66.133533 173.34578,64.53514 172.06707,63.496184   C 170.74839,62.417268 168.83032,61.89779 166.31285,61.89779   C 163.6755,61.89779 161.75743,62.377308 160.55863,63.336344   C 159.35984,64.295381 158.76044,65.454216 158.76044,66.85281   C 158.76044,68.011646 159.16004,69.010642 160.03915,69.769879   C 160.87831,70.529115 163.03614,71.288352 166.59257,72.127509   C 170.14899,72.926706 172.58654,73.606023 173.90522,74.205421   C 175.82329,75.084537 177.22188,76.203413 178.14096,77.562047   C 179.06004,78.920682 179.4996,80.479115 179.4996,82.237348   C 179.4996,83.995581 179.02008,85.673894 178.02108,87.232328   C 176.98213,88.750802 175.54357,89.989557 173.66546,90.828714   C 171.78735,91.70783 169.66948,92.107428 167.31184,92.107428   C 164.35482,92.107428 161.83735,91.70783 159.83936,90.828714   C 157.8014,89.949597 156.24297,88.630922 155.08413,86.912649   C 153.9253,85.154416 153.3259,83.196384 153.28594,80.958633   z  M 185.29377,91.547991   L 185.29377,58.621083   L 189.64939,58.621083   L 189.64939,87.671886   L 205.87309,87.671886   L 205.87309,91.547991   z "
     style="fill:#ffff80;fill-rule:evenodd;fill-opacity:1;stroke:none;" />
  <path
     id="path15"
     d="  M 113.5259,129.90944   L 104.81466,96.982529   L 109.2502,96.982529   L 114.28514,118.56084   C 114.80462,120.83855 115.28413,123.0763 115.68373,125.31405   C 116.52289,121.79759 117.00241,119.75964 117.16225,119.24016   L 123.43594,96.982529   L 128.67068,96.982529   L 133.4259,113.64578   C 134.58474,117.8016 135.46385,121.67771 135.98333,125.31405   C 136.38293,123.23614 136.94237,120.83855 137.62168,118.16124   L 142.7765,96.982529   L 147.17209,96.982529   L 138.14116,129.90944   L 133.94538,129.90944   L 126.99237,104.81466   C 126.39297,102.73675 126.03333,101.41807 125.95341,100.93855   C 125.59377,102.45703 125.27409,103.73574 124.99438,104.81466   L 118.0014,129.90944   z  M 151.36787,129.90944   L 151.36787,96.982529   L 155.72349,96.982529   L 155.72349,110.48895   L 172.86626,110.48895   L 172.86626,96.982529   L 177.22188,96.982529   L 177.22188,129.90944   L 172.86626,129.90944   L 172.86626,114.40502   L 155.72349,114.40502   L 155.72349,129.90944   z  M 184.49458,129.90944   L 184.49458,96.982529   L 195.84317,96.982529   C 198.4006,96.982529 200.35863,97.142368 201.67731,97.462047   C 203.59538,97.861645 205.19377,98.660842 206.51245,99.819677   C 208.27068,101.25823 209.54939,103.13634 210.42851,105.45401   C 211.30763,107.73173 211.70723,110.32911 211.70723,113.28614   C 211.70723,115.76365 211.42751,118.0014 210.82811,119.91948   C 210.26867,121.83755 209.50943,123.43594 208.59036,124.71466   C 207.67128,125.99337 206.67229,126.99237 205.59337,127.71164   C 204.51445,128.43092 203.19578,128.99036 201.67731,129.35   C 200.11887,129.7496 198.36064,129.90944 196.36265,129.90944   z  M 188.8502,126.03333   L 195.88313,126.03333   C 198.04096,126.03333 199.75923,125.83353 200.99799,125.43393   C 202.23674,125.03434 203.19578,124.4749 203.95502,123.71566   C 204.99397,122.67671 205.79317,121.27811 206.35261,119.55984   C 206.95201,117.8016 207.23172,115.68373 207.23172,113.20622   C 207.23172,109.76968 206.67229,107.09237 205.51345,105.25422   C 204.39458,103.41606 203.03594,102.17731 201.39759,101.53795   C 200.23875,101.09839 198.36064,100.85863 195.76325,100.85863   L 188.8502,100.85863   z "
     style="fill:#ffff80;fill-rule:evenodd;fill-opacity:1;stroke:none;" />
</svg>
