<?xml version="1.0" encoding="UTF-8" standalone="no"?>
<svg
   xmlns:dc="http://purl.org/dc/elements/1.1/"
   xmlns:cc="http://creativecommons.org/ns#"
   xmlns:rdf="http://www.w3.org/1999/02/22-rdf-syntax-ns#"
   xmlns:svg="http://www.w3.org/2000/svg"
   xmlns="http://www.w3.org/2000/svg"
   id="svg21"
   height="116.73mm"
   width="116.73mm"
   version="1.0">
  <metadata
     id="metadata25">
    <rdf:RDF>
      <cc:Work
         rdf:about="">
        <dc:format>image/svg+xml</dc:format>
        <dc:type
           rdf:resource="http://purl.org/dc/dcmitype/StillImage" />
      </cc:Work>
    </rdf:RDF>
  </metadata>
  <defs
     id="defs3">
    <pattern
       y="0"
       x="0"
       height="6"
       width="6"
       patternUnits="userSpaceOnUse"
       id="EMFhbasepattern" />
  </defs>
  <path
     id="path5"
     d="  M 220.57831,386.49156   L 220.57831,386.49156   L 386.49156,220.57831   L 220.57831,54.665059   L 54.665059,220.57831   L 220.57831,386.49156   z "
     style="fill:#ff8080;fill-rule:evenodd;fill-opacity:1;stroke:none;" />
  <path
     id="path7"
     d="  M 220.57831,386.49156   L 220.57831,386.49156   L 386.49156,220.57831   L 220.57831,54.665059   L 54.665059,220.57831   L 220.57831,386.49156  "
     style="fill:none;stroke:#000000;stroke-width:9.5903616px;stroke-linecap:butt;stroke-linejoin:miter;stroke-miterlimit:10;stroke-dasharray:none;stroke-opacity:1;" />
  <path
     id="path9"
     d="  M 172.6265,158.24096   C 117.00241,158.24096 117.00241,247.43132 172.6265,247.43132   L 268.53012,247.43132   C 324.15421,247.43132 324.15421,158.24096 268.53012,158.24096   z "
     style="fill:none;stroke:#000000;stroke-width:9.5903616px;stroke-linecap:butt;stroke-linejoin:miter;stroke-miterlimit:10;stroke-dasharray:none;stroke-opacity:1;" />
  <path
     id="path11"
     d="  M 156.32289,263.73494   C 156.32289,270.64799 150.76847,276.20241 143.85542,276.20241   C 136.98233,276.20241 131.38795,270.64799 131.38795,263.73494   C 131.38795,256.86184 136.98233,251.26747 143.85542,251.26747   C 150.76847,251.26747 156.32289,256.86184 156.32289,263.73494  "
     style="fill:none;stroke:#000000;stroke-width:9.5903616px;stroke-linecap:butt;stroke-linejoin:miter;stroke-miterlimit:10;stroke-dasharray:none;stroke-opacity:1;" />
  <path
     id="path13"
     d="  M 309.76867,263.73494   C 309.76867,270.64799 304.21425,276.20241 297.3012,276.20241   C 290.42811,276.20241 284.83373,270.64799 284.83373,263.73494   C 284.83373,256.86184 290.42811,251.26747 297.3012,251.26747   C 304.21425,251.26747 309.76867,256.86184 309.76867,263.73494  "
     style="fill:none;stroke:#000000;stroke-width:9.5903616px;stroke-linecap:butt;stroke-linejoin:miter;stroke-miterlimit:10;stroke-dasharray:none;stroke-opacity:1;" />
  <path
     id="path15"
     d="  M 126.59277,247.43132   L 314.56385,247.43132  "
     style="fill:none;stroke:#000000;stroke-width:9.5903616px;stroke-linecap:butt;stroke-linejoin:miter;stroke-miterlimit:10;stroke-dasharray:none;stroke-opacity:1;" />
  <path
     id="path17"
     d="  M 178.94016,195.12389   L 178.94016,162.19699   L 185.49357,162.19699   L 193.28574,185.53353   C 194.00502,187.69136 194.56446,189.32972 194.88413,190.40863   C 195.24377,189.20984 195.84317,187.4516 196.64237,185.09397   L 204.51445,162.19699   L 210.38855,162.19699   L 210.38855,195.12389   L 206.19277,195.12389   L 206.19277,167.5516   L 196.60241,195.12389   L 192.68634,195.12389   L 183.13594,167.07209   L 183.13594,195.12389   z  M 215.94297,184.53454   L 220.05883,184.1749   C 220.25863,185.85321 220.69819,187.21184 221.41747,188.2508   C 222.13674,189.28976 223.21566,190.16887 224.73413,190.80823   C 226.21265,191.44759 227.89096,191.80723 229.76907,191.80723   C 231.44739,191.80723 232.9259,191.52751 234.20462,191.04799   C 235.44337,190.56847 236.40241,189.88915 237.04176,189.01004   C 237.64116,188.17088 237.96084,187.21184 237.96084,186.17289   C 237.96084,185.17389 237.68112,184.25482 237.08172,183.49558   C 236.48233,182.69638 235.48333,182.05703 234.08474,181.53755   C 233.20562,181.17791 231.24759,180.65843 228.2506,179.93915   C 225.21365,179.21988 223.09578,178.54056 221.85702,177.86124   C 220.29859,177.06205 219.13976,176.02309 218.34056,174.82429   C 217.58132,173.58554 217.18172,172.22691 217.18172,170.70843   C 217.18172,169.03012 217.66124,167.47168 218.62028,166.03313   C 219.53935,164.59458 220.93795,163.51566 222.73614,162.75642   C 224.57429,161.99719 226.57229,161.63755 228.81004,161.63755   C 231.24759,161.63755 233.40542,162.03715 235.24357,162.79638   C 237.12168,163.59558 238.56024,164.75442 239.55923,166.27289   C 240.55823,167.79136 241.11767,169.5496 241.19759,171.46767   L 237.0018,171.78735   C 236.76204,169.70944 236.00281,168.11104 234.72409,167.07209   C 233.40542,165.99317 231.48735,165.47369 228.96988,165.47369   C 226.33253,165.47369 224.41445,165.95321 223.21566,166.91225   C 222.01686,167.87128 221.41747,169.03012 221.41747,170.42871   C 221.41747,171.58755 221.81707,172.58654 222.69618,173.34578   C 223.53534,174.10502 225.69317,174.86425 229.2496,175.70341   C 232.80602,176.50261 235.24357,177.18193 236.56225,177.78132   C 238.48032,178.66044 239.87891,179.77931 240.79799,181.13795   C 241.71706,182.49658 242.15662,184.05502 242.15662,185.81325   C 242.15662,187.57148 241.6771,189.2498 240.67811,190.80823   C 239.63915,192.3267 238.2006,193.56546 236.32249,194.40462   C 234.44437,195.28373 232.3265,195.68333 229.96887,195.68333   C 227.01184,195.68333 224.49437,195.28373 222.49638,194.40462   C 220.45843,193.5255 218.9,192.20682 217.74116,190.48855   C 216.58233,188.73032 215.98293,186.77229 215.94297,184.53454   z  M 247.9508,195.12389   L 247.9508,162.19699   L 252.30642,162.19699   L 252.30642,191.24779   L 268.53012,191.24779   L 268.53012,195.12389   z "
     style="fill:#000000;fill-rule:evenodd;fill-opacity:1;stroke:none;" />
  <path
     id="path19"
     d="  M 176.18293,233.48534   L 167.47168,200.55843   L 171.90723,200.55843   L 176.94217,222.13674   C 177.46164,224.41445 177.94116,226.65221 178.34076,228.88996   C 179.17992,225.37349 179.65944,223.33554 179.81927,222.81606   L 186.09297,200.55843   L 191.32771,200.55843   L 196.08293,217.22168   C 197.24176,221.37751 198.12088,225.25361 198.64036,228.88996   C 199.03996,226.81204 199.59939,224.41445 200.27871,221.73715   L 205.43353,200.55843   L 209.82911,200.55843   L 200.79819,233.48534   L 196.60241,233.48534   L 189.64939,208.39056   C 189.05,206.31265 188.69036,204.99397 188.61044,204.51445   C 188.2508,206.03293 187.93112,207.31164 187.6514,208.39056   L 180.65843,233.48534   z  M 214.0249,233.48534   L 214.0249,200.55843   L 218.38052,200.55843   L 218.38052,214.06486   L 235.52329,214.06486   L 235.52329,200.55843   L 239.87891,200.55843   L 239.87891,233.48534   L 235.52329,233.48534   L 235.52329,217.98092   L 218.38052,217.98092   L 218.38052,233.48534   z  M 247.1516,233.48534   L 247.1516,200.55843   L 258.5002,200.55843   C 261.05763,200.55843 263.01566,200.71827 264.33433,201.03795   C 266.25241,201.43755 267.8508,202.23674 269.16947,203.39558   C 270.92771,204.83413 272.20642,206.71225 273.08554,209.02992   C 273.96465,211.30763 274.36425,213.90502 274.36425,216.86205   C 274.36425,219.33956 274.08453,221.57731 273.48514,223.49538   C 272.9257,225.41345 272.16646,227.01184 271.24739,228.29056   C 270.32831,229.56927 269.32931,230.56827 268.2504,231.28755   C 267.17148,232.00682 265.85281,232.56626 264.33433,232.9259   C 262.7759,233.3255 261.01767,233.48534 259.01967,233.48534   z  M 251.50723,229.60923   L 258.54016,229.60923   C 260.69799,229.60923 262.41626,229.40943 263.65502,229.00984   C 264.89377,228.61024 265.85281,228.0508 266.61204,227.29156   C 267.651,226.25261 268.4502,224.85401 269.00963,223.13574   C 269.60903,221.37751 269.88875,219.25964 269.88875,216.78213   C 269.88875,213.34558 269.32931,210.66827 268.17048,208.83012   C 267.0516,206.99196 265.69297,205.75321 264.05461,205.11385   C 262.89578,204.67429 261.01767,204.43454 258.42028,204.43454   L 251.50723,204.43454   z "
     style="fill:#000000;fill-rule:evenodd;fill-opacity:1;stroke:none;" />
</svg>
