<?xml version="1.0" encoding="UTF-8" standalone="no"?>
<svg
   xmlns:dc="http://purl.org/dc/elements/1.1/"
   xmlns:cc="http://creativecommons.org/ns#"
   xmlns:rdf="http://www.w3.org/1999/02/22-rdf-syntax-ns#"
   xmlns:svg="http://www.w3.org/2000/svg"
   xmlns="http://www.w3.org/2000/svg"
   id="svg29"
   height="95.75mm"
   width="95.75mm"
   version="1.0">
  <metadata
     id="metadata33">
    <rdf:RDF>
      <cc:Work
         rdf:about="">
        <dc:format>image/svg+xml</dc:format>
        <dc:type
           rdf:resource="http://purl.org/dc/dcmitype/StillImage" />
      </cc:Work>
    </rdf:RDF>
  </metadata>
  <defs
     id="defs3">
    <pattern
       y="0"
       x="0"
       height="6"
       width="6"
       patternUnits="userSpaceOnUse"
       id="EMFhbasepattern" />
  </defs>
  <path
     id="path5"
     d="  M 132.98634,15.983936   L 132.98634,54.345381   L 228.88996,54.345381   L 228.88996,15.983936   L 132.98634,15.983936   z "
     style="fill:#000000;fill-rule:evenodd;fill-opacity:1;stroke:none;" />
  <path
     id="path7"
     d="  M 54.345381,54.345381   L 54.345381,307.53092   L 307.53092,307.53092   L 307.53092,54.345381   L 54.345381,54.345381   z "
     style="fill:#aaffaa;fill-rule:evenodd;fill-opacity:1;stroke:none;" />
  <path
     id="path9"
     d="  M 54.345381,54.345381   L 307.53092,54.345381   L 307.53092,307.53092   L 54.345381,307.53092   z "
     style="fill:none;stroke:#000000;stroke-width:9.5903616px;stroke-linecap:butt;stroke-linejoin:miter;stroke-miterlimit:10;stroke-dasharray:none;stroke-opacity:1;" />
  <path
     id="path11"
     d="  M 97.502007,154.5247   L 97.502007,158.08112   C 104.65482,158.08112 104.89458,155.72349 108.73072,153.16606   C 111.68775,155.32389 112.80662,158.08112 118.6008,158.08112   L 119.95944,158.08112   C 126.95241,158.08112 126.99237,155.68353 130.70863,153.16606   C 134.0253,155.36385 134.6247,158.08112 141.01827,158.08112   L 142.37691,158.08112   C 148.77048,158.08112 149.40984,155.36385 152.68654,153.16606   C 156.60261,155.80341 156.52269,158.08112 163.91526,158.08112   L 163.91526,154.5247   C 159.12008,154.5247 154.92429,151.04819 154.92429,146.45281   L 150.44879,146.45281   L 150.44879,148.21104   C 150.44879,150.96827 145.97329,154.5247 142.37691,154.5247   L 141.93735,154.5247   C 137.02229,154.5247 133.06626,151.12811 132.94638,146.45281   L 128.47088,146.45281   C 128.39096,150.48875 124.35502,154.5247 119.95944,154.5247   L 119.04036,154.5247   C 114.36506,154.5247 111.32811,150.88835 110.96847,146.45281   L 106.49297,146.45281   C 106.13333,150.84839 102.37711,154.5247 97.502007,154.5247   z "
     style="fill:#ffffff;fill-rule:evenodd;fill-opacity:1;stroke:none;" />
  <path
     id="path13"
     d="  M 206.95201,147.77148   C 206.95201,151.00823 202.63634,154.5247 198.44056,154.5247   L 198.44056,158.08112   C 202.79618,158.08112 207.91104,155.92329 208.7502,152.7265   C 212.66626,155.32389 212.90602,158.08112 220.41847,158.08112   L 221.33755,158.08112   C 227.61124,158.08112 228.33052,154.92429 231.64719,152.7265   C 232.44638,155.76345 237.44136,158.08112 241.51727,158.08112   L 243.31546,158.08112   C 249.86887,158.08112 250.62811,155.00421 254.06465,152.7265   C 254.90381,155.84337 260.49819,158.08112 264.85381,158.08112   L 264.85381,154.5247   C 260.77791,154.5247 255.86285,150.76847 255.86285,147.77148   L 255.86285,146.45281   L 251.8269,146.45281   C 251.46727,150.72851 247.9508,154.5247 243.31546,154.5247   L 241.95682,154.5247   C 238.24056,154.5247 233.88494,151.12811 233.88494,147.77148   L 233.88494,146.45281   L 229.40943,146.45281   C 229.28955,150.56867 225.21365,154.5247 220.85803,154.5247   L 219.97891,154.5247   C 215.50341,154.5247 211.54739,150.88835 211.46747,146.45281   L 206.95201,146.45281   z "
     style="fill:#000000;fill-rule:evenodd;fill-opacity:1;stroke:none;" />
  <path
     id="path15"
     d="  M 97.502007,183.21586   L 97.502007,186.81225   C 103.09638,186.81225 106.05341,184.73433 108.29116,181.41767   C 111.72771,183.73534 112.48695,186.81225 119.04036,186.81225   L 120.39899,186.81225   C 127.83152,186.81225 128.7506,182.05703 131.14819,181.41767   C 131.98735,184.45462 136.98233,186.81225 141.01827,186.81225   L 142.37691,186.81225   C 146.41285,186.81225 151.44779,184.45462 152.24699,181.41767   C 154.84438,182.13695 155.24397,186.81225 163.91526,186.81225   L 163.91526,183.21586   C 159.12008,183.21586 154.92429,179.73935 154.92429,175.14397   L 150.44879,175.14397   L 150.44879,176.94217   C 150.44879,179.69939 145.97329,183.21586 142.37691,183.21586   L 141.93735,183.21586   C 137.02229,183.21586 133.06626,179.81927 132.94638,175.14397   L 128.47088,175.14397   C 128.39096,179.1 124.31506,183.21586 119.95944,183.21586   L 119.04036,183.21586   C 114.36506,183.21586 111.32811,179.57952 110.96847,175.14397   L 106.49297,175.14397   C 106.13333,179.53956 102.37711,183.21586 97.502007,183.21586   z "
     style="fill:#ffffff;fill-rule:evenodd;fill-opacity:1;stroke:none;" />
  <path
     id="path17"
     d="  M 206.95201,176.50261   C 206.95201,179.73935 202.63634,183.21586 198.44056,183.21586   L 198.44056,186.81225   C 206.75221,186.81225 206.91205,182.1769 209.66927,181.41767   C 210.50843,184.53454 216.06285,186.81225 220.41847,186.81225   L 220.85803,186.81225   C 227.73112,186.81225 228.0508,183.73534 231.20763,181.41767   C 234.20462,183.61546 235.24357,186.81225 241.51727,186.81225   L 243.31546,186.81225   C 249.58915,186.81225 250.62811,183.61546 253.6251,181.41767   C 257.26144,183.85522 257.38132,186.81225 264.85381,186.81225   L 264.85381,183.21586   C 260.77791,183.21586 255.86285,179.45964 255.86285,176.50261   L 255.86285,175.14397   L 251.8269,175.14397   C 251.46727,179.45964 247.9508,183.21586 243.31546,183.21586   L 241.95682,183.21586   C 238.6002,183.21586 233.88494,179.73935 233.88494,177.38172   L 233.88494,175.14397   L 229.40943,175.14397   C 229.28955,179.25984 225.21365,183.21586 220.85803,183.21586   L 219.97891,183.21586   C 215.50341,183.21586 211.54739,179.61948 211.46747,175.14397   L 206.95201,175.14397   z "
     style="fill:#000000;fill-rule:evenodd;fill-opacity:1;stroke:none;" />
  <path
     id="path19"
     d="  M 172.86626,196.24277   L 172.86626,196.24277   L 189.01004,196.24277   L 189.01004,164.39478   L 172.86626,164.39478   z "
     style="fill:#ffffff;fill-rule:evenodd;fill-opacity:1;stroke:none;" />
  <path
     id="path21"
     d="  M 193.04598,135.66365   L 269.76887,135.66365   L 269.76887,224.49437   L 193.04598,224.49437   z  M 97.502007,215.50341   L 97.502007,211.94698   C 102.25723,211.94698 106.37309,208.23072 106.49297,203.83514   L 110.96847,203.83514   C 111.08835,208.1508 114.60482,211.94698 119.04036,211.94698   L 119.95944,211.94698   C 124.35502,211.94698 128.39096,208.19076 128.47088,203.83514   L 132.94638,203.83514   C 133.06626,208.63032 136.94237,211.94698 141.93735,211.94698   L 142.37691,211.94698   C 147.53172,211.94698 149.92932,208.07088 150.88835,203.83514   L 154.92429,203.83514   C 155.04417,208.59036 158.92028,211.94698 163.91526,211.94698   L 163.91526,215.50341   C 159.12008,215.50341 154.04518,213.10582 153.1261,209.66927   C 150.00923,211.78715 149.17008,215.50341 142.37691,215.50341   L 141.01827,215.50341   C 134.14518,215.50341 133.66566,211.98694 130.26907,209.66927   C 129.42992,212.8261 124.63474,215.50341 120.39899,215.50341   L 119.04036,215.50341   C 113.40602,215.50341 111.00843,212.54638 108.29116,209.66927   C 107.41205,213.0259 102.05743,215.50341 97.502007,215.50341   z  M 172.86626,164.39478   L 189.01004,164.39478   L 189.01004,196.24277   L 172.86626,196.24277   z  M 97.502007,183.21586   C 102.37711,183.21586 106.13333,179.53956 106.49297,175.14397   L 110.96847,175.14397   C 111.32811,179.57952 114.36506,183.21586 119.04036,183.21586   L 119.95944,183.21586   C 124.31506,183.21586 128.39096,179.1 128.47088,175.14397   L 132.94638,175.14397   C 133.06626,179.81927 137.02229,183.21586 141.93735,183.21586   L 142.37691,183.21586   C 145.97329,183.21586 150.44879,179.69939 150.44879,176.94217   L 150.44879,175.14397   L 154.92429,175.14397   C 154.92429,179.73935 159.12008,183.21586 163.91526,183.21586   L 163.91526,186.81225   C 155.24397,186.81225 154.84438,182.13695 152.24699,181.41767   C 151.44779,184.45462 146.41285,186.81225 142.37691,186.81225   L 141.01827,186.81225   C 136.98233,186.81225 131.98735,184.45462 131.14819,181.41767   C 128.7506,182.05703 127.83152,186.81225 120.39899,186.81225   L 119.04036,186.81225   C 112.48695,186.81225 111.72771,183.73534 108.29116,181.41767   C 106.05341,184.73433 103.09638,186.81225 97.502007,186.81225   L 97.502007,183.21586   z  M 97.502007,154.5247   C 102.37711,154.5247 106.13333,150.84839 106.49297,146.45281   L 110.96847,146.45281   C 111.32811,150.88835 114.36506,154.5247 119.04036,154.5247   L 119.95944,154.5247   C 124.35502,154.5247 128.39096,150.48875 128.47088,146.45281   L 132.94638,146.45281   C 133.06626,151.12811 137.02229,154.5247 141.93735,154.5247   L 142.37691,154.5247   C 145.97329,154.5247 150.44879,150.96827 150.44879,148.21104   L 150.44879,146.45281   L 154.92429,146.45281   C 154.92429,151.04819 159.12008,154.5247 163.91526,154.5247   L 163.91526,158.08112   C 156.52269,158.08112 156.60261,155.80341 152.68654,153.16606   C 149.40984,155.36385 148.77048,158.08112 142.37691,158.08112   L 141.01827,158.08112   C 134.6247,158.08112 134.0253,155.36385 130.70863,153.16606   C 126.99237,155.68353 126.95241,158.08112 119.95944,158.08112   L 118.6008,158.08112   C 112.80662,158.08112 111.68775,155.32389 108.73072,153.16606   C 104.89458,155.72349 104.65482,158.08112 97.502007,158.08112   L 97.502007,154.5247   z  M 172.86626,205.63333   L 189.01004,205.63333   L 189.01004,229.88895   L 274.24437,229.88895   L 274.24437,130.74859   L 189.01004,130.18915   L 189.01004,154.96425   L 172.86626,154.96425   L 172.86626,130.74859   L 88.111445,130.18915   L 88.111445,229.88895   L 172.86626,229.88895   z "
     style="fill:#000000;fill-rule:evenodd;fill-opacity:1;stroke:none;" />
  <path
     id="path23"
     d="  M 198.44056,215.50341   L 198.44056,211.94698   C 203.63534,211.94698 206.59237,208.63032 206.95201,203.83514   L 210.10883,203.83514   C 212.4265,203.83514 212.06686,211.94698 219.97891,211.94698   L 220.85803,211.94698   C 226.17269,211.94698 226.53233,208.63032 228.85,206.99196   L 229.40943,203.83514   L 233.44538,203.83514   C 233.84498,208.63032 237.2016,211.94698 242.39638,211.94698   L 243.31546,211.94698   C 247.67108,211.94698 251.74698,208.07088 251.8269,203.83514   L 255.42329,203.83514   C 256.42229,208.1508 259.53915,211.94698 264.85381,211.94698   L 264.85381,215.50341   C 260.29839,215.50341 254.94377,213.0259 254.06465,209.66927   C 250.58815,212.0269 249.86887,215.50341 243.31546,215.50341   L 242.39638,215.50341   C 237.72108,215.50341 232.56626,213.14578 231.64719,209.66927   L 230.72811,209.66927   C 229.88895,212.90602 225.25361,215.50341 220.85803,215.50341   L 219.97891,215.50341   C 212.98594,215.50341 212.50642,212.18674 208.7502,209.66927   C 207.87108,213.0259 202.99598,215.50341 198.44056,215.50341   z  M 206.95201,175.14397   L 211.46747,175.14397   C 211.54739,179.61948 215.50341,183.21586 219.97891,183.21586   L 220.85803,183.21586   C 225.21365,183.21586 229.28955,179.25984 229.40943,175.14397   L 233.88494,175.14397   L 233.88494,177.38172   C 233.88494,179.73935 238.6002,183.21586 241.95682,183.21586   L 243.31546,183.21586   C 247.9508,183.21586 251.46727,179.45964 251.8269,175.14397   L 255.86285,175.14397   L 255.86285,176.50261   C 255.86285,179.45964 260.77791,183.21586 264.85381,183.21586   L 264.85381,186.81225   C 257.38132,186.81225 257.26144,183.85522 253.6251,181.41767   C 250.62811,183.61546 249.58915,186.81225 243.31546,186.81225   L 241.51727,186.81225   C 235.24357,186.81225 234.20462,183.61546 231.20763,181.41767   C 228.0508,183.73534 227.73112,186.81225 220.85803,186.81225   L 220.41847,186.81225   C 216.06285,186.81225 210.50843,184.53454 209.66927,181.41767   C 206.91205,182.1769 206.75221,186.81225 198.44056,186.81225   L 198.44056,183.21586   C 202.63634,183.21586 206.95201,179.73935 206.95201,176.50261   z  M 206.95201,146.45281   L 211.46747,146.45281   C 211.54739,150.88835 215.50341,154.5247 219.97891,154.5247   L 220.85803,154.5247   C 225.21365,154.5247 229.28955,150.56867 229.40943,146.45281   L 233.88494,146.45281   L 233.88494,147.77148   C 233.88494,151.12811 238.24056,154.5247 241.95682,154.5247   L 243.31546,154.5247   C 247.9508,154.5247 251.46727,150.72851 251.8269,146.45281   L 255.86285,146.45281   L 255.86285,147.77148   C 255.86285,150.76847 260.77791,154.5247 264.85381,154.5247   L 264.85381,158.08112   C 260.49819,158.08112 254.90381,155.84337 254.06465,152.7265   C 250.62811,155.00421 249.86887,158.08112 243.31546,158.08112   L 241.51727,158.08112   C 237.44136,158.08112 232.44638,155.76345 231.64719,152.7265   C 228.33052,154.92429 227.61124,158.08112 221.33755,158.08112   L 220.41847,158.08112   C 212.90602,158.08112 212.66626,155.32389 208.7502,152.7265   C 207.91104,155.92329 202.79618,158.08112 198.44056,158.08112   L 198.44056,154.5247   C 202.63634,154.5247 206.95201,151.00823 206.95201,147.77148   z  M 193.04598,224.49437   L 269.76887,224.49437   L 269.76887,135.66365   L 193.04598,135.66365   z "
     style="fill:#ffffff;fill-rule:evenodd;fill-opacity:1;stroke:none;" />
  <path
     id="path25"
     d="  M 97.502007,215.50341   C 102.05743,215.50341 107.41205,213.0259 108.29116,209.66927   C 111.00843,212.54638 113.40602,215.50341 119.04036,215.50341   L 120.39899,215.50341   C 124.63474,215.50341 129.42992,212.8261 130.26907,209.66927   C 133.66566,211.98694 134.14518,215.50341 141.01827,215.50341   L 142.37691,215.50341   C 149.17008,215.50341 150.00923,211.78715 153.1261,209.66927   C 154.04518,213.10582 159.12008,215.50341 163.91526,215.50341   L 163.91526,211.94698   C 158.92028,211.94698 155.04417,208.59036 154.92429,203.83514   L 150.88835,203.83514   C 149.92932,208.07088 147.53172,211.94698 142.37691,211.94698   L 141.93735,211.94698   C 136.94237,211.94698 133.06626,208.63032 132.94638,203.83514   L 128.47088,203.83514   C 128.39096,208.19076 124.35502,211.94698 119.95944,211.94698   L 119.04036,211.94698   C 114.60482,211.94698 111.08835,208.1508 110.96847,203.83514   L 106.49297,203.83514   C 106.37309,208.23072 102.25723,211.94698 97.502007,211.94698   L 97.502007,215.50341   z "
     style="fill:#ffffff;fill-rule:evenodd;fill-opacity:1;stroke:none;" />
  <path
     id="path27"
     d="  M 198.44056,215.50341   C 202.99598,215.50341 207.87108,213.0259 208.7502,209.66927   C 212.50642,212.18674 212.98594,215.50341 219.97891,215.50341   L 220.85803,215.50341   C 225.25361,215.50341 229.88895,212.90602 230.72811,209.66927   L 231.64719,209.66927   C 232.56626,213.14578 237.72108,215.50341 242.39638,215.50341   L 243.31546,215.50341   C 249.86887,215.50341 250.58815,212.0269 254.06465,209.66927   C 254.94377,213.0259 260.29839,215.50341 264.85381,215.50341   L 264.85381,211.94698   C 259.53915,211.94698 256.42229,208.1508 255.42329,203.83514   L 251.8269,203.83514   C 251.74698,208.07088 247.67108,211.94698 243.31546,211.94698   L 242.39638,211.94698   C 237.2016,211.94698 233.84498,208.63032 233.44538,203.83514   L 229.40943,203.83514   L 228.85,206.99196   C 226.53233,208.63032 226.17269,211.94698 220.89799,211.94698   L 219.97891,211.94698   C 212.06686,211.94698 212.4265,203.83514 210.10883,203.83514   L 206.95201,203.83514   C 206.59237,208.63032 203.63534,211.94698 198.44056,211.94698   z "
     style="fill:#000000;fill-rule:evenodd;fill-opacity:1;stroke:none;" />
</svg>
