<?xml version="1.0" encoding="UTF-8" standalone="no"?>
<svg
   xmlns:dc="http://purl.org/dc/elements/1.1/"
   xmlns:cc="http://creativecommons.org/ns#"
   xmlns:rdf="http://www.w3.org/1999/02/22-rdf-syntax-ns#"
   xmlns:svg="http://www.w3.org/2000/svg"
   xmlns="http://www.w3.org/2000/svg"
   id="svg7"
   height="42.130001mm"
   width="92.709999mm"
   version="1.0">
  <metadata
     id="metadata11">
    <rdf:RDF>
      <cc:Work
         rdf:about="">
        <dc:format>image/svg+xml</dc:format>
        <dc:type
           rdf:resource="http://purl.org/dc/dcmitype/StillImage" />
      </cc:Work>
    </rdf:RDF>
  </metadata>
  <defs
     id="defs3">
    <pattern
       y="0"
       x="0"
       height="6"
       width="6"
       patternUnits="userSpaceOnUse"
       id="EMFhbasepattern" />
  </defs>
  <path
     id="path5"
     d="  M 30.529317,128.351   C 63.536144,116.80261 75.404216,30.569277 94.904617,30.968875   C 101.29819,31.088755 106.01345,34.245582 106.85261,37.562248   C 116.00341,74.24538 54.345381,54.984738 127.87148,127.87148   C 159.43976,116.80261 171.30783,30.569277 190.80823,30.968875   C 197.2018,31.088755 201.91707,34.245582 202.75622,37.562248   C 211.90703,74.24538 150.24899,54.984738 223.7751,127.87148   C 255.34337,116.80261 267.21144,30.569277 286.71184,30.968875   C 293.10542,31.088755 297.82068,34.245582 298.65984,37.562248   C 307.81064,74.24538 246.15261,54.984738 319.67871,127.87148  "
     style="fill:none;stroke:#808080;stroke-width:4.7951808px;stroke-linecap:butt;stroke-linejoin:miter;stroke-miterlimit:10;stroke-dasharray:none;stroke-opacity:1;" />
</svg>
