<?xml version="1.0" encoding="UTF-8" standalone="no"?>
<svg
   xmlns:dc="http://purl.org/dc/elements/1.1/"
   xmlns:cc="http://creativecommons.org/ns#"
   xmlns:rdf="http://www.w3.org/1999/02/22-rdf-syntax-ns#"
   xmlns:svg="http://www.w3.org/2000/svg"
   xmlns="http://www.w3.org/2000/svg"
   id="svg22"
   height="64.459999mm"
   width="71.059998mm"
   version="1.0">
  <metadata
     id="metadata26">
    <rdf:RDF>
      <cc:Work
         rdf:about="">
        <dc:format>image/svg+xml</dc:format>
        <dc:type
           rdf:resource="http://purl.org/dc/dcmitype/StillImage" />
      </cc:Work>
    </rdf:RDF>
  </metadata>
  <defs
     id="defs6">
    <clipPath
       id="clipEmfPath1"
       clipPathUnits="userSpaceOnUse">
      <path
         id="path2"
         d="M 57.542168,61.378312 L 210.98795,61.378312 L 210.98795,176.46265 L 57.542168,176.46265 z" />
    </clipPath>
    <pattern
       y="0"
       x="0"
       height="6"
       width="6"
       patternUnits="userSpaceOnUse"
       id="EMFhbasepattern" />
  </defs>
  <path
     id="path8"
     d="  M 57.542168,54.665059   L 57.542168,162.07711  "
     style="fill:none;stroke:#80e0ff;stroke-width:9.5903616px;stroke-linecap:butt;stroke-linejoin:miter;stroke-miterlimit:10;stroke-dasharray:none;stroke-opacity:1;" />
  <path
     id="path10"
     d="  M 210.98795,54.665059   L 210.98795,162.07711  "
     style="fill:none;stroke:#80e0ff;stroke-width:9.5903616px;stroke-linecap:butt;stroke-linejoin:miter;stroke-miterlimit:10;stroke-dasharray:none;stroke-opacity:1;" />
  <path
     id="path12"
     d="  M 57.542168,158.24096   L 210.98795,158.24096  "
     style="fill:none;stroke:#80e0ff;stroke-width:9.5903616px;stroke-linecap:butt;stroke-linejoin:miter;stroke-miterlimit:10;stroke-dasharray:none;stroke-opacity:1;" />
  <path
     id="path14"
     d="  M 57.542168,57.741967   C 124.6747,77.681927 143.85542,77.681927 210.98795,57.741967  "
     style="fill:none;stroke:#80e0ff;stroke-width:9.5903616px;stroke-linecap:butt;stroke-linejoin:miter;stroke-miterlimit:10;stroke-dasharray:none;stroke-opacity:1;" />
  <path
     id="path16"
     d="  M 47.951807,123.23614   C 47.951807,124.6747 63.775903,128.51084 63.775903,114.1253   C 63.775903,99.739758 83.915661,99.739758 83.915661,114.1253   C 83.915661,128.51084 104.05542,128.51084 104.05542,114.1253   C 104.05542,99.739758 124.19518,99.739758 124.19518,114.1253   C 124.19518,128.51084 144.33494,128.51084 144.33494,114.1253   C 144.33494,99.739758 164.4747,99.739758 164.4747,114.1253   C 164.4747,128.51084 184.61446,128.51084 184.61446,114.1253   C 184.61446,99.739758 204.75421,99.739758 204.75421,114.1253   C 204.75421,128.51084 220.57831,124.6747 220.57831,123.23614  "
     clip-path="url(#clipEmfPath1)"
     style="fill:none;stroke:#80e0ff;stroke-width:9.5903616px;stroke-linecap:butt;stroke-linejoin:miter;stroke-miterlimit:10;stroke-dasharray:none;stroke-opacity:1;" />
  <path
     id="path18"
     d="  M 79.599999,176.46265   C 79.599999,183.3757 74.045581,188.93012 67.132529,188.93012   C 60.259437,188.93012 54.665059,183.3757 54.665059,176.46265   C 54.665059,169.58956 60.259437,163.99518 67.132529,163.99518   C 74.045581,163.99518 79.599999,169.58956 79.599999,176.46265  "
     style="fill:none;stroke:#80e0ff;stroke-width:9.5903616px;stroke-linecap:butt;stroke-linejoin:miter;stroke-miterlimit:10;stroke-dasharray:none;stroke-opacity:1;" />
  <path
     id="path20"
     d="  M 213.86506,176.46265   C 213.86506,183.3757 208.31064,188.93012 201.39759,188.93012   C 194.5245,188.93012 188.93012,183.3757 188.93012,176.46265   C 188.93012,169.58956 194.5245,163.99518 201.39759,163.99518   C 208.31064,163.99518 213.86506,169.58956 213.86506,176.46265  "
     style="fill:none;stroke:#80e0ff;stroke-width:9.5903616px;stroke-linecap:butt;stroke-linejoin:miter;stroke-miterlimit:10;stroke-dasharray:none;stroke-opacity:1;" />
</svg>
