<?xml version="1.0" encoding="UTF-8" standalone="no"?>
<svg
   xmlns:dc="http://purl.org/dc/elements/1.1/"
   xmlns:cc="http://creativecommons.org/ns#"
   xmlns:rdf="http://www.w3.org/1999/02/22-rdf-syntax-ns#"
   xmlns:svg="http://www.w3.org/2000/svg"
   xmlns="http://www.w3.org/2000/svg"
   id="svg17"
   height="112.9mm"
   width="112.9mm"
   version="1.0">
  <metadata
     id="metadata21">
    <rdf:RDF>
      <cc:Work
         rdf:about="">
        <dc:format>image/svg+xml</dc:format>
        <dc:type
           rdf:resource="http://purl.org/dc/dcmitype/StillImage" />
      </cc:Work>
    </rdf:RDF>
  </metadata>
  <defs
     id="defs3">
    <pattern
       y="0"
       x="0"
       height="6"
       width="6"
       patternUnits="userSpaceOnUse"
       id="EMFhbasepattern" />
  </defs>
  <path
     id="path5"
     d="  M 1946.6314,1840.9775   L 2053.0192,1840.9775   L 2053.0192,1883.6585   L 1946.6314,1883.6585   z "
     style="fill:#000000;fill-rule:nonzero;fill-opacity:1;stroke:none;" />
  <path
     id="path7"
     d="  M 1859.4259,1883.6585   L 2140.2247,1883.6585   L 2140.2247,2165.3376   L 1859.4259,2165.3376   z "
     style="fill:#aaffaa;fill-rule:nonzero;fill-opacity:1;stroke:#000000;stroke-width:10.62747px;stroke-linecap:butt;stroke-linejoin:miter;stroke-miterlimit:282;stroke-dasharray:none;stroke-opacity:1;" />
  <path
     id="path9"
     d="  M 1981.7548,2138.6478   L 1981.7548,2089.0109   L 1997.8091,2089.0109   C 2003.8765,2089.0109 2007.8336,2089.2755 2009.6802,2089.767   C 2012.5067,2090.5231 2014.8809,2092.1108 2016.8029,2094.6059   C 2018.7249,2097.101 2019.667,2100.3522 2019.667,2104.2838   C 2019.667,2107.3459 2019.1017,2109.9166 2018.0088,2111.9959   C 2016.9159,2114.0373 2015.5215,2115.7007 2013.8257,2116.8726   C 2012.1298,2118.0445 2010.3962,2118.8384 2008.625,2119.2165   C 2006.2508,2119.7079 2002.7837,2119.9347 1998.2613,2119.9347   L 1991.7416,2119.9347   L 1991.7416,2138.6478   z  M 1991.7416,2097.4034   L 1991.7416,2111.5044   L 1997.2061,2111.5044   C 2001.1632,2111.5044 2003.8012,2111.2398 2005.1202,2110.7105   C 2006.4392,2110.2191 2007.4944,2109.3874 2008.2481,2108.291   C 2009.0019,2107.1947 2009.3787,2105.9094 2009.3787,2104.435   C 2009.3787,2102.6204 2008.8511,2101.1461 2007.7959,2099.9741   C 2006.7407,2098.7644 2005.384,2098.0461 2003.7635,2097.7437   C 2002.5952,2097.5169 2000.1833,2097.4034 1996.5655,2097.4034   z "
     style="fill:#000000;fill-rule:nonzero;fill-opacity:1;stroke:none;" />
  <path
     id="path11"
     d="  M 1999.8065,2024.5169   L 1951.9451,1939.155   C 1951.9451,1907.1349 2047.6678,1907.1349 2047.6678,1939.155   z "
     style="fill:#000000;fill-rule:nonzero;fill-opacity:1;stroke:#000000;stroke-width:10.62747px;stroke-linecap:butt;stroke-linejoin:miter;stroke-miterlimit:282;stroke-dasharray:none;stroke-opacity:1;" />
  <path
     id="path13"
     d="  M 1999.8065,2024.5169   L 2097.451,2025.6133   C 2125.0749,2041.6044 2077.2136,2124.7737 2049.5897,2108.7447   z "
     style="fill:#000000;fill-rule:nonzero;fill-opacity:1;stroke:#000000;stroke-width:10.62747px;stroke-linecap:butt;stroke-linejoin:miter;stroke-miterlimit:282;stroke-dasharray:none;stroke-opacity:1;" />
  <path
     id="path15"
     d="  M 1999.8065,2024.5169   L 1950.0608,2108.7447   C 1922.437,2124.7737 1874.5757,2041.6044 1902.1995,2025.6133   z "
     style="fill:#000000;fill-rule:nonzero;fill-opacity:1;stroke:#000000;stroke-width:10.62747px;stroke-linecap:butt;stroke-linejoin:miter;stroke-miterlimit:282;stroke-dasharray:none;stroke-opacity:1;" />
</svg>
