<?xml version="1.0" encoding="UTF-8" standalone="no"?>
<svg
   xmlns:dc="http://purl.org/dc/elements/1.1/"
   xmlns:cc="http://creativecommons.org/ns#"
   xmlns:rdf="http://www.w3.org/1999/02/22-rdf-syntax-ns#"
   xmlns:svg="http://www.w3.org/2000/svg"
   xmlns="http://www.w3.org/2000/svg"
   id="svg19"
   height="130.27mm"
   width="130.27mm"
   version="1.0">
  <metadata
     id="metadata23">
    <rdf:RDF>
      <cc:Work
         rdf:about="">
        <dc:format>image/svg+xml</dc:format>
        <dc:type
           rdf:resource="http://purl.org/dc/dcmitype/StillImage" />
      </cc:Work>
    </rdf:RDF>
  </metadata>
  <defs
     id="defs3">
    <pattern
       y="0"
       x="0"
       height="6"
       width="6"
       patternUnits="userSpaceOnUse"
       id="EMFhbasepattern" />
  </defs>
  <path
     id="path5"
     d="  M 164.63454,327.67068   C 164.63454,437.95983 327.67068,437.95983 327.67068,327.67068   C 437.95983,327.67068 437.95983,164.63454 327.67068,164.63454   C 327.67068,54.345381 164.63454,54.345381 164.63454,164.63454   C 54.345381,164.63454 54.345381,327.67068 164.63454,327.67068   z "
     style="fill:#ffff80;fill-rule:evenodd;fill-opacity:1;stroke:none;" />
  <path
     id="path7"
     d="  M 164.63454,327.67068   C 164.63454,437.95983 327.67068,437.95983 327.67068,327.67068   C 437.95983,327.67068 437.95983,164.63454 327.67068,164.63454   C 327.67068,54.345381 164.63454,54.345381 164.63454,164.63454   C 54.345381,164.63454 54.345381,327.67068 164.63454,327.67068  "
     style="fill:none;stroke:#000000;stroke-width:9.5903616px;stroke-linecap:butt;stroke-linejoin:miter;stroke-miterlimit:10;stroke-dasharray:none;stroke-opacity:1;" />
  <path
     id="path9"
     d="  M 172.8263,229.12972   L 179.77931,228.57028   C 180.09899,231.04779 180.89819,233.08574 182.09699,234.68413   C 183.29578,236.24257 185.13393,237.52128 187.69136,238.52028   C 190.20883,239.47931 193.04598,239.99879 196.20281,239.95883   C 199,239.99879 201.47751,239.59919 203.63534,238.87992   C 205.79317,238.12068 207.39156,237.12168 208.43052,235.80301   C 209.50943,234.52429 210.02891,233.1257 210.02891,231.56727   C 210.02891,230.04879 209.50943,228.69016 208.51044,227.53132   C 207.47148,226.37249 205.83313,225.37349 203.4755,224.61425   C 201.99699,224.09478 198.68032,223.29558 193.60542,222.1767   C 188.49056,221.09779 184.89417,220.05883 182.85622,219.0998   C 180.21887,217.86104 178.22088,216.34257 176.90221,214.50441   C 175.62349,212.66626 174.98413,210.62831 174.98413,208.3506   C 174.98413,205.87309 175.74337,203.51546 177.34176,201.35763   C 178.94016,199.1998 181.25783,197.56144 184.33474,196.40261   C 187.41164,195.28373 190.80823,194.72429 194.5245,194.72429   C 198.68032,194.72429 202.2767,195.32369 205.43353,196.48253   C 208.59036,197.68132 211.02791,199.3996 212.70622,201.71727   C 214.38454,203.99498 215.30361,206.59237 215.42349,209.50943   L 208.39056,209.98895   C 207.99096,206.83213 206.71225,204.4745 204.51445,202.8761   C 202.35662,201.27771 199.11988,200.47851 194.84417,200.47851   C 190.40863,200.47851 187.13193,201.23775 185.09397,202.6763   C 183.09598,204.11486 182.05703,205.87309 182.05703,207.91104   C 182.05703,209.70923 182.7763,211.14779 184.21486,212.30662   C 185.65341,213.4255 189.32972,214.62429 195.32369,215.82309   C 201.27771,217.02188 205.39357,218.06084 207.63132,218.97992   C 210.86807,220.29859 213.26566,221.9769 214.78413,224.01486   C 216.34257,226.05281 217.1018,228.41044 217.1018,231.04779   C 217.1018,233.68514 216.26265,236.16265 214.58433,238.48032   C 212.86606,240.79799 210.42851,242.59618 207.27168,243.91486   C 204.0749,245.19357 200.51847,245.83293 196.56245,245.83293   C 191.52751,245.83293 187.29176,245.19357 183.89518,243.8749   C 180.49859,242.59618 177.82128,240.63815 175.90321,238.0008   C 173.94518,235.40341 172.94618,232.44638 172.8263,229.12972   z  M 227.29156,244.99377   L 227.29156,195.56345   L 267.53112,195.56345   L 267.53112,201.39759   L 234.68413,201.39759   L 234.68413,216.54237   L 265.41325,216.54237   L 265.41325,222.33654   L 234.68413,222.33654   L 234.68413,239.15964   L 268.80984,239.15964   L 268.80984,244.99377   z  M 318.63975,227.6512   L 325.99236,229.32951   C 324.47389,234.68413 321.6767,238.8 317.68072,241.59719   C 313.68473,244.43433 308.76967,245.83293 302.9755,245.83293   C 296.98152,245.83293 292.10642,244.75401 288.3502,242.59618   C 284.59397,240.43835 281.75682,237.28152 279.79879,233.16566   C 277.84076,229.0498 276.84176,224.65421 276.84176,219.89899   C 276.84176,214.78413 277.96064,210.26867 280.15843,206.43253   C 282.39618,202.63634 285.51305,199.71927 289.62891,197.72128   C 293.70482,195.72329 298.18032,194.72429 303.09538,194.72429   C 308.64979,194.72429 313.3251,196.00301 317.12128,198.52048   C 320.91747,201.03795 323.55481,204.55441 325.07329,209.10984   L 317.8006,210.62831   C 316.52188,207.03192 314.64377,204.43454 312.20622,202.79618   C 309.72871,201.15783 306.6518,200.31867 302.93554,200.31867   C 298.65984,200.31867 295.10341,201.23775 292.2263,203.0759   C 289.34919,204.87409 287.3512,207.31164 286.19237,210.38855   C 285.03353,213.46546 284.43413,216.62229 284.43413,219.89899   C 284.43413,224.09478 285.11345,227.77108 286.51204,230.88795   C 287.87068,234.04478 290.02851,236.36245 292.94558,237.92088   C 295.82269,239.47931 298.97951,240.23855 302.3761,240.23855   C 306.49196,240.23855 309.96847,239.19959 312.84558,237.08172   C 315.72269,234.96385 317.64076,231.84698 318.63975,227.6512   z "
     style="fill:#000000;fill-rule:evenodd;fill-opacity:1;stroke:none;" />
  <path
     id="path11"
     d="  M 181.89719,289.30923   C 181.89719,296.22228 176.34277,301.7767 169.42972,301.7767   C 162.55662,301.7767 156.96225,296.22228 156.96225,289.30923   C 156.96225,282.43614 162.55662,276.84176 169.42972,276.84176   C 176.34277,276.84176 181.89719,282.43614 181.89719,289.30923  "
     style="fill:none;stroke:#000000;stroke-width:9.5903616px;stroke-linecap:butt;stroke-linejoin:miter;stroke-miterlimit:10;stroke-dasharray:none;stroke-opacity:1;" />
  <path
     id="path13"
     d="  M 258.62008,289.30923   C 258.62008,296.22228 253.06566,301.7767 246.15261,301.7767   C 239.27951,301.7767 233.68514,296.22228 233.68514,289.30923   C 233.68514,282.43614 239.27951,276.84176 246.15261,276.84176   C 253.06566,276.84176 258.62008,282.43614 258.62008,289.30923  "
     style="fill:none;stroke:#000000;stroke-width:9.5903616px;stroke-linecap:butt;stroke-linejoin:miter;stroke-miterlimit:10;stroke-dasharray:none;stroke-opacity:1;" />
  <path
     id="path15"
     d="  M 335.34297,289.30923   C 335.34297,296.22228 329.78855,301.7767 322.8755,301.7767   C 316.00241,301.7767 310.40803,296.22228 310.40803,289.30923   C 310.40803,282.43614 316.00241,276.84176 322.8755,276.84176   C 329.78855,276.84176 335.34297,282.43614 335.34297,289.30923  "
     style="fill:none;stroke:#000000;stroke-width:9.5903616px;stroke-linecap:butt;stroke-linejoin:miter;stroke-miterlimit:10;stroke-dasharray:none;stroke-opacity:1;" />
  <path
     id="path17"
     d="  M 194.36466,180.93815   C 142.5767,180.93815 142.5767,273.00562 194.36466,273.00562   L 297.94056,273.00562   C 349.72851,273.00562 349.72851,180.93815 297.94056,180.93815   z "
     style="fill:none;stroke:#000000;stroke-width:8.6313248px;stroke-linecap:butt;stroke-linejoin:miter;stroke-miterlimit:10;stroke-dasharray:none;stroke-opacity:1;" />
</svg>
