<?xml version="1.0" encoding="UTF-8" standalone="no"?>
<svg
   xmlns:dc="http://purl.org/dc/elements/1.1/"
   xmlns:cc="http://creativecommons.org/ns#"
   xmlns:rdf="http://www.w3.org/1999/02/22-rdf-syntax-ns#"
   xmlns:svg="http://www.w3.org/2000/svg"
   xmlns="http://www.w3.org/2000/svg"
   id="svg19"
   height="130.27mm"
   width="130.27mm"
   version="1.0">
  <metadata
     id="metadata23">
    <rdf:RDF>
      <cc:Work
         rdf:about="">
        <dc:format>image/svg+xml</dc:format>
        <dc:type
           rdf:resource="http://purl.org/dc/dcmitype/StillImage" />
      </cc:Work>
    </rdf:RDF>
  </metadata>
  <defs
     id="defs3">
    <pattern
       y="0"
       x="0"
       height="6"
       width="6"
       patternUnits="userSpaceOnUse"
       id="EMFhbasepattern" />
  </defs>
  <path
     id="path5"
     d="  M 164.63454,327.67068   C 164.63454,437.95983 327.67068,437.95983 327.67068,327.67068   C 437.95983,327.67068 437.95983,164.63454 327.67068,164.63454   C 327.67068,54.345381 164.63454,54.345381 164.63454,164.63454   C 54.345381,164.63454 54.345381,327.67068 164.63454,327.67068   z "
     style="fill:#ffff80;fill-rule:evenodd;fill-opacity:1;stroke:none;" />
  <path
     id="path7"
     d="  M 164.63454,327.67068   C 164.63454,437.95983 327.67068,437.95983 327.67068,327.67068   C 437.95983,327.67068 437.95983,164.63454 327.67068,164.63454   C 327.67068,54.345381 164.63454,54.345381 164.63454,164.63454   C 54.345381,164.63454 54.345381,327.67068 164.63454,327.67068  "
     style="fill:none;stroke:#000000;stroke-width:9.5903616px;stroke-linecap:butt;stroke-linejoin:miter;stroke-miterlimit:10;stroke-dasharray:none;stroke-opacity:1;" />
  <path
     id="path9"
     d="  M 85.034537,267.2514   C 102.29719,267.2514 105.1743,251.90682 105.1743,246.15261   C 105.1743,217.38152 145.45381,217.38152 145.45381,246.15261   C 145.45381,274.92369 185.73333,274.92369 185.73333,246.15261   C 185.73333,217.38152 226.01285,217.38152 226.01285,246.15261   C 226.01285,274.92369 266.29237,274.92369 266.29237,246.15261   C 266.29237,217.38152 306.57188,217.38152 306.57188,246.15261   C 306.57188,274.92369 346.8514,274.92369 346.8514,246.15261   C 346.8514,217.38152 387.13092,217.38152 387.13092,246.15261   C 387.13092,251.90682 390.00803,267.2514 407.27068,267.2514  "
     style="fill:none;stroke:#000000;stroke-width:9.5903616px;stroke-linecap:butt;stroke-linejoin:miter;stroke-miterlimit:10;stroke-dasharray:none;stroke-opacity:1;" />
  <path
     id="path11"
     d="  M 188.61044,182.09699   C 131.06827,182.09699 131.06827,283.39518 188.61044,283.39518   L 303.69477,283.39518   C 361.23694,283.39518 361.23694,182.09699 303.69477,182.09699   z "
     style="fill:none;stroke:#000000;stroke-width:9.5903616px;stroke-linecap:butt;stroke-linejoin:miter;stroke-miterlimit:10;stroke-dasharray:none;stroke-opacity:1;" />
  <path
     id="path13"
     d="  M 181.89719,297.94056   C 181.89719,304.85361 176.34277,310.40803 169.42972,310.40803   C 162.55662,310.40803 156.96225,304.85361 156.96225,297.94056   C 156.96225,291.06747 162.55662,285.47309 169.42972,285.47309   C 176.34277,285.47309 181.89719,291.06747 181.89719,297.94056  "
     style="fill:none;stroke:#000000;stroke-width:9.5903616px;stroke-linecap:butt;stroke-linejoin:miter;stroke-miterlimit:10;stroke-dasharray:none;stroke-opacity:1;" />
  <path
     id="path15"
     d="  M 258.62008,297.94056   C 258.62008,304.85361 253.06566,310.40803 246.15261,310.40803   C 239.27951,310.40803 233.68514,304.85361 233.68514,297.94056   C 233.68514,291.06747 239.27951,285.47309 246.15261,285.47309   C 253.06566,285.47309 258.62008,291.06747 258.62008,297.94056  "
     style="fill:none;stroke:#000000;stroke-width:9.5903616px;stroke-linecap:butt;stroke-linejoin:miter;stroke-miterlimit:10;stroke-dasharray:none;stroke-opacity:1;" />
  <path
     id="path17"
     d="  M 335.34297,297.94056   C 335.34297,304.85361 329.78855,310.40803 322.8755,310.40803   C 316.00241,310.40803 310.40803,304.85361 310.40803,297.94056   C 310.40803,291.06747 316.00241,285.47309 322.8755,285.47309   C 329.78855,285.47309 335.34297,291.06747 335.34297,297.94056  "
     style="fill:none;stroke:#000000;stroke-width:9.5903616px;stroke-linecap:butt;stroke-linejoin:miter;stroke-miterlimit:10;stroke-dasharray:none;stroke-opacity:1;" />
</svg>
