<?xml version="1.0" encoding="UTF-8" standalone="no"?>
<svg
   xmlns:dc="http://purl.org/dc/elements/1.1/"
   xmlns:cc="http://creativecommons.org/ns#"
   xmlns:rdf="http://www.w3.org/1999/02/22-rdf-syntax-ns#"
   xmlns:svg="http://www.w3.org/2000/svg"
   xmlns="http://www.w3.org/2000/svg"
   id="svg19"
   height="116.73mm"
   width="116.73mm"
   version="1.0">
  <metadata
     id="metadata23">
    <rdf:RDF>
      <cc:Work
         rdf:about="">
        <dc:format>image/svg+xml</dc:format>
        <dc:type
           rdf:resource="http://purl.org/dc/dcmitype/StillImage" />
      </cc:Work>
    </rdf:RDF>
  </metadata>
  <defs
     id="defs3">
    <pattern
       y="0"
       x="0"
       height="6"
       width="6"
       patternUnits="userSpaceOnUse"
       id="EMFhbasepattern" />
  </defs>
  <path
     id="path5"
     d="  M 220.57831,386.49156   L 220.57831,386.49156   L 386.49156,220.57831   L 220.57831,54.665059   L 54.665059,220.57831   L 220.57831,386.49156   z "
     style="fill:#ff8080;fill-rule:evenodd;fill-opacity:1;stroke:none;" />
  <path
     id="path7"
     d="  M 220.57831,386.49156   L 220.57831,386.49156   L 386.49156,220.57831   L 220.57831,54.665059   L 54.665059,220.57831   L 220.57831,386.49156  "
     style="fill:none;stroke:#000000;stroke-width:9.5903616px;stroke-linecap:butt;stroke-linejoin:miter;stroke-miterlimit:10;stroke-dasharray:none;stroke-opacity:1;" />
  <path
     id="path9"
     d="  M 70.968674,237.84096   C 73.845782,236.88192 79.599999,230.16867 79.599999,220.57831   C 79.599999,191.80723 119.87952,191.80723 119.87952,220.57831   C 119.87952,249.34939 160.15903,249.34939 160.15903,220.57831   C 160.15903,191.80723 200.43855,191.80723 200.43855,220.57831   C 200.43855,249.34939 240.71807,249.34939 240.71807,220.57831   C 240.71807,191.80723 280.99759,191.80723 280.99759,220.57831   C 280.99759,249.34939 321.2771,249.34939 321.2771,220.57831   C 321.2771,191.80723 361.55662,191.80723 361.55662,220.57831   C 361.55662,230.16867 367.31084,236.88192 370.18795,237.84096  "
     style="fill:none;stroke:#000000;stroke-width:9.5903616px;stroke-linecap:butt;stroke-linejoin:miter;stroke-miterlimit:10;stroke-dasharray:none;stroke-opacity:1;" />
  <path
     id="path11"
     d="  M 163.03614,156.52269   C 105.49397,156.52269 105.49397,257.82088 163.03614,257.82088   L 278.12048,257.82088   C 335.66265,257.82088 335.66265,156.52269 278.12048,156.52269   z "
     style="fill:none;stroke:#000000;stroke-width:9.5903616px;stroke-linecap:butt;stroke-linejoin:miter;stroke-miterlimit:10;stroke-dasharray:none;stroke-opacity:1;" />
  <path
     id="path13"
     d="  M 156.32289,272.36626   C 156.32289,279.27931 150.76847,284.83373 143.85542,284.83373   C 136.98233,284.83373 131.38795,279.27931 131.38795,272.36626   C 131.38795,265.49317 136.98233,259.89879 143.85542,259.89879   C 150.76847,259.89879 156.32289,265.49317 156.32289,272.36626  "
     style="fill:none;stroke:#000000;stroke-width:9.5903616px;stroke-linecap:butt;stroke-linejoin:miter;stroke-miterlimit:10;stroke-dasharray:none;stroke-opacity:1;" />
  <path
     id="path15"
     d="  M 233.04578,272.36626   C 233.04578,279.27931 227.49136,284.83373 220.57831,284.83373   C 213.70522,284.83373 208.11084,279.27931 208.11084,272.36626   C 208.11084,265.49317 213.70522,259.89879 220.57831,259.89879   C 227.49136,259.89879 233.04578,265.49317 233.04578,272.36626  "
     style="fill:none;stroke:#000000;stroke-width:9.5903616px;stroke-linecap:butt;stroke-linejoin:miter;stroke-miterlimit:10;stroke-dasharray:none;stroke-opacity:1;" />
  <path
     id="path17"
     d="  M 309.76867,272.36626   C 309.76867,279.27931 304.21425,284.83373 297.3012,284.83373   C 290.42811,284.83373 284.83373,279.27931 284.83373,272.36626   C 284.83373,265.49317 290.42811,259.89879 297.3012,259.89879   C 304.21425,259.89879 309.76867,265.49317 309.76867,272.36626  "
     style="fill:none;stroke:#000000;stroke-width:9.5903616px;stroke-linecap:butt;stroke-linejoin:miter;stroke-miterlimit:10;stroke-dasharray:none;stroke-opacity:1;" />
</svg>
