<?xml version="1.0" encoding="UTF-8" standalone="no"?>
<svg
   xmlns:dc="http://purl.org/dc/elements/1.1/"
   xmlns:cc="http://creativecommons.org/ns#"
   xmlns:rdf="http://www.w3.org/1999/02/22-rdf-syntax-ns#"
   xmlns:svg="http://www.w3.org/2000/svg"
   xmlns="http://www.w3.org/2000/svg"
   id="svg33"
   height="130.27mm"
   width="130.27mm"
   version="1.0">
  <metadata
     id="metadata37">
    <rdf:RDF>
      <cc:Work
         rdf:about="">
        <dc:format>image/svg+xml</dc:format>
        <dc:type
           rdf:resource="http://purl.org/dc/dcmitype/StillImage" />
      </cc:Work>
    </rdf:RDF>
  </metadata>
  <defs
     id="defs3">
    <pattern
       y="0"
       x="0"
       height="6"
       width="6"
       patternUnits="userSpaceOnUse"
       id="EMFhbasepattern" />
  </defs>
  <path
     id="path5"
     d="  M 164.63454,327.67068   C 164.63454,437.95983 327.67068,437.95983 327.67068,327.67068   C 437.95983,327.67068 437.95983,164.63454 327.67068,164.63454   C 327.67068,54.345381 164.63454,54.345381 164.63454,164.63454   C 54.345381,164.63454 54.345381,327.67068 164.63454,327.67068   z "
     style="fill:#ffff80;fill-rule:evenodd;fill-opacity:1;stroke:none;" />
  <path
     id="path7"
     d="  M 164.63454,327.67068   C 164.63454,437.95983 327.67068,437.95983 327.67068,327.67068   C 437.95983,327.67068 437.95983,164.63454 327.67068,164.63454   C 327.67068,54.345381 164.63454,54.345381 164.63454,164.63454   C 54.345381,164.63454 54.345381,327.67068 164.63454,327.67068  "
     style="fill:none;stroke:#000000;stroke-width:9.5903616px;stroke-linecap:butt;stroke-linejoin:miter;stroke-miterlimit:10;stroke-dasharray:none;stroke-opacity:1;" />
  <path
     id="path9"
     d="  M 221.21767,217.38152   C 221.21767,221.21767 217.38152,224.29458 212.58634,224.29458   C 207.83112,224.29458 203.95502,221.21767 203.95502,217.38152   C 203.95502,213.58534 207.83112,210.50843 212.58634,210.50843   C 217.38152,210.50843 221.21767,213.58534 221.21767,217.38152   z "
     style="fill:#000000;fill-rule:evenodd;fill-opacity:1;stroke:none;" />
  <path
     id="path11"
     d="  M 221.21767,217.38152   C 221.21767,221.21767 217.38152,224.29458 212.58634,224.29458   C 207.83112,224.29458 203.95502,221.21767 203.95502,217.38152   C 203.95502,213.58534 207.83112,210.50843 212.58634,210.50843   C 217.38152,210.50843 221.21767,213.58534 221.21767,217.38152  "
     style="fill:none;stroke:#000000;stroke-width:4.7951808px;stroke-linecap:butt;stroke-linejoin:miter;stroke-miterlimit:10;stroke-dasharray:none;stroke-opacity:1;" />
  <path
     id="path13"
     d="  M 288.3502,217.38152   C 288.3502,221.21767 284.51405,224.29458 279.71887,224.29458   C 274.96365,224.29458 271.08755,221.21767 271.08755,217.38152   C 271.08755,213.58534 274.96365,210.50843 279.71887,210.50843   C 284.51405,210.50843 288.3502,213.58534 288.3502,217.38152   z "
     style="fill:#000000;fill-rule:evenodd;fill-opacity:1;stroke:none;" />
  <path
     id="path15"
     d="  M 288.3502,217.38152   C 288.3502,221.21767 284.51405,224.29458 279.71887,224.29458   C 274.96365,224.29458 271.08755,221.21767 271.08755,217.38152   C 271.08755,213.58534 274.96365,210.50843 279.71887,210.50843   C 284.51405,210.50843 288.3502,213.58534 288.3502,217.38152  "
     style="fill:none;stroke:#000000;stroke-width:4.7951808px;stroke-linecap:butt;stroke-linejoin:miter;stroke-miterlimit:10;stroke-dasharray:none;stroke-opacity:1;" />
  <path
     id="path17"
     d="  M 217.38152,211.62731   C 246.15261,225.05381 250.94779,232.7261 262.93574,267.2514  "
     style="fill:none;stroke:#000000;stroke-width:4.7951808px;stroke-linecap:butt;stroke-linejoin:miter;stroke-miterlimit:10;stroke-dasharray:none;stroke-opacity:1;" />
  <path
     id="path19"
     d="  M 274.92369,211.62731   C 246.15261,225.05381 241.35743,232.7261 229.36947,267.2514  "
     style="fill:none;stroke:#000000;stroke-width:4.7951808px;stroke-linecap:butt;stroke-linejoin:miter;stroke-miterlimit:10;stroke-dasharray:none;stroke-opacity:1;" />
  <path
     id="path21"
     d="  M 361.23694,170.38875   L 131.06827,321.91646  "
     style="fill:none;stroke:#000000;stroke-width:9.5903616px;stroke-linecap:butt;stroke-linejoin:miter;stroke-miterlimit:10;stroke-dasharray:none;stroke-opacity:1;" />
  <path
     id="path23"
     d="  M 191.48755,172.50662   C 136.82249,172.50662 136.82249,273.80482 191.48755,273.80482   L 300.81767,273.80482   C 355.48273,273.80482 355.48273,172.50662 300.81767,172.50662   z "
     style="fill:none;stroke:#000000;stroke-width:9.1108437px;stroke-linecap:butt;stroke-linejoin:miter;stroke-miterlimit:10;stroke-dasharray:none;stroke-opacity:1;" />
  <path
     id="path25"
     d="  M 181.89719,289.30923   C 181.89719,296.22228 176.34277,301.7767 169.42972,301.7767   C 162.55662,301.7767 156.96225,296.22228 156.96225,289.30923   C 156.96225,282.43614 162.55662,276.84176 169.42972,276.84176   C 176.34277,276.84176 181.89719,282.43614 181.89719,289.30923  "
     style="fill:none;stroke:#000000;stroke-width:9.5903616px;stroke-linecap:butt;stroke-linejoin:miter;stroke-miterlimit:10;stroke-dasharray:none;stroke-opacity:1;" />
  <path
     id="path27"
     d="  M 258.62008,289.30923   C 258.62008,296.22228 253.06566,301.7767 246.15261,301.7767   C 239.27951,301.7767 233.68514,296.22228 233.68514,289.30923   C 233.68514,282.43614 239.27951,276.84176 246.15261,276.84176   C 253.06566,276.84176 258.62008,282.43614 258.62008,289.30923  "
     style="fill:none;stroke:#000000;stroke-width:9.5903616px;stroke-linecap:butt;stroke-linejoin:miter;stroke-miterlimit:10;stroke-dasharray:none;stroke-opacity:1;" />
  <path
     id="path29"
     d="  M 335.34297,289.30923   C 335.34297,296.22228 329.78855,301.7767 322.8755,301.7767   C 316.00241,301.7767 310.40803,296.22228 310.40803,289.30923   C 310.40803,282.43614 316.00241,276.84176 322.8755,276.84176   C 329.78855,276.84176 335.34297,282.43614 335.34297,289.30923  "
     style="fill:none;stroke:#000000;stroke-width:9.5903616px;stroke-linecap:butt;stroke-linejoin:miter;stroke-miterlimit:10;stroke-dasharray:none;stroke-opacity:1;" />
  <path
     id="path31"
     d="  M 223.49538,205.63333   L 223.49538,174.74437   L 237.16164,174.74437   C 239.91887,174.74437 242.03674,175.02409 243.43534,175.58353   C 244.87389,176.14297 246.03273,177.10201 246.87188,178.54056   C 247.751,179.93915 248.19056,181.45763 248.19056,183.1759   C 248.19056,185.37369 247.47128,187.21184 246.03273,188.73032   C 244.63413,190.20883 242.43634,191.16787 239.47931,191.56747   C 240.55823,192.08695 241.35743,192.60642 241.95682,193.1259   C 243.11566,194.20482 244.27449,195.60341 245.31345,197.24176   L 250.70803,205.63333   L 245.55321,205.63333   L 241.47731,199.1998   C 240.27851,197.36164 239.27951,195.92309 238.52028,194.96405   C 237.76104,193.96506 237.04176,193.28574 236.44237,192.88614   C 235.84297,192.48654 235.20361,192.20682 234.56425,192.08695   C 234.1247,191.96707 233.36546,191.92711 232.3265,191.92711   L 227.57128,191.92711   L 227.57128,205.63333   z  M 227.57128,188.37068   L 236.36245,188.37068   C 238.24056,188.37068 239.67911,188.17088 240.71807,187.81124   C 241.79698,187.41164 242.59618,186.81225 243.15562,185.93313   C 243.6751,185.09397 243.95482,184.1749 243.95482,183.1759   C 243.95482,181.69739 243.43534,180.49859 242.35642,179.57952   C 241.31747,178.62048 239.63915,178.18092 237.36144,178.18092   L 227.57128,178.18092   z  M 253.18554,195.72329   L 257.06164,195.36365   C 257.22148,196.92209 257.66104,198.2008 258.34036,199.1998   C 258.97972,200.15883 260.01867,200.95803 261.41727,201.59739   C 262.81586,202.19678 264.41425,202.51646 266.17249,202.51646   C 267.73092,202.51646 269.08955,202.2767 270.28835,201.79719   C 271.48714,201.35763 272.36626,200.71827 272.96566,199.87911   C 273.56506,199.07992 273.84478,198.2008 273.84478,197.24176   C 273.84478,196.28273 273.56506,195.44357 273.00562,194.72429   C 272.44618,194.00502 271.5271,193.36566 270.20843,192.88614   C 269.36927,192.56646 267.57108,192.08695 264.73393,191.36767   C 261.89678,190.68835 259.89879,190.04899 258.73996,189.4496   C 257.26144,188.69036 256.18253,187.73132 255.46325,186.57249   C 254.74397,185.45361 254.38433,184.13494 254.38433,182.73634   C 254.38433,181.17791 254.82389,179.69939 255.70301,178.38072   C 256.58212,177.02209 257.86084,175.98313 259.57911,175.26385   C 261.25743,174.58454 263.1755,174.2249 265.25341,174.2249   C 267.53112,174.2249 269.56907,174.58454 271.28735,175.34377   C 273.04558,176.06305 274.40421,177.14197 275.32329,178.58052   C 276.28233,180.01907 276.8018,181.65743 276.84176,183.45562   L 272.9257,183.73534   C 272.7259,181.77731 272.00662,180.33875 270.80783,179.33976   C 269.56907,178.34076 267.77088,177.82128 265.41325,177.82128   C 262.93574,177.82128 261.13755,178.26084 260.01867,179.17992   C 258.85984,180.09899 258.3004,181.17791 258.3004,182.45662   C 258.3004,183.5755 258.7,184.49458 259.49919,185.21385   C 260.29839,185.93313 262.33634,186.65241 265.69297,187.41164   C 269.00963,188.17088 271.28735,188.81024 272.5261,189.36968   C 274.32429,190.20883 275.64297,191.24779 276.48212,192.5265   C 277.36124,193.80522 277.8008,195.24377 277.8008,196.92209   C 277.8008,198.56044 277.32128,200.11887 276.36225,201.55743   C 275.44317,203.03594 274.08453,204.15482 272.3263,204.95401   C 270.56807,205.75321 268.57008,206.15281 266.37229,206.15281   C 263.5751,206.15281 261.21747,205.75321 259.33935,204.95401   C 257.46124,204.11486 255.94277,202.91606 254.90381,201.27771   C 253.8249,199.63935 253.26546,197.76124 253.18554,195.72329   z "
     style="fill:#000000;fill-rule:evenodd;fill-opacity:1;stroke:none;" />
</svg>
