<?xml version="1.0" encoding="UTF-8" standalone="no"?>
<svg
   xmlns:dc="http://purl.org/dc/elements/1.1/"
   xmlns:cc="http://creativecommons.org/ns#"
   xmlns:rdf="http://www.w3.org/1999/02/22-rdf-syntax-ns#"
   xmlns:svg="http://www.w3.org/2000/svg"
   xmlns="http://www.w3.org/2000/svg"
   id="svg33"
   height="95.75mm"
   width="95.75mm"
   version="1.0">
  <metadata
     id="metadata37">
    <rdf:RDF>
      <cc:Work
         rdf:about="">
        <dc:format>image/svg+xml</dc:format>
        <dc:type
           rdf:resource="http://purl.org/dc/dcmitype/StillImage" />
      </cc:Work>
    </rdf:RDF>
  </metadata>
  <defs
     id="defs3">
    <pattern
       y="0"
       x="0"
       height="6"
       width="6"
       patternUnits="userSpaceOnUse"
       id="EMFhbasepattern" />
  </defs>
  <path
     id="path5"
     d="  M 54.345381,54.345381   L 54.345381,307.53092   L 307.53092,307.53092   L 307.53092,54.345381   L 54.345381,54.345381   z "
     style="fill:#aaffaa;fill-rule:evenodd;fill-opacity:1;stroke:none;" />
  <path
     id="path7"
     d="  M 54.345381,54.345381   L 307.53092,54.345381   L 307.53092,307.53092   L 54.345381,307.53092   z "
     style="fill:none;stroke:#000000;stroke-width:9.5903616px;stroke-linecap:butt;stroke-linejoin:miter;stroke-miterlimit:10;stroke-dasharray:none;stroke-opacity:1;" />
  <path
     id="path9"
     d="  M 156.00321,152.16707   C 156.00321,156.00321 152.16707,159.08012 147.37189,159.08012   C 142.61666,159.08012 138.74056,156.00321 138.74056,152.16707   C 138.74056,148.37088 142.61666,145.29397 147.37189,145.29397   C 152.16707,145.29397 156.00321,148.37088 156.00321,152.16707   z "
     style="fill:#000000;fill-rule:evenodd;fill-opacity:1;stroke:none;" />
  <path
     id="path11"
     d="  M 156.00321,152.16707   C 156.00321,156.00321 152.16707,159.08012 147.37189,159.08012   C 142.61666,159.08012 138.74056,156.00321 138.74056,152.16707   C 138.74056,148.37088 142.61666,145.29397 147.37189,145.29397   C 152.16707,145.29397 156.00321,148.37088 156.00321,152.16707  "
     style="fill:none;stroke:#000000;stroke-width:4.7951808px;stroke-linecap:butt;stroke-linejoin:miter;stroke-miterlimit:10;stroke-dasharray:none;stroke-opacity:1;" />
  <path
     id="path13"
     d="  M 223.13574,152.16707   C 223.13574,156.00321 219.2996,159.08012 214.50441,159.08012   C 209.74919,159.08012 205.87309,156.00321 205.87309,152.16707   C 205.87309,148.37088 209.74919,145.29397 214.50441,145.29397   C 219.2996,145.29397 223.13574,148.37088 223.13574,152.16707   z "
     style="fill:#000000;fill-rule:evenodd;fill-opacity:1;stroke:none;" />
  <path
     id="path15"
     d="  M 223.13574,152.16707   C 223.13574,156.00321 219.2996,159.08012 214.50441,159.08012   C 209.74919,159.08012 205.87309,156.00321 205.87309,152.16707   C 205.87309,148.37088 209.74919,145.29397 214.50441,145.29397   C 219.2996,145.29397 223.13574,148.37088 223.13574,152.16707  "
     style="fill:none;stroke:#000000;stroke-width:4.7951808px;stroke-linecap:butt;stroke-linejoin:miter;stroke-miterlimit:10;stroke-dasharray:none;stroke-opacity:1;" />
  <path
     id="path17"
     d="  M 152.16707,146.41285   C 180.93815,159.83936 185.73333,167.51164 197.72128,202.03694  "
     style="fill:none;stroke:#000000;stroke-width:4.7951808px;stroke-linecap:butt;stroke-linejoin:miter;stroke-miterlimit:10;stroke-dasharray:none;stroke-opacity:1;" />
  <path
     id="path19"
     d="  M 209.70923,146.41285   C 180.93815,159.83936 176.14297,167.51164 164.15502,202.03694  "
     style="fill:none;stroke:#000000;stroke-width:4.7951808px;stroke-linecap:butt;stroke-linejoin:miter;stroke-miterlimit:10;stroke-dasharray:none;stroke-opacity:1;" />
  <path
     id="path21"
     d="  M 307.53092,54.345381   L 54.345381,307.53092  "
     style="fill:none;stroke:#000000;stroke-width:9.5903616px;stroke-linecap:butt;stroke-linejoin:miter;stroke-miterlimit:10;stroke-dasharray:none;stroke-opacity:1;" />
  <path
     id="path23"
     d="  M 126.27309,107.29217   C 71.608031,107.29217 71.608031,208.59036 126.27309,208.59036   L 235.60321,208.59036   C 290.26827,208.59036 290.26827,107.29217 235.60321,107.29217   z "
     style="fill:none;stroke:#000000;stroke-width:9.1108437px;stroke-linecap:butt;stroke-linejoin:miter;stroke-miterlimit:10;stroke-dasharray:none;stroke-opacity:1;" />
  <path
     id="path25"
     d="  M 116.68273,224.09478   C 116.68273,231.00783 111.12831,236.56225 104.21526,236.56225   C 97.342167,236.56225 91.74779,231.00783 91.74779,224.09478   C 91.74779,217.22168 97.342167,211.62731 104.21526,211.62731   C 111.12831,211.62731 116.68273,217.22168 116.68273,224.09478  "
     style="fill:none;stroke:#000000;stroke-width:9.5903616px;stroke-linecap:butt;stroke-linejoin:miter;stroke-miterlimit:10;stroke-dasharray:none;stroke-opacity:1;" />
  <path
     id="path27"
     d="  M 193.40562,224.09478   C 193.40562,231.00783 187.8512,236.56225 180.93815,236.56225   C 174.06506,236.56225 168.47068,231.00783 168.47068,224.09478   C 168.47068,217.22168 174.06506,211.62731 180.93815,211.62731   C 187.8512,211.62731 193.40562,217.22168 193.40562,224.09478  "
     style="fill:none;stroke:#000000;stroke-width:9.5903616px;stroke-linecap:butt;stroke-linejoin:miter;stroke-miterlimit:10;stroke-dasharray:none;stroke-opacity:1;" />
  <path
     id="path29"
     d="  M 270.12851,224.09478   C 270.12851,231.00783 264.57409,236.56225 257.66104,236.56225   C 250.78795,236.56225 245.19357,231.00783 245.19357,224.09478   C 245.19357,217.22168 250.78795,211.62731 257.66104,211.62731   C 264.57409,211.62731 270.12851,217.22168 270.12851,224.09478  "
     style="fill:none;stroke:#000000;stroke-width:9.5903616px;stroke-linecap:butt;stroke-linejoin:miter;stroke-miterlimit:10;stroke-dasharray:none;stroke-opacity:1;" />
  <path
     id="path31"
     d="  M 158.28092,140.41887   L 158.28092,109.52992   L 171.94719,109.52992   C 174.70442,109.52992 176.82229,109.80964 178.22088,110.36907   C 179.65944,110.92851 180.81827,111.88755 181.65743,113.3261   C 182.53654,114.7247 182.9761,116.24317 182.9761,117.96144   C 182.9761,120.15924 182.25682,121.99739 180.81827,123.51586   C 179.41968,124.99438 177.22188,125.95341 174.26486,126.35301   C 175.34377,126.87249 176.14297,127.39197 176.74237,127.91144   C 177.9012,128.99036 179.06004,130.38895 180.09899,132.02731   L 185.49357,140.41887   L 180.33875,140.41887   L 176.26285,133.98534   C 175.06405,132.14719 174.06506,130.70863 173.30582,129.7496   C 172.54658,128.7506 171.82731,128.07128 171.22791,127.67168   C 170.62851,127.27209 169.98915,126.99237 169.3498,126.87249   C 168.91024,126.75261 168.151,126.71265 167.11205,126.71265   L 162.35682,126.71265   L 162.35682,140.41887   z  M 162.35682,123.15622   L 171.14799,123.15622   C 173.0261,123.15622 174.46466,122.95642 175.50361,122.59679   C 176.58253,122.19719 177.38172,121.59779 177.94116,120.71867   C 178.46064,119.87952 178.74036,118.96044 178.74036,117.96144   C 178.74036,116.48293 178.22088,115.28413 177.14197,114.36506   C 176.10301,113.40602 174.4247,112.96646 172.14699,112.96646   L 162.35682,112.96646   z  M 187.97108,130.50883   L 191.84719,130.14919   C 192.00703,131.70763 192.44658,132.98634 193.1259,133.98534   C 193.76526,134.94438 194.80421,135.74357 196.20281,136.38293   C 197.6014,136.98233 199.1998,137.30201 200.95803,137.30201   C 202.51646,137.30201 203.8751,137.06225 205.07389,136.58273   C 206.27269,136.14317 207.1518,135.50381 207.7512,134.66466   C 208.3506,133.86546 208.63032,132.98634 208.63032,132.02731   C 208.63032,131.06827 208.3506,130.22911 207.79116,129.50984   C 207.23172,128.79056 206.31265,128.1512 204.99397,127.67168   C 204.15482,127.35201 202.35662,126.87249 199.51948,126.15321   C 196.68233,125.47389 194.68433,124.83454 193.5255,124.23514   C 192.04699,123.4759 190.96807,122.51687 190.24879,121.35803   C 189.52952,120.23915 189.16988,118.92048 189.16988,117.52189   C 189.16988,115.96345 189.60944,114.48494 190.48855,113.16626   C 191.36767,111.80763 192.64638,110.76867 194.36466,110.0494   C 196.04297,109.37008 197.96104,109.01044 200.03895,109.01044   C 202.31666,109.01044 204.35462,109.37008 206.07289,110.12932   C 207.83112,110.84859 209.18976,111.92751 210.10883,113.36606   C 211.06787,114.80462 211.58735,116.44297 211.62731,118.24116   L 207.71124,118.52088   C 207.51144,116.56285 206.79217,115.1243 205.59337,114.1253   C 204.35462,113.1263 202.55642,112.60683 200.19879,112.60683   C 197.72128,112.60683 195.92309,113.04638 194.80421,113.96546   C 193.64538,114.88454 193.08594,115.96345 193.08594,117.24217   C 193.08594,118.36104 193.48554,119.28012 194.28474,119.9994   C 195.08393,120.71867 197.12188,121.43795 200.47851,122.19719   C 203.79518,122.95642 206.07289,123.59578 207.31164,124.15522   C 209.10984,124.99438 210.42851,126.03333 211.26767,127.31205   C 212.14678,128.59076 212.58634,130.02932 212.58634,131.70763   C 212.58634,133.34598 212.10682,134.90442 211.14779,136.34297   C 210.22871,137.82148 208.87008,138.94036 207.11184,139.73956   C 205.35361,140.53875 203.35562,140.93835 201.15783,140.93835   C 198.36064,140.93835 196.00301,140.53875 194.1249,139.73956   C 192.24678,138.9004 190.72831,137.7016 189.68935,136.06325   C 188.61044,134.4249 188.051,132.54679 187.97108,130.50883   z "
     style="fill:#000000;fill-rule:evenodd;fill-opacity:1;stroke:none;" />
</svg>
