<?xml version="1.0" encoding="UTF-8" standalone="no"?>
<svg
   xmlns:dc="http://purl.org/dc/elements/1.1/"
   xmlns:cc="http://creativecommons.org/ns#"
   xmlns:rdf="http://www.w3.org/1999/02/22-rdf-syntax-ns#"
   xmlns:svg="http://www.w3.org/2000/svg"
   xmlns="http://www.w3.org/2000/svg"
   id="svg25"
   height="116.73mm"
   width="116.73mm"
   version="1.0">
  <metadata
     id="metadata29">
    <rdf:RDF>
      <cc:Work
         rdf:about="">
        <dc:format>image/svg+xml</dc:format>
        <dc:type
           rdf:resource="http://purl.org/dc/dcmitype/StillImage" />
      </cc:Work>
    </rdf:RDF>
  </metadata>
  <defs
     id="defs3">
    <pattern
       y="0"
       x="0"
       height="6"
       width="6"
       patternUnits="userSpaceOnUse"
       id="EMFhbasepattern" />
  </defs>
  <path
     id="path5"
     d="  M 220.57831,386.49156   L 220.57831,386.49156   L 386.49156,220.57831   L 220.57831,54.665059   L 54.665059,220.57831   L 220.57831,386.49156   z "
     style="fill:#ff8080;fill-rule:evenodd;fill-opacity:1;stroke:none;" />
  <path
     id="path7"
     d="  M 220.57831,386.49156   L 220.57831,386.49156   L 386.49156,220.57831   L 220.57831,54.665059   L 54.665059,220.57831   L 220.57831,386.49156  "
     style="fill:none;stroke:#000000;stroke-width:9.5903616px;stroke-linecap:butt;stroke-linejoin:miter;stroke-miterlimit:10;stroke-dasharray:none;stroke-opacity:1;" />
  <path
     id="path9"
     d="  M 70.968674,237.84096   C 73.845782,236.88192 79.599999,230.16867 79.599999,220.57831   C 79.599999,191.80723 119.87952,191.80723 119.87952,220.57831   C 119.87952,249.34939 160.15903,249.34939 160.15903,220.57831   C 160.15903,191.80723 200.43855,191.80723 200.43855,220.57831   C 200.43855,249.34939 240.71807,249.34939 240.71807,220.57831   C 240.71807,191.80723 280.99759,191.80723 280.99759,220.57831   C 280.99759,249.34939 321.2771,249.34939 321.2771,220.57831   C 321.2771,191.80723 361.55662,191.80723 361.55662,220.57831   C 361.55662,230.16867 367.31084,236.88192 370.18795,237.84096  "
     style="fill:none;stroke:#000000;stroke-width:9.5903616px;stroke-linecap:butt;stroke-linejoin:miter;stroke-miterlimit:10;stroke-dasharray:none;stroke-opacity:1;" />
  <path
     id="path11"
     d="  M 163.03614,163.03614   C 105.49397,163.03614 105.49397,255.10361 163.03614,255.10361   L 278.12048,255.10361   C 335.66265,255.10361 335.66265,163.03614 278.12048,163.03614   z "
     style="fill:none;stroke:#000000;stroke-width:9.5903616px;stroke-linecap:butt;stroke-linejoin:miter;stroke-miterlimit:10;stroke-dasharray:none;stroke-opacity:1;" />
  <path
     id="path13"
     d="  M 156.32289,268.53012   C 156.32289,275.44317 150.76847,280.99759 143.85542,280.99759   C 136.98233,280.99759 131.38795,275.44317 131.38795,268.53012   C 131.38795,261.65702 136.98233,256.06265 143.85542,256.06265   C 150.76847,256.06265 156.32289,261.65702 156.32289,268.53012  "
     style="fill:none;stroke:#000000;stroke-width:9.5903616px;stroke-linecap:butt;stroke-linejoin:miter;stroke-miterlimit:10;stroke-dasharray:none;stroke-opacity:1;" />
  <path
     id="path15"
     d="  M 233.04578,268.53012   C 233.04578,275.44317 227.49136,280.99759 220.57831,280.99759   C 213.70522,280.99759 208.11084,275.44317 208.11084,268.53012   C 208.11084,261.65702 213.70522,256.06265 220.57831,256.06265   C 227.49136,256.06265 233.04578,261.65702 233.04578,268.53012  "
     style="fill:none;stroke:#000000;stroke-width:9.5903616px;stroke-linecap:butt;stroke-linejoin:miter;stroke-miterlimit:10;stroke-dasharray:none;stroke-opacity:1;" />
  <path
     id="path17"
     d="  M 309.76867,268.53012   C 309.76867,275.44317 304.21425,280.99759 297.3012,280.99759   C 290.42811,280.99759 284.83373,275.44317 284.83373,268.53012   C 284.83373,261.65702 290.42811,256.06265 297.3012,256.06265   C 304.21425,256.06265 309.76867,261.65702 309.76867,268.53012  "
     style="fill:none;stroke:#000000;stroke-width:9.5903616px;stroke-linecap:butt;stroke-linejoin:miter;stroke-miterlimit:10;stroke-dasharray:none;stroke-opacity:1;" />
  <path
     id="path19"
     d="  M 191.80723,300.17831   L 249.34939,300.17831  "
     style="fill:none;stroke:#000000;stroke-width:9.5903616px;stroke-linecap:butt;stroke-linejoin:miter;stroke-miterlimit:10;stroke-dasharray:none;stroke-opacity:1;" />
  <path
     id="path21"
     d="  M 177.42168,287.71084   C 191.80723,287.71084 191.80723,312.64578 177.42168,312.64578  "
     style="fill:none;stroke:#000000;stroke-width:9.5903616px;stroke-linecap:butt;stroke-linejoin:miter;stroke-miterlimit:10;stroke-dasharray:none;stroke-opacity:1;" />
  <path
     id="path23"
     d="  M 263.73494,287.71084   C 249.34939,287.71084 249.34939,312.64578 263.73494,312.64578  "
     style="fill:none;stroke:#000000;stroke-width:9.5903616px;stroke-linecap:butt;stroke-linejoin:miter;stroke-miterlimit:10;stroke-dasharray:none;stroke-opacity:1;" />
</svg>
