<?xml version="1.0" encoding="UTF-8" standalone="no"?>
<svg
   xmlns:dc="http://purl.org/dc/elements/1.1/"
   xmlns:cc="http://creativecommons.org/ns#"
   xmlns:rdf="http://www.w3.org/1999/02/22-rdf-syntax-ns#"
   xmlns:svg="http://www.w3.org/2000/svg"
   xmlns="http://www.w3.org/2000/svg"
   id="svg11"
   height="116.73mm"
   width="116.73mm"
   version="1.0">
  <metadata
     id="metadata15">
    <rdf:RDF>
      <cc:Work
         rdf:about="">
        <dc:format>image/svg+xml</dc:format>
        <dc:type
           rdf:resource="http://purl.org/dc/dcmitype/StillImage" />
      </cc:Work>
    </rdf:RDF>
  </metadata>
  <defs
     id="defs3">
    <pattern
       y="0"
       x="0"
       height="6"
       width="6"
       patternUnits="userSpaceOnUse"
       id="EMFhbasepattern" />
  </defs>
  <path
     id="path5"
     d="  M 220.57831,386.49156   L 220.57831,386.49156   L 386.49156,220.57831   L 220.57831,54.665059   L 54.665059,220.57831   L 220.57831,386.49156   z "
     style="fill:#ff8080;fill-rule:evenodd;fill-opacity:1;stroke:none;" />
  <path
     id="path7"
     d="  M 220.57831,386.49156   L 220.57831,386.49156   L 386.49156,220.57831   L 220.57831,54.665059   L 54.665059,220.57831   L 220.57831,386.49156  "
     style="fill:none;stroke:#000000;stroke-width:9.5903616px;stroke-linecap:butt;stroke-linejoin:miter;stroke-miterlimit:10;stroke-dasharray:none;stroke-opacity:1;" />
  <path
     id="path9"
     d="  M 141.17811,243.11566   L 124.79458,181.33775   L 133.18614,181.33775   L 142.5767,221.81707   C 143.5757,226.09277 144.45482,230.28855 145.17409,234.48433   C 146.77249,227.851 147.69156,224.05482 147.97128,223.05582   L 159.71948,181.33775   L 169.58956,181.33775   L 178.42068,212.58634   C 180.65843,220.33855 182.25682,227.6512 183.25582,234.48433   C 184.01506,230.56827 185.05401,226.09277 186.33273,221.01787   L 196.00301,181.33775   L 204.23474,181.33775   L 187.29176,243.11566   L 179.41968,243.11566   L 166.39277,196.04297   C 165.27389,192.08695 164.63454,189.68935 164.43474,188.77028   C 163.79538,191.60743 163.19598,194.04498 162.63654,196.04297   L 149.52972,243.11566   z  M 212.10682,243.11566   L 212.10682,181.33775   L 220.29859,181.33775   L 220.29859,206.71225   L 252.38634,206.71225   L 252.38634,181.33775   L 260.57811,181.33775   L 260.57811,243.11566   L 252.38634,243.11566   L 252.38634,213.98494   L 220.29859,213.98494   L 220.29859,243.11566   z  M 289.90863,243.11566   L 289.90863,188.61044   L 269.56907,188.61044   L 269.56907,181.33775   L 318.51987,181.33775   L 318.51987,188.61044   L 298.1004,188.61044   L 298.1004,243.11566   z "
     style="fill:#000000;fill-rule:evenodd;fill-opacity:1;stroke:none;" />
</svg>
